<?xml version="1.0" encoding="UTF-8"?>
<svg xmlns="http://www.w3.org/2000/svg" xmlns:xlink="http://www.w3.org/1999/xlink" viewBox="0 0 1190.89 500">
  <defs>
    <style>
      .cls-1 {
        clip-path: url(#clippath);
      }
      .cls-2 {
        fill: none;
      }
      .cls-2, .cls-3, .cls-4, .cls-5 {
        stroke-width: 0px;
      }
      .cls-3 {
        fill: url(#radial-gradient);
      }
      .cls-4 {
        fill: #e6103b;
      }
      .cls-5 {
        fill: #fff;
      }
    </style>
    <clipPath id="clippath">
      <polygon class="cls-2" points="198.3 137.33 198.3 362.67 124.85 362.67 124.85 246.29 198.3 137.33"/>
    </clipPath>
    <radialGradient id="radial-gradient" cx="471.34" cy="322.27" fx="471.34" fy="322.27" r="59.32" gradientTransform="translate(-956.14 -571.67) scale(2.2)" gradientUnits="userSpaceOnUse">
      <stop offset=".6" stop-color="#000"/>
      <stop offset=".94" stop-color="rgba(154, 154, 154, .4)" stop-opacity=".4"/>
      <stop offset="1" stop-color="#fff" stop-opacity="0"/>
    </radialGradient>
  </defs>
  <g>
    <circle id="Circle" class="cls-4" cx="250" cy="250" r="250"/>
    <path class="cls-5" d="M301.7,132.5c-44.68,0-83.53,24.94-103.4,61.66v-56.83h-73.45v225.34h73.45v-56.83c19.87,36.72,58.72,61.66,103.4,61.66,64.89,0,117.5-52.61,117.5-117.5s-52.61-117.5-117.5-117.5ZM301.7,294.05c-24.33,0-44.05-19.72-44.05-44.05s19.72-44.05,44.05-44.05,44.06,19.72,44.06,44.05-19.72,44.05-44.06,44.05Z"/>
    <g>
      <g class="cls-1">
        <path id="Shadow" class="cls-3" d="M80.8,267.83c72.07,0,130.5-58.43,130.5-130.5H80.8v130.5Z"/>
      </g>
    </g>
    <path id="Curve" class="cls-5" d="M80.8,181.38v73.45c64.89,0,117.5-52.61,117.5-117.5h-73.45c0,24.33-19.72,44.05-44.05,44.05Z"/>
  </g>
  <g>
    <path class="cls-4" d="M622.29,321.4c-2.56-2.56-5.68-4.56-9.27-5.93-3.54-1.36-7.54-2.05-11.89-2.05h-41.05v80.84h41.05c4.35,0,8.35-.69,11.89-2.05,3.59-1.38,6.71-3.37,9.27-5.93,2.56-2.56,4.56-5.69,5.94-9.3,1.36-3.56,2.05-7.55,2.05-11.86v-22.56c0-4.31-.69-8.3-2.05-11.86-1.38-3.61-3.37-6.74-5.94-9.3ZM613.91,342.55v22.56c0,4.27-1.05,7.39-3.22,9.56-2.16,2.16-5.29,3.22-9.56,3.22h-24.68v-48.11h24.68c2.11,0,3.99.3,5.6.88,1.55.56,2.82,1.35,3.88,2.42s1.85,2.33,2.42,3.88c.58,1.61.88,3.49.88,5.6Z"/>
    <path class="cls-4" d="M758.49,343.08v-8.55c0-13.81-7.28-21.11-21.06-21.11h-43.99v80.84h16.37v-30.06h18.96l13.95,30.06h18.1l-14.58-31.32c6.2-2.05,12.25-7.28,12.25-19.85ZM742.12,335.05v7.5c0,2.02-.38,3.52-1.07,4.21-.69.69-2.18,1.07-4.21,1.07h-27.04v-18.05h27.04c2.02,0,3.52.38,4.21,1.07.69.69,1.07,2.18,1.07,4.21Z"/>
    <path class="cls-4" d="M855.22,313.41l-31.17,80.84h16.77l6.66-17.31h30.09l6.66,17.31h16.77l-31.17-80.84h-14.6ZM871.26,360.57h-17.51l8.79-22.58,8.72,22.58Z"/>
    <polygon class="cls-4" points="1006.88 366.66 979.96 313.41 963.68 313.41 963.68 394.25 980.04 394.25 980.04 348.01 1003.58 394.25 1010.22 394.25 1033.76 348.01 1033.76 394.25 1050.08 394.25 1050.08 313.41 1033.85 313.41 1006.88 366.66"/>
    <path class="cls-4" d="M1159.08,313.41h-14.6l-31.17,80.84h16.77l6.66-17.31h30.09l6.66,17.31h16.77l-31.17-80.84ZM1160.51,360.57h-17.51l8.79-22.58,8.72,22.58Z"/>
  </g>
  <path id="Bold" class="cls-4" d="M852.8,111.41c-3-3-7.07-4.69-11.31-4.69h-71.9c-4.24,0-8.31,1.69-11.31,4.69l-21.87,21.87c-3,3-4.69,7.07-4.69,11.31v104.52c0,4.24,1.69,8.31,4.69,11.31l21.87,21.88c3,3,7.07,4.69,11.31,4.69h71.9c4.24,0,8.31-1.69,11.31-4.69l21.87-21.88c3-3,4.69-7.07,4.69-11.31v-104.52c0-4.24-1.69-8.31-4.69-11.31l-21.87-21.87ZM847.36,240.49c0,1.1-.64,2.64-1.41,3.41l-9.67,9.67c-.78.78-2.31,1.41-3.41,1.41h-54.65c-1.1,0-2.64-.64-3.41-1.41l-9.67-9.67c-.78-.78-1.41-2.31-1.41-3.41v-87.27c0-1.1.64-2.64,1.41-3.41l9.67-9.67c.78-.78,2.31-1.41,3.41-1.41h54.65c1.1,0,2.64.64,3.41,1.41l9.67,9.67c.78.78,1.41,2.31,1.41,3.41v87.27ZM1186.21,133.28l-21.87-21.87c-3-3-7.07-4.69-11.31-4.69h-109.78v180.27h109.78c4.24,0,8.31-1.69,11.31-4.69l21.87-21.87c3-3,4.69-7.07,4.69-11.31v-104.52c0-4.24-1.69-8.31-4.69-11.31ZM1158.89,240.49c0,1.1-.64,2.64-1.41,3.41l-9.67,9.67c-.78.78-2.31,1.41-3.41,1.41h-69.15v-116.27h69.15c1.1,0,2.64.64,3.41,1.41l9.67,9.67c.78.78,1.41,2.31,1.41,3.41v87.27ZM1019.13,254.99v32h-115.65V106.72h32s0,148.27,0,148.27h83.66ZM681.04,111.41c-3-3-7.07-4.69-11.31-4.69h-109.78v180.27h109.78c4.24,0,8.31-1.69,11.31-4.69l21.87-21.88c3-3,4.69-7.07,4.69-11.31v-26.39c0-4.24-1.69-8.31-4.69-11.31l-14.56-14.56,14.56-14.56c3-3,4.69-7.07,4.69-11.31v-26.39c0-4.24-1.69-8.31-4.69-11.31l-21.87-21.87ZM675.6,240.49c0,1.1-.64,2.64-1.41,3.41l-9.67,9.67c-.78.78-2.31,1.41-3.41,1.41h-69.15v-42.13h65.16c1.1,0,2.64.64,3.41,1.41l13.67,13.67c.78.78,1.41,2.31,1.41,3.41v9.13ZM675.6,162.35c0,1.1-.64,2.64-1.41,3.41l-13.67,13.67c-.78.78-2.31,1.41-3.41,1.41h-65.16v-42.13h69.15c1.1,0,2.64.64,3.41,1.41l9.67,9.67c.78.78,1.41,2.31,1.41,3.41v9.13Z"/>
</svg>