<svg width="274" height="124" viewBox="0 0 274 124" fill="none" xmlns="http://www.w3.org/2000/svg">
    <path d="M256.276 53.4249L247.165 79.5697L238.059 53.4249H219.942L238.813 100.448H254.963L273.833 53.4249H256.279H256.276ZM217.135 67.2536V53.4275H206.148V39.971H189.059V53.4275H182.768V67.2536H189.053V83.9897C189.053 89.6365 190.571 93.9962 193.606 97.0661L193.611 97.0713C196.647 100.146 200.794 101.68 206.053 101.677C208.293 101.717 210.528 101.494 212.718 101.017C214.241 100.679 215.722 100.175 217.132 99.512V85.0304C216.363 85.4761 215.541 85.8222 214.685 86.0607C213.83 86.3072 212.948 86.4356 212.058 86.4408C210.454 86.5562 208.869 86.0319 207.649 84.9806C206.65 84.0054 206.148 82.3302 206.148 79.9446V67.2536H217.132H217.135ZM130.834 43.2296C130.991 42.3225 131.193 41.4233 131.439 40.5346C131.677 39.6721 131.96 38.8227 132.287 37.9891C132.601 37.1816 132.956 36.3899 133.354 35.6192C133.741 34.8721 134.168 34.1485 134.636 33.4485C135.092 32.7617 135.586 32.1011 136.115 31.4719C136.646 30.8453 137.211 30.2502 137.808 29.6866C138.407 29.1256 139.035 28.596 139.689 28.1006C140.348 27.6051 141.034 27.1411 141.746 26.7111C142.465 26.2812 143.206 25.8853 143.967 25.5262C144.736 25.167 145.545 24.8315 146.369 24.5405C147.193 24.2442 148.052 23.9899 148.92 23.7697C149.794 23.5443 150.697 23.3608 151.615 23.214C153.533 22.9125 155.475 22.7657 157.416 22.7735C159.264 22.7683 161.111 22.9046 162.937 23.1877C164.664 23.4551 166.362 23.872 168.019 24.433C169.581 24.9599 171.096 25.6153 172.548 26.3939C173.914 27.128 175.209 27.9904 176.413 28.9657C176.826 29.3012 177.221 29.642 177.616 30.0222C177.619 30.0222 177.622 30.0222 177.622 30.0274V9.96457C177.622 4.4619 173.189 0 167.726 0H9.89592C4.43249 0.00262156 0 4.46452 0 9.96719V114.038C0 119.541 4.43249 124.003 9.89592 124.003H167.72C173.186 124.003 177.616 119.541 177.616 114.038V95.7553C176.434 96.6492 175.18 97.4409 173.867 98.1252C172.477 98.8409 171.036 99.4569 169.557 99.9655C168.678 100.275 167.765 100.532 166.841 100.765C165.912 100.991 164.949 101.185 163.981 101.331C161.953 101.641 159.902 101.793 157.851 101.787C156.767 101.787 155.7 101.753 154.666 101.672C153.633 101.591 152.61 101.473 151.626 101.313C150.637 101.158 149.663 100.967 148.729 100.728C147.795 100.49 146.871 100.217 145.979 99.9078C145.09 99.5932 144.221 99.242 143.394 98.8618C142.57 98.4765 141.767 98.057 141.008 97.6113C140.252 97.163 139.519 96.6754 138.815 96.1511C137.415 95.1235 136.141 93.9333 135.016 92.6094C134.451 91.9435 133.927 91.2436 133.443 90.5174C132.949 89.7755 132.499 89.0047 132.09 88.2104C131.666 87.3925 131.29 86.551 130.957 85.6937C130.612 84.7998 130.314 83.8901 130.06 82.9673C129.806 82.0366 129.592 81.0614 129.421 80.0652C129.251 79.069 129.126 78.0283 129.037 76.9691C128.953 75.9126 128.911 74.809 128.911 73.6869H148.797C148.808 74.3633 148.873 75.037 148.991 75.7029C149.101 76.3321 149.266 76.9482 149.48 77.5485C149.69 78.1252 149.951 78.681 150.26 79.2132C150.574 79.7428 150.932 80.2435 151.333 80.7127C151.725 81.1715 152.167 81.5857 152.652 81.9475C153.122 82.2988 153.635 82.595 154.174 82.8283C154.729 83.0695 155.31 83.2478 155.907 83.3579C156.548 83.4759 157.197 83.5362 157.848 83.5335C158.466 83.5388 159.08 83.4968 159.69 83.4077C160.25 83.3317 160.802 83.2085 161.339 83.0328C161.846 82.8729 162.338 82.6658 162.806 82.4115C163.262 82.1677 163.691 81.8793 164.089 81.5464C164.868 80.9015 165.481 80.0757 165.87 79.1398C166.069 78.6522 166.218 78.1436 166.315 77.6245C166.415 77.0556 166.464 76.4789 166.464 75.8995C166.464 75.3674 166.41 74.8378 166.305 74.3187C166.098 73.3357 165.664 72.4181 165.033 71.6369C164.701 71.2332 164.329 70.8635 163.924 70.5358C163.489 70.1871 163.018 69.8883 162.521 69.6366C161.985 69.3745 161.428 69.1595 160.854 68.997C160.224 68.8213 159.58 68.6929 158.931 68.6116C158.204 68.5277 157.474 68.4858 156.744 68.4858H153.544V53.6556H156.304C156.848 53.6608 157.393 53.6215 157.932 53.5402C158.432 53.4642 158.923 53.341 159.4 53.1758C159.85 53.0159 160.284 52.8114 160.697 52.5702C161.501 52.0852 162.197 51.4456 162.749 50.6853C163.275 49.9513 163.631 49.1124 163.793 48.2237C163.887 47.7544 163.932 47.2747 163.924 46.7975C163.934 45.956 163.78 45.1197 163.474 44.3359C163.319 43.9584 163.128 43.5966 162.901 43.2558C162.668 42.8993 162.401 42.5663 162.103 42.2649C161.799 41.9529 161.462 41.675 161.095 41.4391C160.724 41.1979 160.323 41.0013 159.907 40.8492C159.46 40.6893 158.997 40.5713 158.528 40.4979C158.013 40.4193 157.49 40.38 156.966 40.3826C156.425 40.3826 155.883 40.4324 155.349 40.5373C154.857 40.629 154.381 40.7811 153.926 40.9882C153.489 41.1926 153.078 41.4469 152.699 41.7484C152.314 42.063 151.966 42.4222 151.665 42.818C151.348 43.2244 151.068 43.6622 150.836 44.1236C150.592 44.6007 150.391 45.0988 150.231 45.61C150.058 46.1526 149.928 46.7084 149.841 47.2747C149.742 47.8881 149.687 48.5042 149.671 49.1255H130.345C130.345 48.0952 130.39 47.0807 130.465 46.1055C130.549 45.1302 130.67 44.1655 130.829 43.2401M52.1616 100.222H31.6162V42.9045H18.9205V24.3124H52.1616V100.222ZM121.075 100.222H63.9755V84.0657L91.918 61.3813C93.2341 60.3406 94.4953 59.2342 95.7015 58.065C96.62 57.1789 97.4599 56.2142 98.2135 55.1839C98.8074 54.3634 99.281 53.4616 99.6212 52.5073C99.9273 51.6238 100.087 50.6984 100.095 49.7652C100.095 49.1989 100.05 48.6326 99.9561 48.0742C99.8698 47.5552 99.7337 47.0466 99.5558 46.5537C99.1999 45.6021 98.6478 44.7344 97.9387 44.0082C97.5855 43.649 97.1956 43.3266 96.7796 43.0435C96.3662 42.7682 95.9266 42.5375 95.4661 42.354C94.9898 42.1652 94.4953 42.0289 93.9929 41.9398C93.4565 41.8454 92.9123 41.7982 92.3654 41.7956C91.7505 41.7956 91.1382 41.8507 90.5338 41.9608C89.9712 42.0682 89.4244 42.2413 88.901 42.472C88.3908 42.6974 87.9094 42.9832 87.4645 43.3214C87.0119 43.67 86.5985 44.0659 86.2321 44.5063C85.8475 44.9677 85.5126 45.471 85.2378 46.0058C84.9395 46.5747 84.6962 47.1698 84.5078 47.7859C84.3037 48.4622 84.152 49.1517 84.0525 49.8517C83.94 50.6303 83.8746 51.4167 83.8589 52.2032H63.8682C63.8682 51.0786 63.9179 49.9775 63.9938 48.9105C64.0697 47.8436 64.2031 46.7792 64.368 45.7699C64.5328 44.7553 64.7421 43.7487 64.9881 42.7892C65.2367 41.8297 65.5271 40.8781 65.8568 39.9736C66.1786 39.077 66.5476 38.1988 66.9636 37.3416C67.3613 36.5079 67.8035 35.6978 68.2876 34.9114C69.2296 33.3804 70.339 31.9621 71.5976 30.6802C72.2229 30.0484 72.8823 29.448 73.5705 28.8844C74.256 28.3155 74.9756 27.7912 75.7265 27.3088C76.4854 26.816 77.2677 26.3625 78.0736 25.9482C78.8979 25.5288 79.7404 25.1513 80.6039 24.8131C81.4883 24.4723 82.3884 24.1734 83.3042 23.9218C84.2331 23.6622 85.1881 23.4473 86.1693 23.2769C87.1427 23.1117 88.1606 22.9728 89.1889 22.8915C90.2172 22.8102 91.2848 22.7709 92.368 22.7709C94.3566 22.763 96.3426 22.9203 98.3051 23.2402C99.2496 23.3948 100.186 23.5915 101.086 23.83C101.981 24.066 102.884 24.3412 103.742 24.6506C104.606 24.9652 105.446 25.306 106.249 25.6861C107.047 26.0662 107.832 26.4804 108.575 26.9208C109.316 27.3586 110.035 27.8332 110.726 28.347C111.412 28.8477 112.071 29.3904 112.694 29.9671C113.314 30.5334 113.908 31.1285 114.47 31.7524C115.02 32.3816 115.54 33.0291 116.032 33.6976C116.519 34.374 116.972 35.0739 117.39 35.7975C117.809 36.5184 118.199 37.2734 118.544 38.0389C118.895 38.8175 119.201 39.6171 119.463 40.4298C119.727 41.2529 119.947 42.0892 120.117 42.936C120.295 43.8063 120.426 44.6872 120.507 45.5733C120.596 46.4646 120.638 47.3979 120.638 48.3338C120.638 49.5318 120.559 50.7273 120.402 51.9148C120.248 53.0788 120.012 54.2323 119.698 55.3622C119.379 56.5026 118.968 57.6141 118.471 58.689C117.95 59.8162 117.346 60.9016 116.663 61.9397C115.923 63.0617 115.117 64.1392 114.243 65.1616C113.282 66.2967 112.262 67.3821 111.192 68.4124C110.074 69.4977 108.811 70.6276 107.426 71.7732C106.04 72.9188 104.506 74.1195 102.858 75.3254C99.9273 77.4567 97.4704 79.1214 95.5681 80.2566C93.6711 81.3917 92.593 82.0419 92.368 82.1913H121.08V100.228L121.075 100.222ZM130.834 43.2296C130.991 42.3225 131.193 41.4233 131.439 40.5346C131.677 39.6721 131.96 38.8227 132.287 37.9891C132.601 37.1816 132.956 36.3899 133.354 35.6192C133.741 34.8721 134.168 34.1485 134.636 33.4485C135.092 32.7617 135.586 32.1011 136.115 31.4719C136.646 30.8453 137.211 30.2502 137.808 29.6866C138.407 29.1256 139.035 28.596 139.689 28.1006C140.348 27.6051 141.034 27.1411 141.746 26.7111C142.465 26.2812 143.206 25.8853 143.967 25.5262C144.736 25.167 145.545 24.8315 146.369 24.5405C147.193 24.2442 148.052 23.9899 148.92 23.7697C149.794 23.5443 150.697 23.3608 151.615 23.214C153.533 22.9125 155.475 22.7657 157.416 22.7735C159.264 22.7683 161.111 22.9046 162.937 23.1877C164.664 23.4551 166.362 23.872 168.019 24.433C169.581 24.9599 171.096 25.6153 172.548 26.3939C173.914 27.128 175.209 27.9904 176.413 28.9657C176.826 29.3012 177.221 29.642 177.616 30.0222C177.619 30.0222 177.622 30.0222 177.622 30.0274V9.96457C177.622 4.4619 173.189 0 167.726 0H9.89592C4.43249 0.00262156 0 4.46452 0 9.96719V114.038C0 119.541 4.43249 124.003 9.89592 124.003H167.72C173.186 124.003 177.616 119.541 177.616 114.038V95.7553C176.434 96.6492 175.18 97.4409 173.867 98.1252C172.477 98.8409 171.036 99.4569 169.557 99.9655C168.678 100.275 167.765 100.532 166.841 100.765C165.912 100.991 164.949 101.185 163.981 101.331C161.953 101.641 159.902 101.793 157.851 101.787C156.767 101.787 155.7 101.753 154.666 101.672C153.633 101.591 152.61 101.473 151.626 101.313C150.637 101.158 149.663 100.967 148.729 100.728C147.795 100.49 146.871 100.217 145.979 99.9078C145.09 99.5932 144.221 99.242 143.394 98.8618C142.57 98.4765 141.767 98.057 141.008 97.6113C140.252 97.163 139.519 96.6754 138.815 96.1511C137.415 95.1235 136.141 93.9333 135.016 92.6094C134.451 91.9435 133.927 91.2436 133.443 90.5174C132.949 89.7755 132.499 89.0047 132.09 88.2104C131.666 87.3925 131.29 86.551 130.957 85.6937C130.612 84.7998 130.314 83.8901 130.06 82.9673C129.806 82.0366 129.592 81.0614 129.421 80.0652C129.251 79.069 129.126 78.0283 129.037 76.9691C128.953 75.9126 128.911 74.809 128.911 73.6869H148.797C148.808 74.3633 148.873 75.037 148.991 75.7029C149.101 76.3321 149.266 76.9482 149.48 77.5485C149.69 78.1252 149.951 78.681 150.26 79.2132C150.574 79.7428 150.932 80.2435 151.333 80.7127C151.725 81.1715 152.167 81.5857 152.652 81.9475C153.122 82.2988 153.635 82.595 154.174 82.8283C154.729 83.0695 155.31 83.2478 155.907 83.3579C156.548 83.4759 157.197 83.5362 157.848 83.5335C158.466 83.5388 159.08 83.4968 159.69 83.4077C160.25 83.3317 160.802 83.2085 161.339 83.0328C161.846 82.8729 162.338 82.6658 162.806 82.4115C163.262 82.1677 163.691 81.8793 164.089 81.5464C164.868 80.9015 165.481 80.0757 165.87 79.1398C166.069 78.6522 166.218 78.1436 166.315 77.6245C166.415 77.0556 166.464 76.4789 166.464 75.8995C166.464 75.3674 166.41 74.8378 166.305 74.3187C166.098 73.3357 165.664 72.4181 165.033 71.6369C164.701 71.2332 164.329 70.8635 163.924 70.5358C163.489 70.1871 163.018 69.8883 162.521 69.6366C161.985 69.3745 161.428 69.1595 160.854 68.997C160.224 68.8213 159.58 68.6929 158.931 68.6116C158.204 68.5277 157.474 68.4858 156.744 68.4858H153.544V53.6556H156.304C156.848 53.6608 157.393 53.6215 157.932 53.5402C158.432 53.4642 158.923 53.341 159.4 53.1758C159.85 53.0159 160.284 52.8114 160.697 52.5702C161.501 52.0852 162.197 51.4456 162.749 50.6853C163.275 49.9513 163.631 49.1124 163.793 48.2237C163.887 47.7544 163.932 47.2747 163.924 46.7975C163.934 45.956 163.78 45.1197 163.474 44.3359C163.319 43.9584 163.128 43.5966 162.901 43.2558C162.668 42.8993 162.401 42.5663 162.103 42.2649C161.799 41.9529 161.462 41.675 161.095 41.4391C160.724 41.1979 160.323 41.0013 159.907 40.8492C159.46 40.6893 158.997 40.5713 158.528 40.4979C158.013 40.4193 157.49 40.38 156.966 40.3826C156.425 40.3826 155.883 40.4324 155.349 40.5373C154.857 40.629 154.381 40.7811 153.926 40.9882C153.489 41.1926 153.078 41.4469 152.699 41.7484C152.314 42.063 151.966 42.4222 151.665 42.818C151.348 43.2244 151.068 43.6622 150.836 44.1236C150.592 44.6007 150.391 45.0988 150.231 45.61C150.058 46.1526 149.928 46.7084 149.841 47.2747C149.742 47.8881 149.687 48.5042 149.671 49.1255H130.345C130.345 48.0952 130.39 47.0807 130.465 46.1055C130.549 45.1302 130.67 44.1655 130.829 43.2401M52.1616 100.222H31.6162V42.9045H18.9205V24.3124H52.1616V100.222ZM121.075 100.222H63.9755V84.0657L91.918 61.3813C93.2341 60.3406 94.4953 59.2342 95.7015 58.065C96.62 57.1789 97.4599 56.2142 98.2135 55.1839C98.8074 54.3634 99.281 53.4616 99.6212 52.5073C99.9273 51.6238 100.087 50.6984 100.095 49.7652C100.095 49.1989 100.05 48.6326 99.9561 48.0742C99.8698 47.5552 99.7337 47.0466 99.5558 46.5537C99.1999 45.6021 98.6478 44.7344 97.9387 44.0082C97.5855 43.649 97.1956 43.3266 96.7796 43.0435C96.3662 42.7682 95.9266 42.5375 95.4661 42.354C94.9898 42.1652 94.4953 42.0289 93.9929 41.9398C93.4565 41.8454 92.9123 41.7982 92.3654 41.7956C91.7505 41.7956 91.1382 41.8507 90.5338 41.9608C89.9712 42.0682 89.4244 42.2413 88.901 42.472C88.3908 42.6974 87.9094 42.9832 87.4645 43.3214C87.0119 43.67 86.5985 44.0659 86.2321 44.5063C85.8475 44.9677 85.5126 45.471 85.2378 46.0058C84.9395 46.5747 84.6962 47.1698 84.5078 47.7859C84.3037 48.4622 84.152 49.1517 84.0525 49.8517C83.94 50.6303 83.8746 51.4167 83.8589 52.2032H63.8682C63.8682 51.0786 63.9179 49.9775 63.9938 48.9105C64.0697 47.8436 64.2031 46.7792 64.368 45.7699C64.5328 44.7553 64.7421 43.7487 64.9881 42.7892C65.2367 41.8297 65.5271 40.8781 65.8568 39.9736C66.1786 39.077 66.5476 38.1988 66.9636 37.3416C67.3613 36.5079 67.8035 35.6978 68.2876 34.9114C69.2296 33.3804 70.339 31.9621 71.5976 30.6802C72.2229 30.0484 72.8823 29.448 73.5705 28.8844C74.256 28.3155 74.9756 27.7912 75.7265 27.3088C76.4854 26.816 77.2677 26.3625 78.0736 25.9482C78.8979 25.5288 79.7404 25.1513 80.6039 24.8131C81.4883 24.4723 82.3884 24.1734 83.3042 23.9218C84.2331 23.6622 85.1881 23.4473 86.1693 23.2769C87.1427 23.1117 88.1606 22.9728 89.1889 22.8915C90.2172 22.8102 91.2848 22.7709 92.368 22.7709C94.3566 22.763 96.3426 22.9203 98.3051 23.2402C99.2496 23.3948 100.186 23.5915 101.086 23.83C101.981 24.066 102.884 24.3412 103.742 24.6506C104.606 24.9652 105.446 25.306 106.249 25.6861C107.047 26.0662 107.832 26.4804 108.575 26.9208C109.316 27.3586 110.035 27.8332 110.726 28.347C111.412 28.8477 112.071 29.3904 112.694 29.9671C113.314 30.5334 113.908 31.1285 114.47 31.7524C115.02 32.3816 115.54 33.0291 116.032 33.6976C116.519 34.374 116.972 35.0739 117.39 35.7975C117.809 36.5184 118.199 37.2734 118.544 38.0389C118.895 38.8175 119.201 39.6171 119.463 40.4298C119.727 41.2529 119.947 42.0892 120.117 42.936C120.295 43.8063 120.426 44.6872 120.507 45.5733C120.596 46.4646 120.638 47.3979 120.638 48.3338C120.638 49.5318 120.559 50.7273 120.402 51.9148C120.248 53.0788 120.012 54.2323 119.698 55.3622C119.379 56.5026 118.968 57.6141 118.471 58.689C117.95 59.8162 117.346 60.9016 116.663 61.9397C115.923 63.0617 115.117 64.1392 114.243 65.1616C113.282 66.2967 112.262 67.3821 111.192 68.4124C110.074 69.4977 108.811 70.6276 107.426 71.7732C106.04 72.9188 104.506 74.1195 102.858 75.3254C99.9273 77.4567 97.4704 79.1214 95.5681 80.2566C93.6711 81.3917 92.593 82.0419 92.368 82.1913H121.08V100.228L121.075 100.222Z" fill="#FF5A5A"/>
</svg>
