<?xml version="1.0" encoding="utf-8"?>
<!-- Generator: Adobe Illustrator 26.3.1, SVG Export Plug-In . SVG Version: 6.00 Build 0)  -->
<svg version="1.1" id="Шар_1" xmlns="http://www.w3.org/2000/svg" xmlns:xlink="http://www.w3.org/1999/xlink" x="0px" y="0px"
	 viewBox="0 0 500 277.1" style="enable-background:new 0 0 500 277.1;" xml:space="preserve">
<style type="text/css">
	.st0{fill:#98181E;}
</style>
<g>
	<g>
		<path class="st0" d="M35.36,220.08h12.31c0.8,0,1.36,0.37,1.68,1.12l16.95,41.82l16.95-41.82c0.32-0.75,0.88-1.12,1.68-1.12h11.99
			c0.96,0,1.44,0.48,1.44,1.44v53.1c0,0.96-0.48,1.44-1.44,1.44h-7.12c-0.96,0-1.44-0.48-1.44-1.44v-42.54l-17.35,42.86
			c-0.32,0.75-0.88,1.12-1.68,1.12h-6.32c-0.8,0-1.36-0.37-1.68-1.12l-17.43-42.86v42.54c0,0.96-0.48,1.44-1.44,1.44h-7.12
			c-0.96,0-1.44-0.48-1.44-1.44v-53.1C33.92,220.56,34.4,220.08,35.36,220.08z"/>
		<path class="st0" d="M129.55,220h8.96c0.8,0,1.36,0.37,1.68,1.12l21.67,53.26c0.21,0.48,0.21,0.88,0,1.2
			c-0.21,0.32-0.59,0.48-1.12,0.48h-8.16c-0.75,0-1.28-0.37-1.6-1.12l-4.16-10.79h-26.15l-4.16,10.79c-0.32,0.75-0.85,1.12-1.6,1.12
			h-7.68c-0.53,0-0.91-0.16-1.12-0.48c-0.21-0.32-0.21-0.72,0-1.2l21.75-53.26C128.19,220.38,128.75,220,129.55,220z M123.72,256.07
			h20.07l-10.08-26.39L123.72,256.07z"/>
		<path class="st0" d="M169.62,274.62v-53.1c0-0.96,0.48-1.44,1.44-1.44h24.39c5.97,0,10.73,1.52,14.27,4.56
			c3.55,3.04,5.32,7.17,5.32,12.39v1.84c0,5.17-1.77,9.29-5.32,12.35c-3.55,3.07-8.3,4.6-14.27,4.6h-15.59v18.79
			c0,0.96-0.48,1.44-1.44,1.44h-7.36C170.1,276.06,169.62,275.58,169.62,274.62z M204.64,238.88v-1.6c0-2.72-0.95-4.86-2.84-6.44
			c-1.89-1.57-4.47-2.36-7.72-2.36h-14.23v19.11h14.23c3.31,0,5.89-0.77,7.76-2.32C203.71,243.73,204.64,241.6,204.64,238.88z"/>
		<path class="st0" d="M236.87,220h8.96c0.8,0,1.36,0.37,1.68,1.12l21.67,53.26c0.21,0.48,0.21,0.88,0,1.2
			c-0.21,0.32-0.59,0.48-1.12,0.48h-8.16c-0.75,0-1.28-0.37-1.6-1.12l-4.16-10.79h-26.15l-4.16,10.79c-0.32,0.75-0.85,1.12-1.6,1.12
			h-7.68c-0.53,0-0.91-0.16-1.12-0.48c-0.21-0.32-0.21-0.72,0-1.2l21.75-53.26C235.51,220.38,236.07,220,236.87,220z M231.03,256.07
			h20.07l-10.08-26.39L231.03,256.07z"/>
		<path class="st0" d="M303.95,219.28h7.52c0.96,0,1.44,0.48,1.44,1.44v5.76h9.27c6.83,0,12.29,1.72,16.39,5.16
			c4.1,3.44,6.16,8.01,6.16,13.71v4.8c0,5.7-2.05,10.28-6.16,13.72c-4.1,3.44-9.57,5.16-16.39,5.16h-9.27v6.4
			c0,0.96-0.48,1.44-1.44,1.44h-7.52c-0.96,0-1.44-0.48-1.44-1.44v-6.4h-9.2c-6.83,0-12.29-1.72-16.39-5.16
			c-4.11-3.44-6.16-8.01-6.16-13.72v-4.8c0-5.7,2.05-10.28,6.16-13.71c4.1-3.44,9.57-5.16,16.39-5.16h9.2v-5.76
			C302.52,219.76,302.99,219.28,303.95,219.28z M293.88,260.71h8.64V234.8h-8.64c-4.11,0-7.25,0.95-9.43,2.84
			c-2.19,1.89-3.28,4.6-3.28,8.12v4c0,3.52,1.09,6.22,3.28,8.12C286.63,259.76,289.77,260.71,293.88,260.71z M334.34,249.75v-4
			c0-3.52-1.11-6.22-3.32-8.12c-2.21-1.89-5.37-2.84-9.48-2.84h-8.63v25.91h8.63c4.1,0,7.26-0.94,9.48-2.84
			C333.24,255.98,334.34,253.27,334.34,249.75z"/>
		<path class="st0" d="M378,277.1c-8.1,0-14.54-2.25-19.31-6.76c-4.77-4.5-7.16-10.57-7.16-18.19v-8.16
			c0-7.52,2.41-13.55,7.24-18.11c4.82-4.56,11.23-6.84,19.23-6.84c8.1,0,14.54,2.25,19.31,6.76c4.77,4.51,7.16,10.57,7.16,18.19
			v8.16c0,7.52-2.41,13.56-7.23,18.11C392.41,274.82,386,277.1,378,277.1z M366.17,264.06c2.83,2.83,6.77,4.24,11.84,4.24
			c5.06,0,9.01-1.41,11.84-4.24c2.82-2.82,4.24-6.8,4.24-11.91v-8.16c0-5.12-1.41-9.09-4.24-11.91c-2.83-2.82-6.77-4.24-11.84-4.24
			c-5.06,0-9.01,1.41-11.84,4.24c-2.82,2.83-4.24,6.8-4.24,11.91v8.16C361.93,257.27,363.34,261.24,366.17,264.06z"/>
		<path class="st0" d="M425.34,221.52v21.67h26.79v-21.67c0-0.96,0.48-1.44,1.44-1.44h7.52c0.96,0,1.44,0.48,1.44,1.44v53.1
			c0,0.96-0.48,1.44-1.44,1.44h-7.52c-0.96,0-1.44-0.48-1.44-1.44v-22.31h-26.79v22.31c0,0.96-0.48,1.44-1.44,1.44h-7.52
			c-0.96,0-1.44-0.48-1.44-1.44v-53.1c0-0.96,0.48-1.44,1.44-1.44h7.52C424.86,220.08,425.34,220.56,425.34,221.52z"/>
	</g>
</g>
<path class="st0" d="M111.19,111.19h55.47v55.47H0v-55.47h55.47V55.47H0V0h111.19V111.19z M277.86,166.67h-55.72v-55.47h-55.47
	V55.47h55.47V0h55.72v55.47h55.47v55.72h-55.47V166.67z M444.53,111.19H500v55.47H333.33v-55.47h55.47V55.47h-55.47V0h111.19V111.19
	z"/>
</svg>
