<?xml version="1.0" encoding="utf-8"?>
<!-- Generator: Adobe Illustrator 14.0.0, SVG Export Plug-In . SVG Version: 6.00 Build 43363)  -->
<!DOCTYPE svg PUBLIC "-//W3C//DTD SVG 1.1//EN" "http://www.w3.org/Graphics/SVG/1.1/DTD/svg11.dtd">
<svg version="1.1" id="Layer_1" xmlns="http://www.w3.org/2000/svg" xmlns:xlink="http://www.w3.org/1999/xlink" x="0px" y="0px"
	 width="290px" height="150px" viewBox="0 0 290 150" enable-background="new 0 0 290 150" xml:space="preserve">
<path fill="#C70025" d="M21.671,137.81c-2.32,0-3.434-0.869-3.434-2.324v-31.357h1.594c2.328,0,3.434,0.869,3.434,2.325v31.356
	H21.671z M48.048,137.81c-2.325,0-3.631-0.869-3.631-2.324V120.34c0-2.419-1.84-3.874-4.167-3.874h-3.626
	c-2.32,0-3.675,1.455-3.675,3.874v17.47h-0.973c-2.32,0-3.626-0.869-3.626-2.324v-22.982h1.498c1.354,0,2.615,0.817,2.615,2.275
	c1.597-1.555,3.823-2.275,6.629-2.275h0.677c5.806,0,9.244,3.24,9.244,10.017v15.29H48.048z M64.165,137.81
	c-5.811,0-8.764-1.738-8.764-8.514v-12.83H51.43v-0.869c0-1.983,0.725-3.094,1.988-3.094h1.982v-6.631
	c0-0.529,0.436-0.971,0.971-0.971h2.66c0.531,0,0.965,0.441,0.965,0.971v6.631h8.227v0.869c0,1.987-0.722,3.094-1.98,3.094h-6.246
	v14.037c0,2.418,1.355,3.389,3.683,3.389h2.953c1.254,0,1.978,1.113,1.978,3.094v0.824H64.165z M90.049,127.02H75.872v2.997
	c0,2.424,1.84,3.875,4.16,3.875h9.633c1.209,0,2.034,0.869,2.034,2.805v1.113H80.516c-5.805,0-9.243-3.189-9.243-9.967v-5.323
	c0-6.776,3.438-10.017,9.243-10.017h2.232c5.805,0,9.238,3.24,9.238,10.017v2.563C91.987,126.003,91.071,127.02,90.049,127.02
	 M87.389,120.34c0-2.419-1.84-3.874-4.16-3.874h-3.197c-2.32,0-4.16,1.455-4.16,3.874v3.241h11.518V120.34z M110.568,116.466h-5.418
	c-2.328,0-3.727,1.455-3.727,3.874v17.47h-0.973c-2.32,0-3.626-0.869-3.626-2.324v-22.982h1.497c1.355,0,2.613,0.817,2.613,2.275
	c1.113-1.165,2.276-2.275,4.695-2.275h6.922v0.869C112.552,115.359,111.826,116.466,110.568,116.466 M135.15,137.81
	c-2.32,0-3.63-0.869-3.63-2.324V120.34c0-2.419-1.835-3.874-4.163-3.874h-3.63c-2.321,0-3.675,1.455-3.675,3.874v17.47h-0.967
	c-2.326,0-3.631-0.869-3.631-2.324v-22.982h1.5c1.357,0,2.611,0.817,2.611,2.275c1.597-1.555,3.828-2.275,6.629-2.275h0.678
	c5.81,0,9.243,3.24,9.243,10.017v15.29H135.15z M158.67,137.81c-1.351,0-2.616-1.309-2.616-2.76c-1.01,1.603-3.579,2.76-6.143,2.76
	h-1.21c-5.81,0-9.192-3.096-9.192-8.033v-0.582c0-4.835,3.383-7.596,9.192-7.596h6.872v-1.982c0-2.422-1.836-3.195-3.676-3.195
	h-8.277c-1.259,0-1.982-1.113-1.982-3.101v-0.817h9.775c5.804,0,8.757,1.787,8.757,8.566v16.74H158.67z M155.574,125.128h-7.357
	c-2.32,0-4.111,1.455-4.111,3.875v1.014c0,2.424,1.791,3.875,4.111,3.875h3.682c2.316,0,3.676-1.451,3.676-3.875V125.128z
	 M175.315,137.81c-5.81,0-8.758-1.738-8.758-8.514v-12.83h-3.969v-0.869c0-1.983,0.723-3.094,1.988-3.094h1.98v-6.631
	c0-0.529,0.436-0.971,0.968-0.971h2.662c0.532,0,0.968,0.441,0.968,0.971v6.631h8.227v0.869c0,1.987-0.729,3.094-1.987,3.094h-6.239
	v14.037c0,2.418,1.355,3.389,3.676,3.389h2.953c1.258,0,1.982,1.113,1.982,3.094v0.824H175.315z M187.463,109.017h-3.289
	c-0.97,0-1.743-0.777-1.743-1.738v-1.406c0-0.971,0.773-1.744,1.743-1.744h3.289c0.97,0,1.743,0.773,1.743,1.744v1.406
	C189.207,108.239,188.433,109.017,187.463,109.017 M187.271,137.81c-2.327,0-3.631-0.869-3.631-2.324v-22.982h1.5
	c2.323,0,3.101,0.869,3.101,2.32v22.986H187.271z M204.498,137.81h-2.229c-5.806,0-9.195-3.189-9.195-9.967v-5.323
	c0-6.776,3.39-10.017,9.195-10.017h2.229c5.806,0,9.24,3.24,9.24,10.017v5.323C213.738,134.62,210.303,137.81,204.498,137.81
	 M209.145,120.34c0-2.419-1.795-3.874-4.115-3.874h-3.241c-2.328,0-4.116,1.455-4.116,3.874v9.677c0,2.424,1.788,3.875,4.116,3.875
	h3.241c2.32,0,4.115-1.451,4.115-3.875V120.34z M237.306,137.81c-2.32,0-3.631-0.869-3.631-2.324V120.34
	c0-2.419-1.836-3.874-4.162-3.874h-3.631c-2.32,0-3.676,1.455-3.676,3.874v17.47h-0.965c-2.327,0-3.631-0.869-3.631-2.324v-22.982
	h1.5c1.357,0,2.611,0.817,2.611,2.275c1.598-1.555,3.827-2.275,6.629-2.275h0.677c5.81,0,9.244,3.24,9.244,10.017v15.29H237.306z
	 M260.826,137.81c-1.355,0-2.615-1.309-2.615-2.76c-1.015,1.603-3.58,2.76-6.144,2.76h-1.214c-5.806,0-9.192-3.096-9.192-8.033
	v-0.582c0-4.835,3.387-7.596,9.192-7.596h6.871v-1.982c0-2.422-1.835-3.195-3.675-3.195h-8.273c-1.259,0-1.986-1.113-1.986-3.101
	v-0.817h9.774c5.812,0,8.757,1.787,8.757,8.566v16.74H260.826z M257.724,125.128h-7.352c-2.325,0-4.115,1.455-4.115,3.875v1.014
	c0,2.424,1.79,3.875,4.115,3.875h3.677c2.321,0,3.675-1.451,3.675-3.875V125.128z M270.792,137.81c-2.322,0-3.627-0.869-3.627-2.324
	v-32.322h1.018c2.32,0,3.579,0.869,3.579,2.32v32.326H270.792z M74.519,12.19H18.293v28.496H46.41v28.506H18.293V97.71h84.346
	V69.192h-28.12V12.19z M158.867,40.687V12.19h-28.107v28.496h-28.12v28.506h28.12V97.71h28.107V69.192h28.125V40.687H158.867z
	 M243.212,69.192V12.19h-56.221v28.496H215.1v28.506h-28.108V97.71h84.341V69.192H243.212z"/>
</svg>
