<?xml version="1.0" encoding="utf-8"?>
<!-- Generator: Adobe Illustrator 23.0.1, SVG Export Plug-In . SVG Version: 6.00 Build 0)  -->
<svg version="1.1" id="Livello_1" xmlns="http://www.w3.org/2000/svg" xmlns:xlink="http://www.w3.org/1999/xlink" x="0px" y="0px"
	 width="500px" height="500px" viewBox="0 0 500 500" enable-background="new 0 0 500 500" xml:space="preserve">
<g>
	<linearGradient id="SVGID_1_" gradientUnits="userSpaceOnUse" x1="250" y1="500" x2="250" y2="-9.094947e-13">
		<stop  offset="0" style="stop-color:#152228"/>
		<stop  offset="1" style="stop-color:#1DA6C3"/>
	</linearGradient>
	<path fill="url(#SVGID_1_)" d="M500,250C500,112,388.1,0,250,0S0,112,0,250s112,250,250,250S500,388.1,500,250"/>
	<path fill="#FFFFFF" d="M208,355.5h-5.7c-0.7,0-1.3-0.2-1.7-0.6c-0.4-0.4-0.6-1-0.6-1.7v-13.6c0-6,1-10.3,2.9-13
		c1.9-2.7,4.7-4,8.2-4c3.1,0,5.4,1,6.9,2.9c1.5,2,2.3,5,2.3,9v18.6c0,0.7-0.2,1.3-0.6,1.7c-0.4,0.4-1,0.6-1.7,0.6h-5.6v6.4h26.7
		v-6.4h-5.9c-0.7,0-1.3-0.2-1.7-0.6c-0.4-0.4-0.6-1-0.6-1.7v-20.1c0-6.1-1.3-10.8-4-14c-2.7-3.2-6.5-4.8-11.3-4.8
		c-4,0-7.3,1-9.9,3.1c-2.6,2.1-4.6,4.6-5.8,7.6v-9.3h-18.7v6.4h6c0.7,0,1.3,0.2,1.7,0.6c0.4,0.4,0.6,1,0.6,1.7v28.7
		c0,0.7-0.2,1.3-0.6,1.7c-0.4,0.4-1,0.6-1.7,0.6h-6v6.4H208V355.5z"/>
	<path fill="#FFFFFF" d="M113,322.2h4.2c1.1,0,1.6,0.5,1.6,1.4c0,0.3-0.1,0.6-0.3,1l-9.5,26.5l-10.2-26.5c-0.1-0.4-0.2-0.7-0.2-0.9
		c0-1,0.5-1.4,1.5-1.4h4.2v-6.4H82v6.4h4.2c1.1,0,1.6,0.5,1.6,1.4c0,0.3-0.1,0.6-0.3,1L78.2,351l-10.3-26.5c-0.1-0.4-0.2-0.7-0.2-1
		c0-0.9,0.5-1.4,1.6-1.4h4.2v-6.4H50.8h-0.5H34.2v-13.2h-6.9l-1.4,6.8c-0.5,2-1.3,3.6-2.5,4.8c-1.2,1.2-2.8,1.8-4.9,1.8h-3.4v6.2
		h8.4v26.9c0,4.5,1.2,8,3.5,10.4c2.3,2.4,5.6,3.6,9.8,3.6c4.2,0,7.4-1.1,9.7-3.4c2.3-2.3,3.4-5.4,3.4-9.2V338h-6.7v12.4
		c0,2.1-0.3,3.6-1,4.5c-0.7,0.9-1.8,1.3-3.3,1.3c-1.7,0-2.9-0.4-3.6-1.3c-0.7-0.9-1.1-2.3-1.1-4.4v-28.3h16.2h0.5h2.6
		c1,0,1.7,0.2,2.1,0.5c0.4,0.4,0.9,1,1.3,2l16.2,38.4h7.1l11.5-31.4l12.3,31.4h7.3l14.9-38.4c0.4-1,0.8-1.6,1.3-2
		c0.4-0.4,1.2-0.5,2.1-0.5h3.2v-6.4H113V322.2z"/>
	<path fill="#FFFFFF" d="M306.2,315.8v6.4h6.6c1.1,0,1.6,0.5,1.6,1.4c0,0.3-0.1,0.6-0.2,1L302.9,351l-11.2-26.5
		c-0.1-0.4-0.2-0.7-0.2-1c0-0.9,0.5-1.4,1.6-1.4h6.6v-6.4h-24.6H274h-16.9v-13.2h-6.9l-1.4,6.8c-0.5,2-1.3,3.6-2.5,4.8
		c-1.2,1.2-2.8,1.8-4.9,1.8h-3.4v6.2h8.4v26.9c0,4.5,1.2,8,3.5,10.4c2.3,2.4,5.6,3.6,9.8,3.6c4.2,0,7.4-1.1,9.7-3.4
		c2.3-2.3,3.4-5.4,3.4-9.2V338h-6.7v12.4c0,2.1-0.3,3.6-1,4.5c-0.7,0.9-1.8,1.3-3.3,1.3c-1.7,0-2.9-0.4-3.6-1.3
		c-0.7-0.9-1.1-2.3-1.1-4.4v-28.3H274h1.1h2.1c1,0,1.7,0.2,2.1,0.5c0.4,0.3,0.9,1,1.3,2l17,37.8c-2.7,5.6-5.1,9.4-7,11.3
		c-2,1.9-4,2.9-6,2.9c-0.7,0-1.3-0.1-1.8-0.4c-0.5-0.3-0.8-0.5-0.9-0.7c1.5-0.3,2.7-1,3.3-2c0.7-1,1-2,1-3.1c0-1.6-0.6-2.9-1.8-4
		c-1.2-1-2.7-1.5-4.6-1.5c-1.9,0-3.4,0.7-4.5,2c-1.2,1.3-1.7,2.9-1.7,4.9c0,1.7,0.4,3.3,1.3,4.9c0.9,1.6,2.2,2.9,3.9,3.9
		c1.7,1,3.8,1.5,6.3,1.5c3,0,5.7-0.8,8-2.5c2.3-1.6,4.5-4.2,6.7-7.7c2.2-3.5,4.6-8.3,7.5-14.6l14.8-32.8c0.4-1,0.9-1.7,1.3-2
		c0.4-0.3,1.1-0.5,2-0.5c0.2-2.1,0.5-4.2,0.8-6.4H306.2z"/>
	<path fill="#FFFFFF" d="M169.4,358.7c3.7-3.1,6-7.2,6.9-12.5h-7c-0.7,3.1-2.1,5.5-4.1,7.1c-2,1.7-4.7,2.5-7.9,2.5
		c-8.6,0-12.9-5.1-13-15.4h32c0.3-1.8,0.5-3.5,0.5-5c0-3.7-0.8-7.2-2.3-10.4c-1.5-3.2-3.8-5.8-6.9-7.8c-3.1-2-6.9-2.9-11.4-2.9
		c-4.6,0-8.6,1-12.1,3c-3.5,2-6.2,4.9-8.2,8.6c-2,3.8-2.9,8.2-2.9,13.4c0,5,1,9.3,2.9,12.9c1.9,3.6,4.6,6.3,8,8.2
		c3.4,1.9,7.3,2.8,11.6,2.8C161.1,363.3,165.7,361.8,169.4,358.7z M147.9,324c1.9-2.3,4.4-3.5,7.5-3.5c3.1,0,5.6,1.2,7.4,3.5
		c1.9,2.3,2.8,5.7,2.8,10.2h-21.1C144.8,329.8,145.9,326.4,147.9,324z"/>
	<path fill="#FFFFFF" d="M190.7,383.9c-4-2.6-9-3.9-14.9-3.9c-6,0-11.3,1.3-15.9,3.9c-4.6,2.6-8.2,6.4-10.8,11.3
		c-2.6,4.9-3.9,10.8-3.9,17.5c0,6.6,1.3,12.2,3.8,17c2.5,4.7,6,8.3,10.5,10.8c4.5,2.4,9.5,3.7,15.2,3.7c7.4,0,13.5-2,18.3-6.1
		c4.8-4,7.8-9.5,9-16.3H193c-0.9,4-2.7,7.2-5.4,9.4c-2.7,2.2-6.1,3.3-10.3,3.3c-11.2,0-16.9-6.7-17.1-20.1h41.9
		c0.4-2.4,0.6-4.6,0.6-6.6c0-4.9-1-9.4-3-13.7C197.8,389.9,194.8,386.5,190.7,383.9z M160.5,406.1c0.4-5.9,1.9-10.4,4.4-13.4
		c2.5-3,5.8-4.6,9.9-4.6c4,0,7.3,1.5,9.7,4.6c2.4,3,3.7,7.5,3.7,13.4H160.5z"/>
	<path fill="#FFFFFF" d="M273.7,382h-29.2v8.4h8.7c1.4,0,2.2,0.6,2.2,1.8c0,0.3-0.1,0.8-0.3,1.3l-14.6,36.4L226,393.3
		c-0.2-0.5-0.3-0.9-0.3-1.3c0-1.2,0.7-1.8,2.2-1.8h8.6V382h-33.7v8.4h4c1.3,0,2.2,0.2,2.8,0.7c0.6,0.5,1.1,1.3,1.6,2.6l21.5,50.4
		h10.9l21.4-50.4c0.6-1.3,1.2-2.2,1.7-2.7c0.5-0.4,1.5-0.6,2.7-0.6h4.2V382z"/>
	<path fill="#FFFFFF" d="M403.3,434c-0.9,0-1.7-0.3-2.2-0.8c-0.5-0.5-0.8-1.3-0.8-2.2v-26.3c0-8-1.8-14.1-5.3-18.3
		c-3.5-4.2-8.5-6.3-14.9-6.3c-5.2,0-9.6,1.3-13,4c-3.4,2.7-6,6-7.7,10V382H335v8.4h7.8c0.9,0,1.7,0.3,2.2,0.8
		c0.5,0.5,0.8,1.3,0.8,2.2v37.6c0,0.9-0.3,1.7-0.8,2.2c-0.5,0.5-1.3,0.8-2.2,0.8H335v8.4h35.3V434h-7.5c-0.9,0-1.7-0.3-2.2-0.8
		c-0.5-0.5-0.8-1.3-0.8-2.2v-17.8c0-7.8,1.3-13.5,3.8-17c2.5-3.5,6.1-5.3,10.8-5.3c4,0,7.1,1.3,9,3.9c2,2.6,3,6.5,3,11.8v24.4
		c0,0.9-0.3,1.7-0.8,2.2c-0.5,0.5-1.3,0.8-2.2,0.8H376v8.4h33.7c0.4-0.4,0.9-0.7,1.3-1.1V434H403.3z"/>
	<path fill="#FFFFFF" d="M317.8,383.9c-4-2.6-9-3.9-14.9-3.9c-6,0-11.3,1.3-15.9,3.9c-4.6,2.6-8.2,6.4-10.8,11.3
		c-2.6,4.9-3.9,10.8-3.9,17.5c0,6.6,1.3,12.2,3.8,17c2.5,4.7,6,8.3,10.5,10.8c4.5,2.4,9.5,3.7,15.2,3.7c7.4,0,13.5-2,18.3-6.1
		c4.8-4,7.8-9.5,9-16.3h-9.1c-0.9,4-2.7,7.2-5.4,9.4c-2.7,2.2-6.1,3.3-10.3,3.3c-11.2,0-16.9-6.7-17.1-20.1h41.9
		c0.4-2.4,0.6-4.6,0.6-6.6c0-4.9-1-9.4-3-13.7C324.9,389.9,321.8,386.5,317.8,383.9z M287.6,406.1c0.4-5.9,1.9-10.4,4.4-13.4
		c2.5-3,5.8-4.6,9.9-4.6c4,0,7.3,1.5,9.7,4.6c2.4,3,3.7,7.5,3.7,13.4H287.6z"/>
	<path fill="#FFFFFF" d="M93.5,434.7c2.1,3.1,5,5.5,8.6,7.1c3.6,1.6,7.6,2.5,11.9,2.5c7.2,0,12.9-1.8,17.1-5.3
		c4.2-3.5,6.3-8.1,6.3-13.7c0-9.1-6-15.1-18-18.1l-13.7-3.3c-3-0.8-5.2-1.8-6.4-3c-1.2-1.3-1.8-2.9-1.8-4.9c0-2.1,0.9-3.8,2.7-5.1
		c1.8-1.3,4.6-1.9,8.3-1.9c9.3,0,15.3,4.6,18,13.7h8v-20.9h-8.5l-0.5,6.5c-1.6-2.3-4-4.2-7.3-5.8c-3.2-1.6-7.1-2.4-11.7-2.4
		c-6.8,0-12.1,1.7-16.1,5.1c-4,3.4-5.9,7.7-5.9,12.9c0,4.8,1.6,8.6,4.7,11.5c3.2,2.9,7.4,4.9,12.6,6.2l13.7,3.4
		c3,0.8,5.2,1.9,6.6,3.4c1.5,1.5,2.2,3.2,2.2,5.3c0,2.4-1,4.2-3,5.6c-2,1.4-4.9,2.1-8.7,2.1c-10.1,0-16.8-5.1-20.1-15.3h-8.1v17.1
		c2,1.8,4.1,3.5,6.2,5.3H93L93.5,434.7z"/>
	<path fill="#FFFFFF" d="M89.8,130c7.3,8,16.7,12.1,28.2,12.1c12.1,0,21.7-3.7,28.9-11c7.2-7.3,10.8-15.7,10.8-25.2
		c0-9.8-2.8-17.7-8.4-23.9c-5.6-6.2-12.6-9.3-20.9-9.3c-2,0-3.7,0.1-5.2,0.4c1.7-7.7,6.7-14.8,15.1-21.1c8.3-6.3,18.7-9.5,31-9.5
		c13.8,0,25,4.5,33.8,13.3c8.8,8.9,13.1,21.1,13.1,36.6c0,12.6-3.6,25-10.8,37.2c-7.2,12.2-20.4,26.9-39.6,44.1
		c-19.2,17.2-47.2,39-84,65.5v53.8l208-0.4l7.8-91.7h-35.7l-3,14.2c-1.4,6.6-3.7,11.3-6.9,14c-3.2,2.7-8.5,4.2-15.9,4.5L129.2,242
		l40.5-24.5c29.9-18.1,52.7-32.8,68.5-44.1c10.7-7.7,20-15.9,28-24.8l-3.9,48.2l36.2-0.9l4.3-23.3c1.4-6.9,3.9-11.7,7.3-14.4
		c3.4-2.7,8.9-4.1,16.4-4.1h42.6c27,0,49.4-2.9,67.2-8.6c-37,34.4-65,67.8-83.8,100.1c-14.1,24.3-23,47.7-26.5,70.3
		c-0.3,2.1-0.6,4.3-0.8,6.4c-0.6,5.3-0.9,10.5-0.9,15.7c0,13.2,3.6,23.8,10.8,31.9c7.2,8,16.6,12.1,28.4,12.1
		c12.3,0,22.2-4,29.7-12.1c7.5-8,11.2-18.7,11.2-31.9c0-40.2,1.4-69.1,4.3-86.8c2.9-17.7,9.7-34.7,20.5-51
		c8.8-13.5,24.2-33.1,45.9-59c-7.9-16.3-17.5-31.6-28.6-45.7c-9.4,0.6-19.2,0.9-29.6,0.9c-21.2,0-45.6-0.7-73-2.2
		c-18.9-1-36.4-2.1-52.4-3.4c0-0.8,0-1.7,0-2.5c0-14.4-3.8-28.1-11.4-41.1c-7.6-13.1-19.1-23.6-34.4-31.6
		C234,9.4,220.3,5.6,204.5,4.1c-44.9,8.3-85.7,28.5-118.7,57.4c-4.6,10.5-6.9,21.4-6.9,32.8C78.9,110.1,82.5,122,89.8,130z"/>
</g>
</svg>
