<?xml version="1.0" encoding="UTF-8" standalone="no"?>
<!-- Created with Inkscape (http://www.inkscape.org/) -->

<svg
   version="1.1"
   id="svg55"
   width="1251.6549"
   height="623.19629"
   viewBox="0 0 1251.6549 623.19629"
   xmlns="http://www.w3.org/2000/svg"
   xmlns:svg="http://www.w3.org/2000/svg">
  <defs
     id="defs59" />
  <g
     id="layer1"
     style="display:inline"
     transform="translate(-12.091474,-18.308649)">
    <rect
       style="fill:#000000;fill-opacity:1;stroke:none;stroke-width:1.00344"
       id="rect65073"
       width="633.48468"
       height="623.19415"
       x="12.091474"
       y="18.310802" />
  </g>
  <g
     id="layer2"
     transform="translate(-12.091474,-18.308649)">
    <path
       style="fill:#ffffff;fill-opacity:1"
       d="m 374.95495,511.94141 c -0.30509,-8.38751 -1.64398,-69.47501 -2.97529,-135.75001 -1.33132,-66.275 -2.65442,-128.825 -2.94023,-139 -0.2858,-10.175 -0.15237,-17.6 0.29653,-16.5 0.44889,1.1 12.02703,70.5125 25.72919,154.25 l 24.91301,152.25001 h 27.1443 27.1443 l 0.53051,-2.25 c 0.29178,-1.2375 11.83307,-69.75001 25.64732,-152.25001 13.81424,-82.5 25.47434,-150.88212 25.91133,-151.96026 0.43699,-1.07814 0.63128,2.97186 0.43176,9 -0.19952,6.02814 -1.6797,68.56026 -3.28929,138.96026 -1.60959,70.4 -3.18955,134.8625 -3.51101,143.25001 l -0.58448,15.25 h 35.04034 35.04034 v -196.50001 -196.5 l -51.25,0.001 -51.25,0.001 -19.5,115.99491 c -10.725,63.7972 -19.72673,115.99668 -20.00385,115.99883 -0.27712,0.002 -6.2739,-35.43358 -13.32617,-78.74608 -7.05228,-43.3125 -15.56022,-95.5125 -18.90654,-116 L 409.1628,134.1914 h -51.83961 -51.83961 v 196.5 196.50001 h 35.01304 35.01305 z"
       id="path25321" />
    <path
       style="fill:#ffffff;fill-opacity:1"
       d="m 284.48358,492.1914 v -35 h -57.5 c -50.0495,0 -57.5,-0.1914 -57.5,-1.47717 0,-2.35047 4.6444,-14.05231 7.64426,-19.26014 9.70377,-16.84603 19.11526,-29.00862 47.266,-61.08245 28.34682,-32.29723 39.70272,-48.33893 47.78481,-67.5023 6.82669,-16.18671 9.73932,-29.47629 11.30696,-51.5907 2.40159,-33.87864 -3.84624,-64.72576 -17.1333,-84.59157 -16.52196,-24.70238 -42.3406,-36.74476 -78.86873,-36.7861 -54.52123,-0.0617 -87.567926,27.56195 -99.111736,82.84721 -1.6413,7.86047 -2.18496,15.02273 -2.59548,34.19322 l -0.5193,24.25 h 34.955146 34.95515 l 0.654,-18.25 c 0.3597,-10.0375 1.12074,-21.175 1.69119,-24.75 3.68725,-23.10776 13.15962,-33.98112 28.5281,-32.74748 7.76037,0.62293 12.15748,3.20771 16.50499,9.70224 4.57836,6.83937 6.13413,13.16527 6.67642,27.14699 0.85557,22.05881 -2.71442,38.51174 -11.80311,54.39671 -2.37708,4.15461 -12.38441,17.55457 -22.23849,29.77769 -33.8345,41.96867 -49.42372,64.3542 -62.80783,90.18964 -18.099056,34.93673 -26.297216,64.43602 -27.592106,99.28422 l -0.60382,16.25 H 184.33014 284.48358 Z"
       id="path25319" />
  </g>
  <g
     id="layer3"
     style="display:inline"
     transform="translate(-12.091474,-18.308649)">
    <rect
       style="display:inline;fill:#ffffff;fill-opacity:1;stroke:none;stroke-width:0.991242"
       id="rect65383"
       width="618.17664"
       height="623.19342"
       x="645.56976"
       y="18.308649" />
  </g>
  <g
     id="layer4"
     transform="translate(-12.091474,-18.308649)">
    <path
       style="fill:#e75d53;fill-opacity:1"
       d="m 965.39455,237.0334 -11.12009,-10.85349 c 20.0841,-20.07601 40.16821,-40.152 60.25234,-60.22799 58.996,0.002 117.992,0.004 176.9879,0.006 -27.3501,27.33105 -54.7002,54.6621 -82.0504,81.99315 -44.3165,-0.0217 -88.6331,-0.0433 -132.94966,-0.065 l -11.12009,-10.8535 z"
       id="path25337" />
    <path
       style="fill:#f0a33a;fill-opacity:1"
       d="m 883.01464,167.12534 c 41.49999,-41.09355 83.00002,-82.187052 124.50006,-123.280532 0.1722,38.19421 0.3444,76.388462 0.5166,114.582712 -31.50295,31.50812 -63.00586,63.01626 -94.50877,94.5244 -10.1693,0 -20.33859,0 -30.50789,0 0,-28.60886 0,-57.21772 0,-85.82658 z"
       id="path25335" />
    <path
       style="fill:#f5c825;fill-opacity:1"
       d="m 792.01465,262.43962 c 0,-58.65948 0,-117.31895 0,-175.978422 27,26.993812 54,53.987632 80.99999,80.981462 v 133.04337 c -7.17418,7.15194 -14.34837,14.30388 -21.52255,21.45582 -19.82582,-19.83407 -39.65163,-39.66815 -59.47744,-59.50223 z"
       id="path25333" />
    <path
       style="fill:#d1438f;fill-opacity:1"
       d="m 1024.0147,288.44402 v -15.74605 -15.74605 c 28.356,0 56.7119,0 85.0678,0 38.3624,39.33239 77.7865,77.64349 115.8675,117.25 l 7.4027,7.75 c -38.282,0 -76.564,0 -114.846,0 -31.164,-31.1693 -62.328,-62.3386 -93.492,-93.5079 z"
       id="path25331" />
    <path
       style="fill:#57ab36;fill-opacity:1"
       d="m 667.85084,267.95192 c 38.55724,0 77.11447,0 115.6717,0 31.49737,31.5026 62.99474,63.00521 94.4921,94.50781 0,10.16406 0,20.32813 0,30.49219 -28.83333,-0.005 -57.66666,-0.009 -86.49999,-0.014 -43.00987,-43.47088 -79.56193,-80.41229 -123.66381,-124.986 z"
       id="path25329" />
    <path
       style="fill:#00a4c1;fill-opacity:1"
       d="m 791.5055,402.95192 c 44.68108,0 89.36216,0 134.04325,0 7.15191,7.17415 14.30381,14.34831 21.45572,21.52246 -20.16731,20.15918 -40.33462,40.31836 -60.50193,60.47754 -58.99291,0 -117.98583,0 -176.97874,0 27.32723,-27.33333 54.65446,-54.66667 81.9817,-82 z"
       id="path25327" />
    <path
       style="fill:#635faa;fill-opacity:1"
       d="m 1028.0147,483.44288 c 0,-44.00786 0,-88.01572 0,-132.02358 7.5073,-7.48604 15.0146,-14.97201 22.5219,-22.45799 19.8297,19.83799 39.6594,39.67593 59.4891,59.51387 -0.1703,58.82869 -0.3406,117.65738 -0.511,176.48607 -27.1666,-27.17279 -54.3333,-54.34558 -81.5,-81.51837 z"
       id="path25325" />
    <path
       style="fill:#008fd0;fill-opacity:1"
       d="m 893.01464,492.50104 c 31.49052,-31.51637 62.98104,-63.03275 94.47156,-94.54912 10.50949,0 21.019,0 31.5285,0 0,28.50248 0,57.00495 0,85.50743 -41.98816,41.66581 -83.72608,83.58612 -126.00006,124.96256 0,-38.64029 0,-77.28058 0,-115.92087 z"
       id="path25323" />
  </g>
</svg>
