<svg width="130" height="26" viewBox="0 0 130 26" fill="none" xmlns="http://www.w3.org/2000/svg">
<g clip-path="url(#clip0_10797_14926)">
<path d="M15.6272 19.8761C15.6988 20.3658 15.7091 20.8656 15.6374 21.3451C15.3917 23.0589 14.3064 25.9458 9.68901 25.956C6.86327 25.956 0.8125 25.956 0.8125 25.956V21.6919H9.13615C9.83235 21.6919 10.4364 21.2227 10.6002 20.5494C10.8357 19.6211 10.0985 18.6724 9.13615 18.6928H2.82942V14.4287H9.14639C10.1088 14.4389 10.8459 13.5004 10.6105 12.5721C10.4466 11.8988 9.84259 11.4295 9.14639 11.4295H0.8125V11.3989V7.17562V7.14502C0.8125 7.14502 8.24543 7.14502 9.68901 7.14502C14.2962 7.15522 15.3917 10.0524 15.6374 11.756C15.7091 12.2354 15.6988 12.7353 15.6272 13.2249C15.4429 14.4491 14.8081 15.612 13.9071 16.5403C14.7979 17.489 15.4326 18.652 15.6272 19.8761Z" fill="black"/>
<path d="M25.4367 25.956C28.7506 25.956 31.3711 24.2107 32.5233 21.312L32.7477 20.7506L29.9946 19.7707L29.7702 20.2811C28.9239 22.1693 27.4658 23.2921 25.4469 23.2921C22.551 23.2921 20.6952 21.2915 20.6952 18.2295V14.8511C20.6952 11.7891 22.551 9.81918 25.3857 9.81918C27.4352 9.81918 29.0667 11.0338 29.8008 13.0547L29.9946 13.5855L32.7171 12.575L32.5437 12.0647C31.5343 9.00264 28.8016 7.14502 25.3755 7.14502C20.8278 7.14502 17.728 10.156 17.728 14.6878V18.403C17.7382 22.9144 20.8278 25.956 25.4367 25.956Z" fill="black"/>
<path fill-rule="evenodd" clip-rule="evenodd" d="M46.7981 23.7682C45.4468 25.1809 43.5324 25.9999 41.3007 25.9999C36.8168 25.9999 33.7969 22.9185 33.7969 18.2913V14.8106C33.7969 10.2142 36.8168 7.1123 41.3007 7.1123C43.4096 7.1123 45.4672 7.84938 46.7981 9.344V7.39894H49.6747V25.7132H46.7981V23.7682ZM36.7554 18.1275C36.7554 21.2908 38.7312 23.3178 41.7511 23.3178C44.7711 23.3178 46.7162 21.2806 46.7162 18.1275V14.9949C46.7162 11.8317 44.8018 9.80471 41.7511 9.80471C38.7312 9.80471 36.7554 11.8317 36.7554 14.9949V18.1275Z" fill="black"/>
<path d="M59.7245 25.6647V22.987H55.491C55.3468 22.987 55.2644 22.9053 55.2644 22.7622V10.0585H59.7245V7.38077H55.2644V3.354H52.2876V22.8746C52.2876 24.5405 53.503 25.6647 55.2953 25.6647H59.7245Z" fill="black"/>
<path d="M78.9103 17.1654C79.3391 16.4257 79.0838 15.4806 78.3488 15.0491L65.098 7.35469C64.3629 6.92323 63.4237 7.18005 62.995 7.9197C62.5662 8.65935 62.8214 9.60446 63.5565 10.0359L76.8073 17.7304C77.0523 17.8742 77.3177 17.9358 77.5729 17.9358C78.1038 17.9358 78.6244 17.6585 78.9103 17.1654Z" fill="black"/>
<path d="M74.3901 19.9375C74.8182 19.1993 74.5634 18.2559 73.8295 17.8253L65.0944 12.7498C64.3605 12.3192 63.4227 12.5755 62.9947 13.3137C62.5666 14.052 62.8214 14.9953 63.5553 15.426L72.2904 20.5015C72.5351 20.645 72.8001 20.7065 73.0549 20.7065C73.5951 20.7065 74.1149 20.4297 74.3901 19.9375Z" fill="black"/>
<path d="M69.8704 22.5637C70.297 21.8267 70.0431 20.8851 69.3117 20.4553L65.0863 17.9989C64.355 17.5691 63.4205 17.8249 62.9939 18.5618C62.5673 19.2987 62.8213 20.2404 63.5526 20.6702L67.778 23.1266C68.0218 23.2699 68.2859 23.3313 68.5398 23.3313C69.068 23.3313 69.586 23.0549 69.8704 22.5637Z" fill="black"/>
<path d="M64.3178 25.9561C65.1634 25.9561 65.8489 25.238 65.8489 24.3521C65.8489 23.4662 65.1634 22.748 64.3178 22.748C63.4721 22.748 62.7866 23.4662 62.7866 24.3521C62.7866 25.238 63.4721 25.9561 64.3178 25.9561Z" fill="black"/>
<path fill-rule="evenodd" clip-rule="evenodd" d="M129.719 18.3016C129.719 22.9288 126.699 25.9999 122.215 25.9999V25.9897H121.345C116.861 25.9897 113.841 22.9185 113.841 18.2913V14.8312C113.841 10.2347 116.861 7.13281 121.345 7.13281H122.215C126.699 7.13281 129.719 10.2347 129.719 14.8312V18.3016ZM126.77 18.1275V14.995C126.77 11.8317 124.795 9.80472 121.775 9.80472C118.755 9.80472 116.779 11.8317 116.779 14.995V18.1275C116.779 21.2908 118.755 23.3178 121.775 23.3178C124.795 23.3178 126.77 21.2908 126.77 18.1275Z" fill="black"/>
<path d="M102.888 13.9636V14.8198V17.4188V25.6644H99.9106V17.4188V15.6658V14.7892C99.9106 11.7621 98.1182 9.81539 95.3677 9.81539C92.5966 9.81539 90.8453 11.7621 90.8453 14.7892V15.6658V17.4188V18.1017V25.6542C90.8144 25.6236 90.7835 25.6848 90.7629 25.6542H87.8682V7.4304H89.2898H90.7629V9.36693C91.9991 7.87886 93.9255 7.14502 95.9034 7.14502C99.8282 7.15521 102.558 9.85616 102.888 13.9636Z" fill="black"/>
<path d="M108.957 0.729004C107.165 0.729004 105.95 1.85545 105.95 3.52465V25.6645H108.927V10.1912H113.387V7.51842H108.927V3.63729C108.927 3.49393 109.009 3.412 109.153 3.412H113.387V0.729004H108.957Z" fill="black"/>
<path d="M83.1916 0C82.0697 0 81.1602 0.935122 81.1602 2.09883C81.1602 3.27293 82.0697 4.22883 83.2017 4.22883C84.3235 4.22883 85.2432 3.27293 85.2432 2.09883C85.2331 0.935122 84.3134 0 83.1916 0Z" fill="black"/>
<path d="M84.6601 7.43701H81.7437V25.6647H84.6601V7.43701Z" fill="black"/>
</g>
<defs>
<clipPath id="clip0_10797_14926">
<rect width="128.917" height="26" fill="black" transform="translate(0.8125)"/>
</clipPath>
</defs>
</svg>
