<svg xmlns="http://www.w3.org/2000/svg" viewBox="0 0 38.79 14.09"><defs><style>.cls-1{fill:#a1216d;}</style></defs><g id="Layer_2" data-name="Layer 2"><g id="Layer_1-2" data-name="Layer 1"><path class="cls-1" d="M26.45,6.76A2.46,2.46,0,0,0,28,4.36c0-2-1.58-3-4.15-3A9.37,9.37,0,0,0,20.56,2a2.93,2.93,0,0,0,.78,2.15,7.83,7.83,0,0,1,2.15-.3c.84,0,1.19.28,1.19.89s-.19.87-.95.87H22.09a4.57,4.57,0,0,0,0,2.38h1.64c1,0,1.25.42,1.25,1.07s-.2,1.1-1.44,1.1a11.44,11.44,0,0,1-2.34-.3,3.29,3.29,0,0,0-.84,2.2,8.3,8.3,0,0,0,3.32.61c3.29,0,4.64-1.15,4.64-3.17a2.74,2.74,0,0,0-1.87-2.76m3,.3a9.64,9.64,0,0,0,2.28,6.31H18V.75H31.73a9.62,9.62,0,0,0-2.28,6.31M16.62,6.23a4.72,4.72,0,0,1-1.5,3.46h0l-3.23,3.23h0V6.23A4.76,4.76,0,0,0,9.48,2.11,4.75,4.75,0,0,0,11.31,11a0,0,0,0,1,0,0l0,0H7.1a4.76,4.76,0,0,1,0-9.52h4.76a4.76,4.76,0,0,1,4.76,4.76M30.26,7a10.12,10.12,0,0,1,2.83-7H0V14.09H33.09a10.15,10.15,0,0,1-2.83-7m8.53-.16a7.5,7.5,0,0,0-.23-2H35V1.3a5.93,5.93,0,0,0-.9-.15,8.37,8.37,0,0,0-.26,11.5A7.09,7.09,0,0,0,35,12.46V8.91h3.55a7.59,7.59,0,0,0,.23-2"/></g></g></svg>