<svg width="60" height="60" viewBox="0 0 60 60" fill="none" xmlns="http://www.w3.org/2000/svg">
<g clip-path="url(#clip0)">
<path d="M7.84985 40.9297C8.55217 41.6876 8.93712 42.6859 8.9254 43.7191C8.9254 44.7815 8.59315 45.6311 7.92865 46.2681C7.27291 46.8755 6.43805 47.2543 5.54906 47.3475C5.80514 47.7074 6.06779 48.062 6.337 48.4113C6.93436 48.941 7.61966 49.3623 8.36202 49.6562C9.45273 50.0924 10.615 50.3221 11.7896 50.3339C13.703 50.3339 15.2441 49.9885 16.4128 49.2977C17.5404 48.6494 18.4762 47.7142 19.1253 46.5872C19.7858 45.403 20.2181 44.1054 20.3998 42.7617C20.6157 41.2843 20.7224 39.793 20.719 38.3C20.7108 37.1667 20.6312 36.0351 20.4806 34.9118C20.3343 33.7113 19.9978 32.5416 19.4839 31.4468C18.9709 30.3748 18.1883 29.4543 17.2126 28.7757C16.2027 28.0587 14.8481 27.7002 13.1488 27.7002C12.7055 27.7023 12.2639 27.7558 11.8329 27.8597C11.3818 27.9661 10.9425 28.0725 10.519 28.1788L10.1999 27.1427L11.7147 26.7487C14.4239 26.0553 16.2973 24.9909 17.3347 23.5556C18.3722 22.1202 18.8896 19.9153 18.887 16.9408C18.887 13.9111 18.4352 11.6261 17.5317 10.0857C16.6282 8.54523 15.0871 7.77567 12.9085 7.77698C11.8541 7.79997 10.8147 8.03022 9.84926 8.45461C9.11046 8.7646 8.4383 9.21404 7.86955 9.77836C7.60953 10.062 7.35936 10.3536 7.10919 10.6471C8.07121 10.7141 8.98155 11.1074 9.6897 11.762C10.3542 12.4002 10.6865 13.2506 10.6865 14.313C10.6901 15.3567 10.3037 16.3642 9.60303 17.1378C8.88469 17.9612 7.86167 18.3729 6.53399 18.3729C5.15114 18.3729 4.04868 17.9743 3.22659 17.1772C3.14582 17.0984 3.07097 17.0156 2.99809 16.9349C1.22451 20.5935 0.214651 24.575 0.0300765 28.6367C-0.154498 32.6983 0.49008 36.755 1.92451 40.5594C2.68488 40.0118 3.63632 39.734 4.78081 39.734C6.1085 39.734 7.13151 40.1326 7.84985 40.9297Z" fill="#FF6900"/>
<path d="M52.0555 40.4905C50.8867 40.4629 49.9307 40.4497 49.1874 40.4511C48.3902 40.4511 47.3804 40.4642 46.1577 40.4905C44.9351 40.5167 43.7401 40.5568 42.5726 40.6106L38.3492 40.7702L38.2684 39.734L43.528 39.1766V14.0726C42.4368 14.6229 41.2879 15.0503 40.1024 15.3471C38.8769 15.6902 37.625 15.9307 36.3596 16.0661L36.2021 14.9492C39.2909 14.3623 42.2817 13.3431 45.0861 11.9216C47.0705 10.9311 48.9006 9.65778 50.519 8.1414C45.1912 3.12542 38.2102 0.235323 30.896 0.0175403C23.5817 -0.200243 16.4411 2.26938 10.8243 6.95948C12.1638 6.66487 13.5305 6.51104 14.9019 6.5005C16.5053 6.5062 18.105 6.65253 19.6828 6.93781C21.2586 7.2067 22.7797 7.73171 24.1859 8.49203C25.5182 9.21584 26.6644 10.2387 27.5347 11.4803C28.4106 12.7292 28.8492 14.3366 28.8505 16.3025C28.8505 18.8515 28.0797 20.9901 26.5379 22.7184C24.9962 24.4466 22.8477 25.6824 20.0925 26.4256C23.331 26.6883 25.9076 27.9103 27.8223 30.0916C29.737 32.2729 30.6897 34.9808 30.6805 38.2153C30.6805 40.4478 30.1894 42.4006 29.2071 44.0736C28.2299 45.7407 26.896 47.1709 25.3008 48.2616C23.6119 49.4081 21.7391 50.257 19.7636 50.7712C17.6869 51.3298 15.5455 51.612 13.395 51.6103C11.9524 51.6006 10.5132 51.4688 9.09282 51.2163C8.97266 51.1947 8.86038 51.1651 8.74219 51.1435C11.5256 53.9549 14.8392 56.186 18.4911 57.7077C22.143 59.2293 26.0605 60.0111 30.0167 60.0078C42.7873 60.0078 53.7122 51.9846 58.034 40.717L55.5008 40.6185C54.3858 40.5647 53.2433 40.5246 52.0732 40.4983" fill="#FF6900"/>
<path d="M58.4143 39.5942C59.9442 35.0872 60.3752 30.28 59.6714 25.5728C58.9676 20.8656 57.1494 16.3946 54.3682 12.5322V39.1766L58.4143 39.5942Z" fill="#FF6900"/>
</g>
<defs>
<clipPath id="clip0">
<rect width="60" height="60" fill="white"/>
</clipPath>
</defs>
</svg>
