<?xml version="1.0" encoding="UTF-8" standalone="no"?><!DOCTYPE svg PUBLIC "-//W3C//DTD SVG 1.1//EN" "http://www.w3.org/Graphics/SVG/1.1/DTD/svg11.dtd"><svg width="500px" height="280px" version="1.1" xmlns="http://www.w3.org/2000/svg" xmlns:xlink="http://www.w3.org/1999/xlink" xml:space="preserve" xmlns:serif="http://www.serif.com/" style="fill-rule:evenodd;clip-rule:evenodd;stroke-linejoin:round;stroke-miterlimit:2;"><g transform="matrix(5.20833,0,0,5.21221,0,0.0521221)"><path d="M80.82,8.56C72.44,8.56 65.64,15.35 65.64,23.74C65.64,32.13 72.43,38.92 80.82,38.92C89.21,38.92 96,32.13 96,23.74C96,15.35 89.21,8.56 80.82,8.56M80.82,31.69C76.61,31.69 73.2,28.13 73.2,23.74C73.2,19.35 76.61,15.79 80.82,15.79C85.03,15.79 88.44,19.35 88.44,23.74C88.44,28.13 85.03,31.69 80.82,31.69" style="fill:rgb(0,238,1);fill-rule:nonzero;"/><path d="M21.36,29.43C21.36,29.43 27.13,27.26 27.13,20.12C27.13,13.87 21.94,8.57 14.78,8.57C5,8.57 2.06,17.18 2.06,17.18L8.73,20.11C8.73,20.11 10.8,15.99 14.76,15.99C17.31,15.99 19.5,17.88 19.5,20.43C19.5,26.62 12.45,26.83 12.45,26.83L12.45,33.28C12.45,33.28 21.63,32.94 21.63,40.31C21.63,43.42 19.11,46.43 14.75,46.43C8.75,46.43 7.05,39.92 7.05,39.92L0,42.44C0,42.44 2.79,53.7 14.75,53.71C23.88,53.71 29.25,47.43 29.25,40.34C29.25,31.05 21.36,29.45 21.36,29.45" style="fill:rgb(0,238,1);fill-rule:nonzero;"/><path d="M47.21,15.93C46.87,15.93 46.53,15.94 46.2,15.96C49.23,12.38 53.03,9.23 55.82,7.11L57.17,6.15L52.73,-0.01L51.14,1.14C30.89,15.85 32.03,30.95 32.03,31.1C32.03,39.51 38.8,46.28 47.21,46.28C55.62,46.28 62.39,39.49 62.39,31.1C62.39,22.71 55.6,15.92 47.21,15.92M47.21,39.06C43,39.06 39.59,35.5 39.59,31.11C39.59,26.72 43,23.16 47.21,23.16C51.42,23.16 54.83,26.72 54.83,31.11C54.83,35.5 51.42,39.06 47.21,39.06" style="fill:rgb(0,238,1);fill-rule:nonzero;"/></g></svg>