<svg width="70" height="20" viewBox="0 0 70 20" fill="none" xmlns="http://www.w3.org/2000/svg">
<path d="M9.86671 5.04187C12.7707 5.04187 15.6747 5.04187 18.6667 5.04187C18.5334 5.70632 18.5334 5.70632 18.3334 6.17144C15.8254 6.17144 13.3174 6.17144 10.7334 6.17144C10.6674 6.43456 10.6014 6.69768 10.5334 6.96878C10.4748 7.1746 10.4153 7.37964 10.3534 7.58444C10.3374 7.63788 10.3214 7.69132 10.305 7.74638C10.2549 7.91358 10.2045 8.08072 10.1542 8.24785C10.1198 8.36265 10.0854 8.47746 10.051 8.59228C9.9675 8.87066 9.88383 9.14897 9.80004 9.42725C9.86048 9.42621 9.92091 9.42516 9.98318 9.42409C10.2113 9.42066 10.4394 9.41818 10.6676 9.4163C10.7656 9.41531 10.8636 9.41396 10.9616 9.41221C11.9869 9.39444 12.8517 9.52804 13.6459 10.2246C14.2268 10.838 14.4263 11.6184 14.4185 12.4368C14.3595 13.2227 14.0041 13.7695 13.4417 14.2944C12.7839 14.8535 12.1045 14.9634 11.2587 14.9573C11.1513 14.9573 11.1513 14.9573 11.0417 14.9573C10.8069 14.9573 10.5721 14.9562 10.3373 14.9552C10.1737 14.9549 10.0102 14.9547 9.84661 14.9546C9.41753 14.9541 8.98846 14.9528 8.55939 14.9513C8.12099 14.95 7.68258 14.9494 7.24418 14.9487C6.38502 14.9473 5.52587 14.945 4.66671 14.9422C4.69696 14.8162 4.72759 14.6902 4.75837 14.5643C4.77539 14.4941 4.79241 14.424 4.80994 14.3517C4.86131 14.1645 4.92371 13.9909 5.00004 13.8126C5.12583 13.8121 5.12583 13.8121 5.25416 13.8115C6.04571 13.8076 6.83725 13.8028 7.62878 13.797C8.03569 13.794 8.44259 13.7914 8.8495 13.7896C9.24244 13.7879 9.63535 13.7852 10.0283 13.7819C10.1779 13.7808 10.3276 13.78 10.4773 13.7796C10.6874 13.7789 10.8976 13.7771 11.1077 13.7749C11.1998 13.7751 11.1998 13.7751 11.2939 13.7752C11.8564 13.7671 12.3564 13.6409 12.8 13.2811C13.0837 12.9199 13.2364 12.5638 13.2204 12.0988C13.1514 11.6011 12.9422 11.2473 12.5659 10.9205C12.0536 10.6182 11.5378 10.5925 10.9539 10.5893C10.8749 10.5881 10.7958 10.5869 10.7144 10.5857C10.4638 10.5821 10.2132 10.5798 9.96254 10.5776C9.79184 10.5754 9.62113 10.5731 9.45043 10.5707C9.03364 10.5651 8.61685 10.5605 8.20004 10.5568C8.50211 9.48799 8.81877 8.42366 9.13925 7.3602C9.20829 7.13111 9.27712 6.90195 9.34591 6.67279C9.39941 6.49464 9.45303 6.31652 9.50667 6.13841C9.54445 6.01292 9.58212 5.88739 9.61979 5.76186C9.64252 5.68656 9.66525 5.61126 9.68866 5.53367C9.70863 5.46735 9.72859 5.40103 9.74916 5.3327C9.80004 5.17476 9.80004 5.17476 9.86671 5.04187Z" fill="black"/>
<path d="M11.5333 7.23462C13.6673 7.23462 15.8013 7.23462 18 7.23462C17.9333 7.69974 17.9333 7.69974 17.7333 8.36419C16.8093 8.38611 15.8853 8.40804 14.9333 8.43063C15.1093 8.60605 15.2853 8.78146 15.4667 8.96219C16.3811 10.1862 16.7769 11.5092 16.5805 13.0341C16.4176 13.9869 15.9795 14.8238 15.3333 15.5403C15.2988 15.5809 15.2642 15.6215 15.2286 15.6633C14.3659 16.6096 13.045 17.0745 11.7934 17.1469C11.5845 17.1511 11.3761 17.1514 11.1672 17.15C11.05 17.1501 11.05 17.1501 10.9304 17.1501C10.6754 17.15 10.4204 17.149 10.1654 17.1479C9.98724 17.1477 9.80912 17.1475 9.63099 17.1474C9.21217 17.1469 8.79335 17.1459 8.37452 17.1445C7.89712 17.143 7.41973 17.1423 6.94233 17.1416C5.96155 17.1403 4.98077 17.1379 4 17.135C4.20501 16.3694 4.20501 16.3694 4.33333 16.0054C4.37083 16.0052 4.40833 16.0051 4.44696 16.0049C5.36421 16.001 6.28144 15.9959 7.19866 15.9897C7.64225 15.9868 8.08583 15.9842 8.52943 15.9824C8.95824 15.9806 9.38704 15.9779 9.81584 15.9746C9.9787 15.9735 10.1416 15.9727 10.3044 15.9723C11.8046 15.9681 13.1829 15.9296 14.3258 14.826C15.0991 14.0053 15.4473 13.056 15.4185 11.9299C15.3417 10.9188 14.8736 10.0501 14.1333 9.36087C13.2702 8.62695 12.2888 8.48777 11.2 8.36419C11.2175 8.27549 11.2357 8.18692 11.2542 8.09841C11.2692 8.0244 11.2692 8.0244 11.2846 7.9489C11.3496 7.70533 11.4445 7.4706 11.5333 7.23462Z" fill="black"/>
<path d="M8.26654 2.84924C11.9185 2.84924 15.5705 2.84924 19.3332 2.84924C19.1332 3.64659 19.1332 3.64659 18.9999 3.97881C15.7439 3.97881 12.4879 3.97881 9.13321 3.97881C9.04521 4.32964 8.95721 4.68047 8.86654 5.04193C8.69908 5.614 8.69908 5.614 8.63827 5.81027C8.62479 5.8539 8.6113 5.89753 8.59741 5.94248C8.57659 6.00985 8.57659 6.00985 8.55535 6.07858C8.52575 6.17507 8.49618 6.27157 8.46664 6.36807C8.3894 6.62013 8.31185 6.8721 8.23422 7.12404C8.11159 7.52227 7.98948 7.92065 7.86726 8.31901C7.82226 8.46566 7.77721 8.6123 7.73217 8.75894C7.43975 9.71147 7.15246 10.6655 6.86654 11.62C6.92844 11.6194 6.99034 11.6188 7.05412 11.6182C7.63775 11.6129 8.22138 11.6088 8.80503 11.6062C9.10509 11.6048 9.40512 11.603 9.70517 11.6C9.99478 11.5971 10.2844 11.5955 10.574 11.5948C10.6844 11.5943 10.7949 11.5933 10.9053 11.5919C11.0601 11.59 11.2149 11.5897 11.3697 11.5898C11.4381 11.5884 11.4381 11.5884 11.5078 11.5869C11.8214 11.5896 11.9807 11.6637 12.1999 11.8858C12.2441 12.0332 12.2441 12.0332 12.2415 12.1848C12.2428 12.2598 12.2428 12.2598 12.2441 12.3364C12.1759 12.5638 12.0682 12.6253 11.8665 12.7496C11.6538 12.7873 11.4445 12.7832 11.229 12.7797C11.1652 12.7798 11.1014 12.7798 11.0357 12.7799C10.8254 12.7797 10.6151 12.7776 10.4048 12.7755C10.2588 12.775 10.1128 12.7747 9.96682 12.7744C9.58288 12.7734 9.19897 12.7708 8.81505 12.7678C8.42315 12.7651 8.03124 12.7639 7.63933 12.7626C6.87061 12.7597 6.10191 12.7552 5.33321 12.7496C5.37324 12.4233 5.43999 12.1214 5.53528 11.807C5.55584 11.7386 5.55584 11.7386 5.57682 11.6688C5.6223 11.5179 5.66825 11.3672 5.7142 11.2164C5.74676 11.1087 5.7793 11.0009 5.8118 10.8932C5.89909 10.6041 5.9868 10.3151 6.07458 10.0262C6.1655 9.72665 6.25606 9.42701 6.34664 9.12737C6.45682 8.76297 6.56704 8.39858 6.67742 8.03424C6.90956 7.26803 7.14067 6.50152 7.37071 5.73468C7.39906 5.64022 7.42741 5.54576 7.45576 5.4513C7.56165 5.09847 7.66754 4.74564 7.77325 4.39276C7.84443 4.15525 7.91575 3.91778 7.98712 3.68033C8.00794 3.61068 8.02877 3.54103 8.05023 3.46928C8.06914 3.40643 8.08806 3.34358 8.10754 3.27883C8.12389 3.22434 8.14023 3.16984 8.15707 3.1137C8.19988 2.98213 8.19988 2.98213 8.26654 2.84924Z" fill="black"/>
<path d="M30.4897 5.14983C30.5366 5.1892 30.5835 5.22857 30.6319 5.26913C30.6706 5.29872 30.7093 5.3283 30.7492 5.35879C31.2633 5.77008 31.6047 6.35495 31.8945 6.94478C31.9264 7.0095 31.9264 7.0095 31.959 7.07554C32.0621 7.29421 32.1055 7.42433 32.1055 7.67195C31.8391 7.77152 31.5725 7.87056 31.3058 7.96912C31.2151 8.00271 31.1244 8.03645 31.0338 8.07033C30.9035 8.11905 30.773 8.16725 30.6424 8.21535C30.5819 8.23817 30.5819 8.23817 30.5201 8.26146C30.3169 8.33576 30.1758 8.3675 29.9565 8.3675C29.9437 8.32846 29.931 8.28942 29.9179 8.24919C29.6516 7.49542 29.1612 6.89158 28.4521 6.54563C27.6152 6.1653 26.6495 6.15904 25.7862 6.45399C24.9999 6.78548 24.4742 7.29321 24.0619 8.05134C24.0373 8.09536 24.0126 8.13937 23.9871 8.18472C23.5047 9.15579 23.5308 10.4429 23.8163 11.4659C24.1365 12.3789 24.6644 13.0666 25.5061 13.513C26.4144 13.9497 27.3985 13.9504 28.3447 13.6355C28.992 13.3735 29.4859 12.8664 29.7809 12.2242C29.8421 12.078 29.8991 11.9299 29.9565 11.782C28.8218 11.782 27.6871 11.782 26.518 11.782C26.518 11.1143 26.518 10.4466 26.518 9.75861C28.3416 9.75861 30.1652 9.75861 32.0441 9.75861C32.0441 11.7409 32.0441 13.7233 32.0441 15.7657C31.4565 15.7657 30.8689 15.7657 30.2635 15.7657C30.2027 15.3901 30.1419 15.0145 30.0793 14.6275C30.0008 14.7136 29.9222 14.7996 29.8413 14.8883C29.0404 15.7105 28.0034 15.995 26.8992 16.019C25.5528 16.0147 24.2064 15.5684 23.2023 14.6275C23.119 14.5505 23.119 14.5505 23.034 14.4719C22.039 13.504 21.4136 12.1343 21.3525 10.7169C21.3137 9.04235 21.3137 9.04235 21.5445 8.24104C21.5654 8.16768 21.5863 8.09432 21.6078 8.01874C22.0661 6.57091 23.0068 5.42402 24.3076 4.70004C26.229 3.72935 28.7584 3.75485 30.4897 5.14983Z" fill="black"/>
<path d="M43.0999 5.37078C44.2369 6.39337 44.9667 7.76035 45.0909 9.31978C45.1911 11.047 44.8889 12.6546 43.7717 14.0018C43.7451 14.0383 43.7185 14.0747 43.6911 14.1123C42.8957 15.1681 41.4862 15.7852 40.231 15.9689C38.6825 16.1608 37.129 15.8166 35.8608 14.8599C34.7208 13.9287 33.9383 12.6449 33.7211 11.1486C33.61 10.0945 33.6183 9.004 33.9475 7.99332C33.969 7.92206 33.9905 7.8508 34.0127 7.77739C34.4849 6.36211 35.5444 5.27007 36.8332 4.62098C37.2113 4.43862 37.5939 4.30036 38 4.19848C38.0554 4.18429 38.1108 4.1701 38.1679 4.15549C39.8771 3.79242 41.7536 4.22136 43.0999 5.37078ZM36.8334 7.36085C36.0559 8.32222 35.8821 9.4365 35.9737 10.6497C36.1005 11.6341 36.5315 12.5048 37.3023 13.1188C38.128 13.6891 39.0778 13.919 40.0624 13.7372C40.9008 13.5305 41.6797 13.1059 42.1753 12.3574C42.8003 11.2602 42.985 10.0491 42.6895 8.80368C42.3856 7.80888 41.8323 7.10936 40.9472 6.60188C39.5736 5.97261 37.8863 6.20254 36.8334 7.36085Z" fill="black"/>
<path d="M55.9435 3.97998C62.7349 3.97998 62.7349 3.97998 64.3715 5.61346C65.5196 6.81051 65.8896 8.45002 65.8944 10.0817C65.8697 11.7352 65.3527 13.2352 64.2113 14.4215C61.994 16.5472 58.7001 15.9258 55.9435 15.9258C55.9435 11.9837 55.9435 8.04157 55.9435 3.97998ZM58.2541 6.15795C58.2541 8.64084 58.2541 11.1237 58.2541 13.6819C60.6924 13.7837 60.6924 13.7837 62.6043 12.6529C63.42 11.7433 63.5029 10.5498 63.4644 9.37373C63.411 8.5379 63.0695 7.67767 62.4902 7.08194C62.2837 6.91487 62.0701 6.76468 61.8483 6.61995C61.8081 6.59323 61.7679 6.56652 61.7265 6.53899C60.7232 5.94878 59.299 6.15795 58.2541 6.15795Z" fill="black"/>
<path d="M46.9379 4.02026C47.7006 4.02026 48.4633 4.02026 49.2491 4.02026C49.2491 7.21191 49.2491 10.4036 49.2491 13.6919C50.9439 13.6919 52.6388 13.6919 54.385 13.6919C54.385 14.4571 54.385 15.2222 54.385 16.0105C51.9274 16.0105 49.4699 16.0105 46.9379 16.0105C46.9379 12.0537 46.9379 8.09694 46.9379 4.02026Z" fill="black"/>
</svg>
