<svg width="78" height="20" viewBox="0 0 78 20" fill="none" xmlns="http://www.w3.org/2000/svg">
<path d="M9.80005 5.05005C12.7041 5.05005 15.6081 5.05005 18.6001 5.05005C18.5334 5.58161 18.5334 5.58161 18.3334 6.17962C15.8034 6.17962 13.2734 6.17962 10.6667 6.17962C10.6447 6.33311 10.6227 6.48659 10.6001 6.64473C10.576 6.74362 10.5496 6.84199 10.5201 6.93941C10.5043 6.99215 10.4885 7.0449 10.4722 7.09925C10.4553 7.15456 10.4383 7.20988 10.4209 7.26688C10.4034 7.3249 10.3859 7.38292 10.3678 7.44269C10.331 7.56453 10.294 7.68632 10.2569 7.80806C10.1999 7.99487 10.1434 8.18182 10.087 8.3688C10.0511 8.48738 10.0152 8.60596 9.97922 8.72452C9.96227 8.78051 9.94533 8.8365 9.92787 8.89419C9.80785 9.287 9.80785 9.287 9.73338 9.43543C9.79619 9.43439 9.85899 9.43334 9.9237 9.43227C10.1602 9.42884 10.3966 9.42636 10.633 9.42448C10.7347 9.42349 10.8364 9.42213 10.9381 9.42039C11.9183 9.40404 12.6681 9.54587 13.4792 10.1165C13.723 10.3541 13.8971 10.6033 14.0667 10.8972C14.1085 10.9675 14.1085 10.9675 14.1511 11.0392C14.4646 11.6697 14.4454 12.5646 14.2334 13.227C13.9228 13.9251 13.3903 14.4384 12.7019 14.7621C11.9281 15.0411 11.1227 14.9836 10.3112 14.9763C10.1481 14.9758 9.9849 14.9755 9.82172 14.9752C9.39483 14.9742 8.96797 14.9716 8.54109 14.9686C8.10445 14.9659 7.66781 14.9647 7.23117 14.9634C6.37634 14.9605 5.52153 14.956 4.66672 14.9504C4.70956 14.5575 4.81272 14.1967 4.93338 13.8208C5.06042 13.8202 5.06042 13.8202 5.19003 13.8196C5.98943 13.8158 6.78882 13.811 7.5882 13.8052C7.99914 13.8022 8.41008 13.7996 8.82103 13.7978C9.21785 13.7961 9.61466 13.7934 10.0115 13.79C10.1626 13.7889 10.3138 13.7882 10.4649 13.7877C10.6772 13.7871 10.8894 13.7852 11.1016 13.7831C11.1636 13.7832 11.2257 13.7833 11.2896 13.7834C11.8524 13.7754 12.3487 13.6661 12.7662 13.2703C13.0986 12.8936 13.1824 12.5275 13.1628 12.0289C13.0964 11.5741 12.9033 11.2213 12.5459 10.9304C12.0713 10.5835 11.4697 10.6097 10.9084 10.6039C10.8307 10.6026 10.753 10.6014 10.673 10.6C10.4265 10.5961 10.1799 10.593 9.93338 10.5899C9.76559 10.5874 9.59779 10.5848 9.43 10.5821C9.02002 10.5758 8.61004 10.5701 8.20005 10.565C8.30089 9.95307 8.48622 9.36641 8.66724 8.77461C8.69625 8.67898 8.72524 8.58334 8.7542 8.48769C8.86081 8.13628 8.96796 7.78504 9.07505 7.43377C9.43393 6.25383 9.43393 6.25383 9.80005 5.05005Z" fill="black"/>
<path d="M11.4667 7.2428C13.6227 7.2428 15.7787 7.2428 18 7.2428C17.8 8.04014 17.8 8.04014 17.6667 8.37237C16.7427 8.39429 15.8187 8.41622 14.8667 8.43881C15.0867 8.65808 15.3067 8.87735 15.5333 9.10326C16.4048 10.342 16.7542 11.671 16.5208 13.1686C16.2418 14.4749 15.4843 15.6037 14.3625 16.3416C13.3348 16.9448 12.3261 17.1546 11.1445 17.1507C11.0283 17.1507 11.0283 17.1507 10.9098 17.1507C10.6552 17.1507 10.4005 17.1501 10.1458 17.1496C9.96873 17.1495 9.79162 17.1494 9.61452 17.1493C9.19686 17.1491 8.77921 17.1486 8.36155 17.1479C7.88578 17.1472 7.41 17.1468 6.93422 17.1465C5.95614 17.1458 4.97807 17.1446 4 17.1431C4.0726 16.7606 4.15289 16.3862 4.26667 16.0136C4.30416 16.0134 4.34166 16.0132 4.3803 16.0131C5.29754 16.0091 6.21477 16.0041 7.132 15.9979C7.57559 15.9949 8.01917 15.9923 8.46276 15.9905C8.89157 15.9888 9.32037 15.9861 9.74917 15.9828C9.91203 15.9817 10.0749 15.9809 10.2378 15.9805C11.8503 15.9995 11.8503 15.9995 13.3625 15.5028C13.4067 15.4794 13.4509 15.456 13.4964 15.4319C14.3365 14.972 14.9094 14.2422 15.2375 13.3474C15.5151 12.3044 15.365 11.2574 14.875 10.3076C14.3562 9.42094 13.5395 8.8459 12.5487 8.56755C12.257 8.49794 11.9645 8.46192 11.6667 8.43051C11.4907 8.41132 11.3147 8.39213 11.1333 8.37237C11.2433 7.99961 11.3533 7.62685 11.4667 7.2428Z" fill="black"/>
<path d="M8.44687 2.84925C8.52793 2.84931 8.60898 2.84937 8.6925 2.84944C8.73747 2.84938 8.78245 2.84932 8.82879 2.84926C8.9806 2.84915 9.1324 2.84952 9.28421 2.84988C9.39259 2.8499 9.50098 2.84989 9.60936 2.84985C9.90453 2.84983 10.1997 2.85023 10.4949 2.85069C10.803 2.8511 11.1111 2.85114 11.4192 2.85122C12.0031 2.85143 12.587 2.85197 13.1709 2.85264C13.8354 2.85338 14.5 2.85375 15.1646 2.85408C16.532 2.85478 17.8994 2.85595 19.2669 2.85743C19.2477 2.95853 19.2282 3.05957 19.2085 3.16058C19.1923 3.24499 19.1923 3.24499 19.1757 3.33111C19.1269 3.55207 19.0626 3.76943 19.0002 3.98699C15.7442 4.00892 12.4882 4.03085 9.13354 4.05344C8.19279 7.12329 8.19279 7.12329 7.26172 10.196C7.19609 10.414 7.13032 10.6319 7.06453 10.8498C7.04531 10.9138 7.02609 10.9779 7.00628 11.0439C6.9888 11.1017 6.97133 11.1596 6.95332 11.2192C6.93055 11.2948 6.93055 11.2948 6.90731 11.372C6.86688 11.4953 6.86688 11.4953 6.80021 11.6282C6.86226 11.6279 6.92431 11.6276 6.98823 11.6273C7.57287 11.6246 8.15751 11.6226 8.74215 11.6213C9.04272 11.6206 9.34329 11.6197 9.64386 11.6182C9.93391 11.6167 10.2239 11.6159 10.514 11.6156C10.6247 11.6153 10.7354 11.6149 10.846 11.6141C11.001 11.6132 11.156 11.613 11.311 11.6131C11.3567 11.6126 11.4025 11.6121 11.4497 11.6117C11.6888 11.6127 11.8658 11.6268 12.0669 11.7611C12.2377 11.9719 12.2034 12.1771 12.1789 12.432C12.1117 12.6195 12.0436 12.661 11.8669 12.7578C11.6549 12.787 11.4444 12.7829 11.2307 12.7804C11.1663 12.7804 11.1019 12.7804 11.0356 12.7805C10.8227 12.7803 10.6099 12.7788 10.3971 12.7772C10.2495 12.7769 10.1019 12.7766 9.95431 12.7764C9.56588 12.7756 9.17747 12.7736 8.78906 12.7714C8.39269 12.7694 7.99632 12.7685 7.59995 12.7675C6.82225 12.7654 6.04457 12.7619 5.26688 12.7578C5.33825 12.4264 5.41274 12.0986 5.51152 11.774C5.54348 11.6684 5.54348 11.6684 5.57609 11.5607C5.59909 11.4855 5.62209 11.4103 5.64578 11.3328C5.67029 11.252 5.6948 11.1713 5.72005 11.0881C5.77303 10.9135 5.82614 10.7389 5.87936 10.5644C5.96374 10.2877 6.04783 10.0109 6.13187 9.73414C6.21978 9.44463 6.30773 9.15513 6.39577 8.86566C6.60551 8.17608 6.81456 7.4863 7.02313 6.79638C7.03751 6.7488 7.05189 6.70123 7.06671 6.65221C7.13778 6.41714 7.20884 6.18207 7.2799 5.947C7.41154 5.5115 7.54321 5.07601 7.67495 4.64054C7.70842 4.52981 7.70842 4.52981 7.74256 4.41683C7.78478 4.27731 7.82708 4.13782 7.86949 3.99836C7.9154 3.84733 7.96105 3.69622 8.00653 3.54506C8.0304 3.46637 8.05427 3.38768 8.07887 3.30661C8.10051 3.23491 8.12216 3.1632 8.14446 3.08933C8.22191 2.85947 8.22191 2.85947 8.44687 2.84925Z" fill="black"/>
<path d="M50.495 5.30306C50.5923 5.38657 50.6888 5.47102 50.7843 5.55662C50.8221 5.5902 50.86 5.62378 50.899 5.65839C51.9859 6.69565 52.4879 8.22991 52.5682 9.71696C52.6214 11.2231 52.2433 12.7921 51.2509 13.9399C51.1575 14.0407 51.0637 14.1411 50.9694 14.241C50.9126 14.3063 50.9126 14.3063 50.8546 14.373C49.8995 15.436 48.4279 15.9465 47.0483 16.0144C45.5456 16.0542 44.0843 15.5846 42.9485 14.5579C42.8976 14.5176 42.8467 14.4772 42.7943 14.4356C41.7643 13.5593 41.2019 12.0697 41.0684 10.7407C40.9225 8.97869 41.3338 7.30434 42.4549 5.93695C43.2356 5.03477 44.2821 4.45264 45.4165 4.16205C45.4669 4.14783 45.5173 4.13361 45.5693 4.11896C47.266 3.71497 49.1396 4.21832 50.495 5.30306ZM45.4165 6.50746C45.3713 6.52576 45.3261 6.54407 45.2796 6.56292C44.5119 6.91348 43.9684 7.57157 43.6349 8.34972C43.2226 9.46926 43.2583 10.733 43.7065 11.8374C44.1053 12.6535 44.7354 13.2223 45.5553 13.5635C46.5611 13.9031 47.5531 13.8376 48.5014 13.3535C49.3636 12.8169 49.8967 12.0633 50.1634 11.0636C50.3938 9.86081 50.2203 8.70099 49.612 7.64847C49.1345 6.93509 48.3336 6.47611 47.5243 6.27893C47.2911 6.23521 47.0606 6.22963 46.824 6.23013C46.7728 6.23023 46.7217 6.23033 46.669 6.23044C46.221 6.23954 45.8315 6.33101 45.4165 6.50746Z" fill="black"/>
<path d="M54.1346 4.02588C60.4035 4.02588 60.4035 4.02588 61.5028 5.04858C62.1712 5.77276 62.4811 6.70904 62.4742 7.69434C62.4739 7.74947 62.4735 7.8046 62.4731 7.8614C62.465 8.28708 62.4168 8.66324 62.2606 9.06069C62.2362 9.125 62.2117 9.1893 62.1865 9.25556C61.763 10.2401 61.0511 10.7011 60.1323 11.1144C60.2259 11.4322 60.3562 11.7202 60.5052 12.0136C60.529 12.0612 60.5529 12.1087 60.5775 12.1577C60.6546 12.311 60.732 12.4642 60.8095 12.6174C60.8626 12.7228 60.9157 12.8283 60.9688 12.9337C61.1195 13.2329 61.2707 13.5318 61.4222 13.8305C61.459 13.9031 61.4958 13.9756 61.5337 14.0504C61.8124 14.5991 62.0926 15.1462 62.3921 15.6834C62.4541 15.8179 62.4541 15.8179 62.4541 16.0167C61.6028 16.0167 60.7515 16.0167 59.8744 16.0167C59.6669 15.6 59.4594 15.1832 59.252 14.7665C59.1818 14.6254 59.1116 14.4843 59.0414 14.3433C58.5616 13.3799 58.0866 12.4143 57.6171 11.4456C57.2553 11.4237 56.8935 11.4019 56.5208 11.3794C56.5208 12.9097 56.5208 14.44 56.5208 16.0167C55.7333 16.0167 54.9459 16.0167 54.1346 16.0167C54.1346 12.0597 54.1346 8.10275 54.1346 4.02588ZM56.5208 6.07955C56.5208 7.15078 56.5208 8.222 56.5208 9.32568C57.0595 9.33388 57.0595 9.33388 57.6091 9.34225C57.7211 9.34466 57.833 9.34707 57.9484 9.34956C58.5828 9.35746 59.0467 9.28398 59.6043 8.95304C59.937 8.58196 60.0882 8.19898 60.1041 7.69434C60.0808 7.17098 59.941 6.85561 59.5801 6.48946C58.9785 6.00347 58.236 6.05413 57.5083 6.06713C57.0195 6.07328 57.0195 6.07328 56.5208 6.07955Z" fill="black"/>
<path d="M28.2721 4.79584C28.9333 5.34303 29.4262 6.01518 29.595 6.88611C29.595 6.94888 29.595 7.01165 29.595 7.07632C29.3449 7.15804 29.0946 7.23929 28.8442 7.32011C28.7591 7.34766 28.674 7.37533 28.589 7.40314C28.4666 7.44314 28.344 7.48267 28.2215 7.52211C28.1478 7.54602 28.0742 7.56992 27.9983 7.59455C27.806 7.64693 27.806 7.64693 27.5593 7.64693C27.5443 7.60558 27.5294 7.56422 27.514 7.52161C27.2772 6.88714 27.0458 6.56076 26.4489 6.25209C25.89 6.01365 25.2403 6.06037 24.6876 6.2942C24.3372 6.49067 24.1039 6.74787 23.9814 7.13972C23.9366 7.50233 23.9257 7.87278 24.1418 8.17902C24.5163 8.62112 25.0551 8.69215 25.5891 8.79213C25.7502 8.82427 25.9111 8.85718 26.072 8.88995C26.1484 8.90527 26.2248 8.92058 26.3035 8.93636C27.4333 9.16554 28.5335 9.56049 29.2323 10.5604C29.5899 11.1564 29.7533 11.7271 29.7454 12.4258C29.7448 12.4841 29.7443 12.5423 29.7438 12.6023C29.7222 13.4986 29.3748 14.21 28.7776 14.8589C27.8561 15.7518 26.6727 16.047 25.4353 16.0145C24.2427 15.9561 23.117 15.5644 22.2541 14.6845C21.7104 14.031 21.2561 13.2197 21.2671 12.3387C21.4727 12.2778 21.6783 12.2171 21.884 12.1564C21.9416 12.1393 21.9993 12.1222 22.0587 12.1046C22.2264 12.0552 22.3945 12.0067 22.5625 11.9582C22.6093 11.9441 22.656 11.9299 22.7042 11.9153C22.9457 11.8459 23.1227 11.8172 23.3645 11.8948C23.3794 11.9499 23.3944 12.005 23.4098 12.0618C23.5938 12.712 23.8122 13.1419 24.3515 13.5433C24.9931 13.9028 25.7478 13.9796 26.4609 13.8147C26.8548 13.6612 27.1555 13.4629 27.3665 13.0797C27.4782 12.7033 27.4896 12.4245 27.3318 12.0692C27.1054 11.6555 26.7479 11.4776 26.3255 11.3242C25.9411 11.2294 25.5524 11.1573 25.1635 11.0848C23.9841 10.8624 22.8577 10.475 22.1307 9.42218C21.6927 8.61839 21.574 7.74105 21.7435 6.83906C22.0474 5.7641 22.7063 4.99455 23.6515 4.44515C25.0521 3.7349 27.0084 3.83501 28.2721 4.79584Z" fill="black"/>
<path d="M31.3071 4.02588C37.461 4.02588 37.461 4.02588 38.5718 5.11249C39.3307 5.97224 39.5571 6.97532 39.5183 8.10269C39.4649 9.03761 39.0953 9.84422 38.4657 10.5181C37.4056 11.4479 36.1917 11.5433 34.8622 11.5243C34.4552 11.5202 34.0482 11.5161 33.6288 11.5119C33.6288 12.9984 33.6288 14.485 33.6288 16.0167C32.8626 16.0167 32.0965 16.0167 31.3071 16.0167C31.3071 12.0597 31.3071 8.10275 31.3071 4.02588ZM33.6288 6.07955C33.6288 7.1945 33.6288 8.30945 33.6288 9.45818C33.9467 9.46091 34.2646 9.46364 34.5921 9.46646C34.6912 9.46767 34.7903 9.46887 34.8924 9.47012C35.6047 9.47307 36.2374 9.44757 36.7889 8.9282C37.1132 8.47055 37.2239 8.0305 37.1759 7.47075C37.0977 7.08635 36.9633 6.73121 36.6599 6.47704C36.1742 6.17373 35.7773 6.07076 35.2096 6.07308C35.0851 6.07333 35.0851 6.07333 34.9581 6.07359C34.8009 6.07449 34.8009 6.07449 34.6405 6.07541C34.3066 6.07678 33.9728 6.07815 33.6288 6.07955Z" fill="black"/>
<path d="M63.9965 3.98022C67.2018 3.98022 70.4072 3.98022 73.7096 3.98022C73.7096 4.72654 73.7096 5.47286 73.7096 6.24179C72.4916 6.24179 71.2736 6.24179 70.0187 6.24179C70.0187 9.4685 70.0187 12.6952 70.0187 16.0197C69.2494 16.0197 68.4801 16.0197 67.6875 16.0197C67.6875 12.793 67.6875 9.56628 67.6875 6.24179C66.4695 6.24179 65.2514 6.24179 63.9965 6.24179C63.9965 5.49547 63.9965 4.74916 63.9965 3.98022Z" fill="black"/>
</svg>
