<svg width="74" height="20" viewBox="0 0 74 20" fill="none" xmlns="http://www.w3.org/2000/svg">
<path d="M9.79999 5.05005C12.704 5.05005 15.608 5.05005 18.6 5.05005C18.5333 5.58161 18.5333 5.58161 18.3333 6.17962C15.8033 6.17962 13.2733 6.17962 10.6667 6.17962C10.6447 6.33311 10.6227 6.48659 10.6 6.64473C10.5759 6.74362 10.5495 6.84199 10.52 6.93941C10.5042 6.99215 10.4884 7.0449 10.4722 7.09925C10.4552 7.15456 10.4383 7.20988 10.4208 7.26688C10.4033 7.3249 10.3858 7.38292 10.3678 7.44269C10.331 7.56453 10.294 7.68632 10.2568 7.80806C10.1998 7.99487 10.1434 8.18182 10.087 8.3688C10.0511 8.48738 10.0151 8.60596 9.97916 8.72452C9.96221 8.78051 9.94527 8.8365 9.92781 8.89419C9.80779 9.287 9.80779 9.287 9.73332 9.43543C9.79613 9.43439 9.85893 9.43334 9.92364 9.43227C10.1601 9.42884 10.3965 9.42636 10.633 9.42448C10.7347 9.42349 10.8364 9.42213 10.9381 9.42039C11.9183 9.40404 12.6681 9.54587 13.4792 10.1165C13.723 10.3541 13.8971 10.6033 14.0667 10.8972C14.1084 10.9675 14.1084 10.9675 14.151 11.0392C14.4646 11.6697 14.4454 12.5646 14.2333 13.227C13.9227 13.9251 13.3902 14.4384 12.7019 14.7621C11.928 15.0411 11.1227 14.9836 10.3112 14.9763C10.148 14.9758 9.98484 14.9755 9.82166 14.9752C9.39477 14.9742 8.96791 14.9716 8.54103 14.9686C8.10439 14.9659 7.66775 14.9647 7.23111 14.9634C6.37628 14.9605 5.52147 14.956 4.66666 14.9504C4.7095 14.5575 4.81266 14.1967 4.93332 13.8208C5.06036 13.8202 5.06036 13.8202 5.18997 13.8196C5.98937 13.8158 6.78876 13.811 7.58814 13.8052C7.99908 13.8022 8.41002 13.7996 8.82097 13.7978C9.21779 13.7961 9.6146 13.7934 10.0114 13.79C10.1626 13.7889 10.3137 13.7882 10.4649 13.7877C10.6771 13.7871 10.8893 13.7852 11.1015 13.7831C11.1636 13.7832 11.2256 13.7833 11.2896 13.7834C11.8524 13.7754 12.3486 13.6661 12.7661 13.2703C13.0985 12.8936 13.1823 12.5275 13.1628 12.0289C13.0963 11.5741 12.9033 11.2213 12.5458 10.9304C12.0713 10.5835 11.4696 10.6097 10.9083 10.6039C10.8307 10.6026 10.753 10.6014 10.673 10.6C10.4264 10.5961 10.1799 10.593 9.93332 10.5899C9.76553 10.5874 9.59773 10.5848 9.42994 10.5821C9.01996 10.5758 8.60998 10.5701 8.19999 10.565C8.30083 9.95307 8.48616 9.36641 8.66718 8.77461C8.69619 8.67898 8.72518 8.58334 8.75414 8.48769C8.86075 8.13628 8.9679 7.78504 9.07499 7.43377C9.43387 6.25383 9.43387 6.25383 9.79999 5.05005Z" fill="black"/>
<path d="M11.4667 7.2428C13.6227 7.2428 15.7787 7.2428 18 7.2428C17.8 8.04014 17.8 8.04014 17.6667 8.37237C16.7427 8.39429 15.8187 8.41622 14.8667 8.43881C15.0867 8.65808 15.3067 8.87735 15.5333 9.10326C16.3925 10.3245 16.7813 11.7034 16.5232 13.1873C16.2107 14.4862 15.4901 15.5999 14.3625 16.3416C13.3348 16.9448 12.3261 17.1546 11.1445 17.1507C11.0283 17.1507 11.0283 17.1507 10.9098 17.1507C10.6552 17.1507 10.4005 17.1501 10.1458 17.1496C9.96873 17.1495 9.79162 17.1494 9.61452 17.1493C9.19686 17.1491 8.77921 17.1486 8.36155 17.1479C7.88578 17.1472 7.41 17.1468 6.93422 17.1465C5.95614 17.1458 4.97807 17.1446 4 17.1431C4.0726 16.7606 4.15289 16.3862 4.26667 16.0136C4.30416 16.0134 4.34166 16.0132 4.3803 16.0131C5.29754 16.0091 6.21477 16.0041 7.132 15.9979C7.57559 15.9949 8.01917 15.9923 8.46276 15.9905C8.89157 15.9888 9.32037 15.9861 9.74917 15.9828C9.91203 15.9817 10.0749 15.9809 10.2378 15.9805C11.853 15.9992 11.853 15.9992 13.3667 15.4986C13.4109 15.4753 13.4552 15.4519 13.5008 15.4279C14.2737 15.0073 14.7937 14.3636 15.1333 13.5551C15.1533 13.5109 15.1732 13.4667 15.1938 13.4212C15.511 12.5837 15.4203 11.5039 15.0667 10.6979C14.6163 9.73334 13.9655 9.139 12.9867 8.70511C12.5528 8.54949 12.1228 8.47861 11.6667 8.43051C11.4907 8.41132 11.3147 8.39213 11.1333 8.37237C11.2433 7.99961 11.3533 7.62685 11.4667 7.2428Z" fill="black"/>
<path d="M8.44666 2.84925C8.52771 2.84931 8.60877 2.84937 8.69228 2.84944C8.73726 2.84938 8.78223 2.84932 8.82857 2.84926C8.98038 2.84915 9.13219 2.84952 9.284 2.84988C9.39238 2.8499 9.50076 2.84989 9.60915 2.84985C9.90431 2.84983 10.1995 2.85023 10.4946 2.85069C10.8028 2.8511 11.1109 2.85114 11.419 2.85122C12.0029 2.85143 12.5868 2.85197 13.1707 2.85264C13.8352 2.85338 14.4998 2.85375 15.1644 2.85408C16.5318 2.85478 17.8992 2.85595 19.2667 2.85743C19.2475 2.95853 19.228 3.05957 19.2083 3.16058C19.1921 3.24499 19.1921 3.24499 19.1755 3.33111C19.1267 3.55208 19.0624 3.76943 19 3.98699C15.744 4.00892 12.488 4.03085 9.13333 4.05344C8.55191 5.94643 7.97081 7.83927 7.40013 9.73546C7.31802 10.0083 7.23582 10.2811 7.15348 10.5538C7.11612 10.6777 7.0789 10.8016 7.04169 10.9255C7.01956 10.9988 6.99744 11.0721 6.97464 11.1476C6.9553 11.2119 6.93596 11.2761 6.91604 11.3423C6.86666 11.4953 6.86666 11.4953 6.8 11.6282C6.86204 11.6279 6.92409 11.6276 6.98802 11.6273C7.57266 11.6246 8.15729 11.6226 8.74194 11.6213C9.04251 11.6206 9.34308 11.6197 9.64365 11.6182C9.93369 11.6167 10.2237 11.6159 10.5138 11.6156C10.6245 11.6153 10.7351 11.6149 10.8458 11.6141C11.0008 11.6132 11.1558 11.613 11.3107 11.6131C11.3565 11.6126 11.4023 11.6121 11.4495 11.6117C11.6886 11.6127 11.8655 11.6268 12.0667 11.7611C12.2375 11.9719 12.2032 12.1771 12.1786 12.432C12.1114 12.6195 12.0434 12.661 11.8667 12.7578C11.6547 12.787 11.4442 12.7829 11.2305 12.7804C11.1661 12.7804 11.1017 12.7804 11.0353 12.7805C10.8225 12.7803 10.6097 12.7788 10.3969 12.7772C10.2493 12.7769 10.1017 12.7766 9.95409 12.7764C9.56567 12.7756 9.17726 12.7736 8.78884 12.7714C8.39248 12.7694 7.99611 12.7685 7.59974 12.7675C6.82204 12.7654 6.04435 12.762 5.26666 12.7578C5.34184 12.4063 5.42412 12.0604 5.52861 11.7162C5.55371 11.6331 5.5788 11.5501 5.60466 11.4645C5.63209 11.3745 5.65953 11.2845 5.68698 11.1945C5.71607 11.0985 5.74514 11.0025 5.7742 10.9065C5.85241 10.6482 5.9309 10.3901 6.00945 10.1319C6.09143 9.86236 6.1732 9.59273 6.25499 9.32311C6.3734 8.93286 6.49191 8.54265 6.61052 8.15246C6.81108 7.49265 7.01096 6.83264 7.21054 6.17253C7.30298 5.8669 7.39554 5.56131 7.48813 5.25573C7.56177 5.01266 7.63534 4.76958 7.70876 4.52646C7.77739 4.29925 7.84621 4.07211 7.9152 3.84501C7.95248 3.7221 7.98955 3.59912 8.02661 3.47614C8.04862 3.40382 8.07063 3.33151 8.09331 3.257C8.11242 3.19388 8.13154 3.13075 8.15123 3.06571C8.22164 2.86092 8.22277 2.85942 8.44666 2.84925Z" fill="black"/>
<path d="M52.6906 3.98474C58.9603 3.98474 58.9603 3.98474 60.0026 4.99971C60.7614 5.83687 61.0037 6.8196 60.9876 7.93975C60.9544 8.91409 60.5488 9.67845 59.8822 10.348C59.5025 10.702 59.0582 10.9201 58.598 11.1434C58.986 11.9122 59.3743 12.6808 59.7662 13.4475C59.9166 13.7421 60.0662 14.0372 60.215 14.3328C60.2497 14.4017 60.2845 14.4706 60.3202 14.5416C60.3879 14.6759 60.4554 14.8103 60.5229 14.9447C60.5692 15.0366 60.5692 15.0366 60.6163 15.1302C60.6435 15.1844 60.6707 15.2385 60.6987 15.2942C60.7577 15.4069 60.8213 15.5171 60.8877 15.6252C60.9738 15.7832 60.9738 15.7832 60.9738 15.9821C60.1262 15.9821 59.2786 15.9821 58.4053 15.9821C57.8305 14.8343 57.2567 13.6868 56.7017 12.5287C56.4915 12.0908 56.4915 12.0908 56.2615 11.6638C56.1579 11.4748 56.1579 11.4748 56.1579 11.3422C55.7977 11.3422 55.4375 11.3422 55.0664 11.3422C55.0664 12.8734 55.0664 14.4045 55.0664 15.9821C54.2823 15.9821 53.4983 15.9821 52.6906 15.9821C52.6906 12.023 52.6906 8.06384 52.6906 3.98474ZM55.0664 6.03954C55.0664 7.11134 55.0664 8.18315 55.0664 9.28744C55.6027 9.29564 55.6027 9.29564 56.1499 9.30401C56.2614 9.30642 56.3729 9.30883 56.4877 9.31132C57.1194 9.31923 57.5813 9.2457 58.1364 8.91459C58.4561 8.55636 58.6175 8.17669 58.6301 7.68834C58.5992 7.08028 58.4475 6.77103 58.016 6.35516C57.4092 5.97948 56.7336 6.01483 56.0496 6.02711C55.5629 6.03326 55.5629 6.03326 55.0664 6.03954Z" fill="black"/>
<path d="M44.1007 4.01221C44.9887 4.01221 45.8766 4.01221 46.7914 4.01221C46.9491 4.37839 47.1021 4.73997 47.2401 5.11347C47.2578 5.16079 47.2754 5.2081 47.2935 5.25685C47.3519 5.41368 47.41 5.5706 47.4681 5.72752C47.5104 5.84124 47.5526 5.95494 47.5948 6.06865C47.9807 7.10789 48.3633 8.14838 48.7459 9.18888C49.141 10.2634 49.5375 11.3374 49.9346 12.4111C49.962 12.4851 49.9894 12.5591 50.0176 12.6354C50.0974 12.8513 50.1773 13.0673 50.2572 13.2832C50.2955 13.3867 50.2955 13.3867 50.3345 13.4923C50.4732 13.8671 50.6128 14.2414 50.7534 14.6154C50.7832 14.6947 50.8129 14.774 50.8436 14.8557C50.9011 15.0087 50.9587 15.1616 51.0165 15.3145C51.0421 15.3828 51.0678 15.451 51.0941 15.5214C51.1169 15.5818 51.1397 15.6422 51.1632 15.7044C51.2119 15.85 51.2119 15.85 51.2119 15.9822C50.3874 15.9822 49.5629 15.9822 48.7134 15.9822C48.5572 15.6195 48.4098 15.27 48.2779 14.8996C48.2627 14.8567 48.2474 14.8138 48.2316 14.7696C48.1999 14.6804 48.1683 14.5911 48.1367 14.5017C48.0882 14.3647 48.0393 14.2278 47.9904 14.0909C47.9594 14.0036 47.9285 13.9163 47.8976 13.829C47.8697 13.7504 47.8418 13.6718 47.813 13.5907C47.7524 13.4031 47.7524 13.4031 47.7524 13.2708C46.2091 13.2708 44.6658 13.2708 43.0757 13.2708C43.0123 13.5108 42.9488 13.7509 42.8835 13.9982C42.8282 14.1674 42.7708 14.3359 42.7106 14.5033C42.6824 14.582 42.6543 14.6608 42.6253 14.7419C42.5903 14.8389 42.5552 14.9358 42.5191 15.0357C42.4068 15.3481 42.2945 15.6604 42.1788 15.9822C41.3754 15.9822 40.572 15.9822 39.7443 15.9822C39.8164 15.5358 39.8164 15.5358 39.8953 15.3218C39.9219 15.2489 39.9219 15.2489 39.949 15.1745C39.9684 15.1224 39.9878 15.0703 40.0078 15.0166C40.0284 14.9605 40.049 14.9044 40.0702 14.8467C40.1387 14.6602 40.2078 14.4739 40.2769 14.2876C40.3259 14.1546 40.3748 14.0217 40.4238 13.8887C40.5811 13.4621 40.7392 13.0357 40.8975 12.6095C40.9234 12.5397 40.9493 12.4699 40.976 12.3979C41.2933 11.5433 41.6118 10.689 41.9307 9.83498C42.2134 9.078 42.4955 8.32079 42.7775 7.56356C42.9058 7.21935 43.034 6.87514 43.1623 6.53093C43.2108 6.4008 43.2592 6.27066 43.3077 6.14053C43.5721 5.43109 43.8364 4.72165 44.1007 4.01221ZM45.382 6.72365C45.3692 6.76024 45.3564 6.79683 45.3433 6.83453C45.2082 7.22088 45.073 7.6072 44.9378 7.99351C44.8876 8.13702 44.8374 8.28055 44.7872 8.42408C44.7144 8.63228 44.6416 8.84046 44.5687 9.04863C44.545 9.11626 44.5214 9.1839 44.497 9.25358C44.3905 9.55728 44.2831 9.8605 44.1716 10.1623C44.1535 10.2115 44.1353 10.2606 44.1166 10.3113C44.0689 10.4397 44.0208 10.5679 43.9726 10.6961C43.8982 10.8872 43.8982 10.8872 43.9085 11.0884C44.9233 11.0884 45.9381 11.0884 46.9836 11.0884C46.4879 9.62632 45.9791 8.17162 45.4461 6.72365C45.4249 6.72365 45.4038 6.72365 45.382 6.72365Z" fill="black"/>
<path d="M28.2436 4.79242C28.9023 5.33998 29.3931 6.01259 29.5613 6.8841C29.5613 6.94691 29.5613 7.00972 29.5613 7.07443C29.3121 7.15621 29.0629 7.23752 28.8135 7.31839C28.7287 7.34595 28.644 7.37365 28.5593 7.40147C28.4374 7.4415 28.3153 7.48106 28.1932 7.52053C28.1199 7.54445 28.0465 7.56837 27.9709 7.59302C27.7795 7.64543 27.7795 7.64543 27.5337 7.64543C27.5188 7.60405 27.5039 7.56267 27.4886 7.52003C27.2528 6.88513 27.0223 6.55853 26.4277 6.24966C25.8711 6.01105 25.224 6.05781 24.6735 6.29179C24.3245 6.48839 24.0921 6.74577 23.9701 7.13788C23.9255 7.50073 23.9146 7.87143 24.1299 8.17788C24.5029 8.62028 25.0395 8.69135 25.5714 8.79139C25.7318 8.82356 25.8921 8.85649 26.0524 8.88929C26.1285 8.90461 26.2045 8.91993 26.2829 8.93572C27.4083 9.16505 28.504 9.56027 29.2001 10.5609C29.5562 11.1572 29.719 11.7284 29.711 12.4275C29.7105 12.4858 29.71 12.5441 29.7095 12.6041C29.6879 13.5037 29.3398 14.2154 28.7433 14.8662C27.8563 15.7342 26.6953 16.0237 25.5061 16.0201C24.3273 15.9791 23.197 15.6252 22.321 14.7732C21.6957 14.0715 21.3364 13.2935 21.2667 12.3403C21.4714 12.2794 21.6762 12.2186 21.8811 12.1579C21.9385 12.1408 21.9959 12.1237 22.0551 12.1061C22.2222 12.0566 22.3895 12.0081 22.5569 11.9596C22.6035 11.9455 22.6501 11.9313 22.6981 11.9167C22.9386 11.8473 23.1149 11.8185 23.3557 11.8962C23.3654 11.9407 23.3752 11.9852 23.3852 12.031C23.5424 12.6911 23.7931 13.1493 24.3387 13.5457C24.9789 13.9045 25.7286 13.9825 26.4397 13.8174C26.832 13.6638 27.1315 13.4653 27.3417 13.0818C27.4529 12.7052 27.4643 12.4262 27.3071 12.0707C27.0816 11.6567 26.7255 11.4787 26.3049 11.3252C25.922 11.2303 25.5349 11.1582 25.1475 11.0856C23.9728 10.8631 22.8509 10.4754 22.1268 9.42187C21.6862 8.60937 21.563 7.69613 21.7412 6.78348C21.7981 6.5984 21.8635 6.42576 21.9425 6.24966C21.9641 6.19993 21.9856 6.15021 22.0078 6.09898C22.4379 5.2107 23.2578 4.54708 24.1544 4.21944C25.4798 3.79197 27.1124 3.92825 28.2436 4.79242Z" fill="black"/>
<path d="M68.5632 4.87108C68.6081 4.90857 68.653 4.94605 68.6992 4.98467C68.7562 5.03207 68.7562 5.03207 68.8143 5.08043C69.3804 5.6093 69.6333 6.32312 69.793 7.07517C69.5467 7.15683 69.3001 7.23801 69.0535 7.31876C68.9696 7.34628 68.8858 7.37394 68.802 7.40172C68.6814 7.44169 68.5607 7.48118 68.44 7.52059C68.3674 7.54448 68.2949 7.56836 68.2201 7.59297C68.0307 7.64531 68.0307 7.64531 67.7877 7.64531C67.7758 7.60619 67.7639 7.56708 67.7516 7.52678C67.5868 7.04027 67.3494 6.622 66.9139 6.35211C66.3392 6.07772 65.7236 6.01723 65.1176 6.23184C64.7398 6.39672 64.4912 6.57242 64.2973 6.96035C64.1737 7.28359 64.1793 7.56435 64.2631 7.8987C64.423 8.25218 64.6636 8.42758 64.9923 8.59554C65.221 8.66873 65.4521 8.71393 65.6873 8.75787C65.8174 8.78426 65.9474 8.81074 66.0774 8.8373C66.1408 8.84997 66.2043 8.86264 66.2697 8.87569C67.2155 9.06687 68.0424 9.30678 68.8207 9.92586C68.8746 9.96375 68.9285 10.0016 68.9841 10.0407C69.5279 10.5769 69.8817 11.3501 69.9291 12.1272C69.9569 13.2366 69.6433 14.0951 68.9105 14.9101C68.0513 15.7492 66.9239 16.0109 65.7823 16.0073C64.5599 15.9644 63.4314 15.5791 62.5452 14.6721C61.9815 14.0433 61.5732 13.2013 61.5892 12.3331C61.8509 12.2552 62.1127 12.1772 62.3744 12.0993C62.4306 12.0825 62.4868 12.0658 62.5447 12.0485C62.6274 12.0241 62.6274 12.0241 62.7118 11.9991C62.8052 11.9711 62.8984 11.9424 62.9912 11.9124C63.1986 11.8459 63.3774 11.8126 63.5946 11.8263C63.6116 11.8883 63.6286 11.9503 63.6461 12.0141C63.8374 12.6791 64.0673 13.2492 64.6804 13.6003C65.3414 13.9221 66.1336 13.9914 66.8306 13.7426C67.135 13.6051 67.3485 13.4689 67.5294 13.1725C67.6698 12.7918 67.7044 12.5213 67.5826 12.1351C67.4257 11.776 67.2185 11.605 66.8761 11.4462C66.4026 11.274 65.9106 11.1809 65.42 11.0787C64.2692 10.8377 63.1791 10.5002 62.4571 9.45842C61.9823 8.68323 61.8545 7.78288 62.0274 6.88166C62.2109 6.16789 62.53 5.61245 63.0477 5.11136C63.079 5.07764 63.1104 5.04391 63.1426 5.00916C64.5294 3.60401 67.0817 3.71592 68.5632 4.87108Z" fill="black"/>
<path d="M30.3516 3.98474C33.5228 3.98474 36.694 3.98474 39.9613 3.98474C39.9613 4.72675 39.9613 5.46876 39.9613 6.23325C38.7563 6.23325 37.5512 6.23325 36.3096 6.23325C36.3096 9.44135 36.3096 12.6494 36.3096 15.9548C35.5486 15.9548 34.7875 15.9548 34.0033 15.9548C34.0033 12.7467 34.0033 9.53857 34.0033 6.23325C32.7983 6.23325 31.5932 6.23325 30.3516 6.23325C30.3516 5.49124 30.3516 4.74924 30.3516 3.98474Z" fill="black"/>
</svg>
