<svg width="100" height="100" viewBox="0 0 100 100" fill="none" xmlns="http://www.w3.org/2000/svg">
<g clip-path="url(#clip0_2437_1490)">
<path d="M9.01549 72.6908C9.01549 74.1061 7.86785 74.995 6.4914 74.995C5.11496 74.995 4 74.1061 4 72.6908V54.1229C4 52.8061 5.04837 51.752 6.36066 51.752H16.3577C17.5708 51.752 18.3564 52.7405 18.3564 53.9576C18.3564 55.1747 17.5708 56.1304 16.3577 56.1304H9.01549V61.135H14.8445C16.0575 61.135 16.8444 62.2536 16.8444 63.4063C16.8444 64.5589 16.0575 65.6119 14.8445 65.6119H9.01549V72.6908Z" fill="black"/>
<path d="M26.2176 74.9953C21.5641 74.9953 18.4492 71.209 18.4492 66.1387C18.4492 59.9498 23.0386 57.3818 26.7418 57.3818C29.3639 57.3818 30.7404 58.6002 30.7404 58.6002C31.0685 57.8427 31.9861 57.3818 32.9376 57.3818C34.2814 57.3818 35.3951 58.2707 35.3951 59.6531V72.7228C35.3951 74.1052 34.2802 74.994 32.9376 74.994C31.9207 74.994 31.1338 74.5989 30.7089 73.6772C30.7089 73.6772 29.2344 74.994 26.2176 74.994V74.9953ZM30.4789 69.8593V62.1554C29.9874 61.9913 29.0371 61.6946 27.8567 61.6946C25.3 61.6946 23.4635 63.3738 23.4635 66.1059C23.4635 68.5425 24.6438 70.3201 27.2333 70.4515C28.9705 70.55 29.9862 70.122 30.4777 69.8581L30.4789 69.8593Z" fill="black"/>
<path d="M37.8857 59.6531C37.8857 58.2707 38.968 57.3818 40.3118 57.3818C41.2621 57.3818 42.279 57.8098 42.6397 58.864C43.3939 58.0409 45.1312 57.3818 46.4749 57.3818C48.4409 57.3818 49.8839 58.0737 50.9977 59.1266C51.948 58.4688 53.8825 57.3818 55.9151 57.3818C60.013 57.3818 62.7332 60.0811 62.7332 63.7033V72.724C62.7332 74.1064 61.6521 74.9953 60.3072 74.9953C58.9622 74.9953 57.8496 74.1064 57.8496 72.724V64.9544C57.8496 62.8473 56.8013 61.7943 55.0629 61.6958C54.0145 61.663 53.293 61.9925 52.6707 62.3208C52.7688 62.7488 52.8015 63.2753 52.8015 63.7033V72.724C52.8015 74.1064 51.7204 74.9953 50.344 74.9953C48.9675 74.9953 47.9179 74.1064 47.9179 72.724V64.9544C47.9179 62.8473 46.8696 61.7943 45.0985 61.6958C44.1142 61.663 43.3613 61.9925 42.7705 62.3208V72.724C42.7705 74.1064 41.6882 74.9953 40.3118 74.9953C38.9353 74.9953 37.8857 74.1064 37.8857 72.724V59.6543V59.6531Z" fill="black"/>
<path d="M67.7457 51.2227C69.156 51.2227 70.3352 52.4082 70.3352 53.8235C70.3352 55.2388 69.156 56.3914 67.7457 56.3914C66.3354 56.3914 65.1562 55.2388 65.1562 53.8235C65.1562 52.4082 66.3366 51.2227 67.7457 51.2227ZM65.2216 59.6512C65.2216 58.2688 66.3366 57.3799 67.6791 57.3799C69.0217 57.3799 70.1378 58.2688 70.1378 59.6512V72.7209C70.1378 74.1033 69.0229 74.9921 67.6791 74.9921C66.3354 74.9921 65.2216 74.1033 65.2216 72.7209V59.6512Z" fill="black"/>
<path d="M79.183 70.2515C80.5594 70.2515 81.4117 71.3044 81.4117 72.6212C81.4117 73.9381 80.5594 74.9922 79.183 74.9922H78.3307C74.004 74.9922 72.791 72.1604 72.791 68.5395V52.407C72.791 51.0246 73.906 50.1357 75.2497 50.1357C76.5935 50.1357 77.7072 51.0246 77.7072 52.407V69.1316C77.7072 70.0861 78.2968 70.2515 78.7241 70.2515H79.183Z" fill="black"/>
<path d="M80.6148 60.2748C80.156 59.155 81.1063 57.8382 82.2866 57.5086C83.4658 57.1463 84.6788 57.7397 85.1061 58.8923L88.1544 67.3525L91.3673 58.8595C91.8261 57.6412 93.0064 57.1475 94.2521 57.5099C95.4978 57.8722 96.3501 59.0249 95.8586 60.276L88.4183 79.6671C87.9595 80.9182 86.6145 81.2806 85.4354 80.7869C84.2224 80.2604 83.6316 79.0093 84.1231 77.7253L85.8603 73.2155L80.616 60.2772L80.6148 60.2748Z" fill="black"/>
<path d="M9.01549 72.6908C9.01549 74.1061 7.86785 74.995 6.4914 74.995C5.11496 74.995 4 74.1061 4 72.6908V54.1229C4 52.8061 5.04837 51.752 6.36066 51.752H16.3577C17.5708 51.752 18.3564 52.7405 18.3564 53.9576C18.3564 55.1747 17.5708 56.1304 16.3577 56.1304H9.01549V61.135H14.8445C16.0575 61.135 16.8444 62.2536 16.8444 63.4063C16.8444 64.5589 16.0575 65.6119 14.8445 65.6119H9.01549V72.6908Z" fill="black"/>
<path d="M26.2176 74.9953C21.5641 74.9953 18.4492 71.209 18.4492 66.1387C18.4492 59.9498 23.0386 57.3818 26.7418 57.3818C29.3639 57.3818 30.7404 58.6002 30.7404 58.6002C31.0685 57.8427 31.9861 57.3818 32.9376 57.3818C34.2814 57.3818 35.3951 58.2707 35.3951 59.6531V72.7228C35.3951 74.1052 34.2802 74.994 32.9376 74.994C31.9207 74.994 31.1338 74.5989 30.7089 73.6772C30.7089 73.6772 29.2344 74.994 26.2176 74.994V74.9953ZM30.4789 69.8593V62.1554C29.9874 61.9913 29.0371 61.6946 27.8567 61.6946C25.3 61.6946 23.4635 63.3738 23.4635 66.1059C23.4635 68.5425 24.6438 70.3201 27.2333 70.4515C28.9705 70.55 29.9862 70.122 30.4777 69.8581L30.4789 69.8593Z" fill="black"/>
<path d="M37.8857 59.6531C37.8857 58.2707 38.968 57.3818 40.3118 57.3818C41.2621 57.3818 42.279 57.8098 42.6397 58.864C43.3939 58.0409 45.1312 57.3818 46.4749 57.3818C48.4409 57.3818 49.8839 58.0737 50.9977 59.1266C51.948 58.4688 53.8825 57.3818 55.9151 57.3818C60.013 57.3818 62.7332 60.0811 62.7332 63.7033V72.724C62.7332 74.1064 61.6521 74.9953 60.3072 74.9953C58.9622 74.9953 57.8496 74.1064 57.8496 72.724V64.9544C57.8496 62.8473 56.8013 61.7943 55.0629 61.6958C54.0145 61.663 53.293 61.9925 52.6707 62.3208C52.7688 62.7488 52.8015 63.2753 52.8015 63.7033V72.724C52.8015 74.1064 51.7204 74.9953 50.344 74.9953C48.9675 74.9953 47.9179 74.1064 47.9179 72.724V64.9544C47.9179 62.8473 46.8696 61.7943 45.0985 61.6958C44.1142 61.663 43.3613 61.9925 42.7705 62.3208V72.724C42.7705 74.1064 41.6882 74.9953 40.3118 74.9953C38.9353 74.9953 37.8857 74.1064 37.8857 72.724V59.6543V59.6531Z" fill="black"/>
<path d="M67.7457 51.2227C69.156 51.2227 70.3352 52.4082 70.3352 53.8235C70.3352 55.2388 69.156 56.3914 67.7457 56.3914C66.3354 56.3914 65.1562 55.2388 65.1562 53.8235C65.1562 52.4082 66.3366 51.2227 67.7457 51.2227ZM65.2216 59.6512C65.2216 58.2688 66.3366 57.3799 67.6791 57.3799C69.0217 57.3799 70.1378 58.2688 70.1378 59.6512V72.7209C70.1378 74.1033 69.0229 74.9921 67.6791 74.9921C66.3354 74.9921 65.2216 74.1033 65.2216 72.7209V59.6512Z" fill="black"/>
<path d="M79.183 70.2515C80.5594 70.2515 81.4117 71.3044 81.4117 72.6212C81.4117 73.9381 80.5594 74.9922 79.183 74.9922H78.3307C74.004 74.9922 72.791 72.1604 72.791 68.5395V52.407C72.791 51.0246 73.906 50.1357 75.2497 50.1357C76.5935 50.1357 77.7072 51.0246 77.7072 52.407V69.1316C77.7072 70.0861 78.2968 70.2515 78.7241 70.2515H79.183Z" fill="black"/>
<path d="M80.6148 60.2748C80.156 59.155 81.1063 57.8382 82.2866 57.5086C83.4658 57.1463 84.6788 57.7397 85.1061 58.8923L88.1544 67.3525L91.3673 58.8595C91.8261 57.6412 93.0064 57.1475 94.2521 57.5099C95.4978 57.8722 96.3501 59.0249 95.8586 60.276L88.4183 79.6671C87.9595 80.9182 86.6145 81.2806 85.4354 80.7869C84.2224 80.2604 83.6316 79.0093 84.1231 77.7253L85.8603 73.2155L80.616 60.2772L80.6148 60.2748Z" fill="black"/>
<path d="M49.9663 19C40.4716 19 32.7734 26.7306 32.7734 36.2681C32.7734 45.8056 40.4704 53.5362 49.9663 53.5362C59.4622 53.5362 67.1592 45.8056 67.1592 36.2681C67.1592 26.7306 59.4622 19 49.9663 19ZM53.7615 44.4997C53.6949 44.5714 53.6296 44.6383 53.563 44.7028C53.4298 44.8304 53.2966 44.9435 53.1623 45.0456C52.8935 45.2487 52.6211 45.4068 52.3403 45.5417C52.2701 45.5758 52.1998 45.6074 52.1284 45.639C52.0219 45.6852 51.9129 45.7302 51.804 45.7727C51.695 45.8153 51.5837 45.8579 51.4711 45.8992C51.3573 45.9357 51.2411 45.9673 51.1236 45.9952C50.7713 46.0791 50.4057 46.1266 50.0389 46.1436C49.7823 46.1545 49.5244 46.1497 49.2702 46.1266C49.0789 46.1095 48.8901 46.0828 48.7036 46.0463C48.5802 46.022 48.4567 45.994 48.3368 45.9612C47.9143 45.8457 47.5148 45.6779 47.1589 45.4542C47.0839 45.4043 46.9858 45.3399 46.8708 45.2572C46.7183 45.1466 46.5355 45.0043 46.3394 44.8183C46.2413 44.7246 46.1396 44.6213 46.0367 44.5046C45.9338 44.3878 45.8297 44.2602 45.7256 44.1179C45.6215 43.9757 45.5186 43.82 45.4181 43.6498C45.268 43.3945 45.1227 43.1063 44.9908 42.7792L40.727 30.6896V41.7068L40.8275 41.4089L42.3274 37.0682L44.3637 42.8643C44.2305 43.5136 43.9182 44.1155 43.5017 44.6225C43.4497 44.6857 43.3964 44.7477 43.3407 44.8085C43.2306 44.9289 43.1131 45.0444 42.9921 45.1514C42.8105 45.3131 42.6168 45.4578 42.417 45.5843C42.2839 45.6694 42.1471 45.7448 42.0091 45.8129C41.9183 45.8554 41.8263 45.8919 41.7343 45.9259C41.549 45.9928 41.3602 46.0439 41.1701 46.0791C41.0745 46.0974 40.9788 46.1108 40.8832 46.1205C40.7682 46.1326 40.6532 46.1399 40.5382 46.1424C40.192 46.1485 39.8469 46.1059 39.5104 46.0244C39.1738 45.943 38.847 45.8202 38.5383 45.6645C38.4354 45.6122 38.3349 45.5563 38.2356 45.4979C38.0964 45.3922 37.9705 45.2852 37.8555 45.1757C37.3955 44.7356 37.1195 44.2504 36.9609 43.6316C36.8422 43.1671 36.789 42.6284 36.7745 41.9767V30.1133C36.8205 29.4226 37.002 28.8427 37.2647 28.3599C37.289 28.3162 37.3132 28.2724 37.3386 28.2311C37.3894 28.1459 37.4427 28.0645 37.4984 27.9867C37.6921 27.7119 37.9136 27.4748 38.1497 27.2705C38.5189 26.9507 38.9233 26.7136 39.307 26.5446C39.79 26.3647 40.0164 26.3258 40.5902 26.3258C40.8348 26.3258 41.0963 26.3476 41.3626 26.3975C41.4958 26.4218 41.6301 26.4534 41.7657 26.4923C42.4388 26.6869 43.1107 27.065 43.6107 27.7058C43.6882 27.7824 43.7826 27.9259 43.8831 28.1022C43.9835 28.2785 44.0901 28.49 44.1918 28.7028C44.2644 28.8548 44.3334 29.0068 44.3964 29.1466C44.4218 29.2026 44.446 29.2573 44.4678 29.3096C44.5925 29.5941 44.676 29.8008 44.676 29.8008L48.7593 40.6854C48.901 41.032 49.1165 41.2897 49.3658 41.4575C49.5317 41.5694 49.7121 41.6411 49.8961 41.6727C49.9263 41.6776 49.9578 41.6825 49.9881 41.6849C50.022 41.6886 50.0559 41.691 50.0898 41.6922C50.3936 41.7019 50.6951 41.5974 50.9396 41.3761C51.1018 41.2277 51.2386 41.0283 51.3331 40.7754L52.5788 37.3381L54.7554 43.0893C54.4213 43.6899 54.0932 44.1459 53.7627 44.5033L53.7615 44.4997ZM62.6412 44.2225C62.5916 44.3064 62.5395 44.3866 62.4851 44.4644C62.4584 44.5033 62.4306 44.541 62.4015 44.5787C62.1195 44.9532 61.7853 45.2536 61.4379 45.4907C61.4028 45.515 61.3677 45.5381 61.3326 45.56C61.1219 45.6949 60.9077 45.8068 60.6982 45.8992C60.5348 45.9551 60.4004 45.9977 60.2745 46.0305C60.0493 46.0877 59.8544 46.112 59.5748 46.1181C59.513 46.1193 59.4465 46.1205 59.375 46.1205C59.3133 46.1241 59.2516 46.1253 59.1886 46.1241C58.685 46.1205 58.1378 46.0025 57.616 45.7521C57.5507 45.7205 57.4865 45.6876 57.4223 45.6524C57.0374 45.4408 56.6706 45.1526 56.3546 44.783C56.3098 44.738 56.2602 44.6711 56.2069 44.5897C56.1803 44.5483 56.1524 44.5033 56.1246 44.4559C55.759 43.8334 55.2917 42.6856 55.2917 42.6856L51.2035 31.7644C51.097 31.4799 50.9372 31.2538 50.7483 31.0872C50.6939 31.0398 50.6382 30.9972 50.5801 30.9595C50.4929 30.9024 50.4009 30.8574 50.3065 30.8221C50.1806 30.7759 50.051 30.7492 49.9215 30.7419C49.8888 30.7407 49.8573 30.7407 49.8247 30.7419C49.7932 30.7419 49.7605 30.7455 49.729 30.7492C49.6975 30.7528 49.6661 30.7577 49.6346 30.7638C49.5402 30.782 49.4482 30.8124 49.3598 30.855C49.2121 30.9243 49.0753 31.0264 48.9591 31.1614C48.8429 31.2963 48.7448 31.4641 48.677 31.666L48.0293 33.384L47.3817 35.1021L46.2946 32.2472L45.2075 29.3922C45.475 28.9107 45.7389 28.5204 46.0028 28.197C46.0694 28.1168 46.1348 28.0402 46.2014 27.9672C46.2679 27.8943 46.3345 27.8262 46.4011 27.7605C46.4338 27.7277 46.4677 27.6961 46.5016 27.6657C46.5682 27.6037 46.6347 27.5453 46.7025 27.4906C47.2727 27.0212 47.8599 26.7744 48.4954 26.5385C48.7242 26.4656 48.9603 26.4096 49.2012 26.3683C49.4421 26.327 49.6879 26.3027 49.936 26.2941C50.0414 26.2929 50.1576 26.2941 50.2653 26.2941H50.3307C50.5534 26.3027 50.7738 26.3233 50.9929 26.3561C51.3197 26.406 51.6406 26.4826 51.9444 26.5872C52.2483 26.6917 52.5364 26.8243 52.8003 26.9835C52.9262 27.0674 53.1163 27.1951 53.3414 27.3836C53.431 27.459 53.5267 27.5441 53.6247 27.6401C53.6744 27.6888 53.724 27.7386 53.7748 27.7921C53.9782 28.0073 54.1913 28.2675 54.3971 28.5824C54.4491 28.6615 54.5 28.7429 54.5508 28.8293C54.7021 29.087 54.8486 29.3764 54.9806 29.7023L59.283 41.7445V30.7771L59.2201 30.962L57.6439 35.4133L55.5956 29.6147C55.6537 29.3643 55.7336 29.1211 55.8328 28.8876C56.0314 28.422 56.3062 27.9964 56.633 27.6316C56.7965 27.4492 56.9732 27.2814 57.1597 27.1307C57.2214 27.0808 57.2855 27.0322 57.3497 26.986C57.5422 26.8474 57.7444 26.727 57.9526 26.6273C58.363 26.4315 58.8024 26.3282 59.2407 26.3026C59.4065 26.2917 59.5724 26.2929 59.7382 26.3026C59.8484 26.3099 59.9585 26.3221 60.0675 26.3379C60.122 26.3464 60.1765 26.3549 60.2309 26.3659C60.3387 26.3865 60.4464 26.4121 60.5517 26.44C60.7103 26.4838 60.8665 26.5373 61.0178 26.5993C61.1195 26.6407 61.2188 26.6857 61.3156 26.7355C61.4609 26.8097 61.6025 26.8911 61.7369 26.9811C61.8749 27.0808 62.0008 27.1842 62.1146 27.2912C62.2284 27.3982 62.3325 27.5088 62.4245 27.6243C62.6558 27.9137 62.824 28.2347 62.9414 28.6019C62.9887 28.749 63.0286 28.9034 63.0613 29.0664C63.1109 29.3108 63.1436 29.5746 63.1654 29.8604C63.1799 30.0512 63.1896 30.2519 63.1945 30.4634V42.3658C63.1448 43.1026 62.939 43.7142 62.6412 44.2164V44.2225Z" fill="black"/>
</g>
<defs>
<clipPath id="clip0_2437_1490">
<rect width="100" height="100" fill="black"/>
</clipPath>
</defs>
</svg>
