<?xml version="1.0" encoding="UTF-8" standalone="no"?>
<svg height="203.153" viewBox="0 0 480.00071 203.153" width="480.0007" xmlns="http://www.w3.org/2000/svg">
   <path d="m22.660128 0c5.911338 0 13.201989 2.167491 17.93106 8.275874 2.167491 2.167491 6.305427 12.413811 6.305427 12.413811l24.236488 64.433589c3.152714 7.684741 12.610856 8.275874 15.36948.591134l7.487696-20.295595 12.807901 33.891674c-6.30543 11.428583-12.413812 14.187213-19.507418 16.945833-8.275874 2.56158-18.325149 1.77341-25.6158-2.75862-2.364536-1.57636-8.669963-5.51725-12.8079-15.960615l-25.615801-71.527196v65.024724l9.655187-27.586246 12.413811 34.482808c-1.773402 7.881785-7.487696 14.384255-14.187213 17.536975-7.290651 3.34975-15.960616 2.16749-22.463086-1.97045-6.50247-4.72907-8.47292-10.44336-8.66996-20.492641v-70.344928c.78818-11.822677 8.27587-18.128105 14.77834-20.886729 3.15272-1.379313 4.334984-1.576357 7.881788-1.773402zm111.921342 117.43859c-5.91134 0-13.20199-2.16749-17.93106-8.07883-2.36454-2.16749-6.30543-12.413808-6.30543-12.413808l-24.43353-64.43359c-3.152714-7.68474-12.610856-8.275874-15.369481-.591134l-7.487695 20.295596-12.8079-33.891675c6.305428-11.428587 12.413811-14.187212 19.507417-16.748792 8.275874-2.56158 18.325149-1.773402 25.6158 2.758625 2.364536 1.576357 8.669959 5.714293 12.807899 15.960614l25.6158 71.527195v-65.024723l-9.65518 27.586246-12.21677-34.679852c1.7734-7.881785 7.48769-14.384257 14.18721-17.536971 7.29065-3.349759 15.96062-2.167491 22.46309 1.970446 6.50247 4.926115 8.27587 10.640409 8.66996 20.689685l-.19704 70.344928c-.78818 11.82268-8.27588 18.12811-14.77835 20.88673-2.95567 1.18227-4.33498 1.37931-7.68474 1.37931z" fill="#010101" stroke-width="1.97044611"/>
   <g fill="#010101" transform="scale(1.9704462)">
      <path d="m123.8 1.1l19.3 57.6h-14.1l-4-12.5h-18.2l-4 12.5h-14.2l19.2-57.6zm-13.4 33.4h10.9l-5-15.2h-.8z"/>
      <path d="m169.7 1.1c12.2 0 18.9 4.4 18.9 14.5 0 5.8-2.5 10.6-7 12.7 5.2 1.7 8.6 6.1 8.6 13.3 0 11-7.3 17.1-20.9 17.1h-23.2v-57.6zm-10 21.8h9.5c3.8 0 6-1.9 6-5.6 0-3.4-2.1-5-5.8-5h-9.7zm0 24.1h9.7c4.5 0 7.2-2 7.2-6.1.2-4.4-2.9-6.3-7.4-6.3h-9.5z"/>
      <path d="m232.3 22.3c-.9-5.1-5.4-10.2-12.2-10.2-7.5 0-13.5 5.2-13.5 17.4 0 9.5 4.2 17.9 13.3 17.9 5.8 0 10.4-3.5 12-9.3l11.6 5.1c-3.2 8.9-12.5 16.6-25.5 16-16-.8-25-12-25-29.2 0-19.8 11.8-28.8 25.6-29.3 13.5-.5 22.4 7.2 25 16.2 0 .1-11.2 5.3-11.3 5.4z"/>
   </g>
   <g transform="scale(1.9704462)">
      <path d="m18.6 69l12.4 33.7h-4.3l-3.2-9h-15.3l-3.2 9h-4.3l12.5-33.7zm-9.2 21.3h12.8l-6.1-16.7h-.4z"/>
      <path d="m38.6 69v21.3c0 6 3.1 9.3 8.4 9.3 5.4 0 8.4-3.3 8.4-9.3v-21.3h4.1v21.1c0 9.2-5.4 13-12.5 13-7.1 0-12.5-3.9-12.5-12.9v-21.2z"/>
      <path d="m87.2 75c0 0-5.2-2.8-9.9-2.8-4.2 0-7.3 1.3-7.3 4.9 0 7.9 19.6 4.4 19.6 15.9 0 6.6-5.4 10.1-12.4 10.1-7.9 0-12.6-4-12.6-4l2.1-3.2c0 0 4.4 3.7 10.4 3.7 5.1 0 8.3-2.6 8.4-6.2 0-8-19.6-5-19.6-16 0-5.8 4.5-8.6 11.4-8.6 6 0 11.6 3 11.6 3z"/>
      <path d="m116.3 69l-.3 3.4h-9.6v30.4h-4.1v-30.4h-9.8v-3.4z"/>
      <path d="m131.5 69c6.7 0 12 3.3 11.9 10.6-.1 4.9-2.7 8.1-6.6 9.5l7.4 13.6h-4.8l-6.5-12.7c-.7.1-1.9.2-2.7.2h-5.9v12.5h-4.1v-33.7zm-7.3 17.8h6.7c5.3 0 8.2-3 8.3-7.3.1-4.1-2.4-7.1-7.9-7.1h-7.1z"/>
      <path d="m165 69l12.3 33.7h-4.3l-3.2-9h-15.3l-3.2 9h-4.3l12.6-33.7zm-9.2 21.3h12.8l-6.1-16.7h-.4z"/>
      <path d="m186.1 69v30.3h14.8v3.5h-18.9v-33.8z"/>
      <path d="m208.4 69v33.7h-4.1v-33.7z"/>
      <path d="m231 69l12.3 33.7h-4.3l-3.2-9h-15.3l-3.2 9h-4.3l12.6-33.7zm-9.2 21.3h12.8l-6.1-16.7h-.4z"/>
   </g>
</svg>
