<svg width="100" height="24" viewBox="0 0 100 24" fill="none" xmlns="http://www.w3.org/2000/svg">
<g clip-path="url(#clip0_927_8863)">
<path d="M67.1453 0V5.16602C65.0539 1.92755 61.0091 0 55.0065 0H46.1233V5.14877C44.0319 1.92324 39.9914 0 34.0017 0H25.1186V18.5942L17.3394 0H9.70677L0 23.1953H8.22768L9.41354 20.1035H17.473L18.6891 23.1953H33.7344C39.8663 23.1953 43.9974 21.1125 46.1276 17.7533V23.1953H54.7434C60.884 23.1953 65.0194 21.1082 67.1453 17.7361V23.1953H74.8987V0H67.1453ZM11.3497 14.6399L13.4541 9.047L15.5584 14.6399H11.3454H11.3497ZM39.9957 11.63C39.9957 14.9763 37.7102 16.4338 34.1613 16.4338H32.8676V6.76154H34.1613C37.7059 6.76154 39.9957 8.21906 39.9957 11.5653V11.63ZM61.0047 11.63C61.0047 14.9763 58.7193 16.4338 55.1703 16.4338H53.8767V6.76154H55.1703C58.715 6.76154 61.0047 8.21906 61.0047 11.5653V11.63Z" fill="black"/>
<path d="M90.9747 0L84.86 8.6934V0H77.0938V23.2298H84.86V18.2837L86.8523 15.8603L90.716 23.2298H99.9743L92.2253 10.0862L100 0H90.9747Z" fill="black"/>
</g>
<defs>
<clipPath id="clip0_927_8863">
<rect width="100" height="24" fill="black"/>
</clipPath>
</defs>
</svg>
