<?xml version="1.0" encoding="UTF-8"?>
<!DOCTYPE svg PUBLIC "-//W3C//DTD SVG 1.1//EN" "http://www.w3.org/Graphics/SVG/1.1/DTD/svg11.dtd">
<!-- Creator: CorelDRAW -->
<svg xmlns="http://www.w3.org/2000/svg" xml:space="preserve" width="2400px" height="2100px" style="shape-rendering:geometricPrecision; text-rendering:geometricPrecision; image-rendering:optimizeQuality; fill-rule:evenodd; clip-rule:evenodd"
viewBox="0 0 2400 2254.72"
 xmlns:xlink="http://www.w3.org/1999/xlink">
 <defs>
  <style type="text/css">
   <![CDATA[
    .fil0 {fill:#FCBA04}
   ]]>
  </style>
 </defs>
 <g id="Layer_x0020_1">
  <metadata id="CorelCorpID_0Corel-Layer"/>
  <path class="fil0" d="M2220.54 1364.07c0,72.7988 -275.368,327.738 -438.454,421.895 -231.707,133.777 -617.402,191.887 -884.727,121.212 188.836,348.811 641.251,413.146 854.7,289.913 270.005,-155.886 646.48,-594.021 647.938,-924.187 2.23486,-115.267 -177.531,-339.258 -432.811,-624.853 -255.279,-285.595 -626.932,-646.287 -704.028,-648.056 -42.7796,78.4112 -39.1461,255.562 1.68696,312.239 161.156,223.702 955.696,972.608 955.696,1051.84z"/>
  <path class="fil0" d="M967.13 2184.58c-196.029,-198.023 -801.638,-745.886 -801.638,-863.578 0,-49.2102 573.214,-722.267 1318.71,-557.132 -227.761,-390.044 -665.799,-390.322 -940.51,-219.696 -274.712,170.626 -543.692,649.079 -543.692,794.498 0,200.936 56.691,350.455 259.96,553.728 203.27,203.271 446.988,498.01 707.17,292.18z"/>
  <path class="fil0" d="M1179.62 958.979c65.5932,0.04686 170.654,-133.372 229.39,-105.082 58.7396,28.2854 21.3657,196.024 60.8687,244.864 40.8583,51.3093 210.67,50.2675 225.179,113.828 14.5098,63.559 -139.94,138.922 -153.494,200.254 -14.6383,63.9398 92.0522,196.055 51.4042,247.024 -40.648,50.9716 -195.862,-22.7908 -252.268,4.85421 -59.1169,28.4176 -95.8863,194.203 -161.081,194.203 -65.1955,0 -104.3,-167.341 -161.081,-194.203 -59.0772,-28.5017 -211.62,46.1174 -252.271,-4.85421 -40.6444,-50.9716 65.807,-185.879 51.4078,-247.024 -14.553,-63.9579 -168.004,-136.698 -153.495,-200.254 14.5122,-63.5602 186.355,-64.4481 225.18,-113.828 40.9328,-51.254 2.12792,-216.578 60.8675,-244.864 58.7396,-28.2902 166.576,105.512 229.392,105.082zm0 94.6079c49.9011,0.0348446 129.827,-101.464 174.514,-79.9431 44.6864,21.5183 16.2532,149.128 46.3037,186.285 31.0862,39.0332 160.273,38.2426 171.309,86.5948 11.0397,48.3559 -106.46,105.687 -116.771,152.347 -11.1371,48.6443 70.0292,149.154 39.1077,187.93 -30.9252,38.776 -149.006,-17.3394 -191.919,3.69112 -44.9748,21.6193 -72.9454,147.744 -122.544,147.744 -49.5983,0 -79.3496,-127.307 -122.545,-147.744 -44.9423,-21.6818 -160.994,35.0849 -191.918,-3.69112 -30.9216,-38.7796 50.0633,-141.411 39.1077,-187.93 -11.071,-48.6551 -127.811,-103.994 -116.773,-152.347 11.0397,-48.3523 141.772,-49.03 171.309,-86.5948 31.1415,-38.9923 1.61847,-164.767 46.3049,-186.285 44.6888,-21.5207 126.726,80.2699 174.514,79.9431z"/>
  <circle class="fil0" cx="1179.62" cy="1336.02" r="127.771"/>
  <rect class="fil0" x="1172.41" y="1068.62" width="14.4224" height="148.597"/>
  <rect class="fil0" transform="matrix(-2.1947 2.75206 -0.508128 -0.405219 1089.51 1257.14)" width="4.09724" height="228.638"/>
  <rect class="fil0" transform="matrix(0.783278 3.43177 -0.633626 0.144621 1060.04 1358.13)" width="4.09724" height="228.638"/>
  <rect class="fil0" transform="matrix(3.17143 1.52728 -0.28199 0.585558 1120.62 1444.13)" width="4.09724" height="228.638"/>
  <rect class="fil0" transform="matrix(3.17143 -1.52728 0.28199 0.585558 1225.63 1450.39)" width="4.09724" height="228.638"/>
  <rect class="fil0" transform="matrix(0.783278 -3.43177 0.633626 0.144621 1296 1372.19)" width="4.09724" height="228.638"/>
  <rect class="fil0" transform="matrix(-2.1947 -2.75206 0.508128 -0.405219 1278.73 1268.41)" width="4.09724" height="228.638"/>
 </g>
</svg>
