<?xml version="1.0" encoding="utf-8"?>
<!-- Generator: Adobe Illustrator 27.1.1, SVG Export Plug-In . SVG Version: 6.00 Build 0)  -->
<svg version="1.1" id="Camada_1" xmlns="http://www.w3.org/2000/svg" xmlns:xlink="http://www.w3.org/1999/xlink" x="0px" y="0px"
	 viewBox="0 0 198.65 87.14" style="enable-background:new 0 0 198.65 87.14;" xml:space="preserve">
<style type="text/css">
	.st0{fill:#335A45;}
	.st1{fill:#FFFFFF;}
	.st2{fill:#88BC51;}
</style>
<g>
	<path class="st0" d="M164.96,86.14H8.64c-4.52,0-8.05-3.86-7.61-8.31L9.01,7.82C9.4,3.95,12.69,1,16.62,1h156.32
		c4.52,0,8.05,3.86,7.61,8.31l-7.97,70.01C172.18,83.19,168.89,86.14,164.96,86.14z"/>
	<path class="st1" d="M37.3,8.82c2.41,0,4.61,0.47,6.62,1.4c2,0.94,3.69,2.19,5.06,3.76c1.37,1.57,2.37,3.41,3.01,5.51
		c0.63,2.1,0.78,4.36,0.45,6.77l-7.02,50.22H37.2l2.51-17.84H21.06l-2.51,17.84h-8.02l7.02-50.22c0.33-2.41,1.1-4.66,2.31-6.77
		s2.71-3.94,4.51-5.51c1.8-1.57,3.81-2.82,6.01-3.76C32.59,9.29,34.9,8.82,37.3,8.82z M22.17,50.52h18.64l3.41-24.18
		c0.33-2.6-0.27-4.81-1.8-6.65c-1.54-1.83-3.61-2.75-6.21-2.75c-1.34,0-2.61,0.25-3.81,0.75c-1.2,0.5-2.27,1.17-3.21,2
		c-0.94,0.83-1.72,1.83-2.36,3c-0.64,1.17-1.05,2.38-1.25,3.65L22.17,50.52z"/>
	<path class="st1" d="M66.67,76.48c-2.41,0-4.6-0.47-6.57-1.4c-1.97-0.94-3.63-2.19-4.96-3.76c-1.34-1.57-2.32-3.42-2.96-5.56
		c-0.64-2.14-0.79-4.41-0.45-6.82l4.61-32.68c0.33-2.41,1.1-4.66,2.31-6.77c1.2-2.1,2.71-3.96,4.51-5.56
		c1.8-1.6,3.81-2.86,6.01-3.76c2.2-0.9,4.51-1.35,6.92-1.35c2.41,0,4.59,0.45,6.57,1.35c1.97,0.9,3.64,2.16,5.01,3.76
		c1.37,1.6,2.37,3.46,3.01,5.56c0.63,2.1,0.78,4.36,0.45,6.77l-0.8,5.51h-8.12l0.8-5.48c0.33-2.59-0.27-4.8-1.8-6.62
		c-1.54-1.82-3.61-2.74-6.21-2.74c-1.34,0-2.61,0.25-3.81,0.75c-1.2,0.5-2.27,1.17-3.21,2c-0.94,0.83-1.72,1.83-2.36,3
		c-0.64,1.17-1.05,2.39-1.25,3.65l-4.61,32.61c-0.34,2.67,0.27,4.9,1.8,6.7c1.54,1.8,3.61,2.7,6.21,2.7h9.32l3.01-21.75H68.27
		l1.2-8.12h19.95l-5.31,37.99H66.67z"/>
	<path class="st1" d="M98.94,58.54l-2.51,17.94h-8.02l9.52-67.76h14.53c2.34,0,4.49,0.47,6.47,1.4c1.97,0.94,3.62,2.19,4.96,3.76
		c1.34,1.57,2.32,3.43,2.96,5.56c0.63,2.14,0.78,4.41,0.45,6.82l-2.1,14.83c-0.47,3.41-1.69,6.47-3.66,9.17
		c-1.97,2.71-4.56,4.83-7.77,6.37l8.42,19.85h-9.42l-7.42-17.94H98.94z M100.05,50.42h6.52c1.27,0,2.51-0.23,3.71-0.7
		c1.2-0.47,2.29-1.13,3.26-2c0.97-0.87,1.77-1.85,2.41-2.95c0.63-1.1,1.05-2.31,1.25-3.65l2.1-14.79c0.2-1.27,0.13-2.48-0.2-3.65
		c-0.34-1.17-0.87-2.18-1.6-3.05c-0.74-0.87-1.64-1.55-2.71-2.05c-1.07-0.5-2.24-0.75-3.51-0.75h-6.52L100.05,50.42z"/>
	<path class="st1" d="M161.69,59.04c-0.34,2.41-1.12,4.68-2.36,6.82c-1.24,2.14-2.76,3.99-4.56,5.56c-1.8,1.57-3.83,2.81-6.06,3.71
		c-2.24,0.9-4.56,1.35-6.97,1.35c-2.41,0-4.6-0.45-6.57-1.35c-1.97-0.9-3.64-2.14-5.01-3.71c-1.37-1.57-2.36-3.42-2.96-5.56
		c-0.6-2.14-0.74-4.41-0.4-6.82l4.61-32.68c0.33-2.41,1.1-4.68,2.31-6.82c1.2-2.14,2.71-3.99,4.51-5.56
		c1.8-1.57,3.81-2.82,6.01-3.76c2.21-0.93,4.51-1.4,6.92-1.4s4.61,0.47,6.62,1.4c2,0.94,3.69,2.19,5.06,3.76
		c1.37,1.57,2.37,3.43,3.01,5.56c0.63,2.14,0.78,4.41,0.45,6.82L161.69,59.04z M158.18,26.45c0.33-2.6-0.28-4.83-1.85-6.7
		c-1.57-1.87-3.66-2.8-6.26-2.8c-1.27,0-2.51,0.25-3.71,0.75c-1.2,0.5-2.29,1.18-3.26,2.05c-0.97,0.87-1.77,1.88-2.41,3.05
		c-0.64,1.17-1.05,2.39-1.25,3.65l-4.61,32.61c-0.2,1.33-0.13,2.55,0.2,3.65c0.33,1.1,0.87,2.08,1.6,2.95
		c0.73,0.87,1.64,1.53,2.71,2c1.07,0.47,2.24,0.7,3.51,0.7c1.27,0,2.52-0.23,3.76-0.7c1.24-0.47,2.34-1.13,3.31-2
		c0.97-0.87,1.77-1.85,2.41-2.95c0.63-1.1,1.05-2.32,1.25-3.65L158.18,26.45z"/>
	<g>
		<path class="st2" d="M195.89,50.08h-14.18l-2.01,15.15h-12.66l2.01-15.15h-14.14l1.75-13.22h14.14l1.99-15.03h12.66l-1.99,15.03
			h14.18L195.89,50.08z"/>
	</g>
</g>
</svg>
