<svg width="711" height="398" viewBox="0 0 711 398" fill="none" xmlns="http://www.w3.org/2000/svg">
<g clip-path="url(#clip0_108_85)">
<path d="M193.272 149.608C180.422 149.428 180.422 169.582 193.272 169.401C206.121 169.582 206.121 149.428 193.272 149.608Z" fill="black"/>
<path d="M169.511 149.608C156.661 149.428 156.661 169.582 169.511 169.401C182.36 169.582 182.36 149.428 169.511 149.608Z" fill="black"/>
<path d="M298.731 300.831H288.361L286.106 308H279.749L290.029 278.423H297.288L307.568 308H300.985L298.731 300.831ZM289.668 296.187H297.378L293.591 284.059H293.456L289.668 296.187Z" fill="black"/>
<path d="M329.661 308H310.544V278.423H316.766V302.86H329.661V308Z" fill="black"/>
<path d="M361.222 308H341.609V278.423H361.222V283.518H347.831V290.641H360.456V295.421H347.831V302.86H361.222V308Z" fill="black"/>
<path d="M391.476 308V288.026H391.295L383.27 307.729H379.392L371.321 288.026H371.186V308H365.686V278.423H372.855L381.241 299.388H381.421L389.807 278.423H396.976V308H391.476Z" fill="black"/>
<path d="M418.979 300.831H408.609L406.354 308H399.997L410.277 278.423H417.536L427.816 308H421.233L418.979 300.831ZM409.916 296.187H417.626L413.839 284.059H413.704L409.916 296.187Z" fill="black"/>
<path d="M437.014 308H430.837V278.423H442.965C454.282 277.386 457.574 292.174 448.286 296.232L454.508 307.955H447.474L441.973 297.134H437.014V308ZM437.014 292.67C450.946 294.97 450.856 280.993 437.014 283.247V292.67Z" fill="black"/>
<path d="M474.752 300.831H464.382L462.127 308H455.77L466.05 278.423H473.309L483.589 308H477.006L474.752 300.831ZM465.689 296.187H473.399L469.612 284.059H469.477L465.689 296.187Z" fill="black"/>
<path d="M489.676 308V283.518H481.109V278.423H504.419V283.518H495.853V308H489.676Z" fill="black"/>
<path d="M523.176 308V283.518H514.654V278.423H537.964V283.518H529.398V308H523.176Z" fill="black"/>
<path d="M549.417 308L539.452 278.423H546.396L553.159 301.643H553.294L560.057 278.423H566.82L556.856 308H549.417Z" fill="black"/>
<path d="M567.361 119.76H543.33V219.223H567.361V119.76Z" fill="black"/>
<path d="M531.337 119.76H507.305V195.191H491.164C491.164 190.277 491.164 152.854 491.164 149.292H467.132V195.191H446.122V219.223H531.291V119.76H531.337Z" fill="black"/>
<path d="M259.37 120.031V218.952H283.356V120.031H259.37Z" fill="black"/>
<path d="M115 195.011V218.952H247.782V195.011H115Z" fill="black"/>
<path d="M402.838 146.858C377.228 146.722 363.612 171.701 366.903 195.056H354.865V119.76H330.788V219.133H403.649C451.307 219.584 448.286 144.784 402.883 146.858M402.793 195.056H391.025C385.75 145.866 439.178 185.047 402.793 195.056Z" fill="black"/>
<path d="M295.034 235.184C295.034 241.812 289.623 247.222 282.995 247.222V271.299C332.862 271.614 316.721 201.504 319.11 170.934H295.034V235.184Z" fill="black"/>
<path d="M487.737 231.442C456.807 226.166 451.848 271.93 483.589 271.299H491.164V258.719C485.348 258.719 474.301 260.207 474.436 251.37C474.301 242.533 485.393 243.976 491.164 244.021V231.442H487.737Z" fill="black"/>
<path d="M605.956 119.67C625.209 119.94 625.209 89.6868 605.956 90.0025C586.704 89.7319 586.704 119.986 605.956 119.67Z" fill="#D02D2E"/>
</g>
<defs>
<clipPath id="clip0_108_85">
<rect width="506" height="218" fill="white" transform="translate(115 90)"/>
</clipPath>
</defs>
</svg>
