<?xml version="1.0" encoding="UTF-8"?>
<svg id="Layer_1" data-name="Layer 1" xmlns="http://www.w3.org/2000/svg" xmlns:xlink="http://www.w3.org/1999/xlink" viewBox="0 0 1920 1920">
  <defs>
    <style>
      .cls-1 {
        fill: url(#New_Gradient_Swatch_1-10);
      }

      .cls-2 {
        fill: url(#New_Gradient_Swatch_1-12);
      }

      .cls-3 {
        fill: url(#New_Gradient_Swatch_1-11);
      }

      .cls-4 {
        fill: url(#New_Gradient_Swatch_1);
      }

      .cls-5 {
        fill: url(#New_Gradient_Swatch_1-5);
      }

      .cls-6 {
        fill: url(#New_Gradient_Swatch_1-8);
      }

      .cls-7 {
        fill: url(#New_Gradient_Swatch_1-2);
      }

      .cls-8 {
        fill: url(#New_Gradient_Swatch_1-3);
      }

      .cls-9 {
        fill: url(#New_Gradient_Swatch_1-6);
      }

      .cls-10 {
        fill: url(#New_Gradient_Swatch_1-9);
      }

      .cls-11 {
        fill: url(#New_Gradient_Swatch_1-4);
      }

      .cls-12 {
        fill: url(#New_Gradient_Swatch_1-7);
      }
    </style>
    <linearGradient id="New_Gradient_Swatch_1" data-name="New Gradient Swatch 1" x1="168.97" y1="172.29" x2="2051.61" y2="1358.98" gradientUnits="userSpaceOnUse">
      <stop offset="0" stop-color="#ebba52"/>
      <stop offset=".15" stop-color="#f4d475"/>
      <stop offset=".29" stop-color="#fceb94"/>
      <stop offset=".36" stop-color="#f2cd70"/>
      <stop offset=".41" stop-color="#edba5a"/>
      <stop offset=".44" stop-color="#ebb452"/>
      <stop offset=".62" stop-color="#9b6228"/>
      <stop offset=".77" stop-color="#eea354"/>
      <stop offset="1" stop-color="#ebba52"/>
    </linearGradient>
    <linearGradient id="New_Gradient_Swatch_1-2" data-name="New Gradient Swatch 1" x1="227.52" y1="79.4" x2="2110.16" y2="1266.09" xlink:href="#New_Gradient_Swatch_1"/>
    <linearGradient id="New_Gradient_Swatch_1-3" data-name="New Gradient Swatch 1" x1="-369.28" y1="1026.2" x2="1513.36" y2="2212.89" xlink:href="#New_Gradient_Swatch_1"/>
    <linearGradient id="New_Gradient_Swatch_1-4" data-name="New Gradient Swatch 1" x1="-336.36" y1="973.98" x2="1546.28" y2="2160.66" xlink:href="#New_Gradient_Swatch_1"/>
    <linearGradient id="New_Gradient_Swatch_1-5" data-name="New Gradient Swatch 1" x1="5.35" y1="431.87" x2="1887.99" y2="1618.56" xlink:href="#New_Gradient_Swatch_1"/>
    <linearGradient id="New_Gradient_Swatch_1-6" data-name="New Gradient Swatch 1" x1="86.79" y1="302.67" x2="1969.43" y2="1489.36" xlink:href="#New_Gradient_Swatch_1"/>
    <linearGradient id="New_Gradient_Swatch_1-7" data-name="New Gradient Swatch 1" x1="-58.35" y1="532.93" x2="1824.29" y2="1719.61" xlink:href="#New_Gradient_Swatch_1"/>
    <linearGradient id="New_Gradient_Swatch_1-8" data-name="New Gradient Swatch 1" x1="166.09" y1="176.86" x2="2048.73" y2="1363.55" xlink:href="#New_Gradient_Swatch_1"/>
    <linearGradient id="New_Gradient_Swatch_1-9" data-name="New Gradient Swatch 1" x1="-137.87" y1="659.09" x2="1744.77" y2="1845.77" xlink:href="#New_Gradient_Swatch_1"/>
    <linearGradient id="New_Gradient_Swatch_1-10" data-name="New Gradient Swatch 1" x1="-37.48" y1="499.81" x2="1845.16" y2="1686.49" xlink:href="#New_Gradient_Swatch_1"/>
    <linearGradient id="New_Gradient_Swatch_1-11" data-name="New Gradient Swatch 1" x1="-136.11" y1="656.29" x2="1746.53" y2="1842.98" xlink:href="#New_Gradient_Swatch_1"/>
    <linearGradient id="New_Gradient_Swatch_1-12" data-name="New Gradient Swatch 1" x1="-51.85" y1="522.6" x2="1830.79" y2="1709.29" xlink:href="#New_Gradient_Swatch_1"/>
  </defs>
  <path class="cls-4" d="m735.88,600.37c-3.98-2.96-8.42-5.43-11.69-8.86-13.04-13.7-26.03-27.47-38.41-41.69-6.65-7.64-12.11-16.19-17.9-24.45-2.58-3.68-2.04-5.93,2.99-7.78,25.17-9.23,46.4-23.55,63.04-43.46.48-.57.94-1.16,1.36-1.76,7.85-11.33,8.36-9.85,17.96-.6,9.99,9.62,18.89,20.28,27.68,30.91,7.09,8.58,13.39,17.74,19.88,26.74,6.88,9.55,4.78,19.13-.73,27.51-12.17,18.5-28.45,33.11-50.54,41.17-4.04,1.47-8.73,1.49-13.63,2.26Z"/>
  <path class="cls-7" d="m757.87,484.43c-3.98-2.96-8.42-5.43-11.69-8.86-13.04-13.7-26.03-27.47-38.41-41.69-6.65-7.64-12.11-16.19-17.9-24.45-2.58-3.68-2.04-5.93,2.99-7.78,25.17-9.23,46.4-23.55,63.04-43.46.48-.57.94-1.16,1.36-1.76,7.85-11.33,8.36-9.85,17.96-.6,9.99,9.62,18.89,20.28,27.68,30.91,7.09,8.58,13.39,17.74,19.88,26.74,6.88,9.55,4.78,19.13-.73,27.51-12.17,18.5-28.45,33.11-50.54,41.17-4.04,1.47-8.73,1.49-13.63,2.26Z"/>
  <path class="cls-8" d="m788.25,1806.27c2.22-4.44,3.87-9.24,6.68-13.06,11.21-15.24,22.5-30.43,34.34-45.1,6.36-7.88,13.82-14.75,20.94-21.89,3.17-3.18,5.49-3.04,8.18,1.58,13.49,23.17,31.29,41.58,53.8,54.48.65.37,1.3.72,1.97,1.03,12.52,5.75,11.16,6.51,3.73,17.58-7.73,11.51-16.67,22.15-25.6,32.65-7.21,8.48-15.12,16.29-22.85,24.25-8.2,8.45-18,8.05-27.22,4.09-20.35-8.75-37.57-22.22-49.36-42.58-2.15-3.72-2.99-8.33-4.61-13.02Z"/>
  <path class="cls-11" d="m906.25,1807.67c2.22-4.44,3.87-9.24,6.68-13.06,11.21-15.24,22.5-30.43,34.34-45.1,6.36-7.88,13.82-14.75,20.94-21.89,3.17-3.18,5.49-3.04,8.18,1.58,13.49,23.17,31.29,41.58,53.8,54.48.65.37,1.3.72,1.97,1.03,12.52,5.75,11.16,6.51,3.73,17.58-7.73,11.51-16.67,22.15-25.6,32.65-7.21,8.48-15.12,16.29-22.85,24.25-8.2,8.45-18,8.05-27.22,4.09-20.35-8.75-37.57-22.22-49.36-42.58-2.15-3.72-2.99-8.33-4.61-13.02Z"/>
  <path class="cls-5" d="m1039.22,1013.93c11.64,44.57,18.58,89.35,14.22,135.46-2.97,31.41-4.5,62.97-10.34,94.07-.6,3.21-1.22,6.44-2.22,9.54-.34,1.04-1.91,2.39-2.85,2.34-.94-.05-2.32-1.55-2.58-2.64-.64-2.71-1.07-5.55-1.01-8.32.39-16.82.56-33.65,1.5-50.44,2.61-46.26-2.33-91.61-16.83-135.63-14.43-43.79-36.22-83.57-67.55-117.76-9.63-10.51-19.25-21.05-29.05-31.41-13.92-14.71-30.23-26.47-47.15-37.44-1.16-.75-2.47-1.34-3.79-1.78-4.72-1.59-7.6-5.09-8.07-9.73-1.73-16.96-3.38-33.93-4.37-50.94-.42-7.28,3.57-9.09,9.93-5.39,28.68,16.7,54.82,36.59,77.2,61.25,14.76,16.27,30.42,31.72,43.4,49.57,15.91,21.88,28.62,45.47,38.5,70.61,3.76,9.57,7.41,19.2,11.05,28.65Z"/>
  <path class="cls-9" d="m1190.53,1399.67c30.4-46.2,53.24-96.17,53.8-154.59.55-56.55-18.67-111.78-41.92-162.32-31.97-69.47-72.09-134.51-112.58-198.99-1.63-2.6-3.27-5.2-4.9-7.81-51.28-81.58-103.13-163.68-141.09-254.26-28.46-67.92-51.32-141.26-47.84-217.48.77-16.94,3.22-84.87,7.55-97.69-29.6,87.71-37.82,188.36-21.52,279.71,9.98,55.89,28.42,109.53,51.26,160.26,37.04,82.28,85.31,157.34,131.67,233.22,34.41,56.33,71.1,110.31,92.02,173.78,16.32,49.53,20.4,104.2,6.51,154.35-13.94,50.34-32.82,99.2-56.29,145.61-.66,1.3,19.25,15.76,20.81,16.45,8.4,3.76,7.21,3.53,13.75-4.25,4.9-5.83,9.53-11.94,14.18-17.99,12.05-15.67,23.8-31.61,34.59-48.02Z"/>
  <path class="cls-12" d="m1057.06,1304.34c5.44-41.69,8.94-82.74,16.76-123.05,4.41-22.71,10.93-56.31,39.81-50.4,28.52,5.83,28.09,38.29,24.56,65.83-.89,6.97-4.18,13.72-7.72,24.79-38.28-20.56-42.71,10.19-46.73,37.22-5.63,37.85-8.6,76.03-13.51,121.53-19.41-29.47-34.98-53.1-46.95-71.28-20.68,6.17-37.68,15.64-53.36,14.24-9.04-.81-19.67-17.86-22.97-29.95-5.58-20.45-9.58-48.44,15.2-56.53,15.68-5.12,39.13,2.79,53.04,13.51,17.16,13.23,28.04,35.45,41.87,54.1Z"/>
  <path class="cls-6" d="m1462.2,1163.06c-26.24-102.87-81.39-195.47-142.1-281.48-75.53-107-160.05-207.59-230.07-318.47-46.63-73.85-88.4-152.45-108.79-237.95-19.25-80.11-12.8-163.92,6.69-243.32.2-.81.4-1.61.6-2.42,2.1-8.5,4.32-16.96,6.63-25.4-24.03,36.02-45.47,74.36-60.8,114.93-27.02,72.44-21.41,152.96-6.75,227.45,6.5,33,16.58,65.21,29.19,96.37,34.44,85.15,83.5,161.18,136.3,235.86,35.13,49.68,72,98.09,107.73,147.33,10.5,14.47,21.05,28.9,31.5,43.41,59.96,83.33,118.69,172.91,155.65,270.18,21.77,57.3,29.89,118.95,29.81,180.01-.04,30.66-2.15,61.29-5.75,91.73-3.28,27.73-2.59,46.66-18.96,134.42,1.72-5.98,34.42-79.41,36.13-83.2,9.06-20.15,16.36-40.85,22.58-62.06,16.19-55.19,25.3-113.32,24.93-171.19-.25-39.17-4.85-78.23-14.53-116.18Z"/>
  <path class="cls-10" d="m1344.28,1305.33c-55.8,36.84-114.76,67.97-174.94,95.71-49.37,22.76-122.23,38.05-156.08,86.16-9.67,13.74-15,27.99-12.05,45.33,1.46,8.57,2.08,17.29,3.13,25.94,1.92,15.89,4.27,16.52,18.24,8.69,10.1-5.66,19.89-11.87,29.93-17.55,34.88-19.73,69.88-39.28,105.5-57.42,23.59-12.01,46.34-26.17,71.95-35.92-3.79,1.44-11.27,24.32-13.62,28.82-24.85,47.77-64.75,85.08-109.62,110.46-39.11,22.12-102.27,52.47-142.7,18.56-17.48-14.66-24.74-38.78-19.89-61.78.77-3.64,1.96-7.57,1.44-11.32-.84-6.12-5.2-7.83-7.79-2.14-2.16,4.76-4.27,9.54-6.44,14.28-3.83,8.35-7.31,17.17-11.93,25.13-11.76,20.24-26.02,35.17-48.74,42.31-31.62,9.94-84.23,3.8-96.38-32.69-5.53-16.61-4.3-36.45-3.48-53.8,2.69-57.47,20.65-110.71,36.19-165.37,20.92-73.63,43.62-147.03,55.35-223.82,7.23-47.35,10.14-96.09,5.51-144.75-7.57-79.52-37.63-161.1-82.43-227.01,6.55,9.64,24.27,65.41,28.82,79.28,20.48,62.41,18.46,128.51,10.54,191.41-10.57,83.89-34.61,163.95-58.3,243.45-.76,2.54-1.51,5.07-2.27,7.61-18.68,62.83-36.94,126.03-47.42,191.03-12.53,77.77-17.6,185.01,69.59,221.66,26.18,11,57.86,12.71,84.55,2.39,12.51-4.84,60.64-35.46,54.34-53.64,9.56,27.57,37.57,38.41,64.13,43.49,54.43,10.4,112.64-4.18,157.76-39.1,51.5-39.86,81.98-103.17,121.33-155.01,21.3-28.07,41.66-57.63,64.44-84.32,16.71-19.58,36.2-36.36,56.13-52.24.04-1.02.09-2.11.14-3.2,0-1.04-.01-2.07-.01-3.11,0-9.91.72-19.85,1.17-29.75.76-16.62,1.64-33.24,2.55-49.85.16-2.84.31-5.69.47-8.53-16.21,10.49-32.97,19.99-49.09,30.63Z"/>
  <path class="cls-1" d="m829.5,309.01c4.32,12.83,6.73,80.76,7.5,97.69,3.43,76.22-19.46,149.55-47.96,217.45-38.01,90.56-89.9,172.64-141.22,254.19-1.64,2.6-3.27,5.2-4.91,7.8-40.52,64.46-80.68,129.48-112.68,198.93-11.1,24.09-27.37,77.35-26.67,78.49-12.46,21.41-30.1,53.18-35.92,68.02-8.86,22.64-14.97,46.99-18.75,71.75-10.03,65.59-7.92,137.2,16.61,200.17,2.91,7.47,6.11,14.61,9.57,21.43,29.45,57.91,78.57,92.65,141.83,113.59,20.16,6.67,40.45,12.96,60.88,18.74,7.41,2.09,14.83,4.17,22.33,5.91,2.3.53,8.02,2.82,10.39,1.63-.7-.23-1.41-.46-2.11-.69-123.98-41.68-237.8-148.78-235.8-288.16.41-28.51,6.06-57.49,19.87-82.66,6.15-11.22,13.81-21.63,21.95-31,4.37,11.21,7.97,22.75,11.83,34.12,14.19,41.88,32.19,91.94,77.56,108.57,47.49,17.4,96.96,3.82,127.42-37.96,35.53-48.73,17.79-117.68,1.72-170.24-11.36-37.15-33.13-67.5-68.39-84.66-23.17-11.28-46.52-10.86-69.3-4.89,20.61-43.57,47.15-83.71,72.48-125.11,46.39-75.85,94.7-150.89,131.79-233.15,22.87-50.72,41.34-104.35,51.35-160.23,16.35-91.34,8.18-191.99-21.37-279.72Zm-124.64,913.04c9.28,8.56,2,34.96-2.28,44.13-6.98,14.96-19.41,27.13-33.42,35.6-24.15,14.61-60.15,18.25-85.29,3.11-12.85-7.74-21.13-20.14-23.43-34.96-1.41-9.14-6.56-44.65,1.56-50.49,5.61-4.02,9.59-6.57,10.93-7.42,43.34-20.42,93.58-25.35,131.91,10.02Z"/>
  <path class="cls-3" d="m961.67,1136.77c-6.37,13.8-11.71,28.2-19.28,41.31-27.19,47.09-49.74,96.25-68.61,147.2-8.32,22.45-11.75,45.55-10.65,69.31.76,16.33,12.36,29,28.9,31.97.52-4.43.86-8.85,1.59-13.2,1.46-8.81,4.91-16.49,15.37-16.06,10.54.43,17.24,8.2,18.02,17.26,2.19,25.2-12.59,70.03-40.21,80.61-12.81,4.91-22.84,4.01-32.78-3.41-17.38-12.97-23.73-31.77-25.41-52.46-3.99-49.26,13.38-93.77,32.52-137.42,13.72-31.28,29.33-61.83,45.69-91.83,12.71-23.29,27.77-45.31,42.08-67.7,2.05-3.22,5.73-5.39,8.66-8.05,1.37.83,2.74,1.65,4.11,2.48Z"/>
  <path class="cls-2" d="m750.55,1103.42c21.53-15.33,34.83-35.9,45.02-60.68-6.27.96-10.1,3.58-14.23,6.1-20.93,12.79-50.72,4.26-56.84-17.4-3.54-12.52-2.12-26.06.21-39.26,4.17-23.72,18.51-43.19,27.2-65.35-2.06-.2-3.61-.78-4.02-.33-37.9,42.02-61.45,90.41-57.36,147.89,2.13,29.91,36.3,45.92,60.02,29.03Z"/>
</svg>