<?xml version="1.0" encoding="utf-8"?>
<!-- Generator: Adobe Illustrator 26.5.1, SVG Export Plug-In . SVG Version: 6.00 Build 0)  -->
<svg version="1.1" id="Layer_1" xmlns="http://www.w3.org/2000/svg" xmlns:xlink="http://www.w3.org/1999/xlink" x="0px" y="0px"
	 viewBox="0 0 1080 1080" style="enable-background:new 0 0 1080 1080;" xml:space="preserve">
<style type="text/css">
	.st0{fill:#881c0c;}
</style>
<g>
	<g>
		<path class="st0" d="M437.3,638.1c-0.3-4.5-0.7-8.3-0.8-12.1c-0.5-15.5-0.8-31.1-1.4-46.6c-0.1-1.5-0.8-3.3-1.9-4.4
			c-0.1-0.1-0.2-0.2-0.3-0.3c-65.4-50.7-94.6-137.2-63.6-216c23.5-59.6,80.2-104.8,143.5-114.4c63.3-9.5,130.9,16.9,170.9,67
			c45,56.4,52.4,139.1,18.1,202.6c-11.8,21.9-27.8,40.4-47.2,56c-2.4,1.9-3.1,3.9-2.9,6.9c0.6,18,1,36,1.5,54c0,0.8,0.3,1.5,0.5,2.4
			c49-24,100.5-79.8,117.3-153.7c14.9-57.2,6.1-137.4-44.8-200.6c-32.3-40.1-73.1-66-116.3-79.2c-59.8-18.8-125.9-12.5-181.3,16.8
			c-71,37.6-118.8,110.9-124.6,191C297,502.4,350.6,597.8,437.3,638.1z M632,455.9c0.4-0.3,0.7-0.7,1-1.1
			c5.3-5.9,10.2-12.1,14.3-18.8c3.4-5.6,6.5-11.4,9.6-17.2c0.6-1.1,1.1-2.3,1.3-3.6c0.3-2.2-1-4-2.1-5.7c-2.8-4.3-5.8-8.6-8.6-12.9
			c-2.4-3.7-4.7-7.4-7.1-11.2c-0.8-1.2-1.7-2-3.2-1.7c-0.8,0.1-1.6,0.3-2.3,0.6c-1.7,0.6-3.4,1.3-5,2.1c-3.6,1.7-7.3,3.3-10.1,6.4
			c-0.2,0.3-0.6,0.5-0.9,0.6c-2.4,1-4.8,2-7.2,3.1c-3.4,1.5-3.8,2.3-2.8,5.2c0.1,0.4,0.3,0.7,0.6,1c2,2.9,4.5,5.2,8.1,5.5
			c3.9,0.3,7.7-0.3,11.4-1.7c0.4-0.2,0.8-0.4,1.2-0.6c0.1,3.3,1.9,5.6,3.7,7.9c-0.2,0.1-0.4,0.2-0.6,0.3c-4.7,1.5-9.3,3.4-13.6,6
			c-5.9,3.5-9.8,8.6-11.3,15.2c-1.1,4.8-1.7,9.8-2.5,14.7c-0.1,0.3-0.2,0.6-0.3,0.9c-0.3-1.9-0.5-3.7-0.4-5.5
			c0.2-3.3,0.4-6.6,0.9-9.8c0.3-2.2,0.9-4.3,2-6.3c2.9-5.1,7-8.8,12-11.6c3.1-1.8,6.4-3.4,9.5-5c-0.5-1-1.1-2.1-1.7-3.2
			c-3.4,1.8-6.9,2.4-10.7,1.8c-1.3-0.2-2.7-0.2-4-0.1c-0.9,0-1.3,0.5-1.3,1.5c0.1,1.4,0.1,2.7,0.1,4.1c0,3.3-1.7,5.7-4.3,7.5
			c-2.4,1.7-5.2,2.2-8.2,1.8c0,0.4,0,0.6,0.1,0.9c0.4,1.4-0.1,2.7-1,3.7c-1.7,2-4,3.2-6.5,4c-2.1,0.6-4.1,0.3-5.9-1
			c-0.7-0.5-1.2-1.2-1.9-1.7c-3.7-3.4-7.5-6.7-11.2-10.1c-1.1-0.9-2.1-1.9-3.1-2.9c0,0.6,0.1,1.2,0.3,1.7c0.5,1.6,0.9,3.3,1.4,4.9
			c0.2,0.8,0.4,1.7,0.8,2.3c0.4,0.6,1.3,0.9,1.8,1.3c-0.4,0-0.4,0.4-0.3,1c0.6,3.1,1.1,6.2,1.8,9.3c0.7,2.8,1.7,5.6,3.3,8
			c1.8,2.5,3.9,4.8,5.3,7.6c1.7,3.4,3.1,6.7,3.1,10.7c0,30.8-1.2,62.5,0.2,93.2c0,0.3-0.2,19.7-0.5,43c-0.2,18.5-0.5,39.4-0.8,55.2
			c19-3.8,38.1-10,56.6-19c-0.7-20.3-1.7-43.7-2.5-60.4c-0.6-12.9-1-21.8-1-22.1c-2.1-31.9-3.1-64.3-8.5-95.8
			C630.7,458.5,630.7,457,632,455.9z M578.4,391.7c-1.3,1.6-1.6,3.6-1.6,5.9c-0.2,1.5,0.5,2.8,1.6,4.1c4.8,5.1,9.5,10.3,14.2,15.5
			c1.9,2.1,3.7,4.2,6.1,5.7c3.6,2.3,7.9-0.2,9-2.8c1.6-3.7,0.9-7.1-1.6-10c-4-4.6-7.8-9.2-11.1-14.3c-1.6-2.5-3.5-4.7-6.2-6.2
			C585.3,387.5,580.5,389.2,578.4,391.7z M597.3,373.6c-6.8,2.3-8.3,8.2-4.6,14c1.3,2,2.8,3.8,4.2,5.6c3,3.9,5.9,7.9,9,11.8
			c0.9,1.1,1.9,2.1,2.9,3.2c0.8,0.8,1.7,0.9,2.4,0.2c-2.3-1.9-4-4.3-5.1-7.1c-0.8-2-0.4-3.6,1.3-4.7c1.5-1,3.2-1.8,4.8-2.6
			c1.4-0.6,2.8-1.1,4.3-1.7c-0.7-1.3-1.3-2.5-2-3.7c-2.2-3.7-4.5-7.4-6.7-11.2C605.6,373.7,601.2,372.3,597.3,373.6z M573.1,404.1
			c-2.6,1-5.4,3.5-5.3,5.9c0.1,3.4,1.4,5.5,3.4,7.2c1.6,1.3,3.4,2.4,4.8,3.9c3.2,3.3,6.6,6.2,10.4,8.9c2.8,2,5.5,1.9,8-0.3
			c1.7-1.5,2-4.6,0.5-6.3c-5.2-5.6-10.3-11.4-15.3-17.2C577.7,404,575.9,403.1,573.1,404.1z M619.1,390.8c0.4-0.3,0.7-0.5,1-0.7
			c1-0.7,2-1.5,3.1-2.1c2.9-1.5,5.8-2.8,8.8-4.2c0.6-0.3,0.9-0.6,0.5-1.4c-0.8-1.5-1.5-3.2-2.2-4.7c-1.2-2.4-2.2-4.8-3.6-7.1
			c-3.3-5.2-9.3-6.1-13.9-2.2c-0.4,0.3-0.7,0.6-1,1c-1.3,1.6-2.1,3.6-1.7,5.7c0.2,1.1,0.9,2.2,1.4,3.2
			C613.7,382.7,616.4,386.8,619.1,390.8z M556.8,510.9c0.3-0.3,0.6-0.7,0.9-1c4.7-5.2,9-10.7,12.6-16.7c3-5,5.7-10.1,8.5-15.3
			c0.5-1,1-2.1,1.1-3.2c0.3-1.9-0.8-3.5-1.9-5c-2.5-3.8-5.1-7.6-7.6-11.4c-2.1-3.3-4.2-6.6-6.3-9.9c-0.7-1-1.5-1.8-2.9-1.5
			c-0.7,0.1-1.4,0.3-2,0.5c-1.5,0.6-3,1.2-4.4,1.8c-3.2,1.5-6.5,2.9-8.9,5.7c-0.2,0.2-0.5,0.4-0.8,0.5c-2.1,0.9-4.3,1.8-6.4,2.7
			c-3,1.4-3.4,2-2.4,4.6c0.1,0.3,0.3,0.6,0.5,0.9c1.7,2.6,4,4.6,7.2,4.9c3.4,0.3,6.9-0.2,10.1-1.5c0.4-0.1,0.7-0.3,1-0.5
			c0.1,2.9,1.7,4.9,3.3,7c-0.2,0.1-0.4,0.2-0.5,0.3c-4.2,1.4-8.3,3-12.1,5.3c-5.2,3.1-8.7,7.6-10,13.5c-1,4.3-1.5,8.7-2.2,13
			c0,0.3-0.2,0.5-0.3,0.8c-0.3-1.6-0.5-3.2-0.4-4.8c0.1-2.9,0.4-5.8,0.8-8.7c0.3-1.9,0.8-3.8,1.7-5.5c2.5-4.5,6.2-7.8,10.6-10.3
			c2.8-1.6,5.7-3,8.4-4.5c-0.5-0.9-1-1.9-1.5-2.8c-3,1.6-6.1,2.1-9.4,1.6c-1.2-0.2-2.4-0.1-3.6-0.1c-0.8,0-1.2,0.5-1.1,1.3
			c0.1,1.2,0.1,2.4,0.1,3.6c0,2.9-1.5,5-3.8,6.6c-2.1,1.5-4.6,1.9-7.3,1.6c0,0.3,0,0.5,0.1,0.8c0.4,1.3-0.1,2.4-0.9,3.3
			c-1.5,1.8-3.6,2.9-5.8,3.5c-1.9,0.6-3.6,0.3-5.2-0.9c-0.6-0.4-1.1-1-1.6-1.5c-3.3-3-6.6-5.9-10-8.9c-0.9-0.8-1.8-1.7-2.8-2.6
			c0,0.6,0.1,1,0.2,1.5c0.4,1.4,0.8,2.9,1.2,4.3c0.2,0.7,0.3,1.5,0.7,2.1c0.4,0.5,1.1,0.8,1.6,1.2c-0.4,0-0.4,0.4-0.3,0.9
			c0.6,2.7,1,5.5,1.6,8.2c0.6,2.5,1.5,5,3,7.1c1.5,2.3,3.5,4.2,4.7,6.8c1.5,3,2.8,6,2.7,9.4c0,27.3-1,41.5,0.2,68.7
			c0,0,0,7.8-0.1,18.5c-0.1,17.7-0.2,43.2-0.4,54c15.8,1.5,32.6,1.4,49.7-0.5c-0.3-2.6-0.8-5.2-0.8-5.7c-0.7-10.3-1.6-28-2.6-47.8
			c-1.9-34.3-4.4-74.6-7.4-92.3C555.6,513.2,555.6,511.9,556.8,510.9z M509.3,454.1c-1.1,1.4-1.5,3.2-1.4,5.2
			c-0.2,1.3,0.4,2.5,1.4,3.6c4.2,4.6,8.4,9.1,12.6,13.7c1.7,1.8,3.3,3.7,5.4,5c3.2,2,7-0.1,8-2.4c1.4-3.3,0.8-6.3-1.4-8.9
			c-3.5-4.1-6.9-8.2-9.8-12.7c-1.4-2.2-3.1-4.1-5.5-5.4C515.4,450.4,511.1,451.8,509.3,454.1z M526.1,438c-6,2.1-7.4,7.2-4.1,12.4
			c1.1,1.7,2.5,3.3,3.7,5c2.6,3.5,5.3,7,7.9,10.4c0.8,1,1.7,1.9,2.6,2.8c0.7,0.7,1.6,0.8,2.1,0.2c-2-1.7-3.6-3.8-4.5-6.3
			c-0.7-1.8-0.4-3.2,1.2-4.2c1.4-0.9,2.8-1.6,4.3-2.3c1.2-0.6,2.5-1,3.8-1.5c-0.6-1.1-1.1-2.2-1.8-3.2c-2-3.3-4-6.6-5.9-9.9
			C533.4,438.1,529.5,436.8,526.1,438z M504.6,465c-2.3,0.9-4.8,3.1-4.7,5.2c0.1,3.1,1.3,4.9,3,6.4c1.4,1.2,3,2.1,4.2,3.4
			c2.8,2.9,5.9,5.5,9.2,7.9c2.4,1.7,4.9,1.7,7.1-0.3c1.5-1.4,1.8-4.1,0.4-5.6c-4.6-5-9.2-10.1-13.6-15.2
			C508.7,465,507.1,464.1,504.6,465z M545.4,453.3c0.4-0.2,0.6-0.4,0.9-0.6c0.9-0.6,1.8-1.4,2.7-1.8c2.6-1.3,5.2-2.5,7.8-3.7
			c0.6-0.3,0.8-0.6,0.4-1.2c-0.7-1.4-1.3-2.8-2-4.2c-1-2.1-1.9-4.3-3.2-6.3c-2.9-4.6-8.2-5.4-12.3-2c-0.3,0.3-0.6,0.6-0.9,0.9
			c-1.2,1.4-1.8,3.2-1.5,5c0.2,1,0.8,1.9,1.3,2.8C540.6,446,543,449.7,545.4,453.3z M502.8,525.4c0.4-0.5,0.4-1.3,0.6-2
			c0.3-1.4,0.6-2.7,0.9-4.1c0.1-0.4,0.2-0.9,0.1-1.4c-0.8,0.8-1.6,1.7-2.4,2.5c-2.9,2.9-5.8,5.9-8.7,8.8c-0.5,0.5-0.9,1.1-1.4,1.5
			c-1.4,1.2-3,1.5-4.8,1.1c-2.1-0.5-4-1.4-5.5-3c-0.8-0.8-1.3-1.8-1-3c0-0.2,0-0.4,0-0.7c-2.5,0.4-4.8,0.2-6.8-1.1
			c-2.2-1.3-3.7-3.2-3.9-5.9c-0.1-1.1-0.1-2.2-0.1-3.3c0-0.8-0.4-1.2-1.1-1.2c-1.1,0-2.2,0.1-3.3,0.3c-3.1,0.7-6,0.4-8.8-0.9
			c-0.4,0.9-0.8,1.8-1.2,2.7c2.6,1.2,5.4,2.3,8,3.6c4.2,2.1,7.8,4.9,10.4,8.9c1,1.6,1.6,3.3,1.9,5c0.5,2.6,0.9,5.3,1.2,8
			c0.2,1.5,0.1,3-0.1,4.5c-0.1-0.2-0.2-0.5-0.3-0.7c-0.9-4-1.7-8-2.8-11.9c-1.6-5.4-5-9.3-10-11.9c-3.6-1.9-7.5-3.2-11.5-4.2
			c-0.2,0-0.3-0.1-0.5-0.2c1.4-2,2.8-4,2.7-6.7c0.3,0.1,0.7,0.3,1,0.4c3.1,1,6.3,1.3,9.4,0.8c2.9-0.4,4.9-2.4,6.4-4.9
			c0.2-0.3,0.3-0.6,0.4-0.9c0.7-2.4,0.4-3-2.5-4.1c-2-0.8-4-1.4-6.1-2.2c-0.3-0.1-0.6-0.2-0.8-0.4c-2.4-2.4-5.5-3.6-8.6-4.8
			c-1.4-0.5-2.8-1-4.2-1.4c-0.6-0.2-1.3-0.3-1.9-0.4c-1.2-0.1-2,0.6-2.6,1.6c-1.8,3.2-3.5,6.4-5.3,9.5c-2.1,3.7-4.3,7.3-6.4,11
			c-0.8,1.5-1.8,3-1.4,4.8c0.2,1,0.7,2,1.2,2.9c2.9,4.6,5.7,9.2,8.7,13.6c3.7,5.3,8,10.2,12.6,14.7c0.3,0.3,0.5,0.6,0.9,0.9
			c1.2,0.9,1.2,2,1.1,3.4c-0.8,7.5-1.3,19.5-1.6,33.4c-0.4,17.9-0.5,39-0.5,57.8c8.3,3.2,16.9,6,25.8,8.2c4.6,1.3,9.4,2.5,14.3,3.5
			c-0.2-16.7-0.3-36.6-0.6-54.8c-0.3-19-0.7-36-1.3-45.5c-0.2-3.2,0.8-6,2-8.9c1-2.4,2.7-4.3,4-6.5c1.3-2.1,1.9-4.4,2.3-6.7
			c0.4-2.6,0.7-5.1,1.1-7.7c0.1-0.5,0-0.8-0.3-0.8C501.8,526.2,502.5,525.9,502.8,525.4z M474.2,512.4c-1.9,2.5-2.3,5.4-0.8,8.3
			c1,2.1,4.7,3.9,7.5,1.8c1.9-1.4,3.3-3.2,4.7-5c3.6-4.5,7.2-8.9,10.9-13.4c0.9-1.1,1.4-2.2,1.1-3.4c-0.1-1.9-0.5-3.5-1.6-4.7
			c-1.8-2-5.8-3.1-8.7-1.3c-2.1,1.3-3.6,3.2-4.8,5.4C480.1,504.4,477.2,508.4,474.2,512.4z M479.6,482.1c-3.2-0.9-6.8,0.5-8.4,3.7
			c-1.6,3.2-3.3,6.3-4.9,9.5c-0.5,1-0.9,2-1.4,3.1c1.3,0.4,2.5,0.7,3.6,1.2c1.4,0.6,2.8,1.2,4.1,1.9c1.5,0.8,1.9,2.1,1.3,3.8
			c-0.8,2.3-2.1,4.3-3.8,6.1c0.5,0.5,1.3,0.4,1.9-0.3c0.8-0.9,1.6-1.8,2.2-2.7c2.3-3.3,4.5-6.7,6.7-10.1c1.1-1.6,2.2-3.2,3.2-4.8
			C486.8,488.4,485.3,483.7,479.6,482.1z M501,505.8c-2.3-0.7-3.7,0.2-5.1,2c-3.8,5-7.7,10-11.7,14.9c-1.2,1.4-0.8,4,0.7,5.2
			c2.1,1.7,4.4,1.6,6.5-0.2c2.9-2.4,5.6-5,8.1-7.8c1.1-1.3,2.5-2.2,3.7-3.4c1.5-1.5,2.5-3.2,2.4-6.1
			C505.6,508.4,503.2,506.5,501,505.8z M466.7,478.7c-4-2.9-8.8-1.9-11.2,2.5c-1,1.9-1.8,4-2.6,6c-0.5,1.3-1,2.7-1.6,4
			c-0.3,0.6-0.1,0.9,0.5,1.1c2.5,1,4.9,1.9,7.4,3c0.9,0.4,1.7,1,2.6,1.6c0.2,0.2,0.5,0.3,0.9,0.5c2-3.4,4-7,5.6-10.6
			c0.4-0.9,0.9-1.7,1-2.7c0.2-1.7-0.5-3.4-1.7-4.6C467.3,479.1,467,478.9,466.7,478.7z M368.6,819.8v-46.5h-22.3v45.9
			c0,5.6-1.3,9.8-3.8,12.6c-2.6,2.8-6.7,4.2-12.4,4.2h-33.5c-5.6,0-9.6-1.3-11.9-4c-2.4-2.7-3.6-6.9-3.6-12.7v-45.9h-22.3v46.5
			c0,11.4,3.4,20.4,10.3,26.9c6.9,6.5,16.4,9.8,28.7,9.8h32.2c12-0.1,21.4-3.4,28.2-10C365.2,840,368.6,831.1,368.6,819.8z
			 M304.1,892.5h22.6v-22.3h-22.6V892.5z M690.4,708.9h-18.2v19.4h18.2V708.9z M659.4,757.9h17.8v-22.3h-17.8V757.9z M703.9,735.6
			h-18v22.3h18V735.6z M837.3,745.4v-41.7h-22.2H815v0c-11.4,0.7-20.6,3.8-27.6,9.4c-8,6.3-12,15-12,25.9v79.6h0.1v1.3
			c0,10.8-7.5,16.2-22.4,16.2h-15.7l-0.2-62.7h-22.1V836h-21.7v-62.7h-22.6V836H642v-62.7h-21.7V836h-22.4h-5.7h-29.9l22.6-19.6
			c0-13.1-4.4-23.9-13.3-32.6c-8.8-8.7-20.7-13-35.7-13c-15,0-26.8,4.3-35.7,13c-8.8,8.7-13.3,19.5-13.3,32.6l22.4,19.6h-29.9h-5.5
			h-15.7v-62.7h-36.8c-11.4,0-20.2,3.8-26.4,11.4c-6.2,7.6-9.3,18.5-9.3,32.6c0,7.1,1.1,13.4,3.3,18.7c2.2,5.3,5.1,9.4,8.8,12.3
			c3.7,2.8,7.5,4.9,11.4,6.2c3.9,1.3,8,2,12.3,2h13.4h2.1c-1.8,9.2-7,13.8-15.4,13.8h-3.5h-74.8v22.3h79.6c10.9,0,19.6-4,25.9-12
			c3.5-4.4,6-9.6,7.5-15.7c0.9-2.6,1.6-5.4,2-8.4h15.8h5.5h39c6.2,0,12-0.8,17.4-2.5c5.1,1.7,10.9,2.5,17.3,2.5h39h5.7h155.2h5v-0.1
			c11.4-0.7,20.7-3.8,27.7-9.4c8-6.3,12-15,12-25.9v-79.6h-0.1v-1.3c0-9.5,5.8-14.8,17.4-16v101.5v30.8h0.6c3.6-1.5,6.9-3.3,9.8-5.6
			c7.4-5.8,11.3-13.6,11.9-23.3c0.1-0.9,0.1-1.7,0.1-2.6L837.3,745.4L837.3,745.4z M436,836h-14.2c-4.4,0-7.8-1.8-10.2-5.3
			c-2.4-3.6-3.7-8-3.7-13.4c0-16,4.6-24,13.9-24H436V836z M535.9,832.8c-7-5.7-15.4-13.1-25.3-22.1c0.4-5.7,2.9-10.6,7.7-14.6
			c4.8-4,10.7-5.9,17.7-5.7c7.1,0.1,13,2.2,17.5,6.1c4.6,4,7,8.7,7.4,14.2L535.9,832.8z M274.1,751.9c-3.3,2.4-6.3,4.5-9.2,6.5
			c5.9,2.3,11.8,0.8,16.2-3.7c1.1-1.2,2.5-2.1,3.8-3.2c-0.1-0.1-0.4-0.5-0.8-0.9c6-6.3,12.8-11.2,20.9-14.3
			c-6.2,0.8-11.8,3.2-16.7,7c-1.2,0.9-2.4,2-3.6,2.9c-1.5,1.1-2.7,3-5.1,2c-0.6-0.3-1.6,0.4-2.6,0.7c-5-9-12.4-15-22.4-17.5
			c-3.6-0.9-7.2-1.3-11.3,0.2C256.7,733.9,265.9,741.7,274.1,751.9z M281.6,710.4c4.9,1.5,7.6,5.3,10.1,9.4c0.2,0.3,0.2,0.7,0.4,1.3
			c-2.9,2.2-5.7,4.3-8.5,6.4c6.8,2.2,17.9-0.9,22.5-6.8c1.4-1.7,3-1.6,4.8-1c-2.6-4.1-4.1-4.7-8.5-2.9c1.2-2.6,2-4.9,3.3-7
			c1.3-2.1,2.9-3.9,4.3-6c-5.9,2.2-9.1,7.3-13.3,12.1c-7.6-8.7-18.5-9-28.6-11.3c-0.1,0.2-0.1,0.3-0.2,0.5c2.5,1,4.9,2.1,7.4,3.1
			C277.3,708.8,279.4,709.7,281.6,710.4z M353.1,743.5c4.2-1.2,5.6-4.3,6.2-8.2c-3.2,4.1-7.8,5.5-12.5,6.8c-3,0.9-4.6,3-5.7,6.2
			c-2.7-5.4-7.6-5.6-12.3-6.5c-3.4-0.6-6.8-1.2-9.6-3.5c-0.5-0.4-1.2-0.6-1.9-0.7c1.4,2.5,3.2,4.1,5.9,5.2c3.5,1.3,6.7,3.3,10,5
			c0.8,0.4,1.6,1.1,2.4,1.6c-0.1,0.3-0.3,0.7-0.4,1c-3.4,1.4-6.8,2.8-10.3,4.2c2.9,0.5,6,1.1,9,1.4c5.4,0.5,10.6-0.2,14.9-4
			c0.9-0.8,2.2-1,3.3-1.5c-4.2-2.2-4.2-2.2-6.8-1.5C347.6,746.2,350.1,744.4,353.1,743.5z M397.3,702.2c-4,1-8.2,1.5-11.6,4
			c-2.5,1.8-5,3.7-7.4,5.6c-1.3,1-2.3,2.2-4.3,1.6c-0.7-0.2-1.5,0.3-2.6,0.5c-4.4-7.8-10.8-13.2-19.5-15.6c-3.4-1-6.9-1.3-10.5-0.1
			c11.6,2.3,19.9,9.4,27.4,18.6c-3,2.2-5.8,4.1-8.3,6c4.9,2.1,10.7,0.8,14.9-3.6c0.9-1,2.1-1.7,3.5-2.9c-0.2-0.1-0.7-0.3-1.5-0.6
			c3.6-2.8,6.5-5.5,9.8-7.7C390.3,705.9,393.9,704.2,397.3,702.2z M414.8,706.9c2.1-2.3,4.2-4.7,6.7-6.6c2.6-2,5.7-3.5,8.5-5.2
			c-4.9,0.6-9,3.1-12.7,6.3c-0.9,0.8-2.2,1.1-3.3,1.6c-2.2,1-2.8-0.9-3.8-2.1c-4.9-6.4-11.2-9.8-19.5-8.9c8,2,13.9,6.8,19.1,13.4
			c-2,1.5-3.8,2.9-5.8,4.5C408.2,711,411.8,710.3,414.8,706.9z M480.1,711.9c-2.5,0.8-5.1,1.6-7.6,2.6c-1.5,0.6-2.9,1.8-4.5,2.8
			c-1-2.5-3.8-3-6.4-3.9c-2.5-0.8-4.8-1.9-7.2-2.9c0.5,1.6,2.1,2.4,3.8,3.3c2.3,1.3,4.4,2.7,6.6,4.1c-0.1,0.3-0.2,0.6-0.2,1
			c-2,0.7-4.1,1.3-6.2,2c5.5,2,11,2.9,16.2-1.3c-0.9-0.5-2-1-3.4-1.7c1.7-0.7,3.2-1.7,4.9-2.1C478.5,715.2,479.5,713.6,480.1,711.9z
			"/>
	</g>
</g>
</svg>
