<svg width="650" height="252" viewBox="0 0 650 252" fill="none" xmlns="http://www.w3.org/2000/svg">
<mask id="mask0_2070_1696" style="mask-type:alpha" maskUnits="userSpaceOnUse" x="397" y="0" width="253" height="252">
<circle cx="523.441" cy="126" r="126" fill="#A51C1D"/>
</mask>
<g mask="url(#mask0_2070_1696)">
<circle cx="523.441" cy="126" r="126" fill="#A91916"/>
<g filter="url(#filter0_d_2070_1696)">
<path d="M530.711 251.794V0.206543C596.916 3.97241 649.441 58.8524 649.441 126C649.441 193.148 596.916 248.028 530.711 251.794Z" fill="#A91916"/>
<path d="M530.71 0.22784V251.774C530.71 251.774 466.71 185.861 453.175 169.624C439.639 153.387 436.209 140.198 436.209 123.407C436.209 106.616 441.062 89.6711 453.175 75.1244C465.288 60.5776 530.71 0.22784 530.71 0.22784Z" fill="#A91916"/>
</g>
<path fill-rule="evenodd" clip-rule="evenodd" d="M714.866 125.794C714.866 192.942 662.34 247.822 596.135 251.588V0C662.34 3.76586 714.866 58.6458 714.866 125.794ZM596.134 0.0219727V251.568C596.134 251.568 530.718 181.336 518.599 169.418C516.788 167.637 514.76 165.743 512.62 163.745C500.448 152.376 484.672 137.642 484.672 121.155C484.672 105.53 499.71 92.0588 511.189 81.7749C513.951 79.3 516.508 77.0097 518.599 74.9185C529.38 64.1374 596.134 0.0219727 596.134 0.0219727Z" fill="white"/>
<path fill-rule="evenodd" clip-rule="evenodd" d="M729.405 125.794C729.405 192.942 676.879 247.822 610.674 251.588V0C676.879 3.76586 729.405 58.6458 729.405 125.794ZM610.672 0.0219727V251.568C610.672 251.568 546.673 185.655 533.138 169.418C519.602 153.182 516.172 139.992 516.172 123.201C516.172 106.41 521.025 89.4652 533.138 74.9185C545.25 60.3717 610.672 0.0219727 610.672 0.0219727Z" fill="#A91916"/>
<path fill-rule="evenodd" clip-rule="evenodd" d="M797.25 125.794C797.25 192.942 744.725 247.822 678.52 251.588V0C744.725 3.76586 797.25 58.6458 797.25 125.794ZM678.518 0.0219727V251.568C678.518 251.568 614.156 182.956 600.983 169.418C598.543 166.91 595.842 164.341 593.062 161.695C580.833 150.058 567.057 136.948 567.057 121.155C567.057 105.663 580.99 93.1374 592.768 82.5494C595.728 79.8889 598.551 77.3507 600.983 74.9185C613.095 62.8067 678.518 0.0219727 678.518 0.0219727Z" fill="white"/>
<path fill-rule="evenodd" clip-rule="evenodd" d="M751.209 19.3843V230.192C685.004 226.426 593.709 188.095 593.709 120.947C593.709 53.7993 685.004 23.1501 751.209 19.3843Z" fill="#A91916"/>
<g opacity="0.6" filter="url(#filter1_f_2070_1696)">
<ellipse cx="558.312" cy="51.5664" rx="33.0942" ry="9.69231" transform="rotate(36.1128 558.312 51.5664)" fill="white"/>
</g>
<g opacity="0.1" filter="url(#filter2_f_2070_1696)">
<ellipse cx="540.939" cy="93.0131" rx="87.0367" ry="21.2129" transform="rotate(20.3895 540.939 93.0131)" fill="black"/>
</g>
</g>
<path d="M20.1375 101.769C23.4975 100.993 28.1499 100.606 34.0945 100.606C49.9899 100.606 62.7837 105.581 72.476 115.532C81.1345 124.449 85.4637 135.756 85.4637 149.455V158.953C85.4637 162.572 85.5283 165.286 85.6575 167.095H90.5037V192.101H87.9837L80.8114 183.184H80.2299C79.0668 184.476 78.0329 185.575 77.1283 186.479C72.6052 190.098 67.5006 191.972 61.8145 192.101H0.559082V167.095H52.8975C54.7068 167.095 55.6114 166.19 55.6114 164.381V151.781C55.6114 143.898 53.156 137.436 48.2452 132.396C43.4637 127.356 37.196 124.836 29.4422 124.836C25.436 124.836 22.3345 125.095 20.1375 125.612V101.769Z" fill="black"/>
<path d="M166.884 60.2856C171.148 60.2856 174.702 61.7717 177.545 64.7441C180.517 67.5871 182.004 71.141 182.004 75.4056C182.004 79.541 180.517 83.0948 177.545 86.0671C174.702 89.0394 171.148 90.5256 166.884 90.5256C162.748 90.5256 159.194 89.0394 156.222 86.0671C153.25 83.0948 151.764 79.541 151.764 75.4056C151.764 71.2702 153.25 67.7164 156.222 64.7441C159.194 61.7717 162.748 60.2856 166.884 60.2856ZM113.964 139.181C118.745 124.966 127.145 114.627 139.164 108.166C147.693 103.384 157.579 100.993 168.822 100.993C179.419 100.993 188.982 103.836 197.511 109.523C207.85 116.113 215.281 125.999 219.804 139.181L217.477 145.19C214.505 146.87 210.564 150.036 205.653 154.689C201.001 159.341 197.576 163.476 195.379 167.095H221.742V192.101H176.188C173.087 192.101 170.114 190.55 167.271 187.449H166.496C163.653 190.55 160.487 192.101 156.997 192.101H87.019V167.095H138.388C136.321 163.476 132.961 159.47 128.308 155.076C123.268 150.036 119.262 146.741 116.29 145.19L113.964 139.181ZM188.982 138.018C187.044 133.366 183.425 130.006 178.127 127.938C174.896 126.646 171.342 125.999 167.465 125.999C162.425 125.999 157.902 126.904 153.896 128.713C149.373 130.781 146.336 133.883 144.785 138.018C147.37 139.569 151.053 143.123 155.834 148.679C161.262 154.883 164.751 159.923 166.302 163.799H167.465C169.274 159.276 173.087 153.913 178.902 147.71C183.167 142.799 186.527 139.569 188.982 138.018Z" fill="black"/>
<path d="M283.284 53.3071V168.064C283.284 173.75 281.474 178.855 277.856 183.378C272.945 189.193 266.678 192.101 259.053 192.101H218.539V167.095H250.524C251.299 167.095 251.945 166.901 252.462 166.513C253.108 165.996 253.431 165.286 253.431 164.381V53.3071H283.284Z" fill="black"/>
<path d="M338.029 53.3071V184.735L322.909 196.947H308.176V53.3071H338.029Z" fill="black"/>
<defs>
<filter id="filter0_d_2070_1696" x="411.979" y="-19.1781" width="252.001" height="290.357" filterUnits="userSpaceOnUse" color-interpolation-filters="sRGB">
<feFlood flood-opacity="0" result="BackgroundImageFix"/>
<feColorMatrix in="SourceAlpha" type="matrix" values="0 0 0 0 0 0 0 0 0 0 0 0 0 0 0 0 0 0 127 0" result="hardAlpha"/>
<feOffset dx="-4.84615"/>
<feGaussianBlur stdDeviation="9.69231"/>
<feComposite in2="hardAlpha" operator="out"/>
<feColorMatrix type="matrix" values="0 0 0 0 0 0 0 0 0 0 0 0 0 0 0 0 0 0 0.7 0"/>
<feBlend mode="normal" in2="BackgroundImageFix" result="effect1_dropShadow_2070_1696"/>
<feBlend mode="normal" in="SourceGraphic" in2="effect1_dropShadow_2070_1696" result="shape"/>
</filter>
<filter id="filter1_f_2070_1696" x="497.045" y="-3.38011" width="122.535" height="109.893" filterUnits="userSpaceOnUse" color-interpolation-filters="sRGB">
<feFlood flood-opacity="0" result="BackgroundImageFix"/>
<feBlend mode="normal" in="SourceGraphic" in2="BackgroundImageFix" result="shape"/>
<feGaussianBlur stdDeviation="16.9615" result="effect1_foregroundBlur_2070_1696"/>
</filter>
<filter id="filter2_f_2070_1696" x="420.247" y="17.9783" width="241.384" height="150.069" filterUnits="userSpaceOnUse" color-interpolation-filters="sRGB">
<feFlood flood-opacity="0" result="BackgroundImageFix"/>
<feBlend mode="normal" in="SourceGraphic" in2="BackgroundImageFix" result="shape"/>
<feGaussianBlur stdDeviation="19.3846" result="effect1_foregroundBlur_2070_1696"/>
</filter>
</defs>
</svg>
