<?xml version="1.0" standalone="no"?><!-- Generator: Gravit.io --><svg xmlns="http://www.w3.org/2000/svg" xmlns:xlink="http://www.w3.org/1999/xlink" style="isolation:isolate" viewBox="0 0 1594.135 398.255" width="1594.135" height="398.255"><defs><clipPath id="_clipPath_3ez2MA85h00YkRSxiBwU5cRysvu1GjyC"><rect width="1594" height="398"/></clipPath></defs><g clip-path="url(#_clipPath_3ez2MA85h00YkRSxiBwU5cRysvu1GjyC)"><path d=" M 133 223 C 123 217 113 214 93 214 C 70 214 59 224 59 242 C 59 257 68 271 93 271 C 112 271 127 262 133 251 L 133 223 Z  M 133 316 L 133 301 C 123 312 104 321 83 321 C 42 321 0 296 0 242 C 0 192 40 168 90 168 C 111 168 124 172 133 177 L 133 166 C 133 150 123 137 101 137 C 75 137 61 141 40 152 L 18 111 C 44 96 65 89 101 89 C 155 89 192 117 192 167 L 192 316 L 133 316" fill-rule="evenodd" fill="rgb(0,59,91)"/><path d=" M 241 316 L 241 36 L 299 7 L 299 316 L 241 316 Z " fill="rgb(0,59,91)"/><path d=" M 350 316 L 350 36 L 408 7 L 408 316 L 350 316 Z " fill="rgb(0,59,91)"/><path d=" M 582 163 C 573 151 559 144 542 144 C 520 144 508 163 508 201 C 508 247 523 266 546 266 C 564 266 573 258 582 247 L 582 163 Z  M 545 398 L 524 354 C 570 348 582 337 582 302 C 571 312 556 321 535 321 C 487 321 448 285 448 202 C 448 135 480 89 535 89 C 554 89 571 96 582 106 L 582 93 L 640 93 L 640 279 C 640 352 623 390 545 398 Z " fill-rule="evenodd" fill="rgb(0,59,91)"/><path d=" M 824 66 C 806 66 791 51 791 33 C 791 15 806 0 824 0 C 842 0 857 15 857 33 C 857 51 842 66 824 66 Z  M 811 223 C 801 217 791 214 770 214 C 748 214 736 224 736 242 C 736 257 745 271 770 271 C 789 271 805 262 811 251 L 811 223 Z  M 732 66 C 714 66 699 51 699 33 C 699 15 714 0 732 0 C 750 0 765 15 765 33 C 765 51 750 66 732 66 Z  M 811 316 L 811 301 C 800 312 782 321 761 321 C 719 321 678 296 678 242 C 678 192 718 168 768 168 C 788 168 802 172 811 177 L 811 166 C 811 150 800 137 779 137 C 752 137 738 141 718 152 L 695 111 C 721 96 743 89 779 89 C 833 89 870 117 870 167 L 870 316 L 811 316" fill-rule="evenodd" fill="rgb(0,59,91)"/><path d=" M 1049 316 L 1049 301 C 1039 312 1020 321 997 321 C 940 321 914 282 914 219 L 914 93 L 973 93 L 973 214 C 973 254 987 266 1011 266 C 1035 266 1049 254 1049 215 L 1049 93 L 1108 93 L 1108 316 L 1049 316" fill="rgb(0,59,91)"/><path d=" M 1171 229 C 1164 229 1158 230 1151 232 L 1151 316 L 1122 362 C 1135 373 1153 380 1171 380 C 1213 380 1247 346 1247 305 C 1247 263 1213 229 1171 229" fill="rgb(250,174,0)"/><path d=" M 1531 93 L 1499 197 C 1493 214 1487 234 1485 245 C 1482 235 1476 214 1471 197 L 1438 93 L 1328 93 L 1328 7 L 1269 36 L 1269 93 L 1232 93 L 1232 149 L 1269 149 L 1269 254 C 1269 293 1293 321 1329 321 C 1347 321 1364 315 1374 307 L 1383 248 C 1368 260 1360 265 1350 265 C 1336 265 1328 259 1328 238 L 1328 149 L 1393 149 L 1454 316 L 1514 316 L 1594 93 L 1531 93" fill="rgb(250,174,0)"/><path d=" M 1202 305 C 1202 322 1188 335 1171 335 C 1154 335 1140 322 1140 305 C 1140 288 1154 274 1171 274 C 1188 274 1202 288 1202 305 Z " fill="rgb(0,59,91)"/></g></svg>