<?xml version="1.0" encoding="UTF-8"?> <svg xmlns="http://www.w3.org/2000/svg" width="2103" height="610" viewBox="0 0 2103 610" fill="none"> <path d="M113.352 500.718C136.665 524.138 165.967 535.831 201.257 535.831C236.548 535.831 265.779 524.138 288.986 500.718C312.175 477.298 323.761 447.925 323.761 412.652C323.761 377.362 312.175 348.06 288.986 324.729C265.779 301.433 236.548 289.776 201.257 289.776C165.967 289.776 136.665 301.504 113.352 324.924C90.0559 348.327 78.3991 377.575 78.3991 412.652C78.3991 447.925 90.0559 477.298 113.352 500.718ZM341.761 224.971L401.164 225.291V600.334H339.06L331.579 554.844C314.396 572.276 294.139 585.781 270.843 595.394C247.529 605.007 222.421 609.823 195.482 609.823C158.842 609.823 125.577 601.276 95.7066 584.182C65.8538 567.123 42.4336 543.472 25.4637 513.281C8.49383 483.073 0 449.524 0 412.652C0 375.532 8.49383 342.019 25.4637 312.024C42.4336 282.047 65.8538 258.573 95.7066 241.585C125.577 224.633 158.842 216.139 195.482 216.139C222.652 216.139 247.974 221.008 271.5 230.746C295.045 240.484 315.409 254.273 332.592 272.131L341.761 224.971Z" fill="#1CABC4"></path> <path d="M511.107 90.8992H588.156V600.671H511.107V90.8992Z" fill="#1CABC4"></path> <path d="M1117.26 216.831C1156.63 216.831 1188.57 230.389 1213.12 257.558C1237.68 284.692 1249.96 319.538 1249.96 362.079V600.67H1172.91V381.092C1172.91 350.759 1166.59 327.339 1153.93 310.814C1141.25 294.323 1123.25 286.043 1099.95 286.043C1074.84 286.043 1053.84 296.349 1036.99 316.944C1020.13 337.539 1011.72 363.66 1011.72 395.343V600.67H936.364V381.092C936.364 350.759 930.091 327.339 917.546 310.814C904.983 294.323 886.929 286.043 863.402 286.043C838.294 286.043 817.255 296.349 800.267 316.944C783.297 337.539 774.821 363.66 774.821 395.343V600.67H697.791V225.289H752.414L765.652 273.835C779.903 255.959 797.282 241.992 817.77 231.917C838.223 221.859 859.795 216.831 882.398 216.831C907.524 216.831 929.86 222.641 949.442 234.28C969.007 245.955 984.217 262.072 995.074 282.649C1008.88 262.303 1026.51 246.239 1048.01 234.458C1069.51 222.695 1092.59 216.831 1117.26 216.831Z" fill="#1CABC4"></path> <path d="M1440.36 500.718C1463.64 524.138 1492.94 535.831 1528.27 535.831C1563.54 535.831 1592.77 524.138 1615.99 500.718C1639.17 477.298 1650.75 447.925 1650.75 412.652C1650.75 377.362 1639.17 348.06 1615.99 324.729C1592.77 301.433 1563.54 289.776 1528.27 289.776C1492.94 289.776 1463.64 301.504 1440.36 324.924C1417.05 348.327 1405.41 377.575 1405.41 412.652C1405.41 447.925 1417.05 477.298 1440.36 500.718ZM1668.75 224.971L1728.16 225.291V600.334H1666.05L1658.57 554.844C1641.37 572.276 1621.13 585.781 1597.83 595.394C1574.52 605.007 1549.41 609.823 1522.47 609.823C1485.85 609.823 1452.57 601.276 1422.7 584.182C1392.83 567.123 1369.43 543.472 1352.46 513.281C1335.47 483.073 1326.99 449.524 1326.99 412.652C1326.99 375.532 1335.47 342.019 1352.46 312.024C1369.43 282.047 1392.83 258.573 1422.7 241.585C1452.57 224.633 1485.85 216.139 1522.47 216.139C1549.64 216.139 1574.95 221.008 1598.49 230.746C1622.02 240.484 1642.38 254.273 1659.58 272.131L1668.75 224.971Z" fill="#1CABC4"></path> <path d="M260.538 0.309082C255.402 46.7586 270.951 86.5445 301.443 120.52C327.369 149.378 360.207 165.939 399.318 165.939C402.339 149.751 401.681 133.936 397.132 118.583C378.865 57.0827 337.977 18.9315 276.211 2.70797C270.24 1.14425 266.651 0.309082 260.538 0.309082Z" fill="#9BC32C"></path> <path d="M1837.71 34.6042H1804.33C1801.79 34.6042 1799.93 32.5252 1799.93 30.1796V4.75146C1799.93 2.40588 1801.79 0.309082 1804.33 0.309082H1907.97C1910.51 0.309082 1912.39 2.40588 1912.39 4.75146V30.1796C1912.39 32.5252 1910.51 34.6042 1907.97 34.6042H1874.59V159.186C1874.59 161.55 1872.5 163.629 1870.12 163.629H1842.13C1839.78 163.629 1837.71 161.55 1837.71 159.186V34.6042Z" fill="#1CABC4"></path> <path d="M1945.18 6.40402C1943.83 3.34767 1945.69 0.309082 1949.19 0.309082H1980.18C1982.07 0.309082 1983.68 1.6951 1984.15 2.88566L2022.69 88.0372H2024.09L2062.56 2.88566C2063.04 1.6951 2064.64 0.309082 2066.58 0.309082H2097.57C2101.09 0.309082 2102.95 3.34767 2101.51 6.40402L2028.27 163.398C2027.59 164.784 2026.17 165.956 2024.3 165.956H2021.99C2020.11 165.956 2018.72 164.784 2018.03 163.398L1945.18 6.40402Z" fill="#1CABC4"></path> </svg> 