<?xml version="1.0" encoding="UTF-8"?> <!-- Generator: Adobe Illustrator 22.1.0, SVG Export Plug-In . SVG Version: 6.00 Build 0) --> <svg xmlns="http://www.w3.org/2000/svg" xmlns:xlink="http://www.w3.org/1999/xlink" id="Livello_1" x="0px" y="0px" viewBox="0 0 240 100" style="enable-background:new 0 0 240 100;" xml:space="preserve"> <style type="text/css"> .st0{fill:#122f4e;} </style> <g> <path class="st0" d="M125.4,44.3c-2.3,0-4.2,0.9-5.9,2.6c-1.7,1.7-2.5,4.1-2.5,7.3s0.8,5.6,2.3,7.6c1.6,1.9,3.5,2.9,5.9,2.9 c2.4,0,4.3-0.9,5.8-2.7c1.5-1.8,2.2-4.3,2.2-7.5c0-3.2-0.7-5.7-2.2-7.4C129.6,45.2,127.7,44.3,125.4,44.3z"></path> <path class="st0" d="M50.3,53.9h11.9c-3.3-11.2-5.3-18.5-5.9-22C56,34,54,41.3,50.3,53.9z"></path> <path class="st0" d="M7.8,5.4v89.3H224V26.7h-21l29.3-21.4H7.8z M67.9,73.1l-3-10.1H47.6l-3,10.1H32.8l16.5-49.4h14.2L80,73.1H67.9 z M97.2,73.1H86.5V21.2h10.7V73.1z M140,68.1c-2.8,3.6-6.7,5.4-11.7,5.4c-5,0-8.7-2-11.2-5.9v19.2h-10.7V35.9H117v5.7 c2.6-4.1,6.3-6.2,11.1-6.2c4.8,0,8.7,1.7,11.6,5.1c2.9,3.4,4.4,7.9,4.4,13.6S142.8,64.5,140,68.1z M180.5,73.1h-10.5v-4.5 c-1.6,3.2-4.6,4.8-9.2,4.8c-3.6,0-6.4-1-8.5-3.1c-2-2.1-3-4.7-3-8.1c0-3.3,1.3-6,3.9-8c2.6-2,6.5-3,11.6-3h4.7v-2.6 c0-3.1-2-4.7-6.1-4.7c-4.1,0-7.8,1.1-11.3,3.4v-9.6c2.9-1.7,7.1-2.5,12.5-2.5c5.4,0,9.4,1.1,12,3.4c2.6,2.3,3.9,5.8,3.9,10.6V73.1z "></path> <path class="st0" d="M161.9,59c-1,0.8-1.5,1.8-1.5,3c0,2.5,1.4,3.7,4.3,3.7c1.5,0,2.7-0.5,3.5-1.4c0.8-0.9,1.2-2.2,1.2-3.8v-2.7 h-3.4C164.3,57.8,162.9,58.2,161.9,59z"></path> </g> </svg> 