<?xml version="1.0" encoding="utf-8"?>
<!-- Generator: Adobe Illustrator 22.1.0, SVG Export Plug-In . SVG Version: 6.00 Build 0)  -->
<svg version="1.1" id="Layer_1" xmlns="http://www.w3.org/2000/svg" xmlns:xlink="http://www.w3.org/1999/xlink" x="0px" y="0px"
	 viewBox="0 0 71.4 103.1" style="enable-background:new 0 0 71.4 103.1;" xml:space="preserve">
<style type="text/css">
	.st0{fill:#10141c;}
</style>
<g>
	<g>
		<path class="st0" d="M2.8,86.4v6.9l5.8-7c0.1-0.2,0.3-0.3,0.6-0.3h1.8c0.1,0,0.2,0.1,0.2,0.2c0,0.1,0,0.2-0.1,0.4l-5.3,6.6
			l6.1,9.4c0.1,0.1,0.1,0.3,0.1,0.4c0,0.1-0.1,0.2-0.2,0.2H9.9c-0.2,0-0.4-0.1-0.6-0.3l-5.1-7.9l-1.5,1.7v6c0,0.2-0.1,0.3-0.3,0.3
			H1.1c-0.1,0-0.2,0-0.2-0.1c-0.1-0.1-0.1-0.1-0.1-0.2V86.5c0-0.1,0-0.2,0.1-0.3c0.1-0.1,0.1-0.1,0.2-0.1h1.4c0.1,0,0.2,0,0.2,0.1
			C2.7,86.3,2.8,86.4,2.8,86.4z"/>
		<path class="st0" d="M11.9,86.5c-0.1-0.1-0.1-0.3,0-0.3c0.1-0.1,0.2-0.1,0.3-0.1h1.3c0.2,0,0.4,0.1,0.5,0.4l3.5,7.5l3.5-7.5
			c0.1-0.2,0.2-0.3,0.3-0.3c0.1,0,0.2-0.1,0.3-0.1h1.3c0.1,0,0.2,0,0.2,0.1c0.1,0.1,0.1,0.2,0,0.3l-4.6,9.5v6.6c0,0.1,0,0.2-0.1,0.2
			c-0.1,0.1-0.1,0.1-0.2,0.1h-1.4c-0.1,0-0.2,0-0.2-0.1c-0.1-0.1-0.1-0.1-0.1-0.2v-6.6L11.9,86.5z"/>
		<path class="st0" d="M26.6,88v14.7c0,0.1,0,0.2-0.1,0.3c-0.1,0.1-0.1,0.1-0.2,0.1h-1.4c-0.1,0-0.2,0-0.2-0.1
			c-0.1-0.1-0.1-0.2-0.1-0.3V86.5c0-0.1,0-0.2,0.1-0.2c0.1-0.1,0.1-0.1,0.2-0.1h9.7c0.1,0,0.2,0,0.2,0.1c0.1,0,0.1,0.1,0.1,0.2v16.2
			c0,0.1,0,0.2-0.1,0.3c-0.1,0.1-0.1,0.1-0.2,0.1h-1.4c-0.1,0-0.2,0-0.2-0.1c-0.1-0.1-0.1-0.2-0.1-0.3V88H26.6z"/>
		<path class="st0" d="M37.5,103.1c-0.1,0-0.2,0-0.2-0.1c-0.1-0.1-0.1-0.2-0.1-0.3V86.5c0-0.1,0-0.2,0.1-0.3
			c0.1-0.1,0.1-0.1,0.2-0.1h4.9c0.4,0,0.7,0,1.1,0c0.4,0,0.7,0.1,1.1,0.2c0.3,0.1,0.7,0.2,1,0.4c0.3,0.2,0.6,0.4,0.9,0.7
			c0.4,0.5,0.7,1.1,0.9,1.8c0.2,0.7,0.3,1.4,0.3,2.1c0,1-0.2,1.8-0.5,2.5c-0.3,0.7-0.8,1.2-1.4,1.6c-0.4,0.3-0.9,0.5-1.5,0.6
			c-0.5,0.1-1.1,0.2-1.7,0.2h-3.3v6.4c0,0.1,0,0.2-0.1,0.2c0,0.1-0.1,0.1-0.3,0.1H37.5z M42.4,94.3c0.5,0,0.9,0,1.3-0.1
			c0.4-0.1,0.7-0.3,1-0.5c0.3-0.2,0.5-0.5,0.7-0.9c0.2-0.4,0.2-0.9,0.2-1.4c0-0.6-0.1-1.2-0.2-1.6c-0.2-0.4-0.4-0.8-0.6-1
			c-0.3-0.3-0.6-0.5-1-0.6C43.3,88,42.9,88,42.4,88h-1.6h-1.6v6.3H42.4z"/>
		<path class="st0" d="M49,94.6L49,94.6c0-0.2,0-0.5,0-0.8c0-0.3,0-0.7,0-1.1c0-0.4,0-0.8,0.1-1.2c0-0.4,0-0.8,0.1-1.2
			c0-0.4,0.1-0.7,0.2-1.1c0.1-0.3,0.2-0.6,0.3-0.9c0.2-0.6,0.7-1.2,1.3-1.6c0.5-0.3,1-0.5,1.6-0.6c0.6-0.1,1.2-0.1,1.8-0.1
			c0.6,0,1.3,0,1.8,0.1c0.6,0.1,1.1,0.3,1.6,0.6c0.3,0.2,0.6,0.5,0.8,0.7c0.2,0.3,0.4,0.5,0.5,0.8c0.1,0.3,0.3,0.7,0.3,1.1
			c0.1,0.4,0.1,0.8,0.1,1.2c0,0.4,0.1,0.7,0.1,1.1c0,0.4,0,0.7,0,1.1c0,0.4,0,0.7,0,1c0,0.3,0,0.5,0,0.7c0,0.2,0,0.5,0,0.8
			c0,0.4,0,0.7,0,1.2c0,0.4,0,0.8-0.1,1.3c0,0.4-0.1,0.9-0.1,1.3c-0.1,0.6-0.2,1.2-0.4,1.7c-0.1,0.3-0.3,0.6-0.5,0.9
			c-0.2,0.3-0.5,0.5-0.8,0.8c-0.5,0.4-1.1,0.6-1.7,0.7c-0.6,0.1-1.2,0.1-1.7,0.1c-0.3,0-0.5,0-0.8,0c-0.3,0-0.6,0-0.9-0.1
			c-0.3,0-0.6-0.1-0.8-0.2c-0.3-0.1-0.6-0.2-0.8-0.4c-0.5-0.4-0.9-0.8-1.2-1.3c-0.2-0.5-0.4-1.1-0.5-1.7c0-0.4-0.1-0.8-0.1-1.3
			c0-0.5-0.1-0.9-0.1-1.3c0-0.4,0-0.8,0-1.2C49,95.1,49,94.8,49,94.6L49,94.6z M57.3,89.7c-0.1-0.4-0.3-0.8-0.6-1.1
			c-0.4-0.3-0.7-0.5-1.1-0.6c-0.4-0.1-0.8-0.1-1.3-0.1c-0.4,0-0.8,0-1.2,0.1c-0.4,0.1-0.8,0.3-1.1,0.6c-0.2,0.2-0.3,0.3-0.4,0.5
			c-0.1,0.2-0.2,0.4-0.2,0.6c-0.1,0.3-0.1,0.6-0.1,1.1c0,0.5-0.1,0.9-0.1,1.4c0,0.5,0,0.9,0,1.4c0,0.4,0,0.8,0,1c0,0.2,0,0.6,0,1
			c0,0.5,0,1,0,1.5c0,0.5,0,1,0.1,1.4c0,0.4,0.1,0.7,0.1,0.9c0.1,0.2,0.2,0.4,0.3,0.6c0.1,0.2,0.2,0.4,0.4,0.5
			c0.4,0.3,0.7,0.5,1.1,0.6c0.4,0.1,0.8,0.1,1.2,0.1c0.5,0,0.9,0,1.3-0.1c0.4-0.1,0.8-0.3,1.1-0.6c0.3-0.3,0.5-0.7,0.6-1.2
			c0-0.2,0.1-0.5,0.1-0.9c0-0.4,0.1-0.9,0.1-1.4c0-0.5,0-1,0-1.4c0-0.5,0-0.8,0-1c0-0.2,0-0.5,0-1c0-0.5,0-1,0-1.5
			c0-0.5,0-1-0.1-1.4C57.3,90.2,57.3,89.9,57.3,89.7z"/>
		<path class="st0" d="M60.2,86.5c-0.1-0.1-0.1-0.3,0-0.3c0.1-0.1,0.2-0.1,0.3-0.1h1.3c0.2,0,0.4,0.1,0.5,0.4l3.5,7.5l3.5-7.5
			c0.1-0.2,0.2-0.3,0.3-0.3c0.1,0,0.2-0.1,0.3-0.1h1.3c0.1,0,0.2,0,0.2,0.1c0.1,0.1,0.1,0.2,0,0.3l-4.6,9.5v6.6c0,0.1,0,0.2-0.1,0.2
			c-0.1,0.1-0.1,0.1-0.2,0.1h-1.4c-0.1,0-0.2,0-0.2-0.1c-0.1-0.1-0.1-0.1-0.1-0.2v-6.6L60.2,86.5z"/>
	</g>
	<path class="st0" d="M71.2,53.8c-0.5-1.6-1.7-2.9-2.5-4.3C60.1,36.1,51.8,23.3,43.2,10C40.1,5.3,37.4-0.5,29.6,0
		c-1.7,0.1-3.6,0.6-5.4,1c-1.7,0.4-3.5,0.8-5.2,1.2c-3.5,0.8-7.3,1.3-8.9,3.9c-0.8,1.2-1.1,3.1-1.4,5c-0.6,4.5-1.3,8.9-1.9,13.4
		c-2,14.3-3.9,28.7-6,43.1c-0.3,2.1-0.2,4.2,0.6,5.4c1.4,1.9,4.5,1,6.7,0.5c3.3-0.7,7.4-1.1,9.7-2.9c3.3-2.6,3.3-7.6,4.1-12.7
		c-1.1,0.2-2.1,0.5-3.4,0.8c-0.9,0.2-2.6,0.8-3.5,0.2c-1.1-0.7-0.5-3.2-0.3-4.7c1-8,2.2-16.2,3.3-24.2c0.5-3.8,1.1-7.6,1.5-11.3
		c3.7,5.8,7.7,11.8,11.3,17.6c0.2,0.4,0.5,0.8,0.7,1.2c-8.4,1-7.3,11.5-8.7,19.4c6.2-1.4,12.4-2.8,18.6-4.2
		c3.5,4.4,4.9,10.9,12.9,10.6c1.7-0.1,3.3-0.6,4.9-1c1.6-0.4,3.3-0.8,4.8-1.1c1.7-0.4,3.2-0.6,4.5-1.4c1.2-0.8,2.4-2.1,2.8-3.7
		C71.5,55.4,71.5,54.6,71.2,53.8z"/>
</g>
</svg>
