<?xml version="1.0" encoding="UTF-8"?>
<svg xmlns="http://www.w3.org/2000/svg" width="340" height="96" viewBox="0 0 340 96" fill="none">
  <path d="M121 96H124.275L125.306 93.9692H132.004L133.035 96H136.31L128.692 80.6769L121 96ZM126.594 91.3477L128.618 87.2862L130.642 91.3477H126.594Z" fill="black"></path>
  <path d="M139.659 80.6769V96H142.824V87.9877L146.983 91.7908L151.178 87.9877V96H154.344V80.6769L146.946 87.5077L139.659 80.6769Z" fill="black"></path>
  <path d="M163.618 89.9815H170.022V87.0277H163.618V84.1846H170.721V81.2308H160.453V96H170.831V93.0462H163.618V89.9815Z" fill="black"></path>
  <path d="M181.026 81.2308H176.168V96H180.878C185.626 96 188.791 93.0092 188.791 88.6892C188.791 84.3323 185.847 81.2308 181.026 81.2308ZM181.21 93.0462H179.37V84.1846H181.246C183.823 84.1846 185.626 85.8092 185.626 88.6154C185.626 91.4215 183.749 93.0462 181.21 93.0462Z" fill="black"></path>
  <path d="M192.508 84.1846H195.489V93.0462H192.508V96H201.635V93.0462H198.654V84.1846H201.635V81.2308H192.508V84.1846Z" fill="black"></path>
  <path d="M212.308 80.6769L204.69 96H207.965L208.996 93.9692H215.694L216.725 96H220L212.308 80.6769ZM210.284 91.3477L212.308 87.2862L214.332 91.3477H210.284Z" fill="black"></path>
  <path d="M163.728 16.7261C163.728 12.1846 160.122 8.45538 155.484 8.45538C150.958 8.45538 147.351 12.1846 147.351 16.7261C147.351 21.1569 150.958 24.8862 155.484 24.8862C160.122 24.8862 163.728 21.1569 163.728 16.7261ZM171.751 0C164.317 0 158.613 2.10462 155.006 4.32C156.625 3.80308 158.723 3.32308 161.52 3.32308C170.242 3.32308 178.265 8.56615 178.265 20.64C178.265 37.0708 160.894 50.3631 160.894 50.3631C173.039 44.3077 191.515 34.1538 191.515 19.1631C191.515 6.94154 183.712 0 171.751 0ZM158.208 54.8677L145.768 66.4615H194.459V54.8677H158.208Z" fill="black"></path>
</svg>
