<?xml version="1.0" encoding="UTF-8"?>
<svg xmlns="http://www.w3.org/2000/svg" width="100" height="96" viewBox="0 0 100 96" fill="none">
  <path d="M0 96H3.30856L4.34945 93.9692H11.1152L12.1561 96H15.4647L7.76953 80.6769L0 96ZM5.65056 91.3477L7.69517 87.2862L9.73978 91.3477H5.65056Z" fill="black"></path>
  <path d="M18.8476 80.6769V96H22.0446V87.9877L26.2454 91.7908L30.4833 87.9877V96H33.6803V80.6769L26.2082 87.5077L18.8476 80.6769Z" fill="black"></path>
  <path d="M43.0483 89.9815H49.5167V87.0277H43.0483V84.1846H50.2231V81.2308H39.8513V96H50.3346V93.0462H43.0483V89.9815Z" fill="black"></path>
  <path d="M60.632 81.2308H55.7249V96H60.4833C65.2788 96 68.4758 93.0092 68.4758 88.6892C68.4758 84.3323 65.5019 81.2308 60.632 81.2308ZM60.8179 93.0462H58.9591V84.1846H60.855C63.4572 84.1846 65.2788 85.8092 65.2788 88.6154C65.2788 91.4215 63.3829 93.0462 60.8179 93.0462Z" fill="black"></path>
  <path d="M72.2305 84.1846H75.2416V93.0462H72.2305V96H81.4498V93.0462H78.4387V84.1846H81.4498V81.2308H72.2305V84.1846Z" fill="black"></path>
  <path d="M92.2305 80.6769L84.5353 96H87.8439L88.8848 93.9692H95.6506L96.6915 96H100L92.2305 80.6769ZM90.1859 91.3477L92.2305 87.2862L94.2751 91.3477H90.1859Z" fill="black"></path>
  <path d="M43.7918 66.4615H58.5874V30.24L43.7918 25.44V66.4615Z" fill="black"></path>
  <path d="M29.4796 9.48924V25.0338L58.5874 15.5446V0L29.4796 9.48924Z" fill="black"></path>
</svg>
