<?xml version="1.0" encoding="UTF-8" standalone="no"?>
<svg
   xmlns:dc="http://purl.org/dc/elements/1.1/"
   xmlns:cc="http://creativecommons.org/ns#"
   xmlns:rdf="http://www.w3.org/1999/02/22-rdf-syntax-ns#"
   xmlns:svg="http://www.w3.org/2000/svg"
   xmlns="http://www.w3.org/2000/svg"
   width="1066.6666"
   height="626.59833"
   id="svg17830"
   version="1.1"
   viewBox="0 0 1000 587.43591">
  <path
     id="path17893"
     style="fill:#000000;fill-opacity:1;stroke:none;stroke-width:1"
     d="m 981.21638,468.5582 v 17.27869 h 16.58756 V 504.498 h -16.58756 v 29.0282 c 0,5.93359 2.41725,8.83219 9.47765,8.83219 3.16463,0 7.24856,-1.06339 7.24856,-1.06339 L 1000,558.5689 c 0,0 -5.31709,2.1584 -15.08472,2.1584 -18.22294,0 -27.88922,-8.9819 -27.88922,-25.81881 V 504.498 h -10.7819 v -18.66111 h 10.7819 V 468.5582 Z m -78.6615,14.5749 c -22.62939,0 -38.92036,14.632 -38.92036,38.9205 0,23.75509 16.46101,38.8771 43.32643,38.8771 13.25552,0 26.35008,-5.918 26.35008,-5.918 l -5.31321,-17.1922 c 0,0 -8.93379,4.57869 -19.09301,4.57869 -12.76355,0 -18.7068,-7.1772 -20.30251,-13.69329 h 52.52733 c 0.74296,-24.7954 -9.51174,-45.5728 -38.57475,-45.5728 z m 1.03672,17.4516 c 8.38721,0 14.43825,5.8794 15.52253,13.60699 h -30.90061 c 0.86354,-8.30449 8.51274,-13.60699 15.37808,-13.60699 z m -125.57322,57.8229 v -72.57071 h 23.91377 v 9.51831 c 0,0 7.9485,-12.28491 25.51409,-12.28491 19.84912,0 26.59858,12.58251 26.59858,28.3392 v 46.99811 h -23.91377 v -38.7044 c 0,-12.2343 -4.72238,-17.2705 -12.59122,-17.2705 -9.01034,0 -15.60768,7.7895 -15.60768,20.03509 V 558.4076 Z M 595.29572,483.1331 c 22.61802,0 36.67412,18.25729 36.67412,38.35879 0,23.154 -16.75985,39.52521 -37.06289,39.52521 -14.96173,0 -24.23343,-10.8856 -24.23343,-10.8856 v 37.3044 H 546.91524 V 485.85459 h 23.75828 v 8.985 c 0,0 8.07669,-11.70649 24.6222,-11.70649 z m -6.99789,20.0434 c -10.74565,0 -18.31546,10.6581 -18.31546,18.7043 0,11.0193 8.58734,18.53149 18.31546,18.53149 9.25854,0 18.83382,-6.26109 18.83382,-18.402 0,-9.61279 -7.92725,-18.83379 -18.83382,-18.83379 z m 53.25755,55.2311 V 456.80739 h 24.19023 V 558.4076 Z m 71.02696,-75.2745 c -22.61802,0 -36.67412,18.25729 -36.67412,38.35879 0,23.154 16.75985,39.52521 37.06289,39.52521 14.96173,0 24.23343,-10.8856 24.23343,-10.8856 v 8.2938 h 23.75827 v -72.57071 h -23.75827 v 8.985 c 0,0 -8.07668,-11.70649 -24.6222,-11.70649 z m 6.99789,20.0434 c 10.74564,0 18.31546,10.6581 18.31546,18.7043 0,11.0193 -8.58734,18.53149 -18.31546,18.53149 -9.25855,0 -18.83383,-6.26109 -18.83383,-18.402 0,-9.61279 7.92725,-18.83379 18.83383,-18.83379 z M 474.7649,558.4076 V 456.80739 h 24.19023 V 558.4076 Z m -65.35595,-75.2745 c -22.61802,0 -36.67412,18.25729 -36.67412,38.35879 0,23.154 16.75985,39.52521 37.06289,39.52521 14.96173,0 24.23343,-10.8856 24.23343,-10.8856 v 8.2938 h 23.75828 v -72.57071 h -23.75828 v 8.985 c 0,0 -8.07668,-11.70649 -24.6222,-11.70649 z m 6.99789,20.0434 c 10.74566,0 18.31546,10.6581 18.31546,18.7043 0,11.0193 -8.58734,18.53149 -18.31546,18.53149 -9.25854,0 -18.83382,-6.26109 -18.83382,-18.402 0,-9.61279 7.92725,-18.83379 18.83382,-18.83379 z M 310.8013,523.8501 v 34.5575 h -23.91377 v -38.7044 c 0,-12.2343 -4.72238,-17.2705 -12.59121,-17.2705 -9.01033,0 -15.60769,7.7895 -15.60769,20.03509 v 35.93981 h -23.91379 v -72.57071 h 23.91379 v 9.51831 c 0,0 7.94849,-12.28491 25.51408,-12.28491 12.17521,0 19.42173,4.73411 23.20511,12.0309 0,0 7.81124,-12.10599 27.88789,-12.10599 18.83075,0 28.03295,11.4566 28.03295,27.032 v 48.3804 h -23.91377 v -38.7044 c 0,-9.4383 -3.71564,-17.4957 -12.59966,-17.4957 -9.07989,0 -16.01393,8.18649 -16.01393,21.6426 z m -90.72704,-64.929 a 14.06283,14.06283 0 0 1 -14.06283,14.0628 14.06283,14.06283 0 0 1 -14.06282,-14.0628 14.06283,14.06283 0 0 1 14.06282,-14.06281 14.06283,14.06283 0 0 1 14.06283,14.06281 z m -26.35369,99.4865 v -72.57071 h 24.19023 v 72.57071 z m -91.64642,0 v -72.57071 h 23.91377 v 9.51831 c 0,0 7.9485,-12.28491 25.51409,-12.28491 19.84914,0 26.59858,12.58251 26.59858,28.3392 v 46.99811 h -23.91377 v -38.7044 c 0,-12.2343 -4.72238,-17.2705 -12.59122,-17.2705 -9.01032,0 -15.60768,7.7895 -15.60768,20.03509 V 558.4076 Z M 36.674122,483.1331 C 14.056101,483.1331 0,501.39039 0,521.49189 c 0,23.154 16.759851,39.52521 37.062893,39.52521 14.961719,0 24.23343,-10.8856 24.23343,-10.8856 v 8.2938 H 85.054588 V 485.85459 H 61.296323 v 8.985 c 0,0 -8.0767,-11.70649 -24.622201,-11.70649 z m 6.997889,20.0434 c 10.745648,0 18.315461,10.6581 18.315461,18.7043 0,11.0193 -8.587346,18.53149 -18.315461,18.53149 -9.258543,0 -18.833831,-6.26109 -18.833831,-18.402 0,-9.61279 7.927256,-18.83379 18.833831,-18.83379 z" />
  <path
     id="path17895"
     style="fill:#0074ff;fill-opacity:1;stroke:none;stroke-width:1"
     d="M 559.86995,-2.3000261e-5 V 115.15999 c 0,0 17.88398,14.6373 26.39083,26.39089 -43.81077,-28.5832 -90.3559,-40.5889 -146.95315,-40.5889 -93.16725,0 -177.99619,43.1656 -219.87618,114.61291 l 5.40565,10.1601 c 0,0 18.22324,-21.90951 60.32839,-43.3983 -45.98998,45.3681 -65.25252,81.5594 -93.52929,165.0073 l 44.85533,44.67101 c 58.68935,-65.66551 145.03706,-109.05271 242.51353,-109.05271 92.23502,0 177.16582,41.28 230.26348,96.15811 l 48.31847,-48.46371 c -27.08687,-46.3562 -62.2598,-89.1099 -90.21734,-118.7932 28.92599,16.5189 75.10789,25.96699 119.22137,25.96699 77.17423,0 133.88198,-41.55309 133.88198,-98.1301 0,-69.695101 -59.75523,-112.109802 -157.21984,-128.237703 l -15.76106,26.442202 c 49.04925,8.746999 125.3556,37.295 125.3556,88.294001 0,27.9757 -21.64166,51.44091 -52.82244,51.44091 -38.53672,0 -70.54036,-42.975 -89.98756,-80.92421 l -29.76365,-0.7164 C 666.11401,53.727779 610.88931,12.477178 559.86995,-2.3000261e-5 Z" />
</svg>
