<svg width="554" height="82" viewBox="0 0 554 82" fill="none" xmlns="http://www.w3.org/2000/svg">
<path d="M212.069 0.0877005L187.731 0.0877005V82H212.069V0.0877005Z" fill="#FD5D23"/>
<path d="M465.975 57.8824V0L441.637 0V40.9562C441.637 50.2963 433.953 57.8824 424.493 57.8824C415.034 57.8824 407.35 50.2963 407.35 40.9562V0L383.012 0V57.8824C383.012 71.169 393.893 81.9123 407.35 81.9123H441.681C455.138 81.9123 466.019 71.169 466.019 57.8824H465.975Z" fill="#FD5D23"/>
<path d="M300.006 29.0289C300.006 13.0235 286.904 0.0877005 270.693 0.0877005L217.043 0.0877005V82H241.381V57.9701H270.693C286.904 57.9701 300.006 44.9904 300.006 29.0289ZM270.693 33.9401H241.381V24.1176H270.693C273.447 24.1176 275.668 26.3102 275.668 29.0289C275.668 31.7476 273.447 33.9401 270.693 33.9401Z" fill="#FD5D23"/>
<path d="M158.375 56.216L131.86 0.0877005L95.3534 0.0877005V56.8738L107.211 82H119.691V25.8278L146.206 82H182.757V0.0877005L158.375 0.0877005V56.216Z" fill="#FD5D23"/>
<path d="M63.0212 0.0877005L38.6832 0.0877005L0 82H49.8307L61.2003 57.9701H35.7076L50.8522 25.8278L77.3664 82H101.749L63.0212 0.0877005Z" fill="#FD5D23"/>
<path d="M497.774 28.9412C496.397 28.9412 495.287 27.8449 495.287 26.4856C495.287 25.1262 496.397 24.0299 497.774 24.0299H542.586L553.956 0L497.818 0C482.985 0 470.993 11.8396 470.993 26.4856C470.993 41.1315 482.985 52.9711 497.818 52.9711H527.13C528.507 52.9711 529.618 54.0674 529.618 55.4267C529.618 56.7861 528.507 57.8824 527.13 57.8824H470.993C470.993 67.8802 465.841 76.6941 458.025 81.9123H527.175C542.009 81.9123 554 70.0727 554 55.4267C554 40.7808 542.009 28.9412 527.175 28.9412H497.774Z" fill="#FD5D23"/>
<path d="M377.994 57.9701H324.344V0.0877005L300.006 0.0877005V11.4888C303.159 16.6193 304.98 22.6267 304.98 29.0289C304.98 35.431 303.159 41.4823 300.006 46.569V82L391.095 82C383.234 76.8257 378.038 67.9679 377.994 57.9701Z" fill="#FD5D23"/>
</svg>
