<?xml version="1.0" encoding="utf-8"?>
<!-- Generator: Adobe Illustrator 18.0.0, SVG Export Plug-In . SVG Version: 6.00 Build 0)  -->
<!DOCTYPE svg PUBLIC "-//W3C//DTD SVG 1.1//EN" "http://www.w3.org/Graphics/SVG/1.1/DTD/svg11.dtd">
<svg version="1.1" id="Layer_1" xmlns="http://www.w3.org/2000/svg" xmlns:xlink="http://www.w3.org/1999/xlink" x="0px" y="0px"
	 viewBox="405 923.9 712.6 392.3" enable-background="new 405 923.9 712.6 392.3" xml:space="preserve">
<g>
	<g>
		<path fill="#000000" d="M500.7,1216.3h-54.8v17.4H485v27.6h-39.1v22H503v29.7h-90v-126.4h87.7V1216.3z"/>
		<path fill="#000000" d="M630.7,1259.3c0,16.7-5.3,30.2-15.8,40.5c-10.5,10.3-23.9,15.4-40.1,15.4c-16.3,0-29.7-5.1-40.2-15.4
			c-10.5-10.3-15.7-23.8-15.7-40.5v-72.8h32.9v75.2c0,7.1,2.1,12.8,6.4,16.9c4.3,4.1,9.8,6.2,16.6,6.2c6.8,0,12.3-2.1,16.6-6.2
			c4.3-4.1,6.4-9.8,6.4-16.9v-75.2h32.9V1259.3z"/>
		<path fill="#000000" d="M726.4,1313l-28.5-39.3h-13.6v39.3h-32.9v-126.4h49.6c14.2,0,25.8,4,35,11.9c9.2,7.9,13.8,18.4,13.8,31.6
			c0,16-6.6,28-19.9,36l33.3,46.9H726.4z M684.3,1245h16.9c4.6,0,8.3-1.4,11-4.1c2.7-2.7,4.1-6.3,4.1-10.8c0-4.5-1.4-8-4.1-10.7
			c-2.7-2.7-6.4-4-11-4h-16.9V1245z"/>
		<path fill="#000000" d="M879.4,1203.2c13.3,12.6,19.9,28.1,19.9,46.6c0,18.5-6.6,34-19.9,46.6c-13.3,12.6-29.4,18.9-48.4,18.9
			c-19,0-35.1-6.3-48.2-18.9c-13.1-12.6-19.7-28.1-19.7-46.6c0-18.5,6.6-34,19.7-46.6c13.1-12.6,29.2-18.9,48.2-18.9
			C850,1184.3,866.1,1190.6,879.4,1203.2z M806.2,1224.3c-6.4,6.5-9.6,15-9.6,25.5c0,10.6,3.2,19.1,9.6,25.6
			c6.4,6.4,14.7,9.7,24.9,9.7c10,0,18.2-3.2,24.7-9.7c6.5-6.4,9.8-15,9.8-25.6c0-10.5-3.3-19-9.8-25.5c-6.5-6.5-14.7-9.8-24.7-9.8
			C820.9,1214.5,812.6,1217.8,806.2,1224.3z"/>
		<path fill="#000000" d="M998.8,1198.5c9.2,7.9,13.8,18.4,13.8,31.6c0,12.9-4.6,23.4-13.9,31.5c-9.3,8.1-20.9,12.2-34.9,12.2h-16.7
			v39.3h-32.9v-126.4h49.6C978,1186.6,989.7,1190.6,998.8,1198.5z M947.2,1215.3v29.7H964c4.6,0,8.3-1.4,11-4.1
			c2.7-2.7,4.1-6.3,4.1-10.8c0-4.5-1.4-8-4.1-10.7c-2.7-2.7-6.4-4-11-4H947.2z"/>
		<path fill="#000000" d="M1114.3,1216.3h-54.8v17.4h39.1v27.6h-39.1v22h57.1v29.7h-90v-126.4h87.7V1216.3z"/>
	</g>
	<g>
		<g>
			<path fill="#000000" d="M1068.8,1011.2c0,0-0.5,0-1.4,0c0,0-0.1,0-0.1,0s-115.7,0.3-133,0.3c-17.3,0-24.9,15.9-24.9,15.9
				l-40.6,70.2c-0.1-13.5-0.3-78.9-0.3-82.3c0-1.5-0.5-2.4-1.2-2.9h0c0,0-0.1-0.1-0.4-0.2c-0.7-0.4-1.5-0.5-1.8-0.6c0,0,0,0,0,0
				c-2.5-0.2-6.9-0.2-10.5-0.1c-3.5,0-7.8,0.2-12,0.6c-10.5,1-18.6,13.3-18.6,13.3L758.4,1140c4.2-20.7,24.3-120.2,25.3-124.5
				c0-0.1,0-0.2,0-0.3c0,0,0,0,0,0c0-0.2,0-0.3,0-0.4c0-0.1,0-0.3,0-0.4c0-0.1,0-0.2,0-0.3c0-0.2,0-0.3-0.1-0.4
				c-0.4-1-1.3-1.3-1.9-1.4c-0.8-0.4-1.8-0.2-2.2-0.1c-2.1,0-5.4-0.1-7-0.1c0,0-0.5,0-1.3,0c-2.5,0-5.4,0-8.6,0
				c-6.2,0-13.3,0.2-20.4,0.6c-18.1,1-25.7,11.4-25.7,11.4l-116.4,143c0,0,0.1,0,0.3,0l-0.1,0.1h1.3c0,0,13.6,0.2,23.5,0.2
				c1.6,0,3-0.2,4.3-0.4c5.8-0.3,9.2-3,12.2-5.3c3.2-2.5,10-9.7,14.4-14.8c2.1-2.4,3.8-3.5,5.1-4c0.8-0.2,1.5-0.3,1.9-0.3
				c1.1-0.1,31.1,0,37.4,0c0.9,0,1.7-0.1,2.4-0.1c0.4,0,0.8,0,1.1,0c4.6-0.2,4.8-2.7,4.8-2.7s3.6-18.6,4.1-21.3
				c0.4-2.1-1.4-2.1-1.4-2.1s-0.3,0-0.6,0c-0.4-0.1-0.8,0-0.8,0c-5.2,0-23.3,0-26,0c-3.2,0-1-3-1-3l56.8-69.4
				c-3.4,16.4-24,116.2-24.8,119.8c-0.8,4,2.2,3.3,2.2,3.3s1.2,0,3.1,0l44.8,0.2c2.2,0,4.3-0.3,6.1-0.7
				c10.7-1.9,15.5-10.1,15.5-10.1l44-76.4c0,13.7,0.2,80.5,0.2,83.5c0,3.3,1.9,3.3,1.9,3.3s1,0,2.6,0c0.3,0,0.5,0,0.8,0l2.1,0
				c2.7,0,6.3,0,10.4-0.1c2.3,0,4.8-0.1,7.4-0.1c12.2-0.3,21.4-16.7,21.4-16.7l64.7-112.9c0,0,0.1,0,0.1,0c5.2,0,22.6,0.2,31,0.2
				c2.3,0,3.9,0,4.5,0c3.2-0.1,1.7,2.4,1.7,2.4s-70.5,124.1-71.4,125.7c-1,1.6,0.3,1.6,0.3,1.6s1.2,0,3.1,0c0,0,0,0,0.1,0
				c1.9,0.2,9.4,0.1,15.2,0c0.8,0,1.6,0,2.5,0c1.2,0,2.4,0,3.6,0c0.3,0,0.7,0,1-0.1c0.1,0,0.2,0,0.2,0c0.7,0,1.8-0.1,2.9-0.5
				c0.1,0,0.2-0.1,0.4-0.1c0,0,0.1,0,0.1,0c9.1-2.5,14.1-11.1,14.1-11.1s66-114.6,67.1-116.1c1.1-1.6,3-2.1,3-2.1h0.3h1.4
				c0,0,24.7,0,31.3,0c0.6,0,1.2,0,1.4,0c2.9,0,3.8-2.4,3.8-2.4s8.3-16.8,10-20.2C1071.8,1011.2,1068.8,1011.2,1068.8,1011.2z"/>
			<path fill="#000000" d="M1115.1,925.8L1115.1,925.8C1115.1,925.7,1115.1,925.7,1115.1,925.8c-0.1-0.2-0.2-0.4-0.4-0.5
				c-0.1-0.1-0.1-0.1-0.2-0.1c-0.2-0.1-0.3-0.2-0.5-0.2c-0.1,0-0.2,0-0.3,0c0,0-0.1,0-0.1,0c-0.1,0-0.2,0-0.3,0c-0.1,0-0.2,0-0.3,0
				c-0.1,0-0.2,0-0.2,0s-0.1,0-0.1,0c-0.2,0-0.3,0.1-0.5,0.1c0,0-106.4,42-116,45.5c-4.4,1.6-6.4,4.1-7.4,6.3c0,0,0,0.1,0,0.1
				c-0.1,0.2-0.2,0.4-0.2,0.6c-0.3,0.9-0.4,1.6-0.5,2.2c-0.1,0.9,0,1.5,0,1.8c0,2.6,0,10.5,0,13.8c0,1.1,0.2,1.8,0.5,2.3
				c0.3,1,0.8,1,1.1,0.9c0.5,0.1,1,0,1,0s97.4,0,100.8,0c2.2,0,1.4,1.9,1.4,1.9l-0.5,0.9c0,0,0,0,0,0s-6,12.3-11.5,23.6l-0.3,0.6
				c0,0,0,0,0,0c-3.9,8-7.5,15.4-8.4,17.3c-2.2,4.6-4.8,4.6-4.8,4.6l-2.7,0.2c-4.3,0-19.9,0-23.2,0c-1.5,0-2.7,0.4-3.6,0.9
				c-0.1,0.1-0.3,0.1-0.4,0.2h0.1c-1,0.7-1.5,1.4-1.5,1.4s-2.5,4.5-6.4,11.6c-15.7,28.1-57,101.9-57.1,102.3
				c-0.1,0.2-0.2,0.5-0.2,0.7c0,0,0,0,0-0.1c-0.1,0.6,0,1,0.4,1.4c0.1,0,0.1,0.1,0.2,0.1h0c0.4,0.3,1,0.4,1,0.4s0.4,0,1,0
				c0,0,0,0,0.1,0c0.2,0,0.4,0,0.7,0c14,0,113.2,0,125.4,0c0.7,0,1.3,0,1.7,0c8,0,10.7-5.4,11.4-9.1c0.4-1.6,0.4-2.9,0.4-2.9
				s0-0.2,0-0.6c0.1-13.2,0.6-224.9,0.6-227.4C1115.3,926.3,1115.2,926,1115.1,925.8z"/>
		</g>
	</g>
</g>
</svg>
