<?xml version="1.0" encoding="utf-8"?>
<!-- Generator: Adobe Illustrator 18.0.0, SVG Export Plug-In . SVG Version: 6.00 Build 0)  -->
<!DOCTYPE svg PUBLIC "-//W3C//DTD SVG 1.1//EN" "http://www.w3.org/Graphics/SVG/1.1/DTD/svg11.dtd">
<svg version="1.1" id="Layer_1" xmlns="http://www.w3.org/2000/svg" xmlns:xlink="http://www.w3.org/1999/xlink" x="0px" y="0px"
	 viewBox="449.7 923.9 667.9 392.3" enable-background="new 449.7 923.9 667.9 392.3" xml:space="preserve">
<g>
	<g>
		<g>
			<path fill="#000000" d="M1065.6,1009.7c0,0-0.5,0-1.4,0c0,0-0.1,0-0.1,0S949.2,1010,932,1010c-17.2,0-24.8,15.8-24.8,15.8
				l-40.4,69.8c-0.1-13.4-0.3-78.3-0.3-81.7c0-1.5-0.5-2.3-1.2-2.9h0c0,0-0.2-0.1-0.4-0.2c-0.7-0.4-1.5-0.5-1.8-0.5c0,0,0,0,0,0
				c-2.5-0.2-6.9-0.2-10.4-0.1c-3.5,0-7.7,0.2-11.9,0.6c-10.4,1-18.5,13.2-18.5,13.2l-65.3,113.8c4.2-20.6,24.1-119.4,25.1-123.7
				c0-0.1,0-0.2,0-0.3c0,0,0,0,0,0c0-0.2,0-0.3,0-0.4c0-0.1,0-0.3,0-0.4c0-0.1,0-0.2,0-0.3c0-0.2,0-0.3-0.1-0.4
				c-0.4-1-1.3-1.3-1.9-1.4c-0.8-0.4-1.8-0.2-2.1-0.1c-2.1,0-5.3-0.1-7-0.1c0,0-0.5,0-1.3,0c-2.5,0-5.4,0-8.5,0
				c-6.1,0-13.3,0.2-20.3,0.6c-18,0.9-25.5,11.3-25.5,11.3L600,1164.5c0,0,0.1,0,0.3,0l-0.1,0.1h1.3c0,0,13.6,0.2,23.3,0.2
				c1.6,0,3-0.2,4.3-0.4c5.8-0.3,9.2-2.9,12.1-5.3c3.1-2.5,9.9-9.6,14.3-14.7c2.1-2.4,3.8-3.5,5.1-4c0.8-0.2,1.4-0.3,1.8-0.3
				c1.1-0.1,30.9,0,37.2,0c0.9,0,1.7-0.1,2.4-0.1c0.4,0,0.8,0,1.1,0c4.6-0.2,4.7-2.7,4.7-2.7s3.6-18.4,4.1-21.1c0.4-2-1.4-2-1.4-2
				s-0.3,0-0.6,0c-0.4-0.1-0.8,0-0.8,0c-5.2,0-23.2,0-25.9,0c-3.2,0-0.9-3-0.9-3l56.4-68.9c-3.4,16.3-23.9,115.5-24.6,119.1
				c-0.8,3.9,2.2,3.3,2.2,3.3s1.2,0,3.1,0l44.5,0.2c2.2,0,4.2-0.3,6.1-0.7c10.7-1.9,15.4-10,15.4-10l43.7-75.9c0,13.6,0.2,80,0.2,83
				c0,3.3,1.9,3.3,1.9,3.3s0.9,0,2.6,0c0.3,0,0.5,0,0.8,0l2.1,0c2.7,0,6.3,0,10.3-0.1c2.3,0,4.7-0.1,7.3-0.1
				c12.1-0.3,21.3-16.6,21.3-16.6l64.3-112.2c0,0,0.1,0,0.1,0c5.2,0,22.4,0.2,30.8,0.2c2.3,0,3.9,0,4.5,0c3.2-0.1,1.7,2.4,1.7,2.4
				s-70,123.3-70.9,124.9c-0.9,1.6,0.3,1.6,0.3,1.6s1.1,0,3.1,0c0,0,0,0,0.1,0c1.9,0.2,9.3,0.1,15.1,0c0.8,0,1.6,0,2.4,0
				c1.2,0,2.4,0,3.6,0c0.3,0,0.7,0,1-0.1c0.1,0,0.2,0,0.2,0c0.7,0,1.7-0.1,2.9-0.4c0.1,0,0.2-0.1,0.4-0.1c0,0,0.1,0,0.1,0
				c9-2.5,14-11,14-11s65.6-113.8,66.7-115.4c1.1-1.6,3-2.1,3-2.1h0.3h1.4c0,0,24.5,0,31,0c0.6,0,1.2,0,1.4,0c2.8,0,3.8-2.4,3.8-2.4
				s8.2-16.7,9.9-20C1068.6,1009.7,1065.6,1009.7,1065.6,1009.7z"/>
			<path fill="#000000" d="M1111.6,924.8L1111.6,924.8C1111.6,924.8,1111.6,924.8,1111.6,924.8c-0.1-0.2-0.2-0.4-0.4-0.5
				c-0.1-0.1-0.1-0.1-0.2-0.1c-0.2-0.1-0.3-0.2-0.5-0.2c-0.1,0-0.2,0-0.3,0c0,0-0.1,0-0.1,0c-0.1,0-0.2,0-0.3,0c-0.1,0-0.2,0-0.3,0
				c-0.1,0-0.2,0-0.2,0s-0.1,0-0.1,0c-0.2,0-0.3,0.1-0.5,0.1c0,0-105.7,41.7-115.2,45.2c-4.3,1.6-6.4,4.1-7.3,6.3c0,0,0,0.1,0,0.1
				c-0.1,0.2-0.2,0.4-0.2,0.6c-0.3,0.9-0.4,1.6-0.5,2.2c-0.1,0.9,0,1.5,0,1.8c0,2.5,0,10.4,0,13.7c0,1.1,0.2,1.8,0.5,2.2
				c0.3,1,0.8,1,1.1,0.9c0.5,0.1,1,0,1,0s96.8,0,100.1,0c2.2,0,1.4,1.9,1.4,1.9l-0.5,0.9c0,0,0,0,0,0s-6,12.2-11.4,23.4l-0.3,0.6
				c0,0,0,0,0,0c-3.9,7.9-7.4,15.3-8.3,17.1c-2.2,4.6-4.7,4.6-4.7,4.6l-2.7,0.2c-4.3,0-19.8,0-23,0c-1.5,0-2.7,0.4-3.5,0.9
				c-0.1,0.1-0.3,0.1-0.4,0.2h0.1c-1,0.7-1.5,1.4-1.5,1.4s-2.5,4.5-6.4,11.6c-15.6,27.9-56.6,101.3-56.8,101.6
				c-0.1,0.2-0.2,0.5-0.2,0.7c0,0,0,0,0-0.1c-0.1,0.6,0,1,0.4,1.4c0.1,0,0.1,0.1,0.2,0.1h0c0.4,0.3,1,0.4,1,0.4s0.4,0,0.9,0
				c0,0,0,0,0.1,0c0.2,0,0.4,0,0.7,0c13.9,0,112.4,0,124.6,0c0.7,0,1.3,0,1.7,0c7.9,0,10.6-5.3,11.3-9c0.4-1.6,0.4-2.8,0.4-2.8
				s0-0.2,0-0.6c0.1-13.1,0.6-223.5,0.6-225.9C1111.8,925.3,1111.7,925,1111.6,924.8z"/>
		</g>
	</g>
	<g>
		<path fill="#000000" d="M532.9,1201.4c9,7.8,13.6,18.1,13.6,31.1c0,12.7-4.5,23-13.6,31c-9.1,8-20.5,12-34.3,12h-16.4v38.6h-32.4
			v-124.2h48.7C512.4,1189.8,523.9,1193.7,532.9,1201.4z M482.1,1218v29.2h16.6c4.5,0,8.1-1.3,10.8-4c2.7-2.7,4-6.2,4-10.6
			c0-4.4-1.3-7.9-4-10.5c-2.7-2.6-6.3-4-10.8-4H482.1z"/>
		<path fill="#000000" d="M617,1303.6h-44.6l-4.5,10.4h-34.8l56.5-126.5h10.4l56.5,126.5h-34.8L617,1303.6z M594.8,1248.9
			l-10.9,28.8h21.6L594.8,1248.9z"/>
		<path fill="#000000" d="M756.9,1196.3c9.9,5.8,17.7,14,23.3,24.6l-24.7,16.7c-8-13.5-18.8-20.3-32.4-20.3c-9.9,0-18,3.2-24.4,9.6
			c-6.3,6.4-9.5,14.8-9.5,25.2c0,10.4,3.1,18.8,9.4,25c6.3,6.3,14.4,9.4,24.5,9.4c13.5,0,24.3-6.8,32.4-20.3l24.7,16.7
			c-5.6,10.5-13.4,18.7-23.3,24.6c-9.9,5.8-21.1,8.8-33.7,8.8c-18.8,0-34.7-6.1-47.6-18.4c-12.9-12.3-19.4-27.6-19.4-45.9
			c0-18.2,6.5-33.5,19.5-45.8c13-12.4,28.9-18.5,47.7-18.5C735.8,1187.5,746.9,1190.4,756.9,1196.3z"/>
		<path fill="#000000" d="M827.2,1314h-32.4v-124.2h32.4V1314z"/>
		<path fill="#000000" d="M932.6,1218.9h-51.9v23.7h42.2v29.2h-42.2v42.2h-32.4v-124.2h84.3V1218.9z"/>
		<path fill="#000000" d="M978.9,1314h-32.4v-124.2h32.4V1314z"/>
		<path fill="#000000" d="M1094.3,1196.3c9.9,5.8,17.7,14,23.3,24.6l-24.7,16.7c-8-13.5-18.8-20.3-32.4-20.3c-9.9,0-18,3.2-24.4,9.6
			c-6.3,6.4-9.5,14.8-9.5,25.2c0,10.4,3.1,18.8,9.4,25c6.3,6.3,14.4,9.4,24.5,9.4c13.5,0,24.3-6.8,32.4-20.3l24.7,16.7
			c-5.6,10.5-13.4,18.7-23.3,24.6c-9.9,5.8-21.1,8.8-33.7,8.8c-18.8,0-34.7-6.1-47.6-18.4c-12.9-12.3-19.4-27.6-19.4-45.9
			c0-18.2,6.5-33.5,19.5-45.8s28.9-18.5,47.7-18.5C1073.2,1187.5,1084.3,1190.4,1094.3,1196.3z"/>
	</g>
</g>
</svg>
