<?xml version="1.0" encoding="utf-8"?>
<!-- Generator: Adobe Illustrator 18.0.0, SVG Export Plug-In . SVG Version: 6.00 Build 0)  -->
<!DOCTYPE svg PUBLIC "-//W3C//DTD SVG 1.1//EN" "http://www.w3.org/Graphics/SVG/1.1/DTD/svg11.dtd">
<svg version="1.1" id="Layer_1" xmlns="http://www.w3.org/2000/svg" xmlns:xlink="http://www.w3.org/1999/xlink" x="0px" y="0px"
	 viewBox="270.9 524.8 300 141" enable-background="new 270.9 524.8 300 141" xml:space="preserve">
<g>
	<g>
		<g>
			<path fill="#000000" d="M553.6,556.2c0,0-0.2,0-0.5,0c0,0,0,0,0,0s-41.2,0.1-47.4,0.1c-6.2,0-8.9,5.7-8.9,5.7l-14.5,25
				c0-4.8-0.1-28.1-0.1-29.3c0-0.5-0.2-0.8-0.4-1h0c0,0-0.1,0-0.1-0.1c-0.3-0.2-0.5-0.2-0.6-0.2c0,0,0,0,0,0c-0.9-0.1-2.5-0.1-3.7,0
				c-1.3,0-2.8,0.1-4.3,0.2c-3.7,0.3-6.6,4.7-6.6,4.7l-23.4,40.8c1.5-7.4,8.6-42.8,9-44.4c0,0,0-0.1,0-0.1c0,0,0,0,0,0
				c0-0.1,0-0.1,0-0.2c0,0,0-0.1,0-0.1c0,0,0-0.1,0-0.1c0-0.1,0-0.1,0-0.2c-0.1-0.4-0.5-0.5-0.7-0.5c-0.3-0.1-0.6-0.1-0.8,0
				c-0.7,0-1.9,0-2.5,0c0,0-0.2,0-0.5,0c-0.9,0-1.9,0-3.1,0c-2.2,0-4.8,0.1-7.3,0.2c-6.4,0.3-9.2,4.1-9.2,4.1l-41.5,51
				c0,0,0,0,0.1,0l0,0h0.5c0,0,4.9,0.1,8.4,0.1c0.6,0,1.1-0.1,1.5-0.1c2.1-0.1,3.3-1.1,4.3-1.9c1.1-0.9,3.6-3.4,5.1-5.3
				c0.7-0.9,1.4-1.2,1.8-1.4c0.3-0.1,0.5-0.1,0.7-0.1c0.4,0,11.1,0,13.3,0c0.3,0,0.6,0,0.9,0c0.2,0,0.3,0,0.4,0c1.6-0.1,1.7-1,1.7-1
				s1.3-6.6,1.5-7.6c0.1-0.7-0.5-0.7-0.5-0.7s-0.1,0-0.2,0c-0.1,0-0.3,0-0.3,0c-1.8,0-8.3,0-9.3,0c-1.1,0-0.3-1.1-0.3-1.1l20.2-24.7
				c-1.2,5.8-8.6,41.4-8.8,42.7c-0.3,1.4,0.8,1.2,0.8,1.2s0.4,0,1.1,0l16,0.1c0.8,0,1.5-0.1,2.2-0.3c3.8-0.7,5.5-3.6,5.5-3.6
				l15.7-27.2c0,4.9,0.1,28.7,0.1,29.8c0,1.2,0.7,1.2,0.7,1.2s0.3,0,0.9,0c0.1,0,0.2,0,0.3,0l0.7,0c1,0,2.2,0,3.7,0
				c0.8,0,1.7,0,2.6,0c4.4-0.1,7.6-5.9,7.6-5.9l23.1-40.2c0,0,0,0,0,0c1.8,0,8,0.1,11.1,0.1c0.8,0,1.4,0,1.6,0
				c1.2,0,0.6,0.8,0.6,0.8s-25.1,44.2-25.4,44.8c-0.3,0.6,0.1,0.6,0.1,0.6s0.4,0,1.1,0c0,0,0,0,0,0c0.7,0.1,3.3,0,5.4,0
				c0.3,0,0.6,0,0.9,0c0.4,0,0.8,0,1.3,0c0.1,0,0.2,0,0.4,0c0,0,0.1,0,0.1,0c0.3,0,0.6,0,1-0.2c0,0,0.1,0,0.1,0c0,0,0,0,0,0
				c3.2-0.9,5-3.9,5-3.9s23.5-40.8,23.9-41.4c0.4-0.6,1.1-0.7,1.1-0.7h0.1h0.5c0,0,8.8,0,11.1,0c0.2,0,0.4,0,0.5,0
				c1,0,1.4-0.8,1.4-0.8s2.9-6,3.6-7.2C554.7,556.2,553.6,556.2,553.6,556.2z"/>
			<path fill="#000000" d="M570.1,525.8L570.1,525.8C570.1,525.7,570.1,525.7,570.1,525.8c0-0.1-0.1-0.1-0.1-0.2c0,0,0,0-0.1-0.1
				c-0.1,0-0.1-0.1-0.2-0.1c0,0-0.1,0-0.1,0c0,0,0,0,0,0c0,0-0.1,0-0.1,0c0,0-0.1,0-0.1,0c0,0-0.1,0-0.1,0s0,0,0,0
				c-0.1,0-0.1,0-0.2,0c0,0-37.9,15-41.3,16.2c-1.6,0.6-2.3,1.5-2.6,2.3c0,0,0,0,0,0c0,0.1-0.1,0.1-0.1,0.2
				c-0.1,0.3-0.2,0.6-0.2,0.8c0,0.3,0,0.5,0,0.6c0,0.9,0,3.7,0,4.9c0,0.4,0.1,0.6,0.2,0.8c0.1,0.4,0.3,0.4,0.4,0.3
				c0.2,0.1,0.4,0,0.4,0s34.7,0,35.9,0c0.8,0,0.5,0.7,0.5,0.7l-0.2,0.3c0,0,0,0,0,0s-2.1,4.4-4.1,8.4l-0.1,0.2c0,0,0,0,0,0
				c-1.4,2.9-2.7,5.5-3,6.1c-0.8,1.6-1.7,1.6-1.7,1.6l-1,0.1c-1.5,0-7.1,0-8.2,0c-0.5,0-1,0.1-1.3,0.3c0,0-0.1,0-0.1,0.1h0
				c-0.4,0.2-0.5,0.5-0.5,0.5s-0.9,1.6-2.3,4.1c-5.6,10-20.3,36.3-20.4,36.4c0,0.1-0.1,0.2-0.1,0.3c0,0,0,0,0,0c0,0.2,0,0.4,0.2,0.5
				c0,0,0,0,0.1,0h0c0.2,0.1,0.3,0.1,0.3,0.1s0.1,0,0.3,0c0,0,0,0,0,0c0.1,0,0.2,0,0.2,0c5,0,40.3,0,44.7,0c0.3,0,0.5,0,0.6,0
				c2.8,0,3.8-1.9,4.1-3.2c0.2-0.6,0.2-1,0.2-1s0-0.1,0-0.2c0-4.7,0.2-80.1,0.2-81C570.2,525.9,570.2,525.8,570.1,525.8z"/>
		</g>
	</g>
	<g>
		<path fill="#000000" d="M302.4,629.3L295,635c-1-1.6-2.1-2.7-3.2-3.4c-1.1-0.7-2.4-1.1-3.9-1.1c-2.6,0-3.8,0.9-3.8,2.7
			c0,0.8,0.3,1.4,0.8,1.9c0.5,0.5,1.5,1,2.9,1.6l4.9,2.1c3.7,1.6,6.5,3.3,8.3,5.4c1.8,2,2.7,4.5,2.7,7.6c0,4.1-1.5,7.4-4.5,9.8
			c-3,2.4-6.7,3.6-11.3,3.6c-3.9,0-7.3-0.9-10.3-2.6c-3-1.7-5.3-4.1-6.8-7l7.5-5.7c2.7,3.7,5.9,5.5,9.6,5.5c2.9,0,4.4-1,4.4-3.1
			c0-1-0.3-1.7-0.9-2.1c-0.6-0.5-1.8-1.1-3.4-1.8l-4.4-1.9c-7.2-3.2-10.9-7.5-10.9-12.9c0-3.8,1.4-6.9,4.2-9.2
			c2.8-2.3,6.4-3.5,10.8-3.5C294.6,620.7,299.5,623.5,302.4,629.3z"/>
		<path fill="#000000" d="M333.2,660.8h-15.4l-1.6,3.6h-12l19.5-43.7h3.6l19.5,43.7h-12L333.2,660.8z M325.6,641.8l-3.8,9.9h7.5
			L325.6,641.8z"/>
		<path fill="#000000" d="M378.3,631.5h-12.9v32.8h-11.2v-32.8h-12.9v-10.1h36.9V631.5z"/>
		<path fill="#000000" d="M411.7,631.5h-18.6v5.9h13.3v9.4h-13.3v7.5h19.4v10.1H382v-42.9h29.8V631.5z"/>
		<path fill="#000000" d="M429.4,654.3h17.7v10.1h-28.9v-42.9h11.2V654.3z"/>
		<path fill="#000000" d="M462.8,654.3h17.7v10.1h-28.9v-42.9h11.2V654.3z"/>
		<path fill="#000000" d="M496.3,664.3h-11.2v-42.9h11.2V664.3z"/>
		<path fill="#000000" d="M536.9,631.5H524v32.8h-11.2v-32.8h-12.9v-10.1h36.9V631.5z"/>
		<path fill="#000000" d="M570.3,631.5h-18.6v5.9h13.3v9.4h-13.3v7.5H571v10.1h-30.5v-42.9h29.8V631.5z"/>
	</g>
</g>
</svg>
