<?xml version="1.0" encoding="utf-8"?>
<!-- Generator: Adobe Illustrator 21.0.0, SVG Export Plug-In . SVG Version: 6.00 Build 0)  -->
<svg version="1.1" id="Layer_1" xmlns="http://www.w3.org/2000/svg" xmlns:xlink="http://www.w3.org/1999/xlink" x="0px" y="0px"
	 viewBox="0 0 101.4 52.8" style="enable-background:new 0 0 101.4 52.8;" xml:space="preserve">
<style type="text/css">
	.st0{fill:#C40F2E;}
	.st1{fill:#C8232E;}
	.st2{fill:#FFFFFF;}
</style>
<path class="st0" d="M76.1,37.8c-2.7,0.2-4.3-2-4.3-2s-5.5-8.4-6.4-9.9c-2.1-4.2-5.9-3.3-5.9-3.3v7.9c0,2.1,1.3,2.4,1.5,2.6
	c2.9,1,5.2,0,6.5-0.2c1.7-0.2,1.3,2,1.3,2s-1.6,1.4-5.7,2.5c-4.2,1.1-7.6-0.5-7.6-0.5s-4-1.8-4-5.6s0-8.7,0-8.7h-2l0.6,1.2v11.6
	c0,0-0.8,2.5-3.9,2.5c-3,0-3.8-2.5-3.8-2.5l-0.1-9.8c0,0-0.6-3.4-3.9-3c-3.4,0.4-3.9,1.6-3.9,1.6s0,10.2,0,11.1s-0.7,2.5-3.9,2.5
	s-4-1.9-4-1.9s-3.4,1.9-7.8,1.9s-7-2.4-7-4.5c-0.1-2.2,1.9-4.3,4.8-5.2s10-2.6,10-2.6s0.7-3-4.3-3c-4.1-0.1-5.7,1.2-7.3,1.9
	S13.1,24,13.1,24s3.1-5.1,11.5-5.5c7,0.2,8.9,2.6,8.9,2.6s4.1-2.8,7.7-2.5c4.6-0.1,7.3,2.3,7.3,2.3l10.1-8.3h1v5.9h8
	c0,0,2.4,0,3.3,1.4s3.2,5.6,3.9,6.9c0.7,1.4,1.7,1.3,2.7,0c1-1.2,7.5-10.5,7.9-11c1.4-2,4.2-1.1,5.6-2.5c1.1-0.7,2.7-3.2,3.4-3.9
	c0-0.1,0.1-0.1,0.1-0.1H14.2c-3.7,0-7.4,2.9-7.4,6.6v27h80.4c3.7,0,7.4-3.6,7.4-7.3V13.2C92,17.4,79.9,35.9,79.9,35.9
	S78.8,37.7,76.1,37.8"/>
<path class="st1" d="M21,34.2c1.9,1.1,5.6-1.1,5.6-1.1v-4.6c0,0-4.1,1.2-5.6,2C19.6,31.4,19.1,33.1,21,34.2"/>
<path class="st2" d="M94.5,9.6l-0.1,0.1c-0.7,0.7-2.3,3.2-3.4,3.9c-1.4,1.4-4.2,0.6-5.6,2.5c-0.4,0.5-6.9,9.8-7.9,11s-2,1.4-2.7,0
	s-3-5.5-3.9-6.9s-3.3-1.4-3.3-1.4h-8v-5.9h-1l-10.1,8.3c0,0-2.8-2.4-7.3-2.3c-3.6-0.3-7.7,2.5-7.7,2.5s-1.9-2.4-8.9-2.6
	c-8.4,0.3-11.5,5.5-11.5,5.5s0.3,1.1,1.9,0.4s3.2-2,7.3-1.9c5,0,4.3,3,4.3,3s-7.1,1.7-10,2.6s-5,2.9-4.8,5.2c0,2.2,2.6,4.5,7,4.5
	s7.8-1.9,7.8-1.9s0.8,1.9,4,1.9s3.9-1.6,3.9-2.5s0-11.1,0-11.1s0.5-1.2,3.9-1.6s3.9,3,3.9,3l0.1,9.8c0,0,0.7,2.5,3.8,2.5
	s3.9-2.5,3.9-2.5V23.8l-0.6-1.2h2v8.7c0,3.8,4,5.6,4,5.6s3.4,1.6,7.6,0.5c4.1-1.1,5.7-2.5,5.7-2.5s0.5-2.2-1.3-2
	c-1.3,0.2-3.5,1.2-6.5,0.2c-0.2-0.2-1.6-0.5-1.5-2.6v-7.9c0,0,3.8-1,5.9,3.3c0.9,1.5,6.4,9.9,6.4,9.9s1.6,2.2,4.3,2s3.7-1.9,3.7-1.9
	s12.1-18.5,14.7-22.7V9.6z M26.6,33.1c0,0-3.7,2.1-5.6,1.1c-1.9-1.1-1.5-2.8,0-3.6s5.6-2,5.6-2V33.1z"/>
</svg>
