<svg xmlns:xlink="http://www.w3.org/1999/xlink" xmlns="http://www.w3.org/2000/svg" width="128" height="22" viewBox="0 0 128 22" fill="none" aria-hidden="true" focusable="false">
          <path d="M17.4873 14.3837C17.2077 14.1049 16.8918 13.9619 16.4911 13.9619H15.3952L10.3079 1.31469L10.3008 1.29852C10.0522 0.727939 9.54992 0.414185 8.88642 0.414185C8.22292 0.414185 7.74196 0.728587 7.49404 1.29917L2.39188 13.9677H1.53872C-0.392228 14.1171 -0.603901 16.9202 1.46492 17.0114H6.57808C8.4566 17.0431 8.52068 13.9218 6.61239 13.9599H5.64595L5.76311 13.6766H12.0304L12.147 13.9671H11.1365C10.2587 13.9347 9.59393 14.7337 9.64507 15.5805C9.64507 15.9964 9.79654 16.3678 10.0827 16.6524C10.3688 16.939 10.7397 17.027 11.1417 17.027H16.5416C16.963 17.027 17.3145 16.8931 17.5663 16.5774C17.8129 16.2675 17.9579 15.9136 17.9579 15.5326C17.9579 15.1322 17.767 14.6644 17.4873 14.3843V14.3837ZM6.99172 10.5785L8.90648 5.89485L10.8361 10.5785H6.99236H6.99172Z" fill="#010101"></path>
          <path d="M27.5701 8.68174C27.4931 7.4733 27.0322 6.52621 26.2004 5.86701C25.3699 5.2091 24.6028 5.10171 23.3625 5.21104C22.7631 5.26344 22.1818 5.55778 21.6109 5.9427C21.3759 5.77644 21.1053 5.69622 20.816 5.70981H18.718C16.8945 5.66776 16.8434 8.54977 18.6792 8.52906H19.4217V14.1527H18.8009C18.4131 14.1527 18.0636 14.2976 17.7898 14.5713C17.516 14.8449 17.371 15.191 17.371 15.572C17.371 15.9531 17.5127 16.2966 17.7794 16.5625C18.0468 16.8303 18.3866 16.9713 18.762 16.9713H22.7159C23.0861 16.9713 23.4253 16.8335 23.6978 16.5722C23.9781 16.3043 24.1264 15.9615 24.1264 15.5811C24.1264 15.2007 23.9846 14.8688 23.7166 14.5894C23.4415 14.3034 23.0958 14.1521 22.7159 14.1521H22.2427V9.83907C22.4427 8.96185 22.9508 8.20173 23.8305 7.99213C24.1154 7.94296 24.3141 7.9559 24.4513 7.99018C23.2538 8.37186 22.8149 10.2628 24.1814 11.1808C25.1096 11.8044 26.9247 11.4538 27.3765 10.0325C27.5371 9.59906 27.6025 9.14299 27.5707 8.68174H27.5701Z" fill="#010101"></path>
          <path d="M46.7916 10.7507C46.8317 9.31904 46.4362 8.11255 45.6167 7.16676C44.6704 6.06377 43.3615 5.53977 41.7315 5.61028C40.468 5.65298 39.3934 6.1084 38.5364 6.96492C37.5712 7.92947 37.0327 9.24594 36.9375 10.8749C36.8417 12.432 37.1867 13.7834 37.9609 14.8883C38.682 15.9344 39.6659 16.602 40.8842 16.8731C41.2804 16.9714 41.6681 17.0206 42.0481 17.0206C42.8177 17.0206 43.5518 16.8194 44.238 16.4189C45.3746 15.7798 46.1275 14.8987 46.4828 13.5997C46.5903 13.2465 46.5515 12.7897 46.3637 12.4682C46.2414 12.2599 46.0763 12.0963 45.8776 11.9837C46.077 11.9138 46.2569 11.7993 46.4142 11.6421C46.6589 11.3976 46.7897 11.0897 46.7916 10.7513V10.7507ZM40.1288 9.41997C40.2362 9.21166 40.3625 9.03311 40.5042 8.88626C40.8538 8.53693 41.2894 8.35773 41.8377 8.33832C42.5789 8.30986 43.12 8.50264 43.4877 8.92378C43.6165 9.07516 43.7194 9.24012 43.7978 9.41997H40.1288ZM44.0224 12.17C43.8094 12.3421 43.8386 12.4909 43.768 12.7652C43.5855 13.3978 43.4372 13.5557 43.0255 13.9458C41.5872 14.7816 40.0026 13.7504 39.7643 12.1933L44.023 12.17H44.0224Z" fill="#010101"></path>
          <path d="M66.067 11.2449C65.3472 10.3916 63.7554 10.5935 63.6596 11.9539C63.6208 12.5691 63.848 13.7776 63.2408 14.1405C63.132 14.2071 62.9974 14.2039 62.798 14.1948C62.1352 14.1593 62.0174 13.3733 62.0174 12.8609V8.49486L63.8305 8.54144C65.5064 8.56991 65.5226 5.71119 63.8305 5.73448H62.0174V4.37984C62.0413 2.6998 59.3213 2.71921 59.3388 4.37984V5.73448H58.9892C57.3172 5.71184 57.2402 8.53045 58.951 8.54144H59.3394V13.3273C59.3394 13.8319 59.4009 14.1198 59.5602 14.5752C59.7207 15.0352 59.9518 15.4479 60.2463 15.8005C60.5493 16.164 60.9286 16.4552 61.372 16.6654C61.8173 16.8769 62.3216 16.9837 62.8705 16.9837C63.3586 16.9837 63.826 16.8931 64.2584 16.7139C65.5964 16.1589 66.3926 14.7796 66.4398 13.3267C66.4062 12.6862 66.5939 11.7793 66.0676 11.2449H66.067Z" fill="#010101"></path>
          <path d="M97.9647 12.9858C97.821 12.1785 97.2112 11.7961 96.5121 11.756C95.9645 11.7884 95.6428 12.1875 95.3696 12.727C95.3754 12.5783 95.3826 12.4152 95.3897 12.2354C95.4421 10.9435 95.468 10.054 95.468 9.51576V9.48794C95.4395 8.98335 95.4059 8.61525 95.3638 8.3636L95.3606 8.34549C95.1787 7.45016 94.7424 6.9281 94.0128 6.42739C93.0872 5.78112 91.9466 5.56246 90.6241 5.77853C89.2945 5.99525 88.3042 6.56453 87.6795 7.47021L87.662 7.49738C87.4361 7.87389 87.3021 8.20252 87.2315 8.49751C87.0995 9.04481 87.2225 9.79264 87.583 10.162C87.8135 10.3982 88.1093 10.5489 88.4142 10.6013C88.0122 10.7921 87.8096 11.0114 87.5287 11.278C86.7053 12.0555 86.3777 13.1191 86.5577 14.4498C86.7409 15.6246 87.3837 16.4682 88.4725 16.9579C88.9987 17.1882 89.5774 17.304 90.2027 17.304C90.5678 17.304 90.9491 17.2645 91.3446 17.1856C92.1648 17.0219 92.9072 16.7069 93.5578 16.2482C93.8536 16.8162 94.8019 17.0549 95.6298 17.04C96.2267 17.0297 96.6539 16.7929 97.0714 16.2941C97.4889 15.7947 98.0683 13.7401 97.9667 12.9865L97.9647 12.9858ZM90.7361 9.19618C90.7575 8.95488 90.7225 8.73364 90.6358 8.53827C90.7756 8.4891 90.9264 8.44641 91.0896 8.42441C92.0657 8.29568 92.3065 8.49622 92.4444 8.63531C92.5978 8.78992 92.6651 9.38702 92.4567 9.65032C92.1531 10.0339 90.6973 10.0857 90.3238 10.1607C90.5633 9.9065 90.7018 9.58239 90.7361 9.19554V9.19618ZM92.6489 12.5265C92.926 14.4006 89.646 15.2177 89.3826 13.9717L89.3806 13.9562C89.2939 13.3882 89.4836 13.1986 89.5399 13.1424C89.837 12.7057 92.269 12.456 92.6528 12.2839C92.6502 12.3674 92.6489 12.4489 92.6489 12.5265Z" fill="#010101"></path>
          <path d="M114.016 15.3948C113.993 16.6556 113.21 17.4882 111.609 17.2922C109.674 17.0561 107.753 17.091 105.826 17.3155C105.148 17.3944 104.521 17.3297 104.139 16.666C103.729 15.9511 103.689 15.2098 104.095 14.4781C104.383 13.9567 104.834 13.7704 105.418 13.8894C105.478 13.9017 105.537 13.914 105.597 13.9269C106.492 14.112 106.672 13.9839 106.761 13.0698C106.789 12.78 106.787 12.4869 106.787 12.1952C106.787 9.87338 106.789 7.5516 106.781 5.22917C106.78 4.87854 106.748 4.52403 106.687 4.17923C106.617 3.78396 106.444 3.66816 106.046 3.70439C105.842 3.72315 105.639 3.77232 105.437 3.81307C104.829 3.93663 104.377 3.75356 104.086 3.21338C103.703 2.5063 103.71 1.78111 104.131 1.09732C104.532 0.446523 105.174 0.326846 105.886 0.389597C106.694 0.461404 107.503 0.547444 108.314 0.561029C108.77 0.568145 109.226 0.423235 109.685 0.381832C110.601 0.297733 110.91 0.559734 110.992 1.46736C111.02 1.76947 111.012 2.07481 111.013 2.37886C111.014 5.69818 111.012 9.01621 111.019 12.3355C111.02 12.7107 111.047 13.0898 111.108 13.4605C111.183 13.925 111.381 14.0525 111.846 13.9968C111.991 13.9793 112.133 13.9438 112.275 13.9153C112.88 13.7911 113.241 13.8765 113.555 14.2633L113.647 14.3882L113.648 14.3888H113.648C113.845 14.6282 113.998 15.0862 114.015 15.3942L114.016 15.3948Z" fill="#010101"></path>
          <path d="M99.4355 0.0726929H102.657V17.8118H99.5436C99.5436 11.908 99.4355 6.00103 99.4355 0.0726929Z" fill="#E31F32"></path>
          <path d="M127.463 11.3218C126.958 10.4724 126.095 10.0623 125.148 10.202C124.285 10.3288 123.606 11.0689 123.55 11.9429C123.497 12.7625 123.994 13.3945 124.889 13.6501C124.919 13.6585 124.943 13.6876 124.972 13.7076C124.607 14.0926 124.28 14.187 123.794 13.9496C122.917 13.4935 122.151 12.811 121.275 12.3549C119.984 11.7507 118.699 11.9306 117.673 12.963C117.537 13.0989 117.434 13.2904 117.368 13.4631C117.486 12.7314 117.617 12.4539 117.958 12.1835C118.983 11.2837 120.327 10.9997 121.583 10.5662C122.877 10.1315 124.136 9.6379 125.263 8.83702C128.085 6.83287 127.75 2.22166 124.432 0.788742C121.779 -0.357592 119.123 -0.235325 116.535 1.03133C114.557 1.87232 113.45 4.4147 114.725 6.30758C115.771 8.07366 118.976 7.4979 119.194 5.37473C119.282 4.78927 119.028 4.26009 118.681 3.80596C119.563 3.12346 121.284 3.16227 122.093 3.84412C122.507 4.19281 122.68 4.63271 122.601 5.17418C122.51 5.80104 122.15 6.26812 121.632 6.56311C118.154 8.39647 113.416 9.54474 113.738 14.4497C114.028 16.274 115.251 17.6428 116.717 17.6428C117.842 17.6098 119.116 16.8491 118.897 15.4841C118.869 15.1541 119.11 15.0772 119.362 15.1865C119.408 15.2065 119.453 15.2279 119.498 15.2512C119.712 15.3586 119.914 15.4951 120.104 15.6387C120.638 16.0404 121.138 16.49 121.689 16.8665C122.568 17.4688 123.548 17.8039 124.62 17.5982C126.385 17.2592 127.348 16.0585 127.825 14.4199C128.136 13.3512 128.041 12.2987 127.462 11.3231L127.463 11.3218Z" fill="#010101"></path>
          <path d="M37.7979 5.46728C37.0263 3.89398 34.7996 3.60417 33.4771 4.64505C33.1029 4.92128 32.7521 5.29067 32.5171 5.68723C30.2962 5.51451 27.8759 7.13568 27.9678 9.63988C27.9846 10.1917 28.0163 10.3502 28.2442 10.7112C27.9775 10.882 27.7503 11.1103 27.5431 11.3562C26.8511 12.1409 26.8272 13.469 27.4952 14.2757C27.6163 14.4277 27.861 14.6075 28.0027 14.7382C24.693 17.4087 28.3749 21.6013 32.1456 21.2831C34.1626 21.2533 36.3926 20.2771 37.1034 18.3079C37.2723 17.8661 37.3584 17.3841 37.3584 16.875C37.3584 16.6557 37.3047 16.3316 37.249 16.0935C37.2419 16.0644 37.2354 16.0359 37.2283 16.0094C36.9033 14.9769 36.1686 14.1754 35.1148 13.7277C34.6345 13.535 33.8901 13.2814 32.9528 13.1546C33.3424 13.1158 33.7205 13.0181 34.0797 12.8635C35.4585 12.2191 36.5331 10.8199 36.4625 9.25109C36.4625 8.86229 36.3376 8.49549 36.2677 8.17527C36.3564 8.17527 36.6114 8.19079 36.6878 8.1785C37.9792 8.10346 38.3469 6.44606 37.7979 5.46857V5.46728ZM34.4973 17.5523C34.1827 18.359 32.5786 18.6352 31.2134 18.4541C29.8482 18.273 29.3407 17.5167 29.6637 16.8394C29.8049 16.5438 29.9757 16.1375 31.8141 15.9758C33.6525 15.814 34.9135 16.4842 34.4979 17.5523H34.4973ZM33.4305 10.0028C33.3651 10.1335 33.2667 10.246 33.1424 10.3224C32.1074 10.9596 29.9097 10.0358 31.1532 8.77108C31.3817 8.53819 31.8743 8.43986 32.1889 8.43986C33.1949 8.4405 33.9444 8.9768 33.4311 10.0028H33.4305Z" fill="#010101"></path>
          <path d="M59.3366 14.8281C59.1022 14.5079 58.8304 14.2401 58.2963 14.2213H57.6859L57.6736 9.9756C57.6736 8.40295 57.192 7.18351 56.2333 6.34381C55.3905 5.63221 54.3645 5.2874 53.1832 5.31522C52.4038 5.33786 51.6432 5.62185 50.9143 6.16138C50.8891 6.13033 50.8619 6.09993 50.8334 6.07017C50.5732 5.79976 50.2463 5.65679 49.8877 5.65679H47.8894C46.0698 5.71048 46.1313 8.59831 47.8512 8.55044H48.5542V14.2536H48.0221C47.6557 14.2536 47.3249 14.3901 47.0654 14.6496C46.8064 14.9083 46.6692 15.2357 46.6692 15.596C46.6692 15.9033 46.7702 16.3626 47.055 16.6466C47.3075 16.8995 47.6285 17.0334 47.9833 17.0334H51.9416C52.2912 17.0334 52.6122 16.9028 52.8699 16.6563C52.9941 16.5373 53.0848 16.3891 53.1489 16.2339C53.2097 16.3859 53.2951 16.5314 53.4117 16.6466C53.6641 16.8995 53.9852 17.0334 54.3399 17.0334H58.2989C59.3994 17.0871 60.0065 15.6368 59.3346 14.8281H59.3366ZM54.3801 14.2543C54.013 14.2543 53.6829 14.3914 53.4233 14.6502C53.3062 14.7673 53.2142 14.898 53.1489 15.039C53.0854 14.9064 52.998 14.7815 52.8893 14.6677C52.6291 14.3973 52.3022 14.2543 51.9442 14.2543H51.3364V10.193C51.3364 10.1774 51.3364 10.1626 51.337 10.147C51.3364 9.49947 51.5454 8.21275 53.121 8.19981C54.7225 8.18687 54.8532 9.54928 54.8565 10.0157L54.9057 14.2543H54.3794H54.3801Z" fill="#010101"></path>
          <path d="M86.2272 14.8042C85.9929 14.484 85.721 14.2162 85.1869 14.1974H84.5765L84.5642 9.95173C84.5642 8.37908 84.0826 7.15964 83.1239 6.31995C82.2811 5.60834 81.2551 5.26354 80.0738 5.29135C79.2944 5.31399 78.5338 5.59799 77.8049 6.13752C77.7797 6.10647 77.7525 6.07606 77.724 6.0463C77.4638 5.77589 77.1369 5.63292 76.7783 5.63292H74.78C72.9604 5.68662 73.0219 8.57445 74.7418 8.52658H75.4448V14.2298H74.9127C74.5463 14.2298 74.2156 14.3663 73.956 14.6257C73.6971 14.8845 73.5598 15.2118 73.5598 15.5721C73.5598 15.8794 73.6608 16.3387 73.9456 16.6227C74.1981 16.8757 74.5192 17.0096 74.8739 17.0096H78.8322C79.1818 17.0096 79.5028 16.8789 79.7605 16.6324C79.8848 16.5134 79.9754 16.3652 80.0395 16.21C80.1003 16.362 80.1858 16.5076 80.3023 16.6227C80.5547 16.8757 80.8758 17.0096 81.2305 17.0096H85.1895C86.29 17.0633 86.8972 15.6129 86.2252 14.8042H86.2272ZM81.2707 14.2304C80.9036 14.2304 80.5735 14.3676 80.3139 14.6263C80.1968 14.7434 80.1049 14.8741 80.0395 15.0151C79.976 14.8825 79.8887 14.7577 79.7799 14.6438C79.5197 14.3734 79.1928 14.2304 78.8348 14.2304H78.227V10.1691C78.227 10.1536 78.227 10.1387 78.2276 10.1232C78.227 9.4756 78.4354 8.18889 80.0116 8.17595C81.6131 8.16301 81.7439 9.52541 81.7471 9.99184L81.7963 14.2304H81.27H81.2707Z" fill="#010101"></path>
          <path d="M72.7186 14.6413C72.4629 14.3754 72.0007 14.2415 71.7916 14.235H71.2168V7.18297C71.2168 6.8401 71.0685 6.15955 70.3681 6.00882C70.5351 5.93183 70.6853 5.82639 70.818 5.69442C71.1326 5.38002 71.2925 4.95887 71.2925 4.44393C71.2925 3.92898 71.1333 3.52984 70.818 3.21414C70.5028 2.89974 70.0892 2.7406 69.5881 2.7406C69.0871 2.7406 68.6741 2.89845 68.353 3.20897C68.0274 3.52401 67.863 3.93998 67.863 4.44393C67.863 4.94787 68.0281 5.38519 68.353 5.69959C68.3751 5.72094 68.3971 5.74035 68.4197 5.75975C68.3621 5.75652 68.3032 5.75458 68.2436 5.75458C67.9582 5.75458 67.1885 5.66078 66.6234 6.24365C66.3729 6.50177 66.2344 6.8194 66.2344 7.17262C66.2344 7.52583 66.3658 7.84476 66.6131 8.09124C66.861 8.339 67.1756 8.47033 67.5232 8.47033H68.344V14.2343H67.7213C66.0382 14.1703 65.8894 16.9999 67.6818 17.0788H71.7909C72.134 17.0788 72.4493 16.9507 72.7024 16.7081C73.0946 16.3329 73.0992 15.5696 73.0992 15.5625C73.0992 15.2196 72.9671 14.9013 72.7173 14.6406L72.7186 14.6413Z" fill="#010101"></path>
        </svg>