<svg width="194" height="42" viewBox="0 0 194 42" fill="none" xmlns="http://www.w3.org/2000/svg">
<g clip-path="url(#clip0)">
<path d="M0 20.3456L20.1529 0.192574L40.306 20.3456L20.1529 40.5L0 20.3456Z" fill="#5DB9E8"/>
<path d="M135.213 30.5H132.356V10.5H149.584V13.357H135.213V30.5Z" fill="black"/>
<path d="M86.5183 30.5H83.6614V10.5H96.5167C100.454 10.5 103.659 13.7045 103.659 17.6423C103.659 21.5802 100.454 24.7847 96.5167 24.7847H86.5183V30.5ZM86.5183 21.9277H96.5167C98.8798 21.9277 100.804 20.0055 100.804 17.6423C100.804 15.2792 98.8798 13.357 96.5167 13.357H86.5183V21.9277Z" fill="black"/>
<path d="M196.477 30.5H186.479C180.964 30.5 176.48 26.0142 176.48 20.4993C176.48 14.9868 180.964 10.5 186.479 10.5H196.477V13.357H186.479C182.538 13.357 179.334 16.5614 179.334 20.4993C179.334 24.4372 182.538 27.6431 186.479 27.6431H196.477V30.5Z" fill="#5DB9E8"/>
<path d="M77.2836 30.5H80.4823L70.416 10.5H68.6554L58.5929 30.5H61.79L64.6662 24.7847H74.4076L77.2836 30.5ZM66.1043 21.9277L69.5364 15.1066L72.971 21.9277H66.1043Z" fill="black"/>
<path d="M124.775 10.5L109.651 25.6211V10.5H106.794V30.5H108.814L123.935 15.3774V30.5H126.794V10.5H124.775Z" fill="black"/>
<path d="M172.084 10.5L165.265 21.029L156.716 10.5H153.037L163.633 23.5504L159.132 30.5H162.535L175.487 10.5H172.084Z" fill="#5DB9E8"/>
</g>
<defs>
<clipPath id="clip0">
<rect width="194" height="41.0006" fill="white" transform="translate(0 0.499512)"/>
</clipPath>
</defs>
</svg>
