<?xml version="1.0" encoding="UTF-8"?>
<svg xmlns="http://www.w3.org/2000/svg" version="1.1" viewBox="0 0 248 60">
  <defs>
    <style>
      .cls-1 {
        fill: #828282;
      }

      .cls-2 {
        fill: #ab3d47;
      }
    </style>
  </defs>
  <!-- Generator: Adobe Illustrator 28.6.0, SVG Export Plug-In . SVG Version: 1.2.0 Build 709)  -->
  <g>
    <g id="Livello_1">
      <g>
        <path class="cls-1" d="M192.9517,43.0361c-1.3004-1.739-2.5721-3.5041-3.8634-5.2375-.1079.0214-.102.0832-.1027.139-.0016.1164-.0009.2328-.0009.3492,0,4.0449,0,8.0898,0,12.1347,0,.1309.0023.2621-.0036.3928-.0067.1471-.0449.1967-.1748.1979-.495.0046-.9901.0045-1.4851.0002-.133-.0012-.1769-.0521-.1847-.1891-.0066-.1161-.0047-.2327-.0047-.3491-.0002-5.9364-.0002-11.8728.0002-17.8092,0-.1308.0026-.2617.009-.3922.0011-.0222.0235-.0538.0436-.0617.0207-.0081.0594-.001.075.0146.051.0511.0985.1065.1412.1648.413.5628.8251,1.1264,1.237,1.6901,1.3558,1.8555,2.708,3.7137,4.0695,5.565.3364.4573.2654.4498.6008-.0073,1.6868-2.2981,3.3648-4.6027,5.0461-6.9049.1029-.141.2071-.281.3115-.4209.0341-.0456.0694-.1045.1314-.0972.0808.0095.0593.0861.0613.1385.0044.1162.0021.2328.0021.3491,0,5.9219.0004,11.8437-.0003,17.7656,0,.595.0549.5482-.5304.5489-.364.0004-.7281.0027-1.0921-.0032-.1878-.003-.2211-.0423-.2288-.2378-.0052-.1308-.002-.2619-.002-.3928,0-4.0449,0-8.0898-.0004-12.1347,0-.1307-.0035-.2615-.0113-.3919-.0012-.0209-.0309-.0518-.0522-.0566-.0217-.0049-.059.0094-.0732.0277-.1422.1842-.2829.3697-.4206.5573-1.0676,1.4535-2.1341,2.9078-3.2022,4.361-.0762.1037-.1391.2229-.295.2899Z"/>
        <path class="cls-1" d="M116.0999,32.1394c2.5345,4.227,5.0689,8.454,7.6032,12.6806.1357-.0507.0835-.1528.0838-.2246.0043-1.004.003-2.0081.003-3.0121,0-2.823-.0003-5.6461.0003-8.4691.0001-.568-.0421-.52.5146-.5213.3641-.0009.7282-.0029,1.0922.0027.1926.0029.2299.0432.2386.2286.0055.1162.0024.2328.0024.3492,0,5.8789,0,11.7578-.0004,17.6367,0,.1453-.0055.2905-.0084.4358-.0007.0364-.0176.0599-.0495.0562-.0255-.003-.0613-.0107-.0725-.0288-.1992-.3213-.3969-.6435-.5919-.9673-1.5236-2.5295-3.0469-5.0591-4.5695-7.5892-.7276-1.2089-1.4535-2.4188-2.1803-3.6282-.0374-.0623-.0727-.1262-.1147-.1854-.0237-.0334-.0559-.0749-.1051-.0455-.0196.0117-.036.0448-.0371.0689-.0052.1162-.006.2327-.006.349-.0003,1.6589-.0001,3.3178-.0001,4.9767,0,2.0518,0,4.1036-.0002,6.1554,0,.1309.0025.2622-.0067.3926-.0109.154-.0645.2098-.2168.213-.3057.0065-.6116.0038-.9174.0038-.1893,0-.3788.0025-.5678-.0045-.1337-.005-.1733-.0499-.1808-.1919-.0061-.1161-.0038-.2327-.0038-.3491,0-5.9662,0-11.9324.0005-17.8986,0-.1403.0066-.2807.0101-.421.0268-.0042.0536-.0084.0805-.0126Z"/>
        <path class="cls-1" d="M217.5688,32.1723c.7285,1.0172,1.3501,2.0813,1.9853,3.137.6376,1.0597,1.276,2.1189,1.9124,3.1792.6364,1.0604,1.2724,2.1211,1.9059,3.1833.6289,1.0546,1.2556,2.1106,1.9737,3.1311,0-.1551,0-.3103,0-.4654,0-3.726-.0007-7.452.0004-11.178.0002-.6315-.0565-.5627.5568-.5667.2913-.0019.5826-.0018.874,0q.4195.0026.4229.4426c.0002.0291,0,.0582,0,.0873,0,5.9092,0,11.8184-.0004,17.7277,0,.1308-.0028.2617-.0094.3923-.0011.0212-.0255.0527-.0453.0584-.021.0061-.0602-.005-.0726-.0221-.068-.094-.134-.19-.1939-.2894-.3757-.623-.7493-1.2471-1.1242-1.8706-1.4468-2.4066-2.8934-4.8133-4.341-7.2194-.5476-.9101-1.0975-1.8188-1.6467-2.7279-.0677-.1121-.1371-.2231-.2058-.3345-.0241-.039-.0569-.0686-.1045-.0502-.0498.0192-.0387.0693-.0393.1095-.0017.1019-.0007.2038-.0007.3056,0,2.8091.0002,5.6181.0002,8.4272,0,.9461.0001,1.8921-.0001,2.8382,0,.1164.0019.233-.0041.3492-.0073.1413-.0498.1944-.1782.1955-.4952.0043-.9904.0044-1.4855-.0002-.1308-.0012-.1686-.0505-.1765-.1959-.0055-.1016-.0034-.2037-.0034-.3056,0-5.982,0-11.964,0-17.946v-.3922Z"/>
        <path class="cls-1" d="M88.471,58.4854c-.0001.7079.0947.6041-.5907.6043-.2113,0-.4713.1014-.6246-.0627-.1355-.145-.0516-.3914-.0516-.5922-.0023-19.6342-.0021-37.2684-.0019-56.9026,0-.1601.0014-.3202.0051-.4802.0023-.0997.0496-.1707.1556-.1715.3202-.0025.6406-.0018.9608.0032.107.0017.1474.0738.1469.1751-.0007.1455.0017.2911.0017.4366,0,9.8389.0007,47.1656-.0013,56.9899Z"/>
        <path class="cls-1" d="M204.7376,41.8013c0-2.8674-.0001-5.7347.0004-8.6021,0-.1454-.0005-.2913.0109-.4361.0076-.0965.0701-.1579.1713-.1634.1017-.0055.2037-.0068.3056-.0069,2.3598-.0003,4.7196,0,7.0794-.0005.47,0,.4548-.0172.4539.4521-.0007.3784.0028.7569-.0023,1.1353-.003.2217-.0279.2413-.2593.2492-.1164.004-.233.0013-.3496.0013-1.6752,0-3.3503.0001-5.0255,0-.529,0-.4965-.0287-.4965.4987,0,1.8194.0004,3.6388-.0002,5.4582-.0002.5213-.0223.4923.5051.4922,1.6752-.0002,3.3503,0,5.0255,0,.102,0,.204-.002.3059.0008.28.0076.2921.016.2952.303.0044.4075.0044.8151.0004,1.2226-.0029.2894-.0178.3015-.2889.3092-.1019.0029-.2039.0009-.3059.0009-1.646,0-3.292,0-4.9381,0-.1165,0-.2332-.003-.3496.0018-.2141.0087-.2392.0367-.2484.2642-.0029.0727-.0009.1455-.0009.2183,0,1.8339.0006,3.6679-.0005,5.5018-.0003.5028-.0162.48.4726.4799,1.7189-.0004,3.4377-.0004,5.1566,0,.5333.0001.5047-.0383.5043.4885-.0003.3784.0018.7569-.0036,1.1352-.0024.167-.0415.201-.2089.2092-.1017.005-.2039.0027-.3058.0027-2.3307.0001-4.6613.0001-6.9919-.0001-.1165,0-.2332.0008-.3494-.0056-.104-.0057-.1546-.0712-.1575-.1716-.0037-.1309-.0041-.2619-.0041-.3929-.0002-2.8819-.0001-5.7638-.0001-8.6457Z"/>
        <path class="cls-1" d="M146.702,41.8018c0-2.8659-.0001-5.7318.0003-8.5976,0-.1454-.0006-.2912.0099-.436.0069-.0958.0648-.1608.1671-.1679.087-.006.1745-.0073.2618-.0074,2.3877-.0004,4.7754-.0004,7.163-.0001.0873,0,.1748.0002.2619.0056.1049.0065.1561.0723.1565.1713.0021.4946.0036.9891-.0006,1.4837-.0011.1268-.0532.1663-.1989.1732-.1162.0055-.2329.0036-.3493.0036-1.6743.0002-3.3486,0-5.0229.0002-.1165,0-.2331-.0027-.3493.0032-.1606.0082-.1939.0447-.2024.2168-.005.1016-.0023.2036-.0023.3054-.0001,1.8039,0,3.6078,0,5.4117,0,.0873-.0023.1747.0013.2618.0092.2197.031.2408.2627.2485.1164.0039.2329.0012.3494.0012,1.6597,0,3.3195-.0002,4.9792.0004.1308,0,.2619.0017.3924.0098.0823.0051.1304.0593.137.1405.0071.0868.0082.1742.0085.2613.0009.32.0001.6401.0005.9601.0005.4886.0238.465-.486.4643-.1165-.0002-.2329,0-.3494,0-1.6015,0-3.203,0-4.8045,0-.5257,0-.4912-.0297-.4912.5021-.0001,1.8185,0,3.6369,0,5.4554,0,.1018-.0022.2038.0033.3054.0087.1597.0445.1927.219.2004.1163.0052.2329.0026.3494.0026,1.6888.0001,3.3777,0,5.0665,0,.526,0,.4927-.0301.4927.5007,0,.3637.003.7274-.0021,1.091-.0029.2033-.0344.2326-.2226.2417-.1017.0049-.2038.0023-.3057.0023-2.3149,0-4.6297.0007-6.9446-.0004-.5931-.0003-.5504.0566-.5505-.5302-.0004-2.895-.0002-5.79-.0002-8.6849Z"/>
        <path class="cls-2" d="M150.5218,18.0457c0-2.8955-.0009-5.7909.0008-8.6864.0003-.5153-.0652-.4887.499-.4888,2.3444-.0002,4.6888.0003,7.0332-.0004.5124-.0001.4823-.0236.482.4667-.0002.3928.0017.7857-.004,1.1785-.0024.164-.0429.1975-.2144.2047-.1163.0049-.2329.0018-.3494.0018-1.66,0-3.32,0-4.98.0001-.1165,0-.2331-.0025-.3495.0015-.2169.0075-.2445.0334-.2477.2585-.0043.3055-.0015.6111-.0015.9166,0,1.586-.0001,3.1719.0002,4.7579,0,.1163.0022.2327.0059.349.0028.0891.0619.1285.141.1329.1162.0065.2329.0045.3493.0046,1.7037.0002,3.4074-.0019,5.1111.0013.5752.0011.5367-.0851.5386.5364.001.3346.0032.6693-.0007,1.0039-.0035.2976-.0137.3044-.3296.3099-.0873.0015-.1747.0002-.2621.0002-1.6891,0-3.3783.0005-5.0674-.0003-.5198-.0003-.4864-.0209-.4864.4615.0001,1.8479,0,3.6957.0003,5.5436,0,.1018.0024.2036.0056.3053.0028.0873.0581.1338.1371.1389.1306.0084.2619.0062.3929.0062,1.7037.0003,3.4074.0001,5.1111.0004.1165,0,.2332-.0016.3493.005.0821.0047.1285.058.1415.1384.0046.0286.0072.0578.0072.0867.0004.4656.003.9312-.0012,1.3968-.0015.1673-.0435.2046-.2051.2128-.0872.0044-.1747.0016-.2621.0016-2.359,0-4.7179,0-7.0769,0-.0437,0-.0874.0006-.1311-.0002-.3321-.0058-.3364-.0058-.3365-.3408-.0012-2.7645-.0007-5.529-.0007-8.2935,0-.2037,0-.4074,0-.6111Z"/>
        <path class="cls-1" d="M136.1461,51.4852c-.0682-.1641-.1378-.3212-.1994-.4813-.8611-2.2388-1.722-4.4777-2.5812-6.7173-.8695-2.2667-1.7353-4.5348-2.6059-6.8011-.5317-1.3842-1.0736-2.7646-1.5999-4.1508-.085-.224-.237-.437-.1894-.6995.2254-.0829.4593-.0341.6891-.0404.3201-.0088.6408.0045.9609-.0043.1542-.0042.247.0547.2997.1947.1024.2721.2077.5431.3112.8148,1.0652,2.7987,2.1305,5.5974,3.1954,8.3963.5531,1.4537,1.1054,2.9077,1.6589,4.3613.0187.0491.0168.1145.0873.1301.0848-.0251.0915-.1033.1167-.1696.4696-1.2367.939-2.4734,1.4096-3.7098.6568-1.7254,1.3153-3.4501,1.9718-5.1756.5583-1.4674,1.1173-2.9345,1.6705-4.4038.1844-.4896.1603-.4335.6144-.4358.4792-.0025.9585-.0006,1.4359-.0006.06.1833-.0317.3095-.0811.4391-.3829,1.0053-.7718,2.0084-1.1573,3.0128-.7345,1.9136-1.467,3.828-2.2022,5.7413-.6674,1.737-1.3371,3.4731-2.0057,5.2096-.5485,1.4245-1.097,2.849-1.6449,4.2737-.0305.0792-.0402.171-.1543.2161Z"/>
        <path class="cls-2" d="M142.8165,19.031c0,2.5894.0004,5.1787-.0003,7.7681-.0001.5202.0506.4934-.4966.4924-.3931-.0007-.7862.002-1.1792-.0033-.1598-.0022-.1974-.0467-.2035-.2132-.0048-.1308-.002-.2618-.002-.3927,0-5.106,0-10.2119,0-15.3179,0-.1164.0018-.2328-.0006-.3491-.0059-.2856-.0066-.2912-.2964-.2919-1.0773-.0027-2.1546-.0015-3.232-.0013-.4693,0-.447.0287-.4457-.4537.0012-.4073.0015-.8146.0028-1.2219.0003-.1012.0453-.1662.153-.1704.1018-.0039.2037-.0054.3055-.0054,2.9699-.0003,5.9398,0,8.9097-.0005.5374,0,.4945-.0251.4947.4971.0001.3782.0025.7565-.0026,1.1346-.0023.1724-.0411.2092-.2023.217-.1162.0056-.2329.0029-.3493.0029-.99.0002-1.9799-.0002-2.9699.0004-.1163,0-.2328.0019-.3489.0078-.0852.0044-.1282.058-.1307.1404-.004.1308-.0055.2617-.0056.3925-.0003,2.5894-.0002,5.1787-.0002,7.7681Z"/>
        <path class="cls-1" d="M171.6702,42.719c0,2.5892.0003,5.1783-.0003,7.7675-.0001.5869.0437.5283-.5499.5305-.3494.0013-.6988.0035-1.0481-.0023-.2126-.0035-.2412-.038-.2493-.2627-.0047-.1308-.0017-.2618-.0017-.3927,0-5.1056,0-10.2112-.0004-15.3167,0-.1454.0007-.2911-.0101-.4359-.007-.0947-.0623-.1634-.1658-.169-.1162-.0062-.2327-.0071-.3491-.0072-.9753-.0005-1.9507-.0003-2.926-.0003-.1019,0-.2039.0026-.3057-.0015-.2071-.0082-.2405-.0325-.2425-.2211-.005-.4654-.0047-.9309.0001-1.3963.0018-.1727.0401-.2071.2035-.2154.1162-.0059.2328-.0034.3493-.0034,2.926-.0001,5.852-.0004,8.778.0002.5829.0001.5327-.0492.5345.5457.0009.3055.0023.6109-.0005.9164-.0034.3688-.0051.3703-.3558.3747-.2329.0029-.4658.0007-.6988.0007-.8298,0-1.6595-.0005-2.4893.0006-.1161.0002-.2326.0044-.3482.0142-.0638.0054-.1057.0532-.1102.115-.0095.1302-.0134.261-.0135.3915-.0007,2.5892-.0005,5.1783-.0005,7.7675Z"/>
        <path class="cls-1" d="M234.9485,42.6737v-7.5959c0-.0873.0008-.1746-.0002-.2619-.0044-.3809-.0046-.3842-.3885-.3849-1.0049-.0019-2.0097-.0006-3.0145-.0007-.1019,0-.204.002-.3058-.0008-.28-.0077-.2924-.0168-.2953-.3026-.0041-.4074-.0042-.8149,0-1.2223.0031-.2995.0132-.3052.3305-.3116.0728-.0015.1456-.0003.2184-.0003,2.9272,0,5.8543-.0004,8.7815.0003.588.0001.5352-.049.5375.5428.0013.3201.003.6403-.0007.9604-.0038.3274-.0066.3289-.3521.3335-.2184.0029-.4369.0007-.6553.0007-.8447,0-1.6893-.0001-2.534.0002-.1019,0-.204-.0002-.3057.0047-.1048.0051-.156.0693-.159.1694-.0043.1454-.0045.291-.0045.4364-.0002,5.1221-.0001,10.2443-.0003,15.3664,0,.1455-.0004.291-.005.4364-.0031.1006-.0558.1674-.1601.1678-.5096.0019-1.0192.0016-1.5288-.0018-.1064-.0007-.1504-.0753-.1535-.1729-.0043-.1308-.0046-.2618-.0046-.3928-.0002-2.5902-.0002-5.1804-.0002-7.7705Z"/>
        <path class="cls-1" d="M158.6378,51.0175c-.0058-.1214.0466-.1527.0917-.1843.8184-.5742,1.3168-1.3824,1.6709-2.2927.4196-1.0787.5287-2.2036.4237-3.3448-.0885-.9622-.375-1.8787-.7828-2.7549-.4929-1.0591-.8737-2.1556-1.0737-3.3075-.2575-1.4835-.227-2.9536.302-4.3834.2693-.728.6479-1.3969,1.1576-1.9878.0778-.0902.1504-.1702.2858-.1696.7669.0033,1.5339.0016,2.3118.0016-.024.1438-.1303.1798-.2056.2341-1.0489.756-1.6132,1.8105-1.875,3.0468-.1115.5267-.16,1.0655-.1633,1.6018-.0045.7422.0888,1.4767.2754,2.199.1571.6079.3853,1.188.6374,1.7605.4174.9476.7471,1.9247.9323,2.9442.2255,1.2412.2526,2.4853-.0361,3.7225-.2354,1.0088-.7032,1.904-1.3507,2.7097-.1071.1332-.2228.2099-.4042.208-.7274-.0076-1.455-.0032-2.1973-.0032Z"/>
        <path class="cls-1" d="M110.1399,41.7871c0,2.896.0004,5.792-.0003,8.688-.0001.5915.0487.5408-.5383.5421-.3641.0008-.7283.0034-1.0923-.0025-.2035-.0033-.2479-.0531-.2592-.2639-.0062-.1161-.0026-.2328-.0026-.3492,0-5.7338,0-11.4676.0002-17.2013,0-.1309-.0023-.2622.0069-.3926.0106-.1519.0653-.207.219-.211.262-.0068.5242-.0035.7864-.004.1893-.0004.3787-.0029.568.0007.2986.0057.3055.0142.3119.3312.0021.1018.0005.2037.0005.3056,0,2.8523,0,5.7047,0,8.557Z"/>
        <path class="cls-1" d="M181.2193,41.8166c0,2.8518,0,5.7036,0,8.5554,0,.1164.0022.2329-.001.3492-.0076.2784-.018.2922-.3039.2948-.4368.0039-.8737.0038-1.3105-.0011-.1944-.0022-.2272-.0391-.2354-.229-.0051-.1162-.0022-.2328-.0022-.3491,0-5.7473,0-11.4945.0001-17.2418,0-.1455,0-.291.0057-.4363.004-.1025.064-.1613.1668-.1613.5095-.0004,1.0189.0007,1.5284.0046.0823.0006.1363.0553.1413.1361.009.145.0101.2906.0101.4359.0005,2.8809.0004,5.7618.0004,8.6427Z"/>
        <path class="cls-1" d="M246.3459,41.8453c0,2.8808,0,5.7616,0,8.6424,0,.5653.0331.5295-.5106.5295-.3786,0-.7572.0021-1.1357-.0034-.1632-.0024-.1978-.0434-.2057-.2135-.0054-.1162-.0029-.2327-.0029-.3491,0-5.7616-.0005-11.5232.0005-17.2849.0001-.6459-.0618-.5691.5939-.5732.3494-.0022.699-.0025,1.0483.0038.1609.0029.2.0475.2083.2133.0066.1306.0037.2618.0037.3927.0001,2.8808.0001,5.7616.0001,8.6424Z"/>
        <path class="cls-2" d="M114.48,8.4825c2.3948,6.2267,4.7881,12.454,7.1798,18.6818.0091.0237-.0051.0564-.0083.0843-.0787.0525-.1679.042-.2544.0421-.4514.0009-.9028.0025-1.3542-.0002-.3113-.0019-.3144-.0037-.4313-.3108-.5328-1.3992-1.0634-2.7992-1.5952-4.1988-1.1411-3.0031-2.2817-6.0064-3.4266-9.008-.045-.1181-.0557-.2588-.1705-.3465-.0864-.0108-.0723.0683-.0953.1093-.0282.0503-.0462.1066-.0668.1609-1.0792,2.8398-2.1583,5.6797-3.2372,8.5197-.5885,1.5491-1.1767,3.0983-1.7653,4.6473-.0361.0951-.0733.1898-.1122.2838-.0363.0878-.0995.1406-.1989.1404-.5532-.0008-1.1064-.0002-1.6596-.0036-.0884-.0005-.133-.0629-.1086-.1441.0334-.1112.0719-.221.1136-.3294,2.305-5.9977,4.7202-12.2632,7.0262-18.2606.0519-.1351.1558-.0911.1648-.0677Z"/>
        <path class="cls-2" d="M68.7537,50.4047c-1.6887-.0003-3.3776.0002-5.0663-.001-.1597,0-.3194-.0107-.4791-.0164-.0696-.1225-.0386-.2566-.0386-.3851-.0014-13.4474-.001-26.8948-.004-40.3422,0-.2849.0417-.5476.2136-.7819.1474-.1268.3272-.0947.4986-.095,1.3922-.0021,2.7844.0015,4.1765-.0027.3989-.0013.794-.0502,1.1817-.1484.0206-.5696.0491-.4892-.4686-.4971-.0145-.0002-.0291,0-.0436,0-8.4241,0-16.8482,0-25.2723,0-.1164,0-.2327.0004-.3491.0017-.0991.001-.1683.0371-.166.1501.0024.1162.0058.2323.0089.3485.1675.1959.3983.1438.6089.1444,1.5922.0048,3.1843.0011,4.7766.0042.1843.0004.3794-.0426.5466.0852.1665.1826.1181.4106.1181.6235.0025,13.3424.0004,26.6848.0101,40.0273.0003.4463-.0738.7713-.5589.8714-.4948.0045-.9896.0132-1.4844.0123-.5128-.001-.4163.0611-.6216-.4233-1.764-4.1628-3.5241-8.327-5.2882-12.4897-2.7737-6.545-5.5525-13.0879-8.2276-19.674-.3336-.8214-.6623-1.6452-1.0671-2.4359-.6381-1.2466-1.3503-2.4431-2.2828-3.499-1.1238-1.2728-2.4457-2.2765-3.9947-2.9766-1.2139-.5485-2.4954-.7693-3.8203-.7699-2.257-.001-4.5139-.0003-6.7709-.0002-1.3542,0-2.7084.001-4.0626-.0006-.3437-.0005-.3189.026-.3143.3559.0014.1064.0633.1518.166.1577.087.005.1736.0177.2604.027.1153.1498.294.1802.4567.2387.4.1437.7753.3344,1.1171.5871.8823.6525,1.6503,1.4216,2.3499,2.2657,1.2136,1.4642,2.1541,3.1063,3.1299,4.7267.147.244.0967.4648.0231.7084-.6019,1.9913-1.2133,3.9799-1.8123,5.972-1.0892,3.6222-2.1922,7.2402-3.2876,10.8605-1.2597,4.1632-2.5318,8.3228-3.7834,12.4885-.3027,1.0075-.6051,2.0073-1.3368,2.8073-.0751.0678-.1449.143-.2262.2024-.7581.5527-1.5943.877-2.5453.873-.943-.0039-1.886-.0007-2.829-.0006-.116,0-.2322-.0025-.3481.0016-.1492.0052-.1825.038-.1896.1724-.0153.2906.0148.3272.3029.3288.5368.0029,1.0736-.0017,1.6103.0015.5365.0032,6.8223.0006,7.0258.0002,1.1069-.0019,2.2137-.001,3.3205-.001.102,0,.204.0024.3059-.0014.177-.0066.2086-.0373.2168-.1977.0138-.2723-.0095-.2979-.2809-.3039-.0873-.002-.1748-.0005-.2621-.0005-.8155,0-1.6312.0018-2.4467-.0014-.2035-.0007-.4097.0006-.6099-.03-.6926-.106-1.1228-.5476-1.1985-1.2451-.0471-.4339-.038-.8656.0856-1.2963.9619-3.3532,2.9399-10.2542,2.9746-10.3493.053-.2431.1479-.3887.3655-.4707.1718-.031.3469-.0202.5213-.0202,3.9158-.0006,7.8317-.001,11.7484-.0009,1.0135.0042.8853-.1171,1.3108.8926.8467,2.0089,1.6838,4.0241,2.7671,5.9217,1.1068,1.9391,2.4792,3.6478,4.3215,4.9559,2.3247,1.6506,4.9636,2.0839,7.7465,2.1481,1.4832.0342,21.3499,0,21.5096,0,1.9071-.0012,3.8143-.0006,5.7214-.001.1309,0,.2619-.0022.3927-.0068.0874-.003.1283-.0598.1341-.1402.0052-.0723.0038-.1454.0009-.218-.0034-.0861-.054-.1304-.1379-.133-.1164-.0038-.2328-.005-.3492-.005ZM25.3853,36.3485h-.6274s-.0009,0-.0013,0c-3.6149.0008-7.2297.0006-10.8446.0006h-.8127s.1807,0,.1805,0c-.1805,0-.1906-.1509-.1742-.2159.0169-.0715.0428-.1378.0627-.2035,1.3662-4.5137,2.7349-9.0266,4.104-13.5395.4045-1.3333.8109-2.6661,1.2164-3.9991.1035-.1741.1985-.0925.2788.0167.1009.1372.1486.3022.2112.4583,2.2473,5.6084,4.5166,11.2079,6.7501,16.8217.0797.2004.305.6605-.3434.6605Z"/>
        <path class="cls-2" d="M131.7655,24.4048c-.8336-.9498-1.676-1.8921-2.4971-2.8415.0744-.1265.1812-.1285.2759-.1551.4352-.1224.8556-.282,1.2553-.4944,2.3472-1.2472,4.0092-4.0852,3.1557-7.3531-.3998-1.5311-1.3228-2.7011-2.5998-3.6038-.8868-.6269-1.8789-.9767-2.9642-1.0512-1.0762-.074-2.1541-.0202-3.2312-.0334-.0145-.0002-.0291.0007-.0436.0019-.1001.0082-.1639.0569-.1673.1619-.0042.1308-.0042.2618-.0042.3928-.0002,5.7764-.0002,11.5527,0,17.3291,0,.1164-.0027.233.0031.3491.0069.1342.0489.1788.191.1807.3931.0052.7862.0037,1.1794.0036.5773-.0002.5122.0377.513-.5171.0019-1.5568,0-3.1137.0022-4.6705.0002-.1073-.0281-.2248.0359-.3211.1049.0173.1438.0811.1902.1332.3877.4343.7749.869,1.1614,1.3045,1.1401,1.2845,2.2812,2.5679,3.4172,3.8559.1235.1401.2482.222.4448.219.6551-.0099,1.3105-.0036,1.9658-.005.0545,0,.1163.0103.1737-.0916-.8079-.927-1.6357-1.8577-2.4572-2.7936ZM128.1254,19.7657c-.3631.0142-.7269.0169-1.0903.0168-.1681,0-.1941-.0337-.2003-.2098-.0042-.1161-.0018-.2325-.0018-.3488,0-1.3227,0-2.6452,0-3.9679,0-1.3372,0-2.6744,0-4.0116,0-.1017-.0019-.2036.0015-.3052.006-.1784.0311-.2091.1968-.213.2326-.0056.4654-.0058.6981-.003.4662.0056.9236.0561,1.3778.1812,1.3802.3802,3.0948,1.8712,3.1802,4.06.0688,1.7643-.6349,3.1259-2.0774,4.1168-.6248.4291-1.3255.6548-2.0845.6844Z"/>
      </g>
    </g>
    <metadata>
      <sfw xmlns="http://ns.adobe.com/SaveForWeb/1.0/">
        <slices/>
        <sliceSourceBounds x="56.65" y="20.38" width="244.69" height="58.24" bottomLeftOrigin="true"/>
      </sfw>
    </metadata>
  </g>
</svg>