<?xml version="1.0" encoding="utf-8"?>
<!-- Generator: Adobe Illustrator 23.0.3, SVG Export Plug-In . SVG Version: 6.00 Build 0)  -->
<svg version="1.1" id="Layer_1" xmlns="http://www.w3.org/2000/svg" xmlns:xlink="http://www.w3.org/1999/xlink" x="0px" y="0px"
	 viewBox="0 0 560 500" style="enable-background:new 0 0 560 500;" xml:space="preserve">
<style type="text/css">
	.st0{fill:#282444;}
</style>
<g>
	<path class="st0" d="M176.1,442.7l4.5-5.3c4.1,3.6,8.1,5.5,13.3,5.5c4.6,0,7.5-2.2,7.5-5.3v-0.1c0-3-1.7-4.7-9.5-6.5
		c-9-2.1-14.1-4.9-14.1-12.6v-0.1c0-7.2,6-12.3,14.4-12.3c6.2,0,11,1.9,15.3,5.3l-4,5.6c-3.9-2.8-7.6-4.3-11.5-4.3
		c-4.3,0-6.9,2.2-6.9,5v0.1c0,3.3,1.9,4.7,10.1,6.6c8.9,2.3,13.5,5.3,13.5,12.4v0.1c0,8-6.2,12.6-15.1,12.6
		C187.3,449.5,181.2,447.3,176.1,442.7L176.1,442.7z"/>
	<polygon class="st0" points="229.7,406.6 237.1,406.6 237.1,424.2 257.3,424.2 257.3,406.6 264.7,406.6 264.7,448.9 257.3,448.9 
		257.3,431 237.1,431 237.1,448.9 229.7,448.9 	"/>
	<path class="st0" d="M285.8,427.8v-0.1c0-11.8,9.2-21.9,22.2-21.9c13,0,22,9.8,22,21.7v0.1c0,11.8-9.2,21.9-22.2,21.9
		S285.8,439.7,285.8,427.8L285.8,427.8z M322.2,427.8v-0.1c0-8.2-5.9-15-14.4-15c-8.4,0-14.2,6.6-14.2,14.9v0.1
		c0,8.2,5.9,15,14.4,15C316.4,442.7,322.2,436.1,322.2,427.8L322.2,427.8z"/>
	<path class="st0" d="M351.1,406.6h16.7c9.9,0,16.1,5.6,16.1,14.1v0.1c0,9.4-7.5,14.4-16.9,14.4h-8.4v13.6h-7.4V406.6z M367.2,428.6
		c5.6,0,9.1-3.1,9.1-7.5v-0.1c0-5-3.6-7.5-9.1-7.5h-8.6v15.2H367.2z"/>
	<path class="st0" d="M328.3,195.3l-10.1,60.4h20.1L328.3,195.3z M424.9,195.3h-6v36.2h6c10,0,18.1-8.1,18.1-18.1
		C443,203.4,434.9,195.3,424.9,195.3z M424.9,195.3h-6v36.2h6c10,0,18.1-8.1,18.1-18.1C443,203.4,434.9,195.3,424.9,195.3z
		 M328.3,195.3l-10.1,60.4h20.1L328.3,195.3z M486.2,110.8c-56.2,0-111.7-13.1-162-38.2L280,50.4l-44.3,22.1
		c-50.3,25.1-105.8,38.2-162,38.2H56.6v253.6h446.7V110.8H486.2z M153.2,304l-4-24.1H121l-4,24.1H92.9L117,171.2h36.2L177.4,304
		H153.2z M267.9,213.4h-24.1v-6c0-6.7-5.4-12.1-12.1-12.1c-6.7,0-12.1,5.4-12.1,12.1c0,7.6,5.6,11.9,18.5,19.9
		c12.6,7.9,29.8,18.6,29.8,40.4c0,20-16.2,36.2-36.2,36.2s-36.2-16.2-36.2-36.2v-12.1h24.1v12.1c0,6.7,5.4,12.1,12.1,12.1
		c6.7,0,12.1-5.4,12.1-12.1c0-7.6-5.6-11.9-18.5-19.9c-12.6-7.9-29.8-18.6-29.8-40.4c0-20,16.2-36.2,36.2-36.2s36.2,16.2,36.2,36.2
		V213.4z M346.4,304l-4-24.1h-28.2l-4,24.1H286l24.1-132.8h36.2L370.6,304H346.4z M467.1,304H443l-14.5-48.5
		c-1.2,0.1-2.4,0.2-3.6,0.2h-6V304h-24.1V171.2h30.2c23.3,0,42.3,18.9,42.3,42.3c0,13.9-6.7,26.1-17,33.8L467.1,304z M424.9,195.3
		h-6v36.2h6c10,0,18.1-8.1,18.1-18.1C443,203.4,434.9,195.3,424.9,195.3z M318.2,255.7h20.1l-10.1-60.4L318.2,255.7z M125.1,255.7
		h20.1l-10.1-60.4L125.1,255.7z M328.3,195.3l-10.1,60.4h20.1L328.3,195.3z M328.3,195.3l-10.1,60.4h20.1L328.3,195.3z"/>
	<rect x="125.9" y="424.2" class="st0" width="22.5" height="6.9"/>
	<rect x="411.7" y="424.2" class="st0" width="22.5" height="6.9"/>
</g>
</svg>
