<?xml version="1.0" encoding="UTF-8" standalone="no"?>
<!-- Generator: Gravit.io -->
<svg xmlns="http://www.w3.org/2000/svg" xmlns:xlink="http://www.w3.org/1999/xlink" style="isolation:isolate" viewBox="0 0 333 200" width="333pt" height="200pt"><defs><clipPath id="_clipPath_mZH56CBBa4Cr9ooeQOJ1Nz9OH55YBipE"><rect width="333" height="200"/></clipPath></defs><g clip-path="url(#_clipPath_mZH56CBBa4Cr9ooeQOJ1Nz9OH55YBipE)"><g><g><path d=" M 242.175 158.29 C 230.675 158.29 221.315 167.64 221.315 179.15 C 221.315 190.65 230.675 200 242.175 200 C 253.675 200 263.025 190.65 263.025 179.15 C 263.025 167.65 253.675 158.29 242.175 158.29 Z " fill="rgb(0,0,0)"/></g><g><path d=" M 150.395 0 L 150.395 13.38 C 135.685 4.87 118.615 0 100.395 0 C 45.165 0 0.395 44.77 0.395 100 C 0.395 155.23 45.165 200 100.395 200 C 118.615 200 135.685 195.13 150.395 186.62 L 150.395 200 L 200.395 200 L 200.395 0 L 150.395 0 L 150.395 0 Z  M 100.395 150 C 72.785 150 50.395 127.61 50.395 100 C 50.395 72.39 72.785 50 100.395 50 C 128.005 50 150.395 72.39 150.395 100 C 150.395 127.62 128.015 150 100.395 150 Z " fill="rgb(0,0,0)"/><g><g><path d=" M 311.915 13.92 L 295.485 62.85 L 279.175 13.92 L 265.485 13.92 L 265.485 32.97 L 285.185 85.15 L 305.775 85.15 L 332.605 13.92 L 311.915 13.92 Z " fill="rgb(0,0,0)"/></g><path d=" M 258.935 32.97 L 258.935 13.92 L 242.185 13.92 L 242.185 0 L 221.315 0 L 221.315 16.07 L 221.315 54.99 L 221.315 57.41 C 221.315 74.12 227.405 82.36 241.085 84.54 C 243.435 84.91 246.005 85.1 248.805 85.13 C 249.595 85.12 250.575 85.11 251.585 85.08 C 253.585 84.98 255.705 84.76 257.675 84.44 L 257.675 79.55 L 257.675 65.48 L 255.705 65.6 C 255.195 65.63 253.385 65.65 252.915 65.65 C 246.225 65.65 242.185 62.6 242.185 55.12 L 242.185 32.96 L 258.935 32.96 L 258.935 32.97 Z " fill="rgb(0,0,0)"/></g></g></g></g></svg>