<?xml version="1.0" encoding="utf-8"?>
<!-- Generator: Adobe Illustrator 22.1.0, SVG Export Plug-In . SVG Version: 6.00 Build 0)  -->
<svg version="1.1" id="Layer_1" xmlns="http://www.w3.org/2000/svg" xmlns:xlink="http://www.w3.org/1999/xlink" x="0px" y="0px"
	 viewBox="0 0 540.1 158.8" style="enable-background:new 0 0 540.1 158.8;" xml:space="preserve">
<style type="text/css">
	.st0{fill:#FFDD0E;}
	.st1{fill:#F2CC0F;}
	.st2{fill:#1F9970;}
</style>
<g id="LOGO">
	<path id="TM" class="st0" d="M525,134.6h-2.2v-1.9h6.6v1.9h-2.2v6.7h-2.3v-6.7H525z M530.7,132.7h3.3l1.4,4.8l1.4-4.8h3.3v8.6h-2.3
		v-6l-1.8,6h-1.5l-1.8-6v6h-2.1L530.7,132.7L530.7,132.7z"/>
	<g id="WORDMARK">
		<g id="PLAYED">
			<path class="st0" d="M163.6,70.5h28c17.9,0,25.5,6.9,25.5,23.1c0,16.1-7.6,22.9-25.5,22.9h-12.4v24.8h-15.6V70.5z M190.3,103.2
				c7.9,0,11.3-2.9,11.3-9.7s-3.3-9.7-11.3-9.7h-11v19.4L190.3,103.2L190.3,103.2z M228.1,70.5h15.6v57.2h29.9v13.6h-45.5V70.5z
				 M304.2,70.5h16.1l23.8,70.8h-16.6L323,127h-22.3l-4.5,14.3h-15.8L304.2,70.5z M319.2,114l-7.3-25.8l-7.3,25.8H319.2z
				 M359.7,111.8l-23.1-41.4h17.8L368.2,96L382,70.4h16.5l-23,41v29.8h-15.6v-29.4H359.7z M407.1,70.5h48.5v13.4h-32.9v14.7h27.7
				v13.3h-27.7v15.9h34v13.4h-49.6V70.5z M468.2,70.5h26.4c19.1,0,27.5,8.8,27.5,27.9v15c0,19.3-8.4,27.9-27.5,27.9h-26.4V70.5z
				 M492.4,128c10.5,0,14.1-3.9,14.1-14.9V98.7c0-11-3.5-14.9-14.1-14.9h-8.5V128L492.4,128L492.4,128z"/>
		</g>
		<path id="AUSTRALIAN" class="st1" d="M176.6,18.3h9.9L201,61.5h-10.1l-2.7-8.7h-13.6l-2.7,8.7h-9.8L176.6,18.3z M185.8,44.8
			L181.4,29L177,44.8H185.8z M203.4,47V18.3h9.5v28.4c0,5.4,1.8,7.4,6.8,7.4s6.8-2,6.8-7.4V18.3h9.2V47c0,10.7-4.8,15.3-16.1,15.3
			C208.3,62.2,203.4,57.7,203.4,47z M240.6,48.4h9.3c0,4.2,2.4,6,7,6c4.2,0,6.3-1.5,6.3-4.6c0-3.6-2.3-5.1-8.7-6.1
			c-9.6-1.5-13.2-5.1-13.2-13c0-8.8,5.4-13.3,15.7-13.3c10.2,0,15.2,4.3,15.2,13.4h-9.3c0-3.7-2-5.6-6.1-5.6c-3.9,0-6,1.7-6,4.5
			c0,3.2,2.2,4.7,8.3,5.6c10.1,1.5,13.6,5.3,13.6,13.5c0,9-5.3,13.3-16.1,13.3C245.6,62.2,240.6,57.9,240.6,48.4z M287.1,26.6h-11.6
			v-8.3h32.7v8.3h-11.6v34.9h-9.5V26.6z M312.9,18.3h17.7c10.6,0,14.8,4,14.8,13.7c0,7.1-2.3,11.1-7.7,12.7l9.3,16.8h-10.9l-8.6-16
			h-5.1v16h-9.5V18.3z M329.5,37.4c4.6,0,6.3-1.6,6.3-5.5s-1.7-5.5-6.3-5.5h-7.1v11H329.5z M364.5,18.3h9.9l14.5,43.2h-10.1
			l-2.7-8.7h-13.6l-2.7,8.7h-9.7L364.5,18.3z M373.6,44.8L369.2,29l-4.4,15.8H373.6z M393.3,18.3h9.5v34.9h18.3v8.3h-27.8V18.3z
			 M425.7,18.3h9.5v43.2h-9.5V18.3z M454.2,18.3h9.9l14.5,43.2h-10.1l-2.7-8.7h-13.7l-2.7,8.7h-9.7L454.2,18.3z M463.3,44.8
			L458.9,29l-4.4,15.8H463.3z M483,18.3h10.1l14.7,27.3V18.3h9v43.2h-9.1l-15.6-29.1v29.1h-9L483,18.3L483,18.3z"/>
	</g>
	<g id="ICON">
		<path id="PLAYICON" class="st2" d="M7.4,158.8c-1.3,0-2.5-0.3-3.7-1c-2.3-1.3-3.7-3.7-3.7-6.3V7.3c0-2.6,1.4-5,3.7-6.3
			S8.8-0.3,11,1l124.9,72.1c2.3,1.3,3.7,3.7,3.7,6.3s-1.4,5-3.7,6.3L11.1,157.9C9.9,158.5,8.7,158.8,7.4,158.8z"/>
		<path id="TRIM" class="st0" d="M134.5,75.6L9.6,3.5C8.9,3.1,8.2,2.9,7.4,2.9S5.9,3.1,5.2,3.5C3.8,4.3,3,5.7,3,7.3v144.3
			c0,1.6,0.8,3,2.2,3.8s3,0.8,4.4,0l124.9-72.1c1.4-0.8,2.2-2.2,2.2-3.8C136.7,77.8,135.9,76.4,134.5,75.6z M132.4,80.6L8.5,152.2
			c-1,0.6-2.1-0.1-2.1-1.2V7.9c0-1.1,1.2-1.8,2.1-1.2l123.9,71.5C133.3,78.7,133.3,80.1,132.4,80.6z"/>
		<path id="AUSTRALIA" class="st0" d="M24.3,63.9l7.1-11.1h5.7l5-5.4h13.4L51,52.8l5.7,6.8h5.1l1.9-15.1h1.8l1.8,8.3h3.8l2.7,10.8
			l9,10.6l1.1,9.6l-7.7,11.6l-1.5,7.3H59.1L57,96h-5.9l-5.4-8.5h-8l-4.8,5.2h-4.5l-6.2,3.8h-5.9l1.4-5.3l-7.2-12.5l1.6-10.1
			L24.3,63.9z M73.3,106.9H62.9l3.8,4.2h4.2L73.3,106.9z"/>
	</g>
</g>
</svg>
