<?xml version="1.0" encoding="UTF-8"?>
<!DOCTYPE svg PUBLIC "-//W3C//DTD SVG 1.1//EN" "http://www.w3.org/Graphics/SVG/1.1/DTD/svg11.dtd">
<!-- Creator: CorelDRAW -->
<svg xmlns="http://www.w3.org/2000/svg" xml:space="preserve" width="1.39483in" height="0.47839in" version="1.1" style="shape-rendering:geometricPrecision; text-rendering:geometricPrecision; image-rendering:optimizeQuality; fill-rule:evenodd; clip-rule:evenodd"
viewBox="0 0 1392.07 477.44"
 xmlns:xlink="http://www.w3.org/1999/xlink"
 xmlns:xodm="http://www.corel.com/coreldraw/odm/2003">
 <defs>
  <style type="text/css">
   <![CDATA[
    .str4 {stroke:#00D9FF;stroke-width:8.84;stroke-linecap:round;stroke-linejoin:round;stroke-miterlimit:2.61313}
    .str1 {stroke:#00D9FF;stroke-width:8.84;stroke-linecap:round;stroke-linejoin:round;stroke-miterlimit:2.61313}
    .str5 {stroke:#FF37FF;stroke-width:8.84;stroke-linecap:round;stroke-linejoin:round;stroke-miterlimit:2.61313}
    .str3 {stroke:#FF37FF;stroke-width:8.84;stroke-linecap:round;stroke-linejoin:round;stroke-miterlimit:2.61313}
    .str2 {stroke:#FF37FF;stroke-width:8.84;stroke-linecap:round;stroke-linejoin:round;stroke-miterlimit:2.61313}
    .str0 {stroke:#00D9FF;stroke-width:8.84;stroke-linecap:round;stroke-linejoin:round;stroke-miterlimit:2.61313}
    .fil3 {fill:none}
    .fil4 {fill:#00D9FF;fill-rule:nonzero}
    .fil5 {fill:#FF37FF;fill-rule:nonzero}
    .fil1 {fill:url(#id30)}
    .fil2 {fill:url(#id31)}
    .fil9 {fill:url(#id32)}
    .fil8 {fill:url(#id33)}
    .fil0 {fill:url(#id34)}
    .fil6 {fill:url(#id35)}
    .fil10 {fill:url(#id36)}
    .fil11 {fill:url(#id37)}
    .fil7 {fill:url(#id38)}
   ]]>
  </style>
   <mask id="id0">
  <linearGradient id="id1" gradientUnits="userSpaceOnUse" x1="889.67" y1="172.23" x2="664.08" y2="154.58">
   <stop offset="0" style="stop-opacity:1; stop-color:white"/>
   <stop offset="1" style="stop-opacity:0; stop-color:white"/>
  </linearGradient>
    <rect style="fill:url(#id1)" x="611.52" y="4.54" width="342.77" height="466.77"/>
   </mask>
   <mask id="id2">
  <linearGradient id="id3" gradientUnits="userSpaceOnUse" x1="782.18" y1="177.26" x2="864.2" y2="35.2">
   <stop offset="0" style="stop-opacity:1; stop-color:white"/>
   <stop offset="1" style="stop-opacity:0; stop-color:white"/>
  </linearGradient>
    <rect style="fill:url(#id3)" x="774.16" y="-3.63" width="186.84" height="186.83"/>
   </mask>
    <mask id="id4">
  <linearGradient id="id5" gradientUnits="userSpaceOnUse" x1="524.39" y1="313.4" x2="644.03" y2="243.87">
   <stop offset="0" style="stop-opacity:1; stop-color:white"/>
   <stop offset="1" style="stop-opacity:0; stop-color:white"/>
  </linearGradient>
     <rect style="fill:url(#id5)" x="437.25" y="1.89" width="351.56" height="475.56"/>
    </mask>
    <mask id="id6">
  <linearGradient id="id7" gradientUnits="userSpaceOnUse" x1="701.68" y1="165.93" x2="582.04" y2="235.46">
   <stop offset="0" style="stop-opacity:1; stop-color:white"/>
   <stop offset="1" style="stop-opacity:0; stop-color:white"/>
  </linearGradient>
     <rect style="fill:url(#id7)" x="437.26" y="1.89" width="351.55" height="475.55"/>
    </mask>
    <mask id="id8">
  <linearGradient id="id9" gradientUnits="userSpaceOnUse" x1="517.18" y1="387.65" x2="359.34" y2="88.12">
   <stop offset="0" style="stop-opacity:1; stop-color:white"/>
   <stop offset="1" style="stop-opacity:0; stop-color:white"/>
  </linearGradient>
     <rect style="fill:url(#id9)" x="174.26" y="4.54" width="342.77" height="466.77"/>
    </mask>
     <mask id="id10">
  <linearGradient id="id11" gradientUnits="userSpaceOnUse" x1="-96.14" y1="450.21" x2="116.33" y2="162.91">
   <stop offset="0" style="stop-opacity:1; stop-color:white"/>
   <stop offset="1" style="stop-opacity:0; stop-color:white"/>
  </linearGradient>
      <rect style="fill:url(#id11)" y="1.88" width="351.55" height="475.56"/>
     </mask>
    <mask id="id12">
  <linearGradient id="id13" gradientUnits="userSpaceOnUse" x1="369.44" y1="492.77" x2="485.43" y2="376.78">
   <stop offset="0" style="stop-opacity:1; stop-color:white"/>
   <stop offset="1" style="stop-opacity:0; stop-color:white"/>
  </linearGradient>
     <rect style="fill:url(#id13)" x="338.44" y="294.25" width="186.79" height="186.79"/>
    </mask>
     <mask id="id14">
  <linearGradient id="id15" gradientUnits="userSpaceOnUse" x1="398.59" y1="-61.4" x2="227.18" y2="266.47">
   <stop offset="0" style="stop-opacity:1; stop-color:white"/>
   <stop offset="1" style="stop-opacity:0; stop-color:white"/>
  </linearGradient>
      <rect style="fill:url(#id15)" x="0" y="1.88" width="351.55" height="475.56"/>
     </mask>
    <mask id="id16">
  <linearGradient id="id17" gradientUnits="userSpaceOnUse" x1="494.23" y1="282.53" x2="378.23" y2="398.51">
   <stop offset="0" style="stop-opacity:1; stop-color:white"/>
   <stop offset="1" style="stop-opacity:0; stop-color:white"/>
  </linearGradient>
     <rect style="fill:url(#id17)" x="338.44" y="294.25" width="186.79" height="186.79"/>
    </mask>
   <mask id="id18">
  <linearGradient id="id19" gradientUnits="userSpaceOnUse" x1="929.97" y1="-15.34" x2="813.98" y2="100.65">
   <stop offset="0" style="stop-opacity:1; stop-color:white"/>
   <stop offset="1" style="stop-opacity:0; stop-color:white"/>
  </linearGradient>
    <rect style="fill:url(#id19)" x="774.18" y="-3.61" width="186.79" height="186.79"/>
   </mask>
    <mask id="id20">
  <linearGradient id="id21" gradientUnits="userSpaceOnUse" x1="960.24" y1="387.64" x2="1216.29" y2="239.66">
   <stop offset="0" style="stop-opacity:1; stop-color:white"/>
   <stop offset="1" style="stop-opacity:0; stop-color:white"/>
  </linearGradient>
     <rect style="fill:url(#id21)" x="875.03" y="4.54" width="342.77" height="466.77"/>
    </mask>
     <mask id="id22">
  <linearGradient id="id23" gradientUnits="userSpaceOnUse" x1="1127.65" y1="313.4" x2="1247.29" y2="243.86">
   <stop offset="0" style="stop-opacity:1; stop-color:white"/>
   <stop offset="1" style="stop-opacity:0; stop-color:white"/>
  </linearGradient>
      <rect style="fill:url(#id23)" x="1040.52" y="1.88" width="351.55" height="475.56"/>
     </mask>
    <mask id="id24">
  <linearGradient id="id25" gradientUnits="userSpaceOnUse" x1="855.12" y1="450.04" x2="971.11" y2="334.04">
   <stop offset="0" style="stop-opacity:1; stop-color:white"/>
   <stop offset="1" style="stop-opacity:0; stop-color:white"/>
  </linearGradient>
     <rect style="fill:url(#id25)" x="866.85" y="294.25" width="186.79" height="186.79"/>
    </mask>
     <mask id="id26">
  <linearGradient id="id27" gradientUnits="userSpaceOnUse" x1="1304.93" y1="165.92" x2="1185.29" y2="235.46">
   <stop offset="0" style="stop-opacity:1; stop-color:white"/>
   <stop offset="1" style="stop-opacity:0; stop-color:white"/>
  </linearGradient>
      <rect style="fill:url(#id27)" x="1040.51" y="1.88" width="351.55" height="475.56"/>
     </mask>
    <mask id="id28">
  <linearGradient id="id29" gradientUnits="userSpaceOnUse" x1="1022.63" y1="282.52" x2="906.64" y2="398.51">
   <stop offset="0" style="stop-opacity:1; stop-color:white"/>
   <stop offset="1" style="stop-opacity:0; stop-color:white"/>
  </linearGradient>
     <rect style="fill:url(#id29)" x="866.84" y="294.25" width="186.79" height="186.79"/>
    </mask>
  <linearGradient id="id30" gradientUnits="userSpaceOnUse" x1="910.25" y1="15.87" x2="824.9" y2="163.7">
   <stop offset="0" style="stop-opacity:1; stop-color:#FF37FF"/>
   <stop offset="1" style="stop-opacity:1; stop-color:#0077FF"/>
  </linearGradient>
  <linearGradient id="id31" gradientUnits="userSpaceOnUse" xlink:href="#id30" x1="750.98" y1="171.76" x2="475.08" y2="307.58">
  </linearGradient>
  <linearGradient id="id32" gradientUnits="userSpaceOnUse" xlink:href="#id30" x1="888.95" y1="353.56" x2="1203.88" y2="122.29">
  </linearGradient>
  <linearGradient id="id33" gradientUnits="userSpaceOnUse" xlink:href="#id30" x1="492.18" y1="327.3" x2="371.48" y2="448">
  </linearGradient>
  <linearGradient id="id34" gradientUnits="userSpaceOnUse" xlink:href="#id30" x1="625.44" y1="353.56" x2="940.37" y2="122.3">
  </linearGradient>
  <linearGradient id="id35" gradientUnits="userSpaceOnUse" xlink:href="#id30" x1="503.11" y1="353.56" x2="188.19" y2="122.29">
  </linearGradient>
  <linearGradient id="id36" gradientUnits="userSpaceOnUse" xlink:href="#id30" x1="1291.42" y1="196.28" x2="1141.16" y2="283.04">
  </linearGradient>
  <linearGradient id="id37" gradientUnits="userSpaceOnUse" xlink:href="#id30" x1="1020.59" y1="327.29" x2="899.89" y2="447.99">
  </linearGradient>
  <linearGradient id="id38" gradientUnits="userSpaceOnUse" x1="329.33" y1="234.99" x2="22.22" y2="244.33">
   <stop offset="0" style="stop-opacity:1; stop-color:#A237FF"/>
   <stop offset="0.145098" style="stop-opacity:1; stop-color:#9147FF"/>
   <stop offset="0.309804" style="stop-opacity:1; stop-color:#7F57FF"/>
   <stop offset="1" style="stop-opacity:1; stop-color:#0077FF"/>
  </linearGradient>
 </defs>
 <g id="Layer_x0020_1">
  <metadata id="CorelCorpID_0Corel-Layer"/>
  <path class="fil0" style="mask:url(#id0)" d="M654.83 459.75l0 0c-41.32,-23.86 -55.61,-77.19 -31.75,-118.51l169.38 -293.38c23.86,-41.32 77.19,-55.61 118.51,-31.75l0 0c41.33,23.86 55.61,77.19 31.76,118.51l-169.38 293.38c-23.86,41.33 -77.19,55.61 -118.51,31.76z"/>
  <path class="fil1" d="M889.67 172.23c-45.53,12.2 -92.33,-14.82 -104.53,-60.35 -12.2,-45.53 14.82,-92.33 60.35,-104.53 45.53,-12.2 92.33,14.82 104.53,60.35 12.2,45.53 -14.82,92.33 -60.35,104.53z"/>
  <path class="fil2" d="M484.96 17.84l0 0c-41.32,23.86 -55.61,77.19 -31.75,118.51l169.38 293.38c23.86,41.32 77.19,55.61 118.51,31.76l0 0c41.32,-23.86 55.61,-77.19 31.76,-118.51l-169.38 -293.38c-23.86,-41.32 -77.19,-55.61 -118.51,-31.76z"/>
  <path class="fil3 str0" style="mask:url(#id2)" d="M889.67 172.22c-45.53,12.2 -92.33,-14.82 -104.53,-60.35 -12.2,-45.53 14.82,-92.33 60.35,-104.53 45.53,-12.2 92.33,14.82 104.53,60.35 12.2,45.53 -14.82,92.33 -60.35,104.53z"/>
  <g>
   <path class="fil4" style="mask:url(#id4)" d="M484.96 17.84l0 0 0 0 0 0 2.21 3.83 -2.21 -3.83zm-2.21 -3.83l4.42 7.65c-2.11,1.22 -4.82,0.5 -6.04,-1.61 -1.22,-2.11 -0.5,-4.82 1.61,-6.04zm-33.37 124.54l0 0 -2.24 -4.11 -2 -4.17 -1.77 -4.23 -1.54 -4.28 -1.32 -4.32 -1.09 -4.37 -0.87 -4.38 -0.65 -4.4 -0.43 -4.41 -0.22 -4.41 -0 -4.4 0.21 -4.39 0.42 -4.37 0.63 -4.34 0.83 -4.3 1.03 -4.26 1.24 -4.2 1.43 -4.14 1.63 -4.07 1.82 -4 2.02 -3.91 2.2 -3.82 2.4 -3.71 2.57 -3.61 2.77 -3.49 2.95 -3.36 3.13 -3.23 3.3 -3.09 3.48 -2.94 3.65 -2.78 3.82 -2.61 3.99 -2.44 4.42 7.65 -3.6 2.2 -3.45 2.36 -3.29 2.51 -3.14 2.65 -2.98 2.78 -2.82 2.92 -2.66 3.03 -2.49 3.15 -2.33 3.25 -2.16 3.36 -1.99 3.44 -1.82 3.53 -1.65 3.61 -1.47 3.68 -1.3 3.74 -1.11 3.8 -0.94 3.85 -0.75 3.89 -0.57 3.92 -0.38 3.95 -0.19 3.97 0 3.98 0.19 3.99 0.39 3.98 0.58 3.97 0.79 3.96 0.98 3.93 1.19 3.9 1.39 3.87 1.6 3.82 1.81 3.76 2.02 3.71 0 0 -7.65 4.42zm0 0l7.65 -4.42c1.22,2.11 0.49,4.82 -1.62,6.04 -2.11,1.22 -4.82,0.49 -6.04,-1.62zm177.04 288.97l-7.65 4.42 0 0 -169.38 -293.38 7.65 -4.42 169.38 293.38zm-7.65 4.42l7.65 -4.42c1.22,2.11 0.49,4.82 -1.62,6.04 -2.11,1.22 -4.82,0.49 -6.04,-1.62zm124.55 33.37l0 0 -4.11 2.24 -4.17 2 -4.23 1.77 -4.28 1.54 -4.32 1.32 -4.37 1.09 -4.38 0.87 -4.4 0.65 -4.41 0.43 -4.41 0.22 -4.4 0 -4.39 -0.21 -4.37 -0.42 -4.34 -0.63 -4.3 -0.83 -4.26 -1.03 -4.2 -1.24 -4.14 -1.43 -4.07 -1.63 -4 -1.82 -3.91 -2.02 -3.82 -2.2 -3.72 -2.39 -3.61 -2.58 -3.49 -2.77 -3.36 -2.95 -3.23 -3.13 -3.09 -3.3 -2.94 -3.48 -2.78 -3.65 -2.61 -3.82 -2.44 -3.99 7.65 -4.42 2.2 3.6 2.36 3.45 2.51 3.29 2.65 3.14 2.78 2.98 2.92 2.82 3.03 2.66 3.15 2.49 3.25 2.33 3.36 2.16 3.45 1.99 3.54 1.82 3.6 1.65 3.69 1.47 3.74 1.3 3.8 1.11 3.85 0.94 3.89 0.75 3.92 0.57 3.95 0.38 3.97 0.19 3.98 -0 3.99 -0.19 3.98 -0.39 3.97 -0.58 3.96 -0.79 3.93 -0.98 3.9 -1.19 3.87 -1.39 3.82 -1.6 3.76 -1.81 3.71 -2.02 0 0 4.42 7.65zm0 0l-4.42 -7.65c2.11,-1.22 4.82,-0.49 6.04,1.62 1.22,2.11 0.49,4.82 -1.62,6.04zm-2.21 -3.83l0 0 0 0 0 0 -2.21 -3.83 2.21 3.83zm2.21 3.83l-4.42 -7.65c2.11,-1.22 4.82,-0.49 6.04,1.62 1.22,2.11 0.49,4.82 -1.62,6.04zm33.37 -124.55l0 0 2.24 4.11 2 4.17 1.77 4.23 1.54 4.28 1.32 4.32 1.09 4.37 0.87 4.38 0.65 4.4 0.43 4.41 0.22 4.41 0 4.4 -0.21 4.39 -0.42 4.37 -0.63 4.34 -0.83 4.3 -1.03 4.26 -1.24 4.2 -1.43 4.14 -1.63 4.07 -1.82 4 -2.02 3.91 -2.2 3.82 -2.39 3.72 -2.58 3.61 -2.77 3.49 -2.95 3.36 -3.13 3.23 -3.3 3.09 -3.48 2.94 -3.65 2.78 -3.82 2.61 -3.99 2.44 -4.42 -7.65 3.6 -2.2 3.45 -2.36 3.29 -2.51 3.14 -2.65 2.98 -2.78 2.82 -2.92 2.66 -3.03 2.49 -3.15 2.33 -3.25 2.16 -3.36 1.99 -3.45 1.82 -3.54 1.65 -3.6 1.47 -3.69 1.3 -3.74 1.11 -3.8 0.94 -3.85 0.75 -3.89 0.57 -3.92 0.38 -3.95 0.19 -3.97 -0 -3.98 -0.19 -3.99 -0.39 -3.98 -0.58 -3.97 -0.79 -3.96 -0.98 -3.93 -1.19 -3.9 -1.39 -3.87 -1.6 -3.82 -1.81 -3.76 -2.02 -3.71 0 0 7.65 -4.42zm0 0l-7.65 4.42c-1.22,-2.11 -0.49,-4.82 1.62,-6.04 2.11,-1.22 4.82,-0.49 6.04,1.62zm-177.04 -288.97l7.65 -4.42 0 0 169.38 293.38 -7.65 4.42 -169.38 -293.38zm7.65 -4.42l-7.65 4.42c-1.22,-2.11 -0.49,-4.82 1.62,-6.04 2.11,-1.22 4.82,-0.49 6.04,1.62zm-124.55 -33.37l-0 0 4.11 -2.23 4.17 -2 4.23 -1.77 4.28 -1.55 4.32 -1.31 4.37 -1.1 4.38 -0.86 4.4 -0.65 4.41 -0.44 4.41 -0.22 4.4 -0 4.39 0.21 4.37 0.42 4.34 0.63 4.3 0.83 4.26 1.03 4.2 1.24 4.14 1.43 4.07 1.63 3.99 1.82 3.91 2.02 3.82 2.2 3.72 2.39 3.61 2.58 3.49 2.77 3.36 2.95 3.23 3.13 3.09 3.3 2.94 3.48 2.78 3.65 2.61 3.82 2.44 3.99 -7.65 4.42 -2.2 -3.6 -2.36 -3.45 -2.51 -3.29 -2.65 -3.14 -2.78 -2.98 -2.92 -2.82 -3.03 -2.66 -3.15 -2.49 -3.25 -2.33 -3.36 -2.16 -3.45 -1.99 -3.53 -1.82 -3.61 -1.65 -3.69 -1.47 -3.74 -1.3 -3.8 -1.11 -3.85 -0.94 -3.89 -0.75 -3.92 -0.57 -3.95 -0.38 -3.97 -0.19 -3.98 0 -3.99 0.19 -3.98 0.39 -3.98 0.59 -3.95 0.79 -3.93 0.99 -3.9 1.19 -3.87 1.39 -3.82 1.6 -3.76 1.81 -3.71 2.02 -0 0 -4.42 -7.65zm-0 0l4.42 7.65c-2.11,1.22 -4.82,0.5 -6.04,-1.61 -1.22,-2.11 -0.5,-4.82 1.61,-6.04z"/>
  </g>
  <g>
   <path class="fil5" style="mask:url(#id6)" d="M741.11 461.49l0 0 0 0 0 0 -2.21 -3.83 2.21 3.83zm2.21 3.83l-4.42 -7.65c2.11,-1.22 4.82,-0.49 6.04,1.62 1.22,2.11 0.49,4.82 -1.62,6.04zm33.37 -124.55l0 0 2.24 4.11 2 4.17 1.77 4.23 1.54 4.28 1.32 4.32 1.09 4.37 0.87 4.38 0.65 4.4 0.43 4.41 0.22 4.41 0 4.4 -0.21 4.39 -0.42 4.37 -0.62 4.33 -0.83 4.31 -1.03 4.25 -1.23 4.2 -1.43 4.14 -1.63 4.07 -1.82 3.99 -2.02 3.91 -2.21 3.81 -2.39 3.72 -2.59 3.61 -2.76 3.49 -2.94 3.36 -3.12 3.23 -3.3 3.09 -3.48 2.94 -3.65 2.78 -3.82 2.61 -3.99 2.44 -4.42 -7.65 3.6 -2.2 3.45 -2.36 3.29 -2.51 3.14 -2.65 2.97 -2.78 2.82 -2.92 2.66 -3.03 2.5 -3.15 2.33 -3.25 2.16 -3.36 2 -3.45 1.82 -3.53 1.65 -3.61 1.47 -3.69 1.29 -3.74 1.11 -3.8 0.94 -3.85 0.75 -3.89 0.56 -3.93 0.38 -3.95 0.18 -3.97 0 -3.98 -0.2 -3.99 -0.39 -3.98 -0.58 -3.97 -0.79 -3.96 -0.98 -3.93 -1.19 -3.9 -1.39 -3.87 -1.6 -3.82 -1.81 -3.76 -2.02 -3.71 0 0 7.65 -4.42zm0 0l-7.65 4.42c-1.22,-2.11 -0.49,-4.82 1.62,-6.04 2.11,-1.22 4.82,-0.49 6.04,1.62zm-177.04 -288.97l7.65 -4.42 0 0 169.38 293.38 -7.65 4.42 -169.38 -293.38zm7.65 -4.42l-7.65 4.42c-1.22,-2.11 -0.49,-4.82 1.62,-6.04 2.11,-1.22 4.82,-0.49 6.04,1.62zm-124.55 -33.37l0 0 4.11 -2.24 4.17 -2 4.23 -1.77 4.28 -1.54 4.33 -1.32 4.36 -1.09 4.39 -0.87 4.4 -0.64 4.41 -0.44 4.42 -0.22 4.4 0 4.39 0.21 4.37 0.42 4.34 0.62 4.3 0.83 4.26 1.03 4.2 1.23 4.14 1.43 4.07 1.63 4 1.82 3.91 2.02 3.82 2.2 3.72 2.4 3.61 2.58 3.49 2.76 3.36 2.94 3.23 3.12 3.09 3.3 2.94 3.48 2.78 3.65 2.61 3.82 2.44 3.99 -7.65 4.42 -2.2 -3.6 -2.36 -3.45 -2.51 -3.29 -2.65 -3.14 -2.78 -2.97 -2.92 -2.82 -3.03 -2.66 -3.15 -2.5 -3.25 -2.33 -3.36 -2.16 -3.45 -1.99 -3.53 -1.82 -3.61 -1.65 -3.68 -1.47 -3.74 -1.29 -3.8 -1.12 -3.85 -0.94 -3.89 -0.75 -3.93 -0.56 -3.94 -0.38 -3.97 -0.18 -3.98 0 -3.98 0.19 -3.98 0.39 -3.98 0.59 -3.96 0.78 -3.93 0.98 -3.9 1.19 -3.86 1.39 -3.82 1.6 -3.76 1.81 -3.71 2.02 0 0 -4.42 -7.65zm0 0l4.42 7.65c-2.11,1.22 -4.82,0.49 -6.04,-1.62 -1.22,-2.11 -0.49,-4.82 1.62,-6.04zm2.21 3.83l0 0 0 0 0 0 2.21 3.83 -2.21 -3.83zm-2.21 -3.83l4.42 7.65c-2.11,1.22 -4.82,0.49 -6.04,-1.62 -1.22,-2.11 -0.49,-4.82 1.62,-6.04zm-33.37 124.55l0 0 -2.24 -4.11 -2 -4.17 -1.77 -4.23 -1.54 -4.28 -1.32 -4.33 -1.09 -4.36 -0.87 -4.38 -0.65 -4.4 -0.43 -4.41 -0.22 -4.41 -0 -4.4 0.21 -4.39 0.42 -4.37 0.63 -4.34 0.83 -4.3 1.03 -4.26 1.24 -4.2 1.43 -4.14 1.63 -4.07 1.82 -4 2.02 -3.91 2.2 -3.82 2.4 -3.71 2.57 -3.6 2.77 -3.49 2.95 -3.36 3.13 -3.23 3.3 -3.09 3.48 -2.94 3.65 -2.78 3.82 -2.61 3.98 -2.44 4.42 7.65 -3.61 2.2 -3.45 2.36 -3.29 2.51 -3.14 2.65 -2.98 2.79 -2.82 2.91 -2.66 3.03 -2.49 3.15 -2.33 3.26 -2.16 3.36 -1.99 3.44 -1.82 3.53 -1.65 3.61 -1.47 3.68 -1.3 3.74 -1.11 3.8 -0.94 3.85 -0.75 3.89 -0.57 3.92 -0.38 3.95 -0.19 3.97 0 3.98 0.19 3.99 0.39 3.98 0.58 3.97 0.79 3.96 0.98 3.93 1.19 3.9 1.39 3.86 1.6 3.82 1.81 3.76 2.02 3.71 0 0 -7.65 4.42zm0 0l7.65 -4.42c1.22,2.11 0.49,4.82 -1.62,6.04 -2.11,1.22 -4.82,0.49 -6.04,-1.62zm177.04 288.97l-7.65 4.42 0 0 -169.38 -293.38 7.65 -4.42 169.38 293.38zm-7.65 4.42l7.65 -4.42c1.22,2.11 0.49,4.82 -1.62,6.04 -2.11,1.22 -4.82,0.49 -6.04,-1.62zm124.55 33.37l0 0 -4.11 2.24 -4.17 2 -4.23 1.77 -4.29 1.54 -4.32 1.32 -4.36 1.09 -4.38 0.87 -4.4 0.65 -4.41 0.43 -4.41 0.22 -4.41 0 -4.39 -0.21 -4.37 -0.42 -4.34 -0.63 -4.3 -0.83 -4.26 -1.03 -4.2 -1.23 -4.15 -1.43 -4.07 -1.63 -3.99 -1.82 -3.91 -2.02 -3.82 -2.2 -3.72 -2.39 -3.61 -2.58 -3.49 -2.77 -3.36 -2.95 -3.23 -3.13 -3.09 -3.3 -2.94 -3.48 -2.78 -3.65 -2.61 -3.82 -2.44 -3.99 7.65 -4.42 2.2 3.6 2.36 3.45 2.51 3.29 2.65 3.14 2.78 2.98 2.92 2.82 3.03 2.66 3.15 2.49 3.25 2.33 3.36 2.16 3.45 1.99 3.54 1.82 3.61 1.65 3.68 1.47 3.74 1.29 3.8 1.12 3.85 0.94 3.89 0.75 3.93 0.57 3.94 0.38 3.97 0.19 3.98 -0 3.99 -0.19 3.98 -0.39 3.97 -0.58 3.96 -0.79 3.93 -0.98 3.91 -1.19 3.86 -1.39 3.82 -1.6 3.76 -1.81 3.71 -2.02 0 0 4.42 7.65zm0 0l-4.42 -7.65c2.11,-1.22 4.82,-0.49 6.04,1.62 1.22,2.11 0.49,4.82 -1.62,6.04z"/>
  </g>
  <g id="_2143414821600">
   <path class="fil6" style="mask:url(#id8)" d="M217.58 16.1l0 0c-41.32,23.86 -55.61,77.19 -31.76,118.51l169.38 293.38c23.86,41.32 77.19,55.61 118.51,31.76l0 0c41.33,-23.86 55.62,-77.19 31.76,-118.51l-169.38 -293.38c-23.86,-41.32 -77.19,-55.61 -118.51,-31.76z"/>
   <path class="fil7" d="M303.85 17.83l0 0c41.32,23.86 55.61,77.19 31.75,118.51l-169.38 293.38c-23.86,41.32 -77.19,55.61 -118.51,31.76l0 0c-41.33,-23.86 -55.61,-77.19 -31.76,-118.51l169.38 -293.38c23.86,-41.32 77.19,-55.61 118.51,-31.76z"/>
   <path class="fil8" d="M346.48 387.65c0,47.14 38.21,85.35 85.35,85.35 47.14,0 85.35,-38.21 85.35,-85.35 0,-47.14 -38.21,-85.35 -85.35,-85.35 -47.13,0 -85.35,38.21 -85.35,85.35z"/>
   <g>
    <path class="fil4" style="mask:url(#id10)" d="M303.85 17.83l0 0 0 0 0 0 2.21 -3.83 -2.21 3.83zm2.21 -3.83c2.11,1.22 2.84,3.93 1.62,6.04 -1.22,2.11 -3.93,2.84 -6.04,1.62l4.42 -7.65zm33.37 124.55l-7.65 -4.42 0 0 2.02 -3.71 1.81 -3.76 1.6 -3.82 1.39 -3.87 1.19 -3.9 0.98 -3.93 0.79 -3.96 0.58 -3.97 0.39 -3.98 0.19 -3.99 0 -3.98 -0.19 -3.97 -0.38 -3.95 -0.57 -3.92 -0.75 -3.89 -0.94 -3.85 -1.11 -3.8 -1.3 -3.74 -1.47 -3.69 -1.65 -3.6 -1.82 -3.54 -1.99 -3.45 -2.16 -3.36 -2.33 -3.25 -2.49 -3.15 -2.66 -3.03 -2.82 -2.92 -2.97 -2.78 -3.14 -2.65 -3.3 -2.51 -3.44 -2.36 -3.6 -2.2 4.42 -7.65 3.99 2.44 3.82 2.61 3.65 2.78 3.48 2.94 3.3 3.09 3.12 3.23 2.94 3.36 2.77 3.49 2.58 3.61 2.39 3.72 2.2 3.82 2.02 3.91 1.82 4 1.63 4.07 1.43 4.14 1.24 4.2 1.03 4.26 0.83 4.3 0.63 4.34 0.42 4.37 0.21 4.39 -0 4.4 -0.22 4.41 -0.43 4.41 -0.65 4.4 -0.87 4.38 -1.09 4.37 -1.32 4.32 -1.54 4.28 -1.77 4.23 -2 4.17 -2.24 4.11 0 0zm0 0c-1.22,2.11 -3.93,2.84 -6.04,1.62 -2.11,-1.22 -2.84,-3.93 -1.62,-6.04l7.65 4.42zm-177.04 288.97l169.38 -293.38 7.65 4.42 -169.38 293.38 0 0 -7.65 -4.42zm7.65 4.42c-1.22,2.11 -3.93,2.84 -6.04,1.62 -2.11,-1.22 -2.84,-3.93 -1.62,-6.04l7.65 4.42zm-124.54 33.37l4.42 -7.65 0 0 3.71 2.02 3.76 1.81 3.82 1.6 3.86 1.39 3.9 1.19 3.93 0.98 3.96 0.79 3.97 0.58 3.98 0.39 3.99 0.19 3.98 0 3.97 -0.19 3.94 -0.38 3.93 -0.57 3.89 -0.75 3.85 -0.94 3.8 -1.12 3.74 -1.29 3.68 -1.47 3.61 -1.65 3.53 -1.82 3.45 -1.99 3.36 -2.16 3.25 -2.33 3.15 -2.49 3.03 -2.66 2.92 -2.82 2.78 -2.98 2.65 -3.14 2.51 -3.29 2.36 -3.45 2.2 -3.6 7.65 4.42 -2.44 3.99 -2.61 3.82 -2.78 3.65 -2.94 3.48 -3.09 3.3 -3.23 3.13 -3.36 2.95 -3.49 2.77 -3.61 2.58 -3.72 2.39 -3.82 2.2 -3.9 2.02 -4 1.82 -4.07 1.63 -4.14 1.43 -4.2 1.23 -4.26 1.03 -4.3 0.83 -4.34 0.63 -4.37 0.42 -4.39 0.21 -4.4 -0 -4.41 -0.22 -4.41 -0.43 -4.4 -0.65 -4.38 -0.87 -4.36 -1.09 -4.33 -1.32 -4.28 -1.54 -4.23 -1.77 -4.17 -2 -4.11 -2.24 0 0zm0 0c-2.11,-1.22 -2.84,-3.93 -1.62,-6.04 1.22,-2.11 3.93,-2.84 6.04,-1.62l-4.42 7.65zm2.21 -3.83l0 0 0 0 0 0 -2.21 3.83 2.21 -3.83zm-2.21 3.83c-2.11,-1.22 -2.84,-3.93 -1.62,-6.04 1.22,-2.11 3.93,-2.84 6.04,-1.62l-4.42 7.65zm-33.37 -124.55l7.65 4.42 0 0 -2.02 3.71 -1.81 3.76 -1.6 3.82 -1.39 3.87 -1.19 3.9 -0.98 3.93 -0.79 3.96 -0.58 3.97 -0.39 3.98 -0.2 3.99 0 3.98 0.19 3.97 0.38 3.95 0.56 3.92 0.75 3.89 0.94 3.85 1.12 3.8 1.3 3.74 1.47 3.69 1.65 3.6 1.82 3.54 1.99 3.45 2.16 3.36 2.33 3.25 2.5 3.15 2.66 3.03 2.82 2.92 2.98 2.78 3.14 2.65 3.29 2.51 3.45 2.36 3.6 2.2 -4.42 7.65 -3.99 -2.44 -3.82 -2.61 -3.65 -2.78 -3.48 -2.94 -3.3 -3.09 -3.13 -3.23 -2.95 -3.36 -2.76 -3.49 -2.59 -3.61 -2.39 -3.72 -2.2 -3.82 -2.02 -3.91 -1.82 -4 -1.63 -4.07 -1.43 -4.14 -1.23 -4.2 -1.04 -4.26 -0.83 -4.31 -0.62 -4.34 -0.42 -4.37 -0.21 -4.39 0 -4.41 0.22 -4.41 0.43 -4.41 0.65 -4.4 0.87 -4.38 1.09 -4.37 1.32 -4.32 1.54 -4.28 1.77 -4.23 2 -4.17 2.24 -4.11 0 0zm0 0c1.22,-2.11 3.93,-2.84 6.04,-1.62 2.11,1.22 2.84,3.93 1.62,6.04l-7.65 -4.42zm177.04 -288.97l-169.38 293.38 -7.65 -4.42 169.38 -293.38 0 0 7.65 4.42zm-7.65 -4.42c1.22,-2.11 3.93,-2.84 6.04,-1.62 2.11,1.22 2.84,3.93 1.62,6.04l-7.65 -4.42zm124.55 -33.37l-4.42 7.65 0 0 -3.71 -2.02 -3.76 -1.81 -3.82 -1.6 -3.86 -1.39 -3.91 -1.19 -3.93 -0.98 -3.96 -0.79 -3.97 -0.58 -3.98 -0.39 -3.99 -0.19 -3.98 -0 -3.97 0.19 -3.94 0.38 -3.93 0.57 -3.89 0.75 -3.85 0.94 -3.8 1.12 -3.74 1.29 -3.68 1.47 -3.61 1.65 -3.54 1.82 -3.45 1.99 -3.36 2.16 -3.25 2.33 -3.15 2.49 -3.03 2.66 -2.92 2.82 -2.78 2.98 -2.65 3.14 -2.51 3.29 -2.36 3.45 -2.2 3.6 -7.65 -4.42 2.44 -3.99 2.61 -3.82 2.78 -3.65 2.94 -3.48 3.09 -3.3 3.23 -3.13 3.36 -2.95 3.49 -2.77 3.61 -2.58 3.72 -2.39 3.82 -2.2 3.91 -2.02 3.99 -1.82 4.07 -1.63 4.15 -1.43 4.2 -1.23 4.26 -1.03 4.3 -0.83 4.34 -0.63 4.37 -0.42 4.39 -0.21 4.41 0 4.41 0.22 4.41 0.43 4.4 0.65 4.38 0.87 4.36 1.09 4.32 1.32 4.29 1.54 4.23 1.77 4.17 2 4.11 2.24 0 0zm0 0c2.11,1.22 2.84,3.93 1.62,6.04 -1.22,2.11 -3.93,2.84 -6.04,1.62l4.42 -7.65z"/>
   </g>
   <path class="fil3 str1" style="mask:url(#id12)" d="M346.48 387.65c0,47.14 38.21,85.35 85.35,85.35 47.14,0 85.35,-38.21 85.35,-85.35 0,-47.14 -38.21,-85.35 -85.35,-85.35 -47.13,0 -85.35,38.21 -85.35,85.35z"/>
   <g>
    <path class="fil5" style="mask:url(#id14)" d="M47.71 461.48l0 0 0 0 0 0 -2.21 3.83 2.21 -3.83zm-2.21 3.83c-2.11,-1.22 -2.84,-3.93 -1.62,-6.04 1.22,-2.11 3.93,-2.84 6.04,-1.62l-4.42 7.65zm-33.37 -124.55l7.65 4.42 0 0 -2.02 3.71 -1.81 3.76 -1.6 3.82 -1.39 3.87 -1.19 3.9 -0.98 3.93 -0.79 3.96 -0.58 3.97 -0.39 3.98 -0.2 3.99 0 3.98 0.18 3.97 0.38 3.95 0.56 3.93 0.75 3.89 0.94 3.85 1.11 3.8 1.29 3.74 1.47 3.69 1.65 3.61 1.82 3.53 2 3.45 2.16 3.36 2.33 3.25 2.5 3.15 2.66 3.03 2.82 2.92 2.97 2.78 3.14 2.65 3.29 2.51 3.45 2.36 3.6 2.2 -4.42 7.65 -3.99 -2.44 -3.82 -2.61 -3.65 -2.78 -3.48 -2.94 -3.3 -3.09 -3.12 -3.23 -2.94 -3.36 -2.76 -3.49 -2.59 -3.61 -2.39 -3.72 -2.21 -3.81 -2.02 -3.91 -1.82 -3.99 -1.63 -4.07 -1.43 -4.14 -1.23 -4.2 -1.03 -4.25 -0.83 -4.31 -0.62 -4.33 -0.42 -4.37 -0.21 -4.39 0 -4.4 0.22 -4.41 0.43 -4.41 0.65 -4.4 0.87 -4.38 1.09 -4.37 1.32 -4.32 1.54 -4.28 1.77 -4.23 2 -4.17 2.24 -4.11 0 0zm0 0c1.22,-2.11 3.93,-2.84 6.04,-1.62 2.11,1.22 2.84,3.93 1.62,6.04l-7.65 -4.42zm177.04 -288.97l-169.38 293.38 -7.65 -4.42 169.38 -293.38 0 0 7.65 4.42zm-7.65 -4.42c1.22,-2.11 3.93,-2.84 6.04,-1.62 2.11,1.22 2.84,3.93 1.62,6.04l-7.65 -4.42zm124.54 -33.37l-4.42 7.65 0 0 -3.71 -2.02 -3.76 -1.81 -3.82 -1.6 -3.86 -1.39 -3.9 -1.19 -3.93 -0.98 -3.96 -0.79 -3.97 -0.58 -3.98 -0.39 -3.99 -0.19 -3.98 -0 -3.97 0.19 -3.94 0.38 -3.93 0.57 -3.89 0.75 -3.85 0.94 -3.8 1.12 -3.74 1.29 -3.68 1.47 -3.61 1.65 -3.53 1.82 -3.45 1.99 -3.36 2.16 -3.25 2.33 -3.15 2.49 -3.03 2.66 -2.92 2.82 -2.78 2.98 -2.65 3.14 -2.51 3.29 -2.36 3.45 -2.2 3.6 -7.65 -4.42 2.44 -3.99 2.61 -3.82 2.78 -3.65 2.94 -3.48 3.09 -3.3 3.23 -3.13 3.36 -2.95 3.49 -2.77 3.61 -2.58 3.72 -2.39 3.82 -2.2 3.9 -2.02 4 -1.82 4.07 -1.63 4.14 -1.43 4.2 -1.23 4.26 -1.03 4.3 -0.83 4.34 -0.63 4.37 -0.42 4.39 -0.21 4.4 0 4.41 0.22 4.41 0.43 4.4 0.65 4.38 0.87 4.36 1.09 4.33 1.32 4.28 1.54 4.23 1.77 4.17 2 4.11 2.24 0 0zm0 0c2.11,1.22 2.84,3.93 1.62,6.04 -1.22,2.11 -3.93,2.84 -6.04,1.62l4.42 -7.65zm-2.21 3.83l0 0 0 0 0 0 2.21 -3.83 -2.21 3.83zm2.21 -3.83c2.11,1.22 2.84,3.93 1.62,6.04 -1.22,2.11 -3.93,2.84 -6.04,1.62l4.42 -7.65zm33.37 124.55l-7.65 -4.42 0 0 2.02 -3.71 1.81 -3.76 1.6 -3.82 1.39 -3.87 1.19 -3.9 0.98 -3.93 0.79 -3.96 0.58 -3.97 0.39 -3.98 0.19 -3.99 0 -3.98 -0.19 -3.97 -0.38 -3.95 -0.57 -3.92 -0.75 -3.89 -0.94 -3.85 -1.11 -3.8 -1.3 -3.74 -1.47 -3.69 -1.65 -3.6 -1.82 -3.54 -1.99 -3.45 -2.16 -3.36 -2.33 -3.25 -2.49 -3.15 -2.66 -3.03 -2.82 -2.92 -2.98 -2.78 -3.14 -2.65 -3.29 -2.51 -3.45 -2.36 -3.6 -2.2 4.42 -7.65 3.99 2.44 3.82 2.61 3.65 2.78 3.48 2.94 3.3 3.09 3.13 3.23 2.95 3.36 2.77 3.49 2.58 3.61 2.39 3.72 2.2 3.82 2.02 3.91 1.82 4 1.63 4.07 1.43 4.14 1.24 4.2 1.03 4.26 0.83 4.3 0.63 4.34 0.42 4.37 0.21 4.39 -0 4.4 -0.22 4.41 -0.43 4.41 -0.65 4.4 -0.87 4.38 -1.09 4.37 -1.32 4.32 -1.54 4.28 -1.77 4.23 -2 4.17 -2.24 4.11 0 0zm0 0c-1.22,2.11 -3.93,2.84 -6.04,1.62 -2.11,-1.22 -2.84,-3.93 -1.62,-6.04l7.65 4.42zm-177.04 288.97l169.38 -293.38 7.65 4.42 -169.38 293.38 0 0 -7.65 -4.42zm7.65 4.42c-1.22,2.11 -3.93,2.84 -6.04,1.62 -2.11,-1.22 -2.84,-3.93 -1.62,-6.04l7.65 4.42zm-124.55 33.37l4.42 -7.65 0 0 3.71 2.02 3.76 1.81 3.82 1.6 3.87 1.39 3.9 1.19 3.93 0.98 3.96 0.79 3.97 0.58 3.98 0.39 3.99 0.19 3.98 0 3.97 -0.19 3.95 -0.38 3.92 -0.57 3.89 -0.75 3.85 -0.94 3.8 -1.11 3.74 -1.3 3.69 -1.47 3.6 -1.65 3.54 -1.82 3.45 -1.99 3.36 -2.16 3.25 -2.33 3.15 -2.49 3.03 -2.66 2.92 -2.82 2.78 -2.98 2.65 -3.14 2.51 -3.29 2.36 -3.45 2.2 -3.6 7.65 4.42 -2.44 3.99 -2.61 3.82 -2.78 3.65 -2.94 3.48 -3.09 3.3 -3.23 3.13 -3.36 2.95 -3.49 2.77 -3.61 2.58 -3.72 2.39 -3.82 2.2 -3.91 2.02 -4 1.82 -4.07 1.63 -4.14 1.43 -4.2 1.24 -4.26 1.03 -4.3 0.83 -4.34 0.63 -4.37 0.42 -4.39 0.21 -4.4 -0 -4.41 -0.22 -4.41 -0.43 -4.4 -0.65 -4.38 -0.87 -4.37 -1.09 -4.32 -1.32 -4.28 -1.54 -4.23 -1.77 -4.17 -2 -4.11 -2.24 0 0zm0 0c-2.11,-1.22 -2.84,-3.93 -1.62,-6.04 1.22,-2.11 3.93,-2.84 6.04,-1.62l-4.42 7.65z"/>
   </g>
   <path class="fil3 str2" style="mask:url(#id16)" d="M517.18 387.65c0,-47.14 -38.21,-85.35 -85.35,-85.35 -47.14,0 -85.35,38.21 -85.35,85.35 0,47.13 38.21,85.35 85.35,85.35 47.13,0 85.35,-38.21 85.35,-85.35z"/>
  </g>
  <path class="fil3 str3" style="mask:url(#id18)" d="M952.93 89.79c0,-47.13 -38.21,-85.35 -85.35,-85.35 -47.13,0 -85.35,38.21 -85.35,85.35 0,47.14 38.21,85.35 85.35,85.35 47.14,0 85.35,-38.21 85.35,-85.35z"/>
  <g id="_2143414851024">
   <path class="fil9" style="mask:url(#id20)" d="M1174.49 16.1l0 0c41.32,23.86 55.61,77.19 31.76,118.51l-169.38 293.38c-23.86,41.32 -77.19,55.61 -118.51,31.76l0 0c-41.32,-23.86 -55.61,-77.19 -31.76,-118.51l169.38 -293.38c23.86,-41.32 77.19,-55.61 118.51,-31.76z"/>
   <path class="fil10" d="M1088.22 17.83l0 0c-41.32,23.86 -55.61,77.19 -31.75,118.51l169.38 293.38c23.86,41.32 77.19,55.61 118.51,31.76l0 0c41.32,-23.86 55.61,-77.19 31.76,-118.51l-169.38 -293.38c-23.86,-41.32 -77.19,-55.61 -118.51,-31.76z"/>
   <path class="fil11" d="M960.24 472.99c-47.13,0 -85.35,-38.21 -85.35,-85.35 0,-47.13 38.21,-85.35 85.35,-85.35 47.14,0 85.35,38.21 85.35,85.35 0,47.14 -38.21,85.35 -85.35,85.35z"/>
   <g>
    <path class="fil4" style="mask:url(#id22)" d="M1088.22 17.83l0 0 0 0 0 0 2.21 3.83 -2.21 -3.83zm-2.21 -3.83l4.42 7.65c-2.11,1.22 -4.82,0.49 -6.04,-1.62 -1.22,-2.11 -0.49,-4.82 1.62,-6.04zm-33.37 124.55l0 0 -2.24 -4.11 -2 -4.17 -1.77 -4.23 -1.54 -4.28 -1.32 -4.32 -1.09 -4.37 -0.87 -4.38 -0.65 -4.4 -0.43 -4.41 -0.22 -4.41 0 -4.4 0.21 -4.39 0.42 -4.37 0.62 -4.33 0.83 -4.31 1.03 -4.25 1.23 -4.2 1.43 -4.14 1.63 -4.07 1.82 -3.99 2.02 -3.91 2.21 -3.81 2.39 -3.72 2.59 -3.61 2.76 -3.49 2.94 -3.36 3.12 -3.23 3.3 -3.09 3.48 -2.94 3.65 -2.78 3.82 -2.61 3.99 -2.44 4.42 7.65 -3.6 2.2 -3.45 2.36 -3.29 2.51 -3.14 2.65 -2.97 2.78 -2.82 2.92 -2.66 3.03 -2.5 3.15 -2.33 3.25 -2.16 3.36 -2 3.45 -1.82 3.53 -1.65 3.61 -1.47 3.69 -1.29 3.74 -1.11 3.8 -0.94 3.85 -0.75 3.89 -0.56 3.93 -0.38 3.95 -0.18 3.97 0 3.98 0.2 3.99 0.39 3.98 0.58 3.97 0.79 3.96 0.98 3.93 1.19 3.9 1.39 3.87 1.6 3.82 1.81 3.76 2.02 3.71 0 0 -7.65 4.42zm0 0l7.65 -4.42c1.22,2.11 0.49,4.82 -1.62,6.04 -2.11,1.22 -4.82,0.49 -6.04,-1.62zm177.04 288.97l-7.65 4.42 0 0 -169.38 -293.38 7.65 -4.42 169.38 293.38zm-7.65 4.42l7.65 -4.42c1.22,2.11 0.49,4.82 -1.62,6.04 -2.11,1.22 -4.82,0.49 -6.04,-1.62zm124.54 33.37l0 0 -4.11 2.24 -4.17 2 -4.23 1.77 -4.28 1.54 -4.33 1.32 -4.36 1.09 -4.38 0.87 -4.4 0.65 -4.41 0.43 -4.41 0.22 -4.4 0 -4.39 -0.21 -4.37 -0.42 -4.34 -0.63 -4.3 -0.83 -4.26 -1.03 -4.2 -1.23 -4.14 -1.43 -4.07 -1.63 -4 -1.82 -3.9 -2.02 -3.82 -2.2 -3.72 -2.39 -3.61 -2.58 -3.49 -2.77 -3.36 -2.95 -3.23 -3.13 -3.09 -3.3 -2.94 -3.48 -2.78 -3.65 -2.61 -3.82 -2.44 -3.99 7.65 -4.42 2.2 3.6 2.36 3.45 2.51 3.29 2.65 3.14 2.78 2.98 2.92 2.82 3.03 2.66 3.15 2.49 3.25 2.33 3.36 2.16 3.45 1.99 3.53 1.82 3.61 1.65 3.68 1.47 3.74 1.29 3.8 1.12 3.85 0.94 3.89 0.75 3.93 0.57 3.94 0.38 3.97 0.19 3.98 -0 3.99 -0.19 3.98 -0.39 3.97 -0.58 3.96 -0.79 3.93 -0.98 3.9 -1.19 3.86 -1.39 3.82 -1.6 3.76 -1.81 3.71 -2.02 0 0 4.42 7.65zm0 0l-4.42 -7.65c2.11,-1.22 4.82,-0.49 6.04,1.62 1.22,2.11 0.49,4.82 -1.62,6.04zm-2.21 -3.83l0 0 0 0 0 0 -2.21 -3.83 2.21 3.83zm2.21 3.83l-4.42 -7.65c2.11,-1.22 4.82,-0.49 6.04,1.62 1.22,2.11 0.49,4.82 -1.62,6.04zm33.37 -124.55l0 0 2.24 4.11 2 4.17 1.77 4.23 1.54 4.28 1.32 4.32 1.09 4.37 0.87 4.38 0.65 4.4 0.43 4.41 0.22 4.41 0 4.4 -0.21 4.39 -0.42 4.37 -0.63 4.34 -0.83 4.3 -1.03 4.26 -1.24 4.2 -1.43 4.14 -1.63 4.07 -1.82 4 -2.02 3.91 -2.2 3.82 -2.39 3.72 -2.58 3.61 -2.77 3.49 -2.95 3.36 -3.13 3.23 -3.3 3.09 -3.48 2.94 -3.65 2.78 -3.82 2.61 -3.99 2.44 -4.42 -7.65 3.6 -2.2 3.45 -2.36 3.29 -2.51 3.14 -2.65 2.98 -2.78 2.82 -2.92 2.66 -3.03 2.49 -3.15 2.33 -3.25 2.16 -3.36 1.99 -3.45 1.82 -3.54 1.65 -3.6 1.47 -3.69 1.3 -3.74 1.11 -3.8 0.94 -3.85 0.75 -3.89 0.57 -3.92 0.38 -3.95 0.19 -3.97 -0 -3.98 -0.19 -3.99 -0.39 -3.98 -0.58 -3.97 -0.79 -3.96 -0.98 -3.93 -1.19 -3.9 -1.39 -3.87 -1.6 -3.82 -1.81 -3.76 -2.02 -3.71 0 0 7.65 -4.42zm0 0l-7.65 4.42c-1.22,-2.11 -0.49,-4.82 1.62,-6.04 2.11,-1.22 4.82,-0.49 6.04,1.62zm-177.04 -288.97l7.65 -4.42 0 0 169.38 293.38 -7.65 4.42 -169.38 -293.38zm7.65 -4.42l-7.65 4.42c-1.22,-2.11 -0.49,-4.82 1.62,-6.04 2.11,-1.22 4.82,-0.49 6.04,1.62zm-124.55 -33.37l0 0 4.11 -2.24 4.17 -2 4.23 -1.77 4.29 -1.54 4.32 -1.32 4.36 -1.09 4.38 -0.87 4.4 -0.65 4.41 -0.43 4.41 -0.22 4.41 -0 4.39 0.21 4.37 0.42 4.34 0.63 4.3 0.83 4.26 1.03 4.2 1.23 4.15 1.43 4.07 1.63 3.99 1.82 3.91 2.02 3.82 2.2 3.72 2.39 3.61 2.58 3.49 2.77 3.36 2.95 3.23 3.13 3.09 3.3 2.94 3.48 2.78 3.65 2.61 3.82 2.44 3.99 -7.65 4.42 -2.2 -3.6 -2.36 -3.45 -2.51 -3.29 -2.65 -3.14 -2.78 -2.98 -2.92 -2.82 -3.03 -2.66 -3.15 -2.49 -3.25 -2.33 -3.36 -2.16 -3.45 -1.99 -3.54 -1.82 -3.61 -1.65 -3.68 -1.47 -3.74 -1.29 -3.8 -1.12 -3.85 -0.94 -3.89 -0.75 -3.93 -0.57 -3.94 -0.38 -3.97 -0.19 -3.98 0 -3.99 0.19 -3.98 0.39 -3.97 0.58 -3.96 0.79 -3.93 0.98 -3.91 1.19 -3.86 1.39 -3.82 1.6 -3.76 1.81 -3.71 2.02 0 0 -4.42 -7.65zm0 0l4.42 7.65c-2.11,1.22 -4.82,0.49 -6.04,-1.62 -1.22,-2.11 -0.49,-4.82 1.62,-6.04z"/>
   </g>
   <path class="fil3 str4" style="mask:url(#id24)" d="M960.24 472.99c-47.13,0 -85.35,-38.21 -85.35,-85.35 0,-47.13 38.21,-85.35 85.35,-85.35 47.14,0 85.35,38.21 85.35,85.35 0,47.14 -38.21,85.35 -85.35,85.35z"/>
   <g>
    <path class="fil5" style="mask:url(#id26)" d="M1344.36 461.48l0 0 0 0 0 0 -2.21 -3.83 2.21 3.83zm2.21 3.83l-4.42 -7.65c2.11,-1.22 4.82,-0.49 6.04,1.62 1.22,2.11 0.49,4.82 -1.62,6.04zm33.37 -124.55l0 0 2.24 4.11 2 4.17 1.77 4.23 1.54 4.28 1.32 4.32 1.09 4.37 0.87 4.38 0.65 4.4 0.43 4.41 0.22 4.41 0 4.4 -0.21 4.39 -0.42 4.37 -0.62 4.33 -0.83 4.31 -1.03 4.25 -1.23 4.2 -1.43 4.14 -1.63 4.07 -1.82 3.99 -2.02 3.91 -2.21 3.81 -2.39 3.72 -2.59 3.61 -2.76 3.49 -2.94 3.36 -3.12 3.23 -3.3 3.09 -3.48 2.94 -3.65 2.78 -3.82 2.61 -3.99 2.44 -4.42 -7.65 3.6 -2.2 3.45 -2.36 3.29 -2.51 3.14 -2.65 2.97 -2.78 2.82 -2.92 2.66 -3.03 2.5 -3.15 2.33 -3.25 2.16 -3.36 2 -3.45 1.82 -3.53 1.65 -3.61 1.47 -3.69 1.29 -3.74 1.11 -3.8 0.94 -3.85 0.75 -3.89 0.56 -3.93 0.38 -3.95 0.18 -3.97 0 -3.98 -0.2 -3.99 -0.39 -3.98 -0.58 -3.97 -0.79 -3.96 -0.98 -3.93 -1.19 -3.9 -1.39 -3.87 -1.6 -3.82 -1.81 -3.76 -2.02 -3.71 0 0 7.65 -4.42zm0 0l-7.65 4.42c-1.22,-2.11 -0.49,-4.82 1.62,-6.04 2.11,-1.22 4.82,-0.49 6.04,1.62zm-177.04 -288.97l7.65 -4.42 0 0 169.38 293.38 -7.65 4.42 -169.38 -293.38zm7.65 -4.42l-7.65 4.42c-1.22,-2.11 -0.49,-4.82 1.62,-6.04 2.11,-1.22 4.82,-0.49 6.04,1.62zm-124.54 -33.37l0 0 4.11 -2.24 4.17 -2 4.23 -1.77 4.28 -1.54 4.33 -1.32 4.36 -1.09 4.38 -0.87 4.4 -0.65 4.41 -0.43 4.41 -0.22 4.4 -0 4.39 0.21 4.37 0.42 4.34 0.63 4.3 0.83 4.26 1.03 4.2 1.23 4.14 1.43 4.07 1.63 4 1.82 3.9 2.02 3.82 2.2 3.72 2.39 3.61 2.58 3.49 2.77 3.36 2.95 3.23 3.13 3.09 3.3 2.94 3.48 2.78 3.65 2.61 3.82 2.44 3.99 -7.65 4.42 -2.2 -3.6 -2.36 -3.45 -2.51 -3.29 -2.65 -3.14 -2.78 -2.98 -2.92 -2.82 -3.03 -2.66 -3.15 -2.49 -3.25 -2.33 -3.36 -2.16 -3.45 -1.99 -3.53 -1.82 -3.61 -1.65 -3.68 -1.47 -3.74 -1.29 -3.8 -1.12 -3.85 -0.94 -3.89 -0.75 -3.93 -0.57 -3.94 -0.38 -3.97 -0.19 -3.98 0 -3.99 0.19 -3.98 0.39 -3.97 0.58 -3.96 0.79 -3.93 0.98 -3.9 1.19 -3.86 1.39 -3.82 1.6 -3.76 1.81 -3.71 2.02 0 0 -4.42 -7.65zm0 0l4.42 7.65c-2.11,1.22 -4.82,0.49 -6.04,-1.62 -1.22,-2.11 -0.49,-4.82 1.62,-6.04zm2.21 3.83l0 0 0 0 0 0 2.21 3.83 -2.21 -3.83zm-2.21 -3.83l4.42 7.65c-2.11,1.22 -4.82,0.49 -6.04,-1.62 -1.22,-2.11 -0.49,-4.82 1.62,-6.04zm-33.37 124.55l0 0 -2.24 -4.11 -2 -4.17 -1.77 -4.23 -1.54 -4.28 -1.32 -4.32 -1.09 -4.37 -0.87 -4.38 -0.65 -4.4 -0.43 -4.41 -0.22 -4.41 -0 -4.4 0.21 -4.39 0.42 -4.37 0.63 -4.34 0.83 -4.3 1.03 -4.26 1.24 -4.2 1.43 -4.14 1.63 -4.07 1.82 -4 2.02 -3.91 2.2 -3.82 2.39 -3.72 2.58 -3.61 2.77 -3.49 2.95 -3.36 3.13 -3.23 3.3 -3.09 3.48 -2.94 3.65 -2.78 3.82 -2.61 3.99 -2.44 4.42 7.65 -3.6 2.2 -3.45 2.36 -3.29 2.51 -3.14 2.65 -2.98 2.78 -2.82 2.92 -2.66 3.03 -2.49 3.15 -2.33 3.25 -2.16 3.36 -1.99 3.45 -1.82 3.54 -1.65 3.6 -1.47 3.69 -1.3 3.74 -1.11 3.8 -0.94 3.85 -0.75 3.89 -0.57 3.92 -0.38 3.95 -0.19 3.97 0 3.98 0.19 3.99 0.39 3.98 0.58 3.97 0.79 3.96 0.98 3.93 1.19 3.9 1.39 3.87 1.6 3.82 1.81 3.76 2.02 3.71 0 0 -7.65 4.42zm0 0l7.65 -4.42c1.22,2.11 0.49,4.82 -1.62,6.04 -2.11,1.22 -4.82,0.49 -6.04,-1.62zm177.04 288.97l-7.65 4.42 0 0 -169.38 -293.38 7.65 -4.42 169.38 293.38zm-7.65 4.42l7.65 -4.42c1.22,2.11 0.49,4.82 -1.62,6.04 -2.11,1.22 -4.82,0.49 -6.04,-1.62zm124.55 33.37l0 0 -4.11 2.24 -4.17 2 -4.23 1.77 -4.29 1.54 -4.32 1.32 -4.36 1.09 -4.38 0.87 -4.4 0.65 -4.41 0.43 -4.41 0.22 -4.41 0 -4.39 -0.21 -4.37 -0.42 -4.34 -0.63 -4.3 -0.83 -4.26 -1.03 -4.2 -1.23 -4.15 -1.43 -4.07 -1.63 -3.99 -1.82 -3.91 -2.02 -3.82 -2.2 -3.72 -2.39 -3.61 -2.58 -3.49 -2.77 -3.36 -2.95 -3.23 -3.13 -3.09 -3.3 -2.94 -3.48 -2.78 -3.65 -2.61 -3.82 -2.44 -3.99 7.65 -4.42 2.2 3.6 2.36 3.45 2.51 3.29 2.65 3.14 2.78 2.98 2.92 2.82 3.03 2.66 3.15 2.49 3.25 2.33 3.36 2.16 3.45 1.99 3.54 1.82 3.61 1.65 3.68 1.47 3.74 1.29 3.8 1.12 3.85 0.94 3.89 0.75 3.93 0.57 3.94 0.38 3.97 0.19 3.98 -0 3.99 -0.19 3.98 -0.39 3.97 -0.58 3.96 -0.79 3.93 -0.98 3.91 -1.19 3.86 -1.39 3.82 -1.6 3.76 -1.81 3.71 -2.02 0 0 4.42 7.65zm0 0l-4.42 -7.65c2.11,-1.22 4.82,-0.49 6.04,1.62 1.22,2.11 0.49,4.82 -1.62,6.04z"/>
   </g>
   <path class="fil3 str5" style="mask:url(#id28)" d="M1045.59 387.64c0,-47.13 -38.21,-85.35 -85.35,-85.35 -47.14,0 -85.35,38.21 -85.35,85.35 0,47.14 38.21,85.35 85.35,85.35 47.14,0 85.35,-38.21 85.35,-85.35z"/>
  </g>
 </g>
</svg>
