<?xml version="1.0" encoding="UTF-8"?>
<!-- Generator: Adobe Illustrator 27.8.1, SVG Export Plug-In . SVG Version: 6.00 Build 0)  -->
<svg xmlns="http://www.w3.org/2000/svg" xmlns:xlink="http://www.w3.org/1999/xlink" version="1.1" id="Ebene_1" x="0px" y="0px" viewBox="0 0 615.3 117" style="enable-background:new 0 0 615.3 117;" xml:space="preserve">
<style type="text/css">
	.st0{fill:#91908E;}
	.st1{fill:#575759;}
	.st2{fill:#000000;}
	.st3{clip-path:url(#SVGID_00000057138453971656180080000016265619762006261389_);}
	.st4{clip-path:url(#SVGID_00000111906332169395064300000010970672596835390617_);}
	.st5{fill:url(#SVGID_00000129194086483040187510000009730717607788955544_);}
	.st6{clip-path:url(#SVGID_00000120551009662864351470000012199150259664408989_);}
	.st7{clip-path:url(#SVGID_00000103231500027245213430000002001565682967256999_);}
	.st8{fill:url(#SVGID_00000070829581404576434890000017167821072066289052_);}
	.st9{opacity:0.5;}
	.st10{clip-path:url(#SVGID_00000071517963038817731190000014844101136297210002_);}
	.st11{clip-path:url(#SVGID_00000065780522899940108570000013888020521485512066_);}
	.st12{fill:url(#SVGID_00000124876665360613926450000012384197056938215051_);}
</style>
<g>
	<g id="Capa_1">
		<g>
			<path class="st0" d="M377.7,25.7c0-2.1,0.7-3.9,2.2-5.4c1.5-1.5,3.2-2.3,5.3-2.3h26.5c7.3,0,12.9,1.5,16.8,4.6     c3.9,3.2,5.8,7.7,5.8,13.6c0,3.3-0.7,6.3-2.1,9.1c-1.4,2.3-3.6,4.3-6.6,5.8c3.9,1.5,6.7,3.7,8.5,6.4c1.8,2.6,2.7,6.1,2.7,10.5     c0,7-2.3,12.4-6.8,16.1c-4.5,3.9-11,5.8-19.4,5.8h-32.7L377.7,25.7L377.7,25.7z M408.7,46c3,0,5.7-0.6,8.1-1.9     c1.6-1.4,2.5-3.4,2.5-6s-0.8-4.5-2.5-5.8c-1.6-1.2-4.4-1.9-8.3-1.9h-16.3V46H408.7L408.7,46z M409.4,77c4,0,7-0.8,9.1-2.3     c1.8-1.4,2.7-3.7,2.7-7s-0.9-5.7-2.7-7.2c-2.1-1.5-5.2-2.3-9.3-2.3h-17V77L409.4,77L409.4,77z"></path>
			<path class="st0" d="M448.6,18c1.8,0,3.4,0.6,4.8,2s2.1,2.9,2.1,4.9V90h-14.1V18H448.6L448.6,18z"></path>
			<path class="st0" d="M482.9,91c-5.5,0.4-10.2-0.3-14.1-2.3c-5.8-2.9-8.7-8-8.7-15.3c0.1-5.7,2.1-9.9,5.8-12.8s9.9-4.8,18.4-5.6     c6.1-0.7,9.1-2.5,9.1-5.6c-0.3-3.2-3.3-4.8-9.1-4.8c-5,0-7.8,1.3-8.5,3.9h-14.1c1.6-10.3,9-15.5,21.9-15.5     c15.4,0,23.3,5.2,23.6,15.5v19c0,9.5-3.5,16.1-10.3,19.8C493.2,89.5,488.5,90.6,482.9,91 M482.5,65.2c-5.6,1.1-8.5,3.7-8.5,7.9     c0.3,4.4,2.6,6.6,7,6.6c3.9,0,7-1.1,9.3-3.3c2.2-2.2,3.3-5.3,3.3-9.3v-5.2C490.3,63.3,486.6,64.4,482.5,65.2"></path>
			<path class="st0" d="M561.4,72.8c-1.4,6.2-4.1,10.8-8.1,13.7c-4.4,3.3-9.7,4.9-15.7,4.8c-17,0-25.6-9.7-26-28.9     c0-19.2,8.6-28.9,25.8-29.1c13.5,0,21.5,6.1,24,18.2h-15.3c-1.7-3.9-4.7-5.8-9.1-5.8c-7.4,0-11.2,5.6-11.2,16.8     s3.9,16.7,11.8,16.5c3.3,0,6.1-1.3,8.5-3.9c1.4-1.4,3-2.1,4.8-2.1L561.4,72.8L561.4,72.8z"></path>
			<path class="st0" d="M598.2,36h17l-19.4,20.7L615.3,90h-17l-9.9-18.4c-1.8-3.2-3.6-4.8-5.4-4.8c-1.5,0.3-2.3,1.2-2.3,2.7V90     h-14.1V18h7.2c1.8,0,3.4,0.6,4.8,2c1.4,1.3,2.1,2.9,2.1,4.9v31L598.2,36z"></path>
			<polygon class="st0" points="252,63 225,90 279,90    "></polygon>
			<polygon class="st1" points="279,90 252,63 261,90    "></polygon>
			<path class="st2" d="M323.9,18L288,53.9L251.9,18l-54,54L180,54l54-54h-36l-36,36L144,18l-36,0l36,36l-18,18L72,18L0,90h36l9-9     h54l9,9l-27,27h36l45-45.1l18,18h36l36-36l36,36l72-72L323.9,18L323.9,18z M72,54l9,9H63L72,54z"></path>
			<g>
				<g>
					<defs>
						<rect id="SVGID_1_" x="144.1" y="36" width="53.9" height="54"></rect>
					</defs>
					<clipPath id="SVGID_00000003783831382169096690000008498699359388894140_">
						<use xlink:href="#SVGID_1_" style="overflow:visible;"></use>
					</clipPath>
					<g style="clip-path:url(#SVGID_00000003783831382169096690000008498699359388894140_);">
						<g>
							<defs>
								<polygon id="SVGID_00000127737391136586877380000012503398325447366564_" points="180,90 198,72 162,36 144.1,54                   "></polygon>
							</defs>
							<clipPath id="SVGID_00000138567201256752877470000017022821241801910184_">
								<use xlink:href="#SVGID_00000127737391136586877380000012503398325447366564_" style="overflow:visible;"></use>
							</clipPath>
							<g style="clip-path:url(#SVGID_00000138567201256752877470000017022821241801910184_);">
								
									<linearGradient id="SVGID_00000087385453700542277630000010416828137534265485_" gradientUnits="userSpaceOnUse" x1="-593.8395" y1="2555.3477" x2="-592.8395" y2="2555.3477" gradientTransform="matrix(26.9973 26.9973 -26.9973 26.9973 85191.0234 -52892.1484)">
									<stop offset="0" style="stop-color:#000000"></stop>
									<stop offset="1" style="stop-color:#B3B2B2"></stop>
									<stop offset="1" style="stop-color:#676767"></stop>
								</linearGradient>
								<polygon style="fill:url(#SVGID_00000087385453700542277630000010416828137534265485_);" points="117.1,63 171,9.1 225,63           171,117         "></polygon>
							</g>
						</g>
					</g>
				</g>
			</g>
			<g>
				<g>
					<defs>
						<rect id="SVGID_00000177464018028688445900000010262758231765011863_" x="72" y="36.1" width="54" height="54"></rect>
					</defs>
					<clipPath id="SVGID_00000070819953281668033630000009138341077521680057_">
						<use xlink:href="#SVGID_00000177464018028688445900000010262758231765011863_" style="overflow:visible;"></use>
					</clipPath>
					<g style="clip-path:url(#SVGID_00000070819953281668033630000009138341077521680057_);">
						<g>
							<defs>
								<polygon id="SVGID_00000176023227828595297960000015407181447867748998_" points="108,90 126,72 90,36.1 72,54         "></polygon>
							</defs>
							<clipPath id="SVGID_00000163062584190807206450000005771718042080590760_">
								<use xlink:href="#SVGID_00000176023227828595297960000015407181447867748998_" style="overflow:visible;"></use>
							</clipPath>
							<g style="clip-path:url(#SVGID_00000163062584190807206450000005771718042080590760_);">
								
									<linearGradient id="SVGID_00000178885637103143688430000016880583968384509620_" gradientUnits="userSpaceOnUse" x1="-593.8595" y1="2555.3755" x2="-592.8595" y2="2555.3755" gradientTransform="matrix(26.9973 26.9973 -26.9973 26.9973 85120.3516 -52892.2734)">
									<stop offset="0" style="stop-color:#000000"></stop>
									<stop offset="1" style="stop-color:#B3B2B2"></stop>
									<stop offset="1" style="stop-color:#B3B2B2"></stop>
								</linearGradient>
								<polygon style="fill:url(#SVGID_00000178885637103143688430000016880583968384509620_);" points="45.1,63.1 99,9.1           153,63.1 99,117         "></polygon>
							</g>
						</g>
					</g>
				</g>
			</g>
			<g class="st9">
				<g>
					<defs>
						<rect id="SVGID_00000040577028418100464930000011247003848454496700_" x="36" y="63" width="63" height="18"></rect>
					</defs>
					<clipPath id="SVGID_00000149346858748896451810000001385435799119391362_">
						<use xlink:href="#SVGID_00000040577028418100464930000011247003848454496700_" style="overflow:visible;"></use>
					</clipPath>
					<g style="clip-path:url(#SVGID_00000149346858748896451810000001385435799119391362_);">
						<g>
							<defs>
								<polygon id="SVGID_00000136375397051796807430000005051404781209701529_" points="99,81 81,63 54,63 36,81         "></polygon>
							</defs>
							<clipPath id="SVGID_00000088133429532099514720000004022465842218659753_">
								<use xlink:href="#SVGID_00000136375397051796807430000005051404781209701529_" style="overflow:visible;"></use>
							</clipPath>
							<g style="clip-path:url(#SVGID_00000088133429532099514720000004022465842218659753_);">
								
									<linearGradient id="SVGID_00000097464381963444098630000000661603142797206204_" gradientUnits="userSpaceOnUse" x1="-643.8364" y1="2572.7434" x2="-642.8364" y2="2572.7434" gradientTransform="matrix(47.28 0 0 47.28 30507.5098 -121567.3047)">
									<stop offset="0" style="stop-color:#000000"></stop>
									<stop offset="1" style="stop-color:#B3B2B2"></stop>
								</linearGradient>
								
									<rect x="36" y="63" style="fill:url(#SVGID_00000097464381963444098630000000661603142797206204_);" width="63" height="18"></rect>
							</g>
						</g>
					</g>
				</g>
			</g>
		</g>
	</g>
</g>
</svg>
