<svg xmlns="http://www.w3.org/2000/svg" viewBox="0 0 574.9 311.9"><defs><style>.cls-1{fill:#4874fc}</style></defs><g id="Layer_2" data-name="Layer 2"><g id="Layer_1-2" data-name="Layer 1"><path class="cls-1" d="M467 50c33-2 59 26 59 58a58 58 0 01-10 33c-19 24-57 49-67 57-18 13-35 26-46 37-28 29-31 64-31 77h203v-50H445c17-15 43-32 64-48l30-25a108 108 0 0021-27h1l2-4 1-3 2-3v-1A108 108 0 00387 37a119 119 0 0122 55c2-1 20-41 58-42zM108 97a107 107 0 00-59 17V0H0v204A108 108 0 10108 97zm0 166a59 59 0 1158-59 59 59 0 01-58 59z"/><path class="cls-1" d="M399 113v-2-1-1-1a108 108 0 00-216 0 40 40 0 001 5 119 119 0 0142 80 106 106 0 0045 20 109 109 0 0020 2h6l-43 80-8 17h55l22-41 61-109a107 107 0 0015-49zm-167-5a59 59 0 1159 58 59 59 0 01-59-58z"/></g></g></svg>