<svg width="132" height="36" viewBox="0 0 132 36" fill="none" xmlns="http://www.w3.org/2000/svg">
    <path d="M122.14 2.55554H123.839C126.334 2.83818 128.738 4.07968 130.226 6.08535C131.938 8.29409 132.452 11.3214 131.589 13.9594C130.648 16.9951 127.885 19.3943 124.687 19.9491C121.412 20.5898 117.839 19.252 115.849 16.6245C113.632 13.8358 113.429 9.71145 115.363 6.72599C116.792 4.38534 119.398 2.88214 122.14 2.55554Z" fill="#FF0000"/>
    <path d="M130.646 8.02611L127.373 15.9671H125.3L122.8 9.89988L120.38 9.94175V15.9127H118.143V9.94175H115.723V8.02611H124.529L126.362 13.0172L128.194 8.02611H130.648H130.646Z" fill="white"/>
    <path d="M0 1C2.37979 1 4.75957 1 7.13936 1C7.14365 4.45025 7.13936 7.8984 7.1415 11.3486C9.75477 9.7282 12.9678 9.02894 16.0266 9.54187C19.1561 10.0318 22.0328 11.7841 23.9242 14.2608C25.9142 16.8234 26.8567 20.1208 26.5696 23.324C26.3105 26.456 24.8603 29.4834 22.5298 31.6544C20.3835 33.6748 17.4725 34.8807 14.4951 35H13.3212C11.614 34.8849 9.88758 34.4326 8.49098 33.4319C7.99403 33.0865 7.55491 32.674 7.13936 32.2386C7.13936 32.9713 7.1415 33.7062 7.13722 34.441H0V1ZM12.7386 16.099C10.8258 16.2602 9.0479 17.3824 8.06257 18.9861C7.19934 20.3574 6.92302 22.0658 7.31715 23.6318C7.70485 25.2397 8.79086 26.6738 10.256 27.5028C11.5991 28.2754 13.2527 28.5078 14.765 28.1351C16.2965 27.7708 17.6524 26.7931 18.4921 25.493C19.3339 24.2075 19.6573 22.608 19.3767 21.1048C19.0918 19.5137 18.1322 18.0523 16.772 17.1353C15.6089 16.3377 14.1523 15.965 12.7386 16.099Z" fill="#191C1C"/>
    <path d="M58.9356 1C61.3175 0.997907 63.6994 0.997907 66.0813 1C66.0835 6.94163 66.0813 12.8833 66.0813 18.8249C68.7332 15.8666 71.3764 12.9021 74.0261 9.94384C77.0828 9.94384 80.1394 9.94384 83.1961 9.94384C80.2872 13.0842 77.3784 16.2225 74.4695 19.3608C77.6311 24.3897 80.8056 29.4101 83.9694 34.4368C81.1034 34.4368 78.2395 34.441 75.3756 34.4347C73.5056 31.332 71.6356 28.2314 69.7613 25.1308C68.534 26.4916 67.3044 27.8483 66.0813 29.2112C66.0813 30.9531 66.0835 32.695 66.0813 34.4368C63.7058 34.441 61.3282 34.4264 58.9506 34.4431C58.9141 29.0835 58.9463 23.7239 58.9356 18.3622C58.9356 12.5734 58.9356 6.78461 58.9356 0.995813V1Z" fill="#191C1C"/>
    <path d="M34.5423 11.445C37.0891 9.74495 40.3107 9.0436 43.3567 9.5335C45.1838 9.82451 46.8996 10.6494 48.3026 11.8218C48.3026 11.1958 48.3026 10.5719 48.3026 9.94803C50.6824 9.94803 53.0601 9.94594 55.4398 9.94803C55.4484 18.1089 55.4313 26.2697 55.4484 34.4305C53.0686 34.4599 50.6846 34.4347 48.3048 34.4431C48.3005 33.7083 48.3048 32.9734 48.3026 32.2385C47.8464 32.718 47.3559 33.1702 46.8011 33.5366C45.4516 34.4578 43.8172 34.8723 42.1936 35.0021H40.8334C39.2933 34.8995 37.7617 34.5687 36.3566 33.9344C33.6105 32.7264 31.3806 30.5009 30.1083 27.842C28.7053 24.9486 28.4439 21.5528 29.3607 18.4836C30.194 15.6531 32.0361 13.0989 34.5423 11.4491V11.445ZM41.7523 16.0844C39.7131 16.1932 37.8024 17.395 36.8042 19.1243C35.9324 20.594 35.7268 22.4217 36.258 24.04C36.74 25.5558 37.8496 26.8706 39.2869 27.6138C40.5849 28.2942 42.1422 28.4847 43.5709 28.1393C45.0039 27.8022 46.287 26.9313 47.1352 25.7568C48.0242 24.5425 48.4354 23.0058 48.2641 21.5235C48.0927 19.924 47.2423 18.4083 45.9593 17.3991C44.7897 16.4675 43.2582 15.986 41.7523 16.0844Z" fill="#191C1C"/>
    <path d="M86.4413 9.94803C88.8232 9.94803 91.2051 9.94385 93.5871 9.94803C93.5871 14.4388 93.5871 18.9317 93.5871 23.4224C93.5806 24.1761 93.5871 24.9403 93.7799 25.6751C93.9769 26.4833 94.4589 27.2495 95.2043 27.6766C96.2153 28.2649 97.4384 28.3277 98.5866 28.3005C99.7368 28.2565 100.988 28.0535 101.847 27.2369C102.706 26.4142 102.918 25.1789 102.931 24.0505C102.943 21.8794 102.933 12.117 102.937 9.94594C105.317 9.94175 107.697 9.94175 110.079 9.94594C110.074 12.2238 110.085 22.093 110.074 24.3708C110.053 26.4602 109.541 28.5831 108.363 30.3438C107.431 31.7612 106.084 32.898 104.55 33.6538C102.798 34.5289 100.831 34.9121 98.8779 34.9979H97.4856C95.592 34.8849 93.6856 34.5206 91.9806 33.6789C90.2477 32.8394 88.759 31.5016 87.8272 29.8414C86.8397 28.1163 86.4456 26.1169 86.4456 24.1552C86.4413 19.4195 86.4456 14.6817 86.4456 9.94594L86.4413 9.94803Z" fill="#191C1C"/>
</svg>