<?xml version="1.0" encoding="UTF-8"?>
<!DOCTYPE svg PUBLIC "-//W3C//DTD SVG 1.1//EN" "http://www.w3.org/Graphics/SVG/1.1/DTD/svg11.dtd">
<!-- Creator: CorelDRAW 2017 -->
<svg xmlns="http://www.w3.org/2000/svg" xml:space="preserve" width="192.942mm" height="111.717mm" version="1.1" style="shape-rendering:geometricPrecision; text-rendering:geometricPrecision; image-rendering:optimizeQuality; fill-rule:evenodd; clip-rule:evenodd"
viewBox="0 0 19294.16 11171.7"
 xmlns:xlink="http://www.w3.org/1999/xlink">
 <defs>
  <style type="text/css">
   <![CDATA[
    .fil2 {fill:none}
    .fil3 {fill:#BBBBBB}
    .fil1 {fill:url(#id4)}
    .fil0 {fill:url(#id5)}
    .fil4 {fill:url(#id6)}
   ]]>
  </style>
    <clipPath id="id0">
     <path d="M79.21 5268.73c1764.63,-2950.79 5463.25,-5262.47 9404.94,-5268.68 313.57,-0.49 631.9,2.55 945.18,19.06 1431.6,75.71 2833.24,485.37 4099.39,1102.32 2102.39,1024.41 3831.3,2620.39 4703.72,4208.15 102.02,187.83 70.22,372.61 -41.67,543.57 -2199.94,3362.12 -5424.31,5105.37 -9113.25,5285.42 -504.75,24.6 -972.85,14.95 -1475.98,-31.89 -3402.74,-316.99 -6263.51,-1976.33 -8519.17,-5235.48 -114.43,-165.36 -104.12,-453.66 -3.16,-622.47zm9574.56 5304.13c-726.63,-31.68 -1429.7,-144.13 -2070.41,-369.43 -2242.74,-788.64 -3948.97,-2943.22 -3974.75,-4445.04 -17.7,-1031.15 492.02,-1956.45 1193.5,-2849.82 1014.52,-1292.04 2669.36,-2163.76 4705.64,-2207.39 1960.36,-42 3782.32,800.06 4936.98,2079.03 730.51,809.18 1287.47,1725.74 1290.7,2766.47 1.92,619.09 -248.78,1309.86 -533.96,1840.62 -918.86,1710.12 -3057.37,3294.08 -5547.7,3185.56z"/>
    </clipPath>
    <clipPath id="id1">
     <path d="M9647.09 1239.77c2400.28,0 4346.08,1945.8 4346.08,4346.08 0,2400.29 -1945.8,4346.09 -4346.08,4346.09 -2400.29,0 -4346.09,-1945.8 -4346.09,-4346.09 0,-2400.28 1945.8,-4346.08 4346.09,-4346.08z"/>
    </clipPath>
     <clipPath id="id2">
      <path d="M13404.47 7770.96c-753.18,1292.32 -2153.75,2160.98 -3757.38,2160.98 -1603.64,0 -3004.21,-868.66 -3757.39,-2160.98l7514.77 0z"/>
     </clipPath>
     <clipPath id="id3">
      <path d="M9647.09 1239.77c2400.28,0 4346.08,1945.8 4346.08,4346.08 0,2400.29 -1945.8,4346.09 -4346.08,4346.09 -2400.29,0 -4346.09,-1945.8 -4346.09,-4346.09 0,-2400.28 1945.8,-4346.08 4346.09,-4346.08z"/>
     </clipPath>
  <linearGradient id="id4" gradientUnits="userSpaceOnUse" x1="9661.03" y1="10697.92" x2="9661.03" y2="565.45">
   <stop offset="0" style="stop-opacity:1; stop-color:#FEFEFE"/>
   <stop offset="1" style="stop-opacity:1; stop-color:#BABABA"/>
  </linearGradient>
  <linearGradient id="id5" gradientUnits="userSpaceOnUse" x1="9647.08" y1="11171.7" x2="9647.08" y2="0">
   <stop offset="0" style="stop-opacity:1; stop-color:#8F8F8F"/>
   <stop offset="0.501961" style="stop-opacity:1; stop-color:#C2C2C2"/>
   <stop offset="1" style="stop-opacity:1; stop-color:#E5E5E5"/>
  </linearGradient>
  <linearGradient id="id6" gradientUnits="userSpaceOnUse" x1="9647.09" y1="9931.94" x2="9647.09" y2="1239.77">
   <stop offset="0" style="stop-opacity:1; stop-color:#9A9A9A"/>
   <stop offset="0.290196" style="stop-opacity:1; stop-color:#CCCCCC"/>
   <stop offset="1" style="stop-opacity:1; stop-color:white"/>
  </linearGradient>
 </defs>
 <g id="Camada_x0020_1">
  <metadata id="CorelCorpID_0Corel-Layer"/>
  <g id="_1243155584">
   <path class="fil0" d="M79.21 5268.73c1764.63,-2950.79 5463.25,-5262.47 9404.94,-5268.68 313.57,-0.49 631.9,2.55 945.18,19.06 1431.6,75.71 2833.24,485.37 4099.39,1102.32 2102.39,1024.41 3831.3,2620.39 4703.72,4208.15 102.02,187.83 70.22,372.61 -41.67,543.57 -2199.94,3362.12 -5424.31,5105.37 -9113.25,5285.42 -504.75,24.6 -972.85,14.95 -1475.98,-31.89 -3402.74,-316.99 -6263.51,-1976.33 -8519.17,-5235.48 -114.43,-165.36 -104.12,-453.66 -3.16,-622.47zm9574.56 5304.13c-726.63,-31.68 -1429.7,-144.13 -2070.41,-369.43 -2242.74,-788.64 -3948.97,-2943.22 -3974.75,-4445.04 -17.7,-1031.15 492.02,-1956.45 1193.5,-2849.82 1014.52,-1292.04 2669.36,-2163.76 4705.64,-2207.39 1960.36,-42 3782.32,800.06 4936.98,2079.03 730.51,809.18 1287.47,1725.74 1290.7,2766.47 1.92,619.09 -248.78,1309.86 -533.96,1840.62 -918.86,1710.12 -3057.37,3294.08 -5547.7,3185.56z"/>
   <g style="clip-path:url(#id0)">
    <g>
     <path class="fil1" d="M4548.75 8205.39c-779.23,-971.59 -1098.26,-1810.16 -1093.46,-2444.02 7.13,-942.91 380.83,-1933.47 1223.67,-2921.87 1591.1,-1865.87 3715.98,-2609.87 6289.84,-2134.16 1883.52,348.12 3340.23,1374.72 4336.53,2971.74 764.56,1225.56 698.94,2407.21 100.7,3630.01 -1005.7,2055.62 -3054.87,3273.49 -5055.95,3378.26 -2403.41,125.84 -4368.58,-693.47 -5801.33,-2479.96z"/>
    </g>
   </g>
   <path class="fil2" d="M79.21 5268.73c1764.63,-2950.79 5463.25,-5262.47 9404.94,-5268.68 313.57,-0.49 631.9,2.55 945.18,19.06 1431.6,75.71 2833.24,485.37 4099.39,1102.32 2102.39,1024.41 3831.3,2620.39 4703.72,4208.15 102.02,187.83 70.22,372.61 -41.67,543.57 -2199.94,3362.12 -5424.31,5105.37 -9113.25,5285.42 -504.75,24.6 -972.85,14.95 -1475.98,-31.89 -3402.74,-316.99 -6263.51,-1976.33 -8519.17,-5235.48 -114.43,-165.36 -104.12,-453.66 -3.16,-622.47zm9574.56 5304.13c-726.63,-31.68 -1429.7,-144.13 -2070.41,-369.43 -2242.74,-788.64 -3948.97,-2943.22 -3974.75,-4445.04 -17.7,-1031.15 492.02,-1956.45 1193.5,-2849.82 1014.52,-1292.04 2669.36,-2163.76 4705.64,-2207.39 1960.36,-42 3782.32,800.06 4936.98,2079.03 730.51,809.18 1287.47,1725.74 1290.7,2766.47 1.92,619.09 -248.78,1309.86 -533.96,1840.62 -918.86,1710.12 -3057.37,3294.08 -5547.7,3185.56z"/>
   <path class="fil3" d="M9647.08 1184.43c2430.83,0 4401.42,1970.59 4401.42,4401.42 0,2430.83 -1970.59,4401.42 -4401.42,4401.42 -2430.83,0 -4401.42,-1970.59 -4401.42,-4401.42 0,-2430.83 1970.59,-4401.42 4401.42,-4401.42z"/>
   <path class="fil4" d="M9647.09 1239.77c2400.28,0 4346.08,1945.8 4346.08,4346.08 0,2400.29 -1945.8,4346.09 -4346.08,4346.09 -2400.29,0 -4346.09,-1945.8 -4346.09,-4346.09 0,-2400.28 1945.8,-4346.08 4346.09,-4346.08z"/>
   <g style="clip-path:url(#id1)">
    <g>
    </g>
    <g style="clip-path:url(#id3)">
    </g>
   </g>
   <path class="fil2" d="M9647.09 1239.77c2400.28,0 4346.08,1945.8 4346.08,4346.08 0,2400.29 -1945.8,4346.09 -4346.08,4346.09 -2400.29,0 -4346.09,-1945.8 -4346.09,-4346.09 0,-2400.28 1945.8,-4346.08 4346.09,-4346.08z"/>
  </g>
 </g>
</svg>
