<svg width="578" height="398" viewBox="0 0 578 398" fill="none" xmlns="http://www.w3.org/2000/svg">
<g clip-path="url(#clip0_108_101)">
<path d="M138.323 298.977C138.323 295.045 135.385 292.152 131.362 291.836V291.655C140.357 289.756 137.645 276.92 127.882 277.869H115V307.429C122.187 307.113 138.91 309.915 138.323 298.977ZM121.192 282.479C134.029 280.355 134.074 292.062 121.192 290.163V282.479ZM121.192 302.819V294.231C135.837 292.107 135.701 304.943 121.192 302.819Z" fill="black"/>
<path d="M150.21 277.914L139.95 307.474H146.278L148.538 300.288H158.934L161.194 307.474H167.748L157.487 277.914H150.21ZM149.894 295.677L153.691 283.564H153.826L157.623 295.677H149.894Z" fill="black"/>
<path d="M184.923 277.914L178.279 290.525H178.143L171.499 277.914H164.764L175.07 296.401V307.474H181.217V296.401L191.522 277.914H184.923Z" fill="black"/>
<path d="M200.607 288.084L214.438 307.474H219.591V277.914H213.67V297.169H213.489L199.703 277.914H194.505V307.474H200.427V288.084H200.607Z" fill="black"/>
<path d="M223.523 292.694C222.303 312.898 253.265 312.898 252.044 292.694C253.265 272.49 222.303 272.49 223.523 292.694ZM245.716 292.694C246.349 306.028 229.173 306.028 229.851 292.694C229.219 279.315 246.394 279.315 245.716 292.694Z" fill="black"/>
<path d="M255.976 277.914C256.79 287.948 251.366 308.83 268.361 307.972C285.311 308.876 279.932 287.903 280.746 277.914H274.553C273.197 283.383 278.757 303.407 268.361 302.683C257.92 303.452 263.48 283.383 262.169 277.914H255.976Z" fill="black"/>
<path d="M304.611 297.169L290.825 277.914H285.627V307.474H291.548V288.084H291.729L305.56 307.474H310.668V277.914H304.746V297.169H304.611Z" fill="black"/>
<path d="M331.233 277.914H323.956L313.696 307.474H320.024L322.284 300.288H332.68L334.94 307.474H341.493L331.233 277.914ZM323.64 295.677L327.436 283.564H327.572L331.369 295.677H323.64Z" fill="black"/>
<path d="M370.15 307.474V277.914H364.003V289.892H350.669V277.914H344.477V307.474H350.669V294.999H364.003V307.474H370.15Z" fill="black"/>
<path d="M396.591 307.474V283.022H405.179V277.914H381.856V283.022H390.399V307.474H396.591Z" fill="black"/>
<path d="M433.971 277.914H427.236L420.502 301.101H420.366L413.586 277.914H406.671L416.615 307.474H424.072L433.971 277.914Z" fill="black"/>
<path d="M414.761 238.5C414.581 251.337 434.739 251.337 434.559 238.5C434.739 225.664 414.581 225.664 414.761 238.5Z" fill="black"/>
<path d="M410.784 238.5C410.965 225.664 390.806 225.664 390.987 238.5C390.806 251.337 410.965 251.337 410.784 238.5Z" fill="black"/>
<path d="M377.562 248.354C390.399 248.535 390.399 228.376 377.562 228.557C364.726 228.376 364.726 248.535 377.562 248.354Z" fill="black"/>
<path d="M350.94 139.017C363.777 139.198 363.777 119.039 350.94 119.22C338.103 119.039 338.103 139.198 350.94 139.017Z" fill="black"/>
<path d="M289.605 218.522H302.306C302.532 231.54 287.39 231.133 278.214 230.591V254.727H290.283C290.283 254.727 290.599 254.727 290.69 254.727C310.396 254.501 326.397 238.455 326.487 218.703L434.559 218.658V148.825H410.874V194.974H398.987V148.554H375.303V195.29H363.415V148.915H338.555V194.702H326.533C328.205 176.803 323.775 155.967 305.108 149.096C251.276 128.124 232.563 216.172 289.695 218.522M297.56 172.374C304.611 175.945 301.989 188.148 302.441 194.386C267.728 200.849 274.147 161.933 297.56 172.374Z" fill="black"/>
<path d="M181.488 139.107C194.325 139.288 194.325 119.129 181.488 119.31C168.652 119.129 168.652 139.288 181.488 139.107Z" fill="black"/>
<path d="M228.495 139.107C241.332 139.288 241.332 119.129 228.495 119.31C215.659 119.129 215.659 139.288 228.495 139.107Z" fill="black"/>
<path d="M157.758 139.107C170.595 139.288 170.595 119.129 157.758 119.31C144.922 119.129 144.922 139.288 157.758 139.107Z" fill="black"/>
<path d="M168.606 218.613C168.968 218.613 185.104 218.613 185.511 218.613C188.946 218.613 235.592 218.613 240.473 218.613C240.473 203.697 240.473 164.464 240.473 149.051H216.789V194.928H204.947V149.006C201.647 149.096 184.064 148.961 181.262 149.006C130.82 139.107 114.819 213.641 168.652 218.613M170.233 172.193H181.262V195.38H168.832C153.284 194.928 156.177 170.566 170.233 172.193Z" fill="black"/>
<path d="M487.894 104.441C488.165 85.1863 457.927 85.1863 458.243 104.441C457.972 123.696 488.21 123.696 487.894 104.441Z" fill="#D02D2E"/>
</g>
<defs>
<clipPath id="clip0_108_101">
<rect width="373" height="218" fill="white" transform="translate(115 90)"/>
</clipPath>
</defs>
</svg>
