<?xml version="1.0" encoding="UTF-8" standalone="no"?>
<!-- Created with Inkscape (http://www.inkscape.org/) -->

<svg
   width="256mm"
   height="75mm"
   viewBox="0 0 256 75"
   version="1.1"
   id="svg2059"
   xmlns="http://www.w3.org/2000/svg"
   xmlns:svg="http://www.w3.org/2000/svg">
  <defs
     id="defs2056" />
  <g
     id="layer1"
     transform="matrix(0.5,0,0,0.49999999,0.06710638,0.01832883)">
    <g
       id="g2174"
       transform="matrix(32.928093,0,0,34.067278,-8496.5524,-4993.7017)">
      <g
         id="g1308"
         transform="matrix(0.35277777,0,0,-0.35277777,268.68516,148.04369)"
         style="fill:#000000">
        <path
           d="m 0,0 c -0.129,-0.072 -0.279,-0.128 -0.449,-0.169 -0.171,-0.041 -0.349,-0.062 -0.538,-0.062 -0.249,0 -0.473,0.037 -0.673,0.109 -0.2,0.073 -0.369,0.177 -0.507,0.314 -0.138,0.137 -0.244,0.305 -0.317,0.503 -0.073,0.198 -0.11,0.421 -0.11,0.67 0,0.242 0.038,0.46 0.115,0.656 0.076,0.195 0.186,0.363 0.33,0.503 0.144,0.139 0.316,0.246 0.517,0.32 0.202,0.074 0.427,0.112 0.677,0.112 0.173,0 0.336,-0.019 0.49,-0.054 0.154,-0.036 0.298,-0.087 0.43,-0.156 V 2.139 c -0.121,0.079 -0.251,0.14 -0.392,0.182 -0.141,0.04 -0.289,0.061 -0.445,0.061 -0.214,0 -0.397,-0.04 -0.549,-0.12 C -1.571,2.183 -1.687,2.068 -1.768,1.916 -1.849,1.765 -1.889,1.581 -1.889,1.365 c 0,-0.217 0.039,-0.402 0.116,-0.555 0.078,-0.152 0.191,-0.268 0.34,-0.348 0.148,-0.08 0.328,-0.12 0.539,-0.12 0.323,0 0.621,0.084 0.894,0.253 z M -3.984,-1.411 H 1.563 V 4.136 H -3.984 Z M -8.137,1.15 h -0.56 V 0.308 h 0.551 c 0.19,0 0.335,0.036 0.437,0.107 0.102,0.072 0.153,0.174 0.153,0.308 0,0.285 -0.194,0.427 -0.581,0.427 m 0.295,0.596 c 0.086,0.072 0.129,0.171 0.129,0.299 0,0.248 -0.168,0.371 -0.505,0.371 H -8.697 V 1.639 h 0.479 c 0.164,0 0.29,0.036 0.376,0.107 M -7.049,0.221 C -7.144,0.087 -7.279,-0.016 -7.454,-0.089 -7.63,-0.161 -7.84,-0.198 -8.087,-0.198 h -1.242 v 3.12 h 1.17 c 0.346,0 0.613,-0.069 0.802,-0.207 0.19,-0.138 0.285,-0.337 0.285,-0.596 0,-0.148 -0.034,-0.276 -0.102,-0.386 -0.068,-0.109 -0.169,-0.195 -0.301,-0.26 0.183,-0.061 0.324,-0.157 0.422,-0.289 0.097,-0.133 0.146,-0.294 0.146,-0.483 0,-0.186 -0.047,-0.346 -0.142,-0.48 m -3.868,-1.632 h 5.547 v 5.547 h -5.547 z M -15.07,1.15 h -0.561 V 0.308 h 0.552 c 0.19,0 0.335,0.036 0.437,0.107 0.102,0.072 0.153,0.174 0.153,0.308 0,0.285 -0.194,0.427 -0.581,0.427 m 0.294,0.596 c 0.087,0.072 0.13,0.171 0.13,0.299 0,0.248 -0.169,0.371 -0.505,0.371 h -0.48 V 1.639 h 0.48 c 0.164,0 0.289,0.036 0.375,0.107 m 0.794,-1.525 c -0.095,-0.134 -0.23,-0.237 -0.406,-0.31 -0.175,-0.072 -0.386,-0.109 -0.631,-0.109 h -1.244 v 3.12 h 1.171 c 0.345,0 0.613,-0.069 0.802,-0.207 0.19,-0.138 0.285,-0.337 0.285,-0.596 0,-0.148 -0.035,-0.276 -0.103,-0.386 -0.067,-0.109 -0.168,-0.195 -0.301,-0.26 0.184,-0.061 0.325,-0.157 0.422,-0.289 0.098,-0.133 0.147,-0.294 0.147,-0.483 0,-0.186 -0.048,-0.346 -0.142,-0.48 m -3.869,-1.632 h 5.547 v 5.547 h -5.547 z"
           style="fill:#000000;fill-opacity:1;fill-rule:nonzero;stroke:none"
           id="path1310" />
      </g>
      <g
         id="g1312"
         transform="matrix(0.35277777,0,0,-0.35277777,272.14026,149.27527)"
         style="fill:#ec0000;fill-opacity:1">
        <path
           d="M 0,0 H 4.1 V -0.909 H 2.572 V -4.854 H 1.527 v 3.945 H 0 Z m -1.74,-4.854 c -0.353,0.566 -0.71,1.133 -1.072,1.701 -0.362,0.568 -0.72,1.119 -1.073,1.653 V -4.854 H -4.889 V 0 h 1.058 c 0.367,-0.547 0.728,-1.096 1.083,-1.646 0.355,-0.55 0.71,-1.108 1.063,-1.674 V 0 h 1.004 V -4.854 Z M -9.154,0 h 3.339 v -0.869 h -2.294 v -1.052 h 2.036 V -2.79 h -2.036 v -1.195 h 2.423 v -0.869 h -3.468 z m -3.934,-3.95 c -0.199,0.398 -0.393,0.797 -0.584,1.198 -0.189,0.4 -0.378,0.799 -0.563,1.198 v -3.3 h -0.998 V 0 h 1.256 c 0.213,-0.498 0.43,-0.994 0.652,-1.49 0.222,-0.496 0.448,-0.986 0.678,-1.47 0.227,0.484 0.451,0.972 0.672,1.463 0.222,0.491 0.437,0.99 0.645,1.497 h 1.222 v -4.854 h -0.998 v 3.313 c -0.185,-0.407 -0.374,-0.811 -0.566,-1.211 -0.193,-0.401 -0.386,-0.8 -0.581,-1.198 z m -5.905,1.018 h 1.364 c -0.109,0.317 -0.221,0.632 -0.336,0.946 -0.115,0.315 -0.229,0.624 -0.342,0.927 -0.236,-0.62 -0.464,-1.244 -0.686,-1.873 m 2.023,-1.922 c -0.118,0.358 -0.236,0.709 -0.353,1.053 h -1.969 c -0.118,-0.349 -0.235,-0.7 -0.353,-1.053 h -1.12 c 0.308,0.851 0.621,1.682 0.94,2.492 0.32,0.81 0.642,1.597 0.968,2.362 h 1.127 c 0.334,-0.806 0.661,-1.614 0.981,-2.427 0.318,-0.812 0.627,-1.621 0.926,-2.427 z M -22.4,0 h 1.045 V -4.854 H -22.4 Z m -3.972,0 h 1.046 v -3.944 h 2.301 v -0.91 h -3.347 z m -3.645,-2.267 h 0.679 c 0.321,0 0.566,0.057 0.734,0.173 0.166,0.115 0.25,0.298 0.25,0.546 0,0.249 -0.082,0.432 -0.247,0.55 -0.166,0.118 -0.409,0.177 -0.73,0.177 h -0.686 z m 0,-0.821 v -1.766 h -1.031 V 0 h 1.771 c 0.638,0 1.128,-0.134 1.47,-0.401 0.342,-0.267 0.513,-0.649 0.513,-1.147 0,-0.321 -0.077,-0.595 -0.228,-0.821 -0.152,-0.226 -0.368,-0.4 -0.648,-0.523 0.203,-0.321 0.405,-0.643 0.604,-0.967 0.199,-0.324 0.398,-0.655 0.597,-0.995 h -1.201 c -0.326,0.598 -0.663,1.186 -1.012,1.766 h -0.102 z m -4.758,0.156 h 1.364 c -0.108,0.317 -0.22,0.632 -0.336,0.946 -0.115,0.315 -0.229,0.624 -0.342,0.927 -0.236,-0.62 -0.464,-1.244 -0.686,-1.873 m 2.023,-1.922 c -0.118,0.358 -0.236,0.709 -0.353,1.053 h -1.969 c -0.118,-0.349 -0.235,-0.7 -0.353,-1.053 h -1.12 c 0.308,0.851 0.621,1.682 0.941,2.492 0.318,0.81 0.641,1.597 0.966,2.362 h 1.128 c 0.334,-0.806 0.661,-1.614 0.98,-2.427 0.319,-0.812 0.628,-1.621 0.927,-2.427 z m -6.192,2.478 h 0.652 c 0.308,0 0.542,0.062 0.703,0.187 0.16,0.124 0.24,0.32 0.24,0.587 0,0.267 -0.08,0.464 -0.24,0.591 -0.161,0.126 -0.393,0.19 -0.696,0.19 h -0.659 z m -1.032,-2.478 V 0 h 1.745 c 0.624,0 1.104,-0.138 1.439,-0.414 0.335,-0.276 0.502,-0.672 0.502,-1.188 0,-0.34 -0.075,-0.628 -0.227,-0.865 -0.152,-0.238 -0.373,-0.419 -0.662,-0.544 -0.29,-0.124 -0.643,-0.186 -1.059,-0.186 h -0.706 v -1.657 z"
           style="fill:#ec0000;fill-opacity:1;fill-rule:nonzero;stroke:none"
           id="path1314" />
      </g>
    </g>
  </g>
</svg>
