<?xml version="1.0" encoding="UTF-8" standalone="no"?>
<!-- Generator: Adobe Illustrator 25.3.1, SVG Export Plug-In . SVG Version: 6.00 Build 0)  -->

<svg
   version="1.1"
   viewBox="0 0 534.292 257.88785"
   xml:space="preserve"
   id="svg13816"
   xmlns="http://www.w3.org/2000/svg"
   xmlns:svg="http://www.w3.org/2000/svg"><defs
   style="fill:#0096dc"
   id="defs19" />
<path
   d="M 99.610446,257.88785 Q 94.977402,243.81052 90.344358,230.26778 H 38.668098 Q 34.035054,243.98872 29.40201,257.88785 H 0 Q 12.117192,224.38738 24.590772,192.49065 37.242546,160.59392 50.072514,130.47914 H 79.652718 Q 92.839074,162.19767 105.31265,194.27259 117.96444,226.16932 129.72524,257.88785 Z M 46.508634,207.45895 H 82.325628 Q 78.048972,194.98537 73.415928,182.68998 68.961078,170.2164 64.506228,158.2774 55.24014,182.68998 46.508634,207.45895 Z"
   style="fill:#0096dc"
   id="path4100" /><path
   d="M 142.54943,130.47914 H 169.99131 V 234.00985 H 230.39907 V 257.88785 H 142.54943 Z"
   style="fill:#0096dc"
   id="path4102" /><path
   d="M 346.9024,221.17988 Q 346.9024,232.5843 340.8438,240.78122 334.9634,248.97815 323.91537,253.433 312.86734,257.88785 297.36447,257.88785 H 245.15362 V 130.47914 H 294.33517 Q 316.07484,130.47914 328.01383,139.03245 339.95283,147.40757 339.95283,163.26683 339.95283,172.35473 335.67618,179.1261 331.39952,185.71928 323.0244,189.63955 334.60701,193.38162 340.66561,201.57854 346.9024,209.59727 346.9024,221.17988 Z M 271.70453,182.86817 H 291.84045 Q 302.1757,182.86817 307.52152,178.59152 313.04554,174.13667 313.04554,166.29613 313.04554,151.14964 291.84045,151.14964 H 271.70453 Z M 271.70453,237.21734 H 294.86975 Q 306.80875,237.21734 313.22373,232.94069 319.63872,228.48584 319.63872,220.28891 319.63872,202.8259 295.22614,202.8259 H 271.70453 Z"
   style="fill:#0096dc"
   id="path4104" /><path
   d="M 448.45338,257.88785 Q 443.82034,243.81052 439.1873,230.26778 H 387.51104 Q 382.87799,243.98872 378.24495,257.88785 H 348.84294 Q 360.96013,224.38738 373.43371,192.49065 386.08548,160.59392 398.91545,130.47914 H 428.49566 Q 441.68201,162.19767 454.15559,194.27259 466.80737,226.16932 478.56817,257.88785 Z M 395.35157,207.45895 H 431.16857 Q 426.89191,194.98537 422.25887,182.68998 417.80402,170.2164 413.34917,158.2774 404.08308,182.68998 395.35157,207.45895 Z"
   style="fill:#0096dc"
   id="path4106" /><path
   style="fill:#0096dc"
   id="path6041"
   d="M 111.69294,21.003702 V 94.023702 H 184.71299 V 21.003702 Z M 202.94991,21.003702 V 94.023702 H 275.96911 V 21.003702 Z M 294.13541,21.003702 V 94.023702 H 367.15463 V 21.003702 Z M 333.94488,36.544042 C 336.21568,36.544042 338.34464,36.757872 340.40252,37.254582 342.46042,37.751292 344.30498,38.389602 346.07901,39.312122 V 47.259712 C 344.51784,46.195302 342.74448,45.415052 340.89945,44.847332 338.98347,44.279642 336.99597,43.995242 335.08001,44.066212 332.24152,44.066212 329.82901,44.563232 327.84208,45.627652 325.85514,46.621112 324.2942,48.253002 323.30071,50.169002 322.2363,52.155882 321.73928,54.568502 321.73928,57.406932 321.73928,60.245332 322.2363,62.729392 323.30071,64.716322 324.2942,66.703242 325.85549,68.264732 327.77145,69.329162 329.7584,70.393592 332.09979,70.889732 334.86729,70.889732 339.12498,70.889732 343.02837,69.754852 346.64742,67.554972 V 75.431112 H 346.57594 C 344.87284,76.353632 342.88655,77.134862 340.68673,77.631582 338.41597,78.199222 336.07371,78.411882 333.59004,78.411882 330.32582,78.411882 327.34561,77.915062 324.72005,76.992552 322.09446,75.999062 319.89466,74.650672 318.04969,72.876642 316.20466,71.102612 314.85665,68.903332 313.86316,66.277752 312.86971,63.652242 312.44382,60.742562 312.44382,57.478392 312.44382,54.285092 312.94035,51.446732 313.93379,48.821122 314.92728,46.266472 316.4174,44.066392 318.26243,42.221402 320.17839,40.376432 322.44929,38.957402 325.07488,38.034872 327.70046,37.041462 330.68064,36.544042 333.94488,36.544042 Z M 132.20098,36.970392 H 147.59924 C 152.14078,36.970392 155.68913,37.892932 158.17277,39.666942 160.65642,41.511912 161.93385,44.066302 161.93385,47.472412 161.93385,49.459382 161.5085,51.092062 160.58599,52.582232 159.66351,54.001422 158.38621,55.136002 156.61219,55.987602 159.02489,56.768162 160.86928,58.046062 162.14658,59.820122 163.42389,61.523202 164.06286,63.652022 164.06286,66.135652 164.13383,68.619362 163.49538,70.747792 162.21805,72.521812 160.94075,74.295852 159.16632,75.644572 156.89554,76.567082 154.55381,77.489602 151.7864,77.985572 148.59312,77.985572 H 132.20098 Z M 223.52859,36.970392 H 238.92685 C 243.4684,36.970392 247.0167,37.892932 249.50037,39.666942 251.98404,41.511912 253.26145,44.066302 253.26145,47.472412 253.26145,49.459382 252.83608,51.092062 251.91358,52.582232 250.99107,54.001422 249.71384,55.136002 247.93979,55.987602 250.3525,56.768162 252.19685,58.046062 253.47418,59.820122 254.75149,61.523202 255.39044,63.652022 255.39044,66.135652 255.31931,68.619362 254.68052,70.747792 253.47418,72.521812 252.19685,74.295852 250.42327,75.644572 248.15253,76.567082 245.81077,77.489602 243.04338,77.985572 239.8501,77.985572 H 223.52859 Z M 140.50342,43.640742 V 53.859442 H 146.81895 C 149.01877,53.859442 150.65124,53.362562 151.78662,52.440112 152.92201,51.517582 153.48931,50.169002 153.48931,48.536932 153.48931,45.272672 151.28954,43.640742 146.81895,43.640742 Z M 231.76039,43.640742 V 53.859442 H 238.07591 C 240.27574,53.859442 241.90819,53.362562 243.04358,52.440112 244.17898,51.517582 244.74629,50.169002 244.74629,48.536932 244.74629,45.272672 242.54652,43.640742 238.07591,43.640742 Z M 140.50342,60.317092 V 71.386702 H 147.74134 C 150.225,71.386702 152.14105,70.889862 153.48931,69.967332 154.8376,69.044882 155.47621,67.697002 155.47621,65.922912 155.54723,62.161982 152.99268,60.317092 147.88345,60.317092 Z M 231.76039,60.317092 V 71.386702 H 238.99831 C 241.48195,71.386702 243.39801,70.889862 244.74629,69.967332 246.09455,69.044882 246.73318,67.697002 246.73318,65.922912 246.80414,62.161982 244.24965,60.317092 239.14041,60.317092 Z" />
<path
   d="M 435.23871,72.769861 C 435.23871,72.769861 395.89141,111.60386 396.75085,112.64854 397.61918,113.69314 445.81187,88.795181 453.3229,86.322491 460.71816,83.877804 465.33571,89.848037 465.33571,89.848037 465.33571,89.848037 516.37317,145.69456 517.84993,144.31263 519.19406,143.05711 487.18811,79.704437 485.10061,72.305437 482.8373,64.327794 491.45886,57.083532 491.45886,57.083532 491.45886,57.083532 509.34595,39.310718 521.66709,26.383383 L 528.91346,19.00174 C 538.10984,9.633631 533.84644,11.480591 528.45485,13.953656 527.75834,13.961018 512.66207,22.692108 512.56432,22.73779 497.6699,30.468092 479.33336,40.360186 474.63843,42.276236 466.68913,45.530499 462.15145,41.202593 462.15145,41.202593 462.15145,41.202593 448.73846,25.892997 439.5258,17.765555 L 423.5205,1.6829752 C 422.08534,0.27102018 419.62876,-1.8079411 421.82899,2.9967565 L 428.14988,17.885774 C 432.55928,29.511075 442.63058,52.259224 443.57494,57.116267 445.06711,64.79841 435.23871,72.769861 435.23871,72.769861"
   style="fill:#0096dc"
   id="path3030" /></svg>
