<?xml version="1.0" encoding="UTF-8"?>
<svg xmlns="http://www.w3.org/2000/svg" version="1.1" viewBox="0 0 1120 634.8">
  <defs>
    <style>
      .cls-1 {
        fill: #ba2918;
      }
    </style>
  </defs>
  <!-- Generator: Adobe Illustrator 28.7.1, SVG Export Plug-In . SVG Version: 1.2.0 Build 142)  -->
  <g>
    <g id="Layer_1">
      <path class="cls-1" d="M964.5,1c8.9-2.3,19.1-.5,26.1,5.8,10.5,9.2,11.4,27,2.3,37.5-9.9,11.4-29.5,11.8-40.3,1.5-10.4-10.2-10-29.1.8-38.9,3.1-2.9,6.9-4.8,11-5.9Z"/>
      <path class="cls-1" d="M1030.5,1.1c8.9-2.4,19.2-.7,26.3,5.5,10.7,9.3,11.7,27.3,2.3,37.9-10.6,12-32.2,11.6-42.1-1-8.1-10.3-7.2-26.7,2.2-35.9,3.1-3.1,7.1-5.3,11.3-6.4Z"/>
      <path class="cls-1" d="M732.9,72.4c20.2-8.1,42.5-10.6,64.1-8.9,17.6,1.3,35.1,5.6,50.8,13.8,12.3,6.4,23.4,15.3,32.2,26.1-14.9,13.4-30.1,26.6-45.2,39.9-11.4-13.3-27.9-23.3-45.9-22.8-14-.7-28.8,3.8-38.6,14.2-10,10.4-13.8,25.4-13.3,39.6,0,16,6.7,32.5,20.1,41.8,16.1,11.1,37.8,10.9,55.4,3.6,0-17.6,0-35.3,0-52.9,20.4,0,40.8,0,61.3,0,.4,29.5,0,59,.2,88.6-15,10.5-32.3,17.2-50,21.6-22.2,5.4-45.5,6.9-68,2.7-17.7-3.4-34.8-10.5-49.1-21.4-17.5-13.1-30.6-32.1-36.7-53.1-9.8-33.6-4.2-72.3,17.9-99.9,11.6-14.7,27.4-26,44.8-32.9Z"/>
      <path class="cls-1" d="M.6,67.7c37.8,0,75.6,0,113.4,0,19.4.2,39.4,2.6,56.7,11.8,11.8,6.2,21.7,16.9,25,30.1,4.1,15.8.6,33.8-10.7,45.9-4.5,5.3-10.5,8.8-16.2,12.5,12.9,4.8,25,13.2,31.8,25.5,7.4,13.3,8.4,29.8,3.7,44.1-4.2,12.6-14.3,22.5-26,28.4-16.8,8.5-35.9,10.9-54.4,11.6-41.1,0-82.3,0-123.4,0,0-69.9,0-139.9,0-209.8M70.3,117.2c-.2,10.4,0,20.8-.1,31.1,10.9,0,21.9,0,32.9,0,5.6,0,11.6-.5,16.6-3.4,7.8-4.3,8.6-16.5,2.4-22.6-5.2-4.6-12.4-4.9-19-5.2-10.9,0-21.8,0-32.7,0M70.3,195.1c-.2,11,0,21.9,0,32.9,13.6,0,27.2,0,40.7,0,6.2,0,12.7-.3,18.1-3.5,9.1-5,9.3-20.1.5-25.5-4.9-3.2-11-3.6-16.6-3.9-14.2,0-28.4,0-42.7,0Z"/>
      <path class="cls-1" d="M232,67.7c56.8,0,113.5,0,170.3,0,0,17.8,0,35.5,0,53.3-33.6,0-67.2,0-100.8,0-.1,8.2,0,16.4,0,24.6,29.5,0,59,0,88.5,0,.3,17,0,34,.1,51-29.5.1-59.1,0-88.6,0,0,9.1,0,18.2,0,27.3,34.9,0,69.8,0,104.7,0,.1,17.8,0,35.6,0,53.4-58.1,0-116.2.1-174.3,0,0-69.9-.1-139.8,0-209.8Z"/>
      <path class="cls-1" d="M433.3,67.7c19.4,0,38.8,0,58.2,0,26.5,31.7,53,63.4,79.6,94.9,0-31.7,0-63.3,0-95,23,0,45.9,0,68.9,0,.1,69.9,0,139.8,0,209.8-19.4.1-38.8,0-58.1,0-23.8-28.3-47.4-56.6-71.2-84.9-2.8-3.5-5.9-6.7-8.5-10.3-.1,31.7,0,63.5,0,95.2-23,0-46,0-68.9,0,0-69.9,0-139.9,0-209.8Z"/>
      <path class="cls-1" d="M902.6,67.7c23.6,0,47.1,0,70.7,0,.1,38.5,0,77,0,115.5.3,11.5,1.9,24,9.7,33,7.1,8,18.8,9.7,28.9,8.1,7.4-1.1,14.3-5.3,18.3-11.7,5.6-9,6.7-19.9,7-30.3,0-38.2,0-76.4,0-114.7,23.1,0,46.3,0,69.4,0,0,39.6,0,79.1,0,118.7-.3,24.7-7.7,50.4-25.3,68.3-17.3,17.7-42.2,25.7-66.4,27.1-14.8.8-29.7,0-44.1-3.6-16.8-4.1-32.8-12.5-44.5-25.3-11.8-12.6-18.8-29.1-21.8-46-2.9-15.4-1.8-31.1-2-46.6,0-30.9,0-61.8,0-92.6Z"/>
      <path class="cls-1" d="M345.6,358c8.6-1.8,18.2,0,24.9,5.9,10.5,9.2,11.6,26.9,2.6,37.5-10.3,12.2-31.6,12.1-41.9,0-6.5-7.6-7.6-18.9-4-28.1,3-7.8,10.3-13.6,18.4-15.2Z"/>
      <path class="cls-1" d="M411.5,358.1c8.8-2.1,18.8-.2,25.6,6,10.9,9.8,11.3,28.9.7,39.1-10.4,9.8-28.3,9.8-38.6,0-10.5-10.2-10.1-29.2.7-39,3.2-3,7.3-5,11.6-6.1Z"/>
      <path class="cls-1" d="M1.2,425.1c64.5-.1,129,0,193.5,0,0,18.3,0,36.6,0,54.9-20.4,0-40.8,0-61.2,0-.1,51.6,0,103.2,0,154.9-23.6,0-47.2,0-70.8,0,0-51.6,0-103.2,0-154.9-20.4,0-40.8,0-61.2,0-.2-18.3,0-36.6,0-54.9Z"/>
      <path class="cls-1" d="M282.7,425c23.6,0,47.1,0,70.7,0,.1,38.8,0,77.5.1,116.2.3,11.2,2,23.3,9.5,32.1,7.3,8.4,19.7,10,30.1,8.1,7.6-1.3,14.4-6.2,18.1-12.9,5.4-9.8,6.1-21.3,6.1-32.2,0-37.1,0-74.2,0-111.3,23.1,0,46.2,0,69.3,0,.3,38.5,0,76.9.1,115.4.1,22-4.8,44.9-18,62.9-11.4,15.9-29,26.7-47.8,31.7-21.1,5.6-43.6,6-65,1.8-20.3-4-40.1-14-53.1-30.4-14.5-17.9-20.2-41.3-20.4-64,0-39.1,0-78.2,0-117.3Z"/>
      <path class="cls-1" d="M594,425c28,0,56,0,84,0,10.6,0,21.3-.3,31.9.7,19.6,1.9,39.4,8,54.8,20.8,12.6,10.3,21.3,25.3,24.2,41.3,3,16.6,1.7,34.4-5.5,49.8-6.6,14.2-18.5,25.6-32.4,32.5,14.5,21.7,29.3,43.1,43.9,64.7-25.2.1-50.4,0-75.6,0-11.9-17.6-23.6-35.4-35.8-52.7-6.2.2-12.5,0-18.7,0-.1,17.6,0,35.1,0,52.7-23.6,0-47.2,0-70.8,0,0-69.9,0-139.9,0-209.8M664.7,479.7c0,16.3,0,32.7,0,49,8.8,0,17.5,0,26.3,0,6.7,0,13.6-1.2,19.2-5.1,5-3.4,8-9.2,8.6-15.2.7-6.7,0-14.1-4.3-19.6-5-6.5-13.6-8.9-21.4-9.1-9.4,0-18.9,0-28.3,0Z"/>
      <path class="cls-1" d="M892,425c23.2,0,46.3,0,69.5,0,.1,25.3,0,50.6,0,75.9,22.9-25.2,45.8-50.6,68.7-75.8,25.7,0,51.4,0,77,0-27.3,30.5-55,60.6-82.5,91-1.2.9-.5,2.5.3,3.4,23.9,31.8,47.8,63.7,71.6,95.5,4.8,6.6,10,13,14.7,19.8-27.2.2-54.5,0-81.7.1-17.3-23.2-34.9-46.1-52.1-69.3-5.6,5.5-10.5,11.7-16,17.4,0,17.3,0,34.6,0,51.9-23.2,0-46.4,0-69.6,0,0-69.9,0-139.8,0-209.7Z"/>
      <g id="_x23_ba2918ff">
        <path class="cls-1" d="M0,309.4h1106c0,8.2,0,16.5,0,24.7-368.7,0-737.3,0-1106,0,0-8.2,0-16.4,0-24.7Z"/>
      </g>
    </g>
  </g>
</svg>