<?xml version="1.0" encoding="utf-8"?>
<!-- Generator: Adobe Illustrator 25.3.0, SVG Export Plug-In . SVG Version: 6.00 Build 0)  -->
<svg version="1.1" id="BERGBLICK_x5F_LOGO_x5F_WHITE_x5F_RGB"
	 xmlns="http://www.w3.org/2000/svg" xmlns:xlink="http://www.w3.org/1999/xlink" x="0px" y="0px" viewBox="0 0 841.9 595.3"
	 style="enable-background:new 0 0 841.9 595.3;" xml:space="preserve">
<style type="text/css">
	.st0{fill:#000000;}
</style>
<g>
	<g>
		<path class="st0" d="M149.6,531.6c-1.5-1.3-2.2-2.9-2.2-4.7v-56.6c0-1.9,0.7-3.4,2.2-4.7c1.4-1.3,3.2-1.9,5.3-1.9h26.5
			c6.7,0,12,1.8,15.9,5.4c4,3.6,5.9,8.4,5.9,14.5c0,2.7-0.8,5.3-2.3,7.8c-1.5,2.5-3.5,4.5-5.9,5.9v0.4c3.4,1.2,6.1,3.2,8.1,5.9
			c2,2.7,3,5.8,3,9.1c0,4.1-1,7.7-2.9,10.8c-1.9,3.2-4.6,5.6-8.1,7.4c-3.5,1.8-7.4,2.6-11.9,2.6h-28.4
			C152.8,533.6,151.1,532.9,149.6,531.6z M181.1,492.5c2.1,0,3.8-0.8,5.3-2.4c1.4-1.6,2.2-3.6,2.2-5.9c0-2.5-0.7-4.5-2-5.9
			c-1.3-1.4-3.1-2.2-5.4-2.2h-19.4v16.5H181.1z M183.1,521.2c2.5,0,4.5-0.8,6-2.3c1.5-1.5,2.3-3.5,2.3-6c0-2.6-0.7-4.6-2.2-6.1
			c-1.5-1.4-3.5-2.2-6.1-2.2h-21.4v16.5H183.1z"/>
		<path class="st0" d="M215.3,470.3c0-1.9,0.7-3.4,2.2-4.7c1.4-1.3,3.2-1.9,5.3-1.9h44.7c0,4.4-0.7,7.6-2.2,9.6c-1.5,2-3.8,3-7.1,3
			H230V492h26.2c0,4.4-0.7,7.6-2.2,9.6c-1.5,2-3.8,3-7.1,3H230V521h30.2c3.2,0,5.5,1,7,3c1.5,2,2.2,5.2,2.2,9.6h-46.7
			c-2.1,0-3.8-0.6-5.3-1.9c-1.4-1.3-2.2-2.9-2.2-4.8V470.3z"/>
		<path class="st0" d="M278.6,470.3c0-1.9,0.7-3.5,2.2-4.8c1.4-1.3,3.2-1.9,5.3-1.9h26.3c7.5,0,13.2,1.9,17.2,5.7
			c4,3.8,6,9.3,6,16.3c0,3.9-0.8,7.2-2.3,9.9c-1.6,2.7-4,4.8-7.2,6.3v0.4c5.8,2.6,8.7,7.5,8.7,14.7v6.9c0,3.5-1.2,6.1-3.8,7.9
			c-2.5,1.8-6.1,2.7-10.9,2.7v-17c0-3.3-0.7-5.8-2-7.3c-1.3-1.6-3.3-2.4-5.9-2.4h-19v16.1c0,3.5-1.2,6.1-3.7,7.9
			c-2.5,1.8-6.1,2.7-10.8,2.7V470.3z M311.5,495.3c3.1,0,5.4-0.8,7-2.5c1.6-1.7,2.4-4.1,2.4-7.2c0-3.3-0.7-5.7-2.2-7.2
			c-1.5-1.5-3.9-2.3-7.1-2.3h-18.4v19.2H311.5z"/>
		<path class="st0" d="M358.8,531c-4.7-2.3-8.4-5.6-11-9.7c-2.6-4.2-3.9-8.9-3.9-14.2v-17c0-5.3,1.3-10.1,3.8-14.2s6.2-7.3,10.8-9.6
			c4.6-2.3,9.9-3.4,15.8-3.4c5.9,0,11.2,0.9,15.9,2.6c4.7,1.8,8.3,4.2,10.8,7.3c2.6,3.1,3.8,6.7,3.8,10.8c0,2.6-0.9,4.6-2.6,6.1
			s-4.1,2.2-7.1,2.2c-1.7,0-3.4-0.2-5.1-0.7c0.2-1.4,0.3-3.1,0.3-5c0-3.2-1.5-5.8-4.5-7.8s-6.9-3.1-11.6-3.1
			c-4.7,0-8.5,1.4-11.4,4.1c-2.9,2.7-4.4,6.3-4.4,10.6v17c0,4.4,1.5,8,4.6,10.7c3,2.8,7,4.2,11.8,4.2c4.7,0,8.5-1.1,11.4-3.2
			c2.9-2.1,4.4-4.9,4.4-8.2v-2.3h-7.3c-2.7,0-4.9-1.1-6.6-3.2c-1.7-2.1-2.5-4.9-2.5-8.3h24.3c2,0,3.6,0.6,4.9,1.8
			c1.3,1.2,1.9,2.8,1.9,4.9v7.4c0,4.6-1.3,8.7-3.8,12.3c-2.6,3.6-6.1,6.4-10.7,8.4c-4.6,2-9.9,3-15.8,3
			C368.9,534.5,363.5,533.3,358.8,531z"/>
		<path class="st0" d="M416.7,531.6c-1.5-1.3-2.2-2.9-2.2-4.7v-56.6c0-1.9,0.7-3.4,2.2-4.7c1.4-1.3,3.2-1.9,5.2-1.9h26.5
			c6.7,0,12,1.8,15.9,5.4c4,3.6,5.9,8.4,5.9,14.5c0,2.7-0.8,5.3-2.3,7.8c-1.5,2.5-3.5,4.5-5.9,5.9v0.4c3.4,1.2,6.1,3.2,8.1,5.9
			c2,2.7,3,5.8,3,9.1c0,4.1-1,7.7-2.9,10.8c-1.9,3.2-4.6,5.6-8.1,7.4c-3.5,1.8-7.4,2.6-11.9,2.6h-28.4
			C419.9,533.6,418.1,532.9,416.7,531.6z M448.2,492.5c2.1,0,3.8-0.8,5.3-2.4c1.4-1.6,2.2-3.6,2.2-5.9c0-2.5-0.7-4.5-2-5.9
			c-1.3-1.4-3.1-2.2-5.4-2.2h-19.4v16.5H448.2z M450.2,521.2c2.5,0,4.5-0.8,6.1-2.3c1.5-1.5,2.2-3.5,2.2-6c0-2.6-0.7-4.6-2.2-6.1
			c-1.5-1.4-3.5-2.2-6.1-2.2h-21.4v16.5H450.2z"/>
		<path class="st0" d="M484.6,531.3c-1.5-1.5-2.3-3.4-2.3-5.5v-52.5c0-3.6,1.2-6.3,3.6-8c2.4-1.7,6.1-2.6,11.1-2.6v58.2h25.8
			c3.3,0,5.9,1.1,7.7,3.2c1.8,2.2,2.6,5.3,2.6,9.4h-43.1C487.9,533.6,486.1,532.8,484.6,531.3z"/>
		<path class="st0" d="M543.3,473.4c0-3.3,1.3-5.9,3.8-7.8c2.6-1.9,6.2-2.8,10.8-2.8v61.1c0,3.4-1.3,6-3.8,7.9
			c-2.6,1.9-6.2,2.8-10.8,2.8V473.4z"/>
		<path class="st0" d="M584.2,531c-4.7-2.3-8.4-5.6-11-9.7c-2.6-4.2-3.9-8.9-3.9-14.2v-17c0-5.3,1.3-10.1,3.8-14.2
			c2.6-4.1,6.2-7.3,10.8-9.6c4.6-2.3,9.9-3.4,15.8-3.4s11.2,0.9,15.9,2.6c4.7,1.8,8.3,4.2,10.8,7.4c2.6,3.2,3.8,6.8,3.8,10.9
			c0,2.7-0.9,4.7-2.6,6.2c-1.7,1.5-4.1,2.2-7.1,2.2c-1.7,0-3.4-0.2-5.1-0.7c0.2-1.4,0.3-3.1,0.3-5.1c0-3.2-1.5-5.8-4.5-7.8
			c-3-2-6.9-3-11.6-3c-4.7,0-8.5,1.3-11.4,4c-2.9,2.7-4.4,6.2-4.4,10.4v17c0,4.3,1.5,7.9,4.5,10.6c3,2.7,7,4.1,11.8,4.1
			c4.7,0,8.6-1,11.5-3c3-2,4.5-4.6,4.5-7.8c0-2.2-0.1-3.8-0.3-4.8c1.8-0.4,3.4-0.6,4.9-0.6c3,0,5.4,0.8,7.2,2.3
			c1.8,1.5,2.7,3.6,2.7,6.3c0,3.9-1.3,7.4-3.8,10.5c-2.6,3.1-6.2,5.5-10.8,7.2c-4.6,1.7-9.9,2.6-15.8,2.6
			C594.3,534.5,589,533.3,584.2,531z"/>
		<path class="st0" d="M640,473.6c0-3.5,1.3-6.2,3.8-8.1c2.5-1.9,6.2-2.8,10.9-2.8v31.4l32.5-31.4c1.9,1.4,3.4,2.9,4.5,4.5
			c1.1,1.6,1.7,3,1.7,4.2c0,1.1-0.4,2.2-1.1,3.1c-0.7,0.9-1.9,2.2-3.5,3.7l-18.9,17.8l26.6,33.7c-2.3,3.1-5.2,4.7-8.9,4.7
			c-3.5,0-6.2-1.3-8.2-3.9L660,505.3l-5.3,5.2v13.9c0,3.5-1.2,6.1-3.6,7.7c-2.4,1.6-6.1,2.4-11.1,2.4V473.6z"/>
	</g>
	<path class="st0" d="M420.4,60.8L185.8,406.5c-0.6,0.9-1.3,2.1-2.2,4.2c-1.7,4.2-2.6,9.9-2.6,16.9h11.5h86.8h389.9L420.4,60.8z
		 M394.8,399.9H263.2h-34.4l153-215.7l83,117l26.7-39.4c0,0,6.2-13.6,15.3-7.9l17.1,24.4l86.3,121.7h-75.3H394.8z"/>
</g>
</svg>
