<svg enable-background="new 0 0 84 84" viewBox="0 0 84 84" xmlns="http://www.w3.org/2000/svg"><path d="m0 0h84v84h-84z" fill="none"/><g fill="#fff"><path d="m17.9 32.2h-4.8v-4.9h5.1c1.9 0 2.8.8 2.8 2.4.1 1.9-1.4 2.5-3.1 2.5m-4.8-13.9h4.3c1.7 0 2.8.5 2.8 1.8 0 1.7-1.1 2.2-2.8 2.2h-4.3zm54.3-6.3-3.8 15.5h-.1l-3.7-15.5h-31.1v15.5c-.8-2-2.4-3.1-4.1-3.7 2-1.1 3.3-2.5 3.3-5.2s-1.5-6.6-8.4-6.6h-14.5v26.4h15c3.8 0 7.4-1.8 8.7-5.3v5.3h8.1v-10.1h7.4v-6.1h-7.4v-4h11.4v20.1h7.7v-16.8h.1l4.6 16.9h6.1l4.6-16.9h.1v16.9h7.6v-26.4z"/><path d="m57.3 41.4-4.9 18.6h-.1l-5-18.6h-31.2v7.8h7.7v22.7h9.4v-22.7h6.9l6.8 22.7h10.6l9.5-30.5z"/><path d="m65.6 63h8.9v8.9h-8.9z"/></g></svg>
