<svg enable-background="new 0 0 84 84" viewBox="0 0 84 84" xmlns="http://www.w3.org/2000/svg"><path d="m0 0h84v84h-84z" fill="none"/><path d="m17.8 36.3h-4.8v-4.9h5.1c1.9 0 2.9.8 2.9 2.4 0 2-1.5 2.5-3.2 2.5m-4.8-13.8h4.3c1.7 0 2.8.5 2.8 1.8 0 1.7-1.1 2.2-2.8 2.2h-4.3zm54.3-6.3-3.8 15.5h-.1l-3.7-15.5h-31.1v15.5c-.8-2-2.4-3.1-4.1-3.7 2-1.1 3.3-2.5 3.3-5.2s-1.5-6.6-8.4-6.6h-14.5v26.4h15c3.8 0 7.4-1.8 8.7-5.3v5.3h8.1v-10.1h7.4v-6.1h-7.4v-4h11.4v20.1h7.7v-16.8h.1l4.6 16.9h6.1l4.6-16.9h.1v16.9h7.7v-26.4z" fill="#fff"/><path d="m4.9 45.7h4.1c1 0 2 .1 2.8.4s1.5.8 2 1.5.8 1.6.8 2.7c0 .9-.2 1.6-.5 2.2s-.8 1.1-1.4 1.4v.1c.3.2.6.4.9.7s.5.6.7 1 .4.8.5 1.2c.1.5.2.9.2 1.5 0 1.5-.4 2.7-1.3 3.5-.9.9-2.2 1.3-3.9 1.3h-4.9zm3.6 3.4v3.6h.9c.5 0 1-.2 1.2-.5.3-.3.4-.8.4-1.4s-.2-1.1-.5-1.3c-.4-.3-.8-.4-1.3-.4zm0 7v3.7h.9c1.4 0 2-.6 2-1.8 0-.8-.2-1.3-.5-1.5-.4-.3-.9-.4-1.5-.4zm18.3-10.4h-3.4v9.6c0 1.4-.2 2.5-.5 3.3s-1 1.1-2 1.1c-.5 0-1-.2-1.3-.5s-.5-.7-.7-1.2c-.1-.5-.2-1.1-.2-1.8v-10.5h-3.4v11.8c0 1.4.2 2.6.7 3.5.4.9 1.1 1.6 1.9 2.1.8.4 1.8.7 2.8.7 1.2 0 2.2-.3 3.1-.8s1.6-1.3 2.1-2.3.8-2.1.8-3.5v-11.5zm9.2 1.6c-.5-.6-1.1-1.1-1.8-1.5-.7-.3-1.4-.5-2.1-.5-.8 0-1.5.2-2.2.6s-1.2 1.1-1.7 1.9c-.4.8-.6 1.8-.6 2.9 0 1.4.2 2.5.7 3.3.5.7 1.1 1.3 1.8 1.6l.5.3.5.3c.4.2.7.4 1 .5.6.4 1 .8 1 1.4 0 .5-.2.9-.5 1.2s-.7.4-1.1.4c-1 0-1.7-.5-2.3-1.4l-1.8 3.3c.6.7 1.2 1.2 2 1.6.7.3 1.5.5 2.3.5 1.4 0 2.5-.5 3.4-1.5s1.3-2.5 1.3-4.3c0-1.5-.2-2.6-.7-3.3s-1.1-1.3-1.8-1.6-1.3-.7-2-1c-.6-.3-1-.8-1-1.4 0-.4.1-.8.4-1 .3-.3.6-.4.9-.4.4 0 .8.1 1.1.3s.7.5 1.1 1zm.8 15.9h3.4v-17.9l-3.4 1.9zm15.6-17.5h-3.4v8.1l-7.8-8.4v17.8h3.4v-8.3l7.8 8.4zm7.8 13.8h-3.5v-3.4h3.5v-3.7h-3.5v-3h4.2v-3.7h-7.6v17.5h6.9zm9.5-12.2c-.5-.6-1.1-1.1-1.8-1.5-.7-.3-1.4-.5-2.1-.5-.8 0-1.5.2-2.2.6s-1.2 1.1-1.7 1.9c-.4.8-.6 1.8-.6 2.9 0 1.4.2 2.5.7 3.3.5.7 1.1 1.3 1.8 1.6l.5.3.5.3c.4.2.7.4 1 .5.6.4 1 .8 1 1.4 0 .5-.2.9-.5 1.2-.4.3-.7.4-1.1.4-1 0-1.7-.5-2.3-1.4l-1.8 3.3c.6.7 1.2 1.2 2 1.6.7.3 1.5.5 2.3.5 1.4 0 2.5-.5 3.4-1.5s1.3-2.5 1.3-4.3c0-1.5-.2-2.6-.7-3.3s-1.1-1.3-1.8-1.6-1.3-.7-2-1c-.6-.3-1-.8-1-1.4 0-.4.1-.8.4-1 .3-.3.6-.4.9-.4.4 0 .8.1 1.1.3s.7.5 1.1 1zm8.9 0c-.5-.6-1.1-1.1-1.8-1.5-.7-.3-1.4-.5-2.1-.5-.8 0-1.5.2-2.2.6s-1.2 1.1-1.7 1.9c-.4.8-.6 1.8-.6 2.9 0 1.4.2 2.5.7 3.3.5.7 1.1 1.3 1.8 1.6l.5.3.5.3c.4.2.7.4 1 .5.6.4 1 .8 1 1.4 0 .5-.2.9-.5 1.2s-.7.4-1.1.4c-1 0-1.7-.5-2.3-1.4l-1.8 3.3c.6.7 1.2 1.2 2 1.6.7.3 1.5.5 2.3.5 1.4 0 2.5-.5 3.4-1.5s1.3-2.5 1.3-4.3c0-1.5-.3-2.6-.7-3.3-.5-.7-1.1-1.3-1.8-1.6s-1.3-.7-2-1c-.6-.3-1-.8-1-1.4 0-.4.1-.8.4-1 .3-.3.6-.4.9-.4.4 0 .8.1 1.1.3s.7.5 1.1 1z" fill="#fff"/><path d="m69.3 63.1-10.2 8.3-9.9-6.4-11.4 7.7-9.5-3.8-24.3 15v.1h6.2l18.6-10.9 9.4 3.9 11-7.5 10 6.5 13.4-11.1c-2.1-.6-2.4-.9-3.3-1.8z" fill="#ed9205"/></svg>