<svg height="245.396574" viewBox="0 0 728.57129 438.8403" width="407.503651" xmlns="http://www.w3.org/2000/svg"><g fill="#666" stroke-width="3.496111" transform="scale(.99949736 1.0005029)"><path d="m.35059211 436.6395h25.60627789v-57.90433h.273134l39.604377 57.90433h25.879412v-103.51765h-25.606278v58.0409h-.273134l-37.897292-58.0409h-27.58649689z"/><path d="m110.96972 436.6395h76.20428v-22.53353h-48.20808v-19.11935h32.70775v-21.85069h-32.70775v-16.79772h45.88645v-23.21636h-73.88265z"/><path d="m223.63735 436.6395h27.9962v-80.30129h29.77157v-23.21636h-87.53933v23.21636h29.77156z"/><path d="m313.29345 436.6395h23.76263l15.70518-64.73268h.27314l14.13466 64.73268h23.35293l26.83538-103.51765h-25.60628l-8.26229 41.31146c-.4097 2.0485-.8194 3.75559-1.16082 5.25782-.34142 1.50224-.68284 3.00447-.95597 4.43842-.34142 1.50224-.61455 3.07276-.88768 4.77984-.27314 1.77537-.61455 3.89216-.88769 6.35036h-.27313c-.4097-2.4582-.8194-4.64327-1.16082-6.41864s-.68283-3.41417-1.02425-4.98469c-.4097-1.50223-.75112-3.00447-1.16082-4.5067-.4097-1.50224-.8194-3.20932-1.29738-5.18954l-9.21826-41.03833h-25.33315l-8.53542 40.83348c-.40971 1.70708-.75112 3.34588-1.09254 4.9164-.4097 1.57052-.75112 3.14104-1.09253 4.77984-.4097 1.70709-.75112 3.48245-1.02425 5.32611-.34142 1.91193-.68284 3.96043-.95597 6.28207h-.27314c-.4097-2.32164-.75111-4.43842-1.09253-6.35036-.34142-1.91193-.68283-3.6873-1.02425-5.39439-.4097-1.6388-.8194-3.2776-1.2291-4.84812-.4097-1.50223-.75112-3.14104-1.16082-4.84812l-8.80856-40.69691h-28.06448z"/><path d="m470.82329 438.61971c4.097 0 8.26229-.4097 12.35929-1.36566 4.09701-.88769 8.05745-2.25336 11.81303-4.09701 3.82387-1.91193 7.30633-4.30185 10.51565-7.16976 3.2776-2.8679 6.07722-6.35035 8.39886-10.31079 2.38992-3.96044 4.23357-8.53543 5.59924-13.5884 1.36566-5.12125 2.0485-10.85706 2.0485-17.13913 0-6.35036-.68284-12.08617-2.0485-17.20742-1.36567-5.05298-3.20932-9.62796-5.59924-13.65669-2.32164-3.96043-5.12126-7.3746-8.39886-10.24251-3.20932-2.8679-6.69178-5.25782-10.51565-7.16975-3.75558-1.84366-7.71602-3.20932-11.81303-4.09701-4.097-.88768-8.26229-1.36567-12.35929-1.36567-4.23358 0-8.39886.47799-12.49587 1.36567-4.097.88769-8.05744 2.25335-11.81303 4.09701-3.82387 1.91193-7.30632 4.30185-10.51564 7.16975-3.27761 2.86791-6.07723 6.28208-8.39886 10.24251-2.38992 4.02873-4.23357 8.60371-5.59924 13.65669-1.36567 5.12125-2.0485 10.85706-2.0485 17.20742 0 6.28207.68283 12.01788 2.0485 17.13913 1.36567 5.05297 3.20932 9.62796 5.59924 13.5884 2.32163 3.96044 5.12125 7.44289 8.39886 10.31079 3.20932 2.86791 6.69177 5.25783 10.51564 7.16976 3.75559 1.84365 7.71603 3.20932 11.81303 4.09701 4.09701.95596 8.26229 1.36566 12.49587 1.36566zm0-22.39695c-3.68731 0-6.96491-.68284-9.83281-2.18507-2.86791-1.50224-5.18954-3.61902-7.10148-6.35036-1.98022-2.73134-3.48245-6.00894-4.5067-9.83281-1.02426-3.82387-1.50224-8.19401-1.50224-12.97385 0-4.71155.47798-8.94512 1.50224-12.70071 1.02425-3.82387 2.52648-7.03319 4.5067-9.62796 1.91194-2.66306 4.23357-4.71156 7.10148-6.14551 2.8679-1.36567 6.1455-2.11679 9.83281-2.11679 3.61902 0 6.82834.75112 9.62796 2.11679 2.8679 1.43395 5.25782 3.48245 7.16975 6.14551 1.98022 2.59477 3.48246 5.80409 4.50671 9.62796.95597 3.75559 1.50223 7.98916 1.50223 12.70071 0 4.77984-.54626 9.14998-1.50223 12.97385-1.02425 3.82387-2.52649 7.10147-4.50671 9.83281-1.91193 2.73134-4.30185 4.84812-7.16975 6.35036-2.79962 1.50223-6.00894 2.18507-9.62796 2.18507z"/><path d="m535.96564 436.6395h27.44993v-35.91708h7.64775l20.00703 35.91708h29.635l-21.91897-39.60438c6.76006-2.25335 11.88131-5.80409 15.29548-10.65221 3.41417-4.84813 5.12126-11.33505 5.12126-19.52906 0-6.1455-1.02425-11.40333-3.00447-15.70518-1.98022-4.30186-4.77984-7.78431-8.46714-10.51565-3.68731-2.59477-8.19401-4.5067-13.45184-5.7358-5.3261-1.16082-11.26676-1.77537-17.89025-1.77537h-40.42378zm27.44993-57.2215v-23.62606h12.01788c5.73581 0 9.9011.88768 12.56415 2.66305 2.59477 1.77537 3.96044 4.77984 3.96044 9.0817 0 4.37013-1.36567 7.44289-3.96044 9.21826-2.66305 1.77536-6.82834 2.66305-12.56415 2.66305z"/><path d="m636.47883 436.6395h27.99619v-32.16149l7.98916-9.21826 24.44546 41.37975h31.61522l-37.89729-62.68417 34.82454-40.83348h-32.43462l-28.54247 37.48759v-37.48759h-27.99619z"/></g><g transform="matrix(.67648216 0 0 .67648216 0 .12778)"><path d="m427.9 103.4h47.2v202.9h-47.2v103h229.7v-103h-49.5v-305.8h-180.2z" fill="#0082ca"/><path d="m336.9 200.4c79.2-42.1 61.8-107.8 61.8-107.8-12.9-88.7-93.8-92.1-93.8-92.1h-304.9v102.8h47.7v203.3h-47.7v102.8h324c90.4-13.5 90.4-102.2 90.4-102.2 0-92.2-77.5-106.8-77.5-106.8zm-156.1-96.6s62.9-.4 73.4-.4 7.7 7.7 7.7 7.7v46.3c0 4.2-5.9 5.9-5.9 5.9h-75.2zm85.4 194.3c0 7.9-7.9 7.9-7.9 7.9h-77.5v-69.1h76.4s9-.6 9 10.1z"/><path d="m909.7 168.4h167.3v148.2c0 10.4-3.9 21.7-7.9 31.1-9.5 22.4-26.6 40.5-48.5 51.2-13.4 6.6-26 10.3-40.9 10.3-7.6 0-15.1 0-22.7 0-22.9 0-45.8 0-68.8 0-24.5 0-48.9 0-73.4 0-15.4 0-30.8 0-46.2 0-1.3 0-2.6 0-3.9 0-8.2 0-16.2-1.7-23.9-4.4-19.4-7-35.4-21-47-37.9-5.8-8.5-10.6-17.6-14.5-27.1-5.7-13.8-10.7-26.8-10.7-41.9 0-7.3 0-14.6 0-21.9 0-22.8 0-45.5 0-68.3 0-23.8 0-47.7 0-71.5 0-13.1 0-26.3 0-39.4 0-.3 0-.6 0-1 0 0 3.4-94.3 95.5-95.5 92.1-1.1 222.4 0 222.4 0s79.7 0 90.4 93.2v45.5h-133v-23s.6-14.3-14.3-14.3h-112.6s-15.3 3.4-15.3 15.3v173.7s1.3 15.2 12.5 15.2h116.8s12.4 1.1 12.4-12.4v-52.8h-33.7z" fill="#0082ca"/></g></svg>