<?xml version="1.0" encoding="UTF-8"?>
<!-- Generator: Adobe Illustrator 27.0.0, SVG Export Plug-In . SVG Version: 6.00 Build 0)  -->
<svg xmlns="http://www.w3.org/2000/svg" xmlns:xlink="http://www.w3.org/1999/xlink" version="1.1" id="Layer_1" x="0px" y="0px" viewBox="0 0 1106.2 398.7" style="enable-background:new 0 0 1106.2 398.7;" xml:space="preserve">
<style type="text/css">
	.st0{fill:#2eff05;}
</style>
<g>
	<path class="st0" d="M151.7,168.4c-2.7-2.2-6.7-3.3-11.9-3.3h-22.4c-0.7,0-1.1,0.4-1.1,1.1l-3.7,28.7c0,0.7,0.4,1.1,1.1,1.1H136   c6.1-0.1,11-1.7,14.5-4.9c3.5-3.2,5.3-7.5,5.3-13.1C155.8,173.8,154.4,170.6,151.7,168.4z"></path>
	<path class="st0" d="M145.6,106.4h-20.7c-1,0-1.4,0.4-1.4,1.1l-3.2,27.2c-0.3,0.7,0,1.1,0.9,1.1h20.7c5.7,0,10.3-1.3,13.6-3.8   c3.3-2.5,5.3-6.1,6-10.7c0.6-4.7-0.5-8.4-3.2-11C155.6,107.7,151.3,106.4,145.6,106.4z"></path>
	<path class="st0" d="M208.6,153c6.2-2.2,11.9-5.3,17.1-9.2c4.6-3.2,8.4-7,11.4-11.2c8.8-11,14.2-25,14.2-40.3v-4.1   c0-35.6-28.9-64.5-64.5-64.5h-50c-0.1,0-0.1,0-0.2,0H58.1c-1.4,0-2.7,0.4-3.9,1.3s-1.7,1.9-1.7,3.1L22.1,274.3   c-0.3,1.2,0,2.3,0.9,3.1c0.9,0.9,2,1.3,3.5,1.3h94.2c1.1,0,2.1,0,3.2,0c0.4,0,0.8,0,1.2,0h50c35.6,0,64.5-28.9,64.5-64.5v-4.1   c0-23.5-12.5-44-31.2-55.3C207.7,154.4,207.8,153.3,208.6,153z M195.7,117.8c-1.9,14.2-8.7,24.4-20.5,30.4   c-0.9,0.4-0.9,0.9-0.2,1.3c10.2,5.9,15.3,15.2,15.3,27.8c0,1.3-0.1,3.5-0.4,6.7c-1.9,14.4-8.1,25.1-18.5,32.1   c-10.5,7-23.5,10.6-39,10.6H76.7c-0.7,0-1.3-0.2-1.7-0.8c-0.4-0.5-0.6-1.1-0.4-1.8L92.4,78.4c0-0.7,0.3-1.3,0.9-1.8   c0.6-0.5,1.2-0.8,1.9-0.8h53.9c15.4,0,27.1,2.7,35,8.2c8,5.5,12,14.2,12,26.3C196.1,111.9,196,114.4,195.7,117.8z"></path>
</g>
<path class="st0" d="M358.3,23.6h-76.4c-1.5,0-2.8,0.5-3.9,1.5c-1.1,1-1.7,2.3-1.7,3.7l-30.1,244.8c-0.3,1.5,0,2.7,0.9,3.7  c0.9,1,2,1.5,3.4,1.5h76.1c5.6,0.1,6.4-5.2,6.4-5.2l30.1-244.7c0-0.1,0-0.1,0-0.2C363,25.3,361.4,23.6,358.3,23.6z M330,80.2  c-4.8,4.9-10.5,7.4-17.1,7.4c-5.7,0-10.4-1.8-13.8-5.4c-3.5-3.6-5.2-8.1-5.2-13.7c0-7.3,2.4-13.3,7.1-18s10.5-7.1,17.2-7.1  c5.7,0,10.4,1.7,13.8,5.1c3.5,3.4,5.2,8,5.2,13.7C337.2,69.3,334.8,75.3,330,80.2z"></path>
<path class="st0" d="M867.4,28.6c-1-1.2-2.3-1.8-4-1.8h-69.1c-1.7,0-3.1,0.6-4.3,1.8c-1.2,1.2-1.9,2.6-2.3,4.3l-1.5,11  c0,1-0.3,1.6-1,1.8c-0.7,0.1-1.3-0.1-2-0.8c-10.4-14.6-27.4-22-51.1-22c-21.8,0-41.5,6.1-59.4,18.5c-17.8,12.4-31.8,28.9-41.8,49.6  c-8.3,17.3-14,38.4-17,63.1c-1.3,12.7-2,23.1-2,31.1c0,11.1,0.8,20.4,2.5,28.1c4.7,24.4,15.4,41.4,32.1,51.1  c16.7,9.7,35.7,14.5,57.1,14.5c22,0,39.6-6,52.6-18l4-3.5c-2.3,18.7-9.3,32.4-21,41.1c-11.7,8.7-26.7,13-45.1,13  c-11.7,0-23.9-1.5-36.6-4.5c-4.7-1-7.2,0.7-7.5,5l-10,62.1c-0.3,4,1,6.2,4,6.5c15.4,2.7,30.6,4,45.6,4c39.4,0,73-9.9,100.9-29.6  c27.8-19.7,44.6-52.4,50.3-98.2l27.6-223.9C868.7,31.2,868.4,29.8,867.4,28.6z M777.1,124.9l-0.2,1.1c-0.1,0.7-0.5,1.3-1,1.8  s-1.1,0.7-1.8,0.7h-29.3c-0.7,0-1.3-0.2-1.7-0.7s-0.6-1.1-0.4-1.8c0.1-0.6,0.2-1.4,0.2-2.5c0-5-1.6-9.1-4.9-12.4  c-3.3-3.3-7.9-5-13.8-5c-6.2,0-11.5,2.1-15.9,6.4c-4.4,4.2-7,9.8-7.9,16.6l-5.7,45.6c-0.1,0.7-0.2,1.8-0.2,3.4  c0,5.8,1.9,10.5,5.6,14.1c3.7,3.6,8.5,5.4,14.3,5.4c6.1,0,11.2-1.7,15.3-5s6.5-8,7.2-13.9l0.6-5.9c0.3-0.7,0-1.1-0.8-1.1h-20.6  c-0.7,0-1.3-0.2-1.7-0.7s-0.6-1.1-0.4-1.8l2.8-23.3c0.1-0.7,0.5-1.3,1-1.8s1.1-0.7,1.8-0.7h52.8c0.7,0,1.3,0.2,1.7,0.7  s0.6,1.1,0.4,1.8l-3.6,28.9c-1.3,10.6-4.7,20-10.2,28c-5.5,8.1-12.7,14.3-21.6,18.7c-8.9,4.4-18.9,6.6-29.9,6.6  c-15-0.4-26.9-4.5-35.6-12.9c-8.8-8.3-13.2-19.5-13.2-33.5c0-3.7,0.1-6.4,0.4-8.3l5.3-43.5c1.3-10.8,4.7-20.2,10.3-28.3  c5.6-8.1,12.8-14.5,21.8-19c8.9-4.5,18.8-6.8,29.7-6.8c10,0,18.8,1.9,26.3,5.6c7.5,3.8,13.3,8.9,17.3,15.4s6,13.8,6,21.9  C777.5,120,777.4,122,777.1,124.9z"></path>
<path class="st0" d="M1087.4,109.9c-7.9-49.3-50.6-87-102.2-87c-53.9,0-98.1,41.2-103,93.8c-0.3,3.2-0.5,6.4-0.5,9.7  c0,12,2.1,23.6,5.8,34.3c0.8,2.3,1.7,4.6,2.7,6.9c0.7,1.7-0.2,3.6-1.9,4.1l-19.7,5.6c-2.7,0.8-4.6,3.4-4.4,6.2  c4.1,53.3,48.7,95.3,103.2,95.3c53.9,0,98.1-41.2,103-93.8c0.3-3.2,0.5-6.4,0.5-9.7c0-12.6-2.2-24.6-6.4-35.8  c-0.6-1.6,0.3-3.4,2-3.9l17.7-5.1c2.6-0.7,4.4-3.1,4.4-5.8C1088.7,120,1088,113.4,1087.4,109.9z M1033.1,122c-0.1,1.3-1,2.5-2.3,2.8  l-25.5,6.4l-3.5,0.9c-1.4,0.3-2.8-0.8-2.8-2.3c0,0,1.5-11.5-4.7-18.2c-3.4-3.7-8.5-5.5-15-5.7c-5.8,0.2-10.2,1.7-13.1,4.5  c-3.2,3.1-4.8,6.4-4.8,10.1c0,3.4,1.5,6.1,4.5,8c3,1.9,8.4,4.3,16.2,7.1l4.9,1.7c7.9,2.8,14.8,5.8,20.6,8.9  c5.8,3.1,10.8,7.3,15,12.7c4.2,5.3,6.3,11.9,6.3,19.7c0,1.1-0.1,3-0.4,5.5c-1.2,8.7-4.4,16.4-9.7,23c-5.3,6.6-12.1,11.7-20.5,15.2  s-17.6,5.3-27.7,5.3c-0.6,0-1.1,0-1.6,0c-9.2-0.2-17.3-1.9-24.5-5.1c-7.6-3.4-13.5-8.2-17.8-14.5c-4.3-6.3-6.4-13.6-6.4-21.8  c0-0.5,0.1-2.5,0.2-4.8c0.1-1.3,1-2.5,2.3-2.8l25.5-6.4l3.5-0.9c1.4-0.3,2.8,0.8,2.8,2.3c0,0-0.6,13.2,4.7,18.2  c3.7,3.5,8.5,5.5,15,5.7c5.8-0.2,10.2-1.7,13.1-4.5c3.2-3.1,4.8-6.4,4.8-10.1c0-3.4-1.5-6.1-4.5-8c-3-1.9-8.4-4.3-16.2-7.1l-4.9-1.7  c-7.9-2.8-14.8-5.8-20.6-8.9c-5.8-3.1-10.8-7.3-15-12.7c-4.2-5.3-6.3-11.9-6.3-19.7c0-1.1,0.1-3,0.4-5.5c1.2-8.7,4.4-16.4,9.7-23  c5.3-6.6,12.1-11.7,20.5-15.2s17.6-5.3,27.7-5.3c0.6,0,1.1,0,1.6,0c9.2,0.2,17.3,1.9,24.5,5.1c7.6,3.4,13.5,8.2,17.8,14.5  c4.2,6.3,6.3,13.6,6.4,21.8C1033.3,117.7,1033.2,119.7,1033.1,122z"></path>
<path class="st0" d="M614.5,28.6c-1-1.2-2.3-1.8-4-1.8h-69.1c-1.7,0-3.1,0.6-4.3,1.8c-1.1,1.2-1.9,2.6-2.2,4.3l-1.5,11  c0,1-0.3,1.6-1,1.8c-0.7,0.1-1.3-0.1-2-0.8c-10.4-14.6-27.4-22-51.1-22c-21.8,0-41.5,6.1-59.4,18.5c-17.8,12.4-31.8,28.9-41.8,49.6  c-8.3,17.3-14,38.4-17,63.1c-1.3,12.7-2,23.1-2,31.1c0,11.1,0.8,20.4,2.5,28.1c4.7,24.4,15.4,41.4,32.1,51.1  c16.7,9.7,35.7,14.5,57.1,14.5c22,0,39.6-6,52.6-18l4-3.5c-2.3,18.7-9.3,32.4-21,41.1s-26.7,13-45.1,13c-11.7,0-23.9-1.5-36.6-4.5  c-4.7-1-7.2,0.7-7.5,5l-10,62.1c-0.3,4,1,6.2,4,6.5c15.4,2.7,30.6,4,45.6,4c39.4,0,73-9.9,100.9-29.6c27.8-19.7,44.6-52.4,50.3-98.2  l27.5-223.9C615.8,31.2,615.5,29.8,614.5,28.6z M524.2,124.9L524,126c-0.1,0.7-0.5,1.3-1,1.8s-1.1,0.7-1.8,0.7H492  c-0.7,0-1.3-0.2-1.7-0.7c-0.4-0.5-0.6-1.1-0.4-1.8c0.1-0.6,0.2-1.4,0.2-2.5c0-5-1.6-9.1-4.9-12.4s-7.9-5-13.8-5  c-6.2,0-11.5,2.1-15.9,6.4c-4.4,4.2-7,9.8-7.9,16.6l-5.7,45.6c-0.1,0.7-0.2,1.8-0.2,3.4c0,5.8,1.9,10.5,5.6,14.1  c3.7,3.6,8.5,5.4,14.3,5.4c6.1,0,11.2-1.7,15.3-5s6.5-8,7.2-13.9l0.6-5.9c0.3-0.7,0-1.1-0.8-1.1h-20.6c-0.7,0-1.3-0.2-1.7-0.7  s-0.6-1.1-0.4-1.8l2.8-23.3c0.1-0.7,0.5-1.3,1-1.8s1.1-0.7,1.8-0.7h52.8c0.7,0,1.3,0.2,1.7,0.7s0.6,1.1,0.4,1.8l-3.6,28.9  c-1.3,10.6-4.7,20-10.2,28c-5.5,8.1-12.7,14.3-21.6,18.7c-8.9,4.4-18.9,6.6-29.9,6.6c-15-0.4-26.9-4.5-35.7-12.9  c-8.8-8.3-13.2-19.5-13.2-33.5c0-3.7,0.1-6.4,0.4-8.3l5.3-43.5c1.3-10.8,4.7-20.2,10.3-28.3c5.6-8.1,12.8-14.5,21.8-19  c8.9-4.5,18.8-6.8,29.7-6.8c10,0,18.8,1.9,26.3,5.6c7.5,3.8,13.3,8.9,17.3,15.4s6,13.8,6,21.9C524.6,120,524.5,122,524.2,124.9z"></path>
</svg>
