<?xml version="1.0" encoding="utf-8"?>
<svg version="1.1" xmlns="http://www.w3.org/2000/svg" x="0px" y="0px" width="50px" height="38.25px" viewBox="0 0 50 38.25" enable-background="new 0 0 50 38.25" xml:space="preserve">
<linearGradient id="SVGID_1_" gradientUnits="userSpaceOnUse" x1="5661.0117" y1="-3800.7261" x2="5511.7217" y2="-4392.6123" gradientTransform="matrix(0.0733 0 0 -0.0733 -386.9554 -275.7444)">
<stop offset="0" style="stop-color:#E2007C"/>
    <stop offset="0.1349" style="stop-color:#DE0076"/>
    <stop offset="0.4018" style="stop-color:#D10366"/>
    <stop offset="0.7717" style="stop-color:#BE1449"/>
    <stop offset="0.9839" style="stop-color:#B11937"/>
</linearGradient>
    <path fill="url(#SVGID_1_)" d="M29.643,25.485c0.529-1.247,3.105-9.42,5.668-11.996c2.657-2.67,4.104-1.599,4.104-1.599
s0.177-1.142-0.965-2.036c-1.469-1.164-3.338-0.517-4.738,0.8c-0.683,0.636-1.682,2.365-2.471,4.187
c-1.152,2.67-2.222,5.457-2.634,5.963c-0.504,0.646-1.646,0.822-1.116-0.917c0.553-1.812,0.999-2.412,1.258-3.165
c0.694-1.975,0.247-2.621,0.106-2.881c-0.261-0.48-0.73-0.728-1.224-0.858c-1.022-0.271-1.976,0.023-1.976,0.023
c0.399,1.082,0.894,1.694-0.376,5.316c-0.06,0.177-0.118,0.353-0.165,0.517c-0.235,0.624-0.917,1.918-1.411,2.422
c-0.576,0.59-1.246,1.143-1.904,1.366c-0.624,0.212-2.317,0.188-1.506-1.446c0.294-0.59,1.023-1.224,2.011-1.86
c1.729-1.093,2.34-2.527,2.223-3.633c-0.094-0.894-0.459-1.953-1.94-2.471c-1.117-0.387-2.705,0.047-3.363,0.766
C18.4,14.876,18.4,15.606,18.46,16.43c0,0,0.682-0.834,1.527-1.152c0.377-0.141,0.789-0.153,1.118-0.047
c0.564,0.175,0.765,0.811,0.399,1.398c-0.917,1.423-2.587,2.106-3.305,2.776c-0.364,0.341-0.67,0.671-0.894,1
c-0.987,1.235-1.517,2.2-2.364,2.646c-0.6,0.317-1.034,0.2-1.046-0.342c0-0.493,0.482-1.716,1.058-2.845
c0.376-0.717,1.411-2.388,1.775-3.046c0.458-0.836,0.776-1.848,0.012-2.505c-1.493-1.259-3.116-0.224-3.116-0.224
c0.105,1.012-0.436,2.188-1.411,4.117c-1,1.976-2.164,5.575,0.188,6.279c0.953,0.283,1.987,0.141,2.787-0.375
c0.541-0.353,1.188-1.07,1.776-1.799c0.164,0.67,0.646,1.305,1.646,1.645c3.151,0.472,5.28-1.129,6.268-2.609
c0.471,2.364,3.34,2.047,3.34,2.047s-0.259,1.011-0.611,1.54c-5.645-1.271-15.464-0.036-20.333,3.457
c-1,0.718-1.788,1.518-2.293,2.423c-0.152,0.271-0.858,1.329-0.741,2.798c0.118,1.53,1.082,2.553,1.528,2.904
c2.188,1.729,6.739,2.2,10.854,1.26c7.197-1.635,10.878-7.903,11.573-9.009c7.585,3.116,3.844,8.538,3.185,9.079
c1.588,0.423,6.022-1.307,5.682-5.539C36.722,28.049,31.054,25.838,29.643,25.485z M23.928,31.306
c-0.823,0.965-2.364,2.469-6.044,3.986c-1.4,0.576-2.858,0.988-4.623,1.012c-1.211,0.023-3.011,0.224-5.562-0.999
c-0.553-0.271-1.082-0.717-1.293-1.507c-0.259-0.939,0.611-2.245,3.222-3.82c3.234-1.952,6.245-2.352,8.75-2.611
c4.774-0.506,7.998,0.612,7.998,0.612C25.444,29.66,24.681,30.437,23.928,31.306z"/>
    <linearGradient id="SVGID_2_" gradientUnits="userSpaceOnUse" x1="5932.0713" y1="-3869.0972" x2="5782.7813"
                    y2="-4460.9844" gradientTransform="matrix(0.0733 0 0 -0.0733 -386.9554 -275.7444)">
<stop offset="0" style="stop-color:#E2007C"/>
        <stop offset="0.1349" style="stop-color:#DE0076"/>
        <stop offset="0.4018" style="stop-color:#D10366"/>
        <stop offset="0.7717" style="stop-color:#BE1449"/>
        <stop offset="0.9839" style="stop-color:#B11937"/>
</linearGradient>
    <path fill="url(#SVGID_2_)" d="M48.493,12.185c-1.493-1.259-3.115-0.224-3.115-0.224c0.106,1.011-0.436,2.188-1.413,4.115
c-0.704,1.389-1.492,3.682-1.093,5.106c0.459,1.61,2.565,1.34,3,1.258c1.069-0.2,1.435-0.93,1.362-1.564
c-0.691,0.564-1.08,0.564-1.315,0.34c-0.141-0.128-0.529-0.492-0.106-1.551c0.223-0.564,0.553-1.283,0.882-1.93
c0.378-0.717,1.411-2.386,1.775-3.045C48.952,13.854,49.271,12.832,48.493,12.185z"/>
    <linearGradient id="SVGID_3_" gradientUnits="userSpaceOnUse" x1="5444.2568" y1="-3746.0571" x2="5294.9692"
                    y2="-4337.9351" gradientTransform="matrix(0.0733 0 0 -0.0733 -386.9554 -275.7444)">
<stop offset="0" style="stop-color:#E2007C"/>
        <stop offset="0.1349" style="stop-color:#DE0076"/>
        <stop offset="0.4018" style="stop-color:#D10366"/>
        <stop offset="0.7717" style="stop-color:#BE1449"/>
        <stop offset="0.9839" style="stop-color:#B11937"/>
</linearGradient>
    <path fill="url(#SVGID_3_)" d="M11.227,18.193c0.365-1.34,0.541-2.717,0.482-3.963c-0.059-1.117-0.306-1.763-0.682-2.422
c-0.482-0.835-1.035-1.458-2.423-1.964C5.441,8.668,4.053,8.833,2.889,8.28C1.713,7.716,1.937,6.715,2.678,6.41
c0.646-0.258,1.47-0.201,1.893-0.141c0.929,0.118,2.105,0.376,3.34,0.8c1.376,0.48,2.752,1.01,5.174,1.692
c4.857,1.364,10.619-2.563,7.162-6.938c-0.611,1.199-4.316,4.621-11.913,2.363C4.313,3,0.984,4.246,0.197,5.881
c-0.4,0.834-0.271,2.411,1.152,3.47c0.705,0.528,1.705,0.728,2.704,1.057c0.471,0.153,1.882,0.495,2.458,0.659
c0.729,0.2,1.54,0.517,2.199,1.082c0.682,0.6,0.999,1.199,1.141,1.705c0.152,0.529,0.211,1.858,0.2,2.198
c-0.106,2.659-1.917,5.258-3.94,6.362c-1.234,0.672-1.552-0.258-1.293-1.516c0.306-1.483,1.094-3.211,1.893-3.905
c1.494-1.305,2.152,0.188,2.152,0.188c0.541-0.152,1.059-3.009-2.082-2.222c-3.657,0.917-8.056,8.868-3.434,10.443
C6.875,26.591,10.04,22.545,11.227,18.193z"/>
    <linearGradient id="SVGID_4_" gradientUnits="userSpaceOnUse" x1="5768.3799" y1="-3827.8169" x2="5619.0815"
                    y2="-4419.7354" gradientTransform="matrix(0.0733 0 0 -0.0733 -386.9554 -275.7444)">
<stop offset="0" style="stop-color:#E2007C"/>
        <stop offset="0.1349" style="stop-color:#DE0076"/>
        <stop offset="0.4018" style="stop-color:#D10366"/>
        <stop offset="0.7717" style="stop-color:#BE1449"/>
        <stop offset="0.9839" style="stop-color:#B11937"/>
</linearGradient>
    <path fill="url(#SVGID_4_)" d="M43.931,9.327c-0.223-1.177-0.704-2.542-1.399-3.67c0.742-0.341,1.506-0.576,2.775-0.623
c1.859-0.082,3.175,1.118,3.175,1.118s2.129-1.247,0.294-3.411c-1.964-2.083-5.632-0.612-8.136,0.681
c-2.766-2.728-6.975-4.35-11.844-2.845c-2.223,0.681-4.539,1.893-5.715,3.893c-0.4,0.681-0.67,1.716-0.494,2.892
c0.389,2.493,3.327,3.212,6.114,2.999c0.777-0.058,2.764-0.494,4.811-1.258c2.576-0.964,5.34-2.328,6.809-2.729
c1.246,1.105,2.164,3.141,2.022,5.234c-0.234,3.516-3.197,6.868-3.61,7.385c-0.397,0.505-0.939,0.917-1.022,0.964
c-1.658,1.036-1.129-3.363,0.587-5.081c1.353-1.34,2.354-0.353,2.354-0.353c0.717-0.905,0.234-2.821-3.082-1.34
c-2.305,1.035-3.903,3.846-4.163,6.115c-0.234,2.059,0.294,3.846,1.682,4.118c2.623,0.563,5.421-2.988,6.375-4.553
C42.849,16.628,44.778,13.748,43.931,9.327z M27.468,7.974c-1.225-1.282-0.235-2.894,0.636-3.48
c1.152-0.777,2.738-1.176,3.609-1.259c2.117-0.2,5.081,0.306,6.644,1.554C36.052,6.152,29.385,9.961,27.468,7.974z"/>
    <linearGradient id="SVGID_5_" gradientUnits="userSpaceOnUse" x1="5537.1533" y1="-3769.4766" x2="5387.8638"
                    y2="-4361.3599" gradientTransform="matrix(0.0733 0 0 -0.0733 -386.9554 -275.7444)">
<stop offset="0" style="stop-color:#E2007C"/>
        <stop offset="0.1349" style="stop-color:#DE0076"/>
        <stop offset="0.4018" style="stop-color:#D10366"/>
        <stop offset="0.7717" style="stop-color:#BE1449"/>
        <stop offset="0.9839" style="stop-color:#B11937"/>
</linearGradient>
    <circle fill="url(#SVGID_5_)" cx="16.425" cy="11.548" r="1.764"/>
    <linearGradient id="SVGID_6_" gradientUnits="userSpaceOnUse" x1="5938.0898" y1="-3870.6172" x2="5788.8018"
                    y2="-4462.4956" gradientTransform="matrix(0.0733 0 0 -0.0733 -386.9554 -275.7444)">
<stop offset="0" style="stop-color:#E2007C"/>
        <stop offset="0.1349" style="stop-color:#DE0076"/>
        <stop offset="0.4018" style="stop-color:#D10366"/>
        <stop offset="0.7717" style="stop-color:#BE1449"/>
        <stop offset="0.9839" style="stop-color:#B11937"/>
</linearGradient>
    <circle fill="url(#SVGID_6_)" cx="48.235" cy="9.433" r="1.764"/>
</svg>
