<?xml version="1.0" encoding="utf-8"?>
<!-- Generator: Adobe Illustrator 21.0.2, SVG Export Plug-In . SVG Version: 6.00 Build 0)  -->
<svg version="1.1" id="Layer_1" xmlns="http://www.w3.org/2000/svg" xmlns:xlink="http://www.w3.org/1999/xlink" x="0px" y="0px"
	 viewBox="0 0 556.4 296.4" style="enable-background:new 0 0 556.4 296.4;" xml:space="preserve">
<style type="text/css">
	.st0{fill:#F15D2A;}
	.st1{fill:none;}
</style>
<g>
</g>
<g>
</g>
<g>
</g>
<g>
</g>
<g>
</g>
<g>
	<g>
		<g>
			<path class="st0" d="M321.4,32.9L341.1,0H0v263.3h168.9l-19.2,32.9h406.8V32.9H321.4z M541,280.8H176.6l18.7-32.9H15.4V15.4
				h298.5l-19.8,32.9H541V280.8z"/>
		</g>
		<rect x="-64.2" y="-64.2" class="st1" width="684.8" height="424.6"/>
	</g>
	<path class="st0" d="M498,110.5l7.5-31h-80.8L399,185.6h-42.2l63.8-106.2h-85.5l-7.5,31h38.1l-58.6,97.6l6.2-128.6h-36.7l-62,106.2
		h-36.3l25.6-106.2H172l-23.3,95.6c3.7-21.1-8.1-26.6-17.1-29.4h0c15.1-3.5,27.2-16.8,28.6-32.6c1.6-18.5-12.1-33.6-30.6-33.6
		l-50.6,0L45.8,216.7l51.7,0c13.2-0.1,40.6-6.1,49.4-34.3l-8,34.3h91.1l13-22.7h34.2l-1.5,22.7h202.2l7.5-31.1l-54.4,0l5.9-24.6
		h32.6l7.5-31h-32.6l4.7-19.5H498z M117.1,171.5c-2.9,11.9-16,14-18.5,14l-13.1,0l6.5-27h11.5C107.4,158.4,120,159.6,117.1,171.5z
		 M129.4,117.9c-1.9,6.7-8.2,12.1-14.2,12.1H98.9l5.8-24.2h17.3C128,105.8,131.3,111.2,129.4,117.9z M279.2,162.9h-18.5l20.9-36.6
		L279.2,162.9z"/>
</g>
</svg>
