<?xml version="1.0" encoding="UTF-8" standalone="no"?>
<!-- Created with Inkscape (http://www.inkscape.org/) -->
<svg version="1.1" id="svg2" width="1467.16" height="678.93866" viewBox="0 0 1467.16 678.93866" xmlns="http://www.w3.org/2000/svg" xmlns:svg="http://www.w3.org/2000/svg">
  <defs id="defs6">
    <clipPath clipPathUnits="userSpaceOnUse" id="clipPath20">
      <path d="M 0,509.204 H 1100.367 V 0 H 0 Z" id="path18"/>
    </clipPath>
  </defs>
  <g id="g10" transform="matrix(1.3333333,0,0,-1.3333333,0,678.93867)">
    <path d="m 843.472,126.964 h -20 v 252.177 h 20 z" style="fill:#000000;fill-opacity:1;fill-rule:nonzero;stroke:none" id="path12"/>
    <g id="g14">
      <g id="g16" clip-path="url(#clipPath20)">
        <g id="g22" transform="translate(649.1706,445.5171)">
          <path d="m 0,0 v 63.687 h -585.503 c -38.228,0 -63.668,-25.46 -63.668,-63.687 v -343.662 c 0,-38.244 25.44,-63.647 63.668,-63.647 h 50.899 v 25.403 h 203.673 c 38.199,0 63.639,25.494 63.639,63.723 V -63.59 c 0,38.167 25.45,63.59 63.628,63.59 z" style="fill:#e20613;fill-opacity:1;fill-rule:evenodd;stroke:none" id="path24"/>
        </g>
        <g id="g26" transform="translate(114.567,63.6112)">
          <path d="m 0,0 v -63.611 h 585.516 c 38.226,0 63.665,25.475 63.665,63.611 v 343.719 c 0,38.187 -25.439,63.607 -63.665,63.607 h -50.912 v -25.42 H 330.94 c -38.178,0 -63.628,-25.423 -63.628,-63.59 V 63.723 C 267.312,25.494 241.871,0 203.673,0 Z" style="fill:#302c85;fill-opacity:1;fill-rule:evenodd;stroke:none" id="path28"/>
        </g>
        <g id="g30" transform="translate(671.5856,362.9021)">
          <path d="m 0,0 h 54.119 v -162.035 c 0,-18.828 -9.49,-62.734 -54.119,-62.734 -20.131,0 -45.089,23.802 -57.572,36.229 -12.473,12.408 -134.393,133.144 -134.393,133.144 v -164.155 h -54.118 v 164.155 c 0,0 -2.627,59.582 54.118,59.582 20.227,0 30.391,-4.674 46.572,-21.269 C -129.212,-33.677 0,-162.035 0,-162.035 Z" style="fill:#ffffff;fill-opacity:1;fill-rule:evenodd;stroke:none" id="path32"/>
        </g>
        <g id="g34" transform="translate(671.5856,362.9021)">
          <path d="m 0,0 h 54.119 v -162.035 c 0,-18.828 -9.49,-62.734 -54.119,-62.734 -20.131,0 -45.089,23.802 -57.572,36.229 -12.473,12.408 -134.393,133.144 -134.393,133.144 v -164.155 h -54.118 v 164.155 c 0,0 -2.627,59.582 54.118,59.582 20.227,0 30.391,-4.674 46.572,-21.269 C -129.212,-33.677 0,-162.035 0,-162.035 Z" style="fill:none;stroke:#ffffff;stroke-width:0.2;stroke-linecap:butt;stroke-linejoin:miter;stroke-miterlimit:10;stroke-dasharray:none;stroke-opacity:1" id="path36"/>
        </g>
        <path d="M 97.266,227.467 H 289.231 V 202.388 H 97.266 Z M 38.044,364.422 h 251.187 c 22.461,0 39.711,-16.144 47.999,-31.366 8.279,-15.206 14.632,-51.453 -3.069,-76.307 18.574,-17.419 20.207,-52.203 11.15,-71.18 -9.057,-18.978 -26.42,-40.697 -56.08,-40.697 H 38.044 Z M 97.266,309.029 H 289.231 V 283.912 H 97.266 Z" style="fill:#ffffff;fill-opacity:1;fill-rule:evenodd;stroke:none" id="path38"/>
        <g id="g40" transform="translate(1100.3667,115.9854)">
          <path d="m 0,0 h -196.013 v 34.208 l 88.558,92.617 c 12.597,14.07 21.645,26.201 27.138,36.391 5.494,10.19 8.241,19.47 8.241,27.839 0,11.524 -2.675,20.653 -8.021,27.385 -5.349,6.733 -13.59,10.099 -24.721,10.099 -11.575,0 -20.474,-4.276 -26.699,-12.828 -6.229,-8.552 -9.339,-19.501 -9.339,-32.844 h -60.87 l -0.659,1.092 c -0.587,23.655 8.055,43.699 25.93,60.137 17.871,16.436 41.751,24.655 71.637,24.655 30.324,0 53.799,-6.945 70.428,-20.834 16.625,-13.891 24.941,-32.783 24.941,-56.679 0,-16.135 -4.8,-30.996 -14.394,-44.58 -9.596,-13.587 -25.675,-31.723 -48.233,-54.405 l -43.51,-52.222 H 0 Z" style="fill:#000000;fill-opacity:1;fill-rule:nonzero;stroke:none" id="path42"/>
        </g>
      </g>
    </g>
  </g>
</svg>