<?xml version="1.0" encoding="utf-8"?>
<!-- Generator: Adobe Illustrator 25.4.1, SVG Export Plug-In . SVG Version: 6.00 Build 0)  -->
<svg version="1.1" id="Layer_1" xmlns="http://www.w3.org/2000/svg" xmlns:xlink="http://www.w3.org/1999/xlink" x="0px" y="0px"
	 viewBox="0 0 118.87 39.86" style="enable-background:new 0 0 118.87 39.86;" xml:space="preserve">
<style type="text/css">
	.st0{fill:#00AAFF;}
</style>
<g>
	<rect x="97.15" y="1.31" class="st0" width="20.15" height="20.15"/>
	<g>
		<path d="M14.39,10.92c1.72-0.94,2.6-2.4,2.6-4.37V6.49c0-1.78-0.73-3.14-2.16-4.04c-1.16-0.75-2.66-1.13-4.44-1.13H1.08v20.15
			h9.36c1.99,0,3.66-0.4,4.95-1.18c1.61-0.98,2.43-2.48,2.43-4.47v-0.06C17.82,13.47,16.67,11.85,14.39,10.92 M6.74,9.18V6.14h2.47
			c2.19,0,2.19,1.11,2.19,1.48v0.06c0,0.37,0,1.5-2.3,1.5C9.1,9.18,6.74,9.18,6.74,9.18z M12.16,15v0.06c0,1.07-0.76,1.59-2.31,1.59
			h-3.1v-3.21H9.8C12.16,13.44,12.16,14.61,12.16,15"/>
		<path d="M31.93,14.46c2.51-1.19,3.79-3.26,3.79-6.14V8.26c0-2.35-0.81-4.15-2.42-5.36c-1.42-1.05-3.32-1.59-5.65-1.59h-8.23v20.15
			h5.67v-5.97h1.05l3.82,5.97h6.59L31.93,14.46z M30.03,8.59v0.06c0,1.42-0.85,2.11-2.61,2.11H25.1V6.59h2.3
			C29.16,6.59,30.03,7.17,30.03,8.59"/>
		<polygon points="85.05,16.2 85.05,13.66 92.76,13.66 92.76,8.93 85.05,8.92 85.05,6.59 93.57,6.59 93.57,1.32 79.46,1.32 
			79.46,21.47 93.7,21.47 93.7,16.2 		"/>
		<path d="M37.28,21.47h5.69V8.32h-5.69V21.47z M37.28,6.59h5.69V1.32h-5.69V6.59z"/>
		<path d="M67,7.78c0.78-0.7,1.84-1.07,3.13-1.15c0,0,1.36-0.03,1.95-0.03h5.66V1.33H70.8c-3.14,0-5.74,0.85-7.74,2.53
			c-0.72,0.61-1.31,1.3-1.79,2.07c-0.49-0.79-1.11-1.51-1.85-2.12c-1.96-1.64-4.54-2.47-7.66-2.47h-7.05v20.15h6.94
			c3.14,0,5.75-0.85,7.75-2.53c0.72-0.61,1.31-1.3,1.79-2.07c0.49,0.79,1.1,1.5,1.85,2.12c1.96,1.64,4.54,2.47,7.66,2.47h7.05v-9.84
			h-5.66v4.57h-1.47c-1.5,0-2.72-0.42-3.65-1.25c-0.91-0.82-1.37-2-1.37-3.53v-0.05C65.58,9.84,66.06,8.63,67,7.78 M56.86,11.42
			c0,1.52-0.48,2.73-1.42,3.59c-0.88,0.79-2.09,1.19-3.61,1.19h-1.47V6.6h1.47c1.49,0,2.72,0.42,3.64,1.24s1.38,2.01,1.38,3.53v0.05
			H56.86z"/>
		<g>
			<path d="M1.3,27.14h4.92c1.17,0,2.21,0.22,3.12,0.67c0.9,0.45,1.6,1.08,2.1,1.89s0.75,1.76,0.75,2.84c0,1.08-0.25,2.03-0.75,2.84
				c-0.5,0.82-1.2,1.45-2.1,1.9c-0.9,0.45-1.94,0.67-3.12,0.67H1.3V27.14z M6.09,35.9c1.08,0,1.95-0.3,2.59-0.9s0.97-1.42,0.97-2.45
				c0-1.03-0.32-1.85-0.97-2.45c-0.64-0.6-1.51-0.9-2.59-0.9H3.8v6.71h2.29V35.9z"/>
			<path d="M22.45,35.95v2.01h-8.38V27.14h8.18v2.01h-5.69v2.35h5.03v1.95h-5.03v2.5H22.45z"/>
			<path d="M24.44,27.14h2.51v8.78h5.43v2.04h-7.93L24.44,27.14L24.44,27.14z"/>
			<path d="M34.86,36.86C34,36,33.57,34.78,33.57,33.2v-6.06h2.5v5.97c0,1.94,0.8,2.91,2.41,2.91c0.78,0,1.38-0.23,1.79-0.7
				c0.41-0.47,0.62-1.2,0.62-2.2v-5.98h2.47v6.06c0,1.59-0.43,2.81-1.29,3.66c-0.86,0.86-2.06,1.28-3.61,1.28
				C36.92,38.14,35.72,37.72,34.86,36.86z"/>
			<path d="M52.52,37.96l-2.61-3.76l-2.57,3.76h-2.87l4-5.5l-3.8-5.32h2.84L50,30.65l2.44-3.51h2.71l-3.77,5.23l4.03,5.6h-2.89
				V37.96z"/>
			<path d="M64.79,35.95v2.01h-8.38V27.14h8.18v2.01H58.9v2.35h5.02v1.95H58.9v2.5H64.79z"/>
		</g>
	</g>
</g>
</svg>
