<?xml version="1.0" encoding="utf-8"?>
<!-- Generator: Adobe Illustrator 25.4.1, SVG Export Plug-In . SVG Version: 6.00 Build 0)  -->
<svg version="1.1" id="Layer_1" xmlns="http://www.w3.org/2000/svg" xmlns:xlink="http://www.w3.org/1999/xlink" x="0px" y="0px"
	 viewBox="0 0 118.87 39.86" style="enable-background:new 0 0 118.87 39.86;" xml:space="preserve">
<style type="text/css">
	.st0{fill:#FF000A;}
</style>
<g>
	<rect x="96.9" y="1.43" class="st0" width="20.07" height="20.07"/>
	<g>
		<path d="M14.46,10.92c1.72-0.93,2.59-2.39,2.59-4.35V6.51c0-1.77-0.72-3.13-2.15-4.02c-1.16-0.75-2.65-1.13-4.42-1.13H1.21v20.07
			h9.32c1.99,0,3.65-0.39,4.93-1.18c1.6-0.97,2.42-2.47,2.42-4.45v-0.05C17.88,13.47,16.73,11.85,14.46,10.92 M6.85,9.19V6.17h2.46
			c2.18,0,2.18,1.11,2.18,1.47V7.7c0,0.37,0,1.5-2.29,1.5H6.85V9.19z M12.24,14.99v0.06c0,1.06-0.76,1.58-2.31,1.58H6.84v-3.2h3.03
			C12.24,13.44,12.24,14.61,12.24,14.99"/>
		<path d="M31.93,14.46c2.5-1.19,3.77-3.25,3.77-6.12V8.28c0-2.34-0.81-4.14-2.41-5.33c-1.41-1.05-3.31-1.58-5.62-1.58h-8.2v20.07
			h5.64v-5.95h1.05l3.8,5.95h6.56L31.93,14.46z M30.03,8.61v0.06c0,1.42-0.85,2.1-2.6,2.1h-2.32V6.62h2.29
			C29.17,6.62,30.03,7.19,30.03,8.61"/>
		<polygon points="84.83,16.18 84.83,13.66 92.5,13.66 92.5,8.94 84.83,8.94 84.83,6.62 93.32,6.62 93.32,1.37 79.27,1.37 
			79.27,21.43 93.45,21.43 93.45,16.18 		"/>
		<path d="M37.26,21.43h5.67V8.34h-5.67C37.26,8.34,37.26,21.43,37.26,21.43z M37.26,6.62h5.67V1.37h-5.67
			C37.26,1.37,37.26,6.62,37.26,6.62z"/>
		<path d="M66.86,7.8c0.78-0.7,1.83-1.07,3.11-1.15c0,0,1.35-0.03,1.94-0.03h5.64V1.37h-6.92c-3.13,0-5.72,0.85-7.71,2.52
			c-0.71,0.61-1.3,1.3-1.78,2.06c-0.49-0.79-1.1-1.5-1.85-2.11c-1.95-1.63-4.52-2.46-7.63-2.46h-7.02v20.07h6.91
			c3.13,0,5.72-0.85,7.71-2.52c0.72-0.6,1.3-1.3,1.78-2.06c0.49,0.79,1.1,1.5,1.84,2.11c1.95,1.63,4.52,2.46,7.63,2.46h7.02v-9.8
			h-5.64v4.55h-1.46c-1.49,0-2.71-0.42-3.63-1.24c-0.91-0.81-1.37-2-1.37-3.51v-0.05C65.44,9.85,65.92,8.65,66.86,7.8 M56.75,11.43
			c0,1.52-0.48,2.72-1.41,3.57c-0.87,0.78-2.08,1.18-3.59,1.18h-1.46V6.62h1.46c1.49,0,2.71,0.42,3.63,1.24
			c0.91,0.81,1.37,2,1.37,3.52V11.43z"/>
		<g>
			<path d="M3.6,37.32c-0.89-0.48-1.59-1.14-2.09-1.99c-0.51-0.85-0.76-1.8-0.76-2.87c0-1.07,0.25-2.02,0.76-2.87
				c0.51-0.85,1.21-1.51,2.09-1.99c0.89-0.48,1.89-0.72,2.99-0.72c0.93,0,1.78,0.16,2.53,0.49c0.75,0.33,1.39,0.8,1.9,1.42
				l-1.6,1.48c-0.73-0.84-1.63-1.26-2.71-1.26c-0.67,0-1.26,0.15-1.79,0.44c-0.52,0.29-0.93,0.7-1.22,1.22
				c-0.29,0.52-0.44,1.12-0.44,1.79c0,0.67,0.15,1.26,0.44,1.79c0.29,0.52,0.7,0.93,1.22,1.22c0.52,0.29,1.12,0.44,1.79,0.44
				c1.08,0,1.98-0.43,2.71-1.28l1.6,1.48c-0.51,0.63-1.15,1.1-1.91,1.43s-1.61,0.49-2.54,0.49C5.48,38.04,4.49,37.8,3.6,37.32z"/>
		</g>
		<g>
			<path d="M12.71,27.08h2.49v8.75h5.4v2.03h-7.9L12.71,27.08L12.71,27.08z"/>
			<path d="M29.58,35.54h-5l-0.95,2.31h-2.55l4.8-10.78h2.46l4.82,10.78h-2.62L29.58,35.54z M28.8,33.65l-1.71-4.13l-1.71,4.13H28.8
				z"/>
		</g>
		<g>
			<path d="M35.74,37.69c-0.8-0.23-1.44-0.53-1.92-0.9l0.85-1.88c0.46,0.34,1.01,0.61,1.65,0.82c0.64,0.21,1.27,0.31,1.91,0.31
				c0.71,0,1.23-0.11,1.57-0.32s0.51-0.49,0.51-0.84c0-0.26-0.1-0.47-0.3-0.64s-0.46-0.31-0.77-0.41c-0.31-0.1-0.74-0.22-1.27-0.34
				c-0.82-0.2-1.49-0.39-2.02-0.58c-0.52-0.2-0.97-0.51-1.35-0.94c-0.38-0.43-0.56-1.01-0.56-1.72c0-0.63,0.17-1.19,0.51-1.7
				c0.34-0.51,0.85-0.91,1.53-1.21c0.68-0.3,1.52-0.45,2.5-0.45c0.69,0,1.36,0.08,2.02,0.25c0.66,0.16,1.23,0.4,1.72,0.71
				l-0.77,1.89c-1-0.56-1.99-0.85-2.99-0.85c-0.7,0-1.21,0.11-1.55,0.34s-0.5,0.52-0.5,0.89s0.19,0.64,0.58,0.82
				c0.39,0.18,0.97,0.36,1.76,0.53c0.82,0.2,1.49,0.39,2.02,0.58c0.52,0.2,0.97,0.5,1.35,0.92c0.38,0.42,0.56,0.99,0.56,1.71
				c0,0.62-0.17,1.18-0.52,1.69c-0.34,0.51-0.86,0.91-1.55,1.21c-0.69,0.3-1.52,0.45-2.51,0.45C37.35,38.04,36.53,37.92,35.74,37.69
				z"/>
			<path d="M45.56,37.69c-0.8-0.23-1.44-0.53-1.92-0.9l0.85-1.88c0.46,0.34,1.01,0.61,1.65,0.82c0.64,0.21,1.27,0.31,1.91,0.31
				c0.71,0,1.23-0.11,1.57-0.32c0.34-0.21,0.51-0.49,0.51-0.84c0-0.26-0.1-0.47-0.3-0.64c-0.2-0.17-0.46-0.31-0.77-0.41
				c-0.31-0.1-0.74-0.22-1.27-0.34c-0.82-0.2-1.49-0.39-2.02-0.58c-0.52-0.2-0.97-0.51-1.35-0.94c-0.38-0.43-0.56-1.01-0.56-1.72
				c0-0.63,0.17-1.19,0.51-1.7c0.34-0.51,0.85-0.91,1.53-1.21c0.68-0.3,1.52-0.45,2.5-0.45c0.69,0,1.36,0.08,2.02,0.25
				c0.66,0.16,1.23,0.4,1.72,0.71l-0.77,1.89c-1-0.56-1.99-0.85-2.99-0.85c-0.7,0-1.21,0.11-1.55,0.34c-0.33,0.23-0.5,0.52-0.5,0.89
				s0.19,0.64,0.58,0.82c0.39,0.18,0.97,0.36,1.76,0.53c0.82,0.2,1.49,0.39,2.02,0.58c0.52,0.2,0.97,0.5,1.35,0.92
				s0.56,0.99,0.56,1.71c0,0.62-0.17,1.18-0.52,1.69c-0.34,0.51-0.86,0.91-1.55,1.21c-0.69,0.3-1.52,0.45-2.51,0.45
				C47.18,38.04,46.35,37.92,45.56,37.69z"/>
			<path d="M54.31,27.08h2.49v10.78h-2.49V27.08z"/>
			<path d="M61.54,37.32c-0.89-0.48-1.59-1.14-2.09-1.99c-0.51-0.85-0.76-1.8-0.76-2.87c0-1.07,0.25-2.02,0.76-2.87
				c0.51-0.85,1.21-1.51,2.09-1.99c0.89-0.48,1.89-0.72,2.99-0.72c0.93,0,1.78,0.16,2.53,0.49c0.76,0.33,1.39,0.8,1.9,1.42
				l-1.6,1.48c-0.73-0.84-1.63-1.26-2.71-1.26c-0.67,0-1.26,0.15-1.79,0.44c-0.52,0.29-0.93,0.7-1.22,1.22
				c-0.29,0.52-0.44,1.12-0.44,1.79c0,0.67,0.15,1.26,0.44,1.79c0.29,0.52,0.7,0.93,1.22,1.22c0.52,0.29,1.12,0.44,1.79,0.44
				c1.08,0,1.98-0.43,2.71-1.28l1.6,1.48c-0.51,0.63-1.15,1.1-1.91,1.43s-1.61,0.49-2.54,0.49C63.42,38.04,62.43,37.8,61.54,37.32z"
				/>
		</g>
	</g>
</g>
</svg>
