<?xml version="1.0" encoding="utf-8"?>
<!-- Generator: Adobe Illustrator 25.4.1, SVG Export Plug-In . SVG Version: 6.00 Build 0)  -->
<svg version="1.1" id="Layer_1" xmlns="http://www.w3.org/2000/svg" xmlns:xlink="http://www.w3.org/1999/xlink" x="0px" y="0px"
	 viewBox="0 0 118.87 39.86" style="enable-background:new 0 0 118.87 39.86;" xml:space="preserve">
<style type="text/css">
	.st0{fill:#FFFC00;}
</style>
<g>
	<rect x="97.04" y="0.77" class="st0" width="20.13" height="20.13"/>
	<g>
		<path d="M14.37,10.34c1.72-0.93,2.59-2.4,2.59-4.36V5.92c0-1.78-0.73-3.14-2.15-4.04c-1.16-0.75-2.66-1.13-4.44-1.13H1.08v20.12
			h9.35c1.99,0,3.66-0.4,4.95-1.18c1.61-0.97,2.42-2.48,2.42-4.46v-0.05C17.81,12.9,16.65,11.27,14.37,10.34 M6.74,8.61V5.57H9.2
			c2.19,0,2.19,1.11,2.19,1.47V7.1c0,0.37,0,1.5-2.3,1.5H6.74V8.61z M12.15,14.42v0.06c0,1.07-0.76,1.59-2.31,1.59h-3.1v-3.2h3.04
			C12.15,12.86,12.15,14.03,12.15,14.42"/>
		<path d="M31.9,13.89c2.51-1.19,3.78-3.26,3.78-6.14V7.69c0-2.35-0.81-4.15-2.41-5.35c-1.42-1.05-3.32-1.59-5.64-1.59H19.4v20.12
			h5.66V14.9h1.05l3.81,5.97h6.58L31.9,13.89z M29.99,8.02v0.06c0,1.42-0.85,2.11-2.61,2.11h-2.32V6.02h2.29
			C29.13,6.02,29.99,6.6,29.99,8.02"/>
		<polygon points="84.95,15.61 84.95,13.08 92.64,13.08 92.64,8.35 84.95,8.35 84.95,6.02 93.46,6.02 93.46,0.76 79.37,0.76 
			79.37,20.88 93.59,20.88 93.59,15.61 		"/>
		<path d="M37.24,20.88h5.68V7.75h-5.68V20.88z M37.24,6.02h5.68V0.75h-5.68V6.02z"/>
		<path d="M66.92,7.21c0.78-0.7,1.84-1.07,3.12-1.15c0,0,1.36-0.03,1.94-0.03h5.66V0.76H70.7c-3.14,0-5.73,0.85-7.73,2.53
			c-0.72,0.61-1.3,1.3-1.79,2.06c-0.49-0.79-1.1-1.51-1.85-2.12c-1.96-1.64-4.53-2.47-7.65-2.47h-7.03v20.12h6.93
			c3.14,0,5.74-0.85,7.73-2.52c0.72-0.61,1.31-1.3,1.79-2.06c0.49,0.79,1.1,1.5,1.85,2.12c1.96,1.64,4.53,2.47,7.65,2.47h7.04v-9.82
			h-5.66v4.56h-1.46c-1.5,0-2.72-0.42-3.64-1.25c-0.91-0.81-1.37-2-1.37-3.52V10.8C65.51,9.27,65.98,8.06,66.92,7.21 M56.79,10.85
			c0,1.52-0.48,2.72-1.41,3.58c-0.88,0.79-2.09,1.19-3.6,1.19h-1.47v-9.6h1.47c1.49,0,2.72,0.42,3.64,1.24
			c0.91,0.82,1.38,2,1.38,3.53L56.79,10.85L56.79,10.85z"/>
		<g>
			<path d="M8.54,27.02c0.7,0.32,1.25,0.77,1.63,1.36c0.38,0.59,0.57,1.28,0.57,2.08c0,0.79-0.19,1.49-0.57,2.08
				c-0.38,0.59-0.92,1.04-1.63,1.36c-0.7,0.31-1.54,0.47-2.49,0.47H3.87v2.98h-2.5V26.54h4.68C7,26.54,7.83,26.7,8.54,27.02z
				 M7.62,31.84c0.39-0.33,0.59-0.79,0.59-1.38c0-0.61-0.2-1.07-0.59-1.4c-0.39-0.32-0.96-0.49-1.71-0.49H3.87v3.75h2.04
				C6.66,32.33,7.23,32.17,7.62,31.84z"/>
		</g>
		<g>
			<path d="M21.92,26.54l-4.6,8.55c-0.44,0.82-0.97,1.45-1.6,1.87c-0.62,0.42-1.3,0.63-2.03,0.63c-0.57,0-1.15-0.12-1.76-0.37
				l0.6-1.9c0.43,0.13,0.79,0.2,1.08,0.2c0.31,0,0.59-0.08,0.83-0.23c0.25-0.15,0.47-0.38,0.68-0.7l0.09-0.13l-4.26-7.94h2.67
				l2.87,5.81l2.96-5.81h2.47V26.54z"/>
		</g>
		<g>
			<path d="M24.72,36.81c-0.89-0.48-1.59-1.14-2.1-1.99s-0.76-1.81-0.76-2.88c0-1.07,0.25-2.03,0.76-2.88s1.21-1.51,2.1-1.99
				c0.89-0.48,1.89-0.72,3-0.72c0.94,0,1.78,0.16,2.54,0.49c0.76,0.33,1.39,0.8,1.91,1.42l-1.61,1.48
				c-0.73-0.84-1.64-1.27-2.72-1.27c-0.67,0-1.27,0.15-1.79,0.44s-0.93,0.7-1.23,1.23c-0.29,0.52-0.44,1.12-0.44,1.79
				c0,0.67,0.15,1.27,0.44,1.79c0.29,0.52,0.7,0.93,1.23,1.23c0.52,0.29,1.12,0.44,1.79,0.44c1.08,0,1.99-0.43,2.72-1.28l1.61,1.48
				c-0.51,0.63-1.15,1.11-1.91,1.44s-1.61,0.49-2.55,0.49C26.61,37.53,25.61,37.3,24.72,36.81z"/>
			<path d="M35.71,36.81c-0.89-0.48-1.59-1.14-2.1-1.99s-0.76-1.81-0.76-2.88c0-1.07,0.25-2.03,0.76-2.88s1.21-1.51,2.1-1.99
				c0.89-0.48,1.89-0.72,3-0.72c0.94,0,1.78,0.16,2.54,0.49c0.76,0.33,1.39,0.8,1.91,1.42l-1.61,1.48
				c-0.73-0.84-1.64-1.27-2.72-1.27c-0.67,0-1.27,0.15-1.79,0.44s-0.93,0.7-1.23,1.23c-0.29,0.52-0.44,1.12-0.44,1.79
				c0,0.67,0.15,1.27,0.44,1.79c0.29,0.52,0.7,0.93,1.23,1.23c0.52,0.29,1.12,0.44,1.79,0.44c1.08,0,1.99-0.43,2.72-1.28l1.61,1.48
				c-0.51,0.63-1.15,1.11-1.91,1.44s-1.61,0.49-2.55,0.49C37.6,37.53,36.6,37.3,35.71,36.81z"/>
			<path d="M48.98,32.99h-1.73v4.35h-2.49v-10.8h2.49v4.37h1.79l2.84-4.37h2.64l-3.54,5.22l3.64,5.59h-2.84L48.98,32.99z"/>
			<path d="M55.82,26.54h2.48v7.04l5.16-7.04h2.35v10.81h-2.47v-7.03l-5.16,7.03h-2.36C55.82,37.35,55.82,26.54,55.82,26.54z"/>
			<path d="M68.5,26.54h2.49v7.04l5.16-7.04h2.35v10.81h-2.47v-7.03l-5.16,7.03h-2.36L68.5,26.54L68.5,26.54z M70.49,23.48h1.71
				c0.02,0.75,0.45,1.13,1.28,1.13c0.41,0,0.73-0.1,0.94-0.28c0.22-0.19,0.33-0.47,0.34-0.84h1.71c-0.01,0.77-0.26,1.36-0.76,1.76
				c-0.49,0.4-1.24,0.6-2.24,0.6C71.51,25.85,70.51,25.06,70.49,23.48z"/>
			<path d="M87.49,26.54l2.24,3.27l2.24-3.27h2.93l-3.6,5.17l3.89,5.64h-2.95l-2.52-3.58l-2.49,3.58h-2.89l3.86-5.53l-3.61-5.28
				H87.49z"/>
			<path d="M96.37,26.54h2.49v7.04l5.16-7.04h2.35v10.81h-2.47v-7.03l-5.16,7.03h-2.36L96.37,26.54L96.37,26.54z"/>
			<path d="M117.3,28.58h-3.46v8.77h-2.47v-8.77h-3.44v-2.04h9.37L117.3,28.58L117.3,28.58z"/>
		</g>
	</g>
</g>
</svg>
