<?xml version="1.0" encoding="utf-8"?>
<!-- Generator: Adobe Illustrator 26.0.2, SVG Export Plug-In . SVG Version: 6.00 Build 0)  -->
<svg version="1.1" id="Слой_1" xmlns="http://www.w3.org/2000/svg" xmlns:xlink="http://www.w3.org/1999/xlink" x="0px" y="0px"
	 viewBox="0 0 93.34 30.03" style="enable-background:new 0 0 93.34 30.03;" xml:space="preserve">
<style type="text/css">
	.st0{fill:#000000;}
	.st1{fill:#00AAFF;}
</style>
<g>
	<g>
		<g>
			<g>
				<g>
					<path class="st0" d="M11.03,8.01c1.37-0.74,2.07-1.91,2.07-3.47V4.49c0-1.42-0.58-2.5-1.72-3.21c-0.93-0.6-2.12-0.9-3.53-0.9
						h-7.4v16.03h7.45c1.59,0,2.91-0.32,3.94-0.94c1.28-0.78,1.93-1.97,1.93-3.56v-0.04C13.76,10.05,12.84,8.75,11.03,8.01
						 M4.95,6.63V4.21h1.96c1.74,0,1.74,0.88,1.74,1.17v0.05c0,0.29,0,1.2-1.83,1.2H4.95z M9.25,11.26v0.04
						c0,0.85-0.6,1.27-1.84,1.27H4.95v-2.55h2.42C9.25,10.02,9.25,10.95,9.25,11.26"/>
					<path class="st0" d="M24.98,10.84c2-0.95,3.01-2.59,3.01-4.89V5.9c0-1.87-0.65-3.3-1.92-4.26c-1.13-0.84-2.64-1.26-4.49-1.26
						h-6.55v16.03h4.51v-4.75h0.84l3.04,4.75h5.24L24.98,10.84z M23.47,6.16v0.04c0,1.13-0.68,1.68-2.08,1.68h-1.85V4.57h1.83
						C22.78,4.57,23.47,5.03,23.47,6.16"/>
					<polygon class="st0" points="67.25,12.21 67.25,10.2 73.38,10.2 73.38,6.43 67.25,6.43 67.25,4.57 74.03,4.57 74.03,0.38 
						62.8,0.38 62.8,16.41 74.13,16.41 74.13,12.21 					"/>
					<path class="st0" d="M29.24,16.41h4.53V5.94h-4.53V16.41z M29.24,4.57h4.53v-4.2h-4.53V4.57z"/>
					<path class="st0" d="M52.89,5.52c0.62-0.56,1.46-0.86,2.49-0.92c0,0,1.08-0.03,1.55-0.03h4.51v-4.2h-5.52
						c-2.5,0-4.57,0.68-6.16,2.01c-0.57,0.48-1.04,1.04-1.42,1.64c-0.39-0.63-0.88-1.2-1.47-1.69c-1.56-1.3-3.61-1.97-6.09-1.97
						h-5.61v16.03h5.52c2.5,0,4.57-0.68,6.16-2.01c0.57-0.48,1.04-1.04,1.43-1.64c0.39,0.63,0.88,1.2,1.47,1.69
						c1.56,1.3,3.61,1.97,6.1,1.97h5.61V8.58h-4.51v3.63h-1.17c-1.19,0-2.17-0.33-2.9-0.99c-0.73-0.65-1.09-1.59-1.09-2.81V8.37
						C51.76,7.16,52.14,6.2,52.89,5.52 M44.82,8.42c0,1.21-0.38,2.17-1.13,2.85c-0.7,0.62-1.66,0.94-2.87,0.94h-1.17V4.57h1.17
						c1.19,0,2.17,0.33,2.9,0.99c0.73,0.65,1.1,1.6,1.1,2.81V8.42z"/>
				</g>
			</g>
		</g>
		<g>
			<g>
				<path class="st0" d="M6.32,21.49C7,21.87,7.53,22.4,7.92,23.08c0.39,0.68,0.58,1.44,0.58,2.29c0,0.85-0.19,1.62-0.58,2.29
					C7.53,28.34,7,28.87,6.32,29.25c-0.68,0.38-1.44,0.57-2.29,0.57c-0.76,0-1.45-0.13-2.06-0.39c-0.61-0.26-1.12-0.64-1.53-1.14
					l1.27-1.18c0.61,0.68,1.35,1.02,2.23,1.02c0.63,0,1.17-0.18,1.61-0.55s0.72-0.87,0.85-1.49H2.9v-1.53h3.47
					c-0.14-0.59-0.43-1.06-0.86-1.41c-0.44-0.35-0.96-0.53-1.58-0.53c-0.88,0-1.62,0.34-2.23,1.02l-1.27-1.18
					c0.41-0.5,0.92-0.88,1.53-1.14c0.61-0.26,1.3-0.39,2.06-0.39C4.88,20.92,5.65,21.11,6.32,21.49z"/>
				<path class="st0" d="M16.31,22.69h-2.75v6.99h-1.97v-6.99H8.84v-1.62h7.47V22.69z"/>
				<path class="st0" d="M25.23,21.06v8.61h-1.99v-3.53h-3.91v3.53h-1.99v-8.61h1.99v3.4h3.91v-3.4H25.23z"/>
				<path class="st0" d="M28.72,29.24c-0.72-0.38-1.28-0.92-1.69-1.59s-0.61-1.44-0.61-2.28s0.2-1.61,0.61-2.28
					c0.41-0.68,0.97-1.21,1.69-1.59c0.72-0.38,1.52-0.58,2.42-0.58c0.89,0,1.7,0.19,2.41,0.58c0.71,0.39,1.28,0.92,1.69,1.59
					c0.41,0.68,0.62,1.44,0.62,2.28s-0.21,1.6-0.62,2.28s-0.97,1.21-1.69,1.59c-0.71,0.39-1.52,0.58-2.41,0.58
					C30.24,29.82,29.44,29.63,28.72,29.24z M32.51,27.77c0.41-0.23,0.73-0.56,0.97-0.98c0.23-0.42,0.35-0.89,0.35-1.43
					s-0.12-1.01-0.35-1.43c-0.23-0.42-0.56-0.74-0.97-0.98c-0.41-0.23-0.87-0.35-1.38-0.35c-0.51,0-0.97,0.12-1.38,0.35
					c-0.41,0.23-0.73,0.56-0.97,0.98c-0.23,0.42-0.35,0.89-0.35,1.43s0.12,1.01,0.35,1.43c0.23,0.42,0.56,0.74,0.97,0.98
					s0.87,0.35,1.38,0.35C31.64,28.12,32.1,28.01,32.51,27.77z"/>
			</g>
		</g>
	</g>
	<rect x="76.87" y="0.39" class="st1" width="16.04" height="16.04"/>
</g>
</svg>
