<?xml version="1.0" encoding="utf-8"?>
<!-- Generator: Adobe Illustrator 16.0.0, SVG Export Plug-In . SVG Version: 6.00 Build 0)  -->
<!DOCTYPE svg PUBLIC "-//W3C//DTD SVG 1.1//EN" "http://www.w3.org/Graphics/SVG/1.1/DTD/svg11.dtd">
<svg version="1.1" id="Layer_1" xmlns="http://www.w3.org/2000/svg" xmlns:xlink="http://www.w3.org/1999/xlink" x="0px" y="0px"
	 width="85px" height="20px" viewBox="0 0 85 20" enable-background="new 0 0 85 20" xml:space="preserve">
<g>
	<rect x="4.3" y="1.655" display="none" fill="#482464" width="12.509" height="16.288"/>
	<path fill="#482464" d="M10.876,10.165c-1.095,0-1.986,0.646-1.983,1.984c0,0.035,0.004,0.072,0.005,0.107v1.875h2.033v-0.004
		c1.068-0.029,1.927-0.902,1.927-1.979C12.858,11.053,11.969,10.165,10.876,10.165z M5.043,0.147c-2.611,0-4.709,2.076-4.709,4.688
		v15.04h14.998c2.736,0,4.729-2.141,4.729-4.752V0.147H5.043z M11.234,17.016H6.266c-0.331-0.113-0.398-0.447-0.41-0.633v-0.139
		v-0.012c0-0.178,0-0.516,0-0.973V3.036h3.012v4.493l0.014-0.042v0.036c0.578-0.195,1.213-0.291,1.878-0.291
		c2.706,0,4.904,2.195,4.904,4.902C15.664,14.682,13.718,16.777,11.234,17.016z"/>
</g>
<g>
	<path fill="#482464" d="M73.578,12.311c0,0.66,0.547,1.047,1.332,1.047c1.141,0,1.91-0.629,1.91-1.512v-0.434
		c-0.418-0.193-0.963-0.32-1.557-0.32C74.221,11.092,73.578,11.508,73.578,12.311z"/>
	<path fill="#482464" d="M52.396,8.072c-1.012,0-1.67,0.723-1.863,1.83h3.678C54.068,8.81,53.424,8.072,52.396,8.072z"/>
	<path fill="#482464" d="M26.731,0.144c-2.481,0-4.475,1.972-4.475,4.454v15.277h57.935c2.484,0,4.475-1.973,4.475-4.457V0.144
		H26.731z M31.49,15.074c-2.587,0-4.481-1.992-4.481-4.482c0-2.457,1.879-4.481,4.512-4.481c1.622,0,2.617,0.611,3.421,1.512
		l-1.43,1.445c-0.529-0.498-1.044-0.852-2.007-0.852c-1.22,0-2.088,1.076-2.088,2.376c0,1.318,0.851,2.378,2.185,2.378
		c0.819,0,1.381-0.354,1.975-0.916l1.43,1.445C34.171,14.414,33.208,15.074,31.49,15.074z M38.185,14.881h-2.441V6.273h2.441V14.881
		z M38.248,5.325H35.68V3.157h2.568V5.325z M47.402,14.881h-2.441v-4.803c0-1.155-0.545-1.749-1.479-1.749
		c-0.93,0-1.524,0.593-1.524,1.749v4.803h-2.441V6.273h2.441v1.221c0.562-0.723,1.286-1.383,2.522-1.383
		c1.846,0,2.922,1.223,2.922,3.197V14.881z M56.555,11.43h-5.99c0.242,1.107,1.014,1.686,2.105,1.686
		c0.816,0,1.412-0.256,2.086-0.883l1.396,1.236c-0.803,0.996-1.961,1.605-3.518,1.605c-2.582,0-4.494-1.816-4.494-4.482
		c0-2.457,1.75-4.481,4.256-4.481c2.873,0,4.191,2.233,4.191,4.675C56.588,10.978,56.57,11.205,56.555,11.43z M70.576,14.881h-2.443
		v-4.803c0-1.154-0.514-1.748-1.428-1.748c-0.916,0-1.477,0.593-1.477,1.748v4.803h-2.443v-4.803c0-1.154-0.514-1.748-1.428-1.748
		c-0.916,0-1.479,0.593-1.479,1.748v4.803h-2.441V6.273h2.441v1.221c0.563-0.723,1.301-1.383,2.539-1.383
		c1.123,0,1.973,0.5,2.422,1.366c0.756-0.882,1.656-1.366,2.828-1.366c1.814,0,2.908,1.094,2.908,3.166V14.881z M79.135,14.881
		h-2.361v-0.932c-0.596,0.658-1.414,1.092-2.602,1.092c-1.623,0-2.955-0.93-2.955-2.666c0-1.879,1.43-2.746,3.469-2.746
		c0.865,0,1.492,0.144,2.104,0.353V9.838c0-1.013-0.625-1.575-1.846-1.575c-0.932,0-1.59,0.177-2.379,0.467l-0.607-1.864
		c0.945-0.418,1.877-0.689,3.34-0.689c1.332,0,2.295,0.353,2.906,0.963c0.643,0.643,0.932,1.59,0.932,2.746V14.881z"/>
</g>
</svg>
