<?xml version="1.0" encoding="UTF-8" standalone="no"?>
<svg
   xmlns:dc="http://purl.org/dc/elements/1.1/"
   xmlns:cc="http://creativecommons.org/ns#"
   xmlns:rdf="http://www.w3.org/1999/02/22-rdf-syntax-ns#"
   xmlns:svg="http://www.w3.org/2000/svg"
   xmlns="http://www.w3.org/2000/svg"
   viewBox="0 0 4144.8267 3754.4534"
   height="3754.4534"
   width="4144.8267"
   xml:space="preserve"
   id="svg2"
   version="1.1"><metadata
     id="metadata8"><rdf:RDF><cc:Work
         rdf:about=""><dc:format>image/svg+xml</dc:format><dc:type
           rdf:resource="http://purl.org/dc/dcmitype/StillImage" /></cc:Work></rdf:RDF></metadata><defs
     id="defs6" /><g
     transform="matrix(1.3333333,0,0,-1.3333333,0,3754.4533)"
     id="g10"><g
       transform="scale(0.1)"
       id="g12"><g
         transform="scale(1.03223)"
         id="g14"><path
           id="path16"
           style="fill:#000000;fill-opacity:1;fill-rule:nonzero;stroke:none"
           d="m 15388.7,206.157 c -3998.1,0 -7758.02,1745.163 -10345.29,4809.693 -250.5,296.74 -213.07,740.25 83.69,990.77 296.53,250.63 740.28,213.04 990.7,-83.7 2318.72,-2746.39 5688.7,-4310.67 9271.3,-4310.67 63.6,0 127.3,0.48 191,1.54 385.4,7.75 707.9,-303.9 713.9,-692.091 6,-388.288 -303.8,-707.886 -692.1,-713.892 -70.8,-1.067 -142.5,-1.65 -213.2,-1.65" /></g><g
         transform="scale(1.72748)"
         id="g18"><path
           id="path20"
           style="fill:#000000;fill-opacity:1;fill-rule:nonzero;stroke:none"
           d="m 15774.8,11736.4 c -142.6,0 -281.6,72.6 -360.4,203.7 -633.4,1053.8 -1530.6,1935.9 -2594.6,2551.2 -1096,633.7 -2348.7,968.7 -3622.61,968.7 -1179,0 -2303.24,-274 -3341.51,-814.4 -991.13,-515.8 -1863.47,-1267.2 -2522.73,-2172.8 -136.6,-187.6 -399.42,-228.9 -586.89,-92.4 -187.59,136.6 -228.96,399.4 -92.41,586.9 735.31,1010.1 1708.44,1848.1 2814.14,2423.7 1142.92,594.8 2432.54,909.2 3729.4,909.2 1421.41,0 2819.51,-374 4043.21,-1081.6 1186.9,-686.3 2187.6,-1670.3 2894.1,-2845.7 119.5,-198.8 55.2,-456.9 -143.7,-576.5 -67.6,-40.7 -142.3,-60 -216,-60" /></g><g
         transform="scale(1.8067)"
         id="g22"><path
           id="path24"
           style="fill:#000000;fill-opacity:1;fill-rule:nonzero;stroke:none"
           d="m 14640.7,0 v 0 c -180.4,0 -344.9,103.56 -422.7,266.398 L 13093.3,2617.2 c -111.7,233.58 -13,513.43 220.5,625.12 233.3,111.92 513.4,12.79 625.1,-220.51 l 701.8,-1467.15 702,1467.15 c 111.7,233.3 391.6,332.43 625.1,220.51 233.5,-111.69 332.2,-391.54 220.4,-625.12 L 15063.5,266.398 C 14985.7,103.56 14821.2,0 14640.7,0" /></g><g
         transform="scale(1.40757)"
         id="g26"><path
           id="path28"
           style="fill:#000000;fill-opacity:1;fill-rule:nonzero;stroke:none"
           d="m 15605.7,1203.21 c -217.1,0 -370.6,121.2 -442.8,193.52 -118.3,118.22 -183.3,275.3 -183.3,442.68 V 3017.4 h 718.8 c 332.3,0 601.6,269.4 601.6,601.6 0,332.21 -269.3,601.61 -601.6,601.61 h -718.8 v 747.31 c 0,332.13 -269.4,601.54 -601.6,601.54 -332.3,0 -601.6,-269.41 -601.6,-601.54 v -747.31 h -682.9 c -332.4,0 -601.6,-269.4 -601.6,-601.61 0,-332.2 269.2,-601.6 601.6,-601.6 h 682.9 V 1839.41 c 0,-488.78 190.2,-948.228 535.6,-1293.503 C 14663.9,193.882 15123.3,0 15605.7,0 c 332.3,0 601.6,269.403 601.6,601.604 0,332.205 -269.3,601.606 -601.6,601.606" /></g><g
         transform="scale(1.28246)"
         id="g30"><path
           id="path32"
           style="fill:#000000;fill-opacity:1;fill-rule:nonzero;stroke:none"
           d="m 4042.58,8632.69 c -980.84,0 -1778.76,797.92 -1778.76,1778.81 0,980.8 797.92,1778.7 1778.76,1778.7 980.84,0 1778.85,-797.9 1778.85,-1778.7 0,-980.89 -798.01,-1778.81 -1778.85,-1778.81 z m 0,5821.41 c -638.01,0 -1241.62,-149.2 -1778.76,-413.5 v 1127.5 C 2263.82,15793.2 1757,16300 1131.91,16300 506.81,16300 0,15793.2 0,15168.1 V 10411.5 C 0,8182.47 1813.46,6368.92 4042.58,6368.92 c 2229.09,0 4042.65,1813.55 4042.65,4042.58 0,2229 -1813.56,4042.6 -4042.65,4042.6" /></g><g
         transform="scale(1.25678)"
         id="g34"><path
           id="path36"
           style="fill:#000000;fill-opacity:1;fill-rule:nonzero;stroke:none"
           d="m 15145,14749.4 c -637.9,0 -1155.1,-517.1 -1155.1,-1155 v -1322.6 c 0,-759.7 -618,-1377.6 -1377.7,-1377.6 -759.6,0 -1377.7,617.9 -1377.7,1377.6 v 1322.6 c 0,637.9 -517.1,1155 -1155,1155 -637.91,0 -1155.1,-517.1 -1155.1,-1155 v -1322.6 c 0,-1629.9 1063.51,-3015.44 2532.7,-3501.37 V 7593.3 c 0,-637.82 517.2,-1155.01 1155.1,-1155.01 637.9,0 1155.1,517.19 1155.1,1155.01 v 1177.06 c 1469.2,486 2532.7,1871.54 2532.7,3501.44 v 1322.6 c 0,637.9 -517.2,1155 -1155,1155" /></g><g
         transform="scale(1.90712)"
         id="g38"><path
           id="path40"
           style="fill:#000000;fill-opacity:1;fill-rule:nonzero;stroke:none"
           d="m 13869.8,4282.85 c -1340,0 -2430.2,1090.18 -2430.2,2430.16 V 8958.6 c 0,420.38 340.8,761.19 761.2,761.19 420.3,0 761.1,-340.81 761.1,-761.19 V 6713.01 c 0,-500.59 407.3,-907.86 907.9,-907.86 500.7,0 908,407.27 908,907.86 V 8958.6 c 0,420.38 340.8,761.19 761.2,761.19 420.3,0 761.1,-340.81 761.1,-761.19 V 6713.01 c 0,-1339.98 -1090.2,-2430.16 -2430.3,-2430.16" /></g></g></g></svg>
