<svg width="194" height="33" viewBox="0 0 194 33" fill="none" xmlns="http://www.w3.org/2000/svg">
<path d="M172.37 10.1802H175.787L183.374 26.129H180.811C180.537 26.129 180.298 26.0959 180.059 26.0295C179.82 25.963 179.581 25.8633 179.375 25.7635C179.171 25.6306 178.965 25.4978 178.795 25.3316C178.624 25.1656 178.487 24.966 178.385 24.7336L177.53 22.9725H170.628L169.807 24.7336C169.705 24.9329 169.568 25.1322 169.397 25.2984C169.226 25.4644 169.021 25.6306 168.816 25.7635C168.611 25.8964 168.372 25.9961 168.099 26.0626C167.86 26.129 167.586 26.1623 167.347 26.1623H164.784L172.37 10.1802ZM172.199 19.6166H175.924L174.421 16.2939C174.352 16.1278 174.284 15.9949 174.25 15.862C174.215 15.7291 174.181 15.5962 174.147 15.4965C174.113 15.3636 174.079 15.2639 174.079 15.1642C174.079 15.2639 174.045 15.3968 174.011 15.4965C173.976 15.5962 173.942 15.7291 173.908 15.862C173.874 15.9949 173.805 16.1278 173.737 16.2939L172.199 19.6166Z" fill="#045F8C"/>
<path d="M183.101 26.0959V10.1802H187.03V22.7067H193.899V26.0959H183.101Z" fill="#045F8C"/>
<path d="M125.076 26.0955H121.112V10.1465H127.913C128.562 10.1465 129.177 10.2129 129.724 10.3791C130.27 10.5452 130.783 10.7446 131.227 11.0104C131.672 11.2762 132.082 11.5752 132.423 11.9407C132.765 12.3062 133.038 12.6717 133.277 13.1037C133.517 13.5024 133.688 13.9343 133.79 14.3663C133.893 14.7982 133.961 15.2302 133.961 15.6621C133.961 16.0941 133.927 16.4928 133.824 16.9248C133.722 17.3567 133.551 17.7554 133.346 18.1542C133.141 18.5529 132.833 18.9516 132.492 19.3171C132.15 19.6826 131.74 20.0148 131.227 20.347L135.84 26.0955H132.526H132.457C132.389 26.0955 132.252 26.0955 132.082 26.0621C131.911 26.0288 131.706 25.9957 131.501 25.896C131.295 25.8295 131.056 25.6966 130.817 25.5304C130.578 25.3644 130.339 25.1318 130.134 24.866L127.229 21.2442H125.042V26.0955H125.076ZM128.118 17.5893C128.357 17.5893 128.596 17.5228 128.801 17.4232C129.04 17.3235 129.245 17.1574 129.416 16.9912C129.587 16.8251 129.724 16.6257 129.826 16.3931C129.929 16.1605 129.997 15.928 129.997 15.6954C129.997 15.4628 129.929 15.2302 129.826 14.9976C129.724 14.765 129.587 14.5657 129.416 14.3995C129.245 14.2334 129.04 14.0672 128.801 13.9676C128.562 13.8679 128.357 13.8014 128.118 13.8014H125.076V17.5893H128.118Z" fill="#045F8C"/>
<path d="M139.667 19.6831C139.667 20.0817 139.77 20.4472 139.94 20.8127C140.111 21.1782 140.35 21.4773 140.658 21.7431C140.966 22.009 141.307 22.2083 141.683 22.3743C142.059 22.5405 142.503 22.607 142.913 22.607C143.358 22.607 143.768 22.5405 144.143 22.3743C144.519 22.2083 144.895 22.009 145.169 21.7431C145.476 21.4773 145.715 21.1782 145.886 20.8127C146.057 20.4472 146.16 20.0817 146.16 19.6831V10.1802H150.124V19.6831C150.124 20.5801 149.919 21.444 149.543 22.2415C149.167 23.0389 148.654 23.7368 148.005 24.3348C147.356 24.9329 146.57 25.398 145.715 25.7304C144.827 26.0626 143.904 26.2619 142.913 26.2619C142.264 26.2619 141.615 26.1955 141 26.0295C140.385 25.8633 139.804 25.6639 139.291 25.3649C138.744 25.0658 138.266 24.7336 137.822 24.3348C137.378 23.9361 137.002 23.5042 136.694 23.0058C136.387 22.5074 136.147 22.009 135.976 21.444C135.806 20.8792 135.703 20.3143 135.703 19.6831V10.1802H139.667V19.6831Z" fill="#045F8C"/>
<path d="M155.936 26.0955H151.972V10.1465H158.772C159.421 10.1465 160.036 10.2129 160.583 10.3791C161.13 10.5452 161.642 10.7446 162.087 11.0104C162.531 11.2762 162.941 11.5752 163.283 11.9407C163.624 12.3062 163.898 12.6717 164.137 13.1037C164.376 13.5024 164.547 13.9343 164.65 14.3663C164.752 14.7982 164.82 15.2302 164.82 15.6621C164.82 16.0941 164.786 16.4928 164.684 16.9248C164.581 17.3567 164.41 17.7554 164.205 18.1542C164 18.5529 163.693 18.9516 163.351 19.3171C163.009 19.6826 162.599 20.0148 162.087 20.347L166.7 26.0955H163.385H163.317C163.249 26.0955 163.112 26.0955 162.941 26.0621C162.77 26.0288 162.565 25.9957 162.36 25.896C162.155 25.8295 161.916 25.6966 161.677 25.5304C161.437 25.3644 161.198 25.1318 160.993 24.866L158.088 21.2442H155.936V26.0955ZM159.011 17.5893C159.25 17.5893 159.489 17.5228 159.729 17.4232C159.968 17.3235 160.139 17.1574 160.344 16.9912C160.515 16.8251 160.651 16.6257 160.754 16.3931C160.856 16.1605 160.925 15.928 160.925 15.6954C160.925 15.4628 160.856 15.2302 160.754 14.9976C160.651 14.765 160.515 14.5657 160.344 14.3995C160.173 14.2334 159.968 14.0672 159.729 13.9676C159.489 13.8679 159.25 13.8014 159.011 13.8014H155.97V17.5893H159.011Z" fill="#045F8C"/>
<path d="M45.9343 18.1543C45.9343 18.7856 46.0025 19.3836 46.1734 19.9485C46.3443 20.5133 46.5835 21.0451 46.8569 21.5434C47.1644 22.0418 47.5063 22.5069 47.9503 22.9057C48.3606 23.3044 48.8389 23.6699 49.3516 23.969C49.8641 24.268 50.4108 24.5007 50.9918 24.6335C51.5727 24.7997 52.1877 24.8662 52.8371 24.8662C53.5887 24.8662 54.2722 24.7664 54.9558 24.5338C55.605 24.3345 56.2201 24.0354 56.8009 23.6699C56.9036 23.6034 57.006 23.537 57.1427 23.5039C57.2794 23.4706 57.3818 23.4372 57.5185 23.4372C57.7236 23.4372 57.9286 23.4706 58.0995 23.537C58.2704 23.6034 58.4071 23.7032 58.5437 23.8361L58.6462 23.9358C57.8946 24.6335 57.006 25.1984 56.015 25.597C55.024 25.9958 53.9648 26.1951 52.8371 26.1951C51.6752 26.1951 50.6157 25.9958 49.5907 25.5639C48.5655 25.1319 47.7112 24.5671 46.9253 23.8361C46.1734 23.1051 45.5585 22.2411 45.1482 21.2444C44.7042 20.2476 44.499 19.2175 44.499 18.0878C44.499 16.9581 44.7042 15.9281 45.1482 14.9313C45.5925 13.9345 46.1734 13.0706 46.9253 12.3396C47.677 11.6086 48.5655 11.0105 49.5907 10.6118C50.6157 10.1798 51.6752 9.98047 52.8371 9.98047C53.9988 9.98047 55.0582 10.1798 56.015 10.5785C57.006 10.9773 57.8603 11.5421 58.612 12.2399L58.5095 12.3396C58.3728 12.4725 58.2362 12.5722 58.0653 12.6386C57.8946 12.7051 57.7236 12.7383 57.5185 12.7383C57.2452 12.7383 57.006 12.6718 56.8009 12.5057C56.2542 12.1402 55.6392 11.8412 54.9558 11.6086C54.3064 11.4092 53.5887 11.2763 52.8371 11.2763C52.1877 11.2763 51.5727 11.3428 50.9918 11.5089C50.4108 11.675 49.8641 11.9076 49.3516 12.1734C48.8389 12.4725 48.3606 12.8047 47.9503 13.2367C47.5403 13.6354 47.1644 14.1006 46.8569 14.599C46.5493 15.0974 46.3101 15.629 46.1734 16.1939C46.0025 16.9249 45.9343 17.5229 45.9343 18.1543Z" fill="#045F8C"/>
<path d="M66.3335 10.2129H67.5295C68.1446 11.542 68.7254 12.9043 69.3406 14.2001C69.9215 15.5292 70.5367 16.825 71.1174 18.1541C71.6984 19.45 72.3136 20.779 72.8945 22.1082C73.4755 23.4371 74.0905 24.7663 74.6714 26.0953H74.0222C73.7488 26.0953 73.4755 26.0288 73.2704 25.8628C73.0312 25.7298 72.8945 25.5304 72.7578 25.2647L71.425 22.3075H62.4038L61.1052 25.2647C61.0025 25.4973 60.8318 25.6966 60.5925 25.8628C60.3533 25.9957 60.1142 26.0953 59.8408 26.0953H59.1914L66.3335 10.2129ZM63.0529 20.9452H70.8101L67.1536 12.8046C67.1194 12.7381 67.0852 12.6385 67.051 12.5055C67.017 12.4059 66.9827 12.3062 66.9827 12.2065C66.9485 12.1068 66.9485 11.9739 66.9485 11.8742C66.9485 11.9739 66.9143 12.1068 66.8803 12.2065C66.8803 12.3062 66.8461 12.4059 66.8118 12.5055C66.7776 12.6052 66.7436 12.7049 66.7094 12.8046L63.0529 20.9452Z" fill="#045F8C"/>
<path d="M89.1964 26.0953H87.7953L77.9195 12.3726C77.8853 12.3394 77.8511 12.273 77.8171 12.2065C77.7829 12.1401 77.7828 12.0736 77.7486 12.0404C77.7144 11.9739 77.6804 11.9075 77.6804 11.841V26.0953H76.2451V10.2129H77.2361C77.5437 10.2129 77.7828 10.2461 77.9538 10.3126C78.1247 10.379 78.2954 10.5119 78.398 10.6781L87.4193 23.2378C87.4877 23.3043 87.522 23.404 87.556 23.4704C87.5902 23.57 87.6244 23.6365 87.6587 23.7031C87.6927 23.7695 87.7269 23.8691 87.7269 23.9688V10.2129H89.1279V26.0953H89.1964Z" fill="#045F8C"/>
<path d="M97.9428 10.2129H99.1387C99.7539 11.542 100.335 12.9043 100.916 14.2001C101.497 15.5292 102.112 16.825 102.693 18.1541C103.274 19.45 103.889 20.779 104.47 22.1082C105.051 23.4371 105.666 24.7663 106.247 26.0953H105.597C105.324 26.0953 105.051 26.0288 104.846 25.8628C104.606 25.7298 104.47 25.5304 104.333 25.2647L103 22.3075H93.9788L92.6802 25.2647C92.5777 25.4973 92.4068 25.6966 92.1677 25.8628C91.9285 25.9957 91.6892 26.0953 91.3818 26.0953H90.7324L97.9428 10.2129ZM94.6622 20.9452H102.419L98.7629 12.8046C98.7287 12.7381 98.6944 12.6385 98.6604 12.5055C98.6262 12.4059 98.592 12.3062 98.592 12.2065C98.5578 12.1068 98.5578 11.9739 98.5578 11.8742C98.5578 11.9739 98.5237 12.1068 98.4895 12.2065C98.4895 12.3062 98.4553 12.4059 98.4211 12.5055C98.3871 12.6052 98.3528 12.7049 98.3186 12.8046L94.6622 20.9452Z" fill="#045F8C"/>
<path d="M107.854 26.0953V10.2129H109.289V24.6999H116.773V26.0953H107.854Z" fill="#045F8C"/>
<path d="M11.8761 14.6982C11.8761 13.3861 12.9537 12.309 14.2664 12.309C15.5791 12.309 16.6567 13.3861 16.6567 14.6982C16.6567 16.0103 15.5987 17.0874 14.286 17.0874H11.8957V14.6982H11.8761ZM9.36816 14.6982V19.5942H14.2664C16.9702 19.5942 19.1646 17.4008 19.1646 14.6982C19.1646 11.9956 16.9702 9.80225 14.2664 9.80225C11.5626 9.80225 9.36816 11.9956 9.36816 14.6982Z" fill="url(#paint0_linear)"/>
<path d="M4.80469 14.6978V32.4995H7.31258V21.1017V14.6978C7.31258 10.8593 10.4279 7.7455 14.2681 7.7455C18.1083 7.7455 21.2236 10.8593 21.2236 14.6978C21.2236 18.5362 18.1083 21.65 14.2681 21.65H9.36984V24.1568H14.2681C19.4798 24.1568 23.7314 19.9267 23.7314 14.6978C23.7314 9.46888 19.4798 5.23877 14.2681 5.23877C9.03676 5.23877 4.80469 9.46888 4.80469 14.6978Z" fill="url(#paint1_linear)"/>
<path d="M0.100586 14.6591C0.100586 14.6983 0.100586 14.7179 0.100586 14.757V29.8758C0.120179 30.2087 0.296515 32.5 2.76522 32.5V22.9235V14.7766V14.6591C2.76522 8.31395 7.91816 3.1634 14.2663 3.1634C20.6144 3.1634 25.7673 8.31395 25.7673 14.6591C25.7673 21.0043 20.6144 26.1548 14.2663 26.1548H9.36804V28.8182H14.2663C22.0838 28.8182 28.432 22.4731 28.432 14.6591C28.432 6.84517 22.0642 0.5 14.2663 0.5C6.44869 0.5 0.100586 6.84517 0.100586 14.6591Z" fill="url(#paint2_linear)"/>
<path d="M21.2033 14.6987C21.2033 18.5372 18.0881 21.651 14.2478 21.651H9.34961V24.1577H14.2478C19.4596 24.1577 23.7112 19.9276 23.7112 14.6987H21.2033Z" fill="url(#paint3_linear)"/>
<path d="M14.2664 26.1553H9.36816V28.8187H14.2664C22.0644 28.8187 28.4125 22.4931 28.4321 14.6987H25.7674C25.7478 21.0243 20.5949 26.1553 14.2664 26.1553Z" fill="url(#paint4_linear)"/>
<path d="M9.36816 26.1558V26.3124V28.6625V28.8192H14.2664C16.9114 28.8192 19.2234 30.3075 20.399 32.4813H23.1224H23.2204L23.1616 32.3247C21.8293 28.7212 18.3613 26.1558 14.286 26.1558H9.36816Z" fill="url(#paint5_linear)"/>
<path d="M9.36816 21.6504V24.3138H14.2664C19.4585 24.3138 23.8669 27.7605 25.2776 32.4998H28.0402C26.5512 26.2918 20.928 21.6504 14.2664 21.6504H9.36816Z" fill="url(#paint6_linear)"/>
<defs>
<linearGradient id="paint0_linear" x1="9.28979" y1="14.7961" x2="19.2626" y2="14.7961" gradientUnits="userSpaceOnUse">
<stop stop-color="#6EB893"/>
<stop offset="1" stop-color="#43B0C7"/>
</linearGradient>
<linearGradient id="paint1_linear" x1="4.78509" y1="14.9915" x2="23.7902" y2="14.9915" gradientUnits="userSpaceOnUse">
<stop stop-color="#7DBB72"/>
<stop offset="1" stop-color="#29ADD8"/>
</linearGradient>
<linearGradient id="paint2_linear" x1="0.0809918" y1="14.7962" x2="28.5691" y2="14.7962" gradientUnits="userSpaceOnUse">
<stop stop-color="#8EC046"/>
<stop offset="1" stop-color="#2AABE3"/>
</linearGradient>
<linearGradient id="paint3_linear" x1="14.0911" y1="23.9031" x2="22.8064" y2="16.1635" gradientUnits="userSpaceOnUse">
<stop stop-color="#045F8C"/>
<stop offset="1" stop-color="#045F8C" stop-opacity="0"/>
</linearGradient>
<linearGradient id="paint4_linear" x1="16.8331" y1="28.0157" x2="27.7998" y2="16.5541" gradientUnits="userSpaceOnUse">
<stop stop-color="#045F8C"/>
<stop offset="1" stop-color="#045F8C" stop-opacity="0"/>
</linearGradient>
<linearGradient id="paint5_linear" x1="9.97555" y1="27.037" x2="22.4152" y2="32.4268" gradientUnits="userSpaceOnUse">
<stop stop-color="#26ACDA"/>
<stop offset="1" stop-color="#80BC6B"/>
</linearGradient>
<linearGradient id="paint6_linear" x1="13.0124" y1="21.6504" x2="28.976" y2="32.4284" gradientUnits="userSpaceOnUse">
<stop stop-color="#20ACE0"/>
<stop offset="1" stop-color="#8DC045"/>
</linearGradient>
</defs>
</svg>

