<svg xmlns="http://www.w3.org/2000/svg" width="342" height="100" viewBox="0 0 342 100">
  <defs>
    <style>
      .cls-1 {
        fill: #ee4a43;
      }

      .cls-2 {
        fill: #9fd6c5;
      }
    </style>
  </defs>
  <title>logo q</title>
  <g id="Layer_1" data-name="Layer 1">
    <g>
      <rect class="cls-1" x="193.54" y="20.95" width="13.16" height="56.81"/>
      <path class="cls-1" d="M87.08,37.93v39.8H73.93V73.32c-2.72,3.25-6.86,5.73-13.15,5.73-11.62,0-19.72-9.5-19.72-21.23s8.1-21.21,19.72-21.21c6.29,0,10.43,2.47,13.15,5.72v-4.4ZM73.93,57.82c0-5.84-4.42-10.6-9.86-10.6S54.21,52,54.21,57.82s4.42,10.63,9.86,10.63S73.93,63.69,73.93,57.82Z"/>
      <path class="cls-1" d="M21.34,48.54a7.77,7.77,0,0,1,6.8,4.56l10.29-5.88c-3.33-6-9.53-10.61-17.09-10.61a21.22,21.22,0,0,0,0,42.44c7.56,0,13.72-4.56,17.09-10.6l-10.29-5.9a7.76,7.76,0,0,1-6.8,4.56c-4.36,0-7.88-4.15-7.88-9.29S17,48.54,21.34,48.54Z"/>
      <path class="cls-1" d="M185.67,37.93v39.8H172.52V73.32c-2.74,3.25-6.86,5.73-13.15,5.73-11.61,0-19.72-9.5-19.72-21.23s8.11-21.21,19.72-21.21c6.29,0,10.41,2.47,13.15,5.72v-4.4ZM172.52,57.82c0-5.84-4.42-10.6-9.86-10.6s-9.85,4.76-9.85,10.6,4.4,10.63,9.85,10.63S172.52,63.69,172.52,57.82Z"/>
      <path class="cls-1" d="M121.25,36.61a14.58,14.58,0,0,0-13.14,8.16V37.93H95v39.8h13.15V55.12c.7-2.71,2.88-6,7.09-6,3.63,0,6,2.28,6,6.88V77.73h13.14V51.2C134.39,43.5,130,36.61,121.25,36.61Z"/>
      <path class="cls-1" d="M326,73.53A50.05,50.05,0,0,0,331.78,50c0-27.61-22.18-50-49.55-50s-49.55,22.39-49.55,50,22.19,50,49.55,50a49,49,0,0,0,25.5-7.12L312,100h29.72Z"/>
      <path class="cls-2" d="M282.24,50l16,27a28.1,28.1,0,0,1-16,5.06c-16.42,0-29.74-14.34-29.74-32s13.32-32,29.74-32S312,32.33,312,50Z"/>
    </g>
  </g>
</svg>
