<svg id="Capa_1" data-name="Capa 1" xmlns="http://www.w3.org/2000/svg" viewBox="0 0 175 175"><defs><style>.cls-1{fill:#db6430;}</style></defs><path class="cls-1" d="M87.8,145.09a311.16,311.16,0,0,1,80.65,10.75,3.52,3.52,0,0,0,4.24-2.26,2.9,2.9,0,0,0-1.41-3.68,143.69,143.69,0,0,0-167,0,3.23,3.23,0,0,0-.86,4.5v0a3.67,3.67,0,0,0,3.68,1.42A311.16,311.16,0,0,1,87.8,145.09"/><path class="cls-1" d="M96.29,76.62a8.82,8.82,0,0,1,8.77-8.77h1.7a16.76,16.76,0,0,0,12.45-4.24,15.76,15.76,0,0,0,4-11.6,13.82,13.82,0,0,0-4-10.75,17.62,17.62,0,0,0-11-4A15.11,15.11,0,0,0,97.42,41a12,12,0,0,0-4,6.5,3.29,3.29,0,0,1-3.11,2.83H74.5a3.43,3.43,0,0,1-3.4-3.39h0v-.28a31.23,31.23,0,0,1,4.53-12.45,32.39,32.39,0,0,1,13.3-11.32,38.94,38.94,0,0,1,18.68-4c11.88,0,21.22,2.83,27.73,8.77a30.87,30.87,0,0,1,10.19,24,24.58,24.58,0,0,1-4.81,14.43,28,28,0,0,1-7.08,7.07,3.55,3.55,0,0,0-.85,4.81h0a4,4,0,0,0,1.13.85,25.05,25.05,0,0,1,8.49,7.92,27.67,27.67,0,0,1,4.53,16.41,31.6,31.6,0,0,1-10.75,24.61c-7.36,6.23-16.7,9.34-28.86,9.34a40.28,40.28,0,0,1-27.45-9.06,28.76,28.76,0,0,1-10.47-20.37,3.4,3.4,0,0,1,2.83-3.68H88.37a3.09,3.09,0,0,1,3.11,2.83A13.94,13.94,0,0,0,96,114.81a19.16,19.16,0,0,0,24-.28,15.15,15.15,0,0,0,4.53-11.32c0-11.6-6.23-17.25-18.4-17.25h-1.13a9.32,9.32,0,0,1-8.77-9.34h0"/><path class="cls-1" d="M22.15,35V47.2a3.41,3.41,0,0,0,3.11,3.4h0a1.68,1.68,0,0,0,1.13-.29l12.45-4a1,1,0,0,1,.85.29v90.81a3.76,3.76,0,0,0,3.68,3.68h0l15.85-.29a3.74,3.74,0,0,0,3.68-3.67h0V22.87a3.27,3.27,0,0,0-3.14-3.39,1.13,1.13,0,0,0-.26,0,1.62,1.62,0,0,0-1.13.28L24.7,32.21c-1.7.57-2.55,1.7-2.55,2.83"/></svg>