<?xml version="1.0" encoding="UTF-8"?> <svg xmlns="http://www.w3.org/2000/svg" width="101" height="39" viewBox="0 0 101 39" fill="none"><path d="M65.6589 11.4288L63.0839 17.957C63.0839 17.9932 63.0839 18.0658 63.1564 18.0658H64.5346C64.5709 18.0658 64.6071 18.0295 64.6071 18.0295L65.1149 16.6151C65.1511 16.5425 65.2237 16.5063 65.2962 16.5063H67.6173C67.6898 16.5063 67.7624 16.5425 67.7986 16.6151L68.3064 18.0295C68.3064 18.0658 68.3427 18.0658 68.3789 18.0658H69.7571C69.7933 18.0658 69.8296 18.0295 69.8296 17.957L67.2546 11.4288C67.2546 11.3926 67.2184 11.3926 67.1821 11.3926H65.7677C65.6951 11.3926 65.6589 11.3926 65.6589 11.4288ZM67.1821 15.3094C67.1458 15.3457 67.1096 15.382 67.037 15.382H65.8039C65.7314 15.382 65.6951 15.3457 65.6589 15.3094C65.6226 15.2732 65.6226 15.2006 65.6226 15.1281L66.2391 13.4235C66.2754 13.351 66.3479 13.3147 66.4205 13.3147C66.493 13.3147 66.5656 13.351 66.6018 13.4235L67.2184 15.1281C67.2184 15.2006 67.1821 15.2369 67.1821 15.3094Z" fill="#A4A536"></path><path d="M75.306 15.3093C75.2334 15.3456 75.1609 15.3093 75.1246 15.2368L72.1507 11.3925C72.1507 11.3925 72.1144 11.3562 72.0782 11.3562H70.9539C70.9176 11.3562 70.8814 11.3925 70.8814 11.4287V17.9568C70.8814 17.9931 70.9176 18.0294 70.9539 18.0294H72.2232C72.2595 18.0294 72.2958 17.9931 72.2958 17.9568V14.3301C72.2958 14.2576 72.332 14.185 72.4046 14.1488C72.4771 14.1125 72.5497 14.1488 72.5859 14.2213L75.5598 18.0656L75.5961 18.1019H76.7204C76.7567 18.1019 76.7929 18.0656 76.7929 18.0294V11.5013C76.7929 11.465 76.7567 11.4287 76.7204 11.4287H75.4873C75.451 11.4287 75.4148 11.465 75.4148 11.5013V15.2005C75.451 15.2005 75.3785 15.2731 75.306 15.3093Z" fill="#A4A536"></path><path d="M80.5647 11.4288L77.9897 17.957C77.9897 17.9932 77.9897 18.0658 78.0623 18.0658H79.4404C79.4767 18.0658 79.513 18.0295 79.513 18.0295L80.0207 16.6151C80.057 16.5425 80.1295 16.5063 80.202 16.5063H82.5231C82.5957 16.5063 82.6682 16.5425 82.7045 16.6151L83.2122 18.0295C83.2122 18.0658 83.2485 18.0658 83.2848 18.0658H84.6629C84.6992 18.0658 84.7354 18.0295 84.7354 17.957L82.1605 11.4288C82.1605 11.3926 82.1242 11.3926 82.0879 11.3926H80.6735C80.601 11.3926 80.5647 11.3926 80.5647 11.4288ZM82.0879 15.3094C82.0517 15.3457 82.0154 15.382 81.9429 15.382H80.7098C80.6372 15.382 80.601 15.3457 80.5647 15.3094C80.5284 15.2732 80.5284 15.2006 80.5284 15.1281L81.145 13.4235C81.1813 13.351 81.2538 13.3147 81.3263 13.3147C81.3989 13.3147 81.4714 13.351 81.5077 13.4235L82.1242 15.1281C82.1242 15.2006 82.1242 15.2369 82.0879 15.3094Z" fill="#A4A536"></path><path d="M85.8235 11.4651V17.9932C85.8235 18.0295 85.8597 18.0658 85.896 18.0658H90.4294C90.4657 18.0658 90.502 18.0295 90.502 17.9932V16.7601C90.502 16.7239 90.4657 16.6876 90.4294 16.6876H87.383C87.2742 16.6876 87.2016 16.6151 87.2016 16.5063V11.4651C87.2016 11.4288 87.1654 11.3926 87.1291 11.3926H85.896C85.8597 11.3926 85.8235 11.4288 85.8235 11.4651Z" fill="#A4A536"></path><path d="M95.6519 17.159C95.797 16.8689 95.8695 16.5062 95.8695 16.1073C95.8695 15.7083 95.797 15.3457 95.6519 15.0555C95.5068 14.7654 95.3255 14.5115 95.0354 14.3302C94.7452 14.1488 94.4188 14.04 94.0199 14.04H92.279C92.2428 14.04 92.2065 14.0763 92.2065 14.1126V18.1382C92.2065 18.1745 92.2428 18.2108 92.279 18.2108H94.0199C94.4188 18.2108 94.7452 18.102 95.0354 17.9206C95.3255 17.7393 95.5068 17.4854 95.6519 17.159ZM94.8178 17.0865C94.6002 17.3404 94.31 17.4854 93.9111 17.4854H93.1132C93.0044 17.4854 92.8956 17.3766 92.8956 17.2678V14.9467C92.8956 14.8379 93.0044 14.7291 93.1132 14.7291H93.9111C94.2738 14.7291 94.6002 14.8742 94.8178 15.1281C95.0354 15.3819 95.1442 15.7083 95.1442 16.1073C95.1442 16.5062 95.0354 16.8689 94.8178 17.0865Z" fill="#A4A536"></path><path d="M100.222 14.6202C99.8226 14.2213 99.3149 14.0037 98.7346 14.0037C98.1544 14.0037 97.6829 14.185 97.2477 14.6202C96.8125 15.0191 96.6311 15.4906 96.6311 16.0709C96.6311 16.6512 96.8487 17.1226 97.2477 17.5216C97.6466 17.9205 98.1544 18.1381 98.7346 18.1381C99.3149 18.1381 99.7864 17.9568 100.222 17.5216C100.621 17.1226 100.838 16.6512 100.838 16.0709C100.838 15.4906 100.621 15.0191 100.222 14.6202ZM99.7138 17.0501C99.46 17.304 99.1336 17.4491 98.7346 17.4491C98.372 17.4491 98.0093 17.304 97.7554 17.0501C97.5015 16.7962 97.3565 16.4336 97.3565 16.0709C97.3565 15.672 97.5015 15.3456 97.7554 15.0917C98.0093 14.8378 98.3357 14.6927 98.7346 14.6927C99.1336 14.6927 99.46 14.8378 99.7138 15.0917C99.9677 15.3456 100.113 15.7082 100.113 16.0709C100.113 16.4698 100.004 16.7962 99.7138 17.0501Z" fill="#A4A536"></path><path d="M61.4881 23.9773C61.4519 23.9773 61.4156 24.0136 61.4156 24.0136C61.3068 24.3037 61.1617 24.5576 60.9441 24.8114C60.5452 25.2104 60.0374 25.428 59.4934 25.428C58.9132 25.428 58.4417 25.2104 58.0427 24.8114C57.6438 24.4125 57.4262 23.9048 57.4262 23.2882C57.4262 22.7079 57.6438 22.2002 58.0427 21.765C58.4417 21.366 58.9494 21.1484 59.4934 21.1484C60.0737 21.1484 60.5815 21.366 60.9441 21.765C61.0892 21.9463 61.2343 22.1277 61.3431 22.309C61.3431 22.3453 61.3793 22.3453 61.4156 22.3453H62.7938C62.83 22.3453 62.8663 22.309 62.8663 22.2365C62.7212 21.6925 62.4311 21.1847 61.9959 20.7495C61.3068 20.0604 60.4726 19.6978 59.5297 19.6978C58.5867 19.6978 57.7526 20.0604 57.0635 20.7495C56.3744 21.4386 56.0118 22.2727 56.0118 23.2519C56.0118 24.2312 56.3744 25.0653 57.0635 25.7544C57.7526 26.4435 58.5867 26.8061 59.5297 26.8061C60.4726 26.8061 61.3068 26.4435 61.9959 25.7544C62.4673 25.2466 62.7938 24.6664 62.9388 24.0136C62.9388 23.9773 62.9026 23.941 62.8663 23.941H61.4881V23.9773Z" fill="#A4A536"></path><path d="M61.4881 15.4182C61.4518 15.4182 61.4156 15.4545 61.4156 15.4545C61.3068 15.7446 61.1617 15.9985 60.9441 16.2524C60.5452 16.6513 60.0374 16.8689 59.4934 16.8689C58.9131 16.8689 58.4417 16.6513 58.0427 16.2524C57.6438 15.8534 57.4262 15.3457 57.4262 14.7291C57.4262 14.1489 57.6438 13.6411 58.0427 13.2059C58.4417 12.807 58.9494 12.5894 59.4934 12.5894C60.0737 12.5894 60.5814 12.807 60.9441 13.2059C61.0892 13.3872 61.2342 13.5686 61.343 13.7499C61.343 13.7862 61.3793 13.7862 61.4156 13.7862H62.7937C62.83 13.7862 62.8663 13.7499 62.8663 13.6774C62.7212 13.1334 62.4311 12.6256 61.9958 12.1904C61.3068 11.5013 60.4726 11.1387 59.5297 11.1387C58.5867 11.1387 57.7526 11.5013 57.0635 12.1904C56.3744 12.8795 56.0117 13.7136 56.0117 14.6929C56.0117 15.6721 56.3744 16.5062 57.0635 17.1953C57.7526 17.8844 58.5867 18.2471 59.5297 18.2471C60.4726 18.2471 61.3068 17.8844 61.9958 17.1953C62.4673 16.6876 62.7937 16.1073 62.9388 15.4545C62.9388 15.4182 62.9025 15.3819 62.8663 15.3819H61.4881V15.4182Z" fill="#A4A536"></path><path d="M66.6381 19.8428H63.8818C63.8455 19.8428 63.8092 19.879 63.8092 19.9153V26.7336C63.8092 26.7698 63.8455 26.8061 63.8818 26.8061H65.1511C65.1874 26.8061 65.2237 26.7698 65.2237 26.7336V24.6301C65.2237 24.5213 65.2962 24.4487 65.405 24.4487H66.6744C66.7469 24.4487 66.7832 24.485 66.8194 24.5575L67.9437 26.7698C67.9437 26.8061 67.98 26.8061 68.0162 26.8061H69.1043C69.1405 26.8061 69.1768 26.7336 69.1768 26.6973L68.0162 24.3762C67.98 24.3399 67.98 24.2674 68.0162 24.2311C68.0162 24.1948 68.0525 24.1586 68.0888 24.1223C68.2701 24.0135 68.4152 23.9047 68.5603 23.7959C68.9955 23.3607 69.1768 22.8167 69.1768 22.1276C69.1768 21.4748 68.9592 20.9671 68.5603 20.4956C68.0888 20.0604 67.4722 19.8428 66.6381 19.8428ZM66.5656 23.2882H65.405C65.2962 23.2882 65.2237 23.2156 65.2237 23.1068V21.1484C65.2237 21.0396 65.2962 20.9671 65.405 20.9671H66.5656C66.9645 20.9671 67.2546 21.0759 67.436 21.2935C67.6173 21.5111 67.7261 21.8012 67.7261 22.1276C67.7261 22.8892 67.3272 23.2882 66.5656 23.2882Z" fill="#A4A536"></path><path d="M71.7518 26.6973V19.9153C71.7518 19.879 71.7155 19.8428 71.6792 19.8428H70.4099C70.3736 19.8428 70.3373 19.879 70.3373 19.9153V26.7336C70.3373 26.7698 70.3736 26.8061 70.4099 26.8061H71.6792C71.7155 26.7698 71.7518 26.7336 71.7518 26.6973Z" fill="#A4A536"></path><path d="M75.4873 19.879L72.9486 26.6973C72.9486 26.7336 72.9486 26.8061 73.0211 26.8061H74.3993C74.4356 26.8061 74.4718 26.7698 74.4718 26.7698L74.9796 25.3191C75.0158 25.2466 75.0884 25.2103 75.1609 25.2103H77.482C77.5545 25.2103 77.6271 25.2466 77.6633 25.3191L78.1711 26.7698C78.1711 26.8061 78.2074 26.8061 78.2436 26.8061H79.6218C79.658 26.8061 79.6943 26.7698 79.6943 26.6973L77.1556 19.879C77.1556 19.8428 77.1193 19.8428 77.0831 19.8428H75.7049C75.5236 19.8428 75.4873 19.8428 75.4873 19.879ZM76.9743 23.9047C76.938 23.941 76.9017 23.9772 76.8292 23.9772H75.6324C75.5598 23.9772 75.5236 23.941 75.4873 23.9047C75.451 23.8684 75.451 23.7959 75.451 23.7234L76.0676 21.9463C76.1039 21.8737 76.1764 21.8375 76.2489 21.8375C76.3215 21.8375 76.394 21.8737 76.4303 21.9463L77.0468 23.6871C77.0105 23.7959 77.0105 23.8684 76.9743 23.9047Z" fill="#A4A536"></path><path d="M86.3675 25.0653C86.5851 24.5575 86.6939 23.9772 86.6939 23.2882C86.6939 22.6354 86.5851 22.0551 86.3675 21.5473C86.1499 21.0396 85.7872 20.6044 85.352 20.3142C84.8805 19.9878 84.3365 19.8428 83.6837 19.8428H80.7823C80.746 19.8428 80.7098 19.879 80.7098 19.9153V26.7336C80.7098 26.7698 80.746 26.8061 80.7823 26.8061H83.6837C84.3365 26.8061 84.8805 26.661 85.352 26.3346C85.8235 26.0082 86.1499 25.573 86.3675 25.0653ZM84.8443 24.7751C84.5178 25.1378 84.0826 25.3554 83.5386 25.3554H82.2693C82.1605 25.3554 82.0879 25.2829 82.0879 25.1741V21.4748C82.0879 21.366 82.1605 21.2935 82.2693 21.2935H83.5386C84.0826 21.2935 84.5178 21.4748 84.8443 21.8375C85.1344 22.2001 85.3157 22.7079 85.3157 23.3244C85.3157 23.9047 85.1344 24.4125 84.8443 24.7751Z" fill="#A4A536"></path><path d="M93.4396 20.8583C92.7868 20.1692 91.9527 19.8428 91.0097 19.8428C90.0668 19.8428 89.2689 20.1692 88.6161 20.8583C87.927 21.5473 87.6006 22.3452 87.6006 23.3244C87.6006 24.2674 87.927 25.1015 88.6161 25.7906C89.2689 26.4797 90.103 26.8061 91.0097 26.8061C91.9527 26.8061 92.7505 26.4797 93.4396 25.7906C94.0924 25.1015 94.4551 24.3036 94.4551 23.3244C94.4188 22.3452 94.0924 21.5111 93.4396 20.8583ZM92.4241 24.7751C92.0252 25.1741 91.5537 25.3917 90.9734 25.3917C90.4294 25.3917 89.9217 25.1741 89.559 24.7751C89.1601 24.3762 88.9787 23.8684 88.9787 23.2882C88.9787 22.7079 89.1601 22.2001 89.559 21.8012C89.9579 21.4023 90.4294 21.1847 90.9734 21.1847C91.5537 21.1847 92.0252 21.4023 92.4241 21.8012C92.8231 22.2001 93.0044 22.7079 93.0044 23.2882C93.0044 23.9047 92.8231 24.3762 92.4241 24.7751Z" fill="#A4A536"></path><path d="M98.2994 19.8428H95.5431C95.5068 19.8428 95.4706 19.879 95.4706 19.9153V26.7336C95.4706 26.7698 95.5068 26.8061 95.5431 26.8061H96.8125C96.8487 26.8061 96.885 26.7698 96.885 26.7336V24.6301C96.885 24.5213 96.9575 24.4487 97.0663 24.4487H98.3357C98.4082 24.4487 98.4445 24.485 98.4808 24.5575L99.605 26.7698C99.605 26.8061 99.6413 26.8061 99.6776 26.8061H100.766C100.802 26.8061 100.838 26.7336 100.838 26.6973L99.6776 24.3762C99.6413 24.3399 99.6413 24.2674 99.6776 24.2311C99.6776 24.1948 99.7138 24.1586 99.7501 24.1223C99.9315 24.0135 100.077 23.9047 100.222 23.7959C100.657 23.3607 100.838 22.8167 100.838 22.1276C100.838 21.4748 100.621 20.9671 100.222 20.4956C99.7138 20.0604 99.0973 19.8428 98.2994 19.8428ZM99.0248 23.2882H97.0663C96.9575 23.2882 96.885 23.2156 96.885 23.1068V21.1484C96.885 21.0396 96.9575 20.9671 97.0663 20.9671H98.2269C98.6258 20.9671 98.916 21.0759 99.0973 21.2935C99.4962 21.7287 99.4962 22.4177 99.0973 23.2519C99.061 23.2882 99.0248 23.2882 99.0248 23.2882Z" fill="#A4A536"></path><path d="M27.0342 0.0407715C27.5782 0.0407715 28.0134 0.475979 28.0134 1.01999L28.0497 37.0334C28.0497 37.5774 27.6145 38.0126 27.0705 38.0126C26.5265 38.0126 26.0912 37.5774 26.0912 37.0334L26.055 1.01999C26.055 0.475979 26.4902 0.0407715 27.0342 0.0407715Z" fill="#C8BA3C"></path><path d="M29.8993 3.37744H30.0081C30.5158 3.37744 30.9148 3.77638 30.9148 4.28412L30.9511 32.7902C30.9511 33.2979 30.5521 33.6969 30.0444 33.6969H29.9356C29.4278 33.6969 29.0289 33.2979 29.0289 32.7902L28.9926 4.24786C28.9926 3.77638 29.3916 3.37744 29.8993 3.37744Z" fill="#C8BA3C"></path><path d="M32.9095 0.0407715C33.4535 0.0407715 33.8887 0.475979 33.8887 1.01999V19.7702C33.8887 20.3142 33.4535 20.7494 32.9095 20.7494C32.3655 20.7494 31.9303 20.3142 31.9303 19.7702V1.01999C31.9303 0.512246 32.3655 0.0407715 32.9095 0.0407715Z" fill="#B19939"></path><path d="M35.7383 12.1179H35.9559C36.4274 12.1179 36.8264 12.5169 36.8264 12.9883V19.8791C36.8264 20.3506 36.4274 20.7495 35.9559 20.7495H35.7383C35.2669 20.7495 34.8679 20.3506 34.8679 19.8791V12.9883C34.8679 12.5169 35.2306 12.1542 35.7383 12.1179Z" fill="#B19939"></path><path d="M38.7485 8.16479H38.7848C39.3288 8.16479 39.7277 8.6 39.7277 9.10774V16.6151C39.7277 17.1591 39.2925 17.558 38.7848 17.558H38.7485C38.2045 17.558 37.8056 17.1228 37.8056 16.6151V9.10774C37.7693 8.6 38.2045 8.16479 38.7485 8.16479Z" fill="#B38D32"></path><path d="M41.6862 12.1541H41.7224C42.2664 12.1541 42.6654 12.5893 42.6654 13.097V19.5888C42.6654 20.1329 42.2302 20.5318 41.7224 20.5318H41.6862C41.1422 20.5318 40.7432 20.0966 40.7432 19.5888V13.097C40.707 12.5893 41.1422 12.1541 41.6862 12.1541Z" fill="#B38D32"></path><path d="M44.5876 10.6309H44.6601C45.1678 10.6309 45.603 11.0661 45.603 11.5738V16.6512C45.603 17.159 45.1678 17.5942 44.6601 17.5942H44.5876C44.0798 17.5942 43.6446 17.159 43.6446 16.6512V11.5738C43.6446 11.0661 44.0798 10.6309 44.5876 10.6309Z" fill="#926928"></path><path d="M47.3801 14.4751H47.7428C48.178 14.4751 48.5407 14.8378 48.5407 15.273V15.9258C48.5407 16.361 48.178 16.7237 47.7428 16.7237H47.3801C46.9449 16.7237 46.5823 16.361 46.5823 15.9258V15.273C46.5823 14.8378 46.9449 14.4751 47.3801 14.4751Z" fill="#926928"></path><path d="M24.8219 1.74541C24.8219 0.729927 23.9152 -0.0679528 22.8997 0.00458178C22.7184 0.00458178 22.537 0.0408491 22.4282 0.0408491C21.8117 0.149651 21.2314 0.222185 20.6511 0.367255C19.6357 0.657393 18.33 1.12887 17.5322 2.07182C17.3871 1.99928 17.242 1.92675 17.0607 1.92675C16.698 1.92675 16.4079 2.14435 16.2628 2.43449C14.3769 2.21689 13.3614 2.18062 11.8382 2.7609C10.6414 3.23237 10.315 3.81265 10.3875 4.53799C10.4238 5.15454 12.2371 6.82283 12.7811 7.40311C12.8174 7.43937 12.8174 7.47564 12.8537 7.47564C12.7811 7.58444 12.7811 7.72951 12.7811 7.87458C12.7811 8.16472 12.9262 8.41859 13.1076 8.59993C12.8537 9.39781 12.7449 9.57914 12.5273 10.4133C12.4185 10.4133 12.3097 10.4133 12.2371 10.4133C11.5481 10.377 10.859 10.2682 10.1699 10.2682C9.48082 10.2682 8.79175 10.3045 8.10267 10.4496C7.37732 10.5584 6.68824 10.7034 5.99916 10.9936C5.27382 11.2837 4.54847 11.6464 3.82313 12.0091C3.27912 12.2992 2.73511 12.6256 2.22737 12.952C1.42949 13.4235 0.704141 13.9312 0.232666 14.6928C-0.0937394 15.2368 -0.0937395 15.9985 0.341468 16.4699C0.595339 16.7238 0.885477 16.9414 1.17562 17.1227C2.62631 17.8481 8.35654 22.0914 12.9988 18.1382C13.1076 18.0294 13.9054 17.4491 14.123 17.2678C13.7604 17.5942 13.3977 18.646 13.3977 19.0449C13.3977 20.0604 13.6516 20.9671 14.123 21.8738C14.3769 22.3452 14.667 22.8167 14.9935 23.2519C15.3561 23.7959 15.7551 24.3037 15.8276 24.9202C15.9001 25.3554 15.8639 25.8269 15.8639 26.2621C15.8276 27.1325 15.9727 27.9667 16.4441 28.7283C16.698 29.1272 16.8068 29.5624 16.7705 30.0702C16.7343 30.4328 16.698 30.8318 16.698 31.1944C16.698 32.0649 16.7705 32.899 16.9882 33.7332C17.1695 34.4948 17.4234 35.4014 18.0762 35.9092C18.5476 36.3081 19.0554 36.6708 19.5994 36.9972C20.1434 37.3236 20.7237 37.5775 21.304 37.7588C21.6666 37.8676 22.2832 37.9764 22.936 37.9764C23.9515 37.9764 24.7856 37.2148 24.7856 36.2356L24.8219 1.74541Z" fill="#A4A536"></path></svg> 