<svg xmlns="http://www.w3.org/2000/svg" viewBox="0 0 289.12 70.48"><defs><style>.cls-1{fill:#000;}</style></defs><title>logo-c10-blanco</title><g id="Layer_2" data-name="Layer 2"><g id="Layer_1-2" data-name="Layer 1"><path class="cls-1" d="M142.07,64.43c-.07-.69-.16-1.41-.26-2.1h-.08a3.49,3.49,0,0,1-3.41,2.38c-2.18,0-4.07-1.68-4.55-4.33-.73-4.06,1.06-8.39,7.35-8.39a16.8,16.8,0,0,1,4.46.66L145.53,59a29.83,29.83,0,0,0,.4,5.4Zm-.55-9.21a3.14,3.14,0,0,0-1.27-.14c-1.94.23-2.72,2.72-2.4,4.5a1.9,1.9,0,0,0,1.73,1.73c.77,0,1.87-.77,1.87-3.64Z"/><path class="cls-1" d="M169.56,64.43c-.08-.69-.16-1.41-.26-2.1h-.08a3.49,3.49,0,0,1-3.41,2.38c-2.18,0-4.07-1.68-4.55-4.33-.73-4.06,1.06-8.39,7.35-8.39a16.83,16.83,0,0,1,4.45.66L173,59a30.4,30.4,0,0,0,.41,5.4ZM169,55.21a3.16,3.16,0,0,0-1.28-.14c-1.94.23-2.72,2.72-2.4,4.5a1.9,1.9,0,0,0,1.73,1.73c.77,0,1.87-.77,1.87-3.64Z"/><rect class="cls-1" x="175.35" y="46.82" width="4.26" height="17.61"/><path class="cls-1" d="M147.76,52.65a17.09,17.09,0,0,1,3.55-.64l.31,1.79h.07A4.16,4.16,0,0,1,155.17,52c2.7,0,4.19,1.93,4.19,5.27v7.18H155.1V57.79c0-1.41-.45-2.23-1.48-2.23a1.47,1.47,0,0,0-1.39,1.06,2.5,2.5,0,0,0-.12.89v6.91h-4.26v-8c0-1.63,0-2.61-.1-3.75"/><path class="cls-1" d="M103.64,59.91c.14,1,1.48,1.5,3,1.5a9.72,9.72,0,0,0,3.14-.47l.54,3a11.43,11.43,0,0,1-4.31.76c-4.05,0-6.35-2.34-6.35-6.19,0-2.81,1.73-6.46,6-6.46,3.72,0,5.31,2.88,5.31,6.21a8.23,8.23,0,0,1-.16,1.68Zm3.4-3c0-.69-.3-2-1.64-2s-1.73,1.21-1.8,2Z"/><rect class="cls-1" x="112.93" y="46.9" width="4.24" height="17.53"/><path class="cls-1" d="M132.75,64.15a7.74,7.74,0,0,1-3.16.52c-3.84,0-6.26-2.37-6.26-6.21,0-3.45,2.27-6.41,6.77-6.41a8.24,8.24,0,0,1,2.65.42l-.59,3.26a4.54,4.54,0,0,0-1.83-.3,2.63,2.63,0,0,0-2.67,2.88,2.66,2.66,0,0,0,2.79,2.91,4.72,4.72,0,0,0,1.85-.32Z"/><path class="cls-1" d="M258.47,64.43c-.08-.69-.15-1.41-.26-2.1h-.08a3.49,3.49,0,0,1-3.41,2.38c-2.18,0-4.07-1.68-4.55-4.33-.73-4.06,1.06-8.39,7.35-8.39a16.76,16.76,0,0,1,4.45.67L261.92,59a30,30,0,0,0,.41,5.4Zm-.55-9.21a3.14,3.14,0,0,0-1.27-.14c-1.94.23-2.72,2.72-2.4,4.5A1.9,1.9,0,0,0,256,61.3c.77,0,1.87-.77,1.87-3.64Z"/><path class="cls-1" d="M198.19,60.29c0,1.72,0,3.1.09,4.14h-3.65l-.19-1.6h-.07a3.94,3.94,0,0,1-3.49,1.87c-2.58,0-4.1-1.75-4.1-5.25V52.3H191v6.43c0,1.56.47,2.39,1.48,2.39a1.44,1.44,0,0,0,1.36-1,1.75,1.75,0,0,0,.1-.64V52.3h4.24Z"/><path class="cls-1" d="M200.7,56.39c0-1.92,0-3.08-.1-4.09h3.61l.17,2.19h.09A3.31,3.31,0,0,1,207.54,52a2.91,2.91,0,0,1,.84.08v4.17a4.25,4.25,0,0,0-1.08-.12A2.12,2.12,0,0,0,205,57.67a6.61,6.61,0,0,0,0,.76v6H200.7Z"/><path class="cls-1" d="M221.63,60.29c0,1.72,0,3.1.09,4.14h-3.65l-.19-1.6h-.07a3.94,3.94,0,0,1-3.49,1.87c-2.58,0-4.1-1.75-4.1-5.25V52.3h4.24v6.43c0,1.56.47,2.39,1.48,2.39a1.44,1.44,0,0,0,1.36-1,1.69,1.69,0,0,0,.1-.64V52.3h4.24Z"/><path class="cls-1" d="M235.06,62.65c0,2.12-.4,4.14-1.8,5.43a7,7,0,0,1-4.85,1.5,9.37,9.37,0,0,1-4.29-.91l.8-3.35a7,7,0,0,0,3.32.89,2.49,2.49,0,0,0,2.67-2.74v-.54h0A3.51,3.51,0,0,1,228,64.28c-2.81,0-4.85-2.37-4.85-5.89,0-3.82,2.34-6.36,5.22-6.36a3.21,3.21,0,0,1,3,1.58h0l.14-1.31h3.63c0,.76-.09,1.8-.09,3.72Zm-4.21-5.35a4.11,4.11,0,0,0,0-.56,1.51,1.51,0,0,0-1.5-1.38c-1,0-1.87,1-1.87,3,0,1.58.71,2.74,1.87,2.74a1.5,1.5,0,0,0,1.48-1.21,3.8,3.8,0,0,0,.07-.91Z"/><path class="cls-1" d="M248.48,60.29c0,1.72.05,3.1.09,4.14h-3.65l-.19-1.6h-.07a4,4,0,0,1-3.49,1.87c-2.58,0-4.1-1.75-4.1-5.25V52.3h4.24v6.43c0,1.56.47,2.39,1.48,2.39a1.44,1.44,0,0,0,1.36-1,1.77,1.77,0,0,0,.09-.64V52.3h4.24Z"/><path class="cls-1" d="M268,52.3l1.38,5.45c.17.67.35,1.55.49,2.17h.1c.14-.64.28-1.53.42-2.15l1.05-5.47H276L273.5,60c-1.73,5.08-2.86,6.93-4.1,8.09a6.73,6.73,0,0,1-3.84,1.78l-.87-3.75a5.63,5.63,0,0,0,1.45-.47,3.56,3.56,0,0,0,1.36-1.11,1.07,1.07,0,0,0,.21-.55,1.4,1.4,0,0,0-.16-.64L263.33,52.3Z"/><path class="cls-1" d="M282.42,64.7a5.84,5.84,0,0,1-6.11-6.23c0-3.87,2.41-6.44,6.35-6.44,3.6,0,6,2.57,6,6.21,0,4.41-3,6.46-6.21,6.46Zm.12-3.13c1.15,0,1.76-1.26,1.76-3.2,0-1.68-.52-3.21-1.76-3.21-1.41,0-1.87,1.6-1.87,3.21,0,1.82.57,3.2,1.85,3.2Z"/><path class="cls-1" d="M146.28,41.8c-.17-1.52-.34-3.1-.56-4.62h-.16a7.67,7.67,0,0,1-7.49,5.22c-4.79,0-8.93-3.7-10-9.52-1.61-8.92,2.32-18.43,16.13-18.43A36.79,36.79,0,0,1,154,15.91l-.12,14a66.06,66.06,0,0,0,.89,11.85Zm-1.21-20.23a6.79,6.79,0,0,0-2.8-.31c-4.27.51-6,6-5.27,9.88.45,2.5,2.22,3.81,3.79,3.81s4.11-1.69,4.11-8Z"/><path class="cls-1" d="M206.4,41.8c-.17-1.52-.34-3.1-.57-4.62h-.16a7.67,7.67,0,0,1-7.49,5.22c-4.79,0-8.93-3.7-10-9.52-1.61-8.92,2.32-18.43,16.13-18.43a36.78,36.78,0,0,1,9.78,1.47l-.12,14a66,66,0,0,0,.89,11.85Zm-1.21-20.23a6.79,6.79,0,0,0-2.8-.31c-4.27.51-6,6-5.27,9.88.45,2.5,2.22,3.81,3.79,3.81S205,33.26,205,27Z"/><path class="cls-1" d="M126.15,40.82c-1.29.71-4.6,1.52-8.73,1.52-13,0-18.75-8.54-18.75-18.27,0-12.89,9-19.47,19.37-19.47a20.94,20.94,0,0,1,8.68,1.58L124.91,14a16.06,16.06,0,0,0-6.46-1.3c-5.32,0-10,3.32-10,10.77,0,6.63,3.77,10.77,10.18,10.77a18.38,18.38,0,0,0,6.2-1Z"/><rect class="cls-1" x="219.12" y="3.13" width="9.35" height="38.67"/><polygon class="cls-1" points="248.56 15.1 248.45 15.1 241.84 18.25 240.34 10.91 249.95 6.45 257.55 6.45 257.55 41.8 248.56 41.8 248.56 15.1"/><path class="cls-1" d="M275.9,42.4c-9.61,0-13.17-8.92-13.17-18.22,0-9.57,3.77-18.33,13.23-18.33,9.82,0,13.17,9.19,13.17,18.22,0,10.44-4.18,18.33-13.17,18.33Zm.1-7.34c2.38,0,3.83-3.32,3.83-10.93,0-7.45-1.4-10.88-3.88-10.88S272,16.51,272,24.13s1.5,10.93,3.92,10.93Z"/><path class="cls-1" d="M158.78,15.94a37.85,37.85,0,0,1,7.79-1.4l.68,3.93h.15a9.14,9.14,0,0,1,7.65-4c5.94,0,9.19,4.24,9.19,11.58V41.8h-9.35V27.23c0-3.1-1-4.89-3.26-4.89a3.24,3.24,0,0,0-3,2.34,5.61,5.61,0,0,0-.26,2V41.8H159V24.18c0-3.59-.1-5.74-.21-8.24"/><path class="cls-1" d="M87.78,29.49A132.85,132.85,0,0,0,86.1,10.8a31.34,31.34,0,0,0-.84-3.53A6.24,6.24,0,0,0,81.31,3C78.89,2.1,73.92,1.08,63.75.49,58.9.21,52.87,0,45.37,0c-6.9,0-13.8.07-20.69.46C14.19,1,9.11,2.09,6.65,3A6.52,6.52,0,0,0,2.7,7.27a31,31,0,0,0-.85,3.55A133.06,133.06,0,0,0,.17,29.49C0,31.92,0,34.35,0,36.78,0,39,.17,41,.17,41c.13,3.61.32,6.7.53,9.34C1.26,57.15,2,61,2.7,63.21a6.52,6.52,0,0,0,3.94,4.32c2.46.87,7.54,1.91,18,2.5,6.89.38,13.8.48,20.69.46,7.5,0,13.53-.2,18.38-.49,10.17-.59,15.14-1.61,17.56-2.47a6.24,6.24,0,0,0,3.95-4.32c.68-2.19,1.44-6,2-12.84.21-2.65.4-5.75.53-9.37,0,0,.14-2,.17-4.19C88,34.36,88,31.92,87.78,29.49ZM72.24,39.77h0v0a28.65,28.65,0,0,1-56.5,0v0h0a1.09,1.09,0,0,1,0-.2,1.14,1.14,0,0,1,2-.72A34.69,34.69,0,0,0,44,50.48,34.68,34.68,0,0,0,70.23,38.86a1.14,1.14,0,0,1,2,.72A1.09,1.09,0,0,1,72.24,39.77ZM31.47,34.63A12.55,12.55,0,1,1,44,47.18,12.55,12.55,0,0,1,31.47,34.63Zm39.65-2.94a1.14,1.14,0,0,1-.88-.42A34.68,34.68,0,0,0,44,19.65,34.69,34.69,0,0,0,17.72,31.27a1.14,1.14,0,0,1-2-.72,1.08,1.08,0,0,1,0-.2h0v0a28.65,28.65,0,0,1,56.5,0v0h0a1.08,1.08,0,0,1,0,.2A1.14,1.14,0,0,1,71.12,31.69Z"/></g></g></svg>