<?xml version="1.0" encoding="UTF-8" standalone="no"?>
<!-- Created with Inkscape (http://www.inkscape.org/) -->
<svg
   xmlns:svg="http://www.w3.org/2000/svg"
   xmlns="http://www.w3.org/2000/svg"
   version="1.0"
   width="800pt"
   height="500pt"
   viewBox="0 0 800 500"
   id="svg2">
  <defs
     id="defs57" />
  <path
     d="M 392.99014,28.640334 C 514.57014,28.660334 636.16014,28.630334 757.74014,28.650334 C 757.74014,150.14033 757.75014,271.62033 757.74014,393.11033 C 636.15014,393.10033 514.56014,393.10033 392.98014,393.11033 C 393.00014,271.62033 392.97014,150.13033 392.99014,28.640334 z "
     style="fill:white"
     id="path1984" />
  <path
     d="M 28.258029,28.71283 C 149.83803,28.73283 271.42803,28.70283 393.00803,28.72283 C 393.00803,150.21283 393.01803,271.69283 393.00803,393.18283 C 271.41803,393.17283 149.82803,393.17283 28.248029,393.18283 C 28.268029,271.69283 28.238029,150.20283 28.258029,28.71283 z "
     style="fill:#010101"
     id="path6" />
  <path
     d="M 182.03803,53.072833 C 226.86803,41.632833 276.38803,50.952833 314.13803,77.672833 C 333.84803,91.402833 350.38803,109.60283 362.32803,130.43283 C 336.68803,144.85283 311.23803,159.63283 285.63803,174.12283 C 281.02803,176.74283 276.32803,179.21283 271.87803,182.08283 C 264.81803,169.97283 253.45803,160.29283 240.14803,155.77283 C 231.22803,152.42283 221.44803,152.08283 212.06803,153.22283 C 184.86803,156.79283 162.11803,182.08283 162.50803,209.71283 C 161.17803,233.98283 177.52803,257.54283 200.19803,265.81283 C 217.05803,272.42283 236.87803,270.35283 252.09803,260.59283 C 260.34803,255.53283 266.96803,248.19283 271.95803,239.96283 C 289.12803,250.24283 306.70803,259.85283 324.01803,269.91283 C 336.81803,277.13283 349.48803,284.60283 362.35803,291.71283 C 340.97803,329.07283 304.34803,357.55283 262.58803,368.28283 C 257.39803,369.93283 251.95803,370.50283 246.68803,371.81283 C 234.54803,373.19283 222.28803,374.44283 210.06803,373.26283 C 173.13803,371.20283 137.33803,355.48283 110.24803,330.37283 C 82.138031,304.54283 63.648029,268.48283 59.288029,230.55283 C 54.368029,192.70283 63.938029,153.28283 84.978031,121.49283 C 107.23803,87.622833 142.56803,62.442833 182.03803,53.072833 z "
     style="fill:#fefefe"
     id="path8" />
  <path
     d="M 418.91803,54.812833 C 453.64803,54.772833 488.38803,54.892833 523.11803,54.742833 C 558.16803,97.932833 592.62803,141.63283 627.54803,184.93283 C 627.61803,141.54283 627.52803,98.162833 627.58803,54.772833 C 662.30803,54.842833 697.02803,54.832833 731.74803,54.782833 C 731.79803,158.96283 731.78803,263.15283 731.75803,367.33283 C 696.97803,367.27283 662.19803,367.33283 627.41803,367.30283 C 593.40803,324.70283 559.20803,282.25283 525.23803,239.62283 C 524.56803,238.85283 523.87803,238.12283 523.15803,237.41283 C 523.36803,280.70283 523.19803,323.99283 523.23803,367.28283 C 488.45803,367.34283 453.67803,367.29283 418.89803,367.30283 C 418.91803,263.13283 418.88803,158.97283 418.91803,54.812833 z "
     style="fill:#010101"
     id="path10" />
  <path
     d="M 40.358029,441.65283 C 39.898029,431.50283 47.418029,421.65283 57.248029,419.20283 C 67.188029,415.94283 78.668031,420.96283 83.798031,429.91283 C 79.978031,432.57283 75.638029,434.40283 71.878029,437.16283 C 70.078029,435.14283 68.108029,432.82283 65.248029,432.43283 C 60.558029,431.53283 55.428029,434.96283 54.748029,439.75283 C 54.018029,442.14283 55.148029,444.49283 55.808029,446.75283 C 59.688029,452.04283 68.438029,451.78283 71.828029,446.08283 C 75.788029,448.56283 79.938031,450.72283 83.898031,453.20283 C 79.598031,460.27283 71.608029,465.34283 63.148029,464.56283 C 50.908029,465.23283 39.838029,453.76283 40.358029,441.65283 z "
     style="fill:#010101"
     id="path12" />
  <path
     d="M 251.39803,418.77283 C 259.85803,416.93283 269.13803,420.68283 274.28803,427.58283 C 281.90803,437.27283 279.89803,452.92283 269.82803,460.15283 C 264.17803,464.92283 256.31803,465.26283 249.34803,464.08283 C 243.62803,462.47283 238.63803,458.56283 235.58803,453.47283 C 232.13803,447.57283 231.82803,440.21283 233.75803,433.75283 C 236.42803,426.10283 243.37803,420.10283 251.39803,418.77283 z "
     style="fill:#010101"
     id="path14" />
  <path
     d="M 299.63803,419.27283 C 311.71803,415.28283 326.02803,423.69283 328.50803,436.14283 C 331.32803,446.44283 325.78803,458.18283 316.07803,462.62283 C 311.47803,465.08283 306.08803,464.72283 301.06803,464.34283 C 293.35803,462.96283 286.77803,457.05283 284.06803,449.76283 C 279.15803,437.60283 286.80803,422.30283 299.63803,419.27283 z "
     style="fill:#010101"
     id="path16" />
  <path
     d="M 621.53803,419.25283 C 634.83803,414.73283 650.68803,425.48283 650.99803,439.61283 C 652.02803,448.08283 647.73803,456.63283 640.59803,461.18283 C 635.29803,464.94283 628.49803,465.02283 622.30803,464.21283 C 614.51803,462.37283 608.05803,456.14283 605.63803,448.56283 C 604.43803,443.80283 604.46803,438.74283 605.80803,434.02283 C 608.36803,427.02283 614.22803,421.09283 621.53803,419.25283 z "
     style="fill:#010101"
     id="path18" />
  <path
     d="M 702.94803,419.36283 C 707.93803,419.35283 712.91803,419.36283 717.91803,419.35283 C 717.93803,424.10283 717.87803,428.85283 717.94803,433.60283 C 721.81803,429.01283 725.20803,424.04283 728.94803,419.34283 C 735.37803,419.38283 741.80803,419.34283 748.24803,419.36283 C 742.29803,426.40283 736.76803,433.79283 730.71803,440.74283 C 736.77803,448.35283 742.38803,456.30283 748.36803,463.98283 C 741.90803,464.10283 735.44803,464.00283 728.99803,464.04283 C 725.37803,458.43283 721.62803,452.91283 717.90803,447.37283 C 717.90803,452.93283 717.90803,458.48283 717.92803,464.04283 C 712.92803,464.03283 707.93803,464.04283 702.94803,464.03283 C 702.95803,449.14283 702.94803,434.25283 702.94803,419.36283 z "
     style="fill:#010101"
     id="path20" />
  <path
     d="M 98.258031,419.41283 C 105.73803,419.28283 113.21803,419.43283 120.70803,419.32283 C 124.06803,428.21283 126.37803,437.47283 129.44803,446.46283 C 131.60803,452.24283 132.74803,458.36283 135.09803,464.07283 C 129.69803,464.11283 124.29803,464.06283 118.89803,464.11283 C 118.20803,461.54283 117.74803,458.90283 116.67803,456.46283 C 112.08803,456.58283 107.48803,456.51283 102.89803,456.52283 C 101.97803,459.02283 101.11803,461.54283 100.33803,464.10283 C 95.078031,464.08283 89.828031,464.08283 84.578031,464.10283 C 88.908031,449.14283 94.128031,434.42283 98.258031,419.41283 z "
     style="fill:#010101"
     id="path22" />
  <path
     d="M 139.02803,419.37283 C 148.39803,419.42283 157.76803,419.21283 167.12803,419.47283 C 176.69803,419.57283 184.29803,429.98283 181.42803,439.12283 C 180.33803,443.56283 177.03803,447.05283 173.14803,449.28283 C 176.33803,454.11283 179.03803,459.24283 182.21803,464.08283 C 176.63803,464.11283 171.06803,464.05283 165.49803,464.11283 C 162.99803,459.81283 161.08803,455.19283 158.59803,450.88283 C 157.07803,450.93283 155.54803,450.97283 154.02803,451.03283 C 154.03803,455.38283 154.02803,459.73283 154.04803,464.08283 C 149.03803,464.08283 144.02803,464.10283 139.02803,464.07283 C 139.03803,449.17283 139.02803,434.27283 139.02803,419.37283 z "
     style="fill:#010101"
     id="path24" />
  <path
     d="M 185.68803,432.40283 C 185.67803,428.04283 185.68803,423.69283 185.68803,419.35283 C 200.63803,419.37283 215.59803,419.36283 230.54803,419.35283 C 230.54803,423.69283 230.54803,428.04283 230.54803,432.38283 C 225.90803,432.35283 221.25803,432.37283 216.61803,432.35283 C 216.61803,442.93283 216.60803,453.51283 216.62803,464.10283 C 211.05803,464.08283 205.49803,464.09283 199.92803,464.08283 C 199.94803,453.51283 199.92803,442.93283 199.93803,432.36283 C 195.18803,432.37283 190.43803,432.34283 185.68803,432.40283 z "
     style="fill:#010101"
     id="path26" />
  <path
     d="M 333.49803,464.10283 C 333.48803,449.19283 333.48803,434.27283 333.49803,419.35283 C 338.42803,419.44283 343.35803,419.22283 348.28803,419.43283 C 353.72803,425.08283 358.18803,431.71283 363.29803,437.70283 C 363.18803,431.59283 363.32803,425.48283 363.08803,419.38283 C 368.07803,419.34283 373.07803,419.36283 378.07803,419.36283 C 378.07803,434.27283 378.06803,449.18283 378.08803,464.09283 C 373.20803,464.09283 368.33803,464.08283 363.47803,464.10283 C 358.38803,457.93283 353.45803,451.63283 348.46803,445.39283 C 348.34803,451.62283 348.43803,457.85283 348.41803,464.08283 C 343.44803,464.09283 338.46803,464.07283 333.49803,464.10283 z "
     style="fill:#010101"
     id="path28" />
  <path
     d="M 407.98803,419.37283 C 413.05803,419.35283 418.12803,419.37283 423.19803,419.35283 C 428.14803,425.47283 432.93803,431.71283 438.00803,437.71283 C 438.05803,431.60283 438.00803,425.48283 438.02803,419.37283 C 442.97803,419.35283 447.91803,419.36283 452.86803,419.36283 C 452.85803,434.25283 452.87803,449.15283 452.85803,464.05283 C 447.95803,464.03283 443.06803,464.02283 438.16803,464.05283 C 433.00803,458.15283 428.29803,451.88283 423.40803,445.76283 C 423.24803,451.85283 423.35803,457.94283 423.32803,464.02283 C 418.21803,464.04283 413.09803,464.04283 407.98803,464.03283 C 407.99803,449.14283 407.98803,434.25283 407.98803,419.37283 z "
     style="fill:#010101"
     id="path30" />
  <path
     d="M 458.95803,419.36283 C 471.98803,419.35283 485.00803,419.36283 498.03803,419.36283 C 498.02803,423.68283 498.03803,428.00283 498.02803,432.33283 C 490.00803,432.30283 481.98803,432.32283 473.96803,432.32283 C 473.95803,433.27283 473.95803,435.18283 473.94803,436.13283 C 480.79803,436.15283 487.65803,436.13283 494.50803,436.14283 C 494.49803,439.88283 494.49803,443.62283 494.50803,447.37283 C 487.65803,447.36283 480.80803,447.36283 473.96803,447.37283 C 473.95803,448.88283 473.94803,450.39283 473.95803,451.91283 C 481.97803,451.92283 489.99803,451.92283 498.02803,451.90283 C 498.03803,455.95283 498.02803,459.99283 498.03803,464.04283 C 485.00803,464.03283 471.97803,464.04283 458.95803,464.03283 C 458.96803,449.14283 458.95803,434.25283 458.95803,419.36283 z "
     style="fill:#010101"
     id="path32" />
  <path
     d="M 502.93803,432.31283 C 502.94803,427.99283 502.94803,423.68283 502.94803,419.36283 C 517.89803,419.35283 532.83803,419.38283 547.77803,419.35283 C 547.78803,423.68283 547.79803,428.01283 547.77803,432.35283 C 543.09803,432.29283 538.41803,432.32283 533.73803,432.31283 C 533.75803,442.89283 533.71803,453.47283 533.75803,464.04283 C 528.14803,464.02283 522.53803,464.04283 516.93803,464.03283 C 516.94803,453.46283 516.92803,442.89283 516.94803,432.32283 C 512.27803,432.31283 507.60803,432.32283 502.93803,432.31283 z "
     style="fill:#010101"
     id="path34" />
  <path
     d="M 551.22803,419.36283 C 556.25803,419.36283 561.28803,419.35283 566.32803,419.36283 C 567.88803,425.70283 568.44803,432.23283 570.10803,438.56283 C 572.52803,432.61283 575.05803,426.71283 577.35803,420.72283 C 580.18803,426.61283 582.13803,432.90283 585.16803,438.70283 C 585.57803,432.14283 587.83803,425.88283 588.44803,419.34283 C 593.47803,419.37283 598.50803,419.37283 603.53803,419.34283 C 601.08803,434.29283 597.74803,449.09283 595.24803,464.02283 C 591.14803,464.05283 587.04803,464.01283 582.94803,464.07283 C 580.80803,460.20283 579.37803,456.00283 577.38803,452.05283 C 575.70803,456.05283 573.89803,459.99283 572.30803,464.03283 C 568.18803,464.04283 564.05803,464.03283 559.93803,464.04283 C 556.73803,449.21283 554.29803,434.23283 551.22803,419.36283 z "
     style="fill:#010101"
     id="path36" />
  <path
     d="M 655.55803,464.05283 C 655.56803,449.14283 655.49803,434.23283 655.59803,419.32283 C 662.44803,419.40283 669.30803,419.34283 676.16803,419.36283 C 680.12803,419.38283 684.17803,419.07283 688.02803,420.23283 C 693.81803,422.50283 698.56803,428.21283 698.33803,434.65283 C 698.83803,440.70283 694.95803,446.27283 689.75803,449.01283 C 692.41803,454.14283 695.65803,458.95283 698.47803,464.00283 C 692.92803,464.09283 687.37803,463.97283 681.82803,464.08283 C 679.58803,459.69283 677.38803,455.29283 675.14803,450.90283 C 673.59803,450.87283 672.05803,450.86283 670.51803,450.84283 C 670.49803,455.24283 670.50803,459.64283 670.50803,464.04283 C 665.51803,464.03283 660.53803,464.02283 655.55803,464.05283 z "
     style="fill:#010101"
     id="path38" />
  <path
     d="M 110.06803,431.73283 C 110.49803,436.39283 112.67803,440.63283 113.45803,445.22283 C 110.86803,445.22283 108.26803,445.22283 105.67803,445.22283 C 107.61803,440.87283 107.93803,436.01283 110.06803,431.73283 z "
     style="fill:#fefefe"
     id="path40" />
  <path
     d="M 154.02803,432.38283 C 157.71803,432.46283 161.43803,432.08283 165.10803,432.60283 C 167.82803,434.37283 167.50803,438.62283 164.38803,439.74283 C 160.93803,439.97283 157.48803,439.78283 154.03803,439.82283 C 154.03803,437.33283 154.02803,434.85283 154.02803,432.38283 z "
     style="fill:#fefefe"
     id="path42" />
  <path
     d="M 670.50803,432.31283 C 674.07803,432.40283 677.68803,432.07283 681.24803,432.52283 C 683.95803,433.60283 683.52803,436.88283 682.52803,439.05283 C 678.66803,440.41283 674.51803,439.64283 670.51803,439.83283 C 670.50803,437.32283 670.49803,434.82283 670.50803,432.31283 z "
     style="fill:#fefefe"
     id="path44" />
  <path
     d="M 251.91803,434.30283 C 256.07803,431.61283 262.27803,434.38283 263.51803,439.05283 C 264.58803,441.65283 263.53803,444.37283 262.52803,446.79283 C 259.54803,450.00283 254.18803,451.41283 250.66803,448.24283 C 245.89803,445.00283 246.53803,436.59283 251.91803,434.30283 z "
     style="fill:#fefefe"
     id="path46" />
  <path
     d="M 300.18803,435.63283 C 304.28803,431.29283 312.39803,433.40283 313.80803,439.19283 C 315.10803,441.83283 313.60803,444.55283 312.58803,446.99283 C 310.45803,448.70283 308.06803,450.50283 305.14803,449.96283 C 298.31803,449.74283 294.95803,440.01283 300.18803,435.63283 z "
     style="fill:#fefefe"
     id="path48" />
  <path
     d="M 624.52803,434.07283 C 629.52803,431.21283 636.59803,435.81283 636.10803,441.57283 C 636.71803,447.94283 628.43803,452.49283 623.39803,448.58283 C 618.00803,445.50283 618.63803,436.25283 624.52803,434.07283 z "
     style="fill:#fefefe"
     id="path50" />
  <path
     d="M 755.03803,451.95283 C 758.27803,451.95283 761.51803,451.79283 764.75803,451.96283 C 764.96803,452.46283 765.38803,453.45283 765.59803,453.94283 C 764.15803,454.02283 762.72803,454.09283 761.30803,454.16283 C 761.31803,457.47283 761.31803,460.78283 761.33803,464.09283 C 760.64803,464.13283 759.27803,464.19283 758.58803,464.22283 C 758.55803,460.84283 758.56803,457.47283 758.57803,454.10283 C 757.39803,454.09283 756.21803,454.08283 755.04803,454.08283 C 755.04803,453.55283 755.04803,452.48283 755.03803,451.95283 z "
     style="fill:#010101"
     id="path52" />
  <path
     d="M 766.42803,451.84283 C 767.65803,451.85283 768.90803,451.90283 770.15803,451.99283 C 770.98803,454.97283 771.55803,458.03283 772.39803,461.02283 C 773.08803,457.94283 773.74803,454.87283 774.67803,451.86283 C 775.80803,451.88283 776.95803,451.90283 778.11803,451.93283 C 778.10803,456.00283 778.10803,460.08283 778.11803,464.16283 C 777.53803,464.16283 776.36803,464.17283 775.78803,464.18283 C 775.81803,460.91283 775.68803,457.64283 775.69803,454.38283 C 775.20803,457.70283 774.41803,460.96283 773.53803,464.20283 C 772.65803,464.17283 771.77803,464.15283 770.90803,464.14283 C 770.43803,460.91283 769.88803,457.69283 768.95803,454.56283 C 768.71803,457.77283 768.81803,460.98283 768.83803,464.20283 C 768.21803,464.19283 766.98803,464.16283 766.37803,464.14283 C 766.40803,460.04283 766.37803,455.94283 766.42803,451.84283 z "
     style="fill:#010101"
     id="path54" />
</svg>
