<?xml version="1.0" encoding="utf-8"?>
<!-- Generator: Adobe Illustrator 27.2.0, SVG Export Plug-In . SVG Version: 6.00 Build 0)  -->
<svg version="1.1" id="Шар_1" xmlns="http://www.w3.org/2000/svg" xmlns:xlink="http://www.w3.org/1999/xlink" x="0px" y="0px"
	 viewBox="0 0 583.27 300" style="enable-background:new 0 0 583.27 300;" xml:space="preserve">
<style type="text/css">
	.st0{fill:#4023E0;}
	.st1{fill-rule:evenodd;clip-rule:evenodd;fill:#4023E0;}
</style>
<g>
	<g>
		<path class="st0" d="M131.46,257.3c1.72,1.73,2.58,4.07,2.58,7.06v15.47c0,3.43-0.82,6.04-2.47,7.84
			c-1.65,1.79-3.96,3.36-6.95,4.7c-5.08,2.4-11.14,4.27-18.15,5.61c-7.03,1.34-14.5,2.01-22.42,2.01c-17.48,0-32.5-3.32-45.04-9.96
			c-12.56-6.66-22.2-16.21-28.91-28.69C3.36,248.87,0,233.89,0,216.4c0-16.88,3.54-31.56,10.65-44.05
			c7.09-12.47,17.07-22.14,29.92-29.02c12.85-6.87,27.95-10.31,45.28-10.31c6.87,0,13.59,0.53,20.18,1.58
			c6.57,1.05,12.61,2.83,18.15,5.37c2.69,1.2,4.7,2.73,6.04,4.6c1.35,1.87,2.02,4.37,2.02,7.51v15.24c0,2.85-0.75,5.19-2.25,7.06
			c-1.49,1.87-3.73,2.8-6.73,2.8c-0.74,0-1.6-0.08-2.57-0.22c-0.98-0.15-1.98-0.45-3.03-0.91c-3.95-1.51-8-2.78-12.1-3.81
			c-4.19-1.03-8.75-1.56-13.67-1.56c-14.8,0-26.23,3.96-34.3,11.87c-8.07,7.93-12.1,19.2-12.1,33.85c0,14.5,3.92,25.77,11.76,33.84
			c7.84,8.08,18.87,12.11,33.06,12.11c5.39,0,10.35-0.6,14.9-1.8c4.67-1.23,9.28-2.72,13.79-4.48c2.09-0.89,4.03-1.34,5.83-1.34
			C127.54,254.73,129.74,255.59,131.46,257.3z"/>
		<path class="st0" d="M258.93,210.79c12.7-7.17,19.06-17.85,19.06-32.05c0-13.74-5.12-24.24-15.36-31.49
			c-10.23-7.24-24.99-10.87-44.26-10.87h-51.11c-4.33,0-7.84,1.35-10.54,4.03c-2.68,2.69-4.03,6.21-4.03,10.54v131.12
			c0,4.34,1.35,7.86,4.03,10.54c2.69,2.69,6.21,4.05,10.54,4.05h54.92c20.18,0,35.97-4.19,47.4-12.56
			c11.44-8.37,17.15-19.8,17.15-34.3C286.72,230.68,277.46,217.67,258.93,210.79z M194.6,168.65h19.95
			c14.04,0,21.07,5.09,21.07,15.25c0,5.08-1.8,9.04-5.39,11.87c-3.59,2.85-8.82,4.26-15.68,4.26H194.6V168.65z M237.74,259.99
			c-4.1,2.92-10.12,4.37-18.04,4.37h-25.1v-33.39h25.33c15.99,0,23.99,5.68,23.99,17.04C243.91,253.09,241.86,257.08,237.74,259.99z
			"/>
		<path class="st0" d="M409.08,210.79c12.7-7.17,19.05-17.85,19.05-32.05c0-13.74-5.12-24.24-15.35-31.49
			c-10.24-7.24-24.99-10.87-44.28-10.87h-51.1c-4.34,0-7.84,1.35-10.54,4.03c-2.69,2.69-4.03,6.21-4.03,10.54v131.12
			c0,4.34,1.34,7.86,4.03,10.54c2.69,2.69,6.2,4.05,10.54,4.05h54.92c20.16,0,35.97-4.19,47.4-12.56
			c11.43-8.37,17.15-19.8,17.15-34.3C436.88,230.68,427.61,217.67,409.08,210.79z M344.76,168.65h19.94
			c14.05,0,21.07,5.09,21.07,15.25c0,5.08-1.79,9.04-5.37,11.87c-3.59,2.85-8.82,4.26-15.7,4.26h-19.94V168.65z M387.9,259.99
			c-4.12,2.92-10.13,4.37-18.04,4.37h-25.1v-33.39h25.33c15.99,0,23.99,5.68,23.99,17.04C394.07,253.09,392,257.08,387.9,259.99z"/>
		<path class="st0" d="M583.27,264.36v15.47c0,3.43-0.82,6.04-2.47,7.84c-1.65,1.79-3.96,3.36-6.95,4.7
			c-5.08,2.4-11.14,4.27-18.15,5.61c-7.03,1.34-14.5,2.01-22.41,2.01c-17.48,0-32.51-3.32-45.06-9.96
			c-12.56-6.66-22.19-16.21-28.91-28.69c-6.73-12.49-10.09-27.46-10.09-44.95c0-16.88,3.54-31.56,10.65-44.05
			c7.09-12.47,17.07-22.14,29.92-29.02c12.85-6.87,27.95-10.31,45.28-10.31c6.87,0,13.59,0.53,20.18,1.58
			c6.57,1.05,12.63,2.83,18.15,5.37c2.69,1.2,4.7,2.73,6.06,4.6c1.34,1.87,2.01,4.37,2.01,7.51v15.24c0,2.85-0.75,5.19-2.23,7.06
			c-1.51,1.87-3.74,2.8-6.73,2.8c-0.86-0.01-1.73-0.08-2.58-0.22c-0.98-0.15-1.98-0.45-3.03-0.91c-3.95-1.51-8-2.78-12.1-3.81
			c-4.19-1.03-8.75-1.56-13.67-1.56c-14.79,0-26.23,3.96-34.3,11.87c-8.07,7.93-12.1,19.2-12.1,33.85c0,14.5,3.92,25.77,11.76,33.84
			c7.84,8.08,18.87,12.11,33.06,12.11c5.39,0,10.35-0.6,14.92-1.8c4.67-1.23,9.27-2.72,13.77-4.48c2.09-0.89,4.05-1.34,5.83-1.34
			c2.69,0,4.9,0.85,6.61,2.57C582.4,259.03,583.27,261.38,583.27,264.36z"/>
	</g>
	<g>
		<g>
			<path class="st1" d="M174.92,28.15h-7.86v12.71h7.86c2.75,0,4.79-0.64,6.2-1.78c1.41-1.14,2.12-2.82,2.12-4.85
				C183.24,30.19,180.51,28.15,174.92,28.15z M176.24,48.89h-9.18v13.74h9.01c3.1,0,5.51-0.61,7.17-1.76
				c1.69-1.14,2.47-2.81,2.47-5.02C185.79,51.17,182.63,48.89,176.24,48.89z M131.14,90.78h91.02V0h-91.02V90.78z M156.7,19.85
				h19.19c5.68,0,10.1,1.17,13.2,3.37c3.1,2.29,4.68,5.46,4.68,9.7c0,2.45-0.52,4.49-1.69,6.35c-1.15,1.76-2.73,3.18-4.93,4.24
				c3.01,0.95,5.31,2.54,6.88,4.74c1.61,2.12,2.41,4.77,2.41,7.86c0.09,3.09-0.72,5.74-2.32,7.94c-1.58,2.2-3.79,3.87-6.63,5.02
				c-2.93,1.17-6.37,1.78-10.36,1.78H156.7V19.85z M289.31,28.15h-7.86v12.71h7.86c2.75,0,4.79-0.64,6.2-1.78
				c1.41-1.14,2.12-2.82,2.12-4.85C297.63,30.19,294.91,28.15,289.31,28.15z M290.63,48.89h-9.18v13.74h9.01
				c3.1,0,5.51-0.61,7.17-1.76c1.69-1.14,2.47-2.81,2.47-5.02C300.18,51.17,297.03,48.89,290.63,48.89z M245.54,90.78h91.02V0
				h-91.02V90.78z M271.1,19.85h19.19c5.68,0,10.1,1.17,13.2,3.37c3.1,2.29,4.68,5.46,4.68,9.7c0,2.45-0.52,4.49-1.69,6.35
				c-1.15,1.76-2.73,3.18-4.93,4.24c3.01,0.95,5.31,2.54,6.88,4.74c1.61,2.12,2.41,4.77,2.41,7.86c0.09,3.09-0.72,5.74-2.32,7.94
				c-1.58,2.2-3.79,3.87-6.63,5.02c-2.93,1.17-6.37,1.78-10.36,1.78H271.1V19.85z M359.91,0v90.78h91.02V0H359.91z M425.38,67.67
				h-0.09c-2.12,1.14-4.62,2.12-7.34,2.73c-2.84,0.7-5.74,0.98-8.84,0.98c-4.07,0-7.8-0.61-11.07-1.78c-3.27-1.23-6-2.9-8.32-5.1
				c-2.29-2.2-3.96-4.93-5.22-8.22c-1.23-3.26-1.75-6.86-1.75-10.93c0-3.96,0.6-7.5,1.86-10.76c1.23-3.18,3.07-5.91,5.39-8.19
				c2.38-2.31,5.22-4.07,8.49-5.21c3.27-1.23,6.97-1.87,11.04-1.87c2.84,0,5.48,0.28,8.06,0.89c2.55,0.61,4.85,1.42,7.06,2.56v9.87
				c-1.95-1.31-4.16-2.29-6.45-2.98c-2.38-0.72-4.85-1.06-7.26-0.98c-3.53,0-6.54,0.61-9.01,1.92c-2.47,1.25-4.42,3.29-5.65,5.66
				c-1.35,2.48-1.95,5.46-1.95,9c0,3.51,0.6,6.61,1.95,9.09c1.23,2.45,3.18,4.4,5.57,5.74c2.47,1.31,5.39,1.92,8.84,1.92
				c5.31,0,10.18-1.39,14.69-4.15V67.67z"/>
		</g>
	</g>
</g>
</svg>
