<?xml version="1.0" encoding="UTF-8" standalone="no"?>
<svg
   id="a"
   viewBox="0 0 1013.2633 433.8662"
   version="1.1"
   sodipodi:docname="CBeebies.svg"
   width="1013.2632"
   height="433.86621"
   inkscape:version="1.4 (86a8ad7, 2024-10-11)"
   xmlns:inkscape="http://www.inkscape.org/namespaces/inkscape"
   xmlns:sodipodi="http://sodipodi.sourceforge.net/DTD/sodipodi-0.dtd"
   xmlns="http://www.w3.org/2000/svg"
   xmlns:svg="http://www.w3.org/2000/svg">
  <sodipodi:namedview
     id="namedview12"
     pagecolor="#ffffff"
     bordercolor="#000000"
     borderopacity="0.25"
     inkscape:showpageshadow="2"
     inkscape:pageopacity="0.0"
     inkscape:pagecheckerboard="0"
     inkscape:deskcolor="#d1d1d1"
     inkscape:zoom="0.54072904"
     inkscape:cx="381.89183"
     inkscape:cy="374.49441"
     inkscape:window-width="1920"
     inkscape:window-height="1009"
     inkscape:window-x="-8"
     inkscape:window-y="-8"
     inkscape:window-maximized="1"
     inkscape:current-layer="a" />
  <defs
     id="defs1">
    <style
       id="style1">.b{fill:#ffe727;}.c{fill:#1079eb;}</style>
  </defs>
  <path
     class="c"
     d="m 998.27356,257.13183 c -4.9405,-5.00098 -10.1924,-9.12305 -15.6143,-12.25391 -7.3135,-4.23145 -15.4414,-7.49609 -24.1836,-9.71191 -7.8926,-1.99414 -16.0205,-3.14941 -24.1601,-3.43359 -24.5303,-0.86328 -45.3741,4.25391 -61.9502,15.17383 -8.5889,-7.75977 -18.6504,-13.64844 -30.0391,-17.56445 -7.16699,-2.46191 -14.64844,-4.02148 -22.38965,-4.67383 V 20 c 0,-11.04569 -8.95431,-20 -20,-20 H 213.32724 c -11.04569,0 -20,8.95431 -20,20 v 190.97852 c -8.32422,1.93652 -16.0166,5.5498 -22.82715,10.76758 -5.94141,-4.32324 -12.61914,-7.72754 -19.93848,-10.13965 -7.35059,-2.4248 -14.97949,-3.99121 -22.70996,-4.66113 -6.6748,-0.57031 -13.00977,-0.65625 -18.83105,-0.24902 -21.921877,1.5332 -41.461907,7.5459 -58.075197,17.86816 -17.49219,10.86621 -30.87793,25.57422 -39.78223,43.70996 -8.7031204,17.72168 -12.3457004,37.71484 -10.82812045,59.42578 1.54102005,22.04004 7.62109005,41.41992 18.06445045,57.58691 11.11719,17.22754 26.39062,30.12207 45.39062,38.32324 14.59863,6.30371 30.91504,9.48047 48.628907,9.48047 3.55469,0 7.16602,-0.12793 10.83008,-0.38477 h 0.003 c 5.60547,-0.39258 11.56934,-1.31738 18.26855,-2.83594 6.8584,-1.5625 13.68066,-3.76758 20.29395,-6.56348 2.19043,-0.92676 4.31445,-1.9375 6.37305,-3.02344 8.58203,5.34766 18.54785,8.50781 29.50098,9.27441 l 41.39648,2.89453 c 3.81445,0.2666 7.54199,0.40039 11.18848,0.40039 21.98438,0 40.88477,-4.84375 56.28809,-14.44043 4.29785,-2.67578 8.24316,-5.67871 11.83008,-8.96875 15.17969,9.53906 33.19141,14.34766 53.79395,14.34766 6.70801,0 13.69141,-0.50879 20.9375,-1.52734 h 9.8e-4 c 7.64648,-1.07422 15.17383,-2.71777 22.37695,-4.88379 5.40723,-1.62695 10.57715,-3.69727 15.47363,-6.16699 17.39062,13.99609 40.3125,21.58008 68.30762,22.55762 h 0.002 c 1.81934,0.0635 3.6377,0.0957 5.45215,0.0957 5.98535,0 11.92773,-0.3457 17.73145,-1.03125 9.51367,-1.12598 18.59375,-3.58105 26.98828,-7.29688 l 1.1123,-0.5127 c 3.03809,-1.45801 5.90723,-3.14258 8.61426,-5.02246 6.39648,4.00098 13.47852,7.03125 21.21094,9.04004 6.45703,1.7168 13.32715,2.87109 20.44531,3.43359 0.84473,0.0664 1.49316,0.13184 2.05078,0.1875 2.69043,0.2666 4.99707,0.42871 7.70801,0.42871 1.90625,0 4.0127,-0.0801 6.5918,-0.26074 20.4043,-1.42773 38.05176,-6.51758 52.79004,-15.14062 9.90137,8.49316 22.26074,13.45215 36.20508,14.42871 1.64258,0.11523 3.27051,0.17188 4.88281,0.17188 14.94043,0 28.55469,-4.90625 39.62402,-14.33398 2.69531,-2.29688 5.14258,-4.83594 7.35742,-7.5625 14.85352,8.9082 32.34473,13.39551 52.25293,13.39551 6.70801,0 13.69141,-0.50879 20.9375,-1.52734 h 9.8e-4 c 7.64648,-1.07422 15.17382,-2.71777 22.37692,-4.88379 2.4639,-0.74121 4.874,-1.58008 7.2373,-2.49902 3.1309,2.25293 6.4551,4.28711 9.9756,6.0625 l 0.7735,0.37988 c 5.5488,2.65039 12.0585,4.92969 19.8925,6.9668 8.1182,2.1123 16.3369,3.32715 24.4297,3.60938 1.8721,0.0654 3.7207,0.0977 5.5479,0.0977 23.2304,0 42.8467,-5.27539 58.3681,-15.70801 20.27252,-13.62305 31.93562,-35.41309 32.84282,-61.3584 0.4717,-13.50781 -2.0771,-24.53125 -5.9717,-33.39551 3.9619,-7.30957 6.2061,-15.61035 6.5127,-24.43164 0.5401,-15.45508 -4.7636,-29.64551 -14.95212,-39.97168 z"
     id="path1" />
  <g
     id="g4"
     transform="translate(-156.17404,-156.17415)">
    <path
       class="b"
       d="M 389.50066,196.17392 V 352.34814 H 545.67489 V 196.17391 H 389.50066 Z m 108.9099,110.21614 c -2.66852,3.76824 -6.47094,6.67702 -11.40725,8.72352 -4.93898,2.04817 -10.87035,3.07144 -17.7984,3.07144 h -34.99932 v -87.84799 h 32.9685 c 9.71477,0 17.24043,1.94675 22.57638,5.8359 5.33432,3.89135 8.00337,9.48161 8.00337,16.77083 0,4.17765 -0.95545,7.80224 -2.86698,10.87364 -1.91153,3.07144 -4.7389,5.51005 -8.48112,7.31038 5.176,1.72007 9.13836,4.44445 11.88552,8.17037 2.74769,3.72811 4.12127,8.2534 4.12127,13.5769 0,5.24267 -1.33455,9.74837 -4.00197,13.51499 z m -22.33722,-42.94111 c 2.42826,-2.00637 3.64351,-4.81101 3.64351,-8.41659 0,-6.9606 -4.73952,-10.44307 -14.21517,-10.44307 h -13.49764 v 21.86981 h 13.49764 c 4.61803,0 8.14173,-1.00211 10.57166,-3.01015 z m -8.30215,16.77079 h -15.7671 v 23.71299 h 15.52851 c 5.33428,0 9.43657,-1.00211 12.30355,-3.01015 2.86646,-2.00642 4.30023,-4.89346 4.30023,-8.66171 0,-8.02672 -5.45581,-12.04113 -16.36519,-12.04113 z"
       id="path2" />
    <path
       class="b"
       d="M 584.71851,196.17389 V 352.34815 H 740.89278 V 196.17388 H 584.71851 Z m 108.90993,110.21617 c -2.66852,3.76824 -6.47094,6.67702 -11.40725,8.72352 -4.93898,2.04817 -10.87035,3.07145 -17.7984,3.07145 h -34.99933 v -87.84801 h 32.96851 c 9.71477,0 17.24044,1.94675 22.57639,5.8359 5.33433,3.89135 8.00337,9.48161 8.00337,16.77084 0,4.17765 -0.95545,7.80224 -2.86698,10.87364 -1.91153,3.07144 -4.7389,5.51005 -8.48112,7.31039 5.176,1.72007 9.13836,4.44445 11.88552,8.17037 2.74769,3.72811 4.12127,8.2534 4.12127,13.57691 0,5.24267 -1.33455,9.74837 -4.00197,13.515 z m -22.33723,-42.94112 c 2.42826,-2.00637 3.64352,-4.81101 3.64352,-8.41659 0,-6.9606 -4.73952,-10.44307 -14.21518,-10.44307 H 647.2219 v 21.86982 h 13.49765 c 4.61803,0 8.14173,-1.00211 10.57166,-3.01015 z m -8.30216,16.77079 h -15.7671 v 23.713 h 15.52852 c 5.33428,0 9.43658,-1.00211 12.30356,-3.01015 2.86646,-2.00642 4.30023,-4.89346 4.30023,-8.66171 0,-8.02673 -5.45581,-12.04114 -16.3652,-12.04114 z"
       id="path3" />
    <path
       class="b"
       d="M 779.93635,352.34814 H 936.11061 V 196.17387 H 779.93634 v 156.17427 z m 112.16566,-39.73063 c -3.63869,2.0075 -7.85427,3.59364 -12.64747,4.75628 -4.79525,1.16317 -9.83894,1.74665 -15.12827,1.74665 -7.02676,0 -13.35073,-1.02381 -18.97137,-3.07088 -5.6223,-2.04707 -10.37472,-4.99811 -14.25959,-8.8515 -3.88646,-3.85392 -6.86247,-8.56953 -8.92796,-14.15058 -2.06662,-5.57887 -3.10019,-11.8622 -3.10019,-18.84719 0,-6.82288 1.07375,-12.98523 3.22437,-18.4855 2.14903,-5.49864 5.24862,-10.21585 9.29997,-14.1506 4.0491,-3.93256 8.90624,-6.94322 14.56918,-9.03208 5.66188,-2.08664 12.00643,-3.13107 19.03373,-3.13107 4.87667,0 9.48598,0.50269 13.82581,1.50535 4.33976,1.00484 8.36993,2.46895 12.08991,4.39566 v 17.10053 c -3.39079,-2.24663 -7.06793,-3.95315 -11.03628,-5.11795 -3.96728,-1.16318 -8.14275,-1.7461 -12.52322,-1.7461 -6.03496,0 -11.18164,1.12519 -15.43793,3.37239 -4.25847,2.24826 -7.52296,5.4997 -9.79564,9.75437 -2.2748,4.25629 -3.40978,9.43498 -3.40978,15.53501 0,6.10274 1.09434,11.30149 3.2862,15.59573 2.18914,4.29588 5.37228,7.56794 9.54721,9.81512 4.17388,2.24826 9.23762,3.37184 15.1901,3.37184 9.09232,0 17.48284,-2.36701 25.17122,-7.10539 v 16.73993 z"
       id="path4" />
  </g>
  <g
     id="g12"
     transform="translate(-156.17404,-156.17415)">
    <path
       class="b"
       d="m 543.72987,538.82727 c -21.15851,2.97363 -37.84541,0.13595 -50.06063,-8.51252 -12.21521,-8.64847 -19.68304,-22.6507 -22.40432,-42.01363 -1.69089,-12.03133 -0.70439,-22.81569 2.96185,-32.35776 3.6637,-9.53791 9.44337,-17.33082 17.33889,-23.37871 7.89298,-6.04373 17.30212,-9.83522 28.22822,-11.37078 10.09301,-1.41848 19.2898,-0.70124 27.59017,2.1512 8.29704,2.85291 15.15339,7.49513 20.57205,13.92568 5.41546,6.431 8.79527,14.41745 10.13628,23.95925 0.89418,6.36244 -0.46578,11.73645 -4.08022,16.12152 -3.61399,4.38828 -9.15521,7.10396 -16.62288,8.15347 l -42.52453,5.97643 c 2.37204,6.85873 5.77976,11.28109 10.21983,13.26482 4.4374,1.98792 10.04583,2.50167 16.82315,1.54918 2.62534,-0.36897 5.07587,-0.99442 7.35109,-1.879 2.2724,-0.88147 4.46686,-1.82428 6.58305,-2.82895 3.41956,-1.74994 6.44357,-2.80989 9.07224,-3.17932 4.14865,-0.58305 7.90708,0.33639 11.28052,2.75109 3.37083,2.41832 5.36876,5.83958 5.99053,10.26371 0.54438,3.87344 0.0628,7.2197 -1.44484,10.03933 -1.50704,2.82281 -3.60605,5.19715 -6.29646,7.12513 -4.25251,2.85531 -9.01731,5.07482 -14.29408,6.66284 -5.2767,1.58747 -10.75116,2.78033 -16.41991,3.57702 z m -32.22106,-69.71984 28.53288,-4.01004 c -1.45921,-6.15993 -3.55052,-10.49578 -6.2694,-13.00078 -2.72232,-2.50509 -5.97062,-3.49212 -9.74485,-2.96169 -8.27668,1.16321 -12.44924,7.82295 -12.51864,19.97251 z"
       id="path5" />
    <path
       class="b"
       d="m 656.85236,549.9693 c -21.72862,-0.75878 -37.94933,-6.55102 -48.66215,-17.37617 -10.71282,-10.82515 -15.72223,-26.17649 -15.02785,-46.06115 0.43146,-12.35551 3.32564,-22.98832 8.68569,-31.90272 5.35677,-8.91067 12.52565,-15.69877 21.50649,-20.36429 8.97756,-4.6618 19.07652,-6.79871 30.29702,-6.40688 10.36496,0.36195 19.45443,2.70577 27.2683,7.03091 7.81044,4.32502 13.861,10.18854 18.15482,17.59015 4.29054,7.40149 6.26628,16.00201 5.9241,25.8009 -0.22817,6.53387 -2.54058,11.67892 -6.93749,15.43459 -4.39703,3.75895 -10.4298,5.50124 -18.09868,5.23344 l -43.67033,-1.525 c 1.16512,7.29235 3.7986,12.32618 7.89752,15.09866 4.0955,2.7762 9.625,4.28205 16.58493,4.52509 2.69608,0.0942 5.2623,-0.0996 7.69863,-0.58404 2.43295,-0.4818 4.79864,-1.03885 7.09682,-1.6717 3.73599,-1.1494 6.95368,-1.67724 9.65318,-1.58298 4.26043,0.14878 7.86433,1.73428 10.81822,4.75015 2.95063,3.01905 4.34825,6.80057 4.18959,11.3439 -0.13891,3.97781 -1.2128,7.24603 -3.22183,9.80522 -2.00901,2.56248 -4.53199,4.57094 -7.56876,6.02759 -4.76602,2.10992 -9.93307,3.49218 -15.50157,4.15115 -5.56835,0.65843 -11.26514,0.88648 -17.08663,0.68319 z m -19.96964,-75.56046 29.30169,1.02324 c -0.37384,-6.43077 -1.70342,-11.14531 -3.98541,-14.13603 -2.28542,-2.99141 -5.36617,-4.5545 -9.24209,-4.68985 -8.49969,-0.29682 -13.85783,5.6397 -16.07419,17.80264 z"
       id="path6" />
    <path
       class="b"
       d="m 873.964,422.3178 c -6.97911,-0.48803 -12.28606,-2.45657 -15.9202,-5.91174 -3.63433,-3.45234 -5.25035,-8.05507 -4.84779,-13.81195 0.40233,-5.75358 2.64323,-10.08708 6.72286,-13.00285 4.0794,-2.91247 9.60891,-4.12657 16.58802,-3.63855 6.97911,0.48802 12.28571,2.45986 15.92008,5.91173 3.63413,3.45517 5.25012,8.05837 4.84779,13.81195 -0.40256,5.75689 -2.64343,10.08991 -6.72286,13.00285 -4.07963,2.91577 -9.60879,4.12658 -16.5879,3.63855 z m -28.57472,103.0312 5.11416,-73.13586 c 0.43281,-6.18948 2.74753,-11.07507 6.95022,-14.65586 4.19937,-3.57809 9.45741,-5.14775 15.77378,-4.70606 6.31339,0.44148 11.30168,2.72763 14.96532,6.85555 3.66033,4.13063 5.27569,9.29104 4.84288,15.48051 l -5.11416,73.13586 c -0.43301,6.1924 -2.80024,11.78423 -6.99962,15.36232 -4.20268,3.58079 -9.46039,5.14754 -15.77378,4.70606 -6.31637,-0.44168 -11.30499,-2.72492 -14.96532,-6.85555 -3.66364,-4.12792 -5.22649,-9.99457 -4.79348,-16.18697 z"
       id="path7" />
    <path
       class="b"
       d="m 981.84588,538.82727 c -21.15851,2.97363 -37.84541,0.13595 -50.06063,-8.51252 -12.21521,-8.64847 -19.68304,-22.6507 -22.40432,-42.01363 -1.69089,-12.03133 -0.70439,-22.81569 2.96185,-32.35776 3.6637,-9.53791 9.44337,-17.33082 17.33889,-23.37871 7.89298,-6.04373 17.30212,-9.83522 28.22822,-11.37078 10.09301,-1.41848 19.2898,-0.70124 27.59017,2.1512 8.29704,2.85291 15.15334,7.49513 20.57204,13.92568 5.4155,6.431 8.7953,14.41745 10.1363,23.95925 0.8942,6.36244 -0.4658,11.73645 -4.0802,16.12152 -3.614,4.38828 -9.1552,7.10396 -16.62291,8.15347 l -42.52453,5.97643 c 2.37204,6.85873 5.77976,11.28109 10.21983,13.26482 4.4374,1.98792 10.04583,2.50167 16.82315,1.54918 2.62534,-0.36897 5.07587,-0.99442 7.35109,-1.879 2.2724,-0.88147 4.46686,-1.82428 6.58305,-2.82895 3.41956,-1.74994 6.44352,-2.80989 9.07222,-3.17932 4.1487,-0.58305 7.9071,0.33639 11.2805,2.75109 3.3709,2.41832 5.3688,5.83958 5.9906,10.26371 0.5443,3.87344 0.063,7.2197 -1.4449,10.03933 -1.507,2.82281 -3.606,5.19715 -6.2964,7.12513 -4.2525,2.85531 -9.0173,5.07482 -14.29411,6.66284 -5.2767,1.58747 -10.75116,2.78033 -16.41991,3.57702 z m -32.22106,-69.71984 28.53288,-4.01004 c -1.45921,-6.15993 -3.55052,-10.49578 -6.2694,-13.00078 -2.72232,-2.50509 -5.97062,-3.49212 -9.74485,-2.96169 -8.27668,1.16321 -12.44924,7.82295 -12.51864,19.97251 z"
       id="path8" />
    <path
       class="b"
       d="m 1073.4953,548.0982 c -5.2024,-0.18167 -10.453,-0.96564 -15.7521,-2.34485 -5.3024,-1.37933 -9.5434,-2.83011 -12.7264,-4.35028 -3.5982,-1.81463 -6.6851,-4.10242 -9.2605,-6.86771 -2.5789,-2.76215 -3.7856,-6.46601 -3.6236,-11.10518 0.1423,-4.07506 1.5596,-7.43988 4.2581,-10.09044 2.6953,-2.65013 6.2915,-3.89722 10.7923,-3.74005 1.265,0.0442 2.6624,0.27148 4.1987,0.67453 1.5329,0.40673 3.3382,1.13929 5.4126,2.19484 2.9078,1.36787 5.6196,2.30733 8.1352,2.81729 2.5156,0.50996 4.7552,0.79976 6.7256,0.86857 8.151,0.28464 12.2987,-1.54 12.4362,-5.47742 0.079,-2.2467 -0.8539,-3.79354 -2.7938,-4.6366 -1.9433,-0.83992 -4.5171,-1.66876 -7.7246,-2.48664 -14.3675,-3.73753 -24.4385,-8.55935 -30.213,-14.46111 -5.7778,-5.90187 -8.4842,-13.98282 -8.1259,-24.2458 0.432,-12.36824 5.4378,-21.76631 15.0239,-28.18748 9.5828,-6.42128 22.5269,-9.34723 38.8358,-8.77771 5.3408,0.1865 10.5927,0.93416 15.7558,2.23919 5.1597,1.30816 9.8123,3.15961 13.9512,5.55413 2.3445,1.34874 4.7418,3.26305 7.1886,5.74008 2.4469,2.48029 3.5918,5.96768 3.4348,10.46488 -0.1523,4.35901 -1.6431,7.75382 -4.4726,10.18875 -2.8297,2.43439 -6.4256,3.57568 -10.7812,3.42358 -1.4068,-0.0491 -2.9117,-0.31273 -4.5115,-0.79071 -1.6029,-0.47863 -3.5841,-1.18098 -5.9433,-2.10812 -5.2803,-2.01173 -9.604,-3.07963 -12.9777,-3.19744 -3.2355,-0.11299 -5.8885,0.28918 -7.9589,1.19999 -2.0738,0.91395 -3.1434,2.35452 -3.2121,4.32106 -0.059,1.68692 0.7052,2.94738 2.296,3.77499 1.5874,0.83075 4.4759,1.81219 8.6587,2.94137 13.9522,3.44307 23.9251,8.04987 29.9188,13.81767 5.9902,5.77094 8.8054,13.85515 8.4421,24.25685 -0.4614,13.21523 -5.5226,23.06657 -15.177,29.55426 -9.6578,6.49137 -23.0611,9.43437 -40.2103,8.83551 z"
       id="path9" />
    <path
       class="b"
       d="m 356.6538,545.82944 c -6.67045,-0.46645 -11.89325,-2.86788 -15.66213,-7.20689 -3.77216,-4.3357 -5.42334,-9.84188 -4.95687,-16.51271 l 6.70849,-95.93517 c 0.46644,-6.67032 2.86766,-11.8901 7.20677,-15.66214 4.33587,-3.76923 9.84227,-5.42344 16.51272,-4.95699 l 38.06029,2.66145 c 17.52497,1.22547 30.637,5.42949 39.33625,12.608 8.69584,7.18182 12.62179,16.85161 11.77124,29.01499 -0.82316,11.77163 -6.49533,20.51136 -17.01335,26.21382 14.74081,7.21036 21.54579,18.92314 20.41181,35.13963 -0.90541,12.94789 -6.71747,22.76256 -17.43582,29.43695 -10.71856,6.67742 -25.23421,9.37407 -43.54395,8.09372 l -41.39545,-2.89467 z m 26.42606,-84.69956 14.41968,1.00833 c 5.07911,0.35517 8.96206,-0.40801 11.6489,-2.29006 2.68356,-1.88281 4.15175,-4.60708 4.40155,-8.17941 0.5089,-7.27753 -4.31894,-11.27355 -14.48033,-11.98411 l -14.41968,-1.00833 z m -3.73154,53.36308 20.18765,1.41167 c 11.39738,0.79699 17.36162,-2.58003 17.88988,-10.13443 0.27842,-3.98155 -0.85168,-7.062 -3.3903,-9.24136 -2.53881,-2.17671 -6.83041,-3.47959 -12.87182,-3.90205 l -20.18765,-1.41167 z"
       id="path10" />
    <path
       class="b"
       d="m 276.63249,548.97762 c -15.55935,1.08802 -29.16202,-0.88589 -40.81075,-5.91545 -11.65188,-5.02934 -20.86541,-12.79371 -27.64054,-23.29059 -6.77794,-10.49364 -10.70044,-23.39192 -11.77001,-38.68757 -1.02373,-14.64 1.25084,-27.64194 6.83013,-39.00272 5.57635,-11.35754 13.90458,-20.48123 24.98498,-27.36503 11.07741,-6.88308 24.3315,-10.86464 39.75906,-11.94344 3.79027,-0.26504 7.99805,-0.19567 12.62591,0.20136 4.62501,0.39976 9.15773,1.33012 13.59528,2.79331 4.43768,1.46318 8.19868,3.5986 11.28611,6.40352 1.95738,1.70448 3.54524,3.76094 4.76666,6.16966 1.21873,2.41195 1.93906,5.18489 2.15846,8.32253 0.32009,4.57746 -0.97231,8.64021 -3.87672,12.19329 -2.90453,3.55309 -6.77746,5.49865 -11.61256,5.83676 -2.22447,0.15555 -4.1676,0.0635 -5.83294,-0.28187 -1.66816,-0.34217 -3.30636,-0.78468 -4.9209,-1.33064 -1.61446,-0.54292 -3.55674,-1.06292 -5.82404,-1.56323 -2.27027,-0.49757 -5.03849,-0.63317 -8.3049,-0.40476 -5.75433,0.40238 -10.95507,2.11466 -15.60291,5.1308 -4.65078,3.01938 -8.20281,7.17482 -10.65607,12.47035 -2.45619,5.29523 -3.42082,11.66816 -2.89972,19.12019 0.77712,11.1133 4.25007,19.47659 10.42477,25.08594 6.17189,5.61258 14.29044,8.06518 24.3589,7.36112 3.13765,-0.21941 5.92229,-0.77419 8.35695,-1.66812 2.43172,-0.89068 4.66338,-1.86866 6.69213,-2.9312 1.51399,-0.89386 3.07463,-1.56056 4.68795,-2.00255 1.61035,-0.43925 3.13385,-0.71189 4.57404,-0.8126 5.3591,-0.37474 9.66486,1.09766 12.92069,4.41698 3.25256,3.31954 5.0406,7.26818 5.36047,11.84261 0.24686,3.53023 -0.26077,6.61996 -1.51952,9.26998 -1.26182,2.64972 -2.93787,4.96834 -5.0314,6.95305 -3.07744,2.97419 -6.84855,5.40538 -11.31353,7.2941 -4.46801,1.88893 -8.9964,3.35415 -13.58511,4.3987 -4.59198,1.04124 -8.65101,1.68868 -12.18086,1.93551 z"
       id="path11" />
    <path
       class="b"
       d="m 817.61611,442.71584 c -8.29803,-9.52349 -19.48159,-13.79529 -33.54336,-12.81199 -10.41002,0.72794 -17.84253,4.99306 -24.07281,12.91852 l -0.6684,-9.55853 -1.29974,-18.58713 -0.20873,-2.98503 c -0.43269,-6.18777 -2.71143,-11.07492 -6.83273,-14.66071 -4.12451,-3.58264 -10.16469,-5.09701 -16.35295,-4.66429 -6.19118,0.43293 -11.07786,2.71139 -14.6607,6.83297 -3.58555,4.12471 -5.159,9.28172 -4.72634,15.469 l 3.5264,50.42993 v 0 l 3.63424,51.9686 c 0.57049,8.1584 3.03961,14.66339 7.40666,19.5155 4.36729,4.85552 10.00549,8.17095 16.91322,9.94737 4.17614,1.11861 8.64371,1.86675 13.40699,2.24265 4.75963,0.37274 5.08747,0.70479 10.43468,0.33088 20.95459,-1.46529 36.75837,-7.9044 47.40817,-19.32101 10.64972,-11.41417 15.26152,-27.31864 13.83537,-47.71342 -1.30791,-18.70393 -5.90178,-29.82739 -14.19998,-39.35331 z m -29.6014,65.69824 c -3.04344,4.60411 -7.57196,7.11325 -13.58205,7.53352 -3.43751,0.24037 -6.55503,0.0819 -9.35372,-0.4803 l -2.97038,-42.47847 c 2.80722,-4.28298 6.87197,-6.61153 12.19745,-6.98392 10.47342,-0.73237 16.27818,6.96124 17.40518,23.07806 0.57965,8.28538 -0.65261,14.72892 -3.69647,19.33111 z"
       id="path12" />
  </g>
</svg>
