<svg width="161" height="80" viewBox="0 0 161 80" fill="none" xmlns="http://www.w3.org/2000/svg">
<g clip-path="url(#clip0_6767_7417)">
<path d="M48.3097 69.0624H45.5177V61.102H43.8629V58.8419H45.5177V57.9796C45.5177 56.854 45.6656 55.8828 45.9707 55.0659C46.2758 54.2489 46.7565 53.5228 47.4129 52.8783L51.2034 52.3882V53.1506C50.1957 53.5046 49.4653 54.0583 49.0031 54.7936C48.5408 55.5379 48.3189 56.5545 48.3189 57.8434V58.8419H51.2034V61.102H48.3189V69.0624H48.3097Z" fill="#079BDF"/>
<path d="M63.2034 69.5524L63.0185 68.7627C62.436 69.0169 61.8906 69.2166 61.3913 69.3436C60.8921 69.4707 60.4206 69.5343 59.9861 69.5343C58.396 69.5343 57.1017 69.035 56.1217 68.0457C55.1417 67.0563 54.6517 65.7492 54.6517 64.1517C54.6517 62.5541 55.1879 61.2017 56.2511 60.1034C57.3143 59.0051 58.6086 58.4604 60.1155 58.4604C60.5408 58.4604 60.9753 58.5149 61.4283 58.6148C61.8813 58.7237 62.3621 58.8871 62.8705 59.1049L65.3574 58.8598V65.9943C65.3574 66.5389 65.3852 67.0653 65.4406 67.5827C65.4961 68.1001 65.5793 68.5993 65.6903 69.0804L63.2034 69.5706V69.5524ZM62.6117 66.7204V61.0292C62.2234 60.8204 61.8628 60.6752 61.5393 60.5754C61.2157 60.4755 60.9291 60.4301 60.6702 60.4301C59.6995 60.4301 58.9137 60.7751 58.322 61.474C57.7211 62.1729 57.4252 63.0897 57.4252 64.2424C57.4252 65.25 57.6841 66.0306 58.2111 66.6024C58.738 67.1652 59.4591 67.4557 60.3836 67.4557C60.7072 67.4557 61.0493 67.3921 61.4191 67.2741C61.7889 67.1561 62.1864 66.9746 62.6117 66.7295V66.7204Z" fill="#079BDF"/>
<path d="M80.584 69.0625H77.8382V62.7904C77.8382 62.1822 77.6903 61.7102 77.3945 61.3744C77.0986 61.0476 76.6641 60.8842 76.0909 60.8842C75.2404 60.8842 74.5932 61.093 74.1495 61.5196C73.6965 61.9462 73.4746 62.5544 73.4746 63.3441V69.0625H70.7288V58.8419H73.2804V60.5575C73.8259 59.8858 74.4176 59.3865 75.0462 59.0507C75.6749 58.7239 76.3775 58.5605 77.1356 58.5605C77.8937 58.5605 78.5593 58.7239 79.1048 59.0507C79.6502 59.3775 80.094 59.8767 80.4546 60.5575C80.9445 59.9039 81.527 59.4138 82.1834 59.0689C82.849 58.733 83.5609 58.5605 84.3282 58.5605C85.4376 58.5605 86.2789 58.8692 86.8428 59.4864C87.416 60.1036 87.6934 61.0113 87.6934 62.2095V69.0625H84.9569V62.7904C84.9569 62.1822 84.8089 61.7102 84.5039 61.3744C84.208 61.0476 83.7643 60.8842 83.2003 60.8842C82.3498 60.8842 81.7026 61.093 81.2589 61.5196C80.8059 61.9462 80.584 62.5544 80.584 63.3441V69.0625V69.0625Z" fill="#079BDF"/>
<path d="M92.7689 55.057C92.7689 54.6031 92.926 54.2128 93.2496 53.8951C93.5732 53.5774 93.9615 53.4141 94.4237 53.4141C94.886 53.4141 95.2743 53.5774 95.5978 53.8951C95.9214 54.2128 96.0786 54.6031 96.0786 55.057C96.0786 55.5108 95.9214 55.883 95.5978 56.1916C95.2743 56.5002 94.886 56.6545 94.4237 56.6545C93.9615 56.6545 93.5732 56.5002 93.2496 56.1916C92.926 55.883 92.7689 55.5017 92.7689 55.057ZM95.8197 69.0626H93.0277V58.842L95.8197 58.3519V69.0536V69.0626Z" fill="#079BDF"/>
<path d="M104.048 69.0624H101.256V52.8783L104.048 52.3882V69.0534V69.0624Z" fill="#079BDF"/>
<path d="M111.804 74.0005H109.031C109.373 73.6193 109.715 73.1654 110.048 72.639C110.381 72.1125 110.75 71.4136 111.166 70.5604L111.869 69.0536L108.06 58.833H111.018L113.385 65.4319L116.27 58.833H118.59L111.795 73.9914L111.804 74.0005Z" fill="#079BDF"/>
<path fill-rule="evenodd" clip-rule="evenodd" d="M48.8182 35.2417C48.9106 35.1147 49.151 34.8151 49.2435 34.6971C49.5948 34.2705 49.7612 34.0345 50.0755 33.5716C50.094 33.5444 50.2419 33.2811 50.2604 33.2539C50.9538 31.6291 50.2142 29.5596 49.6965 28.4613C49.2712 27.5718 48.698 26.5824 47.7643 26.2375C47.6718 26.2011 48.0046 27.1633 48.1063 27.4628C49.5393 31.9559 40.8398 33.4899 42.8921 38.7091L43.0955 39.0813C43.4931 39.8619 44.2696 40.4337 45.4253 41.0056C45.5362 41.06 45.8413 41.2325 45.9615 41.2779C46.812 41.532 46.359 41.0873 46.3035 40.6062C46.1371 39.1448 46.7288 38.2916 47.2096 37.4837C47.7273 36.5942 48.1988 36.0314 48.8274 35.2417H48.8182ZM92.9168 37.039C92.6857 36.7757 92.51 36.6123 92.2419 36.3945C92.0755 36.2493 91.8444 36.0587 91.6687 35.9316C89.829 34.561 86.5655 33.4173 83.9584 32.8908C84.9291 32.2373 85.9276 31.6382 86.8521 30.9211C87.0185 30.785 87.3143 30.4945 87.4807 30.3674C87.8598 30.0588 88.2666 29.8138 88.5716 29.4416C89.4499 28.3614 89.9122 27.2268 89.4037 25.6928C87.8875 21.1453 79.225 21.2724 71.5516 21.5175C69.0924 21.5901 67.0308 21.4449 64.5532 21.4449C63.7858 21.4449 62.7966 21.2724 62.057 21.4449C61.6687 21.5356 61.5116 22.053 61.7149 21.8896V21.9985C63.6656 22.2527 66.6148 21.817 67.1602 23.4418C67.225 23.6324 67.2619 24.7852 67.2712 25.003C67.4006 27.5536 67.2712 29.7502 67.2712 32.4642C67.2712 36.5307 67.6502 41.06 67.1602 44.9359C66.8182 47.55 65.1541 46.9328 62.621 47.2777L62.51 47.7225C66.6703 48.1763 71.3112 47.5137 75.6656 47.8314C80.0108 48.1491 84.7442 47.9312 88.0262 46.8329C91.7981 45.5622 96.7442 41.5048 92.9075 37.0299L92.9168 37.039ZM74.1957 23.115C74.4176 23.0515 74.9445 22.8064 75.2126 22.7792C77.1263 22.5613 79.4561 23.0696 80.6579 23.6687L80.9168 23.8139C81.2773 23.9955 81.3975 24.1135 81.6841 24.3404C82.9877 25.3661 84.5316 28.0165 83.2465 30.1859C83.0709 30.4764 82.6179 30.8939 82.3683 31.1299C81.8783 31.5837 81.1941 32.3099 80.4361 32.4642C80.131 32.5277 79.7612 32.5822 79.4561 32.6094C77.8382 32.7365 75.7488 32.791 74.1957 32.4642C73.8629 30.077 73.8351 25.475 74.1957 23.1059V23.115ZM87.1294 43.2748C87.0555 43.4836 86.7966 44.0645 86.6764 44.2279C85.5578 45.8072 83.7735 46.3428 81.2311 46.4971C80.057 46.5697 78.698 46.2883 77.718 46.1612C76.4515 45.9979 74.926 45.9343 74.4268 45.0448C74.131 44.5183 74.2604 43.8103 74.1957 43.0388C74.0478 41.06 74.0847 38.6274 74.0847 36.4671C74.0847 35.8317 74.057 34.9604 74.0847 34.2433C74.1032 34.1979 74.1957 34.0799 74.3159 34.0164C76.5162 34.0164 78.7535 33.9528 80.5562 34.4611C81.3143 34.679 82.2573 34.8242 82.9414 35.1328C85.0216 36.0587 86.7411 37.5019 87.1387 39.3626C87.2866 40.0434 87.4253 42.4306 87.1387 43.2566L87.1294 43.2748ZM59.4592 41.7136C58.2851 46.8329 48.5778 46.6696 44.6025 46.3156C37.1972 45.1628 29.0616 41.9314 29.0616 33.3901C29.0616 28.4159 32.1217 22.7792 44.6025 22.761C57.4992 22.761 58.8305 26.1739 58.8952 28.6791C58.9969 28.9514 59.9861 28.9968 59.9954 28.5702C60.3744 27.7351 60.0971 27.0907 60.1433 25.6747C60.171 24.5038 60.4114 23.2512 60.4854 22.0802C56.7411 21.5538 56.168 21.4358 54.0046 21.2542C52.5624 21.1362 52.0817 21.0001 44.5932 21.0001C26.926 21.0001 21 29.1693 21 34.1071C21 39.045 24.208 47.0599 44.5932 48.3942C55.5208 48.3942 58.2018 47.6862 58.849 47.3503C59.5146 46.5062 60.5501 42.9299 60.661 42.1583C60.7812 41.414 59.7088 41.1145 59.4499 41.7136H59.4592ZM44.9076 31.611C44.9076 31.611 46.5162 30.3856 45.8505 30.5399C45.379 30.6488 44.7134 31.1027 44.2604 31.2388C41.6348 32.0194 39.2774 32.5187 37.9091 34.3613C37.3451 35.1237 37.1602 36.1494 37.4931 37.1479C38.2974 39.5805 40.7103 40.5063 43.3544 41.1599C38.7966 37.7742 42.0786 34.1253 44.9076 31.6201V31.611ZM137.367 21.5992C134.492 21.8079 131.505 21.5629 128.63 21.5629C127.872 21.5629 126.938 21.463 126.023 21.5629C125.847 21.581 125.681 22.0802 125.681 22.0802C127.151 22.2709 129.435 22.0258 130.562 22.6793C130.914 22.879 131.348 23.5961 131.468 24.0136C131.875 25.5022 131.81 26.8819 131.866 28.9696C131.968 32.8817 132.3 37.2387 132.3 41.3505C130.997 40.8331 130.128 40.0071 129.046 39.3536C127.586 38.464 126.245 37.5927 124.775 36.7122C124.525 36.567 124.054 36.1948 123.814 36.0405C117.897 32.4279 112.655 28.9061 106.858 25.4659C105.814 24.8305 100.507 20.9093 99.6009 21.0001C99 21.0636 99.1109 21.4993 99.037 22.1165C98.8428 23.587 98.9815 25.4659 98.926 27.127C98.7689 31.6927 98.7319 36.694 98.547 41.4957C98.473 43.2748 98.7596 45.4442 98.0108 46.6151C97.3267 47.6862 94.923 47.4048 93.3606 47.6135C93.3606 47.6135 93.3883 48.0402 93.3606 48.0583C94.5716 48.2217 96.3559 48.1491 97.5578 48.0583C101.163 47.786 105.851 48.6211 109.012 47.8314C109.012 47.8314 109.012 47.5137 109.012 47.4955C107.431 47.2686 105.176 47.6045 104.131 46.8239C103.715 46.5152 103.188 45.1174 103.114 44.482C102.827 42.2219 102.985 40.0434 102.809 37.7288C102.587 34.806 102.43 31.7017 102.43 28.6701C103.65 29.2964 104.639 30.0498 105.758 30.7124C107.441 31.7108 108.957 32.7365 110.593 33.7894C110.972 34.0345 111.453 34.443 111.841 34.679C116.482 37.4383 120.661 40.2522 125.339 43.0297C125.81 43.3111 126.448 43.7468 126.929 44.0282C128.455 44.9359 129.915 45.7074 131.468 46.5879C132.689 47.2777 133.456 48.1128 135.213 48.3669C135.314 48.2217 135.638 48.1945 135.666 48.0311C135.851 46.9419 135.74 44.2733 135.777 43.0206C135.952 37.5927 135.814 31.9741 136.082 26.537C136.146 25.2753 136.054 23.9228 136.572 23.0878C137.256 21.9804 139.317 22.1892 140.917 21.9713C140.917 21.9169 140.963 21.5447 140.991 21.5265C139.835 21.4812 138.411 21.4812 137.357 21.5629L137.367 21.5992ZM49.6965 40.0434C51.9707 38.9905 54.9753 38.7091 54.0046 35.1419C53.6071 33.6896 52.8028 32.5822 51.8505 31.6927C51.5177 34.1434 50.0293 35.5594 48.9014 37.2568C48.4946 37.8559 47.9029 38.5185 47.7643 39.3717C47.6441 40.107 47.8659 40.8059 47.9954 41.2688C48.4669 40.824 49.0863 40.3248 49.6965 40.0434V40.0434Z" fill="#079BDF"/>
</g>
<defs>
<clipPath id="clip0_6767_7417">
<rect width="120" height="53" fill="white" transform="translate(21 21)"/>
</clipPath>
</defs>
</svg>
