<svg version="1.1" xmlns="http://www.w3.org/2000/svg" width="137" height="32" viewBox="0 0 137 32">
  <title>logo</title>
  <path fill="#025C8D" d="M31.868 16.615c0.088-0.132 0.396-0.527 0.484-0.615 0.396-0.527 0.615-0.747 0.967-1.319 0-0.044 0.22-0.352 0.22-0.352 0.791-1.89-0.044-4.308-0.659-5.582-0.484-1.011-1.143-2.198-2.198-2.593-0.088-0.044 0.264 1.055 0.396 1.407 1.626 5.231-8.308 7.033-5.978 13.099l0.22 0.44c0.44 0.923 1.319 1.582 2.681 2.242 0.132 0.044 0.484 0.264 0.615 0.308 0.967 0.308 0.44-0.22 0.396-0.791-0.22-1.714 0.484-2.725 1.055-3.648 0.527-1.011 1.099-1.67 1.802-2.593zM44.044 24.176c-1.363 5.978-12.44 5.758-17.011 5.363-8.484-1.319-17.802-5.099-17.802-15.077 0-5.802 3.516-12.396 17.802-12.396 14.769 0 16.308 4 16.396 6.901 0.132 0.308 1.231 0.352 1.275-0.132 0.44-0.967 0.132-1.714 0.176-3.385 0.044-1.363 0.308-2.813 0.396-4.176-4.352-0.615-5.011-0.747-7.473-0.967-1.626-0.132-2.198-0.308-10.769-0.308-20.22 0-27.033 9.538-27.033 15.297 0 5.978 3.692 15.121 27.033 16.659 12.527 0.044 15.604-0.791 16.308-1.187 0.747-0.967 1.934-5.143 2.066-6.066 0.176-0.879-1.055-1.231-1.363-0.527zM27.385 12.396c0.044-0.044 1.846-1.407 1.055-1.231-0.527 0.132-1.319 0.659-1.802 0.835-2.989 0.923-5.714 1.495-7.297 3.648-0.659 0.879-0.879 2.11-0.484 3.253 0.923 2.857 3.692 3.912 6.725 4.703-5.187-4-1.451-8.264 1.802-11.209zM32.879 22.242c2.593-1.231 6.066-1.582 4.923-5.714-0.44-1.67-1.363-2.989-2.462-4.044-0.396 2.857-2.11 4.527-3.385 6.505-0.44 0.703-1.143 1.494-1.319 2.462-0.132 0.879 0.132 1.67 0.264 2.198 0.571-0.484 1.275-1.099 1.978-1.407zM133.319 0.703c-3.297 0.264-6.725-0.044-9.978-0.044-0.879 0-1.934-0.088-2.989 0-0.22 0-0.396 0.615-0.396 0.615 1.67 0.22 4.308-0.044 5.582 0.703 0.396 0.22 0.923 1.055 1.055 1.582 0.44 1.714 0.396 3.341 0.44 5.758 0.088 4.571 0.484 9.626 0.484 14.418-1.495-0.615-2.505-1.582-3.736-2.33-1.67-1.055-3.209-2.066-4.879-3.077-0.308-0.176-0.835-0.615-1.099-0.791-6.769-4.22-12.791-8.308-19.429-12.352-1.187-0.703-7.297-5.319-8.308-5.187-0.703 0.044-0.571 0.571-0.659 1.319-0.22 1.714-0.044 3.912-0.132 5.846-0.176 5.319-0.22 11.165-0.44 16.747-0.088 2.066 0.264 4.615-0.615 5.978-0.791 1.275-3.516 0.923-5.319 1.187 0 0 0.044 0.484 0 0.527 1.363 0.176 3.429 0.088 4.791 0 4.132-0.308 9.495 0.659 13.099-0.264 0 0 0-0.352 0-0.396-1.802-0.264-4.396 0.132-5.582-0.791-0.484-0.352-1.055-1.978-1.187-2.725-0.352-2.637-0.132-5.187-0.352-7.868-0.264-3.429-0.44-7.033-0.44-10.549 1.407 0.703 2.549 1.626 3.824 2.374 1.934 1.187 3.648 2.374 5.538 3.604 0.44 0.308 0.967 0.747 1.407 1.055 5.319 3.209 10.11 6.506 15.473 9.758 0.527 0.308 1.275 0.835 1.802 1.187 1.758 1.055 3.429 1.978 5.187 2.989 1.407 0.835 2.286 1.802 4.264 2.066 0.132-0.176 0.484-0.22 0.527-0.396 0.22-1.275 0.088-4.396 0.132-5.846 0.22-6.33 0.044-12.879 0.352-19.253 0.044-1.495-0.044-3.077 0.571-4.044 0.791-1.275 3.165-1.055 4.967-1.319 0-0.044 0.044-0.484 0.088-0.527-1.187-0.044-2.857-0.044-4.044 0.044zM82.374 18.725c-0.264-0.308-0.484-0.527-0.747-0.747-0.22-0.176-0.44-0.396-0.659-0.527-2.11-1.582-5.846-2.945-8.835-3.56 1.099-0.747 2.242-1.451 3.297-2.286 0.176-0.132 0.527-0.484 0.703-0.659 0.44-0.352 0.923-0.659 1.275-1.099 1.011-1.275 1.538-2.593 0.967-4.396-1.714-5.275-11.648-5.143-20.44-4.835-2.813 0.088-5.187-0.088-8-0.088-0.879 0-2.022-0.22-2.857 0-0.44 0.088-0.615 0.703-0.396 0.527 0 0.044 0 0.088 0 0.132 2.242 0.308 5.626-0.22 6.242 1.67 0.088 0.22 0.088 1.582 0.132 1.802 0.132 2.989 0 5.538 0 8.703 0 4.747 0.44 10.022-0.132 14.549-0.396 3.077-2.286 2.33-5.187 2.725l-0.132 0.527c4.747 0.527 10.11-0.264 15.077 0.132 4.967 0.352 10.418 0.132 14.154-1.187 4.264-1.451 9.934-6.154 5.538-11.385zM60.923 2.506c0.264-0.044 0.879-0.352 1.187-0.396 2.198-0.264 4.835 0.352 6.242 1.055l0.308 0.176c0.396 0.22 0.571 0.352 0.879 0.615 1.495 1.187 3.253 4.308 1.802 6.813-0.22 0.352-0.703 0.835-1.011 1.099-0.571 0.527-1.319 1.363-2.198 1.582-0.352 0.044-0.747 0.132-1.143 0.176-1.846 0.132-4.22 0.22-6.022-0.176-0.396-2.813-0.44-8.22-0.044-10.945zM75.736 26.022c-0.088 0.264-0.396 0.923-0.527 1.143-1.275 1.846-3.341 2.462-6.242 2.637-1.363 0.088-2.901-0.264-4.044-0.396-1.451-0.22-3.209-0.264-3.78-1.319-0.352-0.615-0.22-1.451-0.264-2.33-0.176-2.286-0.132-5.143-0.132-7.648 0-0.747-0.044-1.758 0-2.593 0-0.044 0.132-0.22 0.264-0.264 2.505 0 5.099-0.088 7.121 0.527 0.879 0.264 1.934 0.44 2.725 0.791 2.374 1.055 4.352 2.769 4.791 4.923 0.264 0.747 0.44 3.56 0.088 4.527z"></path>
</svg>
