<?xml version="1.0" encoding="UTF-8" standalone="no"?>
<!-- Created with Inkscape (http://www.inkscape.org/) -->

<svg
   width="1147.2928"
   height="207.33029"
   viewBox="0 0 1147.2928 207.33029"
   version="1.1"
   id="svg1"
   xml:space="preserve"
   xmlns:inkscape="http://www.inkscape.org/namespaces/inkscape"
   xmlns:sodipodi="http://sodipodi.sourceforge.net/DTD/sodipodi-0.dtd"
   xmlns:xlink="http://www.w3.org/1999/xlink"
   xmlns="http://www.w3.org/2000/svg"
   xmlns:svg="http://www.w3.org/2000/svg"><sodipodi:namedview
     id="namedview1"
     pagecolor="#ffffff"
     bordercolor="#999999"
     borderopacity="1"
     inkscape:showpageshadow="2"
     inkscape:pageopacity="0"
     inkscape:pagecheckerboard="0"
     inkscape:deskcolor="#d1d1d1"
     inkscape:document-units="px"
     showguides="false"><sodipodi:guide
       position="1077.9369,1080.5231"
       orientation="0,-1"
       id="guide1"
       inkscape:locked="false" /><sodipodi:guide
       position="993.69163,872.6697"
       orientation="0,-1"
       id="guide2"
       inkscape:locked="false" /><sodipodi:guide
       position="203.99347,878.12455"
       orientation="0,-1"
       id="guide17"
       inkscape:locked="false" /><sodipodi:guide
       position="179.85688,1044.9019"
       orientation="0,-1"
       id="guide18"
       inkscape:locked="false" /><sodipodi:guide
       position="166.96905,974.44844"
       orientation="1,0"
       id="guide19"
       inkscape:locked="false" /><sodipodi:guide
       position="412.27776,1000.1891"
       orientation="0,-1"
       id="guide20"
       inkscape:locked="false" /><sodipodi:guide
       position="201.53349,1044.6334"
       orientation="1,0"
       id="guide21"
       inkscape:locked="false" /><sodipodi:guide
       position="252.67311,878.12455"
       orientation="1,0"
       id="guide22"
       inkscape:locked="false" /><sodipodi:guide
       position="288.47263,878.12455"
       orientation="1,0"
       id="guide23"
       inkscape:locked="false" /><sodipodi:guide
       position="390.35807,1000.1891"
       orientation="1,0"
       id="guide24"
       inkscape:locked="false" /><sodipodi:guide
       position="424.65635,1000.1891"
       orientation="1,0"
       id="guide25"
       inkscape:locked="false" /><sodipodi:guide
       position="441.43959,1000.1891"
       orientation="1,0"
       id="guide29"
       inkscape:locked="false" /><sodipodi:guide
       position="476.82868,1000.1891"
       orientation="1,0"
       id="guide30"
       inkscape:locked="false" /><sodipodi:guide
       position="527.30497,878.12455"
       orientation="1,0"
       id="guide31"
       inkscape:locked="false" /><sodipodi:guide
       position="562.48218,878.12455"
       orientation="1,0"
       id="guide32"
       inkscape:locked="false" /><sodipodi:guide
       position="748.17433,923.59521"
       orientation="-0.27972417,0.96008041"
       id="guide34"
       inkscape:locked="false" /><sodipodi:guide
       position="846.66743,1044.9019"
       orientation="1,0"
       id="guide35"
       inkscape:locked="false" /><sodipodi:guide
       position="881.44903,1044.9019"
       orientation="1,0"
       id="guide36"
       inkscape:locked="false" /><sodipodi:guide
       position="894.90963,914.59164"
       orientation="0.81954587,0.57301358"
       id="guide37"
       inkscape:locked="false" /></sodipodi:namedview><defs
     id="defs1"><linearGradient
       id="linearGradient28"
       inkscape:collect="always"><stop
         style="stop-color:#196eff;stop-opacity:1;"
         offset="0"
         id="stop28" /><stop
         style="stop-color:#0d379d;stop-opacity:1;"
         offset="1"
         id="stop29" /></linearGradient><linearGradient
       id="linearGradient26"
       inkscape:collect="always"><stop
         style="stop-color:#7dd7ff;stop-opacity:1;"
         offset="0"
         id="stop26" /><stop
         style="stop-color:#196eff;stop-opacity:1;"
         offset="1"
         id="stop27" /></linearGradient><linearGradient
       inkscape:collect="always"
       xlink:href="#linearGradient26"
       id="linearGradient27"
       x1="1352.5405"
       y1="371.25372"
       x2="1424.6014"
       y2="224.73093"
       gradientUnits="userSpaceOnUse"
       gradientTransform="translate(0,233.40963)" /><linearGradient
       inkscape:collect="always"
       xlink:href="#linearGradient28"
       id="linearGradient29"
       x1="1445.5482"
       y1="236.0988"
       x2="1514.4865"
       y2="378.92471"
       gradientUnits="userSpaceOnUse"
       gradientTransform="translate(0,233.40963)" /></defs><g
     inkscape:label="Layer 1"
     inkscape:groupmode="layer"
     id="layer1"
     transform="translate(-386.63477,-436.59641)"><g
       id="g39"><g
         id="g38"><path
           id="path16"
           style="opacity:1;fill:#000000;fill-opacity:1;stroke-width:14.0998;stroke-linecap:round;stroke-linejoin:round"
           d="m 466.53906,466.53906 c -48.78775,0 -79.90429,39.62097 -79.90429,88.4961 0,48.87513 29.09141,88.49804 79.90429,88.49804 44.53129,0 75.36124,-34.8678 75.55396,-71.31445 h -35.49893 c -2.75478,21.28346 -16.72215,38.1543 -41.32065,38.1543 -23.32683,0 -42.62891,-25.16624 -42.62891,-53.46289 0,-28.29666 13.26497,-57.42113 43.23633,-58.93164 1.00454,-0.0506 1.98576,-0.0691 2.94336,-0.0566 25.11357,0.32684 34.22552,21.98081 36.44531,45.23828 l 35.38783,-21.11841 c -9.91544,-32.92222 -34.21246,-55.50268 -74.1183,-55.50269 z"
           sodipodi:nodetypes="cssccssscccsc" /><path
           style="opacity:1;fill:#000000;fill-opacity:1;stroke-width:13.8;stroke-linecap:round;stroke-linejoin:round"
           d="m 553.60382,471.69451 0.358,166.77735 34.19574,-0.0537 c 0,0 0.1002,-27.17723 0.1002,-48.3199 0,-22.38063 4.06381,-51.44127 26.48444,-51.44127 23.74095,0 24.56568,26.23432 24.56568,34.96516 v 64.84971 h 35.79952 c 0,0 -0.25798,-47.6525 -0.25798,-78.27569 0,-9.0177 -3.50802,-22.34726 -8.14266,-29.74484 -9.1066,-14.53547 -24.57012,-19.23414 -35.63277,-19.23414 -30.32534,0 -37.83168,22.61626 -40.07884,28.83914 -0.21436,0.59361 -2.84479,0.36369 -2.84479,-0.88103 0,-12.3627 0.0179,-67.48079 0.0179,-67.48079 z"
           id="path19"
           sodipodi:nodetypes="cccsssccssssscc" /><path
           id="path25"
           style="opacity:1;fill:#000000;fill-opacity:1;stroke-width:13.8;stroke-linecap:round;stroke-linejoin:round"
           d="m 736.22266,511.51953 c -31.48994,0 -51.47361,30.97002 -49.98047,70.14453 0.94046,24.67431 14.20258,61.6543 49.69726,61.6543 32.87863,0 37.04416,-28.97852 39.63867,-28.97852 1.48984,0 1.41407,1.68784 1.41407,6.91211 v 17.22071 h 34.29883 V 516.4082 h -34.29883 v 19.38868 c 0,3.24551 -0.27599,4.38867 -1.76367,4.38867 -1.84474,0 -7.76488,-28.66602 -39.00586,-28.66602 z m 12.03515,27.03906 c 18.37326,0 26.48047,16.94827 26.48047,38.35352 0,21.40525 -6.66993,39.26367 -26.6582,39.26367 -18.26691,0 -26.96289,-17.85842 -26.96289,-39.26367 0,-23.32912 10.03966,-38.35352 27.14062,-38.35352 z" /><path
           style="opacity:1;fill:#000000;fill-opacity:1;stroke-width:13.7987;stroke-linecap:round;stroke-linejoin:round"
           d="m 828.07436,516.40734 0.17759,122.06452 h 35.2115 c 0,0 0,-27.02842 0,-48.17109 0,-22.38063 3.14107,-51.64378 25.55751,-51.64378 23.73652,0 24.56109,26.23432 24.56109,34.96516 v 64.84971 h 35.79283 c 0,0 -0.25793,-47.6525 -0.25793,-78.27569 0,-9.0177 -3.50737,-22.34726 -8.14114,-29.74484 -9.1049,-14.53547 -24.56553,-19.23414 -35.62611,-19.23414 -30.31967,0 -37.82461,22.61626 -40.07134,28.83914 -0.21433,0.59361 -1.81491,0.50689 -1.81491,-0.73783 0,-12.3627 0,-22.91116 0,-22.91116 z"
           id="path32"
           sodipodi:nodetypes="cccsssccssssscc" /><path
           style="opacity:1;fill:#000000;fill-opacity:1;stroke-width:13.7987;stroke-linecap:round;stroke-linejoin:round"
           d="m 966.15822,516.40734 0.17759,122.06452 h 35.21149 c 0,0 0,-27.02842 0,-48.17109 0,-22.38063 3.1411,-51.64378 25.5575,-51.64378 23.7365,0 24.5611,26.23432 24.5611,34.96516 v 64.84971 h 35.7928 c 0,0 -0.2579,-47.6525 -0.2579,-78.27569 0,-9.0177 -3.5074,-22.34726 -8.1411,-29.74484 -9.1049,-14.53547 -24.5656,-19.23414 -35.6261,-19.23414 -30.3197,0 -37.8247,22.61626 -40.0714,28.83914 -0.2143,0.59361 -1.8149,0.50689 -1.8149,-0.73783 0,-12.3627 0,-22.91116 0,-22.91116 z"
           id="path33"
           sodipodi:nodetypes="cccsssccssssscc" /><path
           id="path34"
           style="opacity:1;fill:#000000;fill-opacity:1;stroke-width:13.8;stroke-linecap:round;stroke-linejoin:round"
           d="m 1161.5588,511.39205 c -4.8063,-0.0119 -9.1852,0.55073 -14.6916,1.68607 -32.1334,6.62546 -58.4108,42.48661 -47.6289,81.09376 9.3013,33.30524 33.6568,49.11132 63.375,49.11132 38.9328,0 58.8672,-29.0625 58.8672,-29.0625 l -17.3399,-25.71875 c 0,0 -13.6473,20.10705 -38.8379,21.59766 -19.9561,1.18086 -27.7642,-12.94956 -29.9687,-17.25195 -0.2498,-0.48737 85.75,-24.98243 85.75,-24.98243 -0.2073,-21.48339 -13.0643,-56.358 -59.5252,-56.47318 z m 4.3416,30.981 c 8.6643,-0.0172 16.6452,2.54674 16.7734,8.65234 0.2465,11.74084 -50.8359,29.5 -50.8359,29.5 0,0 -5.6393,-23.24405 17.6133,-34.79687 4.2723,-2.12268 10.521,-3.34369 16.4492,-3.35547 z"
           sodipodi:nodetypes="ssssccsscssscss" /><path
           style="opacity:1;fill:#000000;fill-opacity:1;stroke-width:13.8;stroke-linecap:round;stroke-linejoin:round"
           d="m 1233.3022,471.69451 v 138.598 c 0,13.71736 7.1762,33.15847 29.63,33.15847 0.7813,0 1.5376,-0.005 2.2623,-0.005 7.4553,0 14.2052,-3.25869 18.4663,-4.97388 8.3881,-3.37645 15.5444,-11.20792 15.5444,-11.20792 l -17.9181,-25.62734 c 0,0 -3.7779,4.02028 -7.3563,5.68625 -2.325,1.0824 -5.847,-0.22024 -5.847,-3.14147 V 471.69451 Z"
           id="path36"
           sodipodi:nodetypes="ccsscccsccc" /></g><g
         id="g37"><path
           style="opacity:1;fill:url(#linearGradient29);fill-opacity:1;stroke-width:13.8;stroke-linecap:round;stroke-linejoin:round"
           d="m 1438.5268,471.51786 c 13.2517,43.72552 32.1376,116.07755 44.5266,155.81726 3.2908,10.55595 17.4172,21.56262 36.6442,13.93266 11.7032,-4.64425 17.234,-23.05834 12.5882,-32.81675 -26.0022,-54.6171 -50.6664,-106.01121 -73.9455,-155.08968 -3.898,-8.2181 -8.3502,-16.76495 -21.5296,-16.76495 -0.5648,0 -1.1643,0.0171 -1.7431,0.0171 -20.2983,0 -0.8543,30.45163 -0.8543,30.45163 2.0634,0.0667 3.4824,1.7103 4.3135,4.45269 z"
           id="path26"
           sodipodi:nodetypes="ssssssscss" /><path
           style="opacity:1;fill:url(#linearGradient27);fill-opacity:1;stroke-width:13.8;stroke-linecap:round;stroke-linejoin:round"
           d="m 1408.0703,457.67951 c -16.973,36.57741 -48.963,100.81515 -68.3074,143.17202 -5.5428,12.13663 -0.193,35.39528 16.0699,40.92493 16.1499,5.49125 28.3199,0.17859 42.962,-12.66998 41.025,-35.99979 98.2072,-83.65052 127.682,-110.53006 1.1557,-1.05397 1.685,-3.29029 0.7482,-4.9129 -0.7733,-1.33937 -3.8667,-1.59374 -5.2231,-0.85083 -18.4288,10.09303 -112.0968,66.76567 -127.8028,76.15532 -1.7896,1.06987 -4.0546,2.42838 -5.4134,1.17779 -2.6807,-2.46737 -0.1194,-6.47352 1.4319,-10.83603 4.5298,-12.73805 24.766,-67.03195 38.5113,-104.48119 0.8042,-2.19112 2.6207,-7.76345 5.4844,-7.76345 2.6899,0 3.9391,-30.42595 0.1256,-30.42595 -12.8579,0 -22.3737,12.64683 -26.2686,21.04033 z"
           id="path2"
           sodipodi:nodetypes="ssssssssasssss" /></g></g></g></svg>
