<svg width="1320" height="990" xmlns="http://www.w3.org/2000/svg" version="1.1" xml:space="preserve">
 <g>
  <title>Layer 1</title>
  <path stroke="null" stroke-width="0" fill="#faf433" d="m451.49357,1.56836c-11.26218,0 -21.24109,7.19399 -24.75755,17.83995l-87.24818,263.35768l205.09703,0l93.13921,-281.19763l-186.2305,0zm218.50592,0l-62.20532,187.65447l306.45535,0c14.39849,0 26.08821,-11.63947 26.08821,-25.97603l0,-135.70025c0,-14.33657 -11.68972,-25.97819 -26.08821,-25.97819l-244.25003,0zm-333.15771,311.78597l79.40581,161.91265c0,0 11.11934,25.88278 41.62702,25.88278l201.95877,0c107.67975,0 202.19671,57.25142 254.4684,142.79764c0,0 49.4695,74.52168 42.62665,170.38266c0,0 42.29125,-66.7615 42.29125,-163.23758c0,-186.51728 -151.87179,-337.69082 -339.19465,-337.73815l-323.18325,0zm389.37835,226.58924c38.11086,22.56944 63.72327,63.82741 63.72327,111.19011c0,66.28888 -50.08554,120.89108 -114.66486,128.41423l0,208.75579c129.53882,-7.00264 192.0736,-73.57378 192.0736,-73.57378c0,-0.00001 82.25677,-74.33273 47.47231,-195.36553c-47.89989,-150.69952 -188.60432,-179.42081 -188.60432,-179.42081zm-379.35164,85.20108c-14.39849,0 -26.04029,11.63946 -26.04029,25.97602l-0.04791,0c0,181.35989 143.60472,329.22003 323.79957,337.31097l0,-208.89675c-64.57933,-7.61778 -115.04598,-62.12536 -115.04598,-128.41423c0,-14.33655 -11.68972,-25.97602 -26.08821,-25.97602l-156.57718,0z" id="svg_1"/>
 </g>

</svg>