<?xml version="1.0" encoding="UTF-8"?>
<svg width="400" height="350" version="1.1" xmlns="http://www.w3.org/2000/svg" xmlns:xlink="http://www.w3.org/1999/xlink">
 <path d="m249.19 38.273c0-5.826 0-11.652-0.0275-15.23-0.0285-3.5789-0.0846-4.9106-0.16891-6.1106-0.0836-1.1999-0.19484-2.2681-0.34732-3.1386-0.15266-0.87048-0.34694-1.5433-0.50283-2.1191-0.15618-0.57572-0.27427-1.055-0.39226-1.5336h6.2636l0.3953 2.7676c0.41629-0.3607 0.83248-0.7214 1.2695-1.0648 0.4371-0.34339 0.8949-0.66938 1.5122-0.98848 0.6175-0.31909 1.3943-0.63122 2.0985-0.83581 0.70414-0.20461 1.3353-0.30171 1.9597-0.3537 0.62434-0.052013 1.2416-0.058872 1.8798 0.041819 0.63821 0.10068 1.2972 0.30876 1.8556 0.5794 0.55822 0.27064 1.016 0.60358 1.4461 1.0337 0.42987 0.43013 0.8322 0.95732 1.2032 1.6024 0.37117 0.64512 0.71098 1.4081 0.96691 2.204 0.25612 0.79594 0.43178 1.6414 0.51614 2.1002 0.0846 0.45881 0.0846 0.56635 0.0846 4.0162v17.03h-6.2388s0-19.497-9e-3 -19.785c-0.01-0.28798-0.0209-0.86265-0.0722-1.2934-0.0523-0.43079-0.1424-0.71475-0.22211-0.94304-0.0798-0.22829-0.14934-0.402-0.26002-0.56159-0.11086-0.1596-0.26353-0.30526-0.52012-0.38183-0.25678-0.07659-0.61731-0.08345-0.98848-0.03496-0.37125 0.04839-0.75268 0.15255-1.1968 0.38147-0.44403 0.22891-0.95047 0.58265-1.391 0.99892-0.44051 0.41625-0.8151 0.89486-1.1549 1.5123-0.33991 0.61744-0.64515 1.3735-0.90184 2.0984-0.25668 0.72489-0.46473 1.4185-0.59298 2.303-0.12825 0.88448-0.17709 1.9596-0.20131 4.6091-0.0238 2.6495-0.0238 6.8726-0.0238 11.096h-6.2389zm-233.07-14.267c0-0.20092 0-0.60331 0.0343-1.1451 0.0343-0.5418 0.10297-1.2229 0.17654-1.9022 0.07353-0.67933 0.15205-1.3568 0.39969-2.1371 0.24766-0.78029 0.66456-1.6632 1.1404-2.3426s1.0104-1.1552 1.4716-1.4887c0.46115-0.33356 0.84862-0.52486 1.4054-0.62779 0.55683-0.10295 1.2827-0.11767 1.8885-0.02429 0.6058 0.09326 1.0914 0.29442 1.5008 0.59377 0.40946 0.29935 0.74298 0.69662 0.91932 1.062 0.17635 0.3654 0.19597 0.69892 0.20576 1.057 0.0097 0.35804 0.0097 0.74006 0.0097 1.1226h6.1505c0-0.4753 0-0.94837-0.0076-1.2436-0.0076-0.29516-0.02271-0.39602-0.0551-0.62111-0.03249-0.2251-0.0779-0.5385-0.19334-0.96254-0.1155-0.42405-0.39067-1.2724-0.83193-1.9788-0.44126-0.70632-1.0887-1.393-1.7753-1.9228-0.68657-0.52982-1.4125-0.90259-2.158-1.2459-0.74553-0.34335-1.5107-0.65725-2.4132-0.81434-0.90254-0.15709-1.9424-0.15709-2.835-0.10808-0.89272 0.048963-1.6382 0.14711-2.4231 0.34327-0.78484 0.19617-1.6088 0.49045-2.325 0.83379-0.71619 0.34334-1.3244 0.73572-1.9032 1.236-0.57884 0.50034-1.1282 1.1086-1.6579 1.8541-0.52975 0.7456-1.0399 1.6284-1.4617 2.6095-0.42181 0.98106-0.75533 2.0601-0.97109 3.1097s-0.31387 2.0699-0.3629 2.889c-0.048925 0.81923-0.048925 1.4374-0.02935 2.1781 0.01966 0.74063 0.0589 1.6036 0.11283 2.4472 0.05387 0.84352 0.12262 1.6675 0.32872 2.5995 0.20607 0.93195 0.54939 1.9717 0.9615 2.9282 0.41209 0.95646 0.89273 1.8294 1.3882 2.5406 0.49547 0.71114 1.0056 1.2605 1.6629 1.795 0.65729 0.53455 1.4616 1.0544 2.5064 1.4271 1.0447 0.37262 2.3297 0.59822 3.4529 0.70607 1.1232 0.10786 2.0845 0.09805 3.0261-0.01486 0.94166-0.11286 1.8637-0.32866 2.7416-0.66711 0.87784-0.33843 1.7116-0.79946 2.3982-1.3194 0.68656-0.51984 1.2261-1.0986 1.7067-1.7606 0.48062-0.66206 0.90242-1.4075 1.1379-2.0744 0.23545-0.66688 0.29166-1.3414 0.31376-1.6347 0.02213-0.29326 0.02498-0.3958 0.02992-0.69512 0.0048-0.29933 0.01216-0.79015 0.01938-1.2804h-6.1799c4.7e-5 0.4169 1.04e-4 0.83435 9.5e-5 1.077 0 0.2427-5.7e-5 0.3073-0.01805 0.43482-0.01805 0.12753-0.0607 0.36217-0.18818 0.66124-0.12753 0.29906-0.34334 0.68162-0.61301 0.99541-0.26967 0.3138-0.59337 0.55903-0.95133 0.74538-0.35793 0.18636-0.7503 0.31387-1.3387 0.37279-0.58847 0.05897-1.3732 0.04916-2.0206-0.07831-0.64739-0.12738-1.1575-0.37261-1.6676-0.77468-0.51015-0.40207-1.0203-0.96121-1.3932-1.54-0.37288-0.57872-0.60831-1.177-0.78007-1.9643-0.17175-0.78725-0.27966-1.7633-0.35814-2.4965-0.07847-0.73327-0.12751-1.2237-0.15206-1.6086-0.02461-0.38495-0.02461-0.66431-0.02461-0.80426s-2.8e-5 -0.13994-2.8e-5 -0.34087zm313.06 2.0121h-17.917c0.0903 0.67283 0.1806 1.3462 0.30894 1.8943 0.12834 0.548 0.29488 0.97109 0.5377 1.4393 0.24291 0.4682 0.56192 0.98144 0.93309 1.4149 0.37116 0.43344 0.79429 0.78718 1.2071 1.0507 0.41277 0.26352 0.8151 0.43689 1.3042 0.57552 0.48887 0.13865 1.0646 0.24269 1.6715 0.28076 0.60695 0.03801 1.245 0.01029 1.838-0.05906 0.5929-0.06945 1.141-0.18039 1.7338-0.34341 0.59309-0.16302 1.2311-0.37802 1.8034-0.6104 0.57229-0.23237 1.0785-0.48207 1.7062-0.8254 0.62776-0.34335 1.3767-0.78024 2.1258-1.2172l2.9133 5.3895c-1.0126 0.45086-2.0251 0.90161-3.0552 1.3108-1.03 0.40926-2.0773 0.77686-3.0761 1.0612-0.99883 0.28438-1.9491 0.48555-2.7848 0.62059-0.83581 0.13503-1.5572 0.2039-2.2542 0.23835-0.69711 0.03449-1.3699 0.03449-2.1954-0.06583-0.82536-0.10025-1.8033-0.3009-2.6426-0.56069-0.83933-0.25979-1.5399-0.57885-2.3169-1.0712-0.77672-0.49238-1.6299-1.1582-2.3584-1.9489s-1.3319-1.7063-1.7931-2.5594c-0.46151-0.85317-0.78043-1.6439-1.0511-2.549-0.27066-0.90523-0.49248-1.9249-0.61741-3-0.12502-1.0752-0.15266-2.2058-0.10763-3.3746 0.0437-1.1688 0.16302-2.3758 0.37791-3.385 0.21508-1.0094 0.52715-1.8209 0.86706-2.6013 0.33982-0.78039 0.70747-1.5295 1.1896-2.2822 0.48213-0.75268 1.0786-1.5087 1.696-2.1574 0.6174-0.64861 1.2554-1.1897 1.9734-1.6336 0.71811-0.44395 1.5158-0.79077 2.3968-1.0474 0.88093-0.2566 1.8452-0.42308 2.8579-0.47852 1.0129-0.055442 2.0741 4.75e-5 3.007 0.11803 0.933 0.11797 1.7376 0.29831 2.4243 0.57243 0.68666 0.27412 1.2555 0.64176 1.9006 1.1412s1.3664 1.1307 1.9351 1.7793c0.56876 0.64863 0.98476 1.3145 1.3456 1.9561 0.36062 0.64163 0.66585 1.2589 0.92235 1.9179 0.2566 0.65898 0.46465 1.3595 0.63337 1.9858 0.16862 0.62629 0.31141 1.2363 0.36926 1.5265 0.0579 0.2901 0.0579 0.39672 0.0798 1.2791 0.0218 0.88236 0.0665 2.55 0.1103 4.2183zm-17.5-5.5144h11.632c-0.0693-0.43006-0.13861-0.85948-0.27379-1.2999-0.13509-0.44045-0.3363-0.89129-0.57561-1.3352-0.23921-0.44395-0.51661-0.88093-0.85642-1.2902-0.33982-0.40929-0.74224-0.79078-1.1929-1.1134-0.45077-0.32262-0.95028-0.58623-1.4046-0.74242-0.45439-0.1562-0.86365-0.20475-1.3527-0.20481-0.48915-5.7e-5 -1.0579 0.04849-1.5748 0.18026-0.5168 0.13175-0.98154 0.34677-1.325 0.56878-0.34342 0.22203-0.56544 0.45093-0.85319 0.78042-0.28814 0.3295-0.64173 0.75957-0.94012 1.2209-0.2983 0.46135-0.54112 0.9538-0.7145 1.3561-0.17328 0.40237-0.2774 0.7145-0.36062 1.0128-0.0827 0.2983-0.14554 0.58227-0.20795 0.86666zm-124.72 17.769c0-5.8261 0-11.652-0.0285-15.23-0.0275-3.5789-0.0846-4.9106-0.16881-6.1106-0.0836-1.1999-0.19485-2.2681-0.34742-3.1386-0.15247-0.87049-0.34665-1.5433-0.50283-2.1191-0.156-0.57572-0.27408-1.055-0.39197-1.5336h6.2635l0.39539 2.7676c0.4161-0.3607 0.83229-0.7214 1.2693-1.0648 0.4371-0.34339 0.8949-0.66938 1.5123-0.98848 0.6174-0.31909 1.3942-0.6312 2.0984-0.83581 0.70405-0.2046 1.3352-0.3017 1.9596-0.3537 0.62434-0.052013 1.2416-0.058872 1.8799 0.041819 0.6383 0.10068 1.2971 0.30877 1.8554 0.57942 0.55841 0.27063 1.0162 0.60357 1.4461 1.0337 0.43007 0.43012 0.83239 0.95732 1.2035 1.6024 0.37098 0.64512 0.71079 1.4081 0.96682 2.204 0.25593 0.79594 0.43168 1.6414 0.51604 2.1002 0.0846 0.45882 0.0846 0.56635 0.0846 4.0162v17.03h-6.2388s0-19.497-0.01-19.785c-0.01-0.28798-0.0209-0.86265-0.0731-1.2934-0.0522-0.4308-0.1425-0.71476-0.2222-0.94305-0.0798-0.22828-0.14915-0.40199-0.26002-0.56158-0.11077-0.1596-0.26334-0.30526-0.52003-0.38184-0.25669-0.07659-0.6174-0.08345-0.98857-0.03496-0.37116 0.04849-0.75268 0.15256-1.1967 0.38147-0.44413 0.22891-0.95029 0.58267-1.3908 0.99892-0.44071 0.41625-0.8152 0.89485-1.1551 1.5123-0.33991 0.61744-0.64514 1.3735-0.90183 2.0984-0.2565 0.72487-0.46474 1.4185-0.59299 2.303-0.12835 0.88448-0.17699 1.9596-0.20131 4.6091-0.0238 2.6495-0.0238 6.8726-0.0238 11.096h-6.2389zm-119.94-28.132v28.132h6.2387v-12.255h8.1819v12.255h6.2388v-28.132h-6.2388v10.816h-8.1819v-10.816zm303.1-0.50065v28.633h19.922v-5.0614h-13.684v-23.572zm-230.46 14.921h-6e-5c-0.33297-0.0971-0.66523-0.19402-1.0675-0.28077-0.40237-0.08679-0.87397-0.16304-1.3665-0.24282-0.49252-0.07983-1.0058-0.16299-1.5122-0.18388-0.50644-0.02086-1.0059 0.02067-1.4707 0.15944-0.46489 0.1387-0.89488 0.37454-1.2834 0.71104-0.38855 0.3365-0.73534 0.77347-1.0336 1.3597-0.2983 0.58624-0.54805 1.3214-0.63121 2.0915-0.0831 0.77007 1e-4 1.5746 0.18755 2.2024 0.18746 0.62777 0.47877 1.0786 0.87081 1.4601 0.39206 0.3814 0.88446 0.69349 1.6161 0.81466 0.73173 0.12117 1.7028 0.05182 2.5247-0.10081 0.82188-0.15265 1.4947-0.38847 2.0009-0.66589 0.50617-0.27741 0.84602-0.59646 1.1859-0.91552l-0.0207-6.4092zm0.48547-5.6436c-7e-3 -0.67972-0.0136-1.3589-0.28186-1.993-0.2681-0.63412-0.7978-1.2226-1.3326-1.584-0.53484-0.36138-1.0748-0.49513-1.6929-0.53446-0.6181-0.03925-1.314 0.01601-2.0945 0.18148-0.7805 0.16554-1.6453 0.44137-2.7244 0.83378-1.0791 0.39238-2.3726 0.90138-3.6659 1.4103l-1.7657-5.8856c1.0202-0.31391 2.0407-0.62791 3.159-0.9614 1.1183-0.33354 2.3346-0.68666 3.5806-0.89262 1.2459-0.20596 2.5211-0.2648 3.708-0.23534 1.187 0.02944 2.2857 0.14719 3.3157 0.52012 1.03 0.37294 1.9913 1.0007 2.7465 1.6483 0.75527 0.64753 1.3045 1.3145 1.7949 2.2072 0.49034 0.8927 0.92198 2.011 1.1573 2.8938 0.23529 0.88282 0.27455 1.5303 0.29415 2.3739 0.0197 0.84361 0.0197 1.8834 0.01 4.0612-0.01 2.1777-0.0294 5.4933 0.0294 7.5239 0.059 2.0306 0.1963 2.7761 0.48575 3.7767 0.28939 1.0006 0.73059 2.2555 1.172 3.5111l-6.1505 0.91228-0.58858-2.472c-0.43163 0.38258-0.8632 0.76511-1.4027 1.0839-0.53942 0.31876-1.1868 0.57381-1.8537 0.7504-0.66698 0.1766-1.3536 0.27468-2.1384 0.32378-0.78469 0.04916-1.6675 0.04916-2.6386-0.08821-0.97109-0.13725-2.0304-0.41191-3.0801-0.91208-1.0496-0.50015-2.0894-1.2261-2.8743-2.0303-0.78492-0.8043-1.3146-1.6871-1.7267-2.8152-0.41215-1.1281-0.70641-2.5014-0.71634-3.8062-0.01-1.3048 0.26471-2.5408 0.65709-3.6493 0.39237-1.1086 0.90246-2.0895 1.6481-3.0117 0.74561-0.92221 1.7265-1.7854 2.7273-2.4035 1.0007-0.61804 2.0209-0.99076 3.077-1.2054 1.0559-0.21458 2.1476-0.27104 3.0403-0.23173 0.89275 0.03925 1.5864 0.17425 2.2409 0.30694 0.65448 0.1327 1.2688 0.26293 1.884 0.39333h-6e-5z"/>
 <path id="a" d="m91.832 89.614v-15.99h-79.95v265.25h79.01v-16.931h-37.624c-8.9357 0-8.9357-8.9356-8.9357-8.9356v-209.75c0-12.698 11.993-11.993 11.993-11.993z" stroke="#000" stroke-width="3.8"/>
 <path d="m71.337 113.73h87.007l42.272 131.05 43.708-131.05h84.339l-92.547 206.8h-74.079z" fill="#80aa00"/>
 <use transform="matrix(-1 0 0 1 400.02 0)"  xlink:href="#a"/>
</svg>
