<?xml version="1.0" encoding="UTF-8" standalone="no"?>
<!-- Created with Inkscape (http://www.inkscape.org/) -->

<svg
   width="60.995079mm"
   height="39.203098mm"
   viewBox="0 0 60.995079 39.203098"
   version="1.1"
   id="svg1"
   xml:space="preserve"
   inkscape:version="1.3.2 (091e20e, 2023-11-25, custom)"
   sodipodi:docname="Ciné+Classic2024.svg"
   xmlns:inkscape="http://www.inkscape.org/namespaces/inkscape"
   xmlns:sodipodi="http://sodipodi.sourceforge.net/DTD/sodipodi-0.dtd"
   xmlns="http://www.w3.org/2000/svg"
   xmlns:svg="http://www.w3.org/2000/svg"><sodipodi:namedview
     id="namedview1"
     pagecolor="#ffffff"
     bordercolor="#666666"
     borderopacity="1.0"
     inkscape:showpageshadow="2"
     inkscape:pageopacity="0.0"
     inkscape:pagecheckerboard="0"
     inkscape:deskcolor="#d1d1d1"
     inkscape:document-units="mm"
     inkscape:zoom="1.0873489"
     inkscape:cx="75.87261"
     inkscape:cy="48.28257"
     inkscape:window-width="1600"
     inkscape:window-height="837"
     inkscape:window-x="-8"
     inkscape:window-y="-8"
     inkscape:window-maximized="1"
     inkscape:current-layer="layer1" /><defs
     id="defs1"><inkscape:path-effect
       effect="perspective-envelope"
       up_left_point="54.531247,103.28443"
       up_right_point="99.605527,103.28443"
       down_left_point="54.531247,111.81457"
       down_right_point="99.605527,111.81457"
       id="path-effect20"
       is_visible="true"
       lpeversion="1"
       deform_type="perspective"
       horizontal_mirror="false"
       vertical_mirror="false"
       overflow_perspective="false" /><inkscape:path-effect
       effect="perspective-envelope"
       up_left_point="130.41115,154.89012"
       up_right_point="183.76243,153.12904"
       down_left_point="131.12601,166.88057"
       down_right_point="184.15957,164.8154"
       id="path-effect19"
       is_visible="true"
       lpeversion="1"
       deform_type="perspective"
       horizontal_mirror="false"
       vertical_mirror="false"
       overflow_perspective="false" /><inkscape:path-effect
       effect="perspective-envelope"
       up_left_point="131.24293,154.80086"
       up_right_point="183.86576,153.13518"
       down_left_point="130.56098,167.34783"
       down_right_point="183.43573,165.27372"
       id="path-effect18"
       is_visible="true"
       lpeversion="1"
       deform_type="perspective"
       horizontal_mirror="false"
       vertical_mirror="false"
       overflow_perspective="false" /><inkscape:path-effect
       effect="perspective-envelope"
       up_left_point="92.230215,159.08093"
       up_right_point="131.76594,160.65355"
       down_left_point="95.824769,209.10599"
       down_right_point="128.39604,205.96075"
       id="path-effect12"
       is_visible="true"
       lpeversion="1"
       deform_type="perspective"
       horizontal_mirror="false"
       vertical_mirror="false"
       overflow_perspective="false" /><inkscape:path-effect
       effect="lattice2"
       gridpoint0="94.926131,164.47276"
       gridpoint1="125.25081,164.47276"
       gridpoint2="94.926131,206.41007"
       gridpoint3="125.25081,206.41007"
       gridpoint4="102.5073,164.47276"
       gridpoint5="117.66964,164.47276"
       gridpoint6="102.5073,206.41007"
       gridpoint7="117.66964,206.41007"
       gridpoint8x9="110.08847,164.47276"
       gridpoint10x11="110.08847,206.41007"
       gridpoint12="94.926131,174.95709"
       gridpoint13="125.25081,174.95709"
       gridpoint14="94.926131,195.92574"
       gridpoint15="125.25081,195.92574"
       gridpoint16="102.5073,174.95709"
       gridpoint17="117.66964,174.95709"
       gridpoint18="102.5073,195.92574"
       gridpoint19="117.66964,195.92574"
       gridpoint20x21="110.08847,174.95709"
       gridpoint22x23="110.08847,195.92574"
       gridpoint24x26="94.926131,185.44142"
       gridpoint25x27="125.25081,185.44142"
       gridpoint28x30="102.5073,185.44142"
       gridpoint29x31="117.66964,185.44142"
       gridpoint32x33x34x35="110.08847,185.44142"
       id="path-effect11"
       is_visible="true"
       lpeversion="1"
       horizontal_mirror="false"
       vertical_mirror="false"
       perimetral="false"
       live_update="true" /><inkscape:path-effect
       effect="perspective-envelope"
       up_left_point="91.125644,161.23617"
       up_right_point="123.69794,156.31155"
       down_left_point="97.479977,208.39025"
       down_right_point="128.4637,205.68967"
       id="path-effect10"
       is_visible="true"
       lpeversion="1"
       deform_type="perspective"
       horizontal_mirror="false"
       vertical_mirror="false"
       overflow_perspective="false" /><inkscape:path-effect
       effect="perspective-envelope"
       up_left_point="53.535258,175.3796"
       up_right_point="73.39255,175.3796"
       down_left_point="52.264391,196.66662"
       down_right_point="71.168533,196.50776"
       id="path-effect9"
       is_visible="true"
       lpeversion="1"
       deform_type="perspective"
       horizontal_mirror="false"
       vertical_mirror="false"
       overflow_perspective="false" /><inkscape:path-effect
       effect="perspective-envelope"
       up_left_point="35.886908,162.66557"
       up_right_point="89.098572,162.34785"
       down_left_point="36.998916,209.91525"
       down_right_point="88.30428,208.64438"
       id="path-effect8"
       is_visible="true"
       lpeversion="1"
       deform_type="perspective"
       horizontal_mirror="false"
       vertical_mirror="false"
       overflow_perspective="false" /><inkscape:path-effect
       effect="perspective-envelope"
       up_left_point="35.584269,162.98864"
       up_right_point="88.960671,161.40005"
       down_left_point="37.172852,210.64613"
       down_right_point="87.848663,207.62783"
       id="path-effect7"
       is_visible="true"
       lpeversion="1"
       deform_type="perspective"
       horizontal_mirror="false"
       vertical_mirror="false"
       overflow_perspective="false" /><inkscape:path-effect
       effect="perspective-envelope"
       up_left_point="34.953494,162.85915"
       up_right_point="85.068025,162.48676"
       down_left_point="38.323388,207.93713"
       down_right_point="92.647109,209.95907"
       id="path-effect6"
       is_visible="true"
       lpeversion="1"
       deform_type="perspective"
       horizontal_mirror="false"
       vertical_mirror="false"
       overflow_perspective="false" /><inkscape:path-effect
       effect="perspective-envelope"
       up_left_point="99.327046,148.5"
       up_right_point="115.06144,147.78985"
       down_left_point="101.31278,165.9751"
       down_right_point="113.08312,165.30648"
       id="path-effect5"
       is_visible="true"
       lpeversion="1"
       deform_type="perspective"
       horizontal_mirror="false"
       vertical_mirror="false"
       overflow_perspective="false" /><inkscape:path-effect
       effect="perspective-envelope"
       up_left_point="408.04276,575.34327"
       up_right_point="479.52876,564.5621"
       down_left_point="410.4444,641.41709"
       down_right_point="490.03593,634.3823"
       id="path-effect4"
       is_visible="true"
       lpeversion="1"
       deform_type="perspective"
       horizontal_mirror="false"
       vertical_mirror="false"
       overflow_perspective="false" /><rect
       x="346.43625"
       y="580.59595"
       width="114.6782"
       height="63.943607"
       id="rect2" /><inkscape:path-effect
       effect="perspective-envelope"
       up_left_point="410.32956,505.84423"
       up_right_point="529.54091,500.79399"
       down_left_point="409.42773,547.06765"
       down_right_point="529.18018,541.29595"
       id="path-effect1"
       is_visible="true"
       lpeversion="1"
       deform_type="perspective"
       horizontal_mirror="false"
       vertical_mirror="false"
       overflow_perspective="false" /><rect
       x="368.6514"
       y="516.95251"
       width="148.30113"
       height="132.69049"
       id="rect1" /></defs><g
     inkscape:label="Calque 1"
     inkscape:groupmode="layer"
     id="layer1"
     transform="translate(-202.25945,-182.58485)"><text
       xml:space="preserve"
       style="font-style:normal;font-variant:normal;font-weight:normal;font-stretch:normal;font-size:10.5833px;line-height:1.25;font-family:'Futura Extra';-inkscape-font-specification:'Futura Extra';text-align:end;letter-spacing:0px;word-spacing:0px;text-anchor:end;stroke-width:0.264583"
       x="85.624641"
       y="169.97841"
       id="text7"><tspan
         sodipodi:role="line"
         id="tspan7"
         style="font-style:normal;font-variant:normal;font-weight:normal;font-stretch:normal;font-family:'Futura Extra';-inkscape-font-specification:'Futura Extra';fill:#ff00ff;stroke-width:0.264583"
         x="85.624641"
         y="169.97841" /></text><path
       id="rect12"
       style="fill:#010101;fill-opacity:1;fill-rule:evenodd;stroke-width:0.3809"
       d="m 202.25945,182.58485 h 60.99508 v 35.15923 l -60.99508,4.04387 z"
       sodipodi:nodetypes="ccccc" /><g
       id="text12"
       style="font-size:15.6381px;line-height:1.25;font-family:'Futura Canal Bold';-inkscape-font-specification:'Futura Canal Bold, ';text-align:end;letter-spacing:0px;word-spacing:0px;text-anchor:end;fill:#ff00ff;stroke-width:0.390956"
       aria-label="CINÉ+"
       transform="translate(75.102116,47.339783)"><path
         style="font-family:'Futura Canal Bold Italique';-inkscape-font-specification:'Futura Canal Bold Italique';fill:#ffffff"
         d="m 141.09672,140.3285 -0.28149,2.2988 q -0.0313,0.29713 -0.10946,0.29713 -0.0469,0 -0.10947,-0.0469 l -0.17202,-0.14074 q -0.42223,-0.34404 -1.14158,-0.54734 -0.70372,-0.21893 -1.40743,-0.21893 -1.59509,0 -2.6272,0.96956 -1.03212,0.95393 -1.03212,2.43955 0,1.39179 0.89138,2.28316 0.90701,0.87573 2.31443,0.87573 0.71936,0 1.50126,-0.18765 0.79754,-0.2033 1.07903,-0.45351 0.0469,-0.0626 0.0938,-0.0626 0.0626,0 0.0626,0.0782 0,0.0938 -0.0156,0.17202 l -0.21893,2.54901 q 0,0.1251 -0.17202,0.20329 -0.42223,0.2033 -1.25105,0.35968 -0.81318,0.15638 -1.50125,0.15638 -2.54901,0 -4.19102,-1.642 -1.642,-1.642 -1.642,-4.19101 0,-2.67412 1.86094,-4.51941 1.86093,-1.8453 4.56632,-1.8453 1.37616,0 2.79922,0.59425 0.70372,0.29713 0.70372,0.5317 z"
         id="path15" /><path
         style="fill:#ffffff"
         d="m 142.25394,151.11879 h 3.04943 v -11.72858 h -3.04943 z"
         id="path16" /><path
         style="font-family:'Futura Canal Bold Italique';-inkscape-font-specification:'Futura Canal Bold Italique';fill:#ffffff"
         d="m 160.40978,139.39021 -1.43871,11.72858 h -3.25272 l -3.12762,-5.2544 q -0.35968,-0.62553 -0.50042,-0.92265 -0.46914,-0.89137 -0.93829,-1.98604 v 0.5317 q 0,1.26668 -0.1251,2.22061 l -0.6568,5.41078 h -2.97124 l 1.43871,-11.72858 h 3.20581 l 3.34655,5.661 0.50042,0.93828 0.4535,0.90701 0.23458,0.43787 q 0,-0.37531 0.0156,-0.48478 0.0313,-0.73499 0.12511,-1.53254 l 0.73499,-5.92684 z"
         id="path17" /><path
         style="fill:#ffffff"
         d="m 162.03615,151.11879 h 6.66183 v -2.58029 h -3.6124 v -2.03295 h 3.42475 v -2.58029 h -3.42475 v -1.95476 h 3.6124 v -2.58029 h -1.01647 l 0.17202,-0.48478 h -4.62888 l -0.17202,0.48478 h -1.01648 z m 22.01268,-4.81654 v -3.19017 q 0,-0.20329 -0.17202,-0.20329 h -3.92516 q -0.15638,0 -0.15638,-0.21894 v -3.6124 q 0,-0.15638 -0.2033,-0.15638 h -3.19017 q -0.15638,0 -0.15638,0.15638 v 3.6124 q 0,0.21894 -0.18766,0.21894 h -4.19101 q -0.17202,0 -0.17202,0.17202 v 3.20581 q 0,0.20329 0.18766,0.20329 h 4.15973 q 0.2033,0 0.2033,0.23457 v 4.20665 q 0,0.18766 0.17202,0.18766 h 3.20581 q 0.17202,0 0.17202,-0.21893 v -4.20665 q 0,-0.2033 0.20329,-0.2033 h 3.87825 q 0.17202,0 0.17202,-0.18766 z"
         id="path18" /></g><path
       d="m 207.14438,212.81314 -0.31273,2.60059 q -0.82297,-0.75714 -1.69532,-0.75714 -0.85589,0 -1.41551,0.62546 -0.54316,0.609 -0.54316,1.56364 0,0.82297 0.46087,1.31676 0.46086,0.47732 1.23445,0.47732 0.75713,0 1.64594,-0.64192 l -0.32919,2.60059 q -1.31675,0.46086 -2.17264,0.46086 -1.72823,0 -2.84747,-1.16862 -1.10278,-1.16862 -1.10278,-2.97915 0,-2.04097 1.28383,-3.35772 1.30029,-1.31675 3.29188,-1.31675 0.59254,0 1.16862,0.11522 0.65837,0.13167 1.33321,0.46086 z m 5.267,-4.34528 -1.51427,12.34455 h -3.04498 l 1.51426,-12.34455 z m 10.63276,4.01609 -1.02048,8.32846 h -3.04499 l 0.21397,-0.90527 q -0.32919,0.29627 -0.4444,0.37857 -1.00403,0.77359 -2.37016,0.77359 -1.56364,0 -2.50183,-1.06986 -0.93818,-1.06986 -0.93818,-2.86394 0,-2.12326 1.23445,-3.50585 1.23446,-1.38259 3.12729,-1.38259 0.83943,0 1.51426,0.29627 0.51024,0.23043 1.16862,0.90527 l 0.0165,-0.95465 z m -3.4071,3.95026 q 0,-0.83943 -0.42794,-1.30029 -0.42795,-0.47733 -1.20154,-0.47733 -0.83943,0 -1.39905,0.64192 -0.55962,0.64192 -0.55962,1.59656 0,0.80651 0.44441,1.28383 0.46086,0.46087 1.21799,0.46087 0.82297,0 1.36613,-0.62546 0.55962,-0.64192 0.55962,-1.5801 z m 12.01537,-3.37418 -0.72422,2.1068 q -1.16862,-0.72421 -2.0245,-0.72421 -1.05341,0 -1.05341,0.51024 0,0.27981 0.49379,0.41149 l 0.98756,0.26335 q 2.20556,0.59254 2.20556,2.33723 0,1.41551 -1.0534,2.25494 -1.03694,0.83943 -2.7981,0.83943 -1.02048,0 -1.87637,-0.27981 -0.85589,-0.27981 -1.92575,-0.98756 l 1.10278,-2.02451 q 0.87235,0.55962 1.41551,0.77359 0.54316,0.19751 1.16861,0.19751 1.1357,0 1.1357,-0.57607 0,-0.32919 -0.47732,-0.44441 l -0.98756,-0.23043 q -1.15216,-0.26335 -1.69532,-0.83943 -0.5267,-0.59254 -0.5267,-1.5801 0,-1.30029 0.9711,-2.07389 0.97111,-0.79005 2.58413,-0.79005 1.46488,0 3.07791,0.85589 z m 8.44367,0 -0.72421,2.1068 q -1.16862,-0.72421 -2.02451,-0.72421 -1.0534,0 -1.0534,0.51024 0,0.27981 0.49379,0.41149 l 0.98756,0.26335 q 2.20556,0.59254 2.20556,2.33723 0,1.41551 -1.0534,2.25494 -1.03694,0.83943 -2.7981,0.83943 -1.02048,0 -1.87637,-0.27981 -0.85589,-0.27981 -1.92575,-0.98756 l 1.10278,-2.02451 q 0.87235,0.55962 1.41551,0.77359 0.54316,0.19751 1.16861,0.19751 1.1357,0 1.1357,-0.57607 0,-0.32919 -0.47732,-0.44441 l -0.98756,-0.23043 q -1.15216,-0.26335 -1.69532,-0.83943 -0.5267,-0.59254 -0.5267,-1.5801 0,-1.30029 0.9711,-2.07389 0.97111,-0.79005 2.58413,-0.79005 1.46488,0 3.0779,0.85589 z m 5.71143,-2.94623 q 0,0.79005 -0.5267,1.33321 -0.5267,0.54316 -1.28384,0.54316 -0.75713,0 -1.28383,-0.54316 -0.5267,-0.54316 -0.5267,-1.31675 0,-0.74068 0.54316,-1.26738 0.55962,-0.54316 1.31675,-0.54316 0.70776,0 1.23446,0.54316 0.5267,0.5267 0.5267,1.25092 z m -0.57608,2.37015 -1.02048,8.32846 h -3.04499 l 1.02048,-8.32846 z m 8.312,0.32919 -0.31272,2.60059 q -0.82297,-0.75714 -1.69532,-0.75714 -0.85589,0 -1.41551,0.62546 -0.54316,0.609 -0.54316,1.56364 0,0.82297 0.46086,1.31676 0.46086,0.47732 1.23446,0.47732 0.75713,0 1.64594,-0.64192 l -0.32919,2.60059 q -1.31675,0.46086 -2.17264,0.46086 -1.72824,0 -2.84748,-1.16862 -1.10278,-1.16862 -1.10278,-2.97915 0,-2.04097 1.28383,-3.35772 1.3003,-1.31675 3.29188,-1.31675 0.59254,0 1.16862,0.11522 0.65838,0.13167 1.33321,0.46086 z"
       id="text20-8"
       style="font-size:16.4594px;line-height:1.25;font-family:'Futura Canal Bold Italique';-inkscape-font-specification:'Futura Canal Bold Italique';text-align:end;letter-spacing:0px;word-spacing:0px;text-anchor:end;fill:#0baae5;stroke-width:0.411488"
       transform="matrix(0.99133183,-0.03743587,0.03731498,1.0073348,0,0)"
       aria-label="classic" /></g></svg>
