<?xml version="1.0" encoding="UTF-8" standalone="no"?>
<!-- Created with Inkscape (http://www.inkscape.org/) -->

<svg
   width="60.995079mm"
   height="39.203098mm"
   viewBox="0 0 60.995079 39.203098"
   version="1.1"
   id="svg1"
   xml:space="preserve"
   inkscape:version="1.3.2 (091e20e, 2023-11-25, custom)"
   sodipodi:docname="Ciné+Frisson.svg"
   xmlns:inkscape="http://www.inkscape.org/namespaces/inkscape"
   xmlns:sodipodi="http://sodipodi.sourceforge.net/DTD/sodipodi-0.dtd"
   xmlns="http://www.w3.org/2000/svg"
   xmlns:svg="http://www.w3.org/2000/svg"><sodipodi:namedview
     id="namedview1"
     pagecolor="#ffffff"
     bordercolor="#666666"
     borderopacity="1.0"
     inkscape:showpageshadow="2"
     inkscape:pageopacity="0.0"
     inkscape:pagecheckerboard="0"
     inkscape:deskcolor="#d1d1d1"
     inkscape:document-units="mm"
     inkscape:zoom="0.29442691"
     inkscape:cx="76.419646"
     inkscape:cy="69.626788"
     inkscape:window-width="1600"
     inkscape:window-height="837"
     inkscape:window-x="-8"
     inkscape:window-y="-8"
     inkscape:window-maximized="1"
     inkscape:current-layer="layer1" /><defs
     id="defs1"><inkscape:path-effect
       effect="perspective-envelope"
       up_left_point="130.41115,154.89012"
       up_right_point="183.76243,153.12904"
       down_left_point="131.12601,166.88057"
       down_right_point="184.15957,164.8154"
       id="path-effect19"
       is_visible="true"
       lpeversion="1"
       deform_type="perspective"
       horizontal_mirror="false"
       vertical_mirror="false"
       overflow_perspective="false" /><inkscape:path-effect
       effect="perspective-envelope"
       up_left_point="131.24293,154.80086"
       up_right_point="183.86576,153.13518"
       down_left_point="130.56098,167.34783"
       down_right_point="183.43573,165.27372"
       id="path-effect18"
       is_visible="true"
       lpeversion="1"
       deform_type="perspective"
       horizontal_mirror="false"
       vertical_mirror="false"
       overflow_perspective="false" /><inkscape:path-effect
       effect="perspective-envelope"
       up_left_point="92.230215,159.08093"
       up_right_point="131.76594,160.65355"
       down_left_point="95.824769,209.10599"
       down_right_point="128.39604,205.96075"
       id="path-effect12"
       is_visible="true"
       lpeversion="1"
       deform_type="perspective"
       horizontal_mirror="false"
       vertical_mirror="false"
       overflow_perspective="false" /><inkscape:path-effect
       effect="lattice2"
       gridpoint0="94.926131,164.47276"
       gridpoint1="125.25081,164.47276"
       gridpoint2="94.926131,206.41007"
       gridpoint3="125.25081,206.41007"
       gridpoint4="102.5073,164.47276"
       gridpoint5="117.66964,164.47276"
       gridpoint6="102.5073,206.41007"
       gridpoint7="117.66964,206.41007"
       gridpoint8x9="110.08847,164.47276"
       gridpoint10x11="110.08847,206.41007"
       gridpoint12="94.926131,174.95709"
       gridpoint13="125.25081,174.95709"
       gridpoint14="94.926131,195.92574"
       gridpoint15="125.25081,195.92574"
       gridpoint16="102.5073,174.95709"
       gridpoint17="117.66964,174.95709"
       gridpoint18="102.5073,195.92574"
       gridpoint19="117.66964,195.92574"
       gridpoint20x21="110.08847,174.95709"
       gridpoint22x23="110.08847,195.92574"
       gridpoint24x26="94.926131,185.44142"
       gridpoint25x27="125.25081,185.44142"
       gridpoint28x30="102.5073,185.44142"
       gridpoint29x31="117.66964,185.44142"
       gridpoint32x33x34x35="110.08847,185.44142"
       id="path-effect11"
       is_visible="true"
       lpeversion="1"
       horizontal_mirror="false"
       vertical_mirror="false"
       perimetral="false"
       live_update="true" /><inkscape:path-effect
       effect="perspective-envelope"
       up_left_point="91.125644,161.23617"
       up_right_point="123.69794,156.31155"
       down_left_point="97.479977,208.39025"
       down_right_point="128.4637,205.68967"
       id="path-effect10"
       is_visible="true"
       lpeversion="1"
       deform_type="perspective"
       horizontal_mirror="false"
       vertical_mirror="false"
       overflow_perspective="false" /><inkscape:path-effect
       effect="perspective-envelope"
       up_left_point="53.535258,175.3796"
       up_right_point="73.39255,175.3796"
       down_left_point="52.264391,196.66662"
       down_right_point="71.168533,196.50776"
       id="path-effect9"
       is_visible="true"
       lpeversion="1"
       deform_type="perspective"
       horizontal_mirror="false"
       vertical_mirror="false"
       overflow_perspective="false" /><inkscape:path-effect
       effect="perspective-envelope"
       up_left_point="35.886908,162.66557"
       up_right_point="89.098572,162.34785"
       down_left_point="36.998916,209.91525"
       down_right_point="88.30428,208.64438"
       id="path-effect8"
       is_visible="true"
       lpeversion="1"
       deform_type="perspective"
       horizontal_mirror="false"
       vertical_mirror="false"
       overflow_perspective="false" /><inkscape:path-effect
       effect="perspective-envelope"
       up_left_point="35.584269,162.98864"
       up_right_point="88.960671,161.40005"
       down_left_point="37.172852,210.64613"
       down_right_point="87.848663,207.62783"
       id="path-effect7"
       is_visible="true"
       lpeversion="1"
       deform_type="perspective"
       horizontal_mirror="false"
       vertical_mirror="false"
       overflow_perspective="false" /><inkscape:path-effect
       effect="perspective-envelope"
       up_left_point="34.953494,162.85915"
       up_right_point="85.068025,162.48676"
       down_left_point="38.323388,207.93713"
       down_right_point="92.647109,209.95907"
       id="path-effect6"
       is_visible="true"
       lpeversion="1"
       deform_type="perspective"
       horizontal_mirror="false"
       vertical_mirror="false"
       overflow_perspective="false" /><inkscape:path-effect
       effect="perspective-envelope"
       up_left_point="99.327046,148.5"
       up_right_point="115.06144,147.78985"
       down_left_point="101.31278,165.9751"
       down_right_point="113.08312,165.30648"
       id="path-effect5"
       is_visible="true"
       lpeversion="1"
       deform_type="perspective"
       horizontal_mirror="false"
       vertical_mirror="false"
       overflow_perspective="false" /><inkscape:path-effect
       effect="perspective-envelope"
       up_left_point="408.04276,575.34327"
       up_right_point="479.52876,564.5621"
       down_left_point="410.4444,641.41709"
       down_right_point="490.03593,634.3823"
       id="path-effect4"
       is_visible="true"
       lpeversion="1"
       deform_type="perspective"
       horizontal_mirror="false"
       vertical_mirror="false"
       overflow_perspective="false" /><rect
       x="346.43625"
       y="580.59595"
       width="114.6782"
       height="63.943607"
       id="rect2" /><inkscape:path-effect
       effect="perspective-envelope"
       up_left_point="410.32956,505.84423"
       up_right_point="529.54091,500.79399"
       down_left_point="409.42773,547.06765"
       down_right_point="529.18018,541.29595"
       id="path-effect1"
       is_visible="true"
       lpeversion="1"
       deform_type="perspective"
       horizontal_mirror="false"
       vertical_mirror="false"
       overflow_perspective="false" /><rect
       x="368.6514"
       y="516.95251"
       width="148.30113"
       height="132.69049"
       id="rect1" /></defs><g
     inkscape:label="Calque 1"
     inkscape:groupmode="layer"
     id="layer1"
     transform="translate(-127.15733,-135.24507)"><text
       xml:space="preserve"
       style="font-style:normal;font-variant:normal;font-weight:normal;font-stretch:normal;font-size:10.5833px;line-height:1.25;font-family:'Futura Extra';-inkscape-font-specification:'Futura Extra';text-align:end;letter-spacing:0px;word-spacing:0px;text-anchor:end;stroke-width:0.264583"
       x="85.624641"
       y="169.97841"
       id="text7"><tspan
         sodipodi:role="line"
         id="tspan7"
         style="font-style:normal;font-variant:normal;font-weight:normal;font-stretch:normal;font-family:'Futura Extra';-inkscape-font-specification:'Futura Extra';fill:#ff00ff;stroke-width:0.264583"
         x="85.624641"
         y="169.97841" /></text><path
       style="fill:#000000"
       d="m -56.767825,808.77052 c -13.363302,-0.98104 -21.126147,-2.40396 -30.823958,-5.65 -11.15824,-3.73486 -20.897077,-9.18217 -29.633327,-16.57505 -2.72889,-2.30927 -8.2897,-7.97956 -10.49211,-10.69868 -9.06263,-11.18881 -15.19128,-24.77489 -17.94305,-39.77638 -1.31645,-7.17672 -1.57129,-10.29141 -1.58357,-19.35475 -0.0116,-8.57158 0.13617,-10.73501 1.19445,-17.48521 2.39764,-15.29322 8.43949,-29.35221 17.74581,-41.29338 2.53753,-3.25596 8.30612,-9.18156 11.60763,-11.92357 14.28004,-11.86002 32.108921,-18.95805 53.445834,-21.27785 5.015792,-0.54532 20.706766,-0.47069 25.717328,0.12233 20.495788,2.42575 37.09482413,9.0011 51.011837,20.20726 4.879931,3.92938 10.826132,10.08132 14.342906,14.83917 5.285244,7.1504 9.983633,16.32467 12.762504,24.92057 4.801556,14.8527 6.068353,32.98498 3.429534,49.0886 -2.558523,15.6136 -8.37912,29.16906 -17.665631,41.14108 -2.861867,3.68948 -9.881017,10.67507 -13.663064,13.59775 -14.5206986,11.22127 -31.085085,17.54882 -51.329165,19.6076 -3.899951,0.39662 -15.300951,0.71776 -18.123958,0.51051 z m 12.567708,-57.50061 c 7.566639,-1.70426 13.915071,-6.12281 18.328796,-12.75696 7.26149,-10.91454 8.326222,-27.25212 2.564318,-39.34771 -1.78679,-3.75089 -3.40069,-6.09849 -6.156586,-8.95545 -3.898164,-4.04111 -8.586417,-6.82051 -13.810486,-8.18745 -3.539018,-0.92602 -9.204602,-1.15737 -12.903373,-0.52689 -11.444897,1.95085 -20.465116,9.97101 -24.400943,21.69563 -1.535727,4.57485 -1.832412,6.68741 -1.843639,13.1277 -0.0083,4.74674 0.08733,6.43374 0.47177,8.32478 3.123152,15.36256 13.332221,25.39955 27.695977,27.22913 1.942591,0.24743 7.852434,-0.10688 10.054166,-0.60278 z M 252.3978,808.35998 c -17.99588,-1.20953 -37.77646,-6.57209 -53.57813,-14.52516 -3.34698,-1.68456 -6.06528,-3.17584 -6.04067,-3.31396 0.0246,-0.13812 4.41261,-11.02628 9.75109,-24.19592 5.33849,-13.16963 9.78579,-24.15306 9.88289,-24.40761 0.14943,-0.3917 0.6229,-0.13506 3.08121,1.67009 12.13262,8.90905 22.38227,13.71081 33.06715,15.49129 4.06564,0.67748 10.48126,0.62785 13.42146,-0.10383 5.96074,-1.48335 9.53271,-4.74215 9.92366,-9.05362 0.33646,-3.71046 -1.99942,-6.92445 -6.23682,-8.58142 -2.16003,-0.84465 -2.91396,-1.00671 -13.00726,-2.7959 -13.11093,-2.32412 -18.31351,-3.67378 -25.06511,-6.50245 -18.85511,-7.89959 -29.49733,-25.97882 -28.1146,-47.76168 0.83863,-13.21129 5.20163,-24.41143 13.23478,-33.97466 12.05237,-14.34799 30.21136,-22.93526 52.88598,-25.00944 3.90522,-0.35723 14.83224,-0.35035 19.07353,0.012 10.22803,0.87386 19.59463,3.09943 29.63334,7.04109 4.18315,1.6425 15.89967,7.27797 17.12364,8.23621 l 0.58718,0.45971 -8.5866,21.82812 c -4.72264,12.00547 -8.70917,22.10514 -8.85898,22.44371 l -0.27237,0.61558 -1.12092,-0.84632 c -4.77977,-3.60887 -12.17975,-7.70501 -17.1282,-9.48104 -6.06005,-2.17498 -10.90179,-3.02109 -17.33021,-3.02852 -5.2977,-0.006 -7.33876,0.36718 -10.36771,1.89619 -1.65611,0.836 -3.57355,2.56504 -4.21052,3.79679 -1.24006,2.39801 -0.93913,5.43004 0.71727,7.22703 2.19748,2.38398 5.51178,3.53559 19.81408,6.88476 15.64269,3.66306 19.22216,4.75679 25.66436,7.84193 11.39482,5.45692 18.97355,13.55244 23.38795,24.98278 3.82333,9.89988 4.50831,22.60512 1.85053,34.3243 -2.84627,12.5503 -9.89716,23.70334 -20.28979,32.0942 -15.27427,12.33222 -38.08757,18.40289 -62.89221,16.73573 z"
       id="path10"
       sodipodi:nodetypes="sssssssssssssssssssssssssssssssssssssssssssssssscsscsscsssssssss" /><path
       id="rect12"
       style="fill:#010101;fill-opacity:1;fill-rule:evenodd;stroke-width:0.3809"
       d="m 127.15733,135.24507 h 60.99508 v 35.15923 l -60.99508,4.04387 z"
       sodipodi:nodetypes="ccccc" /><path
       style="font-size:10.5833px;line-height:1.25;font-family:'Futura Canal Bold Italique';-inkscape-font-specification:'Futura Canal Bold Italique';text-align:end;letter-spacing:0px;word-spacing:0px;text-anchor:end;fill:#e90004;fill-opacity:1;stroke-width:0.264583"
       d="m 137.27995,155.17671 -0.15917,2.47546 c -0.34935,-0.24666 -0.6811,-0.36467 -0.99518,-0.35389 -0.33512,0.0115 -0.58585,0.12366 -0.75211,0.3365 -0.16627,0.21282 -0.26718,0.55795 -0.30273,1.03526 l 1.97791,-0.0691 -0.15704,2.22074 -1.97623,0.0712 -0.36656,5.62319 -2.91801,0.11329 0.37595,-5.63162 -1.22886,0.0443 0.13607,-2.22671 1.22992,-0.043 0.0486,-0.51474 c 0.0598,-0.59311 0.14775,-1.06814 0.26378,-1.42493 0.12649,-0.3572 0.32347,-0.68051 0.59091,-0.96986 0.58438,-0.63227 1.37544,-0.9649 2.37245,-0.99788 0.2727,-0.009 0.47776,-0.005 0.61523,0.0108 0.38026,0.0393 0.7953,0.13963 1.24503,0.301 z m 6.69297,3.19761 -0.20047,2.67728 c -0.42708,-0.21069 -0.86394,-0.30802 -1.31053,-0.29189 -0.51952,0.0188 -0.91794,0.16181 -1.19508,0.42912 -0.14813,0.14943 -0.25874,0.31808 -0.33182,0.50593 -0.10091,0.25056 -0.17662,0.67497 -0.22715,1.27302 l -0.23915,3.31845 -2.88532,0.11202 0.53109,-7.83461 2.89401,-0.10116 -0.16125,1.05755 c 0.41584,-0.40645 0.76608,-0.67653 1.05071,-0.81024 0.39565,-0.19944 0.89495,-0.30968 1.49771,-0.33075 0.21815,-0.008 0.41056,-0.009 0.57725,-0.005 z m 4.57885,-2.39784 c 0.0251,0.49339 -0.11915,0.91517 -0.43284,1.26553 -0.3137,0.35037 -0.70858,0.53382 -1.18479,0.55035 -0.47644,0.0165 -0.8894,-0.139 -1.2389,-0.46681 -0.34971,-0.32801 -0.53738,-0.73396 -0.56282,-1.21786 -0.0244,-0.46351 0.12612,-0.86597 0.45149,-1.20719 0.33521,-0.35188 0.74151,-0.5357 1.21876,-0.55145 0.44592,-0.0147 0.84337,0.14242 1.19232,0.47125 0.34819,0.31831 0.53373,0.70371 0.55678,1.15618 z m -0.42972,2.23735 -0.56105,7.79703 -2.86504,0.11124 0.55249,-7.80782 z m 8.10489,0.25411 -0.58366,1.98427 c -0.74967,-0.42273 -1.39178,-0.6247 -1.92591,-0.60554 -0.65778,0.0236 -0.97906,0.19382 -0.96353,0.51059 0.009,0.17367 0.16897,0.29576 0.48128,0.36628 l 0.93618,0.21137 c 1.39203,0.31698 2.1127,1.01512 2.1638,2.09398 0.0414,0.87449 -0.25284,1.58303 -0.88283,2.12623 -0.61985,0.54289 -1.47766,0.83571 -2.57426,0.87841 -0.63596,0.0248 -1.22528,-0.0389 -1.76795,-0.19104 -0.54305,-0.15226 -1.16002,-0.43443 -1.85121,-0.84675 l 0.93964,-1.9207 c 0.5629,0.32639 1.01716,0.54935 1.36301,0.66906 0.3452,0.10945 0.71289,0.15677 1.10308,0.142 0.70814,-0.0268 1.05336,-0.21836 1.03603,-0.57474 -0.01,-0.20369 -0.16538,-0.33564 -0.46651,-0.39583 l -0.93484,-0.17954 c -0.72765,-0.1364 -1.2704,-0.37694 -1.62793,-0.7217 -0.348,-0.35561 -0.53752,-0.84015 -0.56838,-1.45371 -0.0407,-0.80842 0.23116,-1.46433 0.81545,-1.96722 0.58371,-0.51307 1.3803,-0.78715 2.38907,-0.82228 0.91526,-0.0319 1.8886,0.20061 2.91947,0.69686 z m 7.86001,-0.27686 -0.5861,1.97665 c -0.74218,-0.42124 -1.37846,-0.62253 -1.90839,-0.60353 -0.65263,0.0234 -0.97196,0.19294 -0.95769,0.50852 0.008,0.17301 0.16657,0.29466 0.47613,0.36495 l 0.92798,0.21071 c 1.37978,0.31598 2.09222,1.01158 2.13906,2.08636 0.038,0.87118 -0.25649,1.57699 -0.88341,2.11804 -0.61685,0.54075 -1.46887,0.83232 -2.55688,0.87469 -0.63098,0.0246 -1.21537,-0.0389 -1.75317,-0.19059 -0.53818,-0.15178 -1.14922,-0.43297 -1.8334,-0.84384 l 0.93902,-1.91326 c 0.55724,0.32524 1.00706,0.54742 1.34972,0.66673 0.34205,0.10909 0.70665,0.15628 1.09379,0.14162 0.70259,-0.0266 1.04574,-0.21736 1.02982,-0.57239 -0.009,-0.20292 -0.16286,-0.33439 -0.46137,-0.39441 l -0.92674,-0.179 c -0.72136,-0.13598 -1.25891,-0.37569 -1.61237,-0.7192 -0.34394,-0.3543 -0.5302,-0.83703 -0.55862,-1.44826 -0.0374,-0.80534 0.23457,-1.45871 0.81599,-1.9596 0.58089,-0.51103 1.3721,-0.78396 2.37294,-0.81881 0.90805,-0.0316 1.8728,0.20011 2.89369,0.69462 z m 10.20315,2.7698 c 0.0488,1.26147 -0.32355,2.30029 -1.117,3.11766 -0.79391,0.80735 -1.86008,1.23712 -3.19981,1.28929 -1.35163,0.0526 -2.46792,-0.27288 -3.34854,-0.97741 -0.8723,-0.71613 -1.33489,-1.67709 -1.38679,-2.8831 -0.0515,-1.19725 0.34276,-2.1981 1.18284,-3.00144 0.85011,-0.80359 1.95434,-1.229 3.31138,-1.27628 1.32488,-0.0462 2.40484,0.27682 3.24029,0.96812 0.83379,0.68013 1.2727,1.60126 1.31763,2.76316 z m -2.85554,0.0899 c -0.0207,-0.51583 -0.16784,-0.91077 -0.44164,-1.18472 -0.27436,-0.28422 -0.649,-0.41785 -1.12399,-0.40077 -0.52577,0.0189 -0.95261,0.23227 -1.28028,0.64007 -0.32767,0.40777 -0.47926,0.90547 -0.4548,1.49284 0.0207,0.49596 0.1736,0.88543 0.4587,1.16845 0.29463,0.27239 0.67415,0.39974 1.13852,0.38218 0.5146,-0.0195 0.93042,-0.22733 1.24768,-0.62363 0.32695,-0.40679 0.47889,-0.89819 0.45581,-1.47442 z m 12.52905,-2.00174 c 0.0109,0.32203 -0.005,0.7406 -0.0471,1.25563 l -0.37597,4.30924 -2.76326,0.10728 0.28479,-3.37481 c 0.0371,-0.36402 0.0508,-0.68194 0.0412,-0.95372 -0.0285,-0.80571 -0.38263,-1.19656 -1.06272,-1.17205 -0.4503,0.0162 -0.78464,0.19492 -1.00284,0.53608 -0.19962,0.30007 -0.33049,0.83478 -0.39259,1.60377 l -0.29396,3.45493 -2.77782,0.10785 0.64339,-7.69146 2.78585,-0.0974 -0.18913,1.00836 c 0.39729,-0.38829 0.72342,-0.66279 0.9784,-0.82348 0.50022,-0.31088 1.07057,-0.47745 1.71082,-0.49976 0.75977,-0.0265 1.35115,0.15501 1.77432,0.54418 0.43247,0.37841 0.66124,0.94025 0.68656,1.68534 z"
       id="text18"
       aria-label="frisson"
       transform="translate(0,0.1123298)" /><g
       id="text12"
       style="font-size:15.6381px;line-height:1.25;font-family:'Futura Canal Bold';-inkscape-font-specification:'Futura Canal Bold, ';text-align:end;letter-spacing:0px;word-spacing:0px;text-anchor:end;fill:#ff00ff;stroke-width:0.390956"
       aria-label="CINÉ+"><path
         style="font-family:'Futura Canal Bold Italique';-inkscape-font-specification:'Futura Canal Bold Italique';fill:#ffffff"
         d="m 141.09672,140.3285 -0.28149,2.2988 q -0.0313,0.29713 -0.10946,0.29713 -0.0469,0 -0.10947,-0.0469 l -0.17202,-0.14074 q -0.42223,-0.34404 -1.14158,-0.54734 -0.70372,-0.21893 -1.40743,-0.21893 -1.59509,0 -2.6272,0.96956 -1.03212,0.95393 -1.03212,2.43955 0,1.39179 0.89138,2.28316 0.90701,0.87573 2.31443,0.87573 0.71936,0 1.50126,-0.18765 0.79754,-0.2033 1.07903,-0.45351 0.0469,-0.0626 0.0938,-0.0626 0.0626,0 0.0626,0.0782 0,0.0938 -0.0156,0.17202 l -0.21893,2.54901 q 0,0.1251 -0.17202,0.20329 -0.42223,0.2033 -1.25105,0.35968 -0.81318,0.15638 -1.50125,0.15638 -2.54901,0 -4.19102,-1.642 -1.642,-1.642 -1.642,-4.19101 0,-2.67412 1.86094,-4.51941 1.86093,-1.8453 4.56632,-1.8453 1.37616,0 2.79922,0.59425 0.70372,0.29713 0.70372,0.5317 z"
         id="path15" /><path
         style="fill:#ffffff"
         d="m 142.25394,151.11879 h 3.04943 v -11.72858 h -3.04943 z"
         id="path16" /><path
         style="font-family:'Futura Canal Bold Italique';-inkscape-font-specification:'Futura Canal Bold Italique';fill:#ffffff"
         d="m 160.40978,139.39021 -1.43871,11.72858 h -3.25272 l -3.12762,-5.2544 q -0.35968,-0.62553 -0.50042,-0.92265 -0.46914,-0.89137 -0.93829,-1.98604 v 0.5317 q 0,1.26668 -0.1251,2.22061 l -0.6568,5.41078 h -2.97124 l 1.43871,-11.72858 h 3.20581 l 3.34655,5.661 0.50042,0.93828 0.4535,0.90701 0.23458,0.43787 q 0,-0.37531 0.0156,-0.48478 0.0313,-0.73499 0.12511,-1.53254 l 0.73499,-5.92684 z"
         id="path17" /><path
         style="fill:#ffffff"
         d="m 162.03615,151.11879 h 6.66183 v -2.58029 h -3.6124 v -2.03295 h 3.42475 v -2.58029 h -3.42475 v -1.95476 h 3.6124 v -2.58029 h -1.01647 l 0.17202,-0.48478 h -4.62888 l -0.17202,0.48478 h -1.01648 z m 22.01268,-4.81654 v -3.19017 q 0,-0.20329 -0.17202,-0.20329 h -3.92516 q -0.15638,0 -0.15638,-0.21894 v -3.6124 q 0,-0.15638 -0.2033,-0.15638 h -3.19017 q -0.15638,0 -0.15638,0.15638 v 3.6124 q 0,0.21894 -0.18766,0.21894 h -4.19101 q -0.17202,0 -0.17202,0.17202 v 3.20581 q 0,0.20329 0.18766,0.20329 h 4.15973 q 0.2033,0 0.2033,0.23457 v 4.20665 q 0,0.18766 0.17202,0.18766 h 3.20581 q 0.17202,0 0.17202,-0.21893 v -4.20665 q 0,-0.2033 0.20329,-0.2033 h 3.87825 q 0.17202,0 0.17202,-0.18766 z"
         id="path18" /></g></g></svg>
