<svg xmlns="http://www.w3.org/2000/svg" width="105" height="46.68" viewBox="0 0 105 46.68">
  <g id="Group_1" data-name="Group 1" transform="translate(0 1)">
    <path id="Path_1" data-name="Path 1" d="M516.452,280.35h-59.2a1.167,1.167,0,0,0-1.167,1.167v43.32A1.167,1.167,0,0,0,457.252,326H556.42a1.167,1.167,0,0,0,.858-1.958l-39.968-43.32a1.167,1.167,0,0,0-.858-.376" transform="translate(-456.085 -280.324)"/>
    <path id="Path_2" data-name="Path 2" d="M636.1,281.731l34.75,37.671a.864.864,0,0,0,1.5-.586V281.447a1.167,1.167,0,0,0-1.167-1.167H636.733a.865.865,0,0,0-.635,1.451" transform="translate(-567.348 -281.28)" fill="red"/>
    <path id="Path_3" data-name="Path 3" d="M485.793,300.672a16.142,16.142,0,0,0-4.976-.779,16.332,16.332,0,0,0-6,1.083,15.312,15.312,0,0,0-5.027,3.273,15.05,15.05,0,0,0-3.5,5.1,16.368,16.368,0,0,0-1.145,6.215,15.081,15.081,0,0,0,6.665,12.74,15.62,15.62,0,0,0,4.172,2.035,15.289,15.289,0,0,0,4.579.7,16.836,16.836,0,0,0,9.974-3.23l.218-.157v-6.2l-.923,1.072a12.861,12.861,0,0,1-4.116,3.255,11.365,11.365,0,0,1-10.044-.178,11.444,11.444,0,0,1-4.049-3.6,10.051,10.051,0,0,1-1.395-2.939,12.679,12.679,0,0,1-.469-3.532,12.2,12.2,0,0,1,.786-4.456,10.971,10.971,0,0,1,2.355-3.633,11.005,11.005,0,0,1,7.8-3.322,11.753,11.753,0,0,1,4.927,1.019,13.386,13.386,0,0,1,4.215,3.175l.912.99v-6.061l-.225-.157a18,18,0,0,0-4.737-2.407" transform="translate(-461.795 -292.636)" fill="#fff"/>
    <path id="Path_4" data-name="Path 4" d="M566.465,299.893V325.1l-23.016-25.21v31.193h4.236v-20.4l18.78,20.309v.1H570.7v-26.6Z" transform="translate(-511.125 -292.636)" fill="#fff"/>
    <path id="Path_5" data-name="Path 5" d="M649.247,331.037H654.9l-28.707-31.144v31.193h4.236v-8.657h10.863Zm-18.823-12.515v-7.84l7.25,7.84Z" transform="translate(-563.25 -292.636)" fill="#fff"/>
  </g>
</svg>
