<?xml version="1.0" encoding="UTF-8" standalone="no"?>
<!-- Created with Inkscape (http://www.inkscape.org/) -->

<svg
   xmlns:dc="http://purl.org/dc/elements/1.1/"
   xmlns:cc="http://creativecommons.org/ns#"
   xmlns:rdf="http://www.w3.org/1999/02/22-rdf-syntax-ns#"
   xmlns:svg="http://www.w3.org/2000/svg"
   xmlns="http://www.w3.org/2000/svg"
   xmlns:sodipodi="http://sodipodi.sourceforge.net/DTD/sodipodi-0.dtd"
   xmlns:inkscape="http://www.inkscape.org/namespaces/inkscape"
   version="1.0"
   width="150"
   height="72"
   id="svg2"
   inkscape:version="0.91 r13725"
   sodipodi:docname="Citytv_logo.svg">
  <title
     id="title4153">2017 City tv Bogotá logo</title>
  <metadata
     id="metadata11">
    <rdf:RDF>
      <cc:Work
         rdf:about="">
        <dc:format>image/svg+xml</dc:format>
        <dc:type
           rdf:resource="http://purl.org/dc/dcmitype/StillImage" />
        <dc:title>2017 City tv Bogotá logo</dc:title>
        <cc:license
           rdf:resource="http://scripts.sil.org/OFL" />
      </cc:Work>
      <cc:License
         rdf:about="http://scripts.sil.org/OFL">
        <cc:permits
           rdf:resource="http://scripts.sil.org/pub/OFL/Reproduction" />
        <cc:permits
           rdf:resource="http://scripts.sil.org/pub/OFL/Distribution" />
        <cc:permits
           rdf:resource="http://scripts.sil.org/pub/OFL/Embedding" />
        <cc:permits
           rdf:resource="http://scripts.sil.org/pub/OFL/DerivativeWorks" />
        <cc:requires
           rdf:resource="http://scripts.sil.org/pub/OFL/Notice" />
        <cc:requires
           rdf:resource="http://scripts.sil.org/pub/OFL/Attribution" />
        <cc:requires
           rdf:resource="http://scripts.sil.org/pub/OFL/ShareAlike" />
        <cc:requires
           rdf:resource="http://scripts.sil.org/pub/OFL/DerivativeRenaming" />
        <cc:requires
           rdf:resource="http://scripts.sil.org/pub/OFL/BundlingWhenSelling" />
      </cc:License>
    </rdf:RDF>
  </metadata>
  <sodipodi:namedview
     pagecolor="#ffffff"
     bordercolor="#666666"
     borderopacity="1"
     objecttolerance="10"
     gridtolerance="10"
     guidetolerance="10"
     inkscape:pageopacity="0"
     inkscape:pageshadow="2"
     inkscape:window-width="1366"
     inkscape:window-height="705"
     id="namedview9"
     showgrid="false"
     inkscape:showpageshadow="false"
     inkscape:zoom="1"
     inkscape:cx="93.439548"
     inkscape:cy="37.131537"
     inkscape:window-x="-8"
     inkscape:window-y="-8"
     inkscape:window-maximized="1"
     inkscape:current-layer="g6" />
  <defs
     id="defs4" />
  <g
     style="fill:#ff0000;stroke:none"
     transform="matrix(0.01436043,0,0,-0.01442663,8.9986242,89.222183)"
     id="g6">
    <path
       inkscape:connector-curvature="0"
       d="m 8790.871,6111.3685 c -283.6,-32.0622 -522.9631,-240.767 -592.045,-516.3179 -16.3612,-65.6361 -18.4824,-84.3895 -18.1794,-171.5014 0,-75.6177 0.6058,-84.6914 8.1809,-122.8027 27.2692,-139.1371 86.9585,-254.6811 183.6125,-354.4962 57.5681,-59.5869 115.7429,-101.9332 189.6722,-138.5316 68.1732,-33.5744 131.499,-53.5373 207.5495,-65.3341 43.0245,-6.6541 148.466,-7.2589 189.3701,-1.2098 154.828,22.3827 289.6583,88.9265 396.9181,195.3962 163.0097,161.822 234.8186,395.6323 190.8846,621.2753 -41.5099,212.3346 -180.2804,392.6075 -375.4066,487.2809 -70.8994,34.4814 -138.4668,54.4447 -217.8501,65.0312 -38.48,4.8398 -123.9239,5.4445 -162.7068,1.2101 z m -160.5856,-394.4221 0,-89.2291 53.0237,0 53.0237,0 0,-65.031 0,-65.0316 -53.0237,0 -53.0237,0 0,-119.4758 c 0,-137.0196 0.3037,-139.1366 22.4217,-150.3284 9.9985,-5.4445 19.3911,-6.6545 49.6901,-7.8638 l 36.9655,-1.2102 0,-81.0622 0,-80.7595 -23.3305,-2.1177 c -57.5682,-4.2344 -131.4983,-5.444 -163.9185,-2.1171 -87.8671,9.074 -127.8625,38.1113 -141.7996,102.8399 -3.3328,15.729 -4.2423,54.1425 -4.2423,181.18 l 0,160.9148 -40.9033,0 -40.9041,0 0,65.0316 0,64.7286 40.2983,0.9071 39.9945,0.9073 0.908,88.6243 0.6066,88.3213 112.1072,0 112.1064,0 0,-89.2285 z m 404.7969,-257.1005 c 26.3596,-92.2535 48.7813,-167.8716 49.6901,-167.8716 0.9095,0 22.7246,75.3152 48.7813,167.2665 l 47.2676,166.9641 108.167,0.9073 c 102.4117,0.6051 108.1685,0.3027 106.3503,-4.537 -0.9087,-3.0247 -42.4186,-130.6673 -92.1087,-283.7174 l -90.2921,-278.2736 -126.6501,0 -126.953,0 -40.6012,116.4515 c -22.4217,64.1236 -66.9607,191.7665 -98.7751,283.7179 l -58.4777,166.9637 112.713,0 112.7131,0 48.1755,-167.8714 z"
       id="path8"
       style="fill:#000000" />
    <path
       inkscape:connector-curvature="0"
       d="M 1111.5565,5678.8352 C 846.43893,5664.0138 618.89246,5608.964 414.67633,5510.0561 256.81784,5433.5307 134.40937,5346.7217 13.21285,5225.4307 c -226.0315,-225.9457 -368.43741,-503.6139 -436.00447,-849.9433 -40.29785,-207.1926 -52.11451,-464.2926 -32.11709,-694.1707 31.5111,-360.5453 139.67899,-667.2509 320.8678,-910.4376 66.658077,-89.2287 169.978094,-197.8159 251.48279,-264.0571 254.20967,-206.8901 560.53388,-323.0389 938.06112,-356.0082 127.8624,-11.1915 307.8392,-11.1915 436.3075,0 377.2242,32.9693 676.8826,147.3033 917.1547,349.9589 108.1679,91.0438 210.8819,214.7543 281.1759,337.86 88.7765,156.075 149.6777,341.1874 178.4619,541.7255 6.9688,48.0929 16.9674,137.6243 16.9674,151.5378 0,5.4447 -14.8465,5.747 -512.0552,5.747 -281.479,0 -512.0554,-0.9074 -512.0554,-2.1173 0,-1.5123 -2.7269,-20.8705 -6.0598,-43.2532 -18.4824,-130.3651 -58.7802,-234.415 -122.7114,-316.0822 -68.4761,-87.7166 -168.4632,-150.3281 -281.7819,-176.3407 -96.6542,-22.3827 -222.3956,-22.3827 -325.1097,-0.3023 -233.90937,50.5125 -393.5858,231.6927 -461.15281,522.9722 -57.56841,248.0262 -50.90255,618.8554 15.14953,852.9679 28.78416,101.3275 63.93119,176.9455 116.95464,251.3536 23.93631,33.8766 80.89872,90.1366 116.34866,115.2414 92.41238,65.3333 211.48798,99.2105 349.65208,99.2105 278.449,0 458.7288,-114.9391 533.5677,-339.6752 14.5436,-43.8581 26.6632,-98.3029 32.7231,-147.3032 l 3.9389,-31.7593 517.2061,-0.9078 517.509,-0.6046 -1.5149,14.2162 c -0.9089,8.1665 -3.0298,28.7347 -4.8479,46.2778 -29.0871,290.0697 -123.6204,548.6822 -271.7831,744.9863 -75.4448,99.8152 -170.8871,192.9763 -271.7832,264.6619 -275.4191,196.3039 -635.0698,292.7919 -1080.164,290.6747 -46.0547,-0.3028 -102.714,-1.8148 -126.0443,-3.0245 z"
       id="path10"
       style="fill:#000000" />
    <path
       inkscape:connector-curvature="0"
       d="m 3018.8866,5323.7341 0,-355.4038 498.4207,0 498.4208,0 -0.6062,354.7988 -0.9089,354.4959 -497.5116,0.9072 -497.8148,0.6049 0,-355.403 z"
       id="path12"
       style="fill:#000000" />
    <path
       inkscape:connector-curvature="0"
       d="m 4355.0783,5098.393 0,-384.138 -668.0958,0 -668.0959,0 0,-1240.1308 0,-1240.1309 498.4207,0 498.4208,0 0,955.8081 0,955.8084 169.6749,0 169.3721,0 1.2121,-673.6029 c 1.2121,-721.9983 0.6058,-692.961 15.7555,-781.8875 25.7544,-150.0255 85.1405,-267.9892 169.9783,-338.7673 106.3498,-88.3217 262.3903,-135.8096 504.1774,-153.9577 114.2278,-8.4692 458.729,-0.9074 705.9699,15.4261 24.2393,1.5122 46.9634,3.0245 50.9023,3.0245 l 6.6659,0 0,356.3108 0,356.0083 -114.2278,0 c -96.957,0 -120.2873,0.9074 -150.8897,5.747 -76.6568,11.7964 -121.1963,29.9447 -153.0105,62.0065 -30.905,31.4568 -45.1457,65.9387 -51.5085,124.618 -1.8179,17.5434 -3.03,220.5013 -3.03,526.9045 l 0,498.1697 139.0732,0 139.073,0 4.5448,-12.7042 c 2.4241,-7.2589 143.6179,-392.0021 313.596,-855.3874 169.9779,-463.3856 313.8991,-857.5053 319.9587,-876.2585 27.8752,-87.1115 36.3589,-132.1798 36.0562,-197.5134 0,-41.4387 -0.909,-53.84 -6.3631,-73.5007 -20.6034,-75.0126 -66.6578,-111.6116 -164.2212,-130.9698 -21.8154,-4.2346 -52.7205,-5.142 -203.6103,-6.3519 l -178.1587,-1.2098 0,-366.8974 0,-366.8972 34.2379,-2.1172 c 349.9549,-20.2656 624.7683,-20.2656 811.1079,0 196.6415,21.4754 326.3216,78.3398 442.6704,194.4887 89.9885,90.1363 149.6777,198.1185 235.7271,426.1817 69.991,185.7172 76.051,204.1679 536.9008,1618.8244 216.9413,666.3433 395.1006,1213.211 395.7064,1215.3285 1.2124,2.7221 -92.7154,3.6294 -463.5767,3.6294 l -465.3947,0 -4.5447,-15.7287 c -2.4241,-8.7716 -96.6543,-343.9093 -209.3673,-744.9858 -112.4094,-400.7738 -205.731,-731.3747 -206.9427,-734.3993 -1.5152,-3.9323 -72.4151,237.7421 -218.7599,744.6836 l -216.0328,750.4302 -535.0825,0.6046 -535.0826,0.9077 -0.909,383.533 -0.6062,383.2308 -490.8456,0 -490.8461,0 0,-384.1381 z"
       id="path14"
       style="fill:#000000" />
  </g>
</svg>
