<svg version="1.2" xmlns="http://www.w3.org/2000/svg" viewBox="0 0 103 52" width="103" height="52">
	<title>logo_cmtv-svg</title>
	<style>
		.s0 { fill: #e4111c } 
		.s1 { fill: #000000 } 
	</style>
	<path id="Layer" fill-rule="evenodd" class="s0" d="m80.5 12.2v39.3h-11.7v-37.5c-0.1-0.6-0.4-1.2-0.9-1.6-0.5-0.4-1.1-0.6-1.7-0.5-0.6 0-1.2 0.2-1.7 0.6-0.4 0.4-0.7 1-0.8 1.6 0 0.1 0 18.7 0 18.7h-11.8v-18.8c-0.1-0.6-0.4-1.2-0.9-1.6-0.5-0.4-1.1-0.6-1.7-0.6-0.6 0.1-1.2 0.3-1.7 0.7-0.4 0.4-0.7 1-0.8 1.6q0 0.1 0 0.3v18.4h-11.7v-28.8c3.4-2 7.1-3.1 11-3.4 4.7-0.4 8.8 0.7 11.9 2.8q2.3-1.4 4.8-2.2c5.6-1.5 12.1-0.3 15.4 3.3 1.4 1.6 2.2 3.6 2.3 5.8 0 0.6 0 1.5 0 1.9zm-31.6 25.8h14.8v13.4h-39.1c-3.3 0-6.5-0.6-9.6-1.9-8.8-3.8-15-12.4-15-22.2 0-3.9 1-7.8 2.9-11.3 2-3.5 4.7-6.5 8.1-8.6 5.7-3.5 12.4-4.9 19-3.8v14.4c-1.4-0.8-3-1.3-4.7-1.4-1.6-0.1-3.3 0.1-4.8 0.7-1.5 0.7-2.9 1.6-4 2.9-1.1 1.2-1.9 2.7-2.3 4.2-0.5 1.6-0.5 3.3-0.2 4.9 0.3 1.6 1 3.1 2 4.5 1 1.3 2.3 2.3 3.7 3.1 1.5 0.7 3.1 1.1 4.8 1.1h24.4z"/>
	<path id="Layer" class="s1" d="m84.4 12.4v2.1h3.4v9.3h2.5v-9.3h3.2l3.2 9.3h2.4l3.9-11.4h-2.4l-2.7 8.2-2.6-8.2z"/>
</svg>