<svg xmlns="http://www.w3.org/2000/svg" width="134" height="24" fill="none" viewBox="0 0 134 24"><path fill="#b3b3b3" d="M40.8 0h-.3v22h.3z"/><path fill="url(#a)" d="M51.5 17.8c0 3.6 1.7 3.8 3.4 3.8v.4h-9.2v-.4q2.1 0 2-3.8v-14q0-3.2-2-3.3V0h6.7c6 0 10.3 1 10.3 6.3 0 5.4-4.2 6.3-10.3 6.3h-.9zm.9-5.7c3.3 0 6-.1 6-5.8 0-5.6-2.7-5.8-6-5.8h-.9V12z"/><path fill="url(#b)" d="M81.6 22H79c-4.7 0-4 0-6-6.8-1-3.2-4-3.2-4.3-3.2h-1.5v6.5q.1 3.2 2.2 3v.5h-8v-.4q2 .2 2-3.3V3.1q0-2.8-2-2.6V0h6.8c6 0 10 .8 10 6 0 4-2.4 5.4-6 5.7 2.1 0 4.4.7 6 7a4 4 0 0 0 3.4 2.9zM68.2.5h-1v11h1c3.2 0 5.7 0 5.7-5.5S71.3.5 68.2.5"/><path fill="url(#c)" d="M89.3 0v.5C88 .5 87 1.2 87 3v15.4c0 2.1 1.2 3 2.4 3v.5h-8.5v-.4c1.3 0 2.4-1 2.4-3.1V3Q83 .3 80.8.5V0z"/><path fill="url(#d)" d="M116.6 21.6v.4H108v-.4q2 0 2.2-3.3v-17l-7.8 21h-.4l-8.7-19v10.9c0 1.8.3 7.4 4.1 7.4v.4h-9v-.4c4.2 0 4.5-5.6 4.5-7.4V2.6c-1.2-2-2.7-2-3.5-2.1V0h7l7.7 16.8L110.2 0h6.2v.5q-2.2-.1-2.4 2.7v15.1c0 2.4 1.2 3.3 2.6 3.3"/><path fill="url(#e)" d="M133.3 15.4V22H117v-.4q1.9-.2 1.8-3.5V3.8q.2-3.1-1.8-3.3V0h16v5.8h-.4C131.9.5 125 .5 123.9.5h-1.4v10.2h1.5c.4 0 4.4 0 4.7-3.2h.4v6.9h-.4c-.3-3.3-4.3-3.3-4.7-3.3h-1.5v10.5h1.2c1.4 0 8.2 0 9.2-6.2z"/><path fill="#0076ff" d="M3.6 15.5H.5v-2h8.3v2h-3v8.1H3.6zM10 13.4h2.5l2.6 7.2 2.7-7.2H20l-4 10.3h-2zM23.3 15.6l-1.8.5-.4-1.9 2.8-.9h1.6v10.3h-2.2zM27.9 20.8q0-1.8 1.6-2.5a2 2 0 0 1-1.3-2.2c0-1.6 1.4-2.8 3.6-2.8 2 0 3.5 1.2 3.5 2.8q0 1.6-1.3 2.2 1.5.8 1.6 2.4c0 2-1.6 3-3.8 3-2.3 0-4-1-4-2.9m5.6-.1q-.1-1.3-1.7-1.3-1.7 0-1.8 1.2 0 1.3 1.8 1.3 1.6 0 1.7-1.2m-.3-4.4q0-1-1.4-1.2-1.5.2-1.5 1.2 0 1.2 1.5 1.3 1.3 0 1.4-1.3M17.4 0v6.8L10.7 0z"/><path fill="#001e5a" d="M27 6.7c0-2.8 2-5 5-5q2.4 0 3.6 1.5l-1.3 1.5q-1-1-2.4-1c-1.6 0-2.7 1.3-2.7 3s1 3 2.7 3q1.4 0 2.5-1.2l1.3 1.4c-1 1-2 1.7-3.9 1.7a5 5 0 0 1-4.8-5M0 6.7c0-2.8 2-5 5-5q2.4 0 3.6 1.5L7.3 4.7q-1-1-2.4-1c-1.6 0-2.7 1.3-2.7 3s1 3 2.7 3q1.4 0 2.5-1.2L8.7 10c-1 1-2 1.7-3.9 1.7a5 5 0 0 1-4.8-5M11.3 2.5l-.6-.6H9.3v9.5h2v-6l6 6h1.4V10zM25 6.4q1-.6 1.2-2 0-1-.7-1.7Q24.7 2 23 2h-4.3v8l1.4 1.5h3q3.4 0 3.6-2.6 0-1.9-1.8-2.4m-4.3-2.7h2q1.4 0 1.4 1t-1.5 1h-2zm4 4.9q0 1-1.5 1h-2.5V7.5H23q1.5 0 1.5 1"/><defs><linearGradient id="a" x1="54.2" x2="54.2" y1="0" y2="22" gradientUnits="userSpaceOnUse"><stop stop-color="#ffcb05"/><stop offset=".1" stop-color="#b37c29"/><stop offset=".3" stop-color="#cda33d"/><stop offset=".5" stop-color="#fed401"/><stop offset=".8" stop-color="#b37c29"/><stop offset=".9" stop-color="#fed401"/><stop offset="1" stop-color="#fdd551"/></linearGradient><linearGradient id="b" x1="71.5" x2="71.5" y1="-1.7" y2="-1.7" gradientUnits="userSpaceOnUse"><stop stop-color="#ffcb05"/><stop offset=".1" stop-color="#b37c29"/><stop offset=".3" stop-color="#cda33d"/><stop offset=".5" stop-color="#fed401"/><stop offset=".8" stop-color="#b37c29"/><stop offset=".9" stop-color="#fed401"/><stop offset="1" stop-color="#fdd551"/></linearGradient><linearGradient id="c" x1="85.1" x2="85.1" y1="-1.7" y2="-1.7" gradientUnits="userSpaceOnUse"><stop stop-color="#ffcb05"/><stop offset=".1" stop-color="#b37c29"/><stop offset=".3" stop-color="#cda33d"/><stop offset=".5" stop-color="#fed401"/><stop offset=".8" stop-color="#b37c29"/><stop offset=".9" stop-color="#fed401"/><stop offset="1" stop-color="#fdd551"/></linearGradient><linearGradient id="d" x1="102.5" x2="102.5" y1="-1.7" y2="22.3" gradientUnits="userSpaceOnUse"><stop stop-color="#ffcb05"/><stop offset=".1" stop-color="#b37c29"/><stop offset=".3" stop-color="#cda33d"/><stop offset=".5" stop-color="#fed401"/><stop offset=".8" stop-color="#b37c29"/><stop offset=".9" stop-color="#fed401"/><stop offset="1" stop-color="#fdd551"/></linearGradient><linearGradient id="e" x1="125.1" x2="125.1" y1="-1.7" y2="-1.7" gradientUnits="userSpaceOnUse"><stop stop-color="#ffcb05"/><stop offset=".1" stop-color="#b37c29"/><stop offset=".3" stop-color="#cda33d"/><stop offset=".5" stop-color="#fed401"/><stop offset=".8" stop-color="#b37c29"/><stop offset=".9" stop-color="#fed401"/><stop offset="1" stop-color="#fdd551"/></linearGradient></defs></svg>