<svg width="74" height="36" viewBox="0 0 74 36" fill="none" xmlns="http://www.w3.org/2000/svg">
<g clip-path="url(#clip0_14842_29137)">
<path d="M34.7266 27.1553H36.4983L40.5882 32.5101V27.1553H42.4843V35.8509H40.8511L36.6226 30.3231V35.8509H34.7266V27.1553Z" fill="#001E5A"/>
<path d="M44.7422 27.1553H51.3272V28.8566H46.6509V30.6215H50.7664V32.3228H46.6509V34.1496H51.391V35.8509H44.7438V27.1553H44.7422Z" fill="#001E5A"/>
<path d="M52.6562 34.5845L53.7907 33.2307C54.5762 33.8766 55.3999 34.2861 56.3973 34.2861C57.1828 34.2861 57.6576 33.975 57.6576 33.4656V33.4402C57.6576 32.9561 57.358 32.7069 55.8986 32.334C54.1396 31.8864 53.0052 31.4023 53.0052 29.6756V29.6502C53.0052 28.0726 54.2766 27.0283 56.0611 27.0283C57.3325 27.0283 58.4176 27.4251 59.3034 28.1345L58.306 29.5756C57.5333 29.0408 56.7717 28.7186 56.0356 28.7186C55.2995 28.7186 54.9139 29.0534 54.9139 29.4772V29.5026C54.9139 30.0739 55.2884 30.2612 56.7972 30.6453C58.5689 31.1056 59.5663 31.7388 59.5663 33.2545V33.2799C59.5663 35.0066 58.2439 35.9763 56.3606 35.9763C55.0382 35.9763 53.7046 35.5161 52.6562 34.5845Z" fill="#001E5A"/>
<path d="M61.5547 27.1553H63.4746V35.8509H61.5547V27.1553Z" fill="#001E5A"/>
<path d="M68.4832 27.0918H70.2549L73.996 35.851H71.9884L71.1902 33.9004H67.4986L66.7003 35.851H64.7422L68.4832 27.0918ZM70.5035 32.2102L69.3436 29.3899L68.1837 32.2102H70.5035Z" fill="#001E5A"/>
<path d="M0.914062 27.1553H2.83556V35.8509H0.914062V27.1553Z" fill="#001E5A"/>
<path d="M4.76562 27.1553H6.53735L10.6273 32.5101V27.1553H12.5233V35.8509H10.8902L6.66163 30.3231V35.8509H4.76562V27.1553Z" fill="#001E5A"/>
<path d="M14.625 27.1553H18.0298C20.7735 27.1553 22.6695 29.0312 22.6695 31.4785V31.5039C22.6695 33.9512 20.7735 35.8525 18.0298 35.8525H14.625V27.1569V27.1553ZM16.5449 28.882V34.1242H18.0298C19.6008 34.1242 20.6619 33.0688 20.6619 31.5277V31.5023C20.6619 29.9613 19.6024 28.8804 18.0298 28.8804H16.5449V28.882Z" fill="#001E5A"/>
<path d="M23.9922 31.5276V31.5022C23.9922 29.0295 25.9503 27.0044 28.6446 27.0044C31.3388 27.0044 33.2715 29.0041 33.2715 31.4768V31.5022C33.2715 33.9749 31.3133 36 28.6191 36C25.9248 36 23.9922 34.0003 23.9922 31.5276ZM31.2623 31.5276V31.5022C31.2623 30.0119 30.1646 28.7692 28.6191 28.7692C27.0736 28.7692 25.9997 29.9865 25.9997 31.4768V31.5022C25.9997 32.9925 27.0975 34.2352 28.643 34.2352C30.1885 34.2352 31.2623 33.0179 31.2623 31.5276Z" fill="#001E5A"/>
<path d="M35.956 0V13.7633L22.1406 0H35.956Z" fill="#0076FF"/>
<path d="M55.8453 13.5142V13.4586C55.8453 7.94509 60.0181 3.42822 65.9993 3.42822C69.6718 3.42822 71.869 4.64711 73.6758 6.41989L70.9497 9.55122C69.4472 8.19426 67.9176 7.36262 65.9707 7.36262C62.6885 7.36262 60.3241 10.0781 60.3241 13.4031V13.4586C60.3241 16.7836 62.6327 19.5547 65.9707 19.5547C68.1965 19.5547 69.5587 18.6675 71.0883 17.2819L73.8144 20.026C71.8116 22.1591 69.5858 23.4891 65.8304 23.4891C60.101 23.4891 55.8438 19.0833 55.8438 13.5142H55.8453Z" fill="#001E5A"/>
<path d="M0.00159328 13.5142V13.4586C0.00159328 7.94509 4.1744 3.42822 10.1556 3.42822C13.8281 3.42822 16.0252 4.64711 17.832 6.41989L15.1059 9.55122C13.6034 8.19426 12.0739 7.36262 10.1269 7.36262C6.84474 7.36262 4.48031 10.0781 4.48031 13.4031V13.4586C4.48031 16.7836 6.78898 19.5547 10.1269 19.5547C12.3527 19.5547 13.715 18.6675 15.2445 17.2819L17.9706 20.026C15.9679 22.1591 13.7421 23.4891 9.98669 23.4891C4.25725 23.4891 0 19.0833 0 13.5142H0.00159328Z" fill="#001E5A"/>
<path d="M23.3864 4.99953V4.99794L22.1452 3.76001H22.1437H19.1578H19.1562V6.74216L19.1578 6.74374V23.1559H23.3864V10.9559L35.6356 23.1559H38.6262V20.1801L23.3864 4.99953Z" fill="#001E5A"/>
<path d="M51.5322 13.0159C52.9231 12.2398 54.091 11.021 54.091 8.83236V8.77681C54.091 7.44682 53.6465 6.36601 52.7558 5.47883C51.6437 4.37104 49.8911 3.76001 47.6653 3.76001H38.625V20.1801L41.6124 23.1559H47.8868C52.281 23.1559 55.1744 21.3831 55.1744 17.8359V17.7804C55.1744 15.176 53.7835 13.873 51.5306 13.0143H51.5322V13.0159ZM42.7978 7.50078H47.0264C48.8348 7.50078 49.8353 8.22132 49.8353 9.49576V9.55131C49.8353 10.9924 48.6388 11.6018 46.7476 11.6018H42.7978V7.50078ZM50.9204 17.3106C50.9204 18.7517 49.7796 19.4167 47.8883 19.4167H42.7978V15.149H47.7497C49.9469 15.149 50.9204 15.952 50.9204 17.2551V17.3106Z" fill="#001E5A"/>
</g>
<defs>
<clipPath id="clip0_14842_29137">
<rect width="74" height="36" fill="white"/>
</clipPath>
</defs>
</svg>
