<svg xmlns="http://www.w3.org/2000/svg" width="36" height="24" fill="none" viewBox="0 0 36 24"><path fill="#0076ff" d="M17.5 0v6.7L10.8 0z"/><path fill="#001e5a" d="M27.2 6.6c0-2.7 2-5 5-5q2.6.2 3.7 1.5l-1.3 1.6q-1-1-2.4-1.1c-1.6 0-2.8 1.3-2.8 3s1.1 3 2.8 3q1.4-.1 2.5-1.1L36 9.8c-1 1-2 1.7-3.9 1.7a5 5 0 0 1-4.9-4.9M0 6.6c0-2.7 2-5 5-5q2.5.2 3.7 1.5L7.4 4.7q-1.1-1-2.5-1.1c-1.6 0-2.7 1.3-2.7 3s1.1 3 2.7 3q1.5-.1 2.5-1.1l1.4 1.3q-1.3 1.6-4 1.7A5 5 0 0 1 0 6.6M11.4 2.4l-.6-.6H9.3v9.5h2.1v-6l6 6h1.4V10zM25.1 6.4q1.2-.6 1.3-2v-.1q0-1-.7-1.6-.8-.9-2.5-.9h-4.4v8l1.5 1.5h3q3.5 0 3.6-2.6 0-1.9-1.8-2.3M21 3.7h2q1.4 0 1.4 1t-1.5 1h-2zm4 4.8q0 1-1.5 1h-2.5v-2h2.4q1.5 0 1.5 1"/><path fill="#fff" fill-rule="evenodd" d="M34.7 13.2H5.6l1 1.4h1.8V17l-.7.4q-.7.3-1.4 0l-.6-.4.2-.5.2-.8Q6 15 5 14.1q-1-1-2-1a5 5 0 0 0-2.2.6l-.2.2 1 1.4.3-.1 1-.4 1-.1q.3 0 .6.2l.2.4q0 .6-.6 1t-1.5.5h-.4l.7 1.4h.2q.4 0 .9-.2l.6-.2.4.3.1.5q0 .5-.3.8-1 .9-2.3-.2-.8-.5-1.4-1.6l-.1-.2-1 .6.1.3q.9 1.4 2 2.3 2.3 1.6 3.8.2a2 2 0 0 0 .7-1.8h.2a2 2 0 0 0 1.6 0v3l1.6.7v-8.1h2v7.1l1.6 1v-8.1h6.2v2l-.7-.5a3 3 0 0 0-3.4.2q-.8.6-.8 1.5t1 2q1 .8 2.2.8l1.2-.3q.3 0 .5-.4v2l1.6.8v-8.1h2.1v7.1l1.6 1v-8.1h7.5v1.2h-4.3l-.2.8h.3q.9.4 1.5 1t.6 1q0 .3-.2.4l-.4.2q-.5 0-1.3-.7-.8-.8-1.3-2l-.2-.3-1 .6.2.2a10 10 0 0 0 1.8 2.8q1 1.2 2.1 1.1.8 0 1.3-.5t.6-1.3l-.4-1-.5-.7h1.4V22l1.6.8v-8.1H36zm-16 5.6-1 .4q-.7 0-1.1-.3t-.4-.7.4-.7a2 2 0 0 1 1.2-.4 3 3 0 0 1 2 .8zm9 3.8 1.3 1.1 1.3-1.1-1.3-1.3z" clip-rule="evenodd"/><path fill="#0076ff" d="M34.7 13.2H5.6l1 1.4h1.8V17l-.7.4q-.7.3-1.4 0l-.6-.4.2-.5.2-.8Q6 15 5 14.1q-1-1-2-1a5 5 0 0 0-2.2.6l-.2.2 1 1.4.3-.1 1-.4 1-.1q.3 0 .6.2l.2.4q0 .6-.6 1t-1.5.5h-.4l.7 1.4h.2q.4 0 .9-.2l.6-.2.4.3.1.5q0 .5-.3.8-1 .9-2.3-.2-.8-.5-1.4-1.6l-.1-.2-1 .6.1.3q.9 1.4 2 2.3 2.3 1.6 3.8.2a2 2 0 0 0 .7-1.8h.2a2 2 0 0 0 1.6 0v3l1.6.7v-8.1h2v7.1l1.6 1v-8.1h6.2v2l-.7-.5a3 3 0 0 0-3.4.2q-.8.6-.8 1.5t1 2q1 .8 2.2.8l1.2-.3q.3 0 .5-.4v2l1.6.8v-8.1h2.1v7.1l1.6 1v-8.1h7.5v1.2h-4.3l-.2.8h.3q.9.4 1.5 1t.6 1q0 .3-.2.4l-.4.2q-.5 0-1.3-.7-.8-.8-1.3-2l-.2-.3-1 .6.2.2a10 10 0 0 0 1.8 2.8q1 1.2 2.1 1.1.8 0 1.3-.5t.6-1.3l-.4-1-.5-.7h1.4V22l1.6.8v-8.1H36zm-16 5.6-1 .4q-.7 0-1.1-.3t-.4-.7.4-.7a2 2 0 0 1 1.2-.4 3 3 0 0 1 2 .8zm9 3.8 1.3 1.1 1.3-1.1-1.3-1.3z"/></svg>