<?xml version="1.0" encoding="utf-8"?>
<!-- Generator: Adobe Illustrator 16.0.0, SVG Export Plug-In . SVG Version: 6.00 Build 0)  -->
<!DOCTYPE svg PUBLIC "-//W3C//DTD SVG 1.1//EN" "http://www.w3.org/Graphics/SVG/1.1/DTD/svg11.dtd">
<svg version="1.1" id="Layer_1" xmlns="http://www.w3.org/2000/svg" xmlns:xlink="http://www.w3.org/1999/xlink" x="0px" y="0px"
	 width="1000px" height="555.973px" viewBox="0 0 1000 555.973" enable-background="new 0 0 1000 555.973" xml:space="preserve">
<g>
	<g>
		<path fill="#CB2027" d="M252.744,1.498h-46.488c-276.93,0-274.32,394.597,3.759,394.792h108.571
			c46.804,0,76.833-27.774,76.833-78.886v-99.818c0,0,60.871,100.991,84.842,140.494c40.632,67.218,139.112,54.045,138.826-30
			V217.646c0,0,60.992,101.007,84.946,140.51c40.615,67.202,139.006,54.09,138.75-30V1.498h-49.652v319.441
			c0,14.54-7.941,22.119-15.4,24.541c-9.113,2.856-19.006-0.873-25.441-10.001c-1.266-2.18-131.863-211.186-164.345-264.478
			c-3.054-4.226-7.775-6.21-11.955-4.843c-4.451,1.369-7.052,6.09-7.052,12.482v242.299c0,14.54-7.896,22.119-15.354,24.48
			c-9.022,2.857-18.616-0.933-25.052-9.94c-1.203-2.239-131.774-211.186-164.292-264.538c-3.045-4.225-7.76-6.211-12.083-4.783
			c-4.436,1.369-7.045,5.956-7.045,12.482v240.689c0,6.962-2.796,13.608-7.766,18.632c-5.09,5.037-11.707,7.834-18.819,7.834
			l-116.149-0.075c-105.067,0-152.954-76.089-152.954-146.525c-0.098-73.292,50.804-147.577,148.043-147.817h55.278V1.498"/>
		<path fill="#CB2027" d="M252.744,63.978h-55.278c-89.036,0.12-135.532,68.074-135.464,135.157
			c0,64.54,43.878,134.043,140.374,134.043h116.149c7.548,0,13.978-6.271,13.978-13.85V78.579c0-11.925,6.18-21.307,15.962-24.542
			c9.346-2.917,19.781,0.933,26.27,10.061c32.707,53.548,163.209,262.615,164.414,264.359c2.917,4.225,7.052,6.21,10.676,4.977
			c4.091-1.247,6.496-5.969,6.496-12.495V78.64c0-11.924,6.06-21.368,15.85-24.466c9.413-3.053,19.969,0.933,26.33,9.924
			c32.646,53.548,163.141,262.615,164.344,264.417c2.918,4.166,7.248,6.211,11.068,5.039c4.119-1.43,6.676-6.09,6.676-12.616V1.498
			h-49.848v186.524c0,0-29.85-50.556-80.646-138.013c-49.82-85.533-143.758-50.195-143.758,23.533v114.48
			c0,0-29.144-50.615-80.016-138.133C376.51-35.585,282.436-0.248,282.436,73.482v196.96c0.068,7.023-5.278,13.354-12.947,13.414
			h-61.646C74.73,284.051,86.565,113.48,199.956,113.36c50.368-0.12,52.789,0,52.789,0V63.978"/>
		<path fill="#CB2027" d="M933.61,342.742V156.037h-52.119v180.871c0.119,70.75-45.473,102.614-90.617,101.547v52.12l1.385,0.06
			C860.319,490.635,933.61,444.306,933.61,342.742"/>
		<path fill="#CB2027" d="M973.354,155.978h-26.512c0,40.616-0.135,80.991-0.135,111.231v75.474c0,110.63-80,161.125-154.42,161.187
			l-1.473-0.062v52.165c104.299-0.3,208.99-74.284,209.186-221.246V155.978H973.354"/>
		<path fill="#CB2027" d="M999.94,63.361c0,33.354-27.021,60.557-60.525,60.557c-33.383,0-60.449-27.203-60.449-60.557
			c0-33.352,27.066-60.435,60.449-60.435C972.918,2.926,999.94,30.009,999.94,63.361"/>
	</g>
</g>
</svg>
