<?xml version="1.0" encoding="utf-8"?>
<!-- Generator: Adobe Illustrator 21.1.0, SVG Export Plug-In . SVG Version: 6.00 Build 0)  -->
<svg version="1.1" id="Layer_1" xmlns="http://www.w3.org/2000/svg" xmlns:xlink="http://www.w3.org/1999/xlink" x="0px" y="0px"
	 viewBox="0 0 466.8 371" style="enable-background:new 0 0 466.8 371;" xml:space="preserve">
<style type="text/css">
	.st0{fill:#CF0125;}
</style>
<path id="cnnturkcom" class="st0" d="M466.8,1.1h-25.7v177.8c0.8,6.1-2.3,12.1-8.3,15.1c-0.8,0-0.8,0.8-1.5,0.8h-1.5
	c-5.3,1.5-10.6-0.8-13.6-5.3l-0.8-0.8v-0.8C366.9,110,336.7,60.8,323.8,40.4c-0.8-1.5-2.3-2.3-4.5-2.3c-2.3,0.8-3,3-3,5.3v136.2
	c0.8,6.1-3,11.3-7.6,13.6c0,0-0.8,0-0.8,0.8h-0.8h-0.8h-0.8h-0.8c-5.3,0.8-10.6-2.3-13.6-6.8C242.9,110,212.6,60.8,200.5,40.4
	c-0.8-1.5-2.3-2.3-4.5-2.3c-2.3,0.8-3,3-3,5.3v136.2c0,3-1.5,6.1-3,8.3c-0.8,0-0.8,0.8-0.8,0.8v0.8l-0.8,0.8l-0.8,0.8
	c-2.3,2.3-5.3,3-8.3,3h-77.2c-5.3-0.8-9.8-1.5-14.4-2.3C72.6,187.9,59,180.4,48.4,169l-0.8-0.8c-7.6-9.1-13.6-18.9-17.4-30.3
	c-0.8-3.8-1.5-6.8-1.5-10.6c0-0.8,0-0.8-0.8-1.5c-0.8-4.5-0.8-9.8-0.8-14.4v-0.8c0-15.9,3.8-31.8,12.1-46.2
	c2.3-3.8,5.3-7.6,8.3-10.6c0,0,0-0.8,0.8-0.8C64.3,35.9,87,26,110.5,26.8h39.3V1.1h-34c-32.5-1.5-63.6,10.6-86.3,34
	c-18.9,20.4-28.8,47.7-28,75.7c-0.8,28,9.8,55.2,29.5,75.7c22.7,23.5,54.5,36.3,87,34.8h59.8c11.3,0.8,22.7-3.8,31-11.3
	c8.3-9.1,12.1-20.4,11.3-32.5v-56l46.9,77.9c5.3,8.3,12.1,15.1,21.2,19.7c7.6,3.8,16.6,5.3,25,3.8c8.3-1.5,15.9-6.1,21.2-12.1
	c6.1-7.6,9.1-17.4,9.1-27.2v-62l46.9,77.9c4.5,8.3,12.1,15.9,21.2,19.7c7.6,3.8,16.6,5.3,25,3.8c8.3-1.5,15.9-6.1,21.2-12.1
	c6.1-7.6,9.1-17.4,9.1-27.2C466.8,183.4,466.8,1.1,466.8,1.1z M423.7,181.9c0.8,1.5,2.3,2.3,3.8,2.3c2.3-0.8,3-3,2.3-5.3V1.1H404
	v103.7l-43.9-76.4c-5.3-9.8-13.6-18.2-24.2-23.5c-8.3-3.8-17.4-5.3-25.7-3s-15.9,6.8-20.4,13.6c-6.1,7.6-9.1,16.6-8.3,25.7v63.6
	l-44.6-77.2c-5.3-9.8-13.6-18.2-24.2-23.5c-7.6-3.8-17.4-5.3-25.7-3S171,7.9,165.7,14.7c-3,4.5-5.3,9.1-6.8,14.4
	c-0.8,3.8-1.5,7.6-1.5,11.3v109.7c0,2.3-0.8,3.8-2.3,5.3c-1.5,1.5-3,2.3-5.3,2.3h-34c-15.1,0.8-29.5-4.5-40.9-15.1
	C66.6,134.2,62,122.1,62,110c-0.8-25.7,20.4-46.9,46.2-47.7H149v-25h-38.6C90,36.6,69.6,44.9,56,60.1c-3,3.8-5.3,7.6-8.3,11.3
	c-6.8,12.1-10.6,25.7-10.6,39.3c0,4.5,0.8,9.8,1.5,14.4c0.8,3,1.5,6.8,2.3,9.8c3,9.8,8.3,18.2,15.1,25.7c9.1,9.8,21.2,16.6,34,20.4
	c4.5,1.5,9.8,2.3,14.4,2.3h73.4c1.5,0,3-0.8,4.5-1.5c1.5-0.8,1.5-3,1.5-4.5V44.2c-0.8-6.1,3-12.1,9.1-14.4l0.8-0.8h2.3
	c5.3-1.5,10.6,0.8,14.4,5.3c0,0.8,0.8,0.8,0.8,1.5c12.1,20.4,42.4,69.6,90.8,147.5c0.8,1.5,2.3,2.3,3.8,2.3c1.5-0.8,3-3,2.3-5.3
	V44.2c-0.8-6.1,3-12.1,9.1-14.4l0.8-0.8h2.3c5.3-1.5,10.6,0.8,14.4,5.3c0,0.8,0.8,0.8,0.8,1.5C345,54.8,375.3,104,423.7,181.9z"/>
<path id="cnnturkcom_1_" d="M0,243.9V371h466.1V243.9H0z M131.6,262.8h24.2v14.4h-24.2V262.8z M91.5,278.7H67.3v72.6H43.1v-72.6
	H18.9v-15.1h72.6C91.5,263.6,91.5,278.7,91.5,278.7z M205.8,321.1c0,4.5-0.8,9.1-2.3,12.9s-3.8,7.6-6.8,9.8c-3.8,3-7.6,4.5-12.1,6.1
	c-5.3,1.5-10.6,2.3-15.9,2.3c-6.8,0-12.9-0.8-19.7-3c-5.3-2.3-9.8-5.3-12.9-9.8c-3-5.3-4.5-11.3-4.5-17.4v-37.1h24.2v39.3
	c0,3,1.5,6.1,3.8,8.3s6.1,3.8,9.8,3c6.1,0.8,12.1-3,12.9-9.8v-40.9h23.5V321.1z M205.8,278h-24.2v-14.4h24.2V278z M301.9,350.6
	l-5.3-16.6c-1.5-4.5-3.8-9.1-5.3-13.6c-0.8-2.3-2.3-3.8-4.5-5.3c-2.3-0.8-5.3-1.5-8.3-1.5v37.1h-24.2v-87H289
	c5.3,0,9.8,0.8,14.4,1.5c3.8,0.8,7.6,3,10.6,5.3s5.3,4.5,6.8,7.6c1.5,3,2.3,6.8,2.3,9.8c0,4.5-1.5,9.1-4.5,12.9
	c-3.8,3.8-8.3,6.8-13.6,8.3c2.3,1.5,4.5,3,6.1,5.3c1.5,2.3,3,5.3,4.5,8.3l5.3,12.9c2.3,5.3,3.8,10.6,6.8,15.1
	C327.6,350.6,301.9,350.6,301.9,350.6z M420.7,350.6l-30.3-42.4h-0.8v42.4h-24.2v-87h24.2V306h0.8l26.5-42.4h24.2l-26.5,41.6
	l33.3,46.2h-27.2C420.7,351.4,420.7,350.6,420.7,350.6z M285.2,278.7h-7.6v20.4h7.6c3.8,0,6.8-0.8,9.8-3c2.3-1.5,3.8-4.5,3.8-7.6
	C298.1,281.8,293.6,278.7,285.2,278.7z"/>
</svg>
