<?xml version="1.0" encoding="UTF-8"?><svg id="a" xmlns="http://www.w3.org/2000/svg" width="248.6" height="117.6" xmlns:xlink="http://www.w3.org/1999/xlink" viewBox="0 0 248.6 117.6"><defs><linearGradient id="c" x1="41.94" y1="-560.75" x2="206.68" y2="-725.49" gradientTransform="translate(0 -584.33) scale(1 -1)" gradientUnits="userSpaceOnUse"><stop offset=".11" stop-color="#ec6444"/><stop offset=".44" stop-color="#e72887"/><stop offset=".73" stop-color="#e72887"/></linearGradient></defs><g id="b"><path d="m248.6,31.3v55c0,17.2-14,31.3-31.3,31.3H31.3c-17.2,0-31.3-14-31.3-31.3V31.3C0,14.1,14,0,31.3,0h186c17.3,0,31.3,14,31.3,31.3Zm-31.2,82.5c15.2,0,27.5-12.4,27.5-27.5V31.3c0-15.2-12.4-27.5-27.5-27.5H31.4C16.2,3.8,3.9,16.2,3.9,31.3v55c0,15.2,12.4,27.5,27.5,27.5h186Z" fill="url(#c)" stroke-width="0"/></g><g id="d"><path d="m47.6,45.6c0-6.3-.2-10.6-1-13.3-.8-2.7-1.3-3.8-3.1-3.8-.9,0-1.6.3-2.3.9-.6.5-1.2,1.7-1.8,3.5-.5,1.8-1,4.6-1.3,8.5s-.5,9-.5,15.2.1,11.3.3,15,.5,5,1,6.9c.4,1.9,1,3.2,1.7,3.8.7.6,1.7.9,2.9.9,2.2,0,3.7-1.5,4.5-4.6.8-3,.5-6.8.7-13l12.3-.1c0,4,.3,9.1-.2,12.4-.4,3.3-1.3,6.4-2.6,9.3-1.3,2.9-3.2,5.2-5.7,6.9-2.5,1.7-5.7,2.6-9.7,2.6-7.3,0-12.4-3.4-15.5-10.1-2.9-6.7-4.5-16.7-4.5-30,0-7.2.5-13.3,1.5-18.5s2.4-9.3,4.3-12.5c1.8-3.2,3.9-5.5,6.4-6.9,2.4-1.4,5.1-2.2,8-2.2,3.9,0,7.1.8,9.6,2.4,2.5,1.6,4.3,3.8,5.6,6.5,1.2,2.7,2.1,5.7,2.5,9.1.4,3.3.6,7,.6,11l-13.7.1Z" fill="#000" stroke-width="0"/><path d="m62.4,37.5c.9-5.1,2.3-9.2,4-12.3,1.8-3.1,3.9-5.3,6.3-6.7,2.4-1.4,5.2-2,8.4-2s6,.7,8.4,2c2.4,1.4,4.5,3.6,6.3,6.7,1.8,3.1,3.1,7.2,4,12.3s1.4,11.4,1.4,18.8-.5,13.6-1.4,18.8c-.9,5.1-2.3,9.2-4,12.3-1.8,3.1-3.9,5.3-6.3,6.7-2.4,1.4-5.2,2-8.4,2s-6-.7-8.4-2c-2.4-1.4-4.5-3.6-6.3-6.7s-3.1-7.2-4-12.3c-.9-5.1-1.4-11.4-1.4-18.8s.5-13.7,1.4-18.8Zm13.9,26.9c0,7.7.4,13,1.2,15.8.8,2.8,1.8,3.6,3.6,3.6s3.5-.8,4.3-3.6c.8-2.8,1.2-8,1.2-15.8v-16.2c0-7.7-.4-12.1-1.2-14.9-.8-2.8-2.1-4.1-3.9-4.1s-3.1,1.4-3.9,4.1c-.8,2.8-1.2,7.1-1.2,14.9l-.1,16.2h0Z" fill="#000" stroke-width="0"/><path d="m113.1,71.9c0,1.6.1,3.9.2,5.1s.3,2.4.7,3.6c.4,1.2.9,2.2,1.8,3,.8.8,2,1.2,3.4,1.1,1.4-.2,2.7-.8,3.7-2.3s1.5-3.2,1.5-5.1c0-2.7-.8-5-2.4-7-1.6-2-4.2-4.5-7.8-7.4-2.3-1.9-7.4-8.3-8.8-10.2s-3-4.1-3.9-6.6-1.1-5.4-1.1-8.4c0-6,2.4-10.9,5.6-14.8s9.2-5.9,14.8-5.9c6,0,10.8,2.1,13.6,6.2s3.5,9.9,3.6,17.2l-12.3-.2c0-1.6,0-2.9-.1-4.1-.1-1.1.1-3.9-2-6.2-.8-.7-1.8-1-3.1-1.1-1.4-.1-4.1.1-5.5,1.9-1,1.2-1.4,3-1.4,5.1,0,2.5.8,4.8,2.4,6.8,2.2,2.7,5,5,7.7,7.4,4.6,4.2,8.3,8.8,9.7,10.8s2.6,4.3,3.4,6.7c.9,2.5,1.3,5.2,1.3,8.2,0,6.1-1.7,11.1-5,15.1s-7.9,5.7-13.9,5.7c-3.5,0-7.5-.7-9.9-2.1s-4.2-3.2-5.5-5.5-2.1-4.9-2.6-7.6-.8-6.5-.8-9.5l12.7.1Z" fill="#000" stroke-width="0"/><path d="m138.4,18.3h18.4l6.2,39.3,6.7-39.3h17.9v76.6h-12.6l.1-56.2-9.3,56.2h-7.6l-8.4-56.2.1,56.2h-11.5V18.3Z" fill="#000" stroke-width="0"/><path d="m188.9,37.7c.9-5.2,2.3-9.3,4.1-12.4s3.9-5.4,6.4-6.7c2.5-1.4,5.3-2.1,8.6-2.1s6.1.7,8.6,2.1,4.6,3.6,6.4,6.7c1.8,3.1,3.2,7.3,4.1,12.4.9,5.2,1.4,11.5,1.4,18.9s-.5,13.8-1.4,18.9c-.9,5.2-2.3,9.3-4.1,12.4s-3.9,5.4-6.4,6.7c-2.5,1.4-5.3,2.1-8.6,2.1s-6.1-.7-8.6-2.1-4.6-3.6-6.4-6.7c-1.8-3.1-3.2-7.2-4.1-12.4-.9-5.2-1.4-11.5-1.4-18.9s.5-13.7,1.4-18.9Zm14.1,27.1c0,7.8.4,13.1,1.3,15.9.8,2.8,2.2,4.2,4,4.2s3.1-1.4,4-4.2c.8-2.8,1.3-8.1,1.3-15.9v-16.3c0-7.8-.4-13.1-1.3-15.9-.8-2.8-2.2-4.2-4-4.2s-3.2,1.4-4,4.2-1.3,8.1-1.3,15.9v16.3Z" fill="#000" stroke-width="0"/></g></svg>