<svg width="123" height="21" viewBox="0 0 123 21" fill="none" xmlns="http://www.w3.org/2000/svg">
<path d="M25.6341 20.028C22.5437 20.5274 19.4212 20.8025 16.2911 20.851C5.35906 20.897 -2.10896 17.51 0.534044 10.52C3.01804 3.951 13.4011 0.630006 23.9541 0.587006C26.8696 0.589089 29.7818 0.782499 32.672 1.166L30.72 6.332C28.7362 5.89256 26.7128 5.65634 24.681 5.627C19.31 5.65 14.611 7.377 13.401 10.58C12.127 13.947 15.2491 15.645 20.4791 15.623C22.8715 15.5864 25.2552 15.3232 27.5981 14.837L25.6341 20.028ZM35.0131 0.878006L56.7351 0.787994C61.8691 0.765994 68.2441 2.19701 66.2481 7.47501C64.3151 12.585 58.0081 14.711 51.4111 14.739L42.366 14.777L40.2311 20.42L27.6041 20.473L35.0131 0.878006ZM43.7561 10.232L46.5351 10.221C49.5501 10.208 52.7421 9.85801 53.5701 7.66901C54.3531 5.59001 51.3881 5.352 48.3251 5.369L45.5921 5.381L43.7561 10.232ZM89.1861 15.614L87.375 20.396H60.7751L62.8881 14.818C65.231 14.189 70.151 12.818 73.8801 11.57C76.368 10.687 79.23 9.576 79.866 7.895C80.643 5.847 77.802 5.13499 74.69 5.13699C72.0695 5.12777 69.4563 5.4146 66.9001 5.992L68.8631 0.811005C72.4548 0.418588 76.0641 0.208978 79.677 0.182999C86.9501 0.182999 94.3211 1.575 92.3771 6.7C90.6631 11.225 81.998 13.76 75.336 15.556L75.315 15.612L89.1861 15.614ZM123.001 11.447L121.101 16.475H115.061L113.596 20.431L101.571 20.473L103.176 16.473L88.8341 16.373L91.423 9.53799L109.023 0H121.3L116.963 11.45L123.001 11.447ZM109.351 10.879L111.832 4.33L99.9041 10.88L109.351 10.879Z" fill="black"></path>
</svg>