<?xml version="1.0" encoding="UTF-8" standalone="no"?><svg xml:space="preserve" viewBox="0 0 1000 343.21863" xmlns="http://www.w3.org/2000/svg" xmlns:svg="http://www.w3.org/2000/svg"><path d="M126.9531 111.83756c-6.24326-.13041-12.78237.26117-19.61653 1.17305-19.122047 2.55143-36.381834 8.62012-50.578586 17.77471-17.060918 11.00152-33.115657 27.58323-44.4151 53.59347-4.9258324 11.33879-7.8969254 22.53857-9.6754174 32.7153-1.48044 8.47127-2.12241804 16.25555-2.48347154 22.61695-.2905479 8.74872-.1500204 11.45397-.1500204 11.45397l22.25002634-2.96787c.028465 5.76555.474709 11.45069 1.171243 17.28127 1.056218 8.84143 3.516385 23.07357 10.989452 37.13821 9.097004 17.12095 21.836634 26.91618 33.696769 32.50564 10.962101 5.16622 24.165349 8.14792 39.744585 8.09568 14.04498-.0471 31.21826-2.50692 48.06257-9.19825 16.71665-6.64059 27.59562-15.26267 34.15045-21.34267 7.53415-6.98835 16.11255-17.03811 22.83385-30.69455 4.88762-9.9308 8.91036-21.77221 10.71833-35.72837l-49.03321 6.54487c-1.70929 9.27208-6.5158 29.09578-24.40273 42.39434-4.14998 3.08545-8.90798 5.57333-14.43269 7.44138-4.44 1.50127-11.02077 2.78769-16.91616 3.18296-3.32444.22289-6.58154.16228-9.31754-.10303-3.19158-.30947-9.999166-1.66243-16.003386-5.17661-10.679257-6.25037-15.815686-16.23307-18.067526-21.42039-4.867279-11.21224-6.864539-24.57734-6.917209-37.00249l-22.132539 2.95341c-.150371-5.29025-.098429-15.99329 1.887005-27.25326 4.728473-26.8165 14.833364-41.17126 20.791392-47.92342 8.248399-9.34776 20.092558-17.60178 36.789353-19.85692l2.83051-.38318c9.00366-1.20134 17.12782-.39661 23.95628 2.2738 8.09369 3.25524 14.07054 8.43013 18.52663 15.30029 4.14577 6.39169 6.63084 14.12669 7.8589 22.04215l44.75671-5.97189c-1.29039-12.2551-5.24989-29.76879-16.94689-44.47474-8.46033-10.6367-19.54236-17.9821-31.17714-21.96083-8.75872-3.13686-18.34248-4.80562-28.74791-5.02298Z" fill="#19c9f2"/><path d="M353.6955 85.430339c-5.34673-.098873-10.97109.225416-16.86736.972421l-103.16168 13.76393-4.99767 120.49356 21.67706-2.89739-4.36324 104.08168 45.1803-6.02762 3.49969-87.1441 49.6414-6.66171c8.84801-1.1805 15.58537-1.19832 20.72778.499 5.70915 1.88437 8.94703 5.47611 11.45831 11.13899 1.92917 3.96873 3.30028 13.01149 4.2033 27.95793.24945 3.87373.70131 9.36126.99019 12.77155.64586 7.62443 1.45084 12.42997 1.78996 14.35999.92685 5.27487 2.19793 10.24808 3.90634 14.24027l47.46224-6.33231.06688-1.62674c-6.06243-12.2988-7.90098-29.16652-9.08438-42.61846-.9451-8.61522-1.06613-18.67043-2.82147-27.68511-1.03542-5.31752-2.4569-9.63172-4.41566-12.96141-6.50106-11.05119-16.64026-12.69103-29.207-12.24926-5.4985.22816-24.0669 3.289-25.59928 3.09982l-.61092-5.3917c5.66842-.82384 15.00811-3.5333 22.83926-8.79879 3.04049-1.79113 6.39922-4.42023 9.5742-7.59682 7.1731-7.17674 12.06358-15.53428 14.76708-25.13476 2.88832-10.25683 3.91922-28.69249-3.91319-43.25831-7.77422-14.457584-20.98862-20.444664-28.34664-22.969404-7.34403-2.519965-15.48428-3.860465-24.3955-4.025247Zm-17.29754 37.821431c8.94621-.25063 15.83675 2.06674 20.68655 6.38942 1.98617 1.7703 3.65342 4.0247 4.95249 6.6714 2.06118 4.1994 2.99566 9.22624 3.13778 14.15976.30778 10.6848-2.53493 17.28619-5.00129 21.40051-7.76711 12.95693-22.79175 16.965-33.24309 18.29707l-52.19809 6.97687 2.61181-66.28194 55.09366-7.34559c1.36198-.14225 2.68215-.23169 3.96018-.2675Z" fill="#19c9f2"/><path d="m492.43914 65.638478-45.81409 6.112883-4.99767 120.493559 21.8813-2.91908-4.36324 104.07807 45.8177-6.11288 4.36144-103.98516-21.88311 2.91907Z" fill="#19c9f2"/><path d="m787.0179 26.333113-73.61667 9.823629-41.15441 117.138888-3.01487 8.58009 17.91389-2.38949-4.26926 13.32652c-1.06446 3.30226-2.81122 9.27936-4.66871 15.6455-1.67976 5.75714-3.63332 12.7259-4.86753 17.48191-.71826 2.76783-1.38177 5.26117-1.88339 7.52453l-4.23492.51332c-1.3865-8.72761-2.92935-16.27297-3.83184-19.90211-1.40521-6.78088-3.09433-14.01063-5.11877-21.13121l-2.49251-9.17944-17.97174 2.39672c-.03884-.13709-.06938-.26949-.10844-.40669-.37994-1.24385-.76063-2.57968-1.14052-3.82354-.37991-1.24385-.75877-2.48858-1.13871-3.73243L603.76698 50.784643l-38.56971 5.145883-34.73246 4.634367-4.99767 120.493557 21.41135-2.82508-4.35962 104.04552 44.88504-5.98996 4.36324-103.98336-21.41497 2.85762.77903-18.92138c.25617-12.5451.23941-22.09553-.02169-34.39625-.14485-6.82414-.39878-14.23612-1.04473-22.994714l11.69979-2.26658c1.15517 7.503644 2.20597 13.386954 3.62942 20.213004 1.4366 6.88932 3.18949 14.75757 5.82187 24.34309l8.6054 29.99686 17.93558-2.3931 28.34302 99.71482 42.20456-5.6321 37.52681-108.40985-17.98816 2.38767 9.8491-28.42327c1.97433-5.74147 10.57541-34.887464 14.15253-51.805877l11.7974-.835054c-2.90176 19.299047-2.36549 18.235017-3.3583 26.566281-.72241 8.39643-1.70176 18.82077-2.07498 27.71583l-.95615 22.77781 21.36797-2.80339-4.39578 104.03468 44.81636-5.97913 4.36325-103.98516-21.38063 2.8522Z" fill="#19c9f2"/><path d="M984.37434 0 825.01465 21.263143 820.01698 141.7567l21.98615-2.93353-4.36145 104.07806 161.01356-21.48365L1000 183.69918l-115.19224 15.36896 3.10705-66.3705 80.99656-10.80691 1.31226-35.686798-102.67908 13.700664 1.95028-47.034126 113.22031-15.119534Z" fill="#19c9f2"/></svg>