<svg id="aaf946b3-81c9-46a7-98ea-ba0b0535872a" data-name="Layer 1" xmlns="http://www.w3.org/2000/svg" width="1024" height="689.95" viewBox="0 0 1024 689.95"><defs><style>.a660a9cb-2e97-425b-95a9-04d29a1ab318{fill:#ed2c3c;}</style></defs><path class="a660a9cb-2e97-425b-95a9-04d29a1ab318" d="M1024,117.18H944.31V197H931v-79.8h-79.8V104H931V24.15h13.34V104H1024Z"/><polygon points="0.57 237.92 53.47 237.92 53.47 452.03 0.57 452.03 0.57 237.92 0.57 237.92"/><polygon points="322.32 451.57 376.37 451.57 443.29 237.92 393.04 237.92 351.53 388.56 350.72 388.56 310.94 237.92 257.58 237.92 322.32 451.57 322.32 451.57"/><polygon points="451.23 451.57 598.88 451.57 598.88 407.76 504.12 407.76 504.12 365.21 589.1 365.21 589.1 322.09 504.12 322.09 504.12 281.38 598.3 281.38 598.3 237.92 451.69 237.92 451.23 451.57"/><polygon points="712.83 217.45 860.48 217.45 860.48 173.64 765.84 173.64 765.84 131.09 850.82 131.09 850.82 87.85 765.84 87.85 765.84 47.26 860.02 47.26 860.02 3.68 713.29 3.68 712.83 217.45 712.83 217.45"/><path d="M603.71,416.5c20.12,28.4,51.86,38.64,89.34,38.64,43.47,0,84.87-23.35,84.87-69.8,0-33.24-20.82-51.86-50.6-59.22L694.09,317c-15.87-4.14-28.63-8.28-28.63-20.81,0-14.61,13.34-20,28.63-20a56.37,56.37,0,0,1,45.19,20.12L772.74,267c-18.63-23-40.93-32.31-78.19-32.31-46.69,0-80.38,28.75-80.38,68.65,0,34.5,21.39,51.17,50,59L700.53,372c13.11,3.56,23.69,8.28,23.69,21.62,0,14.95-17.14,20-33.12,20a66.66,66.66,0,0,1-53.59-27L604.05,417"/><polygon points="840.01 452.03 892.91 452.03 892.91 280.69 957.3 280.69 957.3 237.8 775.85 237.8 775.85 280.69 840.01 280.69 840.01 452.03"/><rect x="971.1" y="237.92" width="52.9" height="214.11"/><polygon points="196.75 237.92 196.75 353.48 121.55 238.03 70.38 238.03 70.38 451.92 123.27 451.92 123.27 331.52 200.54 452.03 249.65 452.03 249.65 237.92 196.75 237.92 196.75 237.92"/><polygon points="414.66 685.24 467.56 685.24 467.56 514.24 531.72 514.24 531.72 471.7 350.84 471.7 350.84 514.24 415.12 514.24 414.66 685.24"/><path d="M.34,612.68c0,53.24,43.13,77,89.93,77,40.82,0,85.09-20.81,85.09-70.15V570H81.87v39.45h42.55v5.4c0,22.42-14.72,31.16-34.27,31.16A34.4,34.4,0,0,1,52.9,610.61v-65.2c0-24.27,18.85-34.16,37.25-34.16,16.22,0,35.19,8,35.19,30.36v3.8H174.9v-7.82c0-49.68-45.42-69.23-86.36-69.23C42,468.36,0,494.46,0,546.78v65.44"/><polygon points="558.05 685.58 610.95 685.58 610.95 471.93 558.05 471.93 558.05 685.58 558.05 685.58"/><path d="M761.93,610.15c-2.41,46.57-71.06,46.57-73.59,0V547.82a33,33,0,0,1,36.34-35,34.4,34.4,0,0,1,37.25,34.61v63.37m-126.49.8c0,55.08,42.9,78.31,90.16,78.31,44,0,89.23-25.18,89.23-81V548.85c0-55.08-43.47-80.6-90.5-80.6-45.3,0-88.89,26.67-88.89,81v61.64"/><polygon points="970.53 471.81 970.53 586.92 890.61 471.46 840.01 471.46 840.01 685.47 892.91 685.47 892.91 565.41 974.9 685.47 1024 685.47 1024 471.93 971.1 471.93 970.53 471.81"/><path d="M249.65,603.71l24.49-77.28h.92l24.15,77.28ZM174,685.46h50l13-39.9h75.43l12.65,39.9h54.16L305.19,471.58H248.73L174,685.46Z"/><path d="M.57,144c0,53.36,43.36,77,89.93,77,40.82,0,84.29-20.81,84.29-70V140.75H125.11v5.06a31.79,31.79,0,0,1-34.27,31.74c-21.62,0-37.25-12.65-37.25-34.5V78.31c0-24.26,17.93-34.15,36.68-34.15a32.06,32.06,0,0,1,34.84,31.73v4.83h49.68V70.37C174.79,20.93,130.17,0,89.23,0,42.55,0,.57,26.1.57,78.42v65.32"/><path d="M249.65,102.23V45.65h33c18.86,0,31.16,10.35,31.16,28.17a27.47,27.47,0,0,1-31.16,28.41Zm-52.9,115h52.9V141.9h23.91l41.52,75.43H372.8l-48.29-83a65.53,65.53,0,0,0,39.67-62.9c0-39.56-27.48-67.5-75.32-67.5H196.75Z"/><rect x="391.09" y="3.68" width="52.9" height="213.54"/><polygon points="470.66 217.22 519.42 217.22 519.42 81.64 519.99 81.64 560.58 188.59 596.92 188.59 637.17 81.41 637.74 81.41 637.74 217.33 686.5 217.33 686.5 3.68 621.76 3.68 580.25 113.96 579.67 113.96 536.78 3.68 471.12 3.68 470.66 217.22 470.66 217.22"/></svg>