<svg xmlns="http://www.w3.org/2000/svg" width="205.584" height="51.547" viewBox="0 0 205.584 51.547">
  <g id="LogoCronica" transform="translate(-531.542 -2.189)">
    <g id="Grupo_22963" data-name="Grupo 22963" transform="translate(531.542 2.189)" style="isolation: isolate">
      <path id="Trazado_4" data-name="Trazado 4" d="M4.5,0A4.329,4.329,0,0,1,9.115,4.012a4.014,4.014,0,0,1-.463,2.029A7.594,7.594,0,0,1,6.581,8.454a7.226,7.226,0,0,1-3.45,1.128c-.653.009-.375-.05-.378-.212a4.886,4.886,0,0,0-.012-.853,1.921,1.921,0,0,0-.664-.935c-.074-.057-.164-.129-.265-.217a4.1,4.1,0,0,1-.734-.618l-.047-.027A3.949,3.949,0,0,1,0,4.163,4.353,4.353,0,0,1,4.5,0" transform="matrix(1, 0.017, -0.017, 1, 73.384, 0)" fill="#fb0d01"/>
      <g id="Grupo_22962" data-name="Grupo 22962" transform="translate(0 0.954)">
        <path id="Trazado_5" data-name="Trazado 5" d="M4.795,0a3.842,3.842,0,0,1,3.99,2.956A4.539,4.539,0,0,1,5.226,7.991a4.883,4.883,0,0,1-1.159.161A3.852,3.852,0,0,1,.073,5.194,4.531,4.531,0,0,1,3.63.161,4.969,4.969,0,0,1,4.795,0" transform="matrix(1, 0.017, -0.017, 1, 133.35, 0)" fill="#fb0d01"/>
        <path id="Trazado_6" data-name="Trazado 6" d="M204.728,15.278c.048,0,.962.029-.363,1.938s-4.7,6.554-7.778,8.239a13.939,13.939,0,0,1-6.29,1.81,7.662,7.662,0,0,1-1.183-.064,5.313,5.313,0,0,1-3.629-2.363,6.343,6.343,0,0,1-.458-2.062c-.63-.149-.868-.076-1.147.164-.666.589-4.276,3.591-7.649,3.646-3.778-.156-5.511-1.559-6.323-2.874a20.11,20.11,0,0,1-1.274-3.546c-.078-.107-.133-.287-.4-.283-.323,0-.962.288-2.35,1.324-2.4,1.777-8.294,6.454-14.162,6.551-.288.005-.576,0-.864-.02-5.432-.36-7.4-2.949-8.163-4.022a18.69,18.69,0,0,1-1.593-4.175.645.645,0,0,0-.6-.395,1.631,1.631,0,0,0-1.023.561c-1.213,1.161-8.766,6.489-10.853,7.256a10.925,10.925,0,0,1-3.386.671c-1.585.026-3.071-.461-3.587-2.078a5.985,5.985,0,0,1,.534-5.012c.348-.817,1.16-2.774.68-2.766-1.276.844-7.832,9.152-14.011,10.187a21.8,21.8,0,0,1-3.2.335c-2.739.044-4.146-.8-4.848-2.685-.877-2.355.8-5.748,1.39-6.846s4.387-8.475,4.588-8.864c.024-.066.508-1.274-.16-1.263a2.314,2.314,0,0,0-1.08.5c-2.128,1.474-7.367,7.045-8.858,8.94a80.882,80.882,0,0,0-6.017,9.744,1.527,1.527,0,0,1-1.089.858c-.233.023-1.186.044-2.353.064-2.336.037-5.37.064-5.53.065-.078,0-.276-.059.163-1.044.506-1.147,5.282-12.217,5.534-12.8.045-.112.873-2.259.282-2.25-1.226.636-2.867,2.145-3.652,2.5a22.277,22.277,0,0,1-2.922,1.09c-.4.059-1.634,2.2-2.235,3.157-.6.939-5.626,8.441-10.873,9.228a19.5,19.5,0,0,1-2.478.213c-3.478.057-5.064-1.1-5.873-2.067a7.951,7.951,0,0,1-1.46-3.825c-.051-.693-.03-2-.029-2.075-.011-.019-.221-.4-.527-.4-.7.466-8.317,7.163-11.8,8.4A15.7,15.7,0,0,1,41.1,30.035a3.673,3.673,0,0,1-3.971-2.719c-1.189-3.775,1.333-8.03,2.925-10.271,1.589-2.256,3.753-5.482,3.864-5.653.039-.051.736-1-.015-1.191a3.783,3.783,0,0,0-.91-.08,6,6,0,0,0-.8.065c-.086.1-1.72,1.953-4.574,5.311S25.839,28.545,17.579,30.118a29.118,29.118,0,0,1-4.913.536c-5.347.087-8.778-1.735-11.012-4.484-2.85-3.5-1.6-10,.6-13.455C4.763,8.8,10.377,2.235,18.063.576A23.789,23.789,0,0,1,22.646,0c4.389-.072,6.374,1.569,7.218,2.774a7.391,7.391,0,0,1-1.716,9.166c-3.945,3.593-6.2,4.056-8.61,4.1-2.747.043-4.308-1.474-4.514-2.4a3.547,3.547,0,0,1,.815-3.464,4.645,4.645,0,0,1,3.72-1.741,6.194,6.194,0,0,1,.657.022A2.556,2.556,0,0,1,22.642,9.91c.205.474.142.838.255,1.038a2.679,2.679,0,0,0,1.467-.365c.111-.081,2.2-1.624,2.243-3.339.047-2.346-2.1-3.482-4.127-3.45a4.945,4.945,0,0,0-1.256.181c-2.267.66-8.655,2.891-11.25,9.032s.628,9.441,2.575,10.131a6.007,6.007,0,0,0,1.976.225c3.309-.056,9.562-1.569,15.975-7.014,8.132-6.9,9.024-7.164,8.748-8.469a7.472,7.472,0,0,1,.173-4.548A4.265,4.265,0,0,1,42.788,1.17a2.61,2.61,0,0,1,1.282.3,9.657,9.657,0,0,1,2.912,2.731c.235.207.389.3.564.3a2.112,2.112,0,0,0,.853-.373,6.066,6.066,0,0,1,2.518-.652,2.633,2.633,0,0,1,1.716.495,4.739,4.739,0,0,1,1.39,5.188c-.677,2.373-2.864,5.111-4.064,6.875s-2.86,4.531-2.9,5.453c-.039.8.164,1.974,1.111,1.958a1.647,1.647,0,0,0,.521-.106c1.4-.525,6.887-4.933,8.929-7.168a27.688,27.688,0,0,0,3.908-4.78c.885-1.528,5.229-6.313,9.516-6.907A19.975,19.975,0,0,1,73.452,4.3c3.063-.051,5.308.7,6.257,1.7A5.785,5.785,0,0,1,81.28,9.588c.1,1.021-.128,1.423.225,1.65a1.24,1.24,0,0,0,.6.1,7.144,7.144,0,0,0,4.157-1.929A26.5,26.5,0,0,0,90.08,5.824,26.147,26.147,0,0,0,91.8,3.618l9.07-.148c.044,0,.876.048.8.646a40.6,40.6,0,0,1-2.088,4.73,2.483,2.483,0,0,0-.417,1.385A1.362,1.362,0,0,0,100.6,9.57c.556-.75,6.705-6.337,9.729-6.581.381-.032.77-.051,1.161-.058,2.711-.044,5.475.564,5.574,2.466.122,2.175-1.961,6.611-3.166,8.848a59.825,59.825,0,0,0-2.729,5.49c-.42,1.137-.713,2.281-.136,2.52.992,0,4.341-1.855,6.778-4.314,2.594-2.614,8.208-8.538,9.8-10.889s3-4.105,3.751-4.214c.248-.037,1.108-.062,2.149-.077,2.076-.036,4.723-.039,4.862-.039.071.007,1.4.124.847,1.125S132.789,16.3,132.478,16.9c-.049.093-.979,1.849-.844,2.435.1.413.308.97,1.025.957a2.98,2.98,0,0,0,1.27-.4,47.28,47.28,0,0,0,7.451-5.808c.825-.95,4.176-6.563,7.616-8.744,3.274-2.09,5.826-2.812,8.193-2.852a14.38,14.38,0,0,1,2.47.187c3.123.5,6.3,3.211,6.451,6.284.143,2.925-1.96,6.831-5.936,7.334a11.746,11.746,0,0,1-1.278.1c-3.058.049-4.336-1.412-4.605-3.505-.277-2.2,1.85-3.169,2.542-3.307a4.031,4.031,0,0,1,3.032.888,1.365,1.365,0,0,0,1.035.567,1.826,1.826,0,0,0,.592-.137,2.188,2.188,0,0,0,.658-3.481A5.656,5.656,0,0,0,158.2,6.149a7.06,7.06,0,0,0-2.853.645c-2.553,1.19-5.555,3.8-6.435,6.877s-.933,8.527,3.412,8.9c.485.04.965.055,1.437.047a17.739,17.739,0,0,0,9.515-3.244,50.994,50.994,0,0,0,4.982-3.838c.1-.39,2.006-7.8,8.61-11.612a18.083,18.083,0,0,1,8.7-2.422,11.578,11.578,0,0,1,2.625.213,6.18,6.18,0,0,1,2.878,2.07,2.836,2.836,0,0,0,1.665,1.039c.849-.216.684-1.484.7-1.93.026-.575.164-.757,1.624-.781.167,0,.349,0,.551,0,.543.008,1.92-.01,3.262-.03,1.61-.028,3.092-.059,3.17-.061s1.18.014.114,1.781c-1.118,1.85-7.019,13.849-7.584,14.954s-1.3,2.241-1.109,3.237a1.079,1.079,0,0,0,1.085.905,1.727,1.727,0,0,0,.806-.243,17.778,17.778,0,0,0,4.374-4.127c.836-1.093,1.579-2.939,1.928-3.1a11.485,11.485,0,0,1,2.088-.144c.546-.008.961-.006.98-.006m-18.25,1.485c3.015-3.4,3.971-7.854,2.121-9.931a3.287,3.287,0,0,0-2.622-1.07c-1.906.03-4.242,1.256-6.188,3.454-3.028,3.41-3.984,7.856-2.129,9.944a3.3,3.3,0,0,0,2.617,1.063c1.907-.032,4.246-1.258,6.2-3.459m-109.924.16c.131-.459-.5-1.006-1-1.4a3.434,3.434,0,0,1-.882-2.793,9.193,9.193,0,0,1,1.546-3.909c.276-.426-.072-.564-.611-.554A6.479,6.479,0,0,0,74,8.547a11.3,11.3,0,0,0-4.592,3.277c-3.213,3.464-4.477,7.847-2.829,9.788a2.781,2.781,0,0,0,2.26.918c1.9-.032,4.379-1.354,6.53-3.685l.075-.077a4.605,4.605,0,0,0,.46-.639,5,5,0,0,0,.653-1.206" transform="matrix(1, 0.017, -0.017, 1, 0.535, 4.815)" fill="#fb0d01"/>
      </g>
    </g>
    <g id="Grupo_23363" data-name="Grupo 23363">
      <g id="Grupo_23364" data-name="Grupo 23364" transform="translate(-10.001)">
        <rect id="Rectángulo_58133" data-name="Rectángulo 58133" width="104.969" height="10" transform="translate(591.543 43.736)"/>
        <path id="Trazado_8361" data-name="Trazado 8361" d="M-48.956.016q-.424,0-.424-.232V-5.3a.262.262,0,0,1,.3-.3h2.592q.216,0,.216.344v.208q0,.344-.216.344h-1.84V-3.1h1.752q.216,0,.216.344v.208q0,.344-.216.344h-1.752V-.216q0,.232-.424.232Zm4.44.008q-.416-.008-.424-.24V-5.384q.008-.232.424-.24h.208q.424.008.424.24V-.216q0,.232-.424.24ZM-41.74.016q-.424,0-.424-.232V-5.3a.258.258,0,0,1,.288-.3h1.488a2.446,2.446,0,0,1,1.484.368,1.3,1.3,0,0,1,.484,1.1,1.273,1.273,0,0,1-.256.808,1.586,1.586,0,0,1-.672.5v.032A.735.735,0,0,1-39-2.5a2.557,2.557,0,0,1,.28.532l.68,1.7a.509.509,0,0,1,.032.136q0,.152-.432.152h-.24a.9.9,0,0,1-.272-.036A.211.211,0,0,1-39.1-.136L-39.724-1.7a1.01,1.01,0,0,0-.328-.452,1.112,1.112,0,0,0-.616-.132h-.448V-.216q0,.232-.424.232Zm.624-3.208h.864a.7.7,0,0,0,.38-.108.784.784,0,0,0,.272-.288.8.8,0,0,0,.1-.4.659.659,0,0,0-.22-.536.887.887,0,0,0-.588-.184h-.808Zm6.928,1.776a.3.3,0,0,1-.272-.136L-35.6-3.56a1.749,1.749,0,0,1-.1-.16q-.044-.08-.084-.168l-.032.008q.008.1.008.2v3.46q0,.232-.424.232H-36.4q-.424,0-.424-.232V-5.384q0-.232.424-.232h.376a.8.8,0,0,1,.284.044.282.282,0,0,1,.164.148l1.392,2.456q.032.056.068.124a.922.922,0,0,1,.06.14A.851.851,0,0,1-34-2.848a1.424,1.424,0,0,0,.064-.128l1.392-2.448a.315.315,0,0,1,.172-.148.778.778,0,0,1,.276-.044h.368q.424,0,.424.232V-.216q0,.232-.424.232H-31.9q-.424,0-.424-.232v-3.24q0-.1,0-.2t0-.2l-.032-.008q-.04.088-.084.168a1.75,1.75,0,0,1-.1.16L-33.66-1.552a.3.3,0,0,1-.272.136ZM-29.244,0a.262.262,0,0,1-.3-.3V-5.3a.262.262,0,0,1,.3-.3h2.8q.216,0,.216.344v.208q0,.344-.216.344h-2.048v1.392h1.824q.216,0,.216.344v.208q0,.344-.216.344h-1.824V-.9h2.056q.216,0,.216.344v.208q0,.344-.216.344Zm7.224.056q-.088,0-.24-.008a2.173,2.173,0,0,1-.312-.04.792.792,0,0,1-.268-.1.205.205,0,0,1-.108-.18,1.508,1.508,0,0,1,.028-.2,1.282,1.282,0,0,1,.088-.292q.06-.136.164-.144a.572.572,0,0,1,.164.036.987.987,0,0,0,.3.036.817.817,0,0,0,.632-.212.989.989,0,0,0,.192-.676V-5.384q0-.24.424-.24h.208q.424,0,.424.24v3.76A2.125,2.125,0,0,1-20.5-.74a1.25,1.25,0,0,1-.544.588A2,2,0,0,1-22.02.056Zm5.6,0a2.532,2.532,0,0,1-1.68-.5,1.737,1.737,0,0,1-.592-1.4V-5.384q0-.232.424-.232h.2q.424,0,.424.232v3.5a.976.976,0,0,0,.156.544,1.03,1.03,0,0,0,.436.372,1.464,1.464,0,0,0,.632.132,1.458,1.458,0,0,0,.636-.132,1.063,1.063,0,0,0,.436-.372.958.958,0,0,0,.16-.544v-3.5q0-.232.424-.232h.192q.424,0,.424.232v3.536a1.732,1.732,0,0,1-.6,1.4A2.535,2.535,0,0,1-16.42.056Zm4.36-.04q-.424,0-.424-.232V-5.384q0-.232.424-.232h.288a.9.9,0,0,1,.272.036.334.334,0,0,1,.184.156L-9.268-2.3a2.764,2.764,0,0,1,.156.236,2.323,2.323,0,0,1,.124.244l.032-.008q-.008-.136-.012-.252t0-.292V-5.384q0-.232.424-.232h.176q.424,0,.424.232V-.216q0,.232-.424.232h-.256a.827.827,0,0,1-.26-.036.342.342,0,0,1-.18-.148l-2.1-3.184q-.08-.12-.148-.232t-.132-.24l-.032.008a2.167,2.167,0,0,1,.016.252V-.216q0,.232-.424.232Zm7.3,0q-.424,0-.424-.232V-4.7h-1.36q-.216,0-.216-.344v-.208q0-.344.216-.344H-2.78q.216,0,.216.344v.208q0,.344-.216.344H-4.132V-.216q0,.232-.424.232ZM.772.056A2.377,2.377,0,0,1-1.1-.68a3.071,3.071,0,0,1-.648-2.128A3.04,3.04,0,0,1-1.1-4.928,2.39,2.39,0,0,1,.772-5.656a2.4,2.4,0,0,1,1.884.728A3.052,3.052,0,0,1,3.3-2.808,3.083,3.083,0,0,1,2.656-.68,2.384,2.384,0,0,1,.772.056ZM.78-.84a1.253,1.253,0,0,0,1.08-.5,2.5,2.5,0,0,0,.376-1.464A2.462,2.462,0,0,0,1.86-4.26a1.265,1.265,0,0,0-1.088-.5A1.259,1.259,0,0,0-.3-4.26a2.442,2.442,0,0,0-.38,1.452A2.517,2.517,0,0,0-.308-1.34,1.239,1.239,0,0,0,.78-.84ZM7.052.016q-.44,0-.44-.16a.181.181,0,0,1,.012-.064.466.466,0,0,0,.02-.072L8.452-5.464q.056-.152.408-.152h.352q.36,0,.408.152L11.428-.28a.431.431,0,0,1,.024.136q0,.16-.384.16H10.82a.957.957,0,0,1-.268-.032.2.2,0,0,1-.14-.12l-.368-1.1H8l-.368,1.1A.206.206,0,0,1,7.5-.02a.629.629,0,0,1-.228.036Zm1.24-2.144H9.74l-.584-1.76a2.417,2.417,0,0,1-.068-.248q-.028-.128-.044-.248H9.012q-.024.12-.048.248a1.322,1.322,0,0,1-.072.248ZM12.924,0a.262.262,0,0,1-.3-.3V-5.384q0-.232.424-.232h.2q.424,0,.424.232V-.9h1.9q.208,0,.208.344v.208q0,.344-.208.344ZM19.74.016q-.424,0-.424-.232V-5.3a.258.258,0,0,1,.288-.3h1.664a3.22,3.22,0,0,1,.58.06,1.881,1.881,0,0,1,.616.232,1.292,1.292,0,0,1,.476.508,1.847,1.847,0,0,1,.184.888,1.845,1.845,0,0,1-.14.764,1.4,1.4,0,0,1-.36.5,1.7,1.7,0,0,1-.468.288,2.231,2.231,0,0,1-.464.136,2.209,2.209,0,0,1-.344.036h-.984V-.216q0,.232-.424.232ZM20.364-3.1h.9a1.142,1.142,0,0,0,.252-.032.7.7,0,0,0,.26-.12.673.673,0,0,0,.2-.248.932.932,0,0,0,.08-.416.775.775,0,0,0-.136-.5.705.705,0,0,0-.324-.232A1.149,1.149,0,0,0,21.22-4.7h-.856ZM26.6.056a2.532,2.532,0,0,1-1.68-.5,1.737,1.737,0,0,1-.592-1.4V-5.384q0-.232.424-.232h.2q.424,0,.424.232v3.5a.976.976,0,0,0,.156.544,1.03,1.03,0,0,0,.436.372A1.464,1.464,0,0,0,26.6-.84a1.458,1.458,0,0,0,.636-.132,1.063,1.063,0,0,0,.436-.372.958.958,0,0,0,.16-.544v-3.5q0-.232.424-.232h.192q.424,0,.424.232v3.536a1.732,1.732,0,0,1-.6,1.4A2.535,2.535,0,0,1,26.6.056ZM30.9,0a.262.262,0,0,1-.3-.3V-5.3a.262.262,0,0,1,.3-.3h2.8q.216,0,.216.344v.208q0,.344-.216.344H31.652v1.392h1.824q.216,0,.216.344v.208q0,.344-.216.344H31.652V-.9h2.056q.216,0,.216.344v.208q0,.344-.216.344Zm4.84,0a.262.262,0,0,1-.3-.3V-5.3a.262.262,0,0,1,.3-.3h1.528a2.1,2.1,0,0,1,1.416.392,1.307,1.307,0,0,1,.44,1.024,1.154,1.154,0,0,1-.12.516,1.474,1.474,0,0,1-.316.428,1.274,1.274,0,0,1-.436.272l.008.032a1.044,1.044,0,0,1,.272.1,1.88,1.88,0,0,1,.292.184,1.417,1.417,0,0,1,.268.268,1.337,1.337,0,0,1,.192.348,1.2,1.2,0,0,1,.072.424,1.459,1.459,0,0,1-.508,1.2A2.384,2.384,0,0,1,37.324,0Zm.752-.9h.92a.906.906,0,0,0,.64-.208.747.747,0,0,0,.224-.576.629.629,0,0,0-.256-.54,1.23,1.23,0,0,0-.736-.188h-.792Zm0-2.408h.688a.912.912,0,0,0,.632-.208.661.661,0,0,0,.232-.512.631.631,0,0,0-.208-.516,1.022,1.022,0,0,0-.656-.172h-.688ZM40.964,0a.262.262,0,0,1-.3-.3V-5.384q0-.232.424-.232h.2q.424,0,.424.232V-.9h1.9q.208,0,.208.344v.208q0,.344-.208.344Zm6.152.056A2.377,2.377,0,0,1,45.244-.68,3.071,3.071,0,0,1,44.6-2.808a3.04,3.04,0,0,1,.648-2.12,2.39,2.39,0,0,1,1.872-.728A2.4,2.4,0,0,1,49-4.928a3.052,3.052,0,0,1,.644,2.12A3.083,3.083,0,0,1,49-.68,2.384,2.384,0,0,1,47.116.056Zm.008-.9a1.253,1.253,0,0,0,1.08-.5,2.5,2.5,0,0,0,.376-1.464A2.462,2.462,0,0,0,48.2-4.26a1.265,1.265,0,0,0-1.088-.5,1.259,1.259,0,0,0-1.076.5,2.442,2.442,0,0,0-.38,1.452,2.517,2.517,0,0,0,.376,1.468A1.239,1.239,0,0,0,47.124-.84Z" transform="translate(643.926 51.392)" fill="#fff"/>
      </g>
    </g>
  </g>
</svg>
