<svg height="24" viewBox="0 0 53 24" width="53" xmlns="http://www.w3.org/2000/svg" xmlns:xlink="http://www.w3.org/1999/xlink"><defs><path d="M43.7389333,9.73299642 L41.9104838,5.44662034 L48.0548947,1.6664561 L53,1.6664561 L53,21.3708149 L47.4556693,21.3708149 L47.4556693,7.50010529 L43.7389333,9.73299642 Z M9.00822335,0.313750263 C2.44794491,0.835123184 1.2242771,1.89260897 0.428871652,6.56980417 C-0.142957217,10.1671634 -0.142957217,13.8303098 0.428871652,17.427669 C1.2242771,22.1057065 2.44794491,23.1627711 9.00822335,23.6854075 C11.3918752,23.8736576 13.972562,23.9667298 16.0660042,24 L16.0660042,20.9189303 C15.0731365,20.8839756 13.9652961,20.8178564 12.9258409,20.7083597 C9.26851455,20.318804 8.58551729,19.5308486 8.14357788,16.0454833 C7.82473549,13.3583479 7.82473549,10.6437578 8.14357788,7.95662245 C8.58551729,4.46746684 9.26851455,3.68035376 12.9258409,3.29248263 C13.9652961,3.18256475 15.0731365,3.11644557 16.0660042,3.08191198 L16.0660042,0 C13.9717072,0.0328490208 11.3914478,0.126342388 9.00822335,0.313750263 L9.00822335,0.313750263 Z M35.7246403,11.9995789 C35.7268559,10.1816907 35.5839458,8.36644606 35.2972068,6.57064645 C34.5018013,1.89260897 33.2781335,0.835123184 26.7174277,0.313750263 C24.3324936,0.126342388 21.7522342,0.0328490208 19.658792,0 L19.658792,3.07938513 C20.6508049,3.11433986 21.7586453,3.18045904 22.7972457,3.28995578 C26.4554269,3.67824805 27.1375693,4.46536113 27.5799361,7.9540956 C27.8996504,10.6411808 27.8996504,13.3558712 27.5799361,16.0429564 C27.1375693,19.5304275 26.4554269,20.3183828 22.7972457,20.7062539 C21.7586453,20.8170141 20.6508049,20.8831333 19.658792,20.9168246 L19.658792,23.9983154 C21.753089,23.9650453 24.3324936,23.871973 26.7161455,23.6833017 C33.2768513,23.16235 34.5005191,22.1036008 35.2959246,17.4259844 C35.5826513,15.6301834 35.7255613,13.8149397 35.7233321,11.997052 L35.7246403,11.9995789 Z" id="ct1-color-a"></path></defs><use fill="#ed1c24" fill-rule="evenodd" xlink:href="#ct1-color-a"></use></svg>