<svg height="24" version="1.1" viewBox="0 0 77 24" width="77" xmlns="http://www.w3.org/2000/svg" xmlns:xlink="http://www.w3.org/1999/xlink"><defs><linearGradient id="linearGradient-1" x1="50%" x2="50%" y1="0%" y2="100%"><stop offset="0%" stop-color="#59CBE8"></stop><stop offset="100%" stop-color="#0033A0"></stop></linearGradient><path d="M69.09278,13.2442934 L64.7349111,13.2442934 L64.7349111,13.1270836 L68.9725718,6.9956471 L69.09278,6.9956471 L69.09278,13.2459921 L69.09278,13.2442934 Z M69.09278,21.3695721 L74.6540146,21.3695721 L74.6540146,17.2621297 L77,17.2621297 L77,13.2442934 L74.6544424,13.2442934 L74.6544424,1.66684361 L68.3120682,1.66684361 L59.2322833,13.2442934 L59.2322833,17.2621297 L69.09278,17.2621297 L69.09278,21.3695721 L69.09278,21.3695721 Z M48.5619854,17.3517359 C49.312752,14.822805 58.0319123,13.4235057 58.0319123,7.11328166 C58.0319123,2.94680964 54.3033184,1.22008706 50.0951749,1.22008706 C47.3769544,1.24152619 44.7238676,2.04842254 42.4600277,3.54220193 L43.9324715,7.2924939 C45.6470429,6.34037584 47.4796836,5.65537743 49.2242001,5.65537743 C50.8758867,5.65537743 52.2593508,6.28007219 52.2593508,7.58934069 C52.2593508,11.7863892 42.6097532,11.6967831 42.6097532,19.6738507 C42.6067331,20.2412903 42.646917,20.8081451 42.7299614,21.3695721 L57.9707387,21.3695721 L57.9707387,17.3517359 L48.5619854,17.3517359 L48.5619854,17.3517359 Z M9.0344412,0.31383374 C11.4249165,0.125703366 14.0126017,0.0343985561 16.1121817,2.84217094e-14 L16.1121817,3.07930778 C15.1171485,3.11540503 14.0074683,3.18080476 12.9636673,3.29164455 C9.29581922,3.67979616 8.6109318,4.46671621 8.1668886,7.95455993 C7.8485587,10.6416947 7.8485587,13.3566066 8.1668886,16.0437414 C8.61135958,19.5303111 9.29581922,20.3189298 12.9636673,20.7070814 C14.0074683,20.8174965 15.1171485,20.8828963 16.1121817,20.9194182 L16.1121817,23.998726 C14.0126017,23.9660261 11.4253443,23.8713239 9.0344412,23.6848922 C2.45507292,23.1638178 1.2286068,22.104682 0.428644597,17.4277524 C-0.142881532,13.8313485 -0.142881532,10.1682268 0.428644597,6.57182291 C1.2286068,1.8948933 2.45507292,0.838730226 9.0344412,0.314683087 L9.0344412,0.31383374 Z M35.8289122,12 C35.8306083,13.8181379 35.6867035,15.6335331 35.3985431,17.4290264 C34.6007199,22.105956 33.373826,23.1650918 26.7944577,23.6844676 C24.4039824,23.8742966 21.8162972,23.9673001 19.717145,24 L19.717145,20.9189935 C20.7117504,20.884595 21.8218584,20.8170719 22.8639482,20.7066568 C26.5330797,20.3185051 27.2162559,19.5320098 27.6607269,16.0437414 C27.9812818,13.3573047 27.9812818,10.6426953 27.6607269,7.95625863 C27.2162559,4.46671621 26.5330797,3.67979616 22.8639482,3.29164455 C21.8218584,3.18122943 20.7117504,3.11582971 19.717145,3.07930778 L19.717145,0 C21.8162972,0.0331245355 24.4039824,0.12740206 26.7944577,0.31255972 C33.373826,0.834908164 34.6007199,1.89276993 35.3985431,6.56927487 C35.6866874,8.3647701 35.830592,10.180164 35.8289122,11.9983013 L35.8289122,12 Z" id="path-2"></path></defs><g fill="none" fill-rule="evenodd" id="Logo/Channels/CT24" stroke="none" stroke-width="1"><mask fill="white" id="mask-3"><use xlink:href="#path-2"></use></mask><use fill="url(#linearGradient-1)" id="Logo" xlink:href="#path-2"></use></g></svg>