<svg width="77" height="24" viewBox="0 0 77 24" xmlns="http://www.w3.org/2000/svg" xmlns:xlink="http://www.w3.org/1999/xlink"><defs><path d="M.428 6.571a34.631 34.631 0 000 10.858c.795 4.677 2.017 5.736 8.567 6.256 2.38.189 4.956.282 7.046.315v-3.08a45.834 45.834 0 01-3.135-.213c-3.65-.388-4.333-1.176-4.775-4.663a34.369 34.369 0 010-8.088c.442-3.49 1.124-4.276 4.775-4.665a46.382 46.382 0 013.135-.212V0c-2.09.033-4.666.127-7.046.313C2.445.836 1.223 1.893.428 6.57v.001zM26.674.313C24.294.126 21.718.033 19.63 0v3.08c.99.034 2.096.1 3.133.211 3.652.389 4.332 1.175 4.775 4.664.32 2.687.32 5.402 0 8.089-.441 3.487-1.123 4.275-4.775 4.663a45.53 45.53 0 01-3.133.213V24c2.09-.034 4.666-.128 7.045-.315 6.55-.521 7.772-1.58 8.567-6.256.57-3.597.57-7.262 0-10.858-.795-4.678-2.017-5.735-8.567-6.257zM76.667 14.88c-1.948.33-2.755.047-2.755-1.015V8.57h2.848V5.499h-2.848V2.475h-3.8L69.635 5.5l-1.9.237V8.57h1.9v5.764c0 4.416 3.967 4.701 7.364 3.544l-.333-3zM61.48 7.366L61.171 5.5h-4.039v12.616h4.276V10.98c1.259-1.629 2.47-2.15 4.846-1.866l.333-3.922c-2.328-.212-4.348.78-5.108 2.174zm-13.028-2.22a12.268 12.268 0 00-5.677 1.298l.332 2.977a13.438 13.438 0 014.634-.849c1.377 0 2.208.425 2.208 1.417v.402c-3.99-.898-8.005.26-8.005 4.158 0 2.315 1.782 3.922 4.062 3.922a5.7 5.7 0 003.943-1.394l.238 1.04h4.038V9.56c0-3.307-2.755-4.416-5.771-4.416h-.002zm1.498 9.26a3.05 3.05 0 01-2.09 1.016c-.855 0-1.52-.402-1.52-1.158 0-1.157 1.21-1.772 3.61-1.205v1.347z" id="a"/></defs><use fill="#A4A3B6" xlink:href="#a" fill-rule="evenodd"/></svg>