<?xml version="1.0" encoding="utf-8"?>
<!-- Generator: Adobe Illustrator 26.5.0, SVG Export Plug-In . SVG Version: 6.00 Build 0)  -->
<svg version="1.1" id="Layer_1" xmlns="http://www.w3.org/2000/svg" xmlns:xlink="http://www.w3.org/1999/xlink" x="0px" y="0px"
	 viewBox="0 0 1280 273.1" style="enable-background:new 0 0 1280 273.1;" xml:space="preserve">
<style type="text/css">
	.st0{fill:#FF0002;}
</style>
<g>
	<g>
		<path class="st0" d="M1165.8,146.5c10.5-6.9,22.6-16.3,23.8-35.1c0.5-12.9-2.3-19.6-8.3-28.5c-6.1-9.1-16.2-12.2-28.9-7.9
			c-9.6,3.3-12.6,10.7-13.2,18.7c-0.5,5.4,0.4,12.4,5.5,15.8c10.8,7.1,20.8-2.5,12.3-11.9c-5.1-5.7,2.8-13,8.9-4.7
			c5.1,6.9,6.1,19.8-4.8,25.2c-4.7,2.4-9.3,4-21.6,0.8c-10.6-2.7-20.7,4.7-23.4,12.6c-3.2,9.3-0.6,19.1,12.3,21.9
			C1142.3,156.6,1154.9,153.7,1165.8,146.5z"/>
		<path class="st0" d="M1076,100.2c1.5,10.6,6.2,21.4,11.5,27.7c5.5,6.5,14.6,7.1,17.2,2c5.5-10.9,9.2-13.8,15.8-17.6
			c5.5-3.1,8.5-4.3,6.2-13.5c-1.8-7.5-2.3-11.7-9.4-13.5c-9.1-2.4-8.7-3.2-21.6-4.3l-4.3,0.1C1078,81.5,1074,86.7,1076,100.2z"/>
		<path class="st0" d="M1080.9,42.9c-1.3,2.3-2.6,6-2.6,6c-8.7,25.6-1.3,21,15.2,21.5c9.8,0.3,14.5,1.2,24.8,3.7
			c3.4,0.9,9.4,1.9,12.9-1c2.8-2.4,2.9-3.3,4.7-6.2c4.9-8.2-3-19.9-6.4-25.6c-11.9-19.7-14.7-23.6-19.5-24c-4.8-0.3-6.2-0.2-14,5.7
			c-2.8,2.1-7,7-10.1,11.5C1084.5,36.5,1083.2,38.6,1080.9,42.9z"/>
		<path class="st0" d="M1195.9,5.6c-17.8-5.8-42.5-9.2-67.3,0.5l-0.5,0.2c-7,3.4-0.7,8.7,2.6,14.3c1.7,2.9,11,18.5,16.5,29
			c5.3,10.4,7.1,11.1,17.2,10.9c12-0.2,23.8-19.3,23.8-19.3c3.9-7.2,5.2-8.7,9.5-16.1C1205.5,11.4,1203.5,8.1,1195.9,5.6z"/>
		<path class="st0" d="M1237.7,29.9c-7.8-5.9-11.8-7.8-11.8-7.8c-10.2-5.7-10.6-0.4-16.4,7c-9.1,11.6-10.4,14.8-17,23.9
			c-4.2,5.8-7.7,9.1-4.3,13.8c1.4,1.9,2,2.6,7.8,11.5c5.6,8.7,4.3,15.3,17.4,11.8c22.5-6.1,31.1-11.3,39.3-20.7
			c5.6-6.4,3.5-18.5-3.8-28.6C1244.8,35.4,1240.1,31.7,1237.7,29.9z"/>
		<path class="st0" d="M1276.5,176.2c3.9-18.6-1-26.4-18.2-23.5c-22.4,3.7-41.5-1.2-54.5-8.7c-5.7-3.3-9.7-1.6-14.3,2.4
			c-2.5,2.2-5.9,4.5-8,7.3c-2.3,3.3-3.3,6.4,0.5,13.3c8.7,15.9,29.1,48.7,54.2,59.9c5.7,2.5,11.4,0.2,19.5-9.1
			c12-13.7,15.4-22,19.6-37.3L1276.5,176.2z"/>
		<path class="st0" d="M1279.3,125.3c1.4-7.1,0.6-15.4-1.5-22.3c-3.6-11.6-6-15.1-9.8-17.5c-5.4-3.6-12.2,0.4-15.5,2.3
			c-12.1,6.8-20.1,9.6-31.4,11.3c-15.1,2.3-16.2,1.9-17,10.9c-0.4,4.8-0.9,8.3-0.9,12.4c0.1,10,4.3,10.6,11.8,13.4
			c21.3,7.9,38,5.1,53,2C1276.7,135.9,1278.1,131.2,1279.3,125.3z"/>
		<path class="st0" d="M1163.7,271.2c14.7-2.4,21.1-4.1,35.8-10.6l3-1.5c14.5-7.5,13.1-18.1,3.7-29.6c-15.6-19-25.2-33.7-34.3-53.9
			c-5.7-12.6-4-11.8-14.1-10.1c-2.4,0.4-4.8,0.9-9.7,2.7c-6.7,2.5-3.2,15.1-4.2,27.5c-1.2,14.7-6.7,36.8-11.8,63.3
			C1128.8,275.9,1146.2,274.2,1163.7,271.2z"/>
		<path class="st0" d="M1065.4,264.2c18.6,6.9,37.8,0.5,43.3-11c13.8-29,19.2-42.7,21.5-71.7c0.9-12.1-8.2-14.9-23.7-21.5
			c-9.2-3.9-10.2-4.9-21.7-9c-8.5-3.1-10,0.3-21,8.6c-14.3,10.7-29,16.6-62.2,26.8c-22.1,6.8-16.4,14.5-5.7,26.9
			C1021.6,243.3,1046.9,257.3,1065.4,264.2z"/>
	</g>
	<g>
		<path class="st0" d="M0,58c0-9.3,4.7-14,14-14h50.7c14.3,0,27.2,2,38.8,6.1c11.6,4.1,21.5,10,29.7,17.7
			c8.1,7.7,14.4,17.2,18.8,28.5c4.4,11.3,6.6,24.1,6.6,38.3c0,14.3-2.2,27.1-6.6,38.5c-4.4,11.4-10.7,21-18.8,28.8
			c-8.1,7.8-18,13.8-29.7,18c-11.6,4.2-24.6,6.2-38.8,6.2H14c-9.3,0-14-4.7-14-14V58z M62.9,187.9c15.4,0,27.6-4.5,36.4-13.5
			c8.8-9,13.2-22.2,13.2-39.7c0-17.5-4.5-30.6-13.5-39.3c-9-8.7-21.1-13.1-36.2-13.1H44.6v105.7H62.9z"/>
		<path class="st0" d="M164.9,189.2c0-8.8,2.3-16.1,7-21.9c4.7-5.8,10.7-10.4,18-13.8c7.3-3.4,15.3-5.8,23.9-7.1
			c8.7-1.4,17.1-2,25.2-2h3.8V142c0-5.4-1.9-9.2-5.6-11.3c-3.7-2.1-8.1-3.2-13-3.2c-4.2,0-8.4,0.6-12.5,1.8
			c-4.1,1.2-7.8,2.5-11.2,4.1c-8.7,3.7-14.9,1.7-18.8-6.1l-3.1-6.4c-1.9-3.9-2.4-7.5-1.5-10.8c0.8-3.3,3.2-6,7.1-8
			c4.9-2.4,11.1-4.7,18.6-6.9c7.5-2.2,16-3.3,25.5-3.3c18.2,0,32.5,4.7,42.9,14.1c10.4,9.4,15.7,22.5,15.7,39.3v66.7
			c0,9.3-4.7,14-14,14h-12.2c-9.3,0-14-4.8-14-14.3v-1V209c0-0.3,0.1-0.6,0.3-0.8h-0.5c-2.5,3.9-5.7,7.4-9.4,10.4
			c-3.2,2.7-7.3,5.1-12.2,7.3c-4.9,2.1-10.6,3.2-17.1,3.2c-6.3,0-12.1-1-17.3-3.1c-5.3-2-9.8-4.8-13.5-8.4
			c-3.7-3.6-6.7-7.8-8.8-12.7C166,200,164.9,194.8,164.9,189.2z M208.5,185.1c0,3.1,1.1,5.7,3.2,7.9c2.1,2.2,5.2,3.3,9.3,3.3
			c3.2,0,6.2-0.7,8.9-2.2c2.7-1.4,5.1-3.3,7.1-5.5c2-2.2,3.6-4.7,4.7-7.4c1.1-2.7,1.7-5.4,1.7-8.1v-3.6h-4.1
			c-3.4,0-6.9,0.3-10.6,0.8c-3.7,0.5-7,1.4-9.9,2.5c-3,1.2-5.4,2.8-7.4,4.7C209.5,179.5,208.5,182,208.5,185.1z"/>
	</g>
	<path class="st0" d="M344.5,60c-1.7-4.9-1.5-8.8,0.5-11.7c2-2.9,5.7-4.3,11-4.3h19.1c8.3,0,13.6,3.9,15.8,11.7l28.5,91.9
		c0.8,2.9,1.7,6,2.5,9.4c0.8,3.4,1.6,6.5,2.3,9.4c0.7,3.4,1.4,6.9,2,10.4h0.5c0.7-3.6,1.4-7,2-10.4c0.7-2.9,1.4-6,2.3-9.4
		c0.8-3.4,1.7-6.5,2.5-9.4l29-91.9c2.2-7.8,7.5-11.7,15.8-11.7h18.3c5.3,0,8.9,1.4,11,4.3c2,2.9,2.2,6.8,0.5,11.7l-54.5,154.8
		c-2.7,7.5-8.1,11.2-16,11.2h-22.4c-8,0-13.3-3.7-16-11.2L344.5,60z"/>
	<path class="st0" d="M522,108.9c0-9.3,4.7-14,14-14h16c9.3,0,14,4.7,14,14v103.1c0,9.3-4.7,14-14,14h-16c-9.3,0-14-4.7-14-14V108.9
		z M536.5,78.4c-9.3,0-14-4.7-14-14V58c0-9.3,4.7-14,14-14h15c9.3,0,14,4.7,14,14v6.4c0,9.3-4.7,14-14,14H536.5z"/>
	<path class="st0" d="M584.9,108.9c0-9.3,4.7-14,14-14h14.3c9.2,0,13.8,4.7,13.8,14v2.3c0,0.3,0,0.7-0.1,1c-0.1,0.3-0.1,0.7-0.1,1
		v1.3h0.5c1.5-2.5,3.5-5.2,5.9-7.9c2.4-2.7,5.3-5.1,8.7-7.3c3.4-2.1,7.3-3.9,11.8-5.3c4.5-1.4,9.6-2.2,15.4-2.2
		c6.6,0,12.8,0.9,18.6,2.5c5.8,1.7,10.7,4.5,14.9,8.3c4.2,3.8,7.5,8.9,9.9,15.2c2.5,6.3,3.7,14,3.7,23.2v71.1c0,9.3-4.7,14-14,14
		h-16c-9.3,0-14-4.7-14-14v-62.9c0-6.1-1.2-10.5-3.6-13.2c-2.4-2.7-6-4.1-11-4.1c-4.9,0-9.2,0.9-12.7,2.8c-3.6,1.9-6.5,4.4-8.9,7.6
		c-2.4,3.2-4.1,7-5.2,11.2c-1.1,4.2-1.7,8.7-1.7,13.2v45.3c0,9.3-4.7,14-14,14h-16c-9.3,0-14-4.7-14-14V108.9z"/>
	<path class="st0" d="M728.6,160.4c0-8.8,1.6-17.4,4.8-25.6c3.2-8.2,7.9-15.5,14.1-21.9c6.2-6.4,13.8-11.5,22.9-15.3
		c9.1-3.8,19.5-5.7,31.2-5.7c10,0,18.5,1.2,25.5,3.7c7,2.5,12.6,5.2,16.8,8.1c3.6,2.4,5.6,5.3,6,8.6c0.4,3.3-0.6,6.9-2.9,10.6
		l-4.3,6.7c-2.4,3.9-5.1,6.1-8.1,6.5c-3.1,0.4-6.6-0.4-10.7-2.4c-2.5-1.4-5.4-2.5-8.7-3.4c-3.2-0.9-6.8-1.4-10.7-1.4
		c-5.3,0-9.8,0.9-13.8,2.7c-3.9,1.8-7.2,4.1-9.8,7.1c-2.6,2.9-4.6,6.3-5.9,10c-1.3,3.7-1.9,7.5-1.9,11.4c0,3.9,0.7,7.8,2,11.6
		c1.4,3.9,3.4,7.3,6.1,10.4c2.7,3,6.1,5.5,10.2,7.5c4.1,1.9,8.9,2.9,14.5,2.9c4.4,0,8.7-0.8,12.7-2.3c4.1-1.5,7.7-3.2,11-5.1
		c4.2-2.4,7.9-3.2,11.1-2.5c3.1,0.7,5.8,3.1,8,7.4l3.3,6.4c1.9,3.9,2.5,7.5,2,10.8c-0.5,3.2-2.5,6.1-5.9,8.5
		c-4.6,3.1-10.8,6.2-18.6,9.2c-7.8,3.1-17.2,4.6-28,4.6c-11.7,0-22.1-1.9-31.2-5.6c-9.1-3.7-16.7-8.8-22.9-15.2
		c-6.2-6.4-10.9-13.7-14.1-22C730.2,178,728.6,169.4,728.6,160.4z"/>
	<path class="st0" d="M866.8,108.9c0-9.3,4.7-14,14-14h16c9.3,0,14,4.7,14,14v103.1c0,9.3-4.7,14-14,14h-16c-9.3,0-14-4.7-14-14
		V108.9z M881.3,78.4c-9.3,0-14-4.7-14-14V58c0-9.3,4.7-14,14-14h15c9.3,0,14,4.7,14,14v6.4c0,9.3-4.7,14-14,14H881.3z"/>
</g>
</svg>
