<svg data-name="Capa 2" viewBox="0 0 1280 664" xmlns="http://www.w3.org/2000/svg"><g data-name="Layer 1"><path d="M0 0h1280v664H0V370.81c12.67-13.1 25.6-25.93 38.47-38.83-12.46-13.35-27.64-24.41-37.65-39.86-.63-20.25-.3-40.55-.82-60.81V0Zm41.63 41.63c-.06 76.46 0 152.92 0 229.38.18 1.41-.46 3.27.88 4.29 15.63 15.79 33.09 29.92 46.7 47.61 3.69 4.81 4.29 12.06.71 17.09-13.53 19.01-32.5 33.02-48.35 49.91.02 77.5.03 154.99.05 232.49h576.57c.03-77.83.1-155.67-.03-233.5.3-1.72-1.32-2.66-2.29-3.75-14.54-14.44-30.73-27.39-43.15-43.83-3.3-4.33-4.1-10.47-1.84-15.44 1.03-2.18 2.67-3.99 4.16-5.87 12.88-16.07 29.04-29.01 43.27-43.81-.12-78.19-.08-156.37-.12-234.56H41.62Zm803.82 73.55C805 175.3 762.73 234.17 722.37 294.35c-10.65 16.98-11.1 40.27.16 57.08 11.57 17.23 25.38 32.79 37.25 49.81 49.27-26.08 99.19-50.92 148.89-76.18-31.63-.33-63.26-.13-94.89-.16 47.84-70.62 98.1-139.55 146.48-209.79-38.27.03-76.54-.1-114.81.07Zm210.95-.02C987.07 213.27 918.12 311.66 849.11 410c-9.16 11.86-18.41 24.3-22.28 39.03-4.88 17.02-.33 35.89 10.26 49.83 13.05 17.05 26.52 33.76 39.63 50.76 57.21-28.31 114.28-56.92 170.63-86.9-36.32 0-72.65.03-108.98 0 81.44-115.98 162.25-232.4 244.74-347.63-42.24.04-84.48-.08-126.71.06Z"/><path d="M173.41 113.6c20.22-.29 40.45-.07 60.68-.12 17.78.36 36.82 4.72 49.83 17.64 8.65 8.72 15.26 19.74 18.04 31.76 1.56 8.91 1.8 18.02 1.36 27.05-.16 15.35.08 30.7-.13 46.05-.12 17.1-6.04 34.22-16.83 47.52-10.97 13.34-28.5 19.49-45.39 19.75-21 .2-42 .03-62.99.09-3.28-.13-6.83.16-9.79-1.5-2.7-2.01-3.11-5.68-3.11-8.8-.04-56.02.01-112.04-.02-168.06 0-3.05.17-6.34 2-8.91 1.42-2.01 4.11-2.21 6.35-2.47Zm35.47 36.64V265.9c8.85-.1 17.71.24 26.54-.21 6.57-.63 14.15-2.33 17.91-8.32 5.12-8.12 5.24-18.07 5.61-27.36.07-14.34.06-28.69 0-43.03-.24-8.55-.78-17.5-4.78-25.23-3.91-7.3-12.24-11.03-20.23-11.4-8.35-.26-16.71-.05-25.06-.11Zm202.92-36.6c10.05-.41 20.12-.05 30.18-.18 3.9.09 8.32-.49 11.59 2.13 2.5 1.69 3.22 4.82 4.21 7.48 18.53 56.44 37.21 112.83 55.65 169.29.59 2.55 2.2 5.31.81 7.89-1.25 2.73-4.62 3.14-7.27 3.15-9.64 0-19.28.02-28.91 0-3.66.14-6.13-3.22-7.03-6.4-3.32-11.02-6.76-22.01-10.17-33.01-21.21 0-42.43-.03-63.64.01-3.35 11.07-6.73 22.13-10.03 33.22-1.06 2.85-2.41 6.91-6.15 6.78-8.66.12-17.32-.01-25.98.06-2.78-.04-5.96.1-8.14-1.94-1.93-1.76-2.04-4.64-1.58-7.03 8.45-24.33 16.33-48.87 24.55-73.29 11.02-33.3 22.28-66.53 33.16-99.87.73-4.33 4.09-8.29 8.75-8.28Zm16.82 43.76c-7.27 23.89-14.56 47.76-21.81 71.66 14.55.02 29.1 0 43.66 0-7.29-23.89-14.52-47.79-21.85-71.66ZM168.46 361.47c2.35-1.93 5.62-1.69 8.48-1.81 37.67.02 75.34-.01 113.01.02 2.94.13 6.17 0 8.71 1.73 1.95 1.95 1.94 4.98 2.09 7.56.05 7.69.05 15.38 0 23.07.03 3.11-2.01 5.66-3.56 8.17-25.99 36.89-52.03 73.74-78.03 110.62 24.59.01 49.18 0 73.77 0 2.97.14 6.7-.18 8.66 2.57 2.42 2.55 2.33 6.3 2.4 9.59-.06 5.67.02 11.35-.04 17.03-.11 3.02-.18 6.31-1.94 8.91-2.15 1.96-5.32 1.79-8.03 1.91-38.64 0-77.27-.01-115.91 0-3.38-.12-7.13.2-10.11-1.69-2.47-2.29-2.83-5.95-2.85-9.13 0-7.03-.03-14.06 0-21.09-.09-2.64 1.1-5.07 2.58-7.17 26.13-37.34 52.31-74.66 78.4-112.03-23.38 0-46.76.02-70.13 0-2.81-.04-6.22-.28-7.9-2.9-1.61-2.62-1.5-5.86-1.63-8.82-.03-5.69-.03-11.37 0-17.06.09-3.21.18-6.7 2.02-9.47Zm193.25.28c3.45-1.82 7.53-1.35 11.31-1.49 6.12.09 12.25-.19 18.36.23 2.85.29 6.03.78 8.01 3.09 3.91 4.41 6.24 9.9 9.02 15.03 16.18 30.9 32.33 61.81 48.51 92.7.04-33.44 0-66.88.02-100.32.09-2.86.05-5.93 1.61-8.44 1.6-1.8 4.24-1.92 6.49-2.16 6.63-.26 13.28-.07 19.92-.12 3.12.11 6.49-.06 9.33 1.5 2.73 2.14 3.07 5.97 3.14 9.2 0 56.35-.01 112.7 0 169.05 0 3.28-.28 7.17-3.14 9.31-2.83 1.57-6.2 1.37-9.32 1.47-6.59-.07-13.19.17-19.78-.16-3.48-.36-7.45-1.06-9.67-4.05-2.6-3.58-4.49-7.61-6.55-11.5-16.63-32-33.26-63.99-49.9-95.98-.03 33.6.02 67.21-.02 100.82-.17 2.95-.18 6.45-2.39 8.69-4.18 2.17-9.11 1.34-13.64 1.55-6.53-.24-13.19.61-19.62-.77-4.15-.94-4.07-5.99-4.16-9.35 0-56.69-.04-113.39.01-170.08.19-2.8.07-6.29 2.46-8.22Z"/></g></svg>