<?xml version="1.0" encoding="UTF-8"?>
<svg id="Capa_2" xmlns="http://www.w3.org/2000/svg" xmlns:xlink="http://www.w3.org/1999/xlink" viewBox="0 0 196 67">
  <defs>
    <style>
      .cls-1 {
        fill: none;
      }

      .cls-2 {
        clip-path: url(#clippath-1);
      }

      .cls-3 {
        fill-rule: evenodd;
      }

      .cls-4 {
        clip-path: url(#clippath);
      }
    </style>
    <clipPath id="clippath">
      <rect class="cls-1" x="83.21" y="22.03" width="112.79" height="28.66"/>
    </clipPath>
    <clipPath id="clippath-1">
      <rect class="cls-1" x="83.21" y="22.03" width="112.79" height="28.66"/>
    </clipPath>
  </defs>
  <g id="Layer_1">
    <path d="M40.98,23.15l2.14-7.25,2.19,7.25h-4.33ZM51.65,29.48l-5.62-17.11c-.12-.38-.27-.62-.43-.74-.16-.11-.42-.18-.77-.18h-3.1c-.36,0-.62.06-.79.19-.17.12-.31.37-.41.73l-5.67,17.11c-.07.09-.11.27-.11.54,0,.41.25.62.75.62h2.33c.22,0,.39,0,.52-.03.13-.02.24-.06.32-.14s.15-.18.21-.32c.06-.15.13-.33.2-.57l.88-2.99h6.39l.91,2.94c.07.25.14.45.21.59.07.14.15.25.24.34.09.08.2.13.32.15.12.02.28.03.48.03h2.49c.5,0,.75-.2.75-.62,0-.13,0-.21-.01-.25-.01-.05-.04-.14-.09-.28M48.9,36.37h-1.79c-.46,0-.77.07-.92.2-.15.14-.23.41-.23.82v10.16l-5.3-10.18c-.21-.43-.42-.7-.63-.82s-.57-.18-1.08-.18h-1.66c-.46,0-.77.07-.92.2-.15.14-.23.41-.23.82v17.13c0,.42.07.69.21.82.14.13.45.2.91.2h1.82c.46,0,.77-.07.92-.2.15-.14.23-.41.23-.82v-10.18l5.3,10.21c.21.43.42.71.63.82.21.12.57.18,1.08.18h1.66c.46,0,.77-.07.92-.2.15-.14.23-.41.23-.82v-17.13c0-.41-.08-.69-.23-.82-.15-.13-.46-.2-.92-.2M57.78,34.74l4.62,4.65v23.41H4.17v-23.41l4.61-4.64c.68-.69.68-1.8,0-2.49l-4.61-4.64V4.2h58.23v23.41l-4.62,4.65c-.68.69-.68,1.8,0,2.49M66.57,0H0v29.63l3.85,3.87-3.85,3.87v29.63h66.57v-29.63l-3.85-3.87,3.85-3.87V0ZM29.6,51.56h-7.52l7.92-11.21c.12-.18.21-.32.24-.43.04-.11.05-.23.05-.38v-2.16c0-.41-.07-.69-.23-.82-.15-.13-.46-.2-.93-.2h-11.43c-.41,0-.68.08-.81.23-.13.15-.19.47-.19.96v1.62c0,.48.06.8.19.96.12.15.39.23.81.23h7.06l-7.81,11.21c-.2.25-.3.51-.3.75v2.21c0,.42.08.69.23.82.15.13.46.2.93.2h11.79c.41,0,.68-.08.81-.23.12-.15.19-.47.19-.96v-1.62c0-.48-.06-.8-.19-.95-.13-.15-.39-.23-.81-.23M26.1,22.98c0,.74-.05,1.35-.15,1.85-.1.49-.26.89-.48,1.2-.22.3-.51.52-.88.65-.37.13-.82.19-1.35.19h-2.19v-11.64h2.19c1.02,0,1.75.3,2.19.9.45.6.67,1.6.67,2.98v3.88ZM29.92,15.2c-.62-1.28-1.48-2.22-2.55-2.83-1.08-.61-2.44-.92-4.08-.92h-5.48c-.46,0-.77.07-.92.2-.15.14-.23.41-.23.82v17.14c0,.41.08.69.23.82.15.13.46.2.92.2h6.15c2.91,0,4.9-1.25,5.97-3.74.25-.57.42-1.15.52-1.74.1-.58.15-1.32.15-2.22v-3.64c0-1.02-.05-1.83-.15-2.43-.1-.59-.27-1.15-.52-1.67"/>
    <g class="cls-4">
      <g id="g6">
        <g class="cls-2">
          <g id="g4">
            <path id="path2" class="cls-3" d="M99.16,50.7l12.51-12.33h0c4.93-4.86,6.93-5.6,16.33-5.6h37.48l10.79-10.73h-49.69c-12.58,0-16.14,1.22-23.52,8.64l-19.85,20.02h15.95ZM128.22,34.48h35.65l-9.89,10.05h-25.58c-4.69,0-5.72.22-8.05,2.59l-3.52,3.58h-14.79l10.94-11.12c4.29-4.36,5.77-5.1,15.24-5.1ZM196,22.03l-28.27,28.66h-17.48l28.2-28.66h17.56ZM177.38,49.79c.59.61,1.33.91,2.22.91s1.62-.3,2.2-.9c.58-.6.87-1.34.87-2.23s-.29-1.63-.87-2.23c-.58-.61-1.32-.91-2.21-.91s-1.63.3-2.21.9c-.58.6-.88,1.34-.88,2.23s.29,1.63.88,2.23ZM177.75,45.69c.49-.51,1.1-.77,1.83-.77s1.34.26,1.83.77c.49.51.74,1.14.74,1.87s-.25,1.36-.74,1.87c-.49.51-1.1.76-1.83.76s-1.34-.26-1.83-.77c-.49-.51-.74-1.13-.74-1.87s.25-1.35.74-1.87ZM178.98,49.31v-1.23h0s.69,0,.69,0l.58,1.23h.71l-.64-1.32c.22-.1.37-.23.46-.4.09-.16.13-.42.13-.75s-.11-.59-.33-.76c-.22-.17-.56-.25-1-.25h-1.29v3.48h.68ZM178.97,47.54v-1.17h.56c.48,0,.73.19.73.59,0,.21-.05.36-.14.45-.09.09-.24.14-.46.14h-.69Z"/>
          </g>
        </g>
      </g>
    </g>
  </g>
</svg>