<svg xmlns="http://www.w3.org/2000/svg" viewBox="0 0 73 73" width="90" height="90">
  <g>
    <path d="M54.345,26.425A2.345,2.345,0,0,0,51.9,24.444H22.093a2.374,2.374,0,0,0-2.558,2.379v3.713a2.586,2.586,0,0,0,2.558,2.613H51.822c.023,0,.046,0,.07,0l.048,0A3.512,3.512,0,0,1,54.5,34.661V27.309A2.665,2.665,0,0,0,54.345,26.425Z" style="fill: #1a329a"/>
    <path d="M51.821,34.333H22.093a3.257,3.257,0,0,1-2.56-1.261v7.353a2.588,2.588,0,0,0,2.56,2.613H51.821A3.25,3.25,0,0,1,54.379,44.3V36.946A2.586,2.586,0,0,0,51.821,34.333Z" style="fill: #b655aa"/>
    <path d="M51.9,44.3H22.093a3.255,3.255,0,0,1-2.559-1.261v7.353a2.621,2.621,0,0,0,1.34,2.3A2.5,2.5,0,0,0,22.093,53H51.822a2.491,2.491,0,0,0,1.218-.316,2.619,2.619,0,0,0,1.339-2.3V46.683A2.351,2.351,0,0,0,51.9,44.3Z" style="fill: #45c8c2"/>
    <path d="M29.068,26.709a1.408,1.408,0,0,0-.974-.389H23.631v4.917h4.463a1.417,1.417,0,0,0,.994-.372,1.228,1.228,0,0,0,.409-.954V27.646A1.219,1.219,0,0,0,29.068,26.709Zm-.479,3.209q0,.441-.493.441H24.539V27.2H28.1a.5.5,0,0,1,.336.135.405.405,0,0,1,.157.314Z" style="fill: #fff"/>
    <rect x="30.363" y="26.319" width="0.907" height="4.918" style="fill: #fff"/>
    <path d="M33.233,27.334a.512.512,0,0,1,.339-.135h4.273V26.32H33.572a1.41,1.41,0,0,0-.974.389,1.219,1.219,0,0,0-.429.937v.245a1.215,1.215,0,0,0,.413.951,1.437,1.437,0,0,0,.99.367l2.854.009c.33,0,.495.147.495.439v.254a.4.4,0,0,1-.157.316.512.512,0,0,1-.338.132H32.153v.878h4.273a1.423,1.423,0,0,0,.974-.384,1.217,1.217,0,0,0,.429-.942v-.254a1.245,1.245,0,0,0-.421-.963,1.436,1.436,0,0,0-.982-.355l-2.854-.008q-.5,0-.5-.44v-.245A.4.4,0,0,1,33.233,27.334Z" style="fill: #fff"/>
    <path d="M39.718,27.334a.5.5,0,0,1,.338-.135H44.28v-.88H40.056a1.41,1.41,0,0,0-.973.389,1.223,1.223,0,0,0-.429.938V29.91a1.226,1.226,0,0,0,.412.955,1.423,1.423,0,0,0,.99.372H44.28v-.878H40.056c-.33,0-.5-.147-.5-.441V27.647A.4.4,0,0,1,39.718,27.334Z" style="fill: #fff"/>
    <path d="M50.491,26.709a1.4,1.4,0,0,0-.973-.389H46.491a1.406,1.406,0,0,0-.974.389,1.219,1.219,0,0,0-.429.937v2.265a1.227,1.227,0,0,0,.412.954,1.423,1.423,0,0,0,.991.372h3.027a1.423,1.423,0,0,0,.99-.372,1.223,1.223,0,0,0,.412-.954V27.646A1.219,1.219,0,0,0,50.491,26.709Zm-.478,3.209q0,.441-.495.441H46.491q-.495,0-.495-.441v-2.27a.405.405,0,0,1,.157-.314.506.506,0,0,1,.338-.135h3.027a.508.508,0,0,1,.338.135.405.405,0,0,1,.157.314Z" style="fill: #fff"/>
    <path d="M30.029,36.628a1.423,1.423,0,0,0-.994-.372H24.572v4.909h.907v-4.03h3.557q.493,0,.494.447v.263q0,.414-.5.414H25.752v.9h3.283a1.444,1.444,0,0,0,.994-.363,1.216,1.216,0,0,0,.408-.954v-.263A1.232,1.232,0,0,0,30.029,36.628Z" style="fill: #fff"/>
    <path d="M36.649,36.636a1.41,1.41,0,0,0-.973-.389H32.648a1.409,1.409,0,0,0-.973.389,1.221,1.221,0,0,0-.429.938v2.264a1.227,1.227,0,0,0,.412.955,1.427,1.427,0,0,0,.99.372h3.028a1.429,1.429,0,0,0,.99-.372,1.23,1.23,0,0,0,.412-.955V37.574A1.221,1.221,0,0,0,36.649,36.636Zm-.478,3.21c0,.293-.166.44-.495.44H32.648q-.5,0-.5-.44V37.575a.4.4,0,0,1,.157-.313.5.5,0,0,1,.338-.135h3.028a.5.5,0,0,1,.338.135.406.406,0,0,1,.157.313Z" style="fill: #fff"/>
    <path d="M39.346,40.286c-.33,0-.494-.146-.494-.44v-3.6h-.908v3.591a1.23,1.23,0,0,0,.412.955,1.427,1.427,0,0,0,.99.372H42.91v-.879Z" style="fill: #fff"/>
    <path d="M49.122,36.636a1.41,1.41,0,0,0-.973-.389H45.121a1.409,1.409,0,0,0-.973.389,1.221,1.221,0,0,0-.429.938v2.264a1.227,1.227,0,0,0,.412.955,1.427,1.427,0,0,0,.99.372h3.028a1.423,1.423,0,0,0,.989-.372,1.228,1.228,0,0,0,.413-.955V37.574A1.221,1.221,0,0,0,49.122,36.636Zm-.478,3.21c0,.293-.166.44-.495.44H45.121q-.5,0-.5-.44V37.575a.4.4,0,0,1,.157-.313.5.5,0,0,1,.338-.135h3.028a.5.5,0,0,1,.338.135.406.406,0,0,1,.157.313Z" style="fill: #fff"/>
    <path d="M29.419,46.615a1.426,1.426,0,0,0-1-.372h-.618a1.394,1.394,0,0,0-.982.364,1.245,1.245,0,0,0-.42.965L26.4,49.841q0,.441-.491.441-.507,0-.507-.441l.008-2.269a1.232,1.232,0,0,0-.413-.957A1.435,1.435,0,0,0,24,46.243h-.628a1.43,1.43,0,0,0-.992.372,1.223,1.223,0,0,0-.414.954V51.16h.908V47.569c0-.3.164-.448.494-.448h.627c.33,0,.5.15.5.448v2.265a1.225,1.225,0,0,0,.413.959,1.448,1.448,0,0,0,1,.367,1.431,1.431,0,0,0,.99-.371,1.228,1.228,0,0,0,.412-.955l.009-2.265c0-.3.165-.448.5-.448h.618c.33,0,.5.15.5.448V51.16h.907V47.569A1.232,1.232,0,0,0,29.419,46.615Z" style="fill: #fff"/>
    <path d="M35.75,46.243v3.6q0,.441-.495.441H32.227q-.495,0-.495-.441v-3.6h-.907v3.591a1.228,1.228,0,0,0,.412.954,1.429,1.429,0,0,0,.99.372h3.028a1.427,1.427,0,0,0,.99-.372,1.225,1.225,0,0,0,.412-.954V46.243Z" style="fill: #fff"/>
    <path d="M38.6,47.257a.511.511,0,0,1,.338-.135h4.274v-.879H38.942a1.409,1.409,0,0,0-.973.388,1.223,1.223,0,0,0-.429.938v.245a1.212,1.212,0,0,0,.413.951,1.436,1.436,0,0,0,.989.367l2.854.009q.5,0,.5.439v.254a.394.394,0,0,1-.158.316.51.51,0,0,1-.338.132H37.523v.878H41.8a1.419,1.419,0,0,0,.974-.384,1.217,1.217,0,0,0,.43-.942V49.58a1.244,1.244,0,0,0-.421-.963,1.437,1.437,0,0,0-.983-.355l-2.854-.008c-.33,0-.494-.147-.494-.44v-.245A.4.4,0,0,1,38.6,47.257Z" style="fill: #fff"/>
    <rect x="44.024" y="46.243" width="0.907" height="4.918" style="fill: #fff"/>
    <path d="M46.9,47.257a.509.509,0,0,1,.338-.136h4.224v-.878H47.233a1.407,1.407,0,0,0-.973.388,1.221,1.221,0,0,0-.429.938v2.265a1.228,1.228,0,0,0,.412.955,1.431,1.431,0,0,0,.99.371h4.224v-.878H47.233c-.331,0-.495-.147-.495-.441V47.57A.4.4,0,0,1,46.9,47.257Z" style="fill: #fff"/>
    <polygon points="21.973 23.078 21.324 20.102 19.412 22.44 16.448 22.152 18.027 24.737 16.845 27.535 19.733 26.795 21.967 28.812 22.172 25.77 24.735 24.218 21.973 23.078" style="fill: #b655aa"/>
    <path d="M22.4,22.71,21.587,19,19.2,21.913l-3.7-.359,1.971,3.226L16,28.272l3.605-.924,2.787,2.517.255-3.8,3.2-1.938Zm-.225,3.06-.205,3.042L19.733,26.8l-2.888.74,1.182-2.8-1.579-2.585,2.964.288L21.324,20.1l.649,2.976,2.762,1.14Z" style="fill: #fcfcfc"/>
  </g>
</svg>
