<?xml version="1.0" encoding="UTF-8"?><svg id="Layer_1" xmlns="http://www.w3.org/2000/svg" width="1407.759" height="593" viewBox="0 0 1407.759 593"><path d="M52.491,9.385C79.067,3.383,106.277-.298,133.559.019c47.992.145,95.421,10.209,141.001,24.68,29.078,9.502,57.684,20.591,85.275,33.811,21.307,10.563,42.134,22.114,62.272,34.754,14.154,9.529,27.799,19.793,41.5,29.957,23.166,18.696,45.027,39.215,63.514,62.617,10.862,13.691,21.126,28.062,28.343,44.057,2.584,5.803,6.011,11.207,8.169,17.218,7.707,17.762,10.418,37.465,9.23,56.723-1.07,17.4-7.335,34.065-15.713,49.216-7.263,14.045-17.481,26.303-28.352,37.682-12.812,12.567-28.389,21.951-44.474,29.703-51.727,24.037-110.336,31.644-166.796,25.197-15.604-1.714-30.946-5.114-46.26-8.487-.027,7.607-.299,15.768-4.506,22.405-2.992,4.443-8.505,5.984-13.546,6.546-7.453,1.106-15.74.408-21.824-4.443-5.93-4.561-8.596-11.978-9.937-19.086-1.55-8.586-2.412-17.282-3.346-25.959-18.569-8.568-36.703-18.179-53.704-29.577-14.317-9.194-27.246-20.301-40.131-31.363-13.301-12.195-26.113-25.533-34.3-41.808-3.971-7.807-5.34-17.118-2.53-25.542,3.427-11.724,13.428-19.848,23.239-26.312,15.087-9.765,31.988-16.257,49.062-21.643,10.717-3.436,21.516-6.673,32.487-9.212,9.085-2.113,18.497-2.584,27.455-5.214,1.188-12.114.199-24.336,1.868-36.413,2.221-18.696,3.382-37.682,8.668-55.844,1.034-3.21,1.886-6.646,4.053-9.312,2.376-2.53,6.429-1.968,9.094-.218,7.136,4.497,11.406,12.204,14.571,19.784,9.647,24.526,10.273,51.292,10.917,77.287,15.949-.227,31.961-.961,47.856.807,24,2.729,47.892,7.154,70.931,14.543,13.22,4.162,26.049,10.318,36.304,19.802,8.777,7.734,15.432,18.243,16.819,30.021,1.514,9.919-2.82,19.657-8.768,27.355-7.29,9.221-18.179,16.012-30.039,16.992-5.821.209-11.624-.852-17.264-2.203-2.738-.762-5.612-1.505-7.888-3.291-2.104-1.741-1.442-5.531,1.043-6.583,7.897-4.706,17.88-7.997,22.042-16.928,2.076-5.748-3.473-10.273-8.151-12.286-13.365-5.631-27.609-8.795-41.735-11.841-26.557-5.504-53.559-9.013-80.705-9.339.943,43.213,1.859,86.427,2.811,129.64,22.704,4.597,45.915,6.682,69.081,6.311,35.996-.471,72.699-4.742,106.039-19.068,16.783-7.444,33.095-16.801,45.915-30.13,21.788-22.314,30.075-56.605,21.307-86.472-4.869-16.919-13.138-32.668-22.622-47.42-17.019-26.43-39.732-48.708-64.276-68.129-32.333-25.388-68.129-46.196-105.558-63.115-64.285-28.516-133.43-47.067-203.844-50.512-15.387-.898-30.819-.653-46.205.227-13.863.934-27.899,1.986-41.246,6.129-3.717,1.142-7.897,1.641-10.844,4.425,6.991,3.464,15.396,1.523,22.414,4.969,2.775,1.269,5.177,3.654,5.848,6.71.653,2.521-1.052,5.068-3.255,6.184-3.917,2.04-8.46,2.312-12.794,2.457-7.789.082-15.695-.698-23.103-3.21-3.609-1.288-7.571-3.473-8.641-7.435-.571-4.697-.571-9.665,1.424-14.054,3.999-9.412,9.937-18.315,18.451-24.191,9.529-6.782,21.09-9.566,32.288-12.204ZM140.314,280.842c-11.107,2.648-22.459,5.241-32.532,10.835-3.4,2.022-7.489,4.86-7.245,9.348.163,5.957,4.579,10.536,8.351,14.689,6.238,6.147,12.467,12.34,19.195,17.953,15.296,12.059,31.925,22.368,49.043,31.644,13.102,7.235,27.101,12.639,41.2,17.59-.807-37.519-1.07-75.057-.254-112.576-26.113,1.75-52.235,4.533-77.759,10.518Z"/><path d="M593.99,58.773c15.505-9.448,32.75-16.357,50.839-18.633,11.887-1.505,24.39-1.342,35.679,3.11,7.19,3.146,14.099,7.571,18.823,13.963.716,1.052,1.768,1.822,3.074,1.958,12.358,1.832,24.227,8.623,31.027,19.267,5.35,8.469,6.41,19.14,4.153,28.779-2.765,11.841-9.303,22.595-17.708,31.272-12.848,13.056-27.056,24.934-43.05,33.947-13.356,7.498-27.691,13.546-42.814,16.312-8.197,1.487-16.656,2.466-24.925,1.016-6.8-1.242-14.063-1.369-20.192-4.923-3.491,4.806-5.023,11.143-10.119,14.652-2.811,2.094-6.882,2.738-9.856.598-6.429-4.434-10.191-12.032-11.18-19.648-.644-4.343.435-8.786-.526-13.084-1.904-6.175-7.163-10.491-9.647-16.375-3.717-8.632-5.658-18.207-4.361-27.591,1.623-13.202,8.224-25.288,16.547-35.47,9.575-11.642,21.398-21.317,34.237-29.15ZM610.656,83.481c-6.619,2.675-12.739,6.447-18.515,10.627-9.167,6.891-17.862,15.514-21.634,26.603-2.122,5.875-.916,12.331,2.158,17.635,14.199-22.16,32.641-41.364,53.124-57.793-5.087.716-10.327.979-15.133,2.929ZM666.127,94.624c-13.746,8.895-26.24,19.639-37.682,31.308-8.106,8.187-14.897,17.536-21.507,26.929,3.128,1.251,6.546,1.179,9.865,1.333,8.441.19,16.928-.073,25.279-1.46,18.007-2.983,35.207-10.5,49.796-21.453,6.673-5.141,13.011-11.125,16.892-18.723,2.747-5.44,3.98-12.041,1.75-17.871-2.811-7.154-11.107-11.071-18.497-10.255-9.221,1.541-18.125,4.969-25.895,10.191Z"/><path d="M968.43,189.347c2.965-2.602,7.362-1.732,10.608-.163,5.984,3.028,10.608,8.07,14.979,13.047,7.163,8.46,13.31,17.735,18.841,27.328,3.609,6.156,6.066,12.875,8.804,19.44,8.405,20.274,13.401,41.899,15.26,63.75,1.351,17.599.535,35.534-3.926,52.661-2.566,10.092-7.589,19.467-14.281,27.41-5.241,6.283-12.948,10.219-20.908,11.733-6.238,1.17-13.229.299-18.216-3.89-5.603-4.733-10.019-10.672-14.317-16.556-18.887-26.621-32.56-56.379-48.436-84.776-.943-1.913-2.457-3.455-4.47-4.189-1.424,2.657-1.541,5.712-1.859,8.641-2.194,26.249-2.094,52.607-3.545,78.892-.698,9.031-1.269,18.324-4.851,26.766-2.14,5.096-7.662,8.668-13.22,8.07-5.948-.879-11.996-3.436-15.505-8.55-6.32-8.931-8.051-20.147-8.904-30.81-1.351-24.898,1.877-49.823,6.746-74.204,3.391-16.52,7.752-32.868,13.501-48.726,2.348-6.338,4.552-12.948,8.886-18.252,2.521-3.164,6.483-5.549,10.672-4.851,6.619.743,11.715,5.694,15.523,10.79,5.993,8.251,11.796,16.629,17.626,24.989,16.574,23.574,31.753,48.073,47.819,71.974,1.859,2.502,3.5,5.93,6.891,6.51.354-.218,1.061-.644,1.414-.852.571-40.276-10.237-79.481-21.171-117.889-2.267-8.704-4.969-17.336-6.283-26.24-.499-4.044-.979-9.013,2.321-12.05Z"/><path d="M1283.409,213.982c2.629-1.786,6.61-1.242,8.314,1.56,2.321,3.835,1.741,8.605.943,12.803-2.802,13.528-9.638,25.732-16.556,37.528-7.988,13.483-16.52,26.82-21.797,41.672-3.627,10.246-6.936,20.709-7.77,31.608.027,3.391.617,6.746,1.115,10.11,10.88-14.888,21.679-29.849,33.095-44.329,10.998-13.963,23.71-26.439,36.141-39.106,9.611-9.448,19.267-19.195,31.181-25.75,6.519-3.663,13.555-7.326,21.253-7.109,8.668.163,16.266,5.54,21.824,11.823,9.475,11.089,13.99,25.542,15.976,39.777,1.433,17.082.671,34.591-4.824,50.957-4.379,13.936-11.887,26.748-21.035,38.072-11.37,13.936-25.796,25.116-41.264,34.155-21.117,12.295-45.598,19.857-70.215,17.799-6.719,18.95-12.313,38.272-17.336,57.739-9.384,34.482-15.024,69.834-23.465,104.542-.743,2.566-3.418,3.817-5.685,4.769-3.727,1.396-7.199-1.206-10.391-2.756-7.272-3.79-14.244-8.668-18.877-15.559-3.699-5.612-5.313-12.304-6.138-18.896-1.433-12.268-.118-24.644,1.596-36.812,2.702-19.358,5.984-38.671,10.989-57.584,5.649-21.579,13.437-42.524,21.407-63.333.798-2.557,2.276-4.969,2.593-7.625-7.045-15.613-10.899-32.868-9.774-50.032,1.106-18.46,6.719-36.395,14.553-53.06,9.937-20.963,23.202-40.212,37.991-58.038,4.887-5.44,9.783-11.161,16.157-14.924ZM1369.019,273.443c-10.744,9.285-19.603,20.491-28.28,31.662-12.558,16.176-22.813,33.938-34.282,50.866-4.062,5.703-7.761,11.669-10.844,17.953,12.594.889,24.889-3.473,36.014-8.994,12.522-6.02,23.901-14.625,32.206-25.841,10.545-14.244,17.536-31.88,16.42-49.814-.381-5.186-1.188-10.636-4.189-15.015-1.487-2.348-5.096-2.856-7.045-.816Z"/><path d="M763.271,215.632c20.337-1.46,40.919-1.088,61.03,2.493,11.216,2.067,22.395,5.159,32.424,10.69,2.548,1.351,5.014,3.808,4.651,6.936-.662,6.963-5.449,13.075-11.569,16.23-6.383,3.319-13.727,3.89-20.745,4.796-34.835,3.418-70.061,1.686-104.742,6.873-8.441,1.333-16.865,2.947-25.007,5.558-2.149.762-5.014,1.904-5.041,4.624,1.233,2.457,4.225,2.992,6.628,3.717,9.266,2.185,18.805,2.72,28.226,3.971,20.301,2.466,40.656,4.561,60.921,7.299,14.362,2.285,29.096,4.878,41.962,12.023,12.83,7.281,20.419,21.389,23.121,35.524,2.784,15.559.662,32.641-8.333,45.933-9.013,12.821-22.722,21.788-37.438,26.766-28.298,9.557-59.724,8.704-87.778-1.333-15.26-5.449-29.867-13.519-41.336-25.097-6.519-6.682-12.286-14.933-12.984-24.526-1.206-10.853,4.225-21.797,13.192-27.89,12.558-8.704,28.362-10.808,43.295-10.853,15.35.335,30.565,2.992,45.471,6.51,9.566,2.258,18.778,5.875,27.582,10.209,2.938,1.278,5.612,4.162,5.132,7.58-.753,3.572-3.935,5.894-6.873,7.698-7.127,4.08-15.196,6.156-23.193,7.77-7.816,1.596-16.012,1.324-23.62-1.142-12.621-4.062-24.272-10.853-37.247-13.873-6.274-1.414-13.147-1.469-19.068,1.278-4.216,1.904-7.489,6.22-7.381,10.953.58,3.926,3.872,6.728,7.072,8.704,12.014,6.429,25.913,8.215,39.378,7.743,26.603-.408,54.021-4.588,77.45-17.898,4.706-2.947,10.11-5.631,12.902-10.69,2.149-3.799,1.088-8.777-1.995-11.733-4.216-4.18-9.965-6.229-15.369-8.378-13.428-4.769-27.627-6.827-41.69-8.741-24.227-3.047-48.672-4.008-72.899-7.009-9.412-1.56-19.929-3.201-26.539-10.808-6.8-7.235-6.71-18.161-4.697-27.283,2.385-11.098,9.13-20.89,18.016-27.827,13.283-10.509,29.604-16.248,45.852-20.328,13.537-3.282,27.355-5.377,41.237-6.474Z"/><path d="M1152.644,219.685c11.352-.816,23.103-2.611,34.21.852,9.158,2.702,16.692,9.185,22.305,16.738,3.409,4.66,7.009,9.747,7.371,15.713.254,3.663-2.167,6.982-5.368,8.541-6.329,3.101-13.41,4.144-20.301,5.186-21.67,2.784-43.567,2.53-65.364,2.303-2.684,8.858-5.377,17.726-8.061,26.594,15.087-.136,30.175-.236,45.272-.354,5.096.1,10.835.009,14.933,3.554,4.271,3.663,5.05,9.674,5.195,14.979.018,4.107.109,8.732-2.611,12.114-2.502,2.938-6.592,3.645-10.246,3.763-10.581.435-21.181.49-31.762.762-11.134.308-22.341.027-33.367,1.886-4.733,12.277-8.813,24.807-12.277,37.51,9.303.689,18.379-1.768,27.509-3.11,14.462-2.321,28.942-4.533,43.413-6.773,5.123-.743,11.171-1.822,15.441,1.904,3.518,3.273,6.238,7.426,8.015,11.896,1.587,4.679,2.557,10.318-.363,14.707-3.3,4.905-8.423,8.142-13.102,11.597-16.085,10.998-33.784,19.684-52.362,25.551-10.3,3.037-21.108,5.54-31.898,4.443-8.133-1.505-16.683-3.427-23.175-8.877-2.811-2.267-5.603-4.597-8.07-7.235-4.615-6.184-8.024-13.265-9.937-20.745-2.521-10.037-1.696-20.6.508-30.61,2.013-10.137,8.206-18.814,10.772-28.761-.571-7.381-2.974-14.525-3.436-21.933-.254-4.969,3.309-9.375,7.798-11.143,3.146-1.614,6.809-1.315,10.101-2.394,3.491-2.539,4.688-7,6.238-10.826,2.738-7.571,5.486-15.142,8.233-22.713-8.151-2.113-16.584-3.745-24.073-7.743-5.957-3.155-10.944-9.013-11.579-15.885-.172-4.842,4.824-7.362,8.849-8.387,29.994-6.773,60.613-10.164,91.187-13.102Z"/><path d="M609.867,219.93c3.563-1.424,7.326.716,10.373,2.475,7.707,5.123,10.182,14.716,11.887,23.266,3.581,19.757,4.796,39.849,6.075,59.869,1.387,23.601,1.986,47.239,3.01,70.85.254,9.067.471,18.243-1.251,27.192-1.179,5.948-5.422,11.905-11.733,12.948-8.94,1.686-19.349,1.006-26.421-5.34-6.156-5.894-7.335-14.861-8.296-22.894-2.403-22.658-2.185-45.498-1.632-68.247.734-25.206,2.267-50.485,7.118-75.265,1.324-6.565,2.729-13.238,5.848-19.231,1.206-2.203,2.675-4.506,5.023-5.622Z"/><path d="M465.883,475.619c8.686-8.523,21.307-11.37,33.131-11.506,12.494-.299,26.04,1.251,36.105,9.348,7.798,6.12,11.479,16.212,11.334,25.932-7.453-.018-14.897,0-22.341-.009-.082-4.37-1.56-8.949-5.177-11.651-5.948-4.552-13.882-4.533-21.008-4.316-6.429.209-13.564,2.339-17.082,8.151-3.545,5.658-2.557,12.594-2.702,18.941.109,6.519-.798,13.718,3.083,19.431,3.844,5.721,11.18,7.444,17.681,7.544,7.018.154,14.825-.036,20.555-4.651,3.445-2.711,4.887-7.118,5.078-11.352,7.471.018,14.951,0,22.432.009-.027,8.55-2.747,17.363-8.922,23.493-7.825,7.906-19.186,10.944-30.003,11.597-12.023.626-24.807.036-35.47-6.147-6.855-3.89-12.159-10.364-14.589-17.862-3.219-9.448-1.886-19.567-2.167-29.359-.236-9.992,2.702-20.51,10.064-27.591Z"/><path d="M562.183,465.618c7.498-.027,14.997-.009,22.495-.009v34.854h38.589c0-11.624.009-23.239,0-34.854,7.498,0,15.006-.009,22.504,0-.009,30.021.009,60.033,0,90.053-7.507,0-15.006-.009-22.495,0-.009-12.549-.009-25.088-.009-37.628-12.866.009-25.732-.036-38.607.018.036,12.531.009,25.07.027,37.601-7.507.009-15.006.009-22.504,0v-90.035Z"/><path d="M690.799,465.609c9.339,0,18.678-.009,28.026.009,11.569,30.021,23.184,60.024,34.772,90.035-8.75.009-17.49,0-26.231.009-2.049-6.129-4.116-12.24-6.166-18.361-11.978,0-23.964-.009-35.942,0-2.04,6.12-4.116,12.231-6.156,18.352-7.698,0-15.396.018-23.094-.009,11.615-30.003,23.202-60.024,34.79-90.035ZM689.956,523.294c8.849.009,17.708.009,26.566,0-4.443-13.183-8.868-26.376-13.347-39.55-4.488,13.156-8.813,26.367-13.22,39.55Z"/><path d="M765.157,465.636c10.79-.063,21.589-.018,32.378-.018,11.778,20.183,23.574,40.357,35.361,60.54-.19-20.183-.453-40.366-.662-60.558,7.036.009,14.072,0,21.117.009-.009,30.012,0,60.033-.009,90.053-8.868-.009-17.735.009-26.594-.009-13.664-23.302-27.319-46.604-41.01-69.888.19,23.302.363,46.604.544,69.907-7.036-.027-14.072-.009-21.108-.009-.018-30.012.018-60.024-.018-90.026Z"/><path d="M972.973,465.609c24.218-.009,48.436,0,72.654-.009,0,5.894-.009,11.796,0,17.69h-50.159c.009,6.728,0,13.446.009,20.174,13.401,0,26.811.009,40.221-.009.009,4.597,0,9.185.009,13.782-13.419.018-26.838-.045-40.248.027.036,6.891,0,13.773.018,20.655,16.72.009,33.43,0,50.15.009-.009,5.912,0,11.823,0,17.735-24.218-.009-48.436,0-72.654,0v-90.053Z"/><path d="M869.047,555.663c-.009-30.021-.009-60.042,0-90.053,10.781-.018,21.552.036,32.333-.027,11.896,20.138,23.592,40.403,35.461,60.568-.263-20.183-.435-40.357-.707-60.531,7.045-.018,14.09-.009,21.144-.009.009,30.012-.009,60.024.009,90.035-8.868.036-17.735,0-26.594.018-13.691-23.275-27.319-46.586-41.019-69.861.136,23.284.381,46.559.517,69.843-7.045.027-14.099,0-21.144.018Z"/><path d="M1059.544,465.627c7.507-.045,15.006-.009,22.513-.018.009,24.1,0,48.209.009,72.309,17.354.009,34.718,0,52.081.009-.018,5.903-.009,11.814-.009,17.726-24.853.009-49.714,0-74.576.009-.009-30.012.027-60.024-.018-90.035Z"/></svg>