<?xml version="1.0" encoding="UTF-8"?>
<!-- Generator: Adobe Illustrator 15.0.0, SVG Export Plug-In . SVG Version: 6.00 Build 0)  -->
<!DOCTYPE svg PUBLIC "-//W3C//DTD SVG 1.1//EN" "http://www.w3.org/Graphics/SVG/1.1/DTD/svg11.dtd">
<svg version="1.1" id="Layer_1" xmlns="http://www.w3.org/2000/svg" xmlns:xlink="http://www.w3.org/1999/xlink" x="0px" y="0px" width="892.351px" height="205.407px" viewBox="0 0 892.351 205.407" enable-background="new 0 0 892.351 205.407" xml:space="preserve">
<path fill-rule="evenodd" clip-rule="evenodd" d="M0,205.186h88.227c62.359,0,100.578-36.208,100.578-103.454  C188.804,38.223,151.158,0,88.227,0H0V205.186z"/>
<polygon fill-rule="evenodd" clip-rule="evenodd" points="202.766,205.186 431.514,205.186 431.514,0 352.777,0 316.854,112.236   281.508,0 202.766,0 "/>
<polygon fill-rule="evenodd" clip-rule="evenodd" points="437.849,205.186 645.623,205.186 568.894,0 514.578,0 "/>
<polygon fill-rule="evenodd" clip-rule="evenodd" points="650.628,205.189 712.123,205.189 792.588,205.189 857.539,205.189   785.121,97.423 851.499,0.005 790.58,0.005 719.598,0.005 656.663,0.005 723.622,97.423 "/>
<path d="M875.817,188.897h0.174c0.74,0,1.135,0.322,1.135,0.914c0,0.615-0.344,0.887-1.159,0.887h-3.356  c-0.245,0-0.322,0.126-0.322,0.319v13.055v0.174c0,0.768-0.344,1.161-0.936,1.161c-0.594,0-0.914-0.37-0.914-1.161v-0.174v-13.055  c0-0.295-0.023-0.319-0.298-0.319h-3.379c-0.964,0-1.311-0.221-1.311-0.863c0-0.666,0.322-0.938,1.114-0.938H875.817z"/>
<path d="M885.654,202.148c-0.445,0-0.815-0.316-1.191-1.06l-3.426-6.935c0,0-0.112-0.246-0.184-0.246  c-0.091,0-0.064,0.146-0.064,0.368l-0.021,9.847v0.224c0,0.643-0.367,1.034-0.911,1.034c-0.567,0-0.893-0.392-0.893-1.039v-0.219  v-14.091c0-0.913,0.272-1.281,0.84-1.281c0.444,0,0.765,0.293,1.135,1.084l4.531,9.108c0,0,0.067,0.121,0.189,0.121  s0.184-0.121,0.184-0.121l4.511-9.058c0.396-0.842,0.714-1.135,1.159-1.135c0.567,0,0.839,0.368,0.839,1.207v14.165v0.219  c0,0.647-0.322,1.039-0.89,1.039c-0.544,0-0.911-0.392-0.911-1.034v-0.224l-0.024-9.847c0-0.222,0.029-0.368-0.062-0.368  c-0.074,0-0.186,0.246-0.186,0.246l-3.427,6.935C886.479,201.832,886.098,202.148,885.654,202.148"/>
<path fill-rule="evenodd" clip-rule="evenodd" d="M885.654,202.148c-0.445,0-0.815-0.316-1.191-1.06l-3.426-6.935  c0,0-0.112-0.246-0.184-0.246c-0.091,0-0.064,0.146-0.064,0.368l-0.021,9.847v0.224c0,0.643-0.367,1.034-0.911,1.034  c-0.567,0-0.893-0.392-0.893-1.039v-0.219v-14.091v-0.074c0-0.839,0.272-1.207,0.84-1.207c0.444,0,0.765,0.293,1.135,1.084  l0.026,0.051l4.505,9.058c0,0,0.067,0.121,0.189,0.121s0.184-0.121,0.184-0.121l4.511-9.058l0.023-0.051  c0.373-0.791,0.69-1.084,1.136-1.084c0.567,0,0.839,0.368,0.839,1.207v0.074v14.091v0.219c0,0.647-0.322,1.039-0.89,1.039  c-0.544,0-0.911-0.392-0.911-1.034v-0.224l-0.024-9.847c0-0.222,0.029-0.368-0.062-0.368c-0.074,0-0.186,0.246-0.186,0.246  l-3.427,6.935C886.479,201.832,886.098,202.148,885.654,202.148"/>
<path d="M875.817,188.897h0.174c0.74,0,1.135,0.322,1.135,0.914c0,0.615-0.344,0.887-1.159,0.887h-0.099h-3.258h-0.099  c-0.146,0-0.224,0.126-0.224,0.319v0.051v13.004v0.174c0,0.768-0.344,1.161-0.936,1.161c-0.594,0-0.914-0.37-0.914-1.161v-0.174  v-13.055v-0.047c0-0.248-0.023-0.272-0.298-0.272h-0.072h-3.307h-0.074c-0.89,0-1.236-0.221-1.236-0.863  c0-0.666,0.322-0.938,1.114-0.938h0.122H875.817z"/>
</svg>
