<?xml version="1.0" encoding="utf-8"?>
<!-- Generator: Adobe Illustrator 26.3.1, SVG Export Plug-In . SVG Version: 6.00 Build 0)  -->
<svg version="1.1" id="Layer_1" xmlns="http://www.w3.org/2000/svg" xmlns:xlink="http://www.w3.org/1999/xlink" x="0px" y="0px"
	 viewBox="0 0 1947.7 500" style="enable-background:new 0 0 1947.7 500;" xml:space="preserve">
<style type="text/css">
	.st0{fill:#FABA4D;}
</style>
<g>
	<path class="st0" d="M803.2,400.4l-9.5-53.3c-20.5,30.9-47.9,51.4-83.3,51.4c-53.8,0-86.3-41.4-86.3-116.2
		c0-90.8,49.4-138.6,133.6-138.6c11,0,22.9,1,34.9,2.5V86.3l-33.9-24.4l0.5-1L882,23.5v325.6l31.4,24.4v1L803.2,400.4z M763.8,354.1
		c12,0,21.4-4.5,28.9-12v-1v-163c-6.5-18.9-18.9-26.4-32.4-26.4c-25.9,0-45.4,35.4-45.4,111.2C715,332.1,730.9,354.1,763.8,354.1"/>
	<path class="st0" d="M925.9,273.3c0-84.8,49.4-130.1,135.1-130.1c87.3,0,126.6,40.9,126.6,125.2s-47.9,130.1-134.1,130.1
		C965.8,398.4,925.9,357.1,925.9,273.3 M1056,388.5c22.9,0,40.9-34.4,40.9-118.2c0-84.3-15-117.7-38.4-117.7
		c-23.4,0-41.4,34.4-41.4,117.7C1017.1,355.1,1032.6,388.5,1056,388.5"/>
	<path class="st0" d="M1350.2,391.5h-142.1v-1l26.4-25.4V200l-31.9-24.9v-1l119.7-34.4l-1,57.3c19.9-30.9,46.9-53.9,86.8-53.9
		c40.4,0,62.8,17.5,70.3,54.3c20.4-30.9,47.4-54.3,87.3-54.3c50.9,0,73.8,27.9,73.8,86.3V365l25.9,25.4v1h-141.6v-1l26.4-25.4V239.4
		c0-39.4-12-51.9-36.9-51.9c-13.9,0-25.4,5-33.9,14.5c1.5,8,2,17.4,2,27.4V365l26.4,25.4v1h-141.6v-1l25.9-25.4V239.4
		c0-39.4-11.5-51.9-36.9-51.9c-12,0-22.4,4-31.4,12.5v165l26.4,25.4V391.5z"/>
	<path class="st0" d="M1813.4,343.1c-15,33.4-35.9,55.3-75.3,55.3c-39.9,0-60.8-24.9-60.8-63.8c0-48.9,28.9-69.3,95.2-73.8l37.4-2.5
		v-16c0-29.9-11.5-40.4-42.4-40.4c-27.4,0-55.8,10-74.8,26.9l-0.5-1c12.5-52.4,51.9-84.8,108.2-84.8c65.8,0,98.7,29.4,98.7,92.2
		v93.2c0,22.4,10.5,30.4,34.9,30.4v1.5c-11,21.9-32.9,37.9-64.3,37.9c-40.9,0-56.4-19.9-56.4-50.4V343.1z M1785,351.1
		c11,0,18.9-4,24.9-11v-75.8l-13.5,2.5c-25.4,5-35.9,20.9-35.9,51.9C1760.6,341.1,1769.5,351.1,1785,351.1"/>
	<path class="st0" d="M121,119.4c1.1-1.6,2.3-3.2,3.8-4.5c0,0,0.1-0.1,0.1-0.1c0.1-0.1,0.2-0.2,0.3-0.3c0.1-0.1,0.2-0.2,0.3-0.3
		c0,0,0.1-0.1,0.1-0.1c2.3-2,4.8-3.6,7.5-4.7c0.1,0,0.2-0.1,0.4-0.1c0.1,0,0.1-0.1,0.2-0.1c3.3-1.3,6.7-1.9,10.2-1.9c0,0,0,0,0.1,0
		c0.2,0,0.3,0,0.5,0c0.1,0,0.2,0,0.3,0c0.1,0,0.2,0,0.3,0c0.2,0,0.3,0,0.5,0c0,0,0.1,0,0.1,0c3.4,0.2,6.8,1.1,10,2.7
		c0.1,0,0.1,0.1,0.2,0.1c0.1,0,0.2,0.1,0.3,0.2c2.6,1.3,5,3.1,7.1,5.3c0,0,0.1,0.1,0.1,0.1c0.1,0.1,0.2,0.2,0.3,0.3
		c0.1,0.1,0.2,0.2,0.3,0.3c0,0,0.1,0.1,0.1,0.1c1.3,1.5,2.5,3.1,3.4,4.8l92.3,159.7c30-29.3,66.7-50.9,110.7-50.7
		c48.4-0.3,92,27.1,125.1,61.8c2.4-13.7,3.6-27.7,3.6-42c0-134.1-108.7-242.8-242.8-242.8C122.3,7.2,13.6,115.9,13.6,250
		c0,8.1,0.4,16.2,1.2,24.1L121,119.4z"/>
	<path class="st0" d="M477.1,348.1c-0.1-0.1-0.2-0.2-0.3-0.4l-2-2.6c-18.9-23.5-43.2-45.2-71.1-56.3c-12.2-4.7-23.9-6.7-36.4-6
		c-38.6,2-67.7,31.4-90.8,60.5c-1.5,2-3.3,3.8-5.4,5.4c-15.2,11.8-34.8,3.6-41.4-11l-88.1-152.4l-109.1,159
		c36.8,87.3,123.1,148.5,223.8,148.5c98.7,0,183.7-58.9,221.6-143.5C477.7,348.9,477.4,348.5,477.1,348.1"/>
</g>
</svg>
