<svg xmlns="http://www.w3.org/2000/svg" viewBox="0 0 1395.54 986.77"><defs><style>.cls-1{fill:#ff6c14;}</style></defs><g id="duo"><path class="cls-1" d="M1239.08,273.17a318.72,318.72,0,0,0-533.79-28.43,320.26,320.26,0,0,0-196.82,96.15l.28,97.13c-14.14,16.55-47.24,32.3-77.94,32.3C393.17,470.32,382,453,382,419.6V349.93H336.05l-.54,87c.54,57.93,39.77,72.88,81.68,72.88,2.25,0,4.46-.05,6.66-.13A318.79,318.79,0,0,0,996.08,749.38a318.77,318.77,0,0,0,243-476.21ZM973.78,635.81c-85.72,0-154.56-23.91-207-63.91-4.75,5.37-9.72,10.63-14.91,15.72L707,640.1l-.25.3a67.15,67.15,0,0,0,51.79,109.33L951.83,751l0,.06,7.89.08h.59a291.78,291.78,0,0,1-508.4-245,140.22,140.22,0,0,0,56.81-26.47v27.5H554.4V349.93H537.75c5.1-4.81,10.38-9.48,15.86-13.95a291,291,0,0,1,141.31-62.72l18.46-1.56a138.05,138.05,0,0,1,82.79,19.43l8.48-52.33h341.56v82.91H888.67l-13.18,82.92c39-23.61,84.56-35.69,136.18-35.69,87.31,0,174.62,41.18,174.62,131.78C1186.29,573.21,1123.69,635.81,973.78,635.81Z"/><path class="cls-1" d="M969.94,448.56c-37.34,0-78.53,6.59-118.06,23.61l-23.37-8.8a253,253,0,0,1-13,34.1C845.29,521.23,903,548,973.78,548c58.21,0,98.29-12.08,98.29-48.32S1032,448.56,969.94,448.56Z"/><path class="cls-1" d="M268.77,374.49c-17.08-17.88-44.58-27.23-78.48-27.23-50.45,0-93.69,21.36-93.69,81.42s43.24,81.15,93.69,81.15c33.9,0,61.4-9.34,78.48-27.23v24.56h45.65V293.61H268.77Zm-63.26,97.17c-40.84,0-63-12-63-43,0-31.23,22.16-43.24,63-43.24s63.26,12,63.26,43.24C268.77,459.64,246.35,471.66,205.51,471.66Z"/><path class="cls-1" d="M680.67,347.26c-65.14,0-108.91,23.49-108.91,81.42,0,57.66,43.77,81.15,108.91,81.15,64.86,0,108.91-23.49,108.91-81.15C789.58,370.75,745.53,347.26,680.67,347.26Zm0,124.4c-42.45,0-63.27-10.41-63.27-43,0-32.83,20.82-43.24,63.27-43.24,42.17,0,63,10.41,63,43.24C743.66,461.25,722.84,471.66,680.67,471.66Z"/></g></svg>