<svg id="Layer_1" data-name="Layer 1" xmlns="http://www.w3.org/2000/svg" viewBox="0 0 1257.93 397.54"><defs><style>.cls-1{fill:#ffd101;}.cls-2{fill:#d62828;}.cls-3{fill:#003f88;}</style></defs><rect class="cls-1" x="56.14" y="56.09" width="290.32" height="290.32"/><path class="cls-2" d="M371.81,278.61V56.09h99.42c70.06,0,122.1,40,122.1,111.1s-52,111.42-121.77,111.42ZM524.94,167.19c0-30-17.35-52.38-53.38-52.38H439.2V219.9h32C504.93,219.9,524.94,195.21,524.94,167.19Z"/><path class="cls-2" d="M586.12,278.61V225.24L685.3,114.81H586.12V56.09H789.56v53.05L690,219.9h102.3v58.71Z"/><path class="cls-2" d="M925.56,278.62l-30.69-70.06H870.52v70.06H803.13V56.1H921.89c52.05,0,80.07,34.69,80.07,76.4,0,38.36-22.35,58.71-40,67.39l40.36,78.73Zm8-146.46c0-12-10.68-17.35-22-17.35h-41v35h41C922.89,149.84,933.57,144.51,933.57,132.16Z"/><path class="cls-2" d="M1156.21,278.62V193.55h-79.73v85.07h-67.39V56.1h67.39v78.73h79.73V56.1h67.39V278.62Z"/><polygon class="cls-3" points="371.81 303.96 371.81 346.42 1224.07 346.42 1224.07 303.96 1161.68 303.96 434.2 303.96 371.81 303.96"/></svg>