<svg xmlns="http://www.w3.org/2000/svg" width="1000.002" height="286" viewBox="0 0 1000.002 286">
  <path id="Union_1" data-name="Union 1" d="M-3370.012-5566.634a128.629,128.629,0,0,1-24.164-7.472,125.224,125.224,0,0,1-21.586-11.677,117.779,117.779,0,0,1-18.309-15.261c-18.812-19.277-28.844-43.307-28.258-67.665a88.176,88.176,0,0,1,7.285-37.012,99.731,99.731,0,0,1,9.176-16.746,109.534,109.534,0,0,1,12.3-15.038,118.2,118.2,0,0,1,18.047-15.1,123.747,123.747,0,0,1,21.18-11.575,125.86,125.86,0,0,1,23.648-7.409,125.34,125.34,0,0,1,25.445-2.615h0c.766,0,1.543.008,2.309.023a141.145,141.145,0,0,1,22.543,1.817,139.118,139.118,0,0,1,21.7,5.326,132.158,132.158,0,0,1,20.2,8.617,120.943,120.943,0,0,1,18.1,11.724,109.068,109.068,0,0,1,15.379,14.639,98.479,98.479,0,0,1,12,17.359,93.306,93.306,0,0,1,11.23,41.943l0,.1a106.016,106.016,0,0,1-1.422,18.332l-.473,2.642H-3407.34a47.574,47.574,0,0,0,6.02,15.464,52.325,52.325,0,0,0,13.836,14.932,65.825,65.825,0,0,0,19.891,9.813,84.3,84.3,0,0,0,24.625,3.533,86.531,86.531,0,0,0,29.434-4.795,68.853,68.853,0,0,0,23.273-14.1l.93-.856,60.309.446-2.8,4.787c-10.234,17.472-25.848,32.178-45.152,42.518a137.247,137.247,0,0,1-64.59,15.928c-.8.016-1.578.02-2.379.02A130.2,130.2,0,0,1-3370.012-5566.634Zm5.027-160.361a68,68,0,0,0-19.32,9.148,60.686,60.686,0,0,0-22.289,28.165h129.023a59.942,59.942,0,0,0-7.809-13.693,65.25,65.25,0,0,0-14.832-14.182,70.414,70.414,0,0,0-19.152-9.34,74.339,74.339,0,0,0-22.234-3.365A82.292,82.292,0,0,0-3364.984-5726.995Zm-236.809,162.975c-.766.016-1.535.02-2.3.02a127.647,127.647,0,0,1-25.961-2.677,129.319,129.319,0,0,1-24.23-7.6,127.916,127.916,0,0,1-21.742-11.845,120.615,120.615,0,0,1-18.508-15.459c-18.93-19.4-29.027-43.378-28.449-67.525-.578-24.151,9.52-48.125,28.449-67.528a120.613,120.613,0,0,1,18.512-15.46,128.056,128.056,0,0,1,21.742-11.849,129.708,129.708,0,0,1,24.227-7.589,127.6,127.6,0,0,1,25.953-2.677c.777,0,1.566.008,2.336.023a111.082,111.082,0,0,1,41.75,7.781,98.258,98.258,0,0,1,27.262,16.522V-5850h51.688v180.857c.594,24.284-9.52,48.356-28.48,67.794a119.739,119.739,0,0,1-18.4,15.366,126.512,126.512,0,0,1-21.609,11.779,128.891,128.891,0,0,1-24.1,7.542A127.277,127.277,0,0,1-3599.5-5564C-3600.258-5564-3601.031-5564-3601.793-5564.02Zm-27.691-161.435a69.663,69.663,0,0,0-22.2,13.1,59.907,59.907,0,0,0-14.723,19.4,55.387,55.387,0,0,0-5.34,23.85,55.358,55.358,0,0,0,5.34,23.846,59.885,59.885,0,0,0,14.723,19.407,69.663,69.663,0,0,0,22.2,13.1,80.119,80.119,0,0,0,27.691,4.807,80.081,80.081,0,0,0,27.688-4.807,69.639,69.639,0,0,0,22.207-13.1,59.952,59.952,0,0,0,14.727-19.407,55.411,55.411,0,0,0,5.336-23.846,55.44,55.44,0,0,0-5.336-23.85,59.974,59.974,0,0,0-14.727-19.4,69.639,69.639,0,0,0-22.207-13.1,80.081,80.081,0,0,0-27.687-4.807A80.119,80.119,0,0,0-3629.484-5725.455Zm-258.172,158.821a128.705,128.705,0,0,1-24.172-7.472,125.333,125.333,0,0,1-21.582-11.677,117.779,117.779,0,0,1-18.309-15.261c-18.809-19.277-28.844-43.307-28.258-67.665a88.115,88.115,0,0,1,7.285-37.012,99.731,99.731,0,0,1,9.176-16.746,109.534,109.534,0,0,1,12.3-15.038,118.2,118.2,0,0,1,18.047-15.1,123.894,123.894,0,0,1,21.18-11.575,125.77,125.77,0,0,1,23.648-7.409,125.34,125.34,0,0,1,25.445-2.615h0c.766,0,1.543.008,2.309.023a141.194,141.194,0,0,1,22.547,1.817,139.179,139.179,0,0,1,21.691,5.326,132.158,132.158,0,0,1,20.2,8.617,121.181,121.181,0,0,1,18.105,11.724,109.249,109.249,0,0,1,15.375,14.639,98.479,98.479,0,0,1,12,17.359,93.256,93.256,0,0,1,11.23,41.943l0,.1a105.63,105.63,0,0,1-1.422,18.332l-.469,2.642h-183.668a47.5,47.5,0,0,0,6.023,15.464,52.214,52.214,0,0,0,13.836,14.932,65.871,65.871,0,0,0,19.883,9.813,84.343,84.343,0,0,0,24.629,3.533,86.531,86.531,0,0,0,29.434-4.795,68.8,68.8,0,0,0,23.27-14.1l.93-.856,60.313.446-2.8,4.787c-10.234,17.472-25.848,32.178-45.156,42.518a137.215,137.215,0,0,1-64.582,15.928c-.8.016-1.582.02-2.383.02A130.076,130.076,0,0,1-3887.656-5566.634Zm5.023-160.361a68.052,68.052,0,0,0-19.32,9.148,60.686,60.686,0,0,0-22.289,28.165h129.023a59.942,59.942,0,0,0-7.809-13.693,65.188,65.188,0,0,0-14.836-14.182,70.335,70.335,0,0,0-19.148-9.34,74.339,74.339,0,0,0-22.234-3.365A82.312,82.312,0,0,0-3882.633-5726.995Zm849.23,159.146V-5673.2c-1.551-64.832-115.895-67.169-115.891,0v105.349h-53.148l.332-105.349c1.105-129.571,219.613-130.055,222.109,0v105.349Z" transform="translate(3980.002 5850)" fill="#fe2638"/>
</svg>
