<svg version="1.2" xmlns="http://www.w3.org/2000/svg" viewBox="0 0 239 60" width="239" height="60"><style>.a{fill:#000}.b{fill:#00adee}</style><path fill-rule="evenodd" class="a" d="m126.1 31.2c0 11.4-9.2 20.6-20.6 20.6-11.3 0-20.5-9.2-20.5-20.6 0-11.4 9.2-20.7 20.5-20.7 11.4 0 20.6 9.3 20.6 20.7zm-10.1 0c0-5.8-4.7-10.5-10.5-10.5-5.8 0-10.5 4.7-10.5 10.5 0 5.8 4.7 10.5 10.5 10.5 5.8 0 10.5-4.7 10.5-10.5z"/><path class="a" d="m15.7 31.1v-19.3h14.2 14.2v4.7 4.7h-8.9-9v2.7 2.6h8.4 8.3v4.4 4.3h-8.3-8.4v2.9 3h9.2 9.1v4.6 4.6h-14.4-14.4z"/><path class="a" d="m49.9 31.1v-19.3h5.2 5.3v7.8 7.8l6.6-7.8 6.5-7.8h6.2c4.9 0 6.1 0 6.1 0.1-0.1 0-3.3 3.8-7.2 8.5-6.7 7.9-7.2 8.5-7.1 8.6 0.1 0.1 14.3 20.6 14.6 21.1l0.3 0.2h-6.3-6.2l-4.8-7c-2.6-3.9-4.8-7.1-4.8-7.2-0.1-0.1-0.3 0.1-2 2.1l-1.9 2.2v5 4.9h-5.3-5.2z"/><path class="a" d="m131.6 31.1v-19.3h5.2 5.3v14.5 14.5h7.3 7.3v4.8 4.7h-12.6-12.5z"/><path class="b" d="m195.5 32.1l-10.6-20.3h5.7 5.6l5 9.8c2.7 5.4 5 9.8 5 9.8 0-0.1 2.3-4.5 5-9.8l5-9.8h5.7c3.1 0 5.6 0 5.6 0-0.1 0.2-21.3 40.6-21.3 40.6 0 0-4.8-9.2-10.7-20.3z"/><path class="b" d="m164.1 35.8v-14.5h-5.2-5.2v-4.8-4.7h15.5 15.5v4.7 4.8h-5.1-5.1v14.5 14.5h-5.2-5.2z"/></svg>