<?xml version="1.0" encoding="UTF-8"?> <!-- Generator: Adobe Illustrator 22.0.1, SVG Export Plug-In . SVG Version: 6.00 Build 0) --> <svg xmlns="http://www.w3.org/2000/svg" xmlns:xlink="http://www.w3.org/1999/xlink" id="Layer_1" x="0px" y="0px" viewBox="0 0 569.7 96.2" style="enable-background:new 0 0 569.7 96.2;" xml:space="preserve"> <style type="text/css"> .st0{fill:#000000;} </style> <g id="Layer_1_1_"> </g> <g id="Layer_2_1_"> <g> <circle class="st0" cx="456.1" cy="72.5" r="9.9"></circle> </g> <g> <path class="st0" d="M54.6,60.5l-35.5-0.1c0.3,2.8,1.1,5,2.3,6.4c1.7,2,3.9,3,6.7,3c1.7,0,3.4-0.4,5-1.3c1-0.6,2-1.5,3.1-2.9 l17.4,1.6c-2.7,4.6-5.9,7.9-9.7,10c-3.8,2-9.2,3-16.2,3c-6.1,0-10.9-0.9-14.4-2.6c-3.5-1.7-6.4-4.5-8.7-8.2 c-2.3-3.8-3.4-8.2-3.4-13.2c0-7.2,2.3-13,7-17.5c4.6-4.4,11-6.7,19.1-6.6c6.6,0,11.8,1,15.6,3s6.7,4.9,8.7,8.7c2,3.8,3,8.7,3,14.8 L54.6,60.5z M36.7,52c-0.3-3.4-1.3-5.9-2.8-7.4s-3.5-2.2-5.9-2.2c-2.8,0-5.1,1.1-6.8,3.3c-1.1,1.4-1.8,3.5-2.1,6.2L36.7,52z"></path> </g> <g> <path class="st0" d="M55,33h16.5v6.7c2.4-2.8,4.8-4.8,7.2-6s5.3-1.8,8.8-1.8c3.7,0,6.6,0.7,8.7,2c2.1,1.3,3.9,3.3,5.2,5.8 c2.8-3,5.3-5,7.6-6.1s5.1-1.6,8.4-1.6c4.9,0,8.8,1.5,11.6,4.4s4.1,7.5,4.1,13.8l-0.1,29h-17.7l0.1-26.3c0-2.1-0.4-3.6-1.2-4.7 c-1.2-1.6-2.6-2.4-4.4-2.4c-2.1,0-3.7,0.7-5,2.2s-1.9,3.9-1.9,7.3l-0.1,23.8H85.2l0.1-25.4c0-2-0.1-3.4-0.3-4.1 c-0.4-1.2-1-2.1-2-2.8c-0.9-0.7-2-1.1-3.3-1.1c-2,0-3.7,0.8-5,2.3s-2,4-2,7.6l-0.1,23.5H54.9L55,33z"></path> </g> <g> <path class="st0" d="M135,33.2h16.5v6.7c2.4-2.8,4.8-4.8,7.2-6c2.4-1.2,5.3-1.8,8.8-1.8c3.7,0,6.6,0.7,8.7,2s3.9,3.3,5.2,5.8 c2.8-3,5.3-5,7.6-6.1c2.3-1.1,5.1-1.6,8.5-1.6c4.9,0,8.8,1.5,11.6,4.4c2.8,2.9,4.1,7.5,4.1,13.8l-0.1,29h-17.7l0.1-26.3 c0-2.1-0.4-3.6-1.2-4.7c-1.2-1.6-2.6-2.4-4.4-2.4c-2.1,0-3.7,0.7-5,2.2s-1.9,3.9-1.9,7.3L183,79.3h-17.7l0.1-25.4 c0-2-0.1-3.4-0.3-4.1c-0.4-1.2-1-2.1-2-2.8c-0.9-0.7-2-1.1-3.3-1.1c-2,0-3.7,0.8-5,2.3s-2,4-2,7.6l-0.1,23.5H135L135,33.2z"></path> </g> <g> <path class="st0" d="M231.9,48.4l-16.9-1.8c0.6-3,1.6-5.3,2.8-7c1.2-1.7,2.9-3.2,5.2-4.4c1.6-0.9,3.9-1.6,6.7-2.1 c2.8-0.5,5.9-0.7,9.2-0.7c5.3,0,9.5,0.3,12.8,0.9c3.2,0.6,5.9,1.8,8,3.7c1.5,1.3,2.7,3.2,3.5,5.5c0.9,2.4,1.3,4.7,1.3,6.8v20.4 c0,2.2,0.1,3.9,0.4,5.1s0.9,2.8,1.8,4.7h-16.6c-0.7-1.2-1.1-2.1-1.3-2.7c-0.2-0.6-0.4-1.6-0.6-2.9c-2.3,2.2-4.6,3.8-6.9,4.8 c-3.1,1.3-6.8,1.9-10.9,1.9c-5.5,0-9.7-1.3-12.5-3.8c-2.8-2.6-4.3-5.7-4.3-9.4c0-3.5,1-6.4,3.1-8.6c2.1-2.3,5.9-3.9,11.4-5 c6.6-1.3,10.9-2.2,12.9-2.8c2-0.5,4.1-1.2,6.3-2.1c0-2.2-0.4-3.7-1.3-4.6s-2.5-1.3-4.7-1.3c-2.9,0-5.1,0.5-6.5,1.4 C233.6,45,232.6,46.4,231.9,48.4z M247.2,57.7c-2.4,0.9-5,1.6-7.6,2.3c-3.6,0.9-5.9,1.9-6.8,2.8c-1,1-1.5,2-1.5,3.3 c0,1.4,0.5,2.5,1.4,3.4c1,0.9,2.4,1.3,4.3,1.3c2,0,3.8-0.5,5.5-1.4c1.7-1,2.9-2.1,3.6-3.5s1.1-3.2,1.1-5.4V57.7z"></path> </g> <g> <path class="st0" d="M267.3,33.5h16.4V41c2.5-3.1,5-5.2,7.5-6.6c2.5-1.3,5.6-2,9.2-2c4.9,0,8.7,1.5,11.5,4.4s4.1,7.4,4.1,13.5 L316,79.6h-17.8l0.1-25.4c0-2.9-0.5-5-1.6-6.2c-1.1-1.2-2.6-1.8-4.5-1.8c-2.1,0-3.9,0.8-5.2,2.4s-2,4.5-2,8.7l-0.1,22.2h-17.6 L267.3,33.5z"></path> </g> <g> <path class="st0" d="M366.1,79.9h-16.5v-7.5c-2.5,3.1-5,5.3-7.5,6.6c-2.5,1.3-5.6,1.9-9.2,1.9c-4.9,0-8.7-1.5-11.4-4.4 c-2.8-2.9-4.1-7.4-4.1-13.5l0.1-29.4h17.8L335.2,59c0,2.9,0.5,5,1.6,6.2c1.1,1.2,2.6,1.8,4.5,1.8c2.1,0,3.8-0.8,5.2-2.4 c1.4-1.6,2-4.5,2-8.7l0.1-22.2h17.6L366.1,79.9z"></path> </g> <g> <path class="st0" d="M420.3,61.3l-35.5-0.1c0.3,2.8,1.1,5,2.3,6.4c1.7,2,3.9,3,6.7,3c1.7,0,3.4-0.4,5-1.3c1-0.6,2-1.5,3.1-2.9 l17.4,1.6c-2.7,4.6-5.9,8-9.7,10s-9.2,3-16.2,3c-6.1,0-10.9-0.9-14.4-2.6s-6.4-4.5-8.7-8.2c-2.3-3.8-3.4-8.2-3.4-13.2 c0-7.2,2.3-13,7-17.5c4.6-4.4,11-6.7,19.1-6.6c6.6,0,11.8,1,15.6,3s6.7,4.9,8.7,8.7c2,3.8,3,8.7,3,14.8V61.3z M402.3,52.8 c-0.3-3.4-1.3-5.9-2.8-7.4s-3.5-2.2-5.9-2.2c-2.8,0-5.1,1.1-6.8,3.3c-1.1,1.4-1.8,3.5-2.1,6.2L402.3,52.8z"></path> </g> <g> <path class="st0" d="M421.1,16.3h17.7l-0.1,63.6H421L421.1,16.3z"></path> </g> <path class="st0" d="M521.4,1.2c-26.1,0-47.3,21.2-47.3,47.3c0,26.1,21.2,47.3,47.3,47.3s47.3-21.2,47.3-47.3 C568.8,22.4,547.5,1.2,521.4,1.2z M535.5,80.6l-18-37.4H504v34.5h-10.2V43.2h-7.6v-9.5h7.6v-16H504v15.9h20.2l11.4,24.7L547,33.6 h11.4L535.5,80.6z"></path> </g> </svg> 