<svg xmlns="http://www.w3.org/2000/svg" xmlns:xlink="http://www.w3.org/1999/xlink" xml:space="preserve" width="428.48434" height="277.58984" viewBox="0 0 428.48434 277.58983"><defs><linearGradient id="j" x1="0" x2="1" y1="0" y2="0" gradientTransform="scale(10.16646) rotate(-62.02 32.411 -25.279)" gradientUnits="userSpaceOnUse" spreadMethod="pad"><stop offset="0" style="stop-opacity:1;stop-color:#231f20"/><stop offset="1" style="stop-opacity:1;stop-color:#fff"/></linearGradient><linearGradient id="p" x1="0" x2="1" y1="0" y2="0" gradientTransform="rotate(-154.44 221.224 27.716) scale(4.76869)" gradientUnits="userSpaceOnUse" spreadMethod="pad"><stop offset="0" style="stop-opacity:1;stop-color:#fff"/><stop offset="1" style="stop-opacity:1;stop-color:#231f20"/></linearGradient><linearGradient id="A" x1="0" x2="1" y1="0" y2="0" gradientTransform="scale(11.78964) rotate(77.106 9.96 27.872)" gradientUnits="userSpaceOnUse" spreadMethod="pad"><stop offset="0" style="stop-opacity:1;stop-color:#231f20"/><stop offset="1" style="stop-opacity:1;stop-color:#fff"/></linearGradient><linearGradient id="G" x1="0" x2="1" y1="0" y2="0" gradientTransform="rotate(-12.339 889.114 -1823.315) scale(4.59409)" gradientUnits="userSpaceOnUse" spreadMethod="pad"><stop offset="0" style="stop-opacity:1;stop-color:#231f20"/><stop offset="1" style="stop-opacity:1;stop-color:#fff"/></linearGradient><linearGradient id="K" x1="0" x2="1" y1="0" y2="0" gradientTransform="scale(10.16646) rotate(-62.021 21.495 -7.118)" gradientUnits="userSpaceOnUse" spreadMethod="pad"><stop offset="0" style="stop-color:#00929a;stop-opacity:1"/><stop offset="1" style="stop-color:#00c7d2;stop-opacity:1"/></linearGradient><linearGradient id="v" x1="0" x2="1" y1="0" y2="0" gradientTransform="rotate(-154.44 110.245 52.89) scale(4.76869)" gradientUnits="userSpaceOnUse" spreadMethod="pad"><stop offset="0" style="stop-opacity:1;stop-color:#fff"/><stop offset="1" style="stop-opacity:1;stop-color:#231f20"/></linearGradient><linearGradient id="M" x1="0" x2="1" y1="0" y2="0" gradientTransform="rotate(-154.44 110.245 52.889) scale(4.76869)" gradientUnits="userSpaceOnUse" spreadMethod="pad"><stop offset="0" style="stop-color:#00c7d2;stop-opacity:1"/><stop offset="1" style="stop-color:#00c7d2;stop-opacity:1"/></linearGradient><linearGradient id="P" x1="0" x2="1" y1="0" y2="0" gradientTransform="scale(11.78964) rotate(77.106 .548 16.06)" gradientUnits="userSpaceOnUse" spreadMethod="pad"><stop offset="0" style="stop-color:#00929b;stop-opacity:1"/><stop offset="1" style="stop-color:#00c7d2;stop-opacity:1"/></linearGradient><linearGradient id="e" x1="0" x2="1" y1="0" y2="0" gradientTransform="rotate(-12.339 778.139 -796.65) scale(4.59409)" gradientUnits="userSpaceOnUse" spreadMethod="pad"><stop offset="0" style="stop-opacity:1;stop-color:#231f20"/><stop offset="1" style="stop-opacity:1;stop-color:#fff"/></linearGradient><linearGradient id="R" x1="0" x2="1" y1="0" y2="0" gradientTransform="rotate(-12.339 778.137 -796.65) scale(4.59409)" gradientUnits="userSpaceOnUse" spreadMethod="pad"><stop offset="0" style="stop-color:#00c7d2;stop-opacity:1"/><stop offset="1" style="stop-color:#00c7d2;stop-opacity:1"/></linearGradient><linearGradient xlink:href="#e" id="d" x1="0" x2="1" y1="0" y2="0" gradientTransform="rotate(-12.339 778.139 -796.65) scale(4.59409)" gradientUnits="userSpaceOnUse" spreadMethod="pad"/><linearGradient xlink:href="#j" id="i" x1="0" x2="1" y1="0" y2="0" gradientTransform="scale(10.16646) rotate(-62.02 32.411 -25.279)" gradientUnits="userSpaceOnUse" spreadMethod="pad"/><linearGradient xlink:href="#j" id="k" x1="0" x2="1" y1="0" y2="0" gradientTransform="scale(10.16646) rotate(-62.02 32.411 -25.279)" gradientUnits="userSpaceOnUse" spreadMethod="pad"/><linearGradient xlink:href="#p" id="o" x1="0" x2="1" y1="0" y2="0" gradientTransform="rotate(-154.44 221.224 27.716) scale(4.76869)" gradientUnits="userSpaceOnUse" spreadMethod="pad"/><linearGradient xlink:href="#p" id="q" x1="0" x2="1" y1="0" y2="0" gradientTransform="rotate(-154.44 221.224 27.716) scale(4.76869)" gradientUnits="userSpaceOnUse" spreadMethod="pad"/><linearGradient xlink:href="#v" id="u" x1="0" x2="1" y1="0" y2="0" gradientTransform="rotate(-154.44 110.245 52.89) scale(4.76869)" gradientUnits="userSpaceOnUse" spreadMethod="pad"/><linearGradient xlink:href="#A" id="z" x1="0" x2="1" y1="0" y2="0" gradientTransform="scale(11.78964) rotate(77.106 9.96 27.872)" gradientUnits="userSpaceOnUse" spreadMethod="pad"/><linearGradient xlink:href="#A" id="B" x1="0" x2="1" y1="0" y2="0" gradientTransform="scale(11.78964) rotate(77.106 9.96 27.872)" gradientUnits="userSpaceOnUse" spreadMethod="pad"/><linearGradient xlink:href="#G" id="F" x1="0" x2="1" y1="0" y2="0" gradientTransform="rotate(-12.339 889.114 -1823.315) scale(4.59409)" gradientUnits="userSpaceOnUse" spreadMethod="pad"/><linearGradient xlink:href="#G" id="H" x1="0" x2="1" y1="0" y2="0" gradientTransform="rotate(-12.339 889.114 -1823.315) scale(4.59409)" gradientUnits="userSpaceOnUse" spreadMethod="pad"/><linearGradient xlink:href="#e" id="I" x1="0" x2="1" y1="0" y2="0" gradientTransform="rotate(-12.339 778.139 -796.65) scale(4.59409)" gradientUnits="userSpaceOnUse" spreadMethod="pad"/><linearGradient xlink:href="#v" id="J" x1="0" x2="1" y1="0" y2="0" gradientTransform="rotate(-154.44 110.245 52.89) scale(4.76869)" gradientUnits="userSpaceOnUse" spreadMethod="pad"/><clipPath id="f" clipPathUnits="userSpaceOnUse"><path d="M394.932 158.795h22.131v-23.974h-22.131z"/></clipPath><clipPath id="g" clipPathUnits="userSpaceOnUse"><path d="M394.932 158.794h22.131v-23.973h-22.131z"/></clipPath><clipPath id="h" clipPathUnits="userSpaceOnUse"><path d="m408.021 158.794 9.042-17.019-13.09-6.954-9.041 17.019z"/></clipPath><clipPath id="l" clipPathUnits="userSpaceOnUse"><path d="M395.383 158.613h21.229v-23.61h-21.229z"/></clipPath><clipPath id="m" clipPathUnits="userSpaceOnUse"><path d="M395.383 158.614h21.229v-23.611h-21.229z"/></clipPath><clipPath id="n" clipPathUnits="userSpaceOnUse"><path d="m416.612 141.166-12.884-6.163-8.345 17.449 12.885 6.162z"/></clipPath><clipPath id="w" clipPathUnits="userSpaceOnUse"><path d="M406.52 155.855h13.008v-17.19H406.52Z"/></clipPath><clipPath id="x" clipPathUnits="userSpaceOnUse"><path d="M406.521 155.855h13.006v-17.19h-13.006z"/></clipPath><clipPath id="y" clipPathUnits="userSpaceOnUse"><path d="m406.521 140.857 3.432 14.998 9.574-2.191-3.432-14.999z"/></clipPath><clipPath id="C" clipPathUnits="userSpaceOnUse"><path d="M406.645 155.795h12.758v-17.071h-12.758z"/></clipPath><clipPath id="D" clipPathUnits="userSpaceOnUse"><path d="M406.645 155.794h12.758v-17.07h-12.758z"/></clipPath><clipPath id="E" clipPathUnits="userSpaceOnUse"><path d="m409.926 155.794 9.477-2.073-3.28-14.997-9.478 2.073z"/></clipPath><clipPath id="r" clipPathUnits="userSpaceOnUse"><path d="M173.424 158.613h21.229v-23.61h-21.229z"/></clipPath><clipPath id="s" clipPathUnits="userSpaceOnUse"><path d="M173.424 158.614h21.229v-23.611h-21.229z"/></clipPath><clipPath id="t" clipPathUnits="userSpaceOnUse"><path d="m194.653 141.166-12.884-6.163-8.345 17.449 12.885 6.162z"/></clipPath><clipPath id="a" clipPathUnits="userSpaceOnUse"><path d="M184.686 155.795h12.759v-17.071h-12.759z"/></clipPath><clipPath id="b" clipPathUnits="userSpaceOnUse"><path d="M184.686 155.795h12.759v-17.07h-12.759z"/></clipPath><clipPath id="c" clipPathUnits="userSpaceOnUse"><path d="m187.967 155.795 9.478-2.073-3.28-14.997-9.479 2.073z"/></clipPath><clipPath id="Q" clipPathUnits="userSpaceOnUse"><path d="m187.655 146.6 3.171-6.128a.6.6 0 0 1 1.119.151l2.532 11.593-5.179 2.156z" style="stroke-width:.999998"/></clipPath><clipPath id="L" clipPathUnits="userSpaceOnUse"><path d="m181.944 155.322-1.522-7.115 5.376-10.389 1.857 8.782-4.592 8.873a.6.6 0 0 1-1.119-.151" style="stroke-width:.999998"/></clipPath><clipPath id="S" clipPathUnits="userSpaceOnUse"><path d="m187.655 146.6 3.171-6.128a.6.6 0 0 1 1.119.151l2.532 11.593-5.179 2.156z" style="stroke-width:.999997"/></clipPath><clipPath id="N" clipPathUnits="userSpaceOnUse"><path d="m181.944 155.322-1.522-7.115 5.376-10.389 1.857 8.782-4.592 8.873a.6.6 0 0 1-1.119-.151" style="stroke-width:.999997"/></clipPath><mask id="T" maskUnits="userSpaceOnUse"><g clip-path="url(#a)"><path d="M184.686 155.795h12.76v-17.071h-12.76z" style="fill:#000;fill-opacity:1;fill-rule:nonzero;stroke:none"/><g clip-path="url(#b)"><g clip-path="url(#c)"><path d="m187.967 155.795 9.478-2.073-3.28-14.997-9.479 2.073z" style="fill:url(#I);stroke:none"/></g></g></g></mask><mask id="O" maskUnits="userSpaceOnUse"><g clip-path="url(#r)"><path d="M173.424 158.614h21.229v-23.61h-21.229z" style="fill:#000;fill-opacity:1;fill-rule:nonzero;stroke:none"/><g clip-path="url(#s)"><g clip-path="url(#t)"><path d="m194.653 141.166-12.884-6.163-8.345 17.449 12.885 6.162z" style="fill:url(#J);stroke:none"/></g></g></g></mask></defs><path d="M195.264 25.047a4.265 4.265 0 0 1 7.965-1.068l.007-.007-8.812-17.025A12.86 12.86 0 0 0 183.008 0h-11.68a12.857 12.857 0 0 0-12.57 10.171l-22.492 105.305a14.273 14.273 0 0 1-13.943 11.296l-75.29.128c-4.733.007-8.577-3.837-8.577-8.577V99.83a1.71 1.71 0 0 1 1.709-1.715h55.773c6.071 0 11.31-4.242 12.577-10.178l4.028-18.912c.47-2.22-1.217-4.32-3.494-4.32H40.165a1.704 1.704 0 0 1-1.709-1.708v-24.4a1.71 1.71 0 0 1 1.709-1.715h69.211a12.856 12.856 0 0 0 12.57-10.178l4.769-22.392C127.19 2.093 125.497 0 123.22 0H16.072C7.196 0 0 7.196 0 16.072v108.187c0 21.303 17.267 38.563 38.57 38.563h96.045c18.193 0 33.915-12.712 37.716-30.499l12.107-56.627z" style="fill:#00c7d2;fill-opacity:1;fill-rule:nonzero;stroke:none;stroke-width:7.1176"/><path d="m181.944 155.322-1.522-7.115 5.376-10.389 1.857 8.782-4.592 8.873a.6.6 0 0 1-1.119-.151" clip-path="url(#L)" style="fill:url(#K);stroke:none" transform="matrix(7.1176 0 0 -7.1176 -1099.739 1130.572)"/><path d="m194.653 141.165-12.884-6.162-8.345 17.448 12.885 6.162z" clip-path="url(#N)" mask="url(#O)" style="fill:url(#M);stroke:none" transform="matrix(7.1176 0 0 -7.1176 -1099.739 1130.572)"/><path d="m187.655 146.6 3.171-6.128a.6.6 0 0 1 1.119.151l2.532 11.593-5.179 2.156z" clip-path="url(#Q)" style="fill:url(#P);stroke:none" transform="matrix(7.1176 0 0 -7.1176 -1099.739 1130.572)"/><path d="m187.966 155.795 9.479-2.073-3.28-14.998-9.479 2.073z" clip-path="url(#S)" mask="url(#T)" style="fill:url(#R);stroke:none" transform="matrix(7.1176 0 0 -7.1176 -1099.739 1130.572)"/><path d="M389.921 0H285.6c-18.229 0-33.966 12.755-37.73 30.584l-.634 2.997 36.84 15.331.385-1.758a14.28 14.28 0 0 1 13.957-11.239h83.056c4.733 0 8.57 3.83 8.57 8.57v48.94c0 .947-.77 1.716-1.716 1.716H348.56a1.285 1.285 0 0 1-1.253-1.559l6.933-32.549c.477-2.22-1.217-4.32-3.488-4.32h-24.72a12.856 12.856 0 0 0-12.569 10.178l-19.516 91.618a3.57 3.57 0 0 0 3.494 4.313h24.705a12.851 12.851 0 0 0 12.577-10.185l5.118-24.043a2.154 2.154 0 0 1 2.1-1.701h46.385c.947 0 1.715.768 1.715 1.715v30.641a3.57 3.57 0 0 0 3.566 3.573h31.31a3.574 3.574 0 0 0 3.566-3.573V38.563C428.484 17.26 411.224 0 389.921 0M266.447 129.677a4.266 4.266 0 0 1-4.17 3.374c-1.602 0-3.061-.89-3.794-2.306l-22.57-43.617-.762-1.473-13.217 62.506.768 1.474h-.007l3.232 6.242a12.847 12.847 0 0 0 11.417 6.947h11.516a12.856 12.856 0 0 0 12.562-10.115z" style="fill:#00c7d2;fill-opacity:1;fill-rule:nonzero;stroke:none;stroke-width:7.1176"/><path d="M97.137 212.227v65.363h15.127v-18.022h13.166c5.851 0 10.894-.933 15.127-2.8 4.233-1.93 7.501-4.67 9.804-8.22 2.304-3.547 3.455-7.75 3.455-12.605 0-4.917-1.151-9.15-3.455-12.699-2.303-3.548-5.571-6.255-9.804-8.123-4.233-1.93-9.276-2.894-15.127-2.894zm65.416 0v65.363h47.902v-12.326H177.68v-53.037zm79.312 0-29.133 65.363h15.5l5.825-14.006h30.3l5.801 14.006h15.873l-29.226-65.363zm33.23 0L300.4 254.29v23.299h15.127v-23.143l25.399-42.22h-14.848l-17.498 29.015-17.424-29.015zm-162.831 12.326h12.326c4.669 0 8.154.996 10.457 2.988 2.303 1.992 3.455 4.792 3.455 8.402 0 3.549-1.152 6.319-3.455 8.31-2.303 1.993-5.788 2.99-10.457 2.99h-12.326zm136.972 2.529 10.362 25.016h-20.764z" style="font-weight:700;font-size:93.3756px;font-family:Montserrat;text-align:center;text-anchor:middle;display:inline;opacity:1;fill:#00c7d2;fill-opacity:1;stroke-width:14.2313"/></svg>