<?xml version="1.0" encoding="UTF-8"?><svg id="Layer_1" xmlns="http://www.w3.org/2000/svg" viewBox="0 0 1109.26 347.14"><defs><style>.cls-1{fill:#fffcfc;}.cls-2{fill:#d51f26;}.cls-3{fill:#c81010;}.cls-4{fill:#d80000;}.cls-5{fill:#086fb6;}</style></defs><path class="cls-5" d="m204.42,188.6c-25.15.04-50.29.07-75.62.11-1.81,0-2.35.54-2.17,2.17.74,8.86,2.19,17.55,5.46,25.86,5.26,12.83,14.14,21.51,27.53,25.28,15.74,4.68,31.3,4.66,46.49-2.24,9.4-4.35,17.35-10.33,22.4-19.57,1.44-2.71,3.97-4.17,7.23-4.17,12.3-.02,24.6-.04,36.9-.05,6.15,0,10.14,5.59,7.8,11.39-13.88,33.48-37.73,55.05-73.9,61.79-23.87,4.37-47.39,3.51-70.38-4.6-30.59-10.81-51.78-31.58-62.86-62.14-12.53-34.35-12.22-69.45,3.29-103.3,15.87-34.57,43.16-55.23,80.59-61.98,21.16-3.83,42.15-2.59,62.42,4.98,24.43,9.01,42.19,25.81,54.16,48.76,9.8,18.62,14.35,38.69,15.1,59.5.18,2.89.19,5.97.2,8.86,0,5.97-3.42,9.23-9.21,9.24-25.33.04-50.29.07-75.43.11m-27.92-39.04c16.1-.02,32.2-.05,48.12-.07,1.45,0,2.17-.18,1.81-1.81-1.46-7.24-3.28-14.47-6.54-21.34-5.63-12.11-14.86-19.88-27.89-22.93-7.6-1.8-15.38-1.97-22.98-1.05-17,2.19-29.65,10.53-36.87,26.1-2.71,5.97-4.32,12.31-5.22,18.64-.18,1.81,0,2.35,1.99,2.35,15.74-.02,31.66.14,47.58.11"/><path class="cls-5" d="m352.9,28.76l.41,288.81c0,1.7-.15,3.39-.44,5.03-1.12,6.39-4.38,12.26-9.3,16.59-.14.13-.29.26-.45.39-.98.84-2.04,1.62-3.13,2.32-4.61,2.94-9.95,4.51-15.44,4.52l-295.31.43c-15.87.02-28.81-12.88-28.84-28.76L.16,138.88l24.45,18.94.23,160.22c0,2.42,1.97,4.39,4.38,4.39l295.31-.42c2.42,0,4.38-1.98,4.38-4.4l-.41-288.81c0-2.42-1.97-4.37-4.39-4.37l-174.15.25L168.89.22,324.06,0c5.49,0,10.81,1.53,15.4,4.45,1.32.81,2.63,1.8,3.88,2.92.5.44.97.91,1.42,1.38,4.01,4.13,6.68,9.37,7.68,14.98.3,1.65.45,3.32.45,5.03"/><path class="cls-4" d="m145.43.26l-18.94,24.44-97.7.14c-2.41,0-4.38,1.97-4.37,4.38l.15,105.13L.12,115.42,0,29.26C-.02,13.39,12.88.45,28.76.43l116.67-.17Z"/><path class="cls-3" d="m1095.6.4c-.75-.03-1.51-.02-2.26-.02-229.51,0-476.58,0-706.89.01,2.43,3.59,4.09,7.65,4.85,11.91.31,1.77.48,3.58.48,5.41l.45,310.87c0,1.83-.16,3.64-.47,5.41-.84,4.78-2.79,9.28-5.68,13.15h712.07c.99-.4,2.02-.73,2.97-1.21,5.13-2.58,8.14-6.54,8.14-12.47V14.56c0-7.99-5.66-13.86-13.66-14.16Zm-484.43,276.17c.01,1.64-.31,2.21-2.09,2.2-12.07-.08-24.14-.07-36.21,0-1.43,0-2.21-.54-3.01-1.61-33.61-44.38-67.23-88.75-100.87-133.12-.35-.46-.56-1.1-1.46-1.34v2.22c0,43.77-.02,87.54.05,131.31.01,2.11-.54,2.56-2.58,2.55-13.92-.1-27.84-.08-41.76,0-1.65,0-2.2-.36-2.2-2.13.05-70.21.05-140.41.01-210.63,0-1.61.4-2.05,2.04-2.04,13.03.07,26.05.06,39.08,0,1.59,0,2.59.45,3.56,1.73,27.26,35.97,54.56,71.91,81.85,107.85,5.55,7.3,11.09,14.61,16.79,22.11.53-1.04.33-1.86.33-2.65.01-42.19.02-84.39-.04-126.58,0-1.97.46-2.49,2.46-2.48,13.92.1,27.84.08,41.76.02,1.69,0,2.31.24,2.31,2.18-.06,70.14-.06,140.28-.02,210.42Zm225.33-29.08c-10.41,11.24-21.89,21.1-35.87,27.72-16,7.57-32.99,10.21-50.53,9.92-30.27-.5-56.08-11.43-76.77-33.62-15.42-16.55-24.44-36.31-27.8-58.61-3.88-25.79-.62-50.6,11.74-73.7,16.88-31.54,43.33-50.02,78.69-55.72,6.04-.98,12.12-1.34,15.59-1.28,20.81.08,38.35,3.04,54.77,11.21,10.72,5.34,20.03,12.58,28.49,20.99.84.83.78,1.29.07,2.13-9.16,10.82-18.31,21.66-27.39,32.55-.98,1.18-1.45.86-2.34.04-7.06-6.44-14.54-12.34-23.25-16.39-19.67-9.13-39.33-9.78-58.44,1.34-15.03,8.75-24.17,22.25-28.53,38.86-5.56,21.21-3.3,41.62,8.34,60.44,9.76,15.8,24,25.4,42.6,27.58,17.52,2.05,33.55-2.29,47.86-12.75,4.59-3.36,8.96-7,13.11-10.89.94-.88,1.46-.99,2.43.02,8.96,9.44,17.99,18.83,27,28.22.59.61,1.08,1.02.23,1.94Zm242.5,31.93c-15.02,0-30.04-.02-45.05.04-1.58,0-2.25-.54-2.8-1.93-5.94-14.77-11.95-29.51-17.88-44.28-.57-1.43-1.26-1.92-2.81-1.92-28.8.05-57.6.06-86.39,0-1.69-.01-2.32.57-2.92,2.06-5.95,14.84-12,29.64-17.99,44.46-.43,1.05-.87,1.61-2.17,1.61-15.09-.06-30.17-.04-45.26-.04-.27,0-.53-.04-.84-.06-.22-.84.32-1.45.59-2.09,29.92-70.65,59.86-141.3,89.77-211.96.65-1.53,1.41-2.1,3.13-2.09,13.1.09,26.19.07,39.29.02,1.44-.01,2.14.4,2.72,1.77,29.95,70.79,59.95,141.56,89.94,212.33.23.56.43,1.13.79,2.08h-2.12Z"/><path class="cls-1" d="m564.37,195.66c.53-1.05.32-1.87.32-2.65.01-42.19.03-84.39-.04-126.58,0-1.97.46-2.49,2.46-2.47,13.92.09,27.84.08,41.76.01,1.7,0,2.32.24,2.32,2.18-.06,70.14-.06,140.28-.02,210.42,0,1.64-.32,2.21-2.1,2.2-12.07-.08-24.14-.07-36.2,0-1.43,0-2.21-.54-3.02-1.6-33.6-44.39-67.23-88.76-100.87-133.12-.35-.46-.56-1.1-1.46-1.35v2.22c0,43.77-.02,87.54.05,131.31,0,2.11-.54,2.57-2.59,2.55-13.92-.1-27.84-.08-41.76-.01-1.66,0-2.2-.35-2.19-2.12.05-70.21.05-140.42,0-210.63,0-1.61.4-2.06,2.04-2.05,13.03.07,26.05.07,39.08,0,1.59,0,2.59.45,3.56,1.74,27.25,35.97,54.55,71.9,81.85,107.84,5.55,7.31,11.09,14.61,16.79,22.12"/><path class="cls-1" d="m1081.12,279.42h-2.12c-15.02,0-30.03-.03-45.05.04-1.58,0-2.24-.54-2.8-1.93-5.93-14.77-11.95-29.51-17.87-44.29-.57-1.43-1.27-1.92-2.81-1.91-28.8.05-57.59.05-86.39,0-1.69,0-2.32.58-2.92,2.06-5.95,14.84-12,29.64-18,44.46-.42,1.05-.87,1.61-2.17,1.61-15.08-.06-30.17-.04-45.25-.04-.27,0-.54-.04-.85-.06-.22-.84.32-1.45.59-2.09,29.92-70.65,59.87-141.3,89.77-211.96.65-1.53,1.41-2.1,3.13-2.09,13.1.08,26.19.07,39.29.01,1.44,0,2.14.4,2.72,1.77,29.95,70.79,59.95,141.56,89.94,212.33.24.56.43,1.13.79,2.08m-113.8-159.35c-9.59,23.48-18.97,46.44-28.41,69.54h56.82c-9.43-23.09-18.81-46.05-28.41-69.54"/><path class="cls-1" d="m751.55,62.2c20.81.08,38.35,3.03,54.77,11.21,10.72,5.34,20.03,12.57,28.49,20.99.83.83.78,1.29.07,2.13-9.16,10.82-18.31,21.66-27.39,32.55-.98,1.18-1.45.86-2.34.04-7.06-6.44-14.54-12.34-23.25-16.39-19.67-9.13-39.33-9.79-58.44,1.34-15.03,8.75-24.17,22.25-28.52,38.85-5.56,21.21-3.3,41.62,8.34,60.45,9.77,15.8,24,25.4,42.61,27.57,17.52,2.05,33.55-2.29,47.85-12.75,4.6-3.36,8.96-7,13.11-10.9.94-.88,1.47-.99,2.43.02,8.97,9.44,17.99,18.82,27.01,28.22.59.61,1.08,1.02.22,1.94-10.41,11.24-21.88,21.09-35.87,27.71-16,7.57-32.99,10.22-50.53,9.93-30.27-.5-56.08-11.43-76.77-33.63-15.42-16.54-24.44-36.31-27.8-58.61-3.88-25.78-.62-50.6,11.74-73.7,16.88-31.54,43.33-50.02,78.69-55.72,6.04-.98,12.12-1.33,15.59-1.28"/><path class="cls-2" d="m967.32,120.07c9.59,23.49,18.98,46.45,28.41,69.54h-56.82c9.44-23.1,18.82-46.06,28.41-69.54"/></svg>