<svg width="246" height="61" viewBox="0 0 246 61" fill="none" xmlns="http://www.w3.org/2000/svg">
<g clip-path="url(#clip0)">
<path d="M9.8551 0L0.855103 51.27H11.1951L16.7051 20.06C17.0285 18.4651 17.2556 16.8522 17.3851 15.23L23.5851 19.57H48.4751L50.1451 10.15H26.4251L9.8551 0Z" fill="#090A3A"/>
<path d="M17.8251 51.27H42.8951L44.5751 41.86H19.4951L17.8251 51.27Z" fill="#090A3A"/>
<path d="M20.6051 35.36H45.6851L47.3551 25.94H22.2851L20.6051 35.36Z" fill="#090A3A"/>
<path d="M76.3351 9.71997H69.7051C59.3051 9.71997 55.0351 13.5 53.2351 23.78L50.8551 37.65C49.3051 46.44 53.2051 51.02 61.5651 51.65L59.8551 60.12H70.3251L71.9351 51.64C81.1051 51.21 85.0051 47.31 86.6751 37.64L89.0851 23.77C90.7651 14.3 86.1151 9.71997 76.3351 9.71997ZM78.7451 23.78L76.3351 37.65C75.6551 41.42 74.4751 42.41 70.2651 42.41H65.0051C61.7251 42.41 60.5451 41.18 61.1651 37.65L63.5751 23.78C64.2551 20 65.4351 19 69.6451 19H74.9051C78.1951 19 79.3651 20.25 78.7451 23.78Z" fill="#090A3A"/>
<path d="M121.905 10.15L117.135 37.65C116.455 41.42 115.285 42.41 111.065 42.41H106.425C103.145 42.41 101.965 41.18 102.585 37.65L107.355 10.15H97.0151L92.2451 37.65C90.5751 47.12 95.2451 51.7 105.005 51.7H111.005C121.415 51.7 125.685 47.86 127.475 37.65L132.245 10.15H121.905Z" fill="#090A3A"/>
<path d="M138.255 10.15L131.005 51.27H141.345L148.595 10.15H138.255Z" fill="#090A3A"/>
<path d="M173.545 10.15H154.785L147.535 51.27H167.905C179.735 51.27 184.075 47.62 186.485 33L187.225 28.48C189.395 15.48 184.935 10.15 173.545 10.15ZM176.705 29.41L176.265 32C174.785 40.68 173.355 42 168.855 42H159.505L163.505 19.34H172.505C177.135 19.38 178.125 21.18 176.705 29.41Z" fill="#090A3A"/>
<path d="M195.955 10.15L188.715 51.27H199.055L206.295 10.15H195.955Z" fill="#090A3A"/>
<path d="M232.485 9.65997H226.295C215.855 9.65997 211.625 13.5 209.855 23.72L205.055 51.21H215.395L216.855 42.79H231.595L230.105 51.21H240.445L245.215 23.72C246.915 14.24 242.275 9.65997 232.485 9.65997ZM234.905 23.72L233.235 33.19H218.495L220.165 23.72C220.845 19.94 222.025 18.95 226.235 18.95H231.065C234.345 19 235.525 20.19 234.905 23.72Z" fill="#090A3A"/>
</g>
<defs>
<clipPath id="clip0">
<rect width="244.72" height="60.12" fill="#090A3A" transform="translate(0.855103)"/>
</clipPath>
</defs>
</svg>
