<?xml version="1.0" encoding="UTF-8"?>
<svg id="Layer_2" data-name="Layer 2" xmlns="http://www.w3.org/2000/svg" viewBox="0 0 97.2 18">
  <defs>
    <style>
      .cls-1 {
        fill: #fff;
      }

      .cls-2 {
        fill: #7006cc;
      }
    </style>
  </defs>
  <g id="Layer_1-2" data-name="Layer 1">
    <g>
      <g>
        <path class="cls-2" d="M55.07,0h-16.97c-.28,0-.51.23-.51.51v16.97c0,.28.23.51.51.51h16.97c.28,0,.51-.23.51-.51V.51c0-.28-.23-.51-.51-.51"/>
        <path class="cls-1" d="M50.79,14.46v.29s-8.4-.05-8.4-.05c0,0,4.82-6.74,5-7.14.16-.34.23-.69.09-1.05-.12-.31-.36-.57-.68-.68-.27-.1-.58-.08-.85.04-.28.12-.5.34-.64.61-.14.27-.22.57-.31.86h-.26c-.81-.01-1.63,0-2.44,0h-.29v-.32c.03-2.4,1.78-4.17,4.18-4.18.59,0,1.19.06,1.76.22,2.35.67,3.44,3.04,2.4,5.29-.39.85-2.17,3.63-2.17,3.63h2.62s0,1.82,0,2.49h0Z"/>
        <g>
          <path class="cls-2" d="M33.19,2.24c0-.17-.14-.31-.31-.31h-10.25c.14.1.28.21.41.32.62.55,1.11,1.25,1.45,2.07.14.35.25.68.33,1.07h1.64v9.5c0,.15.12.27.27.27h3.54c.15,0,.27-.12.27-.27V5.4h2.35c.17,0,.31-.14.31-.31v-2.85Z"/>
          <path class="cls-2" d="M9.21,5.4c.1,0,.19-.08.19-.19v-3.09c0-.1-.08-.19-.19-.19H.31C.14,1.94,0,2.08,0,2.25v12.6c0,.17.14.31.31.31h8.89c.1,0,.19-.08.19-.19v-3.11c0-.1-.08-.19-.19-.19h-5.13v-1.65h3.92c.09,0,.16-.07.16-.16v-2.59c0-.09-.07-.16-.16-.16h-3.92v-1.72h5.13Z"/>
          <path class="cls-2" d="M17.97,1.94s-5.84,0-5.84,0c-.17,0-.32.16-.32.33h0v12.69c0,.11.1.2.21.2h3.67c.11,0,.2-.09.2-.2v-3.09h1.96c2.71-.03,4.9-2.24,4.9-4.96s-2.13-4.88-4.79-4.98ZM17.64,8.36h-1.74v-2.91h1.74c.8,0,1.46.65,1.46,1.46s-.65,1.46-1.46,1.46h0Z"/>
        </g>
      </g>
      <path class="cls-2" d="M63.3,10.86h3.16v2.57h-6.81v-2.27l1.97-2.21-1.86-2.1v-2.26h6.61v2.57h-2.98l1.54,1.8-1.63,1.9h0ZM68.47,13.43h2.86v-6.2h2.38v6.2h2.86V4.59h-8.1v8.84h0ZM87.59,7.21c-.23-.55-.57-1.05-.99-1.47-.43-.42-.93-.75-1.51-.98s-1.21-.35-1.89-.35-1.32.12-1.89.35c-.58.23-1.09.56-1.51.97-.43.41-.76.91-.99,1.46s-.35,1.17-.35,1.82.12,1.26.35,1.81.56,1.05.99,1.46.93.74,1.51.98c.58.23,1.21.35,1.9.35s1.32-.12,1.89-.35c.57-.23,1.08-.56,1.51-.98.43-.42.76-.91.99-1.46.23-.56.35-1.17.35-1.81s-.12-1.25-.35-1.8h0ZM97.2,7.71c0,.66-.15,1.22-.43,1.69-.29.47-.72.83-1.26,1.07-.53.24-1.18.36-1.93.36h-.89v2.6h-2.86V4.59h3.81c.67,0,1.28.12,1.81.36.54.24.97.6,1.28,1.07.31.47.47,1.04.47,1.69h0ZM92.69,8.72h.87c.6,0,.86-.5.86-.87s-.21-.85-.85-.85h-.88v1.72h0Z"/>
    </g>
  </g>
</svg>