<?xml version="1.0" encoding="UTF-8"?>
<svg id="Layer_1" xmlns="http://www.w3.org/2000/svg" xmlns:xlink="http://www.w3.org/1999/xlink" version="1.1" viewBox="0 0 104.5 36">
  <!-- Generator: Adobe Illustrator 29.6.1, SVG Export Plug-In . SVG Version: 2.1.1 Build 9)  -->
  <defs>
    <style>
      .st0 {
        fill: none;
      }

      .st1 {
        fill: #e5002b;
      }

      .st2 {
        fill: #1a1818;
      }

      .st3 {
        fill: #fff;
      }

      .st4 {
        clip-path: url(#clippath);
      }
    </style>
    <clipPath id="clippath">
      <rect class="st0" width="104.5" height="36"/>
    </clipPath>
  </defs>
  <rect id="Rectangle_2" class="st0" x="-8" y="-2" width="120" height="40"/>
  <g class="st4">
    <path id="Path_1" class="st1" d="M36,18c0,9.9-8.1,18-18,18S0,28,0,18C0,8.1,8.1,0,18,0c0,0,0,0,0,0,9.9,0,18,8.1,18,18h0"/>
    <path id="Path_2" class="st2" d="M39.9,21.3h1.4v-6.3h-1.4v-2.8h5v2c.7-1.4,2.2-2.3,3.8-2.2,2.6,0,4.4,1.9,4.4,5.2v4.1h1.2v2.7h-6.2v-2.7h1.2v-4c0-1.5-.6-2.3-2-2.3-1.2-.1-2.3.8-2.4,2,0,.2,0,.4,0,.5v3.8h1.2v2.7h-6.3v-2.7Z"/>
    <path id="Path_3" class="st2" d="M61.9,21.5c1.1,0,2.1-.4,2.9-1.1l2,2.1c-1.3,1.2-3.1,1.9-5,1.7-4.3,0-6.7-2.5-6.7-6.2,0-3.3,2.6-6.1,6-6.1.1,0,.3,0,.4,0,4.2,0,6.4,3.2,6.1,7.3h-8.6c.2,1.4,1.5,2.4,3,2.2M63.9,17.1c0-1.2-.9-2.3-2.1-2.4,0,0-.1,0-.2,0-1.4,0-2.5,1-2.6,2.3,0,0,0,0,0,0h4.9Z"/>
    <path id="Path_4" class="st2" d="M81.9,12.2h5.3v2.8h-1.2l-3,9h-2.9l-1.5-4.1c-.3-.9-.6-1.9-.8-2.9,0,0-.6,2.1-.9,2.9l-1.5,4.1h-2.9l-3.1-9h-1.3v-2.8h6.1v2.7h-1.4l.9,2.7c.3.9.5,1.9.6,2.9.2-1,.4-2,.7-3l2-5.3h1.8l2,5.4c.3.9.5,1.9.7,2.9,0-.1.4-2,.7-2.9l.8-2.6h-1.3v-2.7Z"/>
    <path id="Path_5" class="st2" d="M92.8,14.4c-.7,0-1.4.2-1.4.9s.7.9,2,1.2c3.2.7,4.4,1.9,4.4,4s-1.3,3.8-4.5,3.8c-1.1,0-2.3-.3-3.1-1.1l-.2.9h-2.2v-3.9h2.5c.2,1.1,1.2,1.8,2.3,1.7.9,0,1.6-.3,1.6-.9s-.5-.8-2.3-1.2c-2.1-.5-4-1.4-4-4s1.9-3.8,4.2-3.8c1,0,2,.4,2.7,1.1l.3-.9h2.1v3.6h-2.3c-.4-.9-1.3-1.5-2.4-1.4"/>
    <path id="Path_6" class="st3" d="M32.4,12.6c0-.1-.1-.3-.3-.3h-8.5c.1,0,.2.2.3.3.5.5.9,1.1,1.2,1.7.1.3.2.6.3.9h1.4v7.9c0,.1,0,.2.2.2h2.9c.1,0,.2,0,.2-.2h0v-7.9h1.9c.1,0,.3-.1.3-.3h0s0-2.4,0-2.4Z"/>
    <path id="Path_7" class="st3" d="M12.6,15.3c0,0,.2,0,.2-.2v-2.6c0,0,0-.2-.2-.2h-7.4c-.1,0-.3.1-.3.3h0v10.4c0,.1.1.3.3.3h7.4c0,0,.2,0,.2-.2v-2.6c0,0,0-.2-.2-.2h-4.2v-1.4h3.2c0,0,.1,0,.1-.1v-2.1c0,0,0-.1-.1-.1h-3.2v-1.4h4.2Z"/>
    <path id="Path_8" class="st3" d="M19.7,12.4h-4.8c-.1,0-.3.1-.3.3h0v10.5c0,0,0,.2.2.2h3c0,0,.2,0,.2-.2v-2.6h1.6c2.3,0,4.1-1.9,4.1-4.1,0-2.2-1.8-4-4-4.1M19.5,17.7h-1.4v-2.4h1.4c.7,0,1.2.5,1.2,1.2s-.5,1.2-1.2,1.2h0"/>
    <path id="Path_9" class="st1" d="M99.5,21.8c0-1.4,1.1-2.5,2.5-2.5s2.5,1.1,2.5,2.5-1.1,2.5-2.5,2.5-2.5-1.1-2.5-2.5h0"/>
  </g>
</svg>