<?xml version="1.0" encoding="UTF-8"?> <svg xmlns="http://www.w3.org/2000/svg" width="87.077" height="14.565" viewBox="0 0 87.077 14.565"><path d="M215.929,80.3H171.881a.424.424,0,0,0-.442.4V94.46a.423.423,0,0,0,.442.4h44.047a.423.423,0,0,0,.442-.4V80.7a.424.424,0,0,0-.442-.4" transform="translate(-129.293 -80.296)" fill="#33a0db"></path><path d="M132,80.631a.337.337,0,0,0-.336-.337H120.37c.154.113.3.23.447.356a6.123,6.123,0,0,1,1.594,2.281,6.384,6.384,0,0,1,.365,1.176h1.807V94.564a.3.3,0,0,0,.3.3h3.894a.3.3,0,0,0,.3-.3V84.108h2.592a.337.337,0,0,0,.336-.337Z" transform="translate(-95.446 -80.294)" fill="#33a0db"></path><path d="M56.595,84.129a.2.2,0,0,0,.2-.2v-3.4a.2.2,0,0,0-.2-.2H46.8a.342.342,0,0,0-.342.342l0,13.873a.342.342,0,0,0,.342.342h9.792a.2.2,0,0,0,.2-.2V91.242a.2.2,0,0,0-.2-.2H50.947V89.222h4.315a.173.173,0,0,0,.172-.172V86.2a.172.172,0,0,0-.172-.172H50.947v-1.9Z" transform="translate(-46.457 -80.308)" fill="#33a0db"></path><path d="M194.321,99.7l-1.434-4.421h1.472l.665,2.441h.038l.788-2.441h1.159l.788,2.45h.038l.665-2.45h1.472L198.538,99.7h-1.263l-.826-2.469h-.038l-.826,2.469Z" transform="translate(-143.509 -90.225)" fill="#fff"></path><path d="M222.9,97.37a2.3,2.3,0,0,1-.316,1.244,2.029,2.029,0,0,1-.853.767,2.879,2.879,0,0,1-2.4,0,2.034,2.034,0,0,1-.85-.768,2.61,2.61,0,0,1,0-2.485,2.019,2.019,0,0,1,.85-.766,2.891,2.891,0,0,1,2.4,0,2.026,2.026,0,0,1,.853.766,2.306,2.306,0,0,1,.316,1.244m-1.358,0a1.729,1.729,0,0,0-.115-.67.873.873,0,0,0-.34-.415,1.148,1.148,0,0,0-1.1,0,.872.872,0,0,0-.34.415,2,2,0,0,0,0,1.34.871.871,0,0,0,.34.415,1.148,1.148,0,0,0,1.1,0,.872.872,0,0,0,.34-.415,1.729,1.729,0,0,0,.115-.67" transform="translate(-160.267 -90.106)" fill="#fff"></path><path d="M240.6,99.7h1.434l-.989-1.65a1.4,1.4,0,0,0,.6-.468,1.347,1.347,0,0,0,.231-.8,1.419,1.419,0,0,0-.226-.807,1.44,1.44,0,0,0-.632-.516,2.331,2.331,0,0,0-.948-.179h-2.1V99.7h1.32V98.239h.457Zm-1.311-3.462h.465a1.229,1.229,0,0,1,.4.057.516.516,0,0,1,.254.177.5.5,0,0,1,.089.31.486.486,0,0,1-.089.3.5.5,0,0,1-.254.17,1.316,1.316,0,0,1-.4.053h-.465Z" transform="translate(-173.386 -90.225)" fill="#fff"></path><path id="Path_61" data-name="Path 61" d="M255.167,99.7V95.278h1.32v3.267h1.966V99.7Z" transform="translate(-184.787 -90.225)" fill="#fff"></path><path d="M272.324,99.7h-1.871V95.278H272.3a2.952,2.952,0,0,1,1.3.264,1.951,1.951,0,0,1,.845.76,2.517,2.517,0,0,1,0,2.373,1.946,1.946,0,0,1-.841.759,2.907,2.907,0,0,1-1.284.264m-.551-1.019h.5a1.609,1.609,0,0,0,.616-.106.755.755,0,0,0,.389-.365,1.594,1.594,0,0,0,.134-.721,1.564,1.564,0,0,0-.136-.721.764.764,0,0,0-.4-.365,1.719,1.719,0,0,0-.642-.106h-.465Z" transform="translate(-194.918 -90.225)" fill="#fff"></path><path d="M96.674,85.776A5.488,5.488,0,0,0,91.4,80.294c-.035,0-6.429,0-6.429,0a.368.368,0,0,0-.354.36h0l.007,13.985a.219.219,0,0,0,.219.219h4.047a.219.219,0,0,0,.219-.219v-3.4h1.864l1.186,3.24a.3.3,0,0,0,.3.3h3.894a.3.3,0,0,0,.3-.3l-1.721-4.7a5.44,5.44,0,0,0,1.752-4m-7.56-1.621h1.915a1.6,1.6,0,1,1,0,3.208H89.108Z" transform="translate(-71.748 -80.293)" fill="#33a0db"></path></svg> 