<?xml version="1.0" encoding="UTF-8"?><svg id="_Слой_1" xmlns="http://www.w3.org/2000/svg" viewBox="0 0 1552 477"><defs><style>.cls-1{fill:#144253;}.cls-2{fill:#fddb27;}.cls-2,.cls-3{fill-rule:evenodd;}.cls-3{fill:#00b2ca;}</style></defs><path class="cls-2" d="M1292.12,400.24v-89.65c0-44.15,44.47-68.71,88.94-68.71h68.75v65.27c0,45.32-47.96,93.09-92.69,93.09h-64.99Z"/><path class="cls-3" d="M1269.7,128.82c-45.02,0-90.06,45.75-90.06,90.45v180.89h114.31v-86.97c0-44.71,45.04-69.58,90.06-69.58h65.81v-114.8h-180.12Z"/><g><path class="cls-1" d="M172.12,297.13v46.49h123.47v56.78H111.15V133.65h184.44v56.78h-123.47v49.92h96.41v56.78h-96.41Z"/><path class="cls-1" d="M394.28,400.4h-60.59V133.65h102.13c73.93,0,96.41,51.83,96.41,88.03s-20.58,64.78-49.16,78.88l46.87,99.84h-66.69l-41.92-89.55h-27.06v89.55Zm76.98-178.72c0-11.05-6.1-31.63-33.53-31.63h-43.44v63.64h44.97c25.91-.76,32.01-22.1,32.01-32.01Z"/><path class="cls-1" d="M630.54,190.43h-69.74v-56.78h201.59v56.78h-70.5v209.97h-61.35V190.43Z"/><path class="cls-1" d="M851.94,400.4h-60.97V133.65h60.97V400.4Z"/><path class="cls-1" d="M1005.12,240.73c36.96,12.96,77.74,31.25,77.74,80.03s-40.39,82.69-98.7,82.69c-39.25,0-70.88-10.29-105.56-28.96l27.06-51.06c26.29,12.58,52.21,22.86,76.21,22.86,19.82,0,36.58-9.53,36.58-22.86,0-16.77-20.58-24.01-45.73-32.01-38.49-12.58-86.88-27.44-86.88-82.31,0-49.92,36.96-79.64,88.03-79.64,17.53,0,54.88,2.29,102.51,25.91l-22.48,51.83c-13.34-5.33-51.83-20.2-76.21-20.2-16.01,0-30.87,4.95-30.49,19.43,1.52,16.39,28.2,23.63,57.92,34.3Z"/></g></svg>