<svg xmlns="http://www.w3.org/2000/svg" viewBox="0 0 500 94"><path class="st0" d="M260 0H123c-14 0-23 8-25 19l-1 7h183l1-5c1-11-3-21-21-21M279 36l-1 8c-1 8-7 14-18 14h-39l-4 35h-31l7-57h86zM94 0l-3 26H8l3-26zM7 36h83l-3 22H35l-1 11h52l-3 24H0zM290 0h67c11 0 22 5 20 22v4h-90l3-26zM285 36h31l-7 57h-31zM344 36h31l-7 57h-31zM164 36H96c-2 15 5 22 16 22h42l-1 10H92l-3 25h69c2 0 17 0 22-13 2-4 4-19 4-22 2-18-10-22-20-22M469 0l-4 37h-28l1-10 4-27h-32l-2 22-2 15c-2 14 5 21 16 21h40l-4 36h31l11-94h-31z" fill="#ed1c24"/></svg>
