<?xml version="1.0" encoding="utf-8"?>
<!-- Generator: Adobe Illustrator 26.0.1, SVG Export Plug-In . SVG Version: 6.00 Build 0)  -->
<svg version="1.1" id="Layer_1" xmlns="http://www.w3.org/2000/svg" xmlns:xlink="http://www.w3.org/1999/xlink" x="0px" y="0px"
	 width="500px" height="94.7px" viewBox="0 0 500 94.7" style="enable-background:new 0 0 500 94.7;" xml:space="preserve">
<style type="text/css">
	.st0{fill:#ED1C24;}
</style>
<g>
	<path class="st0" d="M263.5,0c0,0-131.4,0-139,0c-14.2,0-23.6,7.5-24.9,18.7c-0.5,4.1-1,7.8-1,7.8h185.2c0,0,0.4-2.7,0.6-4.9
		C285.7,10.3,280.9,0,263.5,0"/>
	<path class="st0" d="M282.5,36.5c0,0-0.4,3.7-1,7.8c-1.1,8.1-7.1,14.1-18.3,14.1h-39.5l-4.4,35.8h-31.3l7.1-57.7H282.5z"/>
	<polygon class="st0" points="95.5,0 92.3,26.5 8.3,26.5 11.6,0 	"/>
	<polygon class="st0" points="7.1,36.5 91,36.5 88.4,58.4 35.8,58.4 34.5,69.2 87,69.2 84,94.3 0,94.3 	"/>
	<path class="st0" d="M293.3,0h68.5c10.8,0,22.1,5,19.8,22.4c-0.4,3.1-0.5,4.1-0.5,4.1h-91L293.3,0z"/>
	<polygon class="st0" points="288.9,36.5 320.3,36.5 313.2,94.3 281.8,94.3 	"/>
	<polygon class="st0" points="348.5,36.5 380,36.5 372.8,94.3 341.5,94.3 	"/>
	<path class="st0" d="M166.4,36.5h-69c-2.3,15,5.3,21.9,15.9,21.9h42.5l-1.4,10.8h-61l-3.1,25.1c0,0,66.5,0,69.2,0
		c2.2-0.2,17.8-0.6,23-13.4c1.8-4.1,3.2-18.9,3.7-22.1C188.7,40.9,176.2,36.5,166.4,36.5"/>
	<path class="st0" d="M479.8,37H442l1.3-10.3h53l3.5-26.4h-84.4L412.7,22l-1.9,14.9l0,0c-2.3,15,5.3,21.9,15.9,21.9h42.5l-1.4,10.8
		h-60.4l-3,25.1c0,0,65.8,0,68.6,0c2.2-0.2,17.8-0.6,23-13.4c1.8-4.1,3.2-18.9,3.7-22.1C502.1,41.3,489.6,37,479.8,37"/>
</g>
</svg>
