<svg width="250" height="90" viewBox="0 0 250 90" fill="none" xmlns="http://www.w3.org/2000/svg">
<path d="M159.479 0.0960256C189.432 -0.23366 219.664 0.421062 249.517 0.0589162C249.198 29.6687 249.382 60.0502 249.527 89.681C219.698 90.0489 189.322 89.709 159.439 89.7679L159.464 27.1136C159.472 21.3494 159.45 15.5854 159.397 9.82161C159.378 7.30251 159.208 2.41269 159.479 0.0960256ZM222.488 19.0618C217.912 14.4516 208.946 12.1942 202.445 12.8822C189.898 14.344 184.342 20.7154 180.012 31.8148C184.166 33.283 188.514 34.4792 192.753 35.7074C194.74 31.8829 196.814 27.7883 201.209 26.5941C210.469 24.1667 216.083 31.8288 211.136 40.1117C208.111 45.1755 204.062 48.6121 200.204 52.9271C193.063 60.9134 184.722 68.5159 177.835 76.6732L184.467 76.5824L228.919 76.5667C228.949 72.3912 229.044 68.0293 228.929 63.8695C221.629 63.9133 214.329 64.0324 207.032 64.2269C218.046 53.2809 238.682 35.3777 222.488 19.0618Z" fill="#007ED3"/>
<path d="M99.782 10.6618C104.745 10.3914 106.39 11.1247 109.204 15.2341C109.708 20.9219 109.458 30.398 109.415 36.2439C114.788 33.9133 119.306 32.8107 125.311 33.7712C130.899 34.6323 135.885 37.7555 139.099 42.407C147.006 53.6241 144.441 70.4883 133.042 78.5222C124.621 83.288 117.258 82.3288 109.073 77.7175C108.077 78.7212 107.049 79.8238 105.805 80.5202C103.92 81.5767 101.42 82.0323 99.3289 81.3865C97.6672 80.873 96.3497 79.5618 95.5574 78.0417C94.7498 76.4922 94.6808 74.3902 94.5877 72.6648C94.2402 66.2397 93.8779 18.667 95.0047 15.3542C95.8077 12.9954 97.657 11.7376 99.782 10.6618ZM121.817 70.8064C133.174 63.9012 129.86 40.98 115.053 43.5261C112.774 44.361 111.617 44.8121 109.433 45.9656C109.406 53.2971 109.367 61.2056 109.539 68.5222C113.738 71.0814 116.839 72.7841 121.817 70.8064Z" fill="#007ED3"/>
<path d="M24.0287 32.9051C41.0282 32.8191 48.8649 43.6181 49.2045 59.5301L15.3705 59.6747C16.4811 66.1942 19.2644 70.777 26.225 72.3045C34.5029 74.1206 40.6764 70.8828 47.3754 66.5848L47.9203 66.409C48.5008 67.3122 48.4422 73.9656 48.4936 75.6063C43.5357 78.8043 37.905 80.8123 32.0424 81.4735C23.9254 82.3284 14.4601 80.8746 7.95743 75.5545C-1.95267 67.4469 -2.50561 50.5246 5.73575 41.0389C10.7569 35.2599 16.7218 33.4328 24.0287 32.9051ZM24.5356 41.7743C18.6976 42.8989 16.964 46.206 15.602 51.5995C19.7469 51.6794 23.8929 51.7082 28.0385 51.6854L35.8744 51.6825C34.3608 44.7281 31.9658 41.9317 24.5356 41.7743Z" fill="#007ED3"/>
<path d="M70.296 17.8544L70.9026 18.1651C71.7325 20.4361 71.4402 30.1514 71.4229 33.0225C76.57 33.3254 83.6578 33.1518 88.9128 33.1643L88.8603 43.8033C83.0875 43.738 77.2155 43.7879 71.4337 43.7815C71.4103 57.6259 67.1255 78.7147 88.9203 67.7906C88.8049 71.0756 89.4604 75.4697 88.6341 78.5611C88.4166 79.3744 87.7053 79.4715 86.8732 79.8241C76.7174 82.8312 60.1765 84.3989 56.8921 70.383C55.2408 63.3355 56.0075 51.4138 56.0165 43.7876C54.1355 43.814 50.4364 44.1173 49.0606 42.9772C48.8363 39.7229 67.0532 20.1664 70.296 17.8544Z" fill="#007ED3"/>
</svg>
