<svg width="250" height="91" viewBox="0 0 250 91" fill="none" xmlns="http://www.w3.org/2000/svg">
<path d="M159 0.34071C177.773 -0.540436 197.396 0.615998 216.261 0.194226C227.303 -0.0528201 238.958 0.056264 250 0.293835C249.726 13.3092 249.894 26.7978 249.894 39.8427L249.965 90.747C220.128 90.2869 188.924 90.6875 159.01 90.7763L159 0.34071ZM214.382 16.3056C205.242 16.314 195.8 16.2088 186.685 16.3671L186.72 28.327L199.165 28.286C199.228 45.1651 198.937 62.6156 199.211 79.4179L214.009 79.5106C214.929 78.1575 214.511 22.2605 214.382 16.3056Z" fill="#FF0017"/>
<path d="M99.7824 10.6615C104.745 10.3911 106.391 11.1244 109.204 15.2338C109.708 20.9216 109.459 30.3977 109.415 36.2436C114.788 33.913 119.305 32.8105 125.311 33.7709C130.898 34.6319 135.886 37.7551 139.1 42.4066C147.006 53.6237 144.442 70.488 133.042 78.5219C124.621 83.2877 117.257 82.3285 109.072 77.7172C108.076 78.7208 107.049 79.8234 105.806 80.5199C103.92 81.5764 101.42 82.032 99.3292 81.3861C97.6673 80.8727 96.3491 79.5617 95.5568 78.0414C94.7492 76.4919 94.6811 74.3899 94.588 72.6645C94.2406 66.2393 93.8782 18.6654 95.005 15.3539C95.808 12.9951 97.6573 11.7373 99.7824 10.6615ZM121.818 70.8061C133.174 63.9007 129.86 40.9793 115.052 43.5258C112.773 44.3606 111.617 44.8117 109.433 45.9652C109.405 53.2968 109.366 61.2053 109.538 68.5219C113.737 71.0812 116.84 72.7838 121.818 70.8061Z" fill="#FF0017"/>
<path d="M24.0286 32.9043C41.028 32.8183 48.8656 43.6175 49.2054 59.5293L15.3704 59.6738C16.4809 66.1937 19.2649 70.7772 26.2259 72.3047C34.5037 74.1206 40.6773 70.882 47.3763 66.584L47.9202 66.4082C48.501 67.3095 48.4421 73.9644 48.4935 75.6055C43.5357 78.8034 37.9057 80.8124 32.0433 81.4737C23.9261 82.3286 14.4601 80.874 7.95734 75.5537C-1.95256 67.446 -2.50565 50.5237 5.73566 41.0381C10.7567 35.2592 16.7219 33.4321 24.0286 32.9043ZM24.5355 41.7735C18.6976 42.8981 16.9639 46.2052 15.6019 51.5987C19.7466 51.6786 23.8929 51.7074 28.0384 51.6846L35.8753 51.6826C34.3617 44.7282 31.9659 41.9308 24.5355 41.7735Z" fill="#FF0017"/>
<path d="M70.2963 17.8541L70.9029 18.1648C71.7328 20.4358 71.4405 30.1511 71.4232 33.0222C76.5703 33.3251 83.6581 33.1515 88.9131 33.164L88.8606 43.803C83.0878 43.7376 77.2158 43.7876 71.434 43.7812C71.4106 57.6256 67.1258 78.7144 88.9206 67.7903C88.8052 71.0753 89.4607 75.4694 88.6344 78.5608C88.4169 79.3741 87.7056 79.4712 86.8735 79.8238C76.7178 82.8309 60.1768 84.3986 56.8924 70.3827C55.2412 63.3352 56.0078 51.4135 56.0168 43.7873C54.1358 43.8137 50.4367 44.117 49.061 42.9769C48.8366 39.7226 67.0535 20.1661 70.2963 17.8541Z" fill="#FF0017"/>
</svg>
