<svg width="100" height="37" viewBox="0 0 100 37" fill="none" xmlns="http://www.w3.org/2000/svg">
<path d="M11.0378 16.9193C11.0378 16.3591 11.4868 15.6793 12.0425 15.6793H22.1324C22.3997 15.6799 22.6559 15.7874 22.8446 15.9781C23.0334 16.1688 23.1395 16.4273 23.1395 16.6967V18.3891H11.0378V16.9193ZM12.0425 28.5531H27.1654V24.4837H12.0307C11.765 24.4805 11.5114 24.3714 11.3254 24.1803C11.1393 23.9892 11.0359 23.7316 11.0378 23.4639V21.5489H27.1654V16.6895C27.1654 15.3416 26.6342 14.049 25.6885 13.0959C24.7428 12.1429 23.4603 11.6074 22.1229 11.6074H12.0307C10.6954 11.6106 9.41582 12.1474 8.47273 13.1002C7.52963 14.0529 7 15.3437 7 16.6895V23.4639C7.00063 24.8113 7.53218 26.1033 8.47777 27.0559C9.42336 28.0084 10.7056 28.5435 12.0425 28.5435" fill="black"/>
<path d="M52.2071 24.5794L44.92 11.6122H34.2839V8H30.2461V23.4639C30.2467 24.812 30.7785 26.1046 31.7245 27.0576C32.6706 28.0106 33.9534 28.5459 35.291 28.5459H43.6992V24.4765H35.291C35.0237 24.4759 34.7675 24.3684 34.5787 24.1777C34.3899 23.9869 34.2839 23.7285 34.2839 23.4591V15.6793H42.4855L48.5256 26.3484C48.855 27.0518 49.376 27.6463 50.0278 28.0626C50.6796 28.4789 51.4354 28.7 52.2071 28.7C52.9789 28.7 53.7347 28.4789 54.3865 28.0626C55.0383 27.6463 55.5593 27.0518 55.8887 26.3484L64.2256 11.6122H59.4919L52.2071 24.5794Z" fill="black"/>
<path d="M77.0873 15.0282H74.1445C73.587 15.0282 73.0523 15.2514 72.6581 15.6487C72.2639 16.046 72.0424 16.5848 72.0424 17.1467V19.4926C72.0424 20.0545 72.2639 20.5933 72.6581 20.9906C73.0523 21.3879 73.587 21.6111 74.1445 21.6111H77.0945L80.3556 18.322L77.0873 15.0282Z" fill="black"/>
<path d="M92.4905 17.1467C92.4905 16.5848 92.269 16.046 91.8748 15.6487C91.4806 15.2514 90.946 15.0282 90.3885 15.0282H85.5288V10.1353C85.5288 9.5734 85.3073 9.03455 84.9131 8.63725C84.5189 8.23996 83.9843 8.01676 83.4268 8.01676H81.1062C80.8301 8.01676 80.5568 8.07155 80.3018 8.17802C80.0467 8.28448 79.815 8.44053 79.6198 8.63725C79.4246 8.83398 79.2698 9.06752 79.1641 9.32455C79.0585 9.58158 79.0041 9.85706 79.0041 10.1353V13.106L84.1749 18.3149L79.0041 23.5238V26.4945C79.0041 26.7727 79.0585 27.0481 79.1641 27.3052C79.2698 27.5622 79.4246 27.7957 79.6198 27.9925C79.815 28.1892 80.0467 28.3452 80.3018 28.4517C80.5568 28.5582 80.8301 28.613 81.1062 28.613H83.4339C83.9914 28.613 84.526 28.3898 84.9203 27.9925C85.3145 27.5952 85.5359 27.0563 85.5359 26.4945V21.6111H90.398C90.674 21.6111 90.9473 21.5563 91.2024 21.4499C91.4574 21.3434 91.6891 21.1873 91.8843 20.9906C92.0795 20.7939 92.2344 20.5604 92.34 20.3033C92.4456 20.0463 92.5 19.7708 92.5 19.4926V17.1467H92.4905Z" fill="black"/>
</svg>
