<?xml version="1.0" encoding="utf-8"?>
<!-- Generator: Adobe Illustrator 21.0.1, SVG Export Plug-In . SVG Version: 6.00 Build 0)  -->
<svg version="1.1" id="Livello_1" xmlns="http://www.w3.org/2000/svg" xmlns:xlink="http://www.w3.org/1999/xlink" x="0px" y="0px"
	 viewBox="0 0 374 62" style="enable-background:new 0 0 374 62;" xml:space="preserve">
<style type="text/css">
	.st0{fill:#D65A57;}
	.st1{fill:#487E65;}
	.st2{fill:#FDD31C;}
	.st3{fill:#48649c;}
</style>
<polygon class="st0" points="315.5,33.8 309.4,52.2 346.4,47.3 337.1,43 346.3,33.8 "/>
<polygon class="st1" points="325.9,11.1 320.4,26.4 343,26.3 348.5,20.3 359.2,8 "/>
<polygon class="st2" points="369,20.5 348.5,20.3 334.3,36.1 368.7,31.6 "/>
<path class="st3" d="M85.4,31.2c0,13.7-8.6,21.9-20.2,21.9c-11.7,0-19.7-8.3-19.7-21.9V11.1h10v20.1c0,8,3.4,12.7,9.7,12.7
	c6.2,0,10.1-4.7,10.1-12.7V11.1h10.1C85.4,11.1,85.4,31.2,85.4,31.2z"/>
<path class="st3" d="M127.3,26.5c0,6-2.9,11-7.3,13.4l8.5,12.4H116L109.8,42h-7.3v10.3h-10V11.1h20C121,11.1,127.3,17.6,127.3,26.5
	 M102.6,20.3v12.6h8.6c3.4,0,6.1-2.9,6.1-6.3c0-3.4-2.7-6.3-6.1-6.3C111.2,20.3,102.6,20.3,102.6,20.3z"/>
<path class="st3" d="M174.3,31.7c0,11.8-9.6,21.4-21.3,21.4c-11.8,0-21.3-9.6-21.3-21.4c0-11.7,9.5-21.4,21.3-21.4
	C164.7,10.3,174.3,20,174.3,31.7 M140.8,31.7c0,6.7,5.5,12.1,12.2,12.1c6.6,0,12.1-5.4,12.1-12.1s-5.5-12.1-12.1-12.1
	C146.2,19.6,140.8,25,140.8,31.7"/>
<path class="st3" d="M216.8,40.3c0,6.7-4.3,12-15.6,12h-20.3V11.1h17.9c12,0,15.7,4.7,15.7,11.4c0,4.2-3,7.2-3.9,7.9
	C214.6,32.3,216.8,35.9,216.8,40.3 M205,23.7c0-2.8-1.8-4.1-5.6-4.1h-8.6v8.6h8.6C203.7,28.2,205,26.9,205,23.7 M200,35.8h-9.2v8
	h9.2c4,0,6-1.3,6-4C206,36.7,204,35.8,200,35.8"/>
<polygon class="st3" points="255.4,11.1 255.4,20.3 233.7,20.3 233.7,27.4 251.8,27.4 251.8,36 233.7,36 233.7,43.1 255.4,43.1 
	255.4,52.3 223.8,52.3 223.8,11.1 "/>
<polygon class="st3" points="300.4,20.3 285.7,20.3 285.7,52.3 275.7,52.3 275.7,20.3 261,20.3 261,11.1 300.4,11.1 "/>
<polygon class="st3" points="8,11.1 8,52.3 39.6,52.3 39.6,43.1 17.9,43.1 17.9,36 36,36 36,27.4 17.9,27.4 17.9,20.3 39.6,20.3 
	39.6,11.1 "/>
</svg>
