<svg version="1.1" id="Layer_1" xmlns="http://www.w3.org/2000/svg" xmlns:xlink="http://www.w3.org/1999/xlink" x="0" y="0" viewBox="0 0 218.5 80" xml:space="preserve"><style>.st1{clip-path:url(#SVGID_4_)}</style><switch><g><defs><path id="SVGID_9_" d="M-58.75 0h336v80h-336z"/></defs><clipPath id="SVGID_2_"><use xlink:href="#SVGID_9_" overflow="visible"/></clipPath><g clip-path="url(#SVGID_2_)"><defs><path id="SVGID_11_" d="M-58.75 0h336v80h-336z"/></defs><clipPath id="SVGID_4_"><use xlink:href="#SVGID_11_" overflow="visible"/></clipPath><path class="st1" d="M197.48 76.66h5.04v-4.71l1.85-2.05 4.58 6.76h6.06l-7.12-10.37 6.89-7.83h-5.98l-6.27 7.38v-7.38h-5.04v18.2zm-11.51.34c5.17 0 8.53-2.57 8.53-8.45V58.46h-5.12V68.7c0 2.55-1.33 3.74-3.35 3.74s-3.35-1.25-3.35-3.87V58.46h-5.12v10.22c-.02 5.69 3.23 8.32 8.41 8.32M64.84 18.07c8.32 0 15.07 6.75 15.07 15.07 0-8.32 6.75-15.07 15.07-15.07-8.32 0-15.07-6.75-15.07-15.07 0 8.32-6.75 15.07-15.07 15.07"/><path class="st1" d="M79.82 48.96V76.6h14.55V47.14c0-8.03-6.51-14.55-14.55-14.55v16.37zM21.68 18.43h-3.56c-8.03 0-14.63 6.75-14.63 14.79 0-.3.02.29 0 0v43.41h14.82v-29.8h14.53V35.21H18.32v-1.63c.06-1.88 1.6-3.39 3.5-3.39h12.9c.66 0 1.27-.22 1.76-.59s.86-.89 1.05-1.49c.04-.14.13-.86.13-.86v-8.82H21.68zM103.25 18.43v16.75h-6.71V46.8h6.71v16.16c.02-.29.03-.59.03-.88 0 8.03 6.51 14.55 14.55 14.55h9.82v-8.82s-.09-.73-.13-.86c-.18-.6-.56-1.12-1.05-1.49-.49-.37-1.1-.59-1.76-.59h-3.42c-1.9 0-3.43-1.51-3.49-3.39l-.01-.23.01-14.45h7V35.18h-7.01V18.43h-14.54zM129.79 76.57h7.26l7.27.01.01-21.71V54.78v-.1c0-1.78.72-3.39 1.89-4.56a6.424 6.424 0 014.56-1.89c1.78 0 3.39.72 4.56 1.89a6.424 6.424 0 011.89 4.56l.01 14.54v.14c.04 3.98 3.27 7.2 7.27 7.21v.02h7.26V69l.01-6.55.01-14.14v-.04-.04c0-3.08-.96-5.94-2.6-8.3-1.64-2.35-3.95-4.2-6.66-5.26-.82-.32-1.67-.56-2.55-.73a14.476 14.476 0 00-10.38 1.92 14.626 14.626 0 00-5.26 5.69V25.44a7.272 7.272 0 00-7.24-6.97l-.02-.02h-7.3v58.12z"/><path class="st1" d="M63.6 55.24a8.79 8.79 0 01-8.79 8.79 8.79 8.79 0 110-17.58 8.79 8.79 0 018.79 8.79m13.72 21.35V32.7H62.8v7.05c-3.33-3.87-7.91-6.27-12.96-6.27-10.2 0-18.46 9.74-18.46 21.76C31.37 67.26 39.64 77 49.83 77c5.05 0 9.63-2.39 12.96-6.27v5.85h14.53z"/></g></g></switch></svg>