<?xml version="1.0" encoding="UTF-8"?>
<svg id="Layer_2" data-name="Layer 2" xmlns="http://www.w3.org/2000/svg" viewBox="0 0 615.33 158.61">
  <defs>
    <style>
      .cls-1 {
        fill: #fff;
      }

      .cls-2 {
        fill: #f04;
      }

      .cls-3 {
        fill: #000101;
      }
    </style>
  </defs>
  <g id="Layer_1-2" data-name="Layer 1">
    <g>
      <path class="cls-1" d="m614.09,24.7l-21.42,19.1c-.59.55-1.4.86-2.24.86s-1.71-.36-2.34-.99c-1.13-1.12-1.27-2.97-.34-4.29l8.31-11.52-13.73-1.36c-1.49-.14-2.73-1.12-3.2-2.57-.48-1.45-.08-2.97,1.05-3.99l21.43-19.1c.6-.55,1.4-.86,2.23-.86.89,0,1.72.36,2.35.99,1.13,1.11,1.27,2.96.33,4.28l-8.31,11.52,13.73,1.36c1.51.15,2.74,1.14,3.21,2.58.47,1.44.07,2.96-1.05,3.97Z"/>
      <g>
        <rect class="cls-3" y="39.12" width="227.8" height="119.49"/>
        <rect class="cls-2" x="227.8" y="39.12" width="351.13" height="119.49"/>
        <g>
          <path class="cls-1" d="m268.78,145.17c-6.23,0-11.26-1.79-15.09-5.37-3.84-3.58-5.76-8.27-5.76-14.07v-13.3h16.12v13.3c0,1.45.43,2.6,1.28,3.45.85.85,2,1.28,3.45,1.28s2.62-.43,3.52-1.28c.89-.85,1.34-2,1.34-3.45v-10.36c0-1.87-.88-3.67-2.62-5.37-1.75-1.71-3.86-3.33-6.33-4.86-2.47-1.54-4.97-3.22-7.48-5.05-2.52-1.83-4.65-4.24-6.4-7.23-1.75-2.98-2.62-6.4-2.62-10.23v-10.75c0-5.8,1.87-10.47,5.63-14.01,3.75-3.54,8.74-5.31,14.97-5.31s11.23,1.77,15.03,5.31c3.79,3.54,5.69,8.21,5.69,14.01v11.9h-16.11v-12.02c0-1.36-.43-2.45-1.28-3.26-.85-.81-1.96-1.22-3.32-1.22s-2.45.41-3.26,1.22c-.81.81-1.21,1.9-1.21,3.26v8.96c0,1.96.87,3.79,2.62,5.5,1.75,1.71,3.88,3.33,6.39,4.86,2.51,1.54,5.01,3.2,7.48,4.99,2.47,1.79,4.58,4.18,6.33,7.16,1.75,2.99,2.62,6.39,2.62,10.23v12.28c0,5.8-1.92,10.49-5.76,14.07-3.84,3.58-8.91,5.37-15.22,5.37"/>
          <path class="cls-1" d="m326.22,54.1c5.97,0,10.79,1.69,14.46,5.05,3.67,3.37,5.5,7.82,5.5,13.37v17.78c0,5.54-1.83,10-5.5,13.37-3.67,3.37-8.49,5.05-14.46,5.05h-5.76v34.92h-16.12V54.1h21.87Zm3.84,35.18v-15.73c0-1.45-.45-2.6-1.34-3.45-.9-.85-2.07-1.28-3.52-1.28h-4.73v25.2h4.73c1.45,0,2.62-.43,3.52-1.28.9-.85,1.34-2,1.34-3.45"/>
          <path class="cls-1" d="m395.68,139.8c-3.84,3.58-8.91,5.37-15.22,5.37s-11.38-1.79-15.22-5.37c-3.84-3.58-5.76-8.27-5.76-14.07v-53.85c0-5.8,1.94-10.47,5.82-14.01,3.88-3.54,8.93-5.31,15.16-5.31s11.28,1.77,15.16,5.31c3.88,3.54,5.82,8.21,5.82,14.01v53.85c0,5.8-1.92,10.49-5.76,14.07m-18.74-10.62c.9.85,2.07,1.28,3.52,1.28s2.62-.43,3.52-1.28c.9-.85,1.34-2,1.34-3.45v-53.72c0-1.45-.45-2.6-1.34-3.45-.9-.85-2.07-1.28-3.52-1.28s-2.62.43-3.52,1.28c-.9.85-1.34,2.01-1.34,3.45v53.72c0,1.45.45,2.6,1.34,3.45"/>
          <path class="cls-1" d="m444.17,143.64l-6.65-34.92h-4.48v34.92h-16.12V54.1h22.39c5.8,0,10.49,1.64,14.07,4.92,3.58,3.28,5.37,7.66,5.37,13.11v19.06c0,5.97-2.17,10.58-6.52,13.82l8.19,38.63h-16.25Zm-11.13-74.83v26.09h4.73c1.45,0,2.62-.43,3.52-1.28.9-.85,1.34-2,1.34-3.45v-16.63c0-1.45-.45-2.6-1.34-3.45-.9-.85-2.07-1.28-3.52-1.28h-4.73Z"/>
          <polygon class="cls-1" points="508.41 54.1 508.41 68.81 495.85 68.81 495.85 143.64 479.73 143.64 479.73 68.81 467.19 68.81 467.19 54.1 508.41 54.1"/>
          <path class="cls-1" d="m537.81,145.17c-6.23,0-11.26-1.79-15.09-5.37-3.84-3.58-5.75-8.27-5.75-14.07v-13.3h16.12v13.3c0,1.45.43,2.6,1.28,3.45.85.85,2,1.28,3.45,1.28s2.62-.43,3.52-1.28c.9-.85,1.34-2,1.34-3.45v-10.36c0-1.87-.87-3.67-2.62-5.37-1.75-1.71-3.86-3.33-6.33-4.86-2.48-1.54-4.97-3.22-7.48-5.05-2.52-1.83-4.65-4.24-6.4-7.23-1.75-2.98-2.62-6.4-2.62-10.23v-10.75c0-5.8,1.87-10.47,5.63-14.01,3.75-3.54,8.74-5.31,14.97-5.31s11.23,1.77,15.03,5.31c3.79,3.54,5.69,8.21,5.69,14.01v11.9h-16.12v-12.02c0-1.36-.43-2.45-1.28-3.26-.85-.81-1.96-1.22-3.32-1.22s-2.45.41-3.26,1.22c-.81.81-1.21,1.9-1.21,3.26v8.96c0,1.96.87,3.79,2.62,5.5,1.75,1.71,3.88,3.33,6.4,4.86,2.52,1.54,5.01,3.2,7.48,4.99,2.47,1.79,4.58,4.18,6.33,7.16,1.75,2.99,2.62,6.39,2.62,10.23v12.28c0,5.8-1.92,10.49-5.76,14.07-3.84,3.58-8.91,5.37-15.22,5.37"/>
        </g>
        <g>
          <path class="cls-1" d="m50.6,68.78h-14.34v22.28h12.93v14.34h-12.93v38.28h-16.13V54.06h30.47v14.72Z"/>
          <path class="cls-1" d="m91.46,143.67l-1.79-21.64h-9.6l-1.79,21.64h-16.26l10.88-89.62h24.84l10.75,89.62h-17.03Zm-10.24-34.95h7.3l-2.56-31.24v-7.42h-2.18v7.42l-2.56,31.24Z"/>
          <path class="cls-1" d="m140.77,145.21c-6.23,0-11.27-1.79-15.11-5.38-3.84-3.58-5.76-8.28-5.76-14.08v-13.31h16.13v13.31c0,1.45.43,2.6,1.28,3.46.85.85,2,1.28,3.46,1.28s2.62-.43,3.52-1.28c.9-.85,1.34-2,1.34-3.46v-10.37c0-1.88-.88-3.67-2.62-5.38-1.75-1.71-3.86-3.33-6.34-4.87-2.48-1.54-4.97-3.22-7.49-5.06-2.52-1.84-4.65-4.25-6.4-7.23-1.75-2.99-2.62-6.4-2.62-10.24v-10.75c0-5.8,1.88-10.48,5.63-14.02,3.76-3.54,8.75-5.31,14.98-5.31s11.24,1.77,15.04,5.31c3.8,3.54,5.7,8.22,5.7,14.02v11.91h-16.13v-12.03c0-1.36-.43-2.45-1.28-3.26-.85-.81-1.96-1.22-3.33-1.22s-2.45.41-3.26,1.22c-.81.81-1.22,1.9-1.22,3.26v8.96c0,1.96.87,3.8,2.62,5.5,1.75,1.71,3.88,3.33,6.4,4.87,2.52,1.54,5.01,3.2,7.49,4.99,2.47,1.79,4.59,4.18,6.34,7.17,1.75,2.99,2.62,6.4,2.62,10.24v12.29c0,5.81-1.92,10.5-5.76,14.08-3.84,3.59-8.92,5.38-15.24,5.38Z"/>
          <path class="cls-1" d="m207.67,54.06v14.72h-9.22v74.89h-16.13v-74.89h-9.22v-14.72h34.57Z"/>
        </g>
      </g>
    </g>
  </g>
</svg>