<?xml version="1.0" encoding="utf-8"?>
<!-- Generator: Adobe Illustrator 26.4.1, SVG Export Plug-In . SVG Version: 6.00 Build 0)  -->
<svg version="1.1" id="Layer_1" xmlns="http://www.w3.org/2000/svg" xmlns:xlink="http://www.w3.org/1999/xlink" x="0px" y="0px"
	 viewBox="0 0 1873.6 496.1" style="enable-background:new 0 0 1873.6 496.1;" xml:space="preserve">
<style type="text/css">
	.st0{fill:#00FF97;}
</style>
<g>
	<path class="st0" d="M1411.1,448.8v45.9h-13.9l-26.4-27.5v27.5h-15.3v-45.9h16.8l23.4,24.9v-24.9H1411.1z M1474.2,483.1v11.5h-49.9
		v-45.9h49.2v11.5h-33.7v5.8h27.5v10.6h-27.5v6.4H1474.2z M1533.4,460.9h-18v33.7h-15.8v-33.7h-17.9v-12.1h51.7V460.9z
		 M1621.1,448.8l-16.6,45.9h-15.5l-9.3-29.4l-9.3,29.4h-15.5l-16.6-45.9h15.9l8.8,29.4l9.7-29.4h14.2l9.7,29.4l8.8-29.4H1621.1z
		 M1625.4,471.7c0-15.7,12.1-24.4,30.3-24.4c18.2,0,30.3,8.8,30.3,24.4c0,15.7-12.1,24.4-30.3,24.4
		C1637.5,496.1,1625.4,487.4,1625.4,471.7 M1669.9,471.7c0-7.5-5.4-11.9-14.2-11.9c-8.8,0-14.2,4.4-14.2,11.9
		c0,7.5,5.4,11.9,14.2,11.9C1664.5,483.6,1669.9,479.2,1669.9,471.7 M1734.3,494.6l-11-13.5h-10.6v13.5h-15.7v-45.9h32.3
		c12.1,0,21.8,5.2,21.8,16.2c0,7.5-4.5,12.4-11.4,14.7l12.8,15H1734.3z M1727.9,470.4c4.1,0,7-1.2,7-5.1c0-3.9-2.9-5.1-7-5.1h-15.3
		v10.2H1727.9z M1799.7,494.6l-13.2-18l-8.4,8v10h-15.8v-45.9h15.8v19.4l19.7-19.4h19.1l-19.3,18.4l20.5,27.5H1799.7z"/>
	<rect x="274.4" y="7.1" class="st0" width="103.4" height="388.6"/>
	<path class="st0" d="M410.4,329.6c0-46.4,25.9-71.9,89.1-91.6l76.4-23.8c-2.9-16.2-11.5-23.2-34.5-23.2c-32.8,0-69.5,18-93.1,44.7
		l-46-76.6c35.6-32.5,85.6-55.7,144.8-55.7c73,0,117.8,36,117.8,109.6v86.4c0,12.8,3.4,16.8,13.8,16.8h16.7v79.5h-58.6
		c-32.2,0-63.8-13.9-63.8-54.5v-22c-8.6,37.1-30.5,82.9-88.5,82.9C443.2,402.1,410.4,381.2,410.4,329.6 M524.2,329.6
		c33.9,0,48.8-13.3,48.8-42.9V278l-46.6,16.8c-19.5,7-24.1,12.8-24.1,20.3C502.4,324.4,509.3,329.6,524.2,329.6"/>
	<polygon class="st0" points="762.6,395.7 664.9,109.2 779.8,109.2 808,224.6 828.6,341.2 848.8,224.6 876.9,109.2 990.7,109.2 
		893,395.7 	"/>
	<path class="st0" d="M975.5,252.4c0-85.3,56.9-149.1,147.7-149.1c95.4,0,152.3,63.8,152.3,149.1c0,85.3-56.9,149.1-152.3,149.1
		C1032.4,401.5,975.5,337.7,975.5,252.4 M1170.3,252.4c0-49.9-18.4-65.5-44.8-65.5c-26.4,0-44.8,15.7-44.8,65.5
		c0,49.9,18.4,65.5,44.8,65.5C1152,318,1170.3,302.3,1170.3,252.4"/>
	<path class="st0" d="M1298.2,309.9V109.2h103.4v160.1c0,34.8,6.3,53.4,37.4,53.4c29.9,0,37.4-11,37.4-57.4v-156h103.4v286.5h-103.4
		v-85.3c-8,47.6-33.9,91.1-93.1,91.1C1330.3,401.5,1298.2,368.5,1298.2,309.9"/>
	<path class="st0" d="M34.5,395.7V199.6H0v-78.9h34.5c0.1-2.6,0.1-9.9,0.7-12.4C55.1,12.6,114.8-2.4,173.6,0.3
		c35.8,1.6,61.9,14.7,76.3,22.2l-26.7,72.1c-9.8-8.7-20.3-19.1-50.3-19.1c-20.5,0-32,10.5-35.1,23.7c-1.5,6.6-2.3,13.2-0.9,21.5
		h86.3v78.9h-85.2v196.1H34.5z"/>
	<path class="st0" d="M1858.3,124.8c-10.3-14.3-27.9-21.5-53.1-21.5c-15.9,0-29.6,3.5-41.2,10.4c-11.6,7-21.2,16.2-28.7,27.6
		c-7.5,11.4-13.4,23.8-17.7,37.1c-3,9.4-5.3,18.7-7,28v-97.4h-104.4v286.5h104.4V251.3c0-15.5,2.1-28.3,6.4-38.6
		c4.3-10.2,10-17.9,17.1-22.9c7.1-5,14.6-7.5,22.3-7.5c8.5,0,14.6,2.5,18.3,7.5c3.7,5,5.5,11.6,5.5,19.7c0,7.5-3.5,19.1-7.3,23.5
		l86,18.1c2.6-6.1,5.3-13.3,8.1-21.8c4.4-13.9,6.7-29.6,6.7-47C1873.6,158.3,1868.5,139.1,1858.3,124.8"/>
</g>
</svg>
