<svg xmlns="http://www.w3.org/2000/svg" viewBox="0 0 73 73" width="90" height="90">
  <path d="M21.014,32.776H14.428a.19.19,0,0,0-.19.19v7.053a.189.189,0,0,0,.19.189h1.3a.188.188,0,0,0,.189-.189V34.438a.092.092,0,0,1,.092-.092h5.006a.189.189,0,0,0,.189-.189V32.966A.19.19,0,0,0,21.014,32.776Zm-1.539,2.805H17.34a.22.22,0,0,0-.22.22v2.135a.194.194,0,0,0,.33.137l2.161-2.162A.193.193,0,0,0,19.475,35.581Zm6.09-2.978a3.906,3.906,0,1,0,0,7.794,3.906,3.906,0,1,0,0-7.794Zm0,6.356a2.459,2.459,0,1,1,0-4.918,2.459,2.459,0,1,1,0,4.918ZM36,36.218l2.161-3.125a.2.2,0,0,0-.165-.315H36.546a.2.2,0,0,0-.166.088l-1.808,2.653H32.409v-2.54a.2.2,0,0,0-.2-.2H30.943a.2.2,0,0,0-.2.2v7.029a.2.2,0,0,0,.2.2h1.265a.2.2,0,0,0,.2-.2V37.051h2.2l1.89,3.062a.2.2,0,0,0,.171.095h1.51a.2.2,0,0,0,.169-.308Zm10.646-3.44H45.364a.2.2,0,0,0-.2.2v3.6c0,1.451-.658,2.337-2.123,2.337s-2.123-.886-2.123-2.337v-3.6a.2.2,0,0,0-.2-.2H39.438a.2.2,0,0,0-.2.2v3.588a3.5,3.5,0,0,0,3.8,3.83,3.5,3.5,0,0,0,3.8-3.83V32.979A.2.2,0,0,0,46.642,32.778Zm6.174,2.97-2.23-.256c-.578-.067-.967-.174-.967-.6s.349-.793,1.8-.793a4.839,4.839,0,0,1,2.794.747.181.181,0,0,0,.249-.055l.611-.936a.182.182,0,0,0-.047-.248,5.942,5.942,0,0,0-3.607-1c-1.894,0-3.453.726-3.453,2.3,0,1.384.927,1.975,2.445,2.15l2.5.282c.631.067.846.269.846.672,0,.631-.86.927-2.042.927a5.3,5.3,0,0,1-3.08-.927.182.182,0,0,0-.258.056l-.605.995a.182.182,0,0,0,.049.244,5.965,5.965,0,0,0,3.706,1.1c2.23,0,3.856-.753,3.856-2.419C55.383,36.608,54.4,35.936,52.816,35.748Zm3.964-2.257h1.3v2.6h.852v-2.6h1.3v-.71H56.78Zm7.03-.71-.725,1.581c-.128.275-.251.55-.374.825-.114-.28-.246-.55-.374-.825L61.6,32.781h-.952L62.27,36.1h.877l1.615-3.315Z" style="fill: #000"/>
</svg>
