<?xml version="1.0" encoding="UTF-8"?>
<svg version="1.1" viewBox="0 0 67.701 40.937" xmlns="http://www.w3.org/2000/svg">
    <path d="m0.66 28.347v-28.347h17.207l0.53 7.753h-9.636v3.695h7.851v7.737h-7.907v9.162h-8.045m66.275-0.084-8.61-14.707 7.822-13.556h-8.617l-3.573 6.102-3.513-6.102h-8.914l7.97 13.65-8.442 14.63 8.66-4e-3 4.133-7.164 4.177 7.151h8.908"/>
    <path d="m34.24 19.87v-11.326c0-1.289-1.132-2.448-2.41-2.448-1.272 0-2.304 1.16-2.304 2.448l-5e-3 11.29c0 1.293 1.037 2.34 2.31 2.34 1.277 0 2.41-1.011 2.41-2.306zm-16.062-5.662c0-7.606 6.094-13.78 13.612-13.78 7.525 0 13.621 6.174 13.621 13.78 0 7.617-6.096 13.786-13.621 13.786-7.518 0-13.612-6.169-13.612-13.786zm-18.178 26.443v-1.465l0.755-0.725h6.105l0.23-0.228v-1.553l-0.166-0.168h-5.667l-1.257-1.245v-3.57l1.45-1.437h8.215v1.58l-0.59 0.6h-5.961l-0.23 0.228v1.516l0.166 0.163h5.655l1.256 1.25v3.618l-1.447 1.435h-8.514m18.579-5.359 0.423-0.418v-1.99l-0.423-0.419h-3.933v2.827zm-6.82-5.03h8.526l1.615 1.6v3.851l-1.615 1.603h-5.639v3.336h-2.887zm18.469 7.957 0.596-0.58v-4.536l-0.596-0.587h-3.356l-0.588 0.587v4.535l0.588 0.581zm-6.815 0.835v-7.191l1.6-1.602h7.077l1.615 1.602v7.191l-1.615 1.598h-7.076zm18.944-4.335 0.41-0.407v-1.515l-0.41-0.407h-3.885v2.329zm-6.767-4.458h8.614l1.45 1.436v3.317l-1.384 1.373 1.821 4.265h-3.208l-1.356-3.769h-3.054v3.77h-2.883zm14.37 2.408h-3.334v-2.408h9.553v2.408h-3.333v7.983h-2.885v-7.983m7.775 8.269v-1.467l0.757-0.725h6.104l0.23-0.227v-1.554l-0.166-0.167h-5.665l-1.26-1.246v-3.57l1.45-1.437h8.217v1.58l-0.59 0.6h-5.958l-0.231 0.228v1.516l0.165 0.164h5.657l1.255 1.25v3.618l-1.45 1.437h-8.515"/>
</svg>
