<svg width="278" height="77" viewBox="0 0 278 77" fill="none" xmlns="http://www.w3.org/2000/svg"><path fill-rule="evenodd" clip-rule="evenodd" d="M72.255 25.595L86.166 8.676V0H39.615v13.015h25.051l-13.77 16.131V38.5c2.849-1.41 6.135-2.169 9.201-2.169 8.544 0 15.116 5.965 15.116 13.882 0 8.133-7.12 13.773-14.35 13.773-5.804 0-11.062-3.145-14.238-7.591L36 65.179C42.79 72.77 51.882 77 61.412 77 77.294 77 90 66.264 90 50.213c0-11.495-7.23-20.605-17.745-24.618" fill="#000"/><circle cx="14" cy="50" r="14" fill="#0082E6"/><path d="M107.824 47.362v17.04h3.12v-6.216c.84.648 1.944 1.056 3.288 1.056 3.168 0 5.712-2.52 5.712-6.072 0-3.528-2.52-6.048-5.664-6.048-1.344 0-2.568.432-3.576 1.248v-1.008h-2.88zm9 5.808c0 1.92-1.392 3.24-3.072 3.24-1.176 0-2.136-.528-2.808-1.368v-3.72c.768-.888 1.752-1.368 2.856-1.368 1.656 0 3.024 1.344 3.024 3.216zm14.425-5.808v1.008c-1.008-.816-2.232-1.248-3.576-1.248-3.144 0-5.664 2.52-5.664 6.048 0 3.552 2.544 6.072 5.712 6.072 1.464 0 2.64-.504 3.528-1.248v1.008h2.88v-11.64h-2.88zm-6.12 5.808c0-1.872 1.368-3.216 3.024-3.216 1.104 0 2.088.48 2.856 1.368v3.72c-.672.84-1.632 1.368-2.808 1.368-1.68 0-3.072-1.32-3.072-3.24zm16.656 11.232l7.896-17.04h-3.216l-3.288 7.248-3.6-7.248h-3.336l5.328 10.584-3 6.456h3.216zm8.53-6.84c1.392 1.176 3.096 1.68 4.752 1.68 2.28 0 4.56-1.296 4.56-3.648 0-4.08-5.64-3.528-5.64-4.968 0-.6.72-.864 1.584-.864.84 0 1.632.336 2.256.744l1.392-2.112c-.864-.696-2.376-1.272-3.888-1.272-2.304 0-4.464 1.392-4.464 3.624 0 3.744 5.64 3.12 5.64 4.872 0 .576-.648.984-1.488.984-1.176 0-2.4-.48-3.192-1.08l-1.512 2.04zm29.236-15.6h-3.12v6.216c-.96-.696-2.112-1.056-3.336-1.056-3.144 0-5.664 2.52-5.664 6.048 0 3.552 2.544 6.072 5.712 6.072 1.464 0 2.64-.504 3.528-1.248v1.008h2.88v-17.04zm-9 11.208c0-1.872 1.368-3.216 3.024-3.216 1.104 0 2.088.48 2.856 1.368v3.72c-.672.84-1.632 1.368-2.808 1.368-1.68 0-3.072-1.32-3.072-3.24zm21 2.16c-.6.576-1.656 1.272-2.976 1.272-1.656 0-3-1.008-3.168-2.64h8.088c.048-.264.072-.576.072-.888 0-3.24-2.16-5.952-5.496-5.952-3.528 0-5.664 2.832-5.664 6.072 0 3.624 2.568 6.048 6 6.048 1.872 0 3.696-.744 4.872-2.088l-1.728-1.824zm-6.048-3.528c.144-1.128 1.152-2.112 2.568-2.112 1.392 0 2.28 1.008 2.376 2.112h-4.944zm19.824-9.84h-3.12v17.04h3.12v-17.04zm12.101 5.4v1.008c-1.008-.816-2.232-1.248-3.576-1.248-3.144 0-5.664 2.52-5.664 6.048 0 3.552 2.544 6.072 5.712 6.072 1.464 0 2.64-.504 3.528-1.248v1.008h2.88v-11.64h-2.88zm-6.12 5.808c0-1.872 1.368-3.216 3.024-3.216 1.104 0 2.088.48 2.856 1.368v3.72c-.672.84-1.632 1.368-2.808 1.368-1.68 0-3.072-1.32-3.072-3.24zm21.582-11.208h-3.12v17.04h3.12v-17.04zm5.957 11.232c0-1.752 1.176-3.24 3-3.24s3 1.488 3 3.24c0 1.752-1.176 3.216-3 3.216s-3-1.464-3-3.216zm-3.12 0c0 3.36 2.616 6.048 6.12 6.048s6.12-2.688 6.12-6.048-2.616-6.072-6.12-6.072-6.12 2.712-6.12 6.072zm18.186-5.832h-3.12v11.64h3.12v-11.64zm-3.528-4.2c0 1.08.888 1.92 1.968 1.92s1.968-.84 1.968-1.92-.888-1.92-1.968-1.92-1.968.84-1.968 1.92zm14.501 4.128a3.997 3.997 0 00-.936-.096c-1.416 0-2.688.48-3.384 1.344v-1.176h-3v11.64h3.12v-7.32c.744-1.152 1.968-1.656 3.12-1.656.456 0 .768.024 1.08.072V47.29zm10.478 8.04c-.6.576-1.656 1.272-2.976 1.272-1.656 0-3-1.008-3.168-2.64h8.088c.048-.264.072-.576.072-.888 0-3.24-2.16-5.952-5.496-5.952-3.528 0-5.664 2.832-5.664 6.072 0 3.624 2.568 6.048 6 6.048 1.872 0 3.696-.744 4.872-2.088l-1.728-1.824zm-6.048-3.528c.144-1.128 1.152-2.112 2.568-2.112 1.392 0 2.28 1.008 2.376 2.112h-4.944z" fill="#000"/></svg>