<?xml version="1.0" encoding="utf-8"?>
<!-- Generator: Adobe Illustrator 22.0.1, SVG Export Plug-In . SVG Version: 6.00 Build 0)  -->
<svg version="1.1" id="Livello_1" xmlns="http://www.w3.org/2000/svg" xmlns:xlink="http://www.w3.org/1999/xlink" x="0px" y="0px"
	 viewBox="0 0 1582.6 595.3" style="enable-background:new 0 0 1582.6 595.3;" xml:space="preserve">
<style type="text/css">
	.st0{fill:#0082E6;}
	.st1{fill:#232323;}
</style>
<g>
	<path class="st0" d="M222.1,383.6c0,61.3-49.7,111.1-111.1,111.1S0,444.9,0,383.6c0-61.3,49.7-111.1,111.1-111.1
		S222.1,322.2,222.1,383.6"/>
	<path class="st1" d="M561,197.9L667.5,67.1V0H311.1v100.6h191.8L397.5,225.3v72.3c21.8-10.9,46.9-16.8,70.4-16.8
		c65.4,0,115.7,46.1,115.7,107.3c0,62.9-54.5,106.5-109.8,106.5c-44.4,0-84.7-24.3-109-58.7l-81.3,67.9
		c52,58.7,121.6,91.4,194.5,91.4c121.6,0,218.8-83,218.8-207.1C696.8,299.3,641.5,228.9,561,197.9"/>
	<rect x="806.9" y="312.3" class="st1" width="25.7" height="140.3"/>
	<path class="st1" d="M875.1,306.4c9.3,0,16.8,7.1,16.8,16.4c0,9.3-7.5,16.4-16.8,16.4c-9.3,0-16.8-7.1-16.8-16.4
		C858.3,313.5,865.8,306.4,875.1,306.4 M887.9,452.6h-25.7v-95.8h25.7V452.6z"/>
	<path class="st1" d="M917.6,452.6v-95.8h24.7v7.7c7.5-6.7,16.6-9.7,25.9-9.7c13.1,0,24.7,5.9,32.2,15c7.7-8.1,19.7-15,34-15
		c13.2,0,25.9,5.9,33.6,15.4c6.1,7.5,9.7,17.4,9.7,31.6v50.8h-25.7v-51.8c0-8.7-1.8-13-4.8-16.4c-3.9-4.3-9.5-5.9-14.4-5.9
		c-11.1,0-19.8,7.7-23.1,12.7c0.4,3.2,0.8,6.7,0.8,10.7v50.8h-25.7v-51.8c0-8.7-1.8-13-4.7-16.4c-4-4.3-9.5-5.9-14.4-5.9
		c-10.9,0-18.8,7.3-22.3,11.9v62.2H917.6z"/>
	<path class="st1" d="M1148.3,354.8c29,0,51,22.3,51,50c0,27.7-21.9,49.8-51,49.8c-29,0-51-22.1-51-49.8
		C1097.3,377.1,1119.3,354.8,1148.3,354.8 M1148.3,430.9c15,0,25.3-11.7,25.3-26.1c0-14.4-10.3-26.3-25.3-26.3
		c-15,0-25.3,11.8-25.3,26.3C1123,419.2,1133.3,430.9,1148.3,430.9"/>
	<path class="st1" d="M1311.9,356.8v95.8h-24.7v-7.7c-7.5,6.7-16.6,9.7-25.9,9.7c-13.2,0-25.1-6.1-32.6-15.4
		c-6.1-7.5-9.7-17.4-9.7-31.6v-50.8h25.7v51.8c0,8.7,1.8,13,4.8,16.4c4,4.3,9.5,5.9,14.4,5.9c10.9,0,18.8-7.3,22.3-11.9v-62.2
		H1311.9z"/>
	<path class="st1" d="M1344.5,423.3c6.5,5.9,16.6,9.5,26.3,9.5c6.9,0,12.2-3.4,12.2-8.1c0-14.4-46.4-9.3-46.4-40.1
		c0-18.4,17.8-29.8,36.7-29.8c12.5,0,26.1,4.8,32.4,9.7l-12,18.6c-4.9-3.6-11.5-6.5-18.4-6.5c-7.1,0-13,2.8-13,7.7
		c0,12.4,46.4,7.5,46.4,40.7c0,18.4-18,29.6-38.1,29.6c-13.2,0-27.3-4.5-38.5-12.8L1344.5,423.3z"/>
	<path class="st1" d="M1445.3,306.4c9.3,0,16.8,7.1,16.8,16.4c0,9.3-7.5,16.4-16.8,16.4c-9.3,0-16.8-7.1-16.8-16.4
		C1428.5,313.5,1436,306.4,1445.3,306.4 M1458.1,452.6h-25.7v-95.8h25.7V452.6z"/>
	<path class="st1" d="M1487.7,452.6v-95.8h24.7v7.7c7.3-5.9,16.4-9.7,27.1-9.7c13.2,0,25.3,5.9,33.2,15.4c6.3,7.5,9.9,17.2,9.9,33.6
		v48.8h-25.7v-50.8c0-9.5-2.2-14.4-5.7-18c-3.4-3.4-8.5-5.3-14.4-5.3c-10.9,0-19.7,6.9-23.3,11.9v62.2H1487.7z"/>
</g>
</svg>
