<?xml version="1.0" encoding="utf-8"?>
<!-- Generator: Adobe Illustrator 25.4.1, SVG Export Plug-In . SVG Version: 6.00 Build 0)  -->
<svg version="1.1" id="Calque_1" xmlns="http://www.w3.org/2000/svg" xmlns:xlink="http://www.w3.org/1999/xlink" x="0px" y="0px"
	 viewBox="0 0 757.4 369.7" style="enable-background:new 0 0 757.4 369.7;" xml:space="preserve">
<style type="text/css">
	.st0{fill:#131313;}
	.st1{fill:#0082FC;}
</style>
<g>
	<path class="st0" d="M584.2,188v94.4h-14.1l-52.5-61.2v61.2h-18.8V188h14.1l52.5,61.2V188H584.2z"/>
</g>
<g>
	<path class="st0" d="M604.2,277.4c-6-6-9-13.4-9-22.1c0-8.7,3-16.1,9-22.2c6-6.1,13.5-9.1,22.5-9.1c9,0,16.5,3,22.5,9.1
		c6,6.1,9,13.5,9,22.2c0,8.7-3,16.1-9,22.1c-6,6-13.5,9-22.5,9C617.7,286.4,610.2,283.4,604.2,277.4z M615.5,243.4
		c-2.8,3.3-4.3,7.2-4.3,11.8c0,4.6,1.4,8.5,4.3,11.7c2.8,3.2,6.6,4.8,11.2,4.8c4.6,0,8.3-1.6,11.2-4.8c2.8-3.2,4.3-7.1,4.3-11.7
		c0-4.6-1.4-8.5-4.3-11.8c-2.8-3.3-6.6-4.9-11.2-4.9C622.1,238.6,618.4,240.2,615.5,243.4z"/>
</g>
<g>
	<path class="st0" d="M682.6,281.7h-19.1l39.8-96.1H717l39.8,96.1h-19.6l-8.8-21.3h-37.1L682.6,281.7z M710.2,214.4L698.2,244h23.5
		L710.2,214.4z"/>
</g>
<g id="layer1" transform="translate(-915.1226,1230.071)">
	<path id="path4325" class="st1" d="M1055-991.4c0,38.6-31.3,69.8-69.8,69.8c-38.6,0-69.8-31.3-69.8-69.8
		c0-38.6,31.3-69.8,69.8-69.8C1023.7-1061.2,1055-1029.9,1055-991.4"/>
	<g id="flowRoot4423" transform="matrix(30.068362,0,0,30.068362,-46028.997,-27371.458)">
		<path id="path4432" class="st0" d="M1567.1,879.8l1.7-1.4c0.3,0.4,0.6,0.6,1,0.9c0.4,0.2,0.8,0.3,1.3,0.3c0.3,0,0.6-0.1,0.8-0.2
			c0.3-0.1,0.5-0.3,0.7-0.5s0.4-0.4,0.5-0.7s0.2-0.6,0.2-0.9c0-0.3-0.1-0.6-0.2-0.9s-0.3-0.5-0.5-0.7c-0.2-0.2-0.5-0.4-0.8-0.5
			c-0.3-0.1-0.6-0.2-0.9-0.2c-0.5,0-1,0.1-1.5,0.3v-1.4l2.3-2.7h-4.1v-2.1h7.4v1.4l-2.2,2.7c0.8,0.3,1.5,0.8,2,1.5
			c0.5,0.7,0.8,1.5,0.8,2.4c0,0.6-0.1,1.2-0.4,1.8c-0.2,0.5-0.6,1-1,1.3s-0.9,0.7-1.4,0.9c-0.6,0.2-1.1,0.3-1.8,0.3
			c-0.8,0-1.5-0.2-2.2-0.5C1568.3,880.9,1567.7,880.4,1567.1,879.8L1567.1,879.8z"/>
	</g>
</g>
</svg>
