<?xml version="1.0" encoding="utf-8"?>
<!-- Generator: Adobe Illustrator 24.0.0, SVG Export Plug-In . SVG Version: 6.00 Build 0)  -->
<svg version="1.1" id="Layer_1" xmlns="http://www.w3.org/2000/svg" xmlns:xlink="http://www.w3.org/1999/xlink" x="0px" y="0px"
	 viewBox="0 0 100 30" style="enable-background:new 0 0 100 30;" xml:space="preserve">
<style type="text/css">
	.st0{fill:#E20613;}
	.st1{fill:#FFFFFF;}
	.st2{fill:#164193;}
</style>
<g id="Layer_4">
	<g>
		<path class="st0" d="M96.2,11.6c0,5.4-4.3,9.7-9.7,9.7H13.8c-5.4,0-9.7-4.3-9.7-9.7l0,0c0.1-5.4,4.4-9.7,9.7-9.7h72.7
			C91.7,1.9,96.2,6.2,96.2,11.6L96.2,11.6z"/>
		<g>
			<g>
				<g>
					<path class="st1" d="M28.9,7.9h6.6c0.1,0,0.1,0.1,0.1,0.2l-0.1,0.5c0,0.2-0.1,0.2-0.3,0.2h-6.5L28.9,7.9z M35.9,16
						c0,0,0.7-1.2,0.7-1.7c0-0.5-0.4-0.6-0.4-0.6c-0.7-0.4-1.1,0.2-1.1,0.2c-0.6,1.6-0.8,1.7-0.8,1.7c-0.2,0.3-0.6,0-0.6,0
						c-0.7-0.6-0.9-1.9-1-2.8h3.5c0.5,0,0.8-0.4,0.9-0.7v-0.1V12c0-0.3-0.1-0.6-0.5-0.6H33h-0.1c0-0.5,0-1,0.1-1.1h3.3
						c0.5,0,0.8-0.4,0.8-0.7l0.5-2.5V7c0.1-0.3-0.1-0.6-0.5-0.6h-9.4l-1.8,9.3h-0.1c-0.4,0.1-0.9,0.1-0.9,0.1l-0.3,1.5
						c0,0,0.3,0,0.7-0.1l0.6-0.1c1.5-0.3,3.7-0.8,4.9-1.2c0.2-0.1,0.4-0.3,0.4-0.6c0-0.4-0.3-0.9-0.8-0.8c-0.1,0-0.4,0.1-0.4,0.1
						c-1.2,0.4-1.6,0.5-2.4,0.6l0.5-2.3h3.4c0,0.8,0.3,1.5,0.4,1.9c0.7,2,1.4,2.4,2.3,2.5c0.3,0,0.5-0.1,0.5-0.1
						C35.4,17.2,35.9,16,35.9,16 M28.5,10.3h2.9l-0.1,1.1h-3.1L28.5,10.3z"/>
					<path class="st1" d="M24.4,17.4l0.3-1.7h0.1c0,0,0.5-0.1,0.9-0.2h0.1l1.8-9.3H37c0.3,0,0.4,0.1,0.5,0.2
						c0.1,0.2,0.1,0.4,0.1,0.6v0.1l-0.5,2.5c-0.1,0.3-0.4,0.8-0.9,0.8h-3.2c0,0.2-0.1,0.7-0.1,1.1l0,0h3.8c0.2,0,0.4,0.1,0.5,0.2
						c0.1,0.1,0.1,0.3,0.1,0.5v0.1v0.1c-0.1,0.3-0.4,0.7-0.9,0.8h-3.4c0.1,1,0.3,2.1,1,2.6c0,0,0.2,0.1,0.3,0.1c0.1,0,0.1,0,0.2-0.1
						l0,0l0,0c0,0,0.3-0.2,0.8-1.7l0,0c0,0,0.4-0.6,1.1-0.2c0,0,0.4,0.2,0.4,0.7s-0.7,1.6-0.7,1.7c0,0.1-0.6,1.2-1.4,1.3
						c-0.1,0-0.3,0.1-0.6,0.1c-0.8-0.1-1.7-0.4-2.4-2.6c-0.1-0.3-0.4-1.1-0.4-1.8H28l-0.5,2.1c0.6-0.1,0.9-0.2,1.5-0.4
						c0.2-0.1,0.5-0.1,0.8-0.2c0,0,0.3-0.1,0.4-0.1c0.2,0,0.4,0,0.6,0.2s0.3,0.5,0.3,0.7c0,0.3-0.2,0.6-0.4,0.7
						c-0.9,0.4-2.5,0.8-4.9,1.2l-0.6,0.1C24.8,17.5,24.5,17.5,24.4,17.4L24.4,17.4z M27.9,12.8h3.5v0.1c0,0.8,0.3,1.6,0.4,1.9
						c0.7,2.1,1.5,2.3,2.3,2.4c0.3,0,0.5-0.1,0.5-0.1l0,0c0.8,0,1.2-1.1,1.2-1.2l0,0c0.2-0.4,0.7-1.2,0.7-1.6c0-0.4-0.3-0.5-0.3-0.5
						c-0.6-0.3-1,0.1-1,0.2c-0.5,1.3-0.8,1.7-0.8,1.7c-0.1,0.1-0.2,0.2-0.3,0.2c-0.2,0-0.4-0.2-0.4-0.2c-0.7-0.6-1-1.8-1-2.8v-0.1
						h3.6c0.5,0,0.7-0.4,0.8-0.6v-0.1v-0.1c0-0.1,0-0.3-0.1-0.4c-0.1-0.1-0.2-0.1-0.3-0.1h-3.8h-0.2v-0.1c0-0.2,0-0.9,0.1-1.2v-0.1
						h3.3c0.5,0,0.7-0.4,0.8-0.6L37.5,7c0-0.1,0-0.3-0.1-0.4c-0.1-0.1-0.2-0.1-0.3-0.1h-9.3L26,15.8h-0.2c-0.3,0.1-0.7,0.1-0.9,0.2
						l-0.3,1.3c0.1,0,0.3,0,0.6-0.1l0.6-0.1c2.4-0.5,4-0.9,4.8-1.1c0.2-0.1,0.3-0.3,0.3-0.5S30.8,15,30.6,15
						c-0.1-0.1-0.3-0.1-0.4-0.1S29.8,15,29.8,15C29.5,15,29.3,15,29,15.1c-0.8,0.2-1.1,0.3-1.7,0.4h-0.1L27.9,12.8z M31.3,11.5h-3.3
						l0.3-1.3h3.1L31.3,11.5z M28.4,11.4h2.9l0.1-1.1h-2.8L28.4,11.4z M35.3,8.9L35.3,8.9h-6.7l0.2-1.1h6.6c0.1,0,0.2,0,0.2,0.1
						s0.1,0.1,0,0.2l0.1,0.6C35.6,8.8,35.5,8.9,35.3,8.9z M28.8,8.7h6.4c0.1,0,0.1,0,0.2-0.2l0.1-0.5c0-0.1,0-0.1,0-0.1s0,0-0.1,0
						h-6.5L28.8,8.7z"/>
				</g>
				<g>
					<path class="st1" d="M39.7,17.3h1.5l1.6-7.8h1.2l0,0c0.4,0,0.8-0.3,0.9-0.7c0.1-0.4-0.2-0.7-0.6-0.7l0,0h-4.8l-0.3,1.3h2
						L39.7,17.3z"/>
					<path class="st1" d="M41.3,17.4h-1.7l1.5-7.8h-2l0.3-1.5h5l0,0c0.2,0,0.3,0.1,0.4,0.2c0.1,0.2,0.2,0.4,0.1,0.6
						c-0.1,0.4-0.5,0.8-1,0.8h-1.1L41.3,17.4z M39.8,17.2h1.3l1.6-7.8H44c0.4,0,0.7-0.3,0.8-0.6c0-0.2,0-0.3-0.1-0.4
						c-0.1-0.1-0.2-0.2-0.4-0.2h-0.1l0,0h-4.6l-0.2,1.1h2L39.8,17.2z"/>
				</g>
				<g>
					<path class="st1" d="M43.9,7.8c0.4,0,0.8-0.3,0.9-0.7c0.1-0.4-0.2-0.7-0.6-0.7l0,0h-0.3h-3.6h-0.1l-0.3,1.3h0.6h1.9L43.9,7.8
						L43.9,7.8z"/>
					<path class="st1" d="M40.4,7.9h-0.7l0.3-1.5h4.1l0,0c0.2,0,0.4,0.1,0.5,0.2c0.1,0.2,0.2,0.4,0.1,0.6c-0.1,0.4-0.5,0.8-1,0.8
						H40.4z M40,7.7h3.9c0.4,0,0.7-0.3,0.8-0.6c0-0.2,0-0.3-0.1-0.4c-0.1-0.1-0.2-0.2-0.4-0.2h-0.1h-0.2h-3.6L40,7.7z"/>
				</g>
				<g>
					<path class="st1" d="M42.3,15c-0.1,0.2,0.2,0.6,0.5,0.6c0.4,0,0.6-0.1,0.7-0.6l0,0l0,0l1-4.7h-1.1L42.3,15L42.3,15z"/>
					<path class="st1" d="M42.8,15.6L42.8,15.6c-0.2,0-0.4-0.1-0.5-0.2c-0.1-0.1-0.2-0.3-0.1-0.5v-0.1l1-4.7h1.3l-1,4.9
						C43.5,15.4,43.3,15.6,42.8,15.6z M42.4,15c0,0.1,0,0.2,0.1,0.3c0.1,0.1,0.2,0.2,0.3,0.2c0.4,0,0.6-0.2,0.6-0.6l0,0l0.9-4.5h-1
						L42.4,15z"/>
				</g>
				<g>
					<path class="st1" d="M45.4,13.3c-0.4,1.2-1.1,2-2,2.5l0,0c-1.1,0.5-0.7,1.2-0.7,1.2c0.5,0.6,1.2,0.1,1.2,0.1s0.3-0.2,0.5-0.3
						c1.3-0.9,2.1-2.3,2.3-3.5h0.6l0,0l-0.5,2.4c0,0.6-0.4,1.3,0.8,1.6h1.8c0.9-0.1,1.2-1,1.3-1.6l0.2-0.9v-0.3
						c0-0.3-0.2-0.7-0.8-0.7c-0.5,0-0.7,0.5-0.7,0.7c-0.1,0.9-0.2,1.5-0.6,1.5h-0.2c-0.3,0-0.4,0-0.4-0.3l0.5-2.5h0.3
						c0.8,0,1.1-0.3,1.3-0.8l1.1-5.4V7.1c0-0.4-0.1-0.7-0.7-0.8h-5.1l-1.3,7H45.4 M49.4,9.9L49.4,9.9c0,0.1-0.1,0.2-0.2,0.2l0,0
						h-2.6l0.1-0.6h2.6l0,0c0.1,0,0.1,0,0.1,0.1v0.1L49.4,9.9z M49.8,8c0,0,0,0.1,0,0.2s-0.2,0.1-0.2,0.1H47l0.1-0.5h2.5
						C49.8,7.8,49.8,7.8,49.8,8z M49.1,11.5c0,0,0,0.2-0.1,0.3c0,0.1-0.2,0.1-0.2,0.1h-2.6l0.1-0.6h2.5
						C49.1,11.2,49.1,11.3,49.1,11.5z"/>
					<path class="st1" d="M43.4,17.4c-0.2,0-0.5-0.1-0.7-0.3c0,0-0.2-0.4-0.1-0.8c0.1-0.3,0.4-0.5,0.8-0.7l0,0
						c1-0.4,1.5-1.1,1.9-2.3h-1l1.4-7.1H51c0.2,0,0.4,0.1,0.6,0.2c0.1,0.1,0.2,0.4,0.2,0.6v0.1l-1.1,5.4c-0.1,0.4-0.5,0.9-1.4,0.9
						H49c-0.2,1-0.5,2.3-0.5,2.4c0,0.1,0,0.1,0,0.1s0.1,0,0.2,0h0.1H49c0.3,0,0.4-0.6,0.5-1.3v-0.1c0.1-0.3,0.3-0.7,0.8-0.8
						c0.4,0,0.6,0.1,0.7,0.2c0.1,0.1,0.2,0.3,0.2,0.5v0.3L51,15.4c-0.1,0.4-0.4,1.6-1.4,1.7h-1.8c-1.1-0.2-1-0.9-1-1.4
						c0-0.1,0-0.2,0-0.3l0.5-2.3h-0.5c-0.2,0.8-0.7,2.4-2.3,3.4c-0.1,0.1-0.5,0.3-0.5,0.3C43.9,17.3,43.7,17.4,43.4,17.4z
						 M44.5,13.3h1.1v0.1c-0.4,1.2-1.1,2-2,2.5l0,0c-0.4,0.1-0.6,0.3-0.7,0.6s0.1,0.6,0.1,0.6c0.4,0.5,1.1,0.1,1.1,0
						c0,0,0.3-0.2,0.5-0.3c1.6-1.1,2.1-2.8,2.3-3.4v-0.1h0.8l-0.5,2.5c0,0.1,0,0.2,0,0.3c-0.1,0.5-0.2,1.1,0.8,1.2h1.7
						c1-0.1,1.2-1.2,1.2-1.6l0.2-0.8v-0.3c0-0.1,0-0.3-0.1-0.4c-0.1-0.1-0.3-0.2-0.6-0.2c-0.5,0-0.6,0.5-0.6,0.6v0.1
						c-0.1,0.9-0.3,1.5-0.7,1.5H49h-0.1c-0.2,0-0.3,0-0.4-0.1c-0.1-0.1-0.1-0.2,0-0.3l0,0c0-0.1,0.1-0.5,0.5-2.5v-0.1h0.4
						c0.7,0,1.1-0.2,1.2-0.8L51.6,7c0-0.2,0-0.4-0.1-0.5s-0.2-0.1-0.4-0.2h-5.1L44.5,13.3z M46.3,12L46.3,12l0.1-0.8h2.5
						c0.1,0,0.2,0,0.3,0.1c0.1,0.1,0.1,0.2,0,0.2l0,0c0,0,0,0.2-0.1,0.3c0,0.1-0.2,0.2-0.3,0.2H46.3z M46.4,11.8h2.5H49
						c0-0.1,0.1-0.3,0.1-0.3c0-0.1,0-0.1,0-0.1s0,0-0.2,0h-2.4L46.4,11.8z M46.6,10.1l0.1-0.7h2.7c0.1,0,0.2,0.1,0.2,0.2l0,0v0.1
						L49.4,10c0,0.1-0.1,0.1-0.2,0.1l0,0H46.6z M46.8,9.6L46.8,10h2.5c0,0,0.1,0,0.1-0.1l0,0l0,0V9.6l0,0l0,0H46.8z M46.8,8.4
						L47,7.8h2.5c0.1,0,0.2,0,0.3,0.1c0.1,0.1,0.1,0.1,0,0.2l0,0v0.2c0,0.1-0.2,0.2-0.3,0.2L46.8,8.4z M47.1,7.9v0.4h2.5h0.1V8.1
						c0-0.1,0-0.1,0-0.1s-0.1,0-0.2,0L47.1,7.9z"/>
				</g>
				<g>
					<path class="st1" d="M39.2,10.4c0,0-0.6,3.3-1.1,4.4c0,0-0.4,0.7,0.2,1.1c0,0,0.7,0.3,1.1-0.6c0,0,0.4-0.7,0.8-3l0.4-1.9
						C40.4,10.4,39.2,10.4,39.2,10.4z"/>
					<path class="st1" d="M38.6,15.9c-0.2,0-0.3-0.1-0.3-0.1c-0.5-0.3-0.4-0.9-0.3-1.1c0.5-1.1,1.1-4.3,1.1-4.4v-0.1h1.4l-0.4,2
						c-0.4,2.3-0.8,3-0.8,3.1C39.2,15.8,38.8,15.9,38.6,15.9z M39.3,10.5c-0.1,0.5-0.7,3.3-1.1,4.3c0,0-0.3,0.7,0.2,1
						c0,0,0.6,0.2,0.9-0.5c0,0,0.4-0.7,0.8-3l0.4-1.8H39.3z"/>
				</g>
			</g>
			<g>
				<path class="st2" d="M15.3,18.9c4,0,7.4-3.3,7.4-7.4c0-4-3.3-7.4-7.4-7.4c-4.1,0.1-7.4,3.4-7.4,7.4
					C7.9,15.6,11.1,18.9,15.3,18.9z"/>
				<path class="st1" d="M15.3,18.1c3.6,0,6.6-3,6.6-6.6s-3-6.6-6.6-6.6s-6.6,3-6.6,6.6C8.6,15.2,11.5,18.1,15.3,18.1z"/>
				<path class="st2" d="M15.3,15.9c2.4,0,4.4-2,4.4-4.4s-2-4.4-4.4-4.4s-4.4,2-4.4,4.4C10.9,14,12.8,15.9,15.3,15.9z"/>
				<path class="st1" d="M16.7,11.5c0.8,0,1.4-0.7,1.4-1.4s-0.7-1.4-1.4-1.4c-0.8,0-1.4,0.7-1.4,1.4C15.3,10.9,15.8,11.5,16.7,11.5z
					"/>
			</g>
			<path class="st1" d="M67.7,6.3h3.6l0,0c0.3,0,0.6,0.1,0.7,0.3c0.1,0.2,0.1,0.4,0.1,0.7l-0.5,2.5c-0.1,0.2-0.2,0.4-0.3,0.6
				c-0.2,0.2-0.5,0.3-0.8,0.3h-2.9l-1.2,6.7h-1.6l2-11.1L67.7,6.3z M68,9l-0.1,0.4h1.8c0.2,0,0.4-0.1,0.4-0.3l0,0l0,0L68,9L68,9z
				 M68.2,8.1L68.2,8.1h2.2V8c0-0.2-0.1-0.3-0.2-0.3h-1.9L68.2,8.1z M73.8,9l-0.1,0.4h1.8c0.2,0,0.4-0.1,0.4-0.3l0,0l0,0L73.8,9
				L73.8,9z M74,8.1L74,8.1h2.2V8c0-0.2-0.1-0.3-0.2-0.3h-1.9L74,8.1z M75.8,10.6H72l0.8-4.3h4.5c0.2,0,0.4,0.1,0.5,0.2
				c0.1,0.2,0.1,0.3,0.1,0.5l-1.6,9c-0.1,0.7-0.5,1.1-1.1,1.4c-0.5,0.2-1.1,0.3-2,0.1c-0.2-0.1-0.3-0.2-0.4-0.5
				c-0.3,0.2-0.5,0.2-0.8,0.2c-0.2,0-0.4,0-0.5-0.1s-0.2-0.3-0.2-0.5l0.1-0.4h-4.6l0.3-1.2h1.1l0.6-2.9h-1l0.2-1.3h6.7
				c0.2,0,0.3,0.1,0.4,0.2c0.1,0.1,0.1,0.3,0.1,0.5c0,0.2-0.1,0.3-0.2,0.5c-0.1,0.1-0.3,0.2-0.4,0.2H74l-0.8,4.1
				c0.2-0.3,0.5-0.4,0.7-0.3c0.4,0,0.6,0,0.8-0.2c0.1-0.1,0.2-0.2,0.2-0.4L75.8,10.6L75.8,10.6 M69.8,15.1h1.9l0.1-0.3h-1.9
				L69.8,15.1z M71.9,13.8l0.1-0.3h-1.9v0.3l0,0H71.9z M72.2,12.5l0.1-0.3h-1.9l-0.1,0.3l0,0H72.2z"/>
			<path class="st1" d="M78.8,9.7l1-0.1c1-1.1,1.9-2.1,2.8-3.3C82.7,6.1,82.8,6,83,6c0.2,0,0.4,0,0.6,0.1c0.2,0.1,0.3,0.2,0.4,0.4
				c0.1,0.2,0,0.4-0.1,0.6c-0.5,0.7-1.1,1.5-2,2.5l5.6-0.3c-0.4-0.7-0.7-1.1-0.8-1.3c-0.1-0.2-0.1-0.3,0-0.5C86.9,7.3,87,7.1,87.2,7
				c0.2-0.1,0.4-0.2,0.6-0.3c0.2,0,0.4,0,0.5,0.2c0.4,0.6,0.7,1.1,1,1.5c0.3,0.5,0.7,1.2,1.1,2.2c0.1,0.2,0.1,0.4-0.1,0.5
				c-0.1,0.2-0.3,0.3-0.5,0.5c-0.2,0.1-0.4,0.2-0.6,0.2c-0.2,0-0.4-0.1-0.4-0.3c-0.1-0.5-0.2-0.7-0.4-1l0,0l-9.9,0.8L78.8,9.7z
				 M80.4,11.8h1h6.4c0.4,0,0.6,0.1,0.8,0.2c0.2,0.1,0.3,0.4,0.2,0.8l-0.7,3.4c-0.1,0.4-0.2,0.7-0.4,0.9c-0.2,0.2-0.5,0.3-1,0.3l0,0
				h-8.4v-0.1l1-5.5L80.4,11.8z M80.7,15.8h5.5c0.3,0,0.4,0,0.4,0s0.1-0.2,0.1-0.4l0.3-1.5c0-0.1,0-0.2,0-0.3c0,0-0.2-0.1-0.4-0.1
				l0,0h-5.5h-0.3l-0.4,2.3H80.7z"/>
			<g>
				<path class="st1" d="M60.8,17.4l1.2-6.4l0,0H61l-0.2,1c-0.1,0.5-0.3,0.9-0.4,1.2c-0.7,1.7-1.5,3.1-2.5,4.1
					c-0.2,0.1-0.4,0.2-0.6,0.2c-0.2,0-0.4-0.1-0.6-0.3c-0.1-0.2-0.2-0.3-0.2-0.6c0-0.2,0.1-0.4,0.3-0.5c0.2-0.2,0.3-0.3,0.4-0.5
					c-0.2,0-0.4,0.1-0.4,0.1c-0.1,0-0.3-0.3-0.8-0.7l-0.5,2.4H54l0.8-4h-0.5h-1.9l0.3-1.5h2.4l0.1-0.5h-2.4l0.3-1.4h1
					c0-0.2-0.1-0.4-0.1-0.4c-0.1-0.5-0.1-0.8,0-1c0.1-0.1,0.2-0.2,0.2-0.2h-1L53.5,7h2.4h1.6h1.7c0.2,0,0.4,0.1,0.4,0.2
					c0.1,0.2,0.1,0.4,0.1,0.6c0,0.2-0.1,0.4-0.2,0.6c-0.1,0.2-0.3,0.3-0.5,0.3h-0.2l0,0c0.1,0.1,0.1,0.3,0,0.5
					c-0.3,0.5-0.5,0.8-0.6,1h0.6c0.2,0,0.3,0.1,0.4,0.2c0.1,0.2,0.1,0.4,0,0.6c0,0.2-0.1,0.4-0.2,0.5c-0.1,0.2-0.3,0.2-0.5,0.2h-1.8
					V12h1.5c0.2,0,0.3,0.1,0.4,0.2c0.1,0.2,0.1,0.4,0,0.6c0,0.2-0.1,0.4-0.2,0.5c-0.1,0.2-0.3,0.2-0.5,0.2h-1.1
					c0.8,0.7,1.1,1.1,1.2,1.1c0.5-0.9,0.9-1.8,1.1-2.7l0.8-4c0-0.4,0.2-0.8,0.4-1c0.2-0.2,0.5-0.3,0.9-0.3c0.5-0.1,1.4-0.2,3-0.5
					C64.7,6,65,6,65.2,6.1c0,0.2,0.1,0.4,0.1,0.6c0,0.3,0,0.5-0.2,0.7c-0.2,0.2-0.7,0.4-1.4,0.5c-0.1,0-0.1,0-0.2,0
					c-1.2,0.2-1.9,0.3-2,0.3c-0.1,0.1-0.1,0.2-0.1,0.3l-0.2,0.9h3.3c0.2,0,0.4,0.1,0.4,0.2c0.1,0.2,0.1,0.4,0.1,0.6
					c0,0.2-0.1,0.4-0.3,0.5c-0.1,0.2-0.3,0.3-0.5,0.3h-0.6l-1.1,6.6H60.8z M56.5,10.1c0.4-0.6,0.7-1.1,0.9-1.4V8.5h-2.1
					c0.2,0.1,0.3,0.6,0.4,1.5l0,0H56.5z"/>
				<path class="st1" d="M52.8,13.9c0,0,0,1.1-0.6,2.4c0,0-0.5,0.8,0.1,1.1c0,0,0.8,0.3,1.1-0.6c0,0,0.2-0.1,0.7-2.6l0.1-0.4
					C54.2,13.9,52.8,13.9,52.8,13.9z"/>
				<path class="st1" d="M57.3,6.6C57.4,6.3,57.1,6,56.7,6c-0.4,0-0.7,0.2-0.9,0.7l0,0l0,0l-0.2,1H57L57.3,6.6L57.3,6.6z"/>
			</g>
		</g>
	</g>
</g>
</svg>
