<svg xmlns="http://www.w3.org/2000/svg" width="109.749" height="39" viewBox="0 0 109.749 39"><path d="M270.781,199.183h-5.868L249.79,224.228h6.085l2.626-4.491h7.835l.153,4.491h5.838ZM261.156,214.9l4.941-9.015h.062l.086,9.015Z" transform="translate(-231.333 -198.647)" fill="#dc000c"/><path d="M353,208.085a16.657,16.657,0,0,0-.078-3.474c-.188-1.44-.356-1.967-.442-3.087-.185-2.308,3.987-4.03,3.987-4.03s-10.554-.007-11.7-.012a12.4,12.4,0,0,0-6.439,1.36c-6.24,3.28-7.821,10.219-8.111,13.662-.589,6.981,2.655,11.083,8.869,11.083C347.07,223.588,352.258,216.888,353,208.085Zm-5.855.561c-.332,3.963-2.958,9.575-7.141,9.575-3.089,0-4.258-2.456-3.987-5.682.348-4.138,2.813-9.681,7.309-9.681C346.446,202.859,347.456,204.927,347.143,208.646Z" transform="translate(-286.384 -197.482)" fill="#dc000c"/><path d="M489.121,199.183h-5.868l-15.123,25.045h6.088l2.626-4.491h7.835l.15,4.491h5.836ZM479.5,214.9l4.935-9.015h.064l.086,9.015Z" transform="translate(-380.916 -198.647)" fill="#dc000c"/><path d="M199.449,223.613c10.148.062,12.913-9.86,13.534-14.238l-9.217,0-1.312,4.839h3.612c-.524,1.182-2.367,4.834-6.345,3.854-2.828-.7-2.769-4.323-2.658-5.5.193-2.026.971-5.749,3.586-8.172a5.667,5.667,0,0,1,4.487-1.466,3.09,3.09,0,0,1,2.8,3.641h5.493c.663-6.055-2.62-9.437-9.421-9.01a11.738,11.738,0,0,0-8.774,4.688,18.806,18.806,0,0,0-3.887,9.47C190.787,216.552,191.221,223.563,199.449,223.613Z" transform="translate(-191.181 -197.512)" fill="#dc000c"/><path d="M421.483,224.228l-1.058-10.381a8.828,8.828,0,0,0,4.434-4.976,10.128,10.128,0,0,0,.756-3.2c.45-5.331-2.543-6.49-6.6-6.49H408.088l-6.725,25.045h5.809l2.449-9.121h5.123s.895,8.925.914,9.121h5.825Zm-8.949-19.994h4.276c1.527,0,3.081.457,2.9,2.6-.228,2.7-2.1,3.438-4.191,3.438H410.9Z" transform="translate(-335.175 -198.647)" fill="#dc000c"/><path d="M240.63,293.5a3.059,3.059,0,0,0-3.312,2.722,2.012,2.012,0,0,0,1.53,2.168c.761.305,1.9.4,1.83,1.235-.038.461-.4.839-1.2.839-.935,0-1.367-.295-1.291-1.2h-1.977a2.523,2.523,0,0,0,2.8,3c2.221,0,3.529-1.262,3.655-2.757.139-1.651-1.034-2.251-2.047-2.567-1.037-.319-1.353-.375-1.31-.884.046-.531.573-.756,1.064-.756a1.122,1.122,0,0,1,.777.225.771.771,0,0,1,.212.683h1.977C243.564,294.155,242.248,293.5,240.63,293.5Z" transform="translate(-222.017 -263.26)" fill="#dc000c"/><path d="M282.606,294.057h-3.73l-2.3,8.411h1.98l.748-2.72h1.752a3.3,3.3,0,0,0,3.534-3.183C284.715,295.07,283.967,294.057,282.606,294.057Zm-.016,2.709a1.233,1.233,0,0,1-1.407,1.176H279.79l.571-2.085h1.115C282.094,295.858,282.66,295.954,282.59,296.766Z" transform="translate(-249.682 -263.645)" fill="#dc000c"/><path d="M325.952,293.5c-2.618,0-4.442,2.251-4.676,5.04-.2,2.344.906,3.724,3.022,3.724,2.725,0,4.491-2.251,4.737-5.206C329.291,294.037,327.27,293.5,325.952,293.5Zm1.088,3.746c-.11,1.332-1,3.218-2.428,3.218-1.053,0-1.45-.825-1.361-1.91.118-1.388.957-3.253,2.486-3.253C326.8,295.3,327.147,295.993,327.04,297.242Z" transform="translate(-280.292 -263.26)" fill="#dc000c"/><path d="M410.6,295.938h2.235l-1.8,6.53h1.977l1.8-6.53h2.229l.5-1.881H411.1Z" transform="translate(-341.504 -263.644)" fill="#dc000c"/><path d="M452.569,293.5a3.059,3.059,0,0,0-3.317,2.722,2.013,2.013,0,0,0,1.527,2.168c.761.305,1.9.4,1.833,1.235-.037.461-.4.839-1.2.839-.932,0-1.361-.295-1.286-1.2h-1.983a2.529,2.529,0,0,0,2.8,3c2.219,0,3.532-1.262,3.66-2.757.134-1.651-1.04-2.251-2.052-2.567-1.04-.319-1.356-.375-1.308-.884.043-.531.573-.756,1.061-.756a1.126,1.126,0,0,1,.777.225.77.77,0,0,1,.209.683h1.977C455.5,294.155,454.182,293.5,452.569,293.5Z" transform="translate(-367.212 -263.26)" fill="#dc000c"/><path d="M369.74,294.068h-3.668l-2.256,8.411h1.951l.823-3.063h1.717s.305,3.022.308,3.063h1.956l-.354-3.486a2.956,2.956,0,0,0,1.49-1.677,3.279,3.279,0,0,0,.252-1.066C372.109,294.457,371.1,294.068,369.74,294.068Zm-2.173,1.7H369c.514,0,1.034.15.975.871-.078.908-.707,1.155-1.407,1.155h-1.554Z" transform="translate(-309.452 -263.652)" fill="#dc000c"/></svg>