<svg width="188" height="46" viewBox="0 0 188 46" fill="none" xmlns="http://www.w3.org/2000/svg">
<path fill-rule="evenodd" clip-rule="evenodd" d="M186.52 1.48272C185.946 0.556583 184.958 0 183.886 0H42.5173L42.3043 0.00701996C42.1668 0.0230656 35.8681 0.452286 28.8585 2.62296C25.3506 3.71707 21.6506 5.23739 18.4171 7.4928C15.1973 9.73468 12.3579 12.8154 11.111 16.9692C10.6079 18.641 10.3634 20.2496 10.3634 21.7824C10.3511 24.9324 11.437 27.6737 12.9755 29.728C14.2101 31.3827 15.6794 32.6463 17.1609 33.6396H6.13431C5.16576 33.6396 4.24876 34.1005 3.66017 34.8832L0.616597 40.4891C-0.0200991 41.6193 -0.226277 42.7516 0.297513 43.8331C0.81983 44.9177 1.90864 45.6092 3.09073 45.6092H20.58L162.338 45.7476C163.47 45.7476 164.506 45.1238 165.058 44.1134L182.583 12.0257C182.709 11.794 182.8 11.5473 182.866 11.2956C183.451 10.9817 183.938 10.4858 184.233 9.85101L186.7 4.54743C187.161 3.55912 187.092 2.40835 186.52 1.48272" fill="#1B4E8D"/>
<path fill-rule="evenodd" clip-rule="evenodd" d="M186.572 1.56948C186.555 1.5404 186.538 1.51131 186.52 1.48273C186.538 1.51131 186.555 1.5404 186.572 1.56948" fill="#FFFFFE"/>
<path fill-rule="evenodd" clip-rule="evenodd" d="M53.8515 37.1918C54.7007 39.5981 56.3281 40.8532 58.4335 42.187H3.2373L6.06047 37.1918H53.8515" fill="#FFFFFE"/>
<path fill-rule="evenodd" clip-rule="evenodd" d="M48.0332 33.5679H27.9358C27.9358 33.5679 27.3835 33.6321 26.4862 33.2951C23.446 32.1544 16.7639 28.8289 16.6751 21.6104C16.6628 20.6231 16.4738 14.4611 24.9757 9.70504C25.8784 9.19911 31.1581 6.42371 38.417 5.24336C39.1592 5.12201 42.8405 4.48921 50.5672 4.0625L130.326 4.0635L127.577 8.9499H47.7617C47.7617 8.9499 45.6047 8.96945 44.4683 9.14244C43.3294 9.31544 39.3733 9.64989 35.6341 11.9579C34.6523 12.5637 31.0191 14.8707 28.9652 18.3887C28.9652 18.3887 27.4685 20.6978 28.0531 23.4687C28.3761 25.0086 29.327 26.8638 32.9297 27.8115C33.4427 27.9469 35.8457 28.1851 36.1264 28.158C36.4053 28.1319 40.14 28.2087 40.14 28.2087L45.3465 19.1815L40.6825 19.2181L43.4786 14.3412H58.9253L48.0332 33.5679" fill="#FFFFFE"/>
<path fill-rule="evenodd" clip-rule="evenodd" d="M95.1544 11.0153H92.5733C92.5733 11.0153 86.9274 10.9696 84.5485 11.1386C76.0648 11.7388 67.0038 14.1487 60.4208 19.9918C59.9555 20.4045 57.6468 22.2251 55.7146 26.0991C55.3582 26.8142 54.2041 29.7761 55.7396 33.4811C55.9051 33.8808 57.1524 37.2137 62.5283 41.0617L67.0853 36.1116C67.0853 36.1116 65.1016 34.6419 64.5571 32.6618C64.4384 32.2281 64.2116 30.6245 65.0539 28.9848C65.238 28.6263 65.4148 28.2548 65.6474 27.9268L75.324 27.9263L72.1352 33.5679H82.4067L90.8581 18.6154H80.587L78.5419 22.2327L69.2084 22.2236C69.2084 22.2236 71.2172 18.4619 78.9164 17.0188C79.5954 16.8915 82.3626 16.5565 84.7734 16.558L92.0131 16.5595L95.1544 11.0153" fill="#FFFFFE"/>
<path fill-rule="evenodd" clip-rule="evenodd" d="M98.1451 11.0154L95.2179 16.4513H107.48L85.3945 33.568H113.657L116.839 27.94H104.508L126.405 11.0154H98.1451" fill="#FFFFFE"/>
<path fill-rule="evenodd" clip-rule="evenodd" d="M132.617 11.1427L119.998 33.6998H132.516L145.184 11.1427H132.617" fill="#FFFFFE"/>
<path fill-rule="evenodd" clip-rule="evenodd" d="M146.167 8.93689H133.662L136.436 4.06604H148.959L146.167 8.93689" fill="#FFFFFE"/>
<path fill-rule="evenodd" clip-rule="evenodd" d="M183.887 4.06445L181.125 8.94984H150.289L153.051 4.06445H183.887" fill="#FFFFFE"/>
<path fill-rule="evenodd" clip-rule="evenodd" d="M149.119 11.0154L136.379 33.568H147.28L155.783 18.5232L158.978 27.3975L153.443 37.1918H70.1064L67.2676 42.187H162.34L179.961 11.0154H168.242L163.983 18.5428L161.546 11.0154H149.119Z" fill="#FFFFFE"/>
</svg>
