<svg id="Layer_2" data-name="Layer 2" xmlns="http://www.w3.org/2000/svg" xmlns:xlink="http://www.w3.org/1999/xlink" viewBox="0 0 1015.27 354.88"><defs><style>.cls-1{fill:url(#linear-gradient);}.cls-2{fill:url(#linear-gradient-2);}.cls-3{fill:url(#linear-gradient-3);}.cls-4{fill:url(#linear-gradient-4);}.cls-5{fill:#fff;}.cls-6{fill:url(#linear-gradient-5);}.cls-7{fill:url(#linear-gradient-6);}</style><linearGradient id="linear-gradient" x1="350.56" y1="214.33" x2="796.26" y2="214.33" gradientUnits="userSpaceOnUse"><stop offset="0" stop-color="#0032aa"/><stop offset="1" stop-color="#000f55"/></linearGradient><linearGradient id="linear-gradient-2" x1="503.05" y1="214.08" x2="861.39" y2="214.08" xlink:href="#linear-gradient"/><linearGradient id="linear-gradient-3" x1="675.23" y1="111.42" x2="986.99" y2="111.42" xlink:href="#linear-gradient"/><linearGradient id="linear-gradient-4" x1="649.45" y1="239.66" x2="882.49" y2="239.66" xlink:href="#linear-gradient"/><linearGradient id="linear-gradient-5" x1="799.28" y1="3.37" x2="799.28" y2="350.74" gradientUnits="userSpaceOnUse"><stop offset="0.01" stop-color="#eb0000"/><stop offset="0.99" stop-color="#cd0000"/></linearGradient><linearGradient id="linear-gradient-6" x1="982.17" y1="3.53" x2="982.17" y2="350.83" xlink:href="#linear-gradient-5"/></defs><title>GBNews_WebLogo_RGB_EPS_1</title><path class="cls-1" d="M254.27,302.56c-18.35,13.73-42.86,20.59-70.31,20.59C123.18,323.15,80,277.07,80,214.33v-1c0-58.33,43.63-106.86,98.53-106.86,39.7,0,63.23,12.75,89.7,34.81L315.81,84C280,53.56,242.78,36.89,181,36.89,77.1,36.89,1.13,116.79,1.13,214.33v1c0,101.47,73.52,176.46,180.38,176.46,62.74,0,111.27-24.51,147.21-54.41V206.55H254.23Z" transform="translate(-1.13 -36.89)"/><path class="cls-2" d="M582.92,206.14c24.81-13.89,45.65-35.72,45.65-74.91v-1c0-54.57-43.66-89.8-114.61-89.8H359.62v347.3H517.93c78.39,0,130-31.75,130-95.26v-1C647.92,244.84,623.11,221.53,582.92,206.14ZM434,107.41h68.51c32.25,0,50.11,12.9,50.11,35.72v1c0,25.8-21.34,36.71-55.08,36.71H434ZM572,283.05c0,25.8-20.34,37.7-54.08,37.7H434v-76.4h81.41c39.19,0,56.56,14.39,56.56,37.7Z" transform="translate(-1.13 -36.89)"/><polygon class="cls-3" points="708.18 3.69 872.63 219.15 872.63 3.69 708.18 3.69"/><polygon class="cls-4" points="715.42 350.81 820.25 350.81 715.42 128.5 715.42 350.81"/><polygon class="cls-5" points="820.25 350.82 841.21 350.82 715.42 128.5 820.25 350.82"/><polygon class="cls-6" points="715.42 128.5 841.21 350.81 883.14 350.81 715.42 128.5"/><rect class="cls-7" x="949.07" y="3.53" width="66.2" height="347.3"/></svg>