<svg width="395" height="249" viewBox="0 0 395 249" fill="none" xmlns="http://www.w3.org/2000/svg">
<path d="M348.5 135.7C348.8 134.3 349 132.9 349.3 131.5C351.3 120.3 353.3 109.1 355.3 98.0001C357.1 87.9001 358.9 77.8001 360.7 67.7001C361.5 63.4001 362.2 59.1001 363 54.9001C363.7 50.8001 367.4 48.7001 370.3 48.8001C376.7 48.9001 383.1 48.8001 389.5 48.8001C390.7 48.8001 391.8 49.0001 392.8 49.8001C394.4 51.0001 394.9 52.7001 394.6 54.6001C394.1 57.9001 393.5 61.3001 392.9 64.6001C391.4 72.9001 390 81.2001 388.5 89.5001C387 97.8001 385.6 106.1 384.1 114.4C382.6 122.7 381.2 131 379.7 139.3C378.2 148.1 376.6 156.8 375.1 165.6C373.6 173.9 372.2 182.3 370.7 190.6C370.6 191.4 370.4 192.2 370.2 192.9C369.2 196.3 366.4 198.4 362.9 198.4C356.7 198.4 350.4 198.4 344.2 198.4C341.1 198.4 338.8 197 337.4 194.4C336.7 193.2 336.2 191.9 335.7 190.6C323.9 163.3 312.2 136 300.4 108.7C300.2 108.2 300 107.8 299.7 107.2C299.5 107.6 299.4 107.8 299.4 108C298 116.2 296.5 124.4 295.1 132.6C293.5 141.4 292 150.3 290.4 159.1C288.9 167.9 287.3 176.6 285.8 185.4C285.4 187.7 285 189.9 284.6 192.2C283.8 196.1 280.9 198.5 276.9 198.5C270.8 198.5 264.7 198.5 258.6 198.5C257.9 198.5 257.3 198.4 256.6 198.3C254 197.7 252.5 195.6 253 193C253.7 188.8 254.4 184.6 255.2 180.4C256.8 171.6 258.3 162.7 259.9 153.9C261.5 144.6 263.2 135.4 264.8 126.1C266.3 117.3 267.9 108.6 269.4 99.8001C271 90.5001 272.7 81.3001 274.3 72.0001C275.3 66.2001 276.4 60.5001 277.3 54.7001C277.9 51.3001 281.1 48.6001 284.6 48.7001C291.7 48.8001 298.7 48.7001 305.8 48.7001C309.3 48.7001 311.6 50.3001 312.9 53.4001C324.6 80.5001 336.3 107.6 348.1 134.7C348.3 135.1 348.5 135.4 348.6 135.8C348.3 135.8 348.4 135.8 348.5 135.7Z" fill="black"/>
<path d="M175.3 137.7C173.4 148.5 171.4 159.3 169.5 170.1C170.2 170.1 170.7 170.1 171.2 170.1C190.6 170.1 210.1 170.1 229.5 170.1C230.2 170.1 230.9 170.1 231.6 170.2C234.4 170.6 236.1 172.9 235.7 175.8C234.8 181.1 233.9 186.4 233.1 191.7C232.4 195.7 229.4 198.2 225.4 198.2C196.8 198.2 168.2 198.2 139.6 198.2C139.4 198.2 139.1 198.2 138.8 198.2C135.4 198 133.5 195.6 134.1 192.2C136.6 178.2 139 164.2 141.5 150.1C144.4 133.5 147.4 116.9 150.3 100.3C153 85.2 155.7 70 158.3 54.9C159 50.6 162.7 48.5 165.9 48.5C194.5 48.6 223.2 48.5 251.8 48.5C252.4 48.5 253.1 48.5 253.7 48.7C256.3 49.3 257.7 51.7 257.2 54.5C256.6 57.7 256 61 255.5 64.2C255.1 66.3 254.7 68.3 254.4 70.4C253.9 74.2 250.3 76.7 246.9 76.7C227.2 76.6 207.5 76.7 187.8 76.7H186C184.1 87.6 182.1 98.4 180.2 109.4C180.8 109.4 181.3 109.5 181.8 109.5C189.5 109.5 197.2 109.5 204.9 109.5C211.3 109.5 217.8 109.5 224.2 109.5C224.9 109.5 225.6 109.5 226.3 109.7C228.6 110.3 230 112.3 229.8 114.9C229.7 116.3 229.4 117.6 229.2 119C228.5 123.1 227.7 127.2 227 131.3C226.3 135.6 222.5 137.7 219.4 137.6C205.2 137.5 191.1 137.6 176.9 137.6H175.3V137.7Z" fill="black"/>
<path d="M156.4 0.600023C155.4 0.400023 154.3 0.60003 153.5 1.20003C152.6 1.80003 152.1 2.70003 151.9 3.70003L109.6 243.7C109.4 244.7 109.6 245.8 110.2 246.6C110.8 247.5 111.7 248 112.7 248.2C112.9 248.2 113.1 248.3 113.3 248.3C115.2 248.3 116.8 247 117.2 245.1L159.5 5.10002C159.9 3.00002 158.5 1.00002 156.4 0.600023Z" fill="black"/>
<path d="M122.1 116.2C123.2 117.2 123.7 118.9 123.5 121.3L112.4 182.8C111.2 189.2 105.1 193.6 93.9002 196.1C82.7002 198.5 71.3001 199.7 59.6001 199.7C38.2001 199.7 22.7001 194.7 13.0001 184.8C3.40013 174.9 -0.699885 159.6 0.800115 138.9C3.00011 108.2 11.5001 85.1 26.3001 69.6C41.1001 54.1 61.6001 46.4 87.7001 46.4C94.0001 46.4 100.5 47 107.3 48.2C114.1 49.4 119.6 51.2 123.9 53.4C128.2 55.7 130.3 58.2 130.1 60.9C130 62.8 128.8 65.4 126.6 68.7C124.4 72.1 122 75 119.2 77.6C116.4 80.2 114.2 81.5 112.5 81.5C112.1 81.5 110.5 80.9 107.7 79.6C104.9 78.3 101.5 77.2 97.2001 76.2C93.0001 75.2 87.9002 74.7 81.9002 74.7C68.1002 74.7 57.1001 79.7 49.1001 89.7C41.1001 99.7 36.4001 114.5 35.0001 134.2C33.2001 159.2 43.0002 171.7 64.4002 171.7C70.1002 171.7 75.7001 171.2 81.2001 170.2L86.2001 142.8H67.6001C65.6001 142.8 64.2001 142.1 63.5001 140.8C62.7001 139.4 62.5001 137.3 62.7001 134.3L63.3001 128.7C63.8001 124.4 64.7001 121 66.3001 118.5C67.8001 116 69.8001 114.8 72.2001 114.8H115.9C119 114.7 121 115.2 122.1 116.2Z" fill="black"/>
</svg>
