<?xml version="1.0" encoding="UTF-8" standalone="no"?>
<svg
   xmlns:dc="http://purl.org/dc/elements/1.1/"
   xmlns:cc="http://creativecommons.org/ns#"
   xmlns:rdf="http://www.w3.org/1999/02/22-rdf-syntax-ns#"
   xmlns:svg="http://www.w3.org/2000/svg"
   xmlns="http://www.w3.org/2000/svg"
   xmlns:sodipodi="http://sodipodi.sourceforge.net/DTD/sodipodi-0.dtd"
   xmlns:inkscape="http://www.inkscape.org/namespaces/inkscape"
   width="512"
   height="306.98944"
   viewBox="0 0 511.99999 306.98945"
   version="1.1"
   id="svg3554"
   inkscape:version="1.0.2 (1.0.2+r75+1)"
   sodipodi:docname="gloobinho.svg">
  <defs
     id="defs3548" />
  <sodipodi:namedview
     id="base"
     pagecolor="#ffffff"
     bordercolor="#666666"
     borderopacity="1.0"
     inkscape:pageopacity="0.0"
     inkscape:pageshadow="2"
     inkscape:zoom="1"
     inkscape:cx="94.679842"
     inkscape:cy="147.10976"
     inkscape:document-units="px"
     inkscape:current-layer="layer1"
     inkscape:document-rotation="0"
     showgrid="false"
     units="px"
     fit-margin-top="0"
     fit-margin-left="0"
     fit-margin-right="0"
     fit-margin-bottom="0"
     inkscape:window-width="1366"
     inkscape:window-height="709"
     inkscape:window-x="0"
     inkscape:window-y="27"
     inkscape:window-maximized="1" />
  <metadata
     id="metadata3551">
    <rdf:RDF>
      <cc:Work
         rdf:about="">
        <dc:format>image/svg+xml</dc:format>
        <dc:type
           rdf:resource="http://purl.org/dc/dcmitype/StillImage" />
        <dc:title></dc:title>
      </cc:Work>
    </rdf:RDF>
  </metadata>
  <g
     inkscape:label="Layer 1"
     inkscape:groupmode="layer"
     id="layer1"
     transform="translate(-204.65782,-260.23192)">
    <path
       id="path18423"
       style="fill:#f2405e;fill-opacity:1;stroke-width:18.1401"
       d="m 672.22853,395.15089 c -24.19898,0 -44.42917,19.57731 -44.42917,43.68535 0,24.85198 19.79506,45.52787 44.42917,45.52787 24.63471,0 44.42929,-20.67589 44.42929,-45.52787 0,-24.12591 -20.21183,-43.68535 -44.42929,-43.68535 z m 0,34.2255 c 5.71124,0 10.16841,4.07578 10.16841,10.20379 a 9.8319866,9.8319866 0 0 1 -10.16841,10.16841 9.8319866,9.8319866 0 0 1 -10.16841,-10.16841 c 0,-6.12935 4.47565,-10.20379 10.16841,-10.20379 z" />
    <path
       id="path18411"
       style="fill:#00cc6a;fill-opacity:1;stroke-width:18.1401"
       d="m 228.53741,391.64349 c -15.89107,0 -23.87959,9.85412 -23.87959,24.02159 0,2.42621 0.22978,5.06883 0.70758,7.8301 l 11.62102,65.75819 c 4.80598,27.24596 28.9618,46.4487 55.5189,46.4487 32.2354,0 56.05019,-26.4427 56.05019,-56.19207 0,-3.23045 -0.27598,-6.49615 -0.84983,-9.77888 -5.02554,-28.38879 -26.41887,-45.95242 -49.60231,-45.95242 -2.66523,0 -5.34043,0.18359 -8.04274,0.67111 a 61.023621,61.023621 0 0 0 -16.01436,5.31466 l -2.55021,-14.45573 c -2.63302,-14.94776 -11.0231,-23.66683 -22.95877,-23.66683 z m 44.00426,77.6626 c 5.40292,0 9.99151,3.93803 9.99151,10.45192 0,5.69751 -4.39285,9.95577 -10.41655,9.95577 -5.40243,0 -9.99151,-3.97474 -9.99151,-10.4873 0,-5.71125 4.38823,-9.92039 10.41655,-9.92039 z" />
    <path
       id="path18407"
       style="fill:#0074ff;fill-opacity:1;stroke-width:18.1401"
       d="m 616.00095,286.38052 c -30.72989,0 -56.26283,24.89842 -56.26283,55.51902 l 0.0365,0.0365 c 0,31.30983 25.00771,56.93613 56.22757,56.93613 31.18302,0 56.22757,-25.64369 56.22757,-56.97151 0,-30.6206 -25.49852,-55.51901 -56.22757,-55.51901 z m 0,46.05917 c 5.71125,0 10.16853,4.09425 10.16853,10.20378 a 9.8501274,9.8501274 0 0 1 -10.16853,10.16841 9.8501274,9.8501274 0 0 1 -10.20378,-10.16841 c 0,-6.11548 4.50774,-10.20378 10.20378,-10.20378 z" />
    <path
       id="path18403"
       style="fill:#0074ff;fill-opacity:1;stroke-width:18.1401"
       d="m 507.62037,327.1609 c -24.19947,0 -44.39391,19.57683 -44.39391,43.68487 0,24.85246 19.7592,45.52787 44.39391,45.52787 24.63411,0 44.39379,-20.67541 44.39379,-45.52787 0,-24.1264 -20.17645,-43.68487 -44.39379,-43.68487 z m 0,34.19 c 5.71112,0 10.16841,4.08964 10.16841,10.20391 a 9.8319866,9.8319866 0 0 1 -10.16841,10.20379 9.8501274,9.8501274 0 0 1 -10.16841,-10.20379 c 0,-6.11609 4.45717,-10.20391 10.16841,-10.20391 z" />
    <path
       style="fill:#f2405e;fill-opacity:1;stroke-width:18.1401"
       d="m 538.17897,430.13868 -16.56256,93.91173 a 45.042112,45.042112 0 0 0 -0.68448,7.60068 c 0,14.56685 8.47142,24.18111 23.8723,24.18111 12.33541,0 20.35286,-8.77974 22.96521,-23.65492 l 4.66214,-26.48464 c 0.99208,-5.65653 4.80646,-8.90704 9.54168,-8.90704 5.98552,0 9.197,3.7587 9.197,9.26958 0,0.90576 -0.0486,1.88397 -0.27598,2.88565 l -4.66215,26.48465 c -0.4778,2.7203 -0.72582,5.33398 -0.72582,7.80019 0,12.66161 6.40363,21.33254 19.19265,23.58234 1.61747,0.27598 3.1936,0.41336 4.71685,0.41336 11.93664,0 20.31761,-8.72503 22.94782,-23.69078 l 4.9498,-28.08133 c 0.69421,-3.88283 1.0018,-7.67338 1.0018,-11.35586 0,-29.91289 -21.78699,-51.75326 -49.48705,-51.75326 -2.53648,0 -4.89509,0.18358 -7.05613,0.32218 l 2.53647,-14.43956 c 0.4778,-2.66511 0.70759,-5.2039 0.70759,-7.60068 0,-14.58521 -8.47143,-24.18111 -23.89066,-24.18111 -12.33505,0 -20.31712,8.77987 -22.94685,23.65504"
       id="path18421" />
    <path
       style="fill:#f2405e;fill-opacity:1;stroke-width:18.1401"
       d="m 394.73277,482.12866 c 0,3.98848 0.32218,8.12687 1.08934,12.38964 l 4.53996,25.68648 c 2.64675,14.9294 11.01106,23.67291 22.96569,23.67291 15.89011,0 23.89017,-9.86799 23.89017,-24.01758 0,-2.44907 -0.18358,-5.08026 -0.70758,-7.80007 l -4.68293,-26.48465 c -1.24983,-7.09297 2.9547,-12.2807 9.6506,-12.2807 4.62811,0 7.81892,3.35434 8.81659,9.03336 l 4.68232,26.48464 c 2.61004,14.87517 10.61229,23.63656 22.94783,23.63656 15.41923,0 23.89065,-9.68684 23.89065,-24.18062 0,-2.39399 -0.18358,-4.93643 -0.70758,-7.58232 l -4.53084,-25.66898 c -5.53289,-31.43675 -28.40764,-48.59747 -54.60184,-48.59747 -32.18105,0 -57.23192,22.56643 -57.23192,55.69044"
       id="path18419" />
    <path
       style="fill:#00cc6a;fill-opacity:1;stroke-width:18.1401"
       d="m 337.31884,443.67115 c 0,13.44238 10.17619,23.63656 23.63608,23.63656 13.42402,0 23.63656,-10.19418 23.63656,-23.63656 0,-13.42353 -10.19419,-23.61869 -23.63656,-23.61869 -13.45989,0 -23.63608,10.1768 -23.63608,23.61869"
       id="path18417" />
    <path
       style="fill:#00cc6a;fill-opacity:1;stroke-width:18.1401"
       d="m 337.31884,504.38628 v 33.41434 c 0,17.10662 8.54401,27.70006 23.21931,27.70006 15.49181,0 23.63656,-10.59344 23.63656,-27.70006 v -33.41434 c 0,-17.10612 -8.56249,-27.70005 -23.21979,-27.70005 -15.49133,0 -23.63608,10.59393 -23.63608,27.70005"
       id="path18415" />
    <path
       style="fill:#0074ff;fill-opacity:1;stroke-width:18.1401"
       d="m 417.17471,293.24882 -16.63416,94.29263 a 44.588607,44.588607 0 0 0 -0.69421,7.58281 c 0,14.49378 8.43519,24.19898 23.8723,24.19898 12.33541,0 20.33547,-8.76187 22.94733,-23.65541 l 16.63453,-94.27427 a 43.355073,43.355073 0 0 0 0.70758,-7.58232 c 0,-14.51263 -8.47155,-24.19947 -23.89114,-24.19947 -12.33505,0 -20.335,8.76188 -22.94734,23.63705"
       id="path18401" />
    <path
       style="fill:#0074ff;fill-opacity:1;stroke-width:18.1401"
       d="m 312.59683,260.23326 c -8.47142,0 -17.19658,2.32505 -28.15342,7.43752 -30.02243,13.98656 -45.83996,41.25137 -45.83996,69.93062 0,11.55512 2.57782,23.3286 7.80007,34.55668 13.8955,29.78658 40.97843,45.60519 69.54911,45.60519 a 81.268085,81.268085 0 0 0 34.412,-7.76481 c 29.26051,-13.64091 45.24216,-41.17781 45.24216,-68.71459 0,-9.99528 -2.10451,-20.02667 -6.45833,-29.38683 -4.1356,-8.83409 -11.06541,-13.67824 -19.31958,-13.67824 -3.48296,0 -7.18294,0.86807 -11.0107,2.64675 l -31.01986,14.45755 c -8.70728,4.04368 -12.33504,9.66897 -12.33504,15.78215 0,2.7203 0.69421,5.53301 2.03108,8.34474 2.72018,5.89592 7.76371,9.79528 14.63894,9.79528 3.08322,0 6.52727,-0.78174 10.30348,-2.53648 l 8.48991,-3.95638 c 0.99207,10.79332 -3.62558,19.22851 -17.30649,25.59591 -4.53072,2.12299 -9.43225,3.20734 -14.29427,3.20734 -11.64583,0 -23.03791,-6.20472 -29.00593,-18.97441 a 37.368808,37.368808 0 0 1 -3.64855,-15.74592 c 0,-12.06344 6.56824,-22.49336 17.23342,-27.44583 8.85196,-4.15395 15.21936,-3.042 22.22176,-6.32789 7.14719,-3.31761 12.15353,-10.72122 12.15353,-19.51944 0,-3.50607 -0.81822,-7.21978 -2.57794,-11.01119 -4.13547,-8.87032 -12.40751,-12.19025 -22.80205,-12.29906 z"
       id="path18399" />
  </g>
</svg>
