<?xml version="1.0" encoding="UTF-8" standalone="no"?>
<!-- Created with Inkscape (http://www.inkscape.org/) -->

<svg
   width="172.4111mm"
   height="72.118889mm"
   viewBox="0 0 172.4111 72.118889"
   version="1.1"
   id="svg1"
   xml:space="preserve"
   xmlns="http://www.w3.org/2000/svg"
   xmlns:svg="http://www.w3.org/2000/svg"><defs
     id="defs1" /><g
     id="layer1"
     transform="translate(-12.960161,-113.2238)"><g
       id="g1"
       transform="matrix(0.03267723,0,0,0.03267723,14.281256,112.81214)"><g
         id="g13"
         transform="matrix(3.3502181,0,0,3.3502181,-829.14202,305.33005)"><circle
           style="fill:#003a6f;fill-opacity:1;stroke:#ffffff;stroke-width:16.678;stroke-linecap:square;stroke-dasharray:none;stroke-opacity:1"
           id="path13"
           cx="480.79446"
           cy="251.09853"
           r="237.03395" /><path
           d="m 500.777,105.546 c -92.393,8.093 -175.646,66.499 -175.646,149.294 0,120.255 156.904,149.35 223.325,144.885 L 570.37,398.3 597.153,263.07 h -66.662 c 0,0 0.216,1.048 22.749,118.667 -18.231,-3.39 -41.786,-12.101 -61.444,-24.256 -46.439,-28.612 -79.326,-68.597 -79.326,-119.796 0,-73.547 73.115,-123.857 155.829,-130.527 11.912,-0.644 14.789,-2.151 0,-3.119 -12.341,-0.727 -17.426,-0.834 -27.964,-0.834 -16.727,0 -28.505,1.372 -39.558,2.341"
           id="path9"
           style="fill:#ffffff" /></g><g
         id="g14"
         transform="matrix(3.5158446,0,0,3.5158446,1745.1068,0)"
         style="fill:#000000"><path
           id="path3068"
           d="m 437.41587,3.5831532 c -72.98508,0 -146.8409,49.5738018 -160.1074,138.1394168 h -85.20245 c -9.58596,0 -11.47754,2.20309 -16.43793,13.42483 l -18.68811,41.64786 h 97.10187 c -12.25344,43.30693 -51.78823,70.44259 -92.14374,70.44259 -57.48428,0 -97.025617,-49.55846 -97.025617,-101.79289 0,-64.60547 49.426977,-102.09796 97.445087,-102.09796 28.43626,0 52.89667,12.423552 66.55254,22.921465 8.80767,6.951788 17.97121,4.785821 22.38754,-2.250271 l 22.27319,-38.215113 c 0,0 -40.26678,-42.0673719 -109.34441,-42.0673719 C 79.994048,3.7357091 0,64.854235 0,165.44496 c 0,82.43146 65.690698,160.6414 160.90832,160.6414 81.61733,0 145.53411,-62.85612 157.78091,-129.17679 0,33.0181 -4.54416,45.88939 -11.09844,64.95074 33.31075,41.59489 77.65685,64.45486 129.40552,64.45486 63.76345,0 112.37048,-35.40677 137.79619,-78.29944 v 36.42283 c 0,23.70745 17.03854,37.83387 35.81246,37.83387 h 215.59961 c 12.07104,0 21.96807,-6.51546 21.96807,-21.96807 V 197.78684 h 87.87215 c 11.2963,0 14.87751,-3.58324 20.17547,-14.41655 l 18.38313,-41.72406 H 848.17264 V 67.198947 h 107.39933 c 9.15805,0 12.44726,-4.05737 16.32357,-12.166374 L 992.83379,7.3970394 H 821.32271 c -22.17359,0 -37.83376,13.9121576 -37.83376,37.8338806 v 266.05747 l -17.46771,-40.16027 c -2.19722,-4.80676 -6.35495,-8.6576 -14.18765,-8.6576 H 639.47618 V 29.365111 c 0,-14.919708 -9.29392,-21.9680716 -21.96807,-21.9680716 H 574.7925 V 57.435399 c 10.06115,19.342838 16.01632,42.694131 17.69644,65.103291 C 573.84862,59.568863 518.3015,3.5831532 437.41587,3.5831532 Z m -0.61018,59.6874128 c 51.4407,0 96.3009,44.563384 96.3009,101.487914 0,57.6865 -45.94569,102.47937 -96.60602,102.47937 -53.95041,0 -96.03397,-49.62009 -96.03397,-102.2125 0,-52.85621 39.32036,-101.754784 96.33909,-101.754784 z"
           style="fill:#000000;fill-opacity:1;stroke:none;stroke-width:1.22045" /><path
           id="path4422"
           d="m 74.988638,445.16003 c 10.764934,0 17.968659,-5.68567 17.968659,-5.68567 3.394233,-2.68174 6.745218,-2.98506 8.658013,0.0983 l 7.00943,11.89062 c 0,0 -12.213646,11.85501 -34.012461,11.85501 -30.797955,0 -49.630993,-23.94945 -49.630993,-49.63104 0,-25.629 19.575708,-49.39578 50.05437,-49.39578 22.019909,0 33.777284,11.9961 33.777284,11.9961 l -7.19763,11.85499 c -1.00035,1.47994 -3.435456,3.44062 -8.3738,8e-5 0,0 -7.932057,-5.69233 -18.252872,-5.69233 -16.672916,0 -29.637482,13.58574 -29.637482,31.04878 0,19.61344 14.75394,31.66037 29.637482,31.66037 z"
           style="fill:#000000;fill-opacity:1;stroke:none;stroke-width:1.12968" /><path
           id="path4426"
           d="m 180.12419,422.50982 v 39.53861 h -7.90767 c -7.05991,0 -11.86158,-4.98826 -11.86158,-12.42645 v -84.16074 h 12.99127 c 4.02598,0 6.77798,2.25736 6.77798,6.21329 v 32.7605 h 36.14959 v -38.97379 h 12.29471 c 3.62616,0 7.47455,1.32424 7.47455,6.67768 v 89.90951 h -8.47249 c -6.80127,0 -11.29677,-4.39792 -11.29677,-11.29672 v -28.24189 z"
           style="fill:#000000;fill-opacity:1;stroke:none;stroke-width:1.12968" /><path
           id="path4428"
           d="m 319.81554,365.47571 -32.58406,87.02019 c -2.95251,7.22482 -1.68884,9.56691 3.00069,9.56691 h 14.015 l 7.23696,-20.33407 h 34.49041 l 4.44808,13.02648 c 1.77731,4.16467 3.93107,7.30759 8.71959,7.30759 h 15.14478 l -32.01924,-86.1376 c -2.25708,-6.85899 -5.27847,-10.4495 -11.86158,-10.4495 z m 8.89613,27.9947 11.61444,32.44289 h -23.29945 z"
           style="fill:#000000;fill-opacity:1;stroke:none;stroke-width:1.12968" /><path
           id="path4432"
           d="m 443.86693,462.04843 h -12.99127 c -3.74538,0 -6.77807,-2.24622 -6.77807,-6.77807 v -89.80912 h 13.17977 c 6.9405,0 9.12864,5.1637 12.42699,9.97994 l 30.87695,52.71707 v -62.69701 h 13.46141 c 4.50163,0 6.30794,2.78122 6.30794,7.43754 v 89.14965 h -12.99129 c -7.26631,0 -10.23071,-4.18484 -13.35648,-9.37012 l -30.13595,-52.38496 z"
           style="fill:#000000;fill-opacity:1;stroke:none;stroke-width:1.12968" /><path
           style="fill:#000000;fill-opacity:1;stroke:none;stroke-width:1.12968"
           d="m 585.01655,462.04843 h -12.99128 c -3.74537,0 -6.77806,-2.24622 -6.77806,-6.77807 v -89.80912 h 13.17973 c 6.94049,0 9.12863,5.1637 12.42703,9.97994 l 30.87695,52.71707 v -62.69701 h 13.46136 c 4.50168,0 6.30791,2.78122 6.30791,7.43754 v 89.14965 h -12.99125 c -7.26635,0 -10.23071,-4.18484 -13.35649,-9.37012 l -30.1359,-52.38496 z"
           id="path4434" /><path
           id="path3077"
           d="m 758.61859,462.04843 h -40.66771 c -6.26461,0 -11.29731,-3.92111 -11.29731,-12.42645 v -84.16074 h 64.85705 l -7.16461,15.57832 c -1.00245,1.63841 -1.67867,3.06134 -5.26044,3.06134 h -32.09792 v 21.46381 h 39.53866 l -6.77817,13.5561 c -1.20696,2.50494 -2.01713,3.38901 -4.71558,3.38901 h -28.04491 v 21.46381 h 44.05732 l -6.77811,14.68579 c -1.01627,1.95823 -1.92877,3.38901 -5.64827,3.38901 z"
           style="fill:#000000;fill-opacity:1;stroke:none;stroke-width:1.12968" /><path
           id="path3081"
           d="M 892.87659,462.04843 H 841.7085 c -8.74723,0 -11.86159,-5.53268 -11.86159,-12.42645 v -84.16074 h 12.99123 c 4.18182,0 6.77812,1.44266 6.77812,6.54254 v 71.96985 h 30.50116 c 3.91699,0 4.56646,0.4504 6.57842,4.25256 z"
           style="fill:#000000;fill-opacity:1;stroke:none;stroke-width:1.12968" /></g><g
         id="g2"
         transform="matrix(8.0968715,0,0,8.0968715,-319.64304,2982.6641)"><g
           id="g44"
           style="fill:#003a6f;fill-opacity:1"
           transform="matrix(3.1206004,0,0,3.1206004,-54.552484,-330.19891)"><rect
             style="fill:#003a6f;fill-opacity:1;stroke-width:6.09867;stroke-linecap:round;stroke-miterlimit:10.1;paint-order:markers stroke fill"
             id="rect2"
             width="120.76514"
             height="17.987431"
             x="102.67441"
             y="57.625488" /><path
             style="fill:#ffffff;fill-opacity:1;stroke-width:0.97334"
             id="path20"
             d="m 219.65049,71.749159 c -0.50029,0 -0.99767,-0.004 -1.49797,0.0058 -0.49835,0.0097 -0.81371,-0.239442 -1.00157,-0.678418 -0.0701,-0.165468 -0.12945,-0.340669 -0.19173,-0.509057 -0.34262,-0.950953 -0.34068,-0.950953 -1.36464,-0.950953 -0.74947,0 -1.49991,0.01168 -2.24743,-0.0058 -0.29492,-0.0058 -0.45455,0.06814 -0.54021,0.374735 -0.12945,0.462337 -0.33872,0.903259 -0.47109,1.362676 -0.0993,0.332883 -0.26962,0.444817 -0.60835,0.412696 -0.29881,-0.03212 -0.59859,-0.0058 -0.89936,-0.0077 -0.63656,-0.004 -0.78159,-0.187855 -0.55869,-0.800086 0.37279,-1.045367 0.7738,-2.080026 1.16119,-3.1215 0.73391,-1.97296 1.48045,-3.942999 2.18807,-5.923745 0.14113,-0.391283 0.3251,-0.532417 0.71638,-0.476936 0.16158,0.02239 0.33288,0.002 0.50029,0.004 0.71249,0.0058 1.06483,0.233601 1.3179,0.912019 0.74169,1.970039 1.4678,3.946892 2.20559,5.917905 0.42632,1.130046 0.86336,2.257174 1.2926,3.386247 -9.8e-4,0.03212 -9.8e-4,0.06425 -9.8e-4,0.09831 z m -4.85112,-7.316594 c -0.43703,1.222515 -0.81955,2.300002 -1.21473,3.410582 0.83999,0 1.5953,0 2.41778,0 -0.39518,-1.124206 -0.77381,-2.191961 -1.20305,-3.410582 z" /><path
             style="fill:#ffffff;fill-opacity:1;stroke-width:0.97334"
             id="path22"
             d="m 204.43428,71.84844 c -1.10085,-0.292975 -2.13259,-0.712485 -2.93365,-1.56805 -1.43568,-1.533983 -1.84934,-3.342449 -1.2303,-5.311515 0.61028,-1.94084 1.99632,-3.142914 4.01502,-3.536142 1.50965,-0.292976 2.93949,-0.05548 4.24279,0.798138 0.0973,0.06229 0.18786,0.137241 0.27935,0.211215 0.0496,0.03991 0.0915,0.0915 0.15768,0.161574 -0.24333,0.402963 -0.47499,0.802032 -0.72027,1.194288 -0.22387,0.351375 -0.51685,0.299788 -0.81956,0.108041 -0.63071,-0.391283 -1.29453,-0.669658 -2.05666,-0.663818 -1.30817,0.01168 -2.43724,0.785485 -2.93169,2.026493 -0.51295,1.296488 -0.20344,2.844099 0.75628,3.791157 0.91104,0.893526 2.25815,1.136861 3.46703,0.612231 0.27156,-0.115827 0.53437,-0.263775 0.79035,-0.414643 0.35528,-0.211215 0.62878,-0.144054 0.83611,0.213162 0.219,0.368896 0.43508,0.739738 0.66575,1.127128 -0.67451,0.64435 -1.48823,0.950952 -2.35547,1.15438 -0.0916,0.02044 -0.17714,0.06424 -0.2628,0.09831 -0.6317,-0.002 -1.26438,-0.002 -1.89996,-0.002 z" /><path
             style="fill:#ffffff;fill-opacity:1;stroke-width:0.97334"
             id="path24"
             d="m 106.55489,61.438572 c 0.43314,0 0.86725,-0.002 1.29942,0 0.66867,0.002 0.86335,0.185909 0.86529,0.857514 0.004,2.286373 0.002,4.571776 0.002,6.857176 0,0.195642 0,0.395176 0,0.678418 0.47889,0 0.91981,0 1.36366,0 0.63267,0.002 1.26728,-0.01946 1.90093,0.01168 0.18883,0.0107 0.46428,0.100253 0.54604,0.243334 0.29492,0.511004 0.52366,1.061914 0.80884,1.666358 -1.11156,0 -2.13939,0 -3.17016,0 -0.6502,0 -1.30136,0 -1.95252,0 -1.05997,0 -1.29454,-0.155735 -1.66247,-1.105714 -9.7e-4,-3.06894 -9.7e-4,-6.138853 -9.7e-4,-9.208767 z" /><path
             style="fill:#ffffff;fill-opacity:1;stroke-width:0.97334"
             id="path26"
             d="m 165.49632,65.382544 c 0,2.096575 0,4.196068 0,6.330602 -0.71055,0 -1.3841,0 -2.09658,0 0,-3.396956 0,-6.805591 0,-10.263867 0.78354,0 1.56416,-0.05743 2.33407,0.01947 0.53241,0.05353 0.83804,0.488616 1.00546,0.999619 0.62781,1.920399 1.26241,3.841771 1.89508,5.760224 0.034,0.109987 0.0779,0.219001 0.16548,0.456496 0.80592,-2.484937 1.57972,-4.858911 2.35547,-7.246514 0.66577,0 1.29844,-0.01946 1.92917,0.004 0.66771,0.02628 1.11058,0.44871 1.11252,1.105714 0.0137,3.00178 0.006,6.003558 0.004,9.003391 -0.002,0.04964 -0.0224,0.09539 -0.0457,0.171308 -0.67258,0 -1.34808,0 -2.07224,0 0,-2.119935 0,-4.233055 0,-6.343254 -0.0399,-0.01168 -0.0779,-0.02044 -0.11778,-0.03115 -0.0477,0.13724 -0.0953,0.272534 -0.13919,0.410749 -0.59665,1.826959 -1.20888,3.65197 -1.77732,5.486715 -0.12751,0.419509 -0.31924,0.573297 -0.72999,0.511005 -0.14601,-0.02044 -0.30272,-0.002 -0.45066,-0.004 -0.86141,-0.003 -1.17093,-0.227762 -1.45611,-1.065807 -0.49641,-1.461956 -0.99087,-2.921966 -1.48435,-4.381975 -0.10804,-0.315363 -0.22776,-0.628778 -0.34068,-0.943166 -0.0302,0.0058 -0.0603,0.01265 -0.0906,0.02044 z" /><path
             style="fill:#ffffff;fill-opacity:1;stroke-width:0.97334"
             id="path28"
             d="m 139.959,65.439971 c 0,2.080028 0,4.159081 0,6.302374 -0.55286,0 -1.08333,0.04574 -1.60406,-0.01363 -0.41076,-0.04574 -0.52464,-0.397122 -0.52269,-0.787432 0.009,-1.051207 0.002,-2.09852 0.002,-3.149727 0,-1.918453 0,-3.833985 0,-5.752437 0,-0.179094 0,-0.361109 0,-0.590817 0.54507,0 1.06192,-0.0477 1.56416,0.0146 0.53243,0.06326 0.85557,0.461363 1.11739,0.910073 0.97334,1.665383 1.95641,3.326875 2.93462,4.986418 0.11681,0.196615 0.24139,0.388363 0.45553,0.570378 0,-2.146214 0,-4.294374 0,-6.486336 0.55869,0 1.0551,-0.01849 1.5515,0.004 0.35916,0.01752 0.51295,0.285188 0.56454,0.600549 0.036,0.211215 0.0204,0.428271 0.0204,0.646299 0.002,2.817817 0.002,5.636609 0.002,8.454427 0,0.181043 0,0.36111 0,0.588871 -0.58986,0 -1.15634,0.04186 -1.70918,-0.0146 -0.47207,-0.04574 -0.79036,-0.377656 -1.0298,-0.790352 -1.01519,-1.754931 -2.04304,-3.505969 -3.06311,-5.253114 -0.0584,-0.09636 -0.12361,-0.184934 -0.18298,-0.277401 -0.034,0.01168 -0.0682,0.02239 -0.10025,0.03797 z" /><path
             style="fill:#ffffff;fill-opacity:1;stroke-width:0.97334"
             id="path30"
             d="m 188.15639,71.751105 c -0.56843,0 -1.05121,0.01363 -1.53203,-0.0058 -0.34555,-0.01168 -0.58596,-0.221922 -0.58596,-0.562591 -0.01,-3.229542 -0.008,-6.458108 -0.008,-9.685702 1.47948,0 2.93365,-0.123615 4.35764,0.03601 1.49603,0.167414 2.42945,1.272156 2.71659,2.796405 0.2336,1.239061 -0.38544,2.539443 -1.57583,3.309354 -0.0682,0.0438 -0.13724,0.0915 -0.25502,0.175201 0.78548,1.286756 1.56805,2.568644 2.39344,3.916719 -0.70372,0 -1.35781,0.08468 -1.97102,-0.0331 -0.33482,-0.06229 -0.67452,-0.417564 -0.88574,-0.728059 -0.45843,-0.669657 -0.88768,-1.370462 -1.23613,-2.104359 -0.29882,-0.630724 -0.69399,-0.887686 -1.41815,-0.659925 0,1.135888 0,2.310708 0,3.545876 z m 0,-5.429288 c 0.23166,0 0.41464,0.002 0.59276,0 0.30076,-0.002 0.60444,0.02239 0.89937,-0.01168 0.67841,-0.08371 1.20499,-0.622937 1.28481,-1.275074 0.0836,-0.688152 -0.26573,-1.38409 -0.913,-1.54177 -0.59276,-0.143081 -1.2303,-0.119722 -1.86687,-0.171308 0.003,1.057046 0.003,1.986586 0.003,2.999832 z" /><path
             style="fill:#ffffff;fill-opacity:1;stroke-width:0.97334"
             id="path32"
             d="m 161.80303,71.753053 c -0.56648,0 -1.04926,-0.004 -1.53204,0 -0.47499,0.0058 -0.78936,-0.235549 -0.96166,-0.654085 -0.15379,-0.366949 -0.28712,-0.743631 -0.4049,-1.121287 -0.0799,-0.256962 -0.20343,-0.374736 -0.49251,-0.368895 -0.98308,0.01946 -1.96712,0.01752 -2.94727,0.002 -0.2735,-0.004 -0.41952,0.07203 -0.5042,0.351376 -0.15378,0.506137 -0.33871,1.007406 -0.55285,1.490183 -0.0594,0.135294 -0.26377,0.268643 -0.41561,0.287135 -0.37961,0.03991 -0.76505,0.02044 -1.14951,0.01168 -0.47499,-0.01168 -0.62392,-0.211215 -0.45845,-0.66771 0.57913,-1.604064 1.17482,-3.208129 1.76466,-4.807325 0.54702,-1.47753 1.10766,-2.948246 1.63715,-4.433562 0.11583,-0.321202 0.26378,-0.45747 0.60445,-0.415617 0.24723,0.03018 0.49835,-0.004 0.74947,0.01071 0.48863,0.02044 0.89158,0.228733 1.06678,0.690097 1.19721,3.180875 2.37982,6.365641 3.59649,9.625356 z m -6.07168,-3.935213 c 0.84193,0 1.60113,0 2.4129,0 -0.40297,-1.127128 -0.78159,-2.188068 -1.2011,-3.374568 -0.43314,1.202075 -0.81468,2.269828 -1.2118,3.374568 z" /><path
             style="fill:#ffffff;fill-opacity:1;stroke-width:0.97334"
             id="path34"
             d="m 117.89236,61.453172 c 1.93402,-0.0915 2.01481,-0.04574 2.65234,1.667331 1.01422,2.720484 2.02066,5.444861 3.03001,8.167293 0.0496,0.137241 0.0827,0.279348 0.13821,0.462336 -0.57816,0 -1.12421,0.07592 -1.63424,-0.02725 -0.30367,-0.06035 -0.62001,-0.361109 -0.80202,-0.631698 -0.21317,-0.323148 -0.2998,-0.736817 -0.42048,-1.115447 -0.0818,-0.257935 -0.20635,-0.370842 -0.49641,-0.365002 -0.98404,0.02044 -1.96809,0.01849 -2.95214,0.002 -0.27838,-0.0058 -0.41658,0.07787 -0.50224,0.350403 -0.15672,0.505164 -0.34748,1.001566 -0.54021,1.49797 -0.0429,0.108041 -0.14795,0.271561 -0.22874,0.275455 -0.51586,0.02434 -1.03855,0.0584 -1.54857,-0.0077 -0.41465,-0.05549 -0.36501,-0.395176 -0.25016,-0.709564 0.47597,-1.275075 0.94706,-2.549176 1.42108,-3.825225 0.70957,-1.913585 1.4201,-3.824251 2.13357,-5.740756 z m 2.20655,6.391921 c -0.39907,-1.120313 -0.77964,-2.1978 -1.20694,-3.404741 -0.4341,1.210834 -0.82248,2.292215 -1.22056,3.404741 0.82149,0 1.59335,0 2.4275,0 z" /><path
             style="fill:#ffffff;fill-opacity:1;stroke-width:0.97334"
             id="path36"
             d="m 177.07991,61.457066 c 2.2961,0 4.5416,0 6.87762,0 -0.28715,0.596658 -0.52269,1.159248 -0.82735,1.682904 -0.0799,0.136268 -0.3689,0.207321 -0.56453,0.211215 -1.0989,0.02044 -2.19781,0.0107 -3.3405,0.0107 0,0.79522 0,1.563185 0,2.373003 1.35391,0 2.69712,0 4.15713,0 -0.27157,0.586923 -0.48862,1.115447 -0.76797,1.609904 -0.0682,0.127507 -0.33872,0.191748 -0.51684,0.195641 -0.949,0.01752 -1.89704,0.0097 -2.88011,0.0097 0,0.754337 0,1.479476 0,2.258148 1.54176,0 3.08353,0 4.71875,0 -0.29688,0.625857 -0.53631,1.188447 -0.83221,1.71697 -0.0739,0.133348 -0.33677,0.215109 -0.51294,0.219002 -1.45028,0.01849 -2.90055,0.02044 -4.35181,0.004 -0.63461,-0.0058 -1.15243,-0.477911 -1.15633,-1.07846 -0.0107,-3.053368 -0.003,-6.104788 -0.003,-9.21266 z" /><path
             style="fill:#ffffff;fill-opacity:1;stroke-width:0.97334"
             id="path38"
             d="m 128.33282,71.751105 c -0.56746,0 -1.04829,0.01947 -1.52718,-0.0058 -0.48764,-0.02434 -0.62,-0.347483 -0.61903,-0.792299 0.007,-2.317522 0.004,-4.635044 0.004,-6.952565 0,-0.183962 0,-0.365002 0,-0.614178 -0.86141,0 -1.70043,0 -2.58909,0 0,-0.494456 -0.0301,-0.925645 0.009,-1.350995 0.0322,-0.340668 0.23263,-0.59763 0.6171,-0.59763 2.1686,0 4.33526,0.004 6.50482,0.0097 0.0273,0 0.0564,0.02628 0.12751,0.06132 0,0.357215 0.034,0.742658 -0.008,1.115447 -0.0554,0.497376 -0.41464,0.702752 -0.87503,0.718325 -0.53048,0.01849 -1.06192,0.004 -1.643,0.004 -9.7e-4,2.811979 -9.7e-4,5.570423 -9.7e-4,8.404787 z" /><path
             style="fill:#ffffff;fill-opacity:1;stroke-width:0.97334"
             id="path40"
             d="m 197.83655,71.749159 c -0.3173,0 -0.58401,0.002 -0.84582,-0.002 -0.72028,-0.0097 -1.22837,-0.446762 -1.23226,-1.1573 -0.0137,-2.999833 0,-6.001612 0.004,-9.003391 0,-0.03017 0.0224,-0.06035 0.0574,-0.146001 0.47305,0 0.97334,-0.0477 1.45806,0.02434 0.19759,0.02628 0.38544,0.294922 0.52853,0.488616 0.0759,0.104149 0.0574,0.289083 0.0574,0.438977 0.002,2.982313 0.002,5.967545 0.002,8.951805 -0.002,0.11388 -0.0156,0.228734 -0.0292,0.404908 z" /><path
             style="fill:#ffffff;fill-opacity:1;stroke-width:0.97334"
             id="path42"
             d="m 132.82801,61.43468 c 0.46623,0 0.91396,-0.004 1.36267,0.002 0.4458,0.004 0.67647,0.233601 0.67647,0.682311 0.002,3.183795 0.002,6.368562 0.002,9.594209 -0.42146,0 -0.83805,0.05743 -1.23128,-0.01558 -0.52949,-0.09441 -0.87016,-0.53047 -0.8721,-1.073594 -0.01,-3.020271 -0.002,-6.035677 0.002,-9.05303 0.003,-0.02822 0.0263,-0.0545 0.0603,-0.136269 z" /></g></g></g></g></svg>
