<svg id="Capa_1" xmlns="http://www.w3.org/2000/svg" viewBox="0 0 2019.86 297.47"><title>Gol Perú 2019</title><path d="M406.2-277.28C406.2-194.41,339.14-129,253.72-129S101.24-194.41,101.24-277.28c0-83.29,67.06-149.16,152.48-149.16S406.2-360.57,406.2-277.28Zm-70.47,0c0-48.87-35.45-85-82-85s-82,36.12-82,85c0,48.44,35.45,84.14,82,84.14S335.73-228.83,335.73-277.28Z" transform="translate(231.06 426.44)" fill="#002b8c"/><path d="M657.35-135.34H445.93V-420.06H516.4v223.53H657.35Z" transform="translate(231.06 426.44)" fill="#002b8c"/><path d="M837.59-420.06c64.49,0,105.07,39.52,105.07,98.17,0,59.92-41.86,99.44-108.06,99.44H767.12v87.12H696.65V-420.06Zm-8.12,139c27.34,0,44-15.72,44-39.95,0-22.95-16.66-39.1-44-39.1H767.12v79Z" transform="translate(231.06 426.44)" fill="#002b8c"/><path d="M1203.21-135.34h-223V-420.06h221.67v60.34h-151.2v53.55h138.81v56.94H1050.73v53.55h152.48Z" transform="translate(231.06 426.44)" fill="#002b8c"/><path d="M1424.46-135.34l-86.28-97.74h-20.5v97.74h-70.47V-420.06H1392c61.93,0,102.93,37.4,102.93,93.06,0,46.75-29,80.32-75.17,90.52l89.69,101.14Zm-40.15-156.39c25.2,0,41.43-13.6,41.43-34.42,0-20.4-16.23-34-41.43-34h-66.63v68.42Z" transform="translate(231.06 426.44)" fill="#002b8c"/><path d="M1788.79-263.68c0,81.59-50.83,134.71-126.85,134.71-77.74,0-129.84-53.12-129.84-134.71V-420.06h70.47v156.39c0,43.35,23.49,70.12,59.37,70.12,33.74,0,56.38-26.77,56.38-70.12V-420.06h70.47Z" transform="translate(231.06 426.44)" fill="#002b8c"/><path d="M-88-303.2v59.49H-.42c-10.68,31.45-38,51-75.6,51-47.84,0-84.14-36.55-84.14-85,0-48,35.45-84.57,82-84.57,23.84,0,47.34,6.32,64.06,28.54l66.47-26.9c-25-43-74.83-65.81-130.53-65.81C-164-426.44-231.06-361-231.06-277.7-231.06-194-163.58-129-76.88-129,9.4-129,71.33-191,71.33-277.28a206.48,206.48,0,0,0-1.71-25.92Z" transform="translate(231.06 426.44)" fill="#002b8c"/></svg>