<svg width="228" height="42" viewBox="0 0 228 42" fill="none" xmlns="http://www.w3.org/2000/svg">
<path d="M26.56 10.184H12.112V35H0.976V1.4H26.56V10.184ZM47.4171 35.768C43.8011 35.768 40.5531 35.016 37.6731 33.512C34.7931 32.008 32.5371 29.928 30.9051 27.272C29.2731 24.584 28.4571 21.56 28.4571 18.2C28.4571 14.84 29.2731 11.832 30.9051 9.176C32.5371 6.488 34.7931 4.392 37.6731 2.888C40.5531 1.384 43.8011 0.631999 47.4171 0.631999C51.0331 0.631999 54.2811 1.384 57.1611 2.888C60.0411 4.392 62.2971 6.488 63.9291 9.176C65.5611 11.832 66.3771 14.84 66.3771 18.2C66.3771 21.56 65.5611 24.584 63.9291 27.272C62.2971 29.928 60.0411 32.008 57.1611 33.512C54.2811 35.016 51.0331 35.768 47.4171 35.768ZM47.4171 26.6C48.8251 26.6 50.0891 26.264 51.2091 25.592C52.3611 24.888 53.2731 23.912 53.9451 22.664C54.6171 21.384 54.9531 19.896 54.9531 18.2C54.9531 16.504 54.6171 15.032 53.9451 13.784C53.2731 12.504 52.3611 11.528 51.2091 10.856C50.0891 10.152 48.8251 9.8 47.4171 9.8C46.0091 9.8 44.7291 10.152 43.5771 10.856C42.4571 11.528 41.5611 12.504 40.8891 13.784C40.2171 15.032 39.8811 16.504 39.8811 18.2C39.8811 19.896 40.2171 21.384 40.8891 22.664C41.5611 23.912 42.4571 24.888 43.5771 25.592C44.7291 26.264 46.0091 26.6 47.4171 26.6ZM89.0301 1.4C92.1341 1.4 94.8381 1.912 97.1421 2.936C99.4461 3.96 101.222 5.432 102.47 7.352C103.718 9.272 104.342 11.512 104.342 14.072C104.342 16.632 103.718 18.872 102.47 20.792C101.222 22.712 99.4461 24.184 97.1421 25.208C94.8381 26.232 92.1341 26.744 89.0301 26.744H84.1821V35H72.8541V1.4H89.0301ZM88.3101 18.008C89.8461 18.008 90.9981 17.672 91.7661 17C92.5341 16.296 92.9181 15.32 92.9181 14.072C92.9181 12.824 92.5341 11.864 91.7661 11.192C90.9981 10.488 89.8461 10.136 88.3101 10.136H84.1821V18.008H88.3101ZM145.934 26.216V41.576H135.566V35H116.462V41.576H106.094V26.216H107.054C109.006 26.216 110.382 24.984 111.182 22.52C111.982 20.056 112.494 16.424 112.718 11.624L113.102 1.4H141.518V26.216H145.934ZM122.558 12.584C122.43 15.816 122.174 18.568 121.79 20.84C121.406 23.08 120.814 24.872 120.014 26.216H130.382V10.184H122.654L122.558 12.584ZM169.227 35.768C165.611 35.768 162.363 35.016 159.483 33.512C156.603 32.008 154.347 29.928 152.715 27.272C151.083 24.584 150.267 21.56 150.267 18.2C150.267 14.84 151.083 11.832 152.715 9.176C154.347 6.488 156.603 4.392 159.483 2.888C162.363 1.384 165.611 0.631999 169.227 0.631999C172.843 0.631999 176.091 1.384 178.971 2.888C181.851 4.392 184.107 6.488 185.739 9.176C187.371 11.832 188.187 14.84 188.187 18.2C188.187 21.56 187.371 24.584 185.739 27.272C184.107 29.928 181.851 32.008 178.971 33.512C176.091 35.016 172.843 35.768 169.227 35.768ZM169.227 26.6C170.635 26.6 171.899 26.264 173.019 25.592C174.171 24.888 175.083 23.912 175.755 22.664C176.427 21.384 176.763 19.896 176.763 18.2C176.763 16.504 176.427 15.032 175.755 13.784C175.083 12.504 174.171 11.528 173.019 10.856C171.899 10.152 170.635 9.8 169.227 9.8C167.819 9.8 166.539 10.152 165.387 10.856C164.267 11.528 163.371 12.504 162.699 13.784C162.027 15.032 161.691 16.504 161.691 18.2C161.691 19.896 162.027 21.384 162.699 22.664C163.371 23.912 164.267 24.888 165.387 25.592C166.539 26.264 167.819 26.6 169.227 26.6ZM227.784 1.4V35H216.456V22.616H205.992V35H194.664V1.4H205.992V13.304H216.456V1.4H227.784Z" fill="#ff0000"/>
</svg>
