<svg version="1.1" width="894.9616" height="484.445" viewBox="0 0 894.9616 484.445" xmlns="http://www.w3.org/2000/svg">
  <path d="M655.585 128.485c-.86-.026-1.72.002-2.572.082-12.505.957-23.83 11.507-25.041 24.216-.767 6.655 2.045 13.707 7.544 17.575 6.168 4.488 14.606 4.664 21.504 1.857 7.156-2.863 13.14-8.736 15.92-16.004 2.49-6.366 2.24-14.098-1.834-19.756-3.488-5.045-9.504-7.792-15.521-7.97Z" fill="#310959"/>
  <path d="m668.33 6.762-24.687 106.44c-.474 2.042-.087 3.4.74 4.443a4.543 4.543 0 0 0 3.577 1.726h27.437a4.07 4.07 0 0 0 3.885-2.866L712.414 8.972c.515-1.67.135-3.481-.853-4.496-.987-1.014-2.479-1.61-3.977-1.61h-34.312c-1.862 0-4.204.714-4.942 3.896Z" fill="#310959"/>
  <path d="m538.806 7.25-6.8 29.308c-1.243 5.358 3.458 7.793 6.192 7.793h22.85c4.813 0 4.959 3.826 4.521 5.707l-26.472 113.75c-.864 3.716 1.966 7.306 5.8 7.306h34.005c2.928 0 5.17-2.019 5.832-4.87l27.243-117.266a5.98 5.98 0 0 1 5.825-4.627h24.619a6.271 6.271 0 0 0 6.113-4.874l6.693-29.3c.88-3.853-2.091-7.31-6.03-7.31H544.423c-2.511 0-5.002 1.73-5.617 4.383Z" fill="#310959"/>
  <path d="m458.019 6.461-76.156 156.112c-1.923 3.943.948 8.539 5.335 8.539h33.174c2.271 0 4.273-1.367 5.15-3.461l9.841-23.484a6.009 6.009 0 0 1 5.54-3.692h28.714a6.259 6.259 0 0 1 6.258 6.407l-.435 18.231a5.86 5.86 0 0 0 5.858 5.999h32.375a6.14 6.14 0 0 0 6.138-6.25L517.025 8.616a5.853 5.853 0 0 0-5.852-5.749h-47.4a6.402 6.402 0 0 0-5.754 3.595Zm19.99 48.682-.937 43.134a6.387 6.387 0 0 1-6.385 6.249H456c-2.027 0-3.407-2.057-2.638-3.933l19.104-46.604c1.211-2.953 5.612-2.036 5.543 1.154Z" fill="#310959"/>
  <path d="m304.022 7.738-35.98 155.822c-.893 3.863 1.84 7.552 5.805 7.552h91.925c3.083 0 5.783-2.169 6.503-5.099l6.594-26.848c1.144-4.66-3.495-7.14-5.57-7.14h-44.312c-3.925 0-6.928-3.683-6.063-7.564l3.085-13.83a6.238 6.238 0 0 1 6.088-4.88h43.3a6.021 6.021 0 0 0 5.856-4.62l6.415-26.793c.92-3.843-1.993-7.537-5.946-7.537h-37.916c-3.842 0-6.69-3.567-5.84-7.314l2.938-12.929a5.95 5.95 0 0 1 5.802-4.632h46.867a6.002 6.002 0 0 0 5.842-4.623l6.351-26.894c.91-3.851-2.011-7.543-5.968-7.543h-89.65a6.286 6.286 0 0 0-6.126 4.872Z" fill="#310959"/>
  <path d="M225.952 2.866H173.01a6.297 6.297 0 0 0-6.128 4.871l-35.89 155.083c-.364 1.573-.473 4.072.802 5.893 1.011 1.444 2.633 2.402 4.678 2.402h31.25a5.957 5.957 0 0 0 5.808-4.631l11.893-52.059h.912c2.52 11.273 6.303 22.424 12.674 32.133 4.319 6.64 10.467 12.01 17.369 15.854 7.633 4.264 16.119 6.97 24.783 8.091 3.103.419 6.732.441 9.861.415 3.078-.022 5.243-2.145 5.95-5.141l6.252-26.635a6.307 6.307 0 0 0-5.36-7.536c-4.987-.781-9.877-2.203-14.24-4.753-6.392-3.59-11.022-9.977-12.832-17.059 14.536-5.007 27.577-14.66 35.531-27.927 5.598-9.299 7.739-19.45 8.086-30.18.347-7.166-.078-15.102-2.787-21.799-1.66-4.196-4.085-8.193-7.1-11.695-3.014-3.502-6.618-6.374-10.55-8.588-8.46-4.87-18.345-6.79-28.02-6.738Zm-17.73 36.41h8.677c4.151.105 8.602 1.673 11.164 5.111 2.847 3.77 3.076 8.819 2.418 13.305-.983 5.839-3.707 11.715-8.316 15.558-4.024 3.349-9.434 4.775-14.584 4.875h-8.909A3.77 3.77 0 0 1 195 73.5l6.781-29.11a6.614 6.614 0 0 1 6.441-5.113Z" fill="#310959"/>
  <path d="M88.673.051C78.55-.29 68.09 1.061 58.669 4.851c-13.11 5.182-24.035 14.469-32.047 25.952-7.623 10.836-12.959 22.398-17.041 34.961-3.756 11.488-6.403 22.508-8.145 34.47-1.013 6.589-1.5 11.926-1.43 17.05.085 6.087.627 9.44 1.706 14.74a53.115 53.115 0 0 0 10.058 21.935c5.597 7.241 12.216 12.132 26.963 15.182 9.33 1.93 21.397 1.973 21.397 1.973h43.742c3.146 0 6.859-.986 9.186-2.839 1.163-.926 2.12-2.145 2.929-3.414.808-1.27 1.85-4.525 2.21-6.02l1.56-6.464 16.225-70.717c.84-3.66-1.981-7.309-5.819-7.309H82.335c-2.637 0-4.95 1.911-5.53 4.38l-5.018 21.33c-.593 2.521-.299 8.14 5.585 8.14h10.152c1.091 0 1.95.99 1.75 2.063l-2.804 14.873c-.403 2.134-1.44 4.756-3.473 5.523-1.555.586-3.299 1.015-5.435 1.404-5.15.937-15.58.576-17.462.11-2.728-.673-4.009-.941-6.478-2.507-2.527-1.602-4.114-4.073-5.406-7.223-1.964-5.37-1.799-11.111-1.293-16.727.534-5.665 1.521-10.029 2.672-14.348 1.15-4.318 1.435-6.59 2.908-12.074 1.236-4.328 3.628-12.018 5.16-15.513 6.278-14.32 11.608-20.219 18.146-21.96 3.428-.897 7.888-1.017 11.44.385 1.676.662 3.15 1.662 4.217 3.08.733 1.276 1.277 2.797 2.232 5.596.917 2.681 3.455 4.434 6.289 4.393l36.007-.42c3.256.004 5.899-2.758 5.758-6.01-.474-8.128-2.051-15.434-5.69-22.744-2.328-4.73-5.733-9.067-9.739-12.819-1.95-1.826-5.124-4.366-9.004-6.45-3.767-2.025-8.194-3.703-13.191-4.915C99.16.713 94.03.21 88.673.051Z" fill="#310959"/>
  <path d="M753.573 43.394a3.953 3.953 0 0 0-3.943 3.961V76.72h-29.295a3.953 3.953 0 0 0-3.944 3.96v12.44a3.953 3.953 0 0 0 3.944 3.96h29.294v30.028a3.953 3.953 0 0 0 3.944 3.961h12.394a3.95 3.95 0 0 0 3.944-3.96V97.08h29.98a3.953 3.953 0 0 0 3.944-3.961v-12.44a3.95 3.95 0 0 0-3.944-3.96h-29.98V47.355a3.95 3.95 0 0 0-3.944-3.96Z" fill="#310959"/>
  <path d="m811.722 142.682 3.807-14.428q.334-1.267 1.155-1.994c.547-.484 1.056-.785 1.926-.785h19.406c1.74 0 3.138-1.112 3.613-2.9l16.279-61.372c.296-1.116 1.816.099-2.057 2.663-5.514 3.651-13.034 5.768-22.96 6.237-2.713.128-4.479-2.016-3.777-4.652l4.133-15.545c.225-.842.54-1.587 1.157-2.105.813-.682 1.558-.876 2.991-.881 3.014-.01 6.242-.366 9.465-1.222 3.648-.968 9.928-2.98 16.92-8.898 2.813-2.38 5.43-5.206 7.72-8.308 1.372-1.857 2.529-1.842 4.035-1.842h15.703c2.48 0 4.286 2.104 3.563 4.804l-23.903 89.263c-.645 2.406 1.06 4.633 3.54 4.633h11.881c2.236 0 4.053 2.223 3.442 4.538l-3.882 14.705c-.446 1.69-1.656 2.947-3.908 2.947h-66.617c-2.485 0-4.42-1.873-3.632-4.858" fill="#310959"/>
  <path d="m158.802 235.372-9.778 43.016c-2.32 10.202 5.435 19.917 15.897 19.917h33.249l-38.715 166.659c-2.314 9.96 5.6 19.481 15.825 19.481h49.524a16.3 16.3 0 0 0 15.88-12.614l40.02-172.26a1.64 1.64 0 0 1 1.594-1.266h64.077v169.69c0 9.085 7.365 16.45 16.45 16.45h73.302c6.27 0 11.992-3.577 14.737-9.215l111.461-228.911c5.314-10.914-2.633-23.624-14.772-23.624H499.94c-6.627 0-12.6 3.996-15.128 10.122l-62.716 151.935V239.145c0-9.085-7.365-16.45-16.45-16.45H174.684a16.29 16.29 0 0 0-15.882 12.677m15.955 2.073h230.789a1.8 1.8 0 0 1 1.8 1.8v168.339c0 4.884 3.423 9.011 8.214 9.961s9.592-1.538 11.478-6.106l71.373-172.93a1.72 1.72 0 0 1 1.589-1.064h47.52a1.7 1.7 0 0 1 1.53 2.446L437.655 468.66a1.84 1.84 0 0 1-1.654 1.034h-73.077a1.8 1.8 0 0 1-1.8-1.8v-176.94a7.4 7.4 0 0 0-7.4-7.4H282.23a16.3 16.3 0 0 0-15.88 12.614l-40.02 172.26a1.64 1.64 0 0 1-1.594 1.266H175.35c-.767 0-1.684-.714-1.51-1.46l38.601-166.173c1.357-5.84.596-10.481-2.049-13.634-3.074-3.663-7.606-4.873-13.652-4.873h-31.765a1.596 1.596 0 0 1-1.557-1.95l9.75-42.892a1.63 1.63 0 0 1 1.589-1.268" fill="#310959"/>
</svg>
