<?xml version="1.0" encoding="UTF-8"?>
<svg xmlns="http://www.w3.org/2000/svg" viewBox="0 0 490.65 438.17">
  <defs>
    <style>
      .cls-1 {
        fill: none;
      }

      .cls-2 {
        fill: #e72316;
      }
    </style>
  </defs>
  <g id="Layer_2" data-name="Layer 2">
    <path d="M49.13,339.05h0l-.88.05c-7.97.13-15.56,1.99-22.31,5.51-.71.35-1.39.78-2.06,1.15-6.81,3.94-12.34,9.6-16.37,16.56h-.08l-.25.45.05-.08.04-.03s-.06.07-.09.12c-4.3,7.54-6.36,16.3-6.36,25.85s1.99,18.3,6.15,25.91l.04.07.04.03c4.2,7.34,10.05,13.27,17.25,17.41l.08.06h.04c7.33,4.02,15.6,6.16,24.4,6.01,8.85-.15,17.3-2.98,24.48-9.53h.08v8.34h24.06v-47.25h-.01c0-.36.01-.73.01-1.1,0-9.53-2.06-18.28-6.34-25.8-4.11-7.5-10.09-13.48-17.54-17.52-7.32-4.12-15.61-6.19-24.42-6.19h0ZM48.98,362.48h.11c4.3.04,8.03.95,11.61,2.89l.04.04.09.04c3.37,1.76,6.02,4.34,8.27,8.35l.03.05.04.06c2.08,3.64,3.31,8.45,3.31,14.79s-1.21,10.75-3.26,14.46l-.2.49c-2.24,3.91-4.92,6.54-8.35,8.42-3.62,1.88-7.41,2.81-11.79,2.81s-8.15-.94-11.77-2.81c-3.29-1.85-5.93-4.47-8.17-8.34-2.03-3.78-3.21-8.68-3.21-15.03s1.18-11.19,3.19-14.84c2.25-4.01,4.9-6.59,8.27-8.35l.06-.03.07-.05c3.61-1.96,7.36-2.92,11.71-2.92l-.04-.03Z"/>
  </g>
  <g id="Layer_3" data-name="Layer 3">
    <path d="M142.68,338.76c-10.97.2-20.86,4.02-28.23,11.27-7.85,7.62-11.5,18.63-11.5,31.48v55.43h24.55v-54.21c0-7.78,1.83-12.54,4.83-15.67l.07-.07v-.03c3.05-3.25,6.78-4.85,13.1-4.85.21,0,.41.01.61.01h9.64v-23.33l-12.2-.02h-.88Z"/>
  </g>
  <g id="Layer_4" data-name="Layer 4">
    <g>
      <path d="M373.49,310.93h0s0,0,0,0h0ZM360.7,436.95h24.71l.44-89.34h-24.71l-.44,89.34Z"/>
      <path class="cls-2" d="M373.49,310.94c-3.8,0-7.62,1.61-10.32,4.26-2.83,2.7-4.43,6.66-4.43,10.49s1.57,7.82,4.33,10.58c2.71,2.71,6.6,4.33,10.44,4.33s7.73-1.63,10.43-4.33c2.76-2.76,4.33-6.72,4.33-10.58s-1.6-7.79-4.43-10.49c-2.7-2.65-6.52-4.27-10.32-4.27h-.03Z"/>
    </g>
  </g>
  <g id="Layer_5" data-name="Layer 5">
    <path d="M199.69,339.05h0l-.88.05c-7.97.13-15.56,1.99-22.31,5.51-.71.35-1.4.78-2.07,1.15-6.81,3.94-12.34,9.6-16.37,16.56h-.08l-.25.45.05-.08.04-.03s-.06.07-.09.12c-4.3,7.54-6.36,16.3-6.36,25.85s1.99,18.3,6.15,25.91l.04.07.04.03c4.2,7.34,10.05,13.27,17.25,17.41l.08.06h.04c7.33,4.02,15.6,6.16,24.4,6.01,8.85-.15,17.3-2.98,24.48-9.53h.08v8.34h24.06v-47.25h-.01c0-.36.01-.73.01-1.1,0-9.53-2.06-18.28-6.34-25.8-4.11-7.5-10.09-13.48-17.54-17.52-7.32-4.12-15.61-6.19-24.42-6.19h0ZM199.54,362.48h.11c4.3.04,8.03.95,11.61,2.89l.04.04.09.04c3.37,1.76,6.02,4.34,8.27,8.35l.03.05.04.06c2.08,3.64,3.31,8.45,3.31,14.79s-1.2,10.75-3.26,14.46l-.2.49c-2.24,3.91-4.92,6.54-8.35,8.42-3.62,1.88-7.41,2.81-11.79,2.81s-8.15-.94-11.77-2.81c-3.29-1.85-5.94-4.47-8.17-8.34-2.03-3.78-3.21-8.68-3.21-15.03s1.18-11.19,3.19-14.84c2.25-4.01,4.9-6.59,8.27-8.35l.06-.03.07-.05c3.61-1.96,7.36-2.92,11.71-2.92l-.04-.03Z"/>
  </g>
  <g id="Layer_6" data-name="Layer 6">
    <path d="M281.18,310.99l-24.55.03v125.95h24.55v-6.48c.48.44.87.87,1.51,1.28l.06.03.06.04c6.97,4.28,15.18,6.34,24.1,6.34,8.45,0,16.39-2.07,23.37-6.14h.09l.2-.12c7.16-4.18,12.85-10.27,16.74-17.78,4.01-7.57,5.93-16.23,5.93-25.63s-1.93-18-5.95-25.49c-3.87-7.49-9.51-13.54-16.59-17.62-7.06-4.18-15.15-6.25-23.79-6.25s-16.81,2.11-23.7,6.39h-.15l-.22.14c-.69.44-1.14.92-1.66,1.41v-36.1ZM304.8,362.49h.14c4.72.04,8.61,1.01,12.1,2.98,3.46,1.95,6.02,4.62,8.08,8.59v.03l.04.07.04.06c2.06,3.73,3.21,8.36,3.21,14.27s-1.14,10.51-3.27,14.52l-.05.12v.03c-2.07,3.94-4.66,6.68-8.11,8.72-3.52,1.97-7.41,2.99-12.18,2.99-4.5,0-8.34-1.03-12.01-3.13-3.51-2.07-6.19-4.86-8.36-8.88-2.11-3.9-3.23-8.48-3.23-14.18s1.13-10.28,3.23-14.17c2.17-4.02,4.85-6.81,8.36-8.87,3.68-2.11,7.52-3.13,12.02-3.13h0Z"/>
  </g>
  <g id="Layer_7" data-name="Layer 7">
    <path d="M441.53,339.05h0l-.88.05c-7.97.13-15.56,1.99-22.31,5.51-.71.35-1.4.78-2.07,1.15-6.81,3.94-12.34,9.6-16.37,16.56h-.08l-.25.45.05-.08.04-.03s-.06.07-.09.12c-4.3,7.54-6.37,16.3-6.37,25.85s1.99,18.3,6.15,25.91l.04.07.04.03c4.2,7.34,10.05,13.27,17.25,17.41l.08.06h.04c7.33,4.02,15.6,6.16,24.4,6.01,8.85-.15,17.3-2.98,24.48-9.53h.08v8.34h24.06v-47.25h-.01c0-.36.01-.73.01-1.1,0-9.53-2.06-18.28-6.34-25.8-4.11-7.5-10.09-13.48-17.54-17.52-7.32-4.12-15.61-6.19-24.42-6.19h0ZM441.37,362.48h.11c4.3.04,8.03.95,11.61,2.89l.04.04.09.04c3.37,1.76,6.02,4.34,8.27,8.35l.03.05.04.06c2.08,3.64,3.31,8.45,3.31,14.79s-1.21,10.75-3.26,14.46l-.2.49c-2.24,3.91-4.92,6.54-8.35,8.42-3.62,1.88-7.41,2.81-11.79,2.81s-8.15-.94-11.77-2.81c-3.29-1.85-5.94-4.47-8.17-8.34-2.03-3.78-3.21-8.68-3.21-15.03s1.18-11.19,3.19-14.84c2.25-4.01,4.9-6.59,8.27-8.35l.06-.03.07-.05c3.61-1.96,7.36-2.92,11.71-2.92l-.04-.03Z"/>
  </g>
  <g id="Layer_8" data-name="Layer 8">
    <g>
      <path class="cls-1" d="M416.53,122.76h-39.67v74.05h39.67c8.59,0,15.39-3.26,22.2-8.88,5.92-5.92,8.88-13.03,8.88-21.61v-12.77c0-16.58-14.8-30.79-31.09-30.79Z"/>
      <path class="cls-1" d="M287.63,155.2c-4.6,4.6-6.9,10.12-6.9,16.78v.92c0,12.87,11.5,23.91,24.14,23.91h30.81v-48.51h-30.81c-6.67,0-11.96,2.53-17.24,6.9Z"/>
      <path d="M472.48,75.41c-12.19-11.73-26.21-17.93-43-17.93h-85.07c-18.29,0-33.11,14.82-33.11,33.11h-6.44c-22.76,0-42.08,8.05-57.48,23.91-16.09,15.64-24.14,34.72-24.14,57.48v.92c0,8.28,1.15,16.32,3.22,23.91h-16.82c-3.91.23-7.36,0-10.81-.23V57.48c0-31.74-25.73-57.48-57.48-57.48v191.06c.07,1.96.05,3.87-.02,5.75h-37.57V62.45c-31.87,0-57.71,25.84-57.71,57.71v76.65H0v.39c0,31.53,25.35,57.28,56.88,57.28h80.72c13.1,0,24.92-3.86,34.81-11.22,9.89,7.36,21.58,11.22,35.15,11.22h185.68l33.19-.41c35.47,0,64.23-28.76,64.23-64.23v-71.42c0-16.78-6.44-31.04-18.16-43ZM335.68,196.81h-30.81c-12.65,0-24.14-11.04-24.14-23.91v-.92c0-6.67,2.3-12.19,6.9-16.78,5.29-4.37,10.57-6.9,17.24-6.9h30.81v48.51ZM447.62,166.32c0,8.58-2.96,15.69-8.88,21.61-6.81,5.62-13.61,8.88-22.2,8.88h-39.67v-74.05h39.67c16.28,0,31.09,14.21,31.09,30.79v12.77Z"/>
    </g>
  </g>
</svg>