<svg xmlns="http://www.w3.org/2000/svg" xmlns:xlink="http://www.w3.org/1999/xlink" viewBox="0 0 681.03 926.22"><defs><style>.a{fill:#ff0036;}.b{fill:#f20034;}.c{fill:#fff;}.d{fill:#ff5375;}.e{fill:#ff5277;}.f{fill:url(#a);}.g{fill:url(#b);}</style><linearGradient id="a" x1="-1675.27" y1="-957.87" x2="-1674.27" y2="-957.87" gradientTransform="matrix(0, 737.39, 737.39, 0, 706531.51, 1235326.1)" gradientUnits="userSpaceOnUse"><stop offset="0" stop-color="#fff"/><stop offset="0.2" stop-color="#fff"/><stop offset="0.51" stop-color="#ccc"/><stop offset="0.78" stop-color="#fff"/><stop offset="1" stop-color="#aeadad"/></linearGradient><linearGradient id="b" x1="-1675.27" y1="-957.87" x2="-1674.27" y2="-957.87" gradientTransform="matrix(0, 573.66, 573.66, 0, 549973.05, 961203.16)" xlink:href="#a"/></defs><title>Asset 1</title><path class="a" d="M547,431.93A133.61,133.61,0,0,0,413.37,298.32H413l-138.57.46-2.34.22V0H134.47V1.58h.12V606H272.06V435.06l.13.06v-.27H361.1a46.25,46.25,0,0,1,37,18.56,3.78,3.78,0,0,1,.6.86A46.07,46.07,0,0,1,407.32,481l-.12,259.53H547.12Z"/><polyline class="b" points="680.89 926.22 0 926.22 0 764.61 680.89 764.61 680.89 926.22"/><path class="c" d="M138.32,781.77h25.42v45.15a54.74,54.74,0,0,1,4.76-5.4,33.49,33.49,0,0,1,5.77-4.56,28.58,28.58,0,0,1,7-3.15,29.76,29.76,0,0,1,8.69-1.17q14.55,0,22.49,8.87t7.94,24.41v58H195V853.82q0-9-4-13.66t-11.37-4.61q-7.35,0-11.62,4.61t-4.26,13.66v50.12H138.32V781.77"/><path class="c" d="M288,903.94a39.69,39.69,0,0,1-12-1.76,28.08,28.08,0,0,1-9.79-5.26,25,25,0,0,1-6.6-8.62,27,27,0,0,1-2.43-11.78v-.34a28.06,28.06,0,0,1,2.68-12.71,24.38,24.38,0,0,1,7.44-8.86,33.4,33.4,0,0,1,11.37-5.26,56.91,56.91,0,0,1,14.63-1.76,62.67,62.67,0,0,1,12,1,75.82,75.82,0,0,1,9.94,2.68v-1.51q0-8-4.84-12.2T296,833.38a60.09,60.09,0,0,0-13,1.25,87.69,87.69,0,0,0-11.79,3.6l-6.35-19.4a98.55,98.55,0,0,1,15.38-5.18,80.83,80.83,0,0,1,19.39-2,55.14,55.14,0,0,1,18,2.59,32,32,0,0,1,12.29,7.44A30.3,30.3,0,0,1,337.3,834a53.44,53.44,0,0,1,2.34,16.31v52H315.06v-9.7a35.47,35.47,0,0,1-11.21,8.28q-6.51,3.09-15.88,3.09m7.69-17.56q9,0,14.46-4.35a13.83,13.83,0,0,0,5.44-11.36v-4.52a38.88,38.88,0,0,0-7.44-2.42,39.62,39.62,0,0,0-8.78-.92q-8.19,0-12.88,3.17a10.44,10.44,0,0,0-4.68,9.2v.33a9.38,9.38,0,0,0,3.85,8q3.84,2.85,10,2.84"/><polyline class="c" points="452.16 781.88 477.58 781.88 477.58 846.92 507.34 814.32 537.77 814.32 503.66 849.6 538.94 903.94 509.85 903.94 486.44 867.32 477.58 876.68 477.58 903.94 452.16 903.94 452.16 781.88"/><path class="c" d="M374.87,783.61h25.44v89.56q0,8.73,9.48,8.73h8.73v23.94H407.29q-15,0-23.19-6.74-9.23-7.73-9.23-23.94V783.61"/><path class="d" d="M680.89,764.61H0s59.9,9.8,138.32,22.9v-5.74h25.42v10c39.1,6.56,81.42,13.71,122.48,20.74a96.06,96.06,0,0,1,13.45-.86,55.14,55.14,0,0,1,18,2.59,33.59,33.59,0,0,1,10,5.41c16.32,2.83,32.15,5.6,47.2,8.26V783.61h25.44v48.81c19.43,3.48,37,6.7,51.85,9.52V781.88h25.42v65h0l29.76-32.6h30.43L503.66,849.6l2.64,4c95.83,25.21,174.59,72.57,174.59,72.57V764.61"/><path class="c" d="M163.74,781.77H138.32v5.74l25.42,4.25v-10"/><path class="c" d="M299.67,811.64a96.06,96.06,0,0,0-13.45.86c14,2.4,27.9,4.79,41.45,7.14a33.59,33.59,0,0,0-10-5.41,55.14,55.14,0,0,0-18-2.59"/><path class="c" d="M537.77,814.32H507.34l-29.76,32.6q14.55,3,28.72,6.73l-2.64-4,34.11-35.28m-60.19-32.44H452.16v60.06c9.7,1.84,18.26,3.52,25.42,5v-65"/><path class="c" d="M400.31,783.61H374.87V827.9l25.44,4.52V783.61"/><path class="e" d="M514,452.14c14.22,16.16,33.09,108.61,33.09,108.61S566,404,547.12,373.31C534.76,353.22,514,344,496.77,327.48c-29.45-28.28-79.18-35.72-122.32-41.21s-102.39-7.07-102.39-7.07V0H134.47s-1.45,151,.12,167.44.42,29.41,2.41,61.83c1.15,18.82,3.94,40.78,35.83,56.2,13.56,6.56,46.39,25.14,134.11,58.82C361.42,365.22,465.1,396.58,514,452.14Z"/><path class="f" d="M407.3,481V739H1.56V1.58h133V606H272.16V434.85h88.92a46.25,46.25,0,0,1,37,18.55,3.84,3.84,0,0,1,.6.87A46.11,46.11,0,0,1,407.3,481Z"/><path class="c" d="M407.3,481h-1V738H2.56V2.58h131V607H273.16V435.85h87.92A45.25,45.25,0,0,1,397.32,454a3.92,3.92,0,0,1,.47.64l0,.11.07.1A45,45,0,0,1,406.3,481h2a47.09,47.09,0,0,0-8.77-27.31l-.81.58.93-.37a4.57,4.57,0,0,0-.73-1.1,47.24,47.24,0,0,0-37.84-18.95H271.16V605H135.57V.58H.56V740H408.3V481Z"/><path class="g" d="M680,431.92V739H547v-307a133.61,133.61,0,0,0-133.67-133.6H413l-140.79.46V165.71l140.32-.4A266.69,266.69,0,0,1,680,431.92Z"/><path class="c" d="M680,431.92h-1V738H548v-306a134.62,134.62,0,0,0-134.67-134.6H413l-139.79.46V165.71h-1v1l140.33-.4H414A265.71,265.71,0,0,1,679,431.92h2A267.69,267.69,0,0,0,414,164.3h-1.51l-141.32.4V299.78L413,299.32h.4A132.62,132.62,0,0,1,546,431.92V740H681v-308Z"/></svg>