<?xml version="1.0" encoding="UTF-8" standalone="no"?>
<!-- Created with Inkscape (http://www.inkscape.org/) -->

<svg
   xmlns:dc="http://purl.org/dc/elements/1.1/"
   xmlns:cc="http://creativecommons.org/ns#"
   xmlns:rdf="http://www.w3.org/1999/02/22-rdf-syntax-ns#"
   xmlns:svg="http://www.w3.org/2000/svg"
   xmlns="http://www.w3.org/2000/svg"
   xmlns:xlink="http://www.w3.org/1999/xlink"
   xmlns:sodipodi="http://sodipodi.sourceforge.net/DTD/sodipodi-0.dtd"
   xmlns:inkscape="http://www.inkscape.org/namespaces/inkscape"
   width="412"
   height="251"
   id="svg2"
   version="1.1">
  <g
     inkscape:label="Layer 1"
     inkscape:groupmode="layer"
     id="layer1"
     transform="translate(-194.80628,-274.75977)">
    <polygon
       id="polygon856"
       points="45.899,276.41 46.38,281.398 49.977,281.053 48.758,268.401 45.161,268.747 45.618,273.495 43.46,273.703 43.003,268.955 39.522,269.29 40.74,281.942 44.221,281.606 43.741,276.618 "
       clip-path="none"
       transform="matrix(8.7538531,0.84220599,-0.84220599,8.7538531,133.11447,-2113.9321)" />
    <path
       clip-path="none"
       d="m 472.55075,309.44389 c -12.5371,0.004 -22.70313,10.1669 -22.69894,22.704 0.004,12.5371 10.16774,22.69438 22.70484,22.69019 12.53626,0.005 22.69354,-10.15899 22.68935,-22.69609 0.005,-12.53626 -10.15815,-22.70229 -22.69525,-22.6981"
       id="path866" />
    <path
       clip-path="none"
       d="m 471.8325,274.75972 c -21.81371,0.004 -41.53696,12.80768 -50.84679,32.16154 0.018,-0.55486 0.15611,-1.07167 0.07,-1.6454 -2.22483,-15.25985 -15.58911,-28.60524 -33.374,-28.60235 l -48.14982,-0.003 0.005,111.79706 51.48993,-0.002 c 11.58242,10e-4 29.22345,-10.35239 30.0069,-31.25986 9.3321,19.44225 29.02799,32.45147 50.80668,32.44409 30.25028,0.004 57.04291,-23.83489 57.03561,-59.11327 -0.002,-32.58319 -26.79226,-55.78133 -57.04338,-55.77627 m -91.2954,87.56087 -11.20381,-0.0796 -10e-4,-18.72122 12.31606,0.0894 c 13.9862,-0.006 13.9882,18.70634 -1.1111,18.7114 m -0.003,-41.47127 -11.20381,-0.0796 -0.002,-19.54291 12.31774,0.0719 c 13.98537,0.003 13.98698,19.54554 -1.11232,19.5506 m 35.24253,18.18026 c -4.32614,-5.54045 -9.73107,-7.30617 -9.73107,-7.30617 0,0 5.51707,-1.6956 9.86911,-7.90305 -0.36983,2.65023 -0.56879,5.36106 -0.57147,8.14379 -0.001,2.40295 0.15175,4.75893 0.43343,7.06543 m 56.65453,21.89244 c -15.12556,0.002 -28.24797,-12.55096 -28.24437,-28.84213 -0.005,-16.29203 13.11577,-28.60888 28.24133,-28.61141 15.12471,0.006 28.52528,11.59697 28.52169,27.88814 0.007,17.65275 -13.39393,29.57162 -28.51865,29.5654"
       id="path868" />
    <path
       clip-path="none"
       d="m 518.80161,276.5663 c 0.94509,0.003 1.85784,0.24942 2.74869,0.72386 0.89876,0.48404 1.5918,1.178 2.0887,2.07395 0.50565,0.8968 0.75155,1.83045 0.7552,2.80264 -0.004,0.96259 -0.25279,1.89285 -0.73598,2.78285 -0.49195,0.88917 -1.18591,1.58221 -2.07227,2.0712 -0.8872,0.49774 -1.81125,0.73573 -2.78344,0.73938 -0.96344,0.004 -1.89369,-0.24404 -2.78286,-0.73599 -0.88917,-0.49195 -1.57345,-1.18506 -2.07119,-2.07226 -0.48899,-0.88636 -0.73489,-1.82001 -0.73938,-2.78345 0.005,-0.97134 0.25447,-1.91035 0.75602,-2.80743 0.50154,-0.89708 1.1955,-1.59011 2.08977,-2.06951 0.89427,-0.47939 1.80957,-0.71822 2.74674,-0.72524 m -0.002,0.93633 c -0.77708,-0.004 -1.54726,0.1957 -2.29305,0.60103 -0.73704,0.40617 -1.32206,0.97716 -1.73842,1.72341 -0.4172,0.755 -0.63306,1.52937 -0.63176,2.34231 0.002,0.80418 0.21068,1.57521 0.61601,2.32099 0.41493,0.73788 0.99552,1.315 1.73385,1.72176 0.7375,0.41551 1.51271,0.62262 2.31689,0.62047 0.80418,-0.002 1.57521,-0.21068 2.321,-0.61601 0.73787,-0.41493 1.31499,-0.99551 1.72175,-1.73385 0.41551,-0.73749 0.61302,-1.50479 0.62048,-2.31689 -0.002,-0.80418 -0.20984,-1.58396 -0.63184,-2.34018 -0.41408,-0.74663 -0.99467,-1.32375 -1.7426,-1.7226 -0.74709,-0.4076 -1.50564,-0.60427 -2.29231,-0.60044 m -2.45169,7.75969 0.005,-6.02487 2.06777,-0.004 c 0.71496,0.007 1.22269,0.0558 1.539,0.16573 0.31547,0.1187 0.57084,0.31113 0.7565,0.58521 0.19443,0.27492 0.28919,0.57558 0.28597,0.8845 0.002,0.4419 -0.15879,0.82403 -0.4726,1.14724 -0.31466,0.33195 -0.73839,0.51206 -1.26329,0.54991 0.21211,0.0911 0.38752,0.19631 0.51747,0.31483 0.24156,0.24411 0.53884,0.64378 0.89183,1.19899 l 0.73425,1.18384 -1.19272,1e-4 -0.52687,-0.95184 c -0.42284,-0.74747 -0.76674,-1.21347 -1.0221,-1.4059 -0.17204,-0.14024 -0.4392,-0.21012 -0.77606,-0.19835 l -0.57405,-0.002 0.002,2.55344 -0.97219,0.004 z m 0.97086,-3.38754 1.18396,-9.4e-4 c 0.5653,0.001 0.95351,-0.085 1.16378,-0.25026 0.20152,-0.16615 0.3118,-0.39408 0.31164,-0.66798 -6.6e-4,-0.17676 -0.0555,-0.34107 -0.14794,-0.48248 -0.10117,-0.14226 -0.24157,-0.24411 -0.42034,-0.31432 -0.17878,-0.0702 -0.50267,-0.10137 -0.97959,-0.10308 l -1.11309,-0.001 0.002,1.82013 z"
       id="path870" />
    <path
       clip-path="none"
       d="m 339.22209,471.07878 c -0.003,12.51875 -10.82966,22.66207 -24.1972,22.66587 -13.36754,0.004 -24.19437,-10.1466 -24.20025,-22.6662 0.002,-12.50999 10.82967,-22.66206 24.19636,-22.65712 13.36755,-0.004 24.20313,10.14745 24.20109,22.65745"
       id="path872"
       style="fill:#f8ec00" />
    <path
       clip-path="none"
       d="m 342.49219,498.33978 -11.20264,5e-5 -1.5e-4,-6.33462 c -3.85231,4.59457 -11.37917,7.98747 -17.81093,7.98711 -13.12866,2.9e-4 -24.79147,-10.46026 -24.79222,-27.44097 3e-5,-15.61124 11.38864,-26.91088 25.5245,-26.91144 10.37219,-4.4e-4 16.52998,7.43903 16.89239,8.17186 l 0.18551,1.7e-4 -4.9e-4,-6.423 11.20264,-5e-5 0.001,50.95089 z m -26.44374,-41.49714 c -10.00992,-5e-5 -15.1518,8.63169 -15.1433,16.25701 8.7e-4,8.62293 6.42416,15.69037 15.14422,15.69001 8.44617,-2e-4 14.87762,-6.60837 14.87713,-16.06174 -2.5e-4,-10.5577 -7.6246,-15.88538 -14.87805,-15.88528"
       id="path874"
       style="fill:#e61812" />
    <path
       clip-path="none"
       d="m 350.88646,456.54559 11.20264,-5e-5 4.3e-4,4.31147 0.18552,1.7e-4 c 1.00712,-1.65241 4.49613,-6.05223 13.30457,-6.05292 2.75647,1.5e-4 9.91342,0.63571 14.69349,7.97798 5.32683,-7.6156 12.85453,-7.98689 16.43269,-7.9872 10.00992,5e-5 14.96618,5.32724 16.80385,7.8983 2.02352,2.65961 3.85231,7.52688 3.85257,15.05423 l 5.4e-4,29.74709 -12.20984,3.4e-4 -2.9e-4,-28.28049 c -5.1e-4,-2.93323 -6.1e-4,-13.21704 -9.6395,-13.21673 -3.39264,4.9e-4 -6.70575,1.83744 -8.44575,4.77108 -1.74067,2.75688 -1.83839,7.2621 -1.83806,10.38085 l 0.01,26.34654 -12.20984,3.4e-4 -0.009,-28.28133 c -7.9e-4,-6.9708 -2.65995,-13.21668 -10.18729,-13.21643 -9.73602,-2e-4 -9.73628,10.65464 -9.73607,16.07044 l 10e-5,25.43564 -12.20984,3.3e-4 -5.4e-4,-50.95965 z"
       id="path876"
       style="fill:#e61812" />
    <rect
       x="-471.44714"
       y="-504.62021"
       transform="matrix(-1,-6.6873993e-5,6.6873993e-5,-1,0,0)"
       clip-path="none"
       width="12.206328"
       height="67.943871"
       id="rect878"
       style="fill:#e61812" />
    <polygon
       clip-path="none"
       points="66.71,287.367 68.279,287.216 70.028,290.782 70.981,286.957 72.56,286.805 70.954,292.234 72.251,294.595 70.765,294.738 "
       id="polygon880"
       style="fill:#e61812"
       transform="matrix(8.7538531,0.84220599,-0.84220599,8.7538531,133.11447,-2113.9321)" />
    <path
       clip-path="none"
       d="m 252.99358,475.48731 -5.10689,0.003 -0.003,-12.8285 5.10689,-0.003 c 0.3253,-4.02391 0.97701,-14.10366 7.06548,-19.53444 3.36942,-3.15677 8.15739,-4.89601 12.6106,-4.90048 l 11.01712,-2.3e-4 -7.9e-4,14.24176 c -13.30136,-0.31672 -15.79371,2.90676 -16.23012,10.19773 l 15.47033,-0.005 0.003,12.8285 -15.46948,-0.004 -0.002,44.8368 -14.45353,-0.004 -0.007,-44.82888 z"
       id="path882"
       style="fill:#e61812" />
    <rect
       x="-447.52594"
       y="-503.76962"
       transform="matrix(-0.99999997,2.3174309e-4,-2.3174309e-4,-0.99999997,0,0)"
       clip-path="none"
       width="12.215473"
       height="50.954967"
       id="rect884"
       style="fill:#e61812" />
    <path
       clip-path="none"
       d="m 449.74145,440.27622 c -0.002,-4.20557 -3.41865,-7.62652 -7.63298,-7.62557 -4.21433,9.4e-4 -7.62652,3.41865 -7.62473,7.62422 9.4e-4,4.21433 3.4178,7.63528 7.63213,7.63433 4.20558,-0.002 7.62652,-3.41865 7.62558,-7.63298"
       id="path886"
       style="fill:#e61812" />
    <path
       clip-path="none"
       d="m 606.80191,449.24673 c 0,0 -110.37431,-47.10715 -231.18741,-46.6886 -119.21349,0.41341 -180.80822,38.77666 -180.80822,38.77666 0,0 91.35536,-27.30121 203.36425,-22.16152 132.19584,6.06586 208.63138,30.07346 208.63138,30.07346"
       id="path888"
       style="fill:#e61812" />
    <path
       clip-path="url(#SVGID_99_)"
       d="m 169.333,285.061 1.747,-0.168 c 0.724,-0.07 1.105,0.317 1.16,0.883 0.057,0.599 -0.294,1.044 -1.134,1.125 l -0.392,0.037 0.098,1.011 -1.19,0.115 -0.289,-3.003 z m 1.375,1.189 c 0.308,-0.03 0.413,-0.153 0.393,-0.366 -0.02,-0.212 -0.129,-0.294 -0.387,-0.269 l -0.125,0.012 0.061,0.629 0.058,-0.006 z"
       id="path924"
       transform="matrix(0.99540372,0.09576754,-0.09576754,0.99540372,146.42081,395.43611)" />
    <polygon
       clip-path="url(#SVGID_99_)"
       points="173.916,286.836 175.01,286.73 175.088,287.537 172.804,287.757 172.515,284.754 173.705,284.639 "
       id="polygon926"
       transform="matrix(0.99540372,0.09576754,-0.09576754,0.99540372,146.42081,395.43611)" />
    <path
       clip-path="url(#SVGID_99_)"
       d="m 178.182,286.223 c 0.07,0.724 -0.415,1.136 -1.322,1.223 -0.907,0.087 -1.462,-0.224 -1.531,-0.948 l -0.193,-1.996 1.19,-0.115 0.188,1.946 c 0.022,0.238 0.143,0.318 0.268,0.306 0.125,-0.012 0.228,-0.114 0.206,-0.351 l -0.188,-1.947 1.19,-0.114 0.192,1.996 z"
       id="path928"
       transform="matrix(0.99540372,0.09576754,-0.09576754,0.99540372,146.42081,395.43611)" />
    <path
       clip-path="url(#SVGID_99_)"
       d="m 180.13,284.881 c -0.022,-0.187 -0.132,-0.239 -0.286,-0.224 -0.191,0.018 -0.266,0.109 -0.258,0.201 0.011,0.108 0.086,0.147 0.214,0.173 0.235,0.044 0.664,0.087 0.98,0.186 0.393,0.122 0.586,0.376 0.621,0.738 0.071,0.736 -0.499,1.102 -1.347,1.183 -0.724,0.07 -1.411,-0.09 -1.486,-0.872 l 1.139,-0.11 c 0.008,0.083 0.033,0.165 0.085,0.223 0.051,0.054 0.13,0.084 0.242,0.073 0.175,-0.017 0.276,-0.14 0.263,-0.273 -0.011,-0.112 -0.104,-0.162 -0.219,-0.185 l -0.869,-0.168 c -0.474,-0.093 -0.664,-0.356 -0.701,-0.743 -0.06,-0.623 0.409,-1.026 1.287,-1.11 0.749,-0.072 1.333,0.107 1.4,0.805 l -1.065,0.103 z"
       id="path930"
       transform="matrix(0.99540372,0.09576754,-0.09576754,0.99540372,146.42081,395.43611)" />
    <path
       clip-path="url(#SVGID_99_)"
       d="m 184.067,284.7 c -0.194,0.17 -0.366,0.291 -0.617,0.395 l -0.082,-0.856 c 0.322,-0.145 0.635,-0.339 0.831,-0.609 l 0.907,-0.088 0.289,3.003 -1.14,0.11 -0.188,-1.955 z"
       id="path932"
       transform="matrix(0.99540372,0.09576754,-0.09576754,0.99540372,146.42081,395.43611)" />
  </g>
</svg>
