<?xml version="1.0" encoding="UTF-8" standalone="no"?>
<!-- Generator: Adobe Illustrator 23.1.0, SVG Export Plug-In . SVG Version: 6.00 Build 0)  -->

<svg
   xmlns:dc="http://purl.org/dc/elements/1.1/"
   xmlns:cc="http://creativecommons.org/ns#"
   xmlns:rdf="http://www.w3.org/1999/02/22-rdf-syntax-ns#"
   xmlns:svg="http://www.w3.org/2000/svg"
   xmlns="http://www.w3.org/2000/svg"
   xmlns:xlink="http://www.w3.org/1999/xlink"
   xmlns:sodipodi="http://sodipodi.sourceforge.net/DTD/sodipodi-0.dtd"
   xmlns:inkscape="http://www.inkscape.org/namespaces/inkscape"
   version="1.1"
   id="Layer_1"
   x="0px"
   y="0px"
   width="1000"
   height="175.50496"
   viewBox="0 0 1000 175.50496"
   enable-background="new 0 0 1000 591.053833"
   xml:space="preserve"
   sodipodi:docname="HBO_Comedy_(2014).svg"
   inkscape:version="0.92.3 (2405546, 2018-03-11)"><metadata
   id="metadata28"><rdf:RDF><cc:Work
       rdf:about=""><dc:format>image/svg+xml</dc:format><dc:type
         rdf:resource="http://purl.org/dc/dcmitype/StillImage" /><dc:title></dc:title></cc:Work></rdf:RDF></metadata><defs
   id="defs26"><linearGradient
     inkscape:collect="always"
     id="linearGradient117"><stop
       style="stop-color:#43413f;stop-opacity:1"
       offset="0"
       id="stop113" /><stop
       style="stop-color:#000000;stop-opacity:1"
       offset="1"
       id="stop115" /></linearGradient><linearGradient
     inkscape:collect="always"
     xlink:href="#linearGradient117"
     id="linearGradient119"
     x1="385"
     y1="810.05383"
     x2="385"
     y2="774.05383"
     gradientUnits="userSpaceOnUse"
     gradientTransform="translate(-0.03267001,0.20933)" /></defs><sodipodi:namedview
   pagecolor="#ffffff"
   bordercolor="#666666"
   borderopacity="1"
   objecttolerance="10"
   gridtolerance="10"
   guidetolerance="10"
   inkscape:pageopacity="0"
   inkscape:pageshadow="2"
   inkscape:window-width="1366"
   inkscape:window-height="705"
   id="namedview24"
   showgrid="false"
   showguides="false"
   inkscape:zoom="0.25"
   inkscape:cx="1169.8577"
   inkscape:cy="167.97264"
   inkscape:window-x="-8"
   inkscape:window-y="-8"
   inkscape:window-maximized="1"
   inkscape:current-layer="Layer_1" />

<linearGradient
   id="SVGID_1_"
   gradientUnits="userSpaceOnUse"
   x1="1940.4313"
   y1="-987.80884"
   x2="1940.4313"
   y2="-1107.1578"
   gradientTransform="matrix(0.3692113,0,0,-0.3692113,-233.5795,-104.65139)">
	<stop
   offset="0"
   style="stop-color:#000000"
   id="stop4" />
	<stop
   offset="1"
   style="stop-color:#000000;stop-opacity:0"
   id="stop6" />
</linearGradient>







<g
   id="g156"
   transform="matrix(0.49992561,0,0,0.49992561,30.983085,-305.01401)"><path
     d="M 188.1596,959.56275 H 94.79735 V 826.21655 H 34.19978 v 133.3462 h -95.85153 l -0.32364,-343.7021 h 96.1755 v 127.8433 h 60.59758 v -127.8433 h 93.36222 z m 427.77346,1.6182 c 96.27502,-0.05 174.62178,-80.0177 174.59331,-176.3125 -0.0245,-98.3168 -78.32399,-174.6786 -174.59331,-174.7496 -96.14993,-0.075 -145.29551,70.7055 -157.4153,99.2871 0.0996,-42.8967 -42.17493,-93.5114 -91.61887,-93.5867 H 207.57967 v 343.6169 l 148.53502,0.05 c 59.90135,0 102.49829,-51.885 102.57356,-96.3744 13.66826,28.009 61.0963,98.0922 157.24481,98.068 z M 343.67097,821.36135 c 13.74284,0 24.57349,13.5687 24.57349,29.0293 0,15.4602 -10.82995,29.0548 -24.57349,29.0548 h -47.22885 v -58.0841 z m 0.17424,-129.014 c 13.74285,0 24.57353,13.5686 24.57353,29.0292 0,15.4602 -10.82999,29.0293 -24.57353,29.0293 h -47.22885 v -58.0585 z m 62.88798,92.5907 c 10.83011,-1.3694 28.85454,-13.7428 35.22842,-21.6593 -2.24069,9.8091 -2.415,38.1666 0.19902,47.9506 -7.24488,-11.1785 -24.42287,-24.9217 -35.4273,-26.2913 z m 121.79333,0 c 0,-48.2987 39.16276,-87.4615 87.46151,-87.4615 48.32426,0 87.48702,39.1628 87.48702,87.4615 0,48.2988 -39.16276,87.4615 -87.48702,87.4615 -48.29875,0 -87.46151,-39.1627 -87.46151,-87.4615 z m 87.46151,68.7646 c 37.99192,0 68.76456,-30.7968 68.76456,-68.7646 0,-37.9678 -30.77264,-68.7646 -68.76456,-68.7646 -37.96785,0 -68.76464,30.7968 -68.76464,68.7646 0,37.9678 30.79679,68.7646 68.76464,68.7646"
     id="path9-4"
     style="opacity:1;fill:url(#linearGradient119);fill-opacity:1;stroke-width:1.1398772"
     inkscape:connector-curvature="0" /><g
     id="text131"
     style="font-style:normal;font-variant:normal;font-weight:bold;font-stretch:normal;font-size:232.66667175px;line-height:1.25;font-family:Gotham;-inkscape-font-specification:'Gotham Bold';letter-spacing:0px;word-spacing:0px;opacity:1;fill:#f7981b;fill-opacity:1;stroke:none"
     aria-label="COMEDY"><path
       inkscape:connector-curvature="0"
       id="path133"
       style="font-size:232.66667175px;fill:#f7981b;fill-opacity:1"
       d="m 982.24937,866.24525 c 31.41003,0 50.02333,-11.168 66.77533,-29.08334 l -22.8013,-23.034 c -12.7967,11.63334 -24.1974,19.07867 -42.81069,19.07867 -27.92,0 -47.23134,-23.26667 -47.23134,-51.18667 v -0.46533 c 0,-27.92 19.77667,-50.72134 47.23134,-50.72134 16.28666,0 29.08329,6.98 41.64729,18.38067 l 22.8014,-26.29133 c -15.1234,-14.89067 -33.504,-25.128 -64.21603,-25.128 -50.02333,0 -84.92333,37.92466 -84.92333,84.22533 v 0.46534 c 0,46.766 35.598,83.76 83.52733,83.76 z" /><path
       inkscape:connector-curvature="0"
       id="path135"
       style="font-size:232.66667175px;fill:#f7981b;fill-opacity:1"
       d="m 1152.0048,866.24525 c 50.256,0 86.7847,-37.92467 86.7847,-84.22534 v -0.46533 c 0,-46.30067 -36.0634,-83.76 -86.3194,-83.76 -50.256,0 -86.7846,37.92466 -86.7846,84.22533 v 0.46534 c 0,46.30066 36.0633,83.76 86.3193,83.76 z m 0.4653,-33.03867 c -28.8506,0 -49.3253,-23.26667 -49.3253,-51.18667 v -0.46533 c 0,-27.92 20.0093,-50.72134 48.86,-50.72134 28.8507,0 49.3253,23.26667 49.3253,51.18667 v 0.46534 c 0,27.92 -20.0093,50.72133 -48.86,50.72133 z" /><path
       inkscape:connector-curvature="0"
       id="path137"
       style="font-size:232.66667175px;fill:#f7981b;fill-opacity:1"
       d="m 1270.3139,863.45325 h 35.1327 V 757.82258 l 45.37,68.86933 h 0.9307 l 45.8353,-69.56733 v 106.32867 h 35.598 V 700.58658 h -38.6227 l -42.8106,68.86933 -42.8107,-68.86933 h -38.6227 z" /><path
       inkscape:connector-curvature="0"
       id="path139"
       style="font-size:232.66667175px;fill:#f7981b;fill-opacity:1"
       d="m 1472.0795,863.45325 h 124.0114 v -31.87534 h -88.4134 v -34.202 h 76.78 v -31.87533 h -76.78 v -33.03867 h 87.25 v -31.87533 h -122.848 z" /><path
       inkscape:connector-curvature="0"
       id="path141"
       style="font-size:232.66667175px;fill:#f7981b;fill-opacity:1"
       d="m 1627.428,863.45325 h 63.518 c 51.1867,0 86.552,-35.598 86.552,-81.43334 v -0.46533 c 0,-45.83534 -35.3653,-80.968 -86.552,-80.968 h -63.518 z m 35.8307,-32.34067 v -98.18534 h 27.6873 c 29.316,0 49.0927,20.242 49.0927,49.09267 v 0.46534 c 0,28.85066 -19.7767,48.62733 -49.0927,48.62733 z" /><path
       inkscape:connector-curvature="0"
       id="path143"
       style="font-size:232.66667175px;fill:#f7981b;fill-opacity:1"
       d="m 1839.9042,863.45325 h 35.8307 v -64.914 l 62.5873,-97.95267 h -40.7166 l -39.5534,65.37933 -38.8553,-65.37933 h -41.88 l 62.5873,98.65067 z" /></g></g></svg>