<?xml version="1.0" encoding="UTF-8" standalone="no"?>
<!-- Generator: Adobe Illustrator 16.0.0, SVG Export Plug-In . SVG Version: 6.00 Build 0)  -->

<svg
   version="1.1"
   id="Layer_1"
   x="0px"
   y="0px"
   width="996.62598"
   height="180.259"
   viewBox="0 0 996.62598 180.259"
   enable-background="new 0 0 1000 180.259"
   xml:space="preserve"
   xmlns="http://www.w3.org/2000/svg"
   xmlns:svg="http://www.w3.org/2000/svg"><defs
   id="defs7" />
<polygon
   points="539.453,133.933 469.938,133.933 469.938,47.384 498.816,47.384 498.816,109.208 539.453,109.208 "
   id="polygon1"
   style="fill:#5a5b5d;fill-opacity:1" /><path
   d="m 607.081,101.755 -7.906,-20.986 -7.881,20.986 z M 585.126,46.754 h 28.626 l 36.408,87.178 H 618.813 L 614.23,122.3 h -30.213 l -4.455,11.633 h -30.844 z"
   id="path1"
   style="fill:#5a5b5d;fill-opacity:1" /><polygon
   points="728.286,71.856 702.856,71.856 702.856,133.933 673.978,133.933 673.978,71.856 648.573,71.856 648.573,47.359 728.286,47.359 "
   id="polygon2"
   style="fill:#5a5b5d;fill-opacity:1" /><rect
   x="744.323"
   y="47.383999"
   width="28.878"
   height="86.547997"
   id="rect2"
   style="fill:#5a5b5d;fill-opacity:1" /><polygon
   points="878.998,47.384 878.998,133.933 853.315,133.933 821.24,94.001 821.24,133.933 792.59,133.933 792.59,47.384 819.654,47.384 850.396,85.591 850.396,47.384 "
   id="polygon3"
   style="fill:#5a5b5d;fill-opacity:1" /><path
   d="m 961.353,90.927 v -0.25 c 0,-10.26 -7.024,-19.576 -18.152,-19.576 -10.978,0 -17.876,9.165 -17.876,19.324 v 0.252 c 0,10.271 7.025,19.488 18.103,19.488 11.002,0 17.925,-9.115 17.925,-19.238 m -65.185,0 v -0.25 c 0,-25.115 20.646,-45.156 47.259,-45.156 26.689,0 47.032,19.789 47.032,44.904 v 0.252 c 0,25.076 -20.597,45.119 -47.259,45.119 -26.662,0 -47.032,-19.789 -47.032,-44.869"
   id="path3"
   style="fill:#5a5b5d;fill-opacity:1" /><path
   d="M 996.626,161.567 H 463.342 v -5.621 h 533.284 z m 0,-134.787 H 463.342 v -5.621 h 533.284 z"
   id="path4"
   style="fill:#5a5b5d;fill-opacity:1" /><polygon
   points="0,178.747 49.348,178.747 49.348,110.063 80.543,110.063 80.543,178.747 128.707,178.747 128.707,1.511 80.543,1.511 80.543,67.627 49.348,67.627 49.348,1.511 0,1.511 "
   id="polygon4" /><path
   d="m 349.564,54.711 c -19.752,0 -35.525,15.56 -35.525,35.312 0,19.74 15.773,35.501 35.525,35.501 19.16,0 35.324,-15.762 35.324,-35.501 0.001,-19.752 -16.163,-35.312 -35.324,-35.312"
   id="path5" /><path
   d="m 349.577,135.241 c -24.888,0 -45.018,-20.143 -45.018,-45.218 0,-24.838 20.13,-45.005 45.018,-45.005 24.875,0 45.005,20.167 45.005,45.005 0,25.076 -20.13,45.218 -45.005,45.218 M 241.415,88.511 c 5.286,-0.352 13.583,-5.929 17.637,-9.882 0.227,-0.252 0.465,-0.503 0.717,-0.78 -0.541,4.028 -0.843,8.094 -0.843,12.274 0,3.977 0.276,7.856 0.768,11.682 -4.066,-5.64 -12.677,-12.286 -18.279,-13.294 M 209.036,70.598 H 184.563 V 40.964 h 24.473 c 7.113,0 12.84,6.898 12.84,14.83 0,7.88 -5.727,14.804 -12.84,14.804 m 0,66.86 h -24.473 v -29.961 h 24.473 c 7.113,0 12.84,6.896 12.84,14.803 0,8.258 -5.727,15.158 -12.84,15.158 M 349.062,0 c -35.45,0 -66.078,20.469 -80.808,50.204 V 49.65 c 0,-21.904 -21.917,-48.139 -47.385,-48.139 h -82.292 v 177.236 h 76.59 c 30.653,0 52.319,-25.781 53.036,-48.793 14.717,29.809 45.383,50.305 80.858,50.305 49.775,0 90.123,-40.385 90.123,-90.135 C 439.185,40.334 398.837,0 349.062,0"
   id="path6" />
</svg>
