<?xml version="1.0" encoding="utf-8"?>
<!-- Generator: Adobe Illustrator 22.0.0, SVG Export Plug-In . SVG Version: 6.00 Build 0)  -->
<svg version="1.1" id="Layer_1" xmlns="http://www.w3.org/2000/svg" xmlns:xlink="http://www.w3.org/1999/xlink" x="0px" y="0px"
	 viewBox="0 0 150.6 101.8" style="enable-background:new 0 0 150.6 101.8;" xml:space="preserve">
<g>
	<path d="M44.2,61.7H27.7V38.2H17v23.5H0.1L0,1h17v22.6h10.7V1h16.5C44.2,1,44.2,61.7,44.2,61.7z M119.7,62
		c17,0,30.8-14.1,30.8-31.1c0-17.4-13.8-30.9-30.8-30.9c-17,0-25.7,12.5-27.8,17.5C91.9,10,84.5,1,75.7,1H47.6v60.7l26.2,0
		c10.6,0,18.1-9.2,18.1-17C94.4,49.6,102.7,62,119.7,62 M71.6,37.3c2.4,0,4.3,2.4,4.3,5.1c0,2.7-1.9,5.1-4.3,5.1h-8.3V37.3H71.6z
		 M71.7,14.5c2.4,0,4.3,2.4,4.3,5.1c0,2.7-1.9,5.1-4.3,5.1h-8.3V14.5H71.7z M82.8,30.9c1.9-0.2,5.1-2.4,6.2-3.8
		c-0.4,1.7-0.4,6.7,0,8.5C87.8,33.5,84.7,31.1,82.8,30.9 M104.3,30.9c0-8.5,6.9-15.4,15.4-15.4c8.5,0,15.5,6.9,15.5,15.4
		c0,8.5-6.9,15.4-15.4,15.4C111.2,46.3,104.3,39.4,104.3,30.9 M119.7,43c6.7,0,12.1-5.4,12.1-12.1c0-6.7-5.4-12.1-12.1-12.1
		c-6.7,0-12.1,5.4-12.1,12.1C107.6,37.6,113,43,119.7,43"/>
	<path d="M69.2,85.1c1.1-1.2,1.7-2.7,1.7-4.6c0-1.9-0.7-3.4-2.1-4.5c-1.4-1.1-3.4-1.6-6.1-1.6h-7.1l-4.2,23.8h4.1L57.3,88h3.2
		L65,98.1h4.7l-4.9-10.6C66.6,87.1,68.1,86.3,69.2,85.1 M57.9,84.6l1.2-6.8h3c1.4,0,2.5,0.2,3.3,0.7c0.8,0.4,1.2,1.3,1.2,2.4
		c0,1.3-0.5,2.2-1.5,2.8c-1,0.6-2.4,0.9-4.2,0.9C61,84.6,57.9,84.6,57.9,84.6z"/>
	<polygon points="53.4,74.3 37.9,74.3 34.6,74.3 31.1,74.3 25,81.8 22,74.3 15.7,74.3 21,85.5 17.4,89.6 6.5,101.8 13.8,101.8 
		23.6,89.7 23.6,89.7 23.7,89.6 27.2,98.1 33.6,98.1 27.8,85.7 33.6,79.1 40.4,79.1 37,98.1 42.6,98.1 46,79.1 52.5,79.1 	"/>
	<polygon points="86.9,87.2 87.4,84.4 76.5,84.4 77.8,77.2 89.2,77.2 89.7,74.3 75,74.3 70.8,98.1 86.4,98.1 86.9,95.2 74.6,95.2 
		76,87.2 	"/>
	<polygon points="134.1,76.4 134.4,74.3 120.1,74.3 115.9,98.1 131.1,98.1 131.5,96 118.7,96 120.3,86.8 131.7,86.8 132.1,84.7 
		120.7,84.7 122.1,76.4 	"/>
	<polygon points="112.9,74.3 101.3,94 101.3,94 96.8,74.3 93.2,74.3 89,98.1 91.3,98.1 94.9,77.5 95,77.5 100,98.1 101.3,98.1 
		113.5,77.5 113.6,77.5 109.9,98.1 112.3,98.1 116.5,74.3 	"/>
	<polygon points="14.6,74.3 14.4,74.3 14.2,74.3 13.8,74.3 13.7,74.3 13.5,74.3 18.7,85.5 3.7,101.8 3.8,101.8 4,101.8 4.8,101.8 
		4.9,101.8 5.1,101.8 20,85.5 	"/>
</g>
</svg>
