<?xml version="1.0" encoding="UTF-8"?>
<svg id="iconHboHits" xmlns="http://www.w3.org/2000/svg" version="1.1" viewBox="0 0 180 180">
  <defs>
    <style>
      .cls-1 {
        fill: #000;
        stroke-width: 0px;
      }
    </style>
  </defs>
  <polygon class="cls-1" points="49.1685265 64.9895172 39.96352 64.9895172 39.96352 45.5693066 25.3461998 45.5693066 25.3461998 97.7750772 39.96352 97.7750772 39.96352 77.5194911 49.1685265 77.5194911 49.1685265 97.7750772 63.3490826 97.7750772 63.3490826 45.5693066 49.1685265 45.5693066 49.1685265 64.9895172 49.1685265 64.9895172"/>
  <path class="cls-1" d="M128.3373819,44.696503c-14.6094152-.0107926-22.0738648,10.7433702-23.9180216,15.0843101.0172813-6.5160871-6.4052958-14.2079053-13.9179333-14.2158323h-24.2036788v52.2086581l22.5660191.0043148c9.0984972,0,15.5721496-7.8832079,15.5836558-14.6432312,2.0765757,4.2546104,9.2805435,14.9044377,23.8899587,14.8993872,14.6259828-.0057531,26.5284836-12.1586788,26.5249044-26.7868025-.0028985-14.9368044-11.8989215-26.5400118-26.5249044-26.5508043h0ZM86.9728173,85.6149602h-7.1773432v-8.8229299h7.1773432c2.0880929,0,3.732944,2.062193,3.732944,4.4114814,0,2.3492665-1.644851,4.4114485-3.732944,4.4114485h0ZM86.9994528,66.0119786h-7.1780788v-8.8229189h7.1780788c2.0880819,0,3.732933,2.0614574,3.732933,4.4107458,0,2.3492665-1.644851,4.4121731-3.732933,4.4121731h0ZM96.5527091,71.2573862c1.6448401-.2079463,4.3855485-2.0880929,5.3511594-3.2882748-.3396091,1.487991-.36552,5.795126.0309394,7.283117-1.1016105-1.696662-3.7113588-3.7854685-5.3820989-3.9948422h0ZM128.3460116,84.5478903c-7.3399564,0-13.2890548-5.9498231-13.2890548-13.2905041,0-7.3385181,5.9490985-13.2883521,13.2890548-13.2883521,7.3392537,0,13.2890878,5.9498341,13.2890878,13.2883521,0,7.340681-5.9498341,13.2905041-13.2890878,13.2905041h0Z"/>
  <path class="cls-1" d="M128.3460116,60.8111904c-5.7706752,0-10.4469094,4.6776834-10.4469094,10.4461958,0,5.7706533,4.6762342,10.4476231,10.4469094,10.4476231,5.769226,0,10.4461738-4.6769698,10.4461738-10.4476231,0-5.7685123-4.6769478-10.4461958-10.4461738-10.4461958h0Z"/>
  <path class="cls-1" d="M151.5991978,52.0084074c1.7571135,0,3.2587407-1.3649579,3.2587407-3.2335764,0-1.8513591-1.5016272-3.216317-3.2587407-3.216317-1.7750975,0-3.2767466,1.3649579-3.2767466,3.216317,0,1.8686184,1.5016492,3.2335764,3.2767466,3.2335764h0ZM151.5991978,46.0960015c1.4584789,0,2.61044,1.1519721,2.61044,2.6788296,0,1.5527574-1.1519612,2.6960889-2.61044,2.6960889-1.4765068,0-2.6277433-1.1433315-2.6277433-2.6960889,0-1.5268574,1.1512365-2.6788296,2.6277433-2.6788296h0Z"/>
  <path class="cls-1" d="M150.9163565,49.0309871h.6482787l.9814759,1.6124624h.6310194l-1.0584183-1.6376487c.5461281-.0690812.9641507-.3583396.9641507-1.0246133,0-.7332139-.4346012-1.0577156-1.3138607-1.0577156h-1.4160332v3.7199775h.5633874v-1.6124624h0ZM150.9163565,47.4012435h.7677545c.3921336,0,.8101782.0849023.8101782.5461171,0,.572039-.4266742.605855-.9044457.605855h-.673487v-1.1519721h0Z"/>
  <path class="cls-1" d="M51.6703382,134.2489726h4.0409v-10.4389934h10.7009136v10.4389934h4.040889v-24.2828279h-4.040889v10.0274266h-10.7009136v-10.0274266h-4.0409v24.2828279h0ZM78.309635,134.2489726h4.0409109v-24.2828279h-4.0409109v24.2828279h0ZM95.5582997,134.2489726h4.0409v-20.466409h7.7450674v-3.8164189h-19.5310348v3.8164189h7.7450674v20.466409h0ZM119.8029968,134.5857052c4.6776944,0,8.8301212-2.244942,8.8301212-7.1463928,0-8.5682231-13.1703475-6.4729388-13.1703475-11.1498976,0-1.9456266,1.9463183-2.8810118,4.4524778-2.8810118,2.3571935,0,4.4531914,1.0850319,5.7620017,2.8061775l2.7320897-2.693937c-1.795958-2.469445-5.0144269-3.9286595-8.4566742-3.9286595-4.6762671,0-8.5674875,2.2075248-8.5674875,6.6599916,0,8.3811592,13.169601,5.8368579,13.169601,11.4492349,0,2.0578781-2.0952514,3.0680757-4.8258919,3.0680757-2.3197983,0-4.6395526-.7857165-6.4355106-3.0306585l-2.8069131,2.6565308c2.0960089,2.8810118,5.1266674,4.1905467,9.3165334,4.1905467h0Z"/>
</svg>