<?xml version="1.0" encoding="UTF-8" standalone="no"?>
<!-- Created with Inkscape (http://www.inkscape.org/) -->
<svg xmlns:dc="http://purl.org/dc/elements/1.1/" xmlns:cc="http://creativecommons.org/ns#" xmlns:rdf="http://www.w3.org/1999/02/22-rdf-syntax-ns#" xmlns:svg="http://www.w3.org/2000/svg" xmlns="http://www.w3.org/2000/svg" xmlns:xlink="http://www.w3.org/1999/xlink" xmlns:sodipodi="http://sodipodi.sourceforge.net/DTD/sodipodi-0.dtd" xmlns:inkscape="http://www.inkscape.org/namespaces/inkscape" width="468" height="268" id="svg2" version="1.1" inkscape:version="0.47 r22583">
  <g inkscape:label="Layer 1" inkscape:groupmode="layer" id="layer1" transform="translate(-283.315,-593.81195)">
    <path style="fill:#b73722;fill-rule:nonzero;stroke:none" d="m 511.16886,758.00077 c 87.82698,0 166.34419,8.92941 218.51693,22.95746 -43.995,-23.87213 -125.38302,-39.91065 -218.51693,-39.91065 -93.13391,0 -174.52194,16.03852 -218.51693,39.91065 52.18179,-14.02805 130.699,-22.95746 218.51693,-22.95746" id="path9034"/>
    <path style="fill:#b73722;fill-rule:nonzero;stroke:none" d="m 370.00995,820.49758 c 0,-9.56335 0,-11.32025 -0.11774,-13.33978 -0.12678,-2.13726 -0.73355,-3.20589 -2.08292,-3.52286 -0.67016,-0.18112 -1.4671,-0.24452 -2.20066,-0.24452 -0.61582,0 -0.97806,-0.12678 -0.97806,-0.63393 0,-0.38036 0.48903,-0.49809 1.4671,-0.49809 2.32744,0 6.17632,0.18112 7.95134,0.18112 1.5305,0 5.14392,-0.18112 7.47136,-0.18112 0.78789,0 1.27692,0.11773 1.27692,0.49809 0,0.50715 -0.36224,0.63393 -0.97807,0.63393 -0.60676,0 -1.0958,0.0634 -1.82935,0.18113 -1.65728,0.31696 -2.14632,1.38559 -2.26405,3.58625 -0.12678,2.01953 -0.12678,3.77643 -0.12678,13.33978 l 0,11.07572 c 0,6.10388 0,11.07573 0.24451,13.78353 0.18113,1.69351 0.61583,2.82553 2.44518,3.07911 0.86034,0.12678 2.20971,0.25357 3.12438,0.25357 0.67016,0 0.97807,0.18112 0.97807,0.49809 0,0.44375 -0.48903,0.63393 -1.15919,0.63393 -4.03906,0 -7.897,-0.19018 -9.54523,-0.19018 -1.41277,0 -5.26165,0.19018 -7.71588,0.19018 -0.78789,0 -1.22258,-0.19018 -1.22258,-0.63393 0,-0.31697 0.24451,-0.49809 0.97807,-0.49809 0.92373,0 1.65728,-0.12679 2.20971,-0.25357 1.22258,-0.25358 1.58483,-1.32221 1.77501,-3.1425 0.29886,-2.64441 0.29886,-7.61626 0.29886,-13.72014 l 0,-11.07572" id="path9036"/>
    <path style="fill:#b73722;fill-rule:nonzero;stroke:none" d="m 434.81608,845.60135 c 0,1.70256 -0.0543,1.82935 -0.79695,2.26405 -3.97567,2.14631 -9.97087,2.83459 -14.74348,2.83459 -14.98801,0 -28.26439,-7.2993 -28.26439,-24.66002 0,-10.07049 5.08053,-17.11621 10.64103,-20.57568 5.87747,-3.64964 11.32024,-4.0934 16.46416,-4.0934 4.22019,0 9.60863,0.76072 10.83121,1.00524 1.28598,0.25357 3.42324,0.63393 4.83601,0.69733 0.73355,0.0634 0.85128,0.31696 0.85128,0.75166 0,0.69733 -0.42564,2.45423 -0.42564,10.32406 0,1.00524 -0.19018,1.32221 -0.67016,1.32221 -0.43469,0 -0.55242,-0.31697 -0.61582,-0.82412 -0.18112,-1.44899 -0.48903,-3.45946 -2.08292,-5.21636 -1.82935,-2.01954 -6.72876,-4.90846 -13.63863,-4.90846 -3.36891,0 -7.83361,0.25357 -12.11719,3.90322 -3.4323,2.95232 -5.63295,7.67059 -5.63295,15.40459 0,13.52995 8.38603,23.66383 21.29111,23.66383 1.59389,0 3.74021,0 5.20731,-0.69732 0.91468,-0.4347 1.15919,-1.25882 1.15919,-2.32745 l 0,-5.91369 c 0,-3.1425 0,-5.53334 -0.0634,-7.42608 -0.0543,-2.13726 -0.60676,-3.1425 -2.62629,-3.58625 -0.48904,-0.12679 -1.5305,-0.18113 -2.39084,-0.18113 -0.55243,0 -0.91468,-0.12679 -0.91468,-0.50715 0,-0.50714 0.42565,-0.63393 1.28598,-0.63393 3.17873,0 7.03667,0.19018 8.86602,0.19018 1.9018,0 5.14392,-0.19018 7.16345,-0.19018 0.79694,0 1.22259,0.12679 1.22259,0.63393 0,0.38036 -0.36225,0.50715 -0.79695,0.50715 -0.48903,0 -0.91468,0.0543 -1.64823,0.18113 -1.65728,0.31696 -2.26405,1.38559 -2.32744,3.58625 -0.0634,1.89274 -0.0634,4.41037 -0.0634,7.55287 l 0,6.91893" id="path9038"/>
    <path style="fill:#b73722;fill-rule:nonzero;stroke:none" d="m 455.34647,841.26343 c 0.12679,4.90846 0.91468,6.53857 2.14632,6.98233 1.03241,0.38036 2.20065,0.44375 3.17872,0.44375 0.67016,0 1.04147,0.12679 1.04147,0.49809 0,0.50715 -0.55243,0.63393 -1.41277,0.63393 -3.97567,0 -6.42084,-0.19018 -7.58004,-0.19018 -0.55242,0 -3.43229,0.19018 -6.61102,0.19018 -0.79694,0 -1.34937,-0.0634 -1.34937,-0.63393 0,-0.3713 0.3713,-0.49809 0.97807,-0.49809 0.79694,0 1.9018,-0.0634 2.75308,-0.31697 1.59389,-0.50714 1.83841,-2.32744 1.9018,-7.79738 l 0.55243,-37.24813 c 0,-1.25881 0.18112,-2.14632 0.78789,-2.14632 0.67921,0 1.23164,0.82412 2.26405,1.95614 0.74261,0.81506 10.03426,11.07573 18.97273,20.19531 4.15679,4.27453 12.41604,13.33978 13.4575,14.34502 l 0.30791,0 -0.61582,-28.24627 c -0.0543,-3.83983 -0.60676,-5.03525 -2.07387,-5.66918 -0.92373,-0.37131 -2.39083,-0.37131 -3.24211,-0.37131 -0.73356,0 -0.97807,-0.19018 -0.97807,-0.57054 0,-0.49809 0.67015,-0.56148 1.58483,-0.56148 3.18778,0 6.12199,0.18112 7.40797,0.18112 0.67016,0 2.9976,-0.18112 5.9952,-0.18112 0.79694,0 1.40371,0.0634 1.40371,0.56148 0,0.38036 -0.36225,0.57054 -1.0958,0.57054 -0.61582,0 -1.10486,0 -1.83841,0.18113 -1.71162,0.50714 -2.20065,1.82935 -2.26405,5.35221 l -0.67016,39.70236 c 0,1.38559 -0.24451,1.94708 -0.79694,1.94708 -0.67016,0 -1.41277,-0.68827 -2.08293,-1.3856 -3.85793,-3.77643 -11.68249,-12.01757 -18.04899,-18.49275 -6.66536,-6.8012 -13.45751,-14.66198 -14.56236,-15.8574 l -0.18113,0 0.67016,26.42598" id="path9040"/>
    <path style="fill:#b73722;fill-rule:nonzero;stroke:none" d="m 512.32805,833.40265 c -0.29885,0 -0.42564,0.11773 -0.54337,0.49809 l -3.30551,8.99281 c -0.61582,1.57577 -0.92373,3.08816 -0.92373,3.83982 0,1.13203 0.55242,1.95614 2.45422,1.95614 l 0.91468,0 c 0.73355,0 0.91468,0.12679 0.91468,0.49809 0,0.50715 -0.36225,0.63393 -1.04147,0.63393 -1.95614,0 -4.58243,-0.19018 -6.48423,-0.19018 -0.67016,0 -4.03907,0.19018 -7.21779,0.19018 -0.79695,0 -1.15919,-0.12678 -1.15919,-0.63393 0,-0.3713 0.24451,-0.49809 0.73355,-0.49809 0.55243,0 1.40371,-0.0634 1.89274,-0.12679 2.81648,-0.38036 3.97567,-2.51762 5.19826,-5.66917 l 15.35931,-39.50313 c 0.73355,-1.82935 1.10485,-2.51762 1.71162,-2.51762 0.55242,0 0.92373,0.56148 1.53049,2.01048 1.46711,3.45946 11.25685,29.13378 15.17819,38.69712 2.32744,5.66012 4.10245,6.53857 5.37938,6.85554 0.92373,0.19018 1.8384,0.25357 2.57196,0.25357 0.48903,0 0.79694,0.0634 0.79694,0.49809 0,0.50715 -0.55243,0.63393 -2.81648,0.63393 -2.20065,0 -6.66536,0 -11.56476,-0.12678 -1.0958,-0.0634 -1.82935,-0.0634 -1.82935,-0.50715 0,-0.3713 0.24452,-0.49809 0.85128,-0.56148 0.42565,-0.12679 0.86034,-0.69733 0.55243,-1.44899 l -4.89034,-13.33978 c -0.12679,-0.31697 -0.30791,-0.4347 -0.61582,-0.4347 l -13.64769,0 z m 12.48849,-3.15155 c 0.29886,0 0.36225,-0.19018 0.29886,-0.38036 l -5.50617,-15.54043 c -0.0543,-0.24452 -0.11773,-0.56149 -0.30791,-0.56149 -0.18112,0 -0.29885,0.31697 -0.36225,0.56149 l -5.63295,15.47703 c -0.0543,0.25358 0,0.44376 0.24452,0.44376 l 11.2659,0" id="path9042"/>
    <path style="fill:#b73722;fill-rule:nonzero;stroke:none" d="m 560.86926,805.78126 -9.11054,0.24452 c -3.55003,0.12678 -5.01713,0.44375 -5.94086,1.82935 -0.60677,0.94184 -0.91468,1.69351 -1.04146,2.20065 -0.11773,0.50715 -0.29886,0.75167 -0.67016,0.75167 -0.42564,0 -0.55243,-0.30791 -0.55243,-1.00524 0,-1.00524 1.16825,-6.72875 1.28598,-7.2359 0.19018,-0.81506 0.3713,-1.19542 0.73355,-1.19542 0.48904,0 1.10486,0.63394 2.63535,0.76072 1.77502,0.19018 4.0934,0.30791 6.12199,0.30791 l 24.22532,0 c 1.95614,0 3.30552,-0.18112 4.22019,-0.30791 0.92373,-0.19018 1.40371,-0.31696 1.65728,-0.31696 0.42565,0 0.48904,0.38036 0.48904,1.3222 0,1.3222 -0.19018,5.66012 -0.19018,7.29929 -0.0543,0.62488 -0.18112,1.00524 -0.55243,1.00524 -0.47998,0 -0.60676,-0.31697 -0.67016,-1.25881 l -0.0634,-0.68827 c -0.11773,-1.63917 -1.76596,-3.40513 -7.21779,-3.53192 l -7.70682,-0.18112 0,25.79204 c 0,5.78691 0,10.75876 0.30791,13.46656 0.18112,1.75691 0.54337,3.1425 2.38178,3.39608 0.86034,0.12678 2.20971,0.25357 3.12439,0.25357 0.67016,0 0.97807,0.18112 0.97807,0.49809 0,0.44375 -0.48904,0.63393 -1.16825,0.63393 -4.03001,0 -7.88795,-0.19018 -9.59957,-0.19018 -1.41277,0 -5.26165,0.19018 -7.70682,0.19018 -0.79695,0 -1.23164,-0.19018 -1.23164,-0.63393 0,-0.31697 0.24451,-0.49809 0.97806,-0.49809 0.92374,0 1.65729,-0.12679 2.20972,-0.25357 1.22258,-0.25358 1.58483,-1.63917 1.77501,-3.45947 0.29886,-2.64441 0.29886,-7.61626 0.29886,-13.40317 l 0,-25.79204" id="path9044"/>
    <path style="fill:#b73722;fill-rule:nonzero;stroke:none" d="m 593.57118,820.49758 c 0,-9.56335 0,-11.32025 -0.12679,-13.33978 -0.11773,-2.13726 -0.60677,-3.1425 -2.6263,-3.58625 -0.48903,-0.11773 -1.5305,-0.18113 -2.39083,-0.18113 -0.67016,0 -1.04147,-0.12678 -1.04147,-0.57054 0,-0.44375 0.4347,-0.56148 1.34938,-0.56148 3.24211,0 7.10005,0.18112 8.92941,0.18112 1.47616,0 5.32504,-0.18112 7.52569,-0.18112 0.92374,0 1.34938,0.11773 1.34938,0.56148 0,0.44376 -0.36225,0.57054 -0.97807,0.57054 -0.67016,0 -1.04147,0.0634 -1.77502,0.18113 -1.64822,0.31696 -2.13726,1.38559 -2.26405,3.58625 -0.12678,2.01953 -0.12678,3.77643 -0.12678,13.33978 l 0,8.81167 c 0,9.11959 1.77501,12.95942 4.78167,15.47704 2.75308,2.32744 5.5605,2.58102 7.64343,2.58102 2.68969,0 5.9952,-0.88751 8.44037,-3.39608 3.36891,-3.45946 3.55003,-9.12864 3.55003,-15.60382 l 0,-7.86983 c 0,-9.56335 0,-11.32025 -0.11773,-13.33978 -0.12679,-2.13726 -0.61582,-3.1425 -2.63535,-3.58625 -0.48904,-0.11773 -1.5305,-0.18113 -2.20066,-0.18113 -0.67016,0 -1.04146,-0.12678 -1.04146,-0.57054 0,-0.44375 0.42564,-0.56148 1.28598,-0.56148 3.12439,0 6.97327,0.18112 7.03666,0.18112 0.73355,0 4.59149,-0.18112 6.97327,-0.18112 0.86034,0 1.28598,0.11773 1.28598,0.56148 0,0.44376 -0.36225,0.57054 -1.0958,0.57054 -0.67921,0 -1.04146,0.0634 -1.77501,0.18113 -1.65729,0.31696 -2.14632,1.38559 -2.26405,3.58625 -0.12679,2.01953 -0.12679,3.77643 -0.12679,13.33978 l 0,6.7378 c 0,6.98233 -0.67016,14.40841 -5.81408,18.93651 -4.33791,3.83982 -8.74828,4.5281 -12.72395,4.5281 -3.24212,0 -9.11959,-0.19018 -13.58429,-4.33792 -3.12439,-2.89798 -5.44277,-7.55287 -5.44277,-16.67246 l 0,-9.19203" id="path9046"/>
    <path style="fill:#b73722;fill-rule:nonzero;stroke:none" d="m 648.3521,820.49758 c 0,-9.56335 0,-11.32025 -0.12679,-13.33978 -0.11773,-2.13726 -0.60676,-3.1425 -2.62629,-3.58625 -0.48904,-0.11773 -1.5305,-0.18113 -2.39084,-0.18113 -0.67016,0 -1.04146,-0.12678 -1.04146,-0.57054 0,-0.44375 0.43469,-0.56148 1.34937,-0.56148 3.24212,0 7.10006,0.18112 8.37698,0.18112 2.08293,0 6.73781,-0.18112 8.63055,-0.18112 3.85794,0 7.95134,0.3713 11.25686,2.69874 1.71162,1.19542 4.16584,4.41037 4.16584,8.6215 0,4.65489 -1.9018,8.93847 -8.07812,14.09144 5.44277,7.04572 9.66296,12.65151 13.27638,16.54567 3.42324,3.64965 5.93181,4.0934 6.85554,4.28358 0.67016,0.12679 1.22259,0.19018 1.71162,0.19018 0.48904,0 0.73355,0.18112 0.73355,0.49809 0,0.50715 -0.42564,0.63393 -1.15919,0.63393 l -5.81408,0 c -3.43229,0 -4.96279,-0.31696 -6.54763,-1.19541 -2.63535,-1.44899 -4.96279,-4.41037 -8.38603,-9.24638 -2.44518,-3.46852 -5.26165,-7.74304 -6.0586,-8.68489 -0.30791,-0.38036 -0.67016,-0.44375 -1.0958,-0.44375 l -5.32504,-0.12679 c -0.30791,0 -0.48903,0.12679 -0.48903,0.50715 l 0,0.87845 c 0,5.8503 0,10.82215 0.30791,13.46656 0.18112,1.8203 0.54337,3.20589 2.38178,3.45947 0.91467,0.12678 2.26404,0.25357 2.9976,0.25357 0.48903,0 0.73355,0.18112 0.73355,0.49809 0,0.44375 -0.42564,0.63393 -1.22259,0.63393 -3.55003,0 -8.07812,-0.19018 -8.9928,-0.19018 -1.15919,0 -5.01713,0.19018 -7.4623,0.19018 -0.79695,0 -1.22259,-0.19018 -1.22259,-0.63393 0,-0.31697 0.24452,-0.49809 0.97807,-0.49809 0.91467,0 1.64823,-0.12679 2.20065,-0.25357 1.22259,-0.25358 1.5305,-1.63917 1.77502,-3.45947 0.30791,-2.64441 0.30791,-7.61626 0.30791,-13.40317 l 0,-11.07572 z m 7.21779,4.97185 c 0,0.68827 0.11773,0.94184 0.55242,1.13202 1.28598,0.44375 3.11534,0.63393 4.64583,0.63393 2.44517,0 3.24212,-0.25357 4.34698,-1.07768 1.8384,-1.37654 3.60436,-4.27453 3.60436,-9.43656 0,-8.92941 -5.75068,-11.51042 -9.35505,-11.51042 -1.5305,0 -2.63535,0.0634 -3.24212,0.25357 -0.43469,0.12679 -0.55242,0.38036 -0.55242,0.87845 l 0,19.12669" id="path9048"/>
    <path style="fill:#b73722;fill-rule:nonzero;stroke:none" d="m 694.56586,820.49758 c 0,-9.56335 0,-11.32025 -0.12678,-13.33978 -0.11774,-2.13726 -0.60677,-3.1425 -2.6263,-3.58625 -0.48904,-0.11773 -1.5305,-0.18113 -2.39084,-0.18113 -0.67016,0 -1.04146,-0.12678 -1.04146,-0.57054 0,-0.44375 0.4347,-0.56148 1.34937,-0.56148 3.24212,0 7.10006,0.18112 8.81168,0.18112 1.95614,0 14.13672,0 15.29591,-0.0634 1.1592,-0.11773 2.13727,-0.24452 2.6263,-0.3713 0.30791,-0.0634 0.67922,-0.25358 0.98713,-0.25358 0.29885,0 0.36224,0.25358 0.36224,0.57054 0,0.4347 -0.30791,1.19542 -0.48903,4.08435 -0.0634,0.62487 -0.18112,3.39607 -0.30791,4.15679 -0.0634,0.30791 -0.18112,0.68827 -0.60677,0.68827 -0.43469,0 -0.55242,-0.31697 -0.55242,-0.87845 0,-0.44375 -0.0634,-1.51239 -0.37131,-2.26405 -0.42564,-1.13202 -1.0324,-1.89274 -4.0934,-2.26405 -1.04146,-0.12678 -7.47136,-0.25357 -8.69395,-0.25357 -0.29885,0 -0.42564,0.19018 -0.42564,0.62488 l 0,15.92079 c 0,0.44375 0.0634,0.68827 0.42564,0.68827 1.34938,0 8.38604,0 9.78975,-0.12679 1.46711,-0.11773 2.39084,-0.30791 2.94327,-0.94184 0.42564,-0.49809 0.67015,-0.81506 0.97806,-0.81506 0.24452,0 0.42565,0.12679 0.42565,0.49809 0,0.38036 -0.30792,1.3856 -0.48904,4.60055 -0.12679,1.25881 -0.24452,3.76737 -0.24452,4.21113 0,0.50714 0,1.19542 -0.55242,1.19542 -0.42565,0 -0.55243,-0.25358 -0.55243,-0.56149 -0.0543,-0.63393 -0.0543,-1.44899 -0.24452,-2.2731 -0.29885,-1.24976 -1.15919,-2.20066 -3.42324,-2.45423 -1.15919,-0.11773 -7.21779,-0.18113 -8.69395,-0.18113 -0.29885,0 -0.36225,0.24452 -0.36225,0.62488 l 0,4.97185 c 0,2.13726 -0.0634,7.92417 0,9.75352 0.12679,4.33792 1.10486,5.27977 7.34458,5.27977 1.58483,0 4.15679,0 5.75068,-0.75167 1.58484,-0.75166 2.32744,-2.07387 2.75309,-4.65488 0.11773,-0.68827 0.24451,-0.94185 0.67015,-0.94185 0.48904,0 0.48904,0.49809 0.48904,1.13203 0,1.44899 -0.48904,5.72351 -0.79695,6.98232 -0.42564,1.63917 -0.97807,1.63917 -3.29645,1.63917 -9.24638,0 -13.33978,-0.38036 -16.9532,-0.38036 -1.40371,0 -5.26165,0.19018 -7.70682,0.19018 -0.79695,0 -1.22259,-0.19018 -1.22259,-0.63393 0,-0.31697 0.24452,-0.49809 0.97807,-0.49809 0.91468,0 1.64823,-0.12679 2.20066,-0.25357 1.22258,-0.25358 1.53049,-1.63917 1.77501,-3.45947 0.30791,-2.64441 0.30791,-7.61626 0.30791,-13.40317 l 0,-11.07572" id="path9050"/>
    <path style="fill:#b73722;fill-rule:nonzero;stroke:none" d="m 322.5102,834.50751 0.12679,1.0958 -0.63393,0.6611 c -19.34404,0 -29.26963,4.62772 -29.26963,13.43939 0,5.61485 6.35745,9.79881 17.05282,9.79881 17.05281,0 29.14283,-9.47278 29.14283,-19.16291 0,-4.40131 -2.55384,-9.02903 -7.77021,-13.53901 l -10.93988,-9.47278 c -6.23972,-5.3975 -9.29166,-10.67726 -9.29166,-15.41365 0,-9.90747 13.36694,-19.27158 32.19477,-19.27158 10.82216,0 16.92603,3.74927 16.92603,9.14676 0,5.94086 -8.52188,11.00327 -21.88882,11.00327 -1.78407,0 -3.17873,-0.10867 -4.45565,-0.21734 l -0.63393,-0.44376 0,-0.87845 0.50714,-0.55243 c 11.83645,0 18.20295,-3.52286 18.20295,-8.80262 0,-3.96661 -4.20207,-6.61102 -11.45608,-6.61102 -12.09002,0 -21.25489,6.82837 -21.25489,14.20917 0,4.61866 3.06099,8.58527 8.65772,13.53901 l 11.3293,9.90748 c 5.46994,4.73639 8.14152,9.90748 8.14152,14.97894 0,4.84507 -3.17872,10.45991 -8.9113,14.75255 -7.88794,5.94086 -18.44746,9.1377 -30.15712,9.1377 -15.7759,0 -24.81398,-5.50617 -24.81398,-13.10432 0,-9.5724 13.10431,-15.07856 38.43449,-14.64386 l 0.76072,0.44375" id="path9052"/>
    <path style="fill:#b73722;fill-rule:nonzero;stroke:none" d="m 742.59086,839.07183 2.7712,7.85172 2.7712,-7.85172 3.17872,0 0,10.96705 -2.01953,0 0,-8.8479 -2.98855,8.8479 -1.8384,0 -3.03383,-8.8479 0,8.8479 -2.01953,0 0,-10.96705 3.17872,0 z m -14.39029,1.85652 0,-1.85652 9.35505,0 0,1.85652 -3.58625,0 0,9.11053 -2.17349,0 0,-9.11053 -3.59531,0" id="path9054"/>
    <path style="fill:#000000;fill-rule:nonzero;stroke:none" d="m 451.42514,720.92471 -33.96073,0 0,-48.50498 -22.04278,0 0,48.50498 -34.86635,0 -0.11773,-125.02077 34.98408,0 0,46.50356 22.04278,0 0,-46.50356 33.96073,0 0,125.02077 z m 155.60354,0.58865 c 35.02031,-0.0181 63.52015,-29.10661 63.5111,-64.13597 -0.009,-35.76291 -28.49079,-63.53826 -63.5111,-63.56543 -34.97502,-0.0272 -52.85195,25.71959 -57.26232,36.1161 0.0362,-15.60382 -15.34119,-34.01506 -33.3268,-34.04223 l -57.95059,0 0,124.9936 54.02926,0.0181 c 21.78921,0 37.28435,-18.87311 37.31152,-35.05653 4.97185,10.18822 22.22391,35.68141 57.19893,35.67235 z m -99.03855,-50.85959 c 4.99902,0 8.93847,4.93563 8.93847,10.55953 0,5.62389 -3.93945,10.56858 -8.93847,10.56858 l -17.1796,0 0,-21.12811 17.1796,0 z m 0.0634,-46.9292 c 4.99902,0 8.93846,4.93563 8.93846,10.55952 0,5.6239 -3.93944,10.55953 -8.93846,10.55953 l -17.17961,0 0,-21.11905 17.17961,0 z m 22.87594,33.67999 c 3.93945,-0.49809 10.49613,-4.99902 12.81452,-7.87889 -0.81506,3.56814 -0.87845,13.88315 0.0724,17.44223 -2.63535,-4.06623 -8.88413,-9.06525 -12.88697,-9.56334 z m 44.30291,0 c 0,-17.56902 14.2454,-31.81441 31.81441,-31.81441 17.57808,0 31.82347,14.24539 31.82347,31.81441 0,17.56902 -14.24539,31.81441 -31.82347,31.81441 -17.56901,0 -31.81441,-14.24539 -31.81441,-31.81441 z m 31.81441,25.01321 c 13.81976,0 25.01321,-11.20251 25.01321,-25.01321 0,-13.8107 -11.19345,-25.01321 -25.01321,-25.01321 -13.81069,0 -25.01321,11.20251 -25.01321,25.01321 0,13.8107 11.20252,25.01321 25.01321,25.01321" id="path9056"/>
  </g>
</svg>