<?xml version="1.0" encoding="UTF-8"?>
<svg id="iconHboMovies" xmlns="http://www.w3.org/2000/svg" version="1.1" viewBox="0 0 180 180">
  <defs>
    <style>
      .cls-1 {
        fill: #000;
        stroke-width: 0px;
      }
    </style>
  </defs>
  <polygon class="cls-1" points="49.1685265 64.9895172 39.96352 64.9895172 39.96352 45.5693066 25.3461998 45.5693066 25.3461998 97.7750772 39.96352 97.7750772 39.96352 77.5194911 49.1685265 77.5194911 49.1685265 97.7750772 63.3490826 97.7750772 63.3490826 45.5693066 49.1685265 45.5693066 49.1685265 64.9895172 49.1685265 64.9895172"/>
  <path class="cls-1" d="M128.3373819,44.696503c-14.6094152-.0107926-22.0738648,10.7433702-23.9180216,15.0843101.0172813-6.5160871-6.4052958-14.2079053-13.9179333-14.2158323h-24.2036788v52.2086581l22.5660191.0043148c9.0984972,0,15.5721496-7.8832079,15.5836558-14.6432312,2.0765757,4.2546104,9.2805435,14.9044377,23.8899587,14.8993872,14.6259828-.0057531,26.5284836-12.1586788,26.5249044-26.7868025-.0028985-14.9368044-11.8989215-26.5400118-26.5249044-26.5508043h0ZM86.9728173,85.6149602h-7.1773432v-8.8229299h7.1773432c2.0880929,0,3.732944,2.062193,3.732944,4.4114814,0,2.3492665-1.644851,4.4114485-3.732944,4.4114485h0ZM86.9994528,66.0119786h-7.1780788v-8.8229189h7.1780788c2.0880819,0,3.732933,2.0614574,3.732933,4.4107458,0,2.3492665-1.644851,4.4121731-3.732933,4.4121731h0ZM96.5527091,71.2573862c1.6448401-.2079463,4.3855485-2.0880929,5.3511594-3.2882748-.3396091,1.487991-.36552,5.795126.0309394,7.283117-1.1016105-1.696662-3.7113588-3.7854685-5.3820989-3.9948422h0ZM128.3460116,84.5478903c-7.3399564,0-13.2890548-5.9498231-13.2890548-13.2905041,0-7.3385181,5.9490985-13.2883521,13.2890548-13.2883521,7.3392537,0,13.2890878,5.9498341,13.2890878,13.2883521,0,7.340681-5.9498341,13.2905041-13.2890878,13.2905041h0Z"/>
  <path class="cls-1" d="M128.3460116,60.8111904c-5.7706752,0-10.4469094,4.6776834-10.4469094,10.4461958,0,5.7706533,4.6762342,10.4476231,10.4469094,10.4476231,5.769226,0,10.4461738-4.6769698,10.4461738-10.4476231,0-5.7685123-4.6769478-10.4461958-10.4461738-10.4461958h0Z"/>
  <path class="cls-1" d="M151.5991978,52.0084074c1.7571135,0,3.2587407-1.3649579,3.2587407-3.2335764,0-1.8513591-1.5016272-3.216317-3.2587407-3.216317-1.7750975,0-3.2767466,1.3649579-3.2767466,3.216317,0,1.8686184,1.5016492,3.2335764,3.2767466,3.2335764h0ZM151.5991978,46.0960015c1.4584789,0,2.61044,1.1519721,2.61044,2.6788296,0,1.5527574-1.1519612,2.6960889-2.61044,2.6960889-1.4765068,0-2.6277433-1.1433315-2.6277433-2.6960889,0-1.5268574,1.1512365-2.6788296,2.6277433-2.6788296h0Z"/>
  <path class="cls-1" d="M150.9163565,49.0309871h.6482787l.9814759,1.6124624h.6310194l-1.0584183-1.6376487c.5461281-.0690812.9641507-.3583396.9641507-1.0246133,0-.7332139-.4346012-1.0577156-1.3138607-1.0577156h-1.4160332v3.7199775h.5633874v-1.6124624h0ZM150.9163565,47.4012435h.7677545c.3921336,0,.8101782.0849023.8101782.5461171,0,.572039-.4266742.605855-.9044457.605855h-.673487v-1.1519721h0Z"/>
  <path class="cls-1" d="M25.3670493,134.2489726h4.0409109v-19.9800188c2.5068512,4.4150716,4.489895,9.2416881,6.8470774,16.2384342h4.5273231c2.3571825-6.9967461,4.3402153-11.8233626,6.8470774-16.2384342v19.9800188h4.0409v-24.2828279h-6.1736014c-2.5816855,4.7143979-4.714376,9.5035973-6.9593399,15.8642955-2.2823591-6.3606982-4.4150387-11.1498976-6.9967461-15.8642955h-6.1736014v24.2828279h0ZM68.6196765,134.5857052c6.9593289,0,12.4594544-5.387852,12.4594544-12.4968715,0-7.0341633-5.4627083-12.4968496-12.4594544-12.4968496-7.1464038,0-12.4594544,5.5375206-12.4594544,12.5342667,0,7.1089976,5.5375426,12.4594544,12.4594544,12.4594544h0ZM60.2385393,122.1636679c0-4.7892213,3.5544988-8.755265,8.3811372-8.755265,4.7892213,0,8.3811263,3.8912313,8.3811263,8.7178478,0,4.8266604-3.6293221,8.6430354-8.3811263,8.6430354s-8.3811372-3.7789798-8.3811372-8.6056183h0ZM91.8541432,134.2489726h4.9014618c3.6667393-7.4083129,6.7348479-15.527552,9.2042709-24.2828279h-4.3028091c-1.8707923,7.3709068-4.3028091,14.0683375-7.3334896,20.6534948-3.0680757-6.5851573-5.5001035-13.2825881-7.3709068-20.6534948h-4.3028091c2.469445,8.7552759,5.5375426,16.874515,9.2042819,24.2828279h0ZM109.4021342,134.2489726h4.0409109v-24.2828279h-4.0409109v24.2828279h0ZM119.4288471,134.2489726h14.7043964v-3.8164189h-10.6634964v-6.6599916h9.5784426v-3.7415736h-9.5784426v-6.2484248h10.5512449v-3.8164189h-14.5921449v24.2828279h0ZM146.1062747,134.5857052c4.6769698,0,8.8300993-2.244942,8.8300993-7.1463928,0-8.5682231-13.1703366-6.4729388-13.1703366-11.1498976,0-1.9456266,1.9456266-2.8810118,4.4524888-2.8810118,2.3571935,0,4.4524668,1.0850319,5.7620017,2.8061775l2.7313432-2.693937c-1.795936-2.469445-5.0136803-3.9286595-8.4559277-3.9286595-4.6769917,0-8.5682011,2.2075248-8.5682011,6.6599916,0,8.3811592,13.1703366,5.8368579,13.1703366,11.4492349,0,2.0578781-2.0952733,3.0680757-4.8266384,3.0680757-2.3197763,0-4.6395746-.7857165-6.4355326-3.0306585l-2.8061555,2.6565308c2.0952733,2.8810118,5.1259318,4.1905467,9.3165224,4.1905467h0Z"/>
</svg>