<?xml version="1.0" encoding="utf-8"?>
<!-- Generator: Adobe Illustrator 22.0.0, SVG Export Plug-In . SVG Version: 6.00 Build 0)  -->
<svg version="1.1" id="Layer_1" xmlns="http://www.w3.org/2000/svg" xmlns:xlink="http://www.w3.org/1999/xlink" x="0px" y="0px"
	 viewBox="0 0 283.5 219.7" style="enable-background:new 0 0 283.5 219.7;" xml:space="preserve">
<style type="text/css">
	.st0{fill:#EB3D78;}
</style>
<g>
	<path d="M22.6,154.6H33c1.4,0,2.5,1.1,2.5,2.5v8c0,1.4-1.1,2.5-2.5,2.5H22.6v33H7.9v-33H0v-13h7.9v-3.6c0-12.4,6.8-19.1,17.5-19.1
		c5.9,0,10.2,1.5,13.5,3.5c1.1,0.7,1.5,2.2,0.8,3.4l-4.1,6.9c-0.6,1.1-1.9,1.5-3.1,1c-1.6-0.7-3.2-1.1-5.2-1.1
		c-3.2,0-4.8,1.8-4.8,5.8L22.6,154.6L22.6,154.6z"/>
	<path d="M85.4,154.6h-9.2c-1.4,0-2.5,1.1-2.5,2.5v2.5c-2.8-3.6-6.9-6.2-13.2-6.2c-12.3,0-21.4,10.7-21.4,24.2
		c0,13.6,9.1,24.2,21.3,24.2c6.3,0,10.4-2.6,13.2-6.2v5h14.2v-43.5C87.9,155.7,86.8,154.6,85.4,154.6 M64,188.1
		c-5.9,0-9.8-4.5-9.8-10.5S58.1,167,64,167c5.8,0,9.8,4.4,9.8,10.5C73.8,183.7,69.8,188.1,64,188.1"/>
	<path d="M170.2,170.4v30.1h-14.6v-25c0-5.4-2.7-8.5-7.3-8.5c-4.1,0-7.4,2.9-7.4,8.7v24.7h-14.7v-25c0-5.4-2.7-8.5-7.3-8.5
		c-4.2,0-7.4,2.9-7.4,8.7v24.7H96.8v-43.5c0-1.4,1.1-2.5,2.5-2.5h9.1c1.4,0,2.5,1.1,2.5,2.5v3.2c2.9-4.8,7.5-7,13.7-7
		c6,0,11.2,2.8,14,7.7c3.1-5.3,8.3-7.7,14.6-7.7C163.5,153.4,170.2,159.8,170.2,170.4"/>
	<path d="M181.2,154.6h9.7c1.4,0,2.5,1.1,2.5,2.5v43.5h-14.6v-43.5C178.7,155.7,179.8,154.6,181.2,154.6"/>
	<path class="st0" d="M177.2,140.5c0-5,3.8-8.8,8.8-8.8c4.8,0,8.8,4,8.8,8.9c0,4.9-3.9,8.7-8.9,8.6
		C181.1,149.2,177.2,145.3,177.2,140.5"/>
	<path d="M205.3,133.2h9.7c1.4,0,2.5,1.1,2.5,2.5v64.9h-14.6v-64.9C202.9,134.3,204,133.2,205.3,133.2"/>
	<path d="M268.5,154.6h-9.7c-1.3,0-2.4,1.1-2.5,2.4c-0.3,11-2.4,21-5.7,29L238,156.2c-0.4-0.9-1.3-1.5-2.3-1.5h-10.6
		c-1.8,0-3,1.8-2.3,3.4l17.9,42.5l0,0c-3.3,2.9-7,4.5-10.9,4.5v14.7c22.2,0,40.3-27.7,41.1-62.5C271,155.8,269.9,154.6,268.5,154.6"
		/>
	<path d="M136.2,88.4h-13v-18h12.9c3.3,0,6.8,4.6,6.8,8.8C143,84.2,139.9,88.4,136.2,88.4 M136.4,45.4h-13v-18h12.9
		c3.3,0,6.8,4.6,6.8,8.8C143.2,41.2,140.1,45.4,136.4,45.4 M168.2,68c-2.7-4.1-6.8-7.5-12.7-9.6c6.2-1.5,10.5-6.1,13.1-11.7
		c0,0,1.1-0.8,2.5-8.2c0.3-2.3,0.6-5.5,0.5-7.7c0-14-11.9-29.4-31.9-29.4H91.8v113.4h50.3c18.6,0,30.6-12.2,30.6-29.9
		c0-0.8,0-1.7-0.1-2.5C172.6,82.2,173.3,75.5,168.2,68"/>
	<path d="M225.5,0c-32,0-58,26-58,58c0,32,26,58,58,58c32,0,58-26,58-58C283.5,26,257.5,0,225.5,0 M225.5,87.4
		c-16.3,0-29.4-13.2-29.4-29.4c0-16.3,13.2-29.4,29.4-29.4c16.3,0,29.4,13.2,29.4,29.4C254.9,74.3,241.8,87.4,225.5,87.4"/>
	<path d="M225.5,35c-12.7,0-23,10.3-23,23c0,12.7,10.3,23,23,23c12.7,0,23-10.3,23-23C248.5,45.3,238.2,35,225.5,35"/>
	<polygon points="53.9,44.4 34.5,44.4 34.6,1.3 2.6,1.3 2.5,114.7 34.5,114.7 34.5,69.6 53.9,69.6 53.9,114.7 86.2,114.7 86.3,1.3 
		54,1.3 	"/>
</g>
</svg>
