<?xml version="1.0" encoding="utf-8"?>
<!-- Generator: Adobe Illustrator 28.0.0, SVG Export Plug-In . SVG Version: 6.00 Build 0)  -->
<svg version="1.1" id="Layer_1" xmlns="http://www.w3.org/2000/svg" xmlns:xlink="http://www.w3.org/1999/xlink" x="0px" y="0px"
	 viewBox="0 0 461.8 265.1" style="enable-background:new 0 0 461.8 265.1;" xml:space="preserve">
<style type="text/css">
	.st0{fill:none;stroke:#EA2429;stroke-width:4;stroke-miterlimit:10;}
	.st1{fill:#EA2429;stroke:#EA2429;stroke-miterlimit:10;}
	.st2{fill:none;}
</style>
<path class="st0" d="M329.2,2H134.1c-4.9,0-8.8,3.9-8.8,8.8c0,4.9-3.9,8.8-8.8,8.8h-0.8c-4.9,0-8.8-3.9-8.8-8.8
	c0-4.9-3.9-8.8-8.8-8.8H10.8C5.9,2,2,5.9,2,10.8v243.5c0,4.9,3.9,8.8,8.8,8.8h87.3c4.9,0,8.8-3.9,8.8-8.8c0-4.9,3.9-8.8,8.8-8.8h0.8
	c4.9,0,8.8,3.9,8.8,8.8c0,4.9,3.9,8.8,8.8,8.8h195.1c72.1,0,130.6-58.5,130.6-130.6C459.8,60.5,401.3,2,329.2,2"/>
<path class="st1" d="M109.5,167.4c0.3-2.6,1.7-3.8,3.8-4.1c0,0,1.2-0.1,1.5-0.1s0.4-0.2,0.4-0.4s0-0.4,0-0.4h-12.3v0.6
	c0,0.1,0.1,0.2,0.2,0.3c0.2,0,2.1,0.2,2.1,0.2c3.1,0.2,3.8,0.8,3.4,4c-0.8,6.5-2.1,11.7-4.6,15.4c-0.1,0.1-0.3,0.1-0.4,0l-11-13.4
	c-5.2-6.5-7.6-9.2-7.9-13c-0.2-2.8,1.5-6.4,5.8-7c5.6-0.8,8.9,4,8.9,8.2c0,0.1,0,0.2,0.1,0.2h0.7v-10.3c0,0-0.5,0-0.6,0
	c-0.1,0-0.1,0-0.1,0.1c0,0.1-0.4,4.2-0.4,4.2c0,0.3-0.4,0.4-0.6,0.1c-1.3-2.5-4.3-4.4-8.6-4.4c-8.2,0-9.7,7.2-9.6,10.1
	c0.1,3.3,1.3,5.1,3.1,8.1c0.1,0.2,0.1,0.4-0.1,0.5c-4.1,1.7-8.2,5.6-8.2,11.8c0,6.6,6.2,12.4,15,12.4c6.3,0,7.9-1.6,10.4-3.1
	c0.2-0.1,0.4-0.1,0.5,0.1l2,2.4l11.3,0v-0.8c0,0-2-0.2-3.4-0.5c-2.9-0.7-4.5-2.4-6.4-4.6c-0.1-0.1-0.1-0.3,0-0.4
	C107.5,179.7,108.8,173.9,109.5,167.4L109.5,167.4z M99.5,186.8c-2.2,1.3-4.9,2.1-7.6,2.1c-7.1,0-12.4-5.3-12-12.4
	c0.2-3.3,2.1-6.5,4.6-8.4c0.3-0.2,0.7-0.1,1,0.1c0.2,0.2,0.3,0.3,0.6,0.8l13.5,16.7C100,186.1,99.9,186.6,99.5,186.8z"/>
<g>
	<path class="st1" d="M125.9,148.4V181c0,0.2,0.2,0.4,0.4,0.4h9.1c0.2,0,0.4,0.2,0.4,0.4v8.3H117v-41.9h8.5
		C125.8,148.1,125.9,148.2,125.9,148.4L125.9,148.4z"/>
	<path class="st1" d="M149.3,190h-9v-41.9h9V190z"/>
	<path class="st1" d="M155.1,148.1h19.2c0.2,0,0.4,0.2,0.4,0.4v6.9c0,0.2-0.2,0.4-0.4,0.4H164c-0.2,0-0.4,0.2-0.4,0.4v5.9
		c0,0.2,0.2,0.4,0.4,0.4h6.7c0.2,0,0.4,0.2,0.4,0.4v7.5c0,0.2-0.2,0.4-0.4,0.4H164c-0.2,0-0.4,0.2-0.4,0.4v18.8
		c0,0.2-0.2,0.4-0.4,0.4h-8.3L155.1,148.1L155.1,148.1z"/>
	<path class="st1" d="M198.9,148.4v6.9c0,0.2-0.2,0.4-0.4,0.4h-10.3c-0.2,0-0.4,0.2-0.4,0.4v5.9c0,0.2,0.2,0.4,0.4,0.4h6.8
		c0.2,0,0.4,0.2,0.4,0.4v7.5c0,0.2-0.2,0.4-0.4,0.4h-6.8c-0.2,0-0.4,0.2-0.4,0.4v10.5c0,0.2,0.2,0.4,0.4,0.4h10.6
		c0.2,0,0.4,0.2,0.4,0.4v7.6c0,0.2-0.2,0.4-0.4,0.4h-19.6v-41.9h19.2C198.7,148.1,198.9,148.2,198.9,148.4L198.9,148.4z"/>
	<path class="st1" d="M236,156.3h-6c-0.2,0-0.4-0.2-0.4-0.4v-7.9h22.1v7.9c0,0.2-0.2,0.4-0.4,0.4h-6c-0.2,0-0.4,0.2-0.4,0.4V190
		h-8.7v-33.3C236.4,156.5,236.2,156.3,236,156.3L236,156.3z"/>
	<path class="st1" d="M261.8,174.1l-7.9-26h8.7c0.2,0,0.3,0.1,0.3,0.3l3.4,14.1c0.1,0.4,0.6,0.4,0.7,0l3.3-14.1
		c0-0.2,0.2-0.3,0.3-0.3h8.2l-7.6,26.2c0,0.1,0,0.1,0,0.2V190h-9.3v-15.7C261.8,174.2,261.8,174.1,261.8,174.1L261.8,174.1z"/>
	<path class="st1" d="M291.1,148.4V181c0,0.2,0.2,0.4,0.4,0.4h9.1c0.2,0,0.4,0.2,0.4,0.4v8.3h-18.8v-41.9h8.5
		C291,148.1,291.1,148.2,291.1,148.4L291.1,148.4z"/>
	<path class="st1" d="M325.1,148.4v6.9c0,0.2-0.2,0.4-0.4,0.4h-10.3c-0.2,0-0.4,0.2-0.4,0.4v5.9c0,0.2,0.2,0.4,0.4,0.4h6.8
		c0.2,0,0.4,0.2,0.4,0.4v7.5c0,0.2-0.2,0.4-0.4,0.4h-6.8c-0.2,0-0.4,0.2-0.4,0.4v10.5c0,0.2,0.2,0.4,0.4,0.4h10.6
		c0.2,0,0.4,0.2,0.4,0.4v7.6c0,0.2-0.2,0.4-0.4,0.4h-19.6v-41.9h19.2C324.9,148.1,325.1,148.2,325.1,148.4L325.1,148.4z"/>
</g>
<path class="st1" d="M329.3,75.4c-0.3,0-0.5,0-0.8,0v114.3c0,0.2,0.2,0.4,0.4,0.4c31.8,0.2,57.7-25.5,57.7-57.3
	C386.6,101,360.9,75.4,329.3,75.4"/>
<g>
	<path class="st2" d="M157.8,89.2c0-0.1,0-0.2,0-0.3C157.9,89,157.9,89.1,157.8,89.2z"/>
	<path d="M157.8,89.2C157.8,89.3,157.8,89.3,157.8,89.2C157.8,89.2,157.8,89.2,157.8,89.2C157.8,89.2,157.8,89.2,157.8,89.2z"/>
</g>
<g>
	<path class="st2" d="M123.6,96c-0.1-0.8-1.3-0.8-1.4,0c-0.4,2.9-0.9,6.4-1.5,10.5l-2,13c-0.1,0.4,0.3,0.8,0.7,0.8h7.2
		c0.4,0,0.8-0.4,0.7-0.8l-2.1-13C124.5,102.3,124,98.9,123.6,96z"/>
	<path class="st1" d="M102.2,100.1c0-0.4-0.3-0.7-0.7-0.7H89.1c-0.4,0-0.7-0.3-0.7-0.7V87c0-0.4,0.3-0.7,0.7-0.7h17.2
		c0.4,0,0.7-0.3,0.7-0.7v-9.6c0-0.4-0.3-0.7-0.7-0.7H76.1v70.4h11.6c0.4,0,0.7-0.3,0.7-0.7v-32.5c0-0.4,0.3-0.7,0.7-0.7h12.4
		c0.4,0,0.7-0.3,0.7-0.7C102.2,111.1,102.2,100.1,102.2,100.1z"/>
	<path class="st1" d="M115.3,75.4l-11.8,70.4H114c0.3,0,0.6-0.3,0.7-0.6l2.1-13.7c0.1-0.3,0.4-0.6,0.7-0.6h11c0.3,0,0.6,0.3,0.7,0.6
		l2.2,13.7c0.1,0.3,0.4,0.6,0.7,0.6h11.5L131,75.4C131,75.4,115.3,75.4,115.3,75.4z M126.6,120.3h-7.2c-0.4,0-0.8-0.4-0.7-0.8l2-13
		c0.6-4.1,1.1-7.6,1.5-10.5c0.1-0.8,1.3-0.8,1.4,0c0.4,2.9,0.9,6.3,1.5,10.5l2.1,13C127.3,119.9,127,120.3,126.6,120.3z"/>
	<path class="st1" d="M209.2,76.1l0,23.8c0,0.4-0.3,0.7-0.7,0.7h-10.2c-0.4,0-0.7-0.3-0.7-0.7l0-23.8c0-0.4-0.3-0.7-0.7-0.7H185
		v70.4h11.9c0.4,0,0.7-0.3,0.7-0.7l0-31.9c0-0.4,0.3-0.7,0.7-0.7h10.2c0.4,0,0.7,0.3,0.7,0.7l0,31.9c0,0.4,0.3,0.7,0.7,0.7h11.9
		V75.4h-11.9C209.5,75.4,209.2,75.7,209.2,76.1z"/>
	<rect x="227.6" y="75.4" class="st1" width="12.6" height="70.4"/>
	<path class="st1" d="M265,74.5h-1.9c-11.9,0-17.6,6.7-17.6,19.1v33.9c0,12.4,5.6,19.1,17.7,19.1h1.9c11.9,0,17.6-6.7,17.6-19.1
		V93.6C282.7,81.2,277.1,74.5,265,74.5z M270,127.6v2.4c0,3.3-2.6,5.9-5.9,5.9c-3.3,0-5.9-2.6-5.9-5.9V91.1c0-3.3,2.6-5.9,5.9-5.9
		c3.3,0,5.9,2.6,5.9,5.9C270,91.1,270,127.6,270,127.6z"/>
	<path class="st1" d="M315,75.4c-0.4,0-0.7,0.3-0.7,0.7v26.5c0,7.6,0,11.8,0,15.1c0,0.4-0.3,0.5-0.4,0.1c-0.8-3-1.9-6.5-3.5-11.4
		l-9.9-30.5c-0.1-0.3-0.4-0.5-0.7-0.5h-11.8v70.4h10.3c0.4,0,0.7-0.3,0.7-0.7v-28.7c0-6.8,0-11.4,0-14.8c0-0.4,0.2-0.5,0.3-0.1
		c0.8,3,1.9,6.7,3.6,11.2l11.2,32.7c0.1,0.3,0.4,0.5,0.7,0.5h10.4V75.4H315z"/>
</g>
<g>
	<path class="st2" d="M212.2,155.6c0.1-0.1,0.1-0.2,0.2-0.3C212.3,155.4,212.3,155.5,212.2,155.6z"/>
	<path class="st2" d="M217,155C217,155,217,155.1,217,155C217,155.1,217,155,217,155z"/>
	<path class="st2" d="M212.4,155.2c0.1-0.1,0.1-0.2,0.2-0.3C212.6,155.1,212.5,155.2,212.4,155.2z"/>
	<path class="st1" d="M220.4,167.3l-5.5-4.5c-2.1-1.8-3-2.9-3-5.2v-0.3l0-0.4c0-0.5,0.1-0.9,0.3-1.3c0-0.1,0.1-0.2,0.1-0.3
		c0,0,0.1-0.1,0.1-0.1c0.1-0.1,0.1-0.2,0.2-0.3c0.5-0.6,1.3-0.9,2.1-0.9c0.9,0,1.6,0.4,2.2,1c0,0,0,0.1,0.1,0.1
		c0.4,0.5,0.7,1.1,0.7,1.8v2.6c0,0.2,0.2,0.4,0.4,0.4h8.1v-3.8c0-5.5-3.3-8.6-10.6-8.6h-1.3c-7.5,0-11.2,3.3-11.2,9.7v1.2
		c0,4.8,2,7.7,5.6,10.6l5.5,4.5c2.2,1.8,3.2,3.1,3.2,5.7v0.5l0,0.8c0,1.7-1.4,3.1-3.1,3.1s-3.1-1.4-3.1-3.1l0-5.1
		c0-0.2-0.2-0.4-0.4-0.4h-8.2v6.4c0,5.6,3.5,9.1,11,9.1h1.4c8.3,0,11.5-4.7,11.5-10.7v-1.2C226.6,173.3,224.6,170.7,220.4,167.3z"/>
</g>
<path class="st1" d="M172.5,108.6l-9.1-8.3c-3.9-3.5-5.5-5.1-5.5-9.2v-2.4c0.1-2.5,2.4-4.6,5.1-4.6c2.9,0,5.2,2.3,5.2,5.2l0,0.2
	c0,0,0,0.8,0,1.2v3.8c0,0.4,0.3,0.7,0.7,0.7h11.5v-7c0-9-7.1-14.2-17.9-13.9c-8.9,0.2-17.5,5-17.5,15.9v2c0,7.8,3.5,11.9,9,17
	l9.2,8.2c3.8,3.4,4.7,4.7,4.7,10.8v0.8c0,0.3,0,0.6,0,0.8c0,0.7-0.1,1.5-0.3,2.1c-0.7,2.5-2.5,4-5.2,4c-3.4,0-5.4-1.9-5.6-5.3
	c0-0.2,0-0.4,0-0.6v-8.9c0-0.4-0.3-0.7-0.7-0.7h-11.6v11.9c0,8.5,6.2,14.2,18,14.2c12.5,0,18.6-7.5,18.6-17.1v-2
	C181.1,119.1,178.8,114.4,172.5,108.6z"/>
</svg>
