<?xml version="1.0" encoding="utf-8"?>
<!-- Generator: Adobe Illustrator 24.0.2, SVG Export Plug-In . SVG Version: 6.00 Build 0)  -->
<svg version="1.1" id="Capa_1" xmlns="http://www.w3.org/2000/svg" xmlns:xlink="http://www.w3.org/1999/xlink" x="0px" y="0px"
	 viewBox="0 0 1021 430.2" style="enable-background:new 0 0 1021 430.2;" xml:space="preserve">
<style type="text/css">
	.st0{fill:#FFFFFF;}
</style>
<g>
	<rect class="st0" width="1021" height="430.2"/>
	<rect x="792.1" width="228.9" height="430.2"/>
	<path d="M504.9,379.4c-84.1,0-168.2-0.1-252.2,0.2c-8.6,0-11.2-2.1-11-10.9c0.6-27.3,0-54.7,0.4-82c0.1-6.8-2-8.7-8.7-8.6
		c-17.1,0.4-34.2,0.5-51.3,0c-6.9-0.2-8.6,2.2-8.5,8.8c0.3,27.6-0.1,55.3,0.3,82.9c0.1,7.2-1.5,9.9-9.3,9.8
		c-39.9-0.4-79.9-0.3-119.8,0c-6.9,0.1-8.5-2.2-8.5-8.7c0.2-107.2,0.2-214.4,0-321.6c0-6.1,1.6-8.3,8-8.3c40.5,0.2,81.1,0.3,121.6,0
		c6.5,0,8,2.4,8,8.4c-0.3,27.9,0.2,55.9-0.3,83.8c-0.1,8.2,2.6,10.3,10.3,10c16.5-0.5,33-0.4,49.5,0c6.7,0.1,8.8-2,8.8-8.8
		c-0.3-27.3,0.3-54.7-0.4-82c-0.2-9.4,2.7-11.5,11.7-11.4C410.1,41.1,566.8,41,723.6,41c11.4,0,22.9,0.5,34.2-0.2
		c8.2-0.5,10,2.7,10,10.4c-0.2,106.3-0.2,212.6,0,318.9c0,7.7-2.4,9.4-9.7,9.4C673.7,379.3,589.3,379.4,504.9,379.4 M380.3,210.3
		c0,42,0.1,84.1-0.1,126.1c0,5.5,0.4,8.8,7.5,8.8c78.1-0.2,156.1-0.2,234.2,0c6.1,0,7.6-2.2,7.5-7.9c-0.3-15.9-0.6-31.8,0.1-47.7
		c0.4-8.8-1.7-11.7-11.2-11.6c-51,0.5-102.1,0.2-153.1,0.2c-23.4,0-23.1,0-23.6-23.4c-0.2-8.5,2-11.2,10.8-11.1
		c55.8,0.4,111.7,0.1,167.5,0.4c7.5,0,9.8-2.1,9.5-9.6c-0.5-16.2-0.6-32.4,0-48.6c0.3-7.4-2.5-8.9-9.3-8.9
		c-51.6,0.2-103.3,0.1-154.9,0.1c-23.5,0-23.5,0-23.5-23.3c0-11.9,0-11.9,11.8-11.9c55.5,0,111.1-0.1,166.6,0.1c6.8,0,9.5-1.6,9.3-9
		c-0.5-16.2-0.5-32.4,0-48.6c0.2-6.8-2-8.6-8.7-8.6c-77.2,0.2-154.3,0.2-231.5,0c-7.2,0-9.1,2.1-9.1,9.2
		C380.5,126.9,380.3,168.6,380.3,210.3 M344.8,210.8c0-42-0.1-84.1,0.1-126.1c0-6.6-1.7-9-8.6-8.8c-16.8,0.5-33.6,0.4-50.4,0
		c-6.7-0.2-8.8,1.9-8.7,8.6c0.3,27.9,0,55.8,0.3,83.7c0.1,6.5-1.8,9-8.7,8.9c-40.5-0.3-81-0.3-121.6,0c-7,0.1-8.5-2.4-8.4-8.9
		c0.3-28.2,0-56.4,0.2-84.6c0-5.8-1.6-7.9-7.6-7.8c-17.7,0.3-35.4,0.3-53.1,0c-5.8-0.1-7.9,1.5-7.8,7.6c0.2,84.6,0.2,169.3,0,253.9
		c0,5.9,1.8,7.8,7.7,7.7c17.1-0.3,34.2-0.5,51.3,0c7.3,0.2,9.8-1.7,9.7-9.4c-0.5-27.6,0-55.2-0.3-82.8c-0.1-7,1.7-9.3,9-9.2
		c39.9,0.3,79.8,0.4,119.8,0c8.4-0.1,10,3,9.9,10.5c-0.4,27.3,0.1,54.6-0.3,81.9c-0.1,7.3,2.3,9.2,9.3,9c16.5-0.4,33-0.5,49.5,0
		c7.4,0.2,9-2.4,9-9.2C344.7,294.3,344.8,252.6,344.8,210.8 M663.8,261.3c0,25.2,0.2,50.4-0.1,75.6c-0.1,6.1,1.4,8.5,8,8.3
		c17.7-0.4,35.4-0.4,53.1,0c6,0.1,7.6-2,7.6-7.8c-0.2-50.7-0.2-101.3,0.1-152c0-7.1-2.5-8.5-8.9-8.4c-17.1,0.4-34.2,0.4-51.3,0
		c-6.9-0.2-8.6,2.2-8.5,8.8C664,211,663.8,236.2,663.8,261.3 M698.2,76.1c-9,0-18,0.3-26.9-0.1c-6.1-0.3-7.7,2.1-7.6,7.8
		c0.3,17.1,0.3,34.1,0,51.2c-0.1,5.8,1.8,8,7.7,7.9c18-0.3,35.9-0.2,53.9,0c4.8,0,7-1.3,6.9-6.6c-0.2-18-0.2-35.9,0-53.9
		c0.1-5.4-2.4-6.5-7.1-6.4C716.2,76.3,707.2,76.1,698.2,76.1"/>
	<g>
		<path class="st0" d="M862,372.2v-26.4l50.6-34.4H862v-26.6h91.4v26.6l-50.2,34.2h50.2v26.6H862z"/>
		<path class="st0" d="M907.8,269.5c-14.9,0-26.5-4.2-34.9-12.5c-8.3-8.3-12.5-19.9-12.5-34.7c0-15.2,4.1-26.9,12.3-35.2
			c8.2-8.2,19.6-12.3,34.3-12.3c10.7,0,19.4,1.8,26.3,5.4c6.8,3.6,12.2,8.8,16,15.6c3.8,6.8,5.7,15.3,5.7,25.4
			c0,10.3-1.6,18.8-4.9,25.6c-3.3,6.8-8.5,12.2-15.6,16.4C927.4,267.4,918.5,269.5,907.8,269.5z M907.9,241.3
			c9.2,0,15.9-1.7,19.9-5.1c4-3.4,6-8.1,6-14c0-6.1-2-10.8-5.9-14.1c-3.9-3.3-11-5-21.3-5c-8.6,0-14.9,1.7-18.9,5.2
			c-4,3.5-6,8.2-6,14.1c0,5.7,2,10.3,6,13.7C891.9,239.5,898.6,241.3,907.9,241.3z"/>
		<path class="st0" d="M862,169v-26.8l51.2-9.7L862,118.4V91.6l51.1-14.2L862,67.8V41.1l91.4,20.2v27.7l-57.6,16l57.6,16v27.7
			L862,169z"/>
	</g>
</g>
</svg>
