<?xml version="1.0" encoding="UTF-8" standalone="no"?>
<svg
   width="432.10349"
   height="498.34793"
   viewBox="0 0 432.10349 498.34793"
   fill="none"
   version="1.1"
   id="svg106"
   sodipodi:docname="History 2021.svg"
   inkscape:version="1.1-rc (52f87abb86, 2021-05-02)"
   xmlns:inkscape="http://www.inkscape.org/namespaces/inkscape"
   xmlns:sodipodi="http://sodipodi.sourceforge.net/DTD/sodipodi-0.dtd"
   xmlns="http://www.w3.org/2000/svg"
   xmlns:svg="http://www.w3.org/2000/svg">
  <sodipodi:namedview
     id="namedview108"
     pagecolor="#ffffff"
     bordercolor="#666666"
     borderopacity="1.0"
     objecttolerance="10.0"
     gridtolerance="10.0"
     guidetolerance="10.0"
     inkscape:pageshadow="2"
     inkscape:pageopacity="0.0"
     inkscape:pagecheckerboard="0"
     showgrid="false"
     inkscape:zoom="1.1775223"
     inkscape:cx="335.0255"
     inkscape:cy="457.31618"
     inkscape:window-width="1024"
     inkscape:window-height="580"
     inkscape:window-x="-8"
     inkscape:window-y="-8"
     inkscape:window-maximized="1"
     inkscape:current-layer="svg106" />
  <path
     d="m 39.693755,366.38526 v -6.511 l 2.8014,-0.023 c 0.0664,0 0.2104,0.011 0.3986,0.011 5.6581,0 11.139,-2.279 15.8891,-5.192 6.1342,-3.77 9.4227,-10.363 10.4746,-17.335 0.2436,-1.612 0.4097,-3.258 0.3543,-4.893 0,0 1e-4,-5.448 -0.011,-5.448 V 32.830164 c -0.1329,-3.5804 -1.3398,-15.5224 -11.0836,-21.1599 -7.3301,-4.67003 -13.8075,-5.03696 -15.6123,-5.03696 -0.1883,0 -0.3211,-10e-6 -0.3987,0.01111 l -3.0228,-0.0556 V 0.111199 H 181.72956 v 6.488745 l -1.938,0.04447 c -0.078,0 -0.199,-0.01111 -0.388,-0.01111 -1.805,0 -8.271,0.36694 -15.656,5.05926 -9.733,5.6374 -10.851,17.624 -10.97301,21.1599 l -0.056,5.0036 -0.011,1.4011 v 3.1022 l 0.133,87.813896 h 125.86501 l 0.13299,-87.802796 c 0,0 0,-4.5032 -0.011,-4.5032 v -4.9592 c -0.122,-3.5916 -1.284,-15.5669 -11.084,-21.2378 -7.33,-4.67003 -13.796,-5.03696 -15.612,-5.03696 -0.188,0 -0.321,-10e-6 -0.387,0.01111 l -1.938,-0.04447 L 249.81755,0 h 142.268 l -0.011,6.588814 -3.056,0.0556 c -0.067,0 -0.19999,-0.01111 -0.399,-0.01111 -1.805,0 -8.271,0.36694 -15.656,5.05926 -9.7,5.6152 -10.896,17.5572 -11.029,21.082 V 326.99426 h -0.022 v 5.493 c -0.022,0.589 -0.41,15.678 11.09501,22.338 7.33,4.67 13.796,5.037 15.601,5.037 0.199,0 0.332,0 0.399,-0.011 l 3.067,0.034 v 6.511 h -49.882 -92.408 l 0.055,-6.645 h 1.916 c 0.055,0 0.166,0.011 0.332,0.011 1.805,0 8.22699,-0.222 15.67899,-4.959 9.024,-5.215 10.685,-15.867 10.984,-20.203 v -0.101 l 0.044,-124.962 h -126.474 l -0.255,123.072 0.12201,3.469 c 0.288,4.337 2.47999,14.266 11.56,19.515 7.33,4.67 13.464,4.258 15.269,4.258 0.199,0 0.332,0 0.398,-0.011 l 1.717,0.022 v 6.511 H 39.693755 Z m 67.217805,-33.464 h 6.514 v -160.017 h 204.36299 v 160.094 h 6.525 V 27.882164 h -6.525 V 166.66126 H 113.42556 V 27.893264 h -6.514 z"
     fill="url(#paint0_linear_29_544)"
     fill-opacity="0.3"
     id="path2"
     style="fill:url(#paint0_linear_29_544)" />
  <path
     d="m 39.693755,366.38526 v -6.511 l 2.8014,-0.023 c 0.0664,0 0.2104,0.011 0.3986,0.011 5.6581,0 11.139,-2.279 15.8891,-5.192 6.1342,-3.77 9.4227,-10.363 10.4746,-17.335 0.2436,-1.612 0.4097,-3.258 0.3543,-4.893 0,0 1e-4,-5.448 -0.011,-5.448 V 32.830164 c -0.1329,-3.5804 -1.3398,-15.5224 -11.0836,-21.1599 -7.3301,-4.67003 -13.8075,-5.03696 -15.6123,-5.03696 -0.1883,0 -0.3211,-10e-6 -0.3987,0.01111 l -3.0228,-0.0556 V 0.111199 H 181.72956 v 6.488745 l -1.938,0.04447 c -0.078,0 -0.199,-0.01111 -0.388,-0.01111 -1.805,0 -8.271,0.36694 -15.656,5.05926 -9.733,5.6374 -10.851,17.624 -10.97301,21.1599 l -0.056,5.0036 -0.011,1.4011 v 3.1022 l 0.133,87.813896 h 125.86501 l 0.13299,-87.802796 c 0,0 0,-4.5032 -0.011,-4.5032 v -4.9592 c -0.122,-3.5916 -1.284,-15.5669 -11.084,-21.2378 -7.33,-4.67003 -13.796,-5.03696 -15.612,-5.03696 -0.188,0 -0.321,-10e-6 -0.387,0.01111 l -1.938,-0.04447 L 249.81755,0 h 142.268 l -0.011,6.588814 -3.056,0.0556 c -0.067,0 -0.19999,-0.01111 -0.399,-0.01111 -1.805,0 -8.271,0.36694 -15.656,5.05926 -9.7,5.6152 -10.896,17.5572 -11.029,21.082 V 326.99426 h -0.022 v 5.493 c -0.022,0.589 -0.41,15.678 11.09501,22.338 7.33,4.67 13.796,5.037 15.601,5.037 0.199,0 0.332,0 0.399,-0.011 l 3.067,0.034 v 6.511 h -49.882 -92.408 l 0.055,-6.645 h 1.916 c 0.055,0 0.166,0.011 0.332,0.011 1.805,0 8.22699,-0.222 15.67899,-4.959 9.024,-5.215 10.685,-15.867 10.984,-20.203 v -0.101 l 0.044,-124.962 h -126.474 l -0.255,123.072 0.12201,3.469 c 0.288,4.337 2.47999,14.266 11.56,19.515 7.33,4.67 13.464,4.258 15.269,4.258 0.199,0 0.332,0 0.398,-0.011 l 1.717,0.022 v 6.511 H 39.693755 Z m 67.217805,-33.464 h 6.514 v -160.017 h 204.36299 v 160.094 h 6.525 V 27.882164 h -6.525 V 166.66126 H 113.42556 V 27.893264 h -6.514 z"
     fill="url(#paint1_linear_29_544)"
     fill-opacity="0.6"
     id="path4"
     style="fill:url(#paint1_linear_29_544)" />
  <path
     d="M 431.54156,390.92226 H 0 v 7.806 h 431.54156 z"
     fill="#ee2d2b"
     id="path6" />
  <path
     d="m 41.344555,364.74626 v -3.236 l 2.8013,-0.022 c 0.0664,0 0.2104,0.011 0.3986,0.011 1.8048,0 8.2823,-0.367 15.6566,-5.059 11.4601,-6.627 11.0615,-21.716 11.0504,-22.361 v -5.448 h -0.0111 V 31.191564 c -0.1328,-3.5804 -1.3398,-15.5224 -11.0836,-21.1598 -7.33,-4.67013 -13.8075,-5.03706 -15.6123,-5.03706 -0.1882,0 -0.3211,-10e-6 -0.3986,0.01111 l -3.0228,-0.0556 V 1.747894 H 180.10555 v 3.21345 l -1.938,0.04447 c -0.077,0 -0.199,-0.01111 -0.387,-0.01111 -1.805,0 -8.271,0.36694 -15.657,5.05926 -9.732,5.6374 -10.862,17.6129 -10.984,21.1599 l -0.044,5.0036 -0.011,1.4011 v 3.1022 l 0.133,91.088496 h 129.128 l 0.133,-91.077396 v -4.5032 h -0.011 v -4.9592 c -0.122,-3.5915 -1.285,-15.5669 -11.084,-21.2377 -7.33,-4.67013 -13.796,-5.03706 -15.612,-5.03706 -0.188,0 -0.321,-10e-6 -0.388,0.01111 l -1.937,-0.04447 -0.012,-3.30241 h 139.005 l 0.011,3.29128 -3.056,0.0556 c -0.066,0 -0.199,-0.01111 -0.398,-0.01111 -1.805,0 -8.271,0.36694 -15.657,5.05926 -9.699,5.6152 -10.895,17.5572 -11.028,21.082 V 328.63126 h -0.022 v 5.493 c -0.022,0.589 -0.41,15.678 11.094,22.338 7.33,4.67 13.797,5.037 15.602,5.037 0.199,0 0.332,0 0.398,-0.011 l 3.067,0.033 v 3.236 h -49.88199 -89.14501 v -3.224 h 1.916 c 0.055,0 0.166,0.011 0.332,0.011 1.805,0 8.282,-0.367 15.723,-5.104 9.024,-5.215 10.685,-15.867 10.984,-20.204 v -0.1 l 0.044,-128.238 h -129.714 l 0.044,128.283 v 0.044 c 0.288,4.337 1.949,14.989 11.02799,20.237 7.33001,4.67 13.796,5.037 15.601,5.037 0.2,0 0.332,0 0.399,-0.011 l 1.927,0.022 v 3.236 z m 63.955005,-30.189 h 9.777 v -160.017 h 201.1 v 160.095 h 9.788 V 26.243564 h -9.788 V 165.02226 h -201.1 V 26.254664 h -9.777 z"
     fill="url(#paint2_linear_29_544)"
     id="path8"
     style="fill:url(#paint2_linear_29_544)" />
  <path
     d="m 41.344555,364.74726 v -3.236 l 2.8013,-0.022 c 0.0664,0 0.2104,0.011 0.3986,0.011 1.8048,0 8.2823,-0.367 15.6566,-5.059 11.4601,-6.627 11.0615,-21.716 11.0504,-22.361 v -5.449 h -0.0111 V 31.192364 c -0.1328,-3.5804 -1.3397,-15.5224 -11.0836,-21.1599 -7.33,-4.67007 -13.8075,-5.037 -15.6123,-5.037 -0.1882,0 -0.3211,-1e-5 -0.3986,0.01111 l -3.0228,-0.0556 V 1.748654 H 180.10555 v 3.21345 l -1.938,0.04447 c -0.077,0 -0.199,-0.01111 -0.387,-0.01111 -1.805,0 -8.271,0.36694 -15.657,5.0593 -9.732,5.6374 -10.851,17.6239 -10.973,21.1598 l -0.055,5.0037 -0.011,1.401 v 3.1023 l 0.133,91.088696 h 129.128 l 0.133,-91.077596 v -4.5033 h -0.011 v -4.9592 c -0.122,-3.5915 -1.285,-15.5669 -11.084,-21.2377 -7.33,-4.67007 -13.796,-5.037 -15.612,-5.037 -0.188,0 -0.321,-1e-5 -0.388,0.01111 l -1.937,-0.04447 0.011,-3.32465 h 139.004 l -0.011,3.31352 -3.056,0.0556 c -0.066,0 -0.199,-0.01111 -0.398,-0.01111 -1.805,0 -8.271,0.36694 -15.657,5.0593 -9.699,5.6152 -10.895,17.5572 -11.028,21.082 V 328.63126 h -0.022 v 5.493 c -0.022,0.59 -0.41,15.678 11.094,22.339 7.331,4.67 13.797,5.037 15.602,5.037 0.199,0 0.332,0 0.398,-0.011 l 3.067,0.033 v 3.236 h -49.881 -89.146 l 0.056,-3.369 h 1.915 c 0.056,0 0.166,0.011 0.333,0.011 1.804,0 8.226,-0.223 15.678,-4.959 9.024,-5.215 10.685,-15.867 10.984,-20.204 v -0.1 l 0.045,-128.238 h -129.726 l 0.044,128.282 v 0.045 c 0.288,4.336 1.949,14.989 11.02799,20.237 7.33001,4.67 13.796,5.037 15.601,5.037 0.2,0 0.332,0 0.399,-0.011 l 1.927,0.022 v 3.236 z m 63.955005,-30.189 h 9.777 v -160.017 h 201.1 v 160.095 h 9.788 V 26.244264 h -9.788 V 165.02326 h -201.1 V 26.255464 h -9.777 z"
     fill="url(#paint3_linear_29_544)"
     id="path10"
     style="fill:url(#paint3_linear_29_544)" />
  <path
     d="m 41.344155,364.74726 v -3.236 l 2.8014,-0.022 c 0.0664,0 0.2103,0.011 0.3986,0.011 5.6581,0 11.139,-2.28 15.8891,-5.193 6.1342,-3.769 9.4227,-10.363 10.4746,-17.335 0.2436,-1.612 0.4097,-3.258 0.3543,-4.892 0,0 0,-5.449 -0.011,-5.449 V 31.192364 c -0.1329,-3.5804 -1.3398,-15.5224 -11.0836,-21.1599 -7.3301,-4.67007 -13.8075,-5.037 -15.6124,-5.037 -0.1882,0 -0.3211,-1e-5 -0.3986,0.01111 l -3.0228,-0.0556 V 1.748654 H 180.11656 v 3.21345 l -1.938,0.04447 c -0.077,0 -0.199,-0.01111 -0.387,-0.01111 -1.805,0 -8.272,0.36694 -15.657,5.0593 -9.733,5.6374 -10.851,17.6239 -10.97301,21.1598 l -0.055,5.0037 -0.011,1.401 v 3.1023 l 0.13301,91.088696 h 129.12799 l 0.133,-91.077596 c 0,0 0,-4.5033 -0.011,-4.5033 v -4.9592 c -0.122,-3.5915 -1.285,-15.5669 -11.084,-21.2377 -7.33,-4.67007 -13.797,-5.037 -15.612,-5.037 -0.189,0 -0.322,-1e-5 -0.388,0.01111 l -1.938,-0.04447 0.011,-3.32465 h 139.005 l -0.011,3.31352 -3.056,0.0556 c -0.066,0 -0.199,-0.01111 -0.398,-0.01111 -1.805,0 -8.272,0.36694 -15.657,5.0593 -9.7,5.6152 -10.895,17.5572 -11.028,21.082 V 328.63126 h -0.022 v 5.493 c -0.023,0.59 -0.41,15.678 11.094,22.339 7.33,4.67 13.797,5.037 15.601,5.037 0.2,0 0.333,0 0.399,-0.011 l 3.067,0.033 v 3.236 h -49.882 -89.145 l 0.056,-3.369 h 1.915 c 0.055,0 0.166,0.011 0.332,0.011 1.805,0 8.227,-0.223 15.679,-4.959 9.024,-5.215 10.685,-15.867 10.984,-20.204 v -0.1 l 0.044,-128.238 h -129.737 l -0.254,126.348 0.12101,3.469 c 0.288,4.336 2.48099,14.266 11.56,19.514 7.33,4.67 13.464,4.259 15.269,4.259 0.199,0 0.332,0 0.399,-0.011 l 1.716,0.022 v 3.236 H 41.344155 Z m 63.955405,-30.189 h 9.777 v -160.017 h 201.09899 v 160.095 h 9.789 V 26.244264 h -9.789 V 165.02326 H 115.07656 V 26.255464 h -9.777 z"
     fill="url(#paint4_linear_29_544)"
     id="path12"
     style="fill:url(#paint4_linear_29_544)" />
  <path
     d="m 41.345155,364.74726 v -3.236 l 2.8013,-0.022 c 0.0665,0 0.2104,0.011 0.3987,0.011 5.658,0 11.1389,-2.28 15.8891,-5.193 6.1341,-3.769 9.4227,-10.363 10.4746,-17.335 0.2436,-1.612 0.4097,-3.258 0.3543,-4.892 0,0 0,-5.449 -0.0111,-5.449 V 31.192364 c -0.1328,-3.5804 -1.3397,-15.5224 -11.0836,-21.1599 -7.33,-4.67007 -13.8075,-5.037 -15.6123,-5.037 -0.1882,0 -0.3211,-1e-5 -0.3986,0.01111 l -3.0228,-0.0556 V 1.748654 H 180.11755 v 3.21345 l -1.938,0.04447 c -0.077,0 -0.199,-0.01111 -0.387,-0.01111 -1.805,0 -8.27199,0.36694 -15.657,5.0593 -9.733,5.6374 -10.851,17.6239 -10.973,21.1598 l -0.055,5.0037 -0.011,1.401 v 3.1023 l 0.133,91.088696 h 129.128 l 0.132,-91.077596 c 0,0 0,-4.5033 -0.011,-4.5033 v -4.9592 c -0.121,-3.5915 -1.284,-15.5669 -11.083,-21.2377 -7.33,-4.67007 -13.797,-5.037 -15.613,-5.037 -0.188,0 -0.321,-1e-5 -0.387,0.01111 l -1.938,-0.04447 0.011,-3.32465 h 139.005 l -0.011,3.31352 -3.056,0.0556 c -0.066,0 -0.199,-0.01111 -0.399,-0.01111 -1.804,0 -8.271,0.36694 -15.656,5.0593 -9.7,5.6152 -10.896,17.5572 -11.028,21.082 V 328.63126 h -0.023 v 5.493 c -0.022,0.59 -0.409,15.678 11.095,22.339 7.33,4.67 13.796,5.037 15.601,5.037 0.2,0 0.333,0 0.399,-0.011 l 3.067,0.033 v 3.236 h -49.882 -89.145 l 0.055,-3.369 h 1.916 c 0.055,0 0.166,0.011 0.332,0.011 1.805,0 8.227,-0.223 15.679,-4.959 9.024,-5.215 10.685,-15.867 10.984,-20.204 v -0.1 l 0.044,-128.238 h -129.737 l -0.255,126.348 0.12201,3.469 c 0.288,4.336 2.481,14.266 11.56,19.514 7.33,4.67 13.464,4.259 15.269,4.259 0.199,0 0.332,0 0.399,-0.011 l 1.716,0.022 v 3.236 H 41.345155 Z m 63.955405,-30.189 h 9.777 v -160.017 h 201.099 v 160.095 h 9.788 V 26.244264 h -9.788 V 165.02326 h -201.099 V 26.255464 h -9.777 z"
     fill="url(#paint5_linear_29_544)"
     id="path14"
     style="fill:url(#paint5_linear_29_544)" />
  <path
     id="path28"
     d="m 413.80372,424.53393 -1.19923,1.99024 c 0.0229,0.65329 -0.19409,1.41384 -0.47656,2.21289 0.2944,0.2696 0.67138,0.54931 0.95703,0.81836 7.32098,-0.86316 14.4042,-1.5734 16.40429,-1.75586 l 0.0859,-0.13477 c -2.0799,-1.22876 -4.67606,-1.85154 -6.73828,-3.13086 z m 12.48046,0 c 1.41804,0.69456 2.69416,1.43929 3.84179,2.25195 l 1.41602,-2.25195 z" />
  <defs
     id="defs104">
    <linearGradient
       id="paint0_linear_29_544"
       x1="74.140297"
       y1="279.983"
       x2="363.13199"
       y2="97.379501"
       gradientUnits="userSpaceOnUse"
       gradientTransform="translate(-0.231445,-0.354736)">
      <stop
         stop-color="#DD972C"
         id="stop34" />
      <stop
         offset="0.264617"
         stop-color="#F8CB45"
         id="stop36" />
      <stop
         offset="0.654677"
         stop-color="#F2AC2F"
         id="stop38" />
      <stop
         offset="1"
         stop-color="#FDDB50"
         id="stop40" />
    </linearGradient>
    <linearGradient
       id="paint1_linear_29_544"
       x1="71.693001"
       y1="170.99699"
       x2="362.74301"
       y2="270.63501"
       gradientUnits="userSpaceOnUse"
       gradientTransform="translate(-0.231445,-0.354736)">
      <stop
         stop-color="#DD972C"
         id="stop43" />
      <stop
         offset="0.264617"
         stop-color="#B55727"
         id="stop45" />
      <stop
         offset="0.485254"
         stop-color="#F2AC2F"
         id="stop47" />
      <stop
         offset="0.825857"
         stop-color="#E5B544"
         id="stop49" />
      <stop
         offset="1"
         stop-color="#FDDB50"
         id="stop51" />
    </linearGradient>
    <linearGradient
       id="paint2_linear_29_544"
       x1="41.358501"
       y1="183.55"
       x2="390.69299"
       y2="183.55"
       gradientUnits="userSpaceOnUse"
       gradientTransform="translate(-0.231445,-0.354736)">
      <stop
         offset="0.2066"
         stop-color="#EE9322"
         id="stop54" />
      <stop
         offset="0.4014"
         stop-color="#F2AC2F"
         id="stop56" />
      <stop
         offset="0.6663"
         stop-color="#F8CB45"
         id="stop58" />
      <stop
         offset="0.8749"
         stop-color="#FCDE54"
         id="stop60" />
      <stop
         offset="1"
         stop-color="#FEE55A"
         id="stop62" />
    </linearGradient>
    <linearGradient
       id="paint3_linear_29_544"
       x1="306.737"
       y1="334.30499"
       x2="214.57201"
       y2="182.23"
       gradientUnits="userSpaceOnUse"
       gradientTransform="translate(-0.231445,-0.354736)">
      <stop
         offset="0.4326"
         stop-color="#B55727"
         id="stop65" />
      <stop
         offset="0.4596"
         stop-color="#BD6829"
         stop-opacity="0.9612"
         id="stop67" />
      <stop
         offset="0.514"
         stop-color="#CB8331"
         stop-opacity="0.8833"
         id="stop69" />
      <stop
         offset="0.5722"
         stop-color="#D89D3A"
         stop-opacity="0.7999"
         id="stop71" />
      <stop
         offset="0.6339"
         stop-color="#E4B442"
         stop-opacity="0.7114"
         id="stop73" />
      <stop
         offset="0.7005"
         stop-color="#EEC749"
         stop-opacity="0.6161"
         id="stop75" />
      <stop
         offset="0.7741"
         stop-color="#F6D54E"
         stop-opacity="0.5105"
         id="stop77" />
      <stop
         offset="0.8605"
         stop-color="#FCDE52"
         stop-opacity="0.3867"
         id="stop79" />
      <stop
         offset="0.9908"
         stop-color="#FEE153"
         stop-opacity="0.2"
         id="stop81" />
    </linearGradient>
    <linearGradient
       id="paint4_linear_29_544"
       x1="216.026"
       y1="313.495"
       x2="216.026"
       y2="182.119"
       gradientUnits="userSpaceOnUse"
       gradientTransform="translate(-0.231445,-0.354736)">
      <stop
         stop-color="#B55727"
         stop-opacity="0.7"
         id="stop84" />
      <stop
         offset="0.144"
         stop-color="#BF6C2A"
         stop-opacity="0.6419"
         id="stop86" />
      <stop
         offset="0.5534"
         stop-color="#DCA43C"
         stop-opacity="0.4766"
         id="stop88" />
      <stop
         offset="0.8458"
         stop-color="#F2CE4C"
         stop-opacity="0.3585"
         id="stop90" />
      <stop
         offset="0.9908"
         stop-color="#FEE153"
         stop-opacity="0.3"
         id="stop92" />
    </linearGradient>
    <linearGradient
       id="paint5_linear_29_544"
       x1="65.166901"
       y1="357.52499"
       x2="151.50999"
       y2="9.5119305"
       gradientUnits="userSpaceOnUse"
       gradientTransform="translate(-0.231445,-0.354736)">
      <stop
         stop-color="#B55727"
         stop-opacity="0.7"
         id="stop95" />
      <stop
         offset="0.418092"
         stop-color="#BF6C2A"
         stop-opacity="0.6419"
         id="stop97" />
      <stop
         offset="0.8458"
         stop-color="#F2CE4C"
         stop-opacity="0.3585"
         id="stop99" />
      <stop
         offset="0.9908"
         stop-color="#FEE153"
         stop-opacity="0.3"
         id="stop101" />
    </linearGradient>
  </defs>
  <g
     id="g728"
     transform="matrix(0.7088271,0,0,0.69213194,-2.7194132,417.79694)">
    <path
       style="fill:#000000;stroke-width:0.48"
       d="m 182.40001,116.13289 c -14.62086,-1.44625 -26.18575,-9.22938 -32.63833,-21.965511 -0.84504,-1.667937 -1.45715,-3.360183 -1.45715,-3.360183 l 18.65956,-9.668548 1.94954,2.78427 c 2.17099,3.100534 6.29369,8.202666 9.88638,9.953533 8.66637,4.223496 20.56819,0.460047 21.82121,-6.900038 1.12035,-6.580776 -2.27174,-10.125509 -13.66121,-14.275978 -17.13659,-6.244785 -20.64331,-8.067432 -26.20581,-13.620691 -6.98524,-6.973627 -9.48528,-15.921807 -7.35915,-26.33998 6.10821,-29.9305405 51.01528,-33.18640811 66.87303,-4.84845 l 1.50604,2.691314 -8.83088,5.108686 -9.14624,4.804163 c 0,0 -1.35039,-2.80165 -2.07018,-4.158873 -6.68527,-12.605578 -26.52681,-10.777894 -26.52681,1.703696 0,5.61161 2.65297,7.664406 17.22788,13.330471 11.23509,4.367693 13.52409,5.412893 17.5312,8.005075 9.17843,5.9375 13.45228,13.692236 13.43876,24.384154 -0.0258,20.43935 -18.01751,34.64602 -40.99784,32.37289 z m 181.71952,-0.0231 c -40.13676,-3.96145 -61.98486,-49.380123 -39.98736,-83.12726 23.13816,-35.4970739 76.53041,-31.8283152 94.67395,6.505361 6.6707,14.093865 6.68041,31.709741 0.0252,45.770961 -9.88163,20.878118 -31.61111,33.130958 -54.71182,30.850938 z M 379.4354,93.379795 c 34.08861,-11.469701 26.26212,-63.132424 -9.59539,-63.33923 -33.78535,-0.194855 -44.34788,46.60871 -13.92,61.680821 7.37706,3.654144 15.81528,4.249248 23.51539,1.658409 z M 3.8957299,114.66427 c 0,0 -0.05573,-23.984268 -0.05573,-52.584272 V 10.08 H 14.874791 25.909582 l 0.125209,20.28 0.12521,20.28 21.000001,0.125045 21,0.125045 V 30.485045 10.08 h 11.040001 11.04 v 52.32 52.32 h -11.04 -11.040001 V 93.36 72 h -21.12 -21.120001 v 21.36 21.36 h -10.72 z M 110.4,62.4 V 10.08 h 11.04 11.04 V 62.4 114.72 H 121.44 110.4 Z m 149.76001,10.32 v -42 h -13.68 -13.68 V 20.4 10.08 h 38.64 38.64 v 10.312639 10.312639 l -13.8,0.127361 -13.8,0.127361 -0.12264,41.88 -0.0166,42.05911 -11.1434,-0.0543 -11.03736,-0.0543 z m 179.04,-62.988739 v 0 l 18.64214,1.032e-4 c 30.10057,1.666e-4 36.3863,1.5860088 45.29237,10.4436458 15.54753,15.462999 9.64249,43.45486 -10.6415,52.418821 l -2.45779,1.086164 14.18237,20.229465 c 7.80034,11.1262 14.00624,20.78427 14.00624,20.78427 l -12.51963,0.0263 h -12.69586 l -12.86414,-19.193674 -12.86419,-19.193701 -3.24,-0.0063 -3.24,-0.0063 v 19.2 19.133175 h -10.80001 l -10.78883,0.0157 0.0972,-50.473414 z M 479.6391,57.122443 C 492.52514,53.14235 492.70254,34.776719 479.89171,30.972305 478.09592,30.439013 475.16665,30.24 469.1129,30.24 h -8.31288 v 13.92 13.92 h 7.86943 c 6.50671,0 8.4063,-0.165816 10.96965,-0.957557 z m 73.28857,57.541827 c 0,0 0.0323,-10.76085 0.0323,-23.198892 V 68.850758 L 536.36483,42.465378 C 527.23749,27.95342 518.91813,14.73 517.87739,13.08 l -1.89225,-3 12.60744,0.0066 12.60744,0.0066 11.50497,19.15684 c 6.32775,10.536262 11.86071,18.936963 11.86071,18.936963 0,0 5.4767,-8.744484 11.73561,-19.163453 L 587.68111,10.08 h 12.38865 12.38861 l -4.47269,7.08 c -2.46,3.894 -10.8791,17.277736 -18.7092,29.741636 L 575.04002,69.56327 V 92.141635 114.72 h -10.71999 z m 34.59235,-5.94427 0.0253,-5.99388 -1.9453,-0.006 -1.92,-0.0135 V 99.84 h 5.52 5.52 l 0.007,2.91398 -2.04693,5.9e-4 -2.19607,-0.004 0.0213,6.08934 -0.0263,5.88 h -1.5338 -1.42522 z m 9.6,-1.46898 v -7.46897 l 1.7447,-0.0028 0.73604,0.01075 3.14133,5.58956 2.65872,4.99591 2.58693,-5.27422 2.39536,-5.316165 c 0,0 0.76415,-0.0069 1.38653,-0.0058 l 1.67039,0.0028 v 7.468975 7.46898 h -1.42262 -1.42263 l -0.0109,-4.54804 0.0363,-4.93755 -2.30436,4.74165 -2.20698,4.64186 -1.57253,-0.004 -2.27094,-4.55089 -2.26621,-4.67935 0.0264,4.6564 0.0283,4.68 h -1.49423 -1.44 v -7.46898 z"
       id="path730"
       sodipodi:nodetypes="ssccssssssscccsssssssssssssssscscccccccccccccccccccccccccccccccccccccccccccccccccccssscscccccccccccccssscccsscscsscccscscccssccccccccccccccccccccccccccccscccccccccccccccccc" />
  </g>
</svg>
