<svg xmlns="http://www.w3.org/2000/svg" xmlns:xlink="http://www.w3.org/1999/xlink" width="128.073" height="60" viewBox="0 0 128.073 60">
  <defs>
    <filter id="Path_91" x="13.764" y="25.427" width="22.765" height="24.865" filterUnits="userSpaceOnUse">
      <feOffset dy="2" input="SourceAlpha"/>
      <feGaussianBlur stdDeviation="2" result="blur"/>
      <feFlood flood-opacity="0.161"/>
      <feComposite operator="in" in2="blur"/>
      <feComposite in="SourceGraphic"/>
    </filter>
    <filter id="Path_92" x="0" y="0" width="50.292" height="46.713" filterUnits="userSpaceOnUse">
      <feOffset dy="2" input="SourceAlpha"/>
      <feGaussianBlur stdDeviation="2" result="blur-2"/>
      <feFlood flood-opacity="0.161"/>
      <feComposite operator="in" in2="blur-2"/>
      <feComposite in="SourceGraphic"/>
    </filter>
    <filter id="Path_93" x="38.896" y="0" width="50.292" height="49.958" filterUnits="userSpaceOnUse">
      <feOffset dy="2" input="SourceAlpha"/>
      <feGaussianBlur stdDeviation="2" result="blur-3"/>
      <feFlood flood-opacity="0.161"/>
      <feComposite operator="in" in2="blur-3"/>
      <feComposite in="SourceGraphic"/>
    </filter>
    <filter id="Path_94" x="77.781" y="0" width="50.292" height="50.097" filterUnits="userSpaceOnUse">
      <feOffset dy="2" input="SourceAlpha"/>
      <feGaussianBlur stdDeviation="2" result="blur-4"/>
      <feFlood flood-opacity="0.161"/>
      <feComposite operator="in" in2="blur-4"/>
      <feComposite in="SourceGraphic"/>
    </filter>
  </defs>
  <g id="Group_81" data-name="Group 81" transform="translate(-895.964 -9)">
    <g transform="matrix(1, 0, 0, 1, 895.96, 9)" filter="url(#Path_91)">
      <path id="Path_91-2" data-name="Path 91" d="M2291.765,3716.325a18.06,18.06,0,0,1-8.765,0V3706h8.765Z" transform="translate(-2262.24 -3675.57)" fill="red" stroke="#fefefe" stroke-width="2" fill-rule="evenodd"/>
    </g>
    <g transform="matrix(1, 0, 0, 1, 895.96, 9)" filter="url(#Path_92)">
      <path id="Path_92-2" data-name="Path 92" d="M1128.14,1539a18.125,18.125,0,0,1,12.355,31.41v-21.519h-7.967v8.894h-8.765v-8.894h-7.979v21.519A18.132,18.132,0,0,1,1128.14,1539Z" transform="translate(-1103 -1534)" fill="red" stroke="#fefefe" stroke-width="2" fill-rule="evenodd"/>
    </g>
    <g transform="matrix(1, 0, 0, 1, 895.96, 9)" filter="url(#Path_93)">
      <path id="Path_93-2" data-name="Path 93" d="M4443.14,1539a18.142,18.142,0,0,1,4.776,35.646v-25.755h-9.551v25.755A18.144,18.144,0,0,1,4443.14,1539Z" transform="translate(-4379.1 -1534)" fill="#fd0" stroke="#fefefe" stroke-width="2" fill-rule="evenodd"/>
    </g>
    <g transform="matrix(1, 0, 0, 1, 895.96, 9)" filter="url(#Path_94)">
      <path id="Path_94-2" data-name="Path 94" d="M7757.151,1539a18.145,18.145,0,0,1,3.99,35.846v-19.583h8.1v-6.641h-24.183v6.641h8.107v19.583a18.144,18.144,0,0,1,3.989-35.846Z" transform="translate(-7654.22 -1534)" fill="blue" stroke="#fefefe" stroke-width="2" fill-rule="evenodd"/>
    </g>
    <path id="Path_95" data-name="Path 95" d="M1142.675,4930.581l-2.089,5.492h4.177Zm-1.8-2.581h3.579l5.4,12.9h-3.227l-1.033-2.652h-5.82l-.986,2.652h-3.25Zm-16.392,8.084h2.992v.528a2.3,2.3,0,0,0-.023.27v.246a2.882,2.882,0,0,0,.305,1.338c.2.387.692.586,1.467.586.81,0,1.3-.2,1.49-.586a3.2,3.2,0,0,0,.293-1.467v-9h3.086v9.117a8.38,8.38,0,0,1-.2,1.819,2.523,2.523,0,0,1-1.115,1.5,4.363,4.363,0,0,1-1.373.575,6.851,6.851,0,0,1-1.549.211,1.277,1.277,0,0,1-.211.012h-.657l-.446-.035h-.188l-.176-.036a6.135,6.135,0,0,1-2.241-.727,2.6,2.6,0,0,1-1.326-1.689,5.385,5.385,0,0,1-.117-.74c-.023-.246-.023-.5-.023-.75v-.293a2.254,2.254,0,0,1,.012-.281v-.6Zm-5.257,4.811V4928h3.086v12.9Zm-13.822,0v-2.241l8.167-8.319h-8V4928h11.757v2.241l-8.19,8.319h8v2.335Zm-5.139,0V4928h3.086v12.9Zm-9.621,0-5.163-12.9h3.4l3.191,9.656,3.262-9.656h3.379l-5.116,12.9Zm-17.166,0V4928h10.9v2.241h-7.85v2.746h7.181v2.206h-7.181v3.32h8.225v2.382Zm-12.109,0V4928h3.086v10.513h7.333v2.382Zm-13.634,0V4928h10.9v2.241h-7.85v2.746h7.181v2.206h-7.181v3.32h8.225v2.382Zm-9.293,0v-10.6H1034V4928h11.968v2.3h-4.435v10.6Z" transform="translate(-131.928 -4872.235)" fill="#222631" fill-rule="evenodd"/>
  </g>
</svg>
