<?xml version="1.0" encoding="UTF-8"?>
<svg id="Layer_2" data-name="Layer 2" xmlns="http://www.w3.org/2000/svg" viewBox="0 0 304.41 204.42">
  <defs>
    <style>
      .cls-1 {
        fill: #ffd500;
      }

      .cls-2 {
        fill: #07519f;
      }

      .cls-3 {
        fill: #09508f;
      }
    </style>
  </defs>
  <g id="Layer_1-2" data-name="Layer 1">
    <g id="Artwork_5" data-name="Artwork 5">
      <g>
        <g>
          <path class="cls-3" d="m221.52,3.33C219.1,1.41,215.93,0,211.82,0H59.95s-12.52-.69-9.62,12.59l25.8,118.14s2.9,13.29,15.2,10.59l28.35-8.37.12-1.46c1.74-22.36-.21-28.61-2.62-39.64-4.6-21.04-32.37-52.16-34.87-54.39-2.42-2.18-3.3-7.31,5.61-2.84,36.74,18.46,61.89,52.15,64.26,52.07,3.63-.11,48.57-61.82,66.5-80.71,1-1.06,1.96-1.94,2.86-2.64"/>
          <path class="cls-2" d="m117.17,91.84c-4.6-21.04-32.38-52.16-34.87-54.39-2.43-2.18-3.3-7.32,5.61-2.84,36.74,18.46,61.89,52.15,64.26,52.07,3.63-.11,48.57-61.82,66.5-80.71,1-1.06,1.96-1.94,2.86-2.64C219.1,1.41,215.93,0,211.82,0H59.95s-12.52-.69-9.62,12.59l25.8,118.14s2.9,13.29,15.19,10.59l28.35-8.37.12-1.46c1.74-22.36-.21-28.61-2.62-39.64"/>
          <path class="cls-1" d="m226.12,8.73c-22.49,44.88-36.13,74.55-38.5,104.14l-67.95,20.07.12-1.46c1.74-22.36-.21-28.61-2.62-39.64-4.6-21.04-32.38-52.16-34.87-54.39-2.42-2.18-3.3-7.32,5.61-2.84,36.74,18.46,61.89,52.15,64.26,52.07,3.63-.11,48.57-61.82,66.5-80.71,1-1.06,1.96-1.94,2.86-2.64,2.89,2.44,4.6,5.4,4.6,5.4"/>
          <path class="cls-1" d="m150.75,17.51c13.63.03,24.67,11.25,24.64,25.08-.03,13.82-11.1,24.99-24.74,24.97-13.64-.03-24.67-11.25-24.64-25.07.02-13.82,11.1-25,24.74-24.98"/>
          <path class="cls-2" d="m228.31,13.65s-.62-2.25-2.19-4.92c-22.49,44.88-36.13,74.55-38.5,104.14l55.4-16.35s12.29-2.71,8.33-15.66l-23.03-67.22Z"/>
        </g>
        <polygon class="cls-2" points="21.13 157.06 21.13 171.28 8.38 171.28 8.38 157.06 0 157.06 0 194 8.38 194 8.38 178.59 21.13 178.59 21.13 194 29.46 194 29.46 157.06 21.13 157.06"/>
        <g>
          <path class="cls-2" d="m47.84,187.94c3.4,0,5.16-3.12,5.16-7.99s-1.76-7.99-5.16-7.99-5.16,3.12-5.16,7.99,1.7,7.99,5.16,7.99m0-22.72c7.08,0,13.65,5.38,13.65,14.73s-6.57,14.73-13.65,14.73-13.71-5.38-13.71-14.73,6.57-14.73,13.71-14.73"/>
          <path class="cls-2" d="m78.33,187.88c2.89,0,5.21-2.49,5.21-8.27,0-5.04-1.53-7.59-4.87-7.59-1.7,0-3.17.79-4.82,2.55v11.5c1.47,1.36,3.06,1.81,4.47,1.81m-4.47,8.33v8.21h-8.32v-38.52h6.8l.56,2.78h.23c2.21-1.98,5.04-3.46,7.98-3.46,6.8,0,10.99,5.61,10.99,14.28,0,9.63-5.78,15.18-11.84,15.18-2.44,0-4.71-1.07-6.68-2.94l.28,4.47Z"/>
          <path class="cls-2" d="m112.79,177.06c0-3.23-1.36-5.5-4.7-5.5-2.61,0-4.88,1.75-5.44,5.5h10.14Zm-4.87-11.84c7.99,0,11.95,5.83,11.95,13.48,0,1.47-.17,2.83-.34,3.51h-16.83c.74,4.25,3.57,6.12,7.31,6.12,2.1,0,4.02-.62,6.06-1.87l2.78,5.04c-2.89,1.98-6.63,3.17-9.97,3.17-8.04,0-14.22-5.44-14.22-14.73s6.51-14.73,13.26-14.73"/>
          <path class="cls-2" d="m139.67,156.16c4.42,0,7.93,2.15,10.14,4.59l-2.67,3c-1.98-2.1-4.36-3.46-7.42-3.46-7.09,0-11.78,5.78-11.78,15.01s4.47,15.24,11.55,15.24c3.52,0,6.12-1.47,8.5-4.13l2.66,2.89c-2.89,3.4-6.57,5.38-11.27,5.38-9.35,0-16.32-7.14-16.32-19.26s7.08-19.26,16.6-19.26"/>
          <path class="cls-2" d="m155.32,153.66h4.65v10.99l-.17,5.66c2.61-2.49,5.39-4.53,9.18-4.53,5.78,0,8.39,3.74,8.39,10.76v17.45h-4.65v-16.83c0-5.15-1.59-7.36-5.21-7.36-2.83,0-4.76,1.47-7.54,4.25v19.94h-4.65v-40.34Z"/>
          <path class="cls-2" d="m192.5,190.94c2.66,0,4.87-1.3,7.53-3.68v-7.65c-9.23,1.13-12.35,3.4-12.35,6.91,0,3.12,2.09,4.42,4.81,4.42m7.53-14.39c0-3.51-1.19-6.91-5.66-6.91-3.23,0-6.06,1.47-8.21,2.94l-1.87-3.23c2.55-1.64,6.4-3.57,10.82-3.57,6.74,0,9.57,4.48,9.57,11.33v16.88h-3.85l-.4-3.29h-.12c-2.66,2.15-5.72,3.97-9.12,3.97-4.65,0-8.1-2.89-8.1-7.82,0-6.01,5.21-9.01,16.94-10.31"/>
          <path class="cls-2" d="m211.79,166.47h3.85l.39,3.96h.17c2.6-2.6,5.44-4.65,9.24-4.65,5.78,0,8.38,3.74,8.38,10.77v17.45h-4.65v-16.83c0-5.15-1.58-7.36-5.21-7.36-2.83,0-4.76,1.47-7.54,4.25v19.94h-4.64v-27.53Z"/>
          <path class="cls-2" d="m241.09,166.47h3.85l.4,3.96h.17c2.6-2.6,5.44-4.65,9.24-4.65,5.78,0,8.38,3.74,8.38,10.77v17.45h-4.65v-16.83c0-5.15-1.58-7.36-5.21-7.36-2.83,0-4.76,1.47-7.53,4.25v19.94h-4.65v-27.53Z"/>
          <path class="cls-2" d="m287.62,178.2c0-5.61-2.5-8.73-6.8-8.73-3.86,0-7.37,3.17-7.93,8.73h14.73Zm-6.91-12.41c7.03,0,10.99,5.04,10.99,12.92,0,.96-.06,1.87-.17,2.55h-18.58c.34,5.95,3.91,9.69,9.18,9.69,2.61,0,4.81-.85,6.86-2.15l1.64,3.06c-2.38,1.53-5.32,2.83-9.06,2.83-7.37,0-13.2-5.38-13.2-14.39s6.06-14.5,12.35-14.5"/>
          <path class="cls-2" d="m296.82,153.66h4.64v35.12c0,1.47.63,2.04,1.31,2.04.28,0,.5,0,1.01-.12l.63,3.51c-.63.28-1.42.45-2.66.45-3.51,0-4.93-2.21-4.93-6.23v-34.78Z"/>
        </g>
      </g>
    </g>
  </g>
</svg>