<svg xmlns="http://www.w3.org/2000/svg" width="828" height="222" viewBox="0 0 828 222"><g fill="none"><path fill="#1D4A8B" d="M157.669921,105.700175 C136.32066,105.65188 119.070194,88.0939762 119.109941,66.4864865 C119.149827,44.862921 136.488348,27.3609003 157.821529,27.4006394 C179.163133,27.4489348 196.429679,45.0068383 196.381541,66.638059 C196.333201,88.2539693 179.011525,105.739914 157.669921,105.700175 Z"/><path fill="#1D4A8B" d="M268.570916 5.20989344C264.792184 2.20600378 259.830445-5.85122228e-15 253.397795-5.85122228e-15L15.735085.00973481883C15.735085.00973481883-3.85612752-1.07653415.682179246 19.7003693L41.0476116 204.529149C41.0476116 204.529149 45.5859184 225.322128 64.8256744 221.096473L109.186532 207.995411 109.377957 205.711107C112.094662 170.731562 109.051003 160.945956 105.271505 143.691197 98.0723894 110.772424 54.6066358 62.0931831 50.7076889 58.5947693 46.9121116 55.1836245 45.5376792 47.1472245 59.4803193 54.1448176 116.984426 83.021659 156.335305 135.727521 160.03517 135.615756 165.715901 135.439687 236.043959 38.8957141 264.096928 9.34751413 265.662786 7.68634172 267.16509 6.31989344 268.570916 5.20989344ZM315.235001 126.51299 279.208027 21.350059C279.208027 21.350059 278.241713 17.8271486 275.772329 13.6573762 240.584563 83.8729141 219.235302 130.283162 215.520124 176.590831L302.211201 151.004183C302.211201 151.004183 321.4433 146.770873 315.235001 126.51299"/><path fill="#FFD400" d="M157.669921,105.700175 C179.011525,105.739914 196.333201,88.2539693 196.381541,66.638059 C196.429679,45.0068383 179.163133,27.4489348 157.821529,27.4006394 C136.488348,27.3609003 119.149827,44.862921 119.109941,66.4864865 C119.070194,88.0939762 136.32066,105.65188 157.669921,105.700175 Z"/><path fill="#FFD400" d="M264.096928,9.34751413 C236.043959,38.8957141 165.715901,135.439687 160.03517,135.615756 C156.335305,135.727521 116.984426,83.021659 59.4803193,54.1448176 C45.5376792,47.1472245 46.9121116,55.1836245 50.7076889,58.5947693 C54.6066358,62.0931831 98.0723894,110.772424 105.271505,143.691197 C109.051003,160.945956 112.094662,170.731562 109.377957,205.711107 L109.186532,207.995411 L215.520124,176.590831 C219.235302,130.283162 240.584563,83.8729141 275.772329,13.6573762 C273.47293,9.0887693 268.570916,5.20989344 268.570916,5.20989344 C267.16509,6.31989344 265.662786,7.68634172 264.096928,9.34751413 Z"/><path fill="#1D4A8B" d="M0 23.38 0 .42 3.01.42 11.305 14.84 13.79 19.6 13.93 19.6C13.86 18.4333333 13.7841667 17.2258333 13.7025 15.9775 13.6208333 14.7291667 13.58 13.4983333 13.58 12.285L13.58.42 16.345.42 16.345 23.38 13.335 23.38 5.005 8.925 2.52 4.2 2.38 4.2C2.47333333 5.34333333 2.56083333 6.52166667 2.6425 7.735 2.72416667 8.94833333 2.765 10.1616667 2.765 11.375L2.765 23.38 0 23.38ZM30.222584 23.8C28.3092507 23.8 26.6117507 23.31 25.130084 22.33 23.6484173 21.35 22.4934173 19.9616667 21.665084 18.165 20.8367507 16.3683333 20.422584 14.245 20.422584 11.795 20.422584 9.345 20.8367507 7.23916667 21.665084 5.4775 22.4934173 3.71583333 23.6484173 2.3625 25.130084 1.4175 26.6117507.4725 28.3092507 0 30.222584 0 32.1592507 0 33.862584.4725 35.332584 1.4175 36.802584 2.3625 37.957584 3.71583333 38.797584 5.4775 39.637584 7.23916667 40.057584 9.345 40.057584 11.795 40.057584 14.245 39.637584 16.3683333 38.797584 18.165 37.957584 19.9616667 36.802584 21.35 35.332584 22.33 33.862584 23.31 32.1592507 23.8 30.222584 23.8ZM30.222584 21.245C31.5992507 21.245 32.795084 20.8541667 33.810084 20.0725 34.825084 19.2908333 35.612584 18.1941667 36.172584 16.7825 36.732584 15.3708333 37.012584 13.7083333 37.012584 11.795 37.012584 8.94833333 36.3942507 6.69666667 35.157584 5.04 33.9209173 3.38333333 32.2759173 2.555 30.222584 2.555 28.1692507 2.555 26.5242507 3.38333333 25.287584 5.04 24.0509173 6.69666667 23.432584 8.94833333 23.432584 11.795 23.432584 13.7083333 23.712584 15.3708333 24.272584 16.7825 24.832584 18.1941667 25.6259173 19.2908333 26.652584 20.0725 27.6792507 20.8541667 28.8692507 21.245 30.222584 21.245ZM44.100168 23.38 44.100168.42 51.275168.42C52.8385013.42 54.2268347.624166667 55.440168 1.0325 56.6535013 1.44083333 57.6043347 2.1175 58.292668 3.0625 58.9810013 4.0075 59.325168 5.27333333 59.325168 6.86 59.325168 8.63333333 58.8585013 10.0625 57.925168 11.1475 56.9918347 12.2325 55.7318347 12.9733333 54.145168 13.37L59.990168 23.38 56.700168 23.38 51.170168 13.685 47.005168 13.685 47.005168 23.38 44.100168 23.38ZM47.005168 11.305 50.855168 11.305C52.6518347 11.305 54.0285013 10.9375 54.985168 10.2025 55.9418347 9.4675 56.420168 8.35333333 56.420168 6.86 56.420168 5.34333333 55.9418347 4.28166667 54.985168 3.675 54.0285013 3.06833333 52.6518347 2.765 50.855168 2.765L47.005168 2.765 47.005168 11.305ZM65.852752 23.38 60.987752.42 63.997752.42 66.412752 12.915C66.622752 14.1516667 66.8444187 15.3883333 67.077752 16.625 67.3110853 17.8616667 67.532752 19.0983333 67.742752 20.335L67.882752 20.335C68.1394187 19.0983333 68.407752 17.8558333 68.687752 16.6075 68.967752 15.3591667 69.2360853 14.1283333 69.492752 12.915L72.677752.42 75.337752.42 78.522752 12.915C78.802752 14.1283333 79.082752 15.3591667 79.362752 16.6075 79.642752 17.8558333 79.922752 19.0983333 80.202752 20.335L80.342752 20.335C80.552752 19.0983333 80.762752 17.8558333 80.972752 16.6075 81.182752 15.3591667 81.4044187 14.1283333 81.637752 12.915L84.052752.42 86.852752.42 82.092752 23.38 78.592752 23.38 75.127752 9.555C74.917752 8.66833333 74.725252 7.79916667 74.550252 6.9475 74.375252 6.09583333 74.1944187 5.22666667 74.007752 4.34L73.867752 4.34C73.7044187 5.22666667 73.517752 6.09583333 73.307752 6.9475 73.097752 7.79916667 72.8994187 8.66833333 72.712752 9.555L69.317752 23.38 65.852752 23.38ZM93.905336 10.535 92.820336 14.035 99.715336 14.035 98.630336 10.535C98.210336 9.25166667 97.8136693 7.97416667 97.440336 6.7025 97.0670027 5.43083333 96.6936693 4.13 96.320336 2.8L96.180336 2.8C95.830336 4.13 95.4686693 5.43083333 95.095336 6.7025 94.7220027 7.97416667 94.325336 9.25166667 93.905336 10.535ZM86.905336 23.38 94.675336.42 97.965336.42 105.735336 23.38 102.620336 23.38 100.450336 16.38 92.085336 16.38 89.880336 23.38 86.905336 23.38ZM111.31792 23.38 111.31792 14.49 104.42292.42 107.53792.42 110.51292 6.895C110.886253 7.735 111.253753 8.56333333 111.61542 9.38 111.977087 10.1966667 112.344587 11.0366667 112.71792 11.9L112.85792 11.9C113.254587 11.0366667 113.651253 10.1966667 114.04792 9.38 114.444587 8.56333333 114.81792 7.735 115.16792 6.895L118.10792.42 121.15292.42 114.25792 14.49 114.25792 23.38 111.31792 23.38Z" transform="translate(706.774 141.62)"/><g fill="#1D4A8B" transform="translate(353.776 66.344)"><polygon points="0 62.656 12.936 62.656 12.936 38.72 32.736 38.72 32.736 62.656 45.76 62.656 45.76 5.28 32.736 5.28 32.736 27.368 12.936 27.368 12.936 5.28 0 5.28"/><path d="M74.276211 63.712C85.276211 63.712 95.484211 55.352 95.484211 40.832 95.484211 26.312 85.276211 17.952 74.276211 17.952 63.188211 17.952 52.980211 26.312 52.980211 40.832 52.980211 55.352 63.188211 63.712 74.276211 63.712ZM74.276211 53.24C68.908211 53.24 66.268211 48.4 66.268211 40.832 66.268211 33.264 68.908211 28.424 74.276211 28.424 79.556211 28.424 82.284211 33.264 82.284211 40.832 82.284211 48.4 79.556211 53.24 74.276211 53.24ZM101.648422 78.848 114.584422 78.848 114.584422 66.088 114.144422 59.136C117.224422 62.04 120.744422 63.712 124.528422 63.712 133.944422 63.712 142.920422 55.088 142.920422 40.128 142.920422 26.664 136.408422 17.952 125.848422 17.952 121.272422 17.952 116.872422 20.24 113.440422 23.32L113.088422 23.32 112.208422 19.008 101.648422 19.008 101.648422 78.848ZM121.536422 53.152C119.336422 53.152 116.872422 52.448 114.584422 50.336L114.584422 32.472C117.136422 29.744 119.424422 28.512 122.064422 28.512 127.256422 28.512 129.632422 32.472 129.632422 40.304 129.632422 49.28 126.024422 53.152 121.536422 53.152ZM168.884633 63.712C174.076633 63.712 179.884633 61.864 184.372633 58.784L180.060633 50.952C176.892633 52.888 173.900633 53.856 170.644633 53.856 164.836633 53.856 160.436633 50.952 159.292633 44.616L185.428633 44.616C185.692633 43.56 185.956633 41.184 185.956633 38.896 185.956633 27.016 179.796633 17.952 167.388633 17.952 156.916633 17.952 146.796633 26.664 146.796633 40.832 146.796633 55.264 156.388633 63.712 168.884633 63.712ZM159.204633 36.08C160.084633 30.536 163.604633 27.808 167.652633 27.808 172.844633 27.808 174.956633 31.24 174.956633 36.08L159.204633 36.08ZM216.232844 63.712C223.712844 63.712 229.344844 60.632 233.920844 55.352L229.872844 50.776C226.176844 54.824 222.040844 57.288 216.496844 57.288 205.584844 57.288 198.632844 48.136 198.632844 33.616 198.632844 19.272 205.848844 10.296 216.760844 10.296 221.688844 10.296 225.472844 12.496 228.552844 15.752L232.512844 11C229.168844 7.216 223.712844 3.872 216.672844 3.872 201.976844 3.872 191.064844 15.224 191.064844 33.792 191.064844 52.624 201.800844 63.712 216.232844 63.712ZM241.229055 62.656 248.445055 62.656 248.445055 31.68C252.757055 27.368 255.749055 25.08 260.149055 25.08 265.781055 25.08 268.245055 28.512 268.245055 36.52L268.245055 62.656 275.461055 62.656 275.461055 35.552C275.461055 24.64 271.413055 18.832 262.437055 18.832 256.541055 18.832 252.229055 22 248.181055 25.872L248.445055 17.072 248.445055 0 241.229055 0 241.229055 62.656ZM296.233266 63.712C301.601266 63.712 306.353266 60.896 310.401266 57.552L310.665266 57.552 311.281266 62.656 317.265266 62.656 317.265266 36.432C317.265266 25.784 312.865266 18.832 302.393266 18.832 295.529266 18.832 289.545266 21.824 285.585266 24.376L288.401266 29.392C291.745266 27.104 296.233266 24.816 301.161266 24.816 308.201266 24.816 309.961266 30.096 309.961266 35.552 291.745266 37.576 283.737266 42.24 283.737266 51.568 283.737266 59.224 289.105266 63.712 296.233266 63.712ZM298.345266 57.904C294.121266 57.904 290.777266 55.88 290.777266 51.04 290.777266 45.584 295.705266 42.064 309.961266 40.304L309.961266 52.184C305.825266 55.88 302.481266 57.904 298.345266 57.904ZM328.005477 62.656 335.221477 62.656 335.221477 31.68C339.533477 27.368 342.525477 25.08 346.925477 25.08 352.557477 25.08 355.021477 28.512 355.021477 36.52L355.021477 62.656 362.237477 62.656 362.237477 35.552C362.237477 24.64 358.189477 18.832 349.213477 18.832 343.317477 18.832 338.917477 22 334.869477 26.048L334.605477 26.048 333.989477 19.888 328.005477 19.888 328.005477 62.656ZM373.417688 62.656 380.633688 62.656 380.633688 31.68C384.945688 27.368 387.937688 25.08 392.337688 25.08 397.969688 25.08 400.433688 28.512 400.433688 36.52L400.433688 62.656 407.649688 62.656 407.649688 35.552C407.649688 24.64 403.601688 18.832 394.625688 18.832 388.729688 18.832 384.329688 22 380.281688 26.048L380.017688 26.048 379.401688 19.888 373.417688 19.888 373.417688 62.656ZM436.165899 63.712C441.973899 63.712 446.549899 61.688 450.245899 59.312L447.693899 54.56C444.525899 56.584 441.093899 57.904 437.045899 57.904 428.861899 57.904 423.317899 52.096 422.789899 43.032L451.653899 43.032C451.829899 41.976 451.917899 40.392 451.917899 38.896 451.917899 26.664 445.757899 18.832 434.845899 18.832 425.077899 18.832 415.661899 27.368 415.661899 41.36 415.661899 55.352 424.725899 63.712 436.165899 63.712ZM422.701899 37.84C423.581899 29.392 429.037899 24.552 435.021899 24.552 441.709899 24.552 445.581899 29.216 445.581899 37.84L422.701899 37.84ZM467.41011 63.712C469.34611 63.712 470.57811 63.448 471.54611 63.008L470.57811 57.552C469.78611 57.728 469.43411 57.728 468.99411 57.728 467.93811 57.728 466.97011 56.848 466.97011 54.56L466.97011 0 459.75411 0 459.75411 54.032C459.75411 60.28 461.95411 63.712 467.41011 63.712Z"/></g></g></svg>