<svg height="222" viewBox="0 0 831 222" width="831" xmlns="http://www.w3.org/2000/svg"><g fill="none"><path d="m157.669921 105.700175c-21.349261-.048295-38.599727-17.6061988-38.55998-39.2136885.039886-21.6235655 17.378407-39.1255862 38.711588-39.0858471 21.341604.0482954 38.60815 17.6061989 38.560012 39.2374196-.04834 21.6159103-17.370016 39.101855-38.71162 39.062116z" fill="#1d4a8b"/><path d="m268.570916 5.20989344c-3.778732-3.00388966-8.740471-5.20989344-15.173121-5.20989344l-237.66271.00973482s-19.59121252-1.08626897-15.05290575 19.69063448l40.36543235 184.8287797s4.5383068 20.792979 23.7780628 16.567324l44.3608576-13.101062.191425-2.284304c2.716705-34.979545-.326954-44.765151-4.106452-62.01991-7.1991156-32.918773-50.6648692-81.5980139-54.5638161-85.0964277-3.7955773-3.4111448-5.1700097-11.4475448 8.7726304-4.4499517 57.5041067 28.8768414 96.8549857 81.5827034 100.5548507 81.4709384 5.680731-.176069 76.008789-96.7200419 104.061758-126.26824187 1.565858-1.66117241 3.068162-3.02762069 4.473988-4.13762069zm46.664085 121.30309656-36.026974-105.162931s-.966314-3.5229104-3.435698-7.6926828c-35.187766 70.2155379-56.537027 116.6257858-60.252205 162.9334548l86.691077-25.586648s19.232099-4.23331 13.0238-24.491193" fill="#1d4a8b"/><path d="m157.669921 105.700175c21.341604.039739 38.66328-17.4462057 38.71162-39.062116.048138-21.6312207-17.218408-39.1891242-38.560012-39.2374196-21.333181-.0397391-38.671702 17.4622816-38.711588 39.0858471-.039747 21.6074897 17.210719 39.1653935 38.55998 39.2136885z" fill="#ffd400"/><path d="m264.096928 9.34751413c-28.052969 29.54819997-98.381027 126.09217287-104.061758 126.26824187-3.699865.111765-43.050744-52.594097-100.5548507-81.4709384-13.9426401-6.9975931-12.5682077 1.0388069-8.7726304 4.4499517 3.8989469 3.4984138 47.3647005 52.1776547 54.5638161 85.0964277 3.779498 17.254759 6.823157 27.040365 4.106452 62.01991l-.191425 2.284304 106.333592-31.40458c3.715178-46.307669 25.064439-92.7179169 60.252205-162.9334548-2.299399-4.5686069-7.201413-8.44748276-7.201413-8.44748276-1.405826 1.11-2.90813 2.47644828-4.473988 4.13762069z" fill="#ffd400"/><g fill="#1d4a8b"><g transform="translate(643.959 139.263)"><path d="m15.0390625 15.4492188-3.8110352-11.09130864-4.05029293 11.09130864zm-5.58837891-14.81689458h3.84521481l9.1088868 25.10498048h-3.725586l-2.5463867-7.5195313h-9.92919922l-2.71728516 7.5195313h-3.48632812zm18.84635351 0v15.51757808c0 1.8229167.3417969 3.3382162 1.0253906 4.5458985 1.0139974 1.8229166 2.7229818 2.734375 5.1269532 2.734375 2.882487 0 4.8421224-.9855143 5.8789062-2.956543.5582683-1.0709635.8374024-2.512207.8374024-4.3237305v-15.51757808h3.4521484v14.09912108c0 3.0875651-.4158529 5.4630534-1.2475586 7.1264649-1.5266927 3.0305989-4.4091797 4.5458984-8.6474609 4.5458984-4.2382813 0-7.1150716-1.5152995-8.6303711-4.5458984-.8317057-1.6634115-1.2475586-4.0388998-1.2475586-7.1264649v-14.09912108zm22.9137364 17.00439458c.0797526 1.4241536.4158528 2.5805664 1.0083007 3.4692382 1.1279297 1.6634115 3.1160482 2.4951172 5.9643555 2.4951172 1.2760417 0 2.4381511-.1822916 3.4863281-.546875 2.0279948-.7063802 3.0419922-1.9710286 3.0419922-3.7939453 0-1.3671875-.4272461-2.3413086-1.2817383-2.9223633-.8658854-.5696614-2.2216796-1.0652669-4.0673828-1.4868164l-3.4008789-.769043c-2.2216797-.501302-3.7939453-1.0538736-4.7167968-1.6577148-1.5950521-1.0481771-2.3925782-2.61474609-2.3925782-4.69970702 0-2.25585938.7804362-4.10725912 2.3413086-5.55419922 1.5608724-1.44694011 3.7711589-2.17041016 6.6308594-2.17041016 2.6318359 0 4.8677572.63517253 6.7077637 1.90551758s2.7600097 3.30118815 2.7600097 6.0925293h-3.1958007c-.1708985-1.34440105-.5354818-2.37548829-1.09375-3.09326172-1.0367839-1.31022136-2.7970378-1.96533204-5.2807618-1.96533204-2.0052083 0-3.4464518.42154948-4.3237304 1.26464844-.8772787.84309896-1.315918 1.82291667-1.315918 2.93945313 0 1.23046875.5126953 2.13053385 1.5380859 2.70019531.6722006.3645833 2.1931967.8203125 4.5629883 1.3671875l3.5205078.8032227c1.6975912.3873697 3.0078125.9171549 3.9306641 1.5893554 1.5950521 1.1735026 2.3925781 2.8767904 2.3925781 5.1098633 0 2.7799479-1.0111491 4.7680664-3.0334472 5.9643555-2.0222982 1.196289-4.3721517 1.7944336-7.0495606 1.7944336-3.1217448 0-5.5655924-.7975261-7.331543-2.3925782-1.7659505-1.5836588-2.6318359-3.7312825-2.5976562-6.442871z"/><path d="m89.71.632v2.991h-8.459v22.114h-3.452v-22.114h-8.46v-2.991z"/><path d="m103.600746 12.1337891c1.595052 0 2.856852-.3190105 3.785401-.9570313.928548-.6380208 1.392822-1.78873697 1.392822-3.45214842 0-1.78873698-.649414-3.0078125-1.948242-3.65722657-.694987-.34179687-1.623536-.51269531-2.785645-.51269531h-8.305664v8.5791016zm-11.2622069-11.50146488h11.6210939c1.914062 0 3.492025.27913411 4.733887.83740234 2.358398 1.07096354 3.537597 3.0476888 3.537597 5.93017578 0 1.50390625-.310465 2.73437496-.931396 3.69140626-.620931.9570312-1.489665 1.7260742-2.606201 2.3071289.979817.398763 1.717529.9228516 2.213134 1.5722656.495606.6494141.771892 1.7032878.828858 3.1616211l.119629 3.3666992c.034179.9570313.113932 1.6691081.239257 2.1362305.205079.797526.569662 1.3102214 1.09375 1.5380859v.5639649h-4.169921c-.113933-.2164714-.205079-.4956055-.273438-.8374024-.068359-.3417968-.125325-1.0026041-.170898-1.9824218l-.205078-4.1870117c-.079753-1.640625-.689291-2.7400717-1.828614-3.2983399-.649414-.3076172-1.669108-.4614258-3.059082-.4614258h-7.741699v10.7666016h-3.4008789zm36.8590489 14.81689458-3.811035-11.09130864-4.050293 11.09130864zm-5.588379-14.81689458h3.845215l9.108887 25.10498048h-3.725586l-2.546387-7.5195313h-9.929199l-2.717285 7.5195313h-3.486329z"/><path d="m138.764.632h3.401v22.115h12.715v2.99h-16.116z"/><path d="m158.106.632h3.435v25.105h-3.435z"/><path d="m179.05452 15.4492188-3.811036-11.09130864-4.050292 11.09130864zm-5.588379-14.81689458h3.845215l9.108886 25.10498048h-3.725586l-2.546386-7.5195313h-9.9292l-2.717285 7.5195313h-3.486328z"/></g><g transform="translate(353.776 66.344)"><path d="m0 62.656h12.936v-23.936h19.8v23.936h13.024v-57.376h-13.024v22.088h-19.8v-22.088h-12.936z"/><path d="m74.276211 63.712c11 0 21.208-8.36 21.208-22.88s-10.208-22.88-21.208-22.88c-11.088 0-21.296 8.36-21.296 22.88s10.208 22.88 21.296 22.88zm0-10.472c-5.368 0-8.008-4.84-8.008-12.408s2.64-12.408 8.008-12.408c5.28 0 8.008 4.84 8.008 12.408s-2.728 12.408-8.008 12.408zm27.372211 25.608h12.936v-12.76l-.44-6.952c3.08 2.904 6.6 4.576 10.384 4.576 9.416 0 18.392-8.624 18.392-23.584 0-13.464-6.512-22.176-17.072-22.176-4.576 0-8.976 2.288-12.408 5.368h-.352l-.88-4.312h-10.56zm19.888-25.696c-2.2 0-4.664-.704-6.952-2.816v-17.864c2.552-2.728 4.84-3.96 7.48-3.96 5.192 0 7.568 3.96 7.568 11.792 0 8.976-3.608 12.848-8.096 12.848zm47.348211 10.56c5.192 0 11-1.848 15.488-4.928l-4.312-7.832c-3.168 1.936-6.16 2.904-9.416 2.904-5.808 0-10.208-2.904-11.352-9.24h26.136c.264-1.056.528-3.432.528-5.72 0-11.88-6.16-20.944-18.568-20.944-10.472 0-20.592 8.712-20.592 22.88 0 14.432 9.592 22.88 22.088 22.88zm-9.68-27.632c.88-5.544 4.4-8.272 8.448-8.272 5.192 0 7.304 3.432 7.304 8.272zm57.028211 27.632c7.48 0 13.112-3.08 17.688-8.36l-4.048-4.576c-3.696 4.048-7.832 6.512-13.376 6.512-10.912 0-17.864-9.152-17.864-23.672 0-14.344 7.216-23.32 18.128-23.32 4.928 0 8.712 2.2 11.792 5.456l3.96-4.752c-3.344-3.784-8.8-7.128-15.84-7.128-14.696 0-25.608 11.352-25.608 29.92 0 18.832 10.736 29.92 25.168 29.92zm24.996211-1.056h7.216v-30.976c4.312-4.312 7.304-6.6 11.704-6.6 5.632 0 8.096 3.432 8.096 11.44v26.136h7.216v-27.104c0-10.912-4.048-16.72-13.024-16.72-5.896 0-10.208 3.168-14.256 7.04l.264-8.8v-17.072h-7.216zm55.004211 1.056c5.368 0 10.12-2.816 14.168-6.16h.264l.616 5.104h5.984v-26.224c0-10.648-4.4-17.6-14.872-17.6-6.864 0-12.848 2.992-16.808 5.544l2.816 5.016c3.344-2.288 7.832-4.576 12.76-4.576 7.04 0 8.8 5.28 8.8 10.736-18.216 2.024-26.224 6.688-26.224 16.016 0 7.656 5.368 12.144 12.496 12.144zm2.112-5.808c-4.224 0-7.568-2.024-7.568-6.864 0-5.456 4.928-8.976 19.184-10.736v11.88c-4.136 3.696-7.48 5.72-11.616 5.72zm29.660211 4.752h7.216v-30.976c4.312-4.312 7.304-6.6 11.704-6.6 5.632 0 8.096 3.432 8.096 11.44v26.136h7.216v-27.104c0-10.912-4.048-16.72-13.024-16.72-5.896 0-10.296 3.168-14.344 7.216h-.264l-.616-6.16h-5.984zm45.412211 0h7.216v-30.976c4.312-4.312 7.304-6.6 11.704-6.6 5.632 0 8.096 3.432 8.096 11.44v26.136h7.216v-27.104c0-10.912-4.048-16.72-13.024-16.72-5.896 0-10.296 3.168-14.344 7.216h-.264l-.616-6.16h-5.984zm62.748211 1.056c5.808 0 10.384-2.024 14.08-4.4l-2.552-4.752c-3.168 2.024-6.6 3.344-10.648 3.344-8.184 0-13.728-5.808-14.256-14.872h28.864c.176-1.056.264-2.64.264-4.136 0-12.232-6.16-20.064-17.072-20.064-9.768 0-19.184 8.536-19.184 22.528s9.064 22.352 20.504 22.352zm-13.464-25.872c.88-8.448 6.336-13.288 12.32-13.288 6.688 0 10.56 4.664 10.56 13.288zm44.708211 25.872c1.936 0 3.168-.264 4.136-.704l-.968-5.456c-.792.176-1.144.176-1.584.176-1.056 0-2.024-.88-2.024-3.168v-54.56h-7.216v54.032c0 6.248 2.2 9.68 7.656 9.68z"/></g></g></g></svg>