<?xml version="1.0" encoding="UTF-8"?>
<svg width="828px" height="222px" viewBox="0 0 828 222" version="1.1" xmlns="http://www.w3.org/2000/svg" xmlns:xlink="http://www.w3.org/1999/xlink">
    <title>HopeChannelAfrica</title>
    <g id="Page-1" stroke="none" stroke-width="1" fill="none" fill-rule="evenodd">
        <g id="HopeChannelAfrica" transform="translate(-0.000000, -0.000000)" fill-rule="nonzero">
            <g id="Group">
                <path d="M157.669921,105.700175 C136.32066,105.65188 119.070194,88.0939762 119.109941,66.4864865 C119.149827,44.862921 136.488348,27.3609003 157.821529,27.4006394 C179.163133,27.4489348 196.429679,45.0068383 196.381541,66.638059 C196.333201,88.2539693 179.011525,105.739914 157.669921,105.700175 Z" id="Path" fill="#1D4A8B"></path>
                <path d="M268.570916,5.20989344 C264.792184,2.20600378 259.830445,-5.85122228e-15 253.397795,-5.85122228e-15 L15.735085,0.00973481883 C15.735085,0.00973481883 -3.85612752,-1.07653415 0.682179246,19.7003693 L41.0476116,204.529149 C41.0476116,204.529149 45.5859184,225.322128 64.8256744,221.096473 L109.186532,207.995411 L109.377957,205.711107 C112.094662,170.731562 109.051003,160.945956 105.271505,143.691197 C98.0723894,110.772424 54.6066358,62.0931831 50.7076889,58.5947693 C46.9121116,55.1836245 45.5376792,47.1472245 59.4803193,54.1448176 C116.984426,83.021659 156.335305,135.727521 160.03517,135.615756 C165.715901,135.439687 236.043959,38.8957141 264.096928,9.34751413 C265.662786,7.68634172 267.16509,6.31989344 268.570916,5.20989344 Z" id="Path" fill="#1D4A8B"></path>
                <path d="M315.235001,126.51299 L279.208027,21.350059 C279.208027,21.350059 278.241713,17.8271486 275.772329,13.6573762 C240.584563,83.8729141 219.235302,130.283162 215.520124,176.590831 L302.211201,151.004183 C302.211201,151.004183 321.4433,146.770873 315.235001,126.51299" id="Fill-34" fill="#1D4A8B"></path>
                <path d="M157.669921,105.700175 C179.011525,105.739914 196.333201,88.2539693 196.381541,66.638059 C196.429679,45.0068383 179.163133,27.4489348 157.821529,27.4006394 C136.488348,27.3609003 119.149827,44.862921 119.109941,66.4864865 C119.070194,88.0939762 136.32066,105.65188 157.669921,105.700175 Z" id="Fill-35" fill="#FFD400"></path>
                <path d="M264.096928,9.34751413 C236.043959,38.8957141 165.715901,135.439687 160.03517,135.615756 C156.335305,135.727521 116.984426,83.021659 59.4803193,54.1448176 C45.5376792,47.1472245 46.9121116,55.1836245 50.7076889,58.5947693 C54.6066358,62.0931831 98.0723894,110.772424 105.271505,143.691197 C109.051003,160.945956 112.094662,170.731562 109.377957,205.711107 L109.186532,207.995411 L215.520124,176.590831 C219.235302,130.283162 240.584563,83.8729141 275.772329,13.6573762 C273.47293,9.0887693 268.570916,5.20989344 268.570916,5.20989344 C267.16509,6.31989344 265.662786,7.68634172 264.096928,9.34751413 Z" id="Fill-36" fill="#FFD400"></path>
            </g>
            <g id="AFRICA" transform="translate(704.522465, 139.211426)" fill="#1D4A8B">
                <path d="M15.0390625,15.5004883 L11.2280273,4.40917969 L7.17773438,15.5004883 L15.0390625,15.5004883 Z M9.45068359,0.68359375 L13.2958984,0.68359375 L22.4047852,25.7885742 L18.6791992,25.7885742 L16.1328125,18.269043 L6.20361328,18.269043 L3.48632812,25.7885742 L0,25.7885742 L9.45068359,0.68359375 Z" id="Shape"></path>
                <polygon id="Path" points="24.9303379 0.68359375 42.3448887 0.68359375 42.3448887 3.75976562 28.3312168 3.75976562 28.3312168 11.3818359 40.6529942 11.3818359 40.6529942 14.3725586 28.3312168 14.3725586 28.3312168 25.7885742 24.9303379 25.7885742"></polygon>
                <path d="M56.7649727,12.1850586 C58.3600248,12.1850586 59.6218249,11.8660482 60.5503731,11.2280273 C61.4789213,10.5900065 61.9431953,9.43929036 61.9431953,7.77587891 C61.9431953,5.98714193 61.2937813,4.76806641 59.9949532,4.11865234 C59.2999662,3.77685547 58.371418,3.60595703 57.2093086,3.60595703 L48.9036446,3.60595703 L48.9036446,12.1850586 L56.7649727,12.1850586 Z M45.5027657,0.68359375 L57.1238594,0.68359375 C59.0379219,0.68359375 60.6158841,0.962727865 61.8577461,1.52099609 C64.2161446,2.59195964 65.3953438,4.5686849 65.3953438,7.45117188 C65.3953438,8.95507812 65.0848783,10.1855469 64.4639473,11.1425781 C63.8430163,12.0996094 62.9742826,12.8686523 61.8577461,13.449707 C62.8375638,13.8484701 63.5752754,14.3725586 64.0708809,15.0219727 C64.5664864,15.6713867 64.8427722,16.7252604 64.8997383,18.1835938 L65.0193672,21.550293 C65.0535469,22.5073242 65.1332995,23.219401 65.258625,23.6865234 C65.4637032,24.4840495 65.8282865,24.9967448 66.352375,25.2246094 L66.352375,25.7885742 L62.1824532,25.7885742 C62.0685209,25.5721029 61.977375,25.2929688 61.9090157,24.9511719 C61.8406563,24.609375 61.7836901,23.9485677 61.7381172,22.96875 L61.5330391,18.7817383 C61.4532865,17.1411133 60.8437487,16.0416667 59.7044258,15.4833984 C59.0550118,15.1757812 58.0353177,15.0219727 56.6453438,15.0219727 L48.9036446,15.0219727 L48.9036446,25.7885742 L45.5027657,25.7885742 L45.5027657,0.68359375 Z" id="Shape"></path>
                <polygon id="Path" points="70.2451153 0.68359375 73.6801739 0.68359375 73.6801739 25.7885742 70.2451153 25.7885742"></polygon>
                <path d="M88.8863907,0 C92.0651016,0 94.5317357,0.837402344 96.286293,2.51220703 C98.0408503,4.18701172 99.0149714,6.08968099 99.2086563,8.22021484 L95.8932266,8.22021484 C95.5172501,6.6023763 94.7681452,5.32063802 93.6459122,4.375 C92.5236791,3.42936198 90.9485652,2.95654297 88.9205704,2.95654297 C86.4482396,2.95654297 84.4515762,3.82527669 82.9305801,5.56274414 C81.409584,7.30021159 80.649086,9.96337891 80.649086,13.5522461 C80.649086,16.4916992 81.3355281,18.8757324 82.7084122,20.7043457 C84.0812963,22.532959 86.1292292,23.4472656 88.852211,23.4472656 C91.3587214,23.4472656 93.2670873,22.4845378 94.5773087,20.559082 C95.2722956,19.5450846 95.7906876,18.2120768 96.1324844,16.5600586 L99.4479141,16.5600586 C99.1516902,19.2032878 98.1718725,21.4192708 96.508461,23.2080078 C94.5146459,25.3613281 91.8258438,26.4379883 88.4420547,26.4379883 C85.5253881,26.4379883 83.0758438,25.555013 81.0934219,23.7890625 C78.4843725,21.4534505 77.1798477,17.8474935 77.1798477,12.9711914 C77.1798477,9.26839193 78.1596654,6.23209635 80.1193008,3.86230469 C82.2384415,1.2874349 85.1608047,0 88.8863907,0 Z" id="Path"></path>
                <path d="M115.576983,15.5004883 L111.765947,4.40917969 L107.715654,15.5004883 L115.576983,15.5004883 Z M109.988604,0.68359375 L113.833818,0.68359375 L122.942705,25.7885742 L119.217119,25.7885742 L116.670733,18.269043 L106.741533,18.269043 L104.024248,25.7885742 L100.53792,25.7885742 L109.988604,0.68359375 Z" id="Shape"></path>
            </g>
            <g id="HopeChannel" transform="translate(353.776000, 66.344000)" fill="#1D4A8B">
                <polygon id="Path" points="5.68434189e-14 62.656 12.936 62.656 12.936 38.72 32.736 38.72 32.736 62.656 45.76 62.656 45.76 5.28 32.736 5.28 32.736 27.368 12.936 27.368 12.936 5.28 5.68434189e-14 5.28"></polygon>
                <path d="M74.276211,63.712 C85.276211,63.712 95.484211,55.352 95.484211,40.832 C95.484211,26.312 85.276211,17.952 74.276211,17.952 C63.188211,17.952 52.980211,26.312 52.980211,40.832 C52.980211,55.352 63.188211,63.712 74.276211,63.712 Z M74.276211,53.24 C68.908211,53.24 66.268211,48.4 66.268211,40.832 C66.268211,33.264 68.908211,28.424 74.276211,28.424 C79.556211,28.424 82.284211,33.264 82.284211,40.832 C82.284211,48.4 79.556211,53.24 74.276211,53.24 Z" id="Shape"></path>
                <path d="M101.648422,78.848 L114.584422,78.848 L114.584422,66.088 L114.144422,59.136 C117.224422,62.04 120.744422,63.712 124.528422,63.712 C133.944422,63.712 142.920422,55.088 142.920422,40.128 C142.920422,26.664 136.408422,17.952 125.848422,17.952 C121.272422,17.952 116.872422,20.24 113.440422,23.32 L113.088422,23.32 L112.208422,19.008 L101.648422,19.008 L101.648422,78.848 Z M121.536422,53.152 C119.336422,53.152 116.872422,52.448 114.584422,50.336 L114.584422,32.472 C117.136422,29.744 119.424422,28.512 122.064422,28.512 C127.256422,28.512 129.632422,32.472 129.632422,40.304 C129.632422,49.28 126.024422,53.152 121.536422,53.152 Z" id="Shape"></path>
                <path d="M168.884633,63.712 C174.076633,63.712 179.884633,61.864 184.372633,58.784 L180.060633,50.952 C176.892633,52.888 173.900633,53.856 170.644633,53.856 C164.836633,53.856 160.436633,50.952 159.292633,44.616 L185.428633,44.616 C185.692633,43.56 185.956633,41.184 185.956633,38.896 C185.956633,27.016 179.796633,17.952 167.388633,17.952 C156.916633,17.952 146.796633,26.664 146.796633,40.832 C146.796633,55.264 156.388633,63.712 168.884633,63.712 Z M159.204633,36.08 C160.084633,30.536 163.604633,27.808 167.652633,27.808 C172.844633,27.808 174.956633,31.24 174.956633,36.08 L159.204633,36.08 Z" id="Shape"></path>
                <path d="M216.232844,63.712 C223.712844,63.712 229.344844,60.632 233.920844,55.352 L229.872844,50.776 C226.176844,54.824 222.040844,57.288 216.496844,57.288 C205.584844,57.288 198.632844,48.136 198.632844,33.616 C198.632844,19.272 205.848844,10.296 216.760844,10.296 C221.688844,10.296 225.472844,12.496 228.552844,15.752 L232.512844,11 C229.168844,7.216 223.712844,3.872 216.672844,3.872 C201.976844,3.872 191.064844,15.224 191.064844,33.792 C191.064844,52.624 201.800844,63.712 216.232844,63.712 Z" id="Path"></path>
                <path d="M241.229055,62.656 L248.445055,62.656 L248.445055,31.68 C252.757055,27.368 255.749055,25.08 260.149055,25.08 C265.781055,25.08 268.245055,28.512 268.245055,36.52 L268.245055,62.656 L275.461055,62.656 L275.461055,35.552 C275.461055,24.64 271.413055,18.832 262.437055,18.832 C256.541055,18.832 252.229055,22 248.181055,25.872 L248.445055,17.072 L248.445055,0 L241.229055,0 L241.229055,62.656 Z" id="Path"></path>
                <path d="M296.233266,63.712 C301.601266,63.712 306.353266,60.896 310.401266,57.552 L310.665266,57.552 L311.281266,62.656 L317.265266,62.656 L317.265266,36.432 C317.265266,25.784 312.865266,18.832 302.393266,18.832 C295.529266,18.832 289.545266,21.824 285.585266,24.376 L288.401266,29.392 C291.745266,27.104 296.233266,24.816 301.161266,24.816 C308.201266,24.816 309.961266,30.096 309.961266,35.552 C291.745266,37.576 283.737266,42.24 283.737266,51.568 C283.737266,59.224 289.105266,63.712 296.233266,63.712 Z M298.345266,57.904 C294.121266,57.904 290.777266,55.88 290.777266,51.04 C290.777266,45.584 295.705266,42.064 309.961266,40.304 L309.961266,52.184 C305.825266,55.88 302.481266,57.904 298.345266,57.904 Z" id="Shape"></path>
                <path d="M328.005477,62.656 L335.221477,62.656 L335.221477,31.68 C339.533477,27.368 342.525477,25.08 346.925477,25.08 C352.557477,25.08 355.021477,28.512 355.021477,36.52 L355.021477,62.656 L362.237477,62.656 L362.237477,35.552 C362.237477,24.64 358.189477,18.832 349.213477,18.832 C343.317477,18.832 338.917477,22 334.869477,26.048 L334.605477,26.048 L333.989477,19.888 L328.005477,19.888 L328.005477,62.656 Z" id="Path"></path>
                <path d="M373.417688,62.656 L380.633688,62.656 L380.633688,31.68 C384.945688,27.368 387.937688,25.08 392.337688,25.08 C397.969688,25.08 400.433688,28.512 400.433688,36.52 L400.433688,62.656 L407.649688,62.656 L407.649688,35.552 C407.649688,24.64 403.601688,18.832 394.625688,18.832 C388.729688,18.832 384.329688,22 380.281688,26.048 L380.017688,26.048 L379.401688,19.888 L373.417688,19.888 L373.417688,62.656 Z" id="Path"></path>
                <path d="M436.165899,63.712 C441.973899,63.712 446.549899,61.688 450.245899,59.312 L447.693899,54.56 C444.525899,56.584 441.093899,57.904 437.045899,57.904 C428.861899,57.904 423.317899,52.096 422.789899,43.032 L451.653899,43.032 C451.829899,41.976 451.917899,40.392 451.917899,38.896 C451.917899,26.664 445.757899,18.832 434.845899,18.832 C425.077899,18.832 415.661899,27.368 415.661899,41.36 C415.661899,55.352 424.725899,63.712 436.165899,63.712 Z M422.701899,37.84 C423.581899,29.392 429.037899,24.552 435.021899,24.552 C441.709899,24.552 445.581899,29.216 445.581899,37.84 L422.701899,37.84 Z" id="Shape"></path>
                <path d="M467.41011,63.712 C469.34611,63.712 470.57811,63.448 471.54611,63.008 L470.57811,57.552 C469.78611,57.728 469.43411,57.728 468.99411,57.728 C467.93811,57.728 466.97011,56.848 466.97011,54.56 L466.97011,0 L459.75411,0 L459.75411,54.032 C459.75411,60.28 461.95411,63.712 467.41011,63.712 Z" id="Path"></path>
            </g>
        </g>
    </g>
</svg>