<svg id="Ebene_1" xmlns="http://www.w3.org/2000/svg" viewBox="0 0 574 220" preserveAspectRatio="xMinYMid meet"><path d="M302.49 220c-12.28 0-21.05-6.19-24.46-15.88l7.39-4.25c2.31 7.11 7.85 11.73 17.26 11.73s13.66-4.16 13.66-9.97c0-6.65-5.72-8.86-15.23-11.81-10.34-3.33-20.31-6.56-20.31-18.56s9.51-18.28 20.31-18.28 18.28 6 21.88 14.12l-7.2 4.16c-2.31-5.54-6.83-9.97-14.68-9.97-6.93 0-11.73 3.69-11.73 9.6s4.53 8.21 13.57 11.08c11.26 3.69 21.88 7.02 21.88 19.48 0 11.35-9.14 18.55-22.34 18.55M324.1 75.43v-8.12h-37.21v64.62h8.59v-27.42h27.42v-8.12h-27.42V75.44h28.62Zm26.47 48.37v-20.49h27.23v-8.03h-27.23V75.43h29.54v-8.12h-38.13v64.62h38.59v-8.12h-30Zm56.38-24.37h17.26c6.37 0 11.54-5.45 11.54-12.1s-5.17-12-11.54-12h-17.26v24.1Zm15.23 7.75h-15.23v24.74h-8.59V67.3h25.85c11.08 0 20.13 8.95 20.13 20.03 0 8.49-5.63 15.97-13.39 18.74l15.23 25.85h-9.51l-14.49-24.74Zm80.19-39.88v48.19L469.14 67.3h-6.93v64.62h8.59V83.64l33.23 48.28h6.93V67.3h-8.59Zm-160.39 86.87v64.62h38.59v-8.12h-30v-20.49h27.23v-8.03h-27.23V162.3h29.54v-8.12h-38.13Zm96.35 0v27.42h-31.39v-27.42h-8.59v64.62h8.59v-29.08h31.39v29.08h8.49v-64.62h-8.49Zm29.79 0v64.62h38.59v-8.12h-30v-20.49h27.24v-8.03h-27.24V162.3h29.54v-8.12h-38.13Zm96.53 0v48.19l-33.23-48.19h-6.92v64.62h8.58v-48.28l33.23 48.28h6.93v-64.62h-8.59Zm-426.43-27.05c0-17.16-1.07-31.78-13.44-44.15-9.27-9.27-23.49-15.54-44.94-15.54-10.59 0-23.06 1.58-33.17 3.27V0L0 2.95v215.8h46.66V110.38c9.89-1.62 17.84-2.48 24.64-2.48 9.04 0 14.34 1.39 17.09 4.13 3.19 3.18 3.24 8.2 3.24 19.33v87.38h46.57v-91.63Zm67.47.59c0-7.42.67-10.93 3.24-13.5 3.65-3.65 11.79-6.12 47.48-7.09V67.53c-48.35.5-70.34 5.84-84.21 19.7-12.56 12.56-13.18 26.75-13.18 42.56v88.99h46.66V127.7Z" style="fill:#007396;stroke-width:0"/></svg>