<svg width="54" height="40" viewBox="0 0 54 40" fill="none" xmlns="http://www.w3.org/2000/svg">
<g clip-path="url(#clip0_3539_36894)">
<path d="M41.4685 0.651123H0.668945V29.0079L38.2158 39.9026V29.1707H53.5184V12.6796C53.5184 6.04747 48.1135 0.651123 41.4685 0.651123ZM10.5392 25.4751H4.50932V4.44288H10.5392V25.4751ZM29.4128 10.4787H23.0646C21.8185 10.4787 20.6924 10.9828 19.8748 11.7969C19.0591 12.6129 18.554 13.7389 18.554 14.9806C18.554 17.4502 20.5607 19.451 23.0332 19.451H29.4128V25.5084H23.0784C20.8516 25.5084 18.782 24.818 17.08 23.639C14.407 21.7893 12.6323 18.7351 12.5458 15.265C12.5439 15.1767 12.5419 15.0845 12.5419 14.9943V14.9904C12.5419 14.8158 12.5458 14.6432 12.5556 14.4725V14.4372C12.7011 11.6714 13.9177 9.18602 15.8005 7.3892C15.8044 7.38527 15.8064 7.38331 15.8084 7.38135C17.6991 5.58257 20.26 4.47819 23.0784 4.47819H29.4128V10.4787ZM49.7409 25.4849H43.6796V13.0249C43.6796 11.6478 42.5574 10.5297 41.1757 10.5297H37.4808V25.4849H31.4156V4.42131H41.3428C45.0652 4.42131 48.2216 6.83995 49.3242 10.1884C49.5954 11.0123 49.7409 11.8911 49.7409 12.8052V25.4849Z" fill="#A8D81C"/>
<path d="M10.5396 4.44287H4.50977V25.4751H10.5396V4.44287Z" fill="#0E1028"/>
<path d="M19.8749 11.7969C19.0592 12.6129 18.5541 13.7388 18.5541 14.9805C18.5541 17.4502 20.5608 19.451 23.0333 19.451H29.4129V25.5084H23.0785C20.8517 25.5084 18.7821 24.8179 17.0801 23.639C14.4072 21.7892 12.6324 18.735 12.5459 15.265C12.544 15.1767 12.542 15.0845 12.542 14.9943V14.9903C12.542 14.8157 12.5459 14.6431 12.5557 14.4725V14.4372C12.7012 11.6713 13.9178 9.18597 15.8006 7.38915C15.8045 7.38523 15.8065 7.38327 15.8085 7.38131C17.6992 5.58253 20.2601 4.47815 23.0785 4.47815H29.4129V10.4787H23.0647C21.8186 10.4787 20.6925 10.9828 19.8749 11.7969Z" fill="#0E1028"/>
<path d="M49.7409 12.8054V25.4851H43.6796V13.0251C43.6796 11.648 42.5573 10.5299 41.1757 10.5299H37.4807V25.4851H31.4155V4.42151H41.3427C45.0652 4.42151 48.2216 6.84015 49.3242 10.1886C49.5954 11.0125 49.7409 11.8913 49.7409 12.8054Z" fill="#0E1028"/>
</g>
<defs>
<clipPath id="clip0_3539_36894">
<rect width="52.8494" height="39.2515" fill="white" transform="translate(0.668945 0.651123)"/>
</clipPath>
</defs>
</svg>
