<svg xmlns="http://www.w3.org/2000/svg" xmlns:xlink="http://www.w3.org/1999/xlink" viewBox="0 0 157.92 99.38"><defs><style>.cls-1{fill:#fff;}.cls-1,.cls-2{fill-rule:evenodd;}.cls-2{fill:#e5deda;}.cls-3{mask:url(#mask);}</style><mask id="mask" x="0" y="0" width="157.92" height="99.38" maskUnits="userSpaceOnUse"><g id="b"><path id="a" class="cls-1" d="M154.55,20.83a1.11,1.11,0,0,1,.31.77,1.14,1.14,0,0,1-.44.9L136.69,36.65a1,1,0,0,1-1.43,0l-1.2-1a8.46,8.46,0,0,0-6.9-1.14c-4.79,1-9.24,5.49-10.19,11.17a15,15,0,0,0-.24,1.91l-.37.08c-5.67,1.12-10.82-1.93-11-8.27v-.12c-.17-6.16,4.71-12.42,10.38-13.54,3.5-.7,5.89,0,8.09,2.09a1,1,0,0,0,1.43,0c.65-.52,16.64-13.88,17.17-14.33s.61-1-.08-1.92c-.14-.18-.28-.37-.43-.55l-.06-.08-.49-.61c-.15-.17-.29-.34-.44-.5a.46.46,0,0,0-.07-.07c-.31-.36-.64-.7-1-1l-.05-.06c-.36-.34-.72-.68-1.09-1l-.07,0-.55-.46C145.76,13.05,152.78,18.43,154.55,20.83ZM157.69,57c.52.43,0,1.41-.26,1.95-5.12,10.26-15.25,19.77-28.59,22.45-7.32,1.46-14,.78-19.4-1.83,0,0-11.12-5.16-18.77-12.63v5a1,1,0,0,1-.82,1h0L69.94,76.22h0l-.13,0a.5.5,0,0,0-.36.46V89.21a1,1,0,0,1-.82,1L46.41,93.84a1,1,0,0,1-.69-.2L41.12,90v3.91a1,1,0,0,1-.81,1L13.13,99.31a1,1,0,0,1-.71-.32L0,89.08a1,1,0,0,0,.74.13L23.26,85.5h0a1,1,0,0,0,.79-1V20.37a1,1,0,0,0-.36-.77h0l9,7.18v56a1,1,0,0,0,1,1l.11,0h.09c2.16-.34,21.84-3.59,21.84-3.59a1,1,0,0,0,.88-1V66.93a.5.5,0,0,1,.49-.42h0l17.08-2.81a1,1,0,0,0,.82-1V43.21a1,1,0,0,0-1-1C74,42.23,57.11,45,57.11,45h0a.5.5,0,0,1-.5-.5h0V36.11h0a.5.5,0,0,1,.5-.5h0l20-3.29h0a1,1,0,0,0,.83-1V11.51a1,1,0,0,0-.33-.74l11,8.7-.09.14c-4.08,6.52-6.32,14.57-6.14,23.86v.19C82.72,61.85,93.6,72.07,108.74,72a35.91,35.91,0,0,0,7.28-.76c13.35-2.68,23.5-12.24,28.62-22.5l.09-.17,0-.06,0-.08,0,0a.93.93,0,0,1,.05-.1v0a.49.49,0,0,0,0-.11l0,0s0-.07,0-.11v0a1.57,1.57,0,0,0,.1-.89h0a.42.42,0,0,0,0-.1.19.19,0,0,0,0-.09h0a.3.3,0,0,0-.08-.08h0L157.69,57Z"/></g></mask></defs><title>ifc-lt</title><g id="Layer_2" data-name="Layer 2"><g id="Layer_1-2" data-name="Layer 1"><path id="a-2" data-name="a" class="cls-2" d="M154.55,20.83a1.11,1.11,0,0,1,.31.77,1.14,1.14,0,0,1-.44.9L136.69,36.65a1,1,0,0,1-1.43,0l-1.2-1a8.46,8.46,0,0,0-6.9-1.14c-4.79,1-9.24,5.49-10.19,11.17a15,15,0,0,0-.24,1.91l-.37.08c-5.67,1.12-10.82-1.93-11-8.27v-.12c-.17-6.16,4.71-12.42,10.38-13.54,3.5-.7,5.89,0,8.09,2.09a1,1,0,0,0,1.43,0c.65-.52,16.64-13.88,17.17-14.33s.61-1-.08-1.92c-.14-.18-.28-.37-.43-.55l-.06-.08-.49-.61c-.15-.17-.29-.34-.44-.5a.46.46,0,0,0-.07-.07c-.31-.36-.64-.7-1-1l-.05-.06c-.36-.34-.72-.68-1.09-1l-.07,0-.55-.46C145.76,13.05,152.78,18.43,154.55,20.83ZM157.69,57c.52.43,0,1.41-.26,1.95-5.12,10.26-15.25,19.77-28.59,22.45-7.32,1.46-14,.78-19.4-1.83,0,0-11.12-5.16-18.77-12.63v5a1,1,0,0,1-.82,1h0L69.94,76.22h0l-.13,0a.5.5,0,0,0-.36.46V89.21a1,1,0,0,1-.82,1L46.41,93.84a1,1,0,0,1-.69-.2L41.12,90v3.91a1,1,0,0,1-.81,1L13.13,99.31a1,1,0,0,1-.71-.32L0,89.08a1,1,0,0,0,.74.13L23.26,85.5h0a1,1,0,0,0,.79-1V20.37a1,1,0,0,0-.36-.77h0l9,7.18v56a1,1,0,0,0,1,1l.11,0h.09c2.16-.34,21.84-3.59,21.84-3.59a1,1,0,0,0,.88-1V66.93a.5.5,0,0,1,.49-.42h0l17.08-2.81a1,1,0,0,0,.82-1V43.21a1,1,0,0,0-1-1C74,42.23,57.11,45,57.11,45h0a.5.5,0,0,1-.5-.5h0V36.11h0a.5.5,0,0,1,.5-.5h0l20-3.29h0a1,1,0,0,0,.83-1V11.51a1,1,0,0,0-.33-.74l11,8.7-.09.14c-4.08,6.52-6.32,14.57-6.14,23.86v.19C82.72,61.85,93.6,72.07,108.74,72a35.91,35.91,0,0,0,7.28-.76c13.35-2.68,23.5-12.24,28.62-22.5l.09-.17,0-.06,0-.08,0,0a.93.93,0,0,1,.05-.1v0a.49.49,0,0,0,0-.11l0,0s0-.07,0-.11v0a1.57,1.57,0,0,0,.1-.89h0a.42.42,0,0,0,0-.1.19.19,0,0,0,0-.09h0a.3.3,0,0,0-.08-.08h0L157.69,57Z"/><g class="cls-3"><path class="cls-2" d="M0,0H157.92V99.38H0Z"/></g></g></g></svg>