<svg xmlns="http://www.w3.org/2000/svg" id="Capa_2" data-name="Capa 2" viewBox="0 0 556.49 184.13"><defs><style>      .cls-1 {        fill: #de0e1e;      }    </style></defs><g id="Capa_1-2" data-name="Capa 1"><g><path class="cls-1" d="m278.8,184.13c-16.11-.47-29.56-4.33-41.23-13.48-10.94-8.57-17.19-19.87-19.58-33.46-1.7-9.64-1.18-19.15,1.27-28.58,2.81-10.8,8.75-19.57,17.31-26.66,8.21-6.8,17.57-11.03,28.03-12.89,13.25-2.36,26.28-1.6,38.73,3.7,15.14,6.45,26.01,17.35,31.89,32.84,3.45,9.1,4.26,18.57,3.1,28.27-.92,7.73-3.21,14.94-7.17,21.62-5.08,8.58-12.1,15.2-20.69,20.19-6.89,4.01-14.33,6.41-22.22,7.42-3.63.46-7.27.8-9.44,1.03Zm-1.57-80.36c-1.48.17-3.02.17-4.44.55-5.44,1.44-9.49,4.81-12.13,9.7-4.15,7.68-4.02,15.6-.47,23.43,3.68,8.11,12.13,11.96,20.75,10.76,5.81-.81,10.19-4.02,13.25-8.89,3.62-5.75,4.21-12.15,3-18.66-1.91-10.26-10.32-17.22-19.96-16.89Z"></path><path class="cls-1" d="m432.98,182.6c.68-1.86,1.23-3.33,1.75-4.82,4.58-13.2,9.14-26.4,13.72-39.6,6.3-18.19,12.61-36.38,18.91-54.57,1.36-3.93,2.68-7.87,3.96-11.83.32-.97.78-1.36,1.86-1.36,14.41.06,28.83.08,43.24.05,1.17,0,1.64.46,1.96,1.43,1.72,5.17,3.43,10.34,5.21,15.49,5.05,14.62,10.16,29.23,15.22,43.85,5.79,16.74,11.56,33.49,17.33,50.24.08.24.14.48.29,1-.63,0-1.17,0-1.71,0-13.04,0-26.08,0-39.12.04-1.07,0-1.48-.47-1.73-1.37-1.14-3.95-2.32-7.89-3.42-11.86-.25-.9-.65-1.15-1.56-1.14-8.71.03-17.42,0-26.12,0-3.02,0-3.03-.01-3.89,2.79-1.02,3.3-2.07,6.58-3.02,9.9-.35,1.21-.83,1.72-2.22,1.71-12.75-.04-25.5.02-38.25.05-.69,0-1.38,0-2.39,0Zm62.52-73.3c-.18.03-.36.05-.54.08-2.78,10.65-5.56,21.3-8.36,32.04h16.99c-2.74-10.86-5.42-21.49-8.09-32.12Z"></path><path class="cls-1" d="m453.93,70.22c-.06.42-.05.71-.15.96-2.91,7.7-5.82,15.4-8.76,23.09-3.1,8.12-6.22,16.23-9.34,24.34-2.54,6.6-5.11,13.18-7.63,19.78-4.14,10.83-8.26,21.68-12.4,32.52-1.32,3.46-2.67,6.9-4.06,10.33-.15.37-.67.65-1.09.83-.32.14-.74.04-1.11.04-10.66,0-21.33-.01-31.99.04-1.24,0-1.84-.39-2.28-1.57-3.66-9.77-7.36-19.52-11.09-29.27-4.02-10.52-8.06-21.04-12.12-31.55-2.91-7.52-5.92-15-8.8-22.54-3.25-8.5-6.42-17.04-9.61-25.56-.16-.42-.27-.85-.44-1.41.47-.04.83-.09,1.19-.09,13.21-.01,26.41-.02,39.62-.04.85,0,1.48.1,1.77,1.11,2.59,8.95,5.2,17.89,7.85,26.81,3.18,10.72,6.4,21.44,9.6,32.15.13.42.32.83.62,1.6.31-.81.53-1.27.67-1.76,4.93-16.88,9.85-33.76,14.76-50.64.8-2.75,1.58-5.51,2.31-8.28.18-.7.48-1,1.18-.99,1.08.02,2.17.01,3.25.01,12.12,0,24.25-.01,36.37-.01.53,0,1.05.05,1.67.07Z"></path><path d="m108.69,85.5c7.89-9.56,18.13-14.89,30.05-17.35,7.14-1.48,14.35-2.14,21.61-1.44,10.13.98,20.06,2.92,28.81,8.48,8.39,5.34,13.32,13.06,14.28,23.03.46,4.72.62,9.48.64,14.22.06,22.87.02,45.75.05,68.62,0,1.2-.32,1.51-1.54,1.5-6-.07-12-.03-18,.01-1,0-1.36-.24-1.36-1.32.03-28.79.03-57.58.04-86.37,0-1.87.04-3.75.17-5.62.15-2.27,1.17-3.28,3.46-3.46,1.41-.11,2.83-.07,4.25-.12,1.09-.03,1.69-.62,1.77-1.7.08-1.13-.38-1.57-1.56-1.56-9.16.06-18.32.13-27.49.19-1.75.01-3.5-.07-5.24,0-1.53.06-1.98.6-1.95,1.97.02,1.09.57,1.59,2.05,1.62,2.79.04,5.58,0,8.37-.01,2.22,0,3.13.58,3.76,2.7.32,1.06.48,2.21.48,3.31.02,21.21.01,42.41,0,63.62,0,1.51,0,3.03,0,4.54-.13.02-.25.05-.38.07-1.61-1.76-3.26-3.5-4.81-5.32-.33-.39-.42-1.08-.42-1.64-.02-11.04-.04-22.08,0-33.12.01-3.54.17-7.08.28-10.62.09-3.02-.99-5.63-2.8-7.96-5.16-6.67-11.99-9.6-20.4-10.09-10.91-.63-19.82,3.65-27.94,9.64-1.48-1.3-3.12-2.53-4.5-3.99-4.86-5.15-9.62-10.39-14.45-15.57-.76-.82-1.59-1.61-2.5-2.24-1.78-1.21-3.52-.51-3.96,1.57-.23,1.09-.3,2.23-.3,3.35-.01,28.46,0,56.91,0,85.37,0,1.42.06,2.83.05,4.25-.03,2.47-1.61,4.59-3.96,5.34-.95.3-1.92.53-2.88.82-.39.12-.91.2-1.12.49-1.19,1.62-2.89,1.39-4.55,1.39-1,0-2-.06-3,.02-.98.07-1.17-.34-1.17-1.24.03-13.16.02-26.33.02-39.49,0-22.87,0-45.74-.01-68.62,0-2.69-.02-2.69,2.68-2.69,10.62,0,21.25.03,31.87,0,1.19,0,1.66.26,1.63,1.58-.09,4.62-.03,9.24-.03,13.82Z"></path><path d="m4.24,126.21c0-18.29.01-36.57-.03-54.86,0-1.18.52-1.26,1.43-1.26,12.33.01,24.66,0,36.99,0,5.08,0,10.16.04,15.25,0,1.06,0,1.32.37,1.32,1.38-.03,34.74-.04,69.48-.04,104.22,0,1.92,0,3.83.06,5.75.03.87-.24,1.13-1.13,1.13-15.91-.05-31.82-.07-47.73-.09-1.58,0-3.17-.02-4.75.04-.98.04-1.38-.23-1.37-1.32.03-18.33.02-36.66.02-54.98h-.01Z"></path><path d="m33.07,0c9.64.41,18.37,3.88,25.19,11.55,3.67,4.13,5.48,9.09,6.12,14.49.65,5.53.24,10.98-1.83,16.21-3.07,7.77-8.52,13.37-16.23,16.37-11.53,4.48-22.83,3.9-33.46-2.9-6.1-3.9-9.6-9.73-11.54-16.51C-.96,31.29-.3,23.45,3.44,16.14,8.07,7.1,16,2.45,25.77.66c1.27-.23,2.56-.36,3.84-.48.99-.1,2-.11,3.46-.18Zm-.66,42.45c2.13.08,4.37-.79,6.24-2.56,2.54-2.41,3.85-5.41,3.94-8.89.15-6.17-3.36-11.06-9.19-11.48-3.69-.26-7.07.48-9.31,3.84-2.09,3.13-2.74,6.6-2.07,10.26.98,5.31,5,8.82,10.39,8.83Z"></path><path d="m100.71,109.28c2.12,2.22,3.88,4.32,5.91,6.13,1.92,1.72,2.42,3.67,2.41,6.17-.09,19.33-.05,38.66-.05,57.98,0,.45,0,.89,0,1.53-2.45-.52-4.73-.96-6.72-2.19-1.25-.77-1.56-2.08-1.55-3.48,0-6.54,0-13.08,0-19.62,0-14.95,0-29.91,0-44.86,0-.44,0-.88,0-1.66Z"></path><path class="cls-1" d="m556.49,82.67c.19,6.43-5.09,11.96-11.5,12.22-7.13.29-13.06-4.89-13.15-11.96-.08-6.56,5.38-12.47,12.56-12.72,5.87-.21,12.12,4.37,12.08,12.47Zm-21.85,1.25c0-.05.01.24.04.53.53,7.15,8.2,11.37,14.54,8,5.18-2.76,6.98-9.03,4.07-14.41-1.93-3.58-4.95-5.67-9.06-5.6-5.45.08-10.14,5.65-9.58,11.48Z"></path><path d="m165.78,174.39c2.7,2.78,5.26,5.4,7.81,8.01h-7.81v-8.01Z"></path><path class="cls-1" d="m547.02,82.48c1.8,1.89,1.95,4.2,2.23,6.56-1.23.25-1.52-.51-1.74-1.26-.3-.99-.46-2.03-.8-3.01-.48-1.37-1.74-2.13-3.14-1.84-.32.07-.71.72-.73,1.12-.09,1.62-.09,3.24-.05,4.87.02.88-.38,1.12-1.13,1.01-.65-.1-1.63.35-1.63-.93,0-4-.02-8,.02-11.99,0-.33.45-.94.7-.94,1.94-.06,3.89-.13,5.81.05,1.33.12,2.27,1.04,2.56,2.4.29,1.4-.19,2.54-1.39,3.35-.2.14-.37.32-.7.63Zm-4.67-2.89q-.14,2.67,2.31,2.42c.25-.02.5-.03.74-.09,1.03-.26,1.52-.97,1.51-2-.01-1.54-1.23-2.31-3.45-2.4-1.8-.07-.91,1.24-1.11,2-.02.08,0,.16,0,.07Z"></path></g></g></svg>