<svg width="84" height="84" viewBox="0 0 84 84" fill="none" xmlns="http://www.w3.org/2000/svg">
<path d="M84 0H0V84H84V0Z" fill="white"/>
<path d="M26.6539 40.0293H22.4791V35.7822H16.7788L17.4995 36.5029V46.4788H22.4791V41.9982H26.6539V46.4788H31.6317V35.7822H26.6539V40.0293Z" fill="#015196"/>
<path d="M14.5169 35.7827H8.81836L9.53908 36.5034V36.5051V46.4792H14.5169V46.4456V35.7827Z" fill="#015196"/>
<path d="M33.4619 37.7562H37.5309V46.4788H42.507V37.7562H46.6382V35.7822H33.4619V37.7562Z" fill="#015196"/>
<path d="M48.0156 35.7822L48.7397 36.5029V46.504L53.7142 46.5006H60.8575V44.5232H53.7142V41.9982H59.8361V40.0192H53.7142V37.7596H60.8575V35.7822H48.0156Z" fill="#015196"/>
<path d="M76.5185 37.348C76.5107 36.9326 76.3411 36.5366 76.0459 36.2442C75.7507 35.9518 75.3531 35.7861 74.9376 35.7822H62.7744L63.4951 36.5029V46.4788H68.4747V43.2347H74.9443C75.3592 43.2291 75.7556 43.0621 76.0495 42.7692C76.3433 42.4763 76.5116 42.0804 76.5185 41.6656C76.5235 41.6051 76.5235 37.4639 76.5185 37.348ZM71.544 40.7181C71.5423 40.8573 71.4861 40.9902 71.3875 41.0885C71.2889 41.1868 71.1557 41.2426 71.0165 41.2439H68.4747V37.7461H71.0098C71.1503 37.7461 71.2852 37.8015 71.3852 37.9002C71.4852 37.999 71.5423 38.1331 71.544 38.2737V40.7181Z" fill="#015196"/>
</svg>
