<svg xmlns="http://www.w3.org/2000/svg" viewBox="0 0 102.01 28.73"><defs><style>.cls-1{fill:#000;}.cls-2{fill:#ffcc05;}</style></defs><g id="Layer_2" data-name="Layer 2"><g id="Layer_1-2" data-name="Layer 1"><path class="cls-1" d="M47.11,11H41.63a1.33,1.33,0,0,1-1.32-1.33V9.44a1.32,1.32,0,0,1,1.32-1.32h8.82a0,0,0,0,0,0,0V5a0,0,0,0,0,0,0H41.63a4.46,4.46,0,0,0-4.46,4.46v.19a4.46,4.46,0,0,0,4.46,4.46h5.48a1.28,1.28,0,1,1,0,2.55H35a1.32,1.32,0,0,1-1.32-1.31l0-10a0,0,0,0,0,0,0H30.57a0,0,0,0,0,0,0l0,10A4.48,4.48,0,0,0,35,19.78H46.88a4.58,4.58,0,0,0,4.63-4A4.42,4.42,0,0,0,47.11,11"/><path class="cls-1" d="M97.59,5.11H83.29a4.46,4.46,0,0,0-4.46,4.46v6a1.33,1.33,0,0,1-1.32,1.32H75.38a0,0,0,0,1,0-.05V9.57a4.46,4.46,0,0,0-4.46-4.46H61.5a0,0,0,0,0,0,0V8.21a0,0,0,0,0,0,0h9.38A1.33,1.33,0,0,1,72.2,9.57v1a0,0,0,0,1,0,0H65.67a4.46,4.46,0,0,0-4.46,4.46v1.72a0,0,0,0,1-.05.05H59a1.33,1.33,0,0,1-1.32-1.33V.43a0,0,0,0,0,0,0H54.57a0,0,0,0,0,0,0V15.54A4.46,4.46,0,0,0,59,20H77.51A4.46,4.46,0,0,0,82,15.54v-6a1.33,1.33,0,0,1,1.32-1.32h5.65a0,0,0,0,1,0,.05V19.82a0,0,0,0,0,0,0h3.06a0,0,0,0,0,0,0V8.3a0,0,0,0,1,0-.05h5.38a1.33,1.33,0,0,1,1.32,1.32V19.81a0,0,0,0,0,0,0h3a0,0,0,0,0,.05,0V9.53a4.43,4.43,0,0,0-4.42-4.42m-33.24,10a1.33,1.33,0,0,1,1.32-1.32h6.49a0,0,0,0,1,0,.05v3a0,0,0,0,1,0,.05H64.39s0,0,0-.05Z"/><path class="cls-1" d="M30.58,1.77A1.52,1.52,0,1,0,32.1.26a1.52,1.52,0,0,0-1.52,1.51"/><path class="cls-1" d="M42.56,24.56a1.33,1.33,0,0,0-1.08.46,1.82,1.82,0,0,0-.4,1.26,2,2,0,0,0,.37,1.25,1.32,1.32,0,0,0,1.1.47,3.07,3.07,0,0,0,.53-.05,4.37,4.37,0,0,0,.49-.12v.46a2.75,2.75,0,0,1-.49.14,5,5,0,0,1-.61,0,2,2,0,0,1-1.08-.27,1.69,1.69,0,0,1-.66-.76,3,3,0,0,1-.21-1.17,2.51,2.51,0,0,1,.23-1.13,1.74,1.74,0,0,1,.7-.77,2.06,2.06,0,0,1,1.11-.28,2.57,2.57,0,0,1,1.18.25l-.22.45a3.54,3.54,0,0,0-.43-.16,1.83,1.83,0,0,0-.53-.07"/><path class="cls-1" d="M51.33,24.15v1.76a0,0,0,0,1,0,0h-2.1a0,0,0,0,1,0,0V24.15h-.54v4.26h.54V26.46a0,0,0,0,1,0,0h2.1a0,0,0,0,1,0,0v1.95h.54V24.15Z"/><path class="cls-1" d="M59.82,28.41l-.5-1.3,0,0H57.65l0,0-.5,1.3h-.54l1.66-4.28h.49l1.66,4.28Zm-.67-1.8-.48-1.29-.06-.17a2,2,0,0,1-.08-.26,1.89,1.89,0,0,1-.06-.21c0,.13-.07.25-.1.37s-.06.21-.09.27l-.48,1.29Z"/><path class="cls-1" d="M68.44,28.41h-.62l-2.28-3.54h0c0,.14,0,.31,0,.52s0,.42,0,.64v2.38h-.49V24.15h.62L68,27.67h0c0-.06,0-.16,0-.28s0-.27,0-.42,0-.29,0-.42v-2.4h.5Z"/><path class="cls-1" d="M77.08,28.41h-.62l-2.28-3.54h0c0,.14,0,.31,0,.52s0,.42,0,.64v2.38h-.49V24.15h.62l2.27,3.52h0c0-.06,0-.16,0-.28s0-.27,0-.42,0-.29,0-.42v-2.4h.5Z"/><path class="cls-1" d="M82.35,24.19v4.18a0,0,0,0,0,0,0h2.34v-.47h-1.8a0,0,0,0,1-.05-.05V26.46s0,0,.05,0h1.69V26H82.88V24.62h1.85v-.47H82.39A0,0,0,0,0,82.35,24.19Z"/><path class="cls-1" d="M89.78,24.15v4.22a0,0,0,0,0,0,0h2.36v-.48H90.35a0,0,0,0,1,0,0V24.15Z"/><path class="cls-2" d="M2.5,26.26a0,0,0,0,1,0-.05V11.1c0-.06.13-6.2,8.47-8.58h0c8.37,2.38,8.47,8.33,8.47,8.59v15.1a0,0,0,0,1,0,.05Zm18-19.72C18.35,2.65,14.33.87,11.36.07a1.26,1.26,0,0,0-.8,0c-3,.81-7,2.59-9.21,6.48A10,10,0,0,0,0,11.11V28.68a0,0,0,0,0,0,.05H21.85a0,0,0,0,0,0-.05V11.12a10,10,0,0,0-1.35-4.58"/></g></g></svg>