<svg version="1.1" width="1000" height="190.5" viewBox="0 0 1000 190.5" xmlns="http://www.w3.org/2000/svg" xmlns:svg="http://www.w3.org/2000/svg">
  <path d="M478.7272 5.997941c17.2517-2.966156 33.3979-1.872898 48.4897 3.299881C542.2781 14.46073 554.9414 23.2075 565.2066 35.5272c10.2449 12.32995 16.8742 27.32229 19.881 44.98729 2.0034 11.76301 1.9728 22.91931-.0408 33.42711-2.0239 10.4976-6.5885 20.9656-12.2483 29.4385l21.9047 16.5707c1.619 1.2147 1.8435 3.5737.4966 5.0924L573.557 189.319l-.0102-.0106v.0204c-1.2857 1.4576-3.5238 1.5692-4.949.2533l-22.0782-20.2368c-9.7789 9.3338-20.8129 14.1626-37.1802 16.9874-17.2585 2.9354-33.3945 1.8619-48.4863-3.3108-15.0748-5.1531-27.7279-13.8992-37.9898-26.2189-10.2653-12.3098-16.8775-27.3229-19.8809-44.988-2.9966-17.67483-1.6803-34.02361 3.915-49.07664 5.619-15.04315 14.67-27.51524 27.1904-37.43607 12.5204-9.92046 27.4115-16.338196 44.6394-19.304349ZM818.3423 62.01977c2.864-.38488 4.0204.61769 4.3742 3.19896l15.6292 113.02517h-.0102c.2823 2.0548-1.1531 3.9684-3.2313 4.252l-40.5407 5.6081c-2.0545.2835-3.966-1.1543-4.2517-3.2297L774.7131 72.04112c-.3741-2.64197.415-3.8975 3.2517-4.30248ZM127.2314 15.21955c9.0902 0 16.8038 1.66018 20.5391 5.07154 2.5204 2.32833 3.7041 5.40631 3.7041 9.93139V67.9009h38.3452c2.9047 0 3.9166 1.16454 3.9166 3.78636v23.06075c0 2.63172-1.0119 3.7853-3.9166 3.7853h-21.5313c-6.7013 0-12.2792-.98142-16.8139-2.92523v23.95182c0 14.2836 3.0272 22.8279 9.2119 29.1853 6.4888 6.6609 16.4595 10.3258 29.3557 10.3258 27.1993 0 41.2694-17.0782 41.2694-35.9275 0-7.5721-2.2368-13.7069-6.6704-21.2994-3.9075-6.66077-4.9497-9.47523-4.9497-13.24112 0-11.08465 19.617-22.97961 32.8775-22.97995 6.4279 0 9.7078 2.13643 14.5871 10.10355 4.8384 7.88599 14.4653 25.04512 24.2033 42.05182 6.2959 10.9834 13.0782 23.1715 16.7527 30.1868 11.2058-19.2038 23.7786-50.07959 32.0371-77.57401.8299-2.75344 2.1156-4.08977 4.5068-4.08977 1.2755 0 3.4319.53657 9.3129 2.32798 3.5408 1.08336 10.6088 3.24026 13.2584 4.0601v.02966l.0205-.02966c2.7142.87069 3.8571 2.29767 3.8571 3.98818 0 1.69049-.983 4.42416-2.3571 8.15973-11.0238 29.82279-26.2993 62.24759-44.2371 89.67159-6.8326 10.457-14.4251 13.4941-27.0581 13.4941-13.3513 0-19.3139-3.5536-25.8629-13.2412-4.4438-6.5698-9.07-13.7883-15.3462-23.5067-14.1211 23.1314-38.3136 36.7479-71.222 36.7479-24.9017 0-47.4754-7.6233-59.8856-18.9513-12.6534 11.6925-34.03263 18.971-54.60199 18.971-20.56868 0-42.20028-5.6486-54.86363-18.3127C5.922236 159.9716.3341492 147.6213.3341152 125.9678V71.73772c.000034-2.68252.9413588-3.80613 3.8058788-3.80613H44.90436c2.90475 0 3.88672 1.16453 3.88672 3.78635v59.99976c0 9.5967 2.06531 16.0754 6.49863 20.7624 4.23129 4.4948 11.15475 7.167 19.38433 7.1674 8.22958 0 15.701-2.774 20.45881-7.886 5.41535-5.831 7.87445-14.1224 7.87445-29.4386V30.22248c0-4.51485 1.1745-7.61329 3.7051-9.93139 3.7354-3.41136 11.4293-5.07154 20.519-5.07154Zm494.9548-2.38831c10.7516-2.29799 21.9557-.74965 31.6836 4.36281l.153.0709c4.6361 2.42959 7.2585 7.53182 6.5477 12.73529L646.6317 133.2668c-1.8095 13.3727 7.5442 25.6825 20.9047 27.5353 13.3708 1.7611 25.6599-7.6439 27.4728-21.0167l13.9387-103.19528c.6973-5.24368 4.6259-9.47561 9.7993-10.56922l.6667-.13123c10.7517-2.27788 21.9455-.69779 31.6734 4.44465l.0204-.01094h.0306c4.6463 2.45992 7.2381 7.5318 6.5306 12.73493l-12.9591 96.02929c-4.6259 34.2162-42.8571 52.8221-77.0645 48.1958l-7.1463-.9606c-34.2142-4.6062-66.1495-32.6684-61.5237-66.8747l12.9592-95.95803c.6972-5.23345 4.6054-9.46468 9.7653-10.55793ZM954.5224.2275533c7.5918-1.3765383 14.8503 3.6339637 16.2755 11.1957567l1.6326 8.64553c1.1021 5.84094.1395 11.87449-2.7551 17.07795L911.2265 140.9601l79.4523-12.3803-.0102.0098.0306.0308c1.8946-.2936 3.6973.9715 4.0204 2.8747l5.2245 30.076c.3439 1.9132-.932 3.7356-2.8469 4.08l-122.6257 21.9773c-7.6122 1.3666-14.6258-2.2073-16.0034-9.7998l-2.0952-11.358c-1.0816-5.8513-.0714-11.9154 2.8639-17.1087l57.4149-101.72737-74.391 11.206c-1.9014.27305-3.6939-1.01214-4.0068-2.92524l-4.9184-30.14733c-.3163-1.91311.9388-3.70487 2.8435-4.04918ZM506.7782 38.95865c-7.0442-4.0287-14.5068-5.3756-22.381-4.02942-8.4217 1.42736-15.2652 5.19395-20.4965 11.23739-5.2347 6.02334-8.7483 13.87899-10.4592 23.57686-1.7109 9.69819-1.5374 20.73273.568 33.10322 2.3266 13.6659 5.9932 24.9125 10.932 33.6487 4.9592 8.7567 10.8707 14.9525 17.7653 18.5769 6.8741 3.6037 14.4455 4.7067 22.6836 3.2998 2.0544-.3442 4.2449-.9313 6.5-1.7716 1.1327-.4049 2.2789-.8914 3.4116-1.4178.4761-.2226.9523-.4646 1.4183-.7077.1803-.1012.3742-.1831.5646-.3044 2.6225-1.4782 4.9728-3.411 7.0068-5.5975l.1191-.1316-24.7891-25.1972c-1.2755-1.2957-1.3469-3.3608-.1428-4.7275l13.4523-15.438v-.0099h-.0272c1.1837-1.3359 3.1871-1.579 4.6463-.5464l18.0067 12.7656c.9218-3.7048 1.3266-8.3721 1.2755-12.6037-.051-4.21107-.517-9.05048-1.4455-14.48677-2.0068-11.73269-5.5-21.84576-10.5204-30.37944-5-8.53372-11.0442-14.82023-18.0884-18.85954Zm282.605-36.068682c15-2.1459481 25.8129 7.228062 27.7244 20.661492 1.9116 13.4334-5.8605 25.42892-20.8911 27.565h.017c-15.0408 2.13605-25.8333-7.21785-27.7448-20.67137-1.915-13.43343 5.8911-25.409175 20.8945-27.555122Zm-764.82609-.41522c15.18399 0 24.55744 10.781592 24.55744 24.366722-.00034 13.58546-9.37345 24.34623-24.55744 24.34623C9.373456 51.1877 0 40.4061 0 26.82065.00010204 13.23552 9.373524 2.474748 24.55711 2.474748Z" fill="#f7c550"/>
</svg>
