<?xml version="1.0" encoding="UTF-8"?><svg id="_Слой_1" xmlns="http://www.w3.org/2000/svg" viewBox="0 0 2074 477"><defs><style>.cls-1{fill:#144253;}.cls-2{fill:#fddb27;}.cls-2,.cls-3{fill-rule:evenodd;}.cls-3{fill:#00b2ca;}</style></defs><path class="cls-2" d="M1814.12,400.24v-89.65c0-44.15,44.47-68.71,88.94-68.71h68.75v65.27c0,45.32-47.96,93.09-92.69,93.09h-64.99Z"/><path class="cls-3" d="M1791.7,128.82c-45.02,0-90.06,45.75-90.06,90.45v180.89h114.31v-86.97c0-44.71,45.04-69.58,90.06-69.58h65.81v-114.8h-180.12Z"/><g><path class="cls-1" d="M125.95,297.51c8,24.77,20.96,46.87,44.2,46.87,36.96,0,38.49-36.2,38.49-49.16V133.65h61.73v161.58c0,44.2-18.67,107.46-99.08,107.46-60.97,0-89.17-39.25-99.46-85.36l54.11-19.82Z"/><path class="cls-1" d="M532.55,400.4h-68.21l-23.25-55.64h-75.45l-23.25,55.64h-68.21l126.52-269.04h5.33l126.52,269.04Zm-147.09-103.65h35.44l-17.53-42.68-17.91,42.68Z"/><path class="cls-1" d="M738.32,402.69l-70.12-131.47-44.2,129.18h-64.78l100.6-268.28h4.57l76.21,152.05,76.21-152.05h4.57l100.6,268.28h-64.78l-44.2-129.18-70.12,131.47h-4.57Z"/><path class="cls-1" d="M1131.96,266.65c19.82,7.62,34.3,28.58,34.3,52.59,0,36.2-22.48,81.17-96.41,81.17h-102.13V133.65h102.13c73.93,0,96.41,45.35,96.41,81.55,0,18.29-14.1,43.06-34.3,51.45Zm-27.44-51.45c0-6.1-4.19-25.15-30.87-25.15h-45.35v52.97h46.11c26.29-.76,30.1-20.58,30.1-27.82Zm0,104.03c0-8-3.81-24.77-30.1-25.53h-46.11v49.92h45.35c26.68,0,30.87-18.29,30.87-24.39Z"/><path class="cls-1" d="M1321.73,400.4h-60.59v-117.75l-91.08-149h67.45l53.73,89.55,53.73-89.55h67.83l-91.08,148.24v118.51Z"/><path class="cls-1" d="M1508.45,343.62h96.41v56.78h-157.76V133.65h61.35v209.97Z"/></g></svg>