<?xml version="1.0" encoding="UTF-8"?>
<svg width="174px" height="76px" viewBox="0 0 174 76" version="1.1" xmlns="http://www.w3.org/2000/svg" xmlns:xlink="http://www.w3.org/1999/xlink">
    <!-- Generator: Sketch 63.1 (92452) - https://sketch.com -->
    <title>k-tv_Logo_mUZ_RGB</title>
    <desc>Created with Sketch.</desc>
    <defs>
        <polygon id="path-1" points="0.0367741935 0.177741935 173.736047 0.177741935 173.736047 75.8124516 0.0367741935 75.8124516"></polygon>
    </defs>
    <g id="Symbols" stroke="none" stroke-width="1" fill="none" fill-rule="evenodd">
        <g id="Menü" transform="translate(-34.000000, -19.000000)">
            <g id="k-tv_Logo_mUZ_RGB" transform="translate(34.000000, 19.000000)">
                <path d="M7.64903226,75.8124516 L5.52041935,75.8124516 C5.25258065,75.8124516 5.15941935,75.7321613 5.02519355,75.5041613 L3.12458065,72.1981613 C2.89658065,71.8101935 2.736,71.3278387 2.736,71.3278387 L2.70903226,71.3278387 L2.70903226,75.4912903 C2.70903226,75.7051935 2.6023871,75.8124516 2.38787097,75.8124516 L0.460290323,75.8124516 C0.246387097,75.8124516 0.139129032,75.7051935 0.139129032,75.4912903 L0.139129032,66.6832581 C0.139129032,66.4687419 0.246387097,66.3614839 0.460290323,66.3614839 L2.38787097,66.3614839 C2.6023871,66.3614839 2.70903226,66.4687419 2.70903226,66.6832581 L2.70903226,70.2436129 L2.736,70.2436129 L5.19925806,66.6697742 C5.34696774,66.4552581 5.42725806,66.3614839 5.69448387,66.3614839 L7.36770968,66.3614839 C7.58222581,66.3614839 7.6753871,66.4687419 7.6753871,66.6832581 C7.6753871,66.7494516 7.64903226,66.8438387 7.59509677,66.924129 L4.94490323,70.4979677 L7.87641935,75.2369355 C7.93035484,75.3172258 7.97019355,75.411 7.97019355,75.4912903 C7.97019355,75.7051935 7.86293548,75.8124516 7.64903226,75.8124516" id="Fill-1" fill="#333634"></path>
                <path d="M12.5197742,72.4794839 C11.716871,72.6130968 10.9133548,72.9079032 10.9133548,73.8444194 C10.9133548,74.4070645 11.2749677,74.7680645 11.837,74.7680645 C12.198,74.7680645 12.5197742,74.6209677 12.5197742,74.2195161 L12.5197742,72.4794839 Z M14.2867742,75.5580968 C13.8981935,75.7854839 12.8679032,75.9993871 11.9172903,75.9993871 C10.3378387,75.9993871 8.61067742,75.5979355 8.61067742,74.0319677 C8.61067742,72.1577097 10.8600323,71.7832258 12.5197742,71.4884194 L12.5197742,70.6450645 C12.5197742,70.1761935 12.2114839,69.9089677 11.837,69.9089677 C11.368129,69.9089677 11.0874194,70.2975484 10.9801613,70.6315806 C10.8465484,71.0330323 10.4579677,71.2745161 9.93577419,71.2745161 C9.36087097,71.2745161 8.90548387,70.9803226 8.90548387,70.3907097 C8.90548387,69.6546129 9.81564516,68.6905161 12.1581613,68.6905161 C13.6842903,68.6905161 14.8353226,69.3732903 14.8353226,70.8859355 L14.8353226,74.4334194 C14.8353226,75.0095484 14.7286774,75.2902581 14.2867742,75.5580968 L14.2867742,75.5580968 Z" id="Fill-2" fill="#333634"></path>
                <path d="M18.8761935,75.9993871 C17.9660323,75.9993871 16.6813871,75.7051935 16.6813871,73.8713871 L16.6813871,70.1761935 L16.0654194,70.1761935 C15.8515161,70.1761935 15.7577419,70.0695484 15.7577419,69.8556452 L15.7577419,69.1998387 C15.7577419,68.9853226 15.8515161,68.8780645 16.0654194,68.8780645 L16.6813871,68.8780645 L16.6813871,68.0751613 C16.6813871,67.8471613 16.7347097,67.7270323 16.8952903,67.6602258 L18.5550323,66.9909355 C18.6224516,66.9639677 18.6892581,66.924129 18.7695484,66.924129 C18.9705806,66.924129 19.0907097,67.0442581 19.0907097,67.2452903 L19.0907097,68.8780645 L20.0413226,68.8780645 C20.2552258,68.8780645 20.3624839,68.9853226 20.3624839,69.1998387 L20.3624839,69.8556452 C20.3624839,70.0695484 20.2552258,70.1761935 20.0413226,70.1761935 L19.0907097,70.1761935 L19.0907097,73.9381935 C19.0907097,74.6209677 19.411871,74.7950323 19.8139355,74.7950323 C19.8942258,74.7950323 19.9739032,74.7950323 20.0413226,74.7950323 C20.3091613,74.7950323 20.469129,74.942129 20.469129,75.2099677 C20.469129,75.6788387 19.76,75.9993871 18.8761935,75.9993871" id="Fill-3" fill="#333634"></path>
                <path d="M27.6302903,75.8124516 L25.8363226,75.8124516 C25.6218065,75.8124516 25.5286452,75.7051935 25.5286452,75.4912903 L25.5286452,71.06 C25.5286452,70.4575161 25.1933871,70.1633226 24.6583226,70.1633226 C24.3236774,70.1633226 24.0828065,70.2705806 23.8952581,70.4311613 L23.8952581,75.4912903 C23.8952581,75.7051935 23.788,75.8124516 23.5740968,75.8124516 L21.7936129,75.8124516 C21.5797097,75.8124516 21.4724516,75.7051935 21.4724516,75.4912903 L21.4724516,65.8932258 C21.4724516,65.6787097 21.5797097,65.5720645 21.7936129,65.5720645 L23.5740968,65.5720645 C23.788,65.5720645 23.8952581,65.6787097 23.8952581,65.8932258 L23.8952581,69.3199677 C24.1900645,69.0527419 24.8863226,68.6905161 25.8498065,68.6905161 C27.0143226,68.6905161 27.9508387,69.4407097 27.9508387,70.6450645 L27.9508387,75.4912903 C27.9508387,75.7051935 27.8441935,75.8124516 27.6302903,75.8124516" id="Fill-4" fill="#333634"></path>
                <path d="M32.528,69.9622903 C31.8985484,69.9622903 31.5639032,70.7124839 31.5639032,72.225129 C31.5639032,73.7512581 31.8985484,74.5676452 32.540871,74.5676452 C33.1972903,74.5676452 33.5043548,73.8039677 33.5043548,72.2913226 C33.5043548,70.7792903 33.1703226,69.9622903 32.528,69.9622903 Z M32.540871,75.9993871 C30.5060323,75.9993871 29.114129,74.6344516 29.114129,72.3317742 C29.114129,70.0297097 30.5195161,68.6905161 32.540871,68.6905161 C34.5622258,68.6905161 35.9682258,70.0297097 35.9682258,72.3317742 C35.9682258,74.6344516 34.5757097,75.9993871 32.540871,75.9993871 L32.540871,75.9993871 Z" id="Fill-5" fill="#333634"></path>
                <path d="M39.273,75.8124516 L37.4790323,75.8124516 C37.265129,75.8124516 37.1713548,75.7051935 37.1713548,75.4912903 L37.1713548,65.8932258 C37.1713548,65.6787097 37.265129,65.5720645 37.4790323,65.5720645 L39.273,65.5720645 C39.4869032,65.5720645 39.5941613,65.6787097 39.5941613,65.8932258 L39.5941613,75.4912903 C39.5941613,75.7051935 39.4869032,75.8124516 39.273,75.8124516" id="Fill-6" fill="#333634"></path>
                <path d="M43.2207097,75.8124516 L41.4267419,75.8124516 C41.2128387,75.8124516 41.1190645,75.7051935 41.1190645,75.4912903 L41.1190645,69.1998387 C41.1190645,68.9853226 41.2128387,68.8780645 41.4267419,68.8780645 L43.2207097,68.8780645 C43.4352258,68.8780645 43.541871,68.9853226 43.541871,69.1998387 L43.541871,75.4912903 C43.541871,75.7051935 43.4352258,75.8124516 43.2207097,75.8124516 Z M42.3240323,68.1419677 C41.534,68.1419677 41.0522581,67.7000645 41.0522581,67.177871 C41.0522581,66.6562903 41.534,66.2413548 42.3240323,66.2413548 C43.1134516,66.2413548 43.5951935,66.6562903 43.5951935,67.177871 C43.5951935,67.7000645 43.1134516,68.1419677 42.3240323,68.1419677 L42.3240323,68.1419677 Z" id="Fill-7" fill="#333634"></path>
                <path d="M47.6507742,75.9993871 C45.6159355,75.9993871 44.6788065,75.0095484 44.6788065,74.2323871 C44.6788065,73.6703548 45.0539032,73.3363226 45.6294194,73.3363226 C46.1111613,73.3363226 46.5132258,73.5900645 46.6872903,73.9381935 C46.9011935,74.3666129 47.1291935,74.6742903 47.6103226,74.6742903 C47.9590645,74.6742903 48.2532581,74.4334194 48.2532581,74.0454516 C48.2532581,72.6799032 44.8124194,73.055 44.8124194,70.7792903 C44.8124194,69.4137419 46.018,68.6905161 47.6777419,68.6905161 C49.4582258,68.6905161 50.3549032,69.4805484 50.3549032,70.230129 C50.3549032,70.7523226 49.9798065,71.06 49.4717097,71.06 C49.0298065,71.06 48.6418387,70.819129 48.4671613,70.4446452 C48.2930968,70.0695484 48.0791935,69.8017097 47.6642581,69.8017097 C47.2493226,69.8017097 47.0213226,70.0560645 47.0213226,70.4311613 C47.0213226,71.8101935 50.5559355,71.3278387 50.5559355,73.7776129 C50.5559355,75.062871 49.4845806,75.9993871 47.6507742,75.9993871" id="Fill-8" fill="#333634"></path>
                <path d="M54.6372581,75.9993871 C52.8298065,75.9993871 51.4109355,74.7417097 51.4109355,72.3722258 C51.4109355,70.1761935 52.5356129,68.6905161 54.7169355,68.6905161 C56.537871,68.6905161 57.4615161,69.7214194 57.4615161,70.471 C57.4615161,71.06 57.1133871,71.4614516 56.3772903,71.4614516 C55.8146452,71.4614516 55.5474194,71.0869677 55.4131935,70.6720323 C55.3194194,70.3907097 55.1324839,69.9488065 54.6237742,69.9488065 C54.1009677,69.9488065 53.6596774,70.5782581 53.6596774,71.7029355 C53.6596774,72.947129 54.1414194,74.0852903 55.239129,74.0852903 C55.8949355,74.0852903 56.2160968,73.7108065 56.4704516,73.3896452 C56.6181613,73.2155806 56.7787419,73.1218065 56.9926452,73.1218065 C57.2874516,73.1218065 57.475,73.3363226 57.475,73.6703548 C57.475,74.8881935 56.2295806,75.9993871 54.6372581,75.9993871" id="Fill-9" fill="#333634"></path>
                <path d="M64.7152258,75.8124516 L62.9212581,75.8124516 C62.7073548,75.8124516 62.6135806,75.7051935 62.6135806,75.4912903 L62.6135806,71.06 C62.6135806,70.4575161 62.2789355,70.1633226 61.7432581,70.1633226 C61.4086129,70.1633226 61.1677419,70.2705806 60.9801935,70.4311613 L60.9801935,75.4912903 C60.9801935,75.7051935 60.8735484,75.8124516 60.6590323,75.8124516 L58.8785484,75.8124516 C58.6646452,75.8124516 58.5573871,75.7051935 58.5573871,75.4912903 L58.5573871,65.8932258 C58.5573871,65.6787097 58.6646452,65.5720645 58.8785484,65.5720645 L60.6590323,65.5720645 C60.8735484,65.5720645 60.9801935,65.6787097 60.9801935,65.8932258 L60.9801935,69.3199677 C61.275,69.0527419 61.9712581,68.6905161 62.9347419,68.6905161 C64.099871,68.6905161 65.0363871,69.4407097 65.0363871,70.6450645 L65.0363871,75.4912903 C65.0363871,75.7051935 64.9297419,75.8124516 64.7152258,75.8124516" id="Fill-10" fill="#333634"></path>
                <path d="M69.3316129,69.9488065 C68.5421935,69.9488065 68.2743548,70.8460968 68.260871,71.5956774 L70.2552581,71.2610323 C70.2417742,70.6315806 70.027871,69.9488065 69.3316129,69.9488065 Z M69.6129355,75.9993871 C67.6583871,75.9993871 66.1990645,74.8354839 66.1990645,72.2649677 C66.1990645,69.7882258 67.7521613,68.6905161 69.5859677,68.6905161 C71.2591935,68.6905161 72.4776452,69.9089677 72.4776452,71.5019032 C72.4776452,71.9707742 72.3029677,72.1172581 71.915,72.1846774 L68.4343226,72.7467097 C68.609,73.5502258 69.0907419,74.1661935 70.0811935,74.1661935 C70.7909355,74.1661935 71.313129,73.7108065 71.5405161,73.4294839 C71.6606452,73.2823871 71.8083548,73.1886129 72.0222581,73.1886129 C72.2900968,73.1886129 72.491129,73.4025161 72.491129,73.7108065 C72.491129,74.9016774 71.1789032,75.9993871 69.6129355,75.9993871 L69.6129355,75.9993871 Z" id="Fill-11" fill="#333634"></path>
                <path d="M76.3046129,75.9993871 C74.2697742,75.9993871 73.3326452,75.0095484 73.3326452,74.2323871 C73.3326452,73.6703548 73.707129,73.3363226 74.2832581,73.3363226 C74.765,73.3363226 75.1670645,73.5900645 75.3405161,73.9381935 C75.5550323,74.3666129 75.7824194,74.6742903 76.2641613,74.6742903 C76.6122903,74.6742903 76.9064839,74.4334194 76.9064839,74.0454516 C76.9064839,72.6799032 73.4662581,73.055 73.4662581,70.7792903 C73.4662581,69.4137419 74.6712258,68.6905161 76.3315806,68.6905161 C78.1114516,68.6905161 79.0087419,69.4805484 79.0087419,70.230129 C79.0087419,70.7523226 78.6336452,71.06 78.1249355,71.06 C77.6836452,71.06 77.2950645,70.819129 77.121,70.4446452 C76.9469355,70.0695484 76.7324194,69.8017097 76.3180968,69.8017097 C75.9025484,69.8017097 75.6751613,70.0560645 75.6751613,70.4311613 C75.6751613,71.8101935 79.2091613,71.3278387 79.2091613,73.7776129 C79.2091613,75.062871 78.1384194,75.9993871 76.3046129,75.9993871" id="Fill-12" fill="#333634"></path>
                <path d="M89.3134839,68.0347097 L86.7969032,68.0347097 L86.7969032,70.1498387 L88.8715806,70.1498387 C89.0854839,70.1498387 89.1927419,70.2570968 89.1927419,70.471 L89.1927419,71.4749355 C89.1927419,71.6894516 89.0854839,71.7832258 88.8715806,71.7832258 L86.7969032,71.7832258 L86.7969032,75.4912903 C86.7969032,75.7051935 86.6896452,75.8124516 86.4757419,75.8124516 L84.5077097,75.8124516 C84.2938065,75.8124516 84.1859355,75.7051935 84.1859355,75.4912903 L84.1859355,66.6832581 C84.1859355,66.4687419 84.2938065,66.3614839 84.5077097,66.3614839 L89.3134839,66.3614839 C89.5273871,66.3614839 89.6211613,66.4687419 89.6211613,66.6832581 L89.6211613,67.7135484 C89.6211613,67.9280645 89.5273871,68.0347097 89.3134839,68.0347097" id="Fill-13" fill="#333634"></path>
                <path d="M93.3819355,69.9488065 C92.5919032,69.9488065 92.3240645,70.8460968 92.3105806,71.5956774 L94.3055806,71.2610323 C94.2920968,70.6315806 94.0781935,69.9488065 93.3819355,69.9488065 Z M93.6626452,75.9993871 C91.7087097,75.9993871 90.2493871,74.8354839 90.2493871,72.2649677 C90.2493871,69.7882258 91.8024839,68.6905161 93.6362903,68.6905161 C95.3095161,68.6905161 96.5279677,69.9089677 96.5279677,71.5019032 C96.5279677,71.9707742 96.3539032,72.1172581 95.9653226,72.1846774 L92.4846452,72.7467097 C92.6593226,73.5502258 93.1404516,74.1661935 94.1315161,74.1661935 C94.8406452,74.1661935 95.3628387,73.7108065 95.5908387,73.4294839 C95.7109677,73.2823871 95.8586774,73.1886129 96.0725806,73.1886129 C96.3404194,73.1886129 96.5408387,73.4025161 96.5408387,73.7108065 C96.5408387,74.9016774 95.2292258,75.9993871 93.6626452,75.9993871 L93.6626452,75.9993871 Z" id="Fill-14" fill="#333634"></path>
                <path d="M102.135419,71.0465161 C101.064065,71.0465161 101.385226,69.9757742 100.649129,69.9757742 C100.327355,69.9757742 100.126935,70.1498387 100.126935,70.4446452 L100.126935,75.4912903 C100.126935,75.7051935 100.019677,75.8124516 99.8057742,75.8124516 L98.0252903,75.8124516 C97.8113871,75.8124516 97.704129,75.7051935 97.704129,75.4912903 L97.704129,70.0027419 C97.704129,69.4940323 97.8113871,69.3064839 98.2796452,69.1054516 C98.762,68.8915484 99.7254839,68.6905161 100.796226,68.6905161 C102.403258,68.6905161 103.058452,69.2531613 103.058452,70.0162258 C103.058452,70.6720323 102.73729,71.0465161 102.135419,71.0465161" id="Fill-15" fill="#333634"></path>
                <path d="M110.017968,75.8124516 L108.224,75.8124516 C108.010097,75.8124516 107.916323,75.7051935 107.916323,75.4912903 L107.916323,70.8595806 C107.916323,70.3637419 107.702419,69.9622903 107.059484,69.9622903 C106.403677,69.9622903 106.283548,70.2975484 106.283548,70.7124839 L106.283548,75.4912903 C106.283548,75.7051935 106.17629,75.8124516 105.962387,75.8124516 L104.18129,75.8124516 C103.967387,75.8124516 103.860742,75.7051935 103.860742,75.4912903 L103.860742,70.0027419 C103.860742,69.4940323 103.980871,69.3199677 104.436258,69.1189355 C104.958452,68.8915484 106.055548,68.6905161 107.12629,68.6905161 C109.067355,68.6905161 110.339129,69.3732903 110.339129,70.7523226 L110.339129,75.4912903 C110.339129,75.7051935 110.232484,75.8124516 110.017968,75.8124516" id="Fill-16" fill="#333634"></path>
                <path d="M114.420452,75.9993871 C112.385613,75.9993871 111.448484,75.0095484 111.448484,74.2323871 C111.448484,73.6703548 111.822968,73.3363226 112.399097,73.3363226 C112.880839,73.3363226 113.282903,73.5900645 113.456355,73.9381935 C113.670871,74.3666129 113.898258,74.6742903 114.38,74.6742903 C114.728129,74.6742903 115.022323,74.4334194 115.022323,74.0454516 C115.022323,72.6799032 111.58271,73.055 111.58271,70.7792903 C111.58271,69.4137419 112.787065,68.6905161 114.447419,68.6905161 C116.227903,68.6905161 117.124581,69.4805484 117.124581,70.230129 C117.124581,70.7523226 116.749484,71.06 116.240774,71.06 C115.799484,71.06 115.411516,70.819129 115.236839,70.4446452 C115.062774,70.0695484 114.848871,69.8017097 114.433935,69.8017097 C114.018387,69.8017097 113.791,70.0560645 113.791,70.4311613 C113.791,71.8101935 117.325613,71.3278387 117.325613,73.7776129 C117.325613,75.062871 116.254871,75.9993871 114.420452,75.9993871" id="Fill-17" fill="#333634"></path>
                <path d="M121.312548,69.9488065 C120.523129,69.9488065 120.25529,70.8460968 120.241806,71.5956774 L122.236194,71.2610323 C122.22271,70.6315806 122.008806,69.9488065 121.312548,69.9488065 Z M121.593871,75.9993871 C119.639323,75.9993871 118.18,74.8354839 118.18,72.2649677 C118.18,69.7882258 119.73371,68.6905161 121.566903,68.6905161 C123.240129,68.6905161 124.458581,69.9089677 124.458581,71.5019032 C124.458581,71.9707742 124.283903,72.1172581 123.895935,72.1846774 L120.415871,72.7467097 C120.589935,73.5502258 121.071677,74.1661935 122.062129,74.1661935 C122.771871,74.1661935 123.294065,73.7108065 123.521452,73.4294839 C123.641581,73.2823871 123.78929,73.1886129 124.003194,73.1886129 C124.271032,73.1886129 124.471452,73.4025161 124.471452,73.7108065 C124.471452,74.9016774 123.159839,75.9993871 121.593871,75.9993871 L121.593871,75.9993871 Z" id="Fill-18" fill="#333634"></path>
                <path d="M131.792581,75.8124516 L129.999226,75.8124516 C129.78471,75.8124516 129.691548,75.7051935 129.691548,75.4912903 L129.691548,71.06 C129.691548,70.4575161 129.35629,70.1633226 128.821226,70.1633226 C128.485968,70.1633226 128.245097,70.2705806 128.058161,70.4311613 L128.058161,75.4912903 C128.058161,75.7051935 127.950903,75.8124516 127.736387,75.8124516 L125.956516,75.8124516 C125.742,75.8124516 125.634742,75.7051935 125.634742,75.4912903 L125.634742,65.8932258 C125.634742,65.6787097 125.742,65.5720645 125.956516,65.5720645 L127.736387,65.5720645 C127.950903,65.5720645 128.058161,65.6787097 128.058161,65.8932258 L128.058161,69.3199677 C128.352355,69.0527419 129.048613,68.6905161 130.012097,68.6905161 C131.176613,68.6905161 132.113742,69.4407097 132.113742,70.6450645 L132.113742,75.4912903 C132.113742,75.7051935 132.007097,75.8124516 131.792581,75.8124516" id="Fill-19" fill="#333634"></path>
                <path d="M136.409581,69.9488065 C135.618935,69.9488065 135.35171,70.8460968 135.338226,71.5956774 L137.332613,71.2610323 C137.319742,70.6315806 137.105226,69.9488065 136.409581,69.9488065 Z M136.69029,75.9993871 C134.735742,75.9993871 133.277032,74.8354839 133.277032,72.2649677 C133.277032,69.7882258 134.829516,68.6905161 136.663935,68.6905161 C138.336548,68.6905161 139.555,69.9089677 139.555,71.5019032 C139.555,71.9707742 139.380935,72.1172581 138.992355,72.1846774 L135.51229,72.7467097 C135.686355,73.5502258 136.168097,74.1661935 137.159161,74.1661935 C137.867677,74.1661935 138.390484,73.7108065 138.617871,73.4294839 C138.738,73.2823871 138.886323,73.1886129 139.100226,73.1886129 C139.367452,73.1886129 139.568484,73.4025161 139.568484,73.7108065 C139.568484,74.9016774 138.256871,75.9993871 136.69029,75.9993871 L136.69029,75.9993871 Z" id="Fill-20" fill="#333634"></path>
                <g id="Group-26">
                    <mask id="mask-2" fill="white">
                        <use xlink:href="#path-1"></use>
                    </mask>
                    <g id="Clip-22"></g>
                    <path d="M146.889,75.8124516 L145.095032,75.8124516 C144.881129,75.8124516 144.787355,75.7051935 144.787355,75.4912903 L144.787355,70.8595806 C144.787355,70.3637419 144.573452,69.9622903 143.931129,69.9622903 C143.275323,69.9622903 143.153968,70.2975484 143.153968,70.7124839 L143.153968,75.4912903 C143.153968,75.7051935 143.047935,75.8124516 142.833419,75.8124516 L141.052935,75.8124516 C140.838419,75.8124516 140.731774,75.7051935 140.731774,75.4912903 L140.731774,70.0027419 C140.731774,69.4940323 140.852516,69.3199677 141.30729,69.1189355 C141.829484,68.8915484 142.926581,68.6905161 143.997323,68.6905161 C145.938387,68.6905161 147.210774,69.3732903 147.210774,70.7523226 L147.210774,75.4912903 C147.210774,75.7051935 147.103516,75.8124516 146.889,75.8124516" id="Fill-21" fill="#333634" mask="url(#mask-2)"></path>
                    <path d="M32.7443548,53.3795806 L23.2658065,53.3795806 C21.9400968,53.3795806 21.5423226,52.9818065 20.8129677,51.8546774 L13.7872581,40.7194516 C12.660129,38.9303871 11.9969677,36.9409032 11.9969677,36.9409032 L11.8645806,36.9409032 L11.8645806,51.7884839 C11.8645806,52.8500323 11.3344194,53.3795806 10.2740968,53.3795806 L1.59048387,53.3795806 C0.53016129,53.3795806 0,52.8500323 0,51.7884839 L0,4.26274194 C0,3.20241935 0.53016129,2.67225806 1.59048387,2.67225806 L10.2740968,2.67225806 C11.3344194,2.67225806 11.8645806,3.20241935 11.8645806,4.26274194 L11.8645806,32.8313871 L11.9969677,32.8313871 L21.1451613,20.5690323 C21.9400968,19.5080968 22.2054839,19.044129 23.5305806,19.044129 L31.6840323,19.044129 C32.7443548,19.044129 33.2745161,19.5742903 33.2745161,20.6352258 C33.2745161,20.9668065 33.0753226,21.4969677 32.7443548,21.8285484 L22.337871,33.6937419 L33.9376774,50.5963871 C34.2024516,50.9935484 34.3354516,51.458129 34.3354516,51.7884839 C34.3354516,52.8500323 33.8052903,53.3795806 32.7443548,53.3795806" id="Fill-23" fill="#EE9C44" mask="url(#mask-2)"></path>
                    <path d="M109.74829,19.044129 L102.522774,19.044129 C101.330065,19.044129 100.866097,19.4419032 100.534516,20.5028387 L96.292,35.682 C95.430871,38.7311935 94.9000968,42.9069032 94.9000968,42.9069032 L94.7683226,42.9069032 C94.7683226,42.9069032 94.3705484,38.7311935 93.575,35.682 L89.5316774,20.5028387 C89.2662903,19.4419032 88.7355161,19.044129 87.609,19.044129 L68.0549355,19.044129 L68.0549355,10.9574839 C68.0549355,9.96335484 67.4579677,9.3663871 66.4638387,9.3663871 C66.0660645,9.3663871 65.7350968,9.56558065 65.4035161,9.69796774 L57.1844839,13.0125484 C56.3889355,13.344129 56.1235484,13.9404839 56.1235484,15.0676129 L56.1235484,19.044129 L53.0749677,19.044129 C52.0140323,19.044129 51.5500645,19.5742903 51.5500645,20.6352258 L51.5500645,23.883 C51.5500645,24.9439355 52.0140323,25.4734839 53.0749677,25.4734839 L56.1235484,25.4734839 L56.1235484,43.7686452 C56.1235484,52.8500323 62.4873226,54.3075161 66.994,54.3075161 C71.3689032,54.3075161 74.8820645,52.7170323 74.8820645,50.3971935 C74.8820645,49.0714839 74.087129,48.3427419 72.7614194,48.3427419 C72.4298387,48.3427419 72.0320645,48.3427419 71.6342903,48.3427419 C69.6460323,48.3427419 68.0549355,47.481 68.0549355,44.1002258 L68.0549355,25.4734839 L78.3449677,25.4734839 L87.2780323,51.9214839 C87.609,52.9818065 88.1397742,53.3795806 89.3324839,53.3795806 L98.9440323,53.3795806 C100.137355,53.3795806 100.60071,52.9818065 100.93229,51.9214839 L111.074,21.8947419 C111.206387,21.4307742 111.339387,21.033 111.339387,20.6352258 C111.339387,19.5742903 110.808613,19.044129 109.74829,19.044129" id="Fill-24" fill="#333634" mask="url(#mask-2)"></path>
                    <path d="M132.205065,47.6176774 C129.007548,47.6176774 126.405774,45.0165161 126.405774,41.8183871 C126.405774,38.620871 129.007548,36.0190968 132.205065,36.0190968 C135.403194,36.0190968 138.004355,38.620871 138.004355,41.8183871 C138.004355,45.0165161 135.403194,47.6176774 132.205065,47.6176774 Z M172.548194,14.8953871 L165.086097,8.98454839 C164.879548,8.82151613 164.844613,8.52058065 165.008258,8.31464516 L165.711258,7.42654839 C166.231613,6.76951613 166.464516,5.94945161 166.367677,5.11774194 C166.271452,4.28541935 165.855903,3.54074194 165.199484,3.021 L162.465323,0.855612903 C161.91371,0.418612903 161.222968,0.177741935 160.519355,0.177741935 C159.554645,0.177741935 158.657968,0.611064516 158.059774,1.36677419 L137.223516,27.676871 C137.135258,27.7878065 137.000419,27.8515484 136.853935,27.8515484 C136.792645,27.8515484 136.730742,27.8405161 136.67129,27.8184516 C134.855258,27.1436452 132.971806,26.8016452 131.073032,26.8016452 C126.608645,26.8016452 122.538355,28.7169677 119.90471,32.0572903 C114.946323,38.3450645 116.457129,47.8321935 123.270774,53.2049032 C126.213323,55.5247419 129.828226,56.8020323 133.449258,56.8020323 C137.914871,56.8020323 141.986387,54.8860968 144.620645,51.5451613 C148.423097,46.7228387 148.521774,39.7939677 144.866419,34.3035806 C144.74629,34.1227742 144.750581,33.8929355 144.877452,33.7329677 L152.175903,24.5167419 C152.305226,24.3537097 152.481129,24.3365484 152.551,24.3365484 C152.625774,24.3365484 152.738548,24.3543226 152.846419,24.4395161 L160.309129,30.3497419 C160.860742,30.7867419 161.552097,31.0276129 162.254484,31.0276129 C163.219806,31.0276129 164.116484,30.5942903 164.714677,29.8385806 L168.189839,25.4495806 C168.070935,25.4085161 167.95571,25.3466129 167.850903,25.263871 L161.262806,20.0554194 L159.416129,22.3924194 C159.186903,22.6823226 158.846129,22.8337097 158.50229,22.8337097 C158.249774,22.8337097 157.995419,22.7521935 157.782129,22.5830323 C157.27771,22.1846452 157.192516,21.4528387 157.590903,20.9490323 L159.438194,18.6126452 L157.753935,17.2808065 C157.249516,16.8824194 157.164323,16.1512258 157.56271,15.6468065 C157.961097,15.143 158.692903,15.0571935 159.197323,15.4555806 L160.880968,16.7874194 L162.728258,14.4510323 C163.126032,13.9466129 163.858452,13.8614194 164.362871,14.2598065 C164.866065,14.6581935 164.951871,15.39 164.552871,15.8938065 L162.706806,18.2301935 L169.29429,23.4392581 C169.400323,23.5226129 169.483065,23.623129 169.55171,23.731 L173.059968,19.3009355 C174.133161,17.9451935 173.903935,15.9685806 172.548194,14.8953871 L172.548194,14.8953871 Z" id="Fill-25" fill="#333634" mask="url(#mask-2)"></path>
                </g>
                <path d="M41.3047742,41.7460645 C37.6463548,41.7460645 34.6835806,38.7826774 34.6835806,35.124871 C34.6835806,31.4664516 37.6463548,28.5036774 41.3047742,28.5036774 C44.9631935,28.5036774 47.9253548,31.4664516 47.9253548,35.124871 C47.9253548,38.7826774 44.9631935,41.7460645 41.3047742,41.7460645" id="Fill-27" fill="#333634"></path>
            </g>
        </g>
    </g>
</svg>