<?xml version="1.0" encoding="UTF-8"?>
<!DOCTYPE svg PUBLIC "-//W3C//DTD SVG 1.1//EN" "http://www.w3.org/Graphics/SVG/1.1/DTD/svg11.dtd">
<!-- Creator: CorelDRAW 2019 (64-Bit) -->
<svg xmlns="http://www.w3.org/2000/svg" xml:space="preserve" width="264px" height="40px" version="1.1" style="shape-rendering:geometricPrecision; text-rendering:geometricPrecision; image-rendering:optimizeQuality; fill-rule:evenodd; clip-rule:evenodd"
viewBox="0 0 264 40"
 xmlns:xlink="http://www.w3.org/1999/xlink"
 xmlns:xodm="http://www.corel.com/coreldraw/odm/2003">
 <defs>
  <style type="text/css">
   <![CDATA[
    .fil0 {fill:#14287F;fill-rule:nonzero}
   ]]>
  </style>
 </defs>
 <g id="Layer_x0020_1">
  <metadata id="CorelCorpID_0Corel-Layer"/>
  <g id="_808615344">
   <g>
    <polygon class="fil0" points="226.695,22.088 230.626,22.088 230.626,4.072 226.695,4.072 "/>
    <polygon class="fil0" points="245.339,5.886 242.503,3.075 232.425,13.066 242.521,23.075 245.356,20.264 238.096,13.066 "/>
    <path class="fil0" d="M254.94 4.077l-4.387 0 0 3.898 4.387 0c2.828,0 5.128,2.281 5.128,5.085 0,2.831 -2.3,5.132 -5.128,5.132l-4.387 0 0 3.899 4.387 0c4.996,0 9.06,-4.052 9.06,-9.031 0,-4.953 -4.064,-8.983 -9.06,-8.983z"/>
    <polygon class="fil0" points="215.615,28.034 219.546,28.034 219.546,1.078 215.615,1.078 "/>
   </g>
   <g>
    <path class="fil0" d="M200.826 19.831l0 19.998 -12.437 0 0 -20.671c0,-4.077 -3.317,-7.394 -7.394,-7.394 -4.077,0 -7.395,3.317 -7.395,7.394l0 20.671 -12.436 0 0 -19.998c0,-10.935 8.896,-19.831 19.831,-19.831 10.934,0 19.831,8.896 19.831,19.831z"/>
    <path class="fil0" d="M77.447 1.066l-12.369 0 0 11.765 11.698 0c4.199,0 7.604,3.404 7.604,7.604 0,4.2 -3.405,7.605 -7.604,7.605l-11.698 0 0 11.763 12.075 0c10.629,0 19.498,-8.44 19.66,-19.067 0.166,-10.817 -8.586,-19.67 -19.366,-19.67z"/>
    <path class="fil0" d="M126.788 25.495c0,1.405 -1.14,2.545 -2.544,2.545l-5.691 0 0 11.763 9.444 0c6.201,0 11.227,-5.026 11.227,-11.226l0 -27.5 -12.436 0 0 24.418z"/>
    <polygon class="fil0" points="100.958,39.829 113.394,39.829 113.394,1.078 100.958,1.078 "/>
    <polygon class="fil0" points="144.383,24.032 156.818,24.032 156.818,1.077 144.383,1.077 "/>
    <polygon class="fil0" points="47.483,24.032 59.918,24.032 59.918,1.077 47.483,1.077 "/>
    <path class="fil0" d="M23.585 1.066l-22.128 0 0 11.765 4.503 0 0.001 12.665c0,1.404 -1.138,2.544 -2.543,2.544l-3.339 0 0 11.763 5.165 0c3.422,0 6.761,-1.249 9.22,-3.629 2.534,-2.455 3.934,-5.759 3.933,-9.279l0 -14.064 5.188 0c4.004,0 7.249,3.245 7.249,7.249l0 19.749 12.436 0 0 -19.077c0,-10.872 -8.813,-19.686 -19.685,-19.686z"/>
   </g>
  </g>
 </g>
</svg>
