<?xml version="1.0" encoding="UTF-8"?>
<svg width="129px" height="111px" viewBox="0 0 129 111" version="1.1" xmlns="http://www.w3.org/2000/svg" xmlns:xlink="http://www.w3.org/1999/xlink">
    <title>Kanal Logo</title>
    <defs>
        <linearGradient x1="13.4514222%" y1="142.830176%" x2="110.137868%" y2="0%" id="linearGradient-1">
            <stop stop-color="#000000" offset="0%"></stop>
            <stop stop-color="#818181" offset="0%"></stop>
            <stop stop-color="#777777" offset="100%"></stop>
        </linearGradient>
    </defs>
    <g id="Symbols" stroke="none" stroke-width="1" fill="none" fill-rule="evenodd">
        <g id="FOOTER" transform="translate(-330.000000, -248.000000)" fill="url(#linearGradient-1)" fill-rule="nonzero">
            <g id="Kanal7yekim">
                <g transform="translate(330.000000, 248.000000)">
                    <path d="M64.3573983,69.1408506 C73.8900477,57.6814445 85.6522646,43.5461726 92.0826239,35.8493002 C94.9526222,32.4196391 94.6139537,30.2076473 94.6139537,30.2076473 C94.6139537,26.241095 91.3662098,23.0326331 87.3673165,23.0068623 L87.345607,23.0068623 L87.3304104,23.0068623 L31.4653073,23.0068623 L21.6265537,37.4213177 L69.1660565,37.4213177 L47.9753959,68.225988 C30.7706028,64.4741922 17.8577814,52.2588433 17.8577814,37.631779 L17.8577814,37.2623979 C17.8577814,19.6137099 36.6386855,5.48702821 59.0906692,5.48702821 C81.5426528,5.48702821 99.7417419,19.7984004 99.7417419,37.449236 C99.7417419,53.7041544 84.3149583,67.1285824 64.3573983,69.1408506 M65.0043419,0 C36.840584,0 14,16.7660389 14,37.4513836 C14,53.0169337 26.9518985,66.370492 45.3593989,72.01644 L35.0625745,87 L49.5276264,87 C49.5276264,87 53.780521,81.8716151 59.7397838,74.7094863 C61.4722033,74.8340451 63.2285033,74.9049147 65.0043419,74.9049147 C93.1724417,74.9049147 116,58.1259905 116,37.4513836 C116.002171,16.7660389 93.1724417,0 65.0043419,0" id="Shape"></path>
                    <polygon id="Shape" points="11.7171884 93 5.34003295 100.436386 5.27951675 100.436386 5.27951675 93 0 93 0 111 5.27951675 111 5.27951675 103.201446 5.34003295 103.201446 12.1533224 111 19 111 10.1813289 101.531566 18.2738056 93"></polygon>
                    <path d="M33.0345844,98.5581535 L33.0799764,98.5581535 L35.3149931,104.294203 L30.7649833,104.294203 L33.0345844,98.5581535 Z M30.0862645,93 L22,111 L27.8015327,111 L29.2562389,107.878149 L36.7956376,107.878149 L38.1682059,111 L44,111 L36.0715268,93 L30.0862645,93 Z" id="Shape"></path>
                    <polygon id="Shape" points="61.2776921 93 61.2776921 104.006024 61.2233878 104.006024 50.7223079 93 45 93 45 111 50.7223079 111 50.7223079 99.9744578 50.7834002 99.9744578 61.2776921 111 67 111 67 93"></polygon>
                    <path d="M79.0302613,98.5581535 L79.0886225,98.5581535 L81.3214777,104.294203 L76.7757909,104.294203 L79.0302613,98.5581535 Z M76.0992336,93 L68,111 L73.8123403,111 L75.2584005,107.878149 L82.7956376,107.878149 L84.1682059,111 L90,111 L82.0823344,93 L76.0992336,93 Z" id="Shape"></path>
                    <polygon id="Shape" points="93 93 93 111 105 111 105 107.042169 98.4506284 107.042169 98.4506284 93"></polygon>
                    <polygon id="Shape" points="111.814762 93 111.814762 96.9643373 120.553565 96.9643373 111 111 116.976353 111 129 93"></polygon>
                </g>
            </g>
        </g>
    </g>
</svg>