<?xml version="1.0" encoding="utf-8"?>
<!-- Generator: Adobe Illustrator 27.2.0, SVG Export Plug-In . SVG Version: 6.00 Build 0)  -->
<svg version="1.1" id="Layer_1" xmlns="http://www.w3.org/2000/svg" xmlns:xlink="http://www.w3.org/1999/xlink" x="0px" y="0px"
	 viewBox="0 0 501 161.35" style="enable-background:new 0 0 501 161.35;" xml:space="preserve">
<style type="text/css">
	.st0{fill:#29A9E1;stroke:#29A9E1;stroke-width:2;}
	.st1{fill:#FFFFFF;}
</style>
<g>
	<g>
		<path d="M51.31,120.56c0,0.49-0.1,0.92-0.3,1.3c-0.2,0.38-0.58,0.69-1.14,0.93c-0.56,0.25-1.33,0.43-2.31,0.57
			c-0.98,0.13-2.21,0.2-3.69,0.2c-2.35,0-4.04-0.11-5.08-0.33c-1.03-0.22-1.77-0.55-2.23-1c-0.45-0.44-0.81-0.98-1.06-1.6
			L14.28,79.71v40.91c0,0.49-0.11,0.91-0.33,1.27c-0.22,0.36-0.6,0.66-1.14,0.9c-0.54,0.25-1.27,0.43-2.17,0.57
			c-0.91,0.13-2.06,0.2-3.47,0.2c-1.38,0-2.53-0.07-3.45-0.2c-0.92-0.13-1.66-0.32-2.2-0.57c-0.54-0.24-0.93-0.54-1.17-0.9
			C0.12,121.54,0,121.12,0,120.62V39.4c0-0.49,0.12-0.91,0.35-1.27c0.23-0.36,0.62-0.64,1.17-0.87c0.54-0.22,1.28-0.4,2.2-0.53
			c0.92-0.13,2.07-0.2,3.45-0.2c1.41,0,2.57,0.07,3.47,0.2c0.9,0.13,1.63,0.31,2.17,0.53c0.54,0.22,0.92,0.51,1.14,0.87
			c0.22,0.36,0.33,0.78,0.33,1.27v36.72l20.58-36.65c0.25-0.58,0.56-1.05,0.92-1.43c0.36-0.38,0.83-0.68,1.41-0.9
			c0.58-0.22,1.32-0.38,2.23-0.47c0.9-0.09,2.06-0.13,3.47-0.13c1.45,0,2.64,0.07,3.58,0.2c0.94,0.13,1.69,0.32,2.25,0.57
			c0.56,0.24,0.95,0.54,1.17,0.9c0.22,0.36,0.33,0.76,0.33,1.2c0,0.76-0.16,1.53-0.49,2.33c-0.33,0.8-0.94,2.07-1.85,3.8
			L28.61,76.51l21.01,38.98c0.8,1.82,1.28,3.03,1.44,3.63C51.22,119.73,51.31,120.2,51.31,120.56z"/>
		<path d="M122.36,116.63c0.43,1.6,0.71,2.86,0.81,3.8c0.11,0.93-0.04,1.63-0.43,2.1c-0.4,0.46-1.1,0.75-2.12,0.86
			c-1.01,0.11-2.41,0.17-4.18,0.17c-1.85,0-3.28-0.03-4.32-0.1c-1.03-0.07-1.82-0.2-2.36-0.4c-0.54-0.2-0.92-0.48-1.14-0.83
			c-0.22-0.36-0.4-0.82-0.54-1.4l-4.72-17.33H76.97l-4.45,16.86c-0.15,0.62-0.34,1.14-0.57,1.57c-0.24,0.42-0.62,0.76-1.14,1
			c-0.52,0.24-1.27,0.41-2.23,0.5c-0.96,0.09-2.22,0.13-3.77,0.13c-1.67,0-2.97-0.07-3.91-0.2c-0.94-0.13-1.59-0.46-1.95-0.97
			c-0.36-0.51-0.49-1.23-0.38-2.17c0.11-0.93,0.38-2.18,0.81-3.73l21.66-76.5c0.22-0.76,0.47-1.37,0.76-1.83
			c0.29-0.47,0.75-0.82,1.38-1.07c0.63-0.24,1.51-0.4,2.63-0.47c1.12-0.07,2.61-0.1,4.45-0.1c2.14,0,3.84,0.03,5.1,0.1
			c1.27,0.07,2.25,0.22,2.96,0.47c0.71,0.24,1.21,0.61,1.52,1.1c0.31,0.49,0.57,1.16,0.79,2L122.36,116.63z M90.11,53.39h-0.05
			l-9.93,36.65h19.92L90.11,53.39z"/>
		<path d="M194.12,117.03c0,1.02-0.14,1.93-0.43,2.73c-0.29,0.8-0.68,1.47-1.17,2c-0.49,0.53-1.07,0.92-1.74,1.17
			c-0.67,0.24-1.35,0.37-2.04,0.37h-6.08c-1.27,0-2.36-0.16-3.28-0.47c-0.92-0.31-1.77-0.88-2.55-1.7
			c-0.78-0.82-1.53-1.93-2.25-3.33c-0.73-1.4-1.54-3.21-2.44-5.43l-17.48-40.31c-1.01-2.4-2.04-4.99-3.09-7.76
			c-1.05-2.78-1.99-5.48-2.82-8.1h-0.11c0.14,3.2,0.25,6.39,0.33,9.56c0.07,3.17,0.11,6.45,0.11,9.83v45.11c0,0.44-0.1,0.85-0.3,1.2
			c-0.2,0.36-0.54,0.66-1.03,0.9c-0.49,0.25-1.15,0.43-1.98,0.57c-0.83,0.13-1.9,0.2-3.2,0.2c-1.27,0-2.32-0.07-3.15-0.2
			c-0.83-0.13-1.48-0.32-1.95-0.57c-0.47-0.24-0.8-0.54-0.98-0.9c-0.18-0.35-0.27-0.75-0.27-1.2v-77.5c0-2.09,0.5-3.65,1.49-4.7
			c1-1.04,2.22-1.57,3.66-1.57H149c1.37,0,2.53,0.14,3.47,0.43c0.94,0.29,1.78,0.77,2.52,1.43c0.74,0.67,1.44,1.59,2.09,2.77
			c0.65,1.18,1.32,2.63,2.01,4.36l13.68,31.52c0.8,1.91,1.58,3.79,2.36,5.63c0.78,1.84,1.53,3.69,2.25,5.53
			c0.72,1.85,1.43,3.65,2.12,5.43c0.69,1.77,1.36,3.55,2.01,5.33h0.05c-0.11-3.11-0.19-6.35-0.24-9.73
			c-0.05-3.38-0.08-6.6-0.08-9.66V39.53c0-0.44,0.11-0.84,0.33-1.2c0.22-0.36,0.58-0.67,1.09-0.93c0.51-0.27,1.18-0.46,2.01-0.57
			c0.83-0.11,1.9-0.17,3.2-0.17c1.23,0,2.26,0.06,3.09,0.17c0.83,0.11,1.47,0.3,1.93,0.57c0.45,0.27,0.77,0.58,0.95,0.93
			c0.18,0.36,0.27,0.76,0.27,1.2V117.03z"/>
		<path d="M270.98,116.63c0.43,1.6,0.71,2.86,0.81,3.8c0.11,0.93-0.03,1.63-0.43,2.1c-0.4,0.46-1.11,0.75-2.12,0.86
			c-1.01,0.11-2.41,0.17-4.18,0.17c-1.85,0-3.28-0.03-4.32-0.1c-1.03-0.07-1.82-0.2-2.36-0.4c-0.54-0.2-0.92-0.48-1.14-0.83
			c-0.22-0.36-0.4-0.82-0.54-1.4l-4.72-17.33h-26.39l-4.45,16.86c-0.15,0.62-0.34,1.14-0.57,1.57c-0.24,0.42-0.62,0.76-1.14,1
			c-0.53,0.24-1.27,0.41-2.23,0.5c-0.96,0.09-2.22,0.13-3.77,0.13c-1.66,0-2.97-0.07-3.91-0.2c-0.94-0.13-1.59-0.46-1.95-0.97
			c-0.36-0.51-0.49-1.23-0.38-2.17c0.11-0.93,0.38-2.18,0.81-3.73l21.66-76.5c0.22-0.76,0.47-1.37,0.76-1.83
			c0.29-0.47,0.75-0.82,1.38-1.07c0.63-0.24,1.51-0.4,2.63-0.47c1.12-0.07,2.61-0.1,4.45-0.1c2.13,0,3.84,0.03,5.1,0.1
			c1.27,0.07,2.25,0.22,2.96,0.47c0.71,0.24,1.21,0.61,1.52,1.1c0.31,0.49,0.57,1.16,0.79,2L270.98,116.63z M238.73,53.39h-0.05
			l-9.94,36.65h19.93L238.73,53.39z"/>
		<path d="M323.41,115.83c0,1.33-0.05,2.46-0.14,3.36c-0.09,0.91-0.23,1.67-0.41,2.27c-0.18,0.6-0.41,1.03-0.68,1.3
			c-0.27,0.27-0.59,0.4-0.95,0.4h-32.19c-1.19,0-2.2-0.43-3.01-1.3c-0.82-0.87-1.22-2.28-1.22-4.23v-78.3c0-0.44,0.12-0.84,0.36-1.2
			c0.23-0.36,0.62-0.64,1.17-0.87c0.54-0.22,1.28-0.4,2.2-0.53c0.92-0.13,2.07-0.2,3.45-0.2c1.41,0,2.57,0.07,3.47,0.2
			c0.9,0.13,1.63,0.31,2.17,0.53c0.54,0.22,0.93,0.51,1.17,0.87c0.24,0.36,0.36,0.76,0.36,1.2v69.37h22.09
			c0.36,0,0.68,0.12,0.95,0.37c0.27,0.25,0.5,0.64,0.68,1.2c0.18,0.56,0.32,1.29,0.41,2.2
			C323.37,113.37,323.41,114.49,323.41,115.83z"/>
	</g>
	<g>
		<path class="st0" d="M500,80.67c0,44-35.67,79.68-79.67,79.68c-44,0-79.67-35.67-79.67-79.68c0-44,35.67-79.67,79.67-79.67
			C464.33,1,500,36.67,500,80.67z"/>
		<g>
			<polygon class="st1" points="378.39,37.2 364.73,57.72 377.66,57.72 377.66,116.24 377.66,124.15 399.98,124.15 399.98,116.24 
				399.98,37.2 382.4,37.2 			"/>
			<path class="st1" d="M445.31,37.2c-0.1,0-0.2,0-0.3,0c-16.9,0.11-33.8,12.15-33.8,43.59c0,31.55,16.9,43.25,33.8,43.37
				c0.1,0,0.2,0,0.3,0c16.9,0,34-11.37,33.5-43.37C478.31,48.9,462.21,37.2,445.31,37.2z M445.41,103.42c-0.2,0-0.3,0-0.4,0
				c-5.4-0.22-10-6.8-10-22.74c0-15.94,4.4-21.96,10-22.52c0.2,0,0.3,0,0.5,0c5.9-0.11,9.45,6.02,9.55,22.52
				C455.16,97.17,451.01,103.42,445.41,103.42z"/>
		</g>
	</g>
</g>
</svg>
