<?xml version="1.0" encoding="UTF-8" standalone="no"?>
<svg
   viewBox="0 0 1002.6966 607.05444"
   id="Layer_2"
   version="1.1"
   width="1002.6966"
   height="607.05444"
   xmlns="http://www.w3.org/2000/svg"
   xmlns:svg="http://www.w3.org/2000/svg">
  <defs
     id="defs1">
    <style
       id="style1">.cls-1{fill:#fff;stroke-width:0px;}</style>
  </defs>
  <path
     d="m 860.8125,0 v 247.6875 c 0,22.59375 -10.40625,49 -39.71875,49 -29.3125,0 -40.4375,-26.40625 -40.4375,-49 V 0 h -139.1875 v 247.6875 c 0,22.59375 -10.59375,49 -40.40625,49 -29.8125,0 -39.71875,-26.40625 -39.71875,-49 V 0 h -139.1875 v 219.875 c -0.65625,42.34375 -31.21875,77.6875 -68.1875,78.90625 h -144.625 c -38.71875,0 -70.21875,-35.75 -70.21875,-79.65625 0,-43.90625 31.5,-80.34375 70.21875,-80.34375 h 136 V 0 h -136 C 93.9375,0 0,98.28125 0,219.125 0,339.96875 93.9375,437.5 209.375,437.5 H 349 c 46.75,0 93.84375,-18.90625 129.75,-49.8125 34.15625,33.90625 71.46875,49.8125 116.3125,49.8125 44.84375,0 82.03125,-15.8125 116.0625,-49.5 34.03125,33.6875 71.25,49.5 116.03125,49.5 C 924.09375,437.5 1000,357.96875 1000,256.40625 V 0 Z"
     class="cls-1"
     id="path3"
     style="fill:#ff4500;fill-opacity:1" />
  <g
     id="g9">
    <path
       style="font-weight:bold;font-size:168.581px;line-height:0.85;font-family:'F37 Bolton';-inkscape-font-specification:'F37 Bolton Bold';text-align:end;letter-spacing:0px;word-spacing:31.609px;text-anchor:end;fill:#000000;fill-opacity:1;stroke-width:3.16586;paint-order:markers fill stroke"
       d="m 956.33681,607.05442 q -21.57837,0 -35.23343,-10.45203 -13.48648,-10.6206 -13.14932,-32.53613 h 24.78141 q 0,11.12635 6.57465,16.35236 6.74324,5.05743 18.20675,5.05743 20.22972,0 20.22972,-13.82364 0,-5.73176 -3.87736,-9.44054 -3.87736,-3.87736 -12.47499,-6.40608 l -20.22972,-5.90033 q -30.34458,-8.76621 -30.34458,-34.39052 0,-17.53243 11.80067,-26.46722 11.96925,-8.93479 30.85032,-8.93479 12.64357,0 23.09559,4.04594 10.45203,4.04595 16.68952,12.81216 6.40608,8.76621 6.40608,22.08411 h -24.78141 q -1.01148,-17.86959 -21.40978,-17.86959 -7.75473,0 -12.81216,2.86588 -4.88885,2.6973 -4.88885,9.27195 0,4.72027 3.37162,8.42905 3.5402,3.70879 12.13784,6.2375 l 20.56688,6.2375 q 13.65506,4.21452 22.25269,12.13783 8.59765,7.92331 8.59765,23.60134 0,17.19526 -11.96927,27.14154 -11.80067,9.94628 -34.39052,9.94628 z"
       id="path8" />
    <path
       style="font-weight:bold;font-size:168.581px;line-height:0.85;font-family:'F37 Bolton';-inkscape-font-specification:'F37 Bolton Bold';text-align:end;letter-spacing:0px;word-spacing:31.609px;text-anchor:end;fill:#000000;fill-opacity:1;stroke-width:3.16586;paint-order:markers fill stroke"
       d="m 907.98477,604.01996 h -25.28715 l -8.93479,-27.98445 h -43.83106 l -9.94628,27.98445 H 795.37267 L 838.5294,483.14739 h 30.68174 z m -69.96111,-50.40572 h 28.65877 l -10.6206,-33.04187 q -1.68581,-5.05743 -2.6973,-10.11486 h -0.67432 q -1.34865,6.06891 -2.86588,10.28344 z"
       id="path7" />
    <path
       style="font-weight:bold;font-size:168.581px;line-height:0.85;font-family:'F37 Bolton';-inkscape-font-specification:'F37 Bolton Bold';text-align:end;letter-spacing:0px;word-spacing:31.609px;text-anchor:end;fill:#000000;fill-opacity:1;stroke-width:3.16586;paint-order:markers fill stroke"
       d="m 750.18068,607.05442 q -21.57837,0 -35.23343,-10.45203 -13.48648,-10.6206 -13.14931,-32.53613 h 24.7814 q 0,11.12635 6.57466,16.35236 6.74324,5.05743 18.20675,5.05743 20.22972,0 20.22972,-13.82364 0,-5.73176 -3.87737,-9.44054 -3.87736,-3.87736 -12.47499,-6.40608 l -20.22972,-5.90033 q -30.34458,-8.76621 -30.34458,-34.39052 0,-17.53243 11.80067,-26.46722 11.96925,-8.93479 30.85032,-8.93479 12.64358,0 23.0956,4.04594 10.45202,4.04595 16.68952,12.81216 6.40608,8.76621 6.40608,22.08411 h -24.78141 q -1.01149,-17.86959 -21.40979,-17.86959 -7.75472,0 -12.81215,2.86588 -4.88885,2.6973 -4.88885,9.27195 0,4.72027 3.37162,8.42905 3.5402,3.70879 12.13783,6.2375 l 20.56688,6.2375 q 13.65506,4.21452 22.25269,12.13783 8.59763,7.92331 8.59763,23.60134 0,17.19526 -11.96925,27.14154 -11.80067,9.94628 -34.39052,9.94628 z"
       id="path6" />
    <path
       style="font-weight:bold;font-size:168.581px;line-height:0.85;font-family:'F37 Bolton';-inkscape-font-specification:'F37 Bolton Bold';text-align:end;letter-spacing:0px;word-spacing:31.609px;text-anchor:end;fill:#000000;fill-opacity:1;stroke-width:3.16586;paint-order:markers fill stroke"
       d="M 592.10307,604.01996 V 483.14739 h 23.9385 l 42.81957,64.56652 q 2.19155,3.37162 6.57466,10.78918 h 0.67432 v -75.3557 h 24.44425 v 120.87257 h -24.10708 l -43.4939,-65.57801 q -4.04594,-6.23749 -5.73175,-9.94628 h -0.67433 v 75.52429 z"
       id="path5" />
    <path
       style="font-weight:bold;font-size:168.581px;line-height:0.85;font-family:'F37 Bolton';-inkscape-font-specification:'F37 Bolton Bold';text-align:end;letter-spacing:0px;word-spacing:31.609px;text-anchor:end;fill:#000000;fill-opacity:1;stroke-width:3.16586;paint-order:markers fill stroke"
       d="m 584.98762,604.01996 h -25.28715 l -8.93479,-27.98445 h -43.83106 l -9.94628,27.98445 h -24.61282 l 43.15673,-120.87257 h 30.68174 z m -69.96111,-50.40572 h 28.65877 l -10.62061,-33.04187 q -1.68581,-5.05743 -2.69729,-10.11486 h -0.67433 q -1.34864,6.06891 -2.86587,10.28344 z"
       id="path4" />
    <path
       style="font-weight:bold;font-size:168.581px;line-height:0.85;font-family:'F37 Bolton';-inkscape-font-specification:'F37 Bolton Bold';text-align:end;letter-spacing:0px;word-spacing:31.609px;text-anchor:end;fill:#000000;fill-opacity:1;stroke-width:3.16586;paint-order:markers fill stroke"
       d="m 468.95737,604.01996 h -31.52465 l -34.89626,-52.59727 -11.80067,12.47499 v 40.12228 h -25.7929 V 483.14739 h 25.7929 v 49.73139 h 0.50574 q 2.36013,-3.87736 4.04594,-5.39459 l 41.80809,-44.3368 h 31.0189 l -46.69693,49.56281 z"
       id="path2" />
    <path
       style="font-weight:bold;font-size:168.581px;line-height:0.85;font-family:'F37 Bolton';-inkscape-font-specification:'F37 Bolton Bold';text-align:end;letter-spacing:0px;word-spacing:31.609px;text-anchor:end;fill:#000000;fill-opacity:1;stroke-width:3.16586;paint-order:markers fill stroke"
       d="M 260.73493,604.01996 V 483.14739 h 47.37126 q 22.75843,0 33.21045,10.11486 10.45202,9.94627 10.45202,25.28714 0,11.80067 -6.23749,20.56689 -6.2375,8.76621 -20.06114,12.81215 v 0.67433 q 2.02297,1.51722 4.04594,4.04594 2.02297,2.52871 5.90034,9.27195 l 22.42127,38.09931 h -28.32161 l -28.49019,-48.21417 h -14.49796 v 48.21417 z m 44.50538,-68.78105 q 9.7777,0 15.67803,-3.5402 6.06892,-3.70878 6.06892,-12.13783 0,-8.26047 -5.90034,-11.29493 -5.90033,-3.20303 -15.84661,-3.20303 h -18.71249 v 30.17599 z"
       id="path1" />
    <path
       style="font-weight:bold;font-size:168.581px;line-height:0.85;font-family:'F37 Bolton';-inkscape-font-specification:'F37 Bolton Bold';text-align:end;letter-spacing:0px;word-spacing:31.609px;text-anchor:end;fill:#000000;fill-opacity:1;stroke-width:3.16586;paint-order:markers fill stroke"
       d="m 253.88504,604.01996 h -25.28715 l -8.9348,-27.98445 h -43.83105 l -9.94628,27.98445 h -24.61283 l 43.15674,-120.87257 h 30.68174 z m -69.96112,-50.40572 h 28.65877 l -10.6206,-33.04187 q -1.68581,-5.05743 -2.6973,-10.11486 h -0.67432 q -1.34865,6.06891 -2.86588,10.28344 z"
       id="text1" />
  </g>
</svg>
