<svg xmlns="http://www.w3.org/2000/svg" width="424.662" height="46.999" viewBox="0 0 424.662 46.999">
  <g id="Group_2037" data-name="Group 2037" transform="translate(-6.4 -724.438)">
    <path id="Path_24" data-name="Path 24" d="M56.746,737.532a11.514,11.514,0,0,0-9.474-9.845,113.661,113.661,0,0,0-30.707.076c-.2.034-.4.081-.6.126l-.224-2.445c0-.556-.474-1.006-1.55-1.006s-1.522.45-1.522,1.006l-.394,4.017a11.824,11.824,0,0,0-5.1,8.139,78.289,78.289,0,0,0-.068,21.562,11.01,11.01,0,0,0,9.376,9.477v1.734a116.367,116.367,0,0,0,30.857.073v-1.732a11.01,11.01,0,0,0,9.468-9.486A80.236,80.236,0,0,0,56.746,737.532ZM46.484,762.008a182.3,182.3,0,0,1-29.172-.044c-4.529-.456-6.628-2.846-6.967-7.588a83.886,83.886,0,0,1,.309-15.472c.493-4.527,2.706-7.35,7.107-7.931a131.99,131.99,0,0,1,28.29-.061c4.434.551,6.683,3.373,7.164,7.942l.3,15.556C53.172,759.163,51.062,761.574,46.484,762.008Z" fill="#222287"/>
    <path id="Path_25" data-name="Path 25" d="M119.629,745.449q-.491,1.088-1.354,2.664a18.034,18.034,0,0,1-1.729,2.74q-.226.3-1.052,1.24l-1.316-1.2a63.3,63.3,0,0,0,3.721-14.962l4.556.942a1.02,1.02,0,0,1,.529.338.7.7,0,0,1,.149.452c0,.453-.378.792-1.14,1.018q-1.012,3.274-1.54,4.666h10.935a25.236,25.236,0,0,1-.976,3.269,22.446,22.446,0,0,1-2.18,4.469,17.183,17.183,0,0,1-1.766,2.178l-1.428-.757a49.394,49.394,0,0,0,1.653-7.055h-2.742v1.5q.036.977-.225,4.5c-.051.45-.088.826-.112,1.125q2.029,8.884,8,13.246-1.279,2.072-1.617,2.711-.3.564-1.2,2.485a15.812,15.812,0,0,1-3.8-5.677,34.892,34.892,0,0,1-1.953-7.927,24.98,24.98,0,0,1-1.805,6.538,16.531,16.531,0,0,1-6.99,7.327l-1.09-1.692a16.8,16.8,0,0,0,4.434-6.318,32.56,32.56,0,0,0,1.841-8.124,73.873,73.873,0,0,0,.451-8.2v-1.5Zm-18.495,18.688h3.131v-4.315h-3.131Zm0-17.148h3.131v-3.568h-3.131Zm-3.367,10.919h9.982v8.144h-6.616v2.221H97.767Zm0-9v-7.4h9.982v7.4Zm15.658-9.433v9.508a3.673,3.673,0,0,1-.527,2.325,5.352,5.352,0,0,1-.753.75,4.282,4.282,0,0,1-2.149.412H106.4V750.18h1.693a1.164,1.164,0,0,0,.954-.3,1.119,1.119,0,0,0,.306-.938v-9.471H98.141l-1.615.34v-2.792l1.615.339h16.075l1.615-.339v2.792l-1.615-.34Zm0,16.206v11.805a3.616,3.616,0,0,1-.527,2.3,5.46,5.46,0,0,1-.753.753,4.274,4.274,0,0,1-2.149.414h-4.532v-2.3H107.9a1.387,1.387,0,0,0,1.109-.339,1.412,1.412,0,0,0,.342-1.091V755.677H97.88l-1.615.34v-2.795l1.615.34H114.7l1.617-.34v2.795l-1.617-.34Z" transform="translate(-32.963 -4.215)" fill="#222287"/>
    <path id="Path_26" data-name="Path 26" d="M43.048,744.232q-.4.88-1.093,2.152a14.621,14.621,0,0,1-1.4,2.212c-.122.162-.405.495-.85,1l-1.063-.969a51.1,51.1,0,0,0,3-12.081l3.679.76a.83.83,0,0,1,.427.273.566.566,0,0,1,.12.365c0,.366-.306.639-.921.822q-.817,2.643-1.243,3.767h8.829a20.4,20.4,0,0,1-.788,2.639,18.115,18.115,0,0,1-1.76,3.607,13.833,13.833,0,0,1-1.426,1.76l-1.152-.611a39.944,39.944,0,0,0,1.334-5.7H46.536v1.213q.029.788-.182,3.635-.062.546-.091.909,1.638,7.171,6.462,10.693-1.033,1.671-1.305,2.188-.244.456-.971,2.006a12.785,12.785,0,0,1-3.064-4.582,28.223,28.223,0,0,1-1.577-6.4,20.164,20.164,0,0,1-1.457,5.278,13.352,13.352,0,0,1-5.644,5.915l-.88-1.366a13.569,13.569,0,0,0,3.581-5.1,26.284,26.284,0,0,0,1.487-6.559,59.647,59.647,0,0,0,.364-6.618v-1.213ZM28.116,759.32h2.528v-3.484H28.116Zm0-13.845h2.528v-2.88H28.116ZM25.4,754.291h8.059v6.573H28.116v1.793H25.4Zm0-7.269v-5.974h8.059v5.974Zm12.642-7.616v7.676a2.96,2.96,0,0,1-.426,1.877,4.272,4.272,0,0,1-.608.606,3.448,3.448,0,0,1-1.736.334h-2.9v-1.848h1.367a.938.938,0,0,0,.77-.242.9.9,0,0,0,.247-.757v-7.646H25.7l-1.3.275v-2.255l1.3.273H38.678l1.3-.273v2.255l-1.3-.275Zm0,13.084v9.529a2.915,2.915,0,0,1-.426,1.853,4.419,4.419,0,0,1-.608.61,3.47,3.47,0,0,1-1.736.334H31.612v-1.854h1.969a1.12,1.12,0,0,0,.9-.274,1.138,1.138,0,0,0,.275-.881V752.49H25.489l-1.3.274v-2.255l1.3.275H39.072l1.305-.275v2.255l-1.305-.274Z" transform="translate(-6.524 -4.441)" fill="#222287"/>
    <path id="Path_27" data-name="Path 27" d="M160.954,767.384h3.327v-6.1h-3.327Zm7.125,3.54h-3.8v-1.431h-3.327v1.822h-3.8V759.178h10.921Zm-1.653-16.953,1.617-.337v2.96l-1.617-.313h-7.65l-1.617.313v-2.96l1.617.337Zm0-5.284,1.617-.333v2.981L166.426,751h-7.65l-1.617.338v-2.981l1.617.333Zm0-10.451,1.617-.339v2.987l-1.617-.339h-7.763l-1.617.339V737.9l1.617.339Zm1.128,5.245,1.616-.339v2.982l-1.616-.334h-10.32l-1.616.334v-2.982l1.616.339Z" transform="translate(-54.734 -4.937)" fill="#222287"/>
    <path id="Path_28" data-name="Path 28" d="M244.941,737.825a1.878,1.878,0,0,0-1.416.641,1.908,1.908,0,0,0-.484,1.279,1.947,1.947,0,0,0,.633,1.467,1.977,1.977,0,0,0,2.757-.15,1.955,1.955,0,0,0,.485-1.317,1.9,1.9,0,0,0-.633-1.429A1.971,1.971,0,0,0,244.941,737.825Zm.112-2.114a4.1,4.1,0,0,1,3.976,4.033,4.036,4.036,0,0,1-7.053,2.713,3.93,3.93,0,0,1-1.05-2.713,3.831,3.831,0,0,1,1.351-2.977A3.9,3.9,0,0,1,245.053,735.711ZM236.4,751.165,237.941,750a26.83,26.83,0,0,1,5.825,5.418,35.467,35.467,0,0,1,4.434,7.638l-5.487,2.787a65.727,65.727,0,0,0-3.345-9.3A45.293,45.293,0,0,0,236.4,751.165Zm-2.48-4.063v19.114a3.9,3.9,0,0,1-.563,2.474,3.5,3.5,0,0,1-.823.785,4.333,4.333,0,0,1-2.248.45h-7.4V767.42h3.795a1.741,1.741,0,0,0,1.991-1.994V747.1H217.55l-2.067.375v-3.256l2.067.376h11.123v-4.472l-.413-2.856,5.435.3a1.2,1.2,0,0,1,.86.375.849.849,0,0,1,.225.565q0,.526-.86,1.2V744.6h10.372l2.068-.376v3.256l-2.068-.375Zm-18.963,18.549-1.24-1.58a33.524,33.524,0,0,0,3.795-6.058,53.215,53.215,0,0,0,2.444-6.021l.488-2.368,4.976,1.617q.866.263.866.867,0,.674-1.144,1.089a29.612,29.612,0,0,1-4.4,7.449A22.383,22.383,0,0,1,214.957,765.651Z" transform="translate(-76.045 -4.135)" fill="#222287"/>
    <path id="Path_29" data-name="Path 29" d="M288.329,762.01l-4.659,1.617a31.245,31.245,0,0,0-2.932-9.772l1.165-.864a18.743,18.743,0,0,1,3.833,3.645A19.531,19.531,0,0,1,288.329,762.01Zm-10.11,14.469-.713-1.953a20.617,20.617,0,0,0,9.47-5.751,21.779,21.779,0,0,0,4.171-7.818,53.05,53.05,0,0,0,1.316-5.524v-1.991L297.7,754.5c.678.149,1.016.413,1.016.789q0,.449-.912.826a53.193,53.193,0,0,1-1.541,6.312,21.815,21.815,0,0,1-3.607,6.878Q287.916,775.051,278.219,776.479Zm2.706-13.492-4.736,1.69a39.538,39.538,0,0,0-3.006-9.92l1.091-.752a17.575,17.575,0,0,1,3.945,3.646A21.007,21.007,0,0,1,280.926,762.987Z" transform="translate(-97.857 -10.473)" fill="#222287"/>
    <path id="Path_30" data-name="Path 30" d="M342.3,737.825a1.9,1.9,0,0,0-1.9,1.9,1.9,1.9,0,0,0,1.938,1.937,1.873,1.873,0,0,0,1.413-.634,1.92,1.92,0,0,0,.484-1.3,1.879,1.879,0,0,0-.631-1.415A1.938,1.938,0,0,0,342.3,737.825Zm.074-2.114a4.086,4.086,0,0,1,3.975,4.013,3.852,3.852,0,0,1-1.349,3,3.769,3.769,0,0,1-2.662,1.05,4.087,4.087,0,0,1-4.052-4.052,3.805,3.805,0,0,1,1.351-2.961A3.864,3.864,0,0,1,342.371,735.711ZM317,769.066l-.9-2.145a35.482,35.482,0,0,0,7.779-4.208,27.666,27.666,0,0,0,9.321-12.589,40.182,40.182,0,0,0,1.84-6.39h-19.73l-2.066.377v-3.256l2.066.375h22.362a3.465,3.465,0,0,0,1.278,2.245,3.065,3.065,0,0,0,2.179.862q-1.8,10.635-8.268,17.1a22.052,22.052,0,0,1-5,3.685A50.053,50.053,0,0,1,317,769.066Z" transform="translate(-112.551 -4.135)" fill="#222287"/>
    <path id="Path_31" data-name="Path 31" d="M385.344,757.374a41.552,41.552,0,0,1,3.983,2.217,49.532,49.532,0,0,1,8.981,7.29l-5.336,4.248a71.065,71.065,0,0,0-4.848-7.217,55.9,55.9,0,0,0-4.134-4.81,34.51,34.51,0,0,1-7.854,6.914,44.291,44.291,0,0,1-10.373,4.888l-.978-2.142a44.578,44.578,0,0,0,8.72-6.015A46.749,46.749,0,0,0,386.095,744H370.047l-2.027.375v-3.255l2.027.375h23q-.753,2.366-1.429,4.2a51.691,51.691,0,0,1-4.811,9.539Q386.093,756.36,385.344,757.374Z" transform="translate(-131.458 -6.118)" fill="#222287"/>
    <path id="Path_32" data-name="Path 32" d="M434.625,751.053q.113-3.005.113-4.734v-2.255h-.113q-4.735.3-8.081.294-1.54,0-4.435-.07l-.226-2.1q2.632-.15,8.72-.976,3.346-.451,6.655-1.164,2.18-.488,6.88-1.691l1.955-.94,2.525,2.749a3.52,3.52,0,0,1,1.13,1.884.871.871,0,0,1-.264.639.72.72,0,0,1-.527.188,5.568,5.568,0,0,1-1.322-.274q-4.1.678-7.332,1.016v2.706q0,3.194-.112,4.734h10.752l2.065-.375v3.255l-2.065-.374h-10.9v.112a21.3,21.3,0,0,1-1.73,7.7,13.856,13.856,0,0,1-4.36,5.036,21.659,21.659,0,0,1-6.053,2.931,38.207,38.207,0,0,1-5.487,1.354l-.6-1.955q6.352-2.328,9.358-5.865a13.712,13.712,0,0,0,2.895-6.5q.225-1.277.376-2.705v-.112H421.772l-2.068.374v-3.255l2.068.375Z" transform="translate(-151.602 -4.759)" fill="#222287"/>
    <path id="Path_33" data-name="Path 33" d="M489.48,759.407l2.293,16.047-5.036.6-2.255-16.01-5.073.6-1.84.6-.376-3.2,1.953.151,5-.6-.639-4.321-.414-2.255,5.162-.112a.9.9,0,0,1,.718.263.715.715,0,0,1,.187.451q0,.413-.655.977l.637,4.395,14.582-1.728a15.733,15.733,0,0,1-1.051,3.495,15.892,15.892,0,0,1-3.2,4.546,19.381,19.381,0,0,1-5.976,4.021l-1.24-1.577a20.785,20.785,0,0,0,2.706-3.271,18.383,18.383,0,0,0,1.915-3.946Z" transform="translate(-172.689 -9.712)" fill="#222287"/>
    <path id="Path_34" data-name="Path 34" d="M526.682,769.5c-.3.679-.686,1.02-1.163,1.02s-.852-.339-1.128-1.015l-2.1-5.005.978-.037a50.1,50.1,0,0,0,10.521-3.044,34.26,34.26,0,0,0,12.74-9.433,43.828,43.828,0,0,0,4.323-6.426l1.842.752a28.974,28.974,0,0,1-7.855,14.391,33.458,33.458,0,0,1-12.364,7.105Q530.142,768.6,526.682,769.5ZM522.7,740.114q8.793,1.277,13.416,5.712l-4.66,5.11a38.647,38.647,0,0,0-4.811-5.411,41.448,41.448,0,0,0-4.773-3.646Z" transform="translate(-189.078 -5.75)" fill="#222287"/>
    <path id="Path_35" data-name="Path 35" d="M589.513,755.986v14.775h-5.558V758.242a47.318,47.318,0,0,1-13.379,5.037l-.64-1.991a54.821,54.821,0,0,0,10.181-5.525,62.536,62.536,0,0,0,10.973-9.625H575.463l-2.031.376v-3.256l2.031.376h8.492V740.1l-.414-2.856,5.745.3a1.216,1.216,0,0,1,.864.375.859.859,0,0,1,.225.564q0,.526-.862,1.2v3.945h10.709a67.677,67.677,0,0,1-4.62,5.518,58.964,58.964,0,0,1-5.336,4.807,46.985,46.985,0,0,1,5.224,1.729,26.963,26.963,0,0,1,7.966,4.736l-3.831,4.473q-1.769-1.993-3.16-3.421A39.09,39.09,0,0,0,589.513,755.986Z" transform="translate(-206.708 -4.698)" fill="#222287"/>
    <path id="Path_36" data-name="Path 36" d="M639.16,770.8v-29.05l-.416-2.818,5.158.262a1.145,1.145,0,0,1,.865.414.719.719,0,0,1,.225.526c0,.351-.289.752-.861,1.2v21.985a19.847,19.847,0,0,0,7.179-6.652,30.944,30.944,0,0,0,3.344-6.69l2.029.79q-1.469,7.966-5.114,12.588A19.485,19.485,0,0,1,639.16,770.8ZM621.5,769.441a36.026,36.026,0,0,0,3.609-4.435,23.391,23.391,0,0,0,3.268-9.621,62.113,62.113,0,0,0,.491-8.079V743.1l-.414-2.855,5.316.3a1.205,1.205,0,0,1,.861.377.726.726,0,0,1,.226.525c0,.377-.289.79-.862,1.241v4.322q-.151,10.557-2.512,15.107a22.772,22.772,0,0,1-8.7,8.982Z" transform="translate(-225.621 -5.315)" fill="#222287"/>
    <g id="Group_20" data-name="Group 20" transform="translate(114.275 731.694)">
      <path id="Path_37" data-name="Path 37" d="M193.967,749.5a25.754,25.754,0,0,0-2.34-2.583,23.152,23.152,0,0,0-2.545-2.033l-1.439,1.269a58.626,58.626,0,0,1,3.618,6.081Z" transform="translate(-180.756 -739.193)" fill="#222287"/>
      <path id="Path_38" data-name="Path 38" d="M182.348,748.6a22.884,22.884,0,0,0-2.544-2.032l-1.44,1.269a58.792,58.792,0,0,1,3.619,6.079l2.705-2.733A25.752,25.752,0,0,0,182.348,748.6Z" transform="translate(-177.353 -739.812)" fill="#222287"/>
      <path id="Path_39" data-name="Path 39" d="M197.2,758.675h-7.329v-3.222h5.13l1.616.343V753l-1.616.343h-3.484c.74-.721,1.346-1.354,1.8-1.893a37.69,37.69,0,0,0,2.74-4.118q.774-.1.842-.486.057-.322-.6-.678l-3.113-1.636A76.469,76.469,0,0,1,190,752.722l.959.617H179.4L177.781,753v2.8l1.616-.343h5.82v3.222h-6.835l-1.615-.314v2.772l1.615-.345h6.835v8.677h-3.4v-7.193h-4.167V773.7h4.167v-2.124H192.6V773.7h4.166V762.272H192.6v7.193h-2.727v-8.677H197.2l1.617.345v-2.772Z" transform="translate(-176.766 -739.064)" fill="#222287"/>
      <path id="Path_40" data-name="Path 40" d="M181.311,740.711q2.317,0,5.6-.206h.077l3.854-.313q2.237-.233,5.076-.7a3.871,3.871,0,0,0,.915.189.5.5,0,0,0,.367-.13.606.606,0,0,0,.182-.443,2.434,2.434,0,0,0-.784-1.306l-1.748-1.9-1.354.652q-3.253.832-4.763,1.171-2.293.495-4.608.806-4.219.573-6.04.676l.156,1.458Q180.245,740.712,181.311,740.711Z" transform="translate(-177.249 -735.898)" fill="#222287"/>
    </g>
  </g>
</svg>
