<svg xmlns="http://www.w3.org/2000/svg" viewBox="0 0 195 60"><defs><style>.a{fill:none;}.b{fill:#303c64;}</style></defs><title>kboi_logo_w</title><rect class="a" width="195" height="60"/><rect class="b" x="60.26" y="14.25" width="0.37" height="31.26"/><path class="b" d="M28.62,45.42Q29.88,38,32.66,34a16.3,16.3,0,0,1,8.11-5.91c.74-.27,1.73-.59,3-1q4.1-1.28,4.35-3.09a1.93,1.93,0,0,0-.57-1.88,3.56,3.56,0,0,0-2.34-.63,4.92,4.92,0,0,0-3.34,1,5,5,0,0,0-1.46,3.18l0,.11H32.08q1-6.09,4.4-9.12t9.19-3c3.95,0,6.81.85,8.56,2.55s2.39,4.23,1.92,7.59A12,12,0,0,1,53.8,29.9a11.81,11.81,0,0,1-5.5,3.44c-.92.3-2.18.67-3.78,1.12-3.4.93-5.54,2-6.44,3.09H53.81l-1.1,7.87Z"/><path class="b" d="M14.48,16.78A14.49,14.49,0,1,0,29,31.26,14.48,14.48,0,0,0,14.48,16.78m0,23c-6,0-10.78-3.93-13.34-8.61,2.58-4.65,7.45-8.43,13.34-8.43a15.37,15.37,0,0,1,13.34,8.43c-2.53,4.68-7.29,8.64-13.34,8.61"/><path class="b" d="M14.48,38.94A7.68,7.68,0,1,0,6.8,31.26a7.68,7.68,0,0,0,7.68,7.68"/><path class="b" d="M65.72,38.8V20.16h4.59V38.8Z"/><path class="b" d="M81.13,38.8V37.65A4.17,4.17,0,0,1,77.88,39a4.88,4.88,0,0,1-3.43-1.28c-1.38-1.39-1.31-3.85-1.31-5.92s-.07-4.52,1.31-5.91a4.84,4.84,0,0,1,3.41-1.29A4.15,4.15,0,0,1,81,25.73V20.16h4.29V38.8ZM79.22,28.43c-1.6,0-1.78,1.28-1.78,3.32s.18,3.33,1.78,3.33S81,33.8,81,31.75,80.82,28.43,79.22,28.43Z"/><path class="b" d="M95.2,38.8V37.65a3.91,3.91,0,0,1-3.15,1.28,4.65,4.65,0,0,1-3.37-1.26,4.6,4.6,0,0,1-1.23-3.3c0-2.12,1.44-4.08,4.79-4.08h2.85v-.37c0-1.28-.63-1.75-2.12-1.75a2.66,2.66,0,0,0-2.25.94l-2.67-2.67c1.44-1.44,2.75-1.89,5.13-1.89,4,0,6.21,1.68,6.21,5.11V38.8Zm-.11-5.66H92.92c-.84,0-1.36.47-1.36,1.13S92,35.45,93,35.45a2,2,0,0,0,1.7-.53,1.77,1.77,0,0,0,.42-1.41Z"/><path class="b" d="M109.88,38.8V30.26a1.66,1.66,0,1,0-3.3,0V38.8h-4.3V20.16h4.3v5.7a4.36,4.36,0,0,1,3.09-1.31c3,0,4.5,2.26,4.5,5.11V38.8Z"/><path class="b" d="M127.2,37.15a6.6,6.6,0,0,1-9.06,0c-1.18-1.28-1.54-2.62-1.54-5.4s.36-4.11,1.54-5.39a6.57,6.57,0,0,1,9.06,0c1.18,1.28,1.55,2.65,1.55,5.39S128.38,35.87,127.2,37.15Zm-3.38-8.33a1.89,1.89,0,0,0-2.3,0c-.55.55-.63,1.55-.63,2.93s.08,2.39.63,2.94a1.89,1.89,0,0,0,2.3,0c.55-.55.63-1.55.63-2.94S124.37,29.37,123.82,28.82Z"/><path class="b" d="M142.07,38.8l-6-9.38V38.8h-4.59V20.16h4l6,9.37V20.16h4.58V38.8Z"/><path class="b" d="M153,33.14a2.26,2.26,0,0,0,2.49,2.2,3.49,3.49,0,0,0,2.9-1.18l2.57,2.57A6.85,6.85,0,0,1,155.46,39c-3.12,0-6.71-1.12-6.71-7.2,0-4.6,2.62-7.2,6.31-7.2,4.09,0,6.34,3,6.34,6.68v1.91Zm3.95-3.95a2.12,2.12,0,0,0-3.72,0,2.5,2.5,0,0,0-.23,1.1h4.19A2.52,2.52,0,0,0,156.92,29.19Z"/><path class="b" d="M178.31,38.8h-3.43l-2.54-7.73L169.8,38.8h-3.43l-4.25-14.09h4.53L168.41,32l2.43-7.31h3L176.26,32,178,24.71h4.53Z"/><path class="b" d="M188.9,39c-2.12,0-4.19-.1-6.13-2l2.78-2.77A4.59,4.59,0,0,0,189,35.32c.63,0,1.83-.19,1.83-.92,0-.39-.18-.81-1-.89l-2.17-.21c-2.44-.24-4.09-1.34-4.09-4.08,0-3.12,2.8-4.67,5.61-4.67,2.3,0,4.16.35,5.55,1.73L192,28.93a4.19,4.19,0,0,0-3-.84c-1.05,0-1.39.5-1.39.81s0,.68.92.79l2.17.21c3,.28,4.24,2,4.24,4.29C195,37.51,192.17,39,188.9,39Z"/></svg>