<svg xmlns="http://www.w3.org/2000/svg" viewBox="0 0 153 61"><defs><style>.cls-1{fill:none;}.cls-2{fill:#fcb900;}</style></defs><title>자산 10</title><g id="레이어_2" data-name="레이어 2"><g id="레이어_1-2" data-name="레이어 1"><rect class="cls-1" width="153" height="61"/><polygon class="cls-2" points="20.21 13.81 7.62 29.99 7.62 13.81 0 13.81 0 48.18 7.62 48.18 7.62 30.68 20.21 48.18 29.25 48.18 16.19 30.41 29.31 13.81 20.21 13.81"/><path class="cls-2" d="M30.31,48.18V13.81H48.09c5.55.11,11.11,2.7,11.11,8.83a9.33,9.33,0,0,1-3.6,7.67,8.86,8.86,0,0,1,5,8.25,9.83,9.83,0,0,1-9.63,9.62Zm7.62-29.24v8.62H48a4.1,4.1,0,0,0,4.13-4.28c0-2.54-1.75-4.34-4.81-4.34ZM53.54,37.77c0-3.12-2.65-5.13-5.93-5.13H37.93V43.05h8c3.76,0,7.57-1.16,7.57-5.28"/><path class="cls-2" d="M79.4,43.05a5.21,5.21,0,0,0,5.45-5.29c0-2.9-2.22-4.86-5.5-4.86H71.94c-5.55,0-10.79-3.07-10.79-9.78S66.39,13.81,72,13.81H90v5.08H73.21c-2.85,0-4.81,1.37-4.81,4.23,0,2.64,2,4.28,4.81,4.28H81.1c4.6,0,11,2.33,11,10.36,0,8.31-6.4,10.42-10.95,10.42H62.53V43.05Z"/><path class="cls-2" d="M106.92,48.2h-2.33a23.16,23.16,0,0,0,15.18,5.64h0a23.15,23.15,0,0,0,15.17-5.64h-28Z"/><path class="cls-2" d="M96.53,30.62a23.13,23.13,0,0,0,2.19,9.84h8.2c6.46,0,18.87-5.55,18.87-13.15h0a6.2,6.2,0,0,0-6.19-6.19h0A6.16,6.16,0,0,0,114,24.59h0a3.87,3.87,0,0,1-5.17,1.76h0a3.87,3.87,0,0,1-1.77-5.18h0a13.84,13.84,0,0,1,12.5-7.78h0a13.93,13.93,0,0,1,13.92,13.92h0c0,5.39-2.79,9.79-6.72,13.15h14A23.13,23.13,0,0,0,143,30.62h0A23.23,23.23,0,0,0,119.77,7.39h0A23.23,23.23,0,0,0,96.53,30.62"/></g></g></svg>