<?xml version="1.0" encoding="utf-8"?>
<!-- Generator: Adobe Illustrator 24.3.0, SVG Export Plug-In . SVG Version: 6.00 Build 0)  -->
<svg version="1.1" id="Layer_1" xmlns="http://www.w3.org/2000/svg" xmlns:xlink="http://www.w3.org/1999/xlink" x="0px" y="0px"
	 viewBox="0 0 165 60" style="enable-background:new 0 0 165 60;" xml:space="preserve">
<style type="text/css">
	.st0{fill:#601404;}
	.st1{fill:#FFFFFF;}
</style>
<rect class="st0" width="165" height="60"/>
<g>
	<path class="st1" d="M0,15.694v28.612h165V15.694H0z M164.674,43.98H0.326V16.02h164.348L164.674,43.98L164.674,43.98z"/>
	<path class="st1" d="M82.516,28.954c-0.124-0.27-0.313-0.482-0.564-0.635s-0.57-0.231-0.958-0.231c-0.391,0-0.71,0.078-0.961,0.231
		c-0.251,0.153-0.437,0.365-0.564,0.635c-0.124,0.27-0.209,0.586-0.248,0.948c-0.042,0.362-0.065,0.795-0.065,1.293
		c0,0.502,0.023,0.932,0.065,1.293c0.039,0.362,0.124,0.681,0.248,0.961c0.127,0.277,0.313,0.492,0.564,0.645
		s0.57,0.228,0.961,0.228c0.388,0,0.707-0.075,0.958-0.228s0.44-0.368,0.564-0.645c0.124-0.28,0.209-0.599,0.251-0.961
		s0.062-0.792,0.062-1.293c0-0.498-0.02-0.932-0.062-1.293S82.64,29.225,82.516,28.954z"/>
	<path class="st1" d="M98.556,33.281c0,0.391,0.134,0.697,0.397,0.919c0.264,0.222,0.652,0.332,1.166,0.332
		c0.417,0,0.753-0.033,1.003-0.104c0.248-0.068,0.485-0.208,0.707-0.417c0.264-0.248,0.397-0.707,0.397-1.375v-0.583h-2.147
		C99.064,32.053,98.556,32.463,98.556,33.281z"/>
	<path class="st1" d="M162.993,17.372H72.899v25.142h90.094L162.993,17.372L162.993,17.372z M85.52,32.574
		c-0.013,0.388-0.055,0.762-0.124,1.124c-0.153,0.906-0.476,1.6-0.961,2.088c-0.306,0.303-0.691,0.544-1.157,0.717
		c-0.466,0.176-0.964,0.264-1.492,0.264c-0.583,0-1.088-0.088-1.512-0.264c-0.424-0.173-0.824-0.469-1.199-0.886v1.023h-2.629V21.79
		h2.711v4.942c0.349-0.388,0.733-0.668,1.16-0.834c0.424-0.166,0.912-0.251,1.469-0.251c0.528,0,1.026,0.088,1.492,0.261
		c0.466,0.176,0.85,0.414,1.157,0.72c0.485,0.472,0.792,1.075,0.919,1.805c0.124,0.73,0.186,1.652,0.186,2.763
		C85.54,31.723,85.533,32.183,85.52,32.574z M95.636,32.053h-6.8c0,0.723,0.212,1.306,0.635,1.75
		c0.424,0.446,1.003,0.668,1.743,0.668c0.57,0,1.033-0.078,1.385-0.238c0.355-0.16,0.714-0.42,1.075-0.782l1.649,1.606
		c-0.599,0.596-1.202,1.03-1.815,1.303c-0.613,0.27-1.385,0.407-2.316,0.407c-0.694,0-1.339-0.091-1.929-0.274
		c-0.59-0.179-1.121-0.479-1.583-0.896c-0.469-0.417-0.837-0.99-1.108-1.72c-0.27-0.73-0.407-1.622-0.407-2.681
		c0-1.753,0.433-3.115,1.293-4.089c0.863-0.971,2.01-1.46,3.444-1.46c1.473,0,2.629,0.485,3.473,1.45
		c0.841,0.968,1.261,2.215,1.261,3.743V32.053z M104.938,36.64h-2.649v-0.938c-0.375,0.375-0.762,0.642-1.157,0.801
		c-0.397,0.16-0.902,0.241-1.512,0.241c-1.212,0-2.137-0.319-2.776-0.958c-0.596-0.626-0.896-1.44-0.896-2.44
		c0-0.919,0.316-1.675,0.948-2.264c0.632-0.59,1.554-0.886,2.763-0.886h2.567v-0.544c0-0.596-0.156-1.03-0.469-1.303
		c-0.313-0.27-0.831-0.407-1.554-0.407c-0.502,0-0.899,0.068-1.199,0.199c-0.3,0.134-0.596,0.365-0.886,0.7l-1.733-1.691
		c0.515-0.57,1.065-0.961,1.649-1.179c0.583-0.215,1.342-0.323,2.274-0.323c3.085,0,4.63,1.28,4.63,3.838
		C104.938,29.486,104.938,36.64,104.938,36.64z M115.348,36.64h-2.649v-1c-0.349,0.362-0.759,0.639-1.232,0.834
		c-0.472,0.195-0.968,0.293-1.482,0.293c-1.069,0-1.926-0.323-2.564-0.961c-0.417-0.417-0.707-0.876-0.867-1.378
		c-0.16-0.498-0.238-1.069-0.238-1.707v-6.946h2.711v6.568c0,0.681,0.176,1.183,0.531,1.502c0.355,0.319,0.775,0.479,1.261,0.479
		c0.502,0,0.929-0.16,1.284-0.479c0.355-0.319,0.531-0.821,0.531-1.502v-6.568h2.714L115.348,36.64L115.348,36.64z M132.325,36.64
		h-2.711v-6.572c0-0.681-0.179-1.179-0.531-1.502c-0.355-0.319-0.775-0.479-1.264-0.479c-0.485,0-0.909,0.156-1.271,0.469
		c-0.362,0.313-0.544,0.798-0.544,1.45v6.633h-2.711v-6.572c0-0.681-0.176-1.179-0.531-1.502c-0.355-0.319-0.775-0.479-1.264-0.479
		c-0.499,0-0.929,0.16-1.28,0.479c-0.355,0.323-0.534,0.821-0.534,1.502v6.572h-2.711V25.774h2.649v1
		c0.349-0.362,0.762-0.639,1.241-0.834s0.971-0.293,1.469-0.293c1.254,0,2.212,0.459,2.88,1.378c0.459-0.472,0.945-0.821,1.46-1.043
		c0.515-0.225,1.111-0.336,1.795-0.336c0.541,0,1.046,0.085,1.512,0.251c0.466,0.166,0.85,0.404,1.157,0.71
		c0.417,0.417,0.72,0.88,0.909,1.385c0.186,0.508,0.28,1.075,0.28,1.701L132.325,36.64L132.325,36.64z M142.304,33.73
		c-0.173,0.648-0.495,1.212-0.968,1.701c-0.378,0.388-0.847,0.707-1.411,0.958c-0.56,0.251-1.218,0.378-1.971,0.378
		c-0.749,0-1.404-0.127-1.958-0.378c-0.557-0.251-1.023-0.57-1.398-0.958c-0.472-0.489-0.798-1.052-0.971-1.701
		c-0.173-0.645-0.261-1.492-0.261-2.535c0-1.03,0.088-1.867,0.261-2.512c0.173-0.648,0.499-1.215,0.971-1.701
		c0.375-0.404,0.841-0.727,1.398-0.971c0.554-0.241,1.209-0.365,1.958-0.365c0.753,0,1.411,0.127,1.971,0.375
		c0.564,0.251,1.033,0.573,1.411,0.961c0.472,0.485,0.795,1.052,0.968,1.701c0.176,0.645,0.261,1.482,0.261,2.512
		C142.565,32.238,142.48,33.085,142.304,33.73z M152.766,36.64h-2.711v-6.572c0-0.681-0.179-1.179-0.534-1.502
		c-0.352-0.319-0.775-0.479-1.261-0.479c-0.502,0-0.929,0.16-1.284,0.479c-0.352,0.323-0.531,0.821-0.531,1.502v6.572h-2.711V25.774
		h2.649v1c0.349-0.362,0.756-0.639,1.232-0.834c0.472-0.195,0.964-0.293,1.479-0.293c1.072,0,1.926,0.319,2.567,0.961
		c0.417,0.417,0.704,0.876,0.863,1.375c0.16,0.502,0.241,1.072,0.241,1.71L152.766,36.64L152.766,36.64z M159.149,28.149h-1.919
		v5.216c0,0.655,0.313,0.981,0.938,0.981h0.981v2.294h-1.482c-1.026,0-1.811-0.306-2.346-0.919
		c-0.534-0.609-0.801-1.339-0.801-2.189V28.15h-1.147v-2.062h1.147v-3.212h2.711v3.212h1.919v2.061H159.149z"/>
	<path class="st1" d="M92.717,29.026c-0.153-0.345-0.384-0.622-0.691-0.824c-0.306-0.199-0.681-0.3-1.124-0.3
		c-0.433,0-0.805,0.101-1.118,0.3c-0.313,0.202-0.544,0.479-0.697,0.824c-0.085,0.195-0.143,0.381-0.179,0.554
		c-0.033,0.173-0.059,0.378-0.072,0.616h4.128c-0.013-0.238-0.036-0.443-0.072-0.616C92.857,29.407,92.799,29.221,92.717,29.026z"/>
	<path class="st1" d="M139.229,28.566c-0.319-0.319-0.743-0.479-1.274-0.479c-0.512,0-0.929,0.16-1.251,0.479
		c-0.248,0.251-0.417,0.586-0.498,1.003c-0.085,0.417-0.127,0.958-0.127,1.626s0.042,1.209,0.127,1.629
		c0.081,0.417,0.251,0.756,0.498,1.02c0.323,0.319,0.74,0.479,1.251,0.479c0.531,0,0.955-0.16,1.274-0.479
		c0.264-0.264,0.433-0.603,0.512-1.02c0.075-0.42,0.114-0.961,0.114-1.629s-0.039-1.209-0.114-1.626
		C139.662,29.153,139.493,28.817,139.229,28.566z"/>
	<polygon class="st1" points="62.108,31.935 62.108,24.113 56.481,31.935 	"/>
	<path class="st1" d="M26.227,24.324c-0.837,0-1.583,0.805-1.583,1.691v7.836c0,0.929,0.746,1.652,1.583,1.652
		c0.929,0,1.675-0.723,1.675-1.609v-7.878C27.902,25.129,27.156,24.324,26.227,24.324z"/>
	<path class="st1" d="M71.419,17.372H1.453v25.142h69.966C71.419,42.514,71.419,17.372,71.419,17.372z M15.717,33.427h-5.49
		l0.094,6.35H4.74v-19.73h11.905l0.28,5.421h-6.604v2.58h5.395L15.717,33.427L15.717,33.427z M16.831,29.954
		c0-5.291,4.187-9.611,9.396-9.611c5.206,0,9.393,4.32,9.393,9.611s-4.187,9.611-9.393,9.611
		C21.018,39.566,16.831,35.245,16.831,29.954z M44.55,39.777l-2.883-4.998l-2.883,4.998h-5.952l5.767-10.162l-5.49-9.526h6.141
		l2.417,4.235l2.512-4.235h5.952l-5.395,9.442l5.952,10.247L44.55,39.777L44.55,39.777z M68.956,36.304l-2.196,0.02v3.453h-4.652
		v-3.473h-9.751l-1.668-2.603l9.328-13.612h6.767L66.76,31.935h2.196V36.304z"/>
</g>
</svg>
