<?xml version="1.0" encoding="UTF-8"?><svg id="Layer_1" xmlns="http://www.w3.org/2000/svg" viewBox="0 0 1336.83 284.6"><defs><style>.cls-1{fill:#c60000;}.cls-2{fill:#fff;}.cls-3{fill:#0f4c8b;}.cls-4{fill:#0e4c8c;}</style></defs><rect id="PLATE" class="cls-3" x="4.78" y="4.78" width="1327.28" height="275.05" transform="translate(1336.83 284.6) rotate(-180)"/><path class="cls-2" d="M1336.83,284.6H0V0h1336.83v284.6ZM9.55,275.05h1317.73V9.55H9.55v265.5Z"/><rect id="TX_FLAG_BOTTOM" class="cls-1" x="1076.9" y="138.6" width="238.95" height="124.79"/><rect id="TX_FLAG_TOP" class="cls-2" x="1076.9" y="21.1" width="238.95" height="117.51"/><path id="_3_OUTLINE" class="cls-2" d="M1081.03,260.5c-.3-1.49-.45-2.99-.45-4.46h0c0-8.66,5.07-16.56,12.9-20.1h0l4.64-1.55c37.91-8.24,79-24.69,98.03-41.92h0c6.37-5.7,10.07-11.34,10.9-16.14h0c.29-1.61.43-3.1.43-4.48h0c-.02-3.92-1.04-6.95-3.08-9.59h0c-2.05-2.61-5.32-4.91-10.17-6.66h0c-3.75-1.18-8.59-1.75-14.3-1.75h0c-15.12-.02-36.02,4.01-59.17,8.79h-.06s-.03.02-.06.02h0l-.3.06h-.02c-1.2.22-2.39.32-3.57.32h0c-9.35,0-17.66-6.61-19.59-16.12h0c-.28-1.36-.41-2.72-.41-4.06h0c0-9.35,6.48-17.71,15.94-19.62h0l75.9-15.41c11.07-2.24,18.72-12.07,18.73-23.11h0c0-1.58-.16-3.18-.48-4.8h0c-2.28-11.26-12.13-19-23.02-19h0c-1.53,0-3.08.15-4.66.48h0l-75.68,15.36h-.03s-.16.04-.16.04c-1.31.27-2.63.4-3.95.4h0c-9.35,0-17.67-6.6-19.61-16.13h0c-.27-1.35-.4-2.71-.4-4.04h0c0-8.81,5.77-16.76,14.38-19.24h0l.07-.09,115.31-23.41h0c14.64-2.63,29.7-4.06,43.68-4.06h0c8.51,0,16.63.59,24.04,1.9h.07c10.22,2.01,19.58,5.51,26.69,11h0c7.09,5.42,11.91,13.27,11.87,22.76h0c0,1.84-.17,3.73-.52,5.66h0c-2.42,13.24-11.27,25.75-23.65,36.68h0c-8.01,7.06-17.55,13.45-28.02,18.87h0c13.72,1.08,25.59,4.28,34.81,9.85h0c11.56,6.89,18.8,18.12,18.71,32.15h0c0,2.77-.27,5.63-.8,8.6h0c-5.31,28.8-29.95,52.49-61.31,71.18h0c-30.14,17.9-66.84,31.22-100.36,39.17h0l-46.75,9.69h-.01s-.55.12-.55.12c-.13.03-.25.05-.37.07h0c-1.32.24-2.65.36-3.96.36h0c-10.31,0-19.48-7.29-21.62-17.79h0Z"/><path class="cls-2" d="M1102.65,279.88c-11.18,0-20.93-8.02-23.18-19.07h0c-.32-1.57-.48-3.17-.48-4.77,0-9.28,5.42-17.74,13.83-21.55l.15-.06,4.81-1.6c40.48-8.8,79.58-25.49,97.3-41.55,5.92-5.3,9.61-10.7,10.4-15.23.27-1.5.41-2.92.41-4.21-.02-3.48-.89-6.22-2.75-8.61-1.99-2.53-5.17-4.6-9.45-6.14-3.49-1.1-8.14-1.65-13.76-1.65h-.13c-15.09,0-36.38,4.14-58.7,8.76l-.64.12c-1.24.22-2.49.33-3.71.33-10.21,0-19.1-7.33-21.15-17.4-.29-1.43-.44-2.9-.44-4.38,0-10.25,7.24-19.16,17.22-21.18l75.9-15.41c10.11-2.04,17.45-11.1,17.46-21.55,0-1.48-.15-2.98-.45-4.48-2.08-10.27-11.1-17.72-21.46-17.72-1.45,0-2.9.15-4.33.44l-75.86,15.4c-1.42.29-2.85.43-4.28.43-10.21,0-19.11-7.32-21.17-17.4-.29-1.44-.44-2.9-.44-4.36,0-9.41,6.15-17.82,15.04-20.62l.12-.15,115.87-23.52c14.93-2.68,30.13-4.1,43.99-4.1,8.92,0,17.11.65,24.32,1.92,11.4,2.23,20.61,6.03,27.45,11.31,8.09,6.18,12.53,14.72,12.49,24.03,0,1.95-.18,3.95-.55,5.94-2.32,12.68-10.67,25.68-24.16,37.58-6.9,6.08-14.87,11.66-23.73,16.61,12.06,1.48,22.23,4.68,30.3,9.55,12.65,7.53,19.57,19.44,19.48,33.52,0,2.83-.28,5.82-.83,8.87-4.85,26.3-25.73,50.61-62.06,72.26-27.9,16.58-63.71,30.55-100.81,39.35l-47.35,9.82c-.14.03-.31.06-.47.09h-.01c-1.41.25-2.82.38-4.18.38ZM1082.59,260.18c1.95,9.57,10.39,16.52,20.06,16.52,1.19,0,2.43-.11,3.68-.34l.17-.03s.09-.02.14-.03l47.33-9.81c36.75-8.72,72.24-22.56,99.87-38.98,35.51-21.16,55.88-44.75,60.56-70.1.51-2.86.78-5.66.78-8.31.08-12.92-6.29-23.84-17.94-30.78-8.79-5.31-20.26-8.55-34.12-9.63l-5.56-.44,4.96-2.56c10.5-5.43,19.82-11.71,27.7-18.65,12.95-11.43,20.95-23.8,23.13-35.77.33-1.81.5-3.62.5-5.38.04-8.3-3.95-15.93-11.24-21.5-6.46-4.98-15.21-8.58-26.03-10.69-7.07-1.25-15.06-1.88-23.8-1.88-13.68,0-28.68,1.4-43.39,4.04l-114.71,23.29-.02.03-.49.14c-7.8,2.25-13.24,9.54-13.23,17.71,0,1.25.12,2.5.37,3.73,1.75,8.6,9.35,14.85,18.05,14.85,1.21,0,2.43-.12,3.63-.37l.15-.03,75.73-15.37c1.63-.34,3.31-.51,4.97-.51,11.87,0,22.2,8.53,24.58,20.27.34,1.71.52,3.43.52,5.11,0,11.95-8.42,22.33-20.01,24.67l-75.9,15.41c-8.5,1.72-14.67,9.31-14.67,18.06,0,1.26.13,2.52.38,3.74,1.75,8.6,9.33,14.85,18.03,14.85,1.09,0,2.19-.1,3.29-.3l.38-.07c22.52-4.65,43.99-8.83,59.38-8.83h.22c5.9,0,10.84.61,14.68,1.82,4.91,1.77,8.57,4.18,10.94,7.19,2.32,2.98,3.4,6.34,3.42,10.57,0,1.49-.15,3.1-.46,4.78-.92,5.29-4.86,11.19-11.4,17.04-18.08,16.38-57.73,33.36-98.67,42.27l-4.48,1.5c-7.23,3.31-11.89,10.61-11.89,18.62,0,1.39.14,2.78.42,4.14h0ZM1120.96,164.22h-.02s.01,0,.02,0Z"/><path id="_3" class="cls-4" d="M1252.76,12.56c-13.96,0-29.82,1.61-45.99,4.67v-.08l-2.25.46-108.71,22.07-.55.11-.02.02c-4.4,1.02-8.17,3.66-10.67,7.47-2.59,3.95-3.5,8.69-2.56,13.35,1.67,8.28,8.97,14.28,17.34,14.28,1.14,0,2.29-.11,3.42-.34.08-.01.15-.03.22-.05l75.71-15.38c1.69-.34,3.41-.52,5.11-.52,5.86,0,11.61,2.06,16.2,5.8,4.66,3.79,7.89,9.14,9.09,15.06,1.38,6.82.05,13.77-3.74,19.55-3.79,5.78-9.58,9.72-16.32,11.08l-75.9,15.41c-4.61.93-8.58,3.62-11.17,7.58-2.59,3.95-3.5,8.7-2.55,13.36,1.67,8.27,8.96,14.27,17.33,14.27,1.14,0,2.3-.11,3.43-.34.07-.01.14-.03.21-.05,23.43-4.83,44.07-8.82,59.54-8.82,6.11,0,11.02.61,15.02,1.86,5.87,2.09,10.05,5.16,12.43,9.11,2.31,3.85,2.97,8.63,1.96,14.22-1.01,5.54-4.92,11.42-11.63,17.45-6.37,5.73-15.1,11.47-25.94,17.04-20.22,10.4-46.89,19.67-73.15,25.42l-2.21.48.06.14c-4.22,1.37-7.82,4.11-10.3,7.89-2.89,4.41-3.91,9.69-2.86,14.88.92,4.52,3.38,8.61,6.94,11.51,3.51,2.86,7.92,4.43,12.41,4.43,1.3,0,2.6-.13,3.88-.39l.38-.08h.02s42.46-8.64,42.46-8.64l1.83-.37-.02-.1c17.21-3.96,34.96-9.31,51.48-15.52,18.81-7.07,35.9-15.14,50.79-23.99,16.48-9.79,29.9-20.34,39.88-31.36,11.13-12.28,17.97-25.15,20.34-38.24,1.08-5.95,1.01-11.54-.18-16.61-1.17-4.94-3.42-9.43-6.69-13.34-5.03-6.02-12.41-10.66-21.91-13.79-8.81-2.9-19.23-4.42-30.98-4.53,5.21-2.33,10.26-4.91,15.09-7.73,7.71-4.49,14.68-9.47,20.72-14.79,12.85-11.32,20.77-23.54,22.9-35.35.9-4.94.55-9.61-1.03-13.86-1.47-3.97-4.02-7.59-7.57-10.75-6.34-5.65-15.88-9.84-27.6-12.11h-.01s-.01,0-.01,0c-6.97-1.24-14.92-1.86-23.64-1.86h0Z"/><path id="STAR" class="cls-2" d="M1163.25,180.77l-44.97-27.04,55.42-1.54,16.59-39.77,18.77,38.76,53.96-1.5-42.35,29.03,20.6,49.01-48.49-29.66-47.51,32.3,17.99-49.59h0Z"/><path id="X" class="cls-2" d="M944.29,139.46l103.26,116.24h-79.55l-63.97-72.41-63.97,72.41h-75.33l102.93-115.27-100.66-112.02h79.55l61.69,69.49,61.37-69.49h75.66l-100.98,111.05Z"/><path id="T" class="cls-2" d="M523.4,28.42c22.71,10.31,40.27,35.55,40.27,52.87,0,.02.74.04.74.05h64.28v174.36h66.24V81.34h99.91l-47.56-52.93h-223.88Z"/><path id="B" class="cls-2" d="M499.21,137.19c34.09-1.95,51.95-24.35,51.95-50,0-36.37-35.39-58.77-91.24-58.77h-136.38l-26.3,23.59v162.57l32.14,41.13h143.52c55.85,0,91.24-23.05,91.24-62.34,0-35.07-29.22-53.9-64.94-56.17ZM362.83,74.53h86.04c22.08,0,36.69,4.87,36.69,22.08s-14.61,22.41-36.69,22.41h-86.04v-44.48ZM458.94,209.6h-96.11v-47.73h96.11c23.38,0,37.34,5.2,37.34,23.7s-13.96,24.03-37.34,24.03Z"/><path id="K" class="cls-2" d="M233.42,255.71l-76.31-97.73-50.33,44.81v52.93H40.54V28.42h66.24v105.2L223.03,28.42h82.47l-100.98,90.59,106.83,136.7h-77.93Z"/></svg>