<?xml version="1.0" encoding="utf-8"?>
<!-- Generator: Adobe Illustrator 28.1.0, SVG Export Plug-In . SVG Version: 6.00 Build 0)  -->
<svg version="1.1" id="Layer_1" xmlns="http://www.w3.org/2000/svg" xmlns:xlink="http://www.w3.org/1999/xlink" x="0px" y="0px"
	 viewBox="0 0 500 113.1" style="enable-background:new 0 0 500 113.1;" xml:space="preserve">
<style type="text/css">
	.st0{fill:#0D0D0D;}
</style>
<g id="LA_KCBS_CBS_LA">
	<path class="st0" d="M93.2,54.9c0,12.6-4.5,23.4-13.4,32.3s-19.7,13.4-32.2,13.4s-23.3-4.4-32.3-13.4C6.4,78.3,1.9,67.5,1.9,54.9
		s4.5-23.3,13.4-32.2S35,9.3,47.6,9.3s23.3,4.5,32.2,13.4S93.2,42.3,93.2,54.9L93.2,54.9z M90.5,54.9c-3.6-7.9-9.1-14.3-16.6-19.3
		c-7.9-5.3-16.7-8-26.3-8s-18.4,2.7-26.4,8C13.7,40.6,8.2,47,4.7,54.9c3.6,7.9,9.1,14.3,16.5,19.4c8,5.3,16.8,7.9,26.4,7.9
		s18.4-2.6,26.3-7.9C81.3,69.3,86.9,62.8,90.5,54.9z M71.8,54.9c0,6.7-2.4,12.4-7.1,17.1c-4.7,4.7-10.4,7.1-17.1,7.1
		S35.2,76.7,30.5,72c-4.7-4.7-7.1-10.4-7.1-17.1s2.4-12.4,7.1-17.1s10.4-7,17.1-7s12.4,2.3,17.1,7S71.8,48.2,71.8,54.9z"/>
	<path class="st0" d="M181.5,81.4c0,0-11.8,16.5-35.4,16.5c-25.3,0-44.8-19.4-44.8-43s19.4-43,44.8-43c23,0,34.8,16.5,34.8,16.5
		l-11.8,11.8c0,0-8.2-11.8-23-11.8S119.6,40.2,119.6,55s11.8,26.5,26.5,26.5s23.6-11.8,23.6-11.8L181.5,81.4L181.5,81.4z"/>
	<path class="st0" d="M188.1,13.7h34.8c16.5,0,26.5,10,26.5,21.8c0,13-11.2,17.1-11.2,17.1s15.3,4.1,15.3,20
		c0,13-10.6,23.6-28.3,23.6h-37.1L188.1,13.7L188.1,13.7z M221.6,45.5c5.9,0,9.4-3.5,9.4-8.2s-3.5-8.2-9.4-8.2h-15.9v16.5H221.6z
		 M224,80.9c7.1,0,11.2-4.1,11.2-10s-4.1-10-11.2-10h-18.3v20L224,80.9L224,80.9z"/>
	<path class="st0" d="M267.4,73.2c0,0,7.1,8.8,19.4,8.8c9.4,0,13.5-4.1,13.5-9.4c0-14.1-41.2-7.7-41.2-36.5c0-13,11.2-24.2,30-24.2
		s27.7,11.2,27.7,11.2l-11.8,11.8c0,0-5.9-7.1-15.3-7.1c-8.8,0-12.4,3.5-12.4,8.2c0,14.1,41.2,7.7,41.2,36.5
		c0,13.6-11.8,25.3-31.2,25.3c-21.2,0-31.8-13-31.8-13L267.4,73.2L267.4,73.2z"/>
	<path class="st0" d="M454.8,13.5l-34.5,83.1h9.5l9.5-23.1l39.2,0l9.5,23.2h9.5l-34.4-83.2L454.8,13.5L454.8,13.5z M442.9,65.2
		L459,26l16,39.2L442.9,65.2L442.9,65.2z"/>
	<polygon class="st0" points="365.9,13.3 357,13.3 356.9,96.4 408.6,96.4 408.6,88.1 365.8,88.1 	"/>
</g>
</svg>
