<svg width="164" height="36" viewBox="0 0 164 36" fill="none" xmlns="http://www.w3.org/2000/svg">
<path d="M43.3969 7.84741H38.002V28.1822H42.0333V21.7201H42.8041C47.8432 21.7201 50.9854 19.0523 50.9854 14.7541C50.9854 10.367 48.1397 7.84741 43.3969 7.84741ZM43.219 18.2816H42.0333V11.2267H43.1894C45.5608 11.2267 47.0429 12.5606 47.0429 14.6948C47.0429 16.9773 45.6794 18.2816 43.219 18.2816Z" fill="#383cc4"/>
<path d="M76.5672 16.1177C74.6701 15.1395 73.188 14.3984 73.188 12.857C73.188 11.8492 74.0772 11.1674 75.6187 11.1674C77.3972 11.1674 79.0275 11.7306 80.2132 12.4717V8.64779C78.9683 8.11422 77.1897 7.63995 75.6187 7.63995C71.0834 7.63995 69.127 10.2781 69.127 13.1831C69.127 16.7699 71.3798 18.2223 73.8994 19.5563C76.3894 20.8309 77.3379 21.5423 77.3379 22.8169C77.3379 24.0323 76.3004 24.6844 74.5515 24.6844C72.1505 24.6844 70.4016 23.5876 69.3344 22.728V26.789C70.3423 27.5005 72.5951 28.3601 74.5219 28.3601C78.9089 28.3601 81.6361 26.1369 81.6361 22.4612C81.6361 18.667 78.3754 17.0663 76.5672 16.1177Z" fill="#383cc4"/>
<path d="M63.762 17.2441C65.1255 16.2659 65.7776 14.8727 65.7776 13.0349C65.7776 9.80381 63.4359 7.84741 59.612 7.84741H53.3574V28.1822H59.8788C64.8884 28.1822 67.1708 25.0104 67.1708 22.0462C67.1708 19.7044 65.8369 17.8666 63.762 17.2441ZM57.4184 11.2563H59.3156C60.9162 11.2563 61.9241 12.2345 61.9241 13.7759C61.9241 15.258 60.8273 16.2659 59.1081 16.2659H57.4184V11.2563ZM59.5824 24.7733H57.4184V19.4673H59.9677C61.9834 19.4673 63.1988 20.4751 63.1988 22.0758C63.1988 23.9137 61.9834 24.7733 59.5824 24.7733Z" fill="#383cc4"/>
<path d="M18.5266 14.7838C18.5266 15.8509 17.6669 16.7402 16.5998 16.7402C15.5327 16.7402 14.6138 15.8509 14.6138 14.7838C14.6138 13.7167 15.5327 12.8571 16.5998 12.8571C17.6669 12.8571 18.5266 13.7167 18.5266 14.7838Z" fill="#383cc4"/>
<path fill-rule="evenodd" clip-rule="evenodd" d="M34 18.0148C34 27.3819 26.3819 35 17.0148 35C7.6181 35 0 27.3819 0 18.0148C0 8.61815 7.6181 1 17.0148 1C26.3819 1 34 8.61815 34 18.0148ZM29.7907 17.3034L24.8701 7.84744H21.7873L26.6783 17.3034C26.8562 17.6591 26.6486 18.1334 26.2929 18.1927L24.3958 18.5484V22.0462C24.3958 23.2023 23.4472 24.1212 22.1726 24.1212H21.2537V28.1822H24.3365V24.1212H25.2851C26.53 24.1212 27.5083 23.2023 27.5083 22.0462V18.5484L29.3758 18.1927C29.7611 18.1334 29.9686 17.6591 29.7907 17.3034ZM18.0819 7.84744H12.9834C8.29992 7.84744 4.35745 11.6417 4.44638 16.2659C4.5353 19.7934 6.78812 22.3426 9.90059 23.3505V28.1822H17.5187V24.1212H18.497C19.7419 24.1212 20.6905 23.2023 20.6905 22.0462V18.5484L22.5876 18.1927C22.973 18.1334 23.1805 17.5998 23.0323 17.3034L18.0819 7.84744Z" fill="#383cc4"/>
<path d="M112.203 13.2424C107.697 13.2424 104.199 16.5327 104.199 20.8309C104.199 25.129 107.697 28.3897 112.203 28.3897C116.738 28.3897 120.206 25.129 120.206 20.8309C120.206 16.5327 116.738 13.2424 112.203 13.2424ZM112.203 24.5955C110.217 24.5955 108.379 23.143 108.379 20.8309C108.379 18.5187 110.217 17.0959 112.203 17.0959C114.189 17.0959 116.056 18.5187 116.056 20.8309C116.056 23.143 114.189 24.5955 112.203 24.5955Z" fill="#DD108A"/>
<path d="M88.7267 22.2537C90.5052 23.9434 92.6988 24.5362 94.7145 24.5362C96.7895 24.5362 97.9752 23.7655 97.9752 22.4909C97.9752 21.0977 95.663 20.238 93.4991 19.2005C91.1277 18.0741 88.5488 16.2956 88.5488 13.1535C88.5488 9.74457 91.4538 7.63995 95.2184 7.63995C97.8862 7.63995 99.7241 8.38102 100.673 8.88494V12.857C99.4276 11.9974 97.6787 11.4638 95.8113 11.4638C94.1216 11.4638 92.9063 11.9974 92.9063 13.0645C92.9063 14.191 93.8548 14.8134 96.7005 16.2066C100.109 17.8666 102.362 19.3191 102.362 22.313C102.362 25.8998 99.6944 28.3897 95.1295 28.3897C92.0763 28.3897 89.9124 27.4115 88.7267 26.5519V22.2537Z" fill="#DD108A"/>
<path d="M163.189 7.63995H159.068V28.1822H163.189V7.63995Z" fill="#DD108A"/>
<path d="M151.775 13.687V14.8727C150.916 13.9242 149.226 13.2424 147.566 13.2424C143.416 13.2424 140.215 16.5327 140.215 20.8309C140.215 25.6033 143.742 28.3897 147.329 28.3897C149.463 28.3897 150.797 27.7079 151.775 26.7297V28.1822H155.836V13.687H151.775ZM148.159 24.5955C145.847 24.5955 144.335 22.7576 144.335 20.8309C144.335 18.9041 145.847 17.0959 148.159 17.0959C150.382 17.0959 151.953 18.9041 151.953 20.8309C151.953 22.7576 150.382 24.5955 148.159 24.5955Z" fill="#DD108A"/>
<path d="M121.926 18.1038C121.926 12.0863 126.491 7.63995 133.042 7.63995C135.443 7.63995 137.281 8.26245 138.97 9.21101L137.399 12.8274C136.54 12.3235 134.761 11.6121 133.012 11.6121C128.773 11.6121 126.372 14.606 126.372 18.0148C126.372 21.6016 129.307 24.388 133.101 24.388C134.435 24.388 136.273 23.9137 138.051 22.9651L139.504 26.5519C138.259 27.3226 135.947 28.3897 133.101 28.3897C126.343 28.3897 121.926 24.0026 121.926 18.1038Z" fill="#DD108A"/>
</svg>
