<?xml version="1.0" encoding="utf-8"?>
<!-- Generator: Adobe Illustrator 25.2.1, SVG Export Plug-In . SVG Version: 6.00 Build 0)  -->
<svg version="1.1" id="Layer_1" xmlns="http://www.w3.org/2000/svg" xmlns:xlink="http://www.w3.org/1999/xlink" x="0px" y="0px"
	 viewBox="0 0 130 54" style="enable-background:new 0 0 130 54;" xml:space="preserve">
<style type="text/css">
	.st0{fill:#10144c;}
</style>
<g>
	<g>
		<path class="st0" d="M4.2,51.4c-1,0-1.9-0.2-2.5-0.5c-0.6-0.3-1.1-0.8-1.3-1.4c-0.1-0.3-0.2-0.8-0.2-1.2h3.2c0,0.1,0,0.2,0,0.3
			c0,0.1,0,0.2,0.1,0.2c0.1,0.2,0.2,0.3,0.3,0.4c0.1,0.1,0.3,0.1,0.6,0.1c0.4,0,0.7-0.1,0.8-0.4c0-0.1,0.1-0.2,0.1-0.3
			c0-0.1,0-0.1,0-0.2c0-0.1,0-0.1,0-0.1C5,48,4.9,47.9,4.7,47.8c-0.2-0.1-0.4-0.2-0.6-0.3c-0.2-0.1-0.5-0.2-0.7-0.2
			c-0.3-0.1-0.5-0.1-0.8-0.2c-0.4-0.1-0.8-0.3-1.2-0.6c-0.4-0.3-0.7-0.6-0.9-1c-0.1-0.2-0.1-0.3-0.2-0.5c0-0.2-0.1-0.4-0.1-0.6
			c0-0.2,0-0.4,0.1-0.6c0-0.2,0.1-0.4,0.2-0.6c0.2-0.6,0.7-1,1.3-1.3c0.6-0.3,1.4-0.5,2.3-0.5c0.9,0,1.6,0.1,2.2,0.4
			c0.6,0.3,1.1,0.7,1.3,1.3c0.1,0.2,0.2,0.4,0.2,0.6c0,0.2,0.1,0.4,0.1,0.7h-3c0-0.2,0-0.4-0.1-0.6c-0.1-0.1-0.2-0.2-0.3-0.3
			c-0.1-0.1-0.3-0.1-0.5-0.1c-0.4,0-0.6,0.1-0.8,0.4c0,0.1-0.1,0.2-0.1,0.3s0,0.2,0.1,0.3c0.1,0.1,0.2,0.2,0.3,0.3
			c0.1,0.1,0.3,0.2,0.5,0.2c0.2,0.1,0.4,0.1,0.7,0.2c0.2,0.1,0.5,0.1,0.8,0.2c0.3,0.1,0.5,0.2,0.8,0.3c0.3,0.1,0.5,0.2,0.7,0.4
			c0.2,0.1,0.4,0.3,0.6,0.5c0.2,0.2,0.3,0.4,0.4,0.6c0.1,0.2,0.1,0.4,0.2,0.6c0,0.2,0.1,0.4,0.1,0.7c0,0.3,0,0.5-0.1,0.7
			c0,0.2-0.1,0.4-0.2,0.6c-0.3,0.6-0.8,1.1-1.4,1.4C5.9,51.2,5.1,51.4,4.2,51.4z"/>
		<path class="st0" d="M20.6,41.6h6.5v2.3h-3.6v1.3h3.6v2.2h-3.6v1.4h3.6v2.3h-6.5V41.6z"/>
		<path class="st0" d="M46.4,49.5H43l-0.5,1.6h-3l3-9.5h4.3l3,9.5h-3L46.4,49.5z M45.8,47.4l-1.1-3.7h0l-1.1,3.7H45.8z"/>
		<path class="st0" d="M63.6,43.9h-1.9v-2.3h6.6v2.3h-1.9v7.2h-2.9V43.9z"/>
		<path class="st0" d="M83.8,43.9h-1.9v-2.3h6.6v2.3h-1.9v7.2h-2.9V43.9z"/>
		<path class="st0" d="M103.5,41.6h2.9v7h2.3v2.5h-5.2V41.6z"/>
		<path class="st0" d="M123.4,41.6h6.5v2.3h-3.6v1.3h3.6v2.2h-3.6v1.4h3.6v2.3h-6.5V41.6z"/>
	</g>
	<g>
		<path class="st0" d="M129.9,12.6c0-5.5-4.5-10-10-10h-16.3V12l14,0c1.1,0,2,0.9,2,2c0,1.1-0.9,2-2,2h-9.1v7.8l9.2,0
			c1.1,0,1.9,0.9,1.9,1.9c0,1.1-0.9,1.9-1.9,1.9h-11.4L101,37h19c5.5,0,10-4.5,10-10c0-2.8-1.2-5.3-3-7.2
			C128.8,18,129.9,15.4,129.9,12.6"/>
		<g>
			<polygon class="st0" points="90,2.6 84.8,12 89.3,12 89.3,37 99.7,37 99.7,2.6 			"/>
		</g>
	</g>
	<g>
		<g>
			<polygon class="st0" points="81.5,2.6 70.4,2.6 66.2,10 62,2.6 50.9,2.6 60.6,19.8 50.9,37 62.1,37 66.2,29.7 70.3,37 81.5,37 
				71.8,19.8 			"/>
			<path class="st0" d="M38.9,2.6c-9.5,0-17.2,7.7-17.2,17.2S29.4,37,38.9,37C48.3,37,56,29.3,56,19.8S48.3,2.6,38.9,2.6z
				 M41.9,26.9c0,1.6-1.4,2.9-3,2.9c-1.6,0-2.8-1.3-2.8-2.9l0-14.1c0-1.6,1.3-3,2.8-3c1.6,0,3,1.4,3,3V26.9z"/>
			<polygon class="st0" points="10.6,37 10.6,25.9 20.1,25.9 20.1,16.5 10.6,16.5 10.6,12 22.2,12 21.6,2.6 0.2,2.6 0.2,37 			"/>
		</g>
	</g>
</g>
</svg>
