<?xml version="1.0" encoding="UTF-8" standalone="no"?>
<svg
   width="85.252296"
   height="12.8898"
   viewBox="0 0 85.252296 12.8898"
   fill="none"
   version="1.1"
   id="svg19"
   sodipodi:docname="KCTS 2024.svg"
   inkscape:version="1.3.2 (091e20e, 2023-11-25, custom)"
   xmlns:inkscape="http://www.inkscape.org/namespaces/inkscape"
   xmlns:sodipodi="http://sodipodi.sourceforge.net/DTD/sodipodi-0.dtd"
   xmlns="http://www.w3.org/2000/svg"
   xmlns:svg="http://www.w3.org/2000/svg">
  <defs
     id="defs19" />
  <sodipodi:namedview
     id="namedview19"
     pagecolor="#ffffff"
     bordercolor="#000000"
     borderopacity="0.25"
     inkscape:showpageshadow="2"
     inkscape:pageopacity="0.0"
     inkscape:pagecheckerboard="0"
     inkscape:deskcolor="#d1d1d1"
     inkscape:zoom="13.204545"
     inkscape:cx="42.561102"
     inkscape:cy="2.0068847"
     inkscape:window-width="1920"
     inkscape:window-height="1027"
     inkscape:window-x="-8"
     inkscape:window-y="-8"
     inkscape:window-maximized="1"
     inkscape:current-layer="svg19" />
  <path
     d="M 83.2898,5.7257 C 82.5704,5.3609 81.989,5.063 81.989,4.498 c 0,-0.4007 0.3492,-0.649 0.9359,-0.649 0.6984,0 1.3165,0.2209 1.7914,0.4983 V 2.8919 c -0.4976,-0.2106 -1.1803,-0.387 -1.7914,-0.387 -1.7338,0 -2.5108,1.0137 -2.5108,2.1095 0,1.2859 0.8835,1.904 1.8577,2.4091 0.9604,0.4983 1.3235,0.7141 1.3235,1.2517 0,0.4555 -0.4015,0.7157 -1.0773,0.7157 -0.9358,0 -1.6011,-0.4246 -2.0323,-0.7636 v 1.5478 c 0.405,0.2774 1.2728,0.6096 2.0219,0.6096 1.6831,0 2.7447,-0.8613 2.7447,-2.2482 0,-1.3869 -1.2466,-2.0427 -1.9643,-2.4091 z"
     fill="#ffffff"
     id="path1"
     style="fill:#2638c4;fill-opacity:1" />
  <path
     d="M 70.4526,2.5772 H 68.373 v 7.7342 h 1.5523 V 7.8509 h 0.3125 c 1.9433,0 3.1499,-1.0136 3.1499,-2.6437 0,-1.6301 -1.0983,-2.63 -2.9351,-2.63 z M 70.3932,6.5479 H 69.9253 V 3.8665 h 0.4557 c 0.9114,0 1.4998,0.5171 1.4998,1.3167 0,0.8664 -0.543,1.363 -1.4876,1.363 z"
     fill="#ffffff"
     id="path2"
     style="fill:#2638c4;fill-opacity:1" />
  <path
     d="m 78.3423,6.1472 c 0.5255,-0.3613 0.7822,-0.8835 0.7822,-1.5907 0,-1.2208 -0.9149,-1.9793 -2.3886,-1.9793 h -2.4078 v 7.7342 h 2.5143 c 1.9276,0 2.8059,-1.214 2.8059,-2.3423 0,-0.8921 -0.4976,-1.5822 -1.306,-1.8236 z m -2.462,-2.267 h 0.7439 c 0.6076,0 1.0004,0.3716 1.0004,0.9452 0,0.5736 -0.4243,0.9571 -1.0825,0.9571 h -0.66 V 3.8802 Z m 0.8399,5.1402 H 75.8803 V 7.0016 h 0.9831 c 0.7822,0 1.2501,0.375 1.2501,1.0034 0,0.6729 -0.4679,1.0154 -1.3933,1.0154 z"
     fill="#ffffff"
     id="path3"
     style="fill:#2638c4;fill-opacity:1" />
  <path
     d="m 66.8219,6.4449 c 0,3.5598 -2.9421,6.4449 -6.5721,6.4449 -3.63,0 -6.5721,-2.8851 -6.5721,-6.4449 C 53.6777,2.8852 56.6198,0 60.2498,0 c 3.63,0 6.5721,2.8852 6.5721,6.4449 z"
     fill="#ffffff"
     id="path4"
     style="fill:#2638c4;fill-opacity:1" />
  <path
     d="M 65.2014,6.1634 63.2877,2.5762 h -1.2012 l 1.9136,3.5872 c 0.0751,0.1404 -0.0087,0.3116 -0.1658,0.3424 l -0.7299,0.1456 v 1.3218 c 0,0.4435 -0.3719,0.7979 -0.8538,0.7979 H 61.877 v 1.5376 h 1.2012 V 8.7711 h 0.3737 c 0.4819,0 0.8538,-0.3544 0.8538,-0.7979 V 6.6514 l 0.7298,-0.1456 c 0.1589,-0.0308 0.241,-0.2037 0.1659,-0.3424 z"
     fill="#2638c4"
     id="path5"
     style="fill:#ffffff;fill-opacity:1" />
  <path
     d="M 62.5768,6.1634 60.6632,2.5762 h -1.98 c -1.8002,0 -3.3297,1.4451 -3.2878,3.2105 0.0314,1.3167 0.8992,2.3047 2.1039,2.6762 v 1.8475 h 2.9543 V 8.7728 h 0.3737 c 0.4819,0 0.8538,-0.3544 0.8538,-0.7979 V 6.6531 l 0.7298,-0.1456 c 0.1589,-0.0308 0.241,-0.2037 0.1659,-0.3424 z M 60.087,5.9579 c -0.4156,0 -0.7508,-0.3305 -0.7508,-0.7363 0,-0.4058 0.337,-0.7362 0.7508,-0.7362 0.4138,0 0.7508,0.3304 0.7508,0.7362 0,0.4058 -0.337,0.7363 -0.7508,0.7363 z"
     fill="#2638c4"
     id="path6"
     style="fill:#ffffff;fill-opacity:1" />
  <path
     d="m 3.98096,9.2196 c -1.3462,0 -2.61381,-0.9606 -2.61381,-2.7705 0,-1.8098 1.30079,-2.8029 2.60333,-2.8029 1.30254,0 2.05857,0.7534 2.29254,1.6917 L 7.52016,4.9235 C 7.16397,3.5708 5.97318,2.4151 3.97223,2.4151 1.97127,2.4151 0,3.9321 0,6.4508 c 0,2.5188 1.85778,4.0255 3.9827,4.0255 2.01318,0 3.21445,-1.255 3.57064,-2.5632 L 6.32937,7.521 C 6.06223,8.3942 5.30619,9.223 3.9827,9.223 Z"
     fill="#ffffff"
     id="path7"
     style="fill:#1e144b;fill-opacity:1" />
  <path
     d="M 10.6906,2.5762 7.6211,10.3104 H 9.0336 L 9.7687,8.3687 h 3.3367 l 0.7455,1.9417 h 1.458 L 12.2376,2.5762 Z m -0.4557,4.582 1.2013,-3.1643 1.2012,3.1643 z"
     fill="#ffffff"
     id="path8"
     style="fill:#1e144b;fill-opacity:1" />
  <path
     d="M 19.1541,5.9032 18.0192,5.6737 C 17.4081,5.5436 17.0955,5.172 17.0955,4.6806 c 0,-0.589 0.557,-1.1129 1.3567,-1.1129 1.0563,0 1.4684,0.7088 1.547,1.1883 L 21.2004,4.3844 C 21.0223,3.5232 20.2995,2.4102 18.4417,2.4102 c -1.4684,0 -2.6819,1.0684 -2.6819,2.368 0,1.1558 0.8014,1.9314 2.0027,2.1712 l 1.1122,0.2294 c 0.6792,0.1421 1.0564,0.5462 1.0564,1.0479 0,0.5993 -0.4889,1.0684 -1.4353,1.0684 -1.1349,0 -1.725,-0.7414 -1.8019,-1.5495 l -1.2466,0.3493 c 0.1222,1.1129 1.0458,2.3783 3.0485,2.3783 1.8019,0 2.7919,-1.1455 2.7919,-2.3458 0,-1.0907 -0.7455,-1.952 -2.1354,-2.2259 z"
     fill="#ffffff"
     id="path9"
     style="fill:#1e144b;fill-opacity:1" />
  <path
     d="m 25.9282,9.2196 c -1.3462,0 -2.6138,-0.9606 -2.6138,-2.7705 0,-1.8098 1.3008,-2.8029 2.6033,-2.8029 1.3026,0 2.0586,0.7534 2.2926,1.6917 l 1.2571,-0.4144 c -0.3562,-1.3527 -1.547,-2.5084 -3.5479,-2.5084 -2.001,0 -3.9722,1.517 -3.9722,4.0357 0,2.5188 1.8577,4.0255 3.9827,4.0255 2.0131,0 3.2144,-1.255 3.5706,-2.5632 L 28.2766,7.521 C 28.0095,8.3942 27.2535,9.223 25.93,9.223 Z"
     fill="#ffffff"
     id="path10"
     style="fill:#1e144b;fill-opacity:1" />
  <path
     d="m 40.6943,2.5762 h -2.792 v 7.7342 h 2.7815 c 2.1354,0 3.8482,-1.3749 3.8482,-3.8508 0,-2.4759 -1.6901,-3.8834 -3.8377,-3.8834 z M 40.6384,9.1101 H 39.2363 V 3.7748 h 1.4126 c 1.3688,0 2.4915,0.8732 2.4915,2.6831 0,1.8098 -1.1349,2.6505 -2.5038,2.6505 z"
     fill="#ffffff"
     id="path11"
     style="fill:#1e144b;fill-opacity:1" />
  <path
     d="M 50.3888,3.7988 V 2.5762 h -4.8732 v 7.7342 h 4.8732 V 9.0896 H 46.8513 V 7.0383 h 3.204 V 5.85 h -3.204 V 3.7988 Z"
     fill="#ffffff"
     id="path12"
     style="fill:#1e144b;fill-opacity:1" />
  <path
     d="m 33.8808,2.5762 -0.543,1.4229 1.1995,3.1591 h -2.4025 l -0.461,1.2105 h 3.3315 l 0.7438,1.9417 H 37.207 L 34.1375,2.5762 Z"
     fill="#ffffff"
     id="path13"
     style="fill:#1e144b;fill-opacity:1" />
  <path
     d="m 32.593,2.5762 -3.0696,7.7342 h 1.4126 l 0.7403,-1.9417 0.4714,-1.2362 1.1908,-3.1386 0.5413,-1.4177 z"
     fill="#9fdc45"
     id="path14" />
</svg>
