<?xml version="1.0" encoding="utf-8"?>
<!-- Generator: Adobe Illustrator 23.0.3, SVG Export Plug-In . SVG Version: 6.00 Build 0)  -->
<svg version="1.1" xmlns="http://www.w3.org/2000/svg" xmlns:xlink="http://www.w3.org/1999/xlink" x="0px" y="0px"
	 viewBox="0 0 954 318.01" style="enable-background:new 0 0 954 318.01;" xml:space="preserve">
<style type="text/css">
	.st0{fill:#FFFFFF;}
</style>
<g id="Layer_2">
	<g>
		<rect x="1" y="0" class="st0" width="954" height="318"/>
	</g>
</g>
<g id="Layer_1">
	<g>
		<path d="M827.23,99.16v-0.92c0-17.31-13.7-27.34-40.15-27.34h-65.06v56.05h63.23C812.16,126.95,827.23,117.84,827.23,99.16
			 M816.69,0c35.27,1.4,60.65,11.25,77.87,28.52C907.27,41.27,915,58.13,915,80v0.92c0,36.91-20.8,58.79-48.82,71.1
			c38.42,12.75,62.82,34.64,62.82,77.93v0.91c0,49.77-36.72,81.8-100.23,87.14H955V0H816.69z M840.46,218.54v-0.91
			c0-17.3-13.7-28.69-43.36-28.69h-75.08v58.78h76C824.95,247.72,840.46,237.23,840.46,218.54"/>
		<path d="M478.96,0.01c75.58,2.98,123.77,43.93,123.77,111.91v0.91c0,75.2-57.93,114.85-137.31,114.85h-62.61v90.32h233.2V0.01
			H478.96z M514.23,116.93v-0.91c0-27.34-19.13-41.93-51.09-41.93h-60.32v84.31h60.78C495.09,158.4,514.23,142,514.23,116.93"/>
		<path d="M0,242.32v75.67h110.26C63.49,309.83,23.64,281.53,0,242.32 M163.59,0.01c76.98,12.18,135.85,78.82,135.85,159.21
			c0,79.53-57.59,145.54-133.33,158.77H318V0.01H163.59z M112.78,0.01H0v76.12C24.06,36.21,64.91,7.58,112.78,0.01 M214.5,159.22
			c0-42.15-34.16-76.32-76.31-76.32c-42.17,0-76.34,34.17-76.34,76.32c0,42.16,34.18,76.34,76.34,76.34
			C180.34,235.56,214.5,201.38,214.5,159.22"/>
	</g>
</g>
</svg>
