<svg xmlns="http://www.w3.org/2000/svg" viewBox="0 0 107 60"><defs><style>.a{fill:none;}.b{fill:#000;}</style></defs><title>kepr_logo_w</title><rect class="a" width="107" height="60"/><path class="b" d="M74.08,22.78H72.89v5.64h1.19c1.56,0,2.4-.88,2.4-2.82s-.84-2.82-2.4-2.82"/><path class="b" d="M3.83,30c2.05,3.75,5.92,6.87,10.67,6.89S23.15,33.76,25.18,30A12.32,12.32,0,0,0,14.5,23.27c-4.71,0-8.6,3-10.67,6.74m16.82.09A6.15,6.15,0,1,1,14.5,24a6.14,6.14,0,0,1,6.15,6.15"/><path class="b" d="M92.7,22.78H91.47V28.2h1.26a2.42,2.42,0,0,0,2.6-2.74c0-1.88-.77-2.68-2.63-2.68"/><path class="b" d="M0,47H106.4V13H0Zm14.5-5.32A11.59,11.59,0,1,1,26.09,30.1,11.57,11.57,0,0,1,14.5,41.68M40,41.58l-3.64-8.07L35,35.44v6.14H28.84V18.43H35v8.91h.08l4.6-8.91h6.61l-6,10.11,6.74,13Zm23.57,0H49.15V18.43H63.27v4.94H55.38v4h7.36v4.73H55.38v4.56h8.16Zm11.54-8.81H72.89v8.81H66.71V18.43H76c4.74,0,6.87,3.09,6.87,7.13,0,4.73-2.77,7.21-7.8,7.21m27.29,8.81H95.76a11.9,11.9,0,0,1-.58-4.42V35.6c0-2.62-.55-3.32-2.05-3.32H91.47v9.3H85.29V18.43H95c4.73,0,6.54,2.6,6.54,6.16,0,3.07-1.26,5.09-4.05,5.51v.07c3,.25,3.86,2.1,3.86,5.17v2a9.1,9.1,0,0,0,.31,3.2,1.53,1.53,0,0,0,.71.72Z"/></svg>