<?xml version="1.0" encoding="UTF-8" standalone="no"?>
<svg viewBox="0 0 1400.1046 1200.5485" version="1.1" id="svg23" sodipodi:docname="KETV_(2021).svg" inkscape:version="1.1.1 (3bf5ae0, 2021-09-20)" inkscape:export-filename="/home/ethan/All created logos or graphics/KETV_(2021).png" inkscape:export-xdpi="69.568207" inkscape:export-ydpi="69.568207" xmlns:inkscape="http://www.inkscape.org/namespaces/inkscape" xmlns:sodipodi="http://sodipodi.sourceforge.net/DTD/sodipodi-0.dtd" xmlns:xlink="http://www.w3.org/1999/xlink" xmlns="http://www.w3.org/2000/svg" xmlns:svg="http://www.w3.org/2000/svg" xmlns:rdf="http://www.w3.org/1999/02/22-rdf-syntax-ns#" xmlns:cc="http://creativecommons.org/ns#" xmlns:dc="http://purl.org/dc/elements/1.1/">
  <metadata id="metadata29">
    <rdf:RDF>
      <cc:Work rdf:about="">
        <dc:format>image/svg+xml</dc:format>
        <dc:type rdf:resource="http://purl.org/dc/dcmitype/StillImage" />
      </cc:Work>
    </rdf:RDF>
  </metadata>
  <defs id="defs27">
    <linearGradient inkscape:collect="always" id="linearGradient941">
      <stop style="stop-color:#7b7c7c;stop-opacity:1;" offset="0" id="stop937" />
      <stop id="stop945" offset="0.35812023" style="stop-color:#ffffff;stop-opacity:1" />
      <stop style="stop-color:#c9caca;stop-opacity:1" offset="0.4979398" id="stop947" />
      <stop id="stop949" offset="0.65768325" style="stop-color:#969696;stop-opacity:1" />
      <stop style="stop-color:#c6c7c8;stop-opacity:1" offset="1" id="stop939" />
    </linearGradient>
    <linearGradient inkscape:collect="always" id="linearGradient929">
      <stop style="stop-color:#0020bc;stop-opacity:1;" offset="0" id="stop925" />
      <stop id="stop933" offset="0.3316336" style="stop-color:#0020bc;stop-opacity:1" />
      <stop style="stop-color:#0020bc;stop-opacity:1" offset="0.67103535" id="stop935" />
      <stop style="stop-color:#001766;stop-opacity:1" offset="1" id="stop927" />
    </linearGradient>
    <radialGradient inkscape:collect="always" xlink:href="#linearGradient929" id="radialGradient931" cx="689.01074" cy="686.70966" fx="689.01074" fy="686.70966" r="255.70432" gradientTransform="matrix(1.4508213,-0.86098759,0.56901443,0.95882703,-902.267,425.81522)" gradientUnits="userSpaceOnUse" />
    <linearGradient inkscape:collect="always" xlink:href="#linearGradient941" id="linearGradient943" x1="568.90924" y1="1001.5462" x2="1291.1415" y2="678.76086" gradientUnits="userSpaceOnUse" gradientTransform="matrix(1.2652973,0,0,1.2652973,-674.2924,-667.50126)" />
  </defs>
  <sodipodi:namedview pagecolor="#505050" bordercolor="#eeeeee" borderopacity="1" objecttolerance="10" gridtolerance="10" guidetolerance="10" inkscape:pageopacity="0" inkscape:pageshadow="2" inkscape:window-width="1366" inkscape:window-height="703" id="namedview25" showgrid="false" inkscape:zoom="0.12392135" inkscape:cx="1763.2151" inkscape:cy="766.61527" inkscape:window-x="0" inkscape:window-y="0" inkscape:window-maximized="1" inkscape:current-layer="svg23" inkscape:pagecheckerboard="0" inkscape:document-units="pt" />
  <path inkscape:connector-curvature="0" style="opacity:1;fill:black;fill-opacity:1;stroke:none;stroke-width:1.13607" id="path5" d="m 53.7902,1009.6049 c 15.1664,-0.014 30.3214,-0.014 45.4877,0 -0.047,26.3339 0.094,52.6792 -0.08,79.0245 35.0137,-26.2885 70.0155,-52.5997 104.9496,-78.9904 21.6419,0.024 43.3063,-0.273 64.9487,0.1591 -4.9304,4.4079 -10.6906,7.6911 -15.9505,11.6673 -36.6834,26.1408 -73.4234,52.2021 -110.1299,78.3088 46.5899,33.0708 93.0895,66.2779 139.7134,99.3032 0,-63.1651 0,-126.3301 0,-189.4838 64.9486,0.014 129.9085,0 194.8571,0.014 0,11.1675 0,22.3463 0,33.5252 -50.18,0.014 -100.3595,-0.014 -150.5512,0.014 0,13.8145 0,27.6177 0,41.4322 29.3448,0 58.7004,0 88.0565,0 0,10.9971 0,21.9942 0,32.9799 -29.3561,0.014 -58.7117,0 -88.0565,0.014 0,15.5073 -0.047,31.0259 0,46.5445 50.7367,-0.014 101.4735,0 152.221,-0.014 -0.047,12.1445 0.08,24.289 -0.056,36.4449 -54.4854,-0.1139 -108.9713,-0.024 -163.4566,-0.047 -34.5595,-0.1361 -69.1519,0.2729 -103.6888,-0.2043 -37.7622,-27.3905 -75.2867,-55.1558 -112.8451,-82.8417 0.1271,27.6859 0.047,55.3603 0.047,83.0462 -15.155,0 -30.3101,0 -45.4651,0 0,-63.6309 0,-127.2617 0,-190.8926 z" />
  <path id="path7" style="opacity:1;fill:black;fill-opacity:1;stroke:none;stroke-width:1.11951" d="m 726.6568,1009.5253 c -81.7029,0.1704 -163.4048,0.024 -245.1185,0.079 0,11.5424 0.047,23.085 -0.047,34.6274 28.3193,0.091 56.6494,0 84.979,0.047 0,52.0658 0,104.1421 0,156.2078 14.5291,0.014 29.0586,0.014 43.599,0 -0.047,-52.0657 0,-104.1428 0,-156.2199 28.3631,0 56.7256,-0.01 85.0887,0.014 0.08,-0.534 0.2306,-1.5799 0.3106,-2.1025 5.891,12.0877 13.0508,23.4939 19.4049,35.343 23.0571,40.9664 45.9151,82.0471 69.0159,122.9794 10.1823,-0.014 20.3763,0 30.5694,0 27.7898,-52.4179 55.8879,-104.6663 83.7765,-157.0275 5.7917,-11.3379 12.4545,-22.2326 17.6946,-33.8431 -14.3196,0 -28.6388,-0.1247 -42.9364,0.047 -1.7761,1.1473 -2.2383,3.511 -3.2648,5.2605 -22.7695,43.9884 -45.5399,87.9654 -68.332,131.931 -24.9208,-45.772 -49.7206,-91.635 -74.7633,-137.3389 z" />
  <ellipse style="fill:url(#radialGradient931);fill-opacity:1;stroke:none;stroke-width:8.70347;stroke-opacity:0.965909" id="path923" cx="488.11337" cy="491.02148" rx="431.38931" ry="418.75452" />
  <path id="path3" style="opacity:1;fill:url(#linearGradient943);fill-opacity:1;stroke:none;stroke-width:2.50865" d="m 489.7617,1.25543 c -269.6981,0 -488.506,218.0402 -488.506,486.85281 0,268.81266 218.8079,486.85531 488.506,486.85531 269.6981,0 488.5061,-218.04265 488.5061,-486.85531 0,-123.25732 -46.0078,-235.83486 -121.8272,-321.61781 0,-0.005 0,-0.0141 0,-0.0188 0,-0.003 0,-0.005 0,-0.009 -2.2219,-2.51335 -4.4687,-5.00378 -6.7414,-7.47068 -0.16,-0.17367 -0.3201,-0.34733 -0.482,-0.52147 -2.2129,-2.39527 -4.4489,-4.77162 -6.7094,-7.12222 -0.1741,-0.18308 -0.353,-0.36569 -0.529,-0.54858 -2.2722,-2.35635 -4.5652,-4.69321 -6.885,-7.00367 -0.1082,-0.10872 -0.2212,-0.21508 -0.3294,-0.32333 -2.1748,-2.16192 -4.3713,-4.29933 -6.5866,-6.4204 -0.3059,-0.29368 -0.6095,-0.58962 -0.9168,-0.88226 -2.1616,-2.05914 -4.3449,-4.09668 -6.5438,-6.11642 -0.4565,-0.41887 -0.9116,-0.83817 -1.369,-1.25539 -2.1612,-1.97023 -4.3398,-3.92032 -6.5363,-5.85201 -0.4843,-0.42546 -0.97,-0.84908 -1.4561,-1.2727 -2.2742,-1.98393 -4.5643,-3.95177 -6.8751,-5.89405 -0.24,-0.19955 -0.4782,-0.39628 -0.7163,-0.59554 -2.4619,-2.06112 -4.9436,-4.10077 -7.4465,-6.11398 -0.047,-0.0282 -0.071,-0.0598 -0.1082,-0.089 0,-0.009 -0.047,-0.0188 -0.047,-0.0282 -2.684,-2.15755 -5.3945,-4.28422 -8.1256,-6.38581 0,-0.009 0,-0.0188 -0.047,-0.0235 0,-0.003 0,-0.005 0,-0.009 C 705.4782,39.04455 602.0407,1.2637 489.783,1.2637 Z m 6.4868,72.10962 c 107.0223,0.68449 213.3707,44.84928 288.7548,121.17197 -172.5705,0 -345.1166,-0.0235 -517.6871,0 -32.0105,42.09524 -63.7438,84.4172 -95.8042,126.51244 147.7345,0.65226 295.4925,-0.19955 443.2274,0.42782 -19.0162,25.36253 -40.0377,49.11887 -60.2573,73.52812 C 501.3987,457.54618 450.6484,522.51974 408.8792,593.28885 360.4871,674.34357 324.3139,764.55551 316.6881,859.3325 232.1713,819.14386 161.8028,749.57762 121.6394,664.98576 88.65,597.77874 75.7065,521.31651 82.4295,446.9098 91.7623,352.55925 134.0572,261.59584 201.5901,194.89075 269.123,126.68037 361.1663,83.30343 456.8462,75.10015 469.954,73.85174 483.106,73.28127 496.2485,73.36533 Z m 337.3478,179.27434 c 37.3287,54.6887 61.5849,118.15617 69.663,183.90798 0.8782,8.30366 1.6307,16.58394 1.9823,24.93773 2.1824,20.79677 0.7027,41.84219 -0.6777,62.68908 -9.8335,109.42756 -65.6,213.71428 -151.22,282.55178 -52.1802,42.6723 -115.0486,72.17443 -181.2515,84.91825 -23.4561,5.01743 -47.4126,6.37033 -71.2448,8.07616 0.8778,-13.82262 2.0059,-27.6457 3.0596,-41.44342 7.6512,-76.0875 29.4272,-150.26657 60.6353,-219.93193 64.6733,-144.02195 163.0626,-269.88101 269.0538,-385.70563 z" />
  <path style="opacity:1;fill:#999;fill-opacity:1;stroke:none;stroke-width:2.50866" d="m 489.7622,1.25543 c -1.1681,0 -2.3334,0.0141 -3.4997,0.0235 111.459,0.46217 214.1341,38.14955 296.1415,101.24851 0,0.003 0,0.009 0,0.0141 0,0.005 0,0.0188 0.047,0.0235 2.7307,2.10159 5.4415,4.22822 8.1256,6.38582 0,0.009 0,0.0188 0.047,0.0282 0.047,0.0282 0.071,0.0598 0.1082,0.0889 2.5029,2.0132 4.9845,4.05286 7.4465,6.11397 0.24,0.19908 0.4786,0.39581 0.7163,0.59555 2.3113,1.94232 4.6009,3.91006 6.8751,5.89399 0.4861,0.42358 0.9718,0.84715 1.4561,1.27275 2.1965,1.93169 4.3751,3.88183 6.5362,5.85197 0.4566,0.41746 0.9131,0.83651 1.3691,1.25543 2.1989,2.01975 4.3822,4.05728 6.5438,6.11642 0.3059,0.29274 0.6104,0.58886 0.9168,0.88226 2.2153,2.12103 4.4118,4.25843 6.5866,6.42036 0.1082,0.10872 0.2165,0.21508 0.3294,0.3238 2.3198,2.31051 4.6123,4.64732 6.885,7.00362 0.1741,0.18308 0.353,0.36522 0.5295,0.54863 2.26,2.3506 4.496,4.72695 6.7094,7.12227 0.16,0.17366 0.3247,0.34733 0.4819,0.52142 2.2723,2.46694 4.5196,4.95733 6.741,7.47068 0,0.003 0,0.005 0,0.009 0,0.005 0,0.0141 0,0.0188 75.819,85.78295 121.8267,198.36053 121.8267,321.61781 0,267.88592 -217.3042,485.34183 -485.7208,486.83803 0.9276,0 1.8538,0.0188 2.7829,0.0188 269.6981,0 488.5056,-218.0426 488.5056,-486.85521 0,-123.25737 -46.0073,-235.83491 -121.8267,-321.61786 0,-0.005 0,-0.0141 0,-0.0188 0,-0.003 0,-0.009 0,-0.009 -2.2219,-2.5133 -4.4692,-5.00374 -6.7419,-7.47064 -0.1601,-0.1746 -0.3201,-0.3478 -0.482,-0.52146 -2.2129,-2.39527 -4.4494,-4.77167 -6.7094,-7.12223 -0.1741,-0.18355 -0.353,-0.36568 -0.529,-0.54862 -2.2727,-2.35635 -4.5652,-4.69321 -6.8855,-7.00362 -0.1082,-0.10872 -0.2164,-0.21508 -0.3294,-0.3238 -2.1748,-2.16198 -4.3713,-4.29938 -6.5866,-6.42041 -0.3059,-0.29321 -0.6095,-0.58966 -0.9163,-0.88226 -2.1612,-2.05914 -4.345,-4.09667 -6.5443,-6.11642 -0.4565,-0.41887 -0.9111,-0.83821 -1.369,-1.25543 -2.1612,-1.97019 -4.3398,-3.92023 -6.5363,-5.85201 -0.4838,-0.42546 -0.97,-0.84904 -1.4557,-1.27266 -2.2741,-1.98393 -4.5642,-3.95176 -6.875,-5.89404 -0.2401,-0.19955 -0.4782,-0.39628 -0.7164,-0.5956 -2.4623,-2.06102 -4.9435,-4.10072 -7.4464,-6.11392 -0.047,-0.0282 -0.071,-0.0598 -0.1083,-0.0889 0,-0.009 0,-0.0188 -0.047,-0.0282 -2.6841,-2.1575 -5.3945,-4.28413 -8.1256,-6.38577 0,-0.009 0,-0.0188 -0.047,-0.0235 0,-0.003 0,-0.009 0,-0.009 C 705.4555,39.04424 602.0194,1.26338 489.7613,1.26338 Z m 0.9196,72.10962 c -13.1435,-0.0838 -26.2955,0.48636 -39.4023,1.73482 C 355.5991,83.30315 263.5563,126.68009 196.0229,194.89042 128.49,261.59555 86.1947,352.55901 76.8628,446.90951 c -6.7235,74.40672 6.2205,150.86895 39.2089,218.07602 40.1639,84.59185 110.5324,154.158 195.0487,194.34664 0.071,-0.8704 0.1601,-1.7375 0.2354,-2.60715 C 229.2194,816.17629 160.9542,747.78849 121.6403,664.98553 88.6514,597.77846 75.7074,521.31623 82.4305,446.90951 91.7632,352.55901 134.0586,261.59555 201.591,194.89042 269.1239,126.68009 361.1672,83.30315 456.8471,75.09987 c 11.8488,-1.1285 23.7329,-1.67467 35.6142,-1.71261 -0.593,-0.005 -1.186,-0.0188 -1.779,-0.0235 z M 828.0291,252.63939 C 722.0384,368.46401 623.6486,494.32302 558.9757,638.34507 c -31.208,69.66536 -52.9845,143.84433 -60.6356,219.93184 -1.0538,13.79771 -2.1815,27.6208 -3.0597,41.44341 1.8638,-0.13319 3.7303,-0.26685 5.5955,-0.39769 0.8739,-13.69003 1.9879,-27.38026 3.0318,-41.04563 7.6517,-76.08751 29.4276,-150.26648 60.6352,-219.93184 64.0201,-142.56763 161.0856,-267.33019 265.8511,-382.18657 -0.7845,-1.17523 -1.5686,-2.35182 -2.3649,-3.5191 z M 498.3669,321.2373 c -72.3461,-0.0376 -144.6941,0.0993 -217.0402,0.0645 72.7174,0.0424 145.4372,-0.0908 218.1551,-0.0621 -0.3718,-1.9e-4 -0.7431,-0.002 -1.1149,-0.002 z" id="path951" inkscape:connector-curvature="0" />
  <path id="path957" style="color:black;font-style:normal;font-variant:normal;font-weight:normal;font-stretch:normal;font-size:medium;line-height:normal;font-family:sans-serif;font-variant-ligatures:normal;font-variant-position:normal;font-variant-caps:normal;font-variant-numeric:normal;font-variant-alternates:normal;font-feature-settings:normal;text-indent:0;text-align:start;text-decoration:none;text-decoration-line:none;text-decoration-style:solid;text-decoration-color:black;letter-spacing:normal;word-spacing:normal;text-transform:none;writing-mode:lr-tb;direction:ltr;text-orientation:mixed;dominant-baseline:auto;baseline-shift:baseline;text-anchor:start;white-space:normal;shape-padding:0;clip-rule:nonzero;display:inline;overflow:visible;visibility:visible;opacity:1;isolation:auto;mix-blend-mode:normal;color-interpolation:sRGB;color-interpolation-filters:linearRGB;solid-color:black;solid-opacity:1;vector-effect:none;fill:white;fill-opacity:1;fill-rule:nonzero;stroke:none;stroke-width:2.50865;stroke-linecap:butt;stroke-linejoin:miter;stroke-miterlimit:4;stroke-dasharray:none;stroke-dashoffset:0;stroke-opacity:1;color-rendering:auto;image-rendering:auto;shape-rendering:auto;text-rendering:auto;enable-background:accumulate" d="M 489.7617,0 C 219.3873,0 0,218.61499 0,488.10824 c 0,269.49325 219.3873,488.11074 489.7617,488.11074 270.374,0 489.7613,-218.61749 489.7613,-488.11074 0,-123.56573 -46.1268,-236.43944 -122.1355,-322.44072 v -0.005 c 0,-0.005 -4e-4,-0.009 0,-0.0235 v -0.003 c -0.047,-0.0532 0,-0.003 0,-0.005 v -0.005 c -2.2256,-2.51749 -4.4776,-5.01197 -6.7536,-7.48302 -0.1601,-0.17696 -0.3248,-0.34968 -0.4824,-0.52146 -2.2177,-2.40092 -4.4603,-4.78499 -6.7269,-7.14204 -0.1741,-0.18496 -0.3577,-0.36616 -0.5309,-0.54858 -2.2778,-2.36152 -4.5764,-4.7062 -6.9023,-7.02339 -0.1177,-0.11813 -0.2307,-0.22496 -0.3295,-0.3238 -2.1805,-2.16828 -4.384,-4.31208 -6.6035,-6.43768 -0.3012,-0.28803 -0.6053,-0.58288 -0.9187,-0.88225 -2.1682,-2.06517 -4.3581,-4.10953 -6.5617,-6.13375 -0.4565,-0.41839 -0.9106,-0.83806 -1.3714,-1.25787 -2.1673,-1.97527 -4.3515,-3.93021 -6.5536,-5.86684 -0.4867,-0.42828 -0.9729,-0.85181 -1.4581,-1.2752 -2.2793,-1.98798 -4.5741,-3.96311 -6.8925,-5.91127 v 0 c -0.2494,-0.20708 -0.4866,-0.40286 -0.7168,-0.59559 -2.4675,-2.06587 -4.9558,-4.11 -7.4657,-6.1288 v -0.003 c 0,-0.0141 -0.052,-0.0424 -0.1036,-0.0866 -0.047,-0.0235 -0.047,-0.0329 -0.047,-0.0235 v -0.002 c -2.6911,-2.16292 -5.4067,-4.29246 -8.143,-6.39815 v -0.003 c 0,-0.009 0,-0.0141 -0.047,-0.0235 v -0.005 c 0,-0.0188 -0.056,-0.0424 0,-0.005 v -0.002 C 706.0208,37.88329 602.3113,0.00261 489.7717,0.00261 Z m 0,2.50591 v 0.005 c 111.9767,0 215.1412,37.68113 297.4461,101.00877 0.047,0.0235 0.061,0.0485 0,0.009 v 0.003 c 0,0.009 0,0.0141 0.047,0.0188 v 0.002 c 2.7246,2.09684 5.4293,4.21961 8.1058,6.37094 0.047,0.0235 0.047,0.033 0.047,0.0235 v 0.002 c 0,0.0141 0.052,0.0475 0.1083,0.0889 v -0.002 c 2.4957,2.00756 4.9699,4.04283 7.4262,6.09915 0.2494,0.20567 0.4857,0.40334 0.7139,0.59554 2.3043,1.9364 4.5887,3.89689 6.8582,5.87673 0.4857,0.42404 0.9718,0.84705 1.4528,1.27025 2.1913,1.9268 4.3638,3.87204 6.5193,5.83715 0.4518,0.41463 0.9102,0.83345 1.3668,1.25298 2.1941,2.01527 4.3712,4.04589 6.5268,6.0991 0.3012,0.28568 0.6024,0.58345 0.914,0.88226 2.2101,2.11646 4.4009,4.24751 6.5687,6.40309 0.1176,0.11813 0.2306,0.22496 0.3294,0.3238 2.3127,2.30363 4.6,4.63263 6.8676,6.98385 0.1741,0.18355 0.3529,0.3671 0.5261,0.54863 2.2544,2.34406 4.4848,4.71278 6.6925,7.10245 0.16,0.17555 0.3248,0.35016 0.482,0.52147 2.2666,2.4605 4.5077,4.94392 6.7244,7.45092 v 0.005 0.002 c 0.094,0.10636 0.099,0.1106 0,0.009 0,0.002 0,-8.5e-4 0,0.005 v 0.005 c 75.6256,85.56359 121.5105,197.84232 121.5105,320.78746 0,268.13189 -218.2286,485.59988 -487.2504,485.59988 C 220.7224,973.69653 2.4938,756.22854 2.4938,488.09665 2.4938,219.96468 220.7224,2.49927 489.7447,2.49927 Z m 6.5052,69.60371 c -13.1854,-0.0842 -26.3784,0.4897 -39.5285,1.74226 -95.9778,8.23189 -188.2771,51.72875 -256.0199,120.1464 0,0.002 0,0.003 0,0.005 0,0.002 0,0.003 0,0.005 C 132.9719,260.92911 90.5622,352.1493 81.2021,446.786 v 0.005 0.005 c -6.7428,74.62161 6.2336,151.30376 39.3252,218.72837 40.2932,84.86402 110.8646,154.6261 195.644,194.93983 l 1.644,0.78343 0.1412,-1.81389 c 7.6064,-94.52436 43.6955,-184.56329 92.0188,-265.50242 v -0.002 0 c 41.7132,-70.67554 92.4184,-135.59578 145.4796,-198.11054 v -0.005 -0.005 c 20.2022,-24.38822 41.2378,-48.16079 60.294,-73.57754 l 1.4976,-1.99429 -2.4958,-0.009 c -146.9038,-0.62369 -293.8222,0.20661 -440.7094,-0.42499 31.4179,-41.27167 62.5342,-82.74681 93.9042,-124.00408 172.3624,-0.0235 344.7014,0 517.0644,0 h 3.0027 l -2.1109,-2.13769 C 710.2739,117.08814 603.6243,72.79967 496.2622,72.11301 Z m -0.047,2.51086 v 0 c 105.6561,0.67569 210.6424,43.92961 285.6457,118.66115 -171.5313,-2.8e-4 -343.0387,-0.0235 -514.5705,0 h -0.6231 l -0.3765,0.49672 c -32.0143,42.09972 -63.7476,84.41974 -95.8046,126.50995 l -1.5244,2.00422 2.5179,0.009 c 146.8906,0.64854 293.7953,-0.18167 440.6694,0.42499 -18.5709,24.55101 -38.9647,47.69801 -58.6609,71.47449 C 500.3912,456.76461 449.5985,521.78886 407.7761,592.64757 359.6302,673.29133 323.5619,763.03583 315.5977,857.38878 232.0659,817.20969 162.5305,748.22135 122.753,664.44332 v -0.005 -0.005 C 89.8742,597.44984 76.9636,521.21582 83.6651,447.03266 v -0.009 c 9.305,-94.05616 51.4831,-184.75441 118.7944,-251.24061 v -0.005 -0.005 c 67.3192,-67.99436 159.097,-111.2453 254.471,-119.42232 v -0.004 c 13.064,-1.24432 26.1746,-1.81116 39.2758,-1.72743 z m 337.513,176.00481 -1.0674,1.16644 C 726.6296,367.66501 628.1475,493.62446 563.3918,637.83099 v 0.002 c -31.2542,69.76989 -53.0726,144.0749 -60.7393,220.31744 v 0.0141 0.0141 c -1.0533,13.79324 -2.1833,27.6232 -3.062,41.46073 l -0.089,1.43333 1.4312,-0.10401 c 23.8111,-1.70433 47.8188,-3.05595 71.3922,-8.09588 v -0.002 c 66.4033,-12.78438 129.4496,-42.3685 181.7879,-85.16782 v -0.005 c 85.8907,-69.05852 141.812,-173.63742 151.6775,-283.41178 v -0.0188 -0.009 c 1.3776,-20.81725 2.8653,-41.90822 0.6796,-62.82496 -0.353,-8.39426 -1.1079,-16.70099 -1.987,-25.0168 v -0.009 -0.009 c -8.1025,-65.95654 -32.4322,-129.6086 -69.8734,-184.46154 z m -0.3154,4.08007 v 0 c 36.7028,54.22125 60.5962,116.98229 68.5834,181.99529 0.8758,8.2839 1.6251,16.53039 1.9743,24.83636 v 0.0377 0.0376 c 2.1678,20.65083 0.7008,41.62372 -0.6791,62.47405 -9.8091,109.06733 -65.4179,213.04644 -150.756,281.65719 v 0.005 0.002 c -52.0173,42.53901 -114.7003,71.95492 -180.6956,84.65874 v 0.002 0.002 c -22.8575,4.88938 -46.2605,6.27795 -69.6235,7.93775 0.8623,-13.31724 1.9315,-26.64182 2.9481,-39.95323 v -0.005 c 5e-4,-0.009 0,-0.0188 0,-0.0235 7.6385,-75.92207 29.3721,-149.96235 60.5293,-219.51419 64.3665,-143.33873 162.2179,-268.71011 267.7441,-384.1537 z" />
  <path style="clip-rule:nonzero;fill:#07111e;fill-opacity:1;fill-rule:nonzero;stroke:none;stroke-width:0.718148" d="m 1048.993,283.95508 c -193.9102,0 -351.1049,157.19791 -351.1049,351.1111 0,193.90744 157.1947,351.10539 351.1049,351.10539 193.9136,0 351.1116,-157.19795 351.1116,-351.10539 0,-193.91319 -157.198,-351.1111 -351.1116,-351.1111" id="path29836" />
  <path d="m 938.7417,729.90299 v -94.72316 c 0,-53.21385 -43.1388,-96.3501 -96.353,-96.3501 -53.2104,3.3e-4 -96.3501,43.13625 -96.3501,96.3501 -4e-4,53.21386 43.1369,96.3502 96.3501,96.35279 15.7029,-0.0235 31.9818,-6.6898 43.4447,-17.78402 v 16.15561 z m -96.353,-52.34849 c -23.402,-2.8e-4 -42.3739,-18.97253 -42.3739,-42.37467 5e-4,-23.40213 18.9719,-42.37202 42.3739,-42.37461 23.4026,2.8e-4 42.3721,18.97135 42.3749,42.37461 5e-4,23.40303 -18.9709,42.37467 -42.3749,42.37467 z" id="path10064" style="fill:#f0f0f0;stroke:none;stroke-width:5.53368" />
  <path d="m 952.2241,491.41231 v 143.77021 c 9e-4,53.21376 43.1397,96.3501 96.3534,96.3501 53.2108,-3.7e-4 96.3501,-43.13634 96.3501,-96.3501 4e-4,-53.21381 -43.1364,-96.3503 -96.3501,-96.35279 -14.6938,0.0235 -29.9007,4.70107 -42.3745,13.14682 v -60.5656 z m 96.3534,101.3955 c 23.4025,2.8e-4 42.3744,18.97257 42.3744,42.37471 0,23.40218 -18.9719,42.37198 -42.3744,42.37462 -23.4021,-3.3e-4 -42.3716,-18.97136 -42.3745,-42.37462 0,-23.40298 18.971,-42.37471 42.3745,-42.37471 z" id="path10066" style="fill:#f0f0f0;stroke:none;stroke-width:5.53368" />
  <path d="m 1255.1559,538.83081 a 96.350194,96.350194 0 0 0 -96.3501,96.35015 96.350194,96.350194 0 0 0 96.3501,96.35284 96.350194,96.350194 0 0 0 95.3787,-83.50986 h -54.9918 c -5.4401,17.12372 -21.4607,29.53437 -40.3869,29.53437 -23.4021,-3.3e-4 -42.3726,-18.97149 -42.3749,-42.37466 -5e-4,-23.40303 18.9705,-42.37467 42.3749,-42.37467 18.9248,3.3e-4 34.9482,12.40947 40.3869,29.53428 h 54.9946 a 96.350194,96.350194 0 0 0 -95.3815,-83.50972 z" id="path10068" style="fill:#f0f0f0;stroke:none;stroke-width:5.53368" />
</svg>
