<?xml version="1.0" encoding="UTF-8"?>
<svg width="548.95" height="182.17" version="1.1" viewBox="0 0 189.65 62.985" xml:space="preserve" xmlns="http://www.w3.org/2000/svg">
<title>KEVN-LD</title>
<desc>Television station in Rapid City, South Dakota</desc>
<filter id="a" x="-.077875" y="-.086091" width="1.1558" height="1.1722" color-interpolation-filters="sRGB"><feGaussianBlur stdDeviation="4.0556336"/></filter><filter id="b" x="-.077888" y="-.086091" width="1.1558" height="1.1722" color-interpolation-filters="sRGB"><feGaussianBlur stdDeviation="1.073053"/></filter><filter id="c" x="-.093098" y="-.086091" width="1.1862" height="1.1722" color-interpolation-filters="sRGB"><feGaussianBlur stdDeviation="1.073053"/></filter><filter id="d" x="-.085764" y="-.080497" width="1.1715" height="1.161" color-interpolation-filters="sRGB"><feGaussianBlur stdDeviation="1.073053"/></filter><path transform="matrix(1.14 0 0 1.14 22.019 -80.234)" d="m25.216 72.954a15.014 15.996 0 0 0-15.014 15.996 15.014 15.996 0 0 0 15.014 15.996 15.014 15.996 0 0 0 15.014-15.996 15.014 15.996 0 0 0-15.014-15.996zm0.08733 8.8971a6.1711 7.0994 0 0 1 6.1712 7.0993 6.1711 7.0994 0 0 1-6.1712 7.0998 6.1711 7.0994 0 0 1-6.1707-7.0998 6.1711 7.0994 0 0 1 6.1707-7.0993z" filter="url(#d)"/><path transform="matrix(1.14 0 0 1.14 22.019 -80.234)" d="m39.802 74.378 27.662-1e-6v7.5019l-9.0101 0.04677-0.20285 22.365h-10.553l0.19844-22.436h-8.0954z" filter="url(#c)"/><path transform="matrix(1.14 0 0 1.14 22.019 -80.234)" d="m94.342 104.29h-10.734l-0.93219-4.8664h-9.669l-1.1612 4.8664h-10.568l11.238-29.914h10.976zm-17.488-17.763-1.9469 6.339h6.0207l-1.9846-6.3057c-0.78426-2.4088-1.0075-3.3912-1.0075-3.3912-0.70024 2.3248-0.78828 2.5259-1.0817 3.3579z" filter="url(#b)"/><path transform="matrix(.30163 0 0 .30163 12.946 20.633)" d="m-33.188-53.291v112.35h39.045v-36.021l33.135 36.729h52.809l-52.004-59.586 46.402-53.475h-50.045l-30.297 38.451v-38.451z" filter="url(#a)"/><g fill="#fff"><path d="m49.625 2.0239a17.116 18.236 0 0 0-17.116 18.236 17.116 18.236 0 0 0 17.116 18.236 17.116 18.236 0 0 0 17.116-18.236 17.116 18.236 0 0 0-17.116-18.236zm0.09955 10.143a7.0352 8.0935 0 0 1 7.0353 8.0934 7.0352 8.0935 0 0 1-7.0353 8.094 7.0352 8.0935 0 0 1-7.0347-8.094 7.0352 8.0935 0 0 1 7.0347-8.0934z"/><path d="m66.255 3.647 31.536-1e-6v8.5524l-10.272 0.05332-0.23126 25.497h-12.03l0.22622-25.577h-9.229z"/><path d="m128.43 37.75h-12.237l-1.0627-5.5479h-11.023l-1.3238 5.5479h-12.048l12.811-34.103h12.513zm-19.937-20.251-2.2195 7.2266h6.8638l-2.2625-7.1887c-0.89408-2.7461-1.1486-3.8661-1.1486-3.8661-0.79828 2.6503-0.89865 2.8796-1.2332 3.8281z"/><path d="m1.7957 3.6472v33.889h11.777v-10.865l9.9945 11.078h15.929l-15.686-17.973 13.996-16.13h-15.095l-9.1385 11.598v-11.598z"/></g><path d="m1.606 40.195h158.42v22.158h-158.42z" fill="#e22d36" stroke="#000"/><g fill="#422e2e"><path d="m5.2521 45.501h12.739v3.6573h-4.3148v10.972h-4.1094v-10.972h-4.3148z"/><path d="m31.344 45.501v3.6573h-7.438v1.9314h6.7805v3.4108h-6.7805v1.9725h7.438v3.6573h-11.547v-14.629z"/><path d="m45.828 56.699 0.08219 1.952q0.04109 0.90407 0.36984 1.4794h-4.2326q-0.24656-0.47258-0.28766-1.4794l-0.06164-1.6643q-0.04109-1.1095-0.51367-1.4999-0.45203-0.41094-1.4794-0.41094h-2.1369v5.0545h-4.1094v-14.629h7.1914q2.7944 0 4.1299 1.2123 1.315 1.2328 1.315 3.1231 0 1.1301-0.59586 2.0342-0.57531 0.90406-1.6848 1.3972 1.1095 0.41093 1.5205 1.1917 0.43148 0.78078 0.49312 2.2396zm-8.2598-7.9927v3.3697h2.4656q1.8287 0 1.8287-1.6848 0-1.6848-1.8287-1.6848z"/><path d="m60.557 56.699 0.08218 1.952q0.04111 0.90407 0.36984 1.4794h-4.2326q-0.24656-0.47258-0.28765-1.4794l-0.06164-1.6643q-0.04109-1.1095-0.51367-1.4999-0.45203-0.41094-1.4794-0.41094h-2.1369v5.0545h-4.1094v-14.629h7.1914q2.7944 0 4.1299 1.2123 1.315 1.2328 1.315 3.1231 0 1.1301-0.59586 2.0342-0.57531 0.90406-1.6848 1.3972 1.1095 0.41093 1.5205 1.1917 0.43148 0.78078 0.49312 2.2396zm-8.2598-7.9927v3.3697h2.4656q1.8287 0 1.8287-1.6848 0-1.6848-1.8287-1.6848z"/><path d="m67.028 60.131h-4.1094v-14.629h4.1094z"/><path d="m68.833 45.501h12.739v3.6573h-4.3148v10.972h-4.1094v-10.972h-4.3148z"/><path d="m95.398 58.364q-2.1163 2.0958-5.5682 2.0958-3.4519 0-5.5682-2.0958-2.1163-2.0547-2.1163-5.5476 0-3.4724 2.1163-5.5682 2.1369-2.0752 5.5682-2.0752 3.4313 0 5.5682 2.0752 2.1163 2.0958 2.1163 5.5682 0 3.493-2.1163 5.5476zm-8.0544-2.5478q0.92461 1.089 2.4862 1.089 1.5616 0 2.4862-1.089 0.92461-1.0684 0.92461-2.9998 0-1.8903-0.92461-2.9793-0.92461-1.1095-2.4862-1.1095-1.5616 0-2.4862 1.1095-0.92461 1.089-0.92461 2.9793 0 1.9314 0.92461 2.9998z"/><path d="m111.9 56.699 0.0822 1.952q0.0411 0.90407 0.36985 1.4794h-4.2326q-0.24657-0.47258-0.28766-1.4794l-0.0616-1.6643q-0.0411-1.1095-0.51367-1.4999-0.45203-0.41094-1.4794-0.41094h-2.1369v5.0545h-4.1094v-14.629h7.1914q2.7944 0 4.1299 1.2123 1.315 1.2328 1.315 3.1231 0 1.1301-0.59586 2.0342-0.57531 0.90406-1.6848 1.3972 1.1095 0.41093 1.5205 1.1917 0.43148 0.78078 0.49311 2.2396zm-8.2598-7.9927v3.3697h2.4656q1.8287 0 1.8287-1.6848 0-1.6848-1.8287-1.6848z"/><path d="m121.71 47.124 0.90407-1.6232h4.4998l-5.3627 8.9995v5.6298h-4.1094v-5.6298l-5.4449-8.9995h4.623l0.94517 1.6437q1.541 2.6916 2.0136 3.5752 0.94516-1.8492 1.9314-3.5957z"/></g><g fill="#fff"><path d="m4.7722 44.835h12.739v3.6574h-4.3148v10.972h-4.1094v-10.972h-4.3148z"/><path d="m30.864 44.835v3.6574h-7.438v1.9314h6.7805v3.4108h-6.7805v1.9725h7.438v3.6573h-11.547v-14.629z"/><path d="m45.348 56.033 0.08219 1.952q0.04109 0.90406 0.36984 1.4794h-4.2326q-0.24656-0.47258-0.28766-1.4794l-0.06164-1.6643q-0.04109-1.1095-0.51367-1.4999-0.45203-0.41092-1.4794-0.41092h-2.1369v5.0545h-4.1094v-14.629h7.1914q2.7944 0 4.1299 1.2123 1.315 1.2328 1.315 3.1231 0 1.1301-0.59586 2.0341-0.57531 0.90405-1.6848 1.3972 1.1095 0.41094 1.5205 1.1917 0.43148 0.78079 0.49312 2.2396zm-8.2598-7.9927v3.3697h2.4656q1.8287 0 1.8287-1.6848 0-1.6848-1.8287-1.6848z"/><path d="m60.078 56.033 0.08219 1.952q0.04111 0.90406 0.36984 1.4794h-4.2326q-0.24656-0.47258-0.28766-1.4794l-0.06164-1.6643q-0.04109-1.1095-0.51367-1.4999-0.45203-0.41092-1.4794-0.41092h-2.1369v5.0545h-4.1094v-14.629h7.1914q2.7944 0 4.1299 1.2123 1.315 1.2328 1.315 3.1231 0 1.1301-0.59586 2.0341-0.57531 0.90405-1.6848 1.3972 1.1095 0.41094 1.5205 1.1917 0.43148 0.78079 0.49312 2.2396zm-8.2598-7.9927v3.3697h2.4656q1.8287 0 1.8287-1.6848 0-1.6848-1.8287-1.6848z"/><path d="m66.548 59.464h-4.1094v-14.629h4.1094z"/><path d="m68.354 44.835h12.739v3.6574h-4.3148v10.972h-4.1094v-10.972h-4.3148z"/><path d="m94.918 57.697q-2.1163 2.0958-5.5682 2.0958-3.4519 0-5.5682-2.0958-2.1163-2.0547-2.1163-5.5476 0-3.4724 2.1163-5.5682 2.1369-2.0752 5.5682-2.0752t5.5682 2.0752q2.1163 2.0958 2.1163 5.5682 0 3.493-2.1163 5.5476zm-8.0544-2.5478q0.92461 1.089 2.4862 1.089t2.4862-1.089q0.92461-1.0684 0.92461-2.9998 0-1.8903-0.92461-2.9793-0.92461-1.1095-2.4862-1.1095t-2.4862 1.1095q-0.92461 1.089-0.92461 2.9793 0 1.9314 0.92461 2.9998z"/><path d="m111.42 56.033 0.0822 1.952q0.0411 0.90406 0.36984 1.4794h-4.2326q-0.24656-0.47258-0.28766-1.4794l-0.0616-1.6643q-0.0411-1.1095-0.51366-1.4999-0.45203-0.41092-1.4794-0.41092h-2.1369v5.0545h-4.1094v-14.629h7.1914q2.7944 0 4.1299 1.2123 1.315 1.2328 1.315 3.1231 0 1.1301-0.59585 2.0341-0.57532 0.90405-1.6848 1.3972 1.1095 0.41094 1.5205 1.1917 0.43148 0.78079 0.49312 2.2396zm-8.2598-7.9927v3.3697h2.4656q1.8287 0 1.8287-1.6848 0-1.6848-1.8287-1.6848z"/><path d="m121.23 46.458 0.90407-1.6232h4.4997l-5.3627 8.9995v5.6298h-4.1094v-5.6298l-5.4449-8.9995h4.623l0.94517 1.6438q1.541 2.6916 2.0136 3.5751 0.94515-1.8492 1.9314-3.5957z"/></g><path d="m189.65 34.15a28.834 28.834 0 0 1-28.834 28.834 28.834 28.834 0 0 1-28.834-28.834 28.834 28.834 0 0 1 28.834-28.834 28.834 28.834 0 0 1 28.834 28.834z" clip-rule="evenodd" fill="#1a1a1a" fill-rule="evenodd" stroke="#000"/><g transform="matrix(.042224 0 0 .042224 140.28 25.194)" fill="#fff"><path d="m0 0v422.39h127.84v-136.32h116.23v-115.57h-116.23v-55.283h142.53l-7.7392-115.21z" stroke-width="1.0001"/><path d="m475.48 0c-117 0-211.2 94.194-211.2 211.2 1e-5 117 94.194 211.19 211.2 211.19s211.19-94.192 211.19-211.19c0-117-94.192-211.2-211.19-211.2zm0 86.988c19.755 0 35.657 15.902 35.657 35.657v177.1c0 19.755-15.902 35.659-35.657 35.659-19.755 0-35.659-15.904-35.659-35.659v-177.1c0-19.755 15.904-35.657 35.659-35.657z" stroke-width="1.0001"/><path d="m623.32 0 119.84 211.19-119.84 211.19h137.01l51.332-90.469 51.334 90.469h137.01l-119.84-211.19 119.84-211.19h-137.01l-51.334 90.467-51.33-90.467z" stroke-width="1.0001"/></g>
</svg>
