<?xml version="1.0" encoding="UTF-8"?>
<svg xmlns="http://www.w3.org/2000/svg" width="165" height="60" viewBox="0 0 165 60">
  <defs>
    <style>
      .uuid-63117910-0507-42d7-a840-3ef49cc3a285 {
        fill: none;
      }

      .uuid-b6aa5d14-cb42-42e6-b6a3-c6bc87ac7852 {
        fill: #000;
      }

      .uuid-8c3e3a2c-38e0-4fc7-844b-a7f96377a4c6 {
        isolation: isolate;
      }
    </style>
  </defs>
  <g id="uuid-fe8cda87-d41d-4a79-9256-b3915d6726a5" data-name="BKG - HORZ" class="uuid-8c3e3a2c-38e0-4fc7-844b-a7f96377a4c6">
    <g id="uuid-463508a1-3872-494f-9074-5fc42d2c4b66" data-name="BKG_HORZ Image">
      <rect class="uuid-63117910-0507-42d7-a840-3ef49cc3a285" x="0" y="0" width="165" height="60"/>
    </g>
    <g>
      <path class="uuid-b6aa5d14-cb42-42e6-b6a3-c6bc87ac7852" d="M42.713,32.421h-1.567l-6.107,13.497h1.824l1.556-3.469h6.964l1.537,3.469h1.9l-6.07-13.416-.037-.082Zm-3.588,8.419l2.785-6.215,2.768,6.215h-5.553Z"/>
      <path class="uuid-b6aa5d14-cb42-42e6-b6a3-c6bc87ac7852" d="M71.454,40.285c0,1.393-.346,2.452-1.029,3.146-.682,.694-1.62,1.046-2.788,1.046-1.217,0-2.176-.37-2.852-1.099-.678-.732-1.022-1.804-1.022-3.187v-7.677h-1.759v7.77c0,.937,.136,1.78,.402,2.504,.268,.728,.654,1.348,1.148,1.841,.493,.494,1.091,.87,1.776,1.12,.681,.248,1.444,.374,2.269,.374,.838,0,1.608-.129,2.29-.384,.684-.255,1.281-.639,1.775-1.139,.494-.5,.88-1.129,1.147-1.869,.267-.737,.402-1.598,.402-2.56v-7.658h-1.759v7.77Z"/>
      <path class="uuid-b6aa5d14-cb42-42e6-b6a3-c6bc87ac7852" d="M96.612,39.738c-.708-.593-1.816-1.054-3.296-1.37-.716-.148-1.308-.307-1.762-.473-.446-.163-.799-.344-1.049-.541-.242-.19-.411-.398-.502-.619-.092-.226-.14-.488-.14-.782v-.038c0-.561,.229-1.02,.699-1.402,.472-.384,1.131-.578,1.956-.578,.656,0,1.293,.111,1.894,.329,.601,.219,1.209,.577,1.807,1.064l.112,.091,1.031-1.367-.106-.084c-.683-.544-1.399-.958-2.129-1.231-.732-.273-1.596-.412-2.57-.412-.637,0-1.233,.094-1.77,.28-.538,.186-1.014,.446-1.412,.774-.401,.33-.716,.728-.937,1.181-.221,.454-.333,.954-.333,1.486v.037c0,.555,.092,1.047,.275,1.462,.183,.418,.467,.788,.847,1.102,.374,.308,.852,.575,1.421,.792,.562,.214,1.23,.406,1.984,.568,.68,.148,1.245,.304,1.683,.464,.428,.156,.766,.332,1.004,.522,.231,.184,.394,.389,.485,.61,.093,.226,.14,.483,.14,.763v.037c0,.611-.243,1.1-.744,1.494-.503,.397-1.191,.598-2.042,.598-.89,0-1.685-.15-2.363-.448-.683-.299-1.371-.761-2.043-1.372l-.107-.097-1.098,1.3,.1,.09c.797,.721,1.647,1.263,2.527,1.611,.881,.348,1.866,.525,2.929,.525,.661,0,1.281-.09,1.842-.269,.565-.18,1.055-.441,1.457-.776,.404-.337,.725-.747,.955-1.218,.231-.474,.347-1.008,.347-1.589v-.038c0-1.038-.367-1.872-1.09-2.478Z"/>
      <polygon class="uuid-b6aa5d14-cb42-42e6-b6a3-c6bc87ac7852" points="110.849 34.161 115.256 34.161 115.256 45.918 117.015 45.918 117.015 34.161 121.422 34.161 121.422 32.515 110.849 32.515 110.849 34.161"/>
      <rect class="uuid-b6aa5d14-cb42-42e6-b6a3-c6bc87ac7852" x="135.695" y="32.515" width="1.758" height="13.403"/>
      <polygon class="uuid-b6aa5d14-cb42-42e6-b6a3-c6bc87ac7852" points="162.677 42.771 154.614 32.515 153.02 32.515 153.02 45.918 154.742 45.918 154.742 35.417 162.969 45.865 163.011 45.918 164.399 45.918 164.399 32.515 162.677 32.515 162.677 42.771"/>
      <path class="uuid-b6aa5d14-cb42-42e6-b6a3-c6bc87ac7852" d="M164.618,18.529c-.255-.944-.652-1.764-1.191-2.461-.539-.697-1.232-1.248-2.079-1.652-.846-.405-1.862-.607-3.045-.607-1.199,0-2.233,.21-3.101,.629-.869,.419-1.588,.986-2.157,1.697-.569,.711-.989,1.539-1.258,2.483-.27,.944-.405,1.941-.405,2.989,0,1.064,.124,2.075,.371,3.034,.248,.959,.641,1.802,1.18,2.528,.539,.727,1.235,1.303,2.089,1.73,.854,.427,1.888,.641,3.101,.641,1.229,0,2.277-.21,3.146-.629,.869-.419,1.58-.992,2.135-1.719,.554-.726,.959-1.573,1.214-2.539,.255-.966,.382-1.989,.382-3.067,0-1.094-.128-2.112-.382-3.056Zm-2.978,5.146c-.128,.66-.329,1.244-.607,1.753-.277,.51-.648,.914-1.112,1.214-.465,.3-1.034,.449-1.708,.449s-1.244-.149-1.708-.449c-.464-.299-.839-.704-1.123-1.214-.284-.509-.491-1.093-.618-1.753-.128-.659-.191-1.348-.191-2.068s.064-1.4,.191-2.045c.127-.644,.337-1.21,.629-1.697,.292-.487,.674-.872,1.146-1.157,.472-.284,1.052-.427,1.742-.427,.659,0,1.214,.143,1.663,.427,.449,.285,.816,.671,1.101,1.157,.284,.487,.487,1.053,.607,1.697,.12,.644,.18,1.326,.18,2.045s-.064,1.408-.191,2.068Z"/>
      <path class="uuid-b6aa5d14-cb42-42e6-b6a3-c6bc87ac7852" d="M72.412,28.798c.007-.209,.011-.389,.011-.539,0-.195-.026-.39-.078-.584-.053-.195-.147-.367-.281-.517-.135-.15-.322-.27-.562-.36-.24-.09-.54-.135-.899-.135h-4.382V15.765c0-.375-.064-.675-.191-.899-.128-.225-.292-.401-.495-.528-.202-.127-.419-.213-.652-.258-.232-.045-.46-.068-.686-.068-.105,0-.258,.011-.46,.034-.202,.022-.409,.049-.618,.079v15.034h9.259c.015-.03,.026-.149,.034-.36Z"/>
      <path class="uuid-b6aa5d14-cb42-42e6-b6a3-c6bc87ac7852" d="M132.879,14.337c-.187-.127-.393-.213-.618-.258-.225-.045-.449-.068-.674-.068-.105,0-.247,.011-.427,.034s-.375,.049-.584,.079v10.36l-5.798-9.461c-.21-.344-.449-.599-.719-.764-.27-.164-.645-.247-1.124-.247-.255,0-.509,.016-.764,.045-.255,.03-.457,.06-.607,.09v15.012h2.944v-9.888l6.405,9.888h2.607V15.765c0-.375-.06-.675-.179-.899-.12-.225-.274-.401-.461-.528Z"/>
      <path class="uuid-b6aa5d14-cb42-42e6-b6a3-c6bc87ac7852" d="M35.367,16.596v.022h4.697v12.539h3.101v-12.539h2.831c.689,0,1.169-.161,1.438-.483,.27-.322,.405-.678,.405-1.068,0-.329-.022-.652-.067-.966h-10.562c-.69,0-1.18,.168-1.472,.506-.292,.337-.438,.707-.438,1.112,0,.166,.003,.307,.011,.427,.007,.12,.026,.27,.056,.45Z"/>
      <path class="uuid-b6aa5d14-cb42-42e6-b6a3-c6bc87ac7852" d="M58.392,26.776h-4.809v-4.158h4.764v-2.404h-4.764v-3.708h4.427c.734,0,1.236-.131,1.506-.393,.27-.262,.405-.655,.405-1.18,0-.165-.004-.303-.012-.416-.007-.112-.026-.251-.056-.415h-9.371v15.056h9.731c.015-.135,.026-.259,.034-.371,.007-.113,.012-.251,.012-.416,0-.405-.132-.771-.394-1.101-.262-.329-.753-.494-1.472-.494Z"/>
      <path class="uuid-b6aa5d14-cb42-42e6-b6a3-c6bc87ac7852" d="M147.121,16.169c-.592-.674-1.382-1.21-2.371-1.607-.989-.397-2.233-.595-3.731-.595-.494,0-1.082,.015-1.764,.045-.682,.03-1.502,.105-2.461,.225v14.922h4.787c1.228,0,2.296-.206,3.203-.618,.906-.412,1.652-.97,2.236-1.675,.584-.704,1.018-1.528,1.303-2.472,.284-.944,.427-1.947,.427-3.011,0-1.003-.124-1.955-.371-2.854-.247-.899-.667-1.685-1.258-2.36Zm-1.719,7.439c-.135,.659-.371,1.225-.708,1.696-.337,.472-.794,.84-1.371,1.101-.577,.263-1.307,.394-2.191,.394h-1.236v-10.36c.464-.045,.914-.068,1.348-.068,.854,0,1.562,.132,2.124,.394,.562,.262,1.007,.622,1.337,1.079,.329,.457,.561,.992,.696,1.607,.135,.614,.202,1.273,.202,1.977,0,.795-.067,1.521-.202,2.18Z"/>
      <path class="uuid-b6aa5d14-cb42-42e6-b6a3-c6bc87ac7852" d="M101.563,14.101c-.563,0-1,.115-1.307,.346-.308,.231-.555,.533-.743,.905l-3.895,7.993-3.895-7.993c-.187-.372-.435-.673-.743-.905-.308-.231-.744-.346-1.307-.346-.359,0-.705,.022-1.039,.067-.239,.028-.563,.116-.825,.196v14.794h2.909s0-.003,0-.003h.004v-9.842s3.384,6.715,3.384,6.715h3.022l3.384-6.715v9.842h.005v.003h2.908V14.363c-.261-.08-.585-.168-.825-.196-.334-.045-.679-.067-1.039-.067Z"/>
      <path class="uuid-b6aa5d14-cb42-42e6-b6a3-c6bc87ac7852" d="M114.933,29.136c.704-.24,1.292-.565,1.764-.977,.472-.412,.832-.899,1.079-1.461s.401-1.157,.461-1.787c.03-.315,.052-.622,.067-.921,.015-.3,.022-.599,.022-.899v-7.326c0-.375-.064-.675-.191-.899-.128-.225-.289-.401-.483-.528-.195-.127-.409-.213-.641-.258-.232-.045-.46-.068-.685-.068-.105,0-.259,.011-.461,.034-.202,.022-.409,.049-.618,.079v9.348c0,1.064-.202,1.892-.606,2.483-.405,.592-1.117,.888-2.135,.888-.584,0-1.056-.086-1.415-.259-.36-.172-.641-.411-.843-.719-.202-.307-.337-.678-.405-1.113-.067-.434-.101-.921-.101-1.461v-7.528c0-.375-.064-.675-.191-.899-.128-.225-.288-.401-.483-.528-.195-.127-.408-.213-.64-.258-.233-.045-.461-.068-.686-.068-.105,0-.259,.011-.461,.034-.202,.022-.408,.049-.618,.079v8.966c0,.315,.007,.615,.022,.899,.015,.284,.037,.561,.067,.831,.09,.749,.255,1.412,.495,1.989,.239,.577,.584,1.064,1.033,1.461,.45,.397,1.011,.701,1.685,.91,.675,.21,1.498,.315,2.472,.315,.959,0,1.79-.12,2.495-.36Z"/>
      <path class="uuid-b6aa5d14-cb42-42e6-b6a3-c6bc87ac7852" d="M83.139,26.776h-4.809v-4.158h4.764v-2.404h-4.764v-3.708h4.427c.734,0,1.236-.131,1.506-.393,.27-.262,.405-.655,.405-1.18,0-.165-.004-.303-.012-.416-.007-.112-.026-.251-.056-.415h-9.371v15.056h9.731c.015-.135,.026-.259,.034-.371,.007-.113,.012-.251,.012-.416,0-.405-.132-.771-.394-1.101-.262-.329-.753-.494-1.472-.494Z"/>
      <path class="uuid-b6aa5d14-cb42-42e6-b6a3-c6bc87ac7852" d="M30.76,13.809h-4.917c-3.883,0-7.452,1.342-10.27,3.587-.465-.371-.953-.714-1.457-1.033-.148-.094-.297-.185-.448-.273-.218-.128-.438-.252-.662-.37-.896-.474-1.839-.872-2.824-1.176-.441-.136-.889-.255-1.345-.354-.228-.05-.457-.095-.688-.135-.462-.08-.931-.142-1.406-.183s-.955-.062-1.441-.062H.385c-.213,0-.385,.172-.385,.385v11.366c0,.213,.172,.385,.385,.385H9.343v19.86h0c0,.032,.004,.063,.011,.092,.05,.206,.266,.34,.482,.278,1.058-.302,2.073-.707,3.033-1.203,.48-.248,.946-.519,1.397-.811,.451-.292,.887-.606,1.306-.94,1.677,1.335,3.62,2.351,5.736,2.955,.247,.07,.493-.114,.493-.371V25.945h8.959c.213,0,.385-.172,.385-.385V14.194c0-.213-.172-.385-.385-.385Z"/>
    </g>
  </g>
</svg>