<?xml version="1.0" encoding="UTF-8" standalone="no"?>
<!-- Created with Inkscape (http://www.inkscape.org/) -->

<svg
   xmlns:dc="http://purl.org/dc/elements/1.1/"
   xmlns:cc="http://creativecommons.org/ns#"
   xmlns:rdf="http://www.w3.org/1999/02/22-rdf-syntax-ns#"
   xmlns:svg="http://www.w3.org/2000/svg"
   xmlns="http://www.w3.org/2000/svg"
   xmlns:sodipodi="http://sodipodi.sourceforge.net/DTD/sodipodi-0.dtd"
   xmlns:inkscape="http://www.inkscape.org/namespaces/inkscape"
   version="1.1"
   id="svg1555"
   width="1000.3625"
   height="355.5957"
   viewBox="0 0 1000.3625 355.5957"
   sodipodi:docname="KFFX_2014.svg"
   inkscape:version="0.92.4 (5da689c313, 2019-01-14)">
  <metadata
     id="metadata1561">
    <rdf:RDF>
      <cc:Work
         rdf:about="">
        <dc:format>image/svg+xml</dc:format>
        <dc:type
           rdf:resource="http://purl.org/dc/dcmitype/StillImage" />
        <dc:title></dc:title>
      </cc:Work>
    </rdf:RDF>
  </metadata>
  <defs
     id="defs1559" />
  <sodipodi:namedview
     pagecolor="#ffffff"
     bordercolor="#666666"
     borderopacity="1"
     objecttolerance="10"
     gridtolerance="10"
     guidetolerance="10"
     inkscape:pageopacity="0"
     inkscape:pageshadow="2"
     inkscape:window-width="1920"
     inkscape:window-height="1017"
     id="namedview1557"
     showgrid="false"
     fit-margin-top="0"
     fit-margin-left="0"
     fit-margin-right="0"
     fit-margin-bottom="0"
     inkscape:zoom="0.70710678"
     inkscape:cx="448.58919"
     inkscape:cy="-241.29036"
     inkscape:window-x="-8"
     inkscape:window-y="-8"
     inkscape:window-maximized="1"
     inkscape:current-layer="svg1555" />
  <path
     inkscape:connector-curvature="0"
     style="opacity:1;fill:#ffffff;fill-opacity:1;stroke:none;stroke-width:2.49206758;stroke-miterlimit:4;stroke-dasharray:none;stroke-opacity:1"
     d="m 290.18864,811.66508 h 33.35852 v 81.75188 h -33.35852 z"
     id="path2117" />
  <path
     style="opacity:1;fill:#ffffff;fill-opacity:1;stroke:none;stroke-width:0.53051537;stroke-miterlimit:4;stroke-dasharray:none;stroke-opacity:1"
     d="m 508.27744,740.71127 h 8.57761 v 14.40837 h -8.57761 z"
     id="path2131"
     inkscape:connector-curvature="0" />
  <g
     id="g2279"
     transform="translate(1.0177584e-7,0.59570321)"
     style="fill:#0081c5;fill-opacity:1">
    <g
       id="g2256"
       style="fill:#0081c5;fill-opacity:1">
      <g
         id="g2239"
         style="fill:#0081c5;fill-opacity:1">
        <path
           sodipodi:nodetypes="cccccccc"
           inkscape:connector-curvature="0"
           id="path2183"
           d="M 770.76871,284.055 803.79688,355 h 36.65864 l 37.27476,-70.945 H 837.97893 L 824.77148,312.82843 808.53956,284.055 Z"
           style="fill:#0081c5;fill-opacity:1;stroke-width:5" />
        <path
           sodipodi:nodetypes="ccccccccc"
           inkscape:connector-curvature="0"
           id="path2179"
           d="M 675.125,284.05469 V 305.883 h 29.006 L 704.13086,355 H 740.309 v -49.117 h 26.056 v -21.828 z"
           style="fill:#0081c5;fill-opacity:1;stroke-width:5" />
      </g>
      <g
         id="g2245"
         style="fill:#0081c5;fill-opacity:1">
        <path
           sodipodi:nodetypes="ccccccccccc"
           inkscape:connector-curvature="0"
           id="path2187"
           d="M 304.54297,284.05469 V 355 h 34.83789 v -26.1543 h 27.42187 v -14.4082 h -27.3789 l -0.043,-13.78125 h 31.95968 v -16.60156 z"
           style="fill:#0081c5;fill-opacity:1;stroke-width:5" />
        <path
           sodipodi:nodetypes="cccccccccccc"
           inkscape:connector-curvature="0"
           id="path2185"
           d="M 193.10352,283.74023 V 355 h 39.62304 V 333.01367 L 255.21774,355 h 46.85811 L 264.73731,317.5201 300.56568,283.74 h -38.79907 l -29.04005,22.82641 V 283.74 Z"
           style="fill:#0081c5;fill-opacity:1;stroke-width:5" />
        <path
           sodipodi:nodetypes="ccccccccccccc"
           inkscape:connector-curvature="0"
           id="path2205"
           d="M 443.59766,284.05469 480.83789,320.12305 443.59766,355 h 45.85742 L 503.15234,341.73438 516.84766,355 h 45.85742 l -37.24024,-34.87695 37.24024,-36.06805 -43.35742,-3.1e-4 -16.19532,15.16992 -16.19726,-15.16992 z"
           style="opacity:1;fill:#0081c5;fill-opacity:1;stroke:none;stroke-width:2.52837539;stroke-miterlimit:4;stroke-dasharray:none;stroke-opacity:1" />
        <path
           style="fill:#0081c5;fill-opacity:1;stroke-width:5"
           d="M 374.90009,284.05469 V 355 h 34.83789 v -26.1543 h 27.42187 v -14.4082 h -27.3789 l -0.043,-13.78125 h 31.95968 v -16.60156 z"
           id="path2212"
           inkscape:connector-curvature="0"
           sodipodi:nodetypes="ccccccccccc" />
      </g>
      <path
         style="opacity:1;fill:#0081c5;fill-opacity:1;stroke:none;stroke-width:0.94488192;stroke-miterlimit:4;stroke-dasharray:none;stroke-opacity:1"
         d="m 599.18463,318.49561 h 40.12831 v 17.50089 h -40.12831 z"
         id="rect2214"
         inkscape:connector-curvature="0" />
    </g>
    <g
       id="g2235"
       style="fill:#0081c5;fill-opacity:1">
      <g
         style="fill:#0081c5;fill-opacity:1"
         id="g1438"
         transform="matrix(1.5816707,0,0,1.5816707,-4.3187026,-2.9774769)">
        <g
           style="fill:#0081c5;fill-opacity:1"
           id="g1400">
          <g
             style="fill:#0081c5;fill-opacity:1"
             id="g1428">
            <path
               id="path1392"
               d="m 187.16992,3.7285156 a 81.404045,75.610695 0 0 0 -81.4043,75.6093754 81.404045,75.610695 0 0 0 81.4043,75.611329 81.404045,75.610695 0 0 0 81.4043,-75.611329 81.404045,75.610695 0 0 0 -81.4043,-75.6093754 z m 1.06055,31.6953124 c 7.91406,0 14.28515,6.371099 14.28515,14.285156 v 59.451176 c 0,7.91406 -6.37109,14.28711 -14.28515,14.28711 -7.91405,0 -14.28516,-6.37305 -14.28516,-14.28711 V 49.708984 c 0,-7.914057 6.37111,-14.285156 14.28516,-14.285156 z"
               style="opacity:1;fill:#0081c5;fill-opacity:1;stroke:none;stroke-width:3.15993738;stroke-miterlimit:4;stroke-dasharray:none;stroke-opacity:1"
               inkscape:connector-curvature="0" />
            <path
               style="opacity:1;fill:#0081c5;fill-opacity:1;stroke:none;stroke-width:1.82085919;stroke-miterlimit:4;stroke-dasharray:none;stroke-opacity:1"
               d="M 2.7304688,2.1015625 V 157.05859 H 50.837891 V 107.06055 H 98.105469 V 64.074219 H 50.837891 V 44.876953 H 108.01001 L 105.03906,2.1015625 Z"
               id="rect1379"
               inkscape:connector-curvature="0"
               sodipodi:nodetypes="ccccccccccc" />
            <path
               style="opacity:1;fill:#0081c5;fill-opacity:1;stroke:none;stroke-width:2.54451871;stroke-miterlimit:4;stroke-dasharray:none;stroke-opacity:1"
               d="m 246.71875,1.5058594 46.04883,74.8769526 -49.61524,80.675778 h 54.94141 l 22.14453,-36.00781 22.14453,36.00781 54.94141,-3.1e-4 L 347.70898,76.382812 393.75781,1.5058594 H 338.81836 L 320.23828,31.714844 301.66016,1.5058594 Z"
               id="path1386"
               inkscape:connector-curvature="0"
               sodipodi:nodetypes="ccccccccccccc" />
          </g>
        </g>
        <g
           style="fill:#0081c5;fill-opacity:1"
           id="g1423" />
      </g>
      <g
         id="g2223"
         style="fill:#0081c5;fill-opacity:1">
        <path
           sodipodi:nodetypes="ccccccc"
           inkscape:connector-curvature="0"
           id="path2189"
           d="M 825,5 704.141,8.5 V 85.633 L 740,84.133 v 161.304 h 85 z"
           style="fill:#0081c5;fill-opacity:1;stroke-width:5" />
        <path
           style="fill:#0081c5;fill-opacity:1;stroke-width:5"
           d="M 1000.3625,5 879.50348,8.5 v 77.133 l 35.859,-1.5 v 161.304 h 85.00002 z"
           id="path2219"
           inkscape:connector-curvature="0"
           sodipodi:nodetypes="ccccccc" />
      </g>
    </g>
  </g>
</svg>
