<?xml version="1.0" encoding="utf-8"?>
<!-- Generator: Adobe Illustrator 24.3.0, SVG Export Plug-In . SVG Version: 6.00 Build 0)  -->
<svg version="1.1" id="Layer_1" xmlns="http://www.w3.org/2000/svg" xmlns:xlink="http://www.w3.org/1999/xlink" x="0px" y="0px"
	 viewBox="0 0 121.965 60" style="enable-background:new 0 0 121.965 60;" xml:space="preserve">
<style type="text/css">
	.st0{fill:none;}
	.st1{fill:#303c64;}
</style>
<rect class="st0" width="121.891" height="60"/>
<g>
	<polygon class="st1" points="110.045,29.838 110.045,24.176 106.319,29.838 	"/>
	<path class="st1" d="M76.815,13l-0.149,0.224l-1.49,2.682h7.525l-7.078,12.442l7.823,13.485h-8.27l-3.651-6.556l-3.576,6.556h-7.6
		l-1.565,2.757h63.106V13H76.815z M96.187,41.834h-7.674V24.176h-1.788v-8.27h9.462V41.834z M119.805,36.618h-2.906v5.215h-6.855
		v-5.215H99.316v-6.78l8.568-13.933h9.09v13.933h2.906v6.78H119.805z"/>
	<rect y="44.963" class="st1" width="121.965" height="1.937"/>
	<path class="st1" d="M51.409,21.494c-1.192,0-2.086,1.043-2.086,2.235v10.356c0,1.192,0.969,2.161,2.086,2.161
		c1.192,0,2.161-0.894,2.161-2.086V23.729C53.569,22.537,52.601,21.494,51.409,21.494z"/>
	<path class="st1" d="M66.906,29.317l0.596-1.043l-7.153-12.368h8.27l2.98,5.588L76.294,13H0v31.516h58.338L66.906,29.317z
		 M14.901,41.908L8.866,29.615v12.293h-6.78V15.906h6.855v12.07l5.662-12.07h7.451l-6.035,13.262l6.184,12.74H14.901z M37.7,33.489
		h-7.227v8.419h-7.302V15.906h15.646l0.447,7.078h-8.717v3.427H37.7C37.7,26.411,37.7,33.489,37.7,33.489z M38.966,28.944
		c0-7.004,5.513-12.666,12.368-12.666s12.368,5.662,12.368,12.666S58.189,41.61,51.334,41.61
		C44.554,41.536,38.966,35.873,38.966,28.944z"/>
</g>
</svg>
