<?xml version="1.0" encoding="UTF-8" standalone="no"?>
<svg
   xmlns:dc="http://purl.org/dc/elements/1.1/"
   xmlns:cc="http://creativecommons.org/ns#"
   xmlns:rdf="http://www.w3.org/1999/02/22-rdf-syntax-ns#"
   xmlns:svg="http://www.w3.org/2000/svg"
   xmlns="http://www.w3.org/2000/svg"
   xmlns:sodipodi="http://sodipodi.sourceforge.net/DTD/sodipodi-0.dtd"
   xmlns:inkscape="http://www.inkscape.org/namespaces/inkscape"
   version="1.1"
   id="svg2710"
   width="1000"
   height="395.11377"
   viewBox="0 0 1000 395.11377"
   sodipodi:docname="KFPH-DT_(2021).svg"
   inkscape:version="1.0.1 (3bc2e813f5, 2020-09-07)">
  <style
     id="style2722"></style>
  <metadata
     id="metadata2716">
    <rdf:RDF>
      <cc:Work
         rdf:about="">
        <dc:format>image/svg+xml</dc:format>
        <dc:type
           rdf:resource="http://purl.org/dc/dcmitype/StillImage" />
        <dc:title></dc:title>
      </cc:Work>
    </rdf:RDF>
  </metadata>
  <defs
     id="defs2714" />
  <sodipodi:namedview
     pagecolor="#ffffff"
     bordercolor="#666666"
     borderopacity="1"
     objecttolerance="10"
     gridtolerance="10"
     guidetolerance="10"
     inkscape:pageopacity="0"
     inkscape:pageshadow="2"
     inkscape:window-width="1366"
     inkscape:window-height="706"
     id="namedview2712"
     showgrid="false"
     inkscape:zoom="0.51759617"
     inkscape:cx="501.49236"
     inkscape:cy="196.7689"
     inkscape:window-x="-8"
     inkscape:window-y="-8"
     inkscape:window-maximized="1"
     inkscape:current-layer="g2718" />
  <g
     inkscape:groupmode="layer"
     inkscape:label="Image"
     id="g2718"
     transform="translate(261.16333,100.74117)">
    <g
       id="g2861"
       transform="matrix(2.1465706,0,0,2.1465706,-273.84312,-111.00607)">
      <g
         id="g899"
         transform="matrix(0.17453639,0,0,0.17460041,6.0801318,-6.6113752)"
         style="fill:#0c06b3;fill-opacity:1">
        <path
           id="path880"
           style="fill:#0c06b3;fill-opacity:1;stroke:none;stroke-width:0.510001"
           d="m 1981.6113,209.626 -265.1875,516.92283 h 151.1094 l 39.1934,-83.78906 h 171.3869 l 10.3086,83.78906 h 156.8103 L 2166.734,209.626 Z m 61.3147,138.93455 20.7988,177.05945 h -102.301 z"
           sodipodi:nodetypes="ccccccccccccc" />
        <path
           style="fill:#0c06b3;fill-opacity:1;stroke:none;stroke-width:1px;stroke-linecap:butt;stroke-linejoin:miter;stroke-opacity:1"
           d="M 221.76717,209.626 163.919,540.284 c -4.48121,25.3868 -1.8318,70.88361 59.19191,71.269 46.37871,0.2929 70.83126,-29.58874 79.38309,-71.269 L 360.52,209.626 H 514.80242 L 457.034,539.487 C 435.85876,663.52021 336.77056,735.871 191.90624,735.871 76.750135,735.871 -23.910778,670.94583 3.5833115,539.487 L 56.536693,239.28558 C 59.967125,217.28164 71.59217,209.626 86.795768,209.626 Z"
           id="path862"
           sodipodi:nodetypes="ccsccccscccc" />
        <path
           style="fill:#0c06b3;fill-opacity:1;stroke:none;stroke-width:1px;stroke-linecap:butt;stroke-linejoin:miter;stroke-opacity:1"
           d="m 843.473,452.095 41.603,-242.469 h 144.5288 L 937.535,726.55007 806.24509,726.15193 672.57885,408.92456 614.30182,726.351 H 470.29844 l 91.63852,-516.725 h 75.16892 c 131.56322,0 186.82422,154.80496 206.36712,242.469 z"
           id="path864"
           sodipodi:nodetypes="ccccccccccc" />
        <path
           id="rect866"
           style="fill:#0c06b3;fill-opacity:1;stroke:none;stroke-width:0.513923"
           transform="matrix(1,0,-0.17372437,0.98479432,0,0)"
           d="m 1111.8813,212.86275 h 159.91 v 524.90558 h -159.91 z" />
        <path
           id="path875"
           style="fill:#0c06b3;fill-opacity:1;stroke:none;stroke-width:0.510001"
           d="M 1636.7207,209.62502 1526.25,391.40039 c -5.3961,-40.54657 -16.9699,-77.5314 -35.877,-107.13672 -21.5534,-33.74915 -74.7267,-74.63672 -138.9707,-74.63672 h -70 l -91.789,516.92383 h 142.9101 l 56.6934,-319.33578 40.6406,237.63266 h 100.7637 L 1658.062,402.915 1601.6133,726.55078 h 143.3099 l 91.4878,-516.9238 z"
           sodipodi:nodetypes="ccscccccccccccc" />
        <path
           style="fill:#0c06b3;fill-opacity:1;stroke:none;stroke-width:1px;stroke-linecap:butt;stroke-linejoin:miter;stroke-opacity:1"
           d="m 1966.8639,173.502 h 223.0458 l 50.4583,-108.248 -259.362,53.89349 z"
           id="path888"
           sodipodi:nodetypes="ccccc" />
        <path
           style="fill:#0c06b3;fill-opacity:1;stroke:none;stroke-width:1px;stroke-linecap:butt;stroke-linejoin:miter;stroke-opacity:1"
           d="m 2291.75,566.25 c 38.2619,32.50672 78.82,52.25 129.75,52.25 38.8791,0 65.75,-11.66426 65.75,-36.5 0,-20.6989 -17.2439,-24.63472 -33,-30.25 C 2368.2854,521.11334 2278,495.99879 2278,384.5 c 0,-54.64753 24.4962,-106.31472 64.7942,-138.25959 C 2378.8644,217.647 2427.5947,201.65 2482.75,201.65 c 54.4211,0 123.0115,10.82423 173.25,45.95 5.4908,3.83909 12.1325,11.33038 12.1325,21.16134 0,5.44889 -1.6196,11.48594 -6.6325,17.73866 L 2594,362 c -28.0724,-23.17399 -65.4148,-40.25 -103.25,-40.25 -24.9602,0 -58.8,6.65571 -58.8,31.5 0,24.0545 32.6019,32.17658 63.05,41.75 63.9363,20.10267 107.8675,40.39465 136.2184,78.33678 C 2646.8294,494.22891 2655,519.41219 2655,551 c 0,49.12108 -13.9344,85.65588 -42.9714,117.61752 C 2575.0919,709.27453 2509.7173,735.05 2425.5,735.05 c -70.0021,0 -161.25,-15.63948 -216.8,-67.05 z"
           id="path890"
           sodipodi:nodetypes="cssssssssccssssssscc" />
      </g>
      <g
         id="text2828">
        <path
           d="m 98.925999,188.05759 h 8.644481 l 3.56337,-10.03024 h 17.94885 l 3.4314,10.03024 h 9.30436 l -17.35495,-47.11572 h -8.05058 z m 14.649421,-17.55292 6.46687,-18.87268 h 0.13197 l 6.40088,18.87268 z"
           style="fill:#0c07b3;fill-opacity:1;stroke-width:2.47456"
           id="path2830" />
        <path
           d="m 147.37543,188.05759 h 8.77646 v -17.61891 h 7.58867 l 11.02006,17.61891 h 9.56832 l -11.67995,-18.60873 c 6.33489,-2.24361 9.30437,-8.05059 9.30437,-13.6596 0,-9.63431 -7.12675,-14.7814 -15.9692,-14.7814 h -18.60873 z m 8.77646,-25.00961 v -14.64942 h 8.64448 c 4.88314,0 8.57849,1.78168 8.57849,7.32471 0,4.88314 -3.36541,7.32471 -8.44651,7.32471 z"
           style="fill:#0c07b3;fill-opacity:1;stroke-width:2.47456"
           id="path2832" />
        <path
           d="m 190.41382,188.05759 h 8.77646 v -47.04973 h -8.77646 z"
           style="fill:#0c07b3;fill-opacity:1;stroke-width:2.47456"
           id="path2834" />
        <path
           d="m 206.26495,188.05759 h 34.90787 v -7.72065 h -23.68984 l 23.09594,-32.59827 v -6.73081 h -33.12618 v 7.52267 h 21.84217 l -23.02996,32.4663 z"
           style="fill:#0c07b3;fill-opacity:1;stroke-width:2.47456"
           id="path2836" />
        <path
           d="m 265.27236,188.84945 c 9.30437,0 18.8067,-6.20291 18.8067,-17.35495 v -14.12152 c 0,-10.49216 -8.90844,-17.15699 -19.13664,-17.15699 -9.30437,0 -18.8067,6.20291 -18.8067,17.35495 v 15.04536 c 0,10.49216 8.90844,16.23315 19.13664,16.23315 z m 0,-7.78663 c -5.54303,0 -10.42617,-3.23344 -10.42617,-8.90844 v -15.04535 c 0,-6.73082 5.60902,-9.1064 10.09623,-9.1064 5.54302,0 10.42617,3.23343 10.42617,8.90843 v 15.04536 c 0,6.73081 -5.60902,9.1064 -10.09623,9.1064 z"
           style="fill:#0c07b3;fill-opacity:1;stroke-width:2.47456"
           id="path2838" />
        <path
           d="m 292.47351,188.05759 h 8.44651 v -32.13636 h 0.13198 l 20.39042,32.13636 h 8.57849 v -47.04973 h -8.44652 v 32.07036 h -0.13197 l -20.45641,-32.07036 h -8.5125 z"
           style="fill:#0c07b3;fill-opacity:1;stroke-width:2.47456"
           id="path2840" />
        <path
           d="m 335.5779,188.05759 h 8.64448 l 3.56337,-10.03024 h 17.94885 l 3.4314,10.03024 h 9.30436 l -17.35495,-47.11572 h -8.05058 z m 14.64943,-17.55292 6.46686,-18.87268 h 0.13198 l 6.40087,18.87268 z"
           style="fill:#0c07b3;fill-opacity:1;stroke-width:2.47456"
           id="path2842" />
      </g>
    </g>
  </g>
  <style
     id="style2521" />
  <style
     id="style1988" />
  <style
     id="style1815" />
  <style
     id="style1488" />
  <style
     id="style856" />
  <style
     id="style856-2" />
  <style
     id="style856-8" />
</svg>
