<?xml version="1.0" encoding="utf-8"?>
<!-- Generator: Adobe Illustrator 25.0.0, SVG Export Plug-In . SVG Version: 6.00 Build 0)  -->
<svg version="1.1" id="Layer_1" xmlns="http://www.w3.org/2000/svg" xmlns:xlink="http://www.w3.org/1999/xlink" x="0px" y="0px"
	 viewBox="0 0 78.636 60" style="enable-background:new 0 0 78.636 60;" xml:space="preserve">
<style type="text/css">
	.st0{fill:none;}
	.st1{fill:#601404;}
</style>
<rect class="st0" width="78.636" height="60"/>
<g>
	<g>
		<path class="st1" d="M0.296,13.239v33.522H78.34V13.239H0.296z M66.758,14.309h10.237v3.299h-6.536v5.118h5.584v3.3h-5.584v5.245
			h6.536v3.299H66.758V14.309z M53.345,14.309h3.237l3.864,8.151l0.959,2.021V14.309h3.701V34.57H61.87l-0.612-1.292l-0.245-0.518
			l-2.436-5.139l-1.529-3.224V34.57h-3.702V14.309z M0.837,13.692l50.93,0.003l-6.284,10.375l6.823,11.344l-0.539,0.009H0.837
			V13.692z M77.799,46.243H0.837v-10.3h76.962V46.243z"/>
	</g>
	<g>
		<polygon class="st1" points="7.783,19.856 14.693,19.856 14.314,14.251 1.97,14.251 1.97,34.75 7.751,34.75 7.737,28.123 
			13.412,28.123 13.412,22.531 7.783,22.531 		"/>
	</g>
	<g>
		<polygon class="st1" points="49.133,14.282 42.954,14.282 40.39,18.698 37.871,14.282 31.477,14.282 37.196,24.153 31.138,34.719 
			37.35,34.731 40.313,29.55 43.31,34.719 49.695,34.719 43.524,24.084 		"/>
	</g>
	<g>
		<path class="st1" d="M34.069,24.528c0-0.709-0.073-1.399-0.21-2.067c-0.036-0.175-0.077-0.349-0.123-0.52
			c-1.116-4.251-4.917-7.38-9.434-7.38s-8.319,3.129-9.435,7.38c-0.046,0.171-0.086,0.345-0.123,0.52
			c-0.138,0.667-0.21,1.358-0.21,2.067c0,1.08,0.169,2.121,0.481,3.094c0.674,2.111,2.021,3.913,3.782,5.139
			c0.267,0.186,0.542,0.359,0.826,0.518c1.39,0.775,2.984,1.215,4.678,1.215s3.288-0.44,4.677-1.215
			c0.284-0.159,0.561-0.332,0.826-0.518c1.762-1.227,3.108-3.028,3.782-5.139C33.901,26.648,34.069,25.607,34.069,24.528z
			 M26.217,21.94v0.52l-0.004,5.161l-0.001,1.17c0,0.934-0.793,1.668-1.708,1.668c-0.915,0-1.658-0.758-1.658-1.692v-1.146
			l0.003-5.161v-1.858c0-0.934,0.74-1.77,1.656-1.77c0.915,0,1.715,0.836,1.715,1.77L26.217,21.94z"/>
	</g>
	<g>
		<polygon class="st1" points="6.924,42.753 7.469,42.126 7.667,41.898 7.739,42.025 9.702,45.518 12.231,45.518 9.915,41.605 
			9.756,41.336 9.618,41.104 9.119,40.26 12.132,36.689 9.478,36.689 6.924,39.814 6.924,36.689 4.778,36.689 4.778,45.518 
			6.924,45.518 		"/>
	</g>
	<g>
		<polygon class="st1" points="28.504,42.108 31.779,42.108 31.779,40.174 28.504,40.174 28.504,38.623 32.337,38.623 
			32.337,36.689 26.335,36.689 26.335,45.518 28.504,45.518 		"/>
	</g>
	<g>
		<polygon class="st1" points="47.116,43.755 46.956,44.017 46.043,45.518 48.522,45.518 49.974,42.803 51.425,45.518 
			53.904,45.518 53.615,45.042 53.345,44.599 51.219,41.104 51.151,40.992 53.345,37.334 53.615,36.884 53.732,36.689 
			51.263,36.689 49.974,39.181 48.684,36.689 46.215,36.689 48.796,40.992 48.729,41.104 		"/>
	</g>
	<g>
		<polygon class="st1" points="73.886,43.585 70.177,43.585 70.177,36.689 68.008,36.689 68.008,45.518 73.886,45.518 		"/>
	</g>
</g>
</svg>
