<?xml version="1.0" encoding="UTF-8" standalone="no"?>
<!-- Created with Inkscape (http://www.inkscape.org/) -->

<svg
   version="1.1"
   id="svg1"
   width="1000"
   height="591.02625"
   viewBox="0 0 1000 591.02625"
   xml:space="preserve"
   xmlns="http://www.w3.org/2000/svg"
   xmlns:svg="http://www.w3.org/2000/svg"><defs
     id="defs1"><style
       id="style1">.cls-1{fill:#fff;stroke-width:0px;}</style></defs><path
     d="m 860.81251,153.52627 v 247.68748 c 0,22.59376 -10.4062,48.99999 -39.7187,48.99999 -29.3125,0 -40.4374,-26.40623 -40.4374,-48.99999 V 153.52627 h -139.1877 v 247.68748 c 0,22.59376 -10.59371,48.99999 -40.40622,48.99999 -29.81249,0 -39.71879,-26.40623 -39.71879,-48.99999 V 153.52627 H 422.15621 v 219.87498 c -0.65625,42.34375 -31.21875,77.68751 -68.18749,78.90623 h -144.625 c -38.71875,0 -70.21875,-35.74998 -70.21875,-79.65621 0,-43.90625 31.5,-80.34377 70.21875,-80.34377 H 345.34371 V 153.52627 H 209.34372 C 93.93747,153.52627 0,251.80751 0,372.65127 0,493.49499 93.93747,591.02626 209.37497,591.02626 h 139.62498 c 46.75001,0 93.84377,-18.90627 129.74999,-49.81252 34.15625,33.90625 71.46875,49.81252 116.31256,49.81252 44.8437,0 82.03131,-15.81253 116.06251,-49.5 34.0314,33.68747 71.2501,49.5 116.0313,49.5 C 924.09401,591.02626 1000,511.495 1000,409.93252 V 153.52627 Z"
     class="cls-1"
     id="path3"
     style="fill:#ff4500;fill-opacity:1" /><g
     id="g12"
     style="fill:#000000;fill-opacity:1"
     transform="matrix(1.3832333,0,0,1.3832333,-675.26268,-384.76388)"><path
       style="font-weight:bold;font-size:95.5785px;line-height:0.95;font-family:'F37 Bolton';-inkscape-font-specification:'F37 Bolton Bold';text-align:end;letter-spacing:0px;word-spacing:0px;text-anchor:end;fill:#000000;fill-opacity:1;stroke-width:25.6013;stroke-linejoin:round;paint-order:markers stroke fill"
       d="m 1139.8928,348.41287 v -68.52978 h 24.3725 q 10.418,0 18.2555,4.10987 7.8374,4.10988 12.0429,11.75616 4.301,7.64628 4.301,18.06434 0,10.32247 -4.1099,18.15991 -4.1099,7.83744 -11.9473,12.13847 -7.8374,4.30103 -18.6378,4.30103 z m 21.983,-13.57214 q 11.0871,0 16.7262,-4.97009 5.7348,-4.97008 5.7348,-15.48371 0,-20.93169 -22.3654,-20.93169 h -7.4551 v 41.38549 z"
       id="path11" /><path
       style="font-weight:bold;font-size:95.5785px;line-height:0.95;font-family:'F37 Bolton';-inkscape-font-specification:'F37 Bolton Bold';text-align:end;letter-spacing:0px;word-spacing:0px;text-anchor:end;fill:#000000;fill-opacity:1;stroke-width:25.6013;stroke-linejoin:round;paint-order:markers stroke fill"
       d="m 1133.1561,348.41287 h -44.1573 v -68.52978 h 14.6235 v 55.05321 h 29.5338 z"
       id="path10" /><path
       style="font-weight:bold;font-size:95.5785px;line-height:0.95;font-family:'F37 Bolton';-inkscape-font-specification:'F37 Bolton Bold';text-align:end;letter-spacing:0px;word-spacing:0px;text-anchor:end;fill:#000000;fill-opacity:1;stroke-width:25.6013;stroke-linejoin:round;paint-order:markers stroke fill"
       d="m 1081.8603,348.41287 h -49.3185 v -68.52978 h 48.5538 v 12.99867 h -33.9303 v 14.14562 h 31.063 v 12.99868 h -31.063 v 15.38814 h 34.695 z"
       id="path9" /><path
       style="font-weight:bold;font-size:95.5785px;line-height:0.95;font-family:'F37 Bolton';-inkscape-font-specification:'F37 Bolton Bold';text-align:end;letter-spacing:0px;word-spacing:0px;text-anchor:end;fill:#000000;fill-opacity:1;stroke-width:25.6013;stroke-linejoin:round;paint-order:markers stroke fill"
       d="m 1024.7897,348.41287 h -14.6235 v -68.52978 h 14.6235 z"
       id="path8" /><path
       style="font-weight:bold;font-size:95.5785px;line-height:0.95;font-family:'F37 Bolton';-inkscape-font-specification:'F37 Bolton Bold';text-align:end;letter-spacing:0px;word-spacing:0px;text-anchor:end;fill:#000000;fill-opacity:1;stroke-width:25.6013;stroke-linejoin:round;paint-order:markers stroke fill"
       d="M 971.78641,348.41287 H 957.1629 v -68.52978 h 46.26 v 13.38099 h -31.63649 v 17.20413 h 27.33541 v 13.09425 h -27.33541 z"
       id="path7" /><path
       style="font-weight:bold;font-size:95.5785px;line-height:0.95;font-family:'F37 Bolton';-inkscape-font-specification:'F37 Bolton Bold';text-align:end;letter-spacing:0px;word-spacing:0px;text-anchor:end;fill:#000000;fill-opacity:1;stroke-width:25.6013;stroke-linejoin:round;paint-order:markers stroke fill"
       d="m 923.91472,350.13329 q -12.23405,0 -19.9759,-5.92587 -7.64628,-6.02145 -7.45513,-18.44665 h 14.05004 q 0,6.30818 3.72756,9.27111 3.82314,2.86736 10.32248,2.86736 11.46942,0 11.46942,-7.83744 0,-3.24967 -2.1983,-5.3524 -2.19831,-2.1983 -7.07281,-3.63198 l -11.46942,-3.34525 q -17.20413,-4.97008 -17.20413,-19.49801 0,-9.94016 6.69049,-15.00582 6.78608,-5.06566 17.49087,-5.06566 7.16839,0 13.09425,2.29388 5.92587,2.29388 9.46227,7.26397 3.63199,4.97008 3.63199,12.52078 h -14.05004 q -0.57347,-10.13132 -12.13847,-10.13132 -4.39661,0 -7.26397,1.62483 -2.77177,1.52926 -2.77177,5.25682 0,2.6762 1.91157,4.77892 2.00714,2.10273 6.88165,3.53641 l 11.66057,3.5364 q 7.74186,2.38947 12.61637,6.88166 4.8745,4.49219 4.8745,13.38099 0,9.749 -6.78607,15.38813 -6.6905,5.63914 -19.49802,5.63914 z"
       id="path6" /><path
       style="font-weight:bold;font-size:95.5785px;line-height:0.95;font-family:'F37 Bolton';-inkscape-font-specification:'F37 Bolton Bold';text-align:end;letter-spacing:0px;word-spacing:0px;text-anchor:end;fill:#000000;fill-opacity:1;stroke-width:25.6013;stroke-linejoin:round;paint-order:markers stroke fill"
       d="m 840.87219,348.41287 v -68.52978 h 26.85756 q 12.9031,0 18.82897,5.73471 5.92586,5.63913 5.92586,14.33677 0,6.6905 -3.5364,11.66058 -3.53641,4.97008 -11.37384,7.26397 v 0.38231 q 1.14694,0.86021 2.29388,2.29388 1.14694,1.43368 3.34525,5.25682 l 12.71194,21.60074 h -16.05719 l -16.15276,-27.33545 h -8.21976 v 27.33545 z m 25.23273,-38.99603 q 5.54355,0 8.8888,-2.00714 3.44082,-2.10273 3.44082,-6.88166 0,-4.68334 -3.34524,-6.40376 -3.34525,-1.81599 -8.98438,-1.81599 H 855.4957 v 17.10855 z"
       id="path5" /><path
       style="font-weight:bold;font-size:95.5785px;line-height:0.95;font-family:'F37 Bolton';-inkscape-font-specification:'F37 Bolton Bold';text-align:end;letter-spacing:0px;word-spacing:0px;text-anchor:end;fill:#000000;fill-opacity:1;stroke-width:25.6013;stroke-linejoin:round;paint-order:markers stroke fill"
       d="m 833.91032,348.41287 h -49.31851 v -68.52978 h 48.55388 v 12.99867 h -33.93037 v 14.14562 h 31.06301 v 12.99868 h -31.06301 v 15.38814 h 34.695 z"
       id="path4" /><path
       style="font-weight:bold;font-size:95.5785px;line-height:0.95;font-family:'F37 Bolton';-inkscape-font-specification:'F37 Bolton Bold';text-align:end;letter-spacing:0px;word-spacing:0px;text-anchor:end;fill:#000000;fill-opacity:1;stroke-width:25.6013;stroke-linejoin:round;paint-order:markers stroke fill"
       d="m 781.09759,348.41287 h -17.87318 l -19.78475,-29.82049 -6.6905,7.07281 v 22.74768 h -14.62351 v -68.52978 h 14.62351 v 28.19566 h 0.28674 q 1.3381,-2.19831 2.29388,-3.05852 l 23.70347,-25.13714 h 17.58645 l -26.47525,28.10008 z"
       id="path2" /><path
       style="font-weight:bold;font-size:95.5785px;line-height:0.95;font-family:'F37 Bolton';-inkscape-font-specification:'F37 Bolton Bold';text-align:end;letter-spacing:0px;word-spacing:0px;text-anchor:end;fill:#000000;fill-opacity:1;stroke-width:25.6013;stroke-linejoin:round;paint-order:markers stroke fill"
       d="m 716.86001,348.41287 h -14.33677 l -5.06566,-15.86603 h -24.85041 l -5.63913,15.86603 h -13.95447 l 24.4681,-68.52978 h 17.39529 z M 677.19493,319.8349 h 16.24835 l -6.02145,-18.73338 q -0.95578,-2.86736 -1.52925,-5.73471 h -0.38232 q -0.76462,3.44082 -1.62483,5.83028 z"
       id="path1" /><path
       style="font-weight:bold;font-size:95.5785px;line-height:0.95;font-family:'F37 Bolton';-inkscape-font-specification:'F37 Bolton Bold';text-align:end;letter-spacing:0px;word-spacing:0px;text-anchor:end;fill:#000000;fill-opacity:1;stroke-width:25.6013;stroke-linejoin:round;paint-order:markers stroke fill"
       d="m 599.83877,348.41287 v -68.52978 h 27.71777 q 10.80037,0 16.72623,4.49219 5.92587,4.49219 5.92587,12.23405 0,5.44797 -2.86735,9.65342 -2.77178,4.20546 -7.93302,5.92587 v 0.28674 q 6.49934,1.72041 9.65343,5.92586 3.15409,4.20546 3.15409,10.51364 0,9.36669 -6.6905,14.43235 -6.69049,5.06566 -17.49086,5.06566 z m 27.33545,-41.09875 q 4.20546,0 6.6905,-2.29389 2.58062,-2.29388 2.58062,-6.2126 0,-7.5507 -10.03574,-7.5507 h -12.42521 v 16.05719 z m -0.57347,29.72491 q 11.46942,0 11.46942,-8.8888 0,-8.98438 -12.04289,-8.98438 h -12.04289 v 17.87318 z"
       id="text1" /></g></svg>
