<?xml version="1.0" encoding="UTF-8" standalone="no"?>
<!-- Created with Inkscape (http://www.inkscape.org/) -->

<svg
   width="375.25mm"
   height="286.57227mm"
   viewBox="0 0 375.25 286.57227"
   version="1.1"
   id="svg48850"
   inkscape:version="1.1 (c68e22c387, 2021-05-23)"
   sodipodi:docname="KGET_17_2014.svg"
   xmlns:inkscape="http://www.inkscape.org/namespaces/inkscape"
   xmlns:sodipodi="http://sodipodi.sourceforge.net/DTD/sodipodi-0.dtd"
   xmlns:xlink="http://www.w3.org/1999/xlink"
   xmlns="http://www.w3.org/2000/svg"
   xmlns:svg="http://www.w3.org/2000/svg">
  <sodipodi:namedview
     id="namedview48852"
     pagecolor="#505050"
     bordercolor="#eeeeee"
     borderopacity="1"
     inkscape:pageshadow="0"
     inkscape:pageopacity="0"
     inkscape:pagecheckerboard="0"
     inkscape:document-units="mm"
     showgrid="false"
     inkscape:zoom="0.49531425"
     inkscape:cx="348.26375"
     inkscape:cy="293.7529"
     inkscape:window-width="1366"
     inkscape:window-height="715"
     inkscape:window-x="-8"
     inkscape:window-y="-8"
     inkscape:window-maximized="1"
     inkscape:current-layer="svg48850"
     inkscape:snap-page="true"
     inkscape:snap-bbox="true"
     inkscape:bbox-paths="true"
     inkscape:bbox-nodes="true"
     inkscape:snap-bbox-edge-midpoints="true"
     inkscape:snap-bbox-midpoints="true"
     inkscape:snap-intersection-paths="false"
     inkscape:object-paths="false"
     inkscape:snap-midpoints="false"
     inkscape:snap-smooth-nodes="false" />
  <defs
     id="defs48847">
    <linearGradient
       inkscape:collect="always"
       id="linearGradient91094">
      <stop
         style="stop-color:#dfe0b2;stop-opacity:1;"
         offset="0"
         id="stop91090" />
      <stop
         style="stop-color:#fcbf0e;stop-opacity:1"
         offset="0.16447918"
         id="stop94053" />
      <stop
         style="stop-color:#e1dfab;stop-opacity:1"
         offset="0.36606714"
         id="stop91312" />
      <stop
         style="stop-color:#fcbf0e;stop-opacity:1"
         offset="0.57676739"
         id="stop97268" />
      <stop
         style="stop-color:#cac768;stop-opacity:1"
         offset="0.75220644"
         id="stop100190" />
      <stop
         style="stop-color:#fcbf0e;stop-opacity:1"
         offset="1"
         id="stop91092" />
    </linearGradient>
    <linearGradient
       inkscape:collect="always"
       id="linearGradient75146">
      <stop
         style="stop-color:#fcbf0e;stop-opacity:1;"
         offset="0"
         id="stop75142" />
      <stop
         style="stop-color:#fcbf11;stop-opacity:1;"
         offset="0.21832137"
         id="stop83470" />
      <stop
         style="stop-color:#c59829;stop-opacity:1"
         offset="0.36721253"
         id="stop83468" />
      <stop
         style="stop-color:#fcbf13;stop-opacity:1;"
         offset="0.54774308"
         id="stop83402" />
      <stop
         style="stop-color:#fdbf17;stop-opacity:1"
         offset="0.81388605"
         id="stop80693" />
      <stop
         style="stop-color:#c2962b;stop-opacity:1"
         offset="1"
         id="stop75144" />
    </linearGradient>
    <linearGradient
       inkscape:collect="always"
       id="linearGradient72950">
      <stop
         style="stop-color:#0d6ea8;stop-opacity:1"
         offset="0"
         id="stop72948" />
      <stop
         style="stop-color:#1b2a65;stop-opacity:1;"
         offset="1"
         id="stop72946" />
    </linearGradient>
    <linearGradient
       inkscape:collect="always"
       id="linearGradient68603">
      <stop
         style="stop-color:#1b2a65;stop-opacity:1;"
         offset="0"
         id="stop68599" />
      <stop
         style="stop-color:#0d6ea8;stop-opacity:1"
         offset="1"
         id="stop68601" />
    </linearGradient>
    <linearGradient
       inkscape:collect="always"
       id="linearGradient59262">
      <stop
         style="stop-color:#d1d8dc;stop-opacity:1;"
         offset="0"
         id="stop59258" />
      <stop
         style="stop-color:#ffffff;stop-opacity:1"
         offset="0.46997344"
         id="stop62126" />
      <stop
         style="stop-color:#c3bbc4;stop-opacity:1"
         offset="0.63280571"
         id="stop62341" />
      <stop
         style="stop-color:#ffffff;stop-opacity:1"
         offset="0.73604858"
         id="stop65076" />
      <stop
         style="stop-color:#e7e8ea;stop-opacity:1"
         offset="1"
         id="stop59260" />
    </linearGradient>
    <linearGradient
       inkscape:collect="always"
       xlink:href="#linearGradient59262"
       id="linearGradient59264"
       x1="-5.6293988"
       y1="-72.784348"
       x2="369.62061"
       y2="-72.784348"
       gradientUnits="userSpaceOnUse"
       gradientTransform="translate(5.6293986,72.784345)" />
    <linearGradient
       inkscape:collect="always"
       xlink:href="#linearGradient68603"
       id="linearGradient67306"
       x1="199.07787"
       y1="-10.23716"
       x2="199.07787"
       y2="-61.630527"
       gradientUnits="userSpaceOnUse"
       gradientTransform="translate(5.6293986,72.784345)" />
    <linearGradient
       inkscape:collect="always"
       xlink:href="#linearGradient68603"
       id="linearGradient67308"
       x1="199.07787"
       y1="-10.23716"
       x2="199.07787"
       y2="-61.630527"
       gradientUnits="userSpaceOnUse"
       gradientTransform="translate(5.6293986,72.784345)" />
    <linearGradient
       inkscape:collect="always"
       xlink:href="#linearGradient68603"
       id="linearGradient67310"
       x1="199.07787"
       y1="-10.23716"
       x2="199.07787"
       y2="-61.630527"
       gradientUnits="userSpaceOnUse"
       gradientTransform="translate(5.6293986,72.784345)" />
    <linearGradient
       inkscape:collect="always"
       xlink:href="#linearGradient68603"
       id="linearGradient67312"
       x1="199.07787"
       y1="-10.23716"
       x2="199.07787"
       y2="-61.630527"
       gradientUnits="userSpaceOnUse"
       gradientTransform="translate(5.6293986,72.784345)" />
    <radialGradient
       inkscape:collect="always"
       xlink:href="#linearGradient72950"
       id="radialGradient72914"
       cx="226.30521"
       cy="52.129642"
       fx="226.30521"
       fy="52.129642"
       r="187.625"
       gradientTransform="matrix(-0.65542133,0.82379437,-0.9559618,-0.76057543,403.91464,101.51105)"
       gradientUnits="userSpaceOnUse" />
    <linearGradient
       inkscape:collect="always"
       xlink:href="#linearGradient75146"
       id="linearGradient75136"
       x1="363.45276"
       y1="202.94937"
       x2="363.45276"
       y2="0"
       gradientUnits="userSpaceOnUse"
       gradientTransform="translate(5.6293986,72.784345)" />
    <linearGradient
       inkscape:collect="always"
       xlink:href="#linearGradient75146"
       id="linearGradient75138"
       x1="363.45276"
       y1="202.94937"
       x2="363.45276"
       y2="0"
       gradientUnits="userSpaceOnUse"
       gradientTransform="translate(5.6293986,72.784345)" />
    <linearGradient
       inkscape:collect="always"
       xlink:href="#linearGradient75146"
       id="linearGradient75140"
       x1="363.45276"
       y1="202.94937"
       x2="363.45276"
       y2="0"
       gradientUnits="userSpaceOnUse"
       gradientTransform="translate(5.6293986,72.784345)" />
    <linearGradient
       inkscape:collect="always"
       xlink:href="#linearGradient91094"
       id="linearGradient91096"
       x1="187.72461"
       y1="730.49609"
       x2="513.21484"
       y2="730.49609"
       gradientUnits="userSpaceOnUse"
       gradientTransform="matrix(0.26458333,0,0,0.26458333,5.6293986,72.784345)" />
    <linearGradient
       inkscape:collect="always"
       xlink:href="#linearGradient91094"
       id="linearGradient105907"
       x1="513.21484"
       y1="38.113281"
       x2="1210.13"
       y2="38.113281"
       gradientUnits="userSpaceOnUse"
       gradientTransform="matrix(0.26458333,0,0,0.26458333,5.6293986,72.784345)" />
  </defs>
  <path
     id="path49459"
     style="opacity:1;fill:url(#radialGradient72914);fill-opacity:1;stroke:none;stroke-width:2.52463"
     d="m 0,275.73349 c 125.08333,0 250.16666,0 375.25,0 0,-67.64971 0,-135.29941 0,-202.949109 -125.08334,0 -250.16667,0 -375.25,0 0,67.649699 0,135.299399 0,202.949109 z" />
  <path
     id="ellipse49191"
     style="color:#000000;opacity:1;fill:url(#linearGradient75140);fill-opacity:1;stroke:none;stroke-width:1;-inkscape-stroke:none"
     d="M 36.193941,72.784345 C 16.88575,102.26075 5.6293986,137.58258 5.6293986,175.3357 c 0,36.83865 10.7417604,71.35147 29.1971834,100.39801 H 82.340994 A 144.22662,147.96581 0 0 1 43.129435,175.33674 144.22662,147.96581 0 0 1 83.502681,72.784345 Z m 255.015439,0 a 144.22662,147.96581 0 0 1 40.37325,102.552395 144.22662,147.96581 0 0 1 -39.21208,100.39697 h 47.51389 c 18.45552,-29.04654 29.1977,-63.55936 29.1977,-100.39801 0,-37.75312 -11.25686,-73.07495 -30.56505,-102.551355 z" />
  <path
     id="path49621"
     style="opacity:1;fill:url(#linearGradient59264);fill-opacity:1;stroke:none;stroke-width:1.5119"
     d="m 0,72.784381 c 125.08333,0 250.16666,0 375.25,0 0,-24.261461 0,-48.522921 0,-72.784381 C 250.16666,0 125.08333,0 0,0 0,24.26146 0,48.52292 0,72.784381 Z" />
  <path
     id="path49639"
     style="opacity:1;fill:#fcbf0e;fill-opacity:1;stroke:none;stroke-width:0.583437"
     d="m 0,286.57226 c 125.08333,0 250.16666,0 375.25,0 0,-3.61293 0,-7.22585 0,-10.83877 -125.08334,0 -250.16667,0 -375.25,0 0,3.61292 0,7.22584 0,10.83877 z" />
  <path
     id="path69213"
     style="opacity:1;fill:url(#linearGradient75136);fill-opacity:1;stroke:none;stroke-width:77.8756"
     d="M 93.758386,82.868484 55.298201,131.97246 H 86.270987 V 266.06143 H 141.41749 V 82.868484 Z" />
  <path
     d="m 42.859028,11.224002 h 15.809295 v 17.967501 h 8.264348 L 84.829987,11.224002 H 106.60505 L 80.952235,35.66612 109.92132,62.477 H 86.988192 L 66.932671,42.491665 h -8.264348 v 20.05552 H 42.859028 Z"
     style="font-weight:bold;font-size:71.87px;line-height:1.25;font-family:Microgramma;-inkscape-font-specification:'Microgramma Bold';text-align:start;letter-spacing:-3.175px;word-spacing:0px;text-anchor:start;opacity:1;fill:url(#linearGradient67306);fill-opacity:1;stroke:none;stroke-width:1.79676"
     id="path54731" />
  <path
     d="m 184.51191,29.770534 h -15.80929 q 0,-4.526968 -2.2284,-5.316556 -2.22839,-0.719402 -15.38818,-0.719402 -13.14224,0 -15.37063,1.666907 -2.22839,1.649361 -2.22839,11.56307 0,9.843523 2.22839,11.422698 2.1582,1.64936 15.44082,1.64936 13.22997,0 15.38818,-0.63167 2.15821,-0.649216 2.15821,-4.755071 H 149.15594 V 33.156987 h 35.35597 q 0,16.739253 -1.22825,21.196035 -1.71954,6.246514 -8.61527,7.843236 -5.106,1.140515 -23.51216,1.140515 -24.14383,0 -28.81117,-3.877752 -4.66734,-3.807566 -4.66734,-22.564654 0,-18.757088 4.52697,-22.494469 4.80771,-3.965483 28.95154,-3.965483 23.14368,0 27.96894,2.667051 5.38674,2.947793 5.38674,16.669068 z"
     style="font-weight:bold;font-size:71.87px;line-height:1.25;font-family:Microgramma;-inkscape-font-specification:'Microgramma Bold';text-align:start;letter-spacing:-3.175px;word-spacing:0px;text-anchor:start;opacity:1;fill:url(#linearGradient67308);fill-opacity:1;stroke:none;stroke-width:1.79676"
     id="path54733" />
  <path
     d="M 204.70726,62.547185 V 11.153817 h 55.34131 v 12.440388 h -39.53201 v 7.106287 h 37.72473 v 12.370203 h -37.72473 v 7.036102 h 39.53201 v 12.440388 z"
     style="font-weight:bold;font-size:71.87px;line-height:1.25;font-family:Microgramma;-inkscape-font-specification:'Microgramma Bold';text-align:start;letter-spacing:-3.175px;word-spacing:0px;text-anchor:start;opacity:1;fill:url(#linearGradient67310);fill-opacity:1;stroke:none;stroke-width:1.79676"
     id="path54735" />
  <path
     d="M 274.94578,24.453978 V 11.153817 h 61.16671 v 13.300161 h -22.63484 v 38.093207 h -15.8093 V 24.453978 Z"
     style="font-weight:bold;font-size:71.87px;line-height:1.25;font-family:Microgramma;-inkscape-font-specification:'Microgramma Bold';text-align:start;letter-spacing:-3.175px;word-spacing:0px;text-anchor:start;opacity:1;fill:url(#linearGradient67312);fill-opacity:1;stroke:none;stroke-width:1.79676"
     id="path54737" />
  <path
     id="path55026"
     style="color:#000000;opacity:1;fill:#fcbf0e;fill-opacity:1;stroke:none;stroke-width:1;-inkscape-stroke:none"
     d="M 36.193941,72.784345 C 16.88575,102.26075 5.6293986,137.58258 5.6293986,175.3357 c 0,36.83865 10.7417614,71.35147 29.1971834,100.39801 H 55.372099 A 167.91923,170.34289 0 0 1 20.629516,172.12711 167.91923,170.34289 0 0 1 52.269963,72.784345 Z m 288.744649,0 a 167.91923,170.34289 0 0 1 31.52934,99.342765 167.91923,170.34289 0 0 1 -34.7431,103.6066 h 18.15962 c 18.45551,-29.04654 29.1977,-63.55936 29.1977,-100.39801 0,-37.75312 -11.25689,-73.07495 -30.56507,-102.551355 z" />
  <path
     id="path69246"
     style="opacity:1;fill:url(#linearGradient75138);fill-opacity:1;stroke:none;stroke-width:84.1965"
     d="m 175.60455,82.868484 -34.18706,40.864166 v 8.23981 H 256.03633 L 148.97104,266.06143 h 69.50014 l 107.33144,-132.16712 0.007,5.3e-4 -1.82262,-51.026356 z" />
  <path
     id="path69398"
     style="color:#000000;opacity:1;fill:url(#linearGradient91096);fill-opacity:1;stroke:none;stroke-width:1;-inkscape-stroke:none"
     d="M 93.758386,82.868484 55.298201,131.97246 H 86.270987 V 266.06143 H 141.41749 V 82.868484 Z m 1.460891,2.999817 H 138.41871 V 263.06161 H 89.269769 v -134.09 H 61.459582 Z" />
  <path
     id="path69400"
     style="color:#000000;opacity:1;fill:url(#linearGradient105907);fill-opacity:1;stroke:none;stroke-width:1;-inkscape-stroke:none"
     d="m 175.60455,82.868484 -34.18706,40.864166 v 8.23981 h 114.61884 l -107.0653,134.08897 h 69.50016 L 325.71424,134.00334 a 144.22662,147.96581 0 0 0 -3.26284,-10.0707 l 0.31885,8.93589 -105.72689,130.19308 h -61.83963 l 107.06633,-134.09 H 144.41834 v -4.15014 l 32.58819,-38.953169 h 125.00115 a 144.22662,147.96581 0 0 0 -2.23189,-2.999817 z" />
</svg>
