<svg height="328.633535" viewBox="0 0 133.9724 144.91843" width="304.29031" xmlns="http://www.w3.org/2000/svg"><path d="m0 0h133.97239v144.91843h-133.97239z" fill="#125180"/><g fill="#e6e7e8"><path d="m56.799608 10.728615c-23.727093 0-38.196399 16.31112-38.196399 36.420455 0 15.727035 12.050334 27.0765 29.706506 29.328357-5.376549 6.539796-26.358657 29.099133-26.358657 29.099133h33.047785l21.912864-23.780242c15.477408-17.42041 16.668438-27.341212 16.668438-34.647248 0-19.795116-10.358289-36.420455-36.780537-36.420455zm-.64682 21.394346c7.876292-.00008 12.992712 4.438369 12.992705 11.889547 0 7.451171-5.483513 12.05649-13.359798 12.056412-7.876274.000063-12.793199-5.005719-12.793202-12.456877-.000006-7.451167 5.284016-11.489147 13.160295-11.489082z" fill-rule="evenodd"/><path clip-rule="evenodd" d="m99.131834 71.243343a17.156885 17.156885 0 0 0 -17.156948 17.156889 17.156885 17.156885 0 0 0 17.156948 17.156888 17.156885 17.156885 0 0 0 17.156876-17.156888 17.156885 17.156885 0 0 0 -17.156876-17.156889zm-4.72947 10.137302h2.637755v2.959572c.609315-.412807 1.352552-.641281 2.070374-.642316 2.600377 0 4.708237 2.107859 4.708237 4.708158 0 2.600298-2.10786 4.70823-4.708237 4.70823-2.600303 0-4.708129-2.107932-4.708129-4.70823zm-5.36637 2.317256c2.600302 0 4.708127 2.107859 4.708127 4.708158v4.628609h-2.585201v-.789547c-.560278.542158-1.355618.868139-2.122926.869168-2.600265 0-4.708166-2.107932-4.708166-4.70823 0-2.600299 2.107901-4.708158 4.708166-4.708158zm20.169706 0c2.35552.0023 4.34677 1.745869 4.66073 4.080931h-2.68735c-.26568-.836914-1.04876-1.443256-1.97338-1.443256-1.14336.000337-2.07053.927145-2.07053 2.070815 0 1.143337.9268 2.070554 2.07053 2.070554.92462 0 1.70737-.606337 1.97338-1.443255h2.68702c-.31363 2.334366-2.30488 4.077847-4.6604 4.080599-2.60042 0-4.70828-2.107932-4.70828-4.70823 0-2.600299 2.10786-4.708158 4.70828-4.708158zm-20.169706 2.637332c-1.143355 0-2.070486.926816-2.070486 2.070497 0 1.143666.926832 2.070815 2.070486 2.070815 1.143318 0 2.070486-.92679 2.070486-2.070815 0-1.143336-.926757-2.070497-2.070486-2.070497zm10.074499.00035c-1.143581 0-2.070374.926795-2.070374 2.070815 0 1.143346.926793 2.070558 2.070374 2.070558 1.143357 0 2.070487-.926876 2.070487-2.070558 0-1.143677-.92683-2.070815-2.070487-2.070815z" fill-rule="evenodd"/><path d="m36.46374 139.85768-11.853935-13.738 10.9119-12.4427h-4.08215l-11.579174 13.54174v-13.54174h-3.25787v26.1807h3.25787v-8.79232l2.629846-2.98311 9.930614 11.77543z"/><path d="m50.924985 140.36795c4.278407 0 7.850288-1.80556 10.283877-4.51391v-9.4596h-12.246448v2.90461h8.988579v5.33819c-1.295297 1.2953-3.885893 2.82611-7.026008 2.82611-5.73071 0-10.08762-4.47467-10.08762-10.67639 0-6.24098 4.35691-10.63715 10.08762-10.63715 3.140115 0 5.926968 1.49156 7.575529 3.61114l2.590594-1.60931c-2.315835-2.86536-5.534452-4.90643-10.166123-4.90643-7.457774 0-13.463244 5.4167-13.463244 13.54175 0 8.12504 6.00547 13.58099 13.463244 13.58099z"/><path d="m77.632695 140.3287c7.10451 0 10.676391-4.16065 10.676391-10.67639v-15.97533h-3.25787v15.93608c0 4.78867-2.590594 7.81104-7.418521 7.81104s-7.418523-3.02237-7.418523-7.81104v-15.93608h-3.257869v16.01458c0 6.43724 3.571881 10.63714 10.676392 10.63714z"/><path d="m116.54758 139.85768v-26.1807h-3.25787v20.44999l-15.072553-20.44999h-3.336372v26.1807h3.257869v-20.88176l15.268816 20.88176z"/></g></svg>