<svg xmlns="http://www.w3.org/2000/svg" viewBox="0 0 107 60"><defs><style>.a{fill:none;}.b{fill:#000;}</style></defs><title>kima_logo_w</title><rect class="a" width="107" height="60"/><path class="b" d="M3.77,30c2.05,3.74,5.92,6.87,10.68,6.89S23.09,33.77,25.12,30a12.3,12.3,0,0,0-10.67-6.75A12.5,12.5,0,0,0,3.77,30m16.82.08A6.15,6.15,0,1,1,14.45,24a6.14,6.14,0,0,1,6.14,6.15"/><polygon class="b" points="93.2 23.26 91.55 33.09 94.92 33.09 93.27 23.26 93.2 23.26"/><path class="b" d="M0,47H106.4V13H0Zm14.45-5.3A11.59,11.59,0,1,1,26,30.11,11.59,11.59,0,0,1,14.45,41.7m25.28,0-3.51-8.07L35,35.54v6.14H28.9V18.53H35v8.86h0l4.46-8.86h6.41L40.06,28.65l6.54,13Zm15.33,0H49V18.53h6Zm26.05,0H75.47V24.44h0l-3.2,17.24H67.88l-3.2-17.24h-.06V41.68H59V18.53h8.61L70,32.23h.06l2.43-13.7h8.6Zm15.14,0-.62-4.08H90.84l-.62,4.08h-6.4l5.63-23.15H97l5.63,23.15Z"/></svg>