<?xml version="1.0" encoding="UTF-8"?><svg id="Layer_2" xmlns="http://www.w3.org/2000/svg" viewBox="0 0 697.06 153.89"><defs><style>.cls-1{fill:#000;}</style></defs><g id="Layer_1-2"><g><polygon class="cls-1" points="170.95 123.5 230.58 123.5 230.58 151.24 140.56 151.24 140.56 5.13 170.95 5.13 170.95 123.5"/><path class="cls-1" d="M506.15,45.59h-31c-2.45-11.01-11.29-16.52-26.51-16.52-6.94,0-12.65,1.4-17.13,4.18-4.49,2.79-6.73,6.9-6.73,12.34,0,7.75,6.05,12.72,18.15,14.89l27.13,4.9c26.38,4.9,39.57,19.1,39.57,42.63,0,13.05-5.03,23.97-15.09,32.74-10.06,8.77-24.55,13.16-43.44,13.16s-32.77-4.21-43.65-12.65c-10.88-8.43-17.07-19.92-18.56-34.47h31c2.31,14.01,13.12,21.01,32.43,21.01,8.16,0,14.65-1.63,19.48-4.9,4.83-3.26,7.24-7.75,7.24-13.46s-1.67-9.52-5-12.24c-3.33-2.72-8.26-4.69-14.79-5.91l-27.74-4.9c-24.88-4.35-37.32-17.61-37.32-39.77,0-12.51,4.9-22.91,14.68-31.21,9.79-8.29,23.18-12.44,40.18-12.44,15.91,0,28.99,3.81,39.26,11.42,10.27,7.62,16.22,18.02,17.85,31.21"/><path class="cls-1" d="M347.26,128.15l11.19,23.09h33.06L316.94,0l-74.57,151.24h32.85l11.19-23.09h60.85Zm-30.53-65.51l19.12,39.25h-38.03l18.91-39.25Z"/><rect class="cls-1" x="529.39" y="5.13" width="30.39" height="146.11"/><rect class="cls-1" y="5.13" width="30.39" height="146.11"/><polygon class="cls-1" points="122.67 5.13 84.92 5.13 34.88 78.09 85.08 151.24 122.83 151.24 72.63 78.09 122.67 5.13"/><rect class="cls-1" x="666.67" y="5.13" width="30.39" height="146.11"/><polygon class="cls-1" points="574.39 5.13 612.13 5.13 662.18 78.09 611.98 151.24 574.23 151.24 624.43 78.09 574.39 5.13"/></g></g></svg>