<?xml version="1.0" encoding="UTF-8" standalone="no"?>
<svg
   xmlns:dc="http://purl.org/dc/elements/1.1/"
   xmlns:cc="http://creativecommons.org/ns#"
   xmlns:rdf="http://www.w3.org/1999/02/22-rdf-syntax-ns#"
   xmlns:svg="http://www.w3.org/2000/svg"
   xmlns="http://www.w3.org/2000/svg"
   id="svg8"
   version="1.1"
   viewBox="0 0 650.30481 165.19563"
   height="165.19563mm"
   width="650.30481mm">
  <defs
     id="defs2">
    <style
       id="style1">.cls-1{fill:#000C0D;}</style>
    <style
       id="style1-7">.cls-1{fill:#fff;stroke-width:0px;}</style>
    <style
       id="style1-0">.cls-1{fill:#000C0D;}</style>
  </defs>
  <metadata
     id="metadata5">
    <rdf:RDF>
      <cc:Work
         rdf:about="">
        <dc:format>image/svg+xml</dc:format>
        <dc:type
           rdf:resource="http://purl.org/dc/dcmitype/StillImage" />
        <dc:title></dc:title>
      </cc:Work>
    </rdf:RDF>
  </metadata>
  <g
     transform="translate(453.19347,-28.744381)"
     id="layer1">
    <g
       id="g2033">
      <g
         id="g1751"
         style="fill:#002023;fill-opacity:1"
         transform="matrix(1.8590418,0,0,1.8590418,389.3121,-166.60256)">
        <path
           style="font-weight:bold;font-size:766.91802979px;line-height:0.89999998;font-family:'F37 Bolton';-inkscape-font-specification:'F37 Bolton Bold';text-align:end;letter-spacing:-22.46829987px;text-anchor:end;fill:#002023;fill-opacity:1;fill-rule:evenodd;stroke-width:7.31571007;paint-order:markers stroke fill"
           d="M -120.42446,135.34805 H -142.312 v -12.91112 q 10.69506,-0.12535 17.28618,-4.01122 6.59113,-3.88586 8.08346,-13.28718 h 13.55536 v 87.62017 h -17.03746 z"
           id="path20" />
        <path
           style="font-weight:bold;font-size:766.14898682px;line-height:0.85000002;font-family:'F37 Bolton';-inkscape-font-specification:'F37 Bolton Bold';text-align:end;letter-spacing:0px;word-spacing:143.65299988px;text-anchor:end;fill:#002023;fill-opacity:1;stroke-width:33.84615707;paint-order:markers fill stroke"
           d="m -241.81176,193.77873 q 0,-12.24725 4.72995,-20.33045 4.72993,-8.08319 14.54459,-15.1866 l 10.28763,-7.47083 q 10.99711,-7.96072 10.99711,-17.63606 0,-5.87868 -3.31095,-9.06297 -3.19271,-3.18429 -8.63215,-3.18429 -6.74018,0 -10.05113,4.40902 -3.19272,4.40901 -3.19272,11.63489 H -241.93 q 0,-14.69671 7.44965,-22.7799 7.44967,-8.20566 21.28477,-8.20566 12.77086,0 20.45703,7.1034 7.68617,6.98095 7.68617,19.7181 0,9.43038 -4.02046,15.79897 -4.02047,6.36857 -10.76064,11.145 l -10.87887,7.96072 q -4.72996,3.42923 -7.33142,6.12363 -2.48323,2.57192 -2.83798,4.8989 h 36.77534 v 15.06413 z"
           id="path19" />
        <path
           style="font-size:53.33330154px;line-height:0.85000002;font-family:'F37 Bolton';-inkscape-font-specification:'F37 Bolton';text-align:end;letter-spacing:0px;word-spacing:10px;text-anchor:end;fill:#002023;fill-opacity:1;stroke-width:32.86074448;paint-order:markers fill stroke"
           d="m -171.5997,193.77873 h -9.2403 l 30.66087,-85.27947 h 9.25413 z"
           id="text20"
           aria-label="/" />
        <path
           id="path1702"
           d="m -304.88176,193.77873 q 0,-12.24725 4.72995,-20.33045 4.72994,-8.08319 14.54459,-15.1866 l 10.28763,-7.47083 q 10.99712,-7.96072 10.99712,-17.63606 0,-5.87868 -3.31096,-9.06297 -3.19271,-3.18429 -8.63215,-3.18429 -6.74017,0 -10.05113,4.40902 -3.19272,4.40901 -3.19272,11.63489 H -305 q 0,-14.69671 7.44965,-22.7799 7.44967,-8.20566 21.28477,-8.20566 12.77086,0 20.45703,7.1034 7.68617,6.98095 7.68617,19.7181 0,9.43038 -4.02046,15.79897 -4.02046,6.36857 -10.76064,11.145 l -10.87887,7.96072 q -4.72995,3.42923 -7.33141,6.12363 -2.48323,2.57192 -2.83799,4.8989 h 36.77534 v 15.06413 z"
           style="font-weight:bold;font-size:766.14898682px;line-height:0.85000002;font-family:'F37 Bolton';-inkscape-font-specification:'F37 Bolton Bold';text-align:end;letter-spacing:0px;word-spacing:143.65299988px;text-anchor:end;fill:#002023;fill-opacity:1;stroke-width:33.84615707;paint-order:markers fill stroke" />
      </g>
      <g
         id="g1745"
         style="fill:#002023;fill-opacity:1"
         transform="matrix(1.8590418,0,0,1.8590418,389.3121,-166.60256)">
        <path
           d="m -433.04,125.34119 v -19.76561 h 4.21776 v 15.87865 h 8.51824 v 3.88696 z"
           style="font-style:normal;font-variant:normal;font-weight:bold;font-stretch:normal;font-size:medium;line-height:1.25;font-family:'F37 Bolton';-inkscape-font-specification:'F37 Bolton Bold';font-variant-ligatures:normal;font-variant-caps:normal;font-variant-numeric:normal;font-feature-settings:normal;text-align:start;letter-spacing:-0.80433333px;word-spacing:-1.99538743px;writing-mode:lr-tb;text-anchor:start;fill:#002023;fill-opacity:1;stroke:none;stroke-width:0.26819721px;stroke-linecap:butt;stroke-linejoin:miter;stroke-opacity:1"
           id="path1716" />
        <path
           d="m -411.2363,125.83739 q -3.80426,0 -5.89936,-2.0951 -2.0951,-2.09509 -2.0951,-6.06476 v -12.10195 h 4.1902 v 11.63331 q 0,2.20537 0.93728,3.44589 0.93728,1.24052 2.86698,1.24052 1.90213,0 2.83941,-1.24052 0.96485,-1.26809 0.96485,-3.44589 v -11.63331 h 4.1902 v 12.10195 q 0,3.96967 -2.12267,6.06476 -2.0951,2.0951 -5.87179,2.0951 z"
           style="font-style:normal;font-variant:normal;font-weight:bold;font-stretch:normal;font-size:medium;line-height:1.25;font-family:'F37 Bolton';-inkscape-font-specification:'F37 Bolton Bold';font-variant-ligatures:normal;font-variant-caps:normal;font-variant-numeric:normal;font-feature-settings:normal;text-align:start;letter-spacing:-0.80433333px;word-spacing:-1.99538743px;writing-mode:lr-tb;text-anchor:start;fill:#002023;fill-opacity:1;stroke:none;stroke-width:0.26819721px;stroke-linecap:butt;stroke-linejoin:miter;stroke-opacity:1"
           id="path1718" />
        <path
           d="m -401.028,125.34119 v -19.76561 h 7.99446 q 3.11508,0 4.82424,1.29565 1.70916,1.29565 1.70916,3.52859 0,1.57132 -0.82701,2.78428 -0.79945,1.21295 -2.28807,1.70916 v 0.0827 q 3.69399,0.96485 3.69399,4.74154 0,2.70157 -1.92969,4.16263 -1.9297,1.46106 -5.04478,1.46106 z m 4.07993,-3.28049 h 3.63886 q 3.30805,0 3.30805,-2.56374 0,-2.59131 -3.47345,-2.59131 h -3.47346 z m 0,-8.57337 h 3.80426 q 1.21295,0 1.9297,-0.66161 0.74431,-0.66161 0.74431,-1.79186 0,-2.1778 -2.89454,-2.1778 h -3.58373 z"
           style="font-style:normal;font-variant:normal;font-weight:bold;font-stretch:normal;font-size:medium;line-height:1.25;font-family:'F37 Bolton';-inkscape-font-specification:'F37 Bolton Bold';font-variant-ligatures:normal;font-variant-caps:normal;font-variant-numeric:normal;font-feature-settings:normal;text-align:start;letter-spacing:-1.23825002px;word-spacing:-1.99538743px;writing-mode:lr-tb;text-anchor:start;fill:#002023;fill-opacity:1;stroke:none;stroke-width:0.26819721px;stroke-linecap:butt;stroke-linejoin:miter;stroke-opacity:1"
           id="path1720" />
        <path
           d="m -384.3,125.34119 v -19.76561 h 7.99445 q 3.11509,0 4.82425,1.29565 1.70916,1.29565 1.70916,3.52859 0,1.57132 -0.82702,2.78428 -0.79944,1.21295 -2.28807,1.70916 v 0.0827 q 3.694,0.96485 3.694,4.74154 0,2.70157 -1.9297,4.16263 -1.9297,1.46106 -5.04478,1.46106 z m 4.07993,-3.28049 h 3.63885 q 3.30806,0 3.30806,-2.56374 0,-2.59131 -3.47346,-2.59131 h -3.47345 z m 0,-8.57337 h 3.80426 q 1.21295,0 1.92969,-0.66161 0.74431,-0.66161 0.74431,-1.79186 0,-2.1778 -2.89454,-2.1778 h -3.58372 z"
           style="font-style:normal;font-variant:normal;font-weight:bold;font-stretch:normal;font-size:medium;line-height:1.25;font-family:'F37 Bolton';-inkscape-font-specification:'F37 Bolton Bold';font-variant-ligatures:normal;font-variant-caps:normal;font-variant-numeric:normal;font-feature-settings:normal;text-align:start;letter-spacing:-1.23825002px;word-spacing:-1.99538743px;writing-mode:lr-tb;text-anchor:start;fill:#002023;fill-opacity:1;stroke:none;stroke-width:0.26819721px;stroke-linecap:butt;stroke-linejoin:miter;stroke-opacity:1"
           id="path1722" />
        <path
           d="m -350.95083,122.91528 q -2.64644,2.92211 -7.22258,2.92211 -4.57614,0 -7.25015,-2.92211 -2.64644,-2.92211 -2.64644,-7.33285 0,-4.54857 2.70158,-7.52581 2.70157,-2.97725 7.19501,-2.97725 4.49344,0 7.16744,2.97725 2.70158,2.97724 2.70158,7.52581 0,4.41074 -2.64644,7.33285 z m -12.9014,-7.33285 q 0,2.64645 1.48862,4.49344 1.48862,1.81943 4.1902,1.81943 2.67401,0 4.1902,-1.81943 1.51619,-1.84699 1.51619,-4.49344 0,-2.81184 -1.51619,-4.6864 -1.48863,-1.87457 -4.1902,-1.87457 -2.70158,0 -4.1902,1.87457 -1.48862,1.87456 -1.48862,4.6864 z"
           style="font-style:normal;font-variant:normal;font-weight:bold;font-stretch:normal;font-size:medium;line-height:1.25;font-family:'F37 Bolton';-inkscape-font-specification:'F37 Bolton Bold';font-variant-ligatures:normal;font-variant-caps:normal;font-variant-numeric:normal;font-feature-settings:normal;text-align:start;letter-spacing:-1.23825002px;word-spacing:-1.99538743px;writing-mode:lr-tb;text-anchor:start;fill:#002023;fill-opacity:1;stroke:none;stroke-width:0.26819721px;stroke-linecap:butt;stroke-linejoin:miter;stroke-opacity:1"
           id="path1724" />
        <path
           d="m -337.60286,125.83739 q -4.30047,0 -6.6988,-2.72914 -2.39834,-2.72914 -2.39834,-7.41555 0,-4.76911 2.50861,-7.69122 2.5086,-2.92211 6.8642,-2.92211 3.91453,0 5.9545,1.98483 2.03996,1.95726 2.37077,5.07235 h -4.05237 q -0.4135,-1.40593 -1.51619,-2.28807 -1.07511,-0.88215 -2.78427,-0.88215 -1.79187,0 -3.00482,0.96485 -1.18538,0.96485 -1.68159,2.39834 -0.46864,1.43349 -0.46864,3.22535 0,1.32322 0.27567,2.4259 0.27567,1.10269 0.85458,2.0124 0.57891,0.90971 1.59889,1.43349 1.01998,0.52377 2.39834,0.52377 3.55615,0 4.30047,-3.33562 h 4.07993 q -0.38594,3.30806 -2.61888,5.26532 -2.23293,1.95726 -5.98206,1.95726 z"
           style="font-style:normal;font-variant:normal;font-weight:bold;font-stretch:normal;font-size:medium;line-height:1.25;font-family:'F37 Bolton';-inkscape-font-specification:'F37 Bolton Bold';font-variant-ligatures:normal;font-variant-caps:normal;font-variant-numeric:normal;font-feature-settings:normal;text-align:start;letter-spacing:-1.23825002px;word-spacing:-1.99538743px;writing-mode:lr-tb;text-anchor:start;fill:#002023;fill-opacity:1;stroke:none;stroke-width:0.26819721px;stroke-linecap:butt;stroke-linejoin:miter;stroke-opacity:1"
           id="path1726" />
        <path
           d="m -327.12576,125.34119 v -19.76561 h 4.21777 v 8.13229 h 0.0827 q 0.38594,-0.63404 0.66161,-0.88215 l 6.83664,-7.25014 h 5.07235 l -7.63609,8.10472 7.77392,11.66089 h -5.15504 l -5.70639,-8.60094 -1.9297,2.03997 v 6.56097 z"
           style="font-style:normal;font-variant:normal;font-weight:bold;font-stretch:normal;font-size:medium;line-height:1.25;font-family:'F37 Bolton';-inkscape-font-specification:'F37 Bolton Bold';font-variant-ligatures:normal;font-variant-caps:normal;font-variant-numeric:normal;font-feature-settings:normal;text-align:start;letter-spacing:-1.23825002px;word-spacing:-1.99538743px;writing-mode:lr-tb;text-anchor:start;fill:#002023;fill-opacity:1;stroke:none;stroke-width:0.26819721px;stroke-linecap:butt;stroke-linejoin:miter;stroke-opacity:1"
           id="path1728" />
      </g>
      <path
         class="cls-1"
         d="m -225.43553,77.865006 v 65.714374 c 0,5.99803 -2.75166,13.00156 -10.50394,13.00156 -7.75227,0 -10.69703,-7.00353 -10.69703,-13.00156 V 77.865006 h -36.82463 v 65.714374 c 0,5.99803 -2.79929,13.00156 -10.69176,13.00156 -7.89248,0 -10.51184,-7.00353 -10.51184,-13.00156 V 77.865006 h -36.82198 v 58.340454 c -0.17494,11.23149 -8.2629,20.60835 -18.04453,20.93374 h -38.26656 c -10.24733,-0.004 -18.58169,-9.4826 -18.58169,-21.1375 0,-11.65481 8.33709,-21.31473 18.58169,-21.31473 h 35.98323 V 77.865006 h -35.98323 c -30.54344,0 -55.39567,26.079924 -55.39567,58.134064 0,32.05423 24.85223,57.94094 55.39567,57.94094 h 36.94365 c 12.36917,0 24.82577,-5.01917 34.32689,-13.21322 9.03555,8.99581 18.90448,13.21322 30.77359,13.21322 11.86922,0 21.70113,-4.19369 30.70486,-13.13648 9.00107,8.94279 18.85418,13.13648 30.70212,13.13648 25.64603,0 45.73577,-21.10314 45.73577,-48.04558 V 77.865006 Z"
         id="path1"
         style="fill:#ff4500;fill-opacity:1;stroke-width:0.26458254" />
    </g>
  </g>
</svg>
