<svg xmlns="http://www.w3.org/2000/svg" viewBox="0 0 113 60"><defs><style>.a{fill:none;}.b{fill:#203c64;}</style></defs><title>klew_logo_w</title><rect class="a" width="113" height="60"/><path class="b" d="M5.89,30A10.88,10.88,0,0,0,15.12,36c4.19,0,7.48-2.72,9.23-5.95a10.64,10.64,0,0,0-9.23-5.84A10.82,10.82,0,0,0,5.89,30m14.54.07a5.31,5.31,0,1,1-5.31-5.32,5.31,5.31,0,0,1,5.31,5.32"/><path class="b" d="M0,48H112.66V12H0Zm15.29-5.62A12.27,12.27,0,1,1,27.56,30.11,12.27,12.27,0,0,1,15.29,42.38m26.64-.07-3.7-8.54-1.32,2v6.49H30.6V17.8h6.31v9.44H37l4.68-9.44h6.72L42.27,28.51l6.86,13.8Zm22.62,0H50.45V17.8h6.31V37.08h7.79Zm16.44,0H66.31V17.8H80.64V23h-8v4.21h7.5v5h-7.5v4.83H81Zm23.48,0H97.55L95.44,25.82h-.07l-2.1,16.49H86.35L82.21,17.8h6.11l1.9,17h.07L92.56,17.8h5.7l2.48,17h.06l1.7-16.95h6.11Z"/></svg>