<svg xmlns="http://www.w3.org/2000/svg" width="217.999" height="99" viewBox="0 0 217.999 99">
  <g id="logo_Vegas_34" data-name="logo Vegas 34" transform="translate(-0.001 0)">
    <path id="Path_1739" data-name="Path 1739" d="M158.739,2.5a10.275,10.275,0,0,0-8.2-2.393L7.5,20.633A8.722,8.722,0,0,0,0,29.251v40.5a8.722,8.722,0,0,0,7.5,8.619L150.537,98.893a10.28,10.28,0,0,0,8.2-2.393,10.17,10.17,0,0,0,3.552-7.737V10.236A10.168,10.168,0,0,0,158.739,2.5" fill="#0056c0"/>
    <path id="Path_1740" data-name="Path 1740" d="M238.448,71.759l5.282-1.551c.606,3.618,2.987,5.471,6.017,5.471,3.161,0,5.239-1.9,5.239-4.695,0-2.757-1.992-4.523-5.2-4.523h-2.251V61.679h1.645c2.944,0,4.806-1.723,4.806-4.135,0-2.369-1.819-4.049-4.5-4.049s-4.589,1.81-5.325,4.954L239.1,57.242c1.212-5.6,5.108-8.744,10.39-8.744,6.1,0,9.958,3.446,9.958,8.313a7.447,7.447,0,0,1-4.026,6.849,7.632,7.632,0,0,1,5.282,7.625c0,5.557-4.459,9.434-10.954,9.434-5.5,0-10.13-2.8-11.3-8.96" transform="translate(-68.846 -14.176)" fill="#0056c0"/>
    <path id="Path_1741" data-name="Path 1741" d="M288.8,75.907H274.172V71.859L288.5,48.985h5.542v22.1h3.118v4.824h-3.118v4.7H288.8Zm0-4.824V57.471l-8.442,13.612Z" transform="translate(-79.161 -14.318)" fill="#0056c0"/>
    <path id="Path_1742" data-name="Path 1742" d="M24.61,50.472h7.451l6.118,20.54,5.993-20.54h7.159l-9.947,30.48H34.558Z" transform="translate(-7.105 -14.753)" fill="#fff"/>
    <path id="Path_1743" data-name="Path 1743" d="M66.98,50.472H84.337V56.85H73.89v5.507H84.212v6.378H73.89v5.839H84.5v6.378H66.98Z" transform="translate(-19.339 -14.753)" fill="#fff"/>
    <path id="Path_1744" data-name="Path 1744" d="M97,65.455c0-9.318,6.7-15.861,15.941-15.861a15.514,15.514,0,0,1,12.32,5.466l-5.036,4.721a9.1,9.1,0,0,0-7.284-3.686c-5.327,0-8.865,3.893-8.865,9.4,0,5.674,3.788,9.4,8.865,9.4,4.287,0,7.2-2.526,7.783-6.046h-8.949V62.8h16.316v2.65c0,9.442-5.952,15.862-15.15,15.862C103.829,81.317,97,74.773,97,65.455" transform="translate(-28.007 -14.496)" fill="#fff"/>
    <path id="Path_1745" data-name="Path 1745" d="M152.155,50.472H158.9L169.3,80.952h-7.2l-1.415-4.6H150.364l-1.415,4.6h-7.118Zm6.7,20-3.371-10.809-3.329,10.809Z" transform="translate(-40.951 -14.753)" fill="#fff"/>
    <path id="Path_1746" data-name="Path 1746" d="M183.413,80.781V74.32c2.747.248,4.2.331,5.244.331,3.081,0,4.412-.786,4.412-2.609,0-1.16-.541-2.112-2.622-3.479l-3.164-2.112c-3.08-2.071-4.662-4.721-4.662-7.993,0-5.342,3.913-8.572,10.447-8.572a32.912,32.912,0,0,1,4.7.414V56.43a33.482,33.482,0,0,0-4.495-.415q-3.747,0-3.746,2.237c0,1.035.583,1.863,2.29,2.982l2.664,1.739c3.871,2.526,5.577,5.3,5.577,8.987,0,5.88-4.079,9.235-11.238,9.235a42.984,42.984,0,0,1-5.411-.414" transform="translate(-52.728 -14.582)" fill="#fff"/>
  </g>
</svg>
