<svg width="151" height="22" viewBox="0 0 151 22" fill="none" xmlns="http://www.w3.org/2000/svg">
<g clip-path="url(#clip0_6421_17733)">
<path fill-rule="evenodd" clip-rule="evenodd" d="M62.766 0.916016V2.01169V21.6031H63.8617V0.916016H62.766Z" fill="#6D6D6D"/>
<path fill-rule="evenodd" clip-rule="evenodd" d="M96.1725 10.3817H93.6323V2.23111V0.915039H96.1725V10.3817Z" fill="#6D6D6D"/>
<path fill-rule="evenodd" clip-rule="evenodd" d="M112.468 10.3817H109.928V2.23111V0.915039H112.468V10.3817Z" fill="#6D6D6D"/>
<path fill-rule="evenodd" clip-rule="evenodd" d="M126.662 10.3817H124.122V2.23111V0.915039H126.662V10.3817Z" fill="#6D6D6D"/>
<path fill-rule="evenodd" clip-rule="evenodd" d="M84.6216 10.3824V5.148C84.6216 3.84804 85.6002 3.07372 86.7014 3.07372C87.8725 3.07372 88.7953 3.97611 88.7953 5.148V10.3824H91.3312V5.24425C91.3312 2.84468 89.6623 0.72168 86.7576 0.72168C83.6351 0.72168 82.0771 2.83132 82.0771 5.24425V10.3824H84.6216Z" fill="#6D6D6D"/>
<path fill-rule="evenodd" clip-rule="evenodd" d="M142.925 10.3824V5.148C142.925 3.84804 143.906 3.07372 145.005 3.07372C146.176 3.07372 147.099 3.97611 147.099 5.148V10.3824H149.635V5.24425C149.635 2.84468 147.966 0.72168 145.061 0.72168C141.939 0.72168 140.381 2.83132 140.381 5.24425V10.3824H142.925Z" fill="#6D6D6D"/>
<path fill-rule="evenodd" clip-rule="evenodd" d="M103.047 6.69612L105.642 0.916016H108.284L103.929 10.3815H102.173L97.8166 0.916016H100.451L103.047 6.69612Z" fill="#6D6D6D"/>
<path fill-rule="evenodd" clip-rule="evenodd" d="M115.736 7.4971C116.381 8.08088 117.378 8.43288 118.33 8.43288C119.015 8.43288 119.542 8.10092 119.542 7.6342C119.542 6.21088 114.955 6.71806 114.955 3.6687C114.955 1.85174 116.712 0.720703 118.585 0.720703C119.818 0.720703 121.161 1.18742 121.788 1.67535L120.6 3.51156C120.11 3.16113 119.466 2.86963 118.781 2.86963C118.082 2.86963 117.494 3.13913 117.494 3.62785C117.494 4.85827 122.081 4.36877 122.081 7.65345C122.081 9.46649 120.308 10.581 118.315 10.581C117.007 10.581 115.618 10.1292 114.51 9.30935L115.736 7.4971Z" fill="#6D6D6D"/>
<path fill-rule="evenodd" clip-rule="evenodd" d="M133.528 8.23547C135.012 8.23547 136.025 7.08164 136.025 5.66029C136.025 4.23579 135.012 3.06468 133.528 3.06468C132.046 3.06468 131.026 4.23579 131.026 5.66029C131.026 7.08164 132.046 8.23547 133.528 8.23547ZM133.528 0.72168C136.398 0.72168 138.559 2.92757 138.559 5.66029C138.559 8.39575 136.398 10.582 133.528 10.582C130.657 10.582 128.483 8.39575 128.483 5.66029C128.483 2.92757 130.657 0.72168 133.528 0.72168Z" fill="#6D6D6D"/>
<path fill-rule="evenodd" clip-rule="evenodd" d="M77.4604 0.916016V6.15477C77.4604 7.45002 76.472 8.22905 75.3676 8.22905C74.2005 8.22905 73.2769 7.31998 73.2769 6.15477V0.916016H70.7378V6.05616C70.7378 8.44944 72.4055 10.5811 75.3115 10.5811C78.4343 10.5811 79.9951 8.47144 79.9951 6.05616V0.916016H77.4604Z" fill="#6D6D6D"/>
<path fill-rule="evenodd" clip-rule="evenodd" d="M8.44034 0.393555V5.08073V12.613C9.04887 12.613 12.4451 12.6986 15.3224 12.4429C16.0472 12.369 16.7559 12.2763 17.4309 12.1596C19.0872 11.8461 20.483 11.3539 20.9674 10.9492V1.61063C19.7059 0.67484 14.3957 0.393555 8.44034 0.393555Z" fill="#00C56E"/>
<path fill-rule="evenodd" clip-rule="evenodd" d="M20.9672 11.1052V10.9492C20.4832 11.3539 19.087 11.8461 17.4307 12.1596C16.7558 12.2763 16.0475 12.369 15.3223 12.4425C12.4454 12.6986 9.04872 12.613 8.44019 12.613C8.44019 12.6841 8.44058 12.7528 8.44058 12.8212C8.44176 13.306 8.44804 13.7232 8.45944 14.1946C8.46297 14.3203 8.46651 14.45 8.47004 14.5851C8.48733 15.1787 8.51404 15.766 8.55136 16.3365C8.6319 17.5465 8.76429 18.6795 8.97408 19.6251C9.20861 20.683 9.54097 21.5065 10.0061 21.9433C10.0136 21.95 10.021 21.9579 10.0285 21.9649C10.1794 21.9708 10.331 21.9744 10.4834 21.9744C14.0372 21.9744 17.1777 20.2061 19.074 17.5017C19.7576 16.5262 20.2793 15.251 20.5999 13.9188C20.8388 13.0255 20.9668 12.0869 20.9668 11.1181L20.9656 11.1189V11.1064L20.9672 11.1052Z" fill="#1717EF"/>
<path fill-rule="evenodd" clip-rule="evenodd" d="M10.006 21.9438C9.54084 21.5069 9.20887 20.6835 8.97394 19.6255C8.76416 18.6799 8.63177 17.5473 8.55162 16.3373C8.51391 15.7665 8.48759 15.1792 8.4703 14.586C8.46637 14.4504 8.46284 14.3208 8.4593 14.1951C8.44791 13.7237 8.44202 13.3064 8.44084 12.8217C8.44084 12.7533 8.44044 12.6845 8.44044 12.6134C5.67944 12.6134 3.28734 12.4056 2.14334 12.1974C0.93923 11.9786 0.138194 11.5362 -9.15527e-05 11.3135C-9.15527e-05 12.3447 0.148801 13.5186 0.426158 14.4599C0.752623 15.5677 1.25666 16.599 1.90605 17.5206C3.72184 20.0993 6.67062 21.8216 10.0288 21.9654C10.0209 21.9583 10.0138 21.9509 10.006 21.9438Z" fill="#FF161F"/>
<path fill-rule="evenodd" clip-rule="evenodd" d="M0.408209 1.11621C0.182709 1.11621 3.05176e-05 1.29928 3.05176e-05 1.524V11.3128C0.138316 11.5352 0.939352 11.9775 2.14346 12.1967C2.32889 12.2305 2.54732 12.2643 2.79442 12.2969C4.07278 12.467 6.12703 12.6128 8.44017 12.6128V5.08053C5.82925 1.71807 1.78989 1.11621 0.408209 1.11621Z" fill="#E621BB"/>
<path fill-rule="evenodd" clip-rule="evenodd" d="M26.0659 16.1626C26.9255 17.3785 28.3488 18.2377 29.9198 18.2377C31.8763 18.2377 33.8032 16.6961 33.8032 14.4729C33.8032 12.3087 32.0248 10.6787 29.7124 10.6787C28.8823 10.6787 27.9929 10.8861 27.2221 11.2715V8.90023L31.1055 4.30498H24.1688V0.748047H36.7677V3.11933L33.0026 7.74365C35.8484 8.84051 37.8053 11.3308 37.8053 14.4729C37.8053 18.8603 34.3666 21.795 30.0683 21.795C27.4888 21.795 25.0284 20.6392 23.1906 18.5637L26.0659 16.1626Z" fill="#6D6D6D"/>
<path fill-rule="evenodd" clip-rule="evenodd" d="M48.9222 13.1991V8.33784L45.0388 13.1991H48.9222ZM52.9242 0.749023V13.1991H56.3331V16.7564H52.9242V21.4997H48.9222V16.7564H39.2882V14.3851L50.1079 0.749023H52.9242Z" fill="#6D6D6D"/>
<path fill-rule="evenodd" clip-rule="evenodd" d="M71.6872 20.6061H74.6309V21.5081H70.7377V14.8613H71.6872V20.6061Z" fill="black"/>
<path fill-rule="evenodd" clip-rule="evenodd" d="M78.1452 20.7007C79.5029 20.7007 80.5189 19.6282 80.5189 18.1849C80.5189 16.7505 79.5029 15.6682 78.1452 15.6682C76.7871 15.6682 75.7712 16.7505 75.7712 18.1849C75.7712 19.6282 76.7871 20.7007 78.1452 20.7007ZM78.1452 14.7666C80.025 14.7666 81.4684 16.2473 81.4684 18.1849C81.4684 20.1212 80.025 21.6031 78.1452 21.6031C76.265 21.6031 74.8217 20.1212 74.8217 18.1849C74.8217 16.2473 76.265 14.7666 78.1452 14.7666Z" fill="black"/>
<path fill-rule="evenodd" clip-rule="evenodd" d="M82.6949 19.8466C83.0838 20.3212 83.635 20.7011 84.3186 20.7011C84.9358 20.7011 85.4767 20.3024 85.4767 19.7044C85.4767 18.6881 84.0715 18.5742 83.1887 17.9947C82.7138 17.6816 82.3433 17.2259 82.3433 16.5325C82.3433 15.5641 83.1978 14.7666 84.3563 14.7666C85.2017 14.7666 85.7902 15.1371 86.1414 15.4313L85.5816 16.1243C85.2206 15.8206 84.8124 15.6686 84.3944 15.6686C83.8436 15.6686 83.2928 15.9821 83.2928 16.5612C83.2928 17.4062 84.7079 17.5865 85.5624 18.1562C86.0087 18.4504 86.4263 18.916 86.4263 19.6754C86.4263 20.8437 85.5243 21.6035 84.3661 21.6035C83.4547 21.6035 82.6281 21.2044 82.0396 20.4925L82.6949 19.8466Z" fill="black"/>
<path fill-rule="evenodd" clip-rule="evenodd" d="M92.0302 14.3864L92.6474 12.9619H93.6441L92.6474 14.3864H92.0302ZM91.2893 18.8964H93.3404L92.3151 16.4277L91.2893 18.8964ZM93.7109 19.7984H90.9094L90.2168 21.5077H89.2292L91.9827 14.861H92.6474L95.401 21.5077H94.4133L93.7109 19.7984Z" fill="black"/>
<path fill-rule="evenodd" clip-rule="evenodd" d="M97.2536 16.6272V21.5081H96.3041V14.8613H96.9684L100.957 19.7418V14.8613H101.906V21.5081H101.242L97.2536 16.6272Z" fill="black"/>
<path fill-rule="evenodd" clip-rule="evenodd" d="M109.124 20.3687C108.554 21.0904 107.567 21.6035 106.541 21.6035C104.557 21.6035 103.095 20.1503 103.095 18.1849C103.095 16.2669 104.538 14.7666 106.456 14.7666C107.405 14.7666 108.307 15.1555 108.887 15.792L108.25 16.4186C107.861 15.9911 107.168 15.6686 106.456 15.6686C105.098 15.6686 104.044 16.7509 104.044 18.1849C104.044 19.6852 105.126 20.7011 106.541 20.7011C107.244 20.7011 107.823 20.4351 108.175 20.0839V18.3746H106.276V17.4726H109.124V20.3687Z" fill="black"/>
<path fill-rule="evenodd" clip-rule="evenodd" d="M113.731 17.4723V18.3743H111.546V20.6061H114.49V21.5077H110.597V14.8613H114.395V15.7629H111.546V17.4723H113.731Z" fill="black"/>
<path fill-rule="evenodd" clip-rule="evenodd" d="M116.675 20.6061H119.618V21.5081H115.726V14.8613H116.675V20.6061Z" fill="black"/>
<path fill-rule="evenodd" clip-rule="evenodd" d="M123.798 17.4723V18.3743H121.613V20.6061H124.557V21.5077H120.664V14.8613H124.462V15.7629H121.613V17.4723H123.798Z" fill="black"/>
<path fill-rule="evenodd" clip-rule="evenodd" d="M125.878 19.8466C126.267 20.3212 126.818 20.7011 127.502 20.7011C128.119 20.7011 128.66 20.3024 128.66 19.7044C128.66 18.6881 127.255 18.5742 126.372 17.9947C125.897 17.6816 125.526 17.2259 125.526 16.5325C125.526 15.5641 126.381 14.7666 127.539 14.7666C128.385 14.7666 128.973 15.1371 129.325 15.4313L128.765 16.1243C128.404 15.8206 127.996 15.6686 127.578 15.6686C127.027 15.6686 126.476 15.9821 126.476 16.5612C126.476 17.4062 127.891 17.5865 128.746 18.1562C129.192 18.4504 129.609 18.916 129.609 19.6754C129.609 20.8437 128.707 21.6035 127.549 21.6035C126.638 21.6035 125.811 21.2044 125.223 20.4925L125.878 19.8466Z" fill="black"/>
</g>
<defs>
<clipPath id="clip0_6421_17733">
<rect width="150.071" height="22" fill="white"/>
</clipPath>
</defs>
</svg>
