<?xml version="1.0" encoding="UTF-8" standalone="no"?>
<!-- Created with Inkscape (http://www.inkscape.org/) -->

<svg
   width="271.1041mm"
   height="209.88721mm"
   viewBox="0 0 271.10408 209.88719"
   version="1.1"
   id="svg5"
   inkscape:version="1.1 (c68e22c387, 2021-05-23)"
   sodipodi:docname="KMID_(2022,_with_call_letters).svg"
   xmlns:inkscape="http://www.inkscape.org/namespaces/inkscape"
   xmlns:sodipodi="http://sodipodi.sourceforge.net/DTD/sodipodi-0.dtd"
   xmlns:xlink="http://www.w3.org/1999/xlink"
   xmlns="http://www.w3.org/2000/svg"
   xmlns:svg="http://www.w3.org/2000/svg">
  <sodipodi:namedview
     id="namedview7"
     pagecolor="#505050"
     bordercolor="#eeeeee"
     borderopacity="1"
     inkscape:pageshadow="0"
     inkscape:pageopacity="0"
     inkscape:pagecheckerboard="0"
     inkscape:document-units="mm"
     showgrid="false"
     inkscape:zoom="0.17512004"
     inkscape:cx="1681.7036"
     inkscape:cy="259.82178"
     inkscape:window-width="1600"
     inkscape:window-height="847"
     inkscape:window-x="-8"
     inkscape:window-y="-8"
     inkscape:window-maximized="1"
     inkscape:current-layer="svg5"
     inkscape:snap-bbox="true"
     inkscape:bbox-paths="true"
     inkscape:bbox-nodes="true"
     inkscape:snap-bbox-edge-midpoints="true"
     inkscape:snap-bbox-midpoints="true"
     inkscape:object-paths="true"
     inkscape:snap-intersection-paths="true"
     inkscape:snap-midpoints="true"
     inkscape:snap-smooth-nodes="true"
     inkscape:snap-page="true"
     inkscape:snap-object-midpoints="true"
     inkscape:snap-center="true"
     inkscape:snap-text-baseline="true" />
  <defs
     id="defs2">
    <linearGradient
       inkscape:collect="always"
       id="linearGradient27954">
      <stop
         style="stop-color:#5b9aea;stop-opacity:1;"
         offset="0"
         id="stop27950" />
      <stop
         style="stop-color:#2c2e7d;stop-opacity:1"
         offset="0.58848143"
         id="stop30114" />
      <stop
         style="stop-color:#20235c;stop-opacity:1"
         offset="1"
         id="stop27952" />
    </linearGradient>
    <linearGradient
       inkscape:collect="always"
       id="linearGradient15879">
      <stop
         style="stop-color:#ffffff;stop-opacity:1;"
         offset="0"
         id="stop15875" />
      <stop
         style="stop-color:#ffffff;stop-opacity:1"
         offset="0.17503233"
         id="stop20758" />
      <stop
         style="stop-color:#d4d5d7;stop-opacity:1"
         offset="0.58182102"
         id="stop17727" />
      <stop
         style="stop-color:#ffffff;stop-opacity:1"
         offset="0.68603885"
         id="stop20628" />
      <stop
         style="stop-color:#ffffff;stop-opacity:1"
         offset="1"
         id="stop15877" />
    </linearGradient>
    <linearGradient
       inkscape:collect="always"
       id="linearGradient13895">
      <stop
         style="stop-color:#c2c2c2;stop-opacity:1;"
         offset="0"
         id="stop13891" />
      <stop
         style="stop-color:#ffffff;stop-opacity:1"
         offset="0.51764184"
         id="stop14909" />
      <stop
         style="stop-color:#c2c2c2;stop-opacity:1"
         offset="1"
         id="stop13893" />
    </linearGradient>
    <linearGradient
       inkscape:collect="always"
       xlink:href="#linearGradient13895"
       id="linearGradient13897"
       x1="17.007812"
       y1="369.41895"
       x2="705.69336"
       y2="369.41895"
       gradientUnits="userSpaceOnUse"
       gradientTransform="matrix(0.28407839,0,0,0.28407839,65.800005,0)" />
    <linearGradient
       inkscape:collect="always"
       xlink:href="#linearGradient15879"
       id="linearGradient15881"
       x1="442.14355"
       y1="662.20587"
       x2="274.49219"
       y2="37.898479"
       gradientUnits="userSpaceOnUse"
       gradientTransform="matrix(0.28407839,0,0,0.28407839,65.800005,0)" />
    <linearGradient
       inkscape:collect="always"
       xlink:href="#linearGradient27954"
       id="linearGradient27956"
       x1="35.665215"
       y1="155.54976"
       x2="138.30226"
       y2="52.91272"
       gradientUnits="userSpaceOnUse"
       gradientTransform="matrix(1.0736821,0,0,1.0736821,65.800005,0)" />
  </defs>
  <g
     id="g36290"
     style="stroke:none">
    <path
       id="rect406"
       style="fill:url(#linearGradient27956);fill-opacity:1;stroke:none;stroke-width:15.013;stroke-linecap:round;stroke-linejoin:round"
       d="M 82.731639,0 H 254.17245 c 9.38013,0 16.93163,7.5515081 16.93163,16.931634 V 192.95556 c 0,9.38012 -7.5515,16.93164 -16.93163,16.93164 H 82.731639 c -9.380126,0 -16.931634,-7.55152 -16.931634,-16.93164 V 16.931634 C 65.800005,7.5515081 73.351513,0 82.731639,0 Z" />
    <path
       id="rect7603"
       style="color:#000000;fill:#cccccc;stroke:none;stroke-width:1.07368;stroke-linecap:round;-inkscape-stroke:none"
       d="m 82.73152,4.8315521 c -6.787001,0 -12.099963,5.3129619 -12.099963,12.0999639 V 192.95636 c 0,6.78699 5.312964,12.09998 12.099963,12.09997 h 171.44075 c 6.787,1e-5 12.09996,-5.31298 12.09996,-12.09997 V 16.931516 c 0,-6.787002 -5.31296,-12.0999639 -12.09996,-12.0999639 z m 3.137069,7.0625659 h 54.549151 c -10.70595,3.6786 -19.1952,9.472906 -26.73056,16.544237 C 100.64035,40.681772 93.274778,59.480526 90.732877,84.12937 h 54.243983 c 0,-8.416279 2.13766,-16.270191 5.54231,-20.890857 3.54327,-4.808807 9.6797,-9.760203 19.01161,-9.760203 9.89361,0 15.11102,3.801747 18.20266,7.239007 3.00938,3.345813 4.11969,7.316877 4.11969,12.279732 0,4.30114 -1.51967,10.538075 -3.5532,14.839212 -2.03354,4.301146 -4.91297,8.767951 -8.64109,13.399949 -3.55866,4.46657 -7.91157,8.98288 -12.71084,13.89543 C 141.32381,141.36059 87.943984,196 85.996202,197.99375 h -0.127613 c -4.714872,0 -8.258247,-3.54559 -8.258247,-8.26047 V 20.154585 c 0,-4.714872 3.543375,-8.260467 8.258247,-8.260467 z m 115.715331,0 h 49.45128 c 4.71488,0 8.25825,3.545595 8.25825,8.260467 V 152.59504 h -75.65473 c 0,0 20.86649,-18.66237 31.4306,-27.81916 10.5546,-9.14857 23.07172,-20.60706 28.6381,-34.706941 2.60294,-6.593366 3.81286,-13.812602 3.81286,-21.587739 0,-9.42942 -2.94093,-17.176653 -6.46722,-24.471242 -3.5911,-7.42869 -11.10741,-15.859502 -17.67666,-20.874769 -6.32544,-4.829121 -13.12171,-8.735464 -21.79248,-11.241071 z" />
    <path
       id="path11135"
       style="color:#000000;fill:url(#linearGradient13897);fill-opacity:1;stroke:none;stroke-width:1.07368;stroke-linecap:round;-inkscape-stroke:none"
       d="m 82.73152,4.8315521 c -6.787001,0 -12.099963,5.3129619 -12.099963,12.0999639 V 192.95636 c 0,6.78699 5.312964,12.09998 12.099963,12.09997 h 171.44075 c 6.787,1e-5 12.09996,-5.31298 12.09996,-12.09997 V 16.931516 c 0,-6.787002 -5.31296,-12.0999639 -12.09996,-12.0999639 z m 3.137069,7.0625659 h 54.549151 c -10.70595,3.6786 -19.1952,9.472906 -26.73056,16.544237 C 100.64035,40.681772 93.274778,59.480526 90.732877,84.12937 h 54.243983 c 0,-8.416279 2.13766,-16.270191 5.54231,-20.890857 3.54327,-4.808807 9.6797,-9.760203 19.01161,-9.760203 9.89361,0 15.11102,3.801747 18.20266,7.239007 3.00938,3.345813 4.11969,7.316877 4.11969,12.279732 0,4.30114 -1.51967,10.538075 -3.5532,14.839212 -2.03354,4.301146 -4.91297,8.767951 -8.64109,13.399949 -3.55866,4.46657 -7.91157,8.98288 -12.71084,13.89543 C 141.32381,141.36059 87.943984,196 85.996202,197.99375 h -0.127613 c -4.714872,0 -8.258247,-3.54559 -8.258247,-8.26047 V 20.154585 c 0,-4.714872 3.543375,-8.260467 8.258247,-8.260467 z m 115.715331,0 h 49.45128 c 4.71488,0 8.25825,3.545595 8.25825,8.260467 V 152.59504 h -75.65473 c 0,0 20.86649,-18.66237 31.4306,-27.81916 10.5546,-9.14857 23.07172,-20.60706 28.6381,-34.706941 2.60294,-6.593366 3.81286,-13.812602 3.81286,-21.587739 0,-9.42942 -2.94093,-17.176653 -6.46722,-24.471242 -3.5911,-7.42869 -11.10741,-15.859502 -17.67666,-20.874769 -6.32544,-4.829121 -13.12171,-8.735464 -21.79248,-11.241071 z" />
    <path
       id="path11597"
       style="color:#000000;fill:url(#linearGradient15881);fill-opacity:1;stroke:none;stroke-width:1.07368;stroke-linecap:round;-inkscape-stroke:none"
       d="m 253.74227,5.9478911 c -0.32028,-0.0013 -0.64056,0.0064 -0.95987,0.02275 v -5.68e-4 c -56.82065,1.32e-4 -113.64154,-0.0077 -170.462016,0.0067 -4.31955,0.07221 -8.434456,2.968746 -9.865621,7.0603459 -1.059025,2.759459 -0.572135,5.765221 -0.686338,8.645527 0.0062,57.227303 -0.01294,114.455024 0.0089,171.682104 0.06803,3.54517 2.042604,7.0341 5.000778,8.85414 2.163346,1.42095 4.804877,1.83416 7.349974,1.69893 56.826503,-0.001 113.653423,0.01 170.479763,-0.008 4.30978,-0.0806 8.41323,-2.97397 9.84121,-7.05868 1.063,-2.75836 0.57048,-5.76569 0.68689,-8.64552 -0.006,-57.22663 0.01,-114.453426 -0.01,-171.679892 -0.0668,-3.545869 -2.03995,-7.0365709 -5.00022,-8.8552559 -1.9001,-1.247376 -4.14145,-1.713464 -6.38344,-1.72278 z M 226.6211,10.75614 c 8.32644,-0.0019 16.65249,-7.39e-4 24.97838,0.0172 3.63119,0.127566 7.07857,2.568283 8.2538,6.031118 0.91995,2.446992 0.46113,5.102224 0.57592,7.650142 0.002,43.092257 5.7e-4,86.18449 0.001,129.27675 h -79.77165 c 12.3597,-11.03082 24.72872,-22.04711 37.21759,-32.92924 8.16293,-7.27614 16.11161,-15.09444 21.61881,-24.637698 3.21686,-5.529729 5.26666,-11.711104 6.19479,-17.980714 0.57942,-3.969646 0.81907,-8.169419 0.61977,-12.228131 -0.36196,-7.012699 -2.67174,-13.845091 -5.67492,-20.182883 -2.58082,-5.673398 -6.51112,-10.753569 -10.81828,-15.278645 -5.41229,-5.694809 -11.88949,-10.363758 -18.93504,-13.825517 -3.1588,-1.549848 -9.15812,-4.220705 -12.50833,-5.236585 -5.7e-4,-3.13e-4 -0.001,-0.673814 -0.002,-0.674132 h 3.27023 c 8.32624,0.0052 16.65305,2.84e-4 24.97949,-0.0017 z m -140.760832,0.0017 c 18.215282,0.0056 39.703072,-0.01124 57.917032,0.0084 0,0 -3.16335,1.90579 -4.66011,2.80361 -9.3935,5.634639 -19.44256,10.244973 -27.0396,18.0817 -8.52527,9.037763 -13.707477,20.740954 -16.740645,32.619633 -1.579533,6.151038 -2.639156,12.429326 -3.338477,18.72143 h 51.863722 c 0.17485,-6.377072 1.36318,-12.886608 4.4992,-18.508372 3.67487,-6.250034 10.16833,-10.885236 17.40202,-11.871369 4.76003,-0.609841 9.70452,-0.195312 14.2239,1.46034 4.44104,1.672517 8.42278,4.804715 10.77445,8.959568 2.34404,4.304603 2.59009,9.441789 1.86149,14.201143 -0.81779,5.317008 -2.63699,10.475138 -5.40582,15.092219 -5.76574,9.964138 -14.08399,18.060538 -22.04603,26.249518 -26.23215,26.85161 -52.46496,53.70273 -78.696924,80.55453 -3.309407,0.19408 -6.738084,-1.33795 -8.511809,-4.1946 -1.302102,-1.93107 -1.599159,-4.31633 -1.488638,-6.59262 0.0063,-56.20645 -0.01277,-112.413154 0.0094,-168.619383 0.07935,-3.657846 2.501122,-7.167444 5.985065,-8.369216 1.082445,-0.400907 2.237406,-0.60032 3.391741,-0.596453 z"
       sodipodi:nodetypes="scccccccccccccsscccccccccccccccsccscsccccccccccccccccss" />
    <path
       id="path29836"
       style="clip-rule:nonzero;fill:#07111e;fill-opacity:1;fill-rule:nonzero;stroke:none;stroke-width:0.124245"
       d="M 60.744026,67.50743 C 27.19603,67.50743 0,94.704152 0,128.25266 c 0,33.5475 27.19603,60.74403 60.744026,60.74403 33.548576,0 60.745244,-27.19653 60.745244,-60.74403 0,-33.548508 -27.196668,-60.74523 -60.745244,-60.74523 z" />
    <path
       d="m 41.669839,144.65998 v -16.38785 c 0,-9.20641 -7.463361,-16.66931 -16.669835,-16.66931 -9.205825,4e-5 -16.6693245,7.4629 -16.6693245,16.66931 -6.9e-5,9.20642 7.4630145,16.66936 16.6693245,16.6698 2.716731,-0.005 5.53311,-1.15739 7.516269,-3.07678 v 2.79505 z m -16.669835,-9.05669 c -4.048727,-6e-5 -7.331022,-3.2824 -7.331022,-7.33116 9.3e-5,-4.04875 3.282295,-7.33068 7.331022,-7.33114 4.048844,5e-5 7.3307,3.2822 7.331184,7.33114 8.2e-5,4.0489 -3.282108,7.33116 -7.331184,7.33116 z"
       id="path10064"
       style="fill:#f0f0f0;fill-opacity:1;stroke:none;stroke-width:0.957372" />
    <path
       d="m 44.002394,103.39923 v 24.87336 c 1.5e-4,9.20641 7.463499,16.66934 16.669904,16.66934 9.205873,-7e-5 16.669313,-7.46293 16.669313,-16.66934 7.1e-5,-9.2064 -7.462935,-16.66935 -16.669313,-16.66977 -2.542154,0.004 -5.173057,0.81332 -7.331139,2.2745 v -10.47834 z m 16.669904,17.54222 c 4.048805,4e-5 7.331093,3.2824 7.331093,7.33114 0,4.04877 -3.282288,7.3307 -7.331093,7.33116 -4.048753,-6e-5 -7.33063,-3.2822 -7.331139,-7.33116 0,-4.04889 3.282133,-7.33114 7.331139,-7.33114 z"
       id="path10066"
       style="fill:#f0f0f0;fill-opacity:1;stroke:none;stroke-width:0.957372" />
    <path
       d="m 96.411972,111.60299 a 16.669341,16.669341 0 0 0 -16.669321,16.66934 16.669341,16.669341 0 0 0 16.669321,16.6698 16.669341,16.669341 0 0 0 16.501268,-14.44786 h -9.51402 c -0.94118,2.96253 -3.712868,5.10967 -6.987248,5.10967 -4.048747,-5e-5 -7.330774,-3.28221 -7.33118,-7.33115 -9.1e-5,-4.0489 3.282043,-7.33115 7.33118,-7.33115 3.274151,6e-5 6.046318,2.14693 6.987248,5.10967 h 9.5145 A 16.669341,16.669341 0 0 0 96.411972,111.60347 Z"
       id="path10068"
       style="fill:#f0f0f0;fill-opacity:1;stroke:none;stroke-width:0.957372" />
    <path
       d="m 154.02112,183.59457 -3.82823,3.99114 v 7.20848 h -6.55687 v -28.50813 h 6.55687 v 13.31737 l 12.62503,-13.31737 h 7.33066 l -11.81051,12.70648 12.50285,15.80165 h -7.69719 z"
       style="font-weight:bold;font-size:40.7259px;line-height:1.25;font-family:Montserrat;-inkscape-font-specification:'Montserrat Bold';letter-spacing:1.5875px;fill:#000000;stroke:none;stroke-width:1.01815"
       id="path36138" />
    <path
       d="m 201.30307,194.79419 -0.0407,-17.10487 -8.38954,14.09116 h -2.97299 l -8.34881,-13.72463 v 16.73834 h -6.19036 v -28.50813 h 5.45728 l 10.67018,17.71577 10.50728,-17.71577 h 5.41655 l 0.0814,28.50813 z"
       style="font-weight:bold;font-size:40.7259px;line-height:1.25;font-family:Montserrat;-inkscape-font-specification:'Montserrat Bold';letter-spacing:1.5875px;fill:#000000;stroke:none;stroke-width:1.01815"
       id="path36140" />
    <path
       d="m 215.8414,166.28606 h 6.5976 v 28.50813 h -6.5976 z"
       style="font-weight:bold;font-size:40.7259px;line-height:1.25;font-family:Montserrat;-inkscape-font-specification:'Montserrat Bold';letter-spacing:1.5875px;fill:#000000;stroke:none;stroke-width:1.01815"
       id="path36142" />
    <path
       d="m 230.78697,166.28606 h 12.95083 q 4.64276,0 8.18591,1.79194 3.58388,1.75122 5.53872,4.96856 1.99557,3.21735 1.99557,7.49357 0,4.27622 -1.99557,7.49356 -1.95484,3.21735 -5.53872,5.00929 -3.54315,1.75121 -8.18591,1.75121 h -12.95083 z m 12.62503,23.09159 q 4.27622,0 6.80122,-2.3621 2.56573,-2.40283 2.56573,-6.47542 0,-4.07259 -2.56573,-6.43469 -2.525,-2.40283 -6.80122,-2.40283 h -6.02744 v 17.67504 z"
       style="font-weight:bold;font-size:40.7259px;line-height:1.25;font-family:Montserrat;-inkscape-font-specification:'Montserrat Bold';letter-spacing:1.5875px;fill:#000000;stroke:none;stroke-width:1.01815"
       id="path36144" />
  </g>
</svg>
