<?xml version="1.0" encoding="UTF-8"?><svg id="Layer_2" xmlns="http://www.w3.org/2000/svg" xmlns:xlink="http://www.w3.org/1999/xlink" viewBox="0 0 1898 600.18"><defs><style>.cls-1{fill:url(#linear-gradient);}.cls-1,.cls-2,.cls-3,.cls-4{stroke-width:0px;}.cls-5{fill:url(#linear-gradient-3);filter:url(#drop-shadow-1);stroke:#fff;stroke-miterlimit:10;stroke-width:5.92px;}.cls-2{fill:url(#linear-gradient-2);}.cls-3{fill:#fff;}.cls-4{fill:red;}</style><linearGradient id="linear-gradient" x1="62.02" y1="599.32" x2="1860.35" y2="-7.66" gradientUnits="userSpaceOnUse"><stop offset=".18" stop-color="#be0000"/><stop offset=".29" stop-color="#c60000"/><stop offset=".41" stop-color="red"/><stop offset=".52" stop-color="red"/><stop offset=".59" stop-color="#e40000"/><stop offset=".68" stop-color="#c60000"/><stop offset=".87" stop-color="#be0000"/></linearGradient><linearGradient id="linear-gradient-2" x1="177.18" y1="593.67" x2="1543.35" y2="186.65" gradientUnits="userSpaceOnUse"><stop offset=".15" stop-color="#000"/><stop offset=".57" stop-color="#080808"/><stop offset=".83" stop-color="#000"/></linearGradient><linearGradient id="linear-gradient-3" x1="1478" y1="107.43" x2="1834.87" y2="604.87" gradientUnits="userSpaceOnUse"><stop offset=".2" stop-color="#fff"/><stop offset=".43" stop-color="#e2e2e2"/><stop offset=".91" stop-color="#999"/><stop offset=".95" stop-color="#949494"/></linearGradient><filter id="drop-shadow-1" filterUnits="userSpaceOnUse"><feOffset dx="2.37" dy="7.1"/><feGaussianBlur result="blur" stdDeviation="5.92"/><feFlood flood-color="#000" flood-opacity=".25"/><feComposite in2="blur" operator="in"/><feComposite in="SourceGraphic"/></filter></defs><polygon class="cls-1" points="1312.51 .07 1312.51 0 0 0 0 301.99 0 599.89 1310.35 599.89 1312.51 599.89 1898 599.89 1898 .07 1312.51 .07"/><rect class="cls-2" x="2.96" y="304.95" width="1306.59" height="291.98"/><path class="cls-4" d="m1306.59,307.91v286.06H5.92v-286.06h1300.67m5.92-5.92H0v297.9h1312.51v-297.9h0Z"/><polygon class="cls-5" points="1530.87 303.86 1632.09 173.62 1632.09 278.06 1806.25 278.06 1806.25 27.09 1562.89 27.09 1340.99 303.86 1340.99 454.34 1632.09 454.34 1632.09 574.4 1806.25 574.4 1806.25 454.34 1867.16 454.34 1867.16 303.86 1530.87 303.86"/><g id="First"><path class="cls-3" d="m116.33,92.32v41.34h114.47l-28.88,49.43h-85.59v76.78h-63.41V42.27h227.86l-30.54,50.05H116.33Z"/><path class="cls-3" d="m383.06,42.27v217.6h-63.41l-.34-168.1h0v-49.65"/><path class="cls-3" d="m612.21,259.87l-57.51-68.7h-64.04v68.7h-63.1V42.27h152.63c55.64,0,98.85,24.56,98.85,74.29,0,36.37-23,59.37-57.2,69.32l64.03,73.98h-73.67Zm-36.68-114.7c22.69,0,39.17-6.22,39.17-27.36s-16.48-27.36-39.17-27.36h-85.17v54.71h85.17Z"/><path class="cls-3" d="m975.46,191.79c0,44.76-41.34,75.22-120.3,75.22-55.95,0-102.89-15.23-137.09-42.59l33.26-39.17c25.8,21.76,61.55,33.88,105.07,33.88,37.3,0,55.95-6.84,55.95-21.14s-17.41-18.65-62.17-22.38c-64.66-5.6-123.41-19.89-123.41-68.39s50.36-72.12,119.37-72.12c46.63,0,89.53,11.19,119.37,32.33l-32.02,39.48c-24.25-17.1-53.47-23.94-87.35-24.25-25.49,0-56.26,4.04-56.26,19.58,0,14.61,25.18,16.48,64.04,19.58,71.18,5.9,121.54,19.89,121.54,69.94Z"/><path class="cls-3" d="m1252.56,92.94h-90.46v166.93h-63.41V92.94h-89.84v-50.67h243.71v50.67Z"/></g><g id="Alert"><path class="cls-3" d="m154.63,346.29h54.09l114.27,214.83h-61.32l-24.38-47.84h-112.74l-24.38,47.84h-59.8l114.27-214.83Zm61.7,125.54l-35.42-69.17-35.42,69.17h70.85Z"/><path class="cls-3" d="m341.27,347.81h58.66v170.64h132.93v42.66h-191.59v-213.3Z"/><path class="cls-3" d="m554.19,347.81h201.11v41.75h-142.83v43.27h125.69v41.75h-125.69v44.79h144.74v41.75h-203.02v-213.3Z"/><path class="cls-3" d="m786.54,347.81h121.89c33.9,0,60.18,7.62,77.7,21.64,14.85,11.88,22.85,28.64,22.85,48.76v.61c0,34.43-23.23,56.07-57.13,66.12l65.13,76.18h-68.56l-57.13-68.26h-46.09v68.26h-58.66v-213.3Zm118.08,103.61c28.57,0,44.95-12.19,44.95-30.17v-.61c0-20.11-17.52-30.47-46.09-30.47h-58.28v61.25h59.42Z"/><path class="cls-3" d="m1101.16,391.08h-81.13v-43.27h220.92v43.27h-81.13v170.03h-58.66v-170.03Z"/></g><path class="cls-4" d="m1306.59,5.92v.07h585.49v587.97H5.92V5.92h1300.67m5.92-5.92H0v599.89h1898V.07h-585.49v-.07h0Z"/></svg>