<?xml version="1.0" encoding="UTF-8"?>
<svg width="130px" height="54px" viewBox="0 0 130 54" version="1.1" xmlns="http://www.w3.org/2000/svg" xmlns:xlink="http://www.w3.org/1999/xlink">
    <title>logo/4-color/minneapolis</title>
    <g id="logo/4-color/minneapolis" stroke="none" stroke-width="1" fill="none" fill-rule="evenodd">
        <path d="M41.8515288,30.0050459 C40.1224716,29.9833265 38.7342834,28.5716096 38.7416545,26.8424321 L38.7416545,11.5566092 C38.7183063,9.7964716 40.0932908,8.33409397 41.8515288,8.24907338 C43.6228501,8.33274971 45.0214986,9.7834141 45.0404678,11.5566092 L45.0404678,26.8819644 C45.0116259,28.6204119 43.5901997,30.0124698 41.8515288,30.0050459 L41.8515288,30.0050459 Z M107.132534,7.5111371 C105.602747,7.50527938 104.136832,8.1240097 103.073885,9.22420346 C102.016893,10.2646144 101.435357,11.6946206 101.466238,13.1774335 C101.416981,14.7576344 102.028612,16.2868545 103.154003,17.3972402 C104.279394,18.5076259 105.816686,19.0986762 107.396083,19.028214 C108.979182,19.084288 110.508481,18.4494846 111.586507,17.2887928 C112.640154,16.1836502 113.209328,14.7037979 113.167799,13.1774335 C113.182624,11.6737818 112.554524,10.2353853 111.441555,9.22420346 C110.29643,8.09326811 108.741581,7.4751325 107.132534,7.5111371 L107.132534,7.5111371 Z M116.989255,46.1210173 C116.79397,46.0524885 116.589805,46.0125433 116.383093,46.0024204 C116.154881,45.9890033 115.926078,45.9890033 115.697866,46.0024204 L113.958445,46.0024204 L113.958445,48.1503421 L116.211786,48.1503421 C116.436619,48.138448 116.658545,48.0940627 116.870658,48.0185677 C117.059967,47.9482461 117.22791,47.8302321 117.358223,47.6759545 C117.491327,47.4979726 117.556725,47.2784205 117.542707,47.0566151 C117.554343,46.8595305 117.498578,46.6643515 117.384578,46.5031629 C117.299193,46.3351959 117.160019,46.2006607 116.989255,46.1210173 L116.989255,46.1210173 Z M12.9929494,53.8298159 L7.65608887,47.4387607 L12.2418357,43.314224 L7.4320725,43.314224 L3.95323005,46.9116633 L3.95323005,43.2746917 L-7.10542736e-15,43.2746917 L-7.10542736e-15,53.8166385 L3.95323005,53.8166385 L3.95323005,50.7067642 L5.0337796,49.7184567 L8.15683135,53.8298159 L12.9929494,53.8298159 Z M21.4133295,15.4966618 L10.8713826,15.4966618 L10.8713826,10.5419468 L23.7984449,10.5419468 L23.0868635,0 L-7.10542736e-15,0 L-7.10542736e-15,38.359509 L10.792318,38.359509 L10.792318,25.959544 L21.4133295,25.959544 L21.4133295,15.4966618 Z M41.7988191,37.8982988 C46.7009396,37.8531411 51.383504,35.8587182 54.8126896,32.3553612 C58.2418753,28.8520043 60.1356557,24.12784 60.0759194,19.2258755 C60.2544406,12.5767102 56.8091606,6.35478367 51.0787268,2.97759598 C45.348293,-0.399591704 38.2361678,-0.399591704 32.505734,2.97759598 C26.7753002,6.35478367 23.3300202,12.5767102 23.5085414,19.2258755 C23.4558641,24.1255648 25.3545735,28.8449272 28.7858432,32.3429435 C32.2171129,35.8409598 36.8990243,37.8302273 41.7988191,37.8719439 L41.7988191,37.8982988 Z M50.5749898,43.3010465 L45.0272903,43.3010465 L43.2088045,49.5076177 L41.4034961,43.3010465 L35.8162643,43.3010465 L35.8162643,53.8429933 L39.5323005,53.8429933 L39.5323005,47.0566151 L41.7329319,53.8298159 L44.6451447,53.8298159 L46.8457761,47.0566151 L46.8457761,53.8298159 L50.5354575,53.8298159 L50.5749898,43.3010465 Z M86.022286,50.4695704 C86.0376218,50.0382342 85.9375424,49.6106224 85.7323824,49.2308916 C85.5240335,48.8905488 85.245507,48.5985452 84.9153816,48.3743584 C84.5617196,48.1292851 84.1759369,47.9341766 83.7689449,47.7945514 C83.3381515,47.6431528 82.8979766,47.5199039 82.4512015,47.4255832 C82.0031688,47.3069863 81.555136,47.2147443 81.1334581,47.1356797 C80.7117803,47.0566151 80.3164573,46.9775505 79.973844,46.8853084 C79.6845922,46.8101493 79.4057487,46.6994971 79.1436657,46.5558726 C78.9571239,46.4691417 78.8244137,46.29711 78.787875,46.0946624 C78.7833791,45.9569698 78.8358108,45.8235073 78.9328268,45.7256943 C79.034477,45.6301071 79.1559597,45.5581174 79.2886175,45.5148554 C79.4380329,45.4629428 79.5926962,45.4275912 79.7498276,45.4094359 L80.1846829,45.4094359 C80.386238,45.3893552 80.5892898,45.3893552 80.7908449,45.4094359 C80.9847575,45.4519018 81.1712801,45.522958 81.3442971,45.6202748 C81.4976491,45.7016979 81.628823,45.819302 81.7264427,45.9628881 C81.821459,46.1114788 81.8501192,46.2929933 81.8055073,46.4636306 L85.4951886,46.4636306 C85.4976891,45.8763935 85.3331625,45.3005505 85.020801,44.8032739 C84.7161892,44.3628718 84.3150713,43.9978095 83.8480095,43.7359018 C83.3238307,43.4565052 82.7591533,43.2608689 82.1744754,43.1560948 C81.5272753,43.0328423 80.8698693,42.9710726 80.2110378,42.9716072 C79.5727943,42.9737084 78.9366245,43.044394 78.3134874,43.1824496 C77.739144,43.299978 77.187435,43.5090935 76.6794856,43.801789 C76.2218669,44.0780247 75.8305019,44.4513958 75.5330489,44.895516 C75.2310818,45.3755317 75.0838817,45.9367324 75.111371,46.5031629 C75.0910682,46.974386 75.2303551,47.4386756 75.506694,47.8209062 C75.7780403,48.1688047 76.1191779,48.4560785 76.508179,48.664262 C76.9481198,48.8913897 77.4122598,49.0682049 77.8918095,49.1913593 L79.4072144,49.5735049 C79.9474891,49.6921018 80.3955219,49.8106987 80.7249577,49.9029407 C81.0068513,49.9735954 81.2841064,50.0616129 81.555136,50.1664894 C81.7176171,50.2214805 81.8660574,50.3114443 81.9899913,50.4300381 C82.0718051,50.5300849 82.1140112,50.656703 82.1085882,50.7858288 C82.1175183,50.9582316 82.0610448,51.1276522 81.950459,51.2602164 C81.8369876,51.3887012 81.6978237,51.4919519 81.5419586,51.5632973 C81.3723584,51.6315465 81.1955108,51.6801796 81.0148612,51.7082491 L80.5009413,51.7082491 C80.1263448,51.7082491 79.7536496,51.6550069 79.3940369,51.5501199 C79.0546221,51.4783359 78.7703146,51.2479488 78.6297458,50.9307805 C78.5325799,50.7108503 78.4831752,50.4728093 78.484794,50.2323766 L74.531564,50.2323766 C74.516366,50.7341874 74.6249837,51.2320187 74.8478224,51.6818942 C75.056625,52.0743709 75.3332217,52.4268087 75.6648232,52.7229115 C76.0006172,53.0077098 76.378445,53.2388516 76.7849051,53.408138 C77.2158229,53.5662333 77.6558665,53.6982464 78.1026484,53.803461 C78.4842082,53.8929597 78.8717666,53.9546167 79.2622626,53.9879451 C79.5651305,54.0040183 79.8686376,54.0040183 80.1715055,53.9879451 C80.8782439,53.9859502 81.5835497,53.924236 82.2798949,53.803461 C82.9329873,53.6893545 83.5671338,53.4853633 84.1642679,53.1972991 C84.6823044,52.9280027 85.1327752,52.5451025 85.4820112,52.0772172 C85.8279665,51.6021528 86.0168573,51.0308734 86.022286,50.4432155 L86.022286,50.4695704 Z M89.3166444,38.3199767 L77.7468577,18.4484069 L88.2888045,0 L76.6926631,0 L71.8960773,8.26225081 L67.2049109,0 L55.2134464,0 L65.9266999,18.4484069 L54.5941071,38.2145572 L66.2166034,38.2145572 L71.7511255,28.5159661 L77.3647122,38.1882023 L89.3166444,38.3199767 Z M107.040292,38.3199767 L117.47682,23.5217188 L118.39924,22.1249109 C118.702321,21.6637007 118.992225,21.2024905 119.268951,20.8071675 C119.816044,19.7782472 120.257544,18.6965729 120.586694,17.5786963 C120.998893,16.3324881 121.216678,15.0302236 121.232388,13.7177083 C121.246245,11.9625868 120.951874,10.2186592 120.362678,8.56533178 C119.717773,6.87488594 118.705022,5.34900681 117.397755,4.09818182 C114.651193,1.53920038 111.031364,0.12520488 107.277486,0.144951769 C103.535343,0.0234079452 99.9147815,1.48215471 97.3021691,4.16406899 C94.7699297,6.73538286 93.3744204,10.2146627 93.4280036,13.8231278 C93.3797616,17.0578027 94.6056471,20.1816809 96.8409589,22.5202339 C99.1481985,24.9301097 102.375291,26.239168 105.709372,26.1176732 L106.170582,26.1176732 L97.6184275,38.359509 L107.040292,38.3199767 Z M121.232388,46.872131 C121.223897,46.4616376 121.143621,46.0557984 120.995195,45.6729846 C120.822226,45.2318956 120.551967,44.8355161 120.204549,44.5133704 C119.788471,44.124281 119.300613,43.8199294 118.768208,43.6173049 C118.065556,43.3726347 117.324566,43.256576 116.580754,43.2746917 L109.992038,43.2746917 L109.992038,53.8166385 L113.945268,53.8166385 L113.945268,50.6276996 L116.251318,50.6276996 C116.925798,50.6387788 117.598922,50.5634951 118.254288,50.4036832 C118.815993,50.2707685 119.347856,50.0338883 119.822403,49.7052792 C120.257753,49.4120934 120.611439,49.0130628 120.850243,48.5456651 C121.113844,48.0279278 121.245133,47.452971 121.232388,46.872131 L121.232388,46.872131 Z" id="fts-minneapolis-c-copy" fill="#10144c"></path>
    </g>
</svg>