<?xml version="1.0" encoding="utf-8"?>
<!-- Generator: Adobe Illustrator 25.0.0, SVG Export Plug-In . SVG Version: 6.00 Build 0)  -->
<svg version="1.1" id="Layer_1" xmlns="http://www.w3.org/2000/svg" xmlns:xlink="http://www.w3.org/1999/xlink" x="0px" y="0px"
	 viewBox="0 0 160.293 60" style="enable-background:new 0 0 160.293 60;" xml:space="preserve">
<style type="text/css">
	.st0{fill:none;}
	.st1{fill:#601404;}
</style>
<rect class="st0" width="160.293" height="60"/>
<g>
	<polygon class="st1" points="104.381,42.991 98.897,37.254 98.897,45.285 100.032,45.285 100.032,40.021 105.516,45.743 
		105.516,37.766 104.381,37.766 	"/>
	<polygon class="st1" points="107.157,45.285 111.307,45.285 111.307,44.219 108.292,44.219 108.292,41.706 111.219,41.706 
		111.219,40.639 108.292,40.639 108.292,38.832 111.307,38.832 111.307,37.766 107.157,37.766 	"/>
	<path class="st1" d="M82.475,42.292c0,0.655-0.106,1.127-0.317,1.416c-0.315,0.432-0.76,0.647-1.334,0.647
		c-0.571,0-1.015-0.216-1.33-0.647c-0.211-0.298-0.317-0.77-0.317-1.416v-4.526h-1.135v4.841c0,0.792,0.247,1.445,0.74,1.958
		c0.552,0.571,1.232,0.857,2.041,0.857c0.808,0,1.49-0.286,2.045-0.857c0.493-0.513,0.74-1.166,0.74-1.958v-4.841h-1.135V42.292z"/>
	<polygon class="st1" points="72.655,45.285 76.805,45.285 76.805,44.219 73.79,44.219 73.79,41.706 76.717,41.706 76.717,40.639 
		73.79,40.639 73.79,38.832 76.805,38.832 76.805,37.766 72.655,37.766 	"/>
	<polygon class="st1" points="93.402,45.285 97.552,45.285 97.552,44.219 94.537,44.219 94.537,41.706 97.464,41.706 97.464,40.639 
		94.537,40.639 94.537,38.832 97.552,38.832 97.552,37.766 93.402,37.766 	"/>
	<path class="st1" d="M89.063,42.436h1.875c-0.052,0.528-0.3,0.981-0.745,1.36c-0.445,0.376-0.946,0.564-1.505,0.564
		c-0.656,0-1.265-0.252-1.826-0.755c-0.601-0.542-0.901-1.232-0.901-2.07c0-0.812,0.269-1.487,0.808-2.026
		c0.539-0.549,1.206-0.823,2.002-0.823c0.886,0,1.638,0.411,2.255,1.232l0.808-0.774c-0.471-0.538-0.95-0.926-1.437-1.166
		c-0.51-0.239-1.058-0.359-1.646-0.359c-1.094,0-2.023,0.381-2.786,1.144c-0.763,0.76-1.144,1.685-1.144,2.776
		c0,1.068,0.375,1.984,1.125,2.747c0.75,0.76,1.651,1.14,2.703,1.14c1.078,0,1.966-0.393,2.664-1.179
		c0.308-0.351,0.528-0.727,0.657-1.13c0.133-0.435,0.2-0.935,0.2-1.5V41.37h-3.107V42.436z"/>
	<path class="st1" d="M119.45,37.624c-1.084,0-2.013,0.38-2.786,1.14c-0.776,0.76-1.164,1.669-1.164,2.727
		c0,1.205,0.425,2.179,1.276,2.922c0.773,0.672,1.645,1.008,2.615,1.008c1.097,0,2.034-0.378,2.81-1.135
		c0.773-0.753,1.159-1.67,1.159-2.752c0-1.075-0.385-1.995-1.154-2.761C121.44,38.008,120.521,37.624,119.45,37.624z
		 M121.403,43.537c-0.542,0.545-1.208,0.818-1.997,0.818c-0.727,0-1.369-0.268-1.924-0.803c-0.558-0.535-0.838-1.218-0.838-2.049
		c0-0.792,0.27-1.457,0.808-1.995c0.539-0.545,1.2-0.817,1.982-0.817c0.786,0,1.445,0.273,1.977,0.817
		c0.536,0.542,0.804,1.213,0.804,2.015C122.216,42.315,121.945,42.986,121.403,43.537z"/>
	<polygon class="st1" points="158.159,37.766 158.159,42.991 152.675,37.254 152.675,45.285 153.81,45.285 153.81,40.021 
		159.294,45.743 159.294,37.766 	"/>
	<path class="st1" d="M139.607,42.436h1.875c-0.052,0.528-0.3,0.981-0.745,1.36c-0.445,0.376-0.946,0.564-1.505,0.564
		c-0.656,0-1.265-0.252-1.826-0.755c-0.601-0.542-0.901-1.232-0.901-2.07c0-0.812,0.27-1.487,0.809-2.026
		c0.539-0.549,1.206-0.823,2.002-0.823c0.886,0,1.638,0.411,2.255,1.232l0.808-0.774c-0.471-0.538-0.95-0.926-1.437-1.166
		c-0.51-0.239-1.058-0.359-1.646-0.359c-1.094,0-2.023,0.381-2.786,1.144c-0.763,0.76-1.144,1.685-1.144,2.776
		c0,1.068,0.375,1.984,1.125,2.747c0.75,0.76,1.651,1.14,2.703,1.14c1.078,0,1.966-0.393,2.664-1.179
		c0.308-0.351,0.528-0.727,0.657-1.13c0.133-0.435,0.2-0.935,0.2-1.5V41.37h-3.107V42.436z"/>
	<path class="st1" d="M147.51,37.624c-1.084,0-2.013,0.38-2.786,1.14c-0.776,0.76-1.164,1.669-1.164,2.727
		c0,1.205,0.425,2.179,1.276,2.922c0.773,0.672,1.645,1.008,2.615,1.008c1.097,0,2.034-0.378,2.81-1.135
		c0.773-0.753,1.159-1.67,1.159-2.752c0-1.075-0.385-1.995-1.154-2.761C149.5,38.008,148.581,37.624,147.51,37.624z M149.463,43.537
		c-0.542,0.545-1.208,0.818-1.997,0.818c-0.727,0-1.368-0.268-1.924-0.803c-0.558-0.535-0.838-1.218-0.838-2.049
		c0-0.792,0.27-1.457,0.809-1.995c0.539-0.545,1.2-0.817,1.982-0.817c0.786,0,1.445,0.273,1.977,0.817
		c0.536,0.542,0.804,1.213,0.804,2.015C150.276,42.315,150.005,42.986,149.463,43.537z"/>
	<path class="st1" d="M128.37,41.345c0.305-0.383,0.458-0.841,0.458-1.373c0-0.682-0.243-1.231-0.73-1.646
		c-0.442-0.373-1.159-0.56-2.153-0.56h-1.33v7.52h1.135v-3.078h0.205l2.148,3.078h1.388l-2.328-3.205
		C127.662,41.974,128.064,41.728,128.37,41.345z M125.75,41.219v-2.386h0.404c1.045,0,1.568,0.385,1.568,1.154
		c0,0.821-0.537,1.232-1.612,1.232H125.75z"/>
	<polygon class="st1" points="130.372,45.285 134.522,45.285 134.522,44.219 131.507,44.219 131.507,41.706 134.434,41.706 
		134.434,40.639 131.507,40.639 131.507,38.832 134.522,38.832 134.522,37.766 130.372,37.766 	"/>
	<polygon class="st1" points="78.657,25.594 85.905,35.576 93.472,35.576 84.537,24.181 92.757,13.332 85.692,13.332 78.657,23.436 
		78.657,13.332 72.655,13.332 72.655,35.576 78.657,35.576 	"/>
	<path class="st1" d="M115.801,23.694c0.076,0.831,0.16,1.585,0.251,2.264l1.307,9.618h5.667l-3.419-22.245h-6.017l-3.388,11.441
		c-0.192,0.679-0.344,1.259-0.456,1.74c-0.112,0.481-0.188,0.919-0.228,1.314c-0.081-0.729-0.279-1.605-0.593-2.629
		c-0.061-0.182-0.101-0.314-0.122-0.395l-3.358-11.472h-6.002L96.01,35.576h5.637l1.307-9.618c0.111-0.82,0.207-1.643,0.289-2.469
		c0.081-0.826,0.152-1.659,0.213-2.499c0.132,0.932,0.41,2.102,0.836,3.51c0.081,0.294,0.142,0.512,0.182,0.653l3.024,10.423h4.042
		l3.024-10.423c0.04-0.142,0.106-0.359,0.197-0.653c0.415-1.408,0.694-2.583,0.836-3.525
		C115.657,21.957,115.725,22.864,115.801,23.694z"/>
	<polygon class="st1" points="128.282,35.576 134.345,35.576 134.345,18.589 139.328,18.589 139.328,13.332 123.298,13.332 
		123.298,18.589 128.282,18.589 	"/>
	<path class="st1" d="M153.194,26.612c1.621-0.354,2.854-1.071,3.7-2.15c0.846-1.079,1.269-2.479,1.269-4.201
		c0-1.134-0.215-2.173-0.646-3.115c-0.431-0.942-1.046-1.717-1.846-2.325c-0.709-0.537-1.552-0.919-2.53-1.147
		c-0.978-0.228-2.707-0.342-5.189-0.342h-6.336v22.245h5.683V26.87l5.105,8.706h6.853L153.194,26.612z M151.287,23.178
		c-0.603,0.446-1.557,0.669-2.864,0.669h-1.124v-5.85h1.216c1.327,0,2.272,0.236,2.834,0.707c0.562,0.471,0.843,1.264,0.843,2.378
		C152.191,22.033,151.89,22.732,151.287,23.178z"/>
	<polygon class="st1" points="26.546,20.39 31.138,20.39 31.138,45.392 39.472,45.392 39.472,13.332 26.546,13.332 	"/>
	<path class="st1" d="M59.123,23.283c-1.66,0-3.021,0.34-4.467,0.976l-0.084-0.084l9.1-10.843h-9.44l-6.889,9.015
		c-2.762,3.615-5.145,8.121-5.145,12.756c0,3.316,1.744,6.675,4.295,8.801c2.467,1.955,6.039,2.765,9.142,2.765
		c7.313,0,13.777-4.253,13.777-12.12C69.413,28.681,65.415,23.283,59.123,23.283z M55.593,40.121c-2.892,0-5.271-2.382-5.271-5.316
		c0-2.892,2.38-5.229,5.271-5.229c2.934,0,5.145,2.338,5.145,5.229C60.738,37.738,58.527,40.121,55.593,40.121z"/>
	<path class="st1" d="M4.705,38.925l8.168,5.604l-3.96-9.073c-0.831-2.142-3.1-2.609-4.707-1.251
		C3.072,35.232,2.658,37.561,4.705,38.925z"/>
	<path class="st1" d="M11.238,29.794c-1.327,0.026-3.322,1.607-2.433,4.021l4.095,9.662l1.441-10.16
		C14.673,30.792,12.763,29.625,11.238,29.794z"/>
	<path class="st1" d="M20.569,33.789c0.831-2.161-0.915-3.968-2.464-4.023c-0.071-0.005-0.145-0.011-0.219-0.011
		c-1.39,0-2.984,1.013-2.907,3.174h0.776c0,0,0.412,0,0.47,0.195c-0.306,0.248-1.134,0.28-1.026,1.609l1.303,8.741L20.569,33.789z"
		/>
	<path class="st1" d="M16.556,44.5l8.166-5.633c1.884-1.335,1.58-3.469,0.525-4.525c-0.441-0.496-1.251-0.879-2.111-0.879
		c-1.016,0-2.103,0.538-2.731,2.074L16.556,44.5z"/>
	<path class="st1" d="M25.471,39.611c-0.536,0-1.105,0.161-1.662,0.533L16.14,45.5h9.443c1.937,0,3.182-1.997,2.628-3.831
		C27.841,40.519,26.743,39.614,25.471,39.611z"/>
	<path class="st1" d="M1.135,41.561C0.526,43.725,2.048,45.5,3.987,45.5h9.303l-7.67-5.356C3.848,39.005,1.856,39.672,1.135,41.561z
		"/>
</g>
</svg>
