<?xml version="1.0" encoding="utf-8"?>
<!-- Generator: Adobe Illustrator 26.3.1, SVG Export Plug-In . SVG Version: 6.00 Build 0)  -->
<svg version="1.1" id="Layer_1" xmlns="http://www.w3.org/2000/svg" xmlns:xlink="http://www.w3.org/1999/xlink" x="0px" y="0px"
	 viewBox="0 0 141.023 60" style="enable-background:new 0 0 141.023 60;" xml:space="preserve">
<style type="text/css">
	.st0{fill:none;}
	.st1{fill:#202c64;}
</style>
<rect class="st0" width="141.023" height="60"/>
<g>
	<g>
		<g>
			<polygon class="st1" points="18.132,18.878 15.64,31.028 15.577,31.028 11.402,18.878 4.611,18.878 0,41.122 6.511,41.122 
				9.097,28.66 9.16,28.66 13.241,41.122 19.97,41.122 24.644,18.878 			"/>
		</g>
		<g>
			<path class="st1" d="M38.226,27.632c-2.181-0.779-5.515-0.872-5.515-2.555c0-1.464,1.496-1.807,2.648-1.807
				c0.779,0,1.496,0.125,1.994,0.498c0.499,0.374,0.81,0.935,0.779,1.838h6.325c0.124-5.483-4.144-7.259-8.879-7.259
				c-4.486,0-9.347,2.305-9.347,7.321c0,3.708,2.617,5.141,5.328,6.044c3.084,1.028,5.359,1.246,5.359,2.866
				c0,1.465-1.651,2.15-2.991,2.15c-1.122,0-1.932-0.062-2.524-0.561c-0.561-0.561-0.841-1.308-0.841-2.524h-6.636
				c-0.28,5.67,4.331,8.007,9.44,8.007c4.829,0,10.032-2.523,10.032-7.882C43.397,31.122,42.089,29.003,38.226,27.632z"/>
		</g>
		<g>
			<polygon class="st1" points="62.557,18.878 60.064,31.028 60.002,31.028 55.827,18.878 49.035,18.878 44.424,41.122 
				50.936,41.122 53.522,28.66 53.584,28.66 57.665,41.122 64.395,41.122 69.068,18.878 			"/>
		</g>
	</g>
	<g>
		<g>
			<path class="st1" d="M79.664,37.166c-0.174-0.159-0.377-0.286-0.608-0.381c-0.231-0.095-0.532-0.169-0.904-0.222l-0.443-0.068
				l-0.478-0.068c-0.394-0.061-0.697-0.186-0.91-0.375c-0.205-0.182-0.307-0.432-0.307-0.75c0-0.371,0.131-0.675,0.392-0.91
				c0.261-0.235,0.623-0.352,1.086-0.352c0.364,0,0.69,0.047,0.978,0.142c0.288,0.095,0.55,0.256,0.784,0.483l0.784-0.773
				c-0.349-0.326-0.72-0.561-1.114-0.705c-0.394-0.144-0.86-0.216-1.398-0.216c-0.834,0-1.493,0.218-1.978,0.654
				c-0.485,0.436-0.728,1.01-0.728,1.722c0,0.659,0.197,1.175,0.591,1.546c0.364,0.341,0.875,0.557,1.535,0.648l0.478,0.068
				l0.478,0.068c0.235,0.03,0.417,0.07,0.546,0.119c0.129,0.049,0.242,0.123,0.341,0.222c0.212,0.19,0.319,0.47,0.319,0.841
				c0,0.394-0.146,0.699-0.438,0.915c-0.292,0.216-0.703,0.324-1.233,0.324c-0.44,0-0.822-0.059-1.148-0.176
				c-0.326-0.117-0.633-0.316-0.921-0.597l-0.818,0.807c0.379,0.387,0.796,0.661,1.251,0.824c0.455,0.163,0.993,0.244,1.614,0.244
				c0.864,0,1.565-0.212,2.103-0.637c0.538-0.425,0.807-1.004,0.807-1.74C80.324,38.106,80.104,37.553,79.664,37.166z"/>
		</g>
		<g>
			<path class="st1" d="M87.429,33.733c-0.478-0.462-1.107-0.694-1.887-0.694h-3.07v8.095H83.7v-3.183h1.842
				c0.781,0,1.41-0.235,1.887-0.705c0.227-0.22,0.401-0.479,0.523-0.779c0.121-0.299,0.182-0.623,0.182-0.972
				c0-0.348-0.061-0.673-0.182-0.972C87.831,34.224,87.657,33.96,87.429,33.733z M86.514,36.478
				c-0.261,0.239-0.608,0.358-1.04,0.358H83.7v-2.694h1.774c0.432,0,0.779,0.121,1.04,0.364c0.262,0.243,0.392,0.572,0.392,0.989
				C86.907,35.912,86.776,36.24,86.514,36.478z"/>
		</g>
		<g>
			<path class="st1" d="M95.541,35.097c-0.049-0.25-0.127-0.478-0.233-0.682c-0.106-0.205-0.25-0.398-0.432-0.58
				c-0.576-0.576-1.289-0.864-2.138-0.864c-0.841,0-1.55,0.288-2.126,0.864c-0.189,0.19-0.337,0.39-0.443,0.603
				c-0.106,0.212-0.184,0.442-0.233,0.688c-0.049,0.247-0.08,0.508-0.091,0.784c-0.011,0.277-0.017,0.669-0.017,1.177
				c0,0.5,0.006,0.89,0.017,1.171c0.011,0.28,0.04,0.544,0.085,0.79c0.045,0.246,0.123,0.476,0.233,0.688
				c0.11,0.212,0.26,0.413,0.449,0.603c0.576,0.576,1.285,0.864,2.126,0.864c0.849,0,1.561-0.288,2.138-0.864
				c0.182-0.182,0.326-0.375,0.432-0.58c0.106-0.205,0.184-0.432,0.233-0.682c0.049-0.25,0.079-0.519,0.091-0.807
				c0.011-0.288,0.017-0.682,0.017-1.182c0-0.5-0.006-0.894-0.017-1.182C95.621,35.616,95.591,35.347,95.541,35.097z M94.404,38.121
				c-0.011,0.273-0.034,0.498-0.068,0.677c-0.034,0.178-0.083,0.328-0.148,0.449c-0.064,0.121-0.146,0.239-0.244,0.352
				c-0.144,0.152-0.322,0.273-0.534,0.364c-0.212,0.091-0.436,0.136-0.671,0.136c-0.235,0-0.459-0.046-0.671-0.136
				c-0.212-0.091-0.39-0.212-0.534-0.364c-0.106-0.114-0.188-0.231-0.244-0.352c-0.057-0.121-0.102-0.273-0.136-0.455
				c-0.034-0.182-0.059-0.407-0.074-0.677c-0.015-0.269-0.023-0.612-0.023-1.029c0-0.417,0.007-0.762,0.023-1.035
				c0.015-0.273,0.038-0.498,0.068-0.676c0.03-0.178,0.078-0.33,0.142-0.455c0.064-0.125,0.146-0.241,0.244-0.347
				c0.144-0.159,0.322-0.282,0.534-0.369c0.212-0.087,0.436-0.131,0.671-0.131c0.235,0,0.459,0.044,0.671,0.131
				c0.212,0.087,0.39,0.21,0.534,0.369c0.106,0.114,0.189,0.231,0.25,0.353c0.061,0.121,0.108,0.273,0.142,0.455
				c0.034,0.182,0.057,0.408,0.068,0.677c0.011,0.269,0.017,0.612,0.017,1.029C94.422,37.503,94.416,37.848,94.404,38.121z"/>
		</g>
		<g>
			<path class="st1" d="M103.17,36.797c0.299-0.375,0.449-0.839,0.449-1.393c0-0.697-0.229-1.266-0.688-1.705
				c-0.459-0.44-1.067-0.659-1.825-0.659h-3.138v8.095h1.228v-3.411h1.535l1.705,3.411h1.432l-1.864-3.581
				C102.482,37.424,102.87,37.172,103.17,36.797z M99.196,36.677v-2.535h1.819c0.409,0,0.741,0.114,0.995,0.341
				c0.254,0.227,0.381,0.538,0.381,0.932c0,0.394-0.125,0.703-0.375,0.927c-0.25,0.224-0.584,0.335-1,0.335H99.196z"/>
		</g>
		<g>
			<polygon class="st1" points="105.199,34.142 107.427,34.142 107.427,41.134 108.655,41.134 108.655,34.142 110.884,34.142 
				110.884,33.039 105.199,33.039 			"/>
		</g>
		<g>
			<path class="st1" d="M117.182,37.166c-0.174-0.159-0.377-0.286-0.608-0.381c-0.231-0.095-0.532-0.169-0.904-0.222l-0.443-0.068
				l-0.478-0.068c-0.394-0.061-0.697-0.186-0.909-0.375c-0.205-0.182-0.307-0.432-0.307-0.75c0-0.371,0.131-0.675,0.392-0.91
				c0.261-0.235,0.623-0.352,1.086-0.352c0.364,0,0.69,0.047,0.978,0.142c0.288,0.095,0.55,0.256,0.784,0.483l0.784-0.773
				c-0.349-0.326-0.72-0.561-1.114-0.705c-0.394-0.144-0.86-0.216-1.398-0.216c-0.834,0-1.493,0.218-1.978,0.654
				c-0.485,0.436-0.728,1.01-0.728,1.722c0,0.659,0.197,1.175,0.591,1.546c0.364,0.341,0.875,0.557,1.535,0.648l0.478,0.068
				l0.478,0.068c0.235,0.03,0.417,0.07,0.546,0.119c0.129,0.049,0.242,0.123,0.341,0.222c0.212,0.19,0.319,0.47,0.319,0.841
				c0,0.394-0.146,0.699-0.438,0.915c-0.292,0.216-0.703,0.324-1.233,0.324c-0.44,0-0.822-0.059-1.148-0.176
				c-0.326-0.117-0.633-0.316-0.921-0.597l-0.818,0.807c0.379,0.387,0.796,0.661,1.251,0.824c0.455,0.163,0.993,0.244,1.614,0.244
				c0.864,0,1.565-0.212,2.103-0.637c0.538-0.425,0.807-1.004,0.807-1.74C117.842,38.106,117.622,37.553,117.182,37.166z"/>
		</g>
	</g>
	<g>
		<g>
			<polygon class="st1" points="124.856,38.724 123.424,36.541 121.116,33.039 119.99,33.039 119.99,41.134 121.218,41.134 
				121.218,35.438 122.503,37.382 124.958,41.134 126.084,41.134 126.084,33.039 124.856,33.039 			"/>
		</g>
		<g>
			<polygon class="st1" points="128.699,41.134 133.872,41.134 133.872,40.031 129.927,40.031 129.927,37.598 133.292,37.598 
				133.292,36.507 129.927,36.507 129.927,34.142 133.872,34.142 133.872,33.039 128.699,33.039 			"/>
		</g>
		<g>
			<polygon class="st1" points="135.338,33.039 135.338,34.142 137.567,34.142 137.567,41.134 138.794,41.134 138.794,34.142 
				141.023,34.142 141.023,33.039 			"/>
		</g>
	</g>
	<g>
		<g>
			<polygon class="st1" points="82.098,27.397 79.946,24.118 76.48,18.859 74.79,18.859 74.79,31.016 76.634,31.016 76.634,22.462 
				78.563,25.382 82.251,31.016 83.942,31.016 83.942,18.859 82.098,18.859 			"/>
		</g>
		<g>
			<polygon class="st1" points="87.869,31.016 95.638,31.016 95.638,29.36 89.713,29.36 89.713,25.706 94.767,25.706 94.767,24.067 
				89.713,24.067 89.713,20.515 95.638,20.515 95.638,18.859 87.869,18.859 			"/>
		</g>
		<g>
			<polygon class="st1" points="102.126,27.704 99.326,18.859 97.414,18.859 101.409,31.016 102.843,31.016 106.873,18.859 
				104.926,18.859 			"/>
		</g>
		<g>
			<path class="st1" d="M111.705,18.859l-4.457,12.157h1.964l0.837-2.442h4.798l0.837,2.442h1.964l-4.457-12.157H111.705z
				 M110.595,27.004l1.895-5.396l1.844,5.396H110.595z"/>
		</g>
		<g>
			<path class="st1" d="M127.534,20.003c-0.763-0.762-1.81-1.144-3.142-1.144h-4.269v12.157h4.269c1.332,0,2.379-0.381,3.142-1.144
				c0.523-0.523,0.859-1.161,1.007-1.912c0.148-0.751,0.222-1.787,0.222-3.108c0-1.286-0.071-2.285-0.213-2.997
				C128.407,21.145,128.069,20.527,127.534,20.003z M126.808,27.234c-0.074,0.552-0.253,0.988-0.538,1.306
				c-0.501,0.546-1.19,0.82-2.066,0.82h-2.237v-8.845h2.237c0.876,0,1.565,0.273,2.066,0.82c0.284,0.319,0.464,0.732,0.538,1.238
				c0.074,0.507,0.111,1.266,0.111,2.279C126.919,25.888,126.882,26.682,126.808,27.234z"/>
		</g>
		<g>
			<path class="st1" d="M136.566,18.859h-1.486l-4.457,12.157h1.964l0.837-2.442h4.798l0.837,2.442h1.964L136.566,18.859z
				 M133.971,27.004l1.895-5.396l1.844,5.396H133.971z"/>
		</g>
	</g>
</g>
</svg>
