<?xml version="1.0" encoding="UTF-8" standalone="no"?>
<svg
   viewBox="0 0 999.99997 624.27191"
   id="Layer_2"
   version="1.1"
   width="1000"
   height="624.27191"
   xml:space="preserve"
   xmlns="http://www.w3.org/2000/svg"
   xmlns:svg="http://www.w3.org/2000/svg"><defs
     id="defs1"><style
       id="style1">.cls-1{fill:#fff;stroke-width:0px;}</style></defs><path
     d="m 860.8125,186.77194 v 247.6875 c 0,22.59375 -10.40625,49 -39.71875,49 -29.3125,0 -40.4375,-26.40625 -40.4375,-49 v -247.6875 h -139.1875 v 247.6875 c 0,22.59375 -10.59375,49 -40.40625,49 -29.8125,0 -39.71875,-26.40625 -39.71875,-49 v -247.6875 h -139.1875 v 219.875 c -0.65625,42.34375 -31.21875,77.6875 -68.1875,78.90625 h -144.625 c -38.71875,0 -70.21875,-35.75 -70.21875,-79.65625 0,-43.90625 31.5,-80.34375 70.21875,-80.34375 h 136 V 186.77194 h -136 C 93.9375,186.77194 0,285.05319 0,405.89694 c 0,120.84375 93.9375,218.375 209.375,218.375 H 349 c 46.75,0 93.84375,-18.90625 129.75,-49.8125 34.15625,33.90625 71.46875,49.8125 116.3125,49.8125 44.84375,0 82.03125,-15.8125 116.0625,-49.5 34.03125,33.6875 71.25,49.5 116.03125,49.5 96.9375,0 172.84375,-79.53125 172.84375,-181.09375 V 186.77194 Z"
     class="cls-1"
     id="path3"
     style="fill:#ff4500;fill-opacity:1" /><g
     id="g12"
     style="fill:#000000;fill-opacity:1"
     transform="translate(0,186.77194)"><path
       style="font-weight:bold;font-size:192.468px;line-height:0.85;font-family:'F37 Bolton';-inkscape-font-specification:'F37 Bolton Bold';text-align:end;letter-spacing:0px;word-spacing:36.0878px;text-anchor:end;fill:#000000;fill-opacity:1;stroke-width:45.0036;paint-order:markers fill stroke"
       d="m 874.87389,-45.55238 v -137.76111 h 27.44158 l 49.08566,73.58787 q 2.51226,3.84271 7.53677,12.29666 h 0.77301 v -85.88453 h 28.02132 v 137.76111 h -27.63481 l -49.85867,-74.74069 q -4.63802,-7.10901 -6.57052,-11.33599 h -0.773 v 86.07668 z"
       id="path6" /><path
       style="font-weight:bold;font-size:192.468px;line-height:0.85;font-family:'F37 Bolton';-inkscape-font-specification:'F37 Bolton Bold';text-align:end;letter-spacing:0px;word-spacing:36.0878px;text-anchor:end;fill:#000000;fill-opacity:1;stroke-width:45.0036;paint-order:markers fill stroke"
       d="m 852.12898,-45.55238 h -29.56735 v -137.76111 h 29.56735 z"
       id="path5" /><path
       style="font-weight:bold;font-size:192.468px;line-height:0.85;font-family:'F37 Bolton';-inkscape-font-specification:'F37 Bolton Bold';text-align:end;letter-spacing:0px;word-spacing:36.0878px;text-anchor:end;fill:#000000;fill-opacity:1;stroke-width:45.0036;paint-order:markers fill stroke"
       d="m 772.77931,-45.55238 h -29.56735 v -110.86215 h -39.03663 v -26.89896 h 107.64059 v 26.89896 h -39.03661 z"
       id="path4" /><path
       style="font-weight:bold;font-size:192.468px;line-height:0.85;font-family:'F37 Bolton';-inkscape-font-specification:'F37 Bolton Bold';text-align:end;letter-spacing:0px;word-spacing:36.0878px;text-anchor:end;fill:#000000;fill-opacity:1;stroke-width:45.0036;paint-order:markers fill stroke"
       d="m 647.76996,-42.09394 q -24.73607,0 -40.38937,-11.91239 -15.46005,-12.10454 -15.07355,-37.08215 h 28.40783 q 0,12.68094 7.53677,18.63714 7.73003,5.76407 20.87108,5.76407 23.19007,0 23.19007,-15.75511 0,-6.53261 -4.44476,-10.75959 -4.44477,-4.41911 -14.30055,-7.30114 l -23.19007,-6.72474 q -34.78511,-9.99105 -34.78511,-39.19565 0,-19.98209 13.52754,-30.16525 13.7208,-10.18319 35.36486,-10.18319 14.49379,0 26.47534,4.61124 11.98154,4.61127 19.13181,14.6023 7.34353,9.99105 7.34353,25.16975 h -28.40785 q -1.1595,-20.36635 -24.54283,-20.36635 -8.88953,0 -14.68704,3.26629 -5.60427,3.07418 -5.60427,10.56746 0,5.37978 3.865,9.60678 4.05827,4.22697 13.91405,7.10901 l 23.57658,7.10901 q 15.65329,4.80338 25.50908,13.83376 9.85578,9.03035 9.85578,26.89896 0,19.59781 -13.7208,30.93381 -13.52754,11.33598 -39.42312,11.33598 z"
       id="path2" /><path
       style="font-weight:bold;font-size:192.468px;line-height:0.85;font-family:'F37 Bolton';-inkscape-font-specification:'F37 Bolton Bold';text-align:end;letter-spacing:0px;word-spacing:36.0878px;text-anchor:end;fill:#000000;fill-opacity:1;stroke-width:45.0036;paint-order:markers fill stroke"
       d="m 524.16981,-42.09394 q -26.66858,0 -41.35563,-14.6023 -14.68705,-14.60228 -14.68705,-42.26979 v -84.34746 h 29.3741 v 81.08115 q 0,15.37084 6.57052,24.01694 6.57052,8.64609 20.09806,8.64609 13.33429,0 19.90482,-8.64609 6.76377,-8.83824 6.76377,-24.01694 v -81.08115 h 29.37409 v 84.34746 q 0,27.66751 -14.88029,42.26979 -14.68705,14.6023 -41.16239,14.6023 z"
       id="path1" /><path
       style="font-weight:bold;font-size:192.468px;line-height:0.85;font-family:'F37 Bolton';-inkscape-font-specification:'F37 Bolton Bold';text-align:end;letter-spacing:0px;word-spacing:36.0878px;text-anchor:end;fill:#000000;fill-opacity:1;stroke-width:45.0036;paint-order:markers fill stroke"
       d="M 460.43933,-45.55238 H 431.45174 L 421.20947,-77.44686 H 370.9643 l -11.40179,31.89448 h -28.21458 l 49.47215,-137.76111 h 35.17161 z m -80.199,-57.44849 h 32.85261 l -12.17479,-37.65855 q -1.93251,-5.76408 -3.09202,-11.52814 h -0.773 q -1.546,6.91688 -3.28526,11.72027 z"
       id="text1" /></g></svg>
