<svg xmlns="http://www.w3.org/2000/svg" xmlns:xlink="http://www.w3.org/1999/xlink" width="275.7" height="120.2" viewBox="0 0 72.9 31.8" xml:space="preserve"><defs><linearGradient id="u" x1="278.9" x2="271.9" y1="410.7" y2="407.7" gradientTransform="matrix(1.2843 0 0 -1.247 -261.6 595.2)" gradientUnits="userSpaceOnUse"><stop offset="0"></stop><stop stop-opacity="0" offset="1"></stop></linearGradient><linearGradient id="v" x1="178.4" x2="183.4" y1="-81.3" y2="-82" gradientTransform="matrix(.82732 0 0 .82755 -8.5 134.8)" gradientUnits="userSpaceOnUse"><stop offset="0"></stop><stop stop-opacity="0" offset="1"></stop></linearGradient><linearGradient id="w" x1="225.6" x2="217.1" y1="-74.1" y2="-77.9" gradientTransform="matrix(.82732 0 0 .82755 -8.5 134.8)" gradientUnits="userSpaceOnUse"><stop offset="0"></stop><stop stop-opacity="0" offset="1"></stop></linearGradient><linearGradient id="x" x1="160.1" x2="163.6" y1="-106.5" y2="-106.5" gradientTransform="matrix(.82731 0 0 .82754 2.7 153.1)" gradientUnits="userSpaceOnUse"><stop stop-color="#fff" offset="0"></stop><stop stop-color="#fff" stop-opacity="0" offset="1"></stop></linearGradient><linearGradient id="y" x1="337.2" x2="342.3" y1="410.3" y2="407.9" gradientTransform="matrix(1.2843 0 0 -1.247 -261.6 595.2)" gradientUnits="userSpaceOnUse"><stop offset="0"></stop><stop stop-opacity="0" offset="1"></stop></linearGradient><linearGradient id="z" x1="252" x2="252" y1="349.6" y2="361.2" gradientTransform="matrix(1.2843 0 0 -1.247 -261.6 595.2)" gradientUnits="userSpaceOnUse"><stop offset="0"></stop><stop stop-opacity=".2" offset=".5"></stop><stop stop-opacity="0" offset="1"></stop></linearGradient><linearGradient id="A" x1="362.5" x2="362.5" y1="351.6" y2="359.8" gradientTransform="matrix(1.2843 0 0 -1.247 -261.6 595.2)" gradientUnits="userSpaceOnUse"><stop offset="0"></stop><stop stop-opacity=".2" offset=".6"></stop><stop stop-opacity="0" offset="1"></stop></linearGradient><linearGradient id="B" x1="249" x2="255.3" y1="385.2" y2="394" gradientTransform="matrix(1.2843 0 0 -1.247 -261.6 595.2)" gradientUnits="userSpaceOnUse"><stop offset="0"></stop><stop stop-opacity="0" offset="1"></stop></linearGradient><linearGradient id="C" x1="271.3" x2="277.1" y1="418.4" y2="420.8" gradientTransform="matrix(1.2843 0 0 -1.247 -261.6 595.2)" gradientUnits="userSpaceOnUse"><stop offset="0"></stop><stop stop-opacity="0" offset="1"></stop></linearGradient><linearGradient id="D" x1="87.6" x2="93.9" y1="-106.5" y2="-106.5" gradientTransform="matrix(.82731 0 0 .82755 2.7 153.1)" gradientUnits="userSpaceOnUse"><stop stop-color="#fff" offset="0"></stop><stop stop-color="#fff" stop-opacity="0" offset="1"></stop></linearGradient><linearGradient id="E" x1="234.2" x2="231.9" y1="-80.7" y2="-80.9" gradientTransform="matrix(.82731 0 0 .82755 -8.5 134.8)" gradientUnits="userSpaceOnUse"><stop stop-color="#fff" offset="0"></stop><stop stop-color="#fff" stop-opacity="0" offset="1"></stop></linearGradient><linearGradient id="F" x1="304.1" x2="299.5" y1="423.2" y2="423.8" gradientTransform="matrix(1.2843 0 0 -1.247 -261.6 595.2)" gradientUnits="userSpaceOnUse"><stop offset="0"></stop><stop stop-opacity="0" offset="1"></stop></linearGradient><linearGradient id="G" x1="305.4" x2="303.4" y1="425.1" y2="425.1" gradientTransform="matrix(1.2843 0 0 -1.247 -261.6 595.2)" gradientUnits="userSpaceOnUse"><stop stop-color="#fff" offset="0"></stop><stop stop-color="#fff" stop-opacity="0" offset="1"></stop></linearGradient><linearGradient id="H" x1="129" x2="140.6" y1="-186.1" y2="-85.7" gradientTransform="matrix(.82731 0 0 .82755 -8.5 134.8)" gradientUnits="userSpaceOnUse"><stop stop-color="#fff" offset="0"></stop><stop stop-color="#fff" stop-opacity="0" offset="1"></stop></linearGradient><linearGradient id="I" x1="211.7" x2="243.6" y1="339.6" y2="364.9" gradientTransform="matrix(1.2843 0 0 -1.247 -261.6 595.2)" gradientUnits="userSpaceOnUse"><stop offset="0"></stop><stop stop-opacity=".2" offset=".5"></stop><stop stop-opacity=".1" offset=".7"></stop><stop stop-opacity="0" offset="1"></stop></linearGradient><linearGradient id="J" x1="402.8" x2="370.9" y1="339.6" y2="364.9" gradientTransform="matrix(1.2843 0 0 -1.247 -261.6 595.2)" gradientUnits="userSpaceOnUse"><stop offset="0"></stop><stop stop-opacity=".2" offset=".5"></stop><stop stop-opacity=".1" offset=".7"></stop><stop stop-opacity="0" offset="1"></stop></linearGradient><linearGradient id="K" x1="363.4" x2="358.6" y1="388.4" y2="395" gradientTransform="matrix(1.2843 0 0 -1.247 -261.6 595.2)" gradientUnits="userSpaceOnUse"><stop offset="0"></stop><stop stop-opacity="0" offset="1"></stop></linearGradient><linearGradient id="L" x1="226" x2="228.2" y1="433" y2="431.8" gradientTransform="matrix(1.2843 0 0 -1.247 -261.6 595.2)" gradientUnits="userSpaceOnUse"><stop stop-color="#fff" offset="0"></stop><stop stop-color="#fff" stop-opacity="0" offset="1"></stop></linearGradient><linearGradient id="f" x1="26.6" x2="29.1" y1="-42.5" y2="-40.4" gradientTransform="matrix(-.82731 0 0 .82755 269.1 135.5)" gradientUnits="userSpaceOnUse"><stop stop-color="#fff" offset="0"></stop><stop stop-color="#fff" stop-opacity="0" offset="1"></stop></linearGradient><linearGradient id="h" x1="151.6" x2="-13.4" y1="8" y2="-46" gradientTransform="matrix(-.82731 0 0 .82755 267.8 134.8)" gradientUnits="userSpaceOnUse"><stop stop-color="#fff" stop-opacity=".7" offset="0"></stop><stop stop-color="#fff" stop-opacity="0" offset="1"></stop></linearGradient><linearGradient id="j" x1="49.9" x2="-8.9" y1="-12.3" y2="-12.5" gradientTransform="matrix(.82731 0 0 .82755 -8.5 134.8)" gradientUnits="userSpaceOnUse"><stop stop-color="#fff" stop-opacity=".7" offset="0"></stop><stop stop-color="#fff" stop-opacity="0" offset="1"></stop></linearGradient><linearGradient id="S" x1="100.2" x2="94.7" y1="-143.2" y2="-71.2" gradientTransform="matrix(.82731 0 0 .82755 -8.5 134.8)" gradientUnits="userSpaceOnUse"><stop stop-color="#fff" offset="0"></stop><stop stop-color="#fff" stop-opacity="0" offset="1"></stop></linearGradient><linearGradient id="T" x1="216.4" x2="98.6" y1="-138.5" y2="-58.8" gradientTransform="matrix(.82731 0 0 .82755 -8.5 134.8)" gradientUnits="userSpaceOnUse"><stop stop-color="#fff" offset="0"></stop><stop stop-color="#fff" stop-opacity="0" offset="1"></stop></linearGradient><linearGradient id="U" x1="91.8" x2="86.3" y1="-143.2" y2="-71.2" gradientTransform="matrix(-.82731 0 0 .82755 267.4 134.8)" gradientUnits="userSpaceOnUse"><stop stop-color="#fff" offset="0"></stop><stop stop-color="#fff" stop-opacity="0" offset="1"></stop></linearGradient><linearGradient id="V" x1="208" x2="90.2" y1="-138.5" y2="-58.8" gradientTransform="matrix(-.82731 0 0 .82755 267.5 134.8)" gradientUnits="userSpaceOnUse"><stop stop-color="#fff" offset="0"></stop><stop stop-color="#fff" stop-opacity="0" offset="1"></stop></linearGradient><linearGradient id="l" x1="34.9" x2="37.5" y1="-42.5" y2="-40.4" gradientTransform="matrix(.82731 0 0 .82755 -10.1 135.5)" gradientUnits="userSpaceOnUse"><stop stop-color="#fff" offset="0"></stop><stop stop-color="#fff" stop-opacity="0" offset="1"></stop></linearGradient><linearGradient id="n" x1="159.8" x2="-4.9" y1="8.6" y2="-46.2" gradientTransform="matrix(.82731 0 0 .82755 -8.5 134.8)" gradientUnits="userSpaceOnUse"><stop stop-color="#fff" stop-opacity=".7" offset="0"></stop><stop stop-color="#fff" stop-opacity="0" offset="1"></stop></linearGradient><linearGradient id="aa" x1="388.5" x2="386.2" y1="433" y2="431.8" gradientTransform="matrix(1.2843 0 0 -1.247 -261.6 595.2)" gradientUnits="userSpaceOnUse"><stop stop-color="#fff" offset="0"></stop><stop stop-color="#fff" stop-opacity="0" offset="1"></stop></linearGradient><linearGradient id="ab" x1="285.8" x2="269.3" y1="367.8" y2="389.5" gradientTransform="matrix(-1.2843 0 0 -1.247 520.6 595.2)" gradientUnits="userSpaceOnUse"><stop stop-color="#fff" offset="0"></stop><stop stop-color="#fff" stop-opacity="0" offset="1"></stop></linearGradient><linearGradient id="ac" x1="292" x2="274.9" y1="367.5" y2="389.7" gradientTransform="matrix(1.2843 0 0 -1.247 -261.6 595.2)" gradientUnits="userSpaceOnUse"><stop stop-color="#fff" offset="0"></stop><stop stop-color="#fff" stop-opacity="0" offset="1"></stop></linearGradient><linearGradient id="p" x1="120.7" x2="132.2" y1="-186.1" y2="-85.7" gradientTransform="matrix(-.82732 0 0 .82755 267.4 134.8)" gradientUnits="userSpaceOnUse"><stop stop-color="#fff" offset="0"></stop><stop stop-color="#fff" stop-opacity="0" offset="1"></stop></linearGradient><clipPath id="b"><path d="M0 0h266v240H0z"></path></clipPath><clipPath id="d"><path d="M0 0h266v240H0z"></path></clipPath><clipPath id="e"><path d="M0 0h266v240H0z"></path></clipPath><clipPath id="g"><path d="M0 0h266v240H0z"></path></clipPath><clipPath id="i"><path d="M0 0h266v240H0z"></path></clipPath><clipPath id="k"><path d="M0 0h266v240H0z"></path></clipPath><clipPath id="m"><path d="M0 0h266v240H0z"></path></clipPath><clipPath id="o"><path d="M0 0h266v240H0z"></path></clipPath><mask id="q"><g filter="url(#a)"><path fill-opacity=".5" d="M0 0h266v240H0z"></path></g></mask><mask id="s"><g filter="url(#a)"><path fill-opacity=".5" d="M0 0h266v240H0z"></path></g></mask><mask id="M"><g filter="url(#a)"><path fill-opacity=".7" d="M0 0h266v240H0z"></path></g></mask><mask id="O"><g filter="url(#a)"><path fill-opacity=".7" d="M0 0h266v240H0z"></path></g></mask><mask id="Q"><g filter="url(#a)"><path fill-opacity=".7" d="M0 0h266v240H0z"></path></g></mask><mask id="W"><g filter="url(#a)"><path fill-opacity=".7" d="M0 0h266v240H0z"></path></g></mask><mask id="Y"><g filter="url(#a)"><path fill-opacity=".7" d="M0 0h266v240H0z"></path></g></mask><mask id="ad"><g filter="url(#a)"><path fill-opacity=".5" d="M0 0h266v240H0z"></path></g></mask><g id="r" clip-path="url(#b)"><path d="M25.4 51.4a32.1 32.1 0 0 0-4.2 15.4c0 5 1.4 10.9 4 15.7a32 32 0 0 0 12.1 12s-2.3-.6-5.5-.6A31.9 31.9 0 0 0 0 125c0 17.7 15 30.8 32.6 30.8l86 .1h118.2c11.7 0 20.6-7.9 25.3-16.5a31.5 31.5 0 0 0 3.7-13.5c0-12-6.2-20.6-12.8-25.6a33.2 33.2 0 0 0-26.2-5.7c4.5-3 8.4-5.7 10.9-9s4.5-7.2 5.6-11a31 31 0 0 0-2.6-23.1l-10.3-4.2h-40L132 43.7l-90.7 2.9z" fill="url(#c)"></path></g><g id="t" clip-path="url(#d)"><path d="M25.3 51.5h215.5c-2-4-6-8.2-11-11.5a31.3 31.3 0 0 0-16.2-4.3c-7.3 0-15.4 2.3-22.6 9.3a30 30 0 0 0 3-12.2A32.1 32.1 0 0 0 162.8.1 32.1 32.1 0 0 0 133 21.3 31.6 31.6 0 0 0 103.2.1 32.1 32.1 0 0 0 75 45.4a31.5 31.5 0 0 0-23.5-9.7 30.5 30.5 0 0 0-26.2 15.8z" fill="#fff"></path></g><g id="N" clip-path="url(#e)"><path d="M234.8 100.6c3.8 0 9.6.8 11.7 1.6 6.5 2.8 13.4 12 12.7 15.3-13.2-4.1-34-4-47.2 2.5a7994.8 7994.8 0 0 0-58.6 30.4c20.4-14.2 45.8-31.1 68-46.1 3.7-2.4 8.6-3.6 13.4-3.7z" fill="url(#f)"></path></g><g id="P" clip-path="url(#g)"><path d="M233.4 100a24.4 24.4 0 0 1 23.1 13.5c.4.8.3 2.6.6 3.4-13.6-11-28.9-6.3-46.5 2.4L152 149.7c20.4-14.2 45.8-31 68-46 3.7-2.4 8.6-3.7 13.4-3.8z" fill="url(#h)"></path></g><g id="R" clip-path="url(#i)"><path d="M32.7 100c-3.8-.1-7.5.6-10.7 2-7 2.7-15 11.2-13.3 15 13.2-4.2 33.7-4 46.8 2.4l58.7 30.4c-20.5-14.2-45.8-31-68-46a26.4 26.4 0 0 0-13.5-3.8z" fill="url(#j)"></path></g><g id="X" clip-path="url(#k)"><path d="M31.1 100.6c-3.7 0-9.5.8-11.7 1.6C13 105 6 114.2 6.7 117.5c13.2-4.1 34.1-4 47.2 2.5 20.4 10.4 41.2 21.3 58.7 30.4-20.5-14.2-45.8-31.1-68-46.1a26.4 26.4 0 0 0-13.5-3.7z" fill="url(#l)"></path></g><g id="Z" clip-path="url(#m)"><path d="M32.7 100c-3.8-.1-7.5.6-10.7 2-7 2.7-15 11.2-13.3 15 13.2-4.2 33.7-4 46.8 2.4l58.7 30.4c-20.5-14.2-45.8-31-68-46a26.4 26.4 0 0 0-13.5-3.8z" fill="url(#n)"></path></g><g id="ae" clip-path="url(#o)"><path d="M162 5.8c-3.3 0-6.6.8-9.7 2-5 2.2-9.6 6.2-12.6 11.1-2 3.7-3.3 7.9-3.5 12.3h13.6c2.7 0 3.2 1.5 3.2 2.3 0 1.3-2.8 2.5-4.1 3-1.3.4-2.4 1-3.5 1.7 18.3 1.4 32.3.4 41.6-3.1a24.4 24.4 0 0 0-25-29.3z" fill="url(#p)"></path></g><radialGradient id="c" cx="134.8" cy="-30.3" r="160.7" gradientTransform="matrix(0 .83525 -.8338 0 108.3 -10.1)" gradientUnits="userSpaceOnUse"><stop stop-color="#fff" offset="0"></stop><stop stop-color="#9caabc" offset="1"></stop></radialGradient><filter id="a" x="0" y="0" width="1" height="1"></filter></defs><g transform="translate(2.1 1) scale(.18757)"><path d="M103.2.2c-18-.5-33.3 17.3-30.9 35 .4 3.5 1.4 7 2.7 10.3a31.1 31.1 0 0 0-53 27.8c1.6 9 7.5 16.7 15.4 21.1a31.4 31.4 0 0 0-30 11.2 30 30 0 0 0-6 28.2c4 13.6 18 22.4 31.9 22 68 0 136.1.1 204.2 0 12.4-.3 23-9.8 26.8-21.3a30.4 30.4 0 0 0-11.2-34.2 33 33 0 0 0-26.3-5.8c4.9-3.2 10-6.5 12.8-11.8 8-12 6-30-5.3-39.2a31.4 31.4 0 0 0-43.4 1.7c5.2-10 3.9-22.6-2.7-31.6A30.7 30.7 0 0 0 161 .2a31.9 31.9 0 0 0-28 21.2A31.6 31.6 0 0 0 103.2.2z" fill="#fff"></path><use mask="url(#q)" xlink:href="#r"></use><use mask="url(#s)" xlink:href="#t"></use><path transform="matrix(.266 0 0 .26608 0 .1)" d="M117.7 362.8c-58.6-.1-112.1 54-106.4 113.4a106.6 106.6 0 0 0 93.2 97.5c33.7 3 67.5 0 101.3 1.1l265 .2C375 511 280 445.2 183.8 381.8a116 116 0 0 0-66-19zm761-.1c-31.7-1-60.5 14.8-84.7 33.8L529.4 575c121.6-.5 243.3.7 364.8-.9 49.3-5.2 92.5-47.9 94.8-98 4.8-53.6-38.3-104.2-90.8-111.8-6.4-1.2-13-1.7-19.5-1.6zM386.8 10.2c-52.5-.3-98.8 43.9-104.2 95.5-3.9 26.2 3.5 44.3 16.5 76.5A10489 10489 0 0 0 439 492.9c24.6-118.3 35.7-238.7 55.6-357.7 1.2-7.3 2-12.6 2-18.8a110 110 0 0 0-78.4-102.2 105.2 105.2 0 0 0-31.4-4zm221.1.1c-55.8.6-104.5 51-104.2 106.7v8H559c1.9 0 4.3.7.3 2.3-18.8 8-36.4 21.4-45 39.9-2.5 5.6-2.3 6.8-2 10.6 3.1 33.3 10.6 66 14.8 99.3 10.7 68.4 19.7 137.3 32.5 205.4l2.6 11.3 7-15.7c11.7-29.5 27-58.2 39.5-87.6 34-75.8 67.6-152 100-228.5 3.2-7.6 7.4-17.8 8.2-23 11.2-56.4-29-118.9-87.1-127.2-7.2-1.3-14.6-1.8-21.9-1.5zm195.9 133.4a107 107 0 0 0-73.8 29.5c-13.3 12.4-17 19.9-28.9 45.5-48.8 107.8-97.4 215.6-146.3 323.3a10110 10110 0 0 0 305.8-206.7 105 105 0 0 0 24-20c28.7-33 33.4-86 8.4-123a105 105 0 0 0-89.2-48.6zm-610 .1c-54.8-.6-103 48.8-103.1 103.4-1.9 38.7 16.6 72.6 53.4 96.4 99.1 67.9 200 133 301.3 197.6-51.7-112.7-101.7-226.3-154.1-338.7a76 76 0 0 0-9.1-16.3 107.9 107.9 0 0 0-88.4-42.4z" fill="#fff" stroke="#9ca8bd" stroke-width=".8"></path><path d="M104.3 4.6A26 26 0 0 0 85 12.2 27.5 27.5 0 0 0 78 40c12.6 28.6 24.7 57.4 38 85.6 6-29.5 8.5-60.2 14-90 1-6.5-.7-12.4-3.4-17.6-3-5-7.8-9-12.9-11.3-3-1.3-6.1-2-9.4-2z" fill="#c01"></path><path d="m75.5 53.7 38.8 85.7A2661 2661 0 0 1 34.8 87a26.9 26.9 0 0 1 8-45.2 27 27 0 0 1 32.7 11.9" fill="#f61"></path><path d="m75.5 53.7 38.8 85.7A2661 2661 0 0 1 34.8 87a26.9 26.9 0 0 1 8-45.2 27 27 0 0 1 32.7 11.9" fill="url(#u)"></path><path d="M7 114.3a26.2 26.2 0 0 0 3.3 26.8 27.7 27.7 0 0 0 22.4 10.2h86.6l-72.5-49a29 29 0 0 0-25.7-1.6c-6 2.2-11.5 8-14.1 13.6" fill="#faba11"></path><path d="M161.7 4.6c-3.2.1-6.5.8-9.4 2.1A28.7 28.7 0 0 0 139.4 18a29.5 29.5 0 0 0-3.7 13.6h13.6c2.5 0 3.2 1 3.2 1.8s-1.4 1.6-2.2 2l-.9.3a21.9 21.9 0 0 0-11.3 10c-.2.3-.2.5-.2.8v1.1l.1.8.5 3.3 3.6 22.7v.6l.2 1.4v.2c2 14.3 4 28.6 6.6 42.7v.2l.6 3.5.5 2.6c13.3-28.2 25.5-57 38-85.6a27.2 27.2 0 0 0-26.3-35.4z" fill="#591466"></path><path d="M161.7 4.7c-3.3 0-6.5.7-9.5 2A29 29 0 0 0 139.4 18a29.6 29.6 0 0 0-3.7 13.7h13.6c1.8.3 3.7 1.2 3.1 2.2v.1l-.3.3-.3.3-.6.4-1 .4-.8.3a22 22 0 0 0-11.3 10v.1c-.2.2-.2.4-.2.7v1.1l.1.8.5 3.3 3.6 22.8.2 2 7.2 46.5.5 2.6c13.3-28.2 25.5-57 38-85.5 3.2-10.1.2-20.7-7-28-5-5.1-12.2-7.7-19.3-7.4z" fill="url(#v)"></path><path d="M161.7 4.7c-3.3 0-6.5.7-9.5 2A29 29 0 0 0 139.4 18a29.6 29.6 0 0 0-3.7 13.7l13.6-.4c2 0 3.7 1.6 3.1 2.6v.1l-.3.3-.3.3-.6.4-1 .4-.8.3a22 22 0 0 0-11.3 10v.1c-.2.2-.2.4-.2.7v1.1l.1.8.5 3.3 3.6 22.8.2 2 7.2 46.5.5 2.6c13.3-28.2 25.5-57 38-85.5 3.2-10.1.2-20.7-7-28-5-5.1-12.2-7.7-19.3-7.4z" fill="url(#w)"></path><path d="M161.3 5.9a25 25 0 0 0-9.2 2c-5 2.1-9.6 6.1-12.6 11-2 3.7-3.3 7.8-3.5 12.3h13.8c4.7 1.3 4.2 3.3.2 4.9-5.7 1.7-9.1 6-12 10.7 4.2 25.8 6.7 52 11.9 77.4 13-27.6 24.9-55.8 37.2-83.7a27 27 0 0 0-6.8-27.3c-5-5-12-7.5-19-7.3zM136 33.2v1.5-1.5z" fill="url(#x)"></path><path d="m190.5 53.7-38.8 85.8c26.1-17 52.7-35.6 78.9-53.5 8-6.7 11.2-16.7 8.5-26.7-2-7.6-8.4-14.7-15.9-17.5a27 27 0 0 0-32.7 11.9" fill="#0f578c"></path><path d="M259 114.3c4 8.3 2.5 19.7-3.3 26.8a27.7 27.7 0 0 1-22.4 10.2h-86.7l72.6-49a28.8 28.8 0 0 1 25.6-1.6c6 2.2 11.6 8 14.2 13.6" fill="#339c33"></path><path d="m190.5 53.7-38.8 85.8c26.1-17 52.7-35.6 78.9-53.5 8-6.7 11.2-16.7 8.5-26.7-2-7.6-8.4-14.7-15.9-17.5a27 27 0 0 0-32.7 11.9" fill="url(#y)"></path><path d="M7 114.3a26.2 26.2 0 0 0 3.3 26.8 27.7 27.7 0 0 0 22.4 10.2h86.6l-72.5-49a29 29 0 0 0-25.7-1.6c-6 2.2-11.5 8-14.1 13.6" fill="url(#z)"></path><path d="M259 114.3c4 8.3 2.5 19.7-3.3 26.8a27.7 27.7 0 0 1-22.4 10.2h-86.7l72.6-49a28.8 28.8 0 0 1 25.6-1.6c6 2.2 11.6 8 14.2 13.6" fill="url(#A)"></path><path d="m75.5 53.7 38.8 85.7A2661 2661 0 0 1 34.8 87a26.9 26.9 0 0 1 8-45.2 27 27 0 0 1 32.7 11.9" fill="url(#B)"></path><path d="M126.6 18a28.2 28.2 0 0 1 3.4 17.6c-5.5 29.8-8 60.5-14 90-13.3-28.2-25.4-57-38-85.6a27.5 27.5 0 0 1 7-27.8 26.4 26.4 0 0 1 28.7-5.5c5 2.2 9.9 6.3 12.9 11.3" fill="url(#C)"></path><path d="M126 19c2.7 5 4.3 10.8 3.4 17.2-5.4 29.1-7.9 59.1-13.7 88-13-27.6-25-55.7-37.2-83.7a26.9 26.9 0 0 1 6.8-27.3A25.8 25.8 0 0 1 113.5 8c5 2.1 9.6 6.1 12.6 11" fill="url(#D)"></path><path d="M161.3 5.9a25 25 0 0 0-9.2 2c-5 2.1-9.6 6.1-12.6 11-2 3.7-3.3 7.8-3.5 12.3h13.8c4.7 1.3 4.2 3.3.2 4.9-5.7 1.7-9.1 6-12 10.7 4.2 25.8 6.7 52 11.9 77.4 13-27.6 24.9-55.8 37.2-83.7a27 27 0 0 0-6.8-27.3c-5-5-12-7.5-19-7.3zM136 33.2v1.5-1.5z" fill="url(#E)"></path><path d="M126.6 18a28.2 28.2 0 0 1 3.4 17.6c-5.5 29.8-8 60.5-14 90-13.3-28.2-25.4-57-38-85.6a27.5 27.5 0 0 1 7-27.8 26.4 26.4 0 0 1 28.7-5.5c5 2.2 9.9 6.3 12.9 11.3" fill="url(#F)"></path><path d="M126 19c2.7 5 4.3 10.8 3.4 17.2-5.4 29.1-7.9 59.1-13.7 88-13-27.6-25-55.7-37.2-83.7a26.9 26.9 0 0 1 6.8-27.3A25.8 25.8 0 0 1 113.5 8c5 2.1 9.6 6.1 12.6 11" fill="url(#G)"></path><path d="M102.4 5.9A24.5 24.5 0 0 0 78.8 35c10.7 4 27.6 4.8 50.3 2.3l.3-1.2a28 28 0 0 0-3.3-17.3c-3-4.9-7.7-8.9-12.6-11a25.4 25.4 0 0 0-11.1-2z" fill="url(#H)"></path><path d="M7 114.3a26.2 26.2 0 0 0 3.3 26.8 27.7 27.7 0 0 0 22.4 10.2h86.6l-72.5-49a29 29 0 0 0-25.7-1.6c-6 2.2-11.5 8-14.1 13.6" fill="url(#I)"></path><path d="M259 114.3c4 8.3 2.5 19.7-3.3 26.8a27.7 27.7 0 0 1-22.4 10.2h-86.7l72.6-49c7-4.4 17.9-5.2 25.6-1.6 6 2.2 11.6 8 14.2 13.6" fill="url(#J)"></path><path d="m190.5 53.7-38.8 85.8c26.1-17 52.7-35.6 78.9-53.5 8-6.7 11.2-16.7 8.5-26.7-2-7.6-8.4-14.7-15.9-17.5a27 27 0 0 0-32.7 11.9" fill="url(#K)"></path><path d="M52 41.4c-3.7 0-9.8 1.2-13 3.3-7.3 4-13.2 12.6-10.4 19.4h-1.3c11.2-.2 28.4-4.3 36.7.4 18.6 15 31.8 44.8 44.1 62.3L74.5 54.5a24.3 24.3 0 0 0-22.1-13.1z" fill="url(#L)"></path><use mask="url(#M)" xlink:href="#N"></use><use mask="url(#O)" xlink:href="#P"></use><use mask="url(#Q)" xlink:href="#R"></use><path d="M52 41.4c-2.8 0-9 .9-12.3 3-6.1 4-8.3 7.6-10.4 15.3a24 24 0 0 0-.8 4.4l.1-.2c11.2-.2 27-4.1 35.3.6 18.6 15 31.9 44.8 44.2 62.3L74.4 54.5A24.7 24.7 0 0 0 52 41.4z" fill="url(#S)"></path><path d="M52 41.4c-2.8 0-9 .9-12.3 3-6 4-8.2 7.6-10.4 15.3a28 28 0 0 0-.7 4.4v-.2c11.3-.2 27.1-4.1 35.4.6 18.6 15 31.8 44.8 44.1 62.3L74.5 54.5a24.7 24.7 0 0 0-22.4-13.1z" fill="url(#T)"></path><path d="M213.8 41.4c2.9 0 9 .9 12.4 3 6 4 8.2 7.6 10.4 15.3.3 1.5.6 3 .7 4.4l-.1-.2c-11.2-.2-27-4.1-35.3.6-18.6 15-31.9 44.8-44.1 62.3l33.6-72.3a24.7 24.7 0 0 1 22.4-13.1z" fill="url(#U)"></path><path d="M213.8 41.4c2.9 0 9.1.9 12.4 3 6 4 8.2 7.6 10.4 15.3.4 1.5.6 3 .7 4.4v-.2c-11.3-.2-27-4.1-35.4.6-18.6 15-31.8 44.8-44.1 62.3l33.6-72.3a24.7 24.7 0 0 1 22.4-13.1z" fill="url(#V)"></path><use mask="url(#W)" xlink:href="#X"></use><use mask="url(#Y)" xlink:href="#Z"></use><path d="M213.8 41.4c3.8 0 9.8 1.2 13 3.3 7.4 4 13.3 12.6 10.5 19.4h1.2c-11.2-.2-28.3-4.3-36.6.4-18.6 15-31.9 44.8-44.2 62.3l33.7-72.3a24.3 24.3 0 0 1 22-13.1z" fill="url(#aa)"></path><path d="M213.8 41.4c2.8 0 9 .9 12.3 3 6.1 4 8.3 7.6 10.4 15.3.4 1.5.6 3 .8 4.4l-.1-.2c-11.2-.2-27-4.1-35.3.6-18.6 15-31.9 44.8-44.2 62.3l33.7-72.3a24.7 24.7 0 0 1 22.4-13.1z" fill="url(#ab)"></path><path d="M52 41.4c-2.8 0-9 .9-12.3 3-6 4-8.2 7.6-10.4 15.3a28 28 0 0 0-.7 4.4v-.2c11.3-.2 27.1-4.1 35.4.6 18.6 15 31.8 44.8 44.1 62.3L74.5 54.5a24.7 24.7 0 0 0-22.4-13.1z" fill="url(#ac)"></path><path transform="matrix(.266 0 0 .26608 0 .1)" d="M389.7 3.4h-2.9c-62.1-.7-115.5 58.2-111.9 119.7 1 17.2 3.4 32.2 20 69.4 1.1 2.8-4.4-6.9-3.4-4.4-1.1-2.4.3 1-.8-1.4a113.7 113.7 0 0 0-96.9-49.7c-63.2-1-117 61-109.7 123.4a111 111 0 0 0 47 83.4L158 362a132 132 0 0 0-43.2-6C51.2 357-5.1 419.8 5.2 483.4c6.5 56.8 57.2 98 118.5 98l762.2.9c74.5 0 110.5-68.5 110.5-111.6 0-5.3-.3-10.7-1.2-16-7.5-58-64.2-103.4-122.5-98.6a142 142 0 0 0-37 6s25.6-17.4 36.8-25.2a99 99 0 0 0 28.1-32.2c9.5-16 14.5-34.5 15.1-53.2 1-29.5-9.2-59.3-30.7-80a110.4 110.4 0 0 0-81.2-34.4 115.9 115.9 0 0 0-99.3 55c4.8-11.3 10.7-24.1 15-35.6a86 86 0 0 0 6.2-24.3C733.7 71.3 685.4 8.3 623.1 4c-5.1-.6-10.2-.6-15.3-.5-50.7.2-95.2 39.7-107.7 87.6-12.3-49-58.6-88.6-110.4-87.7z" fill="none" stroke="#9ca8bd" stroke-width=".8"></path><use mask="url(#ad)" xlink:href="#ae"></use><path transform="matrix(.266 0 0 .26608 0 .1)" d="M388.2 0c-67.4-1.7-125 65-116 131.5 1.3 13.5 5 26.4 9.8 39-37.9-41.7-108.5-50.2-153.6-14.7A118.1 118.1 0 0 0 82.6 275a117.7 117.7 0 0 0 58 79.4c-41.8-8.2-86.2 9-112.8 41.9a112.2 112.2 0 0 0-22.2 106c14.5 51 67.7 84 119.8 82.4 255.8.2 511.7.9 767.6.6 46.6-1.5 86.7-37.1 100.6-80.4 17-46.2-2.8-100.4-42-128.5a124.3 124.3 0 0 0-99-21.8c18.5-12 37.5-24.5 48.4-44.2 29.8-45.2 22.6-112.5-19.9-147.3-36.8-34.6-96.6-38.9-139.2-12.5a118 118 0 0 0-24 18.7 115.6 115.6 0 0 0-10.3-118.8A115.3 115.3 0 0 0 605.2.2c-47.1 1.3-89.3 36-105 79.6-16.3-46-62.4-81.6-112-79.7z" fill="none" stroke="#9ca8bd" stroke-width=".8"></path></g><path d="M55.3 30.6c-25-9.7-10.8-29-10.8-29 6.3 1.7 10.8-.2 10.8-.2s4.5 1.8 10.8.1c0 0 14 19.4-10.8 29" fill="#797a7d"></path><path d="M55.6 30.8c-24.9-9.7-10.8-29-10.8-29 6.3 1.7 10.8-.1 10.8-.1s4.5 1.8 10.8 0c0 0 14 19.4-10.8 29.1" fill="#fff"></path><path d="M55.3 2.6s6.3 1.6 10.7 0c0 0 2 2.8 2.7 5.3H42.5S43 5.7 45 2.8c0 0 6.6 1.4 10.3-.2" fill="#c2212b"></path><path d="M42.4 8.6H69s5.2 14.8-13.5 21.6c0 0-18.2-6-13-21.6" fill="#404eaa"></path><path d="m48.3 22 3.7-.4c.1.7.5 1.3 1 1.8.5.4 1.1.6 1.8.6.8 0 1.5-.3 2-.8.6-.6.8-1.4.8-2.5 0-1-.2-1.9-.8-2.4a3 3 0 0 0-2-.8 4 4 0 0 0-3 1.3l-3-.4 1.9-8.9h10v3h-7.2l-.6 3a6.4 6.4 0 0 1 6.9 1c1.1 1 1.7 2.4 1.7 4.1a6 6 0 0 1-1.4 3.8 6.6 6.6 0 0 1-5.3 2.2c-1.8 0-3.3-.4-4.5-1.3a5 5 0 0 1-2-3.4" fill="#7a7b7c"></path><path d="m49 22.4 3.8-.4c.1.8.4 1.3 1 1.8a3 3 0 0 0 3.8-.2c.5-.6.8-1.4.8-2.5 0-1-.3-1.8-.8-2.4a3 3 0 0 0-2.1-.7c-1.1 0-2 .4-3 1.2l-3-.4 2-8.8h10v3h-7.2l-.6 2.9a6.4 6.4 0 0 1 6.8 1c1.2 1 1.8 2.5 1.8 4.1a6 6 0 0 1-1.4 3.8 6.6 6.6 0 0 1-5.4 2.2c-1.8 0-3.3-.4-4.4-1.2a5 5 0 0 1-2-3.4" fill="#fff"></path></svg>