<svg width="436" height="331" viewBox="0 0 436 331" fill="none" xmlns="http://www.w3.org/2000/svg">
<g clip-path="url(#clip0_822_26)">
<path d="M0.546875 288.19H14.0297V303.363L24.6353 288.19H39.4018L25.5531 309.309L41.0602 331.542H26.3498L14.0297 314.945V331.542H0.546875V288.19Z" fill="#903341"/>
<mask id="mask0_822_26" style="mask-type:luminance" maskUnits="userSpaceOnUse" x="-169" y="-135" width="2553" height="1015">
<path d="M-168.203 -134.189H2383.07V879.568H-168.203V-134.189Z" fill="white"/>
</mask>
<g mask="url(#mask0_822_26)">
<path d="M61.6497 320.767C63.3671 320.767 64.9163 320.313 66.3062 319.404C67.6961 318.497 68.788 317.206 69.5847 315.533C70.3815 313.863 70.7798 311.931 70.7798 309.742C70.7798 307.553 70.3815 305.612 69.5847 303.921C68.788 302.228 67.6961 300.927 66.3062 300.018C64.9163 299.111 63.3671 298.658 61.6497 298.658C59.9735 298.658 58.442 299.111 57.0521 300.018C55.6622 300.927 54.5704 302.228 53.7736 303.921C52.9769 305.612 52.5785 307.553 52.5785 309.742C52.5785 311.931 52.9769 313.863 53.7736 315.533C54.5704 317.206 55.6622 318.497 57.0521 319.404C58.442 320.313 59.9735 320.767 61.6497 320.767ZM61.6497 332.223C57.6039 332.223 53.8563 331.233 50.4037 329.25C46.9511 327.27 44.2008 324.554 42.1617 321.107C40.1167 317.659 39.0957 313.872 39.0957 309.742C39.0957 305.573 40.1167 301.765 42.1617 298.315C44.2008 294.868 46.9511 292.154 50.4037 290.171C53.8563 288.191 57.6039 287.198 61.6497 287.198C65.6954 287.198 69.4519 288.191 72.9252 290.171C76.3984 292.154 79.1575 294.868 81.1996 298.315C83.2416 301.765 84.2656 305.573 84.2656 309.742C84.2656 313.872 83.2416 317.659 81.1996 321.107C79.1575 324.554 76.3984 327.27 72.9252 329.25C69.4519 331.233 65.6954 332.223 61.6497 332.223Z" fill="#903341"/>
<path d="M90.2715 288.19H103.754V306.956H115.402V288.19H128.881V331.542H115.402V318.105H103.754V331.542H90.2715V288.19Z" fill="#903341"/>
<path d="M136.849 288.19H171.844V299.337H150.331V331.542H136.849V288.19Z" fill="#903341"/>
<path d="M192.682 307.078H199.056C200.487 307.078 201.62 306.708 202.458 305.963C203.294 305.22 203.716 304.272 203.716 303.115C203.716 302 203.294 301.093 202.458 300.389C201.62 299.689 200.487 299.337 199.056 299.337H192.682V307.078ZM179.199 331.542V288.19H199.056C203.14 288.19 206.554 288.894 209.29 290.295C212.025 291.7 214.041 293.528 215.325 295.776C216.614 298.028 217.26 300.476 217.26 303.115C217.26 305.799 216.614 308.289 215.325 310.579C214.041 312.869 212.025 314.718 209.29 316.122C206.554 317.527 203.14 318.228 199.056 318.228H192.682V331.542H179.199Z" fill="#903341"/>
<path d="M223.388 288.19H259.669V299.337H236.87V304.29H255.624V315.44H236.87V320.396H259.669V331.542H223.388V288.19Z" fill="#903341"/>
<path d="M285.533 332.285C281.366 332.285 277.574 331.286 274.163 329.282C270.751 327.281 268.075 324.553 266.133 321.106C264.194 317.662 263.224 313.892 263.224 309.804C263.224 305.677 264.194 301.899 266.133 298.472C268.075 295.043 270.751 292.321 274.163 290.296C277.574 288.274 281.366 287.26 285.533 287.26C289.089 287.26 292.426 288.089 295.554 289.738C298.679 291.39 301.282 293.621 303.368 296.427L294.48 303.178C293.418 301.732 292.222 300.628 290.895 299.865C289.567 299.102 287.902 298.72 285.902 298.72C283.898 298.72 282.142 299.224 280.628 300.235C279.117 301.249 277.955 302.6 277.134 304.29C276.317 305.987 275.91 307.821 275.91 309.804C275.91 311.745 276.317 313.564 277.134 315.255C277.955 316.949 279.117 318.3 280.628 319.311C282.142 320.324 283.898 320.828 285.902 320.828C287.902 320.828 289.567 320.447 290.895 319.68C292.222 318.92 293.418 317.814 294.48 316.37L303.368 323.244C301.323 326.053 298.738 328.259 295.616 329.87C292.488 331.48 289.127 332.285 285.533 332.285Z" fill="#903341"/>
<path d="M329.841 332.285C325.675 332.285 321.883 331.286 318.471 329.282C315.06 327.281 312.384 324.553 310.442 321.106C308.503 317.662 307.532 313.892 307.532 309.804C307.532 305.677 308.503 301.899 310.442 298.472C312.384 295.043 315.06 292.321 318.471 290.296C321.883 288.274 325.675 287.26 329.841 287.26C333.397 287.26 336.735 288.089 339.863 289.738C342.988 291.39 345.59 293.621 347.677 296.427L338.788 303.178C337.726 301.732 336.531 300.628 335.203 299.865C333.875 299.102 332.211 298.72 330.21 298.72C328.206 298.72 326.451 299.224 324.937 300.235C323.426 301.249 322.263 302.6 321.443 304.29C320.626 305.987 320.218 307.821 320.218 309.804C320.218 311.745 320.626 313.564 321.443 315.255C322.263 316.949 323.426 318.3 324.937 319.311C326.451 320.324 328.206 320.828 330.21 320.828C332.211 320.828 333.875 320.447 335.203 319.68C336.531 318.92 337.726 317.814 338.788 316.37L347.677 323.244C345.632 326.053 343.05 328.259 339.925 329.87C336.797 331.48 333.435 332.285 329.841 332.285Z" fill="#903341"/>
<path d="M364.495 299.232H353.612V288.046H388.967V299.232H378.022V331.542H364.495V299.232Z" fill="#903341"/>
<path d="M419.533 320.359C420.35 320.359 421.058 320.102 421.654 319.581C422.247 319.062 422.545 318.391 422.545 317.562C422.545 316.733 422.256 316.062 421.684 315.543C421.108 315.024 420.391 314.765 419.533 314.765H410.494V320.359H419.533ZM410.494 299.231V304.823H419.533C420.35 304.823 421.058 304.545 421.654 303.985C422.247 303.427 422.545 302.753 422.545 301.966C422.545 301.137 422.247 300.472 421.654 299.977C421.058 299.479 420.35 299.231 419.533 299.231H410.494ZM419.839 288.046C425.414 288.088 429.513 289.278 432.136 291.618C434.762 293.959 436.073 297.222 436.073 301.405C436.073 302.98 435.724 304.483 435.028 305.911C434.331 307.339 433.367 308.634 432.136 309.797C433.367 310.957 434.331 312.248 435.028 313.676C435.724 315.108 436.073 316.61 436.073 318.182C436.073 326.967 430.681 331.419 419.901 331.541H396.964V288.046H419.839Z" fill="#903341"/>
<path d="M180.364 124.384C180.394 125.391 180.417 126.405 180.417 127.431C180.417 126.399 180.441 125.38 180.465 124.357C180.429 124.366 180.397 124.375 180.364 124.384Z" fill="white"/>
<path d="M142.648 187.971L98.0155 123.974L136.572 65.1875L174.209 7.80222L179.579 -0.386307H128.661H128.62H92.6035L88.1181 6.0339L30.1677 88.9628V45.5332C25.7679 50.8322 21.7576 56.5368 18.1397 62.6438C6.55142 82.1937 0.764648 103.789 0.764648 127.43C0.764648 150.842 6.55142 172.321 18.1397 191.868C21.7576 197.975 25.7679 203.683 30.1677 208.979V157.161L100.468 251.874C109.56 253.884 118.949 254.898 128.64 254.898C147.34 254.898 164.963 251.159 181.506 243.689L142.648 187.971Z" fill="#903341"/>
</g>
<path d="M136.572 65.1891C143.212 66.2268 149.373 68.5946 155.054 72.3012C161.608 76.5922 166.996 82.425 171.228 89.7935C171.603 88.541 172.007 87.3005 172.438 86.069C178.452 68.9912 188.588 53.4401 201.348 40.7279C204.925 37.1644 208.749 33.7889 212.783 30.6727C206.601 25.3678 199.873 20.6324 192.581 16.4695C186.605 13.0611 180.482 10.1775 174.211 7.80388L136.572 65.1891Z" fill="url(#paint0_linear_822_26)"/>
<path d="M244.528 16.4694C234.929 21.9801 226.294 28.4987 218.616 36.0073C210.64 43.8112 203.693 52.6855 197.791 62.6423C186.206 82.1952 180.416 103.788 180.416 127.432C180.416 127.462 180.419 127.489 180.419 127.518C180.419 127.548 180.416 127.578 180.416 127.608C180.416 128.019 180.431 128.431 180.44 128.845C180.257 140.621 178.008 151.052 173.679 160.138C169.161 169.618 162.964 176.939 155.088 182.086C151.181 184.641 147.05 186.559 142.688 187.844L142.786 187.99C142.753 187.996 142.721 188.011 142.688 188.023L181.546 243.741C185.291 242.047 188.983 240.169 192.618 238.093C202.259 232.591 210.92 226.174 218.616 218.681C218.625 218.672 218.631 218.669 218.637 218.663C218.643 218.657 218.651 218.651 218.657 218.645C226.648 210.85 233.595 201.99 239.491 192.045C251.073 172.499 256.866 151.019 256.866 127.608C256.866 127.578 256.866 127.548 256.866 127.518C256.866 127.489 256.866 127.462 256.866 127.432C256.866 126.513 256.845 125.601 256.822 124.688C256.851 124.703 256.884 124.712 256.913 124.724C257.238 113.494 259.48 103.448 263.641 94.6002C268.159 85.0042 274.353 77.6298 282.235 72.4769C290.105 67.33 298.793 64.7536 308.292 64.7536C318.024 64.7536 326.827 67.33 334.703 72.4769C342.579 77.6298 348.776 85.0042 353.293 94.6002C356.389 101.178 358.422 108.422 359.393 116.321C359.393 116.327 359.393 116.336 359.396 116.339C359.532 117.442 359.644 118.554 359.738 119.682C359.948 122.204 360.072 124.781 360.072 127.432C360.072 139.843 357.811 150.781 353.293 160.264C348.776 169.746 342.579 177.064 334.703 182.211C326.827 187.361 318.024 189.934 308.292 189.934C298.793 189.934 290.105 187.361 282.235 182.211C274.353 177.064 268.159 169.746 263.641 160.264C262.965 158.85 262.349 157.398 261.776 155.916C256.866 181.397 242.545 205.092 225.86 225.038C231.618 229.857 237.832 234.202 244.528 238.043C264.102 249.282 285.36 254.9 308.292 254.9C331.229 254.9 352.538 249.282 372.233 238.043C391.921 226.806 407.558 211.416 419.146 191.867C429.498 174.392 435.211 155.367 436.309 134.803C436.312 134.803 436.315 134.803 436.318 134.803C436.342 134.356 436.353 133.903 436.374 133.453C436.403 132.77 436.436 132.093 436.457 131.404C436.495 130.145 436.519 128.878 436.519 127.608C436.519 127.578 436.516 127.548 436.516 127.518C436.516 127.489 436.519 127.462 436.519 127.432C436.519 103.788 430.729 82.1952 419.146 62.6423C407.558 43.1014 391.921 27.7055 372.233 16.4694C352.538 5.23326 331.229 -0.384819 308.292 -0.384819C285.36 -0.384819 264.102 5.23326 244.528 16.4694Z" fill="url(#paint1_linear_822_26)"/>
</g>
<defs>
<linearGradient id="paint0_linear_822_26" x1="149.324" y1="37.5564" x2="199.023" y2="60.49" gradientUnits="userSpaceOnUse">
<stop stop-color="#393633"/>
<stop offset="0.550141" stop-color="#903341"/>
<stop offset="0.712719" stop-color="#903341"/>
<stop offset="0.909934" stop-color="#903341"/>
<stop offset="1" stop-color="#903341"/>
</linearGradient>
<linearGradient id="paint1_linear_822_26" x1="173.715" y1="233.612" x2="410.857" y2="50.2661" gradientUnits="userSpaceOnUse">
<stop stop-color="#393633"/>
<stop offset="0.205829" stop-color="#903341"/>
<stop offset="0.4" stop-color="#903341"/>
<stop offset="1" stop-color="#903341"/>
</linearGradient>
<clipPath id="clip0_822_26">
<rect width="436" height="331" fill="white"/>
</clipPath>
</defs>
</svg>
