<?xml version="1.0" encoding="UTF-8" standalone="no"?>
<!-- Created with Inkscape (http://www.inkscape.org/) -->

<svg
   version="1.1"
   id="svg1"
   width="1000"
   height="588.39331"
   viewBox="0 0 1000 588.39331"
   xml:space="preserve"
   xmlns="http://www.w3.org/2000/svg"
   xmlns:svg="http://www.w3.org/2000/svg"><defs
     id="defs1"><style
       id="style1">.cls-1{fill:#fff;stroke-width:0px;}</style></defs><g
     id="g1"
     transform="translate(328.84786,195.76448)"><g
       id="g10"
       style="fill:#002023;fill-opacity:1"
       transform="matrix(3.3441079,0,0,3.3441079,-401.19909,-230.73564)"><path
         style="font-weight:bold;font-size:43.939px;line-height:0.95;font-family:'F37 Bolton';-inkscape-font-specification:'F37 Bolton Bold';text-align:end;letter-spacing:0px;word-spacing:0px;text-anchor:end;fill:#002023;fill-opacity:1;stroke-width:7.48959;paint-order:markers fill stroke"
         d="m 308.58562,43.54361 q -5.62419,0 -9.18325,-2.724218 -3.51512,-2.768156 -3.42724,-8.480226 h 6.45903 q 0,2.899974 1.71362,4.262083 1.75756,1.31817 4.74541,1.31817 5.27268,0 5.27268,-3.602998 0,-1.493926 -1.01059,-2.460584 -1.0106,-1.010597 -3.25149,-1.669682 l -5.27268,-1.537865 q -7.90902,-2.284828 -7.90902,-8.963556 0,-4.569656 3.07573,-6.898423 3.11967,-2.328767 8.04084,-2.328767 3.29542,0 6.01964,1.054536 2.72422,1.054536 4.34996,3.339364 1.66968,2.284828 1.66968,5.756009 h -6.45903 q -0.26363,-4.657534 -5.58025,-4.657534 -2.0212,0 -3.33937,0.746963 -1.27423,0.703024 -1.27423,2.416645 0,1.230292 0.87878,2.19695 0.92272,0.966658 3.16361,1.625743 l 5.36056,1.625743 q 3.55906,1.098475 5.79995,3.163608 2.24089,2.065133 2.24089,6.15146 0,4.481778 -3.11967,7.074178 -3.07573,2.592401 -8.96356,2.592401 z"
         id="path9" /><path
         style="font-weight:bold;font-size:43.939px;line-height:0.95;font-family:'F37 Bolton';-inkscape-font-specification:'F37 Bolton Bold';text-align:end;letter-spacing:0px;word-spacing:0px;text-anchor:end;fill:#002023;fill-opacity:1;stroke-width:7.48959;paint-order:markers fill stroke"
         d="m 290.20317,10.677239 q 1.71362,0 2.98785,1.274231 1.27423,1.274231 1.27423,3.95451 v 0.131817 q 0,2.372706 -1.0106,3.998449 -1.01059,1.625743 -2.5924,2.416645 -1.53786,0.790902 -3.1636,0.790902 v -2.63634 q 1.31817,0 2.15301,-0.746963 0.83484,-0.790902 0.83484,-1.977255 h -0.17576 q -1.71362,0 -2.76816,-1.054536 -1.01059,-1.098475 -1.01059,-2.724218 0,-1.493926 0.92272,-2.460584 0.96665,-0.966658 2.54846,-0.966658 z"
         id="path8" /><path
         style="font-weight:bold;font-size:43.939px;line-height:0.95;font-family:'F37 Bolton';-inkscape-font-specification:'F37 Bolton Bold';text-align:end;letter-spacing:0px;word-spacing:0px;text-anchor:end;fill:#002023;fill-opacity:1;stroke-width:7.48959;paint-order:markers fill stroke"
         d="M 257.75938,42.752708 V 11.248446 h 11.20445 q 4.78935,0 8.39235,1.889377 3.60299,1.889377 5.53631,5.404497 1.97725,3.51512 1.97725,8.304471 0,4.745412 -1.88937,8.34841 -1.88938,3.602998 -5.49238,5.580252 -3.603,1.977255 -8.5681,1.977255 z m 10.10597,-6.239337 q 5.09693,0 7.68933,-2.284828 2.63634,-2.284828 2.63634,-7.118118 0,-9.622641 -10.28173,-9.622641 h -3.42724 v 19.025587 z"
         id="path7" /><path
         style="font-weight:bold;font-size:43.939px;line-height:0.95;font-family:'F37 Bolton';-inkscape-font-specification:'F37 Bolton Bold';text-align:end;letter-spacing:0px;word-spacing:0px;text-anchor:end;fill:#002023;fill-opacity:1;stroke-width:7.48959;paint-order:markers fill stroke"
         d="M 228.59661,42.752708 V 11.248446 h 6.23933 l 11.16051,16.828637 q 0.57121,0.87878 1.71362,2.812096 h 0.17576 V 11.248446 h 6.37115 v 31.504262 h -6.28328 l -11.33626,-17.09227 q -1.05453,-1.625743 -1.49392,-2.592401 h -0.17576 v 19.684671 z"
         id="path6" /><path
         style="font-weight:bold;font-size:43.939px;line-height:0.95;font-family:'F37 Bolton';-inkscape-font-specification:'F37 Bolton Bold';text-align:end;letter-spacing:0px;word-spacing:0px;text-anchor:end;fill:#002023;fill-opacity:1;stroke-width:7.48959;paint-order:markers fill stroke"
         d="m 226.48923,42.752708 h -6.59085 l -2.32877,-7.293873 h -11.42414 l -2.5924,7.293873 h -6.41509 l 11.24838,-31.504262 h 7.9969 z m -18.23469,-13.13776 h 7.46963 l -2.76815,-8.612044 q -0.43939,-1.31817 -0.70303,-2.63634 h -0.17575 q -0.35152,1.581804 -0.74697,2.680279 z"
         id="path5" /><path
         style="font-weight:bold;font-size:43.939px;line-height:0.95;font-family:'F37 Bolton';-inkscape-font-specification:'F37 Bolton Bold';text-align:end;letter-spacing:0px;word-spacing:0px;text-anchor:end;fill:#002023;fill-opacity:1;stroke-width:7.48959;paint-order:markers fill stroke"
         d="M 195.60481,42.752708 H 175.30499 V 11.248446 h 6.72267 V 36.55731 h 13.57715 z"
         id="path4" /><path
         style="font-weight:bold;font-size:43.939px;line-height:0.95;font-family:'F37 Bolton';-inkscape-font-specification:'F37 Bolton Bold';text-align:end;letter-spacing:0px;word-spacing:0px;text-anchor:end;fill:#002023;fill-opacity:1;stroke-width:7.48959;paint-order:markers fill stroke"
         d="M 163.73417,42.752708 H 157.0115 V 17.399906 h -8.87568 v -6.15146 h 24.47402 v 6.15146 h -8.87567 z"
         id="path3" /><path
         style="font-weight:bold;font-size:43.939px;line-height:0.95;font-family:'F37 Bolton';-inkscape-font-specification:'F37 Bolton Bold';text-align:end;letter-spacing:0px;word-spacing:0px;text-anchor:end;fill:#002023;fill-opacity:1;stroke-width:7.48959;paint-order:markers fill stroke"
         d="M 122.62945,42.752708 V 11.248446 h 12.34686 q 5.93176,0 8.65598,2.63634 2.72422,2.592401 2.72422,6.59085 0,3.07573 -1.62575,5.360558 -1.62574,2.284828 -5.22874,3.339364 v 0.175756 q 0.52727,0.395451 1.05454,1.054536 0.52727,0.659085 1.53786,2.416645 l 5.84389,9.930213 h -7.38175 l -7.42569,-12.566553 h -3.77876 v 12.566553 z m 11.59989,-17.927111 q 2.54846,0 4.08633,-0.922719 1.5818,-0.966658 1.5818,-3.163608 0,-2.153011 -1.53786,-2.943913 -1.53787,-0.834841 -4.13027,-0.834841 h -4.87723 v 7.865081 z"
         id="path2" /><path
         style="font-weight:bold;font-size:43.939px;line-height:0.95;font-family:'F37 Bolton';-inkscape-font-specification:'F37 Bolton Bold';text-align:end;letter-spacing:0px;word-spacing:0px;text-anchor:end;fill:#002023;fill-opacity:1;stroke-width:7.48959;paint-order:markers fill stroke"
         d="m 104.47724,43.54361 q -4.877226,0 -8.436285,-2.153011 -3.559059,-2.196949 -5.448436,-5.887825 -1.889377,-3.734815 -1.889377,-8.304471 0,-4.745412 1.933316,-8.568105 1.933316,-3.822693 5.492375,-5.975704 3.602998,-2.19695 8.348407,-2.19695 4.74541,0 8.30447,2.19695 3.55906,2.153011 5.49238,5.975704 1.93331,3.822693 1.93331,8.568105 0,4.569656 -1.88937,8.304471 -1.84544,3.734815 -5.4045,5.887825 -3.55906,2.153011 -8.43629,2.153011 z m 0,-6.283276 q 2.85604,0 4.92117,-1.362109 2.06513,-1.406048 3.11967,-3.690876 1.05454,-2.284828 1.05454,-5.009046 0,-2.899974 -1.05454,-5.27268 -1.05454,-2.372706 -3.11967,-3.778754 -2.02119,-1.406048 -4.92117,-1.406048 -2.89997,0 -4.965104,1.406048 -2.021194,1.406048 -3.07573,3.778754 -1.010597,2.372706 -1.010597,5.27268 0,2.724218 1.010597,5.009046 1.054536,2.284828 3.07573,3.690876 2.065134,1.362109 4.965104,1.362109 z"
         id="path1" /><path
         style="font-weight:bold;font-size:43.939px;line-height:0.95;font-family:'F37 Bolton';-inkscape-font-specification:'F37 Bolton Bold';text-align:end;letter-spacing:0px;word-spacing:0px;text-anchor:end;fill:#002023;fill-opacity:1;stroke-width:7.48959;paint-order:markers fill stroke"
         d="M 63.167596,42.752708 V 11.248446 h 12.610492 q 5.756009,0 8.436288,2.724218 2.724218,2.680279 2.724218,6.942362 0,4.306022 -2.856035,7.162057 -2.856035,2.856035 -9.22719,2.856035 h -4.965107 v 11.81959 z M 75.206881,25.396804 q 2.240889,0 3.734815,-0.966658 1.493926,-1.010597 1.493926,-3.383303 0,-4.086327 -5.184802,-4.086327 h -5.360558 v 8.436288 z"
         id="text1" /></g><path
       d="M 529.68812,-43.714089 V 203.31836 c 0,22.53397 -10.37877,48.87042 -39.61377,48.87042 -29.23492,0 -40.33051,-26.33645 -40.33051,-48.87042 V -43.714089 H 310.92444 V 203.31836 c 0,22.53397 -10.56574,48.87042 -40.29941,48.87042 -29.73363,0 -39.6137,-26.33645 -39.6137,-48.87042 V -43.714089 H 92.191925 V 175.57939 c -0.654508,42.23176 -31.136186,77.48204 -68.007149,78.69756 H -120.05776 c -38.61635,0 -70.03304,-35.65542 -70.03304,-79.44557 0,-43.79016 31.41669,-80.131258 70.03304,-80.131258 H 15.58256 V -43.714089 h -135.64032 c -115.10102,0 -208.7901,98.021317 -208.7901,218.545469 0,120.52415 93.68908,217.79746 208.82126,217.79746 H 19.229209 c 46.626362,0 93.595561,-18.85622 129.406811,-49.68073 34.06596,33.81659 71.27976,49.68073 116.0049,49.68073 44.72516,0 81.8143,-15.77064 115.75552,-49.3691 33.94126,33.59846 71.06159,49.3691 115.72439,49.3691 96.68114,0 172.38663,-79.3209 172.38663,-180.6148 V -43.714089 Z"
       class="cls-1"
       id="path3-0"
       style="fill:#ff4500;fill-opacity:1" /></g></svg>
