<svg xmlns="http://www.w3.org/2000/svg" xmlns:xlink="http://www.w3.org/1999/xlink" width="168.919" height="26" viewBox="0 0 168.919 26">
  <defs>
    <clipPath id="clip-path">
      <rect id="Rectangle_2" data-name="Rectangle 2" width="168.919" height="26" transform="translate(0 0)" fill="none"/>
    </clipPath>
  </defs>
  <g id="crete_tv_logo" data-name="crete tv logo" clip-path="url(#clip-path)">
    <path id="Path_1" data-name="Path 1" d="M90.2.1,90.032.088h-.141c-.031,0-.128-.007-.128-.007l-.124.007H74.611a2.153,2.153,0,0,0-1.873,1.118,2.162,2.162,0,0,0-.3,1.09v11.13c-.007.075-.022,10.13-.022,10.13a2.215,2.215,0,1,0,4.428,0V15.837H89.625l.138.007.1-.006h.168l.133-.013a7.805,7.805,0,0,0,7.306-7.86A7.805,7.805,0,0,0,90.2.1m-.165,11.3L76.842,11.4V4.529h13.19a3.454,3.454,0,0,1,0,6.873" transform="translate(-45.359 -0.051)" fill="#f87329"/>
    <path id="Path_2" data-name="Path 2" d="M2.181.072A2.171,2.171,0,0,0,0,2.23V23.7a2.18,2.18,0,0,0,4.36,0V2.23A2.171,2.171,0,0,0,2.181.072" transform="translate(0 -0.045)" fill="#f87329"/>
    <path id="Path_3" data-name="Path 3" d="M34.964,1.785A1.968,1.968,0,0,0,32.142,1.1l-15.6,10.219c-1.954,1.036-1.132,3.218-.179,3.895L31.6,26.047a1.966,1.966,0,0,0,2.844-.573,2.285,2.285,0,0,0-.611-3.024L21.1,13.4,34.249,4.783a2.276,2.276,0,0,0,.715-3" transform="translate(-9.615 -0.481)" fill="#f87329"/>
    <path id="Path_4" data-name="Path 4" d="M286.669.027A2.2,2.2,0,0,0,284.5,2.244v9.224h-15.64V8.211a2.171,2.171,0,1,0-4.341,0V23.685a2.171,2.171,0,1,0,4.341,0V15.9H284.5v7.784a2.172,2.172,0,1,0,4.343,0V2.244A2.2,2.2,0,0,0,286.669.027" transform="translate(-165.693 -0.017)" fill="#f87329"/>
    <path id="Path_5" data-name="Path 5" d="M165.526,6.1a2.2,2.2,0,0,0-2.169,2.217v3.278h-15.64V2.44a2.172,2.172,0,1,0-4.343,0V23.809a2.172,2.172,0,1,0,4.343,0V16.024h15.64v7.784a2.171,2.171,0,1,0,4.34,0V8.313A2.2,2.2,0,0,0,165.526,6.1" transform="translate(-89.81 -0.14)" fill="#f87329"/>
    <path id="Path_6" data-name="Path 6" d="M226.508,2.417a2.155,2.155,0,0,0-2.1-2.2H199.118a2.157,2.157,0,0,0-2.1,2.2,2.158,2.158,0,0,0,2.1,2.2h10.473v19.3a2.172,2.172,0,1,0,4.343,0V4.621h10.475a2.156,2.156,0,0,0,2.1-2.2" transform="translate(-123.414 -0.135)" fill="#f87329"/>
    <path id="Path_7" data-name="Path 7" d="M377.373,4.475a2.173,2.173,0,0,0-2.933.9l-7.965,13.69c-1.3-2.744-6.385-13.472-6.96-14.358A10.155,10.155,0,0,0,354.342.673a11.62,11.62,0,0,0-3.9-.673l-9.917.009H336.7a2.1,2.1,0,0,0-2.048,2.146A2.1,2.1,0,0,0,336.7,4.3l5.594,0V23.653a2.179,2.179,0,0,0,4.358,0V4.3l3.724,0a7.65,7.65,0,0,1,2.475.443,5.755,5.755,0,0,1,2.979,2.31c1.546,2.364,7.55,16.1,8.389,17.427a2.913,2.913,0,0,0,1.259,1.055,2.045,2.045,0,0,0,1.171.183c.04,0,.083,0,.125-.01v-.013a3.383,3.383,0,0,0,2.021-1.639L378.3,7.4a2.17,2.17,0,0,0-.93-2.923" transform="translate(-209.629 0)" fill="#818386"/>
  </g>
</svg>
