<?xml version="1.0" encoding="utf-8"?>
<!-- Generator: Adobe Illustrator 25.0.0, SVG Export Plug-In . SVG Version: 6.00 Build 0)  -->
<svg version="1.1" id="Layer_1" xmlns="http://www.w3.org/2000/svg" xmlns:xlink="http://www.w3.org/1999/xlink" x="0px" y="0px"
	 viewBox="0 0 165 60" style="enable-background:new 0 0 165 60;" xml:space="preserve">
<style type="text/css">
	.st0{fill:none;}
	.st1{fill-rule:evenodd;clip-rule:evenodd;fill:#303c64;}
</style>
<rect class="st0" width="165" height="60"/>
<g>
	<path class="st1" d="M133.254,25.127c3.698,0,4.276-2.196,4.276-3.63s-0.578-3.63-4.276-3.63c-3.698,0-4.276,2.196-4.276,3.63
		S129.556,25.127,133.254,25.127z M133.254,19.177c1.694,0,2.293,1.251,2.293,2.32c0,1.07-0.6,2.32-2.293,2.32
		c-1.696,0-2.293-1.251-2.293-2.32C130.961,20.427,131.558,19.177,133.254,19.177z"/>
	<polygon class="st1" points="140.748,20.139 140.767,20.139 144.514,24.935 146.546,24.935 146.546,18.058 144.736,18.058 
		144.736,22.855 144.716,22.855 141.104,18.058 138.937,18.058 138.937,24.935 140.748,24.935 	"/>
	<polygon class="st1" points="132.955,29.501 131.174,26.506 128.978,26.506 132.021,30.984 132.021,33.383 133.89,33.383 
		133.89,30.984 136.933,26.506 134.737,26.506 	"/>
	<path class="st1" d="M141.73,33.576c3.698,0,4.276-2.196,4.276-3.633c0-1.434-0.578-3.63-4.276-3.63
		c-3.698,0-4.276,2.196-4.276,3.63C137.455,31.38,138.033,33.576,141.73,33.576z M141.73,27.623c1.696,0,2.293,1.253,2.293,2.32
		c0,1.07-0.597,2.323-2.293,2.323c-1.696,0-2.293-1.253-2.293-2.323C139.437,28.876,140.034,27.623,141.73,27.623z"/>
	<path class="st1" d="M150.949,33.575c3.516,0,3.612-1.888,3.612-2.658v-4.411h-1.869v3.949c0,0.674-0.029,1.811-1.743,1.811
		c-1.715,0-1.743-1.137-1.743-1.811v-3.949h-1.869v4.411C147.337,31.688,147.433,33.575,150.949,33.575z"/>
	<path class="st1" d="M163.326,31.891c0-0.675-0.124-1.715-0.943-1.839V30.03c0.778-0.278,1.116-0.818,1.116-1.656
		c0-0.702-0.316-1.869-2.223-1.869h-5v6.877h1.869v-2.523h2.32c0.578,0,0.991,0.24,0.991,1.205c0,0.721,0.011,1.002,0.184,1.318
		h2.042C163.356,33.036,163.326,32.226,163.326,31.891z M160.619,29.549h-2.474v-1.734h2.377c0.454,0,0.994,0.176,0.994,0.859
		C161.516,29.319,161.033,29.549,160.619,29.549z"/>
	<path class="st1" d="M134.217,37.785l-2.341-0.376c-0.482-0.077-0.79-0.279-0.79-0.645c0-0.462,0.501-0.809,1.271-0.809
		c0.751,0,1.608,0.096,1.724,0.992h2.071c-0.125-1.946-2.225-2.186-3.641-2.186c-2.157,0-3.41,0.626-3.41,2.157
		c0,1.406,1.156,1.763,2.35,1.946l1.705,0.26c0.742,0.116,1.165,0.26,1.165,0.79c0,0.597-0.597,0.857-1.474,0.857
		c-0.809,0-1.753-0.164-1.772-1.108h-2.1c0.019,2.148,2.196,2.36,3.872,2.36c2.707,0,3.573-1.031,3.573-2.312
		C136.423,38.459,135.469,37.987,134.217,37.785z"/>
	<rect x="137.762" y="34.953" class="st1" width="1.869" height="6.877"/>
	<path class="st1" d="M145.709,34.954h-4.287v6.877h4.449c2.158,0,3.217-1.369,3.217-3.439
		C149.088,36.321,148.067,34.954,145.709,34.954z M145.372,40.521h-2.08v-4.257h1.907c1.424,0,1.964,0.789,1.964,2.061
		C147.162,39.778,146.603,40.521,145.372,40.521z"/>
	<polygon class="st1" points="152.509,38.941 156.834,38.941 156.834,37.688 152.509,37.688 152.509,36.263 157.065,36.263 
		157.065,34.953 150.641,34.953 150.641,41.83 157.103,41.83 157.103,40.52 152.509,40.52 	"/>
	<rect x="121.206" y="18.026" class="st1" width="1.185" height="24.108"/>
	<polygon class="st1" points="11.094,33.404 6.84,20.318 1.317,20.318 1.317,43.203 6.413,43.203 5.915,30.175 10.166,43.203 
		15.659,43.203 15.659,20.318 10.563,20.318 	"/>
	<polygon class="st1" points="22.615,33.683 29.328,33.683 29.328,29.105 22.615,29.105 22.615,24.895 29.542,24.895 29.542,20.318 
		17.245,20.318 17.245,43.203 29.908,43.203 29.908,38.626 22.615,38.626 	"/>
	<polygon class="st1" points="47.18,36.634 45.072,20.318 39.885,20.318 37.684,36.587 36.04,20.318 30.853,20.318 34.697,43.203 
		40.647,43.203 42.45,26.819 44.126,43.203 50.168,43.203 53.982,20.318 48.886,20.318 	"/>
	<path class="st1" d="M66.125,31.455c-1.251-1.159-2.99-1.953-5.004-3.234c-1.068-0.732-1.77-1.434-1.617-2.807
		c0.122-1.007,0.763-1.617,1.861-1.526c1.77,0.122,1.709,1.953,1.77,3.295h4.943c0.244-4.302-2.136-7.415-6.804-7.415
		c-4.15,0-6.743,2.197-6.743,6.499c0,2.014,0.58,3.418,1.556,4.577c1.007,1.16,2.411,2.044,4.058,2.99
		c1.404,0.854,2.99,1.587,2.99,3.509c0,1.159-0.549,2.288-1.8,2.288c-1.709,0-2.136-1.159-2.136-2.472v-1.617h-4.974v2.441
		c0,3.021,2.075,5.767,6.988,5.767c4.455,0,6.896-2.441,6.896-6.835C68.108,34.14,67.376,32.615,66.125,31.455z"/>
	<path class="st1" d="M99.744,30.705c-1.623-0.003-2.731-0.005-2.777-0.008c-0.224-0.008-1.315-0.219-1.953-1.086
		c-0.332-0.448-0.581-1.075-0.44-1.937c0.37-2.299,2.688-2.172,2.688-2.172s-1.113-0.791-0.975-2.245
		c0.057-0.57,0.178-1.275,0.962-1.91c0.886-0.718,1.848-0.597,2.496-0.37v-6.264H87.022L69.705,33.268v6.893h20.277v5.124h9.762
		v-5.124h4l1.656-7.036h-5.656V30.705z M89.982,33.125h-8.495l8.495-9.951V33.125z"/>
	<path class="st1" d="M98.645,26.451c-0.189-0.124-0.37-0.246-0.538-0.327c-0.24-0.119-0.438-0.176-0.484-0.186
		c-0.124-0.03-0.262-0.043-0.405-0.046c0,0-0.135,0-0.205,0c-0.546,0-1.045,0.246-1.499,0.694c-0.243,0.251-0.389,0.527-0.483,0.835
		c-0.038,0.132-0.068,0.259-0.081,0.394c-0.011,0.092-0.011,0.186-0.014,0.273c0,0.232,0.043,0.448,0.111,0.656
		c0.092,0.316,0.248,0.605,0.508,0.859c0.224,0.216,0.465,0.408,0.708,0.516c0.254,0.111,0.597,0.194,0.867,0.189l2.615,0.003
		l4.519,0.005c0,0-2.871-1.98-4.519-3.112C99.179,26.815,98.761,26.526,98.645,26.451z"/>
	<path class="st1" d="M98.431,21.27c-0.338,0.073-0.61,0.192-0.864,0.386c-0.105,0.084-0.416,0.381-0.543,0.6
		c-0.116,0.197-0.208,0.373-0.265,0.581c-0.073,0.257-0.103,0.74-0.076,0.929c0.041,0.305,0.132,0.621,0.267,0.845
		c0.143,0.235,0.321,0.427,0.546,0.578l2.247,1.532l4.246,2.89l-2.912-6.62c-0.032-0.07-0.17-0.421-0.443-0.875
		c-0.154-0.254-0.481-0.521-0.891-0.694C99.355,21.254,98.888,21.173,98.431,21.27z"/>
	<path class="st1" d="M102.894,26.213l1.113,2.604l1.016-7.153c0.011-0.078,0.035-0.23,0.043-0.297
		c0.041-0.297,0.068-0.567,0.062-0.743c-0.003-0.068-0.014-0.165-0.022-0.243c-0.016-0.13-0.019-0.167-0.051-0.305
		c0,0-0.043-0.221-0.178-0.486c-0.059-0.116-0.149-0.24-0.24-0.357c-0.208-0.267-0.543-0.459-0.781-0.57
		c-0.316-0.135-0.597-0.194-0.916-0.192c-0.132,0-0.448,0.035-0.578,0.078c-0.092,0.03-0.2,0.07-0.281,0.103
		c-0.213,0.084-0.386,0.192-0.554,0.327c-0.262,0.194-0.475,0.475-0.619,0.805c-0.124,0.284-0.173,0.567-0.186,0.829
		c-0.014,0.276,0.035,0.54,0.135,0.789L102.894,26.213z"/>
	<path class="st1" d="M106.98,28.206c0.07-0.205,0.143-0.413,0.224-0.602c0.467-1.094,0.918-2.188,1.386-3.282
		c0.37-0.862,0.737-1.694,1.107-2.553c0.035-0.086,0.073-0.176,0.111-0.262c0.213-0.484,0.235-1.113,0.011-1.677
		c-0.011-0.027-0.232-0.727-1.099-1.167c-0.267-0.14-0.708-0.297-1.507-0.124c-0.184,0.046-0.945,0.227-1.391,1.132
		c-0.154,0.292-0.232,0.737-0.232,1.056c0,0.014-0.011,0.119-0.011,0.135c0.2,0,0.354-0.003,0.543-0.003
		c0.189,0.003,0.278-0.005,0.392,0.105c-0.078,0.089-0.208,0.157-0.286,0.208c-0.054,0.049-0.205,0.119-0.321,0.248
		c-0.065,0.084-0.084,0.124-0.111,0.249c-0.019,0.086-0.027,0.14-0.019,0.246c0,0.043,0.008,0.111,0.019,0.162
		c0.011,0.081,0.022,0.165,0.035,0.246c0.138,0.954,0.267,1.907,0.397,2.863c0.165,1.21,0.346,2.423,0.524,3.636
		C106.834,28.628,106.907,28.417,106.98,28.206z"/>
	<path class="st1" d="M106.791,29.579l5.894-4c0.221-0.149,0.875-0.697,1.021-0.948c0.132-0.227,0.276-0.486,0.332-0.786
		c0.065-0.351,0.032-0.691-0.073-0.999c-0.062-0.205-0.14-0.392-0.27-0.578c-0.051-0.068-0.113-0.159-0.176-0.227
		c-0.086-0.1-0.284-0.286-0.389-0.37c-0.251-0.194-0.565-0.33-0.899-0.394c-0.619-0.105-1.18,0.059-1.575,0.313
		c-0.61,0.389-0.843,0.997-1.094,1.596C109.311,23.785,106.791,29.579,106.791,29.579z"/>
	<path class="st1" d="M115.646,27.374c-0.097-0.3-0.3-0.57-0.538-0.813c-0.448-0.435-0.943-0.654-1.48-0.654
		c-0.073,0-0.194,0-0.194,0c-0.14,0.011-0.278,0.03-0.402,0.062c-0.076,0.019-0.146,0.038-0.211,0.065
		c-0.159,0.065-0.359,0.181-0.602,0.346c-0.057,0.035-0.116,0.078-0.181,0.116l-5.489,3.819l7.096-0.138
		c0.265,0.003,0.527-0.049,0.775-0.159c0.238-0.108,0.478-0.278,0.694-0.492c0.254-0.254,0.459-0.54,0.546-0.854
		c0.065-0.203,0.084-0.416,0.084-0.646c-0.005-0.084-0.005-0.178-0.016-0.267C115.713,27.628,115.683,27.504,115.646,27.374z"/>
</g>
</svg>
