<svg xmlns="http://www.w3.org/2000/svg" viewBox="0 0 96 60"><defs><style>.a{fill:none;}.b{fill:#601404;}</style></defs><title>krxi_logo_w</title><rect class="a" width="96" height="60"/><path class="b" d="M30.74,22.37a2.11,2.11,0,0,0-1.94,2.18V34.63a2,2,0,0,0,1.94,2.08,2,2,0,0,0,2-2.06V24.55a2.16,2.16,0,0,0-2-2.18"/><path class="b" d="M67.26,13H0V47H68L57.87,29.65ZM18,33.83H11.39l0,8.18H4.64V16.71H19.09l.45,6.92H11.45v3.3H18Zm12.75,7.86c-6.32,0-11.44-5.51-11.44-12.3s5.12-12.3,11.44-12.3,11.43,5.51,11.43,12.3-5.11,12.3-11.43,12.3M60.52,42H53l-3.5-6.38L46.07,42H38.79l7.1-13-6.7-12.18h7.49l3,5.45,3-5.45h7.23L53.3,28.85Z"/><path class="b" d="M68.6,13,59.21,29.65,69.38,47H95.91V13ZM79.1,42H72.31V22.8H69.58l2.52-6h7Zm12.08,0h-6.8V22.8H81.66l2.51-6h7Z"/></svg>