<?xml version="1.0" encoding="UTF-8" standalone="no"?>
<svg xmlns:dc="http://purl.org/dc/elements/1.1/" xmlns:cc="http://creativecommons.org/ns#" xmlns:rdf="http://www.w3.org/1999/02/22-rdf-syntax-ns#" xmlns:svg="http://www.w3.org/2000/svg" xmlns="http://www.w3.org/2000/svg" xmlns:sodipodi="http://sodipodi.sourceforge.net/DTD/sodipodi-0.dtd" xmlns:inkscape="http://www.inkscape.org/namespaces/inkscape" version="1.1" id="svg1195" width="1000" height="257.88971" viewBox="0 0 1000 257.88971" sodipodi:docname="KSTR-DT_(2021).svg" inkscape:version="1.0.1 (3bc2e813f5, 2020-09-07)">
  <style id="style1207"/>
  <metadata id="metadata1201">
    <rdf:RDF>
      <cc:Work rdf:about="">
        <dc:format>image/svg+xml</dc:format>
        <dc:type rdf:resource="http://purl.org/dc/dcmitype/StillImage"/>
        <dc:title/>
      </cc:Work>
    </rdf:RDF>
  </metadata>
  <defs id="defs1199"/>
  <sodipodi:namedview pagecolor="#ffffff" bordercolor="#666666" borderopacity="1" objecttolerance="10" gridtolerance="10" guidetolerance="10" inkscape:pageopacity="0" inkscape:pageshadow="2" inkscape:window-width="1366" inkscape:window-height="706" id="namedview1197" showgrid="false" inkscape:zoom="0.60811183" inkscape:cx="526.58459" inkscape:cy="157.45794" inkscape:window-x="-8" inkscape:window-y="-8" inkscape:window-maximized="1" inkscape:current-layer="g1203"/>
  <g inkscape:groupmode="layer" inkscape:label="Image" id="g1203" transform="translate(350.07423,-21.004161)">
    <g id="g1401" transform="matrix(3.4368802,0,0,3.4368802,-365.35115,-365.40779)">
      <g id="g899" transform="matrix(0.0714914,0,0,0.07077254,22.544916,107.81283)" style="fill:#273e96;fill-opacity:1">
        <path id="path880" style="fill:#273e96;fill-opacity:1;stroke:none;stroke-width:0.510001" d="m 1981.6113,209.626 -265.1875,516.92283 h 151.1094 l 39.1934,-83.78906 h 171.3869 l 10.3086,83.78906 h 156.8103 L 2166.734,209.626 Z m 61.3147,138.93455 20.7988,177.05945 h -102.301 z" sodipodi:nodetypes="ccccccccccccc"/>
        <path style="fill:#273e96;fill-opacity:1;stroke:none;stroke-width:1px;stroke-linecap:butt;stroke-linejoin:miter;stroke-opacity:1" d="M 221.76717,209.626 163.919,540.284 c -4.48121,25.3868 -1.8318,70.88361 59.19191,71.269 46.37871,0.2929 70.83126,-29.58874 79.38309,-71.269 L 360.52,209.626 H 514.80242 L 457.034,539.487 C 435.85876,663.52021 336.77056,735.871 191.90624,735.871 76.750135,735.871 -23.910778,670.94583 3.5833115,539.487 L 56.536693,239.28558 C 59.967125,217.28164 71.59217,209.626 86.795768,209.626 Z" id="path862" sodipodi:nodetypes="ccsccccscccc"/>
        <path style="fill:#273e96;fill-opacity:1;stroke:none;stroke-width:1px;stroke-linecap:butt;stroke-linejoin:miter;stroke-opacity:1" d="m 843.473,452.095 41.603,-242.469 h 144.5288 L 937.535,726.55007 806.24509,726.15193 672.57885,408.92456 614.30182,726.351 H 470.29844 l 91.63852,-516.725 h 75.16892 c 131.56322,0 186.82422,154.80496 206.36712,242.469 z" id="path864" sodipodi:nodetypes="ccccccccccc"/>
        <path id="rect866" style="fill:#273e96;fill-opacity:1;stroke:none;stroke-width:0.513923" transform="matrix(1,0,-0.17372437,0.98479432,0,0)" d="m 1111.8813,212.86275 h 159.91 v 524.90558 h -159.91 z"/>
        <path id="path875" style="fill:#273e96;fill-opacity:1;stroke:none;stroke-width:0.510001" d="M 1636.7207,209.62502 1526.25,391.40039 c -5.3961,-40.54657 -16.9699,-77.5314 -35.877,-107.13672 -21.5534,-33.74915 -74.7267,-74.63672 -138.9707,-74.63672 h -70 l -91.789,516.92383 h 142.9101 l 56.6934,-319.33578 40.6406,237.63266 h 100.7637 L 1658.062,402.915 1601.6133,726.55078 h 143.3099 l 91.4878,-516.9238 z" sodipodi:nodetypes="ccscccccccccccc"/>
        <path style="fill:#273e96;fill-opacity:1;stroke:none;stroke-width:1px;stroke-linecap:butt;stroke-linejoin:miter;stroke-opacity:1" d="m 1966.8639,173.502 h 223.0458 l 50.4583,-108.248 -259.362,53.89349 z" id="path888" sodipodi:nodetypes="ccccc"/>
        <path style="fill:#273e96;fill-opacity:1;stroke:none;stroke-width:1px;stroke-linecap:butt;stroke-linejoin:miter;stroke-opacity:1" d="m 2291.75,566.25 c 38.2619,32.50672 78.82,52.25 129.75,52.25 38.8791,0 65.75,-11.66426 65.75,-36.5 0,-20.6989 -17.2439,-24.63472 -33,-30.25 C 2368.2854,521.11334 2278,495.99879 2278,384.5 c 0,-54.64753 24.4962,-106.31472 64.7942,-138.25959 C 2378.8644,217.647 2427.5947,201.65 2482.75,201.65 c 54.4211,0 123.0115,10.82423 173.25,45.95 5.4908,3.83909 12.1325,11.33038 12.1325,21.16134 0,5.44889 -1.6196,11.48594 -6.6325,17.73866 L 2594,362 c -28.0724,-23.17399 -65.4148,-40.25 -103.25,-40.25 -24.9602,0 -58.8,6.65571 -58.8,31.5 0,24.0545 32.6019,32.17658 63.05,41.75 63.9363,20.10267 107.8675,40.39465 136.2184,78.33678 C 2646.8294,494.22891 2655,519.41219 2655,551 c 0,49.12108 -13.9344,85.65588 -42.9714,117.61752 C 2575.0919,709.27453 2509.7173,735.05 2425.5,735.05 c -70.0021,0 -161.25,-15.63948 -216.8,-67.05 z" id="path890" sodipodi:nodetypes="cssssssssccssssssscc"/>
      </g>
      <g aria-label="49" id="text1329" style="font-style:italic;font-variant:normal;font-weight:bold;font-stretch:normal;font-size:52.1521px;line-height:1.25;font-family:Flama;-inkscape-font-specification:'Flama weight=750 Italic';text-decoration:none;text-decoration-line:none;text-decoration-color:#000000;letter-spacing:-2px;word-spacing:0px;fill:#ef415b;fill-opacity:1;stroke-width:1.9557;stop-color:#000000">
        <path d="m 229.60489,159.78728 1.3038,-7.45775 H 214.898 l 1.25165,-7.4056 17.52311,-22.3211 h 11.2127 l -18.30539,21.90388 h 5.68458 l 0.73013,-3.91141 10.53472,-6.62331 -1.82532,10.53472 h 3.59849 l -1.35595,7.82282 h -3.65065 l -1.3038,7.45775 z" style="fill:#ef415b;fill-opacity:1;stroke-width:1.9557" id="path1331"/>
        <path d="m 257.95737,160.46525 q -2.13824,0 -4.06786,-0.41721 -1.87748,-0.36507 -3.65065,-1.25165 -1.72102,-0.93874 -2.76406,-2.60761 -0.99089,-1.66886 -0.99089,-3.96356 0,-1.46026 0.46937,-3.59849 h 9.43953 q -0.26076,1.3038 -0.26076,1.56456 0,1.35596 0.99089,1.98178 0.99089,0.62583 2.34684,0.62583 1.82533,0 3.07698,-0.99089 1.3038,-0.99089 1.66886,-2.76407 0.88659,-4.95444 1.04304,-6.15394 -3.23343,3.23343 -9.02231,3.23343 -3.49419,0 -5.78888,-1.77317 -2.29469,-1.77318 -2.29469,-5.16306 0,-1.14735 0.99089,-6.51901 0.46936,-2.71191 2.08608,-4.798 1.61672,-2.13823 3.91141,-3.38988 2.29469,-1.25165 4.90229,-1.87748 2.60761,-0.62582 5.26737,-0.62582 4.85014,0 8.50079,2.39899 3.65065,2.399 3.65065,6.98838 0,0.93874 -0.15646,1.87748 l -2.81621,15.80208 q -0.62583,3.65065 -3.28559,6.31041 -2.65975,2.65976 -6.10179,3.91141 -3.38989,1.19949 -7.14484,1.19949 z m 3.65065,-20.60007 q 1.92963,0 3.28558,-1.25166 1.35595,-1.25165 1.72102,-3.18127 0.46937,-2.55546 0.46937,-3.02483 0,-1.46025 -0.99089,-2.19038 -0.93874,-0.73013 -2.45115,-0.73013 -1.72102,0 -3.12913,0.88658 -1.35595,0.88659 -1.66886,2.5033 -0.67798,3.85926 -0.67798,4.22432 0,1.35596 0.99089,2.08609 1.04304,0.67798 2.45115,0.67798 z" style="fill:#ef415b;fill-opacity:1;stroke-width:1.9557" id="path1333"/>
      </g>
      <g id="text1338">
        <path d="m 4.4449965,187.14392 h 7.5117955 c 3.796284,0 7.53872,-2.53086 7.53872,-7.08101 v -5.11556 c 0,-4.28092 -3.392424,-7.00024 -7.565644,-7.00024 H 4.4449965 Z m 3.580892,-3.15011 v -12.89659 h 3.6616635 c 2.261616,0 4.253992,1.31927 4.253992,3.63474 v 5.54634 c 0,2.74625 -2.28854,3.71551 -4.119372,3.71551 z" style="fill:#ef415b;fill-opacity:1;stroke-width:1.00964" id="path1340"/>
        <path d="m 20.777065,187.14392 h 3.527043 l 1.453896,-4.09245 h 7.323328 l 1.400048,4.09245 h 3.796284 l -7.081012,-19.22373 h -3.284728 z m 5.977127,-7.16178 2.638552,-7.70027 h 0.05385 l 2.611628,7.70027 z" style="fill:#ef415b;fill-opacity:1;stroke-width:1.00964" id="path1342"/>
        <path d="m 40.582329,187.14392 h 12.92352 v -3.15011 h -9.342628 v -16.0467 h -3.580892 z" style="fill:#ef415b;fill-opacity:1;stroke-width:1.00964" id="path1344"/>
        <path d="m 56.214379,187.14392 h 12.92352 v -3.15011 h -9.342628 v -16.0467 h -3.580892 z" style="fill:#ef415b;fill-opacity:1;stroke-width:1.00964" id="path1346"/>
        <path d="m 70.76946,187.14392 h 3.527044 l 1.453896,-4.09245 h 7.323328 l 1.400048,4.09245 H 88.27006 L 81.189048,167.92019 H 77.90432 Z m 5.977128,-7.16178 2.638552,-7.70027 h 0.05385 l 2.611628,7.70027 z" style="fill:#ef415b;fill-opacity:1;stroke-width:1.00964" id="path1348"/>
        <path d="m 96.901859,187.44008 c 4.227071,0 7.377171,-2.34238 7.377171,-5.86943 0,-3.41935 -2.10007,-4.79247 -4.388607,-5.33095 l -3.284728,-0.80772 c -1.507744,-0.40386 -2.800096,-1.02311 -2.800096,-2.36931 0,-1.72314 1.507744,-2.42316 3.069336,-2.42316 1.857756,0 3.284725,0.59233 4.119375,2.20777 l 2.93471,-1.29235 c -1.2385,-2.88087 -3.55397,-3.93091 -6.757921,-3.93091 -3.715512,0 -6.86562,2.10007 -6.86562,5.70789 0,3.39242 2.046224,4.55015 4.604004,5.19633 l 3.23088,0.7808 c 1.48082,0.43078 2.638547,1.07696 2.638547,2.50393 0,1.77698 -1.830827,2.53085 -3.769355,2.53085 -2.15392,0 -3.90398,-1.05003 -4.630928,-2.90779 l -3.23088,1.26543 c 0.996188,3.2578 4.227068,4.73862 7.754112,4.73862 z" style="fill:#ef415b;fill-opacity:1;stroke-width:1.00964" id="path1350"/>
        <path d="m 113.27696,180.54754 h 7.78104 v -2.8001 h -7.78104 z" style="fill:#ef415b;fill-opacity:1;stroke-width:1.00964" id="path1352"/>
        <path d="m 130.86364,187.14392 h 3.60781 v -8.0772 h 7.96951 v -3.12318 h -7.96951 v -4.84632 h 9.28878 v -3.15011 h -12.89659 z" style="fill:#ef415b;fill-opacity:1;stroke-width:1.00964" id="path1354"/>
        <path d="m 153.52281,187.46701 c 3.79628,0 7.67334,-2.53086 7.67334,-7.08101 v -5.76174 c 0,-4.28091 -3.63474,-7.00024 -7.80796,-7.00024 -3.79628,0 -7.67334,2.53086 -7.67334,7.08101 v 6.13867 c 0,4.28092 3.63474,6.62331 7.80796,6.62331 z m 0,-3.17703 c -2.26162,0 -4.25399,-1.31928 -4.25399,-3.63474 v -6.13868 c 0,-2.74624 2.28854,-3.71551 4.11937,-3.71551 2.26162,0 4.25399,1.31928 4.25399,3.63474 v 6.13867 c 0,2.74625 -2.28854,3.71552 -4.11937,3.71552 z" style="fill:#ef415b;fill-opacity:1;stroke-width:1.00964" id="path1356"/>
        <path d="m 164.65853,187.14392 h 3.58089 v -7.18871 h 3.09626 l 4.49631,7.18871 h 3.90398 l -4.76555,-7.59257 c 2.5847,-0.91541 3.79628,-3.28473 3.79628,-5.57326 0,-3.93091 -2.90779,-6.03098 -6.5156,-6.03098 h -7.59257 z m 3.58089,-10.2042 v -5.97712 h 3.52704 c 1.99238,0 3.50012,0.72695 3.50012,2.98856 0,1.99238 -1.37312,2.98856 -3.44627,2.98856 z" style="fill:#ef415b;fill-opacity:1;stroke-width:1.00964" id="path1358"/>
        <path d="m 186.21385,187.14392 h 3.55397 v -16.12747 h 5.51942 v -3.06934 h -14.59281 v 3.06934 h 5.51942 z" style="fill:#ef415b;fill-opacity:1;stroke-width:1.00964" id="path1360"/>
        <path d="m 208.1622,187.22469 h 3.33858 l 3.44627,-13.54277 h 0.0539 l 3.44627,13.54277 h 3.31165 l 4.98094,-19.27758 H 223.132 l -3.06934,13.51585 h -0.0539 l -3.50012,-13.51585 h -3.04241 l -3.52704,13.43507 h -0.0538 l -3.01549,-13.43507 h -3.66166 z" style="fill:#ef415b;fill-opacity:1;stroke-width:1.00964" id="path1362"/>
        <path d="m 236.07156,187.46701 c 3.79629,0 7.67334,-2.53086 7.67334,-7.08101 v -5.76174 c 0,-4.28091 -3.63474,-7.00024 -7.80796,-7.00024 -3.79628,0 -7.67334,2.53086 -7.67334,7.08101 v 6.13867 c 0,4.28092 3.63474,6.62331 7.80796,6.62331 z m 0,-3.17703 c -2.26161,0 -4.25399,-1.31928 -4.25399,-3.63474 v -6.13868 c 0,-2.74624 2.28854,-3.71551 4.11937,-3.71551 2.26162,0 4.25399,1.31928 4.25399,3.63474 v 6.13867 c 0,2.74625 -2.28854,3.71552 -4.11937,3.71552 z" style="fill:#ef415b;fill-opacity:1;stroke-width:1.00964" id="path1364"/>
        <path d="m 247.20728,187.14392 h 3.58089 v -7.18871 h 3.09626 l 4.49631,7.18871 h 3.90398 l -4.76555,-7.59257 c 2.58471,-0.91541 3.79629,-3.28473 3.79629,-5.57326 0,-3.93091 -2.9078,-6.03098 -6.51561,-6.03098 h -7.59257 z m 3.58089,-10.2042 v -5.97712 h 3.52705 c 1.99237,0 3.50012,0.72695 3.50012,2.98856 0,1.99238 -1.37313,2.98856 -3.44628,2.98856 z" style="fill:#ef415b;fill-opacity:1;stroke-width:1.00964" id="path1366"/>
        <path d="m 268.7626,187.14392 h 3.55397 v -16.12747 h 5.51942 v -3.06934 h -14.59281 v 3.06934 h 5.51942 z" style="fill:#ef415b;fill-opacity:1;stroke-width:1.00964" id="path1368"/>
        <path d="m 280.57143,187.14392 h 3.58089 v -8.21182 h 7.67334 v 8.21182 h 3.58089 v -19.19681 h -3.58089 v 7.83488 h -7.67334 v -7.83488 h -3.58089 z" style="fill:#ef415b;fill-opacity:1;stroke-width:1.00964" id="path1370"/>
      </g>
    </g>
  </g>
  <style id="style1037"/>
  <style id="style3451"/>
  <style id="style3223"/>
  <style id="style2999"/>
  <style id="style2521"/>
  <style id="style1988"/>
  <style id="style1815"/>
  <style id="style1488"/>
  <style id="style856"/>
  <style id="style856-2"/>
  <style id="style856-8"/>
</svg>