<?xml version="1.0" encoding="utf-8"?>
<!-- Generator: Adobe Illustrator 25.4.1, SVG Export Plug-In . SVG Version: 6.00 Build 0)  -->
<svg version="1.1" id="Layer_1" xmlns="http://www.w3.org/2000/svg" xmlns:xlink="http://www.w3.org/1999/xlink" x="0px" y="0px"
	 viewBox="0 0 1920 278" style="enable-background:new 0 0 1920 278;" xml:space="preserve">
<style type="text/css">
	.st0{fill:#037FFF;}
</style>
<g>
	<path d="M0,233.223l48.903-50.782c5.013,5.519,10.027,9.909,15.046,13.164c11.532,8.783,24.074,13.167,37.617,13.167
		c17.552,0,26.332-5.643,26.332-16.928c0-5.266-4.08-10.027-12.225-14.294c-8.154-4.261-17.997-8.524-29.53-12.791
		c-11.538-4.261-23.134-9.337-34.796-15.233c-11.662-5.89-21.571-14.544-29.716-25.955C13.478,112.163,9.404,98.556,9.404,82.757
		c0-22.818,9.593-42.318,28.777-58.493C57.367,8.088,82.88,0,114.731,0c27.837,0,52.534,6.272,74.106,18.807
		c9.78,6.019,17.681,12.291,23.7,18.81l-48.903,50.782c-3.008-3.761-6.272-6.895-9.78-9.404
		c-10.033-6.266-19.936-9.404-29.716-9.404c-15.049,0-22.571,4.39-22.571,13.164c0,4.514,2.945,8.717,8.841,12.601
		c5.89,3.89,13.225,7.212,22.005,9.97c8.774,2.761,18.244,6.522,28.401,11.286c10.156,4.767,19.62,10.033,28.4,15.796
		c8.774,5.772,16.109,13.797,22.005,24.077c5.89,10.286,8.841,22.071,8.841,35.359c0,23.577-10.033,43.89-30.093,60.938
		c-20.066,17.058-46.398,25.582-78.996,25.582c-30.093,0-57.554-7.525-82.38-22.571C17.052,249.022,7.525,241.501,0,233.223z"/>
	<polygon points="238.866,270.841 238.866,7.522 447.639,7.522 447.639,77.114 323.501,77.114 323.501,109.088 417.543,109.088 
		417.543,169.274 323.501,169.274 323.501,201.249 451.4,201.249 451.4,270.841 	"/>
	<path d="M470.204,270.841L566.125,7.522h95.924l95.924,263.319h-90.281l-15.046-50.782h-77.114l-15.049,50.782H470.204z
		 M592.457,161.752h43.26l-20.689-73.353h-1.882L592.457,161.752z"/>
	<polygon points="782.423,270.841 782.423,84.638 712.834,84.638 712.834,7.522 936.654,7.522 936.654,84.638 867.062,84.638 
		867.062,270.841 	"/>
	<polygon points="1025.047,270.841 1025.047,84.638 955.458,84.638 955.458,7.522 1179.277,7.522 1179.277,84.638 1109.685,84.638 
		1109.685,270.841 	"/>
	<polygon points="1194.324,270.841 1194.324,7.522 1278.959,7.522 1278.959,191.845 1388.051,191.845 1388.051,270.841 	"/>
	<path d="M1624.944,24.935c11.987-1.659,21.258-6.26,28.346-14.056c0.976-1.085,1.81-2.233,2.702-3.357h-249.141v263.319h212.534
		v-69.592h-127.899v-31.975h94.042v-60.185h-94.042V77.114h117.495V27.148L1624.944,24.935z"/>
	<path class="st0" d="M1668.861,270.841V94.042h-41.378V43.26c16.299-2.258,29.466-8.901,39.499-19.939
		c4.514-5.013,8.275-10.28,11.283-15.799h75.235v263.319H1668.861z"/>
	<path class="st0" d="M1835.362,270.841V94.042h-41.378V43.26c16.299-2.258,29.466-8.901,39.499-19.939
		c4.514-5.013,8.274-10.28,11.282-15.799H1920v263.319H1835.362z"/>
</g>
</svg>
