<?xml version="1.0" encoding="UTF-8" standalone="no"?>
<svg
   version="1.1"
   id="svg844"
   width="2775.3948"
   height="717.36621"
   viewBox="0 0 2775.3948 717.36621"
   sodipodi:docname="KTFN_2021.svg"
   inkscape:version="1.1 (c68e22c387, 2021-05-23)"
   xmlns:inkscape="http://www.inkscape.org/namespaces/inkscape"
   xmlns:sodipodi="http://sodipodi.sourceforge.net/DTD/sodipodi-0.dtd"
   xmlns="http://www.w3.org/2000/svg"
   xmlns:svg="http://www.w3.org/2000/svg"
   xmlns:rdf="http://www.w3.org/1999/02/22-rdf-syntax-ns#"
   xmlns:cc="http://creativecommons.org/ns#"
   xmlns:dc="http://purl.org/dc/elements/1.1/">
  <style
     id="style856" />
  <metadata
     id="metadata850">
    <rdf:RDF>
      <cc:Work
         rdf:about="">
        <dc:format>image/svg+xml</dc:format>
        <dc:type
           rdf:resource="http://purl.org/dc/dcmitype/StillImage" />
      </cc:Work>
    </rdf:RDF>
  </metadata>
  <defs
     id="defs848" />
  <sodipodi:namedview
     pagecolor="#4f4f4f"
     bordercolor="#666666"
     borderopacity="1"
     objecttolerance="10"
     gridtolerance="10"
     guidetolerance="10"
     inkscape:pageopacity="0"
     inkscape:pageshadow="2"
     inkscape:window-width="1366"
     inkscape:window-height="715"
     id="namedview846"
     showgrid="false"
     showguides="true"
     inkscape:zoom="0.08838835"
     inkscape:cx="2788.8291"
     inkscape:cy="1385.9293"
     inkscape:window-x="-8"
     inkscape:window-y="-8"
     inkscape:window-maximized="1"
     inkscape:current-layer="svg844"
     inkscape:pagecheckerboard="0" />
  <path
     id="path880"
     style="fill:#0d09ac;fill-opacity:1;stroke:none;stroke-width:0.348565"
     d="m 2011.2029,0 -177.2621,36.83433 -9.6651,37.14905 h 152.4425 z m -176.8473,98.67251 -181.2444,353.29412 h 103.277 l 26.7867,-57.2677 h 117.1353 l 7.0453,57.2677 h 107.1734 L 1960.8787,98.67251 Z m 41.9056,94.95492 14.2141,121.01203 h -69.9171 z" />
  <path
     style="fill:#0d09ac;fill-opacity:1;stroke:none;stroke-width:0.683456px;stroke-linecap:butt;stroke-linejoin:miter;stroke-opacity:1"
     d="m 631.57925,98.67188 -39.53667,225.99015 c -3.06271,17.3507 -1.25195,48.4458 40.45505,48.7092 31.69781,0.2001 48.41003,-20.2226 54.25483,-48.7092 L 726.41067,98.67188 h 105.44525 l -39.48226,225.44545 c -14.47228,84.7711 -82.19469,134.2197 -181.20304,134.2197 -78.7041,0 -147.50138,-44.3735 -128.71039,-134.2197 L 518.65152,118.9429 c 2.34456,-15.03872 10.28976,-20.27102 20.68074,-20.27102 z"
     id="path862"
     sodipodi:nodetypes="ccsccccscccc" />
  <path
     style="fill:#0d09ac;fill-opacity:1;stroke:none;stroke-width:0.683456px;stroke-linecap:butt;stroke-linejoin:miter;stroke-opacity:1"
     d="m 1056.4877,264.38874 28.4339,-165.71686 h 98.779 l -62.9256,353.29475 -89.7309,-0.2721 -91.35492,-216.81091 -39.8298,216.94701 H 801.43933 L 864.07028,98.67188 h 51.3746 c 89.91772,0 127.68612,105.80235 141.04282,165.71686 z"
     id="path864"
     sodipodi:nodetypes="ccccccccccc" />
  <path
     id="rect866"
     style="fill:#0d09ac;fill-opacity:1;stroke:none;stroke-width:0.348565"
     d="m 1214.6591,98.6719 h 109.2914 l -62.3235,353.29473 h -109.2914 z" />
  <path
     id="path875"
     style="fill:#0d09ac;fill-opacity:1;stroke:none;stroke-width:0.348565"
     d="m 1598.6375,98.6712 -75.502,124.23544 c -3.6879,-27.7118 -11.5981,-52.98929 -24.5203,-73.22322 -14.7306,-23.06603 -51.0724,-51.01088 -94.9803,-51.01088 h -47.8419 l -62.7337,353.29459 h 97.6727 l 38.7475,-218.25191 27.7761,162.41141 h 68.8675 l 87.1002,-165.35028 -38.5801,221.19078 h 97.946 L 1735.117,98.67255 Z"
     sodipodi:nodetypes="ccscccccccccccc" />
  <path
     style="fill:#0d09ac;fill-opacity:1;stroke:none;stroke-width:0.683456px;stroke-linecap:butt;stroke-linejoin:miter;stroke-opacity:1"
     d="m 2046.3209,342.40863 c 26.1504,22.2169 53.8701,35.7106 88.6786,35.7106 26.5721,0 44.937,-7.9721 44.937,-24.9461 0,-14.1469 -11.7854,-16.8368 -22.554,-20.6746 -58.753,-20.93876 -120.4591,-38.10348 -120.4591,-114.30803 0,-37.34914 16.7422,-72.66139 44.284,-94.4943 24.6524,-19.54231 57.9575,-30.47556 95.6536,-30.47556 37.1945,0 84.073,7.39786 118.4088,31.40479 3.7527,2.62385 8.292,7.74381 8.292,14.46285 0,3.72407 -1.107,7.85011 -4.533,12.12358 l -46.1334,51.60092 c -19.1862,-15.8384 -44.708,-27.50911 -70.5667,-27.50911 -17.0593,0 -40.1872,4.5489 -40.1872,21.52887 0,16.44017 22.282,21.99124 43.092,28.53426 43.6974,13.73928 73.7224,27.60795 93.0991,53.53973 10.6695,14.27882 16.2537,31.49051 16.2537,53.0793 0,33.5722 -9.5236,58.5421 -29.3691,80.3864 -25.2446,27.7874 -69.9252,45.4037 -127.484,45.4037 -47.8433,0 -110.2072,-10.6888 -148.1732,-45.8256 z"
     id="path890"
     sodipodi:nodetypes="cssscscssccccssssscc" />
  <path
     d="m 0,714.27813 h 128.41216 v -30.1086 H 34.22609 v -48.3797 h 82.60581 v -30.1087 H 34.22609 v -44.777 h 93.15671 v -30.1087 H 0 Z"
     style="font-size:257.339px;line-height:1.25;font-family:Flama;-inkscape-font-specification:Flama;text-align:center;word-spacing:0px;text-anchor:middle;fill:#d54355;fill-opacity:1;stroke:none;stroke-width:6.43348"
     id="path13764" />
  <path
     d="M 160.83638,714.27813 H 284.3591 v -30.1086 h -89.29663 v -153.3741 h -34.22609 z"
     style="font-size:257.339px;line-height:1.25;font-family:Flama;-inkscape-font-specification:Flama;text-align:center;word-spacing:0px;text-anchor:middle;fill:#d54355;fill-opacity:1;stroke:none;stroke-width:6.43348"
     id="path13766" />
  <path
     d="m 373.91236,714.27813 h 34.22608 v -68.7095 h 42.2036 c 41.68891,0 60.47466,-29.0793 60.47466,-57.1292 0,-37.5715 -26.76326,-57.644 -62.27604,-57.644 h -74.6283 z m 34.22608,-97.5314 v -57.1293 h 35.77012 c 19.04309,0 33.45407,6.9482 33.45407,28.5646 0,19.0431 -13.12429,28.5647 -32.93939,28.5647 z"
     style="font-size:257.339px;line-height:1.25;font-family:Flama;-inkscape-font-specification:Flama;text-align:center;word-spacing:0px;text-anchor:middle;fill:#d54355;fill-opacity:1;stroke:none;stroke-width:6.43348"
     id="path13768" />
  <path
     d="m 503.86806,714.27813 h 33.71141 l 13.8963,-39.1155 h 69.99621 l 13.38162,39.1155 h 36.2848 l -67.68015,-183.74 h -31.39536 z m 57.12925,-68.4521 25.21923,-73.599 h 0.51467 l 24.96189,73.599 z"
     style="font-size:257.339px;line-height:1.25;font-family:Flama;-inkscape-font-specification:Flama;text-align:center;word-spacing:0px;text-anchor:middle;fill:#d54355;fill-opacity:1;stroke:none;stroke-width:6.43348"
     id="path13770" />
  <path
     d="m 752.97184,717.10893 c 40.40222,0 70.51088,-22.3885 70.51088,-56.0999 0,-32.6821 -20.07244,-45.8064 -41.94625,-50.9531 l -31.39536,-7.7202 c -14.41098,-3.8601 -26.76325,-9.7789 -26.76325,-22.6458 0,-16.4697 14.41098,-23.1606 29.33664,-23.1606 17.75639,0 31.39536,5.6615 39.37287,21.1018 l 28.04995,-12.3522 c -11.8376,-27.5353 -33.96875,-37.5715 -64.59209,-37.5715 -35.51278,0 -65.62144,20.0724 -65.62144,54.5558 0,32.4248 19.55776,43.4903 44.00497,49.6665 l 30.88067,7.4628 c 14.15365,4.1174 25.21922,10.2936 25.21922,23.9325 0,16.9844 -17.49905,24.1899 -36.02745,24.1899 -20.58712,0 -37.31416,-10.0362 -44.26231,-27.7926 l -30.88068,12.0949 c 9.52154,31.138 40.40222,45.2917 74.11363,45.2917 z"
     style="font-size:257.339px;line-height:1.25;font-family:Flama;-inkscape-font-specification:Flama;text-align:center;word-spacing:0px;text-anchor:middle;fill:#d54355;fill-opacity:1;stroke:none;stroke-width:6.43348"
     id="path13772" />
  <path
     d="m 922.81538,717.36623 c 36.2848,0 73.3417,-24.1899 73.3417,-67.6801 v -55.0706 c 0,-40.9169 -34.7408,-66.9081 -74.6284,-66.9081 -36.2848,0 -73.3416,24.1898 -73.3416,67.6801 v 58.6733 c 0,40.9169 34.7408,63.3054 74.6283,63.3054 z m 0,-30.366 c -21.6164,0 -40.6595,-12.6096 -40.6595,-34.7408 v -58.6732 c 0,-26.2486 21.8738,-35.5128 39.3728,-35.5128 21.6165,0 40.6596,12.6096 40.6596,34.7407 v 58.6733 c 0,26.2486 -21.8738,35.5128 -39.3729,35.5128 z"
     style="font-size:257.339px;line-height:1.25;font-family:Flama;-inkscape-font-specification:Flama;text-align:center;word-spacing:0px;text-anchor:middle;fill:#d54355;fill-opacity:1;stroke:none;stroke-width:6.43348"
     id="path13774" />
  <path
     d="m 1083.9088,651.23013 h 74.371 v -26.7633 h -74.371 z"
     style="font-size:257.339px;line-height:1.25;font-family:Flama;-inkscape-font-specification:Flama;text-align:center;word-spacing:0px;text-anchor:middle;fill:#d54355;fill-opacity:1;stroke:none;stroke-width:6.43348"
     id="path13776" />
  <path
     d="m 1250.6637,714.27813 h 123.5227 v -30.1086 h -89.2966 v -153.3741 h -34.2261 z"
     style="font-size:257.339px;line-height:1.25;font-family:Flama;-inkscape-font-specification:Flama;text-align:center;word-spacing:0px;text-anchor:middle;fill:#d54355;fill-opacity:1;stroke:none;stroke-width:6.43348"
     id="path13778" />
  <path
     d="m 1389.1119,714.27813 h 33.7114 l 13.8963,-39.1155 h 69.9962 l 13.3817,39.1155 h 36.2848 l -67.6802,-183.74 h -31.3954 z m 57.1293,-68.4521 25.2192,-73.599 h 0.5147 l 24.9619,73.599 z"
     style="font-size:257.339px;line-height:1.25;font-family:Flama;-inkscape-font-specification:Flama;text-align:center;word-spacing:0px;text-anchor:middle;fill:#d54355;fill-opacity:1;stroke:none;stroke-width:6.43348"
     id="path13780" />
  <path
     d="m 1638.2157,717.10893 c 40.4022,0 70.5109,-22.3885 70.5109,-56.0999 0,-32.6821 -20.0725,-45.8064 -41.9463,-50.9531 l -31.3953,-7.7202 c -14.411,-3.8601 -26.7633,-9.7789 -26.7633,-22.6458 0,-16.4697 14.411,-23.1606 29.3367,-23.1606 17.7563,0 31.3953,5.6615 39.3728,21.1018 l 28.05,-12.3522 c -11.8376,-27.5353 -33.9688,-37.5715 -64.5921,-37.5715 -35.5128,0 -65.6215,20.0724 -65.6215,54.5558 0,32.4248 19.5578,43.4903 44.005,49.6665 l 30.8807,7.4628 c 14.1536,4.1174 25.2192,10.2936 25.2192,23.9325 0,16.9844 -17.499,24.1899 -36.0274,24.1899 -20.5872,0 -37.3142,-10.0362 -44.2624,-27.7926 l -30.8806,12.0949 c 9.5215,31.138 40.4022,45.2917 74.1136,45.2917 z"
     style="font-size:257.339px;line-height:1.25;font-family:Flama;-inkscape-font-specification:Flama;text-align:center;word-spacing:0px;text-anchor:middle;fill:#d54355;fill-opacity:1;stroke:none;stroke-width:6.43348"
     id="path13782" />
  <path
     d="m 1872.3936,717.36623 c 34.9981,0 68.7095,-19.5578 68.7095,-60.4746 v -5.6615 h -32.4247 v 2.5734 c 0,23.9325 -19.5578,33.1967 -36.2848,33.1967 -21.6165,0 -40.6596,-12.6096 -40.6596,-34.7408 v -58.6732 c 0,-26.2486 21.8738,-35.5128 39.3729,-35.5128 16.727,0 37.5715,9.2642 37.5715,33.1967 v 2.5734 h 32.4247 v -5.6615 c 0,-40.9169 -34.9981,-60.4746 -69.9962,-60.4746 -40.1449,0 -73.3416,24.1898 -73.3416,67.6801 v 58.6733 c 0,40.9169 34.7407,63.3054 74.6283,63.3054 z"
     style="font-size:257.339px;line-height:1.25;font-family:Flama;-inkscape-font-specification:Flama;text-align:center;word-spacing:0px;text-anchor:middle;fill:#d54355;fill-opacity:1;stroke:none;stroke-width:6.43348"
     id="path13784" />
  <path
     d="m 1972.241,714.27813 h 34.2261 v -68.7095 h 29.594 l 42.9756,68.7095 h 37.3141 l -45.549,-72.5696 c 24.7046,-8.7495 36.2848,-31.3953 36.2848,-53.2691 0,-37.5715 -27.7926,-57.644 -62.276,-57.644 h -72.5696 z m 34.2261,-97.5314 v -57.1293 h 33.7114 c 19.0431,0 33.4541,6.9482 33.4541,28.5646 0,19.0431 -13.1243,28.5647 -32.9394,28.5647 z"
     style="font-size:257.339px;line-height:1.25;font-family:Flama;-inkscape-font-specification:Flama;text-align:center;word-spacing:0px;text-anchor:middle;fill:#d54355;fill-opacity:1;stroke:none;stroke-width:6.43348"
     id="path13786" />
  <path
     d="m 2210.2795,717.10893 c 42.7182,0 71.7975,-24.9619 71.7975,-68.7095 v -117.604 h -34.226 v 116.0599 c 0,26.2486 -12.6097,39.3729 -37.5715,39.3729 -26.7633,0 -37.5715,-16.727 -37.5715,-39.3729 v -116.0599 h -34.2261 v 120.1774 c 0,44.0049 29.0793,66.1361 71.7976,66.1361 z"
     style="font-size:257.339px;line-height:1.25;font-family:Flama;-inkscape-font-specification:Flama;text-align:center;word-spacing:0px;text-anchor:middle;fill:#d54355;fill-opacity:1;stroke:none;stroke-width:6.43348"
     id="path13788" />
  <path
     d="m 2387.8432,717.36623 c 34.9981,0 68.7095,-19.5578 68.7095,-60.4746 v -5.6615 h -32.4248 v 2.5734 c 0,23.9325 -19.5577,33.1967 -36.2847,33.1967 -21.6165,0 -40.6596,-12.6096 -40.6596,-34.7408 v -58.6732 c 0,-26.2486 21.8738,-35.5128 39.3729,-35.5128 16.727,0 37.5714,9.2642 37.5714,33.1967 v 2.5734 h 32.4248 v -5.6615 c 0,-40.9169 -34.9981,-60.4746 -69.9962,-60.4746 -40.1449,0 -73.3417,24.1898 -73.3417,67.6801 v 58.6733 c 0,40.9169 34.7408,63.3054 74.6284,63.3054 z"
     style="font-size:257.339px;line-height:1.25;font-family:Flama;-inkscape-font-specification:Flama;text-align:center;word-spacing:0px;text-anchor:middle;fill:#d54355;fill-opacity:1;stroke:none;stroke-width:6.43348"
     id="path13790" />
  <path
     d="m 2487.6905,714.27813 h 128.4121 v -30.1086 h -94.1861 v -48.3797 h 82.6059 v -30.1087 h -82.6059 v -44.777 h 93.1568 v -30.1087 h -127.3828 z"
     style="font-size:257.339px;line-height:1.25;font-family:Flama;-inkscape-font-specification:Flama;text-align:center;word-spacing:0px;text-anchor:middle;fill:#d54355;fill-opacity:1;stroke:none;stroke-width:6.43348"
     id="path13792" />
  <path
     d="m 2704.8839,717.10893 c 40.4022,0 70.5109,-22.3885 70.5109,-56.0999 0,-32.6821 -20.0724,-45.8064 -41.9463,-50.9531 l -31.3953,-7.7202 c -14.411,-3.8601 -26.7633,-9.7789 -26.7633,-22.6458 0,-16.4697 14.411,-23.1606 29.3367,-23.1606 17.7564,0 31.3953,5.6615 39.3728,21.1018 l 28.05,-12.3522 c -11.8376,-27.5353 -33.9688,-37.5715 -64.5921,-37.5715 -35.5128,0 -65.6214,20.0724 -65.6214,54.5558 0,32.4248 19.5577,43.4903 44.0049,49.6665 l 30.8807,7.4628 c 14.1536,4.1174 25.2192,10.2936 25.2192,23.9325 0,16.9844 -17.499,24.1899 -36.0274,24.1899 -20.5872,0 -37.3142,-10.0362 -44.2623,-27.7926 l -30.8807,12.0949 c 9.5215,31.138 40.4022,45.2917 74.1136,45.2917 z"
     style="font-size:257.339px;line-height:1.25;font-family:Flama;-inkscape-font-specification:Flama;text-align:center;word-spacing:0px;text-anchor:middle;fill:#d54355;fill-opacity:1;stroke:none;stroke-width:6.43348"
     id="path13794" />
</svg>
