<?xml version="1.0" encoding="UTF-8" standalone="no"?>
<svg xmlns:dc="http://purl.org/dc/elements/1.1/" xmlns:cc="http://creativecommons.org/ns#" xmlns:rdf="http://www.w3.org/1999/02/22-rdf-syntax-ns#" xmlns:svg="http://www.w3.org/2000/svg" xmlns="http://www.w3.org/2000/svg" xmlns:sodipodi="http://sodipodi.sourceforge.net/DTD/sodipodi-0.dtd" xmlns:inkscape="http://www.inkscape.org/namespaces/inkscape" version="1.1" id="svg4336" width="914.43353" height="361.10355" viewBox="0 0 914.43353 361.10355" sodipodi:docname="KTFQ-TV_(2021).svg" inkscape:version="1.0.1 (3bc2e813f5, 2020-09-07)">
  <style id="style4348"/>
  <metadata id="metadata4342">
    <rdf:RDF>
      <cc:Work rdf:about="">
        <dc:format>image/svg+xml</dc:format>
        <dc:type rdf:resource="http://purl.org/dc/dcmitype/StillImage"/>
        <dc:title/>
      </cc:Work>
    </rdf:RDF>
  </metadata>
  <defs id="defs4340"/>
  <sodipodi:namedview pagecolor="#ffffff" bordercolor="#666666" borderopacity="1" objecttolerance="10" gridtolerance="10" guidetolerance="10" inkscape:pageopacity="0" inkscape:pageshadow="2" inkscape:window-width="1366" inkscape:window-height="706" id="namedview4338" showgrid="false" inkscape:zoom="0.46981806" inkscape:cx="503.2741" inkscape:cy="241.61167" inkscape:window-x="-8" inkscape:window-y="-8" inkscape:window-maximized="1" inkscape:current-layer="g4344"/>
  <g inkscape:groupmode="layer" inkscape:label="Image" id="g4344" transform="translate(-591.661,-385.958)">
    <g id="g4547">
      <g id="text4508" style="fill:#d64355;fill-opacity:1">
        <path d="m 655.60201,745.50134 h 16.64217 v -63.31828 h 0.26004 l 40.17525,63.31828 h 16.90221 V 652.79922 H 712.9395 v 63.18826 h -0.26003 L 672.3742,652.79922 h -16.77219 z" id="path4510" style="fill:#d64355;fill-opacity:1"/>
        <path d="m 748.06404,745.50134 h 64.87849 V 730.28935 H 765.3563 v -24.44319 h 41.73546 V 690.63417 H 765.3563 v -22.62296 h 47.06616 v -15.21199 h -64.35842 z" id="path4512" style="fill:#d64355;fill-opacity:1"/>
        <path d="m 845.20652,745.89139 h 16.12211 l 16.64218,-65.39855 h 0.26003 l 16.64218,65.39855 h 15.99209 l 24.05314,-93.09217 h -17.42228 l -14.82193,65.26854 H 902.414 l -16.90221,-65.26854 h -14.69192 l -17.03223,64.87849 h -0.26003 l -14.5619,-64.87849 h -17.68232 z" id="path4514" style="fill:#d64355;fill-opacity:1"/>
        <path d="m 977.86354,745.50134 h 16.64218 V 684.0033 h 0.26003 l 21.06275,50.83665 h 13.6518 l 21.0627,-51.09668 h 0.2601 v 61.75807 h 16.6422 v -92.70212 h -21.0628 l -23.273,57.98758 h -0.2601 l -23.9231,-57.98758 h -21.06276 z" id="path4516" style="fill:#d64355;fill-opacity:1"/>
        <path d="m 1085.9275,745.50134 h 64.8785 v -15.21199 h -47.5863 v -24.44319 h 41.7355 v -15.21199 h -41.7355 v -22.62296 h 47.0662 v -15.21199 h -64.3584 z" id="path4518" style="fill:#d64355;fill-opacity:1"/>
        <path d="m 1154.5961,745.50134 h 19.5025 l 20.4127,-33.28435 20.2826,33.28435 h 20.1527 l -30.424,-47.97627 28.2137,-44.72585 h -19.1125 l -18.7225,30.81403 -18.3324,-30.81403 h -19.7625 l 28.2136,44.59583 z" id="path4520" style="fill:#d64355;fill-opacity:1"/>
        <path d="m 1243.0275,745.50134 h 17.2923 v -92.70212 h -17.2923 z" id="path4522" style="fill:#d64355;fill-opacity:1"/>
        <path d="m 1314.1667,747.06155 c 17.6823,0 34.7145,-9.8813 34.7145,-30.554 v -2.86037 h -16.3821 v 1.30017 c 0,12.09158 -9.8813,16.77219 -18.3324,16.77219 -10.9214,0 -20.5427,-6.37083 -20.5427,-17.55229 v -29.64388 c 0,-13.26173 11.0515,-17.94235 19.8926,-17.94235 8.4511,0 18.9825,4.68062 18.9825,16.7722 v 1.30017 h 16.3821 v -2.86038 c 0,-20.6727 -17.6823,-30.55399 -35.3646,-30.55399 -20.2826,0 -37.0548,12.2216 -37.0548,34.19447 v 29.64388 c 0,20.6727 17.5523,31.98418 37.7049,31.98418 z" id="path4524" style="fill:#d64355;fill-opacity:1"/>
        <path d="m 1399.7379,747.06155 c 18.3324,0 37.0548,-12.2216 37.0548,-34.19447 v -27.82364 c 0,-20.6727 -17.5523,-33.80442 -37.7049,-33.80442 -18.3324,0 -37.0549,12.2216 -37.0549,34.19447 v 29.64388 c 0,20.6727 17.5523,31.98418 37.705,31.98418 z m 0,-15.34201 c -10.9215,0 -20.5427,-6.37083 -20.5427,-17.55229 v -29.64388 c 0,-13.26173 11.0514,-17.94235 19.8926,-17.94235 10.9214,0 20.5427,6.37084 20.5427,17.5523 v 29.64388 c 0,13.26173 -11.0515,17.94234 -19.8926,17.94234 z" id="path4526" style="fill:#d64355;fill-opacity:1"/>
      </g>
      <g id="g899" transform="matrix(0.34259681,0,0,0.34146597,592.00084,363.67598)" style="fill:#0e07ac;fill-opacity:1">
        <path id="path880" style="fill:#0e07ac;fill-opacity:1;stroke:none;stroke-width:0.510001" d="m 1981.6113,209.626 -265.1875,516.92283 h 151.1094 l 39.1934,-83.78906 h 171.3869 l 10.3086,83.78906 h 156.8103 L 2166.734,209.626 Z m 61.3147,138.93455 20.7988,177.05945 h -102.301 z" sodipodi:nodetypes="ccccccccccccc"/>
        <path style="fill:#0e07ac;fill-opacity:1;stroke:none;stroke-width:1px;stroke-linecap:butt;stroke-linejoin:miter;stroke-opacity:1" d="M 221.76717,209.626 163.919,540.284 c -4.48121,25.3868 -1.8318,70.88361 59.19191,71.269 46.37871,0.2929 70.83126,-29.58874 79.38309,-71.269 L 360.52,209.626 H 514.80242 L 457.034,539.487 C 435.85876,663.52021 336.77056,735.871 191.90624,735.871 76.750135,735.871 -23.910778,670.94583 3.5833115,539.487 L 56.536693,239.28558 C 59.967125,217.28164 71.59217,209.626 86.795768,209.626 Z" id="path862" sodipodi:nodetypes="ccsccccscccc"/>
        <path style="fill:#0e07ac;fill-opacity:1;stroke:none;stroke-width:1px;stroke-linecap:butt;stroke-linejoin:miter;stroke-opacity:1" d="m 843.473,452.095 41.603,-242.469 h 144.5288 L 937.535,726.55007 806.24509,726.15193 672.57885,408.92456 614.30182,726.351 H 470.29844 l 91.63852,-516.725 h 75.16892 c 131.56322,0 186.82422,154.80496 206.36712,242.469 z" id="path864" sodipodi:nodetypes="ccccccccccc"/>
        <path id="rect866" style="fill:#0e07ac;fill-opacity:1;stroke:none;stroke-width:0.513923" transform="matrix(1,0,-0.17372437,0.98479432,0,0)" d="m 1111.8813,212.86275 h 159.91 v 524.90558 h -159.91 z"/>
        <path id="path875" style="fill:#0e07ac;fill-opacity:1;stroke:none;stroke-width:0.510001" d="M 1636.7207,209.62502 1526.25,391.40039 c -5.3961,-40.54657 -16.9699,-77.5314 -35.877,-107.13672 -21.5534,-33.74915 -74.7267,-74.63672 -138.9707,-74.63672 h -70 l -91.789,516.92383 h 142.9101 l 56.6934,-319.33578 40.6406,237.63266 h 100.7637 L 1658.062,402.915 1601.6133,726.55078 h 143.3099 l 91.4878,-516.9238 z" sodipodi:nodetypes="ccscccccccccccc"/>
        <path style="fill:#0e07ac;fill-opacity:1;stroke:none;stroke-width:1px;stroke-linecap:butt;stroke-linejoin:miter;stroke-opacity:1" d="m 1966.8639,173.502 h 223.0458 l 50.4583,-108.248 -259.362,53.89349 z" id="path888" sodipodi:nodetypes="ccccc"/>
        <path style="fill:#0e07ac;fill-opacity:1;stroke:none;stroke-width:1px;stroke-linecap:butt;stroke-linejoin:miter;stroke-opacity:1" d="m 2291.75,566.25 c 38.2619,32.50672 78.82,52.25 129.75,52.25 38.8791,0 65.75,-11.66426 65.75,-36.5 0,-20.6989 -17.2439,-24.63472 -33,-30.25 C 2368.2854,521.11334 2278,495.99879 2278,384.5 c 0,-54.64753 24.4962,-106.31472 64.7942,-138.25959 C 2378.8644,217.647 2427.5947,201.65 2482.75,201.65 c 54.4211,0 123.0115,10.82423 173.25,45.95 5.4908,3.83909 12.1325,11.33038 12.1325,21.16134 0,5.44889 -1.6196,11.48594 -6.6325,17.73866 L 2594,362 c -28.0724,-23.17399 -65.4148,-40.25 -103.25,-40.25 -24.9602,0 -58.8,6.65571 -58.8,31.5 0,24.0545 32.6019,32.17658 63.05,41.75 63.9363,20.10267 107.8675,40.39465 136.2184,78.33678 C 2646.8294,494.22891 2655,519.41219 2655,551 c 0,49.12108 -13.9344,85.65588 -42.9714,117.61752 C 2575.0919,709.27453 2509.7173,735.05 2425.5,735.05 c -70.0021,0 -161.25,-15.63948 -216.8,-67.05 z" id="path890" sodipodi:nodetypes="cssssssssccssssssscc"/>
      </g>
    </g>
  </g>
  <style id="style4128"/>
  <style id="style3912"/>
  <style id="style2537"/>
  <style id="style2350"/>
  <style id="style2176"/>
  <style id="style1345"/>
  <style id="style1217"/>
  <style id="style2722"/>
  <style id="style2521"/>
  <style id="style1988"/>
  <style id="style1815"/>
  <style id="style1488"/>
  <style id="style856"/>
  <style id="style856-2"/>
  <style id="style856-8"/>
  <style id="style1217-2"/>
  <style id="style2722-5"/>
  <style id="style2521-0"/>
  <style id="style1988-9"/>
  <style id="style1815-3"/>
  <style id="style1488-3"/>
  <style id="style856-7"/>
  <style id="style856-2-2"/>
  <style id="style856-8-1"/>
  <style id="style2176-9"/>
  <style id="style1345-4"/>
  <style id="style1217-26"/>
  <style id="style2722-6"/>
  <style id="style2521-9"/>
  <style id="style1988-2"/>
  <style id="style1815-0"/>
  <style id="style1488-38"/>
  <style id="style856-9"/>
  <style id="style856-2-7"/>
  <style id="style856-8-4"/>
  <style id="style1217-2-9"/>
  <style id="style2722-5-3"/>
  <style id="style2521-0-9"/>
  <style id="style1988-9-3"/>
  <style id="style1815-3-3"/>
  <style id="style1488-3-8"/>
  <style id="style856-7-4"/>
  <style id="style856-2-2-3"/>
  <style id="style856-8-1-7"/>
</svg>