<?xml version="1.0" encoding="utf-8"?>
<!-- Generator: Adobe Illustrator 26.3.1, SVG Export Plug-In . SVG Version: 6.00 Build 0)  -->
<svg version="1.1" id="Layer_1" xmlns="http://www.w3.org/2000/svg" xmlns:xlink="http://www.w3.org/1999/xlink" x="0px" y="0px"
	 viewBox="0 0 1432.8 457.6" style="enable-background:new 0 0 1432.8 457.6;" xml:space="preserve">
<style type="text/css">
	.st0{fill:#C62329;}
	.st1{fill:#07111E;}
	.st2{fill-rule:evenodd;clip-rule:evenodd;fill:#F0F0F0;}
</style>
<g>
	<path class="st0" d="M62.2,293.6C17,281.6,4,237.4,29.6,182c-4,6.5-7.7,13-11,19.5c-35.2,70-19.5,126.2,38.2,139.8l-21-30.8
		L62.2,293.6z"/>
	<path class="st0" d="M402.1,61.2l-20.7,23.9L355.1,57c3.2,21.8-3.5,49.6-22.1,81.7c-51,87.8-163,156.9-242,158.1
		c-1.3,0-2.5,0-3.7,0l3.1-17.7L40,311.4l35.6,52.3l3.4-19.3c3,0.1,6.1,0.2,9.3,0.2c93.8-1.4,226.9-83.5,287.4-187.7
		C397.4,119.4,405.5,86.9,402.1,61.2z"/>
	<path class="st0" d="M395.1,38.1C378,4.9,333.5-8.8,270.4,5.8c-3.8,0.9-7.7,1.8-11.5,2.9c44.1-6.9,75.5,4,89.2,27.8l-4.3-0.1
		l37.5,39.9l32.4-37.5L395.1,38.1z"/>
	<polygon points="807.6,251.4 807.6,82.6 849.8,82.6 849.8,213 900.5,213 900.5,251.4 	"/>
	<path d="M903,166.9c0-63.3,27.9-87.3,72-87.3c44.1,0,72,24.1,72,87.5c0,63.4-27.9,87.4-72,87.4C930.7,254.5,903,230.4,903,166.9z
		 M1000,167.1c0-40-9.3-50.7-25-50.7c-15.7,0-25,10.6-25,50.5c0,40.1,9.3,50.8,25,50.8C990.7,217.7,1000,207.1,1000,167.1z"/>
	<path d="M1057.4,166.8c0-63.5,26.6-87.2,70.5-87.2c38,0,60.6,18.7,65.4,66.5h-44.6c-2.4-23.2-9.9-29.7-21.2-29.7
		c-14.7,0-23.2,10.7-23.2,50.4c0,39.9,8.9,50.9,23.5,50.9c10.8,0,18.8-6.2,21-29.7h44.3c-4.4,47.3-29.8,66.5-66.6,66.5
		C1084.5,254.5,1057.4,230.5,1057.4,166.8z"/>
	<path d="M1290.2,251.4l-6.4-28h-44.2l-6.3,28h-45l43.8-168.7h58.1l46.2,168.7H1290.2z M1247.5,188.4h28.4l-5.2-22.7
		c-3.8-17.4-6.6-32.5-9.2-47.3c-2.5,14.8-5.2,29.7-8.9,47L1247.5,188.4z"/>
	<polygon points="1339.8,251.4 1339.8,82.6 1382.1,82.6 1382.1,213 1432.8,213 1432.8,251.4 	"/>
	<path d="M138.4,82.6h24.3v168.7h-29l-42-90.9c-5.9-13.1-12-26.6-17.3-40.8c0.6,15.3,0.8,28.7,0.8,40.5l0.2,91.3H51V82.6h29
		l46.8,101.7c4.2,9.5,8.4,20.3,12.5,31.2c-0.4-12-0.6-22.3-0.6-31.2L138.4,82.6z"/>
	<path d="M178.1,189.3c0-46.1,18.5-64.3,48.6-64.3c29.9,0,48.4,18.4,48.4,64.3c0,46.2-18.5,64.3-48.4,64.3
		C196.7,253.7,178.1,235.4,178.1,189.3z M250.5,189.3c0-34.6-8.7-45.6-23.8-45.6c-15.2,0-24,10.7-24,45.6c0,34.8,8.8,45.6,24,45.6
		C241.8,234.9,250.5,224.3,250.5,189.3z"/>
	<path d="M376.8,160.5v90.8h-24.2v-87.1c0-13.5-6.3-19.1-17.5-19.1c-10.2,0-21.5,6.9-21.6,26.4v79.8h-24.1v-124h23.4v15.3
		c6.7-11.3,17.3-17.7,30.8-17.7C364.7,125,376.8,136.8,376.8,160.5z"/>
	<path d="M389.9,198.9h25.4c0.9,27.3,12.4,34.5,30.2,34.5c17.9,0,26.7-8.1,26.7-22.6c0-16.4-8.9-23.9-29.4-33.4l-13.3-5.9
		c-20.8-8.7-36.6-21.3-36.6-48.9c0-26.1,17.3-42.7,49.7-42.7c37.2,0,52.1,17.8,53,50.9h-24.9c-1.1-20.9-7.7-30.1-27.5-30.1
		c-16.5,0-24.1,7.9-24.1,20.9c0,14.5,6.9,22.7,25.9,31.2l13.2,5.9c27.6,11,40.3,24.8,40.3,50.5c0,29-19.2,45-52.4,45
		C411.3,254.1,391.1,239.7,389.9,198.9z"/>
	<path d="M542.6,146.5v75.1c0,8.2,3,10.8,11.4,10.8h8.2v18.8c-4.4,0.4-9.2,0.7-13.7,0.7c-19.8,0-30.1-6.5-30.1-26.8v-78.6h-15.2
		v-19.2h15.2V91.6h24.1v35.7h19.6v19.2H542.6z"/>
	<path d="M568.8,189.3c0-46.1,18.5-64.3,48.6-64.3c29.9,0,48.4,18.4,48.4,64.3c0,46.2-18.5,64.3-48.4,64.3
		C587.4,253.7,568.8,235.4,568.8,189.3z M641.2,189.3c0-34.6-8.7-45.6-23.8-45.6c-15.2,0-24,10.7-24,45.6c0,34.8,8.8,45.6,24,45.6
		C632.5,234.9,641.2,224.3,641.2,189.3z"/>
	<path d="M774,189.2c0,46.2-15.4,64.5-41,64.5c-13,0-22.6-5.3-28.9-15.7v58.7h-24.1V127.3h23.3v14.8c6.4-11.4,16.4-17.2,30-17.2
		C758.6,125,774,143,774,189.2z M749.4,188.8c0-34.1-8.2-44.6-22.8-44.6c-14.5,0-23.1,11.6-23.1,45.1c0,33.4,8.4,45.1,22.9,45.1
		C741,234.5,749.4,222.9,749.4,188.8z"/>
	<circle class="st1" cx="413.9" cy="373.9" r="83.8"/>
	<path class="st2" d="M390.8,339.6v34.3c0,12.7,10.3,23,23,23c12.7,0,23-10.3,23-23s-10.3-23-23-23c-3.5,0-7.1,1.1-10.1,3.1v-14.4
		H390.8L390.8,339.6z M413.8,363.8c5.6,0,10.1,4.5,10.1,10.1s-4.5,10.1-10.1,10.1s-10.1-4.5-10.1-10.1S408.2,363.8,413.8,363.8z"/>
	<path class="st2" d="M364.6,350.9c-12.7,0-23,10.3-23,23s10.3,23,23,23c3.8,0,7.6-1.6,10.4-4.3v3.9h12.6v-22.6
		C387.6,361.2,377.3,350.9,364.6,350.9z M364.6,363.8c5.6,0,10.1,4.5,10.1,10.1s-4.5,10.1-10.1,10.1s-10.1-4.5-10.1-10.1
		S359,363.8,364.6,363.8z"/>
	<path id="_x3C_Path_x3E__00000121965759242446422370000001219629175799840440_" class="st2" d="M463.1,350.9c-12.7,0-23,10.3-23,23
		s10.3,23,23,23c11.5,0,21.2-8.5,22.8-19.9h-13.1c-1.3,4.1-5.1,7-9.6,7c-5.6,0-10.1-4.5-10.1-10.1s4.5-10.1,10.1-10.1
		c4.5,0,8.3,3,9.6,7h13.1C484.4,359.4,474.6,350.9,463.1,350.9"/>
	<polygon points="567.1,349.6 609.4,349.6 607,315.3 531.7,315.3 531.7,440.5 567.1,440.5 567.1,400.1 601.6,400.1 601.6,365.9 
		567.1,365.9 	"/>
	<path d="M728.2,378c0-17-5.9-31.4-17.6-43.4c-11.8-12-25.9-18-42.5-18c-16.7,0-31,6-42.7,18c-11.8,12-17.6,26.5-17.6,43.4
		c0,17.1,5.9,31.6,17.6,43.6c11.8,12,26,18,42.7,18c16.6,0,30.8-6,42.5-18C722.3,409.6,728.2,395.1,728.2,378z M678.7,403.1
		c0,2.8-1,5.2-3,7.3c-2,2.1-4.5,3.1-7.4,3.1c-2.9,0-5.4-1-7.5-3.1c-2.1-2.1-3.1-4.5-3.1-7.3h0v-50.7c0-2.9,1-5.4,3.1-7.5
		c2.1-2.1,4.5-3.1,7.5-3.1c2.9,0,5.4,1,7.4,3.1c2,2.1,3,4.5,3,7.5V403.1z"/>
	<polygon points="785.5,375.6 819.8,315.3 781,315.3 766.2,342.4 751.6,315.3 711.5,315.3 746.5,375.9 709.4,440.9 748.4,440.9 
		765.6,409.1 783.5,440.9 823.3,440.9 	"/>
</g>
</svg>
