<svg xmlns="http://www.w3.org/2000/svg" xmlns:xlink="http://www.w3.org/1999/xlink" width="99.371" height="71.314" viewBox="0 0 99.371 71.314"><defs><style>.a{fill:#00407a;}.b{fill:url(#a);}</style><linearGradient id="a" y1="0.5" x2="1" y2="0.5" gradientUnits="objectBoundingBox"><stop offset="0" stop-color="#fff"/><stop offset="0.522" stop-color="#ffd500"/><stop offset="1" stop-color="#ec6616"/></linearGradient></defs><g transform="translate(-6.567 -32.477)"><g transform="translate(6.567 32.476)"><g transform="translate(0 0)"><g transform="translate(26.979)"><path class="a" d="M178.28,28.358c-1.577-5.048-6.725-8.426-13.114-8.6l-.328-.006h-19.55l.585-3.334.681-3.873-.591,0H142.2s-1.158,6.592-1.267,7.211h-5.27a5.307,5.307,0,0,0-4.375,1.536L120.578,32.76c.721-3.909,2.3-12.293,2.321-12.394l.111-.589h-4.416l-4.839,26.45.712-.054a5.178,5.178,0,0,0,3.043-.949,4.256,4.256,0,0,0,1.08-1.984l.6-2.749a2.032,2.032,0,0,1,.582-1.114l2.8-2.849,5.907,9.634h4.76L125.413,33.41l.789-.828,6.695-7.03c1.552-1.638,1.552-1.638,3.421-1.637l3.887,0c-1.172,6.561-4.133,21.515-4.164,21.67l-.117.593h4.46l.075-.406c.153-.822,3.5-18.864,4.048-21.857H152.5c-3.793,2.951-5.97,7.009-5.97,11.005a10.717,10.717,0,0,0,.486,3.206c2.165,6.934,10.94,10.385,19.562,7.693a18.057,18.057,0,0,0,10.723-8.5A11.71,11.71,0,0,0,178.28,28.358ZM165.157,41.839c-6.052,1.89-12.186-.445-13.673-5.206s2.229-10.174,8.279-12.063,12.184.447,13.675,5.207S171.209,39.949,165.157,41.839Z" transform="translate(-113.755 -12.537)"/></g><rect class="b" width="89.851" height="3.367" transform="translate(0 36.795)"/></g></g><g transform="translate(32.849 78.228)"><path class="a" d="M195.414,168.283v7.444h-1.76v-7.444H191.3v-1.57h6.471v1.57Z" transform="translate(-191.299 -163.687)"/><path class="a" d="M207.431,172.576v-9.014h5.938v1.57H209.19v2.115h3.558v1.571H209.19v2.19h4.179v1.568Zm3.267-9.889h-1.1l.81-2.151h1.734Z" transform="translate(-199.529 -160.535)"/><path class="a" d="M223.071,175.727v-9.014h1.76v7.446h4.09v1.568Z" transform="translate(-207.509 -163.687)"/><path class="a" d="M237.936,172.576v-9.014h5.939v1.57H239.7v2.115h3.559v1.571H239.7v2.19h4.18v1.568Zm3.267-9.889h-1.1l.811-2.151h1.734Z" transform="translate(-215.093 -160.535)"/><path class="a" d="M255.8,175.727h-1.316l-2.977-9.014h1.823l1.811,5.875,1.811-5.875h1.837Z" transform="translate(-222.017 -163.687)"/><path class="a" d="M268.6,175.727v-9.014h1.759v9.014Z" transform="translate(-230.736 -163.687)"/><path class="a" d="M278.12,175.725a4.227,4.227,0,0,1-3.291-1.189l1.139-1.139a2.952,2.952,0,0,0,2.178.76c1.037,0,1.6-.394,1.6-1.115a1,1,0,0,0-.279-.76,1.336,1.336,0,0,0-.8-.316l-1.088-.152a3.065,3.065,0,0,1-1.747-.747,2.384,2.384,0,0,1-.647-1.774c0-1.608,1.191-2.735,3.141-2.735a3.867,3.867,0,0,1,2.913,1.051l-1.115,1.1a2.513,2.513,0,0,0-1.849-.62c-.937,0-1.392.519-1.392,1.139a.876.876,0,0,0,.265.647,1.564,1.564,0,0,0,.836.355l1.063.152a2.973,2.973,0,0,1,1.723.7,2.522,2.522,0,0,1,.7,1.911C281.464,174.737,280.007,175.725,278.12,175.725Z" transform="translate(-233.915 -163.608)"/><path class="a" d="M291.758,175.727v-9.014h1.761v9.014Z" transform="translate(-242.553 -163.687)"/><path class="a" d="M304.786,174.737a3.255,3.255,0,0,1-2.431.988,3.288,3.288,0,0,1-2.445-.988c-.912-.912-.885-2.039-.885-3.595s-.027-2.685.885-3.6a3.3,3.3,0,0,1,2.445-.987,3.262,3.262,0,0,1,2.431.987c.912.912.9,2.039.9,3.6S305.7,173.825,304.786,174.737Zm-1.3-6.128a1.465,1.465,0,0,0-1.127-.48,1.486,1.486,0,0,0-1.139.48c-.343.38-.431.8-.431,2.533s.088,2.152.431,2.531a1.487,1.487,0,0,0,1.139.482,1.466,1.466,0,0,0,1.127-.482c.341-.38.443-.8.443-2.531S303.824,168.988,303.483,168.609Z" transform="translate(-246.261 -163.608)"/><path class="a" d="M321.626,175.727l-3.572-5.533v5.533h-1.759v-9.014h1.57l3.571,5.52v-5.52h1.759v9.014Z" transform="translate(-255.071 -163.687)"/><path class="a" d="M343.368,175.725a3.314,3.314,0,0,1-2.43-.988c-.912-.912-.887-2.039-.887-3.595s-.024-2.685.887-3.6a3.321,3.321,0,0,1,2.43-.987,3.178,3.178,0,0,1,3.318,2.849H344.9a1.493,1.493,0,0,0-1.521-1.279,1.457,1.457,0,0,0-1.127.468c-.341.38-.442.811-.442,2.546s.1,2.164.442,2.544a1.457,1.457,0,0,0,1.127.47,1.5,1.5,0,0,0,1.521-1.279h1.784A3.186,3.186,0,0,1,343.368,175.725Z" transform="translate(-340.051 -150.466)"/><path class="a" d="M360.541,175.727l-.531-1.595h-3.2l-.544,1.595h-1.837l3.28-9.014h1.38l3.293,9.014Zm-2.1-6.356-1.14,3.28h2.24Z" transform="translate(-347.384 -150.546)"/><path class="a" d="M374.128,168.283v7.444h-1.759v-7.444h-2.357v-1.57h6.471v1.57Z" transform="translate(-355.337 -150.546)"/><path class="a" d="M390.956,175.727v-3.773H387.9v3.773h-1.759v-9.014H387.9V170.4h3.053v-3.685h1.759v9.014Z" transform="translate(-363.567 -150.546)"/><path class="a" d="M408.995,174.737a3.5,3.5,0,0,1-4.876,0c-.911-.912-.887-2.039-.887-3.595s-.025-2.685.887-3.6a3.5,3.5,0,0,1,4.876,0c.912.912.9,2.039.9,3.6S409.906,173.825,408.995,174.737Zm-1.305-6.128a1.46,1.46,0,0,0-1.127-.48,1.492,1.492,0,0,0-1.139.48c-.341.38-.431.8-.431,2.533s.09,2.152.431,2.531a1.493,1.493,0,0,0,1.139.482,1.461,1.461,0,0,0,1.127-.482c.343-.38.443-.8.443-2.531S408.032,168.988,407.689,168.609Z" transform="translate(-372.285 -150.466)"/><path class="a" d="M420.5,175.727v-9.014h1.761v7.446h4.089v1.568Z" transform="translate(-381.096 -150.546)"/><path class="a" d="M435.368,175.727v-9.014h1.759v9.014Z" transform="translate(-388.681 -150.546)"/><path class="a" d="M448.583,176.028l-.8-.8a3.555,3.555,0,0,1-4.266-.495c-.911-.912-.887-2.039-.887-3.595s-.024-2.685.887-3.6a3.5,3.5,0,0,1,4.874,0c.913.912.9,2.039.9,3.6a5.441,5.441,0,0,1-.557,3.19l.773.772Zm-1.494-7.42a1.46,1.46,0,0,0-1.127-.48,1.489,1.489,0,0,0-1.139.48c-.341.38-.431.8-.431,2.533s.09,2.152.431,2.531a1.49,1.49,0,0,0,1.139.482,1.008,1.008,0,0,0,.583-.166l-.784-.772.936-.924.672.672a5.8,5.8,0,0,0,.164-1.823C447.531,169.407,447.431,168.988,447.088,168.609Z" transform="translate(-392.387 -150.466)"/><path class="a" d="M462.907,175.8a3.134,3.134,0,0,1-3.317-3.166v-5.925h1.761v5.863a1.566,1.566,0,1,0,3.126,0v-5.863h1.747v5.925A3.133,3.133,0,0,1,462.907,175.8Z" transform="translate(-401.039 -150.546)"/><path class="a" d="M477.143,175.727v-9.014h5.939v1.57H478.9V170.4h3.558v1.571H478.9v2.19h4.178v1.568Z" transform="translate(-409.995 -150.546)"/></g></g></svg>