<?xml version="1.0" encoding="UTF-8"?>
<svg version="1.1" viewBox="0 0 918.17 270.71" xmlns="http://www.w3.org/2000/svg">
 <title>KTTC</title>
 <desc>Television station in Rochester, Minnesota</desc>
 <defs>
  <style>.cls-1{fill:#36659c;}.cls-1,.cls-2{stroke-width:0px;}.cls-2{fill:#fff;}</style>
 </defs>
 <g id="BlueBox">
  <rect class="cls-1" width="918.17" height="270.71"/>
 </g>
 <g id="C">
  <path class="cls-2" d="m781.9 249.91c-15.74 0-30.53-2.83-44.37-8.5-13.85-5.66-25.86-13.58-36.03-23.76-10.18-10.17-18.25-22.24-24.23-36.19s-8.97-29.11-8.97-45.47v-0.63c0-15.94 2.93-30.89 8.81-44.85 5.87-13.95 13.95-26.12 24.23-36.51s22.5-18.51 36.66-24.39c14.16-5.87 29.63-8.81 46.42-8.81 11.33 0 21.61 1.1 30.84 3.31 9.23 2.2 17.67 5.35 25.33 9.44s14.58 8.97 20.77 14.63 11.69 11.86 16.52 18.57l-45.95 35.56c-6.29-7.97-13.22-14.27-20.77-18.88s-16.68-6.92-27.38-6.92c-7.76 0-14.85 1.52-21.24 4.56-6.4 3.04-11.91 7.19-16.52 12.43-4.62 5.25-8.24 11.44-10.86 18.57-2.63 7.14-3.93 14.69-3.93 22.66v0.63c0 8.18 1.31 15.89 3.93 23.13s6.24 13.48 10.86 18.73c4.61 5.25 10.12 9.39 16.52 12.43s13.48 4.56 21.24 4.56c5.66 0 10.86-0.63 15.58-1.89s9.02-3.09 12.9-5.51c3.88-2.41 7.55-5.24 11.01-8.5 3.46-3.25 6.87-6.87 10.23-10.86l45.95 32.73c-5.25 7.13-10.96 13.74-17.15 19.83s-13.22 11.33-21.09 15.74-16.68 7.87-26.44 10.39-20.72 3.78-32.89 3.78z"/>
 </g>
 <path class="cls-2" d="m539.55,78.71h-66.09V25.21h193.23v53.5h-66.09v166.79h-61.05V78.71Z"/>
 <path class="cls-2" d="m327.55,78.71h-66.09V25.21h193.23v53.5h-66.09v166.79h-61.05V78.71Z"/>
 <g id="K">
  <path class="cls-2" d="m38.71 25.21h61.05v89.38l75.85-89.38h72.38l-83.4 94.73 86.23 125.57h-73.33l-55.39-81.82-22.34 24.86v56.96h-61.05v-220.3z"/>
 </g>
</svg>
