<?xml version="1.0" encoding="utf-8"?>
<!-- Generator: Adobe Illustrator 23.0.3, SVG Export Plug-In . SVG Version: 6.00 Build 0)  -->
<svg version="1.1" id="svg1" xmlns:svg="http://www.w3.org/2000/svg"
	 xmlns="http://www.w3.org/2000/svg" xmlns:xlink="http://www.w3.org/1999/xlink" x="0px" y="0px" viewBox="0 0 3224.1 713.6"
	 style="enable-background:new 0 0 3224.1 713.6;" xml:space="preserve">
<style type="text/css">
	.st0{fill-rule:evenodd;clip-rule:evenodd;fill:#164D91;}
	.st1{fill:#164D91;}
	.st2{fill:#FFFFFF;}
</style>
<g>
	<path d="M1294,580.2c-3.2,7.4-7.9,13.4-14.3,18.2c-6.1,4.8-13,8.6-20.8,11.4c-7.8,2.8-16.2,4.9-25.2,6.2
		c-8.8,1.1-17.3,1.6-25.6,1.6c-15.4,0-29.4-1.6-42-4.9c-12.7-3.5-23.5-8.6-32.5-15.3c-9-6.9-16.1-15.5-21.2-25.7
		c-4.9-10.2-7.3-22.1-7.3-35.7c0-13.9,2.6-25.9,7.7-36c5.1-10.2,12.2-18.6,21.2-25.3c9.3-6.7,20.2-11.6,32.9-14.6
		c12.7-3.2,26.4-4.9,41.3-4.9c8.3,0,16.7,0.8,25.2,2.3c8.5,1.3,16.6,3.6,24.1,6.8c7.6,3.2,14.3,7.6,20.1,13
		c6.1,5.4,10.8,12.2,14.3,20.5l46.8-10.1c-5.8-14.1-13.6-25.5-23.4-34.4c-9.7-8.9-20.6-15.8-32.5-20.8c-11.7-5-24.1-8.3-37.3-10.1
		c-12.9-1.9-25.5-2.9-37.6-2.9c-21.7,0-41.8,2.3-60.3,6.8c-18.3,4.3-34.2,11.3-47.9,20.8c-13.4,9.3-24,21.3-31.8,36
		c-7.6,14.7-11.3,32.4-11.3,52.9s3.8,38.2,11.3,52.9c7.8,14.7,18.4,26.8,31.8,36.4c13.6,9.5,29.6,16.6,47.9,21.1
		c18.5,4.5,38.6,6.8,60.3,6.8c11.7,0,24.1-0.8,37.3-2.3c13.2-1.5,25.7-4.5,37.6-9.1c12.2-4.5,23.4-10.8,33.6-18.8
		c10.2-8.2,18.3-19.1,24.1-32.5L1294,580.2z"/>
	<path d="M1463.4,422.7L1339.8,650h54.1l30.3-57.5h137.4L1592,650l54.1,0l-123.2-227.3H1463.4z M1443.3,556.8l49.7-93.5l49.7,93.5
		H1443.3z"/>
	<path d="M1885.9,532.5c-10-4.8-21.4-8.3-34.4-10.7c-12.7-2.6-25.7-4.5-39.1-5.8c-13.4-1.5-26.6-2.7-39.5-3.6
		c-12.7-0.9-24-2.1-34-3.6c-10-1.7-18-4.1-24.1-7.1c-6.1-3.2-9.1-7.7-9.1-13.3c0-7.8,2.7-13.9,8-18.2c5.6-4.3,12.3-7.6,20.1-9.7
		c8-2.4,16.3-3.8,24.9-4.2c8.5-0.6,16-1,22.3-1c8.3,0,16.7,0.4,25.2,1.3c8.5,0.6,16.6,2.2,24.1,4.5c7.8,2.4,14.6,6.1,20.5,11
		c6.1,4.8,10.6,11.1,13.5,19.2l46.4-10.1c-5.1-13-12.2-23.5-21.2-31.5c-8.8-8-18.9-14.3-30.3-18.8c-11.2-4.5-23.5-7.6-36.9-9.1
		c-13.2-1.5-26.7-2.3-40.6-2.3c-12.2,0-25.6,1-40.2,2.9c-14.6,1.9-28.3,5.5-40.9,10.7c-12.4,5.2-22.9,12.2-31.4,21.1
		c-8.3,8.9-12.4,20.2-12.4,34.1c0,11.3,3,20.5,9.1,27.6c6.1,7.1,14.1,12.9,24.1,17.2c10,4.3,21.3,7.6,34,9.7
		c12.9,2.2,26,3.9,39.1,5.2c13.4,1.3,26.4,2.5,39.1,3.6c12.9,1.1,24.4,2.8,34.4,5.2c10,2.2,18,5.2,24.1,9.1c6.1,3.7,9.1,9,9.1,15.9
		c0,8.4-3,15-9.1,19.8c-6.1,4.8-13.5,8.3-22.3,10.7c-8.5,2.4-17.5,3.9-27,4.5c-9.5,0.4-17.5,0.6-24.1,0.6c-8.8,0-17.9-0.4-27.4-1.3
		c-9.3-1.1-18.2-3-26.7-5.8c-8.3-3-15.8-7.1-22.7-12.3c-6.6-5.4-11.3-12.3-14.3-20.8l-46.1,10.4c4.1,14.3,11,25.8,20.5,34.4
		c9.5,8.4,20.5,15,32.9,19.8c12.7,4.5,26.2,7.6,40.6,9.1c14.6,1.5,29,2.3,43.1,2.3c9,0,18.5-0.3,28.5-1c10.2-0.6,20.2-1.9,30-3.9
		c9.7-1.9,19-4.5,27.8-7.8c9-3.5,16.8-7.8,23.4-13c6.8-5.4,12.2-11.9,16.1-19.5c4.1-7.8,6.2-16.9,6.2-27.3l0,0
		c0-11.9-3-21.8-9.1-29.6C1904,543.5,1895.9,537.3,1885.9,532.5z"/>
	<path d="M2204.9,462.7c-4.6-8.7-10.8-15.9-18.6-21.8c-7.8-6.1-17.1-10.6-27.8-13.6c-10.5-3-21.7-4.5-33.6-4.5h-174.4V650h47.5v-88
		h128.3c11.2,0,21.9-1.6,32.2-4.9c10.5-3.2,19.6-7.9,27.4-14c7.8-6.1,14-13.3,18.6-21.8c4.9-8.7,7.3-18.3,7.3-28.9l0,0
		C2211.9,481.3,2209.6,471.3,2204.9,462.7z M2151.9,517.2c-7.6,6.1-17.1,9.1-28.5,9.1H1998v-67.9h124.3c11.9,0,21.7,2.9,29.2,8.8
		c7.8,5.8,11.7,14.3,11.7,25.3h0C2163.3,502.9,2159.5,511.2,2151.9,517.2z"/>
	<polygon points="2287.7,552.3 2459.9,552.3 2459.9,516.6 2287.7,516.6 2287.7,458.4 2482.9,458.4 2482.9,422.7 2240.2,422.7 
		2240.2,650 2485.1,650 2485.1,614.3 2287.7,614.3 	"/>
	<path d="M2729.3,559.1c8.3-2.2,16.1-5.2,23.4-9.1c7.3-4.1,13.6-9,19-14.6c5.6-5.6,9.9-12,12.8-19.2c3.2-7.4,4.8-15.3,4.8-23.7
		c0-11.3-2.3-21.2-6.9-29.9c-4.6-8.7-10.8-15.9-18.6-21.8c-7.8-6.1-17.1-10.6-27.8-13.6c-10.5-3-21.7-4.5-33.6-4.5h-181.7V650h47.5
		v-88h110.4l66.2,88h53L2729.3,559.1z M2568.1,526.3v-67.9h131.6c11.9,0,21.7,2.9,29.2,8.8c7.8,5.8,11.7,14.3,11.7,25.3l0,0
		c0,10.4-3.8,18.6-11.3,24.7c-7.6,6.1-17.1,9.1-28.5,9.1H2568.1z"/>
</g>
<g>
	<polygon class="st0" points="1361.6,121.7 1283.3,121.7 1120.5,224.1 1120.5,121.7 1067.8,121.7 1067.8,369.7 1120.5,369.7 
		1120.5,273.7 1151.4,253.8 1304.4,369.7 1383.1,369.7 1192.8,228.3 	"/>
	<polygon class="st0" points="1397.8,160.7 1519.6,160.7 1519.6,369.7 1572.3,369.7 1572.3,160.7 1694.1,160.7 1694.1,121.7 
		1397.8,121.7 	"/>
	<path class="st0" d="M2077.9,254.5c-2.2,7.1-4.5,14.8-6.9,23c-2.2,8.3-4.3,15.8-6.5,22.7c-2.4,8-4.9,16.1-7.3,24.1
		c-3-8-6-16.1-8.9-24.1c-2.4-6.8-5.1-14.4-8.1-22.7c-3-8.3-5.7-15.9-8.1-23l-48.3-132.9H1916l-48.7,132.9c-3,7.6-6,15.5-8.9,23.7
		c-3,8-5.7,15.5-8.1,22.3c-3,8-5.8,15.9-8.5,23.7c-1.9-7.8-4.1-15.7-6.5-23.7c-2.2-6.8-4.5-14.3-6.9-22.3
		c-2.4-8.3-4.7-16.2-6.9-23.7l-40.6-132.9h-56.4l79.5,248h71.8l53.6-145.6c2.4-6.4,4.7-13,6.9-19.8c2.4-7.1,4.7-13.5,6.9-19.1
		c2.2-6.6,4.3-13.1,6.5-19.5c1.9,6.6,4.1,13.2,6.5,19.8c2.2,5.7,4.3,11.9,6.5,18.8c2.4,6.8,4.9,13.5,7.3,19.8l53.6,145.6h72.2
		l79.1-248h-56.4L2077.9,254.5z"/>
	<path class="st0" d="M2519.6,188.3c-8.7-16.3-20.7-29.6-36.1-40c-15.1-10.6-33-18.4-53.6-23.4c-20.6-5.2-42.6-7.8-66.1-7.8
		s-45.6,2.6-66.1,7.8c-20.3,5-38.1,12.8-53.6,23.4c-15.1,10.6-27.2,24-36.1,40c-8.7,16.1-13,35.1-13,57c0,22,4.3,41.1,13,57.4
		c8.7,16.1,20.6,29.4,35.7,40c15.4,10.6,33.4,18.5,54,23.7c20.6,5.2,42.6,7.8,66.1,7.8c23.5,0,45.6-2.5,66.1-7.4
		c20.8-5.2,38.8-13.1,54-23.7c15.1-10.6,27.1-24,35.7-40c8.9-16.3,13.4-35.5,13.4-57.7h0C2533,223.4,2528.6,204.4,2519.6,188.3z
		 M2470.1,285.7c-5.7,11.1-13.7,20.4-23.9,28c-10,7.3-22.2,12.8-36.5,16.3c-14.1,3.5-29.4,5.3-45.9,5.3c-16.8,0-32.2-1.8-46.3-5.3
		c-13.8-3.5-25.8-9-36.1-16.3c-10.3-7.6-18.3-17-23.9-28.3c-5.7-11.3-8.5-24.7-8.5-40c0-15.6,2.8-28.9,8.5-40
		c6-11.3,13.9-20.5,23.9-27.6c10.3-7.3,22.5-12.8,36.5-16.3c14.1-3.5,29.4-5.3,45.9-5.3s31.8,1.8,45.9,5.3
		c14.1,3.5,26.2,9,36.5,16.3c10.3,7.3,18.3,16.7,23.9,28c6,11.1,8.9,24.3,8.9,39.7C2479,260.9,2476.1,274.4,2470.1,285.7z"/>
</g>
<g>
	<path class="st1" d="M489.8,538.1H275.1c50.1-31.5,103-59.5,172.4-107.3c-3.9-18.7-6-38-6-57.8c0-80.8,34.1-153.7,88.6-205.5
		c-14.6-30.4-35.7-55.3-59.4-71.3c-24.8-17.3-52.3-30-83.7-38l0,0c-30.7-8-63.5-12-98.3-12l0,0c-45.9,0-113.8,5.4-168.3,40
		C59.6,124.7,13.7,196,13.7,297.6l-0.1,25.8h181.5v-7.3c0-35.1,4.6-62.9,20.5-84.2c21-28,46.3-30.4,64.2-30.4
		c30.5,0,68.1,19.2,68.1,61.5c0,25.8-6.8,43.9-29.3,66.5C258.7,381.7,187.6,420,132.2,465C30.5,547.3,0,599.2,0,706.1h549.3v-7.3
		v-97.5C526.4,583.4,506.3,562.1,489.8,538.1z"/>
	<g>
		<path d="M727.8,103L727.8,103c-150.3,0-272.2,121.9-272.2,272.2c0,150.3,121.9,272.2,272.2,272.2c150.3,0,272.2-121.9,272.2-272.2
			C1000,224.8,878.1,103,727.8,103z"/>
		<g>
			<g>
				<path class="st2" d="M567.7,300.5c-41.3,0-74.7,33.4-74.7,74.7s33.4,74.7,74.7,74.7c12.2,0,24.8-5.2,33.7-13.8v12.5h41v-73.4
					C642.3,334,608.9,300.5,567.7,300.5z M567.7,408.1c-18.1,0-32.8-14.7-32.8-32.9c0-18.1,14.7-32.8,32.8-32.8
					c18.1,0,32.8,14.7,32.8,32.8C600.5,393.4,585.8,408.1,567.7,408.1z"/>
				<path class="st2" d="M727.5,300.5c-11.4,0-23.2,3.6-32.8,10.2v-47h-41.8v111.5c0,41.3,33.4,74.7,74.7,74.7
					c41.3,0,74.7-33.4,74.7-74.7C802.2,334,768.7,300.5,727.5,300.5z M727.5,408.1c-18.1,0-32.8-14.7-32.8-32.8
					c0-18.1,14.7-32.9,32.8-32.9c18.1,0,32.8,14.7,32.8,32.9C760.3,393.4,745.6,408.1,727.5,408.1z"/>
				<path class="st2" d="M887.6,408.1c-18.1,0-32.8-14.7-32.8-32.8c0-18.1,14.7-32.8,32.8-32.9c14.7,0,27.1,9.6,31.3,22.9h42.6
					c-5-37-36.6-64.7-73.9-64.7c-41.3,0-74.7,33.4-74.7,74.7s33.4,74.7,74.7,74.7c37.4,0,69-27.7,73.9-64.7h-42.6
					C914.7,398.5,902.3,408.1,887.6,408.1z"/>
			</g>
		</g>
	</g>
</g>
<path d="M3224.1,550.2c-1.4-3.3-3.3-6.3-5.7-8.9l-0.9-0.5c-9.9-4.3-16.6-19.5-28.8-22.6c-0.6-0.5-0.6-0.5-0.6-1.1
	c0.6-0.1,1.2-0.6,2.3-0.6c4.9-0.9,7.4-5.3,9.3-10.1c0.6-0.9,0.9-1.4,1.7-0.9c0.9,0.5,1.1-0.1,1.8,0.8c2.9,3.6,4.1,7.6,7.9,7.8
	c0.6-0.1,0.8-1.7,0.8-1.7c0.8-3.9-1-6.7-3.6-10.1c-6.8-8.1-14.5-15.7-24-16.8c-5.6-0.2-11.1-1.5-16.3-3.6l-5-3.9
	c-0.1-1.7-1.5-3.3,0.2-4c3.3-1.5,5.2,1.3,8.1,2.1c2.9,1.3,7.4,6.2,9.9,2.5c0-0.4,0.2-0.8,0.5-1.1c-6.7-18.6-21.7-27.3-36.5-34.6
	c0-0.4-0.1-0.8-0.3-1.1l2.8-4.6l4.7,3.3l4.1,3.3c1.6-0.1,3-0.8,4-2.1c0.1-2.3-0.6-4.7-1.9-6.6c-5.1-8.1-14.9-6.7-24.8-11.4
	c-0.6-1.1-2.1-3.7-1-5.1l1.7-0.2l6.8,6.4l4.1,1c0-1.5,0.3-3.1,0.8-4.5c-1.2-2-1-4.2-2.5-7c-1.9-6.3-7.1-10.9-13.6-12.2
	c0.6-15.9-11.2-28.4-8.6-43.5c-0.1-0.6-0.9-2.5-1.8-2.5c-0.7,0.5-1.5,0.7-2.3,0.7l-2.9,0.3l-1.2,25.2l-2.8,3.2c-1-0.4-2.1-0.8-3.2-1
	c-6.6-9.2-9.4-22.7-19.9-28.5c-0.5,0-1-0.2-1.4-0.5c-2.4-1.4-2.1-4.2-2.8-6.6c0.6-1.1,1.7-1.4,2.6-2c3.5-0.6,6.5-2.9,8-6.1l0.7-7.4
	c0.3-1.7,1.4-4.3,2.5-4.6c2.3,0.5,4.1,3,6.2,3.8c2,2,5.2,2.1,7.3,0.1c-0.7-5.8-2.6-11.4-5.5-16.5c-1.7-2.2-3.6-4.3-5.6-6.3
	c-5.8-0.7-9.9,3.6-14.9,4c-1.2-1.1,0.2-2.8,0.8-4.5c-9.3-34.9-5.2-77.1-15.4-108.6c-2.5-8.1-7.9-12.3-7.6-18.5
	c1.9-5.4-2.5-9-2.3-12.4c1.1,0.4,1.9,1.4,2.1,2.5c6.7,0.7,14.1-2.8,19.3-5.1c1.7,0.5,3.6,1.9,5.8,0.7c4.3-1,5.1-5.8,6.5-8.4l2.9-1.2
	c-0.6,0.6,0.1,0.6,1.2-0.3c1.7-0.6,2.5-2.9,6.7-1.5c1.2,1.7,4.1,0.2,4.6-0.4c1.9-5.4,6.2-9.2,11.3-13.8c0.7-5.7-3.1-10.1-3.2-15.5
	c-6.1-3.3-5.1-11.8-11.3-12.8c-1.2-0.5-1.8-1.7-2.9-1.6l-0.9-3.3c-1.7-1.9-4-3.4-6.5-4.1c-0.9-0.1-1.7-0.5-2.3-1.1
	c-10.1-3.4-21.1-2.6-30.6,2.1c-3.5,2-7.2,2.1-8.9,3.8l-1.4,4c0.1,0.6-0.3,1.1-1.4,2c-4,1.1-6.5,5.1-5.6,9.2l1.3,10.1
	c-0.6,0.6-2.6,0.6-4.3,1c-4.4-4.2-4.5-12.4-10.7-15.4c-1.8-0.5-5.3-0.4-6.1,1.9c0.1,1.7,0.4,4.2,0.5,5.4c-2.9,0.9-4.6,2-6.9,1.2
	c-6.8,0.4-8.8,9.8-15.7,10.8c-8.7-7.9-16.4-16.7-23-26.4c-4.2-8.7,8.4-13.5,12.7-20.1c6.8-5.8,27.2-13.9,27.4-17.9
	c11.3,3.1,22.4,7.7,35.4,3.7c8.9-3.6,17.5-7.8,23.5-16.4c-0.8-2.8-0.9-5.8-0.2-8.7c-3.7-10.3-12.1-18.2-22.6-21.3
	c-3-1.9-6.7-1.9-8.8-3.8c-3.3-5.9-0.8-12.2-2.1-19.2c-2.1-3.4-4.4-5.9-7.3-5.8c-1.1,0.9-2.9-0.3-4,0.9c-1.1,1.2-3.7,0.3-4.3-0.2
	c-0.4-0.5-0.7-1-0.9-1.7c-2.9-2.3-6.5-3.4-10.2-3.2l-7.4,7.8l-6.3,5.3c-12.7-2.7-26-0.5-37.2,6.2c-4,2.6-3.1,7.7-3.8,12.8
	c3.2,15.2,15.2,20.3,23.7,29.5c0.9,2.3-0.2,4-1.1,6c-10.5,10.7-18.6,20.5-30.1,29.2c-3.9,5.5-10.8,7.8-10.1,16.4
	c1.1,14.5,7.3,28.2,17.5,38.7c2.7,5.6,6.5,6.9,10.9,11.4c2.1,2.8,4.1,4.7,5.9,6.9c8.6,26.4-10.1,61.9,10.6,84.4
	c2.1,3.1,1,5.3-0.4,8.2c-3.7,5.5-3.5,13.6-4.3,20.2c-7.2-0.7-14-4.5-20.8-1.3c-2.6-0.8-3.3-3.1-5-4.7
	c-17.2-20.3-48.5-12.3-70.9-15.2l-3.7-3.6c5.4-12,7.5-25.3,6.2-38.4c-0.1-7.3-2.9-14.3-4.8-22.8c-1.8-7.9-7.9-12-13.1-18.7
	c-3.1-1.4-6.3-2.4-9.6-3.2c-10.5-3.2-23.3-6.8-34.4-0.7c-9.2,3.6-9.8,15.5-16.9,24.1c-6.5,8.6-13,17.5-6.1,30.7
	c-2.7,7.7-4.7,14.5-8,21.7c-0.2,4-1.6,8.2-1.8,12.7c-1.9,9.1-11.1,25.5-1.5,26.9c1.6,7.3-0.6,13.9-1.4,19.9
	c-0.7,6.5,0,12.7-0.8,18.1c-4.1-1,4.4,2.5,2.7,5.1c3.6,8.2-6,18.8-1.1,26c0.5,0,1.2,0.6,1.7,0.5c11.4-7.6,7.8-26.7,22.3-32.6
	c5.3-7.8,6.6-18.3,7.7-28.7c2.5-8.3-1.4-16.4,3.3-26.4c5.6-9.2,8.5-22.2,10.9-34.2c2.6-1.2,5.3-2,8.1-2.4l4.8,8.7l2.1,3.6
	c0.9,2.2,2,3.2,3.6,6.5c2,5.7,3.4,11.5,4.3,17.4c-1.3,3.5-6.5,6.1-10.5,10.1c-2.2,3.1-4.6,6-7.3,8.7c-4.7,5.6-9,11.7-12.7,18
	c-3.6,10.8-7.2,21-10.4,33c-1.1,8,0,16.2,3.4,23.5c1.6,5.6,6,10.7,7,16.4c3.1,4.6,5.8,9.5,8.1,14.6c-1.4,5.7-3.1,7.1-8.2,11.2
	c-6.4,4.9-8.5,9-17.6,17.9c-6.4,5-17.9,17.9-15.1,30c6,9.7,18.4,8.6,28.3,12.7c9.2,3.8,18.6,7,28.3,9.6l-6.2,11.7
	c-1.3,1.9-1.6,4.4-0.7,6.5c-9.4,8.7,34.8,33.5,46.7,54.2c3.6,9,7.8,15.9,14.8,20.1l-3.1,6.3c-1.6,6.9,5.4,10.7,8.1,14.8
	c3.6,6.5,6.9,12.3,15.1,16.7c2.6,1.1,4.6-0.4,6.3-2.7c6.3-16.3-0.6-31.9-5.8-48.3c-12.2-14.7-26.1-31.1-38-45.6
	c-4.5-4.1-5.5-10.9-2.3-16.1c-0.3-0.5,0.3-0.6,0.3-0.6c2.1,0.8,0.9,0.5,2.1,1.9c3.5,1.6,8.2,6.1,13.4,4.3c1.1,0.2,2.3,1.1,2,2.2
	c-0.4,0.5-0.6,1.1-0.5,1.7c-2.5,3.6-1.7,4.3-3.9,8.3c0.2,7.9,11.5,10.2,15,16.1c2.6,0.8,2.7,1.9,5.5,2.2c2.3,1.1,6.1,2.9,7.5-0.5
	c-0.1-3,0.5-6,1.8-8.8c-4.7-16.6-2-22.6-10.9-38.5c-5.9-3.6-17.3-11.5-23.4-13.4c12.1-17,15.6-30.3,28.3-51.2
	c4.6-2.7,10.3,1.5,14.3,4.5c1.5,5.3,4.8,8.9,6.3,13.5c-0.1,0.4-0.3,0.8-0.6,1.1l-10.3,5.9l-5,9.4l8,10.9c1.4,0.5,1.5,1.7,2.7,2.2
	l2,1.7c0.8-0.6,1.7-0.9,2.6-0.9c1.4,0.5,2.3-0.2,1.5,1.1c0.6,8.3,3.5,16.3,8.5,23.1c5,4.2,4.8,9,8.3,10.6c2.9-0.2,5.7-1.4,7.7-3.6
	c0.5-7.1,0-13.3-0.1-20.6c-0.2-2.1,0.5-4.2,1.9-5.7c0,0.5,1.2,1.1,1.8,1.7c4.8,6.4,7.5,12,14.8,18.4c3.3,3.3,7.1,9.2,12.6,9.4
	c1.2,1.1,2.9,1.6,3.7,3.6l-1.1,2.9c-1.7,0.2-1.4,2.3-4.3,4.4c-5.3,22.7,14.5,46.6,18.1,69.8c4,5.7,5.9,12.7,5.1,19.7
	c1.6,7.5,4.2,14.8,7.7,21.6c1.3,12.1,3.9,21.7,2.1,33.8c-9.6,13.8,4.9,29.3,4.3,44.6c5,5.8,14,4,19.6,9.2c2.9,0.8,7.2,4.4,10.3,1.5
	c-1.7-11.9-9.8-27.2-9.8-40.2c-4.3-14.9-7.2-27.3-10-40.8c2.2-6.3-0.5-12.5-1.7-18.7c-1.2-3.9,0.7-7.7-0.8-11.6
	c-1.9-24-3.9-51.4,0.9-74.9c0.8-1.3,2-2.2,3.4-2.6c8.9-3.3,15.1-13.1,24.1-12.7c0,0,2.7,37.2,3.1,35.3c3.4,27.1,5.6,66.7,5.6,66.7
	c-1.1,0.1-1.7,1.5-3.8,1.8c-3.9,6.6-16.6,8.3-18.8,18.7c0.2,2.8-1,6.2,1.8,7.3c5.9,1.3,10.1-4.3,14.6-7.4c0.3-1.1,3.8-1.8,5.8-1.6
	c0.3,1.3,0.4,2.6,0.4,4c-3,7.4-10.5,8.1-16.5,12.2c-1,1.9-1.3,4.1-0.7,6.2c4.5,5.8,10.5,10.3,17.3,12.9c22.8-5.4,43.2-26.1,70-30.9
	c13.3-4,15.9-17.6,28.6-22.7l32.9-12.6c0.6-0.6,0.6-0.6,0.5-1.2l-0.3-3.9l-19.8-10c-1.8-1.4-0.4-4.5,0.2-6.2c2-1.5,4-0.9,6.4-1
	c4.6,0.2,8.2,4.4,10,6.6c0.3-0.2,0.7-0.3,1.1-0.3l3.4-2.1c1.1-0.6,0.8-3.5-0.5-6.2c-4.2-8.9-14.1-13.3-23-20.7
	c-1.2-3.3-5.7-8.9-4-12.4c9.2-3,17.7,7.8,24.5,10.8c1.4,0.2,4.9,0.8,4.6-1C3222.7,551.9,3224.1,550.7,3224.1,550.2z M2864.9,453.5
	c-6.1-3.6-11.4-6.9-17.2-10.1c12.3-7.3,20.3-10,29.1-17.3C2872.6,435.5,2868.7,444.1,2864.9,453.5z M3052.3,324.4l-1.1,0.1
	c-9.5-10-1.9-24.9-6.6-36.6c-5.7-12.1,1.6-23.5,2.6-34.2c1.7-0.3,2.9-0.3,2.6-1.7l-1-4l1.5,4.8c2.5,7.9-1.5,14.8,0.4,23.5
	c3.1,11,1.9,23.2,8.7,31.2c0.4,4.2,3.3,5.3,4.8,9.5C3063.1,322.5,3056.2,321.5,3052.3,324.4z M3108.9,590.3
	c-3.1,3.5-6.5,10.8-9.8,14.5c-3.5-12.1-3.3-33.7-4.4-47.4c-1.6-12.7-2.3-25.6-2.2-38.4l1.2,0.5c11.5,11.1,20.2,27.3,29.7,42.1
	c-4.2,10.3-12.7,17.3-14.5,28.5L3108.9,590.3z"/>
</svg>
