<?xml version="1.0" encoding="utf-8"?>
<!-- Generator: Adobe Illustrator 25.0.0, SVG Export Plug-In . SVG Version: 6.00 Build 0)  -->
<svg version="1.1" id="Layer_1" xmlns="http://www.w3.org/2000/svg" xmlns:xlink="http://www.w3.org/1999/xlink" x="0px" y="0px"
	 viewBox="0 0 122.861 60" style="enable-background:new 0 0 122.861 60;" xml:space="preserve">
<style type="text/css">
	.st0{fill:none;}
	.st1{fill:#303c64;}
</style>
<rect class="st0" width="122.861" height="60"/>
<g>
	<path class="st1" d="M73.315,19.939h-2.213l-0.083,0.096c-1.002,1.164-3.352,2.809-6.978,4.892l-0.223,0.128l0.113,0.232
		l0.164,0.34l0.126,0.262l0.255-0.138c2.652-1.445,3.46-1.749,3.673-1.749c0.215,0,0.717,0,0.717,1.041v14.364h-2.879v0.813h9.963
		v-0.813h-2.634V19.939z"/>
	<path class="st1" d="M90.754,33.573l-0.128,0.683c-0.13,0.702-0.292,1.577-0.33,1.785l-0.006,0.034h-9.419l0.087-0.072
		c0.892-0.721,2.222-1.519,3.952-2.371c2.188-1.075,3.628-1.951,4.405-2.677c1.347-1.262,2.03-2.888,2.03-4.835
		c0-1.958-0.851-3.554-2.528-4.743c-1.494-1.058-3.335-1.596-5.467-1.596c-1.702,0-3.184,0.453-4.403,1.349
		c-0.032,0.023-0.064,0.047-0.096,0.074c-1.258,0.953-1.894,2.224-1.894,3.773c0,0.898,0.223,1.653,0.668,2.245
		c0.321,0.415,0.732,0.702,1.226,0.86c0.302,0.098,0.634,0.145,0.998,0.145c0.717,0,1.324-0.174,1.805-0.519
		c0.506-0.362,0.762-0.898,0.762-1.594c0-0.555-0.215-1.034-0.636-1.426c-0.417-0.383-0.928-0.579-1.515-0.579h-0.892
		c-0.321,0-0.464-0.092-0.521-0.245c-0.026-0.066-0.034-0.143-0.034-0.23c0-0.123,0.011-0.243,0.034-0.36
		c0.113-0.638,0.541-1.202,1.296-1.722c0.83-0.568,1.709-0.855,2.609-0.855c1.3,0,2.283,0.451,2.922,1.345
		c0.645,0.9,0.958,2.228,0.958,4.058c0,1.756-0.662,3.458-1.966,5.063c-0.423,0.545-1.785,1.885-4.171,4.101
		c-0.617,0.577-1.166,1.138-1.647,1.685c-0.902,1.017-1.568,1.979-1.992,2.873l-0.189,0.396h2.181h12.01l0.009-0.268
		c0.079-2.545,0.338-4.65,0.772-6.254l0.096-0.349h-0.945L90.754,33.573z"/>
	<path class="st1" d="M107.523,14.925c-2.762,0-5.35,0.743-7.576,2.041H2.223c-1.083,0-1.96,0.879-1.96,1.96v22.148
		c0,1.081,0.877,1.96,1.96,1.96h97.725c2.226,1.298,4.814,2.041,7.576,2.041c8.327,0,15.075-6.75,15.075-15.075
		S115.85,14.925,107.523,14.925z M21.23,40.31h-8.061v-0.685l0.23-0.006c0.585-0.015,1.002-0.053,1.239-0.115
		c0.289-0.074,0.436-0.264,0.436-0.564c0-0.136-0.043-0.304-0.134-0.515c-0.087-0.206-0.24-0.479-0.466-0.832l-4.405-6.914
		l-0.034-0.051l-0.038,0.049l-0.615,0.775l-0.011,0.011v5.971c0,0.896,0.243,1.515,0.724,1.841c0.243,0.166,0.638,0.279,1.179,0.33
		l0.213,0.021v0.685h-8.12v-0.685l0.215-0.017c0.534-0.045,0.93-0.153,1.177-0.319c0.481-0.326,0.724-0.949,0.724-1.856V22.699
		c0-0.89-0.223-1.498-0.664-1.811c-0.236-0.17-0.653-0.289-1.243-0.355l-0.209-0.023v-0.687h8.135v0.689l-0.202,0.028
		c-0.721,0.1-1.204,0.289-1.477,0.572c-0.304,0.317-0.451,1.041-0.451,2.213v6.661l0.079-0.1l5.226-6.627
		c0.364-0.455,0.602-0.787,0.709-0.981c0.111-0.2,0.166-0.445,0.166-0.728c0-0.404-0.151-0.67-0.449-0.785
		c-0.251-0.098-0.719-0.177-1.39-0.234l-0.215-0.019v-0.689h6.944v0.689l-0.202,0.028c-1.156,0.16-2.132,0.604-2.909,1.319
		c-0.834,0.772-2.371,2.592-4.694,5.567l-0.019,0.023l0.017,0.028l7.405,11.508c0.166,0.255,0.328,0.413,0.494,0.481
		c0.119,0.049,0.287,0.092,0.5,0.126l0.198,0.032V40.31z M32.315,27.963h-0.472l-0.023-0.209c-0.204-1.747-0.728-2.956-1.556-3.594
		c-0.489-0.368-1.228-0.572-2.192-0.606l-0.047-0.002v13.766c0,0.966,0.128,1.617,0.381,1.936c0.23,0.292,0.662,0.449,1.317,0.481
		l0.223,0.013v0.566h-6.81v-0.566l0.223-0.013c0.632-0.034,1.053-0.194,1.283-0.487c0.255-0.323,0.385-0.972,0.385-1.93V23.552
		l-0.045,0.002c-0.951,0.034-1.692,0.238-2.202,0.606c-0.89,0.653-1.417,1.86-1.568,3.588l-0.019,0.215h-0.47v-0.236l0.017-4.686
		l0.002-0.234h11.572V27.963z M46.073,40.321h-6.08v-0.568l0.215-0.019c0.398-0.032,0.664-0.079,0.811-0.136
		c0.285-0.119,0.426-0.349,0.426-0.702c0-0.128-0.03-0.309-0.085-0.536c-0.057-0.228-0.155-0.5-0.3-0.828l-1.841-3.992l-0.038-0.081
		l-0.04,0.079l-0.683,1.241c-0.575,1.051-0.97,1.8-1.173,2.222c-0.345,0.755-0.517,1.3-0.517,1.617c0,0.475,0.217,0.804,0.653,0.981
		c0.174,0.074,0.377,0.123,0.6,0.145l0.213,0.019v0.56h-4.439v-0.577l0.172-0.047c0.362-0.104,0.626-0.209,0.798-0.319
		c0.33-0.215,0.636-0.581,0.909-1.083l3.073-5.737l0.011-0.019l-0.009-0.019l-3.492-7.574c-0.27-0.56-0.5-0.941-0.707-1.16
		c-0.157-0.17-0.347-0.285-0.564-0.34l-0.177-0.045v-0.56h6.182v0.568l-0.213,0.021c-0.453,0.043-0.755,0.104-0.924,0.185
		c-0.079,0.038-0.313,0.153-0.313,0.702c0,0.155,0.023,0.311,0.072,0.458c0.047,0.145,0.115,0.313,0.206,0.513l1.73,3.754
		l0.036,0.081l0.043-0.079c1.019-1.905,1.615-3.054,1.817-3.515c0.204-0.468,0.304-0.847,0.304-1.162
		c0-0.389-0.157-0.66-0.468-0.802c-0.138-0.06-0.355-0.106-0.647-0.136l-0.211-0.021v-0.566h4.439v0.568l-0.183,0.043
		c-0.689,0.157-1.251,0.564-1.668,1.207c-0.455,0.702-1.462,2.507-2.992,5.363l-0.011,0.021l0.011,0.019l3.364,7.297l0.002,0.004
		l0.002,0.006c0.411,1.013,0.719,1.649,0.917,1.894c0.16,0.2,0.366,0.347,0.611,0.434l0.155,0.055V40.321z M56.13,38.755
		c-0.826,1.151-2.111,1.711-3.935,1.711c-0.411,0-0.836-0.049-1.26-0.143c-0.423-0.096-0.849-0.247-1.26-0.445l-0.404-0.189h-0.002
		l-0.002-0.002c-0.096-0.034-0.189-0.062-0.277-0.083c-0.092-0.021-0.168-0.032-0.234-0.032c-0.289,0-0.421,0.14-0.483,0.257
		c-0.062,0.117-0.119,0.272-0.168,0.46l-0.045,0.177h-0.519v-6.288h0.519l0.036,0.192c0.338,1.809,0.875,3.154,1.594,3.994
		c0.751,0.881,1.628,1.326,2.603,1.326c0.949,0,1.634-0.309,2.037-0.919c0.4-0.606,0.6-1.253,0.6-1.924
		c0-0.779-0.211-1.426-0.63-1.919c-0.279-0.326-0.826-0.736-1.67-1.258l-1.341-0.832c-1.317-0.815-2.26-1.634-2.8-2.432
		c-0.541-0.796-0.813-1.792-0.813-2.962c0-1.247,0.362-2.426,1.079-3.507c0.724-1.087,1.802-1.617,3.296-1.617
		c0.753,0,1.492,0.143,2.194,0.423c0.734,0.296,1.126,0.432,1.236,0.432c0.249,0,0.417-0.087,0.513-0.27
		c0.068-0.126,0.121-0.275,0.168-0.455l0.047-0.174h0.541v5.529h-0.506L56.2,27.619c-0.283-1.209-0.758-2.271-1.415-3.158
		c-0.698-0.947-1.562-1.428-2.566-1.428c-0.707,0-1.277,0.245-1.69,0.728c-0.411,0.481-0.619,1.075-0.619,1.762
		c0,0.824,0.196,1.449,0.583,1.86c0.379,0.417,1.202,1.015,2.52,1.824l1.556,0.958c0.685,0.423,1.241,0.898,1.647,1.413
		c0.76,0.96,1.145,2.145,1.145,3.522C57.36,36.384,56.947,37.612,56.13,38.755z M60.045,41.355V30.611v-1.221V18.645h37.564
		c-3.162,2.762-5.16,6.827-5.16,11.355s1.998,8.593,5.16,11.355H60.045z M102.399,34.524h-2.441v-0.909c0,0-0.787,1-2.3,1.064
		c-0.049,0.002-0.098,0.002-0.149,0.002c-0.228,0-0.458-0.021-0.689-0.068c-0.026-0.002-0.049-0.006-0.072-0.013
		c-0.021-0.004-0.04-0.006-0.06-0.013c-0.049-0.011-0.096-0.021-0.145-0.036c-0.779-0.2-1.547-0.636-2.166-1.264h-0.002
		c-0.804-0.813-1.358-1.947-1.358-3.298c0-0.781,0.192-1.519,0.532-2.168c0.004-0.009,0.009-0.017,0.013-0.026
		c0.783-1.47,2.324-2.477,4.096-2.496h0.049c0.04,0,0.083,0,0.121,0.002c0.002,0,0.002,0,0.002,0c0.881,0.023,1.702,0.289,2.4,0.736
		c0.04,0.026,0.081,0.053,0.121,0.081c0.019,0.011,0.036,0.023,0.053,0.036c0.019,0.013,0.036,0.028,0.055,0.043
		c1.032,0.749,1.749,1.911,1.905,3.241c0.002,0.002,0.002,0.006,0.002,0.011c0.021,0.177,0.032,0.358,0.032,0.541V34.524z
		 M111.703,32.398c-0.821,1.366-2.317,2.283-4.024,2.283c-2.588,0-4.692-2.105-4.692-4.692v-8.016h2.441v4.322
		c0,0,0.915-0.996,2.358-0.996c1.636,0,3.107,0.932,3.918,2.294c0.421,0.706,0.666,1.528,0.666,2.396
		C112.369,30.87,112.126,31.694,111.703,32.398z M117.527,34.682c-2.586,0-4.69-2.105-4.69-4.692c0-2.586,2.105-4.69,4.69-4.69
		c2.194,0,4.113,1.545,4.582,3.681h-2.6c-0.383-0.749-1.138-1.215-1.981-1.215c-1.226,0-2.224,0.998-2.224,2.224
		s0.998,2.224,2.224,2.224c0.815,0,1.56-0.443,1.951-1.156h2.617C121.606,33.16,119.693,34.682,117.527,34.682z"/>
	<path class="st1" d="M107.679,27.766c-1.226,0-2.224,0.998-2.224,2.224s0.998,2.224,2.224,2.224c1.226,0,2.222-0.998,2.222-2.224
		S108.904,27.766,107.679,27.766z"/>
	<path class="st1" d="M99.637,28.887c-0.013-0.021-0.026-0.043-0.038-0.062c-0.03-0.051-0.062-0.1-0.098-0.147
		c-0.404-0.553-1.058-0.913-1.794-0.913c-0.017,0-0.032,0-0.049,0.002c-0.177,0.002-0.349,0.028-0.513,0.07
		c-0.728,0.192-1.311,0.741-1.547,1.451c-0.004,0.011-0.009,0.023-0.013,0.034c-0.066,0.213-0.1,0.434-0.1,0.666
		c0,0.383,0.098,0.747,0.27,1.062c0,0.002,0,0.002,0,0.002c0.37,0.677,1.081,1.141,1.902,1.158c0.015,0.002,0.032,0.002,0.049,0.002
		c0.015,0,0.03,0,0.045-0.002c0.002,0.002,0.002,0.002,0.002,0c0.077,0,0.153-0.004,0.226-0.015c0.06-0.006,0.117-0.017,0.174-0.028
		c0.023-0.004,0.047-0.011,0.07-0.017c0.032-0.006,0.062-0.015,0.089-0.023c0.047-0.011,0.089-0.026,0.134-0.04
		c0.785-0.279,1.368-0.987,1.468-1.841v-0.004c0.011-0.083,0.015-0.168,0.015-0.253c0-0.368-0.091-0.715-0.251-1.021
		C99.664,28.938,99.652,28.915,99.637,28.887z"/>
</g>
</svg>
