<?xml version="1.0" encoding="UTF-8" standalone="no"?>
<svg
   id="CW_Logo"
   viewBox="0 0 1897.4072 625.37935"
   version="1.1"
   xml:space="preserve"
   width="1897.4072"
   height="625.37933"
   xmlns="http://www.w3.org/2000/svg"
   xmlns:svg="http://www.w3.org/2000/svg"><defs
     id="defs1"><style
       id="style1">.cls-1{fill:#000C0D;}</style></defs><path
     class="cls-1"
     d="m 860.82,171.98261 v 248.37 c 0,22.67 -10.4,49.14 -39.7,49.14 -29.3,0 -40.43,-26.47 -40.43,-49.14 v -248.37 H 641.51 v 248.37 c 0,22.67 -10.58,49.14 -40.41,49.14 -29.83,0 -39.73,-26.47 -39.73,-49.14 v -248.37 H 422.2 v 220.5 c -0.66,42.45 -31.23,77.89 -68.2,79.12 H 209.37 c -38.73,-0.01 -70.23,-35.84 -70.23,-79.89 0,-44.05 31.51,-80.56 70.23,-80.56 h 136 v -139.17 h -136 c -115.44,0 -209.37,98.57 -209.37,219.72 0,121.15 93.93,218.99 209.37,218.99 H 349 c 46.75,0 93.83,-18.97 129.74,-49.94 34.15,34 71.45,49.94 116.31,49.94 44.86,0 82.02,-15.85 116.05,-49.65 34.02,33.8 71.26,49.65 116.04,49.65 96.93,0 172.86,-79.76 172.86,-181.59 v -257.12 z"
     id="path1"
     style="fill:#ff4500;fill-opacity:1" /><g
     id="g12"
     style="fill:#000000;fill-opacity:1"
     transform="translate(0,171.98261)"><path
       style="font-weight:bold;font-size:170.667px;line-height:0.9;font-family:'F37 Bolton';-inkscape-font-specification:'F37 Bolton Bold';text-align:end;letter-spacing:-5px;text-anchor:end;fill:#000000;fill-opacity:1;fill-rule:evenodd;stroke-width:121.826;paint-order:markers stroke fill"
       d="m 1687.0082,453.39674 q -59.9967,0 -107.6654,-32.37657 -46.8466,-32.3766 -74.7903,-102.24185 -27.9438,-70.71732 -27.9438,-178.92329 0,-106.501897 27.9438,-176.367191 27.9437,-69.865249 75.6119,-102.241869 47.6686,-33.22858 106.8438,-33.22858 59.1749,0 106.8435,33.22858 47.6685,32.37662 75.6118,102.241869 27.9437,69.865294 27.9437,176.367191 0,108.20597 -27.9437,178.92329 -27.9433,69.86525 -75.6118,102.24185 -46.8471,32.37657 -106.8435,32.37657 z m 0,-107.35394 q 97.8026,0 97.8026,-206.18777 0,-93.721691 -23.0122,-149.102668 -23.0124,-56.233008 -74.7904,-56.233008 -50.9562,0 -73.9687,56.233008 -23.0121,55.380977 -23.0121,149.102668 0,95.42575 23.0121,150.80678 23.0125,55.38099 73.9687,55.38099 z"
       id="path11" /><path
       style="font-weight:bold;font-size:170.667px;line-height:0.9;font-family:'F37 Bolton';-inkscape-font-specification:'F37 Bolton Bold';text-align:end;letter-spacing:-5px;text-anchor:end;fill:#000000;fill-opacity:1;fill-rule:evenodd;stroke-width:121.826;paint-order:markers stroke fill"
       d="m 1243.0747,453.39674 q -101.0902,0 -154.512,-55.38099 -53.4215,-56.23301 -53.4215,-163.58698 h 107.6649 q 0,53.67697 25.4783,86.9056 25.4781,32.37654 75.6123,32.37654 45.2031,0 71.5027,-26.41243 27.1219,-26.4125 27.1219,-69.8653 0,-47.71285 -32.8751,-69.01325 -32.8744,-21.30038 -83.8308,-21.30038 h -23.0125 V 83.622028 h 13.1501 q 44.3811,0 77.2561,-18.744319 32.8749,-19.59635 32.8749,-62.1971211 0,-35.7846769 -23.0126,-55.3810269 -22.1904,-19.59635 -59.1747,-19.59635 -44.381,0 -68.2154,28.116503 -23.0126,28.116505 -23.0126,79.237429 h -108.487 q 0,-100.537789 53.4219,-153.362793 53.4214,-53.67696 150.4023,-53.67696 86.2971,0 138.0747,40.89677 52.6,40.04473 52.6,114.170077 0,48.564835 -23.8346,85.201543 -23.834,36.63666 -64.1059,50.26889 v 3.40808 q 47.6687,13.63222 76.4339,49.41686 28.7659,35.78467 28.7659,97.9818 0,87.75758 -58.3532,136.32247 -57.531,47.71286 -154.512,47.71286 z"
       id="text10" /></g><g
     id="g13"><path
       style="font-weight:bold;font-size:175.684px;line-height:0.9;font-family:'F37 Bolton';-inkscape-font-specification:'F37 Bolton Bold';text-align:end;letter-spacing:-5.14699px;text-anchor:end;fill:#000000;fill-opacity:1;fill-rule:evenodd;stroke-width:25.5771;paint-order:markers stroke fill"
       d="m 955.08283,133.11466 q -22.48755,0 -36.71796,-10.8924 -14.05472,-11.0681 -13.70335,-33.90702 h 25.82555 q 0,11.595144 6.85168,17.04135 7.02736,5.27052 18.97387,5.27052 21.08208,0 21.08208,-14.40609 0,-5.973256 -4.04073,-9.838304 -4.04073,-4.040732 -13.00062,-6.675993 l -21.08208,-6.14894 q -31.62312,-9.135565 -31.62312,-35.839535 0,-18.27114 12.29788,-27.58239 12.47356,-9.31125035 32.15017,-9.31125035 13.1763,0 24.06871,4.21640995 10.89241,4.21642 17.39272,13.3519904 6.67597,9.13557 6.67597,23.0146 h -25.82553 q -1.0541,-18.6225 -22.31187,-18.6225 -8.08146,0 -13.35198,2.98663 -5.09484,2.81094 -5.09484,9.66262 0,4.91915 3.51368,8.7842 3.68937,3.86504 12.64925,6.5003 l 21.43345,6.50031 q 14.2304,4.3921 23.19029,12.64925 8.95985,8.257149 8.95985,24.595762 0,17.91977 -12.47353,28.28513 -12.29788,10.36535 -35.83954,10.36535 z"
       id="path10" /><path
       style="font-weight:bold;font-size:175.684px;line-height:0.9;font-family:'F37 Bolton';-inkscape-font-specification:'F37 Bolton Bold';text-align:end;letter-spacing:-5.14699px;text-anchor:end;fill:#000000;fill-opacity:1;fill-rule:evenodd;stroke-width:25.5771;paint-order:markers stroke fill"
       d="m 880.63939,1.7030276 q 6.85168,0 11.94651,5.09483 5.09484,5.0948404 5.09484,15.8115604 v 0.52706 q 0,9.48693 -4.04073,15.98724 -4.04073,6.50031 -10.36536,9.66262 -6.14894,3.16231 -12.64925,3.16231 v -10.54104 q 5.27052,0 8.60852,-2.98663 3.338,-3.16231 3.338,-7.90578 h -0.70274 q -6.85168,0 -11.06809,-4.21641 -4.04074,-4.3921 -4.04074,-10.89241 0,-5.9732604 3.68937,-9.8383004 3.86505,-3.86505 10.18967,-3.86505 z"
       id="path9" /><path
       style="font-weight:bold;font-size:175.684px;line-height:0.9;font-family:'F37 Bolton';-inkscape-font-specification:'F37 Bolton Bold';text-align:end;letter-spacing:-5.14699px;text-anchor:end;fill:#000000;fill-opacity:1;fill-rule:evenodd;stroke-width:25.5771;paint-order:markers stroke fill"
       d="M 778.69042,129.95235 H 751.81076 V 3.9869176 h 26.87966 V 54.583908 h 50.59699 V 3.9869176 h 26.87965 V 129.95235 H 829.28741 V 79.355355 h -50.59699 z"
       id="path8" /><path
       style="font-weight:bold;font-size:175.684px;line-height:0.9;font-family:'F37 Bolton';-inkscape-font-specification:'F37 Bolton Bold';text-align:end;letter-spacing:-5.14699px;text-anchor:end;fill:#000000;fill-opacity:1;fill-rule:evenodd;stroke-width:25.5771;paint-order:markers stroke fill"
       d="m 741.15611,129.95235 h -26.3526 l -9.31126,-29.16354 h -45.67784 l -10.36535,29.16354 H 623.79919 L 668.7743,3.9869176 h 31.97449 z M 668.24724,77.422831 h 29.86629 l -11.0681,-34.434063 q -1.75684,-5.27052 -2.81094,-10.54104 h -0.70274 q -1.40547,6.32462 -2.98663,10.71672 z"
       id="path7" /><path
       style="font-weight:bold;font-size:175.684px;line-height:0.9;font-family:'F37 Bolton';-inkscape-font-specification:'F37 Bolton Bold';text-align:end;letter-spacing:-5.14699px;text-anchor:end;fill:#000000;fill-opacity:1;fill-rule:evenodd;stroke-width:25.5771;paint-order:markers stroke fill"
       d="M 601.33466,129.95235 H 574.45501 V 28.582678 H 538.96684 V 3.9869176 h 97.85599 V 28.582678 h -35.48817 z"
       id="path6" /><path
       style="font-weight:bold;font-size:175.684px;line-height:0.9;font-family:'F37 Bolton';-inkscape-font-specification:'F37 Bolton Bold';text-align:end;letter-spacing:-5.14699px;text-anchor:end;fill:#000000;fill-opacity:1;fill-rule:evenodd;stroke-width:25.5771;paint-order:markers stroke fill"
       d="m 473.08524,133.11466 q -24.24439,0 -37.59638,-13.35198 -13.35198,-13.35199 -13.35198,-38.650484 V 3.9869176 h 26.70397 V 78.125567 q 0,14.054721 5.97325,21.960503 5.97326,7.90578 18.27114,7.90578 12.1222,0 18.09545,-7.90578 6.14894,-8.081466 6.14894,-21.960503 V 3.9869176 H 524.0336 V 81.112196 q 0,25.298494 -13.52767,38.650484 -13.35198,13.35198 -37.42069,13.35198 z"
       id="text6" /></g></svg>
