<svg width="1216" height="145" viewBox="0 0 1216 145" fill="none" xmlns="http://www.w3.org/2000/svg">
  <path d="M44 31.8C44 9.29996 46 8.69996 56.5 7.39996L60.3 6.79996C61.9 5.69996 61.6 1.49998 59.9 0.699982C51.2 1.09998 41.2 1.29996 31.4 1.29996C21.2 1.29996 11.2 1.09998 2.00004 0.699982C0.200043 1.49998 4.87566e-05 5.39996 1.60005 6.79996L5.80003 7.39996C16.3 8.69996 18.3 9.29996 18.3 31.8V110.6C18.3 133.1 16.3 133.7 5.80003 135.2L2.70005 135.6C1.10005 136.7 1.40005 140.9 3.10005 141.7C11.1 141.3 21.6 141.1 31.4 141.1C41.2 141.1 51.2001 141.3 61.7001 141.7C63.5001 140.9 63.7 136.6 62.1 135.6L56.5 135C46 133.7 44 133.1 44 110.6V83.7C44 77.6 43.6 72.5 49.1 72.5C51.1 72.5 52.9 74.2 54.4 75.7C62.6 83.8 89.1 118.1 98.4 129.1C100.9 132.1 100.4 134.2 96.8 134.8L90.8 135.6C88.8 136.7 88.8001 140.9 91.2001 141.7C101 141.3 111 141.1 121.9 141.1C133.7 141.1 142.6 141.3 150.4 141.7C152.2 141.1 152.4 136.6 150.8 135.6L145.5 135C138.8 134.1 133.7 132.2 129 126.9C113 109.1 91.8 83.9 74.3 61.8C71.9 58.6 72.3 57.4 75 54.8C83.7 46.5 92.6001 37.8 102.2 28.7C117.6 14.5 123.6 9.39998 144.3 6.69998C146.5 5.59998 146.1 1.19998 143.6 0.599976C135.6 0.799976 128.7 1.19998 119.1 1.19998C110.9 1.19998 103.5 0.999976 94.2001 0.599976C92.4001 2.29998 92 5.29998 93.8 6.69998L100.7 8.59998C103.4 9.19998 103.1 10.9 99.1001 15.8C96.4001 19.2 90.0001 26.2 87.1001 28.9L64.4 52.2C57.1 59.8 51.9001 64.7 47.7001 64.7C44.1001 64.7 43.9 60.9 43.9 55.2V31.8H44ZM196.9 85.7C196.9 107.1 201.6 122 211.6 131.1C221.8 140.4 236.5 144.7 257.4 144.7C272.8 144.7 289.4 140.7 301 128.8C312.6 116.9 315.7 99.1 315.7 79.9V54.7C315.7 37.9 315.7 19.3 318.8 12.9C320.4 9.49996 324.4 8.69996 328.6 7.79996L333.5 6.69998C335.3 5.19998 334.8 1.79996 333 0.799957C324.8 1.19996 318.8 1.39996 309.4 1.39996C300.7 1.39996 292.3 1.19996 284.7 0.799957C282.5 1.39996 282.3 5.19998 284.3 6.69998L288.8 7.29996C294.4 8.09996 297.9 9.59996 299.9 12.8C303.9 18.9 304.1 38.6999 304.1 54.5999V81C304.1 113.2 292.1 134.2 262.9 134.2C232 134.2 222.6 109.6 222.6 80.4V31.9C222.6 9.39996 224.6 8.79996 235.1 7.29996L240 6.69998C241.6 5.19998 241.3 1.59996 239.6 0.799957C229.8 1.19996 219.8 1.39996 209.8 1.39996C200 1.39996 190 1.19996 181.1 0.799957C179.3 1.59996 179.1 5.19998 180.7 6.69998L184.5 7.29996C195 8.79996 197 9.39996 197 31.9V85.7H196.9ZM387.1 110.7C387.1 133.2 385.1 133.8 374.6 135.1L369.7 135.7C367.7 137.2 368.4 141 370.1 141.8C380.3 141.4 390.3 141.2 400.1 141.2C409.9 141.2 419.9 141.4 429.7 141.8C431.5 141 431.7 137.1 430.1 135.7L425.2 135.1C414.7 133.8 412.7 133.2 412.7 110.7V83.5999C412.7 79.0999 412.9 78.9 419.6 78.9C426.9 78.9 429.4 79.7999 433.4 86.0999C438.8 94.3999 445 106 451 114.9C464.6 134.6 476.1 142.9 497.5 142.9C505.3 142.9 509.5 142.3 512.2 141.6C512.9 140.5 512.9 138.2 511.8 137.4C509.1 137.2 502.7 135.9 496.4 130.8C485.9 122.5 474.8 104.5 457 75.9C456.1 74.6 455.7 72.9 457 72.3C467.9 68.1 483.7 58.3 483.7 38.8C483.7 23.5 475.5 13.6 464.1 7.89996C454.3 2.79996 439.2 0.699982 421.8 0.699982C403.6 0.699982 384.6 1.29998 370.6 2.59998C368.8 3.69998 368.8 6.99997 370.4 8.49997L376.2 9.09998C386.7 10.2 386.9 12.7 386.9 33V110.7H387.1ZM412.9 19.6C412.9 9.79998 413.1 9.19998 424.7 9.19998C444.1 9.19998 455.4 23.8 455.4 40.6C455.4 60.7 445.4 70.9 423.6 70.9C412.9 70.9 412.9 70.5 412.9 63.7V19.6ZM591.2 31.8C591.2 9.29996 593.2 8.69996 603.7 7.39996L608.6 6.79996C610.2 5.29996 609.9 1.49998 608.2 0.699982C598.4 1.09998 588.4 1.29996 578.6 1.29996C568.4 1.29996 558.3 1.09998 548.6 0.699982C546.8 1.49998 546.6 5.39996 548.2 6.79996L553.1 7.39996C563.5 8.69996 565.6 9.29996 565.6 31.8V110.6C565.6 133.1 563.6 133.7 553.1 135L548.2 135.6C546.6 137.1 546.9 140.9 548.6 141.7C558.4 141.3 568.8 141.1 578.6 141.1C588.4 141.1 598.4 141.3 608.2 141.7C610 140.9 610.2 137 608.6 135.6L603.7 135C593.2 133.7 591.2 133.1 591.2 110.6V31.8ZM676.4 110.7C676.4 133.2 674.4 133.8 663.9 134.9L655.7 135.7C654.1 137.2 654.4 141 656.1 141.8C666.1 141.4 679.7 141.2 689.5 141.2H714.9C740.9 141.2 760.1 141.4 769.9 141.8C773 136.1 777.9 120 779.2 111.1C777.9 109 774.1 108.3 772.1 109.8C764.3 127 759.4 133.1 731.2 132.7C712.5 132.7 708.7 131 706.1 128C702.8 124.4 702.3 116.8 702.3 106V79.0999C702.3 73.7999 702.5 73.4 707.7 73.4H718.4C737.8 73.4 741.5 73.8 743.1 82.7L744.7 91.2C746.5 92.5 750.7 92.5 751.8 91C751.6 84.2 751.1 76.8 751.1 68.8C751.1 61 751.5 53.2999 751.8 47.5999C750.7 45.8999 746.5 45.9 744.7 47.4L743.1 54.5999C741.5 63.6999 737.8 63.9 718.4 63.9H707.7C702.6 63.9 702.3 63.7 702.3 58.2V22.4C702.3 10.3 702.3 9.89996 711.9 9.89996H726.8C732.8 9.89996 739.5 10.3 744.6 11.8C751.7 13.5 755.1 18.8 758.6 31.1C760.4 32.4 764.8 31.9 765.7 30.3C764.4 21.2 763 4.39996 762.1 0.799957C759.2 1.19996 746.3 1.39996 732.1 1.39996H689.6C679.8 1.39996 669.3 1.19996 660.9 0.799957C659.1 1.59996 658.9 5.49996 660.4 6.89996L664 7.29996C674.5 8.79996 676.5 9.39996 676.5 31.9V110.7H676.4ZM837.7 110.7C837.7 133.2 835.7 133.8 825.2 135.1L820.3 135.7C818.3 137.2 819 141 820.8 141.8C831 141.4 841.1 141.2 850.8 141.2C860.6 141.2 870.6 141.4 880.4 141.8C882.2 141 882.4 137.1 880.8 135.7L875.9 135.1C865.4 133.8 863.4 133.2 863.4 110.7V83.5999C863.4 79.0999 863.6 78.9 870.3 78.9C877.6 78.9 880.1 79.7999 884.1 86.0999C889.4 94.3999 895.7 106 901.7 114.9C915.3 134.6 926.8 142.9 948.2 142.9C956 142.9 960.2 142.3 962.9 141.6C963.6 140.5 963.6 138.2 962.5 137.4C959.8 137.2 953.4 135.9 947.2 130.8C936.7 122.5 925.6 104.5 907.8 75.9C906.9 74.6 906.5 72.9 907.8 72.3C918.7 68.1 934.5 58.3 934.5 38.8C934.5 23.5 926.3 13.6 914.9 7.89996C905.1 2.79996 890 0.699982 872.6 0.699982C854.4 0.699982 835.4 1.29998 821.4 2.59998C819.6 3.69998 819.6 6.99997 821.2 8.49997L827 9.09998C837.5 10.2 837.7 12.7 837.7 33V110.7V110.7ZM863.5 19.6C863.5 9.79998 863.7 9.19998 875.3 9.19998C894.7 9.19998 906 23.8 906 40.6C906 60.7 896 70.9 874.2 70.9C863.5 70.9 863.5 70.5 863.5 63.7V19.6Z" fill="#a0241c"/>
  <path d="M987.3 6.59998H1030.2L1022.2 27.4H987.3V6.59998ZM1048.9 6.59998H1112.4L1106.7 27.4H1061.5V137.7H1040.9V27.3L1048.9 6.59998Z" fill="#a0241c"/>
  <path d="M1141.9 91.9L1130.7 121.2L1093 10.2999L1112.5 6.59995L1141.9 91.9ZM1215.1 6.19995L1164.7 137.6H1143.2L1193.8 6.19995H1215.1V6.19995Z" fill="#a0241c"/>
</svg>
