<?xml version="1.0" encoding="UTF-8" standalone="no"?>
<svg
   xmlns:dc="http://purl.org/dc/elements/1.1/"
   xmlns:cc="http://creativecommons.org/ns#"
   xmlns:rdf="http://www.w3.org/1999/02/22-rdf-syntax-ns#"
   xmlns:svg="http://www.w3.org/2000/svg"
   xmlns="http://www.w3.org/2000/svg"
   width="361.33731mm"
   height="72.760414mm"
   viewBox="0 0 361.33731 72.760413"
   version="1.1"
   id="svg8">
  <defs
     id="defs2">
    <clipPath
       id="clipPath1589"
       clipPathUnits="userSpaceOnUse">
      <path
         id="path1587"
         d="M 0,396 H 612 V 0 H 0 Z" />
    </clipPath>
    <clipPath
       id="clipPath1595"
       clipPathUnits="userSpaceOnUse">
      <path
         id="path1593"
         d="m 0,396.015 h 612 v -396 H 0 Z" />
    </clipPath>
    <clipPath
       id="clipPath1607"
       clipPathUnits="userSpaceOnUse">
      <path
         id="path1605"
         d="M 0,396 H 612 V 0 H 0 Z" />
    </clipPath>
    <clipPath
       id="clipPath1613"
       clipPathUnits="userSpaceOnUse">
      <path
         id="path1611"
         d="m 0,396.015 h 612 v -396 H 0 Z" />
    </clipPath>
    <clipPath
       id="clipPath1629"
       clipPathUnits="userSpaceOnUse">
      <path
         id="path1627"
         d="M 0,396 H 612 V 0 H 0 Z" />
    </clipPath>
    <clipPath
       id="clipPath1635"
       clipPathUnits="userSpaceOnUse">
      <path
         id="path1633"
         d="m 0,396.015 h 612 v -396 H 0 Z" />
    </clipPath>
    <clipPath
       id="clipPath1647"
       clipPathUnits="userSpaceOnUse">
      <path
         id="path1645"
         d="M 0,396 H 612 V 0 H 0 Z" />
    </clipPath>
    <clipPath
       id="clipPath1653"
       clipPathUnits="userSpaceOnUse">
      <path
         id="path1651"
         d="m 0,396.015 h 612 v -396 H 0 Z" />
    </clipPath>
    <clipPath
       id="clipPath1701"
       clipPathUnits="userSpaceOnUse">
      <path
         id="path1699"
         d="M 0,396 H 612 V 0 H 0 Z" />
    </clipPath>
    <clipPath
       id="clipPath1707"
       clipPathUnits="userSpaceOnUse">
      <path
         id="path1705"
         d="m 0,396.015 h 612 v -396 H 0 Z" />
    </clipPath>
    <clipPath
       id="clipPath1719"
       clipPathUnits="userSpaceOnUse">
      <path
         id="path1717"
         d="M 0,396 H 612 V 0 H 0 Z" />
    </clipPath>
    <clipPath
       id="clipPath1725"
       clipPathUnits="userSpaceOnUse">
      <path
         id="path1723"
         d="m 0,396.015 h 612 v -396 H 0 Z" />
    </clipPath>
    <clipPath
       id="clipPath1749"
       clipPathUnits="userSpaceOnUse">
      <path
         id="path1747"
         d="M 0,396 H 612 V 0 H 0 Z" />
    </clipPath>
    <clipPath
       id="clipPath1755"
       clipPathUnits="userSpaceOnUse">
      <path
         id="path1753"
         d="m 0,396.015 h 612 v -396 H 0 Z" />
    </clipPath>
    <clipPath
       id="clipPath1775"
       clipPathUnits="userSpaceOnUse">
      <path
         id="path1773"
         d="M 0,396 H 612 V 0 H 0 Z" />
    </clipPath>
    <clipPath
       id="clipPath1781"
       clipPathUnits="userSpaceOnUse">
      <path
         id="path1779"
         d="m 0,396.015 h 612 v -396 H 0 Z" />
    </clipPath>
    <clipPath
       id="clipPath1793"
       clipPathUnits="userSpaceOnUse">
      <path
         style="clip-rule:evenodd"
         id="path1791"
         d="m 193.48,284.01 h 21.6 v -19.66 h -21.6 z" />
    </clipPath>
    <clipPath
       id="clipPath1799"
       clipPathUnits="userSpaceOnUse">
      <path
         id="path1797"
         d="M 0,396 H 612 V 0 H 0 Z" />
    </clipPath>
    <clipPath
       id="clipPath1805"
       clipPathUnits="userSpaceOnUse">
      <path
         id="path1803"
         d="m 0,396.015 h 612 v -396 H 0 Z" />
    </clipPath>
    <clipPath
       id="clipPath1821"
       clipPathUnits="userSpaceOnUse">
      <path
         id="path1819"
         d="M 0,396 H 612 V 0 H 0 Z" />
    </clipPath>
    <clipPath
       id="clipPath1827"
       clipPathUnits="userSpaceOnUse">
      <path
         id="path1825"
         d="m 0,396.015 h 612 v -396 H 0 Z" />
    </clipPath>
    <clipPath
       id="clipPath1835"
       clipPathUnits="userSpaceOnUse">
      <path
         id="path1833"
         d="m 0,0.015 h 612 v 396 H 0 Z" />
    </clipPath>
    <clipPath
       id="clipPath1843"
       clipPathUnits="userSpaceOnUse">
      <path
         id="path1841"
         d="M 0,396 H 612 V 0 H 0 Z" />
    </clipPath>
    <clipPath
       id="clipPath1849"
       clipPathUnits="userSpaceOnUse">
      <path
         id="path1847"
         d="m 0,396.015 h 612 v -396 H 0 Z" />
    </clipPath>
    <clipPath
       id="clipPath1861"
       clipPathUnits="userSpaceOnUse">
      <path
         id="path1859"
         d="m 0,0.015 h 612 v 396 H 0 Z" />
    </clipPath>
    <clipPath
       id="clipPath1869"
       clipPathUnits="userSpaceOnUse">
      <path
         id="path1867"
         d="M 0,396 H 612 V 0 H 0 Z" />
    </clipPath>
    <clipPath
       id="clipPath1875"
       clipPathUnits="userSpaceOnUse">
      <path
         id="path1873"
         d="m 0,396.015 h 612 v -396 H 0 Z" />
    </clipPath>
    <clipPath
       id="clipPath1887"
       clipPathUnits="userSpaceOnUse">
      <path
         style="clip-rule:evenodd"
         id="path1885"
         d="m 264.48,284.01 h 23.76 v -19.66 h -23.76 z" />
    </clipPath>
    <clipPath
       id="clipPath1893"
       clipPathUnits="userSpaceOnUse">
      <path
         id="path1891"
         d="M 0,396 H 612 V 0 H 0 Z" />
    </clipPath>
    <clipPath
       id="clipPath1899"
       clipPathUnits="userSpaceOnUse">
      <path
         id="path1897"
         d="m 0,396.015 h 612 v -396 H 0 Z" />
    </clipPath>
    <clipPath
       id="clipPath1923"
       clipPathUnits="userSpaceOnUse">
      <path
         id="path1921"
         d="M 0,396 H 612 V 0 H 0 Z" />
    </clipPath>
    <clipPath
       id="clipPath1929"
       clipPathUnits="userSpaceOnUse">
      <path
         id="path1927"
         d="m 0,396.015 h 612 v -396 H 0 Z" />
    </clipPath>
    <clipPath
       id="clipPath1941"
       clipPathUnits="userSpaceOnUse">
      <path
         style="clip-rule:evenodd"
         id="path1939"
         d="m 288.84,284.04 h 26.35 v -19.66 h -26.35 z" />
    </clipPath>
    <clipPath
       id="clipPath1947"
       clipPathUnits="userSpaceOnUse">
      <path
         id="path1945"
         d="M 0,396 H 612 V 0 H 0 Z" />
    </clipPath>
    <clipPath
       id="clipPath1953"
       clipPathUnits="userSpaceOnUse">
      <path
         id="path1951"
         d="m 0,396.015 h 612 v -396 H 0 Z" />
    </clipPath>
    <clipPath
       id="clipPath1997"
       clipPathUnits="userSpaceOnUse">
      <path
         id="path1995"
         d="M 0,396 H 612 V 0 H 0 Z" />
    </clipPath>
    <clipPath
       id="clipPath2003"
       clipPathUnits="userSpaceOnUse">
      <path
         id="path2001"
         d="m 0,396.015 h 612 v -396 H 0 Z" />
    </clipPath>
    <clipPath
       id="clipPath2015"
       clipPathUnits="userSpaceOnUse">
      <path
         style="clip-rule:evenodd"
         id="path2013"
         d="m 315.7,284.01 h 26.34 V 264.35 H 315.7 Z" />
    </clipPath>
    <clipPath
       id="clipPath2021"
       clipPathUnits="userSpaceOnUse">
      <path
         id="path2019"
         d="M 0,396 H 612 V 0 H 0 Z" />
    </clipPath>
    <clipPath
       id="clipPath2027"
       clipPathUnits="userSpaceOnUse">
      <path
         id="path2025"
         d="m 0,396.015 h 612 v -396 H 0 Z" />
    </clipPath>
    <clipPath
       id="clipPath2049"
       clipPathUnits="userSpaceOnUse">
      <path
         id="path2047"
         d="M 0,396 H 612 V 0 H 0 Z" />
    </clipPath>
    <clipPath
       id="clipPath2055"
       clipPathUnits="userSpaceOnUse">
      <path
         id="path2053"
         d="m 0,396.015 h 612 v -396 H 0 Z" />
    </clipPath>
    <linearGradient
       id="linearGradient2079"
       spreadMethod="pad"
       gradientTransform="matrix(1.6461316,2.8511852,-2.9372983,1.6958733,-61.086661,122.87207)"
       gradientUnits="userSpaceOnUse"
       y2="0"
       x2="1"
       y1="0"
       x1="0.27498999">
      <stop
         id="stop2073"
         offset="0"
         style="stop-opacity:1;stop-color:#eeeeee" />
      <stop
         id="stop2075"
         offset="0.89888"
         style="stop-opacity:1;stop-color:#231f20" />
      <stop
         id="stop2077"
         offset="1"
         style="stop-opacity:1;stop-color:#231f20" />
    </linearGradient>
    <linearGradient
       id="linearGradient2105"
       spreadMethod="pad"
       gradientTransform="matrix(2.3072724,-2.3072724,2.3813558,2.3813558,-64.074547,125.11443)"
       gradientUnits="userSpaceOnUse"
       y2="0"
       x2="0.97799999"
       y1="0"
       x1="0">
      <stop
         id="stop2093"
         offset="0"
         style="stop-opacity:1;stop-color:#ffffff" />
      <stop
         id="stop2095"
         offset="0.46629"
         style="stop-opacity:1;stop-color:#b0aeaf" />
      <stop
         id="stop2097"
         offset="0.58989"
         style="stop-opacity:1;stop-color:#e7e6e6" />
      <stop
         id="stop2099"
         offset="0.67416"
         style="stop-opacity:1;stop-color:#b0aeaf" />
      <stop
         id="stop2101"
         offset="0.81461"
         style="stop-opacity:1;stop-color:#eeeeee" />
      <stop
         id="stop2103"
         offset="1"
         style="stop-opacity:1;stop-color:#6a6768" />
    </linearGradient>
    <linearGradient
       id="linearGradient2125"
       spreadMethod="pad"
       gradientTransform="matrix(1.6885708,2.9246688,-2.7329694,1.5778691,-64.150395,123.39231)"
       gradientUnits="userSpaceOnUse"
       y2="0"
       x2="1"
       y1="0"
       x1="0.27498999">
      <stop
         id="stop2119"
         offset="0"
         style="stop-opacity:1;stop-color:#eeeeee" />
      <stop
         id="stop2121"
         offset="0.89888"
         style="stop-opacity:1;stop-color:#231f20" />
      <stop
         id="stop2123"
         offset="1"
         style="stop-opacity:1;stop-color:#231f20" />
    </linearGradient>
    <linearGradient
       id="linearGradient2151"
       spreadMethod="pad"
       gradientTransform="matrix(2.2431375,-2.2431375,2.2396097,2.2396097,-66.473225,125.73616)"
       gradientUnits="userSpaceOnUse"
       y2="0"
       x2="0.97799999"
       y1="0"
       x1="0">
      <stop
         id="stop2139"
         offset="0"
         style="stop-opacity:1;stop-color:#ffffff" />
      <stop
         id="stop2141"
         offset="0.21349"
         style="stop-opacity:1;stop-color:#787677" />
      <stop
         id="stop2143"
         offset="0.58989"
         style="stop-opacity:1;stop-color:#e7e6e6" />
      <stop
         id="stop2145"
         offset="0.67416"
         style="stop-opacity:1;stop-color:#b0aeaf" />
      <stop
         id="stop2147"
         offset="0.81461"
         style="stop-opacity:1;stop-color:#eeeeee" />
      <stop
         id="stop2149"
         offset="1"
         style="stop-opacity:1;stop-color:#a3a1a1" />
    </linearGradient>
    <linearGradient
       id="linearGradient2171"
       spreadMethod="pad"
       gradientTransform="matrix(1.2527844,2.2600708,-2.6895777,1.4908389,-65.806404,123.27737)"
       gradientUnits="userSpaceOnUse"
       y2="0"
       x2="1"
       y1="0"
       x1="0.27498999">
      <stop
         id="stop2165"
         offset="0"
         style="stop-opacity:1;stop-color:#eeeeee" />
      <stop
         id="stop2167"
         offset="0.89888"
         style="stop-opacity:1;stop-color:#231f20" />
      <stop
         id="stop2169"
         offset="1"
         style="stop-opacity:1;stop-color:#231f20" />
    </linearGradient>
    <linearGradient
       id="linearGradient2199"
       spreadMethod="pad"
       gradientTransform="matrix(1.7343261,-1.7343261,1.977778,1.977778,-68.387855,125.03883)"
       gradientUnits="userSpaceOnUse"
       y2="0"
       x2="1"
       y1="0"
       x1="0">
      <stop
         id="stop2185"
         offset="0"
         style="stop-opacity:1;stop-color:#b0aeaf" />
      <stop
         id="stop2187"
         offset="0.1573"
         style="stop-opacity:1;stop-color:#ffffff" />
      <stop
         id="stop2189"
         offset="0.35409569"
         style="stop-opacity:1;stop-color:#bfbebe" />
      <stop
         id="stop2191"
         offset="0.39326"
         style="stop-opacity:1;stop-color:#bfbebe" />
      <stop
         id="stop2193"
         offset="0.61237"
         style="stop-opacity:1;stop-color:#efefef" />
      <stop
         id="stop2195"
         offset="0.91011"
         style="stop-opacity:1;stop-color:#848182" />
      <stop
         id="stop2197"
         offset="1"
         style="stop-opacity:1;stop-color:#eeeeee" />
    </linearGradient>
    <clipPath
       id="clipPath2209"
       clipPathUnits="userSpaceOnUse">
      <path
         style="clip-rule:evenodd"
         id="path2207"
         d="m 342.81,284.01 h 25.62 v -19.66 h -25.62 z" />
    </clipPath>
    <clipPath
       id="clipPath2215"
       clipPathUnits="userSpaceOnUse">
      <path
         id="path2213"
         d="M 0,396 H 612 V 0 H 0 Z" />
    </clipPath>
    <clipPath
       id="clipPath2221"
       clipPathUnits="userSpaceOnUse">
      <path
         id="path2219"
         d="m 0,396.015 h 612 v -396 H 0 Z" />
    </clipPath>
    <clipPath
       id="clipPath2247"
       clipPathUnits="userSpaceOnUse">
      <path
         id="path2245"
         d="M 0,396 H 612 V 0 H 0 Z" />
    </clipPath>
    <clipPath
       id="clipPath2253"
       clipPathUnits="userSpaceOnUse">
      <path
         id="path2251"
         d="m 0,396.015 h 612 v -396 H 0 Z" />
    </clipPath>
    <clipPath
       id="clipPath2265"
       clipPathUnits="userSpaceOnUse">
      <path
         style="clip-rule:evenodd"
         id="path2263"
         d="M 369.46,284.04 H 395.8 V 264.38 H 369.46 Z" />
    </clipPath>
    <clipPath
       id="clipPath2271"
       clipPathUnits="userSpaceOnUse">
      <path
         id="path2269"
         d="M 0,396 H 612 V 0 H 0 Z" />
    </clipPath>
    <clipPath
       id="clipPath2277"
       clipPathUnits="userSpaceOnUse">
      <path
         id="path2275"
         d="m 0,396.015 h 612 v -396 H 0 Z" />
    </clipPath>
    <clipPath
       id="clipPath2345"
       clipPathUnits="userSpaceOnUse">
      <path
         style="clip-rule:evenodd"
         id="path2343"
         d="m 396.9,284.01 h 21.6 v -19.66 h -21.6 z" />
    </clipPath>
    <clipPath
       id="clipPath2351"
       clipPathUnits="userSpaceOnUse">
      <path
         id="path2349"
         d="M 0,396 H 612 V 0 H 0 Z" />
    </clipPath>
    <clipPath
       id="clipPath2357"
       clipPathUnits="userSpaceOnUse">
      <path
         id="path2355"
         d="m 0,396.015 h 612 v -396 H 0 Z" />
    </clipPath>
    <clipPath
       id="clipPath2377"
       clipPathUnits="userSpaceOnUse">
      <path
         id="path2375"
         d="M 0,396 H 612 V 0 H 0 Z" />
    </clipPath>
    <clipPath
       id="clipPath2383"
       clipPathUnits="userSpaceOnUse">
      <path
         id="path2381"
         d="m 0,396.015 h 612 v -396 H 0 Z" />
    </clipPath>
    <polygon
       id="path-1"
       points="0,59.318182 0,0 59.318182,0 59.318182,59.318182 " />
    <polygon
       id="path-3"
       points="0,61.201299 0,0 46.607143,0 46.607143,61.201299 " />
    <polygon
       id="path-1-3"
       points="0,59.318182 0,0 59.318182,0 59.318182,59.318182 " />
    <polygon
       id="path-3-8"
       points="0,61.201299 0,0 46.607143,0 46.607143,61.201299 " />
    <clipPath
       clipPathUnits="userSpaceOnUse"
       id="clipPath1710">
      <path
         d="M 0,396 H 612 V 0 H 0 Z"
         id="path1708" />
    </clipPath>
    <clipPath
       clipPathUnits="userSpaceOnUse"
       id="clipPath1716">
      <path
         d="M 0,396.06 H 612 V 0.06 H 0 Z"
         id="path1714" />
    </clipPath>
    <clipPath
       clipPathUnits="userSpaceOnUse"
       id="clipPath1728">
      <path
         d="M 0,396 H 612 V 0 H 0 Z"
         id="path1726" />
    </clipPath>
    <clipPath
       clipPathUnits="userSpaceOnUse"
       id="clipPath1734">
      <path
         d="M 0,396.06 H 612 V 0.06 H 0 Z"
         id="path1732" />
    </clipPath>
    <clipPath
       clipPathUnits="userSpaceOnUse"
       id="clipPath1782">
      <path
         d="M 0,396 H 612 V 0 H 0 Z"
         id="path1780" />
    </clipPath>
    <clipPath
       clipPathUnits="userSpaceOnUse"
       id="clipPath1788">
      <path
         d="M 0,396.06 H 612 V 0.06 H 0 Z"
         id="path1786" />
    </clipPath>
    <clipPath
       clipPathUnits="userSpaceOnUse"
       id="clipPath1800">
      <path
         d="M 0,396 H 612 V 0 H 0 Z"
         id="path1798" />
    </clipPath>
    <clipPath
       clipPathUnits="userSpaceOnUse"
       id="clipPath1806">
      <path
         d="M 0,396.06 H 612 V 0.06 H 0 Z"
         id="path1804" />
    </clipPath>
    <clipPath
       clipPathUnits="userSpaceOnUse"
       id="clipPath1830">
      <path
         d="M 0,396 H 612 V 0 H 0 Z"
         id="path1828" />
    </clipPath>
    <clipPath
       clipPathUnits="userSpaceOnUse"
       id="clipPath1836">
      <path
         d="M 0,396.06 H 612 V 0.06 H 0 Z"
         id="path1834" />
    </clipPath>
    <clipPath
       clipPathUnits="userSpaceOnUse"
       id="clipPath1852">
      <path
         d="M 0,396 H 612 V 0 H 0 Z"
         id="path1850" />
    </clipPath>
    <clipPath
       clipPathUnits="userSpaceOnUse"
       id="clipPath1858">
      <path
         d="M 0,396.06 H 612 V 0.06 H 0 Z"
         id="path1856" />
    </clipPath>
    <clipPath
       clipPathUnits="userSpaceOnUse"
       id="clipPath1870">
      <path
         d="M 0,396 H 612 V 0 H 0 Z"
         id="path1868" />
    </clipPath>
    <clipPath
       clipPathUnits="userSpaceOnUse"
       id="clipPath1876">
      <path
         d="M 0,396.06 H 612 V 0.06 H 0 Z"
         id="path1874" />
    </clipPath>
    <clipPath
       clipPathUnits="userSpaceOnUse"
       id="clipPath1888">
      <path
         d="M 0,396 H 612 V 0 H 0 Z"
         id="path1886" />
    </clipPath>
    <clipPath
       clipPathUnits="userSpaceOnUse"
       id="clipPath1894">
      <path
         d="M 0,396.06 H 612 V 0.06 H 0 Z"
         id="path1892" />
    </clipPath>
    <clipPath
       clipPathUnits="userSpaceOnUse"
       id="clipPath1928">
      <path
         d="M 183.13,268.61 H 211.1 V 240.64 H 183.13 Z"
         id="path1926"
         style="clip-rule:evenodd" />
    </clipPath>
    <clipPath
       clipPathUnits="userSpaceOnUse"
       id="clipPath1934">
      <path
         d="M 0,396 H 612 V 0 H 0 Z"
         id="path1932" />
    </clipPath>
    <clipPath
       clipPathUnits="userSpaceOnUse"
       id="clipPath1940">
      <path
         d="M 0,396.06 H 612 V 0.06 H 0 Z"
         id="path1938" />
    </clipPath>
    <clipPath
       clipPathUnits="userSpaceOnUse"
       id="clipPath1964">
      <path
         d="m 213.67,268.61 h 27.96 v -27.97 h -27.96 z"
         id="path1962"
         style="clip-rule:evenodd" />
    </clipPath>
    <clipPath
       clipPathUnits="userSpaceOnUse"
       id="clipPath1970">
      <path
         d="M 0,396 H 612 V 0 H 0 Z"
         id="path1968" />
    </clipPath>
    <clipPath
       clipPathUnits="userSpaceOnUse"
       id="clipPath1976">
      <path
         d="M 0,396.06 H 612 V 0.06 H 0 Z"
         id="path1974" />
    </clipPath>
    <clipPath
       clipPathUnits="userSpaceOnUse"
       id="clipPath1990">
      <path
         d="m 241.36,268.61 h 27.97 v -27.97 h -27.97 z"
         id="path1988"
         style="clip-rule:evenodd" />
    </clipPath>
    <clipPath
       clipPathUnits="userSpaceOnUse"
       id="clipPath1996">
      <path
         d="M 0,396 H 612 V 0 H 0 Z"
         id="path1994" />
    </clipPath>
    <clipPath
       clipPathUnits="userSpaceOnUse"
       id="clipPath2002">
      <path
         d="M 0,396.06 H 612 V 0.06 H 0 Z"
         id="path2000" />
    </clipPath>
    <clipPath
       clipPathUnits="userSpaceOnUse"
       id="clipPath2024">
      <path
         d="m 271.95,268.61 h 27.96 v -27.97 h -27.96 z"
         id="path2022"
         style="clip-rule:evenodd" />
    </clipPath>
    <clipPath
       clipPathUnits="userSpaceOnUse"
       id="clipPath2030">
      <path
         d="M 0,396 H 612 V 0 H 0 Z"
         id="path2028" />
    </clipPath>
    <clipPath
       clipPathUnits="userSpaceOnUse"
       id="clipPath2036">
      <path
         d="M 0,396.06 H 612 V 0.06 H 0 Z"
         id="path2034" />
    </clipPath>
    <clipPath
       clipPathUnits="userSpaceOnUse"
       id="clipPath2094">
      <path
         d="M 0,396 H 612 V 0 H 0 Z"
         id="path2092" />
    </clipPath>
    <clipPath
       clipPathUnits="userSpaceOnUse"
       id="clipPath2100">
      <path
         d="M 0,396.06 H 612 V 0.06 H 0 Z"
         id="path2098" />
    </clipPath>
    <clipPath
       clipPathUnits="userSpaceOnUse"
       id="clipPath2112">
      <path
         d="m 302.52,268.61 h 27.96 v -27.97 h -27.96 z"
         id="path2110"
         style="clip-rule:evenodd" />
    </clipPath>
    <clipPath
       clipPathUnits="userSpaceOnUse"
       id="clipPath2118">
      <path
         d="M 0,396 H 612 V 0 H 0 Z"
         id="path2116" />
    </clipPath>
    <clipPath
       clipPathUnits="userSpaceOnUse"
       id="clipPath2124">
      <path
         d="M 0,396.06 H 612 V 0.06 H 0 Z"
         id="path2122" />
    </clipPath>
    <clipPath
       clipPathUnits="userSpaceOnUse"
       id="clipPath2174">
      <path
         d="M 0,396 H 612 V 0 H 0 Z"
         id="path2172" />
    </clipPath>
    <clipPath
       clipPathUnits="userSpaceOnUse"
       id="clipPath2180">
      <path
         d="M 0,396.06 H 612 V 0.06 H 0 Z"
         id="path2178" />
    </clipPath>
    <clipPath
       clipPathUnits="userSpaceOnUse"
       id="clipPath2754">
      <path
         d="M 0,396 H 612 V 0 H 0 Z"
         id="path2752" />
    </clipPath>
    <clipPath
       clipPathUnits="userSpaceOnUse"
       id="clipPath2760">
      <path
         d="M 0,396.06 H 612 V 0.06 H 0 Z"
         id="path2758" />
    </clipPath>
    <clipPath
       clipPathUnits="userSpaceOnUse"
       id="clipPath2772">
      <path
         d="m 364.3,268.61 h 27.97 V 240.64 H 364.3 Z"
         id="path2770"
         style="clip-rule:evenodd" />
    </clipPath>
    <clipPath
       clipPathUnits="userSpaceOnUse"
       id="clipPath2778">
      <path
         d="M 0,396 H 612 V 0 H 0 Z"
         id="path2776" />
    </clipPath>
    <clipPath
       clipPathUnits="userSpaceOnUse"
       id="clipPath2784">
      <path
         d="M 0,396.06 H 612 V 0.06 H 0 Z"
         id="path2782" />
    </clipPath>
    <clipPath
       clipPathUnits="userSpaceOnUse"
       id="clipPath2802">
      <path
         d="M 0,396 H 612 V 0 H 0 Z"
         id="path2800" />
    </clipPath>
    <clipPath
       clipPathUnits="userSpaceOnUse"
       id="clipPath2808">
      <path
         d="M 0,396.06 H 612 V 0.06 H 0 Z"
         id="path2806" />
    </clipPath>
    <linearGradient
       x1="0.27498999"
       y1="0"
       x2="1"
       y2="0"
       gradientUnits="userSpaceOnUse"
       gradientTransform="matrix(2.3419858,4.0564505,-4.1789702,2.412753,125.54129,272.23285)"
       spreadMethod="pad"
       id="linearGradient2830">
      <stop
         style="stop-opacity:1;stop-color:#eeeeee"
         offset="0"
         id="stop2824" />
      <stop
         style="stop-opacity:1;stop-color:#231f20"
         offset="0.89888"
         id="stop2826" />
      <stop
         style="stop-opacity:1;stop-color:#231f20"
         offset="1"
         id="stop2828" />
    </linearGradient>
    <linearGradient
       x1="0"
       y1="0"
       x2="0.97799999"
       y2="0"
       gradientUnits="userSpaceOnUse"
       gradientTransform="matrix(3.2825971,-3.2825971,3.3880071,3.3880071,121.29035,275.42309)"
       spreadMethod="pad"
       id="linearGradient2856">
      <stop
         style="stop-opacity:1;stop-color:#ffffff"
         offset="0"
         id="stop2844" />
      <stop
         style="stop-opacity:1;stop-color:#b0aeaf"
         offset="0.46629"
         id="stop2846" />
      <stop
         style="stop-opacity:1;stop-color:#e7e6e6"
         offset="0.58989"
         id="stop2848" />
      <stop
         style="stop-opacity:1;stop-color:#b0aeaf"
         offset="0.67416"
         id="stop2850" />
      <stop
         style="stop-opacity:1;stop-color:#eeeeee"
         offset="0.81461"
         id="stop2852" />
      <stop
         style="stop-opacity:1;stop-color:#6a6768"
         offset="1"
         id="stop2854" />
    </linearGradient>
    <linearGradient
       x1="0.27498999"
       y1="0"
       x2="1"
       y2="0"
       gradientUnits="userSpaceOnUse"
       gradientTransform="matrix(2.4023461,4.1610138,-3.8882813,2.2449013,121.18247,272.97301)"
       spreadMethod="pad"
       id="linearGradient2876">
      <stop
         style="stop-opacity:1;stop-color:#eeeeee"
         offset="0"
         id="stop2870" />
      <stop
         style="stop-opacity:1;stop-color:#231f20"
         offset="0.89888"
         id="stop2872" />
      <stop
         style="stop-opacity:1;stop-color:#231f20"
         offset="1"
         id="stop2874" />
    </linearGradient>
    <linearGradient
       x1="0"
       y1="0"
       x2="0.97799999"
       y2="0"
       gradientUnits="userSpaceOnUse"
       gradientTransform="matrix(3.1914041,-3.1914041,3.1863594,3.1863594,117.87768,276.30764)"
       spreadMethod="pad"
       id="linearGradient2902">
      <stop
         style="stop-opacity:1;stop-color:#ffffff"
         offset="0"
         id="stop2890" />
      <stop
         style="stop-opacity:1;stop-color:#787677"
         offset="0.21349"
         id="stop2892" />
      <stop
         style="stop-opacity:1;stop-color:#e7e6e6"
         offset="0.58989"
         id="stop2894" />
      <stop
         style="stop-opacity:1;stop-color:#b0aeaf"
         offset="0.67416"
         id="stop2896" />
      <stop
         style="stop-opacity:1;stop-color:#eeeeee"
         offset="0.81461"
         id="stop2898" />
      <stop
         style="stop-opacity:1;stop-color:#a3a1a1"
         offset="1"
         id="stop2900" />
    </linearGradient>
    <linearGradient
       x1="0.27498999"
       y1="0"
       x2="1"
       y2="0"
       gradientUnits="userSpaceOnUse"
       gradientTransform="matrix(1.7823744,3.2154635,-3.8265099,2.1210763,118.82641,272.8095)"
       spreadMethod="pad"
       id="linearGradient2922">
      <stop
         style="stop-opacity:1;stop-color:#eeeeee"
         offset="0"
         id="stop2916" />
      <stop
         style="stop-opacity:1;stop-color:#231f20"
         offset="0.89888"
         id="stop2918" />
      <stop
         style="stop-opacity:1;stop-color:#231f20"
         offset="1"
         id="stop2920" />
    </linearGradient>
    <linearGradient
       x1="0"
       y1="0"
       x2="1"
       y2="0"
       gradientUnits="userSpaceOnUse"
       gradientTransform="matrix(2.4674688,-2.4674688,2.813826,2.813826,115.15371,275.31552)"
       spreadMethod="pad"
       id="linearGradient2950">
      <stop
         style="stop-opacity:1;stop-color:#b0aeaf"
         offset="0"
         id="stop2936" />
      <stop
         style="stop-opacity:1;stop-color:#ffffff"
         offset="0.1573"
         id="stop2938" />
      <stop
         style="stop-opacity:1;stop-color:#bfbebe"
         offset="0.35409569"
         id="stop2940" />
      <stop
         style="stop-opacity:1;stop-color:#bfbebe"
         offset="0.39326"
         id="stop2942" />
      <stop
         style="stop-opacity:1;stop-color:#efefef"
         offset="0.61237"
         id="stop2944" />
      <stop
         style="stop-opacity:1;stop-color:#848182"
         offset="0.91011"
         id="stop2946" />
      <stop
         style="stop-opacity:1;stop-color:#eeeeee"
         offset="1"
         id="stop2948" />
    </linearGradient>
    <clipPath
       clipPathUnits="userSpaceOnUse"
       id="clipPath2960">
      <path
         d="m 393.37,268.61 h 36.45 v -27.97 h -36.45 z"
         id="path2958"
         style="clip-rule:evenodd" />
    </clipPath>
    <clipPath
       clipPathUnits="userSpaceOnUse"
       id="clipPath2966">
      <path
         d="M 0,396 H 612 V 0 H 0 Z"
         id="path2964" />
    </clipPath>
    <clipPath
       clipPathUnits="userSpaceOnUse"
       id="clipPath2972">
      <path
         d="M 0,396.06 H 612 V 0.06 H 0 Z"
         id="path2970" />
    </clipPath>
    <filter
       style="color-interpolation-filters:sRGB"
       id="filter4254">
      <feColorMatrix
         values="-1 0 0 0 1 0 -1 0 0 1 0 0 -1 0 1 -0.21 -0.72 -0.07 2 0 "
         result="color2"
         id="feColorMatrix4252" />
    </filter>
  </defs>
  <metadata
     id="metadata5">
    <rdf:RDF>
      <cc:Work
         rdf:about="">
        <dc:format>image/svg+xml</dc:format>
        <dc:type
           rdf:resource="http://purl.org/dc/dcmitype/StillImage" />
        <dc:title></dc:title>
      </cc:Work>
    </rdf:RDF>
  </metadata>
  <g
     style="stroke-width:0.65901029"
     id="layer1"
     transform="matrix(1.517427,0,0,1.517427,593.30638,-282.12027)">
    <g
       style="stroke-width:0.65901029"
       id="g4405"
       transform="matrix(1.1908317,0,0,1.1908317,-109.47912,-44.629821)">
      <g
         style="fill:#045ea8;fill-opacity:1;stroke-width:0.65901029"
         id="g4390">
        <path
           style="fill:#045ea8;fill-opacity:1;fill-rule:evenodd;stroke:none;stroke-width:0.42271891"
           d="m -206.57775,208.31609 c 0,-8.12436 -6.67674,-14.71192 -14.9125,-14.71192 -8.23576,0 -14.9125,6.58756 -14.9125,14.71192 0,6.51275 4.29179,12.03938 10.23843,13.9732 l 4.59222,-6.54368 c -1.37986,-0.63147 -2.74525,-1.30584 -3.84614,-2.39271 -2.12844,-1.75974 -3.08261,-4.45971 -2.21726,-7.08636 0.70515,-2.2301 2.95085,-4.00531 5.24097,-4.2991 2.81863,-0.32272 5.46108,1.02702 6.73813,3.49205 1.05697,2.08346 0.85137,4.73904 -0.60185,6.58807 l -2.65892,3.79881 -4.88816,6.98161 -7.08845,10.12701 h 10.33475 l 11.69465,-16.72903 c 1.56751,-2.29147 2.28663,-4.99692 2.28663,-7.90987"
           id="Fill-8"
           mask="none" />
        <path
           style="fill:#045ea8;fill-opacity:1;fill-rule:evenodd;stroke:none;stroke-width:0.42343891"
           mask="none"
           d="m -182.23207,198.38486 -2.94614,19.55042 -8.89137,-19.55042 h -8.74251 l -5.18997,34.57012 h 8.88238 l 2.84324,-19.47055 8.8539,19.47055 h 8.83642 l 5.28437,-34.57012 z"
           id="Fill-11" />
        <path
           style="fill:#045ea8;fill-opacity:1;fill-rule:evenodd;stroke:none;stroke-width:0.42330858"
           d="m -171.41017,198.38484 -5.26749,34.57008 h 26.50351 l 1.14081,-7.67717 h -16.87346 l 1.00521,-6.87441 h 14.05962 l 0.94706,-6.34197 h -14.07933 l 0.89461,-6.11808 h 15.89677 l 1.11869,-7.55847 z"
           id="Fill-13" />
        <path
           style="fill:#045ea8;fill-opacity:1;fill-rule:evenodd;stroke:none;stroke-width:0.42372218"
           mask="none"
           d="m -97.108774,197.49186 c -4.363306,0 -6.405306,0.92292 -8.836896,2.76975 -0.80672,0.61347 -1.46781,1.31173 -2.00663,2.08293 l 1.48629,-3.9597 h -10.39177 l -6.49177,20.18662 -0.26376,-20.18662 h -7.25404 l -6.94389,19.9189 -0.0218,-19.9189 c -2.86351,0 -8.59053,0 -8.59053,0 l 2.0172,34.57008 h 8.91844 l 6.33688,-19.12833 0.74793,19.12833 h 8.96518 l 9.95127,-26.5184 c -0.0628,0.49166 -0.1068,0.99419 -0.1068,1.5223 0,2.347 0.72448,4.32387 2.17076,5.92764 1.44629,1.60375 2.83979,3.29711 6.88928,5.07957 0.39114,0.17426 0.938149,0.40851 1.642569,0.70452 2.877098,1.22192 4.315577,2.39446 4.315577,3.52154 0,0.90644 -0.319763,1.60026 -0.960837,2.07645 -0.642081,0.47768 -1.57212,0.71574 -2.791401,0.71574 -1.657823,0 -2.929958,-0.34005 -3.812988,-1.02088 -0.88354,-0.67984 -1.32456,-1.65478 -1.32456,-2.92111 v -0.0942 h -9.36473 c 0,3.75459 1.36401,6.68092 4.09344,8.77833 2.72895,2.09541 5.18446,3.14361 10.079566,3.14361 4.70655,0 7.003101,-0.97313 9.599833,-2.92181 2.595223,-1.9487 3.894175,-4.67461 3.894175,-8.17962 0,-2.2362 -0.657384,-4.17305 -1.970461,-5.80927 -1.31409,-1.6337 -3.363017,-3.06127 -6.146832,-4.28218 l -6.58e-4,3.4e-4 c -0.828158,-0.3594 -1.931367,-0.82966 -3.307303,-1.40869 -3.47129,-1.43805 -3.8529,-2.66789 -3.8529,-3.68516 0,-0.67185 0.29497,-1.23561 0.880651,-1.68934 0.587216,-0.45323 1.332897,-0.68002 2.240356,-0.68002 1.360488,0 2.407837,0.28553 3.143214,0.85555 0.735336,0.57152 1.180337,1.44402 1.337513,2.61701 H -83.873 c -0.266406,-3.55044 -1.674108,-6.30492 -4.22344,-8.26059 -2.549315,-1.95565 -4.649017,-2.9344 -9.012275,-2.9344 z"
           id="path1488" />
      </g>
      <g
         style="stroke-width:0.65901029"
         transform="matrix(1.0008481,0,0,1.0008481,0.05099026,-0.19756659)"
         id="g4384">
        <path
           d="m -42.053537,232.95499 c 3.732822,0 5.808005,-3.22732 5.578823,-6.27265 -0.370477,-3.96515 -4.012233,-5.48461 -5.993226,-5.1613 1.65763,-0.92295 3.870956,-5.25546 0.505478,-8.66806 -2.674825,-2.53665 -6.084274,-1.61362 -7.283557,-0.50904 0.643595,-2.11909 -0.414438,-6.49869 -4.749999,-7.19247 -3.918051,-0.45832 -5.622776,2.26041 -6.131369,3.55071 -0.737748,-1.84286 -2.533548,-3.82695 -5.902186,-3.55071 -4.285368,0.46187 -5.622776,4.56478 -4.97919,7.00728 -1.704725,-1.15219 -4.608732,-1.65767 -7.145414,0.50814 -3.271324,3.27449 -1.519504,7.70107 0.276233,8.7591 -1.981002,-0.1851 -5.117324,1.15219 -5.808005,4.65894 -0.737749,4.33252 2.583776,6.86917 5.808005,6.86917 h 35.824398"
           style="fill:#ffffff;fill-opacity:1;fill-rule:nonzero;stroke:none;stroke-width:2.06893778"
           id="path1903" />
        <path
           d="m -69.715336,215.43367 6.592876,15.07571 -13.600155,-9.31165 c -3.412591,-2.26042 -2.72191,-6.13142 -0.831992,-7.83928 2.674825,-2.25729 6.454733,-1.47549 7.839236,2.07522"
           style="fill:#f37021;fill-opacity:1;fill-rule:nonzero;stroke:none;stroke-width:2.06893778"
           id="path1905" />
        <path
           d="m -60.67996,211.88296 -2.398546,16.8746 -6.82205,-16.0427 c -1.475551,-4.01223 1.842859,-6.63992 4.056177,-6.68388 2.53669,-0.27944 5.716966,1.65767 5.164419,5.85198"
           style="fill:#cc004c;fill-opacity:1;fill-rule:nonzero;stroke:none;stroke-width:2.06893778"
           id="path1907" />
        <path
           d="m -50.307176,212.66778 -6.778105,16.08978 -2.166222,-14.52315 c -0.185194,-2.21334 1.199273,-2.2573 1.704724,-2.67174 -0.09104,-0.32304 -0.781711,-0.32304 -0.781711,-0.32304 h -1.290313 c -0.138116,-3.77996 2.809818,-5.44074 5.208365,-5.25546 2.580634,0.0908 5.487783,3.0892 4.10328,6.68388"
           style="fill:#6460aa;fill-opacity:1;fill-rule:nonzero;stroke:none;stroke-width:2.06893778"
           id="path1909" />
        <path
           d="m -43.390945,221.10348 -13.600146,9.35882 6.407638,-14.89051 c 1.937049,-4.7029 6.454732,-3.77987 8.068418,-1.98098 1.75182,1.75182 2.257271,5.30254 -0.875955,7.51267"
           style="fill:#0089d0;fill-opacity:1;fill-rule:nonzero;stroke:none;stroke-width:2.06893778"
           id="path1911" />
        <path
           d="m -41.962489,232.12299 h -15.722424 l 12.771331,-8.89721 c 3.136322,-2.07513 6.454733,-0.18511 7.330642,2.53673 0.923005,3.04213 -1.152187,6.36048 -4.379549,6.36048"
           style="fill:#0db14b;fill-opacity:1;fill-rule:nonzero;stroke:none;stroke-width:2.06893778"
           id="path1913" />
        <path
           d="m -82.671887,225.57723 c 1.199273,-3.13628 4.517684,-4.24139 7.468777,-2.35145 l 12.771331,8.89721 h -15.490109 c -3.227362,0 -5.764052,-2.95108 -4.749999,-6.54576"
           style="fill:#fcb711;fill-opacity:1;fill-rule:nonzero;stroke:none;stroke-width:2.06893778"
           id="path1915" />
      </g>
    </g>
  </g>
</svg>
