<?xml version="1.0" encoding="utf-8"?>
<svg version="1.1" xmlns="http://www.w3.org/2000/svg" xmlns:xlink="http://www.w3.org/1999/xlink" x="0px" y="0px"
width="50px" height="37.21px" viewBox="0 0 50 37.21" enable-background="new 0 0 50 37.21" xml:space="preserve">
<g>
<defs>
<rect id="SVGID_1_" y="0" width="50" height="37.209"/>
</defs>
<clipPath id="SVGID_2_">
<use xlink:href="#SVGID_1_" overflow="visible"/>
</clipPath>
<g clip-path="url(#SVGID_2_)">
<path fill="#424143" d="M37.227,37.23H25.126V17.869h12.101V37.23z"/>
<path fill="#424143" d="M24.872,37.23H12.773V17.869h12.099V37.23z"/>
<path fill="#383939" d="M24.872,26.34H12.773v-8.471h12.099V26.34z"/>
<path fill="#383939" d="M37.227,26.34H25.126v-8.471h12.101V26.34z"/>
<path fill="#E7E7E7" d="M13.723,26.34h-0.95v-8.511h0.95V26.34z"/>
<path fill="#E7E7E7" d="M37.226,26.34h-0.951v-8.511h0.951V26.34z"/>
<path fill="#010101" d="M19.746,26.581h-6.973V26.34h6.973V26.581z"/>
<path fill="#010101" d="M24.873,26.581h-4.84V26.34h4.84V26.581z"/>
<path fill="#595A5C" d="M19.82,26.823h-7.046v-0.242h7.046V26.823z"/>
<path fill="#595A5C" d="M24.872,26.823h-4.566v-0.242h4.566V26.823z"/>
<path fill="#010101" d="M31.394,26.581h-6.269V26.34h6.269V26.581z"/>
<path fill="#010101" d="M37.226,26.581h-6.204V26.34h6.204V26.581z"/>
<path fill="#595A5C" d="M31.802,26.823h-6.677v-0.242h6.677V26.823z"/>
<path fill="#595A5C" d="M37.227,26.823h-6.004v-0.242h6.004V26.823z"/>
<path fill="#010101" d="M24.873,37.23h0.252V17.869h-0.252V37.23z"/>
<path fill="#010101" d="M1.19,4.45v15.137l1.429-1.918l1.429-0.921V2.67L1.19,4.45z"/>
<path fill="#010101" d="M48.81,16.088V0.951L47.38,2.87l-1.428,0.92v14.079L48.81,16.088z"/>
<path fill="#010101" d="M35.208,16.165H4.048V2.67h31.16V16.165z"/>
<path fill="#010101" d="M14.792,4.374h31.16v13.496h-31.16V4.374z"/>
<path fill="#DCDDDE" d="M4.048,7.9l41.904-4.867v9.609L4.048,17.508V7.9z"/>
<path fill="#E7E7E7" d="M2.619,5.293l44.76-5.185v15.138l-44.76,5.185V5.293z"/>
<path fill="#E7E7E7" d="M24.999,2.7L2.619,5.293V20.43l22.38-2.591V2.7z"/>
<path fill="#E7E7E7" d="M2.619,20.43L1.19,19.587V4.451l1.429,0.843V20.43z"/>
<path fill="#E7E7E7" d="M47.38,0.108l1.43,0.843v15.137l-1.43-0.842V0.108z"/>
<path fill="#424143"
d="M48.81,1.835l-1.43-0.841L2.619,6.177L1.19,5.335V4.423l1.429,0.843L47.38,0.082l1.43,0.842V1.835z"/>
<path fill="#595A5C" d="M2.619,6.177V5.266L1.19,4.451v0.885L2.619,6.177z"/>
<path fill="#595A5C" d="M2.619,20.432v-0.914L1.19,18.703v0.884L2.619,20.432z"/>
<path fill="#595A5C" d="M47.38,14.334v0.913l1.43,0.841V15.21L47.38,14.334z"/>
<path fill="#595A5C" d="M47.38,0.082v0.912l1.43,0.841V0.924L47.38,0.082z"/>
<path fill="#424143" d="M24.999,3.586V2.67l22.38-2.588v0.912L24.999,3.586z"/>
<path fill="#424143" d="M24.999,17.869v-0.917l22.38-2.619v0.913L24.999,17.869z"/>
<path fill="#E7E7E7" d="M13.723,37.23h-0.95V26.823h0.95V37.23z"/>
<path fill="#FFFFFF" d="M37.226,26.581h-0.951v0.242h0.951V26.581z"/>
<path fill="#FFFFFF" d="M13.723,26.581h-0.95v0.242h0.95V26.581z"/>
<path fill="#D2D3D4" d="M37.226,26.34h-0.951v0.241h0.951V26.34z"/>
<path fill="#D2D3D4" d="M13.723,26.34h-0.95v0.241h0.95V26.34z"/>
<path fill="#E7E7E7" d="M37.226,37.23h-0.951V26.823h0.951V37.23z"/>
<path fill="#E7E7E7" d="M12.773,36.318h12.099v0.912H12.773V36.318z"/>
<path fill="#E7E7E7" d="M25.126,36.318h12.101v0.912H25.126V36.318z"/>
<path fill="#424143" d="M2.619,19.518l22.38-2.565v0.916l-22.38,2.563V19.518z"/>
<path fill="#424143" d="M2.619,5.266l22.38-2.596v0.916L2.619,6.177V5.266z"/>
<path fill="#6E6F72"
d="M2.829,4.987l22.17-2.317L2.619,5.266L1.19,4.45l2.858-1.78h15.994L4.216,3.021L1.905,4.434L2.829,4.987z"
/>
<path fill="#E7E7E7" d="M20.815,21.748h2.031v-1.935h-6.05v1.935h2.002V33.35h2.017V21.748z"/>
<path fill="#BBBDBF" d="M29.63,6.483l1.448-0.168l-0.324,7.949l0.324,0.278l1.45-0.169V6.147l1.45-0.169V4.607L33.65,4.328
L29.63,5.113l-0.326,1.092L29.63,6.483z"/>
<path fill="#BBBDBF" d="M45.859,11.445v1.371l-1.448,0.168l-1.449,0.169l-1.45,0.167l-0.323-0.28l0.323-1.091V3.723l1.124-0.446
l0.326,0.278v8.227l1.449-0.169l1.124-0.448L45.859,11.445z"/>
<path fill="#BBBDBF" d="M4.263,8.059l-0.325,9.317l0.325,0.281l1.45-0.17V12.69v-4.8L5.387,7.61L4.263,8.059z"/>
<path fill="#BBBDBF" d="M7.524,7.68l-1.812,5.01l1.484,4.309l0.327,0.28l1.544-0.179L7.257,12.51l1.812-5.009L8.743,7.22
L7.524,7.68z"/>
<path fill="#BBBDBF" d="M19.943,5.919l-1.141,0.452l-0.38,0.043l-1.896,9.501l0.326,0.281l1.466-0.17l0.225-1.398l1.604-0.186
l-0.101,1.064l0.326,0.28l1.466-0.17l-1.57-9.416L19.943,5.919z M18.768,13.229l0.414-3.475l0.15-2.074l0.026-0.003l0.151,2.039
l0.414,3.381L18.768,13.229z"/>
<path fill="#BBBDBF" d="M13.265,13.192l-0.151,2.075l-0.026,0.002l-0.15-2.039l-0.863-6.07l-0.326-0.28l-1.141,0.45l1.246,9.136
l0.325,0.279l0.379-0.045l1.086-0.126l0.38-0.043l1.57-9.782l-0.327-0.28l-1.14,0.451L13.265,13.192z"/>
<path fill="#BBBDBF" d="M37.794,3.847l-1.139,0.45l-0.381,0.044l-1.894,9.501l0.323,0.279l1.466-0.17l0.226-1.396L38,12.368
l-0.1,1.064l0.324,0.281l1.467-0.169L38.12,4.127L37.794,3.847z M36.619,11.157l0.413-3.477l0.152-2.075l0.024-0.003l0.152,2.04
l0.415,3.38L36.619,11.157z"/>
<path fill="#BBBDBF" d="M28.181,14.872v-3.764c0-0.558-0.521-1.113-1.016-1.152c-0.071-0.005,0.004,0.242-0.071,0.25
c0.601-0.069,1.087-0.586,1.087-1.154V6.309c0-0.6-0.7-1.255-1.3-1.186l-3.049,0.663l-0.326,9.318l0.326,0.279l1.45-0.17v-4.112
l1.448-0.168v0.343l-0.324,3.498l0.324,0.28L28.181,14.872z M26.73,9.563l-1.448,0.169V6.989l1.448-0.168V9.563z"/>
<path fill="#221F20"
d="M29.304,6.203l1.449-0.167v8.227l1.451-0.169V5.867l1.448-0.168V4.327l-4.349,0.505V6.203z"/>
<path fill="#221F20"
d="M44.086,11.332l-1.449,0.169V3.274l-1.449,0.168v8.227v1.371l1.449-0.168l1.449-0.169l1.449-0.168v-1.372"
/>
<path fill="#221F20" d="M3.938,7.778v9.598l1.449-0.169v-4.798V7.61L3.938,7.778z"/>
<path fill="#221F20" d="M7.198,7.399l-1.812,5.01l1.81,4.589l1.545-0.179l-1.812-4.59L8.741,7.22L7.198,7.399z"/>
<path fill="#221F20" d="M19.563,5.964L18.477,6.09l-0.38,0.044l-1.57,9.782l1.466-0.17l0.225-1.398l1.604-0.186l0.225,1.344
l1.466-0.171l-1.57-9.416L19.563,5.964z M18.442,12.949l0.414-3.476l0.152-2.074l0.025-0.003l0.15,2.039l0.415,3.381
L18.442,12.949z"/>
<path fill="#221F20" d="M12.941,12.912l-0.15,2.075l-0.025,0.002l-0.15-2.039L11.75,6.881l-1.465,0.169l1.57,9.417l0.379-0.045
l1.086-0.127l0.38-0.042l1.568-9.782l-1.465,0.17L12.941,12.912z"/>
<path fill="#221F20" d="M37.416,3.891l-1.087,0.126l-0.38,0.043l-1.569,9.78l1.467-0.17l0.223-1.397l1.605-0.188l0.225,1.345
l1.466-0.169l-1.57-9.416L37.416,3.891z M36.294,10.875L36.707,7.4l0.152-2.074l0.025-0.003l0.15,2.04l0.415,3.38L36.294,10.875z"
/>
<path fill="#221F20" d="M27.854,14.591v-3.763c0-0.568-0.485-0.972-1.087-0.902c0.602-0.069,1.087-0.585,1.087-1.154V6.029
c0-0.566-0.485-0.971-1.087-0.902l-3.261,0.378l-0.001,9.599l1.45-0.171v-4.112l1.45-0.169v0.343v3.778L27.854,14.591z
M26.406,9.282l-1.45,0.17V6.709l1.45-0.168V9.282z"/>
<path fill="#5A5C5E"
d="M29.304,6.203l1.449-0.167v8.227l1.451-0.169V5.867l1.448-0.168V4.327l-4.349,0.505V6.203z"/>
<path fill="#5A5C5E" d="M42.637,11.501V3.274l-1.449,0.168v8.227v1.371l1.449-0.168l1.449-0.169l1.449-0.168v-1.372L42.637,11.501
z"/>
<path fill="#5A5C5E" d="M3.938,7.778v9.598l1.449-0.169v-4.798V7.61L3.938,7.778z"/>
<path fill="#5A5C5E" d="M7.198,7.399l-1.812,5.01l1.81,4.589l1.545-0.179l-1.812-4.59L8.741,7.22L7.198,7.399z"/>
<path fill="#5A5C5E" d="M19.563,5.964L18.477,6.09l-0.38,0.044l-1.57,9.782l1.466-0.17l0.225-1.398l1.604-0.186l0.225,1.344
l1.466-0.171l-1.57-9.416L19.563,5.964z M18.442,12.949l0.414-3.476l0.152-2.074l0.025-0.003l0.15,2.039l0.415,3.381
L18.442,12.949z"/>
<path fill="#5A5C5E" d="M12.941,12.912l-0.15,2.075l-0.025,0.002l-0.15-2.039L11.75,6.881l-1.465,0.169l1.57,9.417l0.379-0.045
l1.086-0.127l0.38-0.042l1.568-9.782l-1.465,0.17L12.941,12.912z"/>
<path fill="#5A5C5E" d="M37.416,3.891l-1.087,0.126l-0.38,0.043l-1.569,9.78l1.467-0.17l0.223-1.397l1.605-0.188l0.225,1.345
l1.466-0.169l-1.57-9.416L37.416,3.891z M36.294,10.875L36.707,7.4l0.152-2.074l0.025-0.003l0.15,2.04l0.415,3.38L36.294,10.875z"
/>
<path fill="#5A5C5E" d="M27.854,14.591v-3.763c0-0.568-0.485-0.972-1.087-0.902c0.602-0.069,1.087-0.585,1.087-1.154V6.029
c0-0.566-0.485-0.971-1.087-0.902l-3.261,0.378l-0.001,9.599l1.45-0.171v-4.112l1.45-0.169v0.343v3.778L27.854,14.591z
M26.406,9.282l-1.45,0.17V6.709l1.45-0.168V9.282z"/>
<path fill="#5A5C5E" d="M30.754,14.262l0.726-0.771V5.266l-0.726,0.77V14.262z"/>
<path fill="#5A5C5E" d="M29.304,6.203l0.725-0.77l1.451-0.167l1.449-0.168l0.724-0.771l-4.349,0.505V6.203z"/>
<path fill="#5A5C5E" d="M3.938,7.778v9.598l0.724-0.77V8.38l0.725-0.77L3.938,7.778z"/>
<path fill="#5A5C5E" d="M26.767,5.126l-3.26,0.38l-0.001,9.599l0.725-0.77V6.107l2.536-0.294c0.102-0.011,0.192,0.016,0.257,0.071
l-0.617,0.658v2.736l-1.451,0.169l-0.725,0.77l2.536-0.295c0.102-0.013,0.192-0.06,0.257-0.129c0.066-0.07,0.105-0.16,0.105-0.256
V6.114c0-0.095-0.039-0.176-0.105-0.23l0.513-0.544C27.339,5.176,27.066,5.092,26.767,5.126z"/>
<path fill="#5A5C5E" d="M7.198,7.399H7.196l-1.81,5.01l1.81,4.589l0.529-0.749l-1.551-3.932l1.551-4.294L8.741,7.22L7.984,7.308
L7.198,7.399z"/>
<path fill="#5A5C5E"
d="M18.097,6.132l-1.57,9.782l0.854-0.785l1.339-8.393l0.603-0.069l0.62-0.749L18.097,6.132z"/>
<path fill="#5A5C5E" d="M19.822,14.161l0.226,1.345l0.612-0.756l-0.243-1.343L19.822,14.161z"/>
<path fill="#5A5C5E" d="M19.03,7.396l0.151,2.039l0.414,3.381l-0.277,0.032l-0.598,0.07l-0.28,0.031l-0.818,0.781l0.755-0.088
l1.283-0.148l0.755-0.088l-1.094-6.738L19.03,7.396z"/>
<path fill="#5A5C5E" d="M35.946,4.06l-1.569,9.781l0.854-0.785l1.34-8.392l0.602-0.071l0.62-0.747L35.946,4.06z"/>
<path fill="#5A5C5E" d="M37.673,12.087l0.225,1.345l0.613-0.756l-0.243-1.343L37.673,12.087z"/>
<path fill="#5A5C5E" d="M36.884,5.322l0.15,2.04l0.416,3.38l-0.28,0.032l-0.599,0.07l-0.279,0.032l-0.819,0.781l0.756-0.087
l1.284-0.148l0.754-0.088l-1.094-6.738L36.884,5.322z"/>
<path fill="#5A5C5E" d="M13.167,15.698l1.272-8.544l0.83-0.681l-1.465,0.17l-0.864,6.27l-0.15,2.075L13.167,15.698z
M12.325,15.802l-1.127-8.214l0.552-0.707l-1.465,0.17l1.57,9.417L12.325,15.802z"/>
<path fill="#5A5C5E" d="M41.925,12.322l0.714-0.82l2.898-0.338l-0.768,0.805L41.925,12.322z"/>
<path fill="#5A5C5E" d="M41.92,12.299l-0.014-8.335l0.73-0.69l-1.449,0.168v9.598L41.92,12.299z"/>
<path fill="#5A5C5E" d="M26.406,10.654l0.741,0.451v2.929l-0.741,0.74V10.654z"/>
<path fill="#5A5C5E" d="M13.167,15.698l-0.842,0.104l0.44-0.813l0.026-0.003L13.167,15.698z"/>
<path fill="#E7E7E7" d="M29.149,33.35h2.017l2.03-13.536h-2.03l-0.995,8.476l-1.021-8.476h-2.002L29.149,33.35z"/>
</g>
</g>
</svg>
