<?xml version="1.0" encoding="utf-8"?>
<!-- Generator: Adobe Illustrator 28.1.0, SVG Export Plug-In . SVG Version: 6.00 Build 0)  -->
<svg version="1.1" id="Слой_1" xmlns="http://www.w3.org/2000/svg" xmlns:xlink="http://www.w3.org/1999/xlink" x="0px" y="0px"
	 width="500px" height="500px" viewBox="0 0 500 500" style="enable-background:new 0 0 500 500;" xml:space="preserve">
<style type="text/css">
	.st0{fill:url(#SVGID_1_);}
	.st1{fill:url(#SVGID_00000068659784359367753700000012251475819232168322_);}
	.st2{fill:#7C0D04;}
	.st3{fill:#EA5094;}
	.st4{fill:#A49B11;}
	.st5{fill:url(#SVGID_00000070801065103609669370000005061995613601287299_);}
	.st6{fill:#7B410B;}
	.st7{fill:#A5A411;}
	.st8{fill:#987A12;}
	.st9{fill:#26247F;}
	.st10{fill:#25257D;}
	.st11{fill:#252673;}
	.st12{fill:url(#SVGID_00000145045026562624335120000004838699058936058290_);}
	.st13{fill:#252571;}
</style>
<g>
	
		<radialGradient id="SVGID_1_" cx="258.5005" cy="169.0869" r="311.9573" gradientTransform="matrix(1 0 0 1 0 -2.632055e-03)" gradientUnits="userSpaceOnUse">
		<stop  offset="0.2" style="stop-color:#FFFFFF"/>
		<stop  offset="0.5" style="stop-color:#D3D1D1"/>
		<stop  offset="1" style="stop-color:#959291"/>
	</radialGradient>
	<circle class="st0" cx="250" cy="250" r="250"/>
	<g>
		<g>
			
				<linearGradient id="SVGID_00000008128967780208076530000011334593441040235960_" gradientUnits="userSpaceOnUse" x1="255.4987" y1="177.7121" x2="255.4987" y2="323.0534">
				<stop  offset="0" style="stop-color:#E83587"/>
				<stop  offset="0.4943" style="stop-color:#E61871"/>
				<stop  offset="1" style="stop-color:#C1043F"/>
			</linearGradient>
			<path style="fill:url(#SVGID_00000008128967780208076530000011334593441040235960_);" d="M289.1,250c11.6-3.4,22.4-17,22.4-31.8
				c0-28-12.4-40.8-37.5-40.8h-77.2v145.7h79.6c25,0,37.6-12.8,37.6-40.8C314.1,266.5,301.6,252.1,289.1,250z M254.4,291.4H241
				v-26.8h12.4c9.6,0,14.4,4.4,14.4,13.3C267.8,286.9,263.3,291.4,254.4,291.4z M253.2,232.9H241v-26.8h11.2
				c9.6,0,14.4,4.4,14.4,13.2C266.6,228.4,262.1,232.9,253.2,232.9z"/>
			<path class="st2" d="M276.5,323.6h-80V177h77.6c25.5,0,37.9,13.5,37.9,41.2c0,15.1-10.7,27.8-21.2,31.7
				c11.5,2.9,23.6,16.3,23.6,32.5C314.5,310.1,302.1,323.6,276.5,323.6z M197.4,322.7h79.1c25.3,0,37.1-12.8,37.1-40.3
				c0-16.5-12.9-30-24.5-31.9l-2-0.3l1.9-0.6c10.6-3.1,22.1-16,22.1-31.4c0-27.5-11.8-40.3-37-40.3h-76.7V322.7z M254.4,291.9h-13.9
				v-27.7h12.9c9.8,0,14.8,4.6,14.8,13.7C268.2,287.2,263.6,291.9,254.4,291.9z M241.4,291h13c8.7,0,12.9-4.3,12.9-13.1
				c0-8.6-4.6-12.8-13.9-12.8h-12V291z M253.2,233.4h-12.7v-27.7h11.7c9.8,0,14.8,4.6,14.8,13.7C267,228.7,262.4,233.4,253.2,233.4z
				 M241.4,232.5h11.8c8.7,0,12.9-4.3,12.9-13.1c0-8.6-4.6-12.8-13.9-12.8h-10.8V232.5z"/>
		</g>
		<path class="st2" d="M252,204.3h-11.2v1.9H252c9.3,0,14,4.1,14.3,12.4c0-0.3,0-0.6,0-1C266.4,208.7,261.6,204.3,252,204.3z"/>
		<path class="st3" d="M254.2,292.8c8.9,0,13.4-4.5,13.4-13.5c0-0.2,0-0.4,0-0.6c-0.2,8.5-4.7,12.8-13.3,12.8h-13.4v1.3H254.2z"/>
		<polygon class="st4" points="113.5,321.2 109.9,323.2 109.9,178.5 113.5,180.3 		"/>
		<g>
			
				<linearGradient id="SVGID_00000143598565648959174930000009977804465618617224_" gradientUnits="userSpaceOnUse" x1="183.4689" y1="179.8673" x2="69.3117" y2="324.5861">
				<stop  offset="0" style="stop-color:#FAE800"/>
				<stop  offset="0.6477" style="stop-color:#FCC000"/>
				<stop  offset="1" style="stop-color:#CB8D00"/>
			</linearGradient>
			<path style="fill:url(#SVGID_00000143598565648959174930000009977804465618617224_);" d="M63.3,323.2V178.5h46.5v54.4l25.1-54.4
				h53.7l-38.7,67.4l41.8,77.3h-54.9l-26.9-56.6v56.6H63.3z"/>
			<path class="st6" d="M192.4,323.6h-55.9l-0.1-0.3l-26-54.8v55H62.9V178h47.4v52.8l24.3-52.8h54.7l-0.4,0.7l-38.6,67.2
				L192.4,323.6z M137,322.7h53.9l-41.6-76.8l38.5-67h-52.6l-25.8,56v-56H63.8v143.8h45.6v-58.1L137,322.7z"/>
		</g>
		<polygon class="st7" points="151.7,246.9 150.1,245.9 189.1,178.2 190.4,179.6 		"/>
		<polygon class="st8" points="193.7,322.3 192.1,323.4 150.1,245.9 152.2,245.9 		"/>
		<polygon class="st9" points="393.1,226.9 396.8,226.9 396.8,178.1 393.1,180.5 		"/>
		<polygon class="st10" points="396.8,272.6 393.1,272.6 393.1,320.4 396.8,323.5 		"/>
		<polygon class="st11" points="320.3,322.4 322.1,323.5 322.1,178.1 320.3,180 		"/>
		<g>
			
				<linearGradient id="SVGID_00000111176558039635916600000001853054331204552082_" gradientUnits="userSpaceOnUse" x1="331.5039" y1="184.2004" x2="434.2867" y2="317.3336">
				<stop  offset="0" style="stop-color:#526EB7"/>
				<stop  offset="1" style="stop-color:#252570"/>
			</linearGradient>
			<path style="fill:url(#SVGID_00000111176558039635916600000001853054331204552082_);" d="M322.4,323.2V178.5h46.4v48.5h28.3
				v-48.5h46.4v144.7h-46.4v-50.9h-28.3v50.9H322.4z"/>
			<path class="st13" d="M443.9,323.6h-47.3v-50.9h-27.4v50.9H322V178h47.3v48.5h27.4V178h47.3V323.6z M397.5,322.7H443V178.9h-45.5
				v48.5h-29.2v-48.5h-45.5v143.8h45.5v-50.9h29.2V322.7z"/>
		</g>
	</g>
</g>
</svg>
