<?xml version="1.0" encoding="UTF-8" standalone="no"?>
<!-- Created with Inkscape (http://www.inkscape.org/) -->

<svg
   version="1.1"
   id="svg1"
   width="1000"
   height="586.5282"
   viewBox="0 0 1000 586.5282"
   xml:space="preserve"
   xmlns="http://www.w3.org/2000/svg"
   xmlns:svg="http://www.w3.org/2000/svg"><defs
     id="defs1"><style
       id="style1">.cls-1{fill:#fff;stroke-width:0px;}</style></defs><path
     d="m 860.81254,149.02816 v 247.68751 c 0,22.59376 -10.40625,48.99999 -39.7187,48.99999 -29.31255,0 -40.4375,-26.40623 -40.4375,-48.99999 V 149.02816 H 641.46876 v 247.68751 c 0,22.59376 -10.59374,48.99999 -40.40624,48.99999 -29.8125,0 -39.71876,-26.40623 -39.71876,-48.99999 V 149.02816 h -139.1875 v 219.87501 c -0.65629,42.34375 -31.21876,77.6875 -68.18749,78.90626 H 209.34375 c -38.71875,0 -70.21876,-35.75 -70.21876,-79.65626 0,-43.90625 31.50001,-80.34376 70.21876,-80.34376 H 345.34376 V 149.02816 H 209.34375 C 93.93748,149.02816 0,247.30941 0,368.15317 0,488.99693 93.93748,586.52818 209.37501,586.52818 H 349 c 46.75002,0 93.84376,-18.90624 129.75001,-49.81249 34.15627,33.90625 71.46876,49.81249 116.31251,49.81249 44.84375,0 82.03125,-15.81249 116.06245,-49.5 34.03128,33.68751 71.25006,49.5 116.03125,49.5 96.9375,0 172.84378,-79.53126 172.84378,-181.09376 V 149.02816 Z"
     class="cls-1"
     id="path3"
     style="fill:#ff4500;fill-opacity:1" /><g
     id="g11"
     style="fill:#000000;fill-opacity:1"
     transform="matrix(8.8580252,0,0,8.8580252,-1.19681,-2.22927)"><path
       style="font-weight:bold;font-size:15.9824px;line-height:0.9;font-family:'F37 Bolton';-inkscape-font-specification:'F37 Bolton Bold';text-align:end;letter-spacing:0px;word-spacing:0px;text-anchor:end;fill:#000000;fill-opacity:1;stroke-width:2.82855;paint-order:markers fill stroke"
       d="m 107.25009,12.286413 q -1.77405,0 -3.06863,-0.783137 -1.29457,-0.79912 -1.98181,-2.1416418 -0.68725,-1.358504 -0.68725,-3.0206736 0,-1.7260992 0.70323,-3.116568 0.70323,-1.3904688 1.9978,-2.1736064 1.31056,-0.79911995 3.03666,-0.79911995 1.72609,0 3.02067,0.79911995 1.29457,0.7831376 1.9978,2.1736064 0.70322,1.3904688 0.70322,3.116568 0,1.6621696 -0.68724,3.0206736 -0.67126,1.3585038 -1.96583,2.1416418 -1.29458,0.783137 -3.06862,0.783137 z m 0,-2.285483 q 1.03885,0 1.79002,-0.4954542 0.75118,-0.5114368 1.13475,-1.3425216 0.38358,-0.8310848 0.38358,-1.8219936 0,-1.0548384 -0.38358,-1.917888 -0.38357,-0.8630496 -1.13475,-1.3744864 -0.73519,-0.5114368 -1.79002,-0.5114368 -1.05484,0 -1.80602,0.5114368 -0.73519,0.5114368 -1.11876,1.3744864 -0.3676,0.8630496 -0.3676,1.917888 0,0.9909088 0.3676,1.8219936 0.38357,0.8310848 1.11876,1.3425216 0.75118,0.4954542 1.80602,0.4954542 z"
       id="path10" /><path
       style="font-weight:bold;font-size:15.9824px;line-height:0.9;font-family:'F37 Bolton';-inkscape-font-specification:'F37 Bolton Bold';text-align:end;letter-spacing:0px;word-spacing:0px;text-anchor:end;fill:#000000;fill-opacity:1;stroke-width:2.82855;paint-order:markers fill stroke"
       d="m 95.491985,12.286413 q -1.662169,0 -2.860849,-0.719208 -1.182698,-0.719208 -1.806012,-2.0457468 -0.607331,-1.3265392 -0.607331,-3.116568 0,-1.8219936 0.639296,-3.2124624 0.655279,-1.3904688 1.885923,-2.157624 1.230645,-0.78313755 2.908797,-0.78313755 2.269501,0 3.452199,1.15073275 1.182692,1.1347504 1.374482,2.9407616 H 98.129081 Q 97.889345,3.5280582 97.250049,3.0166214 96.626736,2.5051846 95.635827,2.5051846 q -1.534311,0 -2.269501,1.0868032 -0.719208,1.0868032 -0.719208,2.7329904 0,1.6142224 0.703226,2.6690608 0.719208,1.038856 2.2695,1.038856 2.06173,0 2.493255,-1.9338704 h 2.365391 q -0.22375,1.9178884 -1.518324,3.0526384 -1.294574,1.13475 -3.468181,1.13475 z"
       id="path9" /><path
       style="font-weight:bold;font-size:15.9824px;line-height:0.9;font-family:'F37 Bolton';-inkscape-font-specification:'F37 Bolton Bold';text-align:end;letter-spacing:0px;word-spacing:0px;text-anchor:end;fill:#000000;fill-opacity:1;stroke-width:2.82855;paint-order:markers fill stroke"
       d="M 89.143589,11.99873 H 86.698282 V 0.53934945 h 2.445307 z"
       id="path8" /><path
       style="font-weight:bold;font-size:15.9824px;line-height:0.9;font-family:'F37 Bolton';-inkscape-font-specification:'F37 Bolton Bold';text-align:end;letter-spacing:0px;word-spacing:0px;text-anchor:end;fill:#000000;fill-opacity:1;stroke-width:2.82855;paint-order:markers fill stroke"
       d="M 75.726424,11.99873 79.386393,6.1331894 75.774371,0.53934945 h 2.780938 l 1.917888,2.95674395 q 0.367595,0.6233136 0.415542,0.7671552 h 0.06393 Q 81.000619,4.1353894 81.16044,3.8956534 81.320264,3.639935 81.384193,3.5280582 l 1.885924,-2.98870875 h 2.557184 L 82.231261,6.2290838 85.923195,11.99873 H 83.142257 L 81.048563,8.7063558 Q 80.792845,8.3227782 80.69695,8.0830422 H 80.649 q -0.191789,0.3835776 -0.351613,0.639296 L 78.267622,11.99873 Z"
       id="path7" /><path
       style="font-weight:bold;font-size:15.9824px;line-height:0.9;font-family:'F37 Bolton';-inkscape-font-specification:'F37 Bolton Bold';text-align:end;letter-spacing:0px;word-spacing:0px;text-anchor:end;fill:#000000;fill-opacity:1;stroke-width:2.82855;paint-order:markers fill stroke"
       d="M 75.344392,11.99873 H 67.097474 V 0.53934945 h 8.119059 V 2.7129558 H 69.542781 V 5.078351 h 5.19428 v 2.1736064 h -5.19428 v 2.5731664 h 5.801611 z"
       id="path6" /><path
       style="font-weight:bold;font-size:15.9824px;line-height:0.9;font-family:'F37 Bolton';-inkscape-font-specification:'F37 Bolton Bold';text-align:end;letter-spacing:0px;word-spacing:0px;text-anchor:end;fill:#000000;fill-opacity:1;stroke-width:2.82855;paint-order:markers fill stroke"
       d="M 54.172163,11.99873 V 0.53934945 h 2.525219 L 59.41439,4.838615 59.909845,5.6696998 h 0.04795 q 0.07991,-0.159824 0.351613,-0.5913488 l 0.159824,-0.2717008 2.637096,-4.26730075 h 2.525219 V 11.99873 H 63.314096 V 4.2632486 h -0.06393 Q 63.090342,4.598879 62.722747,5.238175 L 60.677,8.514567 H 59.126707 L 57.048995,5.238175 Q 56.729347,4.6947734 56.553541,4.2632486 h -0.06393 V 11.99873 Z"
       id="path5" /><path
       style="font-weight:bold;font-size:15.9824px;line-height:0.9;font-family:'F37 Bolton';-inkscape-font-specification:'F37 Bolton Bold';text-align:end;letter-spacing:0px;word-spacing:0px;text-anchor:end;fill:#000000;fill-opacity:1;stroke-width:2.82855;paint-order:markers fill stroke"
       d="M 38.358097,11.99873 35.497248,0.53934945 h 2.317448 l 1.470381,5.92947035 q 0.175806,0.6872432 0.39956,2.1895888 h 0.06393 q 0.207771,-1.4064512 0.39956,-2.1736064 l 1.390469,-5.94545275 h 2.685043 L 45.63009,6.5487318 q 0.239736,0.9749264 0.351613,2.1096768 h 0.06393 q 0.223753,-1.3904688 0.415542,-2.1096768 l 1.518328,-6.00938235 h 2.237536 L 47.308241,11.99873 H 44.783022 L 43.488448,6.4208726 Q 43.120853,4.8066502 42.897099,3.1764454 h -0.06393 q -0.223753,1.678152 -0.607331,3.2604096 l -1.294574,5.561875 z"
       id="path4" /><path
       style="font-weight:bold;font-size:15.9824px;line-height:0.9;font-family:'F37 Bolton';-inkscape-font-specification:'F37 Bolton Bold';text-align:end;letter-spacing:0px;word-spacing:0px;text-anchor:end;fill:#000000;fill-opacity:1;stroke-width:2.82855;paint-order:markers fill stroke"
       d="M 34.956579,11.99873 H 26.709661 V 0.53934945 H 34.82872 V 2.7129558 H 29.154968 V 5.078351 h 5.19428 v 2.1736064 h -5.19428 v 2.5731664 h 5.801611 z"
       id="path2" /><path
       style="font-weight:bold;font-size:15.9824px;line-height:0.9;font-family:'F37 Bolton';-inkscape-font-specification:'F37 Bolton Bold';text-align:end;letter-spacing:0px;word-spacing:0px;text-anchor:end;fill:#000000;fill-opacity:1;stroke-width:2.82855;paint-order:markers fill stroke"
       d="M 15.899389,11.99873 V 0.53934945 h 2.269501 l 4.05953,6.12125915 q 0.207771,0.319648 0.623313,1.0228736 h 0.06393 V 0.53934945 h 2.317448 V 11.99873 H 22.947628 L 18.824169,5.7815766 Q 18.440591,5.1902278 18.280767,4.838615 h -0.06393 v 7.160115 z"
       id="text2" /></g></svg>
