<?xml version="1.0" encoding="UTF-8"?>
<svg id="Layer_1" xmlns="http://www.w3.org/2000/svg" viewBox="0 0 687.43 242.61"><defs><style>.cls-1{fill:#3b74b7;}.cls-2{fill:#fff;}.cls-3{fill:#0a51a5;}</style></defs><path class="cls-3" d="M325.46,29.51l-.06.1h-61.43l-27.67,43.61-27.45-43.61h-97.79l-50.97,60.06V29.57H0v185.57h60.09v-48.57l10.94-12.16,41.11,60.73h92.97l30.16-47.14,29.94,47.14h165.94V29.51h-105.69ZM160.27,179.88l-47.52-69.19,45.75-51.96,41.55,62.15-39.78,59ZM312.7,183.18l-41.2-62.75,41.2-61.27v124.02Z"/><circle class="cls-3" cx="566.12" cy="121.31" r="121.31"/><circle class="cls-2" cx="566.12" cy="121.31" r="117.86"/><circle class="cls-3" cx="566.12" cy="121.31" r="102.4"/><path id="Circle_Highlight_Big" class="cls-1" d="M602,80.58c15.57-2.74,31-3.06,45.91-1.21,2.59.32,4.44-2.43,3.18-4.72-19.43-35.38-59.83-56.19-101.8-48.79-52.68,9.29-88.03,59.96-78.55,112.61,2.04,11.31,5.96,21.81,11.4,31.23,1.3,2.25,4.61,2.11,5.68-.27,20.31-45.07,61.83-79.63,114.18-88.86Z"/><polygon class="cls-2" points="527.19 31.17 527.19 203.61 484.9 203.61 484.9 94.88 477.21 94.88 527.19 31.17"/><path class="cls-2" d="M527.94,203.56c83.3-103.45,85.76-100.09,85.76-116.29,0-11.93-8.09-18.77-19.36-18.77-12.35,0-19.88,8.33-19.88,21.57v4.25h-40.09l-.23-4.07c0-40.61,27.44-63.23,59.48-63.23,46.67,0,59.63,42.39,58.96,59.34-1.08,27.66-5.23,35.2-44.34,78.09h40.62l-.8,39.11h-120.14Z"/><path class="cls-2" d="M328.78,35.51h38.26v173.63h-48.34V51.67l10.08-16.16Z"/><rect class="cls-2" x="376.81" y="35.51" width="48.34" height="173.63"/><polygon class="cls-2" points="312.68 194.08 264.29 120.39 321.31 35.61 267.27 35.61 236.28 84.45 205.54 35.61 178.43 35.61 162.44 53.83 207.27 120.89 147.78 209.14 201.82 209.14 235.29 156.84 268.51 209.14 312.68 209.14 312.68 194.08"/><polygon class="cls-2" points="170.85 35.61 113.84 35.61 54.09 106.02 54.09 35.57 6 35.57 6 209.14 54.09 209.14 54.09 164.27 71.69 144.69 115.32 209.14 139.76 209.14 156.51 185 105.16 110.23 170.85 35.61"/></svg>