<?xml version="1.0" encoding="utf-8"?>
<!-- Generator: Adobe Illustrator 24.0.1, SVG Export Plug-In . SVG Version: 6.00 Build 0)  -->
<svg version="1.1" id="Layer_2" xmlns="http://www.w3.org/2000/svg" xmlns:xlink="http://www.w3.org/1999/xlink" x="0px" y="0px"
	 viewBox="0 0 841.48 294" style="enable-background:new 0 0 841.48 294;" xml:space="preserve">
<style type="text/css">
	.st0{fill:#325CA3;}
	.st1{fill:#231F20;}
	.st2{fill:#B9000F;}
</style>
<g>
	<path class="st0" d="M0,3.78h80.06v117.2l99.87-117.2h94.5l-109.36,123.8l113.07,165.06H182.4l-73.04-107.29l-29.3,32.19v75.1H0
		V3.78z"/>
	<path class="st1" d="M841.48,249.65c-42.76-22.33-89.35-36.35-136.48-46.22c-11.82-2.35-23.62-5.11-35.6-6.5
		c-11.95-1.59-23.88-3.65-35.89-4.86c-12.02-1.16-24.07-1.96-36.11-2.95c-12.06-0.56-24.14-0.87-36.21-1.27
		c-12.08-0.41-24.15,0.27-36.22,0.65l-18.1,0.64c-3.02,0.12-6.03,0.18-9.05,0.36c-3.01,0.23-6.01,0.61-9.02,0.91l-36,3.85
		c-12.01,1.12-23.84,3.79-35.71,5.83l-17.77,3.25c-2.95,0.57-5.93,1.02-8.86,1.69c-2.93,0.69-5.84,1.51-8.76,2.26l-34.9,9.22
		c-11.62,3.01-22.92,7.27-34.22,11.34l-16.87,6.27l-16.7,6.62l0.5,1.73l34.55-8.67c11.54-2.79,22.95-6.12,34.69-7.99l35-6.57
		l8.75-1.64c2.92-0.51,5.88-0.79,8.82-1.2l17.66-2.28c47.01-6.74,94.59-8.66,142-8.27c47.47,0.05,94.88,4.41,141.78,11.61
		c46.84,7.4,93.44,17.82,138.07,33.88L841.48,249.65z"/>
	<g>
		<path class="st2" d="M335.13,121.97L263.08,3.78h59.63l38.86,68.81L400.7,3.78h58.56l-71.78,117.39v71.5h-52.35V121.97z"/>
		<path class="st2" d="M438.39,98.76v-0.54c0-54.24,43.71-98.22,102-98.22c58.29,0,101.46,43.45,101.46,97.68v0.54
			c0,54.24-43.71,98.22-102,98.22C481.57,196.45,438.39,153,438.39,98.76z M588.16,98.76v-0.54c0-27.52-19.43-51-48.3-51
			s-48.03,23.2-48.03,50.46v0.54c0,27.26,19.7,51,48.58,51C569,149.22,588.16,126.02,588.16,98.76z"/>
		<path class="st2" d="M660.05,109.83V3.78h52.89v104.97c0,27.26,13.76,40.21,34.81,40.21c21.32,0,35.08-12.41,35.08-38.86V3.78
			h52.89v104.7c0,60.71-34.81,87.69-88.51,87.69C693.78,196.17,660.05,168.93,660.05,109.83z"/>
	</g>
	<g>
		<path class="st0" d="M421.26,235.77h14.8l23.55,30.26v-30.26h15.7v57.25h-13.82l-24.53-31.4v31.4h-15.7V235.77z"/>
		<path class="st0" d="M485.43,235.77h46.04v13.41h-30.34v8.75h27.48v12.51h-27.48v9.08h30.75v13.49h-46.45V235.77z"/>
		<path class="st0" d="M536.2,235.77h16.77l9.98,33.12l11.04-33.28h13.66l11.04,33.28l9.98-33.12h16.44l-19.14,57.65h-13.82
			l-11.45-32.96l-11.53,32.96h-13.82L536.2,235.77z"/>
		<path class="st0" d="M625.4,284.52l8.83-10.55c5.72,4.5,11.94,6.87,18.56,6.87c4.33,0,6.62-1.47,6.62-3.92v-0.16
			c0-2.45-1.88-3.68-9.73-5.56c-12.19-2.78-21.59-6.22-21.59-17.91v-0.16c0-10.63,8.43-18.32,22.16-18.32
			c9.73,0,17.34,2.62,23.55,7.61l-7.93,11.2c-5.23-3.76-10.96-5.64-16.03-5.64c-3.85,0-5.73,1.55-5.73,3.68v0.16
			c0,2.62,1.96,3.76,9.98,5.56c13.08,2.86,21.26,7.12,21.26,17.83v0.16c0,11.7-9.24,18.65-23.14,18.65
			C642.08,294,632.52,290.81,625.4,284.52z"/>
	</g>
</g>
</svg>
