<svg data-name="Capa 2" viewBox="0 0 470.89 229.19" xmlns="http://www.w3.org/2000/svg"><g data-name="Layer 1"><path d="M0 .05C17.75.08 35.5.02 53.25.08c.05 55.41.02 110.82.02 166.23.06 4.21-.57 9.15 2.59 12.48 2.17 3.01 6.01 4.11 9.57 4.11 14.46-.04 28.91.03 43.37-.04-1.88-12.45 1.45-25.79 10.34-34.93 12.2-12.67 29.66-18.37 46.48-21.77 13.34-2.73 26.99-3.5 40.58-3.63.34-5.45-.29-11.57-4.67-15.4-7.04-6.27-17.23-5.94-26.05-5.3-13.65 2.19-26.39 8.15-38.11 15.28-6.37-13.07-12.73-26.15-19.28-39.12 21.74-14.59 48.11-22.47 74.33-21.28 17.43.49 35.48 5.36 48.83 17.03 12.08 10.31 18.9 25.9 20.08 41.57.8 6.95.34 13.97.46 20.95.03 30.95-.05 61.9.04 92.85-16.93.05-33.87.19-50.8-.07.35-7.14-.4-14.33.7-21.42-3.21 3.75-6.37 7.61-10.43 10.49-7.29 5.64-16.22 8.77-25.22 10.34-8.18.97-16.43.65-24.64.72-34-.1-68 0-102-.07-10.22.2-20.37-3.26-28.65-9.18C8.14 210.93.13 195.81.05 180.26-.05 120.19.03 60.12 0 .05Zm179.35 157.41c-5.57 1.94-11.54 4.79-14.19 10.42-1.73 4.06-1.59 9.07.9 12.8 2.74 4.48 8.3 6.41 13.35 6.24 5.27.24 10.24-2.08 14.46-5.04 8.51-6.38 14.14-16.99 12.99-27.76-9.25-.07-18.63.56-27.51 3.34Z" style="fill:#01114c"/><path d="M338.54 3.46c2.87-2.04 6.33-3.5 9.91-3.44 21.97 0 43.95.04 65.92-.02 8.03.14 16.14 3.99 20.79 10.63 10.41 13.52 20.99 26.9 31.36 40.45 4.86 5.86 5.82 14.58 2.08 21.26-25.57 49.46-51.31 98.82-76.85 148.29-1.92 4.08-5.42 8.63-10.43 8.26-12.64.03-25.28.09-37.91-.03-4.09.1-7.18-3.05-9.32-6.17-1.81-3.45-1.67-7.91.3-11.28 25.01-49.02 49.9-98.12 74.88-147.16 1.18-2.46 2.82-4.77 3.19-7.53-28.01-.01-56.02.01-84.02-.02-5.27.29-10.37-4.01-10.61-9.33-.44-3.83 1.82-7.15 3.3-10.49 3.34-7.32 6.89-14.55 10.13-21.92 2.01-4.05 3.56-8.65 7.28-11.5Z" style="fill:#d73e2c"/></g></svg>