<svg xmlns="http://www.w3.org/2000/svg" viewBox="0 0 332.169 94.799"><defs><clipPath id="a" clipPathUnits="userSpaceOnUse"><path d="M0 2742.66h1920V0H0Z"/></clipPath><clipPath id="b" clipPathUnits="userSpaceOnUse"><path d="M249.939 2678.932c0-3.613 1.414-7.007 4.964-7.007 3.551 0 4.966 3.394 4.966 7.007 0 3.802-1.415 7.007-4.966 7.007-3.55 0-4.964-3.205-4.964-7.007"/></clipPath><clipPath id="d" clipPathUnits="userSpaceOnUse"><path d="m300.187 2685.374-2.828-8.579h5.498l-2.608 8.579z"/></clipPath><clipPath id="f" clipPathUnits="userSpaceOnUse"><path d="M232.081 2647.124h116.512v71.099H232.081Zm82.877 44.032h5.656v-4.148h-5.656zm-71.053-12.224c0 7.039 3.771 11.344 10.998 11.344 7.227 0 10.998-4.305 10.998-11.344 0-6.975-3.834-11.343-10.998-11.343s-10.998 4.368-10.998 11.343m52.762 10.967h7.165l8.452-21.933h-6.41l-1.634 4.681h-8.233l-1.728-4.681h-5.939zm33.342-8.578c.975 2.074 2.389 3.393 4.84 3.393.66 0 1.351-.094 1.917-.189l-.284-4.713c-.627.189-1.256.189-1.916.189-2.64 0-4.117-1.917-4.117-5.122v-6.913h-5.655v16.371h5.153v-3.016zm-55.905 0c1.131 2.356 3.394 3.393 5.971 3.393 4.462 0 6.253-3.142 6.253-6.536v-10.212h-5.656v7.919c0 3.078-1.068 4.116-2.608 4.116-2.326 0-3.52-1.603-3.52-5.122v-6.913h-5.656v16.371h5.154v-3.016zm40.854 3.016h5.656v-16.371h-5.656z"/></clipPath><linearGradient id="c" x1="0" x2="1" y1="0" y2="0" gradientTransform="scale(-132.66058 132.66058) rotate(-45 23.77 13.272)" gradientUnits="userSpaceOnUse" spreadMethod="pad"><stop offset="0" stop-color="#00a9ec"/><stop offset=".25" stop-color="#005dae"/><stop offset=".516" stop-color="#592578"/><stop offset=".75" stop-color="#8f176f"/><stop offset="1" stop-color="#fc0066"/></linearGradient><linearGradient id="e" x1="0" x2="1" y1="0" y2="0" gradientTransform="scale(-132.66058 132.66058) rotate(-45 23.484 13.39)" gradientUnits="userSpaceOnUse" spreadMethod="pad"><stop offset="0" stop-color="#00a9ec"/><stop offset=".25" stop-color="#005dae"/><stop offset=".516" stop-color="#592578"/><stop offset=".75" stop-color="#8f176f"/><stop offset="1" stop-color="#fc0066"/></linearGradient><linearGradient id="g" x1="0" x2="1" y1="0" y2="0" gradientTransform="scale(-132.6606 132.6606) rotate(-45 23.566 13.356)" gradientUnits="userSpaceOnUse" spreadMethod="pad"><stop offset="0" stop-color="#00a9ec"/><stop offset=".25" stop-color="#005dae"/><stop offset=".516" stop-color="#592578"/><stop offset=".75" stop-color="#8f176f"/><stop offset="1" stop-color="#fc0066"/></linearGradient></defs><g fill="#004199" clip-path="url(#a)" transform="matrix(1.33333 0 0 -1.33333 -132.622 3624.297)"><path d="M138.345 2667.966c-.03.88-.126 1.728-.126 2.577h-.063c-1.288-2.043-2.859-2.954-5.184-2.954-2.845 0-5.42 1.24-6.003 3.95v-3.573h-14.894v21.933h5.844v-17.597h8.948c-.01.145-.022.29-.022.44 0 4.996 5.436 5.593 8.452 5.593.911 0 1.917-.094 2.64-.22-.032 2.231-1.697 2.828-3.74 2.828-1.822 0-3.645-.345-5.216-1.225l-.094 3.833c2.011.818 4.116 1.164 6.536 1.164 4.18 0 7.793-1.792 7.793-6.788v-6.096c0-1.288.062-2.577.314-3.865Zm11.981 13.726c0 10.344 3.876 19.94 10.901 27.017 4.47 4.503 9.982 7.73 16.085 9.514H99.467v-71.099h75.102c-5.453 1.438-10.068 3.852-13.794 7.225-6.93 6.278-10.449 15.475-10.449 27.343"/><path d="M132.124 2673.15c0-1.13 1.006-1.79 2.325-1.79 2.137 0 3.488 1.948 3.488 3.865-.723.03-1.54.094-2.388.094-1.917 0-3.425-.597-3.425-2.168m77.243 42.372c.899-.484 3.358-2.063 3.462-2.127a.824.824 0 0 0 .377-.685v-19.31a.82.82 0 0 0-.82-.817h-14.923a.826.826 0 0 0-.768.534l-.156.446c-1.937 5.247-3.623 7.438-9.06 7.438-8.485 0-12.786-6.056-12.786-18.01 0-10.767 6.066-17.46 15.833-17.46 4.318 0 8 .637 12.306 2.135l5.373 1.87a.807.807 0 0 0 1.038-.492l5.514-15.244a.817.817 0 0 0-.318-.967c-3.863-2.508-9.202-4.455-14.468-5.71h25.807v71.099h-22.903c2.112-.637 4.226-1.506 6.492-2.7"/></g><g clip-path="url(#b)" transform="matrix(1.33333 0 0 -1.33333 -132.622 3624.297)"><path fill="url(#c)" d="M249.939 2678.932c0-3.613 1.414-7.007 4.964-7.007 3.551 0 4.966 3.394 4.966 7.007 0 3.802-1.415 7.007-4.966 7.007-3.55 0-4.964-3.205-4.964-7.007"/></g><g clip-path="url(#d)" transform="matrix(1.33333 0 0 -1.33333 -132.622 3624.297)"><path fill="url(#e)" d="m300.187 2685.374-2.828-8.579h5.498l-2.608 8.579z"/></g><g clip-path="url(#f)" transform="matrix(1.33333 0 0 -1.33333 -132.622 3624.297)"><path fill="url(#g)" d="M232.081 2647.124h116.512v71.099H232.081Zm82.877 44.032h5.656v-4.148h-5.656zm-71.053-12.224c0 7.039 3.771 11.344 10.998 11.344 7.227 0 10.998-4.305 10.998-11.344 0-6.975-3.834-11.343-10.998-11.343s-10.998 4.368-10.998 11.343m52.762 10.967h7.165l8.452-21.933h-6.41l-1.634 4.681h-8.233l-1.728-4.681h-5.939zm33.342-8.578c.975 2.074 2.389 3.393 4.84 3.393.66 0 1.351-.094 1.917-.189l-.284-4.713c-.627.189-1.256.189-1.916.189-2.64 0-4.117-1.917-4.117-5.122v-6.913h-5.655v16.371h5.153v-3.016zm-55.905 0c1.131 2.356 3.394 3.393 5.971 3.393 4.462 0 6.253-3.142 6.253-6.536v-10.212h-5.656v7.919c0 3.078-1.068 4.116-2.608 4.116-2.326 0-3.52-1.603-3.52-5.122v-6.913h-5.656v16.371h5.154v-3.016zm40.854 3.016h5.656v-16.371h-5.656z"/></g></svg>