<svg data-name="Capa 2" viewBox="0 0 899.91 1114.1" xmlns="http://www.w3.org/2000/svg"><g data-name="Capa 1"><path d="M637.28 182.06H512.26L617.13 0H367.46L75.25 507.33l187.34 325.31h374.69l187.34-325.31zM512.3 615.66H387.53l-62.37-108.33L387.53 399H512.3l62.37 108.33z" style="fill:#0ad27d;stroke-width:0"/><path d="M0 933.31h35v178.61H0zm55.49 115.39c0-39.83 29.71-65.66 62.74-65.66 16.41 0 32.12 6.75 39.33 16.16v-14h35v101.86l8.71 24.87h-39.33l-4.33-14c-7.25 9.42-22.92 16.16-39.33 16.16-33.08 0-62.79-24.12-62.79-65.41zm69.04 32.58c19.29 0 33.29-14.25 33.29-32.58s-14-32.58-33.29-32.58-33.29 14.25-33.29 32.58 13.5 32.58 33.29 32.58m191.85-17.88c0-6.5-4.83-11.58-16.16-14.25l-28.96-7c-26.79-6.5-47.29-21-47.29-49.95 0-31.87 27.5-51.41 62.99-51.41 37.66 0 57.45 20.04 64.7 40.08l-32.83 15.91c-2.67-10.37-12.08-22.46-31.87-22.46-17.87 0-26.08 8.21-26.08 16.92 0 7.5 6.04 11.83 15.46 14l34.75 8.46c27.75 6.75 42.7 23.91 42.7 47.54 0 26.79-20.75 52.87-70.24 52.87-39.33 0-60.83-22.21-68.08-40.54l30.91-17.87c4.83 13.75 21 23.16 38.37 23.16 24.87-.04 31.62-8 31.62-15.46zm51.87-14.7c0-36.7 27.5-65.66 67.33-65.66 42.25 0 64.7 32.58 64.7 65.66v12.79H404c4.58 14.96 16.87 21.96 31.62 21.96 19.29 0 29.71-10.62 32.83-17.12l26.54 15.91c-4.83 10.87-23.41 31.87-59.37 31.87-43 0-67.37-29.2-67.37-65.41m95.58-14.71c-.96-7.5-9.17-21-28.71-21-12.54 0-25.33 6.75-30.41 21zm79.41 12.21-35.5-61.08h39.58l26.09 48.49 26.08-48.49h39.58l-35.5 61.08 36.92 65.66h-39.33l-27.75-52.87-27.76 52.87h-39.33l36.91-65.66zm127.15-28.4h-22.7v-32.58h23.41v-29.66h34.29v29.66h33.78v32.58h-33.78v60.33h34.28v33.79h-69.28zm83.74 30.9c0-39.83 29.66-65.66 62.74-65.66 16.41 0 32.12 6.75 39.34 16.16v-14h34.99v101.86l8.71 24.87h-39.33l-4.33-14c-7.25 9.42-22.91 16.16-39.34 16.16-33.08 0-62.78-24.12-62.78-65.41zm69.04 32.58c19.29 0 33.28-14.25 33.28-32.58s-13.99-32.58-33.28-32.58-33.29 14.25-33.29 32.58 13.5 32.58 33.29 32.58" style="stroke-width:0;fill:#0a001e"/></g></svg>