<svg xmlns="http://www.w3.org/2000/svg" viewBox="0 0 225.67 74.9"><defs><style>.cls-1{fill:#000;}</style></defs><g id="Capa_2" data-name="Capa 2"><g id="Capa_1-2" data-name="Capa 1"><path class="cls-1" d="M173.58,14.7h-6.7l.4-2H183l-.39,2h-6.7l-4,20.9h-2.3Z"/><path class="cls-1" d="M191.08,32.7l11.5-20h2.5l-13.3,22.9h-2.5l-4.4-22.9h2.5Z"/><path class="cls-1" d="M172.17,60.6l-1.7,8.6h5.81a5.51,5.51,0,0,0,5.6-4.3,2.77,2.77,0,0,0,.1-.9c0-2-1.5-3.4-4-3.4Z"/><path class="cls-1" d="M197.47,56.3a8.51,8.51,0,0,0-7.89,6.6,5.51,5.51,0,0,0,4.89,6.6h.4a8.21,8.21,0,0,0,6.5-3.6l1.2-6.1A5,5,0,0,0,197.47,56.3Z"/><path class="cls-1" d="M179.17,51h-5.1l-1.5,7.8h5.1a4.68,4.68,0,0,0,4.9-3.9,2.77,2.77,0,0,0,.1-.9C182.67,52.1,181.37,51,179.17,51Z"/><path class="cls-1" d="M168,45.1l-5.89,29.8h57.7l5.89-29.8Zm16.9,9.7a5.93,5.93,0,0,1-4.3,4.7,4.16,4.16,0,0,1,3.7,4.3,4.87,4.87,0,0,1-.1,1.2,7.85,7.85,0,0,1-8,6.2h-8.3l4.3-22h7.5c3.4,0,5.3,1.8,5.3,4.4a4.87,4.87,0,0,1-.1,1.2Zm17.71,16.3h-2.2l.5-2.5a9.47,9.47,0,0,1-6.7,2.8,6.67,6.67,0,0,1-7-6.2v-.6a9.85,9.85,0,0,1,.2-1.7,10.76,10.76,0,0,1,10.1-8.5,6.49,6.49,0,0,1,5.6,2.8l.5-2.5h2.2Zm16.7-14.5a4.58,4.58,0,0,0-1.61-.3c-2,0-4.3,2-6,4.3l-2.1,10.5h-2.2l3.2-16.3h2.2l-.6,3.3c1.6-1.8,3.8-3.7,6.1-3.7a3.65,3.65,0,0,1,1.5.3Z"/><polygon class="cls-1" points="71.67 35.5 58.58 35.5 58.58 12.6 64.58 12.6 64.58 30.3 71.67 30.3 71.67 35.5"/><path class="cls-1" d="M82.67,21.9a4.16,4.16,0,0,0-4.3,4.1v.3c0,2.5,1.6,4.6,4.2,4.6a4.31,4.31,0,0,0,4.5-4.3v-.2A4.27,4.27,0,0,0,83,21.9a.19.19,0,0,1-.3,0m-10,4.5c0-5.1,3.8-9.6,8.8-9.6a7.09,7.09,0,0,1,5.2,2.2V17.1h5.5V35.5h-5.6V33.7a7.79,7.79,0,0,1-5.5,2.2c-4.9,0-8.4-3.6-8.4-9.5"/><polygon class="cls-1" points="108.58 35.5 95.47 35.5 95.47 12.6 101.47 12.6 101.47 30.3 108.58 30.3 108.58 35.5"/><path class="cls-1" d="M116.58,35.5h-5.5V17.2h5.5Zm-6-23a3.31,3.31,0,0,1,6.6-.4v.4a3.37,3.37,0,0,1-3.4,3.4h0a3.24,3.24,0,0,1-3.3-3.2.31.31,0,0,0,.1-.2"/><path class="cls-1" d="M128.17,21.5c-2.6,0-3.89,2.1-3.89,4.4s1.39,4.3,3.8,4.3a4.14,4.14,0,0,0,4.2-4.1v-.2c.09-2.4-1.2-4.4-4.11-4.4M119,26c0-5,3.11-9.2,7.9-9.2a6.87,6.87,0,0,1,5.5,2.4V17.1h5.3V33.2c0,5.7-4.2,8.6-9.39,8.6-4.5,0-8.4-2.3-9-6.4h6.19a2.76,2.76,0,0,0,2.9,1.5c1.9,0,3.7-.9,3.7-2.9V32.6a8.31,8.31,0,0,1-5.2,2.1c-4.7.2-7.9-3.8-7.9-8.7"/><path class="cls-1" d="M150,21.9a4.16,4.16,0,0,0-4.3,4.1v.3c0,2.5,1.61,4.6,4.11,4.6a4.38,4.38,0,0,0,4.5-4.3v-.2a4.42,4.42,0,0,0-4-4.6.39.39,0,0,1-.31.1m-9.89,4.5c0-5.1,3.8-9.6,8.8-9.6a7.49,7.49,0,0,1,5.3,2.2V17.1h5.5V35.5h-5.6V33.7a7.79,7.79,0,0,1-5.5,2.2c-5.11,0-8.5-3.6-8.5-9.5"/><path class="cls-1" d="M7.07,11v.3l.1.1,8.9,5.2h0a.19.19,0,0,0,.3,0l.1-.1h0a11.67,11.67,0,0,1,8.1-5.7h.1a.37.37,0,0,0,.1-.3h0L23,.2h0V.1a.37.37,0,0,0-.3-.1h0A22.64,22.64,0,0,0,7.07,11"/><path class="cls-1" d="M2.07,30.5a.22.22,0,0,0,.2.2h.1l9.5-3.8h0a.22.22,0,0,0,.21-.2v-.1h0a11.5,11.5,0,0,1,.59-9.9h0v-.1a.39.39,0,0,0-.09-.3h0l-9-4.9h-.1a.37.37,0,0,0-.3.1h0a22.94,22.94,0,0,0-1.11,19"/><path class="cls-1" d="M14.17,46.5a.37.37,0,0,0,.3-.1l.1-.1,3-9.8h0a.37.37,0,0,0-.1-.3l-.1-.1h0A11.63,11.63,0,0,1,10,29.5h0a.1.1,0,0,0-.1-.1.18.18,0,0,0-.29,0h0L.18,33.5h0a.1.1,0,0,0-.1.1.18.18,0,0,0,0,.3h0A22.58,22.58,0,0,0,14.17,46.5"/><path class="cls-1" d="M34.17,47a.37.37,0,0,0,.1-.3v-.1l-5.7-8.5h0a.37.37,0,0,0-.3-.1h-.1a11.43,11.43,0,0,1-9.8,1.6h-.09a.22.22,0,0,0-.2.2h0l-2.71,9.9h0v.1a.22.22,0,0,0,.21.2h0a22.38,22.38,0,0,0,18.79-3.1"/><path class="cls-1" d="M47.17,31.7a.37.37,0,0,0-.1-.3H47l-10.19-.8h0c-.1,0-.2.1-.31.2v.1h0A10.78,10.78,0,0,1,35,35.8a11.25,11.25,0,0,1-3.4,3.8h0a.1.1,0,0,1-.1.1.19.19,0,0,0,0,.3h0l6.1,8.3h0l.1.1H38a21.7,21.7,0,0,0,6.5-7.3,24.68,24.68,0,0,0,2.7-9.4"/><path class="cls-1" d="M43.28,11.9a.2.2,0,0,0-.31,0,.1.1,0,0,0-.1.1l-7,7.5h0a.2.2,0,0,0,0,.3v.1h0a11.89,11.89,0,0,1,3.7,9.2h0v.1a.22.22,0,0,0,.2.2h0l10.2.5h.1a.22.22,0,0,0,.2-.2h0a22.13,22.13,0,0,0-7-17.8"/><path class="cls-1" d="M25.37,2.7a.22.22,0,0,0-.2.2V3l1.5,10.2h0a.22.22,0,0,0,.2.2H27a11.53,11.53,0,0,1,9.6,2.8h.1a.37.37,0,0,0,.3-.1h0l6.81-7.6h0l.09-.1a.39.39,0,0,0-.09-.3h0A23.32,23.32,0,0,0,25.37,2.7"/><path class="cls-1" d="M32.57,25.8v-.2a3.13,3.13,0,0,1-.5,1,1.85,1.85,0,0,0-.2-.7,4,4,0,0,0-1-1.8l-2.3.4h0l2.2-1a4.42,4.42,0,0,0-.2-2c-.1-.2-.2-.5-.3-.7a3.33,3.33,0,0,1,1,.6,8,8,0,0,0-4.4-3.2,6.47,6.47,0,0,1,.9.8h-.7a4.48,4.48,0,0,0-2,.4l-.3,2.4h0l-.3-2.4a4.48,4.48,0,0,0-2-.4h-.7a3.45,3.45,0,0,1,.9-.8,7.83,7.83,0,0,0-4.4,3.2,8.79,8.79,0,0,1,1-.6,4.88,4.88,0,0,0-.3.7,4.42,4.42,0,0,0-.2,2l2.2,1h0l-2.3-.5a4,4,0,0,0-1,1.8c-.09.2-.09.5-.2.7a3.13,3.13,0,0,1-.5-1v.3a8.37,8.37,0,0,0,1.6,4.8,3.55,3.55,0,0,1-.2-1c.2.2.4.3.5.5a4.17,4.17,0,0,0,1.8.8l1.6-1.8h0l-1.2,2.1a4,4,0,0,0,1.4,1.5c.2.1.4.3.6.4a4.1,4.1,0,0,1-1.1.1,7.73,7.73,0,0,0,5.2,0,4.1,4.1,0,0,1-1.1-.1,2.09,2.09,0,0,0,.6-.4,5,5,0,0,0,1.4-1.5l-1.2-2.1h0l1.6,1.8a3.7,3.7,0,0,0,1.8-.8,1.21,1.21,0,0,0,.5-.5,3.08,3.08,0,0,1-.1,1A6.55,6.55,0,0,0,32.57,25.8Zm-5.7,2.9h-4.2l-1.3-4,3.41-2.5,3.4,2.5Z"/></g></g></svg>