<svg xmlns="http://www.w3.org/2000/svg" width="131.68" height="70.595" viewBox="0 0 131.68 70.595"><defs><style>.a{fill:#111;}</style></defs><g transform="translate(-185.239 -402.115)"><path class="a" d="M190.377,476.412l.015-1.738h-.03l-.519,1.738-.975,3.065h1.6Zm1.738-4.7.946,11.5h-2.424l-.122-1.937h-2.3l-.716,1.937h-2.257l4.482-11.5Z" transform="translate(0 -10.686)"/><path class="a" d="M201.723,474.276a2.146,2.146,0,0,0-1.524-.732,1.281,1.281,0,0,0-1.326,1.128c-.29,1.891,3.156,2,2.653,5.108a3.909,3.909,0,0,1-3.873,3.583,3.1,3.1,0,0,1-1.861-.58l.351-2.164a2.489,2.489,0,0,0,1.616.609,1.5,1.5,0,0,0,1.509-1.25c.137-.885-.5-1.22-1.067-1.677a3.2,3.2,0,0,1-1.585-3.416,3.709,3.709,0,0,1,3.537-3.384,3.428,3.428,0,0,1,1.921.564Z" transform="translate(-1.62 -10.653)"/><path class="a" d="M209.647,474.276a2.147,2.147,0,0,0-1.525-.732,1.281,1.281,0,0,0-1.326,1.128c-.289,1.891,3.156,2,2.653,5.108a3.909,3.909,0,0,1-3.873,3.583,3.1,3.1,0,0,1-1.861-.58l.351-2.164a2.489,2.489,0,0,0,1.616.609,1.5,1.5,0,0,0,1.509-1.25c.137-.885-.5-1.22-1.067-1.677a3.2,3.2,0,0,1-1.585-3.416,3.709,3.709,0,0,1,3.537-3.384,3.428,3.428,0,0,1,1.921.564Z" transform="translate(-2.837 -10.653)"/><path class="a" d="M217.794,471.717l-.335,2.135h-2.3l-.4,2.5h2.027l-.335,2.135h-2.028l-.411,2.592h2.333l-.335,2.135h-4.6l1.814-11.5Z" transform="translate(-4.017 -10.686)"/><path class="a" d="M223.734,471.717l.046,6.784h.03l1.982-6.784h3.05l-.61,11.5H225.9l.763-8.279h-.03l-.808,2.837-1.845,5.443h-1.753l-.244-5.5.03-2.561.03-.214h-.03l-1.647,8.279h-2.439l2.82-11.5Z" transform="translate(-5.018 -10.686)"/><path class="a" d="M235.264,473.623l-.458,2.805a1.591,1.591,0,0,0,1.6-1.448c.122-.839-.275-1.4-1.144-1.357m-.732,4.573-.488,3.111a1.672,1.672,0,0,0,1.692-1.586c.152-.9-.3-1.555-1.2-1.524m-3.064,5.016,1.814-11.5h2.226a3.054,3.054,0,0,1,2.287.626,2.9,2.9,0,0,1,.762,2.592,3.259,3.259,0,0,1-1.616,2.379,2.554,2.554,0,0,1,1.006,2.668c-.366,2.271-2.2,3.232-4.269,3.232Z" transform="translate(-7.097 -10.686)"/><path class="a" d="M244.18,471.717l-1.479,9.361h2.379l-.335,2.135h-4.651l1.814-11.5Z" transform="translate(-8.422 -10.686)"/><path class="a" d="M253.291,468.384l-2.3,2.1-.96-.609,1.814-2.2ZM253.2,471.1l-.335,2.135h-2.3l-.4,2.5h2.027l-.335,2.135h-2.028l-.411,2.592h2.333l-.335,2.135h-4.6l1.814-11.5Z" transform="translate(-9.453 -10.066)"/><path class="a" d="M260.259,471.717l-.335,2.135h-2.3l-.4,2.5h2.027l-.335,2.135h-2.028l-.411,2.592h2.333l-.335,2.135h-4.6l1.814-11.5Z" transform="translate(-10.537 -10.686)"/><path class="a" d="M269.338,471.717l1.738,6.937.047-.03a6.727,6.727,0,0,1,.091-1.738l.808-5.169h2.272l-1.815,11.5h-2.149l-1.708-6.937-.031.03-.075,1.158-.061.473-.839,5.275h-2.272l1.814-11.5Z" transform="translate(-12.298 -10.686)"/><path class="a" d="M279.99,476.412l.015-1.738h-.03l-.519,1.738-.976,3.065h1.6Zm1.738-4.7.945,11.5h-2.424l-.122-1.937h-2.3l-.717,1.937h-2.257l4.483-11.5Z" transform="translate(-13.758 -10.686)"/><path class="a" d="M291.433,471.717l-.335,2.135h-1.8l-1.479,9.361h-2.272l1.479-9.361h-1.784l.336-2.135Z" transform="translate(-15.353 -10.686)"/><path class="a" d="M295.722,471.717l-1.814,11.5h-2.272l1.814-11.5Z" transform="translate(-16.335 -10.686)"/><path class="a" d="M300.226,481.258c1.509,0,2.073-2.912,2.226-3.827.152-1.022.488-3.827-1.023-3.827s-2.058,2.805-2.21,3.827c-.152.915-.5,3.827,1.006,3.827m4.65-3.827c-.686,4.314-2.958,5.931-4.986,5.931s-3.78-1.617-3.095-5.931,2.942-5.93,4.97-5.93,3.8,1.616,3.11,5.93" transform="translate(-17.104 -10.653)"/><path class="a" d="M310.7,471.717l1.738,6.937.046-.03a6.763,6.763,0,0,1,.091-1.738l.808-5.169h2.272l-1.815,11.5H311.7l-1.708-6.937-.03.03-.076,1.158-.061.473-.838,5.275H306.71l1.814-11.5Z" transform="translate(-18.649 -10.686)"/><path class="a" d="M321.357,476.412l.015-1.738h-.031l-.518,1.738-.976,3.065h1.6Zm1.738-4.7.946,11.5h-2.424l-.122-1.937h-2.3l-.717,1.937h-2.256l4.482-11.5Z" transform="translate(-20.109 -10.686)"/><path class="a" d="M330.624,471.717l-1.479,9.361h2.379l-.336,2.135h-4.65l1.814-11.5Z" transform="translate(-21.693 -10.686)"/><path class="a" d="M339.643,471.717l-.335,2.135h-2.3l-.4,2.5h2.027l-.335,2.135h-2.028l-.411,2.592H338.2l-.336,2.135h-4.6l1.814-11.5Z" transform="translate(-22.725 -10.686)"/><path class="a" d="M311.774,424.658a8.879,8.879,0,0,1-6.08,1.776h-3.284l3.416-15.03h1.986c2.6,0,5.124.478,6.491,3.006a7.32,7.32,0,0,1,.751,3.211,9.433,9.433,0,0,1-3.279,7.038m12.5-16.738a12.413,12.413,0,0,0-3.142-2.732c-3.348-2.118-6.217-2.391-9.906-2.391H295.715l-10.863,48.232h11.956l3.621-15.918h5.265a31.219,31.219,0,0,0,9.087-1.025,17.763,17.763,0,0,0,5.875-3.074,17.248,17.248,0,0,0,6.49-13.8c0-4.919-1.64-7.788-2.87-9.291" transform="translate(-15.293 -0.105)"/><path class="a" d="M273.972,439.681a22.961,22.961,0,0,1-9.856-.581c-4.882-1.52-8.339-6.084-7.4-12.31a15.856,15.856,0,0,1,10.76-12.717,19.587,19.587,0,0,1,12.577.265l2.456-10.233a25.551,25.551,0,0,0-9.839-1.99,29.726,29.726,0,0,0-18.985,7.545,29.183,29.183,0,0,0-9.524,17.068c-1.114,6.927.247,12.987,4.638,17.626a22.287,22.287,0,0,0,16.45,6.864,25.22,25.22,0,0,0,6.142-.8Z" transform="translate(-8.99 0)"/><path class="a" d="M233.022,402.8h-12l-10.853,48.187h22.961l2.263-9.808H224.365Z" transform="translate(-3.827 -0.105)"/></g></svg>