<svg width="270" height="70" viewBox="0 0 270 70" fill="none" xmlns="http://www.w3.org/2000/svg">
<path fill-rule="evenodd" clip-rule="evenodd" d="M62.4847 51.7651L77.9464 52.8039V47.9557H24.3472V52.1177L24.9362 52.079L33.771 51.2428L38.9776 51.8697L45.6036 51.2428L54.5966 52.8039L62.4847 51.7651Z" fill="#074161"/>
<path fill-rule="evenodd" clip-rule="evenodd" d="M77.9461 37.9195V32.6371H18.7712V37.9195H24.3469V45.4905H28.1242V37.9195H44.5818V45.4905H48.3583V37.9195H64.8159V45.4905H68.5932V37.9195H77.9461Z" fill="#074161"/>
<path fill-rule="evenodd" clip-rule="evenodd" d="M38.978 60.8862L33.7705 60.2593L24.9366 61.0955L16.2592 61.6689L10.4216 61.0955L0.245605 62.2447V68.8584H77.946V61.8213L62.4851 60.7816L54.5961 61.8213L45.6032 60.2593L38.978 60.8862Z" fill="#074161"/>
<path fill-rule="evenodd" clip-rule="evenodd" d="M31.7217 45.491H40.9848V40.2086H31.7217V45.491Z" fill="#074161"/>
<path fill-rule="evenodd" clip-rule="evenodd" d="M51.9556 45.491H61.2187V40.2086H51.9556V45.491Z" fill="#074161"/>
<path fill-rule="evenodd" clip-rule="evenodd" d="M72.1907 45.491H77.946V40.2086H72.1907V45.491Z" fill="#074161"/>
<path fill-rule="evenodd" clip-rule="evenodd" d="M72.5675 13.6072C72.486 13.6154 72.4028 13.6212 72.3204 13.6294C66.1491 15.7417 60.4185 18.7718 55.3009 22.5548H68.1156C69.3628 19.4448 70.8564 16.456 72.5675 13.6072ZM51.6406 22.5548C55.3231 19.5692 59.35 16.975 63.6521 14.8355C54.3461 16.4757 45.9199 19.1293 38.8564 22.5548H51.6406ZM48.7795 25.0197H34.2347C31.512 26.6163 29.0495 28.3389 26.8911 30.1719H43.7277C45.312 28.3628 46.9992 26.6435 48.7795 25.0197ZM46.7561 30.1719H65.6202C66.07 28.4246 66.5948 26.7061 67.1896 25.0197H52.1778C50.2665 26.6294 48.4557 28.3504 46.7561 30.1719ZM75.3768 13.3575C73.5207 16.269 71.9077 19.3435 70.5656 22.5548H77.9463V13.1804C77.0838 13.2307 76.2286 13.2908 75.3768 13.3575ZM69.5968 25.0197C68.9781 26.7044 68.4327 28.4229 67.964 30.1719H77.9463V25.0197H69.5968Z" fill="#074161"/>
<path fill-rule="evenodd" clip-rule="evenodd" d="M2.80055 42.0712H4.78762L2.80055 46.7876H4.78762L2.80055 51.5049H4.78762L3.27837 55.0869L0.24585 55.4288V60.0126L10.4218 58.8633L16.2586 59.4392L24.936 58.8633L33.7708 58.028L38.9774 58.6549L45.6035 58.028L54.5964 59.5891L62.4846 58.5503L77.9462 59.5891V55.0054L62.4846 53.9665L54.5964 55.0054L45.6035 53.4434L38.9774 54.0711L33.7708 53.4434L24.936 54.2787L19.8069 54.6198L18.4945 51.5049H20.4816L18.4945 46.7876H20.4816L16.5074 37.3531L12.5325 46.7876H14.5187L12.5325 51.5049H14.5187L13.2344 54.5555L10.4218 54.2787L9.95304 54.3315L8.76178 51.5049H10.7489L8.76178 46.7876H10.7489L8.76178 42.0712H10.7489L6.7747 32.6367L2.80055 42.0712Z" fill="#1B9490"/>
<mask id="mask0_124_416" style="mask-type:luminance" maskUnits="userSpaceOnUse" x="0" y="0" width="31" height="31">
<path fill-rule="evenodd" clip-rule="evenodd" d="M0 0.5H30.0598V30.5591H0V0.5Z" fill="white"/>
</mask>
<g mask="url(#mask0_124_416)">
<path fill-rule="evenodd" clip-rule="evenodd" d="M30.0598 15.5365C30.0615 23.8283 23.3069 30.6505 14.8544 30.5582C6.56668 30.4676 -0.117879 23.6627 0.00157646 15.3009C0.11856 7.16637 6.75698 0.448031 15.1329 0.499933C23.4255 0.551834 30.0656 7.29241 30.0598 15.5365ZM15.726 26.7842C20.0602 26.7809 23.5458 23.3044 23.6274 19.0361C23.7114 14.6261 20.1755 10.9799 15.7301 10.9774C11.321 10.9749 7.85515 14.5429 7.82137 18.8153C7.78759 23.1932 11.3292 26.7834 15.726 26.7842ZM9.47645 26.9894C6.91516 24.8334 5.36059 22.1312 4.97257 18.8096C4.58454 15.4928 5.40096 12.4743 7.4317 9.82239C9.40807 7.24216 12.0237 5.65381 15.235 5.1348C18.8936 4.54329 22.184 5.45692 25.0938 7.73646C22.6544 4.45349 17.8424 1.90703 12.3426 3.07358C6.85584 4.23683 2.51179 9.04634 2.29512 15.0817C2.10399 20.3839 5.2156 24.9677 9.47645 26.9894ZM24.5987 23.9371C24.6184 23.9165 24.6382 23.8975 24.6563 23.8761C25.3269 23.1009 25.897 22.2573 26.3699 21.3478C26.8848 20.3551 27.2563 19.3236 27.3264 18.1933C27.3947 17.0861 27.342 15.9896 27.0595 14.9153C26.262 11.8861 24.4603 9.65598 21.6568 8.26288C19.6985 7.28912 17.6208 7.03126 15.4715 7.41022C13.6014 7.73893 11.9578 8.55452 10.54 9.81663C10.2706 10.0564 10.021 10.3175 9.76231 10.568C9.76891 10.577 9.77467 10.5853 9.78044 10.5935C11.8433 9.15344 14.127 8.51003 16.6339 8.73411C19.1449 8.95737 21.2869 9.98881 23.0441 11.793C24.5122 13.299 25.4274 15.1007 25.7718 17.1759C26.1672 19.5617 25.7619 21.8149 24.5987 23.9371Z" fill="#1B9490"/>
</g>
<path fill-rule="evenodd" clip-rule="evenodd" d="M108.366 67.8794C108.132 67.8704 107.843 67.8209 107.497 67.732C107.151 67.6438 106.871 67.5334 106.656 67.4024C106.338 67.1882 106.09 66.9683 105.913 66.7442C105.735 66.5193 105.576 66.2252 105.436 65.861L98.8046 48.7007H97.6833C96.7392 51.131 95.6641 53.9023 94.4589 57.0147C93.2528 60.1264 92.1505 62.9307 91.1504 65.4261C90.9543 65.9121 90.7533 66.2927 90.5473 66.5687C90.3414 66.8447 90.0522 67.1083 89.6782 67.3604C89.4442 67.5103 89.1452 67.6298 88.781 67.7179C88.4161 67.8069 88.1129 67.8605 87.8699 67.8794V68.8746H95.3618V67.8794C94.6236 67.8423 93.9596 67.7204 93.3706 67.5153C92.7815 67.3093 92.4874 67.0193 92.4874 66.6461C92.4874 66.4871 92.5105 66.2812 92.5575 66.0291C92.6044 65.7762 92.6885 65.4491 92.8104 65.0479C92.9414 64.636 93.0888 64.1878 93.2528 63.7018C93.4167 63.2157 93.6293 62.6456 93.8912 61.9915H100.875L102.523 66.4492C102.56 66.5432 102.588 66.6503 102.607 66.7722C102.625 66.8933 102.635 66.9963 102.635 67.0803C102.635 67.2863 102.393 67.4593 101.912 67.5993C101.431 67.7394 100.826 67.8325 100.097 67.8794V68.8746H108.366V67.8794ZM94.379 60.7434L97.3489 53.0241L100.362 60.7434H94.379ZM120.325 58.669C119.806 58.3601 119.267 58.0849 118.706 57.8419C118.09 57.5708 117.451 57.3163 116.792 57.0774C116.134 56.8393 115.463 56.5567 114.78 56.2296C114.014 55.8647 113.43 55.4 113.028 54.8341C112.626 54.2689 112.426 53.5563 112.426 52.6962C112.426 51.874 112.739 51.1779 113.365 50.6078C113.991 50.0377 114.748 49.7527 115.636 49.7527C116.477 49.7527 117.188 49.9133 117.767 50.2363C118.346 50.5584 118.837 50.9909 119.239 51.533C119.65 52.094 119.984 52.7201 120.241 53.4113C120.498 54.1033 120.729 54.8275 120.935 55.5846H122.07L121.958 48.9816H120.837L120.262 49.9348C119.664 49.5607 119.002 49.2337 118.278 48.9536C117.554 48.6726 116.734 48.5326 115.818 48.5326C115.014 48.5326 114.243 48.671 113.505 48.9462C112.767 49.2221 112.126 49.6027 111.585 50.0888C111.014 50.6021 110.575 51.1861 110.267 51.8403C109.958 52.4944 109.804 53.1996 109.804 53.9567C109.804 55.274 110.114 56.3417 110.736 57.1589C111.357 57.977 112.229 58.6377 113.351 59.1427C113.921 59.403 114.598 59.6798 115.383 59.9731C116.168 60.2664 116.865 60.5341 117.473 60.7755C118.36 61.1314 119.029 61.6537 119.477 62.3408C119.926 63.0287 120.15 63.771 120.15 64.566C120.15 65.1089 120.078 65.5883 119.933 66.0052C119.788 66.4212 119.566 66.7845 119.267 67.0927C118.968 67.4016 118.577 67.6405 118.096 67.8094C117.615 67.9775 117.052 68.0615 116.407 68.0615C115.547 68.0615 114.793 67.8984 114.143 67.5713C113.493 67.2442 112.925 66.8051 112.44 66.2532C111.926 65.6641 111.512 65.0314 111.199 64.3534C110.885 63.6762 110.613 62.9167 110.379 62.0755H109.243L109.439 68.8886H110.561L111.164 67.8654C111.809 68.2576 112.575 68.592 113.463 68.868C114.351 69.1432 115.238 69.2816 116.126 69.2816C118.052 69.2816 119.664 68.7115 120.963 67.5713C122.262 66.4311 122.911 64.982 122.911 63.2248C122.911 62.4866 122.811 61.8399 122.611 61.283C122.41 60.7277 122.098 60.2153 121.678 59.7482C121.295 59.3371 120.844 58.9771 120.325 58.669ZM136.038 58.669C135.519 58.3601 134.979 58.0849 134.418 57.8419C133.801 57.5708 133.163 57.3163 132.504 57.0774C131.846 56.8393 131.174 56.5567 130.492 56.2296C129.726 55.8647 129.142 55.4 128.74 54.8341C128.338 54.2689 128.137 53.5563 128.137 52.6962C128.137 51.874 128.45 51.1779 129.077 50.6078C129.703 50.0377 130.459 49.7527 131.348 49.7527C132.189 49.7527 132.899 49.9133 133.479 50.2363C134.058 50.5584 134.549 50.9909 134.951 51.533C135.362 52.094 135.696 52.7201 135.954 53.4113C136.21 54.1033 136.441 54.8275 136.647 55.5846H137.782L137.67 48.9816H136.549L135.974 49.9348C135.376 49.5607 134.714 49.2337 133.99 48.9536C133.266 48.6726 132.446 48.5326 131.53 48.5326C130.726 48.5326 129.955 48.671 129.217 48.9462C128.478 49.2221 127.838 49.6027 127.296 50.0888C126.726 50.6021 126.287 51.1861 125.979 51.8403C125.67 52.4944 125.516 53.1996 125.516 53.9567C125.516 55.274 125.826 56.3417 126.448 57.1589C127.069 57.977 127.941 58.6377 129.063 59.1427C129.632 59.403 130.31 59.6798 131.095 59.9731C131.881 60.2664 132.577 60.5341 133.185 60.7755C134.072 61.1314 134.741 61.6537 135.189 62.3408C135.638 63.0287 135.862 63.771 135.862 64.566C135.862 65.1089 135.79 65.5883 135.645 66.0052C135.5 66.4212 135.278 66.7845 134.979 67.0927C134.68 67.4016 134.289 67.6405 133.808 67.8094C133.326 67.9775 132.764 68.0615 132.119 68.0615C131.259 68.0615 130.504 67.8984 129.855 67.5713C129.205 67.2442 128.637 66.8051 128.151 66.2532C127.637 65.6641 127.223 65.0314 126.91 64.3534C126.597 63.6762 126.324 62.9167 126.091 62.0755H124.955L125.151 68.8886H126.273L126.876 67.8654C127.521 68.2576 128.287 68.592 129.175 68.868C130.062 69.1432 130.95 69.2816 131.839 69.2816C133.764 69.2816 135.376 68.7115 136.675 67.5713C137.974 66.4311 138.624 64.982 138.624 63.2248C138.624 62.4866 138.523 61.8399 138.322 61.283C138.121 60.7277 137.81 60.2153 137.39 59.7482C137.007 59.3371 136.556 58.9771 136.038 58.669ZM155.79 63.0147C155.659 63.4447 155.357 64.1153 154.886 65.0265C154.414 65.9377 153.962 66.6173 153.532 67.0663C153.373 67.2344 153.105 67.3678 152.727 67.4659C152.348 67.5639 151.981 67.6323 151.626 67.6693C151.28 67.7064 150.855 67.7254 150.35 67.7254H149.131C148.355 67.7254 147.757 67.6998 147.336 67.6479C146.915 67.5968 146.583 67.4823 146.341 67.3052C146.097 67.1281 145.934 66.8669 145.85 66.5217C145.766 66.1766 145.724 65.7053 145.724 65.1081V59.1452H147.967C148.575 59.1452 149.063 59.2012 149.432 59.3132C149.801 59.4261 150.131 59.6642 150.421 60.0283C150.598 60.2532 150.768 60.6149 150.932 61.1149C151.096 61.615 151.196 62.0895 151.234 62.5377H152.285V54.7434H151.234C151.187 55.1455 151.091 55.573 150.946 56.0262C150.801 56.4793 150.626 56.8417 150.421 57.1128C150.168 57.4308 149.876 57.6573 149.544 57.7924C149.212 57.9284 148.687 57.9959 147.967 57.9959H145.724V50.0888H148.851C149.364 50.0888 149.822 50.0987 150.224 50.1168C150.626 50.1358 150.972 50.1638 151.262 50.2008C151.822 50.2758 152.414 50.7124 153.035 51.5116C153.657 52.3107 154.06 53.0661 154.248 53.7763H155.3V48.9816H139.906V49.9768C140.158 49.9957 140.497 50.0517 140.922 50.1448C141.347 50.2387 141.687 50.3458 141.939 50.4678C142.266 50.6169 142.481 50.8113 142.584 51.0494C142.687 51.2875 142.738 51.561 142.738 51.8691V66.1691C142.738 66.5152 142.679 66.8002 142.562 67.0243C142.445 67.2484 142.238 67.4304 141.939 67.5713C141.799 67.6364 141.495 67.6998 141.028 67.76C140.56 67.8209 140.186 67.8605 139.906 67.8794V68.8746H156.421L156.799 63.0147H155.79ZM182.585 67.8794C182.333 67.8704 181.991 67.8259 181.562 67.746C181.132 67.6669 180.832 67.5804 180.664 67.4873C180.346 67.3184 180.131 67.1223 180.019 66.8982C179.907 66.6742 179.85 66.3982 179.85 66.0711V51.7291C179.85 51.4209 179.907 51.1359 180.019 50.8739C180.131 50.6128 180.346 50.4258 180.664 50.3129C180.851 50.2478 181.148 50.1778 181.554 50.1028C181.961 50.0278 182.295 49.9858 182.557 49.9768V48.9816H176.069C176.06 49.1496 175.993 49.4841 175.866 49.9842C175.74 50.4851 175.588 50.9637 175.411 51.4226L170.546 63.9135L164.848 48.9816H158.065V49.9768C158.476 49.9957 158.892 50.0657 159.312 50.1868C159.733 50.3088 160.088 50.4958 160.378 50.7479C160.64 50.9818 160.841 51.285 160.981 51.659C161.121 52.033 161.192 52.5142 161.192 53.1032V63.2808C161.192 64.552 161.131 65.459 161.009 66.0011C160.888 66.5432 160.663 66.9452 160.336 67.2063C160.084 67.4123 159.726 67.5664 159.264 67.6693C158.801 67.7723 158.359 67.8423 157.939 67.8794V68.8746H165.971V67.8794C165.775 67.8704 165.355 67.7764 164.71 67.5993C164.065 67.4214 163.64 67.2344 163.434 67.0383C163.135 66.7763 162.913 66.3471 162.768 65.7482C162.623 65.1501 162.551 64.2768 162.551 63.1267V51.2529H162.733L169.196 68.5525H169.897L176.683 51.603H176.893V66.0711C176.893 66.4171 176.825 66.7038 176.689 66.9328C176.554 67.1619 176.341 67.3653 176.052 67.5433C175.865 67.6463 175.521 67.7254 175.021 67.7814C174.521 67.8374 174.113 67.8704 173.795 67.8794V68.8746H182.585V67.8794ZM196.748 58.6896C196.042 58.4705 195.404 58.3279 194.834 58.262V58.136C195.479 57.9959 196.08 57.7974 196.636 57.5403C197.192 57.2833 197.685 56.9678 198.115 56.5938C198.573 56.2016 198.928 55.732 199.18 55.185C199.433 54.638 199.559 54.0144 199.559 53.3133C199.559 52.51 199.381 51.8271 199.026 51.2669C198.671 50.7059 198.218 50.2618 197.667 49.9348C197.078 49.5797 196.458 49.3317 195.809 49.1917C195.159 49.0516 194.479 48.9816 193.769 48.9816H184.586V49.9768C184.82 49.9957 185.11 50.0427 185.456 50.1168C185.801 50.1918 186.114 50.2989 186.395 50.4398C186.712 50.5889 186.925 50.7849 187.033 51.028C187.14 51.271 187.194 51.5519 187.194 51.8691V66.1691C187.194 66.5152 187.133 66.7977 187.011 67.0169C186.89 67.2368 186.684 67.4123 186.395 67.5433C186.208 67.6273 185.899 67.6998 185.47 67.76C185.04 67.8209 184.713 67.8605 184.488 67.8794V68.8746H193.909C194.75 68.8746 195.566 68.7626 196.355 68.5385C197.145 68.3144 197.853 67.9873 198.48 67.5573C199.124 67.1182 199.648 66.5572 200.049 65.875C200.451 65.1929 200.652 64.3888 200.652 63.4637C200.652 62.5567 200.461 61.7855 200.077 61.1504C199.694 60.5144 199.213 60.0003 198.634 59.6082C198.082 59.2152 197.453 58.9096 196.748 58.6896ZM193.922 57.4909C193.376 57.687 192.72 57.7859 191.956 57.7859H190.18V50.1308C190.488 50.1218 190.868 50.1102 191.32 50.0962C191.772 50.0822 192.148 50.0748 192.446 50.0748C193.733 50.0748 194.674 50.3862 195.271 51.009C195.867 51.6318 196.166 52.4903 196.166 53.586C196.166 54.2417 196.099 54.8077 195.963 55.2855C195.828 55.7633 195.588 56.2033 195.243 56.6053C194.908 56.9991 194.467 57.294 193.922 57.4909ZM196.082 66.5473C195.343 67.3604 194.278 67.7674 192.886 67.7674C192.035 67.7674 191.372 67.6183 190.895 67.3184C190.419 67.0193 190.18 66.5753 190.18 65.9871V58.9771C190.386 58.968 190.694 58.9565 191.105 58.9425C191.517 58.9285 192.021 58.9211 192.619 58.9211C194.086 58.9211 195.215 59.2992 196.005 60.0563C196.795 60.8134 197.19 61.7814 197.19 62.9587C197.19 64.538 196.821 65.7342 196.082 66.5473ZM216.802 62.9587C216.606 63.5008 216.252 64.2084 215.743 65.0825C215.234 65.9566 214.787 66.6082 214.404 67.0383C214.273 67.1882 214.07 67.3118 213.795 67.4098C213.519 67.5079 213.217 67.5853 212.89 67.6413C212.554 67.6974 212.198 67.7344 211.825 67.7534C211.451 67.7723 211.091 67.7814 210.746 67.7814C209.979 67.7814 209.383 67.7558 208.958 67.7039C208.533 67.6529 208.212 67.5433 207.997 67.3744C207.773 67.1882 207.631 66.9238 207.57 66.5827C207.509 66.2416 207.479 65.7622 207.479 65.146V51.7851C207.479 51.477 207.537 51.187 207.654 50.9159C207.771 50.6449 207.988 50.4538 208.306 50.3409C208.493 50.2758 208.794 50.2008 209.21 50.1168C209.626 50.0328 209.965 49.9858 210.227 49.9768V48.9816H201.829V49.9768C202.082 49.9957 202.401 50.0583 202.789 50.1662C203.177 50.2733 203.479 50.3837 203.694 50.4958C204.011 50.6449 204.224 50.841 204.331 51.084C204.439 51.3278 204.493 51.608 204.493 51.9251V66.1691C204.493 66.5333 204.429 66.8332 204.303 67.0663C204.177 67.3003 203.974 67.4774 203.694 67.5993C203.526 67.6743 203.228 67.7344 202.803 67.7814C202.378 67.8283 202.054 67.8605 201.829 67.8794V68.8746H217.377L217.797 62.9587H216.802ZM234.55 48.9816H227.634V49.9768C227.905 50.0048 228.199 50.0303 228.517 50.0542C228.835 50.0773 229.13 50.1259 229.401 50.2008C229.663 50.275 229.873 50.378 230.032 50.5081C230.191 50.6391 230.27 50.8113 230.27 51.0263C230.27 51.2875 229.885 52.0792 229.114 53.4006C228.344 54.7229 227.225 56.5658 225.759 58.9293C225.022 57.6021 224.425 56.5254 223.968 55.6983C223.512 54.8711 223.064 54.0424 222.625 53.2103C222.476 52.9211 222.318 52.6196 222.15 52.3066C221.982 51.9935 221.838 51.7159 221.717 51.4728C221.614 51.2578 221.535 51.0807 221.479 50.9406C221.423 50.8014 221.395 50.7034 221.395 50.6474C221.395 50.4422 221.591 50.2841 221.983 50.172C222.376 50.0608 223.049 49.9957 224.002 49.9768V48.9816H215.512V49.9768C215.765 49.9957 216.048 50.0427 216.361 50.1168C216.674 50.1918 216.943 50.2989 217.167 50.4398C217.475 50.6449 217.748 50.8838 217.987 51.154C218.225 51.4259 218.499 51.8271 218.807 52.3601C219.312 53.2573 219.905 54.3365 220.587 55.5986C221.269 56.8599 221.891 58.033 222.452 59.1172C222.704 59.6032 222.922 60.0448 223.104 60.4419C223.286 60.8398 223.378 61.1133 223.378 61.2624V66.0991C223.378 66.4542 223.314 66.7532 223.188 66.9963C223.062 67.2393 222.831 67.4304 222.494 67.5713C222.288 67.6553 221.923 67.7229 221.4 67.774C220.877 67.8259 220.484 67.8605 220.223 67.8794V68.8746H229.532V67.8794C229.223 67.8704 228.816 67.8119 228.312 67.7039C227.807 67.5968 227.457 67.5054 227.26 67.4304C226.933 67.2813 226.702 67.0828 226.567 66.8348C226.431 66.5877 226.363 66.2952 226.363 65.9591V62.1596C226.363 61.4684 226.419 60.9395 226.532 60.5753C226.644 60.2112 226.873 59.7293 227.218 59.1312C228.144 57.5049 228.915 56.1637 229.532 55.1076C230.149 54.0514 230.822 53.0101 231.551 51.9811C231.924 51.4679 232.177 51.1499 232.308 51.028C232.438 50.9069 232.686 50.7339 233.051 50.5098C233.2 50.3977 233.448 50.2832 233.794 50.1662C234.139 50.0493 234.391 49.9858 234.55 49.9768V48.9816Z" fill="#074161"/>
<path fill-rule="evenodd" clip-rule="evenodd" d="M102.842 39.4173C102.646 39.9594 102.293 40.667 101.784 41.5411C101.275 42.4152 100.828 43.0669 100.445 43.4969C100.314 43.6468 100.111 43.7704 99.8354 43.8685C99.5594 43.9665 99.2579 44.0439 98.9309 44.0999C98.5947 44.156 98.2388 44.193 97.8656 44.212C97.4916 44.2309 97.1316 44.24 96.7864 44.24C96.0194 44.24 95.4238 44.2145 94.9987 44.1626C94.5728 44.1115 94.2532 44.0019 94.0381 43.833C93.8141 43.6468 93.6715 43.3824 93.6106 43.0413C93.5496 42.7003 93.5199 42.2208 93.5199 41.6046V28.2437C93.5199 27.9356 93.5776 27.6456 93.6946 27.3746C93.8116 27.1035 94.0291 26.9124 94.3471 26.7995C94.5333 26.7344 94.8348 26.6595 95.2508 26.5754C95.6668 26.4914 96.0054 26.4444 96.2674 26.4354V25.4402H87.8701V26.4354C88.1222 26.4543 88.4419 26.5169 88.8299 26.6249C89.2179 26.732 89.5194 26.8424 89.7344 26.9544C90.0516 27.1035 90.265 27.3004 90.3721 27.5426C90.4792 27.7865 90.5336 28.0666 90.5336 28.3837V42.6278C90.5336 42.9919 90.4701 43.2918 90.3441 43.5249C90.218 43.7589 90.0145 43.936 89.7344 44.0579C89.5664 44.1329 89.269 44.193 88.8439 44.24C88.4188 44.287 88.0942 44.3191 87.8701 44.338V45.3332H103.417L103.838 39.4173H102.842ZM120.776 39.4733C120.645 39.9034 120.343 40.574 119.871 41.4851C119.399 42.3963 118.948 43.0759 118.518 43.5249C118.359 43.693 118.091 43.8264 117.713 43.9245C117.334 44.0225 116.967 44.0909 116.612 44.128C116.266 44.165 115.841 44.184 115.336 44.184H114.117C113.34 44.184 112.742 44.1584 112.322 44.1074C111.901 44.0555 111.569 43.9418 111.326 43.7638C111.083 43.5867 110.92 43.3255 110.836 42.9804C110.752 42.6352 110.71 42.1639 110.71 41.5667V35.6038H112.952C113.56 35.6038 114.048 35.6598 114.418 35.7727C114.787 35.8847 115.117 36.1228 115.406 36.4869C115.584 36.7118 115.754 37.0735 115.917 37.5736C116.081 38.0736 116.182 38.5482 116.219 38.9963H117.271V31.2021H116.219C116.172 31.6041 116.076 32.0317 115.931 32.4848C115.786 32.9379 115.612 33.3004 115.406 33.5714C115.154 33.8894 114.861 34.116 114.53 34.2511C114.198 34.387 113.672 34.4545 112.952 34.4545H110.71V26.5474H113.836C114.35 26.5474 114.808 26.5573 115.21 26.5754C115.612 26.5944 115.958 26.6224 116.247 26.6595C116.808 26.7344 117.399 27.1711 118.021 27.9702C118.642 28.7693 119.046 29.5247 119.233 30.2349H120.285V25.4402H104.891V26.4354C105.144 26.4543 105.483 26.5104 105.908 26.6034C106.333 26.6974 106.672 26.8045 106.924 26.9264C107.252 27.0755 107.467 27.2699 107.57 27.508C107.672 27.7461 107.724 28.0196 107.724 28.3277V42.6278C107.724 42.9738 107.665 43.2588 107.548 43.4829C107.431 43.707 107.224 43.889 106.924 44.0299C106.784 44.095 106.48 44.1584 106.013 44.2186C105.545 44.2795 105.172 44.3191 104.891 44.338V45.3332H121.407L121.785 39.4733H120.776ZM142.541 36.3749H133.821V37.3981C134.12 37.417 134.533 37.4615 135.062 37.5316C135.59 37.6016 136.008 37.707 136.316 37.8471C136.652 37.9871 136.875 38.2096 136.982 38.5127C137.089 38.8167 137.143 39.1652 137.143 39.5573V40.6506C137.143 40.9966 137.141 41.4176 137.136 41.9127C137.132 42.4086 137.091 42.8988 137.017 43.3849C136.736 43.665 136.257 43.9319 135.578 44.184C134.899 44.4361 134.149 44.5621 133.325 44.5621C132.22 44.5621 131.233 44.324 130.363 43.847C129.492 43.37 128.768 42.7151 128.188 41.883C127.607 41.0691 127.164 40.1035 126.86 38.9856C126.556 37.8677 126.405 36.6772 126.405 35.4151C126.405 33.9841 126.559 32.6883 126.868 31.5283C127.177 30.3692 127.616 29.4003 128.187 28.6243C128.767 27.8194 129.45 27.2147 130.236 26.8078C131.022 26.4008 131.915 26.1973 132.917 26.1973C133.834 26.1973 134.622 26.372 135.282 26.7229C135.941 27.073 136.5 27.5426 136.959 28.1317C137.418 28.7207 137.792 29.3863 138.082 30.1294C138.372 30.8725 138.615 31.6272 138.812 32.3933H139.961L139.835 25.4402H138.714L138.139 26.3934C137.503 26.0103 136.769 25.6832 135.937 25.4122C135.106 25.1411 134.129 25.0052 133.008 25.0052C131.606 25.0052 130.29 25.2647 129.061 25.7846C127.832 26.3036 126.774 27.0302 125.886 27.9652C124.97 28.9201 124.262 30.0446 123.762 31.3396C123.262 32.6347 123.012 34.0402 123.012 35.5552C123.012 37.1262 123.273 38.5482 123.797 39.8202C124.32 41.0921 125.026 42.1722 125.914 43.0603C126.792 43.9401 127.82 44.6181 128.998 45.0943C130.175 45.5713 131.4 45.8102 132.671 45.8102C133.858 45.8102 135.068 45.6603 136.302 45.3612C137.536 45.0622 138.774 44.6321 140.017 44.0719C139.999 43.819 139.982 43.4969 139.968 43.1048C139.954 42.7118 139.947 41.9547 139.947 40.8335V39.2913C139.947 38.9452 140.005 38.6437 140.122 38.3867C140.239 38.1297 140.438 37.9311 140.718 37.7911C140.952 37.679 141.258 37.5925 141.637 37.5316C142.015 37.4714 142.316 37.4269 142.541 37.3981V36.3749ZM151.588 44.338C151.28 44.329 150.904 44.2795 150.46 44.1906C150.016 44.1024 149.696 44.02 149.499 43.9459C149.172 43.805 148.941 43.6164 148.806 43.3775C148.67 43.1394 148.602 42.8659 148.602 42.5577V28.1597C148.602 27.8515 148.663 27.5706 148.785 27.3185C148.906 27.0664 149.144 26.8844 149.499 26.7715C149.798 26.6784 150.149 26.6018 150.551 26.5408C150.952 26.4799 151.298 26.4444 151.588 26.4354V25.4402H142.63V26.4354C142.901 26.4543 143.249 26.5128 143.675 26.6109C144.1 26.7089 144.452 26.8143 144.733 26.9264C145.116 27.0755 145.359 27.26 145.462 27.48C145.565 27.7 145.616 27.9727 145.616 28.2997V42.7118C145.616 43.0858 145.546 43.3774 145.406 43.5884C145.266 43.7984 145.041 43.964 144.733 44.0859C144.536 44.1609 144.2 44.2169 143.723 44.254C143.247 44.2911 142.882 44.3191 142.63 44.338V45.3332H151.588V44.338ZM164.401 35.1276C163.882 34.8187 163.342 34.5435 162.782 34.3005C162.165 34.0295 161.527 33.7749 160.868 33.536C160.209 33.2979 159.538 33.0153 158.856 32.6883C158.09 32.3233 157.505 31.8587 157.104 31.2935C156.702 30.7275 156.501 30.0149 156.501 29.1548C156.501 28.3327 156.814 27.6365 157.44 27.0664C158.066 26.4963 158.823 26.2113 159.711 26.2113C160.553 26.2113 161.263 26.372 161.843 26.6949C162.422 27.017 162.912 27.4495 163.314 27.9916C163.726 28.5526 164.06 29.1787 164.317 29.8699C164.574 30.5619 164.805 31.2861 165.011 32.0432H166.146L166.034 25.4402H164.912L164.338 26.3934C163.739 26.0194 163.078 25.6923 162.354 25.4122C161.629 25.1313 160.81 24.9912 159.893 24.9912C159.089 24.9912 158.318 25.1296 157.58 25.4048C156.842 25.6808 156.202 26.0614 155.66 26.5474C155.09 27.0607 154.651 27.6448 154.342 28.2989C154.034 28.953 153.88 29.6582 153.88 30.4153C153.88 31.7326 154.19 32.8003 154.811 33.6175C155.433 34.4356 156.305 35.0963 157.426 35.6013C157.996 35.8616 158.674 36.1385 159.459 36.4317C160.244 36.725 160.941 36.9928 161.548 37.2341C162.436 37.59 163.104 38.1124 163.553 38.7994C164.001 39.4873 164.226 40.2296 164.226 41.0246C164.226 41.5675 164.153 42.047 164.008 42.4638C163.863 42.8807 163.641 43.2432 163.342 43.5513C163.043 43.8602 162.653 44.0991 162.172 44.268C161.69 44.4361 161.128 44.5201 160.482 44.5201C159.622 44.5201 158.868 44.357 158.219 44.0299C157.569 43.7029 157.001 43.2638 156.515 42.7118C156.001 42.1228 155.587 41.4901 155.274 40.812C154.961 40.1349 154.688 39.3753 154.454 38.5342H153.318L153.515 45.3472H154.637L155.24 44.324C155.884 44.7162 156.65 45.0506 157.538 45.3266C158.426 45.6018 159.314 45.7402 160.202 45.7402C162.128 45.7402 163.739 45.1701 165.039 44.0299C166.337 42.8897 166.987 41.4406 166.987 39.6834C166.987 38.9452 166.887 38.2985 166.686 37.7416C166.485 37.1864 166.174 36.6739 165.753 36.2068C165.37 35.7957 164.92 35.4357 164.401 35.1276ZM183.322 39.4173C183.125 39.9594 182.772 40.667 182.263 41.5411C181.754 42.4152 181.307 43.0669 180.924 43.4969C180.793 43.6468 180.59 43.7704 180.315 43.8685C180.039 43.9665 179.737 44.0439 179.41 44.0999C179.074 44.156 178.718 44.193 178.345 44.212C177.971 44.2309 177.611 44.24 177.265 44.24C176.499 44.24 175.903 44.2145 175.478 44.1626C175.052 44.1115 174.732 44.0019 174.517 43.833C174.293 43.6468 174.151 43.3824 174.09 43.0413C174.029 42.7003 173.998 42.2208 173.998 41.6046V28.2437C173.998 27.9356 174.057 27.6456 174.174 27.3746C174.291 27.1035 174.508 26.9124 174.825 26.7995C175.012 26.7344 175.314 26.6595 175.73 26.5754C176.146 26.4914 176.485 26.4444 176.747 26.4354V25.4402H168.348V26.4354C168.601 26.4543 168.921 26.5169 169.309 26.6249C169.697 26.732 169.999 26.8424 170.214 26.9544C170.531 27.1035 170.743 27.3004 170.851 27.5426C170.958 27.7865 171.013 28.0666 171.013 28.3837V42.6278C171.013 42.9919 170.949 43.2918 170.823 43.5249C170.697 43.7589 170.494 43.936 170.214 44.0579C170.045 44.1329 169.748 44.193 169.323 44.24C168.898 44.287 168.573 44.3191 168.348 44.338V45.3332H183.896L184.317 39.4173H183.322ZM205.016 44.338C204.783 44.329 204.493 44.2795 204.147 44.1906C203.801 44.1024 203.521 43.992 203.306 43.861C202.988 43.6468 202.741 43.4269 202.563 43.2028C202.386 42.9779 202.227 42.6838 202.087 42.3197L195.456 25.1593H194.334C193.39 27.5896 192.315 30.3609 191.109 33.4734C189.904 36.585 188.801 39.3893 187.801 41.8847C187.605 42.3707 187.404 42.7513 187.198 43.0273C186.993 43.3033 186.703 43.5669 186.329 43.819C186.095 43.969 185.796 44.0884 185.431 44.1766C185.067 44.2655 184.763 44.3191 184.52 44.338V45.3332H192.012V44.338C191.274 44.301 190.61 44.179 190.022 43.9739C189.433 43.7679 189.139 43.478 189.139 43.1048C189.139 42.9458 189.162 42.7398 189.209 42.4877C189.255 42.2348 189.34 41.9077 189.461 41.5065C189.592 41.0946 189.739 40.6465 189.903 40.1604C190.067 39.6743 190.28 39.1042 190.542 38.4501H197.525L199.173 42.9079C199.21 43.0018 199.238 43.1089 199.257 43.2308C199.276 43.3519 199.285 43.4549 199.285 43.5389C199.285 43.7449 199.044 43.9179 198.563 44.0579C198.081 44.198 197.477 44.2911 196.747 44.338V45.3332H205.016V44.338ZM191.029 37.202L194 29.4827L197.013 37.202H191.029ZM220.718 25.4402H203.377V30.8371H204.358C204.442 30.529 204.591 30.1393 204.806 29.6673C205.021 29.1952 205.269 28.7487 205.549 28.3277C205.829 27.9076 206.136 27.5311 206.468 27.1991C206.799 26.8679 207.12 26.6834 207.428 26.6455C207.821 26.5993 208.232 26.5688 208.662 26.5548C209.092 26.5408 209.452 26.5334 209.741 26.5334H210.554V42.5717C210.554 42.9548 210.482 43.2613 210.337 43.4903C210.192 43.7193 209.966 43.894 209.657 44.0159C209.452 44.0999 209.08 44.17 208.542 44.226C208.005 44.282 207.606 44.3191 207.344 44.338V45.3332H216.737V44.338C216.438 44.329 216.019 44.268 215.482 44.156C214.944 44.0439 214.592 43.955 214.424 43.889C214.097 43.749 213.868 43.5505 213.737 43.2934C213.606 43.0364 213.54 42.7538 213.54 42.4457V26.5334H214.355C214.73 26.5334 215.138 26.5433 215.578 26.5614C216.019 26.5804 216.383 26.6084 216.673 26.6455C216.983 26.6924 217.304 26.877 217.637 27.1991C217.969 27.522 218.276 27.8985 218.557 28.3277C218.829 28.7396 219.074 29.1763 219.294 29.6384C219.514 30.1014 219.666 30.501 219.751 30.8371H220.718V25.4402ZM230.96 44.338C230.651 44.329 230.275 44.2795 229.832 44.1906C229.388 44.1024 229.067 44.02 228.871 43.9459C228.544 43.805 228.313 43.6164 228.177 43.3775C228.042 43.1394 227.974 42.8659 227.974 42.5577V28.1597C227.974 27.8515 228.035 27.5706 228.156 27.3185C228.277 27.0664 228.516 26.8844 228.871 26.7715C229.17 26.6784 229.52 26.6018 229.922 26.5408C230.324 26.4799 230.67 26.4444 230.96 26.4354V25.4402H222.002V26.4354C222.273 26.4543 222.621 26.5128 223.046 26.6109C223.471 26.7089 223.824 26.8143 224.104 26.9264C224.487 27.0755 224.731 27.26 224.833 27.48C224.936 27.7 224.988 27.9727 224.988 28.2997V42.7118C224.988 43.0858 224.918 43.3774 224.777 43.5884C224.637 43.7984 224.413 43.964 224.104 44.0859C223.908 44.1609 223.572 44.2169 223.095 44.254C222.618 44.2911 222.254 44.3191 222.002 44.338V45.3332H230.96V44.338ZM252.148 25.4402H244.749V26.4354C245.076 26.4634 245.398 26.5013 245.716 26.5474C246.034 26.5944 246.347 26.6644 246.655 26.7575C246.973 26.8605 247.228 26.9849 247.42 27.129C247.611 27.274 247.707 27.4545 247.707 27.6695C247.707 27.8746 247.681 28.1415 247.63 28.4686C247.579 28.7957 247.398 29.3847 247.09 30.2357C246.772 31.1147 246.151 32.7336 245.225 35.0905C244.3 37.4475 243.482 39.4906 242.772 41.2215C241.342 37.3956 240.239 34.4471 239.463 32.3752C238.688 30.3033 238.127 28.8097 237.781 27.8936C237.753 27.8095 237.72 27.6975 237.683 27.5566C237.646 27.4166 237.627 27.2955 237.627 27.1925C237.627 26.9305 237.867 26.7484 238.348 26.6455C238.83 26.5433 239.422 26.4733 240.122 26.4354V25.4402H231.89V26.4354C232.152 26.4543 232.437 26.5029 232.746 26.5829C233.055 26.6619 233.335 26.7814 233.587 26.9404C233.896 27.1365 234.143 27.3441 234.33 27.564C234.517 27.784 234.666 28.0386 234.779 28.3277C235.227 29.5058 236.077 31.7722 237.33 35.1276C238.582 38.4831 239.882 41.9687 241.228 45.5861H242.391C243.718 42.1747 245.007 38.8966 246.261 35.7513C247.513 32.6067 248.452 30.2909 249.078 28.8047C249.265 28.3837 249.454 28.0196 249.646 27.7115C249.838 27.4026 250.092 27.1505 250.41 26.9544C250.634 26.8143 250.919 26.6949 251.265 26.5969C251.61 26.4988 251.905 26.4444 252.148 26.4354V25.4402ZM268.991 39.4733C268.86 39.9034 268.558 40.574 268.086 41.4851C267.614 42.3963 267.164 43.0759 266.734 43.5249C266.575 43.693 266.306 43.8264 265.928 43.9245C265.549 44.0225 265.182 44.0909 264.827 44.128C264.481 44.165 264.056 44.184 263.551 44.184H262.332C261.556 44.184 260.958 44.1584 260.537 44.1074C260.117 44.0555 259.785 43.9418 259.541 43.7638C259.298 43.5867 259.135 43.3255 259.051 42.9804C258.967 42.6352 258.925 42.1639 258.925 41.5667V35.6038H261.168C261.776 35.6038 262.263 35.6598 262.633 35.7727C263.002 35.8847 263.332 36.1228 263.621 36.4869C263.799 36.7118 263.97 37.0735 264.133 37.5736C264.297 38.0736 264.397 38.5482 264.434 38.9963H265.486V31.2021H264.434C264.388 31.6041 264.292 32.0317 264.148 32.4848C264.002 32.9379 263.827 33.3004 263.621 33.5714C263.369 33.8894 263.077 34.116 262.745 34.2511C262.413 34.387 261.888 34.4545 261.168 34.4545H258.925V26.5474H262.051C262.565 26.5474 263.023 26.5573 263.425 26.5754C263.827 26.5944 264.173 26.6224 264.462 26.6595C265.023 26.7344 265.615 27.1711 266.236 27.9702C266.857 28.7693 267.262 29.5247 267.449 30.2349H268.5V25.4402H253.107V26.4354C253.359 26.4543 253.698 26.5104 254.123 26.6034C254.548 26.6974 254.888 26.8045 255.14 26.9264C255.467 27.0755 255.682 27.2699 255.785 27.508C255.888 27.7461 255.939 28.0196 255.939 28.3277V42.6278C255.939 42.9738 255.88 43.2588 255.763 43.4829C255.646 43.707 255.439 43.889 255.14 44.0299C255 44.095 254.696 44.1584 254.229 44.2186C253.761 44.2795 253.387 44.3191 253.107 44.338V45.3332H269.622L270 39.4733H268.991Z" fill="#074161"/>
<path fill-rule="evenodd" clip-rule="evenodd" d="M87.8699 22.1267H89.3V16.2371L93.8665 22.1267H95.0842V13.848H93.654V19.572L89.2168 13.848H87.8699V22.1267ZM101.236 22.2684C103.78 22.2684 105.576 20.3184 105.576 17.9869V17.9639C105.576 15.6324 103.804 13.7063 101.26 13.7063C98.7156 13.7063 96.9188 15.6563 96.9188 17.9869V18.0108C96.9188 20.3414 98.6917 22.2684 101.236 22.2684ZM101.26 20.9338C99.6144 20.9338 98.4437 19.5967 98.4437 17.9869V17.9639C98.4437 16.3549 99.5913 15.0409 101.236 15.0409C102.88 15.0409 104.052 16.378 104.052 17.9869V18.0108C104.052 19.6198 102.904 20.9338 101.26 20.9338ZM107.417 22.1267H108.87V19.2408H110.692L112.728 22.1267H114.442L112.207 18.992C113.367 18.6616 114.181 17.846 114.181 16.4851V16.4612C114.181 15.7395 113.933 15.1241 113.496 14.6751C112.965 14.1553 112.148 13.848 111.107 13.848H107.417V22.1267ZM108.87 17.9523V15.1711H110.989C112.066 15.1711 112.704 15.6563 112.704 16.5444V16.5675C112.704 17.4078 112.042 17.9523 111.001 17.9523H108.87ZM117.973 22.1267H119.438V15.195H122.065V13.848H115.347V15.195H117.973V22.1267ZM123.525 22.1267H124.979V18.6369H128.931V22.1267H130.384V13.848H128.931V17.29H124.979V13.848H123.525V22.1267ZM134.708 22.186H135.962L137.996 16.2371L140.031 22.186H141.285L144.17 13.848H142.645L140.669 19.9864L138.635 13.8241H137.405L135.37 19.9864L133.396 13.848H131.822L134.708 22.186ZM145.625 22.1267H151.822V20.8267H147.079V18.6015H151.231V17.3023H147.079V15.148H151.763V13.848H145.625V22.1267ZM156.553 22.2453C158.293 22.2453 159.51 21.3234 159.51 19.7738V19.7499C159.51 18.3774 158.6 17.7505 156.849 17.3246C155.263 16.9464 154.884 16.6622 154.884 16.0229V15.9998C154.884 15.4553 155.382 15.0178 156.234 15.0178C156.991 15.0178 157.736 15.3136 158.482 15.8697L159.261 14.769C158.423 14.096 157.465 13.7294 156.258 13.7294C154.613 13.7294 153.431 14.7105 153.431 16.13V16.1531C153.431 17.6796 154.424 18.2003 156.187 18.6262C157.725 18.9813 158.056 19.3009 158.056 19.8924V19.9155C158.056 20.5433 157.488 20.9568 156.589 20.9568C155.559 20.9568 154.767 20.5663 153.975 19.8801L153.1 20.9214C154.093 21.8078 155.287 22.2453 156.553 22.2453ZM163.26 22.1267H164.725V15.195H167.351V13.848H160.634V15.195H163.26V22.1267ZM174.473 22.1267H175.939V15.195H178.564V13.848H171.847V15.195H174.473V22.1267ZM180.026 22.1267H186.223V20.8267H181.479V18.6015H185.631V17.3023H181.479V15.148H186.164V13.848H180.026V22.1267ZM188.062 22.1267H189.516V19.2408H191.338L193.374 22.1267H195.087L192.853 18.992C194.011 18.6616 194.827 17.846 194.827 16.4851V16.4612C194.827 15.7395 194.579 15.1241 194.141 14.6751C193.61 14.1553 192.794 13.848 191.752 13.848H188.062V22.1267ZM189.516 17.9523V15.1711H191.634C192.71 15.1711 193.35 15.6563 193.35 16.5444V16.5675C193.35 17.4078 192.687 17.9523 191.646 17.9523H189.516ZM196.699 22.1267H198.154V19.2408H199.976L202.011 22.1267H203.724L201.49 18.992C202.649 18.6616 203.465 17.846 203.465 16.4851V16.4612C203.465 15.7395 203.216 15.1241 202.779 14.6751C202.247 14.1553 201.431 13.848 200.389 13.848H196.699V22.1267ZM198.154 17.9523V15.1711H200.272C201.348 15.1711 201.988 15.6563 201.988 16.5444V16.5675C201.988 17.4078 201.324 17.9523 200.283 17.9523H198.154ZM205.373 22.1267H206.826V13.848H205.373V22.1267ZM210.937 22.1267H212.402V15.195H215.028V13.848H208.311V15.195H210.937V22.1267ZM220.161 22.2684C222.705 22.2684 224.502 20.3184 224.502 17.9869V17.9639C224.502 15.6324 222.729 13.7063 220.185 13.7063C217.641 13.7063 215.844 15.6563 215.844 17.9869V18.0108C215.844 20.3414 217.617 22.2684 220.161 22.2684ZM220.185 20.9338C218.54 20.9338 217.369 19.5967 217.369 17.9869V17.9639C217.369 16.3549 218.517 15.0409 220.161 15.0409C221.806 15.0409 222.977 16.378 222.977 17.9869V18.0108C222.977 19.6198 221.83 20.9338 220.185 20.9338ZM226.343 22.1267H227.796V19.2408H229.618L231.654 22.1267H233.367L231.133 18.992C232.292 18.6616 233.107 17.846 233.107 16.4851V16.4612C233.107 15.7395 232.859 15.1241 232.422 14.6751C231.89 14.1553 231.074 13.848 230.032 13.848H226.343V22.1267ZM227.796 17.9523V15.1711H229.914C230.991 15.1711 231.63 15.6563 231.63 16.5444V16.5675C231.63 17.4078 230.968 17.9523 229.926 17.9523H227.796ZM235.016 22.1267H236.469V13.848H235.016V22.1267ZM238.744 22.1267H244.94V20.8267H240.197V18.6015H244.349V17.3023H240.197V15.148H244.881V13.848H238.744V22.1267ZM249.672 22.2453C251.411 22.2453 252.628 21.3234 252.628 19.7738V19.7499C252.628 18.3774 251.718 17.7505 249.967 17.3246C248.382 16.9464 248.003 16.6622 248.003 16.0229V15.9998C248.003 15.4553 248.5 15.0178 249.352 15.0178C250.11 15.0178 250.856 15.3136 251.6 15.8697L252.38 14.769C251.541 14.096 250.583 13.7294 249.376 13.7294C247.732 13.7294 246.549 14.7105 246.549 16.13V16.1531C246.549 17.6796 247.542 18.2003 249.305 18.6262C250.843 18.9813 251.174 19.3009 251.174 19.8924V19.9155C251.174 20.5433 250.607 20.9568 249.707 20.9568C248.677 20.9568 247.885 20.5663 247.093 19.8801L246.218 20.9214C247.211 21.8078 248.406 22.2453 249.672 22.2453Z" fill="#1B9490"/>
</svg>
