<?xml version="1.0" encoding="UTF-8"?>
<svg id="Layer_1" xmlns="http://www.w3.org/2000/svg" version="1.1" viewBox="0 0 634.2 259.4">
  <!-- Generator: Adobe Illustrator 29.8.2, SVG Export Plug-In . SVG Version: 2.1.1 Build 3)  -->
  <defs>
    <style>
      .st0 {
        fill: #c30e2f;
      }

      .st1 {
        fill: #000;
      }
    </style>
  </defs>
  <g>
    <path class="st1" d="M.5,0C16.3,0,32,0,47.8,0v112.6c24.5,0,49.1,0,73.6,0,0,15.4,0,30.8,0,46.2H.5c0-52.9,0-105.8,0-158.7Z"/>
    <path class="st1" d="M130.5,0c15.8,0,31.5,0,47.2,0,0,11.6,0,23.2,0,34.7-15.8,0-31.5,0-47.3,0,0-11.6,0-23.2,0-34.8Z"/>
    <path class="st1" d="M189.3,0c23.1,0,46.2,0,69.4,0,16.8.1,33.7,5.1,47,15.6,14.6,11.2,23.7,28.4,26.8,46.4,3.3,19.1,1.5,39.5-7.3,56.9-8.5,17.6-24.8,31-43.5,36.5-15.9,4.8-32.6,3.4-49,3.6-14.5-.4-28.9-.2-43.4-.2,0-52.9,0-105.8,0-158.7ZM236.5,48.1c0,20.9,0,41.9,0,62.8,7.4,0,14.8,0,22.2,0,9.1-.2,18.4-4.2,23.7-11.7,4.6-6.9,5.5-15.6,4.8-23.8-1.4-14-13.4-26.2-27.5-27.2-7.7-.2-15.5,0-23.2-.1Z"/>
    <path class="st1" d="M342.3,0c44.7,0,89.4,0,134.1,0,0,14.3,0,28.6.2,42.9-29,0-58.1,0-87.1,0,0,5.1,0,10.1,0,15.2,24.3,0,48.7,0,73,0,0,14,0,27.9,0,41.9-24.3,0-48.7,0-73,0,0,5.5,0,11,0,16.4,29-.1,58-.3,86.9-.6,0,14.3,0,28.6,0,42.9-44.7,0-89.4,0-134.1,0,0-52.9,0-105.8,0-158.8Z"/>
    <path class="st1" d="M485.6,0c28.4,0,56.8,0,85.1,0,8,0,16.1-.5,23.9,1.5,12.7,2.8,24.4,10.7,31,22,8.7,14.4,9.1,32.5,5.3,48.5-3.9,15.8-16.5,29.1-32.4,33.2,11.9,17.8,23.7,35.7,35.6,53.6-17.9,0-35.9,0-53.8,0-11.3-17.1-22.6-34.1-33.9-51.2-5.4,0-10.8,0-16.2,0,0,17.1,0,34.2,0,51.2-14.9,0-29.9,0-44.8,0,0-52.9,0-105.8,0-158.7ZM530.3,40.3c0,8.7,0,17.5,0,26.2,14.1,0,28.2,0,42.4,0,4.3-.3,9,.2,12.8-2.2,2.9-1.8,3.9-5.5,4.1-8.7.1-4.1.1-8.9-2.9-12.1-3.4-3.4-8.5-3-12.9-3.3-14.5,0-28.9.3-43.4.2Z"/>
    <path class="st1" d="M130.5,43.2c15.8,0,31.5,0,47.2,0,0,38.5,0,77.1,0,115.6-15.8,0-31.5,0-47.3,0,0-38.5,0-77.1,0-115.6Z"/>
    <path class="st1" d="M238.1,258.9c0-24.9,0-49.8,0-74.6,7.6,0,15.1,0,22.7,0,0,8.6,0,17.3,0,25.9,9.3,0,18.5,0,27.8,0,0-8.6,0-17.3,0-25.9,7.6,0,15.2,0,22.7,0,0,24.9,0,49.8,0,74.6-7.6,0-15.1,0-22.7,0,0-8.9,0-17.7,0-26.6-9.2,0-18.5,0-27.8,0,0,8.9,0,17.8,0,26.6-7.6,0-15.2,0-22.7,0Z"/>
    <path class="st1" d="M317.2,258.9c10.7-24.8,21.2-49.8,32-74.6,7.5,0,15.1,0,22.6,0,10.6,24.9,21.2,49.8,31.9,74.6-7.6,0-15.1,0-22.7,0-1.6-3.8-3.2-7.5-4.8-11.2-10.5,0-21,0-31.4,0-1.6,3.8-3.2,7.5-4.8,11.3-7.6,0-15.1,0-22.7,0ZM360.5,210.8c-2.6,6.1-5.3,12.3-8,18.4,5.3,0,10.6,0,15.8,0-2.7-6.1-5.2-12.3-7.9-18.4Z"/>
    <path class="st1" d="M409.1,258.9c0-24.9,0-49.8,0-74.7,16.8,0,33.7,0,50.5,0,6.3-.2,13.1.9,17.7,5.6,4.7,4.5,5.3,11.6,4.4,17.8-.6,5.1-3.4,10-8.2,12.1,5.3,1.4,10.6,4.7,12.3,10.2,2.1,7.2,1.7,16.2-4,21.8-5.7,5.3-13.8,6.9-21.4,7.2-17.2,0-34.3,0-51.5,0ZM430.3,201.3c0,3.9,0,7.8,0,11.7,7.5,0,14.9.1,22.4,0,2.2,0,4.9,0,6.4-2.1,1.2-2.1,1.3-5,.2-7.2-1.3-2.3-4.3-2.2-6.6-2.4-7.5,0-15,0-22.4,0ZM430.3,227.6c0,4.1,0,8.2,0,12.3,8.2,0,16.3.1,24.5,0,2.2-.1,4.6,0,6.7-1,2.9-1.7,2.9-5.8,1.9-8.6-1.1-2.4-4.2-2.7-6.5-2.8-8.8-.2-17.7,0-26.5,0Z"/>
    <path class="st1" d="M492.4,184.2c21.5,0,43,0,64.5,0,0,6.7,0,13.4,0,20.2-13.9,0-27.9,0-41.8,0,0,2.4,0,4.8,0,7.2,11.7,0,23.4,0,35.1,0,0,6.5,0,13.1,0,19.6-11.7,0-23.4,0-35.1,0,0,2.6,0,5.2,0,7.8,13.9-.1,27.8-.2,41.8-.3,0,6.7,0,13.4,0,20.2-21.5,0-43,0-64.5,0,0-24.9,0-49.8,0-74.6Z"/>
    <path class="st1" d="M562.8,184.2c15.6,0,31.3,0,46.9,0,7.6,0,15.2,3.6,19.6,9.9,4.9,6.9,5.2,16.1,3.3,24.1-1.9,7.5-8,13.5-15.5,15.5,5.7,8.4,11.4,16.7,17.1,25.1-8.6,0-17.2,0-25.9,0-5.5-8-10.9-16.1-16.3-24.1-2.6,0-5.1,0-7.7,0,0,8,0,16.1,0,24.1-7.2,0-14.3,0-21.5,0,0-24.9,0-49.7,0-74.6ZM584.3,203.2c0,4.1,0,8.2,0,12.3,7.5,0,14.9.2,22.4-.1,1.9,0,3.7-.8,5.3-1.8.6-2.7,1.2-5.8-.2-8.4-1.5-2.3-4.7-2.1-7.1-2.2-6.8,0-13.6.1-20.4,0Z"/>
  </g>
  <path class="st0" d="M0,259.3c.1-25-.1-50,.1-75.1,76,0,151.9,0,227.9,0-.1,25,0,50.1,0,75.1-76,0-152,.1-228,0Z"/>
</svg>