<?xml version="1.0" encoding="UTF-8"?>
<svg xmlns="http://www.w3.org/2000/svg" xmlns:xlink="http://www.w3.org/1999/xlink" width="136px" height="150px" viewBox="0 0 136 150" version="1.1">
<g id="surface1">
<path style=" stroke:none;fill-rule:nonzero;fill:rgb(100%,100%,100%);fill-opacity:1;" d="M 135.835938 81.480469 C 132.480469 71.945312 127.179688 63.359375 120.386719 56.140625 C 121.464844 56.34375 122.5 56.46875 123.492188 56.46875 C 130.328125 56.46875 134.714844 51.804688 134.714844 44.625 L 134.714844 40.125 C 134.714844 37.359375 133.972656 34.84375 132.5625 32.65625 C 134.09375 30.714844 134.714844 28.28125 134.714844 25.886719 C 134.714844 25.226562 134.714844 24.566406 134.675781 23.863281 C 134.632812 22.957031 134.632812 22.089844 134.632812 21.179688 C 134.632812 16.929688 131.941406 8.304688 121.753906 5.992188 C 114.132812 4.261719 100.675781 1.988281 92.765625 1.328125 L 89.039062 1.039062 C 85.105469 0.503906 78.023438 0.214844 73.011719 0.175781 L 69.285156 0.175781 L 68 3.640625 C 67.007812 6.363281 65.554688 10.203125 64.148438 14 C 62.492188 10.078125 60.835938 6.117188 59.882812 3.765625 L 58.515625 0.296875 L 54.789062 0.460938 C 49.570312 0.710938 44.683594 1.246094 41.453125 1.617188 C 40.542969 1.699219 39.757812 1.824219 39.136719 1.867188 L 34.332031 2.359375 L 34.332031 7.109375 C 34.332031 11.234375 34.289062 24.195312 34.289062 33.976562 C 30.644531 34.472656 26.171875 35.214844 22.363281 35.957031 L 22.363281 4.300781 L 15.859375 5.871094 L 5.136719 8.429688 L 1.117188 9.378906 L 1.117188 59.894531 L 7.867188 57.953125 C 10.0625 57.292969 12.839844 56.632812 15.859375 55.972656 C 8.988281 63.238281 3.601562 71.945312 0.25 81.5625 L 0 82.097656 L 0.414062 82.46875 L 68 149.824219 L 135.667969 82.386719 L 136 82.015625 Z M 135.835938 81.480469 "/>
<path style=" stroke:none;fill-rule:nonzero;fill:rgb(0%,0%,0%);fill-opacity:1;" d="M 67.957031 119.78125 C 46.796875 119.78125 29.570312 102.609375 29.570312 81.519531 C 29.570312 60.429688 46.796875 43.261719 67.957031 43.261719 C 89.121094 43.261719 106.347656 60.429688 106.347656 81.519531 C 106.390625 102.609375 89.160156 119.78125 67.957031 119.78125 M 67.957031 48.503906 C 49.695312 48.503906 34.828125 63.320312 34.828125 81.519531 C 34.828125 99.722656 49.695312 114.539062 67.957031 114.539062 C 86.222656 114.539062 101.089844 99.722656 101.089844 81.519531 C 101.089844 63.277344 86.222656 48.503906 67.957031 48.503906 "/>
<path style=" stroke:none;fill-rule:nonzero;fill:rgb(0%,0%,0%);fill-opacity:1;" d="M 67.957031 124.691406 C 57.066406 124.691406 47.128906 120.648438 39.464844 114.042969 L 67.957031 142.4375 L 96.449219 114.042969 C 88.832031 120.648438 78.851562 124.691406 67.957031 124.691406 "/>
<path style=" stroke:none;fill-rule:nonzero;fill:rgb(70.980392%,15.294118%,20.784314%);fill-opacity:1;" d="M 111.402344 81.4375 C 111.402344 92.292969 107.34375 102.199219 100.714844 109.832031 L 129.953125 80.695312 C 121.546875 59.523438 102.496094 43.714844 79.429688 39.710938 C 97.816406 44.707031 111.402344 61.503906 111.402344 81.4375 "/>
<path style=" stroke:none;fill-rule:nonzero;fill:rgb(42.745098%,65.490196%,29.411765%);fill-opacity:1;" d="M 24.558594 81.4375 C 24.558594 61.585938 38.015625 44.871094 56.320312 39.753906 C 33.378906 43.839844 14.496094 59.648438 6.128906 80.738281 L 35.285156 109.792969 C 28.617188 102.199219 24.558594 92.292969 24.558594 81.4375 "/>
<path style=" stroke:none;fill-rule:evenodd;fill:rgb(70.980392%,15.294118%,20.784314%);fill-opacity:1;" d="M 86.761719 67.199219 L 89.824219 67.074219 L 87.503906 69.097656 L 88.582031 71.988281 L 85.933594 70.378906 L 83.53125 72.277344 L 84.234375 69.261719 L 81.667969 67.570312 L 84.730469 67.324219 L 85.558594 64.351562 Z M 87.214844 78.425781 L 89.367188 76.238281 L 89.039062 79.292969 L 91.8125 80.652344 L 88.789062 81.316406 L 88.332031 84.367188 L 86.800781 81.6875 L 83.777344 82.222656 L 85.847656 79.953125 L 84.398438 77.230469 Z M 84.152344 88.824219 L 86.761719 88.082031 L 85.1875 90.269531 L 86.675781 92.5 L 84.109375 91.675781 L 82.453125 93.777344 L 82.453125 91.097656 L 79.925781 90.1875 L 82.496094 89.363281 L 82.578125 86.679688 Z M 69.988281 54.074219 L 72.679688 54.363281 L 70.402344 55.808594 L 70.941406 58.449219 L 68.871094 56.714844 L 66.550781 58.039062 L 67.542969 55.5625 L 65.554688 53.746094 L 68.25 53.910156 L 69.367188 51.476562 Z M 59.386719 55.023438 L 61.621094 54.445312 L 60.253906 56.261719 L 61.5 58.203125 L 59.304688 57.460938 L 57.855469 59.234375 L 57.894531 56.921875 L 55.742188 56.097656 L 57.9375 55.4375 L 58.0625 53.125 Z M 67.378906 101.167969 L 69.613281 101.746094 L 67.503906 102.652344 L 67.628906 104.964844 L 66.09375 103.230469 L 63.941406 104.054688 L 65.101562 102.074219 L 63.652344 100.300781 L 65.886719 100.796875 L 67.128906 98.855469 Z M 58.683594 105.664062 L 60.917969 105.085938 L 59.511719 106.902344 L 60.753906 108.84375 L 58.558594 108.058594 L 57.066406 109.832031 L 57.109375 107.523438 L 54.953125 106.65625 L 57.148438 105.996094 L 57.316406 103.683594 Z M 75 96.335938 L 76.117188 93.902344 L 76.738281 96.503906 L 79.429688 96.832031 L 77.152344 98.234375 L 77.691406 100.878906 L 75.621094 99.144531 L 73.257812 100.464844 L 74.292969 97.988281 L 72.308594 96.171875 Z M 80.671875 58.988281 L 83.074219 60.925781 L 79.96875 60.886719 L 78.851562 63.773438 L 77.9375 60.84375 L 74.875 60.679688 L 77.402344 58.902344 L 76.613281 55.933594 L 79.097656 57.789062 L 81.707031 56.140625 Z M 80.671875 58.988281 "/>
<path style=" stroke:none;fill-rule:evenodd;fill:rgb(0%,0%,0%);fill-opacity:1;" d="M 122.914062 31.375 C 127.46875 31.375 129.414062 29.394531 129.414062 25.886719 C 129.414062 24.566406 129.332031 23.203125 129.332031 21.179688 C 129.332031 19.160156 128.089844 12.804688 120.554688 11.109375 C 113.015625 9.417969 99.765625 7.191406 92.308594 6.570312 L 92.308594 37.8125 C 99.597656 40.457031 106.390625 44.253906 112.4375 49.082031 C 115.253906 49.578125 117.984375 50.113281 120.304688 50.691406 C 125.480469 51.96875 129.414062 50.441406 129.414062 44.5 L 129.414062 40.125 C 129.414062 38.269531 129.042969 34.140625 122.914062 31.375 M 118.6875 40.125 C 118.6875 41.527344 118.152344 42.394531 116.328125 41.980469 C 113.96875 41.445312 103.242188 39.628906 103.242188 39.628906 L 103.242188 31.457031 C 103.242188 31.457031 113.429688 33.109375 115.542969 33.5625 C 117.695312 34.015625 118.6875 35.132812 118.6875 36.453125 Z M 118.6875 24.277344 C 118.6875 25.679688 118.152344 26.546875 116.328125 26.132812 C 113.96875 25.597656 103.242188 23.78125 103.242188 23.78125 L 103.242188 15.898438 C 103.242188 15.898438 113.429688 17.550781 115.542969 18.003906 C 117.695312 18.457031 118.6875 19.570312 118.6875 20.890625 Z M 64.480469 28.113281 C 64.480469 28.113281 57.441406 11.8125 54.996094 5.703125 C 48.578125 5.992188 42.695312 6.777344 39.632812 7.109375 C 39.632812 11.9375 39.589844 28.652344 39.589844 38.722656 C 35.40625 38.847656 21.574219 41.28125 17.144531 42.394531 L 17.144531 10.945312 L 6.417969 13.503906 L 6.417969 52.878906 C 10.519531 51.679688 16.6875 50.277344 23.480469 49.039062 C 28.367188 45.160156 33.792969 41.859375 39.589844 39.339844 C 39.589844 39.300781 39.589844 39.300781 39.589844 39.257812 L 39.589844 39.339844 C 42.738281 37.980469 46.007812 36.824219 49.363281 35.914062 L 49.363281 19.40625 L 55.492188 34.675781 C 57.148438 34.386719 58.847656 34.140625 60.546875 33.976562 C 60.753906 33.976562 60.960938 33.933594 61.125 33.933594 C 63.363281 33.726562 65.640625 33.605469 67.917969 33.605469 C 69.53125 33.605469 71.148438 33.6875 72.722656 33.769531 L 78.269531 19.199219 L 78.269531 34.347656 C 81.875 34.882812 85.433594 35.667969 88.953125 36.742188 L 88.953125 6.363281 C 85.847656 5.871094 78.726562 5.496094 72.96875 5.457031 C 70.277344 12.71875 64.480469 28.113281 64.480469 28.113281 "/>
</g>
</svg>
