<?xml version="1.0" encoding="UTF-8"?>
<svg id="Layer_2" data-name="Layer 2" xmlns="http://www.w3.org/2000/svg" viewBox="0 0 6750.93 2234.42">
  <defs>
    <style>
      .cls-1 {
        fill: #01dcc0;
      }

      .cls-2 {
        fill: #ff01ff;
      }

      .cls-3 {
        fill: #0001ff;
      }

      .cls-4 {
        fill: #fc0202;
      }

      .cls-5 {
        fill: #ff0;
      }
    </style>
  </defs>
  <g id="Layer_1-2" data-name="Layer 1">
    <g>
      <path d="m797,1808.77H0V43.11h155.21v1605.81h641.79v159.86Z"/>
      <path d="m1197.92,1808.77h-176.57V43.11h176.57v1765.66Z"/>
      <path d="m3251.96,964.53c-1.83,57.22-18.89,406.71-315.16,663.25-37.72,32.66-309.72,260.79-679.71,218.73-417.05-47.4-824.09-422.79-824.06-920.57.03-502.12,414.24-864.76,809.94-918.66,344.47-46.92,619.65,147.64,639.73,162.28,147.55,107.59,227.15,237.57,265.77,312.81h-210.5c-26.65-34.86-256.51-325.88-610.26-315.47-379,11.16-707.44,362.66-708.01,757.63-.6,419.36,368.55,794.68,776.57,764.64,291.25-21.45,554.12-245.9,650.01-564.8h-899.74v-159.86h1105.42Z"/>
      <path d="m4689,1808.77h-166.5v-800.83h-861.74v800.83h-166.5V43.11h166.5v799.12h861.74V43.11h166.5v1765.66Z"/>
      <path d="m5745.02,202.99h-357.24v1605.78h-156.42V202.99h-359.33V43.11h872.99v159.88Z"/>
    </g>
    <path d="m6484.88,1339.92l-302.07,468.85h-111.13l-124.96-468.85h118.55l86.3,333.56,207.63-333.56h125.69Z"/>
    <path d="m5548.16,2167.69c-5.18.29-13.26,1.15-21.29.88-2.06-.07-4.6-3.44-5.8-5.85-.87-1.76-.59-4.8.36-6.66,5.73-11.19,11.58-22.28,11.65-35.32,16.82-10.23,3.79-28.14,12.12-41.56,14.55-25.86,34.74-43.13,27.71-75.41-4.14-23.32,38.89-13.99,23.09-56.7-14.59-28.28,21.35-23.61,17.19-49.56-1.52-9.12-2.55-19.21,7.73-25.32.94-.56,1.9-2.35,1.72-3.36-3.91-20.88,14.27-34.64,17.11-53.34,2.03-11.19,4.77-23.1,11.37-32.48,12.27-43.94,30.02-85.86,43.83-129.32,30.69-89.03,69.44-175.91,98.57-265.21,12.48-19.63,16.92-41.72,24.12-63.09,4.02-10.48,18.95-53.68-2.66-50.95-10.67,2.97-27.51-6.73-32.4,7.33-.54,1.69-5.41,2.76-8.29,2.8-22.34,2.31-57.99-5.71-76.01,6.63-30.39,15.89-63.66-23.36-59.47-54.1.4-8.45.52-17.05,2.26-25.26,4.37-20.61,12.53-26.85,33.65-28.07,21.15-1.22,42.27-2.73,63.4-4.21,23.02-3.24,124.43-1.55,128.81-25.5,5.26-20.05,10.72-40.05,18.21-59.43,3.91-9.48-1.22-20.2,8.57-27.52,2.9-2.18,3.69-9.05,3.2-13.55-1.56-14.46,8.33-24.28,13.38-36.03,20.51-11.06,63.4-14.54,82.91.27,20.9,19.01,49.91,27.99,26.93,59.37,3.51,23.34-39.74,73.52-7.08,76.03,9.08.32,18.43.33,27.27-1.45,46.61-9.42,94.74-4.11,140.82-12.2,65.34-9.87,130.97-.33,195.12-15.67,11.41,11.97,32.1,17.48,45,7.43,9.4-7.32,13.46-9.14,20.13.94.99,1.5,4.9,1.42,7.46,1.46,15.33.21,30.68.59,45.99.09,4.11-.13,9.34-2.03,11.93-4.98,9.55-12.13,19.31,4.25,35.48,4.87,15.05.85,8.69-13.54,34.39-11.14,14.68.27,29.36-.06,44.03.35,2.62.07,5.18,2.45,7.77,3.76-13.4,16.46-40.56-.5-54.94,14.73-19.17,3.74-41.01-3.3-60,4.74l-.4,3.84c23.01,11.06,53.89-7.04,69.08,21.42-22.81,1.77-23.82-1.1-42.72,11.89-11.37,1.65-22.78,3.15-34.22,4.14-15.91,1.38-31.85,2.35-47.79,3.36-18.33,1.16-38.11-2.35-49.82,17.75-16.46-17.67-36.39-24.08-52.67-1.75-2.21,2.92-6.68,5.56-10.25,5.77-10.71.62-21.51-.38-32.24.02-16.52,1.5-15.6,29.08-34.76-2.54-7.92,13.19-17.91,15-29.28,14.53-13.03-.54-26.1-.2-39.15-.11-26.45-2.7-15.33,10.59-32.39,9.76-22.71-2.06-44.54.41-66.46,7.55-11.37,3.7-24.5,2.27-36.84,2.62-43.23,1.38-58.7-6.62-101.25,12.62-6.55,2.5-10.21,13.39-14.47,20.86-3.75,6.57-6.76,13.61-9.58,20.65-3.14,15.05,1.75,30.19-8.23,44.2-5.81,8.68-3.47,25.24-11.93,32.14-9.19,3.56-9.39,11-11.11,18.73-6,19.69-15.08,38.7-22.5,57.96-1.96,5.29-8.8,11.21-9.13,16.38,2.41,9.27-3.02,14.63-7.42,21.58-11.96,22.67-20.05,47.84-30.69,71.29-5.77,11.96-8.96,26.12-16.24,37-8.19,4.82-8.35,11.65-5.03,20.24-9.91.74-13.09,5.73-10.95,15.12-15.53,56.07-45.5,109.36-65.29,164.66-8.42,19.75-11.6,41.68-19.89,61.47-7.77,12.33-14.99,24.22-18.37,39.32-9.12,29.46-30.12,55.72-45.81,82.36-.52.82-1.29,1.79-1.22,2.63,1.24,15.01-8.94,22.25-19.46,29.65-28.42,21.5,4.48,30.3-24.12,50.9-9.35,8.92-13.27,21.65-18.63,33.08-4.79,9.58-9.47,18.6-9.06,30.3.2,5.65-5.84,12.91-10.98,17.01-8.55,6.25-12.64,13.4-11.17,23.94-15.04,22.25-4.49,54.46-35.98,65.95-.95-.88-1.9-1.77-2.85-2.65,7.78-18.49,14.83-37.41,22.3-55.97,5.5-10.54,8.57-21.3,7.09-33.33-.19-1.55,3.49-3.35,4.91-5.37,6.56-7.66,6.88-11.11,1.12-19.48-2.18,2.05-5.53,3.71-6.34,6.2-4.43,13.54-8.24,27.28-13.13,43.86Z"/>
    <g>
      <rect class="cls-1" x="5887.97" y="23.28" width="317.14" height="228.69" rx="29.68" ry="29.68"/>
      <rect class="cls-5" x="5562.07" y="586.84" width="417.91" height="309" rx="29.68" ry="29.68"/>
      <rect class="cls-2" x="6024.32" y="350.82" width="490.05" height="350.36" rx="29.68" ry="29.68"/>
      <rect class="cls-3" x="6433.79" y="71.79" width="317.14" height="228.69" rx="29.68" ry="29.68"/>
      <rect class="cls-4" x="5612.46" y="308.76" width="265.96" height="195.35" rx="29.68" ry="29.68"/>
    </g>
  </g>
</svg>