<?xml version="1.0" encoding="utf-8"?>
<!-- Generator: Adobe Illustrator 21.1.0, SVG Export Plug-In . SVG Version: 6.00 Build 0)  -->
<svg version="1.1" id="Layer_1" xmlns="http://www.w3.org/2000/svg" xmlns:xlink="http://www.w3.org/1999/xlink" x="0px" y="0px"
	 viewBox="0 0 102.4 37" style="enable-background:new 0 0 102.4 37;" xml:space="preserve">
<g>
	<g>
		<path d="M23.8,5.3c-1.3,0-2.4-1.1-2.4-2.4c0-1.3,1.1-2.4,2.4-2.4c1.3,0,2.4,1.1,2.4,2.4C26.2,4.2,25.1,5.3,23.8,5.3 M25.8,29.4
			h-3.9v-19c0-1.2-0.9-2.1-2-2.1V8.2h2c2.5,0,3.9,1.4,3.9,3.9V29.4z"/>
		<path d="M48.8,8.2l-7.3,21.2h-4.2l-7-19.3c-0.4-1-1.3-1.8-2-1.8V8.2h2.1c2.1,0,3.8,0.9,4.5,2.9l6,17.3l6.9-20.2H48.8z"/>
		<path d="M54.5,5.3c-1.3,0-2.4-1.1-2.4-2.4c0-1.3,1.1-2.4,2.4-2.4c1.3,0,2.4,1.1,2.4,2.4C56.9,4.2,55.8,5.3,54.5,5.3 M56.5,29.4
			h-3.9v-19c0-1.2-0.9-2.1-2-2.1V8.2h2c2.5,0,3.9,1.4,3.9,3.9V29.4z"/>
		<path d="M79.2,29.4h-3.9V14.3c0-2.5-2-4.5-4.5-4.5c-2.4,0-4.3,1.8-4.4,4.5h-0.1c0-3.6,2.3-6.5,6.5-6.5c3.6,0,6.4,2.9,6.4,6.5V29.4
			z M65.9,29.4H62v-19c0-1.2-0.9-2.1-2-2.1V8.2h2c2.3,0,3.9,1.8,3.9,3.9V29.4z"/>
		<path d="M102.4,8.3c-1.1,0-2,0.9-2,2v19.6c0,4-3.7,7.3-8.2,7.3c-2.3,0-4.2-0.7-5.6-1.9l0.1-0.1c0.9,0.6,2.1,0.9,3.3,0.9
			c3.7,0,6.6-2.8,6.6-6.2V12.1c0-2.2,1.3-3.9,3.9-3.9h2V8.3z M96.3,10.8C95.5,9.9,94.1,9,92.8,9c-5.1,0-6.5,5.7-6.5,9.7
			c0,4.1,1.5,9.7,6.3,9.7c1.4,0,2.5-0.7,3.4-1.6v0.2c-1.3,1.7-2.6,2.7-5.4,2.7c-6.1,0-8.3-5.7-8.3-11c0-5.3,2.2-11,8.3-11
			c2.2,0,4,0.8,5.6,2.8V10.8z"/>
		<path d="M17.9,25.1c-1.3,2.8-2.2,3.5-4.9,3.5H5.9V17.8v-0.2v-4.7v-1.2V4.5C5.9,2,4.6,0.6,2,0.6H0v0.1c1.1,0,2,0.9,2,2v9v1.2v4.7
			v0.2v11.6h15.6l0.6-4.3H17.9z"/>
	</g>
</g>
</svg>
