<svg xmlns="http://www.w3.org/2000/svg" viewBox="0 0 438.65 100"><defs><style>.cls-1{fill:#2638c4;}.cls-2,.cls-4{fill:#fff;}.cls-3{fill:#486cd8;}.cls-4{fill-rule:evenodd;}</style></defs><g id="Layer_2" data-name="Layer 2"><g id="Art_Layer" data-name="Art Layer"><path class="cls-1" d="M298.43,50a50,50,0,1,1-50-50,50,50,0,0,1,50,50"/><path class="cls-1" d="M423.7,44.43c-5.47-2.83-9.89-5.14-9.89-9.53,0-3.1,2.65-5,7.12-5a26.91,26.91,0,0,1,13.63,3.86V22.44a36.81,36.81,0,0,0-13.64-3c-13.19,0-19.1,7.85-19.1,16.36,0,10,6.72,14.76,14.14,18.68S426,60,426,64.2c0,3.53-3.06,5.55-8.19,5.55a24.18,24.18,0,0,1-15.46-5.93v12a30.91,30.91,0,0,0,15.37,4.72c12.81,0,20.89-6.68,20.89-17.43C438.65,52,429.17,47.26,423.7,44.43Z"/><path class="cls-1" d="M326.06,20H310.24V80h11.81V60.91h2.37c14.79,0,24-7.86,24-20.51S340,20,326.06,20Zm-4,10h3.47c6.93,0,11.41,4,11.41,10.22,0,6.72-4.13,10.58-11.32,10.58h-3.56Z"/><path class="cls-1" d="M386.08,47.69c4-2.8,5.94-6.85,5.94-12.34,0-9.47-7-15.35-18.17-15.35H355.54V80h19.13C389.33,80,396,70.58,396,61.84,396,54.91,392.23,49.57,386.08,47.69ZM373,30.11c4.62,0,7.61,2.87,7.61,7.33s-3.24,7.42-8.24,7.42h-5V30.11ZM367.35,70V54.32h7.48c5.95,0,9.51,2.91,9.51,7.79,0,5.22-3.57,7.87-10.6,7.87Z"/><path class="cls-2" d="M284.85,50.49l-5.55,1.13V61.88a6.29,6.29,0,0,1-6.5,6.19H270V80h-9.13V68.07h2.83a6.29,6.29,0,0,0,6.5-6.19V51.62l5.55-1.13A1.84,1.84,0,0,0,277,47.83L262.43,20h9.13l14.55,27.83A1.84,1.84,0,0,1,284.85,50.49Z"/><path class="cls-2" d="M266.14,47.83,251.59,20H236.53c-13.7,0-25.34,11.21-25,24.91.24,10.22,6.83,17.87,16,20.76V80H250V68.07h2.83a6.29,6.29,0,0,0,6.5-6.19V51.62l5.55-1.13A1.84,1.84,0,0,0,266.14,47.83ZM247.2,46.24a5.72,5.72,0,1,1,5.72-5.72A5.71,5.71,0,0,1,247.2,46.24Z"/><rect class="cls-3" y="10.05" width="47.42" height="79.51"/><polygon class="cls-2" points="41.65 82.02 41.65 72.18 25.25 72.18 25.25 17.16 10.13 17.16 10.13 82.02 41.65 82.02"/><rect class="cls-3" x="53.23" y="10.05" width="57.32" height="79.51"/><polygon class="cls-3" points="173.11 10.01 116.36 10.05 116.36 89.99 173.11 89.99 173.11 10.01"/><path class="cls-4" d="M79.25,81.59V56.7h5.52a25.6,25.6,0,0,0,6.52-.81,18.59,18.59,0,0,0,5.61-2.63,12.87,12.87,0,0,0,3.89-4.34,12.59,12.59,0,0,0,1.44-6.15V31a15.16,15.16,0,0,0-1.35-6.78A10.27,10.27,0,0,0,97,20a17.68,17.68,0,0,0-6.16-2.17,47.27,47.27,0,0,0-8.23-.63H64.23V81.59Zm0-55.2H81.6q3.72,0,4.62,2.17c.66,1.45,1,4.25,1,8.42s-.33,7-1,8.41-2.14,2.08-4.62,2.08H79.25Z"/><path class="cls-4" d="M141.19,52.79a33,33,0,0,1,4.13.18,3.63,3.63,0,0,1,2.15,1,4.67,4.67,0,0,1,1.26,2.69,29.81,29.81,0,0,1,.36,5.29q0,5.75-1.08,8.16c-.66,1.62-2.42,2.42-5.29,2.42a5,5,0,0,1-.72-.08h-.81ZM126.3,81.59h15.07a98.83,98.83,0,0,0,10.77-.45A14.87,14.87,0,0,0,158.69,79a9.8,9.8,0,0,0,3.94-5.38A30.71,30.71,0,0,0,164,63.38a45.78,45.78,0,0,0-.36-6.19,14.19,14.19,0,0,0-1.44-4.67A7.57,7.57,0,0,0,159,49.29a11.27,11.27,0,0,0-5.56-1.16V47.5q5.93-.54,8.52-4.76a13.54,13.54,0,0,0,1.53-4.21,24.39,24.39,0,0,0,.54-5.3q0-5.55-1.71-8.7a9.76,9.76,0,0,0-4.66-4.66,19.3,19.3,0,0,0-6.55-1.8q-3.59-.36-9.69-.36H126.3Zm14.89-54.72H142a3.29,3.29,0,0,1,.72-.1q4.13,0,5.2,1.89c.78,1.19,1.17,3.41,1.17,6.64a20.18,20.18,0,0,1-.45,4.75,4.36,4.36,0,0,1-1.17,2.42,3.18,3.18,0,0,1-1.7.9,14.86,14.86,0,0,1-2.69.18,17.35,17.35,0,0,0-1.89.09Z"/></g></g></svg>