<svg width="500" height="370" viewBox="0 0 500 370" fill="none" xmlns="http://www.w3.org/2000/svg">
<g clip-path="url(#clip0_133_1334)">
<path d="M184.716 270.353H184.55L176.159 249.42H168.993V278.952H174.502V259.021H174.659L182.686 278.67H186.571L194.598 259.021H194.756V278.952H200.264V249.42H193.099L184.716 270.353Z" fill="black"/>
<path d="M213.527 249.42L203.271 278.952H209.617L211.87 271.786H222.249L224.503 278.952H231.072L220.8 249.42H213.527ZM213.195 267.164L216.981 255.07H217.122L220.907 267.164H213.187H213.195Z" fill="black"/>
<path d="M251.996 269.699V249.412H245.817V269.657C245.817 272.623 244.425 274.222 241.849 274.222C239.513 274.222 237.955 272.648 237.922 270.254H231.925C231.925 275.903 235.876 279.565 241.915 279.565C247.954 279.565 252.005 275.978 252.005 269.699" fill="black"/>
<path d="M263.295 249.412H257.116V278.952H263.295V249.412Z" fill="black"/>
<path d="M268.207 278.952H279.482C288.345 278.952 293.572 273.443 293.572 264.074C293.572 254.705 288.345 249.42 279.482 249.42H268.207V278.96V278.952ZM274.387 254.515H278.744C284.195 254.515 287.26 257.911 287.26 264.091C287.26 270.27 284.27 273.832 278.744 273.832H274.387V254.515Z" fill="black"/>
<path d="M319.036 278.952V254.515H327.593V249.412H304.324V254.515H312.857V278.952H319.036Z" fill="black"/>
<path d="M342.927 272.59H342.778L336.026 249.42H329.109L339.033 278.952H346.489L356.413 249.42H349.678L342.927 272.59Z" fill="black"/>
<path d="M333.674 134.873C314.563 134.873 299.023 151.689 299.023 172.348C299.023 175.19 299.329 177.948 299.876 180.616C298.899 182.264 296.662 184.542 291.733 184.708C290.358 184.683 288.188 184.459 286.009 182.496C273.302 167.635 287.774 110.055 287.774 110.055L283.922 109.773V109.74L275.356 109.144L265.805 108.431L254.481 107.445L254.357 108.854C252.709 128.627 251.524 151.714 255.318 172.953C259.468 196.189 272.739 209.575 291.791 209.766H292.181C301.251 209.551 308.16 206.552 313.246 202.609C318.978 207.14 326.036 209.832 333.674 209.832C352.776 209.832 368.325 193.016 368.325 172.357C368.325 151.697 352.776 134.881 333.674 134.881M333.674 184.774C328.472 184.774 324.073 179.091 324.073 172.357C324.073 165.622 328.472 159.939 333.674 159.939C338.876 159.939 343.258 165.622 343.258 172.357C343.258 179.091 338.868 184.774 333.674 184.774Z" fill="black"/>
<path d="M246.015 197.233C239.769 197.233 234.708 202.294 234.708 208.54C234.708 214.786 239.769 219.847 246.015 219.847C252.261 219.847 257.323 214.786 257.323 208.54C257.323 202.294 252.261 197.233 246.015 197.233Z" fill="black"/>
<path d="M238.709 155.864C233.838 156.27 230.036 150.72 229.995 150.662L230.086 150.811C225.778 144.01 214.231 132.86 198.227 134.185C188.7 134.972 181.477 139.86 176.523 145.252L192.329 165.44L192.618 165.564L192.544 165.721C192.577 165.663 195.584 161.546 200.447 161.14C203.255 160.908 206.104 161.961 208.25 163.758C208.904 164.305 214.115 170.302 214.015 170.41C207.96 177.012 201.101 183.954 192.66 184.65C183.125 185.437 174.055 179.638 165.696 167.403C158.307 156.584 154.571 145.012 154.538 144.904L142.593 148.682L130.64 152.434C130.814 152.981 131.866 156.253 133.879 160.975C135.146 165.059 137.176 176.018 132.719 182.91C129.795 187.433 123.83 190.175 115 191.086L117.543 216.012C138.559 213.858 148.905 204.116 153.876 196.321C154.381 195.534 154.836 194.739 155.275 193.936C165.125 203.719 178.139 211 194.723 209.617C213.593 208.051 225.778 194.706 233.838 185.867C234.758 184.857 235.835 183.672 236.82 182.653C237.856 181.568 239.256 180.963 240.747 180.839L241.766 180.773L238.701 155.864H238.709Z" fill="black"/>
<path d="M395.114 119.772C403.34 119.772 410 113.112 410 104.886C410 96.6601 403.332 90 395.114 90C386.897 90 380.229 96.6684 380.229 104.886C380.229 113.103 386.897 119.772 395.114 119.772Z" fill="#D02D2E"/>
</g>
<defs>
<clipPath id="clip0_133_1334">
<rect width="295" height="190" fill="white" transform="translate(115 90)"/>
</clipPath>
</defs>
</svg>
