<svg xmlns="http://www.w3.org/2000/svg" xmlns:xlink="http://www.w3.org/1999/xlink" width="81" height="32" viewBox="0 0 81 32"><defs><clipPath id="b"><rect width="81" height="32"/></clipPath></defs><g id="a" clip-path="url(#b)"><g opacity="0.95"><path d="M6341.545-4434.469v-8h-.1l.1-.083V-4461h2.809v15.638l-.026.083h10.1l-5.729-5.729,7.544-7.544,1.986,1.986-5.559,5.559,5.658,5.657-.072.072h3.22v-.976a7.167,7.167,0,0,1,7.159-7.159,7.167,7.167,0,0,1,7.159,7.159v3.644h-.147v.141h-31.3v8Zm22.743-11.785v.976h8.7v-.976a4.357,4.357,0,0,0-4.353-4.352A4.356,4.356,0,0,0,6364.288-4446.254ZM6324-4441.763v-3.514h2.808v3.514a4.356,4.356,0,0,0,4.351,4.351,4.357,4.357,0,0,0,4.353-4.351v-3.514h2.807v3.514a7.167,7.167,0,0,1-7.159,7.159A7.167,7.167,0,0,1,6324-4441.763Zm5.9-.848v-2.666h2.807v2.666Z" transform="translate(-6313.186 4463.734)"/><path d="M6344.854-4433.969h-3.809v-8h-.952l.952-.813V-4461.5h3.809v15.721h8.372l-5.229-5.229,8.251-8.251,2.693,2.693-5.559,5.559,5.23,5.229h2.369v-.476a7.667,7.667,0,0,1,7.659-7.659,7.668,7.668,0,0,1,7.659,7.659v4.144h-.142v.141h-31.3Zm-2.809-1h1.809v-8h31.292v-.141h.153v-3.144a6.667,6.667,0,0,0-6.659-6.659,6.667,6.667,0,0,0-6.659,6.659v1.476h-4.933l.577-.573-5.657-5.656,5.559-5.559-1.279-1.279-6.837,6.837,6.229,6.229h-11.991l.206-.659V-4460.5h-1.809Zm-10.886.865a7.667,7.667,0,0,1-7.659-7.659v-4.014h3.808v4.014a3.855,3.855,0,0,0,3.851,3.851,3.856,3.856,0,0,0,3.853-3.851v-4.014h3.807v4.014A7.668,7.668,0,0,1,6331.159-4434.1Zm-6.659-10.672v3.014a6.667,6.667,0,0,0,6.659,6.659,6.667,6.667,0,0,0,6.659-6.659v-3.014h-1.807v3.014a4.857,4.857,0,0,1-4.853,4.851,4.856,4.856,0,0,1-4.851-4.851v-3.014Zm8.7,2.666H6329.4v-3.666h3.807Zm-2.807-1h1.807v-1.666H6330.4Zm43.094-1.667h-9.7v-1.476a4.857,4.857,0,0,1,4.851-4.852,4.858,4.858,0,0,1,4.853,4.852Zm-8.7-1h7.7v-.476a3.857,3.857,0,0,0-3.853-3.852,3.856,3.856,0,0,0-3.851,3.852Z" transform="translate(-6313.186 4463.734)" fill="rgba(0,0,0,0)"/></g></g></svg>