<?xml version="1.0" encoding="UTF-8"?><svg id="Layer_1" xmlns="http://www.w3.org/2000/svg" baseProfile="tiny" version="1.2" viewBox="0 0 1200 1200"><!--Generator: Adobe Illustrator 30.3.0, SVG Export Plug-In . SVG Version: 2.1.1 Build 22)--><g><rect x="105.49" y="87.76" width="1060.65" height="347.51" fill="#f19109"/><rect x="105.49" y="782.61" width="1060.65" height="347.51" fill="#7d1713"/><rect x="33.85" y="435.13" width="1060.65" height="347.51" fill="#c9231a"/></g><g><g><path d="M382.25,399.11l-8.57-167.24h-.41l-37.53,167.24h-70.16l-37.94-167.24h-.41l-8.57,167.24h-76.69l20.8-274.93h110.54l32.22,135.83h.41l31-135.83h104.42l20.8,274.93h-79.95Z" fill="#fff"/><path d="M596.41,399.11l-6.12-37.94h-52.21l-6.53,37.94h-79.95l54.25-274.93h122.37l53.03,274.93h-84.84ZM564.59,195.97h-.82l-17.54,101.98h35.9l-17.54-101.98Z" fill="#fff"/><path d="M813.42,399.11l-57.52-125.64v125.64h-74.65V124.18h89.33l55.48,116.25v-116.25h73.83v274.93h-86.48Z" fill="#fff"/><path d="M1043.89,399.11l-6.12-37.94h-52.21l-6.53,37.94h-79.95l54.25-274.93h122.37l53.03,274.93h-84.84ZM1012.07,195.97h-.82l-17.54,101.98h35.9l-17.54-101.98Z" fill="#fff"/></g><g><path d="M310.51,746.35l-8.57-167.24h-.41l-37.53,167.24h-70.16l-37.94-167.24h-.41l-8.57,167.24h-76.69l20.8-274.93h110.54l32.22,135.83h.41l31-135.83h104.42l20.8,274.93h-79.95Z" fill="#fff"/><path d="M524.67,746.35l-6.12-37.94h-52.21l-6.53,37.94h-79.95l54.25-274.93h122.37l53.03,274.93h-84.84ZM492.85,543.21h-.82l-17.54,101.98h35.9l-17.54-101.98Z" fill="#fff"/><path d="M741.68,746.35l-57.52-125.64v125.64h-74.65v-274.93h89.33l55.48,116.25v-116.25h73.83v274.93h-86.48Z" fill="#fff"/><path d="M972.15,746.35l-6.12-37.94h-52.21l-6.53,37.94h-79.95l54.25-274.93h122.37l53.03,274.93h-84.84ZM940.34,543.21h-.82l-17.54,101.98h35.9l-17.54-101.98Z" fill="#fff"/></g><polygon points="990.56 105.63 1042.65 105.63 1020.58 69.88 952.15 69.88 990.56 105.63" fill="#fff"/><polygon points="919.04 453.14 971.13 453.14 949.06 417.39 880.64 417.39 919.04 453.14" fill="#fff"/><g><path d="M228.4,1099.45c-32.55,0-58.99-8.17-91.13-28.17l26.85-58.8c22.37,12.25,43.12,19.6,57.77,19.6,12.61,0,19.12-6.53,19.12-17.56,0-33.89-100.48-31.03-100.48-117.19,0-55.12,39.87-84.93,94.38-84.93,29.29,0,56.14,8.17,82.58,24.91l-26.04,55.94c-20.34-10.21-37.02-16.33-50.85-16.33-13.02,0-18.31,6.53-18.31,15.11,0,31.03,102.92,30.62,102.92,116.78,0,62.88-45.56,90.65-96.82,90.65Z" fill="#fff"/><path d="M420.02,1004.31h-13.42v89.01h-82.99v-275.2c22.78-.41,69.16-.82,97.23-.82,73.23,0,109.43,29.81,109.43,91.87,0,53.49-32.55,95.14-110.25,95.14ZM420.42,879.78c-4.88,0-9.76,0-13.83.41v61.66c3.66.41,7.32.41,13.02.41,19.93,0,26.44-9.8,26.44-31.44s-5.7-31.03-25.63-31.03Z" fill="#fff"/><path d="M640.51,1099.45h-3.25c-98.45,0-118.79-55.12-118.79-142.91,0-107.39,48.82-144.54,120.42-144.54h3.25c98.45,0,118.79,55.94,118.79,142.5,0,108.2-48.41,144.95-120.42,144.95ZM640.11,878.14c-26.04,0-35.8,19.6-35.8,77.58,0,54.31,7.73,76.76,34.99,76.76s35.8-19.6,35.8-77.17-7.73-77.17-34.99-77.17Z" fill="#fff"/><path d="M880.94,1093.32l-28.07-103.71h-11.39v103.71h-80.96v-275.2c26.04-.82,67.94-.82,99.67-.82,72.01,0,105.37,30.22,105.37,82.48,0,32.26-12.2,57.98-33.77,70.23l41.9,123.31h-92.75ZM853.69,879.37c-3.66,0-7.73.41-12.2.82v48.18h12.2c24,0,28.07-11.84,28.07-24.5,0-13.47-3.25-24.5-28.07-24.5Z" fill="#fff"/><path d="M1084.35,886.72v206.61h-82.58v-206.61h-43.53v-68.6h170.05v68.6h-43.94Z" fill="#fff"/></g></g></svg>