<svg xmlns="http://www.w3.org/2000/svg" viewBox="0 0 95 20"><path fill="#46D202" d="M0 0h75.766v19.987H0z"/><g fill="#FFF"><path d="M13.504 4.866v.874h2.003c1.416 0 2.131.699 2.131 2.083V12.1c0 1.398-.715 2.082-2.131 2.082h-2.003v.938h-2.878v-.938H8.608c-1.415 0-2.114-.699-2.114-2.098V7.823c0-1.383.7-2.083 2.114-2.083h2.019v-.874h2.877zm-4.403 7.297h1.526V7.775H9.101v4.388zm4.403 0h1.494V7.775h-1.494v4.388zM21.389 14.675l1.447-2.813h-.509c-.62 0-.891-.111-1.065-.652l-2.019-5.803v-.223h2.989l1.304 5.151h.143l1.494-5.151h2.957v.223l-3.815 9.507H21.39v-.239h-.001zM34.743 7.33v7.583h-2.734V7.33h-2.607V5.184h7.933V7.33h-2.592zM47.588 12.672c0 1.494-.525 2.241-1.876 2.241H39.56V5.184h7.742V7.33h-4.881v1.431h2.894c1.462 0 2.273.477 2.273 1.892v2.019zm-2.862-1.781h-2.305v1.875h2.305v-1.875zM58.414 13.021c0 1.256-.62 1.892-1.877 1.892H52.15c-1.256 0-1.86-.636-1.86-1.892V7.14c0-1.304.604-1.956 1.86-1.956h4.387c1.257 0 1.877.62 1.877 1.892v5.945zM55.521 7.33h-2.384v5.437h2.384V7.33zM69.271 5.184v9.729H66.41V7.33h-1.797v2.702c0 2.608-.557 4.754-3.338 5.009l-.874-2.146c1.557-.318 1.716-1.033 1.716-2.925V5.184h7.154z"/></g><path fill="#46D202" d="M80.552 0h14.106v3.848l-5.211 4.215v.104h2.104C93.843 8.167 95 9.24 95 11.518v5.026C95 18.821 93.844 20 91.552 20h-8.104C81.156 20 80 18.821 80 16.544v-2.356l3.209-.262h1.659v2.094h5.263v-4.502h-7.527V9.292l5.449-4.582v-.104h-7.501V0z"/></svg>