<svg xmlns="http://www.w3.org/2000/svg" xmlns:xlink="http://www.w3.org/1999/xlink" viewBox="0 0 115 18"><path d="M42.3 0H115v18H42.3V0z" fill-rule="evenodd" clip-rule="evenodd" fill="#0f0f0f"/><defs><path id="a" d="M94.8 3.5h7.4v3.2h-4.1v.7h2.6l-.8 3.2h-1.8v.7h4.1v3.2h-7.4v-11zm13.4 3.2h-1.9V9h1.9V6.7zm-1.9-3.2h5.3v8.7h-5.3v2.3H103v-11h3.3zm-15.8 7.8h-1.9V9h1.9v2.3zm-1.9 3.2h5.3V5.8h-5.3V3.5h-3.4v11h3.4zM81 3.5h3.4v11H81V8.4l-2.4 3.5-2.4-3.5v6.1h-3.4v-11h3.4L78.6 7 81 3.5zM60.5 6.7h-1.9V9h1.9V6.7zm-1.9-3.2h5.3v8.7h-5.3v2.3h-3.4v-11h3.4zm-12.9 0h8.6v11H51V6.7h-1.9v7.8h-3.4v-11zm26.4 7.8v3.2h-7.4v-11h7.4v3.2H68v.7h2.6l-.8 3.2H68v.7h4.1z"/></defs><clipPath id="b"><use xlink:href="#a" overflow="visible"/></clipPath><linearGradient id="c" gradientUnits="userSpaceOnUse" x1="1303.436" y1="552.563" x2="1303.576" y2="552.563" gradientTransform="scale(437.9847 -437.9847) rotate(-30 -379.292 2708.314)"><stop offset="0" stop-color="#fbe466"/><stop offset="1" stop-color="#d49e31"/></linearGradient><path d="M62.2-25l54.1 31.3L95.1 43 41 11.7 62.2-25z" clip-path="url(#b)" fill="url(#c)"/><g><defs><path id="d" d="M0 0h42.3v18H0z"/></defs><clipPath id="e"><use xlink:href="#d" overflow="visible"/></clipPath><linearGradient id="f" gradientUnits="userSpaceOnUse" x1="1303.754" y1="557.457" x2="1303.894" y2="557.457" gradientTransform="scale(327.6458 -327.6458) rotate(30 1692.225 -2154.135)"><stop offset="0" stop-color="#d49e31"/><stop offset="1" stop-color="#fbe466"/></linearGradient><path d="M-8.1 4.5l39.7-22.9L50 13.5 10.3 36.4-8.1 4.5z" clip-path="url(#e)" fill="url(#f)"/></g><g><defs><path id="g" d="M23.1 6.6v7.8h-3.4v-2.3H16l-1.5 2.3h-3.4V8.3l-2.4 3.5-2.2-3.5v6.1H3.1v-11h3.4l2.4 3.5 2.4-3.5h3.4v5.1L18 3.4h15.8v5.5h1.9V3.4h3.4v11h-3.4v-2.3h-5.3V6.6h-1.8v7.8H25V6.6h-1.9zm-5 2.3h1.7V6.3l-1.7 2.6z"/></defs><clipPath id="h"><use xlink:href="#g" overflow="visible"/></clipPath><linearGradient id="i" gradientUnits="userSpaceOnUse" x1="1301.292" y1="555.323" x2="1301.432" y2="555.323" gradientTransform="matrix(255.2662 0 0 -255.2662 -332172.719 141764.031)"><stop offset="0" stop-color="#f6f6f6"/><stop offset="1" stop-color="#fbfbfb"/></linearGradient><path d="M3.1 3.4h35.8v11H3.1v-11z" clip-path="url(#h)" fill="url(#i)"/></g></svg>