<svg xmlns="http://www.w3.org/2000/svg" viewBox="0 0 95 20"><path fill="#46D202" d="M.066 0h75.819v20H.066z"/><g fill="#FFF"><path d="M13.58 4.869v.875h2.005c1.417 0 2.132.699 2.132 2.084v4.279c0 1.4-.716 2.084-2.132 2.084H13.58v.939h-2.879v-.939H8.68c-1.415 0-2.116-.699-2.116-2.1V7.829c0-1.385.701-2.084 2.116-2.084h2.021v-.876h2.879zm-4.406 7.303h1.527V7.78H9.174v4.392zm4.406 0h1.495V7.78H13.58v4.392zM21.471 14.686l1.448-2.816h-.509c-.621 0-.891-.111-1.066-.652l-2.02-5.807v-.223h2.991l1.305 5.154h.143l1.495-5.154h2.959v.222l-3.818 9.514h-2.927v-.238h-.001zM34.834 7.335v7.588h-2.736V7.335h-2.609V5.187h7.938v2.148h-2.593zM47.689 12.681c0 1.495-.526 2.242-1.878 2.242h-6.157V5.187h7.748v2.148h-4.884v1.432h2.896c1.463 0 2.276.477 2.276 1.893v2.021h-.001zm-2.865-1.783h-2.306v1.877h2.306v-1.877zM58.522 13.03c0 1.257-.62 1.893-1.878 1.893h-4.391c-1.257 0-1.861-.636-1.861-1.893V7.144c0-1.304.604-1.957 1.861-1.957h4.391c1.258 0 1.878.62 1.878 1.893v5.95zm-2.895-5.695H53.24v5.44h2.387v-5.44zM69.387 5.187v9.736h-2.863V7.335h-1.797v2.705c0 2.609-.557 4.756-3.342 5.011l-.874-2.148c1.558-.318 1.718-1.033 1.718-2.926V5.188l7.158-.001z"/></g><path fill="#46D202" d="M80.26 3.45c0-2.274 1.193-3.45 3.451-3.45h7.837C93.807 0 95 1.176 95 3.45v2.353c0 1.125-.13 1.726-1.116 2.719l-6.721 6.876h7.785V20H80v-3.033L90.174 6.248V4h-5.088v2.51H83.14l-2.88-.261V3.45z"/></svg>