<svg xmlns="http://www.w3.org/2000/svg" viewBox="0 0 119 20"><path fill="#606060" d="M0 0h119v20H0z"/><path fill="#CB3C2B" d="M47.112 9.071l-3.472 2.097V4.357h3.472zM47.438 13.713a2.07 2.07 0 0 0-4.139-.059 2.086 2.086 0 0 0 2.048 2.109 2.055 2.055 0 0 0 2.09-2.021l.001-.029M38.649 4.316v5.696h-1.928V4.316H20.397l-3.281 5.257V4.312h-3.528L11.16 7.498 8.728 4.312H5.199v11.303h3.509V9.581l2.451 3.163 2.45-3.163v6.034h3.51l1.497-2.381h3.829v2.41h3.479V7.579h1.905v8.041h3.509V7.576h1.905v5.65h5.407v2.393h3.472V4.316h-3.473zm-16.207 5.703h-1.817l1.817-2.895v2.895z"/><path fill="#FFF" d="M58.445 14.727C57.11 15.822 56.271 16 54.596 16a6.001 6.001 0 0 1 0-12 6.472 6.472 0 0 1 3.769 1.338l-1.948 2.931-.033-.034a2.528 2.528 0 0 0-3.572 0 2.383 2.383 0 0 0-.74 1.772c0 .692.143 1.256.643 1.741a2.579 2.579 0 0 0 1.884.693c.692 0 1.483-.115 1.98-.613l.05-.049 2.174 2.592-.358.356zM68.252 7.816h-2.913v7.748h-3.465V7.816h-2.915V4.385h9.293zM78.093 12.553a4.684 4.684 0 0 1-3.414 1.402h-2.03v1.609h-3.493V4.388h5.523a4.783 4.783 0 0 1 3.414 8.165m-3.414-4.72h-2.03v2.657h2.03a1.328 1.328 0 0 0 1.319-1.335 1.307 1.307 0 0 0-1.293-1.321l-.026-.001M86.548 14.1h-3.56l-.517 1.482-3.671-.018 3.88-11.176h4.155l3.884 11.176h-3.657l-.514-1.464zm-1-2.86l-.788-2.271-.79 2.271h1.578zM101.46 15.564h-3.48v-3.867h-3.108v3.867h-3.496V4.385h3.496v3.834h3.108V4.385h3.48zM109.841 14.1h-3.571l-.517 1.482-3.672-.018 3.882-11.176h4.157L114 15.564h-3.651l-.508-1.464zm-1-2.86l-.789-2.271-.787 2.271h1.576z"/></svg>