<svg height="215.472902" viewBox="0 0 28 13" width="464.095481" xmlns="http://www.w3.org/2000/svg" xmlns:xlink="http://www.w3.org/1999/xlink"><clipPath id="a"><path d="m4387.07 2694.75h186.01v83.13h-186.01z"/></clipPath><g clip-path="url(#a)" fill="#100e0d" transform="matrix(.15 0 0 -.15 -658.05985 416.861)"><path d="m4489.46 2723.59c.03-2.84-2.08-4.76-3.49-6.99-2.89.58-2.7 3.99-3.54 6.18-.54 4.45-.75 9.04.41 13.33.34 3.69 2.12 6.77 2.61 10.39 1.07 1.73 1.6 3.88 3.23 5.16 1.57-.62.71-2.55 1.55-3.65.11-2.76.47-5.43 1.25-7.94-1.12-1.07.27-2.8-.73-3.85.13-1.06.25-2.13 1.09-2.94-.4-3.39.02-7.14-2.38-9.69m76.22-11.79c-.74 2.11-1.11 5.08-3.76 5.82-.43-2.98-2.53-5.08-4.61-7.22-7.88.36-13.49 7.08-18.77 12.64-.4 2.55 1.71 3.8 2.05 5.91 4.54 7.62 6.93 16.38 12.74 23.37 1.25.28 2.67.11 3.76.89 1.04 2.45-2.12 3.83-2.9 5.45-3.11 1.63-5.98 1.42-8.87 3.52-3.33-3.55-4.5-9.01-8.68-12.09-1.9-4.8-3.81-9.6-7.02-13.76-2.63 2.62-3.14 5.87-5.04 8.73-2.58 6.45-6.15 12.63-8.73 19.07-2.02-.02-3.33 1.98-5.4 1.1 1.83-9.79 6.07-18.84 9.76-28.07 2.54-2.91 3.08-6.43 5.61-9.33.21-3.33-3.79-4.84-3.15-8.01-.8-3.46-4.73-3.72-7.66-3.04-6.28 1.93-11.35 6.68-15.19 12.2-2.83 4.38-.48 10.43-1.4 15.41.4 5.37 1.38 11.64-.05 16.81-3.79.95-7.26 4.04-11.38 2.84-1.73 2.14-2.21-1.82-4.1-1.5-5.7-14-11.15-31.27-7.5-47-1.64-1.31-3.45-2.04-5.15-3.21-1.69.27-2.94-.41-3.82 1.56-1.19 1.98-2.34 4-2.54 6.31-2.65 5-1.7 11.14-2.51 16.75.42 1.45-1.63 2.81.05 3.96-1.21 5.5.92 12.08-2.19 16.98-2.69 2.09-5.84 3.26-9.44 3.58-4.15-2.26-6.23-6.75-7.13-11.29-1.95-1.53-1.79-4.2-2.95-6.14-2.04-2.15-1.91-5.97-3.5-8.58.2-2.29-2.3-3.56-1.72-5.64-1.85-2.18-2.11-5.18-4.01-7.3-.44-1.55-.69-3.77-2.51-4.04-.71.71-.41 1.79-.36 2.79-1.79 8.95-.8 18.8-1.2 28.21l.78 1.75c-.72 4.27.33 8.72.46 12.51-.2 2.36-.64 4.42-.6 7.06-1.17 2.56-3.53 3.93-6 4.51-4.08 2.57-8.4.57-11.8-2.01-1.53 3.34-5.21 3.19-7.94 3.43-1.84-.59-1.8-2.74-2.81-4.02-5.32-10.2-7.05-22.27-9.99-33.69.81-1.33-.74-2.66-.02-3.97-1.04-2.34-.23-4.87-.34-7.3-1.08-4.78.12-9.57.87-14.15.89-.21 1.06-1.18 1.06-1.91 3-3.28 6.31-5.92 10.41-7.03 1.24.79 1.65 2.5 2.47 3.75 1.98 5.35 3.15 11.55 3.37 17.45 1.49 3.68 2.01 7.84 2.58 12 .96 2.8 1.86 5.89 2.33 9.27.53.48 1.26.88 1.08 1.72.47 1.61.63 3.76.74 5.14l1.01.83.73-5.55c-1.75-1.9.1-4.49-1.21-6.63-.1-6.48.13-12.85 1.74-18.79.89-8.72 9.74-15.02 17.44-17.13 5.03 3.42 7.8 8.57 9.75 13.82 1.73 3.46 4.06 7 4.03 10.98 2 3.8 2.29 8.51 4.72 12.1 1.05-5.79 2.06-11.6 3.08-17.39 2.85-7.86 7.69-16.43 16.36-18.85 2.84-.11 5.44 1.34 7.34 3.33 3.18-2.25 6.4-6.02 10.57-4.89 5.3 4.27 6.42 10.69 9.07 16.31l.3-.02c2.5-2.9 5.84-5.14 9.16-6.93 4.87-3.47 4.87-3.47 10.38-5.27l.54-.68c-1.31-5.57-.59.36-1.31-5.57-1.46-4.58 4.43-6.01 6.63-8.91l1.34 1.39c1.59 5.93-.28.42 2.18 5.9 2.03.58.15 3.2 2.19 3.78.91 1.41 1.2 3.17 2.49 4.39.7 2.21 2 4.16 3.89 5.75 2.91-1.22 5.17-3.71 7.76-5.54 5.1-4.13 12.08-7.62 18.78-5.62 2.94 1.12 3.76 3.96 3.66 7"/><path d="m4568.54 2716.87h-1.03v.35h2.47v-.35h-1.03v-2.74h-.41"/><path d="m4570.33 2717.21h.56l.97-2.59.98 2.59h.55v-3.08h-.38v2.56h-.01l-.96-2.56h-.35l-.96 2.56h-.01v-2.56h-.39"/></g></svg>