<svg width="126" height="66" viewBox="0 0 126 66" fill="none" xmlns="http://www.w3.org/2000/svg">
<path d="M125.71 0H99.25L91.31 7.93997L83.37 0H46.32L35.73 10.59L25.14 0H0V42.34H23.82V30.43L35.73 42.34L67.48 10.59L99.23 42.34H125.69L104.52 21.17L125.69 0H125.71Z" fill="black"/>
<path d="M52.9404 42.3401H82.0504L67.4904 27.79L52.9404 42.3401Z" fill="#E07A33"/>
<path fill-rule="evenodd" clip-rule="evenodd" d="M62.2404 52.6996C61.8804 52.6096 61.9904 52.3496 62.2104 52.3496C62.3104 52.3496 64.9604 52.3496 64.9604 52.3496C65.2204 52.3496 65.6503 52.3896 65.9803 52.7996C66.3003 53.1896 66.2303 53.7996 66.2303 53.7996L65.9803 56.2796C65.9803 56.2796 66.4903 55.9696 66.9803 55.8396C67.5203 55.6896 67.9703 55.6196 68.8503 55.6896C69.7303 55.7596 70.9104 56.1596 71.7104 57.0696C72.4904 57.9596 72.8203 59.4296 72.7503 60.5196C72.6403 62.1096 72.2103 62.9596 71.7903 63.6296C71.3003 64.4196 69.7604 65.9296 67.3604 65.9296C65.3504 65.9296 64.3404 65.1996 63.8104 64.7196C63.1704 64.1496 62.9503 63.4596 62.9503 63.4596C62.8503 63.0696 62.9803 63.0296 63.1703 63.1296C63.3003 63.2596 64.1004 64.1796 65.7804 64.4796C66.8104 64.6696 68.3104 64.5496 69.4304 63.2396C70.2204 62.3096 70.3803 61.4496 70.5103 60.3396C70.6403 59.2096 70.2804 57.4096 68.8304 56.7796C67.8904 56.3696 66.9904 56.6796 66.6804 56.8296C66.4504 56.9396 65.9603 57.3896 65.9203 57.7196C65.8903 58.0496 65.5904 60.6896 65.5904 60.6896C65.5304 61.4396 65.4504 62.0196 65.6804 62.5196C65.7904 62.7696 65.8403 62.8896 66.1403 63.0696C66.3003 63.1196 66.1404 63.2796 65.8704 63.3396C65.5104 63.4096 64.9604 63.3196 64.7104 63.2396C64.2404 63.0796 63.6803 62.7996 63.3203 62.0696C63.0803 61.5896 62.9804 61.0996 63.0304 60.4196C63.0604 59.9896 63.3304 57.1896 63.6104 54.2596C63.6804 53.5196 63.5203 53.2096 63.1003 52.9796C62.8003 52.8196 62.4203 52.7396 62.2503 52.6996H62.2404Z" fill="#8F8F8F"/>
<path d="M73.8399 60.4994C73.9499 57.1194 77.0298 55.0993 79.8798 55.1493C81.1098 55.1693 82.5298 55.5693 83.2498 56.2293C83.4898 56.4793 83.2099 56.5893 82.9899 56.4893C82.5399 56.2893 82.0498 56.0693 80.9398 56.1393C78.8398 56.2693 76.7799 57.7793 76.6799 60.3993C76.5799 62.9993 78.6298 64.1193 79.6598 64.3693C80.7898 64.6393 81.9399 64.5493 83.0199 63.9693C83.2599 63.8493 83.3798 64.0193 83.1898 64.3193C82.8698 64.7293 81.5099 65.7593 79.5599 65.7793C75.8999 65.8193 73.7399 63.2093 73.8299 60.5093L73.8399 60.4994Z" fill="#8F8F8F"/>
<path fill-rule="evenodd" clip-rule="evenodd" d="M47.0603 55.6794C46.8503 55.6394 46.8203 55.3994 47.0103 55.3394C47.0303 55.3294 49.3303 55.3394 49.3503 55.3394C49.3503 55.3394 50.0203 55.3494 50.3903 55.6094C50.7103 55.8294 50.9103 56.1994 50.8703 56.6294C50.8203 57.1094 50.1703 63.8694 50.1703 63.8694C50.1703 63.8694 50.1203 64.3494 50.3003 64.6394C50.5503 65.0694 51.3103 65.1394 51.5303 65.1794C51.9503 65.2394 51.8303 65.6194 51.5303 65.6094C51.3603 65.6394 48.8203 65.6394 48.6903 65.5994C48.1603 65.4694 47.5903 64.9994 47.7503 63.7494C47.7503 63.7494 48.4203 57.3694 48.4403 57.1094C48.5303 56.6194 48.2003 56.0494 47.7403 55.8794C47.3503 55.7394 47.1903 55.7194 47.0703 55.6894L47.0603 55.6794Z" fill="#8F8F8F"/>
<path fill-rule="evenodd" clip-rule="evenodd" d="M52.1101 55.6696C51.9001 55.6296 51.8701 55.3896 52.0601 55.3296C52.0801 55.3196 54.3801 55.3296 54.4001 55.3296C54.4001 55.3296 55.0701 55.3396 55.4401 55.5996C55.7601 55.8196 55.9601 56.1896 55.9201 56.6196C55.8701 57.0996 55.2201 63.8596 55.2201 63.8596C55.2201 63.8596 55.1701 64.3296 55.3501 64.6296C55.6001 65.0596 56.4101 65.1596 56.6201 65.1996C57.0501 65.2596 56.9501 65.6096 56.6401 65.6096C56.5801 65.6096 54.0701 65.6596 53.7301 65.5896C53.3601 65.5396 52.5701 65.1696 52.7901 63.7396C52.7901 63.7396 53.4601 57.3596 53.4801 57.0996C53.5701 56.6096 53.2401 56.0396 52.7801 55.8696C52.3901 55.7296 52.2301 55.7096 52.1101 55.6796V55.6696Z" fill="#8F8F8F"/>
<path fill-rule="evenodd" clip-rule="evenodd" d="M57.0505 55.6198C56.8405 55.5798 56.8105 55.3398 57.0005 55.2798C57.0205 55.2698 59.3205 55.2798 59.3405 55.2798C59.3405 55.2798 60.0105 55.2898 60.3805 55.5498C60.7005 55.7698 60.9005 56.1398 60.8605 56.5698C60.8105 57.0498 60.1605 63.8098 60.1605 63.8098C60.1605 63.8098 60.1105 64.2898 60.2905 64.5798C60.5405 65.0098 61.3505 65.1098 61.5605 65.1498C61.9905 65.2098 61.8905 65.5598 61.5805 65.5598C61.5305 65.5598 59.0105 65.6098 58.6705 65.5398C58.3005 65.4898 57.5505 65.0798 57.7305 63.6898C57.7305 63.6898 58.4005 57.3098 58.4205 57.0498C58.5105 56.5598 58.1805 55.9898 57.7205 55.8198C57.3305 55.6798 57.1705 55.6598 57.0505 55.6298V55.6198Z" fill="#8F8F8F"/>
</svg>
