<svg width="157" height="58" viewBox="0 0 157 58" fill="none" xmlns="http://www.w3.org/2000/svg">
<path d="M17.3648 32.2195C20.9506 26.6492 29.0505 29.4855 28.7609 35.3965C28.582 38.9397 26.0354 41.6992 21.3083 41.6992C17.1178 41.6992 13.3532 38.3179 14.0261 31.964C14.4604 27.8246 17.2285 22.578 18.3443 18.5749C20.4736 10.8924 19.1279 5.23691 15.6784 2.43473C11.3942 -1.0403 5.01483 -0.571863 1.05431 2.42621C3.58393 2.16217 8.57503 3.72082 6.42016 12.1018C4.29085 20.355 0.321834 26.2745 0.0237301 33.6164C-0.529891 47.0821 8.67723 55.0458 19.9115 55.0458C31.6993 55.0458 39.5182 47.508 40.6765 38.0198C41.3749 32.2621 38.7687 26.0104 33.5476 23.549C28.7268 21.2749 18.1654 21.3856 17.3648 32.2195Z" fill="#EA1C67"/>
<g style="mix-blend-mode:multiply" opacity="0.6">
<mask id="mask0_77_3162" style="mask-type:luminance" maskUnits="userSpaceOnUse" x="0" y="0" width="41" height="56">
<path d="M17.3648 32.2195C20.9506 26.6492 29.0505 29.4855 28.7609 35.3965C28.582 38.9397 26.0354 41.6992 21.3083 41.6992C17.1178 41.6992 13.3532 38.3179 14.0261 31.964C14.4604 27.8246 17.2285 22.578 18.3443 18.5749C20.4736 10.8924 19.1279 5.23691 15.6784 2.43473C11.3942 -1.0403 5.01483 -0.571863 1.05431 2.42621C3.58393 2.16217 8.57503 3.72082 6.42016 12.1018C4.29085 20.355 0.321834 26.2745 0.0237301 33.6164C-0.529891 47.0821 8.67723 55.0458 19.9115 55.0458C31.6993 55.0458 39.5182 47.508 40.6765 38.0198C41.3749 32.2621 38.7687 26.0104 33.5476 23.549C28.7268 21.2749 18.1654 21.3856 17.3648 32.2195Z" fill="white"/>
</mask>
<g mask="url(#mask0_77_3162)">
<path d="M41.3746 -1.04883H-0.530273V55.0458H41.3746V-1.04883Z" fill="#231F20"/>
<path d="M41.6984 31.0014V48.1381H43.1378C41.8091 49.6712 40.3612 51.0596 38.8196 52.2861C35.7278 54.7391 32.2443 56.5532 28.5563 57.5753V55.3608H11.4281V56.4595C9.65652 55.7015 7.97863 54.7475 6.42849 53.6318C3.31969 51.3917 0.67082 48.4959 -1.38184 45.1231H-0.83672V8.74589H-1.18593C0.934864 5.15161 3.63482 2.05134 6.7351 -0.401623C7.51017 -1.01486 8.30228 -1.58548 9.11994 -2.12207V-1.35555H39.1347V-1.74731C40.6934 -0.631551 42.1328 0.654545 43.4359 2.07692H41.7069V31.01L41.6984 31.0014Z" fill="#231F20"/>
<path d="M41.6984 30.9844V48.0444H43.0527C41.7325 49.569 40.2931 50.9488 38.7515 52.1753C35.6768 54.6197 32.2017 56.4168 28.5308 57.4389V55.3692H11.4707V56.3317C9.70766 55.5736 8.0383 54.6282 6.48816 53.5209C3.38789 51.2979 0.756053 48.4106 -1.28809 45.0463H-0.845199V8.83099H-1.09221C1.02859 5.25375 3.71152 2.17051 6.78624 -0.273941C8.32787 -1.49191 9.96319 -2.55659 11.6752 -3.44238V-1.34712H39.0411V-1.61115C40.5912 -0.495396 42.0221 0.782174 43.3252 2.20455H41.6899V31.0014L41.6984 30.9844Z" fill="#262122"/>
<path d="M41.6981 30.9587V47.942H42.9586C41.6384 49.4581 40.2075 50.8294 38.6744 52.0474C35.6082 54.4833 32.1588 56.2805 28.4963 57.2855V55.3521H11.5215V56.1782C9.75841 55.4287 8.10606 54.4833 6.56444 53.3761C3.48119 51.1616 0.857887 48.2827 -1.17773 44.944H-0.845575V8.89051H-0.981854C1.1219 5.3303 3.79634 2.25556 6.86255 -0.171852C8.39565 -1.38982 10.0224 -2.44597 11.7259 -3.32324V-1.36429H38.9725V-1.50907C40.5142 -0.401824 41.9451 0.875782 43.2397 2.28964H41.6981V30.9587Z" fill="#262223"/>
<path d="M41.6984 30.9333V47.84H42.8653C41.5621 49.3475 40.1312 50.7188 38.6066 51.9283C35.5575 54.3557 32.1165 56.1358 28.4711 57.1493V55.3607H11.5729V56.0506C9.82688 55.3011 8.17452 54.3642 6.6329 53.257C3.56669 51.051 0.960426 48.1892 -1.0752 44.859H-0.845239V8.96729H-0.879315C1.21593 5.41559 3.88184 2.36644 6.93101 -0.0609729C8.4556 -1.27042 10.0739 -2.32655 11.7688 -3.19531V-1.36414H38.8962V-1.38114C40.4293 -0.282411 41.8517 0.986652 43.1378 2.392H41.6899V30.9333H41.6984Z" fill="#282424"/>
<path d="M41.6981 30.9157V47.7458H42.7713C41.4681 49.2448 40.0458 50.6076 38.5297 51.817C35.489 54.2274 32.0736 56.0075 28.4453 57.0126V55.3688H17.1344V57.5662C9.42628 56.1949 3.07239 51.4082 -0.956261 44.7903H-0.837008V11.7945H-2.2168C-1.7739 10.8491 -1.27991 9.93777 -0.760355 9.05198C1.32637 5.52584 3.97524 2.48514 7.01589 0.0662434C8.53196 -1.13469 10.1502 -2.19081 11.8367 -3.05957V-1.35612H36.46V-2.76996C37.2777 -2.31003 38.0698 -1.79901 38.8363 -1.24539C40.3609 -0.146669 41.7748 1.11387 43.0609 2.51921H41.7066V30.9328L41.6981 30.9157Z" fill="#292627"/>
<path d="M41.6984 30.8913V47.6447H42.6865C41.3918 49.1438 39.9779 50.498 38.4619 51.699C35.4383 54.1008 32.0314 55.8724 28.4201 56.8689V55.3614H17.1603V57.414C9.48623 56.0427 3.15793 51.2816 -0.853696 44.6892H-0.845197V11.8467H-2.11426C-1.67136 10.9098 -1.18589 9.99848 -0.666342 9.1212C1.41187 5.60358 4.05223 2.57996 7.07586 0.178099C8.58341 -1.02283 10.1931 -2.06191 11.871 -2.93066V-1.36352H36.3837V-2.64958C37.2013 -2.18965 37.9849 -1.68716 38.743 -1.13354C40.2675 -0.0433309 41.6729 1.21724 42.9505 2.61407H41.6814V30.8998L41.6984 30.8913Z" fill="#2B2728"/>
<path d="M41.6982 30.8738V47.5505H42.5925C41.2979 49.041 39.8925 50.3953 38.3935 51.5877C35.3784 53.9725 31.997 55.7356 28.4028 56.7321V55.3694H17.1941V57.2772C9.55409 55.9145 3.25986 51.1789 -0.734732 44.6121C-1.23725 43.7859 -1.69718 42.9427 -2.12305 42.0654H-0.828409V11.9144H-1.98677C-1.54387 10.986 -1.05838 10.0747 -0.538826 9.2059C1.53086 5.70531 4.15416 2.6902 7.16927 0.305367C8.67682 -0.887047 10.2696 -1.92616 11.9475 -2.79492V-1.35551H36.3494V-2.50531C37.167 -2.04538 37.9506 -1.5429 38.7086 -0.997796C40.2247 0.092411 41.6215 1.33598 42.8906 2.72429H41.7152V30.8823L41.6982 30.8738Z" fill="#2D292A"/>
<path d="M41.6988 30.8483V47.4484H42.4994C41.2133 48.9304 39.808 50.2762 38.3174 51.4601C35.3194 53.8364 31.9465 55.591 28.3693 56.5875V55.361H17.2117V57.1241C9.60581 55.7698 3.34562 51.0512 -0.631929 44.5185C-1.12593 43.7009 -1.58586 42.8577 -2.01172 41.9889H-0.836335V11.9742H-1.87544C-1.43254 11.0458 -0.955575 10.143 -0.436023 9.2742C1.62515 5.79916 4.23995 2.79256 7.23802 0.416246C8.73706 -0.776168 10.3298 -1.80675 11.9906 -2.66699V-1.36388H36.2818V-2.38591C37.0909 -1.92598 37.8745 -1.43202 38.624 -0.886917C40.1316 0.194773 41.5199 1.43832 42.789 2.81811H41.7073V30.8398L41.6988 30.8483Z" fill="#2E2A2B"/>
<path d="M41.6986 30.8221V47.3456H42.4141C41.1365 48.8276 39.7396 50.1562 38.2491 51.3401C35.2681 53.7079 31.9123 55.454 28.3521 56.442V55.3603H17.2456V56.9786C9.67378 55.6328 3.43914 50.9313 -0.521375 44.4327C-1.01538 43.6235 -1.4753 42.7803 -1.90116 41.9115H-0.836509V14.8949H-2.96582C-2.24185 12.9359 -1.35606 11.0791 -0.325469 9.35014C1.72719 5.88362 4.32494 2.89409 7.30597 0.534814C8.79649 -0.649082 10.3807 -1.6797 12.0416 -2.53142V-1.35604H33.7265V-3.48535C35.4384 -2.75287 37.0482 -1.84151 38.5472 -0.759823C40.0463 0.321867 41.4346 1.55689 42.6951 2.93668H41.7071V30.8307L41.6986 30.8221Z" fill="#302C2D"/>
<path d="M41.6984 30.8057V47.2525H42.3202C41.0426 48.726 39.6543 50.0546 38.1723 51.23C35.2083 53.5893 31.861 55.3268 28.3179 56.3063V55.3609H17.2625V56.8429C9.72471 55.4972 3.52415 50.8297 -0.419333 44.3481C-1.40733 42.7298 -2.25053 41.0008 -2.94043 39.1781H-0.845195V14.9381H-2.86378C-2.13981 12.9961 -1.25403 11.1479 -0.240478 9.41889C1.80366 5.96941 4.39291 2.99689 7.35692 0.637617C8.83892 -0.537762 10.4146 -1.56837 12.0669 -2.4201V-1.38097H33.6496V-3.37402C35.3531 -2.64154 36.9543 -1.73019 38.4534 -0.657021C39.9439 0.416152 41.3237 1.64263 42.5842 3.01391H41.6899V30.7802L41.6984 30.8057Z" fill="#312E2F"/>
<path d="M41.6984 30.7802V47.1503H42.235C40.9659 48.6153 39.5861 49.944 38.1041 51.1108C35.1486 53.4531 31.8183 55.1821 28.2922 56.1615V55.3609H17.2879V56.6981C9.78424 55.3609 3.60923 50.7105 -0.317217 44.2629C-1.2967 42.6532 -2.13991 40.9327 -2.82129 39.1185H-0.845282V14.9977H-2.73611C-2.02066 13.0643 -1.14339 11.2245 -0.129837 9.50406C1.89727 6.07161 4.478 3.1076 7.43348 0.765361C8.90696 -0.410019 10.4827 -1.42358 12.1265 -2.2753V-1.36395H33.6155V-3.2207C35.3104 -2.49674 36.9117 -1.58536 38.3937 -0.5207C39.8757 0.543956 41.2555 1.77042 42.499 3.13318H41.6984V30.7716V30.7802Z" fill="#342F30"/>
<path d="M41.6982 30.755V47.0485H42.1411C40.8806 48.5049 39.5008 49.8251 38.0273 50.992C35.0889 53.3257 31.7756 55.0462 28.2665 56.0257V55.3613H17.3134V56.5537C9.84375 55.225 3.70281 50.5917 -0.206602 44.1782C-1.18609 42.577 -2.02077 40.8565 -2.70215 39.0593H-0.845396V15.0492H-2.61697C-1.90152 13.1158 -1.03277 11.2931 -0.0192218 9.58115C1.99936 6.16574 4.57157 3.21875 7.51002 0.885028C8.9835 -0.281834 10.5422 -1.29538 12.1775 -2.13858V-1.36354H33.5643V-3.08398C35.2507 -2.36002 36.8434 -1.45721 38.3254 -0.392558C39.8074 0.672097 41.1702 1.89008 42.4137 3.24432H41.6982V30.755Z" fill="#353132"/>
<path d="M41.6982 30.738V46.9548H42.0474C40.7868 48.4028 39.424 49.7144 37.9591 50.8813C35.0291 53.2065 31.733 54.9185 28.2409 55.8894V55.3699H17.3388V56.4175C9.9118 55.0973 3.7879 50.4895 -0.0959613 44.1015C-1.06693 42.5088 -1.90163 40.7969 -2.58301 39.0082H-0.845483V15.1089H-2.50633C-1.79088 13.184 -0.922141 11.3698 0.0828934 9.66632C2.09296 6.26794 4.64815 3.32951 7.57808 1.01282C9.04305 -0.145521 10.5932 -1.1591 12.22 -1.99379V-1.34647H33.5046V-2.93066C35.1825 -2.21522 36.7667 -1.31238 38.2402 -0.256237C39.7136 0.799901 41.0764 2.01787 42.3114 3.36359H41.6896V30.7465L41.6982 30.738Z" fill="#363333"/>
<path d="M41.6983 30.7117V46.8519H41.9623C40.7103 48.2913 39.3475 49.6029 37.8911 50.7612C34.9782 53.0694 31.6991 54.7814 28.224 55.7439V55.3691H17.3731V56.2719C9.9801 54.9518 3.89026 50.3695 0.0149174 44.0156C-0.947531 42.4314 -1.78222 40.7279 -2.45508 38.9478H-0.836807V15.1677H-2.37843C-1.67149 13.2598 -0.802745 11.4457 0.193772 9.75075C2.19532 6.36089 4.74199 3.44794 7.65489 1.13125C9.11133 -0.0270936 10.6615 -1.02358 12.2797 -1.86678V-1.35577H33.4621V-2.80371C35.1315 -2.08826 36.7072 -1.19395 38.1722 -0.13781C39.6371 0.909811 40.9914 2.12781 42.2264 3.46502H41.6983V30.7117Z" fill="#383435"/>
<path d="M41.6979 30.686V46.7495H41.8683C40.6247 48.189 39.262 49.4836 37.8141 50.6334C32.0138 55.2327 24.7486 57.4216 17.3897 56.11C10.0308 54.7983 3.96654 50.2331 0.116743 43.9133C-0.845705 42.3291 -1.67186 40.6427 -2.34473 38.8626H-0.845709V15.1931H-2.26807C-1.56114 13.2938 -0.700919 11.4882 0.295598 9.80174C2.28863 6.42891 4.81827 3.52452 7.71414 1.22487C9.16207 0.0750396 10.7037 -0.921478 12.3134 -1.75617V-1.37288H33.4021V-2.68457C35.063 -1.96912 36.6387 -1.08333 38.0951 -0.0271945C39.5516 1.02043 40.9058 2.22138 42.1238 3.55858H41.6894V30.6775L41.6979 30.686Z" fill="#393637"/>
<path d="M41.6984 30.6693V46.6561H41.7751C40.5401 48.0785 39.1858 49.3731 37.7464 50.523C31.9802 55.1052 24.7491 57.2856 17.4243 55.9825C10.0994 54.6794 4.06922 50.1311 0.236463 43.8454C-0.725986 42.2697 -1.54366 40.5918 -2.20801 38.8202H-0.828192V15.2615H-2.12283C-1.42442 13.3707 -0.564175 11.5736 0.432343 9.90422C2.41686 6.54843 4.92946 3.65255 7.8168 1.36993C9.25622 0.220098 10.7893 -0.767886 12.3991 -1.59406V-1.34708H33.377V-2.52246C35.0379 -1.81553 36.5966 -0.929705 38.0445 0.117916C39.4924 1.15702 40.8381 2.35791 42.0561 3.69512H41.7154V30.6863L41.6984 30.6693Z" fill="#3B3839"/>
<path d="M41.6977 30.6433V44.322H43.4438C42.8816 45.0971 42.2939 45.8381 41.6807 46.5535C40.4457 47.9759 39.1 49.262 37.6691 50.4033C31.9284 54.9601 24.7314 57.132 17.4406 55.8288C10.1499 54.5342 4.1452 50.0115 0.329474 43.7429C-0.624457 42.1757 -1.4421 40.5063 -2.10645 38.7432H-0.84591V15.2952H-2.02979C-1.33138 13.4129 -0.479672 11.6243 0.508329 9.95496C2.48433 6.6162 4.9884 3.73735 7.85871 1.46324C10.729 -0.819379 13.9656 -2.49724 17.3895 -3.45117V-1.37296H33.2997V-2.41209C34.9521 -1.70516 36.5022 -0.827871 37.9416 0.211233C39.3896 1.25034 40.7268 2.44274 41.9362 3.77143H41.6892V30.6348L41.6977 30.6433Z" fill="#3C3A3B"/>
<path d="M41.6989 30.6273V44.2464H43.3512C42.7976 45.0129 42.2099 45.7539 41.5967 46.4608C40.3702 47.8747 39.033 49.1608 37.6021 50.2936C31.887 54.8333 24.724 56.9882 17.4758 55.6936C10.2192 54.3989 4.24005 49.9018 0.449881 43.6672C-0.495533 42.1085 -1.31319 40.4392 -1.97754 38.6931H-0.836231V15.3559H-1.89236C-1.19395 13.4821 -0.350739 11.7105 0.637261 10.0411C2.60474 6.71938 5.10029 3.8576 7.95357 1.59201C10.8154 -0.673572 14.0349 -2.35146 17.4418 -3.29688V-1.3635H33.2753V-2.26632C34.9191 -1.55939 36.4608 -0.682108 37.9002 0.348478C39.3396 1.37907 40.6683 2.57151 41.8777 3.89168H41.7159V30.6273H41.6989Z" fill="#3E3B3C"/>
<path d="M41.6981 30.6015V44.1524H43.2482C42.6946 44.919 42.1154 45.66 41.5022 46.3584C40.2842 47.7637 38.947 49.0413 37.5331 50.1741C31.8521 54.6882 24.7232 56.8346 17.5006 55.5485C10.278 54.2624 4.33292 49.7823 0.559783 43.5818C-0.385631 42.0316 -1.19476 40.3708 -1.85059 38.6333H-0.828506V15.4152H-1.76541C-1.07551 13.55 -0.23232 11.7784 0.747163 10.1261C2.69761 6.82137 5.18466 3.96809 8.02942 1.71102C10.8742 -0.546048 14.0767 -2.21545 17.475 -3.15234V-1.35522H33.2319V-2.12174C34.8673 -1.42332 36.4004 -0.546059 37.8312 0.476011C39.2621 1.5066 40.5823 2.6905 41.7833 3.99364H41.7151V30.6015H41.6981Z" fill="#3F3C3D"/>
<path d="M41.6984 30.5757V44.0585H43.1463C42.5927 44.825 42.0136 45.549 41.4088 46.256C40.1909 47.6528 38.8707 48.9304 37.4568 50.0461C31.7929 54.5432 24.7065 56.681 17.518 55.3949C10.3379 54.1088 4.41844 49.6543 0.653822 43.4879C-0.283075 41.9462 -1.09222 40.2939 -1.74805 38.5649H-0.845221V15.4576H-1.66287C-0.972973 13.6008 -0.138281 11.8378 0.841202 10.1939C2.78313 6.90627 5.25314 4.07006 8.08939 1.82151C10.9171 -0.427042 14.1026 -2.07943 17.4839 -3.01633V-1.36398H28.0282V-3.52734C31.6225 -2.88855 34.8931 -1.44911 37.7464 0.595025C39.1688 1.61709 40.489 2.79246 41.6814 4.0956C42.2776 4.75143 42.8482 5.43278 43.3848 6.14823H41.7069V30.5672L41.6984 30.5757Z" fill="#413D3E"/>
<path d="M41.6979 30.5503V43.965H43.0521C42.507 44.723 41.9278 45.4555 41.3231 46.1454C40.1137 47.5422 38.7935 48.8028 37.3882 49.9185C31.7583 54.3901 24.6975 56.5194 17.5515 55.2418C10.397 53.9642 4.51158 49.5353 0.772513 43.3943C-0.164384 41.8612 -0.964994 40.2174 -1.6123 38.4884H-0.828707V15.4918H-1.53565C-0.854273 13.6436 -0.0110546 11.889 0.951394 10.2537C2.88481 6.97456 5.34628 4.15538 8.15697 1.92386C10.9762 -0.316172 14.1446 -1.96002 17.5089 -2.8884V-1.38083H27.9936V-3.39941C31.5709 -2.76062 34.833 -1.33824 37.6607 0.697378C39.0746 1.71093 40.3862 2.88629 41.5786 4.18943C42.1748 4.83674 42.737 5.51814 43.2736 6.23359H41.6979V30.5333V30.5503Z" fill="#444142"/>
<path d="M41.6985 30.5247V43.8798H42.9505C42.4054 44.6378 41.8348 45.3618 41.23 46.0517C40.0291 47.44 38.7175 48.7006 37.3121 49.8078C31.7078 54.2538 24.681 56.3746 17.5691 55.1056C10.4487 53.8365 4.5974 49.4245 0.875361 43.3177C-0.981398 40.26 -2.3101 36.7849 -3 33.0544H-0.845138V21.3347H-3C-1.56059 13.2773 2.62137 6.49761 8.22572 2.05161C11.0279 -0.171394 14.1878 -1.81523 17.5266 -2.74361V-1.37229H27.9687V-3.24609C31.5289 -2.6073 34.774 -1.19346 37.5932 0.833647C39.007 1.8472 40.3102 3.01407 41.4941 4.30017C42.0818 4.94748 42.6524 5.62887 43.1805 6.33581H41.707V30.5162L41.6985 30.5247Z" fill="#454242"/>
<path d="M41.6984 30.508V43.7949H42.8482C42.3031 44.5444 41.741 45.2684 41.1362 45.9583C39.9353 47.3381 38.6322 48.5901 37.2353 49.6973C31.6565 54.1263 24.6724 56.2301 17.5861 54.9695C10.5082 53.709 4.67393 49.3141 0.968925 43.2413C-0.879317 40.2006 -2.19948 36.7426 -2.88086 33.0376H-0.853751V21.3775H-2.88086C-1.44996 13.3628 2.70644 6.60864 8.28523 2.18819C11.0789 -0.0177746 14.2132 -1.65312 17.5435 -2.5815V-1.35501H27.926V-3.08398C31.4692 -2.45371 34.6972 -1.03988 37.4994 0.978705C38.9047 1.98374 40.1994 3.14213 41.3747 4.42823C41.9624 5.06702 42.5246 5.7484 43.0526 6.44681H41.6813V30.508H41.6984Z" fill="#464445"/>
<path d="M41.6979 30.4819V43.7007H42.7455C42.2089 44.4502 41.6382 45.1657 41.042 45.8556C39.8496 47.2268 38.5465 48.4703 37.1667 49.5776C31.6219 53.981 24.6634 56.0763 17.6196 54.8242C10.5758 53.5722 4.77561 49.1943 1.08764 43.1471C-0.752082 40.1235 -2.07225 36.674 -2.74512 32.9945H-0.845788V21.3941H-2.74512C-1.32274 13.4134 2.81663 6.70182 8.36988 2.29841C11.1465 0.092443 14.2723 -1.53436 17.5855 -2.4457V-1.36405H27.917V-2.94824C31.4431 -2.31797 34.6541 -0.912629 37.4392 1.08892C38.8361 2.09396 40.1307 3.24381 41.2975 4.5214C41.8852 5.16019 42.4388 5.83304 42.9669 6.53145H41.6979V30.4734V30.4819Z" fill="#484647"/>
<path d="M41.698 30.4649V43.6241H42.652C42.1154 44.3736 41.5532 45.0805 40.957 45.7619C39.7731 47.1332 38.4785 48.3681 37.0987 49.4669C31.5795 53.8533 24.655 55.94 17.6453 54.688C10.6356 53.4359 4.86095 49.0922 1.19002 43.0705C-0.641186 40.0639 -1.94433 36.6314 -2.61719 32.9605H-0.845612V21.4196H-2.61719C-1.20333 13.4815 2.919 6.80401 8.43818 2.41763C11.1978 0.228696 14.3066 -1.38956 17.6027 -2.30091V-1.35551H27.8831V-2.79492C31.3922 -2.17316 34.5861 -0.767791 37.3628 1.22524C38.7511 2.22176 40.0372 3.3716 41.204 4.64067C41.7917 5.27946 42.3453 5.94378 42.8649 6.6422H41.6895V30.4649H41.698Z" fill="#4A4546"/>
<path d="M41.6982 30.4395V43.5305H42.5499C42.0133 44.2715 41.4512 44.987 40.8635 45.6598C39.6796 47.0226 38.402 48.2491 37.0222 49.3393C31.5286 53.7001 24.6382 55.7783 17.6711 54.5348C10.6954 53.2913 4.95482 48.9645 1.30093 42.9769C-0.521764 39.9788 -1.82491 36.5719 -2.48926 32.918H-0.845436V21.4283H-2.48926C-1.08391 13.5328 3.02141 6.88081 8.51503 2.51998C11.2576 0.339566 14.3579 -1.27015 17.637 -2.17298V-1.37235H27.8662V-2.66699C31.3497 -2.04523 34.5352 -0.65692 37.2948 1.3276C38.6746 2.3156 39.9522 3.46542 41.119 4.72597C41.6982 5.36476 42.2518 6.02913 42.7714 6.71903H41.6982V30.4225V30.4395Z" fill="#4B494B"/>
<path d="M41.6984 30.4222V43.4451H42.4479C41.9198 44.1861 41.3577 44.8931 40.77 45.5659C39.5946 46.9202 38.317 48.1466 36.9543 49.2283C31.4862 53.5721 24.6383 55.6333 17.6968 54.3983C10.7552 53.1633 5.04015 48.8536 1.4118 42.9C-0.402369 39.919 -1.69698 36.5206 -2.36133 32.8923H-0.84526V21.4621H-2.36133C-0.9645 13.6092 3.12378 6.99131 8.58333 2.64751C11.3174 0.475615 14.3921 -1.12562 17.6627 -2.02845V-1.36413H27.8408V-2.52246C31.3158 -1.9007 34.4758 -0.520923 37.2268 1.45508C38.5981 2.44308 39.8757 3.5759 41.0255 4.83645C41.6047 5.46673 42.1498 6.13109 42.6693 6.82098H41.6984V30.4137V30.4222Z" fill="#4E494B"/>
<path d="M41.6986 30.3967V41.0688H43.8449C41.9711 44.2287 39.6033 46.9542 36.8863 49.1176C31.4438 53.4359 24.63 55.4885 17.731 54.262C10.8235 53.0355 5.14255 48.7513 1.53123 42.8148C-0.274421 39.8508 -1.56053 36.478 -2.22487 32.8582H-0.836558V21.4877H-2.2334C-0.836571 13.6688 3.21764 7.08503 8.66016 2.77531C11.3772 0.611928 14.4434 -0.980815 17.6884 -1.87513V-1.35559H27.8154V-2.36914C31.2649 -1.7559 34.4163 -0.376085 37.1504 1.5914C38.5216 2.57088 39.7822 3.70369 40.932 4.95572C41.5112 5.586 42.0563 6.24182 42.5673 6.9232H41.6986V30.3967Z" fill="#4F4B4D"/>
<path d="M41.6984 30.3709V40.9834H43.7426C41.8858 44.1263 39.518 46.8432 36.8181 48.9896C31.4096 53.2823 24.6214 55.3349 17.7565 54.1084C10.883 52.882 5.2276 48.6233 1.63332 42.7209C-0.163814 39.7739 -1.44139 36.4096 -2.10573 32.8153H-0.845197V21.5045H-2.11426C-0.725947 13.7282 3.31123 7.17847 8.71968 2.88578C14.1281 -1.40691 20.9079 -3.45106 27.7813 -2.23309C31.2137 -1.61985 34.3481 -0.248572 37.0736 1.71039C38.4363 2.68988 39.6969 3.81415 40.8382 5.05766C41.4089 5.67942 41.954 6.33525 42.465 7.02515H41.6984V30.3709Z" fill="#4F4C4D"/>
<path d="M41.6986 30.3536V40.9149H43.632C41.7838 44.0408 39.433 46.7408 36.7416 48.8786C31.3587 53.1543 24.613 55.1899 17.7737 53.9719C10.9429 52.7539 5.31295 48.5124 1.7357 42.644C-0.0529178 39.7055 -1.33049 36.3668 -1.9778 32.7895H-0.845021V21.5382H-1.98633C-0.606535 13.796 3.41361 7.28887 8.79651 3.01322C14.1794 -1.26244 20.9251 -3.28953 27.7644 -2.08008C34.5952 -0.862113 40.2251 3.37946 43.8024 9.24784H41.6986V30.3621V30.3536Z" fill="#514F4F"/>
<path d="M41.6983 30.3288V40.8391H43.5295C41.6898 43.9564 39.3476 46.6393 36.6732 48.7601C31.3158 53.0102 24.6042 55.0373 17.8075 53.8194C11.0022 52.6099 5.40637 48.3939 1.85468 42.551C0.0745798 39.6296 -1.19449 36.3079 -1.8418 32.7477H-0.828243V21.5475H-1.8418C-0.470521 13.8479 3.52406 7.36631 8.88141 3.1162C14.2388 -1.1339 20.9503 -3.16101 27.7471 -1.94304C34.5439 -0.733594 40.1482 3.48248 43.7084 9.32531H41.7068V30.3288H41.6983Z" fill="#545050"/>
<path d="M41.698 30.3033V40.754H43.4185C41.5873 43.8543 39.2621 46.5202 36.5962 48.6325C31.2729 52.8655 24.5869 54.8756 17.8242 53.6662C11.0615 52.4653 5.49118 48.2662 1.94801 42.4575C0.176424 39.5531 -1.08413 36.2484 -1.73145 32.7052H-0.845645V21.5647H-1.73145C-0.368686 13.9077 3.60889 7.46011 8.94069 3.22704C14.264 -1.00603 20.9415 -3.01608 27.7127 -1.80663C34.4754 -0.605696 40.0457 3.59328 43.5888 9.40204H41.698V30.2949V30.3033Z" fill="#535151"/>
<path d="M41.6981 30.2775V40.677H43.3164C41.4937 43.7603 39.177 46.4176 36.5282 48.5129C31.2304 52.7204 24.587 54.7219 17.8584 53.521C11.1297 52.3201 5.58503 48.1467 2.06741 42.372C-1.45021 36.5888 -2.94926 29.2128 -1.59502 21.5899C-0.23226 13.9669 3.71976 7.55346 9.01748 3.34594C14.3152 -0.861575 20.9586 -2.86313 27.6873 -1.6622C34.4159 -0.461269 39.9606 3.71216 43.4782 9.49537H41.6981V30.2775Z" fill="#565354"/>
<path d="M41.6984 30.2596V40.6081H43.2059C41.3917 43.6743 39.0921 46.3146 36.4517 48.4099C31.1796 52.5918 24.5702 54.5849 17.8756 53.3925C11.1811 52.2001 5.6704 48.0436 2.1613 42.303C-1.33929 36.5539 -2.8298 29.2035 -1.48408 21.6232C-0.129838 14.0428 3.80512 7.66337 9.0773 3.4814C14.3495 -0.700564 20.9588 -2.69358 27.6534 -1.50116C34.348 -0.30875 39.8586 3.84764 43.3592 9.59678H41.6813V30.2767L41.6984 30.2596Z" fill="#575455"/>
<path d="M41.6981 30.2352V40.524H43.0949C41.2893 43.5732 38.9982 46.1965 36.3749 48.2832C31.1282 52.4482 24.5529 54.4327 17.8924 53.2403C11.2319 52.0564 5.74683 47.9255 2.26328 42.2019C-1.22028 36.4868 -2.70228 29.179 -1.35655 21.6328C-0.0108263 14.0865 3.90712 7.74964 9.14522 3.58471C14.3918 -0.58022 20.9672 -2.56469 27.6191 -1.37228C34.2796 -0.188381 39.7647 3.94245 43.2483 9.66604H41.6811V30.2352H41.6981Z" fill="#575455"/>
<path d="M41.6984 30.2181V40.4558H42.993C41.1959 43.4879 38.9218 46.1027 36.3155 48.1724C31.0945 52.3118 24.5618 54.2878 17.9353 53.1039C11.3089 51.92 5.85788 47.8147 2.39137 42.1252C-1.07515 36.4442 -2.54864 29.1705 -1.21144 21.6668C0.125771 14.1631 4.01814 7.85179 9.23921 3.71241C14.4603 -0.426975 20.993 -2.40296 27.6194 -1.21906C34.2458 -0.0351634 39.6969 4.07011 43.1634 9.75963H41.7069V30.2181H41.6984Z" fill="#595859"/>
<path d="M41.6987 30.1928V40.3794H42.8825C41.1024 43.3945 38.8369 45.9922 36.2391 48.0534C31.0521 52.1758 24.5449 54.1347 17.9526 52.9593C11.3602 51.784 5.93474 47.6957 2.48526 42.0402C-0.964229 36.3763 -2.42919 29.1536 -1.1005 21.6925C1.55688 6.77031 14.4009 -3.42481 27.577 -1.07405C34.1694 0.101327 39.5949 4.18961 43.0359 9.84506H41.6816V30.1928H41.6987Z" fill="#5B585A"/>
<path d="M41.6977 30.1664V40.2935H42.7794C41.0078 43.2915 38.7507 45.8807 36.17 47.9249C31.0086 52.0217 24.5355 53.9722 17.9857 52.8053C11.4274 51.6384 6.03603 47.5757 2.60358 41.9458C-0.82887 36.3159 -2.28532 29.1273 -0.965148 21.7003C1.68371 6.85475 14.4511 -3.28074 27.5591 -0.947013C34.1174 0.219849 39.5088 4.29109 42.9412 9.91247H41.6977V30.1579V30.1664Z" fill="#5D5B5B"/>
<path d="M41.698 30.1411V40.217H42.669C40.9059 43.198 38.6574 45.7788 36.0937 47.8144C30.9578 51.8941 24.5273 53.8275 18.003 52.6692C11.4874 51.5108 6.11299 47.4651 2.70609 41.8608C-0.700809 36.2564 -2.15727 29.102 -0.845613 21.7261C1.78621 6.96567 14.4854 -3.11875 27.5253 -0.79354C34.041 0.364805 39.4154 4.4105 42.8223 10.0148H41.6895V30.1496L41.698 30.1411Z" fill="#5E5B5D"/>
<path d="M41.6985 30.1246V40.1494H42.5673C40.8127 43.122 38.5812 45.6771 36.026 47.7042C30.9157 51.7584 24.5192 53.6918 18.0376 52.5335C11.556 51.3752 6.21568 47.355 2.82582 41.7847C-0.572563 36.2145 -2.01196 29.1026 -0.700309 21.7607C1.91448 7.07697 14.5541 -2.95634 27.5173 -0.648169C33.9989 0.510176 39.3393 4.53031 42.7376 10.1006H41.707V30.1246H41.6985Z" fill="#5F5E5E"/>
<path d="M41.6979 30.0992V40.0644H42.4559C40.7098 43.0199 38.4953 45.558 35.9572 47.5766C30.8809 51.6138 24.5101 53.5301 18.0625 52.3803C11.6149 51.2305 6.30017 47.2274 2.92734 41.6912C-0.445486 36.155 -1.8849 29.0771 -0.581758 21.7779C2.02452 7.1708 14.5875 -2.80293 27.4826 -0.50327C33.9301 0.646558 39.2449 4.64965 42.6177 10.1859H41.6979V30.0992Z" fill="#605E60"/>
<path d="M41.6986 30.0818V39.9958H42.3459C40.6084 42.9343 38.4025 45.4639 35.8814 47.4655C30.8306 51.4771 24.4938 53.385 18.0803 52.2436C5.25335 49.961 -3.05095 36.3249 -0.461707 21.803C2.12753 7.28112 14.6223 -2.64149 27.4578 -0.358867C33.8713 0.782444 39.152 4.76003 42.5078 10.2707H41.6986V30.0818Z" fill="#616160"/>
<path d="M41.6987 30.0561V39.9105H42.2438C40.5148 42.8319 38.3259 45.3445 35.8133 47.3461C30.7881 51.3321 24.4939 53.2315 18.1145 52.0987C5.35565 49.8246 -2.89756 36.2737 -0.325348 21.8284C2.24686 7.3832 14.682 -2.48829 27.4408 -0.21419C33.8203 0.918603 39.0754 4.8791 42.4057 10.3557H41.7072V30.0561H41.6987Z" fill="#646162"/>
<path d="M41.6978 30.0301V39.8334H42.1321C40.4117 42.7378 38.2313 45.2419 35.7357 47.2264C30.7361 51.187 24.4759 53.0778 18.1306 51.9535C5.43986 49.6964 -2.77077 36.2136 -0.207075 21.845C2.35662 7.47643 14.7151 -2.33543 27.4058 -0.078361C33.7512 1.05443 38.9722 4.98943 42.294 10.4405H41.6978V30.0301Z" fill="#656364"/>
<path d="M41.6985 30.0137V39.766H42.0306C40.3187 42.6533 38.1553 45.1489 35.6683 47.1164C30.7027 51.0684 24.4681 52.9421 18.1653 51.8178C5.5513 49.5693 -2.61674 36.1632 -0.0700805 21.8798C2.47658 7.58783 14.7669 -2.16444 27.3895 0.0841159C33.7008 1.20839 38.8963 5.12635 42.1925 10.5433H41.707V30.0308L41.6985 30.0137Z" fill="#666566"/>
<path d="M41.6985 29.9879V39.6805H41.9199C40.225 42.5508 38.0616 45.0294 35.5916 46.9883C30.6516 50.9063 24.4596 52.7801 18.1824 51.6558C5.63646 49.4243 -2.48897 36.0948 0.0491709 21.8795C2.57879 7.67276 14.801 -2.02839 27.3555 0.203128C33.6327 1.31889 38.7941 5.21129 42.0817 10.6027H41.6985V29.9794V29.9879Z" fill="#686566"/>
<path d="M41.6983 29.963V39.6046H41.8175C40.1311 42.4578 37.9848 44.9193 35.5233 46.8697C30.6089 50.7706 24.4509 52.6274 18.2077 51.5117C5.72997 49.2887 -2.34436 36.0358 0.17674 21.9057C2.69784 7.78412 14.852 -1.87443 27.3297 0.348567C33.5729 1.46433 38.7088 5.33117 41.9709 10.6885H41.6983V29.9545V29.963Z" fill="#6B6868"/>
<path d="M41.6987 29.9459V39.5363H41.7072C40.0293 42.3811 37.8915 44.8255 35.4556 46.7674C30.5667 50.6428 24.4428 52.491 18.2422 51.3838C5.83262 49.1693 -2.19914 35.9931 0.30493 21.9397C2.809 7.88625 14.895 -1.7042 27.3046 0.510283C33.5137 1.60901 38.6155 5.45881 41.8606 10.7906H41.6987V29.9459Z" fill="#6B6868"/>
<path d="M41.6986 29.9197V34.9363H43.7512C43.1635 36.529 42.4395 38.0366 41.6049 39.4505C39.9355 42.2782 37.8147 44.7056 35.3873 46.639C30.5324 50.4973 24.4426 52.3285 18.2676 51.2298C5.92612 49.0323 -2.05454 35.9243 0.4325 21.956C2.91954 7.98773 14.9459 -1.55155 27.2789 0.645897C33.4454 1.74462 38.5301 5.56886 41.7582 10.8666H41.6986V29.9197Z" fill="#6B6969"/>
<path d="M41.698 29.8947V34.8858H43.6314C43.0438 36.47 42.3283 37.969 41.4936 39.3744C39.8327 42.1851 37.7205 44.604 35.3101 46.5204C30.4808 50.3531 24.4251 52.1843 18.2926 51.0856C6.02781 48.8967 -1.91027 35.8653 0.559731 21.9737C3.03825 8.08204 14.988 -1.40617 27.2528 0.782761C33.3852 1.88149 38.4359 5.68018 41.6469 10.9524C42.4476 12.264 43.1375 13.6779 43.6996 15.1599H41.698V29.8947Z" fill="#6D6B6D"/>
<path d="M41.6983 29.8777V34.8433H43.5125C42.9333 36.419 42.2178 37.9095 41.3917 39.3063C39.7393 42.1 37.6441 44.5019 35.2422 46.4097C30.4385 50.2255 24.4168 52.0397 18.3184 50.9495C6.12176 48.7776 -1.77371 35.8228 0.687769 22.0078C3.14925 8.19285 15.0308 -1.23573 27.2275 0.936167C33.3258 2.02637 38.351 5.80803 41.545 11.0461C42.3456 12.3578 43.027 13.7546 43.5806 15.2281H41.6983V29.8777Z" fill="#6F6C6D"/>
<path d="M41.6988 29.8515V34.783H43.3937C42.8146 36.3502 42.1076 37.8322 41.2815 39.2205C39.6376 41.9971 37.5509 44.3905 35.1661 46.2898C30.3879 50.08 24.4003 51.8856 18.336 50.8039C6.20747 48.6405 -1.63692 35.754 0.807525 22.0242C3.25197 8.29438 15.0654 -1.08308 27.194 1.07178C33.2582 2.15347 38.2493 5.91808 41.4263 11.1221C42.2184 12.4253 42.8998 13.8136 43.4534 15.2785H41.6988V29.8515Z" fill="#706E6E"/>
<path d="M41.6984 29.8256V34.7315H43.2741C42.6949 36.2902 41.988 37.7637 41.1788 39.1435C39.5435 41.903 37.4738 44.2794 35.0975 46.1617C30.3534 49.9348 24.3999 51.7234 18.3697 50.6503C6.30923 48.5039 -1.49255 35.694 0.943377 22.0409C3.37931 8.38772 15.1246 -0.938677 27.1765 1.20767C33.2067 2.28084 38.1723 6.01989 41.3236 11.1984C42.1157 12.493 42.7886 13.8728 43.3337 15.3293H41.6984V29.8171V29.8256Z" fill="#716E70"/>
<path d="M41.6982 29.8088V34.6806H43.1547C42.5755 36.2307 41.8771 37.6957 41.0679 39.067C39.4411 41.8096 37.38 44.1774 35.0207 46.0511C30.3021 49.7987 24.3826 51.5788 18.395 50.5142C6.40274 48.3763 -1.34795 35.643 1.07095 22.0666C3.48984 8.49859 15.167 -0.776686 27.1507 1.36114C33.1469 2.43432 38.0784 6.14786 41.2127 11.2923C41.9963 12.5784 42.6692 13.9581 43.2143 15.3975H41.6982V29.8002V29.8088Z" fill="#727172"/>
<path d="M41.6977 29.784V34.6303H43.0349C42.4642 36.1719 41.7658 37.6284 40.9567 38.9911C39.3469 41.7166 37.2943 44.0759 34.952 45.9327C30.259 49.6633 24.3821 51.4349 18.42 50.3702C6.50442 48.2494 -1.20369 35.5843 1.19818 22.093C3.60004 8.60164 15.2091 -0.614058 27.1332 1.50674C33.0953 2.57139 38.0012 6.26791 41.1185 11.3868C41.8936 12.6644 42.5664 14.0356 43.1115 15.4665H41.7147V29.784H41.6977Z" fill="#767374"/>
<path d="M41.6979 29.7583V34.5791H42.9159C42.3453 36.1122 41.6553 37.5601 40.8547 38.9144C39.245 41.6228 37.2179 43.9651 34.8842 45.8133C30.2167 49.5183 24.3739 51.2814 18.4459 50.2252C6.59837 48.1129 -1.06713 35.5245 1.32622 22.1183C3.71956 8.70366 15.2604 -0.460862 27.1079 1.65141C33.0274 2.70755 37.9078 6.38697 41.0081 11.4632C41.7831 12.7323 42.4474 14.0951 42.984 15.526H41.7064V29.7583H41.6979Z" fill="#777374"/>
<path d="M41.6981 29.7401V34.5268H42.7968C42.2347 36.0429 41.5448 37.4908 40.7442 38.8365C39.1515 41.5365 37.1244 43.8532 34.8077 45.7014C30.1658 49.3809 24.357 51.1355 18.4716 50.0878C6.69223 47.9841 -0.930694 35.4722 1.44562 22.1428C3.82193 8.80476 15.2947 -0.300188 27.074 1.79505C32.9594 2.84267 37.8142 6.49659 40.889 11.5558C41.6555 12.8164 42.3199 14.1706 42.8564 15.593H41.6981V29.7401Z" fill="#777676"/>
<path d="M41.6986 29.7154V34.4765H42.678C42.1159 35.9926 41.4345 37.4235 40.6424 38.7607C39.0582 41.4437 37.0481 43.7518 34.74 45.583C30.1321 49.2454 24.3489 50.983 18.4976 49.9439C6.79489 47.8572 -0.785453 35.4219 1.57382 22.1691C3.9331 8.90776 15.3377 -0.137558 27.0489 1.94065C32.9002 2.98827 37.721 6.61663 40.7872 11.6418C41.5538 12.8938 42.2096 14.2396 42.7462 15.6534H41.7071V29.7154H41.6986Z" fill="#797778"/>
<path d="M43.8359 29.6982C41.4852 42.8744 30.1487 51.8771 18.5142 49.7989C6.87961 47.7207 -0.649637 35.3622 1.69261 22.186C4.04336 9.00983 15.3798 0.0156431 27.0144 2.08533C32.8316 3.12444 37.6269 6.7357 40.6675 11.7268C42.1921 14.2224 43.2738 17.0672 43.8359 20.1163H41.6896V29.6982H43.8359Z" fill="#7B7778"/>
<path d="M43.7084 29.6725C41.3747 42.7721 30.1064 51.7152 18.54 49.654C6.97358 47.5928 -0.513083 35.3024 1.82064 22.2114C4.15437 9.11191 15.4227 0.168838 26.9891 2.23001C32.7723 3.2606 37.5335 6.84636 40.5571 11.8119C42.0731 14.2989 43.1463 17.1267 43.6999 20.1503H41.6813V29.6725H43.6999H43.7084Z" fill="#7B7878"/>
<path d="M43.5805 29.6474C41.2553 42.6617 30.0551 51.5537 18.5654 49.5096C7.06708 47.4569 -0.368478 35.2432 1.94821 22.2288C4.2649 9.21447 15.4651 0.322462 26.9634 2.3666C32.7125 3.38867 37.4481 6.95739 40.4547 11.8889C41.9622 14.3589 43.0269 17.1696 43.5805 20.1762H41.6897V29.6388H43.5805V29.6474Z" fill="#7D7B7D"/>
<path d="M43.453 29.6216C41.1449 42.5593 30.0128 51.4002 18.5912 49.3645C7.16106 47.3289 -0.231922 35.1919 2.07625 22.2542C4.38442 9.31649 15.5165 0.484116 26.9381 2.51122C32.6532 3.52477 37.3547 7.06794 40.3442 11.9824C41.8348 14.4354 42.9079 17.229 43.453 20.2185H41.69V29.6216H43.453Z" fill="#7D7B7C"/>
<path d="M43.3335 29.605C41.0424 42.466 29.9785 51.2473 18.625 49.2202C7.27153 47.1931 -0.0788695 35.1327 2.21227 22.2802C4.50341 9.41911 15.5673 0.637863 26.9208 2.66497C32.6018 3.67852 37.2778 7.19613 40.2503 12.0765C41.7323 14.5124 42.7969 17.2891 43.342 20.2616H41.7067V29.6135H43.342L43.3335 29.605Z" fill="#7F7E7E"/>
<path d="M43.206 29.5788C40.9319 42.3547 29.9362 51.0849 18.6508 49.0748C7.36548 47.0647 0.057688 35.0724 2.34031 22.2966C4.61441 9.5207 15.6102 0.790509 26.904 2.80058C32.551 3.80561 37.1929 7.30618 40.1483 12.1525C41.6218 14.5799 42.678 17.331 43.2231 20.2865H41.7155V29.5788H43.2231H43.206Z" fill="#807F80"/>
<path d="M43.078 29.5538C40.8124 42.253 29.8848 50.9321 18.6761 48.9306C7.45887 46.929 0.202173 35.0134 2.45924 22.3142C4.72483 9.61496 15.6525 0.935892 26.8697 2.93744C32.474 3.94248 37.0989 7.41749 40.0288 12.2297C41.4938 14.6401 42.5414 17.3827 43.078 20.3126H41.6982V29.5453H43.078V29.5538Z" fill="#80807F"/>
<path d="M42.9499 29.5365C40.7013 42.159 29.8418 50.7784 18.6928 48.7939C7.5437 46.8094 0.338107 34.9705 2.58666 22.3479C4.83521 9.72534 15.6947 1.10591 26.8438 3.09895C32.4141 4.09547 37.0049 7.55344 39.9178 12.3316C41.3742 14.725 42.4133 17.4505 42.9499 20.3634H41.6979V29.5365H42.9499Z" fill="#818080"/>
<path d="M42.8221 29.5109C40.5906 42.0568 29.7992 50.6166 18.7183 48.6492C7.64585 46.6732 0.474323 34.9109 2.71436 22.365C4.94588 9.81905 15.7372 1.2592 26.8182 3.22668C32.3544 4.21468 36.9196 7.64715 39.8155 12.4083C41.2634 14.7846 42.294 17.4931 42.8306 20.3889H41.7063V29.5109H42.8306H42.8221Z" fill="#838182"/>
<path d="M42.695 29.4941C40.4805 41.9548 29.7573 50.4635 18.7445 48.5045C7.74019 46.5456 0.619786 34.8514 2.83427 22.3906C5.05727 9.92992 15.7805 1.42119 26.7848 3.38015C32.2869 4.35963 36.8181 7.77507 39.6969 12.5021C42.5757 17.2292 43.8022 23.2679 42.6865 29.4941H42.695Z" fill="#838182"/>
<path d="M42.5675 29.4681C40.3615 41.8521 29.7064 50.3097 18.7703 48.3593C7.83417 46.4088 0.75634 34.7914 2.96231 22.4073C5.16827 10.0232 15.8233 1.56559 26.7595 3.51604C32.2276 4.48701 36.7332 7.87683 39.5865 12.5783C42.4482 17.2713 43.6662 23.2675 42.559 29.4681H42.5675Z" fill="#838282"/>
<path d="M42.4396 29.4431C40.2506 41.7505 29.6637 50.1485 18.7957 48.2151C7.92767 46.2732 0.900945 34.7323 3.08988 22.4334C5.27881 10.1345 15.8658 1.72801 26.7338 3.66142C32.1678 4.63239 36.6393 7.9967 39.4841 12.6642C42.3288 17.3316 43.5383 23.2852 42.4396 29.4431Z" fill="#848385"/>
<path d="M42.3117 29.4164C40.1313 41.6387 29.6125 49.9941 18.8211 48.0692C8.0298 46.1443 1.03716 34.6801 3.21757 22.4578C5.39799 10.2356 15.9168 1.88868 26.7081 3.80506C32.1081 4.76751 36.5541 8.11479 39.3733 12.7482C42.1925 17.3901 43.4019 23.3096 42.3117 29.4164Z" fill="#888586"/>
<path d="M42.1838 29.4005C40.0204 41.5461 29.5697 49.8419 18.8465 47.9255C8.1233 46.0176 1.18177 34.6216 3.34514 22.476C5.50852 10.3304 15.9592 2.03462 26.6824 3.951C32.0483 4.90493 36.4602 8.23516 39.2623 12.8345C42.0645 17.4423 43.257 23.3277 42.1838 29.4005Z" fill="#888686"/>
<path d="M42.0563 29.3748C39.9099 41.4437 29.5274 49.6799 18.8723 47.7805C8.21728 45.8812 1.31832 34.5618 3.47318 22.5014C5.62805 10.4324 16.0021 2.19627 26.6571 4.09561C31.9804 5.04954 36.3753 8.34571 39.1604 12.928C41.9456 17.5018 43.1295 23.3446 42.0563 29.3833V29.3748Z" fill="#898689"/>
<path d="M41.9283 29.3574C39.7905 41.3411 29.4846 49.5262 18.8977 47.6439C8.31078 45.7616 1.46293 34.5103 3.60075 22.5266C5.73858 10.5428 16.053 2.3577 26.6314 4.24002C31.9206 5.18543 36.2814 8.46456 39.0495 13.0128C41.8176 17.561 42.993 23.3612 41.9283 29.3574Z" fill="#8C888A"/>
<path d="M41.8086 29.3324C39.6878 41.2395 29.4415 49.3734 18.9227 47.4996C8.41246 45.6258 1.60719 34.4512 3.72798 22.5441C5.84878 10.637 16.095 2.50309 26.6138 4.37688C31.869 5.31378 36.2042 8.57587 38.9468 13.09C41.6979 17.6041 42.8733 23.3703 41.8086 29.3324Z" fill="#8C8C8C"/>
<path d="M41.6811 29.3062C39.5773 41.1367 29.3992 49.211 18.9486 47.3543C8.50644 45.489 1.74375 34.3996 3.85602 22.5691C5.95978 10.7387 16.1379 2.66432 26.58 4.52959C37.0222 6.39487 43.7848 17.4843 41.6811 29.3148V29.3062Z" fill="#8D8C8C"/>
<path d="M41.5531 29.2898C39.4579 41.0351 29.3479 49.0583 18.9739 47.2101C8.59994 45.3618 1.88835 34.3405 3.98359 22.5952C6.07883 10.85 16.1803 2.82673 26.5628 4.67497C36.9368 6.52321 43.6484 17.5445 41.5617 29.2898H41.5531Z" fill="#908D8D"/>
<path d="M41.4256 29.2639C39.3474 40.9325 29.3055 48.9047 18.9997 47.0649C8.6938 45.2252 2.02478 34.2805 4.10299 22.6119C6.1812 10.9433 16.223 2.97113 26.5289 4.81086C36.8348 6.65058 43.5038 17.5953 41.4256 29.2639Z" fill="#908D8F"/>
<path d="M41.2976 29.2381C39.2365 40.8301 29.2628 48.7426 19.025 46.9199C8.78731 45.0972 2.16939 34.2207 4.23056 22.6372C6.30025 11.0453 16.2654 3.13279 26.5032 4.95548C36.7409 6.77817 43.3588 17.6546 41.2976 29.2381Z" fill="#918F8F"/>
<path d="M41.1698 29.2217C39.1171 40.737 29.2201 48.5899 19.0505 46.7843C8.88944 44.9701 2.30561 34.1702 4.35826 22.6634C6.41092 11.1566 16.3165 3.2952 26.4775 5.10086C36.6386 6.91503 43.2224 17.7064 41.1698 29.2217Z" fill="#939090"/>
<path d="M41.0428 29.1962C39.0072 40.6264 29.1698 48.4282 19.0768 46.6311C8.98392 44.8339 2.45119 34.1107 4.48681 22.6806C6.52243 11.2504 16.3599 3.44862 26.4528 5.24575C36.5457 7.04289 43.0784 17.7661 41.0428 29.1962Z" fill="#949293"/>
<path d="M40.9144 29.1703C38.8958 40.5238 29.1265 48.2744 19.1017 46.4858C9.07691 44.6972 2.58677 34.0506 4.61387 22.6972C6.64097 11.3437 16.4017 3.59302 26.4265 5.38164C36.4513 7.17027 42.9415 17.8168 40.9144 29.1703Z" fill="#949294"/>
<path d="M40.7874 29.1531C38.7773 40.4214 29.0847 48.121 19.1281 46.3495C9.1714 44.5779 2.73235 33.9995 4.74242 22.7312C6.75249 11.4628 16.4451 3.76325 26.4018 5.53483C36.3584 7.30642 42.7975 17.8848 40.7874 29.1531Z" fill="#959494"/>
<path d="M40.6591 29.1282C38.6661 40.3198 29.0331 47.9683 19.1531 46.2052C9.27308 44.4422 2.87661 33.9489 4.86965 22.7487C6.86268 11.557 16.4957 3.91709 26.3757 5.67164C36.2642 7.43471 42.6607 17.9365 40.6591 29.1282Z" fill="#969594"/>
<path d="M40.5404 29.1025C38.5559 40.2175 28.9996 47.8063 19.1877 46.0603C9.37584 44.3143 3.02196 33.8807 5.00647 22.7742C6.98247 11.6592 16.5473 4.07028 26.3592 5.81632C36.1711 7.57087 42.5249 17.996 40.5404 29.1025Z" fill="#969695"/>
<path d="M40.4122 29.0853C38.4447 40.1151 28.9565 47.6529 19.2043 45.9154C9.46053 44.1779 3.15777 33.8294 5.12526 22.7911C7.09274 11.7613 16.5809 4.22348 26.3247 5.961C36.0684 7.69852 42.3712 18.0469 40.4122 29.0853Z" fill="#989798"/>
<path d="M40.2837 29.0596C38.3333 40.0128 28.9047 47.4909 19.2291 45.7704C9.55353 44.0499 3.29335 33.7696 5.25232 22.8164C7.20277 11.8633 16.6314 4.38514 26.3069 6.10562C35.9825 7.83462 42.2427 18.1064 40.2923 29.0596H40.2837Z" fill="#999999"/>
<path d="M40.1569 29.0424C38.215 39.919 28.8631 47.346 19.2641 45.634C9.65669 43.9221 3.4476 33.7184 5.38102 22.8419C7.31443 11.9654 16.6749 4.53833 26.2823 6.25029C35.8813 7.96226 42.0989 18.1659 40.1569 29.0424Z" fill="#9A9A98"/>
<path d="M40.0288 29.0165C38.1039 39.8164 28.8201 47.1837 19.2808 45.4888C9.75002 43.7854 3.57503 33.6584 5.49992 22.867C7.42482 12.0757 16.7086 4.69977 26.2479 6.3947C35.7787 8.09815 41.9452 18.2252 40.0288 29.0165Z" fill="#9C9999"/>
<path d="M39.9009 28.991C37.993 39.7057 28.7688 47.0306 19.3062 45.3356C9.84353 43.6492 3.71963 33.5989 5.62749 22.8842C7.53536 12.1695 16.7595 4.85318 26.2222 6.5396C35.6848 8.22601 41.8087 18.2764 39.9009 28.9996V28.991Z" fill="#9E9E9F"/>
<path d="M39.7734 28.9748C37.8741 39.6128 28.7265 46.8781 19.332 45.2002C9.9375 43.5223 3.85619 33.5486 5.75553 22.9105C7.64636 12.2725 16.8024 5.01581 26.1969 6.68519C35.5914 8.36309 41.6728 18.3368 39.7734 28.9748Z" fill="#A19F9F"/>
<path d="M39.6455 28.949C37.7632 39.5018 28.6838 46.7159 19.3574 45.055C10.031 43.3942 4.00079 33.4887 5.8831 22.9358C7.76541 12.3829 16.8448 5.16879 26.1712 6.82965C35.4976 8.49052 41.5278 18.3961 39.6455 28.949Z" fill="#A29FA0"/>
<path d="M39.5176 28.9229C37.6524 39.3991 28.6326 46.5621 19.3829 44.9098C10.1331 43.266 4.13701 33.4286 6.0108 22.9524C7.87608 12.4762 16.8958 5.32165 26.1456 6.96548C35.4038 8.61783 41.3914 18.4467 39.5176 28.9229Z" fill="#A2A1A1"/>
<path d="M39.3907 28.8973C37.5424 39.2968 28.5908 46.4002 19.4092 44.7649C10.2276 43.1296 4.28259 33.3773 6.13935 22.9778C7.99611 12.5782 16.9392 5.47485 26.1208 7.11016C35.3024 8.74547 41.2474 18.4977 39.3907 28.8973Z" fill="#A4A2A2"/>
<path d="M39.2627 28.8798C37.423 39.2027 28.548 46.2464 19.4346 44.6197C10.3211 42.9929 4.42719 33.3087 6.26692 22.9944C8.10664 12.6715 16.9816 5.62771 26.0951 7.24599C35.2085 8.87278 41.111 18.5568 39.2712 28.8712L39.2627 28.8798Z" fill="#A4A2A2"/>
<path d="M39.1427 28.8554C37.32 39.0931 28.5046 46.0857 19.4593 44.476C10.414 42.8662 4.56265 33.2588 6.38534 23.021C8.20803 12.7833 17.0234 5.79068 26.0687 7.40044C35.114 9.0102 40.9653 18.6177 39.1427 28.8554Z" fill="#A6A3A3"/>
<path d="M39.015 28.8294C37.2008 38.9905 28.4621 45.9321 19.4935 44.3308C10.5163 42.7296 4.71605 33.1988 6.5217 23.0377C8.32736 12.8766 17.0746 5.93508 26.0432 7.53633C35.0119 9.13757 40.8207 18.6684 39.015 28.8294Z" fill="#A7A6A6"/>
<path d="M38.8879 28.8125C37.0907 38.8969 28.4202 45.7789 19.5111 44.1947C10.6106 42.6105 4.84445 33.1478 6.64159 23.0719C8.43873 12.9875 17.1093 6.10553 26.0183 7.68973C34.9188 9.27394 40.685 18.7366 38.8879 28.8125Z" fill="#A7A6A6"/>
<path d="M38.7599 28.7866C36.9798 38.7858 28.3689 45.6166 19.5365 44.0409C10.7041 42.4652 4.98905 33.0792 6.76916 23.08C8.54926 13.0807 17.1602 6.24994 25.9926 7.82563C34.825 9.40132 40.54 18.7788 38.7599 28.7866Z" fill="#ABA8A9"/>
<path d="M38.6325 28.7697C36.8609 38.6923 28.3266 45.4635 19.5623 43.9048C10.7981 42.3377 5.12561 33.0368 6.8972 23.1143C8.66878 13.1917 17.2031 6.41192 25.9673 7.9791C34.7316 9.54627 40.404 18.8471 38.6325 28.7697Z" fill="#AAAAAA"/>
<path d="M38.5045 28.7445C36.7499 38.5904 28.2838 45.3105 19.5877 43.7604C10.8916 42.2102 5.27021 32.9775 7.02477 23.1316C8.77932 13.2942 17.2455 6.56555 25.9416 8.11568C34.6377 9.66582 40.259 18.8985 38.5045 28.7445Z" fill="#ACABAB"/>
<path d="M38.3762 28.7187C36.6387 38.4794 28.2322 45.1484 19.6127 43.6153C10.9933 42.0737 5.41448 32.9177 7.152 23.157C8.88951 13.3962 17.296 6.7272 25.9155 8.2603C34.5349 9.80192 40.1222 18.9579 38.3762 28.7187Z" fill="#AEACAC"/>
<path d="M38.2487 28.6928C36.5197 38.3769 28.1899 44.9948 19.6386 43.4702C11.0873 41.9456 5.55103 32.8577 7.28003 23.1736C9.00052 13.4895 17.3389 6.8716 25.8902 8.39619C34.4415 9.92078 39.9777 19.0087 38.2487 28.6843V28.6928Z" fill="#AEADAD"/>
<path d="M38.1208 28.6761C36.4088 38.2751 28.1471 44.8419 19.6639 43.3258C11.1808 41.8182 5.69564 32.807 7.4076 23.1995C9.11957 13.5921 17.3813 7.03381 25.8645 8.54988C34.3477 10.0574 39.8327 19.0687 38.1208 28.6761Z" fill="#AFADAD"/>
<path d="M37.9933 28.6509C36.2984 38.1732 28.0963 44.6803 19.6898 43.1813C11.2747 41.6823 5.8322 32.7477 7.53565 23.2169C9.23058 13.6946 17.4327 7.18743 25.8392 8.68647C34.2543 10.1855 39.6968 19.1201 37.9933 28.6424V28.6509Z" fill="#B1AFB0"/>
<path d="M37.8737 28.6339C36.1873 38.0796 28.0618 44.5271 19.7234 43.0451C11.385 41.5631 5.98513 32.6967 7.66303 23.251C9.34944 13.8054 17.4749 7.35788 25.8133 8.83988C34.1602 10.3304 39.5516 19.1883 37.8737 28.6339Z" fill="#B2B0B1"/>
<path d="M37.7462 28.6083C36.0768 37.9772 28.0195 44.3737 19.7493 42.9002C11.479 41.4267 6.12168 32.6369 7.79106 23.2765C9.46044 13.9075 17.5178 7.51107 25.788 8.98455C34.0582 10.458 39.4071 19.2478 37.7462 28.6083Z" fill="#B3B1B2"/>
<path d="M37.6183 28.5826C35.9659 37.8664 27.9767 44.2118 19.7746 42.7554C11.5725 41.2904 6.26629 32.5857 7.91863 23.2934C9.57098 14.0096 17.5687 7.66427 25.7623 9.12924C33.9644 10.5942 39.2706 19.3074 37.6183 28.5912V28.5826Z" fill="#B4B2B3"/>
<path d="M37.491 28.5651C35.8472 37.7723 27.9262 44.058 19.7922 42.61C11.6582 41.1621 6.40308 32.5256 8.03839 23.31C9.68222 14.1029 17.6033 7.81713 25.7372 9.26506C33.8712 10.713 39.1349 19.3495 37.491 28.5566V28.5651Z" fill="#B4B4B4"/>
<path d="M37.3635 28.5395C35.7367 37.67 27.8838 43.9046 19.818 42.4652C11.7522 41.0258 6.53964 32.4659 8.16643 23.3354C9.79322 14.2049 17.6461 7.97033 25.7119 9.40974C33.7778 10.8492 38.9903 19.409 37.3635 28.5395Z" fill="#B4B4B5"/>
<path d="M37.2352 28.5147C35.6255 37.5686 27.8407 43.7436 19.843 42.3212C11.8539 40.8988 6.6839 32.4071 8.29366 23.3618C9.90342 14.308 17.6882 8.13296 25.6774 9.55534C33.6665 10.9777 38.845 19.4694 37.2267 28.5147H37.2352Z" fill="#B5B5B6"/>
<path d="M37.1078 28.4973C35.5065 37.4659 27.7899 43.5898 19.8689 42.1845C11.9478 40.7706 6.82046 32.3556 8.4217 23.3869C10.0229 14.4182 17.7396 8.2944 25.6606 9.69974C33.5816 11.1136 38.709 19.5286 37.1078 28.4973Z" fill="#B8B6B6"/>
<path d="M36.9798 28.4719C35.3956 37.3639 27.7471 43.4367 19.8942 42.0399C12.0413 40.643 6.96506 32.2961 8.54927 23.4041C10.1335 14.5121 17.782 8.43936 25.6349 9.8447C33.4878 11.2415 38.564 19.5799 36.9798 28.4719Z" fill="#B9B8B8"/>
<path d="M36.8519 28.4457C35.2847 37.2525 27.7044 43.2742 19.9196 41.8859C12.1434 40.4976 7.10116 32.2359 8.66833 23.4205C10.2355 14.6137 17.8159 8.592 25.6006 9.98031C33.3854 11.3686 38.4191 19.6389 36.8434 28.4457H36.8519Z" fill="#B8B8B9"/>
<path d="M36.7241 28.4288C35.1654 37.159 27.6617 43.121 19.9451 41.7497C12.237 40.3784 7.24588 32.1849 8.80454 23.4547C10.3547 14.7245 17.8754 8.76244 25.5835 10.1337C33.2916 11.505 38.2827 19.6986 36.7241 28.4288Z" fill="#BBB9B9"/>
<path d="M36.6052 28.4038C35.0636 37.0573 27.6196 42.9683 19.9796 41.6055C12.3396 40.2427 7.39111 32.1258 8.93273 23.4723C10.4743 14.8188 17.9184 8.90782 25.5584 10.2706C33.1983 11.6333 38.1469 19.7503 36.6052 28.4038Z" fill="#BBB9B9"/>
<path d="M36.4773 28.3873C34.9442 36.9557 27.5683 42.8156 20.005 41.4613C12.4331 40.1071 7.53571 32.0668 9.0603 23.4984C10.5849 14.9301 17.9608 9.07024 25.5326 10.416C33.1045 11.7617 38.0019 19.8105 36.4773 28.3789V28.3873Z" fill="#BBBABA"/>
<path d="M36.3497 28.3609C34.8337 36.8526 27.5258 42.6529 20.0222 41.3157C12.527 39.9785 7.67217 32.0148 9.17972 23.5146C10.6958 15.0229 18.0036 9.22268 25.4987 10.5599C33.0024 11.8971 37.8573 19.8607 36.3412 28.3609H36.3497Z" fill="#BCBBBB"/>
<path d="M36.2216 28.3362C34.7226 36.7512 27.4829 42.5004 20.0473 41.1717C12.6118 39.8515 7.80808 31.9561 9.30712 23.541C10.8062 15.126 18.0458 9.37685 25.4814 10.7055C32.9084 12.0342 37.7206 19.9212 36.2216 28.3362Z" fill="#BFBCBB"/>
<path d="M36.0936 28.31C34.6116 36.6484 27.4401 42.3379 20.0812 41.0263C12.7223 39.7146 7.96114 31.8958 9.44314 23.5574C10.9337 15.2275 18.0967 9.5295 25.4641 10.8412C32.823 12.1528 37.5841 19.9716 36.1021 28.31H36.0936Z" fill="#C0BDBD"/>
<path d="M35.9658 28.2928C34.4924 36.546 27.389 42.1845 20.0982 40.8813C12.8075 39.5867 8.0889 31.836 9.56239 23.5828C11.0359 15.3296 18.1393 9.69115 25.43 10.9858C32.7208 12.2889 37.4393 20.0311 35.9658 28.2843V28.2928Z" fill="#C0BEBE"/>
<path d="M35.8379 28.2681C34.3815 36.4447 27.3462 42.0319 20.1236 40.7373C12.901 39.4512 8.23351 31.7772 9.68996 23.6092C11.1464 15.4326 18.1817 9.84532 25.4043 11.1314C32.6269 12.4175 37.2943 20.0916 35.8379 28.2681Z" fill="#C2C1BF"/>
<path d="M35.7103 28.2424C34.2624 36.3423 27.3038 41.87 20.1493 40.5924C12.9948 39.3149 8.36994 31.726 9.80936 23.6261C11.2488 15.5347 18.2159 9.99852 25.3704 11.2761C32.5163 12.5537 37.1412 20.1425 35.7018 28.2424H35.7103Z" fill="#C2C1C0"/>
<path d="M35.583 28.2243C34.1521 36.239 27.2531 41.7156 20.1753 40.4551C13.0975 39.1945 8.51519 31.6737 9.93757 23.6505C11.3685 15.6358 18.2674 10.1592 25.3453 11.4197C32.4231 12.6803 37.0054 20.2011 35.5745 28.2243H35.583Z" fill="#C2C1C1"/>
<path d="M35.4556 28.1995C34.0418 36.1376 27.2109 41.5631 20.2012 40.311C13.1915 39.059 8.65186 31.615 10.0742 23.6769C11.4881 15.7388 18.3189 10.3218 25.3286 11.5653C32.3383 12.8174 36.878 20.2615 35.4556 28.1995Z" fill="#C3C1C1"/>
<path d="M35.3276 28.1735C33.9307 36.035 27.1681 41.4008 20.2265 40.1658C13.285 38.9308 8.79634 31.5549 10.1932 23.6935C11.59 15.8321 18.3527 10.4662 25.2943 11.7012C32.2358 12.9362 36.7244 20.3122 35.3276 28.1651V28.1735Z" fill="#C6C3C2"/>
<path d="M35.2081 28.1564C33.8198 35.9326 27.1252 41.2474 20.2603 40.0209C13.3954 38.7944 8.9494 31.5036 10.3292 23.7189C11.7175 15.9341 18.4121 10.6279 25.277 11.8458C32.1419 13.0723 36.5879 20.3716 35.2081 28.1479V28.1564Z" fill="#C6C4C3"/>
<path d="M35.0806 28.131C33.7093 35.8306 27.0829 41.0857 20.2861 39.8763C13.4894 38.6668 9.08595 31.4357 10.4572 23.7446C11.8285 16.045 18.4549 10.7899 25.2517 11.9993C32.0484 13.2088 36.4518 20.4314 35.0806 28.131Z" fill="#C6C5C5"/>
<path d="M34.9526 28.1138C33.5984 35.7368 27.0401 40.9408 20.3115 39.7398C13.5829 38.5389 9.23056 31.3929 10.5848 23.77C11.939 16.1471 18.4973 10.9431 25.2259 12.144C31.9546 13.3449 36.3154 20.4994 34.9526 28.1138Z" fill="#C9C6C6"/>
<path d="M34.8252 28.0886C33.4794 35.6264 26.9978 40.7793 20.3373 39.5954C13.6768 38.403 9.36711 31.3337 10.7128 23.7874C12.0586 16.2496 18.5402 11.0967 25.2007 12.2806C31.8612 13.4645 36.1709 20.5423 34.8252 28.0801V28.0886Z" fill="#C9C8C7"/>
<path d="M34.6972 28.0626C33.3685 35.5237 26.9465 40.617 20.3627 39.4417C13.7703 38.2663 9.51172 31.2651 10.8404 23.804C12.1691 16.3429 18.5911 11.2496 25.1749 12.4164C31.7673 13.5918 36.0259 20.593 34.6972 28.0541V28.0626Z" fill="#C9C8C9"/>
<path d="M34.5695 28.0463C33.2578 35.4307 26.9039 40.4729 20.3797 39.3061C13.8555 38.1477 9.63949 31.2147 10.9597 23.8388C12.2713 16.4543 18.6252 11.4121 25.1494 12.579C31.6651 13.7373 35.8896 20.6704 34.5695 28.0463Z" fill="#CAC9CA"/>
<path d="M34.4412 28.021C33.138 35.3203 26.8608 40.3114 20.4048 39.1616C13.9572 38.0203 9.78375 31.1639 11.0869 23.8561C12.39 16.5568 18.6758 11.5657 25.1233 12.7155C31.5709 13.8654 35.7443 20.7132 34.4412 28.021Z" fill="#CDCACA"/>
<path d="M34.3136 27.9943C33.0275 35.217 26.8099 40.1485 20.4305 39.0157C14.0511 37.8829 9.92018 31.1031 11.2063 23.8805C12.4924 16.6579 18.71 11.7264 25.0894 12.8592C31.4688 13.992 35.5997 20.7717 34.3136 27.9943Z" fill="#CDCDCD"/>
<path d="M34.1866 27.9772C32.9175 35.1232 26.7681 39.995 20.4568 38.8792C14.1455 37.755 10.0658 31.0519 11.3348 23.906C12.6039 16.76 18.7534 11.8796 25.0646 13.0039C31.3759 14.1281 35.4557 20.8312 34.1781 27.9772H34.1866Z" fill="#CCCDCE"/>
<path d="M34.0581 27.9525C32.7976 35.0133 26.7248 39.8425 20.4817 38.7268C14.2385 37.611 10.2013 30.9846 11.4619 23.9238C12.7224 16.863 18.8038 12.0338 25.0384 13.1495C31.273 14.2653 35.3102 20.8832 34.0496 27.9525H34.0581Z" fill="#CDCDCE"/>
<path d="M33.9386 27.9275C32.6951 34.9116 26.682 39.6813 20.5155 38.5826C14.349 37.4838 10.3544 30.9255 11.5979 23.9414C12.8414 16.9573 18.8546 12.1876 25.0211 13.2863C31.1876 14.3851 35.1821 20.9348 33.9386 27.9189V27.9275Z" fill="#D0CECF"/>
<path d="M33.8107 27.9096C32.5842 34.8171 26.6392 39.5357 20.5408 38.4455C14.4425 37.3638 10.499 30.8821 11.7255 23.9746C12.9605 17.0672 18.897 12.3486 24.9953 13.4388C31.0937 14.529 35.0372 21.0021 33.8107 27.9096Z" fill="#D1D0D0"/>
<path d="M33.6832 27.8839C32.4653 34.7147 26.5969 39.3736 20.5667 38.3004C14.5365 37.2273 10.6356 30.8223 11.8535 24C13.0715 17.1692 18.9484 12.5103 24.9701 13.5834C31.0003 14.6566 34.9012 21.0616 33.6832 27.8839Z" fill="#D2D0CF"/>
<path d="M33.556 27.8582C32.355 34.6039 26.5463 39.2117 20.5842 38.1556C14.6221 37.0909 10.7724 30.7626 11.9733 24.017C13.1742 17.2713 18.983 12.6635 24.9365 13.7281C30.8986 14.7928 34.7484 21.1211 33.5474 27.8667L33.556 27.8582Z" fill="#D2D2D2"/>
<path d="M33.4282 27.8411C32.2358 34.5101 26.5036 39.0668 20.6097 38.0107C14.7243 36.9631 10.9086 30.7029 12.101 24.0424C13.2849 17.3734 19.0255 12.8167 24.9109 13.8728C30.7963 14.9204 34.6121 21.1806 33.4196 27.8411H33.4282Z" fill="#D4D2D1"/>
<path d="M33.3005 27.816C32.1251 34.3999 26.4611 38.9055 20.6439 37.8664C14.8266 36.8273 11.062 30.6523 12.2373 24.0599C13.4127 17.4676 19.0767 12.9705 24.9025 14.0096C30.7198 15.0487 34.4844 21.2322 33.309 27.816H33.3005Z" fill="#D4D3D3"/>
<path d="M33.1727 27.7989C32.0144 34.3061 26.41 38.7521 20.6609 37.73C14.9118 36.7079 11.1897 30.601 12.3566 24.0939C13.5149 17.5867 19.1193 13.1407 24.8684 14.1628C30.6176 15.1849 34.3396 21.2917 33.1727 27.8074V27.7989Z" fill="#D5D4D3"/>
<path d="M33.0447 27.7729C31.8948 34.2034 26.3671 38.5983 20.6861 37.5848C15.0051 36.5712 11.3342 30.541 12.4755 24.1105C13.6254 17.68 19.153 13.2936 24.834 14.2986C30.515 15.3122 34.186 21.3424 33.0447 27.7729Z" fill="#D4D4D6"/>
<path d="M32.9169 27.747C31.7841 34.1008 26.3245 38.4362 20.7116 37.4311C15.1073 36.4346 11.4704 30.4725 12.6032 24.1187C13.736 17.7733 19.1956 13.4295 24.8084 14.4346C30.4128 15.4311 34.0496 21.3932 32.9169 27.7385V27.747Z" fill="#D7D7D5"/>
<path d="M32.7977 27.7223C31.6819 33.991 26.282 38.2751 20.7458 37.2871C15.2096 36.2991 11.6238 30.4137 12.7396 24.145C13.8553 17.8763 19.2553 13.5922 24.7915 14.5802C30.3277 15.5682 33.9134 21.4536 32.7977 27.7223Z" fill="#D7D7D7"/>
<path d="M32.661 27.7051C31.5622 33.8971 26.2304 38.1217 20.7624 37.1507C15.2943 36.1797 11.7596 30.371 12.8584 24.1704C13.9656 17.9784 19.2889 13.7538 24.757 14.7248C30.225 15.6958 33.7597 21.5045 32.661 27.6965V27.7051Z" fill="#D7D7D7"/>
<path d="M32.5423 27.6794C31.4521 33.7948 26.1969 37.9683 20.797 37.0058C15.3971 36.0434 11.905 30.3112 12.9952 24.1959C14.0854 18.0805 19.3405 13.907 24.7405 14.8695C30.1404 15.8319 33.6325 21.5641 32.5423 27.6794Z" fill="#D7D7D6"/>
<path d="M32.414 27.662C31.3408 33.6922 26.1453 37.8145 20.822 36.8606C15.4987 35.9066 12.0492 30.2512 13.1224 24.221C14.1956 18.1908 19.3911 14.0685 24.7144 15.0139C30.0462 15.9678 33.4872 21.6232 32.414 27.6534V27.662Z" fill="#DBD9D8"/>
<path d="M32.2865 27.6375C31.2218 33.5911 26.103 37.6538 20.8478 36.7169C15.5927 35.78 12.1858 30.1927 13.2505 24.2391C14.3151 18.2855 19.434 14.2228 24.6891 15.1597C29.9442 16.0966 33.3511 21.684 32.2865 27.6375Z" fill="#DBD9DA"/>
<path d="M32.1595 27.6118C31.1119 33.4887 26.0612 37.5004 20.8742 36.572C15.6872 35.6521 12.3314 30.1415 13.379 24.2646C14.4266 18.3877 19.4773 14.376 24.6729 15.3044C29.8599 16.2243 33.2157 21.735 32.168 27.6118H32.1595Z" fill="#DBDBD9"/>
<path d="M32.0311 27.5866C31.0005 33.3868 26.0179 37.3388 20.899 36.4275C15.7802 35.5161 12.467 30.0822 13.5061 24.2819C14.5367 18.4902 19.5192 14.5297 24.6381 15.441C29.757 16.3524 33.0702 21.7864 32.0311 27.5781V27.5866Z" fill="#DBDADB"/>
<path d="M31.9038 27.5687C30.8818 33.2838 25.9673 37.1846 20.9166 36.2903C15.8659 35.3875 12.6038 30.0302 13.6258 24.3151C14.6479 18.6 19.5623 14.6991 24.6045 15.5934C29.6553 16.4963 32.9174 21.8536 31.9038 27.5687Z" fill="#DCDCDB"/>
<path d="M31.776 27.5427C30.771 33.1812 25.9247 37.0225 20.9421 36.1367C15.968 35.2509 12.74 29.9617 13.7535 24.3318C14.7586 18.6934 19.6049 14.8435 24.5789 15.7293C29.553 16.6151 32.7725 21.9043 31.776 27.5427Z" fill="#DFDDDC"/>
<path d="M31.6479 27.5259C30.6599 33.0792 25.8733 36.8778 20.9673 36.0005C16.0614 35.1233 12.8845 29.9107 13.8725 24.3575C14.8605 18.8042 19.6386 15.0055 24.5531 15.8828C29.459 16.7601 32.6359 21.9727 31.6479 27.5259Z" fill="#DFDDDD"/>
<path d="M31.5288 27.5008C30.5578 32.9774 25.8393 36.7165 21.0015 35.8562C16.1637 34.996 13.0378 29.8516 14.0088 24.375C14.9883 18.8984 19.6983 15.1594 24.5361 16.0196C29.3739 16.8798 32.4998 22.0242 31.5288 27.5008Z" fill="#DFDDDD"/>
<path d="M31.4013 27.4752C30.4389 32.8751 25.797 36.5631 21.0273 35.7114C16.2576 34.8596 13.1744 29.8004 14.1369 24.4004C15.0993 19.0005 19.7412 15.3126 24.5109 16.1643C29.2805 17.016 32.3638 22.0753 31.4013 27.4752Z" fill="#DFDFDF"/>
<path d="M31.273 27.4583C30.3276 32.7731 25.7453 36.4099 21.0523 35.5752C16.3593 34.7405 13.3187 29.7495 14.2641 24.4262C15.2095 19.1114 19.7918 15.4746 24.4848 16.3178C29.1778 17.1525 32.2184 22.1436 31.273 27.4583Z" fill="#DFDFDF"/>
<path d="M31.1455 27.4323C30.2086 32.6704 25.703 36.2476 21.0782 35.4215C16.4533 34.5953 13.4552 29.6809 14.3921 24.4428C15.329 19.2047 19.8346 15.6274 24.4595 16.4536C29.0843 17.2798 32.0824 22.1942 31.1455 27.4323Z" fill="#E0E0E0"/>
<path d="M31.0176 27.4073C30.0977 32.5688 25.6603 36.0949 21.1035 35.2772C16.5468 34.4681 13.5998 29.6218 14.5197 24.4603C15.4396 19.2989 19.877 15.7813 24.4337 16.5904C28.9905 17.3995 31.9374 22.2458 31.0176 27.3988V27.4073Z" fill="#E3E2E1"/>
<path d="M30.8896 27.3814C29.9868 32.4662 25.6175 35.9328 21.1289 35.1321C16.6403 34.3315 13.7444 29.5704 14.6473 24.4856C15.5501 19.4093 19.9279 15.9342 24.408 16.7349C28.8966 17.5355 31.801 22.3051 30.8896 27.3814Z" fill="#E3E2E1"/>
<path d="M30.762 27.3645C29.8677 32.3641 25.5665 35.7795 21.1546 34.9959C16.7341 34.2123 13.8809 29.5194 14.7667 24.5197C15.661 19.5201 19.9622 16.1047 24.3741 16.8883C28.7946 17.6718 31.6478 22.3649 30.7535 27.3645H30.762Z" fill="#E3E4E2"/>
<path d="M30.6345 27.3383C29.7572 32.2612 25.5241 35.6255 21.1718 34.8419C16.828 34.0669 14.0173 29.4505 14.8861 24.5276C15.7634 19.6046 19.9964 16.2403 24.3402 17.0154C28.684 17.7904 31.5032 22.4068 30.626 27.3297L30.6345 27.3383Z" fill="#E4E2E4"/>
<path d="M30.5061 27.3219C29.6459 32.1596 25.481 35.4729 21.1968 34.7063C16.9211 33.9483 14.153 29.4001 15.0218 24.5623C15.882 19.716 20.0469 16.4113 24.3311 17.1778C28.6068 17.9359 31.3749 22.4841 30.5147 27.3219H30.5061Z" fill="#E4E4E4"/>
<path d="M30.379 27.2967C29.5358 32.0578 25.4305 35.3114 21.223 34.5618C17.0155 33.8123 14.2985 29.3408 15.1417 24.5797C15.9934 19.8185 20.0902 16.5649 24.2892 17.3144C28.4967 18.0639 31.2137 22.5355 30.3705 27.2967H30.379Z" fill="#E4E4E4"/>
<path d="M30.2516 27.2709C29.4169 31.9554 25.3882 35.1494 21.2488 34.4169C17.1094 33.6759 14.435 29.2896 15.2697 24.6051C16.1044 19.9206 20.1331 16.7181 24.2725 17.4591C28.4033 18.2001 31.0862 22.5864 30.2516 27.2709Z" fill="#E7E5E5"/>
<path d="M30.1233 27.2538C29.3056 31.8531 25.3451 35.0045 21.2738 34.2805C17.2111 33.5565 14.5793 29.2383 15.397 24.6304C16.2146 20.0226 20.1751 16.8798 24.2464 17.6037C28.3091 18.3277 30.9409 22.6459 30.1233 27.2538Z" fill="#E7E5E5"/>
<path d="M30.0046 27.2281C29.1954 31.7508 25.3031 34.8426 21.3085 34.1271C17.3139 33.4202 14.7246 29.1701 15.5338 24.6474C16.3429 20.1247 20.2353 17.033 24.2299 17.7484C28.2245 18.4639 30.8137 22.7054 30.0046 27.2281Z" fill="#E7E6E6"/>
<path d="M29.8766 27.2031C29.0845 31.6491 25.2603 34.6812 21.3338 33.9828C17.4074 33.2844 14.8692 29.1109 15.6614 24.6649C16.4535 20.2189 20.2777 17.1868 24.2041 17.8852C28.1306 18.5836 30.6687 22.7571 29.8766 27.2031Z" fill="#E7E8E7"/>
<path d="M29.7482 27.1852C28.9731 31.5546 25.217 34.5356 21.3587 33.8457C17.5004 33.1558 15.0048 29.059 15.7884 24.6982C16.5635 20.3288 20.3196 17.3478 24.1779 18.0377C28.0362 18.7276 30.5233 22.8159 29.7482 27.1852Z" fill="#E8E7E6"/>
<path d="M29.6209 27.16C28.8543 31.4442 25.1664 34.3741 21.3847 33.6927C17.603 33.0199 15.1501 28.9997 15.9166 24.7155C16.6832 20.4314 20.3712 17.5014 24.1528 18.1743C27.9345 18.8472 30.3874 22.8673 29.6209 27.16Z" fill="#E8E8E9"/>
<path d="M29.4929 27.1342C28.7434 31.3418 25.1236 34.212 21.41 33.5562C17.6965 32.8919 15.2947 28.9484 16.0442 24.7409C16.7937 20.5334 20.4135 17.6631 24.127 18.3189C27.8406 18.9833 30.2509 22.9267 29.4929 27.1342Z" fill="#EBEAEA"/>
<path d="M29.3653 27.1174C28.6328 31.2397 25.0812 34.0675 21.4358 33.4116C17.7904 32.7643 15.4311 28.889 16.1636 24.7581C16.8961 20.6273 20.4478 17.808 24.0931 18.4639C27.7385 19.1112 30.0978 22.9865 29.3653 27.1088V27.1174Z" fill="#EBEAEA"/>
<path d="M29.2374 27.0924C28.5134 31.1381 25.0299 33.9062 21.4611 33.2674C17.8839 32.6286 15.5757 28.8299 16.2912 24.7842C17.0151 20.7386 20.4987 17.9705 24.0674 18.6092C27.6447 19.248 29.9528 23.0467 29.2374 27.0924Z" fill="#EBEAEA"/>
<path d="M29.1099 27.0745C28.403 31.0435 24.9875 33.752 21.4869 33.1303C17.9778 32.5085 15.7123 28.7865 16.4192 24.8175C17.1261 20.8484 20.5415 18.1399 24.0421 18.7617C27.5512 19.3834 29.8168 23.114 29.1099 27.083V27.0745Z" fill="#EBEAEB"/>
<path d="M28.9823 27.0495C28.2924 30.9419 24.9452 33.5993 21.5042 32.986C18.0717 32.3728 15.8487 28.7274 16.5386 24.835C17.2285 20.9427 20.5758 18.2853 24.0168 18.8985C27.4492 19.5118 29.6722 23.1572 28.9823 27.0495Z" fill="#EBEBEB"/>
<path d="M28.8541 27.0239C28.1727 30.8311 24.8936 33.4374 21.5378 32.8412C18.1735 32.2364 15.9931 28.6677 16.6745 24.852C17.3558 21.0448 20.635 18.4385 23.9993 19.0432C27.3636 19.6394 29.5355 23.2167 28.8626 27.0239H28.8541Z" fill="#EFECEC"/>
<path d="M28.7347 27.0067C28.0704 30.7372 24.8593 33.2839 21.5632 32.6962C18.267 32.1085 16.1377 28.6079 16.802 24.8774C17.4664 21.1468 20.6774 18.6002 23.9736 19.1878C27.2697 19.7755 29.3991 23.2761 28.7347 27.0067Z" fill="#EEECED"/>
<path d="M28.6072 26.981C27.9599 30.6349 24.8171 33.1304 21.589 32.5512C18.361 31.9721 16.2743 28.5482 16.9301 24.9028C17.5774 21.2489 20.7203 18.7533 23.9483 19.3325C27.1763 19.9032 29.2631 23.3271 28.6072 26.981Z" fill="#EFEFEF"/>
<path d="M28.4789 26.9557C27.8401 30.5245 24.7654 32.9689 21.614 32.4068C18.4626 31.8447 16.4185 28.4889 17.0573 24.9202C17.6961 21.3514 20.7623 18.907 23.9222 19.4691C27.0736 20.0312 29.1177 23.387 28.4789 26.9557Z" fill="#F0EFF0"/>
<path d="M28.3514 26.9382C27.7297 30.4302 24.7231 32.8151 21.6399 32.27C18.5566 31.7163 16.5551 28.4372 17.1854 24.9451C17.8071 21.453 20.8137 19.0682 23.8969 19.6218C26.9802 20.1669 28.9817 23.4461 28.36 26.9382H28.3514Z" fill="#F0EFEF"/>
<path d="M28.2244 26.9129C27.6196 30.3283 24.6812 32.662 21.6661 32.1254C18.651 31.5888 16.7005 28.3864 17.3053 24.971C17.91 21.5555 20.8484 19.2218 23.8635 19.7584C26.8787 20.295 28.8291 23.4974 28.2244 26.9129Z" fill="#F1F1F1"/>
<path d="M28.0961 26.8872C27.4999 30.2175 24.6296 32.5001 21.6911 31.972C18.7527 31.4439 16.8448 28.3181 17.4325 24.9879C18.0287 21.6576 20.8905 19.375 23.8375 19.9031C26.7844 20.4312 28.6838 23.557 28.0961 26.8872Z" fill="#F1F1F1"/>
<path d="M27.968 26.87C27.3888 30.1236 24.5866 32.3466 21.7163 31.8356C18.8375 31.3246 16.9807 28.2669 17.5599 25.0133C18.1391 21.7597 20.9412 19.5367 23.8115 20.0477C26.6904 20.5587 28.5471 23.6164 27.968 26.87Z" fill="#F3F1F2"/>
<path d="M27.8406 26.8443C27.27 30.0213 24.5445 32.1847 21.7423 31.6907C18.9401 31.1881 17.126 28.2156 17.6881 25.0387C18.2502 21.8618 20.9843 19.6899 23.7864 20.1924C26.5886 20.6949 28.4028 23.6674 27.8406 26.8443Z" fill="#F3F1F2"/>
<path d="M27.7129 26.8197C27.1593 29.9114 24.4934 32.0322 21.7594 31.5467C19.0253 31.0612 17.2537 28.1569 17.8073 25.0566C18.361 21.9648 21.0269 19.844 23.7609 20.3381C26.4949 20.8235 28.2665 23.7279 27.7129 26.8282V26.8197Z" fill="#F3F1F2"/>
<path d="M27.5852 26.8024C27.0486 29.8175 24.4509 31.8787 21.7935 31.4018C19.1276 30.9248 17.4071 28.0971 17.9437 25.082C18.4803 22.0669 21.078 20.0057 23.7439 20.4827C26.4098 20.9596 28.1303 23.7873 27.5938 26.8024H27.5852Z" fill="#F3F1F2"/>
<path d="M27.4663 26.7766C26.9467 29.715 24.4171 31.7251 21.8194 31.2566C19.2216 30.7967 17.5437 28.0371 18.0717 25.0986C18.5913 22.1602 21.1209 20.1501 23.7187 20.6186C26.3164 21.0785 27.9944 23.8381 27.4663 26.768V26.7766Z" fill="#F3F4F5"/>
<path d="M27.338 26.7515C26.8269 29.6048 24.374 31.5638 21.8444 31.1123C19.3232 30.6609 17.6879 27.978 18.199 25.1248C18.71 22.2715 21.163 20.3125 23.6926 20.7639C26.2137 21.2153 27.849 23.8982 27.338 26.7515Z" fill="#F3F2F4"/>
<path d="M27.2105 26.7337C26.7165 29.5103 24.3232 31.4096 21.8702 30.9667C19.4172 30.5323 17.8245 27.926 18.327 25.1409C18.821 22.3643 21.2144 20.465 23.6673 20.9079C26.1203 21.3422 27.7045 23.9485 27.2105 26.7337Z" fill="#F3F4F5"/>
<path d="M27.0826 26.7082C26.6056 29.4082 24.2804 31.2564 21.8956 30.8306C19.5107 30.4047 17.9691 27.8751 18.4546 25.1751C18.9316 22.4751 21.2568 20.6354 23.6416 21.0613C26.0264 21.4871 27.568 24.0168 27.0826 26.7167V26.7082Z" fill="#F3F4F5"/>
<path d="M26.9553 26.6827C26.4868 29.306 24.2382 31.0946 21.9216 30.6773C19.6134 30.2685 18.1143 27.807 18.5828 25.1837C19.0512 22.5689 21.2998 20.7718 23.6165 21.1891C25.9332 21.5979 27.4237 24.0594 26.9553 26.6742V26.6827Z" fill="#F4F5F5"/>
<path d="M26.8276 26.6658C26.3762 29.2039 24.1873 30.9414 21.9473 30.5411C19.7072 30.1408 18.2508 27.756 18.7022 25.2179C19.1536 22.6797 21.3425 20.9422 23.5826 21.3425C25.8226 21.7343 27.2791 24.1277 26.8276 26.6658Z" fill="#F4F5F5"/>
<path d="M26.6997 26.6401C26.2653 29.1015 24.1445 30.7795 21.9726 30.3962C19.8007 30.0044 18.3954 27.7048 18.8298 25.2433C19.2641 22.7818 21.3849 21.1039 23.5568 21.4871C25.7287 21.8704 27.1341 24.1786 26.6997 26.6401Z" fill="#F7F7F7"/>
<path d="M26.5712 26.6153C26.1454 29.0002 24.1012 30.627 21.9975 30.2437C19.8937 29.8689 18.531 27.6374 18.9568 25.2525C19.3827 22.8677 21.4268 21.2495 23.5306 21.6242C25.6343 21.999 26.9971 24.2305 26.5712 26.6153Z" fill="#F7F7F7"/>
<path d="M26.4443 26.5972C26.0354 28.8969 24.0509 30.4726 22.0238 30.1063C19.9882 29.7486 18.6765 27.5853 19.0854 25.2856C19.4942 22.986 21.4787 21.4103 23.5058 21.7765C25.5414 22.1427 26.8531 24.2976 26.4443 26.5972Z" fill="#F7F7F7"/>
<path d="M26.3249 26.5723C25.9246 28.7953 24.0168 30.3113 22.0493 29.9621C20.0903 29.6129 18.8128 27.5262 19.2131 25.3032C19.6134 23.0802 21.5212 21.5641 23.4887 21.9133C25.4477 22.2625 26.7253 24.3493 26.3249 26.5723Z" fill="#F7F7F7"/>
<path d="M26.197 26.5466C25.8137 28.6929 23.974 30.1494 22.0747 29.8172C20.1838 29.4765 18.9574 27.4665 19.3406 25.3286C19.7239 23.1823 21.5636 21.7173 23.463 22.058C25.3538 22.3987 26.5803 24.4088 26.197 26.5466Z" fill="#F7F7F7"/>
<path d="M26.0691 26.5297C25.7028 28.5909 23.9227 30.0048 22.1 29.6811C20.2773 29.3575 19.102 27.424 19.4682 25.3543C19.8344 23.2932 21.6146 21.8793 23.4372 22.2115C25.2599 22.5351 26.4353 24.4686 26.0691 26.5382V26.5297Z" fill="#F7F7F8"/>
<path d="M25.9416 26.505C25.5924 28.4895 23.8804 29.8437 22.1259 29.5371C20.3713 29.2219 19.2385 27.3652 19.5962 25.3807C19.954 23.3961 21.6574 22.0419 23.412 22.3571C25.1665 22.6637 26.2993 24.529 25.9416 26.5135V26.505Z" fill="#F7F7F8"/>
<path d="M25.8133 26.4789C25.4726 28.3868 23.8373 29.69 22.1509 29.3919C20.473 29.0938 19.3828 27.3052 19.7235 25.3973C20.0642 23.4894 21.6995 22.1948 23.3859 22.4929C25.0638 22.791 26.154 24.5796 25.8218 26.4789H25.8133Z" fill="#F7F8F9"/>
<path d="M25.6857 26.4616C25.362 28.2928 23.7949 29.5363 22.1766 29.2467C20.5668 28.9571 19.5192 27.2452 19.8429 25.4225C20.1665 23.5998 21.7422 22.3478 23.352 22.6373C24.9617 22.9269 26.0094 24.6389 25.6772 26.4616H25.6857Z" fill="#F7F8F9"/>
<path d="M25.5578 26.4366C25.2426 28.1826 23.7436 29.375 22.202 29.1025C20.6603 28.8299 19.6638 27.1861 19.9705 25.4401C20.2856 23.694 21.7846 22.5016 23.3262 22.7741C24.8679 23.0467 25.8644 24.6905 25.5578 26.4366Z" fill="#F7F8F9"/>
<path d="M25.4303 26.4109C25.1322 28.0803 23.7013 29.213 22.2278 28.9575C20.7543 28.6935 19.8004 27.1348 20.0985 25.4654C20.3966 23.796 21.8275 22.6633 23.301 22.9188C24.7745 23.1828 25.7284 24.75 25.4303 26.4109Z" fill="#F9FCFF"/>
<path d="M25.303 26.3938C25.0219 27.978 23.6506 29.0682 22.2538 28.8127C20.8569 28.5657 19.9456 27.0752 20.2267 25.4824C20.5078 23.8982 21.8705 22.808 23.2759 23.0635C24.6812 23.3105 25.584 24.8011 25.303 26.3938Z" fill="#F9FCFF"/>
<path d="M25.1749 26.368C24.9023 27.8755 23.6077 28.9061 22.279 28.6677C20.9418 28.4292 20.0815 27.0153 20.3541 25.5078C20.6181 24.0002 21.9213 22.9696 23.25 23.2081C24.5786 23.4466 25.4474 24.8604 25.1749 26.368Z" fill="#F9FCFF"/>
<path d="M25.0475 26.342C24.792 27.7644 23.5655 28.7439 22.305 28.5225C21.0444 28.301 20.2268 26.9553 20.4823 25.5244C20.7378 24.0935 21.9643 23.1225 23.2249 23.344C24.4854 23.5654 25.303 24.9111 25.0475 26.342Z" fill="white"/>
<path d="M24.9196 26.3261C24.6811 27.6719 23.5228 28.5917 22.3303 28.3873C21.1379 28.1744 20.3714 26.9053 20.6099 25.5596C20.8484 24.2054 22.0067 23.2855 23.1991 23.4984C24.3915 23.7113 25.1666 24.9719 24.9196 26.3261Z" fill="white"/>
<path d="M24.7997 26.3002C24.5697 27.5693 23.4795 28.438 22.3552 28.2336C21.231 28.0377 20.507 26.8453 20.7369 25.5677C20.9584 24.2986 22.0571 23.4299 23.1729 23.6343C24.2972 23.8387 25.0211 25.0226 24.7912 26.2917L24.7997 26.3002Z" fill="white"/>
<path d="M24.6723 26.2833C24.4594 27.4758 23.4373 28.2849 22.3812 28.0975C21.3336 27.9101 20.6522 26.7944 20.8651 25.602C21.0781 24.4096 22.1001 23.5919 23.1563 23.7878C24.2039 23.9752 24.8853 25.0909 24.6723 26.2833Z" fill="white"/>
<path d="M24.5447 26.2566C24.3488 27.3638 23.3949 28.1304 22.4069 27.9516C21.4275 27.7727 20.7886 26.7336 20.9845 25.6263C21.1804 24.5106 22.1429 23.7525 23.1224 23.9314C24.1019 24.1103 24.7407 25.1494 24.5362 26.2651L24.5447 26.2566Z" fill="white"/>
<path d="M24.4168 26.2314C24.238 27.2619 23.3437 27.9688 22.4323 27.807C21.521 27.6452 20.9333 26.6828 21.1121 25.6437C21.2995 24.6131 22.1853 23.9062 23.0967 24.068C24.008 24.2298 24.5957 25.2008 24.4168 26.2314Z" fill="white"/>
<path d="M24.2893 26.2056C24.119 27.1596 23.3013 27.8069 22.4581 27.6621C21.6149 27.5088 21.0698 26.6145 21.2401 25.6691C21.4105 24.7152 22.2282 24.0678 23.0714 24.2126C23.9146 24.3659 24.4597 25.2517 24.2893 26.2056Z" fill="white"/>
<path d="M24.161 26.1892C24.0077 27.0665 23.2582 27.6627 22.4831 27.5179C21.7166 27.3816 21.2141 26.5639 21.3674 25.6867C21.5207 24.8094 22.2787 24.2217 23.0453 24.3495C23.8204 24.4857 24.3143 25.3034 24.161 26.1807V26.1892Z" fill="white"/>
<path d="M24.0335 26.1631C23.8887 26.9552 23.2074 27.5003 22.509 27.3726C21.8106 27.2448 21.3506 26.5038 21.4954 25.7117C21.6317 24.9111 22.3216 24.3744 23.02 24.5022C23.7184 24.63 24.1783 25.371 24.0335 26.1631Z" fill="white"/>
<path d="M23.9056 26.1378C23.7778 26.8533 23.1646 27.3387 22.5343 27.228C21.9041 27.1173 21.4952 26.4444 21.623 25.729C21.7507 25.0135 22.364 24.5281 22.9943 24.6388C23.6246 24.7495 24.0334 25.4224 23.9056 26.1378Z" fill="white"/>
<path d="M23.7786 26.1207C23.6679 26.751 23.1228 27.1854 22.5607 27.0917C21.9985 26.9895 21.6408 26.3933 21.7515 25.763C21.8623 25.1327 22.4074 24.6898 22.9695 24.792C23.5316 24.8942 23.8979 25.4904 23.7786 26.1292V26.1207Z" fill="white"/>
<path d="M23.6502 26.0953C23.548 26.649 23.071 27.0322 22.5856 26.9471C22.0916 26.8619 21.7764 26.3338 21.8786 25.7802C21.9808 25.2265 22.4578 24.8433 22.9433 24.937C23.4373 25.0221 23.7524 25.5417 23.6502 26.0953Z" fill="white"/>
<path d="M23.5314 26.0705C23.4462 26.5475 23.0374 26.8711 22.6115 26.803C22.1942 26.7263 21.9216 26.2749 22.0068 25.8065C22.092 25.3295 22.5008 25.0059 22.9267 25.0825C23.344 25.1592 23.6165 25.6021 23.5314 26.079V26.0705Z" fill="white"/>
<path d="M23.4028 26.053C23.3347 26.4533 22.994 26.7174 22.6363 26.6578C22.2871 26.5981 22.0571 26.2234 22.1252 25.8231C22.1934 25.4228 22.5426 25.1587 22.8918 25.2184C23.241 25.278 23.471 25.6527 23.3943 26.0445L23.4028 26.053Z" fill="white"/>
<path d="M23.2749 26.0274C23.2153 26.3425 22.9427 26.564 22.6617 26.5129C22.3806 26.4618 22.2017 26.1637 22.2528 25.8485C22.3125 25.5249 22.585 25.3119 22.8661 25.363C23.1472 25.4141 23.326 25.7123 23.2749 26.0274Z" fill="white"/>
<path d="M23.1474 26.0109C23.1048 26.2494 22.9004 26.4112 22.6874 26.3772C22.4745 26.3431 22.3382 26.1131 22.3808 25.8747C22.4234 25.6362 22.6278 25.4744 22.8407 25.5084C23.0452 25.551 23.1814 25.7724 23.1474 26.0109Z" fill="white"/>
<path d="M23.0201 25.9855C22.9946 26.1473 22.8583 26.2495 22.7135 26.224C22.5772 26.1984 22.4835 26.0536 22.5091 25.8918C22.5346 25.7299 22.6709 25.6278 22.8157 25.6533C22.9605 25.6789 23.0457 25.8237 23.0201 25.9855Z" fill="white"/>
<path d="M22.8923 25.9597C22.8753 26.0363 22.8072 26.096 22.739 26.0789C22.6709 26.0704 22.6283 25.9938 22.6368 25.9171C22.6539 25.8404 22.722 25.7808 22.7901 25.7978C22.8583 25.8149 22.9094 25.883 22.8923 25.9682V25.9597Z" fill="white"/>
</g>
</g>
<path style="mix-blend-mode:screen" opacity="0.75" d="M14.3667 13.6178C12.7144 21.7177 10.5254 28.5741 13.1913 35.3879C12.9784 34.3317 12.9102 33.1564 13.0039 31.8788C13.2083 28.9659 14.4178 26.5385 15.525 23.3786C16.0616 21.854 16.99 19.5884 17.3477 18.2852C19.2386 11.4544 18.3954 5.97784 15.031 3.23529C13.2765 1.81291 11.3771 1.0293 8.77939 1.0293C7.18666 1.0293 5.628 1.3189 4.22266 1.84697C10.9598 1.22521 15.9339 5.90117 14.3582 13.6008L14.3667 13.6178Z" fill="url(#paint0_linear_77_3162)"/>
<path style="mix-blend-mode:screen" opacity="0.75" d="M39.6629 37.8921C40.2506 33.0373 38.5897 27.0667 33.522 24.6733C32.0741 23.9919 30.328 23.6172 28.6075 23.6172C28.1306 23.6172 27.5003 23.6513 26.7848 23.7705C31.8782 23.6172 36.1794 29.2215 35.7876 36.8274C35.4895 42.7299 31.6567 51.179 23.5312 53.7512C32.0911 52.5418 38.6153 46.503 39.6629 37.8921Z" fill="url(#paint1_linear_77_3162)"/>
<path d="M156.358 31.7854C155.063 30.7377 152.832 30.5674 151.222 31.7854C149.927 32.7734 149.28 34.7578 149.791 37.4493C150.064 38.8546 150.873 40.6944 150.898 42.1508C150.933 44.3824 149.51 45.5663 148.037 45.5663C146.376 45.5663 145.567 44.5953 145.618 43.3517C145.694 41.2821 148.624 40.2855 149.715 42.236C149.766 38.4373 146.061 38.3947 144.298 39.1953C142.39 40.0641 141.282 42.2615 141.351 44.2716C141.47 47.6019 143.982 50.2507 148.122 50.2507C152.261 50.2507 155.54 47.4486 155.762 42.73C155.881 40.1493 154.672 38.0711 154.178 35.1752C153.675 32.2282 155.481 31.6831 156.358 31.7768V31.7854Z" fill="#EA1C67"/>
<path d="M49.0663 38.2246C45.5657 38.2246 42.7295 40.9246 42.7295 44.2463C42.7295 47.568 45.5657 50.268 49.0663 50.268C52.5669 50.268 55.4032 47.568 55.4032 44.2463C55.4032 40.9246 52.5669 38.2246 49.0663 38.2246ZM49.4752 45.6687C48.155 45.6687 47.0818 44.6466 47.0818 43.3946C47.0818 42.1425 48.155 41.1204 49.4752 41.1204C50.7953 41.1204 51.8685 42.134 51.8685 43.3946C51.8685 44.6551 50.7953 45.6687 49.4752 45.6687Z" fill="#EA1C67"/>
<path d="M119.571 38.2246C116.071 38.2246 113.234 40.9246 113.234 44.2463C113.234 47.568 116.071 50.268 119.571 50.268C123.072 50.268 125.908 47.568 125.908 44.2463C125.908 40.9246 123.072 38.2246 119.571 38.2246ZM119.98 45.6687C118.66 45.6687 117.587 44.6466 117.587 43.3946C117.587 42.1425 118.66 41.1204 119.98 41.1204C121.3 41.1204 122.373 42.134 122.373 43.3946C122.373 44.6551 121.3 45.6687 119.98 45.6687Z" fill="#EA1C67"/>
<path d="M133.608 38.2246C130.108 38.2246 127.271 40.9246 127.271 44.2463C127.271 47.568 130.108 50.268 133.608 50.268C137.109 50.268 139.945 47.568 139.945 44.2463C139.945 40.9246 137.109 38.2246 133.608 38.2246ZM134.153 45.6687C132.833 45.6687 131.76 44.6466 131.76 43.3946C131.76 42.1425 132.833 41.1204 134.153 41.1204C135.474 41.1204 136.547 42.134 136.547 43.3946C136.547 44.6551 135.474 45.6687 134.153 45.6687Z" fill="#EA1C67"/>
<path d="M62.4296 44.1013C62.6511 42.6364 63.8435 37.6793 63.9457 36.9894C64.363 34.2213 63.6476 32.3049 62.3274 31.4788C60.6836 30.4482 58.4776 30.8911 57.2256 32.1006C58.0943 31.8961 59.9 32.2283 59.5082 35.2434C59.3123 36.7084 57.7707 43.4029 57.6685 44.0843C57.2512 46.8524 58.2477 48.7347 59.5678 49.5609C61.2117 50.5915 64.0138 50.0804 65.2659 48.8625C63.5965 49.0669 61.7568 48.3685 62.4126 44.0928L62.4296 44.1013Z" fill="#EA1C67"/>
<path d="M70.7258 44.1013C70.9472 42.6364 72.1397 37.6793 72.2419 36.9894C72.6592 34.2213 71.9438 32.3049 70.6236 31.4788C68.9798 30.4482 66.7823 30.8911 65.5303 32.1006C66.399 31.8961 68.2047 32.2283 67.8129 35.2434C67.6255 36.7084 66.0754 43.4029 65.9732 44.0843C65.5558 46.8524 66.5524 48.7347 67.881 49.5609C69.5249 50.5915 72.327 50.0804 73.5791 48.8625C71.9097 49.0669 70.07 48.3685 70.7258 44.0928V44.1013Z" fill="#EA1C67"/>
<path d="M87.0445 51.417C87.2659 49.9606 88.4583 44.995 88.5605 44.3136C88.9779 41.5455 88.2624 39.6292 86.9423 38.803C85.2984 37.7724 83.101 38.2153 81.8489 39.4247C82.7177 39.2203 84.5234 39.561 84.1316 42.5676C84.0805 42.9509 83.9442 43.6749 83.7568 44.5607C82.9647 47.2606 79.4215 46.5196 79.8389 43.7686C80.2733 40.8812 79.4386 39.5525 78.2632 38.82C76.8067 37.9086 74.6434 38.3005 73.5361 39.3736C74.3112 39.1948 75.9124 39.4929 75.5632 42.1588C75.3929 43.4619 75.4099 43.4023 75.2396 44.3392C74.7967 46.7837 75.7165 48.5723 76.8579 49.3473C78.638 50.5568 81.0483 50.4801 82.7177 49.3729C82.4963 50.4035 82.3259 51.1956 82.2919 51.4C81.8745 54.1681 82.871 56.0504 84.1912 56.8766C85.835 57.9071 88.6372 57.3961 89.8892 56.1781C88.2198 56.3826 86.3801 55.6842 87.0359 51.4085L87.0445 51.417Z" fill="#EA1C67"/>
<path d="M110.059 38.8208C108.602 37.9095 106.516 38.3013 105.4 39.3744C106.175 39.1956 107.776 39.4937 107.427 42.1596C107.376 42.5514 107.214 43.3776 107.01 44.34C106.2 47.2274 103.253 46.5204 103.671 43.7608C104.105 40.8735 103.33 39.5448 102.155 38.8123C100.698 37.901 98.6115 38.2928 97.4958 39.3659C98.2709 39.1871 99.8721 39.4852 99.5229 42.1511C99.3526 43.4542 99.3696 43.3946 99.1992 44.3315C99.1992 44.3485 99.1992 44.357 99.1992 44.3741C99.1652 44.4167 99.1311 44.4592 99.1141 44.5188C98.322 47.2273 95.5028 46.5119 95.9201 43.7608C96.3545 40.8735 95.5794 39.5448 94.4041 38.8123C92.9476 37.901 90.8609 38.2928 89.7451 39.3659C90.5117 39.1871 92.1214 39.4852 91.7722 42.1511C91.6019 43.4542 91.6189 43.3946 91.4486 44.3315C91.0057 46.7759 91.9511 48.522 93.0668 49.3396C95.128 50.8557 98.2112 50.4213 100.349 48.9478C100.502 49.0926 100.656 49.2289 100.818 49.3396C103.773 51.3412 110.059 50.3617 111.49 44.3315C111.558 44.0249 111.6 43.8034 111.617 43.6927C111.617 43.6757 111.617 43.6501 111.617 43.6331C111.617 43.616 111.617 43.599 111.626 43.582C111.95 41.1886 111.192 39.5278 110.042 38.8123L110.059 38.8208Z" fill="#EA1C67"/>
<path fill-rule="evenodd" clip-rule="evenodd" d="M146.375 23.3186C146.375 28.5652 142.083 32.8579 136.836 32.8579H112.289C107.043 32.8579 102.75 28.5652 102.75 23.3186C102.75 18.072 107.043 13.7793 112.289 13.7793H136.836C142.083 13.7793 146.375 18.072 146.375 23.3186Z" fill="#EA1C67"/>
<path style="mix-blend-mode:multiply" opacity="0.6" fill-rule="evenodd" clip-rule="evenodd" d="M146.375 23.3186C146.375 28.5652 142.083 32.8579 136.836 32.8579H112.289C107.043 32.8579 102.75 28.5652 102.75 23.3186C102.75 18.072 107.043 13.7793 112.289 13.7793H136.836C142.083 13.7793 146.375 18.072 146.375 23.3186Z" fill="url(#paint2_radial_77_3162)"/>
<path fill-rule="evenodd" clip-rule="evenodd" d="M109.138 19.0337C109.061 18.9911 108.993 18.9144 109.07 18.8122C109.121 18.7356 109.206 18.7526 109.206 18.7526H111.318C111.318 18.7526 111.727 18.7696 111.966 18.9315C112.204 19.0933 112.332 19.2637 112.4 19.4766C112.468 19.681 112.451 20.0046 112.451 20.0046L112.213 22.8239L111.872 26.6226C111.872 26.6226 111.838 27.0058 111.983 27.2614C112.11 27.4913 112.349 27.6105 112.511 27.6702C112.673 27.7298 113.115 27.8149 113.115 27.8149C113.115 27.8149 113.235 27.8575 113.235 27.9342C113.235 28.0109 113.218 28.0535 113.141 28.1046C113.064 28.1557 112.979 28.1557 112.979 28.1557H110.765C110.765 28.1557 110.407 28.1727 110.066 27.8405C109.768 27.5595 109.768 27.1165 109.768 27.1165V26.6821L110.381 20.3027C110.381 20.3027 110.381 19.9195 110.296 19.7321C110.194 19.5106 110.109 19.4169 109.853 19.2977C109.649 19.204 109.138 19.0422 109.138 19.0422V19.0337Z" fill="white"/>
<path fill-rule="evenodd" clip-rule="evenodd" d="M113.516 19.0258C113.439 18.9832 113.371 18.9066 113.448 18.8044C113.499 18.7277 113.584 18.7448 113.584 18.7448H115.696C115.696 18.7448 116.105 18.7618 116.344 18.9236C116.573 19.0769 116.71 19.2558 116.778 19.4602C116.846 19.6646 116.829 19.9883 116.829 19.9883L116.591 22.8075L116.25 26.6062C116.25 26.6062 116.216 26.9895 116.352 27.245C116.48 27.4749 116.718 27.6027 116.88 27.6623C117.05 27.7219 117.493 27.8071 117.493 27.8071C117.493 27.8071 117.613 27.8497 117.613 27.9263C117.613 28.003 117.579 28.0371 117.502 28.0882C117.425 28.1393 117.357 28.1478 117.357 28.1478H115.151C115.151 28.1478 114.793 28.1648 114.453 27.8327C114.155 27.5516 114.155 27.1087 114.155 27.1087V26.6743L114.759 20.2949C114.759 20.2949 114.742 19.9627 114.649 19.7668C114.538 19.5368 114.402 19.3921 114.231 19.2899C114.035 19.1791 113.516 19.0343 113.516 19.0343V19.0258Z" fill="white"/>
<path fill-rule="evenodd" clip-rule="evenodd" d="M117.782 19.0177C117.706 18.9751 117.638 18.8985 117.714 18.7878C117.765 18.7111 117.851 18.7282 117.851 18.7282H119.963C119.963 18.7282 120.372 18.7452 120.61 18.9071C120.849 19.0689 120.976 19.2392 121.045 19.4521C121.113 19.6565 121.096 19.9802 121.096 19.9802L120.857 22.7994L120.516 26.5981C120.516 26.5981 120.482 26.9814 120.627 27.2369C120.755 27.4669 120.968 27.5946 121.138 27.6542C121.309 27.7138 121.768 27.7991 121.768 27.7991C121.768 27.7991 121.879 27.8416 121.879 27.9268C121.879 28.012 121.862 28.046 121.786 28.0971C121.709 28.1482 121.632 28.1312 121.632 28.1312H119.418C119.418 28.1312 119.06 28.1482 118.719 27.8161C118.421 27.535 118.421 27.0921 118.421 27.0921V26.6577L119.034 20.2783C119.034 20.2783 119.017 19.9376 118.924 19.7503C118.821 19.5203 118.677 19.3755 118.506 19.2733C118.31 19.1626 117.791 19.0177 117.791 19.0177H117.782Z" fill="white"/>
<path fill-rule="evenodd" clip-rule="evenodd" d="M122.169 16.2491C122.101 16.1895 122.067 16.1384 122.101 16.0532C122.144 15.934 122.297 15.9425 122.297 15.9425H124.426C124.426 15.9425 125.006 15.9425 125.321 16.2151C125.636 16.4876 125.687 16.7176 125.696 16.922C125.704 17.1264 125.517 19.4005 125.517 19.4005C125.517 19.4005 125.5 19.5368 125.534 19.5368C125.568 19.5368 125.866 19.3835 126.121 19.2728C126.377 19.1621 127.016 18.9832 127.578 19.0172C128.14 19.0598 128.881 19.128 129.733 19.7242C130.576 20.3204 130.865 20.9933 131.087 21.6747C131.308 22.356 131.3 23.1992 131.3 23.1992C131.3 23.1992 131.317 24.0765 131.061 24.9793C130.806 25.8821 130.38 26.4272 130.38 26.4272C130.38 26.4272 130.09 26.8957 129.477 27.4067C128.855 27.9178 128.106 28.1648 128.106 28.1648C128.106 28.1648 127.348 28.4203 126.522 28.4118C125.696 28.4033 125.074 28.2329 124.478 27.9603C123.813 27.6537 123.387 27.0575 123.387 27.0575C123.387 27.0575 122.953 26.4784 122.893 26.2484C122.834 26.0184 122.851 25.9248 122.902 25.8737C122.953 25.8311 123.021 25.8566 123.047 25.8907C123.081 25.9162 123.379 26.2143 123.541 26.3336C123.694 26.4528 123.941 26.6658 124.392 26.8361C124.844 27.0064 125.27 27.1172 125.738 27.1598C126.207 27.2023 126.896 27.0916 127.382 26.8361C127.867 26.5806 128.361 26.0866 128.54 25.8225C128.719 25.5585 129.026 25.1497 129.23 24.2298C129.435 23.3015 129.366 22.7819 129.366 22.7819C129.366 22.7819 129.358 22.0409 128.966 21.1381C128.523 20.116 127.552 19.9201 127.552 19.9201C127.552 19.9201 127.126 19.8093 126.666 19.8775C126.275 19.9371 125.815 20.2352 125.636 20.4737C125.457 20.7207 125.44 20.9081 125.389 21.2999C125.363 21.4788 125.091 24.1787 125.091 24.1787C125.091 24.1787 125.057 24.7579 125.099 24.9623C125.142 25.1667 125.253 25.5074 125.397 25.6351C125.534 25.7629 125.653 25.78 125.644 25.8651C125.636 25.9418 125.534 26.0525 125.389 26.0781C125.244 26.1036 124.937 26.1206 124.546 26.0184C124.154 25.9162 123.737 25.7118 123.413 25.2519C123.089 24.7919 122.979 24.4086 122.927 23.9146C122.876 23.4206 123.183 20.4226 123.183 20.4226L123.49 17.3223C123.49 17.3223 123.481 16.9475 123.191 16.675C122.902 16.4024 122.45 16.3258 122.45 16.3258C122.45 16.3258 122.203 16.3087 122.135 16.2491H122.169Z" fill="white"/>
<path fill-rule="evenodd" clip-rule="evenodd" d="M137.961 19.511C137.961 19.511 138.421 19.4258 138.804 19.4428C139.187 19.4599 139.57 19.5451 139.775 19.6302C139.979 19.7154 140.158 19.775 140.226 19.8091C140.294 19.8432 140.422 19.8432 140.439 19.7324C140.456 19.6217 140.363 19.5365 140.201 19.4173C140.047 19.2981 139.375 18.8807 138.804 18.7359C138.233 18.5997 137.782 18.5741 137.203 18.5996C136.623 18.6252 135.525 18.8977 134.852 19.2895C134.188 19.6813 133.31 20.499 133.063 20.9333C132.799 21.4103 132.45 21.964 132.365 23.1053C132.297 24.0081 132.407 24.8854 132.748 25.5497C133.148 26.3333 133.787 27.0998 134.477 27.4916C135.167 27.8834 136.146 28.2667 137.194 28.2497C138.242 28.2326 139.298 27.8153 139.817 27.3894C140.337 26.9636 140.354 26.9039 140.38 26.8017C140.422 26.6314 140.32 26.5973 140.243 26.5973C140.167 26.5973 140.107 26.6484 139.869 26.7677C139.63 26.8869 139.162 27.0317 138.812 27.0828C138.472 27.1339 137.867 27.1765 137.143 26.938C136.411 26.691 135.797 26.1204 135.797 26.1204C135.797 26.1204 135.218 25.5497 134.971 24.8768C134.724 24.2125 134.741 23.2841 134.741 23.2841C134.741 23.2841 134.758 22.1513 135.286 21.3848C135.806 20.6182 136.172 20.3201 136.76 19.9709C137.339 19.6303 137.952 19.511 137.952 19.511H137.961Z" fill="white"/>
<path style="mix-blend-mode:screen" opacity="0.75" d="M145.916 23.3184C145.916 18.3103 141.836 14.2305 136.828 14.2305H136.641C141.7 14.2305 144 20.1415 144 23.3184C144 26.4953 142.271 31.7334 137.228 32.3978C142.058 32.1933 145.924 28.1988 145.924 23.3184H145.916Z" fill="url(#paint3_linear_77_3162)"/>
<defs>
<linearGradient id="paint0_linear_77_3162" x1="19.6815" y1="14.3758" x2="10.5169" y2="17.9275" gradientUnits="userSpaceOnUse">
<stop stop-color="white"/>
<stop offset="1"/>
</linearGradient>
<linearGradient id="paint1_linear_77_3162" x1="39.6203" y1="36.7082" x2="29.5104" y2="38.1391" gradientUnits="userSpaceOnUse">
<stop stop-color="white"/>
<stop offset="1"/>
</linearGradient>
<radialGradient id="paint2_radial_77_3162" cx="0" cy="0" r="1" gradientUnits="userSpaceOnUse" gradientTransform="translate(127.143 44.3568) scale(28.6605 16.3365)">
<stop stop-color="white"/>
<stop offset="0.1" stop-color="#F9F9F9"/>
<stop offset="0.22" stop-color="#E9E9E9"/>
<stop offset="0.36" stop-color="#CFCFCF"/>
<stop offset="0.51" stop-color="#AAAAAA"/>
<stop offset="0.67" stop-color="#7C7C7C"/>
<stop offset="0.83" stop-color="#424242"/>
<stop offset="1"/>
</radialGradient>
<linearGradient id="paint3_linear_77_3162" x1="145.209" y1="20.2777" x2="139.775" y2="22.4581" gradientUnits="userSpaceOnUse">
<stop stop-color="white"/>
<stop offset="1"/>
</linearGradient>
</defs>
</svg>
