<svg width="73" height="100" viewBox="0 0 73 100" fill="none" xmlns="http://www.w3.org/2000/svg">
<path d="M5.24707 36.2678C5.24707 19.112 19.154 5.20508 36.3195 5.20508C53.485 5.20508 67.3823 19.1217 67.3823 36.2678C67.3823 53.4138 53.4753 67.3402 36.3195 67.3402C19.1637 67.3402 5.24707 53.4332 5.24707 36.2678Z" fill="#0069A5"/>
<path d="M36.2899 0C16.2441 0 0 16.2538 0 36.2899C0 56.326 16.2441 72.5895 36.2899 72.5895C56.3356 72.5895 72.5798 56.3454 72.5798 36.2899C72.5798 16.2344 56.3356 0 36.2899 0ZM36.2899 64.1911C20.8797 64.1911 8.38868 51.7 8.38868 36.2899C8.38868 20.8798 20.8797 8.38877 36.2899 8.38877C51.7 8.38877 64.1813 20.8798 64.1813 36.2899C64.1813 51.7 51.6903 64.1911 36.2899 64.1911Z" fill="#E5E6E6"/>
<path fill-rule="evenodd" clip-rule="evenodd" d="M36.2876 72.5894C52.7354 72.5894 67.0593 61.9313 71.3071 46.1914H62.2977C58.3894 56.7913 48.3713 64.0648 36.2876 64.0648C34.9977 64.0648 33.7564 63.9776 32.5345 63.8224C30.236 64.3267 27.8503 64.5982 25.4161 64.5982C20.7223 64.5982 15.3205 63.7836 10.8691 62.1931C17.3862 68.5744 26.2501 72.5894 36.2973 72.5894H36.2876Z" fill="url(#paint0_linear_169_10726)"/>
<path fill-rule="evenodd" clip-rule="evenodd" d="M1.6123 30.5596C1.6123 32.2471 5.7631 33.5757 8.57552 33.9443C9.71019 19.63 21.4836 8.58395 36.1179 8.58395C39.4734 8.58395 42.6931 9.04946 45.6316 10.0677L48.0755 3.20157C20.4459 -6.96193 1.6123 18.3208 1.6123 30.5693V30.5596Z" fill="url(#paint1_linear_169_10726)"/>
<path fill-rule="evenodd" clip-rule="evenodd" d="M71.3091 46.1917C72.1432 43.1174 72.5796 39.8492 72.5796 36.4355C72.5796 24.4099 66.7026 13.5579 57.5283 6.87598C60.0401 11.5601 60.7092 17.2916 60.8741 23.1395C62.9107 26.9993 64.0648 31.4313 64.0648 36.1639C64.0648 39.7328 63.4441 43.098 62.2998 46.2014H71.3091V46.1917Z" fill="url(#paint2_linear_169_10726)"/>
<path d="M18.2637 57.7399C22.9672 61.6773 29.1836 63.9951 36.2147 63.9951C51.8188 63.9951 63.9898 51.8629 63.9898 36.094C63.9898 27.7634 60.3724 20.4414 54.6312 15.3984C60.6536 20.4414 64.6686 27.5404 64.6686 36.094C64.6686 51.8629 52.8468 64.7516 37.1069 64.7516C29.1352 64.7516 23.0254 61.9198 18.2637 57.7399Z" fill="#E9E9EB"/>
<mask id="mask0_169_10726" style="mask-type:luminance" maskUnits="userSpaceOnUse" x="15" y="12" width="48" height="51">
<path d="M47.7917 12.0889C56.549 16.4433 62.5618 25.4818 62.5618 35.9265C62.5618 50.619 50.6526 62.5282 35.9602 62.5282C27.9108 62.5282 20.6858 58.9496 15.8174 53.2957C19.3766 55.0704 23.3916 56.0596 27.6393 56.0596C42.3318 56.0596 54.2409 44.1504 54.2409 29.458C54.2409 22.8245 51.8066 16.7536 47.782 12.0889H47.7917Z" fill="white"/>
</mask>
<g mask="url(#mask0_169_10726)">
<path d="M62.9893 12.2971L16.5844 11.4824L15.6533 62.2321L62.0971 63.0467L62.9893 12.2971Z" fill="url(#paint3_linear_169_10726)"/>
</g>
<mask id="mask1_169_10726" style="mask-type:luminance" maskUnits="userSpaceOnUse" x="10" y="10" width="37" height="37">
<path d="M36.6309 10.1592C21.9384 10.1592 10.0293 21.5155 10.0293 36.208C10.0293 44.2573 16.4882 48.7669 16.4882 44.5289C16.4882 29.8364 28.3973 17.9273 43.0898 17.9273C49.7329 17.9273 47.0756 10.1592 36.6309 10.1592Z" fill="white"/>
</mask>
<g mask="url(#mask1_169_10726)">
<path d="M47.3365 11.394L13.9172 6.7002L8.49609 45.2691L41.896 49.963L47.3365 11.394Z" fill="url(#paint4_linear_169_10726)"/>
</g>
<path d="M51.5551 12.9349C46.4054 9.59876 40.0339 8.00829 33.0416 8.87141C17.5539 10.7722 6.96364 24.2912 8.88384 39.9535C9.90213 48.2162 14.4118 55.1503 20.7349 59.4562C14.1403 55.1794 9.14578 49.3703 8.01112 39.9535C6.08121 23.8936 17.2339 10.2194 32.7119 8.31861C39.9369 7.4264 46.3084 9.37569 51.5454 12.9446L51.5551 12.9349Z" fill="#2D368F"/>
<path d="M36.4737 14.2939C43.6212 14.2939 49.1198 19.0362 49.1198 26.2515C49.1198 34.4948 42.855 36.6672 34.5244 43.6206L33.9619 44.0959H49.2169V52.0482H21.917V50.4092C21.8976 37.6564 40.8668 34.2621 40.8668 26.7946C40.8668 23.8755 38.2581 21.9844 36.1924 21.9844C33.2733 21.9844 31.3435 24.244 30.6452 27.5123H22.7413C22.7413 27.5123 23.4978 14.2842 36.464 14.2842L36.4737 14.2939Z" fill="#E9E9EB"/>
<mask id="mask2_169_10726" style="mask-type:luminance" maskUnits="userSpaceOnUse" x="22" y="14" width="26" height="14">
<path d="M30.6539 27.5161H22.75C22.75 27.5161 23.4871 14.2881 36.4727 14.2881C36.4727 14.2881 44.7741 14.2881 47.8193 20.6403C47.8193 20.6403 42.9606 20.3105 37.8497 22.3471C37.8497 22.3471 32.4868 20.1263 30.6442 27.5161H30.6539Z" fill="white"/>
</mask>
<g mask="url(#mask2_169_10726)">
<path d="M49.3622 8.51074L21.8975 8.99564L22.4115 38.1866L49.8665 37.7114L49.3622 8.51074Z" fill="url(#paint5_linear_169_10726)"/>
</g>
<mask id="mask3_169_10726" style="mask-type:luminance" maskUnits="userSpaceOnUse" x="28" y="44" width="22" height="9">
<path d="M42.9812 44.1064C42.9812 44.1064 37.1819 49.3337 28.25 52.0588H49.2171V44.1064H42.9812Z" fill="white"/>
</mask>
<g mask="url(#mask3_169_10726)">
<path d="M59.9531 39.4777L23.6049 19.335L11.1333 41.844L8.02019 47.4688L4.89746 53.0937L41.2359 73.2364L59.9531 39.4777Z" fill="url(#paint6_linear_169_10726)"/>
</g>
<path d="M9.77715 83.8325C9.63375 83.7608 9.53814 83.6413 9.65764 83.4501C9.75324 83.3306 9.89664 83.3545 9.89664 83.3545H13.4816C13.4816 83.3545 14.1748 83.3784 14.5811 83.6652C14.9874 83.9281 15.2024 84.2388 15.3219 84.5734C15.4414 84.9319 15.4176 85.4816 15.4176 85.4816L15.0113 90.2855L14.4376 96.7385C14.4376 96.7385 14.3659 97.3838 14.6288 97.814C14.8439 98.1964 15.2502 98.4115 15.537 98.5071C15.8238 98.6027 16.5647 98.7461 16.5647 98.7461C16.5647 98.7461 16.7559 98.8178 16.7559 98.9373C16.7559 99.0568 16.732 99.1285 16.5886 99.2241C16.4452 99.2958 16.3257 99.2958 16.3257 99.2958H12.5734C12.5734 99.2958 11.9759 99.3197 11.3784 98.77C10.8765 98.292 10.8765 97.5272 10.8765 97.5272V96.7863L11.9042 85.9357C11.9042 85.9357 11.9043 85.2904 11.7609 84.9558C11.5697 84.5734 11.4501 84.43 11.0199 84.2149C10.6853 84.0476 9.80105 83.7847 9.80105 83.7847" fill="#C4C4C4"/>
<path d="M17.2117 83.8325C17.0683 83.7608 16.9727 83.6413 17.0922 83.4501C17.1878 83.3306 17.3312 83.3545 17.3312 83.3545H20.9162C20.9162 83.3545 21.6093 83.3784 22.0156 83.6652C22.4219 83.9281 22.637 84.2388 22.7565 84.5734C22.876 84.9319 22.8282 85.4816 22.8282 85.4816L22.4219 90.2855L21.8483 96.7385C21.8483 96.7385 21.7766 97.3838 22.0395 97.814C22.2546 98.1964 22.6609 98.4115 22.9477 98.5071C23.2345 98.6027 23.9754 98.77 23.9754 98.77C23.9754 98.77 24.1666 98.8417 24.1666 98.9612C24.1666 99.0807 24.1188 99.1524 23.9754 99.2241C23.832 99.2958 23.7364 99.3197 23.7364 99.3197H19.9841C19.9841 99.3197 19.3866 99.3436 18.7891 98.7939C18.2872 98.3159 18.2872 97.5511 18.2872 97.5511V96.8102L19.3149 85.9596C19.3149 85.9596 19.291 85.386 19.1237 85.0514C18.9325 84.669 18.7174 84.4061 18.4067 84.2388C18.0721 84.0476 17.1878 83.8086 17.1878 83.8086" fill="#C4C4C4"/>
<path d="M24.4744 83.812C24.331 83.7403 24.2354 83.6208 24.3549 83.4296C24.4505 83.3101 24.5939 83.334 24.5939 83.334H28.1789C28.1789 83.334 28.872 83.3579 29.2783 83.6447C29.6846 83.9076 29.8997 84.2183 30.0192 84.5529C30.1387 84.9114 30.1148 85.4611 30.1148 85.4611L29.7085 90.265L29.1349 96.718C29.1349 96.718 29.0632 97.3633 29.3261 97.7935C29.5412 98.1759 29.8997 98.391 30.1865 98.5105C30.4733 98.6061 31.262 98.7495 31.262 98.7495C31.262 98.7495 31.4532 98.8212 31.4532 98.9646C31.4532 99.108 31.4293 99.1797 31.2859 99.2514C31.1425 99.3231 31.023 99.3231 31.023 99.3231H27.2707C27.2707 99.3231 26.6732 99.3231 26.0757 98.7973C25.5738 98.3193 25.5738 97.5545 25.5738 97.5545V96.8136L26.6015 85.963C26.6015 85.963 26.5776 85.3894 26.4103 85.0548C26.2191 84.6724 26.004 84.4095 25.6933 84.2422C25.3587 84.051 24.4744 83.812 24.4744 83.812Z" fill="#C4C4C4"/>
<path d="M31.9103 79.1039C31.9103 79.1039 31.743 78.9127 31.7908 78.7693C31.8625 78.5781 32.1254 78.5781 32.1254 78.5781H35.7582C35.7582 78.5781 36.7381 78.5781 37.2878 79.0322C37.8136 79.5102 37.9092 79.8926 37.9331 80.2272C37.9331 80.5857 37.6463 84.4336 37.6463 84.4336C37.6463 84.4336 37.6224 84.6726 37.6702 84.6726C37.718 84.6726 38.2438 84.4097 38.674 84.2185C39.1042 84.0273 40.2036 83.7166 41.1357 83.7883C42.0917 83.86 43.3584 83.9795 44.7924 84.9833C46.2264 86.011 46.7044 87.1343 47.0868 88.2815C47.4692 89.4287 47.4453 90.8627 47.4453 90.8627C47.4453 90.8627 47.4692 92.3445 47.039 93.8741C46.6088 95.4037 45.8918 96.3358 45.8918 96.3358C45.8918 96.3358 45.4138 97.1484 44.3622 98.0088C43.3106 98.8692 42.0439 99.2994 42.0439 99.2994C42.0439 99.2994 40.7533 99.7296 39.3671 99.7296C37.957 99.7296 36.9054 99.4189 35.9016 98.9648C34.7544 98.439 34.0374 97.4352 34.0374 97.4352C34.0374 97.4352 33.2965 96.4553 33.2009 96.0729C33.1053 95.6905 33.1292 95.5232 33.2009 95.4276C33.2726 95.3559 33.3921 95.4037 33.4399 95.4276C33.4877 95.4754 34.0135 95.9773 34.2764 96.1685C34.5393 96.3597 34.9695 96.7421 35.7343 97.0289C36.4991 97.3157 37.2161 97.5069 38.0287 97.5786C38.8413 97.6503 39.9885 97.4591 40.825 97.0289C41.6376 96.5987 42.498 95.7622 42.8087 95.3081C43.1194 94.854 43.6213 94.1848 43.9798 92.6074C44.3383 91.03 44.2188 90.1457 44.2188 90.1457C44.2188 90.1457 44.2188 88.879 43.5257 87.3494C42.7609 85.6286 41.1118 85.2701 41.1118 85.2701C41.1118 85.2701 40.3709 85.0789 39.6061 85.1984C38.9369 85.294 38.1482 85.7959 37.8614 86.2261C37.5507 86.6563 37.5268 86.967 37.4551 87.6362C37.4073 87.9469 36.9532 92.5357 36.9532 92.5357C36.9532 92.5357 36.9054 93.5156 36.9532 93.8741C37.0249 94.2326 37.2161 94.7823 37.4551 95.0213C37.6941 95.2364 37.8853 95.2603 37.8614 95.4037C37.8614 95.5471 37.6702 95.7144 37.4312 95.7622C37.1922 95.81 36.6664 95.8339 35.9972 95.6666C35.328 95.4993 34.6349 95.1408 34.0852 94.376C33.5355 93.5873 33.3443 92.942 33.2726 92.1055C33.2009 91.269 33.7028 86.1783 33.7028 86.1783L34.2286 80.9203C34.2286 80.9203 34.2286 80.275 33.7267 79.8209C33.2487 79.3429 32.4839 79.2234 32.4839 79.2234C32.4839 79.2234 32.0776 79.1995 31.9581 79.08" fill="#C4C4C4"/>
<path d="M58.7483 84.6463C58.7483 84.6463 59.537 84.5029 60.1823 84.5268C60.8276 84.5507 61.4729 84.6941 61.8314 84.8375C62.1899 84.9809 62.4767 85.0765 62.5962 85.1482C62.7157 85.196 62.9308 85.196 62.9547 85.0048C62.9786 84.8136 62.8113 84.6702 62.5484 84.479C62.2855 84.2878 61.1383 83.5708 60.1823 83.3318C59.2024 83.0928 58.4376 83.045 57.4577 83.0928C56.4778 83.1406 54.5897 83.5947 53.4664 84.2639C52.3431 84.9331 50.8374 86.3193 50.4311 87.0602C49.977 87.8728 49.4034 88.8049 49.2361 90.7408C49.1166 92.2704 49.3078 93.7761 49.8814 94.8994C50.5745 96.2378 51.65 97.5284 52.8211 98.1976C53.9922 98.8668 55.6652 99.5121 57.4338 99.4882C59.2024 99.4643 61.0188 98.7473 61.9031 98.0303C62.7874 97.3133 62.8113 97.2177 62.8591 97.0265C62.9308 96.7397 62.7635 96.668 62.6201 96.668C62.4767 96.668 62.3811 96.7397 61.9748 96.9548C61.5685 97.146 60.7798 97.4089 60.1823 97.4806C59.6087 97.5523 58.581 97.6479 57.3382 97.2416C56.0954 96.8353 55.0438 95.8554 55.0438 95.8554C55.0438 95.8554 54.0639 94.8755 53.6337 93.7522C53.2274 92.605 53.2513 91.0515 53.2513 91.0515C53.2513 91.0515 53.2752 89.1395 54.1595 87.825C55.0438 86.5105 55.6652 86.0086 56.669 85.4111C57.6489 84.8375 58.7005 84.6224 58.7005 84.6224" fill="#C4C4C4"/>
<defs>
<linearGradient id="paint0_linear_169_10726" x1="24.8343" y1="-313.226" x2="54.5199" y2="59.6522" gradientUnits="userSpaceOnUse">
<stop stop-color="#E5E6E6"/>
<stop offset="1" stop-color="#A7A8AB"/>
</linearGradient>
<linearGradient id="paint1_linear_169_10726" x1="46.0971" y1="0.670395" x2="-0.230302" y2="27.883" gradientUnits="userSpaceOnUse">
<stop stop-color="white"/>
<stop offset="1" stop-color="#E5E6E6"/>
</linearGradient>
<linearGradient id="paint2_linear_169_10726" x1="68.8071" y1="45.7359" x2="61.7955" y2="13.1506" gradientUnits="userSpaceOnUse">
<stop stop-color="#A7A8AB"/>
<stop offset="1" stop-color="#E5E6E6"/>
</linearGradient>
<linearGradient id="paint3_linear_169_10726" x1="30.2391" y1="62.9109" x2="44.66" y2="22.286" gradientUnits="userSpaceOnUse">
<stop stop-color="#2D368F"/>
<stop offset="1" stop-color="#0069A5"/>
</linearGradient>
<linearGradient id="paint4_linear_169_10726" x1="30.8403" y1="-313.217" x2="26.8544" y2="36.0076" gradientUnits="userSpaceOnUse">
<stop stop-color="#EEF8FD"/>
<stop offset="1" stop-color="#0069A5"/>
</linearGradient>
<linearGradient id="paint5_linear_169_10726" x1="21.8975" y1="-313.23" x2="49.8665" y2="-313.23" gradientUnits="userSpaceOnUse">
<stop stop-color="#E5E6E6"/>
<stop offset="1" stop-color="#F4F5F5"/>
</linearGradient>
<linearGradient id="paint6_linear_169_10726" x1="22.7709" y1="61.7249" x2="42.7003" y2="29.8282" gradientUnits="userSpaceOnUse">
<stop stop-color="#E8E7E7"/>
<stop offset="1" stop-color="#E3E4E5"/>
</linearGradient>
</defs>
</svg>
