<svg width="130" height="76" viewBox="0 0 130 76" fill="none" xmlns="http://www.w3.org/2000/svg">
<path d="M109.1 44.5098H0.00976562V75.1898H109.1V44.5098Z" fill="#65318E"/>
<path d="M0.0100098 41.0502V13.7803H5.14001L17.98 30.2703L30.56 13.7803H35.63V41.0502H29.76V24.1902C29.76 23.5202 29.83 22.5503 29.97 21.2803C29.3 22.6503 28.77 23.6102 28.38 24.1302L18.13 37.7703H16.86L6.60999 24.0803C5.86999 23.0903 5.31997 22.1603 4.96997 21.2803C5.07997 22.3703 5.13 23.3402 5.13 24.1902V41.0502H0H0.0100098Z" fill="black"/>
<path d="M42.8701 41.0502V13.7803H66.2301C70.3201 13.7803 72.3601 15.5403 72.3601 19.0703V22.4003C72.3601 25.0803 70.7901 26.6102 67.6601 27.0002C70.9401 27.4202 72.5701 29.1702 72.5701 32.2302V35.7203C72.5701 39.2803 69.8901 41.0602 64.5401 41.0602H42.8701V41.0502ZM63.5901 29.2103H49.1101V36.1302H63.5901C64.6501 36.1302 65.3901 36.0103 65.8101 35.7603C66.3701 35.4103 66.6601 34.7203 66.6601 33.7003V31.6403C66.6601 30.6203 66.3801 29.9303 65.8101 29.5803C65.3901 29.3303 64.6501 29.2103 63.5901 29.2103ZM63.5901 18.2203H49.1101V24.7203H63.5901C65.5301 24.7203 66.5001 24.0703 66.5001 22.7603V20.1702C66.5001 18.8702 65.5301 18.2103 63.5901 18.2103V18.2203Z" fill="black"/>
<path d="M85.6303 18.9495L85.7203 36.0095H109.1C109.1 36.0095 108.62 38.8495 107.67 39.7295C106.72 40.6095 104.94 41.0495 102.33 41.0495H86.0503C83.4403 41.0495 81.6603 40.6095 80.7103 39.7295C79.7603 38.8495 79.2803 37.1395 79.2803 34.5995V20.2195C79.2803 17.6795 79.7603 15.9695 80.7103 15.0895C81.6603 14.2095 83.4403 13.7695 86.0503 13.7695H102.33C104.94 13.7695 106.72 14.2095 107.67 15.0895C108.62 15.9695 109.1 18.9395 109.1 18.9395H85.6303V18.9495Z" fill="black"/>
<path d="M112.86 0H129.76V18.5H112.86V0Z" fill="#65318E"/>
<path d="M104.38 11.05V7.39001H111.83V0H115.45V7.39001H122.9V11.05H115.45V18.5H111.83V11.05H104.38Z" fill="black"/>
<path d="M76.5798 53.7395V64.6895C76.5798 64.6895 76.5798 64.7495 76.5798 64.8595C76.5798 65.2095 76.5498 65.5895 76.4598 65.9395C76.1298 67.7095 74.9298 70.7095 70.5498 70.7095V72.2895H73.5798C79.7198 72.2895 80.9998 67.6295 80.9998 64.8795V53.7295H76.5698L76.5798 53.7395Z" fill="white"/>
<path d="M52.0101 49.3096H41.2601V61.6296C41.2601 63.0096 41.0201 64.8096 38.0801 64.8096H11.6901V49.3096C11.5601 49.3496 11.4401 49.3996 11.3101 49.4596C11.2901 49.4596 11.2601 49.4796 11.2401 49.4896C11.1201 49.5396 11.0001 49.5996 10.8801 49.6596C10.8801 49.6596 10.86 49.6596 10.86 49.6696C10.73 49.7296 10.6 49.7996 10.48 49.8796C10.46 49.8896 10.44 49.8996 10.42 49.9196C10.32 49.9796 10.21 50.0496 10.11 50.1196C10.08 50.1396 10.06 50.1596 10.03 50.1796C9.79003 50.3496 9.56009 50.5296 9.34009 50.7296C9.31009 50.7496 9.29007 50.7796 9.26007 50.7996C9.18007 50.8796 9.09007 50.9696 9.01007 51.0596C8.99007 51.0896 8.96006 51.1096 8.94006 51.1396C8.84006 51.2496 8.74009 51.3696 8.65009 51.4996C8.65009 51.5096 8.63006 51.5196 8.62006 51.5396C8.54006 51.6496 8.46007 51.7696 8.38007 51.8896C8.36007 51.9296 8.33006 51.9696 8.31006 52.0096C8.24006 52.1196 8.18006 52.2295 8.12006 52.3495C8.10006 52.3795 8.08007 52.4196 8.07007 52.4496C8.00007 52.5996 7.93005 52.7496 7.86005 52.9096C7.85005 52.9396 7.83007 52.9796 7.82007 53.0096C7.77007 53.1396 7.72005 53.2796 7.68005 53.4196C7.66005 53.4696 7.65007 53.5196 7.63007 53.5796C7.59007 53.7296 7.55007 53.8796 7.51007 54.0396C7.51007 54.0696 7.49005 54.0996 7.49005 54.1296C7.45005 54.3196 7.41008 54.5196 7.39008 54.7196C7.39008 54.7696 7.38006 54.8296 7.37006 54.8796C7.35006 55.0396 7.33007 55.1996 7.32007 55.3696C7.32007 55.4296 7.31006 55.4996 7.31006 55.5596C7.30006 55.7796 7.29004 56.0096 7.29004 56.2396V66.7896C7.29004 68.1496 8.39006 69.2496 9.75006 69.2496H38.3C44.44 69.2496 45.72 64.5896 45.72 61.2896V53.5995L45.7401 53.7496H51.8401C53.2201 53.7496 55.0201 53.9896 55.0201 56.9296V64.8196H47.3C46.98 65.8596 46.45 66.9396 45.6 67.8696C45.12 68.3896 44.5401 68.8596 43.8701 69.2396H57.0001C58.3601 69.2396 59.4601 68.1396 59.4601 66.7796V56.7296C59.4601 50.5896 54.8 49.3096 52.05 49.3096H52.0101Z" fill="white"/>
<path d="M94.4503 49.3096H87.4103V53.7396H94.2403C95.6203 53.7396 97.4203 53.9796 97.4203 56.9196V64.8096H85.7803V69.2396H99.4003C100.76 69.2396 101.86 68.1396 101.86 66.7796V56.7296C101.86 50.5896 97.2003 49.3096 94.4503 49.3096Z" fill="white"/>
<path d="M68.7698 49.3096H64.3398V69.2396H68.7698V49.3096Z" fill="white"/>
</svg>
