<svg width="131" height="77" viewBox="0 0 131 77" fill="none" xmlns="http://www.w3.org/2000/svg">
<path d="M109.56 45.4102H0.469727V76.0901H109.56V45.4102Z" fill="#BA2F7E"/>
<path fill-rule="evenodd" clip-rule="evenodd" d="M0.469961 41.9409V14.6709H5.59996L18.44 31.1609L31.02 14.6709H36.09V41.9409H30.22V25.0809C30.22 24.4109 30.29 23.4409 30.43 22.1709C29.76 23.5409 29.23 24.5009 28.84 25.0209L18.59 38.6609H17.32L7.06996 24.9709C6.32996 23.9809 5.77996 23.0509 5.42996 22.1709C5.53996 23.2609 5.58996 24.2309 5.58996 25.0809V41.9409H0.459961H0.469961Z" fill="#000000"/>
<path fill-rule="evenodd" clip-rule="evenodd" d="M43.3301 41.9409V14.6709H66.6901C70.7801 14.6709 72.8201 16.4309 72.8201 19.9609V23.2909C72.8201 25.9709 71.2501 27.5009 68.1201 27.8909C71.4001 28.3109 73.0301 30.0609 73.0301 33.1209V36.6109C73.0301 40.1709 70.3501 41.9509 65.0001 41.9509H43.3301V41.9409ZM64.0501 30.1009H49.5701V37.0209H64.0501C65.1101 37.0209 65.8501 36.9009 66.2701 36.6509C66.8301 36.3009 67.1201 35.6109 67.1201 34.5909V32.5309C67.1201 31.5109 66.8401 30.8209 66.2701 30.4709C65.8501 30.2209 65.1101 30.1009 64.0501 30.1009ZM64.0501 19.1109H49.5701V25.6109H64.0501C65.9901 25.6109 66.9601 24.9609 66.9601 23.6509V21.0609C66.9601 19.7609 65.9901 19.1009 64.0501 19.1009V19.1109Z" fill="#000000"/>
<path fill-rule="evenodd" clip-rule="evenodd" d="M86.0902 19.8402L86.1802 36.9002H109.56C109.56 36.9002 109.08 39.7402 108.13 40.6202C107.18 41.5002 105.4 41.9402 102.79 41.9402H86.5102C83.9002 41.9402 82.1202 41.5002 81.1702 40.6202C80.2202 39.7402 79.7402 38.0302 79.7402 35.4902V21.1102C79.7402 18.5702 80.2102 16.8602 81.1702 15.9802C82.1202 15.1002 83.9002 14.6602 86.5102 14.6602H102.79C105.4 14.6602 107.18 15.1002 108.13 15.9802C109.08 16.8602 109.56 19.8302 109.56 19.8302H86.0902V19.8402Z" fill="#000000"/>
<path d="M113.32 0.890625H130.22V19.3906H113.32V0.890625Z" fill="#BA2F7E"/>
<path fill-rule="evenodd" clip-rule="evenodd" d="M104.84 11.9406V8.28064H112.29V0.890625H115.91V8.28064H123.36V11.9406H115.91V19.3906H112.29V11.9406H104.84Z" fill="#000000"/>
<path d="M9.56973 67.441L2.96973 56.001H6.00973L10.6397 64.271L15.0497 56.001H17.7097L11.4197 67.441H9.57973H9.56973Z" fill="white"/>
<path d="M18.6094 67.441L25.0794 56.001H27.6494L34.2094 67.441H31.2194L29.8494 64.941H22.5994L21.2694 67.441H18.6094ZM23.7294 62.871H28.7394L26.2794 58.2209L23.7294 62.871Z" fill="white"/>
<path d="M37.8896 67.441V56.001H47.6897C49.3997 56.001 50.2597 56.7409 50.2597 58.2209V60.901C50.2597 62.381 49.3997 63.121 47.6897 63.121H46.1796L51.4496 67.441H47.6396L43.0296 63.121H40.4996V67.441H37.8896ZM46.4896 57.961H40.5097V61.171H46.4896C46.8996 61.171 47.1896 61.131 47.3496 61.041C47.5696 60.911 47.6796 60.651 47.6796 60.261V58.881C47.6796 58.491 47.5696 58.231 47.3496 58.101C47.1896 58.011 46.8996 57.9709 46.4896 57.9709V57.961Z" fill="white"/>
<path d="M55.6699 67.441V56.001H58.3299V67.441H55.6699Z" fill="white"/>
<path d="M64.1797 67.441V56.001H75.8797V57.951H66.8397V60.501H72.1097V62.451H66.8397V65.291H75.9897V67.441H64.1797Z" fill="white"/>
<path d="M86.2196 58.041V67.441H83.5596V58.041H78.3096V56.001H91.4996V58.041H86.2296H86.2196Z" fill="white"/>
<path d="M97.9498 67.441V62.321L92.0098 56.001H95.5598L99.4798 60.391L103.43 56.001H106.55L100.63 62.251V67.441H97.9498Z" fill="white"/>
</svg>
