<svg width="129" height="72" viewBox="0 0 129 72" fill="none" xmlns="http://www.w3.org/2000/svg">
<path d="M118.42 0.910156H121.52L128.5 9.57016V52.2301H125.53L118.42 42.6601V0.910156Z" fill="#C0262D"/>
<path d="M121.51 0.910156V9.62015L128.5 9.57016L121.51 0.910156Z" fill="#EC1C24"/>
<path d="M125.53 52.2302L125.55 42.6602H118.42L125.53 52.2302Z" fill="#EC1C24"/>
<path d="M63.6602 42.6601H103.22V0.910156H106.46L113.37 9.63016V42.6601L106.58 52.3001H74.5901V62.4001L66.4402 71.5602H63.9202L63.6602 42.6601Z" fill="#C0262D"/>
<path d="M106.46 0.910156V9.62015L113.37 9.63016L106.46 0.910156Z" fill="#EC1C24"/>
<path d="M113.37 42.6602L106.58 52.3002H74.5901L63.6602 42.6602H113.37Z" fill="#EC1C24"/>
<path d="M74.5904 62.4008L66.5004 62.3809L66.4404 71.5609L74.5904 62.4008Z" fill="#EC1C24"/>
<path d="M63.6602 19.5905H99.9901L92.0402 10.7305H71.1602L63.6602 19.5905Z" fill="#9A1F24"/>
<path d="M86.7397 40.2105H76.7197L92.0397 10.7305L99.9897 19.5905L86.7397 40.2105Z" fill="#C0262D"/>
<path d="M71.1602 10.7305L86.7401 40.2105H76.7202L63.6602 19.5905L71.1602 10.7305Z" fill="#EC1C24"/>
<path d="M49.3203 0.860352H52.4303L59.4103 9.52039V52.1804H56.4303L49.3203 42.6204V0.860352Z" fill="#C0262D"/>
<path d="M52.4102 0.910156V9.62015L59.4102 9.57016L52.4102 0.910156Z" fill="#EC1C24"/>
<path d="M56.4303 52.2302L56.4503 42.6602H49.3203L56.4303 52.2302Z" fill="#EC1C24"/>
<path d="M44.2997 30.6104H13.7197V38.3403H44.2997V30.6104Z" fill="#9A1F24"/>
<path d="M44.3005 42.6605H34.0205V10.7305H39.1605L44.3005 19.5505V42.6605Z" fill="#C0262D"/>
<path d="M22.1897 10.7305V30.6105L13.7197 38.3405V19.5505L19.2797 10.7305H22.1897Z" fill="#C0262D"/>
<path d="M13.7197 19.5505H44.2997L39.1597 10.7305H19.2797L13.7197 19.5505Z" fill="#EC1C24"/>
<path d="M7.93008 19.5508H10.4901L10.8301 52.3108H7.00009L0.0800781 42.8008V28.5708L7.93008 19.5508Z" fill="#C0262D"/>
<path d="M44.3001 42.6602H0.0800781L7.00009 52.3102H37.7001L44.3001 42.6602Z" fill="#EC1C24"/>
<path d="M0.0800781 28.5708H7.87009L7.93008 19.5508L0.0800781 28.5708Z" fill="#EC1C24"/>
<path d="M27.0501 0.860352H19.4102V8.50037H27.0501V0.860352Z" fill="#EC1C24"/>
<path d="M38.7103 0.860352H31.0703V8.50037H38.7103V0.860352Z" fill="#EC1C24"/>
<path d="M27.0501 8.50037V0.860352H19.4102L27.0501 8.50037Z" fill="#C0262D"/>
<path d="M38.7103 8.50037V0.860352H31.0703L38.7103 8.50037Z" fill="#C0262D"/>
<path fill-rule="evenodd" clip-rule="evenodd" d="M90.8096 70.7304C90.8096 70.7304 90.1996 70.6104 89.9696 70.5304C89.7396 70.4504 89.4096 70.2704 89.2396 69.9604C89.0396 69.6104 89.0896 69.0804 89.0896 69.0804L89.5596 63.8604L89.8796 59.9804C89.8796 59.9804 89.9096 59.5304 89.8096 59.2504C89.7196 58.9704 89.5396 58.7204 89.2096 58.5004C88.8896 58.2904 88.3196 58.2604 88.3196 58.2604H85.4096C85.4096 58.2604 85.2996 58.2404 85.2196 58.3404C85.1096 58.4904 85.2096 58.6004 85.3196 58.6504C85.3196 58.6504 86.0296 58.8704 86.3096 59.0004C86.6596 59.1604 86.7696 59.2804 86.9196 59.6004C87.0496 59.8604 87.0396 60.3804 87.0396 60.3804L86.2196 69.1504V69.7404C86.2196 69.7404 86.2096 70.3504 86.6096 70.7404C87.0796 71.1904 87.5696 71.1704 87.5696 71.1704H90.6096C90.6096 71.1704 90.7196 71.1704 90.8296 71.1004C90.9396 71.0304 90.9696 70.9804 90.9696 70.8704C90.9696 70.7604 90.8096 70.7104 90.8096 70.7104V70.7304Z" fill="#EC1C24"/>
<path fill-rule="evenodd" clip-rule="evenodd" d="M96.8299 70.7302C96.8299 70.7302 96.2199 70.6101 95.9899 70.5301C95.7599 70.4501 95.4299 70.2702 95.2599 69.9602C95.0599 69.6102 95.1099 69.0802 95.1099 69.0802L95.5799 63.8602L95.9099 59.9802C95.9099 59.9802 95.9399 59.5302 95.8399 59.2502C95.7499 58.9702 95.5699 58.7202 95.2499 58.5102C94.9299 58.2902 94.3599 58.2702 94.3599 58.2702H91.4499C91.4499 58.2702 91.3299 58.2502 91.2599 58.3502C91.1499 58.5002 91.2499 58.6101 91.3499 58.6601C91.3499 58.6601 92.0699 58.8602 92.3399 59.0102C92.5799 59.1502 92.7699 59.3501 92.9199 59.6601C93.0499 59.9201 93.0699 60.3902 93.0699 60.3902L92.2399 69.1601V69.7502C92.2399 69.7502 92.2299 70.3602 92.6299 70.7502C93.0999 71.2002 93.5899 71.1802 93.5899 71.1802H96.6299C96.6299 71.1802 96.7199 71.1802 96.8299 71.1002C96.9399 71.0302 96.9799 70.9902 96.9799 70.8802C96.9799 70.7702 96.8199 70.7201 96.8199 70.7201L96.8299 70.7302Z" fill="#EC1C24"/>
<path fill-rule="evenodd" clip-rule="evenodd" d="M102.69 70.7204C102.69 70.7204 102.05 70.6004 101.82 70.5204C101.59 70.4404 101.3 70.2604 101.12 69.9504C100.92 69.6004 100.97 69.0704 100.97 69.0704L101.44 63.8504L101.76 59.9704C101.76 59.9704 101.79 59.5204 101.69 59.2404C101.6 58.9604 101.42 58.7104 101.1 58.5004C100.78 58.2804 100.21 58.2604 100.21 58.2604H97.2995C97.2995 58.2604 97.1895 58.2404 97.1095 58.3404C96.9995 58.4904 97.0996 58.6004 97.1996 58.6504C97.1996 58.6504 97.9195 58.8504 98.1895 59.0004C98.4295 59.1404 98.6195 59.3404 98.7695 59.6504C98.8995 59.9104 98.9196 60.3804 98.9196 60.3804L98.0996 69.1504V69.7504C98.0996 69.7504 98.0895 70.3604 98.4895 70.7504C98.9595 71.2004 99.4496 71.1804 99.4496 71.1804H102.49C102.49 71.1804 102.59 71.2004 102.7 71.1304C102.81 71.0604 102.83 71.0004 102.83 70.8904C102.83 70.7804 102.68 70.7204 102.68 70.7204H102.69Z" fill="#EC1C24"/>
<path fill-rule="evenodd" clip-rule="evenodd" d="M115.52 62.3002C115.21 61.3702 114.82 60.4502 113.65 59.6202C112.49 58.8002 111.46 58.7001 110.69 58.6501C109.92 58.6001 109.04 58.8502 108.69 59.0002C108.34 59.1502 107.93 59.3702 107.88 59.3702C107.83 59.3702 107.85 59.1802 107.85 59.1802C107.85 59.1802 108.11 56.0602 108.09 55.7702C108.08 55.4902 108.01 55.1802 107.58 54.8002C107.15 54.4202 106.35 54.4102 106.35 54.4102H103.42C103.42 54.4102 103.2 54.4102 103.15 54.5702C103.11 54.6902 103.15 54.7601 103.25 54.8401C103.34 54.9201 103.68 54.9502 103.68 54.9502C103.68 54.9502 104.3 55.0602 104.69 55.4402C105.08 55.8202 105.09 56.3302 105.09 56.3302L104.67 60.5901C104.67 60.5901 104.25 64.7102 104.32 65.3902C104.39 66.0702 104.54 66.5902 104.98 67.2302C105.43 67.8702 105.99 68.1502 106.53 68.2802C107.07 68.4102 107.49 68.4002 107.69 68.3602C107.89 68.3202 108.03 68.1702 108.04 68.0602C108.05 67.9502 107.89 67.9302 107.7 67.7502C107.51 67.5702 107.35 67.1102 107.29 66.8302C107.24 66.5502 107.28 65.7502 107.28 65.7502C107.28 65.7502 107.66 62.0402 107.69 61.7902C107.76 61.2502 107.78 60.9901 108.03 60.6501C108.27 60.3101 108.91 59.9102 109.45 59.8302C110.08 59.7402 110.67 59.8802 110.67 59.8802C110.67 59.8802 112 60.1502 112.62 61.5602C113.16 62.7902 113.18 63.8202 113.18 63.8202C113.18 63.8202 113.27 64.5402 112.99 65.8102C112.71 67.0802 112.29 67.6302 112.04 68.0002C111.8 68.3602 111.11 69.0402 110.44 69.3902C109.78 69.7402 108.83 69.8901 108.18 69.8401C107.53 69.7901 106.95 69.6202 106.33 69.3902C105.71 69.1602 105.37 68.8602 105.15 68.7002C104.93 68.5402 104.51 68.1301 104.47 68.0901C104.43 68.0501 104.33 68.0102 104.27 68.0802C104.2 68.1502 104.17 68.2801 104.26 68.5901C104.34 68.9001 104.94 69.7002 104.94 69.7002C104.94 69.7002 105.52 70.5202 106.44 70.9402C107.25 71.3102 108.12 71.5502 109.25 71.5602C110.39 71.5702 111.43 71.2202 111.43 71.2202C111.43 71.2202 112.46 70.8802 113.31 70.1802C114.16 69.4802 114.55 68.8302 114.55 68.8302C114.55 68.8302 115.13 68.0901 115.48 66.8401C115.83 65.6001 115.8 64.3902 115.8 64.3902C115.8 64.3902 115.81 63.2302 115.5 62.3002H115.52Z" fill="#EC1C24"/>
<path fill-rule="evenodd" clip-rule="evenodd" d="M121.289 61.9107C122.009 60.8507 122.509 60.4407 123.319 59.9607C124.119 59.4907 124.959 59.3307 124.959 59.3307C124.959 59.3307 125.599 59.2107 126.119 59.2307C126.649 59.2607 127.169 59.3707 127.459 59.4907C127.739 59.6107 127.989 59.6907 128.079 59.7307C128.169 59.7707 128.349 59.7707 128.379 59.6207C128.409 59.4707 128.269 59.3507 128.059 59.1907C127.839 59.0307 126.929 58.4507 126.139 58.2607C125.359 58.0707 124.729 58.0307 123.939 58.0707C123.139 58.1107 121.629 58.4807 120.709 59.0207C119.789 59.5607 118.589 60.6807 118.249 61.2807C117.879 61.9307 117.409 62.7007 117.289 64.2707C117.199 65.5107 117.339 66.7207 117.819 67.6407C118.379 68.7207 119.249 69.7807 120.199 70.3207C121.149 70.8607 122.499 71.3907 123.929 71.3607C125.359 71.3307 126.819 70.7707 127.539 70.1907C128.259 69.6107 128.279 69.5207 128.309 69.3807C128.359 69.1507 128.229 69.1007 128.119 69.1007C128.009 69.1007 127.929 69.1707 127.609 69.3307C127.289 69.4907 126.639 69.7007 126.159 69.7607C125.689 69.8307 124.859 69.9007 123.859 69.5607C122.859 69.2207 122.009 68.4407 122.009 68.4407C122.009 68.4407 121.209 67.6607 120.879 66.7407C120.539 65.8207 120.569 64.5507 120.569 64.5507C120.569 64.5507 120.599 63.0007 121.309 61.9407L121.289 61.9107Z" fill="#EC1C24"/>
</svg>
