<svg width="72" height="85" viewBox="0 0 72 85" fill="none" xmlns="http://www.w3.org/2000/svg">
<path d="M11.62 70.5596C11.5 70.4996 11.4 70.3796 11.52 70.2096C11.6 70.0996 11.73 70.1196 11.73 70.1196H14.95C14.95 70.1196 15.58 70.1496 15.94 70.3896C16.3 70.6296 16.49 70.8996 16.6 71.2096C16.71 71.5196 16.68 72.0196 16.68 72.0196L16.32 76.3196L15.8 82.0996C15.8 82.0996 15.74 82.6796 15.97 83.0696C16.16 83.4196 16.52 83.6096 16.78 83.6996C17.04 83.7896 17.71 83.9196 17.71 83.9196C17.71 83.9196 17.89 83.9796 17.89 84.0996C17.89 84.2196 17.86 84.2796 17.74 84.3596C17.62 84.4296 17.5 84.4296 17.5 84.4296H14.13C14.13 84.4296 13.59 84.4496 13.07 83.9496C12.62 83.5096 12.62 82.8396 12.62 82.8396L12.64 82.1796L13.55 72.4596C13.55 72.4596 13.55 71.8796 13.41 71.5896C13.25 71.2496 13.13 71.1096 12.74 70.9296C12.43 70.7896 11.65 70.5396 11.65 70.5396" fill="#DFDFDE"/>
<path d="M18.2899 70.5496C18.1699 70.4896 18.0699 70.3696 18.1899 70.2096C18.2699 70.0896 18.3999 70.1195 18.3999 70.1195H21.6199C21.6199 70.1195 22.2499 70.1496 22.6099 70.3896C22.9699 70.6296 23.1599 70.8996 23.2699 71.2096C23.3799 71.5296 23.3399 72.0196 23.3399 72.0196L22.9799 76.3195L22.4599 82.0996C22.4599 82.0996 22.3999 82.6795 22.6299 83.0695C22.8199 83.4095 23.1799 83.6096 23.4399 83.6996C23.6899 83.7896 24.3699 83.9295 24.3699 83.9295C24.3699 83.9295 24.5499 83.9896 24.5499 84.1096C24.5499 84.2296 24.4999 84.2796 24.3799 84.3496C24.2599 84.4196 24.1599 84.4395 24.1599 84.4395H20.7899C20.7899 84.4395 20.2399 84.4596 19.7299 83.9596C19.2799 83.5296 19.2799 82.8496 19.2799 82.8496V82.1895L20.2099 72.4696C20.2099 72.4696 20.1799 71.9596 20.0399 71.6596C19.8699 71.3196 19.6699 71.0895 19.3999 70.9395C19.0999 70.7695 18.3099 70.5496 18.3099 70.5496" fill="#DFDFDE"/>
<path d="M24.7899 70.5398C24.6699 70.4798 24.5699 70.3598 24.6899 70.1998C24.7699 70.0798 24.8999 70.1098 24.8999 70.1098H28.1199C28.1199 70.1098 28.7499 70.1397 29.1099 70.3797C29.4699 70.6197 29.6599 70.8898 29.7699 71.1998C29.8799 71.5098 29.8499 72.0098 29.8499 72.0098L29.4899 76.3097L28.9699 82.0898C28.9699 82.0898 28.9099 82.6697 29.1399 83.0597C29.3299 83.4097 29.6599 83.5997 29.9199 83.6897C30.1699 83.7797 30.8799 83.9098 30.8799 83.9098C30.8799 83.9098 31.0499 83.9798 31.0499 84.0998C31.0499 84.2198 31.0299 84.2898 30.9099 84.3598C30.7899 84.4298 30.6799 84.4198 30.6799 84.4198H27.3099C27.3099 84.4198 26.7599 84.4397 26.2499 83.9397C25.7999 83.5097 25.7999 82.8298 25.7999 82.8298L25.8199 82.1698L26.7299 72.4498C26.7299 72.4498 26.6999 71.9398 26.5599 71.6498C26.3999 71.3098 26.1899 71.0797 25.9199 70.9297C25.6199 70.7597 24.8299 70.5398 24.8299 70.5398" fill="#DFDFDE"/>
<path d="M31.4699 66.3198C31.3599 66.2298 31.3199 66.1598 31.3599 66.0198C31.4199 65.8398 31.6599 65.8599 31.6599 65.8599L34.9099 65.8398C34.9099 65.8398 35.7899 65.8598 36.2699 66.2698C36.7499 66.6898 36.8199 67.0399 36.8399 67.3499C36.8599 67.6599 36.5699 71.1198 36.5699 71.1198C36.5699 71.1198 36.5399 71.3298 36.5999 71.3298C36.6599 71.3298 37.1099 71.0898 37.4999 70.9298C37.8899 70.7698 38.8599 70.4799 39.7199 70.5399C40.5699 70.5999 41.7099 70.6998 42.9999 71.6198C44.2899 72.5298 44.7199 73.5498 45.0699 74.5898C45.4099 75.6198 45.3999 76.9099 45.3999 76.9099C45.3999 76.9099 45.4299 78.2398 45.0399 79.6198C44.6499 80.9998 44.0099 81.8198 44.0099 81.8198C44.0099 81.8198 43.5799 82.5398 42.6299 83.3198C41.6899 84.0998 40.5499 84.4698 40.5499 84.4698C40.5499 84.4698 39.3999 84.8599 38.1399 84.8499C36.8799 84.8299 35.9299 84.5699 35.0199 84.1599C33.9999 83.6999 33.3599 82.7798 33.3599 82.7798C33.3599 82.7798 32.6999 81.8999 32.6099 81.5499C32.5199 81.1999 32.5499 81.0599 32.6299 80.9799C32.6999 80.9099 32.8099 80.9498 32.8499 80.9998C32.8899 81.0398 33.3599 81.4898 33.5999 81.6798C33.8399 81.8598 34.2099 82.1898 34.8999 82.4398C35.5899 82.6998 36.2299 82.8698 36.9499 82.9398C37.6699 82.9998 38.7199 82.8298 39.4499 82.4398C40.1799 82.0498 40.9499 81.2998 41.2199 80.8998C41.4899 80.4998 41.9499 79.8798 42.2699 78.4698C42.5799 77.0598 42.4799 76.2698 42.4799 76.2698C42.4799 76.2698 42.4699 75.1298 41.8699 73.7698C41.1899 72.2198 39.7099 71.9099 39.7099 71.9099C39.7099 71.9099 39.0599 71.7499 38.3599 71.8499C37.7599 71.9399 37.0599 72.3898 36.7899 72.7598C36.5199 73.1398 36.4899 73.4198 36.4199 74.0198C36.3899 74.2998 35.9699 78.4099 35.9699 78.4099C35.9699 78.4099 35.9299 79.2899 35.9899 79.6099C36.0499 79.9199 36.2299 80.4298 36.4399 80.6298C36.6499 80.8198 36.8299 80.8498 36.8099 80.9698C36.7999 81.0898 36.6499 81.2599 36.4199 81.2999C36.1999 81.3399 35.7299 81.3598 35.1299 81.2098C34.5299 81.0598 33.8999 80.7499 33.4099 80.0399C32.9199 79.3399 32.7499 78.7498 32.6799 77.9998C32.6099 77.2498 33.0699 72.6798 33.0699 72.6798L33.5299 67.9598C33.5299 67.9598 33.5099 67.3898 33.0799 66.9698C32.6399 66.5498 31.9599 66.4298 31.9599 66.4298C31.9599 66.4298 31.5899 66.3998 31.4799 66.3098" fill="#DFDFDE"/>
<path d="M55.5303 71.2898C55.5303 71.2898 56.2303 71.1597 56.8203 71.1897C57.4003 71.2197 57.9903 71.3397 58.3003 71.4697C58.6103 71.5997 58.8803 71.6898 58.9903 71.7398C59.1003 71.7898 59.2903 71.7897 59.3203 71.6197C59.3503 71.4597 59.2003 71.3197 58.9603 71.1397C58.7203 70.9597 57.7003 70.3198 56.8303 70.1098C55.9603 69.8998 55.2703 69.8497 54.3903 69.8997C53.5103 69.9397 51.8303 70.3497 50.8103 70.9497C49.7903 71.5497 48.4603 72.7897 48.0803 73.4497C47.6803 74.1697 47.1503 75.0197 47.0203 76.7597C46.9203 78.1397 47.0803 79.4698 47.6103 80.4898C48.2303 81.6898 49.2003 82.8597 50.2503 83.4597C51.3003 84.0597 52.8003 84.6398 54.3903 84.6098C55.9803 84.5798 57.5903 83.9497 58.3903 83.3097C59.1803 82.6697 59.2103 82.5697 59.2403 82.4097C59.3003 82.1497 59.1503 82.0897 59.0303 82.0897C58.9103 82.0897 58.8203 82.1597 58.4603 82.3397C58.1003 82.5197 57.3803 82.7397 56.8603 82.8197C56.3403 82.8897 55.4203 82.9697 54.3103 82.5997C53.2003 82.2297 52.2603 81.3598 52.2603 81.3598C52.2603 81.3598 51.3803 80.4897 51.0003 79.4697C50.6303 78.4497 50.6503 77.0398 50.6503 77.0398C50.6503 77.0398 50.6803 75.3197 51.4703 74.1497C52.2703 72.9797 52.8203 72.5298 53.7203 71.9898C54.6003 71.4698 55.5303 71.2898 55.5303 71.2898Z" fill="#DFDFDE"/>
<path fill-rule="evenodd" clip-rule="evenodd" d="M71.3995 37.2798C71.3995 42.6198 69.3295 46.2898 66.7695 48.8498C65.7695 49.8498 65.0595 50.5598 63.8195 51.7998C61.3395 54.2798 57.8195 56.5098 52.5395 56.5098H44.1695V37.4398C44.1695 37.4398 27.9595 37.2798 19.7795 37.4398C14.2995 37.5498 9.01954 34.1798 8.22954 33.3798C6.46954 31.6098 6.69952 31.8198 4.83952 29.9698C2.96952 28.1198 0.0195312 24.6898 0.0195312 18.3598V0.00976562H17.0395L29.2695 12.2998V26.6298H44.1795V0.509766H71.4095V37.2798H71.3995Z" fill="#DFDFDE"/>
<path d="M12.2398 30.33V12.28L0.00976562 0V18.35C0.00976562 24.68 1.92977 26.49 3.63977 28.67C5.25977 30.74 6.31978 31.79 8.22978 33.37C10.0698 34.88 13.7598 37.26 19.0398 37.41C15.2598 37.25 12.2398 34.14 12.2398 30.32" fill="#C5C6C7"/>
<path fill-rule="evenodd" clip-rule="evenodd" d="M0 0.00976562H17.03L29.27 12.2798H12.24L0 0.00976562Z" fill="#4AA4C5"/>
</svg>
