<svg width="118" height="53" viewBox="0 0 118 53" fill="none" xmlns="http://www.w3.org/2000/svg">
<path d="M117.8 3.62C117.68 1.61 116.02 0.02 113.99 0H94.46V0.0200195C106.88 0.41002 116.02 7.78003 117.57 24.34C117.71 25.76 117.79 27.27 117.8 28.85V3.62Z" fill="#65318E"/>
<path d="M67.4001 0H59.5801V36.44H67.4001V0Z" fill="black"/>
<path d="M30.49 0H23.31V28.89H7.82001C7.82001 28.89 7.82001 28.85 7.82001 28.82V0H2.85001C1.28001 0 0 1.28004 0 2.85004L0.0499878 32.45C0.0499878 32.45 0.0700073 32.54 0.0700073 32.58C0.0700073 34.72 1.79999 36.44 3.92999 36.44H53.82V28.89C53.62 9.10001 43.99 0.42 30.48 0H30.49ZM31.15 28.89V7.59003C39.49 8.47003 46.1 18.39 46.1 28.89H31.15Z" fill="black"/>
<path d="M73.7603 0L73.7103 37.14C73.7103 40.67 72.3203 43.46 66.5703 44.85L71.9903 51.98C79.1303 48.62 81.5903 45.09 81.5903 39.02V0H73.7603Z" fill="black"/>
<path d="M94.4598 0C94.0298 0 93.5098 0.0299878 92.9398 0.0499878V0H90.3698V7.52002H93.9398C102.84 7.52002 110.08 17.89 110.08 28.89H87.2998V36.44H113.95C116.05 36.44 117.75 34.77 117.81 32.68V28.89C117.62 9.10001 107.98 0.42 94.4698 0H94.4598Z" fill="black"/>
<path opacity="0.5" d="M87.4599 43.2502C87.3899 43.2102 87.3199 43.1402 87.3999 43.0302C87.4499 42.9602 87.5299 42.9702 87.5299 42.9702H89.5799C89.5799 42.9702 89.9799 42.9902 90.2099 43.1402C90.4399 43.2902 90.5599 43.4602 90.6299 43.6602C90.6999 43.8602 90.6799 44.1702 90.6799 44.1702L90.4499 46.9002L90.1199 50.5702C90.1199 50.5702 90.0799 50.9402 90.2199 51.1902C90.3399 51.4102 90.5699 51.5302 90.7299 51.5902C90.8899 51.6502 91.3199 51.7302 91.3199 51.7302C91.3199 51.7302 91.4399 51.7702 91.4399 51.8402C91.4399 51.9102 91.4199 51.9502 91.3499 52.0002C91.2699 52.0502 91.1999 52.0502 91.1999 52.0502H89.0599C89.0599 52.0502 88.7099 52.0602 88.3799 51.7502C88.0899 51.4702 88.0899 51.0502 88.0899 51.0502V50.6302L88.6799 44.4502C88.6799 44.4502 88.6799 44.0802 88.5999 43.9002C88.4899 43.6802 88.4199 43.6002 88.1699 43.4802C87.9699 43.3902 87.4699 43.2302 87.4699 43.2302L87.4599 43.2502Z" fill="black"/>
<path opacity="0.5" d="M95.8304 43.2404C95.7604 43.2004 95.6904 43.1305 95.7604 43.0205C95.8104 42.9505 95.8904 42.9605 95.8904 42.9605H97.9404C97.9404 42.9605 98.3404 42.9804 98.5704 43.1304C98.8004 43.2804 98.9204 43.4505 98.9904 43.6505C99.0604 43.8505 99.0404 44.1704 99.0404 44.1704L98.8104 46.9005L98.4804 50.5704C98.4804 50.5704 98.4404 50.9404 98.5904 51.1904C98.7104 51.4104 98.9204 51.5405 99.0804 51.5905C99.2404 51.6505 99.6904 51.7305 99.6904 51.7305C99.6904 51.7305 99.8004 51.7805 99.8004 51.8505C99.8004 51.9205 99.7904 51.9705 99.7104 52.0205C99.6304 52.0705 99.5604 52.0604 99.5604 52.0604H97.4204C97.4204 52.0604 97.0704 52.0704 96.7404 51.7604C96.4504 51.4804 96.4504 51.0604 96.4504 51.0604V50.6404L97.0404 44.4605C97.0404 44.4605 97.0204 44.1404 96.9304 43.9504C96.8304 43.7304 96.6904 43.5904 96.5204 43.4904C96.3304 43.3804 95.8304 43.2404 95.8304 43.2404Z" fill="black"/>
<path opacity="0.5" d="M100.07 40.5597C99.9999 40.4997 99.9699 40.4597 99.9999 40.3697C100.04 40.2597 100.19 40.2698 100.19 40.2698H102.25C102.25 40.2698 102.81 40.2698 103.12 40.5398C103.42 40.8098 103.47 41.0298 103.48 41.2298C103.48 41.4298 103.31 43.6298 103.31 43.6298C103.31 43.6298 103.29 43.7598 103.33 43.7598C103.37 43.7598 103.65 43.6097 103.9 43.4997C104.15 43.3997 104.77 43.2097 105.31 43.2497C105.85 43.2897 106.57 43.3598 107.39 43.9398C108.21 44.5198 108.48 45.1698 108.7 45.8198C108.92 46.4798 108.91 47.2997 108.91 47.2997C108.91 47.2997 108.93 48.1498 108.68 49.0198C108.43 49.8898 108.02 50.4197 108.02 50.4197C108.02 50.4197 107.74 50.8797 107.14 51.3697C106.54 51.8697 105.82 52.0998 105.82 52.0998C105.82 52.0998 105.09 52.3498 104.29 52.3398C103.49 52.3398 102.88 52.1598 102.31 51.8998C101.66 51.5998 101.25 51.0198 101.25 51.0198C101.25 51.0198 100.83 50.4597 100.77 50.2397C100.71 50.0197 100.73 49.9198 100.78 49.8798C100.83 49.8298 100.89 49.8598 100.92 49.8798C100.95 49.9098 101.24 50.1997 101.4 50.3097C101.55 50.4197 101.79 50.6298 102.23 50.7898C102.67 50.9498 103.08 51.0698 103.53 51.0998C103.99 51.1398 104.65 51.0298 105.12 50.7898C105.59 50.5398 106.07 50.0697 106.24 49.8097C106.41 49.5497 106.71 49.1598 106.91 48.2698C107.11 47.3698 107.04 46.8697 107.04 46.8697C107.04 46.8697 107.04 46.1498 106.65 45.2798C106.22 44.2898 105.28 44.0998 105.28 44.0998C105.28 44.0998 104.86 43.9997 104.42 44.0597C104.04 44.1197 103.59 44.3998 103.42 44.6398C103.25 44.8798 103.23 45.0598 103.18 45.4398C103.16 45.6098 102.89 48.2298 102.89 48.2298C102.89 48.2298 102.86 48.7897 102.9 48.9897C102.94 49.1897 103.05 49.5098 103.19 49.6398C103.32 49.7598 103.44 49.7797 103.43 49.8597C103.43 49.9397 103.33 50.0398 103.18 50.0698C103.04 50.0998 102.74 50.1098 102.36 50.0098C101.98 49.9198 101.58 49.7198 101.27 49.2698C100.96 48.8198 100.85 48.4498 100.8 47.9698C100.75 47.4898 101.05 44.5898 101.05 44.5898L101.34 41.5898C101.34 41.5898 101.33 41.2298 101.05 40.9598C100.77 40.6898 100.34 40.6197 100.34 40.6197C100.34 40.6197 100.1 40.5998 100.04 40.5398L100.07 40.5597Z" fill="black"/>
<path opacity="0.5" d="M115.36 43.7201C115.36 43.7201 115.81 43.6301 116.18 43.6501C116.55 43.6701 116.92 43.7501 117.12 43.8301C117.32 43.9101 117.49 43.97 117.56 44C117.63 44.03 117.75 44.03 117.77 43.92C117.79 43.82 117.69 43.73 117.54 43.62C117.39 43.51 116.74 43.1001 116.19 42.9601C115.64 42.8201 115.2 42.8 114.64 42.82C114.08 42.85 113.02 43.13 112.37 43.49C111.52 43.96 110.88 44.6601 110.64 45.0801C110.38 45.5401 110.05 46.08 109.96 47.18C109.89 48.06 110 48.9 110.33 49.55C110.72 50.31 111.34 51.05 112.01 51.44C112.68 51.82 113.63 52.19 114.64 52.17C115.65 52.15 116.68 51.7501 117.18 51.3401C117.68 50.9301 117.7 50.8701 117.72 50.7701C117.76 50.6101 117.66 50.57 117.59 50.57C117.52 50.57 117.46 50.6201 117.23 50.7301C117 50.8401 116.54 50.9901 116.21 51.0301C115.88 51.0801 115.3 51.1301 114.59 50.8901C113.89 50.6501 113.29 50.1001 113.29 50.1001C113.29 50.1001 112.73 49.5501 112.49 48.9001C112.25 48.2501 112.27 47.36 112.27 47.36C112.27 47.36 112.29 46.2701 112.79 45.5201C113.29 44.7801 113.65 44.4901 114.22 44.1501C114.78 43.8201 115.37 43.7 115.37 43.7L115.36 43.7201Z" fill="black"/>
<path opacity="0.5" d="M91.6605 43.2404C91.5805 43.2004 91.5205 43.1305 91.5905 43.0205C91.6405 42.9505 91.7205 42.9605 91.7205 42.9605H93.7705C93.7705 42.9605 94.1705 42.9804 94.4005 43.1304C94.6305 43.2804 94.7505 43.4505 94.8205 43.6505C94.8905 43.8505 94.8705 44.1605 94.8705 44.1605L94.6405 46.8904L94.3105 50.5604C94.3105 50.5604 94.2705 50.9304 94.4105 51.1804C94.5305 51.4004 94.7605 51.5204 94.9305 51.5805C95.1005 51.6405 95.5205 51.7205 95.5205 51.7205C95.5205 51.7205 95.6305 51.7605 95.6305 51.8305C95.6305 51.9004 95.6105 51.9404 95.5305 51.9904C95.4605 52.0404 95.3805 52.0405 95.3805 52.0405H93.2405C93.2405 52.0405 92.8905 52.0504 92.5605 51.7404C92.2705 51.4604 92.2705 51.0405 92.2705 51.0405V50.6204L92.8605 44.4404C92.8605 44.4404 92.8605 44.0704 92.7705 43.8904C92.6605 43.6704 92.5905 43.5905 92.3405 43.4705C92.1405 43.3805 91.6505 43.2205 91.6505 43.2205L91.6605 43.2404Z" fill="black"/>
</svg>
