<?xml version="1.0" encoding="UTF-8"?>
<svg id="a" data-name="Слой 1" xmlns="http://www.w3.org/2000/svg" width="500" height="218" viewBox="0 0 500 218">
  <defs>
    <style>
      .b {
        fill: #ffe3ac;
      }

      .c {
        fill: #fff;
      }

      .d {
        fill: #f599d7;
      }

      .e {
        fill: #21c7ef;
      }

      .f {
        fill: #828896;
      }
    </style>
  </defs>
  <g>
    <g>
      <path class="e" d="M135.86,119.19h0s-23.48,0-23.48,0v6.55c-5.42-5.74-12.26-8.61-20.52-8.61-4.9,0-9.38.92-13.42,2.76-3.13,1.43-5.93,3.26-8.39,5.48v53.5c2.59,2.34,5.51,4.22,8.77,5.64,4.04,1.75,8.47,2.63,13.29,2.63,8.52,0,15.27-3.13,20.26-9.38v7.32h11.62v-65.91h11.87ZM111.93,157.99c-.82,1.8-1.89,3.38-3.23,4.75-1.33,1.37-2.93,2.44-4.77,3.21-1.85.77-3.81,1.16-5.87,1.16s-4.15-.39-6-1.16c-1.85-.77-3.44-1.84-4.77-3.21-1.33-1.37-2.39-2.97-3.16-4.82-.77-1.84-1.16-3.83-1.16-5.97s.39-3.96,1.16-5.72c.77-1.75,1.83-3.32,3.16-4.69,1.33-1.37,2.92-2.44,4.77-3.21,1.85-.77,3.85-1.16,6-1.16s4.02.39,5.87,1.16c1.85.77,3.44,1.84,4.77,3.21,1.33,1.37,2.41,2.98,3.23,4.82.82,1.84,1.23,3.79,1.23,5.85s-.41,3.98-1.23,5.78Z"/>
      <path class="d" d="M68.25,177.13c-3.01-3.17-5.35-6.89-7.03-11.18-1.68-4.28-2.52-8.95-2.52-14,0-4.71.82-9.19,2.45-13.43,1.63-4.24,3.91-7.94,6.84-11.11.66-.71,1.35-1.39,2.06-2.03v-6.19h-23.35v63.93c0,6.42-5.23,11.63-11.68,11.63s-11.68-5.2-11.68-11.63v-5.81H0v5.81c0,19.26,15.68,34.88,35.03,34.88s35.03-15.62,35.03-34.88v-4.25c-.62-.56-1.23-1.14-1.81-1.75Z"/>
      <path class="b" d="M67.99,127.41c-2.92,3.17-5.21,6.87-6.84,11.11-1.63,4.24-2.45,8.72-2.45,13.43,0,5.05.84,9.72,2.52,14,1.68,4.28,4.02,8.01,7.03,11.18.58.61,1.19,1.19,1.81,1.75v-53.5c-.72.65-1.41,1.32-2.06,2.03Z"/>
      <path class="e" d="M58.07,108.29c8.04,0,14.56-6.49,14.56-14.5s-6.52-14.34-14.56-14.34-14.56,6.33-14.56,14.34,6.52,14.5,14.56,14.5Z"/>
      <path class="d" d="M236,142.31v42.78h-23.45v-38.32c0-5.73-4.67-10.38-10.43-10.38s-10.43,4.64-10.43,10.38v38.32h-23.5v-38.32c0-5.73-4.66-10.38-10.42-10.38s-10.43,4.64-10.43,10.38v38.32h-11.48v-65.9h11.48v8.09c6.36-6.08,13.51-9.12,21.42-9.12,9.81,0,17.29,4.11,22.45,12.33,5.25-8.3,12.73-12.46,22.45-12.46,3.1,0,6.02.45,8.78,1.35,2.75.89,5.11,2.31,7.09,4.24s3.55,4.43,4.71,7.52c1.16,3.08,1.74,6.81,1.74,11.17Z"/>
      <rect class="f" x="124" y="119.19" width="11.87" height="65.91"/>
      <rect class="b" x="124" y="119.19" width="11.87" height="65.91"/>
    </g>
    <g>
      <rect class="e" x="268.07" y="41.43" width="23.79" height="65.45"/>
      <rect class="e" x="179.73" y="41.39" width="23.57" height="65.49"/>
      <path class="d" d="M279.97,30.58c8.04,0,14.56-6.49,14.56-14.5s-6.52-14.34-14.56-14.34-14.56,6.33-14.56,14.34,6.52,14.5,14.56,14.5Z"/>
      <path class="d" d="M206.08,16.09c0,8.01-6.52,14.49-14.56,14.49s-14.56-6.49-14.56-14.49,6.52-14.34,14.56-14.34c2.18,0,4.25.47,6.1,1.31,2.36,1.06,4.38,2.73,5.85,4.81,1.65,2.32,2.61,5.15,2.61,8.22Z"/>
      <path class="d" d="M191.76,68.55v38.33s-23.41-.01-23.41-.01v-38.32c0-5.73-4.67-10.37-10.43-10.37s-10.43,4.64-10.43,10.37v38.31h-23.48v-38.31c0-5.73-4.67-10.37-10.43-10.37s-10.43,4.64-10.43,10.37v38.29h-23.39V41.52h23.39s0,8.01,0,8.01c4.21-3.98,8.75-6.66,13.65-8.01,2.5-.69,5.1-1.03,7.77-1.03,2.84,0,5.5.34,7.95,1.03,6.01,1.68,10.85,5.41,14.51,11.19,1.34-2.1,2.82-3.93,4.45-5.49,2.31-2.21,4.49-3.44,5.32-3.89,4.95-2.7,9.87-3.02,12.68-2.97,1.74.1,4.5.47,7.53,1.88,3.5,1.63,5.57,3.85,6.96,5.3,2.89,3.03,4.43,6.31,5.32,8.37,1.66,3.7,2.45,8.31,2.45,12.63Z"/>
      <path class="d" d="M278.18,56.65c-.24-.78-1.78-4.64-4.84-8.27-1.91-2.27-4.74-4.38-7.05-5.46-3.18-1.48-6.55-2.56-11-2.56-4.21,0-7.22.8-10.35,2.11-3.13,1.31-6.26,3.28-9.12,6.36v-7.29h-23.22s0,65.34,0,65.34h23.05v-38.37c0-5.73,4.67-10.38,10.43-10.38s10.43,4.65,10.43,10.38v38.37h23.04v-41.38c-.07-3.22-.18-5.06-1.35-8.85Z"/>
      <path class="b" d="M191.77,106.88h-12.04v-63.1c1.94,1.31,3.27,2.73,4.26,3.76,2.89,3.03,4.43,6.31,5.33,8.37,1.66,3.69,2.45,8.31,2.45,12.64v38.32Z"/>
      <path class="b" d="M279.53,65.49v41.38h-11.46v-62.99c1.86,1.16,3.83,2.78,5.27,4.49,3.06,3.63,4.6,7.49,4.84,8.27,1.18,3.79,1.29,5.62,1.35,8.85Z"/>
    </g>
  </g>
  <path class="e" d="M472.79,0c-15.03,0-27.21,12.13-27.21,27.09,0,1.31.1,2.61.28,3.87-10.82-8-24.23-12.74-38.75-12.74s-27.43,4.57-38.15,12.3c.14-1.13.23-2.27.23-3.43,0-14.96-12.18-27.09-27.21-27.09s-27.21,12.13-27.21,27.09,12.18,27.09,27.21,27.09c2.55,0,5.02-.36,7.37-1.01-4.66,8.93-7.3,19.08-7.3,29.84,0,35.78,29.13,64.78,65.06,64.78s65.06-29,65.06-64.78c0-10.83-2.68-21.05-7.4-30.02,2.53.77,5.22,1.19,8.01,1.19,15.03,0,27.21-12.13,27.21-27.09S487.82,0,472.79,0Z"/>
  <g>
    <path d="M407.12,104.25c-11.77,0-21.34-9.53-21.34-21.25s9.57-21.25,21.34-21.25,21.34,9.53,21.34,21.25-9.57,21.25-21.34,21.25Z"/>
    <g>
      <path class="c" d="M415.8,36.8c-5.65,0-10.44,3.59-12.24,8.59-1.75-8.87-9.59-15.55-19.01-15.55-10.7,0-19.38,8.64-19.38,19.3s8.68,19.3,19.38,19.3c9.13,0,16.79-6.3,18.84-14.76,1.66,5.25,6.59,9.07,12.42,9.07,7.19,0,13.02-5.8,13.02-12.96s-5.83-12.96-13.02-12.96Z"/>
      <ellipse cx="389.68" cy="55.07" rx="8.81" ry="8.77"/>
      <path d="M419.01,52.59c-3.3,0-5.99-2.67-5.99-5.96s2.68-5.96,5.99-5.96,5.99,2.67,5.99,5.96-2.68,5.96-5.99,5.96Z"/>
    </g>
  </g>
</svg>