<?xml version="1.0" encoding="utf-8"?>
<!-- Generator: Adobe Illustrator 27.0.0, SVG Export Plug-In . SVG Version: 6.00 Build 0)  -->
<svg version="1.1" id="Layer_3" xmlns="http://www.w3.org/2000/svg" xmlns:xlink="http://www.w3.org/1999/xlink" x="0px" y="0px"
	 width="327.7px" height="80px" viewBox="0 0 327.7 80" style="enable-background:new 0 0 327.7 80;" xml:space="preserve">
<style type="text/css">
	.st0{fill:#6B50A0;}
	.st1{fill-rule:evenodd;clip-rule:evenodd;fill:#6B50A0;}
	.st2{fill:#FFFFFF;}
</style>
<polygon class="st0" points="97.3,37.7 97.2,23.3 93.9,23.3 89,31.6 83.9,23.3 80.6,23.3 80.6,37.7 84.3,37.7 84.3,30.3 88,36.3 
	89.8,36.3 93.5,30.1 93.5,37.7 "/>
<path class="st0" d="M100.3,37.7V23.3h4v8.4l5.9-8.4h3.8v14.3h-4v-8.4l-5.9,8.4H100.3z"/>
<path class="st0" d="M129.3,25.8c-0.5-0.8-1.3-1.4-2.2-1.8c-0.9-0.4-2.1-0.6-3.4-0.6h-6.6v14.3h4.1v-3.7h2.5c1.3,0,2.4-0.2,3.4-0.6
	c0.9-0.4,1.7-1,2.2-1.8c0.5-0.8,0.8-1.7,0.8-2.8C130,27.6,129.8,26.6,129.3,25.8z M125.3,30.2c-0.4,0.4-1,0.6-1.9,0.6h-2.3v-4.2h2.3
	c0.8,0,1.5,0.2,1.9,0.6c0.4,0.4,0.6,0.9,0.6,1.6C125.9,29.3,125.7,29.8,125.3,30.2z"/>
<path class="st0" d="M80.6,59.1V44.8h12v3.1h-8v2.3h3.7c1.7,0,3.1,0.4,4,1.1c0.9,0.7,1.4,1.8,1.4,3.2c0,1.4-0.5,2.6-1.6,3.4
	c-1,0.8-2.5,1.2-4.4,1.2H80.6z M84.6,56.2h2.9c0.7,0,1.2-0.1,1.5-0.4c0.4-0.3,0.5-0.7,0.5-1.2c0-1-0.7-1.5-2.1-1.5h-2.9V56.2z"/>
<polygon class="st0" points="99.8,55.9 99.8,53.3 106.2,53.3 106.2,50.3 99.8,50.3 99.8,47.9 107,47.9 107,44.8 95.8,44.8 
	95.8,59.1 107.3,59.1 107.3,55.9 "/>
<path class="st0" d="M111.4,44.8l-0.2,5.7c0,1.1-0.1,2-0.2,2.8c-0.1,0.8-0.3,1.4-0.6,1.9c-0.3,0.4-0.7,0.7-1.3,0.7
	c-0.2,0-0.4,0-0.6-0.1l-0.2,3.3c0.3,0.1,0.7,0.1,1,0.2c0.3,0,0.6,0.1,0.9,0.1c0.9,0,1.6-0.2,2.2-0.6c0.6-0.4,1-1,1.4-1.8
	c0.3-0.8,0.6-1.7,0.7-2.8c0.2-1.1,0.2-2.4,0.3-3.8l0.1-2.3h4.1v11.1h4V44.8H111.4z"/>
<path class="st0" d="M133.1,59.4c-1.1,0-2.2-0.2-3.2-0.6c-1-0.4-1.8-0.9-2.5-1.6c-0.7-0.7-1.3-1.5-1.7-2.4c-0.4-0.9-0.6-1.9-0.6-3
	c0-1.1,0.2-2.1,0.6-3s1-1.7,1.7-2.4c0.7-0.7,1.6-1.2,2.5-1.6c1-0.4,2-0.6,3.2-0.6c1.2,0,2.2,0.2,3.2,0.6c1,0.4,1.8,0.9,2.5,1.6
	c0.7,0.7,1.3,1.5,1.7,2.4c0.4,0.9,0.6,1.9,0.6,3c0,1.1-0.2,2.1-0.6,3c-0.4,0.9-1,1.7-1.7,2.4c-0.7,0.7-1.5,1.2-2.5,1.6
	C135.3,59.2,134.2,59.4,133.1,59.4z M133.1,56c0.5,0,1.1-0.1,1.5-0.3c0.5-0.2,0.9-0.5,1.2-0.8c0.3-0.4,0.6-0.8,0.8-1.3
	c0.2-0.5,0.3-1.1,0.3-1.7c0-0.6-0.1-1.2-0.3-1.7c-0.2-0.5-0.5-0.9-0.8-1.3c-0.3-0.4-0.8-0.6-1.2-0.8c-0.5-0.2-1-0.3-1.5-0.3
	c-0.5,0-1.1,0.1-1.5,0.3c-0.5,0.2-0.9,0.5-1.2,0.8c-0.3,0.4-0.6,0.8-0.8,1.3c-0.2,0.5-0.3,1.1-0.3,1.7c0,0.6,0.1,1.2,0.3,1.7
	c0.2,0.5,0.5,0.9,0.8,1.3c0.3,0.4,0.8,0.6,1.2,0.8C132,55.9,132.5,56,133.1,56z"/>
<polygon class="st0" points="153.7,44.8 143.2,44.8 143.2,59.1 147.2,59.1 147.2,48 153.7,48 "/>
<path class="st0" d="M161.3,59.4c-1.1,0-2.2-0.2-3.2-0.6c-1-0.4-1.8-0.9-2.5-1.6c-0.7-0.7-1.3-1.5-1.7-2.4c-0.4-0.9-0.6-1.9-0.6-3
	c0-1.1,0.2-2.1,0.6-3s1-1.7,1.7-2.4c0.7-0.7,1.6-1.2,2.5-1.6c1-0.4,2-0.6,3.2-0.6c1.2,0,2.2,0.2,3.2,0.6c1,0.4,1.8,0.9,2.5,1.6
	c0.7,0.7,1.3,1.5,1.7,2.4c0.4,0.9,0.6,1.9,0.6,3c0,1.1-0.2,2.1-0.6,3c-0.4,0.9-1,1.7-1.7,2.4c-0.7,0.7-1.5,1.2-2.5,1.6
	C163.6,59.2,162.5,59.4,161.3,59.4z M161.3,56c0.5,0,1.1-0.1,1.5-0.3c0.5-0.2,0.9-0.5,1.2-0.8c0.3-0.4,0.6-0.8,0.8-1.3
	c0.2-0.5,0.3-1.1,0.3-1.7c0-0.6-0.1-1.2-0.3-1.7c-0.2-0.5-0.5-0.9-0.8-1.3c-0.3-0.4-0.8-0.6-1.2-0.8c-0.5-0.2-1-0.3-1.5-0.3
	c-0.5,0-1.1,0.1-1.5,0.3c-0.5,0.2-0.9,0.5-1.2,0.8c-0.3,0.4-0.6,0.8-0.8,1.3c-0.2,0.5-0.3,1.1-0.3,1.7c0,0.6,0.1,1.2,0.3,1.7
	c0.2,0.5,0.5,0.9,0.8,1.3c0.3,0.4,0.8,0.6,1.2,0.8C160.3,55.9,160.8,56,161.3,56z"/>
<path class="st0" d="M183.6,47.2c-0.5-0.8-1.3-1.4-2.2-1.8c-0.9-0.4-2.1-0.6-3.4-0.6h-6.6v14.3h4.1v-3.7h2.5c1.3,0,2.4-0.2,3.4-0.6
	c0.9-0.4,1.7-1,2.2-1.8c0.5-0.8,0.8-1.7,0.8-2.8C184.4,49,184.1,48,183.6,47.2z M179.7,51.6c-0.4,0.4-1,0.6-1.9,0.6h-2.3v-4.2h2.3
	c0.8,0,1.5,0.2,1.9,0.6c0.4,0.4,0.6,0.9,0.6,1.6C180.3,50.7,180.1,51.2,179.7,51.6z"/>
<path class="st0" d="M193.5,49.3c1.7,0,3.1,0.4,4.1,1.2c1,0.8,1.4,1.9,1.4,3.5c0,1.7-0.5,2.9-1.6,3.8c-1.1,0.9-2.6,1.3-4.4,1.3h-6.8
	V44.8h4v4.6H193.5z M192.7,56.2c0.7,0,1.2-0.2,1.6-0.6c0.4-0.4,0.6-0.9,0.6-1.6c0-0.7-0.2-1.2-0.6-1.4c-0.4-0.3-0.9-0.4-1.6-0.4
	h-2.5v4H192.7z"/>
<path class="st0" d="M205.8,44.8c-1.3,0-2.4,0.2-3.4,0.7c-1,0.4-1.7,1.1-2.2,1.9c-0.5,0.8-0.8,1.8-0.8,2.9c0,1.1,0.2,2,0.7,2.8
	c0.5,0.8,1.2,1.4,2.1,1.8c0,0,0,0,0.1,0l-2.9,4.2h4.3l2.4-3.6h2.2v3.6h4V44.8H205.8z M204.1,48.5c0.4-0.4,1-0.5,1.8-0.5h2.4v4.4
	h-2.4c-0.8,0-1.3-0.2-1.8-0.6c-0.4-0.4-0.6-0.9-0.6-1.6C203.5,49.4,203.7,48.8,204.1,48.5z"/>
<g>
	<defs>
		<circle id="SVGID_1_" cx="42" cy="40" r="30"/>
	</defs>
	<clipPath id="SVGID_00000173854205494576810990000008430961785012783039_">
		<use xlink:href="#SVGID_1_"  style="overflow:visible;"/>
	</clipPath>
</g>
<g>
	<g>
		<circle class="st1" cx="42" cy="40" r="30"/>
	</g>
	<g>
		<g>
			<path class="st2" d="M23.3,32l4.8-1.2c0.1,0,0.3,0,0.4,0.1l3.8,5.4c0.2,0.2,0.5,0.2,0.6,0l4-7.6c0-0.1,0.1-0.2,0.2-0.2l4.7-1.2
				c0.2-0.1,0.4,0.1,0.4,0.3v19.2c0,0.2-0.1,0.3-0.3,0.3l-4.3,1.1c-0.2,0.1-0.4-0.1-0.4-0.3V37.7c0-0.4-0.5-0.5-0.7-0.2l-4,7.2
				l-0.1,0l-4-5.2c-0.2-0.3-0.6-0.1-0.6,0.2v10.7c0,0.2-0.1,0.3-0.3,0.3l-4.2,1c-0.2,0.1-0.4-0.1-0.4-0.3V32.4
				C23.1,32.2,23.2,32.1,23.3,32z"/>
		</g>
		<g>
			<path class="st2" d="M45.1,27.3l17.3,4.3c0.2,0,0.3,0.2,0.3,0.3v3.5c0,0.2-0.2,0.4-0.4,0.3l-12.1-3c-0.2-0.1-0.4,0.1-0.4,0.3v3
				c0,0.2,0.1,0.3,0.3,0.3l6.7,1.6c4.2,1,6.5,3.4,6.5,7.3c0,3.7-2,5.3-6.3,4.4l-11.9-2.6c-0.2,0-0.3-0.2-0.3-0.3V27.7
				C44.7,27.4,44.9,27.3,45.1,27.3z M56.5,45.5c1.5,0.3,2.4,0,2.4-1.3c0-1.1-0.9-2-2.3-2.4l-6.4-1.5c-0.2-0.1-0.4,0.1-0.4,0.3v3
				c0,0.2,0.1,0.3,0.3,0.3L56.5,45.5z"/>
		</g>
	</g>
</g>
</svg>
