<svg width="198" height="59" viewBox="0 0 198 59" fill="none" xmlns="http://www.w3.org/2000/svg">
<path d="M7.9494 18.4804L29.0266 27.9658L42.7608 2.41364L58.7859 27.8527C58.6133 17.7366 57.0899 8.06082 54.2336 5.2045C47.4499 -1.57925 12.3648 -1.88869 5.27756 5.2045C-1.80968 12.2977 -1.70851 47.1983 5.27756 54.1844C7.09846 56.0053 11.4127 57.3085 16.7861 58.088C14.4951 47.6386 7.9494 18.4804 7.9494 18.4804Z" fill="black"/>
<path d="M43.7837 19.4087L31.6205 38.9685L20.582 34.2496L26.5327 58.9092C38.1543 59.2781 50.7043 57.719 54.2449 54.1843C55.804 52.6253 56.9584 49.0846 57.7201 44.574L43.7837 19.4087Z" fill="black"/>
<path d="M166.32 31.3396C166.32 31.485 166.282 31.6279 166.212 31.755C166.141 31.882 166.039 31.9889 165.915 32.0656C164.908 32.8322 163.785 33.4347 162.589 33.8508C161.242 34.2738 159.835 34.4748 158.424 34.4459C156.558 34.4721 154.716 34.028 153.068 33.1546C151.498 32.3258 150.192 31.0747 149.295 29.5425C148.363 27.9333 147.887 26.1 147.921 24.2405C147.886 22.3356 148.361 20.456 149.295 18.7956C150.18 17.2388 151.478 15.956 153.044 15.0884C154.674 14.1889 156.509 13.7295 158.37 13.7554C159.782 13.7232 161.189 13.9242 162.535 14.3505C163.751 14.7806 164.899 15.3817 165.945 16.1357C166.069 16.2124 166.171 16.3193 166.241 16.4463C166.312 16.5733 166.35 16.7163 166.35 16.8617C166.339 17.0749 166.269 17.2809 166.148 17.4567L164.452 20.1167C164.392 20.2369 164.301 20.3383 164.187 20.4097C164.074 20.4812 163.943 20.5198 163.809 20.5213C163.582 20.5021 163.363 20.433 163.166 20.319C162.465 19.8606 161.714 19.4814 160.929 19.1884C160.168 18.9012 159.362 18.7521 158.549 18.748C157.613 18.7259 156.69 18.9716 155.889 19.4562C155.139 19.9232 154.539 20.5941 154.157 21.3901C153.745 22.2658 153.541 23.2252 153.562 24.1929C153.543 25.1221 153.747 26.0423 154.157 26.8766C154.551 27.6623 155.16 28.3204 155.912 28.7749C156.723 29.2586 157.653 29.5041 158.596 29.483C159.433 29.4823 160.264 29.3394 161.054 29.0605C161.835 28.7923 162.569 28.4049 163.232 27.912C163.413 27.7623 163.639 27.6766 163.874 27.6681C164.011 27.6798 164.142 27.7272 164.255 27.8055C164.368 27.8838 164.458 27.9903 164.517 28.1144L166.13 30.7327C166.264 30.9057 166.331 31.121 166.32 31.3396Z" fill="black"/>
<path d="M196.966 31.2624C196.953 31.4294 196.898 31.5903 196.806 31.7306C196.715 31.8708 196.59 31.9861 196.443 32.0658C195.347 32.859 194.126 33.4624 192.831 33.851C191.368 34.2688 189.853 34.4693 188.332 34.4461C186.431 34.4878 184.553 34.0281 182.887 33.1131C181.373 32.263 180.134 30.9972 179.317 29.4654C178.465 27.8446 178.035 26.0355 178.067 24.205C178.035 22.3238 178.479 20.465 179.358 18.8018C180.178 17.2563 181.415 15.9718 182.929 15.0945C184.512 14.194 186.308 13.7337 188.13 13.7616C189.944 13.7229 191.735 14.1753 193.313 15.0707C194.779 15.9252 195.975 17.1748 196.764 18.6768C197.602 20.2805 198.026 22.0684 197.996 23.8777V24.806C198.017 25.0081 197.959 25.2105 197.835 25.3713C197.689 25.4917 197.5 25.5495 197.312 25.532H183.577C183.714 26.8039 184.326 27.9772 185.291 28.8167C186.275 29.6484 187.532 30.0871 188.82 30.0485C189.798 30.0585 190.771 29.9078 191.7 29.6022C192.585 29.3071 193.432 28.9076 194.223 28.4121C194.464 28.2475 194.738 28.1378 195.026 28.0907C195.154 28.0973 195.277 28.1431 195.379 28.2218C195.48 28.3006 195.554 28.4086 195.592 28.5311L196.782 30.6257C196.888 30.8223 196.951 31.0394 196.966 31.2624V31.2624ZM191.016 18.9803C190.237 18.2509 189.202 17.8575 188.136 17.8854C187.102 17.861 186.097 18.2216 185.315 18.897C184.464 19.6684 183.887 20.6962 183.673 21.8247H192.384C192.28 20.749 191.805 19.7432 191.04 18.9803H191.016Z" fill="black"/>
<path d="M77.6613 51.3696C77.6594 51.4295 77.6419 51.4879 77.6106 51.539C77.5793 51.5901 77.5353 51.6322 77.4827 51.6612C77.0603 51.9491 76.5969 52.1717 76.1081 52.3217C75.5283 52.4891 74.9263 52.5674 74.3229 52.5538C73.4619 52.5621 72.614 52.3424 71.8653 51.917C71.1283 51.4933 70.5212 50.8759 70.1099 50.1318C69.6891 49.3691 69.4757 48.5094 69.491 47.6385C69.4767 46.7202 69.7067 45.8145 70.1575 45.0143C70.581 44.2694 71.1978 43.6526 71.9427 43.2291C72.6909 42.8019 73.5388 42.5802 74.4003 42.5864C74.9835 42.5759 75.5651 42.6521 76.126 42.8125C76.6093 42.9594 77.067 43.1802 77.4827 43.4671C77.5332 43.4984 77.5756 43.5411 77.6066 43.5917C77.6375 43.6424 77.6563 43.6995 77.6613 43.7587C77.6583 43.8493 77.6316 43.9375 77.5839 44.0146L77.2507 44.5025C77.1852 44.6037 77.1138 44.6572 77.0364 44.6572C76.9375 44.6382 76.8441 44.5975 76.7627 44.5382C76.0513 44.0844 75.2262 43.841 74.3824 43.836C73.7347 43.8283 73.097 43.997 72.5377 44.324C71.9841 44.6488 71.531 45.1204 71.2286 45.6867C70.9059 46.2924 70.7421 46.9701 70.7525 47.6564C70.7461 48.3036 70.9081 48.9413 71.2226 49.507C71.5268 50.0588 71.9752 50.5174 72.5199 50.834C73.085 51.1625 73.7288 51.3311 74.3824 51.322C74.8222 51.3217 75.2595 51.2556 75.6797 51.1256C76.0758 51.0089 76.4542 50.8388 76.8044 50.6198C76.8857 50.5605 76.9792 50.5198 77.0781 50.5008C77.1554 50.5008 77.2269 50.5543 77.2923 50.6555L77.566 51.1256C77.6182 51.1974 77.651 51.2814 77.6613 51.3696Z" fill="black"/>
<path d="M82.2729 37.802C82.3645 37.7485 82.4708 37.7256 82.5764 37.7366H83.0227C83.13 37.7275 83.2376 37.7502 83.3321 37.802C83.3698 37.8373 83.3987 37.8811 83.4163 37.9297C83.4339 37.9783 83.4397 38.0304 83.4333 38.0817V43.9312C83.7436 43.5114 84.1523 43.1743 84.6234 42.9493C85.1406 42.7139 85.7035 42.596 86.2717 42.6042C86.8056 42.5765 87.3389 42.6691 87.8323 42.8751C88.3256 43.0811 88.7664 43.3952 89.1221 43.7943C89.8459 44.7174 90.2096 45.8721 90.1456 47.0434V52.036C90.1561 52.1338 90.1284 52.2319 90.0682 52.3097C90.0329 52.339 89.992 52.3609 89.9481 52.3742C89.9042 52.3875 89.858 52.3918 89.8124 52.3871H89.2173C89.1235 52.394 89.0304 52.3665 88.9555 52.3097C88.9224 52.2728 88.8974 52.2294 88.882 52.1822C88.8666 52.1351 88.8613 52.0853 88.8662 52.036V47.0434C88.9192 46.1893 88.6637 45.3446 88.1462 44.6631C87.8851 44.3957 87.5732 44.1833 87.2288 44.0382C86.8844 43.8931 86.5145 43.8184 86.1408 43.8184C85.7671 43.8184 85.3972 43.8931 85.0528 44.0382C84.7084 44.1833 84.3965 44.3957 84.1354 44.6631C83.6137 45.343 83.3539 46.1878 83.4035 47.0434V52.0003C83.414 52.0981 83.3863 52.1962 83.3261 52.274C83.2908 52.3033 83.2499 52.3252 83.206 52.3385C83.1621 52.3518 83.1159 52.3561 83.0703 52.3514H82.4752C82.4268 52.3629 82.3762 52.3618 82.3283 52.3482C82.2804 52.3347 82.2368 52.3091 82.2016 52.2739C82.1664 52.2387 82.1408 52.1951 82.1273 52.1472C82.1137 52.0993 82.1126 52.0487 82.1241 52.0003V38.0817C82.1253 38.0267 82.1393 37.9727 82.1652 37.9241C82.191 37.8755 82.2279 37.8337 82.2729 37.802V37.802Z" fill="black"/>
<path d="M99.8337 52.3041C99.3519 52.4627 98.8473 52.5411 98.3401 52.5362C97.6963 52.5465 97.0575 52.4208 96.4656 52.1673C95.9256 51.9372 95.4644 51.5546 95.1386 51.0664C94.8036 50.5456 94.6335 49.9359 94.6507 49.3169C94.633 48.7016 94.8032 48.0955 95.1386 47.5793C95.4685 47.0947 95.9284 46.7131 96.4656 46.4784C97.5359 46.0199 98.7384 45.9753 99.8396 46.3535C100.285 46.4941 100.692 46.7342 101.03 47.0557C101.055 46.17 100.776 45.3024 100.238 44.598C99.976 44.3129 99.6536 44.0898 99.2944 43.9446C98.9352 43.7995 98.5483 43.7361 98.1616 43.759C97.9007 43.7613 97.6402 43.7811 97.382 43.8185C97.2007 43.8475 97.0179 43.8674 96.8346 43.878C96.7586 43.8823 96.6832 43.8614 96.6203 43.8185C96.5574 43.7575 96.5211 43.6741 96.5192 43.5864L96.4418 43.1163V43.0211C96.4387 42.9828 96.4439 42.9444 96.4573 42.9084C96.4707 42.8724 96.4918 42.8398 96.5192 42.8128C96.6 42.7548 96.6941 42.718 96.7929 42.7057C97.0209 42.6588 97.2514 42.6251 97.4832 42.6046C97.7649 42.5808 98.0207 42.5689 98.2508 42.5689C98.8119 42.5256 99.3755 42.6102 99.8991 42.8164C100.423 43.0226 100.893 43.3448 101.274 43.759C101.995 44.7389 102.347 45.9425 102.268 47.1568V52.0126C102.277 52.1103 102.25 52.2082 102.19 52.2863C102.118 52.3448 102.026 52.3726 101.934 52.3636H101.339C101.245 52.3711 101.152 52.3435 101.077 52.2863C101.044 52.2496 101.019 52.2062 101.003 52.159C100.988 52.1118 100.983 52.0619 100.988 52.0126V51.602C100.66 51.9181 100.265 52.1578 99.8337 52.3041V52.3041ZM96.2633 50.4118C96.4959 50.7324 96.8132 50.9817 97.1797 51.1319C98.0053 51.4701 98.9308 51.4701 99.7563 51.1319C100.123 50.9814 100.44 50.7321 100.673 50.4118C100.889 50.0887 101.004 49.7087 101.004 49.3199C101.004 48.9311 100.889 48.5511 100.673 48.2279C100.444 47.9089 100.131 47.6597 99.7682 47.5079C98.9427 47.1696 98.0172 47.1696 97.1916 47.5079C96.8242 47.6594 96.5068 47.9109 96.2752 48.2339C96.059 48.557 95.9436 48.9371 95.9436 49.3258C95.9436 49.7146 96.059 50.0946 96.2752 50.4178L96.2633 50.4118Z" fill="black"/>
<path d="M107.605 42.92C107.656 42.8769 107.715 42.8442 107.778 42.8238C107.841 42.8033 107.908 42.7956 107.974 42.801H108.23C108.367 42.7914 108.503 42.8339 108.611 42.92C108.656 42.9696 108.69 43.028 108.712 43.0915C108.733 43.155 108.742 43.2222 108.736 43.289V43.9316C109.062 43.5126 109.482 43.1763 109.962 42.9498C110.475 42.7141 111.034 42.5962 111.598 42.6046C112.132 42.577 112.665 42.6695 113.159 42.8755C113.652 43.0815 114.093 43.3957 114.449 43.7948C115.164 44.7212 115.519 45.8755 115.448 47.0438V52.0364C115.459 52.1342 115.431 52.2323 115.371 52.3102C115.336 52.3394 115.295 52.3613 115.251 52.3746C115.207 52.3879 115.161 52.3923 115.115 52.3875H114.52C114.426 52.3944 114.333 52.3669 114.258 52.3102C114.225 52.2732 114.2 52.2298 114.185 52.1827C114.169 52.1356 114.164 52.0858 114.169 52.0364V47.0438C114.224 46.1905 113.97 45.3459 113.455 44.6636C113.194 44.3962 112.882 44.1837 112.537 44.0387C112.193 43.8936 111.823 43.8189 111.449 43.8189C111.076 43.8189 110.706 43.8936 110.361 44.0387C110.017 44.1837 109.705 44.3962 109.444 44.6636C108.922 45.3434 108.662 46.1883 108.712 47.0438V52.0007C108.723 52.0985 108.695 52.1966 108.635 52.2745C108.599 52.3037 108.559 52.3256 108.515 52.3389C108.471 52.3522 108.425 52.3566 108.379 52.3518H107.784C107.735 52.3633 107.685 52.3622 107.637 52.3487C107.589 52.3351 107.545 52.3095 107.51 52.2743C107.475 52.2391 107.449 52.1955 107.436 52.1476C107.422 52.0997 107.421 52.0492 107.433 52.0007V43.2949C107.433 43.2238 107.449 43.1537 107.479 43.0891C107.509 43.0245 107.552 42.9669 107.605 42.92V42.92Z" fill="black"/>
<path d="M120.792 42.92C120.843 42.8769 120.901 42.8442 120.964 42.8238C121.028 42.8033 121.095 42.7956 121.161 42.801H121.417C121.554 42.7914 121.69 42.8339 121.798 42.92C121.843 42.9696 121.877 43.028 121.898 43.0915C121.92 43.155 121.928 43.2222 121.923 43.289V43.9316C122.248 43.5126 122.668 43.1763 123.148 42.9498C123.661 42.7141 124.22 42.5962 124.785 42.6046C125.319 42.577 125.852 42.6695 126.345 42.8755C126.839 43.0815 127.279 43.3957 127.635 43.7948C128.35 44.7212 128.706 45.8755 128.635 47.0438V52.0364C128.645 52.1342 128.618 52.2323 128.558 52.3102C128.522 52.3394 128.481 52.3613 128.437 52.3746C128.393 52.3879 128.347 52.3923 128.302 52.3875H127.707C127.613 52.3944 127.52 52.3669 127.445 52.3102C127.412 52.2732 127.387 52.2298 127.371 52.1827C127.356 52.1356 127.351 52.0858 127.355 52.0364V47.0438C127.408 46.1898 127.153 45.3451 126.635 44.6636C126.374 44.3962 126.062 44.1837 125.718 44.0387C125.374 43.8936 125.004 43.8189 124.63 43.8189C124.256 43.8189 123.886 43.8936 123.542 44.0387C123.198 44.1837 122.886 44.3962 122.625 44.6636C122.103 45.3434 121.843 46.1883 121.893 47.0438V52.0007C121.903 52.0985 121.876 52.1966 121.815 52.2745C121.78 52.3037 121.739 52.3256 121.695 52.3389C121.651 52.3522 121.605 52.3566 121.56 52.3518H120.964C120.916 52.3633 120.865 52.3622 120.818 52.3487C120.77 52.3351 120.726 52.3095 120.691 52.2743C120.656 52.2391 120.63 52.1955 120.617 52.1476C120.603 52.0997 120.602 52.0492 120.613 52.0007V43.2949C120.615 43.2234 120.632 43.1529 120.662 43.0883C120.693 43.0237 120.737 42.9663 120.792 42.92V42.92Z" fill="black"/>
<path d="M141.839 51.1138C141.832 51.1717 141.813 51.2275 141.783 51.2777C141.753 51.3278 141.714 51.3713 141.666 51.4054C141.181 51.7534 140.648 52.0299 140.084 52.2266C139.438 52.4539 138.757 52.5667 138.072 52.5598C137.16 52.5829 136.26 52.3522 135.472 51.8933C134.747 51.4677 134.154 50.8499 133.758 50.1081C133.354 49.3423 133.149 48.4868 133.163 47.6208C133.14 46.7196 133.344 45.8273 133.758 45.0263C134.153 44.2899 134.739 43.6733 135.454 43.2411C135.978 42.9155 136.563 42.7007 137.173 42.6099C137.783 42.5191 138.405 42.5542 139.001 42.7131C139.597 42.872 140.155 43.1513 140.638 43.5338C141.122 43.9163 141.523 44.3938 141.815 44.937C142.211 45.6677 142.415 46.4864 142.41 47.3173V47.5494C142.421 47.6472 142.393 47.7453 142.333 47.8231C142.261 47.8816 142.169 47.9094 142.077 47.9005H134.466C134.523 48.5136 134.714 49.1067 135.025 49.638C135.325 50.1544 135.759 50.58 136.281 50.8698C136.843 51.1746 137.475 51.3284 138.114 51.3161C138.642 51.319 139.166 51.2263 139.661 51.0424C140.133 50.869 140.583 50.6392 141 50.3581C141.076 50.2908 141.172 50.2492 141.274 50.2391C141.351 50.2391 141.422 50.2926 141.488 50.3938L141.762 50.8639C141.809 50.9391 141.835 51.0252 141.839 51.1138V51.1138ZM140.464 45.1929C140.206 44.8279 139.874 44.5206 139.491 44.2906C139.107 44.0607 138.68 43.913 138.236 43.8571C137.792 43.8011 137.342 43.838 136.913 43.9656C136.484 44.0931 136.087 44.3084 135.745 44.5978C135.136 45.164 134.72 45.907 134.555 46.7222H141.101C140.993 46.175 140.777 45.6549 140.464 45.1929V45.1929Z" fill="black"/>
<path d="M147.118 37.8079C147.207 37.7473 147.315 37.7199 147.422 37.7305H147.892C147.999 37.7199 148.107 37.7473 148.196 37.8079C148.23 37.851 148.256 37.9005 148.271 37.9536C148.287 38.0068 148.291 38.0624 148.285 38.1173V51.9705C148.291 52.0254 148.287 52.081 148.271 52.1341C148.256 52.1873 148.23 52.2368 148.196 52.2799C148.107 52.3405 147.999 52.3679 147.892 52.3572H147.422C147.315 52.3679 147.207 52.3405 147.118 52.2799C147.084 52.2368 147.058 52.1873 147.043 52.1341C147.027 52.081 147.023 52.0254 147.029 51.9705V38.1173C147.023 38.0624 147.027 38.0068 147.043 37.9536C147.058 37.9005 147.084 37.851 147.118 37.8079V37.8079Z" fill="black"/>
<path d="M174.545 6.43017C174.322 6.27818 174.053 6.20683 173.783 6.22785H173.295C171.814 6.2576 169.314 6.62654 169.303 8.26892V33.1129C169.29 33.236 169.303 33.3604 169.341 33.4782C169.379 33.596 169.441 33.7047 169.523 33.7973C169.738 33.9531 170.002 34.0251 170.267 33.9996H173.772C174.043 34.022 174.314 33.9506 174.539 33.7973C174.628 33.7083 174.696 33.6008 174.738 33.4824C174.78 33.3641 174.796 33.2379 174.783 33.1129V7.1145C174.796 6.98997 174.781 6.86417 174.74 6.74594C174.699 6.62771 174.632 6.51993 174.545 6.43017V6.43017Z" fill="black"/>
<path d="M109.581 14.2436H108.986C107.594 14.2912 105.166 14.6245 105.13 16.2014V33.0358C105.101 33.1692 105.106 33.3078 105.144 33.4388C105.183 33.5698 105.254 33.6891 105.35 33.7856C105.447 33.8822 105.566 33.9529 105.697 33.9914C105.828 34.0299 105.967 34.0348 106.1 34.0058H109.605C109.879 34.0299 110.153 33.9514 110.373 33.7856C110.462 33.6852 110.53 33.5672 110.572 33.4392C110.614 33.3112 110.629 33.1759 110.616 33.0418V15.1898C110.629 15.0557 110.614 14.9203 110.572 14.7923C110.53 14.6643 110.462 14.5464 110.373 14.4459C110.144 14.2812 109.861 14.2089 109.581 14.2436V14.2436Z" fill="black"/>
<path d="M98.9166 16.2368C97.6947 14.65 95.9096 13.8565 93.561 13.8565C92.2852 13.8473 91.0259 14.1453 89.8895 14.7253C88.6988 15.3602 87.6971 16.2983 86.9855 17.4448C86.4538 16.3184 85.5974 15.3766 84.5265 14.7404C83.4556 14.1042 82.2189 13.8026 80.9754 13.8744C79.8986 13.8625 78.8343 14.1052 77.8691 14.5825C76.96 15.0264 76.1719 15.6839 75.5722 16.4986V15.3085C75.585 15.1693 75.5683 15.029 75.5231 14.8967C75.478 14.7645 75.4055 14.6432 75.3103 14.5409C75.0887 14.3633 74.8081 14.2761 74.5249 14.2969H74.0072C72.6147 14.3385 70.0916 14.6599 70.0857 16.2963V33.2735C70.0595 33.374 70.06 33.4795 70.0872 33.5796C70.1144 33.6798 70.1673 33.7711 70.2407 33.8445C70.3141 33.9179 70.4054 33.9708 70.5055 33.998C70.6057 34.0252 70.7112 34.0257 70.8116 33.9995H74.8819C75.0708 34.017 75.259 33.9593 75.4056 33.8388C75.5302 33.6783 75.5878 33.4757 75.5662 33.2735V23.8358C75.4819 22.5068 75.7903 21.1824 76.4529 20.0274C76.751 19.5936 77.1568 19.2449 77.6305 19.0153C78.1041 18.7858 78.6293 18.6834 79.1545 18.7182C79.6707 18.688 80.1858 18.7929 80.6491 19.0225C81.1124 19.252 81.5079 19.5984 81.7966 20.0274C82.4545 21.1845 82.7644 22.5069 82.6892 23.8358V33.2735C82.6783 33.3754 82.6891 33.4785 82.7209 33.5759C82.7527 33.6734 82.8047 33.763 82.8736 33.8388C83.0285 33.9567 83.2211 34.0138 83.4151 33.9995H87.4854C87.6743 34.017 87.8625 33.9593 88.0091 33.8388C88.1337 33.6783 88.1913 33.4757 88.1697 33.2735V23.8358C88.0858 22.5069 88.3941 21.1826 89.0564 20.0274C89.3549 19.594 89.7608 19.2456 90.2343 19.0162C90.7079 18.7867 91.2329 18.684 91.758 18.7182C94.0986 18.7182 95.2689 20.4261 95.2689 23.8417V33.2735C95.2575 33.375 95.2676 33.4777 95.2983 33.5751C95.3291 33.6724 95.3798 33.7623 95.4474 33.8388C95.6041 33.9576 95.7988 34.0147 95.9948 33.9995H100.065C100.254 34.017 100.442 33.9593 100.589 33.8388C100.713 33.678 100.77 33.4756 100.749 33.2735V23.2764C100.749 20.186 100.138 17.8395 98.9166 16.2368Z" fill="black"/>
<path d="M127.308 14.0829C127.203 13.994 127.082 13.9267 126.951 13.8849C126.821 13.843 126.683 13.8274 126.546 13.8389H126.267C125.083 13.7956 123.908 14.0601 122.857 14.6066C121.948 15.1131 121.173 15.8292 120.596 16.6952V15.2076C120.621 14.9405 120.542 14.6738 120.375 14.4637C120.165 14.2967 119.899 14.2178 119.632 14.2436H119.037C117.65 14.2852 115.139 14.6066 115.121 16.2251V33.2738C115.096 33.373 115.096 33.4771 115.123 33.5759C115.15 33.6748 115.202 33.7651 115.273 33.8381C115.345 33.9111 115.435 33.9643 115.533 33.9926C115.631 34.021 115.735 34.0234 115.835 33.9998H119.905C120.094 34.0173 120.282 33.9595 120.429 33.8391C120.554 33.6785 120.611 33.4759 120.59 33.2738V24.6453C120.549 23.5842 120.706 22.5247 121.054 21.5212C121.318 20.8042 121.843 20.2133 122.524 19.8669C123.348 19.4991 124.246 19.3261 125.148 19.3611H126.546C126.684 19.3735 126.823 19.3583 126.955 19.3164C127.086 19.2745 127.209 19.2068 127.314 19.1172C127.498 18.8918 127.585 18.6033 127.558 18.3138V14.91C127.581 14.6128 127.492 14.3176 127.308 14.0829V14.0829Z" fill="black"/>
<path d="M110.366 11.988C109.771 12.5831 106.296 12.5831 105.695 11.988C105.094 11.393 105.017 7.99515 105.695 7.31678C106.373 6.6384 109.718 6.66816 110.366 7.31678C111.015 7.9654 110.949 11.3989 110.366 11.988Z" fill="black"/>
<path d="M137.257 33.9998C136.407 34.2587 135.522 34.3871 134.633 34.3807C133.302 34.41 131.981 34.1438 130.765 33.6011C129.706 33.1242 128.807 32.3514 128.176 31.3756C127.544 30.3527 127.224 29.1679 127.254 27.9658C127.224 26.7638 127.544 25.579 128.176 24.5561C128.804 23.5819 129.704 22.814 130.765 22.3484C131.984 21.8186 133.304 21.5587 134.633 21.5867C135.529 21.5809 136.422 21.7093 137.281 21.9676C138.044 22.1868 138.753 22.5617 139.364 23.0685C139.374 21.8438 138.906 20.6633 138.06 19.7777C137.134 18.9792 135.931 18.5754 134.71 18.6531C134.337 18.6531 133.829 18.6789 133.187 18.7304L132.342 18.7721C132.236 18.7837 132.128 18.7738 132.026 18.7432C131.924 18.7125 131.829 18.6616 131.747 18.5936C131.596 18.4039 131.505 18.1741 131.485 17.933L131.164 15.2493C131.121 14.9884 131.172 14.721 131.306 14.4936C131.505 14.2908 131.768 14.1626 132.05 14.1306C133.107 13.9252 134.182 13.8315 135.258 13.8509C138.463 13.8509 140.843 14.7058 142.398 16.4156C143.953 18.1254 144.729 20.5712 144.725 23.7528V33.2738C144.745 33.474 144.688 33.6742 144.564 33.8332C144.492 33.8931 144.408 33.9382 144.319 33.9657C144.229 33.9933 144.134 34.0029 144.041 33.9939H140.072C139.878 34.0087 139.685 33.9515 139.53 33.8332C139.463 33.7575 139.413 33.6687 139.382 33.5724C139.351 33.476 139.341 33.3744 139.352 33.2738V32.9108C138.73 33.405 138.019 33.7747 137.257 33.9998V33.9998ZM133.687 30.1914C134.35 30.7515 135.199 31.0443 136.067 31.0126C136.931 31.0366 137.775 30.7518 138.447 30.2092C138.764 29.9467 139.015 29.6147 139.183 29.239C139.35 28.8633 139.428 28.4541 139.411 28.0432C139.432 27.617 139.357 27.1915 139.19 26.7988C139.023 26.4061 138.769 26.0564 138.447 25.776C137.78 25.2223 136.934 24.9304 136.067 24.9548C135.199 24.9237 134.351 25.2164 133.687 25.776C133.377 26.0467 133.131 26.3834 132.969 26.7613C132.806 27.1392 132.73 27.5488 132.746 27.9599C132.727 28.3775 132.802 28.7941 132.964 29.1792C133.127 29.5643 133.374 29.9081 133.687 30.1854V30.1914Z" fill="black"/>
</svg>
