<?xml version="1.0" encoding="UTF-8" standalone="no"?>
<!-- Created with Inkscape (http://www.inkscape.org/) -->

<svg
   width="103.96815mm"
   height="44.685089mm"
   viewBox="0 0 103.96815 44.68509"
   version="1.1"
   id="svg1796"
   inkscape:version="1.1-rc (52f87abb86, 2021-05-02)"
   sodipodi:docname="ModoViagem 2022.svg"
   xmlns:inkscape="http://www.inkscape.org/namespaces/inkscape"
   xmlns:sodipodi="http://sodipodi.sourceforge.net/DTD/sodipodi-0.dtd"
   xmlns="http://www.w3.org/2000/svg"
   xmlns:svg="http://www.w3.org/2000/svg">
  <sodipodi:namedview
     id="namedview1798"
     pagecolor="#ffffff"
     bordercolor="#666666"
     borderopacity="1.0"
     objecttolerance="10.0"
     gridtolerance="10.0"
     guidetolerance="10.0"
     inkscape:pageshadow="2"
     inkscape:pageopacity="0.0"
     inkscape:pagecheckerboard="0"
     inkscape:document-units="mm"
     showgrid="false"
     inkscape:zoom="0.70875"
     inkscape:cx="61.375661"
     inkscape:cy="67.0194"
     inkscape:window-width="1024"
     inkscape:window-height="580"
     inkscape:window-x="-8"
     inkscape:window-y="-8"
     inkscape:window-maximized="1"
     inkscape:current-layer="layer1" />
  <defs
     id="defs1793" />
  <g
     inkscape:label="Capa 1"
     inkscape:groupmode="layer"
     id="layer1"
     transform="translate(-134.43761,-165.39647)">
    <g
       id="g1848"
       transform="translate(111.87711,-6.0403133)">
      <path
         style="fill:#000000;stroke-width:0.264583"
         d="m 68.371911,215.74063 c -1.571495,-0.4941 -2.963558,-1.54915 -2.963558,-1.54915 l 1.339557,-1.97973 v 0 l 1.375447,0.69085 c 1.09357,0.54927 1.756251,0.69057 3.233602,0.68948 3.23923,-0.002 4.702674,-1.38691 5.282732,-4.71704 l 0.184345,-1.05833 -0.958744,0.97572 c -1.367239,1.39144 -2.881024,1.90432 -5.143052,1.74247 -2.216923,-0.15862 -3.894529,-1.03592 -5.061514,-2.64689 -2.76915,-3.8227 -1.655823,-9.51189 2.259505,-11.54625 2.732201,-1.41962 6.62559,-0.88542 8.211899,1.12673 l 0.648991,0.82322 v 0 c 0.0019,0.41994 0.0039,-1.67569 0.0058,-2.51354 h 1.5875 1.5875 v 6.97197 c 0,4.21606 -0.111924,7.32749 -0.283146,7.87136 -1.184267,3.76165 -3.842261,5.54785 -8.18352,5.49941 -1.091406,-0.0122 -2.496942,-0.18331 -3.123412,-0.38028 z m 5.768708,-8.45281 c 1.658109,-0.85744 2.825832,-3.35751 2.41286,-5.16588 -0.311828,-1.36546 -0.716243,-2.00069 -1.799969,-2.82729 -0.816988,-0.62315 -1.221986,-0.73836 -2.59552,-0.73836 -2.79391,0 -4.470796,1.6307 -4.489288,4.36563 -0.01363,2.01644 0.51005,3.09687 1.940856,4.00426 1.37514,0.87209 3.253978,1.02204 4.531061,0.36164 z m -23.150504,4.28511 c -2.408645,-0.72425 -3.718499,-1.91275 -4.804156,-4.35908 -0.826114,-1.86149 -0.860835,-4.95079 -0.07912,-7.04009 1.696969,-4.53556 7.138132,-6.10558 11.017189,-3.17895 0.440856,0.33261 1.071218,0.8927 1.071218,0.8927 v 0 l 0.01794,-2.10934 h 3.227978 v 0 7.80521 7.8052 H 59.774493 58.10783 v 0 l -0.0058,-1.87983 c 0,0 -0.23616,0.37898 -0.64657,0.84114 -1.174145,1.32219 -4.495969,1.8152 -6.465326,1.22304 z m 4.629671,-3.49136 c 0.421812,-0.21813 1.093753,-0.82508 1.493203,-1.34879 1.220147,-1.59969 1.160272,-4.9238 -0.115158,-6.39341 -0.789958,-0.91022 -2.269151,-1.64878 -3.304235,-1.6498 -2.162445,-0.002 -3.831508,1.25867 -4.556742,3.44214 -1.064921,3.20618 1.121844,6.32466 4.446088,6.34043 0.698449,0.003 1.615029,-0.17244 2.036844,-0.39057 z m 33.338037,3.48837 c -4.302903,-1.24128 -6.61674,-4.37548 -6.284635,-8.51282 0.351023,-4.373 3.757279,-7.54354 8.104383,-7.54354 2.14852,0 4.446593,1.16145 5.657104,2.8591 1.235935,1.73331 1.687465,4.3396 1.860312,6.40132 v 0 l -6.327677,-0.0702 -6.026616,0.0322 c 0,0 0.04899,0.66208 0.265947,1.10876 0.120573,0.24824 0.455992,0.91843 0.896818,1.38337 0.529261,0.55821 1.194959,0.91356 1.615916,1.13125 1.083985,0.56055 3.923699,0.48892 5.580919,-0.14077 0.714604,-0.27153 1.339031,-0.64558 1.339031,-0.64558 l 1.338861,2.34587 v 0 c 0,0 -0.270297,0.15357 -0.640491,0.43281 -1.556176,1.17382 -5.358165,1.80143 -7.379872,1.21822 z m 5.940787,-9.7725 c -0.301855,-0.99672 -1.151168,-2.23648 -1.842402,-2.68939 -0.911731,-0.59739 -2.792288,-0.80686 -3.915574,-0.43614 -0.883608,0.29162 -2.437403,1.39679 -2.793529,2.32559 -0.329841,0.86024 -0.336179,1.39812 -0.336179,1.39812 l 9.067974,-0.003 v 0 z m -66.711231,8.59896 c -0.467079,-1.10752 -3.171602,-8.11639 -4.313518,-11.17865 -0.406984,-1.09141 -0.868984,-2.3118 -1.026665,-2.71198 l -0.286692,-0.7276 h 3.320182 v 0 l 0.337026,0.99218 c 0.185362,0.54571 3.719061,11.31455 3.719061,11.31455 v 0 0 0 l 2.313681,-6.47169 2.188654,-5.87833 3.259781,0.0387 v 0 c 0,0 -0.66111,1.83422 -4.644738,12.10926 l -1.359169,3.50573 v 0 l -3.120886,-0.0403 z m 11.293361,-6.81302 v -7.80521 h 1.719792 1.719791 v 7.80521 7.8052 H 41.200532 39.48074 Z m 61.38333,0 v -7.80521 h 1.71979 1.7198 v 1.2186 1.21861 l 0.76959,-0.82385 c 2.30029,-2.46248 6.61236,-2.52999 8.71918,-0.13651 l 0.98306,1.11681 0.80961,-0.85088 c 1.15565,-1.21457 2.61401,-1.8337 4.60557,-1.95526 3.10602,-0.18958 5.27461,1.42716 6.03174,4.49683 0.17779,0.72084 0.30625,3.35657 0.30625,6.28385 v 5.04221 h -1.7198 -1.71979 v -4.90329 c 0,-5.52178 -0.19365,-6.38033 -1.63772,-7.26076 -1.2132,-0.73966 -3.04834,-0.71148 -4.21013,0.0646 -1.63672,1.0934 -1.82419,1.84044 -1.82465,7.27077 l -4.1e-4,4.82864 h -1.7198 -1.71979 l -0.004,-5.09323 c -0.004,-5.6099 -0.0947,-6.01577 -1.56043,-7.00351 -1.72404,-1.16183 -3.98394,-0.60611 -5.4228,1.33348 -0.50785,0.68459 -0.56027,1.15915 -0.63567,5.75469 l -0.0822,5.00857 h -1.70375 -1.70376 z M 40.09891,190.92666 c -0.291041,-0.29104 -0.388702,-1.0238 -0.388702,-1.24208 0,-0.21828 0.06255,-0.70523 0.353586,-0.99627 0.291042,-0.29104 0.918457,-0.38871 1.136738,-0.38871 0.218281,0 0.635,0.13243 0.926041,0.42382 0.291042,0.29104 0.529167,0.88334 0.529167,1.10162 0,0.22451 -0.07525,0.81226 -0.321353,1.0863 -0.316069,0.35195 -0.810409,0.47426 -1.098739,0.47426 -0.218281,0 -0.845696,-0.1679 -1.136738,-0.45894 z m 16.579747,-0.009 c -3.47716,-1.15423 -5.820834,-4.32247 -5.820834,-7.86876 0,-4.93375 4.915816,-8.88791 9.84408,-7.91833 2.730486,0.53719 4.954603,2.18073 6.074492,4.48882 0.853556,1.75918 0.860155,5.21627 0.01323,6.93532 -1.816431,3.68695 -6.308326,5.62523 -10.110978,4.36295 z m 4.708972,-3.37942 c 2.287259,-1.10724 3.32341,-3.95994 2.314966,-6.37348 -1.585629,-3.79495 -7.197775,-3.84637 -8.907862,-0.0816 -1.935038,4.25997 2.386635,8.49132 6.592896,6.4551 z m 13.318963,3.39607 c -1.18401,-0.4498 -2.832415,-1.85965 -3.569637,-3.05307 -0.848227,-1.3731 -1.229132,-2.88118 -1.229132,-4.86636 0,-4.0937 2.301653,-7.1358 5.971328,-7.8923 1.343742,-0.27701 1.914424,-0.31403 3.229935,0.0137 0.836096,0.20831 2.028726,0.83172 2.521528,1.2644 0.492802,0.43269 0.954165,0.85693 0.954165,0.85693 0,0 0.02304,-1.30968 0.02304,-2.91041 v -2.91042 h 1.5875 1.5875 v 9.78958 9.78959 h -1.5875 -1.5875 l -0.0477,-2.06414 v 0 c 0,0 -0.358456,0.53163 -0.757726,0.90361 -1.447905,1.34893 -5.137825,1.82269 -7.095802,1.07888 z m 5.170016,-3.38065 c 1.366123,-0.66132 2.062689,-1.57077 2.4837,-3.24275 0.744196,-2.95547 -1.389142,-6.00324 -4.22951,-6.04244 -2.847584,-0.0393 -4.763966,1.92002 -4.777582,4.88463 -0.01701,3.70366 3.317023,5.95274 6.523392,4.40056 z m 13.595689,3.14694 c -1.648675,-0.63301 -3.599926,-2.43723 -4.380349,-4.05027 -0.776431,-1.6048 -0.852385,-4.64692 -0.161915,-6.48523 1.338377,-3.56331 5.534443,-5.85422 9.22206,-5.03493 2.964697,0.65868 4.919407,2.16423 6.068417,4.674 0.92396,2.01821 0.90388,4.80741 -0.0491,6.82193 -1.81457,3.83568 -6.587229,5.65324 -10.699073,4.0745 z m 4.772607,-2.89564 c 1.199774,-0.40098 2.312726,-1.44926 2.911306,-2.74213 0.57901,-1.25061 0.61499,-1.94142 0.17723,-3.40253 -1.03257,-3.44644 -5.578416,-4.58529 -8.127539,-2.03617 -3.670604,3.6706 0.120086,9.82479 5.039003,8.18083 z m -75.432913,-4.59421 v -7.80521 h 1.719791 1.719792 v 1.08912 1.08912 l 1.036518,-0.93643 c 0.580721,-0.52465 1.675884,-1.13797 2.490478,-1.39475 1.291582,-0.40714 1.640155,-0.41881 3.121223,-0.1045 1.404599,0.29807 1.848131,0.53991 2.81527,1.53502 l 1.148004,1.18121 0.405521,-0.57897 c 0.588836,-0.84067 2.148692,-1.74964 3.667361,-2.13706 2.783334,-0.71003 5.530296,0.54472 6.789263,3.10119 0.581189,1.18017 0.624486,1.60922 0.707581,7.01178 l 0.08851,5.75469 H 46.779147 45.03699 v -5.03763 c 0,-6.46741 -0.202562,-6.9747 -3.113008,-7.79607 -0.769676,-0.21722 -2.396982,0.30383 -3.204945,1.02618 -1.188252,1.06235 -1.354963,1.92811 -1.354963,7.03652 v 4.771 H 35.644282 33.92449 v -5.25254 c 0,-5.01766 -0.02677,-5.29227 -0.598664,-6.1409 -1.237369,-1.83613 -4.225793,-1.89192 -5.906114,-0.11027 -1.074335,1.13913 -1.168138,1.70436 -1.168138,7.03886 v 4.46485 h -1.719792 -1.719791 z"
         id="path1850"
         sodipodi:nodetypes="ccccscscssssscccccsccccssssssssscscccccccccccssssscscsscssscsccsssscccssccscccscccccccccccccccsccccccscccccccscccccsscsssscccsscsccccssccccsccssssssccssscccssccssssssscscccccccccssssssssscsscsssccsscccccccscccccsscccsccscccsccscccccc" />
      <path
         style="fill:#000000;stroke-width:0.00597796"
         d="m 41.093363,191.74865 c -0.06471,-0.005 -0.139388,-0.0144 -0.165938,-0.0194 -0.08985,-0.0168 -0.162867,-0.033 -0.174989,-0.0385 -0.0067,-0.003 -0.02837,-0.01 -0.04827,-0.0153 -0.04097,-0.0109 -0.129659,-0.0412 -0.156887,-0.0535 -0.01,-0.005 -0.04254,-0.0188 -0.07241,-0.0319 -0.08011,-0.0349 -0.160614,-0.0779 -0.235993,-0.12614 -0.08158,-0.0522 -0.09451,-0.0612 -0.135183,-0.0927 -0.165937,-0.129 -0.322597,-0.29284 -0.413461,-0.43244 -0.0035,-0.005 -0.01868,-0.0282 -0.03391,-0.051 -0.01522,-0.0228 -0.03353,-0.0521 -0.0407,-0.0652 -0.04657,-0.0846 -0.05774,-0.10621 -0.07976,-0.15399 -0.0135,-0.0293 -0.02835,-0.0613 -0.03298,-0.071 -0.01159,-0.0245 -0.05285,-0.13318 -0.05831,-0.15859 -0.0024,-0.0114 -0.0076,-0.0281 -0.01064,-0.0383 -0.0039,-0.0126 -0.0079,-0.0264 -0.01185,-0.0458 -0.0039,-0.0195 -0.01229,-0.0568 -0.01855,-0.0829 -0.01274,-0.0531 -0.02026,-0.1125 -0.03314,-0.26207 -0.0077,-0.0895 -0.0077,-0.11483 0,-0.20432 0.01611,-0.18707 0.01928,-0.20771 0.054,-0.3509 0.01496,-0.0617 0.05916,-0.19404 0.07911,-0.23688 0.0045,-0.01 0.01924,-0.0417 0.03264,-0.071 0.02178,-0.0477 0.04042,-0.0837 0.07829,-0.15154 0.03458,-0.0619 0.08534,-0.13613 0.13783,-0.20153 0.02074,-0.0258 0.03772,-0.0479 0.03772,-0.049 0,-0.01 0.19088,-0.20101 0.244381,-0.24503 0.0285,-0.0235 0.109601,-0.0851 0.146117,-0.11097 0.02275,-0.0162 0.113387,-0.0721 0.139978,-0.0864 0.08586,-0.0462 0.10897,-0.0573 0.220771,-0.10617 0.029,-0.0127 0.111076,-0.0407 0.156887,-0.0536 0.02324,-0.006 0.04648,-0.0142 0.05165,-0.017 0.0051,-0.003 0.02554,-0.008 0.04526,-0.0121 0.01971,-0.005 0.05757,-0.0121 0.08411,-0.0182 0.05761,-0.0132 0.113969,-0.0202 0.260519,-0.0321 0.09769,-0.008 0.121413,-0.008 0.217229,-4e-5 0.142893,0.0119 0.208679,0.0196 0.25238,0.0298 0.01991,0.005 0.05929,0.0137 0.0875,0.02 0.07455,0.0168 0.215555,0.0613 0.262483,0.0827 0.01327,0.006 0.03092,0.013 0.03922,0.0154 0.0083,0.002 0.01916,0.007 0.02414,0.0117 0.005,0.005 0.01991,0.0116 0.03318,0.0168 0.01327,0.005 0.04178,0.0189 0.06335,0.0304 0.02157,0.0115 0.05008,0.0267 0.06335,0.0337 0.01327,0.007 0.04314,0.025 0.06638,0.0399 0.02324,0.015 0.0466,0.0299 0.05194,0.0333 0.04773,0.0301 0.104814,0.0725 0.165292,0.12274 0.03833,0.0319 0.205849,0.19662 0.227683,0.22399 0.0091,0.0113 0.03049,0.038 0.04759,0.0591 0.01711,0.0211 0.0382,0.0488 0.04687,0.0615 0.04207,0.0617 0.08104,0.12176 0.09461,0.14583 0.04299,0.0763 0.05966,0.10835 0.08162,0.15695 0.01324,0.0293 0.02781,0.0613 0.03236,0.0711 0.01615,0.0346 0.04547,0.11651 0.05469,0.15275 0.0051,0.0202 0.01198,0.0421 0.01519,0.0486 0.0032,0.006 0.01139,0.0372 0.01819,0.0681 0.0067,0.0309 0.01487,0.0676 0.01795,0.0816 0.008,0.0365 0.01639,0.10721 0.02728,0.23077 0.0087,0.0984 0.0087,0.11776 0,0.21617 -0.01087,0.12355 -0.01923,0.1943 -0.02728,0.23077 -0.02304,0.10451 -0.03101,0.13702 -0.04252,0.17342 -0.0223,0.0706 -0.0493,0.14697 -0.06068,0.17175 -0.006,0.0131 -0.02163,0.0477 -0.03477,0.077 -0.01314,0.0293 -0.03362,0.0707 -0.04552,0.0918 -0.0119,0.0212 -0.02837,0.0505 -0.03658,0.0651 -0.01349,0.0241 -0.04819,0.0776 -0.09637,0.14868 -0.02053,0.0303 -0.07691,0.0997 -0.123448,0.15206 -0.04643,0.0522 -0.159813,0.16068 -0.211827,0.20267 -0.01413,0.0114 -0.03016,0.0247 -0.03562,0.0296 -0.0055,0.005 -0.01669,0.0133 -0.02493,0.0189 -0.0083,0.005 -0.02857,0.0195 -0.04516,0.0312 -0.04834,0.0339 -0.09308,0.0626 -0.144819,0.0927 -0.0547,0.0319 -0.197433,0.10237 -0.220245,0.10876 -0.0083,0.002 -0.02052,0.007 -0.02715,0.0114 -0.0067,0.005 -0.04058,0.0167 -0.07542,0.0284 -0.122383,0.041 -0.138999,0.0455 -0.282296,0.0759 -0.05712,0.0121 -0.316484,0.0368 -0.360337,0.0343 -0.01327,-7e-4 -0.07709,-0.006 -0.141802,-0.0117 z"
         id="path6247"
         sodipodi:nodetypes="sssssssssssssssssssssssssssssssssscsssssssssssssssssssssssssssssssssssssssssss" />
    </g>
  </g>
</svg>
