<svg width="115" height="101" viewBox="0 0 115 101" fill="none" xmlns="http://www.w3.org/2000/svg">
<path d="M8.42999 91.6101L4.24998 84.6401H0.0499878V99.9701H3.57999V89.8201L7.62998 96.4901H9.09998L13.11 89.8201V99.9701H16.64V84.6401H12.57L8.42999 91.6101Z" fill="#1745B8"/>
<path d="M32.87 86.58C32.2 85.9 31.39 85.37 30.45 85C29.51 84.63 28.45 84.45 27.28 84.45C26.11 84.45 25.05 84.6399 24.1 85.0099C23.15 85.3899 22.34 85.92 21.67 86.61C21 87.3 20.48 88.13 20.11 89.09C19.74 90.05 19.56 91.13 19.56 92.28C19.56 93.43 19.74 94.49 20.09 95.45C20.44 96.41 20.95 97.2399 21.62 97.9299C22.28 98.6299 23.09 99.1599 24.03 99.5399C24.98 99.9199 26.05 100.11 27.25 100.11C28.43 100.12 29.5 99.94 30.45 99.55C31.4 99.16 32.21 98.61 32.88 97.91C33.55 97.21 34.07 96.3599 34.43 95.3999C34.79 94.4299 34.97 93.39 34.97 92.22C34.97 91.05 34.79 89.9899 34.43 89.0399C34.06 88.0799 33.54 87.26 32.87 86.58ZM31.1 93.97C30.94 94.52 30.7 95.01 30.36 95.44C30.03 95.87 29.61 96.2199 29.11 96.4799C28.6 96.7399 28 96.8699 27.31 96.8699C26.59 96.8599 25.97 96.72 25.45 96.46C24.93 96.2 24.5 95.8599 24.16 95.4299C23.82 95.0099 23.57 94.52 23.4 93.97C23.23 93.42 23.15 92.8499 23.15 92.2599H23.14C23.14 91.6799 23.22 91.12 23.39 90.57C23.56 90.02 23.8 89.54 24.14 89.11C24.47 88.69 24.9 88.34 25.42 88.08C25.94 87.82 26.54 87.69 27.26 87.69C27.98 87.69 28.6 87.83 29.11 88.1C29.62 88.37 30.05 88.73 30.38 89.16C30.71 89.59 30.95 90.08 31.11 90.63C31.26 91.18 31.34 91.74 31.34 92.3C31.34 92.86 31.26 93.42 31.1 93.97Z" fill="#1745B8"/>
<path d="M41.39 84.6401H37.86V99.9701H48.82V96.7901H41.39V84.6401Z" fill="#1745B8"/>
<path d="M63.35 86.5901C62.68 85.9401 61.8599 85.4501 60.8999 85.1301C59.9399 84.8001 58.86 84.6401 57.66 84.6401H51.83V99.9701H57.74C60.22 99.9701 62.13 99.3301 63.45 98.0301C64.77 96.7401 65.4299 94.8301 65.4299 92.3001C65.4299 91.0501 65.25 89.9401 64.89 88.9901C64.54 88.0401 64.02 87.2401 63.35 86.5901ZM61.63 94.1701C61.48 94.7201 61.25 95.1901 60.92 95.5801C60.6 95.9701 60.18 96.2701 59.67 96.4801C59.16 96.6901 58.53 96.8001 57.8 96.8001H55.38V87.8801H57.63C59.07 87.8801 60.14 88.2601 60.82 89.0101C61.51 89.7601 61.85 90.8701 61.85 92.3401C61.84 93.0001 61.77 93.6201 61.63 94.1701Z" fill="#1745B8"/>
<path d="M81.43 86.58C80.76 85.9 79.95 85.37 79.01 85C78.06 84.63 77.01 84.45 75.84 84.45H75.85C74.68 84.45 73.62 84.6399 72.67 85.0099C71.72 85.3899 70.91 85.92 70.23 86.61C69.56 87.3 69.04 88.13 68.67 89.09C68.3 90.05 68.12 91.13 68.12 92.28C68.12 93.43 68.3 94.49 68.65 95.45C69 96.41 69.51 97.2399 70.18 97.9299C70.84 98.6299 71.65 99.1599 72.59 99.5399C73.53 99.9199 74.61 100.11 75.81 100.11C76.99 100.12 78.07 99.94 79.01 99.55C79.96 99.16 80.77 98.61 81.45 97.91C82.13 97.21 82.64 96.3599 83 95.3999C83.36 94.4299 83.54 93.39 83.54 92.22C83.54 91.05 83.36 89.9899 83 89.0399C82.62 88.0799 82.1 87.26 81.43 86.58ZM79.66 93.97C79.5 94.52 79.26 95.01 78.92 95.44C78.59 95.87 78.17 96.2199 77.67 96.4799C77.16 96.7399 76.56 96.8699 75.87 96.8699C75.15 96.8599 74.53 96.72 74.01 96.46C73.49 96.2 73.06 95.8599 72.72 95.4299C72.38 95.0099 72.13 94.52 71.96 93.97C71.79 93.42 71.71 92.8499 71.71 92.2599H71.7C71.7 91.6799 71.78 91.12 71.95 90.57C72.12 90.02 72.36 89.54 72.7 89.11C73.03 88.69 73.46 88.34 73.98 88.08C74.5 87.82 75.1 87.69 75.82 87.69C76.54 87.69 77.16 87.83 77.67 88.1C78.18 88.37 78.61 88.73 78.94 89.16C79.27 89.59 79.51 90.08 79.67 90.63C79.82 91.18 79.9 91.74 79.9 92.3C79.9 92.86 79.82 93.42 79.66 93.97Z" fill="#1745B8"/>
<path d="M96.2 84.6401L92.37 95.5501L88.43 84.6401H84.55L90.51 99.9701H94.06L100.03 84.6401H96.2Z" fill="#1745B8"/>
<path d="M108.46 84.6401H104.69L98.65 99.9701H102.46L103.39 97.4401H109.67L110.58 99.9701H114.41L108.46 84.6401ZM104.48 94.2801L106.56 88.5001L108.59 94.2801H104.48Z" fill="#1745B8"/>
<path d="M81.48 69.9001V15.8501H66.04L40.78 41.1201L15.49 15.8701L0.0499878 15.8501V69.9001H15.49V37.6701L40.78 62.9601V62.9501V62.9601L66.04 37.6901V69.9001H81.48Z" fill="#1745B8"/>
<path d="M96.93 69.9H112.37V0.410034H96.93L81.48 15.85H96.93V69.9Z" fill="#1745B8"/>
</svg>
