<?xml version="1.0" encoding="utf-8"?>
<!-- Generator: Adobe Illustrator 21.0.2, SVG Export Plug-In . SVG Version: 6.00 Build 0)  -->
<svg version="1.1" id="Layer_1" xmlns="http://www.w3.org/2000/svg" xmlns:xlink="http://www.w3.org/1999/xlink" x="0px" y="0px"
	 viewBox="0 0 331.3 215.2" style="enable-background:new 0 0 331.3 215.2;" xml:space="preserve">
<style type="text/css">
	.st0{fill:#FFFFFF;}
	.st1{fill:#363636;}
</style>
<g id="Layer_1">
	<g>
		<g id="image_7_">
			<path class="st0" d="M199.2,136.9c0,0-10.7-11.7-28.6-16.6s-27.4-3.4-32-3.2c-4.6,0.2-16.3,2.5-18.7,5.6
				c-2.4,3.2,2.3,28.1,3.4,30.9c0.3,0.7-9.2-17.3-6.1-27.6c0,0-9.1,2.9-8.9,3.5l8,28.9l-7.6,3.2l20.1-1.1c0,0-2.5-7.1-2.9-14.4
				c-0.5-7.2,2.9-8.6,2.9-8.6s4.2-2.5,10.7-2c6.5,0.5,9.8,4.9,10.1,5.4c0,0,15.8,20.9,16.2,21.5c0.4,0.6,9.3,1.1,9.7,0
				c0,0-5.6-9.8-7.1-14.1c-1.5-4.3-2.5-6.8-2.2-10.2c0.3-3.4,6.5-1.4,9.3,1.1c2.7,2.5,20.4,22.2,20.4,22.2h8.9l-18.8-25.6
				L199.2,136.9z M155.7,125.3c-4.9-0.6-10.1-0.4-10.1-0.4s6-4.1,16.5-2.2c5.1,0.9,8.1,4.4,8.1,7C170.2,129.8,161.7,126,155.7,125.3
				z"/>
			<path class="st0" d="M130.4,110.1c0,0-1.6-3.3-4.5-3.3c-4.5,0-9.7,6.6-9.7,6.6S121.3,109.9,130.4,110.1z"/>
			<path class="st0" d="M123.6,113.1c-4.1,0-9.7,6.7-9.7,6.7s4.1-2.8,14.4-3.3C128.2,116.4,126.4,113.1,123.6,113.1z"/>
			<path class="st0" d="M140,101.1c-4.4,0.9-5.1,2.8-6,3.4c-0.9,0.6-0.7,1.5-0.7,1.5s0.1,0.2,0.3,0.2c0.2,0-0.3-0.9,0.4-1.1
				c0.7-0.3,0.9,0,2.5,0.2c1.6,0.2,7.8,2.5,9,2.7s9.5,3.3,19.2,6c9.6,2.7,17.8,3.4,17.8,3.4l-3.8-2.8c10.7,0.7,15.2-3.7,14.1-3.2
				c-3.2,1.3-14.9,0.6-17,0.4s-2.6-0.6-2.6-0.6c-0.2-0.2-5.8-3.2-9.4-4.8c-3.2-1.4-8.8-3.5-11.3-4.1
				C151.2,101.9,144.5,100.2,140,101.1z"/>
			<path class="st0" d="M120.3,105c0.2,0.2,0.7,0.1,0.4-0.4c-0.6-1-4.8-12.9-4.1-20.7c0.7-7.8,3.5-11.2,3.6-11.4
				c0.3-0.4,0.1-0.5-0.1-0.4c-0.1,0.1-4.3,3-6,7.7s-0.9,11,0.2,14.5C116.1,99.7,119.8,104.4,120.3,105z"/>
			<path class="st0" d="M127.7,91.1c-2.6-5.4-3.4-6.8-4.2-9.1c-0.8-2.4-0.1-4.3,0.1-5.6s0.8-2.3,0.8-2.3s0.1-0.3-0.2-0.2
				c-0.3,0.1-6.1,5.4-5.6,12.2c0.6,8,5.6,13.4,8.2,15.6c2.6,2.2,4.5,3.5,4.5,3.5S130.3,96.5,127.7,91.1z"/>
			<path class="st0" d="M133.7,78c-1.1,2.4-2.1,2.8-3,3.3c-1,0.7-4.1,0.5-4.1,0.5s1.4,3,4.8,2.1C134.8,83.1,134.1,77.2,133.7,78z"/>
			<path class="st0" d="M214.2,88.3c-0.9,0-2.1,0-2.7-0.1c-1.6-0.2-6.7-0.8-8.6-4.8c0,0,1.1-1,0.9-0.9c-0.4,0.2-1.2,0.3-1.2,0.3
				l-0.3-0.7c-0.1-0.2-0.3-0.2-0.3,0l0,0.8c0,0-11,2.4-36.3,1c-18.8-1.1-18.8-2.1-18.6-1.6c0.2,0.5,2.1,0.7,1.2,0.6
				c-0.9-0.1-2.7,1.1-2.7,1.1c0.2-0.6-0.3-4-0.8-3.1c-0.5,0.9-1.5,2.4-2.8,3.2s-4.2,0.5-4.2,0.5s0.7,1.4,3.2,1.8
				c1.7,0.2,2.4-0.1,2.4-0.1s-2.1,2.6-1.4,6.4c0.5,3.2,3.2,5.3,5.8,6.4c0,0-0.6-5.9-0.5-9.2c0.1-3.3,1.9-6.1,2.2-6.4
				c0,0,8.3,2.9,17.5,3.4s28.5,1,35.2-3.1c0,0,0.5,2.6,3,4.2c3,1.8,8.2,0.9,9.5,0.6C214.8,88.5,214.7,88.3,214.2,88.3z"/>
			<path class="st0" d="M193.1,78.3c0,0,7.7,1.4,11.8,4.2s5.1,3.8,5.1,3.8s0.9-0.9,0.9-3.1c0.1-4-4.3-5-8.1-5.2s-9.7,0.2-9.7,0.2
				C193.1,78,192.9,78.2,193.1,78.3z"/>
			<path class="st0" d="M160.3,81.4c0,0,6-1.4,21.8-1.3c4.6,0,11.3,0.9,14,2.5c0.3,0.1,0.4,0,0.3-0.2c-0.1-0.2-5.3-4.9-14.4-5.1
				c-8.4-0.2-13,0.7-18.2,2.4c-3.5,1.2-3.6,1.3-3.6,1.3C160,81.2,160.1,81.5,160.3,81.4z"/>
			<path class="st0" d="M157.3,95.5c5.2,0.6,18.8-0.2,25.1-1.9c4.5-1.2,8.8-3.1,10.8-5.4c0.7-0.9,0.2-0.8,0.1-0.6c0,0-1,0.9-5.5,1.2
				c-4.8,0.3-27.4-1-32.3-0.4c-1.8,0.2-3.3,0.4-5.1,1.1c-2.3,0.9-2.6,3.7-0.3,4.7C151.4,94.8,155.2,95.3,157.3,95.5z"/>
			<path class="st0" d="M152.4,66.4c-2.3,0.2-2.4,1.2-5.6,1.6c-3.2,0.4-6-1.4-6-1.4s-0.1-0.4-0.1-0.6c-0.1-0.4-0.4-0.5-0.5-0.1
				c0,0.5,0,0.6,0,0.6s-0.2-0.2-0.4-0.4c-0.2-0.2-0.3,0-0.2,0.1l0.6,0.9c-0.7,6.2-2.6,8.4-2.9,8.8c-0.6,0.7-0.4,1.4,0,1.3
				c1.4-0.1,2.3-1.9,2.3-1.9c3.8-0.6,7.5-0.2,9.7,0.2c2.8,0.6,5.8,2,5.8,2c0.3,0.2,0.5,0.1,0-0.3c-4.5-3.6-9.9-3.9-9.9-3.9
				c-2.8-0.1-5.3,1.4-5.3,1.4c1.6-3.5,1.1-6.4,1.1-6.4c0.1,0.1,2.7,2.7,4.8,3.2c4.9,1.3,7.8,0,8.8-0.3c1-0.3,3.1-1.4,3.9-1.9
				c0.8-0.4,0.8-0.4-0.4-1.1C156.9,67.5,155,66.1,152.4,66.4z"/>
			<path class="st0" d="M129,62.5c0,0.2-3.4-4.6-5.4-5c0,0,2.7,3.6,3.3,6.8c0.6,3.2,0.5,3.1,0.5,3.1l3.9,3.2l0.8,0.1
				c0,0-1.5-6.3,0-10.3c1.5-3.8,1.1-4.5,1.1-4.7c0-0.2,2.7-0.6,4.6,0.2c1.6,0.7,3.5,1.9,5.1,3c1.5,1.1,4.8,3.1,7.4,3.6
				c2.4,0.5,4.7,0.4,4.7,0.4s-0.7-1.2-3.2-2.9c-2.5-1.7-6.4-3.7-6.8-3.8c-0.4,0,2.4,0,5.4,1.3c3.4,1.4,5,3.5,5,3.5s0.3-1.1-0.8-2.7
				c-1.1-1.6-3.9-2.5-5.6-2.7c-1.4-0.1-4.9,0-5.2,0c-0.2,0-5.9-2.4-9.5-1.3c-0.9,0.3-1.2,1-1.2,1s-1.7,0.5-2.9,2.8
				C129.1,60.4,129,62.3,129,62.5z"/>
			<path class="st0" d="M113.6,71.9c-0.8,0.2-2.6,0-2.1,0.5c0.5,0.5,2.3,0.9,3.6,0.6c4.7-1.1,4.6-6.4,4.6-6.4c0.1,0.1,2.6,3,3.9,3.5
				c0.3,0.1,0.4-0.1,0.1-0.4c-0.3-0.3-1.8-2.2-3.6-6.4c-1.4-3.3-3.4-10.3-4.4-16.2c-1-5.8-1.3-10-1.2-11.2c0.1-1.3-0.2-0.8-0.6-0.1
				c-0.1,0.3-3.9,7.7,0.1,20.1c0,0-4,2.5-3.5,11.3c0,0.4,0.7,0.5,0.8,0c0.2-0.9,0.8-8.8,3.4-9.3c0,0,1.9,4.6,3.2,6.2
				c0,0-0.3,3.4-1.3,4.9C115.5,70.6,114.9,71.5,113.6,71.9z"/>
			<path class="st0" d="M121.3,56.5c0,0,1-6.3-0.5-12c-1.4-5-3.5-8-3.5-8l-0.7,0.4c0,0,2.7,4.2,3.6,9.2c1,5.5,0.1,10.4,0.1,10.4
				H121.3z"/>
			<path class="st0" d="M106.9,11.8c4.2,1.8,9.9,4.8,13,6.8s5.3,4.9,5.6,6.5c0.4,1.9-0.8,4.5-5.4,4.7c-4.5,0.2-6.4-0.8-6.4-0.8
				l1.6,4.4h0.6l-1.3-3.6c1.8,0.7,4.5,1.8,8.1,1.9c3,0,6-1,7.2-2.9c1.1-1.8,1-4.2-0.1-5.8c-1.5-2.1-3.8-4.1-8.2-6.4
				c-4.4-2.3-14-5.1-14-5.1C106.4,11.2,106,11.4,106.9,11.8z"/>
			<polygon class="st0" points="112,22.9 108.1,18.6 107.8,21.8 104,23.4 104,24 107.9,22.4 112.9,27.8 			"/>
		</g>
		<g id="Mosfilm_7_">
			<path class="st0" d="M2.7,199.7"/>
			<path class="st0" d="M2.7,199.7"/>
			<polygon class="st0" points="2.7,200.5 29.9,142.8 41.4,166.8 52.1,142.8 80.1,199.5 61.9,199.5 51.8,181.5 41.4,198.8 
				30.1,181.5 21.2,200.5 			"/>
			<path class="st0" d="M93.1,169.1c-8.5,0-14.8,6.9-14.8,15.5c0,8.5,6.2,15.5,14.8,15.5c8.5,0,14.6-6.9,14.6-15.5
				C107.7,176,101.6,169.1,93.1,169.1z M93.1,189.2c-2.6,0-4.7-2.1-4.7-4.7c0-2.6,2.1-4.7,4.7-4.7c2.6,0,4.7,2.1,4.7,4.7
				C97.8,187.1,95.7,189.2,93.1,189.2z"/>
			<g>
				<path class="st0" d="M129,185.2c0,0,0.1,2.9-0.7,3.6c-1,0.9-2.3,1.4-3.7,1.4c-3.1,0-5.6-2.5-5.6-5.6c0-3.1,2.5-5.6,5.6-5.6
					c2,0,3.8,1.1,4.8,2.7l8.5-3.7c-2.2-5.2-7.1-8.8-13.3-8.8c-8.5,0-14.8,6.9-14.8,15.5c0,8.5,6.2,15.5,14.8,15.5
					c5.7,0,10.2-3,12.7-7.6c-1.2-1-8.2-7.3-8.2-7.3L129,185.2z"/>
			</g>
			<g>
				<path class="st0" d="M162.3,170.1c-0.1,0-0.2,0-0.3,0v-2.6h-11v2.6c-0.1,0-0.1,0-0.2,0c-8.3,0-13.1,4.7-13.1,12.5
					c0,7,3.6,12.7,12.4,12.7c0.3,0,0.6,0,0.9,0v4.3h11v-4.3c0.3,0,0.6,0,1,0c8.8,0,12.4-5.7,12.4-12.7
					C175.3,174.8,170.5,170.1,162.3,170.1z M151,187.3v0.2c-0.2,0-0.4,0.1-0.6,0.1c-2.4,0-4.3-1.9-4.3-4.3c0-2.4,1.9-4.3,4.3-4.3
					c0.1,0,0.2,0,0.2,0c0.1,0,0.3,0,0.4,0.1V187.3z M162.7,187.5c-0.2,0-0.5,0-0.7-0.1c0,0,0,0,0,0v-8.4c0.2,0,0.3-0.1,0.5-0.1
					c0.1,0,0.2,0,0.2,0c2.4,0,4.3,1.9,4.3,4.3C167,185.6,165.1,187.5,162.7,187.5z"/>
			</g>
			<polygon class="st0" points="177,168.5 188,168.5 188,178.5 195.9,168.5 205,168.5 205,199.5 195,199.5 195,189.5 185.8,199.5 
				177,199.5 			"/>
			<polygon class="st0" points="207.3,199.5 219,199.5 223.9,189.4 229,199.5 240.5,199.5 223.9,165.8 			"/>
			<g>
				<path class="st0" d="M269.7,188c-0.6-10.5-9.6-10.5-9.6-10.5H251v-9h-9v31h17.7C259.8,199.5,270.4,199.3,269.7,188z
					 M257.1,191.5H252v-6h5.1c2,0,3.5,1.9,2.8,4C259.5,190.7,258.4,191.5,257.1,191.5z"/>
			</g>
			<polygon class="st0" points="268.8,199.5 289.2,156.6 298.1,174.8 306.1,156.6 327.5,199.5 313.2,199.5 306,186.5 298.1,199.2 
				289.5,186.4 283,199.5 			"/>
		</g>
	</g>
	<g>
		<g id="image_6_">
			<path class="st1" d="M199.2,136.9c0,0-10.7-11.7-28.6-16.6s-27.4-3.4-32-3.2c-4.6,0.2-16.3,2.5-18.7,5.6
				c-2.4,3.2,2.3,28.1,3.4,30.9c0.3,0.7-9.2-17.3-6.1-27.6c0,0-9.1,2.9-8.9,3.5l8,28.9l-7.6,3.2l20.1-1.1c0,0-2.5-7.1-2.9-14.4
				c-0.5-7.2,2.9-8.6,2.9-8.6s4.2-2.5,10.7-2c6.5,0.5,9.8,4.9,10.1,5.4c0,0,15.8,20.9,16.2,21.5c0.4,0.6,9.3,1.1,9.7,0
				c0,0-5.6-9.8-7.1-14.1c-1.5-4.3-2.5-6.8-2.2-10.2c0.3-3.4,6.5-1.4,9.3,1.1c2.7,2.5,20.4,22.2,20.4,22.2h8.9l-18.8-25.6
				L199.2,136.9z M155.7,125.3c-4.9-0.6-10.1-0.4-10.1-0.4s6-4.1,16.5-2.2c5.1,0.9,8.1,4.4,8.1,7C170.2,129.8,161.7,126,155.7,125.3
				z"/>
			<path class="st1" d="M130.4,110.1c0,0-1.6-3.3-4.5-3.3c-4.5,0-9.7,6.6-9.7,6.6S121.3,109.9,130.4,110.1z"/>
			<path class="st1" d="M123.6,113.1c-4.1,0-9.7,6.7-9.7,6.7s4.1-2.8,14.4-3.3C128.2,116.4,126.4,113.1,123.6,113.1z"/>
			<path class="st1" d="M140,101.1c-4.4,0.9-5.1,2.8-6,3.4c-0.9,0.6-0.7,1.5-0.7,1.5s0.1,0.2,0.3,0.2c0.2,0-0.3-0.9,0.4-1.1
				c0.7-0.3,0.9,0,2.5,0.2c1.6,0.2,7.8,2.5,9,2.7s9.5,3.3,19.2,6c9.6,2.7,17.8,3.4,17.8,3.4l-3.8-2.8c10.7,0.7,15.2-3.7,14.1-3.2
				c-3.2,1.3-14.9,0.6-17,0.4s-2.6-0.6-2.6-0.6c-0.2-0.2-5.8-3.2-9.4-4.8c-3.2-1.4-8.8-3.5-11.3-4.1
				C151.2,101.9,144.5,100.2,140,101.1z"/>
			<path class="st1" d="M120.3,105c0.2,0.2,0.7,0.1,0.4-0.4c-0.6-1-4.8-12.9-4.1-20.7c0.7-7.8,3.5-11.2,3.6-11.4
				c0.3-0.4,0.1-0.5-0.1-0.4c-0.1,0.1-4.3,3-6,7.7s-0.9,11,0.2,14.5C116.1,99.7,119.8,104.4,120.3,105z"/>
			<path class="st1" d="M127.7,91.1c-2.6-5.4-3.4-6.8-4.2-9.1c-0.8-2.4-0.1-4.3,0.1-5.6s0.8-2.3,0.8-2.3s0.1-0.3-0.2-0.2
				c-0.3,0.1-6.1,5.4-5.6,12.2c0.6,8,5.6,13.4,8.2,15.6c2.6,2.2,4.5,3.5,4.5,3.5S130.3,96.5,127.7,91.1z"/>
			<path class="st1" d="M133.7,78c-1.1,2.4-2.1,2.8-3,3.3c-1,0.7-4.1,0.5-4.1,0.5s1.4,3,4.8,2.1C134.8,83.1,134.1,77.2,133.7,78z"/>
			<path class="st1" d="M214.2,88.3c-0.9,0-2.1,0-2.7-0.1c-1.6-0.2-6.7-0.8-8.6-4.8c0,0,1.1-1,0.9-0.9c-0.4,0.2-1.2,0.3-1.2,0.3
				l-0.3-0.7c-0.1-0.2-0.3-0.2-0.3,0l0,0.8c0,0-11,2.4-36.3,1c-18.8-1.1-18.8-2.1-18.6-1.6c0.2,0.5,2.1,0.7,1.2,0.6
				c-0.9-0.1-2.7,1.1-2.7,1.1c0.2-0.6-0.3-4-0.8-3.1c-0.5,0.9-1.5,2.4-2.8,3.2s-4.2,0.5-4.2,0.5s0.7,1.4,3.2,1.8
				c1.7,0.2,2.4-0.1,2.4-0.1s-2.1,2.6-1.4,6.4c0.5,3.2,3.2,5.3,5.8,6.4c0,0-0.6-5.9-0.5-9.2c0.1-3.3,1.9-6.1,2.2-6.4
				c0,0,8.3,2.9,17.5,3.4s28.5,1,35.2-3.1c0,0,0.5,2.6,3,4.2c3,1.8,8.2,0.9,9.5,0.6C214.8,88.5,214.7,88.3,214.2,88.3z"/>
			<path class="st1" d="M193.1,78.3c0,0,7.7,1.4,11.8,4.2s5.1,3.8,5.1,3.8s0.9-0.9,0.9-3.1c0.1-4-4.3-5-8.1-5.2s-9.7,0.2-9.7,0.2
				C193.1,78,192.9,78.2,193.1,78.3z"/>
			<path class="st1" d="M160.3,81.4c0,0,6-1.4,21.8-1.3c4.6,0,11.3,0.9,14,2.5c0.3,0.1,0.4,0,0.3-0.2c-0.1-0.2-5.3-4.9-14.4-5.1
				c-8.4-0.2-13,0.7-18.2,2.4c-3.5,1.2-3.6,1.3-3.6,1.3C160,81.2,160.1,81.5,160.3,81.4z"/>
			<path class="st1" d="M157.3,95.5c5.2,0.6,18.8-0.2,25.1-1.9c4.5-1.2,8.8-3.1,10.8-5.4c0.7-0.9,0.2-0.8,0.1-0.6c0,0-1,0.9-5.5,1.2
				c-4.8,0.3-27.4-1-32.3-0.4c-1.8,0.2-3.3,0.4-5.1,1.1c-2.3,0.9-2.6,3.7-0.3,4.7C151.4,94.8,155.2,95.3,157.3,95.5z"/>
			<path class="st1" d="M152.4,66.4c-2.3,0.2-2.4,1.2-5.6,1.6c-3.2,0.4-6-1.4-6-1.4s-0.1-0.4-0.1-0.6c-0.1-0.4-0.4-0.5-0.5-0.1
				c0,0.5,0,0.6,0,0.6s-0.2-0.2-0.4-0.4c-0.2-0.2-0.3,0-0.2,0.1l0.6,0.9c-0.7,6.2-2.6,8.4-2.9,8.8c-0.6,0.7-0.4,1.4,0,1.3
				c1.4-0.1,2.3-1.9,2.3-1.9c3.8-0.6,7.5-0.2,9.7,0.2c2.8,0.6,5.8,2,5.8,2c0.3,0.2,0.5,0.1,0-0.3c-4.5-3.6-9.9-3.9-9.9-3.9
				c-2.8-0.1-5.3,1.4-5.3,1.4c1.6-3.5,1.1-6.4,1.1-6.4c0.1,0.1,2.7,2.7,4.8,3.2c4.9,1.3,7.8,0,8.8-0.3c1-0.3,3.1-1.4,3.9-1.9
				c0.8-0.4,0.8-0.4-0.4-1.1C156.9,67.5,155,66.1,152.4,66.4z"/>
			<path class="st1" d="M129,62.5c0,0.2-3.4-4.6-5.4-5c0,0,2.7,3.6,3.3,6.8c0.6,3.2,0.5,3.1,0.5,3.1l3.9,3.2l0.8,0.1
				c0,0-1.5-6.3,0-10.3c1.5-3.8,1.1-4.5,1.1-4.7c0-0.2,2.7-0.6,4.6,0.2c1.6,0.7,3.5,1.9,5.1,3c1.5,1.1,4.8,3.1,7.4,3.6
				c2.4,0.5,4.7,0.4,4.7,0.4s-0.7-1.2-3.2-2.9c-2.5-1.7-6.4-3.7-6.8-3.8c-0.4,0,2.4,0,5.4,1.3c3.4,1.4,5,3.5,5,3.5s0.3-1.1-0.8-2.7
				c-1.1-1.6-3.9-2.5-5.6-2.7c-1.4-0.1-4.9,0-5.2,0c-0.2,0-5.9-2.4-9.5-1.3c-0.9,0.3-1.2,1-1.2,1s-1.7,0.5-2.9,2.8
				C129.1,60.4,129,62.3,129,62.5z"/>
			<path class="st1" d="M113.6,71.9c-0.8,0.2-2.6,0-2.1,0.5c0.5,0.5,2.3,0.9,3.6,0.6c4.7-1.1,4.6-6.4,4.6-6.4c0.1,0.1,2.6,3,3.9,3.5
				c0.3,0.1,0.4-0.1,0.1-0.4c-0.3-0.3-1.8-2.2-3.6-6.4c-1.4-3.3-3.4-10.3-4.4-16.2c-1-5.8-1.3-10-1.2-11.2c0.1-1.3-0.2-0.8-0.6-0.1
				c-0.1,0.3-3.9,7.7,0.1,20.1c0,0-4,2.5-3.5,11.3c0,0.4,0.7,0.5,0.8,0c0.2-0.9,0.8-8.8,3.4-9.3c0,0,1.9,4.6,3.2,6.2
				c0,0-0.3,3.4-1.3,4.9C115.5,70.6,114.9,71.5,113.6,71.9z"/>
			<path class="st1" d="M121.3,56.5c0,0,1-6.3-0.5-12c-1.4-5-3.5-8-3.5-8l-0.7,0.4c0,0,2.7,4.2,3.6,9.2c1,5.5,0.1,10.4,0.1,10.4
				H121.3z"/>
			<path class="st1" d="M106.9,11.8c4.2,1.8,9.9,4.8,13,6.8s5.3,4.9,5.6,6.5c0.4,1.9-0.8,4.5-5.4,4.7c-4.5,0.2-6.4-0.8-6.4-0.8
				l1.6,4.4h0.6l-1.3-3.6c1.8,0.7,4.5,1.8,8.1,1.9c3,0,6-1,7.2-2.9c1.1-1.8,1-4.2-0.1-5.8c-1.5-2.1-3.8-4.1-8.2-6.4
				c-4.4-2.3-14-5.1-14-5.1C106.4,11.2,106,11.4,106.9,11.8z"/>
			<polygon class="st1" points="112,22.9 108.1,18.6 107.8,21.8 104,23.4 104,24 107.9,22.4 112.9,27.8 			"/>
		</g>
		<g id="Mosfilm_6_">
			<path class="st1" d="M2.7,199.7"/>
			<path class="st1" d="M2.7,199.7"/>
			<polygon class="st1" points="2.7,200.5 29.9,142.8 41.4,166.8 52.1,142.8 80.1,199.5 61.9,199.5 51.8,181.5 41.4,198.8 
				30.1,181.5 21.2,200.5 			"/>
			<path class="st1" d="M93.1,169.1c-8.5,0-14.8,6.9-14.8,15.5c0,8.5,6.2,15.5,14.8,15.5c8.5,0,14.6-6.9,14.6-15.5
				C107.7,176,101.6,169.1,93.1,169.1z M93.1,189.2c-2.6,0-4.7-2.1-4.7-4.7c0-2.6,2.1-4.7,4.7-4.7c2.6,0,4.7,2.1,4.7,4.7
				C97.8,187.1,95.7,189.2,93.1,189.2z"/>
			<g>
				<path class="st1" d="M129,185.2c0,0,0.1,2.9-0.7,3.6c-1,0.9-2.3,1.4-3.7,1.4c-3.1,0-5.6-2.5-5.6-5.6c0-3.1,2.5-5.6,5.6-5.6
					c2,0,3.8,1.1,4.8,2.7l8.5-3.7c-2.2-5.2-7.1-8.8-13.3-8.8c-8.5,0-14.8,6.9-14.8,15.5c0,8.5,6.2,15.5,14.8,15.5
					c5.7,0,10.2-3,12.7-7.6c-1.2-1-8.2-7.3-8.2-7.3L129,185.2z"/>
			</g>
			<g>
				<path class="st1" d="M162.3,170.1c-0.1,0-0.2,0-0.3,0v-2.6h-11v2.6c-0.1,0-0.1,0-0.2,0c-8.3,0-13.1,4.7-13.1,12.5
					c0,7,3.6,12.7,12.4,12.7c0.3,0,0.6,0,0.9,0v4.3h11v-4.3c0.3,0,0.6,0,1,0c8.8,0,12.4-5.7,12.4-12.7
					C175.3,174.8,170.5,170.1,162.3,170.1z M151,187.3v0.2c-0.2,0-0.4,0.1-0.6,0.1c-2.4,0-4.3-1.9-4.3-4.3c0-2.4,1.9-4.3,4.3-4.3
					c0.1,0,0.2,0,0.2,0c0.1,0,0.3,0,0.4,0.1V187.3z M162.7,187.5c-0.2,0-0.5,0-0.7-0.1c0,0,0,0,0,0v-8.4c0.2,0,0.3-0.1,0.5-0.1
					c0.1,0,0.2,0,0.2,0c2.4,0,4.3,1.9,4.3,4.3C167,185.6,165.1,187.5,162.7,187.5z"/>
			</g>
			<polygon class="st1" points="177,168.5 188,168.5 188,178.5 195.9,168.5 205,168.5 205,199.5 195,199.5 195,189.5 185.8,199.5 
				177,199.5 			"/>
			<polygon class="st1" points="207.3,199.5 219,199.5 223.9,189.4 229,199.5 240.5,199.5 223.9,165.8 			"/>
			<g>
				<path class="st1" d="M269.7,188c-0.6-10.5-9.6-10.5-9.6-10.5H251v-9h-9v31h17.7C259.8,199.5,270.4,199.3,269.7,188z
					 M257.1,191.5H252v-6h5.1c2,0,3.5,1.9,2.8,4C259.5,190.7,258.4,191.5,257.1,191.5z"/>
			</g>
			<polygon class="st1" points="268.8,199.5 289.2,156.6 298.1,174.8 306.1,156.6 327.5,199.5 313.2,199.5 306,186.5 298.1,199.2 
				289.5,186.4 283,199.5 			"/>
		</g>
	</g>
</g>
</svg>
