<?xml version="1.0" encoding="UTF-8"?>
<svg id="_Слой_1" data-name="Слой 1" xmlns="http://www.w3.org/2000/svg" width="500" height="228.47" viewBox="0 0 500 228.47">
  <defs>
    <style>
      .cls-1 {
        fill: #fff;
      }

      .cls-2 {
        fill: #5614f5;
      }
    </style>
  </defs>
  <g>
    <path class="cls-2" d="M282.76,102.7c-2.09,0-4.01-.43-5.78-1.3-1.76-.86-2.65-2.16-2.65-3.89V32.18c0-3.09,.88-5.27,2.65-6.53,1.76-1.26,3.69-1.89,5.78-1.89s3.73,.16,5.13,.49c1.4,.32,2.72,1.08,3.94,2.27,1.22,1.19,2.55,3.08,4,5.67l11.12,19.44,11.12-19.44c1.51-2.59,2.86-4.48,4.05-5.67,1.19-1.19,2.48-1.94,3.89-2.27,1.4-.32,3.11-.49,5.13-.49,2.16,0,4.1,.63,5.83,1.89,1.73,1.26,2.59,3.44,2.59,6.53V97.52c0,1.73-.88,3.02-2.65,3.89-1.76,.86-3.69,1.3-5.78,1.3s-4.01-.43-5.78-1.3c-1.77-.86-2.65-2.16-2.65-3.89V57.02l-10.37,17.71c-.72,1.15-1.58,1.96-2.59,2.43-1.01,.47-2.02,.7-3.02,.7-.94,0-1.89-.22-2.86-.65-.97-.43-1.78-1.26-2.43-2.48l-10.26-18.79v41.58c0,1.73-.88,3.02-2.65,3.89-1.77,.86-3.69,1.3-5.78,1.3Z"/>
    <path class="cls-2" d="M379.26,103.35c-4.98,0-9.47-.83-13.47-2.48-4-1.66-7.18-4.36-9.52-8.1-2.34-3.74-3.52-8.71-3.52-14.9v-28.62c0-6.19,1.17-11.16,3.52-14.9,2.34-3.74,5.52-6.44,9.52-8.1,4-1.66,8.49-2.48,13.47-2.48s9.48,.83,13.52,2.48c4.04,1.66,7.23,4.36,9.57,8.1,2.34,3.74,3.52,8.71,3.52,14.9v28.62c0,6.19-1.17,11.16-3.52,14.9-2.34,3.74-5.54,6.44-9.57,8.1-4.04,1.66-8.55,2.48-13.52,2.48Zm0-14.69c3.03,0,5.41-.86,7.14-2.59,1.73-1.73,2.6-4.46,2.6-8.21v-28.62c0-3.74-.87-6.48-2.6-8.21-1.73-1.73-4.11-2.59-7.14-2.59s-5.39,.86-7.09,2.59c-1.7,1.73-2.54,4.47-2.54,8.21v28.62c0,3.74,.85,6.48,2.54,8.21,1.69,1.73,4.06,2.59,7.09,2.59Z"/>
    <path class="cls-2" d="M419.37,102.7c-1.72,0-2.95-.41-3.71-1.24-.75-.83-1.13-1.89-1.13-3.19,0-1.87,.61-3.85,1.83-5.94l30.3-53.89h-24.93c-1.58,0-2.81-.74-3.71-2.21-.9-1.47-1.34-3.19-1.34-5.13,0-1.8,.39-3.47,1.18-5.02,.79-1.55,2.08-2.32,3.87-2.32h41.48c1.65,0,2.86,.42,3.65,1.24,.79,.83,1.18,1.89,1.18,3.19,0,1.73-.61,3.71-1.83,5.94l-30.3,53.89h29.23c1.65,0,2.9,.79,3.76,2.38,.86,1.58,1.29,3.24,1.29,4.97s-.43,3.39-1.29,4.97c-.86,1.58-2.11,2.38-3.76,2.38h-45.78Z"/>
    <path class="cls-2" d="M489.94,102.7c-2.08,0-4-.43-5.76-1.3-1.76-.86-2.64-2.16-2.64-3.89V28.83c0-1.8,.88-3.09,2.64-3.89,1.76-.79,3.68-1.19,5.76-1.19s4,.4,5.76,1.19c1.76,.79,2.64,2.09,2.64,3.89V97.52c0,1.73-.88,3.02-2.64,3.89-1.76,.86-3.68,1.3-5.76,1.3Z"/>
    <path class="cls-2" d="M278.83,204.06c-1.07,0-2.09-.27-3.05-.81s-1.44-1.34-1.44-2.42v-72.22c0-1.07,.48-1.86,1.44-2.36,.96-.5,1.98-.75,3.05-.75,1.14,0,2.18,.25,3.1,.75,.93,.5,1.39,1.29,1.39,2.36v35.57l28.79-37.4c.64-.86,1.53-1.29,2.68-1.29,.78,0,1.57,.23,2.35,.7,.78,.47,1.43,1.04,1.93,1.72,.5,.68,.75,1.41,.75,2.2,0,.29-.04,.61-.11,.97-.07,.36-.25,.68-.54,.97l-21.83,27.4,25.36,38.69c.36,.5,.54,1.04,.54,1.61,0,.79-.25,1.52-.75,2.2-.5,.68-1.14,1.24-1.93,1.67-.79,.43-1.64,.64-2.57,.64-.57,0-1.14-.14-1.71-.43-.57-.29-1.07-.75-1.5-1.4l-23.44-35.36-8.03,9.99v23.75c0,1.07-.47,1.88-1.39,2.42-.93,.54-1.96,.81-3.1,.81Z"/>
    <path class="cls-2" d="M340.57,204.06c-1,0-1.92-.27-2.77-.81s-1.28-1.34-1.28-2.42v-72.22c0-1.07,.48-1.86,1.44-2.36,.96-.5,1.97-.75,3.04-.75,1.14,0,2.17,.25,3.09,.75,.92,.5,1.39,1.29,1.39,2.36v67.28h29.23c1,0,1.72,.41,2.19,1.24,.46,.82,.69,1.77,.69,2.85,0,1-.23,1.93-.69,2.79-.46,.86-1.19,1.29-2.19,1.29h-34.14Z"/>
    <path class="cls-2" d="M412.72,204.71c-4.5,0-8.53-.77-12.08-2.31-3.56-1.54-6.39-4.01-8.49-7.42-2.1-3.4-3.16-7.97-3.16-13.7v-52.66c0-1.07,.45-1.86,1.36-2.36,.91-.5,1.98-.75,3.21-.75,1.16,0,2.21,.25,3.16,.75,.94,.5,1.42,1.29,1.42,2.36v52.66c0,5.23,1.27,9.08,3.81,11.55,2.54,2.47,6.13,3.71,10.77,3.71s8.14-1.24,10.72-3.71c2.57-2.47,3.86-6.32,3.86-11.55v-52.66c0-1.07,.47-1.86,1.41-2.36,.94-.5,1.99-.75,3.16-.75s2.21,.25,3.16,.75c.94,.5,1.41,1.29,1.41,2.36v52.66c0,5.73-1.05,10.3-3.16,13.7-2.1,3.4-4.95,5.88-8.54,7.42-3.59,1.54-7.6,2.31-12.03,2.31Z"/>
    <path class="cls-2" d="M457.73,204.06c-1.22,0-2.21-.3-2.96-.91-.75-.61-1.13-1.34-1.13-2.2v-72.22c0-1.07,.43-1.88,1.29-2.42s1.79-.81,2.8-.81h18.5c3.94,0,7.58,.48,10.92,1.45,3.33,.97,5.99,2.78,7.96,5.43,1.97,2.65,2.96,6.49,2.96,11.5,0,4.51-.83,8.28-2.47,11.29-1.65,3.01-3.87,5.12-6.67,6.34,2.22,.86,4.16,2.03,5.81,3.49,1.65,1.47,2.94,3.37,3.87,5.7,.93,2.33,1.4,5.36,1.4,9.08v1.93c0,5.52-.93,9.91-2.8,13.16-1.87,3.26-4.41,5.61-7.64,7.04-3.23,1.43-6.85,2.15-10.86,2.15h-20.97Zm4.95-46.32h13.44c4.44,0,7.71-.98,9.79-2.96,2.08-1.97,3.12-5.18,3.12-9.62,0-2.94-.56-5.25-1.67-6.93-1.11-1.68-2.65-2.86-4.63-3.55-1.97-.68-4.28-1.02-6.94-1.02h-13.12v24.07Zm0,38.15h14.52c4.37,0,7.76-1.18,10.16-3.55,2.4-2.36,3.6-6.09,3.6-11.18v-1.83c0-5.16-1.2-8.79-3.6-10.91-2.4-2.11-5.79-3.17-10.16-3.17h-14.52v30.63Z"/>
  </g>
  <rect class="cls-2" width="228.47" height="228.47"/>
  <circle class="cls-1" cx="114.23" cy="114.09" r="54.46"/>
</svg>