<?xml version="1.0" encoding="UTF-8" standalone="no"?>
<!-- Generator: Adobe Illustrator 23.0.1, SVG Export Plug-In . SVG Version: 6.00 Build 0)  -->

<svg
   version="1.1"
   id="Livello_1"
   x="0px"
   y="0px"
   viewBox="0 0 435.844 159.182"
   enable-background="new 0 0 435.844 159.182"
   xml:space="preserve"
   xmlns:xlink="http://www.w3.org/1999/xlink"
   xmlns="http://www.w3.org/2000/svg"
   xmlns:svg="http://www.w3.org/2000/svg"><defs
   id="defs14"><linearGradient
     id="linearGradient14"><stop
       style="stop-color:#fa3930"
       offset="0"
       id="stop14" /><stop
       style="stop-color:#fa720a"
       offset="1"
       id="stop15" /></linearGradient><linearGradient
     xlink:href="#linearGradient14"
     id="linearGradient15"
     x1="0"
     y1="38.445999"
     x2="383.98099"
     y2="38.445999"
     gradientUnits="userSpaceOnUse" /><linearGradient
     xlink:href="#linearGradient14"
     id="linearGradient16"
     gradientUnits="userSpaceOnUse"
     x1="0"
     y1="38.445999"
     x2="383.98099"
     y2="38.445999"
     gradientTransform="translate(2.7344544)" /><linearGradient
     xlink:href="#linearGradient14"
     id="linearGradient17"
     gradientUnits="userSpaceOnUse"
     x1="0"
     y1="38.445999"
     x2="383.98099"
     y2="38.445999"
     gradientTransform="translate(2.7344544)" /><linearGradient
     xlink:href="#linearGradient14"
     id="linearGradient18"
     gradientUnits="userSpaceOnUse"
     x1="0"
     y1="38.445999"
     x2="383.98099"
     y2="38.445999"
     gradientTransform="translate(2.7344544)" /><linearGradient
     xlink:href="#linearGradient14"
     id="linearGradient19"
     gradientUnits="userSpaceOnUse"
     x1="0"
     y1="38.445999"
     x2="383.98099"
     y2="38.445999"
     gradientTransform="translate(2.7344544)" /><linearGradient
     xlink:href="#linearGradient14"
     id="linearGradient20"
     gradientUnits="userSpaceOnUse"
     x1="0"
     y1="38.445999"
     x2="383.98099"
     y2="38.445999"
     gradientTransform="translate(2.7344544)" /><linearGradient
     xlink:href="#linearGradient14"
     id="linearGradient21"
     gradientUnits="userSpaceOnUse"
     x1="0"
     y1="38.445999"
     x2="383.98099"
     y2="38.445999"
     gradientTransform="translate(2.7344544)" /></defs>&#10;<g
   id="g14">&#10;	<g
   id="g7"
   style="fill:url(#linearGradient15)">&#10;		<path
   d="M45.496,29.329c-0.503-1.378-1.144-2.694-1.927-3.948c-0.785-1.253-1.724-2.35-2.82-3.29    c-1.097-0.939-2.383-1.676-3.855-2.209c-1.473-0.532-3.148-0.799-5.028-0.799c-2.007,0-3.917,0.408-5.733,1.222    c-1.819,0.816-3.432,2.037-4.841,3.666c-1.41,1.631-2.523,3.651-3.337,6.064c-0.815,2.413-1.222,5.217-1.222,8.413    s0.407,6.002,1.222,8.413c0.814,2.413,1.911,4.434,3.29,6.064c1.377,1.631,2.992,2.852,4.841,3.666    c1.848,0.815,3.775,1.222,5.781,1.222c1.942,0,3.65-0.266,5.123-0.799c1.472-0.532,2.742-1.269,3.807-2.209    c1.065-0.939,1.989-2.021,2.773-3.243c0.783-1.222,1.424-2.553,1.927-3.995l14.853,4.136c-1.88,6.832-5.264,11.939-10.153,15.323    C45.309,70.408,39.261,72.1,32.055,72.1c-4.387,0-8.523-0.722-12.408-2.162c-3.886-1.441-7.285-3.572-10.199-6.393    c-2.915-2.82-5.218-6.33-6.909-10.529C0.846,48.819,0,43.961,0,38.446c0-5.514,0.861-10.371,2.585-14.571    c1.723-4.198,4.057-7.708,7.003-10.529c2.945-2.819,6.36-4.95,10.245-6.392c3.885-1.441,7.958-2.162,12.22-2.162    c7.581,0,13.834,1.786,18.753,5.358c4.919,3.572,8.162,8.523,9.729,14.852L45.496,29.329z"
   id="path1" />&#10;		<path
   d="M 68.877454,47.658 C 68.877454,44.4 69.409454,41.298 70.475454,38.352 71.540454,35.407 73.107454,32.806 75.175454,30.55 77.243454,28.294 79.842454,26.508 82.977454,25.191 86.110454,23.875 89.745454,23.217 93.880454,23.217 98.015454,23.217 101.65045,23.875 104.78345,25.191 107.91645,26.507 110.51745,28.294 112.58545,30.55 114.65345,32.806 116.21845,35.407 117.28545,38.352 118.35045,41.298 118.88345,44.401 118.88345,47.658 118.88345,50.917 118.35045,54.02 117.28545,56.964 116.21945,59.91 114.65345,62.51 112.58545,64.766 110.51745,67.022 107.91645,68.808 104.78345,70.124 101.64945,71.439 98.015454,72.098 93.880454,72.098 89.745454,72.098 86.109454,71.44 82.977454,70.124 79.842454,68.808 77.243454,67.021 75.175454,64.766 73.107454,62.51 71.540454,59.91 70.475454,56.964 69.409454,54.02 68.877454,50.917 68.877454,47.658 Z M 84.293454,47.658 C 84.293454,51.042 85.060454,53.768 86.597454,55.836 88.132454,57.903 90.559454,58.939 93.882454,58.939 97.203454,58.939 99.630454,57.904 101.16745,55.836 102.70245,53.768 103.47145,51.042 103.47145,47.658 103.47145,44.274 102.70345,41.548 101.16745,39.48 99.631454,37.412 97.203454,36.378 93.882454,36.378 90.559454,36.378 88.132454,37.412 86.597454,39.48 85.059454,41.549 84.293454,44.274 84.293454,47.658 Z"
   id="path2"
   style="fill:url(#linearGradient16)" />&#10;		<path
   d="M 155.06545,71.347 V 42.582 C 155.06545,40.577 154.65745,38.98 153.84245,37.788 153.02745,36.598 151.77445,36.002 150.08245,36.002 148.95445,36.002 147.87345,36.284 146.83945,36.848 145.80545,37.412 144.89545,38.352 144.11245,39.668 143.32745,40.984 142.71745,42.709 142.27945,44.838 141.84045,46.969 141.62145,49.601 141.62145,52.734 V 71.348 H 127.33545 V 23.97 H 141.62245 V 29.611 C 143.00045,27.731 144.67845,26.196 146.65145,25.004 148.62545,23.814 151.05345,23.218 153.93645,23.218 157.38245,23.218 160.15545,23.892 162.25545,25.239 164.35445,26.587 166.03045,28.576 167.28445,31.208 168.53745,29.14 170.30745,27.293 172.59545,25.662 174.88245,24.033 177.90645,23.218 181.66545,23.218 186.67845,23.218 190.50145,24.55 193.13445,27.213 195.76645,29.877 197.08245,33.402 197.08245,37.788 V 71.347 H 182.79345 V 42.582 C 182.79345,40.514 182.41745,38.901 181.66545,37.741 180.91345,36.582 179.65845,36.002 177.90545,36.002 176.83945,36.002 175.79045,36.284 174.75745,36.848 173.72345,37.412 172.79745,38.352 171.98445,39.668 171.16845,40.984 170.52745,42.709 170.05745,44.838 169.58745,46.969 169.35245,49.57 169.35245,52.64 V 71.347 H 155.06545 Z"
   id="path3"
   style="fill:url(#linearGradient17)" />&#10;		<path
   d="M 219.18645,51.606 C 219.68745,54.425 220.81545,56.574 222.57045,58.045 224.32345,59.518 226.70645,60.254 229.71445,60.254 233.72345,60.254 236.82645,58.563 239.02045,55.179 L 250.86445,59.503 C 248.85745,63.201 246.08445,66.224 242.54545,68.574 239.00445,70.924 234.38245,72.099 228.68045,72.099 224.41845,72.099 220.76845,71.347 217.73045,69.843 214.68945,68.339 212.21445,66.412 210.30445,64.062 208.39245,61.712 206.99845,59.096 206.12045,56.212 205.24145,53.331 204.80545,50.478 204.80545,47.658 204.80545,44.839 205.29045,41.987 206.26245,39.104 207.23245,36.223 208.72045,33.605 210.72745,31.255 212.73345,28.905 215.23945,26.978 218.24845,25.474 221.25745,23.97 224.79545,23.218 228.87045,23.218 233.13145,23.218 236.73445,23.97 239.68145,25.474 242.62645,26.978 245.00745,28.891 246.82545,31.208 248.64145,33.527 249.94245,36.065 250.72645,38.822 251.50945,41.581 251.90145,44.212 251.90145,46.718 V 51.606 L 219.18645,51.606 Z M 228.67945,34.404 C 226.73645,34.404 224.90345,34.984 223.18045,36.143 221.45645,37.303 220.25045,39.137 219.56145,41.642 H 237.70445 C 237.39045,39.637 236.46545,37.929 234.93145,36.519 233.39545,35.109 231.31145,34.404 228.67945,34.404 Z"
   id="path4"
   style="fill:url(#linearGradient18)" />&#10;		<path
   d="M 257.99745,47.658 C 257.99745,43.898 258.49845,40.499 259.50145,37.459 260.50245,34.42 261.91245,31.851 263.73145,29.751 265.54845,27.652 267.74045,26.038 270.31145,24.91 272.88045,23.782 275.73145,23.218 278.86645,23.218 281.49845,23.218 283.73845,23.626 285.58745,24.44 287.43545,25.255 288.95545,26.352 290.14745,27.73 V 4.794 H 305.56345 V 71.347 H 290.14745 V 67.305 C 287.51545,70.501 283.84945,72.1 279.14945,72.1 275.95345,72.1 273.03945,71.536 270.40745,70.408 267.77545,69.28 265.55045,67.667 263.73345,65.567 261.91545,63.468 260.50545,60.9 259.50345,57.859 258.49845,54.819 257.99745,51.419 257.99745,47.658 Z M 273.03645,47.658 C 273.03645,51.606 273.88245,54.473 275.57445,56.259 277.26545,58.045 279.39645,58.939 281.96645,58.939 284.53545,58.939 286.66645,58.045 288.35945,56.259 290.05045,54.473 290.89745,51.606 290.89745,47.658 290.89745,43.71 290.05145,40.843 288.35945,39.057 286.66745,37.271 284.53545,36.378 281.96645,36.378 279.39645,36.378 277.26645,37.271 275.57445,39.057 273.88345,40.843 273.03645,43.711 273.03645,47.658 Z"
   id="path5"
   style="fill:url(#linearGradient19)" />&#10;		<path
   d="M 313.03645,9.212 C 313.03645,7.896 313.27145,6.69 313.74145,5.593 314.21145,4.497 314.85345,3.525 315.66845,2.679 316.48245,1.833 317.45445,1.175 318.58245,0.705 319.71045,0.235 320.93245,0 322.24845,0 323.56345,0 324.78545,0.235 325.91445,0.705 327.04245,1.175 328.01345,1.833 328.82845,2.679 329.64245,3.525 330.28545,4.497 330.75545,5.593 331.22545,6.69 331.46045,7.896 331.46045,9.212 331.46045,10.528 331.22545,11.735 330.75545,12.831 330.28545,13.928 329.64245,14.899 328.82845,15.745 328.01345,16.592 327.04245,17.249 325.91445,17.72 324.78645,18.19 323.56445,18.425 322.24845,18.425 320.93245,18.425 319.71045,18.19 318.58245,17.72 317.45445,17.25 316.48245,16.592 315.66845,15.745 314.85345,14.899 314.21145,13.928 313.74145,12.831 313.27145,11.735 313.03645,10.529 313.03645,9.212 Z M 329.95645,23.97 V 71.347 H 314.54045 V 23.97 Z"
   id="path6"
   style="fill:url(#linearGradient20)" />&#10;		<path
   d="M 337.64645,47.658 C 337.64645,43.898 338.16345,40.499 339.19745,37.459 340.23045,34.42 341.68845,31.851 343.56845,29.751 345.44945,27.652 347.68845,26.038 350.28945,24.91 352.88945,23.782 355.75645,23.218 358.89045,23.218 361.52245,23.218 363.91845,23.61 366.08145,24.393 368.24345,25.177 369.98245,26.289 371.29945,27.73 V 23.97 H 386.71545 V 71.348 H 371.29945 V 67.306 C 370.04445,68.874 368.29145,70.065 366.03545,70.878 363.77945,71.692 361.49045,72.101 359.17345,72.101 355.97745,72.101 353.04745,71.537 350.38445,70.409 347.71945,69.281 345.44945,67.668 343.56845,65.568 341.68845,63.469 340.23145,60.901 339.19745,57.86 338.16345,54.819 337.64645,51.419 337.64645,47.658 Z M 352.68745,47.658 C 352.68745,49.602 352.95245,51.277 353.48645,52.687 354.01845,54.097 354.72345,55.272 355.60045,56.212 356.47745,57.152 357.51145,57.843 358.70345,58.279 359.89345,58.719 361.11445,58.937 362.36945,58.937 363.62245,58.937 364.82845,58.718 365.98845,58.279 367.14745,57.842 368.18145,57.151 369.09145,56.212 369.99945,55.273 370.72045,54.097 371.25345,52.687 371.78545,51.277 372.05245,49.601 372.05245,47.658 372.05245,45.716 371.78545,44.039 371.25345,42.629 370.72045,41.219 369.99945,40.044 369.09145,39.104 368.18145,38.165 367.14745,37.475 365.98845,37.036 364.82845,36.598 363.62145,36.378 362.36945,36.378 361.11545,36.378 359.89345,36.598 358.70345,37.036 357.51245,37.475 356.47845,38.164 355.60045,39.104 354.72245,40.044 354.01645,41.219 353.48645,42.629 352.95245,44.04 352.68745,45.716 352.68745,47.658 Z"
   id="path7"
   style="fill:url(#linearGradient21)" />&#10;	</g>&#10;	<path
   d="M411.013,4.385h11.078c0,22.366,0,44.74,0,67.123h-11.078C411.008,49.13,411.008,26.756,411.013,4.385z"
   id="path8" />&#10;	<g
   id="g10">&#10;		<path
   d="M435.844,124.337c-4.543,0-9.085,0-13.627,0c0-4.543,0-9.086,0-13.627h-11.078c-0.002,4.542-0.002,9.085-0.002,13.627    c-4.543,0-9.087,0-13.628,0v11.079c4.542,0.002,9.085,0.002,13.628,0.002c0,4.543,0.001,9.085,0.002,13.628h11.078    c0-4.544,0-9.086,0-13.628c4.542,0,9.085-0.001,13.627-0.002V124.337z"
   id="path9" />&#10;		<path
   d="M367.994,102.639c3.301-1.487,7.15-1.052,10.036,1.134c3.597,2.835,5.122,7.383,6.341,11.619    c2.17,8.775,2.483,17.907,0.919,26.81c-0.411,2.607-1.955,5.644-4.855,6.002c-2.168,0.237-4.118-1.329-4.354-3.497    c-0.002-0.016-0.003-0.032-0.005-0.048c-0.515-6.008,1.668-12.043,0.306-18.006c-0.371-1.955-2.346-3.662-4.373-3.187    c-2.607,0.847-4.334,3.258-5.611,5.565c-2.665,5.05-4.197,10.596-5.924,16.012c-1.186,3.91-3.102,8.022-6.862,10.062    c-6.165,3.343-14.923,2.646-19.361-3.2c-3.832-5.213-6.426-11.215-9.984-16.605c-0.951-1.212-2.268-3.056-4.06-2.405    c-1.753,0.476-2.203,2.542-2.203,4.125c0.267,5.904,3.122,11.268,4.086,17.035c0.56,2.346-0.951,5.5-3.728,5.09    c-2.607,0.3-4.171-2.209-5.057-4.275c-3.91-9.567-6.021-20.248-3.812-30.492c1.017-4.725,2.607-9.658,6.269-13.034    c3.662-3.376,9.866-4.106,13.868-0.893c5.709,4.438,8.113,11.619,12.923,16.82c2.652,2.939,7.775,3.082,10.153-0.261    C357.9,119.081,358.239,106.894,367.994,102.639z"
   id="path10" />&#10;	</g>&#10;	<g
   id="g13">&#10;		<path
   d="M241.557,136.613c0,1.864-0.234,3.567-0.699,5.109c-0.466,1.543-1.165,2.86-2.096,3.952    c-0.932,1.092-2.089,1.944-3.47,2.554c-1.382,0.61-2.988,0.916-4.82,0.916c-1.221,0-2.37-0.265-3.446-0.795    c-1.077-0.53-1.888-1.133-2.434-1.807v12.049h-5.977v-34.124h5.976v2.506c0.161-0.321,0.417-0.651,0.772-0.988    c0.353-0.337,0.787-0.651,1.301-0.939c0.513-0.29,1.092-0.522,1.735-0.699c0.642-0.176,1.333-0.265,2.072-0.265    c1.831,0,3.438,0.306,4.82,0.916c1.381,0.611,2.538,1.463,3.47,2.554c0.932,1.092,1.63,2.41,2.096,3.952    C241.324,133.047,241.557,134.75,241.557,136.613z M235.292,136.613c0-2.41-0.547-4.249-1.638-5.518    c-1.093-1.269-2.426-1.904-4.001-1.904c-1.574,0-2.9,0.635-3.977,1.904c-1.077,1.27-1.615,3.109-1.615,5.518    s0.537,4.25,1.615,5.518c1.076,1.27,2.401,1.904,3.977,1.904c1.574,0,2.908-0.634,4.001-1.904    C234.745,140.863,235.292,139.023,235.292,136.613z"
   id="path11" />&#10;		<path
   d="M245.25,136.613c0-1.766,0.273-3.414,0.819-4.94c0.546-1.526,1.349-2.851,2.41-3.976c1.06-1.124,2.353-2.008,3.88-2.651    c1.526-0.642,3.269-0.964,5.23-0.964c1.96,0,3.703,0.322,5.23,0.964c1.526,0.643,2.82,1.526,3.88,2.651    c1.06,1.126,1.863,2.451,2.41,3.976c0.546,1.526,0.819,3.174,0.819,4.94c0,1.768-0.273,3.414-0.819,4.94    c-0.547,1.527-1.349,2.852-2.41,3.976c-1.06,1.125-2.355,2.008-3.88,2.651c-1.526,0.642-3.27,0.964-5.23,0.964    c-1.96,0-3.703-0.322-5.23-0.964c-1.526-0.642-2.82-1.526-3.88-2.651c-1.06-1.124-1.864-2.45-2.41-3.976    C245.522,140.027,245.25,138.381,245.25,136.613z M251.515,136.613c0,0.997,0.137,1.945,0.41,2.844    c0.273,0.9,0.667,1.687,1.181,2.362c0.513,0.675,1.148,1.213,1.904,1.615c0.755,0.402,1.615,0.602,2.578,0.602    c0.964,0,1.824-0.2,2.579-0.602c0.755-0.401,1.389-0.94,1.904-1.615c0.513-0.675,0.908-1.462,1.181-2.362    c0.273-0.899,0.41-1.847,0.41-2.844c0-0.995-0.137-1.944-0.41-2.844c-0.273-0.899-0.668-1.687-1.181-2.362    c-0.515-0.675-1.15-1.212-1.904-1.615c-0.755-0.401-1.615-0.602-2.579-0.602c-0.964,0-1.824,0.201-2.578,0.602    c-0.755,0.402-1.39,0.94-1.904,1.615c-0.515,0.675-0.908,1.463-1.181,2.362C251.651,134.669,251.515,135.618,251.515,136.613z"
   id="path12" />&#10;		<path
   d="M274.269,148.759v-24.292h5.976v3.952c0.868-1.446,1.936-2.53,3.205-3.254c1.269-0.723,2.595-1.085,3.977-1.085    c0.257,0,0.554,0.017,0.892,0.048c0.338,0.033,0.651,0.081,0.94,0.144v5.832c-0.74-0.45-1.574-0.675-2.506-0.675    c-0.867,0-1.695,0.193-2.482,0.578c-0.788,0.385-1.478,0.996-2.072,1.831c-0.595,0.836-1.068,1.936-1.422,3.302    c-0.354,1.366-0.53,3.029-0.53,4.988v8.627L274.269,148.759L274.269,148.759z"
   id="path13" />&#10;	</g>&#10;</g>&#10;</svg>
