<?xml version="1.0" encoding="UTF-8"?>
<!-- Generator: Adobe Illustrator 27.4.0, SVG Export Plug-In . SVG Version: 6.00 Build 0)  -->
<svg version="1.1" id="Livello_1" xmlns="http://www.w3.org/2000/svg" xmlns:xlink="http://www.w3.org/1999/xlink" x="0px" y="0px" viewBox="0 0 243.6 153.6" style="enable-background:new 0 0 243.6 153.6;" xml:space="preserve">
<style type="text/css">
	.st0{fill:#FA3732;}
</style>
<g>
	<path d="M219.6,3.1h11v65.2h-11V3.1z"/>
	<g>
		<g>
			<path d="M177.7,98.6c3.2-1.4,7-1,9.8,1.1c3.5,2.8,5,7.2,6.2,11.3c2.1,8.5,2.4,17.4,0.9,26.1c-0.4,2.5-1.9,5.5-4.7,5.8     c-2.1,0.2-4-1.3-4.2-3.4l0,0c-0.5-5.8,1.6-11.7,0.3-17.5c-0.4-1.9-2.3-3.6-4.3-3.1c-2.5,0.8-4.2,3.2-5.5,5.4     c-2.6,4.9-4.1,10.3-5.8,15.6c-1.2,3.8-3,7.8-6.7,9.8c-6,3.3-14.5,2.6-18.8-3.1c-3.7-5.1-6.3-10.9-9.7-16.2c-0.9-1.2-2.2-3-4-2.3     c-1.7,0.5-2.1,2.5-2.1,4c0.3,5.7,3,11,4,16.6c0.5,2.3-0.9,5.4-3.6,5c-2.5,0.3-4.1-2.1-4.9-4.2c-3.8-9.3-5.9-19.7-3.7-29.7     c1-4.6,2.5-9.4,6.1-12.7c3.6-3.3,9.6-4,13.5-0.9c5.6,4.3,7.9,11.3,12.6,16.4c2.6,2.9,7.6,3,9.9-0.3     C167.9,114.6,168.2,102.7,177.7,98.6z"/>
			<path d="M219.6,106.4h11v13.2h13v10.7h-13c0,4.4,0,8.8,0,13.2h-10.9v-13.2h-13.2v-10.7h13.2L219.6,106.4L219.6,106.4z"/>
		</g>
		<g>
			<path d="M55.1,131.5c0,1.8-0.2,3.5-0.7,5s-1.1,2.8-2,3.9c-0.9,1.1-2,1.9-3.4,2.5s-2.9,0.9-4.7,0.9c-1.2,0-2.3-0.3-3.4-0.8     c-1.1-0.5-1.8-1.1-2.4-1.8v11.7h-5.8v-33.3h5.8v2.4c0.2-0.3,0.4-0.6,0.8-1c0.3-0.3,0.8-0.6,1.3-0.9s1.1-0.5,1.7-0.7     c0.6-0.2,1.3-0.3,2-0.3c1.8,0,3.4,0.3,4.7,0.9s2.5,1.4,3.4,2.5s1.6,2.3,2,3.9C54.9,128,55.1,129.7,55.1,131.5z M49,131.5     c0-2.3-0.5-4.1-1.6-5.4c-1.1-1.2-2.4-1.9-3.9-1.9s-2.8,0.6-3.9,1.9c-1.1,1.2-1.6,3-1.6,5.4s0.5,4.1,1.6,5.4     c1,1.2,2.3,1.9,3.9,1.9c1.5,0,2.8-0.6,3.9-1.9C48.4,135.6,49,133.8,49,131.5z"/>
			<path d="M58.5,131.5c0-1.7,0.3-3.3,0.8-4.8s1.3-2.8,2.3-3.9s2.3-2,3.8-2.6c1.5-0.6,3.2-0.9,5.1-0.9s3.6,0.3,5.1,0.9     s2.7,1.5,3.8,2.6c1,1.1,1.8,2.4,2.3,3.9s0.8,3.1,0.8,4.8s-0.3,3.3-0.8,4.8s-1.3,2.8-2.3,3.9c-1,1.1-2.3,2-3.8,2.6     s-3.2,0.9-5.1,0.9s-3.6-0.3-5.1-0.9c-1.5-0.6-2.7-1.5-3.8-2.6c-1-1.1-1.8-2.4-2.3-3.9C58.7,134.8,58.5,133.2,58.5,131.5z      M64.6,131.5c0,1,0.1,1.9,0.4,2.8s0.6,1.6,1.2,2.3s1.1,1.2,1.9,1.6c0.7,0.4,1.6,0.6,2.5,0.6s1.8-0.2,2.5-0.6     c0.7-0.4,1.4-0.9,1.9-1.6c0.5-0.7,0.9-1.4,1.2-2.3c0.3-0.9,0.4-1.8,0.4-2.8s-0.1-1.9-0.4-2.8c-0.3-0.9-0.6-1.6-1.2-2.3     c-0.5-0.7-1.1-1.2-1.9-1.6c-0.7-0.4-1.6-0.6-2.5-0.6s-1.8,0.2-2.5,0.6s-1.4,0.9-1.9,1.6s-0.9,1.4-1.2,2.3     C64.7,129.6,64.6,130.5,64.6,131.5z"/>
			<path d="M86.5,143.3v-23.7h5.8v3.9c0.8-1.4,1.9-2.5,3.1-3.2s2.5-1.1,3.9-1.1c0.3,0,0.5,0,0.9,0c0.3,0,0.6,0.1,0.9,0.1v5.7     c-0.7-0.4-1.5-0.7-2.4-0.7c-0.8,0-1.7,0.2-2.4,0.6s-1.4,1-2,1.8s-1,1.9-1.4,3.2c-0.3,1.3-0.5,3-0.5,4.9v8.4L86.5,143.3     L86.5,143.3z"/>
		</g>
	</g>
</g>
<g>
	<path class="st0" d="M16,68H0V5.3h16V68z"/>
	<path class="st0" d="M41,22.9v5.2c1.2-1.7,2.9-3.2,5.2-4.3c2.3-1.1,4.8-1.7,7.6-1.7c5.2,0,9,1.3,11.4,3.9c2.4,2.6,3.6,6.3,3.6,11   v31H54.2V41.3c0-1.9-0.4-3.4-1.3-4.5c-0.9-1.1-2.2-1.6-3.8-1.6c-2.5,0-4.5,1.1-5.9,3.3S41,43.9,41,48.2V68H26.3V22.9H41z"/>
	<path class="st0" d="M75.9,45.4c0-3.6,0.5-6.8,1.4-9.7c1-2.9,2.3-5.3,4-7.4c1.7-2,3.8-3.5,6.3-4.6c2.4-1.1,5.2-1.6,8.2-1.6   c2.5,0,4.6,0.4,6.4,1.2c1.8,0.8,3.2,1.8,4.3,3.1V4.6h14.7V68h-14.7v-3.9c-2.5,3-6,4.6-10.5,4.6c-3,0-5.8-0.5-8.3-1.6   s-4.6-2.6-6.4-4.6c-1.7-2-3.1-4.5-4-7.4C76.4,52.3,75.9,49,75.9,45.4z M90.2,45.4c0,3.8,0.8,6.5,2.4,8.2s3.6,2.6,6.1,2.6   c2.4,0,4.5-0.9,6.1-2.6c1.6-1.7,2.4-4.4,2.4-8.2s-0.8-6.5-2.4-8.2s-3.6-2.6-6.1-2.6s-4.5,0.9-6.1,2.6C91,38.9,90.2,41.7,90.2,45.4z   "/>
	<path class="st0" d="M129.3,8.8c0-1.3,0.2-2.4,0.7-3.5c0.4-1,1.1-2,1.8-2.8c0.8-0.8,1.7-1.4,2.8-1.9c1.1-0.4,2.2-0.7,3.5-0.7   s2.4,0.2,3.5,0.7s2,1.1,2.8,1.9s1.4,1.7,1.8,2.8c0.4,1,0.7,2.2,0.7,3.5s-0.2,2.4-0.7,3.5c-0.4,1-1.1,2-1.8,2.8   c-0.8,0.8-1.7,1.4-2.8,1.9s-2.2,0.7-3.5,0.7s-2.4-0.2-3.5-0.7c-1.1-0.4-2-1.1-2.8-1.9c-0.8-0.8-1.4-1.7-1.8-2.8   C129.5,11.2,129.3,10,129.3,8.8z M145.4,22.9V68h-14.7V22.9H145.4z"/>
	<path class="st0" d="M165.8,49.2c0.5,2.7,1.6,4.7,3.2,6.1c1.7,1.4,3.9,2.1,6.8,2.1c3.8,0,6.8-1.6,8.9-4.8l11.3,4.1   c-1.9,3.5-4.6,6.4-7.9,8.7c-3.4,2.2-7.8,3.4-13.2,3.4c-4.1,0-7.5-0.7-10.4-2.2c-2.9-1.4-5.3-3.3-7.1-5.5s-3.2-4.7-4-7.5   c-0.8-2.7-1.3-5.5-1.3-8.2s0.5-5.4,1.4-8.2c0.9-2.7,2.3-5.2,4.3-7.5c1.9-2.2,4.3-4.1,7.2-5.5s6.2-2.2,10.1-2.2   c4.1,0,7.5,0.7,10.3,2.2c2.8,1.4,5.1,3.3,6.8,5.5s3,4.6,3.7,7.3c0.7,2.6,1.1,5.1,1.1,7.5v4.7C197,49.2,165.8,49.2,165.8,49.2z    M174.9,32.8c-1.9,0-3.6,0.6-5.2,1.7c-1.6,1.1-2.8,2.9-3.5,5.2h17.3c-0.3-1.9-1.2-3.5-2.6-4.9C179.4,33.5,177.4,32.8,174.9,32.8z"/>
</g>
</svg>