<?xml version="1.0" encoding="UTF-8" standalone="no"?>
<!-- Created with Inkscape (http://www.inkscape.org/) -->

<svg
   xmlns:dc="http://purl.org/dc/elements/1.1/"
   xmlns:cc="http://creativecommons.org/ns#"
   xmlns:rdf="http://www.w3.org/1999/02/22-rdf-syntax-ns#"
   xmlns:svg="http://www.w3.org/2000/svg"
   xmlns="http://www.w3.org/2000/svg"
   xmlns:sodipodi="http://sodipodi.sourceforge.net/DTD/sodipodi-0.dtd"
   xmlns:inkscape="http://www.inkscape.org/namespaces/inkscape"
   width="399.59781mm"
   height="62.946072mm"
   viewBox="0 0 399.59781 62.946072"
   version="1.1"
   id="svg8"
   inkscape:version="0.92.5 (2060ec1f9f, 2020-04-08)"
   sodipodi:docname="MS-NOW-2025.svg">
  <defs
     id="defs2" />
  <sodipodi:namedview
     id="base"
     pagecolor="#ffffff"
     bordercolor="#666666"
     borderopacity="1.0"
     inkscape:pageopacity="0.0"
     inkscape:pageshadow="2"
     inkscape:zoom="0.96471479"
     inkscape:cx="755.14547"
     inkscape:cy="118.95321"
     inkscape:document-units="mm"
     inkscape:current-layer="layer1"
     showgrid="false"
     showguides="true"
     inkscape:guide-bbox="true"
     inkscape:snap-center="true"
     inkscape:window-width="1920"
     inkscape:window-height="1009"
     inkscape:window-x="-8"
     inkscape:window-y="-8"
     inkscape:window-maximized="1" />
  <metadata
     id="metadata5">
    <rdf:RDF>
      <cc:Work
         rdf:about="">
        <dc:format>image/svg+xml</dc:format>
        <dc:type
           rdf:resource="http://purl.org/dc/dcmitype/StillImage" />
        <dc:title></dc:title>
      </cc:Work>
    </rdf:RDF>
  </metadata>
  <g
     inkscape:label="Layer 1"
     inkscape:groupmode="layer"
     id="layer1"
     transform="translate(86.349749,-110.81996)">
    <path
       style="fill:#1e41ef;fill-opacity:1;fill-rule:nonzero;stroke:none;stroke-width:1.21688664"
       d="m -69.995009,173.76603 c 3.40066,0 6.26219,-2.13347 7.23448,-5.39129 l 1.07364,-3.5942 c 0.22464,-0.7534 1.01835,-1.34552 1.80516,-1.34552 H 0.3314214 l -7.48905,-25.69503 7.48905,-25.65934 -51.5375404,-0.0127 c -3.14953,0 -6.24261,2.39612 -7.02712,5.44659 l -0.88818,3.45135 c -0.19583,0.76146 -0.96767,1.35819 -1.75333,1.35934 l -24.07073,-0.001 c -0.78681,0 -1.40427,0.61862 -1.40427,1.40543 v 48.63107 c 0,0.78796 0.61746,1.40543 1.40427,1.40428 z"
       id="path910"
       inkscape:connector-curvature="0" />
    <path
       style="fill:#fc3800;fill-opacity:1;fill-rule:nonzero;stroke:none;stroke-width:1.21688664"
       d="m -57.898009,142.6532 h 38.32774 l -2.63576,9.03272 c -0.26149,0.8974 -1.06328,1.50103 -1.99408,1.50103 h -36.99488 c -2.88457,0 -5.4293,1.78099 -6.69881,4.68744 l 2.88688,-9.88981 c 0.88703,-3.03892 3.94441,-5.33138 7.10891,-5.33138 z"
       id="path908"
       inkscape:connector-curvature="0" />
    <path
       style="fill:#fc3800;fill-opacity:1;fill-rule:nonzero;stroke:none;stroke-width:1.21688664"
       d="m -51.884629,122.04993 h 38.32771 l -2.63459,9.03157 c -0.26265,0.8974 -1.06444,1.50104 -1.99525,1.50104 h -36.99486 c -2.88343,0 -5.42817,1.78097 -6.69881,4.68743 l 2.88689,-9.8898 c 0.88702,-3.03779 3.94439,-5.33024 7.10891,-5.33024 z"
       id="path852"
       inkscape:connector-curvature="0" />
    <path
       style="fill:#1e41ef;fill-opacity:1;fill-rule:nonzero;stroke:none;stroke-width:1.02755249"
       d="m 216.05535,110.82015 c -15.87238,0 -27.29039,11.30679 -27.29039,27.02545 0,15.71866 11.41801,27.02342 27.29039,27.02342 15.87335,0 27.29233,-11.30476 27.29233,-27.02342 0,-15.71866 -11.41898,-27.02545 -27.29233,-27.02545 z m 0,11.46765 c 8.4357,0 14.50412,6.50925 14.50412,15.5578 0,9.04851 -6.06842,15.55578 -14.50412,15.55578 -8.4347,0 -14.50416,-6.50727 -14.50416,-15.55578 0,-9.04855 6.06946,-15.5578 14.50416,-15.5578 z"
       id="path1013"
       inkscape:connector-curvature="0" />
    <path
       style="fill:#1e41ef;fill-opacity:1;fill-rule:nonzero;stroke:none;stroke-width:1.02755249"
       d="m 12.432941,163.43502 v -51.35438 h 19.82952 l 10.03974,34.80791 10.0388,-34.80791 h 19.82851 v 51.35438 h -12.07862 v -39.38179 c -0.5321,2.38131 -1.13228,4.68378 -1.79666,6.88609 l -9.80144,32.4957 h -12.3831 l -9.80143,-32.4957 c -0.66923,-2.2159 -1.26945,-4.51938 -1.79666,-6.88609 v 39.38179 z"
       id="path1011"
       inkscape:connector-curvature="0" />
    <path
       style="fill:#1e41ef;fill-opacity:1;fill-rule:nonzero;stroke:none;stroke-width:1.02755249"
       d="m 255.85191,163.43502 -14.95797,-51.35438 h 12.49887 l 8.71389,31.90814 8.69444,-31.90814 h 12.53972 l 8.69444,31.90814 8.71389,-31.90814 h 12.49887 l -14.958,51.35438 h -12.52804 l -8.69152,-31.83828 -8.69055,31.83828 z"
       id="path1009"
       inkscape:connector-curvature="0" />
    <path
       style="fill:#1e41ef;fill-opacity:1;fill-rule:nonzero;stroke:none;stroke-width:1.02755249"
       d="m 138.36903,163.43502 v -51.35438 h 12.11366 l 21.89271,31.73593 v -31.73593 h 12.11948 v 51.35438 H 172.3754 l -21.8898,-31.67567 v 31.67567 z"
       id="path1007"
       inkscape:connector-curvature="0" />
    <path
       style="fill:#1e41ef;fill-opacity:1;fill-rule:nonzero;stroke:none;stroke-width:1.02755249"
       d="m 121.71165,147.85154 c 0,10.317 -8.87828,17.01826 -22.547339,17.01826 -13.79361,0 -22.66607,-6.8248 -22.66607,-17.64081 h 12.54167 c 0.44068,4.38322 3.85306,6.54759 10.32087,6.54759 6.077739,0 9.619529,-1.91146 9.619529,-5.19157 0,-2.75483 -2.49899,-4.58555 -7.26645,-5.31995 l -8.254729,-1.2714 c -10.71483,-1.64881 -15.94725,-6.4007 -15.94725,-14.47938 0,-10.14576 8.25278,-16.69432 21.03959,-16.69432 12.323749,0 20.021129,6.08259 20.918029,16.53186 h -12.61465 c -0.34448,-3.50869 -3.35696,-5.52424 -8.258639,-5.52424 -4.95808,0 -8.35784,2.0632 -8.35784,5.07385 0,2.61282 2.55929,4.39491 7.3355,5.10694 l 7.588409,1.13229 c 11.01348,1.64298 16.54937,6.56607 16.54937,14.71088 z"
       id="path1005"
       inkscape:connector-curvature="0" />
  </g>
</svg>
