<svg xmlns="http://www.w3.org/2000/svg" width="3584" height="3584" viewBox="0 0 3584 3584">
  <path fill="#ffffff" d="M1792,3584c-478.7,0-928.7-186.4-1267.1-524.9S0,2270.7,0,1792,186.4,863.3,524.9,524.9,1313.3,0,1792,0s928.7,186.4,1267.1,524.9S3584,1313.3,3584,1792s-186.4,928.7-524.9,1267.1S2270.6,3584,1792,3584Zm0-3457.2c-444.8,0-863,173.2-1177.5,487.7S126.8,1347.2,126.8,1792,300,2655,614.5,2969.5s732.7,487.7,1177.5,487.7,862.9-173.2,1177.5-487.7,487.7-732.7,487.7-1177.5S3284,929,2969.5,614.5,2236.8,126.8,1792,126.8Z" />
  <g>
    <path fill="#ffffff" d="M513.7,1974.2V1730.6h47.5v243.6Z" />
    <path fill="#ffffff" d="M762.1,1974.2l-96.5-149.5v149.5H618.1V1730.6h42.4L757,1879.8V1730.6h47.5v243.6Z" />
    <path fill="#ffffff" d="M954.4,1773.1v201.1H906.9V1773.1H843.2v-42.5h174.9v42.5Z" />
    <path fill="#ffffff" d="M1056.7,1974.2V1730.6h160.5v42.5H1104.3v57.1h96.2v42.4h-96.2v59.2h112.9v42.4Z" />
    <path fill="#ffffff" d="M1393.1,1974.2l-47.5-97.1h-34.3v97.1h-47.5V1730.6h95.4c49.6,0,79.1,33.9,79.1,74.6,0,34.2-20.9,55.4-44.5,64l54.4,105Zm-36.9-201.1h-44.9v64.3h44.9c20.8,0,34.5-13.4,34.5-32.2S1377,1773.1,1356.2,1773.1Z" />
    <path fill="#ffffff" d="M1631.6,1974.2l-96.5-149.5v149.5h-47.5V1730.6H1530l96.5,149.2V1730.6H1674v243.6Z" />
    <path fill="#ffffff" d="M1869.4,1974.2l-14.3-43.1h-86.6l-14.7,43.1h-49.6l88.6-243.6h37.3l89,243.6Zm-56.8-171.7-30.8,88.6h60.6Z" />
    <path fill="#ffffff" d="M2021.7,1773.1v201.1h-47.6V1773.1h-63.6v-42.5h174.8v42.5Z" />
    <path fill="#ffffff" d="M2124,1974.2V1730.6h47.6v243.6Z" />
    <path fill="#ffffff" d="M2375.9,1949.6c-17.2,17.1-38,26.7-65.7,26.7s-49-9.6-66.1-26.7c-24.6-24.6-23.9-55.1-23.9-97.2s-.7-72.5,23.9-97.1c17.1-17.1,38.3-26.7,66.1-26.7s48.5,9.6,65.7,26.7c24.6,24.6,24.2,55,24.2,97.1S2400.5,1925,2375.9,1949.6ZM2340.6,1784c-6.8-7.9-17.4-13-30.4-13s-24,5.1-30.8,13c-9.3,10.3-11.7,21.6-11.7,68.4s2.4,58.2,11.7,68.5c6.8,7.8,17.8,13,30.8,13s23.6-5.2,30.4-13c9.2-10.3,12-21.6,12-68.5S2349.8,1794.3,2340.6,1784Z" />
    <path fill="#ffffff" d="M2592.8,1974.2l-96.5-149.5v149.5h-47.5V1730.6h42.4l96.5,149.2V1730.6h47.5v243.6Z" />
    <path fill="#ffffff" d="M2830.6,1974.2l-14.3-43.1h-86.6l-14.7,43.1h-49.6l88.6-243.6h37.3l88.9,243.6Zm-56.8-171.7-30.8,88.6h60.6Z" />
    <path fill="#ffffff" d="M2910.4,1974.2V1730.6h47.5v201.2h110.5v42.4Z" />
  </g>
  <g>
    <path fill="#ffffff" d="M718,2809.6V2380.7h282.6v74.7H801.8V2556H971.1v74.7H801.8v104.2h198.8v74.7Z" />
    <path fill="#ffffff" d="M1233.8,2813.3c-88,0-157.9-59.7-157.9-150.7V2380.7h83.8v278.9c0,49.4,28.9,78.9,74.1,78.9s74.7-29.5,74.7-78.9V2380.7h83.1v281.9C1391.6,2753.6,1321.7,2813.3,1233.8,2813.3Z" />
    <path fill="#ffffff" d="M1712.8,2809.6,1629,2638.5h-60.2v171.1H1485V2380.7h168.1c87.4,0,139.2,59.6,139.2,131.3,0,60.3-36.8,97.6-78.3,112.7l95.8,184.9Zm-65.1-354.2h-78.9v113.2h78.9c36.7,0,60.8-23.5,60.8-56.6S1684.4,2455.4,1647.7,2455.4Z" />
    <path fill="#ffffff" d="M2138.7,2766.3c-30.1,30.1-66.9,47-115.7,47s-86.1-16.9-116.2-47c-43.4-43.4-42.2-97-42.2-171.1s-1.2-127.8,42.2-171.2c30.1-30.1,67.4-47,116.2-47s85.6,16.9,115.7,47c43.4,43.4,42.8,97,42.8,171.2S2182.1,2722.9,2138.7,2766.3Zm-62-291.6c-12.1-13.9-30.8-22.9-53.7-22.9s-42.1,9-54.2,22.9c-16.3,18-20.5,37.9-20.5,120.5s4.2,102.4,20.5,120.4c12.1,13.9,31.3,22.9,54.2,22.9s41.6-9,53.7-22.9c16.2-18,21-37.9,21-120.4S2092.9,2492.7,2076.7,2474.7Z" />
    <path fill="#ffffff" d="M2433.3,2648.2h-82.5v161.4h-83.7V2380.7h166.2c88.6,0,141.6,60.8,141.6,133.7S2521.9,2648.2,2433.3,2648.2Zm-4.2-192.8h-78.3v117.5h78.3c38,0,62.1-23.5,62.1-58.5S2467.1,2455.4,2429.1,2455.4Z" />
    <path fill="#ffffff" d="M2645.4,2809.6V2380.7H2928v74.7H2729.2V2556h169.3v74.7H2729.2v104.2H2928v74.7Z" />
  </g>
  <rect fill="#ffffff" x="513.4" y="2105" width="2555.7" height="38.04" />
  <path fill="#ffffff" d="M2490.9,1582H1998.2c-101.5-5.1-171.4-46-208.2-117.7-19.4-37.7-28-83-22-135.1,5.4-46.5,22.6-86.1,31.7-130h-63.4c-33.8,127.8-68.4,254.9-102.1,382.8h-225c33.6-128,68.1-255.1,102.1-382.8h-71.1c-31.4,129.8-67.9,254.5-100.9,382.8h-225c24.4-93.2,49.9-187.7,75.7-282.5,4.4-16.3,7.8-28.5,12.2-47.2s10.9-45.2-.6-55.6-31.7-5.1-40.7.6c-30.1,19.1-37.9,71.1-48.5,110.6-24.1,89.3-50.1,187.6-73.1,274.1h-225c27.5-109.7,60.5-219.2,87.9-331.7,4.8-19.7,12.5-46.8-4.5-56.2-9.8-5.5-27.9-2.9-36.8,2.6-24.4,14.7-33.7,55.6-41.4,85.3-26.2,100.2-55.3,203.4-80.2,300H513.6c32.9-119.6,66.9-249,99.6-371.1,21.7-81.1,68.5-139.1,130-183.6,31.1-22.6,66.1-41.5,105.4-51.1,45.4-11.2,97.3-9.1,135.1,5.8s63.4,40.4,86,70.5c55.9-39,113.3-84.1,209.5-84.1h293.5c4-16,10.1-30.3,12.3-46.6,4.4-32.7-16.3-55.8-45.2-61.4,2-6.9,2.5-15.5,6.4-20.7h71.2c-13.9-20.1-5.7-52.3,4.5-68.5s28.3-32.5,47.2-42.7,44.5-16.3,61.4-28.4c12.2-8.8,23.6-20.8,31-36.2,2.8-5.7,4.1-13.2,8.4-14.9h2a5,5,0,0,0,1.9,1.3c-2.3,14.5-1.2,29.4,4.6,40.1,4.3,8.1,12.8,17,20,21.3,9.7,5.9,21.4,8.9,29.7,14.9,15.3,11,30.8,32.2,26.6,60.1-3.6,23-15.5,34.3-28.5,48.5-1.4,1.6-4.7,3.4-1.9,4.5,6.1,2.6,27.8,0,35.5,0h34.9c-1.4,7.7-3.1,15-5.8,21.4-55.9,10-81,50.9-90.5,107.3H2154c61.2,0,112.2,5.9,153.2,24.6,58.5,26.6,101.3,78.5,110.6,155.8s-17.3,151-35.5,217.9c-6.6,24-14.5,46.9-15.6,73.7s3.9,52.3,14.9,73.7C2401.5,1552.7,2436.1,1575,2490.9,1582Zm-322-359.5c-9.8-14.9-30.4-25.8-57.5-23.9-38.3,2.6-71.6,26.7-89.9,52.4-13.6,18.9-23.7,48.7-17.5,73s27.2,45.1,54.3,47.9c30.6,3.1,61.5-2.4,97.6,0C2164.5,1328.9,2196.2,1264,2168.9,1222.5Z" />
  <path fill="#ffffff" d="M2768,968c-169.6,0-307,137.4-307,307s137.4,307,307,307,307-137.4,307-307S2937.5,968,2768,968Zm137.8,225.4c-10.7,37-30.8,56.9-65.9,87.4l-142.3,124h147.5l-18,62.8H2594.8l18-62.8L2803.1,1239c18.7-16.6,28-28.4,33.1-46.1,8.1-28.5-3-47.8-32.5-47.8-23,0-50,11.8-60.7,48.8h-69.7c20-69.7,83-111.6,148.4-111.6C2889.3,1082.3,2925.5,1124.7,2905.8,1193.4Z" />
</svg>