<?xml version="1.0" encoding="utf-8"?>
<!-- Generator: Adobe Illustrator 24.2.1, SVG Export Plug-In . SVG Version: 6.00 Build 0)  -->
<svg version="1.1" id="Layer_1" xmlns="http://www.w3.org/2000/svg" xmlns:xlink="http://www.w3.org/1999/xlink" x="0px" y="0px"
	 viewBox="0 0 502 502" style="enable-background:new 0 0 502 502;" xml:space="preserve">
<style type="text/css">
	.st0{fill:#FFA100;}
	.st1{fill:#FFFFFF;}
</style>
<g>
	<g>
		<g>
			<path class="st0" d="M251.01,1C113.15,1,1,113.15,1,251c0,137.85,112.15,250,250.01,250C388.84,501,501,388.85,501,251
				C501,113.15,388.84,1,251.01,1z"/>
		</g>
	</g>
	<g>
		<g>
			<g>
				<path class="st1" d="M414.29,157.18l-28.25,71.84l-22.41-68.97h-36.5l42.27,105.76h31.01c0,0,29.59-59.14,30.6-61.39
					C438.34,188.19,429.83,166.34,414.29,157.18z"/>
				<path class="st1" d="M308.47,243.26c-9.86,0-12.77-8.76-12.77-16.02v-41.71h25.33v-25.48H295.7v-32.02h-2.2
					c-15.34,0-30.65,11.94-30.65,31.99v65.43c0,6.84,0.69,12.62,2.05,18.04c4.62,18.27,22.08,26.16,38.54,26.16
					c10.72,0,20.73-3.17,30.04-9.47l-9.61-22.49C321.77,239.15,316.97,243.26,308.47,243.26z"/>
				<path class="st1" d="M210.75,157.56c-14.47,0-27.13,5.15-35.81,14.66c-5.64-7.77-14.59-14.66-30.73-14.66
					c-11.85,0-26.49,7.71-31.75,16.62l-1.45-16.55h-2.16c-14.58,0.39-29.01,11.8-29.01,27.86v80.3h32.85v-56.82
					c0-6.76,1.94-12.32,5.81-16.68c3.88-4.36,8.94-6.55,15.17-6.55c5.62,0,9.84,1.74,12.65,5.19c2.81,3.46,4.22,8.35,4.22,14.66
					v60.2h31.71v-56.82c0-6.76,1.9-12.32,5.7-16.68c3.8-4.36,8.89-6.55,15.28-6.55c5.62,0,9.84,1.74,12.65,5.19
					c2.82,3.46,4.23,8.35,4.23,14.66v60.2h32.85v-65.39c0-13.22-3.62-23.66-10.84-31.34C234.89,161.4,224.44,157.56,210.75,157.56z"
					/>
			</g>
		</g>
	</g>
	<g>
		<g>
			<path class="st1" d="M240.81,403.7c-21.5,0-39.56-17.72-39.56-39.22v-49.92h19.93v50.66c0,11.24,8.88,19.7,19.63,19.7
				c11.13,0,19.63-8.46,19.63-20.09v-50.27h19.93v50.04C280.38,386.09,262.31,403.7,240.81,403.7z"/>
		</g>
		<path class="st1" d="M339.82,312.49c25.21,0,45.72,20.51,45.72,45.72c0,25.21-20.51,45.72-45.72,45.72
			c-25.21,0-45.72-20.51-45.72-45.72v-69.53h19.22v33.93l1-0.98C317.12,318.88,325.21,312.49,339.82,312.49z M339.9,385.95
			c14.59,0,26.46-12.48,26.46-27.81c0-15.28-11.87-27.71-26.46-27.71c-15.08,0-26.46,11.91-26.46,27.71
			C313.44,373.47,325.31,385.95,339.9,385.95z"/>
		<path class="st1" d="M153.08,403.83c-9.6,0-17.8-2.4-24.38-7.14c-6.45-4.65-10.53-10.98-12.14-18.82l-0.1-0.48l17.33-6.43
			l0.13,0.66c0.81,4.21,2.93,7.78,6.31,10.59c3.55,2.96,7.99,4.46,13.21,4.46c4.14,0,7.44-0.96,9.81-2.86
			c2.37-1.89,3.57-4.41,3.57-7.49c0-2.84-1.02-5-3.03-6.42c-2.01-1.42-5.01-2.62-8.92-3.57l-8.39-1.96
			c-8.65-2.01-15.17-5.08-19.38-9.11c-4.21-4.03-6.34-9.38-6.34-15.9c0-4.86,1.38-9.4,4.11-13.49c2.72-4.09,6.54-7.39,11.34-9.82
			c4.8-2.43,10.3-3.66,16.34-3.66c8.65,0,15.92,2.1,21.61,6.25c5.54,4.04,9.22,9.23,10.94,15.41l0.14,0.5l-17.16,6.79l-0.17-0.62
			c-1-3.73-2.9-6.64-5.64-8.67c-2.9-2.13-6.41-3.21-10.44-3.21c-3.55,0-6.46,0.84-8.65,2.5c-2.19,1.66-3.3,3.76-3.3,6.24
			c0,2.6,1.08,4.58,3.21,5.88c2.13,1.3,5.31,2.45,9.46,3.39l8.03,1.79c7.58,1.78,13.8,4.75,18.49,8.84
			c4.68,4.09,7.06,9.95,7.06,17.42c0,5.33-1.41,10.26-4.2,14.65c-2.79,4.39-6.72,7.9-11.7,10.45
			C165.24,402.54,159.47,403.83,153.08,403.83z"/>
	</g>
</g>
</svg>
