<?xml version="1.0" encoding="UTF-8" standalone="no"?><svg version="1.1" viewBox="0 0 282.2933 378.8589" xmlns="http://www.w3.org/2000/svg" xmlns:svg="http://www.w3.org/2000/svg"><path d="M141.1507 0C63.3213 0 0 63.3187 0 141.1453c0 77.828 63.3213 141.148 141.1507 141.148 77.82 0 141.1426-63.32 141.1426-141.148C282.2933 63.3187 218.9707 0 141.1507 0" fill="#ff3031"/><path d="m231.832 112.101-15.9467 40.5586-12.6533-38.9387h-20.608l23.864 59.708h17.5107s16.7066-33.388 17.2786-34.66c4.132-9.1613-.672-21.4973-9.4453-26.668" fill="#fff"/><path d="M172.0864 160.7001c-5.5667 0-7.212-4.948-7.212-9.0453v-23.5507h14.2987v-14.384h-14.2987v-18.08h-1.2413c-8.664 0-17.304 6.7427-17.304 18.06v36.94c0 3.8627.3906 7.1267 1.16 10.184 2.6093 10.316 12.468 14.7707 21.7613 14.7707 6.0547 0 11.7013-1.7867 16.9587-5.3493l-5.424-12.7c-1.192.8346-3.8987 3.1546-8.6987 3.1546" fill="#fff"/><path d="M116.9153 112.3147c-8.1693 0-15.3186 2.908-20.22 8.276-3.184-4.3894-8.2373-8.276-17.348-8.276-6.692 0-14.9586 4.356-17.928 9.3853l-.8186-9.3427h-1.2214c-8.2293.2174-16.376 6.66-16.376 15.7294v45.3373h18.5454v-32.0813c0-3.816 1.0946-6.9587 3.28-9.4174 2.192-2.4586 5.0466-3.696 8.5666-3.696 3.1707 0 5.5534.9827 7.144 2.9294 1.584 1.956 2.3827 4.712 2.3827 8.28v33.9853h17.9013v-32.0813c0-3.816 1.0707-6.9587 3.2174-9.4174 2.1426-2.4586 5.02-3.696 8.628-3.696 3.1706 0 5.556.9827 7.14 2.9294 1.5933 1.956 2.3866 4.712 2.3866 8.28v33.9853h18.548v-36.92c0-7.4613-2.0426-13.3613-6.12-17.6947-4.08-4.3266-9.9786-6.4946-17.708-6.4946" fill="#fff"/><path d="M152.8544 337.0163c-8.3093 0-15.0693 7.1066-15.0693 15.8426 0 8.704 6.76 15.784 15.0693 15.784 8.5907 0 15.0693-6.7853 15.0693-15.784 0-8.736-6.76-15.8426-15.0693-15.8426m.044 41.8426c-14.36 0-26.0427-11.684-26.0427-26.044 0-14.36 11.6827-26.0413 26.0427-26.0413s26.0413 11.6813 26.0413 26.0413v25.18h-10.948v-5.9693c-.3346.376-2.2466 2.8867-5.62 4.7187-2.8906 1.5693-5.652 2.1146-9.4733 2.1146" fill="#000"/><path d="M107.4117 377.908v-28.2347c0-6.5973-4.5133-11.7653-10.276-11.7653-5.7613 0-10.2746 5.168-10.2746 11.7653v28.2347h-10.66v-28.2347c0-6.4866-4.636-11.7653-10.3347-11.7653s-10.336 5.2787-10.336 11.7653v28.2347H44.2397v-28.2347c0-12.1026 9.4454-21.9493 21.0547-21.9493 5.9853 0 11.7133 2.684 15.7133 7.364l.2454.2867.2453-.2867c4.0013-4.68 9.7293-7.364 15.716-7.364 11.608 0 21.0533 9.8467 21.0533 21.9493v28.2347Z" fill="#000"/><path d="m238.0541 377.9964-19.9546-25.6147 18.1706-23.328h-13.8026l-11.2694 14.4667-11.2706-14.4667h-13.804l18.172 23.328-19.9534 25.6147h13.8027l13.0533-16.7547 13.0507 16.7547Z" fill="#000"/></svg>