<?xml version="1.0" encoding="UTF-8" standalone="no"?>
<svg
   xmlns:dc="http://purl.org/dc/elements/1.1/"
   xmlns:cc="http://creativecommons.org/ns#"
   xmlns:rdf="http://www.w3.org/1999/02/22-rdf-syntax-ns#"
   xmlns:svg="http://www.w3.org/2000/svg"
   xmlns="http://www.w3.org/2000/svg"
   xmlns:sodipodi="http://sodipodi.sourceforge.net/DTD/sodipodi-0.dtd"
   xmlns:inkscape="http://www.inkscape.org/namespaces/inkscape"
   width="100"
   height="74"
   viewBox="0 0 26.458333 19.579166"
   version="1.1"
   id="svg8"
   inkscape:version="1.0.2-2 (e86c870879, 2021-01-15)"
   sodipodi:docname="mp.svg">
  <title
     id="title11">Multipremier logo</title>
  <defs
     id="defs2" />
  <sodipodi:namedview
     id="base"
     pagecolor="#ffffff"
     bordercolor="#666666"
     borderopacity="1.0"
     inkscape:pageopacity="0.0"
     inkscape:pageshadow="2"
     inkscape:zoom="3.959798"
     inkscape:cx="40.355081"
     inkscape:cy="60.782316"
     inkscape:document-units="px"
     inkscape:current-layer="layer1"
     inkscape:document-rotation="0"
     showgrid="false"
     units="px"
     inkscape:showpageshadow="false"
     inkscape:window-width="1366"
     inkscape:window-height="745"
     inkscape:window-x="-8"
     inkscape:window-y="-8"
     inkscape:window-maximized="1" />
  <metadata
     id="metadata5">
    <rdf:RDF>
      <cc:Work
         rdf:about="">
        <dc:format>image/svg+xml</dc:format>
        <dc:type
           rdf:resource="http://purl.org/dc/dcmitype/StillImage" />
        <dc:title>Multipremier logo</dc:title>
        <cc:license
           rdf:resource="http://scripts.sil.org/OFL" />
        <dc:date>22 feb 2021</dc:date>
      </cc:Work>
      <cc:License
         rdf:about="http://scripts.sil.org/OFL">
        <cc:permits
           rdf:resource="http://scripts.sil.org/pub/OFL/Reproduction" />
        <cc:permits
           rdf:resource="http://scripts.sil.org/pub/OFL/Distribution" />
        <cc:permits
           rdf:resource="http://scripts.sil.org/pub/OFL/Embedding" />
        <cc:permits
           rdf:resource="http://scripts.sil.org/pub/OFL/DerivativeWorks" />
        <cc:requires
           rdf:resource="http://scripts.sil.org/pub/OFL/Notice" />
        <cc:requires
           rdf:resource="http://scripts.sil.org/pub/OFL/Attribution" />
        <cc:requires
           rdf:resource="http://scripts.sil.org/pub/OFL/ShareAlike" />
        <cc:requires
           rdf:resource="http://scripts.sil.org/pub/OFL/DerivativeRenaming" />
        <cc:requires
           rdf:resource="http://scripts.sil.org/pub/OFL/BundlingWhenSelling" />
      </cc:License>
    </rdf:RDF>
  </metadata>
  <g
     inkscape:label="Capa 1"
     inkscape:groupmode="layer"
     id="layer1">
    <path
       id="path3-0-1"
       style="fill:#000000;stroke-width:0.352776"
       d="m 6.6352525,0.10852508 c 0,0 -2.9941879,-0.00217 -4.4912814,-0.004753 L 0.05651533,12.534964 H 3.9350377 L 4.9046688,6.9111041 6.6500046,12.534964 h 1.9392612 l 3.6845972,-5.6238599 -0.96963,5.6238599 h 3.296744 l 0.843348,-5.0434963 -4.926191,-3.8933189 5.49873,0.8437796 0.90428,-4.33811435 H 11.904426 L 8.7080306,6.791308 Z M 17.938945,2.795111 l 0.663046,2.2960681 3.81776,0.401151 -2.63737,2.6494836 1.31766,3.7640803 -2.820597,-2.1919915 -3.744488,3.9001015 -0.310283,1.551409 h 3.180389 l 0.456652,-2.685062 2.838486,0.0012 c 0.285066,1.25e-4 0.684008,-0.06916 0.684008,-0.06916 5.917148,-0.931204 6.931261,-9.0883655 1.304235,-9.5942836 -0.166152,-0.019324 -2.383611,-0.023033 -2.383611,-0.023033 z M 3.2413923,16.80292 c -0.070474,-1.15e-4 -0.1409074,-1.15e-4 -0.2114262,1.35e-4 -7.44e-5,0.524666 -0.00196,1.049164 -0.00134,1.57383 0.00692,0.30193 0.083556,0.622453 0.3082375,0.847499 0.2155864,0.217898 0.5509307,0.288978 0.8546452,0.255521 0.2346073,-0.0196 0.4662861,-0.118567 0.617344,-0.293734 0.207547,-0.237626 0.2737671,-0.556053 0.2784027,-0.857799 0.00165,-0.507675 0.00196,-1.0154 0.00196,-1.523078 -0.1410366,-4.39e-4 -0.2821165,-1.33e-4 -0.4231531,-5.86e-4 -7.936e-4,0.524496 -6.303e-4,1.048957 -0.00217,1.573451 -0.00754,0.185868 -0.048309,0.385684 -0.187189,0.525353 -0.2293145,0.227917 -0.6795899,0.211023 -0.875489,-0.0495 -0.1128375,-0.14608 -0.1454427,-0.332622 -0.1497001,-0.509837 -2.935e-4,-0.513622 0.00124,-1.027275 0.00124,-1.540727 -0.070516,-1.47e-4 -0.1410272,-4.41e-4 -0.2115006,-4.41e-4 z m 21.6784647,0.06094 c -0.184777,-2.93e-4 -0.369581,-1.4e-4 -0.554358,0.0011 4.39e-4,0.879597 -0.0014,1.759236 -0.0025,2.638834 0.141389,0.0025 0.282946,7.1e-4 0.424514,0.0014 -7.1e-4,-0.306679 10e-4,-0.613484 4.4e-4,-0.920163 0.176385,-2.93e-4 0.352945,1.46e-4 0.529509,2.93e-4 0.19638,0.307075 0.393117,0.614 0.589495,0.921076 0.166387,9.04e-4 0.332969,0.001 0.499359,5.87e-4 -0.217595,-0.332418 -0.432558,-0.666326 -0.648187,-0.999929 0.116261,-0.03639 0.227623,-0.09234 0.316089,-0.173787 0.155479,-0.137612 0.240807,-0.337356 0.253713,-0.537321 0.02151,-0.228836 -0.02957,-0.472925 -0.184152,-0.654563 C 25.980819,16.95668 25.723443,16.86637 25.474222,16.8654 25.289447,16.864815 25.104718,16.8642 24.919943,16.8637 Z M 13.69063,16.85105 c -0.184776,-2.94e-4 -0.369505,-1.4e-4 -0.554282,0.0011 4.1e-4,0.879598 -0.0014,1.759161 -0.0025,2.638758 0.141392,0.0025 0.282944,7.1e-4 0.424516,0.0014 -7.1e-4,-0.306681 0.0011,-0.613485 3.81e-4,-0.920164 0.176386,-2.94e-4 0.352947,1.46e-4 0.529509,2.93e-4 0.196382,0.307076 0.393117,0.614 0.589496,0.921076 0.166387,9.04e-4 0.332896,0.001 0.499284,5.86e-4 -0.217596,-0.332417 -0.432483,-0.666324 -0.648113,-0.999927 0.116265,-0.03639 0.227549,-0.09234 0.316014,-0.173787 0.15548,-0.137613 0.240882,-0.337358 0.253789,-0.537322 0.02151,-0.228837 -0.02966,-0.47285 -0.184227,-0.654488 -0.162959,-0.184706 -0.42026,-0.275093 -0.669482,-0.276062 -0.184775,-5.87e-4 -0.36958,-0.0012 -0.554355,-0.0015 z m -2.847303,-0.0032 c -0.0013,0.880614 -0.0021,1.761245 -0.0034,2.641863 0.141572,-7.11e-4 0.283321,0.0014 0.424896,-7.11e-4 -3.81e-4,-0.282892 9.04e-4,-0.565761 7.1e-4,-0.848654 0.100514,-4.39e-4 0.200984,8.1e-5 0.301495,1.47e-4 0.149786,-9.04e-4 0.302279,0.0086 0.448715,-0.02902 0.22893,-0.05002 0.440957,-0.184035 0.559191,-0.379627 0.138438,-0.221566 0.154312,-0.495421 0.102829,-0.743543 -0.05168,-0.232319 -0.210352,-0.447088 -0.439105,-0.548958 -0.130791,-0.05995 -0.276069,-0.0887 -0.420852,-0.08973 -0.324919,-10e-4 -0.649663,-2.92e-4 -0.974402,-0.0018 z m 7.340175,0.0087 c -0.07567,-2.93e-4 -0.151347,0 -0.226956,0.0019 0.0023,0.207456 -0.0042,0.414886 0.0046,0.622009 -0.0073,0.187057 -0.0051,0.374235 -0.0053,0.56147 -4.26e-4,0.06219 -5.28e-4,0.124621 -4.41e-4,0.186805 -2.34e-4,0.05098 -2.63e-4,0.101899 5e-5,0.15287 0.0025,0.317044 -0.0029,0.634291 -0.0011,0.951676 -4.24e-4,0.05436 -5.57e-4,0.108726 -7.75e-4,0.163095 0.139426,0.004 0.279228,7.1e-4 0.418833,0.0025 0.0011,-0.628137 -8.39e-4,-1.256206 0.0036,-1.884339 0.253566,0.414183 0.500561,0.832208 0.757519,1.244357 0.255241,-0.416651 0.510285,-0.83359 0.76428,-1.250921 0.0025,0.630689 -0.0012,1.261512 -7.76e-4,1.89237 0.141216,-6e-6 0.282592,2.94e-4 0.423986,4.4e-4 8.4e-4,-0.880446 0.0017,-1.760886 0.0031,-2.641333 -0.150855,-1.47e-4 -0.301712,-0.0012 -0.452392,4e-6 -0.243461,0.416494 -0.487646,0.832626 -0.733068,1.247928 -0.23999,-0.417905 -0.4866,-0.832607 -0.728195,-1.250003 -0.07569,8.2e-5 -0.151357,-5.87e-4 -0.22703,-7.11e-4 z m -2.559217,-0.0029 c -0.0013,0.880614 -0.0013,1.761037 -0.0036,2.641482 0.599315,7.1e-4 1.198665,0.0016 1.797982,0.0021 -7.74e-4,-0.08903 -3.67e-4,-0.178092 -7e-5,-0.266952 -1.22e-4,-0.04911 -9.1e-5,-0.09803 7.1e-4,-0.14696 -0.459169,-0.001 -0.918307,-9.04e-4 -1.37748,-0.0022 6.31e-4,-0.236677 9.04e-4,-0.473123 8.4e-4,-0.7098 0.402579,2.93e-4 0.805169,5.86e-4 1.207568,0.0014 1.61e-4,-0.138133 1.15e-4,-0.2761 6.3e-4,-0.414062 -0.4024,-4.39e-4 -0.805016,-0.0011 -1.207417,-0.0012 -9.5e-5,-0.229712 2.06e-4,-0.459257 6.46e-4,-0.688967 0.453281,5.86e-4 0.906401,7.1e-4 1.359679,0.0018 0.0067,-0.137786 0.0025,-0.275718 0.0037,-0.41368 -0.594313,-0.0026 -1.188639,-0.0012 -1.783133,-0.0029 z m 5.376674,0.0063 c -0.0012,0.880617 -0.0017,1.761039 -0.0032,2.641485 0.141214,-6e-6 0.282467,10e-4 0.423683,1.11e-4 0.0013,-0.880103 0.0017,-1.760184 0.0033,-2.640118 -0.141391,-0.0019 -0.282618,-4.4e-4 -0.423834,-0.0014 z m 1.031217,0.0012 c -0.0012,0.880617 -0.0012,1.761039 -0.0036,2.641485 0.599315,7.1e-4 1.198591,0.0015 1.797908,0.0021 -7.1e-4,-0.08903 -2.94e-4,-0.178091 7e-6,-0.266952 -1.22e-4,-0.0491 -1.3e-4,-0.09802 5.86e-4,-0.146958 -0.45917,-10e-4 -0.918311,-9.04e-4 -1.377479,-0.0021 5.86e-4,-0.236676 9.04e-4,-0.473198 9.04e-4,-0.709875 0.402578,2.92e-4 0.805166,5.86e-4 1.207568,0.0014 1.45e-4,-0.138131 1.13e-4,-0.276099 5.86e-4,-0.414062 -0.4024,-4.39e-4 -0.804941,-0.0011 -1.207343,-0.0012 -9.1e-5,-0.229713 1.46e-4,-0.459257 5.87e-4,-0.688968 0.453282,5.86e-4 0.906398,7.1e-4 1.35968,0.0018 0.0067,-0.137785 0.0025,-0.275795 0.0037,-0.413756 -0.594317,-0.0026 -1.188565,-0.0012 -1.783059,-0.0029 z M 2.2238428,16.839212 C 2.148367,16.839066 2.0729222,16.839171 1.997493,16.839923 1.7554611,17.256928 1.5093247,17.671546 1.2658657,18.0877 1.0231963,17.670642 0.77926406,17.254034 0.53570073,16.837314 0.3853816,16.837169 0.2350676,16.836875 0.08474744,16.837022 c -4.836e-4,0.880277 -0.002067,1.760526 -0.002893,2.640802 0.13943073,-5.86e-4 0.27892247,0.0012 0.41853301,-4.4e-4 0.00124,-0.627118 -0.002273,-1.254423 0.004133,-1.881534 0.23074259,0.387481 0.46769553,0.771753 0.70004595,1.158385 0.017102,0.0289 0.036219,0.05679 0.056183,0.084 0.254707,-0.417162 0.5106498,-0.833688 0.763751,-1.251529 0.00217,0.63103 -5.87e-4,1.262025 -0.00114,1.893052 0.1412132,9.04e-4 0.2823924,2.93e-4 0.4236067,9.04e-4 0.00155,-0.880107 0.00207,-1.760374 0.00331,-2.64065 -0.075424,-1.47e-4 -0.1509515,-5.86e-4 -0.2264242,-7.1e-4 z m 6.067612,0.0071 c -0.3257672,-2.93e-4 -0.6515592,-5.86e-4 -0.977282,-5.86e-4 1.901e-4,0.14289 7.44e-5,0.285793 -2.646e-4,0.428682 0.2545799,5.87e-4 0.5091287,9.05e-4 0.7638873,9.05e-4 -0.00155,0.737216 -0.00114,1.474241 -0.0032,2.211287 0.1424636,0.0011 0.2849303,0.001 0.4273949,9.04e-4 1.416e-4,-0.737218 0.00207,-1.474449 0.00207,-2.211666 0.2547576,5.86e-4 0.5095069,9.04e-4 0.7642655,9.04e-4 -1.34e-5,-0.14289 -2.68e-5,-0.285793 4.981e-4,-0.428683 -0.3257217,-7.11e-4 -0.6515138,-0.0012 -0.9772799,-0.0017 z m 1.6581433,0.002 c -0.070629,-4.8e-5 -0.1412971,1.28e-4 -0.2118789,1.32e-4 -0.00134,0.880106 -0.00145,1.760167 -0.00362,2.640273 0.141393,7.1e-4 0.2827428,0.0012 0.4241378,1.45e-4 8.39e-4,-0.879937 0.0015,-1.759654 0.0033,-2.63959 -0.07058,-7.1e-4 -0.141251,-10e-4 -0.2118786,-10e-4 h -7.13e-5 z m -3.8222373,-0.0042 c -0.1413931,1.47e-4 -0.2826187,-5.85e-4 -0.4238341,-2.93e-4 -4.836e-4,0.880108 -0.00114,1.760167 -0.0032,2.640272 0.5630737,0.001 1.1261266,0.0022 1.6892023,0.0017 -0.00703,-0.141199 0.00465,-0.282372 -0.00465,-0.423235 -0.4204323,5.86e-4 -0.8407219,-2.94e-4 -1.2609733,-0.0012 0.00269,-0.739082 0.00196,-1.478129 0.00351,-2.217042 z m 18.6625432,0.44297 c 0.222265,0.002 0.444708,-7.1e-4 0.667149,0.0025 0.144423,0.0034 0.298437,0.05929 0.378098,0.17967 0.0679,0.0988 0.07131,0.221964 0.06225,0.335959 -0.01264,0.122996 -0.08738,0.239472 -0.200635,0.301187 -0.08825,0.05035 -0.192695,0.06912 -0.294454,0.06798 -0.204594,-7.1e-4 -0.40918,-4.39e-4 -0.613594,-0.001 2.93e-4,-0.295294 2.93e-4,-0.590764 0.0011,-0.886227 z m -11.22915,-0.01288 c 0.222264,0.002 0.444707,-7.11e-4 0.667148,0.0025 0.144424,0.0034 0.298437,0.05928 0.378099,0.179668 0.0679,0.0988 0.07131,0.221964 0.06226,0.33596 -0.01264,0.122996 -0.08738,0.239471 -0.200639,0.301186 -0.08825,0.05035 -0.192694,0.06912 -0.294454,0.06798 -0.204591,-7.1e-4 -0.409256,-4.39e-4 -0.61367,-0.001 3.38e-4,-0.295294 3.82e-4,-0.590763 0.0012,-0.886227 z m -2.026756,-0.002 c 0.08897,-6.6e-5 0.177894,6.2e-5 0.266799,0.0014 0.13782,0.0024 0.280099,0.05265 0.371387,0.153679 0.09735,0.110721 0.113708,0.264644 0.09748,0.403269 -0.01946,0.152892 -0.127801,0.293801 -0.278722,0.351395 -0.07752,0.03271 -0.163399,0.03868 -0.246775,0.04198 -0.159247,1.47e-4 -0.318323,-5.86e-4 -0.477392,-2.93e-4 -0.0017,-0.317213 4.4e-4,-0.634464 2.78e-4,-0.951677 0.08899,5.86e-4 0.177978,2.92e-4 0.266952,2.92e-4 z"
       sodipodi:nodetypes="cccccccccccccccccccccccccccsccccscccccccccccccsssccccccccccccsssccccccccccccssscccccccccssscccccccccccccccccsssccccccccccccssccccsccccccccccccccccccccccccccccccccsccccccccsssccccscssccccccsscccccccssccccccssscccccccss" />
  </g>
</svg>
