<?xml version="1.0" encoding="UTF-8"?> <svg xmlns="http://www.w3.org/2000/svg" width="242" height="100" viewBox="0 0 242 100" fill="none"> <path d="M130 0.599995L157 100H61.16V61.08H27.84V100H0.540009V0.599995H27.84V37.28H61.16V0.599995H130Z" fill="#154982"></path> <path d="M241.1 74.52C241.1 80.4933 239.467 85.3467 236.2 89.08C233.027 92.8133 228.733 95.5667 223.32 97.34C217.907 99.1133 211.933 100 205.4 100H149L114 0.599995L214.22 0.599995C218.887 0.599995 222.9 1.86 226.26 4.38C229.713 6.80666 232.327 9.98 234.1 13.9C235.967 17.82 236.9 21.88 236.9 26.08C236.9 30.6533 235.687 35.0867 233.26 39.38C230.927 43.6733 227.38 46.8933 222.62 49.04C228.313 50.72 232.793 53.66 236.06 57.86C239.42 62.06 241.1 67.6133 241.1 74.52ZM213.38 68.92C213.38 67.24 213.053 65.7933 212.4 64.58C211.84 63.2733 211.047 62.2467 210.02 61.5C208.993 60.7533 207.78 60.38 206.38 60.38H183.84V77.04H205.4C206.893 77.04 208.247 76.7133 209.46 76.06C210.673 75.4067 211.607 74.4733 212.26 73.26C213.007 72.0467 213.38 70.6 213.38 68.92ZM183.84 23.84V39.1H202.46C203.673 39.1 204.84 38.9133 205.96 38.54C207.08 38.0733 208.013 37.28 208.76 36.16C209.507 35.04 209.88 33.4533 209.88 31.4C209.88 29.5333 209.553 28.0867 208.9 27.06C208.34 25.94 207.547 25.1467 206.52 24.68C205.587 24.12 204.513 23.84 203.3 23.84H183.84Z" fill="#245689"></path> <path d="M173.1 74.52C173.1 80.4933 171.467 85.3467 168.2 89.08C165.027 92.8133 160.733 95.5667 155.32 97.34C149.907 99.1133 143.933 100 137.4 100H88.54V0.599991H146.22C150.887 0.599991 154.9 1.85999 158.26 4.37999C161.713 6.80666 164.327 9.98 166.1 13.9C167.967 17.82 168.9 21.88 168.9 26.08C168.9 30.6533 167.687 35.0867 165.26 39.38C162.927 43.6733 159.38 46.8933 154.62 49.04C160.313 50.72 164.793 53.66 168.06 57.86C171.42 62.06 173.1 67.6133 173.1 74.52ZM145.38 68.92C145.38 67.24 145.053 65.7933 144.4 64.58C143.84 63.2733 143.047 62.2467 142.02 61.5C140.993 60.7533 139.78 60.38 138.38 60.38H115.84V77.04H137.4C138.893 77.04 140.247 76.7133 141.46 76.06C142.673 75.4067 143.607 74.4733 144.26 73.26C145.007 72.0467 145.38 70.6 145.38 68.92ZM115.84 23.84V39.1H134.46C135.673 39.1 136.84 38.9133 137.96 38.54C139.08 38.0733 140.013 37.28 140.76 36.16C141.507 35.04 141.88 33.4533 141.88 31.4C141.88 29.5333 141.553 28.0867 140.9 27.06C140.34 25.94 139.547 25.1467 138.52 24.68C137.587 24.12 136.513 23.84 135.3 23.84H115.84Z" fill="#CAE8EE"></path> </svg> 