<?xml version="1.0" encoding="UTF-8" standalone="no"?>
<svg
   xmlns:dc="http://purl.org/dc/elements/1.1/"
   xmlns:cc="http://creativecommons.org/ns#"
   xmlns:rdf="http://www.w3.org/1999/02/22-rdf-syntax-ns#"
   xmlns:svg="http://www.w3.org/2000/svg"
   xmlns="http://www.w3.org/2000/svg"
   xmlns:sodipodi="http://sodipodi.sourceforge.net/DTD/sodipodi-0.dtd"
   xmlns:inkscape="http://www.inkscape.org/namespaces/inkscape"
   version="1.0"
   width="185"
   height="63"
   viewBox="0 0 148 50.4"
   preserveAspectRatio="xMidYMid meet"
   id="svg2"
   inkscape:version="0.48.4 r9939"
   sodipodi:docname="transparent.svg">
  <title
     id="title3017">NatGeo People logo</title>
  <defs
     id="defs38" />
  <sodipodi:namedview
     pagecolor="#ffffff"
     bordercolor="#666666"
     borderopacity="1"
     objecttolerance="10"
     gridtolerance="10"
     guidetolerance="10"
     inkscape:pageopacity="0"
     inkscape:pageshadow="2"
     inkscape:window-width="1600"
     inkscape:window-height="844"
     id="namedview36"
     showgrid="false"
     showborder="true"
     inkscape:showpageshadow="false"
     inkscape:zoom="1"
     inkscape:cx="85.566701"
     inkscape:cy="35.85456"
     inkscape:window-x="-4"
     inkscape:window-y="-4"
     inkscape:window-maximized="1"
     inkscape:current-layer="svg2" />
  <metadata
     id="metadata4">
Created by potrace 1.12, written by Peter Selinger 2001-2015
<rdf:RDF>
  <cc:Work
     rdf:about="">
    <dc:format>image/svg+xml</dc:format>
    <dc:type
       rdf:resource="http://purl.org/dc/dcmitype/StillImage" />
    <dc:title>NatGeo People logo</dc:title>
  </cc:Work>
</rdf:RDF>
</metadata>
  <g
     transform="matrix(0.00646376,0,0,-0.0065884,-2.9892912,50.568854)"
     id="g6"
     style="fill:#000000;stroke:none">
    <path
       d="m 11671,7375 c -99,-22 -159,-44 -246,-88 -351,-182 -557,-587 -531,-1046 18,-314 109,-541 295,-734 193,-200 383,-277 685,-277 173,0 298,21 473,80 65,22 119,40 120,40 2,0 3,200 3,445 l 0,445 -190,0 -190,0 0,-321 0,-320 -37,-16 c -66,-27 -167,-38 -240,-26 -102,18 -223,81 -296,156 -292,296 -301,900 -19,1186 48,49 90,79 149,108 171,86 329,81 535,-14 42,-20 83,-33 90,-30 16,6 118,228 118,257 0,31 -107,95 -219,132 -90,29 -107,31 -266,34 -122,3 -188,-1 -234,-11 z"
       id="path10"
       inkscape:connector-curvature="0" />
    <path
       d="m 14475,7370 c -282,-74 -502,-296 -608,-612 -129,-384 -62,-908 152,-1197 123,-166 289,-280 457,-316 94,-20 296,-19 387,1 190,43 363,165 484,344 146,216 223,568 194,881 -28,303 -127,517 -324,705 -107,103 -210,163 -333,194 -104,27 -308,27 -409,0 z m 361,-344 c 95,-45 152,-105 208,-220 84,-171 117,-374 96,-601 -34,-377 -173,-600 -402,-646 -113,-23 -259,29 -342,122 -172,191 -242,614 -160,959 22,92 95,237 148,296 47,53 136,107 202,124 72,17 169,4 250,-34 z"
       id="path12"
       inkscape:connector-curvature="0" />
    <path
       d="m 730,4370 0,-2990 2095,0 2095,0 0,2990 0,2990 -2095,0 -2095,0 0,-2990 z m 3549,2346 c 8,-10 10,-633 9,-2357 l -3,-2344 -1449,-3 c -1062,-1 -1452,1 -1462,9 -12,10 -14,394 -14,2354 0,1288 3,2345 7,2348 3,4 658,7 1453,7 1206,0 1449,-2 1459,-14 z"
       id="path14"
       inkscape:connector-curvature="0"
       style="fill:#ffcc00" />
    <path
       d="m 5995,7348 c -3,-7 -4,-479 -3,-1048 l 3,-1035 152,-3 153,-3 2,717 3,717 119,-189 c 137,-216 489,-744 694,-1039 l 138,-200 142,-3 142,-3 0,1051 0,1050 -155,0 -155,0 0,-694 c 0,-382 -4,-697 -8,-700 -5,-3 -44,52 -88,122 -106,172 -494,754 -693,1040 l -162,232 -140,0 c -102,0 -141,-3 -144,-12 z"
       id="path16"
       inkscape:connector-curvature="0" />
    <path
       d="m 8305,7338 c -4,-13 -162,-481 -351,-1040 -189,-559 -344,-1021 -344,-1028 0,-7 51,-10 166,-8 l 166,3 88,280 87,280 280,3 c 244,2 282,0 293,-13 7,-9 47,-136 89,-283 l 76,-267 213,-3 c 169,-2 212,0 212,11 0,7 -146,478 -324,1047 l -323,1035 -161,3 c -159,2 -161,2 -167,-20 z m 228,-851 c 54,-199 98,-365 97,-369 0,-12 -384,-10 -396,2 -8,8 9,76 53,223 35,117 80,278 101,360 20,81 39,147 42,147 3,0 49,-163 103,-363 z"
       id="path18"
       inkscape:connector-curvature="0" />
    <path
       d="m 9030,7205 0,-155 253,0 c 183,0 256,-3 265,-12 9,-9 12,-222 12,-895 l 0,-883 190,0 190,0 2,893 3,892 263,3 262,2 0,155 0,155 -720,0 -720,0 0,-155 z"
       id="path20"
       inkscape:connector-curvature="0" />
    <path
       d="m 12710,6310 0,-1050 530,0 530,0 0,155 0,155 -329,0 c -266,0 -331,3 -340,14 -8,9 -11,101 -9,317 l 3,304 278,3 277,2 0,150 0,150 -269,0 c -215,0 -271,3 -280,14 -8,9 -11,88 -9,267 l 3,254 288,3 287,2 0,155 0,155 -480,0 -480,0 0,-1050 z"
       id="path22"
       inkscape:connector-curvature="0" />
    <path
       d="m 18990,3460 0,-2110 428,2 427,3 3,2108 2,2107 -430,0 -430,0 0,-2110 z"
       id="path24"
       inkscape:connector-curvature="0" />
    <path
       d="m 7535,4484 c -11,-3 -56,-12 -100,-20 -212,-40 -421,-163 -547,-319 -28,-35 -55,-62 -60,-59 -4,3 -8,77 -8,165 l 0,159 -415,0 -415,0 0,-2055 0,-2055 435,0 435,0 0,695 0,696 93,-94 c 218,-221 466,-317 819,-317 593,0 1046,332 1239,910 75,225 102,402 101,675 0,536 -137,939 -419,1235 -182,191 -375,303 -623,362 -67,16 -129,21 -300,23 -118,2 -224,2 -235,-1 z m 170,-669 c 70,-19 142,-55 222,-111 265,-188 387,-695 287,-1184 -72,-351 -309,-572 -629,-587 -169,-8 -334,44 -463,146 -94,75 -183,218 -231,375 -96,312 -72,756 55,1009 128,254 351,387 621,371 46,-3 108,-12 138,-19 z"
       id="path26"
       inkscape:connector-curvature="0" />
    <path
       d="m 10499,4475 c -504,-82 -902,-370 -1124,-814 -164,-329 -214,-772 -134,-1186 81,-424 328,-786 671,-988 222,-131 462,-194 779,-204 350,-11 609,40 863,170 237,121 408,299 539,562 43,87 117,273 117,295 0,7 -124,10 -383,10 l -382,0 -22,-48 c -60,-131 -243,-269 -423,-318 -97,-27 -327,-25 -434,5 -199,54 -321,149 -399,311 -25,52 -52,122 -61,155 -20,84 -39,214 -32,231 5,12 160,14 1096,14 l 1090,0 0,179 c 0,289 -41,519 -133,750 -152,383 -479,702 -839,820 -153,51 -241,63 -478,67 -160,2 -250,-1 -311,-11 z m 412,-656 c 30,-6 92,-29 138,-51 114,-54 167,-111 237,-253 51,-103 107,-271 97,-287 -2,-5 -294,-8 -647,-8 -507,0 -646,3 -654,13 -12,14 5,108 32,185 81,228 279,381 536,415 51,7 198,-1 261,-14 z"
       id="path28"
       inkscape:connector-curvature="0" />
    <path
       d="m 13664,4475 c -590,-90 -1021,-445 -1203,-991 -118,-359 -117,-858 4,-1220 75,-227 172,-382 344,-555 220,-220 453,-340 776,-401 103,-19 153,-22 360,-23 252,0 323,7 495,50 125,32 212,65 340,131 529,271 815,863 761,1575 -34,440 -167,756 -431,1019 -212,212 -452,337 -767,401 -138,28 -533,36 -679,14 z m 472,-661 c 196,-50 339,-172 434,-369 118,-244 144,-637 64,-955 -87,-343 -308,-539 -629,-557 -235,-13 -456,80 -570,241 -124,176 -182,371 -192,649 -18,480 133,819 422,953 61,28 94,37 215,58 44,8 196,-4 256,-20 z"
       id="path30"
       inkscape:connector-curvature="0" />
    <path
       d="m 17155,4474 c -112,-20 -259,-73 -351,-125 -84,-48 -199,-150 -260,-228 -20,-28 -41,-48 -46,-45 -4,3 -8,79 -8,170 l 0,164 -410,0 -410,0 0,-2055 0,-2055 435,0 435,0 0,690 c 0,380 2,690 5,690 3,0 36,-32 73,-71 210,-224 475,-329 827,-329 235,0 420,41 599,133 418,214 677,642 737,1216 15,143 6,458 -16,600 -23,147 -66,309 -114,432 -121,309 -359,570 -646,710 -180,87 -345,119 -605,118 -96,0 -198,-7 -245,-15 z m 215,-656 c 25,-5 83,-28 129,-50 148,-70 269,-213 342,-402 124,-320 112,-776 -28,-1066 -38,-80 -59,-109 -132,-181 -101,-101 -191,-151 -314,-174 -308,-59 -594,75 -729,340 -99,193 -134,378 -125,655 11,328 79,535 228,694 136,145 304,212 504,200 44,-3 100,-10 125,-16 z"
       id="path32"
       inkscape:connector-curvature="0" />
    <path
       d="m 21367,4474 c -335,-52 -624,-200 -855,-438 -315,-324 -460,-761 -431,-1292 24,-450 168,-786 456,-1065 282,-274 628,-399 1100,-399 221,0 392,25 573,82 341,108 575,309 744,638 55,108 126,282 126,311 0,5 -156,9 -382,9 l -383,0 -19,-48 c -24,-58 -156,-192 -238,-240 -169,-100 -409,-128 -621,-73 -283,74 -432,257 -483,594 -8,54 -12,102 -9,107 4,6 417,10 1095,10 l 1088,0 7,83 c 8,92 -8,344 -30,464 -65,370 -198,637 -434,874 -220,221 -450,339 -751,384 -120,19 -433,18 -553,-1 z m 430,-659 c 68,-16 168,-62 221,-103 50,-38 120,-143 163,-243 39,-90 80,-228 72,-241 -2,-5 -294,-8 -648,-8 -504,0 -646,3 -652,13 -10,16 -6,47 18,135 49,186 167,325 344,408 62,28 122,44 220,58 50,7 195,-3 262,-19 z"
       id="path34"
       inkscape:connector-curvature="0" />
  </g>
</svg>
