<svg xmlns="http://www.w3.org/2000/svg" width="396" height="272" viewBox="0 0 198 136"><path fill="#505557" d="M130.80125 119.8388v-2.781h-4.73c.269-.442.513-1.063.728-1.881.249-.945.375-1.84.375-2.658v-4.436c0-.576-.187-1.045-.551-1.414-.367-.363-.837-.547-1.414-.547h-21.896l1.443 2.779h17.779v3.745c0 .82-.04 1.634-.117 2.42-.072.742-.228 1.406-.45 1.992h-22.419l1.443 2.781h12v5.014h-10.117l1.446 2.779h18.082v8.055h4.636v-8.877c0-.575-.187-1.043-.55-1.412-.369-.364-.836-.545-1.415-.545h-7.445v-5.014Z"/><path fill="#505557" d="M167.09325 119.8388v-2.781h-4.73c.268-.442.513-1.063.727-1.881.248-.945.375-1.84.375-2.658v-4.436c0-.576-.188-1.045-.551-1.414-.369-.363-.838-.547-1.413-.547h-21.898l1.442 2.779h17.783v3.745c0 .82-.041 1.634-.117 2.42-.076.742-.229 1.406-.453 1.992h-22.418l1.442 2.781h12.001v5.014h-10.117l1.444 2.779h18.083v8.055h4.636v-8.877c0-.575-.186-1.043-.549-1.412-.368-.364-.836-.545-1.415-.545h-7.445v-5.014Z"/><path fill="#505557" d="M177.18115 116.4892c0-2.436 1.715-4.41 3.832-4.41 2.114 0 3.831 1.974 3.831 4.41 0 2.438-1.717 4.412-3.831 4.412-2.117 0-3.832-1.974-3.832-4.412m13.022-7.572h-6.852v-3.389h-5.792c-.26 0-.963-.008-.963.563 0 .181.07.619.766.619.315 0 .591.031.797.088.24.046.475.164.553.869v1.25h-8.731l1.445 2.781h3.668c-1.532 1.23-2.484 2.937-2.484 4.822 0 3.11 2.582 5.731 6.102 6.537v2.457h-9.379l1.445 2.784h18.674c1.107 0 2.312-.309 3.606-.93v8.318h4.57v-29.724h-5.724c-.261 0-.964-.014-.964.558 0 .184.072.619.767.619.314 0 .59.03.795.086.241.049.477.162.556.869v16.413c-.808.671-2.003 1.005-3.599 1.005l-6.108.002v-2.464h-.011c3.506-.817 6.072-3.428 6.072-6.53 0-1.885-.947-3.592-2.484-4.822h3.275z"/><path fill="#505557" d="M81.14655 119.3958h-6.583v-9.598h6.583zm-11.22.859c0 .564.181 1.033.549 1.389.363.355.833.529 1.41.529h13.9v-15.156h-17.014c-.261 0-.964-.01-.964.56 0 .182.07.619.769.619.313 0 .589.032.795.088.24.051.477.164.555.869z"/><path fill="#505557" d="M79.10005 132.9052v-7.605h-5.793c-.26 0-.965-.012-.965.558 0 .184.072.619.77.619.312 0 .59.033.795.088.24.049.476.164.554.869v6.328c0 .573.184 1.036.549 1.393q.5445.531 1.41.531h20.118v-2.781Z"/><path fill="#505557" d="M90.34515 105.9618c-.262 0-.965-.012-.965.559 0 .183.07.619.767.619.314 0 .59.033.796.086.24.052.478.166.555.871v19.906h4.637v-22.041Z"/><path fill="#505557" d="M39.34615 125.8739c-.26 0-.965-.012-.965.561 0 .183.07.619.768.619.314 0 .593.031.796.086.241.048.475.166.554.869v5.754c0 .57.183 1.033.548 1.39.364.356.835.534 1.41.534h19.141v-2.784h-16.462v-7.029Z"/><path fill="#505557" d="M55.27195 105.9618c-.262 0-.967-.014-.967.559 0 .183.072.619.77.619.312 0 .591.029.795.086.24.049.476.162.554.869v19.906h4.639v-12.672h5.041v-2.781h-5.041v-6.586Z"/><path fill="#505557" d="M40.17725 116.7489c0-2.418 1.714-4.375 3.831-4.375 2.114 0 3.831 1.957 3.831 4.375 0 2.416-1.717 4.375-3.831 4.375-2.117 0-3.831-1.959-3.831-4.375m.345-11.381c-.262 0-.965-.01-.965.561 0 .185.072.619.768.619.313 0 .59.033.794.088.242.049.477.166.558.871v1.25h-8.069l1.444 2.779h3.54c-1.827 1.252-2.986 3.123-2.986 5.213 0 3.768 3.761 6.82 8.402 6.82 4.638 0 8.4-3.052 8.4-6.82 0-2.09-1.16-3.961-2.985-5.213h3.608v-2.779h-6.718v-3.389z"/><path fill="#505557" d="M24.14985 105.9618c-.264 0-.965-.012-.965.559 0 .183.07.619.768.619.312 0 .589.033.795.086.24.052.476.166.553.871v6.053h-3.491v-8.188h-5.555c-.262 0-.965-.012-.965.559 0 .183.071.619.768.619.312 0 .59.033.795.086.241.052.477.166.554.871v13.24c-.807.67-2.001 1.002-3.591 1.002h-6.756v-12.479h6.246v-2.779h-11.969c-.264 0-.965-.01-.965.561 0 .183.071.617.768.617.313 0 .59.033.795.088.24.051.475.166.555.869v13.982c0 .571.181 1.034.547 1.391.363.355.835.529 1.409.529h9.361c1.106 0 2.308-.306 3.6-.926v11.495h4.403v-18.756h3.491v18.756h4.404v-29.725Z"/><path fill="#0c2b80" d="M87.86565 11.5712c4.428 0 8.581 1.154 12.188 3.174 3.601-2.02 7.753-3.174 12.18-3.174 11.464 0 21.12 7.729 24.065 18.258h.432c-3.681-16.875-18.701-29.516-36.685-29.516-17.973 0-32.991 12.641-36.674 29.516h.435c2.941-10.529 12.594-18.258 24.059-18.258"/><path fill="#5b9bc7" d="M100.05315 14.745c-3.606-2.02-7.76-3.174-12.188-3.174-11.464 0-21.118 7.729-24.058 18.258h24.362c1.806-6.465 6.144-11.869 11.884-15.084"/><path fill="#4cb699" d="M112.23385 11.5712c-4.427 0-8.579 1.154-12.181 3.174 5.737 3.215 10.077 8.619 11.883 15.084h24.362c-2.944-10.529-12.6-18.258-24.064-18.258"/><path fill="#0c2b80" d="m180.91455 90.3759-1.891-3.645h-157.942l-1.893 3.645Z"/><path fill="#0c2b80" d="m38.72555 39.9228 1.083 40.15h-7.922l1.065-40.15Z"/><path fill="#0c2b80" d="m57.07075 39.9228 1.08 40.15h-7.919l1.065-40.15Z"/><path fill="#0c2b80" d="m75.40865 39.9228 1.087 40.15h-7.923l1.065-40.15Z"/><path fill="#0c2b80" d="m93.75435 39.9228 1.086 40.15h-7.922l1.065-40.15Z"/><path fill="#0c2b80" d="m112.09615 39.9228 1.088 40.15h-7.924l1.068-40.15Z"/><path fill="#0c2b80" d="m130.44285 39.9228 1.085 40.15h-7.922l1.066-40.15Z"/><path fill="#0c2b80" d="m148.78755 39.9228 1.086 40.15h-7.924l1.067-40.15Z"/><path fill="#0c2b80" d="m167.13035 39.9228 1.086 40.15h-7.923l1.065-40.15Z"/><path fill="#0c2b80" d="m19.18845 33.4735 1.893 3.646h157.942l1.891-3.646Z"/><path fill="#0c2b80" d="m26.65715 82.8759-1.109 2.135h149.007l-1.109-2.135Z"/><path fill="#505557" d="M130.80125 119.8388v-2.781h-4.73c.269-.442.513-1.063.728-1.881.249-.945.375-1.84.375-2.658v-4.436c0-.576-.187-1.045-.551-1.414-.367-.363-.837-.547-1.414-.547h-21.896l1.443 2.779h17.779v3.745c0 .82-.04 1.634-.117 2.42-.072.742-.228 1.406-.45 1.992h-22.419l1.443 2.781h12v5.014h-10.117l1.446 2.779h18.082v8.055h4.636v-8.877c0-.575-.187-1.043-.55-1.412-.369-.364-.836-.545-1.415-.545h-7.445v-5.014Z"/><path fill="#505557" d="M167.09325 119.8388v-2.781h-4.73c.268-.442.513-1.063.727-1.881.248-.945.375-1.84.375-2.658v-4.436c0-.576-.188-1.045-.551-1.414-.369-.363-.838-.547-1.413-.547h-21.898l1.442 2.779h17.783v3.745c0 .82-.041 1.634-.117 2.42-.076.742-.229 1.406-.453 1.992h-22.418l1.442 2.781h12.001v5.014h-10.117l1.444 2.779h18.083v8.055h4.636v-8.877c0-.575-.186-1.043-.549-1.412-.368-.364-.836-.545-1.415-.545h-7.445v-5.014Z"/><path fill="#505557" d="M177.18115 116.4892c0-2.436 1.715-4.41 3.832-4.41 2.114 0 3.831 1.974 3.831 4.41 0 2.438-1.717 4.412-3.831 4.412-2.117 0-3.832-1.974-3.832-4.412m13.022-7.572h-6.852v-3.389h-5.792c-.26 0-.963-.008-.963.563 0 .181.07.619.766.619.315 0 .591.031.797.088.24.046.475.164.553.869v1.25h-8.731l1.445 2.781h3.668c-1.532 1.23-2.484 2.937-2.484 4.822 0 3.11 2.582 5.731 6.102 6.537v2.457h-9.379l1.445 2.784h18.674c1.107 0 2.312-.309 3.606-.93v8.318h4.57v-29.724h-5.724c-.261 0-.964-.014-.964.558 0 .184.072.619.767.619.314 0 .59.03.795.086.241.049.477.162.556.869v16.413c-.808.671-2.003 1.005-3.599 1.005l-6.108.002v-2.464h-.011c3.506-.817 6.072-3.428 6.072-6.53 0-1.885-.947-3.592-2.484-4.822h3.275z"/><path fill="#505557" d="M81.14655 119.3958h-6.583v-9.598h6.583zm-11.22.859c0 .564.181 1.033.549 1.389.363.355.833.529 1.41.529h13.9v-15.156h-17.014c-.261 0-.964-.01-.964.56 0 .182.07.619.769.619.313 0 .589.032.795.088.24.051.477.164.555.869z"/><path fill="#505557" d="M79.10005 132.9052v-7.605h-5.793c-.26 0-.965-.012-.965.558 0 .184.072.619.77.619.312 0 .59.033.795.088.24.049.476.164.554.869v6.328c0 .573.184 1.036.549 1.393q.5445.531 1.41.531h20.118v-2.781Z"/><path fill="#505557" d="M90.34515 105.9618c-.262 0-.965-.012-.965.559 0 .183.07.619.767.619.314 0 .59.033.796.086.24.052.478.166.555.871v19.906h4.637v-22.041Z"/><path fill="#505557" d="M39.34615 125.8739c-.26 0-.965-.012-.965.561 0 .183.07.619.768.619.314 0 .593.031.796.086.241.048.475.166.554.869v5.754c0 .57.183 1.033.548 1.39.364.356.835.534 1.41.534h19.141v-2.784h-16.462v-7.029Z"/><path fill="#505557" d="M55.27195 105.9618c-.262 0-.967-.014-.967.559 0 .183.072.619.77.619.312 0 .591.029.795.086.24.049.476.162.554.869v19.906h4.639v-12.672h5.041v-2.781h-5.041v-6.586Z"/><path fill="#505557" d="M40.17725 116.7489c0-2.418 1.714-4.375 3.831-4.375 2.114 0 3.831 1.957 3.831 4.375 0 2.416-1.717 4.375-3.831 4.375-2.117 0-3.831-1.959-3.831-4.375m.345-11.381c-.262 0-.965-.01-.965.561 0 .185.072.619.768.619.313 0 .59.033.794.088.242.049.477.166.558.871v1.25h-8.069l1.444 2.779h3.54c-1.827 1.252-2.986 3.123-2.986 5.213 0 3.768 3.761 6.82 8.402 6.82 4.638 0 8.4-3.052 8.4-6.82 0-2.09-1.16-3.961-2.985-5.213h3.608v-2.779h-6.718v-3.389z"/><path fill="#505557" d="M24.14985 105.9618c-.264 0-.965-.012-.965.559 0 .183.07.619.768.619.312 0 .589.033.795.086.24.052.476.166.553.871v6.053h-3.491v-8.188h-5.555c-.262 0-.965-.012-.965.559 0 .183.071.619.768.619.312 0 .59.033.795.086.241.052.477.166.554.871v13.24c-.807.67-2.001 1.002-3.591 1.002h-6.756v-12.479h6.246v-2.779h-11.969c-.264 0-.965-.01-.965.561 0 .183.071.617.768.617.313 0 .59.033.795.088.24.051.475.166.555.869v13.982c0 .571.181 1.034.547 1.391.363.355.835.529 1.409.529h9.361c1.106 0 2.308-.306 3.6-.926v11.495h4.403v-18.756h3.491v18.756h4.404v-29.725Z"/><path fill="#0c2b80" d="M87.86565 11.5712c4.428 0 8.581 1.154 12.188 3.174 3.601-2.02 7.753-3.174 12.18-3.174 11.464 0 21.12 7.729 24.065 18.258h.432c-3.681-16.875-18.701-29.516-36.685-29.516-17.973 0-32.991 12.641-36.674 29.516h.435c2.941-10.529 12.594-18.258 24.059-18.258"/><path fill="#5b9bc7" d="M100.05315 14.745c-3.606-2.02-7.76-3.174-12.188-3.174-11.464 0-21.118 7.729-24.058 18.258h24.362c1.806-6.465 6.144-11.869 11.884-15.084"/><path fill="#4cb699" d="M112.23385 11.5712c-4.427 0-8.579 1.154-12.181 3.174 5.737 3.215 10.077 8.619 11.883 15.084h24.362c-2.944-10.529-12.6-18.258-24.064-18.258"/><path fill="#0c2b80" d="m180.91455 90.3759-1.891-3.645h-157.942l-1.893 3.645Z"/><path fill="#0c2b80" d="m38.72555 39.9228 1.083 40.15h-7.922l1.065-40.15Z"/><path fill="#0c2b80" d="m57.07075 39.9228 1.08 40.15h-7.919l1.065-40.15Z"/><path fill="#0c2b80" d="m75.40865 39.9228 1.087 40.15h-7.923l1.065-40.15Z"/><path fill="#0c2b80" d="m93.75435 39.9228 1.086 40.15h-7.922l1.065-40.15Z"/><path fill="#0c2b80" d="m112.09615 39.9228 1.088 40.15h-7.924l1.068-40.15Z"/><path fill="#0c2b80" d="m130.44285 39.9228 1.085 40.15h-7.922l1.066-40.15Z"/><path fill="#0c2b80" d="m148.78755 39.9228 1.086 40.15h-7.924l1.067-40.15Z"/><path fill="#0c2b80" d="m167.13035 39.9228 1.086 40.15h-7.923l1.065-40.15Z"/><path fill="#0c2b80" d="m19.18845 33.4735 1.893 3.646h157.942l1.891-3.646Z"/><path fill="#0c2b80" d="m26.65715 82.8759-1.109 2.135h149.007l-1.109-2.135Z"/></svg>