<svg xmlns="http://www.w3.org/2000/svg" xmlns:xlink="http://www.w3.org/1999/xlink" width="117.723" height="41" viewBox="0 0 117.723 41">
  <defs>
    <clipPath id="clip-path">
      <path id="Path_2" data-name="Path 2" d="M18.907,14.848H18.73c-1.18,0-1.89-1.23-2.186-1.781L13.529,6.732A7.671,7.671,0,0,0,6.729,2H1V20.012H6.552V7.165h.178c1.243,0,2.008,1.353,2.186,1.781l3.074,6.33a7.4,7.4,0,0,0,6.736,4.732H24.4V2H18.907Z" transform="translate(-1 -2)" fill="#fff"/>
    </clipPath>
    <clipPath id="clip-path-2">
      <rect id="Rectangle_4" data-name="Rectangle 4" width="91.082" height="18.151" transform="translate(0 0)" fill="#fff"/>
    </clipPath>
    <clipPath id="clip-path-3">
      <path id="Path_4" data-name="Path 4" d="M610.176,2,603.5,15.4,596.422,2H561.195V6.24h2.869c2.049,0,3.042,1.107,3.042,2.764v3.935c0,1.844-.938,2.828-3.042,2.828h-2.869v4.245h3.63c5.151,0,7.61-3.133,7.61-8.3V9.742a13.169,13.169,0,0,0-.414-3.5h8.193V20.008h5.265V6.24h7.373l7.319,13.768h6.613L615.85,2ZM561.195,2H549.9V20.012h11.295V15.768h-5.971V6.24h5.971Z" transform="translate(-549.9 -2)" fill="#fff"/>
    </clipPath>
    <clipPath id="clip-path-5">
      <path id="Path_5" data-name="Path 5" d="M463.1,132.234a3.3,3.3,0,0,1-6.6,0,3.3,3.3,0,1,1,6.6,0" transform="translate(-456.5 -128.9)"/>
    </clipPath>
    <clipPath id="clip-path-6">
      <rect id="Rectangle_9" data-name="Rectangle 9" width="91.082" height="18.151" transform="translate(0 0)"/>
    </clipPath>
  </defs>
  <g id="MP-logo-White" transform="translate(-7274 -320.932)">
    <path id="Path_17" data-name="Path 17" d="M26,0H143.723V18.919H26Z" transform="translate(7248 343.014)" fill="#ff2a00"/>
    <path id="Path_18" data-name="Path 18" d="M-480.743-105.776H-483.4v.927q0,.582-.454.582-.4,0-1.354-.881t-.954-1.263q0-.418.509-.509.073-.018.8-.018v-2.672H-486.9v-1.145h5v1.145h-1.49v2.672h2.653Zm3.087-3.835h-1.817v7.669H-481v-7.669h-1.309v-1.145h4.653Zm5.141,5.416a3.793,3.793,0,0,1-2.69,1.018,2.747,2.747,0,0,1-1.781-.618,2.031,2.031,0,0,1-.818-1.654,1.748,1.748,0,0,1,.709-1.49,2.043,2.043,0,0,1-.818-.818,2.257,2.257,0,0,1-.309-1.127,1.931,1.931,0,0,1,.618-1.436,2.02,2.02,0,0,1,1.454-.6,1.908,1.908,0,0,1,1.354.5,1.717,1.717,0,0,1,.536,1.318,2.08,2.08,0,0,1-.018.291h-1.163v-.127q0-.981-.6-.981-.872,0-.872,1.109a1.382,1.382,0,0,0,.8,1.309,2.228,2.228,0,0,1,1.163-.218q.127,0,.545.018l.545,1.018q-.182-.018-.382-.018-2.09,0-2.09,1.218a1.114,1.114,0,0,0,.391.872,1.365,1.365,0,0,0,.936.345,3.446,3.446,0,0,0,2.49-1.2Zm4.6.127a3.725,3.725,0,0,1-1.817.491,3.434,3.434,0,0,1-2.5-.927,3.288,3.288,0,0,1-.954-2.472,2.938,2.938,0,0,0,.382.018q1.654,0,1.654-1.254a2.044,2.044,0,0,0-.2-.772,1.445,1.445,0,0,0-.436-.627h-2.272v-1.145h5.034v1.145H-470.3a2.554,2.554,0,0,1,.6,1.6,1.84,1.84,0,0,1-1.218,1.945,1.746,1.746,0,0,1-.582.127,1.258,1.258,0,0,0,.527.945,1.8,1.8,0,0,0,1.09.345,2.831,2.831,0,0,0,1.963-.8Zm3.124-5.543h-1.817v7.669h-1.527v-7.669h-1.309v-1.145h4.653Zm9.937,5.107a3.2,3.2,0,0,1-1.617.491,2.794,2.794,0,0,1-1.817-.636,2.032,2.032,0,0,1-.781-1.654v-3.308h-1.145v-1.145h4.235v1.145h-1.581v3.108q0,1.381,1.145,1.381a1.9,1.9,0,0,0,1.563-.8Zm3.124-5.107h-1.817v7.669h-1.527v-7.669h-1.309v-1.145h4.653Zm-3.219,5.543-4.289,2.817-.709-1.163,5-2.653Zm11.611-5.543h-2.126v2.254h-3a1.494,1.494,0,0,0-1.027.345,1.041,1.041,0,0,0-.391.8q0,1.4,1.872,1.4a5.017,5.017,0,0,0,.745-.055v-.145q0-1.236,1.163-1.236a1.085,1.085,0,0,1,.772.3.972.972,0,0,1,.318.736,1.312,1.312,0,0,1-.781,1.272q.109.309.709,1.781l-1.345.309-.473-1.817a1.616,1.616,0,0,0-.345,0,3.763,3.763,0,0,1-.654.055,4.5,4.5,0,0,1-2.381-.618,2.352,2.352,0,0,1-1.236-2.126,2,2,0,0,1,.654-1.508,2.175,2.175,0,0,1,1.545-.618H-447v-1.127h-5.361v-1.145h9.014Zm-2.31-1.054h-1.018l-3.635-3.235,1.127-.909Zm8.81,1.054h-1.2a2.44,2.44,0,0,1,.582,1.654,2.934,2.934,0,0,1-1.89,3.053,3.085,3.085,0,0,1-.945.218,27.468,27.468,0,0,0,2.254,1.745l-.891,1.109a28.043,28.043,0,0,1-2.181-1.817q-.872-.781-1.763-1.69l.963-.963.563.527a2.046,2.046,0,0,0,.672.091,1.519,1.519,0,0,0,1.109-.427,1.6,1.6,0,0,0,.473-1.1,3.393,3.393,0,0,1-1.2.291,2.349,2.349,0,0,1-1.49-.454,1.608,1.608,0,0,1-.654-1.363,1.222,1.222,0,0,1,.345-.872h-1.672v-1.145h6.924Zm-2.145,1.018a1.182,1.182,0,0,0-.418-.8,1.277,1.277,0,0,0-.854-.309.732.732,0,0,0-.563.264.885.885,0,0,0-.236.609q0,.872.981.872A1.047,1.047,0,0,0-438.988-108.593Zm6.395-1.018h-1.817v7.669h-1.527v-7.669h-1.309v-1.145h4.653Zm17.882,0h-3.017v1.127a1.3,1.3,0,0,1,1,.691,2.328,2.328,0,0,1,.309,1.2,4,4,0,0,1-1.672,3.071A5.137,5.137,0,0,1-421.4-102.2a3.26,3.26,0,0,1-2.181-.754,2.52,2.52,0,0,1-.891-2.026,2.159,2.159,0,0,1,.927-1.745,1.37,1.37,0,0,1-.527-.254,1.839,1.839,0,0,1-.909-1.527,1.81,1.81,0,0,1,.418-1.109h-1.309v-1.145h11.159Zm-3.126,2.962q0-.909-.691-.909-.654,0-.654,1a1.773,1.773,0,0,0,.672,1.508.513.513,0,0,0,.164-.164A2.389,2.389,0,0,0-417.837-106.649Zm-1.29-1.89v-1.072h-3.98a1.363,1.363,0,0,0-.382,1.036.9.9,0,0,0,.672.963,5.54,5.54,0,0,0,1.29.091l.327,1.109h-.636a1.02,1.02,0,0,0-.863.427,1.614,1.614,0,0,0-.318.99,1.611,1.611,0,0,0,.473,1.172,1.545,1.545,0,0,0,1.145.482,3.2,3.2,0,0,0,1.072-.236,2.072,2.072,0,0,0,.945-.563,3.893,3.893,0,0,1-1.109-2.635,1.852,1.852,0,0,1,.373-1.136A1.6,1.6,0,0,1-419.127-108.539Zm8.864-1.072H-415.9v-1.145h5.634Zm1.109,2.544h-3a1.2,1.2,0,0,0-.636,1.145,3.726,3.726,0,0,0,1.527,2.762,5.11,5.11,0,0,0,.418.327l-1.018.854a4.868,4.868,0,0,1-.545-.545,5.567,5.567,0,0,1-1.817-3.417,2.037,2.037,0,0,1,.509-1.127h-1.8v-1.109h6.361Zm3.124-2.544h-1.817v7.669h-1.527v-7.669h-1.309v-1.145h4.653Zm2.851,0h-1.109v7.669h-1.527v-7.669h-1.309v-1.145h1.163q-1.49-3.144-2.581-3.144-.945,0-.945,1.181a3.168,3.168,0,0,0,.291,1.09,2.239,2.239,0,0,0,.563.963H-410.1a2.868,2.868,0,0,1-.545-1.009,3.613,3.613,0,0,1-.218-1.136q0-2.126,2.035-2.126,2.363,0,4.289,4.18h1.363Zm7.395,3.671h-1.69l-.818-1.145h2.508Zm-1.181-3.671h-1.4v2.163a1.407,1.407,0,0,1-.582,1.272,2.279,2.279,0,0,1-1.145.345,20.049,20.049,0,0,0,1.945,2.472q.164.164.436.473l-1.181.854q-.254-.309-.745-.927a35.778,35.778,0,0,1-3.126-4.689l1.145-.709q.563,1.381,1.145,1.381a.538.538,0,0,0,.6-.618v-2.017h-3.689v-1.145h6.6Zm4.25,0h-1.817v7.669h-1.527v-7.669h-1.309v-1.145h4.653Zm4,0h-1.327l.018,4.271q0,.636-.545.636a3.184,3.184,0,0,1-1.336-.763q-.991-.763-.99-1.072,0-.418.527-.491h.818v-2.581h-2.254v-1.145h5.089Zm4.232,0h-1.817v7.669h-1.527v-7.669h-1.309v-1.145h4.653Zm7.958,0h-2.126v2.544h-3.18a1.277,1.277,0,0,0-.936.391,1.277,1.277,0,0,0-.391.936,2.648,2.648,0,0,0,1.327,2.181,1.358,1.358,0,0,0,.709.309,2.061,2.061,0,0,1-.382-1.272,1.559,1.559,0,0,1,.573-1.236,1.989,1.989,0,0,1,1.336-.491,2.038,2.038,0,0,1,1.372.509,1.61,1.61,0,0,1,.591,1.272,2.1,2.1,0,0,1-.863,1.754,3.176,3.176,0,0,1-1.99.663,4.167,4.167,0,0,1-2.8-1.109,3.444,3.444,0,0,1-1.345-2.653,2.286,2.286,0,0,1,.691-1.663,2.242,2.242,0,0,1,1.654-.7h2.126v-1.436h-5.416v-1.145h9.051Zm-2.49,5.2a.879.879,0,0,0-.191-.554.586.586,0,0,0-.482-.245.59.59,0,0,0-.5.264.956.956,0,0,0-.191.572,1.107,1.107,0,0,0,.563,1.109.828.828,0,0,0,.572-.409A1.345,1.345,0,0,0-379.02-104.413Zm-2.02,4.18h-1.4v-1.418h1.4Z" transform="translate(7764.469 460.036)" fill="#fff"/>
    <g id="Group_21" data-name="Group 21" transform="translate(7287.341 320.932)">
      <g id="Group_2" data-name="Group 2" clip-path="url(#clip-path)">
        <rect id="Rectangle_2" data-name="Rectangle 2" width="91.082" height="18.151" transform="translate(-0.052 -0.101)" fill="#000"/>
        <g id="Group_1" data-name="Group 1" transform="translate(-0.052 -0.101)" clip-path="url(#clip-path-2)">
          <rect id="Rectangle_3" data-name="Rectangle 3" width="23.86" height="18.467" transform="translate(-0.175 -0.127)" fill="#000"/>
        </g>
      </g>
      <g id="Group_5" data-name="Group 5" transform="translate(24.998)" clip-path="url(#clip-path-3)">
        <rect id="Rectangle_5" data-name="Rectangle 5" width="91.082" height="18.151" transform="translate(-25.05 -0.101)" fill="#fff"/>
        <g id="Group_4" data-name="Group 4" transform="translate(-25.051 -0.101)" clip-path="url(#clip-path-2)">
          <rect id="Rectangle_6" data-name="Rectangle 6" width="66.406" height="18.467" transform="translate(24.823 -0.127)" fill="#000"/>
        </g>
      </g>
      <g id="Group_8" data-name="Group 8" transform="translate(20.745 5.779)" clip-path="url(#clip-path-5)">
        <g id="Group_7" data-name="Group 7" transform="translate(-20.797 -5.88)" clip-path="url(#clip-path-6)">
          <rect id="Rectangle_8" data-name="Rectangle 8" width="7.059" height="7.059" transform="translate(20.569 5.652)" fill="#ec1d24"/>
        </g>
      </g>
    </g>
    <path id="Path_7" data-name="Path 7" d="M-2.286,22.834A.214.214,0,0,1-2.5,22.62V7.714A.214.214,0,0,1-2.286,7.5a.214.214,0,0,1,.214.214V22.62A.214.214,0,0,1-2.286,22.834Z" transform="translate(7337.791 337.312)" fill="#fff"/>
  </g>
</svg>
