<?xml version="1.0" encoding="utf-8"?>
<!-- Generator: Adobe Illustrator 26.3.1, SVG Export Plug-In . SVG Version: 6.00 Build 0)  -->
<svg version="1.1" id="Layer_1" xmlns="http://www.w3.org/2000/svg" xmlns:xlink="http://www.w3.org/1999/xlink" x="0px" y="0px"
	 viewBox="0 0 331.6 117.3" style="enable-background:new 0 0 331.6 117.3;" xml:space="preserve">
<style type="text/css">
	.st0{fill:#000000;}
	.st1{fill:#DC3831;}
</style>
<g>
	<g>
		<path class="st0" d="M80.5,17.1h0.3c2.5,0,4.1,2.7,4.4,3.5l6.1,12.5c2.6,5.8,7.7,9.3,13.5,9.3h11.4V6.7h-10.5V32h-0.2
			c-2.2,0-3.6-2.4-4.2-3.5L95.6,16c-2.7-5.7-7.5-9.3-12.8-9.3H69.2v35.7h11.3V17.1z"/>
		<path class="st0" d="M143.3,42.3h7.3c10.4,0,15.3-6.2,15.3-16.3v-3.9c0-1.1,0-4-0.9-6.9h16.6v27h10.5v-27h15.3l15.1,27H236
			l18.4-34.9h-11.6v0.2l-13.5,25.9L214.9,7.5h-71.6h-22.7v34.9L143.3,42.3L143.3,42.3z M131.1,15.4h12.2v-0.1h5.9
			c4.2,0,6.3,2.1,6.3,5.3v7.6c0,3.5-1.9,5.4-6.3,5.4h-5.9v0.1h-12.2V15.4z"/>
		<polygon class="st0" points="223.5,46.8 223.5,61.6 268.7,61.6 228.9,106.9 251,106.9 290.6,60.8 290.6,59.2 290.6,46.8 		"/>
		<path class="st0" d="M205.4,62.5L195,74.6l-10.4-12.1h-17.4l19.1,22.2L177.4,95V81.6h-0.1l-10.5,0.1V51v-4.2h-16.7H146l-35.2,21.7
			c0-1,0-2.1,0.1-3.1c0-1.8,0-3.5,0-5.3c0-5.3-2.6-9.2-7.6-11.2c-3.5-1.4-7.1-1.9-10.8-1.9c-9.9-0.1-20-0.1-29.9,0
			c-4.2,0-8.3,0.5-12.2,1.9c-3.2,1.1-5.7,3.1-7.1,6.3c-2.1,4.5-1.9,9.4-1.7,14.3c0.1,0,0.1,0,0.2,0c5.7,0,11.3,0,16.9,0h0.1
			c0-0.5,0-0.8,0-1.2c0-4.1,1.7-6.2,5.7-7.1c1.2-0.2,2.4-0.4,3.6-0.4c6.2,0,12.3,0,18.6,0c1.4,0.1,2.9,0.4,4.3,0.8
			c2,0.6,2.6,1.6,2.6,3.7c0,0.8,0,2,0,2.8c0,0,0,0,0,0.1c-0.2,1.2-1,2-2.3,2.4c-1.5,0.5-3.1,0.9-4.6,1c-10.3,0.9-20.6,1.7-30.9,2.5
			c-3.5,0.3-6.8,1.2-9.7,3.3c-0.7,0.5-1.3,1-1.9,1.6c-2.1,1.8-3.4,4-3.5,6.8c-0.1,7,0,14.1,0,21.2c0.2,0,0.5,0,0.7,0l0,0
			c23.3,0,46.4,0,68.8,0v-0.1c0.3,0,0.7,0,1,0c0-3.8,0-7.5,0-11.3l39.1-0.6v12h16.6V95.6l10.2-0.2l-9.9,11.5h17.4L195,94.8
			l10.4,12.1h17.3l-19-22.2l19-22.2C222.7,62.5,205.4,62.5,205.4,62.5z M103.2,93.7c-14.9,0-29.6,0-44.2,0c-0.3-2,0.1-3.6,1.1-4.8
			c0.1-0.1,0.2-0.3,0.4-0.4l0.1-0.1c0.8-0.7,2-1.1,3.3-1.2c7.1-0.7,14.4-1.1,21.6-1.8c4.7-0.4,9.4-0.8,14-1.5c1.3-0.2,2.6-0.6,3.7-1
			C103.2,82.9,103.2,93.7,103.2,93.7z M150.2,81.7l-34.5,0.2l34.5-20.8V81.7z"/>
	</g>
	<path class="st1" d="M124.9,24.8c0,3.6-2.9,6.5-6.5,6.5s-6.5-3-6.5-6.5s2.9-6.7,6.5-6.7C122,18.2,124.9,21.2,124.9,24.8L124.9,24.8
		z"/>
</g>
</svg>
