<?xml version="1.0" encoding="utf-8"?>
<!-- Generator: Adobe Illustrator 27.1.1, SVG Export Plug-In . SVG Version: 6.00 Build 0)  -->
<svg version="1.1" id="Layer_1" xmlns="http://www.w3.org/2000/svg" xmlns:xlink="http://www.w3.org/1999/xlink" x="0px" y="0px"
	 viewBox="0 0 804 362.4" style="enable-background:new 0 0 804 362.4;" xml:space="preserve">
<style type="text/css">
	.st0{fill:url(#Path_6_00000027595254198798772810000008583707953259785874_);}
	.st1{fill:#EC1D24;}
	.st2{fill:#000000;}
</style>
<g id="Group_56" transform="translate(-138 -359)">
	
		<linearGradient id="Path_6_00000073679813772214547950000002213529431873215934_" gradientUnits="userSpaceOnUse" x1="283.843" y1="796.5993" x2="284.366" y2="795.6553" gradientTransform="matrix(409 0 0 -167.335 -115674 133846.0625)">
		<stop  offset="0" style="stop-color:#FFDD02"/>
		<stop  offset="1" style="stop-color:#EEB825"/>
	</linearGradient>
	<path id="Path_6" style="fill:url(#Path_6_00000073679813772214547950000002213529431873215934_);" d="M336,554.1h409v167.3H336
		V554.1z"/>
	<path id="Path_26" d="M648.1,648.2c0.8,0.1,1.4,0.5,1.9,1.1c8.5,9.9,13.6,31,2.4,44.2c-9.9,11.7-27.2,16.6-42,11
		c-17.5-6.7-29.6-18.5-33-37.6c-2.7-14.8,6.5-29.6,21.4-32.9c7.2-1.6,14.9-1.2,22.3-1.7c1.9-0.1,3.7-0.2,5.6-0.3v-10.4H568v84h-20.2
		v-84h-22.1c0,5.6,0,11,0,16.5c0,14.1-4.7,20.7-18.2,25.5c-0.5,0.2-1,0.5-2.2,1.1l29.1,37l-19.2,7.7l-45.6-63.9
		c5.7-2.4,11.4-4.8,14.8-6.2c2.2,2.1,4.5,3.9,6.9,5.7c4.1,3.1,8.2,3.7,11.7,1.1c1.6-1.2,2.7-2.9,3-4.9c0.4-6.4,0.1-12.7,0.1-19.4
		h-44.5v84h-19.9v-43.8H416c-0.2,3.1-0.3,6.3-0.7,9.5c-0.9,7.6-7.4,10.8-14,7c-7.2-4.1-17.7-16.1-21-24.1c0.7-3.5,2.2-6.9,5.9-8
		c3.2-1,6.6-1,10-1.4v-23.2H375v-16.4h257.2c-1.4-3.5-2.5-6.1-3.5-8.8c-3.6-10.5-0.4-20.3,8.6-26.8c12.8-9.2,30.3-6.8,38.9,6.4
		c4.6,7.1,7.2,15.4,10.7,23.1c0.8,1.8,1.3,3.8,2,5.7h16.1c0.3,5-0.3,11.7,0,16.7l0,0c-4.3,0.3-8.6-0.3-13.3,0v84h-20.2v-84h-24.9
		v26.8h-1.4c-11.6,0-23.2,0-34.8,0c-7.3,0-12.2,4.2-13.4,11.5c-2.1,13.3,8.5,27.7,22.7,30.5c14,2.8,24.4-8.8,19.6-22.2
		c-1.4-3.9-4.1-7.4-5.9-10.7l12.5-7.8 M416.2,644.9h25.5v-23.3h-25.4L416.2,644.9z M672.4,604.7c-0.8-3.5-1.1-6.5-2.3-9.2
		c-2.2-4.9-4.8-9.6-8-13.9c-2.7-3.5-8.6-3.5-12-1.3c-3.3,2.2-4.8,6.5-3.4,10.9c1.1,3.5,2.6,6.8,4,10.5c-1.3,0.3-2.8,0.6-4.2,0.9
		c-1.3,0.3-2.6,0.7-3.9,1.1c0.1,0.3,0.1,0.7,0.2,1L672.4,604.7z"/>
	<g id="NDTV" transform="translate(138 359)">
		<circle id="Ellipse_2" class="st1" cx="213.3" cy="79.6" r="29.5"/>
		<path id="Path_27" class="st2" d="M207.1,108.3c-15.9-3.3-26-18.8-22.7-34.7c2.4-11.4,11.3-20.4,22.7-22.7V0h-48.2v113.7
			C118.7,114.1,127.5,0.8,49,0H0v159.3h48.2V44.4C88.4,44,79.6,158.1,158.1,159.3h49L207.1,108.3L207.1,108.3z M221.3,159.3h140.1
			c32.4,0,58.6-26.3,58.6-58.7c0-0.1,0-0.1,0-0.2v-41c0-7.5-1.5-14.9-4.2-21.8h73.1v121.7h46.7V37.5h65.1l64.7,121.7H724L804,0
			h-50.2l-58.6,118.3L632.5,0H221.3v51.3c15.6,4.4,24.8,20.7,20.3,36.3c-2.8,9.9-10.5,17.6-20.3,20.3L221.3,159.3z M374.1,98
			c0.1,12.8-10.2,23.3-23,23.4c-0.1,0-0.2,0-0.3,0h-82.3V37.1h82.3c12.8-0.1,23.3,10.2,23.4,23c0,0.1,0,0.2,0,0.3L374.1,98z"/>
	</g>
</g>
</svg>
