<svg data-name="Capa 2" viewBox="0 0 74 74.9" xmlns="http://www.w3.org/2000/svg"><path d="M.3 17.7v17h8.8v-17c0-4.9 4-8.8 8.8-8.8s8.8 4 8.8 8.8v17h8.8v-17C35.7 7.9 27.7 0 18 0S.3 7.9.3 17.7m8.5 39.6c0-4.9 4-8.8 8.8-8.8s8.8 4 8.8 8.8-4 8.8-8.8 8.8-8.8-4-8.8-8.8m-8.8 0C0 67 7.9 74.9 17.7 74.9S35.4 67 35.4 57.2s-7.9-17.7-17.7-17.7C7.9 39.6 0 47.5 0 57.3m38.7-39.6C38.7 7.9 46 0 56.8 0 66.6 0 74 8.2 74 18.8c0 0 0 1.6-.5 2.8H48.3c1.1 2 3.7 5.8 8.4 5.8 4.3 0 6.1-.7 9.9-3l4.5 6.8c-4.1 3.3-10.2 4.2-14.2 4.2-8.9.1-18.2-6.6-18.2-17.7m17.5-8.9c-5 0-7.7 4.2-8.1 5.4h16.3c-.3-1.2-2.8-5.4-8.2-5.4M68.9 49h4.4v-8.8h-4.2c-5.1 0-9.7 2.3-12.8 5.8-3.1-3.6-7.7-5.8-12.8-5.8h-4.2V49h4.4c4.5 0 8.2 3.7 8.2 8.2s-3.7 8.2-8.2 8.2h-4.4v8.9h4.2c5.1 0 9.7-2.3 12.8-5.8 3.1 3.6 7.7 5.8 12.8 5.8h4.2v-8.9h-4.4c-4.5 0-8.2-3.7-8.2-8.2s3.7-8.2 8.2-8.2Z" style="fill:#eed044" data-name="Capa 1"/></svg>