<?xml version="1.0" encoding="utf-8"?>
<!-- Generator: Adobe Illustrator 27.6.1, SVG Export Plug-In . SVG Version: 6.00 Build 0)  -->
<svg version="1.1" id="Camada_1" xmlns="http://www.w3.org/2000/svg" xmlns:xlink="http://www.w3.org/1999/xlink" x="0px" y="0px"
	 viewBox="0 0 506.72 191.83" style="enable-background:new 0 0 506.72 191.83;" xml:space="preserve">
<style type="text/css">
	.st0{fill:#232843;}
	.st1{fill:#87B43D;}
	.st2{fill:#86B33D;}
</style>
<g>
	<path class="st0" d="M345.69,5.29c0.33-0.31,0.66-0.63,0.99-0.94c16.52,0,33.04,0.01,49.56,0.01c0.15,0.13,0.29,0.26,0.44,0.39
		c1.77,4.34,23.46,63.35,25,67.15c0.33,0.81,0.92,1.84,2.16,1.84c1.24,0,1.63-0.88,2-1.61c0.73-1.45,22.96-62.6,24.52-66.2
		c0.33-0.76,1.6-1.59,2.44-1.59c15.04-0.1,30.07-0.08,45.11-0.06c2.72,0,3.82,1.57,2.71,4.02c-0.55,1.23-47.29,106.84-48.42,109.29
		s-1.2,3.65-4.02,3.63c-15.48-0.13-30.95-0.07-46.43-0.06c-2.56,0-4.7,0.18-6.05-3.12c-1.77-3.9-13.24-29.94-15.28-34.18
		c-0.14-0.17-0.29-0.35-0.43-0.52c-1.47-3.45-5.74-14.28-6.97-16.01c-0.94-1.34-2.78-1.47-3.59,0.09
		c-1.46,2.96-21.86,49.62-23.1,51.69c-0.57,0.96-2.05,1.95-3.12,1.95c-16.44,0.12-32.89-0.01-49.33,0.16
		c-3.04-0.02-3.07-1.55-4.59-5.03c-1.52-3.48-33.64-76.9-35.44-80.57c-0.37-0.75-1.92-1.29-2.93-1.29
		c-20.58-0.07-76.85-0.06-84.6-0.06c0,4.85,0,9.63,0,14.77c0.8,0,57.01,0,84.18,0c4.15,0,4.33,0.19,4.33,4.3c0,6.24,0,12.48,0,18.73
		c0,3.77-0.45,4.23-4.17,4.23c-27.17,0-83.28,0-84.35,0c0,4.83,0,9.6,0,14.58c1,0,56.89,0,83.89,0c4.17,0,4.63,0.46,4.63,4.68
		c0,6.95,0,13.89,0,20.84c0,4.13-0.59,4.74-4.6,4.74c-43.18,0-86.36-0.14-129.54,0.18c-5.38,0.04-8.17-2.56-11.15-5.83
		c-1.73-1.9-51.03-58.33-53.28-60.49c-0.71-0.68-1.54-1.7-2.88-1.05c-1.34,0.65-1.14,1.78-1.14,2.74
		c-0.06,19.87-0.05,39.74-0.05,59.61c0,4.49-0.11,4.61-4.56,4.61c-12.49,0-24.98,0-37.46,0c-3.33,0-3.72-0.41-3.72-3.74
		c0-36.31,0-72.62,0.01-108.93c0-1.29,0.11-2.59,0.18-4.05c1.14,0,2.01,0,2.88,0c19.17,0,38.34,0.02,57.51-0.04
		c1.62,0,2.77,0.39,3.84,1.66c4.09,4.87,44.45,51.02,47.81,54.59c0.67,0.71,1.58,1.55,2.75,1.19c1.17-0.36,1.46-1.96,1.46-3.01
		c0.09-17.06,0.11-34.11,0.01-51.17c-0.01-2.48,0.62-3.24,3.2-3.23c53.64,0.08,107.29,0.06,160.93,0.06c4.61,0,4.68-0.03,6.25,4.28
		c1.54,4.24,22.26,61.98,22.89,63.4c0.63,1.42,1.38,1.77,2.34,1.77c0.96,0,1.67-0.72,2.12-1.71S343.55,10.73,345.69,5.29z"/>
</g>
<rect x="6.75" y="133.86" class="st1" width="148.85" height="51.44"/>
<rect x="155.6" y="133.86" transform="matrix(-1 -1.224647e-16 1.224647e-16 -1 647.2504 319.1588)" class="st0" width="336.04" height="51.44"/>
<path class="st2" d="M491.65,180.31c-2.47-1.13-4.91-2.08-7.26-3.41c-5.94-3.35-11.78-6.89-17.68-10.32
	c-4.24-2.46-5.12-10.44,0.22-13.61c6.18-3.66,12.3-7.41,18.49-11.06c2.02-1.19,3.55-3.08,6.23-2.75l0,11.1
	c-5.2,0.65-8.77,4.4-8.85,9.18c-0.08,4.86,3.53,8.77,8.85,9.43L491.65,180.31z"/>
<g>
	<path class="st0" d="M44.47,144.44c2.18,1.59,3.27,3.75,3.27,6.49c0,1.96-0.55,3.64-1.65,5.04c-1.1,1.4-2.61,2.34-4.54,2.81
		c2.36,0.44,4.21,1.45,5.55,3.04c1.33,1.59,2,3.57,2,5.93c0,3.04-1.17,5.43-3.52,7.17c-2.35,1.74-5.55,2.61-9.6,2.61H19.77v-35.48
		h15.76C39.31,142.06,42.29,142.85,44.47,144.44z M39.3,155.39c1-0.78,1.5-1.86,1.5-3.24c0-1.35-0.5-2.4-1.5-3.14
		c-1-0.74-2.37-1.1-4.13-1.06h-8.62v8.62h8.62C36.93,156.55,38.31,156.16,39.3,155.39z M40.24,170.44c1.22-0.84,1.82-2.03,1.82-3.55
		c0-1.45-0.61-2.59-1.82-3.42c-1.22-0.83-2.91-1.22-5.07-1.19h-8.62v9.38h8.62C37.34,171.69,39.03,171.28,40.24,170.44z"/>
	<path class="st0" d="M123.92,177.53l-6.13-10.49c-0.27,0.03-0.69,0.05-1.27,0.05h-8.01v10.44h-6.79v-35.48h14.8
		c4.59,0,8.14,1.06,10.64,3.19c2.5,2.13,3.75,5.14,3.75,9.02c0,2.77-0.6,5.14-1.8,7.1c-1.2,1.96-2.95,3.43-5.25,4.41l7.81,11.76
		H123.92z M108.52,161.11h8.01c2.57,0,4.53-0.56,5.88-1.67c1.35-1.11,2.03-2.77,2.03-4.97c0-2.16-0.68-3.78-2.03-4.87
		c-1.35-1.08-3.31-1.62-5.88-1.62h-8.01V161.11z"/>
	<path class="st1" d="M210.65,177.53l-3.14-7.5h-17.33l-3.14,7.5h-7.05l15.56-35.48h7.04l15.36,35.48H210.65z M192.6,164.2h12.47
		l-6.18-14.9L192.6,164.2z"/>
	<path class="st1" d="M284.72,148.59c-1.91-0.61-3.59-0.91-5.04-0.91c-1.62,0-2.91,0.3-3.85,0.91c-0.95,0.61-1.42,1.45-1.42,2.53
		c0,0.98,0.33,1.8,0.99,2.46c0.66,0.66,1.49,1.2,2.48,1.62c1,0.42,2.36,0.89,4.08,1.39c2.4,0.71,4.37,1.42,5.9,2.13
		c1.54,0.71,2.85,1.76,3.93,3.14c1.08,1.39,1.62,3.21,1.62,5.47c0,2.16-0.58,4.05-1.75,5.65c-1.17,1.6-2.77,2.83-4.81,3.67
		c-2.04,0.85-4.38,1.27-7.02,1.27c-2.77,0-5.47-0.51-8.11-1.55c-2.64-1.03-4.93-2.41-6.89-4.13l2.84-5.78
		c1.79,1.66,3.8,2.96,6.03,3.9c2.23,0.95,4.31,1.42,6.23,1.42c1.89,0,3.38-0.36,4.46-1.09c1.08-0.73,1.62-1.71,1.62-2.97
		c0-1.01-0.33-1.85-0.99-2.51c-0.66-0.66-1.5-1.19-2.51-1.6c-1.01-0.41-2.4-0.86-4.16-1.37c-2.4-0.71-4.36-1.4-5.88-2.08
		c-1.52-0.68-2.82-1.7-3.9-3.07c-1.08-1.37-1.62-3.17-1.62-5.4c0-2.06,0.55-3.86,1.65-5.4c1.1-1.54,2.65-2.73,4.66-3.57
		c2.01-0.84,4.33-1.27,6.97-1.27c2.3,0,4.57,0.34,6.82,1.01c2.25,0.68,4.25,1.59,6.01,2.74l-2.74,5.93
		C288.5,150.06,286.63,149.2,284.72,148.59z"/>
	<path class="st1" d="M345.87,142.06h6.79v35.48h-6.79V142.06z"/>
	<path class="st1" d="M407.41,142.06h6.79v29.35h15.31v6.13h-22.1V142.06z"/>
</g>
</svg>
