<svg width="63" height="44" viewBox="0 0 63 44" fill="none" xmlns="http://www.w3.org/2000/svg">
<g clip-path="url(#clip0_4691_10618)">
<path d="M50.85 5.79999H0V22.73H50.85V5.79999Z" fill="#001636"/>
<path fill-rule="evenodd" clip-rule="evenodd" d="M3.34008 9.03003V19.29H5.81008V12.94L9.47008 19.3H11.9101V9.04003H9.41008V15.02L5.89008 9.04003H3.33008L3.34008 9.03003Z" fill="white"/>
<path fill-rule="evenodd" clip-rule="evenodd" d="M13.3496 9.03003V19.29H21.3496V17.04H15.8896V14.97H20.6796V12.8H15.8896V11.29H21.1096V9.03003H13.3496Z" fill="#FEFEFE"/>
<path fill-rule="evenodd" clip-rule="evenodd" d="M21.8398 9.03002L24.7498 19.29H27.3298L28.6798 12.69L30.0698 19.29H32.3798L35.3098 9.03002H32.6798L31.2698 15.07L30.0298 9.03002H27.2898L26.1098 14.73L24.7898 9.02002H21.8398V9.03002Z" fill="#FEFEFE"/>
<mask id="mask0_4691_10618" style="mask-type:luminance" maskUnits="userSpaceOnUse" x="0" y="0" width="63" height="44">
<path d="M62.71 0H0V44H62.71V0Z" fill="white"/>
</mask>
<g mask="url(#mask0_4691_10618)">
<path fill-rule="evenodd" clip-rule="evenodd" d="M41.1899 12.41C41.1899 12.41 41.5299 11.14 39.5199 10.94C38.1399 10.8 37.8599 11.77 38.0699 12.14C38.4899 12.88 41.6699 12.88 43.1899 14.16C44.3499 15.4 44.2699 17.35 43.0299 18.51C42.9599 18.58 42.8799 18.64 42.7999 18.7C41.1399 19.63 39.1599 19.77 37.3799 19.1C36.0599 18.55 35.2699 17.19 35.4399 15.76H37.8899C37.8899 15.76 37.7599 17.34 39.6899 17.34C41.7099 17.34 41.7199 16.28 41.2999 15.85C40.8399 15.37 37.0299 15.21 35.9799 13.63C35.0799 12.18 35.5299 10.28 36.9799 9.37999C36.9999 9.36999 37.0299 9.34999 37.0499 9.33999C38.8499 8.36999 41.0599 8.54999 42.6699 9.80999C43.3699 10.48 43.7499 11.43 43.6899 12.4H41.1999L41.1899 12.41Z" fill="white"/>
<path fill-rule="evenodd" clip-rule="evenodd" d="M45.75 0H62.71V16.92H45.76V0H45.75Z" fill="#EE1C25"/>
<path fill-rule="evenodd" clip-rule="evenodd" d="M47.4805 3.34998H51.6105V13.85H49.1605V5.77998H47.4905V3.35998L47.4805 3.34998Z" fill="white"/>
<path fill-rule="evenodd" clip-rule="evenodd" d="M58.6599 8.13998C59.4499 7.65998 59.8699 6.74998 59.7199 5.83998C59.5299 4.06998 58.0499 3.18998 56.3199 3.16998C54.7099 3.05998 53.2699 4.17998 52.9899 5.76998C52.8299 6.70998 53.2499 7.64998 54.0599 8.13998C53.0599 8.74998 52.4999 9.88998 52.6299 11.06C52.9499 12.86 54.5599 14.14 56.3899 14.04C58.1799 14.11 59.7499 12.85 60.0599 11.08C60.3199 9.89998 59.7399 8.68998 58.6599 8.13998ZM56.3899 5.24998C56.9299 5.21998 57.3899 5.63998 57.4099 6.17998C57.4099 6.20998 57.4099 6.23998 57.4099 6.27998C57.4199 6.85998 56.9599 7.33998 56.3799 7.34998C55.8099 7.35998 55.3399 6.91998 55.3299 6.34998C55.3299 6.31998 55.3299 6.28998 55.3299 6.26998C55.3499 5.69998 55.8099 5.25998 56.3799 5.25998M56.4099 11.65C55.7399 11.65 55.1899 11.1 55.1899 10.43C55.1899 10.43 55.1899 10.43 55.1899 10.42C55.1599 9.78998 55.6499 9.24998 56.2899 9.21998C56.3199 9.21998 56.3599 9.21998 56.3899 9.21998C57.0599 9.24998 57.5899 9.81998 57.5599 10.5C57.5299 11.13 57.0299 11.63 56.3999 11.66" fill="white"/>
<path d="M50.85 22.73H0V44H50.85V22.73Z" fill="#EE1C25"/>
<path d="M9.39031 34.82C9.41031 35.52 9.17031 36.21 8.71031 36.74C8.32031 37.24 7.73031 37.54 7.09031 37.54H4.05031C3.95031 37.54 3.85031 37.57 3.78031 37.64C3.72031 37.72 3.69031 37.81 3.68031 37.91V38.77H2.32031V37.9C2.32031 36.94 3.10031 36.17 4.06031 36.17H7.10031C7.36031 36.16 7.59031 36.01 7.71031 35.78C7.89031 35.49 7.98031 35.15 7.96031 34.81C7.96031 34.56 7.89031 34.32 7.74031 34.12C7.63031 33.94 7.43031 33.82 7.21031 33.82V34.07C7.21031 34.6 6.96031 35.1 6.53031 35.42C6.06031 35.8 5.46031 36 4.85031 35.98C4.23031 36 3.62031 35.79 3.13031 35.4C2.69031 35.07 2.43031 34.55 2.43031 34C2.43031 33.63 2.56031 33.27 2.81031 32.99C3.04031 32.72 3.38031 32.57 3.73031 32.58V30.73H8.69031V31.97H7.20031V32.59C7.78031 32.59 8.34031 32.82 8.73031 33.24C9.15031 33.65 9.38031 34.22 9.37031 34.81M5.84031 34.07V33.82H4.17031C3.92031 33.82 3.80031 33.9 3.80031 34.07C3.80031 34.21 3.90031 34.34 4.10031 34.47C4.34031 34.58 4.59031 34.64 4.86031 34.63C5.10031 34.63 5.35031 34.58 5.56031 34.46C5.75031 34.35 5.85031 34.22 5.85031 34.07M5.85031 31.97H5.04031V32.59H5.85031V31.97ZM18.6103 35.92H17.2503V29.99C17.2503 29.67 17.1003 29.36 16.8503 29.16C16.3203 28.73 15.5703 28.7 15.0103 29.08C14.7903 29.23 14.6503 29.47 14.6503 29.74C14.6503 30.1 14.7903 30.45 15.0203 30.73C15.6103 30.93 16.0903 31.37 16.3703 31.93C16.7303 32.61 16.9003 33.36 16.8803 34.13C16.8803 34.62 16.6603 35.09 16.2803 35.4C15.8803 35.75 15.3703 35.94 14.8403 35.92H10.0603V30.73H11.3603V34.68H12.6003V32.21C12.6003 31.9 12.6903 31.6 12.8703 31.36C13.0603 31.09 13.3203 30.89 13.6303 30.75C13.4003 30.46 13.2703 30.11 13.2803 29.74C13.2803 29.14 13.5603 28.58 14.0303 28.21C14.5503 27.78 15.2103 27.55 15.8803 27.57C16.5803 27.56 17.2703 27.81 17.8003 28.27C18.3203 28.69 18.6103 29.31 18.6103 29.97V35.9V35.92ZM15.5103 34.13C15.5303 33.58 15.4003 33.04 15.1303 32.55C14.9703 32.18 14.6103 31.93 14.2103 31.9C14.0403 31.9 13.9603 32 13.9603 32.21V34.68H14.8303C15.0003 34.68 15.1803 34.63 15.3103 34.52C15.4403 34.43 15.5103 34.28 15.5103 34.12M26.3603 34C26.3603 34.51 26.1403 35 25.7603 35.35C25.3703 35.73 24.8503 35.93 24.3103 35.92H23.6303C23.6303 36.04 23.6703 36.16 23.7503 36.26C23.8203 36.36 23.9403 36.42 24.0703 36.41H25.3103V37.65H24.3203C24.0603 37.65 23.8003 37.72 23.5803 37.86C23.3503 38.01 23.1603 38.21 23.0203 38.45C22.8803 38.67 22.6803 38.84 22.4403 38.93C22.1403 39.07 21.8103 39.14 21.4703 39.13C20.9903 39.14 20.5203 38.98 20.1503 38.67C19.8103 38.41 19.6103 38.01 19.6103 37.58C19.6103 37.18 19.8103 36.81 20.1303 36.58C20.4903 36.29 20.9503 36.15 21.4103 36.16H21.9103V37.4H21.2903C21.1403 37.4 21.0603 37.46 21.0403 37.58C21.0403 37.66 21.0803 37.75 21.1503 37.79C21.2503 37.85 21.3603 37.88 21.4703 37.89C21.7203 37.91 21.9503 37.75 22.0303 37.52C22.1503 37.17 22.4703 36.93 22.8403 36.9C22.6603 36.86 22.5103 36.74 22.4303 36.58C22.3203 36.37 22.2703 36.14 22.2803 35.91H19.6103V30.72H20.9703V34.67H22.2703V32.32C22.2603 31.41 22.9903 30.66 23.9003 30.65C23.9103 30.65 23.9303 30.65 23.9403 30.65C24.6403 30.66 25.2803 31.03 25.6503 31.62C26.1403 32.31 26.3803 33.14 26.3603 33.99M23.7703 28.86C23.7703 29.09 23.6703 29.32 23.5003 29.47C23.3203 29.64 23.0903 29.73 22.8403 29.72C22.6003 29.72 22.3703 29.63 22.1903 29.47C22.0103 29.32 21.9103 29.09 21.9103 28.85C21.9103 28.62 22.0103 28.39 22.1803 28.24C22.3603 28.07 22.5903 27.98 22.8403 27.99C23.0803 27.99 23.3103 28.08 23.4903 28.24C23.6703 28.39 23.7703 28.62 23.7703 28.86ZM25.0003 33.99C25.0103 33.48 24.9103 32.97 24.7003 32.51C24.5003 32.1 24.2503 31.89 23.9503 31.89C23.8603 31.89 23.7803 31.93 23.7403 32C23.6803 32.1 23.6503 32.21 23.6403 32.32V34.67H24.3203C24.6903 34.67 25.0003 34.37 25.0003 34C25.0003 34 25.0003 34 25.0003 33.99ZM33.1903 35.23C33.1903 35.6 33.1203 35.97 32.9703 36.32C32.8203 36.66 32.6003 36.96 32.3303 37.21C31.6803 37.73 30.8703 38 30.0403 37.95H28.4303C28.3203 37.95 28.2103 37.98 28.1203 38.04C28.0403 38.11 28.0003 38.21 28.0003 38.32V39H26.6403V38.32C26.6403 37.86 26.8303 37.42 27.1703 37.1C27.5103 36.76 27.9703 36.58 28.4403 36.59H30.0503C30.5103 36.61 30.9603 36.48 31.3403 36.21C31.6603 35.99 31.8503 35.62 31.8503 35.23C31.8503 34.98 31.7803 34.74 31.6403 34.54C31.5503 34.36 31.3703 34.25 31.1703 34.24C30.9403 34.24 30.7303 34.35 30.6003 34.53C30.4403 34.73 30.3603 34.98 30.3603 35.23V35.91H29.0003V31.96H28.4403V35.91H27.0803V30.72H32.1003V31.96H30.3603V33.13C30.4603 32.97 30.7303 32.88 31.1703 32.88C31.7303 32.88 32.2603 33.12 32.6203 33.55C33.0203 34.01 33.2403 34.61 33.2203 35.22M38.5703 31.94H37.3303V35.89H35.9603V31.94H35.1503V35.89H33.8503V30.7H38.5603V31.94H38.5703ZM48.5403 35.89H47.1703V32.62C47.1703 32.16 47.1003 31.7 46.9403 31.27C46.7903 30.87 46.5503 30.52 46.2403 30.23C45.1603 29.33 43.6803 29.09 42.3803 29.61C41.9603 29.79 41.5803 30.06 41.2803 30.41C40.6203 31.22 40.2903 32.25 40.3503 33.29C40.3103 34.35 40.5803 35.4 41.1303 36.31C41.3503 36.65 41.6603 36.93 42.0203 37.13C42.3803 37.33 42.7903 37.44 43.2003 37.44C43.8203 37.46 44.4203 37.19 44.8203 36.72C45.2503 36.17 45.4703 35.48 45.4303 34.79C45.4503 34.42 45.3703 34.05 45.2103 33.71C45.1103 33.47 44.8803 33.31 44.6303 33.3C44.3803 33.3 44.1503 33.44 44.0103 33.65C43.8403 33.89 43.7503 34.18 43.7603 34.48V35.9H42.4003V30.71H43.7603V32.44C43.9803 32.19 44.3003 32.06 44.6303 32.07C45.2403 32.05 45.8203 32.33 46.2003 32.82C46.6203 33.39 46.8303 34.08 46.8003 34.79C46.8503 35.83 46.5003 36.85 45.8103 37.63C45.1403 38.34 44.1903 38.72 43.2103 38.69C42.6203 38.69 42.0403 38.56 41.5103 38.31C40.9803 38.06 40.5103 37.68 40.1503 37.22C39.3303 36.09 38.9203 34.71 39.0003 33.32C39.0003 32.6 39.1103 31.89 39.3303 31.21C39.5303 30.6 39.8603 30.03 40.3003 29.55C41.2003 28.6 42.4603 28.09 43.7703 28.13C45.0403 28.08 46.2903 28.52 47.2403 29.37C48.1303 30.22 48.6103 31.42 48.5403 32.64V35.92V35.89Z" fill="white"/>
</g>
</g>
<defs>
<clipPath id="clip0_4691_10618">
<rect width="62.71" height="44" fill="white"/>
</clipPath>
</defs>
</svg>
