<svg width="111" height="78" viewBox="0 0 63 44" fill="none" xmlns="http://www.w3.org/2000/svg"><g clip-path="url(#clip0_4305_1117)"><path d="M50.8479 5.80225H0V22.7309H50.8479V5.80225Z" fill="#001636"></path><path fill-rule="evenodd" clip-rule="evenodd" d="M3.33398 9.03516V19.2958H5.80779V12.9426L9.47352 19.3014H11.908V9.03516H9.41167V15.0173L5.89775 9.03516H3.33961H3.33398Z" fill="white"></path><path fill-rule="evenodd" clip-rule="evenodd" d="M13.353 9.0293L13.3418 19.2956H21.3479V17.0411H15.8887V14.9721H20.6733V12.7962H15.8887V11.2895L21.1118 11.3007V9.0293H13.353Z" fill="#FEFEFE"></path><path fill-rule="evenodd" clip-rule="evenodd" d="M21.8433 9.0293L24.75 19.2956H27.3306L28.6744 12.695L30.0631 19.2956H32.3738L35.303 9.03492H32.6774L31.2662 15.0733L30.0293 9.03492H27.2856L26.1106 14.7415L24.7837 9.03492H21.832L21.8433 9.0293Z" fill="#FEFEFE"></path><mask id="mask0_4305_1117" maskUnits="userSpaceOnUse" x="0" y="0" width="63" height="44"  ><path d="M62.7053 0H0V44H62.7053V0Z" fill="white"  ></path></mask><g mask="url(#mask0_4305_1117)"  ><path fill-rule="evenodd" clip-rule="evenodd" d="M41.1938 12.4083C41.1938 12.4083 41.5311 11.1321 39.524 10.9353C38.1465 10.8004 37.8598 11.7674 38.0678 12.1272C38.4895 12.8694 41.6717 12.8694 43.1897 14.1512C44.4941 15.2532 44.1848 17.7664 42.7961 18.6941C41.1432 19.8016 38.5288 19.6161 37.3819 19.0932C36.0606 18.5423 35.2679 17.176 35.4366 15.7592H37.8879C37.8879 15.7592 37.7586 17.3391 39.687 17.3391C41.711 17.3391 41.711 16.2821 41.295 15.8548C40.8283 15.3825 37.022 15.2195 35.9763 13.6396C35.0767 12.1891 35.5265 10.2831 36.9771 9.38355C36.9996 9.37231 37.0164 9.35544 37.0389 9.3442C38.8999 8.22536 41.6548 8.77634 42.6612 9.81647C43.364 10.4911 43.735 11.4357 43.6844 12.4083H41.1882H41.1938Z" fill="white"  ></path><path fill-rule="evenodd" clip-rule="evenodd" d="M45.748 0H62.7049L62.6936 16.9231H45.7593L45.748 0Z" fill="#EE1C25"  ></path><path fill-rule="evenodd" clip-rule="evenodd" d="M47.4746 3.35107H51.6014V13.8535H49.15V5.7799H47.4746V3.3567V3.35107Z" fill="white"  ></path><path fill-rule="evenodd" clip-rule="evenodd" d="M58.6633 8.13559C59.4504 7.65207 59.8721 6.74126 59.7259 5.83045C59.5347 4.06505 58.0561 3.17673 56.3244 3.15987C54.7108 3.0418 53.2771 4.16626 52.996 5.75736C52.833 6.69066 53.2546 7.63521 54.0699 8.12997C53.0691 8.7428 52.5125 9.8785 52.6362 11.0479C52.9623 12.8471 54.5703 14.1233 56.3975 14.0334C58.5677 13.994 59.9114 12.4872 60.0688 11.0704C60.2881 9.1476 59.2649 8.48979 58.6633 8.12997M56.3919 5.24011C56.9316 5.212 57.3926 5.62805 57.4151 6.16779C57.4151 6.20152 57.4151 6.22963 57.4151 6.26337C57.4264 6.84246 56.971 7.32036 56.3919 7.33722C55.824 7.34847 55.3574 6.90431 55.3405 6.33646C55.3405 6.30835 55.3405 6.28023 55.3405 6.25212C55.3574 5.68427 55.824 5.24011 56.3863 5.24011M56.4087 11.6326C55.7341 11.6326 55.1887 11.0817 55.1943 10.407C55.1943 10.407 55.1943 10.4014 55.1943 10.3957C55.1662 9.76043 55.6554 9.22069 56.2907 9.19258C56.33 9.19258 56.3638 9.19258 56.4031 9.19258C57.0778 9.22069 57.6007 9.78854 57.5782 10.4632C57.5557 11.0985 57.0497 11.6045 56.4144 11.6383" fill="white"  ></path><path d="M50.8479 22.731H0V44.0001H50.8479V22.731Z" fill="#EE1C25"  ></path><path d="M41.3804 30.8101C41.3242 29.8656 40.7563 29.2584 39.7443 28.8536C41.8696 28.4712 42.8591 27.2737 42.3868 25.8007C42.1788 24.9854 41.3635 24.4794 40.5427 24.6593C40.7282 24.783 40.9138 24.8842 41.0712 25.0135C41.6053 25.4183 41.7121 26.1774 41.3073 26.7115C41.1218 26.9532 40.8519 27.1219 40.5539 27.1725C40.1941 27.2512 39.8287 27.2906 39.4632 27.2737C36.9782 27.2849 34.4931 27.2737 32.0081 27.2737H31.2209V28.7805H33.6779C31.7438 29.8712 30.9792 31.3892 31.2097 33.3401C31.4177 35.0606 32.8683 36.0276 34.7124 35.6959C35.5445 35.5385 36.236 34.965 36.5396 34.1722C37.0513 34.7064 37.6304 35.173 38.26 35.5553C39.4801 36.067 40.8913 35.7409 41.7627 34.7457C42.6567 33.7899 42.6679 32.3113 41.7965 31.3386C41.6447 31.1699 41.4029 30.99 41.3917 30.8045M40.9644 32.8791C40.166 33.4582 38.2769 33.5538 37.4673 32.9916C37.1187 32.688 36.8039 32.3506 36.534 31.9796C36.4778 32.0414 36.4272 32.1145 36.3935 32.1876C36.0955 33.3851 34.8923 33.4976 33.7229 33.2952C32.8402 33.0984 32.2892 32.2213 32.486 31.3442C32.4916 31.3105 32.5028 31.2768 32.5141 31.243C32.7896 29.9499 33.7566 29.2134 35.1059 28.8985C36.5284 28.5724 38.0127 28.6568 39.3901 29.1347C39.8343 29.3483 40.2447 29.6126 40.6158 29.933L40.4921 30.0399C39.7781 30.0005 39.0584 30.0061 38.3444 30.0624C37.8103 30.1186 37.4111 30.5852 37.4392 31.125C37.4279 31.6422 37.8046 31.9233 38.2882 32.0976C39.2721 32.5305 40.419 32.2607 41.1105 31.4398C41.4816 31.7771 41.5097 32.345 41.1724 32.7161C41.1105 32.7835 41.0431 32.8398 40.9644 32.8847M40.6045 30.7764C40.2054 31.4229 39.407 31.7041 38.693 31.4398C38.4849 31.3555 38.2151 31.1137 38.2207 30.9563C38.2882 30.7202 38.4681 30.5402 38.7042 30.4615C39.3508 30.2479 40.0592 30.3603 40.6045 30.7708" fill="white"  ></path><path d="M19.7008 32.2832C20.5667 31.766 21.6855 32.0527 22.1971 32.9129C22.2027 32.9242 22.2084 32.9298 22.214 32.941C22.5682 33.4864 22.7762 34.1048 23.1079 34.6671C23.4453 35.3755 24.1649 35.814 24.9464 35.7915C25.7504 35.7803 26.4701 35.308 26.7962 34.5771C27.9768 32.3507 27.066 30.1299 24.3392 28.848C24.7609 28.7862 25.0814 28.7637 25.385 28.6906C26.262 28.5444 26.9648 27.8866 27.1672 27.0264C27.454 26.2112 27.1504 25.306 26.4251 24.8337C26.1046 24.6763 25.7673 24.5582 25.4187 24.4795L25.3568 24.665C26.2733 25.2835 26.5038 25.6939 26.2733 26.3461C26.0428 27.0039 25.4974 27.2738 24.3673 27.2794C23.3553 27.2794 22.3489 27.2794 21.3369 27.2794H18.2334V28.8143C18.925 28.8143 19.5603 28.8143 20.1956 28.8143C20.859 28.8143 21.5281 28.803 22.1915 28.8424C23.389 28.8424 24.536 29.2978 25.4074 30.1186C26.0596 30.6977 26.307 31.6085 26.054 32.4406C25.891 33.0366 25.3119 33.4189 24.699 33.3402C23.8782 33.3065 23.136 32.8398 22.7537 32.1089C22.4895 31.6591 22.1859 31.2319 21.8485 30.8383C21.0221 30.0174 19.6896 30.0174 18.8631 30.8383C18.7956 30.9058 18.7338 30.9732 18.6776 31.0463C17.5306 32.5643 18.0929 35.2012 19.8245 36.1626C20.1619 36.32 20.5498 36.32 20.8815 36.1626C21.1458 35.8927 21.2807 35.516 21.2413 35.1337C21.2188 34.9369 20.7578 34.757 20.4711 34.6165C20.2855 34.5602 20.0944 34.5265 19.8976 34.5153C19.2398 34.3747 18.7788 33.9643 18.8687 33.4021C18.9812 32.9298 19.2792 32.5306 19.6952 32.2832" fill="white"  ></path><path d="M16.2152 26.0254C16.0296 25.0864 15.1526 24.4567 14.2024 24.5804C14.4442 24.7435 14.551 24.8166 14.6634 24.8897C15.2032 25.137 15.4618 25.7611 15.2594 26.3177C15.057 26.9249 14.4667 27.3129 13.8257 27.2623C12.2515 27.2847 10.6716 27.2735 9.09737 27.2791C8.83875 27.2791 8.58012 27.3016 8.34961 27.3129V28.8084C9.53029 28.8084 10.6604 28.7971 11.7904 28.8084C12.4876 28.8196 12.8249 29.1738 12.6956 29.7248C12.6113 30.1858 12.1728 30.5007 11.7061 30.4276C10.5817 30.4164 9.4572 30.4276 8.34961 30.4276V31.3497H10.4017C9.04115 32.7271 8.99055 34.0596 10.1993 35.1559C11.38 36.033 12.988 36.0724 14.208 35.2459C14.8321 34.7793 15.2425 34.0765 15.3381 33.3062C15.4506 32.4966 15.0176 31.895 14.1968 31.3159H16.1196V30.4388H13.4209C13.4884 29.8766 13.5446 29.3706 13.6064 28.8477C15.6305 28.3923 16.4963 27.4703 16.2208 26.0254M14.2024 32.699C14.1237 33.2669 13.6458 33.4355 13.1173 33.5311C12.8531 33.5761 12.5776 33.5817 12.3133 33.6042V33.5705C12.1165 33.5817 11.9198 33.5817 11.723 33.5705C11.1326 33.4861 10.5142 33.4074 10.4242 32.7215C10.3961 32.0693 10.8515 31.5015 11.4925 31.389C12.1334 31.3103 12.7856 31.3497 13.4153 31.5071C13.9606 31.6139 14.3149 32.148 14.2024 32.6934V32.7046" fill="white"  ></path><path d="M29.2303 38.9734C29.1516 38.5968 29.2134 38.2032 29.4046 37.8715C30.3042 36.2748 29.7813 33.964 28.1452 33.0869C28.2239 33.4524 28.3476 33.8122 28.4994 34.1495C29.2697 35.1728 29.2584 36.5896 28.4769 37.6072C26.644 36.7189 24.8955 36.5952 23.4169 37.2249C22.7422 37.5117 22.1687 37.8827 22.1631 38.6249C22.1687 39.3558 22.6185 40.0079 23.2988 40.2778C25.0136 41.1549 27.1051 40.7276 28.3364 39.2489C28.3982 39.1421 28.4432 39.024 28.4713 38.906C29.101 41.8127 29.4439 42.3299 30.8045 42.24V40.3959C30.0174 40.4802 29.3146 39.9124 29.2303 39.1309C29.2247 39.0803 29.2191 39.024 29.2191 38.9734M23.9116 38.7598C23.7205 38.7092 23.4618 38.4618 23.4731 38.3156C23.5181 38.0795 23.6642 37.8771 23.8723 37.759C24.8224 37.2474 27.0207 37.4723 27.999 38.1863C26.8127 39.0353 25.2891 39.2433 23.9172 38.7598" fill="white"  ></path></g></g><defs  ><clipPath id="clip0_4305_1117"  ><rect width="62.7053" height="44" fill="white"  ></rect></clipPath></defs></svg>