<?xml version="1.0" encoding="UTF-8" standalone="no"?>
<svg
   version="1.1"
   viewBox="0 0 1500.0001 269.00078"
   id="svg106834"
   sodipodi:docname="NewsNation_(June_2021).svg"
   inkscape:version="1.1.1 (3bf5ae0, 2021-09-20)"
   xmlns:inkscape="http://www.inkscape.org/namespaces/inkscape"
   xmlns:sodipodi="http://sodipodi.sourceforge.net/DTD/sodipodi-0.dtd"
   xmlns="http://www.w3.org/2000/svg"
   xmlns:svg="http://www.w3.org/2000/svg">
  <defs
     id="defs106838">
    <rect
       x="-844.21729"
       y="127.04105"
       width="1514.55"
       height="297.59009"
       id="rect109248" />
    <rect
       x="-844.21729"
       y="127.04105"
       width="1514.55"
       height="297.59009"
       id="rect118108" />
  </defs>
  <sodipodi:namedview
     id="namedview106836"
     pagecolor="#505050"
     bordercolor="#eeeeee"
     borderopacity="1"
     inkscape:pageshadow="0"
     inkscape:pageopacity="0"
     inkscape:pagecheckerboard="0"
     showgrid="false"
     inkscape:zoom="0.5595"
     inkscape:cx="930.29491"
     inkscape:cy="37.533512"
     inkscape:window-width="1366"
     inkscape:window-height="703"
     inkscape:window-x="0"
     inkscape:window-y="0"
     inkscape:window-maximized="1"
     inkscape:current-layer="svg106834" />
  <path
     d="M 186.21173,202.29659 V 73.196965 H 152.72712 V 144.23079 L 100.4679,73.196965 H 66.20907 V 202.29659 h 33.29106 v -74.71133 l 54.58186,74.71133 z"
     style="font-weight:800;font-size:40px;line-height:1.25;font-family:'Proxima Nova';-inkscape-font-specification:'Proxima Nova Ultra-Bold';letter-spacing:3.25906px;word-spacing:0px;white-space:pre;fill:#000000;stroke:none;stroke-width:4.83882"
     id="path120461" />
  <path
     d="m 319.85526,202.29659 v -29.0329 h -61.3562 v -21.87145 h 60.00133 v -29.0329 h -60.00133 v -20.12948 h 61.3562 V 73.196965 H 225.208 V 202.29659 Z"
     style="font-weight:800;font-size:40px;line-height:1.25;font-family:'Proxima Nova';-inkscape-font-specification:'Proxima Nova Ultra-Bold';letter-spacing:3.25906px;word-spacing:0px;white-space:pre;fill:#000000;stroke:none;stroke-width:4.83882"
     id="path120463" />
  <path
     d="M 488.72522,202.29659 525.69379,73.196965 H 488.14457 L 468.7893,159.32791 446.72429,73.196965 h -25.54895 l -22.065,86.130945 -19.54883,-86.130945 H 342.20585 L 379.17441,202.29659 H 414.401 l 19.54882,-80.90501 19.54882,80.90501 z"
     style="font-weight:800;font-size:40px;line-height:1.25;font-family:'Proxima Nova';-inkscape-font-specification:'Proxima Nova Ultra-Bold';letter-spacing:3.25906px;word-spacing:0px;white-space:pre;fill:#000000;stroke:none;stroke-width:4.83882"
     id="path120465" />
  <path
     d="m 599.91645,204.61924 c 34.64593,0 53.80764,-17.22619 53.80764,-43.16225 0,-48.00107 -72.96936,-36.0008 -72.96936,-52.45278 0,-5.41947 4.25816,-9.290535 13.93579,-9.290535 12.77448,0 26.90383,4.451725 37.74278,13.355145 l 18.19395,-23.806985 c -13.74224,-11.80671 -31.74264,-18.0004 -52.45278,-18.0004 -33.09751,0 -51.48501,19.35527 -51.48501,41.033175 0,49.74304 73.16291,35.61368 73.16291,53.22698 0,6.19369 -6.96789,10.64539 -18.3875,10.64539 -17.6133,0 -31.93619,-7.7421 -41.22672,-17.03263 l -17.6133,24.9683 c 12.96803,12.38736 31.16198,20.51659 57.2916,20.51659 z"
     style="font-weight:800;font-size:40px;line-height:1.25;font-family:'Proxima Nova';-inkscape-font-specification:'Proxima Nova Ultra-Bold';letter-spacing:3.25906px;word-spacing:0px;white-space:pre;fill:#000000;stroke:none;stroke-width:4.83882"
     id="path120467" />
  <path
     id="rect107062"
     style="fill:#000000;stroke:none;stroke-width:1.201"
     d="M 0,8.09e-4 V 269.00081 H 100.42383 V 250.76643 H 18.95312 V 18.233231 h 81.47071 V 8.09e-4 Z" />
  <path
     id="path107298"
     style="fill:#000000;stroke:none;stroke-width:1.201"
     d="m 1500.0001,0 v 269 h -100.4239 v -18.23438 h 81.4707 V 18.232422 h -81.4707 V 0 Z" />
  <path
     d="M 800.2116,202.29659 V 73.196965 H 777.56593 V 162.81185 L 711.56447,73.196965 H 688.33815 V 202.29659 h 22.64566 v -92.13106 l 67.35634,92.13106 z"
     style="font-weight:600;font-size:40px;line-height:1.25;font-family:'Proxima Nova';-inkscape-font-specification:'Proxima Nova Semi-Bold';letter-spacing:2.63907px;word-spacing:0px;white-space:pre;fill:#000000;stroke:none;stroke-width:4.83882"
     id="path120470" />
  <path
     d="M 956.59756,202.29659 905.88676,73.196965 h -28.25869 l -50.7108,129.099625 h 25.74251 l 9.48408,-24.77474 h 59.22712 l 9.48408,24.77474 z M 914.98374,157.58592 H 868.5311 l 23.22632,-61.549745 z"
     style="font-weight:600;font-size:40px;line-height:1.25;font-family:'Proxima Nova';-inkscape-font-specification:'Proxima Nova Semi-Bold';letter-spacing:2.63907px;word-spacing:0px;white-space:pre;fill:#000000;stroke:none;stroke-width:4.83882"
     id="path120472" />
  <path
     d="M 1024.3361,202.29659 V 93.132885 h 39.0977 V 73.196965 H 962.59281 v 19.93592 h 39.09769 V 202.29659 Z"
     style="font-weight:600;font-size:40px;line-height:1.25;font-family:'Proxima Nova';-inkscape-font-specification:'Proxima Nova Semi-Bold';letter-spacing:2.63907px;word-spacing:0px;white-space:pre;fill:#000000;stroke:none;stroke-width:4.83882"
     id="path120474" />
  <path
     d="M 1118.0111,202.29659 V 73.196965 h -22.6457 V 202.29659 Z"
     style="font-weight:600;font-size:40px;line-height:1.25;font-family:'Proxima Nova';-inkscape-font-specification:'Proxima Nova Semi-Bold';letter-spacing:2.63907px;word-spacing:0px;white-space:pre;fill:#000000;stroke:none;stroke-width:4.83882"
     id="path120476" />
  <path
     d="m 1218.4602,204.61924 c 38.7105,0 66.0015,-28.2587 66.0015,-66.77568 0,-38.516985 -27.291,-66.775675 -66.0015,-66.775675 -38.7105,0 -66.0015,28.25869 -66.0015,66.775665 0,38.51698 27.291,66.77568 66.0015,66.77569 z m 0,-20.12948 c -26.1296,0 -42.7751,-20.12948 -42.7751,-46.6462 0,-26.71027 16.6455,-46.646195 42.7751,-46.646195 25.9361,0 42.7752,19.935925 42.7752,46.646195 0,26.51672 -16.8391,46.6462 -42.7752,46.6462 z"
     style="font-weight:600;font-size:40px;line-height:1.25;font-family:'Proxima Nova';-inkscape-font-specification:'Proxima Nova Semi-Bold';letter-spacing:2.63907px;word-spacing:0px;white-space:pre;fill:#000000;stroke:none;stroke-width:4.83882"
     id="path120478" />
  <path
     d="M 1430.9765,202.29659 V 73.196965 h -22.6457 V 162.81185 L 1342.3293,73.196965 H 1319.103 V 202.29659 h 22.6457 v -92.13106 l 67.3563,92.13106 z"
     style="font-weight:600;font-size:40px;line-height:1.25;font-family:'Proxima Nova';-inkscape-font-specification:'Proxima Nova Semi-Bold';letter-spacing:2.63907px;word-spacing:0px;white-space:pre;fill:#000000;stroke:none;stroke-width:4.83882"
     id="path120480" />
</svg>
