<?xml version="1.0" encoding="UTF-8" standalone="no"?>
<svg
   id="DG"
   viewBox="0 0 500 250"
   version="1.1"
   sodipodi:docname="NHKG.svg"
   inkscape:version="1.1.1 (3bf5ae0d25, 2021-09-20)"
   width="500"
   height="250"
   xmlns:inkscape="http://www.inkscape.org/namespaces/inkscape"
   xmlns:sodipodi="http://sodipodi.sourceforge.net/DTD/sodipodi-0.dtd"
   xmlns="http://www.w3.org/2000/svg"
   xmlns:svg="http://www.w3.org/2000/svg"
   xmlns:rdf="http://www.w3.org/1999/02/22-rdf-syntax-ns#"
   xmlns:cc="http://creativecommons.org/ns#">
  <sodipodi:namedview
     id="namedview13"
     pagecolor="#ffffff"
     bordercolor="#666666"
     borderopacity="1.0"
     inkscape:pageshadow="2"
     inkscape:pageopacity="0.0"
     inkscape:pagecheckerboard="0"
     showgrid="false"
     inkscape:zoom="0.52"
     inkscape:cx="219.23077"
     inkscape:cy="93.269231"
     inkscape:window-width="1366"
     inkscape:window-height="705"
     inkscape:window-x="-8"
     inkscape:window-y="-8"
     inkscape:window-maximized="1"
     inkscape:current-layer="DG"
     fit-margin-top="0"
     fit-margin-left="0"
     fit-margin-right="0"
     fit-margin-bottom="0" />
  <defs
     id="defs4">
    <style
       id="style2">.cls-1{fill:#ff2800;}.cls-2{fill:#fff;}</style>
  </defs>
  <g
     id="g1099">
    <rect
       class="cls-1"
       width="500"
       height="250"
       id="rect8"
       x="0"
       y="0" />
    <g
       id="g1074"
       transform="translate(3.2345141,15.892342)">
      <g
         id="g12"
         style="fill:#ffffff;fill-opacity:1"
         transform="matrix(2.0965371,0,0,2.0965371,38.962065,66.485758)">
        <g
           id="g10"
           style="fill:#ffffff;fill-opacity:1">
          <path
             class="st0"
             d="M 42.5,0.2 C 39.3,-0.7 35.9,1.2 35,4.4 L 30.5,20 19.5,2.8 C 17.6,0 13.8,-0.8 11,1.1 9.8,1.9 8.9,3.1 8.5,4.5 L 0.2,33.1 c -0.7,3.3 1.4,6.6 4.7,7.3 3,0.7 6,-1 7.1,-3.9 l 4.5,-15.6 11.1,17.2 c 1.9,2.8 5.7,3.6 8.5,1.8 1.2,-0.8 2.1,-2 2.5,-3.4 L 46.8,7.9 c 0.8,-3.3 -1,-6.7 -4.3,-7.7 z"
             id="path4"
             style="fill:#ffffff;fill-opacity:1" />
          <path
             class="st0"
             d="m 92.6,0.2 c -3.2,-0.9 -6.6,1 -7.6,4.2 0,0 0,0 0,0 L 82.1,14.6 H 68.3 l 1.9,-6.8 c 0.9,-3.3 -1,-6.6 -4.2,-7.6 -3.3,-0.9 -6.6,1 -7.6,4.2 v 0 L 50.2,33 c -0.9,3.3 1,6.6 4.2,7.6 3.3,0.9 6.6,-1 7.6,-4.2 l 3,-10.1 h 13.8 l -1.9,6.8 c -0.8,3.3 1.2,6.6 4.5,7.4 3.1,0.8 6.3,-1 7.3,-4.1 L 96.9,7.8 c 0.8,-3.2 -1,-6.6 -4.3,-7.6 0,0 0,0 0,0 z"
             id="path6"
             style="fill:#ffffff;fill-opacity:1" />
          <path
             class="st0"
             d="m 144.3,2.4 c -2,-2.7 -5.9,-3.2 -8.6,-1.2 0,0 0,0 0,0 l -17.3,13.1 1.9,-6.5 c 0.9,-3.3 -1,-6.6 -4.2,-7.6 -3.3,-0.9 -6.6,1 -7.6,4.2 L 100.3,33 c -0.9,3.3 1,6.6 4.2,7.6 3.3,0.9 6.6,-1 7.6,-4.2 l 3.5,-12.3 v 0 c 0,0.1 0.1,0.1 0.2,0.2 0.1,0.1 0.1,0.2 0.2,0.3 l 13.3,14.3 c 1.1,1.3 2.8,2 4.5,2 3.4,0 6.1,-2.7 6.1,-6.1 0,-1.6 -0.6,-3.1 -1.6,-4.2 L 129.6,21.3 143.1,11 c 2.7,-2 3.2,-5.9 1.2,-8.6 z"
             id="path8"
             style="fill:#ffffff;fill-opacity:1" />
        </g>
      </g>
      <path
         class="cls-2"
         d="M 454.41953,152.32615 H 444.454 l -2.79916,-10.71279 c -5.10216,7.77889 -13.97744,12.64218 -26.00701,12.64218 -22.84655,0 -40.2295,-17.15024 -40.2295,-45.3255 0,-27.47096 16.40905,-44.970263 41.08085,-44.970263 20.53735,0 34.03089,10.571848 36.82393,27.954799 l -14.33882,0.967803 c -2.07023,-10.682147 -10.45545,-16.157961 -21.75623,-16.157961 -17.383,0 -26.98095,12.76461 -26.98095,32.328132 0,19.56344 9.72055,32.81815 26.49094,32.81815 13.13215,0 22.24624,-8.14024 24.43293,-22.11762 v -1.46392 H 417.72417 V 105.7756 h 36.70753 z"
         id="path10"
         style="fill:#ffffff;fill-opacity:1;stroke-width:0.612503" />
    </g>
  </g>
  <metadata
     id="metadata1089">
    <rdf:RDF>
      <cc:Work
         rdf:about="" />
    </rdf:RDF>
  </metadata>
</svg>
