<?xml version="1.0" encoding="UTF-8"?>
<svg id="Layer_1" data-name="Layer 1" xmlns="http://www.w3.org/2000/svg" width="1758.74" height="1375" viewBox="0 0 1758.74 1375">
  <defs>
    <style>
      .cls-1 {
        fill: #ff6700;
      }
    </style>
  </defs>
  <path class="cls-1" d="M885.43.63c28.04-2.28,56.62,1.64,82.8,12.04,36.27,14.21,67.46,40.62,87.99,73.67,25.5,40.73,33.91,91.93,22.09,138.57-5.51,21.79-15.21,42.38-27.5,61.15-5.42,8.46-11.81,16.24-17.25,24.69-10.75,16.42-19.42,34.51-23.23,53.86-2.69,13.59-2.98,27.72-.1,41.3,4.24,20.43,14.39,39.29,27.51,55.39,12.91,15.8,28.79,29.14,46.48,39.29,18.43,10.56,39,17.65,60.21,19.63,19.37,1.8,38.96.73,58.14-2.43,27.47-4.72,54.91-13.77,77.26-30.87,10.75-8.74,21.57-17.44,33.02-25.28,14.43-9.96,29.87-18.71,46.59-24.19,14.87-4.96,30.53-7.15,46.16-7.67,16.52-.5,33.19-.03,49.4,3.5,23.49,4.91,45.78,15.43,64.48,30.49,31.48,25.21,52.97,62,61.1,101.36,4.32,20.78,5.11,42.32,2.05,63.33-.8,5.77-5,10.87-10.5,12.78-5.65,2.08-12.42.66-16.69-3.6-3.81-3.61-5.56-9.11-4.72-14.26,3.78-26.38-.03-53.68-10.12-78.3-8.62-21.03-22.09-40.21-39.66-54.71-16.72-13.92-37.24-23.17-58.72-26.61-9.82-1.67-19.81-1.9-29.75-1.84-16.91.07-34.03,2.34-49.77,8.78-23.15,9.41-42.79,25.32-62.01,40.93-12.41,9.8-26.38,17.49-40.97,23.52-17.3,7.11-35.5,11.93-53.96,14.88-22.57,3.55-45.62,4.48-68.34,1.93-38.46-4.54-74.78-22.3-103.51-48.02-15.99-14.34-29.75-31.27-39.98-50.18-11.24-20.75-18.13-44.15-18.04-67.85-.03-24.1,6.48-47.89,17.16-69.38,5.37-10.89,11.72-21.27,18.72-31.19,4.64-6.48,9.48-12.82,13.68-19.59,12.87-20.29,22.19-43.15,24.92-67.13,2.99-27.07-1.57-54.95-13.13-79.61-16.82-36.16-48.52-65.2-86.25-78.28-26.62-9.36-55.89-10.97-83.39-4.67-30.91,6.97-59.35,24.19-79.96,48.24-3.52,4.05-6.73,8.34-9.87,12.68-15.58,19.99-31.27,39.97-49,58.13-16,16.41-33.74,31.33-53.64,42.82-18.57,10.78-38.99,18.39-60.11,22.28-5.57,1.1-11.23,1.6-16.79,2.73-22.76,4.37-44.48,14.05-62.88,28.15-17.31,13.21-31.66,30.26-41.73,49.57-12.02,23.04-18.03,49.26-16.9,75.25,1.4,27.37,11.78,53.38,24.87,77.14,5.87,10.29,11.43,20.78,15.9,31.76,10.56,25.39,16.41,52.76,16.91,80.27.43,22.15-2.52,44.33-8.44,65.68-1.67,5.8-6.91,10.34-12.87,11.22-5.24.89-10.84-1.06-14.42-4.98-3.8-4.04-5.21-10.07-3.68-15.39,7.06-25.83,9.06-53.11,5.07-79.61-3.54-24.07-11.93-47.32-24.01-68.39-12.69-22.12-23.25-45.76-28.34-70.86-5.62-26.61-4.1-54.48,2.99-80.66,9.88-36.67,31.63-70.02,61.23-93.82,22.65-18.33,49.81-31.04,78.39-36.73,7.12-1.55,14.4-2.1,21.53-3.6,24.17-4.79,46.83-15.85,66.31-30.82,29.11-22.2,51.72-51.37,74.1-80.01,19.05-27.02,45.52-48.78,75.85-61.97,18.13-7.95,37.59-12.85,57.31-14.51Z"/>
  <path class="cls-1" d="M261.55,261.82c22.11-2.24,44.84,1.95,64.64,12.08,23.93,12.11,43.43,32.69,54.22,57.24,9.93,22.34,12.47,47.84,7.34,71.73-4.38,20.67-14.58,40.04-29.04,55.45-14.02,15.02-32.06,26.28-51.75,32.18-23.18,7-48.56,6.56-71.47-1.3-20.4-6.93-38.75-19.68-52.46-36.29-13.98-16.83-23.11-37.66-25.89-59.37-2.88-21.94.58-44.68,10-64.7,8.32-17.8,21.2-33.42,37.06-45.01,16.7-12.28,36.72-19.98,57.36-21.99ZM261.54,294.36c-20.39,2.75-39.56,13.31-52.85,29-13.41,15.64-20.78,36.3-20.21,56.91.38,22.59,10.38,44.79,26.97,60.12,16.04,15.06,38.13,23.43,60.13,22.71,23.03-.49,45.59-11.01,60.86-28.23,15.23-16.87,23.13-40.05,21.36-62.71-1.56-23.41-13.49-45.83-31.93-60.3-17.88-14.29-41.69-20.75-64.33-17.5Z"/>
  <path class="cls-1" d="M212.57,834.73c7.2-2.31,15.63,1.27,18.98,8.04,3.06,5.72,2.16,13.25-2.19,18.08-1.8,1.95-3.92,3.58-5.8,5.47-17.93,17.16-30.77,39.62-36.16,63.87-2.61,11.49-3.34,23.36-2.77,35.13,1.22,25.76,9.3,51.12,23.12,72.88,18.99,30.15,48.98,53.21,83.12,63.51,25,7.63,52,8.53,77.47,2.69,27.18-6.17,52.51-20.21,72.13-40.02,26.41-28.46,60.26-49.27,96.17-63.53,44.55-17.58,92.68-25.46,140.49-24.83,44.12.64,88.23,8.65,129.45,24.52,30.35,11.69,59.14,27.81,84.05,48.8,30.47,25.52,54.74,58.67,68.56,96.02,6.64,17.86,11.04,36.56,13.02,55.51,1.32,23.79,8.27,47.27,20.36,67.83,10.3,17.6,24.24,33.05,40.7,45.1,18.17,13.35,39.41,22.5,61.59,26.56,27.32,5.05,56.06,2.58,81.99-7.5,37.21-14.33,68.21-44.07,83.95-80.72,5.94-13.72,9.77-28.35,11.39-43.21,1.33-11.46,1.11-23.09-.83-34.46-3.56-21.17-11.79-41.36-22.61-59.82-5.42-9.2-11.54-17.99-18.4-26.16-6.02-7.28-13.03-13.64-19.2-20.77-14.78-16.65-27.62-35.2-36.55-55.65-9.29-21.11-14.05-44.38-12.48-67.47,1.44-22.94,9.04-45.24,20.58-65.04,8.63-14.83,19.32-28.41,31.24-40.73,5.77-6.13,16.38-6.35,22.42-.49,6.43,5.64,6.92,16.47,1.03,22.68-14.09,14.68-26.49,31.32-34.4,50.18-5.71,13.52-8.94,28.14-8.88,42.84,0,21.6,7.19,42.69,18.15,61.13,6.02,10.18,13.12,19.71,20.86,28.64,5.55,6.55,11.77,12.48,17.55,18.82,15.28,17.04,27.74,36.55,37.24,57.36,10.07,22.24,16.75,46.3,17.38,70.81.74,43.96-15.38,87.9-44.29,121.02-26.63,30.89-63.75,52.66-103.9,60.16-8.34,1.57-16.78,2.62-25.26,2.98-6.26.05-12.51.08-18.77-.01-26.06-1.29-51.84-8.2-75.02-20.22-33.2-17.11-60.85-44.74-77.95-77.95-11.68-22.52-18.5-47.52-20.05-72.83-2.49-23.28-9.26-46.11-19.91-66.97-9.07-17.79-20.97-34.09-34.9-48.38-22.54-23.14-50.21-40.92-79.82-53.64-34.14-14.61-70.8-23.07-107.79-25.87-46.68-3.46-94.24,1.96-138.47,17.53-33.54,11.89-65.39,29.89-90.65,55.18-25.08,27.5-58.86,46.88-95.26,54.61-25.18,5.42-51.5,5.44-76.69.1-37.26-7.82-71.73-27.87-97.18-56.14-14.41-15.93-26.01-34.42-34.04-54.35-9.53-23.55-13.97-49.11-13.07-74.5,1.32-43.5,22.04-85.8,55.04-114.06,1.57-1.23,3.36-2.17,5.26-2.73Z"/>
  <g>
    <path class="cls-1" d="M25.53,676.82c16.37-16.32,38.54-25.49,61.66-25.48,23.12-.03,45.31,9.13,61.67,25.46,16.35,16.3,25.54,38.45,25.53,61.54v79.48h-66.2v-78.14c-.02-9.51-2.31-17.65-6.16-23.95-3.89-6.2-8.94-9.88-14.84-9.92-5.9.02-10.92,3.7-14.84,9.92-3.85,6.3-6.16,14.44-6.16,23.95v78.14H0v-79.48c0-23.94,9.8-45.89,25.53-61.52Z"/>
    <path class="cls-1" d="M245.6,629.94c6.67-6.63,10.77-15.83,10.77-25.96s-4.1-19.33-10.77-25.96c-6.89-6.9-16.26-10.77-26.01-10.75-20.26-.06-36.73,16.31-36.8,36.56,0,.05,0,.1,0,.15,0,10.13,4.1,19.33,10.77,25.96l8.14,8.11c13.57,13.53,14.52,17.14,1.62,30l-7.37,7.37c-6.29,6.25-9.82,14.75-9.8,23.62v118.76h66.88v-118.76c0-8.86-3.51-17.36-9.78-23.62l-7.4-7.37c-12.9-12.86-11.94-16.47,1.62-29.98l8.12-8.12Z"/>
    <path class="cls-1" d="M349.34,777.57c5.9-.02,10.92-4.27,14.84-11.46v-.03c3.09-6.08,5.02-12.68,5.68-19.46h66.25c-2.06,22.59-12.94,43.45-30.3,58.06-34.61,29.42-86,27.36-118.15-4.72-33.98-33.91-34.04-88.94-.13-122.92.04-.04.09-.09.13-.13,16.37-16.32,38.54-25.49,61.66-25.48,44.92-.02,82.5,34.1,86.8,78.81h-66.25c-.67-6.79-2.6-13.4-5.69-19.48-3.9-7.2-8.93-11.42-14.82-11.46-5.9.03-10.94,4.27-14.84,11.46-3.85,7.29-6.15,16.68-6.15,27.67s2.29,20.42,6.15,27.69c3.9,7.19,8.94,11.46,14.84,11.46Z"/>
    <path class="cls-1" d="M612.48,806.26c-.01-2.13-.62-4.22-1.76-6.03l-36.23-54.69,25.07-45.46c9.27-15.69,4.06-35.93-11.64-45.19-.02-.01-.04-.02-.06-.03-15.74-9.27-36.02-4.05-45.33,11.67l-29.97,53.47v-35.63c-.03-18.26-14.84-33.04-33.1-33.03-18.26-.03-33.09,14.75-33.11,33.01,0,0,0,.01,0,.02v133.46h66.2v-52.26l34.91,52.23h53.43c6.36-.02,11.51-5.17,11.52-11.52h.03l.02-.02Z"/>
    <path class="cls-1" d="M628.41,676.74c16.36-16.32,38.53-25.48,61.64-25.46l.05.02c24.22-.02,45.02,9.55,61.37,26.01,28.07,28.31,21.05,70.15,21.05,70.15h-102.74c.92,6.8,2.8,12.8,5.46,17.77,3.9,7.2,8.94,11.46,14.84,11.46,14.07,0,22.26-20.55,22.26-20.55h58.98s-.85,22.28-19.08,43.15c-14.46,14.47-35.88,26.01-61.77,26.01-23.26.12-45.6-9.05-62.06-25.48-33.98-33.89-34.06-88.91-.17-122.89.06-.06.11-.11.17-.17v-.02ZM670.87,722.73l38.32-.1c-.77-3.7-2.38-9.3-4.17-12.51-4.15-7.47-9.01-11.69-14.97-11.71-5.9.02-11.88,5.16-14.84,11.46-1.88,4.13-3.33,8.44-4.35,12.86h.02Z"/>
    <path class="cls-1" d="M814.98,566.96c-18.26,0-33.07,14.79-33.08,33.05l.08,217.78h66.2l-.1-217.82c0-18.26-14.84-33.01-33.1-33.01Z"/>
    <path class="cls-1" d="M857.33,738.34c.06-48.1,39.09-87.05,87.18-87,48.1-.05,87.13,38.9,87.18,87-.06,48.1-39.09,87.05-87.18,87-48.1.06-87.14-38.9-87.2-87h0s.02,0,.02,0ZM923.5,738.34c0,21.64,9.41,39.19,21,39.19s21-17.55,21-39.19-9.41-39.19-21-39.19-21,17.55-21,39.19Z"/>
    <path class="cls-1" d="M1214.03,738.34v-138.34c0-18.26-14.84-33.01-33.13-33.01s-33.08,14.81-33.05,33.05v54c-29.68-7.4-61.06,1.29-82.71,22.9-33.98,33.83-34.1,88.8-.27,122.77.09.09.18.18.27.27,10.03,10.05,31.57,25.49,61.64,25.49s51.61-15.43,61.66-25.51c16.35-16.3,25.55-38.43,25.56-61.52v-.07l.03-.03ZM1126.83,777.54c-11.59,0-21-17.55-21-39.19s9.41-39.19,21-39.19,21,17.55,21,39.19-9.41,39.19-21,39.19Z"/>
    <path class="cls-1" d="M1247.97,676.74c16.36-16.32,38.53-25.48,61.64-25.46l.05.02c24.22-.02,45.02,9.55,61.37,26.01,28.09,28.31,21.04,70.15,21.04,70.15h-102.73c.92,6.8,2.8,12.8,5.44,17.77,3.92,7.2,8.94,11.46,14.84,11.46,14.09,0,22.28-20.55,22.28-20.55h58.98s-.85,22.28-19.09,43.15c-14.46,14.47-35.88,26.01-61.76,26.01-23.26.12-45.6-9.05-62.06-25.48-33.98-33.89-34.06-88.91-.17-122.89.06-.06.11-.11.17-.17v-.02ZM1290.43,722.73l38.32-.1c-.77-3.7-2.38-9.3-4.17-12.51-4.15-7.47-9.01-11.69-14.97-11.71-5.9.02-11.89,5.16-14.84,11.46-1.88,4.13-3.33,8.44-4.36,12.86h.02Z"/>
    <path class="cls-1" d="M1489,651.35c-48.1-.05-87.13,38.9-87.18,87,.06,48.1,39.09,87.05,87.18,87,48.1.05,87.13-38.9,87.18-87-.06-48.1-39.09-87.05-87.18-87ZM1489,777.52c-11.59,0-21-17.54-21-39.18s9.41-39.19,21-39.19,21,17.55,21,39.19-9.41,39.19-21,39.19v-.02Z"/>
    <path class="cls-1" d="M1671.55,651.35c-23.12-.02-45.3,9.14-61.67,25.46-16.36,16.3-25.54,38.45-25.53,61.54v79.48h66.2v-78.14c0-9.51,2.29-17.65,6.16-23.95,3.9-6.2,8.94-9.88,14.84-9.92,5.9.02,10.95,3.7,14.84,9.92,3.84,6.3,6.13,14.44,6.16,23.95v78.14h66.18v-79.48c0-23.94-9.8-45.89-25.53-61.52-16.36-16.33-38.54-25.5-61.66-25.48Z"/>
  </g>
</svg>