<svg xmlns="http://www.w3.org/2000/svg" xmlns:xlink="http://www.w3.org/1999/xlink" viewBox="0 0 246.58 47.16"><defs><style>.cls-1{fill:url(#linear-gradient);}.cls-2{fill:#fff;}.cls-3{fill:url(#radial-gradient);}.cls-4{fill:url(#radial-gradient-2);}.cls-5{fill:url(#radial-gradient-3);}.cls-6{fill:url(#radial-gradient-4);}</style><linearGradient id="linear-gradient" x1="192.47" y1="1.68" x2="228.01" y2="34.83" gradientUnits="userSpaceOnUse"><stop offset="0" stop-color="#ed1c24"/><stop offset="1" stop-color="#b10f1f"/></linearGradient><radialGradient id="radial-gradient" cx="-4.59" cy="49.69" r="187.79" gradientUnits="userSpaceOnUse"><stop offset="0" stop-color="#00aeef"/><stop offset="1" stop-color="#235ca9"/></radialGradient><radialGradient id="radial-gradient-2" cx="-4.59" cy="49.69" r="187.79" xlink:href="#radial-gradient"/><radialGradient id="radial-gradient-3" cx="-4.59" cy="49.69" r="187.79" xlink:href="#radial-gradient"/><radialGradient id="radial-gradient-4" cx="-4.59" cy="49.69" r="187.79" xlink:href="#radial-gradient"/></defs><g id="Layer_2" data-name="Layer 2"><g id="Layer_2-2" data-name="Layer 2"><path class="cls-1" d="M241.15,43.29A3.76,3.76,0,0,0,243.57,41a51.8,51.8,0,0,0,0-34.8,3.76,3.76,0,0,0-2.42-2.31,84,84,0,0,0-50.4,0,3.72,3.72,0,0,0-2.42,2.31,51.64,51.64,0,0,0,0,34.8,3.72,3.72,0,0,0,2.42,2.31A83.59,83.59,0,0,0,216,47.16,83.59,83.59,0,0,0,241.15,43.29Z"/><path class="cls-2" d="M217.75,12.75v5.17h-8.42V34.41h-5.8V17.92h-8.42V12.75Z"/><path class="cls-2" d="M217.66,12.75l6.66,16.53h.55l6.57-16.53h6.31l-9.4,21.66h-7.64l-9.52-21.66Z"/><path class="cls-3" d="M40.05,43h-12V29.13H12V43H0V4.16H12V17.81H28.07V4.16h12Z"/><path class="cls-4" d="M74.58,43V22.08L56.44,43H46.06V4.16H58V23L74.35,4.16H86.56V43Z"/><path class="cls-5" d="M133.29,43H119.53l-8-13.87h-7V43h-12V4.16h12V17.81h7.27l8-13.65h13.65l-11.6,19.31Z"/><path class="cls-6" d="M147.36,36.56,144.86,43H132.27L147.2,6.07A3,3,0,0,1,150,4.16h10.76a3.07,3.07,0,0,1,2.83,1.91L178.54,43H165.83l-2.49-6.44Zm8-20.8-3.66,9.48H159Z"/></g></g></svg>