<svg xmlns="http://www.w3.org/2000/svg" width="80" height="32" viewBox="0 0 80 32"><defs><clipPath id="a"><path d="M1.73997852,0 C2.52422286,-1.44063349e-16 3.15997852,0.635755655 3.15997852,1.42 L3.15997852,17.5291046 C3.15997852,18.3133489 2.52422286,18.9491046 1.73997852,18.9491046 L1.42,18.9491046 C0.635755655,18.9491046 9.60422327e-17,18.3133489 0,17.5291046 L0,1.42 C-9.60422327e-17,0.635755655 0.635755655,1.44063349e-16 1.42,0 L1.73997852,0 Z"/></clipPath><clipPath id="b"><path d="M14.3521867,0 C14.4279702,-0.00032522564 14.4999099,0.033334501 14.5482204,0.0917240559 C14.5965308,0.150113611 14.6161241,0.227083807 14.6016115,0.301465396 C14.4867684,0.897213759 14.2319604,2.22329219 14.1063508,2.81365729 C14.0291906,3.17613069 13.3150104,6.37558651 12.3980603,9.78498979 C11.3931836,13.5102115 10.1783594,17.2964435 10.0868438,17.5835512 C10.0049073,17.8796499 9.8435741,18.1477112 9.62029387,18.3587418 C9.42294295,18.5348239 9.1931581,18.6707444 8.94379648,18.7588981 C8.68313824,18.8514123 8.41064951,18.9063934 8.13451181,18.9221906 C7.85278743,18.9491069 7.58362401,18.9491069 7.31446059,18.9491069 L7.28574983,18.9491069 C7.01658641,18.9491069 6.7402453,18.9401348 6.46569862,18.9221906 C6.18956091,18.9063934 5.91707218,18.8514123 5.65641395,18.7588981 C5.40670597,18.6703333 5.17640839,18.5344699 4.97812213,18.3587418 C4.75599544,18.1470937 4.59538348,17.8792004 4.51336663,17.5835512 C4.42005665,17.2964435 3.20702685,13.5102115 2.20215009,9.78498979 C1.28520005,6.3827642 0.571019786,3.17254184 0.493859606,2.81365729 C0.362866743,2.22508662 0.117030822,0.899008182 0.00398218734,0.301465396 C-0.00930961106,0.227147758 0.0110390744,0.150762145 0.0595411915,0.0929060483 C0.108043309,0.0350499514 0.179704556,0.00168085808 0.255201377,0.00179679202 L2.89300286,0.00179679202 C3.01107245,0.00122835415 3.11383833,0.0823985093 3.14063321,0.197388875 C3.30196813,0.894005549 3.87037338,3.33309243 4.47464921,5.84576946 L4.63285601,6.50182246 C4.84423249,7.37585939 5.05604358,8.24124243 5.25266882,9.02774338 C6.06374792,12.2720598 6.88559355,15.1754358 6.96095931,15.4176829 C6.99537914,15.5765001 7.05928941,15.7274501 7.1493737,15.8626997 C7.2389698,15.9439483 7.37559601,15.9439483 7.46519211,15.8626997 C7.55208142,15.72677 7.6129303,15.5758648 7.64463439,15.4176829 C7.72000014,15.1754358 8.54722904,12.2541155 9.35292487,9.02774338 C9.49941502,8.44113026 9.65480314,7.80890024 9.81241305,7.16103677 L9.97051629,6.50907265 L10.1286171,5.85334921 C10.7327701,3.34105116 11.3041693,0.892754891 11.4667549,0.197388875 C11.4935498,0.0823985093 11.5963157,0.00122835415 11.7143853,0.00179679202 Z"/></clipPath><clipPath id="c"><path d="M13.8260339,0.000362010816 C13.9660592,0.00134812904 14.0790475,0.115141251 14.0790475,0.255170046 L14.0790475,16.7225879 C14.0790475,17.4008797 13.9462602,17.9248512 13.6376195,18.3375684 C13.3289788,18.7502856 12.7350248,18.9494666 11.8198692,18.9494666 C11.407152,18.9494666 10.4704633,18.9117837 10.151056,18.8220626 C9.8636546,18.7464206 9.59610388,18.6092779 9.36689329,18.4201119 C9.14895753,18.2271074 8.97304832,17.9913402 8.85009952,17.7274647 C8.70387578,17.4178876 8.57507449,17.1003774 8.46429863,16.7764206 L7.55273185,14.4239323 L3.63191808,4.24596631 C3.58167424,4.11497345 3.4758033,3.80453831 3.436326,3.70763948 L3.40863439,3.65007469 C3.35215334,3.56162944 3.24710742,3.51250397 3.13965206,3.53028968 C3.01070561,3.55163254 2.9160891,3.66307104 2.91594339,3.79377177 L2.91594339,4.36978148 L2.9249155,18.6892753 C2.92491898,18.8293041 2.81192721,18.9430972 2.67190189,18.9440833 L0.253019984,18.9440833 C0.185604538,18.944085 0.120976096,18.9171821 0.0734749185,18.869344 C0.025973741,18.821506 -0.000471751558,18.756689 0,18.6892753 L0,2.22724068 C0,1.54894887 0.129204812,1.023183 0.439639953,0.612260179 C0.750075094,0.201337362 1.34402903,0.000362010816 2.25918465,0.000362010816 C2.81805706,-0.00442099691 3.37632845,0.038199722 3.92799784,0.127766028 C4.21651456,0.202390612 4.48532408,0.338938497 4.71574944,0.527922308 C4.92994859,0.724231815 5.10156846,0.962423098 5.21998224,1.22774719 C5.36589281,1.53746151 5.49468698,1.85495412 5.60578314,2.17879127 L8.83574414,10.5766899 L10.4507246,14.7038623 C10.5009685,14.8348551 10.6068394,15.1452903 10.6445223,15.2421891 L10.6721256,15.2996254 C10.7284155,15.3879011 10.8330752,15.4370877 10.940318,15.419707 C11.0690094,15.3988501 11.1638958,15.2882179 11.1649049,15.1578512 L11.1649049,14.5746638 L11.1559328,0.255170046 C11.1559293,0.115141251 11.2689211,0.00134812904 11.4089464,0.000362010816 Z"/></clipPath><clipPath id="d"><path d="M11.5704381,0 C11.7111647,0 11.8252461,0.114081443 11.8252461,0.254808035 L11.8252461,2.47809786 C11.8286514,2.54707308 11.8041107,2.61450927 11.7571711,2.6651635 C11.7102315,2.71581774 11.6448559,2.74541356 11.5758214,2.74726128 L7.8200945,2.74726128 C7.6400265,2.76436042 7.50082467,2.9127911 7.49530397,3.09358487 L7.49530397,18.6853244 C7.4943261,18.825644 7.38081549,18.9391546 7.24049594,18.9401324 L4.58833907,18.9401324 C4.44801952,18.9391546 4.33450891,18.825644 4.33353104,18.6853244 L4.33353104,3.07384622 L4.32321315,3.0043011 C4.28396022,2.84752457 4.14212599,2.73269642 3.97464648,2.73290589 L0.254808055,2.73290589 C0.114488507,2.73192802 0.000977892577,2.61841741 0,2.47809786 L0,0.254808035 C0,0.116837509 0.109714578,0.00388648312 0.247630364,0 Z"/></clipPath><clipPath id="e"><path d="M3.97997744,9.22223649 C3.95126668,9.29580783 3.92076149,9.36579031 3.8902563,9.43936165 C3.69508109,9.9522528 3.46978794,10.4531705 3.21555334,10.9394991 C2.87999628,11.5513973 1.70285493,12.7339219 1.36012018,12.9366916 C1.25031299,13.0147904 1.11978052,13.0585094 0.985085821,13.0623012 C0.89228017,13.0606477 0.800517476,13.0424167 0.714127981,13.0084686 C0.50942752,12.9434385 0.324327927,12.8280598 0.175801147,12.6729115 C0.0284101378,12.4600084 -0.0295764493,12.1977802 0.0143030963,11.9425814 C0.0577671154,11.0396073 0.235573959,10.1481539 0.541863394,9.29760225 C0.738691454,9.37237895 0.940826478,9.43235967 1.14658387,9.47704453 C2.09584007,9.66746486 3.07992658,9.57896563 3.97997744,9.22223649 Z M6.51370241,0.138868378 C6.639312,0.205262021 6.91026984,0.368554494 6.95871926,0.601829455 C6.99619532,0.812846085 6.99982967,1.0284843 6.96948579,1.24064396 C6.90266053,1.86525005 6.78501441,2.48310136 6.61784224,3.08807733 L6.48319722,3.53929955 C6.42039242,3.69900317 6.34861551,3.85691238 6.2768386,4.01302716 L6.17276208,4.24809654 C5.8617288,4.95151027 5.54650853,5.65073702 5.22710127,6.34577677 C5.14455783,6.52521905 5.06560322,6.70466133 4.98305978,6.88410361 C4.86227773,6.95162262 4.74653486,7.02778503 4.63673618,7.1119953 C3.64442038,7.8835971 2.48342884,8.20120993 1.4641967,7.98408477 C1.36158366,7.96252444 1.26032388,7.93496261 1.16093925,7.90154133 L1.35473691,7.50497389 L1.64184456,6.91281437 C1.70464936,6.77643824 1.771043,6.64006211 1.83923106,6.50189156 C1.93612989,6.3080939 2.0312343,6.11250181 2.11736659,5.91332088 L2.57673883,4.85461144 L3.14377643,3.56801031 L3.3232187,3.16247076 C3.45062272,2.85741889 3.57802674,2.55416144 3.72516941,2.26525937 C3.93579569,1.84879316 4.20801966,1.46646973 4.53265966,1.13118418 C4.67980233,0.975069393 5.42987105,0.194495484 5.80669983,0.0401751248 C6.06868556,-0.0692846648 6.38809281,0.0724747348 6.51370241,0.138868378 Z M2.55700018,7.14608933 C3.31604101,7.62520022 4.06252089,6.44626445 3.30168563,5.96535915 C2.54085037,5.48445384 1.79616492,6.66697845 2.55700018,7.14608933 Z M3.93691129,6.17351219 C4.69774655,6.65262307 5.44243201,5.47189288 4.68159675,4.992782 C3.92076149,4.51367112 3.17607604,5.69260688 3.93691129,6.17351219 Z"/></clipPath><clipPath id="g"><path d="M11.0854339,7.53120162 L10.9831518,7.75909332 C10.4035532,9.10670482 9.81857142,10.4327833 9.24435613,11.7068234 L9.19770114,11.8126944 C7.06233803,12.053147 4.84443148,12.5825018 3.86467664,14.4810011 C3.20225405,15.8294105 3.37178638,17.4382235 4.30072137,18.61894 C4.68619218,19.1206811 5.18077879,19.5281321 5.74702613,19.8104367 C5.65909942,19.989879 5.5711727,20.1675268 5.47427387,20.3433803 C4.86775897,21.4828387 2.80417277,23.7240728 2.21201326,24.1439677 C2.02025335,24.2975947 1.78457784,24.3862087 1.53910471,24.3969813 C1.39652681,24.3944865 1.25554207,24.3665326 1.12279863,24.3144379 C0.779659652,24.2075943 0.473643829,24.0060717 0.239942621,23.7330449 C-0.0597259829,23.3346831 -0.00948214508,22.8376279 0.0299951561,22.4374717 L0.0299951561,22.3639003 C0.193566951,20.5047604 0.636378235,18.6808861 1.34351263,16.9537156 C1.73828564,16.0062604 2.18509692,15.0713661 2.61755281,14.1741548 C2.80058393,13.8033074 2.98002621,13.4312637 3.15587964,13.0580238 C3.27431154,12.7996269 3.39992114,12.5394356 3.52553073,12.2792443 C3.6960009,11.925743 3.87185433,11.5596808 4.03335238,11.1882353 C6.00721744,10.9639324 7.44275566,9.88727873 8.72397353,8.93444024 C9.56376339,8.30459784 10.3156265,7.74114909 11.0854339,7.53120162 Z M4.18587832,19.548451 C3.96091398,19.1758228 3.47646954,19.0561176 3.10384138,19.281082 C2.73121322,19.5060463 2.61150804,19.9904908 2.83647238,20.3631189 C2.96350683,20.5937417 3.20661366,20.7363001 3.46990363,20.7345644 L3.48425901,20.7345644 C3.78697067,20.7244743 4.06276931,20.5580441 4.21279466,20.2949309 C4.3442021,20.0606684 4.33381649,19.7726408 4.18587832,19.548451 Z M2.75169062,17.5795886 C2.45491886,17.4588945 2.11461313,17.5299549 1.89093949,17.759325 C1.66726585,17.9886952 1.60478445,18.33068 1.73290237,18.6243233 C1.83577479,18.9162951 2.11424829,19.1094183 2.42375515,19.1034341 C2.53629774,19.1026874 2.64769516,19.0807731 2.75213451,19.0388349 C3.04883279,18.9179602 3.24277236,18.6294381 3.24267494,18.3090625 C3.24257744,17.9886869 3.04846237,17.7002828 2.75169062,17.5795886 Z M8.47993203,13.4545912 C8.16411362,14.1723603 7.86085617,14.8901294 7.56836526,15.5755989 L7.10899302,16.6504582 C6.98338343,16.946538 6.8631571,17.2444121 6.73934193,17.5476696 C6.61552676,17.850927 6.49888928,18.1326514 6.38045738,18.4269367 C6.04450177,18.2477778 5.7508089,17.9987507 5.51913444,17.6966067 C4.94775101,16.9844399 4.83542517,16.0076935 5.23023237,15.1844148 C5.76855921,14.1400607 7.04080496,13.691455 8.47993203,13.4545912 Z M10.7014274,0.0897303535 C11.1482387,-0.12560038 11.663238,0.10049689 11.8660078,0.208162257 C12.1890039,0.376837998 12.5514773,0.681889871 12.6017212,1.03000789 C12.6480367,1.40978145 12.6383633,1.79429649 12.5730104,2.17126078 C12.3857015,3.44076302 12.1056197,4.69483352 11.735015,5.92339881 C10.224111,5.91263228 8.99493137,6.8206102 7.80881791,7.71782159 C6.87571806,8.40687994 5.92108514,9.12464905 4.77444899,9.48353361 L4.90544185,9.17848174 C5.26073756,8.36919706 5.61423885,7.56709008 5.96415129,6.75780541 C6.0754055,6.50299737 6.18307087,6.24639491 6.29073624,5.98979246 C6.50965582,5.46223216 6.76087501,4.86289495 7.03721611,4.29406293 C7.42317506,3.52905217 7.91089979,2.819799 8.48710972,2.18561616 C8.7455066,1.88415313 10.071585,0.400165495 10.7014274,0.0897303535 Z M7.51273815,5.35456679 C7.25435781,5.32334439 6.9999936,5.43808477 6.85239057,5.65244097 C6.69076851,5.89819968 6.66573369,6.20944336 6.78599692,6.47787545 C6.89579155,6.71610571 7.12874074,6.87370932 7.3907174,6.88700385 L7.46249431,6.88700385 C7.69675963,6.89342884 7.91807166,6.77972725 8.04927056,6.58554082 C8.21357031,6.34070925 8.2387189,6.0280512 8.1156642,5.76010634 C8.00741736,5.52189855 7.7741786,5.36501772 7.51273815,5.35456679 Z M9.07029712,4.32456812 C8.66308983,4.31679627 8.31818237,4.62605234 8.28522228,5.03208248 C8.25226219,5.43811262 8.54277384,5.79894977 8.94648195,5.85341632 L9.01825886,5.85341632 C9.25284844,5.85911586 9.47437125,5.74565296 9.60682953,5.5519533 C9.77009555,5.3060968 9.79518679,4.9934735 9.67322318,4.7247244 C9.56247328,4.48944601 9.33011951,4.33523503 9.07029712,4.32456812 Z M10.7344713,3.84956275 L10.6232555,3.86514026 C10.3645577,3.9215967 10.1556301,4.11177827 10.0751739,4.36404542 C10.0058052,4.55252738 10.0173234,4.76128562 10.1070067,4.94099195 C10.19669,5.12069828 10.3565821,5.25540979 10.5489015,5.31329507 L10.6287871,5.33480629 C10.6826749,5.34638628 10.7376806,5.3524214 10.792943,5.35277237 C11.116903,5.34356009 11.3977072,5.12588243 11.4873846,4.81444553 C11.5678408,4.56217838 11.5076025,4.28615104 11.3293609,4.09034032 C11.1511193,3.89452961 10.8819534,3.80868383 10.6232555,3.86514026 Z"/></clipPath><clipPath id="i"><path d="M4.71009542,9.34446645 C5.27209922,9.53528692 5.85443151,9.65994337 6.44530225,9.71591197 C6.16896114,10.3403711 5.90697541,10.9450916 5.65755065,11.5372511 L5.32019917,12.3321804 C5.2286836,12.5511 5.14075689,12.771814 5.0474469,12.9943224 C4.77328846,13.7032271 4.46120645,14.3968758 4.11255263,15.072264 C3.66035809,15.9138483 2.10638797,17.5611284 1.65598785,17.8679747 C1.51625574,17.977706 1.34543873,18.0405064 1.16790485,18.0474169 C1.06012836,18.0455577 0.953639727,18.0236515 0.8538808614:48 2023-12-0514:48 2023-12-0514:48 2023-12-05,17.9828177 C0.596096888,17.9031786 0.365172127,17.7541949 0.186355591,17.5521562 C-0.0397416794,17.2614598 -0.00744206939,16.8792477 0.0176798495,16.5993178 C0.121142097,15.2000044 0.443261013,13.8255497 0.972312769,12.525978 C1.26300926,11.8279476 1.59856632,11.1353004 1.92156242,10.4659807 L2.30736332,9.66387371 C2.4868056,9.55082507 2.66624787,9.42880432 2.82954035,9.29601704 C3.29250142,8.93713248 3.79314538,9.0645365 4.71009542,9.34446645 Z M8.82111801,0.160610663 C8.93596107,0.221621037 9.31996754,0.444129462 9.3720058,0.756359026 C9.4110253,1.04067202 9.40679035,1.32925311 9.35944484,1.61229869 C9.21571769,2.68370069 8.971804,3.73925817 8.6309092,4.76509952 C8.5447769,4.9840191 8.45146692,5.19934983 8.34918482,5.41468056 L8.20024773,5.75023762 C7.85093343,6.56131672 7.49204887,7.36940511 7.12359406,8.1745028 C7.01772312,8.18526934 6.91185217,8.19424145 6.8041868,8.1978303 C6.26585997,8.22295221 5.7167666,8.05786532 5.14434573,7.88380631 C4.57192487,7.7097473 3.91337171,7.51236079 3.26199624,7.55722136 L3.6137031,6.76946976 C3.87927767,6.17013255 4.13946898,5.57438419 4.39966028,4.97504698 C4.48220373,4.7956047 4.56115833,4.5982182 4.64011293,4.40800938 C4.81955521,3.99349772 4.99899749,3.5664251 5.19638399,3.15191344 C5.48426884,2.58499411 5.8503141,2.06129568 6.2838042,1.59614889 C6.47939628,1.37902373 7.47888977,0.282631412 7.95261738,0.060122987 C8.27561348,-0.0906085265 8.6703865,0.0798616376 8.82111801,0.160610663 Z M6.09897865,7.402901 C6.86878602,7.87124535 7.59014398,6.6779542 6.81674776,6.2131987 C6.04335155,5.7484432 5.32917128,6.9381455 6.09897865,7.402901 Z M4.5826914,6.99915588 C5.35070435,7.46750022 6.07206231,6.27420908 5.30046051,5.80945358 C4.52885872,5.34469808 3.81108961,6.5361948 4.5826914,6.99915588 Z"/></clipPath><clipPath id="k"><path d="M10.6745086,17.724095 C10.2725579,18.6464283 9.88675698,19.5418453 9.51531146,20.4157292 L8.91238541,21.8512674 C8.74370967,22.2496293 8.58041719,22.6497856 8.4153303,23.0517363 C7.90930308,24.2880936 7.38712605,25.5639281 6.75728365,26.7572193 C5.9659432,28.2717121 3.30840307,31.2360986 2.5547455,31.8013417 C2.33501728,31.9922435 2.0576864,32.1040603 1.7669939,32.1189546 C1.60953948,32.1154148 1.45397893,32.0838165 1.30762167,32.0256446 C0.897237271,31.9010347 0.532314758,31.6590006 0.25788434,31.3294085 C-0.0776727203,30.8628586 -0.00948465464,30.2419883 0.0461424515,29.7431388 L0.0569089882,29.6444455 C0.310603798,27.1937904 0.914912684,24.7922669 1.85133177,22.5134094 C1.9482306,22.2837233 2.04871827,22.0540372 2.14920595,21.8225567 C2.6686082,22.0020955 3.21463546,22.0924933 3.76418645,22.0899256 C4.1865934,22.0884225 4.60764875,22.0421064 5.0202824,21.9517551 C6.65679597,21.5928705 7.59169024,20.5826105 8.49607932,19.6028557 C9.13309941,18.8976475 9.76832508,18.2139724 10.6745086,17.724095 Z M2.37172312,23.1920641 C2.1983207,23.5774028 2.35983585,24.0309211 2.73777662,24.2199055 C2.84030368,24.2669737 2.95155581,24.292036 3.06436157,24.2934768 C3.37022286,24.2835392 3.64191443,24.0953911 3.75880318,23.8125715 C3.85177967,23.6274344 3.86424392,23.4121371 3.79325335,23.2175075 C3.72226278,23.0228778 3.57410912,22.8661654 3.38376882,22.7843673 C2.99167425,22.6268358 2.54512555,22.8067253 2.37172312,23.1920641 Z M4.3304174,23.2264586 C4.21764556,23.6359221 4.44977362,24.0610718 4.8551955,24.1876059 C4.92761497,24.2079307 5.00248644,24.2181954 5.07770393,24.2181116 C5.4218002,24.2064771 5.71565793,23.9662484 5.79547304,23.6313348 C5.86046631,23.4357667 5.84233519,23.2220934 5.7453188,23.0402724 C5.64830242,22.8584515 5.48090626,22.7244234 5.28226812,22.6695242 C4.86025806,22.5706433 4.44318924,22.8169952 4.3304174,23.2264586 Z M6.32060637,22.3161534 C6.16941887,22.5560468 6.16344575,22.8599195 6.30508911,23.1055689 C6.42902972,23.3724761 6.69283497,23.5467264 6.98696977,23.5559691 C7.11213938,23.5558956 7.23537598,23.5250865 7.34585432,23.4662479 C7.53235523,23.3754135 7.67290938,23.2113965 7.73410715,23.0131837 C7.79530493,22.8149709 7.77168088,22.6002643 7.66885042,22.4200994 C7.55622133,22.1598665 7.3087947,21.9833605 7.02607332,21.9615634 C6.74335194,21.9397664 6.47179387,22.07626 6.32060637,22.3161534 Z M15.4135791,0.23385618 C15.7939968,0.433037108 16.2174805,0.788332819 16.2713132,1.1884891 C16.3196707,1.68386712 16.2967074,2.18362073 16.2031252,2.67247674 C15.9678763,4.35160785 15.3148051,6.93602078 14.8977712,8.0856673 L14.8339806,8.25492601 C14.6778658,8.64611017 14.5073956,9.03011665 14.3351311,9.41412312 C14.2454099,9.6168929 14.1556888,9.81786825 14.0677621,10.020638 C13.3105156,11.7779761 12.5407083,13.526342 11.7583399,15.2657358 L11.5358315,15.7645853 C9.43994571,16.3029122 8.32022589,17.5231197 7.36200413,18.560296 C6.55092503,19.4395632 5.84930572,20.2003985 4.68293092,20.4534121 C4.05354584,20.6077952 3.39518983,20.5991489 2.77007623,20.4282901 C3.02488427,19.8827856 3.28029044,19.3444588 3.53629476,18.8133096 C3.77136414,18.3198434 4.00643353,17.8281715 4.23611964,17.3347053 C4.39582327,16.9758207 4.56449901,16.6312915 4.73317475,16.2795847 C4.91979472,15.8943819 5.099237,15.5067866 5.27150159,15.1167987 C5.74343478,15.0647605 6.22075124,15.0252832 6.68371232,14.9876003 C7.17358974,14.948123 7.63655081,14.9104401 8.07259555,14.8584018 C9.95456957,14.677376 11.3700887,13.0621113 11.3025566,11.1726574 C11.2828788,9.5059539 10.0746385,8.09155766 8.4314801,7.81170358 C8.72935429,7.09393447 9.03620058,6.37616536 9.37893533,5.66736836 C9.88298069,4.66319251 10.5137863,3.72783927 11.2559016,2.88421863 C11.4622602,2.64376597 13.2853937,0.522758247 14.080323,0.108246585 C14.428441,-0.071195693 14.9129352,-0.0263351235 15.4135791,0.23385618 Z M7.81060982,9.25621392 C9.21205401,9.39438447 9.74140873,10.3454285 9.76473623,11.2085459 C9.81291611,12.3071698 8.98535973,13.2479707 7.88956442,13.3403202 C7.48223045,13.3887696 7.03362476,13.424658 6.55810272,13.4641353 L5.96235436,13.5125848 L6.55451388,12.1542067 C6.97979207,11.1870128 7.39968701,10.2234078 7.81060982,9.25621392 Z M12.3556873,9.39241992 C12.0947047,9.50083318 11.9113847,9.74024372 11.874782,10.0204679 C11.8427547,10.2656641 11.9273154,10.5095134 12.099273,10.6817445 L12.1782349,10.7509681 C12.3101073,10.8555816 12.4728855,10.9136265 12.6411959,10.916055 C12.8882714,10.9097815 13.1186581,10.789954 13.2656551,10.5912645 C13.4025838,10.4328554 13.4672525,10.2245217 13.4440922,10.0164195 C13.4209319,9.80831731 13.3120408,9.61929955 13.1436343,9.49487215 C12.9156656,9.32306123 12.6166699,9.28400666 12.3556873,9.39241992 Z M11.5471683,7.81663417 C11.2411876,7.97490004 11.0823505,8.3212412 11.1620466,8.65638413 C11.2417428,8.99152706 11.5394798,9.22929602 11.8839495,9.23288642 C12.1307812,9.22730693 12.3612206,9.10811412 12.5084087,8.90989032 C12.7045341,8.62668177 12.6825332,8.24629065 12.4550646,7.98758174 C12.227596,7.72887284 11.853149,7.6583683 11.5471683,7.81663417 Z M10.1272096,6.30438845 C9.84973138,6.42543608 9.65341834,6.67996609 9.60682703,6.97909141 C9.56994308,7.2453308 9.68489821,7.50986611 9.90470121,7.66456091 C10.036001,7.77042405 10.1990161,7.82918532 10.3676623,7.83144223 C10.4619431,7.83111113 10.555235,7.81220885 10.642209,7.77581513 C10.9223813,7.65742471 11.1208415,7.40187317 11.1661804,7.10111216 C11.1918053,6.83608872 11.0789813,6.57657959 10.8676938,6.414556 C10.6564062,6.25253241 10.3765131,6.21089053 10.1272096,6.30438845 Z"/></clipPath><linearGradient id="f" x1=".368" x2="6.096" y1="12.937" y2="1.241" gradientUnits="userSpaceOnUse"><stop offset="0%" stop-color="#4877BB"/><stop offset="17%" stop-color="#4D88C1"/><stop offset="50%" stop-color="#5BB1D2"/><stop offset="66%" stop-color="#61C8DB"/><stop offset="100%" stop-color="#C7E8F0"/></linearGradient><linearGradient id="h" x1="1.003" x2="12.699" y1="24.065" y2="-2.073" gradientUnits="userSpaceOnUse"><stop offset="0%" stop-color="#875C24"/><stop offset="17%" stop-color="#937128"/><stop offset="50%" stop-color="#B5A531"/><stop offset="89%" stop-color="#EEC85E"/><stop offset="100%" stop-color="#FFD26C"/></linearGradient><linearGradient id="j" x1=".635" x2="7.915" y1="18.033" y2="1.923" gradientUnits="userSpaceOnUse"><stop offset="0%" stop-color="#528091"/><stop offset="49%" stop-color="#26A981"/><stop offset="56%" stop-color="#4DB386"/><stop offset="66%" stop-color="#7BC08B"/><stop offset="76%" stop-color="#9FCB90"/><stop offset="85%" stop-color="#BAD293"/><stop offset="94%" stop-color="#C9D695"/><stop offset="100%" stop-color="#CFD896"/></linearGradient><linearGradient id="l" x1="1.069" x2="14.913" y1="31.647" y2="1.214" gradientUnits="userSpaceOnUse"><stop offset="0%" stop-color="#A13422"/><stop offset="9%" stop-color="#B53F24"/><stop offset="26%" stop-color="#D55326"/><stop offset="35%" stop-color="#E15C26"/><stop offset="57%" stop-color="#E97421"/><stop offset="100%" stop-color="#FBB016"/></linearGradient></defs><g clip-path="url(#a)" transform="translate(45.643 8.996)"><polygon fill="#000" points="0 0 3.16 0 3.16 18.949 0 18.949 0 0"/></g><g clip-path="url(#b)" transform="translate(65.394 8.994)"><polygon fill="#000" points="0 0 14.606 0 14.606 18.949 0 18.949 0 0"/></g><g clip-path="url(#c)" transform="translate(27.857 8.996)"><polygon fill="#000" points="0 0 14.079 0 14.079 18.949 0 18.949 0 0"/></g><g clip-path="url(#d)" transform="translate(51.182 8.996)"><polygon fill="#000" points="0 0 11.826 0 11.826 18.94 0 18.94 0 0"/></g><g clip-path="url(#e)" transform="translate(0 4.265)"><polygon fill="url(#f)" points="0 0 6.99 0 6.99 13.062 0 13.062 0 0"/></g><g clip-path="url(#g)" transform="translate(6.039 1.79)"><polygon fill="url(#h)" points="0 0 12.63 0 12.63 24.397 0 24.397 0 0"/></g><g clip-path="url(#i)" transform="translate(2.75 3.292)"><polygon fill="url(#j)" points="0 0 9.398 0 9.398 18.047 0 18.047 0 0"/></g><g clip-path="url(#k)" transform="translate(10.173)"><polygon fill="url(#l)" points="0 0 16.296 0 16.296 32.119 0 32.119 0 0"/></g></svg>