<?xml version="1.0" encoding="UTF-8"?> <svg xmlns="http://www.w3.org/2000/svg" xmlns:xlink="http://www.w3.org/1999/xlink" width="312px" height="51px" viewBox="0 0 312 51" version="1.1"><title>Group 25</title><defs><path d="M108.399687,7.48847826 C113.117062,1.95617391 119.335937,0.347478261 126.323437,1.01669565 C131.018062,1.47195652 135.098437,3.29621739 138.220062,6.8803913 C144.456812,14.0326522 143.603687,26.3456087 136.612937,32.4924348 C129.823687,38.4574783 115.447312,38.9014783 108.393187,30.1968261 C105.409687,33.7198696 101.587687,35.7725652 97.0344375,36.5946087 C87.0423125,38.4011739 78.0365625,33.5895652 75.1830625,24.8382609 C75.0758125,24.5068696 75.0530625,24.1529565 74.9896875,23.8086957 C74.8986875,23.622087 74.8028125,23.4322609 74.6841875,23.252087 C74.4323125,23.0542174 74.3640625,23.2746087 74.2681875,23.437087 L72.4672812,29.680837 L72.4672812,29.680837 L70.6639375,35.9366522 L63.6488125,35.9366522 C61.1706875,28.3098261 58.6746875,20.6122174 56.0324375,12.4802609 C54.07025,18.5285543 52.1821016,24.3488152 50.3056074,30.1358213 L48.4306875,35.9189565 L41.6771875,35.9189565 C39.0918125,27.3413913 36.5048125,18.7783043 33.7715625,9.71652174 C31.9856875,12.4078696 30.5865625,14.9013478 28.8088125,17.0891739 C26.4883125,19.9365652 25.8431875,22.9946957 25.9829375,26.6174783 C26.0804375,29.1566435 26.0219375,31.5588765 25.9946375,34.0457398 L25.9829375,35.9302174 L18.3600625,35.9302174 C18.3600625,31.9068696 18.3145625,27.861 18.3828125,23.8135217 C18.4039375,22.4236087 18.0968125,21.2476522 17.3021875,20.0845652 C14.7001562,16.2671304 12.160332,12.4127459 9.45628125,8.33820262 L8.2866875,6.57795652 L8.2866875,28.8455217 L15.7779375,28.8455217 L15.7779375,35.9028696 L0.5484375,35.9028696 L0.5484375,1.83391304 L14.8468125,1.83391304 C17.1656875,5.86208696 19.5186875,9.93691304 22.0715625,14.3608261 C24.1632625,10.9426696 26.1790425,7.64497217 28.2112545,4.32441843 L29.7399375,1.82747826 L39.8929375,1.82747826 C41.6771875,8.8446087 43.4630625,15.8906957 45.3951875,23.4998261 C47.6239653,16.8019324 49.7217801,10.4993408 51.8221628,4.19773794 L52.6101875,1.83391304 L59.8966875,1.83391304 C61.9749,8.28976957 64.0689075,14.7977478 66.3078341,21.7542337 L67.058875,24.0886087 L67.6652974,21.7617849 C69.2681064,15.5988847 70.7776274,9.79180226 72.2878764,3.99954557 L72.8544375,1.82747826 L80.4756875,1.82747826 C80.7535625,3.04847826 79.7866875,4.05552174 79.8728125,5.23791304 C88.3439375,-1.443 101.849312,-0.361956522 108.399687,7.48847826 Z M123.690937,7.9163913 C117.481812,7.86652174 112.980562,12.4239565 112.951021,18.7943913 C112.923687,25.2275652 117.283563,29.7512174 123.536562,29.785 C129.791187,29.8252174 134.274562,25.3063913 134.304061,18.9407826 C134.326562,12.5767826 129.891937,7.96626087 123.690937,7.9163913 Z M93.2205625,7.9163913 C87.0471875,7.85365217 82.4923125,12.4400435 82.4256875,18.7831304 C82.3574375,25.1149565 86.8180625,29.7399565 93.0434375,29.785 C99.2801875,29.8300435 103.760312,25.3385652 103.839937,18.9584783 C103.913062,12.6781304 99.3955625,7.97752174 93.2205625,7.9163913 Z" id="path-1"></path><path d="M50.0536226,0.886391304 C57.1380755,0.830086957 62.9000755,3.31713043 66.776566,9.42373913 C67.8329057,9.51382609 67.3623396,8.70947826 67.3899245,8.29282609 C67.5312746,6.38670048 67.2379972,4.4678642 67.5015729,2.56682287 L67.6284528,1.85482609 L75.2402642,1.85482609 L75.2402642,28.8213913 L85.4580377,28.8213913 L85.4580377,35.9463043 L67.6738868,35.9463043 C67.1010943,33.8244348 67.5992453,31.6639565 67.378566,29.5324348 C67.3266415,29.0417826 67.9464906,28.2261739 66.8901509,28.0234783 C61.3446113,39.0367338 41.1435427,40.529313 33.6090233,28.2402465 L33.3598868,27.8207826 L33.3598868,35.89 L23.1486038,35.89 C20.7292453,32.0017826 18.2839245,28.0685217 15.8369811,24.1352609 C13.6391132,20.604013 11.4386166,17.0688561 8.99654438,13.1439588 L8.17324528,11.8206957 L8.17324528,35.8964348 L0.368339623,35.8964348 L0.368339623,1.90630435 L10.9950189,1.90630435 C15.6487547,9.40765217 20.4128302,17.0714783 25.1736604,24.7417391 L25.3560047,24.7053424 L25.3560047,24.7053424 L25.5371321,24.6677391 L25.5371321,1.83873913 L33.2966038,1.83873913 L33.2966038,10.2795652 C37.3613208,3.62278261 43.0097358,0.942695652 50.0536226,0.886391304 Z M50.2807925,7.90993566 C44.1115094,7.92121739 39.5924528,12.5751739 39.6102492,18.8957391 C39.6200377,25.2436522 44.1115094,29.7962609 50.332717,29.7898329 C56.5831321,29.7801739 60.9593962,25.2597391 60.9416016,18.8442609 C60.9236981,12.4464783 56.4906415,7.89869565 50.2807925,7.90993566 Z" id="path-3"></path><path d="M1.24815,0.725 C1.78815,0.86 1.86015,1.229 1.72065,1.7 C1.49865,1.5845 1.27515,1.469 1.05465,1.3535 C0.96165,1.1 0.99915,0.8855 1.24815,0.725 Z" id="path-5"></path><path d="M21.4927083,0.461329327 L22.055614,0.467465016 C33.8452938,0.724717387 43.6324171,9.04322041 46.0811493,20.1058941 L46.1921875,20.634741 L36.7660764,20.634741 L36.6216027,20.2091946 C36.3687912,19.4979519 36.0667275,18.8096981 35.7195139,18.148514 L35.6080017,17.9399442 L35.6080017,17.9399442 C35.5733629,17.8762997 35.5384002,17.8130882 35.5030218,17.7501384 C35.4607006,17.6748342 35.4177494,17.5998439 35.3742089,17.5252349 C35.2661071,17.3399956 35.1543498,17.1570713 35.0390562,16.9765959 C34.9145275,16.7816501 34.785572,16.589133 34.6525961,16.3996095 L34.5371938,16.2372843 L34.5371938,16.2372843 C34.4885742,16.1697783 34.4389077,16.1019491 34.3887213,16.0345255 C34.3536633,15.9874304 34.3187332,15.9410343 34.2835568,15.8948339 C34.1441932,15.7117801 34.0005609,15.5313154 33.8531637,15.3540619 C33.8021467,15.2927154 33.7510443,15.2321802 33.6995022,15.1720292 C33.5392935,14.9850407 33.3742296,14.8011193 33.2050384,14.6210886 C33.183896,14.5985908 33.1624715,14.5759248 33.1409816,14.5533212 C33.0834029,14.4927628 33.0257494,14.4330545 32.967638,14.3737933 C32.9031239,14.3079948 32.8373675,14.2420794 32.7710431,14.1767345 L32.6989196,14.1061189 L32.6989196,14.1061189 C32.6215203,14.0308057 32.5430283,13.9559532 32.4637826,13.8818913 L32.3401247,13.7675242 L32.3401247,13.7675242 C32.2738502,13.7068666 32.2070109,13.6467094 32.1396656,13.5871072 C32.081984,13.5360566 32.0238151,13.4853133 31.9652782,13.4349834 C31.9252011,13.4005248 31.8848816,13.3662011 31.8443906,13.3320733 C31.7674247,13.2672059 31.6901377,13.203289 31.6122456,13.1400845 C31.5704742,13.1061896 31.5285142,13.072488 31.4863815,13.0389931 C31.4277241,12.992359 31.3684597,12.945915 31.3088619,12.8998793 C31.2270369,12.8366777 31.1449071,12.7744861 31.0621648,12.7130692 L31.0152719,12.6783932 L31.0152719,12.6783932 L30.9679686,12.6436788 C30.9047408,12.5974577 30.8416275,12.5520165 30.7781726,12.5070232 C30.6996104,12.4513137 30.6200675,12.3959788 30.540004,12.3413473 C30.4884635,12.3061759 30.4362441,12.2709877 30.3838075,12.2360988 C30.3262552,12.19781 30.2690826,12.1602965 30.2116574,12.1231386 C30.1338466,12.0727886 30.055406,12.0229882 29.9765078,11.9738515 C29.9352029,11.9481253 29.8932704,11.9222746 29.8512106,11.8966114 C29.7595477,11.840687 29.6677836,11.7859467 29.5754334,11.7320993 C29.5292461,11.7051687 29.4829562,11.6784864 29.4365214,11.6520286 C29.3784137,11.6189178 29.3197066,11.5859521 29.2607728,11.5533453 C29.1832616,11.5104639 29.105883,11.4684824 29.0281243,11.42712 C28.943617,11.3821645 28.8582092,11.3377105 28.7723563,11.2940042 C28.7406908,11.2778842 28.7091083,11.2619379 28.6774662,11.2460927 C28.5727929,11.1936766 28.4674932,11.1423804 28.3615574,11.092207 L28.2568954,11.0430988 L28.2568954,11.0430988 C28.1803539,11.0075191 28.1031065,10.9723547 28.025535,10.9377862 C27.9474853,10.9030075 27.8695797,10.8690336 27.7913559,10.8356616 L27.621802,10.7644759 L27.621802,10.7644759 C27.545852,10.7330989 27.4691553,10.7021073 27.392168,10.6716927 C27.3421162,10.6519201 27.2921769,10.6324817 27.2421174,10.6132862 C26.8660428,10.4690728 26.4829379,10.3385028 26.0936614,10.2222866 C26.0151755,10.1988555 25.9365146,10.1760293 25.8576084,10.1537905 C25.7970772,10.1367293 25.7361099,10.1199352 25.6749991,10.1034925 C25.5817595,10.0784067 25.4884386,10.0542018 25.3947938,10.0308186 C25.3358993,10.0161151 25.2775001,10.0018848 25.2189774,9.98797453 C25.1386892,9.96888509 25.0571114,9.95016421 24.9753004,9.93206708 C24.9032936,9.91614025 24.831426,9.90076273 24.7593829,9.88586771 C24.6793542,9.86932343 24.5994457,9.85343882 24.5193273,9.83814944 C24.4519176,9.82528469 24.3842214,9.81281684 24.3163789,9.80077498 C24.2026709,9.7805921 24.0885537,9.76160616 23.9740394,9.74383045 C23.9362432,9.73796148 23.8975988,9.73210533 23.8589097,9.72638719 C23.5986305,9.68793587 23.3373786,9.65583412 23.0742819,9.63008637 C23.0161288,9.62439669 22.9582783,9.61905159 22.9003405,9.6140144 C22.5913438,9.58713813 22.2795907,9.56901971 21.9655134,9.55992701 L21.4927083,9.55309075 L9.27597222,9.55309075 L9.27597222,41.4822782 L21.4927083,41.4822782 L21.9600088,41.4756079 C22.2526615,41.4672434 22.5433728,41.4510479 22.8319376,41.4272248 C22.8509734,41.4256526 22.8694265,41.4240965 22.8878708,41.4225093 C23.0100464,41.4120012 23.1325665,41.4000455 23.2546781,41.3867213 C23.2857071,41.3833344 23.3160772,41.3799318 23.3464218,41.3764447 C23.4129098,41.3688065 23.4798698,41.3606866 23.5467023,41.3521561 C23.7816131,41.3221624 24.0143052,41.2872073 24.2453164,41.2473207 C24.3188996,41.2346194 24.3930625,41.2212773 24.4670474,41.2074284 C24.7096355,41.1620126 24.9498944,41.1112455 25.1881147,41.0551799 C25.2048709,41.0512353 25.2206824,41.0474875 25.2364848,41.0437165 C25.5122297,40.9779292 25.7860712,40.9047876 26.0569366,40.8247051 L26.2164101,40.7766497 L26.2164101,40.7766497 C26.3035159,40.7498991 26.3894097,40.722721 26.4749883,40.6948447 C26.522886,40.6792451 26.5714118,40.6631824 26.6198347,40.6468954 C26.7199954,40.6132007 26.8189207,40.5788317 26.9174014,40.5435295 C26.9854179,40.5191521 27.0540474,40.494021 27.122456,40.4684375 C27.1768856,40.4480793 27.2305444,40.4276785 27.2840647,40.4069997 C27.3858608,40.3676725 27.4876601,40.3271329 27.5889412,40.2855901 C27.6263477,40.2702471 27.6637441,40.2547418 27.7010689,40.2390999 L27.9597436,40.1280081 L27.9597436,40.1280081 L28.1551496,40.0404769 L28.1551496,40.0404769 C28.1963996,40.0216656 28.2372499,40.002828 28.2780071,39.9838246 C28.3726369,39.9397027 28.466753,39.8946932 28.5603565,39.8488014 C28.6106847,39.8241291 28.6614659,39.7988993 28.7120935,39.7734099 C28.7863065,39.7360457 28.8601266,39.6981569 28.9336117,39.6597171 C28.9925088,39.6289034 29.0502593,39.5982377 29.1077987,39.5672319 C29.1898958,39.5230002 29.2725263,39.4775352 29.3547086,39.4313697 L29.4858721,39.3568762 L29.4858721,39.3568762 L29.7201941,39.219688 L29.7201941,39.219688 C29.7672908,39.1915766 29.8141024,39.1633101 29.8607569,39.1348127 C29.9434283,39.0843158 30.0256437,39.0330702 30.1073563,38.981108 C30.1742443,38.9385728 30.2407616,38.8955795 30.3069375,38.8521114 L30.3736484,38.8080542 L30.5344864,38.6998579 L30.6415362,38.626271 L30.6415362,38.626271 C30.7070473,38.5808488 30.7723164,38.5348715 30.8372238,38.4884237 C30.8861967,38.4533771 30.9346792,38.418271 30.9829561,38.3829023 C31.0576248,38.3282016 31.1321533,38.2726054 31.2061771,38.2163831 L31.2858922,38.1554459 L31.2858922,38.1554459 C31.3826792,38.0809777 31.4783859,38.0055975 31.5732019,37.9291636 C31.601608,37.9062644 31.6298946,37.883303 31.658101,37.8602478 C31.718781,37.81065 31.7791601,37.7605588 31.8391623,37.710037 C31.9156285,37.6456552 31.9917197,37.5803668 32.0671848,37.514385 C32.1017256,37.4841817 32.1355308,37.4543708 32.1692084,37.4244205 C32.2303492,37.3700535 32.2918119,37.3145469 32.3528381,37.2585755 C32.4068329,37.2090498 32.4600897,37.1595338 32.513006,37.1096633 C32.5682949,37.0575566 32.6232101,37.0050648 32.6777492,36.9521902 C32.7280663,36.9034123 32.7784734,36.8539006 32.8285516,36.8040612 L32.9754021,36.656009 L32.9754021,36.656009 C33.1472028,36.4805349 33.3145947,36.3015832 33.4778409,36.1188807 L33.5693326,36.0155976 L33.5693326,36.0155976 L33.6448399,35.929 L33.6448399,35.929 L33.7202919,35.8412007 C33.7702122,35.7826803 33.8190623,35.7245874 33.8675031,35.6661462 C33.9080022,35.6172914 33.9487445,35.5675391 33.9891906,35.5175395 C34.0471154,35.4459262 34.1040049,35.3743533 34.160288,35.3022883 C34.1907117,35.2633361 34.2212368,35.2238767 34.2515801,35.1842721 L34.3990723,34.9886899 L34.3990723,34.9886899 C34.5439012,34.7935586 34.6843586,34.5950567 34.8203171,34.3933044 C34.8505625,34.3484224 34.8805806,34.3033867 34.9103745,34.2581917 C34.9542183,34.1916867 34.9977166,34.1246175 35.0407212,34.0572063 C35.0753163,34.0029807 35.109826,33.9481568 35.1440092,33.8931112 C35.1848857,33.8272788 35.2248081,33.7619393 35.2642704,33.6962949 C35.3036076,33.6308591 35.3425244,33.565057 35.3809785,33.4989557 C35.5675322,33.1783057 35.7434794,32.8500467 35.9079945,32.515227 C36.00147,32.325009 36.0915587,32.1319887 36.1778371,31.9369291 C36.2059521,31.8733579 36.2333583,31.8102827 36.2603657,31.7469989 C36.4663454,31.2643453 36.649122,30.7695551 36.8072946,30.2640169 L36.936445,29.8292762 L36.936445,29.8292762 L37.0516667,29.3967494 L46.3668056,29.3967494 L46.2776549,29.9319907 C44.2229684,41.4872291 34.1975651,50.3049961 22.0546336,50.5695484 L21.4927083,50.5756641 L0.143611111,50.5756641 L0.143611111,0.461329327 L21.4927083,0.461329327 Z" id="path-7"></path><linearGradient x1="2.96600333%" y1="49.0916562%" x2="115.1679%" y2="49.0916562%" id="linearGradient-9"><stop stop-color="#FDDF26" offset="0%"></stop><stop stop-color="#E8462F" offset="100%"></stop></linearGradient><path d="M19.954855,0.176 C21.5254026,5.33584615 23.1216705,10.5735385 24.883513,16.3663077 C26.6308879,10.7072308 28.2335859,5.51861538 29.8684343,0.221692308 L35.0880536,0.221692308 C32.8857504,7.18723077 30.70756,14.0698462 28.518117,20.9930769 L21.208721,20.9930769 C19.5127868,15.5472308 17.8377504,10.1606154 16.1337786,4.68261538 L9.93678684,4.68261538 L9.93678684,20.9626154 L4.88434971,20.9626154 L4.88434971,4.54215385 L0.116443713,4.54215385 L0.116443713,0.176 L19.954855,0.176 Z" id="path-10"></path><polygon id="path-12" points="0.826285714 0.717928571 11.7068571 11.2552143 0.826285714 21.7925"></polygon><linearGradient x1="-130.1457%" y1="48.9360714%" x2="350.719571%" y2="48.9360714%" id="linearGradient-14"><stop stop-color="#FDDF26" offset="0%"></stop><stop stop-color="#E8462F" offset="100%"></stop></linearGradient><path d="M7.52,0.175 L7.52,4.47166667 L0.8768,4.47166667 L0.923674074,3.935 L0.952059259,3.39611111 L0.952059259,3.39611111 L0.9616,2.85166667 L0.947925,2.17046875 C0.939994288,1.97342989 0.928645954,1.77754456 0.913963425,1.58263895 L0.901161744,1.42283912 L0.901161744,1.42283912 C0.884389913,1.2253189 0.864242228,1.02911966 0.840775,0.833697917 L0.7488,0.175 L7.52,0.175 Z" id="path-15"></path><linearGradient x1="-442.204%" y1="46.4835667%" x2="231.0074%" y2="46.4835667%" id="linearGradient-17"><stop stop-color="#FDDF26" offset="0%"></stop><stop stop-color="#E8462F" offset="100%"></stop></linearGradient></defs><g id="Page-1" stroke="none" stroke-width="1" fill="none" fill-rule="evenodd"><g id="NOLLYWOOD-GENERIC" transform="translate(-21.000000, -16.000000)"><g id="Group-25" transform="translate(21.000000, 16.000000)"><g id="Group-6" transform="translate(87.000000, 7.000000)"><mask id="mask-2" fill="white"><use xlink:href="#path-1"></use></mask><g id="Clip-5"></g><polygon id="Fill-4" fill="#000000" mask="url(#mask-2)" points="-7.5765625 45.0145217 150.54455 45.0145217 150.54455 -7.20052174 -7.5765625 -7.20052174"></polygon></g><g id="Group-9" transform="translate(0.000000, 7.000000)"><mask id="mask-4" fill="white"><use xlink:href="#path-3"></use></mask><g id="Clip-8"></g><polygon id="Fill-7" fill="#000000" mask="url(#mask-4)" points="-7.74486792 44.9260435 93.5712453 44.9260435 93.5712453 -7.15708696 -7.74486792 -7.15708696"></polygon></g><g id="Group-12" transform="translate(161.000000, 28.000000)"><mask id="mask-6" fill="white"><use xlink:href="#path-5"></use></mask><g id="Clip-11"></g><polygon id="Fill-10" fill="#000000" mask="url(#mask-6)" points="-6.49185 9.2 9.28245 9.2 9.28245 -6.775 -6.49185 -6.775"></polygon></g><g id="Group-15" transform="translate(232.000000, 0.000000)"><mask id="mask-8" fill="white"><use xlink:href="#path-7"></use></mask><g id="Clip-14"></g><polygon id="Fill-13" fill="url(#linearGradient-9)" mask="url(#mask-8)" points="-0.979166667 51.9807692 47.9791667 51.9807692 47.9791667 0 -0.979166667 0"></polygon></g><g id="Group-18" transform="translate(276.000000, 22.000000)"><mask id="mask-11" fill="white"><use xlink:href="#path-10"></use></mask><g id="Clip-17"></g><polygon id="Fill-16" fill="#000000" mask="url(#mask-11)" points="-7.92115911 29.4546154 43.1256564 29.4546154 43.1256564 -8.28553846 -7.92115911 -8.28553846"></polygon></g><g id="Group-21" transform="translate(247.000000, 14.000000)"><mask id="mask-13" fill="white"><use xlink:href="#path-12"></use></mask><g id="Clip-20"></g><polygon id="Fill-19" fill="url(#linearGradient-14)" mask="url(#mask-13)" points="0 23 12 23 12 0 0 0"></polygon></g><g id="Group-24" transform="translate(268.000000, 23.000000)"><mask id="mask-16" fill="white"><use xlink:href="#path-15"></use></mask><g id="Clip-23"></g><polygon id="Fill-22" fill="url(#linearGradient-17)" mask="url(#mask-16)" points="0 5 8 5 8 0 0 0"></polygon></g></g></g></g></svg> 