<?xml version="1.0" encoding="UTF-8"?> <svg xmlns="http://www.w3.org/2000/svg" xmlns:xlink="http://www.w3.org/1999/xlink" width="311px" height="75px" viewBox="0 0 311 75" version="1.1"><title>EPIC LOGO</title><defs><path d="M0.678,-0.003 L0.678,49.814 L21.806,49.814 C34.256,49.814 44.571,40.686 46.418,28.761 L46.418,28.761 L37.199,28.761 C35.476,35.657 29.228,40.776 21.806,40.776 L21.806,40.776 L9.716,40.776 L9.716,9.035 L21.806,9.035 C28.861,9.035 34.86,13.667 36.916,20.05 L36.916,20.05 L46.243,20.05 C43.983,8.616 33.906,-0.003 21.806,-0.003 L21.806,-0.003 L0.678,-0.003 Z" id="path-1"></path><linearGradient x1="0.000486882379%" y1="49.9995451%" x2="100.000182%" y2="49.9995451%" id="linearGradient-3"><stop stop-color="#086B36" offset="0%"></stop><stop stop-color="#57AF31" offset="100%"></stop></linearGradient><polygon id="path-4" points="0.494 21.489 10.744 11.134 0.494 0.778"></polygon><linearGradient x1="0.00137170732%" y1="50.0013959%" x2="99.9994088%" y2="50.0013959%" id="linearGradient-6"><stop stop-color="#086B36" offset="0%"></stop><stop stop-color="#57AF31" offset="100%"></stop></linearGradient></defs><g id="Page-1" stroke="none" stroke-width="1" fill="none" fill-rule="evenodd"><g id="EPIC" transform="translate(-21.000000, -17.000000)"><g id="EPIC-LOGO" transform="translate(21.000000, 17.000000)"><text id="EPIC" font-family="Avenir-Black, Avenir" font-size="22.3701" font-weight="700" letter-spacing="0.27" fill="#0F7135"><tspan x="178.5107" y="66.4972035">EPI</tspan><tspan x="214.128576" y="66.4972035">C</tspan></text><g id="Group-1133" transform="translate(0.000000, 7.000000)" fill="#000000"><path d="M179.5977,7.0979 C185.7327,7.1599 190.2237,11.8759 190.1507,18.1809 C190.0717,24.5859 185.6197,29.0939 179.4227,29.0489 C173.2367,29.0039 168.8027,24.3609 168.8697,18.0059 C168.9387,11.6389 173.4627,7.0359 179.5977,7.0979 M209.8757,7.0979 C216.0397,7.1479 220.4457,11.7749 220.42279,18.1629 C220.3947,24.5529 215.9377,29.0889 209.7237,29.0489 C203.5097,29.0159 199.1767,24.4729 199.204565,18.0169 C199.2337,11.6219 203.7077,7.0469 209.8757,7.0979 M166.9327,0.9859 L159.3577,0.9859 C157.4827,8.2559 155.6237,15.4809 153.6007,23.3319 C151.0937,15.4579 148.7777,8.1939 146.4837,0.9909 L139.2417,0.9909 C136.8917,8.1149 134.5647,15.1759 132.0727,22.7399 C130.1527,15.1019 128.3787,8.0299 126.6057,0.9859 L116.5167,0.9859 C113.9737,5.1769 111.4937,9.2789 108.8957,13.5659 C106.3597,9.1249 104.0207,5.0349 101.7157,0.9909 L87.5087,0.9909 L87.5087,35.1899 L102.6427,35.1899 L102.6427,28.1059 L95.1977,28.1059 L95.1977,5.7529 C98.3267,10.5029 101.2017,14.9329 104.1567,19.3109 C104.9477,20.4799 105.2517,21.6609 105.2297,23.0559 C105.1617,27.1179 105.2067,31.1789 105.2067,35.2179 L112.7817,35.2179 C112.7817,32.0269 112.9027,29.0549 112.7817,25.8689 C112.6437,22.2339 113.2847,19.1629 115.5897,16.3049 C117.3577,14.1079 118.7477,11.6059 120.5217,8.9059 C123.2387,17.9999 125.8087,26.5979 128.3787,35.2059 L135.0897,35.2059 C137.5757,27.4619 140.0437,19.7729 142.6427,11.6789 C145.2697,19.8409 147.7487,27.5699 150.2117,35.2239 L157.1827,35.2239 C158.3807,31.0319 159.5727,26.8529 160.7647,22.6769 C160.8597,22.5139 160.9287,22.2929 161.1767,22.4909 C161.2957,22.6709 161.3917,22.8639 161.4817,23.0499 C161.5437,23.3949 161.5667,23.7499 161.6737,24.0839 C164.5097,32.8689 173.4577,37.6979 183.3877,35.8849 C187.9137,35.0599 191.7097,32.9979 194.6757,29.4619 C201.6857,38.2009 215.9717,37.7539 222.7157,31.7659 C229.6647,25.5979 230.5117,13.2379 224.3157,6.0579 C221.2137,2.4589 217.1577,0.6289 212.4927,0.1719 C205.5487,-0.5011 199.3687,1.1149 194.6807,6.6679 C188.1737,-1.2121 174.7517,-2.2971 166.3337,4.4089 C166.2497,3.2219 167.2097,2.2109 166.9327,0.9859" id="Fill-1129"></path><path d="M49.8018,7.09108016 C55.9818,7.0801 60.3938,11.6451 60.4108496,18.0681 C60.4278,24.5071 56.0718,29.0431 49.8528,29.0551041 C43.6618,29.0601 39.1928,24.4901 39.1817574,18.1181 C39.1658,11.7751 43.6618,7.1031 49.8018,7.09108016 L49.8018,7.09108016 Z M25.1778,0.9961 L25.1778,23.9141 C25.0588,23.9371 24.9348,23.9651 24.8168,23.9871 C20.0768,16.2881 15.3368,8.5941 10.7048,1.0641 L0.1308,1.0641 L0.1308,35.1841 L7.8978,35.1841 L7.8978,11.0181 C10.6598,15.4971 13.0948,19.4401 15.5238,23.3781 C17.9588,27.3261 20.3938,31.2761 22.7998,35.1781 L32.9618,35.1781 L32.9618,27.0771 C40.2548,39.8671 60.7498,38.4601 66.3308,27.2811 C67.3818,27.4851 66.7658,28.3041 66.8168,28.7951 C67.0368,30.9361 66.5398,33.1051 67.1108,35.2351 L84.8078,35.2351 L84.8078,28.0831 L74.6398,28.0831 L74.6398,1.0131 L67.0648,1.0131 C66.5968,3.1541 66.9858,5.3231 66.8278,7.4761 C66.7998,7.8941 67.2688,8.7021 66.2178,8.6121 C62.3588,2.4831 56.6258,-0.0149 49.5758,0.0421 C42.5658,0.0981 36.9448,2.7871 32.9008,9.4701 L32.9008,0.9961 L25.1778,0.9961 Z" id="Fill-1131"></path></g><g id="Group-1136" transform="translate(231.000000, 0.000000)"><mask id="mask-2" fill="white"><use xlink:href="#path-1"></use></mask><g id="Clip-1135"></g><path d="M0.678,-0.003 L0.678,49.814 L21.806,49.814 C34.256,49.814 44.571,40.686 46.418,28.761 L46.418,28.761 L37.199,28.761 C35.476,35.657 29.228,40.776 21.806,40.776 L21.806,40.776 L9.716,40.776 L9.716,9.035 L21.806,9.035 C28.861,9.035 34.86,13.667 36.916,20.05 L36.916,20.05 L46.243,20.05 C43.983,8.616 33.906,-0.003 21.806,-0.003 L21.806,-0.003 L0.678,-0.003 Z" id="Fill-1134" fill="url(#linearGradient-3)" mask="url(#mask-2)"></path></g><g id="Group-1139" transform="translate(247.000000, 14.000000)"><mask id="mask-5" fill="white"><use xlink:href="#path-4"></use></mask><g id="Clip-1138"></g><polygon id="Fill-1137" fill="url(#linearGradient-6)" mask="url(#mask-5)" points="0.494 21.489 10.744 11.134 0.494 0.778"></polygon></g><path d="M300.1426,37.761 C298.3716,32.235 296.7696,27.238 295.1906,22.313 L275.2626,22.313 L275.2626,22.318 L275.2646,22.318 L275.2646,26.48 L280.0516,26.48 L280.0516,42.146 L285.1286,42.146 L285.1286,26.613 L291.3536,26.613 C293.0656,31.839 294.7486,36.98 296.4506,42.176 L303.7936,42.176 C305.9926,35.571 308.1806,29.002 310.3926,22.357 L305.1496,22.357 C303.5066,27.411 301.8986,32.362 300.1426,37.761" id="Fill-1140" fill="#000000"></path></g></g></g></svg> 