<svg width="81" height="21" viewBox="0 0 81 21" fill="none" xmlns="http://www.w3.org/2000/svg">
<g clip-path="url(#clip0_344_4461)">
<path d="M6.03219 12.3437C5.53924 11.5676 5.12151 10.7675 4.75239 9.94342H4.67833V20.2012H0V0.800302H5.85977C7.4358 6.37827 10.2916 12.077 14.9445 14.2836V0.776367H19.6228V20.5887C13.0248 20.2491 8.61724 16.4423 6.03219 12.3437Z" fill="#28A0EB"/>
<path d="M21.6406 10.5006C21.6406 4.63197 26.4173 0 32.4483 0C38.4794 0 43.2561 4.6559 43.2561 10.5006C43.2561 16.3452 38.5291 21.0011 32.4483 21.0011C26.3676 21.0011 21.6406 16.3692 21.6406 10.5006ZM38.4065 10.5006C38.4065 6.79066 35.6733 4.3892 32.4483 4.3892C29.2234 4.3892 26.5145 6.78952 26.5145 10.5006C26.5145 14.2116 29.2222 16.6119 32.4483 16.6119C35.6745 16.6119 38.4065 14.2116 38.4065 10.5006Z" fill="#28A0EB"/>
<path d="M42.2725 0.799805H47.5166L53.1056 14.2592L58.6935 0.799805H63.8879L55.5669 20.1996H50.5692L42.2725 0.799805Z" fill="#28A0EB"/>
<path d="M67.7058 0.799805H72.7035L81.0002 20.1996H75.756L74.0573 16.0281C71.448 17.2887 68.937 17.7981 65.6866 17.4585L64.5792 20.1984H59.3848L67.7058 0.799805ZM72.5068 12.2213L70.1682 6.49858L67.435 13.1912C69.2321 13.3371 70.9562 12.9975 72.5068 12.2213Z" fill="#28A0EB"/>
</g>
<defs>
<clipPath id="clip0_344_4461">
<rect width="81" height="21" fill="white"/>
</clipPath>
</defs>
</svg>
