<?xml version="1.0" encoding="UTF-8"?><svg id="Layer_1" xmlns="http://www.w3.org/2000/svg" viewBox="0 0 100 100"><defs><style>.cls-1{fill:#fa0a32;}.cls-2{fill:#fff;}</style></defs><g><path class="cls-1" d="M62.33,50.17h31.98c1.18,0,2.13,.95,2.13,2.13v15.2h-20.83c-1.13,0-2.18-.57-2.81-1.51l-10.48-15.82Z"/><path class="cls-1" d="M3.68,50.17H57.98c1.13,0,2.18,.57,2.81,1.51l10.48,15.82H5.81c-1.18,0-2.13-.95-2.13-2.13v-15.2Z"/></g><g><path class="cls-2" d="M71.5,61.24v-4.45h2.99v.81h-2.09v.97h2.05v.81h-2.05v1.04h2.09v.82h-2.99Z"/><path class="cls-2" d="M77.83,61.24l-1.06-1.63-1.07,1.63h-1.07l1.54-2.28-1.44-2.17h1.07l.97,1.52,.96-1.52h1.08l-1.44,2.16,1.54,2.29h-1.08Z"/><path class="cls-2" d="M80.15,61.24v-3.62h-1.24v-.83h3.37v.83h-1.23v3.62h-.91Z"/><path class="cls-2" d="M85.13,61.24l-.83-1.6h-.66v1.6h-.9v-4.45h1.98c.88,0,1.42,.61,1.42,1.44s-.47,1.21-.93,1.32l.95,1.7h-1.03Zm-.55-3.64h-.95v1.23h.95c.36,0,.63-.24,.63-.61s-.27-.61-.63-.61Z"/><path class="cls-2" d="M89.65,61.24l-.27-.77h-1.89l-.27,.77h-.99l1.64-4.45h1.13l1.63,4.45h-.98Zm-1.21-3.63l-.7,2.04h1.4l-.7-2.04Z"/><path class="cls-2" d="M93.38,61.24v-.92h-2.02v-.75l1.68-2.78h1.24v2.7h.55v.83h-.55v.92h-.9Zm0-3.61l-1.14,1.86h1.14v-1.86Z"/></g><g><path class="cls-2" d="M8.48,61.02c.63,.67,1.61,1.25,2.88,1.25s1.83-.64,1.83-1.24c0-.82-.97-1.06-2.07-1.35-1.49-.37-3.23-.8-3.23-2.73,0-1.5,1.32-2.66,3.31-2.66,1.42,0,2.56,.45,3.41,1.27l-.91,1.19c-.71-.71-1.68-1.04-2.63-1.04s-1.54,.45-1.54,1.13,.93,.94,2,1.21c1.5,.38,3.29,.85,3.29,2.82,0,1.51-1.06,2.81-3.52,2.81-1.68,0-2.89-.59-3.69-1.44l.89-1.23Z"/><path class="cls-2" d="M16.82,54.44h3.99c1.91,0,2.97,1.31,2.97,2.85s-1.08,2.85-2.97,2.85h-2.4v3.39h-1.6v-9.09Zm3.78,1.4h-2.18v2.89h2.18c.9,0,1.55-.57,1.55-1.44s-.65-1.45-1.55-1.45Z"/><path class="cls-2" d="M29.35,54.29c2.73,0,4.65,1.99,4.65,4.7s-1.92,4.7-4.65,4.7-4.65-1.99-4.65-4.7,1.92-4.7,4.65-4.7Zm0,1.42c-1.84,0-3.01,1.4-3.01,3.29s1.17,3.29,3.01,3.29,3.01-1.42,3.01-3.29-1.19-3.29-3.01-3.29Z"/><path class="cls-2" d="M38.71,60.14h-1.58v3.39h-1.6v-9.09h3.99c1.8,0,2.97,1.17,2.97,2.85s-1.06,2.49-2.15,2.67l2.22,3.57h-1.84l-2.02-3.39Zm.6-4.29h-2.18v2.89h2.18c.9,0,1.55-.57,1.55-1.44s-.65-1.45-1.55-1.45Z"/><path class="cls-2" d="M46.53,55.84h-2.75v-1.4h7.1v1.4h-2.75v7.69h-1.59v-7.69Z"/><path class="cls-2" d="M52.64,61.02c.63,.67,1.61,1.25,2.88,1.25s1.83-.64,1.83-1.24c0-.82-.97-1.06-2.07-1.35-1.49-.37-3.23-.8-3.23-2.73,0-1.5,1.32-2.66,3.31-2.66,1.42,0,2.56,.45,3.41,1.27l-.91,1.19c-.71-.71-1.68-1.04-2.63-1.04s-1.54,.45-1.54,1.13,.93,.94,2,1.21c1.5,.38,3.29,.85,3.29,2.82,0,1.51-1.06,2.81-3.52,2.81-1.68,0-2.89-.59-3.69-1.44l.89-1.23Z"/></g><g><path d="M41.08,32.5c-5.96,0-10.81,3.44-10.81,7.68s4.85,7.68,10.81,7.68,10.81-3.44,10.81-7.68-4.85-7.68-10.81-7.68m5.67,7.68c0,2.14-2.54,3.89-5.67,3.89s-5.67-1.74-5.67-3.89,2.54-3.89,5.67-3.89,5.67,1.74,5.67,3.89"/><path d="M27.51,33.02l-.22,12.44c0,1.17-1,1.88-3.02,1.88-.3,0-.59-.04-.88-.09-.31-.03-.64-.1-.97-.21-.03,0-.07-.01-.1-.02h0c-.69-.26-1.41-.65-2.06-1.17l-8.71-6.98c-.88-.71-1.91-.71-1.89-.01l.2,7.09c.02,.82-.55,1.33-1.52,1.33H3.55l.22-12.44c0-1.17,1.01-1.75,3.03-1.75s3.83,.58,5.33,1.75l8.91,7.06c.23-.07,.38-.24,.37-.51l-.19-6.84c-.03-.94,.63-1.51,1.73-1.51h4.56Z"/><path d="M75.88,33.18l-8.24,12.44c-.75,1.17-2.14,1.75-4.16,1.75s-3.45-.58-4.2-1.75l-8.24-12.44h4.73c1.02,0,1.97,.54,2.5,1.41l4.17,6.93c.44,.73,1.51,.74,1.96,.01l4.22-6.84c.58-.94,1.61-1.51,2.71-1.51h4.56Zm12.2,1.55c-.75-1.17-2.15-1.75-4.2-1.75s-3.41,.58-4.16,1.75l-8.24,12.44h4.78c.97,0,1.87-.5,2.38-1.33l4.38-7.09c.43-.7,1.46-.7,1.88,.01l1.43,2.38h-2.11c-.48,0-.93,.25-1.19,.66l-1.83,2.89h7.27s.63,1.05,.63,1.05c.53,.88,1.48,1.42,2.51,1.42h4.72l-8.24-12.44Z"/></g></svg>