<svg xmlns="http://www.w3.org/2000/svg" viewBox="0 0 2494.6 2494.6"><defs><style>.a{fill:#510084;}</style></defs><path class="a" d="M1476.56,145C787.66,145,229.2,703.46,229.2,1392.36S787.66,2639.6,1476.56,2639.6c291.72,0,560.1-100.18,772.64-268.15C2126,2354.68,2030,2253,2022,2127.12c-156.83,117.18-346.27,180.4-545.44,180.4-244.22,0-473.89-95.13-646.67-267.91s-268-402.69-268-647.25S657,917.88,829.89,745s402.45-267.91,646.67-267.91S1950.33,572.2,2123.11,745s268,402.81,268,647.38c0,162-41.76,317.52-120.12,454.29,4.69-.35,9.5-.46,14.31-.46,122.7,0,225.69,83.75,255.36,196.94,116.13-189.44,183.11-412.3,183.11-650.77C2723.8,703.46,2165.34,145,1476.56,145" transform="translate(-229.2 -145)"/><path class="a" d="M2130.82,1092.7a197.47,197.47,0,0,0-194.23-146.07c-.19,0-.42,0-.61,0-177.57-.71-958,.36-958.4.39,11.67,5.35,77.81,19.58,39.46,138.8-22.75,83.22-194,719.69-201.58,747.85,0,0,267-.42,392.52,0,11.83,0,15.48-4.91,18.26-15.27,44.63-166.09,159.64-591.47,173.2-637.83,10.15-34.78,32.46-57.58,70.45-58.06,70.8-.91,141.65-1.66,212.42.19,46.19,1.21,62.81,25.73,50.84,70.38-35,130.57-127.89,470.67-145.69,543.88-15,61.8,13,97.25,76,100.73,4.6.26,377.6.79,378,.77-11.66-5.35-77.81-19.58-39.46-138.81,0,0,95.34-352.07,110.69-409.31,12.88-48.07,24.72-96.36,24.85-146.27,0-1,0-26.5-6.72-51.32" transform="translate(-229.2 -145)"/><path class="a" d="M2452.36,2000c-12.63-14.87-35.92-22.41-69.24-22.41h-21.9c-16.74,0-31,2.26-42.4,6.68-8.19,2.82-14.78,6.47-19.61,10.87-3.39-5-9.67-9.15-18.76-12.28-10.48-3.49-23.16-5.27-37.69-5.27h-21.93c-33.15,0-58.68,7.43-75.87,22.06-15.69,12.81-26.06,33.61-30.8,61.8l-26.69,148.69H2155l23.23-131.41a259,259,0,0,1,5.75-25.82c1.58-5.13,3.78-9.15,6.56-11.93,5-5,13.34-7.6,24.67-7.6h15.85c11.14,0,18.39,2.28,21.53,6.72,1.56,2.33,2.34,5.75,2.34,10.16,0,4.14-1.24,13.4-3.69,27.5l-23.41,132.38h67.53l23.26-131.48c1.84-11.68,3.62-20.43,5.27-26,1.58-5.3,3.79-9.38,6.52-12.11,5-4.76,13.35-7.18,24.7-7.18h16.33c10.53,0,17.63,2.45,21.07,7.18,1.55,2.33,2.34,5.76,2.34,10.16,0,6.59-1.23,15.66-3.69,27l-23.42,132.38h67.52l26.54-147.81a165.88,165.88,0,0,0,2.36-24.2C2464.19,2022.29,2460.22,2009.46,2452.36,2000Z" transform="translate(-229.2 -145)"/></svg>