<svg width="80" height="35" viewBox="0 0 80 35" fill="none" xmlns="http://www.w3.org/2000/svg">
<g clip-path="url(#clip0_380_4460)">
<path d="M3.34206 6.78565C3.06825 6.35812 2.83739 5.92009 2.63338 5.46633H2.59311V11.1056H0V0.440849H3.2481C4.12053 3.50702 5.70432 6.63877 8.28132 7.85317V0.427734H10.8744V11.318C7.21831 11.1318 4.77552 9.03872 3.34206 6.78565Z" fill="#007682"/>
<path d="M11.9941 5.77301C11.9941 2.54684 14.6409 0 17.983 0C21.3251 0 23.9719 2.55995 23.9719 5.77301C23.9719 8.98606 21.3519 11.546 17.983 11.546C14.6141 11.546 11.9941 8.99918 11.9941 5.77301ZM21.2848 5.77301C21.2848 3.73239 19.7708 2.41307 17.983 2.41307C16.1952 2.41307 14.6946 3.73239 14.6946 5.77301C14.6946 7.81362 16.1952 9.13294 17.983 9.13294C19.7708 9.13294 21.2848 7.81362 21.2848 5.77301Z" fill="#007682"/>
<path d="M23.4268 0.44043H26.3313L29.429 7.83963L32.5268 0.44043H35.4045L30.7927 11.1051H28.0224L23.4268 0.44043Z" fill="#007682"/>
<path d="M37.52 0.44043H40.2903L44.8886 11.1051H41.9814L41.0392 8.81273C39.5923 9.50518 38.2018 9.78583 36.4006 9.5996L35.7859 11.1051H32.9082L37.52 0.44043ZM40.1802 6.71966L38.8836 3.5748L37.3697 7.25473C38.3656 7.33341 39.3212 7.14719 40.1802 6.72228" fill="#007682"/>
<path d="M0 34.9998H80V14.4756H0V34.9972V34.9998ZM20.2403 33.4995H15.8137L7.95651 23.8787V33.4995H2.92598V15.9654H7.6666L15.2097 25.2347V15.9654H20.2403V33.5021V33.4995ZM36.717 33.4995H21.8375V15.9654H36.5855V20.0729H26.868V22.0033H35.6701V25.8354H26.868V29.3684H36.717V33.5021V33.4995ZM53.6555 33.6254L50.2221 23.5298L46.762 33.6254H42.6173L36.8781 15.9628H41.9059L44.899 26.1082L48.2115 15.9129H52.3079L55.6204 26.1082L58.6135 15.9628H63.5447L57.8055 33.6254H53.6608H53.6555ZM77.9035 28.0884C77.9035 31.6713 74.9426 33.8011 70.4919 33.8011C67.2438 33.8011 64.1782 32.8254 61.8992 30.895L64.7285 27.6635C66.562 29.0406 68.5538 29.7671 70.6745 29.7671C72.0623 29.7671 72.7951 29.316 72.7951 28.5658V28.516C72.7951 27.7632 72.1938 27.3881 69.6786 26.8137C65.7755 25.9613 62.7636 24.9095 62.7636 21.3266V21.2768C62.7636 18.0191 65.4614 15.6664 69.8611 15.6664C72.9777 15.6664 75.4151 16.469 77.4042 17.9955L74.8648 21.4263C73.187 20.2748 71.3536 19.6978 69.7296 19.6978C68.4974 19.6978 67.8961 20.1725 67.8961 20.8256V20.8755C67.8961 21.6781 68.5243 22.0269 71.0905 22.5777C75.2809 23.4538 77.9008 24.7574 77.9008 28.0386V28.0884H77.9035Z" fill="#007682"/>
</g>
<defs>
<clipPath id="clip0_380_4460">
<rect width="80" height="35" fill="white"/>
</clipPath>
</defs>
</svg>
