<svg width="74" height="32" viewBox="0 0 74 32" fill="none" xmlns="http://www.w3.org/2000/svg">
<g clip-path="url(#clip0_13338_8577)">
<path d="M74 -3H0V35H74V-3Z" fill="#2200D0"/>
<path d="M9.35147 25.2303C9.21149 24.9266 9.10666 24.592 9.03636 24.2257C8.96606 23.86 8.91734 23.3452 8.88959 22.6826C8.86122 22.0199 8.84766 21.0811 8.84766 19.8653C8.84766 18.6496 8.86122 17.7113 8.88959 17.0487C8.91734 16.3861 8.96606 15.8719 9.03636 15.5056C9.10604 15.1399 9.21149 14.8052 9.35147 14.501C10.023 13.051 11.2755 12.3263 13.1088 12.3263C14.2564 12.3263 15.1938 12.6439 15.9214 13.2792C16.3691 13.6802 16.6806 14.1803 16.8557 14.7809C17.0308 15.3815 17.1252 16.2139 17.1394 17.2769H14.6203C14.6203 16.7384 14.6024 16.3136 14.5679 16.0033C14.5327 15.6924 14.484 15.4581 14.4211 15.2993C14.3582 15.1405 14.2638 15.006 14.1374 14.8953C13.9974 14.7712 13.8402 14.6781 13.6651 14.6154C13.4899 14.5533 13.2833 14.5223 13.0459 14.5223C12.3602 14.5223 11.8841 14.8125 11.6183 15.3924C11.548 15.5579 11.4956 15.7618 11.4611 16.0033C11.4259 16.2449 11.4013 16.6939 11.3877 17.3499C11.3735 18.0058 11.3667 18.8449 11.3667 19.8665C11.3667 20.8882 11.3735 21.7273 11.3877 22.3832C11.4013 23.0391 11.4259 23.4882 11.4611 23.7298C11.4956 23.9713 11.548 24.1752 11.6183 24.3407C11.8706 24.9206 12.3528 25.2108 13.0669 25.2108C13.5146 25.2108 13.8784 25.0867 14.1584 24.8378C14.2842 24.7277 14.3785 24.5962 14.4421 24.4441C14.505 24.2926 14.5537 24.0577 14.5888 23.7401C14.6234 23.4225 14.6412 22.9874 14.6412 22.4349H17.1603C17.1461 23.4985 17.0481 24.337 16.8662 24.9516C16.6843 25.5661 16.3759 26.0669 15.9424 26.4533C15.6205 26.7709 15.2215 27.0095 14.7461 27.1677C14.27 27.3265 13.731 27.4062 13.1298 27.4062C11.2687 27.4062 10.0088 26.6815 9.35147 25.2315V25.2303Z" fill="white"/>
<path d="M19.3652 12.5538H21.8005V27.1774H19.3652V12.5538Z" fill="white"/>
<path d="M24.5273 12.5538H26.9416L30.4683 21.709V12.5538H32.8197V27.1774H30.4473L26.8787 17.774V27.1774H24.5273V12.5538Z" fill="white"/>
<path d="M35.5488 12.5538H41.2585V14.7285H37.984V18.3739H41.1956V20.5279H37.984V25.0021H41.2585V27.1768H35.5488V12.5532V12.5538Z" fill="white"/>
<path d="M43.4629 12.5538H46.5487L48.7736 22.0613L51.0405 12.5538H54.0844V27.1774H51.7546V17.3389L49.5087 27.1774H48.0392L45.7723 17.3389V27.1774H43.4635V12.5538H43.4629Z" fill="white"/>
<path d="M61.8088 24.5469H58.5343L58.1144 27.1774H55.6582L58.2821 12.5538H62.0604L64.6634 27.1774H62.2282L61.8082 24.5469H61.8088ZM61.4728 22.4757L60.1926 14.501H60.1506L58.8698 22.4757H61.4728Z" fill="white"/>
<path d="M9.55859 4.82378H10.9029V5.51745C11.2754 5.02762 11.8643 4.72156 12.5778 4.72156C13.8598 4.72156 14.7386 5.63975 14.7386 6.89443V10.0768H13.3949V7.12869C13.3949 6.42469 12.8781 5.92512 12.1541 5.92512C11.4302 5.92512 10.9035 6.42469 10.9035 7.12869V10.0768H9.55921V4.82317L9.55859 4.82378Z" fill="white"/>
<path d="M18.46 4.72217C20.0726 4.72217 21.3029 5.90566 21.3029 7.44571C21.3029 8.98577 20.0726 10.1796 18.46 10.1796C16.8474 10.1796 15.6172 8.99672 15.6172 7.44571C15.6172 5.8947 16.8474 4.72217 18.46 4.72217ZM18.46 8.96569C19.287 8.96569 19.9178 8.31279 19.9178 7.44571C19.9178 6.57863 19.287 5.93608 18.46 5.93608C17.6331 5.93608 17.0127 6.58898 17.0127 7.44571C17.0127 8.30245 17.6325 8.96569 18.46 8.96569Z" fill="white"/>
<path d="M21.3652 4.82373H22.8126L24.2808 8.68999L25.759 4.82373H27.1132L24.9943 10.0773H23.4847L21.3652 4.82373Z" fill="white"/>
<path d="M31.4764 9.42448C31.0528 9.89361 30.4632 10.179 29.7504 10.179C28.2926 10.179 27.1758 8.99611 27.1758 7.4451C27.1758 5.89409 28.2926 4.72156 29.7504 4.72156C30.4632 4.72156 31.0528 5.00754 31.4764 5.48641V4.82317H32.8207V10.0768H31.4764V9.42387V9.42448ZM30.0192 8.96508C30.8462 8.96508 31.4764 8.31218 31.4764 7.4451C31.4764 6.57802 30.8462 5.93547 30.0192 5.93547C29.1923 5.93547 28.5719 6.58837 28.5719 7.4451C28.5719 8.30184 29.1923 8.96508 30.0192 8.96508Z" fill="white"/>
</g>
<defs>
<clipPath id="clip0_13338_8577">
<rect width="74" height="32" fill="white"/>
</clipPath>
</defs>
</svg>
