<?xml version="1.0" encoding="UTF-8" standalone="no"?>
<!-- Created with Inkscape (http://www.inkscape.org/) -->

<svg
   version="1.1"
   id="svg2"
   xml:space="preserve"
   width="306.67465"
   height="306.67465"
   viewBox="0 0 306.67467 306.67465"
   sodipodi:docname="Nova BH 2021.svg"
   inkscape:version="1.1.1 (3bf5ae0d25, 2021-09-20)"
   xmlns:inkscape="http://www.inkscape.org/namespaces/inkscape"
   xmlns:sodipodi="http://sodipodi.sourceforge.net/DTD/sodipodi-0.dtd"
   xmlns="http://www.w3.org/2000/svg"
   xmlns:svg="http://www.w3.org/2000/svg"><defs
     id="defs6"><clipPath
       clipPathUnits="userSpaceOnUse"
       id="clipPath18"><path
         d="M 0,593.683 H 842.505 V 0 H 0 Z"
         id="path16" /></clipPath></defs><sodipodi:namedview
     id="namedview4"
     pagecolor="#ffffff"
     bordercolor="#666666"
     borderopacity="1.0"
     inkscape:pageshadow="2"
     inkscape:pageopacity="0.0"
     inkscape:pagecheckerboard="0"
     showgrid="false"
     fit-margin-top="0"
     fit-margin-left="0"
     fit-margin-right="0"
     fit-margin-bottom="0"
     inkscape:zoom="0.67207584"
     inkscape:cx="143.58499"
     inkscape:cy="243.27612"
     inkscape:window-width="1318"
     inkscape:window-height="704"
     inkscape:window-x="48"
     inkscape:window-y="27"
     inkscape:window-maximized="1"
     inkscape:current-layer="g8" /><g
     id="g8"
     inkscape:groupmode="layer"
     inkscape:label="Nova BH 2021"
     transform="matrix(1.3333333,0,0,-1.3333333,-409.05799,549.25785)"><g
       id="g12"><g
         id="g14"
         clip-path="url(#clipPath18)"><g
           id="g20"
           transform="translate(421.8015,411.9434)"><path
             d="m 0,0 c -63.517,0 -115.008,-51.491 -115.008,-115.008 0,-63.507 51.491,-114.998 115.008,-114.998 26.897,0 51.643,9.237 71.24,24.724 -11.356,1.546 -20.214,10.923 -20.949,22.528 -14.46,-10.805 -31.927,-16.634 -50.291,-16.634 -22.517,0 -43.692,8.771 -59.623,24.702 -15.942,15.942 -24.713,37.128 -24.713,59.678 0,22.55 8.771,43.747 24.713,59.689 15.931,15.93 37.106,24.701 59.623,24.701 22.518,0 43.683,-8.771 59.613,-24.701 15.942,-15.942 24.713,-37.139 24.713,-59.689 0,-14.936 -3.85,-29.277 -11.075,-41.887 0.433,0.032 0.877,0.043 1.319,0.043 11.314,0 20.809,-7.722 23.545,-18.159 10.707,17.467 16.883,38.016 16.883,60.003 C 114.998,-51.491 63.507,0 0,0"
             style="fill:#cc6500;fill-opacity:1;fill-rule:nonzero;stroke:none"
             id="path22" /></g><g
           id="g24"
           transform="translate(482.1257,324.5638)"><path
             d="m 0,0 c -2.231,8.236 -9.742,13.632 -17.907,13.468 -0.018,10e-4 -0.04,0.005 -0.057,0.005 -16.372,0.066 -88.329,-0.034 -88.366,-0.036 1.075,-0.494 7.174,-1.805 3.639,-12.798 -2.099,-7.673 -17.89,-66.357 -18.586,-68.952 0,0 24.616,0.038 36.19,0 1.091,-0.004 1.427,0.452 1.684,1.408 4.115,15.313 14.719,54.533 15.968,58.808 0.937,3.206 2.994,5.309 6.497,5.354 6.528,0.083 13.06,0.153 19.585,-0.018 4.258,-0.112 5.79,-2.373 4.688,-6.489 -3.228,-12.039 -11.793,-43.397 -13.434,-50.147 -1.382,-5.698 1.196,-8.966 7.008,-9.288 0.424,-0.023 34.816,-0.072 34.853,-0.07 -1.076,0.493 -7.175,1.805 -3.639,12.798 0,0 8.79,32.462 10.205,37.739 1.189,4.432 2.28,8.884 2.292,13.486 0,0.097 0,2.444 -0.62,4.732"
             style="fill:#cc6500;fill-opacity:1;fill-rule:nonzero;stroke:none"
             id="path26" /></g><g
           id="g28"
           transform="translate(483.8044,227.2775)"><path
             d="M 0,0 0.557,3.182 C 0.699,3.995 0.828,4.629 0.941,5.069 1.042,5.467 1.184,5.792 1.363,6.04 1.577,6.339 1.858,6.532 2.225,6.628 2.62,6.733 3.184,6.786 3.898,6.786 H 4.676 C 5.697,6.786 6.33,6.525 6.562,6 6.69,5.742 6.756,5.382 6.756,4.928 6.756,4.344 6.646,3.387 6.428,2.087 6.187,0.802 5.959,-0.164 5.753,-0.784 5.552,-1.384 5.311,-1.862 5.046,-2.193 4.604,-2.679 3.869,-2.926 2.863,-2.926 h -0.74 c -0.641,0 -1.135,0.047 -1.47,0.14 -0.296,0.08 -0.495,0.213 -0.614,0.411 -0.145,0.229 -0.219,0.507 -0.219,0.827 0,0.31 0.061,0.831 0.18,1.548 M 8.951,10.827 C 8.007,11.129 6.78,11.282 5.305,11.282 H 4.676 c -1.153,0 -2.113,-0.115 -2.827,-0.334 l 1.644,9.363 H -1.86 L -5.302,0.824 c -0.302,-1.857 -0.448,-3.129 -0.448,-3.888 0,-0.77 0.112,-1.42 0.336,-1.933 0.227,-0.518 0.594,-0.98 1.095,-1.375 0.548,-0.417 1.269,-0.707 2.142,-0.861 h 10e-4 c 0.851,-0.15 2.061,-0.226 3.596,-0.226 h 0.703 c 2.506,0 4.521,0.513 5.987,1.524 0.969,0.663 1.763,1.643 2.361,2.912 0.587,1.248 1.072,2.962 1.443,5.095 0.249,1.41 0.375,2.557 0.375,3.41 0,1.654 -0.367,2.952 -1.089,3.852 -0.521,0.68 -1.278,1.182 -2.249,1.493"
             style="fill:#cc6500;fill-opacity:1;fill-rule:nonzero;stroke:none"
             id="path30" /></g><g
           id="g32"
           transform="translate(514.8679,236.7673)"><path
             d="m 0,0 c -0.983,1.189 -2.853,1.792 -5.558,1.792 h -0.998 c -1.122,0 -2.094,-0.118 -2.866,-0.341 l 1.647,9.37 h -5.428 l -4.861,-27.547 h 5.427 l 1.851,10.454 c 0.168,0.918 0.315,1.601 0.437,2.03 0.111,0.387 0.277,0.693 0.506,0.924 0.343,0.408 1.001,0.614 1.955,0.614 h 1.407 c 0.823,0 1.377,-0.189 1.641,-0.554 0.12,-0.18 0.181,-0.444 0.181,-0.786 0,-0.225 -0.087,-0.948 -0.256,-2.14 l -1.864,-10.542 h 5.389 l 2.111,11.755 c 0.127,0.814 0.188,1.444 0.188,1.926 C 0.909,-1.784 0.604,-0.761 0,0"
             style="fill:#cc6500;fill-opacity:1;fill-rule:nonzero;stroke:none"
             id="path34" /></g></g></g></g></svg>
