<?xml version="1.0" encoding="utf-8"?>
<!-- Generator: Adobe Illustrator 26.4.1, SVG Export Plug-In . SVG Version: 6.00 Build 0)  -->
<svg version="1.1" id="Layer_1" xmlns="http://www.w3.org/2000/svg" xmlns:xlink="http://www.w3.org/1999/xlink" x="0px" y="0px"
	 viewBox="0 0 512 512" style="enable-background:new 0 0 512 512;" xml:space="preserve">
<style type="text/css">
	.st0{fill:#00734C;}
	.st1{clip-path:url(#SVGID_00000145050549011990929040000010253441290074848673_);}
	.st2{fill:#004A31;}
	.st3{fill:#FFFFFF;}
	.st4{opacity:0.3;}
	.st5{fill:url(#SVGID_00000044174416928488705840000002638190957391532428_);}
	.st6{fill:#DCB385;}
	.st7{opacity:0.25;enable-background:new    ;}
	.st8{fill:#BB8F5F;}
	.st9{fill:#F4DD9D;}
</style>
<circle class="st0" cx="256" cy="256" r="236.3"/>
<g>
	<g>
		<defs>
			<circle id="SVGID_1_" cx="256" cy="256" r="236.3"/>
		</defs>
		<clipPath id="SVGID_00000099650388599153123960000008202876663073895052_">
			<use xlink:href="#SVGID_1_"  style="overflow:visible;"/>
		</clipPath>
		<g style="clip-path:url(#SVGID_00000099650388599153123960000008202876663073895052_);">
			<polygon class="st2" points="256,-31.7 305.3,71.9 399.9,6.8 390.8,121.2 505.2,112.1 440.1,206.7 543.7,256 440.1,305.3 
				505.2,399.9 390.8,390.8 399.9,505.2 305.3,440.1 256,543.7 206.7,440.1 112.1,505.2 121.2,390.8 6.8,399.9 71.9,305.3 
				-31.7,256 71.9,206.7 6.8,112.1 121.2,121.2 112.1,6.8 206.7,71.9 			"/>
			<polygon class="st0" points="390.8,121.2 365.4,192.8 440.1,206.7 382.3,256 440.1,305.3 365.4,319.2 390.8,390.8 319.2,365.4 
				305.3,440.1 256,382.3 206.7,440.1 192.8,365.4 121.2,390.8 146.6,319.2 71.9,305.3 129.7,256 71.9,206.7 146.6,192.8 
				121.2,121.2 192.8,146.6 206.7,71.9 256,129.7 305.3,71.9 319.2,146.6 			"/>
			<polygon class="st2" points="343.5,343.5 297,327 288,375.6 256,338 224,375.6 215,327 168.5,343.5 185,297 136.4,288 174,256 
				136.4,224 185,215 168.5,168.5 215,185 224,136.4 256,174 288,136.4 297,185 343.5,168.5 327,215 375.6,224 338,256 375.6,288 
				327,297 			"/>
			<polygon class="st0" points="256,338 241.9,308.5 215,327 217.6,294.4 185,297 203.5,270.1 174,256 203.5,241.9 185,215 
				217.6,217.6 215,185 241.9,203.5 256,174 270.1,203.5 297,185 294.4,217.6 327,215 308.5,241.9 338,256 308.5,270.1 327,297 
				294.4,294.4 297,327 270.1,308.5 			"/>
			<circle class="st0" cx="256" cy="256" r="54.4"/>
		</g>
	</g>
</g>
<g>
	<polygon class="st3" points="354.7,376.9 294.8,376.9 294.8,285.7 217.2,285.7 217.2,376.9 157.3,376.9 157.3,135.1 217.2,135.1 
		217.2,225.6 294.8,225.6 294.8,135.1 354.7,135.1 	"/>
	<g class="st4">
		
			<linearGradient id="SVGID_00000066509578120708205540000004965505791072166786_" gradientUnits="userSpaceOnUse" x1="146.225" y1="146.175" x2="365.775" y2="365.725">
			<stop  offset="0" style="stop-color:#FFFFFF"/>
			<stop  offset="0.4" style="stop-color:#FFFFFF;stop-opacity:0"/>
		</linearGradient>
		<path style="fill:url(#SVGID_00000066509578120708205540000004965505791072166786_);" d="M353.6,136.3v239.5h-57.7v-90.1v-1.1
			h-1.1h-77.6h-1.1v1.1v90.1h-57.7V136.3h57.7v89.3v1.1h1.1h77.6h1.1v-1.1v-89.3H353.6 M354.7,135.1h-59.9v90.4h-77.6v-90.4h-59.9
			v241.7h59.9v-91.2h77.6v91.2h59.9V135.1L354.7,135.1z"/>
	</g>
</g>
<g>
	<path class="st6" d="M506,256c0,138.1-111.9,250-250,250S6,394.1,6,256S117.9,6,256,6S506,117.9,506,256z M256,19.7
		C125.5,19.7,19.7,125.5,19.7,256S125.5,492.3,256,492.3S492.3,386.5,492.3,256S386.5,19.7,256,19.7z"/>
	<path class="st7" d="M492.3,256c0,130.5-105.8,236.3-236.3,236.3S19.7,386.5,19.7,256S125.5,19.7,256,19.7S492.3,125.5,492.3,256z
		 M256,42.3C138,42.3,42.3,138,42.3,256S138,469.6,256,469.6S469.6,374,469.6,256S374,42.3,256,42.3z"/>
	<g>
		<g>
			<path class="st8" d="M78.9,78.9c69.3-71,181.7-93.3,273-54.5c164.6,68,207.5,283,81.4,408.9c-125.9,126-340.8,83.2-408.9-81.4
				C-14.4,260.6,8,148.3,78.9,78.9L78.9,78.9z M79.5,79.5C-45.3,204.4-1.4,416.8,162.2,482.3c89.5,36.4,197.8,14.5,265.4-54.7
				c69.1-67.7,91-175.9,54.6-265.4C416.8-1.4,204.4-45.3,79.5,79.5L79.5,79.5z"/>
		</g>
	</g>
	<g>
		<g>
			<path class="st9" d="M423.4,423.4c-54.6,55.6-137.3,80.9-213.8,66.2C20,453.2-51.8,221.3,84.1,84.1
				C220.9-51.8,453.6,20.3,489.5,209.5C504.2,286.1,479,368.7,423.4,423.4L423.4,423.4z M422.8,422.8c66.8-65.4,87.7-171.2,51-257.1
				C409.8,11.1,207.7-29.2,89.4,89.4c-118.6,118.3-78.4,320.3,76.3,384.4C251.7,510.5,357.5,489.6,422.8,422.8L422.8,422.8z"/>
		</g>
	</g>
</g>
</svg>
