<svg width="91" height="51" viewBox="0 0 91 51" fill="none" xmlns="http://www.w3.org/2000/svg">
<g clip-path="url(#clip0_2343_4032)">
<path fill-rule="evenodd" clip-rule="evenodd" d="M8.49477 15.5243C10.1835 13.9176 12.6733 13 14.9122 13C21.3602 13 23.0862 16.8251 23.5233 20.0297C25.5491 15.8688 29.8362 13 34.7987 13C38.2899 13 41.4473 14.4211 43.7173 16.7129L42.7541 13.6427H51.4625L54.6662 25.2327L57.772 13.6427H65.4712L68.57 25.1981L71.7811 13.6427H80.5307L73.1184 37.2586H64.6609L61.6611 25.6251L58.6233 37.2586H50.1671L47.1331 27.5943C46.1126 33.4491 40.9782 37.9008 34.7988 37.9008C29.9473 37.9008 25.7415 35.1596 23.6621 31.1479V37.2586H14.9526V25.8154C14.9526 23.4028 15.4791 20.3756 11.982 20.3756C9.79373 20.3756 8.7098 22.163 8.7098 24.4439V37.2587H0V13.6427H8.49463V15.5243H8.49477ZM34.7988 30.2386C37.457 30.2386 39.6124 28.0951 39.6124 25.4505C39.6124 22.8064 37.4571 20.6627 34.7988 20.6627C32.1398 20.6627 29.9832 22.8064 29.9832 25.4505C29.9832 28.095 32.1398 30.2386 34.7988 30.2386ZM33.0298 40.3617H36.5656V51H33.0298V40.3617ZM33.0298 0H36.5656V10.6383H33.0298V0Z" fill="url(#paint0_linear_2343_4032)"/>
<path fill-rule="evenodd" clip-rule="evenodd" d="M74.0883 42.6329C74.0883 46.8142 77.5137 50.2031 81.7376 50.2031C85.9635 50.2031 89.3891 46.8142 89.3891 42.6329C89.3891 38.4517 85.9636 35.0625 81.7376 35.0625C77.5139 35.0622 74.0883 38.4516 74.0883 42.6329Z" fill="white"/>
<path fill-rule="evenodd" clip-rule="evenodd" d="M77.9993 46.8286V41.6603H75.9624V39.8784H81.6107H82.4411H83.7956L84.9454 44.0936L86.0971 39.8784H88.3198L86.1267 46.8286H83.7065L82.1479 41.6603H80.163V46.8286H77.9993ZM74.0883 43.0314C74.0883 47.4325 77.6938 51 82.1403 51C86.5891 51 90.1944 47.4327 90.1944 43.0314C90.1944 38.6298 86.5891 35.0625 82.1403 35.0625C77.6938 35.0625 74.0883 38.6298 74.0883 43.0314Z" fill="#231F20"/>
</g>
<defs>
<linearGradient id="paint0_linear_2343_4032" x1="40.2654" y1="1.36195e-05" x2="40.2654" y2="51.0001" gradientUnits="userSpaceOnUse">
<stop stop-color="#FFC415"/>
<stop offset="0.5141" stop-color="#F79528"/>
<stop offset="1" stop-color="#F26723"/>
</linearGradient>
<clipPath id="clip0_2343_4032">
<rect width="90.1944" height="51" fill="white"/>
</clipPath>
</defs>
</svg>
