<svg xmlns="http://www.w3.org/2000/svg" viewBox="0 0 73 73" width="90" height="90">
  <g>
    <path d="M23.478,39.329l-.26-.258-.56-.554-.778-.772-.918-.911c-.321-.317-.651-.645-.978-.969l-.958-.949c-.306-.3-.6-.593-.857-.851l-.677-.673c-.029-.028-.065-.062-.107-.1a1.214,1.214,0,0,0-.149-.1.9.9,0,0,0-.189-.083.777.777,0,0,0-.227-.034.808.808,0,0,0-.426.107.718.718,0,0,0-.248.258,1.072,1.072,0,0,0-.114.312,1.345,1.345,0,0,0-.027.268v7.847H17.53V35.643c.027.028.118.12.259.261l.556.56.776.78.914.919.973.979.954.959.854.858.376.377.2.2.1.1a1.416,1.416,0,0,0,.17.147,1.028,1.028,0,0,0,.176.1.9.9,0,0,0,.373.082.8.8,0,0,0,.483-.172.764.764,0,0,0,.218-.288A1.184,1.184,0,0,0,25,41.025V33.107H23.478Zm23.743-3.963.582-1.08.417-.775c.105-.2.173-.323.194-.361H46.638q-.435.819-.868,1.638T44.9,36.426q-.435.819-.868,1.639L43.165,39.7q-.411-.819-.824-1.638t-.824-1.639q-.411-.819-.824-1.638t-.824-1.638H37.963l.564,1.076.564,1.077.564,1.077.564,1.077-.312.562-.313.563-.312.562-.313.562q-.431-.819-.862-1.639l-.863-1.639-.863-1.639q-.43-.821-.862-1.639h-1.9l.2.361.418.775c.027.052.056.106.086.16l.495.92.686,1.273c.2.373.408.755.613,1.137l.118.218.717,1.328c.23.425.447.827.643,1.188l.062.115.055.1v0l.391.719a1.137,1.137,0,0,0,.152.216l.043.044.033.029.013.011,0,0c.014.012.029.023.044.034l.053.035.045.025.045.021h0a.673.673,0,0,0,.092.035l.023.007.016.005a.94.94,0,0,0,.144.025h0l.053,0,.058,0c.027,0,.053,0,.078,0h.01l.063-.008.016,0,.012,0,.065-.016.063-.02.059-.025.017-.008.04-.021.017-.009.049-.03,0,0c.017-.011.034-.024.051-.037a1.017,1.017,0,0,0,.165-.162.9.9,0,0,0,.1-.148l.153-.283.012-.023.037-.069.025-.048.028-.052.025-.047.055-.1c.133-.251.281-.529.419-.791s.269-.507.367-.693L41.025,39l.175.335.363.694c.137.262.284.54.416.79l.093.177.01.018.031.059.019.036.019.036.025.048.01.017.028.053.006.013.091.169.011.019.015.026h0l.028.043.006.008c.011.016.023.033.036.05a.945.945,0,0,0,.161.162.865.865,0,0,0,.234.132.923.923,0,0,0,.207.047h0l.042,0h.021l.041,0h.025l.068,0,.065-.008.028-.006.043-.01.024-.006.062-.019a.89.89,0,0,0,.238-.132.99.99,0,0,0,.166-.163.943.943,0,0,0,.1-.146c.141-.259.315-.578.51-.938l.014-.027.106-.2.523-.966.716-1.327c.245-.454.492-.911.731-1.356S47.007,35.765,47.221,35.366ZM33.589,33.129Zm-.015-.009h0Zm.022.013,0,0h0Zm-.016-.009h0Zm0,0,0,0,0,0,0,0Zm.009.006h0l0,0Zm23.989,8.8h0Zm0,0h0l0,0h0Zm0,0h0Zm0,0Zm0,0Zm0,0Zm0,0Zm0,0h0Zm0,0Zm0,0Zm0,0Zm.059.033,0,0h0Zm-.008,0,.007,0h0l-.01,0Zm.02.011h0Zm-.055-.03h0Zm-.019-.011h0Zm0,0Zm0,0Zm0,0Zm0,0Zm0,0h0Zm.089.049.007,0h0Zm-.081-.045Zm0,0Zm0,0h0Zm0,0Zm.04.022h0l.005,0h0Zm-.039-.022Zm0,0Zm-2.5-4.149L53.817,35.7q-.626-1.037-1.249-2.074a1.138,1.138,0,0,0-.106-.144,1.39,1.39,0,0,0-.173-.168.992.992,0,0,0-.225-.138.65.65,0,0,0-.213-.055.34.34,0,0,0-.045,0h0a.714.714,0,0,0-.271.058.946.946,0,0,0-.227.139,1.216,1.216,0,0,0-.169.167.993.993,0,0,0-.1.144L49.787,35.7q-.624,1.036-1.246,2.074T47.3,39.847q-.624,1.036-1.246,2.073h1.824l.968-1.636.969-1.637q.484-.819.968-1.637l.969-1.637.458.769.458.768.458.769.458.768H51c-.063.11-.127.219-.191.328s-.127.219-.191.328l-.191.328c-.063.109-.127.218-.19.328h4.121q.16.27.322.54c.107.18.215.36.322.541l.322.54q.162.27.322.54h1.919l-1.249-2.073Q55.69,38.811,55.065,37.774Zm4.54-6.742,0-.007-.026.007h-.223l-.028.068h0l-.036.089-.474,1.159-.54-1.316h-.63v0H56.109v.495h.465v1.739h.611V31.525h.465v-.478l.907,2.218h.525L60,31.032Z" style="fill: #000"/>
    <path d="M29.772,33.7a3.547,3.547,0,1,0,3.548,3.546A3.541,3.541,0,0,0,29.772,33.7Z" style="fill: #e32129"/>
  </g>
</svg>
