<?xml version="1.0" encoding="utf-8"?>
<svg id="Layer_1" data-name="Layer 1" xmlns="http://www.w3.org/2000/svg" viewBox="0 0 200 100"><defs><style>.cls-1{fill:#000;}.cls-2{fill:#0077a8;}</style></defs><title>nrbtv-logo-dark-no-tagline</title><path class="cls-1" d="M.56,75.53H43.85V1H.56Zm9-64.23h6.63L28,44.62l-.6-15.14V11.3H35V66.84H29L16.87,32.35l.48,14.58V66.84H9.55Z"/><path class="cls-1" d="M77,33.33a4.38,4.38,0,0,0,1.08-2.5,35.08,35.08,0,0,0,.3-5.39v-.35c0-3-.26-5-.76-5.9s-1.67-1.39-3.5-1.39H71.23V34.05h3.38A3.39,3.39,0,0,0,77,33.33Z"/><path class="cls-1" d="M52.43,75.53H95.72V1H52.43ZM62.75,11.3h14c2.9,0,5.06.58,6.5,1.75a8.35,8.35,0,0,1,2.82,4.89,40.41,40.41,0,0,1,.68,8.21,21.57,21.57,0,0,1-1.07,7.71,6,6,0,0,1-4,3.57q2.86.51,4,3.88t1.13,14.06c0,7.12.11,10.95.32,11.47H78.68q-.32-.63-.31-19.91c0-2.46-.3-4.1-.89-4.91s-1.78-1.23-3.56-1.28l-2.72-.12V66.84H62.75Z"/><path class="cls-1" d="M104.35,1V75.53h43.29V1Zm34.49,50.09q-.06,8.37-2.92,12.06t-9.32,3.69H114.32V11.3h12c4.14,0,7.08,1,8.8,2.89s2.6,5.15,2.62,9.67v1.7q0,9-4.86,11,5.94,2,5.93,13.09Z"/><path class="cls-1" d="M126.35,40.11h-3.57V60.28h3a3.73,3.73,0,0,0,3.53-1.74c.68-1.16,1-3.23,1-6.22V47.84a15.39,15.39,0,0,0-.82-6A3.16,3.16,0,0,0,126.35,40.11Z"/><path class="cls-1" d="M128.76,32.38c.45-.92.68-2.83.68-5.71V23.32c0-2.14-.32-3.58-.88-4.3a3.52,3.52,0,0,0-2.94-1.09h-2.84V33.77h3.12C127.36,33.77,128.31,33.31,128.76,32.38Z"/><polygon class="cls-2" points="199.44 1 156.15 1 156.15 75.53 169.29 75.53 178.34 99 187.38 75.53 199.44 75.53 199.44 1"/><polygon class="cls-1" points="180.25 23.44 180.25 36.86 173.71 36.86 173.71 23.44 168.46 23.44 168.46 17.85 185.51 17.85 185.51 23.44 180.25 23.44"/><polygon class="cls-1" points="180.64 60.47 173.32 60.47 165.75 41.35 172.98 41.35 176.98 51.83 180.98 41.35 188.22 41.35 180.64 60.47"/></svg>
