<?xml version="1.0" encoding="UTF-8" standalone="no"?>
<svg
   version="1.1"
   width="418.58398"
   height="61.740234"
   viewBox="0 0 418.58398 61.740234"
   id="svg7871"
   xml:space="preserve"
   xmlns="http://www.w3.org/2000/svg"
   xmlns:svg="http://www.w3.org/2000/svg"><defs
     id="defs7368" /><path
     fill="#092343"
     d="M 76.257813,48.480469 H 91.199215 V 5.878906 H 76.257813 Z M 0,48.480469 H 14.9375 V 5.878906 H 0 Z M 42.597656,48.480469 H 57.539063 V 5.878906 H 42.597656 Z M 30.808594,7.828125 C 29.269531,6.53125 27.460937,5.878906 25.378906,5.878906 H 15.839844 L 25.441406,48.480469 H 41.703125 L 33.660156,12.71875 C 33.300781,10.761719 32.347656,9.128906 30.808594,7.828125 M 121.62109,5.878906 H 105.17969 C 104.21876,7.4375 103.35938,8.847656 102.59766,10.109375 101.83984,11.367188 101.00781,12.738281 100.10938,14.21875 99.210935,15.699219 98.339845,17.128906 97.500005,18.507812 96.660155,19.890625 95.929685,21.097656 95.308595,22.140625 94.687505,23.179688 94.257815,23.878906 94.019535,24.238281 93.339845,25.359375 93.007815,26.339844 93.031255,27.179688 93.050785,28.019531 93.378905,29.019531 94.019535,30.179688 94.257815,30.539062 94.687505,31.238281 95.308595,32.277344 95.929685,33.320312 96.660155,34.527344 97.500005,35.910156 98.339845,37.289062 99.210935,38.710938 100.10938,40.167969 101.00781,41.628906 101.83984,42.988281 102.59766,44.25 103.35938,45.507812 104.21876,46.917969 105.17969,48.480469 H 121.62109 C 120.5,46.640625 119.5,44.988281 118.62109,43.527344 117.73828,42.070312 116.79688,40.527344 115.80078,38.910156 114.80078,37.289062 113.84766,35.738281 112.94922,34.257812 112.05078,32.78125 111.32031,31.570312 110.75781,30.628906 110.19922,29.691406 109.89844,29.199219 109.85938,29.160156 109.41797,28.398438 109.1875,27.738281 109.16797,27.179688 109.14844,26.617188 109.35938,25.980469 109.80078,25.257812 Z M 71.160156,6.121094 C 72.4375,6.878906 73.460937,7.910156 74.21875,9.210938 74.980469,10.511719 75.359375,11.941406 75.359375,13.5 75.359375,15.058594 74.980469,16.480469 74.21875,17.761719 73.460937,19.039062 72.4375,20.058594 71.160156,20.820312 69.878906,21.578125 68.460937,21.960938 66.898437,21.960938 65.339844,21.960938 63.929687,21.578125 62.667969,20.820312 61.410156,20.058594 60.398437,19.039062 59.640625,17.761719 58.878906,16.480469 58.5,15.058594 58.5,13.5 58.5,11.941406 58.878906,10.511719 59.640625,9.210938 60.398437,7.910156 61.410156,6.878906 62.667969,6.121094 63.929687,5.359375 65.339844,4.980469 66.898437,4.980469 68.460937,4.980469 69.878906,5.359375 71.160156,6.121094"
     id="path7360" /><path
     fill="#1767ce"
     d="M369.20508 0c-1.32001 0-2.54016.261248-3.66016.78125-1.08.480002-1.94008 1.218746-2.58007 2.21875-.64001 1.000004-.96095 2.22015-.96095 3.660156 0 1.400006.3004 2.581012.90039 3.541016.64001.960004 1.47953 1.698748 2.51954 2.21875 1.07999.520002 2.30014.78125 3.66015.78125 1.40001 0 2.64071-.261248 3.7207-.78125 1.08002-.560002 1.91954-1.319293 2.51953-2.279297.64001-1.000004.96094-2.18101.96094-3.541016 0-2.000008-.66046-3.598823-1.98047-4.798828C372.98469.600776 371.28508 0 369.20508 0Zm0 2.820313c.88-.000001 1.57961.181014 2.0996.541015.56001.320002.95923.758357 1.19922 1.318359.28.560003.41993 1.199919.41993 1.919922s-.13993 1.361873-.41993 1.921875c-.28.560002-.69976.998358-1.25976 1.31836-.51999.320001-1.2196.480468-2.0996.480469-.80001-.000001-1.48102-.139921-2.04102-.419922-.56-.280001-.97978-.699764-1.25977-1.259766-.27999-.560002-.41992-1.241012-.41992-2.041016 0-1.240005.32093-2.178356.96094-2.818359.68-.640002 1.6203-.960937 2.82031-.960937Zm29.0996.359374-6.12108.900391v44.400391h6.12108V33.78125h.10157l12.25781 14.699219h7.91992l-14.55469-16.398438 14.25586-14.201172h-7.5l-10.26757 11.279297h-2.2129ZM132.57226 5.880859v5.279297h13.74024v37.320313h6.29882V11.160156h13.68164V5.880859Zm46.01173 11.339844c-2.28002 0-4.32109.399216-6.1211 1.199219-1.80001.800003-3.33914 1.921322-4.61914 3.361328-1.24001 1.440006-2.20087 3.178742-2.88086 5.21875-.64 2.000008-.95899 4.240693-.95899 6.720703 0 3.280013.58023 6.080381 1.74024 8.400391 1.2 2.280009 2.95928 4.018745 5.27929 5.21875 2.32001 1.160005 5.15952 1.740234 8.51953 1.740234 1.60001 0 3.00117-.098827 4.20118-.298828 1.24-.160001 2.40047-.421248 3.48046-.78125 1.08001-.360001 2.15829-.818904 3.23829-1.378906L190.88281 42c-.76001.280001-1.53984.559842-2.33985.839844-.76.280001-1.55843.541249-2.39843.78125-.84.200001-1.70008.360468-2.58008.480469-.88001.079999-1.76063.11914-2.64063.11914-1.80001 0-3.35968-.160468-4.67968-.480469-1.32001-.360001-2.44133-.940231-3.36133-1.740234-.88001-.840003-1.55907-1.959369-2.03906-3.359375-.34766-1.106151-.55594-2.42833-.62891-3.958984h21.68945c.28-2.800012.15867-5.281398-.36133-7.441407-.48-2.160008-1.29898-3.978978-2.45897-5.458984-1.16001-1.520006-2.63945-2.659919-4.43946-3.419922-1.76001-.760003-3.78054-1.140625-6.06054-1.140625Zm34.01952 0c-2 0-3.89921.380622-5.69922 1.140625-1.8.760003-3.42132 1.858822-4.86133 3.298828-1.4 1.400006-2.49882 3.161242-3.29882 5.28125-.8 2.080008-1.20118 4.479208-1.20118 7.199219 0 3.040012.5 5.679913 1.5 7.919922 1.04001 2.200008 2.53999 3.920151 4.5 5.160156 1.96001 1.200005 4.34062 1.800781 7.14063 1.800781 2.16001 0 4.29992-.419761 6.41992-1.259765 1.15188-.456406 2.29166-1.109074 3.41992-1.94336v1.642578c0 1.520006-.19961 2.83898-.59961 3.958985-.36 1.160004-.94023 2.120856-1.74023 2.880859-.76001.800003-1.78054 1.380233-3.06055 1.740235-1.24.400001-2.75859.599609-4.55859.599609-1.20001 0-2.4407-.080234-3.7207-.240234-1.24001-.120001-2.4993-.358749-3.7793-.71875-1.28001-.320001-2.54125-.741717-3.78125-1.261719l.66015 5.28125c1.08001.440002 2.19938.800077 3.35939 1.080078 1.19999.320001 2.44069.558749 3.72069.71875 1.28001.160001 2.60093.240234 3.96094.240234 3.40002 0 6.26008-.58023 8.58008-1.740234 2.32-1.120005 4.05874-2.698273 5.21875-4.738281 1.2-2.000008 1.80079-4.320927 1.80079-6.960938V17.220703l-5.88868 1.515625c-.65545-.286871-1.3514-.534402-2.0918-.736328-.84001-.240001-1.75976-.419062-2.75976-.539063-1-.16-2.08023-.240234-3.24024-.240234Zm41.04103 0c-1.72003 0-3.44016.279842-5.16017.839844-1.68.520002-3.28078 1.279292-4.80077 2.279297-.57945.38121-1.13513.798895-1.6797 1.232422V17.28125l-6.11913.898437v30.300782h6.11913V25.677734c.5778-.332107 1.17919-.630086 1.80078-.896484.88-.400002 1.74007-.741483 2.58009-1.021484.88-.280001 1.74007-.479609 2.58008-.59961.88-.160001 1.71952-.240234 2.51952-.240234 1.12001 0 2.07891.160467 2.87892.480469.79999.280001 1.46046.720309 1.98046 1.320312.51999.600002.90062 1.359293 1.14062 2.279297s.35938 2.00023.35938 3.240234v18.240235h6.1211v-19.5c0-2.720012-.38063-4.94015-1.14064-6.660156-.76-1.720007-1.89991-2.99984-3.41992-3.839844-1.52001-.840003-3.43976-1.259766-5.75975-1.259766Zm30.24023 0c-1.80001 0-3.43993.199608-4.91992.59961-1.48002.360001-2.78039.919684-3.9004 1.679687-1.08001.720003-1.91953 1.660308-2.51953 2.820313-.60001 1.120004-.90038 2.459524-.90038 4.019531 0 1.120004.1585 2.119996.4785 3 .32.840003.74172 1.560153 1.26173 2.160156.52.600002 1.11883 1.141092 1.79883 1.621094.71999.440001 1.48125.818671 2.28125 1.138672.44.160001.89891.320468 1.3789.480468.47999.160001.94085.320469 1.38085.480469.48001.120001.93892.259921 1.37892.419922.44.120001.85976.259921 1.25977.419922.44.12.8617.239374 1.26171.359375.56.200001 1.07859.440702 1.5586.720703.47999.240001.88117.519843 1.20117.839844.35999.280001.6193.619529.77929 1.019531.2.400002.30079.84031.30079 1.320313 0 1.000003-.34149 1.800387-1.0215 2.40039-.63999.560002-1.50007.959218-2.58006 1.199219-1.04001.240001-2.15938.361328-3.35939.361328-.64 0-1.36015-.041093-2.16015-.121094-.76-.12-1.57899-.259921-2.45898-.419922-.84002-.2-1.72062-.420155-2.64063-.660156-.88-.280001-1.77922-.578436-2.69922-.898437l.23828 5.099609c1.04.360002 1.9803.66039 2.82032.900391.87999.200001 1.70092.379062 2.46093.539062.80001.160001 1.55929.260781 2.2793.300781.76.04 1.51929.058594 2.27929.058594 1.76002 0 3.42046-.179061 4.98048-.539062 1.56-.320001 2.92007-.840544 4.08008-1.560547 1.15999-.720003 2.06116-1.660308 2.70117-2.820313.68-1.160005 1.01952-2.538665 1.01952-4.138672 0-1.200004-.18101-2.220543-.541-3.060547-.32-.880003-.77891-1.639294-1.37892-2.279296-.60001-.640003-1.2996-1.181092-2.0996-1.621094-.80001-.480002-1.64148-.879217-2.52148-1.199219l-1.91994-.601562c-.6-.240001-1.21936-.439609-1.85937-.59961l-1.80078-.599609c-.56-.200001-1.07859-.420155-1.5586-.660156-.51999-.280001-1.0014-.580389-1.4414-.900391-.4-.320001-.73953-.69867-1.01953-1.138672-.23999-.440002-.35938-.939998-.35938-1.5 0-.640003.13992-1.181092.41992-1.621094.28001-.480002.69977-.879217 1.25977-1.199218.56-.320001 1.22046-.560702 1.98047-.720703.80001-.160001 1.69922-.240235 2.69922-.240235.44 0 .91946.020546 1.43945.060547.52002.04 1.08164.120234 1.68165.240234.63999.08 1.25936.199374 1.85937.359375.64.160001 1.27991.341016 1.91992.541016.64.200001 1.22023.420155 1.74023.660156l.41992-4.861328c-.76-.320001-1.51928-.599843-2.27929-.839844-.72001-.240001-1.46071-.439608-2.22071-.599609-.76-.160001-1.51928-.260781-2.27929-.300781-.72001-.08-1.44014-.119141-2.16015-.119141Zm33.17968 0c-1.44001 0-2.91944.199608-4.43945.59961-1.52001.360001-3.02.940231-4.5 1.740234-.28218.152527-.56254.322711-.8418.49414V17.28125l-6.11914.958984v42.839844h6.11914V47.646484c.04144.017679.07946.037073.12109.054688 1.04001.440001 2.17992.758983 3.41992.958984 1.28001.240001 2.69976.361328 4.25977.361328 2.88001 0 5.43968-.660463 7.67969-1.980468 2.28-1.320006 4.08039-3.221162 5.40039-5.701172 1.36-2.52001 2.04102-5.579673 2.04102-9.179688 0-2.960011-.52055-5.558819-1.56054-7.798828-1-2.240009-2.47946-3.980698-4.43946-5.220703-1.92001-1.280005-4.30061-1.919922-7.14063-1.919922Zm51.9004 0c-1.28001 0-2.54126.080234-3.78125.240234-1.24002.160001-2.41906.398749-3.53906.71875-1.08002.280002-2.1211.621483-3.12111 1.021485l-.71875 5.099609c1-.360001 1.94032-.660389 2.82032-.90039.92-.240001 1.79867-.439609 2.63867-.59961.84-.16 1.66093-.26078 2.46093-.300781.84-.08 1.65898-.119141 2.459-.119141 1.44 0 2.64155.139921 3.60155.419922 1 .280001 1.77984.699764 2.33985 1.259766.56.560002.95921 1.280152 1.19921 2.160156.24002.840003.35939 1.839995.35939 3l-.00587 1.50586-7.01367.474609c-2.80001.16-5.11898.67859-6.95898 1.558594-1.84001.880003-3.22062 2.001322-4.14063 3.361328-.88001 1.320005-1.32031 2.7789-1.32031 4.378906 0 1.520006.33954 2.93976 1.01953 4.259766.72 1.280005 1.77969 2.32109 3.17968 3.121093 1.44002.800004 3.22179 1.199219 5.3418 1.199219 1.96001 0 3.63906-.279842 5.03906-.839844 1.44001-.560002 2.6993-1.360387 3.77931-2.40039.41982-.389839.81896-.815676 1.20508-1.261719.1393.685532.35657 1.289016.65625 1.802734.56.920004 1.33983 1.599061 2.33983 2.039063 1.00001.400001 2.13993.601562 3.41992.601562.36 0 .69954-.020546 1.01954-.060547.36001 0 .69953-.041093 1.01953-.121093.32001-.080001.59984-.158281.83985-.238281.28001-.04.52069-.101641.72069-.181641l.66016-4.019531c-.36.12-.69952.200233-1.01952.240234-.32002.04-.59985.060547-.83985.060547-1.08001 0-1.85985-.320935-2.33985-.960938-.47999-.640002-.70014-1.699681-.66015-3.179687l.11914-12.359375c0-1.400006-.16046-2.67984-.48047-3.839844-.32-1.160005-.79945-2.180543-1.43946-3.060547-.64-.880003-1.47952-1.6207-2.51953-2.220703-1-.600002-2.1996-1.058904-3.5996-1.378906-1.40001-.320001-2.98023-.480469-4.74023-.480469Zm-25.20118.060547-6.11913.898437v30.300782h6.11913V25.802734c.46028-.316102.92057-.596313 1.38087-.841797.63999-.360001 1.25936-.660389 1.85936-.90039.64001-.240001 1.27992-.439609 1.91993-.59961.63999-.2 1.30046-.339921 1.98046-.419921.72001-.080001 1.46071-.100548 2.22071-.060547l.71875-5.640625c-1.32-.08-2.54016.041327-3.66015.361328-1.12.280001-2.17969.738903-3.1797 1.378906-1 .600003-1.9403 1.3407-2.8203 2.220703-.14076.140762-.28019.287715-.41993.433594Zm-165.11914 4.679687c1.92001 0 3.45913.458903 4.61914 1.378907 1.16.880003 1.96039 2.120696 2.40039 3.720703.31066 1.035562.4675 2.156253.47656 3.359375h-15.80663c.14466-1.341898.39342-2.503905.75-3.478516.63999-1.680007 1.59889-2.9207 2.8789-3.720703 1.28-.840003 2.84163-1.259766 4.68164-1.259766Zm35.33984.060547c.96001 0 1.90031.078281 2.82031.238282.92001.16 1.85836.400701 2.81836.720703.2956.086218.5972.187901.90039.296875v18.304687c-.25027.15226-.54298.336727-.77929.478516-.80001.440001-1.57985.820624-2.33985 1.140625-.72.280001-1.44015.500155-2.16015.660156-.68.160001-1.40015.240234-2.16015.240235-2.08002 0-3.82071-.380622-5.22071-1.140626-1.36001-.800003-2.38054-1.981009-3.06054-3.541015-.64001-1.600007-.95899-3.639131-.95899-6.119141 0-1.840007.22015-3.459369.66015-4.859375.48-1.440006 1.14046-2.621012 1.98047-3.541015.88001-.920004 1.93968-1.619608 3.17969-2.09961 1.28-.520002 2.7203-.779297 4.32031-.779297Zm100.25977.119141c2.12001 0 3.89983.399216 5.33984 1.199219 1.44.760002 2.49968 1.941009 3.17969 3.541015.72 1.600007 1.08008 3.639131 1.08008 6.119141 0 2.44001-.39922 4.501634-1.19921 6.181641-.80001 1.680007-1.96048 2.939293-3.48048 3.779296-1.48001.840004-3.29897 1.259766-5.45898 1.259766-.92001 0-1.84172-.059687-2.76173-.179687-.88-.160002-1.79976-.400702-2.75975-.720703-.2882-.096064-.59778-.213736-.9004-.324219V24.056641c.08011-.037912.16044-.078968.24023-.115235.88001-.400001 1.70094-.741482 2.46094-1.021484.76002-.280001 1.5007-.479609 2.22071-.599609.72001-.12 1.39907-.179688 2.03906-.179688Zm56.16015 12.960938h5.25391l-.02735 5.951171c-.31982.349672-.66111.667209-1.02733.947266-.64001.520002-1.33961.960311-2.09962 1.320313-.72.360001-1.49983.621249-2.33984.78125-.80001.16-1.63952.238281-2.51952.238281-1.12002 0-2.08087-.179061-2.88087-.539063-.76-.360001-1.34022-.859997-1.74024-1.5-.4-.680002-.5996-1.480387-.5996-2.40039 0-1.200005.26124-2.14031.78125-2.820313.52-.680003 1.35952-1.179999 2.51952-1.5 1.16001-.320001 2.71969-.478516 4.67969-.478515Z"
     id="path7362" /></svg>
