<?xml version="1.0" encoding="UTF-8" standalone="no"?>
<svg
   version="1.1"
   width="300.83118"
   height="86.996811"
   viewBox="0 0 300.83118 86.996812"
   id="svg2024"
   xml:space="preserve"
   xmlns="http://www.w3.org/2000/svg"
   xmlns:svg="http://www.w3.org/2000/svg"><defs
     id="defs1507" /><path
     fill="#092343"
     d="M 61.614923,5.695103 C 58.536913,3.101448 54.912047,1.796808 50.75595,1.796808 H 31.678526 L 50.880945,86.996812 H 83.395373 L 67.317843,15.475994 C 66.599123,11.562076 64.692943,8.29657 61.614923,5.695103 M 142.31509,2.281166 C 139.75268,0.757784 136.91685,0 133.79196,0 130.67489,0 127.85468,0.757784 125.33915,2.281166 122.8158,3.796735 120.79244,5.859159 119.27687,8.460628 117.7613,11.05428 116.9957,13.921363 116.9957,17.038437 116.9957,20.15551 117.7613,22.999156 119.27687,25.553748 120.79244,28.116154 122.8158,30.155143 125.33915,31.678524 127.85468,33.194094 130.67489,33.959692 133.79196,33.959692 136.91685,33.959692 139.75268,33.194094 142.31509,31.678524 144.86968,30.155143 146.91648,28.116154 148.43986,25.553748 149.95543,22.999156 150.71322,20.15551 150.71322,17.038437 150.71322,13.921363 149.95543,11.05428 148.43986,8.460628 146.91648,5.859159 144.86968,3.796735 142.31509,2.281166 M 85.192183,86.996812 H 115.0739 V 1.796808 H 85.192183 Z M 152.51003,86.996812 H 182.39173 V 1.796808 H 152.51003 Z M 243.23326,1.796808 H 210.35165 C 208.43766,4.921694 206.71116,7.741902 205.1956,10.257436 203.67221,12.780781 202.01601,15.522868 200.2114,18.475884 198.41459,21.436713 196.67247,24.295982 194.99285,27.053693 193.31321,29.819218 191.85233,32.241003 190.61019,34.319053 189.36806,36.397102 188.51651,37.795487 188.03217,38.514211 186.67284,40.756316 186.0166,42.717182 186.05568,44.396809 186.09474,46.076433 186.75877,48.07636 188.03217,50.396589 188.51651,51.11531 189.36806,52.513697 190.61019,54.599558 191.85233,56.677606 193.31321,59.099393 194.99285,61.857102 196.67247,64.614812 198.41459,67.458462 200.2114,70.372422 202.01601,73.294182 203.67221,76.012832 205.1956,78.536182 206.71116,81.051712 208.43766,83.871922 210.35165,86.996812 H 243.23326 C 240.99114,83.317252 238.99122,80.020502 237.23348,77.098732 235.46793,74.176962 233.59299,71.098952 231.59307,67.856882 229.59314,64.614812 227.69477,61.513362 225.89014,58.552537 224.09334,55.599522 222.63246,53.177734 221.5153,51.294992 220.39034,49.42006 219.7888,48.435723 219.71068,48.357599 218.83572,46.842031 218.36697,45.521767 218.33573,44.396809 218.28886,43.279662 218.71072,41.998459 219.59351,40.553198 Z M 0,1.796808 H 29.873904 V 86.996812 H 0 Z M 0,1.796808"
     id="path1513" /><path
     d="M 300.83117,86.996802 H 288.35212 V 8.876824 L 294.11167,12.836821 Q 290.99193,14.876822 288.23213,16.436821 285.59233,17.99682 282.83253,19.316819 280.19274,20.636821 277.19297,21.716819 274.31318,22.79682 270.71345,23.876818 L 268.07367,13.676822 Q 271.07342,12.716823 273.71322,11.756821 276.35302,10.796822 278.87285,9.596822 281.39266,8.396822 283.79245,7.196824 286.31226,5.996824 288.83209,4.676825 291.47189,3.236823 294.35164,1.796826 H 300.83117 Z"
     id="path2073"
     fill="#1767ce" /></svg>
