<svg width="196" height="58" viewBox="0 0 196 58" fill="none" xmlns="http://www.w3.org/2000/svg">
<g clip-path="url(#clip0)">
<path fill-rule="evenodd" clip-rule="evenodd" d="M29.0188 0.019043H166.497C182.385 0.019043 195.516 13.0018 195.516 29.0009C195.516 44.8687 182.385 57.9827 166.497 57.9827H29.0188C12.9994 57.9827 0 44.8687 0 29.0009C0 13.0018 12.9994 0.019043 29.0188 0.019043Z" fill="#CCFF66"/>
<path fill-rule="evenodd" clip-rule="evenodd" d="M23.2414 9.46002C25.3423 8.54205 28.3624 7.36179 27.4432 11.6894C27.1806 12.8696 27.3119 14.9679 27.4432 16.935C27.7058 20.2135 27.4432 25.459 27.5745 29.1309C27.5745 29.5244 31.6451 29.6555 33.746 30.3112C34.5338 30.4423 35.1903 30.9669 35.9782 30.8358C36.766 30.7046 36.6347 27.9507 36.6347 27.5573C36.6347 24.0165 36.6347 21.0003 36.8973 18.2464C37.1599 15.6236 37.4226 12.7385 38.6043 11.0337C39.3922 9.98458 41.887 10.378 41.887 11.5583C41.887 12.4762 41.2305 13.5253 41.0992 15.2302C40.7052 17.8529 41.0992 19.9512 40.9678 22.574C40.9678 22.9674 40.5739 23.6231 40.5739 24.0165C40.7052 30.8358 40.3113 39.2287 42.1496 45.7856C42.2809 46.1791 42.8061 47.4905 42.8061 47.7527C42.8061 49.1953 40.5739 49.851 39.2609 48.933C37.6852 47.7527 37.5539 42.9006 37.2913 41.1958C37.1599 40.8023 36.8973 34.9011 36.8973 34.3765C35.9782 34.5077 35.059 34.7699 34.2712 34.2454C32.039 32.934 28.8876 33.4585 27.7058 33.1963C27.7058 37.9173 28.2311 41.5892 27.1806 46.1791C26.5241 48.6707 22.7162 47.6216 22.7162 46.1791C22.7162 44.9988 23.6353 44.212 23.7666 43.294C23.8979 41.8515 23.7666 38.0484 23.3727 36.737C23.2414 35.9502 22.4536 32.016 22.4536 30.9669C22.4536 28.4752 22.9788 30.4423 23.504 25.5902C23.8979 21.656 24.1606 16.5416 23.6353 11.9517C20.484 13.0008 13.7873 17.0661 11.1612 20.8692C13.656 22.9674 11.8177 23.7542 10.7672 23.6231C4.07058 22.4428 6.56541 19.82 9.71678 17.5907C13.9186 14.5745 21.1405 10.2469 23.2414 9.46002ZM85.6122 15.099C83.9052 16.1481 73.4007 22.9674 72.3502 23.3608C72.3502 22.4428 72.2189 21.656 72.2189 20.738C72.2189 19.0332 72.2189 17.3284 72.0876 15.6236C71.825 13.5253 68.6736 13.6565 68.6736 15.8859C68.6736 16.8038 68.5423 17.8529 68.5423 18.7709C68.411 19.82 68.8049 24.6722 68.0171 25.3279C67.7545 25.459 66.4414 26.5082 65.6536 27.295C68.1484 31.2292 68.6736 30.8358 68.5423 32.6717C68.5423 33.852 68.6736 35.0322 68.6736 36.2125C67.2292 36.8682 65.5223 38.3107 64.2092 39.2287C62.6335 40.4089 57.6438 44.3431 55.2803 44.0808C53.442 43.8186 50.9472 41.3269 50.422 40.0155C48.1897 34.3765 48.9776 26.1147 51.8663 20.6069C52.6542 19.1643 56.5934 12.6074 59.4821 15.2302C60.5326 16.2793 60.0074 20.2135 59.3508 21.2626C58.9569 21.7871 58.6943 22.4428 58.8256 23.6231C59.0882 25.459 62.5022 25.7213 63.9466 22.8362C64.4718 21.9183 64.3405 18.7709 64.2092 17.5907C63.8153 14.181 58.9569 9.59116 54.7551 12.3451C53.5733 13.2631 52.2603 13.9188 51.3411 14.9679C48.321 18.3775 47.1393 21.0003 45.9575 24.8033C44.3818 29.2621 44.3818 38.4418 47.4019 42.7694C48.5837 44.6054 51.735 47.6216 54.8864 47.6216C59.7448 47.6216 63.4213 44.212 65.9162 41.458C66.8353 40.5401 68.411 37.655 68.8049 37.3927C68.8049 38.0484 68.9362 39.0975 68.9362 39.7532C68.8049 40.8023 68.2797 43.1629 68.8049 44.3431C69.5928 46.1791 72.8755 45.6545 73.1381 43.8186C73.2694 42.376 73.1381 39.2287 73.0068 37.5239C73.0068 36.6059 72.7441 35.5568 72.7441 34.5077C74.8451 36.4747 78.5217 40.2778 81.8043 42.2449C87.1879 45.5234 91.1271 48.1462 98.349 48.1462C107.803 48.1462 112.924 42.1137 114.368 34.5077C114.5 33.7208 113.055 33.1963 112.136 33.5897C108.722 34.6388 111.086 36.4747 107.803 39.8844C104.389 43.4251 101.632 44.3431 96.5107 44.212C90.0767 44.0808 78.259 35.9502 74.8451 32.2783C73.4007 30.5735 72.6128 29.9178 72.4815 28.213C72.4815 27.6884 76.1581 24.9345 77.0773 24.1476C79.1782 22.7051 81.4104 21.5249 83.6426 20.2135C85.7435 18.9021 90.208 16.017 91.6524 14.3122C93.0967 12.8696 92.9654 10.378 91.3897 9.32888C87.9758 7.23065 88.3697 13.1319 85.6122 15.099Z" fill="black"/>
<path fill-rule="evenodd" clip-rule="evenodd" d="M139.448 0.0180664H166.497C182.386 0.0180664 195.516 13.0009 195.516 28.9999C195.516 44.8678 182.386 57.9817 166.497 57.9817C158.094 57.9817 149.69 57.9817 141.418 57.9817C140.236 55.7523 139.842 44.0809 139.579 39.6222C134.59 40.0156 126.317 40.409 123.954 36.8683C119.883 30.967 138.135 28.4753 139.842 16.4105C140.63 11.2961 139.711 6.83732 139.448 0.0180664Z" fill="#F39314"/>
<path fill-rule="evenodd" clip-rule="evenodd" d="M172.406 31.2293C172.012 38.442 170.568 43.6875 164.134 47.3594C160.851 49.4577 153.498 49.7199 150.215 50.1134C148.114 50.5068 140.761 49.7199 140.63 52.4739C140.499 55.0967 143.387 55.0967 144.7 55.2278C150.74 55.8835 162.295 53.7853 165.447 52.3427C174.901 47.7529 177.396 36.8683 177.658 29.3933C177.79 22.0495 179.891 13.0009 173.457 8.54216C166.497 3.69 158.094 8.27988 153.367 14.05C148.508 19.9513 148.508 29.2622 154.417 34.5078C160.326 39.6222 167.81 36.0814 172.406 31.2293Z" fill="black"/>
<path fill-rule="evenodd" clip-rule="evenodd" d="M163.609 32.0162C156.781 34.2455 153.104 28.4754 153.892 22.9675C154.942 15.3614 164.396 7.09966 171.356 12.3452C176.871 16.4106 171.356 29.2622 163.609 32.0162Z" fill="white"/>
<path fill-rule="evenodd" clip-rule="evenodd" d="M139.579 39.6221C139.448 41.0647 139.579 44.3432 140.367 46.3102C141.418 48.6708 145.094 48.4085 144.963 44.4743C144.963 43.6875 144.963 40.2778 145.094 39.7533C145.226 39.3599 150.215 39.7533 150.609 39.0976C150.74 38.9664 149.296 34.77 147.195 34.5077L145.094 34.2454C144.569 32.2783 145.488 27.295 143.912 26.2459C143.125 26.7705 141.418 28.4753 140.63 29.3933C139.317 30.8358 139.579 32.8029 139.448 34.77C137.085 34.77 127.237 36.9993 126.449 34.2454C125.661 31.8849 129.994 30.5735 132.751 28.6064C136.559 25.7213 141.549 20.4758 142.993 16.4104C144.569 12.3451 145.619 5.2636 144.569 1.59169C144.306 0.673714 139.711 2.90309 139.711 4.08334C139.711 5.52587 139.448 10.5092 139.054 11.8206C138.135 19.0332 129.863 25.5902 122.247 29.7867C117.389 32.5406 119.096 39.3599 123.823 40.1467C127.63 40.8024 135.509 40.0156 139.579 39.6221Z" fill="black"/>
<path fill-rule="evenodd" clip-rule="evenodd" d="M160.589 21.9183C160.457 21.0003 161.245 18.9021 159.801 18.9021C156.387 19.0332 155.074 24.41 157.831 25.8525C161.639 27.9507 164.659 24.2788 163.74 21.9183C163.346 20.7381 161.902 22.1806 160.589 21.9183Z" fill="black"/>
</g>
<defs>
<clipPath id="clip0">
<rect width="195.516" height="58" fill="white"/>
</clipPath>
</defs>
</svg>
