<?xml version="1.0" encoding="utf-8"?>
<!-- Generator: Adobe Illustrator 27.2.0, SVG Export Plug-In . SVG Version: 6.00 Build 0)  -->
<svg version="1.1" id="Ebene_1" xmlns="http://www.w3.org/2000/svg" xmlns:xlink="http://www.w3.org/1999/xlink" x="0px" y="0px"
	 viewBox="0 0 841.89 595.28" style="enable-background:new 0 0 841.89 595.28;" xml:space="preserve">
<style type="text/css">
	
		.st0{clip-path:url(#SVGID_00000117650734637434660620000005770569044708585396_);fill:url(#SVGID_00000034809273487833372250000007193333824618473641_);}
	
		.st1{clip-path:url(#SVGID_00000013883691476412971350000014167414063142778778_);fill:url(#SVGID_00000048496420975602035100000014730858092327228800_);}
</style>
<g>
	<defs>
		<path id="SVGID_1_" d="M253.09,39.71c-13.72,0.69-27.31,2.24-40.75,5.04c-30.91,6.43-59.46,18.63-86.08,35.46
			c-30.63,19.38-56.61,43.67-76.55,74.02c-28.26,43-41.87,90.5-42.69,141.79c0.08,11.96,0.93,23.82,2.41,35.66
			c3.3,26.21,10.18,51.42,21.35,75.37c20.05,43,49.89,77.8,89.26,104.14c53.53,35.81,112.66,49.91,176.62,43.01
			c39.45-4.26,75.43-18.55,108.84-39.68c2.33-1.48,2.56-2.61,0.99-4.86c-16.61-23.78-33.15-47.61-49.66-71.47
			c-1.26-1.82-2.37-1.92-4.17-0.88c-3.87,2.24-7.78,4.41-11.77,6.43c-31.4,15.84-64.44,22.05-99.42,16.97
			c-32.14-4.67-60.58-17.58-84.93-38.99c-19.97-17.55-34.59-39.03-44.29-63.79c-8.71-22.25-11.99-45.35-10.91-69.19
			c0.67-14.89,3.03-29.43,7.73-43.55c9.84-29.49,26.94-53.97,50.78-73.93c37.3-31.22,80.41-41.89,128.03-36.22
			c21.27,2.53,41.11,9.73,59.68,20.43c25.46,14.67,45.57,34.67,60.04,60.28c2.31,4.08,2.23,4.05,6.39,1.74
			c9.91-5.49,19.85-10.92,29.78-16.37c15.07-8.26,30.34-16.16,45.16-24.89c2.19-1.29,2.94-2.38,1.48-4.9
			c-19.27-33.03-43.58-61.53-74.95-83.72c-21.89-15.49-45.49-27.64-71.02-35.93c-25.46-8.27-51.47-12.32-78.04-12.32
			C261.99,39.37,257.55,39.49,253.09,39.71"/>
	</defs>
	<clipPath id="SVGID_00000181081694018064245630000012876504685131387543_">
		<use xlink:href="#SVGID_1_"  style="overflow:visible;"/>
	</clipPath>
	
		<linearGradient id="SVGID_00000113332520284530147780000000177484112427934345_" gradientUnits="userSpaceOnUse" x1="-89.5121" y1="813.5681" x2="-87.0779" y2="813.5681" gradientTransform="matrix(198.8888 0 0 -198.8888 17809.9941 162109.8438)">
		<stop  offset="0" style="stop-color:#1B3351"/>
		<stop  offset="0.0107" style="stop-color:#1B3351"/>
		<stop  offset="1" style="stop-color:#1B5777"/>
	</linearGradient>
	
		<rect x="7.03" y="39.37" style="clip-path:url(#SVGID_00000181081694018064245630000012876504685131387543_);fill:url(#SVGID_00000113332520284530147780000000177484112427934345_);" width="484.85" height="521.73"/>
</g>
<g>
	<defs>
		<path id="SVGID_00000044899626597231271770000008248263554567519672_" d="M492.37,185.73c-25.36,13.45-50.69,26.95-76.07,40.36
			c-2.13,1.12-2.52,2.21-1.65,4.45c3.69,9.54,7.23,19.15,8.96,29.3c0.66,3.87,0.55,4.08-3.41,4.08
			c-14.21,0.01-28.43,0.06-42.64-0.04c-2.55-0.02-4.17,0.8-5.73,2.85c-16.35,21.52-30.89,44.34-47.03,66.01
			c-0.81,1.09-1.8,2.41-1.13,3.81c0.53,1.11,1.6,1.02,2.62,0.92c0.31-0.03,0.61-0.06,0.9-0.06c11.11,0.13,22.22,0.07,33.34,0.01
			c17.8-0.1,35.61-0.2,53.4,0.49c4.73,0.18,4.74,0.08,4.74,4.81c0,43.02,0,86.04,0,129.05c0,4.38,0.13,4.51,4.54,4.51
			c30.91,0,61.82,0,92.73,0c3.84,0,4.09-0.26,4.14-4.02c0.24-19.46,0.1-38.93,0.47-58.4c0.46-24.24,0.19-48.48,0.22-72.72
			c0-1.95-0.21-3.78,2.76-3.73c8.18,0.14,16.37,0.08,24.55,0.02c12.78-0.1,25.56-0.19,38.34,0.47c4.64,0.24,4.64,0.3,4.65,4.93
			c0.15,43.01-0.44,86.03,0.52,129.03c0.09,4.17,0.24,4.42,4.05,4.42c30.81,0.01,61.63-0.01,92.44,0.04c2.21,0,3.71-0.67,4.96-2.53
			c4.97-7.43,10.05-14.79,15.1-22.17c41.95-61.34,84.18-122.49,125.32-184.38c0.57-0.86,1.85-1.75,1.22-2.81
			c-0.59-1-2.02-0.47-3.07-0.47c-7.54,0-15.09,0-22.63,0c-18.6,0.01-37.19,0.02-55.79-0.13c-4.02-0.03-6.28,1.35-8.47,4.51
			c-13.18,19.04-25.63,38.56-38.63,57.71c-4.18,6.15-8.51,12.2-13.01,18.64c-0.87-1.57-0.6-2.68-0.6-3.73
			c-0.02-23.54,0-47.09-0.02-70.64c0-6.51,0.5-6.44-4.67-6.38c-0.52,0.01-1.11,0.01-1.75,0.01c-38.17-0.01-76.33-0.01-114.5-0.01
			c-15.9,0-31.81,0-47.71,0c-4.39,0-4.32-0.02-4.98-4.29c-1.54-9.91-3.36-19.77-5.7-29.53c-3.56-14.84-8.46-29.19-15.44-42.78
			c-1.02-1.98-1.49-2.82-2.38-2.82C494.7,184.5,493.83,184.95,492.37,185.73"/>
	</defs>
	<clipPath id="SVGID_00000143577127691385890510000008487063423639435137_">
		<use xlink:href="#SVGID_00000044899626597231271770000008248263554567519672_"  style="overflow:visible;"/>
	</clipPath>
	
		<linearGradient id="SVGID_00000094583673437110841130000016353068265528524428_" gradientUnits="userSpaceOnUse" x1="-88.6529" y1="813.132" x2="-86.2187" y2="813.132" gradientTransform="matrix(210.0898 0 0 -210.0898 18948.0723 171161.1719)">
		<stop  offset="0" style="stop-color:#EBC263"/>
		<stop  offset="9.818180e-03" style="stop-color:#EBC263"/>
		<stop  offset="0.7085" style="stop-color:#C48D12"/>
		<stop  offset="1" style="stop-color:#C48D12"/>
	</linearGradient>
	
		<rect x="323" y="184.5" style="clip-path:url(#SVGID_00000143577127691385890510000008487063423639435137_);fill:url(#SVGID_00000094583673437110841130000016353068265528524428_);" width="512.32" height="291.81"/>
</g>
</svg>
