<?xml version="1.0" encoding="utf-8"?>
<!-- Generator: Adobe Illustrator 22.1.0, SVG Export Plug-In . SVG Version: 6.00 Build 0)  -->
<svg version="1.1" id="Слой_1" xmlns="http://www.w3.org/2000/svg" xmlns:xlink="http://www.w3.org/1999/xlink" x="0px" y="0px"
	 viewBox="0 0 916.1 333.4" style="enable-background:new 0 0 916.1 333.4;" xml:space="preserve">
<style type="text/css">
	.st0{fill:#FF344A;}
	.st1{display:none;fill:#FF344A;}
</style>
<g>
	<g>
		<path class="st0" d="M656,265c-17.4,22.9-34.5,45.4-52,68.4c-18.9-14.6-37.6-29-56.5-43.6c-78.2,0-156.4,0-235.1,0
			c0-96.7,0-193,0-289.7c95.6,0,191.1,0,287.2,0c0,73.8,0,147.5,0,221.2C618.5,236,637.1,250.5,656,265z"/>
		<path class="st0" d="M916,143.7c-59.5,0-119.1,0-178.6,0c-1.7,13.3,8.4,28.6,22.3,34.6c16.4,7.1,32.1,1.9,46.6-15.3
			c36.2,0,72.3,0,108.4,0c-5.8,61.8-63,126.3-144.6,124.3c-78.6-1.9-145.2-69.8-138.1-155.7C638.8,49.2,711.6-8.7,790.8,1.1
			C875.4,11.6,918.5,86.5,916,143.7z"/>
		<path class="st1" d="M256.8,99.8c10.6,26.1,14.6,53.3,12.2,82.2c-3.5-3.5-7-7-10.9-10.9c-9.3,8.1-18.3,15.9-27.7,24.2
			c-9.7-8.1-19.1-15.9-28.9-24.1c-9.4,8.3-18.4,16.2-27.9,24.6c-9.4-8.4-18.3-16.3-27.7-24.6c-9.6,8-19.1,15.8-29,24.1
			c-9.3-7.9-18.4-15.7-28.1-23.9c-8.9,7.9-17.7,15.7-27.1,24c-9.7-8.2-19.1-16.3-29.3-25c-3.5,3.6-6.9,7.2-10.4,10.8
			c-0.4-0.2-0.7-0.4-1.1-0.6c-1.4-27.5,2.7-54.1,13.3-81.2c9.1,8.1,17.2,15.3,25.9,23c9.3-8,18.4-15.9,28.1-24.3
			c9.3,8,18.5,15.8,28.3,24.1c9.3-8.3,18.4-16.3,27.7-24.5c9.7,8.7,18.6,16.6,28,24.9c9.6-8.2,18.8-16,28.6-24.4
			c9,8.1,18,16.1,27.5,24.7c9.1-8.1,17.8-15.8,26.5-23.6C255.6,99.5,256.2,99.6,256.8,99.8z"/>
		<path class="st1" d="M32.8,194.4c9.2,8.2,18.3,16.2,27.9,24.8c9.1-8.1,18.1-16.1,27.9-24.8c9.5,8.2,18.8,16.1,28.5,24.5
			c9-7.8,17.9-15.4,27.1-23.4c9.6,8.2,18.7,15.9,27.9,23.9c9.6-8.2,18.8-16.1,28.7-24.5c9.1,8.1,17.9,16.1,27.3,24.4
			c9.5-8.4,18.7-16.6,28.6-25.3c3.6,3.4,6.9,6.5,10.2,9.7c-1.3,10.5-4.4,20.2-8.5,29.5c-13.9,31.3-38.2,50.4-71,58.2
			c-32.5,7.8-65.1,7.4-96.9-4c-33.6-12.1-54.1-36.3-63.8-70.2c-0.5-1.6-0.8-3.2-1.2-4.8C23.4,204.7,25.3,199.7,32.8,194.4z"/>
		<path class="st1" d="M229.1,98.2c-9.6-8.1-18.5-15.6-27.9-23.5c-9.3,7.9-18.4,15.5-28,23.6c-9.1-7.9-17.9-15.4-27.1-23.4
			c-9.5,8-18.7,15.8-28.6,24.2c-9.4-8.3-18.7-16.5-28.4-25.1C79.9,82.2,71,90.2,61.5,98.6c-6.5-5.6-12.8-10.9-19-16.2
			c0.6-1.7,0.7-2.9,1.3-3.9c16.1-30,37.8-54.5,67.9-71.3c24-13.4,47.2-12,70.5,1.6c28.4,16.5,48.8,40.4,64.4,68.7
			c0.5,1,0.8,2.2,1.4,4.1C242,86.9,235.9,92.3,229.1,98.2z"/>
	</g>
	<ellipse class="st0" cx="142.2" cy="143.7" rx="142.2" ry="143.6"/>
</g>
</svg>
