<?xml version="1.0" encoding="UTF-8"?>
<!DOCTYPE svg PUBLIC "-//W3C//DTD SVG 1.1//EN" "http://www.w3.org/Graphics/SVG/1.1/DTD/svg11.dtd">
<svg xmlns="http://www.w3.org/2000/svg" version="1.1" width="2228px" height="1115px" style="shape-rendering:geometricPrecision; text-rendering:geometricPrecision; image-rendering:optimizeQuality; fill-rule:evenodd; clip-rule:evenodd" xmlns:xlink="http://www.w3.org/1999/xlink">
<g><path style="opacity:1" fill="#c8e83f" d="M 72.5,39.5 C 68.9915,40.7828 65.6582,42.4495 62.5,44.5C 54.4102,49.06 46.7435,54.3933 39.5,60.5C 47.5854,49.1101 58.5854,42.1101 72.5,39.5 Z"/></g>
<g><path style="opacity:1" fill="#c0f121" d="M 622.5,368.5 C 638.877,378.348 654.877,388.682 670.5,399.5C 669.85,399.804 669.183,400.137 668.5,400.5C 664.765,397.777 660.765,395.444 656.5,393.5C 652.427,389.095 647.76,385.428 642.5,382.5C 641.685,384.276 640.518,384.943 639,384.5C 638.517,385.448 638.351,386.448 638.5,387.5C 639.873,387.343 641.207,387.51 642.5,388C 644.196,390.505 646.53,392.005 649.5,392.5C 651.455,394.668 652.121,397.002 651.5,399.5C 652.646,400.719 653.646,402.052 654.5,403.5C 655.842,405.005 657.508,405.672 659.5,405.5C 659.5,406.833 659.5,408.167 659.5,409.5C 660.833,409.5 662.167,409.5 663.5,409.5C 663.5,410.833 663.5,412.167 663.5,413.5C 666.579,413.26 669.579,413.593 672.5,414.5C 674.5,416.833 676.5,419.167 678.5,421.5C 679.429,422.689 679.762,424.022 679.5,425.5C 680.833,425.5 682.167,425.5 683.5,425.5C 683.5,426.833 683.5,428.167 683.5,429.5C 687.514,429.334 691.514,429.501 695.5,430C 698.024,431.883 699.358,434.383 699.5,437.5C 700.833,437.5 702.167,437.5 703.5,437.5C 703.33,438.822 703.663,439.989 704.5,441C 707.833,441.333 711.167,441.667 714.5,442C 716.622,446.969 720.289,449.802 725.5,450.5C 725.38,453.205 726.38,453.872 728.5,452.5C 732.13,452.932 735.464,454.099 738.5,456C 739.406,457.699 739.739,459.533 739.5,461.5C 740.833,461.5 742.167,461.5 743.5,461.5C 743.33,462.822 743.663,463.989 744.5,465C 746.81,465.497 749.143,465.663 751.5,465.5C 751.5,466.833 751.5,468.167 751.5,469.5C 752.833,469.5 754.167,469.5 755.5,469.5C 755.5,470.833 755.5,472.167 755.5,473.5C 758.167,473.5 760.833,473.5 763.5,473.5C 763.5,474.833 763.5,476.167 763.5,477.5C 766.86,477.616 770.193,477.949 773.5,478.5C 774.449,480.737 775.116,483.071 775.5,485.5C 778.167,485.5 780.833,485.5 783.5,485.5C 783.5,486.833 783.5,488.167 783.5,489.5C 785.857,489.337 788.19,489.503 790.5,490C 791.337,491.011 791.67,492.178 791.5,493.5C 795.155,493.472 797.822,495.139 799.5,498.5C 801.99,500.083 804.657,501.083 807.5,501.5C 807.5,502.833 807.5,504.167 807.5,505.5C 809.5,505.5 811.5,505.5 813.5,505.5C 813.5,506.833 813.5,508.167 813.5,509.5C 814.833,509.5 816.167,509.5 817.5,509.5C 817.596,514.11 818.596,514.444 820.5,510.5C 824.142,511.767 826.476,514.1 827.5,517.5C 828.833,517.5 830.167,517.5 831.5,517.5C 831.33,518.822 831.663,519.989 832.5,521C 835.438,522.834 838.438,524.334 841.5,525.5C 841.881,528.493 843.047,531.159 845,533.5C 845.171,538.864 845.671,544.198 846.5,549.5C 847.72,549.887 848.387,550.72 848.5,552C 847.753,556.461 847.253,560.961 847,565.5C 844.886,568.07 842.553,570.403 840,572.5C 840.334,577.868 838.334,582.534 834,586.5C 832.506,585.253 831.006,585.253 829.5,586.5C 826.593,589.117 823.927,591.951 821.5,595C 808.38,602.304 795.88,610.471 784,619.5C 783.692,618.692 783.192,618.025 782.5,617.5C 780.504,622.343 776.837,625.009 771.5,625.5C 771.517,629.377 770.351,630.043 768,627.5C 766.676,630.244 764.509,631.577 761.5,631.5C 761.677,633.981 760.677,635.814 758.5,637C 753.742,638.754 749.075,640.754 744.5,643C 743.911,645.514 742.578,647.514 740.5,649C 744.003,648.707 746.669,646.874 748.5,643.5C 750.444,642.811 752.444,642.311 754.5,642C 759.339,639.059 763.673,635.392 767.5,631C 772.994,630.174 777.828,628.007 782,624.5C 783.73,626.076 785.563,627.41 787.5,628.5C 763.875,644.319 739.875,659.652 715.5,674.5C 714.878,669.968 716.878,667.802 721.5,668C 720.5,667.667 719.5,667.333 718.5,667C 723.226,665.647 727.893,663.98 732.5,662C 732.043,661.586 731.709,661.086 731.5,660.5C 733.001,659.248 734.668,658.248 736.5,657.5C 737.429,656.311 737.762,654.978 737.5,653.5C 734.009,653.909 730.675,654.909 727.5,656.5C 723.316,661.361 718.316,665.028 712.5,667.5C 707.944,672.399 702.277,675.066 695.5,675.5C 694.587,677.835 693.253,680.001 691.5,682C 686.638,684.371 681.638,686.371 676.5,688C 674.461,690.374 672.128,692.374 669.5,694C 664.269,697.074 658.936,699.907 653.5,702.5C 652.504,705.332 650.504,706.665 647.5,706.5C 647.753,708.827 647.086,710.827 645.5,712.5C 645.808,713.308 646.308,713.975 647,714.5C 648.113,713.289 649.28,713.289 650.5,714.5C 652.407,711.605 655.074,710.272 658.5,710.5C 645.773,719.22 632.773,727.554 619.5,735.5C 615.569,735.638 611.902,736.638 608.5,738.5C 605.802,738.429 603.802,737.763 602.5,736.5C 602.5,737.5 602.5,738.5 602.5,739.5C 599.525,739.713 596.858,740.713 594.5,742.5C 594.167,742.333 593.833,742.167 593.5,742C 597.95,738.245 602.95,735.245 608.5,733C 610.403,731.553 612.07,729.886 613.5,728C 612.692,727.692 612.025,727.192 611.5,726.5C 614.319,725.257 616.986,723.757 619.5,722C 604.848,720.838 604.848,720.005 619.5,719.5C 619.5,718.167 619.5,716.833 619.5,715.5C 623.524,714.962 627.524,714.295 631.5,713.5C 631.085,711.253 630.418,709.086 629.5,707C 630.562,705.159 631.562,703.326 632.5,701.5C 633.713,698.081 635.213,695.414 637,693.5C 637.167,686.333 637.333,679.167 637.5,672C 636.247,649.166 636.247,626.332 637.5,603.5C 637.21,587.119 636.543,570.785 635.5,554.5C 635.241,528.875 635.908,503.042 637.5,477C 637.543,454.249 637.376,431.416 637,408.5C 635.821,405.481 634.487,402.481 633,399.5C 632.51,400.793 632.343,402.127 632.5,403.5C 631.022,402.552 630.022,401.219 629.5,399.5C 603.005,398.502 576.339,398.169 549.5,398.5C 575.815,396.673 602.481,395.84 629.5,396C 628.257,394.846 627.257,393.512 626.5,392C 610.993,391.808 595.326,391.475 579.5,391C 583.541,390.827 587.541,390.327 591.5,389.5C 591.291,388.914 590.957,388.414 590.5,388C 585.913,387.201 581.413,387.368 577,388.5C 570.258,388.037 563.592,387.037 557,385.5C 551.651,388.592 546.151,391.259 540.5,393.5C 540.115,397.798 538.782,401.798 536.5,405.5C 535.096,426.855 535.262,448.189 537,469.5C 537.667,464.167 538.333,458.833 539,453.5C 540.153,470.849 541.319,488.182 542.5,505.5C 543.5,505.5 544.5,505.5 545.5,505.5C 545.169,484.327 545.503,463.327 546.5,442.5C 546.5,475.167 546.5,507.833 546.5,540.5C 544.784,540.371 543.117,540.038 541.5,539.5C 527.922,521.344 514.589,503.01 501.5,484.5C 507.585,485.497 508.585,483.664 504.5,479C 506.413,474.979 505.58,471.813 502,469.5C 500.409,467.073 499.575,464.407 499.5,461.5C 498.178,461.67 497.011,461.337 496,460.5C 495.503,458.19 495.337,455.857 495.5,453.5C 494.022,453.762 492.689,453.429 491.5,452.5C 490.724,450.644 489.391,449.311 487.5,448.5C 487.78,444.953 487.78,441.287 487.5,437.5C 484.833,437.5 482.167,437.5 479.5,437.5C 479.5,434.833 479.5,432.167 479.5,429.5C 478.167,429.5 476.833,429.5 475.5,429.5C 475.167,426.833 474.833,424.167 474.5,421.5C 470.036,420.702 467.703,418.036 467.5,413.5C 466.167,413.5 464.833,413.5 463.5,413.5C 463.5,411.5 463.5,409.5 463.5,407.5C 462.178,407.33 461.011,407.663 460,408.5C 456.266,405.433 453.266,401.766 451,397.5C 448.966,395.968 446.799,394.635 444.5,393.5C 443.571,392.311 443.238,390.978 443.5,389.5C 438.13,389.608 432.797,389.275 427.5,388.5C 427.5,387.5 427.5,386.5 427.5,385.5C 423.595,386.49 419.595,387.156 415.5,387.5C 409.021,386.632 402.521,385.966 396,385.5C 391.009,385.934 386.176,385.934 381.5,385.5C 379.608,386.473 377.608,387.14 375.5,387.5C 372.802,386.809 370.135,386.142 367.5,385.5C 367.5,384.167 367.5,382.833 367.5,381.5C 364.833,381.5 362.167,381.5 359.5,381.5C 359.5,384.167 359.5,386.833 359.5,389.5C 360.833,389.5 362.167,389.5 363.5,389.5C 363.38,394.805 362.714,399.972 361.5,405C 361.667,406.5 361.833,408 362,409.5C 362.667,405.5 363.333,405.5 364,409.5C 364.568,425.201 365.568,440.868 367,456.5C 368.224,439.868 368.891,423.201 369,406.5C 369.546,403.621 370.379,400.954 371.5,398.5C 371.5,400.167 371.5,401.833 371.5,403.5C 370.502,433.329 370.169,463.329 370.5,493.5C 369.504,493.414 368.671,493.748 368,494.5C 367.667,492.833 367.333,491.167 367,489.5C 363.427,484.819 360.593,479.653 358.5,474C 357.484,471.824 355.818,470.657 353.5,470.5C 346.543,459.36 338.21,449.193 328.5,440C 318.882,431.867 308.882,424.367 298.5,417.5C 302.202,417.914 305.536,419.248 308.5,421.5C 309.167,420.5 309.833,419.5 310.5,418.5C 312.768,419.719 314.601,421.385 316,423.5C 316.772,423.355 317.439,423.022 318,422.5C 320.795,424.293 323.295,426.46 325.5,429C 323.44,430.493 323.107,432.326 324.5,434.5C 328.611,435.901 332.278,437.734 335.5,440C 334.773,438.601 334.273,437.101 334,435.5C 331.205,433.707 328.705,431.54 326.5,429C 328.43,426.39 327.764,424.057 324.5,422C 317.519,417.506 310.185,413.506 302.5,410C 300.772,407.418 298.439,405.918 295.5,405.5C 295.67,404.178 295.337,403.011 294.5,402C 290.483,401.888 286.817,400.721 283.5,398.5C 279.555,397.509 275.555,397.176 271.5,397.5C 271.67,396.178 271.337,395.011 270.5,394C 266.833,393.667 263.167,393.333 259.5,393C 252.007,387.964 244.007,386.797 235.5,389.5C 235.5,388.167 235.5,386.833 235.5,385.5C 226.616,384.921 217.949,385.921 209.5,388.5C 208.167,387.833 206.833,387.167 205.5,386.5C 200.088,388.041 195.088,390.374 190.5,393.5C 188.956,393.21 187.623,392.544 186.5,391.5C 185.571,392.689 185.238,394.022 185.5,395.5C 181.635,395.676 177.968,396.676 174.5,398.5C 174.919,399.672 175.585,400.672 176.5,401.5C 178.5,400.833 180.5,400.167 182.5,399.5C 188.652,399.6 194.986,399.6 201.5,399.5C 201.5,399.833 201.5,400.167 201.5,400.5C 196.529,400.656 191.862,401.656 187.5,403.5C 183.778,404.017 180.112,404.85 176.5,406C 175.944,406.383 175.611,406.883 175.5,407.5C 165.645,409.923 156.311,413.757 147.5,419C 115.082,438.574 92.4155,466.074 79.5,501.5C 80.6699,496.836 81.5032,492.17 82,487.5C 80.2828,488.988 79.1161,490.821 78.5,493C 74.9391,492.133 72.1057,492.966 70,495.5C 69.9326,498.047 69.0993,500.214 67.5,502C 68.4426,504.8 68.2759,507.634 67,510.5C 65.0196,514.732 63.1863,519.065 61.5,523.5C 63.8266,526.824 63.9932,530.158 62,533.5C 61.8333,540 61.6667,546.5 61.5,553C 61.5382,560.071 62.2049,566.904 63.5,573.5C 58.3336,573.75 53.0003,573.75 47.5,573.5C 47.5,570.833 47.5,568.167 47.5,565.5C 46.1667,565.5 44.8333,565.5 43.5,565.5C 43.5,570.833 43.5,576.167 43.5,581.5C 44.8333,581.5 46.1667,581.5 47.5,581.5C 47.5,586.833 47.5,592.167 47.5,597.5C 48.8333,597.5 50.1667,597.5 51.5,597.5C 51.5,602.833 51.5,608.167 51.5,613.5C 52.8333,613.5 54.1667,613.5 55.5,613.5C 55.5,645.5 55.5,677.5 55.5,709.5C 52.8333,709.5 50.1667,709.5 47.5,709.5C 47.5,706.833 47.5,704.167 47.5,701.5C 46.1667,701.5 44.8333,701.5 43.5,701.5C 42.1718,696.544 41.5051,691.211 41.5,685.5C 42.2996,673.507 42.9663,661.507 43.5,649.5C 41.7138,622.029 40.7138,594.529 40.5,567C 41.2235,474.518 42.2235,382.018 43.5,289.5C 43.253,240.16 42.5864,190.827 41.5,141.5C 41.6674,121.467 42.5007,101.467 44,81.5C 45.6202,74.5252 49.6202,69.1919 56,65.5C 56.4828,64.552 56.6495,63.552 56.5,62.5C 62.8679,62.7433 65.2013,59.7433 63.5,53.5C 67.8333,53.5 72.1667,53.5 76.5,53.5C 76.5,52.5 76.5,51.5 76.5,50.5C 83.0091,50.6042 89.3424,51.6042 95.5,53.5C 95.33,54.8221 95.6634,55.9887 96.5,57C 99.8333,57.3333 103.167,57.6667 106.5,58C 109.428,60.1732 112.761,61.6732 116.5,62.5C 118.341,64.5117 119.341,66.845 119.5,69.5C 122.167,69.5 124.833,69.5 127.5,69.5C 127.5,70.8333 127.5,72.1667 127.5,73.5C 131.346,75.1191 135.346,76.6191 139.5,78C 140.618,79.0736 141.618,80.2402 142.5,81.5C 143.167,81.1667 143.833,80.8333 144.5,80.5C 145.842,82.0049 147.508,82.6715 149.5,82.5C 149.5,83.5 149.5,84.5 149.5,85.5C 157.532,85.5351 160.866,89.5351 159.5,97.5C 163.5,97.5 167.5,97.5 171.5,97.5C 171.5,98.5 171.5,99.5 171.5,100.5C 172.822,100.33 173.989,100.663 175,101.5C 175.423,100.044 176.256,99.5439 177.5,100C 180.626,102.45 182.959,105.45 184.5,109C 189.209,108.735 193.209,110.235 196.5,113.5C 197.086,113.291 197.586,112.957 198,112.5C 199.009,114.025 199.509,115.692 199.5,117.5C 200.833,117.5 202.167,117.5 203.5,117.5C 203.5,118.833 203.5,120.167 203.5,121.5C 208.291,123.555 213.291,125.055 218.5,126C 219.435,128.381 219.768,130.881 219.5,133.5C 220.833,133.5 222.167,133.5 223.5,133.5C 223.5,134.833 223.5,136.167 223.5,137.5C 227.664,137.874 231.664,137.874 235.5,137.5C 235.5,138.833 235.5,140.167 235.5,141.5C 237.939,142.053 240.273,142.053 242.5,141.5C 243.48,144.086 243.813,146.753 243.5,149.5C 246.167,149.5 248.833,149.5 251.5,149.5C 251.5,150.833 251.5,152.167 251.5,153.5C 255.613,153.889 259.279,155.389 262.5,158C 263.435,160.381 263.768,162.881 263.5,165.5C 267.5,165.5 271.5,165.5 275.5,165.5C 275.5,166.833 275.5,168.167 275.5,169.5C 278.167,169.5 280.833,169.5 283.5,169.5C 283.5,170.833 283.5,172.167 283.5,173.5C 284.833,173.5 286.167,173.5 287.5,173.5C 287.5,176.167 287.5,178.833 287.5,181.5C 291.015,180.957 294.348,179.957 297.5,178.5C 297.5,179.5 297.5,180.5 297.5,181.5C 302.518,181.749 307.185,183.082 311.5,185.5C 311.5,186.833 311.5,188.167 311.5,189.5C 313.5,189.5 315.5,189.5 317.5,189.5C 318.255,192.512 319.588,195.178 321.5,197.5C 323.5,197.5 325.5,197.5 327.5,197.5C 327.5,198.833 327.5,200.167 327.5,201.5C 333.554,200.53 338.554,202.363 342.5,207C 345.352,207.269 348.018,208.103 350.5,209.5C 351.214,212.027 351.88,214.527 352.5,217C 354.81,217.497 357.143,217.663 359.5,217.5C 359.5,218.833 359.5,220.167 359.5,221.5C 366.644,219.725 370.644,222.392 371.5,229.5C 375.5,230.167 379.5,230.833 383.5,231.5C 383.643,235.973 385.977,237.973 390.5,237.5C 390.384,240.91 392.05,242.244 395.5,241.5C 395.5,242.833 395.5,244.167 395.5,245.5C 398.397,245.788 401.23,246.455 404,247.5C 405.436,247.441 406.769,247.108 408,246.5C 408.94,248.821 410.44,250.988 412.5,253C 414.52,254.217 416.52,254.383 418.5,253.5C 419.48,256.086 419.813,258.753 419.5,261.5C 420.833,261.5 422.167,261.5 423.5,261.5C 423.5,262.833 423.5,264.167 423.5,265.5C 426.167,265.5 428.833,265.5 431.5,265.5C 431.5,266.833 431.5,268.167 431.5,269.5C 432.833,269.5 434.167,269.5 435.5,269.5C 435.5,270.833 435.5,272.167 435.5,273.5C 436.833,273.5 438.167,273.5 439.5,273.5C 439.5,272.167 439.5,270.833 439.5,269.5C 440.833,269.5 442.167,269.5 443.5,269.5C 443.5,270.833 443.5,272.167 443.5,273.5C 444.833,273.5 446.167,273.5 447.5,273.5C 447.5,276.167 447.5,278.833 447.5,281.5C 448.833,281.5 450.167,281.5 451.5,281.5C 451.5,282.833 451.5,284.167 451.5,285.5C 454.167,285.5 456.833,285.5 459.5,285.5C 459.5,286.833 459.5,288.167 459.5,289.5C 460.833,289.5 462.167,289.5 463.5,289.5C 463.5,290.833 463.5,292.167 463.5,293.5C 468.833,293.5 474.167,293.5 479.5,293.5C 479.5,294.833 479.5,296.167 479.5,297.5C 481.199,297.34 482.866,297.506 484.5,298C 488.559,300.408 492.559,302.908 496.5,305.5C 498.071,306.309 499.738,306.643 501.5,306.5C 502.449,308.737 503.116,311.071 503.5,313.5C 510.257,312.282 514.257,314.949 515.5,321.5C 517.857,321.337 520.19,321.503 522.5,322C 523.337,323.011 523.67,324.178 523.5,325.5C 524.833,325.5 526.167,325.5 527.5,325.5C 527.5,326.833 527.5,328.167 527.5,329.5C 530.167,329.5 532.833,329.5 535.5,329.5C 535.5,330.833 535.5,332.167 535.5,333.5C 537.857,333.337 540.19,333.503 542.5,334C 543.337,335.011 543.67,336.178 543.5,337.5C 545.5,337.5 547.5,337.5 549.5,337.5C 549.5,338.833 549.5,340.167 549.5,341.5C 554.041,341.052 558.374,341.719 562.5,343.5C 563.086,343.291 563.586,342.957 564,342.5C 566.178,343.893 567.178,345.56 567,347.5C 568.488,346.804 569.988,347.138 571.5,348.5C 570.5,349.167 569.5,349.833 568.5,350.5C 575,348.499 579.833,350.499 583,356.5C 583.494,358.134 583.66,359.801 583.5,361.5C 587.158,360.68 589.491,362.013 590.5,365.5C 591.167,365.167 591.833,364.833 592.5,364.5C 594.22,365.955 596.22,366.788 598.5,367C 597.098,368.342 597.431,369.176 599.5,369.5C 601.453,370.156 603.453,370.489 605.5,370.5C 605.5,371.5 605.5,372.5 605.5,373.5C 608.833,373.5 612.167,373.5 615.5,373.5C 615.5,374.833 615.5,376.167 615.5,377.5C 622.985,376.752 629.819,378.752 636,383.5C 636.781,382.056 636.614,380.723 635.5,379.5C 633.018,377.656 630.351,376.323 627.5,375.5C 627.5,374.5 627.5,373.5 627.5,372.5C 624.931,372.262 623.265,370.929 622.5,368.5 Z"/></g>
<g><path style="opacity:1" fill="#cbfd1e" d="M 39.5,1042.5 C 39.5,1042.17 39.5,1041.83 39.5,1041.5C 35.0572,1034.17 32.3905,1026.17 31.5,1017.5C 31.3333,703.833 31.5,390.166 32,76.5C 34.8039,71.2296 37.3039,65.8963 39.5,60.5C 46.7435,54.3933 54.4102,49.06 62.5,44.5C 64.2624,44.6427 65.9291,44.3094 67.5,43.5C 70.1667,44.5 70.1667,45.5 67.5,46.5C 64.8333,45.1667 64.1667,45.8333 65.5,48.5C 63.9223,49.2978 62.2556,49.7978 60.5,50C 59.7734,51.3988 59.2734,52.8988 59,54.5C 52.5877,59.5789 46.921,65.2456 42,71.5C 39.14,81.1158 37.9734,90.9492 38.5,101C 37.4729,209.159 37.4729,317.326 38.5,425.5C 36.9445,517.495 35.9445,609.495 35.5,701.5C 36.2512,725.826 36.7512,750.159 37,774.5C 37.3333,774.167 37.6667,773.833 38,773.5C 38.1667,776.167 38.3333,778.833 38.5,781.5C 37.5299,837.298 37.5299,893.131 38.5,949C 38.0144,958.513 37.3477,968.013 36.5,977.5C 37.0256,990.166 37.5256,1002.83 38,1015.5C 39.6289,1023.3 42.4622,1030.63 46.5,1037.5C 48.2873,1038.32 49.9539,1039.32 51.5,1040.5C 49.1724,1041.82 46.8391,1043.16 44.5,1044.5C 42.9246,1043.54 41.258,1042.88 39.5,1042.5 Z"/></g>
<g><path style="opacity:1" fill="#c3f61f" d="M 295.5,160.5 C 297.224,162.914 298.558,165.58 299.5,168.5C 301.199,168.34 302.866,168.506 304.5,169C 311.478,172.825 318.145,177.158 324.5,182C 326.518,182.505 328.518,183.005 330.5,183.5C 384.016,216.42 437.016,250.087 489.5,284.5C 490.25,287.548 492.25,289.215 495.5,289.5C 498.5,292.333 501.5,295.167 504.5,298C 513.737,301.577 522.237,306.411 530,312.5C 530.671,311.748 531.504,311.414 532.5,311.5C 562.508,330.503 592.508,349.503 622.5,368.5C 623.265,370.929 624.931,372.262 627.5,372.5C 627.5,373.5 627.5,374.5 627.5,375.5C 630.351,376.323 633.018,377.656 635.5,379.5C 636.614,380.723 636.781,382.056 636,383.5C 629.819,378.752 622.985,376.752 615.5,377.5C 615.5,376.167 615.5,374.833 615.5,373.5C 612.167,373.5 608.833,373.5 605.5,373.5C 605.5,372.5 605.5,371.5 605.5,370.5C 603.453,370.489 601.453,370.156 599.5,369.5C 597.431,369.176 597.098,368.342 598.5,367C 596.22,366.788 594.22,365.955 592.5,364.5C 591.833,364.833 591.167,365.167 590.5,365.5C 589.491,362.013 587.158,360.68 583.5,361.5C 583.66,359.801 583.494,358.134 583,356.5C 579.833,350.499 575,348.499 568.5,350.5C 569.5,349.833 570.5,349.167 571.5,348.5C 569.988,347.138 568.488,346.804 567,347.5C 567.178,345.56 566.178,343.893 564,342.5C 563.586,342.957 563.086,343.291 562.5,343.5C 558.374,341.719 554.041,341.052 549.5,341.5C 549.5,340.167 549.5,338.833 549.5,337.5C 547.5,337.5 545.5,337.5 543.5,337.5C 543.67,336.178 543.337,335.011 542.5,334C 540.19,333.503 537.857,333.337 535.5,333.5C 535.5,332.167 535.5,330.833 535.5,329.5C 532.833,329.5 530.167,329.5 527.5,329.5C 527.5,328.167 527.5,326.833 527.5,325.5C 526.167,325.5 524.833,325.5 523.5,325.5C 523.67,324.178 523.337,323.011 522.5,322C 520.19,321.503 517.857,321.337 515.5,321.5C 514.257,314.949 510.257,312.282 503.5,313.5C 503.116,311.071 502.449,308.737 501.5,306.5C 499.738,306.643 498.071,306.309 496.5,305.5C 492.559,302.908 488.559,300.408 484.5,298C 482.866,297.506 481.199,297.34 479.5,297.5C 479.5,296.167 479.5,294.833 479.5,293.5C 474.167,293.5 468.833,293.5 463.5,293.5C 463.5,292.167 463.5,290.833 463.5,289.5C 462.167,289.5 460.833,289.5 459.5,289.5C 459.5,288.167 459.5,286.833 459.5,285.5C 456.833,285.5 454.167,285.5 451.5,285.5C 451.5,284.167 451.5,282.833 451.5,281.5C 450.167,281.5 448.833,281.5 447.5,281.5C 447.5,278.833 447.5,276.167 447.5,273.5C 446.167,273.5 444.833,273.5 443.5,273.5C 443.5,272.167 443.5,270.833 443.5,269.5C 442.167,269.5 440.833,269.5 439.5,269.5C 439.5,270.833 439.5,272.167 439.5,273.5C 438.167,273.5 436.833,273.5 435.5,273.5C 435.5,272.167 435.5,270.833 435.5,269.5C 434.167,269.5 432.833,269.5 431.5,269.5C 431.5,268.167 431.5,266.833 431.5,265.5C 428.833,265.5 426.167,265.5 423.5,265.5C 423.5,264.167 423.5,262.833 423.5,261.5C 422.167,261.5 420.833,261.5 419.5,261.5C 419.813,258.753 419.48,256.086 418.5,253.5C 416.52,254.383 414.52,254.217 412.5,253C 410.44,250.988 408.94,248.821 408,246.5C 406.769,247.108 405.436,247.441 404,247.5C 401.23,246.455 398.397,245.788 395.5,245.5C 395.5,244.167 395.5,242.833 395.5,241.5C 392.05,242.244 390.384,240.91 390.5,237.5C 385.977,237.973 383.643,235.973 383.5,231.5C 379.5,230.833 375.5,230.167 371.5,229.5C 370.644,222.392 366.644,219.725 359.5,221.5C 359.5,220.167 359.5,218.833 359.5,217.5C 357.143,217.663 354.81,217.497 352.5,217C 351.88,214.527 351.214,212.027 350.5,209.5C 348.018,208.103 345.352,207.269 342.5,207C 338.554,202.363 333.554,200.53 327.5,201.5C 327.5,200.167 327.5,198.833 327.5,197.5C 325.5,197.5 323.5,197.5 321.5,197.5C 319.588,195.178 318.255,192.512 317.5,189.5C 315.5,189.5 313.5,189.5 311.5,189.5C 311.5,188.167 311.5,186.833 311.5,185.5C 307.185,183.082 302.518,181.749 297.5,181.5C 297.5,180.5 297.5,179.5 297.5,178.5C 294.348,179.957 291.015,180.957 287.5,181.5C 287.5,178.833 287.5,176.167 287.5,173.5C 286.167,173.5 284.833,173.5 283.5,173.5C 283.5,172.167 283.5,170.833 283.5,169.5C 280.833,169.5 278.167,169.5 275.5,169.5C 275.5,168.167 275.5,166.833 275.5,165.5C 271.5,165.5 267.5,165.5 263.5,165.5C 263.768,162.881 263.435,160.381 262.5,158C 259.279,155.389 255.613,153.889 251.5,153.5C 251.5,152.167 251.5,150.833 251.5,149.5C 248.833,149.5 246.167,149.5 243.5,149.5C 243.813,146.753 243.48,144.086 242.5,141.5C 240.273,142.053 237.939,142.053 235.5,141.5C 235.5,140.167 235.5,138.833 235.5,137.5C 231.664,137.874 227.664,137.874 223.5,137.5C 223.5,136.167 223.5,134.833 223.5,133.5C 222.167,133.5 220.833,133.5 219.5,133.5C 219.768,130.881 219.435,128.381 218.5,126C 213.291,125.055 208.291,123.555 203.5,121.5C 203.5,120.167 203.5,118.833 203.5,117.5C 202.167,117.5 200.833,117.5 199.5,117.5C 199.509,115.692 199.009,114.025 198,112.5C 197.586,112.957 197.086,113.291 196.5,113.5C 193.209,110.235 189.209,108.735 184.5,109C 182.959,105.45 180.626,102.45 177.5,100C 176.256,99.5439 175.423,100.044 175,101.5C 173.989,100.663 172.822,100.33 171.5,100.5C 171.5,99.5 171.5,98.5 171.5,97.5C 167.5,97.5 163.5,97.5 159.5,97.5C 160.866,89.5351 157.532,85.5351 149.5,85.5C 149.5,84.5 149.5,83.5 149.5,82.5C 147.508,82.6715 145.842,82.0049 144.5,80.5C 143.833,80.8333 143.167,81.1667 142.5,81.5C 141.618,80.2402 140.618,79.0736 139.5,78C 135.346,76.6191 131.346,75.1191 127.5,73.5C 127.5,72.1667 127.5,70.8333 127.5,69.5C 124.833,69.5 122.167,69.5 119.5,69.5C 119.341,66.845 118.341,64.5117 116.5,62.5C 112.761,61.6732 109.428,60.1732 106.5,58C 103.167,57.6667 99.8333,57.3333 96.5,57C 95.6634,55.9887 95.33,54.8221 95.5,53.5C 89.3424,51.6042 83.0091,50.6042 76.5,50.5C 76.5,51.5 76.5,52.5 76.5,53.5C 72.1667,53.5 67.8333,53.5 63.5,53.5C 65.2013,59.7433 62.8679,62.7433 56.5,62.5C 56.6495,63.552 56.4828,64.552 56,65.5C 49.6202,69.1919 45.6202,74.5252 44,81.5C 42.5007,101.467 41.6674,121.467 41.5,141.5C 42.5864,190.827 43.253,240.16 43.5,289.5C 42.2235,382.018 41.2235,474.518 40.5,567C 40.7138,594.529 41.7138,622.029 43.5,649.5C 42.9663,661.507 42.2996,673.507 41.5,685.5C 41.5051,691.211 42.1718,696.544 43.5,701.5C 43.5,773.5 43.5,845.5 43.5,917.5C 44.8333,917.5 46.1667,917.5 47.5,917.5C 48.0168,944.226 47.3501,970.893 45.5,997.5C 44.1667,997.5 42.8333,997.5 41.5,997.5C 41.3338,1003.51 41.5005,1009.51 42,1015.5C 44.9973,1019.74 46.8307,1024.4 47.5,1029.5C 48.8333,1029.5 50.1667,1029.5 51.5,1029.5C 51.5,1030.83 51.5,1032.17 51.5,1033.5C 52.8333,1033.5 54.1667,1033.5 55.5,1033.5C 55.5,1034.83 55.5,1036.17 55.5,1037.5C 56.8333,1037.5 58.1667,1037.5 59.5,1037.5C 59.5,1038.83 59.5,1040.17 59.5,1041.5C 60.8333,1041.5 62.1667,1041.5 63.5,1041.5C 63.5,1043.5 63.5,1045.5 63.5,1047.5C 76.3217,1049.53 89.3217,1050.36 102.5,1050C 106.372,1046.89 110.706,1044.72 115.5,1043.5C 115.5,1044.5 115.5,1045.5 115.5,1046.5C 112.722,1046.02 110.722,1047.02 109.5,1049.5C 103.26,1052.58 96.7597,1054.91 90,1056.5C 80.5721,1055.55 71.4054,1054.05 62.5,1052C 64.5,1053.67 66.5,1055.33 68.5,1057C 67.1667,1057.67 67.1667,1058.33 68.5,1059C 71.0691,1059.9 73.4024,1061.07 75.5,1062.5C 71.4616,1062.04 67.4616,1061.38 63.5,1060.5C 53.7028,1056.93 45.7028,1050.93 39.5,1042.5C 41.258,1042.88 42.9246,1043.54 44.5,1044.5C 46.8391,1043.16 49.1724,1041.82 51.5,1040.5C 49.9539,1039.32 48.2873,1038.32 46.5,1037.5C 42.4622,1030.63 39.6289,1023.3 38,1015.5C 37.5256,1002.83 37.0256,990.166 36.5,977.5C 37.3477,968.013 38.0144,958.513 38.5,949C 37.5299,893.131 37.5299,837.298 38.5,781.5C 38.3333,778.833 38.1667,776.167 38,773.5C 37.6667,773.833 37.3333,774.167 37,774.5C 36.7512,750.159 36.2512,725.826 35.5,701.5C 35.9445,609.495 36.9445,517.495 38.5,425.5C 37.4729,317.326 37.4729,209.159 38.5,101C 37.9734,90.9492 39.14,81.1158 42,71.5C 46.921,65.2456 52.5877,59.5789 59,54.5C 59.2734,52.8988 59.7734,51.3988 60.5,50C 62.2556,49.7978 63.9223,49.2978 65.5,48.5C 64.1667,45.8333 64.8333,45.1667 67.5,46.5C 70.1667,45.5 70.1667,44.5 67.5,43.5C 65.9291,44.3094 64.2624,44.6427 62.5,44.5C 65.6582,42.4495 68.9915,40.7828 72.5,39.5C 85.4303,36.1309 98.097,37.2975 110.5,43C 172.231,82.1912 233.898,121.358 295.5,160.5 Z"/></g>
<g><path style="opacity:1" fill="#a9e326" d="M 295.5,160.5 C 307.717,167.434 319.384,175.101 330.5,183.5C 328.518,183.005 326.518,182.505 324.5,182C 318.145,177.158 311.478,172.825 304.5,169C 302.866,168.506 301.199,168.34 299.5,168.5C 298.558,165.58 297.224,162.914 295.5,160.5 Z"/></g>
<g><path style="opacity:1" fill="#abe924" d="M 489.5,284.5 C 504.105,293.112 518.438,302.112 532.5,311.5C 531.504,311.414 530.671,311.748 530,312.5C 522.237,306.411 513.737,301.577 504.5,298C 501.5,295.167 498.5,292.333 495.5,289.5C 492.25,289.215 490.25,287.548 489.5,284.5 Z"/></g>
<g><path style="opacity:1" fill="#000000" d="M 2149.5,310.5 C 2156.07,311.588 2156.07,312.588 2149.5,313.5C 2149.5,312.5 2149.5,311.5 2149.5,310.5 Z"/></g>
<g><path style="opacity:1" fill="#000000" d="M 2126.5,506.5 C 2118.04,541.361 2107.87,575.694 2096,609.5C 2094.18,616.726 2093.01,624.06 2092.5,631.5C 2092.55,642.767 2097.55,650.933 2107.5,656C 2117.62,656.087 2127.62,654.921 2137.5,652.5C 2139.72,652.305 2141.39,653.139 2142.5,655C 2143.56,658.789 2143.73,662.623 2143,666.5C 2139.64,683.652 2135.64,700.652 2131,717.5C 2128.91,720.994 2125.74,722.827 2121.5,723C 2112.89,724.427 2104.23,725.261 2095.5,725.5C 2072.84,724.054 2050.17,722.887 2027.5,722C 2013.41,718.247 2003.24,709.747 1997,696.5C 1995.26,691.946 1993.93,687.279 1993,682.5C 1991.95,664.428 1992.62,646.428 1995,628.5C 2006.25,585.66 2017.42,542.827 2028.5,500C 2022.16,499.595 2015.83,499.095 2009.5,498.5C 2007.29,498.604 2005.12,498.937 2003,499.5C 2000.15,498.186 2000.32,496.686 2003.5,495C 2006.17,494.667 2008.83,494.333 2011.5,494C 2010.32,491.842 2010.99,490.342 2013.5,489.5C 2015.83,490.167 2018.17,490.833 2020.5,491.5C 2026.4,488.96 2032.73,487.794 2039.5,488C 2039.96,487.586 2040.29,487.086 2040.5,486.5C 2025.17,485.671 2009.84,485.005 1994.5,484.5C 1997.64,477.835 2001.47,471.501 2006,465.5C 2014.74,450.018 2022.41,434.018 2029,417.5C 2037.77,416.846 2046.61,416.18 2055.5,415.5C 2060.18,398.466 2065.01,381.466 2070,364.5C 2071.33,361.166 2073.16,358.166 2075.5,355.5C 2098.92,345.968 2122.25,336.134 2145.5,326C 2154.32,322.339 2163.32,319.172 2172.5,316.5C 2173.74,316.556 2174.74,317.056 2175.5,318C 2165.1,349.867 2155.1,381.867 2145.5,414C 2147.41,414.448 2148.58,413.615 2149,411.5C 2150.54,404.87 2152.88,398.537 2156,392.5C 2157.22,393.774 2158.05,395.274 2158.5,397C 2156.4,401.793 2154.4,406.626 2152.5,411.5C 2153.17,411.833 2153.83,412.167 2154.5,412.5C 2156.5,411.833 2158.5,411.167 2160.5,410.5C 2162.21,410.703 2163.54,411.536 2164.5,413C 2158.08,415.583 2151.42,416.916 2144.5,417C 2144.04,417.414 2143.71,417.914 2143.5,418.5C 2165.15,418.61 2186.81,418.776 2208.5,419C 2209.17,419.667 2209.83,420.333 2210.5,421C 2204.71,444.255 2198.55,467.422 2192,490.5C 2170.33,491.833 2148.67,491.833 2127,490.5C 2121.36,510.764 2115.69,531.097 2110,551.5C 2108.88,554.442 2108.54,557.442 2109,560.5C 2113.96,542.123 2119.79,524.123 2126.5,506.5 Z"/></g>
<g><path style="opacity:1" fill="#c8f924" d="M 298.5,417.5 C 293.502,413.876 288.169,410.542 282.5,407.5C 276.886,406.175 271.219,405.175 265.5,404.5C 257.658,402.207 249.658,400.541 241.5,399.5C 240.737,398.732 239.737,398.232 238.5,398C 228.991,397.176 219.657,397.342 210.5,398.5C 207.57,399.299 204.57,399.632 201.5,399.5C 194.986,399.6 188.652,399.6 182.5,399.5C 180.5,400.167 178.5,400.833 176.5,401.5C 175.585,400.672 174.919,399.672 174.5,398.5C 177.968,396.676 181.635,395.676 185.5,395.5C 185.238,394.022 185.571,392.689 186.5,391.5C 187.623,392.544 188.956,393.21 190.5,393.5C 195.088,390.374 200.088,388.041 205.5,386.5C 206.833,387.167 208.167,387.833 209.5,388.5C 217.949,385.921 226.616,384.921 235.5,385.5C 235.5,386.833 235.5,388.167 235.5,389.5C 244.007,386.797 252.007,387.964 259.5,393C 263.167,393.333 266.833,393.667 270.5,394C 271.337,395.011 271.67,396.178 271.5,397.5C 275.555,397.176 279.555,397.509 283.5,398.5C 286.817,400.721 290.483,401.888 294.5,402C 295.337,403.011 295.67,404.178 295.5,405.5C 298.439,405.918 300.772,407.418 302.5,410C 310.185,413.506 317.519,417.506 324.5,422C 327.764,424.057 328.43,426.39 326.5,429C 328.705,431.54 331.205,433.707 334,435.5C 334.273,437.101 334.773,438.601 335.5,440C 332.278,437.734 328.611,435.901 324.5,434.5C 323.107,432.326 323.44,430.493 325.5,429C 323.295,426.46 320.795,424.293 318,422.5C 317.439,423.022 316.772,423.355 316,423.5C 314.601,421.385 312.768,419.719 310.5,418.5C 309.833,419.5 309.167,420.5 308.5,421.5C 305.536,419.248 302.202,417.914 298.5,417.5 Z"/></g>
<g><path style="opacity:1" fill="#000000" d="M 1006.5,396.5 C 1011.36,395.832 1015.7,396.832 1019.5,399.5C 1020.94,398.696 1022.44,398.029 1024,397.5C 1045.77,400.234 1066.93,405.4 1087.5,413C 1116.03,424.9 1133.03,446.067 1138.5,476.5C 1137.82,479.366 1136.48,481.866 1134.5,484C 1126.31,486.133 1117.98,487.466 1109.5,488C 1088.51,489.984 1067.51,491.818 1046.5,493.5C 1045.76,478.614 1038.43,468.78 1024.5,464C 1013.31,461.312 1001.97,460.312 990.5,461C 971.985,466.124 965.819,477.624 972,495.5C 974.205,498.04 976.705,500.207 979.5,502C 1002.15,507.661 1024.81,513.328 1047.5,519C 1060.97,522.823 1073.97,527.823 1086.5,534C 1098.91,541.746 1109.41,551.579 1118,563.5C 1129.91,589.169 1129.24,614.502 1116,639.5C 1095.45,675.038 1065.62,699.205 1026.5,712C 1025.17,712.667 1023.83,712.667 1022.5,712C 1024,710.748 1025.67,709.748 1027.5,709C 984.789,721.67 942.123,721.003 899.5,707C 878.667,698.167 863.833,683.333 855,662.5C 851.537,651.313 848.703,639.979 846.5,628.5C 847.025,627.808 847.692,627.308 848.5,627C 871.499,626.278 894.499,625.611 917.5,625C 924.327,624.963 930.994,623.963 937.5,622C 939.338,619.697 941.672,619.031 944.5,620C 945.12,622.473 945.786,624.973 946.5,627.5C 949.521,625.31 951.854,626.143 953.5,630C 950.113,631.936 949.613,634.436 952,637.5C 963.861,653.838 979.695,659.671 999.5,655C 1012.24,652.903 1022.4,646.737 1030,636.5C 1032.84,629.274 1033.17,621.941 1031,614.5C 1024.84,607.836 1017.34,603.336 1008.5,601C 986.928,596.607 965.595,591.274 944.5,585C 926.162,577.992 911.328,566.492 900,550.5C 887.94,523.872 886.273,496.538 895,468.5C 906.204,440.963 925.704,421.797 953.5,411C 961.945,407.112 970.612,403.778 979.5,401C 988.678,399.716 997.678,398.216 1006.5,396.5 Z"/></g>
<g><path style="opacity:1" fill="#aec452" d="M 210.5,398.5 C 219.657,397.342 228.991,397.176 238.5,398C 239.737,398.232 240.737,398.732 241.5,399.5C 240.167,399.5 238.833,399.5 237.5,399.5C 228.682,398.507 219.682,398.173 210.5,398.5 Z"/></g>
<g><path style="opacity:1" fill="#000000" d="M 1106.5,417.5 C 1100.85,415.012 1095.19,412.512 1089.5,410C 1077.49,406.331 1065.49,402.664 1053.5,399C 1054.6,397.977 1055.93,397.477 1057.5,397.5C 1071.42,399.813 1084.75,403.98 1097.5,410C 1101.27,411.611 1104.27,414.111 1106.5,417.5 Z"/></g>
<g><path style="opacity:1" fill="#000100" d="M 372.5,398.5 C 394.167,398.5 415.833,398.5 437.5,398.5C 440.115,400.379 442.281,402.712 444,405.5C 463.03,432.015 482.197,458.349 501.5,484.5C 514.589,503.01 527.922,521.344 541.5,539.5C 542.708,542.044 544.708,543.378 547.5,543.5C 547.333,496.832 547.5,450.165 548,403.5C 548.608,401.846 549.108,400.179 549.5,398.5C 576.339,398.169 603.005,398.502 629.5,399.5C 630.164,501.172 629.498,602.505 627.5,703.5C 605.167,703.5 582.833,703.5 560.5,703.5C 559.167,702.167 557.833,700.833 556.5,699.5C 547.23,685.292 537.23,671.626 526.5,658.5C 524.656,654.808 522.323,651.475 519.5,648.5C 518.876,646.246 517.543,644.579 515.5,643.5C 511.934,636.936 507.601,630.936 502.5,625.5C 501.277,622.726 499.777,620.059 498,617.5C 484.39,598.587 470.556,579.921 456.5,561.5C 454.262,556.929 451.262,552.929 447.5,549.5C 446.745,547.534 445.579,547.2 444,548.5C 443.787,600.176 443.287,651.843 442.5,703.5C 419.167,703.5 395.833,703.5 372.5,703.5C 372.5,702.167 372.5,700.833 372.5,699.5C 372.833,663.161 372.5,626.827 371.5,590.5C 370.893,590.624 370.56,590.957 370.5,591.5C 369.629,594.003 368.963,596.67 368.5,599.5C 367.463,600.93 366.796,602.597 366.5,604.5C 362.481,613.542 358.147,622.542 353.5,631.5C 343.336,647.669 330.669,661.669 315.5,673.5C 308.66,678.087 301.66,682.42 294.5,686.5C 285.39,690.721 276.056,694.388 266.5,697.5C 262.884,697.899 259.55,698.899 256.5,700.5C 254.283,701.369 251.95,701.702 249.5,701.5C 247.102,701.259 245.102,701.926 243.5,703.5C 231.16,704.751 218.826,704.751 206.5,703.5C 204.162,701.96 201.495,701.294 198.5,701.5C 196.585,701.784 194.919,701.451 193.5,700.5C 191.095,699.232 188.428,698.565 185.5,698.5C 135.398,684.405 100.732,653.072 81.5,604.5C 81.3104,601.145 80.3104,598.145 78.5,595.5C 78.6716,594.508 78.3382,593.842 77.5,593.5C 76.9037,586.892 75.5703,580.558 73.5,574.5C 71.9958,557.125 72.3291,539.792 74.5,522.5C 76.3235,515.539 77.9902,508.539 79.5,501.5C 92.4155,466.074 115.082,438.574 147.5,419C 156.311,413.757 165.645,409.923 175.5,407.5C 179.943,407.187 183.943,405.854 187.5,403.5C 192.422,403.13 197.089,402.13 201.5,400.5C 213.482,399.691 225.482,399.358 237.5,399.5C 238.833,399.5 240.167,399.5 241.5,399.5C 249.658,400.541 257.658,402.207 265.5,404.5C 269.25,406.094 273.25,407.261 277.5,408C 284.284,411.727 291.284,414.894 298.5,417.5C 308.882,424.367 318.882,431.867 328.5,440C 338.21,449.193 346.543,459.36 353.5,470.5C 356.828,475.148 359.661,480.148 362,485.5C 364.022,492.407 366.522,499.073 369.5,505.5C 370.234,506.708 370.567,508.041 370.5,509.5C 370.369,510.376 370.702,511.043 371.5,511.5C 372.5,473.839 372.833,436.173 372.5,398.5 Z"/></g>
<g><path style="opacity:1" fill="#000000" d="M 1355.5,398.5 C 1370.63,396.695 1384.97,399.195 1398.5,406C 1400.87,407.471 1400.87,408.637 1398.5,409.5C 1387.24,404.984 1375.57,403.484 1363.5,405C 1399.45,406.29 1423.62,423.79 1436,457.5C 1459.53,551.25 1434.69,629.417 1361.5,692C 1339.87,706.545 1316.03,714.712 1290,716.5C 1270.7,717.4 1253.86,711.567 1239.5,699C 1236.17,695.667 1232.83,692.333 1229.5,689C 1228.83,688.333 1228.17,688.333 1227.5,689C 1214.93,731.465 1205.26,774.631 1198.5,818.5C 1172.28,822.403 1145.94,825.403 1119.5,827.5C 1115.41,827.552 1111.41,827.052 1107.5,826C 1106.89,824.769 1106.56,823.436 1106.5,822C 1118.36,758.731 1132.19,695.898 1148,633.5C 1147.67,625.444 1147.51,617.444 1147.5,609.5C 1152.91,586.974 1157.74,564.307 1162,541.5C 1172.75,500.828 1182.08,459.828 1190,418.5C 1190.71,416.919 1191.54,415.419 1192.5,414C 1217.51,411.369 1242.51,409.036 1267.5,407C 1268.02,407.561 1268.36,408.228 1268.5,409C 1266.53,423.126 1265.86,437.293 1266.5,451.5C 1267.5,451 1268.5,450.5 1269.5,450C 1279.95,437.214 1291.95,426.214 1305.5,417C 1321.51,408.724 1338.17,402.558 1355.5,398.5 Z M 1315.5,483.5 C 1326.82,482.499 1337.49,484.665 1347.5,490C 1350.27,492.064 1352.11,494.564 1353,497.5C 1349.34,492.429 1344.51,489.596 1338.5,489C 1347.42,496.342 1352.59,505.842 1354,517.5C 1356.67,552.147 1348.33,583.814 1329,612.5C 1310.02,633.953 1287.19,639.453 1260.5,629C 1254.8,624.108 1251.3,617.941 1250,610.5C 1248.07,593.511 1249.74,576.845 1255,560.5C 1262.36,538.457 1272.36,517.79 1285,498.5C 1293.71,490.395 1303.88,485.395 1315.5,483.5 Z"/></g>
<g><path style="opacity:1" fill="#000000" d="M 1619.5,398.5 C 1642.96,396.853 1665.29,401.02 1686.5,411C 1709.25,425.415 1726.75,444.582 1739,468.5C 1765.69,554.758 1743.85,625.925 1673.5,682C 1670.3,684.102 1666.96,685.935 1663.5,687.5C 1662.43,685.813 1662.6,684.146 1664,682.5C 1674.8,671.545 1685.13,660.212 1695,648.5C 1695.67,647.833 1695.67,647.167 1695,646.5C 1680.81,663.36 1665.31,678.86 1648.5,693C 1618.76,711.19 1586.43,721.69 1551.5,724.5C 1532.34,723.171 1515.01,717.004 1499.5,706C 1481.88,690.392 1469.05,671.559 1461,649.5C 1462.77,661.124 1467.1,671.791 1474,681.5C 1474.49,682.793 1474.66,684.127 1474.5,685.5C 1471.04,684.564 1468.21,682.564 1466,679.5C 1454.57,664.708 1449.73,648.041 1451.5,629.5C 1453.33,628.429 1454.49,629.096 1455,631.5C 1449.24,598.023 1452.24,565.357 1464,533.5C 1473.78,511.279 1485.11,489.945 1498,469.5C 1528.05,433.048 1566.55,410.881 1613.5,403C 1615.68,401.637 1617.68,400.137 1619.5,398.5 Z M 1612.5,476.5 C 1635.18,478.344 1647.34,490.677 1649,513.5C 1651.92,552.229 1644.59,588.896 1627,623.5C 1621.16,634.674 1611.99,641.174 1599.5,643C 1588.78,643.262 1578.12,643.262 1567.5,643C 1563.13,641.234 1559.63,638.4 1557,634.5C 1552.96,628.053 1550.29,621.053 1549,613.5C 1542.58,570.522 1551.58,531.188 1576,495.5C 1585.83,484.502 1598,478.169 1612.5,476.5 Z"/></g>
<g><path style="opacity:1" fill="#243005" d="M 210.5,398.5 C 219.682,398.173 228.682,398.507 237.5,399.5C 225.482,399.358 213.482,399.691 201.5,400.5C 201.5,400.167 201.5,399.833 201.5,399.5C 204.57,399.632 207.57,399.299 210.5,398.5 Z"/></g>
<g><path style="opacity:1" fill="#3e5007" d="M 201.5,400.5 C 197.089,402.13 192.422,403.13 187.5,403.5C 191.862,401.656 196.529,400.656 201.5,400.5 Z"/></g>
<g><path style="opacity:1" fill="#000000" d="M 1999.5,402.5 C 2002.52,402.335 2005.52,402.502 2008.5,403C 1994.52,429.463 1982.02,456.629 1971,484.5C 1966.05,488.603 1965.21,493.436 1968.5,499C 1959.19,496.804 1949.69,495.304 1940,494.5C 1920.24,493.052 1904.24,500.052 1892,515.5C 1883.19,527.448 1876.19,540.448 1871,554.5C 1860.11,582.826 1851.45,611.826 1845,641.5C 1840.69,664.22 1836.19,686.887 1831.5,709.5C 1830.62,710.251 1829.62,710.751 1828.5,711C 1800.54,713.507 1772.54,714.841 1744.5,715C 1743.4,712.599 1743.23,710.099 1744,707.5C 1751.51,677.253 1756.84,646.586 1760,615.5C 1774.98,549.571 1789.65,483.571 1804,417.5C 1804.8,416.196 1805.97,415.529 1807.5,415.5C 1816.15,415.44 1824.81,415.774 1833.5,416.5C 1853.49,415.301 1873.49,414.801 1893.5,415C 1894.08,415.893 1894.41,416.893 1894.5,418C 1893.88,421.481 1893.38,424.981 1893,428.5C 1889.43,442.194 1886.09,455.861 1883,469.5C 1887.64,454.551 1894.64,440.884 1904,428.5C 1904.5,429 1905,429.5 1905.5,430C 1904.77,431.399 1904.27,432.899 1904,434.5C 1900.18,443.13 1896.18,451.464 1892,459.5C 1906.63,444.199 1922.13,430.032 1938.5,417C 1944.49,413.506 1950.82,410.839 1957.5,409C 1971.65,406.86 1985.65,404.694 1999.5,402.5 Z"/></g>
<g><path style="opacity:1" fill="#1f2808" d="M 187.5,403.5 C 183.943,405.854 179.943,407.187 175.5,407.5C 175.611,406.883 175.944,406.383 176.5,406C 180.112,404.85 183.778,404.017 187.5,403.5 Z"/></g>
<g><path style="opacity:1" fill="#c7fb21" d="M 549.5,398.5 C 548.21,399.058 547.377,400.058 547,401.5C 546.5,415.163 546.333,428.829 546.5,442.5C 545.503,463.327 545.169,484.327 545.5,505.5C 544.5,505.5 543.5,505.5 542.5,505.5C 541.319,488.182 540.153,470.849 539,453.5C 538.333,458.833 537.667,464.167 537,469.5C 535.262,448.189 535.096,426.855 536.5,405.5C 538.782,401.798 540.115,397.798 540.5,393.5C 546.151,391.259 551.651,388.592 557,385.5C 563.592,387.037 570.258,388.037 577,388.5C 581.413,387.368 585.913,387.201 590.5,388C 590.957,388.414 591.291,388.914 591.5,389.5C 587.541,390.327 583.541,390.827 579.5,391C 595.326,391.475 610.993,391.808 626.5,392C 627.257,393.512 628.257,394.846 629.5,396C 602.481,395.84 575.815,396.673 549.5,398.5 Z"/></g>
<g><path style="opacity:1" fill="#000000" d="M 1683.5,406.5 C 1688.42,405.621 1693.09,406.788 1697.5,410C 1701.31,412.647 1704.65,415.813 1707.5,419.5C 1706.21,420.408 1704.88,420.241 1703.5,419C 1697.28,414.061 1690.62,409.894 1683.5,406.5 Z"/></g>
<g><path style="opacity:1" fill="#bdde40" d="M 265.5,404.5 C 271.219,405.175 276.886,406.175 282.5,407.5C 288.169,410.542 293.502,413.876 298.5,417.5C 291.284,414.894 284.284,411.727 277.5,408C 273.25,407.261 269.25,406.094 265.5,404.5 Z"/></g>
<g><path style="opacity:1" fill="#c4f728" d="M 501.5,484.5 C 482.197,458.349 463.03,432.015 444,405.5C 442.281,402.712 440.115,400.379 437.5,398.5C 426.854,397.168 415.854,396.501 404.5,396.5C 393.146,396.501 382.146,397.168 371.5,398.5C 370.379,400.954 369.546,403.621 369,406.5C 368.891,423.201 368.224,439.868 367,456.5C 365.568,440.868 364.568,425.201 364,409.5C 363.333,405.5 362.667,405.5 362,409.5C 361.833,408 361.667,406.5 361.5,405C 362.714,399.972 363.38,394.805 363.5,389.5C 362.167,389.5 360.833,389.5 359.5,389.5C 359.5,386.833 359.5,384.167 359.5,381.5C 362.167,381.5 364.833,381.5 367.5,381.5C 367.5,382.833 367.5,384.167 367.5,385.5C 370.135,386.142 372.802,386.809 375.5,387.5C 377.608,387.14 379.608,386.473 381.5,385.5C 386.176,385.934 391.009,385.934 396,385.5C 402.521,385.966 409.021,386.632 415.5,387.5C 419.595,387.156 423.595,386.49 427.5,385.5C 427.5,386.5 427.5,387.5 427.5,388.5C 432.797,389.275 438.13,389.608 443.5,389.5C 443.238,390.978 443.571,392.311 444.5,393.5C 446.799,394.635 448.966,395.968 451,397.5C 453.266,401.766 456.266,405.433 460,408.5C 461.011,407.663 462.178,407.33 463.5,407.5C 463.5,409.5 463.5,411.5 463.5,413.5C 464.833,413.5 466.167,413.5 467.5,413.5C 467.703,418.036 470.036,420.702 474.5,421.5C 474.833,424.167 475.167,426.833 475.5,429.5C 476.833,429.5 478.167,429.5 479.5,429.5C 479.5,432.167 479.5,434.833 479.5,437.5C 482.167,437.5 484.833,437.5 487.5,437.5C 487.78,441.287 487.78,444.953 487.5,448.5C 489.391,449.311 490.724,450.644 491.5,452.5C 492.689,453.429 494.022,453.762 495.5,453.5C 495.337,455.857 495.503,458.19 496,460.5C 497.011,461.337 498.178,461.67 499.5,461.5C 499.575,464.407 500.409,467.073 502,469.5C 505.58,471.813 506.413,474.979 504.5,479C 508.585,483.664 507.585,485.497 501.5,484.5 Z"/></g>
<g><path style="opacity:1" fill="#b4cb44" d="M 437.5,398.5 C 415.833,398.5 394.167,398.5 372.5,398.5C 372.167,398.5 371.833,398.5 371.5,398.5C 382.146,397.168 393.146,396.501 404.5,396.5C 415.854,396.501 426.854,397.168 437.5,398.5 Z"/></g>
<g><path style="opacity:1" fill="#000000" d="M 1272.5,415.5 C 1273.12,415.611 1273.62,415.944 1274,416.5C 1274.41,422.193 1274.07,427.859 1273,433.5C 1272.71,435.044 1272.04,436.377 1271,437.5C 1270.63,430.072 1271.13,422.739 1272.5,415.5 Z"/></g>
<g><path style="opacity:1" fill="#000000" d="M 1106.5,417.5 C 1107.83,418.167 1107.83,418.167 1106.5,417.5 Z"/></g>
<g><path style="opacity:1" fill="#000000" d="M 908.5,434.5 C 909.552,434.351 910.552,434.517 911.5,435C 906.838,442.247 905.838,442.08 908.5,434.5 Z"/></g>
<g><path style="opacity:1" fill="#000000" d="M 1514.5,439.5 C 1515.87,439.343 1517.21,439.51 1518.5,440C 1508.61,448.887 1499.78,458.72 1492,469.5C 1495.51,456.491 1503.01,446.491 1514.5,439.5 Z"/></g>
<g><path style="opacity:1" fill="#191d05" d="M 371.5,398.5 C 371.833,398.5 372.167,398.5 372.5,398.5C 372.833,436.173 372.5,473.839 371.5,511.5C 370.702,511.043 370.369,510.376 370.5,509.5C 371.498,474.337 371.832,439.004 371.5,403.5C 371.5,401.833 371.5,400.167 371.5,398.5 Z"/></g>
<g><path style="opacity:1" fill="#000000" d="M 1787.5,442.5 C 1788.38,442.369 1789.04,442.702 1789.5,443.5C 1785.68,458.101 1782.18,472.768 1779,487.5C 1779.84,472.14 1782.67,457.14 1787.5,442.5 Z"/></g>
<g><path style="opacity:1" fill="#ceed4e" d="M 549.5,398.5 C 549.108,400.179 548.608,401.846 548,403.5C 547.5,450.165 547.333,496.832 547.5,543.5C 544.708,543.378 542.708,542.044 541.5,539.5C 543.117,540.038 544.784,540.371 546.5,540.5C 546.5,507.833 546.5,475.167 546.5,442.5C 546.333,428.829 546.5,415.163 547,401.5C 547.377,400.058 548.21,399.058 549.5,398.5 Z"/></g>
<g><path style="opacity:1" fill="#96a631" d="M 371.5,403.5 C 371.832,439.004 371.498,474.337 370.5,509.5C 370.567,508.041 370.234,506.708 369.5,505.5C 370.483,501.702 370.817,497.702 370.5,493.5C 370.169,463.329 370.502,433.329 371.5,403.5 Z"/></g>
<g><path style="opacity:1" fill="#83a03b" d="M 211.5,479.5 C 209.485,480.924 207.152,481.59 204.5,481.5C 206.515,480.076 208.848,479.41 211.5,479.5 Z"/></g>
<g><path style="opacity:1" fill="#000000" d="M 1747.5,484.5 C 1750.04,484.104 1752.21,484.771 1754,486.5C 1754.99,489.424 1755.65,492.424 1756,495.5C 1756.67,506.167 1756.67,516.833 1756,527.5C 1755.79,530.623 1755.13,533.623 1754,536.5C 1752.16,519.115 1749.99,501.781 1747.5,484.5 Z"/></g>
<g><path style="opacity:1" fill="#c6f722" d="M 670.5,399.5 C 725.599,434.083 780.599,468.916 835.5,504C 848.225,512.558 855.891,524.391 858.5,539.5C 858.5,547.167 858.5,554.833 858.5,562.5C 857.051,571.057 853.718,578.724 848.5,585.5C 845.05,584.756 843.384,586.09 843.5,589.5C 842.167,589.5 840.833,589.5 839.5,589.5C 839.5,590.833 839.5,592.167 839.5,593.5C 837.119,594.42 834.786,594.42 832.5,593.5C 832.167,593.833 831.833,594.167 831.5,594.5C 832.853,595.524 833.52,596.857 833.5,598.5C 830.769,599.027 828.102,599.86 825.5,601C 824.663,602.011 824.33,603.178 824.5,604.5C 822.801,604.34 821.134,604.506 819.5,605C 817.451,606.992 814.951,608.826 812,610.5C 811.667,610.167 811.333,609.833 811,609.5C 810.506,611.134 810.34,612.801 810.5,614.5C 802.972,619.429 795.305,624.096 787.5,628.5C 785.563,627.41 783.73,626.076 782,624.5C 777.828,628.007 772.994,630.174 767.5,631C 763.673,635.392 759.339,639.059 754.5,642C 752.444,642.311 750.444,642.811 748.5,643.5C 746.669,646.874 744.003,648.707 740.5,649C 742.578,647.514 743.911,645.514 744.5,643C 749.075,640.754 753.742,638.754 758.5,637C 760.677,635.814 761.677,633.981 761.5,631.5C 764.509,631.577 766.676,630.244 768,627.5C 770.351,630.043 771.517,629.377 771.5,625.5C 776.837,625.009 780.504,622.343 782.5,617.5C 783.192,618.025 783.692,618.692 784,619.5C 795.88,610.471 808.38,602.304 821.5,595C 823.927,591.951 826.593,589.117 829.5,586.5C 831.006,585.253 832.506,585.253 834,586.5C 838.334,582.534 840.334,577.868 840,572.5C 842.553,570.403 844.886,568.07 847,565.5C 847.253,560.961 847.753,556.461 848.5,552C 848.387,550.72 847.72,549.887 846.5,549.5C 845.671,544.198 845.171,538.864 845,533.5C 843.047,531.159 841.881,528.493 841.5,525.5C 838.438,524.334 835.438,522.834 832.5,521C 831.663,519.989 831.33,518.822 831.5,517.5C 830.167,517.5 828.833,517.5 827.5,517.5C 826.476,514.1 824.142,511.767 820.5,510.5C 818.596,514.444 817.596,514.11 817.5,509.5C 816.167,509.5 814.833,509.5 813.5,509.5C 813.5,508.167 813.5,506.833 813.5,505.5C 811.5,505.5 809.5,505.5 807.5,505.5C 807.5,504.167 807.5,502.833 807.5,501.5C 804.657,501.083 801.99,500.083 799.5,498.5C 797.822,495.139 795.155,493.472 791.5,493.5C 791.67,492.178 791.337,491.011 790.5,490C 788.19,489.503 785.857,489.337 783.5,489.5C 783.5,488.167 783.5,486.833 783.5,485.5C 780.833,485.5 778.167,485.5 775.5,485.5C 775.116,483.071 774.449,480.737 773.5,478.5C 770.193,477.949 766.86,477.616 763.5,477.5C 763.5,476.167 763.5,474.833 763.5,473.5C 760.833,473.5 758.167,473.5 755.5,473.5C 755.5,472.167 755.5,470.833 755.5,469.5C 754.167,469.5 752.833,469.5 751.5,469.5C 751.5,468.167 751.5,466.833 751.5,465.5C 749.143,465.663 746.81,465.497 744.5,465C 743.663,463.989 743.33,462.822 743.5,461.5C 742.167,461.5 740.833,461.5 739.5,461.5C 739.739,459.533 739.406,457.699 738.5,456C 735.464,454.099 732.13,452.932 728.5,452.5C 726.38,453.872 725.38,453.205 725.5,450.5C 720.289,449.802 716.622,446.969 714.5,442C 711.167,441.667 707.833,441.333 704.5,441C 703.663,439.989 703.33,438.822 703.5,437.5C 702.167,437.5 700.833,437.5 699.5,437.5C 699.358,434.383 698.024,431.883 695.5,430C 691.514,429.501 687.514,429.334 683.5,429.5C 683.5,428.167 683.5,426.833 683.5,425.5C 682.167,425.5 680.833,425.5 679.5,425.5C 679.762,424.022 679.429,422.689 678.5,421.5C 676.5,419.167 674.5,416.833 672.5,414.5C 669.579,413.593 666.579,413.26 663.5,413.5C 663.5,412.167 663.5,410.833 663.5,409.5C 662.167,409.5 660.833,409.5 659.5,409.5C 659.5,408.167 659.5,406.833 659.5,405.5C 657.508,405.672 655.842,405.005 654.5,403.5C 653.646,402.052 652.646,400.719 651.5,399.5C 652.121,397.002 651.455,394.668 649.5,392.5C 646.53,392.005 644.196,390.505 642.5,388C 641.207,387.51 639.873,387.343 638.5,387.5C 638.351,386.448 638.517,385.448 639,384.5C 640.518,384.943 641.685,384.276 642.5,382.5C 647.76,385.428 652.427,389.095 656.5,393.5C 660.765,395.444 664.765,397.777 668.5,400.5C 669.183,400.137 669.85,399.804 670.5,399.5 Z"/></g>
<g><path style="opacity:1" fill="#cfea5c" d="M 353.5,470.5 C 355.818,470.657 357.484,471.824 358.5,474C 360.593,479.653 363.427,484.819 367,489.5C 367.333,491.167 367.667,492.833 368,494.5C 368.671,493.748 369.504,493.414 370.5,493.5C 370.817,497.702 370.483,501.702 369.5,505.5C 366.522,499.073 364.022,492.407 362,485.5C 359.661,480.148 356.828,475.148 353.5,470.5 Z"/></g>
<g><path style="opacity:1" fill="#000000" d="M 881.5,492.5 C 883.357,501.117 884.357,510.117 884.5,519.5C 883.5,519.5 882.5,519.5 881.5,519.5C 881.5,510.5 881.5,501.5 881.5,492.5 Z"/></g>
<g><path style="opacity:1" fill="#000000" d="M 1160.5,495.5 C 1163.01,496.216 1163.01,497.216 1160.5,498.5C 1159.44,497.575 1159.44,496.575 1160.5,495.5 Z"/></g>
<g><path style="opacity:1" fill="#cafc28" d="M 632.5,701.5 C 632.5,602.167 632.5,502.833 632.5,403.5C 632.343,402.127 632.51,400.793 633,399.5C 634.487,402.481 635.821,405.481 637,408.5C 637.376,431.416 637.543,454.249 637.5,477C 635.908,503.042 635.241,528.875 635.5,554.5C 636.543,570.785 637.21,587.119 637.5,603.5C 636.247,626.332 636.247,649.166 637.5,672C 637.333,679.167 637.167,686.333 637,693.5C 635.213,695.414 633.713,698.081 632.5,701.5 Z"/></g>
<g><path style="opacity:1" fill="#000000" d="M 1913.5,502.5 C 1915.35,502.272 1916.19,502.939 1916,504.5C 1909.35,510.316 1902.85,516.316 1896.5,522.5C 1896.17,522.167 1895.83,521.833 1895.5,521.5C 1900.17,513.831 1906.17,507.498 1913.5,502.5 Z"/></g>
<g><path style="opacity:1" fill="#000000" d="M 2126.5,506.5 C 2126.37,505.761 2126.54,505.094 2127,504.5C 2127.69,505.437 2127.53,506.103 2126.5,506.5 Z"/></g>
<g><path style="opacity:1" fill="#cce754" d="M 182.5,492.5 C 177.895,496.602 173.395,500.936 169,505.5C 168.488,509.512 166.321,512.179 162.5,513.5C 167.115,504.551 173.782,497.551 182.5,492.5 Z"/></g>
<g><path style="opacity:1" fill="#000000" d="M 2014.5,520.5 C 2015.68,520.281 2016.68,520.614 2017.5,521.5C 2014.55,530.026 2011.22,538.36 2007.5,546.5C 2007.17,546.167 2006.83,545.833 2006.5,545.5C 2009.17,537.154 2011.84,528.821 2014.5,520.5 Z"/></g>
<g><path style="opacity:1" fill="#b8d652" d="M 162.5,513.5 C 160.975,518.227 159.142,522.894 157,527.5C 156.303,529.584 155.136,531.251 153.5,532.5C 155.559,525.625 158.559,519.292 162.5,513.5 Z"/></g>
<g><path style="opacity:1" fill="#8fac32" d="M 290.5,521.5 C 293,524.66 294.333,528.327 294.5,532.5C 293.833,531.5 293.167,530.5 292.5,529.5C 291.25,526.994 290.584,524.327 290.5,521.5 Z"/></g>
<g><path style="opacity:1" fill="#000000" d="M 1101.5,539.5 C 1099.97,539.483 1099.47,538.816 1100,537.5C 1100.72,538.044 1101.22,538.711 1101.5,539.5 Z"/></g>
<g><path style="opacity:1" fill="#627720" d="M 294.5,532.5 C 295.924,534.515 296.59,536.848 296.5,539.5C 295.076,537.485 294.41,535.152 294.5,532.5 Z"/></g>
<g><path style="opacity:1" fill="#000000" d="M 1101.5,539.5 C 1116.31,548.456 1125.14,561.456 1128,578.5C 1125.27,572.046 1122.27,565.712 1119,559.5C 1112.94,552.942 1107.1,546.275 1101.5,539.5 Z"/></g>
<g><path style="opacity:1" fill="#a5be47" d="M 74.5,522.5 C 72.3291,539.792 71.9958,557.125 73.5,574.5C 72.6981,573.048 72.1981,571.382 72,569.5C 71.3333,557.5 71.3333,545.5 72,533.5C 72.1077,529.535 72.941,525.868 74.5,522.5 Z"/></g>
<g><path style="opacity:1" fill="#c3f626" d="M 290.5,521.5 C 290.584,524.327 291.25,526.994 292.5,529.5C 294.464,542.42 294.964,555.42 294,568.5C 290.155,575.533 286.988,582.867 284.5,590.5C 282.967,594.704 280.3,598.037 276.5,600.5C 271.864,601.036 268.53,603.369 266.5,607.5C 264.242,608.799 261.908,609.799 259.5,610.5C 259.5,611.5 259.5,612.5 259.5,613.5C 258.167,613.5 256.833,613.5 255.5,613.5C 255.5,614.5 255.5,615.5 255.5,616.5C 249.465,620.287 242.798,622.287 235.5,622.5C 228.159,622.666 220.826,622.5 213.5,622C 207.162,620.428 200.829,618.928 194.5,617.5C 162.89,601.297 148.723,575.297 152,539.5C 152.662,537.187 153.162,534.854 153.5,532.5C 155.136,531.251 156.303,529.584 157,527.5C 159.142,522.894 160.975,518.227 162.5,513.5C 166.321,512.179 168.488,509.512 169,505.5C 173.395,500.936 177.895,496.602 182.5,492.5C 188.968,487.266 196.302,483.599 204.5,481.5C 207.152,481.59 209.485,480.924 211.5,479.5C 247.722,475.438 274.055,489.438 290.5,521.5 Z"/></g>
<g><path style="opacity:1" fill="#c0f122" d="M 207.5,492.5 C 216.801,493.387 226.134,493.721 235.5,493.5C 235.5,495.833 235.5,498.167 235.5,500.5C 239.95,501.974 244.283,501.641 248.5,499.5C 251.558,501.141 254.892,501.974 258.5,502C 259.167,504.333 259.833,506.667 260.5,509C 262.81,509.497 265.143,509.663 267.5,509.5C 267.5,512.167 267.5,514.833 267.5,517.5C 271.548,517.395 275.548,517.728 279.5,518.5C 278.902,523.979 280.069,528.979 283,533.5C 283.272,538.721 284.272,543.721 286,548.5C 287.011,549.337 288.178,549.67 289.5,549.5C 289.26,552.579 289.593,555.579 290.5,558.5C 287.141,560.229 284.974,562.896 284,566.5C 284.208,570.791 282.875,574.458 280,577.5C 280.73,583.928 278.23,588.595 272.5,591.5C 271.833,590.833 271.167,590.167 270.5,589.5C 269.702,591.078 269.202,592.744 269,594.5C 267.647,595.685 266.48,597.019 265.5,598.5C 258.604,602.573 251.604,606.406 244.5,610C 243.044,611.745 241.711,613.578 240.5,615.5C 239.571,614.311 239.238,612.978 239.5,611.5C 234.156,611.666 228.823,611.499 223.5,611C 214.82,610.218 206.487,608.718 198.5,606.5C 198.5,605.5 198.5,604.5 198.5,603.5C 192.748,603.037 188.248,600.371 185,595.5C 183.579,594.079 181.745,592.245 179.5,590C 178.207,589.51 176.873,589.343 175.5,589.5C 175.66,587.801 175.494,586.134 175,584.5C 168.698,579.339 165.031,572.672 164,564.5C 162.603,553.807 163.769,543.474 167.5,533.5C 168.5,533.5 169.5,533.5 170.5,533.5C 170.162,529.849 171.828,528.183 175.5,528.5C 175.334,524.486 175.501,520.486 176,516.5C 178.333,514.167 180.667,511.833 183,509.5C 183.49,508.207 183.657,506.873 183.5,505.5C 186.167,505.5 188.833,505.5 191.5,505.5C 191.5,504.167 191.5,502.833 191.5,501.5C 192.833,501.5 194.167,501.5 195.5,501.5C 195.73,496.559 197.73,495.559 201.5,498.5C 198.771,500.367 199.104,501.367 202.5,501.5C 202.162,497.849 203.828,496.183 207.5,496.5C 207.5,495.167 207.5,493.833 207.5,492.5 Z"/></g>
<g><path style="opacity:1" fill="#9dc330" d="M 858.5,539.5 C 861.058,547.16 861.058,554.826 858.5,562.5C 858.5,554.833 858.5,547.167 858.5,539.5 Z"/></g>
<g><path style="opacity:1" fill="#5d741d" d="M 296.5,541.5 C 297.165,544.314 297.498,547.314 297.5,550.5C 297.608,555.745 296.942,560.745 295.5,565.5C 295.833,557.5 296.167,549.5 296.5,541.5 Z"/></g>
<g><path style="opacity:1" fill="#000000" d="M 1447.5,554.5 C 1448.68,554.281 1449.68,554.614 1450.5,555.5C 1448.95,556.798 1447.95,556.465 1447.5,554.5 Z"/></g>
<g><path style="opacity:1" fill="#000000" d="M 1754.5,561.5 C 1755.81,563.743 1756.48,566.41 1756.5,569.5C 1756.33,572.167 1756.17,574.833 1756,577.5C 1755.29,578.973 1754.12,579.64 1752.5,579.5C 1752.66,573.399 1753.33,567.399 1754.5,561.5 Z"/></g>
<g><path style="opacity:1" fill="#bff121" d="M 456.5,561.5 C 470.556,579.921 484.39,598.587 498,617.5C 499.777,620.059 501.277,622.726 502.5,625.5C 500.484,623.987 498.151,623.153 495.5,623C 496.38,621.644 496.714,620.144 496.5,618.5C 495.022,618.762 493.689,618.429 492.5,617.5C 492.052,614.318 490.718,611.651 488.5,609.5C 484.441,610.018 482.441,612.352 482.5,616.5C 485.213,620.103 487.046,624.103 488,628.5C 491.471,630.25 493.638,633.083 494.5,637C 495.448,637.483 496.448,637.649 497.5,637.5C 498.167,640.167 498.833,642.833 499.5,645.5C 500.833,645.5 502.167,645.5 503.5,645.5C 504.193,648.639 505.36,651.639 507,654.5C 507.497,656.81 507.663,659.143 507.5,661.5C 510.026,661.919 512.359,662.086 514.5,662C 515.435,664.381 515.768,666.881 515.5,669.5C 519.003,669.335 521.003,671.002 521.5,674.5C 520.522,676.777 519.855,679.11 519.5,681.5C 520.833,681.5 522.167,681.5 523.5,681.5C 523.5,682.833 523.5,684.167 523.5,685.5C 525.5,685.5 527.5,685.5 529.5,685.5C 529.105,688.523 530.105,689.523 532.5,688.5C 533.452,690.045 533.785,691.712 533.5,693.5C 535.467,693.261 537.301,693.594 539,694.5C 539.186,696.9 539.686,699.234 540.5,701.5C 543.106,703.418 544.106,706.084 543.5,709.5C 544.833,709.5 546.167,709.5 547.5,709.5C 547.5,710.833 547.5,712.167 547.5,713.5C 550.343,713.917 553.01,714.917 555.5,716.5C 567.152,717.666 578.819,717.833 590.5,717C 591.21,714.456 592.876,713.289 595.5,713.5C 599.465,714.274 603.465,714.607 607.5,714.5C 610.247,714.187 612.914,714.52 615.5,715.5C 610.208,716.495 604.875,716.828 599.5,716.5C 599.777,719.448 599.444,722.281 598.5,725C 593.511,725.499 588.511,725.666 583.5,725.5C 583.5,728.167 583.5,730.833 583.5,733.5C 580.833,733.5 578.167,733.5 575.5,733.5C 577.167,740.5 574.5,743.167 567.5,741.5C 567.5,744.167 567.5,746.833 567.5,749.5C 564.833,749.5 562.167,749.5 559.5,749.5C 561.167,756.5 558.5,759.167 551.5,757.5C 551.5,758.833 551.5,760.167 551.5,761.5C 550.167,761.5 548.833,761.5 547.5,761.5C 547.657,762.873 547.49,764.207 547,765.5C 543.29,765.177 539.457,765.177 535.5,765.5C 535.799,767.604 535.466,769.604 534.5,771.5C 531.991,772.921 529.657,774.588 527.5,776.5C 526.311,777.429 524.978,777.762 523.5,777.5C 523.657,778.873 523.49,780.207 523,781.5C 519.29,781.177 515.457,781.177 511.5,781.5C 511.5,784.167 511.5,786.833 511.5,789.5C 508.833,789.5 506.167,789.5 503.5,789.5C 503.5,790.833 503.5,792.167 503.5,793.5C 500.833,793.5 498.167,793.5 495.5,793.5C 495.5,794.833 495.5,796.167 495.5,797.5C 494.167,797.5 492.833,797.5 491.5,797.5C 491.5,798.833 491.5,800.167 491.5,801.5C 489.938,802.976 488.271,804.476 486.5,806C 487.449,806.617 488.282,806.451 489,805.5C 489.333,806.167 489.667,806.833 490,807.5C 491.62,805.759 493.12,803.925 494.5,802C 496.074,801.301 497.407,801.635 498.5,803C 496.359,804.308 494.359,805.808 492.5,807.5C 493.089,809.373 492.422,811.04 490.5,812.5C 492.123,813.476 493.457,812.976 494.5,811C 497.779,809.851 501.113,809.018 504.5,808.5C 492.714,817.234 480.381,825.234 467.5,832.5C 467.5,831.167 467.5,829.833 467.5,828.5C 468.978,828.762 470.311,828.429 471.5,827.5C 471.291,826.914 470.957,826.414 470.5,826C 473.281,825.86 475.447,824.694 477,822.5C 477.333,823.167 477.667,823.833 478,824.5C 479.384,821.89 481.551,820.39 484.5,820C 484.167,819.667 483.833,819.333 483.5,819C 485.134,818.506 486.801,818.34 488.5,818.5C 488.674,816.139 489.007,813.806 489.5,811.5C 487.801,811.34 486.134,811.506 484.5,812C 483.234,813.983 481.568,814.983 479.5,815C 480.833,813 482.5,811.333 484.5,810C 483.167,809.333 483.167,808.667 484.5,808C 483.552,807.517 482.552,807.351 481.5,807.5C 481.617,809.484 480.95,811.15 479.5,812.5C 464.829,821.838 449.829,830.671 434.5,839C 427.761,846.083 419.761,851.083 410.5,854C 407.752,857.612 404.086,859.612 399.5,860C 395.599,864.609 390.599,866.442 384.5,865.5C 384.5,868.833 382.833,870.5 379.5,870.5C 379.5,871.5 379.5,872.5 379.5,873.5C 378.5,873.5 377.5,873.5 376.5,873.5C 376.67,874.822 376.337,875.989 375.5,877C 372.21,877.253 369.21,878.253 366.5,880C 361.051,883.711 356.051,887.878 351.5,892.5C 342.231,896.631 334.231,902.464 327.5,910C 326.207,910.49 324.873,910.657 323.5,910.5C 323.5,911.5 323.5,912.5 323.5,913.5C 321.856,913.714 320.356,913.38 319,912.5C 311.09,917.451 303.757,923.118 297,929.5C 296.228,929.355 295.561,929.022 295,928.5C 284.922,935.728 274.422,942.395 263.5,948.5C 262.416,949.665 261.583,950.998 261,952.5C 260.586,952.043 260.086,951.709 259.5,951.5C 257.453,953.015 255.119,953.849 252.5,954C 250.677,959.991 246.677,962.491 240.5,961.5C 240.67,962.822 240.337,963.989 239.5,965C 230.664,970.171 221.83,975.338 213,980.5C 212.667,980.167 212.333,979.833 212,979.5C 208.871,982.333 205.704,985.166 202.5,988C 196.464,991.348 190.131,994.182 183.5,996.5C 182.147,997.685 180.98,999.019 180,1000.5C 179.586,1000.04 179.086,999.709 178.5,999.5C 177.833,1000.83 177.167,1002.17 176.5,1003.5C 175.833,1002.83 175.167,1002.17 174.5,1001.5C 172.956,1003.94 170.956,1005.94 168.5,1007.5C 167.549,1006.67 166.549,1006.51 165.5,1007C 161.118,1011.58 156.452,1015.42 151.5,1018.5C 151.719,1019.68 151.386,1020.68 150.5,1021.5C 141.906,1025.13 133.906,1029.13 126.5,1033.5C 125.571,1034.69 125.238,1036.02 125.5,1037.5C 121.355,1038.34 118.022,1040.34 115.5,1043.5C 110.706,1044.72 106.372,1046.89 102.5,1050C 89.3217,1050.36 76.3217,1049.53 63.5,1047.5C 63.5,1045.5 63.5,1043.5 63.5,1041.5C 62.1667,1041.5 60.8333,1041.5 59.5,1041.5C 59.5,1040.17 59.5,1038.83 59.5,1037.5C 58.1667,1037.5 56.8333,1037.5 55.5,1037.5C 55.5,1036.17 55.5,1034.83 55.5,1033.5C 54.1667,1033.5 52.8333,1033.5 51.5,1033.5C 51.5,1032.17 51.5,1030.83 51.5,1029.5C 50.1667,1029.5 48.8333,1029.5 47.5,1029.5C 46.8307,1024.4 44.9973,1019.74 42,1015.5C 41.5005,1009.51 41.3338,1003.51 41.5,997.5C 42.8333,997.5 44.1667,997.5 45.5,997.5C 47.3501,970.893 48.0168,944.226 47.5,917.5C 46.1667,917.5 44.8333,917.5 43.5,917.5C 43.5,845.5 43.5,773.5 43.5,701.5C 44.8333,701.5 46.1667,701.5 47.5,701.5C 47.5,704.167 47.5,706.833 47.5,709.5C 50.1667,709.5 52.8333,709.5 55.5,709.5C 55.5,677.5 55.5,645.5 55.5,613.5C 54.1667,613.5 52.8333,613.5 51.5,613.5C 51.5,608.167 51.5,602.833 51.5,597.5C 50.1667,597.5 48.8333,597.5 47.5,597.5C 47.5,592.167 47.5,586.833 47.5,581.5C 46.1667,581.5 44.8333,581.5 43.5,581.5C 43.5,576.167 43.5,570.833 43.5,565.5C 44.8333,565.5 46.1667,565.5 47.5,565.5C 47.5,568.167 47.5,570.833 47.5,573.5C 53.0003,573.75 58.3336,573.75 63.5,573.5C 63.52,578.914 64.1866,584.247 65.5,589.5C 68.566,597.225 70.566,605.225 71.5,613.5C 73.1667,613.5 74.8333,613.5 76.5,613.5C 75.5058,621.681 77.6725,628.681 83,634.5C 84.4035,639.543 85.9035,644.543 87.5,649.5C 90.5,649.167 91.8333,650.5 91.5,653.5C 92.8333,653.5 94.1667,653.5 95.5,653.5C 95.7775,658.765 98.4441,661.765 103.5,662.5C 103.248,665.37 104.248,667.703 106.5,669.5C 107.48,672.086 107.813,674.753 107.5,677.5C 110.167,677.5 112.833,677.5 115.5,677.5C 115.5,678.833 115.5,680.167 115.5,681.5C 118.535,681.521 120.868,682.854 122.5,685.5C 123.086,685.291 123.586,684.957 124,684.5C 126.124,685.227 128.291,685.894 130.5,686.5C 131.466,688.396 131.799,690.396 131.5,692.5C 134.127,693.092 136.794,693.425 139.5,693.5C 139.5,694.833 139.5,696.167 139.5,697.5C 144.512,699.999 149.845,701.332 155.5,701.5C 155.5,702.833 155.5,704.167 155.5,705.5C 156.833,705.5 158.167,705.5 159.5,705.5C 159.5,706.5 159.5,707.5 159.5,708.5C 161.492,708.672 163.158,708.005 164.5,706.5C 165.354,707.522 166.354,708.355 167.5,709C 171.486,709.499 175.486,709.666 179.5,709.5C 179.5,710.833 179.5,712.167 179.5,713.5C 182.343,713.917 185.01,714.917 187.5,716.5C 196.81,717.498 206.143,717.832 215.5,717.5C 215.5,718.833 215.5,720.167 215.5,721.5C 216.833,721.5 218.167,721.5 219.5,721.5C 219.5,720.167 219.5,718.833 219.5,717.5C 224.823,716.169 230.156,716.169 235.5,717.5C 238.522,716.019 241.689,714.685 245,713.5C 249.795,714.358 254.628,714.691 259.5,714.5C 259.5,713.5 259.5,712.5 259.5,711.5C 271.099,708.576 282.766,705.41 294.5,702C 298.203,696.54 303.37,693.707 310,693.5C 312.844,691.14 316.011,689.474 319.5,688.5C 319.433,685.234 321.099,683.734 324.5,684C 328.357,681.151 331.023,677.485 332.5,673C 334.591,671.274 336.924,670.107 339.5,669.5C 339.025,665.584 340.025,662.251 342.5,659.5C 344.941,657.925 346.107,655.592 346,652.5C 348.69,650.644 350.856,648.311 352.5,645.5C 353.167,645.833 353.833,646.167 354.5,646.5C 355.489,650.107 355.823,653.774 355.5,657.5C 357.167,657.5 358.833,657.5 360.5,657.5C 360.238,656.022 360.571,654.689 361.5,653.5C 362.494,658.456 362.827,663.456 362.5,668.5C 361.8,678.822 361.134,689.156 360.5,699.5C 360.563,704.414 361.563,709.081 363.5,713.5C 366.343,713.917 369.01,714.917 371.5,716.5C 375.445,717.491 379.445,717.824 383.5,717.5C 383.5,718.833 383.5,720.167 383.5,721.5C 388.833,721.5 394.167,721.5 399.5,721.5C 399.5,720.167 399.5,718.833 399.5,717.5C 410.167,717.5 420.833,717.5 431.5,717.5C 431.5,720.167 431.5,722.833 431.5,725.5C 434.167,725.5 436.833,725.5 439.5,725.5C 439.5,722.833 439.5,720.167 439.5,717.5C 442.167,717.5 444.833,717.5 447.5,717.5C 446.97,712.362 449.303,709.695 454.5,709.5C 455.78,700.308 456.78,690.974 457.5,681.5C 456.813,662.655 455.813,643.822 454.5,625C 454.462,615.84 454.796,606.673 455.5,597.5C 454.178,597.67 453.011,597.337 452,596.5C 451.333,594.5 451.333,592.5 452,590.5C 454.948,590.253 458.115,589.92 461.5,589.5C 461.5,590.833 461.5,592.167 461.5,593.5C 462.833,593.5 464.167,593.5 465.5,593.5C 466.525,599.536 469.525,604.203 474.5,607.5C 476.452,606.897 478.452,607.23 480.5,608.5C 480.833,608.167 481.167,607.833 481.5,607.5C 479.954,606.316 478.287,605.316 476.5,604.5C 478.484,603.294 480.484,603.294 482.5,604.5C 484.423,600.608 483.257,598.274 479,597.5C 478.76,592.508 476.26,589.342 471.5,588C 471.957,587.586 472.291,587.086 472.5,586.5C 471.354,585.281 470.354,583.948 469.5,582.5C 468.5,584.5 467.5,586.5 466.5,588.5C 465.614,587.675 465.281,586.675 465.5,585.5C 464.5,585.5 463.5,585.5 462.5,585.5C 462.494,582.15 461.494,579.15 459.5,576.5C 460.833,576.5 462.167,576.5 463.5,576.5C 463.177,571.691 461.01,568.024 457,565.5C 456.51,564.207 456.343,562.873 456.5,561.5 Z"/></g>
<g><path style="opacity:1" fill="#000000" d="M 1447.5,577.5 C 1448.24,577.369 1448.91,577.536 1449.5,578C 1448.08,582.348 1446.24,586.515 1444,590.5C 1443.03,587.672 1443.7,585.338 1446,583.5C 1446.32,581.414 1446.82,579.414 1447.5,577.5 Z"/></g>
<g><path style="opacity:1" fill="#bce343" d="M 292.5,529.5 C 293.167,530.5 293.833,531.5 294.5,532.5C 294.41,535.152 295.076,537.485 296.5,539.5C 296.5,540.167 296.5,540.833 296.5,541.5C 296.167,549.5 295.833,557.5 295.5,565.5C 293.935,574.898 290.268,583.231 284.5,590.5C 286.988,582.867 290.155,575.533 294,568.5C 294.964,555.42 294.464,542.42 292.5,529.5 Z"/></g>
<g><path style="opacity:1" fill="#b0d637" d="M 73.5,574.5 C 75.5703,580.558 76.9037,586.892 77.5,593.5C 76.5041,593.586 75.6708,593.252 75,592.5C 74.301,586.511 73.801,580.511 73.5,574.5 Z"/></g>
<g><path style="opacity:1" fill="#c0e35a" d="M 30.5,80.5 C 30.1668,393 30.5002,705.334 31.5,1017.5C 32.3905,1026.17 35.0572,1034.17 39.5,1041.5C 34.4909,1035.81 31.3242,1029.14 30,1021.5C 29.1669,707.666 29.3336,394 30.5,80.5 Z"/></g>
<g><path style="opacity:1" fill="#848b59" d="M 370.5,591.5 C 371.468,593.607 371.802,595.941 371.5,598.5C 370.391,598.557 369.391,598.89 368.5,599.5C 368.963,596.67 369.629,594.003 370.5,591.5 Z"/></g>
<g><path style="opacity:1" fill="#7e9d27" d="M 78.5,595.5 C 80.3104,598.145 81.3104,601.145 81.5,604.5C 79.5275,601.916 78.5275,598.916 78.5,595.5 Z"/></g>
<g><path style="opacity:1" fill="#d4fb4b" d="M 447.5,549.5 C 451.262,552.929 454.262,556.929 456.5,561.5C 453.84,558.92 450.673,557.253 447,556.5C 446.667,558.167 446.333,559.833 446,561.5C 445.833,607.335 445.333,653.002 444.5,698.5C 444.5,648.833 444.5,599.167 444.5,549.5C 445.5,549.5 446.5,549.5 447.5,549.5 Z"/></g>
<g><path style="opacity:1" fill="#c8ed3b" d="M 848.5,585.5 C 845.371,589.131 842.037,592.631 838.5,596C 829.31,602.425 819.976,608.592 810.5,614.5C 810.34,612.801 810.506,611.134 811,609.5C 811.333,609.833 811.667,610.167 812,610.5C 814.951,608.826 817.451,606.992 819.5,605C 821.134,604.506 822.801,604.34 824.5,604.5C 824.33,603.178 824.663,602.011 825.5,601C 828.102,599.86 830.769,599.027 833.5,598.5C 833.52,596.857 832.853,595.524 831.5,594.5C 831.833,594.167 832.167,593.833 832.5,593.5C 834.786,594.42 837.119,594.42 839.5,593.5C 839.5,592.167 839.5,590.833 839.5,589.5C 840.833,589.5 842.167,589.5 843.5,589.5C 843.384,586.09 845.05,584.756 848.5,585.5 Z"/></g>
<g><path style="opacity:1" fill="#c6ea4a" d="M 276.5,600.5 C 270.642,607.361 263.642,612.694 255.5,616.5C 255.5,615.5 255.5,614.5 255.5,613.5C 256.833,613.5 258.167,613.5 259.5,613.5C 259.5,612.5 259.5,611.5 259.5,610.5C 261.908,609.799 264.242,608.799 266.5,607.5C 268.53,603.369 271.864,601.036 276.5,600.5 Z"/></g>
<g><path style="opacity:1" fill="#252b04" d="M 370.5,591.5 C 370.56,590.957 370.893,590.624 371.5,590.5C 372.5,626.827 372.833,663.161 372.5,699.5C 372.167,699.5 371.833,699.5 371.5,699.5C 371.5,698.833 371.5,698.167 371.5,697.5C 371.5,664.5 371.5,631.5 371.5,598.5C 371.802,595.941 371.468,593.607 370.5,591.5 Z"/></g>
<g><path style="opacity:1" fill="#000000" d="M 881.5,615.5 C 897.687,618.76 914.021,620.093 930.5,619.5C 915.136,622.252 899.802,622.085 884.5,619C 882.574,618.578 881.574,617.411 881.5,615.5 Z"/></g>
<g><path style="opacity:1" fill="#9fc23d" d="M 194.5,617.5 C 200.829,618.928 207.162,620.428 213.5,622C 220.826,622.5 228.159,622.666 235.5,622.5C 227.01,623.657 218.343,623.824 209.5,623C 204.143,621.829 199.143,619.996 194.5,617.5 Z"/></g>
<g><path style="opacity:1" fill="#c1da4a" d="M 366.5,604.5 C 366.665,608.182 366.499,611.848 366,615.5C 363.048,617.193 362.882,619.026 365.5,621C 363.866,621.494 362.199,621.66 360.5,621.5C 358.629,624.229 356.962,627.229 355.5,630.5C 355.043,631.298 354.376,631.631 353.5,631.5C 358.147,622.542 362.481,613.542 366.5,604.5 Z"/></g>
<g><path style="opacity:1" fill="#98b23e" d="M 447.5,549.5 C 446.5,549.5 445.5,549.5 444.5,549.5C 444.5,599.167 444.5,648.833 444.5,698.5C 444.5,699.833 444.5,701.167 444.5,702.5C 443.833,702.833 443.167,703.167 442.5,703.5C 443.287,651.843 443.787,600.176 444,548.5C 445.579,547.2 446.745,547.534 447.5,549.5 Z"/></g>
<g><path style="opacity:1" fill="#000000" d="M 2097.5,631.5 C 2098.46,631.953 2099.29,632.619 2100,633.5C 2100.76,636.785 2102.09,639.785 2104,642.5C 2107.38,646.044 2110.88,649.377 2114.5,652.5C 2106.29,653.291 2100.79,649.624 2098,641.5C 2097.5,638.183 2097.33,634.85 2097.5,631.5 Z"/></g>
<g><path style="opacity:1" fill="#000000" d="M 952.5,632.5 C 954.429,632.231 956.095,632.731 957.5,634C 956.667,634.167 955.833,634.333 955,634.5C 953.624,634.316 952.791,633.649 952.5,632.5 Z"/></g>
<g><path style="opacity:1" fill="#caf035" d="M 371.5,697.5 C 371.5,698.167 371.5,698.833 371.5,699.5C 371.5,701.167 371.5,702.833 371.5,704.5C 395.339,704.831 419.006,704.498 442.5,703.5C 443.167,703.167 443.833,702.833 444.5,702.5C 444.461,703.583 444.127,704.583 443.5,705.5C 419.176,706.5 394.842,706.833 370.5,706.5C 369.83,682.836 368.996,659.169 368,635.5C 366.497,646.704 364.664,657.704 362.5,668.5C 362.827,663.456 362.494,658.456 361.5,653.5C 360.571,654.689 360.238,656.022 360.5,657.5C 358.833,657.5 357.167,657.5 355.5,657.5C 355.823,653.774 355.489,650.107 354.5,646.5C 353.833,646.167 353.167,645.833 352.5,645.5C 350.856,648.311 348.69,650.644 346,652.5C 346.107,655.592 344.941,657.925 342.5,659.5C 342.92,657.906 343.586,656.406 344.5,655C 343.941,652.812 342.607,652.146 340.5,653C 338.063,654.279 337.563,655.779 339,657.5C 339.333,657.167 339.667,656.833 340,656.5C 340.916,660.779 339.083,662.612 334.5,662C 333.833,663 333.167,664 332.5,665C 327.975,665.424 324.642,667.59 322.5,671.5C 320.223,672.421 317.89,673.087 315.5,673.5C 330.669,661.669 343.336,647.669 353.5,631.5C 354.376,631.631 355.043,631.298 355.5,630.5C 356.962,627.229 358.629,624.229 360.5,621.5C 362.199,621.66 363.866,621.494 365.5,621C 362.882,619.026 363.048,617.193 366,615.5C 366.499,611.848 366.665,608.182 366.5,604.5C 367.712,603.77 368.712,602.77 369.5,601.5C 370.167,633.664 370.833,665.664 371.5,697.5 Z"/></g>
<g><path style="opacity:1" fill="#c3e646" d="M 502.5,625.5 C 507.601,630.936 511.934,636.936 515.5,643.5C 512.672,641.203 509.839,638.869 507,636.5C 506.191,632.533 504.691,628.866 502.5,625.5 Z"/></g>
<g><path style="opacity:1" fill="#000000" d="M 849.5,658.5 C 844.478,653.132 840.978,646.798 839,639.5C 838.376,637.536 838.876,635.869 840.5,634.5C 841.799,635.09 842.632,636.09 843,637.5C 845.092,644.603 847.258,651.603 849.5,658.5 Z"/></g>
<g><path style="opacity:1" fill="#000000" d="M 1122.5,634.5 C 1123.12,634.917 1123.46,635.584 1123.5,636.5C 1121.17,647 1117,656.667 1111,665.5C 1109.29,667.543 1107.29,669.21 1105,670.5C 1110.5,658.496 1116.33,646.496 1122.5,634.5 Z"/></g>
<g><path style="opacity:1" fill="#000000" d="M 963.5,639.5 C 966.274,642.777 969.274,645.944 972.5,649C 968.317,648.213 964.484,646.38 961,643.5C 961.193,641.918 962.026,640.584 963.5,639.5 Z"/></g>
<g><path style="opacity:1" fill="#a6b63b" d="M 371.5,598.5 C 371.5,631.5 371.5,664.5 371.5,697.5C 370.833,665.664 370.167,633.664 369.5,601.5C 368.712,602.77 367.712,603.77 366.5,604.5C 366.796,602.597 367.463,600.93 368.5,599.5C 369.391,598.89 370.391,598.557 371.5,598.5 Z"/></g>
<g><path style="opacity:1" fill="#000000" d="M 981.5,647.5 C 984.702,647.77 987.702,648.604 990.5,650C 987.135,650.314 983.969,650.481 981,650.5C 980.53,649.423 980.697,648.423 981.5,647.5 Z"/></g>
<g><path style="opacity:1" fill="#000000" d="M 1751.5,650.5 C 1752.65,650.791 1753.32,651.624 1753.5,653C 1750.76,672.462 1746.09,691.296 1739.5,709.5C 1737.55,707.956 1737.05,705.956 1738,703.5C 1743.19,685.861 1747.69,668.195 1751.5,650.5 Z"/></g>
<g><path style="opacity:1" fill="#bdde51" d="M 519.5,648.5 C 522.323,651.475 524.656,654.808 526.5,658.5C 523.185,655.875 520.851,652.542 519.5,648.5 Z"/></g>
<g><path style="opacity:1" fill="#000000" d="M 849.5,658.5 C 850.833,659.167 850.833,659.167 849.5,658.5 Z"/></g>
<g><path style="opacity:1" fill="#cafb1f" d="M 715.5,674.5 C 712.124,677.194 708.457,679.527 704.5,681.5C 702.801,681.34 701.134,681.506 699.5,682C 697.246,684.944 694.246,686.611 690.5,687C 689.663,688.011 689.33,689.178 689.5,690.5C 687.669,691.052 686.003,691.052 684.5,690.5C 683.614,691.325 683.281,692.325 683.5,693.5C 682.167,693.5 680.833,693.5 679.5,693.5C 679.5,694.5 679.5,695.5 679.5,696.5C 678.127,696.343 676.793,696.51 675.5,697C 675.833,697.333 676.167,697.667 676.5,698C 674.899,698.273 673.399,698.773 672,699.5C 670.559,698.74 669.059,698.074 667.5,697.5C 666.41,698.391 666.41,699.391 667.5,700.5C 665.044,702.058 663.044,704.058 661.5,706.5C 659.845,702.777 658.511,702.777 657.5,706.5C 658.246,707.736 658.579,709.07 658.5,710.5C 655.074,710.272 652.407,711.605 650.5,714.5C 649.28,713.289 648.113,713.289 647,714.5C 646.308,713.975 645.808,713.308 645.5,712.5C 647.086,710.827 647.753,708.827 647.5,706.5C 650.504,706.665 652.504,705.332 653.5,702.5C 658.936,699.907 664.269,697.074 669.5,694C 672.128,692.374 674.461,690.374 676.5,688C 681.638,686.371 686.638,684.371 691.5,682C 693.253,680.001 694.587,677.835 695.5,675.5C 702.277,675.066 707.944,672.399 712.5,667.5C 718.316,665.028 723.316,661.361 727.5,656.5C 730.675,654.909 734.009,653.909 737.5,653.5C 737.762,654.978 737.429,656.311 736.5,657.5C 734.668,658.248 733.001,659.248 731.5,660.5C 731.709,661.086 732.043,661.586 732.5,662C 727.893,663.98 723.226,665.647 718.5,667C 719.5,667.333 720.5,667.667 721.5,668C 716.878,667.802 714.878,669.968 715.5,674.5 Z"/></g>
<g><path style="opacity:1" fill="#c5f723" d="M 502.5,625.5 C 504.691,628.866 506.191,632.533 507,636.5C 509.839,638.869 512.672,641.203 515.5,643.5C 517.543,644.579 518.876,646.246 519.5,648.5C 520.851,652.542 523.185,655.875 526.5,658.5C 537.23,671.626 547.23,685.292 556.5,699.5C 555.974,702.808 557.307,704.974 560.5,706C 582.833,706.333 605.167,706.667 627.5,707C 626.5,707.333 625.5,707.667 624.5,708C 623.167,708.667 623.167,709.333 624.5,710C 622.866,710.494 621.199,710.66 619.5,710.5C 619.5,711.5 619.5,712.5 619.5,713.5C 615.298,713.183 611.298,713.517 607.5,714.5C 603.465,714.607 599.465,714.274 595.5,713.5C 592.876,713.289 591.21,714.456 590.5,717C 578.819,717.833 567.152,717.666 555.5,716.5C 553.01,714.917 550.343,713.917 547.5,713.5C 547.5,712.167 547.5,710.833 547.5,709.5C 546.167,709.5 544.833,709.5 543.5,709.5C 544.106,706.084 543.106,703.418 540.5,701.5C 539.686,699.234 539.186,696.9 539,694.5C 537.301,693.594 535.467,693.261 533.5,693.5C 533.785,691.712 533.452,690.045 532.5,688.5C 530.105,689.523 529.105,688.523 529.5,685.5C 527.5,685.5 525.5,685.5 523.5,685.5C 523.5,684.167 523.5,682.833 523.5,681.5C 522.167,681.5 520.833,681.5 519.5,681.5C 519.855,679.11 520.522,676.777 521.5,674.5C 521.003,671.002 519.003,669.335 515.5,669.5C 515.768,666.881 515.435,664.381 514.5,662C 512.359,662.086 510.026,661.919 507.5,661.5C 507.663,659.143 507.497,656.81 507,654.5C 505.36,651.639 504.193,648.639 503.5,645.5C 502.167,645.5 500.833,645.5 499.5,645.5C 498.833,642.833 498.167,640.167 497.5,637.5C 496.448,637.649 495.448,637.483 494.5,637C 493.638,633.083 491.471,630.25 488,628.5C 487.046,624.103 485.213,620.103 482.5,616.5C 482.441,612.352 484.441,610.018 488.5,609.5C 490.718,611.651 492.052,614.318 492.5,617.5C 493.689,618.429 495.022,618.762 496.5,618.5C 496.714,620.144 496.38,621.644 495.5,623C 498.151,623.153 500.484,623.987 502.5,625.5 Z"/></g>
<g><path style="opacity:1" fill="#cefd3f" d="M 39.5,60.5 C 37.3039,65.8963 34.8039,71.2296 32,76.5C 31.5,390.166 31.3333,703.833 31.5,1017.5C 30.5002,705.334 30.1668,393 30.5,80.5C 31.3531,72.799 34.3531,66.1324 39.5,60.5 Z"/></g>
<g><path style="opacity:1" fill="#c5f821" d="M 79.5,501.5 C 77.9902,508.539 76.3235,515.539 74.5,522.5C 72.941,525.868 72.1077,529.535 72,533.5C 71.3333,545.5 71.3333,557.5 72,569.5C 72.1981,571.382 72.6981,573.048 73.5,574.5C 73.801,580.511 74.301,586.511 75,592.5C 75.6708,593.252 76.5041,593.586 77.5,593.5C 78.3382,593.842 78.6716,594.508 78.5,595.5C 78.5275,598.916 79.5275,601.916 81.5,604.5C 100.732,653.072 135.398,684.405 185.5,698.5C 187.838,700.04 190.505,700.706 193.5,700.5C 194.919,701.451 196.585,701.784 198.5,701.5C 200.905,702.768 203.572,703.435 206.5,703.5C 218.826,704.751 231.16,704.751 243.5,703.5C 245.898,703.741 247.898,703.074 249.5,701.5C 251.95,701.702 254.283,701.369 256.5,700.5C 259.167,700.167 261.833,699.833 264.5,699.5C 269.237,698.632 273.904,697.466 278.5,696C 282.243,693.617 286.243,691.784 290.5,690.5C 291.711,691.274 291.711,692.107 290.5,693C 292.108,693.658 293.275,693.158 294,691.5C 294.494,689.866 294.66,688.199 294.5,686.5C 301.66,682.42 308.66,678.087 315.5,673.5C 317.89,673.087 320.223,672.421 322.5,671.5C 324.642,667.59 327.975,665.424 332.5,665C 333.167,664 333.833,663 334.5,662C 339.083,662.612 340.916,660.779 340,656.5C 339.667,656.833 339.333,657.167 339,657.5C 337.563,655.779 338.063,654.279 340.5,653C 342.607,652.146 343.941,652.812 344.5,655C 343.586,656.406 342.92,657.906 342.5,659.5C 340.025,662.251 339.025,665.584 339.5,669.5C 336.924,670.107 334.591,671.274 332.5,673C 331.023,677.485 328.357,681.151 324.5,684C 321.099,683.734 319.433,685.234 319.5,688.5C 316.011,689.474 312.844,691.14 310,693.5C 303.37,693.707 298.203,696.54 294.5,702C 282.766,705.41 271.099,708.576 259.5,711.5C 259.5,712.5 259.5,713.5 259.5,714.5C 254.628,714.691 249.795,714.358 245,713.5C 241.689,714.685 238.522,716.019 235.5,717.5C 230.156,716.169 224.823,716.169 219.5,717.5C 219.5,718.833 219.5,720.167 219.5,721.5C 218.167,721.5 216.833,721.5 215.5,721.5C 215.5,720.167 215.5,718.833 215.5,717.5C 206.143,717.832 196.81,717.498 187.5,716.5C 185.01,714.917 182.343,713.917 179.5,713.5C 179.5,712.167 179.5,710.833 179.5,709.5C 175.486,709.666 171.486,709.499 167.5,709C 166.354,708.355 165.354,707.522 164.5,706.5C 163.158,708.005 161.492,708.672 159.5,708.5C 159.5,707.5 159.5,706.5 159.5,705.5C 158.167,705.5 156.833,705.5 155.5,705.5C 155.5,704.167 155.5,702.833 155.5,701.5C 149.845,701.332 144.512,699.999 139.5,697.5C 139.5,696.167 139.5,694.833 139.5,693.5C 136.794,693.425 134.127,693.092 131.5,692.5C 131.799,690.396 131.466,688.396 130.5,686.5C 128.291,685.894 126.124,685.227 124,684.5C 123.586,684.957 123.086,685.291 122.5,685.5C 120.868,682.854 118.535,681.521 115.5,681.5C 115.5,680.167 115.5,678.833 115.5,677.5C 112.833,677.5 110.167,677.5 107.5,677.5C 107.813,674.753 107.48,672.086 106.5,669.5C 104.248,667.703 103.248,665.37 103.5,662.5C 98.4441,661.765 95.7775,658.765 95.5,653.5C 94.1667,653.5 92.8333,653.5 91.5,653.5C 91.8333,650.5 90.5,649.167 87.5,649.5C 85.9035,644.543 84.4035,639.543 83,634.5C 77.6725,628.681 75.5058,621.681 76.5,613.5C 74.8333,613.5 73.1667,613.5 71.5,613.5C 70.566,605.225 68.566,597.225 65.5,589.5C 64.1866,584.247 63.52,578.914 63.5,573.5C 62.2049,566.904 61.5382,560.071 61.5,553C 61.6667,546.5 61.8333,540 62,533.5C 63.9932,530.158 63.8266,526.824 61.5,523.5C 63.1863,519.065 65.0196,514.732 67,510.5C 68.2759,507.634 68.4426,504.8 67.5,502C 69.0993,500.214 69.9326,498.047 70,495.5C 72.1057,492.966 74.9391,492.133 78.5,493C 79.1161,490.821 80.2828,488.988 82,487.5C 81.5032,492.17 80.6699,496.836 79.5,501.5 Z"/></g>
<g><path style="opacity:1" fill="#c4e63a" d="M 294.5,686.5 C 294.66,688.199 294.494,689.866 294,691.5C 293.275,693.158 292.108,693.658 290.5,693C 291.711,692.107 291.711,691.274 290.5,690.5C 286.243,691.784 282.243,693.617 278.5,696C 273.904,697.466 269.237,698.632 264.5,699.5C 265.167,698.833 265.833,698.167 266.5,697.5C 276.056,694.388 285.39,690.721 294.5,686.5 Z"/></g>
<g><path style="opacity:1" fill="#000000" d="M 1080.5,693.5 C 1083.01,694.216 1083.01,695.216 1080.5,696.5C 1079.44,695.575 1079.44,694.575 1080.5,693.5 Z"/></g>
<g><path style="opacity:1" fill="#000000" d="M 1650.5,695.5 C 1651.68,695.281 1652.68,695.614 1653.5,696.5C 1648.72,703.238 1642.39,708.072 1634.5,711C 1621.6,716.528 1608.26,720.195 1594.5,722C 1595.55,720.615 1596.88,719.615 1598.5,719C 1616.85,713.172 1634.18,705.338 1650.5,695.5 Z"/></g>
<g><path style="opacity:1" fill="#c6ee33" d="M 704.5,681.5 C 689.512,691.664 674.179,701.33 658.5,710.5C 658.579,709.07 658.246,707.736 657.5,706.5C 658.511,702.777 659.845,702.777 661.5,706.5C 663.044,704.058 665.044,702.058 667.5,700.5C 666.41,699.391 666.41,698.391 667.5,697.5C 669.059,698.074 670.559,698.74 672,699.5C 673.399,698.773 674.899,698.273 676.5,698C 676.167,697.667 675.833,697.333 675.5,697C 676.793,696.51 678.127,696.343 679.5,696.5C 679.5,695.5 679.5,694.5 679.5,693.5C 680.833,693.5 682.167,693.5 683.5,693.5C 683.281,692.325 683.614,691.325 684.5,690.5C 686.003,691.052 687.669,691.052 689.5,690.5C 689.33,689.178 689.663,688.011 690.5,687C 694.246,686.611 697.246,684.944 699.5,682C 701.134,681.506 702.801,681.34 704.5,681.5 Z"/></g>
<g><path style="opacity:1" fill="#687e20" d="M 266.5,697.5 C 265.833,698.167 265.167,698.833 264.5,699.5C 261.833,699.833 259.167,700.167 256.5,700.5C 259.55,698.899 262.884,697.899 266.5,697.5 Z"/></g>
<g><path style="opacity:1" fill="#435306" d="M 185.5,698.5 C 188.428,698.565 191.095,699.232 193.5,700.5C 190.505,700.706 187.838,700.04 185.5,698.5 Z"/></g>
<g><path style="opacity:1" fill="#596e17" d="M 198.5,701.5 C 201.495,701.294 204.162,701.96 206.5,703.5C 203.572,703.435 200.905,702.768 198.5,701.5 Z"/></g>
<g><path style="opacity:1" fill="#799233" d="M 249.5,701.5 C 247.898,703.074 245.898,703.741 243.5,703.5C 245.102,701.926 247.102,701.259 249.5,701.5 Z"/></g>
<g><path style="opacity:1" fill="#c6f81f" d="M 456.5,561.5 C 456.343,562.873 456.51,564.207 457,565.5C 461.01,568.024 463.177,571.691 463.5,576.5C 462.167,576.5 460.833,576.5 459.5,576.5C 461.494,579.15 462.494,582.15 462.5,585.5C 463.5,585.5 464.5,585.5 465.5,585.5C 465.281,586.675 465.614,587.675 466.5,588.5C 467.5,586.5 468.5,584.5 469.5,582.5C 470.354,583.948 471.354,585.281 472.5,586.5C 472.291,587.086 471.957,587.586 471.5,588C 476.26,589.342 478.76,592.508 479,597.5C 483.257,598.274 484.423,600.608 482.5,604.5C 480.484,603.294 478.484,603.294 476.5,604.5C 478.287,605.316 479.954,606.316 481.5,607.5C 481.167,607.833 480.833,608.167 480.5,608.5C 478.452,607.23 476.452,606.897 474.5,607.5C 469.525,604.203 466.525,599.536 465.5,593.5C 464.167,593.5 462.833,593.5 461.5,593.5C 461.5,592.167 461.5,590.833 461.5,589.5C 458.115,589.92 454.948,590.253 452,590.5C 451.333,592.5 451.333,594.5 452,596.5C 453.011,597.337 454.178,597.67 455.5,597.5C 454.796,606.673 454.462,615.84 454.5,625C 455.813,643.822 456.813,662.655 457.5,681.5C 456.78,690.974 455.78,700.308 454.5,709.5C 449.303,709.695 446.97,712.362 447.5,717.5C 444.833,717.5 442.167,717.5 439.5,717.5C 439.5,720.167 439.5,722.833 439.5,725.5C 436.833,725.5 434.167,725.5 431.5,725.5C 431.5,722.833 431.5,720.167 431.5,717.5C 420.833,717.5 410.167,717.5 399.5,717.5C 399.5,718.833 399.5,720.167 399.5,721.5C 394.167,721.5 388.833,721.5 383.5,721.5C 383.5,720.167 383.5,718.833 383.5,717.5C 379.445,717.824 375.445,717.491 371.5,716.5C 369.01,714.917 366.343,713.917 363.5,713.5C 361.563,709.081 360.563,704.414 360.5,699.5C 361.134,689.156 361.8,678.822 362.5,668.5C 364.664,657.704 366.497,646.704 368,635.5C 368.996,659.169 369.83,682.836 370.5,706.5C 394.842,706.833 419.176,706.5 443.5,705.5C 444.127,704.583 444.461,703.583 444.5,702.5C 444.5,701.167 444.5,699.833 444.5,698.5C 445.333,653.002 445.833,607.335 446,561.5C 446.333,559.833 446.667,558.167 447,556.5C 450.673,557.253 453.84,558.92 456.5,561.5 Z"/></g>
<g><path style="opacity:1" fill="#395101" d="M 371.5,699.5 C 371.833,699.5 372.167,699.5 372.5,699.5C 372.5,700.833 372.5,702.167 372.5,703.5C 395.833,703.5 419.167,703.5 442.5,703.5C 419.006,704.498 395.339,704.831 371.5,704.5C 371.5,702.833 371.5,701.167 371.5,699.5 Z"/></g>
<g><path style="opacity:1" fill="#000000" d="M 1221.5,716.5 C 1222.15,717.274 1222.48,718.274 1222.5,719.5C 1217.21,750.807 1211.21,781.974 1204.5,813C 1203.96,815.24 1202.8,817.073 1201,818.5C 1207.76,784.541 1214.59,750.541 1221.5,716.5 Z"/></g>
<g><path style="opacity:1" fill="#000000" d="M 1268.5,717.5 C 1271.96,718.536 1272.29,720.203 1269.5,722.5C 1268.55,720.955 1268.21,719.288 1268.5,717.5 Z"/></g>
<g><path style="opacity:1" fill="#000000" d="M 1300.5,720.5 C 1301.77,721.077 1301.77,721.743 1300.5,722.5C 1297.96,723.115 1295.46,723.782 1293,724.5C 1292.08,723.953 1291.24,723.287 1290.5,722.5C 1293.98,721.833 1297.31,721.166 1300.5,720.5 Z"/></g>
<g><path style="opacity:1" fill="#000000" d="M 941.5,722.5 C 958.439,724.944 975.439,725.778 992.5,725C 993.791,727.09 993.124,728.424 990.5,729C 974.931,731.576 959.597,730.576 944.5,726C 942.574,725.578 941.574,724.411 941.5,722.5 Z"/></g>
<g><path style="opacity:1" fill="#000000" d="M 1563.5,723.5 C 1567.27,724.676 1567.1,726.01 1563,727.5C 1561.6,726.773 1560.1,726.273 1558.5,726C 1560.31,725.243 1561.98,724.41 1563.5,723.5 Z"/></g>
<g><path style="opacity:1" fill="#bde530" d="M 629.5,399.5 C 630.022,401.219 631.022,402.552 632.5,403.5C 632.5,502.833 632.5,602.167 632.5,701.5C 631.562,703.326 630.562,705.159 629.5,707C 630.418,709.086 631.085,711.253 631.5,713.5C 627.524,714.295 623.524,714.962 619.5,715.5C 619.5,716.833 619.5,718.167 619.5,719.5C 604.848,720.005 604.848,720.838 619.5,722C 616.986,723.757 614.319,725.257 611.5,726.5C 612.025,727.192 612.692,727.692 613.5,728C 612.07,729.886 610.403,731.553 608.5,733C 602.95,735.245 597.95,738.245 593.5,742C 593.833,742.167 594.167,742.333 594.5,742.5C 596.858,740.713 599.525,739.713 602.5,739.5C 602.5,738.5 602.5,737.5 602.5,736.5C 603.802,737.763 605.802,738.429 608.5,738.5C 611.902,736.638 615.569,735.638 619.5,735.5C 604.039,745.736 588.372,755.736 572.5,765.5C 572.5,764.167 572.5,762.833 572.5,761.5C 574.288,761.785 575.955,761.452 577.5,760.5C 576.833,759.833 576.167,759.167 575.5,758.5C 577.712,755.942 579.879,753.275 582,750.5C 582.617,751.449 582.451,752.282 581.5,753C 586.387,754.116 590.387,752.783 593.5,749C 590.956,747.908 588.289,747.241 585.5,747C 587.935,746.147 590.269,745.147 592.5,744C 586.031,744.147 580.531,746.647 576,751.5C 575.667,750.833 575.333,750.167 575,749.5C 573.812,750.563 573.312,751.897 573.5,753.5C 568.21,756.925 562.543,759.758 556.5,762C 555.547,763.955 554.213,765.622 552.5,767C 549.13,768.346 546.13,770.179 543.5,772.5C 539.025,774.664 534.359,776.33 529.5,777.5C 529.5,778.833 529.5,780.167 529.5,781.5C 527.94,781.519 526.44,781.852 525,782.5C 517.131,788.356 508.964,793.856 500.5,799C 497.582,800.15 494.582,800.983 491.5,801.5C 491.5,800.167 491.5,798.833 491.5,797.5C 492.833,797.5 494.167,797.5 495.5,797.5C 495.5,796.167 495.5,794.833 495.5,793.5C 498.167,793.5 500.833,793.5 503.5,793.5C 503.5,792.167 503.5,790.833 503.5,789.5C 506.167,789.5 508.833,789.5 511.5,789.5C 511.5,786.833 511.5,784.167 511.5,781.5C 515.457,781.177 519.29,781.177 523,781.5C 523.49,780.207 523.657,778.873 523.5,777.5C 524.978,777.762 526.311,777.429 527.5,776.5C 529.657,774.588 531.991,772.921 534.5,771.5C 535.466,769.604 535.799,767.604 535.5,765.5C 539.457,765.177 543.29,765.177 547,765.5C 547.49,764.207 547.657,762.873 547.5,761.5C 548.833,761.5 550.167,761.5 551.5,761.5C 551.5,760.167 551.5,758.833 551.5,757.5C 558.5,759.167 561.167,756.5 559.5,749.5C 562.167,749.5 564.833,749.5 567.5,749.5C 567.5,746.833 567.5,744.167 567.5,741.5C 574.5,743.167 577.167,740.5 575.5,733.5C 578.167,733.5 580.833,733.5 583.5,733.5C 583.5,730.833 583.5,728.167 583.5,725.5C 588.511,725.666 593.511,725.499 598.5,725C 599.444,722.281 599.777,719.448 599.5,716.5C 604.875,716.828 610.208,716.495 615.5,715.5C 612.914,714.52 610.247,714.187 607.5,714.5C 611.298,713.517 615.298,713.183 619.5,713.5C 619.5,712.5 619.5,711.5 619.5,710.5C 621.199,710.66 622.866,710.494 624.5,710C 623.167,709.333 623.167,708.667 624.5,708C 625.5,707.667 626.5,707.333 627.5,707C 605.167,706.667 582.833,706.333 560.5,706C 557.307,704.974 555.974,702.808 556.5,699.5C 557.833,700.833 559.167,702.167 560.5,703.5C 560.918,704.222 561.584,704.722 562.5,705C 583.167,705.667 603.833,705.667 624.5,705C 625.737,704.768 626.737,704.268 627.5,703.5C 629.498,602.505 630.164,501.172 629.5,399.5 Z"/></g>
<g><path style="opacity:1" fill="#9cc045" d="M 560.5,703.5 C 582.833,703.5 605.167,703.5 627.5,703.5C 626.737,704.268 625.737,704.768 624.5,705C 603.833,705.667 583.167,705.667 562.5,705C 561.584,704.722 560.918,704.222 560.5,703.5 Z"/></g>
<g><path style="opacity:0.235" fill="#7aa81f" d="M 1903.5,730.5 C 1903.9,729.475 1904.56,729.308 1905.5,730C 1904.91,730.464 1904.24,730.631 1903.5,730.5 Z"/></g>
<g><path style="opacity:0.831" fill="#b8e441" d="M 1903.5,730.5 C 1901.14,733.236 1898.14,734.07 1894.5,733C 1897.31,731.451 1900.31,730.618 1903.5,730.5 Z"/></g>
<g><path style="opacity:1" fill="#92a346" d="M 1515.5,733.5 C 1516.25,732.427 1517.25,732.26 1518.5,733C 1517.55,733.483 1516.55,733.649 1515.5,733.5 Z"/></g>
<g><path style="opacity:1" fill="#bbe550" d="M 2007.5,741.5 C 2010.57,741.183 2013.57,741.516 2016.5,742.5C 2015,742.833 2013.5,743.167 2012,743.5C 2010.01,743.431 2008.51,742.765 2007.5,741.5 Z"/></g>
<g><path style="opacity:1" fill="#000000" d="M 1112.5,742.5 C 1113.59,742.62 1114.25,743.287 1114.5,744.5C 1113.26,749.918 1111.26,754.918 1108.5,759.5C 1108.17,759 1107.83,758.5 1107.5,758C 1108.88,752.696 1110.55,747.529 1112.5,742.5 Z"/></g>
<g><path style="opacity:1" fill="#c6f823" d="M 572.5,765.5 C 550.179,780.33 527.513,794.663 504.5,808.5C 501.113,809.018 497.779,809.851 494.5,811C 493.457,812.976 492.123,813.476 490.5,812.5C 492.422,811.04 493.089,809.373 492.5,807.5C 494.359,805.808 496.359,804.308 498.5,803C 497.407,801.635 496.074,801.301 494.5,802C 493.12,803.925 491.62,805.759 490,807.5C 489.667,806.833 489.333,806.167 489,805.5C 488.282,806.451 487.449,806.617 486.5,806C 488.271,804.476 489.938,802.976 491.5,801.5C 494.582,800.983 497.582,800.15 500.5,799C 508.964,793.856 517.131,788.356 525,782.5C 526.44,781.852 527.94,781.519 529.5,781.5C 529.5,780.167 529.5,778.833 529.5,777.5C 534.359,776.33 539.025,774.664 543.5,772.5C 546.13,770.179 549.13,768.346 552.5,767C 554.213,765.622 555.547,763.955 556.5,762C 562.543,759.758 568.21,756.925 573.5,753.5C 573.312,751.897 573.812,750.563 575,749.5C 575.333,750.167 575.667,750.833 576,751.5C 580.531,746.647 586.031,744.147 592.5,744C 590.269,745.147 587.935,746.147 585.5,747C 588.289,747.241 590.956,747.908 593.5,749C 590.387,752.783 586.387,754.116 581.5,753C 582.451,752.282 582.617,751.449 582,750.5C 579.879,753.275 577.712,755.942 575.5,758.5C 576.167,759.167 576.833,759.833 577.5,760.5C 575.955,761.452 574.288,761.785 572.5,761.5C 572.5,762.833 572.5,764.167 572.5,765.5 Z"/></g>
<g><path style="opacity:1" fill="#000000" d="M 1216.5,809.5 C 1217.46,811.265 1217.79,813.265 1217.5,815.5C 1216.5,815.5 1215.5,815.5 1214.5,815.5C 1214.6,813.297 1215.27,811.297 1216.5,809.5 Z"/></g>
<g><path style="opacity:1" fill="#c9eb35" d="M 366.5,896.5 C 360.344,900.747 354.01,904.747 347.5,908.5C 346.108,904.667 347.608,902.334 352,901.5C 352.873,901.735 353.707,902.069 354.5,902.5C 355.719,901.354 357.052,900.354 358.5,899.5C 358.291,898.914 357.957,898.414 357.5,898C 360.432,897.047 363.432,896.547 366.5,896.5 Z"/></g>
<g><path style="opacity:1" fill="#c9f824" d="M 467.5,832.5 C 434.039,854.069 400.372,875.403 366.5,896.5C 363.432,896.547 360.432,897.047 357.5,898C 357.957,898.414 358.291,898.914 358.5,899.5C 357.052,900.354 355.719,901.354 354.5,902.5C 353.707,902.069 352.873,901.735 352,901.5C 347.608,902.334 346.108,904.667 347.5,908.5C 267.907,960.308 187.573,1011.14 106.5,1061C 104.564,1061.81 102.564,1062.31 100.5,1062.5C 92.0184,1063.72 83.6851,1063.72 75.5,1062.5C 73.4024,1061.07 71.0691,1059.9 68.5,1059C 67.1667,1058.33 67.1667,1057.67 68.5,1057C 66.5,1055.33 64.5,1053.67 62.5,1052C 71.4054,1054.05 80.5721,1055.55 90,1056.5C 96.7597,1054.91 103.26,1052.58 109.5,1049.5C 110.722,1047.02 112.722,1046.02 115.5,1046.5C 115.5,1045.5 115.5,1044.5 115.5,1043.5C 118.022,1040.34 121.355,1038.34 125.5,1037.5C 125.238,1036.02 125.571,1034.69 126.5,1033.5C 133.906,1029.13 141.906,1025.13 150.5,1021.5C 151.386,1020.68 151.719,1019.68 151.5,1018.5C 156.452,1015.42 161.118,1011.58 165.5,1007C 166.549,1006.51 167.549,1006.67 168.5,1007.5C 170.956,1005.94 172.956,1003.94 174.5,1001.5C 175.167,1002.17 175.833,1002.83 176.5,1003.5C 177.167,1002.17 177.833,1000.83 178.5,999.5C 179.086,999.709 179.586,1000.04 180,1000.5C 180.98,999.019 182.147,997.685 183.5,996.5C 190.131,994.182 196.464,991.348 202.5,988C 205.704,985.166 208.871,982.333 212,979.5C 212.333,979.833 212.667,980.167 213,980.5C 221.83,975.338 230.664,970.171 239.5,965C 240.337,963.989 240.67,962.822 240.5,961.5C 246.677,962.491 250.677,959.991 252.5,954C 255.119,953.849 257.453,953.015 259.5,951.5C 260.086,951.709 260.586,952.043 261,952.5C 261.583,950.998 262.416,949.665 263.5,948.5C 274.422,942.395 284.922,935.728 295,928.5C 295.561,929.022 296.228,929.355 297,929.5C 303.757,923.118 311.09,917.451 319,912.5C 320.356,913.38 321.856,913.714 323.5,913.5C 323.5,912.5 323.5,911.5 323.5,910.5C 324.873,910.657 326.207,910.49 327.5,910C 334.231,902.464 342.231,896.631 351.5,892.5C 356.051,887.878 361.051,883.711 366.5,880C 369.21,878.253 372.21,877.253 375.5,877C 376.337,875.989 376.67,874.822 376.5,873.5C 377.5,873.5 378.5,873.5 379.5,873.5C 379.5,872.5 379.5,871.5 379.5,870.5C 382.833,870.5 384.5,868.833 384.5,865.5C 390.599,866.442 395.599,864.609 399.5,860C 404.086,859.612 407.752,857.612 410.5,854C 419.761,851.083 427.761,846.083 434.5,839C 449.829,830.671 464.829,821.838 479.5,812.5C 480.95,811.15 481.617,809.484 481.5,807.5C 482.552,807.351 483.552,807.517 484.5,808C 483.167,808.667 483.167,809.333 484.5,810C 482.5,811.333 480.833,813 479.5,815C 481.568,814.983 483.234,813.983 484.5,812C 486.134,811.506 487.801,811.34 489.5,811.5C 489.007,813.806 488.674,816.139 488.5,818.5C 486.801,818.34 485.134,818.506 483.5,819C 483.833,819.333 484.167,819.667 484.5,820C 481.551,820.39 479.384,821.89 478,824.5C 477.667,823.833 477.333,823.167 477,822.5C 475.447,824.694 473.281,825.86 470.5,826C 470.957,826.414 471.291,826.914 471.5,827.5C 470.311,828.429 468.978,828.762 467.5,828.5C 467.5,829.833 467.5,831.167 467.5,832.5 Z"/></g>
<g><path style="opacity:1" fill="#b9dd45" d="M 63.5,1060.5 C 67.4616,1061.38 71.4616,1062.04 75.5,1062.5C 83.6851,1063.72 92.0184,1063.72 100.5,1062.5C 87.9696,1066.56 75.6363,1065.9 63.5,1060.5 Z"/></g>
</svg>
