<svg xmlns="http://www.w3.org/2000/svg" viewBox="0 0 824.3 360.63"><defs><style>.cls-1{fill:#e43f48;}.cls-2{fill:#fff;}</style></defs><title>onechannel_logo</title><g id="Layer_2" data-name="Layer 2"><g id="Layer_1-2" data-name="Layer 1"><path class="cls-1" d="M265.6,60.36h31.33a1.32,1.32,0,0,1,1.32,1.32V265.23a1.33,1.33,0,0,0,1.33,1.33h74.1a1.33,1.33,0,0,0,1.33-1.33V1.32A1.32,1.32,0,0,0,373,.2L264.89,57.92a1.33,1.33,0,0,0,.71,2.44"/><path class="cls-1" d="M137.87,274.4C59.49,274.4,0,216.76,0,138.37s59.49-136,137.87-136S275.74,60,275.74,138.37s-59.49,136-137.87,136m0-200.58c-35.5,0-61.33,30-61.33,64.55s25.82,64.55,61.33,64.55,61.33-30,61.33-64.55-25.82-64.55-61.33-64.55"/><path class="cls-1" d="M820.38,161.89h-187a2.31,2.31,0,0,0-2.28,2.72c5.67,28.78,30.4,45.69,59.47,45.69,20.34,0,33.59-8,45.82-23.05a2.46,2.46,0,0,1,1.92-.92H811.7a2.48,2.48,0,0,1,2.27,3.5c-21.75,47.39-63.55,82.14-116.66,84.86-72.47,3.71-137.62-54.4-142-126.83-4.75-77.87,55.89-146,133.92-146,78.38,0,135.1,62.71,135.1,139.71a103.28,103.28,0,0,1-1.46,18.24,2.5,2.5,0,0,1-2.46,2M689.65,66.44c-26.58,0-50.18,14.9-57.31,40.61a2.49,2.49,0,0,0,2.38,3.2H744.58a2.49,2.49,0,0,0,2.38-3.2c-7.12-25.71-30.73-40.61-57.31-40.61"/><path class="cls-1" d="M508.57,24C492,10.19,464.76,1.89,443.09,1.89c-22.61,0-40.76,5.2-55.21,18.29a2,2,0,0,0-.65,1.48v61A1.94,1.94,0,0,0,390.53,84c6.71-6.46,16.59-10.21,30.89-10.21,34.59,0,40.12,24.44,40.12,53V264.6a2,2,0,0,0,2,2h72.62a2,2,0,0,0,2-2v-158c0-30-5.08-62.25-29.51-82.54"/></g><g id="Layer_2-2" data-name="Layer 2"><rect class="cls-1" x="298.51" y="289.97" width="515.22" height="70.65"/></g><g id="Layer_4" data-name="Layer 4"><path class="cls-2" d="M422.9,330.72v-.13c0-9.74,7.57-17.94,18.45-17.94,7.13,0,11.71,3.05,14.7,7.7l-8.21,6.11c-1.72-2.29-3.44-3.63-6.43-3.63-3.88,0-6.75,3.44-6.75,7.64v.13c0,4.39,2.8,7.83,6.87,7.83,2.86,0,4.65-1.34,6.62-3.56l8.08,5.85c-3.12,4.64-7.76,7.89-15.33,7.89A17.76,17.76,0,0,1,422.9,330.72Z"/><path class="cls-2" d="M463.69,301.33h12.09v16.73c2.23-2.86,5.41-5.47,10.31-5.47,7.38,0,11.71,4.77,11.71,12.66v22.52H485.7V329.13c0-3.82-2-5.79-4.84-5.79s-5.09,2-5.09,5.79v18.64H463.69Z"/><path class="cls-2" d="M505.49,337.91v-.13c0-7.13,5.41-10.82,13.49-10.82a26.07,26.07,0,0,1,8.27,1.34v-.57c0-3.56-2.23-5.6-6.87-5.6A24.24,24.24,0,0,0,510.9,324l-2.48-8.53a34.58,34.58,0,0,1,13.93-2.67c6.17,0,10.37,1.46,13.11,4.2,2.61,2.54,3.69,6.11,3.69,10.94v19.79h-12v-3.56a12.88,12.88,0,0,1-10.12,4.33C510.52,348.54,505.49,344.79,505.49,337.91Zm21.89-2.61v-1.59a12.67,12.67,0,0,0-4.71-.89c-3.56,0-5.54,1.72-5.54,4.26v.13c0,2.35,1.78,3.75,4.26,3.75C525,341,527.38,338.8,527.38,335.3Z"/><path class="cls-2" d="M548.51,313.35H560.6v4.84c2.23-2.86,5.41-5.6,10.31-5.6,7.38,0,11.71,4.77,11.71,12.66v22.52H570.53V329.13c0-3.82-2-5.79-4.84-5.79s-5.09,2-5.09,5.79v18.64H548.51Z"/><path class="cls-2" d="M592,313.35h12.09v4.84c2.23-2.86,5.41-5.6,10.31-5.6,7.38,0,11.71,4.77,11.71,12.66v22.52H614.05V329.13c0-3.82-2-5.79-4.84-5.79s-5.09,2-5.09,5.79v18.64H592Z"/><path class="cls-2" d="M634.16,330.72v-.13c0-10.05,7.19-18,17.37-18,11.9,0,17.37,8.72,17.37,18.83v1.21a8.55,8.55,0,0,1-.06,1.27h-23c1,3.82,3.63,5.66,7.44,5.66,2.86,0,5.15-1,7.64-3.5l6.68,5.54c-3.31,4.26-8.08,7-15,7C641.8,348.6,634.16,341.41,634.16,330.72Zm23.42-3c-.45-3.82-2.67-6.24-6-6.24s-5.28,2.42-6,6.24Z"/><path class="cls-2" d="M677.5,301.33h12.09v46.45H677.5Z"/></g></g></svg>