<svg xmlns="http://www.w3.org/2000/svg" viewBox="0 0 125 68"><path d="M21,50.1c-8.4,0-13.8-3.7-13.8-13.7S13.8,21,22.4,21s13.7,5.1,13.7,13.9S29.3,50.1,21,50.1Zm.7-20.4c-2,0-4,1.7-4,5.6s1.1,6,3.8,6,4-2.3,4-5.7S24.5,29.7,21.7,29.7Z" style="fill:#080414"/><path d="M54.1,49.5V31.9c0-1.4-.4-2.3-1.5-2.3s-4.4,3.3-4.4,6.3V49.5H38V21.7h9.4a17.6,17.6,0,0,1-.3,3.7h.1A10.2,10.2,0,0,1,56.1,21c6.1,0,8.2,4.1,8.2,8.8V49.5Z" style="fill:#080414"/><path d="M92.4,38.8H76.7c.2,1.9,2,3.5,6,3.5a20.8,20.8,0,0,0,8.2-1.7l.9,7.6A31.5,31.5,0,0,1,81,50.1c-9.3,0-14.6-4.3-14.6-14.2S71.3,21,80.3,21s12.5,5.7,12.5,13.4A22.5,22.5,0,0,1,92.4,38.8ZM80,28.4c-1.9,0-3.3,1.5-3.4,3.8h6.3C83,29.5,81.8,28.4,80,28.4Z" style="fill:#080414"/><path d="M108.4,15.9A11.7,11.7,0,1,0,120,27.5,11.6,11.6,0,0,0,108.4,15.9Zm0,21.2a9.6,9.6,0,1,1,9.5-9.6A9.6,9.6,0,0,1,108.4,37.1Z" style="fill:#080414;fill-rule:evenodd"/><polygon points="112.1 31 112.1 21.5 102.5 24.9 102.5 27.3 105.7 26.1 105.7 33.3 112.1 31" style="fill:#080414;fill-rule:evenodd"/></svg>