<?xml version="1.0" encoding="UTF-8"?><svg id="_Слой_1" xmlns="http://www.w3.org/2000/svg" viewBox="0 0 2272 477"><defs><style>.cls-1{fill:#144253;}.cls-2{fill:#fddb27;}.cls-2,.cls-3{fill-rule:evenodd;}.cls-3{fill:#00b2ca;}</style></defs><path class="cls-2" d="M2014.62,399.74v-89.65c0-44.15,44.47-68.71,88.94-68.71h68.75v65.27c0,45.32-47.96,93.09-92.69,93.09h-64.99Z"/><path class="cls-3" d="M1992.2,128.32c-45.02,0-90.06,45.75-90.06,90.45v180.89h114.31v-86.97c0-44.71,45.04-69.58,90.06-69.58h65.81v-114.8h-180.12Z"/><g><path class="cls-1" d="M296.74,266.15c0,57.16-31.25,137.95-132.23,137.95S31.9,323.31,31.9,266.15s31.25-137.57,132.61-137.57,132.23,81.93,132.23,137.57Zm-62.11,0c0-19.82-8.76-80.03-70.12-80.03s-70.5,60.21-70.5,80.03,8.76,80.79,70.5,80.79,70.12-60.97,70.12-80.79Z"/><path class="cls-1" d="M335.22,129.72l155.86,137.95V133.15h60.97V400.67l-4.19,1.52-155.48-139.47v137.19h-61.35V131.25l4.19-1.52Z"/><path class="cls-1" d="M650.36,189.93h-69.74v-56.78h201.59v56.78h-70.5v209.97h-61.35V189.93Z"/><path class="cls-1" d="M962.83,295.11V133.15h61.35v161.96c0,45.35-27.44,107.46-106.7,107.46s-106.7-62.11-106.7-107.46V133.15h60.97v161.96c0,14.1,9.53,51.06,45.73,51.06s45.35-36.96,45.35-51.06Z"/><path class="cls-1" d="M1169.75,240.23c36.96,12.96,77.74,31.25,77.74,80.03s-40.39,82.69-98.7,82.69c-39.25,0-70.88-10.29-105.56-28.96l27.06-51.06c26.29,12.58,52.21,22.86,76.21,22.86,19.82,0,36.58-9.53,36.58-22.86,0-16.77-20.58-24.01-45.73-32.01-38.49-12.58-86.88-27.44-86.88-82.31,0-49.92,36.96-79.64,88.03-79.64,17.53,0,54.87,2.29,102.51,25.91l-22.48,51.83c-13.34-5.33-51.83-20.2-76.21-20.2-16.01,0-30.87,4.95-30.49,19.43,1.52,16.39,28.2,23.63,57.92,34.3Z"/><path class="cls-1" d="M1338.18,189.93h-69.74v-56.78h201.59v56.78h-70.5v209.97h-61.35V189.93Z"/><path class="cls-1" d="M1559.57,399.9h-60.97V133.15h60.97V399.9Z"/><path class="cls-1" d="M1582.43,399.9V133.15h61.35v101.37l88.41-101.37h71.64l1.14,3.81-113.18,125.37,121.18,133.76-1.52,3.81h-70.88l-96.79-109.75v109.75h-61.35Z"/></g><path class="cls-1" d="M542,21c-21,0-42,0-63,0l-55,79h64.33c17.89-26.33,35.78-52.67,53.67-79Z"/><path class="cls-1" d="M1023,21c-21,0-42,0-63,0l-55,79h64.33c17.89-26.33,35.78-52.67,53.67-79Z"/></svg>