<?xml version="1.0" encoding="utf-8"?>
<!-- Generator: Adobe Illustrator 26.2.1, SVG Export Plug-In . SVG Version: 6.00 Build 0)  -->
<svg version="1.1" id="Layer_1" xmlns="http://www.w3.org/2000/svg" xmlns:xlink="http://www.w3.org/1999/xlink" x="0px" y="0px"
	 viewBox="0 0 150 26" style="enable-background:new 0 0 150 26;" xml:space="preserve">
<style type="text/css">
	.st0{fill:#c01c1c;}
	.st1{fill-rule:evenodd;clip-rule:evenodd;fill:#c01c1c;}
</style>
<g>
	<g>
		<path class="st0" d="M85.55,10.03l0.09,1.95c1.21-1.49,2.79-2.24,4.73-2.24c3.34,0,5.03,1.85,5.06,5.55v10.25h-2.7V15.27
			c-0.01-1.12-0.27-1.94-0.78-2.48c-0.51-0.53-1.31-0.8-2.39-0.8c-0.88,0-1.65,0.23-2.31,0.69c-0.66,0.46-1.18,1.06-1.55,1.81v11.05
			h-2.7v-15.5H85.55z"/>
	</g>
	<g>
		<path class="st0" d="M105.78,25.82c-2.14,0-3.77-0.69-5.11-2.07c-1.34-1.38-2.01-3.23-2.01-5.54v-0.49c0-1.54,0.3-2.91,0.9-4.12
			c0.6-1.21,1.43-2.15,2.51-2.84c1.07-0.68,2.24-1.02,3.49-1.02c2.05,0,3.64,0.66,4.78,1.99c1.14,1.33,1.71,3.23,1.71,5.7v1.1
			h-10.68c0.04,1.53,0.49,2.76,1.36,3.7c0.87,0.94,1.72,1.39,3.06,1.41c1.44,0.02,3.05-0.97,3.6-2.48h2.66
			C111.4,24.01,108.42,25.82,105.78,25.82z M105.55,11.92c-1.09,0-2,0.39-2.74,1.17c-0.74,0.78-1.2,1.87-1.37,3.27h7.9v-0.2
			c-0.08-1.35-0.45-2.39-1.11-3.13C107.57,12.29,106.68,11.92,105.55,11.92z"/>
	</g>
	<g>
		<path class="st0" d="M130.18,21.88l3.1-11.85h2.75l-4.32,15.5h-2.97l-3.54-11.75l-3.44,11.75h-2.97l-4.3-15.5h2.74l3.17,11.61
			l3.75-11.61h2.22L130.18,21.88z"/>
	</g>
	<g>
		<path class="st0" d="M147.41,21.42c0-0.72-0.26-1.27-0.79-1.67c-0.53-0.4-1.45-0.74-2.76-1.02c-1.31-0.29-2.35-0.63-3.12-1.03
			c-0.77-0.4-1.34-0.88-1.71-1.43c-0.37-0.55-0.55-1.21-0.55-1.98c0-1.27,0.52-2.34,1.57-3.22c1.05-0.88,2.39-1.32,4.02-1.32
			c1.72,0,3.11,0.45,4.17,1.36c1.07,0.91,1.6,2.07,1.6,3.48h-2.6c0-0.73-0.3-1.35-0.9-1.88c-0.6-0.53-1.36-0.79-2.27-0.79
			c-0.94,0-1.68,0.21-2.21,0.63c-0.53,0.42-0.8,0.97-0.8,1.65c0,0.64,0.25,1.12,0.74,1.45c0.49,0.32,1.39,0.64,2.68,0.93
			c1.29,0.3,2.34,0.65,3.14,1.06c0.8,0.41,1.4,0.91,1.78,1.48c0.39,0.58,0.58,1.28,0.58,2.11c0,1.39-0.54,2.5-1.62,3.33
			c-1.08,0.84-2.48,1.25-4.21,1.25c-1.21,0-2.28-0.22-3.22-0.66c-0.93-0.44-1.66-1.05-2.19-1.84c-0.53-0.79-0.79-1.64-0.79-2.56
			h2.59c0.05,0.89,0.39,1.59,1.04,2.11c0.65,0.52,1.5,0.78,2.57,0.78c0.98,0,1.76-0.2,2.36-0.61
			C147.12,22.64,147.41,22.1,147.41,21.42z"/>
	</g>
	<g>
		<path class="st1" d="M12.84,0C5.75,0,0,5.75,0,12.84c0,7.09,5.75,12.84,12.84,12.84c7.09,0,12.84-5.75,12.84-12.84
			C25.68,5.75,19.93,0,12.84,0z M12.84,21.29c-4.66,0-8.45-3.79-8.45-8.45c0-4.66,3.79-8.45,8.45-8.45c4.67,0,8.45,3.79,8.45,8.45
			C21.29,17.5,17.5,21.29,12.84,21.29z"/>
		<path class="st1" d="M32.7,0c-3.55,0-6.42,2.87-6.42,6.42s2.87,6.42,6.42,6.42c3.55,0,6.42-2.87,6.42-6.42S36.25,0,32.7,0z
			 M32.7,9.75c-1.84,0-3.33-1.49-3.33-3.33s1.49-3.33,3.33-3.33c1.84,0,3.33,1.49,3.33,3.33S34.54,9.75,32.7,9.75z"/>
		<path class="st1" d="M45.54,0c-3.55,0-6.42,2.87-6.42,6.42s2.87,6.42,6.42,6.42c3.55,0,6.42-2.87,6.42-6.42S49.08,0,45.54,0z
			 M45.54,9.75c-1.84,0-3.33-1.49-3.33-3.33s1.49-3.33,3.33-3.33c1.84,0,3.33,1.49,3.33,3.33S47.37,9.75,45.54,9.75z"/>
		<path class="st1" d="M32.7,12.84c-3.55,0-6.42,2.87-6.42,6.42s2.87,6.42,6.42,6.42c3.55,0,6.42-2.87,6.42-6.42
			S36.25,12.84,32.7,12.84z M32.7,22.58c-1.84,0-3.33-1.49-3.33-3.33s1.49-3.33,3.33-3.33c1.84,0,3.33,1.49,3.33,3.33
			S34.54,22.58,32.7,22.58z"/>
		<path class="st1" d="M62.2,0c-1.77,0-3.21,1.44-3.21,3.21c0,1.77,1.44,3.21,3.21,3.21c1.77,0,3.21-1.44,3.21-3.21
			C65.41,1.44,63.97,0,62.2,0z M62.2,4.62c-0.78,0-1.41-0.63-1.41-1.41c0-0.78,0.63-1.41,1.41-1.41c0.78,0,1.41,0.63,1.41,1.41
			C63.61,3.99,62.98,4.62,62.2,4.62z"/>
		<path class="st1" d="M68.62,0c-1.77,0-3.21,1.44-3.21,3.21c0,1.77,1.44,3.21,3.21,3.21s3.21-1.44,3.21-3.21
			C71.83,1.44,70.39,0,68.62,0z M68.62,4.62c-0.78,0-1.41-0.63-1.41-1.41c0-0.78,0.63-1.41,1.41-1.41s1.41,0.63,1.41,1.41
			C70.03,3.99,69.4,4.62,68.62,4.62z"/>
		<path class="st1" d="M75.04,6.42c-1.77,0-3.21,1.44-3.21,3.21c0,1.77,1.44,3.21,3.21,3.21c1.77,0,3.21-1.44,3.21-3.21
			C78.25,7.86,76.81,6.42,75.04,6.42z M75.04,11.04c-0.78,0-1.41-0.63-1.41-1.41c0-0.78,0.63-1.41,1.41-1.41
			c0.78,0,1.41,0.63,1.41,1.41C76.45,10.41,75.82,11.04,75.04,11.04z"/>
		<path class="st1" d="M75.04,12.84c-1.77,0-3.21,1.44-3.21,3.21s1.44,3.21,3.21,3.21c1.77,0,3.21-1.44,3.21-3.21
			S76.81,12.84,75.04,12.84z M75.04,17.46c-0.78,0-1.41-0.63-1.41-1.41s0.63-1.41,1.41-1.41c0.78,0,1.41,0.63,1.41,1.41
			S75.82,17.46,75.04,17.46z"/>
		<path class="st1" d="M75.04,19.26c-1.77,0-3.21,1.44-3.21,3.21c0,1.77,1.44,3.21,3.21,3.21c1.77,0,3.21-1.44,3.21-3.21
			C78.25,20.7,76.81,19.26,75.04,19.26z M75.04,23.88c-0.78,0-1.41-0.63-1.41-1.41c0-0.78,0.63-1.41,1.41-1.41
			c0.78,0,1.41,0.63,1.41,1.41C76.45,23.25,75.82,23.88,75.04,23.88z"/>
		<path class="st1" d="M68.62,19.26c-1.77,0-3.21,1.44-3.21,3.21c0,1.77,1.44,3.21,3.21,3.21s3.21-1.44,3.21-3.21
			C71.83,20.7,70.39,19.26,68.62,19.26z M68.62,23.88c-0.78,0-1.41-0.63-1.41-1.41c0-0.78,0.63-1.41,1.41-1.41s1.41,0.63,1.41,1.41
			C70.03,23.25,69.4,23.88,68.62,23.88z"/>
		<path class="st1" d="M62.2,19.26c-1.77,0-3.21,1.44-3.21,3.21c0,1.77,1.44,3.21,3.21,3.21c1.77,0,3.21-1.44,3.21-3.21
			C65.41,20.7,63.97,19.26,62.2,19.26z M62.2,23.88c-0.78,0-1.41-0.63-1.41-1.41c0-0.78,0.63-1.41,1.41-1.41
			c0.78,0,1.41,0.63,1.41,1.41C63.61,23.25,62.98,23.88,62.2,23.88z"/>
		<path class="st1" d="M55.78,12.84c-1.77,0-3.21,1.44-3.21,3.21c0,1.77,1.44,3.21,3.21,3.21s3.21-1.44,3.21-3.21
			C58.99,14.28,57.55,12.84,55.78,12.84z M55.78,17.46c-0.78,0-1.41-0.63-1.41-1.41c0-0.78,0.63-1.41,1.41-1.41s1.41,0.63,1.41,1.41
			C57.19,16.83,56.56,17.46,55.78,17.46z"/>
		<path class="st1" d="M55.78,6.42c-1.77,0-3.21,1.44-3.21,3.21c0,1.77,1.44,3.21,3.21,3.21s3.21-1.44,3.21-3.21
			C58.99,7.86,57.55,6.42,55.78,6.42z M55.78,11.04c-0.78,0-1.41-0.63-1.41-1.41c0-0.78,0.63-1.41,1.41-1.41s1.41,0.63,1.41,1.41
			C57.19,10.41,56.56,11.04,55.78,11.04z"/>
	</g>
</g>
</svg>
