<?xml version="1.0" encoding="utf-8"?>
<!-- Generator: Adobe Illustrator 27.1.1, SVG Export Plug-In . SVG Version: 6.00 Build 0)  -->
<svg version="1.1" id="Layer_1" xmlns="http://www.w3.org/2000/svg" xmlns:xlink="http://www.w3.org/1999/xlink" x="0px" y="0px"
	 viewBox="0 0 324.1 149.9" style="enable-background:new 0 0 324.1 149.9;" xml:space="preserve">
<style type="text/css">
	.st0{fill:#549AF5;}
</style>
<g id="Page-1">
	<path id="POP_Oto_Basic_BW" class="st0" d="M266.3,106.8c-13.5,1.5-24.9-12.6-27.1-31v-0.3c-2.3-18.7,5.4-35.2,19.3-36.7
		c13.8-1.5,25.3,13.3,27.2,32v0.3C287.6,89.5,279.8,105.3,266.3,106.8 M70,107.2c-12.2,1.3-22.5-11.4-24.6-28.1v-0.3
		c-2.1-16.9,4.9-31.9,17.5-33.2c12.5-1.3,22.9,12,24.6,28.9v0.3C89.3,91.5,82.2,105.9,70,107.2 M254,0c-22.3,0-40.4,10.6-51.8,27
		l0.3-5.9c0.1-0.9-0.6-1.6-1.4-1.6l-98-1c-0.8,0-1.5,0.7-1.5,1.6l0.2,8.3C90.8,17.3,76,10.5,58.9,10.5c-37.2,0-61.7,32.6-58.6,70.7
		v0.4c3,36.1,29.8,63.8,63.8,63.5c33.8-0.4,58.2-28.7,58.2-64.5v-0.4c0-8.3-1.3-16.3-3.7-23.7l19.1-0.9c0.8,0,1.6,0.6,1.6,1.5
		l5,69.4h-11.8c-0.9,0-1.5,0.7-1.5,1.6l2.4,20.2c0,0.9,0.7,1.6,1.5,1.6l41.9-3.8c0.8,0,1.5-0.7,1.5-1.6l1.4-16.4
		c0-0.9-0.7-1.6-1.5-1.6h-12.1l0.3-70.3c0-0.9,0.7-1.5,1.5-1.4l22.2,2.3c-1.1,6.7-1.5,13.8-0.9,21.1v0.4
		c3.3,39.9,32.9,70.5,70.4,70.1c37.5-0.5,64.5-31.8,64.5-71.4v-0.4C324.1,35.3,294.9,0,254,0"/>
</g>
</svg>
