<?xml version="1.0" encoding="UTF-8"?> <svg xmlns="http://www.w3.org/2000/svg" xmlns:xlink="http://www.w3.org/1999/xlink" version="1.1" id="Capa_1" x="0px" y="0px" viewBox="0 0 252 164" style="enable-background:new 0 0 252 164;" xml:space="preserve"> <style type="text/css"> .st0{fill:#700BD8;} .st1{fill:#FFB71B;} .st2{fill:#FFFFFF;} </style> <g> <path class="st0" d="M115.4,28.5c-1.8,1.2-4,0.8-5.4-2.1c-0.5-1.1-1-2.3-1.7-3.8c-1.9-4.3-3.8-8.6-5.8-12.9c-1-2.1-2.4-3.9-4.1-5.3 c-1.8-1.4-3.2-2.2-5.4-2.5c-1.7-0.2-3.4-0.3-5.1,0l-1.2,0.2c-1.6,0.2-3,1-4.4,1.9c-0.4,0.2-0.8,0.3-1.2,0.1c-3-1.6-6.3-2.5-9.7-2.4 c-0.5,0-0.9,0-1.4,0l-1,0c-0.6,0-1.9,0-3.4,0.4c-0.3,0.1-0.7,0.2-1,0.3c-0.2,0.1-0.5,0.1-0.7,0c-2.9-0.9-5.9-0.9-8.7,0.1 c-0.2,0.1-0.5,0.1-0.7,0C53.1,2,51.6,1.7,50,1.7c-0.1,0-0.2,0-0.2,0c-2.3,0-4.6,0.6-6.7,1.8c0,0-0.2,0.1-0.2,0 c-1.3-0.8-2.8-1.2-4.3-1.4c-1.8-0.2-3.7-0.3-5.5,0l-1.1,0.1c-1,0.1-1.9,0.5-2.7,1c-0.3,0.2-0.7,0.2-1,0c-2.4-1.2-5.1-1.9-7.9-2 c-0.7,0-1.4,0-2.2,0c-0.5,0-1.1,0-1.6,0c-3.8-0.1-7.4,1.4-10,4.1c-2.6,2.7-4.1,6.3-4,10c0,1.5,0,7.3,0,10.4l0,2.6v0 c0,0.9,0.1,2.2,0.5,3.7c0.1,0.4,0.3,0.8,0.4,1.2c0.3,0.7,0.3,1.5-0.1,2.2c-1,2.2-0.8,4.5-1,7c-0.8,11.8-2.9,51.4,1,66.8 c2.3,8.9,9.5,15.2,18.7,15.2c1.7,0,3.3-0.2,5-0.6c5.2-1.3,9.6-4.6,12.3-9.2c2.7-4.6,3.5-10,2.2-15.2c0,0,0-0.1,0-0.1 c4.3,1.6,8.1,4.2,11.3,7.8c6.4,7.3,17,8.8,25.1,4.3c1.4-0.8,3.1-0.2,3.9,1.2c0.6,1.2,1.3,2.3,1.9,3.5c9.6,16.3,23.1,29.2,39.1,37.3 c12.5,6.4,26,9.6,40.1,9.6c0.2,0,0.3,0,0.5,0c5,0,10.1-0.5,15.2-1.3c21.3-3.4,43.1-13.8,64.8-30.9c4.2-3.3,6.9-8.1,7.5-13.4 c0.6-5.3-0.9-10.6-4.2-14.8h0c-2-2.6-4.5-4.5-7.3-5.8c-1.2-0.6-1.9-2-1.6-3.3c1.6-6.7,1.1-13.7-1.6-20.1c-0.8-1.9-1.7-3.7-2.7-5.3 c-0.7-1.1-0.5-2.6,0.5-3.6c0.8-0.8,1.6-1.6,2.3-2.5c3.2-4.3,4.6-9.6,3.9-14.9c-0.6-4.9-3-9.4-6.7-12.7l-0.8-0.6 c-0.3-0.3-0.7-0.5-1-0.7c-2-1.4-7.3-4.9-14.4-7.1c-13.2-4.1-26.3-1.5-35.9,6.9c-2.3,2.1-4.4,4.5-6.1,7.1c-1,1.6-3.2,1.8-4.5,0.5 c-0.4-0.5-0.9-0.9-1.3-1.3c-11.9-11.4-30.9-15-43.7-13.9C120.8,25.5,117.5,27.1,115.4,28.5"></path> <path class="st1" d="M51,27.6c1-0.5,1.5-1.4,1.5-2.5c0-1.6,0-3.1,0-4.7c0-0.1,0-0.3,0-0.4c0.1,0.1,4.3,5.6,5.1,6.7 c0.8,1.1,2.3,1.3,3.3,0.8c1-0.5,1.5-1.4,1.5-2.5c0-4.2,0-8.3,0-12.5c0-0.2,0-0.4,0-0.7c-0.3-2.1-2.6-2.8-4.1-1.8 c-0.8,0.5-1.2,1.2-1.2,2.2c0,1.5,0,4.8,0,5c-0.2-0.2-3.4-4.4-4.9-6.4c-0.6-0.8-1.4-1.2-2.5-1.2c-1.3,0-2.6,1.2-2.6,2.6 c0,4.3,0,8.7,0,13C47.2,27.2,49.2,28.5,51,27.6"></path> <path class="st1" d="M71.9,22.7c-0.1,0-0.1,0-0.2,0c-0.4,0-0.4,0-0.4-0.4c0-1.2,0-2.3,0-3.5c0-1.2,0-2.3,0-3.5c0-0.4,0-0.4,0.4-0.3 c1.6,0.1,3.1,1.4,3.5,3.1C75.6,20.3,74.1,22.3,71.9,22.7 M80.4,17.7c-0.3-2.7-1.7-4.8-3.9-6.3c-1.5-1.1-3.2-1.6-5.1-1.6 c-0.8,0-1.7,0-2.5,0c-0.3,0-0.6,0-0.9,0.1c-1.2,0.3-2.1,1.3-2.1,2.6c0,2.1,0,10.6,0,12.7c0,1.6,1,2.7,2.6,2.8 c0.8,0.1,1.7,0.1,2.5,0.1c0.7,0,1.5-0.1,2.2-0.2C77.4,26.9,81.1,23,80.4,17.7"></path> <path class="st1" d="M90.4,16.7c0.6,1.3,1.1,2.5,1.6,3.7c-0.3,0.1-2.5,0.1-3.2,0C89.3,19.2,89.8,18,90.4,16.7 M87,26.5 c0.2-0.5,0.4-1,0.7-1.5c0.1-0.2,0.2-0.3,0.4-0.3c1.5,0,3,0,4.5,0c0.3,0,0.4,0.1,0.5,0.3c0.2,0.5,0.4,1,0.7,1.5 c0.7,1.5,2.5,2,3.8,1.3c1.4-0.7,2-2.3,1.4-3.7c-1.9-4.3-3.8-8.5-5.8-12.8c-0.3-0.8-0.9-1.3-1.8-1.5c-0.5-0.1-1-0.1-1.5-0.1 c-1.1,0.1-1.9,0.6-2.4,1.7c-1.9,4.3-3.8,8.5-5.7,12.8c-0.2,0.4-0.2,0.8-0.2,1.2c0,0.2,0,0.4,0.1,0.6c0.3,1.2,1.3,2,2.5,2.2 C85.3,28.2,86.5,27.6,87,26.5"></path> <path class="st1" d="M35.8,16.7c0.6,1.3,1.1,2.5,1.6,3.7h-3.3C34.7,19.2,35.2,18,35.8,16.7 M27.1,26.1c0.4,1.2,1.3,1.8,2.5,2 c1.1,0.1,2.2-0.5,2.7-1.5c0.2-0.5,0.5-1,0.7-1.5c0.1-0.2,0.2-0.3,0.5-0.3c1.5,0,3,0,4.5,0c0.3,0,0.4,0.1,0.5,0.4 c0.2,0.5,0.4,1,0.7,1.5c0.7,1.4,2.5,2,3.8,1.3c1.4-0.7,1.9-2.3,1.3-3.7c-0.1-0.2-3.9-8.6-5.7-12.6c-0.6-1.2-1.5-1.8-2.8-1.8 c-0.4,0-0.7,0-0.9,0.1c-1,0.2-1.7,0.9-2.1,1.8c-1.1,2.6-4.9,11-5.7,12.6C26.9,24.8,26.8,25.5,27.1,26.1"></path> <path class="st1" d="M19,14.5c0.4,0,0.8,0,1.2,0c0.7,0.1,1.3,0.7,1.3,1.4c0,0.7-0.5,1.4-1.2,1.5c-0.4,0.1-0.9,0-1.3,0 c-0.2,0-0.2-0.1-0.2-0.2c0-0.4,0-2.1,0-2.5C18.8,14.6,18.9,14.5,19,14.5 M13.5,25.2c0,0.2,0,0.5,0.1,0.7c0.4,1.3,1.6,2.1,2.9,1.9 c1.3-0.2,2.2-1.3,2.2-2.6c0-0.7,0-1.4,0-2.1c0-0.4,0-0.4,0.4-0.4c0.7,0,1.4,0,2-0.1c4.1-0.8,6.5-4.9,5.3-8.7 c-0.8-2.6-3.2-4.8-6.5-4.8c-1.2,0-2.5,0-3.7,0c-1.7,0-2.8,1.4-2.8,2.8C13.6,14.2,13.5,23,13.5,25.2"></path> <path class="st1" d="M90.8,53.3L90.8,53.3c2.4,0,4.6-0.9,6.3-2.6c1.7-1.7,2.6-3.9,2.6-6.3c0-2.4-0.9-4.6-2.6-6.3 c-1.7-1.7-3.9-2.6-6.2-2.6h0c-2.4,0-4.6,0.9-6.3,2.6c-1.7,1.7-2.6,3.9-2.6,6.3c0,2.4,0.9,4.6,2.6,6.3 C86.3,52.4,88.5,53.3,90.8,53.3"></path> <path class="st2" d="M53,73.1c3.2-2.4,6.1-5.1,8.9-8.1c8.1-8.9,11.7-17.8,11.9-18.2c1.7-4.3-0.4-9.1-4.6-10.8 c-4.2-1.7-9.1,0.4-10.8,4.6c0,0.1-2.9,6.9-9.1,13.6c-5.9,6.4-12.8,10.6-20.5,12.5c0.2-7.5,0.6-15.4,1-22.4c0.3-4.6-3.2-8.5-7.7-8.8 c-4.6-0.3-8.5,3.2-8.8,7.7c-0.3,4.9-3,48.7,0.7,63.1c0.9,3.7,4.2,6.2,8,6.2c0.7,0,1.4-0.1,2.1-0.3c4.4-1.1,7.1-5.7,6-10.1 c-0.8-3-1.2-8.6-1.4-16.8c9.5-0.3,22.7,2,33,13.7c3,3.4,8.3,3.8,11.7,0.9c1.7-1.5,2.7-3.6,2.9-5.8c0.1-2.2-0.6-4.3-2-5.9 C68.2,81.5,61.1,76.4,53,73.1"></path> <path class="st2" d="M173.9,93.5c0.4,0.6,9.6,15.5,27,15.5c0.1,0,0.2,0,0.4,0c1.2,0,2.5-0.1,3.7-0.3c8-1,14.5-5,18.4-11.2 c3.9-6.1,4.6-13.5,2-19.7c-4.5-10.7-13.4-12.6-19.3-13.9c-3.6-0.8-5.8-1.3-7.2-2.8c-0.2-0.2-0.6-1-0.5-2.3c0.1-1.7,0.8-3.3,1.9-4.4 c5.4-4.8,15,1.9,15,1.9l0,0c1.7,1.3,3.8,1.8,5.9,1.5c2.2-0.3,4.2-1.4,5.5-3.2c1.4-1.8,1.9-4,1.6-6.3c-0.3-2.1-1.3-3.9-2.8-5.3 l-0.4-0.4c-0.1-0.1-0.2-0.2-0.3-0.2c-1-0.7-5.3-3.6-11-5.4c-9.3-2.9-18-1.3-24.6,4.5c-4.6,4.1-7.4,10.1-7.6,16.4 c-0.2,5.7,1.7,11.2,5.3,14.9c5,5.2,11,6.5,15.7,7.6c5.4,1.2,6.4,1.7,7.4,4c0.3,0.8,0.3,2.3-0.7,3.8c-1.5,2.4-4.5,3.7-8.4,3.7 c-0.1,0-0.1,0-0.2,0c-7.9,0-12.5-7.1-12.7-7.4l0,0c-1.7-2.8-4.9-4.3-8.2-3.9c-2.2,0.3-4.2,1.4-5.5,3.2c-1.4,1.8-1.9,4-1.6,6.2 c0.1,0.9,0.4,1.8,0.8,2.7L173.9,93.5z"></path> <path class="st2" d="M131.4,88.9c0.2-9.4,1.7-27.5,2.4-35.8c6.2,0.8,12,3.2,15.4,6.5c2.7,2.5,3.9,5.6,3.9,9.3 c-0.1,8.1-5.1,13-9.2,15.6C139.4,87.5,134.6,88.7,131.4,88.9 M131.2,106.3l0.3,0c8.4-0.2,17.6-3.6,24.8-8.9 c9.4-7,14.6-17,14.8-28.2c0.1-8.5-3-16.1-9.2-21.9c-9.4-9-23.6-12-32.9-11.8l-0.1,0c-6.5,0.2-11.9,5.1-12.5,11.4 c-1.3,14.1-3.3,38.9-2.9,47C113.9,99.8,118.7,106.6,131.2,106.3"></path> <path class="st1" d="M237.4,109.7c-2.8-3.6-8-4.2-11.6-1.4c-17.8,14-35.2,22.5-51.7,25.2c-13.8,2.2-26.7,0.4-38.4-5.6 c-14.1-7.2-22.7-18.3-27.5-26.4c-6.1-10.4-9.4-22-9-31.9c0.1-2.2-0.7-4.3-2.2-5.9c-1.5-1.6-3.6-2.6-5.8-2.6 c-2.2-0.1-4.3,0.7-5.9,2.2c-1.6,1.5-2.6,3.6-2.6,5.8c-0.5,13.1,3.5,27.6,11.3,40.9c8.4,14.3,20.2,25.6,34.2,32.7 c10.8,5.5,22.5,8.3,34.8,8.3c0.1,0,0.2,0,0.3,0c4.4,0,8.9-0.4,13.4-1.1c19.3-3.1,39.2-12.7,59.3-28.5c1.7-1.4,2.8-3.3,3.1-5.5 C239.3,113.6,238.7,111.4,237.4,109.7"></path> </g> </svg> 