<?xml version="1.0" encoding="utf-8"?>
<!-- Generator: Adobe Illustrator 16.0.0, SVG Export Plug-In . SVG Version: 6.00 Build 0)  -->
<!DOCTYPE svg PUBLIC "-//W3C//DTD SVG 1.1//EN" "http://www.w3.org/Graphics/SVG/1.1/DTD/svg11.dtd">
<svg version="1.1" id="Layer_1" xmlns="http://www.w3.org/2000/svg" xmlns:xlink="http://www.w3.org/1999/xlink" x="0px" y="0px"
	 width="178.213px" height="42.811px" viewBox="0 0 178.213 42.811" enable-background="new 0 0 178.213 42.811"
	 xml:space="preserve">
<g>
	<g>
		<path fill="#263238" d="M57.416,23.224v6.13h-3.34V12.291h5.93c1.703,0,3.047,0.503,4.031,1.51s1.477,2.325,1.477,3.956
			c0,1.639-0.494,2.961-1.482,3.963s-2.33,1.504-4.025,1.504H57.416z M57.416,20.563h2.59c0.711,0,1.254-0.262,1.629-0.787
			c0.375-0.523,0.563-1.189,0.563-1.996c0-0.814-0.186-1.488-0.557-2.025s-0.916-0.804-1.635-0.804h-2.59V20.563z"/>
		<path fill="#263238" d="M73.705,25.708h-4.5l-0.914,3.645h-3.363l4.805-17.063h3.469l4.793,17.063h-3.363L73.705,25.708z
			 M69.885,23.048h3.141l-1.535-6.035h-0.07L69.885,23.048z"/>
		<path fill="#263238" d="M91.26,29.354h-3.316l-5.215-10.911l-0.07,0.023v10.888h-3.34V12.291h3.34l5.215,10.897l0.07-0.023V12.291
			h3.316V29.354z"/>
		<path fill="#263238" d="M105.803,29.354h-3.316l-5.215-10.911l-0.07,0.023v10.888h-3.34V12.291h3.34l5.215,10.897l0.07-0.023
			V12.291h3.316V29.354z"/>
		<path fill="#263238" d="M119.901,23.224c0,2-0.543,3.563-1.629,4.688s-2.531,1.688-4.336,1.688s-3.246-0.563-4.324-1.688
			s-1.617-2.688-1.617-4.688v-4.781c0-1.992,0.539-3.556,1.617-4.693c1.078-1.136,2.516-1.705,4.313-1.705s3.242,0.568,4.336,1.705
			c1.094,1.137,1.641,2.701,1.641,4.693V23.224z M116.584,18.407c0-1.223-0.227-2.146-0.68-2.768
			c-0.453-0.623-1.113-0.935-1.98-0.935c-0.875,0-1.531,0.311-1.969,0.929c-0.438,0.617-0.656,1.543-0.656,2.773v4.818
			c0,1.238,0.223,2.166,0.668,2.786s1.102,0.928,1.969,0.928c0.859,0,1.516-0.309,1.969-0.928s0.68-1.547,0.68-2.786V18.407z"/>
		<path fill="#263238" d="M134.011,29.354h-3.317l-5.215-10.911l-0.07,0.023v10.888h-3.34V12.291h3.34l5.215,10.897l0.07-0.023
			V12.291h3.317V29.354z"/>
		<path fill="#263238" d="M144.616,21.993v7.36h-2.379V12.303h5.309c1.617,0,2.867,0.418,3.75,1.253
			c0.883,0.834,1.324,2.033,1.324,3.596c0,0.889-0.205,1.666-0.615,2.33c-0.41,0.664-1.002,1.184-1.776,1.557
			c0.852,0.289,1.467,0.781,1.846,1.473c0.378,0.691,0.568,1.545,0.568,2.563v1.489c0,0.523,0.053,1.012,0.158,1.461
			s0.288,0.803,0.545,1.061v0.27h-2.45c-0.266-0.258-0.436-0.646-0.51-1.168c-0.074-0.52-0.111-1.07-0.111-1.648v-1.444
			c0-0.955-0.217-1.711-0.65-2.266c-0.434-0.557-1.029-0.834-1.787-0.834H144.616z M144.616,20.188h2.812
			c0.961,0,1.67-0.26,2.127-0.781c0.457-0.52,0.686-1.258,0.686-2.213c0-0.979-0.223-1.736-0.668-2.277
			c-0.445-0.541-1.121-0.811-2.027-0.811h-2.929V20.188z"/>
		<path fill="#263238" d="M164.795,14.095h-4.383v15.258h-2.379V14.095h-4.359v-1.804h11.121V14.095z"/>
		<path fill="#263238" d="M171.662,25.579l0.234,0.997h0.07l0.246-0.985l3.48-13.3h2.52l-5.133,17.063h-2.297l-5.121-17.063h2.531
			L171.662,25.579z"/>
	</g>
	<polygon fill-rule="evenodd" clip-rule="evenodd" fill="#5D0000" points="3.889,17.833 13,19.276 22.316,17.536 15.283,14.701 	"/>
	<polygon fill-rule="evenodd" clip-rule="evenodd" fill="#B6B0A8" points="12.229,37.246 21.334,31.604 20.441,17.89 12.824,15.382 
			"/>
	<polygon fill-rule="evenodd" clip-rule="evenodd" fill="#A70000" points="15.283,14.701 22.316,17.536 21.387,6.941 15.234,0 	"/>
	<polygon fill-rule="evenodd" clip-rule="evenodd" fill="#FF0000" points="15.234,0 5.509,5.713 3.889,17.833 15.283,14.701 	"/>
	<polygon fill-rule="evenodd" clip-rule="evenodd" fill="#F5F5F5" points="12.824,15.382 2.456,18.229 0,34.585 12.229,37.246 	"/>
	<polygon fill-rule="evenodd" clip-rule="evenodd" fill="#008837" points="45.676,10.49 20.084,7.073 12.67,25.794 35.105,42.81 	
		"/>
	<polygon fill-rule="evenodd" clip-rule="evenodd" fill="#136423" points="35.105,42.81 45.676,10.49 42.887,23.56 40.309,31.525 	
		"/>
	<path fill-rule="evenodd" clip-rule="evenodd" fill="#F5F5F5" d="M8.223,9.802c-0.03,0.012-0.059,0.023-0.088,0.035
		C8.139,9.801,8.143,9.766,8.146,9.73C8.186,9.397,8.24,8.914,8.291,8.413c0.055-0.511,0.106-1.041,0.145-1.451
		c0.004-0.037,0.007-0.072,0.01-0.108c0.028-0.013,0.059-0.028,0.088-0.042C8.579,6.79,8.629,6.765,8.686,6.737
		c0.227-0.111,0.555-0.27,0.901-0.417c0.476-0.199,0.995-0.374,1.382-0.373c0.389,0.001,0.646,0.181,0.594,0.676
		c-0.018,0.159-0.08,0.356-0.182,0.572c-0.094,0.203-0.225,0.423-0.382,0.641c-0.405,0.558-0.87,0.965-1.351,1.275
		C9.174,9.417,8.685,9.632,8.223,9.802 M7.903,11.312C7.932,11.3,7.961,11.29,7.99,11.28c0.582-0.211,1.178-0.479,1.755-0.801
		s1.134-0.7,1.636-1.125c0.86-0.74,1.557-1.623,1.916-2.597c0.104-0.291,0.159-0.563,0.178-0.815
		c0.021-0.285-0.009-0.543-0.068-0.763c-0.055-0.209-0.139-0.384-0.246-0.532c-0.109-0.145-0.242-0.261-0.398-0.351
		c-0.158-0.09-0.339-0.149-0.539-0.18l0,0c-0.2-0.03-0.419-0.031-0.655-0.001c-0.237,0.029-0.492,0.091-0.777,0.186
		c-0.285,0.099-0.598,0.23-0.948,0.404C9.513,4.867,9.153,5.062,8.813,5.258C8.418,5.485,8.044,5.712,7.771,5.889
		c-1.026,0.662-1.096,1.167-1.23,2.133C6.523,8.15,6.504,8.286,6.484,8.418c-0.07,0.465-0.168,1.099-0.266,1.756
		c-0.098,0.666-0.199,1.361-0.277,1.948c-0.075,0.565-0.129,1.037-0.166,1.424c-0.04,0.424-0.059,0.749-0.063,0.986
		c-0.002,0.219,0.01,0.359,0.036,0.451c0.024,0.082,0.062,0.126,0.112,0.154c0.053,0.033,0.123,0.051,0.205,0.055
		c0.086,0.006,0.184-0.004,0.293-0.029c0.113-0.025,0.238-0.066,0.359-0.119c0.117-0.05,0.23-0.113,0.328-0.181
		c0.1-0.068,0.186-0.146,0.26-0.225c0.075-0.08,0.136-0.156,0.182-0.221c0.039-0.055,0.071-0.133,0.1-0.238
		c0.031-0.117,0.057-0.267,0.077-0.451c0.015-0.131,0.031-0.323,0.052-0.557c0.038-0.463,0.092-1.095,0.173-1.757
		C7.894,11.38,7.898,11.347,7.903,11.312z"/>
</g>
</svg>
