<?xml version="1.0" encoding="UTF-8" standalone="no"?>
<svg
   xmlns:dc="http://purl.org/dc/elements/1.1/"
   xmlns:cc="http://creativecommons.org/ns#"
   xmlns:rdf="http://www.w3.org/1999/02/22-rdf-syntax-ns#"
   xmlns:svg="http://www.w3.org/2000/svg"
   xmlns="http://www.w3.org/2000/svg"
   xmlns:xlink="http://www.w3.org/1999/xlink"
   xmlns:sodipodi="http://sodipodi.sourceforge.net/DTD/sodipodi-0.dtd"
   xmlns:inkscape="http://www.inkscape.org/namespaces/inkscape"
   sodipodi:docname="People's Televsion Network Incorporated (PTV).svg"
   inkscape:version="1.0 (4035a4fb49, 2020-05-01)"
   id="svg8"
   version="1.1"
   viewBox="0 0 180.69383 317.5"
   height="1200"
   width="682.93732">
  <title
     id="title4179">People's Televsion Network Incorporated (PTV)</title>
  <defs
     id="defs2">
    <defs
       id="defs5432">
      <polygon
         points="124.9,380.3 124.9,101.3 354.2,102 354.2,381 "
         id="SVGID_1_" />
    </defs>
    <clipPath
       id="SVGID_2_">
      <use
         height="100%"
         width="100%"
         y="0"
         x="0"
         style="overflow:visible"
         id="use5436"
         overflow="visible"
         xlink:href="#SVGID_1_" />
    </clipPath>
    <defs
       id="defs5440">
      <polygon
         id="SVGID_3_"
         points="354.2,101.8 354.2,381 126.5,378 126.5,98.8 " />
    </defs>
    <clipPath
       id="SVGID_4_">
      <use
         xlink:href="#SVGID_3_"
         overflow="visible"
         id="use5444"
         style="overflow:visible"
         x="0"
         y="0"
         width="100%"
         height="100%" />
    </clipPath>
    <clipPath
       id="SVGID_4_-1">
      <use
         xlink:href="#SVGID_3_"
         overflow="visible"
         id="use5444-4"
         style="overflow:visible"
         x="0"
         y="0"
         width="100%"
         height="100%" />
    </clipPath>
    <clipPath
       id="SVGID_4_-3">
      <use
         xlink:href="#SVGID_3_"
         overflow="visible"
         id="use5444-8"
         style="overflow:visible"
         x="0"
         y="0"
         width="100%"
         height="100%" />
    </clipPath>
    <defs
       id="defs5432-0">
      <polygon
         id="SVGID_1_-4"
         points="124.9,380.3 124.9,101.3 354.2,102 354.2,381 " />
    </defs>
    <clipPath
       id="SVGID_2_-6">
      <use
         xlink:href="#SVGID_1_-4"
         overflow="visible"
         id="use5436-2"
         style="overflow:visible"
         x="0"
         y="0"
         width="100%"
         height="100%" />
    </clipPath>
    <defs
       id="defs5440-4">
      <polygon
         points="354.2,101.8 354.2,381 126.5,378 126.5,98.8 "
         id="SVGID_3_-4" />
    </defs>
    <clipPath
       id="SVGID_4_-19">
      <use
         height="100%"
         width="100%"
         y="0"
         x="0"
         style="overflow:visible"
         id="use5444-6"
         overflow="visible"
         xlink:href="#SVGID_3_-4" />
    </clipPath>
    <defs
       id="defs5432-6">
      <polygon
         id="SVGID_1_-0"
         points="354.2,102 354.2,381 124.9,380.3 124.9,101.3 " />
    </defs>
    <clipPath
       id="SVGID_2_-2">
      <use
         xlink:href="#SVGID_1_-0"
         overflow="visible"
         id="use5436-7"
         style="overflow:visible"
         x="0"
         y="0"
         width="100%"
         height="100%" />
    </clipPath>
    <defs
       id="defs5440-2">
      <polygon
         points="126.5,378 126.5,98.8 354.2,101.8 354.2,381 "
         id="SVGID_3_-2" />
    </defs>
    <clipPath
       id="SVGID_4_-15">
      <use
         height="100%"
         width="100%"
         y="0"
         x="0"
         style="overflow:visible"
         id="use5444-9"
         overflow="visible"
         xlink:href="#SVGID_3_-2" />
    </clipPath>
    <clipPath
       id="SVGID_4_-1-8">
      <use
         height="100%"
         width="100%"
         y="0"
         x="0"
         style="overflow:visible"
         id="use5444-4-7"
         overflow="visible"
         xlink:href="#SVGID_3_-2" />
    </clipPath>
    <clipPath
       id="SVGID_4_-3-7">
      <use
         height="100%"
         width="100%"
         y="0"
         x="0"
         style="overflow:visible"
         id="use5444-8-2"
         overflow="visible"
         xlink:href="#SVGID_3_-2" />
    </clipPath>
    <clipPath
       id="SVGID_4_-1-9">
      <use
         xlink:href="#SVGID_3_"
         overflow="visible"
         id="use5444-4-4"
         style="overflow:visible"
         x="0"
         y="0"
         width="100%"
         height="100%" />
    </clipPath>
    <clipPath
       id="SVGID_4_-1-99">
      <use
         xlink:href="#SVGID_3_"
         overflow="visible"
         id="use5444-4-9"
         style="overflow:visible"
         x="0"
         y="0"
         width="100%"
         height="100%" />
    </clipPath>
    <clipPath
       id="SVGID_4_-1-99-5">
      <use
         xlink:href="#SVGID_3_"
         overflow="visible"
         id="use5444-4-9-1"
         style="overflow:visible"
         x="0"
         y="0"
         width="100%"
         height="100%" />
    </clipPath>
    <polygon
       points="124.9,380.3 124.9,101.3 354.2,102 354.2,381 "
       id="polygon2888" />
    <polygon
       id="polygon2890"
       points="354.2,101.8 354.2,381 126.5,378 126.5,98.8 " />
    <polygon
       id="polygon2892"
       points="124.9,380.3 124.9,101.3 354.2,102 354.2,381 " />
    <polygon
       points="354.2,101.8 354.2,381 126.5,378 126.5,98.8 "
       id="polygon2894" />
    <polygon
       id="polygon2896"
       points="354.2,102 354.2,381 124.9,380.3 124.9,101.3 " />
    <polygon
       points="126.5,378 126.5,98.8 354.2,101.8 354.2,381 "
       id="polygon2898" />
  </defs>
  <sodipodi:namedview
     units="px"
     fit-margin-bottom="0"
     fit-margin-right="0"
     fit-margin-left="0"
     fit-margin-top="0"
     inkscape:snap-center="true"
     inkscape:snap-object-midpoints="true"
     inkscape:snap-midpoints="true"
     inkscape:snap-smooth-nodes="true"
     inkscape:snap-intersection-paths="true"
     inkscape:object-paths="true"
     inkscape:snap-bbox-midpoints="true"
     inkscape:snap-bbox-edge-midpoints="true"
     inkscape:bbox-nodes="true"
     inkscape:bbox-paths="true"
     inkscape:snap-bbox="true"
     inkscape:snap-global="false"
     inkscape:window-maximized="1"
     inkscape:window-y="-8"
     inkscape:window-x="1072"
     inkscape:window-height="1017"
     inkscape:window-width="1920"
     showgrid="false"
     inkscape:document-rotation="0"
     inkscape:current-layer="layer1"
     inkscape:document-units="mm"
     inkscape:cy="710.7559"
     inkscape:cx="786.40301"
     inkscape:zoom="0.49497475"
     inkscape:pageshadow="2"
     inkscape:pageopacity="0.0"
     borderopacity="1.0"
     bordercolor="#666666"
     pagecolor="#ffffff"
     id="base" />
  <metadata
     id="metadata5">
    <rdf:RDF>
      <cc:Work
         rdf:about="">
        <dc:format>image/svg+xml</dc:format>
        <dc:type
           rdf:resource="http://purl.org/dc/dcmitype/StillImage" />
        <dc:title>People's Televsion Network Incorporated (PTV)</dc:title>
      </cc:Work>
    </rdf:RDF>
  </metadata>
  <g
     transform="translate(5.5287724,-0.81068924)"
     id="layer1"
     inkscape:groupmode="layer"
     inkscape:label="Layer 1">
    <path
       style="stroke-width:0.499614"
       fill="#ffffff"
       opacity="1"
       d="m 14.790807,24.900375 c 0.804379,0.789391 0.864334,1.998459 1.229053,3.007681 1.139122,0.0099 2.278243,-0.02498 3.412369,-0.03997 -0.899307,0.684473 -1.818597,1.343964 -2.727897,2.018445 0.389699,1.129129 0.754418,2.263255 1.099153,3.407372 -0.944272,-0.769407 -1.913524,-1.508837 -2.907759,-2.203301 -0.814371,0.67448 -1.63374,1.353957 -2.48808,1.978476 0.199846,-1.074173 0.559567,-2.113371 0.924287,-3.142579 -0.864335,-0.59454 -1.718676,-1.20407 -2.488082,-1.918521 1.034201,-0.04497 2.0734,-0.05496 3.112599,-0.05996 0.309763,-1.004226 0.579555,-2.023439 0.834357,-3.047648 z"
       id="path937" />
    <path
       style="stroke-width:0.499614"
       fill="#ffffff"
       opacity="1"
       d="m 5.318111,37.780444 c 0.8743258,0.005 1.6137558,0.514603 2.3481897,0.924286 C 37.448338,56.106315 67.310315,73.373002 97.067372,90.809559 83.922507,98.74344 70.792629,106.7023 57.642769,114.62121 c -1.099153,0.45464 -0.779399,1.76862 -0.859339,2.7079 0.06495,7.82396 -0.05495,15.64293 0.06995,23.4669 20.948849,-12.04071 41.842741,-24.17634 62.75661,-36.27702 0.37971,-0.28478 0.80938,-0.24981 1.18409,0.055 7.92888,4.49654 15.71288,9.25287 23.68174,13.68946 -0.63952,0.25979 -1.1741,0.70445 -1.70369,1.13412 -0.71945,0.15987 -0.96924,0.56456 -0.75942,1.20407 -1.04918,-0.99423 -2.34319,-1.64873 -3.59222,-2.35319 -5.82051,-3.31744 -11.60605,-6.70483 -17.41657,-10.03726 -0.62951,-0.40469 -1.27902,0.19984 -1.84358,0.43467 -22.003034,12.8351 -44.026054,25.64522 -66.009105,38.5053 -0.08993,-9.92234 -0.03498,-19.84968 -0.03997,-29.77204 -7.28938,4.47155 -14.663693,8.80821 -21.93309,13.31473 0.005,18.47077 0.02998,36.94153 -0.0099,55.40728 -0.04496,0.05 -0.134899,0.13995 -0.17986,0.18986 -1.189083,0.45464 -2.348191,0.98424 -3.487312,1.5588 -0.09992,-1.0242 -0.184858,-2.05342 -0.199846,-3.07763 0.01999,-18.31589 0.01499,-36.63176 0.005,-54.94763 -0.209838,-1.1691 0.774403,-1.91353 1.67371,-2.39316 C 45.52721,117.6789 61.994513,107.79152 78.586719,98.123964 82.418766,95.685845 86.520603,93.672401 90.237737,91.049423 90.087739,90.409847 89.333321,90.239978 88.873676,89.880255 63.25844,75.046711 37.71813,60.09324 12.137853,45.209716 9.7746747,43.935698 7.5713738,42.371904 5.0782959,41.342698 4.8884424,40.153614 4.7985117,38.909574 5.318111,37.780444 Z"
       id="path939" />
    <path
       style="stroke-width:0.499614"
       fill="#ffffff"
       opacity="1"
       d="m 34.985237,78.329181 c 0.249806,-0.219829 0.754419,-0.664488 1.004225,-0.889314 1.463873,2.088389 -0.294771,5.07109 0.854342,7.104522 1.124133,0.80438 2.478091,1.194079 3.85203,1.224056 1.209068,-1.368944 2.36318,-2.792846 3.682162,-4.061868 0.319754,-0.04496 0.95926,-0.129903 1.279014,-0.174866 -0.204843,2.588006 -3.462329,3.21752 -4.561483,5.275933 0.329746,1.184087 0.909299,2.28324 1.353956,3.427357 l 0.234818,0.579554 c 1.763641,-0.134899 3.547265,-0.06995 5.285926,-0.419677 0.889314,0.134899 2.303224,0.894311 0.904303,1.618752 -2.053418,0.154881 -4.106834,-0.08494 -6.160251,0.0099 -0.47963,0.969252 -0.929284,1.953496 -1.294002,2.972711 -0.144888,0.204841 -0.439663,0.604531 -0.584549,0.809372 1.678705,1.463876 3.497303,2.787847 4.901221,4.546497 -0.23482,0.21982 -0.704458,0.65948 -0.939277,0.87932 -1.583778,-1.403912 -2.897766,-3.062636 -4.191767,-4.721361 -1.523826,0.134904 -2.752878,1.064177 -4.106835,1.658725 -0.344733,2.298226 0.859339,5.006136 -0.669483,6.979616 -0.179862,-0.22982 -0.534589,-0.68448 -0.709454,-0.91429 -0.124906,-2.03344 0.15488,-4.06687 0.159877,-6.100305 -1.47886,-0.35972 -2.712907,-1.353949 -4.196765,-1.718669 -1.433894,1.528822 -2.418135,3.532282 -4.246724,4.646414 l -0.644503,-0.05 c -0.02499,-0.28978 -0.06495,-0.86932 -0.08993,-1.164094 1.333971,-1.269026 2.792846,-2.393158 4.166787,-3.617213 -0.01998,-0.294774 -0.06495,-0.874329 -0.08993,-1.169102 -0.0099,-0.174864 -0.03997,-0.534584 -0.05496,-0.714449 -0.329747,-0.659485 -0.654496,-1.31898 -0.969254,-1.983469 L 28.97487,91.973535 c -2.04842,0.0099 -4.101838,0.124906 -6.150258,0.03498 -0.624519,-0.109917 -0.584549,-0.819368 -0.704457,-1.274016 0.569562,-0.07994 1.144117,-0.154881 1.718675,-0.224827 1.718675,0.169868 3.447342,0.204842 5.171012,0.269792 l 0.154878,-0.539589 c 0.02998,-0.09493 0.08493,-0.28478 0.109918,-0.379706 0.429668,-0.824365 0.754416,-1.693695 0.909299,-2.60799 1.313986,-1.398922 3.137581,-2.098382 4.931198,-2.652954 0.20484,-2.08839 0.02998,-4.186773 -0.129902,-6.270166 z"
       id="path941" />
    <path
       style="stroke-width:0.499614"
       fill="#ffffff"
       opacity="1"
       d="m 33.996,81.821488 c -0.104921,-0.954264 -0.624518,-2.038428 0.07495,-2.892768 0.539584,1.858567 0.279784,3.872013 1.044195,5.670627 -0.959261,-0.624519 -0.919292,-1.783625 -1.119138,-2.777859 z"
       id="path943" />
    <path
       style="stroke-width:0.499614"
       fill="#ffffff"
       opacity="1"
       d="m 37.343418,79.41834 c 0.189855,-0.09493 0.569561,-0.28478 0.759415,-0.379706 -0.564564,1.803609 -0.234819,3.872015 -1.259029,5.505755 0.384704,-1.688699 0.234819,-3.427358 0.499614,-5.126049 z"
       id="path945" />
    <path
       style="stroke-width:0.499614"
       fill="#ffffff"
       opacity="1"
       d="m 28.400315,81.321874 c 1.623748,0.799382 2.303224,2.692924 3.337426,4.086848 l -0.2598,0.514604 c -0.824365,-1.668713 -2.243269,-2.942731 -3.077626,-4.601452 z"
       id="path947" />
    <path
       style="stroke-width:0.499614"
       fill="#ffffff"
       opacity="1"
       d="m 39.88646,85.473673 c 0.884318,-1.493849 1.678705,-3.382392 3.377395,-4.081852 -1.149113,1.343962 -2.043425,2.902761 -3.377395,4.081852 z"
       id="path949" />
    <path
       style="stroke-width:0.499614"
       fill="#ffffff"
       opacity="1"
       d="m 26.042132,81.526715 c 2.228282,0.164873 3.207528,2.617982 4.641422,4.041884 -0.104921,0.219831 -0.319754,0.664488 -0.429668,0.889314 -1.259029,-1.773632 -4.091847,-2.538041 -4.211754,-4.931198 z"
       id="path951" />
    <path
       style="stroke-width:0.499614"
       fill="#ffffff"
       opacity="1"
       d="m 25.492556,83.575137 c 1.199076,0.649498 2.238275,1.533818 3.162562,2.52805 0.01499,0.264796 0.03498,0.794387 0.04496,1.059184 -0.5196,-1.653725 -2.548036,-2.003455 -3.207529,-3.587234 z"
       id="path953" />
    <path
       style="stroke-width:0.499614"
       fill="#ffffff"
       opacity="1"
       d="m 46.481375,83.78997 c 0.194849,-0.244811 0.194849,-0.244811 0,0 z"
       id="path955" />
    <path
       style="stroke-width:0.499614"
       fill="#ffffff"
       opacity="1"
       d="m 41.824964,87.237312 c 1.303995,-1.403918 2.717904,-2.977704 4.656411,-3.447342 -1.483858,1.239045 -3.027666,2.408143 -4.656411,3.447342 z"
       id="path957" />
    <path
       style="stroke-width:0.499614"
       fill="#ffffff"
       opacity="1"
       d="m 23.399171,89.350683 c 1.91852,-0.379708 3.981929,0.174866 5.765553,0.889314 -1.933509,-0.194849 -3.951952,-0.06495 -5.765553,-0.889314 z"
       id="path959" />
    <path
       style="stroke-width:0.499614"
       fill="#ffffff"
       opacity="1"
       d="m 42.449483,90.235001 c 1.608759,-0.849344 3.5023,-0.789391 5.250951,-1.179091 0.0099,0.129903 0.03497,0.394696 0.04496,0.524596 -1.748651,0.334741 -3.512291,0.624519 -5.295916,0.654495 z"
       id="path961" />
    <path
       style="stroke-width:0.499614"
       fill="#ffffff"
       opacity="1"
       d="m 23.923767,92.728079 c 1.748652,-0.03498 3.48731,-0.229822 5.230967,-0.364718 -1.598769,0.559568 -3.307451,0.679476 -4.916212,1.204075 -0.07994,-0.209843 -0.234818,-0.629518 -0.314755,-0.839357 z"
       id="path963" />
    <path
       style="stroke-width:0.499614"
       fill="#ffffff"
       opacity="1"
       d="m 43.273847,92.483268 c 1.658721,0.254804 3.512293,-0.154881 4.976164,0.849345 -1.034203,0.159874 -2.083394,0.154883 -3.122593,0.04996 -0.60953,-0.314784 -1.234049,-0.609555 -1.853571,-0.899334 z"
       id="path965" />
    <path
       style="stroke-width:0.499614"
       fill="#ffffff"
       opacity="1"
       d="m 25.867268,98.728455 c 0.789391,-1.793618 2.897765,-2.453112 4.311674,-3.667176 -1.139121,1.543816 -2.807835,2.528052 -4.311674,3.667176 z"
       id="path967" />
    <path
       style="stroke-width:0.499614"
       fill="#ffffff"
       opacity="1"
       d="m 41.750022,95.381029 c 1.269023,0.854344 2.627974,1.583786 3.797073,2.578015 0.005,0.199849 0.01498,0.609532 0.01498,0.814373 -1.353956,-0.994229 -2.433125,-2.453103 -4.106833,-2.942726 z"
       id="path969" />
    <path
       style="stroke-width:0.499614"
       fill="#ffffff"
       opacity="1"
       d="m 39.966397,96.859898 c 0.344734,0.31975 0.60953,0.694464 0.789392,1.129123 0.944272,1.029207 1.878551,2.073399 2.553031,3.302459 -0.23482,-0.0749 -0.69946,-0.21984 -0.934279,-0.29478 -0.749423,-1.408919 -2.018444,-2.548034 -2.408144,-4.136802 z"
       id="path971" />
    <path
       style="stroke-width:0.499614"
       fill="#ffffff"
       opacity="1"
       d="m 28.395319,100.89678 c 0.98424,-0.86433 1.368943,-2.463098 2.672939,-2.892766 -0.694465,1.114139 -1.433895,2.203306 -2.133355,3.307446 -0.134899,-0.10492 -0.404688,-0.30977 -0.539584,-0.41468 z"
       id="path973" />
    <path
       style="stroke-width:0.499614"
       fill="#ffffff"
       opacity="1"
       d="m 33.606301,103.39985 c 0.449654,-1.64373 0.154879,-3.647188 1.099152,-5.061101 -0.369714,1.628746 0.384704,3.921981 -1.099152,5.061101 z"
       id="path975" />
    <path
       style="stroke-width:0.499614"
       fill="#ffffff"
       opacity="1"
       d="m 37.048646,98.288796 c 0.554573,1.588776 0.739431,3.267474 1.094157,4.906214 -0.229824,-0.0499 -0.689468,-0.14489 -0.919292,-0.19486 -0.01999,-1.57378 -0.129902,-3.142572 -0.174865,-4.711354 z"
       id="path977" />
    <path
       style="stroke-width:0.499614"
       fill="#ffffff"
       opacity="1"
       d="m 121.16879,115.71536 c 0.67447,0.7744 0.81936,1.82859 1.06917,2.79284 1.09416,0.08 2.18333,0.10992 3.28247,0.15988 -0.70445,0.70945 -1.52881,1.27402 -2.42812,1.69868 0.10991,1.22907 0.57955,2.38318 1.0342,3.52229 -0.98923,-0.68947 -1.97348,-1.37894 -3.01268,-1.99346 -0.82436,0.69947 -1.70869,1.32897 -2.64296,1.87855 0.43966,-1.08416 0.88432,-2.18332 1.01421,-3.3574 -0.93427,-0.5196 -1.82358,-1.12415 -2.66294,-1.78363 1.15911,-0.01 2.31822,-0.0299 3.47233,-0.10992 0.25479,-0.94926 0.55457,-1.88355 0.87432,-2.80783 z"
       id="path979" />
    <path
       style="stroke-width:0.499614"
       fill="#ffffff"
       opacity="1"
       d="m 14.740846,179.60609 c 0.534588,-0.82435 0.764411,-1.8036 1.144119,-2.69792 0.33474,0.90931 0.579552,1.86356 1.07417,2.70791 1.084165,0.27979 2.198306,0.38472 3.307451,0.51462 -0.934281,0.43965 -1.798614,0.99923 -2.647958,1.57878 0.229821,1.00922 0.554572,1.99346 0.894309,2.9727 -0.819368,-0.29977 -1.523824,-0.81936 -2.283239,-1.22406 -1.219061,-0.3847 -1.818599,1.1891 -2.982701,1.1791 0.399693,-0.96426 0.789393,-2.06342 0.464643,-3.1076 -0.554573,-0.50463 -1.204072,-0.88432 -1.823595,-1.29401 0.874327,-0.50461 1.873556,-0.54458 2.852801,-0.62952 z"
       id="path981" />
    <path
       style="stroke-width:0.499614"
       fill="#0a2d54"
       opacity="1"
       d="M 4.9034308,11.150975 C 31.24812,26.2943 57.427934,41.742389 83.73765,56.950663 c 27.79358,16.292439 55.74201,32.325079 83.48063,48.707457 -7.39429,4.20176 -14.64371,8.65332 -21.98304,12.955 l -0.5196,-0.23482 -0.23982,-0.1149 c -7.96886,-4.43659 -15.75286,-9.19292 -23.68174,-13.68946 -0.37472,-0.30476 -0.80439,-0.33973 -1.18409,-0.055 -20.913871,12.10068 -41.807765,24.23631 -62.756613,36.27703 -0.124906,-7.82397 -0.005,-15.64295 -0.06995,-23.46691 0.07994,-0.93928 -0.239814,-2.25326 0.859337,-2.7079 C 70.792629,106.7023 83.922507,98.74344 97.067372,90.809559 67.310315,73.373002 37.448338,56.106315 7.6663007,38.70473 6.9318668,38.295047 6.1924368,37.785441 5.318111,37.780444 l -0.204842,-0.234819 -0.2098382,-0.1299 v -26.26475 m 9.8873762,13.7494 c -0.254802,1.02421 -0.524594,2.043423 -0.834357,3.04765 -1.039199,0.005 -2.078398,0.01499 -3.112599,0.05995 0.769406,0.714449 1.623747,1.323979 2.488082,1.918521 -0.36472,1.029206 -0.724441,2.068404 -0.924287,3.142577 0.85434,-0.624519 1.673709,-1.303996 2.48808,-1.978476 0.994235,0.694465 1.963487,1.433895 2.907759,2.203301 -0.344735,-1.144117 -0.709454,-2.278243 -1.099153,-3.407371 0.9093,-0.674482 1.82859,-1.333973 2.727897,-2.018446 -1.134126,0.01499 -2.273247,0.04996 -3.412369,0.03997 -0.364719,-1.009222 -0.424674,-2.21829 -1.229053,-3.007681 z"
       id="path984" />
    <path
       style="stroke-width:0.499614"
       fill="#0a2d54"
       opacity="1"
       d="m 30.988319,186.29094 c 0.04496,-0.05 0.134899,-0.13995 0.179861,-0.18986 l -0.005,0.0999 z"
       id="path1024" />
    <path
       style="stroke-width:0.499614"
       fill="#c20101"
       opacity="1"
       d="m 119.16034,108.64581 c 0.56456,-0.23482 1.21407,-0.83936 1.84358,-0.43466 5.81052,3.33242 11.59606,6.71981 17.41657,10.03725 1.24903,0.70446 2.54304,1.35896 3.59222,2.35319 -14.83356,8.60835 -29.50724,17.4965 -44.31083,26.15982 -22.003032,13.1049 -44.105991,26.04993 -66.07905,39.20477 -0.114914,0.0599 -0.344734,0.17488 -0.459645,0.23484 l 0.005,-0.0999 c 0.03997,-18.46575 0.01499,-36.93651 0.0099,-55.40727 7.269395,-4.50652 14.64371,-8.84318 21.93309,-13.31473 0.005,9.92235 -0.04996,19.84969 0.03997,29.77205 21.983049,-12.86009 44.006076,-25.67022 66.009105,-38.50532 m 2.00846,7.06955 c -0.31975,0.92429 -0.61953,1.85856 -0.87433,2.80783 -1.15411,0.0799 -2.31322,0.0999 -3.47232,0.10992 0.83935,0.65948 1.72866,1.26402 2.66294,1.78362 -0.12989,1.17409 -0.57456,2.27325 -1.01422,3.35741 0.93429,-0.54957 1.81861,-1.17908 2.64296,-1.87855 1.0392,0.61453 2.02345,1.304 3.01268,1.99346 -0.45465,-1.13911 -0.92428,-2.29322 -1.0342,-3.52228 0.89931,-0.42467 1.72367,-0.98924 2.42812,-1.69869 -1.09914,-0.05 -2.1883,-0.08 -3.28246,-0.15988 -0.24981,-0.96425 -0.3947,-2.01844 -1.06917,-2.79284 z"
       id="path1027" />
    <path
       style="stroke-width:0.499614"
       fill="#cca002"
       opacity="1"
       d="m 4.9034308,41.252766 0.1748651,0.08993 c 2.4930779,1.029208 4.6963788,2.593001 7.0595571,3.86702 25.580277,14.883524 51.120587,29.836995 76.735837,44.670558 0.459645,0.359723 1.214063,0.529593 1.363948,1.169098 -3.717134,2.622977 -7.818972,4.63643 -11.651018,7.074549 -16.592207,9.667549 -33.05951,19.554929 -49.606752,29.307399 -0.899307,0.47964 -1.883549,1.22406 -1.67371,2.39316 0.0099,18.31586 0.01499,36.63175 -0.005,54.94764 0.01499,1.0242 0.09992,2.05341 0.199845,3.07762 l -0.02998,0.28478 c -4.291691,3.0976 -9.053019,5.46079 -13.549553,8.24365 -2.962716,1.84858 -6.0303505,3.52727 -9.018047,5.33588 V 41.252766 m 30.081875,37.076415 c 0.159877,2.083393 0.334742,4.181776 0.129902,6.270166 -1.793617,0.554572 -3.61721,1.254032 -4.931198,2.652954 -0.154881,0.914295 -0.479629,1.783625 -0.909299,2.60799 -0.02498,0.09493 -0.07994,0.284781 -0.109917,0.379706 l -0.154881,0.539584 c -1.723671,-0.06495 -3.452339,-0.09992 -5.171012,-0.269791 -0.574558,0.06995 -1.149115,0.144888 -1.718675,0.224827 0.11991,0.454648 0.07994,1.164102 0.704456,1.274016 2.048421,0.08993 4.101837,-0.02499 6.150257,-0.03498 l 0.179864,0.389698 c 0.314756,0.664489 0.639505,1.323983 0.969251,1.983468 0.01498,0.179865 0.04496,0.539585 0.05495,0.714449 0.02499,0.294774 0.06995,0.874328 0.08993,1.169102 -1.373941,1.224056 -2.832816,2.348187 -4.166788,3.617214 0.02499,0.294756 0.06495,0.874316 0.08993,1.164096 l 0.644502,0.0499 c 1.828591,-1.114147 2.812831,-3.117588 4.246726,-4.64642 1.483856,0.36473 2.717905,1.35895 4.196765,1.71867 -0.005,2.03344 -0.28478,4.06687 -0.159877,6.1003 0.174866,0.22982 0.529591,0.68447 0.709453,0.91429 1.528821,-1.97346 0.324749,-4.68139 0.669484,-6.979612 1.353955,-0.594538 2.583008,-1.52383 4.106835,-1.658715 1.294001,1.658715 2.607988,3.31744 4.191766,4.721357 0.23482,-0.21983 0.704456,-0.6595 0.939276,-0.87933 -1.403918,-1.758636 -3.222514,-3.082616 -4.901221,-4.546492 0.144888,-0.204841 0.439662,-0.604531 0.584549,-0.809373 0.364719,-1.019214 0.814372,-2.003452 1.294003,-2.972706 2.053416,-0.09493 4.106834,0.144889 6.16025,-0.0099 1.398921,-0.724442 -0.01498,-1.483856 -0.904302,-1.618752 -1.738659,0.349731 -3.522284,0.284781 -5.285926,0.419676 l -0.234824,-0.579595 c -0.444659,-1.144117 -1.02421,-2.24327 -1.353958,-3.427355 1.099153,-2.058415 4.356641,-2.687928 4.561484,-5.275934 -0.319753,0.04497 -0.959261,0.129903 -1.279015,0.174866 -1.318983,1.269021 -2.473092,2.692924 -3.68216,4.061867 -1.373941,-0.02998 -2.727897,-0.419676 -3.85203,-1.224055 -1.149115,-2.033431 0.60953,-5.016133 -0.854342,-7.104521 -0.249808,0.224825 -0.754419,0.669483 -1.004225,0.889312 m -0.989238,3.492309 c 0.199845,0.994232 0.159877,2.153338 1.119137,2.777857 -0.764411,-1.798613 -0.50461,-3.81206 -1.044195,-5.670626 -0.69946,0.85434 -0.17986,1.938503 -0.07495,2.892769 m 3.347419,-2.403148 c -0.264795,1.698691 -0.114913,3.43735 -0.499614,5.126048 1.024211,-1.63374 0.694465,-3.702147 1.25903,-5.505755 -0.189854,0.09493 -0.569561,0.28478 -0.759416,0.379707 m -8.943104,1.903532 c 0.834358,1.658721 2.253264,2.93274 3.077629,4.601454 l 0.259798,-0.514604 c -1.034192,-1.393884 -1.713668,-3.287423 -3.337415,-4.086808 m 11.486144,4.1518 c 1.333971,-1.179092 2.228282,-2.73789 3.377395,-4.081853 -1.698689,0.69946 -2.493077,2.588005 -3.377395,4.081853 m -13.84435,-3.946954 c 0.11991,2.393157 2.952725,3.157566 4.211754,4.931198 0.109917,-0.224826 0.32475,-0.669483 0.429668,-0.889314 -1.433894,-1.423902 -2.41314,-3.877011 -4.641422,-4.041884 m -0.549576,2.048422 c 0.659492,1.583779 2.687928,1.933509 3.207528,3.587234 -0.0099,-0.264797 -0.02998,-0.794388 -0.04496,-1.059184 -0.924287,-0.994232 -1.963486,-1.878552 -3.162563,-2.52805 m 20.98882,0.214833 c 0.194848,-0.244811 0.194848,-0.244811 0,0 m -4.656411,3.447342 c 1.628745,-1.039199 3.172553,-2.208297 4.656411,-3.447342 -1.938508,0.469638 -3.352416,2.043424 -4.656411,3.447342 m -18.425791,2.113371 c 1.813601,0.824364 3.832045,0.694465 5.765554,0.889314 -1.783625,-0.714448 -3.847034,-1.269022 -5.765554,-0.889314 m 19.050313,0.884318 c 1.783624,-0.02998 3.547265,-0.319754 5.295916,-0.654495 -0.0099,-0.129903 -0.03498,-0.394696 -0.04496,-0.524596 -1.748652,0.3897 -3.642193,0.329747 -5.250952,1.179091 m -18.525723,2.493078 c 0.07994,0.209839 0.23482,0.629514 0.314757,0.839357 1.60876,-0.524599 3.317443,-0.644507 4.91621,-1.204075 -1.743655,0.134898 -3.482314,0.329746 -5.230967,0.364718 m 19.350082,-0.244811 c 0.619521,0.289776 1.24404,0.584549 1.85357,0.899302 1.039199,0.104926 2.08839,0.109917 3.122593,-0.04996 -1.463871,-1.004225 -3.317442,-0.594541 -4.976163,-0.849345 m -17.40658,6.245192 c 1.50384,-1.139133 3.172554,-2.12336 4.311675,-3.667176 -1.413909,1.214064 -3.522284,1.873558 -4.311675,3.667176 m 15.882754,-3.347426 -0.294773,0.449662 c 1.673711,0.489623 2.752877,1.948488 4.106836,2.942726 0,-0.204841 -0.0099,-0.614524 -0.01499,-0.814373 -1.1691,-0.994229 -2.528051,-1.723671 -3.797073,-2.578015 m -1.783624,1.478869 c 0.3897,1.588768 1.658721,2.727892 2.408142,4.136806 0.234819,0.0749 0.699461,0.21984 0.934281,0.29478 -0.674481,-1.22905 -1.608761,-2.273256 -2.553032,-3.302463 -0.179862,-0.434659 -0.444657,-0.809382 -0.789391,-1.129123 m -11.57108,4.036896 c 0.134899,0.1049 0.404689,0.30975 0.539585,0.41468 0.699461,-1.10415 1.43889,-2.193321 2.133354,-3.30746 -1.303994,0.429668 -1.688697,2.02844 -2.672939,2.89278 m 5.210982,2.50306 c 1.483856,-1.13912 0.729438,-3.432349 1.099153,-5.061105 -0.944272,1.413922 -0.649499,3.417375 -1.099153,5.061105 m 3.442347,-5.111058 c 0.04496,1.568782 0.15488,3.137578 0.174865,4.711358 0.229824,0.0499 0.689468,0.1449 0.919291,0.19486 -0.354727,-1.63874 -0.539583,-3.317442 -1.094156,-4.906218 M 14.740846,179.60609 c -0.979245,0.0849 -1.978474,0.12497 -2.852801,0.62952 0.619523,0.40969 1.269022,0.78938 1.823595,1.29401 0.32475,1.04418 -0.06496,2.14334 -0.464643,3.1076 1.164102,0.01 1.76364,-1.5638 2.982701,-1.1791 0.759415,0.4047 1.463871,0.92429 2.283239,1.22406 -0.339737,-0.97924 -0.664488,-1.96348 -0.894309,-2.9727 0.849344,-0.57955 1.713677,-1.13913 2.647958,-1.57878 -1.109145,-0.12988 -2.223286,-0.23483 -3.307451,-0.51462 -0.494618,-0.84435 -0.73943,-1.7986 -1.07417,-2.70791 -0.379708,0.89432 -0.609531,1.87357 -1.144119,2.69792 z"
       id="path1030" />
    <path
       sodipodi:nodetypes="cccccc"
       id="path3902"
       d="M 4.9030597,41.252768 V 201.71405 l 22.5979493,-13.8643 -0.0068,-59.52977 62.743415,-37.270603 z"
       style="fill:#d4af37;fill-opacity:1;stroke:none;stroke-width:0.263289px;stroke-linecap:butt;stroke-linejoin:miter;stroke-opacity:1" />
    <g
       style="fill:#ffffff"
       transform="matrix(0.74925442,0,0,0.75224451,35.711361,91.109367)"
       id="g6826">
      <circle
         style="fill:#ffffff"
         cy="0"
         cx="0"
         r="9"
         id="circle6828" />
      <g
         style="fill:#ffffff"
         id="j-8">
        <g
           style="fill:#ffffff"
           id="i-8">
          <g
             style="fill:#ffffff"
             id="h-2">
            <!-- these coordinates are  -1/(1+tan(k*Pi/48)),1-1/(1+tan(k*Pi/48)) -->
            <path
               style="fill:#ffffff"
               inkscape:connector-curvature="0"
               d="M -1,0 -0.93848823,0.06151177 0,0 -0.93848823,-0.06151177 Z"
               transform="scale(19)"
               id="path6833" />
            <path
               style="fill:#ffffff"
               inkscape:connector-curvature="0"
               id="g-4"
               d="m -0.88366349,0.11633651 0.0495742,0.0495742 L 0,0 Z"
               transform="scale(19.238092)" />
            <use
               style="fill:#ffffff"
               height="1"
               width="1"
               y="0"
               x="0"
               xlink:href="#g-4"
               transform="scale(1,-1)"
               id="use6836" />
          </g>
          <use
             style="fill:#ffffff"
             height="1"
             width="1"
             y="0"
             x="0"
             xlink:href="#h-2"
             transform="rotate(45)"
             id="use6838" />
        </g>
        <use
           style="fill:#ffffff"
           height="1"
           width="1"
           y="0"
           x="0"
           xlink:href="#i-8"
           transform="rotate(90)"
           id="use6840" />
      </g>
      <use
         style="fill:#ffffff"
         height="1"
         width="1"
         y="0"
         x="0"
         xlink:href="#j-8"
         transform="scale(-1)"
         id="use6842" />
    </g>
    <path
       sodipodi:nodetypes="ccccccccc"
       id="path3900"
       d="M 4.9030597,11.150975 167.21828,105.65812 145.23524,118.61313 119.98613,104.04883 56.712444,140.79602 V 115.09137 L 97.067372,90.80956 4.9030597,37.415725 Z"
       style="fill:#041e42;fill-opacity:1;stroke:none;stroke-width:0.526579;stroke-linecap:butt;stroke-linejoin:miter;stroke-miterlimit:4;stroke-dasharray:none;stroke-opacity:1" />
    <path
       id="path3904"
       d="m 53.111264,117.37908 -21.93309,13.31473 -0.01497,55.5072 110.849516,-65.59941 -21.56791,-12.63203 -67.293566,39.18155 z"
       style="fill:#ce1126;fill-opacity:1;stroke:none;stroke-width:0.263289px;stroke-linecap:butt;stroke-linejoin:miter;stroke-opacity:1" />
    <path
       sodipodi:type="star"
       style="color:#000000;display:inline;overflow:visible;visibility:visible;fill:#ffffff;fill-opacity:1;fill-rule:nonzero;stroke:none;stroke-width:15;marker:none;enable-background:accumulate"
       id="path6906-5-3"
       sodipodi:sides="5"
       sodipodi:cx="156.8"
       sodipodi:cy="-86.837814"
       sodipodi:r1="19.530489"
       sodipodi:r2="7.421586"
       sodipodi:arg1="0.96007036"
       sodipodi:arg2="1.5883889"
       inkscape:flatsided="false"
       inkscape:rounded="1.44676e-15"
       inkscape:randomized="0"
       inkscape:transform-center-x="-0.18993033"
       inkscape:transform-center-y="-3.2988256"
       transform="matrix(0.24750897,0,0,0.2597997,-23.395166,52.334278)"
       d="m 168,-70.837814 -11.33056,-8.579563 -11.62535,8.175668 4.65831,-13.427232 -11.36795,-8.52995 14.20955,0.281076 4.59958,-13.447465 4.12367,13.600946 14.21065,0.218959 -11.66099,8.12477 z" />
    <path
       transform="matrix(0.24750897,0,0,0.2597997,82.538459,142.66321)"
       inkscape:transform-center-y="-3.2988256"
       inkscape:transform-center-x="-0.18993033"
       inkscape:randomized="0"
       inkscape:rounded="1.44676e-15"
       inkscape:flatsided="false"
       sodipodi:arg2="1.5883889"
       sodipodi:arg1="0.96007036"
       sodipodi:r2="7.421586"
       sodipodi:r1="19.530489"
       sodipodi:cy="-86.837814"
       sodipodi:cx="156.8"
       sodipodi:sides="5"
       id="path6906-5-3-1"
       style="color:#000000;display:inline;overflow:visible;visibility:visible;fill:#ffffff;fill-opacity:1;fill-rule:nonzero;stroke:none;stroke-width:15;marker:none;enable-background:accumulate"
       sodipodi:type="star"
       d="m 168,-70.837814 -11.33056,-8.579563 -11.62535,8.175668 4.65831,-13.427232 -11.36795,-8.52995 14.20955,0.281076 4.59958,-13.447465 4.12367,13.600946 14.21065,0.218959 -11.66099,8.12477 z" />
    <path
       transform="matrix(0.24750897,0,0,0.2597997,-23.015163,203.74613)"
       inkscape:transform-center-y="-3.2988256"
       inkscape:transform-center-x="-0.18993033"
       inkscape:randomized="0"
       inkscape:rounded="1.44676e-15"
       inkscape:flatsided="false"
       sodipodi:arg2="1.5883889"
       sodipodi:arg1="0.96007036"
       sodipodi:r2="7.421586"
       sodipodi:r1="19.530489"
       sodipodi:cy="-86.837814"
       sodipodi:cx="156.8"
       sodipodi:sides="5"
       id="path6906-5-3-9"
       style="color:#000000;display:inline;overflow:visible;visibility:visible;fill:#ffffff;fill-opacity:1;fill-rule:nonzero;stroke:none;stroke-width:15;marker:none;enable-background:accumulate"
       sodipodi:type="star"
       d="m 168,-70.837814 -11.33056,-8.579563 -11.62535,8.175668 4.65831,-13.427232 -11.36795,-8.52995 14.20955,0.281076 4.59958,-13.447465 4.12367,13.600946 14.21065,0.218959 -11.66099,8.12477 z" />
    <path
       d="m 166.99403,197.28852 -20.02373,0.003 -20.6305,60.13723 -16.53195,-47.81594 c 0,0 -68.51027,-0.0552 -104.9044192,0 v 79.73871 H 22.530465 v -34.70939 c 5.843277,-9.3e-4 11.575862,-7e-5 17.419146,0 12.484769,1.5e-4 22.535668,-10.0509 22.535668,-22.53567 0,-2.29212 -0.340095,-4.88149 -0.970522,-6.96242 h 7.565625 v 52.23528 h 17.962029 l -0.04523,-52.23517 h 8.982449 l 20.04489,52.23534 H 136.8888 Z M 22.530465,225.14464 h 15.451531 c 3.870142,0 6.985754,3.11561 6.985754,6.98575 0,3.87014 -3.115612,6.98575 -6.985754,6.98575 H 22.530465 Z"
       style="fill:#041e42;fill-opacity:1;stroke:#000000;stroke-width:0.183836px;stroke-linecap:butt;stroke-linejoin:miter;stroke-opacity:1"
       id="path3975" />
    <g
       id="g4348">
      <path
         id="path4122"
         style="font-style:normal;font-variant:normal;font-weight:bold;font-stretch:normal;font-size:14.1682px;line-height:90;font-family:Gotham;-inkscape-font-specification:'Gotham Bold';fill:#041e42;fill-opacity:1;stroke-width:0.220296"
         d="m 12.62231,300.78177 v -0.0281 c 0,-2.01613 -1.423991,-3.41192 -3.7785085,-3.41192 H 4.8115131 v 9.86924 h 2.1712323 v -2.96078 h 1.6495723 c 2.2135293,0 3.9899923,-1.18429 3.9899923,-3.46832 z m -2.199431,0.0423 c 0,0.84594 -0.6344509,1.49449 -1.7200667,1.49449 H 6.9827454 v -3.01716 h 1.6777702 c 1.0856166,0 1.7623634,0.52165 1.7623634,1.49447 z" />
      <path
         id="path4124"
         style="font-style:normal;font-variant:normal;font-weight:bold;font-stretch:normal;font-size:14.1682px;line-height:90;font-family:Gotham;-inkscape-font-specification:'Gotham Bold';fill:#041e42;fill-opacity:1;stroke-width:0.220296"
         d="m 21.743864,307.21088 v -1.93155 h -5.357586 v -2.07254 h 4.65264 v -1.93156 h -4.65264 v -2.00204 h 5.287092 v -1.93155 h -7.444224 v 9.86924 z" />
      <path
         id="path4126"
         style="font-style:normal;font-variant:normal;font-weight:bold;font-stretch:normal;font-size:14.1682px;line-height:90;font-family:Gotham;-inkscape-font-specification:'Gotham Bold';fill:#041e42;fill-opacity:1;stroke-width:0.220296"
         d="m 33.726836,302.27626 v -0.0281 c 0,-2.80569 -2.185331,-5.07561 -5.230696,-5.07561 -3.045364,0 -5.258893,2.29811 -5.258893,5.1038 v 0.0281 c 0,2.80569 2.185331,5.07561 5.230695,5.07561 3.045365,0 5.258894,-2.29812 5.258894,-5.1038 z m -2.269925,0.0281 c 0,1.69187 -1.212506,3.07357 -2.960771,3.07357 -1.748264,0 -2.988968,-1.4099 -2.988968,-3.10176 v -0.0281 c 0,-1.69188 1.212505,-3.07358 2.96077,-3.07358 1.748266,0 2.988969,1.40989 2.988969,3.10177 z" />
      <path
         id="path4128"
         style="font-style:normal;font-variant:normal;font-weight:bold;font-stretch:normal;font-size:14.1682px;line-height:90;font-family:Gotham;-inkscape-font-specification:'Gotham Bold';fill:#041e42;fill-opacity:1;stroke-width:0.220296"
         d="m 43.463676,300.78177 v -0.0281 c 0,-2.01613 -1.42399,-3.41192 -3.778507,-3.41192 H 35.65288 v 9.86924 h 2.171232 v -2.96078 h 1.649573 c 2.213528,0 3.989991,-1.18429 3.989991,-3.46832 z m -2.19943,0.0423 c 0,0.84594 -0.63445,1.49449 -1.720067,1.49449 h -1.720067 v -3.01716 h 1.677771 c 1.085615,0 1.762363,0.52165 1.762363,1.49447 z" />
      <path
         id="path4130"
         style="font-style:normal;font-variant:normal;font-weight:bold;font-stretch:normal;font-size:14.1682px;line-height:90;font-family:Gotham;-inkscape-font-specification:'Gotham Bold';fill:#041e42;fill-opacity:1;stroke-width:0.220296"
         d="m 52.162264,307.21088 v -1.97385 h -4.92052 v -7.89539 h -2.171231 v 9.86924 z" />
      <path
         id="path4132"
         style="font-style:normal;font-variant:normal;font-weight:bold;font-stretch:normal;font-size:14.1682px;line-height:90;font-family:Gotham;-inkscape-font-specification:'Gotham Bold';fill:#041e42;fill-opacity:1;stroke-width:0.220296"
         d="m 61.314437,307.21088 v -1.93155 h -5.357586 v -2.07254 h 4.65264 v -1.93156 h -4.65264 v -2.00204 h 5.287092 v -1.93155 h -7.444224 v 9.86924 z" />
      <path
         id="path4136"
         style="font-style:normal;font-variant:normal;font-weight:bold;font-stretch:normal;font-size:14.1682px;line-height:90;font-family:Gotham;-inkscape-font-specification:'Gotham Bold';fill:#041e42;fill-opacity:1;stroke-width:0.220296"
         d="m 74.399328,304.2924 v -0.0281 c 0,-1.72006 -1.127913,-2.43912 -3.129957,-2.96077 -1.705968,-0.43707 -2.128936,-0.64856 -2.128936,-1.29709 v -0.0281 c 0,-0.47936 0.437066,-0.86002 1.268902,-0.86002 0.831835,0 1.69187,0.36656 2.566001,0.9728 l 1.127913,-1.63546 c -1.001023,-0.80363 -2.227628,-1.25481 -3.665717,-1.25481 -2.016144,0 -3.454232,1.18432 -3.454232,2.97488 v 0.0282 c 0,1.95975 1.283,2.50961 3.270945,3.01717 1.649575,0.42296 1.987948,0.70495 1.987948,1.25481 v 0.0281 c 0,0.57805 -0.535758,0.93051 -1.423991,0.93051 -1.127912,0 -2.05844,-0.46525 -2.946671,-1.1984 l -1.283,1.53679 c 1.184306,1.05741 2.692891,1.57908 4.187375,1.57908 2.128936,0 3.62342,-1.09972 3.62342,-3.05947 z" />
      <path
         id="path4138"
         style="font-style:normal;font-variant:normal;font-weight:bold;font-stretch:normal;font-size:14.1682px;line-height:90;font-family:Gotham;-inkscape-font-specification:'Gotham Bold';fill:#041e42;fill-opacity:1;stroke-width:0.220296"
         d="m 88.010507,299.34369 v -2.00205 H 79.83314 v 2.00205 h 3.003068 v 7.86719 h 2.171232 v -7.86719 z" />
      <path
         id="path4140"
         style="font-style:normal;font-variant:normal;font-weight:bold;font-stretch:normal;font-size:14.1682px;line-height:90;font-family:Gotham;-inkscape-font-specification:'Gotham Bold';fill:#041e42;fill-opacity:1;stroke-width:0.220296"
         d="m 97.195063,307.21088 v -1.93155 h -5.357587 v -2.07254 h 4.652636 v -1.93156 h -4.652636 v -2.00204 h 5.287089 v -1.93155 h -7.444221 v 9.86924 z" />
      <path
         id="path4142"
         style="font-style:normal;font-variant:normal;font-weight:bold;font-stretch:normal;font-size:14.1682px;line-height:90;font-family:Gotham;-inkscape-font-specification:'Gotham Bold';fill:#041e42;fill-opacity:1;stroke-width:0.220296"
         d="m 106.21727,307.21088 v -1.97385 h -4.92052 v -7.89539 h -2.171225 v 9.86924 z" />
      <path
         id="path4144"
         style="font-style:normal;font-variant:normal;font-weight:bold;font-stretch:normal;font-size:14.1682px;line-height:90;font-family:Gotham;-inkscape-font-specification:'Gotham Bold';fill:#041e42;fill-opacity:1;stroke-width:0.220296"
         d="m 115.36944,307.21088 v -1.93155 h -5.35758 v -2.07254 h 4.65264 v -1.93156 h -4.65264 v -2.00204 h 5.28709 v -1.93155 h -7.44423 v 9.86924 z" />
      <path
         id="path4146"
         style="font-style:normal;font-variant:normal;font-weight:bold;font-stretch:normal;font-size:14.1682px;line-height:90;font-family:Gotham;-inkscape-font-specification:'Gotham Bold';fill:#041e42;fill-opacity:1;stroke-width:0.220296"
         d="m 126.35139,297.34164 h -2.34042 l -2.5801,6.95076 -2.58011,-6.95076 h -2.3968 l 3.98998,9.93974 h 1.91746 z" />
      <path
         id="path4148"
         style="font-style:normal;font-variant:normal;font-weight:bold;font-stretch:normal;font-size:14.1682px;line-height:90;font-family:Gotham;-inkscape-font-specification:'Gotham Bold';fill:#041e42;fill-opacity:1;stroke-width:0.220296"
         d="m 130.14399,307.21088 v -9.86924 h -2.17123 v 9.86924 z" />
      <path
         id="path4150"
         style="font-style:normal;font-variant:normal;font-weight:bold;font-stretch:normal;font-size:14.1682px;line-height:90;font-family:Gotham;-inkscape-font-specification:'Gotham Bold';fill:#041e42;fill-opacity:1;stroke-width:0.220296"
         d="m 139.74448,304.2924 v -0.0281 c 0,-1.72006 -1.12792,-2.43912 -3.12996,-2.96077 -1.70597,-0.43707 -2.12894,-0.64856 -2.12894,-1.29709 v -0.0281 c 0,-0.47936 0.43708,-0.86002 1.26891,-0.86002 0.83183,0 1.69186,0.36656 2.56599,0.9728 l 1.12792,-1.63546 c -1.00102,-0.80363 -2.22763,-1.25481 -3.66571,-1.25481 -2.01615,0 -3.45423,1.18432 -3.45423,2.97488 v 0.0282 c 0,1.95975 1.28299,2.50961 3.27094,3.01717 1.64958,0.42296 1.98793,0.70495 1.98793,1.25481 v 0.0281 c 0,0.57805 -0.53574,0.93051 -1.42397,0.93051 -1.12792,0 -2.05844,-0.46525 -2.94668,-1.1984 l -1.283,1.53679 c 1.18431,1.05741 2.69289,1.57908 4.18738,1.57908 2.12893,0 3.62342,-1.09972 3.62342,-3.05947 z" />
      <path
         id="path4152"
         style="font-style:normal;font-variant:normal;font-weight:bold;font-stretch:normal;font-size:14.1682px;line-height:90;font-family:Gotham;-inkscape-font-specification:'Gotham Bold';fill:#041e42;fill-opacity:1;stroke-width:0.220296"
         d="m 143.91245,307.21088 v -9.86924 h -2.17122 v 9.86924 z" />
      <path
         id="path4154"
         style="font-style:normal;font-variant:normal;font-weight:bold;font-stretch:normal;font-size:14.1682px;line-height:90;font-family:Gotham;-inkscape-font-specification:'Gotham Bold';fill:#041e42;fill-opacity:1;stroke-width:0.220296"
         d="m 156.43142,302.27626 v -0.0281 c 0,-2.80569 -2.18533,-5.07561 -5.2307,-5.07561 -3.04535,0 -5.25889,2.29811 -5.25889,5.1038 v 0.0281 c 0,2.80569 2.18533,5.07561 5.23069,5.07561 3.04537,0 5.2589,-2.29812 5.2589,-5.1038 z m -2.26993,0.0281 c 0,1.69187 -1.21249,3.07357 -2.96077,3.07357 -1.74826,0 -2.98897,-1.4099 -2.98897,-3.10176 v -0.0281 c 0,-1.69188 1.21252,-3.07358 2.96077,-3.07358 1.74826,0 2.98897,1.40989 2.98897,3.10177 z" />
      <path
         id="path4156"
         style="font-style:normal;font-variant:normal;font-weight:bold;font-stretch:normal;font-size:14.1682px;line-height:90;font-family:Gotham;-inkscape-font-specification:'Gotham Bold';fill:#041e42;fill-opacity:1;stroke-width:0.220296"
         d="m 167.12699,307.21088 v -9.86924 h -2.14304 v 6.07663 l -4.62445,-6.07663 h -2.00203 v 9.86924 h 2.14302 v -6.27402 l 4.77953,6.27402 z" />
      <path
         style="fill:#041e42;fill-opacity:1;stroke-width:0.255653"
         fill="#0a2d54"
         opacity="1"
         d="m 62.680342,298.60245 c -0.09714,-1.2629 1.643837,-1.90459 2.474705,-1.02002 0.526639,0.72602 0.603336,1.74863 0.201962,2.5514 -0.30678,0.73625 -0.956135,1.23223 -1.516013,1.7691 -0.304225,-0.29656 -0.598223,-0.60334 -0.871767,-0.92548 0.437163,-0.34 0.912674,-0.66723 1.16577,-1.17853 -0.756729,0.11238 -1.531353,-0.36049 -1.454657,-1.19647 z"
         id="path1000-7" />
    </g>
  </g>
</svg>
