<?xml version="1.0" encoding="iso-8859-1"?>
<!DOCTYPE svg PUBLIC "-//W3C//DTD SVG 1.0//EN" "http://www.w3.org/TR/2001/REC-SVG-20010904/DTD/svg10.dtd">
<!-- Creator: CorelDRAW -->
<svg xmlns="http://www.w3.org/2000/svg" xmlns:odm="http://product.corel.com/CGS/11/cddns/" xml:space="preserve" width="26.46cm" height="14.296cm" style="shape-rendering:geometricPrecision; text-rendering:geometricPrecision; image-rendering:optimizeQuality; fill-rule:evenodd"
     viewBox="0 0 26460 14296">
 <defs>
  <style type="text/css">
   <![CDATA[
    .fil1 {fill:#E40083}
    .fil0 {fill:#FFFFFF}
   ]]>
  </style>
 </defs>
 <g id="Layer 1">
  <g>
   <rect class="fil0" x="6507" y="3599" width="12483" height="4329"/>
   <path class="fil1" d="M3107 10613c876,-913 2101,-1182 3056,-1649 -955,514 -1984,1506 -3056,1649m-570 -7024c40,506 -878,630 -1367,413 -165,-73 -528,-273 -321,-505 408,-455 1647,-414 1688,92m1577 -260c21,261 -327,212 -523,114 -115,-58 -279,-300 -80,-365 232,-77 584,7 603,251m8802 -2759c69,151 -163,186 -300,200 -210,21 -466,-90 -433,-267 74,-396 626,-170 733,67m2471 -268c120,204 -93,379 -239,422 -403,120 -685,-46 -955,-259 -152,-122 3,-378 205,-423 378,-85 802,-56 989,260m6072 3297c-66,-156 -270,-225 -430,-187 -116,27 -373,45 -298,187 93,113 786,265 728,0zm1120 1167c-851,0 -864,164 -145,437 -127,-3 -1116,10 -800,-406 228,-300 627,-163 945,-31m1093 1909l0 86c0,219 -652,152 -711,-86 -92,-369 711,-192 711,0m2708 3884c149,136 59,173 -33,243 -212,161 -524,-31 -601,-213 -107,-255 454,-194 634,-30m-2347 119c53,179 -170,156 -255,184 -213,69 -477,-49 -477,-246 0,-290 657,-191 732,61m-8219 -56c-682,0 -792,144 -163,433 -37,71 -518,39 -702,-145 -183,-184 -66,-405 108,-448 280,-70 577,-20 757,160m1517 -7926c612,324 1044,-360 1693,-252 -36,324 -1146,522 -576,864 194,117 936,-216 1296,36 -108,325 -576,217 -648,613 612,432 1657,72 2342,468 -3521,590 1215,1366 2642,1477 -1410,-55 -3601,-341 -3543,37 541,612 1657,35 2198,648 -757,612 -1658,-829 -2414,108 -252,555 770,612 1081,649 -361,360 -1081,-36 -1477,324 828,1009 1826,1751 2799,2507 -1841,-679 -3079,-2831 -4096,-1751 36,325 432,397 648,577l-1117 -72c252,432 649,937 1117,1297 -937,-217 -1105,-1800 -2520,-776 -504,397 178,632 214,992 -504,0 -968,-701 -1149,-708 -1168,-49 -1999,-123 -2029,1174 -315,-1120 -1042,-1275 -2082,-286 -108,-288 275,-970 -288,-828 -1033,260 -2743,3417 -3387,4503 324,-1513 1267,-2788 2126,-4288 221,-385 -718,-695 -1077,-99 191,-1012 -771,-111 -892,-231 -43,-275 339,-399 420,-678 -471,-353 -1971,293 -1910,973 -350,-702 -49,-834 435,-1281 -1435,-365 -3294,580 -7136,1569 2221,-929 5675,-1910 6230,-2332 -1989,-204 -4276,490 -4449,606 -236,158 -389,154 -478,50 -123,-144 30,-324 411,-414 978,-234 2822,-662 3943,-901 143,-216 -214,-245 -397,-252 -868,-32 -2106,564 -2380,198 -349,-467 1479,-270 2128,-666 -720,-649 -1801,-216 -2558,-72 725,-551 1595,-640 2351,-676 -252,-180 -797,-287 -1157,-287 549,-36 2304,105 1038,-756 1489,-200 1066,-553 -432,-883 3089,-31 2103,-950 -539,-1361 1723,-89 2765,707 3007,499 215,-186 -42,-408 -940,-723 663,-332 882,457 1472,138 71,-38 -510,-653 -554,-1084 720,144 1134,1282 2131,846 1066,-467 1394,-591 901,-1549 895,190 800,1357 1981,972 549,-179 108,-684 613,-684 216,108 504,36 684,180l-451 399c398,17 703,231 1063,33 0,-360 73,-864 541,-649 252,73 785,18 749,270 -253,108 -642,145 -714,470 489,146 911,190 1334,-127 1355,1498 3289,-437 3747,-1009 -252,901 -1297,1514 -1946,2198m1647 9361c-606,-223 -1362,-848 -1758,-1379 605,396 1262,895 1758,1379m-2331 -8316c72,396 -65,922 -27,1327l963 -1039c347,59 853,-15 1279,-23l-1386 1392c198,378 443,753 688,1128 245,375 411,737 609,1115 -357,-48 -657,-137 -953,-199l-1137 -1238c-186,342 -72,707 -144,1067l-1090 424c144,-1153 225,-2513 225,-3810 324,-108 685,36 973,-144m-2391 3967l-1130 -1823 -51 1261c-276,212 -606,318 -909,476 72,-1008 59,-2010 247,-3076l-161 -341c108,-216 571,-180 787,-432 379,594 703,1485 1153,2169l-67 -1949c292,-65 626,-179 882,-315l-36 3445c-168,208 -405,377 -715,585m-3777 8c62,-1253 163,-2554 187,-3759 302,-33 630,-117 983,-252 -87,1216 -60,2432 -89,3648 -374,26 -733,158 -1081,363m-2197 -1389c-143,274 -174,656 -246,1052 -324,109 -684,289 -1045,325 145,-937 327,-1931 255,-2976l-399 168 144 -903c3555,-1182 3837,1947 1291,2334m612 -1534c137,411 -309,821 -677,821l71 -1153c325,-72 530,103 606,332"/>
   <path class="fil1" d="M21571 3333c22,-638 22,-1072 87,-1718 12,-125 226,-478 619,-196 163,117 332,1090 707,1208 148,74 354,-681 717,-1130 170,-210 105,-231 439,-224 467,9 370,198 363,831l-13 1173c0,249 -605,413 -605,177 0,-180 98,-1611 -204,-996 -180,366 -391,665 -592,998 -54,91 -180,34 -215,5 -303,-249 -738,-1296 -795,-1018 -42,205 -42,488 -42,711 0,356 -485,365 -466,179z"/>
  </g>
 </g>
</svg>
