<svg id="logo_planet" data-name="Layer 1" xmlns="http://www.w3.org/2000/svg" xmlns:xlink="http://www.w3.org/1999/xlink" viewBox="0 0 154 36">
  <defs>
    <style>
      .cls-1 {
        fill: #000;
      }

      .cls-2 {
        fill: url(#radial-gradient);
      }
    </style>
    <radialGradient id="radial-gradient" cx="-989.33711" cy="-2535.43866" r="35.14396" gradientTransform="matrix(-0.71867, -0.70111, 0.82191, -0.84262, 1402.64417, -2799.52672)" gradientUnits="userSpaceOnUse">
      <stop offset="0" stop-color="#1980c1"/>
      <stop offset="0.3168" stop-color="#1983c0"/>
      <stop offset="0.55371" stop-color="#198dbd"/>
      <stop offset="0.76457" stop-color="#199db8"/>
      <stop offset="0.95925" stop-color="#19b3b1"/>
      <stop offset="1" stop-color="#19b9af"/>
    </radialGradient>
  </defs>
  <title>logo_planet_(export)</title>
  <g>
    <path class="cls-1" d="M42.11413,36V7.609h3.7761v3.322a8.85467,8.85467,0,0,1,7.68695-3.85769,10.01142,10.01142,0,0,1,7.43923,3.18006,10.76981,10.76981,0,0,1,3.07416,7.74652,10.77038,10.77038,0,0,1-3.07416,7.74655A10.01417,10.01417,0,0,1,53.57719,28.925a8.85432,8.85432,0,0,1-7.68695-3.85736V36ZM53.12381,10.72641a6.99845,6.99845,0,0,0-5.1605,2.09083,7.10388,7.10388,0,0,0-2.07307,5.18256,7.09358,7.09358,0,0,0,2.07289,5.18078,7.35954,7.35954,0,0,0,10.27989,0,7.09738,7.09738,0,0,0,2.07185-5.18078A7.10805,7.10805,0,0,0,58.243,12.81724,6.94871,6.94871,0,0,0,53.12381,10.72641Z"/>
    <rect class="cls-1" x="66.74938" width="3.77662" height="28.38923"/>
    <path class="cls-1" d="M83.64334,28.925a10.01168,10.01168,0,0,1-7.4403-3.17861,10.7688,10.7688,0,0,1-3.07438-7.74655A10.76755,10.76755,0,0,1,76.203,10.25328a10.00893,10.00893,0,0,1,7.4403-3.18006A8.85273,8.85273,0,0,1,91.329,10.93091V7.609h3.77518V28.38923H91.329V25.068A8.85293,8.85293,0,0,1,83.64334,28.925Zm.45319-18.19855a6.95829,6.95829,0,0,0-5.121,2.09083,7.1119,7.1119,0,0,0-2.07092,5.18256,7.10135,7.10135,0,0,0,2.07092,5.18078,7.36241,7.36241,0,0,0,10.28223,0A7.09944,7.09944,0,0,0,91.329,17.9998a7.11005,7.11005,0,0,0-2.0713-5.18256A7.00168,7.00168,0,0,0,84.09654,10.72641Z"/>
    <path class="cls-1" d="M113.14348,28.38923V15.8583a5.23654,5.23654,0,0,0-1.331-3.82329,4.95149,4.95149,0,0,0-3.67851-1.35059,5.73527,5.73527,0,0,0-4.25409,1.63909,6.97634,6.97634,0,0,0-1.61988,5.058V28.38923H98.48517V7.609H102.26v2.73517a7.45158,7.45158,0,0,1,6.57551-3.27091,7.78146,7.78146,0,0,1,5.87505,2.316,8.73032,8.73032,0,0,1,2.2103,6.26307V28.38923Z"/>
    <path class="cls-1" d="M130.54749,28.925a10.92113,10.92113,0,0,1-8.03542-3.095A10.65838,10.65838,0,0,1,119.416,17.9998a10.792,10.792,0,0,1,3.03309-7.80879,10.51806,10.51806,0,0,1,7.85223-3.11779,9.60341,9.60341,0,0,1,7.46236,3.2235A11.60747,11.60747,0,0,1,140.526,19.661l-.01194.08218H123.29434a6.68178,6.68178,0,0,0,2.47344,4.1089,7.81182,7.81182,0,0,0,4.86259,1.50409,6.38193,6.38193,0,0,0,5.84825-2.96l.04926-.07929,3.21587,1.82587-.055.08581A10.19509,10.19509,0,0,1,130.54749,28.925Zm6.26926-12.50487a6.76068,6.76068,0,0,0-2.2523-4.27507,6.54581,6.54581,0,0,0-4.26313-1.50186,6.73561,6.73561,0,0,0-7.0095,5.77693Z"/>
    <path class="cls-1" d="M150.25588,28.581a7.99718,7.99718,0,0,1-4.26132-.9672c-1.47907-.93429-2.22913-2.71456-2.22913-5.29116V11.26107h-2.20014V7.609h2.20014V2.93968L147.54317,1.811V7.609h5.47539v3.65211h-5.47539V22.32268a3.0587,3.0587,0,0,0,.56976,2.09591,2.37342,2.37342,0,0,0,1.7643.62841c.17014.00289.349.00471.535.00471.7048,0,1.524-.02246,2.50569-.06772l.1006-.00467v3.39794l-.08358.01123A20.759,20.759,0,0,1,150.25588,28.581Z"/>
  </g>
  <circle class="cls-2" cx="17.99977" cy="18.00092" r="18"/>
</svg>
