<svg xmlns:xlink="http://www.w3.org/1999/xlink" xmlns="http://www.w3.org/2000/svg" fill="none" viewBox="0.5 0.5 107 45" class="Brands_brandContainer__Z3XzI brandcolors active" role="img" width="107"  height="45" ><g clip-path="url(#playactie_svg__a)" fill="#929292"><path d="M101.241 42.331v-1.347h5.302a.385.385 0 0 0 .385-.383v-1.688a.385.385 0 0 0-.385-.383h-5.302v-1.225h5.591a.385.385 0 0 0 .384-.383v-2.02a.385.385 0 0 0-.384-.383h-9.248a.385.385 0 0 0-.385.383v9.828c0 .21.173.383.385.383h9.293a.385.385 0 0 0 .385-.383v-2.02a.385.385 0 0 0-.385-.383h-5.636zM95.242 34.509h-3.275a.384.384 0 0 0-.385.383v9.84c0 .211.172.383.385.383h3.275a.384.384 0 0 0 .384-.383v-9.84a.384.384 0 0 0-.384-.383M57.805 34.781l-3.412 9.829a.382.382 0 0 0 .363.507h3.162a.38.38 0 0 0 .365-.268l.53-1.67h3.894l.527 1.668c.05.16.2.268.365.268h3.285c.264 0 .45-.259.363-.508L63.85 34.78a.39.39 0 0 0-.363-.259h-5.318a.38.38 0 0 0-.363.259zm1.7 6.219 1.262-3.976L62.022 41zM75.22 42.149q-1.172 0-2.006-.287-.837-.302-1.277-.833a1.88 1.88 0 0 1-.44-1.24c0-.474.142-.867.426-1.211q.44-.53 1.277-.817.85-.3 2.022-.301a7.4 7.4 0 0 1 3.097.66c.257.123.55-.06.55-.342v-2.331a.38.38 0 0 0-.216-.345 9.4 9.4 0 0 0-1.943-.665q-1.126-.258-2.508-.256-2.236 0-3.844.756-1.612.74-2.463 2.042-.836 1.286-.836 2.906c0 1.08.274 2.027.82 2.874q.836 1.257 2.416 1.982 1.596.726 3.8.726c.96 0 1.82-.101 2.567-.302a9 9 0 0 0 2.037-.812.38.38 0 0 0 .197-.337v-2.219a.38.38 0 0 0-.555-.34 6 6 0 0 1-1.04.41 7.3 7.3 0 0 1-2.082.287zM79.434 34.905v2.368c0 .21.173.383.384.383h3.294v7.078c0 .21.174.383.385.383h3.29c.211 0 .384 0 .384-.383v-7.078h3.217a.385.385 0 0 0 .385-.383v-2.368a.385.385 0 0 0-.385-.383h-10.57a.385.385 0 0 0-.384.383" class="playactie_svg__brand-part" fill="#000000"></path><path d="M1.188 1.718V20.46c0 .67.545 1.216 1.221 1.216h8.305c.673 0 1.222-.543 1.222-1.216v-3.444h5.345q3.592 0 6.112-1.044c1.678-.696 2.955-1.656 3.818-2.886.868-1.228 1.296-2.66 1.296-4.295s-.37-3.1-1.103-4.34l.005-.004q-1.105-1.86-3.273-2.903C22.691.847 20.897.5 18.762.5H2.412c-.674 0-1.222.543-1.222 1.216zm10.745 9.876V7.27h2.482c.887 0 1.55.19 2.005.563.45.378.676.892.676 1.553q-.002 1.048-.789 1.625v.005q-.787.579-2.313.58h-2.061M51.123 7.262l-10.433.005V1.716c0-.67-.546-1.216-1.222-1.216h-8.305c-.673 0-1.222.543-1.222 1.216v18.742c0 .67.546 1.216 1.222 1.216h19.96c.673 0 1.221-.543 1.221-1.216V8.476c0-.67-.546-1.216-1.221-1.216zM42.54 24.642l-2.615 5.517-2.64-5.524a1.22 1.22 0 0 0-1.102-.695h-8.03c-.907 0-1.496.948-1.095 1.755l6.709 13.48v4.719c0 .67.545 1.215 1.221 1.215h9.873c.673 0 1.221-.543 1.221-1.215v-4.718l6.666-13.488c.399-.81-.193-1.752-1.097-1.752l-8.004.007c-.472 0-.902.27-1.104.696zM6.663 24.778.56 43.52a1.216 1.216 0 0 0 1.162 1.59h8.872c.572 0 1.065-.395 1.19-.948l.436-1.925h6.552l.425 1.922c.123.558.62.953 1.193.953h8.89c.829 0 1.416-.804 1.16-1.59l-6.102-18.741c-.163-.5-.632-.84-1.161-.84H7.827c-.53 0-.998.34-1.162.84zm8.834 5.403 2.39 6.613h-4.761l2.373-6.613z" class="playactie_svg__play" fill="#D73642"></path></g><defs><clipPath id="playactie_svg__a"><path fill="#fff" d="M0 0h107v45H0z"></path></clipPath></defs></svg>