<svg xmlns:xlink="http://www.w3.org/1999/xlink" xmlns="http://www.w3.org/2000/svg" fill="none" viewBox="0.5 0.5 131 45" class="Brands_brandContainer__Z3XzI brandcolors active" role="img" width="131"  height="45" ><g clip-path="url(#playreality_svg__a)" fill="#929292"><path d="m127.244 34.714-2.188 3.593-2.144-3.588a.38.38 0 0 0-.328-.187h-3.619a.383.383 0 0 0-.321.592l4.249 6.563v3.05c0 .21.172.382.383.382h3.607a.384.384 0 0 0 .383-.383v-3.05l4.261-6.562a.383.383 0 0 0-.321-.592h-3.633a.38.38 0 0 0-.329.185zM71.39 40.988h5.275c.21 0 .383-.173.383-.383V38.92a.384.384 0 0 0-.383-.383h-5.276V37.31h5.563c.211 0 .384-.172.384-.383V34.91a.384.384 0 0 0-.384-.383h-9.205a.384.384 0 0 0-.384.383v9.821c0 .211.173.383.383.383h9.252c.21 0 .383-.172.383-.383v-2.017a.384.384 0 0 0-.383-.383h-5.609v-1.346zM64.658 41.065a3 3 0 0 0 1.18-1.18q.44-.757.44-1.77 0-1.072-.516-1.876-.5-.815-1.437-1.254-.939-.453-2.193-.455h-7.35a.384.384 0 0 0-.384.383v9.821c0 .21.173.383.384.383h3.259c.21 0 .383-.172.383-.383V40.79l3.123 4.174a.39.39 0 0 0 .307.153h3.702c.323 0 .5-.375.297-.627l-2.502-3.04a3.45 3.45 0 0 0 1.31-.388zm-2.996-1.695q-.424.32-1.226.319h-2.012v-2.406h2.12q.757 0 1.15.301.409.288.409.862 0 .604-.439.922zM105.936 34.516h-3.26a.383.383 0 0 0-.383.383v9.835c0 .212.172.383.383.383h3.26a.383.383 0 0 0 .383-.383v-9.835a.383.383 0 0 0-.383-.383M81.324 34.789l-3.396 9.82a.382.382 0 0 0 .361.508h3.147a.38.38 0 0 0 .367-.268l.526-1.668h3.88l.525 1.668c.05.16.198.268.366.268h3.267a.382.382 0 0 0 .361-.507l-3.384-9.821a.38.38 0 0 0-.361-.259h-5.295a.38.38 0 0 0-.362.259zm1.69 6.216 1.255-3.973 1.25 3.973zM107.524 34.53a.384.384 0 0 0-.383.383v2.365c0 .21.172.383.383.383h3.278v7.073c0 .21.173.383.384.383h3.273a.385.385 0 0 0 .384-.383v-7.073h3.202c.21 0 .383-.172.383-.383v-2.365a.385.385 0 0 0-.383-.383zM95.162 34.53h-3.26a.384.384 0 0 0-.383.383v9.821c0 .21.173.383.384.383h9.191a.384.384 0 0 0 .383-.383v-2.456a.384.384 0 0 0-.383-.383h-5.549v-6.982a.384.384 0 0 0-.383-.383" class="playreality_svg__brand-part" fill="#000000"></path><path d="M1.184 1.718V20.46c0 .67.543 1.216 1.216 1.216h8.272c.67 0 1.217-.543 1.217-1.216v-3.444h5.323q3.578 0 6.088-1.044c1.672-.696 2.944-1.656 3.803-2.886.865-1.228 1.291-2.66 1.291-4.295s-.369-3.1-1.099-4.34l.005-.004q-1.1-1.86-3.26-2.903C22.601.847 20.814.5 18.688.5H2.403c-.671 0-1.217.543-1.217 1.216zm10.702 9.876V7.27h2.472c.883 0 1.544.19 1.997.563.448.378.673.892.673 1.553q-.001 1.048-.785 1.625v.005q-.784.579-2.304.58h-2.053M50.92 7.262l-10.39.005V1.716c0-.67-.544-1.216-1.217-1.216H31.04c-.67 0-1.217.543-1.217 1.216v18.742c0 .67.544 1.216 1.217 1.216h19.88c.67 0 1.216-.543 1.216-1.216V8.476c0-.67-.543-1.216-1.216-1.216zM42.373 24.642l-2.606 5.517-2.63-5.524a1.22 1.22 0 0 0-1.096-.695h-8c-.902 0-1.489.948-1.089 1.755l6.682 13.48v4.719c0 .67.543 1.215 1.216 1.215h9.834c.67 0 1.216-.543 1.216-1.215v-4.718l6.639-13.488a1.216 1.216 0 0 0-1.092-1.752l-7.973.007c-.47 0-.898.27-1.099.696zM6.638 24.778.56 43.52c-.254.785.33 1.59 1.157 1.59h8.837c.57 0 1.06-.395 1.185-.948l.434-1.925h6.526l.424 1.922c.122.558.617.953 1.188.953h8.853c.827 0 1.411-.804 1.157-1.59l-6.078-18.741c-.163-.5-.63-.84-1.157-.84H7.797c-.527 0-.994.34-1.156.84zm8.799 5.403 2.38 6.613h-4.741l2.363-6.613z" class="playreality_svg__play" fill="#D73642"></path></g><defs><clipPath id="playreality_svg__a"><path fill="#fff" d="M0 0h131v45H0z"></path></clipPath></defs></svg>