<svg width="150" height="55" viewBox="0 0 150 55" fill="none" xmlns="http://www.w3.org/2000/svg">
<g clip-path="url(#clip0_19184_19046)">
<path d="M47.1307 31.2245C41.5475 32.3725 35.9658 32.3725 30.3826 31.2245C28.8221 30.8814 27.1772 29.1995 26.8431 27.6053C25.719 21.8964 25.719 16.1875 26.8431 10.4802C27.1772 8.88445 28.8221 7.20256 30.3826 6.86095C35.9658 5.71302 41.5475 5.71302 47.1307 6.86095C48.6912 7.2041 50.3346 8.88599 50.6702 10.4802C51.7928 16.1891 51.7928 21.8964 50.6702 27.6053C50.3361 29.201 48.6897 30.8814 47.1307 31.2245Z" fill="#ED3733"/>
<path d="M51.2051 24.0859C51.0697 25.2585 50.8981 26.4326 50.6679 27.6051C50.3338 29.2009 48.6874 30.8812 47.1283 31.2244C46.0343 31.449 44.9417 31.6167 43.8477 31.7537V32.4585H53.3692V24.0859H51.2066H51.2051Z" fill="#ED3733"/>
<path d="M50.6694 27.6051C50.8996 26.4326 51.0712 25.2585 51.2066 24.0859H43.8477V31.7537C44.9417 31.6167 46.0343 31.449 47.1283 31.2244C48.6874 30.8812 50.3338 29.1993 50.6679 27.6051H50.6694Z" fill="white"/>
<path d="M49.8832 34.4769H45.1744V39.4857H42.0352V22.4621C44.6507 22.4621 47.2677 22.4375 49.8832 22.4375C58.0172 22.4375 58.0413 34.4754 49.8832 34.4754V34.4769ZM45.1744 31.5333H49.8832C53.9028 31.5333 53.8787 25.5028 49.8832 25.5028H45.1744V31.5333Z" fill="#181818"/>
<path d="M61.2524 22.4922V39.4911H58.375V22.4922H61.2524Z" fill="#181818"/>
<path d="M67.2452 27.5015V33.7752C67.2452 35.5986 68.2204 36.9851 70.0759 36.9851C71.9314 36.9851 73.0722 35.4524 73.0722 33.629V27.5H75.9495V39.5133H73.3566L73.167 37.8837C71.954 39.0994 70.8359 39.6826 69.1955 39.6826C66.3889 39.6826 64.3438 37.5175 64.3438 33.7982V27.5H67.2452V27.5015Z" fill="#181818"/>
<path d="M86.6496 30.6847C85.8174 29.8814 84.8663 29.6137 83.7481 29.6137C82.3681 29.6137 81.6082 30.0522 81.6082 30.8062C81.6082 31.5603 82.2974 32.0219 83.7963 32.1188C86.0085 32.265 88.8151 32.7759 88.8151 35.9612C88.8151 38.077 87.1266 39.9005 83.7737 39.9005C81.9182 39.9005 80.0641 39.5835 78.3516 37.76L79.7782 35.6442C80.6104 36.5921 82.5141 37.2984 83.8219 37.3215C84.9159 37.3461 85.9393 36.7629 85.9393 35.8873C85.9393 35.061 85.2726 34.7209 83.6082 34.6224C81.396 34.4516 78.7564 33.6253 78.7564 30.9017C78.7564 28.178 81.563 27.1562 83.703 27.1562C85.5344 27.1562 86.9129 27.5209 88.2688 28.7366L86.6511 30.6816L86.6496 30.6847Z" fill="#181818"/>
<path d="M40.1814 10.5156H37.3281V27.5623H40.1814V10.5156Z" fill="#181818"/>
<path d="M47.0938 20.5035V17.5859H30.4225V20.5035H47.0938Z" fill="#181818"/>
<path d="M96.2699 25.3863H90.9922V22.4688H104.685V25.3863H99.4076V39.4846H96.2699V25.3863Z" fill="#181818"/>
<path d="M116.858 39.5585H113.602L106.684 22.4688H110.202L115.218 35.7177L120.258 22.4688H123.776L116.858 39.5585Z" fill="#181818"/>
<path d="M59.4169 44.5469V49.0509H62.1604V50.0019H58.4102V44.5469H59.4169Z" fill="#181818"/>
<path d="M71.5664 50.0019V44.5469H72.5642V50.0019H71.5664Z" fill="#181818"/>
<path d="M82.1968 50.002V44.5547H86.0298V45.5441H83.2021V47.0321H85.8778V47.9831H83.2021V50.002H82.1953H82.1968Z" fill="#181818"/>
<path d="M99.3885 50.0019H95.3945V44.5469H99.3885V45.544H96.3938V46.7981H99.2817V47.7568H96.3938V48.9878H99.3885V50.0003V50.0019Z" fill="#181818"/>
</g>
<defs>
<clipPath id="clip0_19184_19046">
<rect width="97.7778" height="44" fill="white" transform="translate(26 6)"/>
</clipPath>
</defs>
</svg>
