<svg xmlns="http://www.w3.org/2000/svg" viewBox="0 0 73 73" width="90" height="90">
  <g>
    <path d="M27.843,20.988q.525,1.13,2.686-.672c3.366-2.807,5.12-4.085,9.227-3.591A10.193,10.193,0,0,0,27.843,20.988Z" style="fill: #9ba5bc"/>
    <path d="M42.055,17.853c-1.658-1.065-4.267-.475-7.61,1.973-1.035.758-2.538,1.906-3.6,2.619-1.26.842-3.021,2.029-3.874.462a7.987,7.987,0,0,0-.365,1.552,1.913,1.913,0,0,0,2.006,1.625c1.885.032,3.63-1.595,6.3-3.574,2.8-2.08,4.755-3.446,7.038-3.179a4.524,4.524,0,0,1,3.339,1.917A9.659,9.659,0,0,0,42.055,17.853Z" style="fill: #bfc8d8"/>
    <path d="M42.448,31.684c-3.367,2.807-5.12,4.084-9.227,3.59a10.193,10.193,0,0,0,11.913-4.263Q44.609,29.883,42.448,31.684Z" style="fill: #6e7691"/>
    <path d="M44.369,25.916c-1.885-.033-3.63,1.594-6.3,3.574-2.8,2.08-4.755,3.446-7.038,3.179a4.52,4.52,0,0,1-3.339-1.918,9.64,9.64,0,0,0,3.227,3.4c1.658,1.065,4.268.475,7.61-1.973,1.035-.758,2.539-1.907,3.6-2.619,1.26-.842,3.021-2.03,3.875-.462a8.078,8.078,0,0,0,.365-1.552A1.914,1.914,0,0,0,44.369,25.916Z" style="fill: #9ba5bc"/>
    <path d="M46.172,23.442a3.153,3.153,0,0,0-3.195-2.375c-2.339.01-4.955,2.036-7.04,3.568-2.588,1.9-4.909,3.894-7.372,3.439a2.441,2.441,0,0,1-2.083-1.4,19.487,19.487,0,0,0,.341,2.033,3.383,3.383,0,0,0,2.748,2.143c2.392.341,5.206-1.855,7.473-3.559,2.128-1.6,4.749-3.565,6.712-3.544A2.924,2.924,0,0,1,46.518,25.5C46.484,25.116,46.3,23.984,46.172,23.442Z" style="fill: #4a8ff6"/>
    <path d="M24.306,42.584a1.651,1.651,0,0,0-1.841,1.681l-.111-.01.151-1.531H20.994v7.205h1.561V48.258l-.127-1.2.107-.008a1.574,1.574,0,0,0,1.7,1.081c1.4,0,2.292-1.111,2.292-2.772S25.637,42.584,24.306,42.584Zm-.48,4.233c-.841,0-1.291-.511-1.291-1.461s.45-1.462,1.291-1.462,1.271.511,1.271,1.462S24.656,46.817,23.826,46.817Z" style="fill: #4a8ff6"/>
    <path d="M29.88,42.584a2.772,2.772,0,1,0,2.732,2.772A2.595,2.595,0,0,0,29.88,42.584Zm0,4.223c-.85,0-1.3-.5-1.3-1.451s.45-1.452,1.3-1.452,1.3.511,1.3,1.452S30.731,46.807,29.88,46.807Z" style="fill: #4a8ff6"/>
    <path d="M36.015,46.586a1.506,1.506,0,0,1-.611.14c-.33,0-.49-.2-.49-.58V40.722H33.433v5.654c0,1.081.56,1.752,1.581,1.752a2.563,2.563,0,0,0,1.131-.241Z" style="fill: #4a8ff6"/>
    <path d="M39.807,44.785l-1.17-.27c-.371-.08-.491-.17-.491-.36,0-.27.23-.38.791-.38a4.714,4.714,0,0,1,1.871.42l.13-1.291a5.87,5.87,0,0,0-1.951-.32c-1.391,0-2.222.61-2.222,1.631a1.449,1.449,0,0,0,1.281,1.551l1.171.3c.46.12.59.22.59.451-.009.3-.22.4-.83.4a4.762,4.762,0,0,1-1.991-.371l-.141,1.331a6.51,6.51,0,0,0,2.132.251c1.381,0,2.211-.591,2.211-1.7A1.559,1.559,0,0,0,39.807,44.785Z" style="fill: #4a8ff6"/>
    <path d="M45.832,42.724l.08.812-.11.008a1.544,1.544,0,0,0-1.661-.96c-1.432,0-2.332,1.11-2.332,2.772s.891,2.772,2.222,2.772c1.151,0,1.711-.611,1.841-1.8l.114.01-.174,1.65h1.531V42.724Zm-1.321,4.093c-.831,0-1.271-.511-1.271-1.461s.44-1.461,1.271-1.461,1.291.51,1.291,1.461S45.352,46.817,44.511,46.817Z" style="fill: #4a8ff6"/>
    <path d="M51.866,46.577a1.884,1.884,0,0,1-.73.149c-.511,0-.671-.17-.671-.74V44.075h1.251V42.724H50.465V41.4l-1.481.22v1.1h-.8v1.351h.8v2.311a1.581,1.581,0,0,0,1.722,1.742,2.966,2.966,0,0,0,1.3-.24Z" style="fill: #4a8ff6"/>
    <path d="M29.15,51.79a1.651,1.651,0,0,0-1.841,1.681l-.111-.01.15-1.531H25.837v7.2H27.4V57.464l-.127-1.2.106-.009a1.575,1.575,0,0,0,1.7,1.081c1.4,0,2.291-1.111,2.291-2.772S30.481,51.79,29.15,51.79Zm-.481,4.233c-.84,0-1.291-.51-1.291-1.461s.451-1.461,1.291-1.461,1.271.511,1.271,1.461S29.5,56.023,28.669,56.023Z" style="fill: #4a8ff6"/>
    <path d="M34.814,55.793a1.519,1.519,0,0,1-.61.14c-.331,0-.491-.2-.491-.58V49.929H32.232v5.654c0,1.081.561,1.751,1.581,1.751a2.57,2.57,0,0,0,1.131-.24Z" style="fill: #4a8ff6"/>
    <path d="M39.327,51.93l.08.812-.11.009a1.543,1.543,0,0,0-1.661-.961c-1.431,0-2.332,1.111-2.332,2.772s.891,2.772,2.222,2.772c1.151,0,1.711-.61,1.841-1.8l.114.01-.174,1.651h1.531V51.93Zm-1.321,4.093c-.83,0-1.271-.51-1.271-1.461s.441-1.461,1.271-1.461,1.291.51,1.291,1.461S38.847,56.023,38.006,56.023Z" style="fill: #4a8ff6"/>
    <path d="M45.642,51.93l-1.233,3.541L43.13,51.93H41.519l2.132,5.3c-.229.559-.5.607-.791.607a2.543,2.543,0,0,1-.811-.14l-.14,1.32a3.652,3.652,0,0,0,1.261.23c.781,0,1.341-.37,1.8-1.571l2.192-5.744Z" style="fill: #4a8ff6"/>
  </g>
</svg>
