<svg id="Warstwa_2" data-name="Warstwa 2" xmlns="http://www.w3.org/2000/svg" viewBox="0 0 200 137.24"><defs><style>.cls-2{fill:#0098ff}.cls-4{fill:#00e1ff}</style></defs><g id="warstawa_1" data-name="warstawa 1"><g id="polsatsportextra2"><path class="cls-2" d="M0 88.3h5.03l-.7 7.12v3.06l.87 8.22v5.56H0V88.29zm5.13 14.38l-1.7.13v-9.52l1.47.13c.43-3.73 2.3-5.59 6.13-5.59 4.43 0 7.39 3.66 7.39 9.22s-2.96 9.22-7.62 9.22c-3.3 0-5.06-1.53-5.66-3.6m8.52-5.63c0-3.16-1.46-4.86-4.23-4.86s-4.3 1.7-4.3 4.86 1.5 4.86 4.3 4.86 4.23-1.7 4.23-4.86m24.99.01c0 5.56-3.63 9.22-9.09 9.22s-9.09-3.66-9.09-9.22 3.63-9.22 9.09-9.22 9.09 3.66 9.09 9.22m-4.76 0c0-3.13-1.5-4.83-4.33-4.83s-4.33 1.7-4.33 4.83 1.5 4.83 4.33 4.83 4.33-1.66 4.33-4.83m16.08 4.1l.43 4.33c-1.13.53-2.33.8-3.76.8-3.4 0-5.26-2.23-5.26-5.83V81.64h4.93v18.05c0 1.26.53 1.93 1.63 1.93.7 0 1.17-.13 2.03-.47m16.39-12.26l-.43 4.29c-2.16-.93-4.23-1.4-6.23-1.4-1.86 0-2.63.37-2.63 1.27 0 .63.4.93 1.63 1.2l3.9.9c3.26.77 4.59 2.7 4.59 5.46 0 3.7-2.76 5.66-7.36 5.66-3.3 0-5.29-.23-7.09-.83l.47-4.43c2 .87 4.03 1.23 6.63 1.23 2.03 0 2.73-.33 2.76-1.33 0-.77-.43-1.1-1.96-1.5l-3.9-1c-2.96-.77-4.26-2.33-4.26-5.16 0-3.4 2.76-5.43 7.39-5.43 2.3 0 4.53.37 6.49 1.07m2.89 8.16c0-5.53 3-9.22 7.76-9.22 3.33 0 4.73 1.3 5.53 3.2l1.7-.13v9.52l-1.47-.13c-.43 3.96-2.3 5.99-6.13 5.99-4.43 0-7.39-3.66-7.39-9.22m13.28 0c0-3.16-1.5-4.86-4.3-4.86S74 93.9 74 97.06s1.46 4.86 4.23 4.86 4.3-1.7 4.3-4.86m.8 1.5V95.4l-.7-7.09h5.03v17.51h-5.09l.77-7.26zm18.88-5.77H90.46V88.3h11.75v4.49zm.5 8.32l.47 4.36c-1.07.47-2.23.8-4.33.8-3.5 0-5.73-2-5.73-5.79V84.63l4.93-.73v15.25c0 1.9.53 2.46 2.23 2.46.8 0 1.5-.13 2.43-.5m25.61-12.22l-.43 4.29c-2.16-.93-4.23-1.4-6.23-1.4-1.86 0-2.63.37-2.63 1.27 0 .63.4.93 1.63 1.2l3.9.9c3.26.77 4.59 2.7 4.59 5.46 0 3.7-2.76 5.66-7.36 5.66-3.3 0-5.29-.23-7.09-.83l.47-4.43c2 .87 4.03 1.23 6.63 1.23 2.03 0 2.73-.33 2.76-1.33 0-.77-.43-1.1-1.96-1.5l-3.9-1c-2.96-.77-4.26-2.33-4.26-5.16 0-3.4 2.76-5.43 7.39-5.43 2.3 0 4.53.37 6.49 1.07m3.89-.59h5.03l-.7 7.12v3.06l.87 8.22v5.56h-5.19V88.29zm5.13 14.38l-1.7.13v-9.52l1.47.13c.43-3.73 2.3-5.59 6.13-5.59 4.43 0 7.39 3.66 7.39 9.22s-2.96 9.22-7.62 9.22c-3.3 0-5.06-1.53-5.66-3.6m8.52-5.63c0-3.16-1.47-4.86-4.23-4.86s-4.3 1.7-4.3 4.86 1.5 4.86 4.3 4.86 4.23-1.7 4.23-4.86m25 .01c0 5.56-3.63 9.22-9.09 9.22s-9.09-3.66-9.09-9.22 3.63-9.22 9.09-9.22 9.09 3.66 9.09 9.22m-4.76 0c0-3.13-1.5-4.83-4.33-4.83s-4.33 1.7-4.33 4.83 1.5 4.83 4.33 4.83 4.33-1.66 4.33-4.83m7.69-8.76h4.69l-.7 8.09.93 1.4v8.02h-4.93V88.29zm11.99 5.13l-1.83-.17c-4-.37-5.23 1.73-5.23 5.13l-1.76-.3.07-4.66 1.47.13c.53-3.83 2.1-5.73 4.99-5.73.97 0 1.83.17 2.66.5l-.37 5.09zm13.24-.63h-11.75V88.3h11.75v4.49zm.5 8.32l.47 4.36c-1.07.47-2.23.8-4.33.8-3.5 0-5.73-2-5.73-5.79V84.63l4.93-.73v15.25c0 1.9.53 2.46 2.23 2.46.8 0 1.5-.13 2.43-.5"/><path class="cls-4" d="M43.81 127.9c0-5.49 3.6-9.33 8.72-9.33s8.32 3.6 8.32 8.99c0 .57-.03 1.15-.1 1.68H48.62c.37 2.49 1.85 3.54 4.85 3.54 1.79 0 3.74-.47 6.06-1.52l.37 4.45c-1.99.98-4.35 1.52-6.64 1.52-5.93 0-9.47-3.47-9.47-9.33zm4.88-1.79h7.44c-.3-2.12-1.55-3.27-3.6-3.27s-3.44 1.11-3.84 3.27zm19.04 1.86l-6.03-8.93h6.06l3.03 5.12 3.03-5.12h5.83l-5.93 8.59 6.13 9.13h-6l-3.2-5.32-3.17 5.32h-5.79l6.03-8.79zm25.2 4.04l.47 4.41c-1.31.57-2.59.81-4.38.81-3.67 0-5.79-2.16-5.79-5.86v-7.78h-2.69v-4.55h2.69v-3.71l4.99-.74v4.45h4.21v4.55h-4.21v6.43c0 1.92.54 2.49 2.26 2.49.84 0 1.55-.13 2.46-.51zm15.46-7.78l-1.85-.17c-3.64-.34-5.29 1.31-5.29 5.19v7.51h-4.99v-17.72h4.75l-.47 5.29.47.03c.54-3.94 2.16-5.79 5.05-5.79 1.04 0 1.72.13 2.7.54l-.37 5.12zm1.38 3.67c0-5.66 3.1-9.33 7.85-9.33 2.93 0 4.65.98 5.59 3.23l.37-.03-.27-2.73h5.09v17.72h-5.15l.57-5.56-.37-.03c-.44 4.11-2.43 6.06-6.2 6.06-4.48 0-7.48-3.74-7.48-9.33zm13.44 0c0-3.2-1.52-4.92-4.35-4.92s-4.28 1.72-4.28 4.92 1.48 4.92 4.28 4.92 4.35-1.72 4.35-4.92zm20.92 4.96l5.46-.57h6.64v4.48h-17.28v-4.78l9.43-6.06c2.05-1.31 2.93-2.63 2.93-4.38 0-1.99-1.35-3.13-3.64-3.13-2.59 0-4.28 1.41-4.82 4.08l-4.61-1.04c.84-4.55 4.31-7.18 9.53-7.18s8.32 2.73 8.32 7.21-4.95 9.23-11.99 11.08l.03.3z"/><path class="cls-2" d="M76.95 48.79c7.96 1.13 17.32-6.17 24.86-11.84 7.08-5.32 15.8-11.86 22.33-11.79 4.27.05 8.02 2.5 9.19 5.82-.11-1.27-.72-5.03-1.15-6.84-.83-2.46-3.09-7.93-10.63-7.9-7.78.03-16.48 6.77-23.42 11.87-8.61 6.33-16.33 12.96-24.53 11.44-4.4-.81-6.3-2.85-6.93-4.66.08 1.15.66 4.78 1.13 6.76 1.05 2.37 3.3 6.3 9.14 7.13"/><path d="M110.83 1.8C95.28-3.35 79.65 2.94 71.2 15.98c0 0 1.75 3.76 8.93-2.24C91.33 4.4 97.17.15 110.83 1.8" fill="#00bdff"/><path class="cls-4" d="M93.16 12.11c-3.44 2.52-8.45 6.34-11.99 8.71-4.19 2.8-10.05 6.75-12.89 1.54-.41 1.29-1.19 3.98-1.21 5.16.14 1.7 1.8 5.32 6.67 5.41 6.27.11 12.08-5.31 20.95-11.89 9.33-6.92 15.82-11.46 23.42-10.58 6.02.7 8.91 3.54 11.11 6.38-1.91-3.66-5.76-8.1-10.74-11.3-5.52-3.54-14.2-1.58-25.32 6.56"/><path d="M89.09 63.51c15.55 5.15 31.18-1.14 39.64-14.18 0 0-1.75-3.76-8.94 2.24-11.2 9.34-17.04 13.59-30.7 11.94m17.67-10.31c3.44-2.52 8.45-6.34 11.99-8.71 4.19-2.8 10.05-6.75 12.89-1.54.41-1.29 1.19-3.98 1.21-5.16-.14-1.7-1.8-5.32-6.67-5.41-6.27-.11-12.08 5.31-20.95 11.89-9.33 6.92-15.82 11.46-23.42 10.58-6.02-.7-8.91-3.54-11.11-6.38 1.91 3.66 5.76 8.1 10.74 11.3 5.52 3.54 14.2 1.58 25.32-6.56" fill="#0073ff"/></g></g></svg>