<svg xmlns="http://www.w3.org/2000/svg" viewBox="0 0 73 73" width="90" height="90">
  <g>
    <path d="M46.235,23.3a3.174,3.174,0,0,0-3.216-2.39c-2.355.01-4.987,2.048-7.086,3.59-2.6,1.915-4.941,3.92-7.419,3.462a2.457,2.457,0,0,1-2.1-1.408,19.213,19.213,0,0,0,.342,2.046,3.407,3.407,0,0,0,2.766,2.157c2.408.343,5.24-1.867,7.522-3.582,2.142-1.61,4.78-3.589,6.756-3.567a2.94,2.94,0,0,1,2.78,1.76C46.549,24.98,46.366,23.841,46.235,23.3Z" style="fill: #8e35e6"/>
    <path d="M42.091,17.669c-1.669-1.072-4.3-.478-7.659,1.986-1.042.763-2.555,1.919-3.628,2.636-1.268.848-3.041,2.043-3.9.465a7.982,7.982,0,0,0-.368,1.562,1.927,1.927,0,0,0,2.019,1.636c1.9.033,3.654-1.605,6.339-3.6,2.821-2.094,4.786-3.469,7.084-3.2a4.552,4.552,0,0,1,3.361,1.93A9.706,9.706,0,0,0,42.091,17.669Z" style="fill: #d18ce6"/>
    <path d="M42.487,31.591C39.1,34.416,37.333,35.7,33.2,35.205A10.26,10.26,0,0,0,45.19,30.914Q44.662,29.777,42.487,31.591Z" style="fill: #6115ad"/>
    <path d="M44.42,25.785c-1.9-.033-3.654,1.605-6.339,3.6-2.822,2.094-4.786,3.469-7.085,3.2a4.552,4.552,0,0,1-3.36-1.93,9.715,9.715,0,0,0,3.249,3.418c1.669,1.071,4.295.478,7.659-1.986,1.042-.763,2.555-1.919,3.628-2.636,1.268-.848,3.041-2.043,3.9-.465a8.041,8.041,0,0,0,.367-1.563A1.927,1.927,0,0,0,44.42,25.785Z" style="fill: #6115ad"/>
    <path d="M24.226,42.562a1.662,1.662,0,0,0-1.853,1.692l-.111-.01.151-1.541H20.892v7.252h1.572V48.273l-.128-1.211.107-.008a1.586,1.586,0,0,0,1.713,1.088c1.41,0,2.306-1.118,2.306-2.79S25.566,42.562,24.226,42.562Zm-.483,4.26c-.846,0-1.3-.513-1.3-1.47s.454-1.471,1.3-1.471,1.279.514,1.279,1.471S24.579,46.822,23.743,46.822Z" style="fill: #8e35e6"/>
    <path d="M29.837,42.562a2.79,2.79,0,1,0,2.75,2.79A2.611,2.611,0,0,0,29.837,42.562Zm0,4.25c-.856,0-1.31-.5-1.31-1.46s.454-1.461,1.31-1.461,1.309.514,1.309,1.461S30.693,46.812,29.837,46.812Z" style="fill: #8e35e6"/>
    <path d="M36.011,46.591a1.535,1.535,0,0,1-.614.141c-.332,0-.494-.2-.494-.585V40.688h-1.49v5.691c0,1.088.564,1.763,1.591,1.763a2.588,2.588,0,0,0,1.138-.242Z" style="fill: #8e35e6"/>
    <path d="M39.829,44.777l-1.179-.271c-.372-.081-.493-.172-.493-.363,0-.272.231-.383.8-.383a4.744,4.744,0,0,1,1.883.423l.131-1.3A5.893,5.893,0,0,0,39,42.562c-1.4,0-2.236.614-2.236,1.641a1.459,1.459,0,0,0,1.289,1.562l1.179.3c.463.121.594.221.594.453-.01.3-.222.4-.836.4a4.813,4.813,0,0,1-2.005-.373l-.141,1.34a6.588,6.588,0,0,0,2.146.252c1.39,0,2.226-.6,2.226-1.713A1.569,1.569,0,0,0,39.829,44.777Z" style="fill: #8e35e6"/>
    <path d="M45.893,42.7l.08.817-.11.009a1.554,1.554,0,0,0-1.672-.967c-1.441,0-2.347,1.118-2.347,2.79s.9,2.79,2.236,2.79c1.158,0,1.722-.615,1.853-1.813l.115.01L45.873,48h1.541V42.7Zm-1.33,4.119c-.836,0-1.279-.513-1.279-1.47s.443-1.471,1.279-1.471,1.3.514,1.3,1.471S45.409,46.822,44.563,46.822Z" style="fill: #8e35e6"/>
    <path d="M51.967,46.581a1.9,1.9,0,0,1-.736.151c-.513,0-.674-.172-.674-.746V44.062h1.259V42.7H50.557v-1.33l-1.491.222V42.7H48.26v1.359h.806v2.327A1.591,1.591,0,0,0,50.8,48.142a2.991,2.991,0,0,0,1.31-.242Z" style="fill: #8e35e6"/>
    <path d="M30.079,51.405a2.367,2.367,0,0,1,.936.171l.151-1.4a3.948,3.948,0,0,0-1.349-.211,1.758,1.758,0,0,0-1.9,1.853v.756h-.705v1.39h.705v3.455H29.4V53.964h1.349v-1.39H29.4V52.2C29.4,51.566,29.565,51.405,30.079,51.405Z" style="fill: #8e35e6"/>
    <path d="M32.577,51.586c.564,0,.866-.262.866-.765s-.3-.766-.866-.766-.867.272-.867.766S32.013,51.586,32.577,51.586Zm-.746,5.833h1.491v-5.3H31.831Z" style="fill: #8e35e6"/>
    <path d="M37.049,56.008a1.526,1.526,0,0,1-.615.141c-.332,0-.493-.2-.493-.584V50.106H34.45V55.8c0,1.088.564,1.762,1.592,1.762a2.59,2.59,0,0,0,1.138-.241Z" style="fill: #8e35e6"/>
    <path d="M44.583,51.939c-1,0-1.571.524-1.672,1.732l-.077-.007a1.632,1.632,0,0,0-1.716-1.725c-1.108,0-1.652.574-1.783,1.732l-.11-.01.151-1.541H38v5.3h1.491V54.377c0-.766.342-1.108,1.148-1.108.544,0,.846.342.846.987v3.163h1.49V54.377c0-.766.343-1.108,1.149-1.108.544,0,.846.342.846.987v3.163h1.491V54.074C46.457,52.714,45.762,51.939,44.583,51.939Z" style="fill: #8e35e6"/>
    <path d="M27.786,20.825q.528,1.137,2.7-.677c3.389-2.825,5.154-4.111,9.288-3.614A10.26,10.26,0,0,0,27.786,20.825Z" style="fill: #c500ff"/>
  </g>
</svg>
