<?xml version="1.0" encoding="UTF-8" standalone="no"?>
<svg
   version="1.1"
   width="348.46738"
   height="465.95926"
   viewBox="0 0 348.46737 465.95926"
   id="svg25"
   sodipodi:docname="Polsat Reality 2025 gradient rekonstrukcja.svg"
   inkscape:version="1.3 (0e150ed6c4, 2023-07-21)"
   xmlns:inkscape="http://www.inkscape.org/namespaces/inkscape"
   xmlns:sodipodi="http://sodipodi.sourceforge.net/DTD/sodipodi-0.dtd"
   xmlns="http://www.w3.org/2000/svg"
   xmlns:svg="http://www.w3.org/2000/svg">
  <defs
     id="defs25" />
  <sodipodi:namedview
     id="namedview25"
     pagecolor="#ffffff"
     bordercolor="#000000"
     borderopacity="0.25"
     inkscape:showpageshadow="2"
     inkscape:pageopacity="0.0"
     inkscape:pagecheckerboard="0"
     inkscape:deskcolor="#d1d1d1"
     inkscape:zoom="1"
     inkscape:cx="-17.5"
     inkscape:cy="273.5"
     inkscape:window-width="1920"
     inkscape:window-height="1009"
     inkscape:window-x="-8"
     inkscape:window-y="-8"
     inkscape:window-maximized="1"
     inkscape:current-layer="svg25" />
  <g
     transform="translate(-65.76631,52.725807)"
     id="g25">
    <g
       data-paper-data="{&quot;isPaintingLayer&quot;:true}"
       fill-rule="nonzero"
       stroke="none"
       stroke-linecap="butt"
       stroke-linejoin="miter"
       stroke-miterlimit="10"
       stroke-dasharray="none"
       stroke-dashoffset="0"
       style="mix-blend-mode:normal"
       id="g24">
      <g
         fill="#fe56ef"
         stroke-width="1"
         id="g12"
         style="fill:#ff3eff;fill-opacity:1">
        <path
           d="m 126.35231,262.27986 c 0,18.186 -9.739,30.346 -25.127,30.346 -10.815,0 -16.626,-5.057 -18.617,-11.837 l -1.184,0.108 1.399,13.129 v 18.294 h -17.057 v -78.879 h 16.519 l -1.668,16.787 1.237,0.108 c 1.453,-12.268 7.587,-18.402 20.177,-18.402 14.581,0 24.32,12.052 24.321,30.346 z m -15.712,0 c 0,-10.438 -4.789,-16.034 -13.882,-16.034 -9.201,0 -14.151,5.596 -14.151,16.034 0,10.384 4.95,15.98 14.151,15.98 9.093,0 13.882,-5.595 13.882,-15.98 z"
           id="path7"
           style="fill:#ff3eff;fill-opacity:1" />
        <path
           d="m 177.26931,262.25786 c 0,-10.295 -4.929,-15.881 -14.24,-15.881 -9.311,0 -14.24,5.586 -14.24,15.881 0,10.409 4.929,15.888 14.24,15.888 9.311,0 14.24,-5.48 14.24,-15.888 z m 15.667,0 c 0,18.292 -11.943,30.342 -29.906,30.342 -17.963,0 -29.906,-12.05 -29.906,-30.342 0,-18.292 11.943,-30.342 29.906,-30.342 17.963,0 29.906,12.05 29.906,30.342 z"
           id="path8"
           style="fill:#ff3eff;fill-opacity:1" />
        <path
           d="m 230.18131,275.73188 1.426,14.24 c -3.724,1.755 -7.669,2.632 -12.377,2.632 -11.179,0 -17.314,-7.341 -17.314,-19.169 v -61.895 h 16.216 v 59.37 c 0,4.166 1.755,6.356 5.365,6.356 2.304,0 3.838,-0.442 6.684,-1.534 z"
           id="path9"
           style="fill:#ff3eff;fill-opacity:1" />
        <path
           d="m 284.07831,235.41988 -1.42,14.133 c -7.126,-3.068 -13.918,-4.602 -20.489,-4.602 -6.135,0 -8.654,1.206 -8.654,4.159 0,2.083 1.313,3.068 5.365,3.945 l 12.82,2.96 c 10.737,2.518 15.117,8.875 15.117,17.964 0,12.157 -9.089,18.62 -24.206,18.62 -10.851,0 -17.421,-0.764 -23.336,-2.739 l 1.534,-14.568 c 6.571,2.853 13.255,4.052 21.802,4.052 6.678,0 8.982,-1.092 9.089,-4.38 0,-2.518 -1.427,-3.617 -6.464,-4.93 l -12.82,-3.282 c -9.745,-2.525 -14.018,-7.669 -14.018,-16.986 0,-11.172 9.089,-17.85 24.32,-17.85 7.556,0.001 14.897,1.207 21.36,3.504 z"
           id="path10"
           style="fill:#ff3eff;fill-opacity:1" />
        <path
           d="m 354.16531,233.43988 v 57.626 h -16.734 l 1.937,-18.079 -1.292,-0.107 c -1.398,13.021 -7.532,19.693 -20.123,19.693 -14.581,0 -24.32,-11.999 -24.32,-30.293 0,-18.186 9.846,-30.346 25.504,-30.346 10.976,0 15.55,4.251 18.186,10.492 l 1.184,-0.108 -0.861,-8.878 z m -16.842,28.83998 c 0,-10.438 -4.95,-16.034 -14.151,-16.034 -9.093,0 -13.882,5.596 -13.882,16.034 0,10.384 4.789,15.98 13.882,15.98 9.201,0 14.151,-5.595 14.151,-15.98 z"
           id="path11"
           style="fill:#ff3eff;fill-opacity:1" />
        <path
           d="m 405.22531,289.98988 c -3.497,1.506 -7.318,2.636 -14.205,2.636 -11.514,0 -18.886,-6.618 -18.886,-19.101 v -25.289 h -8.716 v -14.797 h 8.716 v -12.052 l 16.249,-2.421 v 14.474 h 13.667 v 14.797 h -13.667 v 20.93 c 0,6.241 1.722,8.124 7.317,8.124 2.636,0 4.95,-0.484 8.017,-1.668 z"
           id="path12"
           style="fill:#ff3eff;fill-opacity:1" />
      </g>
      <path
         d="m 134.91507,84.3678 c -1.547,-6.517 -3.45176,-18.4761 -3.72576,-22.2601 2.076,5.954 8.43022,12.62274 22.89822,15.30174 26.959,4.977 52.28932,-16.86533 80.62832,-37.68933 22.827,-16.772 51.50618,-38.9261 77.11218,-39.0331 24.815,-0.107 32.25852,17.90753 34.98452,26.01853 1.427,5.928 3.31769,18.33407 3.69269,22.50007 -3.858,-10.911 -16.17285,-18.96272 -30.22585,-19.12372 -21.5,-0.241 -50.12009,21.30453 -73.40909,38.81953 -24.821,18.66 -55.67801,42.67456 -81.86701,38.94456 -19.223,-2.739 -26.61823,-15.69519 -30.08823,-23.47819 z"
         data-paper-data="{&quot;noHover&quot;:false,&quot;origItem&quot;:[&quot;Path&quot;,{&quot;applyMatrix&quot;:true,&quot;segments&quot;:[[[164.1485,114.23501],[-19.223,-2.739],[26.189,3.73]],[[245.9555,75.27301],[-24.821,18.66],[23.289,-17.515]],[[319.4315,36.48501],[-21.5,-0.241],[14.053,0.161]],[[349.6595,55.62101],[-3.858,-10.911],[-0.375,-4.166]],[[345.8685,33.13601],[1.427,5.928],[-2.726,-8.111]],[[310.8925,7.13501],[24.815,-0.107],[-25.606,0.107]],[[233.8395,46.18401],[22.827,-16.772],[-28.339,20.824]],[[153.1435,83.84001],[26.959,4.977],[-14.468,-2.679]],[[130.3435,68.52201],[2.076,5.954],[0.274,3.784]],[[134.0675,90.77201],[-1.547,-6.517],[3.47,7.783]]],&quot;closed&quot;:true,&quot;fillColor&quot;:[0,0,0,1]}]}"
         fill="#fe56ef"
         stroke-width="0.5"
         id="path13"
         style="fill:#ff3eff;fill-opacity:1" />
      <path
         d="m 276.53519,-46.81079 c -44.957,-5.412 -64.16,8.574 -101.012,39.304 -23.65,19.719 -29.397,7.361 -29.397,7.361 27.831,-42.927 79.243,-63.617 130.409,-46.665 z"
         fill="#a59d98"
         stroke-width="1"
         id="path14"
         style="fill:#9ba5bc;fill-opacity:1" />
      <path
         d="m 218.40619,-13.87177 c 36.584,-26.792 65.15,-33.255 83.294,-21.594 16.383,10.516 29.056,25.131 35.332,37.167 -7.241,-9.343 -16.738,-18.68 -36.544,-20.991 -24.997,-2.921 -46.363,12.029 -77.046,34.802 -29.202,21.668 -48.312,39.478 -68.941,39.123 -16.042,-0.275 -21.494,-12.211 -21.956,-17.79 0.087,-3.912 2.632,-12.753 3.992,-16.993 9.344,17.167 28.62,4.166 42.411,-5.057 11.668,-7.796 28.125,-20.368 39.458,-28.667 z"
         fill="#c4c8c9"
         stroke-width="1"
         id="path15"
         style="fill:#bfc8d8;fill-opacity:1" />
      <path
         d="m 263.12519,122.29722 c -36.584,26.791 -65.151,33.255 -83.302,21.594 -16.37,-10.516 -29.049,-25.131 -35.325,-37.167 7.241,9.343 16.738,18.68 36.544,20.991 24.997,2.921 46.363,-12.029 77.046,-34.802 29.202,-21.668 48.312,-39.478 68.941,-39.123 16.042,0.275 21.494,12.211 21.956,17.79 -0.087,3.912 -2.632,12.753 -3.992,16.993 -9.344,-17.167 -28.62,-4.166 -42.411,5.057 -11.667,7.796 -28.124,20.368 -39.457,28.667 z"
         fill="#c3c8c8"
         stroke-width="1"
         id="path16"
         style="fill:#9ba5bc;fill-opacity:1" />
      <path
         d="m 165.04419,107.81722 c 26.189,3.73 -19.223,-2.739 0,0 z m 39.953,48.41899 c 44.956,5.412 64.159,-8.573 101.011,-39.303 23.65,-19.719 29.397,-7.361 29.397,-7.361 -27.83,42.927 -79.243,63.616 -130.408,46.664 z"
         fill="#706a61"
         stroke-width="1"
         id="path17"
         style="fill:#6e7691;fill-opacity:1" />
      <path
         d="m 216.80206,334.17146 h 16.67907 v 57.99981 h -16.89617 l 1.9496,-18.19554 -1.29937,-0.10801 c -1.40848,13.16009 -7.5824,19.87514 -20.25425,19.87514 -14.67657,0 -24.47856,-12.13073 -24.47856,-30.54339 0,-18.30464 9.9111,-30.5434 25.66993,-30.5434 11.04847,0 15.65082,4.27832 18.30465,10.56026 l 1.19136,-0.108 -0.86625,-8.93577 z m -0.32622,29.028 c 0,-10.50626 -4.92747,-16.13794 -14.24234,-16.13794 -9.15178,0 -13.97122,5.63169 -13.97122,16.13794 0,10.45225 4.81944,16.08394 13.97122,16.08394 9.31488,0 14.24346,-5.63167 14.24234,-16.08394 z"
         fill="#fe56ef"
         stroke-width="1"
         id="path18"
         style="fill:#ff3eff;fill-opacity:1" />
      <path
         d="m 274.1151,375.41526 1.43602,14.33272 c -3.75482,1.76666 -7.71906,2.64943 -12.46467,2.64943 -11.24466,0 -17.41967,-7.38844 -17.41967,-19.30096 v -62.29026 h 16.32089 v 59.75545 c 0,4.19347 1.75894,6.39764 5.40024,6.39764 2.31881,0 3.86174,-0.44525 6.72717,-1.54404 z"
         fill="#fe56ef"
         stroke-width="1"
         id="path19"
         style="fill:#ff3eff;fill-opacity:1" />
      <path
         d="m 291.47564,328.21965 c 6.18163,0 9.50775,-2.89188 9.50775,-8.38692 0,-5.4223 -3.32612,-8.42329 -9.50775,-8.42329 -6.18163,0 -9.50776,3.00098 -9.50776,8.42329 0,5.49503 3.32613,8.38804 9.50776,8.38692 z m -8.16982,5.85652 h 16.34072 v 58.06043 h -16.34072 z"
         fill="#fe56ef"
         stroke-width="1"
         id="path20"
         style="fill:#ff3eff;fill-opacity:1" />
      <path
         d="m 350.00927,390.7515 c -3.52009,1.51648 -7.36531,2.65383 -14.29635,2.65383 -11.58959,0 -18.95378,-6.60703 -18.95378,-19.2249 v -25.45282 h -8.82776 v -14.89258 h 8.82777 v -12.13074 l 16.29993,-2.38272 v 14.51346 h 13.75522 v 14.89258 h -13.75522 v 21.06648 c 0,6.28193 1.73249,8.17753 7.36528,8.17753 2.65383,0 4.98255,-0.48712 8.06952,-1.67847 z"
         fill="#fe56ef"
         stroke-width="1"
         id="path21"
         style="fill:#ff3eff;fill-opacity:1" />
      <path
         d="m 165.38945,367.83147 h -39.7668 c 1.15609,7.80942 5.71214,11.60503 15.90649,11.60503 5.53141,0 11.82215,-1.44595 19.88395,-4.98918 l 1.22884,14.60492 c -6.79659,3.25338 -14.24453,4.95281 -21.76412,4.95281 -20.10106,0 -31.05477,-12.03815 -31.05477,-30.58416 h 0.0364 c 0,-18.00378 11.78577,-30.58416 28.596,-30.58416 16.34072,0 27.25915,11.82214 27.25915,29.46443 0,1.87906 -0.10801,3.72288 -0.32512,5.53031 z m -15.14826,-10.26598 c -1.0481,-7.30356 -5.38703,-10.70132 -11.78577,-10.70132 -6.97735,0 -11.24355,3.65123 -12.65312,10.70132 z"
         fill="#fe56ef"
         stroke-width="1"
         id="path22"
         style="fill:#ff3eff;fill-opacity:1" />
      <path
         d="m 106.91604,334.18113 -1.22884,16.88296 -6.07362,-0.54224 c -13.23171,-1.22884 -17.31717,5.74851 -17.31717,16.99207 v 24.61964 H 65.95568 v -58.06043 h 15.54503 l -1.48232,17.31717 1.48232,0.14438 c 1.77106,-12.72586 6.97735,-19.01551 16.5942,-19.01551 3.00101,-0.0375 6.0009,0.54112 8.82115,1.66195 z"
         fill="#fe56ef"
         stroke-width="1"
         id="path23"
         style="fill:#ff3eff;fill-opacity:1" />
      <path
         d="m 370.47544,333.89553 13.8865,38.39947 13.37417,-38.39947 h 16.49757 l -23.78809,62.28053 c -4.98656,13.02474 -11.06766,17.05738 -19.52611,17.05738 -4.67226,-0.0242 -9.30324,-0.87672 -13.67778,-2.51808 l 1.51427,-14.30587 c 2.83393,0.97957 5.80832,1.49164 8.80668,1.51616 3.16893,0 6.10562,-0.49033 8.57518,-6.57131 l -23.13722,-57.45877 z"
         fill="#fe56ef"
         stroke-width="1"
         id="path24"
         style="fill:#ff3eff;fill-opacity:1" />
    </g>
  </g>
</svg>
