<svg xmlns="http://www.w3.org/2000/svg" viewBox="0 0 73 73" width="90" height="90">
  <g>
    <path d="M45.625,23.439a3.125,3.125,0,0,0-3.168-2.355c-2.327.01-4.912,2.017-6.982,3.536-2.565,1.891-4.866,3.862-7.309,3.411A2.423,2.423,0,0,1,26.1,26.643c.019.169.041.339.064.507s.05.338.078.506.059.335.092.5.068.334.105.5a3.356,3.356,0,0,0,2.724,2.125h0c2.37.338,5.16-1.84,7.409-3.53,2.109-1.585,4.708-3.533,6.654-3.511a2.9,2.9,0,0,1,2.739,1.732C45.933,25.1,45.753,23.976,45.625,23.439Z" style="fill: #0086ab"/>
    <path d="M27.452,21.005s.521,1.119,2.663-.667c3.337-2.783,5.075-4.05,9.148-3.56A10.107,10.107,0,0,0,27.452,21.005Z" style="fill: #00b0d2"/>
    <path d="M41.546,17.9C39.9,16.841,37.315,17.426,34,19.853h0c-1.027.751-2.518,1.891-3.574,2.6-1.249.835-3,2.011-3.841.458a7.854,7.854,0,0,0-.362,1.539,1.9,1.9,0,0,0,1.988,1.61c1.869.032,3.6-1.58,6.244-3.543,2.78-2.063,4.716-3.417,6.982-3.152a4.488,4.488,0,0,1,3.31,1.9A9.565,9.565,0,0,0,41.546,17.9Z" style="fill: #00caf1"/>
    <path d="M41.932,31.61c-3.337,2.783-5.076,4.05-9.148,3.559A10.1,10.1,0,0,0,44.6,30.943S44.074,29.824,41.932,31.61Z" style="fill: #005e8c"/>
    <path d="M43.837,25.891c-1.869-.032-3.6,1.581-6.244,3.543-2.779,2.063-4.715,3.417-6.982,3.152a4.482,4.482,0,0,1-3.31-1.9,9.584,9.584,0,0,0,3.2,3.366c1.645,1.056,4.231.471,7.544-1.955h0c1.027-.752,2.518-1.891,3.574-2.6,1.25-.835,3-2.011,3.841-.456a7.984,7.984,0,0,0,.363-1.541A1.9,1.9,0,0,0,43.837,25.891Z" style="fill: #005e8c"/>
    <path d="M24.408,42.416a1.636,1.636,0,0,0-1.825,1.667l-.11-.01.149-1.518h-1.5V49.7h1.547V48.039l-.125-1.189.106-.008a1.559,1.559,0,0,0,1.686,1.07c1.389,0,2.272-1.09,2.272-2.747S25.727,42.416,24.408,42.416Zm-.476,4.2c-.833,0-1.28-.506-1.28-1.454s.457-1.455,1.28-1.455,1.26.512,1.26,1.455S24.766,46.619,23.932,46.619Z" style="fill: #00b0d2"/>
    <path d="M29.935,42.416a2.748,2.748,0,1,0,2.708,2.749A2.574,2.574,0,0,0,29.935,42.416Zm0,4.187c-.844,0-1.29-.513-1.29-1.438s.446-1.439,1.29-1.439,1.289.506,1.289,1.439S30.779,46.6,29.935,46.6Z" style="fill: #00b0d2"/>
    <path d="M36.016,46.385v.005a1.5,1.5,0,0,1-.144.059,1.372,1.372,0,0,1-.151.045,1.55,1.55,0,0,1-.154.029c-.051.006-.1.011-.156.012-.327,0-.486-.2-.486-.582V40.572H33.456v5.6c0,1.072.55,1.735,1.568,1.735a2.6,2.6,0,0,0,.575-.054,2.655,2.655,0,0,0,.278-.076,2.6,2.6,0,0,0,.269-.107Z" style="fill: #00b0d2"/>
    <path d="M40.9,42.734v.006h0ZM39.781,44.6l-1.164-.268c-.368-.08-.487-.168-.487-.357,0-.268.228-.377.784-.377a4.755,4.755,0,0,1,.477.032,4.7,4.7,0,0,1,.472.081,4.562,4.562,0,0,1,.461.129,4.739,4.739,0,0,1,.446.175L40.9,42.74c-.154-.054-.311-.1-.469-.141s-.32-.074-.482-.1-.326-.046-.489-.059-.328-.019-.492-.017c-1.379,0-2.2.6-2.2,1.617a1.436,1.436,0,0,0,1.269,1.539l1.164.291c.452.119.582.218.582.446-.01.3-.22.4-.823.4a4.7,4.7,0,0,1-1-.078,4.852,4.852,0,0,1-.49-.118,4.692,4.692,0,0,1-.474-.17l-.139,1.319a6.474,6.474,0,0,0,2.114.247c1.369,0,2.192-.584,2.192-1.685A1.549,1.549,0,0,0,39.781,44.6Z" style="fill: #00b0d2"/>
    <path d="M44.917,52.052v0l.009,0ZM43.8,53.918l-1.164-.269c-.366-.078-.485-.167-.485-.356,0-.268.228-.377.784-.377a4.5,4.5,0,0,1,.477.032,4.68,4.68,0,0,1,.471.081,4.557,4.557,0,0,1,.461.128,4.721,4.721,0,0,1,.445.175l.129-1.276q-.228-.078-.463-.137c-.159-.04-.32-.074-.482-.1s-.325-.047-.488-.059-.328-.019-.492-.018c-1.379,0-2.2.6-2.2,1.618A1.436,1.436,0,0,0,42.058,54.9l1.164.291c.452.119.582.218.582.446-.01.3-.218.4-.823.4a4.743,4.743,0,0,1-.506-.012,4.976,4.976,0,0,1-.5-.066,4.564,4.564,0,0,1-.491-.12,4.641,4.641,0,0,1-.476-.17l-.146,1.319a6.473,6.473,0,0,0,2.114.248c1.369,0,2.192-.584,2.192-1.685A1.545,1.545,0,0,0,43.8,53.918Z" style="fill: #00b0d2"/>
    <path d="M23.826,51.7c-1.111,0-1.658.565-1.787,1.707l-.11-.01.15-1.518H20.718V57.1h1.464V54.1c0-.755.357-1.092,1.182-1.092.576,0,.884.337.884.973V57.1h1.469V53.8C25.717,52.459,25.029,51.7,23.826,51.7Z" style="fill: #00b0d2"/>
    <path d="M26.646,54.485v0Zm2.573-2.75a2.752,2.752,0,0,0,.219,5.5,3.3,3.3,0,0,0,2.215-.835l-.537-1.092a2.743,2.743,0,0,1-1.648.615c-.9,0-1.294-.352-1.4-1.039h3.574q.008-.061.012-.123c0-.041.007-.083.01-.124s0-.083.005-.124,0-.083,0-.125A2.418,2.418,0,0,0,29.219,51.735ZM28.1,53.96A1.067,1.067,0,0,1,29.219,53a.993.993,0,0,1,1.039.964Z" style="fill: #00b0d2"/>
    <polygon points="38.873 51.885 37.919 55.141 36.866 51.885 35.465 51.885 34.403 55.134 33.449 51.885 31.941 51.885 33.628 57.099 35.058 57.099 36.138 53.767 37.234 57.099 38.645 57.099 40.303 51.885 38.873 51.885" style="fill: #00b0d2"/>
    <path d="M45.75,42.563l.078.8-.107.008a1.533,1.533,0,0,0-1.648-.952c-1.418,0-2.311,1.1-2.311,2.749s.883,2.747,2.2,2.747c1.142,0,1.7-.6,1.827-1.784l.112.01-.172,1.636h1.517V42.563Zm-1.309,4.056c-.825,0-1.261-.506-1.261-1.454s.428-1.455,1.261-1.455,1.28.512,1.28,1.455S45.266,46.619,44.441,46.619Z" style="fill: #00b0d2"/>
    <path d="M51.73,46.375c-.054.023-.109.043-.166.061s-.12.033-.181.046-.122.021-.184.027-.124.009-.187.009c-.506,0-.666-.163-.666-.728V43.9h1.238v-1.34H50.346v-1.31l-1.467.218v1.092h-.8V43.9h.8v2.284a1.566,1.566,0,0,0,1.706,1.726,2.868,2.868,0,0,0,.658-.046,2.888,2.888,0,0,0,.321-.078,2.813,2.813,0,0,0,.311-.113Zm0-.007v.007l.01,0Z" style="fill: #00b0d2"/>
    <path d="M50.326,55.922l-1.609.169L48.711,56c1.768-.467,3.536-1.687,3.536-3.267,0-1.3-.9-2.125-2.453-2.125a2.571,2.571,0,0,0-2.811,2.115l1.36.308a1.353,1.353,0,0,1,1.421-1.2c.735,0,1.072.387,1.072.924a1.5,1.5,0,0,1-.864,1.29l-2.781,1.787v1.411h5.091V55.922Z" style="fill: #00b0d2"/>
  </g>
</svg>
