<svg xmlns="http://www.w3.org/2000/svg" width="56" height="56" viewBox="0 0 257.952 184.808"><path fill="#0073ff" d="M0 113.88h6.484l-.9 9.189v3.95L6.7 137.625v7.175H0zm6.612 18.55l-2.19.171V120.32l1.89.173c.559-4.811 2.963-7.215 7.9-7.215 5.711 0 9.534 4.724 9.534 11.895 0 7.128-3.823 11.894-9.835 11.894-4.25 0-6.526-1.975-7.3-4.637m10.994-7.257c0-4.079-1.89-6.269-5.454-6.269-3.607 0-5.54 2.19-5.54 6.269s1.933 6.269 5.54 6.269c3.564 0 5.454-2.19 5.454-6.269m32.25 0c0 7.171-4.681 11.894-11.723 11.894s-11.723-4.723-11.723-11.894 4.681-11.895 11.723-11.895S49.855 118 49.855 125.173m-6.14 0c0-4.037-1.933-6.227-5.583-6.227s-5.582 2.19-5.582 6.227c0 4.079 1.932 6.227 5.582 6.227s5.583-2.148 5.583-6.227m20.74 5.282l.559 5.582a11.035 11.035 0 01-4.853 1.03c-4.38 0-6.785-2.877-6.785-7.514v-24.262h6.356v23.275c0 1.631.687 2.489 2.1 2.489a6.524 6.524 0 002.619-.6m21.132-15.803l-.558 5.54a20.22 20.22 0 00-8.031-1.8c-2.405 0-3.392.472-3.392 1.632 0 .815.515 1.2 2.1 1.546l5.024 1.159c4.209.988 5.927 3.479 5.927 7.042 0 4.767-3.565 7.3-9.49 7.3-4.252 0-6.828-.3-9.147-1.073l.6-5.711a20.516 20.516 0 008.546 1.589c2.619 0 3.52-.43 3.563-1.718 0-.987-.558-1.417-2.533-1.932l-5.025-1.289c-3.821-.987-5.5-3.006-5.5-6.656 0-4.38 3.564-7 9.533-7a25.206 25.206 0 018.374 1.374m3.745 10.518c0-7.128 3.865-11.895 10.006-11.895 4.294 0 6.1 1.675 7.128 4.122l2.19-.172v12.282l-1.89-.172c-.558 5.11-2.963 7.729-7.9 7.729-5.711 0-9.533-4.723-9.533-11.894m17.134 0c0-4.08-1.932-6.269-5.54-6.269-3.564 0-5.453 2.189-5.453 6.269s1.889 6.269 5.453 6.269c3.608 0 5.54-2.19 5.54-6.269m1.03 1.932v-4.08l-.9-9.146h6.484v22.587H106.5zm24.348-7.429h-15.16v-5.8h15.16zm.644 10.736l.6 5.625a12.74 12.74 0 01-5.582 1.03c-4.509 0-7.386-2.576-7.386-7.471v-20.441l6.354-.944v19.667c0 2.448.689 3.178 2.878 3.178a8.051 8.051 0 003.135-.644m33.025-15.76l-.558 5.54a20.216 20.216 0 00-8.031-1.8c-2.4 0-3.392.472-3.392 1.632 0 .815.516 1.2 2.1 1.546l5.025 1.159c4.208.988 5.926 3.479 5.926 7.042 0 4.767-3.565 7.3-9.49 7.3-4.252 0-6.828-.3-9.147-1.073l.6-5.711a20.52 20.52 0 008.546 1.589c2.619 0 3.521-.43 3.564-1.718 0-.987-.559-1.417-2.534-1.932l-5.025-1.289c-3.82-.987-5.5-3.006-5.5-6.656 0-4.38 3.565-7 9.534-7a25.2 25.2 0 018.373 1.374m5.032-.775h6.484l-.9 9.189v3.95l1.116 10.606v7.175h-6.7zm6.613 18.55l-2.19.171V120.32l1.889.173c.559-4.811 2.963-7.215 7.9-7.215 5.712 0 9.533 4.724 9.533 11.895 0 7.128-3.821 11.894-9.834 11.894-4.25 0-6.527-1.975-7.3-4.637m10.993-7.257c0-4.079-1.89-6.269-5.454-6.269-3.607 0-5.539 2.19-5.539 6.269s1.932 6.269 5.539 6.269c3.564 0 5.454-2.19 5.454-6.269m32.251 0c0 7.171-4.681 11.894-11.724 11.894s-11.722-4.723-11.722-11.894 4.68-11.895 11.722-11.895 11.724 4.724 11.724 11.895m-6.141 0c0-4.037-1.933-6.227-5.583-6.227s-5.581 2.19-5.581 6.227c0 4.079 1.931 6.227 5.581 6.227s5.583-2.148 5.583-6.227m9.92-11.294h6.055l-.9 10.435 1.2 1.8v10.349h-6.355zm15.459 6.613l-2.362-.215c-5.153-.472-6.742 2.233-6.742 6.613l-2.275-.386.085-6.012 1.89.172c.687-4.938 2.705-7.386 6.441-7.386a9.062 9.062 0 013.435.644zm17.091-.816h-15.16v-5.8h15.16zm.644 10.736l.6 5.625a12.74 12.74 0 01-5.582 1.03c-4.509 0-7.386-2.576-7.386-7.471v-20.441l6.354-.944v19.667c0 2.448.689 3.178 2.878 3.178a8.051 8.051 0 003.135-.644"/><path fill="#0098ff" d="M99.242 62.934c10.265 1.462 22.339-7.96 32.067-15.274 9.13-6.865 20.377-15.3 28.8-15.2 5.511.062 10.339 3.223 11.85 7.5-.146-1.634-.927-6.491-1.484-8.816-1.07-3.179-3.984-10.235-13.711-10.192-10.038.044-21.259 8.734-30.207 15.308-11.104 8.16-21.057 16.71-31.629 14.757-5.673-1.048-8.125-3.67-8.938-6a82.431 82.431 0 001.46 8.722c1.361 3.051 4.256 8.124 11.792 9.2"/><path fill="#00bdff" d="M142.946 2.319c-20.055-6.646-40.209 1.465-51.119 18.292 0 0 2.253 4.845 11.524-2.886C117.8 5.681 125.323.2 142.946 2.319"/><path fill="#00e1ff" d="M120.16 15.624c-4.442 3.253-10.894 8.181-15.466 11.237-5.408 3.614-12.965 8.711-16.625 1.982A34.292 34.292 0 0086.5 35.5c.182 2.186 2.319 6.865 8.609 6.973 8.085.139 15.576-6.842 27.023-15.336 12.029-8.925 20.4-14.787 30.2-13.642 7.764.907 11.486 4.566 14.327 8.23a41.409 41.409 0 00-13.845-14.568C145.7 2.588 134.5 5.12 120.16 15.624"/><path fill="#0073ff" d="M114.9 81.914c20.057 6.646 40.21-1.465 51.12-18.292 0 0-2.253-4.845-11.524 2.885-14.446 12.045-21.972 17.527-39.6 15.407M137.69 68.61c4.442-3.254 10.894-8.182 15.466-11.238 5.408-3.614 12.965-8.711 16.626-1.983a34.334 34.334 0 001.566-6.66c-.182-2.186-2.319-6.865-8.608-6.974-8.087-.138-15.577 6.843-27.024 15.337-12.028 8.925-20.4 14.786-30.2 13.641-7.764-.907-11.487-4.565-14.326-8.228a41.388 41.388 0 0013.849 14.571c7.115 4.569 18.312 2.037 32.653-8.466"/><path fill="#00bdff" d="M23.769 172.275l-.479.044.566 5.221v7.268h-6.789v-31.333h6.571l-.652 6.658.478.044c.566-5 3.133-7.311 8.007-7.311 5.788 0 9.662 4.831 9.662 12.054 0 7.312-3.917 12.055-9.966 12.055-3.873 0-6.528-1.654-7.398-4.7zm11.14-7.355c0-4.133-1.914-6.353-5.526-6.353-3.656 0-5.614 2.22-5.614 6.353s1.958 6.354 5.614 6.354c3.612 0 5.526-2.219 5.526-6.354zm26.068-4.743l-2.393-.218c-4.7-.435-6.833 1.7-6.833 6.7v9.7h-6.44v-22.884h6.136l-.609 6.832.609.044c.7-5.092 2.785-7.485 6.527-7.485a8.031 8.031 0 013.482.7zm1.698 4.743c0-7.093 4.656-12.054 11.271-12.054 6.441 0 10.749 4.656 10.749 11.619a17.746 17.746 0 01-.13 2.177H68.9c.479 3.219 2.394 4.569 6.267 4.569A19.105 19.105 0 0083 169.272l.479 5.745a19.812 19.812 0 01-8.573 1.958c-7.662 0-12.231-4.482-12.231-12.055zm6.31-2.306H78.6c-.392-2.742-2-4.221-4.657-4.221-2.738 0-4.435 1.436-4.958 4.221zm41.343 13.752h-6.441V162.7c0-2.786-1.305-4.265-3.655-4.265-3.438 0-4.961 1.436-4.961 4.787v13.143H88.83v-22.89h5.962l-.653 6.658.479.044c.566-5.136 3-7.485 7.7-7.485 4.438 0 7.05 2.611 7.441 7.441l.3.044c.435-5.048 2.785-7.485 7.224-7.485 5.135 0 8.094 3.394 8.094 9.225v14.449h-6.44V162.7c0-2.786-1.306-4.265-3.656-4.265-3.438 0-4.961 1.436-4.961 4.787zm23.545-31.812c2.437 0 3.743 1.175 3.743 3.308 0 2.176-1.306 3.306-3.743 3.306s-3.742-1.13-3.742-3.306c0-2.133 1.305-3.308 3.742-3.308zm3.22 31.812h-6.44v-22.891h6.44zm21.716-6.659l-.479-.043c-.566 5.135-3 7.485-7.746 7.485-5.222 0-8.225-3.4-8.225-9.226v-14.448h6.441v13.665c0 2.785 1.349 4.265 3.786 4.265 3.525 0 5.091-1.437 5.091-4.787v-13.143h6.441v22.891h-5.962zm32.291 6.659h-6.441V162.7c0-2.786-1.3-4.265-3.655-4.265-3.438 0-4.961 1.436-4.961 4.787v13.143H169.6v-22.89h5.962l-.653 6.658.479.044c.566-5.136 3-7.485 7.7-7.485 4.438 0 7.05 2.611 7.441 7.441l.305.044c.435-5.048 2.785-7.485 7.224-7.485 5.135 0 8.094 3.394 8.094 9.225v14.449h-6.44V162.7c0-2.786-1.306-4.265-3.656-4.265-3.438 0-4.961 1.436-4.961 4.787zm35.165-5.048l7.05-.74h8.573v5.788h-22.325v-6.18l12.185-7.833c2.655-1.7 3.786-3.4 3.786-5.657 0-2.568-1.74-4.048-4.7-4.048-3.351 0-5.527 1.828-6.223 5.266l-5.962-1.349c1.088-5.875 5.57-9.27 12.316-9.27 6.7 0 10.749 3.526 10.749 9.314 0 6-6.4 11.924-15.493 14.317z"/></svg>