<svg xmlns="http://www.w3.org/2000/svg" viewBox="0 0 73 73" width="90" height="90">
  <g>
    <path d="M46.173,23.273a3.153,3.153,0,0,0-3.2-2.375c-2.339.01-4.955,2.035-7.04,3.567-2.589,1.9-4.909,3.895-7.372,3.44-1.322-.244-1.894-.855-2.083-1.4a19.187,19.187,0,0,0,.34,2.033,3.384,3.384,0,0,0,2.748,2.143c2.393.341,5.206-1.855,7.474-3.56,2.128-1.6,4.749-3.565,6.713-3.543a2.921,2.921,0,0,1,2.761,1.748C46.484,24.946,46.3,23.815,46.173,23.273Z" style="fill: #ff6700"/>
    <path d="M27.842,20.819q.525,1.128,2.686-.673c3.367-2.807,5.121-4.085,9.228-3.591A10.194,10.194,0,0,0,27.842,20.819Z" style="fill: #ff8533"/>
    <path d="M42.056,17.683c-1.659-1.065-4.268-.475-7.611,1.973-1.035.758-2.539,1.907-3.6,2.619-1.261.842-3.022,2.03-3.875.462A8.013,8.013,0,0,0,26.6,24.29a1.914,1.914,0,0,0,2.006,1.625c1.885.032,3.631-1.595,6.3-3.575,2.8-2.08,4.756-3.446,7.039-3.179a4.52,4.52,0,0,1,3.339,1.918A9.64,9.64,0,0,0,42.056,17.683Z" style="fill: #ffc700"/>
    <path d="M42.448,31.515c-3.366,2.807-5.12,4.085-9.228,3.591a10.194,10.194,0,0,0,11.914-4.263Q44.609,29.714,42.448,31.515Z" style="fill: #ff4a33"/>
    <path d="M44.369,25.747c-1.885-.033-3.63,1.594-6.3,3.574-2.8,2.08-4.756,3.446-7.039,3.179a4.52,4.52,0,0,1-3.339-1.918,9.653,9.653,0,0,0,3.228,3.4c1.658,1.065,4.268.475,7.61-1.973,1.035-.758,2.539-1.907,3.6-2.619,1.261-.842,3.022-2.03,3.875-.462a7.948,7.948,0,0,0,.365-1.552A1.913,1.913,0,0,0,44.369,25.747Z" style="fill: #ff4a33"/>
    <path d="M29.88,42.416a2.772,2.772,0,1,0,2.732,2.772A2.6,2.6,0,0,0,29.88,42.416Zm0,4.223c-.851,0-1.3-.5-1.3-1.451s.45-1.451,1.3-1.451,1.3.51,1.3,1.451S30.73,46.639,29.88,46.639Z" style="fill: #ff6700"/>
    <path d="M36.014,46.419a1.519,1.519,0,0,1-.61.14c-.33,0-.49-.2-.49-.58V40.554H33.432v5.655c0,1.081.561,1.751,1.582,1.751a2.576,2.576,0,0,0,1.131-.24Z" style="fill: #ff6700"/>
    <path d="M39.808,44.617l-1.171-.27c-.371-.079-.491-.17-.491-.36,0-.27.23-.38.791-.38a4.723,4.723,0,0,1,1.872.42l.13-1.291a5.876,5.876,0,0,0-1.952-.32c-1.391,0-2.222.61-2.222,1.631A1.451,1.451,0,0,0,38.046,45.6l1.171.3c.461.12.591.22.591.45-.01.3-.221.4-.831.4a4.786,4.786,0,0,1-1.992-.37l-.14,1.331a6.542,6.542,0,0,0,2.132.25c1.381,0,2.212-.59,2.212-1.7A1.559,1.559,0,0,0,39.808,44.617Z" style="fill: #ff6700"/>
    <path d="M45.833,42.556l.08.812-.11.009a1.545,1.545,0,0,0-1.662-.961c-1.431,0-2.332,1.111-2.332,2.772s.891,2.772,2.222,2.772c1.151,0,1.712-.61,1.842-1.8l.114.01-.174,1.651h1.531V42.556Zm-1.322,4.093c-.83,0-1.271-.51-1.271-1.461s.441-1.461,1.271-1.461,1.292.51,1.292,1.461S45.352,46.649,44.511,46.649Z" style="fill: #ff6700"/>
    <path d="M51.868,46.409a1.873,1.873,0,0,1-.731.15c-.51,0-.67-.17-.67-.74V43.907h1.251V42.556H50.467V41.235l-1.482.22v1.1h-.8v1.351h.8v2.312a1.58,1.58,0,0,0,1.722,1.741,2.974,2.974,0,0,0,1.3-.24Z" style="fill: #ff6700"/>
    <path d="M25.131,51.773a2.773,2.773,0,0,0,0,5.545,2.773,2.773,0,0,0,0-5.545Zm0,4.224c-.851,0-1.3-.5-1.3-1.451s.45-1.452,1.3-1.452,1.3.511,1.3,1.452S25.981,56,25.131,56Z" style="fill: #ff6700"/>
    <path d="M32.417,49.912v1.541l.127,1.273-.107.008a1.545,1.545,0,0,0-1.662-.961c-1.431,0-2.332,1.111-2.332,2.773s.891,2.772,2.222,2.772c1.151,0,1.712-.611,1.842-1.8l.114.011-.174,1.651h1.531V49.912Zm-1.271,6.095c-.831,0-1.271-.511-1.271-1.461s.44-1.462,1.271-1.462,1.291.511,1.291,1.462S31.986,56.007,31.146,56.007Z" style="fill: #ff6700"/>
    <polygon points="36.851 55.877 39.342 53.094 39.342 51.913 35.139 51.913 35.139 53.214 37.483 53.214 35.069 55.927 35.069 57.178 39.402 57.178 39.402 55.877 36.851 55.877" style="fill: #ff6700"/>
    <path d="M41.224,51.383c.56,0,.861-.26.861-.761s-.3-.761-.861-.761-.861.271-.861.761S40.664,51.383,41.224,51.383Zm-.741,5.794h1.482V51.913H40.483Z" style="fill: #ff6700"/>
    <path d="M46.278,51.733c-1.121,0-1.671.571-1.8,1.721l-.111-.009.15-1.532h-1.37v5.264h1.481V54.155c0-.761.36-1.1,1.191-1.1.58,0,.89.34.89.981v3.142H48.19V53.855C48.19,52.5,47.489,51.733,46.278,51.733Z" style="fill: #ff6700"/>
    <path d="M53.084,51.913l.08.812-.11.009a1.545,1.545,0,0,0-1.662-.961c-1.431,0-2.331,1.111-2.331,2.773s.89,2.772,2.221,2.772c1.151,0,1.712-.611,1.842-1.8l.114.011-.174,1.651H54.6V51.913Zm-1.321,4.094c-.831,0-1.271-.511-1.271-1.461s.44-1.462,1.271-1.462,1.291.511,1.291,1.462S52.6,56.007,51.763,56.007Z" style="fill: #ff6700"/>
    <path d="M24.305,42.416A1.651,1.651,0,0,0,22.464,44.1l-.111-.01.151-1.531H20.992v7.206h1.562V48.09l-.127-1.2.107-.009a1.573,1.573,0,0,0,1.7,1.081c1.4,0,2.292-1.111,2.292-2.772S25.636,42.416,24.305,42.416Zm-.48,4.233c-.841,0-1.291-.51-1.291-1.461s.45-1.461,1.291-1.461,1.271.51,1.271,1.461S24.655,46.649,23.825,46.649Z" style="fill: #ff6700"/>
    <path d="M21.318,51.773c-.871,0-1.342.571-1.5,1.722l-.135-.013.135-1.569H18.405v5.265h1.481V54.946c0-1.021.371-1.652,1.572-1.542l.55.051.11-1.532A2.109,2.109,0,0,0,21.318,51.773Z" style="fill: #ff6700"/>
  </g>
</svg>
