<?xml version="1.0" encoding="UTF-8" standalone="no"?>
<svg
   viewBox="0 0 31.218 41.567672"
   width="38.487946"
   height="51.247814"
   version="1.1"
   id="svg15"
   xmlns="http://www.w3.org/2000/svg"
   xmlns:svg="http://www.w3.org/2000/svg">
  <defs
     id="defs15" />
  <g
     id="g15"
     transform="translate(-20.892,-15.994737)">
    <path
       d="m 46.235,23.3 a 3.174,3.174 0 0 0 -3.216,-2.39 c -2.355,0.01 -4.987,2.048 -7.086,3.59 -2.6,1.915 -4.941,3.92 -7.419,3.462 a 2.457,2.457 0 0 1 -2.1,-1.408 19.213,19.213 0 0 0 0.342,2.046 3.407,3.407 0 0 0 2.766,2.157 c 2.408,0.343 5.24,-1.867 7.522,-3.582 2.142,-1.61 4.78,-3.589 6.756,-3.567 a 2.94,2.94 0 0 1 2.78,1.76 C 46.549,24.98 46.366,23.841 46.235,23.3 Z"
       style="fill:#8e35e6"
       id="path1" />
    <path
       d="m 42.091,17.669 c -1.669,-1.072 -4.3,-0.478 -7.659,1.986 -1.042,0.763 -2.555,1.919 -3.628,2.636 -1.268,0.848 -3.041,2.043 -3.9,0.465 a 7.982,7.982 0 0 0 -0.368,1.562 1.927,1.927 0 0 0 2.019,1.636 c 1.9,0.033 3.654,-1.605 6.339,-3.6 2.821,-2.094 4.786,-3.469 7.084,-3.2 a 4.552,4.552 0 0 1 3.361,1.93 9.706,9.706 0 0 0 -3.248,-3.415 z"
       style="fill:#d18ce6"
       id="path2" />
    <path
       d="M 42.487,31.591 C 39.1,34.416 37.333,35.7 33.2,35.205 a 10.26,10.26 0 0 0 11.99,-4.291 q -0.528,-1.137 -2.703,0.677 z"
       style="fill:#6115ad"
       id="path3" />
    <path
       d="m 44.42,25.785 c -1.9,-0.033 -3.654,1.605 -6.339,3.6 -2.822,2.094 -4.786,3.469 -7.085,3.2 a 4.552,4.552 0 0 1 -3.36,-1.93 9.715,9.715 0 0 0 3.249,3.418 c 1.669,1.071 4.295,0.478 7.659,-1.986 1.042,-0.763 2.555,-1.919 3.628,-2.636 1.268,-0.848 3.041,-2.043 3.9,-0.465 a 8.041,8.041 0 0 0 0.367,-1.563 1.927,1.927 0 0 0 -2.019,-1.638 z"
       style="fill:#6115ad"
       id="path4" />
    <path
       d="m 24.226,42.562 a 1.662,1.662 0 0 0 -1.853,1.692 l -0.111,-0.01 0.151,-1.541 h -1.521 v 7.252 h 1.572 v -1.682 l -0.128,-1.211 0.107,-0.008 a 1.586,1.586 0 0 0 1.713,1.088 c 1.41,0 2.306,-1.118 2.306,-2.79 0,-1.672 -0.896,-2.79 -2.236,-2.79 z m -0.483,4.26 c -0.846,0 -1.3,-0.513 -1.3,-1.47 0,-0.957 0.454,-1.471 1.3,-1.471 0.846,0 1.279,0.514 1.279,1.471 0,0.957 -0.443,1.47 -1.279,1.47 z"
       style="fill:#8e35e6"
       id="path5" />
    <path
       d="m 29.837,42.562 a 2.79,2.79 0 1 0 2.75,2.79 2.611,2.611 0 0 0 -2.75,-2.79 z m 0,4.25 c -0.856,0 -1.31,-0.5 -1.31,-1.46 0,-0.96 0.454,-1.461 1.31,-1.461 0.856,0 1.309,0.514 1.309,1.461 0,0.947 -0.453,1.46 -1.309,1.46 z"
       style="fill:#8e35e6"
       id="path6" />
    <path
       d="m 36.011,46.591 a 1.535,1.535 0 0 1 -0.614,0.141 c -0.332,0 -0.494,-0.2 -0.494,-0.585 v -5.459 h -1.49 v 5.691 c 0,1.088 0.564,1.763 1.591,1.763 A 2.588,2.588 0 0 0 36.142,47.9 Z"
       style="fill:#8e35e6"
       id="path7" />
    <path
       d="M 39.829,44.777 38.65,44.506 c -0.372,-0.081 -0.493,-0.172 -0.493,-0.363 0,-0.272 0.231,-0.383 0.8,-0.383 a 4.744,4.744 0 0 1 1.883,0.423 l 0.131,-1.3 A 5.893,5.893 0 0 0 39,42.562 c -1.4,0 -2.236,0.614 -2.236,1.641 a 1.459,1.459 0 0 0 1.289,1.562 l 1.179,0.3 c 0.463,0.121 0.594,0.221 0.594,0.453 -0.01,0.3 -0.222,0.4 -0.836,0.4 a 4.813,4.813 0 0 1 -2.005,-0.373 l -0.141,1.34 a 6.588,6.588 0 0 0 2.146,0.252 c 1.39,0 2.226,-0.6 2.226,-1.713 a 1.569,1.569 0 0 0 -1.387,-1.647 z"
       style="fill:#8e35e6"
       id="path8" />
    <path
       d="m 45.893,42.7 0.08,0.817 -0.11,0.009 a 1.554,1.554 0 0 0 -1.672,-0.967 c -1.441,0 -2.347,1.118 -2.347,2.79 0,1.672 0.9,2.79 2.236,2.79 1.158,0 1.722,-0.615 1.853,-1.813 l 0.115,0.01 L 45.873,48 h 1.541 v -5.3 z m -1.33,4.119 c -0.836,0 -1.279,-0.513 -1.279,-1.47 0,-0.957 0.443,-1.471 1.279,-1.471 0.836,0 1.3,0.514 1.3,1.471 0,0.957 -0.454,1.473 -1.3,1.473 z"
       style="fill:#8e35e6"
       id="path9" />
    <path
       d="m 51.967,46.581 a 1.9,1.9 0 0 1 -0.736,0.151 c -0.513,0 -0.674,-0.172 -0.674,-0.746 v -1.924 h 1.259 V 42.7 h -1.259 v -1.33 l -1.491,0.222 V 42.7 H 48.26 v 1.359 h 0.806 v 2.327 A 1.591,1.591 0 0 0 50.8,48.142 2.991,2.991 0 0 0 52.11,47.9 Z"
       style="fill:#8e35e6"
       id="path10" />
    <path
       d="m 25.455633,51.405 a 2.367,2.367 0 0 1 0.936,0.171 l 0.151,-1.4 a 3.948,3.948 0 0 0 -1.349,-0.211 1.758,1.758 0 0 0 -1.9,1.853 v 0.756 h -0.705 v 1.39 h 0.705 v 3.455 h 1.483 v -3.455 h 1.349 v -1.39 h -1.349 V 52.2 c 0,-0.634 0.165,-0.795 0.679,-0.795 z"
       style="fill:#8e35e6"
       id="path11" />
    <path
       d="m 27.953633,51.586 c 0.564,0 0.866,-0.262 0.866,-0.765 0,-0.503 -0.3,-0.766 -0.866,-0.766 -0.566,0 -0.867,0.272 -0.867,0.766 0,0.494 0.303,0.765 0.867,0.765 z m -0.746,5.833 h 1.491 v -5.3 h -1.491 z"
       style="fill:#8e35e6"
       id="path12" />
    <path
       d="m 32.425633,56.008 a 1.526,1.526 0 0 1 -0.615,0.141 c -0.332,0 -0.493,-0.2 -0.493,-0.584 v -5.459 h -1.491 V 55.8 c 0,1.088 0.564,1.762 1.592,1.762 a 2.59,2.59 0 0 0 1.138,-0.241 z"
       style="fill:#8e35e6"
       id="path13" />
    <path
       d="m 39.959633,51.939 c -1,0 -1.571,0.524 -1.672,1.732 l -0.077,-0.007 a 1.632,1.632 0 0 0 -1.716,-1.725 c -1.108,0 -1.652,0.574 -1.783,1.732 l -0.11,-0.01 0.151,-1.541 h -1.376 v 5.3 h 1.491 v -3.043 c 0,-0.766 0.342,-1.108 1.148,-1.108 0.544,0 0.846,0.342 0.846,0.987 v 3.163 h 1.49 v -3.042 c 0,-0.766 0.343,-1.108 1.149,-1.108 0.544,0 0.846,0.342 0.846,0.987 v 3.163 h 1.491 v -3.345 c -0.004,-1.36 -0.699,-2.135 -1.878,-2.135 z"
       style="fill:#8e35e6"
       id="path14" />
    <path
       d="m 27.786,20.825 q 0.528,1.137 2.7,-0.677 c 3.389,-2.825 5.154,-4.111 9.288,-3.614 a 10.26,10.26 0 0 0 -11.988,4.291 z"
       style="fill:#c500ff"
       id="path15" />
    <path
       d="m 46.032601,56.167547 1.766215,-0.147483 h 2.134205 v 1.398223 h -5.593633 v -1.54497 l 3.017698,-1.986732 c 0.588483,-0.441733 0.956483,-0.88273 0.956483,-1.398219 0,-0.588482 -0.44175,-0.956483 -1.177724,-0.956483 -0.809735,0 -1.398235,0.441729 -1.619458,1.324485 l -1.398222,-0.368002 c 0.29425,-1.54497 1.398222,-2.280961 3.091434,-2.280961 1.693194,0 2.649681,0.882753 2.649681,2.280961 0,1.54498 -1.619468,3.01695 -3.901152,3.532423 l 0.07372,0.147494 z"
       style="fill:#8e35e6;fill-opacity:1;stroke-width:0.0730156"
       id="path17" />
  </g>
</svg>
