<?xml version="1.0" encoding="utf-8"?>
<!-- Generator: Adobe Illustrator 27.1.1, SVG Export Plug-In . SVG Version: 6.00 Build 0)  -->
<svg version="1.1" id="Layer_1" xmlns="http://www.w3.org/2000/svg" xmlns:xlink="http://www.w3.org/1999/xlink" x="0px" y="0px"
	 viewBox="0 0 72.1 22" style="enable-background:new 0 0 72.1 22;" xml:space="preserve">
<style type="text/css">
	.st0{fill:#E4102B;}
</style>
<path class="st0" d="M49.6,22h5V4.8h12.6v7.9H56.7v4.7h9.8c3.6,0,5.6-2,5.6-5.6V5.6c0-3.6-2-5.6-5.6-5.6H55.2c-3.5,0-5.6,2-5.6,5.6
	V22z M29.7,12.7V4.8h12.7v7.9H29.7z M30.4,17.4h11.2c3.6,0,5.6-2,5.6-5.6V5.6c0-3.6-2-5.6-5.6-5.6H30.4c-3.6,0-5.6,2-5.6,5.6v6.2
	C24.8,15.3,26.8,17.4,30.4,17.4z M0,22h5V4.8h12.5v7.9H7v4.7h9.8c3.6,0,5.6-2,5.6-5.6V5.6c0-3.6-2-5.6-5.6-5.6H5.6C2.1,0,0,2,0,5.6
	V22z"/>
</svg>
