<svg xmlns="http://www.w3.org/2000/svg" id="Layer_1" viewBox="0 0 127 50"><style id="style3">.st0{fill:#2034bc;}</style><g id="g5" fill="#fff"><g id="g7"><path class="st0" d="M21.088 19.364H16.89v6.108h-6.02V4.402h10.218c5.088 0 8.352 2.937 8.352 7.502 0 4.544-3.264 7.46-8.352 7.46zm-.064-9.658H16.89v4.312h4.134c1.272 0 2.353-.592 2.353-2.156 0-1.543-1.08-2.156-2.353-2.156z" id="path9"/><path class="st0" d="M41.418 25.853c-6.953 0-11.024-4.84-11.024-10.927C30.394 8.924 34.464 4 41.418 4c6.954 0 11.088 4.903 11.088 10.926-.02 6.087-4.155 10.927-11.088 10.927zm0-16.4c-3.2 0-4.79 2.6-4.79 5.473 0 2.938 1.59 5.474 4.79 5.474 3.244 0 4.855-2.536 4.855-5.474 0-2.874-1.632-5.473-4.855-5.473z" id="path11"/><path class="st0" d="M66.922 25.472l-3.498-6.763h-2.968v6.76h-6.02V4.402h10.26c5.618 0 8.31 2.937 8.31 6.953 0 3.19-2.035 5.22-3.773 6.13l4.388 7.966h-6.696zM64.548 9.706h-4.092v4.312h4.092c1.272 0 2.353-.76 2.353-2.177 0-1.434-1.08-2.132-2.35-2.132z" id="path13"/><path class="st0" d="M86.68 9.706v15.766h-6V9.706h-6.253V4.38h18.53v5.326H86.68z" id="path15"/><path class="st0" d="M104.912 25.853c-6.953 0-11.024-4.84-11.024-10.927C93.888 8.924 97.958 4 104.912 4 111.866 4 116 8.903 116 14.926c0 6.087-4.134 10.927-11.088 10.927zm0-16.4c-3.2 0-4.79 2.6-4.79 5.473 0 2.938 1.59 5.474 4.79 5.474 3.244 0 4.855-2.536 4.855-5.474.02-2.874-1.61-5.473-4.855-5.473z" id="path17"/><g id="g19"><path class="st0" d="M19.752 42.527c-.848 1.395-2.29 2.452-4.494 2.452-3.244 0-5.258-2.264-5.258-5.287 0-3.043 2.035-5.325 5.215-5.325 2.205 0 3.668 1.1 4.537 2.577l-2.247 1.33c-.445-.865-1.145-1.436-2.14-1.436-1.443 0-2.312 1.205-2.312 2.832 0 1.67.89 2.832 2.374 2.832 1.018 0 1.654-.55 2.184-1.395l2.144 1.416z" id="path21"/><path class="st0" d="M21.618 35.553c1.4-.803 2.82-1.162 4.388-1.162 2.586 0 4.367.954 4.367 3.53v4.335c0 .465.17.634.53.634.19 0 .382-.044.488-.128l.3 1.818c-.403.254-1.103.338-1.59.338-.976 0-1.845-.4-2.163-1.29C27.217 44.642 25.9 45 24.713 45c-2.078 0-3.52-1.12-3.52-3.15 0-2.45 2.163-2.98 3.732-3.127 1.59-.148 2.48-.232 2.48-.972 0-.78-.91-.97-1.632-.97-1.018 0-2.27.318-3.223.95l-.932-2.175zm5.83 4.31c-.424.488-1.06.53-1.866.657-.72.105-1.442.295-1.442 1.225 0 .782.594 1.142 1.42 1.142 1.06 0 1.888-.592 1.888-1.86v-1.163z" id="path23"/><path class="st0" d="M33.638 44.746V34.602h2.904v1.162c.806-.887 1.887-1.394 3.053-1.394 2.31 0 3.435 1.585 3.435 3.635v6.72h-2.926V38.68c0-.844-.276-1.732-1.59-1.732-1.08 0-1.972.697-1.972 2.008v5.77h-2.904z" id="path25"/><path class="st0" d="M45.616 35.553c1.4-.803 2.82-1.162 4.388-1.162 2.587 0 4.368.954 4.368 3.53v4.335c0 .465.17.634.53.634.19 0 .38-.044.487-.128l.294 1.818c-.403.254-1.102.338-1.57.338-.974 0-1.843-.4-2.16-1.29C51.234 44.642 49.92 45 48.73 45c-2.077 0-3.52-1.12-3.52-3.15 0-2.45 2.164-2.98 3.732-3.127 1.59-.148 2.48-.232 2.48-.972 0-.78-.91-.97-1.632-.97-1.017 0-2.268.318-3.222.95l-.954-2.175zm5.83 4.31c-.424.488-1.06.53-1.866.657-.72.105-1.44.295-1.44 1.225 0 .782.592 1.142 1.42 1.142 1.06 0 1.886-.592 1.886-1.86v-1.163z" id="path27"/><path class="st0" d="M57.658 44.746V31.2h2.904v13.546h-2.904z" id="path29"/></g></g></g></svg>