<svg xmlns="http://www.w3.org/2000/svg" width="471.7562" height="158.6958" version="1.1" viewBox="0 0 471.7562 158.69581"><path fill="#0a0a0a" d="M307.60801.0002797 0 0v158.47588h307.60801Z" /><path fill="#ffff00" d="M139.42058 60.703817h-23.2365V48.831988h14.86803c.36856 0 .6638-.293542.6638-.655189v-6.992162c0-.366849-.29524-.660388-.6638-.660388h-14.86803V29.842181h23.2365c.36856 0 .66282-.29874.66282-.660488v-6.992061c0-.366851-.29426-.66039-.66282-.66039h-32.13121c-.36756 0-.6628.298741-.6628.66039v46.166835c0 .366852.29524.655189.6628.655189h32.13121c.36856 0 .66282-.293541.66282-.655189v-6.992159c0-.366951-.29426-.660491-.66282-.660491Z" /><path fill="#ffffff" d="M202.88117 87.995507c-.49057 0-.80899.518836-.58909.953953l4.04093 8.104338c.13035.267273.40697.435114.70947.435114h10.75851v37.302938c0 .3671.29156.66019.65676.66019h8.15546c.36519 0 .65773-.29809.65773-.66019V97.488912h10.75753c.30248 0 .57415-.167841.70947-.435114l4.0419-8.104338c.21892-.435117-.09949-.953953-.59006-.953953Z" /><path fill="#ffff00" d="m154.42518 44.339872 13.86779 13.48095c.25809.246334.66884.246334.93196 0l13.88385-13.48095v24.011094c0 .366948.29524.660489.66281.660489h8.2319c.36856 0 .66282-.298839.66282-.660489V22.189433c0-.587081-.71606-.880521-1.13182-.466466l-22.30455 22.160842c-.25808.256835-.67888.256835-.93697 0l-22.28848-22.14514c-.41575-.414055-1.1318-.120516-1.1318.466465v46.145832c0 .366948.29526.660489.66281.660489h8.2319c.36857 0 .66281-.298839.66281-.660489V44.339872Z" /><path fill="#ffffff" d="m50.209954 108.4389-5.449614-2.37963c-1.793885-.81821-3.175816-1.58841-4.145695-2.30661-.969979-.7242-1.454968-1.77746-1.454968-3.17183 0-1.588319.578822-2.752127 1.741741-3.501824 1.162922-.744297 2.571023-1.116496 4.213659-1.116496 1.986824 0 3.718118.482327 5.199158 1.441581 1.319342.859728 2.508233 2.018232 3.57732 3.485819.21901.29909.636137.36709.928187.14204l5.689519-4.356549c.26588-.199155.338816-.571353.171946-.859629-1.392379-2.369426-3.347859-4.351049-5.856191-5.949872-2.690828-1.703751-5.950126-2.558077-9.777803-2.558077-2.231904 0-4.317838.314486-6.252622.938352-1.939858.623763-3.608564 1.5254-5.011292 2.699612-1.408003 1.17951-2.51888 2.600186-3.348059 4.256723-.823904 1.661737-1.235858 3.52263-1.235858 5.59337 0 1.68245.29205 3.19786.870871 4.5392.578824 1.34734 1.382033 2.57469 2.398878 3.67997 1.022119 1.1063 2.242355 2.10255 3.671254 2.99381 1.428896.89123 2.988047 1.71944 4.688096 2.48965l5.089704 2.3066c1.939859.86524 3.436519 1.68245 4.505505 2.45364 1.063814.77022 1.601043 1.92351 1.601043 3.46493 0 1.68244-.594645 2.98277-1.783635 3.89501-1.18889.91224-2.847147 1.37338-4.980047 1.37338-1.454869 0-2.763862-.19407-3.926683-.57716-1.16292-.38209-2.216385-.90125-3.160292-1.55139-.943809-.6502-1.804233-1.38439-2.58127-2.2016-.625791-.65517-1.19944-1.33634-1.726122-2.05454-.213838-.29909-.625788-.35709-.923012-.14203l-5.746736 4.29812c-.276427.20005-.344289.58216-.172145.87025 1.767813 2.93577 4.151069 5.31039 7.144391 7.12987 3.175814 1.92351 6.873137 2.88777 11.086695 2.88777 2.372705 0 4.578543-.3241 6.612335-.97425 2.038965-.65018 3.801603-1.58844 5.308713-2.81576 1.501836-1.22632 2.685652-2.73072 3.561698-4.50818.87087-1.7765 1.308893-3.77401 1.308893-5.9866 0-3.4169-1.032468-6.16963-3.092329-8.25616-2.059863-2.09156-4.980148-3.97807-8.755681-5.6665" /><path fill="#ffffff" d="m263.37411 108.4389-5.4529-2.37963c-1.79507-.81821-3.17794-1.58841-4.14766-2.30661-.97071-.7242-1.45658-1.77746-1.45658-3.17183 0-1.588319.57945-2.752127 1.74332-3.501824 1.16285-.744297 2.57262-1.116496 4.21535-1.116496 1.98822 0 3.72055.482327 5.20202 1.441581 1.32015.859728 2.5099 2.018232 3.58016 3.485819.21906.29909.63618.36709.9279.14204l5.69284-4.356549c.26583-.199155.33951-.571353.17224-.859629-1.39284-2.369426-3.35018-4.351049-5.8591-5.949872-2.69309-1.703751-5.95367-2.558077-9.78375-2.558077-2.23314 0-4.31991.314486-6.25534.938352-1.94143.623763-3.61105 1.5254-5.01982 2.699612-1.40379 1.17951-2.51987 2.600186-3.35019 4.256723-.82437 1.661737-1.23653 3.52263-1.23653 5.59337 0 1.68245.2927 3.19786.87213 4.5392.57845 1.34734 1.38189 2.57469 2.39938 3.67997 1.02351 1.1063 2.2441 2.10255 3.67378 2.99381 1.42968.89123 2.98978 1.71944 4.69027 2.48965l5.0925 2.3066c1.94142.86524 3.43878 1.68245 4.50807 2.45364 1.06429.77022 1.60189 1.92351 1.60189 3.46493 0 1.68244-.59435 2.98277-1.78408 3.89501-1.18975.91224-2.8494 1.37338-4.98299 1.37338-1.45557 0-2.76577-.19407-3.92863-.57716-1.16386-.38209-2.21821-.90125-3.16204-1.55139-.9448-.6502-1.80601-1.38439-2.58257-2.2016-.62623-.65517-1.2007-1.33634-1.72737-2.05454-.21404-.29909-.62623-.35709-.9239-.14203l-5.7496 4.29812c-.27678.20005-.34448.58216-.17224.87025 1.76917 2.93577 4.15365 5.31039 7.14841 7.12987 3.17696 1.92351 6.8766 2.88777 11.09297 2.88777 2.37349 0 4.58075-.3241 6.61575-.97425 2.03999-.65018 3.80318-1.58844 5.31152-2.81576 1.50236-1.22632 2.68713-2.73072 3.56325-4.50818.87215-1.7765 1.3102-3.77401 1.3102-5.9866 0-3.4169-1.03342-6.16963-3.09431-8.25616-2.06091-2.09156-4.98297-3.97807-8.76029-5.6665" /><path fill="#ffff00" d="M46.8803 21.529242H26.033326c-.363139 0-.66321.298741-.66321.66039v46.161535c0 .366948.294748.660489.66321.660489h8.231495c.363141 0 .663111-.298841.663111-.660489V29.836882h10.626046c3.968323 0 7.326156 3.228843 7.294523 7.175584-.010545 1.944568-.815759 3.705708-2.099902 4.984684-1.300012 1.284177-3.089397 2.086086-5.068286 2.086086h-8.368274c-.521109 0-.836747.57128-.563087 1.006338l4.357773 6.992159c.121114.193926.331505.314443.563087.314443h5.26301c1.647385 0 3.231499-.251635 4.726237-.723299l-.010547-.015802c6.241962-2.002174 10.763028-7.820173 10.763028-14.691716 0-4.261284-1.736864-8.119113-4.547278-10.912798-2.810513-2.793682-6.694579-4.523319-10.983962-4.523319Z" /><path fill="#ffff00" d="M103.04237 36.90245c-.02611-8.527869-7.120577-15.373208-15.704564-15.373208H66.664569c-.36314 0-.663212.293539-.663212.65519v46.166735c0 .366948.300072.65519.663212.65519h8.231494c.363139 0 .663112-.293542.663112-.65519V29.836882h10.647134c3.936788 0 7.226233 3.113427 7.273533 7.028865.052624 3.978246-3.178875 7.217489-7.168287 7.217489h-8.368174c-.521108 0-.836848.566079-.563188 1.006338l14.71016 23.607539c.121012.193928.336928.314543.563185.314543h9.194772c.51518 0 .83654-.566178.56339-1.006438L92.232455 51.662376c6.284139-1.986573 10.831005-7.846477 10.809915-14.759926Z" /><path fill="#ffff00" d="M287.06447 36.90245c-.02611-8.527869-7.12019-15.373208-15.70458-15.373208h-20.67264c-.36353 0-.66381.293539-.66381.65519v46.166735c0 .366948.30028.65519.66381.65519h8.23089c.36355 0 .66282-.293542.66282-.65519V29.836882h10.64714c3.93668 0 7.22662 3.113427 7.27384 7.028865.05321 3.978246-3.17849 7.217489-7.16841 7.217489h-8.36847c-.5202 0-.83654.566079-.56238 1.006338l14.71036 23.607539c.12052.193928.33643.314543.56238.314543h9.19499c.51518 0 .83655-.566178.56337-1.006438l-10.17915-16.342842c6.28365-1.986573 10.83093-7.846477 10.80984-14.759926Z" /><path fill="#ffff00" d="M244.57534 60.703817h-23.2365V48.831988h14.86802c.36858 0 .66383-.293542.66383-.655189v-6.992162c0-.366849-.29525-.660388-.66383-.660388h-14.86802V29.842181h23.2365c.36857 0 .66382-.29874.66382-.660488v-6.992061c0-.366851-.29525-.66039-.66382-.66039h-32.1312c-.36756 0-.66282.298741-.66282.66039v46.166835c0 .366852.29526.655189.66282.655189h32.1312c.36857 0 .66382-.293541.66382-.655189v-6.992159c0-.366951-.29525-.660491-.66382-.660491Z" /><path fill="#ffff00" d="M206.34028 21.529242h-8.23193c-.36353 0-.66279.298741-.66279.66039v46.161535c0 .366948.29425.660489.66279.660489h8.23193c.36853 0 .6628-.298841.6628-.660489V22.189632c0-.366851-.29427-.66039-.6628-.66039Z" /><path fill="#ffffff" d="M88.081309 87.968099H67.406625c-.360139 0-.657631.29888-.657631.660575v46.167186c0 .3671.292315.66018.657631.66018h8.163466c.360139 0 .657632-.29809.657632-.66018V96.276792h10.538326c3.935526 0 7.26561 3.229255 7.234336 7.176798-.010457 1.94452-.809015 3.70598-2.082646 4.98531-1.289168 1.28433-3.063963 2.08655-5.026499 2.08655h-8.299014c-.516704 0-.829934.57115-.558536 1.00626l4.321859 6.99285c.120015.19405.328865.31409.558535.31409h5.162049c1.633667 0 3.204792-.25109 4.687173-.72319 6.21647-1.98653 10.721374-7.82108 10.721374-14.70888 0-4.262229-1.72301-8.120548-4.510182-10.914586-2.787289-2.794038-6.639254-4.523895-10.893189-4.523895Z" /><path fill="#ffffff" d="M203.18309 103.34756c-.02592-8.529451-7.06484-15.375558-15.58031-15.375558h-20.51005c-.36066 0-.65758.293576-.65758.655271v46.172577c0 .36709.29692.65518.65758.65518h8.16576c.36066 0 .65856-.29306.65856-.65518V96.280694h10.5629c3.90552 0 7.16843 3.113923 7.21526 7.029836.0528 3.97907-3.15332 7.21792-7.11067 7.21792h-8.30225c-.51709 0-.82992.56614-.55893 1.00724l14.59396 23.61027c.11955.19404.33376.31407.55893.31407h9.12121c.51212 0 .82996-.56612.55894-1.00626l-10.0986-16.34433c6.23491-1.9875 10.7462-7.84805 10.72529-14.76188Z" /><path fill="#ffff00" d="M105.46068 111.74011c0 14.70775 11.17415 26.81147 25.53117 28.35986.39435.04206.7305-.26241.7305-.65602v-8.25678c0-.3255-.2368-.60392-.56292-.656-9.15025-1.40717-16.15415-9.29038-16.15415-18.79106 0-9.50069 6.9989-17.384085 16.15415-18.790763.32612-.052479.56292-.33071.56292-.656113v-8.256469c0-.393609-.34216-.703287-.7305-.656016-14.35702 1.548394-25.53117 13.657524-25.53117 28.359361Z" /><path fill="#ffff00" d="M136.50169 84.035964v8.256367c0 .330713.24181.603637.56291.656116 9.15024 1.406675 16.15415 9.290973 16.15415 18.790653 0 9.5007-6.99888 17.3849-16.15415 18.79608-.3211.04708-.56291.32549-.56291.651v8.25679c0 .39358.34215.70305.73148.65599 14.36104-1.54339 25.53019-13.65712 25.53019-28.35986 0-14.701728-11.17415-26.810856-25.53019-28.359251-.39435-.042065-.73148.262404-.73148.656115Z" /><path fill="#ffff00" d="m471.7562 2.38-164.83578.0165914V158.6958l164.83578-.0213Z" /><path fill="#0a0a0a" d="m361.48205 45.167095 14.82243-23.761331c.23258-.377247.64614-.605764 1.09105-.605764h38.28532c.70988 0 1.2883.579098 1.2883 1.291107V134.78439c0 .71169-.57842 1.29061-1.2883 1.29061h-23.69721c-.70987 0-1.28728-.57892-1.28728-1.29061V47.138279h-28.12827c-1.01223 0-1.62705-1.115817-1.0911-1.976558Z" /></svg>