<svg xmlns="http://www.w3.org/2000/svg" viewBox="0 0 1038.49 341.57"><g id="Layer_2" data-name="Layer 2"><g id="Layer_1-2" data-name="Layer 1"><path d="M343.05,167.19a66.67,66.67,0,0,1,.17,10.09,168.69,168.69,0,0,1-2.15,23,170.52,170.52,0,0,1-15.57,48.37c-5.79,11.65-13.06,22.29-21,32.58-6.72,8.71-15,15.65-23.34,22.62a3.29,3.29,0,0,1-.56.29c.94-4.2-2-6.62-4.4-9.14a97.89,97.89,0,0,0-11.35-9.67c-12.34-9.49-24.69-19-37.85-27.33-13.41-8.52-26.8-17.07-40.36-25.36-6.07-3.71-12.25-7.25-18.27-11a16.82,16.82,0,0,1-1.83-1.3,5.27,5.27,0,0,0-.74-.49c-.4-.22-.79-.45-1.18-.69-11.13-6.74-22.45-13.15-33.76-19.57-10.8-6.13-21.64-12.18-32.47-18.24-15.83-8.86-31.78-17.52-46.71-27.9-10.77-7.49-21.48-15-31.74-23.23a31.59,31.59,0,0,1-7.32-8c-.79,2.35-1.34,4.44-1.91,6.53a176.07,176.07,0,0,0-5,27,141.66,141.66,0,0,0-.62,21.79c.15,3.55.07,7.18,1.2,10.64,0,.46-.38.61-.73.72a4.71,4.71,0,0,0-3.49,4.06,1.09,1.09,0,0,1-.36.68,8.36,8.36,0,0,1-.56-3.12A170.53,170.53,0,0,1,27.83,77.51,168.07,168.07,0,0,1,49.4,50.84c.26-.26.56-.49.84-.73,1.53,3.26,4.14,5.71,6.58,8.2,7.65,7.82,16.28,14.51,25,21.09s17.85,12,27,17.64q25.94,16,52.25,31.49c8.29,4.88,16.76,9.48,25.16,14.18a23.31,23.31,0,0,1,2.19,1.34,8.65,8.65,0,0,0,.76.47c.4.22.81.41,1.22.6,19.79,11.22,39.59,22.4,59.25,33.83,5,2.93,9.82,6.3,14.67,9.55,6.36,4.26,12.71,8.53,19.16,12.66,13.6,8.71,26,19,38.48,29.18a30.2,30.2,0,0,1,3.8,3.87c.57,0,.55-.49.68-.8A166.26,166.26,0,0,0,334.28,208a160.09,160.09,0,0,0,3.41-21.54c.42-4.68.75-9.37.74-14.08a9.19,9.19,0,0,1,.14-2.56A17.43,17.43,0,0,1,343.05,167.19Z" style="fill:#d73944"/><path d="M188.43,144.42c-7.08-4-14.14-8-21.25-12-13.9-7.72-27.36-16.17-41-24.32C115.71,101.84,105.34,95.41,95,88.91A249.69,249.69,0,0,1,68.65,69.54,135,135,0,0,1,56.06,58.1c-1.75-1.87-3.4-3.84-5.09-5.78a2.46,2.46,0,0,1-.72-2.2l.49-.49C53.33,48,56.3,48,59.19,47.54c11.31-.3,22.31,1.84,33.15,4.63,30.5,7.86,61.35,14.22,92,21.21,11.33,2.58,22.7,5,34,7.68.48.15,1,.28,1.45.41,4.85,2.42,9.37,5.4,14,8.15q19.71,11.64,39.31,23.47c13.69,8.3,27.51,16.39,40.89,25.19a147,147,0,0,1,15.4,12.09,78.71,78.71,0,0,1,10.74,10.78A15.76,15.76,0,0,1,343,166a2.4,2.4,0,0,1,0,1.22,7.58,7.58,0,0,1-2.72,1.89c-.52.24-1.14.29-1.56.75a3.77,3.77,0,0,1-2,.95,33.54,33.54,0,0,1-8.09,1.09c-11.66.31-23.16-1.21-34.63-3-19-3-37.86-7.08-56.62-11.47-14.48-3.39-28.9-7.07-43.27-10.91a20.45,20.45,0,0,1-3.5-1.14,9.79,9.79,0,0,0-1.17-.46C189.2,144.58,188.75,144.64,188.43,144.42Z" style="fill:#6d1620"/><path d="M166.55,220c5.13,3.5,10.62,6.41,15.9,9.68,7.77,4.82,15.59,9.58,23.35,14.42,11.35,7.08,22.61,14.29,33.67,21.83,4.46,3,8.93,6.09,13.1,9.54,5.06,4.2,10.54,7.87,15.64,12,2.82,2.3,5.64,4.6,8.23,7.16a38.68,38.68,0,0,1,3.23,3.77c1.37,1.76,2.08,3.59.95,5.75a1.76,1.76,0,0,1-.8.65c-2.22,1.45-4.78,1.15-7.23,1.42a14.16,14.16,0,0,1-2.06,0c-10.91-.1-21.63-1.93-32.32-3.85-12.7-2.27-25.41-4.53-38-7.37-19.12-4.32-38.11-9.16-57.09-14-2.28-.58-4.57-1.16-6.82-1.84a11.77,11.77,0,0,0-1.43-.43c-.38-.12-.76-.21-1.14-.31-4.47-2.31-8.85-4.78-13.24-7.23q-16.27-9.06-32.41-18.39C74.19,244.7,60.35,236.55,46.72,228A357.21,357.21,0,0,1,14.38,205.1,128.34,128.34,0,0,1,1.71,193.53h0c.11-3.06,1.06-4.24,4.38-5.37.63-.86,1.58-.79,2.47-.86,5.66-.45,11.2.5,16.76,1.34,23.53,3.56,46.71,8.88,69.89,14.13,21.88,5,43.72,10.1,65.57,15.2,1.2.28,2.4.56,3.57.94a11.75,11.75,0,0,0,1.15.5C165.79,219.77,166.24,219.72,166.55,220Z" style="fill:#6d1620"/><path d="M59.32,48a53,53,0,0,0-8.57,1.67,84,84,0,0,1,7-6.63,172.27,172.27,0,0,1,95.2-42A180.24,180.24,0,0,1,180,.18c-.3.94-1.11.66-1.73.65a20.35,20.35,0,0,0-6.17.85c-2.43.73-3,2.28-1.55,4.38a14.43,14.43,0,0,0,2.88,3,39.24,39.24,0,0,0,10.89,6.67Q203.3,23,222,31a8.14,8.14,0,0,1,1.14.58,5.24,5.24,0,0,0,1,.49,3,3,0,0,1,1.27.86C232.27,36,239.18,39,246,42.21c11.34,5.4,22.67,10.86,33.47,17.3a312.38,312.38,0,0,1,40.89,29.4,36.69,36.69,0,0,1,11.15,16.14A223.55,223.55,0,0,1,338.16,128c1,4.26,1.6,8.61,2.28,12.94.86,5.5,1.61,11,2.11,16.55A63.31,63.31,0,0,1,343,166c-1.29-1.57-2.17-3.42-3.45-5a77.71,77.71,0,0,0-9-9.14c-4.63-4.13-9.5-8-14.49-11.68-3.45-2.54-7.12-4.75-10.77-7q-17.44-10.7-35-21.3c-11.13-6.72-22.31-13.35-33.48-20q-8.48-5.06-17-10.08c-.36-.28-.85-.23-1.22-.51a98.82,98.82,0,0,1-9-5.2c-10.32-6.22-21-11.75-31.25-18.13-8.72-5.44-17.45-10.87-26.06-16.48-11-7.15-22-14.31-32.6-22-1.43-1-2.8-2.16-4.19-3.24a2.34,2.34,0,0,0-2.52-.34A167.54,167.54,0,0,0,84.07,30,165,165,0,0,0,60.94,47,7.48,7.48,0,0,1,59.32,48Z" style="fill:#d73944"/><path d="M270.47,305.79a46.81,46.81,0,0,0,8.1-.71c.42-.08.83-.19,1.24-.29a61.13,61.13,0,0,1-6.34,4.89,169.76,169.76,0,0,1-64.91,28.41A167.81,167.81,0,0,1,186,341.16a165.64,165.64,0,0,1-20.54.17,196.58,196.58,0,0,1-19.81-1.86c-1.16-.18-2.3-.46-3.46-.7a23.72,23.72,0,0,1-5.78-5.48c-3.72-4.37-7.44-8.71-12.37-11.79-.28-.25.33,0,.14-.26-3-2.28-7-4.89-10.28-6.83-10.84-6.48-22-12.34-33.12-18.34-12.89-7-25.74-14-38.25-21.65A55.92,55.92,0,0,1,25.7,258.37a115.38,115.38,0,0,1-12.09-23A223.21,223.21,0,0,1,1.8,195a3.14,3.14,0,0,1-.09-1.43c.42,0,.67.29,1,.54,2.45,2.23,4.93,4.45,7.35,6.71a115.09,115.09,0,0,0,13.93,11.07c2.92,2,5.61,4.28,8.51,6.3,6.06,4.23,12.27,8.21,18.56,12.08s12.51,7.65,18.82,11.38q12.36,7.31,24.82,14.47,11.61,6.69,23.31,13.23c5.27,3,10.58,5.85,15.87,8.77.35.2.75.3,1.1.5s.56.13.84.22A254,254,0,0,1,158.94,292c7.49,4.58,14.83,9.39,22.11,14.28,10.31,6.92,20.5,14,30.33,21.6a16.36,16.36,0,0,1,2.56,2.18c.94,1.1,1.87,1.08,3.12.73a172.34,172.34,0,0,0,36.39-14.68c5.22-2.85,10.26-6,15.18-9.31A9,9,0,0,1,270.47,305.79Z" style="fill:#d73944"/><path d="M223.18,32c-7.69-3.35-15.45-6.54-23.25-9.64-5.86-2.33-11.76-4.56-17.57-7a34.29,34.29,0,0,1-11.75-8.46,5.51,5.51,0,0,1-1-1.63,2.48,2.48,0,0,1,1.33-3.57,12.37,12.37,0,0,1,3.22-.92,26.76,26.76,0,0,1,4.47-.34A2.14,2.14,0,0,0,180,.19a63.19,63.19,0,0,1,10,.73c1.79.2,3.57.54,5.36.81,10.68,1.66,20.92,5,31.25,8,3.74,1.1,7.47,2.2,11.13,3.53a128.91,128.91,0,0,1,29.67,14.9c3.81,2.57,7.51,5.3,11.15,8.1a12.3,12.3,0,0,1,2.12,2c.95,1.18.75,1.77-.71,2.09a17.26,17.26,0,0,1-5.27.12c-8.37-.68-16.63-2.11-24.89-3.56-7.78-1.37-15.53-2.87-23.3-4.31a7,7,0,0,0-.8-.06c-.43-.12-.9.07-1.32-.17C224.1,32,223.55,32.22,223.18,32Z" style="fill:#6d1620"/><path d="M124.18,321.22a34.71,34.71,0,0,1,8.19,6.83c3.14,3.7,6.33,7.35,9.82,10.73a37.16,37.16,0,0,1-8.83-1.42c-10.55-2.62-20.63-6.58-30.59-10.87a160.61,160.61,0,0,1-16.87-8.15,20.21,20.21,0,0,1-4.05-2.87c-.6-.58-1.4-1.18-1-2.17s1.29-.92,2-1a21.93,21.93,0,0,1,6.71.38c8.56,1.6,17,3.89,25.38,6.1l7.89,2.1A6.2,6.2,0,0,1,124.18,321.22Z" style="fill:#6d1620"/><path d="M237.77,13.29a40,40,0,0,1-6-1.58c-9.19-2.6-18.27-5.56-27.54-7.86-2.64-.65-5.3-1.2-7.95-1.79a1.65,1.65,0,0,1-.88-.34,44.7,44.7,0,0,1,7.27,1.05,171.2,171.2,0,0,1,33.12,9.57A6.19,6.19,0,0,1,237.77,13.29Z" style="fill:#d93b44"/><path d="M886.13,177l-9.72-26.66H838.57L829.1,177H820L853.58,86.8h8.25L895.24,177Zm-26.89-74.38c-.29-.8-.58-1.72-.89-2.77a28.11,28.11,0,0,1-.77-3.58h-.25a35.58,35.58,0,0,1-.83,3.58c-.31,1-.61,2-.89,2.77l-14.27,40.11h32.3Z" style="fill:#6e1520"/><path d="M894.35,163.75a31.34,31.34,0,0,0,4.89,3.05,38.92,38.92,0,0,0,11.11,3.64,33.45,33.45,0,0,0,5.41.47q10,0,15-4t5-11.38a14.27,14.27,0,0,0-4.8-11.26,37.66,37.66,0,0,0-6.21-4.62q-3.75-2.3-8.86-5.19-5.65-3.15-9.69-5.94a35.33,35.33,0,0,1-6.58-5.72,19.48,19.48,0,0,1-3.75-6.32,23.11,23.11,0,0,1-1.2-7.73A20.75,20.75,0,0,1,896.94,99a22.94,22.94,0,0,1,6.15-7.39,28.19,28.19,0,0,1,9.08-4.68,36.85,36.85,0,0,1,11.11-1.63q10.4,0,17.41,3v9.24a35.55,35.55,0,0,0-18.34-4.59,27.7,27.7,0,0,0-7.41,1,19,19,0,0,0-6.09,2.86,13.79,13.79,0,0,0-4.12,4.68,13.46,13.46,0,0,0-1.51,6.51,16.31,16.31,0,0,0,1,6.07,14.46,14.46,0,0,0,3.26,4.81,31.36,31.36,0,0,0,5.91,4.5q3.66,2.23,9,5.12a105.43,105.43,0,0,1,9.66,5.88,37.75,37.75,0,0,1,6.86,6,22.15,22.15,0,0,1,4.09,6.6,21.39,21.39,0,0,1,1.35,7.76A23.93,23.93,0,0,1,942.17,165a20.25,20.25,0,0,1-6,7.45,27.07,27.07,0,0,1-9.23,4.46,42.63,42.63,0,0,1-16.73,1.16,58.73,58.73,0,0,1-5.85-1,53,53,0,0,1-5.63-1.57,20.46,20.46,0,0,1-4.34-2v-9.79Z" style="fill:#6e1520"/><path d="M959.43,177h-8.18V86.8h8.18Z" style="fill:#6e1520"/><path d="M1028.2,177l-9.72-26.66H980.64L971.17,177h-9.11L995.65,86.8h8.25L1037.31,177Zm-26.89-74.38c-.29-.8-.58-1.72-.89-2.77a28.11,28.11,0,0,1-.77-3.58h-.25a35.58,35.58,0,0,1-.83,3.58c-.31,1-.61,2-.89,2.77l-14.27,40.11h32.3Z" style="fill:#6e1520"/><path d="M437,154.1v21.68H369.43V154.1h16.33V69.15H369.43V47.47H437q23.61,0,36.48,11.07t12.87,29.79a41.6,41.6,0,0,1-4.52,19.42,34.61,34.61,0,0,1-11.58,13.37,43.34,43.34,0,0,1-16.14,6.36,126.08,126.08,0,0,1-22.74,1.71H419.14v24.9H437Zm-17.9-46.3h5q17.16,0,22.09-5.58a20.19,20.19,0,0,0,4.93-13.88,20.51,20.51,0,0,0-3.41-11.94q-3.42-4.94-7.84-6.09t-14.48-1.15h-6.27Z" style="fill:#da3845"/><path d="M538.8,155.21v20.57H476V155.21h16.51V107.06H477V86.49h41.6v22.69a31.67,31.67,0,0,1,10.93-16.93,30.43,30.43,0,0,1,20.15-7.15c1.29,0,2.83,0,4.61.09v26.93q-10.78,0-17.62,2.4T525.41,125A39.51,39.51,0,0,0,521,144.23v11Z" style="fill:#da3845"/><polygon points="549.33 107.06 549.33 86.49 591.38 86.49 591.38 155.21 604.67 155.21 604.67 175.78 549.33 175.78 549.33 155.21 562.88 155.21 562.88 107.06 549.33 107.06" style="fill:#da3845"/><path d="M594.82,107.06V86.49h43.26v7.29q14.58-8.67,29-8.67,17.25,0,26.75,12.18Q711,85.11,729.86,85.11q11.16,0,18.13,4.1a21.33,21.33,0,0,1,9.55,11q2.58,6.92,2.58,20.94v34h14.76v20.57H731.62v-52.3q0-14-12.08-14-9.49,0-20.57,6.09v39.66h14.76v20.57H670.47V124.31q0-14.85-11.62-14.85-9,0-20.75,6.09v39.66h14.76v20.57h-58V155.21H609.6V107.06Z" style="fill:#da3845"/><path d="M815,175.78l6.49-17.29a20.74,20.74,0,0,1-5.88.87,25.13,25.13,0,0,1-14.9-5.07q-7-5.07-7.7-17.25h36.54l15.34-40.85a48.34,48.34,0,0,0-5.2-4.16q-11.16-7.75-26.47-7.75-21.12,0-34.77,13.84t-13.65,34.5q0,20.3,13.24,32.75t36.35,12.44Zm-3.26-72.6q8.38,0,13.25,5.26a22.7,22.7,0,0,1,5.85,12.73H793.44Q796,103.19,811.7,103.18Z" style="fill:#da3845"/><path d="M545.55,62.72c.91.85,1.6,1.53,2.33,2.15,3.37,2.87,6.73,5.75,10.15,8.55,1.47,1.21,2.26,2.49,1.58,4.44a14.54,14.54,0,0,0-.37,2.68c1-.1,1.69-.15,2.37-.24,3.39-.42,6.78-.89,10.19-1.25,1.46-.15,2.2.52,2.24,1.92a14.39,14.39,0,0,1-.12,3.33h1.5c-.64-2.27-.45-2.87.68-5.3,4.5.17,9.07,1.29,13.87,1.3a9.25,9.25,0,0,0-.32-1.92c-1-2.24-.18-3.84,1.66-5.16.58-.41,1.1-.91,1.64-1.37,3.26-2.77,6.53-5.54,9.77-8.34a3.15,3.15,0,0,0,.55-1.08l-2.8-1.92c-.17-3.6,2-6.65,1.77-10.24L594,51.8l-2.24-4c-1.64,1.86-3,3.47-4.46,5a19.91,19.91,0,0,1-2.14,2.07,1.23,1.23,0,0,1-1.91-.89,15.5,15.5,0,0,1,.18-3c.62-3.51,1.32-7,1.94-10.52a14.61,14.61,0,0,0,0-2.33c-1.15.52-2,1-2.94,1.31-1.58.6-2.39.36-3.22-1.11-1.25-2.24-2.39-4.54-3.59-6.81-.31-.58-.48-1.37-1.57-1.16-.31.54-.68,1.15-1,1.77-.86,1.64-1.68,3.3-2.56,4.94-1.63,3-1.78,3.06-4.93,1.88-.51-.19-1.05-.31-1.61-.47-.6,1.55-.11,2.93.13,4.32.49,2.81,1,5.61,1.48,8.42.21,1.32,1.13,3.08-.72,3.74-1.41.51-2.11-1.15-3-2-1.58-1.61-2.76-3.6-4.73-5.08-.36.65-.65,1.12-.89,1.61-1.12,2.31-1.27,2.41-3.49,2l-6.12-1.27c.17,3.76,2.14,6.85,1.86,10.36C547.62,61.24,546.73,61.88,545.55,62.72Z" style="fill:#da3845"/><rect x="573.23" y="73.78" width="2.59" height="16.14" style="fill:#da3845"/><path d="M701.94,189.38h-5.55v15.88H692V189.38h-5.52v-3.57h15.46Z" style="fill:#6e1520"/><path d="M738.44,205.26H726.78V185.82H738v3.57h-6.83v4.33h6.36v3.55h-6.36v4.45h7.28v3.54Z" style="fill:#6e1520"/><path d="M775.35,205.26H763.77V185.82h4.38v15.89h7.2Z" style="fill:#6e1520"/><path d="M811.84,205.26H800.18V185.82h11.21v3.57h-6.83v4.33h6.36v3.55h-6.36v4.45h7.28v3.54Z" style="fill:#6e1520"/><path d="M853.37,185.81l-6.7,19.44h-5l-6.62-19.44h4.72l4.05,13.53a9.1,9.1,0,0,1,.39,1.94h.08a10.3,10.3,0,0,1,.42-2l4-13.48Z" style="fill:#6e1520"/><path d="M883.92,185.81v3.39h-1.63v12.67h1.63v3.39h-7.63v-3.39h1.63V189.2h-1.63v-3.39Z" style="fill:#6e1520"/><path d="M908,204.51v-4.34a8.41,8.41,0,0,0,2.56,1.49,8.2,8.2,0,0,0,2.79.49,6.12,6.12,0,0,0,1.44-.15,3.63,3.63,0,0,0,1-.41,1.83,1.83,0,0,0,.62-.62,1.51,1.51,0,0,0,.2-.78,1.68,1.68,0,0,0-.33-1,3.58,3.58,0,0,0-.89-.83,9.57,9.57,0,0,0-1.33-.73c-.52-.24-1.07-.47-1.67-.72a8.55,8.55,0,0,1-3.4-2.32,5,5,0,0,1-1.12-3.31,5,5,0,0,1,2.27-4.41,7.41,7.41,0,0,1,2.43-1,12.59,12.59,0,0,1,2.93-.33,17.89,17.89,0,0,1,2.69.18,10.66,10.66,0,0,1,2.16.56v4.05a7.27,7.27,0,0,0-1.06-.6,9.34,9.34,0,0,0-1.19-.43A9,9,0,0,0,917,189a9.27,9.27,0,0,0-1.15-.08,6.32,6.32,0,0,0-1.36.14,3.36,3.36,0,0,0-1,.4,1.94,1.94,0,0,0-.65.62,1.5,1.5,0,0,0-.23.81,1.57,1.57,0,0,0,.26.88,3,3,0,0,0,.73.73,7.43,7.43,0,0,0,1.15.68c.45.22,1,.45,1.53.68a16.28,16.28,0,0,1,2.09,1,7.75,7.75,0,0,1,1.59,1.24,5,5,0,0,1,1,1.58,5.48,5.48,0,0,1,.35,2.07,5.54,5.54,0,0,1-.62,2.73A5,5,0,0,1,919,204.3a7.29,7.29,0,0,1-2.46,1,14.15,14.15,0,0,1-3,.3,16.45,16.45,0,0,1-3-.27A9,9,0,0,1,908,204.51Z" style="fill:#6e1520"/><path d="M952.72,185.81v3.39h-1.63v12.67h1.63v3.39h-7.63v-3.39h1.63V189.2h-1.63v-3.39Z" style="fill:#6e1520"/><path d="M986,205.59a9.08,9.08,0,0,1-6.81-2.72,9.72,9.72,0,0,1-2.63-7.08,10.48,10.48,0,0,1,2.67-7.46,9.24,9.24,0,0,1,7.08-2.85,8.82,8.82,0,0,1,6.73,2.73,10.07,10.07,0,0,1,2.57,7.19,10.27,10.27,0,0,1-2.67,7.39A9.14,9.14,0,0,1,986,205.59Zm.19-16.33a4.41,4.41,0,0,0-3.66,1.73,7.24,7.24,0,0,0-1.36,4.58,7,7,0,0,0,1.36,4.57,4.68,4.68,0,0,0,7.14.05,7,7,0,0,0,1.33-4.54,7.6,7.6,0,0,0-1.29-4.71A4.19,4.19,0,0,0,986.14,189.26Z" style="fill:#6e1520"/><path d="M1038.49,205.26h-4.42l-8-12.22a17.45,17.45,0,0,1-1-1.61h0c.07.69.11,1.74.11,3.15v10.68H1021V185.82h4.72l7.71,11.84c.35.53.68,1.06,1,1.59h0a21.09,21.09,0,0,1-.11-2.67V185.83h4.13v19.43Z" style="fill:#6e1520"/><path d="M987.59,68.62h-64a17,17,0,0,1-16.94-16.94V30.23a17,17,0,0,1,16.94-16.94h64a17,17,0,0,1,16.94,16.94V51.68A17,17,0,0,1,987.59,68.62Z" style="fill:#da3646"/><path d="M940.66,44H928l-2.44,11.4H914.25l6.08-28.57h11.28l-2.12,10h12.68l2.12-10h11.28l-6.08,28.57H938.21Z" style="fill:#fff"/><path d="M961.1,26.79h22c9.68,0,14,3.76,11.76,14.28-2.12,10-8.12,14.28-17.6,14.28H955Zm6.72,21.37h6.48c5.16,0,7.8-2.56,8.76-7.08S982.5,34,977.34,34h-6.48Z" style="fill:#fff"/><path d="M425.68,254.46h41V259h-5.95a26.61,26.61,0,0,1-1.54,8.56,17.74,17.74,0,0,1-3.45,5.91,13,13,0,0,1,3.71,4.63,13.5,13.5,0,0,1,1.28,5.8,13,13,0,0,1-1.28,5.92,11.44,11.44,0,0,1-3.6,4.18,16.62,16.62,0,0,1-5.48,2.5,26.72,26.72,0,0,1-6.9.85,28.93,28.93,0,0,1-8.49-1.14,24.14,24.14,0,0,1-6-2.61l2.2-4.19a38.08,38.08,0,0,0,5.07,2.21,21.94,21.94,0,0,0,7.27,1,18,18,0,0,0,4.56-.56,11.57,11.57,0,0,0,3.74-1.65,7.77,7.77,0,0,0,2.54-2.83,8.58,8.58,0,0,0,.91-4.07,8.89,8.89,0,0,0-3.3-7.2,41.92,41.92,0,0,1-5,1.06,37.84,37.84,0,0,1-5.73.41q-4.85,0-7-1a3.33,3.33,0,0,1-2.13-3.2,5.15,5.15,0,0,1,.29-1.73,7.08,7.08,0,0,1,.66-1.43h18.95a18.58,18.58,0,0,0,2.28-5.29,26,26,0,0,0,.88-6.17H425.68Z"/><path d="M444.93,308.08a26.19,26.19,0,0,1-3.79-.29,31.34,31.34,0,0,1-3.74-.81,22.49,22.49,0,0,1-3.38-1.25,11.28,11.28,0,0,1-2.68-1.69l1.76-3.23a22.92,22.92,0,0,0,5.84,2.24,26.9,26.9,0,0,0,6.28.77,25.09,25.09,0,0,0,12.12-3L459.1,304a19.94,19.94,0,0,1-5.87,2.83A26.84,26.84,0,0,1,444.93,308.08Z"/><path d="M463.88,254.46h42.24V259h-7.35v26.52q0,5.81-3.38,8.81t-9.55,3a17.38,17.38,0,0,1-6.35-1.22,18.37,18.37,0,0,1-5.62-3.41,16.63,16.63,0,0,1-4-5.29,15.46,15.46,0,0,1-1.51-6.9,9.93,9.93,0,0,1,.95-4.52,9.35,9.35,0,0,1,2.47-3.09,9.66,9.66,0,0,1,3.34-1.76,12.61,12.61,0,0,1,3.67-.55h4.48v4.7h-3.6a6.37,6.37,0,0,0-4.22,1.39A5.3,5.3,0,0,0,473.8,281a10.19,10.19,0,0,0,1.13,4.81,12.25,12.25,0,0,0,2.91,3.67,13.5,13.5,0,0,0,3.93,2.35,11.63,11.63,0,0,0,4.22.85,8.3,8.3,0,0,0,5.29-1.62c1.37-1.08,2.06-2.91,2.06-5.51V259H463.88Z"/><path d="M516,259v20.86H510.6V259h-7.42v-4.55h20.27V259Z"/><path d="M519.78,254.46h43.05V259h-6.4a19.86,19.86,0,0,1-5.8,13.08,13.28,13.28,0,0,1,4.63,4.55,12.64,12.64,0,0,1,1.69,6.69,12.34,12.34,0,0,1-1.4,5.91,13.13,13.13,0,0,1-3.82,4.41A17.53,17.53,0,0,1,546,296.4a25.42,25.42,0,0,1-7.12,1,24.61,24.61,0,0,1-6-.7,17.35,17.35,0,0,1-4.81-2,10.21,10.21,0,0,1-3.23-3,6.66,6.66,0,0,1-1.18-3.86,7,7,0,0,1,2.32-5.33,8.82,8.82,0,0,1,6.28-2.16,15.92,15.92,0,0,1,5.32.84,17.64,17.64,0,0,1,4.34,2.24,20.28,20.28,0,0,1,3.45,3.13,28.7,28.7,0,0,1,2.61,3.48,8.4,8.4,0,0,0,3.52-7.12,8.15,8.15,0,0,0-.51-2.9,9.47,9.47,0,0,0-1.36-2.46,10.59,10.59,0,0,0-1.87-1.91,7.28,7.28,0,0,0-2.13-1.18,36.08,36.08,0,0,1-9.55,1.18,19.19,19.19,0,0,1-6.43-.85,3.08,3.08,0,0,1-2.31-3,4.65,4.65,0,0,1,.25-1.54,6.2,6.2,0,0,1,.63-1.32h18.95a15.1,15.1,0,0,0,2.53-4.37A19,19,0,0,0,551,259H519.78Zm19,38.27a19.85,19.85,0,0,0,5.22-.66c-.69-.93-1.41-1.84-2.17-2.72a16.32,16.32,0,0,0-2.5-2.35,11.82,11.82,0,0,0-3-1.65,9.67,9.67,0,0,0-3.53-.63,3.63,3.63,0,0,0-2.79,1,3,3,0,0,0-.88,2.13q0,2.06,2.64,3.49A14.73,14.73,0,0,0,538.73,292.73Z"/><path d="M572,259v20.86h-5.44V259h-7.42v-4.55h20.28V259Z"/><path d="M657.51,259v20.86h-5.43V259H639.81v37.83h-5.44V273.19c-1.71,1.17-3.46,2.44-5.25,3.78l-5.77,4.37q-.66,5.45-2.38,7.83c-1.16,1.59-2.39,2.38-3.71,2.38a3.9,3.9,0,0,1-2.39-.73,3.71,3.71,0,0,1-1.36-2.13l4.7-12q-.08-3.45-.33-6.53t-.7-6.17a42.31,42.31,0,0,0-5.07,4.11c-1.66,1.57-3.28,3-4.84,4.41-.35,4.16-1.09,7.28-2.24,9.36s-2.54,3.13-4.15,3.13a3.89,3.89,0,0,1-2.39-.74,3.71,3.71,0,0,1-1.36-2.13l4.26-10.87a25.25,25.25,0,0,0-.18-2.72c-.13-1.08-.26-2.19-.41-3.34s-.3-2.28-.48-3.38-.35-2-.55-2.83h-7.71v-4.55h12.05a52.2,52.2,0,0,1,1.43,5.87q.63,3.32,1,6.39,2.58-2.19,5.62-4.7a62.87,62.87,0,0,1,5.55-4.11l4.11,1.25c.2,1,.39,2.24.59,3.63s.38,2.83.55,4.3.32,2.9.44,4.3.21,2.61.26,3.64c1.81-1.42,3.66-2.8,5.54-4.12s3.61-2.54,5.18-3.67V254.46h30.56V259Z"/><path d="M675.73,260.15a19.26,19.26,0,0,1,.88,5.62,24.93,24.93,0,0,1-1,7.57,43.54,43.54,0,0,1-2.64,6.39,10.33,10.33,0,0,0,4.22,3.56,14,14,0,0,0,6.13,1.29,15.22,15.22,0,0,0,5.51-.89,13.16,13.16,0,0,0,4-2.35V254.46H706V259h-7.78v37.83h-5.44V287a16.33,16.33,0,0,1-4.11,1.65,21.47,21.47,0,0,1-5.51.63,18.8,18.8,0,0,1-5.55-.78,19.61,19.61,0,0,1-4.63-2.05,16.9,16.9,0,0,1-3.63-3,17.33,17.33,0,0,1-2.57-3.6,63.49,63.49,0,0,0,3.08-6.68,20.23,20.23,0,0,0,1.32-7.42,17.41,17.41,0,0,0-.36-3.56,20.36,20.36,0,0,0-1-3.2h-8.3v-4.55h11.68A27.09,27.09,0,0,1,675.73,260.15Z"/><path d="M703.05,254.46h44.08V259H724.36a24.41,24.41,0,0,0,7.89,6.83,33.73,33.73,0,0,0,11,3.9l-.74,4.55a23.72,23.72,0,0,1-3.93-.66,28,28,0,0,1-3.49-1.1L733,282.59h-4.7a6.64,6.64,0,0,0-2.72-3.38,8,8,0,0,0-4.63-1.39,9.8,9.8,0,0,0-5.43,1.72,11.29,11.29,0,0,0-4,4.59,18.85,18.85,0,0,0,2.31,3,16.06,16.06,0,0,0,3.46,2.75,19.88,19.88,0,0,0,10.32,2.76,22.56,22.56,0,0,0,4.48-.41,24.2,24.2,0,0,0,3.56-1,14,14,0,0,0,2.68-1.29,19.52,19.52,0,0,0,1.84-1.28l2.79,3.75a19.79,19.79,0,0,1-2.39,1.68,19.38,19.38,0,0,1-3.38,1.62,25.35,25.35,0,0,1-4.41,1.18,31,31,0,0,1-5.39.44,26.21,26.21,0,0,1-7.2-1,23.32,23.32,0,0,1-6.14-2.68,21.13,21.13,0,0,1-4.85-4.19,19.08,19.08,0,0,1-3.26-5.47,17.19,17.19,0,0,1,2.79-5,16.32,16.32,0,0,1,3.71-3.38,15.53,15.53,0,0,1,4.18-1.95,15.37,15.37,0,0,1,4.3-.62,13.17,13.17,0,0,1,5.29,1,8.44,8.44,0,0,1,3.53,2.65l.88-6.47a38.14,38.14,0,0,1-6.72-4.33,28.25,28.25,0,0,1-6.14-7H703.05Z"/><path d="M757.05,259v20.86h-5.44V259h-7.42v-4.55h20.27V259Z"/><path d="M777.83,254.46h41V259h-6a26.61,26.61,0,0,1-1.54,8.56,17.74,17.74,0,0,1-3.45,5.91,13,13,0,0,1,3.71,4.63,13.5,13.5,0,0,1,1.28,5.8,13,13,0,0,1-1.28,5.92A11.44,11.44,0,0,1,808,294a16.62,16.62,0,0,1-5.48,2.5,26.72,26.72,0,0,1-6.9.85,28.86,28.86,0,0,1-8.48-1.14,24.23,24.23,0,0,1-6-2.61l2.2-4.19a38.08,38.08,0,0,0,5.07,2.21,21.94,21.94,0,0,0,7.27,1,18,18,0,0,0,4.56-.56,11.47,11.47,0,0,0,3.74-1.65,7.69,7.69,0,0,0,2.54-2.83,8.58,8.58,0,0,0,.92-4.07,8.82,8.82,0,0,0-1-4.37,9,9,0,0,0-2.31-2.83,42.17,42.17,0,0,1-5,1.06,38,38,0,0,1-5.73.41c-3.24,0-5.56-.33-7-1a3.33,3.33,0,0,1-2.13-3.2,5.15,5.15,0,0,1,.29-1.73,7.67,7.67,0,0,1,.66-1.43h19a18.58,18.58,0,0,0,2.28-5.29,26,26,0,0,0,.88-6.17H777.83Z"/><path d="M797.08,308.08a26,26,0,0,1-3.78-.29,31.08,31.08,0,0,1-3.75-.81,22.49,22.49,0,0,1-3.38-1.25,11.28,11.28,0,0,1-2.68-1.69l1.76-3.23a22.92,22.92,0,0,0,5.84,2.24,26.9,26.9,0,0,0,6.28.77,25.09,25.09,0,0,0,12.12-3l1.76,3.23a19.7,19.7,0,0,1-5.87,2.83A26.84,26.84,0,0,1,797.08,308.08Z"/><path d="M816,254.46h42.24V259h-7.35v26.52q0,5.81-3.38,8.81t-9.55,3a17.38,17.38,0,0,1-6.35-1.22,18.37,18.37,0,0,1-5.62-3.41,16.63,16.63,0,0,1-4-5.29,15.46,15.46,0,0,1-1.51-6.9,9.8,9.8,0,0,1,1-4.52,9.2,9.2,0,0,1,2.46-3.09,9.66,9.66,0,0,1,3.34-1.76,12.61,12.61,0,0,1,3.67-.55h4.48v4.7h-3.6a6.37,6.37,0,0,0-4.22,1.39A5.3,5.3,0,0,0,826,281a10.19,10.19,0,0,0,1.14,4.81,12.06,12.06,0,0,0,2.9,3.67,13.5,13.5,0,0,0,3.93,2.35,11.63,11.63,0,0,0,4.22.85,8.28,8.28,0,0,0,5.29-1.62c1.37-1.08,2.06-2.91,2.06-5.51V259H816Z"/><path d="M868.18,259v20.86h-5.43V259h-7.42v-4.55H875.6V259Z"/><path d="M871.93,254.46H915V259h-6.39a19.93,19.93,0,0,1-5.81,13.08,13.28,13.28,0,0,1,4.63,4.55,12.64,12.64,0,0,1,1.69,6.69,12.34,12.34,0,0,1-1.4,5.91,13.13,13.13,0,0,1-3.82,4.41,17.58,17.58,0,0,1-5.72,2.75,25.5,25.5,0,0,1-7.13,1,24.61,24.61,0,0,1-6-.7,17.48,17.48,0,0,1-4.81-2,10.21,10.21,0,0,1-3.23-3,6.66,6.66,0,0,1-1.18-3.86,7,7,0,0,1,2.32-5.33,8.82,8.82,0,0,1,6.28-2.16,15.92,15.92,0,0,1,5.32.84,17.46,17.46,0,0,1,4.34,2.24,19.91,19.91,0,0,1,3.45,3.13,28.7,28.7,0,0,1,2.61,3.48,8.34,8.34,0,0,0,3.52-7.12,8.15,8.15,0,0,0-.51-2.9,9.47,9.47,0,0,0-1.36-2.46,10.59,10.59,0,0,0-1.87-1.91,7.28,7.28,0,0,0-2.13-1.18,36.08,36.08,0,0,1-9.55,1.18,19.23,19.23,0,0,1-6.43-.85,3.08,3.08,0,0,1-2.31-3,4.65,4.65,0,0,1,.25-1.54,6.2,6.2,0,0,1,.63-1.32h19a15.1,15.1,0,0,0,2.53-4.37,19,19,0,0,0,1.29-5.55H871.93Zm19,38.27a19.85,19.85,0,0,0,5.22-.66c-.69-.93-1.41-1.84-2.17-2.72a16.32,16.32,0,0,0-2.5-2.35,11.65,11.65,0,0,0-3-1.65,9.63,9.63,0,0,0-3.53-.63,3.63,3.63,0,0,0-2.79,1,3,3,0,0,0-.88,2.13q0,2.06,2.64,3.49A14.73,14.73,0,0,0,890.88,292.73Z"/><path d="M880.16,235.87c.83-.19,1.75-.35,2.75-.48a25.2,25.2,0,0,1,3-.18,17,17,0,0,1,5.76.88,14.32,14.32,0,0,1,4.3,2.39,17.14,17.14,0,0,1,3.27,3.56,38.72,38.72,0,0,1,2.68,4.48l4.41,8.38h-5.22l-3-5.88a20.93,20.93,0,0,0-5.1-6.79,10.37,10.37,0,0,0-6.8-2.32c-.78,0-1.6,0-2.46.11s-1.7.19-2.53.33Z"/><path d="M927.61,254.46h50.83V259h-12a48.87,48.87,0,0,1-1.07,5.47,41,41,0,0,1-1.5,4.82,18.69,18.69,0,0,1,7.3,5.73,14,14,0,0,1,2.54,8.52,13,13,0,0,1-1.25,5.87,12.84,12.84,0,0,1-3.2,4.15,15,15,0,0,1-4.37,2.61,19.67,19.67,0,0,1-4.7,1.25l-1.39-4.11a14.12,14.12,0,0,0,6.94-3.57,9.08,9.08,0,0,0,2.53-6.72,8.79,8.79,0,0,0-1.87-5.51,14.31,14.31,0,0,0-4.88-4,30.67,30.67,0,0,1-4.08,5.51A24.15,24.15,0,0,1,953,283a21.36,21.36,0,0,1-5-4,31.73,31.73,0,0,1-3.89-5.18,13.58,13.58,0,0,0-4.56,3.78,9.76,9.76,0,0,0,.81,12.19,13.9,13.9,0,0,0,7.12,3.49l-1.39,4.19a17.64,17.64,0,0,1-5.11-1.21,15,15,0,0,1-4.4-2.72,12.51,12.51,0,0,1-3.09-4.22,13.88,13.88,0,0,1-1.14-5.81,14.13,14.13,0,0,1,2.35-8.11,17.94,17.94,0,0,1,7-5.84,33.64,33.64,0,0,1-1.54-4.81,47.42,47.42,0,0,1-1-5.7H927.61ZM953,277.3a24.38,24.38,0,0,0,5.29-8.08A36.36,36.36,0,0,0,960.81,259h-16.3Q945.91,270.62,953,277.3Z"/><path d="M1030.3,296.84h-5.43V259h-12.71v17.34h-11.83a17.93,17.93,0,0,0-7.71,1.72,15.64,15.64,0,0,0-6.24,5.48,17.15,17.15,0,0,0,2.42,3.38,17.9,17.9,0,0,0,3.45,2.9,17.58,17.58,0,0,0,4.41,2,18.19,18.19,0,0,0,5.29.73,15.35,15.35,0,0,0,6.21-1.1,20.84,20.84,0,0,0,3.93-2.2l2.57,3.67a16.68,16.68,0,0,1-5.18,3.05,21.08,21.08,0,0,1-7.68,1.28,25,25,0,0,1-6.46-.84,22,22,0,0,1-6-2.57,22.3,22.3,0,0,1-5.07-4.34,20.92,20.92,0,0,1-3.67-6.06,21.37,21.37,0,0,1,5.36-6.61,24.51,24.51,0,0,1,5.36-3.3,13.59,13.59,0,0,1-3.3-2.35,16.73,16.73,0,0,1-2.72-3.38,21.06,21.06,0,0,1-2-4.15,22.64,22.64,0,0,1-1.06-4.67H975.5v-4.55h49.37V247a7.15,7.15,0,0,0-1.84-5.28,6.25,6.25,0,0,0-4.63-1.84,7.89,7.89,0,0,0-2.42.37,4.94,4.94,0,0,0-2.06,1.25,6.15,6.15,0,0,0-1.39,2.27,9.65,9.65,0,0,0-.52,3.38v1.62h-5.43v-2a12.86,12.86,0,0,1,.95-5.17,9.73,9.73,0,0,1,2.61-3.57,10.72,10.72,0,0,1,3.75-2.05,14.33,14.33,0,0,1,4.44-.66,14,14,0,0,1,4.7.77,11,11,0,0,1,3.82,2.24,10.22,10.22,0,0,1,2.54,3.67,13.14,13.14,0,0,1,.91,5.07v7.42h7.79V259h-7.79Zm-23.5-25.12V259H987.7a16.23,16.23,0,0,0,1.1,4.48,14.15,14.15,0,0,0,2.39,4,13.65,13.65,0,0,0,3.52,2.94,10.13,10.13,0,0,0,4.52,1.32Z"/></g></g></svg>