<?xml version="1.0" encoding="UTF-8"?>
<svg width="1500" height="900" version="1.1" xmlns="http://www.w3.org/2000/svg">
 <path d="m927.6 84.94c9.216-10.08 12.55-18.94 12.44-31.94-0.1223-14.09-8.908-28-22-28-69.25 0-137.4-0.2995-206.1-0.2246-22.9 0.02498-45.85 0.09139-68.94 0.2246-13 0-24 15-24 28s11 28 24 28c79.18 0.1662 136-1.14 210 0l-226.1 245.8c-9.216 10.08-12.55 18.94-12.44 31.94 0.1223 14.09 8.908 28 22 28 92.33 0 187.2 0.5329 279.5 0 13 0 24-15 24-28s-11-28-24-28c-79.18-0.1662-137 1.14-211 0z"/>
 <path d="m1258 22c-52.33 0-100.3 20.44-134.6 54.46-34.29 34.02-54.9 81.62-54.9 133.5s20.61 99.62 54.9 133.6c34.29 34.02 82.27 54.36 134.6 54.36s100.3-20.44 134.6-54.46c34.29-34.02 54.9-81.62 54.9-133.5s-20.61-99.52-54.9-133.5c-34.29-34.02-82.27-54.46-134.6-54.46zm0 59c33.97 0 65.11 14.03 87.37 37.37 22.26 23.34 35.63 56.01 35.63 91.63s-13.38 68.28-35.63 91.63c-22.26 23.34-53.4 37.37-87.37 37.37s-65.11-13.96-87.37-37.3c-22.26-23.34-35.63-56.07-35.63-91.7s13.38-68.28 35.63-91.63c22.26-23.34 53.4-37.37 87.37-37.37z"/>
 <path d="m395 134.5c-4.626-2.079-6.853-4.207-9.187-8.781-2.24-4.388-5.399-14.36-6.395-20.19-1.423-8.323-4.685-21.06-6.088-23.77l-1.458-2.82 11.98 0.155c19.54 0.2528 29.8 4.979 35.47 16.34 2.118 4.247 2.981 7.687 3.366 13.4 0.7759 11.53-2.13 19.48-8.976 24.55-3.649 2.703-13.82 3.306-18.71 1.109zm-46.03 171.2c-7.242-0.5945-10.97-1.466-15.68-3.664-8.54-3.987-11.45-8.464-12.11-18.59-0.8215-12.8 3.128-19.38 14.4-23.98l5.887-2.402 52.25-0.0583 52.25-0.0583v49.53h-43.75c-24.06 4e-5 -48.02-0.3509-53.25-0.7799zm-2.237 104.2c-8.844-1.489-14.86-4.089-19.27-8.331-5.234-5.033-6.838-10.19-6.326-20.33 0.3456-6.844 0.58-7.468 4.195-11.17 2.676-2.741 5.762-4.555 10.25-6.03 6.202-2.036 8.226-2.109 58.4-2.109h51.98v49l-47.25-0.1176c-25.99-0.0647-49.38-0.4765-51.99-0.9152zm-88.21 305.3c2.25-7.958 6.804-13.24 14.92-17.32 6.253-3.137 7.249-3.5 19-3.495 10.44 5e-3 12.56 0.2928 16.12 2.191 8.325 4.444 11.75 10.61 11.86 21.3 0.0557 5.798-2.544 39.26-3.127 40.25-0.2439 0.4125-15.09 0.75-32.99 0.75h-32.55zm-1.552-192.2c0-1.805 5.096-36.7 5.604-38.38 0.4946-1.63-1.002-1.75-21.92-1.75h-22.45l-1.06 4.25c-0.973 3.902-4.576 24.09-5.888 33l-0.5527 3.75h23.13c12.72 0 23.13-0.3921 23.13-0.8714zm-203 324.7c27.22-116.1 63.31-242.1 94-360.9v-462h164l-5.848 2.541c-16.91 7.347-26.51 21.85-31.35 45.82-3.061 15.15-3.006 44.14 0.1114 58.48 7.284 33.5 23.46 50.42 52.29 54.68 4.377 0.6468 4.744 0.5312 5.282-1.661 0.3176-1.296 0.4507-13.37 0.2958-26.83l-0.2816-24.47-5-1.855c-7.391-2.741-11.41-6.28-14.32-12.6-5.246-11.39-2.643-29.39 5.376-37.16 3.354-3.251 3.951-3.449 10.42-3.449 5.943 0 7.222 0.3353 9.532 2.5 4.08 3.823 5.397 8.088 8.031 26 1.334 9.075 3.16 21 4.057 26.5 5.917 36.28 19.21 54.5 43.09 59.07 9.494 1.816 15.4 1.809 24.15-0.0321 9.167-1.928 17.12-5.788 23.21-11.27l4.953-4.454v25.19l-57.25 0.0179c-44.23 0.0138-59.36 0.3396-66.54 1.432-33.84 5.151-49.45 22.97-49.58 56.55-0.0739 19.88 5.24 32.89 19.14 46.87 4.577 4.603 8.188 8.428 8.025 8.5-17.81 7.834-27.16 23.86-27.21 46.63-0.0279 11.89 2.141 20.02 8.022 30.05 3.678 6.275 13.06 16.16 17.81 18.76 1.015 0.5561 3.321 2.1 4.125 2.612l-25.05 0.0748-0.2666 26.25-0.2666 26.25h169v16h-168.8l-0.7111 6.75c-0.3911 3.712-1.566 12.6-2.612 19.75-1.045 7.15-1.903 13.56-1.905 14.25-4e-3 0.9905 18.06 1.25 87 1.25h87v59l-46.25-0.0174c-48.9-0.0184-54.97-0.4799-63.39-4.821-5.252-2.706-9.805-7.673-12.52-13.66-2.054-4.526-2.252-6.35-2.088-19.25l0.1809-14.25h-53.68l-0.6337 3.168c-3.971 19.85 1.025 34.75 14.72 43.9 3.353 2.239 9.94 5.703 11.61 6.078l-32.38 0.356-1.288 9.5c-3.986 29.41-4.964 37.57-4.582 38.25 0.2334 0.4125 43.15 0.75 95.37 0.75l94.94 1.2e-4v126h-76.04l0.7678-11.25c0.4223-6.188 0.7678-21.82 0.7678-34.75v-23.5l-2.885-7.5c-8.229-21.39-23.69-32.79-51-37.59-10.93-1.922-33.6-2.194-42.35-0.508-3.432 0.6613-7.419 1.421-8.86 1.689-4.854 0.9008-14.86 4.663-20.4 7.671-12.69 6.89-22.28 16.18-29.64 28.72-8.143 13.87-9.146 18.35-21.49 96.02-4.461 28.06-5.872 38.71-5.872 40h257v53h-392z" fill="#0096eb"/>
 <path d="m771.5 495c-52.33 0-100.3 20.44-134.6 54.46-34.29 34.02-54.9 81.62-54.9 133.5s20.61 99.62 54.9 133.6c34.29 34.02 82.27 54.36 134.6 54.36s100.3-20.44 134.6-54.46c34.29-34.02 54.9-81.62 54.9-133.5s-20.61-99.52-54.9-133.5c-34.29-34.02-82.27-54.46-134.6-54.46zm0 59c33.97 0 65.11 14.03 87.37 37.37 22.26 23.34 35.63 56.01 35.63 91.63s-13.38 68.28-35.63 91.63c-22.26 23.34-53.4 37.37-87.37 37.37s-65.11-13.96-87.37-37.3c-22.26-23.34-35.63-56.07-35.63-91.7s13.38-68.28 35.63-91.63c22.26-23.34 53.4-37.37 87.37-37.37z"/>
 <path d="m1162 537c-16.23-23.5-14.79-29.06-44-29.06-18 0-32 13.85-32 29.06v311c0 16 14 28 32 28s32-12 32-28v-221l84 126c5.385 8.439 14.99 14 24 14s18.62-5.561 24-14l84-126v221c0 16 14 28 32 28s32-12 32-28v-311c0-15.21-14-29.06-32-29.06-29.21 0-27.77 5.568-44 29.06l-96 150z"/>
</svg>
