<?xml version="1.0" encoding="UTF-8"?>
<svg id="_Слой_1" data-name="Слой 1" xmlns="http://www.w3.org/2000/svg" width="500" height="163.11" viewBox="0 0 500 163.11">
  <defs>
    <style>
      .cls-1 {
        fill: #ff7b00;
        stroke-width: 0px;
      }
    </style>
  </defs>
  <path class="cls-1" d="M206.2,109.76c-8.6,0-12.28,5.01-12.28,20.19v33.15h21.29v-39.16c0-8.74-2.54-14.18-9.02-14.18M249.41,109.76c-10.29,0-11.28,8.01-11.28,20.03v33.31h21.29v-40.61c0-8-3.81-12.73-10.01-12.73M75.09,98.12c0-9.76-5.12-14.35-12.05-15.22l-15.71-1.98v27.81l15.71,1.34c7.05.6,12.05-2.46,12.05-11.94M319.88,135.39c-5.34,1.28-9.87,3.56-9.87,9.43s4.65,8.44,10.01,8.44c11.42,0,15.22-6.57,14.67-21.88-3.4,2.13-9.6,2.55-14.82,4.01M163.92,85.31l-17.12-2.49v-19.18l17.12,3.06v18.61ZM163.95,37.1L.02,0l-.02,163.11h22.53V54.31l43.93,7.02c15.76,2.53,29.92,13.38,29.92,37.21s-11.39,34.07-29.92,33.08l-19.13-1.01v32.5h53.61v-80.63l20.06,2.7v14.21l.25.02c2.92-9.92,10.1-13.16,18.28-12.05,1.44.18,3.92.52,3.92.52v22.77l-5.2-.48c-6.68-.65-16.65.61-16.65,15.92v37.03h25.24v-73.58l17.3,2.32v71.26h6.86v-71.23h22.22v10.17h.27c4.39-7.45,12.13-12.32,21.02-12.32s16.3,3.02,20.25,12.03c5.78-7.86,12.96-12.03,22.83-12.03,23.26,0,24.76,17.9,24.76,32.06v41.32h11.35c-4.72-3.7-7.62-9.4-7.62-17.27,0-24.19,25.91-22.31,42.55-25.76,4.09-.86,6.34-2.3,6.34-6.86,0-5.59-6.62-7.73-11.56-7.73-6.62,0-10.84,3-11.98,9.29h-22.42c.43-9.72,4.95-16.03,11.42-19.89,6.48-3.71,14.93-5.16,23.25-5.16,15.3,0,30.14,3.03,33.42,18.18V37.1h-193.16Z"/>
  <g>
    <path class="cls-1" d="M396.44,78.93c.35,7.41,4.85,9.79,11.91,9.79,4.94,0,10.06-1.76,10.06-6.44,0-5.65-9-6.62-18.08-9.17-8.91-2.56-18.44-6.53-18.44-18.17,0-13.76,13.85-19.14,25.67-19.14,12.44,0,25.23,6.17,25.23,20.29h-16.41c.26-5.65-5.2-7.59-10.14-7.59-3.53,0-7.94,1.23-7.94,5.38,0,4.94,9.09,5.73,18.26,8.29,9.09,2.56,18.26,6.79,18.26,18.17,0,15.97-13.58,21.08-27.43,21.08s-27.34-6.35-27.34-22.49h16.41Z"/>
    <path class="cls-1" d="M439.58,37.12h16.41v24.17l20.73-24.17h20.38l-23.29,24.79,26.2,38.19h-20.38l-16.94-26.46-6.7,7.06v19.41h-16.41v-62.98Z"/>
  </g>
</svg>