<svg xmlns="http://www.w3.org/2000/svg" viewBox="0 0 507.04 100"><defs><style>.cls-1{fill:#405cfc;}</style></defs><g id="Layer_2" data-name="Layer 2"><g id="Layer_1-2" data-name="Layer 1"><path class="cls-1" d="M0,1.89H43.32c25.59,0,43.05,11.41,43.05,34.24v.28C86.37,59.65,68.63,72,42.64,72H32.18V98.16H0ZM40.85,49.06c8.25,0,13.75-3.71,13.75-10.59V38.2c0-7-5.09-10.59-13.61-10.59H32.18V49.06Z"/><path class="cls-1" d="M93.25,1.89h47c17.05,0,27.92,4.26,34.66,11,5.77,5.78,8.8,12.93,8.8,22.83V36c0,14-7.29,23.79-19,29.43l22.42,32.73H150.46l-18.15-27.5h-6.88v27.5H93.25Zm46.08,45.8c7.7,0,12.37-3.44,12.37-9.36v-.27c0-6.19-4.81-9.22-12.24-9.22h-14V47.69Z"/><path class="cls-1" d="M237.24,0a50,50,0,1,0,50,50A50,50,0,0,0,237.24,0Zm0,71.82A21.82,21.82,0,1,1,259.06,50,21.82,21.82,0,0,1,237.24,71.82Z"/><circle class="cls-1" cx="318.51" cy="50.02" r="19.2"/><path class="cls-1" d="M337.75,1.89h75.56V19.78H385.92V98.24H364.87V19.78H337.75Z"/><path class="cls-1" d="M453.23,98.24l-34-96.35H441.8L463.14,70.3,484.47,1.89H507L472.91,98.24Z"/></g></g></svg>