<?xml version="1.0" encoding="UTF-8"?><svg id="Layer_2" xmlns="http://www.w3.org/2000/svg" viewBox="0 0 612.97 304.85"><defs><style>.cls-1{fill:#000;}.cls-1,.cls-2,.cls-3{stroke-width:0px;}.cls-2{fill:#f7941d;}.cls-3{fill:#231f20;}</style></defs><g id="Layer_1-2"><path class="cls-3" d="m73.35,195.09h539.62v90c0,10.91-8.86,19.77-19.77,19.77H73.35v-109.76h0Z"/><path class="cls-1" d="m444.51,0C438.24,0,432.64,3.92,430.5,9.81l-43.38,119.19-3.91,10.75-3.92-10.75-43.38-119.19C333.77,3.92,328.17,0,321.9,0h-15.91C303.4,0,301.6,2.57,302.49,5l53.28,146.41c1.61,4.42,5.81,7.36,10.51,7.36h33.86c4.7,0,8.9-2.94,10.51-7.36L463.92,5C464.81,2.57,463.01,0,460.42,0h-15.91Z"/><path class="cls-1" d="m283.76,22.36c0-12.35-10.01-22.36-22.36-22.36h-66.57c-12.35,0-22.36,10.01-22.36,22.36v114.04c0,12.35,10.01,22.36,22.36,22.36h7.4V37.22c0-4.12,3.34-7.45,7.45-7.45h74.08v-7.4Z"/><path class="cls-1" d="m491.29,22.36v7.4h91.91v22.33h-95.19c-12.35,0-22.36,10.01-22.36,22.36v61.94c0,12.35,10.01,22.36,22.36,22.36h102.59c12.35,0,22.36-10.01,22.36-22.36V22.36C612.97,10.01,602.95,0,590.6,0h-76.95c-12.35,0-22.36,10.01-22.36,22.36Zm91.91,107.08h-87.78v-41.8c0-4.12,3.34-7.45,7.45-7.45h80.33v49.26Z"/><path class="cls-1" d="m0,22.36v186.88c0,12.35,10.01,22.36,22.36,22.36h7.4v-72.85h94.56c12.35,0,22.36-10.01,22.36-22.36V22.36C146.69,10.01,136.68,0,124.33,0H22.36C10.01,0,0,10.01,0,22.36Zm116.92,106.63H29.77V37.22c0-4.12,3.34-7.45,7.45-7.45h79.7v99.23Z"/><path class="cls-2" d="m437.2,213.79v75.1h-14.4v-44.54h-.21l-16.47,32.94h-7.04l-16.47-32.94h-.21v44.54h-14.4v-75.1h14.92l19.58,42.99h.21l19.58-42.99h14.92Z"/><path class="cls-2" d="m470.77,288.89h-16.06l22.27-75.1h18.03l22.27,75.1h-16.26l-4.04-15.75h-22.27l-3.94,15.75Zm6.84-27.56h16.47l-8.18-32.73h-.21l-8.08,32.73Z"/><path class="cls-2" d="m548.77,250.46l-18.85-36.67h17.3l11.81,27.56h.21l11.71-27.56h17.2l-18.75,37.4,19.27,37.71h-17.2l-12.53-28.18h-.21l-12.02,28.18h-17.2l19.27-38.43Z"/></g></svg>