<?xml version="1.0" encoding="UTF-8"?> <!-- Generator: Adobe Illustrator 25.0.1, SVG Export Plug-In . SVG Version: 6.00 Build 0) --> <svg xmlns="http://www.w3.org/2000/svg" xmlns:xlink="http://www.w3.org/1999/xlink" version="1.1" id="Livello_1" x="0px" y="0px" viewBox="0 0 300 300" style="enable-background:new 0 0 300 300;" xml:space="preserve"> <style type="text/css"> .st0{fill:#FFFFFF;} .st1{fill:#004D7B;} .st2{fill:#F5333F;} </style> <g id="Livello_2_1_"> <g id="Livello_1-2"> <path class="st0" d="M205.4,11.6H64c-26.3,0-47.6,21.3-47.6,47.6v141.5c0,26.3,21.3,47.6,47.6,47.6h141.5 c26.3,0,47.6-21.3,47.6-47.6V59.2C253,32.9,231.7,11.6,205.4,11.6z"></path> <path class="st1" d="M34.5,127.2V64.8c0-19.3,15.7-35,35-35h130.3c19.3,0,35,15.7,35,35v62.4h8.8V64.8c0-24.2-19.6-43.8-43.8-43.8 H69.6c-24.2,0-43.8,19.6-43.8,43.8v62.4H34.5z"></path> <path class="st2" d="M234.9,132.7v62.4c0,19.3-15.7,35-35,35H69.6c-19.3,0-35-15.7-35-35v-62.4h-8.8v62.4 c0,24.2,19.6,43.8,43.8,43.8h130.3c24.2,0,43.8-19.6,43.8-43.9v-62.4H234.9z"></path> <path class="st1" d="M62.7,127.6V66.4h19.7c3.6,0,6.4,0.5,8.3,1.5c2.1,1.3,3.8,3.2,4.7,5.6c1.3,3.2,1.9,6.5,1.8,9.9 c0.1,3-0.4,6-1.4,8.8c-0.8,2.3-2,4.3-3.7,6c-1.2,1.1-2.6,1.9-4.2,2.4c1.1,0.6,2.2,1.3,3.1,2.3c0.7,1,1.4,2.1,1.9,3.2 c0.6,1.2,1.2,2.5,1.7,3.8l5.7,17.8H86.8l-6.3-18.7c-0.4-1.7-1.2-3.3-2.1-4.7c-0.7-0.9-1.8-1.4-2.9-1.4h-1v24.9H62.7z M74.5,91.2h5 c1.1-0.1,2.1-0.4,3.1-0.8c0.9-0.3,1.6-1,1.9-1.9c0.5-1.1,0.8-2.3,0.7-3.6c0.1-1.6-0.3-3.2-1.2-4.6c-0.8-1.1-2.2-1.6-4.4-1.6h-5.2 V91.2z"></path> <path class="st1" d="M108.6,97.6l-10.1-1.7c0.2-2.3,0.8-4.6,1.7-6.7c0.7-1.6,1.8-3.1,3.1-4.2c1.2-1,2.5-1.6,4-2 c1.8-0.5,3.6-0.7,5.5-0.7c2.6-0.1,5.1,0.2,7.6,0.9c2,0.6,3.7,1.9,4.8,3.6c1.1,1.6,1.8,3.4,2.1,5.3c0.5,2.2,0.8,4.4,0.8,6.6v19.6 c0,1.6,0.1,3.3,0.2,4.9c0.2,1.5,0.6,3.1,1.1,4.5h-9.9c-0.3-0.9-0.6-1.7-0.8-2.6c-0.1-0.6-0.2-1.5-0.4-2.8 c-1.1,1.8-2.5,3.4-4.1,4.6c-1.9,1.2-4.2,1.9-6.5,1.8c-3,0.2-5.8-1.2-7.5-3.7c-1.8-2.7-2.7-5.9-2.6-9.1c-0.1-2.9,0.5-5.7,1.8-8.3 c1.2-2.2,3.5-3.8,6.8-4.9c4-1.3,6.6-2.2,7.7-2.7c1.3-0.6,2.5-1.2,3.7-2c0.1-1.5-0.2-3-0.8-4.4c-0.7-0.9-1.7-1.4-2.8-1.2 c-1.4-0.1-2.8,0.4-3.9,1.3C109.4,94.8,108.8,96.2,108.6,97.6 M117.8,106.6c-1.5,0.8-3,1.6-4.6,2.2c-2.1,0.9-3.5,1.8-4.1,2.7 c-1.2,2-1.2,4.4,0,6.4c0.6,0.8,1.5,1.3,2.6,1.3c1.2,0,2.4-0.5,3.3-1.4c1-0.9,1.7-2.1,2.2-3.4c0.5-1.7,0.7-3.4,0.6-5.2L117.8,106.6 z"></path> <path class="st1" d="M159.3,66.4v61.3h-9.9v-6.6c-0.9,2.1-2.2,4-3.8,5.6c-1.4,1.2-3.2,1.9-5.1,1.9c-3.8,0-6.6-2.3-8.6-6.9 c-2-4.6-3-10.2-3-16.8c0-7.3,1.1-13,3.3-16.9s5-5.9,8.3-5.8c1.6,0,3.2,0.4,4.6,1.3c1.5,1,2.7,2.4,3.6,4V66.4H159.3z M148.7,105.4 c0-3.5-0.4-6.1-1.4-7.8s-2.1-2.6-3.5-2.6c-1.2,0-2.3,0.8-3.1,2.5c-0.8,1.6-1.2,4.4-1.2,8.3c0,3.6,0.4,6.3,1.3,8 c0.9,1.7,1.9,2.5,3.2,2.5c1.3,0,2.5-0.8,3.4-2.6S148.7,109.2,148.7,105.4"></path> <path class="st1" d="M161.9,66.4h10.6v11.6h-10.6V66.4z M161.9,83.2h10.6v44.4h-10.6V83.2z"></path> <path class="st1" d="M174.9,105.3c0-6.8,1.4-12.3,4.3-16.7s6.7-6.6,11.5-6.6c5.5,0,9.7,2.6,12.5,7.7c2.3,4.1,3.4,9.3,3.4,15.3 c0,6.8-1.4,12.4-4.2,16.8c-2.4,4.1-6.9,6.6-11.7,6.5c-4.3,0.1-8.3-1.9-10.8-5.4C176.6,118.4,174.9,112.6,174.9,105.3 M185.5,105.3 c0,4,0.5,6.9,1.5,8.8s2.2,2.8,3.8,2.8s2.8-0.9,3.8-2.8s1.5-4.9,1.5-9c0-3.8-0.5-6.7-1.5-8.6s-2.2-2.8-3.7-2.8s-2.8,1-3.8,2.9 S185.5,101.4,185.5,105.3"></path> <polygon class="st2" points="62.8,132.6 77.9,132.6 83.7,169.1 89.5,132.6 104.5,132.6 104.5,192.5 95.1,192.5 95.1,146.8 87.9,192.5 79.4,192.5 72.2,146.8 72.2,192.5 62.8,192.5 "></polygon> <path class="st2" d="M116.4,163.2l-9.8-1.7c0.2-2.2,0.8-4.5,1.6-6.6c0.7-1.6,1.7-3,3-4.1c1.1-1,2.5-1.6,3.9-2 c1.8-0.5,3.6-0.7,5.4-0.7c2.5-0.1,5,0.2,7.4,0.8c1.9,0.6,3.6,1.8,4.7,3.5c1,1.6,1.7,3.4,2.1,5.2c0.5,2.1,0.7,4.3,0.8,6.4v19.2 c0,1.6,0.1,3.2,0.2,4.8c0.2,1.5,0.6,3,1.1,4.4H127c-0.3-0.8-0.6-1.7-0.8-2.6c-0.1-0.6-0.2-1.5-0.3-2.8c-1,1.8-2.4,3.3-4,4.5 c-1.9,1.2-4.1,1.8-6.4,1.8c-2.9,0.2-5.7-1.2-7.3-3.6c-1.7-2.6-2.6-5.7-2.5-8.9c-0.1-2.8,0.5-5.6,1.8-8.1c1.2-2.1,3.4-3.7,6.6-4.7 c3.9-1.2,6.4-2.1,7.5-2.6c1.3-0.6,2.5-1.2,3.7-2c0.1-1.5-0.2-3-0.8-4.3c-0.6-0.9-1.7-1.3-2.8-1.2c-1.4-0.1-2.8,0.4-3.8,1.3 C117.2,160.4,116.6,161.7,116.4,163.2 M125.4,171.9c-1.4,0.8-2.9,1.5-4.4,2.2c-2.1,0.9-3.4,1.8-4,2.6c-1.1,1.9-1.1,4.3,0,6.3 c0.6,0.8,1.5,1.3,2.5,1.2c1.2,0,2.3-0.5,3.2-1.4c1-0.9,1.7-2,2.1-3.3c0.5-1.6,0.7-3.3,0.6-5L125.4,171.9z"></path> <path class="st2" d="M206.7,174.9h-20.4c0,2.1,0.5,4.1,1.3,6c1,1.9,2.3,2.8,3.9,2.8c1.1,0,2.1-0.5,2.9-1.2 c0.7-0.8,1.3-1.7,1.8-2.7l10,1.5c-1.5,4.4-3.4,7.5-5.6,9.4c-2.2,1.9-5.3,2.8-9.3,2.8c-3.5,0-6.3-0.8-8.3-2.4c-2.3-2.1-4-4.8-5-7.7 c-1.4-4-2.1-8.2-2-12.4c0-6.8,1.3-12.3,4-16.5c2.7-4.2,6.3-6.3,11-6.3c3.8,0,6.8,0.9,9,2.8c2.4,2.2,4.1,5,5,8.2 c1.3,4.5,1.9,9.2,1.7,13.9L206.7,174.9z M196.4,166.9c-0.2-3.2-0.7-5.5-1.6-6.9c-0.7-1.3-2-2.1-3.4-2.1c-1.6,0-2.9,1-3.9,3.1 c-0.7,1.9-1.1,3.8-1.2,5.8L196.4,166.9z"></path> <path class="st2" d="M176.4,180.7c-1,0.6-2.1,0.9-3.2,1.1c-0.8,0-1.6-0.6-1.8-1.4c-0.3-1.2-0.4-2.4-0.3-3.7v-15.4h5.7v-12.2h-5.7 v-16.5l-10.3,8.5v8H157v12.2h3.8v15.3c-0.1,3.5,0.2,7.1,0.9,10.5c0.4,1.8,1.3,3.5,2.7,4.8c1.2,1.1,3.1,1.6,5.7,1.6 c2.4,0,4.8-0.5,7.1-1.4L176.4,180.7z"></path> <path class="st2" d="M154.6,148.2c-0.2,0-0.5,0-0.7,0c-1.4,0-2.8,0.6-3.7,1.7c-1.4,1.9-2.3,4.1-2.9,6.4v-7.1h-9.6v43.4h10.4V178 c0-6.9,0.5-11.7,1.6-14.2c0.7-1.8,1.8-2.7,3.1-2.7c0.6,0.1,1.2,0.2,1.8,0.6V148.2z"></path> <path class="st0" d="M195.9,288.4c-4.5,0-13.1-3.5-16.8-9.7c-2.3-3.8-3.6-10.3,3.4-30.4c3-8.3,6.3-16.5,10.1-24.5 c-19.4,6.7-22,12.8-22.3,14.2c-0.9,4.1-4.6,7-8.8,7c-3.8,0-7.2-2.3-9.8-6.4c-2.8-4.5-4.5-11.7-1.2-18.2 c7.5-14.8,41.8-23.5,53-26.4c23.4-6,49.9-10,65.9-10c2.6,0,5.2,0.1,7.8,0.4c2.4,0.3,4.6,1.6,6,3.6c1,0.3,2,0.6,2.9,1.1l0.2,0.1 c6.1,2.6,10.1,9.1,9,14.5c-0.8,4.1-4.3,7-8.4,7c-1.4,0-2.8-0.4-4.1-1c-0.2,0-0.5,0-0.8,0c-4.9,1.6-18.6,21-32.9,58 c-1.4,3.5-4.8,5.8-8.5,5.7c-0.4,0-0.7,0-1.1-0.1c-0.4,0-0.8,0-1.2,0c-6.7,0-13.8-4.2-18-10.6c-2.1-3.3-3.9-8.5,2.9-29.5 c2.1-6.3,4.4-12.5,7.1-18.5c-1.7,0.3-3.5,0.6-5.2,0.9c-14.6,26-21.8,53.6-21.3,60c1.4,2.5,1.4,5.5,0.2,8 C202.5,286.6,199.4,288.5,195.9,288.4z"></path> <path class="st2" d="M283.1,196.7c-1.6-0.8-3.4-1.1-5.1-0.9c-0.5-1.7-1.4-3.2-1.8-3.2c-23.5-3-109.2,13.6-118.3,31.5 c-3.4,6.6,3.4,15,4.2,11.8c3-11.7,23.6-19.9,46.5-25.4c-15.6,28.5-25.8,58.3-22.4,63.9c2.7,4.6,11.7,7,10.2,5 c-4.1-5.4,6.5-42.6,23.4-71.2c16.1-3.1,32.4-5.3,48.8-6.5c-7.4,7.5-17.8,23.7-32,58.1c-1.7-9.7,6.8-30.7,11.8-41.8 c0.8-1.8-6.5-6.1-8.1-4.2c-3.7,4.5-16.4,39.2-13,44.3c3.1,4.8,8.5,7.5,12.5,6.7c0.8,0.2,1.5,0.2,1.6-0.2 c10.8-28,28.4-63.3,40.4-63.3c4.6,0,4.3,1,5.2,1S286.8,198.3,283.1,196.7z"></path> </g> </g> </svg> 