<svg id="Layer_2" data-name="Layer 2" xmlns="http://www.w3.org/2000/svg" viewBox="0 0 1000 999"><defs><style>.cls-1{fill:red;}.cls-2,.cls-3{fill-rule:evenodd;}.cls-3{fill:#fff;}</style></defs><rect y="553.07" width="1000" height="35.64"/><path d="M1000,219.26C1000,98.72,901.62,1,780.26,1H219.75C98.38,1,0,98.72,0,219.26V613H1000Z" transform="translate(0 -1)"/><path d="M0,781.74C0,902.28,98.38,1000,219.75,1000H780.26C901.62,1000,1000,902.28,1000,781.74V612.47H0Z" transform="translate(0 -1)"/><line class="cls-1" x1="1000" y1="611.47" x2="1000" y2="588.71"/><line class="cls-1" y1="588.71" y2="611.47"/><g id="Layer_2-2" data-name="Layer 2"><path class="cls-1" d="M869.4,440.84c82.47-82.46,80.82-217.71-3.57-302.37-84.39-84.39-219.91-86-302.38-3.58S482.64,352.6,567,437.27C651.42,521.66,786.94,523.31,869.4,440.84Z" transform="translate(0 -1)"/><polygon class="cls-2" points="506 250.17 678.63 187.22 851.53 124.27 819.65 305.42 787.76 486.57 723.16 268.31 506 250.17"/><path class="cls-3" d="M525.79,828.18A42.62,42.62,0,0,1,509,824.89a31.84,31.84,0,0,1-12.09-9.35,37.06,37.06,0,0,1-6.87-14,39.25,39.25,0,0,1-.28-17,53.24,53.24,0,0,1,6.32-17.05,64,64,0,0,1,11.82-13.74,50.7,50.7,0,0,1,15.67-9.35,48.73,48.73,0,0,1,17.6-3.3c12.09,0,21.44,4.4,28.58,12.92l18.42-15.66A55.54,55.54,0,0,0,569.77,724a58,58,0,0,0-24.46-5.22A69.81,69.81,0,0,0,518.65,724,83.58,83.58,0,0,0,495,738.3a89.08,89.08,0,0,0-17.86,21.16,77.2,77.2,0,0,0-9.62,25H374.05L376,773.76l5.77-33h65.7l3.85-22H363.61l-11.55,65.7h-44a52,52,0,0,0,9.9-21.72c2.2-12.09-.28-22.26-7.42-30.79s-16.5-12.92-28.59-12.92H216.54L205,784.75H111.54L119.23,741h65.7l3.85-22H101.09L78,850.73H99.72L107.41,807h93.46l-7.69,43.71h21.71l7.7-43.71H259.7l17.59,43.71h25.29L285.27,807h63.22l-7.7,43.71h87.69l3.85-22h-65.7L370.48,807h97.31a17.07,17.07,0,0,0,.83,3.57,59.56,59.56,0,0,0,10.44,20.89,55.54,55.54,0,0,0,18.42,14.3A60.33,60.33,0,0,0,522.22,851a67.52,67.52,0,0,0,26.39-5.22,83.67,83.67,0,0,0,23.64-14.3l-12.92-15.39C548.88,824.06,537.89,828.18,525.79,828.18ZM234.41,740.5h44a17.94,17.94,0,0,1,14.3,6.32c3.57,4.4,4.67,9.34,3.85,15.39a27.06,27.06,0,0,1-9.08,15.67,25.62,25.62,0,0,1-14.56,6.32H227Z" transform="translate(0 -1)"/><path class="cls-3" d="M645.37,828.18a42.59,42.59,0,0,1-16.77-3.29,31.77,31.77,0,0,1-12.09-9.35,37.23,37.23,0,0,1-6.88-14,39.42,39.42,0,0,1-.27-17,53.24,53.24,0,0,1,6.32-17.05,63.7,63.7,0,0,1,11.82-13.74,50.58,50.58,0,0,1,15.67-9.35,48.64,48.64,0,0,1,17.59-3.3c12.1,0,21.44,4.4,28.59,12.92l18.42-15.66A55.54,55.54,0,0,0,689.35,724a58.08,58.08,0,0,0-24.46-5.22A69.86,69.86,0,0,0,638.22,724a83.67,83.67,0,0,0-23.64,14.3,89.12,89.12,0,0,0-17.87,21.16,73.11,73.11,0,0,0-9.62,25.29,61.31,61.31,0,0,0,.55,25.57,59.66,59.66,0,0,0,10.45,20.89,55.38,55.38,0,0,0,18.42,14.29,60.29,60.29,0,0,0,24.74,5.23,67.3,67.3,0,0,0,26.38-5.23,83.36,83.36,0,0,0,23.64-14.29l-12.91-15.4Q663.51,828.19,645.37,828.18Z" transform="translate(0 -1)"/><path class="cls-3" d="M754.77,850.18h24.47l15.12-22h60.47l7.15,22h24.47L843.84,718.5Zm54.43-43.71,26.12-38.76L848,806.47Z" transform="translate(0 -1)"/><path class="cls-3" d="M340.24,641.81h37.11L395,685.52h25.29l-18.7-47.28a55.9,55.9,0,0,0,22-15.67,49.84,49.84,0,0,0,12.1-24.74c2.2-12.1-.28-22.27-7.42-30.79s-16.5-12.92-28.59-12.92h-65.7L310.83,685.79h21.72Zm11.55-66h44a17.94,17.94,0,0,1,14.29,6.32c3.58,4.4,4.68,9.35,3.85,15.39a27,27,0,0,1-9.07,15.67,23.92,23.92,0,0,1-16.49,6.32l-44-.27Z" transform="translate(0 -1)"/><path class="cls-3" d="M477.41,663.53h60.48l7.14,22H569.5L526.89,553.85,437.83,685.52h24.46Zm40.69-60.48,12.64,38.76H492Z" transform="translate(0 -1)"/><path class="cls-3" d="M656.91,680.29A85.88,85.88,0,0,0,680.55,666a88,88,0,0,0,17.87-21.17,73.46,73.46,0,0,0,9.9-25.29,55.64,55.64,0,0,0-.83-25.29,51.6,51.6,0,0,0-10.44-20.89,52.92,52.92,0,0,0-18.42-14.29,55,55,0,0,0-24.46-5.22H610.46L587.37,685.52h43.7A66.62,66.62,0,0,0,656.91,680.29ZM627.78,575.84h22a38.9,38.9,0,0,1,16.22,3.3,32.82,32.82,0,0,1,12.37,9.62,33.56,33.56,0,0,1,6.87,14,42.87,42.87,0,0,1,.55,16.76,51.42,51.42,0,0,1-6.33,16.77,63.37,63.37,0,0,1-11.82,14,52.34,52.34,0,0,1-15.39,9.35,48.64,48.64,0,0,1-17.59,3.3h-22Z" transform="translate(0 -1)"/><polygon class="cls-3" points="779.24 552.85 757.52 552.85 725.64 734 725.64 734 705.57 849.17 727.28 849.17 750.38 717.5 750.38 717.5 779.24 552.85"/><path class="cls-3" d="M915.86,573.36c-10.45-12.92-24.74-19.24-43.16-19.24s-34.91,6.32-49.75,19.24c-15.12,12.92-24.47,28.32-27.49,46.46-3.3,18.14.55,33.81,11.27,46.46,10.44,12.92,24.74,19.24,43.16,19.24,18.14,0,34.91-6.32,49.75-19.24,15.12-12.65,24.47-28,27.76-46.46C930.43,601.68,926.58,586.28,915.86,573.36Zm-11,46.46c-2.2,12.09-8.24,22.27-18.41,31.06-10.18,8.52-21.17,12.65-33.27,12.65s-21.71-4.13-28.86-12.65c-6.87-8.79-9.35-19-7.15-31.06s8.25-22.27,18.15-30.79c10.17-8.52,21.44-12.92,33.26-12.92S890,580.51,897.17,589C904.59,597.28,907.06,607.72,904.86,619.82Z" transform="translate(0 -1)"/></g></svg>