<svg version="1.1" id="weiß_-_weiß" xmlns="http://www.w3.org/2000/svg" xmlns:xlink="http://www.w3.org/1999/xlink" x="0px"	 y="0px" viewBox="0 0 530 80" enable-background="new 0 0 530 80" xml:space="preserve"><path fill="#c0341c" d="M100,68.8h4.5v-25c0-7.3,3.3-10.4,10.4-10.4v-4.8c-4.4,0-7.7,1.2-10.6,6.8h-0.2c-0.1-1.6-0.2-4-0.3-6.3h-4.2	c0.1,4.1,0.3,8.2,0.3,12.3V68.8z"/><path fill="#c0341c" d="M144.1,41.7c0-2.9,0-13.1-12.2-13.1c-4.4,0-7.2,1.5-10.9,3.5l0.7,4.8c0.5-0.4,4.7-4.1,9.9-4.1	c8.2,0,8.2,7.2,8.2,12.1H137c-5.7,0-19.1,0.2-19.1,12.9c0,6.4,4.9,11.5,11,11.5c5.1,0,8.4-1.9,11.1-6.2h0.2l0.3,5.7h4	c-0.2-3-0.5-5.9-0.5-8.9V41.7z M139.9,53.5c0,10.8-7.8,11.7-9.9,11.7c-4.8,0-7.3-4-7.3-7.3c0-9,7.8-9,17.2-9V53.5z"/><path fill="#c0341c" d="M181,10.5h-4.5v23.8h-0.2c-2-3.7-5-5.7-10-5.7c-9.9,0-13.1,11.3-13.1,18.9c0,5.5,0.5,21.8,13.4,21.8	c5,0,7.5-2.3,10.4-6h0.2v5.4h4.2c-0.2-3.4-0.3-6.9-0.3-13.1V10.5z M158,49c0-9.2,2.3-16.2,9.1-16.2c9.7,0,9.7,11.3,9.7,16.6	c0,8.1-2.1,15.7-9.8,15.7C158,65.1,158,52.2,158,49"/><path fill="#c0341c" d="M192.4,68.8h4.5V29.1h-4.5V68.8z M192,20.4h5.4v-7H192V20.4z"/><path fill="#c0341c" d="M221.4,65.1c-10,0-10-13-10-16.2c0-3.2,0-16.2,10-16.2c10,0,10,13,10,16.2C231.4,52.1,231.4,65.1,221.4,65.1	 M221.4,69.3c11.6,0,14.8-10.4,14.8-20.4c0-10-3.3-20.4-14.8-20.4c-11.6,0-14.8,10.4-14.8,20.4C206.6,58.9,209.8,69.3,221.4,69.3"/><path fill="#c0341c" d="M245.5,10.5v51.5c0,2.9-0.1,5.4-0.3,6.8h9c0.2-1.2,0.3-3.5,0.3-6.2h0.2c1.5,3.4,4.4,6.8,10.6,6.8	c9.9,0,14.1-9.5,14.1-20.6c0-13.1-5.2-20.7-13.8-20.7c-5.8,0-8.9,3.3-10.3,6.4h-0.2v-24H245.5z M255.1,48.7	c-1.6-7.9,1.2-13.5,7.5-13.4c5.4,0,7.2,5.2,7.2,13.2c0,9.2-1.5,13.9-7.1,13.9C257.1,62.3,255.1,56.2,255.1,48.7"/><path fill="#c0341c" d="M288.2,68.8h9.6V46.9c0-7.5,4.4-9.9,8.3-9.9c1,0,1.9,0.2,2.7,0.4v-9c-0.5-0.1-1-0.2-1.6-0.2	c-6,0-9,4.8-10.2,7.9h-0.2c0-2.4-0.2-4.9-0.3-7.3h-8.7c0.2,1.8,0.3,4.1,0.3,6.6V68.8z"/><path fill="#c0341c" d="M342.6,59.2c-1.8,1.3-4.6,3.1-10.5,3.1c-7.5,0-10.2-4.1-10.2-11H345v-1.9c0-16.3-7.4-21.4-16-21.4	c-10.2,0-16.5,9.3-16.5,21.2c0,10.8,5.6,20.1,18.5,20.1c5.8,0,9.9-1.7,12-2.6L342.6,59.2z M321.9,45.3c0-5.3,2.1-10.6,7.1-10.6	c4.4,0,6.7,3.6,6.7,10.6H321.9z"/><path fill="#c0341c" d="M353.8,68.8h9.6V44.5c0-4.4,2.3-8.5,6.5-8.5c3.6,0,5.1,2.5,5.1,7.5v25.3h9.6V44.5c0-4.4,2.3-8.5,6.5-8.5	c3.6,0,5.1,2.5,5.1,7.5v25.3h9.6V44.1c0-9.7-2.8-15.9-11.5-15.9c-5.9,0-8.8,3.6-10.7,6.4c-1.2-2.2-3.3-6.4-10.1-6.4	c-5.5,0-8.6,3.8-10.1,6.9h-0.2c0-2.1-0.2-4.2-0.3-6.3h-9.6c0.2,1.5,0.3,3.7,0.3,6.5V68.8z"/><path fill="#c0341c" d="M444.2,59.2c-1.8,1.3-4.6,3.1-10.5,3.1c-7.5,0-10.2-4.1-10.2-11h23.2v-1.9c0-16.3-7.4-21.4-16-21.4	c-10.2,0-16.5,9.3-16.5,21.2c0,10.8,5.6,20.1,18.5,20.1c5.8,0,10-1.7,12-2.6L444.2,59.2z M423.6,45.3c0-5.3,2.1-10.6,7.1-10.6	c4.4,0,6.7,3.6,6.7,10.6H423.6z"/><path fill="#c0341c" d="M455.8,68.8h9.6V45.5c0-5.1,1.8-9.4,6.8-9.4c4,0,5.5,2.6,5.5,8.7v24h9.6V43c0-8.1-2.7-14.8-11.8-14.8	c-6.5,0-9.3,4.4-10.7,6.8h0.1h-0.2c0-2-0.2-4.1-0.3-6.1h-9c0.2,1.8,0.3,4.1,0.3,6.6V68.8z"/><path fill="#c0341c" d="M512,3.2c9.9,0,18,8,18,18c0,9.9-8,18-18,18c-9.9,0-18-8-18-18C494,11.3,502.1,3.2,512,3.2 M512,5.9	c-8.5,0-15.3,6.9-15.3,15.3c0,8.5,6.9,15.3,15.3,15.3c8.5,0,15.3-6.9,15.3-15.3C527.4,12.7,520.5,5.9,512,5.9 M519.2,28.5v-18	L501.1,17v4.5l6-2.2v13.5L519.2,28.5z"/><path fill="#c0341c" d="M39.9,0C62,0,79.9,17.9,79.9,39.9c0,22.1-17.9,40-39.9,40C17.9,79.9,0,62,0,39.9C0,17.9,17.9,0,39.9,0	 M39.9,10.7c-16.2,0-29.3,13.1-29.3,29.3c0,14.4,10.3,26.3,23.9,28.8V39.9h10.7v28.8c13.6-2.5,23.9-14.4,23.9-28.8	C69.2,23.8,56.1,10.7,39.9,10.7"/></svg>