<svg width="85" height="30" viewBox="0 0 85 30" fill="none" xmlns="http://www.w3.org/2000/svg">
    <path fill-rule="evenodd" clip-rule="evenodd" d="M30.256 30H0V0h30.256v30zM6.841 14.427h-.298v-2.929h.298c1.006 0 2.138.187 2.138 1.465 0 1.277-1.132 1.464-2.138 1.464zm2.64 6.482h3.835l-3.724-4.814c1.682-.296 2.593-1.699 2.593-3.32 0-2.508-1.776-3.614-4.117-3.614H3.463V20.91h3.08v-4.518h.032l2.907 4.518zm8.139-2.196c-1.163 0-1.839-.78-1.839-1.792 0-.982.676-1.808 1.839-1.808 1.163 0 1.838.826 1.838 1.808 0 1.012-.675 1.792-1.838 1.792zm1.744 2.196h2.86v-7.993h-2.86v.78c-.598-.702-1.572-1.045-2.5-1.045-2.388 0-4.038 1.964-4.038 4.254 0 2.29 1.681 4.269 4.07 4.269.943 0 1.933-.358 2.436-1.153h.032v.888zm7.365 0h-2.86v-7.993h2.86v7.992zm-1.43-9.474c.88 0 1.602-.716 1.602-1.589s-.722-1.59-1.602-1.59c-.88 0-1.604.717-1.604 1.59 0 .873.724 1.59 1.604 1.59zm13.084 7.14h-1.008v-6.343l2.738 8.803h1.83l2.687-8.686v6.225h-1.008v2.46h4.819v-2.46h-1.159V11.58h1.159V9.135h-5.206l-2.2 7.766-2.165-7.766h-5.288v2.444h1.157v6.995h-1.157v2.46h4.801v-2.46zm17.572-2.143c0 1.271-.957 2.275-2.131 2.275-1.177 0-2.15-1.004-2.15-2.275 0-1.29.973-2.277 2.15-2.277 1.191 0 2.131.988 2.131 2.277zm-2.133-4.838c-1.343 0-2.586.503-3.51 1.406-.922.904-1.41 2.092-1.41 3.432 0 1.338.487 2.527 1.41 3.43.924.904 2.167 1.39 3.51 1.39 1.344 0 2.569-.486 3.493-1.39.924-.903 1.41-2.092 1.41-3.43 0-1.356-.486-2.528-1.41-3.432a4.936 4.936 0 0 0-3.492-1.406zm10.062 2.662v-2.41h4.215v2.41h-.806l-2.585 6.778h-2.67l-2.552-6.778h-.806v-2.41h4.264v2.41h-.722l1.176 3.598 1.208-3.598h-.722zm8.656-2.912h-2.603V9.136h2.603v2.208zm-3.728 2.913h1.125v4.35H68.78v2.428h4.919v-2.428H72.54v-6.76h-3.728v2.41zM80.66 15.51c-.27-1.005-1.008-1.555-2.066-1.555-.974 0-1.746.568-2.048 1.555h4.114zm-2.066 5.741c-1.411 0-2.552-.435-3.51-1.39-.94-.92-1.41-2.09-1.41-3.43 0-1.34.488-2.528 1.41-3.43.924-.905 2.166-1.406 3.51-1.406 1.697 0 3.207.803 4.115 2.142.536.786.788 1.673.788 2.694 0 .335-.034.685-.084 1.037h-6.8c.218.803.99 1.356 1.98 1.356.522 0 .957-.167 1.378-.518h3.174c-.824 1.874-2.52 2.945-4.551 2.945z" fill="#A70051"/>
</svg>
