<svg xmlns="http://www.w3.org/2000/svg" width="104" height="24" viewBox="0 0 104 24">
    <g fill="none" fill-rule="evenodd">
        <g>
            <g>
                <g>
                    <path d="M0 0H104V24H0z" transform="translate(-216 -126) translate(48 86) translate(168 40)"/>
                    <g>
                        <path fill="#FFF" d="M0 0H24V24H0z" transform="translate(-216 -126) translate(48 86) translate(168 40)"/>
                        <path fill="#E61C23" d="M24 0v24H0V0h24zm15.081 9.224c.757 0 1.343.261 1.8.784l.121.15v-.705h2.924v1.976h-.772v3.33h.772v1.99h-2.924v-.624c-.473.555-1.164.854-2.002.854-2.03 0-3.668-1.774-3.668-3.844 0-2.166 1.718-3.91 3.75-3.91zm23.728 0c2.152 0 3.884 1.719 3.884 3.856 0 2.139-1.732 3.899-3.884 3.899s-3.885-1.747-3.885-3.884c0-2.139 1.733-3.87 3.885-3.87zM52.657 7.085v7.674h.784v1.99h-2.923v-.772c-.473.608-1.124.92-2.017.92-1.88 0-3.68-1.638-3.68-3.842 0-2.18 1.8-3.75 3.627-3.75.725 0 1.362.246 1.91.698l.16.141v-1.07h-.785V7.086h2.924zm4.684 2.369v5.305h.758v1.99h-3.68v-1.99h.77v-3.33h-.77V9.454h2.922zM30.823 7.086c2.328 0 3.56 1.488 3.56 3.397 0 1.358-.707 2.508-1.87 2.83l-.16.038 1.19 1.408h.974v1.99h-2.504l-2.422-3.533v1.543h.596v1.99h-3.91v-1.99h.932v-5.67h-.933V7.085h4.547zm43.884-.163c1.855 0 3.276 1.42 3.276 3.221 0 1.172-.588 2.032-1.695 3.01l-.214.185-1.69 1.42h1.46v-.691h2.045v2.68h-6.456v-1.99l3.574-3.39c.357-.35.662-.72.662-1.196 0-.543-.447-1.003-1.028-1.003-.507 0-.976.353-1.06 1.082l-.011.162h-2.259c.135-2.326 1.651-3.49 3.396-3.49zM13.15 9.936c-.896 0-1.606.303-2.132.907l-.12.143c-.472.593-.857 1.394-.857 2.358 0 1.008.328 1.705.852 2.32.524.613 1.499 1.052 2.35 1.052.393 0 .643-.073.887-.18l.246-.116c.34-.167.621-.363.846-.735v.787h2.21v-6.343h-2.21v.694c-.241-.362-.482-.479-.817-.651-.336-.173-.785-.236-1.255-.236zm7.947.208h-2.247v6.341h2.247v-6.341zM5.377 7.174H2.196v9.3h2.42V12.86l2.319 3.613h3.001l-2.9-3.796c.675-.144 1.183-.462 1.535-.914.353-.451.517-.995.517-1.71 0-1.02-.359-1.78-.968-2.25-.61-.472-1.232-.628-2.743-.628zm33.907 4.162c-.975 0-1.774.796-1.774 1.784 0 .976.786 1.747 1.76 1.747.96 0 1.746-.799 1.746-1.787 0-.961-.772-1.744-1.732-1.744zm9.53 0c-.976 0-1.774.796-1.774 1.772 0 .96.798 1.759 1.76 1.759.988 0 1.773-.826 1.773-1.812 0-.948-.785-1.719-1.76-1.719zm13.995 0c-.946 0-1.705.796-1.705 1.759 0 .96.759 1.772 1.705 1.772.947 0 1.706-.812 1.706-1.772 0-.976-.759-1.759-1.706-1.759zm-49.01.53c.398 0 .85.157 1.082.437.233.28.364.53.364 1.031 0 .47-.067.665-.304.95-.238.289-.743.47-1.132.47-.418 0-.842-.215-1.084-.496-.244-.281-.327-.476-.327-.957 0-.49.101-.699.35-.984.249-.286.646-.45 1.051-.45zM30.62 9.21h-1.03v2.816h.746c1.07 0 1.624-.596 1.624-1.435 0-.675-.348-1.303-1.179-1.375l-.16-.006zM5.1 8.997c.55 0 .854.099 1.085.299.23.199.367.447.367.905 0 .406-.127.671-.38.864-.222.17-.5.264-.923.285l-.19.005h-.442V8.997h.483zM57.34 7.085v1.99H55.19v-1.99h2.152zM19.97 6.444c-.344 0-.64.125-.888.372l-.098.11c-.183.225-.274.484-.274.78 0 .343.126.645.375.9.25.258.545.385.885.385.344 0 .642-.127.89-.382.248-.253.372-.556.372-.904 0-.352-.123-.65-.37-.894-.245-.244-.542-.367-.892-.367z" transform="translate(-216 -126) translate(48 86) translate(168 40)"/>
                    </g>
                    <path d="M0 0H104V24H0z" transform="translate(-216 -126) translate(48 86) translate(168 40)"/>
                </g>
            </g>
        </g>
    </g>
</svg>
