<svg height="228.360324" viewBox="0 0 1000 521.13623" width="437.904441" xmlns="http://www.w3.org/2000/svg"><path d="m530.17944 216.91507v-216.91507h42.5973v216.91507z"/><path d="m416.18004 220.63603c-12.7021 0-24.2264-3.59844-34.221-10.25523-9.7873-6.65682-16.8914-15.33768-22.7221-27.61116-5.6223-12.2735-8.6689-27.11801-8.6689-43.55199 0-4.0305.1738-8.66731.7094-13.66621 1.5486-14.45188 6.674-32.72045 18.2646-46.53352 3.7123-4.42418 7.9388-8.37912 12.7282-11.569 9.9955-6.86485 21.2401-10.23859 33.7339-10.23859 30.6258 0 45.5717 18.27649 49.9744 29.27289l4.6862-1.24816c-1.6664-4.78458-2.7529-8.321-3.3773-10.60927-.4167-2.28829-.625-5.30465-.625-9.04908v-4.68056h42.6145v156.01889h-42.6733v-3.12038c0-6.24076 1.6213-13.84601 4.0611-20.59449l-4.6862-1.56016c-5.0544 12.62399-20.7169 28.99602-49.7985 28.99602zm16.066-31.80438c10.5652 0 18.078-3.58274 23.4104-8.93304 11.4918-11.53052 12.8207-30.78026 12.8207-40.68096 0-15.38465-3.3134-33.49866-15.3427-43.35538-5.1934-4.25538-12.0113-6.88273-20.8884-6.88273h-1.2284c-11.8694 0-21.2342 4.57654-27.2725 13.72963-6.0387 9.15312-8.9994 21.32261-8.9994 36.50848 0 15.18582 3.0194 27.25127 9.0581 36.19635 6.0383 8.9451 15.3444 13.41765 27.2138 13.41765z"/><path d="m258.60204 57.16279c15.4233 0 28.8661 3.38517 40.3283 10.03828 17.114 9.62227 26.7933 25.55512 31.4937 41.01631 3.4023 11.19115 4.1843 21.77716 4.1843 30.40053v8.67337h-111.1378v1.61813c.8181 23.24334 14.5656 40.54235 36.3826 40.54235h1.2497c22.8683 0 30.4442-17.65928 32.5323-24.9491h41.8524c-3.1397 14.44246-9.7192 26.4092-19.6013 35.90023-7.1565 6.87332-15.5126 11.7277-24.3183 14.95555-10.1484 3.72003-21.4088 5.26468-31.0891 5.26468-16.2565 0-30.1944-3.31152-42.2832-9.96462-13.828-7.98359-22.5519-18.42163-28.2943-30.24075-6.2931-12.95246-8.6859-27.36562-8.6859-41.17608 0-8.02835.8083-15.67012 2.3067-22.74861 4.4654-21.09311 15.0389-33.99512 22.7243-40.916 4.1697-3.75484 8.5538-6.73825 12.9556-9.11573 5.38-2.90585 10.7862-4.90656 15.8593-6.30426 7.2222-1.98987 14.9913-2.99428 23.5407-2.99428zm33.6661 64.24423c-.8148-9.95015-4.1671-18.36354-9.4107-24.47171-6.1284-7.1391-14.0725-10.76897-23.747-10.76897h-1.8753c-9.5875 0-17.4752 3.43052-23.3111 10.29153-5.8349 6.65311-8.9345 14.96949-9.7686 24.94915z"/><path d="m97.73066 9.37395c8.01958 0 15.70858.66277 22.60298 1.98836 9.4605 1.81875 18.0214 4.88527 25.2893 9.19954 9.0109 5.34944 14.798 11.99748 18.497 18.76261 7.4821 13.68223 9.4653 34.83281.3767 52.12227-3.9365 7.28151-9.2755 12.995-15.9067 17.36387-6.6302 4.1609-13.6664 6.50786-21.3327 6.92388v5.04628c3.6275.15317 7.0906.46993 10.365 1.08349 10.4146 1.95143 15.6776 6.67143 18.001 9.05649 6.5566 6.73147 10.2282 17.13579 10.2281 32.92481 0 21.42845 4.2008 38.59192 12.4884 51.49053v1.56034h-45.7149c-1.985-4.3687-3.6323-9.17499-4.8854-14.41899-2.1495-8.99041-3.2067-19.26713-3.2067-30.83026 0-12.74802-2.7261-21.54529-8.3805-27.12149-5.9065-5.82389-15.02181-8.14176-27.37814-8.14176h-46.16549v80.5125h-42.60853v-207.52247zm-5.08353 95.23789c10.77444 0 19.18171-2.65891 24.77591-7.86003 5.8018-5.20108 8.6462-13.00263 8.6462-23.40477 0-12.41937-4.3512-21.03323-12.9725-25.72978-5.2433-2.85616-12.06555-4.22834-20.44961-4.22834h-50.03852v61.22292z"/><g fill="#b738ff"><path d="m133.91834 344.51098v-85.73708h43.2169v207.25646h-43.2169v-86.38963h-90.67862v86.38963h-43.23972v-207.25646h43.23972v85.73708z"/><path d="m222.68294 244.19961c-13.3096 0-24.2514 10.29538-24.2514 23.34471 0 13.04956 10.8081 23.34587 24.2514 23.34587 13.7741 0 23.8824-10.85027 23.8824-23.34587 0-12.4957-10.2758-23.34471-23.8824-23.34471zm-21.5393 65.99932v155.83163h42.65v-155.83163z"/><path d="m306.31694 413.63978c.8295 8.50954 4.1608 15.03423 9.7598 19.80772 5.599 4.56614 12.857 6.96638 21.7739 6.96638 7.4654 0 13.6864-1.43922 18.6633-4.55253 4.9769-3.11336 7.4654-7.58906 7.4654-13.19311 0-4.57975-1.3609-9.7191-9.2256-14.03599-3.3712-1.85039-7.9374-3.45376-14.1036-4.95478l-30.1723-7.4721c-19.3679-4.80981-31.9443-13.5355-37.7024-26.00234-2.4453-5.29435-3.7268-11.2203-3.7268-17.89482 0-13.18143 6.3386-25.00986 18.7809-33.31193 12.6496-8.30208 28.5583-12.45323 47.8437-12.45323 12.1491 0 23.6866 2.08109 33.782 6.24445 9.2112 3.79873 17.222 9.33476 23.4016 16.52785 7.0709 8.23042 11.6853 18.62784 12.7745 31.08753h-42.2158c-1.3085-17.46194-14.8446-25.55848-28.6755-25.55848-8.0886 0-15.1018 1.91852-19.4391 6.02965-2.7517 2.60823-4.5706 6.13389-4.5706 10.50013 0 8.30207 5.9011 13.78217 19.655 16.84107l30.7944 7.44241c12.6003 3.04423 22.7811 7.5657 30.1012 13.2704 10.1483 7.9088 15.0019 18.22723 15.0019 31.24944 0 15.56659-6.4911 27.85743-18.3523 36.30816-12.2349 8.7171-28.9281 13.1932-50.0799 13.1932-21.5665 0-39.368-5.4367-52.2572-15.3136-13.2718-10.17003-20.8651-23.92807-22.7071-40.72548z"/><path d="m515.02354 465.60156c-7.4715 1.87-15.358 2.805-23.6596 2.805-16.6212 0-28.3926-4.6434-36.3845-12.5186-10.347-10.19576-14.359-26.15409-14.359-43.77549v-71.371h-23.3482v-30.54301h23.3482v-45.19128h42.6495v45.19128h29.8857v30.54301h-29.8857v70.43604c0 14.86104 4.7988 20.88153 17.122 20.88153 5.396 0 10.2732-.62333 14.6316-1.86999z"/><path d="m601.27684 306.51723c15.3523 0 28.9863 3.16172 41.0191 9.60284 12.2403 6.44106 21.7837 15.79096 28.6299 28.04975 6.8463 12.25879 10.3281 26.69921 10.3281 43.32125 0 16.62211-3.4232 31.1664-10.2695 43.63295-4.5892 8.35665-10.3904 15.40619-17.4033 21.14874-10.0115 8.1979-27.0101 17.4389-52.3043 17.4389-19.8783 0-38.1424-5.7203-52.2304-17.1746-12.3744-10.06093-20.098-23.85178-23.8611-36.67692-3.0275-10.31808-3.8857-20.33156-3.8857-28.36907 0-21.32868 5.7993-38.68345 15.639-51.78219 6.6271-8.82211 15.1188-15.74559 24.7853-20.53164 11.5684-5.7277 24.7097-8.66001 39.5529-8.66001zm1.2854 131.77506c9.5543 0 17.4124-3.97274 22.6595-9.7552 6.1416-6.76813 9.414-16.0155 10.8357-24.27397 1.1715-6.80522 1.318-12.93893 1.318-16.46041 0-13.78082-2.6362-33.51406-16.1869-43.89617-4.7251-3.6202-11.1846-5.97002-18.5676-5.97002h-2.1784c-6.9103 0-12.6219 1.74932-17.2204 4.68885-7.1591 4.57635-11.7626 11.91963-14.5764 20.15298-2.8137 8.23335-3.8377 17.35665-3.8377 25.02412 0 7.12367.8371 16.45256 3.7343 25.15042 2.8973 8.69793 7.8546 16.76501 15.8604 21.36554 4.3468 2.4979 9.6141 3.97386 15.9812 3.97386z"/><path d="m799.33024 353.77272c-5.8112-1.24666-11.4147-1.86999-16.8107-1.86999-6.6879 0-18.7884 1.12946-28.2633 8.60672-6.5197 5.14511-11.925 13.97555-11.925 27.91659v77.60432h-42.6201v-155.8319h41.5984l.0587 5.60992c.0435 4.15526-.3704 7.99935-.993 11.53158-.6227 3.53216-1.7642 7.85023-3.4245 12.83681l4.8459 1.18792c2.1949-6.1738 5.5179-12.36391 8.8986-16.58648 5.8603-7.31957 13.7995-12.48921 26.6691-14.51771 4.1551-.65497 8.8463-.99706 14.1832-.99706l7.7827.31169z"/><path d="m927.96014 310.19846h43.4957l-61.9218 168.8887c-10.2568 28.0408-25.4852 42.0491-54.4793 42.0491-7.4714 0-15.7538-.7725-24.8856-2.4347v-33.9714c6.8488 1.87 12.8483 2.805 18.0369 2.805 7.4065 0 15.8423-2.2051 18.6785-13.0899l4.4194-15.5832-61.9751-148.6636h44.4807l23.0369 61.08608c5.8112 14.75211 10.4808 31.78973 14.009 51.11285h4.7285c1.4735-8.06403 3.1338-16.10482 5.0861-24.12237 2.1724-8.92176 4.6336-17.81471 7.3663-26.67884z"/><path d="m976.11764 469.72996c-13.4435 0-24.2519-10.2962-24.2519-23.34576 0-13.04939 10.9422-23.34575 24.2519-23.34575 13.6065 0 23.88236 10.85003 23.88236 23.34575 0 12.49556-10.10826 23.34576-23.88236 23.34576z"/></g></svg>