<?xml version="1.0" encoding="UTF-8" standalone="no"?>
<!-- Generator: Adobe Illustrator 26.3.1, SVG Export Plug-In . SVG Version: 6.00 Build 0)  -->

<svg
   xmlns:dc="http://purl.org/dc/elements/1.1/"
   xmlns:cc="http://creativecommons.org/ns#"
   xmlns:rdf="http://www.w3.org/1999/02/22-rdf-syntax-ns#"
   xmlns:svg="http://www.w3.org/2000/svg"
   xmlns="http://www.w3.org/2000/svg"
   xmlns:sodipodi="http://sodipodi.sourceforge.net/DTD/sodipodi-0.dtd"
   xmlns:inkscape="http://www.inkscape.org/namespaces/inkscape"
   version="1.1"
   id="Capa_1"
   x="0px"
   y="0px"
   viewBox="0 0 409.54599 153.04588"
   xml:space="preserve"
   sodipodi:docname="Record News 2022.svg"
   width="409.54599"
   height="153.04588"
   inkscape:version="0.92.4 (5da689c313, 2019-01-14)"><metadata
   id="metadata852"><rdf:RDF><cc:Work
       rdf:about=""><dc:format>image/svg+xml</dc:format><dc:type
         rdf:resource="http://purl.org/dc/dcmitype/StillImage" /><dc:title></dc:title></cc:Work></rdf:RDF></metadata><defs
   id="defs850" /><sodipodi:namedview
   pagecolor="#ffffff"
   bordercolor="#666666"
   borderopacity="1"
   objecttolerance="10"
   gridtolerance="10"
   guidetolerance="10"
   inkscape:pageopacity="0"
   inkscape:pageshadow="2"
   inkscape:window-width="1366"
   inkscape:window-height="705"
   id="namedview848"
   showgrid="false"
   fit-margin-top="0"
   fit-margin-left="0"
   fit-margin-right="0"
   fit-margin-bottom="0"
   inkscape:zoom="1.4618056"
   inkscape:cx="121.49196"
   inkscape:cy="91.178786"
   inkscape:window-x="-8"
   inkscape:window-y="-8"
   inkscape:window-maximized="1"
   inkscape:current-layer="Capa_1" />
<style
   type="text/css"
   id="style815">
	.st0{fill:#005AFF;}
</style>
<g
   id="g845"
   transform="translate(-83.254019,-67.498386)">
	<path
   class="st0"
   d="m 288.2,106.4 c 0,-8.1 -6.5,-14.6 -14.6,-14.6 H 252 v 43.3 h 9.5 v -13.6 l 13.6,13.6 h 12.7 L 273.6,121 c 8.1,0 14.6,-6.5 14.6,-14.6 z m -15.7,-6.1 c 3.5,0 6.3,2.8 6.3,6.3 0,3.5 -2.8,6.3 -6.3,6.3 h -11 v -12.6 z"
   id="path817"
   inkscape:connector-curvature="0"
   style="fill:#005aff" />
	<path
   class="st0"
   d="m 449.1,106.4 c 0,-8.1 -6.5,-14.6 -14.6,-14.6 h -21.6 v 43.3 h 9.5 v -13.6 l 13.6,13.6 h 12.7 L 434.5,121 c 8.1,0 14.6,-6.5 14.6,-14.6 z m -15.8,-6.1 c 3.5,0 6.3,2.8 6.3,6.3 0,3.5 -2.8,6.3 -6.3,6.3 h -11 v -12.6 z"
   id="path819"
   inkscape:connector-curvature="0"
   style="fill:#005aff" />
	<polygon
   class="st0"
   points="292.4,91.8 292.4,135.1 325.1,135.1 325.1,126.8 301.8,126.8 301.8,117.5 322.4,117.5 322.4,109.1 301.8,109.1 301.8,100.1 325.1,100.1 325.1,91.8 "
   id="polygon821"
   style="fill:#005aff" />
	<path
   class="st0"
   d="m 387.5,90.7 c -12.7,0 -22.9,10.2 -22.9,22.8 0,12.6 10.3,22.8 22.9,22.8 12.7,0 22.9,-10.2 22.9,-22.8 0.1,-12.6 -10.2,-22.8 -22.9,-22.8 z m 0,36.6 c -7.3,0 -13.3,-6.2 -13.3,-13.7 0,-7.5 5.9,-13.7 13.3,-13.7 7.3,0 13.3,6.2 13.3,13.7 0,7.5 -5.9,13.7 -13.3,13.7 z"
   id="path823"
   inkscape:connector-curvature="0"
   style="fill:#005aff" />
	<path
   class="st0"
   d="m 359.8,122 c -2.5,3.2 -6.4,5.3 -10.7,5.3 -7.5,0 -13.6,-6.2 -13.6,-13.7 0,-7.5 6.1,-13.7 13.6,-13.7 4.2,0 8,1.9 10.5,5 l 5.8,-7 c -4.2,-4.4 -10.1,-7.1 -16.6,-7.1 -12.7,0 -22.9,10.2 -22.9,22.8 0,12.6 10.3,22.8 22.9,22.8 7,0 13.2,-3.1 17.4,-8 z"
   id="path825"
   inkscape:connector-curvature="0"
   style="fill:#005aff" />
	<path
   class="st0"
   d="m 471.2,91.8 h -18.1 v 43.3 h 18.1 c 12,0 21.6,-9.7 21.6,-21.6 0,-11.9 -9.7,-21.7 -21.6,-21.7 z m -1,34.9 h -7.7 v -26.2 h 7.7 c 7.2,0 13.1,5.9 13.1,13.1 0,7.2 -5.8,13.1 -13.1,13.1 z"
   id="path827"
   inkscape:connector-curvature="0"
   style="fill:#005aff" />
	<path
   class="st0"
   d="m 314.2,143 v 54.2 h 54.2 V 143 Z m 39.2,43 h -24.2 v -31.8 h 24 v 6.2 h -17 v 6.4 h 15 v 6.2 h -15 v 6.7 h 17.2 z"
   id="path829"
   inkscape:connector-curvature="0"
   style="fill:#005aff" />
	<path
   class="st0"
   d="m 438.6,143 v 54.2 h 54.2 V 143 Z m 39.8,33.7 c 0,6.4 -4.9,10 -11.8,10 -4.9,0 -9.8,-1.7 -13.6,-5.1 l 4.2,-5 c 2.9,2.4 5.9,3.9 9.6,3.9 2.9,0 4.6,-1.1 4.6,-3 v -0.1 c 0,-1.8 -1.1,-2.7 -6.5,-4.1 -6.5,-1.7 -10.6,-3.4 -10.6,-9.8 v -0.1 c 0,-5.8 4.7,-9.7 11.2,-9.7 4.7,0 8.7,1.5 11.9,4.1 l -3.7,5.3 c -2.8,-2 -5.6,-3.2 -8.4,-3.2 -2.7,0 -4.1,1.2 -4.1,2.8 v 0.1 c 0,2.1 1.4,2.8 6.9,4.2 6.6,1.7 10.3,4 10.3,9.7 z"
   id="path831"
   inkscape:connector-curvature="0"
   style="fill:#005aff" />
	<path
   class="st0"
   d="m 376.4,143 v 54.2 h 54.2 V 143 Z m 43.7,13.2 -6.5,29.9 h -6.3 l -3.8,-15.8 -3.8,15.8 h -6.3 l -6.5,-29.9 -0.5,-1.9 v 0 h 5.1 1.9 l 3.2,14.6 3.5,-14.6 h 3.3 v 0 h 3.3 l 3.5,14.6 3.2,-14.6 h 1.9 5.1 v 0 z"
   id="path833"
   inkscape:connector-curvature="0"
   style="fill:#005aff" />
	<path
   class="st0"
   d="m 252,143 v 54.2 h 54.2 V 143 Z m 41.2,43 h -5.9 L 271.9,165.8 V 186 H 265 v -31.8 h 6.4 l 14.9,19.6 v -19.6 h 6.9 z"
   id="path835"
   inkscape:connector-curvature="0"
   style="fill:#005aff" />
	<path
   class="st0"
   d="m 107.5,87.6 c 0,0 17.4,-19.9 51.2,-20.1 30.7,-0.2 57.6,18.2 70.4,45.6 0,0 3,7.8 -2.3,15 -5.3,7.2 -11.5,5.9 -19.2,-2.9 C 199.8,116.3 189.5,103.8 169.1,93 148.7,82.3 120.5,77.8 107.5,87.6"
   id="path837"
   inkscape:connector-curvature="0"
   style="fill:#005aff" />
	<path
   class="st0"
   d="m 100,97.7 c 0,0 3.6,-4.1 13.8,-3.9 10.2,0.3 9.3,10.1 6.9,17.4 -1.2,3.7 -8.6,25.5 -8.6,43 0,22.5 7.2,53.5 27.8,64.3 0,0 -54.6,-11.9 -56.6,-72.5 -0.1,0.1 -1.2,-26.5 16.7,-48.3"
   id="path839"
   inkscape:connector-curvature="0"
   style="fill:#005aff" />
	<path
   class="st0"
   d="m 234.1,125.4 c 1,8.1 -1.1,28.3 -38.7,55.5 0,0 -18.8,14.2 -44.4,16.1 -19.3,1.4 -16.6,11.2 -12.9,16.2 4.5,6.3 21.6,10.5 42.9,4.3 21.6,-6.3 36.5,-18.9 45.5,-35.1 13.2,-24 9.7,-47.9 7.6,-57"
   id="path841"
   inkscape:connector-curvature="0"
   style="fill:#005aff" />
	<path
   class="st0"
   d="m 109.6,90.4 c 1.3,-0.1 2.7,-0.2 4.3,-0.1 5.4,0.1 8.3,2.6 9.7,4.6 3.5,5 2.2,12.2 0.4,17.5 l -0.1,0.4 c -5.4,16.2 -8.3,30.9 -8.3,41.5 0,12.3 2.1,24.9 5.9,35.3 2.7,7.4 6.3,13.6 10.5,18.3 -0.3,-2.1 0,-4.2 0.8,-6.1 2.3,-4.9 8.3,-7.7 17.8,-8.4 24.3,-1.8 42.4,-15.2 42.6,-15.4 0,0 0,0 0.1,0 32.1,-23.2 37.2,-40.8 37.4,-49.3 -0.3,0.5 -0.7,1 -1,1.5 -2.9,3.9 -6.2,6 -9.9,6.1 -0.2,0 -0.3,0 -0.5,0 -4.5,0 -9.1,-2.8 -14.4,-8.8 l -1.2,-1.3 c -7.4,-8.5 -17.5,-20.1 -36.3,-30 C 149,86.4 121.6,81.4 109.6,90.4 Z"
   id="path843"
   inkscape:connector-curvature="0"
   style="fill:#005aff" />
</g>
</svg>