<?xml version="1.0" encoding="UTF-8"?> <!-- Generator: Adobe Illustrator 25.4.1, SVG Export Plug-In . SVG Version: 6.00 Build 0) --> <svg xmlns="http://www.w3.org/2000/svg" xmlns:xlink="http://www.w3.org/1999/xlink" version="1.2" id="Layer_1" x="0px" y="0px" width="154px" height="64.5px" viewBox="0 0 154 64.5" overflow="visible" xml:space="preserve"> <g> <g> <path fill="#5864ac" d="M10.3,8.5c0,0,7.3-8.4,21.6-8.5c12.8,0,24.4,7.6,29.7,19.2c0.7,2.1,0.3,4.5-1,6.3 c-2.3,3.1-4.8,2.5-8.1-1.2s-7.6-9-16.2-13.6C27.6,6.2,15.7,4.3,10.3,8.5"></path> <path fill="#5864ac" d="M7.1,12.7c0,0,1.5-1.7,5.8-1.6s3.9,4.3,2.9,7.3c-0.5,1.5-3.6,10.8-3.6,18.1c0,9.5,3,22.5,11.7,27.1 c0,0-23-5-23.9-30.6C0,25.7,2.5,18.5,7.1,12.7"></path> <path fill="#5864ac" d="M9.5,11.2c0,0,1.5-3.8,10.1-3.7s16,4.1,21,7.5c3.6,2.6,6.9,5.7,9.7,9.2c0,0,3.4,4.7,6.9,4.3s4.5-4.3,4.7-6 c0.4,1,0.6,2.1,0.5,3.2c-0.1,1.7-0.6,4.5-3.4,8.9S45.5,50.8,29.9,53.2c0,0-5,0.4-6.8,1.8c-1.2,0.9-3.1,2.4-0.1,6.7 c0,0-9.4-6.4-9.6-24.9c0.1-5.4,1.1-10.8,3-15.8c3.4-9.3-1.6-10-1.6-10C13,10.6,11.2,10.7,9.5,11.2"></path> <path fill="#5864ac" d="M63.6,24.4c0.4,3.4-0.5,11.9-16.3,23.4c-5.6,3.8-12,6.2-18.7,6.8c-8.1,0.6-7,4.7-5.5,6.8 c1.9,2.6,9.1,4.4,18.1,1.8c9.1-2.7,15.4-8,19.2-14.8C64.3,41.1,65.5,32.5,63.6,24.4"></path> </g> <g> <rect x="79.6" y="34.7" fill="#5864ac" width="65.9" height="1"></rect> <g> <path fill="#5864ac" d="M83.9,50.9v-9.5c0-0.3,0.3-0.6,0.6-0.6h6.7c0.3,0,0.6,0.2,0.6,0.6c0,0.3-0.2,0.6-0.6,0.6l0,0h-6v3.7h5.4 c0.3,0,0.5,0.2,0.6,0.6c0,0.3-0.2,0.6-0.5,0.6c0,0,0,0,0,0h-5.4v3.7h6.1c0.3,0,0.6,0.2,0.6,0.6c0,0.3-0.2,0.6-0.6,0.6h-6.7 C84.2,51.5,83.9,51.2,83.9,50.9z"></path> <path fill="#5864ac" d="M92.8,47v-5.7c0-0.3,0.2-0.6,0.6-0.6c0.3,0,0.6,0.2,0.6,0.6c0,0,0,0,0,0.1v5.6c0,2.3,1.2,3.6,3.3,3.6 c2,0,3.2-1.2,3.2-3.5v-5.7c0-0.3,0.3-0.6,0.6-0.6s0.6,0.3,0.6,0.6v5.6c0,3.1-1.8,4.7-4.5,4.7C94.6,51.7,92.8,50,92.8,47z"></path> <path fill="#5864ac" d="M103.3,41.4c0-0.3,0.3-0.6,0.6-0.6h4c1.1-0.1,2.2,0.3,3,1.1c0.5,0.6,0.8,1.3,0.8,2.1v0 c0,1.6-1.2,3-2.9,3.1l2.7,3.4c0.1,0.1,0.2,0.3,0.2,0.4c0,0.3-0.3,0.6-0.6,0.6c-0.2,0-0.4-0.1-0.6-0.3l-3-3.9h-3.1V51 c0,0.3-0.2,0.6-0.6,0.6s-0.6-0.2-0.6-0.6c0,0,0,0,0-0.1L103.3,41.4z M107.8,46.3c1.6,0,2.8-0.8,2.8-2.2v0c0-1.3-1-2.1-2.7-2.1 h-3.3v4.3H107.8z"></path> <path fill="#5864ac" d="M112.7,46.2L112.7,46.2c0-3,2.4-5.5,5.4-5.5c3,0,5.5,2.4,5.5,5.4l0,0v0c0,3-2.4,5.5-5.4,5.5 C115.1,51.6,112.7,49.2,112.7,46.2z M122.4,46.2L122.4,46.2c0.1-2.4-1.7-4.4-4.1-4.4c0,0-0.1,0-0.1,0c-2.3,0-4.2,1.9-4.2,4.2 c0,0.1,0,0.1,0,0.2v0c-0.1,2.3,1.7,4.3,4.1,4.4c0,0,0.1,0,0.1,0c2.3,0,4.2-1.9,4.2-4.2C122.4,46.3,122.4,46.2,122.4,46.2z"></path> <path fill="#5864ac" d="M124.9,41.4c0-0.3,0.3-0.6,0.6-0.6h3.4c2.4,0,4,1.3,4,3.4v0c0,2.3-1.9,3.5-4.2,3.5h-2.6V51 c0,0.3-0.2,0.6-0.6,0.6c-0.3,0-0.6-0.2-0.6-0.6c0,0,0,0,0-0.1L124.9,41.4z M128.8,46.6c1.8,0,2.9-0.9,2.9-2.4v0 c0-1.5-1.1-2.3-2.9-2.3h-2.7v4.7H128.8z"></path> <path fill="#5864ac" d="M132.3,50.7l4.3-9.5c0.1-0.3,0.4-0.5,0.8-0.5h0.1c0.3,0,0.6,0.2,0.7,0.5l4.3,9.5c0,0.1,0.1,0.2,0.1,0.3 c0,0.3-0.3,0.6-0.6,0.6c0,0,0,0,0,0c-0.3,0-0.5-0.2-0.6-0.4l-1.1-2.5h-5.9l-1.1,2.5c-0.1,0.2-0.3,0.4-0.6,0.4 c-0.3,0-0.5-0.2-0.6-0.5c0,0,0,0,0,0C132.2,50.9,132.2,50.8,132.3,50.7z M139.8,47.6l-2.5-5.5l-2.5,5.5H139.8z"></path> </g> <g> <path fill="#5864ac" d="M80.6,21.3c0-2.1-1.7-3.8-3.8-3.8c0,0,0,0,0,0h-5.7v11.3h2.5v-3.5l3.6,3.5h3.3l-3.7-3.7 C78.9,25.1,80.6,23.4,80.6,21.3z M76.5,19.7c0.9,0,1.6,0.7,1.6,1.6S77.4,23,76.5,23c0,0,0,0,0,0h-2.9v-3.3H76.5z"></path> <path fill="#5864ac" d="M122.7,21.3c0-2.1-1.7-3.8-3.8-3.8h-5.7v11.3h2.5v-3.5l3.6,3.5h3.3l-3.7-3.7 C121,25.1,122.7,23.4,122.7,21.3z M118.6,19.7c0.9,0,1.6,0.7,1.6,1.6c0,0.9-0.7,1.6-1.6,1.6h-2.9v-3.3H118.6z"></path> <polygon fill="#5864ac" points="90.3,19.6 90.3,17.4 81.7,17.4 81.7,28.8 90.3,28.8 90.3,26.6 84.2,26.6 84.2,24.1 89.6,24.1 89.6,22 84.2,22 84.2,19.6 "></polygon> <path fill="#5864ac" d="M106.6,17.2c-3.3,0-6,2.7-6,6c0,3.3,2.7,6,6,6c3.3,0,6-2.7,6-6C112.6,19.8,109.9,17.1,106.6,17.2 C106.6,17.2,106.6,17.2,106.6,17.2z M106.6,26.7c-2,0.1-3.7-1.5-3.7-3.5s1.5-3.7,3.5-3.7c2-0.1,3.7,1.5,3.7,3.5c0,0,0,0.1,0,0.1 C110.1,25.1,108.6,26.7,106.6,26.7z"></path> <path fill="#5864ac" d="M99.4,25.3c-0.7,0.9-1.7,1.4-2.8,1.4c-2,0-3.6-1.7-3.5-3.7c0-1.9,1.6-3.5,3.5-3.5c1.1,0,2.1,0.5,2.7,1.3 l1.5-1.8c-2.3-2.4-6-2.5-8.4-0.2c-2.4,2.3-2.5,6-0.2,8.4s6,2.5,8.4,0.2c0.2-0.1,0.3-0.3,0.4-0.5L99.4,25.3z"></path> <path fill="#5864ac" d="M128.5,17.4h-4.7v11.3h4.7c3.1,0,5.6-2.6,5.6-5.7C134,20,131.6,17.5,128.5,17.4z M128.2,26.6h-2v-6.9h2 c1.9,0,3.4,1.5,3.4,3.4S130.1,26.6,128.2,26.6L128.2,26.6z"></path> <path fill="#5864ac" d="M142.3,17.5h-8c-0.3,0-0.5,0.2-0.6,0.4c0,0.3,0.2,0.5,0.4,0.6c0,0,0.1,0,0.1,0h3.4v9.7 c0,0.3,0.2,0.6,0.5,0.6c0.3,0,0.6-0.2,0.6-0.5c0,0,0-0.1,0-0.1v-9.7h3.4c0.3,0,0.5-0.2,0.6-0.4c0-0.3-0.2-0.5-0.4-0.6 C142.3,17.5,142.3,17.5,142.3,17.5z"></path> <path fill="#5864ac" d="M148.7,28.7c-0.2,0-0.4-0.1-0.5-0.3l0,0L143.6,18c-0.1-0.3,0-0.6,0.3-0.7l0,0c0.3-0.1,0.6,0,0.7,0.3l0,0 l4.1,9.3l4.2-9.3c0.1-0.3,0.5-0.4,0.7-0.3l0,0c0.3,0.1,0.4,0.5,0.3,0.7c0,0,0,0,0,0l0,0l-4.7,10.4 C149.1,28.6,148.9,28.7,148.7,28.7L148.7,28.7L148.7,28.7z"></path> </g> </g> </g> </svg> 