<?xml version="1.0" encoding="UTF-8" standalone="no"?>
<!-- Created with Inkscape (http://www.inkscape.org/) -->

<svg
   xmlns:dc="http://purl.org/dc/elements/1.1/"
   xmlns:cc="http://creativecommons.org/ns#"
   xmlns:rdf="http://www.w3.org/1999/02/22-rdf-syntax-ns#"
   xmlns:svg="http://www.w3.org/2000/svg"
   xmlns="http://www.w3.org/2000/svg"
   version="1.1"
   width="484.80453"
   height="447.08157"
   id="svg2">
  <defs
     id="defs4" />
  <metadata
     id="metadata7">
    <rdf:RDF>
      <cc:Work
         rdf:about="">
        <dc:format>image/svg+xml</dc:format>
        <dc:type
           rdf:resource="http://purl.org/dc/dcmitype/StillImage" />
        <dc:title></dc:title>
      </cc:Work>
    </rdf:RDF>
  </metadata>
  <g
     transform="translate(533.83088,-171.11065)"
     id="layer1">
    <g
       transform="matrix(1.6785714,0,0,-1.6785714,123.57143,585.93361)"
       id="g15931">
      <path
         d="m 251.9149,59.574469 200,0 0,200.000001 -200,0 0,-200.000001 z"
         id="path15935"
         style="fill:#ffffff;fill-opacity:0;fill-rule:evenodd;stroke:none" />
      <path
         d="m -313.91235,196.30761 c 69.08072,55.9546 154.97647,64.44558 191.77729,18.96095 36.838647,-45.50266 10.68445,-127.706977 -58.40582,-183.663556 -69.09929,-55.945942 -154.96188,-64.453852 -191.7964,-18.968505 -36.83669,45.488778 -10.67128,127.725531 58.42493,183.671111"
         id="path15937"
         style="fill:#ffffff;fill-opacity:1;fill-rule:evenodd;stroke:none" />
      <path
         d="m -315.55557,198.32988 c 34.94761,28.30622 74.19153,44.61228 109.38137,48.09085 35.57699,3.51823 67.08423,-6.04154 86.07221,-29.50841 l -0.0104,0 c 19.01321,-23.48489 21.819499,-56.28443 10.99085,-90.33482 -10.71368,-33.692609 -34.81859,-68.683291 -69.77557,-96.99313 -34.96058,-28.3056923 -74.20485,-44.614261 -109.39417,-48.094459 -35.56653,-3.517506 -67.06495,6.037942 -86.06805,29.50391 -19.01213,23.47731 -21.81643,56.28263 -10.98257,90.340389 10.71924,33.69641 34.82883,68.69123 69.78635,96.99567 z m 3.28717,-4.04273 c -34.1416,-27.64295 -57.66325,-61.74379 -68.09159,-94.525142 -10.31153,-32.416525 -7.77903,-63.472996 10.04334,-85.480851 17.82943,-22.0164944 47.67343,-30.950846 81.51493,-27.604563 34.22882,3.3852125 72.47297,19.3044698 106.61706,46.950486 34.13871,27.648737 57.65785,61.743811 68.08096,94.52208 10.30776,32.41024 7.77182,63.45968 -10.05182,85.47563 l -0.0104,0 c -17.81282,22.01777 -47.65648,30.95572 -81.4978,27.61052 -34.22881,-3.38486 -72.47188,-19.30159 -106.60426,-46.94816"
         id="path15939"
         style="fill:#ed1c24;fill-opacity:1;fill-rule:nonzero;stroke:none" />
      <path
         d="M -210.06552,44.513762 C -262.78271,7.5447997 -322.27714,1.7595508 -347.43933,32.818726 c -24.08056,29.737673 -8.55207,82.961864 34.14663,125.968944 18.53469,16.07895 33.57889,-6.01091 32.91219,-25.45849 -0.60272,-17.73225 -3.49137,-31.58456 -23.29492,-58.560283 -23.00979,-31.363953 -28.21918,-30.328301 -28.21918,-30.328301 l 98.54967,0.02171 c 0,0 -0.26675,35.558779 0,35.558779 0.28837,0 -22.99159,0 -22.99159,0 31.07522,87.801775 -19.85419,108.730905 -19.85419,108.730905 48.09067,31.95064 105.26909,35.94288 129.19015,6.37859 23.4975,-29.03079 9.2011,-80.6258 -31.23688,-123.056867 0,0 0.2343,124.349177 0.16572,124.349177 -11.08819,0.27935 -28.62344,-0.25775 -47.15541,-1.82761 0,-7.18785 0,-35.40938 0,-35.40938 0,0 3.00455,3.39928 15.19398,3.45155 l -0.0323,-118.123779"
         id="path15941"
         style="fill:#ed1c24;fill-opacity:1;fill-rule:evenodd;stroke:none" />
    </g>
  </g>
</svg>
