<svg id="Layer_1" data-name="Layer 1" xmlns="http://www.w3.org/2000/svg" width="323.3" height="52.1" viewBox="0 0 323.3 52.1"><defs><style>.cls-1{fill:#d21f26;}.cls-2{fill:#f8f9fa;}.cls-3{fill:#212120;}</style></defs><path class="cls-1" d="M286,27l7.36,0V10.2A10.24,10.24,0,0,0,283.2,0H216.7V52.1h63.14l-1.36-2.78Z"/><path class="cls-2" d="M0,0H216.7V52H9.6A9.6,9.6,0,0,1,0,42.4Z"/><path class="cls-3" d="M30.4,29.9A10,10,0,0,0,37,20.7C37,14.5,31.9,10,24.8,10H10V42h6.8V31h6.8l6.7,11h7.9ZM16.8,16h7.4c2.9,0,6,1.3,6,4.8,0,2.6-2.5,4.6-6,4.6H16.8Z"/><polygon class="cls-3" points="51 36 51 28.4 65.3 28.4 65.3 22.8 51 22.8 51 16.1 67 16.1 67 10 44.4 10 44.4 42.1 67.5 42.1 67.5 36 51 36"/><path class="cls-3" d="M86.2,10H73.6V42h6.7V32.7h5.9c7.6,0,13.1-4.8,13.1-11.4S93.7,10,86.2,10Zm-6,6h5.1c4.2,0,7.1,2.2,7.1,5.5A4.94,4.94,0,0,1,91,24.9a8.07,8.07,0,0,1-5.7,2H80.2Z"/><path class="cls-3" d="M122.7,9c-10.2,0-17.3,7-17.3,17.1s7.1,17.1,17.3,17.1,17.4-7,17.4-17.1S132.9,9,122.7,9Zm0,28c-6.2,0-10.5-4.5-10.5-10.9s4.3-10.9,10.5-10.9,10.5,4.5,10.5,10.9S128.9,37,122.7,37Z"/><path class="cls-3" d="M166.6,29.9a10,10,0,0,0,6.6-9.2c0-6.2-5.1-10.7-12.2-10.7H146.2V42H153V31h6.8l6.7,11h7.9ZM153,16h7.4c2.9,0,6,1.3,6,4.8,0,2.6-2.5,4.6-6,4.6H153Z"/><polygon class="cls-3" points="180.5 10 180.5 16.1 190.2 16.1 190.2 42.1 197.1 42.1 197.1 16.1 206.7 16.1 206.7 10 180.5 10"/><polygon class="cls-2" points="277.2 10 268.6 35.7 259.6 10 226.7 10 226.7 15.4 236.7 15.4 236.7 42.1 242.6 42.1 242.6 15.4 255.2 15.4 263.9 41.8 264 42.1 272.7 42.1 283.4 10 277.2 10"/><polygon class="cls-1" points="293.95 48.42 296.39 41.11 288.6 41.11 286.16 48.42 281.38 48.42 287.67 29.61 292.45 29.61 289.86 37.35 297.65 37.35 300.24 29.61 305.02 29.61 298.73 48.42 293.95 48.42"/><path class="cls-1" d="M322.73,39a14.07,14.07,0,0,1-13.33,9.41h-7.9L305.66,36h4.78l-2.88,8.61H311c2.93,0,5.78-2.25,6.88-5.56s-.32-5.61-3.36-5.61h-8l1.27-3.82h8.09C321.79,29.64,324.59,33.46,322.73,39Z"/></svg>