<svg width="163" height="32" viewBox="0 0 163 32" fill="none" xmlns="http://www.w3.org/2000/svg">
<path d="M162.954 -0.000976562H0.742188V31.9988H162.954V-0.000976562Z" fill="#D12027"/>
<path d="M155.894 25.197C157.55 23.5171 157.55 20.7935 155.894 19.1136C154.239 17.4337 151.554 17.4337 149.899 19.1136C148.243 20.7935 148.243 23.5171 149.899 25.197C151.554 26.8768 154.239 26.8768 155.894 25.197Z" fill="white"/>
<path d="M120.3 5.90234H125.843V26.1051H120.3V5.90234Z" fill="white"/>
<path d="M127.749 16.0554V15.9986C127.749 10.1149 132.223 5.5 138.239 5.5C142.303 5.5 144.918 7.22972 146.681 9.7108L142.532 12.9705C141.393 11.5268 140.086 10.5961 138.18 10.5961C135.395 10.5961 133.433 12.9886 133.433 15.9328V15.9896C133.433 19.0177 135.395 21.383 138.18 21.383C140.256 21.383 141.478 20.4024 142.672 18.9314L146.822 21.946C144.948 24.57 142.417 26.5041 138.01 26.5041C132.326 26.4995 127.749 22.0844 127.749 16.0554Z" fill="white"/>
<path d="M150.697 21.4943H149.628V20.7725H152.536V21.4943H151.467V24.3363H150.695L150.697 21.4943Z" fill="#D02028"/>
<path d="M152.698 20.7754H153.551L154.47 23.286L155.389 20.7754H156.217L154.797 24.3642H154.125L152.698 20.7754Z" fill="#D02028"/>
<path d="M6.55957 5.90234H15.9709C19.0133 5.90234 21.1161 6.71046 22.4584 8.09514C23.6239 9.25056 24.2212 10.8078 24.2212 12.7985V12.8666C24.2212 15.9538 22.6015 18.0013 20.1274 19.0682L24.8744 26.1051H18.501L14.4922 19.9807H12.0762V26.096H6.55957V5.90234ZM15.7159 15.5906C17.5905 15.5906 18.671 14.669 18.671 13.1958V13.139C18.671 11.55 17.5346 10.7442 15.6868 10.7442H12.0762V15.5906H15.7159Z" fill="white"/>
<path d="M26.8018 5.90234H42.799V10.6693H32.258V13.7269H41.8102V18.133H32.258V21.3359H42.9466V26.1028H26.8018V5.90234Z" fill="white"/>
<path d="M44.7373 5.90234H53.265C58.2984 5.90234 61.5421 8.5287 61.5421 12.9983V13.0573C61.5421 17.8242 57.9315 20.3212 52.9854 20.3212H50.2561V26.0915H44.7373V5.90234ZM52.8646 15.9424C54.8242 15.9424 56.0188 14.9028 56.0188 13.3161V13.2593C56.0188 11.5273 54.8242 10.6057 52.8355 10.6057H50.2517V15.9424H52.8646Z" fill="white"/>
<path d="M63.0459 17.2409V5.90234H68.6386V17.1251C68.6386 20.0375 70.0882 21.4222 72.3073 21.4222C74.5265 21.4222 75.9739 20.0965 75.9739 17.2681V5.90234H81.5665V17.0956C81.5665 23.615 77.9 26.4706 72.2425 26.4706C66.5849 26.4706 63.0459 23.5559 63.0459 17.2409Z" fill="white"/>
<path d="M83.5127 5.90234H93.7182C96.2214 5.90234 97.9843 6.53794 99.1498 7.71832C99.5699 8.14498 99.8999 8.65411 100.12 9.21458C100.339 9.77505 100.444 10.3751 100.427 10.978V11.0348C100.427 13.3728 99.1207 14.7575 97.3579 15.5361C99.7739 16.3442 101.309 17.7289 101.309 20.4688V20.5255C101.309 23.9872 98.5234 26.0938 93.7763 26.0938H83.5127V5.90234ZM92.3536 13.9517C94.0314 13.9517 94.9709 13.3751 94.9709 12.1924V12.1334C94.9709 11.037 94.1164 10.4037 92.4677 10.4037H88.8816V13.9517H92.3536ZM93.15 21.5947C94.8278 21.5947 95.7942 20.9318 95.7942 19.7492V19.6924C95.7942 18.596 94.9418 17.8765 93.094 17.8765H88.8816V21.5969L93.15 21.5947Z" fill="white"/>
<path d="M103.016 5.90234H108.53V21.1906H118.167V26.096H103.016V5.90234Z" fill="white"/>
</svg>
