<svg width="86" height="25" viewBox="0 0 86 25" fill="none" xmlns="http://www.w3.org/2000/svg">
<g id="R.Kannada logo 4" clip-path="url(#clip0_15221_9962)">
<g id="_&#224;&#178;&#149;">
<path id="Vector" d="M27.8413 0.503906H0.984375V24.5042H27.8413V0.503906Z" fill="#D10014"/>
<path id="Vector_2" d="M23.8502 21.173C25.2297 21.0357 26.2368 19.8057 26.0996 18.4256C25.9624 17.0455 24.7328 16.038 23.3533 16.1753C21.9738 16.3126 20.9667 17.5426 21.1039 18.9227C21.2411 20.3027 22.4707 21.3102 23.8502 21.173Z" fill="white"/>
<path id="Vector_3" d="M4.45091 3.92188H12.5487C15.1663 3.92188 16.9764 4.60697 18.1262 5.78178C19.1289 6.76037 19.643 8.08235 19.643 9.7714V9.82046C19.643 12.439 18.2488 14.1772 16.1199 15.0822L20.2052 21.0535H14.7249L11.2755 15.8654H9.19563V21.0535H4.44922V3.92188H4.45091ZM12.3281 12.1447C13.9429 12.1447 14.872 11.3615 14.872 10.1131V10.064C14.872 8.71838 13.8939 8.03244 12.3035 8.03244H9.19648V12.1439H12.3281V12.1447Z" fill="white" stroke="white" stroke-width="0.15297" stroke-miterlimit="10"/>
<path id="Vector_4" d="M85.7783 0.503906H30.207V24.5042H85.7783V0.503906Z" fill="#D10014"/>
<path id="Vector_5" d="M60.4062 21.9373C60.4062 20.7642 61.4707 20.2254 62.3736 20.2254C62.8725 20.2254 63.3036 20.3328 63.6942 20.5088C63.6672 19.9827 63.5328 19.4574 63.3577 18.9043H64.341C64.5701 19.5107 64.7046 20.3734 64.6242 21.1558C65.3657 21.8434 65.7698 22.7332 65.9043 23.1104L65.1095 23.8251C64.9345 23.3802 64.6784 22.7873 64.3013 22.2613C63.843 23.1375 63.2098 23.5418 62.1995 23.5418C61.1891 23.5418 60.4071 22.9218 60.4071 21.9373H60.4062ZM62.1986 22.652C62.6433 22.652 63.1954 22.2342 63.4381 21.7622C63.4786 21.6675 63.5192 21.5872 63.5463 21.4924C63.2225 21.2632 62.8319 21.1152 62.3736 21.1152C61.9154 21.1152 61.4039 21.3309 61.4039 21.9373C61.4039 22.4363 61.7539 22.652 62.1986 22.652Z" fill="white"/>
<path id="Vector_6" d="M64.6079 15.4888C64.6079 13.1705 65.6233 11.2717 67.2119 9.94717H64.5859V7.62884H77.5409C78.733 7.62884 79.2403 7.05454 79.2403 6.17153C79.2403 5.4433 78.9317 4.75821 78.4016 3.986L80.6082 2.99219C81.1823 3.83122 81.6676 4.93498 81.6676 6.19352C81.6676 7.98154 80.719 9.35088 78.9968 9.79239C80.6962 11.1609 81.6896 13.1705 81.6896 15.4668C81.6896 18.6022 79.7695 20.567 77.0987 20.567C75.1567 20.567 73.722 19.5512 73.2587 18.1379H73.1707C72.6854 19.5512 71.2947 20.567 69.3087 20.567C66.6379 20.567 64.6079 18.6902 64.6079 15.4888ZM72.0234 15.5768V15.2681H74.3848V15.6216C74.3848 17.2117 75.3782 18.2267 76.8569 18.2267C78.6003 18.2267 79.461 16.6814 79.461 15.1353C79.1076 15.7975 78.3576 16.1951 77.4082 16.1951C75.3994 16.1951 74.0094 14.9805 74.0094 12.9717C74.0094 11.6252 74.8261 10.6094 75.8196 10.2779C75.1576 10.0571 74.2301 9.94632 73.4142 9.94632C69.9047 9.94632 67.2567 12.2866 67.2567 15.3112C67.2567 17.21 68.2941 18.1818 69.6401 18.1818C71.1408 18.1818 72.0234 17.21 72.0234 15.5768ZM79.0196 12.9269C79.0196 12.0659 78.4016 11.4476 77.5409 11.4476C76.6802 11.4476 76.0622 12.1099 76.0622 12.9049C76.0622 13.7659 76.6583 14.3622 77.5409 14.3622C78.4236 14.3622 79.0196 13.722 79.0196 12.9269Z" fill="white"/>
<path id="Vector_7" d="M51.6811 14.7757C50.7756 14.7757 50.2007 15.3729 50.2007 16.6771C50.2007 17.9813 50.6648 19.1307 51.5264 20.3461H48.853C48.0355 19.1307 47.5713 18.0253 47.5713 16.5003C47.5713 13.8479 49.2504 12.2341 51.5044 12.2341C56.0775 12.2341 56.1443 18.0693 58.7288 18.0693C59.6791 18.0693 60.2752 17.3842 60.2752 15.7264C60.2752 12.5657 57.5359 9.93525 53.6028 9.93525H47.5273V7.61438H58.6849C59.8778 7.61438 60.3859 7.04009 60.3859 6.15539C60.3859 5.42631 60.0985 4.74037 59.5464 3.96731L61.7556 2.97266C62.3297 3.81253 62.8158 4.91799 62.8158 6.17738C62.8158 8.01191 61.8215 9.40493 60.0097 9.80246C61.3354 10.6863 62.8598 12.6536 62.8598 15.6824C62.8598 18.7112 61.3134 20.5677 58.728 20.5677C54.1101 20.5677 54.1769 14.7766 51.6802 14.7766L51.6811 14.7757Z" fill="white"/>
<path id="Vector_8" d="M34.7123 16.4339C34.7123 15.2845 35.1545 14.4226 35.9721 13.8255L34.293 13.8475V11.5926H38.9548V9.86884H34.293V7.61395H42.0255C43.2185 7.61395 43.7266 6.97284 43.7266 6.11097C43.7266 5.35906 43.4392 4.69595 42.909 3.90091L45.0963 2.90625C45.6932 3.74613 46.1565 4.87357 46.1565 6.11097C46.1565 8.32104 44.7429 9.86884 42.1794 9.86884H41.5166V11.5926H46.1565V13.8475L44.5881 13.8035C45.3397 14.4006 45.7811 15.2405 45.7811 16.3451C45.7811 18.7548 43.6598 20.5673 40.2357 20.5673C36.8116 20.5673 34.7123 18.8436 34.7123 16.4339ZM43.1965 16.1024C43.1965 14.7102 42.1583 13.7375 40.2357 13.7375C38.3131 13.7375 37.2969 14.7102 37.2969 16.1024C37.2969 17.4945 38.3351 18.3353 40.2357 18.3353C42.1363 18.3353 43.1965 17.4066 43.1965 16.1024Z" fill="white"/>
</g>
</g>
<defs>
<clipPath id="clip0_15221_9962">
<rect width="84.7937" height="24.0003" fill="white" transform="translate(0.984375 0.5)"/>
</clipPath>
</defs>
</svg>
