<?xml version="1.0" encoding="UTF-8" standalone="no"?>
<!-- Generator: Adobe Illustrator 19.1.0, SVG Export Plug-In . SVG Version: 6.00 Build 0)  -->

<svg
   xmlns:dc="http://purl.org/dc/elements/1.1/"
   xmlns:cc="http://creativecommons.org/ns#"
   xmlns:rdf="http://www.w3.org/1999/02/22-rdf-syntax-ns#"
   xmlns:svg="http://www.w3.org/2000/svg"
   xmlns="http://www.w3.org/2000/svg"
   xmlns:sodipodi="http://sodipodi.sourceforge.net/DTD/sodipodi-0.dtd"
   xmlns:inkscape="http://www.inkscape.org/namespaces/inkscape"
   version="1.1"
   id="Layer_2"
   x="0px"
   y="0px"
   viewBox="0 0 345 135"
   xml:space="preserve"
   inkscape:version="0.91 r13725"
   sodipodi:docname="cla1.svg"
   width="345"
   height="135"><metadata
     id="metadata49"><rdf:RDF><cc:Work
         rdf:about=""><dc:format>image/svg+xml</dc:format><dc:type
           rdf:resource="http://purl.org/dc/dcmitype/StillImage" /><dc:title></dc:title></cc:Work></rdf:RDF></metadata><defs
     id="defs47" /><sodipodi:namedview
     pagecolor="#ffffff"
     bordercolor="#666666"
     borderopacity="1"
     objecttolerance="10"
     gridtolerance="10"
     guidetolerance="10"
     inkscape:pageopacity="0"
     inkscape:pageshadow="2"
     inkscape:window-width="923"
     inkscape:window-height="480"
     id="namedview45"
     showgrid="false"
     inkscape:zoom="1"
     inkscape:cx="145.05882"
     inkscape:cy="42.066417"
     inkscape:window-x="724"
     inkscape:window-y="576"
     inkscape:window-maximized="0"
     inkscape:current-layer="Layer_2"
     fit-margin-top="0"
     fit-margin-left="0"
     fit-margin-right="0"
     fit-margin-bottom="0" /><style
     type="text/css"
     id="style3">
	.st0{fill:#C43639;}
	.st1{fill:#26559C;}
	.st2{fill:#54B14E;}
	.st3{fill:#F3B728;}
	.st4{fill:#FFFFFF;}
</style><rect
     x="19.916479"
     y="21.503345"
     class="st0"
     width="26.781738"
     height="26.781738"
     id="rect9"
     style="fill:#c43639" /><rect
     x="46.842968"
     y="21.503345"
     class="st1"
     width="26.781738"
     height="26.781738"
     id="rect11"
     style="fill:#26559c" /><rect
     x="46.842968"
     y="48.285084"
     class="st2"
     width="26.781738"
     height="26.781738"
     id="rect13"
     style="fill:#54b14e" /><rect
     x="19.916479"
     y="48.285084"
     class="st3"
     width="26.781738"
     height="26.781738"
     id="rect15"
     style="fill:#f3b728" /><path
     class="st4"
     d="m 222.73385,135 0,-37.928733 3.18486,0 0,5.211583 0.14476,0 c 0.72383,-1.88196 2.02673,-3.329623 3.90869,-4.487752 1.73719,-1.158129 3.76392,-1.592428 6.08018,-1.592428 4.05345,0 7.2383,1.447662 9.4098,4.48775 2.02672,2.60579 3.04009,6.08018 3.04009,10.2784 0,4.19822 -1.01337,7.6726 -3.04009,10.27839 -2.31626,2.89533 -5.35635,4.48775 -9.4098,4.48775 -2.1715,0 -4.05346,-0.57906 -5.79065,-1.59242 -1.88196,-1.01337 -3.04009,-2.60579 -3.76392,-4.48775 l -0.14477,0 0,15.34521 -3.61915,0 z m 22.14922,-24.17595 c 0,-3.18485 -0.72383,-5.93541 -2.02672,-8.1069 -1.59243,-2.46103 -3.90869,-3.763923 -6.94878,-3.763923 -6.51448,0 -9.69933,3.908683 -9.69933,11.870823 0,3.18486 0.72383,5.93541 2.17149,8.10691 1.73719,2.46102 4.19822,3.76392 7.52784,3.76392 3.04009,0 5.35635,-1.3029 6.94878,-3.76392 1.30289,-2.1715 2.02672,-4.77729 2.02672,-8.10691 z"
     id="path23"
     inkscape:connector-curvature="0"
     style="fill:#000000" /><path
     class="st4"
     d="m 253.56904,124.7216 0,-38.363028 3.47439,0 0,38.363028 -3.47439,0 z"
     id="path25"
     inkscape:connector-curvature="0"
     style="fill:#000000" /><path
     class="st4"
     d="m 286.86525,111.83741 -21.42539,0 c 0,2.89533 0.72384,5.35635 2.1715,7.38308 1.73719,2.46102 4.05345,3.61915 6.94877,3.61915 4.63252,0 7.52784,-2.31626 8.68597,-7.09354 l 3.47439,0 c -1.59243,6.65924 -5.64588,9.98886 -12.16036,9.98886 -4.19822,0 -7.38307,-1.44766 -9.69933,-4.34298 -2.02673,-2.60579 -3.04009,-6.08018 -3.04009,-10.2784 0,-4.05345 1.01336,-7.38307 3.04009,-10.13363 2.31626,-3.040086 5.50111,-4.632514 9.55457,-4.632514 4.19821,0 7.38307,1.592428 9.55456,4.922054 2.17149,2.60579 3.04009,6.22494 2.89532,10.56792 z m -21.28062,-2.89532 17.951,0 c 0,-2.75056 -0.86859,-4.92205 -2.46102,-6.80401 -1.59243,-2.02672 -3.76392,-3.040087 -6.36971,-3.040087 -2.60579,0 -4.77728,1.013367 -6.36971,3.040087 -1.59243,1.7372 -2.46103,4.05345 -2.75056,6.80401 z"
     id="path27"
     inkscape:connector-curvature="0"
     style="fill:#000000" /><path
     class="st4"
     d="m 288.16815,124.7216 10.7127,-14.33185 -9.98887,-13.318483 4.19822,0 7.96214,10.567933 7.6726,-10.567933 4.19822,0 -9.98886,13.318483 10.85746,14.47662 -4.34299,0 -8.68596,-11.72606 -8.54121,11.72606 -4.05345,0 z"
     id="path29"
     inkscape:connector-curvature="0"
     style="fill:#000000" /><path
     class="st4"
     d="m 88.680396,75.066812 0,-53.853007 14.042314,0 0,10.13363 0.14477,0 c 1.30289,-3.329621 3.61915,-6.080178 6.80401,-8.25167 3.32962,-2.171493 6.65924,-3.184856 10.27839,-3.184856 1.15813,0 2.1715,0.144766 3.18486,0.579065 l 0,13.752784 c -1.59243,-0.434298 -3.32962,-0.579064 -5.35635,-0.579064 -9.8441,0 -14.62138,5.790646 -14.62138,17.371938 l 0,24.320713 -14.476614,0 z"
     id="path33"
     inkscape:connector-curvature="0"
     style="fill:#000000" /><path
     class="st4"
     d="m 178.14588,51.614696 -38.9421,0 c 0.4343,8.975501 4.77728,13.608018 13.31849,13.608018 2.89532,0 5.50111,-0.723831 7.6726,-2.316258 2.1715,-1.302896 3.47439,-2.895323 3.90869,-4.632517 l 13.02895,0 c -3.90868,12.01559 -12.30512,18.095769 -25.18931,18.095769 -8.39643,0 -15.05568,-2.605791 -19.97773,-7.817372 -4.92204,-5.211582 -7.38307,-12.015591 -7.38307,-20.556794 0,-8.25167 2.60579,-15.055679 7.67261,-20.412027 5.06681,-5.356347 11.72605,-8.106904 19.83296,-8.106904 8.68597,0 15.48998,3.329621 20.26726,9.844098 4.48775,6.080178 6.36971,13.463252 5.79065,22.293987 z m -38.9421,-9.4098 24.17595,0 c -1.44766,-7.527839 -5.35635,-11.436525 -11.87083,-11.436525 -4.19821,0 -7.38307,1.447661 -9.69933,4.198218 -1.59243,2.171492 -2.46102,4.487751 -2.60579,7.238307 z"
     id="path35"
     inkscape:connector-curvature="0"
     style="fill:#000000" /><path
     class="st4"
     d="m 205.65144,4.9999958 0,16.0690422 10.85747,0 0,9.988865 -10.85747,0 0,26.636971 c 0,2.461025 0.4343,4.198219 1.3029,5.066816 0.8686,0.868597 2.46102,1.302895 5.06682,1.302895 1.73719,0 3.18485,-0.144766 4.63251,-0.434298 l 0,11.436525 c -2.02672,0.289533 -4.92205,0.579065 -8.68597,0.579065 -11.29176,0 -16.93764,-4.198218 -16.93764,-12.739421 l 0,-31.703787 -8.9755,0 0,-9.988864 8.9755,0 0,-16.0690431 14.62138,0 z"
     id="path37"
     inkscape:connector-curvature="0"
     style="fill:#000000" /><path
     class="st4"
     d="m 227.80067,75.066812 0,-53.853007 14.04231,0 0,10.13363 0.14477,0 c 1.30289,-3.329621 3.61915,-6.080178 6.80401,-8.25167 3.18485,-2.171493 6.65924,-3.184856 10.27839,-3.184856 1.15813,0 2.1715,0.144766 3.18486,0.579065 l 0,13.752784 c -1.59243,-0.434298 -3.32962,-0.579064 -5.35635,-0.579064 -9.8441,0 -14.62138,5.790646 -14.62138,17.371938 l 0,24.320713 -14.47661,0 z"
     id="path39"
     inkscape:connector-curvature="0"
     style="fill:#000000" /><path
     class="st4"
     d="m 264.57127,48.140309 c 0,-8.685969 2.46102,-15.489979 7.52784,-20.70156 5.06681,-5.211581 11.72606,-7.817372 20.12249,-7.817372 8.39644,0 15.20045,2.605791 20.26726,7.817372 5.06682,5.211581 7.52784,12.015591 7.52784,20.70156 0,8.541202 -2.46102,15.345211 -7.52784,20.556793 -5.06681,5.211581 -11.87082,7.817372 -20.26726,7.817372 -8.39643,0 -15.05568,-2.605791 -20.12249,-7.817372 -5.06682,-5.211582 -7.52784,-12.015591 -7.52784,-20.556793 z m 14.62138,0 c 0,4.922049 0.8686,8.830735 2.75056,11.726058 2.17149,3.619153 5.64588,5.356347 10.27839,5.356347 8.83074,0 13.17372,-5.64588 13.17372,-17.082405 0,-11.436526 -4.34298,-17.227172 -13.17372,-17.227172 -8.68597,0 -13.02895,5.645879 -13.02895,17.227172 z"
     id="path41"
     inkscape:connector-curvature="0"
     style="fill:#000000" /><path
     class="st4"
     d="m 319.87194,89.398661 c 2.89532,0 5.21158,2.316259 5.21158,5.211582 0,2.895323 -2.31626,5.211581 -5.21158,5.211581 -2.89533,0 -5.21158,-2.316258 -5.21158,-5.211581 -0.14477,-2.895323 2.31625,-5.211582 5.21158,-5.211582 z m 3.90868,5.211582 c 0,-2.316259 -1.73719,-4.198219 -4.05345,-4.198219 -2.17149,0 -4.05345,1.88196 -4.05345,4.198219 0,2.316258 1.73719,4.198218 4.05345,4.198218 2.31626,0 4.05345,-1.88196 4.05345,-4.198218 z m -4.34298,0.434298 -0.8686,0 0,2.605791 -1.01336,0 0,-6.080178 2.31626,0 c 1.44766,0 2.31626,0.579064 2.31626,1.737193 0,1.15813 -0.72384,1.592428 -1.59243,1.737194 l 1.59243,2.605791 -1.15813,0 -1.59243,-2.605791 z m 0.28953,-0.868597 c 0.72383,0 1.44766,-0.144766 1.44766,-0.868597 0,-0.72383 -0.72383,-0.868597 -1.30289,-0.868597 l -1.15813,0 0,1.737194 1.01336,0 z"
     id="path43"
     inkscape:connector-curvature="0"
     style="fill:#000000" /></svg>