<?xml version="1.0" encoding="UTF-8" standalone="no"?>
<!-- Created with Inkscape (http://www.inkscape.org/) -->

<svg
   width="341.21118mm"
   height="91.504601mm"
   viewBox="0 0 341.21118 91.5046"
   version="1.1"
   id="svg5"
   xml:space="preserve"
   xmlns="http://www.w3.org/2000/svg"
   xmlns:svg="http://www.w3.org/2000/svg"><defs
     id="defs2" /><g
     id="layer1"
     transform="translate(-81.844948,-145.68125)"><path
       id="path2163"
       style="fill:#50348c;fill-opacity:1;stroke:none;stroke-width:9.21876;stroke-linecap:round;paint-order:stroke fill markers;stop-color:#000000"
       d="m 208.17538,155.73471 c -22.20139,0 -47.05403,17.49313 -47.05403,43.07061 0,20.8722 15.61266,38.38053 43.5462,38.38053 21.014,0 47.32955,-15.848 47.32955,-44.1933 0,-20.8722 -16.78565,-37.25784 -43.82172,-37.25784 z m -32.48596,34.19305 c 0.19626,0.004 0.3894,0.039 0.56848,0.0985 l 56.00864,18.39111 c 0.95715,0.31104 1.91562,1.50988 0.83686,2.9576 -9.84957,13.21801 -26.59168,15.86966 -37.71756,12.21627 -11.12589,-3.65335 -22.76444,-13.58564 -21.55514,-31.68006 0.0978,-1.46364 1.00824,-2.00265 1.85872,-1.98338 z" /><path
       id="path1134"
       style="font-style:oblique;font-weight:bold;font-size:68.5452px;font-family:'Futura LT W05';-inkscape-font-specification:'Futura LT W05 weight=750 Oblique';fill:#50348c;fill-opacity:1;stroke-width:39.8049;stroke-linecap:round;paint-order:stroke fill markers"
       d="m 96.950544,145.68125 -15.105596,77.53838 h 28.905882 c 1.9963,-7.18041 4.68215,-18.18713 4.52096,-29.55537 h 0.53912 l 8.42181,29.55537 h 32.83849 L 141.1756,192.74721 c 11.92932,-1.49005 21.64228,-10.27915 21.64228,-23.33383 0,-17.98316 -16.13205,-23.73213 -26.43415,-23.73213 z m 25.375026,20.53409 h 2.15726 c 3.25064,0.0154 9.28964,0.43938 9.28964,5.57538 0,6.50619 -6.21617,8.21063 -12.58866,8.45357 h -1.72534 z" /><path
       id="path1134-9"
       style="font-style:oblique;font-weight:bold;font-size:68.5452px;font-family:'Futura LT W05';-inkscape-font-specification:'Futura LT W05 weight=750 Oblique';fill:#50348c;fill-opacity:1;stroke-width:39.8049;stroke-linecap:round;paint-order:stroke fill markers"
       d="m 357.18879,145.68125 -15.1056,77.53838 h 28.90588 c 1.99631,-7.18041 4.68216,-18.18713 4.52097,-29.55537 h 0.53911 l 8.42182,29.55537 h 32.83849 l -15.89561,-30.47242 c 11.92932,-1.49005 21.64227,-10.27915 21.64227,-23.33383 0,-17.98316 -16.13204,-23.73213 -26.43415,-23.73213 z m 25.37502,20.53409 h 2.15727 c 3.25063,0.0154 9.28964,0.43938 9.28964,5.57538 0,6.50619 -6.21617,8.21063 -12.58867,8.45357 h -1.72533 z" /><path
       id="path1136"
       style="font-style:oblique;font-weight:bold;font-size:68.5452px;font-family:'Futura LT W05';-inkscape-font-specification:'Futura LT W05 weight=750 Oblique';fill:#50348c;fill-opacity:1;stroke-width:39.339;stroke-linecap:round;paint-order:stroke fill markers"
       d="m 290.92548,145.68125 -42.35523,77.53838 h 31.13778 c 1.66546,-3.35254 3.4145,-6.95235 5.18395,-10.66802 h 19.66545 c 0.14498,3.45765 0.32164,7.00965 0.53913,10.66802 h 31.33388 l -11.3667,-77.53838 z m 12.6109,23.52822 h 1.05361 c -0.3984,7.06279 -0.6014,15.78609 -0.49783,25.81251 h -11.11423 c 4.35535,-9.77396 8.22567,-19.08398 10.55845,-25.81251 z" /></g></svg>
