<?xml version="1.0" encoding="UTF-8" standalone="no"?>
<!-- Created with Inkscape (http://www.inkscape.org/) -->

<svg
   xmlns:dc="http://purl.org/dc/elements/1.1/"
   xmlns:cc="http://creativecommons.org/ns#"
   xmlns:rdf="http://www.w3.org/1999/02/22-rdf-syntax-ns#"
   xmlns:svg="http://www.w3.org/2000/svg"
   xmlns="http://www.w3.org/2000/svg"
   xmlns:sodipodi="http://sodipodi.sourceforge.net/DTD/sodipodi-0.dtd"
   xmlns:inkscape="http://www.inkscape.org/namespaces/inkscape"
   width="79.384178mm"
   height="36.047909mm"
   viewBox="0 0 79.384178 36.047909"
   version="1.1"
   id="svg29652"
   inkscape:version="0.92.1 r15371"
   sodipodi:docname="Romance_TV_Logo_10.2019.svg">
  <defs
     id="defs29646">
    <clipPath
       id="clip392">
      <path
         d="m 69.355469,129.65234 h 34.203121 v 15.53125 H 69.355469 Z m 0,0"
         id="path23450"
         inkscape:connector-curvature="0" />
    </clipPath>
  </defs>
  <sodipodi:namedview
     id="base"
     pagecolor="#ffffff"
     bordercolor="#666666"
     borderopacity="1.0"
     inkscape:pageopacity="0.0"
     inkscape:pageshadow="2"
     inkscape:zoom="0.35"
     inkscape:cx="150.0341"
     inkscape:cy="68.118564"
     inkscape:document-units="mm"
     inkscape:current-layer="svg29652"
     showgrid="false"
     fit-margin-top="0"
     fit-margin-left="0"
     fit-margin-right="0"
     fit-margin-bottom="0"
     inkscape:window-width="1920"
     inkscape:window-height="1001"
     inkscape:window-x="-9"
     inkscape:window-y="-9"
     inkscape:window-maximized="1" />
  <metadata
     id="metadata29649">
    <rdf:RDF>
      <cc:Work
         rdf:about="">
        <dc:format>image/svg+xml</dc:format>
        <dc:type
           rdf:resource="http://purl.org/dc/dcmitype/StillImage" />
        <dc:title></dc:title>
      </cc:Work>
    </rdf:RDF>
  </metadata>
  <path
     style="clip-rule:nonzero;fill:#000000;fill-opacity:1;fill-rule:nonzero;stroke:none;stroke-width:2.32069468"
     d="m 41.50957,16.873589 c -0.72522,-0.77054 -1.63174,-1.81304 -2.42948,-2.72863 -0.42606,-0.49858 -0.82493,-0.96091 -1.16941,-1.35071 -0.12692,-0.136 -0.21757,-0.29009 -0.24476,-0.43513 -0.0635,-0.32634 0.15411,-0.64362 0.48952,-0.71615 0.13597,-0.0362 0.29915,-0.0817 0.46232,-0.13599 0.32635,-0.0907 0.68896,-0.1903 0.99718,-0.27194 1.6408,-0.48952 2.75582,-1.2510097 3.42665,-2.3297697 0.40793,-0.67082 0.55298,-1.47763 0.3898,-2.27537 -0.0906,-0.48952 -0.39887,-0.9609 -0.74334,-1.15127 l -0.009,-0.009 h -0.009 c -0.41699,-0.25382 -1.0153,-0.40794 -1.60454,-0.38981 -0.21756,0.009 -0.56204,0.0452 -0.79774,0.0907 -0.3898,0.0724 -0.64363,0.21745 -0.7796,0.44418 -0.81587,1.40511 -1.75866,4.01589 -2.64705,6.6357497 -0.22664,0.67082 -0.46232,1.35976 -0.68895,2.02153 -0.43513,1.25099 -1.03344,2.97339 -1.54109,4.4601 1.44137,1.24192 2.919,2.41134 4.24252,3.55356 0.25383,0.21745 0.50765,0.44418 0.50765,0.44418 0.11785,0.10884 0.31728,0.10884 0.43513,0 0,0 0.25383,-0.22673 0.50765,-0.44418 1.15129,-0.99718 2.42948,-2.02156 3.69861,-3.09126 -0.8068,-0.64362 -1.63174,-1.41416 -2.49293,-2.32069 M 27.232,8.6062093 c -1.58642,-7.61477998 6.4363,-11.15927 11.65786,-6.54507 0.2357,0.20839 0.46233,0.43513 0.68896,0.67989 0.22664,-0.24476 0.45326,-0.47138 0.68895,-0.67989 5.221566,-4.6142 13.244279,-1.06970998 11.648802,6.54507 -0.734282,3.5354397 -3.209085,6.4000597 -6.019302,8.9473697 -0.290087,-0.23569 -0.580174,-0.48045 -0.879325,-0.75241 -1.640805,-1.47761 -3.435715,-3.39945 -4.523545,-4.67764 0.834,-0.28101 1.668,-0.66177 2.34789,-1.0697 0.85213,-0.52578 1.704264,-1.2963197 2.284437,-2.0759297 0.77961,-1.03343 1.096891,-2.08501 0.915586,-3.01872 -0.154117,-0.77961 -0.634563,-1.41418 -1.314455,-1.74959 -1.405108,-0.70707 -3.417588,-0.44418 -5.013058,-0.13599 -1.38698,0.26288 -2.80116,0.67989 -3.97963,1.16942 -1.35072,0.5711 -2.74676,1.45043 -3.78926,2.28442 -0.33542,0.25384 -0.38981,0.29916 -0.43513,0.74334 -0.009,0.0817 -0.13597,1.25102 -0.13597,1.31447 -0.009,0.0633 0,0.12694 0.009,0.15409 0.0544,0.2810097 0.34448,0.4804497 0.63456,0.4260597 0.2357,-0.0453 0.417,-0.2447697 0.46233,-0.5076597 0.18131,-0.67989 0.65269,-1.38698 1.29633,-1.92183 0.96091,-0.80679 2.01247,-1.40509 3.00058,-1.70425 -0.40793,1.47763 -1.13315,3.62608 -1.85837,5.4572497 -0.69802,1.78585 -1.46856,3.82553 -2.13939,5.62045 -2.61078,-2.42949 -4.84989,-5.17624 -5.54791,-8.5031897 m 48.272264,27.0596697 -2.828346,-6.54508 c -0.0362,-0.0633 -0.04525,-0.10884 -0.04525,-0.1903 0,-0.20839 0.190297,-0.40793 0.417006,-0.40793 0.208398,0 0.353534,0.13599 0.43513,0.31726 l 2.53826,6.08278 2.54731,-6.1009 c 0.07241,-0.15409 0.217449,-0.29914 0.407932,-0.29914 0.235713,0 0.407932,0.1903 0.407932,0.39886 0,0.0633 -0.0093,0.11789 -0.02715,0.1722 l -2.846495,6.57227 c -0.09074,0.2084 -0.23569,0.34449 -0.480453,0.34449 h -0.04525 c -0.23569,0 -0.398858,-0.136 -0.480453,-0.34449 m -8.095235,-6.32751 h -2.130326 c -0.208491,0 -0.389805,-0.16315 -0.389805,-0.37168 0,-0.2084 0.181316,-0.38981 0.389805,-0.38981 h 5.103716 c 0.208491,0 0.389802,0.18125 0.389802,0.38981 0,0.20839 -0.181316,0.37168 -0.389802,0.37168 h -2.130326 v 6.21874 c 0,0.22673 -0.190367,0.41698 -0.417001,0.41698 -0.235695,0 -0.426063,-0.19029 -0.426063,-0.41698 z m -13.688662,6.16451 v -6.50883 c 0,-0.22673 0.190366,-0.41701 0.407934,-0.41701 h 4.541674 c 0.208491,0 0.389802,0.1541 0.398869,0.36261 0.0091,0.21745 -0.163168,0.38981 -0.38074,0.38981 h -4.142802 v 2.51106 h 3.671411 c 0.281022,0 0.480455,0.31728 0.326347,0.57112 -0.07252,0.11789 -0.208491,0.18125 -0.344477,0.18125 h -3.653281 v 2.57453 h 4.179063 c 0.208491,0 0.389804,0.15409 0.398869,0.36261 0.0091,0.21745 -0.163168,0.38981 -0.380738,0.38981 h -4.614195 c -0.217565,0 -0.407934,-0.18125 -0.407934,-0.41701 m -8.811388,-3.22723 v -0.0272 c 0,-2.07593 1.559217,-3.7983 3.716739,-3.7983 1.187541,0 1.939954,0.38978 2.619846,0.9609 0.09065,0.0724 0.172242,0.18125 0.172242,0.32634 0,0.22673 -0.199441,0.417 -0.417001,0.417 -0.117845,0 -0.217565,-0.0543 -0.271955,-0.0998 -0.571109,-0.49857 -1.21474,-0.83398 -2.112197,-0.83398 -1.631738,0 -2.846476,1.32351 -2.846476,3.00964 v 0.0186 c 0,1.70427 1.232869,3.03686 2.846476,3.03686 0.906522,0 1.550152,-0.31728 2.184718,-0.89746 0.06345,-0.0543 0.154118,-0.10884 0.262891,-0.10884 0.208491,0 0.398869,0.18125 0.398869,0.39888 0,0.12695 -0.06345,0.22674 -0.135969,0.29009 -0.725217,0.66177 -1.522956,1.07875 -2.728629,1.07875 -2.121261,0 -3.689542,-1.668 -3.689542,-3.77113 m -8.675414,-3.31785 c 0,-0.22673 0.19037,-0.40795 0.40794,-0.40795 h 0.11784 c 0.19037,0 0.30822,0.0907 0.417,0.23571 l 4.46009,5.69294 v -5.5479 c 0,-0.21744 0.18132,-0.40793 0.40793,-0.40793 0.22664,0 0.39887,0.1903 0.39887,0.40793 v 6.63573 c 0,0.21745 -0.15411,0.38981 -0.37167,0.38981 h -0.0453 c -0.18132,0 -0.29916,-0.10884 -0.43513,-0.25382 l -4.55075,-5.82021 v 5.68389 c 0,0.21745 -0.18132,0.40794 -0.40794,0.40794 -0.21756,0 -0.39887,-0.1903 -0.39887,-0.40794 z m -4.04308,4.26971 -1.69519,-3.753 -1.68614,3.753 z m -5.19437,2.14845 2.97339,-6.51788 c 0.10877,-0.22673 0.26289,-0.36261 0.52579,-0.36261 h 0.0453 c 0.25382,0 0.417,0.136 0.51671,0.36261 l 2.97339,6.50881 c 0.0363,0.0724 0.0544,0.14504 0.0544,0.2084 0,0.22673 -0.17224,0.39885 -0.39887,0.39885 -0.19944,0 -0.33541,-0.13599 -0.40793,-0.29913 l -0.77055,-1.6952 H 28.4829 l -0.76147,1.71332 c -0.0816,0.18125 -0.21757,0.28101 -0.39887,0.28101 -0.21757,0 -0.38074,-0.16314 -0.38074,-0.37165 0,-0.0634 0.009,-0.136 0.0544,-0.22674 m -9.22839,-6.41816 c 0,-0.22673 0.19037,-0.40795 0.40793,-0.40795 h 0.0997 c 0.17225,0 0.29916,0.0907 0.38074,0.21745 l 2.62892,3.94337 2.61984,-3.94337 c 0.0816,-0.13599 0.22664,-0.21745 0.38981,-0.21745 h 0.0906 c 0.22664,0 0.417,0.18125 0.417,0.40795 v 6.59948 c 0,0.22673 -0.19036,0.41698 -0.417,0.41698 -0.22664,0 -0.417,-0.19935 -0.417,-0.41698 v -5.4754 l -2.34789,3.45384 c -0.0997,0.136 -0.19944,0.2084 -0.34448,0.2084 -0.14504,0 -0.26289,-0.0724 -0.3626,-0.2084 l -2.33883,-3.44477 v 5.47538 c 0,0.23569 -0.17224,0.40793 -0.40793,0.40793 -0.21757,0 -0.39887,-0.17219 -0.39887,-0.40793 z m -3.3088,3.31785 v -0.0271 c 0,-1.668 -1.21474,-3.02776 -2.89181,-3.02776 -1.68613,0 -2.88273,1.34164 -2.88273,3.00964 v 0.0186 c 0,1.668 1.2238,3.03686 2.90086,3.03686 1.67707,0 2.87368,-1.34166 2.87368,-3.00966 m -6.63574,0 v -0.0272 c 0,-2.02153 1.52296,-3.7983 3.76206,-3.7983 2.23911,0 3.73487,1.74957 3.73487,3.78018 v 0.0186 c 0,2.03061 -1.52295,3.79833 -3.753,3.79833 -2.2391,0 -3.74393,-1.74957 -3.74393,-3.77113 m -4.73204,0.0453 c 1.09689,0 1.88556,-0.56202 1.88556,-1.5048 v -0.0272 c 0,-0.89746 -0.68895,-1.45043 -1.8765,-1.45043 h -2.2663 v 2.98244 z M 1e-5,28.995159 c 0,-0.22673 0.19037,-0.41701 0.417,-0.41701 h 2.74676 c 0.89746,0 1.62267,0.27197 2.085,0.73429 0.36261,0.36261 0.57111,0.87026 0.57111,1.45044 v 0.0186 c 0,1.20567 -0.81587,1.91277 -1.96715,2.13033 l 1.83117,2.34789 c 0.0816,0.0998 0.13597,0.1903 0.13597,0.30822 0,0.21745 -0.20849,0.40793 -0.42607,0.40793 -0.16317,0 -0.29008,-0.0907 -0.38074,-0.21745 L 2.9462,33.075099 H 0.834 v 2.48388 c 0,0.22673 -0.19036,0.41698 -0.417,0.41698 -0.22664,0 -0.417,-0.19029 -0.417,-0.41698 z m 0,0"
     id="path58093"
     inkscape:connector-curvature="0" />
</svg>
