<svg height="199.171839" viewBox="0 0 121.17413 47.80542" width="502.079011" xmlns="http://www.w3.org/2000/svg"><g fill="#c41230"><path d="m30.75253 23.491a14.7804 14.7804 0 0 1 .27-2.818l1.429-8.235c1.47599-8.188 8.27601-12.438 16.24299-12.438 6.31 0 12.393 2.372 12.393 9.665a13.90654 13.90654 0 0 1 -.268 2.773l-1.432 8.143c-1.523 8.368-8.322 12.394-16.378 12.394-6.305 0-12.257-2.192-12.257-9.484m18.657-2.64 1.568-8.77a7.80243 7.80243 0 0 0 .088-.984c0-2.192-1.523-3.404-3.623-3.404-2.91 0-4.476 1.615-4.969 4.388l-1.522 8.592a5.73813 5.73813 0 0 0 -.13 1.25c0 2.327 1.382 3.357 3.62 3.357a4.921 4.921 0 0 0 4.968-4.429"/><path d="m61.12253 23.491a15.27438 15.27438 0 0 1 .266-2.818l1.434-8.235c1.47999-8.188 8.27799-12.438 16.24299-12.438 6.309 0 12.398 2.372 12.398 9.665a14.28673 14.28673 0 0 1 -.27 2.773l-1.431 8.143c-1.524 8.368-8.322 12.394-16.378 12.394-6.31 0-12.262-2.192-12.262-9.484m18.66-2.64 1.563-8.77a6.69955 6.69955 0 0 0 .095-.984c0-2.192-1.522-3.404-3.628-3.404-2.91 0-4.475 1.615-4.967 4.388l-1.521 8.592a5.61713 5.61713 0 0 0 -.132 1.25c0 2.327 1.386 3.357 3.623 3.357a4.92424 4.92424 0 0 0 4.967-4.429"/><path d="m16.922 15.12271h-4.055l1.275-7.205h4.129a2.73026 2.73026 0 0 1 3.039 2.864 4.355 4.355 0 0 1 -4.388 4.341m14.233-5.412c0-6.043-4.657-9.173-10.294-9.173h-17.495l-1.303 7.38h9.726l-8.194 4.209-3.595 20.30499h9.8l1.884-10.597h2.69l3.399 10.605h10.294l-4.566-12.215a10.5308 10.5308 0 0 0 7.654-10.514"/><path d="m121.174.534h-27.743l-1.299 7.388h16.358-.025l-8.176 4.205-3.566 20.313h9.751l4.348-24.518h9.05z"/><path d="m22.39862 46.4024 1.832-2.171a4.343 4.343 0 0 0 2.707 1.108c.544 0 1.453-.087 1.453-.809 0-.353-.281-.477-.589-.585-1.71-.585-3.865-1.146-3.865-3.528 0-2.403 1.848-3.95 4.298-3.95a6.46986 6.46986 0 0 1 4.253 1.342l-1.831 2.067a3.73338 3.73338 0 0 0 -2.143-.862c-.571 0-1.31.104-1.31.705 0 .54 1.017.749 1.382.88 1.557.49 3.362 1.187 3.362 3.296 0 2.818-2.374 3.91-4.868 3.91a7.30655 7.30655 0 0 1 -4.681-1.403"/><path d="m38.56012 36.63821h5.433a3.0843 3.0843 0 0 1 3.345 3.238c0 2.62-2.05 4.252-4.669 4.252h-2.046l-.619 3.499h-3.388zm3.893 5.02a1.50724 1.50724 0 0 0 1.509-1.489.94025.94025 0 0 0 -1.048-.989h-1.417l-.446 2.478z"/><path d="m51.88742 44.543a5.18765 5.18765 0 0 1 .096-.976l.496-2.83c.504-2.819 2.845-4.284 5.593-4.284 2.17 0 4.264.818 4.264 3.329a4.8847 4.8847 0 0 1 -.093.955l-.49 2.806c-.523 2.88-2.868 4.262-5.643 4.262-2.168 0-4.223-.747-4.223-3.262m6.428-.905.541-3.026a2.24217 2.24217 0 0 0 .029-.336 1.12715 1.12715 0 0 0 -1.248-1.172 1.60022 1.60022 0 0 0 -1.703 1.508l-.531 2.955a1.85946 1.85946 0 0 0 -.042.436c0 .797.472 1.156 1.245 1.156a1.69257 1.69257 0 0 0 1.709-1.521"/><path d="m68.328 36.63821h5.234c1.947 0 3.553 1.081 3.553 3.156a3.63169 3.63169 0 0 1 -2.636 3.624l1.571 4.209h-3.548l-1.169-3.656h-.909l-.647 3.656h-3.387zm3.881 5.02a1.5 1.5 0 0 0 1.514-1.489.94093.94093 0 0 0 -1.053-.989h-1.399l-.451 2.478z"/><path d="m85.367 39.259h-3.068l.46-2.62h9.556l-.466 2.62h-3.063l-1.48 8.362h-3.419z"/><path d="m94.73874 46.4024 1.832-2.171a4.35431 4.35431 0 0 0 2.713 1.108c.535 0 1.444-.087 1.444-.809 0-.353-.274-.477-.585-.585-1.706-.585-3.868-1.146-3.868-3.528 0-2.403 1.854-3.95 4.3-3.95a6.45154 6.45154 0 0 1 4.25 1.342l-1.832 2.067a3.68444 3.68444 0 0 0 -2.139-.862c-.57 0-1.304.104-1.304.705 0 .54 1.012.749 1.379.88 1.563.49 3.361 1.187 3.361 3.296 0 2.818-2.37 3.91-4.869 3.91a7.30224 7.30224 0 0 1 -4.682-1.403"/><path d="m106.805 44.984h-.939v-.354h2.285v.354h-.935v2.651h-.411z"/><path d="m108.461 44.63h.509l.881 1.855h.01l.866-1.855h.507v3.005h-.399v-2.277h-.008l-.816 1.7h-.326l-.813-1.689h-.013v2.266h-.398z"/><path d="m106.805 44.984h-.939v-.354h2.285v.354h-.935v2.651h-.411z"/><path d="m108.461 44.63h.509l.881 1.855h.01l.866-1.855h.507v3.005h-.399v-2.277h-.008l-.816 1.7h-.326l-.813-1.689h-.013v2.266h-.398z"/></g></svg>