<svg width="148" height="34" viewBox="0 0 148 34" fill="none" xmlns="http://www.w3.org/2000/svg">
<rect width="111" height="34" fill="url(#paint0_linear)"/>
<rect x="114" width="34" height="34" fill="#C40000"/>
<path fill-rule="evenodd" clip-rule="evenodd" d="M16.7664 8.00146H10.4189V25.7998H14.2899V19.2901H16.7664C20.3721 19.2901 22.6127 16.6898 22.6127 13.6886C22.6127 10.6873 20.3721 8.00146 16.7664 8.00146ZM18.6975 13.6886C18.6975 15.1361 17.875 16.0854 16.6338 16.0854H14.2752V11.2917H16.6338C17.8838 11.2917 18.6975 12.241 18.6975 13.6886Z" fill="white"/>
<path fill-rule="evenodd" clip-rule="evenodd" d="M31.6936 7.66528C27.8226 7.66528 24.6621 10.1418 24.6621 15.0358V18.7977C24.6621 23.7212 27.7961 26.1446 31.6936 26.1446C35.5911 26.1446 38.7486 23.7212 38.7486 18.7977V15.0358C38.7486 10.1418 35.5646 7.66528 31.6936 7.66528ZM34.8806 15.2952V18.5058C34.8806 21.799 33.5627 22.8515 31.6936 22.8515C29.8244 22.8515 28.5331 21.799 28.5331 18.5058V15.2952C28.5331 12.0876 29.851 10.9496 31.6936 10.9496C33.5362 10.9496 34.8806 12.0846 34.8806 15.2952Z" fill="white"/>
<path d="M53.9519 25.328C52.2948 25.8695 50.5624 26.1451 48.8191 26.1447C44.6592 26.1447 41.5518 23.7448 41.5518 18.8243V14.9916C41.5518 10.0681 44.6592 7.67119 48.8191 7.67119C50.5618 7.6669 52.2942 7.93855 53.9519 8.47605L53.2149 11.6365C51.8015 11.1882 50.3284 10.9565 48.8456 10.9496C46.7229 10.9496 45.4021 12.0876 45.4021 15.2953V18.4793C45.4021 21.7223 46.717 22.8515 48.825 22.8515C50.3109 22.861 51.7879 22.6208 53.1942 22.141L53.9519 25.328Z" fill="white"/>
<path d="M68.9177 25.3281C67.2606 25.8696 65.5282 26.1452 63.7849 26.1447C59.622 26.1447 56.5176 23.7449 56.5176 18.8243V14.9917C56.5176 10.0682 59.622 7.67127 63.7849 7.67127C65.5282 7.67078 67.2606 7.94641 68.9177 8.48792L68.1807 11.6484C66.7673 11.2002 65.2942 10.9686 63.8114 10.9615C61.7035 10.9615 60.3886 12.0965 60.3886 15.3071V18.4912C60.3886 21.7342 61.7035 22.8634 63.8114 22.8634C65.2974 22.8729 66.7743 22.6327 68.1807 22.1529L68.9177 25.3281Z" fill="white"/>
<path d="M85.4246 25.7998H81.5536V18.217C81.5536 17.4269 81.5772 16.4481 81.6597 15.4251L75.1029 25.7998H71.9365V8.00146H75.8075V15.7169C75.8075 16.4805 75.781 17.4269 75.7279 18.4293L82.2847 8.00146H85.4187L85.4246 25.7998Z" fill="white"/>
<path fill-rule="evenodd" clip-rule="evenodd" d="M96.7008 25.7998H100.563V8.00146H94.1093C90.5037 8.00146 88.266 10.6873 88.266 13.6886C88.266 15.8466 89.3715 17.8603 91.3734 18.7447L88.0566 25.7998H92.3846L95.2267 19.299H96.7008V25.7998ZM94.3068 11.2917H96.7008V16.0854H94.3068C93.0597 16.0854 92.1753 15.1096 92.1753 13.6886C92.1753 12.2675 93.0686 11.2917 94.3068 11.2917Z" fill="white"/>
<path d="M122.383 19.0985H122.126C120.292 19.0985 116.687 20.7436 116.687 24.6264C116.675 25.7122 117.103 26.7564 117.875 27.5201C118.647 28.2837 119.696 28.7013 120.782 28.6773C125.944 28.6773 128.527 24.9655 130.596 17.2648C131.513 17.2648 133.925 18.0549 134.093 20.4871C134.093 20.4871 134.285 23.3882 134.624 25.1158C135.137 27.7191 136.738 28.7628 138.934 28.7628C142.902 28.7628 144.589 25.7114 144.589 22.8663L143.969 23.1435C143.925 25.278 142.372 27.6454 139.874 27.6454C138.81 27.6454 137.206 26.8553 137.206 24.081C137.206 22.9017 137.336 20.9677 137.336 20.5608C137.336 17.4682 133.176 16.9346 130.658 16.9346L130.788 16.3449C131.443 16.4692 132.106 16.5401 132.772 16.5572C134.007 16.5572 135.971 15.8113 137.015 14.4934C141.369 8.90658 141.369 5.38348 145.187 5.35399C145.444 5.35362 145.7 5.37532 145.954 5.41885L145.847 4.86459C145.553 4.84395 145.273 4.82037 144.993 4.82037C143.094 4.82037 141.602 5.61049 140.175 7.42658C136.207 12.4444 135.266 14.4905 133.347 15.3012C132.569 15.6384 131.744 15.8551 130.9 15.944C131.605 12.3796 132.84 6.663 134.694 5.68124C134.516 5.61128 134.37 5.47792 134.285 5.30682C134.007 5.43654 133.645 5.60164 132.345 5.60164C128.014 5.60164 127.268 4.38403 123.406 4.38403C120.269 4.38403 118.031 6.40945 118.031 9.05399C118.031 11.6985 120.183 12.6184 121.613 12.6184C123.468 12.6184 124.172 11.3801 124.237 10.761L123.875 10.3984C123.789 11.2298 122.896 12.0405 121.743 12.0405C120.932 12.0405 119.202 11.7221 119.202 9.60826C119.202 7.83933 120.614 6.17359 123.833 6.17359C125.219 6.17359 126.902 6.64236 129.037 6.64236C130.657 6.64552 132.264 6.34554 133.775 5.7579C131.106 7.01678 129.803 8.3818 127.799 16.3184C125.304 25.4578 123.426 28.0699 120.673 28.0699C118.753 28.0699 117.391 26.4278 117.391 24.5321C117.391 21.8463 120.015 19.585 122.831 19.585L122.383 19.0985Z" fill="white"/>
<defs>
<linearGradient id="paint0_linear" x1="-61.0055" y1="-18.3154" x2="-61.0055" y2="53.3644" gradientUnits="userSpaceOnUse">
<stop stop-color="#0085FF"/>
<stop offset="0.18" stop-color="#0073ED"/>
<stop offset="0.55" stop-color="#0043BF"/>
<stop offset="1" stop-color="#00007E"/>
</linearGradient>
</defs>
</svg>
