<svg xmlns="http://www.w3.org/2000/svg" viewBox="0 0 325.17 333.49"><g id="Capa_2" data-name="Capa 2"><g id="Layer_1" data-name="Layer 1"><path d="M214.8,116.27a34.13,34.13,0,0,0-22.16,60.12,170.06,170.06,0,0,1-30.16,3.18h-.27a174.26,174.26,0,0,1-31-3.3,34.16,34.16,0,1,0-45,.07l0,0c.87.81,22,19.86,75.69,21.06h.88c53-1.18,72.48-19.26,74.52-21.32v0a34.12,34.12,0,0,0-22.49-59.82M108.68,134.34a16.31,16.31,0,1,1-16.3,16.31,16.33,16.33,0,0,1,16.3-16.31m106.12-.21a16.31,16.31,0,1,1-16.31,16.31,16.33,16.33,0,0,1,16.31-16.31" style="fill:#fb1d32"/><path d="M214.8,116.27a34.13,34.13,0,0,0-22.16,60.12,170.06,170.06,0,0,1-30.16,3.18h-.27a174.26,174.26,0,0,1-31-3.3,34.16,34.16,0,1,0-45,.07l0,0c.87.81,22,19.86,75.69,21.06h.88c53-1.18,72.48-19.26,74.52-21.32v0a34.12,34.12,0,0,0-22.49-59.82ZM108.68,134.34a16.31,16.31,0,1,1-16.3,16.31A16.33,16.33,0,0,1,108.68,134.34Zm106.12-.21a16.31,16.31,0,1,1-16.31,16.31A16.33,16.33,0,0,1,214.8,134.13Z" style="fill:#fb1d32"/><path d="M325.06,102.51c-.77-9.58-5.26-18.1-12.33-23.39a261.54,261.54,0,0,0-35.11-22.19v-.19L273,54.47a244.89,244.89,0,0,0-44.37-16.72V11.17a8.94,8.94,0,0,0-17.87,0V33.63q-11-2.1-22.34-3.22V8.93a8.93,8.93,0,1,0-17.85,0V29.24c-2.65-.08-5.31-.13-8-.13-3.81,0-7.6.1-11.37.27V8.93a8.93,8.93,0,0,0-17.86,0V30.75Q122.54,32,112,34.1V11.54a8.93,8.93,0,1,0-17.86,0V38.42a246.47,246.47,0,0,0-37.65,14l0,0c-2.57,1.18-5.08,2.41-7.53,3.67l-1.33.66v0A261.31,261.31,0,0,0,12.44,79C5.37,84.26.88,92.79.11,102.36A34.26,34.26,0,0,0,9.4,128.94c9.44,9.75,20.7,15.76,32.93,17.66a85.89,85.89,0,0,0,11.42,34.21c21,35.28,61.71,45.3,92.17,47.49l16.35.58h.48l16.16-.56.34,0c30.47-2.19,71.19-12.21,92.17-47.49a85.5,85.5,0,0,0,11.4-34.07c12.24-1.89,23.5-7.9,32.95-17.66a34.21,34.21,0,0,0,9.29-26.57M162.58,47a236.73,236.73,0,0,1,48.17,4.88V75.18c-11.09,1.95-32.81,5.36-49.13,5.36S123.23,77.31,112,75.46V52.35A236.93,236.93,0,0,1,162.58,47M17.92,103.78c.35-4.39,2.3-8.32,5.22-10.5A251.39,251.39,0,0,1,46.09,78l-3.5,50.48c-7.45-1.68-14.27-5.67-20.36-12a16.33,16.33,0,0,1-4.31-12.73m160.21,106.7-15.55.54L147,210.48C58.9,204.05,59.64,142.57,59.77,139l4.9-70.66A226.62,226.62,0,0,1,94.1,57V83a8.94,8.94,0,0,0,7.29,8.78c1.45.27,35.77,6.64,60.23,6.64s58.39-6.75,59.83-7a8.94,8.94,0,0,0,7.17-8.75V56.3a228.78,228.78,0,0,1,31.89,12L265.4,139c.13,3.62.87,65.1-87.27,71.53m124.8-93.82c-6.08,6.28-12.89,10.27-20.34,12l-3.5-50.46A249.82,249.82,0,0,1,302,93.43c2.92,2.18,4.86,6.1,5.22,10.5a16.33,16.33,0,0,1-4.32,12.73" style="fill:#fb1d32"/><path d="M325.06,102.51c-.77-9.58-5.26-18.1-12.33-23.39a261.54,261.54,0,0,0-35.11-22.19v-.19L273,54.47a244.89,244.89,0,0,0-44.37-16.72V11.17a8.94,8.94,0,0,0-17.87,0V33.63q-11-2.1-22.34-3.22V8.93a8.93,8.93,0,1,0-17.85,0V29.24c-2.65-.08-5.31-.13-8-.13-3.81,0-7.6.1-11.37.27V8.93a8.93,8.93,0,0,0-17.86,0V30.75Q122.54,32,112,34.1V11.54a8.93,8.93,0,1,0-17.86,0V38.42a246.47,246.47,0,0,0-37.65,14l0,0c-2.57,1.18-5.08,2.41-7.53,3.67l-1.33.66v0A261.31,261.31,0,0,0,12.44,79C5.37,84.26.88,92.79.11,102.36A34.26,34.26,0,0,0,9.4,128.94c9.44,9.75,20.7,15.76,32.93,17.66a85.89,85.89,0,0,0,11.42,34.21c21,35.28,61.71,45.3,92.17,47.49l16.35.58h.48l16.16-.56.34,0c30.47-2.19,71.19-12.21,92.17-47.49a85.5,85.5,0,0,0,11.4-34.07c12.24-1.89,23.5-7.9,32.95-17.66A34.21,34.21,0,0,0,325.06,102.51ZM162.58,47a236.73,236.73,0,0,1,48.17,4.88V75.18c-11.09,1.95-32.81,5.36-49.13,5.36S123.23,77.31,112,75.46V52.35A236.93,236.93,0,0,1,162.58,47ZM17.92,103.78c.35-4.39,2.3-8.32,5.22-10.5A251.39,251.39,0,0,1,46.09,78l-3.5,50.48c-7.45-1.68-14.27-5.67-20.36-12A16.33,16.33,0,0,1,17.92,103.78Zm160.21,106.7-15.55.54L147,210.48C58.9,204.05,59.64,142.57,59.77,139l4.9-70.66A226.62,226.62,0,0,1,94.1,57V83a8.94,8.94,0,0,0,7.29,8.78c1.45.27,35.77,6.64,60.23,6.64s58.39-6.75,59.83-7a8.94,8.94,0,0,0,7.17-8.75V56.3a228.78,228.78,0,0,1,31.89,12L265.4,139C265.53,142.57,266.27,204.05,178.13,210.48Zm124.8-93.82c-6.08,6.28-12.89,10.27-20.34,12l-3.5-50.46A249.82,249.82,0,0,1,302,93.43c2.92,2.18,4.86,6.1,5.22,10.5A16.33,16.33,0,0,1,302.93,116.66Z" style="fill:#fb1d32"/><path d="M125.71,322.3V258.71c0-4.56,2.81-7.61,7.5-7.61H157.8c17.44,0,27.75,10.43,27.75,25.65,0,15-10.42,25.52-27.75,25.52H143.63a.62.62,0,0,0-.7.71V322.3c0,5.5-3.63,9.13-8.55,9.13s-8.67-3.63-8.67-9.13m42.63-45.55c0-6.44-4.34-10.78-11.59-10.78H143.63a.62.62,0,0,0-.7.71v20a.62.62,0,0,0,.7.7h13.12c7.25,0,11.59-4.21,11.59-10.65" style="fill:#fb1d32"/><path d="M134.38,331.91c-5.38,0-9.14-4-9.14-9.61V258.71c0-4.91,3.13-8.09,8-8.09H157.8c17.15,0,28.23,10.26,28.23,26.13s-11.08,26-28.23,26H143.63c-.2,0-.22,0-.22.23V322.3c0,5.66-3.72,9.61-9,9.61m-1.17-80.33c-4.33,0-7,2.74-7,7.13V322.3c0,5.17,3.29,8.65,8.19,8.65,4.75,0,8.07-3.56,8.07-8.65V303a1.1,1.1,0,0,1,1.18-1.19H157.8c16.57,0,27.27-9.83,27.27-25,0-15.53-10.45-25.17-27.27-25.17Zm23.53,36.3H143.63a1.09,1.09,0,0,1-1.18-1.18v-20a1.1,1.1,0,0,1,1.18-1.19h13.11c7.34,0,12.08,4.42,12.08,11.26s-4.63,11.13-12.08,11.13m-13.11-21.43c-.21,0-.22,0-.22.23v20c0,.2,0,.22.22.22h13.11c6.86,0,11.12-3.9,11.12-10.17s-4.26-10.3-11.12-10.3Z" style="fill:#fb1d32"/><path d="M235.14,333.49A42.18,42.18,0,1,1,271.54,270a8.16,8.16,0,0,1-14.08,8.25,25.85,25.85,0,1,0-.74,27.3,8.16,8.16,0,0,1,13.61,9,42.08,42.08,0,0,1-35.19,18.93" style="fill:#fb1d32"/><path d="M99.83,297.36c8.19-4.1,13.11-11.83,13.11-21.55,0-14.52-10.77-24.71-27.16-24.71H60.48c-4.68,0-7.49,3.05-7.49,7.61V322.3c0,5.5,3.63,9.13,8.66,9.13s8.55-3.63,8.55-9.13V266.68a.63.63,0,0,1,.7-.71H85c6.55,0,10.77,3.87,10.77,10s-4.22,9.83-10.77,9.83H81.64c-1.59,0-2.29.3-2.83,1.1s-.92,2.3-.08,4.57L96,326c2,3.75,4.92,5.39,8.43,5.39a7.87,7.87,0,0,0,8.2-8.2,10,10,0,0,0-1.17-4.8Z" style="fill:#fb1d32"/><path d="M104.39,331.91c-3.88,0-6.86-1.9-8.85-5.64L78.3,291.64c-1-2.62-.47-4.19.11-5.05s1.52-1.31,3.23-1.31H85c6.25,0,10.29-3.67,10.29-9.35,0-5.85-4-9.48-10.29-9.48H70.9c-.2,0-.22,0-.22.23V322.3c0,5.75-3.63,9.61-9,9.61s-9.14-4-9.14-9.61V258.71c0-4.91,3.13-8.09,8-8.09h25.3c16.53,0,27.64,10.13,27.64,25.19,0,9.54-4.71,17.44-12.93,21.75l11.35,20.64a10.46,10.46,0,0,1,1.23,5,8.31,8.31,0,0,1-8.68,8.68M81.64,286.24c-1.55,0-2,.3-2.43.89s-.84,1.94,0,4.13l17.21,34.57c1.81,3.39,4.5,5.12,8,5.12a7.38,7.38,0,0,0,7.72-7.72,9.51,9.51,0,0,0-1.11-4.57L99.16,297.15l.45-.22a22.8,22.8,0,0,0,12.85-21.12c0-14.49-10.72-24.23-26.68-24.23H60.48c-4.32,0-7,2.74-7,7.13V322.3c0,5.17,3.29,8.65,8.18,8.65s8.07-3.48,8.07-8.65V266.68a1.1,1.1,0,0,1,1.18-1.19H85c6.83,0,11.25,4.1,11.25,10.44S91.79,286.24,85,286.24Z" style="fill:#fb1d32"/></g></g></svg>