<?xml version="1.0" encoding="UTF-8" standalone="no"?>
<!-- Created with Inkscape (http://www.inkscape.org/) -->

<svg
   width="178.77994mm"
   height="178.77994mm"
   viewBox="0 0 178.77994 178.77994"
   version="1.1"
   id="svg5"
   inkscape:version="1.1.2 (b8e25be833, 2022-02-05)"
   sodipodi:docname="RT Balkan.svg"
   xmlns:inkscape="http://www.inkscape.org/namespaces/inkscape"
   xmlns:sodipodi="http://sodipodi.sourceforge.net/DTD/sodipodi-0.dtd"
   xmlns="http://www.w3.org/2000/svg"
   xmlns:svg="http://www.w3.org/2000/svg">
  <sodipodi:namedview
     id="namedview7"
     pagecolor="#ffffff"
     bordercolor="#666666"
     borderopacity="1.0"
     inkscape:pageshadow="2"
     inkscape:pageopacity="0.0"
     inkscape:pagecheckerboard="0"
     inkscape:document-units="mm"
     showgrid="false"
     inkscape:zoom="0.64052329"
     inkscape:cx="266.1886"
     inkscape:cy="424.65279"
     inkscape:window-width="1920"
     inkscape:window-height="1017"
     inkscape:window-x="-8"
     inkscape:window-y="-8"
     inkscape:window-maximized="1"
     inkscape:current-layer="layer1" />
  <defs
     id="defs2">
    <style
       id="style894">.cls-1{fill:#63bd2b;}.cls-2{fill-rule:evenodd;}.cls-3{fill:#fff;}</style>
  </defs>
  <g
     inkscape:label="Layer 1"
     inkscape:groupmode="layer"
     id="layer1"
     transform="translate(-30.194873,-0.45356259)">
    <g
       id="Layer_1-2"
       data-name="Layer 1"
       transform="matrix(0.59593312,0,0,0.59593312,30.194873,0.45356259)">
      <rect
         class="cls-1"
         width="300"
         height="300"
         id="rect900"
         x="0"
         y="0" />
      <path
         class="cls-2"
         d="m 167.5,92.64 v 10.29 a 26.85,26.85 0 0 0 -2.44,-2.86 25.26,25.26 0 0 0 -17,-7.38 c -0.85,0 -1.65,0 -2.49,0 H 40.29 v 87.75 h 50.19 v -37 h 14.69 l 25.64,37 h 52.84 l -28.76,-38.23 a 25.37,25.37 0 0 0 12.93,-38.77 h 41.73 v 77 h 50.2 v -77 H 300 V 92.64 Z M 122.3,118 a 14.72,14.72 0 0 1 -13.88,14.63 H 90.48 v -29.26 h 17.94 A 14.74,14.74 0 0 1 122.3,118 Z"
         id="path902" />
      <rect
         y="290"
         width="10"
         height="10"
         id="rect904"
         x="0" />
      <rect
         x="20"
         y="270"
         width="10"
         height="10"
         id="rect906" />
      <rect
         x="280"
         y="280"
         width="10"
         height="10"
         id="rect908" />
      <rect
         x="10"
         y="260"
         width="10"
         height="10"
         id="rect910" />
      <rect
         x="10"
         y="280"
         width="10"
         height="10"
         id="rect912" />
      <rect
         x="270"
         y="270"
         width="10"
         height="10"
         id="rect914" />
      <rect
         x="290"
         y="250"
         width="10"
         height="10"
         id="rect916" />
      <rect
         x="280"
         y="260"
         width="10"
         height="10"
         id="rect918" />
      <rect
         y="250"
         width="10"
         height="10"
         id="rect920"
         x="0" />
      <polygon
         class="cls-2"
         points="20,250 20,260 30,260 30,270 40,270 40,280 30,280 30,290 20,290 20,300 280,300 280,290 270,290 270,280 260,280 260,270 270,270 270,260 280,260 280,250 "
         id="polygon922" />
      <rect
         x="290"
         y="290"
         width="10"
         height="10"
         id="rect924" />
      <path
         class="cls-3"
         d="m 80.57,276.27 a 5.81,5.81 0 0 0 -2.16,-1.67 6.21,6.21 0 0 0 1.75,-1.37 5.32,5.32 0 0 0 1.26,-3.7 5.77,5.77 0 0 0 -2,-4.51 8.37,8.37 0 0 0 -5.66,-1.74 h -9.5 v 23.44 h 9.82 a 8.37,8.37 0 0 0 5.77,-1.86 6.13,6.13 0 0 0 2.08,-4.75 5.86,5.86 0 0 0 -1.36,-3.84 m -5.06,-4.22 a 3.55,3.55 0 0 1 -2.37,0.69 h -3.85 v -5.22 h 3.79 a 3.57,3.57 0 0 1 2.44,0.7 2.37,2.37 0 0 1 0.77,1.89 2.42,2.42 0 0 1 -0.78,1.94 m -6.22,4.7 h 4.08 a 3.82,3.82 0 0 1 2.56,0.79 2.59,2.59 0 0 1 0.9,2.12 2.51,2.51 0 0 1 -0.85,2 3.88,3.88 0 0 1 -2.55,0.74 h -4.14 z"
         id="path926" />
      <path
         class="cls-3"
         d="m 106.21,263.28 h -5.28 l -8.57,23.44 h 5.3 l 1.83,-5.21 h 8.13 l 1.8,5.21 h 5.36 z m -5.27,14.09 2.6,-7.5 2.63,7.5 z"
         id="path928" />
      <polygon
         class="cls-3"
         points="131.24,263.28 126.2,263.28 126.2,286.72 141.21,286.72 141.21,282.58 131.24,282.58 "
         id="polygon930" />
      <polygon
         class="cls-3"
         points="158.61,286.72 158.61,278.36 160.24,276.59 166.49,286.72 172.62,286.72 163.84,272.74 172.62,263.28 166.28,263.28 158.61,271.66 158.61,263.28 153.58,263.28 153.58,286.72 "
         id="polygon932" />
      <path
         class="cls-3"
         d="m 196,263.28 h -5.27 l -8.57,23.44 h 5.29 l 1.83,-5.21 h 8.13 l 1.8,5.21 h 5.36 z m -5.27,14.09 2.6,-7.5 2.63,7.5 z"
         id="path934" />
      <polygon
         class="cls-3"
         points="230.92,286.72 235.74,286.72 235.74,263.28 230.71,263.28 230.71,278.08 220.83,263.28 216.01,263.28 216.01,286.72 221.04,286.72 221.04,271.95 "
         id="polygon936" />
      <rect
         class="cls-3"
         x="280"
         y="250"
         width="10"
         height="10"
         id="rect938" />
      <rect
         class="cls-3"
         x="270"
         y="260"
         width="10"
         height="10"
         id="rect940" />
      <rect
         class="cls-3"
         x="260"
         y="270"
         width="10"
         height="10"
         id="rect942" />
      <rect
         class="cls-3"
         x="270"
         y="280"
         width="10"
         height="10"
         id="rect944" />
      <rect
         class="cls-3"
         x="280"
         y="290"
         width="10"
         height="10"
         id="rect946" />
      <rect
         class="cls-3"
         x="10"
         y="250"
         width="10"
         height="10"
         id="rect948" />
      <rect
         class="cls-3"
         x="20"
         y="260"
         width="10"
         height="10"
         id="rect950" />
      <rect
         class="cls-3"
         x="30"
         y="270"
         width="10"
         height="10"
         id="rect952" />
      <rect
         class="cls-3"
         x="20"
         y="280"
         width="10"
         height="10"
         id="rect954" />
      <rect
         class="cls-3"
         x="10"
         y="290"
         width="10"
         height="10"
         id="rect956" />
    </g>
  </g>
</svg>
