<?xml version="1.0" encoding="UTF-8" standalone="no"?>
<svg
   xmlns:dc="http://purl.org/dc/elements/1.1/"
   xmlns:cc="http://creativecommons.org/ns#"
   xmlns:rdf="http://www.w3.org/1999/02/22-rdf-syntax-ns#"
   xmlns:svg="http://www.w3.org/2000/svg"
   xmlns="http://www.w3.org/2000/svg"
   xml:space="preserve"
   style="enable-background:new 0 0 80 80;"
   viewBox="0 0 80 80"
   y="0px"
   x="0px"
   id="Layer_1"
   version="1.1"><metadata
     id="metadata3789"><rdf:RDF><cc:Work
         rdf:about=""><dc:format>image/svg+xml</dc:format><dc:type
           rdf:resource="http://purl.org/dc/dcmitype/StillImage" /><dc:title>RT_France</dc:title></cc:Work></rdf:RDF></metadata><defs
     id="defs3787" /><style
     id="style3764"
     type="text/css">
	.st0{fill:#62BB46;}
	.st1{fill:#FFFFFF;}
</style><title
     id="title3766">RT_France</title><rect
     id="rect3768"
     height="80"
     width="80"
     class="st0" /><path
     id="path3770"
     d="M44.5,21.4v2.8c-0.2-0.3-0.4-0.5-0.7-0.8c-1.2-1.2-2.8-1.9-4.5-2H10.5v23.5h13.4v-9.9h3.9l6.9,9.9h14.1  l-7.7-10.2c3.6-1.1,5.5-5,4.4-8.5c-0.2-0.7-0.5-1.3-0.9-1.8h11.2v20.6h13.4V24.2H80v-2.9H44.5z M32.4,28.2c0,1-0.4,2-1.1,2.8  c-0.7,0.7-1.6,1.1-2.6,1.2h-4.8v-7.8h4.8c1,0.1,1.9,0.5,2.6,1.1C32,26.1,32.4,27.1,32.4,28.2z"
     class="st1" /><path
     id="path3772"
     d="M12.9,52.4v2.8h4.5v2h-4.5v4.6h-2.2V50.4h7.5v2L12.9,52.4z"
     class="st1" /><path
     id="path3774"
     d="M26.1,61.8l-2.2-4.5h-1.6v4.5h-2.2V50.4h4.5c1.9-0.1,3.5,1.3,3.7,3.2c0,0.1,0,0.2,0,0.3c0,0.9-0.3,1.7-1,2.3  c-0.3,0.3-0.7,0.5-1.1,0.7l2.5,4.9L26.1,61.8z M24.4,55.4c0.8,0,1.5-0.7,1.5-1.5s-0.7-1.5-1.5-1.5h-2.1v3H24.4z"
     class="st1" /><path
     id="path3776"
     d="M37.7,61.8l-0.7-2h-4l-0.7,2H30l4.1-11.4h1.8L40,61.8H37.7z M35,53.8L33.6,58h2.8L35,53.8z"
     class="st1" /><path
     id="path3778"
     d="M48.5,61.8l-4.5-7v7h-2.2V50.4h2l4.5,7v-7h2.2v11.4H48.5z"
     class="st1" /><path
     id="path3780"
     d="M58.7,61.6c-0.5,0.2-1.1,0.3-1.7,0.3c-1.2,0-2.3-0.4-3.1-1.3c-1.1-1.1-1.1-2.6-1.1-4.5v-0.5  c0-2.3,0.2-3.2,1.1-4.1c0.8-0.8,1.9-1.3,3.1-1.3c0.6,0,1.1,0.1,1.7,0.3c0.6,0.2,1.1,0.6,1.5,1l-1.5,1.5c-0.4-0.5-1-0.8-1.7-0.8  c-0.5,0-1.1,0.2-1.4,0.6c-0.6,0.6-0.6,1.8-0.6,2.9v0.6c0,1.8,0.1,2.4,0.6,2.9c0.4,0.4,0.9,0.6,1.4,0.6c0.7,0,1.3-0.3,1.7-0.8  l1.5,1.5C59.8,61,59.3,61.4,58.7,61.6z"
     class="st1" /><path
     id="path3782"
     d="M62.2,61.8V50.4h7.5v2h-5.3v2.7h4.5v2h-4.5v2.8h5.3v2L62.2,61.8z"
     class="st1" /></svg>