<svg xmlns="http://www.w3.org/2000/svg" width="693.506" height="140" viewBox="0 0 693.506 140">
  <g>
    <g>
      <path d="M239.924,121.985A40.735,40.735,0,0,1,199.4,86.905h38.486c4.247,0,13.52.9,13.52.9V70.763s-9.087.677-14.165.677H199.4c3.822-20.159,20.4-34.072,40.521-34.072,10.6,0,23.659,4.86,23.659,4.86l.227-17.945s-9.25-3.505-23.886-3.505c-33.872,0-63.486,25.851-63.486,58.8,0,35.646,29.614,59.726,63.486,59.726,15.9,0,25.409-4.262,25.409-4.262l-.443-18.532s-11.736,5.478-24.966,5.478" fill="#1076db"/>
      <path d="M124.733,138.847a128.313,128.313,0,0,0,1.288-16.126V40.932h-5.54c-7.53,0-19.207,0-27.812.848l-.736-18.991h89.815l-.44,18.991c-8.868-.848-20.322-.848-28.075-.848h-6.818v81.789a110.949,110.949,0,0,0,1.5,16.126Z" fill="#1076db"/>
      <path d="M263.983,13.315a88.559,88.559,0,0,0-22.493-3.153c-19.727,0-36.7,5.98-50.9,18.6l.219-13.94C205.834,4.587,222.872,0,241.49,0A86.635,86.635,0,0,1,264.2,3.062Z" fill="#1076db"/>
      <path d="M38.657,79.133H21.922V36.925s8.141-.213,17.86-.213c1.452,0,2.852.091,4.119.182C59.486,38.158,65.93,46.629,65.93,56.856c0,11.437-9.059,20.116-22.029,21.951a37.3,37.3,0,0,1-5.244.326M84.5,122.956,53.316,92.88C72.5,91.034,88.647,76.9,88.647,58.589,88.647,39.1,77.4,21.834,43.9,20.463c-1.376-.09-2.833-.123-4.337-.123-23.2,0-39.1,1.1-39.1,1.1S1.518,32.892,1.518,38.665v84.291A100.28,100.28,0,0,1,0,138.847H23.419a108.264,108.264,0,0,1-1.5-17.417V87.124L43.9,110.132l11.125,11.512c6.876,7.5,18.823,17.2,18.823,17.2H104.8s-13.851-9.708-20.3-15.891" fill="#1076db"/>
    </g>
    <g>
      <path d="M395.741,117.365V21.85H406.8V137.791h-9.208L325.443,37.859v99.932H314.406V21.85h12.877Z" fill="#1076db"/>
      <path d="M501.563,110.548C497.693,128.771,484.447,140,464.938,140c-23.186,0-40.489-16.393-40.489-41.044,0-25.211,17.122-43.247,39.759-43.247,25.026,0,37.539,18.036,37.539,39.758v5.153H436.052c.728,17.657,13.059,30.183,28.886,30.183,14.724,0,23.747-7.372,27.057-21.546ZM489.787,92.7c-.371-14.717-8.65-28.15-25.579-28.15-15.83,0-26.14,13.251-27.978,28.15Z" fill="#1076db"/>
      <path d="M588.236,122.7h.739l19.692-64.788h10.672l-25.4,79.879H583.272L564.681,74.118h-.73l-18.413,63.673H534.869L509.285,57.912h11.223L540.572,122.7h.733l18.4-64.788h9.76Z" fill="#1076db"/>
      <path d="M635.524,109.636c1.659,13.8,11.04,21.53,26.326,21.53,12.334,0,20.984-4.6,20.984-13.988,0-8.828-6.266-11.6-17.5-13.618l-13.795-2.39c-13.99-2.4-22.634-8.834-22.634-21.717,0-14.355,11.957-23.744,29.441-23.744,20.618,0,32.581,9.762,33.867,28.721l-8.653.736c-2.022-14.361-10.48-20.618-25.214-20.618-11.4,0-18.954,5.153-18.954,13.608,0,7.735,4.6,11.6,14.545,13.246l14.713,2.4c15.643,2.583,24.854,8.1,24.854,22.283,0,15.635-13.983,23.915-31.474,23.915-19.32,0-34.238-9.57-35.521-29.26Z" fill="#1076db"/>
    </g>
  </g>
</svg>
