<?xml version="1.0" encoding="utf-8"?>
<!-- Generator: Adobe Illustrator 24.1.0, SVG Export Plug-In . SVG Version: 6.00 Build 0)  -->
<svg version="1.1" id="Layer_1" xmlns="http://www.w3.org/2000/svg" xmlns:xlink="http://www.w3.org/1999/xlink" x="0px" y="0px"
	 viewBox="0 0 2671.9 1135.5" style="enable-background:new 0 0 2671.9 1135.5;" xml:space="preserve">
<style type="text/css">
	.st0{fill:#79AA0B;}
	.st1{fill:#1B702E;}
	.st2{fill:#FFFFFF;}
</style>
<path class="st0" d="M173.8,104c22.2-12.6,47.8-19,73.3-18.3l704.7,0.1c33.2,2.1,65.6,16,89.4,39.3c25.6,24.6,41.2,59.5,41.2,95.1
	l-0.2,80.1c-90.4,0-180.9,0-271.3,0c-0.3,9.4,0.1,18.7-0.2,28.1c-6.1-3.2-12-6.8-18.4-9.5c-18.2-7.8-37.6-12.2-57.1-14.9
	c-21.9-3-44-3.8-66.1-3.8c-143.4,0-286.8,0-430.2,0l-0.1,494.8c0.2,12.5-0.3,25.1,0.3,37.7h163.9l0.1-183.6l97.1-0.1
	c2.2,0.1,4.8-0.2,6.3,1.8l180.1,180.8c1.1,1.3,2.9,1,4.5,1.2l181.3-0.1c-6.2-7.1-13.2-13.3-19.7-20.1L689.9,649.3
	c21.8-0.2,43.8,0.8,65.2-3.9c33.8-6.5,65.6-25.4,84.9-54.1c18.9-27.7,25-62,25-95c-0.3-24.9,1.1-49.9-1.9-74.6l176.1,0
	c0.8,9.9,0.1,19.8,0.3,29.7l0,381.6l42.7,0c0.4,23.4,0.1,46.9,0.2,70.4c0.2,15.6-2.3,31.2-7.5,45.9c-10.8,30.8-33.2,57.3-61.6,73.4
	c-18.5,10.6-39.4,16.7-60.6,18.4c-20.9,0.7-41.8,0.1-62.7,0.3h-629c-13-0.1-26.2,0.5-39.1-1.7c-30.4-4.5-59.2-19.4-80.4-41.8
	c-17.8-18.4-30-42-35-67c-2.3-11.7-2.7-23.6-2.5-35.4l0-669c-0.3-16.9,2.2-34,8-49.9C123.2,145.9,145.6,119.9,173.8,104L173.8,104z
	 M2084.1,110.2c41.2-16.5,85.8-23.8,130-24.4c72.9-1.7,147.1,17.4,207.4,59c25.6,17.6,48.3,39.4,66.4,64.6
	c20,27.8,35.2,59.3,43.4,92.6c5.9,23.9,8.8,48.6,8.8,73.2c0,41.6-5.8,83.9-22.9,122.1c-3.1,6.4-5.8,13.1-9.7,19.1
	c1.7-7.1,5.2-13.6,7.2-20.6c12.9-39.5,14.3-82.6,4.7-123c-8.1-33-23.7-64.2-45.5-90.4c-22.9-27.6-52.3-49.7-85.3-63.7
	c-35.5-15.2-75-20.8-113.4-16.5c-50.4,5.4-98.6,28.7-134.3,64.7c-9.2,9.3-18.1,19.2-24.9,30.4c-20.4,27.9-33.2,60.8-38.9,94.8
	c-2.3,13.3-4.1,26.7-4.9,40.1c-1.6,17.3-17.6,31.5-35,31.2l-150.9-0.3c-1.9-44.8,2.2-89.9,13.6-133.4c9.3-36.3,24.1-71.2,44.1-102.9
	c15.2-24,33.6-46.2,55.1-64.9C2024.1,140.1,2053.1,122.7,2084.1,110.2L2084.1,110.2z M403.2,421.6l163.9,0c25.4,0.2,51-1,76.1,3.5
	c13.4,2.6,27.6,6.4,37.6,16.4c6.8,7.4,13.5,15.3,17.3,24.7c2.3,5.4,2.3,11.6,0.1,17.1c-3.9,9.6-10.7,17.8-17.8,25.2
	c-9.9,9.6-23.7,13.4-36.9,16c-23.5,4.3-47.6,3.4-71.4,3.5c-56.3,0-112.7,0-169,0l-0.2-82.8C403.1,437.4,402.7,429.5,403.2,421.6
	L403.2,421.6z M2225.1,566.3c11.3-7.2,21.9-15.5,32.8-23.2c-2.5,4.1-6.3,7.1-9.6,10.4c-30.8,30.5-59.1,63.7-83.3,99.7
	c-19.9,29.8-37.1,61.9-47.9,96.2c-11.5,35.8-15,74.8-5.7,111.6l1.4,0.3c4,0.8,8.2,0.4,12.3,0.4h433.8l-44.7,116.8
	c-11.7,29.8-38.7,52.8-69.9,60.1c-14.1,3.6-28.8,2.6-43.2,2.7c-178.6,0-357.3,0-536,0c-1.1-47,2.8-94.7,17.1-139.8
	c10.2-31.2,24.8-60.9,42.7-88.3c19.8-30.1,44.3-56.8,70.6-81.3c26.8-25,56.7-46.2,86.3-67.7C2128.9,630.5,2176.2,597.1,2225.1,566.3
	L2225.1,566.3z M2474.3,567.5c3.6-4.4,6.5-9.5,11-13.2c-3.9,6.9-9.3,12.9-14.2,19c-2.1,2.6-4.4,5.1-7,7.2
	C2466.8,575.7,2470.8,571.8,2474.3,567.5L2474.3,567.5z"/>
<path class="st1" d="M951.8,85.9l152.3-0.2h489c12.7,0.2,25.5-0.8,38.2,1.3c34.9,4.4,68,22.5,90.2,49.9
	c19.3,23.3,30.3,53.2,30.6,83.4l0,682c0.3,19.6-3.6,39.4-11.7,57.3c-12.6,28.3-35.3,51.9-62.9,66c-15.6,8.1-32.8,13.2-50.3,14.9
	c-9.3,1-18.6,0.8-28,0.8c-204,0-408,0-612,0c-11.4-0.1-22.9,0.1-34.3-0.3c21.2-1.6,42.1-7.8,60.6-18.4
	c28.4-16.1,50.8-42.6,61.6-73.4c5.2-14.7,7.7-30.3,7.5-45.9l-0.2-70.4l117.4,0V468.3l0.2-46.7l203.2,0c11.9-0.1,23.8,0.3,35.6-0.2
	v-121l-356.5-0.1l0.2-80.1c-0.1-35.6-15.6-70.5-41.2-95.1C1017.3,101.9,984.9,88,951.8,85.9L951.8,85.9z M1466.8,300.4l-0.1,499.9
	c0.2,10.9-0.4,21.8,0.3,32.7l160.6-0.1l0.7-188.6l0.1-171l-0.1-172.9L1466.8,300.4L1466.8,300.4z M2275.1,202.3
	c38.4-4.3,77.9,1.3,113.4,16.5c33,14,62.4,36.1,85.3,63.7c21.8,26.1,37.4,57.3,45.5,90.4c9.7,40.4,8.2,83.5-4.7,123
	c-2,7-5.5,13.5-7.2,20.6c-1.6,5.2-5.2,9.5-7.6,14.5c-4.4,8-8.5,16.4-14.6,23.2c-4.4,3.7-7.4,8.8-11,13.2c-3.4,4.3-7.5,8.2-10.3,13
	c-6,8.2-14.4,14.1-21.6,21.2c-23.2,22.5-48.9,42.3-75.8,60.2l-95.1,63c-30.6,20.4-60.3,42-88.8,65.2c-15.5,12.8-29.9,26.7-43.4,41.6
	c-8.8,9.9-18.2,19.3-26.5,29.6l-1.4-0.3c-9.3-36.7-5.8-75.7,5.7-111.6c10.8-34.3,28-66.3,47.9-96.2c24.2-36,52.5-69.2,83.3-99.7
	c3.3-3.4,7.1-6.4,9.6-10.4c2.3-3.1,5.7-4.9,8.5-7.5l17.1-15c14.2-13.3,26.8-28.2,37.5-44.5c7.3-10.9,13.8-22.4,18.1-34.8
	c7.1-19.8,9.1-41.1,8-62c-0.9-19-4.6-38-12.5-55.4c-12.3-27.4-35.8-49.1-63.3-60.8c-18.3-7.7-38.3-10.9-58.1-10.8
	c-19.5-0.1-39.3,3.3-56.7,12.3c-10,5.2-19.1,12-27.4,19.7c-4.8,4-8.3,9.3-13.2,13.1c6.9-11.2,15.7-21.1,24.9-30.4
	C2176.5,231.1,2224.7,207.7,2275.1,202.3L2275.1,202.3z"/>
<path class="st2" d="M238.8,300.4l430.2,0c22.1,0,44.2,0.8,66.1,3.8c19.5,2.7,39,7.1,57.1,14.9c6.4,2.6,12.3,6.3,18.4,9.5
	c0.2-9.4-0.1-18.8,0.2-28.1l627.8,0v121c-11.9,0.5-23.8,0.1-35.6,0.2c-67.7,0-135.4,0-203.2,0c-0.5,15.5-0.1,31.1-0.2,46.7l0,364.6
	c-39.2,0-78.3,0-117.4,0c-14.2-0.1-28.5,0-42.7,0l0-381.6c-0.2-9.9,0.4-19.8-0.3-29.7l-176.1,0c3,24.8,1.6,49.8,1.9,74.6
	c0,33-6.2,67.3-25,95c-19.4,28.7-51.2,47.7-84.9,54.1c-21.4,4.7-43.4,3.8-65.2,3.9l162.7,163.4c6.5,6.8,13.5,13,19.7,20.1
	c-60.4,0.2-120.9,0-181.3,0.1c-1.6-0.1-3.4,0.1-4.5-1.2L506.4,651c-1.5-2-4.1-1.7-6.3-1.8c-32.4,0.1-64.7-0.1-97.1,0.1L402.9,833
	c-54.6,0-109.3,0-163.9,0c-0.6-12.5-0.1-25.1-0.3-37.7L238.8,300.4L238.8,300.4z M403.2,421.6c-0.5,7.9-0.1,15.8-0.2,23.7l0.2,82.8
	h169c23.8-0.1,47.8,0.8,71.4-3.5c13.2-2.6,27-6.3,36.9-16c7.1-7.5,13.9-15.6,17.8-25.2c2.2-5.4,2.2-11.7-0.1-17.1
	c-3.8-9.4-10.5-17.3-17.3-24.7c-9.9-10-24.1-13.8-37.6-16.4c-25.1-4.6-50.7-3.3-76.1-3.5C512.5,421.6,457.8,421.7,403.2,421.6
	L403.2,421.6z M1466.8,300.4h161.6l0.1,172.9l-0.1,171l-0.7,188.6c-53.5,0.1-107.1-0.1-160.6,0.1c-0.8-10.9-0.1-21.8-0.3-32.7
	L1466.8,300.4L1466.8,300.4z"/>
</svg>
