<?xml version="1.0" encoding="UTF-8" standalone="no"?>
<svg
   version="1.1"
   viewBox="0 0 680 226.67358"
   xml:space="preserve"
   id="svg4834"
   xmlns="http://www.w3.org/2000/svg"
   xmlns:svg="http://www.w3.org/2000/svg"><defs
     id="defs2631" /><path
     id="polygon2392"
     d="M 679.99999,119.65167 V 0 H 467.48589 V 119.65167 Z"
     style="fill:#ffbf1f;fill-opacity:1" /><path
     id="polygon2394"
     d="M 533.53089,92.15417 V 27.51166 H 548.27839 V 79.40417 H 613.95499 V 92.15417 Z"
     style="fill:#ffffff" /><path
     id="polygon2396"
     d="M 446.24999,119.65167 V 0 H 233.73584 V 119.65167 Z"
     style="fill:#f0c104;fill-opacity:1" /><path
     id="polygon2398"
     d="M 295.26168,40.2475 V 27.51166 H 384.73834 V 40.2475 H 347.38084 V 92.15417 H 332.61918 V 40.2475 Z"
     style="fill:#ffffff" /><path
     id="polygon2400"
     d="M 212.51417,119.65167 V 0 H 0 V 119.65167 Z"
     style="fill:#ffe266;fill-opacity:1" /><path
     d="M 115.06665,57.42735 C 124.20005,57.42735 128.62497,54.47234 128.62497,48.4677 128.62497,42.46736 124.20004,39.60268 115.06665,39.60268 H 75.12629 V 57.42735 Z M 60.36936,27.50737 H 117.00416 C 134.2528,27.50737 143.84587,35.26265 143.84587,48.28274 143.84587,59.45757 136.64999,66.93757 124.38477,68.69251 L 152.14583,92.15191 H 130.83744 L 104.73465,69.52696 H 75.12629 V 92.15191 H 60.36936 Z"
     id="path2402"
     style="fill:#ffffff" /><path
     d="M 234.46996,222.71046 C 229.9436,220.08108 226.43753,216.32755 223.95174,211.45939 221.46595,206.59123 220.22306,200.89424 220.22306,194.37796 220.22306,187.86167 221.4474,182.15516 223.90536,177.25842 226.36332,172.36168 229.85085,168.57956 234.37721,165.92161 238.90357,163.26365 244.16268,161.9299 250.15454,161.9299 255.00553,161.9299 259.41132,162.854 263.37188,164.71171 267.32317,166.5599 270.51388,169.15117 272.94402,172.46647 275.37415,175.78177 276.79328,179.59247 277.21067,183.89855 H 265.97825 C 265.44028,180.24981 263.74289,177.35368 260.89537,175.20064 258.04784,173.0476 254.46757,171.97108 250.15454,171.97108 244.33891,171.97108 239.77545,173.96217 236.4456,177.93482 233.11576,181.90746 231.45548,187.39486 231.45548,194.38748 231.45548,201.32294 233.11576,206.75318 236.4456,210.70677 239.77545,214.65084 244.36673,216.62288 250.24729,216.62288 255.04264,216.62288 258.91045,215.30819 261.84145,212.67881 264.78173,210.04943 266.45129,206.49596 266.87795,202.00887 H 252.40844 V 192.1487 H 278.0269 V 198.42682 C 278.0269,204.04759 276.86748,208.97291 274.5672,213.22183 272.25764,217.47075 269.01128,220.767 264.81883,223.12963 260.62638,225.49226 255.76611,226.67358 250.25657,226.67358 244.25543,226.65452 238.99632,225.33984 234.46996,222.71046 Z"
     id="path1964" /><path
     d="M 299.55493,222.57708 C 294.90799,219.86196 291.31844,216.05127 288.76773,211.145 286.21701,206.24826 284.94629,200.62749 284.94629,194.29221 284.94629,187.89978 286.21701,182.25042 288.76773,177.35368 291.31844,172.45694 294.90799,168.65578 299.55493,165.96924 304.20187,163.2827 309.51664,161.93943 315.5085,161.93943 321.50036,161.93943 326.81512,163.30175 331.46206,166.01687 336.109,168.74152 339.69855,172.54268 342.24927,177.44895 344.79998,182.34569 346.0707,187.96646 346.0707,194.30174 346.0707,200.63702 344.79998,206.25779 342.24927,211.15453 339.69855,216.05127 336.109,219.86196 331.46206,222.58661 326.81512,225.31126 321.50036,226.66405 315.5085,226.66405 309.51664,226.65452 304.1926,225.30173 299.55493,222.57708 Z M 329.66265,210.61151 C 333.10379,206.61028 334.82901,201.17052 334.82901,194.29221 334.82901,187.35675 333.10379,181.90746 329.66265,177.93482 326.21223,173.96217 321.50036,171.97108 315.5085,171.97108 309.51664,171.97108 304.79549,173.96217 301.35435,177.93482 297.90393,181.90746 296.18799,187.36628 296.18799,194.29221 296.18799,201.16099 297.9132,206.60075 301.35435,210.61151 304.79549,214.61273 309.51664,216.61335 315.5085,216.61335 321.50036,216.61335 326.21223,214.61273 329.66265,210.61151 Z"
     id="path1966" /><path
     d="M 397.5766,225.67327 H 356.58892 V 162.92068 H 367.64512 V 215.8131 H 397.5766 Z"
     id="path1968" /><path
     d="M 406.29541,225.67327 V 162.92068 H 429.48373 C 435.54052,162.92068 440.83673,164.21632 445.39091,166.81712 449.9451,169.41792 453.479,173.07618 456.00189,177.80144 458.5155,182.5267 459.77695,188.02362 459.77695,194.29221 459.77695,200.44648 458.50623,205.9053 455.95551,210.64961 453.4048,215.40345 449.84307,219.0903 445.26106,221.71968 440.67905,224.34906 435.41994,225.66374 429.48373,225.66374 H 406.29541 Z M 428.67677,215.8131 C 435.03037,215.8131 439.92775,213.93634 443.36889,210.16375 446.81004,206.40069 448.53525,201.11335 448.53525,194.29221 448.53525,187.42344 446.81004,182.11705 443.36889,178.38257 439.92775,174.64809 435.0211,172.78085 428.67677,172.78085 H 417.3516 V 215.8131 Z"
     id="path1970" /></svg>
