<?xml version="1.0" encoding="UTF-8" standalone="no"?>
<svg
   version="1.1"
   viewBox="0 0 680 226.66405"
   xml:space="preserve"
   id="svg4834"
   xmlns="http://www.w3.org/2000/svg"
   xmlns:svg="http://www.w3.org/2000/svg"><defs
     id="defs2631" /><path
     id="polygon2392"
     d="M 679.99999,119.65167 V 0 H 467.48589 V 119.65167 Z"
     style="fill:#f0cf01;fill-opacity:1" /><path
     id="polygon2394"
     d="M 533.53089,92.15417 V 27.51166 H 548.27839 V 79.40417 H 613.95499 V 92.15417 Z"
     style="fill:#ffffff" /><path
     id="polygon2396"
     d="M 446.24999,119.65167 V 0 H 233.73584 V 119.65167 Z"
     style="fill:#c73025;fill-opacity:1" /><path
     id="polygon2398"
     d="M 295.26168,40.2475 V 27.51166 H 384.73834 V 40.2475 H 347.38084 V 92.15417 H 332.61918 V 40.2475 Z"
     style="fill:#ffffff" /><path
     id="polygon2400"
     d="M 212.51417,119.65167 V 0 H 0 V 119.65167 Z"
     style="fill:#af175e;fill-opacity:1" /><path
     d="M 115.06665,57.42735 C 124.20005,57.42735 128.62497,54.47234 128.62497,48.4677 128.62497,42.46736 124.20004,39.60268 115.06665,39.60268 H 75.12629 V 57.42735 Z M 60.36936,27.50737 H 117.00416 C 134.2528,27.50737 143.84587,35.26265 143.84587,48.28274 143.84587,59.45757 136.64999,66.93757 124.38477,68.69251 L 152.14583,92.15191 H 130.83744 L 104.73465,69.52696 H 75.12629 V 92.15191 H 60.36936 Z"
     id="path2402"
     style="fill:#ffffff" /><path
     id="path24-0"
     d="M 438.82032,143.28514 432.44033,155.92773 V 156.82227 H 440.79674 L 451.22165,144.17968 V 143.28514 Z M 454.99802,143.28514 448.61591,155.92773 V 156.82227 H 456.97241 L 467.39733,144.17968 V 143.28514 Z M 447.17875,161.93943 C 441.18695,161.93943 435.87157,163.28215 431.22464,165.96873 426.57781,168.65536 422.98768,172.45665 420.43693,177.35351 417.88629,182.25036 416.6156,187.90037 416.6156,194.29296 416.6156,200.62839 417.88629,206.2496 420.43693,211.14647 422.98768,216.05285 426.57781,219.86292 431.22464,222.57811 435.87157,225.30282 441.18695,226.65451 447.17875,226.66405 453.17056,226.66405 458.48406,225.31258 463.13087,222.58787 467.77781,219.86315 471.36794,216.05114 473.91857,211.15429 476.46932,206.25742 477.74001,200.63815 477.74001,194.30271 477.74001,187.9673 476.46932,182.34607 473.91857,177.44921 471.36794,172.54283 467.77781,168.74031 463.13087,166.01562 458.48406,163.30043 453.17056,161.93943 447.17875,161.93943 Z M 205.82809,162.91015 V 225.66403 H 216.88441 V 193.21483 L 242.4086,225.66403 H 254.72761 V 224.76951 L 229.20143,192.76757 253.74333,163.8164 H 253.73354 V 162.91015 H 241.60276 L 216.88441,192.31055 V 162.91015 Z M 263.27031,162.91989 V 225.67382 H 306.05641 V 215.80467 H 274.32466 V 198.23632 H 303.27419 V 188.37693 H 274.32466 V 172.78123 H 306.05641 V 162.91989 Z M 312.53061,162.91989 V 172.78123 H 331.40416 V 225.67382 H 342.46047 342.47025 V 172.78123 H 361.25364 V 162.91989 Z M 364.57308,162.91989 V 172.78123 H 383.44859 V 225.67382 H 394.50493 394.51275 V 172.78123 H 413.29609 V 162.91989 Z M 447.17875,171.97068 C 453.17056,171.97068 457.88253,173.96084 461.33295,177.93358 464.77401,181.90634 466.49938,187.35734 466.49938,194.29296 466.49938,201.17143 464.77401,206.60997 461.33295,210.61132 457.89187,214.61264 453.17056,216.61326 447.17875,216.61326 441.18695,216.61326 436.46565,214.61264 433.02459,210.61132 429.5835,206.60046 427.85815,201.1619 427.85815,194.29296 427.85815,187.36685 429.57418,181.90634 433.02459,177.93358 436.46565,173.96084 441.18695,171.97068 447.17875,171.97068 Z" /></svg>
