<svg width="175" height="20" viewBox="0 0 175 20" fill="none" xmlns="http://www.w3.org/2000/svg">
<g clip-path="url(#clip0_613_6981)">
<path d="M45.8286 17.1714V3.02856H23.7112V17.1714H45.8286ZM41.6889 7.88253L37.6128 7.88888L37.6096 13.7809L31.7112 13.7873C31.7112 12.9428 31.7239 8.12063 31.7239 8.12063C31.7239 8.12063 27.8953 8.11745 27.5397 8.11745L27.5429 6.30793L41.6889 6.30475V7.88253Z" fill="#D0002D"/>
<path d="M47.1523 3.02856V17.1714H69.6952V3.02856H47.1523ZM57.219 6.50793L57.2254 12.0127L65.0031 12.0222V13.4317H51.5238V6.50475L57.219 6.50793Z" fill="#D0002D"/>
<path d="M22.2127 17.1746V3.02856L0.0952148 3.07301V17.1714H22.2127V17.1746ZM14.7714 10.9302C15.0571 11.1302 18.7301 13.7619 18.7301 13.7619L12.8222 13.7682C12.7143 13.6762 9.80632 11.3143 9.80632 11.3143L9.07616 11.3111C9.07616 11.4952 9.06664 13.4794 9.06664 13.7936L3.25712 13.7905L3.26347 6.23809C3.64442 6.23809 14.3873 6.22222 14.8666 6.24126C15.4825 6.26349 17.292 6.42221 17.3174 8.44126C17.3492 10.9365 14.7714 10.9302 14.7714 10.9302V10.9302ZM9.02855 9.7238L11.5714 9.72063L11.6063 9.70475C11.8539 9.58412 12.0158 9.3492 12.0603 9.06666C12.0698 8.99999 12.073 8.93332 12.0698 8.86348C12.0603 8.64126 11.9778 8.44444 11.8444 8.29523C11.8412 8.28888 11.8349 8.28571 11.8317 8.27936C11.8222 8.26983 11.8158 8.26031 11.8063 8.25396C11.8095 8.25713 11.8158 8.26348 11.819 8.26666C11.7206 8.1619 11.619 8.1111 11.5619 8.08888C11.5651 8.08888 11.5651 8.08888 11.5682 8.09205C11.5555 8.08571 11.5428 8.07936 11.5301 8.07618L11.5016 8.06666H9.02537V9.7238H9.02855ZM12.019 8.61269C12.019 8.61586 12.019 8.61587 12.0222 8.61904C12.019 8.60952 12.0158 8.59999 12.0127 8.59047C12.0127 8.59682 12.0158 8.60317 12.019 8.61269V8.61269Z" fill="#D0002D"/>
<path d="M69.6921 0.292053H71.6032V19.9143H69.6921V0.292053Z" fill="black"/>
<path d="M91.0445 15.0159H86.7017V13.0064H87.3779V9.33652H86.7175V7.34287H89.6033L90.0636 8.32382C90.1652 8.13969 90.2731 7.96509 90.3874 7.80319C90.4985 7.63811 90.6414 7.49525 90.816 7.36509C90.9906 7.2381 91.2033 7.13652 91.4604 7.06668C91.7144 6.99684 92.0445 6.95874 92.4414 6.95874V9.72065C91.7461 9.72065 91.2096 9.83493 90.8382 10.0667C90.4636 10.2984 90.2794 10.7492 90.2794 11.4254V13.0064H91.0477V15.0159H91.0445Z" fill="black"/>
<path d="M97.1207 15.2159C96.5683 15.2159 96.035 15.1302 95.5175 14.9619C95 14.7937 94.5429 14.5397 94.1429 14.2C93.7429 13.8635 93.4254 13.4381 93.1905 12.927C92.9556 12.4159 92.8381 11.8222 92.8381 11.1461C92.8381 10.5016 92.9588 9.93018 93.1969 9.43494C93.4381 8.93971 93.7556 8.52066 94.1492 8.18415C94.5429 7.84764 94.9937 7.5905 95.4985 7.4159C96.0064 7.24129 96.5175 7.15558 97.0413 7.15558C97.6445 7.15558 98.2064 7.25082 98.7302 7.43812C99.2508 7.62859 99.7048 7.89843 100.089 8.25082C100.473 8.6032 100.771 9.03494 100.987 9.53971C101.203 10.0445 101.311 10.6222 101.311 11.2667C101.311 11.9016 101.2 12.4603 100.981 12.9461C100.762 13.4318 100.46 13.8445 100.083 14.181C99.7048 14.5175 99.2604 14.7746 98.7556 14.9492C98.2508 15.127 97.7048 15.2159 97.1207 15.2159V15.2159ZM97.1207 13.2508C97.2826 13.2508 97.4286 13.2 97.5588 13.0984C97.6858 12.9968 97.7969 12.854 97.8889 12.6699C97.981 12.4857 98.0508 12.2699 98.0953 12.0191C98.1429 11.7683 98.1651 11.4984 98.1651 11.2127C98.1651 10.927 98.1397 10.6572 98.0889 10.4064C98.0381 10.1556 97.9651 9.93971 97.8731 9.75558C97.781 9.57145 97.6667 9.42542 97.527 9.31748C97.3905 9.20955 97.2286 9.15558 97.0445 9.15558C96.8921 9.15558 96.7492 9.20637 96.6223 9.30796C96.4953 9.40955 96.3842 9.5524 96.2921 9.73653C96.2 9.92066 96.127 10.1365 96.0699 10.381C96.0127 10.6254 95.9842 10.8889 95.9842 11.1651C95.9842 11.8 96.0921 12.3048 96.308 12.6857C96.5238 13.0603 96.7937 13.2508 97.1207 13.2508V13.2508Z" fill="black"/>
<path d="M102.032 7.98733C102.184 7.89526 102.381 7.78733 102.616 7.66352C102.851 7.53971 103.114 7.42225 103.406 7.30161C103.698 7.18415 104.01 7.08574 104.343 7.00955C104.676 6.93336 105.019 6.89526 105.378 6.89526C105.838 6.89526 106.314 6.94288 106.806 7.0413C107.298 7.13971 107.746 7.30796 108.149 7.54923C108.552 7.7905 108.886 8.11431 109.146 8.52383C109.406 8.93336 109.537 9.44447 109.537 10.0572V13.0508H110.457V15.0159H107.175L106.806 14.327C106.664 14.5207 106.502 14.6826 106.324 14.8095C106.146 14.9365 105.962 15.0381 105.771 15.1111C105.581 15.1842 105.397 15.2318 105.213 15.2635C105.029 15.2953 104.87 15.308 104.737 15.308C104.368 15.308 104.006 15.2572 103.648 15.1556C103.289 15.054 102.968 14.8984 102.679 14.6953C102.394 14.4921 102.162 14.2286 101.981 13.9048C101.803 13.5842 101.711 13.1969 101.711 12.7461C101.711 12.3175 101.797 11.927 101.965 11.5778C102.133 11.2318 102.365 10.9334 102.654 10.6889C102.946 10.4445 103.286 10.254 103.676 10.1207C104.064 9.98733 104.473 9.92066 104.905 9.92066C105.13 9.92066 105.333 9.94288 105.511 9.9905C105.689 10.0381 105.844 10.0889 105.971 10.1524C106.098 10.2127 106.203 10.2762 106.279 10.3365C106.356 10.3968 106.403 10.4381 106.425 10.4603V9.92384C106.425 9.57463 106.286 9.34606 106.013 9.23177C105.737 9.12066 105.387 9.06352 104.968 9.06352C104.508 9.06352 104.086 9.13971 103.702 9.29526C103.318 9.44764 102.978 9.60637 102.679 9.77145L102.032 7.98733ZM105.438 13.3111C105.673 13.3111 105.879 13.254 106.051 13.1429C106.225 13.0286 106.349 12.9175 106.419 12.8064V12.2222C106.41 12.2032 106.384 12.1683 106.349 12.1238C106.314 12.0794 106.26 12.0286 106.187 11.9778C106.118 11.927 106.025 11.8794 105.918 11.8381C105.81 11.7969 105.673 11.7778 105.511 11.7778C105.203 11.7778 104.978 11.854 104.835 12.0095C104.692 12.1619 104.619 12.3588 104.619 12.5937C104.619 12.8095 104.695 12.9842 104.848 13.1143C105.01 13.2445 105.203 13.3111 105.438 13.3111V13.3111Z" fill="black"/>
<path d="M110.917 7.34285H111.746V5.93015L114.571 5.02539V7.34285H116.029V9.3365H114.571V12.0698C114.571 12.1429 114.568 12.2127 114.562 12.2857C114.556 12.3587 114.556 12.4349 114.556 12.5175C114.556 12.7238 114.584 12.9048 114.641 13.0635C114.698 13.2222 114.838 13.3016 115.064 13.3016C115.165 13.3016 115.317 13.273 115.517 13.2159C115.717 13.1587 115.889 13.1016 116.032 13.0381V15.0032C115.917 15.054 115.775 15.0984 115.603 15.1333C115.429 15.1682 115.251 15.1968 115.067 15.219C114.883 15.2381 114.711 15.2571 114.552 15.273C114.394 15.2889 114.27 15.2952 114.178 15.2952C113.606 15.2952 113.159 15.219 112.835 15.0667C112.511 14.9111 112.276 14.6984 112.121 14.4222C111.968 14.146 111.87 13.8095 111.829 13.4095C111.787 13.0095 111.762 12.5651 111.752 12.073V9.33968H110.924V7.34285H110.917Z" fill="black"/>
<path d="M120.94 15.0159H116.641V13.0063H117.286V9.3365H116.641V7.34285H120.2V13.0063H120.937V15.0159H120.94ZM117.073 5.10158C117.073 4.92698 117.108 4.7492 117.181 4.56507C117.251 4.38094 117.359 4.21269 117.495 4.05713C117.632 3.90475 117.806 3.77777 118.016 3.68253C118.225 3.58412 118.464 3.5365 118.73 3.5365C118.997 3.5365 119.235 3.58412 119.445 3.68253C119.654 3.78094 119.832 3.90475 119.975 4.05713C120.118 4.20951 120.229 4.38094 120.305 4.56507C120.381 4.7492 120.419 4.92698 120.419 5.10158C120.419 5.53015 120.276 5.8984 119.991 6.19999C119.705 6.50158 119.286 6.65078 118.733 6.65078C118.486 6.65078 118.267 6.60634 118.067 6.51428C117.867 6.42221 117.692 6.30158 117.546 6.15237C117.397 6.00317 117.283 5.83809 117.2 5.65396C117.114 5.46983 117.073 5.28571 117.073 5.10158V5.10158Z" fill="black"/>
<path d="M121.876 7.98733C122.028 7.89526 122.222 7.78733 122.46 7.66352C122.695 7.53971 122.959 7.42225 123.251 7.30161C123.543 7.18415 123.854 7.08574 124.187 7.00955C124.521 6.93336 124.863 6.89526 125.222 6.89526C125.682 6.89526 126.159 6.94288 126.651 7.0413C127.14 7.13971 127.59 7.30796 127.994 7.54923C128.397 7.7905 128.73 8.11431 128.99 8.52383C129.251 8.93336 129.381 9.44447 129.381 10.0572V13.0508H130.301V15.0159H127.016L126.647 14.327C126.505 14.5207 126.343 14.6826 126.165 14.8095C125.984 14.9365 125.8 15.0381 125.613 15.1111C125.422 15.1842 125.238 15.2318 125.054 15.2635C124.87 15.2953 124.711 15.308 124.578 15.308C124.209 15.308 123.847 15.2572 123.489 15.1556C123.13 15.054 122.809 14.8984 122.524 14.6953C122.238 14.4921 122.003 14.2286 121.825 13.9048C121.647 13.5842 121.555 13.1969 121.555 12.7461C121.555 12.3175 121.641 11.927 121.809 11.5778C121.978 11.2318 122.209 10.9334 122.501 10.6889C122.794 10.4445 123.133 10.254 123.524 10.1207C123.911 9.98733 124.32 9.92066 124.752 9.92066C124.978 9.92066 125.181 9.94288 125.359 9.9905C125.536 10.0381 125.692 10.0889 125.819 10.1524C125.946 10.2127 126.051 10.2762 126.127 10.3365C126.203 10.3968 126.251 10.4381 126.273 10.4603V9.92384C126.273 9.57463 126.133 9.34606 125.86 9.23177C125.584 9.12066 125.235 9.06352 124.816 9.06352C124.355 9.06352 123.933 9.13971 123.549 9.29526C123.165 9.44764 122.825 9.60637 122.53 9.77145L121.876 7.98733ZM125.282 13.3111C125.517 13.3111 125.724 13.254 125.895 13.1429C126.07 13.0286 126.19 12.9175 126.263 12.8064V12.2222C126.254 12.2032 126.232 12.1683 126.194 12.1238C126.159 12.0794 126.105 12.0286 126.032 11.9778C125.959 11.927 125.87 11.8794 125.762 11.8381C125.654 11.7969 125.517 11.7778 125.355 11.7778C125.047 11.7778 124.822 11.854 124.679 12.0095C124.536 12.1619 124.463 12.3588 124.463 12.5937C124.463 12.8095 124.54 12.9842 124.695 13.1143C124.854 13.2445 125.047 13.3111 125.282 13.3111V13.3111Z" fill="black"/>
<path d="M86.1047 13.3842C85.8666 13.6381 85.6031 13.8826 85.3142 14.1143C85.0222 14.3461 84.7047 14.5524 84.3587 14.7302C84.0127 14.908 83.638 15.0476 83.2412 15.1524C82.8412 15.2572 82.419 15.308 81.9714 15.308C81.2444 15.308 80.5841 15.1969 79.9936 14.9746C79.4031 14.7524 78.8984 14.4286 78.4793 14.0064C78.0603 13.5842 77.7365 13.0699 77.5047 12.4635C77.273 11.8603 77.1555 11.1746 77.1555 10.4096C77.1555 9.6286 77.2889 8.92384 77.5523 8.30161C77.8158 7.67939 78.1523 7.15241 78.5619 6.72066C78.9714 6.28892 79.419 5.95876 79.9047 5.73019C80.3904 5.50162 80.8571 5.3905 81.3047 5.3905C81.6412 5.3905 81.9333 5.43177 82.1841 5.51431C82.4349 5.59685 82.6444 5.68892 82.819 5.79368C82.9904 5.89844 83.1269 6.0032 83.2222 6.10796C83.3174 6.21272 83.3777 6.28257 83.4063 6.32066L83.7206 5.55558H85.8634V9.4286H83.4222C83.4126 9.20955 83.3746 8.99685 83.3142 8.78733C83.2507 8.5778 83.1619 8.39368 83.0476 8.23495C82.9333 8.07622 82.7873 7.94923 82.6095 7.85399C82.4317 7.75876 82.2222 7.71114 81.9746 7.71114C81.7301 7.71114 81.5047 7.78098 81.3047 7.92384C81.1047 8.06352 80.9333 8.25717 80.7936 8.50479C80.6539 8.74923 80.5428 9.03495 80.4666 9.36511C80.3904 9.69209 80.3492 10.0413 80.3492 10.4159C80.3492 10.7524 80.3936 11.0762 80.4793 11.3842C80.565 11.6921 80.692 11.9651 80.8603 12.2032C81.0285 12.4413 81.2349 12.6286 81.4825 12.7683C81.7269 12.908 82.0158 12.981 82.3428 12.981C82.6254 12.981 82.892 12.9175 83.1492 12.7905C83.4031 12.6635 83.6253 12.5207 83.819 12.3619C84.0095 12.2032 84.1682 12.054 84.2888 11.9111C84.4127 11.7715 84.4857 11.6826 84.5142 11.6445L86.1047 13.3842Z" fill="black"/>
<path d="M151.27 15.3079C150.768 15.3079 150.283 15.2318 149.813 15.0794C149.343 14.927 148.927 14.6952 148.565 14.3873C148.203 14.0794 147.914 13.6952 147.698 13.2286C147.486 12.7651 147.378 12.2254 147.378 11.6095C147.378 11.0222 147.486 10.5048 147.705 10.054C147.924 9.60318 148.213 9.2254 148.568 8.91746C148.927 8.60953 149.333 8.37778 149.794 8.21905C150.254 8.06032 150.721 7.98096 151.197 7.98096C151.746 7.98096 152.257 8.06667 152.73 8.2381C153.203 8.40953 153.616 8.65715 153.965 8.97778C154.314 9.29842 154.584 9.68889 154.781 10.1492C154.978 10.6095 155.073 11.1333 155.073 11.7175C155.073 12.2952 154.971 12.8032 154.775 13.2444C154.575 13.6857 154.302 14.0603 153.959 14.3683C153.616 14.673 153.213 14.9079 152.752 15.0667C152.295 15.2286 151.8 15.3079 151.27 15.3079ZM151.27 13.5206C151.419 13.5206 151.552 13.473 151.667 13.381C151.784 13.2889 151.883 13.1587 151.968 12.9905C152.051 12.8222 152.114 12.6254 152.156 12.3968C152.197 12.1683 152.219 11.9238 152.219 11.6635C152.219 11.4032 152.197 11.1587 152.149 10.9302C152.102 10.7016 152.038 10.5048 151.956 10.3365C151.873 10.1683 151.768 10.0381 151.641 9.93969C151.517 9.84127 151.371 9.79366 151.203 9.79366C151.064 9.79366 150.937 9.84128 150.819 9.93334C150.705 10.0254 150.603 10.1556 150.521 10.3238C150.438 10.4921 150.368 10.6857 150.317 10.9079C150.267 11.1302 150.241 11.3683 150.241 11.6191C150.241 12.1968 150.34 12.6571 150.533 13C150.727 13.3492 150.971 13.5206 151.27 13.5206V13.5206Z" fill="black"/>
<path d="M159.527 15.1238H155.581V13.2984H156.194V9.96507H155.594V8.15237H158.216L158.635 9.04443C158.727 8.87618 158.825 8.71745 158.927 8.57141C159.029 8.42221 159.159 8.28888 159.317 8.17459C159.476 8.05713 159.67 7.96824 159.902 7.90157C160.133 7.83808 160.432 7.80316 160.794 7.80316V10.3143C160.162 10.3143 159.676 10.419 159.336 10.6286C158.997 10.8381 158.829 11.2508 158.829 11.8635V13.3016H159.527V15.1238Z" fill="black"/>
<path d="M165.425 15.1238H161.352V13.2984H161.952V6.46351H161.365V4.66351H164.6V13.2984H165.422V15.1238H165.425Z" fill="black"/>
<path d="M170.768 6.47939H170.127V4.66669H173.6V13.3143H174.27V15.127H171.006L170.768 14.6095C170.721 14.6572 170.648 14.7143 170.552 14.7842C170.454 14.854 170.33 14.9238 170.184 14.9937C170.035 15.0635 169.864 15.1238 169.667 15.1746C169.473 15.2254 169.254 15.2508 169.01 15.2508C168.518 15.2508 168.07 15.1524 167.673 14.9524C167.273 14.7524 166.933 14.4826 166.654 14.1429C166.375 13.8032 166.159 13.4095 166.006 12.9651C165.854 12.5175 165.775 12.054 165.775 11.5715C165.775 11.0318 165.864 10.5429 166.038 10.0984C166.216 9.65716 166.454 9.28256 166.749 8.97462C167.048 8.66669 167.391 8.43177 167.781 8.26351C168.171 8.09526 168.581 8.01272 169.01 8.01272C169.502 8.01272 169.886 8.07939 170.162 8.21589C170.438 8.34923 170.638 8.46034 170.768 8.54288V6.47939ZM168.771 11.5683C168.771 11.781 168.794 11.9905 168.841 12.1968C168.889 12.4 168.956 12.5841 169.044 12.7397C169.133 12.8984 169.238 13.0286 169.359 13.1302C169.479 13.2318 169.619 13.2826 169.778 13.2826C170.038 13.2826 170.27 13.1397 170.47 12.8508C170.67 12.5619 170.771 12.1683 170.771 11.6667C170.771 11.4064 170.749 11.1651 170.702 10.9429C170.654 10.7207 170.587 10.5238 170.498 10.3556C170.41 10.1873 170.302 10.0572 170.178 9.9651C170.051 9.87304 169.914 9.82542 169.768 9.82542C169.47 9.82542 169.232 9.98415 169.051 10.2984C168.864 10.6159 168.771 11.0381 168.771 11.5683V11.5683Z" fill="black"/>
<path d="M138.397 12.1238C138.406 12.0286 138.435 11.8572 138.483 11.6032C138.53 11.3492 138.587 11.0603 138.651 10.7302C138.718 10.4032 138.787 10.054 138.864 9.6889C138.94 9.32382 139.013 8.97144 139.089 8.63176L139.794 5.4635H142.721L143.61 9.34921C143.667 9.57461 143.714 9.81271 143.759 10.0667C143.8 10.3206 143.838 10.5683 143.87 10.8127C143.902 11.0572 143.933 11.2921 143.962 11.5175C143.991 11.7429 144.013 11.946 144.032 12.1238H144.102C144.111 11.9651 144.13 11.7619 144.165 11.5175C144.197 11.273 144.235 11.0222 144.276 10.7651C144.318 10.5079 144.362 10.2572 144.403 10.0191C144.445 9.77779 144.486 9.58414 144.524 9.43493L145.003 7.29525H144.229V5.4635H148.254V7.29525H147.479L145.381 15.3079H142.045L141.2 11.9556C141.172 11.8349 141.14 11.6952 141.102 11.5397C141.064 11.3841 141.032 11.2286 141.003 11.0667C140.975 10.9079 140.946 10.7524 140.918 10.6032C140.889 10.454 140.867 10.3206 140.848 10.2095H140.791C140.772 10.3143 140.749 10.4413 140.727 10.5968C140.705 10.7524 140.676 10.9111 140.641 11.0762C140.61 11.2413 140.575 11.3968 140.543 11.5492C140.508 11.6984 140.479 11.8254 140.451 11.9302L139.591 15.3079H136.324L134.464 7.29525H133.676V5.4635H138.324V7.29525H137.508L137.873 9.35239C137.911 9.52064 137.952 9.74287 138 10.0127C138.048 10.2857 138.092 10.5587 138.133 10.8381C138.175 11.1143 138.213 11.3746 138.245 11.6127C138.279 11.8508 138.302 12.0254 138.324 12.127H138.397V12.1238Z" fill="black"/>
</g>
<defs>
<clipPath id="clip0_613_6981">
<rect width="174.286" height="20" fill="white"/>
</clipPath>
</defs>
</svg>
