<?xml version="1.0" encoding="utf-8"?>
<!-- Generator: Adobe Illustrator 27.0.0, SVG Export Plug-In . SVG Version: 6.00 Build 0)  -->
<svg version="1.1" id="Layer_1" xmlns="http://www.w3.org/2000/svg" xmlns:xlink="http://www.w3.org/1999/xlink" x="0px" y="0px"
	 viewBox="0 0 283.5 283.5" style="enable-background:new 0 0 283.5 283.5;" xml:space="preserve">
<style type="text/css">
	.st0{fill:#FF0000;}
	.st1{fill-rule:evenodd;clip-rule:evenodd;}
	.st2{fill-rule:evenodd;clip-rule:evenodd;fill:#FFFFFF;}
</style>
<g id="loghi">
	<g>
		<path class="st0" d="M0,141.5C0,63.3,63.5-0.2,141.7-0.2s141.7,63.5,141.7,141.7S220,283.2,141.7,283.2S0,219.7,0,141.5z"/>
		<polygon class="st1" points="27.4,57.8 256.1,57.8 141.7,283.7 		"/>
		<path class="st2" d="M86.2,96.5h2c4.4,0,8.4,0.7,8.4,6.1c0,5.3-4.3,6-8.5,6h-1.9V96.5z M57.3,148.5h25.4v-22.9h0.5l11.5,23h30
			l-15.5-23.2c-1.5-2-3.1-3.2-4.3-4.3v-0.6c9.6-3.2,13.8-7.8,13.8-18.6c0-18-13.7-24.8-29.8-24.8H57.3V148.5z"/>
		<polygon class="st2" points="120.5,100.2 134.8,99.6 134.8,148.5 160.9,148.5 160.9,99.6 175.2,100.2 175.2,77 120.5,77 		"/>
		<polygon class="st2" points="180.3,148.5 228.1,148.5 228.1,125.6 206.4,125.6 206.4,77 180.3,77 		"/>
		<path class="st2" d="M104.1,171.4c4.6,0,5.7,5.3,5.7,8.8c0,3.3-1.2,9.5-5.7,9.5c-4.4,0-5.7-6.2-5.7-9.5
			C98.4,176.8,99.3,171.4,104.1,171.4z M104.1,158.1c-13,0-20.6,9.6-20.6,21.9c0,12.9,7.3,22.7,20.6,22.7s20.6-9.8,20.6-22.7
			C124.7,167.7,117.1,158.1,104.1,158.1z"/>
		<path class="st2" d="M166.1,202.1v-13.3l-8.4,0.6l-7.4,1v-0.5c7.6-2.4,15.2-7.7,15.2-16.4c0-10.1-9.5-15.3-18.5-15.3
			c-13,0-18.6,5.7-19.8,18.3h15.4c0.1-2.6,0.6-5.4,3.9-5.4c1.9,0,3.5,1.5,3.5,3.4c0,3.9-6.8,10-9.5,12.4l-17.2,15.3H166.1z"/>
		<path class="st2" d="M179.9,188.3c-4.2,0-8.5,2.7-8.5,7.3c0,4.5,4.3,7.1,8.5,7.1c4.2,0,8.5-2.6,8.5-7.1
			C188.4,190.9,184.1,188.3,179.9,188.3z"/>
		<polygon class="st2" points="57.5,173.1 64.2,172.7 64.2,202.1 79.7,202.1 79.7,158.7 57.5,159.4 		"/>
		<path class="st2" d="M199,158.7l-3.7,25.6c3.6-1.2,7.6-1.9,11.5-1.9c2.5,0,8.6,0.8,8.6,4.3c0,3.4-5,4.3-7.6,4.3
			c-3.5,0-9.8-1.8-12.9-3.5l-1.7,11.7c4.1,2,12.7,3.5,17.2,3.5c9.2,0,20.7-5,20.7-15.6c0-8.3-6.9-13.5-14.9-13.5
			c-2.2,0-5.9,0.5-7.4,2.3h-0.5c0.8-1.6,1.1-3.3,1.4-5h18.5v-12.1L199,158.7L199,158.7z"/>
	</g>
</g>
</svg>
