<?xml version="1.0" encoding="UTF-8" standalone="no"?>
<!-- Created with Inkscape (http://www.inkscape.org/) -->

<svg
   width="342.82126mm"
   height="97.98616mm"
   viewBox="0 0 342.82126 97.98616"
   version="1.1"
   id="svg2117"
   xmlns="http://www.w3.org/2000/svg"
   xmlns:svg="http://www.w3.org/2000/svg"
   xmlns:rdf="http://www.w3.org/1999/02/22-rdf-syntax-ns#"
   xmlns:cc="http://creativecommons.org/ns#"
   xmlns:dc="http://purl.org/dc/elements/1.1/">
  <defs
     id="defs2111" />
  <metadata
     id="metadata2114">
    <rdf:RDF>
      <cc:Work
         rdf:about="">
        <dc:format>image/svg+xml</dc:format>
        <dc:type
           rdf:resource="http://purl.org/dc/dcmitype/StillImage" />
      </cc:Work>
    </rdf:RDF>
  </metadata>
  <g
     id="layer1"
     transform="translate(66.333246,-86.989057)">
    <path
       id="path30"
       style="fill:#0000ff;fill-opacity:1;fill-rule:nonzero;stroke:none;stroke-width:0.50408"
       d="M 88.159813,127.40524 H 67.217291 c -0.697144,0.002 -1.261213,0.5681 -1.261213,1.26322 v 54.46941 H 46.970395 V 128.674 c 0,-0.70066 -0.570114,-1.27079 -1.27078,-1.26876 H 16.369189 v -17.19923 h 71.790624 c 4.749432,0 8.5996,3.85017 8.5996,8.59962 0,4.74944 -3.850168,8.59961 -8.5996,8.59961 m -95.7480377,8.23414 c 0,4.54731 -3.6868533,8.23416 -8.2341443,8.23416 h -30.690943 c -0.697135,0 -1.263219,-0.56608 -1.263219,-1.26324 V 128.674 c 0,-0.70066 0.567599,-1.26876 1.268767,-1.26876 h 30.685395 c 4.547291,0 8.2341443,3.68683 8.2341443,8.23414 m 8.5980936,21.064 c -0.15223198,-0.27724 -0.0735804,-0.62202 0.177934,-0.81306 6.0711554,-4.65418 9.9863441,-11.97948 9.9863441,-20.2212 0,-14.06333 -11.39978818,-25.46311 -25.463115,-25.46311 h -52.044278 v 65.39333 c 0,5.17691 4.198994,9.37589 9.375898,9.37589 5.178931,0 9.375392,-4.19898 9.375392,-9.37589 V 162.4015 c 0,-0.70067 0.56809,-1.26877 1.269281,-1.26877 h 27.326676 c 0.46275,0 0.888211,0.25306 1.109495,0.65785 l 11.7148233,21.34729 H 15.502174 Z M 163.26977,142.60376 c 0,0.70117 -0.5681,1.26926 -1.26876,1.26926 h -38.8656 c -0.70067,0 -1.26877,-0.56809 -1.26877,-1.26926 v -13.92824 c 0,-0.70119 0.5681,-1.2708 1.26877,-1.2708 h 38.8656 c 0.70066,0 1.26876,0.56961 1.26876,1.2708 z m -6.70073,-32.39825 h -45.66212 c -4.19445,0 -7.59498,3.40203 -7.59498,7.59649 v 65.33587 h 18.74976 v -20.73686 c 0,-0.70068 0.5676,-1.26877 1.26879,-1.26877 h 33.23855 c 14.06332,0 25.46311,-11.39978 25.46311,-25.46362 0,-14.06131 -11.39979,-25.46311 -25.46311,-25.46311" />
    <path
       style="fill:#ff9100;fill-opacity:1;fill-rule:nonzero;stroke:none;stroke-width:0.693033"
       d="m 206.55668,165.08277 v 18.05507 h 60.90403 c 4.97875,0 9.0273,-4.04856 9.0273,-9.02732 0,-4.97875 -4.04855,-9.02775 -9.0273,-9.02775 z"
       id="path22" />
    <path
       style="opacity:1;vector-effect:none;fill:#ff9100;fill-opacity:1;fill-rule:evenodd;stroke:none;stroke-width:0.274905;stroke-linecap:butt;stroke-linejoin:miter;stroke-miterlimit:4;stroke-dasharray:none;stroke-dashoffset:0;stroke-opacity:1"
       d="m 240.12982,86.989057 c -17.98237,7e-6 -32.55991,14.577583 -32.55991,32.559933 v 2.38072 h 17.96147 v -2.38072 c 0,-8.06249 6.53594,-14.59843 14.59844,-14.59843 8.06249,0 14.59843,6.53594 14.59843,14.59843 0,4.32853 -2.02243,8.62882 -5.74741,11.49044 l -31.42267,24.13962 h 29.6633 l 13.28506,-10.31001 c 7.84478,-6.08803 12.18322,-15.28038 12.18322,-25.32005 2e-5,-17.98236 -14.57757,-32.559938 -32.55993,-32.559933 z"
       id="path2070" />
  </g>
</svg>
