<?xml version="1.0" encoding="utf-8"?>
<!-- Generator: Adobe Illustrator 22.0.0, SVG Export Plug-In . SVG Version: 6.00 Build 0)  -->
<svg version="1.1" id="RTSH_sport" xmlns="http://www.w3.org/2000/svg" xmlns:xlink="http://www.w3.org/1999/xlink" x="0px" y="0px"
	 viewBox="0 0 1000 600" style="enable-background:new 0 0 1000 600;" xml:space="preserve">
<style type="text/css">
	.st0{fill:#58595B;}
	.st1{fill:#004985;}
</style>
<title>final_1tetor2020_(color_txGRI)__RTSH_SPORT__bert_</title>
<g id="_Group_">
	<path class="st0" d="M549.3,424.4c2.1-2.4,4.3-2.5,6.8-0.3c5.5,5,12.7,7.8,20.2,7.8c4.8,0,8.7-1,11.5-3c2.7-1.8,4.3-4.8,4.2-8
		c0-3.2-1.5-6.2-4.1-8.1c-2.7-2.1-7.2-3.8-13.5-5c-19.4-3.9-29.1-13.1-29.1-27.8c-0.1-7.1,3-13.9,8.5-18.3
		c5.7-4.8,13.2-7.2,22.6-7.2c8.3,0,15.2,1.9,20.7,5.6c5.6,3.8,9.6,9.5,11.3,16.1c0.5,1.3,0.3,2.8-0.5,3.9c-1,1-2.4,1.6-3.8,1.5h-9.4
		c-1.2,0.1-2.3-0.3-3.2-0.9c-0.9-0.9-1.7-1.9-2.1-3.1c-2.1-4.5-6-6.7-11.9-6.7c-3.3-0.1-6.5,0.8-9.2,2.6c-2.3,1.5-3.6,4.1-3.6,6.8
		c0,6.1,5.4,10.2,16.3,12.4c10.3,2.1,17.9,5.4,22.9,10.1s7.5,10.8,7.5,18.3c0.2,7.6-3.3,14.7-9.2,19.4c-6.1,5.1-14.5,7.6-25,7.6
		c-12,0-22.2-4.7-30.5-14.2c-2-2.2-1.9-4.5,0.1-6.8L549.3,424.4z"/>
	<path class="st0" d="M717.3,401.5c0,6.2-1.1,12.4-3.3,18.3c-2,5.5-5.1,10.5-9,14.9c-12.6,13.4-32.2,17.3-49,9.9
		c-5.3-2.4-10-6-13.8-10.4v47.3c0,3.2-1.6,4.8-4.8,4.8h-9.9c-3.2,0-4.8-1.6-4.8-4.8V361.6c0-3.2,1.6-4.8,4.8-4.8h9.9
		c3.2,0,4.8,1.6,4.8,4.8v7.3c3.8-4.5,8.5-8,13.8-10.5c13-5.8,27.9-4.8,40.1,2.5c6.7,4.1,12.1,10,15.6,17
		C715.5,385.2,717.4,393.3,717.3,401.5z M689.5,422.2c10.6-11.8,10.6-29.7,0.1-41.5c-10.3-10.9-27.4-11.4-38.3-1.1
		c-0.4,0.4-0.8,0.7-1.1,1.1c-10.5,11.8-10.5,29.7,0,41.5c10.2,10.8,27.3,11.4,38.2,1.1C688.7,422.9,689.1,422.6,689.5,422.2
		L689.5,422.2z"/>
	<path class="st0" d="M732,425c-8.5-14.6-8.5-32.5,0-47.1c4.2-7.1,10.3-13,17.6-16.9c15.7-8.3,34.5-8.3,50.1,0
		c22.4,12.2,30.6,40.3,18.4,62.6c-4.2,7.8-10.6,14.1-18.4,18.4c-15.7,8.3-34.5,8.3-50.1,0C742.3,438,736.2,432.2,732,425z
		 M754,380.7c-11.2,11.6-11.2,29.9,0,41.5c11.5,11.3,29.9,11.3,41.4,0c11.2-11.6,11.2-29.9,0-41.5
		C783.9,369.4,765.5,369.4,754,380.7z"/>
	<path class="st0" d="M876.1,372.2c-6.3,0-12.3,2.6-16.5,7.2c-4.6,4.9-7.1,11.4-6.9,18.1v43.7c0,3.2-1.6,4.8-4.8,4.8h-10.1
		c-3.2,0-4.8-1.6-4.8-4.8v-79.7c0-3.2,1.6-4.8,4.8-4.8h10.1c3.2,0,4.8,1.6,4.8,4.8v7.5c2.9-4.3,6.8-7.9,11.3-10.5
		c4.6-2.6,9.7-4,15-3.9c1.2,0,2.4,0.1,3.5,0.3c2.9,0.4,4.3,2.2,4,5.4l-0.7,8.2c-0.2,3.2-2,4.5-5.3,4
		C879.1,372.3,877.6,372.2,876.1,372.2z"/>
	<path class="st0" d="M929.4,416.4c0,5.1,1.2,8.8,3.6,11.1s6.4,3.5,11.9,3.5c1.4,0,2.5,0,3.3-0.1c3.3-0.1,5,1.4,5,4.7v5.5
		c0,2.9-1.2,4.7-3.6,5.5c-3.5,1.1-7.1,1.6-10.7,1.6c-9.5,0-16.7-2.6-21.7-7.7c-5-5.1-7.5-12.9-7.5-23.3V374h-12.3
		c-3.2,0-4.8-1.6-4.8-4.8v-7.6c0-3.2,1.6-4.8,4.8-4.8h12.3v-17.1c0-2.9,1.4-4.7,4.2-5.3l10.1-2.3c1.3-0.4,2.8-0.2,3.9,0.6
		c1,0.9,1.6,2.3,1.5,3.7v20.4h17.9c3.2,0,4.8,1.6,4.8,4.8v7.6c0,3.2-1.6,4.8-4.8,4.8h-17.9L929.4,416.4z"/>
	<g id="_Group_2">
		<polygon id="_Path_" class="st1" points="46.8,75 46.8,448.6 98.1,448.6 98.1,126.3 419.9,126.3 419.9,75 		"/>
		<g id="_Group_3">
			<path id="_Path_2" class="st1" d="M189.1,374.8h-19.7v25.9h20.1c9.7,0,15.2-5.1,15.2-12.8v-0.3
				C204.7,379.2,198.7,374.8,189.1,374.8"/>
			<path id="_Compound_Path_" class="st1" d="M471.3,447h-19.8v-36.2h-36.5V447h-19.8v-90.1h19.8v35.6h36.5v-35.6h19.8V447z
				 M374,441.2c-6.2,4.7-14.2,7-23.9,7c-10.8,0-19.5-2.5-26.2-7.5c-6.7-5-10.1-13.1-10.2-22.2h19c0.4,8.2,7.5,13.7,17.3,13.7
				c8.7,0,14.3-3.4,14.3-10.5c0-6.4-5.2-9-18.7-12.4c-7.8-1.9-11.8-3.1-17.6-5.9c-8-4-11.9-9.6-12.4-20.2
				c-0.2-7.4,2.9-14.6,8.4-19.6c5.6-5.3,13.6-7.9,23.9-7.9c9.9,0,17.9,2.5,24,7.4s9.3,11.6,9.6,20.2h-19.1
				c-0.1-7.7-5.5-11.5-14.1-11.5c-8.4,0-13.5,4.4-13.5,10.8c-0.2,2.9,1.3,5.7,3.8,7.2c2.5,1.4,7.1,3,13.9,4.6
				c10.4,2.6,18.2,5.9,23.2,9.6s7.6,9.2,7.6,16.7C383.5,429.7,380.3,436.5,374,441.2 M307.3,375.2h-27.4V447h-19.8v-71.8h-27.4
				v-18.3h74.7V375.2z M204.3,447L185,418.2h-15.6V447h-19.8v-90.1h41.2c11.5,0,20.3,3.2,26.3,9.1c5,5,7.7,12.1,7.7,20.6v0.3
				c0,14.5-7.9,23.7-19.3,27.9l22,32.2L204.3,447z M123.8,525H497V151.9H123.8V525z"/>
		</g>
	</g>
</g>
</svg>
