<?xml version="1.0" encoding="utf-8"?>
<!-- Generator: Adobe Illustrator 22.0.0, SVG Export Plug-In . SVG Version: 6.00 Build 0)  -->
<svg version="1.1" id="RTSH_24" xmlns="http://www.w3.org/2000/svg" xmlns:xlink="http://www.w3.org/1999/xlink" x="0px" y="0px"
	 viewBox="0 0 1000 600" style="enable-background:new 0 0 1000 600;" xml:space="preserve">
<style type="text/css">
	.st0{fill:#58595B;}
	.st1{fill:#2D5A70;}
</style>
<title>final_1tetor2020_(color_txGRI)__RTSH_24__bert_</title>
<path class="st0" d="M640.9,363.6l18.8-20.5c12.5-13.3,21-24.5,25.5-33.7c3.9-6.7,5.9-13.1,5.9-19.4c0-7-2.2-12.7-6.5-17
	s-10.1-6.4-17.3-6.5c-8,0-14.5,2.7-19.4,8.2s-7.4,12.6-7.3,21.4l-47.5-4.1c0-12.7,3-24,9.1-33.7c6.2-9.9,15.1-17.7,25.7-22.6
	c11-5.3,23.8-7.9,38.3-7.9c14.3,0,26.9,2.4,37.8,7.3s19.5,11.8,25.5,20.7c6.1,9,9.3,19.7,9.1,30.7c0,14.5-4.8,28.7-14.4,42.5
	c-7.2,11.3-18.4,24.7-33.4,40.2l-11.4,12l-27.6,28.5l89.5-0.9v39H590.5v-29.6L640.9,363.6z"/>
<path class="st0" d="M870.4,230.7h36.4v137.6h29.3v39h-29.3v40.5h-47v-40.5h-98.6V375L870.4,230.7z M861,369.8l0.9-71l-50.8,71H861z
	"/>
<g id="_Group_">
	<polygon id="_Path_" class="st1" points="63.9,75 63.9,448.6 115.3,448.6 115.3,126.3 437,126.3 437,75 	"/>
	<g id="_Group_2">
		<path id="_Path_2" class="st1" d="M206.2,374.8h-19.7v25.9h20.1c9.7,0,15.2-5.1,15.2-12.8v-0.3
			C221.8,379.2,215.9,374.8,206.2,374.8"/>
		<path id="_Compound_Path_" class="st1" d="M488.4,447h-19.8v-36.2H432V447h-19.8v-90.1H432v35.6h36.5v-35.6h19.9V447z
			 M391.2,441.2c-6.2,4.7-14.2,7-23.9,7c-10.8,0-19.5-2.5-26.2-7.5c-6.7-5-10.1-13.1-10.2-22.2h19c0.4,8.2,7.5,13.7,17.3,13.7
			c8.7,0,14.3-3.4,14.3-10.5c0-6.4-5.2-9-18.7-12.4c-7.8-1.9-11.8-3.1-17.6-5.9c-8-4-11.9-9.6-12.4-20.2c-0.2-7.4,2.9-14.6,8.4-19.6
			c5.6-5.3,13.6-7.9,23.9-7.9c10,0,17.9,2.5,24,7.4s9.3,11.6,9.6,20.2h-19.1c-0.1-7.7-5.5-11.5-14.1-11.5c-8.4,0-13.5,4.4-13.5,10.8
			c-0.2,2.9,1.3,5.7,3.8,7.2c2.5,1.4,7.2,3,13.9,4.6c10.4,2.6,18.2,5.9,23.2,9.6s7.6,9.2,7.6,16.7
			C400.6,429.7,397.5,436.5,391.2,441.2 M324.5,375.2h-27.4V447h-19.8v-71.8h-27.4v-18.3h74.7L324.5,375.2z M221.4,447l-19.3-28.8
			h-15.6V447h-19.8v-90.1h41.2c11.5,0,20.3,3.2,26.3,9.1c5,5,7.7,12.1,7.7,20.6v0.3c0,14.5-7.9,23.7-19.3,27.9l22,32.2L221.4,447z
			 M141,525h373.1V151.9H141V525z"/>
	</g>
</g>
</svg>
