<?xml version="1.0" encoding="UTF-8" standalone="no"?><svg version="1.1" xml:space="preserve" viewBox="0 0 357.85074 180.50087" xmlns="http://www.w3.org/2000/svg" xmlns:svg="http://www.w3.org/2000/svg"><defs><linearGradient id="a" spreadMethod="pad" gradientTransform="matrix(50.868789 83.128726 -163.66518 66.692398 339.78437 55.569741)" gradientUnits="userSpaceOnUse" y2="-.0355307" x2=".73148662" y1=".01591559" x1="-.0188971"><stop offset="0" stop-color="#05394d"/><stop offset=".5" stop-color="#0c8398"/><stop offset="1" stop-color="#15d3e6"/></linearGradient><linearGradient id="b" spreadMethod="pad" gradientTransform="matrix(125.03058 48.853374 -57.078114 118.3632 255.07242 14.710966)" gradientUnits="userSpaceOnUse" y2=".56885695" x2=".69310486" y1=".30031115" x1=".3401475"><stop offset="0" stop-color="#002938"/><stop offset=".56779659" stop-color="#0e90a5"/><stop offset=".80865496" stop-color="#39baca"/><stop offset=".91029096" stop-color="#4ecfdd"/><stop offset="1" stop-color="#44dbee"/></linearGradient><linearGradient id="c" spreadMethod="pad" gradientTransform="matrix(-11.95954 -98.825126 199.79794 -21.668917 178.84885 114.18078)" gradientUnits="userSpaceOnUse" y2="-.14238431" x2=".29525879" y1=".17302451" x1="-.18391445"><stop offset="0" stop-color="#000"/><stop offset=".24682204" stop-color="#053941"/><stop offset=".51777661" stop-color="#0b7383"/><stop offset="1" stop-color="#58e2f0"/></linearGradient><linearGradient id="d" spreadMethod="pad" gradientTransform="matrix(0 -79.407007 174.06989 0 -56.997652 144.59532)" gradientUnits="userSpaceOnUse" y2="0" x2=".884615" y1="0" x1=".104396"><stop offset="0" stop-color="#221f1f"/><stop offset="1" stop-color="#59595c"/></linearGradient></defs><path d="M210.94281 109.64592s50.36022 77.49455 77.83549 70.39537c32.62162-8.42051 17.46789-106.982488 17.46789-106.982488Z" fill="url(#a)"/><path d="M210.94296 109.6454s137.79111 22.04766 146.212-2.41292c8.42088-24.460583-62.37414-38.127978-62.37414-38.127978l-2.35842-1.005485Z" fill="url(#b)"/><path d="m210.9428 109.64592 83.83813-40.540447s32.49137-56.392859 23.33149-67.8828104c-1.32291-.82353274-.71076-.76905363-2.21915-1.13499291C301.62788-1.5527562 280.4603 20.087778 260.86424 43.186124c-26.38542 31.101585-49.92144 66.459796-49.92144 66.459796" fill="url(#c)"/><path d="M18.18534 117.98921v26.62268H0V66.145043h30.101661c5.768189 0 10.862848 1.113769 15.283975 3.341308 4.455668 2.19161 7.892404 5.335314 10.310208 9.43111 2.452344 4.059868 3.678516 8.676622 3.678516 13.85026 0 7.652669-2.642315 13.778399-7.926943 18.377199-5.250089 4.56285-12.468962 6.84429-21.656617 6.84429Zm0-14.60475h11.916321c3.523086 0 6.19994-.91616 8.030563-2.7485 1.865163-1.832328 2.797745-4.419147 2.797745-7.760454 0-3.664661-.949851-6.592796-2.849555-8.784407-1.899703-2.19161-4.490208-3.30538-7.771513-3.341308H18.18534Zm106.20227-22.634669h-18.93683v63.862099H87.265441V80.749791H66.097246V66.145043h58.290364Zm11.37207 63.862099V66.145043h27.09667c9.70576 0 17.08006 1.850293 22.12291 5.550882 5.07739 3.700588 7.61608 9.071831 7.61608 16.113727 0 4.059868-.89804 7.526924-2.69412 10.401167-1.79608 2.874251-4.4384 4.994011-7.92695 6.359271 3.93758 1.07783 6.95983 3.08981 9.06677 6.03591 2.10695 2.94609 3.16042 6.5389 3.16042 10.7784 0 7.68861-2.34872 13.47302-7.04617 17.35325-4.6629 3.8443-11.58819 5.80239-20.77585 5.87424Zm18.18534-33.35919v18.80833h11.91632c3.28131 0 5.80273-.77245 7.56427-2.31736 1.76155-1.58084 2.64232-3.79041 2.64232-6.62872 0-6.5389-3.12588-9.82632-9.37763-9.86225Zm0-12.395176h9.48125c3.9721-.035927 6.8044-.790417 8.49686-2.263466 1.69245-1.47305 2.53869-3.646697 2.53869-6.52094 0-3.305379-.91531-5.67663-2.74594-7.113752-1.83062-1.47305-4.7838-2.209575-8.85953-2.209575h-8.91133Z" fill="url(#d)"/><path d="m265.48367 89.794894 14.01503.00023v54.987016h15.28205l.00018-75.676667-29.29726 14.167698Z" fill="#fff"/></svg>