<?xml version="1.0" encoding="utf-8"?>
<svg version="1.1" id="Layer_1" xmlns="http://www.w3.org/2000/svg" xmlns:xlink="http://www.w3.org/1999/xlink" x="0px" y="0px"
	 viewBox="0 0 600 600" style="enable-background:new 0 0 600 600;" xml:space="preserve">
<style type="text/css">
	.st0{fill:#ED245A;}
	.st1{fill:#FFFFFF;}
</style>
<rect class="st0" width="600" height="600"/>
<path class="st1" d="M361.4,468c0,0,0.1-155.4,0.1-229.8c0.1-2.1,0.1-4.1,0.1-6.9c-7.5,3-14.2,5.7-20.9,8.5
	c-16.4,6.8-29.2,1.3-35.6-15.1c-4.6-11.8-10.8-27.2-15.6-38.8c3.7-2.1,0.9-0.6,3.7-2.1c31.3-16.8,96.1-51.7,96.1-51.7L442,132
	c0,0-0.1,60.2-0.1,87.8c0,73.6,0,147.3,0,220.9c0,17.6-9.5,27-27.1,27.1L361.4,468z"/>
<circle class="st1" cx="203.6" cy="240.1" r="45"/>
<circle class="st1" cx="203.6" cy="378" r="45"/>
</svg>