<?xml version="1.0" encoding="utf-8"?>
<!-- Generator: Adobe Illustrator 22.1.0, SVG Export Plug-In . SVG Version: 6.00 Build 0)  -->
<svg version="1.1" id="Layer_1" xmlns="http://www.w3.org/2000/svg" xmlns:xlink="http://www.w3.org/1999/xlink" x="0px" y="0px"
	 viewBox="0 0 302.3 154.9" style="enable-background:new 0 0 302.3 154.9;" xml:space="preserve">
<style type="text/css">
	.st0{fill:#e06c24;}
</style>
<g>
	<g>
		<path class="st0" d="M171.6,56.3h-20.3v41.5h20.3c11.4,0,19.7-9.3,19.7-20.8C191.3,65.6,183,56.3,171.6,56.3z M169.2,85.7
			L169.2,85.7l-4.2,0V68.4h4.2c4.8,0,8.6,3.9,8.6,8.6C177.8,81.8,173.9,85.7,169.2,85.7z"/>
		<path class="st0" d="M144.1,78.9V56.3H130v21.6c0,4.8-1.9,8.2-6.6,8.2c-4.8,0-6.6-3.5-6.6-8.2l0-21.6h-14.1v22.6
			c0,11.4,9.3,19.7,20.8,19.7C134.8,98.6,144.1,90.4,144.1,78.9z"/>
		<path class="st0" d="M90.2,83.7c4.1-2.7,6.8-7.3,6.8-12.5c0-7.4-5.4-13.5-12.5-14.7c-0.1,0-0.3,0-0.4-0.1c-0.2,0-0.4-0.1-0.6-0.1
			c-0.4,0-0.9-0.1-1.4-0.1H59.4v41.5h13.9V86h3l7.8,11.9h15.8L90.2,83.7z M79.2,76.1C79.2,76.1,79.2,76.1,79.2,76.1h-6v-8.1h6.1
			c0,0,0,0,0,0c2.2,0,4,1.8,4,4.1C83.3,74.2,81.5,76.1,79.2,76.1z"/>
		<polygon class="st0" points="214.1,73.9 223.6,97.8 238.1,97.8 221.6,56.3 206.6,56.3 189.7,97.8 204.5,97.8 		"/>
		<path class="st0" d="M230,56.4h14.3l8.5,20.8l8.4-21h9.8l8.3,21l8.4-20.8h14.7l-16.8,41.4h-11.7L266,78.3l-8.1,19.5h-11.5
			L230,56.4z"/>
		<polygon class="st0" points="119.5,52 123.3,48.2 127.1,52 135.7,52 128.3,44.6 118.5,44.6 111.1,52 		"/>
	</g>
	<g>
		<path class="st0" d="M25.8,59.5c0.3-1,0.7-2,1.1-2.9l0,0c0.4-1.1,0.9-2.1,1.4-3.1L8.5,42.3C6.6,45.9,5,49.7,3.8,53.6L25.8,59.5z"
			/>
		<path class="st0" d="M53.3,28.2c0.9-0.5,1.9-0.9,2.9-1.3l0,0c1.1-0.4,2.1-0.9,3.2-1.2L53.3,3.9C49.4,5.1,45.6,6.7,42,8.6
			L53.3,28.2z"/>
		<path class="st0" d="M80.9,131.3c-1.1,0.1-2.3,0.1-3.5,0.1v0c-1,0-2.1,0-3.1-0.1l-2.8,23.2c2,0.2,3.9,0.2,5.9,0.2
			c2.2,0,4.3-0.1,6.5-0.3L80.9,131.3z"/>
		<path class="st0" d="M22.9,77.5L22.9,77.5c0-1.1,0-2.3,0.1-3.4L0.3,71.2c-0.2,2-0.3,4.1-0.3,6.2c0,2.1,0.1,4.1,0.3,6.1l22.8-3
			C23,79.5,22.9,78.5,22.9,77.5z"/>
		<path class="st0" d="M18.4,27.3l18,13.8c0.7-0.8,1.4-1.5,2.1-2.3l0,0c0.8-0.8,1.6-1.6,2.5-2.4l-14-17.9
			C24,21.3,21.1,24.2,18.4,27.3z"/>
		<path class="st0" d="M28.5,101.1c-0.5-0.9-0.9-1.9-1.3-2.8l0,0c-0.4-1.1-0.9-2.1-1.2-3.2l-22.2,6.2c1.3,3.9,2.9,7.7,4.7,11.4
			L28.5,101.1z"/>
		<path class="st0" d="M59.8,128.6c-1.1-0.4-2.2-0.8-3.2-1.2v0c-1-0.4-1.9-0.8-2.8-1.3l-11.5,20.3c3.7,1.9,7.5,3.5,11.4,4.7
			L59.8,128.6z"/>
		<path class="st0" d="M77.4,0c-2.2,0-4.4,0.1-6.6,0.3l2.9,22.4c1-0.1,2.1-0.1,3.2-0.1v0c1.1,0,2.3,0,3.5,0.1l2.7-22.5
			C81.2,0.1,79.3,0,77.4,0z"/>
		<path class="st0" d="M27.3,136.4l14.2-18.4c-0.8-0.7-1.7-1.5-2.4-2.3c-0.8-0.8-1.5-1.5-2.2-2.3l-18.3,14.3
			C21.2,130.8,24.1,133.7,27.3,136.4z"/>
	</g>
	<g>
		<path class="st0" d="M56.9,35.2c2.3-1.1,4.7-2.1,7.2-2.8l-3.3-13.1c-3.6,1-7.1,2.4-10.4,4L56.9,35.2z"/>
		<path class="st0" d="M32,37.7l10.5,8.5c1.7-1.9,3.6-3.7,5.7-5.4L40.1,30C37.1,32.3,34.4,34.9,32,37.7z"/>
		<path class="st0" d="M33.2,61.8c0.9-2.5,1.9-4.8,3.2-7.1l-11.6-7C23,51,21.4,54.4,20.2,58L33.2,61.8z"/>
		<path class="st0" d="M80.3,124.2c-0.9,0.1-1.9,0.1-2.8,0.1c-1.7,0-3.4-0.1-5.1-0.3l-2,13.4c2.3,0.3,4.7,0.4,7.1,0.4
			c1.4,0,2.8-0.1,4.2-0.2L80.3,124.2z"/>
		<path class="st0" d="M30.5,77.4c0-1.8,0.1-3.6,0.3-5.3l-13.4-2c-0.3,2.4-0.5,4.9-0.5,7.3c0,1.3,0.1,2.6,0.1,3.9l13.5-1.4
			C30.6,79.1,30.5,78.3,30.5,77.4z"/>
		<path class="st0" d="M62,121.7c-2.5-0.9-4.9-2-7.2-3.2l-7,11.6c3.3,1.8,6.7,3.4,10.3,4.6L62,121.7z"/>
		<path class="st0" d="M98.1,119.5c-2.4,1.2-4.8,2.1-7.4,2.9l3.3,13.1c3.7-1,7.2-2.4,10.6-4.1L98.1,119.5z"/>
		<path class="st0" d="M123.2,116.8l-10.5-8.5c-1.8,2-3.7,3.9-5.7,5.5l8.1,10.9C118,122.3,120.8,119.7,123.2,116.8z"/>
		<path class="st0" d="M35.1,97.6c-1.1-2.3-2-4.8-2.8-7.3l-13.1,3.3c1,3.7,2.4,7.2,4,10.5L35.1,97.6z"/>
		<path class="st0" d="M82.3,30.8l2-13.4C82,17.2,79.7,17,77.4,17c-1.5,0-2.9,0.1-4.3,0.2l1.4,13.5c1-0.1,2-0.1,2.9-0.1
			C79.1,30.5,80.7,30.6,82.3,30.8z"/>
		<path class="st0" d="M37.6,122.8l8.5-10.5c-2-1.8-3.8-3.7-5.4-5.8l-10.9,8.1C32.2,117.6,34.8,120.4,37.6,122.8z"/>
	</g>
</g>
</svg>
