<?xml version="1.0" encoding="UTF-8"?> <svg xmlns="http://www.w3.org/2000/svg" width="307" height="194" viewBox="0 0 307 194" fill="none"> <path d="M36.8357 101.646H23.3287C23.4768 106.075 23.5673 110.48 23.666 114.868C19.2165 116.707 15.3814 119.783 12.6104 123.735C12.7091 116.38 12.8571 109.017 13.0957 101.621H0C0.822593 126.313 0.822593 150.575 0 175.672H13.0957C12.7913 166.276 12.635 157.013 12.561 147.79C13.5975 135.626 17.3978 129.189 23.8388 125.958C24.0279 142.411 23.8799 158.855 23.3287 175.672H36.8357C36.2599 157.897 36.1118 140.543 36.3504 123.156C37.8146 123.074 39.3364 123.032 40.9322 123.032V111.926C39.4351 111.926 37.9791 111.926 36.5807 112.066C36.663 108.596 36.7206 105.125 36.8357 101.646Z" fill="url(#paint0_linear_606_954)"></path> <path d="M90.0488 111.098L102.741 110.685C102.741 132.071 103.153 146.054 102.33 175.662H114.611C113.789 146.054 114.2 132.071 114.2 110.685L126.893 111.098V101.645H90.0488V111.098Z" fill="url(#paint1_linear_606_954)"></path> <path d="M150.633 100H148.165C139.166 100 129.336 109.867 129.336 136.592V140.723C129.336 167.448 139.166 177.323 148.165 177.323H150.633C159.64 177.323 169.454 167.407 169.454 140.707V136.575C169.454 109.867 159.64 100 150.633 100ZM156.391 140.707C156.391 156.334 154.343 167.432 150.633 167.432H148.165C144.488 167.432 142.407 156.334 142.407 140.707V136.575C142.407 120.948 144.455 109.85 148.165 109.85H150.633C154.318 109.85 156.391 120.948 156.391 136.575V140.707Z" fill="url(#paint2_linear_606_954)"></path> <path d="M290.21 101.645C279.574 101.645 271.381 111.925 271.381 122.205V126.337C271.434 129.669 272.249 132.945 273.762 135.91C275.276 138.876 277.447 141.453 280.108 143.443C276.974 155.888 274.54 162.862 270.566 175.671H283.662C285.825 164.102 287.356 157.293 289.914 146.864H290.21H295.08C294.948 155.541 294.668 164.499 294.306 175.655H306.999C306.176 146.864 306.176 130.419 306.999 101.637L290.21 101.645ZM290.21 137.832C286.097 137.832 284.452 132.047 284.452 126.312V122.18C284.452 116.396 286.097 110.661 290.21 110.661H294.718C295.055 121.122 295.178 129.667 295.154 137.807L290.21 137.832Z" fill="url(#paint3_linear_606_954)"></path> <path d="M66.31 109.867H68.7778C72.8908 109.867 73.7134 120.56 73.7134 126.312H85.9618C85.9618 109.867 77.7359 100 68.7696 100H66.3018C57.3026 100 47.4727 109.867 47.4727 136.592V140.723C47.4727 167.448 57.3438 177.323 66.3018 177.323H68.7696C77.8181 177.323 85.9618 167.448 85.9618 151.003H73.6805C73.6805 156.788 72.8579 167.448 68.7449 167.448H66.2771C62.1642 167.448 60.519 156.763 60.519 140.723V136.592C60.5848 120.56 62.2218 109.867 66.31 109.867Z" fill="url(#paint4_linear_606_954)"></path> <path d="M260.763 101.646H247.239C247.379 106.075 247.47 110.48 247.568 114.868C243.119 116.707 239.284 119.783 236.513 123.735C236.611 116.38 236.759 109.017 236.998 101.621H223.902C224.725 126.288 224.725 150.55 223.902 175.639H236.998C236.694 166.243 236.546 156.98 236.463 147.757C237.5 135.593 241.3 129.156 247.741 125.925C247.93 142.378 247.782 158.822 247.239 175.639H260.763C260.179 157.864 260.031 140.51 260.277 123.123C261.733 123.041 263.263 122.999 264.851 122.999V111.926C263.354 111.926 261.906 111.926 260.5 112.066C260.565 108.596 260.631 105.125 260.763 101.646Z" fill="url(#paint5_linear_606_954)"></path> <path d="M196.888 101.645H180.148C180.971 130.427 180.971 146.872 180.148 175.662H192.833C192.685 166.25 192.537 158.416 192.422 150.987H196.929C207.574 150.987 215.759 140.707 215.759 128.369V124.237C215.717 111.511 207.533 101.645 196.888 101.645ZM202.646 128.369C202.646 136.633 201.412 141.938 196.888 141.938H192.273C192.183 132.476 192.191 122.932 192.389 110.685H196.888C201.388 110.685 202.646 116.032 202.646 124.254V128.369Z" fill="url(#paint6_linear_606_954)"></path> <path d="M235.36 1.67578C230.425 30.4582 227.587 46.9112 221.039 75.6936H234.135L235.657 62.5378H250.62L252.15 75.6936H266.068C259.512 46.9029 256.649 30.4499 251.714 1.67578H235.36ZM243.586 18.1205L249.394 53.4891H236.907L242.714 18.1205H243.586Z" fill="url(#paint7_linear_606_954)"></path> <path d="M306.999 1.67969H290.21C279.574 1.67969 271.381 11.9597 271.381 22.2397V26.3716C271.427 29.7099 272.239 32.9925 273.753 35.9648C275.266 38.937 277.441 41.519 280.108 43.5105C276.974 55.9556 274.54 62.9301 270.566 75.7388H283.662C285.825 64.1697 287.356 57.3604 289.914 46.9399H290.21H295.08C294.948 55.6168 294.668 64.5663 294.306 75.7223H306.999C306.176 46.9068 306.176 30.4538 306.999 1.67969ZM290.21 37.8581C286.097 37.8581 284.452 32.0735 284.452 26.3468V22.2149C284.452 16.4304 286.097 10.7036 290.21 10.7036H294.718C295.055 21.1572 295.178 29.7101 295.154 37.8416L290.21 37.8581Z" fill="url(#paint8_linear_606_954)"></path> <path d="M57.7139 58.005L53.2143 75.6893H64.6731C69.9952 46.9068 73.6805 30.4538 79.7923 1.67969H68.3583C65.8905 16.8931 64.6731 25.1155 61.3991 40.3372H60.5765C56.8996 25.1072 54.8513 16.8849 51.9887 1.67969H38.8848C45.4655 23.471 48.7148 36.2219 54.44 58.0132L57.7139 58.005Z" fill="url(#paint9_linear_606_954)"></path> <path d="M103.968 77.3316H106.436C115.484 77.3316 123.628 67.4647 123.628 51.0117H111.338C111.338 56.7963 110.516 67.4647 106.403 67.4647H103.935C99.822 67.4647 98.1768 56.7715 98.1768 40.7317V36.5999C98.1768 20.5601 99.822 9.86684 103.935 9.86684H106.403C110.516 9.86684 111.338 20.5601 111.338 26.3198H123.62C123.62 9.86684 115.435 0 106.427 0H103.96C94.9687 0.0247911 85.1387 9.89163 85.1387 36.6247V40.7565C85.1387 67.4647 94.9687 77.3316 103.968 77.3316Z" fill="url(#paint10_linear_606_954)"></path> <path d="M151.045 9.89028H153.513C157.626 9.89028 158.448 20.5835 158.448 26.3433H170.688C170.688 9.89028 162.504 0.0234375 153.496 0.0234375H151.028C141.98 0.0234375 132.199 9.89028 132.199 36.6233V40.7552C132.199 67.4882 142.021 77.355 151.028 77.355H153.496C162.545 77.355 170.688 67.4882 170.688 51.0352H158.407C158.407 56.8198 157.584 67.4882 153.471 67.4882H151.004C146.891 67.4882 145.246 56.795 145.246 40.7552V36.6233C145.311 20.5835 146.948 9.89028 151.045 9.89028Z" fill="url(#paint11_linear_606_954)"></path> <path d="M12.6926 75.6854C12.5363 66.2813 12.3883 58.439 12.2813 51.01H16.7809C27.4253 51.01 35.6101 40.73 35.6101 28.4005V24.2687C35.6101 11.5344 27.4253 1.67578 16.7809 1.67578H0C0.822593 30.4499 0.822593 46.9029 0 75.6854H12.6926ZM12.2813 10.7163H16.7809C21.2887 10.7163 22.5391 16.0629 22.5391 24.2852V28.4171C22.5391 36.6394 21.3134 41.986 16.7809 41.986H12.1662C12.0757 32.4993 12.0839 22.93 12.2813 10.7163V10.7163Z" fill="url(#paint12_linear_606_954)"></path> <path d="M204.259 1.67969C201.791 13.6042 199.751 20.1821 196.477 32.1066H191.977L192.389 1.67969H180.148C180.971 30.4621 180.971 46.9151 180.148 75.6975H192.833L192.01 41.1553H196.51C199.8 54.7243 201.018 62.1286 203.469 75.6975H216.976C212.476 60.0709 210.017 51.4353 206.332 35.8087C210.017 22.6529 212.476 14.8355 216.976 1.67969H204.259Z" fill="url(#paint13_linear_606_954)"></path> <defs> <linearGradient id="paint0_linear_606_954" x1="20.4661" y1="101.621" x2="20.4661" y2="175.672" gradientUnits="userSpaceOnUse"> <stop stop-color="#151414"></stop> <stop offset="1" stop-color="#444444"></stop> </linearGradient> <linearGradient id="paint1_linear_606_954" x1="108.471" y1="101.645" x2="108.471" y2="175.662" gradientUnits="userSpaceOnUse"> <stop stop-color="#151414"></stop> <stop offset="1" stop-color="#444444"></stop> </linearGradient> <linearGradient id="paint2_linear_606_954" x1="149.395" y1="100" x2="149.395" y2="177.323" gradientUnits="userSpaceOnUse"> <stop stop-color="#151414"></stop> <stop offset="1" stop-color="#444444"></stop> </linearGradient> <linearGradient id="paint3_linear_606_954" x1="288.783" y1="101.637" x2="288.783" y2="175.671" gradientUnits="userSpaceOnUse"> <stop stop-color="#151414"></stop> <stop offset="1" stop-color="#444444"></stop> </linearGradient> <linearGradient id="paint4_linear_606_954" x1="66.7172" y1="100" x2="66.7172" y2="177.323" gradientUnits="userSpaceOnUse"> <stop stop-color="#151414"></stop> <stop offset="1" stop-color="#444444"></stop> </linearGradient> <linearGradient id="paint5_linear_606_954" x1="244.377" y1="101.621" x2="244.377" y2="175.639" gradientUnits="userSpaceOnUse"> <stop stop-color="#151414"></stop> <stop offset="1" stop-color="#444444"></stop> </linearGradient> <linearGradient id="paint6_linear_606_954" x1="197.953" y1="101.645" x2="197.953" y2="175.662" gradientUnits="userSpaceOnUse"> <stop stop-color="#151414"></stop> <stop offset="1" stop-color="#444444"></stop> </linearGradient> <linearGradient id="paint7_linear_606_954" x1="243.553" y1="1.67578" x2="243.553" y2="75.6936" gradientUnits="userSpaceOnUse"> <stop stop-color="#151414"></stop> <stop offset="1" stop-color="#444444"></stop> </linearGradient> <linearGradient id="paint8_linear_606_954" x1="288.783" y1="1.67969" x2="288.783" y2="75.7388" gradientUnits="userSpaceOnUse"> <stop stop-color="#151414"></stop> <stop offset="1" stop-color="#444444"></stop> </linearGradient> <linearGradient id="paint9_linear_606_954" x1="59.3385" y1="1.67969" x2="59.3385" y2="75.6893" gradientUnits="userSpaceOnUse"> <stop stop-color="#151414"></stop> <stop offset="1" stop-color="#444444"></stop> </linearGradient> <linearGradient id="paint10_linear_606_954" x1="104.383" y1="0" x2="104.383" y2="77.3316" gradientUnits="userSpaceOnUse"> <stop stop-color="#151414"></stop> <stop offset="1" stop-color="#444444"></stop> </linearGradient> <linearGradient id="paint11_linear_606_954" x1="151.444" y1="0.0234375" x2="151.444" y2="77.355" gradientUnits="userSpaceOnUse"> <stop stop-color="#151414"></stop> <stop offset="1" stop-color="#444444"></stop> </linearGradient> <linearGradient id="paint12_linear_606_954" x1="17.805" y1="1.67578" x2="17.805" y2="75.6854" gradientUnits="userSpaceOnUse"> <stop stop-color="#151414"></stop> <stop offset="1" stop-color="#444444"></stop> </linearGradient> <linearGradient id="paint13_linear_606_954" x1="198.562" y1="1.67969" x2="198.562" y2="75.6975" gradientUnits="userSpaceOnUse"> <stop stop-color="#151414"></stop> <stop offset="1" stop-color="#444444"></stop> </linearGradient> </defs> </svg> 