<?xml version="1.0" encoding="utf-8"?>
<!-- Generator: Adobe Illustrator 21.0.0, SVG Export Plug-In . SVG Version: 6.00 Build 0)  -->
<svg version="1.1" id="Layer_1" xmlns="http://www.w3.org/2000/svg" xmlns:xlink="http://www.w3.org/1999/xlink" x="0px" y="0px"
	 viewBox="0 0 166.3 52.7" style="enable-background:new 0 0 166.3 52.7;" xml:space="preserve">
<style type="text/css">
	.st0{fill:#383434;}
</style>
<g>
	<g>
		<g>
			<path class="st0" d="M33.8,9c1,0,1.8,0.8,1.8,1.8l0,33c0,1-0.8,1.8-1.8,1.8c-1,0-1.8-0.8-1.8-1.8l0-33C32,9.8,32.8,9,33.8,9z"/>
		</g>
		<g>
			<path class="st0" d="M26.3,11c1,0,1.8,0.8,1.8,1.8l0,28.5c0,1-0.8,1.8-1.8,1.8c-1,0-1.8-0.8-1.8-1.8l0-28.5
				C24.5,11.8,25.3,11,26.3,11z"/>
		</g>
		<g>
			<path class="st0" d="M42.2,11.3c0.6,0,1.4,0.3,2.2,1.1L57,25c1.1,1.1,1.1,2.9,0,4L44.4,41.6c-1.3,1.3-2.4,1.3-3,1
				c-0.6-0.3-1.2-0.9-1.2-1.9V13.4c0-1.1,0.6-1.7,1.2-1.9C41.6,11.3,41.9,11.3,42.2,11.3z M43.8,13.3L43.8,13.3L43.8,13.3z M53.9,27
				L43.8,16.9v20.3L53.9,27z"/>
		</g>
		<g>
			<path class="st0" d="M18.8,15c0.3,0,0.5,0.1,0.8,0.2c0.7,0.3,1.2,1,1.2,1.9V37c0,0.8-0.4,1.6-1.2,1.9c-0.6,0.3-1.6,0.3-2.7-0.8
				l-9.2-9.2c-1-1-1-2.6,0-3.6l9.2-9.2C17.5,15.3,18.2,15,18.8,15z M18.9,17L18.9,17L18.9,17z M17.1,33.3V20.8L10.9,27L17.1,33.3z"
				/>
		</g>
	</g>
	<g>
		<path class="st0" d="M71.7,29.2c3.1,0,4.4,1.8,4.4,3.6c0,1.6-1.2,3.6-4.3,3.6h-2.1v2.9h-3.9V29.2H71.7z M69.5,34h0.9
			c0.5,0,1.8,0,1.8-1.3c0-0.6-0.3-1.3-1.8-1.3h-0.8V34z"/>
		<path class="st0" d="M82.3,29.2V35h0.1l2.6-5.8h4.5v10.1h-3.9v-5.7h-0.1l-2.6,5.7h-4.5V29.2H82.3z"/>
		<path class="st0" d="M101.3,29.2v2.5h-5.1v1.4h2.4c2.8,0,3.8,1.6,3.8,3.1c0,1.4-0.8,3.1-4.2,3.1h-5.9V29.2H101.3z M96.1,37.3h1.1
			c0.7,0,1.2-0.5,1.2-1.1c0-0.5-0.4-1.1-1.3-1.1h-1.1V37.3z"/>
		<path class="st0" d="M112.6,29.2l3.6,10.1h-4.1l-0.7-2.2h-3l-0.7,2.2h-3.9l3.6-10.1H112.6z M109.9,31.6l-1,3.2h2.2L109.9,31.6
			L109.9,31.6z"/>
		<path class="st0" d="M125,31.9h-1.9v1.7c0,3.3-0.1,5.8-3.6,5.8c-0.6,0-1.4-0.1-2-0.2v-2.6c0.2,0,0.6,0.1,0.9,0.1
			c1.5,0,1.3-2.4,1.3-4.3v-3.2h9.2v10.1H125V31.9z"/>
		<path class="st0" d="M135.7,33.2L135.7,33.2l2.4-4h4.4l-3.4,4.8l3.7,5.4h-4.6l-2.5-4.3h-0.1v4.3h-3.9V29.2h3.9V33.2z"/>
		<path class="st0" d="M153.1,29.2l3.6,10.1h-4.1l-0.7-2.2h-3l-0.7,2.2h-3.9l3.6-10.1H153.1z M150.4,31.6l-1,3.2h2.2L150.4,31.6
			L150.4,31.6z"/>
	</g>
	<g>
		<path class="st0" d="M71.3,15.4v1.4H69v6.5h-1.6v-6.5h-2.3v-1.4H71.3z"/>
		<path class="st0" d="M79.8,15.4v1.4h-3.1v1.8h2.8v1.3h-2.8v2h3.1v1.4h-4.7v-7.8H79.8z"/>
		<path class="st0" d="M90.1,15.4v7.8h-1.6v-6.5h-2.1v1.6c0,2.6,0,5-2.3,5c-0.3,0-0.5,0-0.8-0.1l0.1-1.2c0.1,0,0.3,0.1,0.4,0.1
			c1.2,0,1.1-2.2,1.1-4.1v-2.6H90.1z"/>
		<path class="st0" d="M99.3,15.4v1.4h-3.1v1.8H99v1.3h-2.8v2h3.1v1.4h-4.7v-7.8H99.3z"/>
		<path class="st0" d="M105.1,15.4v3.3h0l2.8-3.3h1.9l-3.3,3.6l3.5,4.3h-2l-2.9-3.9h0v3.9h-1.6v-7.8H105.1z"/>
		<path class="st0" d="M118.2,15.4l3.1,7.8h-1.8l-0.7-1.8h-3.2l-0.7,1.8h-1.7l3.1-7.8H118.2z M118.4,20.2l-1.2-3.2h0l-1.1,3.2H118.4
			z"/>
		<path class="st0" d="M126.8,15.4v3.2h3.2v-3.2h1.6v7.8h-1.6v-3.4h-3.2v3.4h-1.6v-7.8H126.8z"/>
		<path class="st0" d="M140.3,15.4l3.1,7.8h-1.8l-0.7-1.8h-3.2l-0.7,1.8h-1.7l3.1-7.8H140.3z M140.5,20.2l-1.2-3.2h0l-1.1,3.2H140.5
			z"/>
		<path class="st0" d="M153.3,15.4v7.8h-1.6v-6.5h-2.1v1.6c0,2.6,0,5-2.3,5c-0.3,0-0.5,0-0.8-0.1l0.1-1.2c0.1,0,0.3,0.1,0.4,0.1
			c1.2,0,1.1-2.2,1.1-4.1v-2.6H153.3z"/>
	</g>
</g>
</svg>
