<?xml version="1.0" encoding="UTF-8" standalone="no"?>
<svg width="206px" height="278px" viewBox="0 0 206 278" version="1.1" xmlns="http://www.w3.org/2000/svg" xmlns:xlink="http://www.w3.org/1999/xlink">
    <!-- Generator: Sketch 44 (41411) - http://www.bohemiancoding.com/sketch -->
    <title>scientology-symbol</title>
    <desc>Created with Sketch.</desc>
    <defs>
        <linearGradient x1="50%" y1="0%" x2="50%" y2="100%" id="linearGradient-1">
            <stop stop-color="#000000" stop-opacity="0.691066576" offset="0%"></stop>
            <stop stop-color="#010101" stop-opacity="0.269474638" offset="100%"></stop>
        </linearGradient>
    </defs>
    <g id="Page-1" stroke="none" stroke-width="1" fill="none" fill-rule="evenodd">
        <g id="Desktop-(1366---1180)-Copy-2" transform="translate(-546.000000, -252.000000)">
            <g id="scientology-symbol" transform="translate(546.000000, 252.000000)">
                <path d="M76.9088248,136.369694 L21.6565259,168.18054 L21.6603569,36.7236874 L136.187483,102.449239 L110.908766,117.346801 L120.451735,129.588669 L165.923544,102.819043 L5.13734321,9.54785214 L5.14117422,194.620598 L85.1435146,148.197687 L76.9088248,136.369694 L76.9088248,136.369694 Z M130.178592,142.849894 C139.348041,157.071078 142.543077,164.645362 144.255525,170.029562 L172.164209,185.074662 L149.017432,198.303313 C148.592194,206.128605 148.927404,210.483867 145.130904,219.598684 L205.568433,185.438718 L130.178592,142.849894 L130.178592,142.849894 Z M63.8739175,115.936562 L47.7205935,92.0314843 L47.7244242,149.100164 L63.8739175,139.912536 L63.8739175,115.936562 L63.8739175,115.936562 Z M70.0762732,246.74961 L63.504228,250.397836 L63.504228,164.888705 L47.7205935,174.080165 L47.7205935,277.977965 L89.9379852,253.383096 C81.6151829,252.405893 74.2348013,249.685052 70.0762732,246.74961 L70.0762732,246.74961 L70.0762732,246.74961 Z" id="triangles" fill-opacity="0.900843524" fill="#FFD999"></path>
                <path d="M69.3809505,19.4616766 C73.0491129,19.4616766 81.42938,25.031736 94.5274983,36.1680228 C107.617955,47.3081415 117.346727,52.8762849 123.709983,52.8762849 C134.9654,52.8762849 144.878059,46.6355956 153.442213,34.1503851 C141.696431,33.6598673 127.134879,27.8464651 109.759472,16.7082623 C92.3840654,5.57005944 79.5368763,-1.13686838e-13 71.214074,-1.13686838e-13 C56.2885788,-1.13686838e-13 45.031246,6.97071767 36.7084435,23.1290635 L55.7962978,34.5106091 C55.5530306,30.1036133 56.6544371,27.7238356 59.1005173,24.4185888 C61.5465976,21.115258 64.9734086,19.4616766 69.3809505,19.4616766 L69.3809505,19.4616766 Z M131.841237,234.410213 C141.997163,223.883242 145.366509,210.165988 145.366509,194.986762 C145.366509,175.647715 134.47695,152.390274 112.697833,125.21827 L63.5023126,65.0244561 L30.4447924,46.2698151 C30.4447924,54.349946 33.6494065,64.6278265 38.5434826,71.9721811 L105.72162,172.587727 C115.019407,186.542575 119.670215,198.044833 119.670215,207.106 C119.670215,219.591211 113.674733,225.833816 101.681852,225.833816 C95.5656939,225.833816 89.1411414,224.057605 82.4101108,220.507099 C75.6809956,216.956594 70.8597084,212.612829 67.1915455,207.473889 L67.1915455,240.156552 C74.2865195,246.274612 82.3832938,248.524096 92.1388828,249.332684 C104.507199,250.361622 121.685311,244.937185 131.841237,234.410213 L131.841237,234.410213 Z M0,218.487546 C7.87074694,217.021741 18.7296577,216.642356 27.2631641,219.411099 C34.8485031,221.877101 43.6827413,227.669426 43.6827413,227.669426 L43.6827413,194.986762 C39.5222978,192.538005 35.1185871,191.315543 30.4677783,191.315543 C23.1257064,191.315543 16.3333802,194.009558 10.0946304,199.393758 C3.85588065,204.779873 0.490365348,211.145108 0,218.487546 L0,218.487546 Z" id="s" fill="url(#linearGradient-1)"></path>
            </g>
        </g>
    </g>
</svg>