<?xml version="1.0" encoding="utf-8"?>
<!-- Generator: Adobe Illustrator 27.2.0, SVG Export Plug-In . SVG Version: 6.00 Build 0)  -->
<svg version="1.1" id="Livello_1" xmlns="http://www.w3.org/2000/svg" xmlns:xlink="http://www.w3.org/1999/xlink" x="0px" y="0px"
	 viewBox="0 0 69.1 69.6" style="enable-background:new 0 0 69.1 69.6;" xml:space="preserve">
<g id="Symbols">
	<g id="Top-Header-_x2F_-white">
		<g id="Logo_del_Senato_della_Repubblica_Italiana">
			<path id="path44" style="fill:#9C161C;" d="M23.8,14.4c1.8,4,5.1,6.3,9,8c7.2,3.2,15.1,5.4,21.7,9.8c4.1,2.7,7.1,6.5,8.1,11.4
				c0.3,1.7,0,3.5,0.2,5.2c0,0-2-13.4-23.7-19.5c-19.2-7-15.4-15.8-16-16.5C23.5,13.3,23.6,14,23.8,14.4z M27.4,20.1
				c-0.3,0-0.6,0.3-0.6,0.6c0,0.3,0.3,0.6,0.6,0.6c0.3,0,0.6-0.3,0.6-0.6C28,20.4,27.8,20.1,27.4,20.1z M25.2,18.1
				c-0.2,0-0.4,0.2-0.4,0.4c0,0.2,0.2,0.4,0.4,0.4c0.2,0,0.4-0.2,0.4-0.4C25.7,18.3,25.5,18.1,25.2,18.1z M49.2,30.5
				c-0.5,0-0.9,0.4-0.9,0.9s0.4,0.9,0.9,0.9c0.5,0,0.9-0.4,0.9-0.9S49.7,30.5,49.2,30.5z M59.2,38.6c-0.3,0-0.6,0.3-0.6,0.6
				c0,0.3,0.3,0.6,0.6,0.6c0.3,0,0.6-0.3,0.6-0.6C59.8,38.9,59.5,38.6,59.2,38.6z M61.1,41.9c-0.2,0-0.4,0.2-0.4,0.4
				c0,0.2,0.2,0.4,0.4,0.4c0.2,0,0.4-0.2,0.4-0.4C61.5,42.1,61.3,41.9,61.1,41.9z M30.4,21.9c-0.6,0-1,0.5-1,1.1s0.5,1.1,1,1.1
				c0.6,0,1-0.5,1-1.1S31,21.9,30.4,21.9z M33.4,23.8c-0.5,0-0.9,0.4-0.9,0.9c0,0.5,0.4,0.9,0.9,0.9c0.5,0,0.9-0.4,0.9-0.9
				C34.3,24.2,33.9,23.8,33.4,23.8z M37,25.4c-0.5,0-0.9,0.4-0.9,0.9c0,0.5,0.4,0.9,0.9,0.9c0.5,0,0.9-0.4,0.9-0.9
				C37.9,25.8,37.5,25.4,37,25.4z M41.1,26.8c-0.5,0-0.9,0.4-0.9,0.9c0,0.5,0.4,0.9,0.9,0.9c0.5,0,0.9-0.4,0.9-0.9
				C42,27.3,41.6,26.8,41.1,26.8z M45.2,28.4c-0.5,0-0.9,0.4-0.9,0.9c0,0.5,0.4,0.9,0.9,0.9c0.5,0,0.9-0.4,0.9-0.9
				C46.1,28.8,45.7,28.4,45.2,28.4z M53,32.6c-0.5,0-0.9,0.4-0.9,0.9c0,0.5,0.4,0.9,0.9,0.9c0.5,0,0.9-0.4,0.9-0.9
				C53.9,33,53.5,32.6,53,32.6z M56.4,35.3c-0.4,0-0.8,0.4-0.8,0.8c0,0.4,0.3,0.8,0.8,0.8c0.4,0,0.8-0.4,0.8-0.8
				S56.8,35.3,56.4,35.3z"/>
			<path id="path46" style="fill:#9C161C;" d="M27.5,42.3c0,0-5,5.3-5,5.3c0,0-6.3-3.2-6.8-3.4c-5-2-11.2-4.4-14.3,1.5
				c-0.6,1.1-0.8,2.7-0.6,4C1,52,2.2,53.9,4.3,54.8c3.2,1.4,7.9,0.2,11-1.1c0.1,0,2.2-1.2,2.2-1.2c0,0,2.1,4.2,1.2,9.3
				c0-0.2-5.6-0.3-6.1-0.2c-2.3,0.2-5.1,0.9-4.6,3.7c0.4,2.5,4.6,1.2,2.9-1.7c0.1,0.1-0.1-0.1,0,0c6-1.2,14,2.2,21.9,3.6
				c6.1,1.1,5.1,1.6,12.5,2c11.1,0.6,17.9-7.6,21.1-17.3c1.2-3.6,1.5-6.3,0.9-10c-0.2-1.3-1.5-4.3-2.2-5.5c-1.3-2.3-3.4-4.1-5.4-5.7
				c-3.9-3-8-5.3-12.6-7c-0.9-0.4-1.9-0.7-2.9-1l8.2-9.7c1.1,0.1,2.2,0.9,3.4,2.4c8.3,10.1,12.3-0.7,12.3-0.8c0.5-1.4,0.5-3.1,0-4.5
				c-1-2.9-4.2-5.1-7.2-5.1c-2.6,0-5.3,1.9-7.1,3.6c0.4-0.3-4.4-4.2-4.6-4.3c-8.4-5.9-25.5-5.6-29.3,5.9c-0.8,2.3-1.2,6.5-0.3,8.8
				c2,5.2,7,8.5,11.6,11.1c0.2,0.1,3.5,2,3.6,1.8c0,0-1,1.5-1,1.5l2.2,0.8c0,0,0,0,1.1-1.6C64.3,43,60.1,56.4,60.1,56.4
				s-1.4,17.1-29.5,8.4c0-8.9-7-15.3-7-15.3l6.3-5.8L27.5,42.3z M16.6,50.5c0.1,0.1-5.6,2.1-6,2.2C7.9,53.3,4.5,54,3,51
				c-0.7-1.5-0.3-4.2,0.8-5.2c1.3-1.2,3.4-1.6,5.2-1.4c2.8,0.3,4.9,2.4,6.5,4.5C16,49.4,16.3,49.9,16.6,50.5z M52.1,9.4
				c0,0.1-1.1,1.1-1.1,1.1C45.8,4.6,43,5,43,5s4.3,4.1,5.9,7.8l-1.2,1.1c0,0-4.3-8.8-10.5-10.4C34.7,2.7,46,2.1,52.1,9.4L52.1,9.4z
				 M26,15c7,7.6,17.8,8.2,26.1,13.5c4.1,2.6,8,5.6,10.6,9.9c3.2,5.2,2.6,11.4-0.3,16.6c0.4-0.8-0.1-16.8-23.7-23.8
				c0,0-24.9-7.4-15.4-22.3C22.3,10.4,25.2,14.1,26,15z M22.9,63l-2.1-0.5c0,0,0-12.1-4.4-16c13.6,6.6,12.2,17.9,12.2,17.9l-1.8-0.5
				c0,0,0.4-9.5-6.4-13C23.8,57.3,22.9,63,22.9,63L22.9,63z M25.6,61.9c0,0.6-0.5,1.1-1,1.1s-1-0.5-1-1.1s0.5-1.1,1-1.1
				C25.2,60.8,25.6,61.3,25.6,61.9z M25.1,58.6c0,0.4-0.3,0.8-0.7,0.8s-0.7-0.3-0.7-0.8c0-0.4,0.3-0.8,0.7-0.8S25.1,58.2,25.1,58.6
				L25.1,58.6z M23.8,55.5c0,0.2-0.2,0.4-0.4,0.4c-0.2,0-0.4-0.2-0.4-0.4c0-0.2,0.2-0.4,0.4-0.4C23.7,55.1,23.8,55.3,23.8,55.5z
				 M58.5,15.1c-0.1-0.1-0.2-0.2-0.3-0.3c-1.4-1.4-2.9-2.2-4.3-3.4c1.1-1.3,3.6-2.7,4.8-3.3c2.5-0.6,5.8-0.7,7.1,2
				c1.5,3-0.1,6.9-3.6,7C60.6,17.2,59.6,16.1,58.5,15.1z M49.7,10.6c0,0.3-0.3,0.6-0.6,0.6s-0.6-0.3-0.6-0.6s0.3-0.6,0.6-0.6
				S49.7,10.3,49.7,10.6z M48,8.6c0,0.3-0.2,0.5-0.5,0.5c-0.3,0-0.5-0.2-0.5-0.5c0-0.3,0.2-0.5,0.5-0.5C47.8,8.1,48,8.3,48,8.6z
				 M46,15.5c0,0-0.6,1.8-4.4,5.9c-0.7,0.8-6.3-2.5-7-2.9c-3.4-1.8-7.3-4.3-8.8-8.1c-0.4-0.9,0.4-3.1,0.8-3.9
				c0.6-1.1,1.6-1.8,2.8-2.1c2.3-0.7,5-0.3,7.1,0.7c3.5,1.6,6.3,4.8,8.2,8.1C44.9,13.5,46.2,15.1,46,15.5z"/>
			<path id="path48" style="fill:#9C161C;" d="M56.6,10.7c0.5,0,1.6-0.9,2.1-1c0.9-0.3,2-0.7,3-0.6c3.4,0.3,3.9,5.8,0.6,6
				c-1.3,0.1-3.5-2-3.2-2.8c2,3.3,3.9,0.6,3.2-0.4C61.2,9.7,58.7,10.9,56.6,10.7L56.6,10.7z"/>
			<path id="path50" style="fill:#9C161C;" d="M27.3,42.5c-28.4-14.3-9.5-30-9.5-30.2c-2.6,14.5,15.7,20.8,16,20.9
				c0.2,0.1,2,0.8,2.4,0.9c0.4,0.1,37.7,12.4,15.5,30.5c6-10.6-21.4-20.7-21.8-20.9C29.2,43.5,27.3,42.5,27.3,42.5z M31.7,42.5
				c0,0,23,8.5,22.6,17.9c10.1-15.5-18.7-24.6-18.7-24.6S16.9,30,16.1,17.4C6,32.1,31.7,42.5,31.7,42.5z"/>
			<path id="path52" style="fill:#9C161C;" d="M36.5,38.4c0,0,20.7,6.4,18,17.8C54.3,47.9,35.1,42,35.1,42s-23.8-9.6-19-20.6
				C19,32.6,36.5,38.4,36.5,38.4z M52.9,50.1c-0.2,0-0.4,0.2-0.4,0.5c0,0.2,0.2,0.5,0.4,0.5s0.4-0.2,0.4-0.5
				C53.4,50.3,53.2,50.1,52.9,50.1z M50.6,47c-0.4,0-0.7,0.3-0.7,0.7c0,0.4,0.3,0.7,0.7,0.7s0.7-0.3,0.7-0.7
				C51.3,47.3,51,47,50.6,47z M47.6,44.6c-0.4,0-0.8,0.4-0.8,0.8c0,0.5,0.4,0.8,0.8,0.8s0.8-0.4,0.8-0.8C48.4,45,48,44.6,47.6,44.6z
				 M40,40.9c-0.5,0-0.9,0.4-0.9,0.9c0,0.5,0.4,0.9,0.9,0.9c0.5,0,0.9-0.4,0.9-0.9C40.9,41.3,40.5,40.9,40,40.9z M24.9,33.7
				c-0.5,0-0.9,0.4-0.9,0.9s0.4,0.9,0.9,0.9s0.9-0.4,0.9-0.9S25.4,33.7,24.9,33.7z M19.2,29c-0.3,0-0.6,0.3-0.6,0.6
				c0,0.3,0.3,0.6,0.6,0.6c0.3,0,0.6-0.3,0.6-0.6C19.8,29.3,19.5,29,19.2,29L19.2,29z M17.2,26.1c-0.2,0-0.4,0.2-0.4,0.4
				c0,0.2,0.2,0.4,0.4,0.4c0.2,0,0.4-0.2,0.4-0.4C17.6,26.2,17.4,26.1,17.2,26.1z M21.7,31c-0.6,0-1,0.5-1,1.1c0,0.6,0.5,1.1,1,1.1
				s1-0.5,1-1.1C22.8,31.5,22.3,31,21.7,31z M36.1,39.3c-0.5,0-0.9,0.4-0.9,0.9c0,0.5,0.4,0.9,0.9,0.9c0.5,0,0.9-0.4,0.9-0.9
				C37,39.7,36.6,39.3,36.1,39.3z M32,37.5c-0.5,0-0.9,0.4-0.9,0.9s0.4,0.9,0.9,0.9c0.5,0,0.9-0.4,0.9-0.9S32.5,37.5,32,37.5z
				 M28.3,35.7c-0.5,0-0.9,0.4-0.9,0.9c0,0.5,0.4,0.9,0.9,0.9c0.5,0,0.9-0.4,0.9-0.9C29.2,36.1,28.8,35.7,28.3,35.7z M44.1,42.7
				c-0.4,0-0.8,0.4-0.8,0.8c0,0.5,0.4,0.8,0.8,0.8c0.4,0,0.8-0.4,0.8-0.8C44.9,43,44.5,42.7,44.1,42.7z"/>
		</g>
	</g>
</g>
</svg>
