<?xml version="1.0" encoding="utf-8"?>
<!-- Generator: Adobe Illustrator 26.0.3, SVG Export Plug-In . SVG Version: 6.00 Build 0)  -->
<svg version="1.1" id="Capa_1" xmlns="http://www.w3.org/2000/svg" xmlns:xlink="http://www.w3.org/1999/xlink" x="0px" y="0px"
	 viewBox="0 0 609.98 155" style="enable-background:new 0 0 609.98 155;" xml:space="preserve">
<style type="text/css">
	.st0{fill:#C6C6C6;}
	.st1{fill:#3C3C3B;}
	.st2{fill:#F7BB00;}
	.st3{fill:#ED8C27;}
	.st4{fill:#DB0032;}
	.st5{fill:#00ABC8;}
	.st6{fill:#0071CE;}
</style>
<g>
	<g>
		<g>
			<path class="st0" d="M524.06,136.25c2.22-0.5,4.04-1.58,5.4-3.2c1.54-1.84,2.32-4.19,2.31-6.99c-0.01-3.27-1.03-5.96-3.06-7.98
				c-1.95-1.95-4.55-2.95-7.72-2.95l-9.24-0.02c-0.86,0-1.6,0.3-2.19,0.88c-0.59,0.59-0.88,1.32-0.88,2.19l0.07,32.64
				c0,0.66,0.25,1.24,0.73,1.72c0.49,0.49,1.07,0.73,1.72,0.73c0.66,0,1.24-0.24,1.72-0.73c0.48-0.48,0.73-1.06,0.73-1.72
				l-0.03-14.25l5.11,0.01l8.77,15.46c0.46,0.83,1.17,1.26,2.06,1.27c0.43,0,0.84-0.12,1.22-0.35c0.37-0.23,0.66-0.53,0.86-0.9
				c0.21-0.37,0.31-0.77,0.31-1.19c0-0.42-0.1-0.81-0.29-1.14L524.06,136.25z M526.87,126.04c0,1.92-0.5,3.37-1.5,4.31
				c-1.05,0.98-2.54,1.48-4.44,1.48l-7.3-0.01l-0.02-11.96l7.3,0.01c1.88,0,3.31,0.52,4.38,1.59c0.52,0.52,0.91,1.17,1.17,1.94
				C526.73,124.19,526.87,125.08,526.87,126.04z"/>
		</g>
		<g>
			<path class="st0" d="M555.4,115.19l-20.81-0.04c-0.66,0-1.23,0.23-1.69,0.7c-0.47,0.47-0.7,1.04-0.7,1.69
				c0,0.66,0.24,1.23,0.72,1.68c0.47,0.44,1.03,0.67,1.69,0.67l7.92,0.02l0.06,30.96c0,0.66,0.25,1.24,0.73,1.72
				c0.49,0.49,1.07,0.73,1.72,0.73c0.66,0,1.24-0.24,1.72-0.73c0.48-0.48,0.73-1.06,0.73-1.72l-0.06-30.96l7.98,0.02
				c0.65,0,1.22-0.22,1.68-0.66c0.47-0.45,0.71-1.02,0.71-1.68c0-0.66-0.24-1.23-0.71-1.7C556.63,115.43,556.05,115.19,555.4,115.19
				z"/>
		</g>
		<g>
			<path class="st0" d="M585.13,115.25c-0.51,0-0.99,0.15-1.41,0.46c-0.42,0.3-0.72,0.71-0.9,1.2l-8.67,27.52l-8.84-27.53
				l-0.01-0.02c-0.18-0.5-0.49-0.91-0.9-1.21c-0.42-0.3-0.9-0.46-1.41-0.46c-0.74,0-1.33,0.24-1.77,0.73
				c-0.42,0.46-0.63,1.03-0.63,1.67c0,0.15,0.01,0.29,0.04,0.41c0.02,0.11,0.06,0.23,0.1,0.36l10.81,33.14
				c0.44,1.23,1.33,1.88,2.57,1.88c1.28,0,2.18-0.64,2.63-1.89l10.66-33.08c0.04-0.13,0.07-0.24,0.1-0.36
				c0.03-0.13,0.04-0.27,0.04-0.41c0-0.7-0.24-1.28-0.72-1.73C586.35,115.48,585.78,115.25,585.13,115.25z"/>
		</g>
		<g>
			<path class="st0" d="M607.62,146.69c-0.22,0-0.43,0.02-0.63,0.07c-0.22,0.05-0.45,0.14-0.7,0.29c-0.85,0.56-1.72,0.99-2.59,1.3
				c-0.84,0.3-1.72,0.45-2.61,0.45c-2.58-0.01-4.63-0.75-6.09-2.21c-1.43-1.46-2.16-3.53-2.17-6.15l-0.02-12.19
				c-0.01-2.58,0.72-4.65,2.14-6.14c1.46-1.46,3.5-2.19,6.08-2.19c0.89,0,1.78,0.15,2.62,0.44c0.86,0.29,1.73,0.73,2.6,1.3
				c0.23,0.14,0.46,0.24,0.68,0.28c0.2,0.04,0.41,0.07,0.63,0.07c0.7,0,1.27-0.23,1.71-0.69c0.42-0.45,0.64-1.01,0.64-1.66
				c0-0.88-0.38-1.57-1.09-2c-1.25-0.75-2.52-1.34-3.79-1.75c-1.29-0.42-2.64-0.63-4.01-0.64c-3.93-0.01-7.13,1.2-9.52,3.59
				c-2.39,2.39-3.6,5.6-3.59,9.52l0.02,11.88c0.01,3.86,1.23,7.06,3.63,9.54c2.4,2.4,5.61,3.62,9.54,3.63
				c1.37,0,2.72-0.21,4.01-0.62c1.26-0.41,2.54-0.99,3.79-1.74c0.71-0.43,1.09-1.12,1.08-2c0-0.69-0.23-1.27-0.68-1.72
				C608.84,146.92,608.28,146.69,607.62,146.69z"/>
		</g>
	</g>
	<g>
		<g>
			<path class="st0" d="M470.78,155c-0.69,0-1.24-0.56-1.24-1.24V1.24c0-0.69,0.56-1.24,1.24-1.24s1.24,0.56,1.24,1.24v152.51
				C472.03,154.44,471.47,155,470.78,155z"/>
		</g>
	</g>
	<g>
		<path class="st1" d="M129.72,49.1c-1.05-1.16-2.27-2.17-3.67-3.04c-1.4-0.87-2.83-1.67-4.31-2.41l-8.6-4.18
			c-2.11-1.05-3.68-2.25-4.74-3.59c-1.05-1.35-1.58-3.01-1.58-5.01c0-1.63,0.33-3.02,0.99-4.14c0.65-1.14,1.52-2.05,2.6-2.77
			c1.08-0.71,2.26-1.21,3.55-1.5c1.29-0.29,2.57-0.43,3.83-0.43c2.16,0,4.09,0.22,5.81,0.67c1.71,0.45,3.36,1.02,4.93,1.7
			c0.31,0.16,0.68,0.24,1.1,0.24c0.74,0,1.38-0.27,1.9-0.79c0.52-0.52,0.78-1.13,0.78-1.81c0-0.58-0.14-1.09-0.43-1.54
			c-0.29-0.44-0.72-0.78-1.3-0.99c-1.84-0.74-3.76-1.36-5.75-1.86c-2-0.5-4.35-0.75-7.03-0.75c-2.21,0-4.32,0.31-6.31,0.95
			c-2,0.63-3.75,1.54-5.26,2.72c-1.5,1.19-2.7,2.63-3.59,4.35c-0.89,1.71-1.34,3.64-1.34,5.8c0,1.89,0.22,3.54,0.67,4.93
			c0.45,1.4,1.08,2.62,1.9,3.67c0.81,1.05,1.8,1.98,2.96,2.8c1.15,0.81,2.47,1.56,3.95,2.24l8.6,4.19c1.05,0.53,2.08,1.11,3.08,1.74
			c1,0.63,1.88,1.37,2.64,2.21c0.77,0.84,1.38,1.78,1.86,2.8c0.47,1.03,0.7,2.17,0.7,3.44c0,3.15-0.94,5.6-2.8,7.34
			c-1.87,1.74-4.73,2.61-8.57,2.61c-2,0-3.92-0.24-5.76-0.71c-1.85-0.47-3.66-1.13-5.45-1.98c-0.31-0.16-0.69-0.24-1.11-0.24
			c-0.74,0-1.37,0.26-1.9,0.75c-0.52,0.5-0.78,1.12-0.78,1.86c0,0.52,0.14,1.02,0.43,1.46c0.29,0.44,0.67,0.78,1.15,0.98
			c2.11,0.9,4.27,1.62,6.51,2.17c2.24,0.55,4.54,0.83,6.91,0.83c2.27,0,4.42-0.33,6.47-0.99c2.06-0.66,3.84-1.62,5.37-2.88
			c1.53-1.26,2.75-2.83,3.67-4.7c0.92-1.87,1.38-4.04,1.38-6.51c0-2.11-0.32-3.95-0.95-5.53C131.62,51.62,130.78,50.26,129.72,49.1"
			/>
		<path class="st1" d="M165.4,36.7c-1.26-1.26-2.78-2.25-4.54-2.97c-1.76-0.7-3.72-1.06-5.88-1.06c-2.16,0-4.13,0.36-5.92,1.06
			c-1.79,0.71-3.31,1.7-4.58,2.97c-1.26,1.26-2.23,2.78-2.92,4.54c-0.69,1.77-1.03,3.72-1.03,5.88v12.24c0,2.16,0.34,4.12,1.03,5.88
			c0.68,1.77,1.66,3.28,2.92,4.54c1.27,1.26,2.79,2.24,4.58,2.96c1.79,0.71,3.76,1.07,5.92,1.07c2,0,3.93-0.2,5.8-0.59
			c1.87-0.39,3.7-1.04,5.49-1.94c0.99-0.47,1.5-1.26,1.5-2.37c0-0.73-0.26-1.34-0.79-1.81c-0.52-0.47-1.16-0.71-1.89-0.71
			c-0.37,0-0.74,0.08-1.11,0.24c-1.42,0.63-2.88,1.16-4.38,1.57c-1.5,0.42-3.04,0.63-4.62,0.63c-2.84,0-5.07-0.86-6.67-2.6
			c-1.61-1.74-2.41-4.03-2.41-6.87v-4.42h19.73c1.06,0,1.94-0.35,2.65-1.07c0.7-0.71,1.06-1.59,1.06-2.64v-4.11
			c0-2.16-0.34-4.11-1.03-5.88C167.64,39.48,166.67,37.97,165.4,36.7 M163.98,49.96H145.9v-3.23c0-2.84,0.8-5.07,2.41-6.67
			c1.6-1.61,3.83-2.41,6.67-2.41c2.84,0,5.05,0.81,6.63,2.41c1.58,1.6,2.37,3.83,2.37,6.67V49.96z"/>
		<path class="st1" d="M181.12,24.39c0.74,0,1.42-0.34,2.06-1.03c0.79-0.95,1.78-1.42,2.99-1.42c0.42,0,0.79,0.07,1.11,0.2
			c0.32,0.14,0.64,0.31,0.95,0.52c1.74,1.15,3.5,1.74,5.29,1.74c1.37,0,2.67-0.29,3.91-0.87c1.23-0.57,2.28-1.42,3.11-2.53
			c0.37-0.42,0.55-0.94,0.55-1.58c0-0.73-0.25-1.34-0.75-1.82c-0.5-0.47-1.09-0.71-1.78-0.71c-0.74,0-1.42,0.34-2.05,1.02
			c-0.37,0.42-0.82,0.77-1.35,1.03c-0.52,0.26-1.08,0.39-1.66,0.39c-0.63,0-1.32-0.24-2.05-0.71c-0.85-0.52-1.69-0.94-2.57-1.26
			c-0.87-0.31-1.78-0.47-2.73-0.47c-1.37,0-2.67,0.28-3.91,0.83c-1.24,0.55-2.28,1.38-3.12,2.48c-0.37,0.58-0.55,1.13-0.55,1.66
			c0,0.74,0.25,1.34,0.75,1.81C179.85,24.15,180.44,24.39,181.12,24.39"/>
		<path class="st1" d="M178.86,73.81c0.73,0,1.37-0.26,1.9-0.79c0.52-0.52,0.79-1.15,0.79-1.89V38.99c2.95-0.89,5.97-1.34,9.08-1.34
			c2.84,0,5.05,0.8,6.63,2.41c1.58,1.6,2.37,3.83,2.37,6.67v24.39c0,0.74,0.26,1.37,0.79,1.89c0.52,0.53,1.15,0.79,1.89,0.79
			c0.74,0,1.37-0.26,1.9-0.79c0.53-0.52,0.79-1.15,0.79-1.89v-24c0-2.16-0.34-4.12-1.03-5.88c-0.68-1.76-1.66-3.28-2.92-4.53
			c-1.26-1.27-2.77-2.25-4.54-2.97c-1.77-0.71-3.72-1.06-5.88-1.06c-4.32,0-8.29,0.65-11.93,1.97c-0.73,0.26-1.34,0.71-1.82,1.34
			c-0.47,0.64-0.71,1.34-0.71,2.13v33c0,0.74,0.26,1.37,0.79,1.89C177.49,73.54,178.12,73.81,178.86,73.81"/>
		<path class="st1" d="M239.01,71.83c0.73-0.26,1.34-0.71,1.82-1.34c0.47-0.63,0.71-1.34,0.71-2.13V44.68c0-2-0.37-3.75-1.11-5.25
			c-0.73-1.51-1.74-2.75-3-3.75c-1.26-1-2.73-1.75-4.38-2.25c-1.65-0.5-3.41-0.75-5.25-0.75c-1.95,0-3.92,0.24-5.92,0.71
			c-2,0.47-3.92,1.29-5.77,2.45c-0.89,0.58-1.34,1.37-1.34,2.37c0,0.79,0.26,1.41,0.78,1.86c0.53,0.45,1.16,0.67,1.9,0.67
			c0.42,0,0.84-0.13,1.26-0.39c1.53-0.9,3.03-1.56,4.5-2.01c1.48-0.44,3-0.67,4.58-0.67c2.53,0,4.55,0.6,6.08,1.78
			c1.52,1.18,2.29,2.96,2.29,5.32v4.97h-9c-2.42,0-4.56,0.26-6.39,0.75c-1.84,0.5-3.37,1.3-4.58,2.41
			c-2.32,2.16-3.47,5.08-3.47,8.76c0,3.79,1.16,6.71,3.47,8.76c2.52,2.27,6.18,3.4,10.97,3.4c2.05,0,4.06-0.17,6.04-0.52
			C235.18,72.95,237.11,72.46,239.01,71.83 M222.35,68.16c-1.21-0.45-2.13-1.03-2.76-1.74c-0.63-0.71-1.04-1.48-1.22-2.33
			c-0.18-0.84-0.28-1.66-0.28-2.45c0-0.79,0.09-1.59,0.28-2.41c0.18-0.81,0.59-1.56,1.22-2.25c0.64-0.68,1.56-1.24,2.76-1.66
			c1.21-0.42,2.82-0.63,4.82-0.63h9v12.79c-2.95,0.89-5.95,1.34-9,1.34C225.17,68.83,223.56,68.61,222.35,68.16"/>
		<path class="st1" d="M252.57,73.81c0.74,0,1.37-0.26,1.9-0.79c0.52-0.52,0.79-1.15,0.79-1.89V19.57c0-0.73-0.27-1.37-0.79-1.89
			c-0.52-0.53-1.16-0.79-1.9-0.79c-0.74,0-1.37,0.26-1.9,0.79c-0.53,0.52-0.79,1.16-0.79,1.89v51.55c0,0.74,0.26,1.37,0.79,1.89
			C251.2,73.54,251.83,73.81,252.57,73.81"/>
		<path class="st1" d="M11.7,93.9c1.81-1.81,4.29-2.69,7.57-2.69c1.11,0,2.2,0.19,3.25,0.54c1.09,0.37,2.21,0.92,3.36,1.67
			c0.43,0.26,0.86,0.43,1.28,0.53c0.36,0.08,0.74,0.12,1.12,0.12c1.28,0,2.38-0.46,3.2-1.32c0.79-0.83,1.2-1.9,1.2-3.08
			c0-1.62-0.73-2.95-2.06-3.75c-1.79-1.07-3.62-1.92-5.46-2.51c-1.89-0.61-3.87-0.92-5.89-0.92c-5.73,0-10.42,1.79-13.95,5.31
			C1.79,91.34,0,96.03,0,101.76v17.08c0,5.63,1.78,10.32,5.32,13.96c3.52,3.52,8.22,5.32,13.95,5.32c2.02,0,4-0.31,5.88-0.92
			c1.82-0.59,3.67-1.43,5.46-2.52c1.33-0.79,2.06-2.13,2.06-3.75c0-1.25-0.44-2.35-1.28-3.19c-1.06-1.06-2.65-1.51-4.25-1.15
			c-0.43,0.1-0.86,0.27-1.34,0.57c-1.1,0.72-2.22,1.29-3.33,1.68c-1.03,0.37-2.11,0.56-3.21,0.56c-3.28,0-5.75-0.88-7.55-2.68
			c-1.75-1.79-2.64-4.37-2.64-7.66v-17.52C9.08,98.3,9.96,95.72,11.7,93.9"/>
		<path class="st1" d="M63.24,101.22c-1.39-1.41-3.08-2.52-5.04-3.29c-1.93-0.76-4.06-1.13-6.36-1.13c-2.29,0-4.43,0.39-6.36,1.15
			c-1.95,0.78-3.65,1.88-5.03,3.3c-1.38,1.4-2.46,3.1-3.23,5.04c-0.76,1.93-1.14,4.06-1.13,6.36l0.01,9.66
			c0,2.29,0.39,4.43,1.15,6.35c0.76,1.94,1.86,3.63,3.23,5.04c1.39,1.41,3.08,2.52,5.04,3.28c1.93,0.76,4.07,1.14,6.37,1.13
			c2.29,0,4.43-0.39,6.35-1.15c1.95-0.77,3.64-1.88,5.03-3.3c1.38-1.41,2.46-3.1,3.22-5.05c0.75-1.92,1.14-4.06,1.13-6.36
			l-0.02-9.66c0-2.29-0.39-4.43-1.15-6.36C65.7,104.31,64.61,102.62,63.24,101.22 M58.69,112.26l0.01,10.36
			c0,2.28-0.56,3.96-1.73,5.15c-1.16,1.19-2.82,1.77-5.09,1.77c-2.27,0-3.93-0.57-5.1-1.74c-1.17-1.18-1.74-2.87-1.74-5.15
			l-0.02-10.37c0-2.27,0.57-3.96,1.73-5.15c1.16-1.18,2.82-1.75,5.09-1.76c2.27,0,3.93,0.57,5.1,1.74
			C58.1,108.28,58.69,110.02,58.69,112.26"/>
		<path class="st1" d="M77.14,82.59c-1.2,0-2.32,0.46-3.15,1.29c-0.86,0.86-1.31,1.95-1.31,3.15v46.69c0,1.21,0.45,2.3,1.31,3.16
			c0.86,0.86,1.95,1.31,3.15,1.31c1.21,0,2.3-0.45,3.16-1.31c0.86-0.86,1.31-1.95,1.31-3.15V87.04c0-1.2-0.45-2.29-1.31-3.16
			C79.46,83.05,78.34,82.59,77.14,82.59"/>
		<path class="st1" d="M113.82,101.23c-1.38-1.41-3.07-2.53-5.03-3.3c-1.92-0.76-4.06-1.14-6.36-1.14c-2.29,0-4.44,0.39-6.36,1.14
			c-1.95,0.77-3.65,1.88-5.03,3.3c-1.38,1.41-2.46,3.1-3.23,5.04c-0.76,1.93-1.15,4.06-1.15,6.36v9.66c0,2.3,0.38,4.43,1.15,6.36
			c0.76,1.94,1.85,3.64,3.23,5.04c1.38,1.41,3.08,2.52,5.03,3.29c1.93,0.76,4.06,1.14,6.36,1.14c2.3,0,4.44-0.39,6.36-1.14
			c1.95-0.77,3.64-1.88,5.03-3.3c1.38-1.41,2.47-3.1,3.23-5.04c0.76-1.92,1.14-4.06,1.14-6.36v-9.66c0-2.3-0.39-4.44-1.14-6.36
			C116.28,104.34,115.19,102.64,113.82,101.23 M109.25,112.27v10.36c0,2.28-0.57,3.97-1.74,5.16c-1.16,1.18-2.83,1.75-5.09,1.75
			c-2.27,0-3.93-0.57-5.09-1.75c-1.17-1.19-1.74-2.87-1.74-5.16v-10.36c0-2.28,0.57-3.96,1.74-5.15c1.16-1.18,2.82-1.75,5.09-1.75
			c2.27,0,3.93,0.57,5.09,1.75C108.67,108.3,109.25,110.03,109.25,112.27"/>
		<path class="st1" d="M166.98,101c-1.3-1.29-2.82-2.33-4.52-3.07c-3.32-1.44-7.47-1.5-11.5-0.18c-1.41,0.46-2.75,1.08-4.02,1.82
			c-0.91-0.69-1.95-1.27-3.08-1.74c-1.69-0.69-3.58-1.04-5.6-1.04c-2.13,0-4.18,0.19-6.09,0.58c-1.87,0.37-3.79,0.92-5.69,1.61
			c-1.09,0.39-1.95,1.07-2.58,2c-0.61,0.91-0.91,1.92-0.91,2.99v29.68c0,1.21,0.45,2.3,1.31,3.15c0.83,0.83,1.95,1.3,3.15,1.3
			s2.32-0.46,3.15-1.3c0.86-0.86,1.31-1.95,1.31-3.15V106.2c2.03-0.55,4.17-0.83,6.33-0.83c0.62,0,1.23,0.08,1.81,0.25
			c0.55,0.15,1.04,0.38,1.46,0.68c0.37,0.25,0.64,0.55,0.84,0.92c0.19,0.34,0.29,0.72,0.29,1.19v25.24c0,1.21,0.45,2.3,1.31,3.15
			c0.86,0.86,1.95,1.31,3.16,1.31c1.22,0,2.31-0.47,3.15-1.35c0.82-0.85,1.25-1.93,1.25-3.12v-26.81c1.62-0.98,3.43-1.48,5.39-1.48
			c0.73,0,1.42,0.14,2.07,0.42c0.65,0.27,1.22,0.66,1.68,1.15c0.49,0.5,0.88,1.1,1.17,1.77c0.27,0.65,0.41,1.35,0.41,2.07v22.89
			c0,1.2,0.46,2.3,1.31,3.15c0.86,0.86,1.94,1.31,3.15,1.31c1.21,0,2.29-0.45,3.15-1.31c0.86-0.86,1.31-1.95,1.31-3.15v-22.52
			c0-1.99-0.38-3.87-1.13-5.6C169.31,103.82,168.28,102.3,166.98,101"/>
		<path class="st1" d="M191.33,96.79c-1.66,0-3.28,0.22-4.84,0.65c-0.45,0.13-0.91,0.26-1.35,0.42v-10.9c0-1.21-0.45-2.3-1.32-3.16
			c-0.83-0.83-1.95-1.29-3.15-1.29c-1.2,0-2.32,0.46-3.16,1.29c-0.85,0.86-1.31,1.95-1.31,3.16v44.18c0,1.17,0.36,2.23,1.05,3.16
			c0.67,0.89,1.55,1.54,2.63,1.92c1.8,0.6,3.67,1.07,5.55,1.4c1.9,0.33,3.88,0.49,5.89,0.49c2.2,0,4.25-0.37,6.08-1.11
			c1.85-0.74,3.46-1.8,4.79-3.13c1.34-1.34,2.38-2.96,3.1-4.82c0.71-1.82,1.07-3.87,1.07-6.06v-11.09c0-4.54-1.38-8.23-4.09-10.97
			C199.56,98.19,195.88,96.79,191.33,96.79 M197.44,111.56v11.8c0,2.04-0.51,3.55-1.56,4.61c-1.05,1.06-2.53,1.57-4.56,1.57
			c-2.1,0-4.17-0.24-6.19-0.73v-21.69c0.7-0.54,1.49-0.94,2.34-1.2c1.23-0.37,2.53-0.56,3.85-0.56c2.02,0,3.51,0.52,4.55,1.57
			C196.93,108.01,197.44,109.52,197.44,111.56"/>
		<path class="st1" d="M216.04,82.5c-1.46,0-2.72,0.51-3.73,1.53c-1.02,1.01-1.53,2.26-1.53,3.73c0,1.44,0.51,2.7,1.5,3.73
			c1.02,1.05,2.28,1.59,3.76,1.59c1.47,0,2.73-0.53,3.75-1.59c0.99-1.04,1.5-2.29,1.5-3.73c0-1.46-0.51-2.72-1.53-3.73
			C218.75,83,217.5,82.5,216.04,82.5"/>
		<path class="st1" d="M216.04,96.81c-1.2,0-2.32,0.46-3.15,1.3c-0.86,0.86-1.31,1.95-1.31,3.15v32.39c0,1.2,0.45,2.3,1.31,3.16
			c0.86,0.86,1.95,1.3,3.16,1.3c1.21,0,2.29-0.45,3.15-1.3c0.86-0.86,1.31-1.95,1.31-3.16v-32.39c0-1.21-0.45-2.3-1.31-3.15
			C218.36,97.27,217.24,96.81,216.04,96.81"/>
		<path class="st1" d="M254.05,104.05c-0.8-1.63-1.91-3-3.28-4.09c-1.35-1.07-2.9-1.87-4.64-2.39c-3.29-0.99-7.19-1.02-11.18-0.07
			c-2.02,0.48-3.99,1.31-5.86,2.49c-1.38,0.89-2.14,2.27-2.14,3.85c0,1.3,0.51,2.45,1.43,3.23c0.85,0.73,1.87,1.1,3.04,1.1
			c0.76,0,1.52-0.23,2.17-0.64c1.24-0.72,2.47-1.27,3.64-1.63c1.14-0.35,2.33-0.52,3.55-0.52c1.82,0,3.25,0.39,4.26,1.18
			c0.88,0.68,1.29,1.7,1.29,3.22v2.47h-6.12c-2.36,0-4.49,0.25-6.33,0.75c-1.98,0.53-3.65,1.43-5,2.66
			c-2.52,2.34-3.79,5.52-3.79,9.43c0,4.02,1.28,7.2,3.82,9.45c2.66,2.39,6.46,3.59,11.3,3.59c1.96,0,3.92-0.16,5.82-0.49
			c1.88-0.33,3.76-0.81,5.6-1.41c1.04-0.37,1.91-1.02,2.59-1.91c0.7-0.93,1.05-1.99,1.05-3.15V109.7
			C255.26,107.58,254.85,105.68,254.05,104.05 M240.21,120.82h6.12v7.99c-2,0.49-4.06,0.74-6.12,0.74c-1.56,0-2.79-0.16-3.65-0.48
			c-0.76-0.28-1.35-0.63-1.69-1.02c-0.34-0.39-0.55-0.77-0.64-1.2c-0.13-0.61-0.2-1.21-0.2-1.78c0-0.57,0.07-1.15,0.2-1.73
			c0.09-0.39,0.29-0.74,0.62-1.1c0.34-0.37,0.92-0.7,1.68-0.96C237.39,120.97,238.63,120.82,240.21,120.82"/>
		<path class="st2" d="M292.87,35.74c-1.52,2.52-3.12,4.98-4.02,6.84c-0.81,1.67,2.53,8.6,5.76,13.92c0.53-0.5,1.07-1.01,1.62-1.52
			c1.18-1.11,2.42-2.11,3.68-3.04c-2.48-4.16-4.6-10.89-4.87-16.5C294.93,33.38,294.03,33.83,292.87,35.74"/>
		<path class="st2" d="M360.06,22.71c-1.43-5.89-5.78-10.37-12.72-12.85c-7.05-2.53-14.27-3.24-23.2-0.57
			c-4.66,1.38-14.95,6.23-19.39,16.04c-3.88,8.55-2.26,16.87,1.23,22.86c3.12-1.59,6.15-2.65,8.76-3.2
			c-0.55-0.52-1.06-1.06-1.49-1.63c-3.84-5.08-2.87-12.11-1.23-15.71c3.3-7.27,11.08-12.25,18.69-12.94
			c6.12-0.54,11.78,0.81,15.67,4.03c2.44,2.02,4.12,5.38,2.69,8.66c-3.03,6.95-13.72,9.15-17.11,7.77c-4.29-1.75-2.32-5.45,0.6-6.52
			c3.28-1.2,5.49-2.01,6.09-4.53c0.5-2.16-2.9-6.41-11.38-3.28c-3.62,1.32-7.24,4.48-8.28,8.66c-0.92,3.65,0.14,7.76,2.68,10.3
			c1.72,1.77,5.47,4.89,12.98,4.89c3.49,0,7.83-0.75,11.59-2.28C359.33,37.07,361.05,26.71,360.06,22.71"/>
		<path class="st2" d="M430.75,59.86c-2.71-6.69-9.53-16.11-20.79-22.68c-9.03-5.28-16.36-7.06-22.64-8.63
			c-3.74-0.93-4.57-3.45-5.55-7.01c-1.02-3.73,0.24-5.14,3.29-4.55c17.83,3.48,28.28,13.83,32.35,18.06
			c2.92,3.02,3.72,1.23,1.07-2.58c-4.15-5.94-9.7-12.34-20.16-19.12C382.2,2.87,364.2-0.44,349.97,1.49
			c-3.57,0.48-1.64,1.97-0.44,2.36c7.26,2.34,10.39,4.2,13.74,7.2c5.13,4.58,7.94,13.19,4.69,22.02c-2.5,6.76-10,14.06-21.47,17.11
			c2.63,1.59,4.98,3.75,7.02,6.74c0.42,0.62,0.83,1.24,1.23,1.86c5.35-3.97,11.62-6.61,18.27-7.97c-0.23-0.99,0.24-2.39,1.51-4.1
			c1.91-2.58,5.02-5.52,8.64-5.5c27.59,0.17,39.39,12.05,47.11,23.59C432.47,68.07,433.13,65.74,430.75,59.86"/>
		<path class="st2" d="M280.67,75.47c2.07-5.65,5.21-10.02,9.37-14.43c-1.72-2.64-3.12-5.4-4.15-8.26
			c-0.47-1.29-1.18-0.41-1.37,0.17C281.99,60.59,280.69,67.64,280.67,75.47"/>
		<path class="st3" d="M345.76,89.43c0.09,0.03,0.18,0.05,0.27,0.08c-0.76-5.2-1.39-10.38-0.86-15.16c-7.94-0.52-16.05-2.2-25.15-6
			c-7.64-3.19-15.44-8.54-20.12-16.41c-1.26,0.92-2.5,1.93-3.68,3.04c-0.55,0.52-1.09,1.02-1.62,1.52c0.47,0.76,0.95,1.51,1.43,2.23
			C307.08,74.89,331.24,85.51,345.76,89.43"/>
		<path class="st3" d="M340.16,65.84c2.46,0.34,4.9,0.57,7.31,0.73c0.91-1.73,2.12-3.36,3.72-4.85c1.13-1.06,2.33-2.03,3.56-2.95
			c-0.4-0.62-0.81-1.24-1.23-1.86c-2.04-3-4.39-5.16-7.02-6.74c-4.03,1.07-8.54,1.62-13.49,1.44c-5.66-0.21-13.75-2.43-18.26-6.63
			c-2.61,0.55-5.65,1.61-8.76,3.19c1.2,2.05,2.6,3.82,4.09,5.23C315.15,58.24,326.22,63.94,340.16,65.84"/>
		<path class="st4" d="M329.67,122.2c-0.58-10.12-8.53-20.62-17.9-25.42c-7.6-3.9-12.96-3.26-16.06-0.36
			c-1.68,1.57-2.86,4.88-1.96,9.37c1.17,5.88,5.18,11.78,10.88,14.02c4.71,1.85,10.15-0.51,6.31-5.55c-1.67-2.19-3.81-2.54-5.63-3.2
			c-2.69-0.96-4.01-2.4-4.5-4.62c-0.67-3.07,2.23-4.74,6.18-3.06c2.86,1.22,6.81,3.81,9.67,8.27c2.8,4.35,3.06,8.27,1.66,11.36
			c-0.93,2.08-3.15,4.22-7.38,4.26c-5.28,0.06-11.42-1.77-17.31-8.9c-0.96-1.17-1.85-0.53-1.5,0.1c2.92,5.18,8.52,11.69,11.87,14.1
			c3.71,2.67,9.66,3.76,13.96,3.09C323.38,134.78,330.14,130.66,329.67,122.2"/>
		<path class="st4" d="M373.53,149.56c-5.42-1.51-13.46-6.34-17.29-14.26c-0.21-0.43-0.4-0.86-0.59-1.3
			c-0.88-0.53-1.82-1.07-2.87-1.59c-7.17-3.59-6.21-15.87-5.31-24.51c0.35-3.38,0.1-6.98-0.34-10.67
			c-12.79-2.48-44-16.03-57.09-36.19c-4.16,4.41-7.3,8.78-9.37,14.43c-0.27,8.02,0.64,16.19,2.94,23.91
			c0.77,2.55,1.51,4.56,2.32,6.74c0.5,1.36,1.21,0.46,1.06-0.7c-0.92-7.06,2.04-13.66,7.11-16.48c0.84-0.47,3.18-2.24,7.59-2.24
			c4.44,0,9.61,1.61,15.27,4.95c12.24,7.23,21.76,20.02,20.32,34.24c-1.13,11.08-9.2,17.02-17.52,16.61
			c-1.75-0.08-1.85,0.78-1.21,1.14c6.67,3.8,14.5,7,23.1,8.8c1.59,0.34,4.74,1.12,7.09,1.01c2.31-0.11,2.24-0.93-0.41-2.08
			c-3.31-1.43-5.53-3.06-7.03-5.12c-1.36-1.86-0.56-3.98,0.81-6.04c1.43-2.13,1.83-2.05,4.16,0.34
			c11.27,11.55,19.77,11.89,24.22,11.38C373.59,151.6,376.34,150.35,373.53,149.56"/>
		<path class="st5" d="M390.82,116.07c-2.37,0.34-4.95,2.62-4.92,5.7c0.05,5.06,4.74,5.2,7.37,4.77c8.3-1.36,13.2-7.66,15.22-12.33
			c2.58-5.94,1.55-12.06-2.2-16.49c-2.52-2.97-7.38-6.24-15.24-6.07c-4.26,0.1-8.24,0.96-11.87,2.56c1.51,4.09,2.5,8.45,3.57,13.02
			c0.02,0.07,0.02,0.14,0.04,0.21c4.18-3.17,9.39-4.58,13.52-2.35C399.75,106.96,400.43,114.69,390.82,116.07"/>
		<path class="st5" d="M383.5,71.71c-6.85,0.68-13.12,1.49-19.14,2.07c1.64,2.2,3.45,4.3,5.57,6.25c2.29,2.09,4.09,4.31,5.57,6.63
			c4.18-1.41,9-2.44,16.01-2.75c9.62-0.43,17.11,2.65,22.03,8.96c3.05,3.91,4.58,8.68,3.85,14.99c-0.95,8.2-7.51,18.71-18.65,23.65
			c-8.22,3.65-14.64,2.32-18.58-0.38c-0.98,2.9-2.03,5.84-3,8.9c-0.24,0.76-0.43,1.48-0.59,2.19c6.24,1.94,12.5,0.65,18.43-1.21
			c12.37-3.85,33.37-20.37,29.65-45C422.16,79.37,407.83,69.28,383.5,71.71"/>
		<path class="st5" d="M432.68,85.12c-0.43-6.35-4.29-21.45-27.04-29.33c-10.47-3.62-22.29-3.31-29.66-3.36
			c-1.72-0.02-2.72-0.6-2.97-1.62c-6.65,1.36-12.92,4-18.27,7.97c1.74,2.69,3.33,5.37,4.93,7.98c9.03-0.29,17.22-1.35,23.95-1.98
			c11.48-1.07,17.26-0.13,24.24,1.72c17.45,4.66,21.14,17.05,22.17,21.11C431.17,91.98,432.97,89.4,432.68,85.12"/>
		<path class="st6" d="M376.04,126.05c-1.25-3.96-1.32-8.48,1.93-13.46c1.28-1.95,2.94-3.72,4.82-5.13
			c-0.02-0.07-0.03-0.14-0.04-0.21c-1.06-4.58-2.06-8.93-3.56-13.02c-5.12,2.25-9.56,5.99-13.07,11.2
			c-5.99,8.91-8.02,22.31,1.12,31.1c3.07,2.96,6.19,4.73,9.32,5.7c0.16-0.7,0.35-1.43,0.59-2.19c0.97-3.05,2.03-6,3.01-8.9
			C378,129.65,376.59,127.76,376.04,126.05"/>
		<path class="st6" d="M375.5,86.66c-1.48-2.32-3.28-4.53-5.57-6.63c-2.12-1.94-3.93-4.04-5.57-6.24
			c-6.55,0.63-12.81,0.97-19.18,0.56c-0.53,4.78,0.1,9.96,0.86,15.16c4.98,1.36,9.12,2.8,12.94,3.07c3.62,0.26,6.04-1.58,10.51-3.53
			C371.45,88.18,373.4,87.37,375.5,86.66"/>
		<path class="st6" d="M359.68,66.76c-1.6-2.61-3.18-5.29-4.93-7.98c-1.23,0.92-2.43,1.89-3.56,2.95c-1.6,1.49-2.81,3.12-3.72,4.84
			C351.67,66.85,355.75,66.88,359.68,66.76"/>
		<path class="st6" d="M347.6,97.32c-0.15-0.03-0.32-0.06-0.47-0.09c0.44,3.69,0.69,7.29,0.34,10.67
			c-0.89,8.65-1.85,20.93,5.32,24.51c1.05,0.53,2,1.06,2.87,1.59c-2.78-6.61-3.46-15.4-0.2-25.06
			C357.93,101.66,357.15,99.03,347.6,97.32"/>
	</g>
</g>
</svg>
