<?xml version="1.0" encoding="UTF-8" standalone="no"?>
<!-- Created with Inkscape (http://www.inkscape.org/) -->

<svg
   width="173.20593mm"
   height="19.51852mm"
   viewBox="0 0 173.20593 19.51852"
   version="1.1"
   id="svg1"
   xmlns:inkscape="http://www.inkscape.org/namespaces/inkscape"
   xmlns:sodipodi="http://sodipodi.sourceforge.net/DTD/sodipodi-0.dtd"
   xmlns:xlink="http://www.w3.org/1999/xlink"
   xmlns="http://www.w3.org/2000/svg"
   xmlns:svg="http://www.w3.org/2000/svg">
  <sodipodi:namedview
     id="namedview1"
     pagecolor="#ffffff"
     bordercolor="#999999"
     borderopacity="1"
     inkscape:showpageshadow="2"
     inkscape:pageopacity="0"
     inkscape:pagecheckerboard="0"
     inkscape:deskcolor="#d1d1d1"
     inkscape:document-units="mm" />
  <defs
     id="defs1">
    <linearGradient
       inkscape:collect="always"
       xlink:href="#linearGradient6"
       id="linearGradient7"
       x1="771.66516"
       y1="457.6929"
       x2="843.54559"
       y2="510.94937"
       gradientUnits="userSpaceOnUse"
       gradientTransform="translate(-20)" />
    <linearGradient
       id="linearGradient6"
       inkscape:collect="always">
      <stop
         style="stop-color:#285ee0;stop-opacity:1;"
         offset="0"
         id="stop6" />
      <stop
         style="stop-color:#e2100e;stop-opacity:1;"
         offset="1"
         id="stop7" />
    </linearGradient>
  </defs>
  <g
     inkscape:label="Layer 1"
     inkscape:groupmode="layer"
     id="layer1"
     transform="translate(-16.615611,-129.72404)">
    <path
       style="fill:#022260;fill-opacity:1;stroke:none;stroke-width:5.90596;stroke-linecap:round;stroke-linejoin:round"
       d="m 16.61561,145.78752 1.963138,-3.97505 c 0,0 2.488452,1.47919 3.885025,1.65181 0.92214,0.11398 2.517998,0.46553 2.753598,-0.43326 0.299285,-1.14172 -2.458629,-1.56066 -3.831931,-1.99299 -5.609178,-1.76577 -3.998732,-6.21005 -3.889699,-6.54702 0.639515,-1.9764 2.870616,-3.53681 4.929519,-3.81267 2.849599,-0.3818 7.416047,1.76269 7.416047,1.76269 l -2.033336,3.84251 c 0,0 -2.251851,-1.30582 -3.508128,-1.41756 -0.739749,-0.0658 -1.921579,-0.23899 -2.180627,0.45703 -0.2254,0.60562 0.190592,0.98919 0.786991,1.20562 3.356957,1.21825 6.354691,1.54101 7.121172,4.60746 0.729781,2.91961 -0.807758,6.89913 -6.508451,6.68022 -4.600118,-0.17666 -6.903318,-2.02879 -6.903318,-2.02879 z"
       id="path9"
       sodipodi:nodetypes="ccassssccassssc" />
    <path
       style="display:inline;fill:#022260;fill-opacity:1;stroke:none;stroke-width:5.90596;stroke-linecap:round;stroke-linejoin:round"
       d="m 30.955644,130.95288 h 4.582815 v 16.71161 h -4.582815 z"
       id="path11"
       sodipodi:nodetypes="ccccc" />
    <path
       style="fill:#022260;fill-opacity:1;stroke:none;stroke-width:5.90596;stroke-linecap:round;stroke-linejoin:round"
       d="m 41.176936,147.66449 h -4.553452 v -16.71161 h 3.546129 l 6.669776,8.46525 v -8.46525 h 4.575694 v 16.71161 h -3.623019 l -6.615128,-8.20655 z"
       id="path19" />
    <path
       id="path20"
       style="fill:#022260;fill-opacity:1;stroke:none;stroke-width:5.90596;stroke-linecap:round;stroke-linejoin:round"
       d="m 52.439376,130.95281 v 16.71175 h 6.999234 a 7.7954168,7.7954168 0 0 0 7.795384,-7.79539 v -1.17957 a 7.7367831,7.7367831 0 0 0 -7.736785,-7.73679 z m 4.569492,3.98098 h 1.701882 a 3.886671,3.886671 0 0 1 3.886617,3.88685 v 0.94957 a 3.886671,3.886671 0 0 1 -3.886617,3.88662 h -1.701882 z" />
    <g
       id="g8"
       transform="matrix(0.11811887,0,0,0.11811887,-10.194307,75.760395)">
      <ellipse
         style="display:inline;opacity:1;fill:#022260;fill-opacity:1;stroke:none;stroke-width:57.1407;stroke-linecap:round;stroke-linejoin:round"
         id="ellipse6"
         cx="750.18231"
         cy="539.48126"
         rx="82.815041"
         ry="82.622353" />
      <path
         style="opacity:1;fill:#e5e5e5;fill-opacity:1;stroke:none;stroke-width:50;stroke-linecap:round;stroke-linejoin:round"
         d="m 724.38464,603.55924 -15.15857,-30.21179 c 0,0 7.9923,-14.65986 36.35384,-33.34745 9.9314,-6.54386 20.90931,-12.65145 33.59607,-15.92438 7.22641,-1.86427 16.56676,1.1757 16.56676,1.1757 l -31.17079,-11.3253 -66.83892,44.74947 7.58051,33.0119 z"
         id="path8"
         sodipodi:nodetypes="ccssccccc" />
      <path
         style="opacity:1;fill:#e5e5e5;fill-opacity:1;stroke:none;stroke-width:50;stroke-linecap:round;stroke-linejoin:round"
         d="m 743.87608,502.41355 v 2.06561 l -2.3487,-2.00077 1.5566,-3.66006 25.38868,-2.13281 c 0,0 -3.89462,0.9239 -5.6698,1.80959 -4.36711,2.17889 -11.4433,4.36095 -13.05438,4.47524 -2.73586,0.19409 -5.8724,-0.5568 -5.8724,-0.5568 z"
         id="path7"
         sodipodi:nodetypes="cccccssc" />
      <path
         id="path1"
         style="display:inline;opacity:1;fill:#ffffff;fill-opacity:1;stroke:none;stroke-width:50;stroke-linecap:round;stroke-linejoin:round"
         d="m 699.07812,474.8125 c 0,0 0.0191,-0.2408 -0.23874,-0.15877 -19.51519,14.92881 -31.40287,39.6405 -31.47219,64.82671 -3.9e-4,45.63111 37.07692,82.62272 82.81445,82.62305 14.77758,-0.0584 29.27032,-4.06077 41.97461,-11.5918 -5.29959,1.54724 -27.23766,7.00445 -54.4668,0.43359 -10.10034,-2.43739 -34.28906,-22.08679 -34.28906,-39.1875 0,-8.66686 29.81338,-36.33393 71.88672,-48.5625 11.15678,-3.24269 23.33008,3.375 23.33008,3.375 0,0 2.84683,-8.6162 0.92187,-12.21875 -5.20144,-9.73447 -12.91378,-10.7254 -17.34961,-11.0664 -11.15649,-0.85763 -18.81031,2.79601 -27.83789,3.45898 -3.49843,0.25693 -7.88269,0.45011 -10.3164,-2.07617 -1.37069,-1.42281 -0.95118,-5.84961 -0.95118,-5.84961 0,0 5.52623,1.49232 7.81055,1.25781 1.65847,-0.17026 7.09053,-1.05332 11.39453,-2.45703 1.89598,-0.61836 6.1836,-0.93359 6.1836,-0.93359 0,0 -1.40725,-4.58989 -13.30078,-8.75977 -9.25978,-3.24649 -13.93137,-2.10024 -23.00977,-1.93164 -22.94146,0.42606 -35.5625,16.88867 -35.5625,16.88867 0,0 3.6192,-8.46791 4.94727,-14.34179 1.61869,-7.15934 -2.46876,-13.72852 -2.46876,-13.72852 z"
         sodipodi:nodetypes="cccccssscsssscsscsscscc" />
      <path
         style="opacity:1;fill:#e5e5e5;fill-opacity:1;stroke:none;stroke-width:50;stroke-linecap:round;stroke-linejoin:round"
         d="m 696.59942,502.88184 6.05188,-5.87896 c 0,0 1.50575,-7.55354 1.26801,-11.35446 -0.24195,-3.86818 -4.8415,-10.83574 -4.8415,-10.83574 0,0 3.73322,9.25397 2.46904,13.72835 -1.33272,4.71696 -4.94743,14.34081 -4.94743,14.34081 z"
         id="path2"
         sodipodi:nodetypes="ccscsc" />
      <path
         id="ellipse4"
         style="display:inline;opacity:1;fill:url(#linearGradient7);fill-opacity:1;stroke:none;stroke-width:57.1407;stroke-linecap:round;stroke-linejoin:round"
         d="m 750.18164,456.85938 a 82.815041,82.622353 0 0 0 -24.56836,3.80664 83.218506,83.024879 0 0 1 8.57813,-0.61133 83.218506,83.024879 0 0 1 83.21679,83.02343 83.218506,83.024879 0 0 1 -55.88281,78.21485 82.815041,82.622353 0 0 0 71.47266,-81.8125 82.815041,82.622353 0 0 0 -82.81641,-82.62109 z" />
    </g>
    <path
       style="fill:#e2100e;fill-opacity:1;stroke:none;stroke-width:5.90596;stroke-linecap:round;stroke-linejoin:round"
       d="m 94.388525,147.66449 h -4.553454 v -16.71161 h 3.546127 l 6.669782,8.46525 v -8.46525 h 4.57569 v 16.71161 h -3.62302 l -6.615125,-8.20655 z"
       id="path22" />
    <path
       style="fill:#e2100e;fill-opacity:1;stroke:none;stroke-width:5.90596;stroke-linecap:round;stroke-linejoin:round"
       d="m 105.66389,147.66449 h 11.85203 v -4.03652 h -7.27068 v -2.60558 l 6.02423,0.0182 v -3.70894 h -6.02423 v -2.33547 h 7.06756 v -4.04334 h -11.64891 z"
       id="path30" />
    <path
       style="fill:#e2100e;fill-opacity:1;stroke:none;stroke-width:5.90596;stroke-linecap:round;stroke-linejoin:round"
       d="m 118.26734,130.95288 6.23111,16.71161 3.91115,0.005 2.40543,-6.03683 2.4035,6.03199 h 3.96288 l 6.23111,-16.71161 h -5.00958 l -3.54009,11.35961 -1.17177,-3.35482 2.82162,-8.00479 h -4.18922 l -1.53295,5.14766 -1.50122,-5.14766 H 125.124 l 2.73321,7.97185 -1.12958,3.39924 -3.57802,-11.37109 z"
       id="path42" />
    <path
       style="fill:#e2100e;fill-opacity:1;stroke:none;stroke-width:5.90596;stroke-linecap:round;stroke-linejoin:round"
       d="m 142.39435,145.78752 1.96313,-3.97505 c 0,0 2.48846,1.47919 3.88503,1.65181 0.92214,0.11398 2.518,0.46553 2.7536,-0.43326 0.29929,-1.14172 -2.45864,-1.56066 -3.83193,-1.99299 -5.60918,-1.76577 -3.99874,-6.21005 -3.88971,-6.54702 0.63952,-1.9764 2.87062,-3.53681 4.92953,-3.81267 2.8496,-0.3818 7.41604,1.76269 7.41604,1.76269 l -2.03332,3.84251 c 0,0 -2.25186,-1.30582 -3.50814,-1.41756 -0.73975,-0.0658 -1.92158,-0.23899 -2.18062,0.45703 -0.2254,0.60562 0.19058,0.98919 0.78699,1.20562 3.35696,1.21825 6.35468,1.54101 7.12117,4.60746 0.72977,2.91961 -0.80777,6.89913 -6.50846,6.68022 -4.60011,-0.17666 -6.90331,-2.02879 -6.90331,-2.02879 z"
       id="path43"
       sodipodi:nodetypes="ccassssccassssc" />
    <path
       style="fill:#022260;fill-opacity:1;stroke:none;stroke-width:5.90596;stroke-linecap:round;stroke-linejoin:round"
       d="m 167.84989,147.66449 h -4.50501 v -12.66826 h -4.77686 v -4.04335 h 14.04507 v 4.04335 h -4.7632 z"
       id="path46" />
    <path
       style="fill:#022260;fill-opacity:1;stroke:none;stroke-width:5.90596;stroke-linecap:round;stroke-linejoin:round"
       d="m 179.54644,147.66449 h 4.59036 l 5.68476,-16.71161 h -4.77731 l -3.18624,11.48065 -3.25458,-11.48065 h -4.79253 z"
       id="path50" />
  </g>
</svg>
