<?xml version="1.0" encoding="UTF-8"?> <!-- Generator: Adobe Illustrator 24.3.0, SVG Export Plug-In . SVG Version: 6.00 Build 0) --> <svg xmlns="http://www.w3.org/2000/svg" xmlns:xlink="http://www.w3.org/1999/xlink" version="1.1" id="Layer_1" x="0px" y="0px" viewBox="0 0 258 146" style="enable-background:new 0 0 258 146;" xml:space="preserve"> <style type="text/css"> .st0{clip-path:url(#SVGID_2_);fill:#CCF41A;} </style> <g> <defs> <rect id="SVGID_1_" width="258" height="145.1"></rect> </defs> <clipPath id="SVGID_2_"> <use xlink:href="#SVGID_1_" style="overflow:visible;"></use> </clipPath> <path class="st0" d="M0,145.1h258V0H0V145.1z M88,97.5c-1.2,2.9-2.8,5.3-4.7,7.2c-1.9,1.9-4.2,3.5-6.7,4.8 c-2.5,1.3-5.1,2.2-7.7,2.8c-2.6,0.5-5.2,0.8-7.8,0.8c-5.2,0-10.3-1-15.3-3.1c-5-2.1-9.6-5.2-13.7-9.4l10.9-13.5 c2.9,3.1,5.9,5.4,9.2,7c3.3,1.6,6.4,2.4,9.3,2.4c2.1,0,3.8-0.3,5.1-0.9c1.4-0.6,2.3-1.4,2.9-2.3c0.6-0.9,0.8-2,0.8-3.2 c0-2.1-0.8-3.8-2.4-5.1c-1.6-1.2-4.7-2.6-9.3-4.1c-1.9-0.7-3.6-1.3-5.1-1.9c-1.5-0.6-3.1-1.3-4.8-2.2c-1.7-0.9-3.2-1.8-4.5-2.7 c-1.3-0.9-2.5-2-3.8-3.3c-1.2-1.3-2.3-2.6-3-4.1c-0.8-1.4-1.4-3.1-1.9-5c-0.5-1.9-0.7-3.9-0.7-6.1c0-4.3,1.1-8.2,3.4-11.8 c2.3-3.6,5.4-6.3,9.4-8.4c4-2,8.3-3.1,13-3.2c9.8-0.1,19,3.3,27.4,10.3L77.4,56.2c-6.3-5.1-11.7-7.6-16.2-7.6 c-2.2,0-3.9,0.5-5.2,1.6c-1.3,1.1-1.9,2.6-2,4.5c0,1.7,0.7,3.2,2.4,4.4c1.6,1.2,4.6,2.6,9.1,4.4c6.6,2.6,11.1,4.5,13.4,5.8 c4.8,2.7,8,6.1,9.6,10.2c0.9,2.4,1.4,5.2,1.4,8.3C89.7,91.3,89.2,94.5,88,97.5 M138.9,111.9h-18.7V33.2h18.7V111.9z M224.2,97.5 c-1.2,2.9-2.8,5.3-4.7,7.2c-1.9,1.9-4.2,3.5-6.7,4.8c-2.5,1.3-5.1,2.2-7.7,2.8c-2.6,0.5-5.2,0.8-7.8,0.8c-5.2,0-10.3-1-15.3-3.1 c-5-2.1-9.6-5.2-13.7-9.4l10.9-13.5c2.9,3.1,5.9,5.4,9.2,7c3.3,1.6,6.4,2.4,9.3,2.4c2.1,0,3.8-0.3,5.1-0.9c1.4-0.6,2.3-1.4,2.9-2.3 c0.6-0.9,0.8-2,0.8-3.2c0-2.1-0.8-3.8-2.4-5.1c-1.6-1.2-4.7-2.6-9.3-4.1c-1.9-0.7-3.6-1.3-5.1-1.9c-1.5-0.6-3.1-1.3-4.8-2.2 c-1.7-0.9-3.2-1.8-4.5-2.7c-1.3-0.9-2.5-2-3.8-3.3c-1.2-1.3-2.3-2.6-3-4.1c-0.8-1.4-1.4-3.1-1.9-5c-0.5-1.9-0.7-3.9-0.7-6.1 c0-4.3,1.1-8.2,3.4-11.8c2.3-3.6,5.4-6.3,9.4-8.4c4-2,8.3-3.1,13-3.2c9.8-0.1,19,3.3,27.4,10.3l-10.6,13.7 c-6.3-5.1-11.7-7.6-16.2-7.6c-2.2,0-3.9,0.5-5.2,1.6c-1.3,1.1-1.9,2.6-2,4.5c0,1.7,0.7,3.2,2.4,4.4c1.6,1.2,4.6,2.6,9.1,4.4 c6.6,2.6,11.1,4.5,13.4,5.8c4.8,2.7,8,6.1,9.6,10.2c0.9,2.4,1.4,5.2,1.4,8.3C226,91.3,225.4,94.5,224.2,97.5"></path> </g> </svg> 