<svg xmlns="http://www.w3.org/2000/svg" width="199.66" height="80.799"><path fill="#fff" d="M0 23.749h199.66v57.05H0z"/><path data-name="シェイプ" d="M0 23.749v57.05h199.659V50.191a108.013 108.013 0 00-18 2.2v19.9h-13.651l.725-16.009a56.818 56.818 0 00-22.646 16.009h-14.728a63.678 63.678 0 0122.394-15.362 89.571 89.571 0 0121.888-5.873l.23-.033q1.116-.156 2.245-.294 1.8-.213 3.527-.362a.017.017 0 00.01 0 118.756 118.756 0 0118-.175V23.749zm51.994 48.665h-6.225a3.966 3.966 0 01-3.16-1.864l-4.863-8.921a1.5 1.5 0 00-2.517-.352l-9.572 9.627a5.915 5.915 0 01-3.645 1.51h-9.67c-1.179 0-1.468-.679-.642-1.509L37.689 44.79c.826-.829.537-1.509-.642-1.509H23.6a1.682 1.682 0 01-1.73-2.075l.39-1.953a2.713 2.713 0 012.558-2.076H57.1c1.179 0 1.467.678.64 1.507L45.016 51.441a3.025 3.025 0 00-.487 3.371l8.593 15.742c.558 1.022.051 1.86-1.128 1.86zm39.809-.29h-7.237a1.609 1.609 0 01-1.654-2.059l5.87-24.684a1.608 1.608 0 00-1.654-2.056h-6.163a3.675 3.675 0 00-3.047 1.916L66.1 70.357a3.675 3.675 0 01-3.047 1.92H57.59a1.251 1.251 0 01-1.241-1.92l11.816-25.116a1.249 1.249 0 00-1.242-1.916h-3.635a1.683 1.683 0 01-1.73-2.074l.39-1.957a2.713 2.713 0 012.558-2.075h5.311a3.678 3.678 0 003.049-1.918l.591-1.252a3.68 3.68 0 013.049-1.918h5.464a1.249 1.249 0 011.24 1.918l-.591 1.252a1.249 1.249 0 001.239 1.918H99.87a1.623 1.623 0 011.667 2.063l-7.115 30.781a2.816 2.816 0 01-2.622 2.061zm37.709-27.529h2.361a1.688 1.688 0 011.733 2.078l-4.644 23.444a2.708 2.708 0 01-2.555 2.077h-8.661a1.667 1.667 0 01-1.713-2.074l3.756-18.06c.237-1.136-.338-1.493-1.277-.791l-5.688 4.262a7.531 7.531 0 01-3.852 1.277h-7.212c-1.179 0-1.377-.576-.439-1.28l29.23-21.969a7.51 7.51 0 013.85-1.283h7.212c1.179 0 1.377.579.439 1.283l-12.979 9.757c-.938.704-.741 1.279.438 1.279zm48.472 4.712q-4.627.55-9 1.469l.419-9.255-8.966 11.461q-3.741 1.163-7.227 2.624a68.813 68.813 0 00-14.46 8.153l21.665-25.455c3.737-4.914-7.355-6.154-7.355-6.154h28.594-.015.015v16.781q-1.8.156-3.671.375z" fill="#e60012"/><text transform="translate(5.498 16)" fill="#666" font-size="18" font-family="Helvetica"><tspan x="0" y="0" letter-spacing=".05em">CS</tspan><tspan y="0" font-family="HiraginoSans-W3, Hiragino Sans">スポーツ</tspan><tspan y="0" font-family="HiraginoSans-W3, Hiragino Sans" letter-spacing="-.05em">チャ</tspan><tspan y="0" font-family="HiraginoSans-W3, Hiragino Sans">ンネル</tspan></text></svg>