<?xml version="1.0" encoding="utf-8"?>
<!-- Generator: Adobe Illustrator 23.0.1, SVG Export Plug-In . SVG Version: 6.00 Build 0)  -->
<svg version="1.1" id="Livello_1" xmlns="http://www.w3.org/2000/svg" xmlns:xlink="http://www.w3.org/1999/xlink" x="0px" y="0px"
	 viewBox="0 0 3156.495 500.004" enable-background="new 0 0 3156.495 500.004" xml:space="preserve">
<g>
	<g>
		<path fill="#091BB6" d="M3123.209,0.009H2077.608c-18.405,0-33.286,14.927-33.286,33.332v433.325
			c0,18.405,14.881,33.332,33.286,33.332h1045.601c18.404,0,33.286-14.927,33.286-33.332V33.342
			C3156.495,14.937,3141.614,0.009,3123.209,0.009 M3123.209,10.022c12.841,0,23.319,10.431,23.319,23.32v433.325
			c0,12.842-10.477,23.32-23.319,23.32H2077.608c-12.842,0-23.319-10.478-23.319-23.32V33.342c0-12.889,10.477-23.32,23.319-23.32
			H3123.209"/>
		<path fill="#FFFFFF" d="M3123.209,10.022c12.841,0,23.319,10.431,23.319,23.32v433.325c0,12.842-10.477,23.32-23.319,23.32
			H2077.608c-12.842,0-23.319-10.478-23.319-23.32V33.342c0-12.889,10.477-23.32,23.319-23.32H3123.209"/>
		<path fill="#FF1E00" d="M2409.16,259.823c-25.683,24.247-81.593,78.534-111.727,107.879h-132.682
			c0,0,106.303-106.024,165.412-164.206c60.917-57.997,91.282-71.208,202.963-71.208h406.576l-88.037,88.037h-310.286
			C2462.892,220.325,2445.274,225.796,2409.16,259.823 M2837.201,234.835h-284.974c-86.878,0-102.038,4.59-139.265,41.77
			c-34.77,34.817-91.283,91.097-91.283,91.097h123.41l29.485-29.438c19.332-19.378,29.345-21.372,70.003-21.372h210.52
			L2837.201,234.835z M2870.905,367.702l235.416-235.414h-141.676l-235.416,235.414H2870.905z"/>
	</g>
	<g>
		
			<linearGradient id="SVGID_1_" gradientUnits="userSpaceOnUse" x1="1503.9321" y1="912.7112" x2="1503.9321" y2="369.7529" gradientTransform="matrix(1 0 0 -1 -47.5 937.8405)">
			<stop  offset="0.2" style="stop-color:#FE0000"/>
			<stop  offset="0.53" style="stop-color:#FA0000"/>
			<stop  offset="0.6" style="stop-color:#F90000"/>
			<stop  offset="0.67" style="stop-color:#F30000"/>
			<stop  offset="0.76" style="stop-color:#E50000"/>
			<stop  offset="0.85" style="stop-color:#CC0000"/>
			<stop  offset="0.95" style="stop-color:#AC0000"/>
		</linearGradient>
		<path fill="url(#SVGID_1_)" d="M831.641,0.004h1249.583c18.409,0,33.333,14.924,33.333,33.333v433.333
			c0,18.41-14.924,33.333-33.333,33.333H831.641c-18.409,0-33.333-14.924-33.333-33.333V33.338
			C798.307,14.928,813.231,0.004,831.641,0.004z"/>
		<g>
			<path fill="#FFFFFF" d="M894.224,359.254c-2.958-20.625,3.417-31.417,15.208-31.417c11.792,0,38.792,12.292,77.042,12.292
				c40.25,0,55.458-14.25,55.458-32.875c0-13.25-5.875-25.042-42.208-34.833l-41.708-11.292
				c-46.125-12.25-64.292-35.333-64.292-63.792c0-35.333,27.958-66.75,91.292-66.75c28.458,0,63.792,6.375,85.417,14.708
				c3.917,20.125-2.458,30.917-14.708,30.917c-10.792,0-35.333-10.292-70.167-10.292c-37.292,0-51.042,12.75-51.042,29.458
				c0,11.792,5.417,22.583,38.792,31.917l42.708,11.792c47.625,13.25,66.75,35.333,66.75,66.75
				c0,36.792-28.458,69.708-97.167,69.708c-30.417,0-68.208-7.375-91.292-16.208L894.224,359.254z"/>
			<path fill="#FFFFFF" d="M1365.432,252.754c0,77.042-54,122.708-113.375,122.708c-35.333,0-64.292-16.667-81.458-40.25v99.125
				c0,9.333-5.375,15.208-21.083,15.208c-7.833,0-15.208-1-19.125-1.958V134.963c3.917-1,11.292-1.958,19.125-1.958
				c15.708,0,21.083,5.875,21.083,15.208v22.583c17.167-23.542,46.125-40.25,81.458-40.25
				C1311.432,130.546,1365.432,176.213,1365.432,252.754z M1324.724,252.754c0-51.542-34.375-86.875-80.5-86.875
				c-31.417,0-60.375,18.167-73.625,44.667v84.917c13.25,26.5,42.208,44.667,73.625,44.667
				C1290.349,340.129,1324.724,304.796,1324.724,252.754z"/>
			<path fill="#FFFFFF" d="M1403.141,252.754c0-70.208,51.542-122.208,120.75-122.208c69.208,0,121.25,52.042,121.25,122.208
				s-51.542,122.708-121.25,122.708C1454.182,375.463,1403.141,322.463,1403.141,252.754z M1604.391,252.754
				c0-54-36.333-86.875-80.5-86.875c-44.167,0-80,32.875-80,86.875s36.333,87.375,80,87.375
				C1567.557,340.129,1604.391,306.254,1604.391,252.754z"/>
			<path fill="#FFFFFF" d="M1839.724,152.629c0,16.208-6.875,19.625-23.542,19.625c-33.875,0-62.333,15.708-80,52.5v133
				c0,9.833-5.417,15.208-21.583,15.208c-6.875,0-14.708-1-18.667-1.958V134.921c3.917-1,11.792-1.958,18.667-1.958
				c16.208,0,21.583,5.875,21.583,15.208v32.875c23.083-34.833,57.917-52.5,101.583-46.625c0.5,3.417,1.958,10.792,1.958,18.167
				V152.629z"/>
			<path fill="#FFFFFF" d="M2016.224,359.254c-20.625,9.833-44.167,16.208-67.75,16.208c-46.625,0-74.625-27.5-74.625-73.125V99.629
				c0-10.292,5.875-17.167,21.583-17.167c6.875,0,14.708,1.458,18.667,2.458v51.042h91.792c0.5,3.417,1.458,10.292,1.458,16.208
				c0,14.25-5.875,19.125-14.708,19.125h-78.542v128.125c0,27.5,12.75,40.75,38.792,40.75c23.542,0,36.792-10.292,48.083-10.292
				s17.667,9.833,15.208,29.458L2016.224,359.254z"/>
		</g>
		
			<linearGradient id="SVGID_2_" gradientUnits="userSpaceOnUse" x1="409.0988" y1="902.7946" x2="409.0988" y2="467.2113" gradientTransform="matrix(1 0 0 -1 -47.5 937.8405)">
			<stop  offset="0.05" style="stop-color:#0F33D5"/>
			<stop  offset="0.29" style="stop-color:#0C28C7"/>
			<stop  offset="0.74" style="stop-color:#040EA2"/>
			<stop  offset="0.95" style="stop-color:#00008F"/>
		</linearGradient>
		<path fill="url(#SVGID_2_)" d="M499.266,464.046c5.958,3.042,18.042,6.708,33.25,7.083c26.125,0.583,40.333-9.417,50.917-32.792
			l140.042-311.833c-5.75-3.083-18.625-6.542-29-6.708c-18.042-0.375-42.25,3.25-57.625,40.083l-45.333,106.833l-88.958-144.625
			c-5.75-1.75-19.792-4.208-29.958-4.208c-31.5,0-49,11.5-67.25,31.25l-86.458,94.375l69.542,109.333
			c12.875,19.958,29.792,30.125,57.25,30.125c18.042,0,33.042-4.208,39.958-7.458l-83.75-126l59.375-62.917l97.417,152.667
			l-59.375,124.875L499.266,464.046z M315.516,346.088c0,23-9.042,36.25-54,36.25c-5.958,0-11.125-0.375-16.125-1.167V76.254
			c0-23.208,7.875-47.375,53.208-47.375c5.75,0,11.542,0.583,16.917,1.75v315.5V346.088z M222.765,300.046
			c0,42.958-28.042,74.208-85.125,80.375c-41.292,4.417-101.042-0.75-129.5-4.042c-0.958-4.583-1.708-10.333-1.708-14.958
			c0-37.417,20.167-46.042,39.208-46.042s50.917,3.458,73.958,3.458c25.542,0,33.25-8.625,33.25-16.875
			c0-10.75-10.167-15.167-29.958-19l-54.167-10.375c-45-8.583-69-39.667-69-72.667c0-40.083,28.417-73.667,84.333-79.792
			c42.25-4.625,93.75,0.583,122,4.042c0.958,4.792,1.542,9.417,1.542,14.375c0,37.375-19.792,45.458-38.792,45.458
			c-14.583,0-37.292-2.667-63.208-2.667s-37.292,7.292-37.292,16.125c0,9.417,10.375,13.25,26.917,16.125l51.667,9.583
			c53.042,9.792,75.875,39.875,75.875,76.917V300.046z"/>
	</g>
</g>
</svg>
