<?xml version="1.0" encoding="utf-8"?>
<!-- Generator: Adobe Illustrator 23.0.1, SVG Export Plug-In . SVG Version: 6.00 Build 0)  -->
<svg version="1.1" id="Livello_1" xmlns="http://www.w3.org/2000/svg" xmlns:xlink="http://www.w3.org/1999/xlink" x="0px" y="0px"
	 viewBox="0 0 3500.909 500" enable-background="new 0 0 3500.909 500" xml:space="preserve">
<g>
	<g>
		<path fill="#091BB6" d="M3467.612,0H2077.924c-18.434,0-33.357,14.923-33.357,33.298v433.404
			c0,18.375,14.923,33.298,33.357,33.298h1389.688c18.375,0,33.296-14.923,33.296-33.298V33.298
			C3500.909,14.923,3485.987,0,3467.612,0 M3467.612,10.006c12.873,0,23.29,10.476,23.29,23.292v433.404
			c0,12.816-10.417,23.292-23.29,23.292H2077.924c-12.875,0-23.351-10.476-23.351-23.292V33.298
			c0-12.816,10.476-23.292,23.351-23.292H3467.612"/>
		<path fill="#FFFFFF" d="M3467.612,10.006c12.873,0,23.29,10.476,23.29,23.292v433.404c0,12.816-10.417,23.292-23.29,23.292
			H2077.924c-12.875,0-23.351-10.476-23.351-23.292V33.298c0-12.816,10.476-23.292,23.351-23.292H3467.612z"/>
		<g>
			<path fill="#091BB6" d="M2224.05,350.316v-253.1c0-7.724,4.447-12.582,17.907-12.582c5.676,0,12.23,0.82,15.448,1.638v253.043
				c0,8.135-4.447,12.641-17.907,12.641C2233.823,351.956,2227.328,351.136,2224.05,350.316"/>
			<path fill="#091BB6" d="M2484.753,264.466h-151.334c4.447,37.863,30.489,58.988,69.17,58.988c16.679,0,29.728-3.218,41.901-7.315
				c8.544-2.866,12.232-4.095,15.45-4.095c9.364,0,15.507,7.783,13.869,25.631c-17.498,7.783-44.358,16.327-72.449,16.327
				c-61.037,0-102.118-41.14-102.118-102.177c0-58.578,43.539-100.889,96.851-100.889c60.217,0,89.888,46.818,89.888,93.985
				C2485.982,250.655,2485.571,257.562,2484.753,264.466 M2333.419,238.424h120.025c-1.229-33.355-22.765-59.397-57.351-59.397
				C2365.957,179.026,2338.686,199.743,2333.419,238.424"/>
			<path fill="#091BB6" d="M2707.042,154.593v177.435c0,51.264-37.804,83.802-96.852,83.802c-27.621,0-56.94-8.135-78.125-18.318
				c-1.99-19.136,4.097-26.86,12.641-26.86c4.858,0,9.773,2.457,17.907,5.735c11.001,4.447,27.68,10.533,47.167,10.533
				c38.681,0,63.905-18.316,63.905-55.711V317.75c-11.412,15.507-34.997,30.137-67.123,30.137
				c-47.226,0-90.767-37.863-90.767-98.489c0-61.039,43.949-98.432,91.176-98.432c31.309,0,54.892,14.63,67.123,30.898v-15.859
				c0-7.724,4.447-13.05,17.088-13.05C2697.269,152.956,2703.823,153.775,2707.042,154.593 M2673.686,216.859
				c-10.594-22.354-33.357-37.452-59.808-37.452c-36.225,0-64.314,26.042-64.314,69.991c0,43.948,28.089,69.99,64.314,69.99
				c26.451,0,49.214-15.45,59.808-37.452V216.859z"/>
			<path fill="#091BB6" d="M2934.828,264.466h-151.334c4.447,37.863,30.489,58.988,69.17,58.988c16.679,0,29.728-3.218,41.901-7.315
				c8.544-2.866,12.231-4.095,15.45-4.095c9.364,0,15.507,7.783,13.869,25.631c-17.498,7.783-44.358,16.327-72.449,16.327
				c-61.037,0-102.118-41.14-102.118-102.177c0-58.578,43.539-100.889,96.852-100.889c60.217,0,89.888,46.818,89.888,93.985
				C2936.057,250.655,2935.646,257.562,2934.828,264.466 M2783.494,238.424h120.025c-1.229-33.355-22.765-59.397-57.351-59.397
				C2816.032,179.026,2788.761,199.743,2783.494,238.424"/>
			<path fill="#091BB6" d="M3149.119,233.948v105.397c0,7.724-4.449,12.582-17.909,12.582c-5.676,0-12.23-0.82-15.448-1.581V238.397
				c0-39.033-19.136-57.76-48.046-57.76c-22.354,0-46.757,15.45-56.531,33.766v124.942c0,7.724-4.506,12.582-17.907,12.582
				c-5.676,0-12.23-0.82-15.448-1.581V154.595c3.218-0.82,9.772-1.638,15.448-1.638c13.402,0,17.907,4.915,17.907,12.639v16.679
				c14.221-17.497,35.814-31.309,64.666-31.309C3115.762,150.966,3149.119,176.189,3149.119,233.948"/>
			<path fill="#091BB6" d="M3383.458,86.231v263.284c-2.809,1.229-9.364,2.459-15.039,2.459c-13.46,0-17.907-5.326-17.907-15.509
				v-16.268c-14.63,19.954-38.274,33.766-67.534,33.766c-49.625,0-93.983-37.804-93.983-101.709c0-63.494,44.358-101.3,93.983-101.3
				c29.26,0,52.904,13.812,67.534,33.768v-87.49c0-7.724,4.856-12.582,18.316-12.582
				C3374.504,84.65,3380.649,85.411,3383.458,86.231 M3350.512,287.658v-70.399c-11.003-21.945-34.997-37.045-61.448-37.045
				c-38.213,0-66.303,29.319-66.303,72.04c0,43.13,28.091,72.449,66.303,72.449C3315.516,324.703,3339.509,309.603,3350.512,287.658
				"/>
		</g>
	</g>
	<g>
		
			<linearGradient id="SVGID_1_" gradientUnits="userSpaceOnUse" x1="1504.2084" y1="-1331.3923" x2="1504.2084" y2="-1874.3507" gradientTransform="matrix(1 0 0 -1 -47.5 -1306.2673)">
			<stop  offset="0.2" style="stop-color:#FE0000"/>
			<stop  offset="0.53" style="stop-color:#FA0000"/>
			<stop  offset="0.6" style="stop-color:#F90000"/>
			<stop  offset="0.67" style="stop-color:#F30000"/>
			<stop  offset="0.76" style="stop-color:#E50000"/>
			<stop  offset="0.85" style="stop-color:#CC0000"/>
			<stop  offset="0.95" style="stop-color:#AC0000"/>
		</linearGradient>
		<path fill="url(#SVGID_1_)" d="M831.917,0H2081.5c18.409,0,33.333,14.924,33.333,33.333v433.333
			c0,18.41-14.924,33.333-33.333,33.333H831.917c-18.409,0-33.333-14.924-33.333-33.333V33.333C798.583,14.924,813.507,0,831.917,0z
			"/>
		<g>
			<path fill="#FFFFFF" d="M894.5,359.25c-2.958-20.625,3.417-31.417,15.208-31.417c11.792,0,38.792,12.292,77.042,12.292
				c40.25,0,55.458-14.25,55.458-32.875c0-13.25-5.875-25.042-42.208-34.833l-41.708-11.292
				C912.167,248.875,894,225.792,894,197.333c0-35.333,27.958-66.75,91.292-66.75c28.458,0,63.792,6.375,85.417,14.708
				c3.917,20.125-2.458,30.917-14.708,30.917c-10.792,0-35.333-10.292-70.167-10.292c-37.292,0-51.042,12.75-51.042,29.458
				c0,11.792,5.417,22.583,38.792,31.917l42.708,11.792c47.625,13.25,66.75,35.333,66.75,66.75
				c0,36.792-28.458,69.708-97.167,69.708c-30.417,0-68.208-7.375-91.292-16.208L894.5,359.25z"/>
			<path fill="#FFFFFF" d="M1365.708,252.75c0,77.042-54,122.708-113.375,122.708c-35.333,0-64.292-16.667-81.458-40.25v99.125
				c0,9.333-5.375,15.208-21.083,15.208c-7.833,0-15.208-1-19.125-1.958V134.958c3.917-1,11.292-1.958,19.125-1.958
				c15.708,0,21.083,5.875,21.083,15.208v22.583c17.167-23.542,46.125-40.25,81.458-40.25
				C1311.708,130.542,1365.708,176.208,1365.708,252.75z M1325,252.75c0-51.542-34.375-86.875-80.5-86.875
				c-31.417,0-60.375,18.167-73.625,44.667v84.917c13.25,26.5,42.208,44.667,73.625,44.667
				C1290.625,340.125,1325,304.792,1325,252.75z"/>
			<path fill="#FFFFFF" d="M1403.417,252.75c0-70.208,51.542-122.208,120.75-122.208s121.25,52.042,121.25,122.208
				s-51.542,122.708-121.25,122.708S1403.417,322.458,1403.417,252.75z M1604.667,252.75c0-54-36.333-86.875-80.5-86.875
				c-44.167,0-80,32.875-80,86.875s36.333,87.375,80,87.375S1604.667,306.25,1604.667,252.75z"/>
			<path fill="#FFFFFF" d="M1840,152.625c0,16.208-6.875,19.625-23.542,19.625c-33.875,0-62.333,15.708-80,52.5v133
				c0,9.833-5.417,15.208-21.583,15.208c-6.875,0-14.708-1-18.667-1.958V134.917c3.917-1,11.792-1.958,18.667-1.958
				c16.208,0,21.583,5.875,21.583,15.208v32.875c23.083-34.833,57.917-52.5,101.583-46.625c0.5,3.417,1.958,10.792,1.958,18.167
				V152.625z"/>
			<path fill="#FFFFFF" d="M2016.5,359.25c-20.625,9.833-44.167,16.208-67.75,16.208c-46.625,0-74.625-27.5-74.625-73.125V99.625
				c0-10.292,5.875-17.167,21.583-17.167c6.875,0,14.708,1.458,18.667,2.458v51.042h91.792c0.5,3.417,1.458,10.292,1.458,16.208
				c0,14.25-5.875,19.125-14.708,19.125h-78.542v128.125c0,27.5,12.75,40.75,38.792,40.75c23.542,0,36.792-10.292,48.083-10.292
				c11.292,0,17.667,9.833,15.208,29.458L2016.5,359.25z"/>
		</g>
		
			<linearGradient id="SVGID_2_" gradientUnits="userSpaceOnUse" x1="409.375" y1="-1341.309" x2="409.375" y2="-1776.8923" gradientTransform="matrix(1 0 0 -1 -47.5 -1306.2673)">
			<stop  offset="0.05" style="stop-color:#0F33D5"/>
			<stop  offset="0.29" style="stop-color:#0C28C7"/>
			<stop  offset="0.74" style="stop-color:#040EA2"/>
			<stop  offset="0.95" style="stop-color:#00008F"/>
		</linearGradient>
		<path fill="url(#SVGID_2_)" d="M499.542,464.042c5.958,3.042,18.042,6.708,33.25,7.083c26.125,0.583,40.333-9.417,50.917-32.792
			L723.75,126.5c-5.75-3.083-18.625-6.542-29-6.708c-18.042-0.375-42.25,3.25-57.625,40.083l-45.333,106.833l-88.958-144.625
			c-5.75-1.75-19.792-4.208-29.958-4.208c-31.5,0-49,11.5-67.25,31.25L319.167,243.5l69.542,109.333
			c12.875,19.958,29.792,30.125,57.25,30.125c18.042,0,33.042-4.208,39.958-7.458l-83.75-126l59.375-62.917l97.417,152.667
			l-59.375,124.875L499.542,464.042z M315.792,346.083c0,23-9.042,36.25-54,36.25c-5.958,0-11.125-0.375-16.125-1.167V76.25
			c0-23.208,7.875-47.375,53.208-47.375c5.75,0,11.542,0.583,16.917,1.75v315.5V346.083z M223.042,300.042
			c0,42.958-28.042,74.208-85.125,80.375c-41.292,4.417-101.042-0.75-129.5-4.042c-0.958-4.583-1.708-10.333-1.708-14.958
			c0-37.417,20.167-46.042,39.208-46.042s50.917,3.458,73.958,3.458c25.542,0,33.25-8.625,33.25-16.875
			c0-10.75-10.167-15.167-29.958-19L69,272.583C24,264,0,232.917,0,199.917c0-40.083,28.417-73.667,84.333-79.792
			c42.25-4.625,93.75,0.583,122,4.042c0.958,4.792,1.542,9.417,1.542,14.375c0,37.375-19.792,45.458-38.792,45.458
			c-14.583,0-37.292-2.667-63.208-2.667s-37.292,7.292-37.292,16.125c0,9.417,10.375,13.25,26.917,16.125l51.667,9.583
			c53.042,9.792,75.875,39.875,75.875,76.917V300.042z"/>
	</g>
</g>
</svg>
