<?xml version="1.0" encoding="utf-8"?>
<!-- Generator: Adobe Illustrator 23.0.1, SVG Export Plug-In . SVG Version: 6.00 Build 0)  -->
<!DOCTYPE svg PUBLIC "-//W3C//DTD SVG 1.1//EN" "http://www.w3.org/Graphics/SVG/1.1/DTD/svg11.dtd" [
	<!ENTITY ns_extend "http://ns.adobe.com/Extensibility/1.0/">
	<!ENTITY ns_ai "http://ns.adobe.com/AdobeIllustrator/10.0/">
	<!ENTITY ns_graphs "http://ns.adobe.com/Graphs/1.0/">
	<!ENTITY ns_vars "http://ns.adobe.com/Variables/1.0/">
	<!ENTITY ns_imrep "http://ns.adobe.com/ImageReplacement/1.0/">
	<!ENTITY ns_sfw "http://ns.adobe.com/SaveForWeb/1.0/">
	<!ENTITY ns_custom "http://ns.adobe.com/GenericCustomNamespace/1.0/">
	<!ENTITY ns_adobe_xpath "http://ns.adobe.com/XPath/1.0/">
]>
<svg version="1.1" id="Livello_1" xmlns:x="&ns_extend;" xmlns:i="&ns_ai;" xmlns:graph="&ns_graphs;"
	 xmlns="http://www.w3.org/2000/svg" xmlns:xlink="http://www.w3.org/1999/xlink" x="0px" y="0px" viewBox="0 0 3109.9 500"
	 enable-background="new 0 0 3109.9 500" xml:space="preserve">
<metadata>
	<sfw  xmlns="&ns_sfw;">
		<slices></slices>
		<sliceSourceBounds  bottomLeftOrigin="true" height="500" width="3109.9" x="0" y="-235.8"></sliceSourceBounds>
	</sfw>
</metadata>
<g>
	<path fill="#FFFFFF" d="M3109.9,465.3c0,19.1-15.5,34.7-34.7,34.7H34.7C15.6,500,0,484.4,0,465.3V34.7C0,15.5,15.6,0,34.7,0h3040.5
		c19.2,0,34.7,15.5,34.7,34.7V465.3z"/>
	<g>
		<path fill="#CB0000" d="M846.3,0h1203.5v500H846.3V0z"/>
		<path fill="#AC0000" d="M846.3,259.9v239.3h1203.5V211.7C1660.4,223.9,1240.8,239.7,846.3,259.9L846.3,259.9z"/>
	</g>
	<path fill="#FFFFFF" d="M2212.5,108.3h25.3c13.3,0,16.2-2.8,16.2-16.2V66.9c0-13.4-2.8-16.1-16.2-16.1h-25.3
		c-13.4,0-16.1,2.7-16.1,16.1v25.2C2196.3,105.6,2199.1,108.3,2212.5,108.3L2212.5,108.3z"/>
	<g>
		<path fill="#333333" d="M299.2,294.3c0,39.5-25.8,68.2-78.1,73.9c-37.9,4.1-92.8-0.7-118.9-3.7c-0.8-4.2-1.5-9.5-1.5-13.8
			c0-34.3,18.5-42.3,36-42.3c18.1,0,46.7,3.2,67.9,3.2c23.4,0,30.5-8,30.5-15.5c0-9.9-9.4-13.9-27.6-17.4l-49.7-9.5
			c-41.3-8-63.3-36.5-63.3-66.8c0-36.8,26.1-67.6,77.4-73.3c38.8-4.3,86.1,0.5,112,3.7c0.9,4.4,1.4,8.6,1.4,13.2
			c0,34.3-18.2,41.8-35.6,41.8c-13.4,0-34.2-2.5-58-2.5c-24.2,0-34.2,6.7-34.2,14.8c0,8.6,9.5,12.1,24.6,14.8l47.5,8.8
			C278.1,232.7,299.2,260.3,299.2,294.3 M384.2,336.6c0,21.2-8.3,33.3-49.5,33.3c-5.5,0-10.2-0.3-14.8-1.1V88.7
			c0-21.3,7.3-43.5,48.9-43.5c5.3,0,10.6,0.5,15.5,1.6L384.2,336.6L384.2,336.6L384.2,336.6z M552.8,445c5.5,2.8,16.5,6.1,30.5,6.5
			c23.9,0.5,37-8.6,46.7-30.1l128.5-286.5c-5.3-2.8-17.1-6-26.6-6.2c-16.5-0.4-38.8,3-52.9,36.8l-41.6,98.2l-81.6-132.8
			c-5.3-1.6-18.2-3.9-27.5-3.9c-29,0-45,10.6-61.8,28.7l-79.3,86.7L451,342.7c11.8,18.4,27.4,27.7,52.6,27.7
			c16.6,0,30.3-3.9,36.7-6.9l-76.8-115.7l54.4-57.8l89.4,140.2C607.2,330.2,552.8,445,552.8,445z"/>
		<path d="M570.3,272.2l37,58.1L552.9,445c5.5,2.8,16.5,6.1,30.5,6.5c23.9,0.5,37-8.6,46.7-30.1L700.2,265
			C656.5,267.4,613.1,269.8,570.3,272.2L570.3,272.2z M451.1,342.7c11.8,18.4,27.4,27.7,52.6,27.7c16.6,0,30.3-3.9,36.7-6.9
			l-57.3-86.3c-23.8,1.4-47.4,2.9-70.8,4.3L451.1,342.7L451.1,342.7z M221.1,368.2c52.3-5.7,78.1-34.4,78.1-73.9
			c0-1.8-0.1-3.6-0.2-5.4c-21.7,1.5-43.1,2.9-64.3,4.4c0.2,0.9,0.3,1.8,0.3,2.8c0,7.6-7.1,15.5-30.5,15.5c-21.1,0-49.8-3.2-67.9-3.2
			c-17.5,0-36,8-36,42.3c0,4.3,0.7,9.6,1.5,13.8C128.3,367.5,183.2,372.2,221.1,368.2z M384.2,336.6v-53.2
			c-21.6,1.4-43,2.7-64.3,4.1v81.4c4.6,0.7,9.3,1.1,14.8,1.1C376,369.9,384.2,357.8,384.2,336.6L384.2,336.6z"/>
	</g>
	<g>
		<path fill="#333333" d="M2379,388.2h-25.2c-13.4,0-16.2,2.8-16.2,16.1v25.3c0,13.4,2.7,16.2,16.2,16.2h25.2
			c13.4,0,16.2-2.8,16.2-16.2v-25.3C2395.2,390.9,2392.4,388.1,2379,388.2L2379,388.2z M2458.3,388.2h-25.2
			c-13.5,0-16.1,2.8-16.1,16.1v25.3c0,13.4,2.7,16.2,16.1,16.2h25.2c13.4,0,16.3-2.8,16.3-16.2v-25.3
			C2474.5,390.9,2471.7,388.1,2458.3,388.2L2458.3,388.2z M2570.2,388.2h-25.3c-13.4,0-16.2,2.8-16.2,16.1v25.3
			c0,13.4,2.8,16.2,16.2,16.2h25.3c13.4,0,16.1-2.8,16.1-16.2v-25.3C2586.3,390.9,2583.6,388.1,2570.2,388.2L2570.2,388.2z
			 M2386.1,289.4c-11.4,0-15.1-2.1-16-10.8v-93.2c0-47.5-45.5-45.4-45.5-45.4h-82.9c0,0-89-6.1-97,94.9
			c-9,112.8,107.1,114.5,107.1,114.5h230.7c26.4,0,26.2-16.7,26.2-18.3c0,20.4,22.3,18.3,22.3,18.3h72.1c40.5,0,44.4-37.8,44.4-37.8
			V139.9c-61.6,0-60.6,45.5-60.6,45.5v104.1l-62.1-0.1c-12.5,0-15.7-2.4-16.2-13.5v-136c-52.3,0-59.6,30.6-60.5,41.6v107.9
			L2386.1,289.4L2386.1,289.4z M2304.3,329c0-13.5-2.1-17.3-5.5-24.4c-12.4-25.2-42.5-15.3-59-17.3c-9.4-1.1-33.1-9.9-34.4-40.4
			c-2-46.5,42.4-48.5,42.4-48.5h56.7L2304.3,329L2304.3,329z M2725.7,347.8c-5.5,37.4-38.9,38-38.9,38
			c-65.4,1.5-52.7,58.6-52.7,58.6c36.4,4.1,87.3,0,117.7-22.2c30.4-22.2,34.4-72.9,34.4-72.9l182.5,0.1h46.1
			c0-63.7-45.6-60.7-45.6-60.7l-33.1,0.1c-42,0-40.4-46.4-40.4-46.4c0-61.2,64.8-32.4,95.2-44.5c30.4-12.1,24.3-58.6,24.3-58.6H2916
			c-54.8,0-91.9,49-87.1,103.1c3,34.8,12.1,46.4,12.1,46.4h-47c-6.2-1.5-7.8-5.5-7.8-15.4V139.2c-63.3,0-60.5,45.5-60.5,45.5
			L2725.7,347.8L2725.7,347.8L2725.7,347.8z M2212.5,108.3h25.3c13.3,0,16.2-2.8,16.2-16.2V66.9c0-13.4-2.8-16.1-16.2-16.1h-25.3
			c-13.4,0-16.1,2.7-16.1,16.1v25.2C2196.3,105.6,2199.1,108.3,2212.5,108.3z M2291.8,108.3h25.3c13.4,0,16.1-2.8,16.1-16.2V66.9
			c0-13.4-2.8-16.1-16.1-16.1h-25.3c-13.4,0-16.1,2.7-16.1,16.1v25.2C2275.7,105.6,2278.4,108.3,2291.8,108.3z"/>
		<path d="M2379,388.2h-25.2c-13.4,0-16.2,2.8-16.2,16.1v25.3c0,13.4,2.7,16.2,16.2,16.2h25.2c13.4,0,16.2-2.8,16.2-16.2v-25.2
			C2395.2,391,2392.4,388.2,2379,388.2L2379,388.2z M2458.3,388.2h-25.2c-13.5,0-16.1,2.8-16.1,16.1v25.3c0,13.4,2.7,16.2,16.1,16.2
			h25.2c13.4,0,16.3-2.8,16.3-16.2v-25.2C2474.5,391,2471.7,388.2,2458.3,388.2L2458.3,388.2z M2570.2,388.2h-25.3
			c-13.4,0-16.2,2.8-16.2,16.1v25.3c0,13.4,2.8,16.2,16.2,16.2h25.3c13.4,0,16.1-2.8,16.1-16.2v-25.2
			C2586.3,391,2583.6,388.2,2570.2,388.2L2570.2,388.2z M2587.1,196.2v93.3l-62.1,0c-12.5,0-15.7-2.4-16.2-13.5v-77.8l-60.5,1.6
			v89.8l-62.2,0c-11.4,0-15.1-2.1-16-10.8v-76.8l-65.6,1.8l-0.2,125.5c0-13.5-2.1-17.3-5.5-24.4c-12.4-25.2-42.5-15.3-59-17.3
			c-9.4-1.1-33.1-9.9-34.4-40.4c-1-22.7,9.1-34.8,19.7-41.2l-75.7,2.2c-2.2,8-3.8,16.9-4.6,26.9c-9,112.8,107.1,114.5,107.1,114.5
			h230.7c26.4,0,26.2-16.7,26.2-18.3c0,20.4,22.3,18.3,22.3,18.3h72.1c40.5,0,44.4-37.7,44.4-37.7V194.7L2587.1,196.2L2587.1,196.2z
			 M2990.8,197.8c6.3-2.5,11-6.5,14.5-11.2c-53.3,1.1-109.2,2.3-167.7,3.6c-7.3,15.6-10.5,33.5-8.9,52c3,34.8,12.1,46.5,12.1,46.5
			h-47c-6.2-1.5-7.7-5.6-7.7-15.4v-81.9l-60.5,1.4v154.9c-5.5,37.4-38.9,38-38.9,38c-65.4,1.5-52.7,58.6-52.7,58.6
			c36.4,4.1,87.3,0,117.7-22.2c30.4-22.3,34.4-72.9,34.4-72.9l182.5,0.1h46.1c0-63.7-45.6-60.7-45.6-60.7l-33.1,0.1
			c-42,0-40.4-46.5-40.4-46.5C2895.7,181.1,2960.4,209.9,2990.8,197.8z"/>
	</g>
	<path fill="#FFFFFF" d="M932.1,134.4c3.6-0.9,7-1.8,10.2-2.6c3.2-0.8,6.8-1.2,10.7-1.2c9.4,0,16.1,2.5,20,7.6
		c3.9,5,5.9,11.8,5.9,20.2v8.8h1c8.1-11.4,18.8-20.7,31.9-28c13.2-7.3,28.2-11,45.1-11c27.3,0,48.4,8.7,63.4,26
		c14.9,17.4,22.4,41.8,22.4,73.3v122.3c0,5.5-1.7,10.2-5.1,14.1c-3.4,3.9-9.8,5.8-19.3,5.8c-10.1,0-18-0.8-23.9-2.4V232.8
		c0-22.4-4.8-38.6-14.4-48.7s-23.1-15.1-40.7-15.1c-11,0-22.2,3.2-33.4,9.5c-11.2,6.3-19.8,14.7-25.6,25.1v146.2
		c0,5.5-1.7,10.2-5.1,14.1c-3.4,3.9-9.8,5.9-19.2,5.9c-10.1,0-18-0.8-23.9-2.4V134.4L932.1,134.4z M1230.9,266.9
		c2,20.5,9.7,36.2,23.1,47.2c13.5,11,31,16.6,52.4,16.6c9.1,0,17-0.7,23.6-2.2c6.7-1.5,12.6-3,17.8-4.6c5.2-1.6,9.9-3.2,14.1-4.6
		c4.2-1.5,8.5-2.2,12.7-2.2c6.5,0,11.6,3.3,15.1,10c3.6,6.7,4.4,15.2,2.4,25.6c-9.4,4.5-21.5,8.9-36.1,13.1
		c-14.6,4.2-31.2,6.3-49.7,6.3c-19.5,0-37-3.1-52.4-9.3c-15.4-6.2-28.4-14.8-39-25.8c-10.6-11-18.7-24-24.4-39
		c-5.7-14.9-8.5-31.2-8.5-48.7c0-17.5,2.9-33.7,8.8-48.5c5.8-14.8,13.9-27.5,24.1-38.2c10.2-10.7,22.3-19.1,36.1-25.3
		c13.8-6.2,28.8-9.3,45.1-9.3c18.2,0,34.1,3.4,47.8,10.2c13.7,6.8,25.1,15.7,34.4,26.5c9.3,10.9,16.2,23.1,20.7,36.8
		c4.5,13.6,6.8,27.5,6.8,41.4c0,4.5-0.3,8.8-0.7,12.7c-0.5,3.9-1.1,7.7-1.7,11.2L1230.9,266.9L1230.9,266.9L1230.9,266.9z
		 M1360.6,232.3c-1.3-18.9-7.5-34.7-18.6-47.5c-11-12.8-26.3-19.2-45.8-19.2c-19.5,0-34.9,6.3-46.1,18.8
		c-11.2,12.5-17.6,28.5-19.3,48H1360.6L1360.6,232.3z M1697.3,350.2c-2,7.8-6.1,13.1-12.4,15.8c-6.3,2.8-13.6,4.1-21.7,4.1
		c-4.2,0-9.2-0.3-14.9-1c-5.7-0.7-10-1.5-12.9-2.4l-48.3-178.3l-44.8,160.8c-2.3,8.5-6.4,14.1-12.4,16.8c-6,2.8-13.2,4.1-21.7,4.1
		c-3.9,0-8.9-0.3-14.9-1c-6-0.7-10.5-1.6-13.4-2.9l-57-230c3.2-1.3,7-2.6,11.2-3.9c4.2-1.3,9.1-2,14.6-2c7.1,0,12.9,1.4,17.3,4.1
		c4.4,2.8,7.4,7.7,9,14.9l20.5,93.5l16.1,80.4h1c1.6-8.8,4.1-19.2,7.6-31.4c3.4-12.2,6.4-23.1,9-32.9l31.2-109.1
		c1.2-3.2,3.1-11.9,4.2-14.8c2.1-2.9,20.4-11,40.4-5.3c5,1.4,5,2.9,6.7,4.8c1.6,2,3.8,9.2,3.8,9.2l33.1,117.1
		c3.2,11.7,6.1,22.9,8.5,33.6c2.4,10.7,4.6,20.3,6.6,28.8h1l5.1-27.1c1.8-9.6,4-20,6.6-31.4l26.3-116.9c1.6-6.5,4.4-11,8.3-13.7
		c3.9-2.6,9.1-3.9,15.6-3.9c4.9,0,9.3,0.5,13.4,1.7c4.1,1.2,7.5,2.2,10.5,3.2L1697.3,350.2L1697.3,350.2z M1839.2,261.5
		c-25.7-6.8-43.7-15.7-54.1-26.5c-10.4-10.9-15.6-24.1-15.6-39.7c0-8.8,1.7-17.1,5.1-25.1c3.4-7.9,8.9-15,16.6-21.2
		c7.6-6.2,17.4-11.1,29.2-14.9c11.8-3.7,26.4-5.6,43.6-5.6c28,0,57.2,5.2,87.7,15.6c1,10.4-0.1,18.7-3.2,25.1
		c-3.1,6.3-8.4,9.5-15.8,9.5c-3.6,0-7.5-0.5-11.7-1.7c-4.2-1.1-9.2-2.4-14.9-3.7c-5.7-1.3-11.9-2.5-18.7-3.7
		c-6.8-1.1-14.6-1.7-23.4-1.7c-17.5,0-29.7,2.3-36.3,6.8c-6.7,4.5-10,10.6-10,18c0,3.3,0.4,6.1,1.2,8.5c0.8,2.4,2.4,4.8,4.9,7.1
		c2.4,2.3,6.1,4.4,11,6.3c4.9,1.9,11.2,4.1,19,6.3l37.5,10.2c26.7,7.5,45.3,16.6,56,27.3c10.7,10.7,16.1,24.5,16.1,41.4
		c0,8.5-1.5,16.8-4.4,25.1c-2.9,8.3-8.1,15.8-15.4,22.4c-7.3,6.7-17.3,12.1-30,16.3c-12.7,4.2-28.8,6.3-48.3,6.3
		c-15.6,0-31.6-1.6-48-4.6c-16.4-3.1-32.4-7.4-48-12.9c-1.6-10.1-0.8-18.4,2.4-25.1c3.2-6.6,8.5-10,15.6-10c3.9,0,8.5,0.7,13.7,2.2
		c5.2,1.5,11.1,3,17.6,4.6c6.5,1.6,13.7,3.2,21.5,4.6c7.8,1.5,16.2,2.2,25.4,2.2c10.7,0,19.3-0.9,25.8-2.7
		c6.5-1.8,11.5-4.1,15.1-6.8c3.6-2.8,5.9-5.8,7.1-9.3c1.1-3.4,1.7-6.9,1.7-10.5c0-7.8-3-13.7-9-17.8c-6-4.1-16.3-8.2-31-12.4
		L1839.2,261.5L1839.2,261.5z"/>
</g>
</svg>
