<?xml version="1.0" encoding="utf-8"?>
<!-- Generator: Adobe Illustrator 23.0.1, SVG Export Plug-In . SVG Version: 6.00 Build 0)  -->
<svg version="1.1" id="Livello_1" xmlns="http://www.w3.org/2000/svg" xmlns:xlink="http://www.w3.org/1999/xlink" x="0px" y="0px"
	 viewBox="0 0 3365.929 500" enable-background="new 0 0 3365.929 500" xml:space="preserve">
<g>
	<g>
		<path fill="#091BB6" d="M3332.637,0h-1254.89c-18.408,0-33.293,14.885-33.293,33.294v433.367
			c0,18.407,14.885,33.339,33.293,33.339h1254.89c18.408,0,33.292-14.932,33.292-33.339V33.294
			C3365.929,14.885,3351.045,0,3332.637,0 M3332.637,9.969c12.844,0,23.277,10.48,23.277,23.325v433.367
			c0,12.89-10.433,23.323-23.277,23.323h-1254.89c-12.844,0-23.277-10.433-23.277-23.323V33.294
			c0-12.845,10.433-23.325,23.277-23.325H3332.637"/>
		<path fill="#FFFFFF" d="M3332.637,9.969c12.844,0,23.277,10.48,23.277,23.325v433.367c0,12.89-10.433,23.323-23.277,23.323
			h-1254.89c-12.844,0-23.277-10.433-23.277-23.323V33.294c0-12.845,10.433-23.325,23.277-23.325H3332.637"/>
		<g>
			<path fill="#091BB6" d="M2338.917,340.535c-17.111,8.162-36.632,13.447-56.154,13.447c-38.672,0-61.856-22.814-61.856-60.65
				V125.289c0-8.531,4.915-14.234,17.899-14.234c5.703,0,12.241,1.206,15.487,2.039v42.29h76.092
				c0.417,2.874,1.206,8.578,1.206,13.447c0,11.778-4.869,15.857-12.195,15.857h-65.102v106.186
				c0,22.814,10.572,33.803,32.134,33.803c19.521,0,30.511-8.531,39.878-8.531C2336.089,316.146,2340.958,324.26,2338.917,340.535"
				/>
			<path fill="#091BB6" d="M2538.843,264.462h-151.349c4.498,37.838,30.511,58.982,69.183,58.982
				c16.693,0,29.676-3.246,41.918-7.326c8.532-2.829,12.195-4.081,15.441-4.081c9.367,0,15.487,7.743,13.818,25.643
				c-17.481,7.743-44.329,16.275-72.428,16.275c-61.022,0-102.105-41.082-102.105-102.105c0-58.611,43.541-100.946,96.819-100.946
				c60.233,0,89.956,46.787,89.956,93.991C2540.094,250.597,2539.677,257.507,2538.843,264.462 M2387.494,238.402h120.05
				c-1.252-33.384-22.814-59.398-57.405-59.398C2420.045,179.004,2392.78,199.731,2387.494,238.402"/>
			<path fill="#091BB6" d="M2753.124,233.928v105.398c0,7.698-4.498,12.613-17.899,12.613c-5.703,0-12.195-0.835-15.487-1.623
				V238.379c0-39.042-19.104-57.776-47.992-57.776c-22.396,0-46.786,15.488-56.571,33.803v124.919
				c0,7.698-4.451,12.613-17.898,12.613c-5.704,0-12.195-0.835-15.441-1.623V154.59c3.246-0.833,9.737-1.622,15.441-1.622
				c13.447,0,17.898,4.868,17.898,12.611v16.694c14.235-17.527,35.797-31.345,64.685-31.345
				C2719.738,150.928,2753.124,176.153,2753.124,233.928"/>
			<path fill="#091BB6" d="M2975.729,233.928v105.398c0,7.698-4.498,12.613-17.899,12.613c-5.703,0-12.195-0.835-15.487-1.623
				V238.379c0-39.042-19.104-57.776-47.992-57.776c-22.396,0-46.786,15.488-56.571,33.803v124.919
				c0,7.698-4.451,12.613-17.898,12.613c-5.703,0-12.195-0.835-15.441-1.623V154.59c3.246-0.833,9.738-1.622,15.441-1.622
				c13.447,0,17.898,4.868,17.898,12.611v16.694c14.235-17.527,35.797-31.345,64.685-31.345
				C2942.343,150.928,2975.729,176.153,2975.729,233.928"/>
			<path fill="#091BB6" d="M3021.76,110.249c0-12.242,9.784-21.191,21.19-21.191c12.195,0,21.562,8.949,21.562,21.191
				c0,10.989-9.367,21.144-21.562,21.144C3031.543,131.393,3021.76,121.238,3021.76,110.249 M3026.258,350.301V165.567
				c0-7.743,4.497-12.613,17.898-12.613c5.703,0,11.824,0.835,15.07,1.623v184.734c0,8.162-4.081,12.613-17.528,12.613
				C3036.041,351.924,3029.503,351.135,3026.258,350.301"/>
			<path fill="#091BB6" d="M3101.691,340.535c-2.458-17.11,2.828-26.059,12.612-26.059c9.367,0,32.134,10.201,63.897,10.201
				c33.339,0,45.952-11.824,45.952-27.266c0-10.989-4.869-20.773-34.962-28.887l-34.592-9.366
				c-38.254-10.156-53.324-29.306-53.324-52.908c0-29.305,23.185-55.318,75.674-55.318c23.602,0,52.907,5.287,70.806,12.195
				c3.292,16.694-2.041,25.643-12.195,25.643c-8.95,0-29.306-8.531-58.194-8.531c-30.928,0-42.289,10.572-42.289,24.389
				c0,9.785,4.452,18.734,32.134,26.431l35.38,9.784c39.46,10.989,55.365,29.306,55.365,55.32c0,30.557-23.602,57.821-80.59,57.821
				C3152.14,353.983,3120.794,347.862,3101.691,340.535"/>
		</g>
	</g>
	<g>
		
			<linearGradient id="SVGID_1_" gradientUnits="userSpaceOnUse" x1="1504.1854" y1="-3058.8462" x2="1504.1854" y2="-3601.8044" gradientTransform="matrix(1 0 0 -1 -47.5 -3033.7212)">
			<stop  offset="0.2" style="stop-color:#FE0000"/>
			<stop  offset="0.53" style="stop-color:#FA0000"/>
			<stop  offset="0.6" style="stop-color:#F90000"/>
			<stop  offset="0.67" style="stop-color:#F30000"/>
			<stop  offset="0.76" style="stop-color:#E50000"/>
			<stop  offset="0.85" style="stop-color:#CC0000"/>
			<stop  offset="0.95" style="stop-color:#AC0000"/>
		</linearGradient>
		<path fill="url(#SVGID_1_)" d="M831.894,0h1249.583c18.409,0,33.333,14.924,33.333,33.333v433.333
			c0,18.41-14.924,33.333-33.333,33.333H831.894c-18.409,0-33.333-14.924-33.333-33.333V33.333C798.56,14.924,813.484,0,831.894,0z"
			/>
		<g>
			<path fill="#FFFFFF" d="M894.477,359.25c-2.958-20.625,3.417-31.417,15.208-31.417c11.792,0,38.792,12.292,77.042,12.292
				c40.25,0,55.458-14.25,55.458-32.875c0-13.25-5.875-25.042-42.208-34.833l-41.708-11.292
				c-46.125-12.25-64.292-35.333-64.292-63.792c0-35.333,27.958-66.75,91.292-66.75c28.458,0,63.792,6.375,85.417,14.708
				c3.917,20.125-2.458,30.917-14.708,30.917c-10.792,0-35.333-10.292-70.167-10.292c-37.292,0-51.042,12.75-51.042,29.458
				c0,11.792,5.417,22.583,38.792,31.917l42.708,11.792c47.625,13.25,66.75,35.333,66.75,66.75
				c0,36.792-28.458,69.708-97.167,69.708c-30.417,0-68.208-7.375-91.292-16.208L894.477,359.25z"/>
			<path fill="#FFFFFF" d="M1365.685,252.75c0,77.042-54,122.708-113.375,122.708c-35.333,0-64.292-16.667-81.458-40.25v99.125
				c0,9.333-5.375,15.208-21.083,15.208c-7.833,0-15.208-1-19.125-1.958V134.958c3.917-1,11.292-1.958,19.125-1.958
				c15.708,0,21.083,5.875,21.083,15.208v22.583c17.167-23.542,46.125-40.25,81.458-40.25
				C1311.685,130.542,1365.685,176.208,1365.685,252.75z M1324.977,252.75c0-51.542-34.375-86.875-80.5-86.875
				c-31.417,0-60.375,18.167-73.625,44.667v84.917c13.25,26.5,42.208,44.667,73.625,44.667
				C1290.602,340.125,1324.977,304.792,1324.977,252.75z"/>
			<path fill="#FFFFFF" d="M1403.394,252.75c0-70.208,51.542-122.208,120.75-122.208c69.208,0,121.25,52.042,121.25,122.208
				s-51.542,122.708-121.25,122.708C1454.435,375.458,1403.394,322.458,1403.394,252.75z M1604.644,252.75
				c0-54-36.333-86.875-80.5-86.875c-44.167,0-80,32.875-80,86.875s36.333,87.375,80,87.375
				C1567.81,340.125,1604.644,306.25,1604.644,252.75z"/>
			<path fill="#FFFFFF" d="M1839.977,152.625c0,16.208-6.875,19.625-23.542,19.625c-33.875,0-62.333,15.708-80,52.5v133
				c0,9.833-5.417,15.208-21.583,15.208c-6.875,0-14.708-1-18.667-1.958V134.917c3.917-1,11.792-1.958,18.667-1.958
				c16.208,0,21.583,5.875,21.583,15.208v32.875c23.083-34.833,57.917-52.5,101.583-46.625c0.5,3.417,1.958,10.792,1.958,18.167
				V152.625z"/>
			<path fill="#FFFFFF" d="M2016.477,359.25c-20.625,9.833-44.167,16.208-67.75,16.208c-46.625,0-74.625-27.5-74.625-73.125V99.625
				c0-10.292,5.875-17.167,21.583-17.167c6.875,0,14.708,1.458,18.667,2.458v51.042h91.792c0.5,3.417,1.458,10.292,1.458,16.208
				c0,14.25-5.875,19.125-14.708,19.125h-78.542v128.125c0,27.5,12.75,40.75,38.792,40.75c23.542,0,36.792-10.292,48.083-10.292
				s17.667,9.833,15.208,29.458L2016.477,359.25z"/>
		</g>
		
			<linearGradient id="SVGID_2_" gradientUnits="userSpaceOnUse" x1="409.3521" y1="-3068.7629" x2="409.3521" y2="-3504.3462" gradientTransform="matrix(1 0 0 -1 -47.5 -3033.7212)">
			<stop  offset="0.05" style="stop-color:#0F33D5"/>
			<stop  offset="0.29" style="stop-color:#0C28C7"/>
			<stop  offset="0.74" style="stop-color:#040EA2"/>
			<stop  offset="0.95" style="stop-color:#00008F"/>
		</linearGradient>
		<path fill="url(#SVGID_2_)" d="M499.519,464.042c5.958,3.042,18.042,6.708,33.25,7.083c26.125,0.583,40.333-9.417,50.917-32.792
			L723.727,126.5c-5.75-3.083-18.625-6.542-29-6.708c-18.042-0.375-42.25,3.25-57.625,40.083l-45.333,106.833L502.81,122.083
			c-5.75-1.75-19.792-4.208-29.958-4.208c-31.5,0-49,11.5-67.25,31.25L319.144,243.5l69.542,109.333
			c12.875,19.958,29.792,30.125,57.25,30.125c18.042,0,33.042-4.208,39.958-7.458l-83.75-126l59.375-62.917l97.417,152.667
			L499.56,464.125L499.519,464.042z M315.769,346.083c0,23-9.042,36.25-54,36.25c-5.958,0-11.125-0.375-16.125-1.167V76.25
			c0-23.208,7.875-47.375,53.208-47.375c5.75,0,11.542,0.583,16.917,1.75v315.5V346.083z M223.019,300.042
			c0,42.958-28.042,74.208-85.125,80.375c-41.292,4.417-101.042-0.75-129.5-4.042c-0.958-4.583-1.708-10.333-1.708-14.958
			c0-37.417,20.167-46.042,39.208-46.042s50.917,3.458,73.958,3.458c25.542,0,33.25-8.625,33.25-16.875
			c0-10.75-10.167-15.167-29.958-19l-54.167-10.375c-45-8.583-69-39.667-69-72.667c0-40.083,28.417-73.667,84.333-79.792
			c42.25-4.625,93.75,0.583,122,4.042c0.958,4.792,1.542,9.417,1.542,14.375c0,37.375-19.792,45.458-38.792,45.458
			c-14.583,0-37.292-2.667-63.208-2.667s-37.292,7.292-37.292,16.125c0,9.417,10.375,13.25,26.917,16.125l51.667,9.583
			c53.042,9.792,75.875,39.875,75.875,76.917V300.042z"/>
	</g>
</g>
</svg>
