<?xml version="1.0" encoding="utf-8"?>
<!-- Generator: Adobe Illustrator 23.0.1, SVG Export Plug-In . SVG Version: 6.00 Build 0)  -->
<svg version="1.1" id="Livello_1" xmlns="http://www.w3.org/2000/svg" xmlns:xlink="http://www.w3.org/1999/xlink" x="0px" y="0px"
	 viewBox="0 0 3288.322 500" enable-background="new 0 0 3288.322 500" xml:space="preserve">
<g>
	<g>
		<path fill="#091BB6" d="M3254.983,0H2077.947c-18.409,0-33.34,14.885-33.34,33.294v433.367c0,18.407,14.931,33.339,33.34,33.339
			h1177.036c18.408,0,33.339-14.932,33.339-33.339V33.294C3288.322,14.885,3273.391,0,3254.983,0 M3254.983,9.969
			c12.891,0,23.323,10.48,23.323,23.325v433.367c0,12.89-10.433,23.323-23.323,23.323H2077.947
			c-12.891,0-23.324-10.433-23.324-23.323V33.294c0-12.845,10.433-23.325,23.324-23.325H3254.983"/>
		<path fill="#FFFFFF" d="M3254.983,9.969c12.891,0,23.323,10.48,23.323,23.325v433.367c0,12.89-10.433,23.323-23.323,23.323
			H2077.947c-12.891,0-23.324-10.433-23.324-23.323V33.294c0-12.845,10.433-23.325,23.324-23.325H3254.983"/>
		<path fill="#091BB6" d="M2211.026,252.239c0-58.192,42.706-101.317,99.276-101.317c26.477,0,50.867,7.327,67.977,15.441
			c2.829,18.317-2.875,25.643-10.99,25.643c-14.235,0-26.477-11.778-55.782-11.778c-36.585,0-66.725,27.264-66.725,72.01
			c0,44.375,30.14,72.012,66.725,72.012c29.305,0,41.547-12.195,54.53-12.195c8.578,0,14.653,7.743,12.241,26.06
			c-17.11,8.531-41.5,15.857-67.977,15.857C2253.732,353.973,2211.026,310.015,2211.026,252.239"/>
		<path fill="#091BB6" d="M2573.545,224.987v125.336c-3.292,0.788-9.366,1.623-15.07,1.623c-12.195,0-17.899-4.497-17.899-12.613
			v-17.11c-17.527,19.938-40.294,31.763-69.183,31.763c-43.541,0-67.56-28.517-67.56-59.446c0-47.203,50.449-67.931,136.325-62.227
			v-6.955c0-32.135-9.784-45.536-46.787-45.536c-15.487,0-36.214,4.452-47.204,7.327c-6.492,1.623-11.407,3.246-15.487,3.246
			c-9.32,0-15.441-8.162-12.195-25.225c19.939-7.327,48.826-14.236,76.509-14.236
			C2552.354,150.936,2573.545,176.579,2573.545,224.987 M2540.159,293.335v-37.048c-56.153-4.034-102.94,3.291-102.94,37.048
			c0,17.111,14.235,32.552,39.877,32.552C2503.11,325.888,2525.924,312.858,2540.159,293.335"/>
		<path fill="#091BB6" d="M2625.196,350.301V97.219c0-7.745,4.498-12.613,17.898-12.613c5.703,0,12.195,0.788,15.487,1.623v253.082
			c0,8.162-4.498,12.613-17.945,12.613C2634.98,351.924,2628.442,351.135,2625.196,350.301"/>
		<path fill="#091BB6" d="M2699.489,252.239c0-58.192,42.706-101.317,99.276-101.317c26.477,0,50.867,7.327,67.977,15.441
			c2.829,18.317-2.875,25.643-10.99,25.643c-14.235,0-26.477-11.778-55.782-11.778c-36.585,0-66.726,27.264-66.726,72.01
			c0,44.375,30.14,72.012,66.726,72.012c29.305,0,41.547-12.195,54.53-12.195c8.579,0,14.653,7.743,12.241,26.06
			c-17.11,8.531-41.5,15.857-67.977,15.857C2742.195,353.973,2699.489,310.015,2699.489,252.239"/>
		<path fill="#091BB6" d="M2900.309,110.249c0-12.242,9.738-21.191,21.144-21.191c12.195,0,21.562,8.949,21.562,21.191
			c0,10.989-9.367,21.144-21.562,21.144C2910.046,131.393,2900.309,121.238,2900.309,110.249 M2904.76,350.301V165.567
			c0-7.743,4.497-12.613,17.898-12.613c5.703,0,11.824,0.835,15.07,1.623v184.734c0,8.162-4.081,12.613-17.528,12.613
			C2914.544,351.924,2908.006,351.135,2904.76,350.301"/>
		<path fill="#091BB6" d="M2978.112,252.239c0-58.192,42.753-101.317,100.111-101.317c57.776,0,100.482,43.124,100.482,101.317
			c0,57.776-42.706,101.734-100.482,101.734C3020.865,353.973,2978.112,310.015,2978.112,252.239 M3144.949,252.239
			c0-44.746-30.094-72.01-66.726-72.01c-36.214,0-66.354,27.264-66.354,72.01c0,44.375,30.14,72.429,66.354,72.429
			C3114.855,324.668,3144.949,296.614,3144.949,252.239"/>
	</g>
	<g>
		
			<linearGradient id="SVGID_1_" gradientUnits="userSpaceOnUse" x1="1504.2084" y1="-2590.9553" x2="1504.2084" y2="-3133.9136" gradientTransform="matrix(1 0 0 -1 -47.5 -2565.8303)">
			<stop  offset="0.2" style="stop-color:#FE0000"/>
			<stop  offset="0.53" style="stop-color:#FA0000"/>
			<stop  offset="0.6" style="stop-color:#F90000"/>
			<stop  offset="0.67" style="stop-color:#F30000"/>
			<stop  offset="0.76" style="stop-color:#E50000"/>
			<stop  offset="0.85" style="stop-color:#CC0000"/>
			<stop  offset="0.95" style="stop-color:#AC0000"/>
		</linearGradient>
		<path fill="url(#SVGID_1_)" d="M831.917,0H2081.5c18.409,0,33.333,14.924,33.333,33.333v433.333
			c0,18.41-14.924,33.333-33.333,33.333H831.917c-18.409,0-33.333-14.924-33.333-33.333V33.333C798.583,14.924,813.507,0,831.917,0z
			"/>
		<g>
			<path fill="#FFFFFF" d="M894.5,359.25c-2.958-20.625,3.417-31.417,15.208-31.417c11.792,0,38.792,12.292,77.042,12.292
				c40.25,0,55.458-14.25,55.458-32.875c0-13.25-5.875-25.042-42.208-34.833l-41.708-11.292
				C912.167,248.875,894,225.792,894,197.333c0-35.333,27.958-66.75,91.292-66.75c28.458,0,63.792,6.375,85.417,14.708
				c3.917,20.125-2.458,30.917-14.708,30.917c-10.792,0-35.333-10.292-70.167-10.292c-37.292,0-51.042,12.75-51.042,29.458
				c0,11.792,5.417,22.583,38.792,31.917l42.708,11.792c47.625,13.25,66.75,35.333,66.75,66.75
				c0,36.792-28.458,69.708-97.167,69.708c-30.417,0-68.208-7.375-91.292-16.208L894.5,359.25z"/>
			<path fill="#FFFFFF" d="M1365.708,252.75c0,77.042-54,122.708-113.375,122.708c-35.333,0-64.292-16.667-81.458-40.25v99.125
				c0,9.333-5.375,15.208-21.083,15.208c-7.833,0-15.208-1-19.125-1.958V134.958c3.917-1,11.292-1.958,19.125-1.958
				c15.708,0,21.083,5.875,21.083,15.208v22.583c17.167-23.542,46.125-40.25,81.458-40.25
				C1311.708,130.542,1365.708,176.208,1365.708,252.75z M1325,252.75c0-51.542-34.375-86.875-80.5-86.875
				c-31.417,0-60.375,18.167-73.625,44.667v84.917c13.25,26.5,42.208,44.667,73.625,44.667
				C1290.625,340.125,1325,304.792,1325,252.75z"/>
			<path fill="#FFFFFF" d="M1403.417,252.75c0-70.208,51.542-122.208,120.75-122.208s121.25,52.042,121.25,122.208
				s-51.542,122.708-121.25,122.708S1403.417,322.458,1403.417,252.75z M1604.667,252.75c0-54-36.333-86.875-80.5-86.875
				c-44.167,0-80,32.875-80,86.875s36.333,87.375,80,87.375S1604.667,306.25,1604.667,252.75z"/>
			<path fill="#FFFFFF" d="M1840,152.625c0,16.208-6.875,19.625-23.542,19.625c-33.875,0-62.333,15.708-80,52.5v133
				c0,9.833-5.417,15.208-21.583,15.208c-6.875,0-14.708-1-18.667-1.958V134.917c3.917-1,11.792-1.958,18.667-1.958
				c16.208,0,21.583,5.875,21.583,15.208v32.875c23.083-34.833,57.917-52.5,101.583-46.625c0.5,3.417,1.958,10.792,1.958,18.167
				V152.625z"/>
			<path fill="#FFFFFF" d="M2016.5,359.25c-20.625,9.833-44.167,16.208-67.75,16.208c-46.625,0-74.625-27.5-74.625-73.125V99.625
				c0-10.292,5.875-17.167,21.583-17.167c6.875,0,14.708,1.458,18.667,2.458v51.042h91.792c0.5,3.417,1.458,10.292,1.458,16.208
				c0,14.25-5.875,19.125-14.708,19.125h-78.542v128.125c0,27.5,12.75,40.75,38.792,40.75c23.542,0,36.792-10.292,48.083-10.292
				c11.292,0,17.667,9.833,15.208,29.458L2016.5,359.25z"/>
		</g>
		
			<linearGradient id="SVGID_2_" gradientUnits="userSpaceOnUse" x1="409.375" y1="-2600.8721" x2="409.375" y2="-3036.4553" gradientTransform="matrix(1 0 0 -1 -47.5 -2565.8303)">
			<stop  offset="0.05" style="stop-color:#0F33D5"/>
			<stop  offset="0.29" style="stop-color:#0C28C7"/>
			<stop  offset="0.74" style="stop-color:#040EA2"/>
			<stop  offset="0.95" style="stop-color:#00008F"/>
		</linearGradient>
		<path fill="url(#SVGID_2_)" d="M499.542,464.042c5.958,3.042,18.042,6.708,33.25,7.083c26.125,0.583,40.333-9.417,50.917-32.792
			L723.75,126.5c-5.75-3.083-18.625-6.542-29-6.708c-18.042-0.375-42.25,3.25-57.625,40.083l-45.333,106.833l-88.958-144.625
			c-5.75-1.75-19.792-4.208-29.958-4.208c-31.5,0-49,11.5-67.25,31.25L319.167,243.5l69.542,109.333
			c12.875,19.958,29.792,30.125,57.25,30.125c18.042,0,33.042-4.208,39.958-7.458l-83.75-126l59.375-62.917l97.417,152.667
			l-59.375,124.875L499.542,464.042z M315.792,346.083c0,23-9.042,36.25-54,36.25c-5.958,0-11.125-0.375-16.125-1.167V76.25
			c0-23.208,7.875-47.375,53.208-47.375c5.75,0,11.542,0.583,16.917,1.75v315.5V346.083z M223.042,300.042
			c0,42.958-28.042,74.208-85.125,80.375c-41.292,4.417-101.042-0.75-129.5-4.042c-0.958-4.583-1.708-10.333-1.708-14.958
			c0-37.417,20.167-46.042,39.208-46.042s50.917,3.458,73.958,3.458c25.542,0,33.25-8.625,33.25-16.875
			c0-10.75-10.167-15.167-29.958-19L69,272.583C24,264,0,232.917,0,199.917c0-40.083,28.417-73.667,84.333-79.792
			c42.25-4.625,93.75,0.583,122,4.042c0.958,4.792,1.542,9.417,1.542,14.375c0,37.375-19.792,45.458-38.792,45.458
			c-14.583,0-37.292-2.667-63.208-2.667s-37.292,7.292-37.292,16.125c0,9.417,10.375,13.25,26.917,16.125l51.667,9.583
			c53.042,9.792,75.875,39.875,75.875,76.917V300.042z"/>
	</g>
</g>
</svg>
