<?xml version="1.0" encoding="UTF-8" standalone="no"?>
<!-- Generator: Adobe Illustrator 23.0.1, SVG Export Plug-In . SVG Version: 6.00 Build 0)  -->

<svg
   version="1.1"
   id="Livello_1"
   x="0px"
   y="0px"
   viewBox="0 0 3108.8 500"
   enable-background="new 0 0 3108.8 500"
   xml:space="preserve"
   sodipodi:docname="Sky_Sports_Mix_2025.svg"
   inkscape:version="1.2.2 (732a01da63, 2022-12-09)"
   xmlns:inkscape="http://www.inkscape.org/namespaces/inkscape"
   xmlns:sodipodi="http://sodipodi.sourceforge.net/DTD/sodipodi-0.dtd"
   xmlns="http://www.w3.org/2000/svg"
   xmlns:svg="http://www.w3.org/2000/svg"><defs
   id="defs4326"><linearGradient
     x1="-571.00555"
     y1="82.530502"
     x2="-571.00555"
     y2="277.68927"
     gradientUnits="userSpaceOnUse"
     id="color-3"
     gradientTransform="matrix(2.2680134,0,0,2.267454,1658.7137,533.07386)"><stop
       offset="0"
       stop-color="#0f33d5"
       id="stop94" /><stop
       offset="0.275"
       stop-color="#0c2ac8"
       id="stop96" /><stop
       offset="0.55"
       stop-color="#081bb3"
       id="stop98" /><stop
       offset="0.82"
       stop-color="#03099b"
       id="stop100" /><stop
       offset="1"
       stop-color="#00008c"
       id="stop102" /></linearGradient><linearGradient
     x1="-40.125431"
     y1="69.82682"
     x2="-40.125431"
     y2="290.33749"
     gradientUnits="userSpaceOnUse"
     id="color-4"
     gradientTransform="matrix(2.2675302,0,0,2.2674554,1658.9863,533.07383)"><stop
       offset="0"
       stop-color="#fe0000"
       id="stop105" /><stop
       offset="0.55"
       stop-color="#fc0000"
       id="stop107" /><stop
       offset="0.7"
       stop-color="#f90000"
       id="stop109" /><stop
       offset="0.82"
       stop-color="#ee0000"
       id="stop111" /><stop
       offset="0.9"
       stop-color="#de0000"
       id="stop113" /><stop
       offset="1"
       stop-color="#c70000"
       id="stop115" /></linearGradient></defs><sodipodi:namedview
   id="namedview4324"
   pagecolor="#505050"
   bordercolor="#ffffff"
   borderopacity="1"
   inkscape:showpageshadow="0"
   inkscape:pageopacity="0"
   inkscape:pagecheckerboard="1"
   inkscape:deskcolor="#505050"
   showgrid="false"
   inkscape:zoom="0.42138445"
   inkscape:cx="1521.1762"
   inkscape:cy="60.51481"
   inkscape:window-width="1920"
   inkscape:window-height="991"
   inkscape:window-x="-9"
   inkscape:window-y="-9"
   inkscape:window-maximized="1"
   inkscape:current-layer="g4318" />

<g
   id="g5028"><g
     id="Sky_Sports_Mix_PRIMARY_RGB">
	<g
   id="g4251">
		<path
   id="Path_2_"
   fill="#FFFFFF"
   d="M3075.5,500h-778.8c-18.3,0-33.3-15-33.3-33.3V33.3c0-18.3,15-33.3,33.3-33.3h778.8    c18.3,0,33.3,15,33.3,33.3v433.3C3108.8,485,3093.8,500,3075.5,500z" />
		<path
   id="Path_1_"
   fill="#002A91"
   d="M3075.5,10c12.8,0,23.3,10.4,23.3,23.3v433.3c0,12.9-10.4,23.4-23.3,23.4h-778.8    c-12.8,0-23.3-10.4-23.3-23.3V33.3c0-12.8,10.4-23.3,23.3-23.3H3075.5 M3075.5,0h-778.8c-18.3,0-33.3,15-33.3,33.3v433.4    c0,18.3,15,33.3,33.3,33.3h778.8c18.3,0,33.3-15,33.3-33.4V33.3C3108.8,15,3093.8,0,3075.5,0L3075.5,0z" />
	</g>
	<g
   id="Group"
   transform="translate(126.750000, 4.550000)">
		<path
   fill="#002A91"
   d="M2585.8,217.1v117.5c0,8.3-4.6,12.5-17.9,12.5c-5.8,0-12.1-0.8-15.4-1.7V221.3c0-28.3-13.3-45-39.2-45    c-21.7,0-39.6,15-46.7,30.4V335c0,8.3-4.6,12.5-17.9,12.5c-5.8,0-12.1-0.8-15.4-1.7V221.3c0-28.3-13.3-45-39.2-45    c-21.7,0-39.6,15-46.7,30.4V335c0,8.3-4.6,12.5-17.9,12.5c-5.8,0-12.1-0.8-15.4-1.7V150c3.3-0.8,9.6-1.7,15.8-1.7    c12.5,0,17.1,5,17.1,13.3V175c12.5-16.7,32.1-28.8,55.8-28.8c25.8,0,46.2,12.9,56.7,35.4c13.3-20.4,33.8-35.4,62.5-35.4    C2563.7,146.3,2585.8,177.5,2585.8,217.1z"
   id="path4253" />
		<path
   id="Shape"
   fill="#002A91"
   d="M2632.5,105.9c0-12.1,9.6-21.2,21.2-21.2c12.1,0,21.7,8.8,21.7,21.2c0,10.8-9.2,21.2-21.7,21.2    C2642.1,126.7,2632.5,116.7,2632.5,105.9z M2637.1,345.9v-185c0-7.9,4.6-12.5,17.9-12.5c5.8,0,11.7,0.8,15,1.7v184.6    c0,8.3-4.2,12.5-17.5,12.5C2646.7,347.5,2640,346.7,2637.1,345.9z" />
		<path
   id="XMLID_262_"
   fill="#002A91"
   d="M2890.4,125c-4.6,2.1-9.6,4.6-13.3,7.9c-1.7-0.8-1.2,1.2-2.1,1.7    c-4.6,3.3-8.3,7.9-12.9,11.2c0.8,0.4,0.4,1.2,0,1.2l-2.1,1.7l0.4,0.4c-5.8,5.4-12.1,12.5-17.9,18.8c-0.4,1.7-0.8,3.7-2.5,4.6    l0.4,0.4c-2.1,1.7-2.9,2.5-4.2,4.6c0.4-0.4,0-0.8-0.4-0.8l-0.8,0.8l0.4,0.4h-0.4c-0.4,0-0.4,0.4-0.8,0.8c1.7,2.1-1.7,2.1-2.1,3.3    c-0.4-0.4-0.4-0.8-0.8-0.4l-0.4,0.4c0.4,0.4,0.4,0.4,0.4,0.8l-0.4-0.4c-0.4,0.4-1.2,0.8-1.2,1.2l0.4,0.4l-0.8,0.8    c0,1.2,0-0.4-0.4-0.4c-2.1,0.4,0.4,1.7-1.2,2.5l-0.8-0.8c-0.4,0.4-0.8,0.4-0.4,0.8l0.8,0.8c-0.4,0-1.2,0-1.2-0.4    c-0.4,0.4-0.8,0.4-0.4,0.8c0.4,0.4,0.4,0.8,0.8,0.4c-4.2,1.7-4.6,7.1-8.8,9.6c-3.8,4.2-4.6,8.3-8.3,12.5l0.4,0.4    c1.7-2.1,3.3-3.3,4.6-5.4c-2.1,5-7.1,8.3-8.3,14.2l0.4,0.4c-0.4,0.4-0.4,0.4-0.4,0.8l0.4,0.4c1.2-1.7,2.5-2.5,3.3-3.8    c-1.7,6.7-7.5,10-10,16.2c0,0.8,0.4,1.7,1.2,2.5c0-0.4,0.4,0.4,0.4,0.4l3.3,4.2c-0.8-0.4-0.8,0-1.3,0c0.8,1.7,1.7,2.1,2.5,3.8    c0.4,0.4,0.4,1.2,0.8,1.7h0.4c0,0.8,0,1.2,0.4,2.1c0,0.4,0.4,0.4,0.4,0.8c0.4,0.8,1.2,2.1,1.7,2.9l1.2,4.6    c0.8,0.8,1.2,2.1,1.7,2.9c1.7,3.3,4.6,5.4,6.7,8.3c2.9,3.8,5,10,6.7,13.3c3.8,7.5,9.2,11.7,12.5,19.6c1.7,4.2,4.6,7.5,7.1,11.2    c0.8,1.2,2.1,2.5,2.9,3.8c0.4,0.4,1.2,0.8,1.7,1.7c1.7,2.1,4.6,5,3.3,6.2c-0.4,0.8,2.1,3.8,3.7,6.3c0.4,0.4,0.8,0.8,0.8,1.2    c1.2,1.7,1.2,3.3,1.2,3.3c0,0.4,0.4,0.4,0.4,0.8c1.2,0.8,3.7,5.8,4.6,8.3l0,0c0,0.4,0.4,0.8,0.4,0.8c0,0.4,0.4,0.4,0.4,0.4l0,0    c0.8,2.5,0.8,5.4,0.8,7.9c0,1.7-0.4,3.7-0.8,5.8h-0.4c-0.4,1.7,0.4,2.9-0.8,3.8l-0.8-0.4c0.8,1.7-1.2,0.8-2.1,1.2    c-2.1-1.2-2.1,2.1-5,1.3c-2.5,2.1-5.4-2.5-8.3-0.8c-0.4-3.8-5-4.6-5.4-7.9c-2.5-2.9-6.2-5.4-7.9-8.8c-2.5-3.8-2.9-7.9-5.4-12.1    c-1.2-2.1-0.4,1.7-1.7-0.4l0.4,2.9l-1.2-2.1l0,0c-1.2-1.7-3.7-2.5-4.6-4.2c0-0.4-0.4-0.4-0.4-0.8c-2.9-4.2-5.8-7.5-8.3-11.7    l0.4-0.4c1.2,0.4,2.1,2.1,2.9,2.9l0.4-0.4c-2.5-3.3-5-6.7-7.5-10c-6.2-5.8-9.2-12.9-12.9-20.4c-3.3-6.2-8.8-9.6-12.9-15.4    c-1.7-2.1-2.9-4.2-4.2-5.8c0,0.8,1.2,2.1,0.8,2.9c0.8,1.7,3.3,3.8,3.8,5.8c-0.8-2.9-4.2-5.4-6.3-6.2l-0.4,0.4l-1.7-2.1    c-1.2,1.2-1.7,3.8-3.3,3.8c0.8,2.1-1.7,2.1-2.5,3.7c0.4,1.7-0.8,3.3-1.7,5c-1.7,0.8-2.1,2.5-2.5,3.8l-0.4-0.4    c-0.4,0.4-0.8,0.4-0.4,0.8c0,2.1-2.1,4.2-3.3,6.2c-6.2,8.8-10.8,18.8-16.7,27.9c-4.2,6.2-8.8,12.5-15.4,17.1    c-2.1,3.8-6.3,7.9-10.8,7.9l-0.4-0.4c-0.4,1.2-1.2,0-1.7,0c-0.4-1.3-3.8,0-5-1.3c-2.5,0-3.3-3.3-5.8-3.7c1.7-2.1-0.8-4.2,0.8-5.8    c0.8-0.8,2.1-2.9,3.3-3.8c0-1.2,0.4-3.3,1.3-4.6l0.4,0.4c0.4-0.4,0.8-0.4,0.4-0.8c-0.4-0.4-0.4-0.8-0.8-0.4l0.8-0.8l-0.4-0.4    c0.4-2.1,1.7-3.8,2.5-5.4c2.9-4.2,7.1-7.5,8.8-12.5c12.9-18.7,23.3-38.7,37.5-56.7c1.2-1.7,2.1-3.8,1.7-5.4    c-0.4,0.4-0.4,0.4-0.8,0.4c-0.4-0.4-0.4-0.4-0.4-0.8l0.4,0.4c0.8-1.7-0.8-3.8-1.7-5.8c-0.4-0.4-0.8,0-0.8,0.4l0.4,2.9    c-2.1-4.2-6.2-7.9-7.5-11.7c-3.3-0.8-2.9-5-5.8-7.1c-3.3-7.1-7.9-12.5-11.7-19.6c-1.2,0.8,0,1.7,0.4,2.9    c-5.4-9.2-10.8-19.6-16.7-29.2c0,0,0-0.4-0.4-0.4c-1.7-3.8-1.7-7.9,0.4-11.2c0.8-2.5,4.2-4.6,5.8-5.4c-1.2-0.8,0.4-1.7,0.8-2.5    c2.1-2.1,2.9-5.8,6.2-6.2c-0.8-0.4,0-1.7,0.4-2.1c1.2,0,2.1-1.2,2.9-2.1c1.2,0.4,2.5,0.4,3.3,1.7c5.8,7.1,10.8,14.6,15.4,22.5    c5.4,8.8,10.4,17.5,17.1,25.4l-0.4,0.4c0.4,0.4,1.2,1.7,1.2,1.7l0.4-0.4c3.8,6.7,8.8,12.1,13.8,18.3h0.8    c7.9-8.3,14.2-17.5,22.1-25c1.7-2.5,3.8-5.8,6.7-6.7l0.4-0.4l-0.4-0.4c1.7-1.2,2.5-3.8,4.6-4.2l-0.4-0.4c0.8-0.8,1.7-1.7,2.5-2.5    c21.7-22.5,42.1-45.8,70.8-58.7c1.7-1.7,3.3-2.1,5.4-2.9c0,0.8-1.2,1.2,0,1.7C2897.9,117.1,2893.3,122.1,2890.4,125" />
	</g>
	<g
   id="g4320">
		
			<linearGradient
   id="Sky_Logo_1_"
   gradientUnits="userSpaceOnUse"
   x1="361.9724"
   y1="275.1942"
   x2="361.9724"
   y2="-167.3197"
   gradientTransform="matrix(1 0 0 -1 0 304)">
			<stop
   offset="0"
   style="stop-color:#002A91"
   id="stop4258" />
			<stop
   offset="0.8"
   style="stop-color:#002672"
   id="stop4260" />
		</linearGradient>
		
		
			<linearGradient
   id="s25_1_"
   gradientUnits="userSpaceOnUse"
   x1="365.5015"
   y1="40.6988"
   x2="359.6508"
   y2="208.2287"
   gradientTransform="matrix(1 0 0 -1 0 304)">
			<stop
   offset="0"
   style="stop-color:#FFFFFF"
   id="stop4264" />
			<stop
   offset="0.1203"
   style="stop-color:#FFFFFF;stop-opacity:0.8347"
   id="stop4266" />
			<stop
   offset="0.2693"
   style="stop-color:#FFFFFF;stop-opacity:0.6576"
   id="stop4268" />
			<stop
   offset="0.4195"
   style="stop-color:#FFFFFF;stop-opacity:0.5107"
   id="stop4270" />
			<stop
   offset="0.5684"
   style="stop-color:#FFFFFF;stop-opacity:0.3965"
   id="stop4272" />
			<stop
   offset="0.7156"
   style="stop-color:#FFFFFF;stop-opacity:0.3152"
   id="stop4274" />
			<stop
   offset="0.8603"
   style="stop-color:#FFFFFF;stop-opacity:0.2664"
   id="stop4276" />
			<stop
   offset="1"
   style="stop-color:#FFFFFF;stop-opacity:0.25"
   id="stop4278" />
		</linearGradient>
		
		
			<linearGradient
   id="Plinth_1_"
   gradientUnits="userSpaceOnUse"
   x1="1194.0155"
   y1="22.2308"
   x2="1194.0155"
   y2="41.4615"
   gradientTransform="matrix(79.7983 0 0 26 -93714.0469 -578)">
			<stop
   offset="0.4"
   style="stop-color:#FF0000"
   id="stop4282" />
			<stop
   offset="1"
   style="stop-color:#D42321"
   id="stop4284" />
		</linearGradient>
		
		
			<linearGradient
   id="p40_1_"
   gradientUnits="userSpaceOnUse"
   x1="1569.3412"
   y1="73.9344"
   x2="1560.6423"
   y2="323.0379"
   gradientTransform="matrix(1 0 0 -1 0 304)">
			<stop
   offset="0"
   style="stop-color:#FFFFFF"
   id="stop4288" />
			<stop
   offset="0.1203"
   style="stop-color:#FFFFFF;stop-opacity:0.8347"
   id="stop4290" />
			<stop
   offset="0.2693"
   style="stop-color:#FFFFFF;stop-opacity:0.6576"
   id="stop4292" />
			<stop
   offset="0.4195"
   style="stop-color:#FFFFFF;stop-opacity:0.5107"
   id="stop4294" />
			<stop
   offset="0.5684"
   style="stop-color:#FFFFFF;stop-opacity:0.3965"
   id="stop4296" />
			<stop
   offset="0.7156"
   style="stop-color:#FFFFFF;stop-opacity:0.3152"
   id="stop4298" />
			<stop
   offset="0.8603"
   style="stop-color:#FFFFFF;stop-opacity:0.2664"
   id="stop4300" />
			<stop
   offset="1"
   style="stop-color:#FFFFFF;stop-opacity:0.25"
   id="stop4302" />
		</linearGradient>
		
		<g
   transform="translate(46.366667, 4.116667)"
   id="g4318">
			<g
   id="g3355"
   transform="translate(-48.059885,-695.51881)"><path
     d="m 501.39307,1155.6017 c 10.50001,4.6 21.79992,7.1 33.20006,7.1 26.10009,0.6 40.39994,-9.3999 50.89995,-32.7999 L 725.59322,817.90201 c -9.10016,-4.10001 -19.00003,-6.4 -28.99991,-6.69996 -18.1002,-0.4 -42.30012,3.30001 -57.60012,40.09993 L 593.69302,958.20194 504.69299,813.60202 c -9.79984,-2.60004 -19.89995,-3.99999 -29.99986,-4.19999 -31.50003,0 -48.99998,11.50006 -67.20011,31.29998 l -86.50001,94.3999 69.50009,109.39999 c 12.9,19.8999 29.79991,30.0999 57.30004,30.0999 13.69991,0.2 27.29979,-2.3 40.00005,-7.5 l -83.80024,-125.9999 59.40027,-62.89992 97.39982,152.69992 z M 317.69299,1037.7018 c 0,23 -8.99983,36.2 -54.00002,36.2 -5.39985,0 -10.79999,-0.4 -16.09991,-1.0999 V 767.60213 c 0,-23.19997 7.89997,-47.39999 53.19983,-47.39999 5.70022,0 11.40004,0.60002 16.9001,1.7 z m -92.8998,-46.0999 c 0,42.9999 -28.09998,74.2 -85.10016,80.3999 -41.299867,4.4 -101.099937,-0.8 -129.499998,-3.9999 -0.9999491,-4.9 -1.6000984,-9.9 -1.7001232,-15 0,-37.4 20.2001232,-46 39.2001472,-46 19.800023,0 50.900156,3.5 74.000104,3.5 25.49994,0 33.19985,-8.5999 33.19985,-16.89991 0,-10.70002 -10.19973,-15.19997 -29.99996,-19.00002 L 70.692975,964.202 C 25.693086,955.60198 1.693218,924.40202 1.693218,891.40206 c 0,-40.09992 28.399862,-73.59992 84.300061,-79.79994 42.299821,-4.59999 93.799821,0.60002 121.999841,3.99997 1.00015,4.70003 1.50007,9.5 1.50007,14.39995 0,37.39995 -19.80002,45.49993 -38.80005,45.49993 -14.60013,0 -37.29997,-2.7 -63.20001,-2.7 -26.299944,0 -37.299979,7.29998 -37.299979,16.10002 0,9.39996 10.399986,13.20002 26.899988,16.10001 l 51.699761,9.59997 c 53.1001,9.7 75.99999,39.99998 75.99999,76.9999 z"
     fill="url(#color-3)"
     id="path128"
     style="fill:url(#color-3);stroke-width:2.26774" /><path
     d="m 2335.493,724.70217 v 433.39993 c 0,18.3 -14.5525,33.3 -33.3001,33.3 H 833.99324 c -18.30007,0 -33.30002,-14.9999 -33.30002,-33.3 V 724.70217 c 0,-18.29997 14.99995,-33.30003 33.30002,-33.30003 H 2301.792 c 18.8067,0 33.7012,14.9324 33.7012,33.30003 z"
     fill="url(#color-4)"
     id="path130"
     style="fill:url(#color-4);stroke-width:2.2675" /></g><path
   fill="#FFFFFF"
   d="M848.4,355.2c-2.9-20.4,3.3-31.2,15.4-31.2c11.2,0,38.8,12.1,77.1,12.1c40.4,0,55.4-14.2,55.4-32.9     c0-13.3-5.8-25-42.1-35L912.5,257c-46.2-12.1-64.2-35.4-64.2-63.8c0-35.4,27.9-66.7,91.2-66.7c28.3,0,63.8,6.2,85.4,14.6     c3.8,20-2.5,30.8-14.6,30.8c-10.8,0-35.4-10.4-70-10.4c-37.5,0-51.2,12.9-51.2,29.6c0,11.7,5.4,22.5,38.8,32.1l42.5,11.7     c47.5,13.3,66.7,35.4,66.7,66.7c0,36.7-28.3,69.6-97.1,69.6C909.2,371.4,871.3,363.9,848.4,355.2z"
   id="path4306" />
			<path
   fill="#FFFFFF"
   d="M1320.6,248.9c0,77.1-54.2,122.5-113.3,122.5c-35.4,0-64.2-16.7-81.7-40.4v99.1c0,9.2-5.4,15.4-21.2,15.4     c-7.9,0-15.4-0.8-19.2-2.1V130.9c3.8-0.8,11.2-2.1,19.2-2.1c15.8,0,21.2,5.8,21.2,15.4v22.5c17.1-23.8,46.2-40.4,81.7-40.4     C1266.4,126.3,1320.6,172.1,1320.6,248.9z M1279.8,248.9c0-51.7-34.2-87.1-80.4-87.1c-31.2,0-60.4,18.3-73.8,44.6v85     c13.3,26.7,42.1,44.6,73.8,44.6C1245.6,336,1279.8,300.6,1279.8,248.9z"
   id="path4308" />
			<path
   fill="#FFFFFF"
   d="M1359.3,248.9c0-70,51.7-122.1,120.8-122.1c69.6,0,121.2,52.1,121.2,122.1c0,69.6-51.7,122.5-121.2,122.5     C1411,371.4,1359.3,318.5,1359.3,248.9z M1560.6,248.9c0-54.2-36.2-87.1-80.4-87.1c-43.8,0-80,32.9-80,87.1     c0,53.3,36.2,87.5,80,87.5C1524.3,336,1560.6,302.2,1560.6,248.9z"
   id="path4310" />
			<path
   fill="#FFFFFF"
   d="M1796.9,148.4c0,16.2-6.7,19.6-23.8,19.6c-33.8,0-62.5,15.8-80,52.5v132.9c0,10-5.4,15.4-21.7,15.4     c-6.7,0-14.6-0.8-18.8-2.1V130.9c3.8-0.8,11.7-2.1,18.8-2.1c16.2,0,21.7,5.8,21.7,15.4v32.9c22.9-35,57.9-52.5,101.7-46.7     C1795.3,133.8,1796.9,141.3,1796.9,148.4z"
   id="path4312" />
			<path
   fill="#FFFFFF"
   d="M1973.6,355.2c-20.4,10-44.2,16.2-67.9,16.2c-46.7,0-74.6-27.5-74.6-73.3V95.5c0-10.4,5.8-17.1,21.7-17.1     c6.7,0,14.6,1.7,18.8,2.5v51.2h91.7c0.4,3.3,1.7,10.4,1.7,16.2c0,14.2-5.8,19.2-14.6,19.2h-78.3v127.9     c0,27.5,12.9,40.8,38.8,40.8c23.8,0,36.7-10.4,47.9-10.4C1969.9,326,1976.1,335.6,1973.6,355.2z"
   id="path4314" />
			<path
   fill="#FFFFFF"
   d="M2001.5,355.2c-2.9-20.4,3.3-31.2,15.4-31.2c11.3,0,38.8,12.1,77.1,12.1c40.4,0,55.4-14.2,55.4-32.9     c0-13.3-5.8-25-42.1-35l-41.7-11.2c-46.2-12.1-64.2-35.4-64.2-63.8c0-35.4,27.9-66.7,91.3-66.7c28.3,0,63.7,6.2,85.4,14.6     c3.8,20-2.5,30.8-14.6,30.8c-10.8,0-35.4-10.4-70-10.4c-37.5,0-51.2,12.9-51.2,29.6c0,11.7,5.4,22.5,38.8,32.1l42.5,11.7     c47.5,13.3,66.7,35.4,66.7,66.7c0,36.7-28.3,69.6-97.1,69.6C2062.4,371.4,2024.4,363.9,2001.5,355.2z"
   id="path4316" />
		</g>
	</g>
</g></g>
</svg>
