<?xml version="1.0" encoding="UTF-8" standalone="no"?>
<svg
   version="1.1"
   viewBox="0 0 2894.7173 500"
   id="svg4476"
   sodipodi:docname="Sky_Sports_Plus_2025.svg"
   inkscape:version="1.2.2 (732a01da63, 2022-12-09)"
   xmlns:inkscape="http://www.inkscape.org/namespaces/inkscape"
   xmlns:sodipodi="http://sodipodi.sourceforge.net/DTD/sodipodi-0.dtd"
   xmlns="http://www.w3.org/2000/svg"
   xmlns:svg="http://www.w3.org/2000/svg">
  <sodipodi:namedview
     id="namedview4478"
     pagecolor="#505050"
     bordercolor="#ffffff"
     borderopacity="1"
     inkscape:showpageshadow="0"
     inkscape:pageopacity="0"
     inkscape:pagecheckerboard="1"
     inkscape:deskcolor="#505050"
     showgrid="false"
     inkscape:zoom="0.45254851"
     inkscape:cx="1416.4227"
     inkscape:cy="74.025213"
     inkscape:window-width="1920"
     inkscape:window-height="991"
     inkscape:window-x="-9"
     inkscape:window-y="-9"
     inkscape:window-maximized="1"
     inkscape:current-layer="svg4476" />
  <defs
     id="defs4448">
    <linearGradient
       id="a"
       x1="361.97241"
       x2="361.97241"
       y1="275.19421"
       y2="-167.3197"
       gradientTransform="matrix(.99975437 0 0 -1 0 304)"
       gradientUnits="userSpaceOnUse">
      <stop
         offset="0"
         stop-color="#002a91"
         id="stop4404" />
      <stop
         offset=".8"
         stop-color="#002672"
         id="stop4406" />
    </linearGradient>
    <linearGradient
       id="b"
       x1="365.5015"
       x2="359.65079"
       y1="40.698799"
       y2="208.2287"
       gradientTransform="matrix(.99975437 0 0 -1 0 304)"
       gradientUnits="userSpaceOnUse">
      <stop
         offset="0"
         stop-color="#fff"
         id="stop4409" />
      <stop
         offset=".1203"
         stop-color="#fff"
         stop-opacity=".8347"
         id="stop4411" />
      <stop
         offset=".2693"
         stop-color="#fff"
         stop-opacity=".6576"
         id="stop4413" />
      <stop
         offset=".4195"
         stop-color="#fff"
         stop-opacity=".5107"
         id="stop4415" />
      <stop
         offset=".5684"
         stop-color="#fff"
         stop-opacity=".3965"
         id="stop4417" />
      <stop
         offset=".7156"
         stop-color="#fff"
         stop-opacity=".3152"
         id="stop4419" />
      <stop
         offset=".8603"
         stop-color="#fff"
         stop-opacity=".2664"
         id="stop4421" />
      <stop
         offset="1"
         stop-color="#fff"
         stop-opacity=".25"
         id="stop4423" />
    </linearGradient>
    <linearGradient
       id="c"
       x1="1832.0896"
       x2="1832.0896"
       y1="22.230801"
       y2="41.461498"
       gradientTransform="matrix(79.795664 0 0 26 -144627.16 -578)"
       gradientUnits="userSpaceOnUse">
      <stop
         offset=".4"
         stop-color="red"
         id="stop4426" />
      <stop
         offset="1"
         stop-color="#d42321"
         id="stop4428" />
    </linearGradient>
    <linearGradient
       id="d"
       x1="1568.9945"
       x2="1560.2958"
       y1="74.039398"
       y2="323.14291"
       gradientTransform="matrix(1.0000322 0 0 -1 -.67736547 304)"
       gradientUnits="userSpaceOnUse">
      <stop
         offset="0"
         stop-color="#fff"
         id="stop4431" />
      <stop
         offset=".1203"
         stop-color="#fff"
         stop-opacity=".8347"
         id="stop4433" />
      <stop
         offset=".2693"
         stop-color="#fff"
         stop-opacity=".6576"
         id="stop4435" />
      <stop
         offset=".4195"
         stop-color="#fff"
         stop-opacity=".5107"
         id="stop4437" />
      <stop
         offset=".5684"
         stop-color="#fff"
         stop-opacity=".3965"
         id="stop4439" />
      <stop
         offset=".7156"
         stop-color="#fff"
         stop-opacity=".3152"
         id="stop4441" />
      <stop
         offset=".8603"
         stop-color="#fff"
         stop-opacity=".2664"
         id="stop4443" />
      <stop
         offset="1"
         stop-color="#fff"
         stop-opacity=".25"
         id="stop4445" />
    </linearGradient>
    <linearGradient
       x1="-571.00555"
       y1="82.530502"
       x2="-571.00555"
       y2="277.68927"
       gradientUnits="userSpaceOnUse"
       id="color-3"
       gradientTransform="matrix(2.2674557,0,0,2.267454,1656.6131,-158.32828)">
      <stop
         offset="0"
         stop-color="#0f33d5"
         id="stop94" />
      <stop
         offset="0.275"
         stop-color="#0c2ac8"
         id="stop96" />
      <stop
         offset="0.55"
         stop-color="#081bb3"
         id="stop98" />
      <stop
         offset="0.82"
         stop-color="#03099b"
         id="stop100" />
      <stop
         offset="1"
         stop-color="#00008c"
         id="stop102" />
    </linearGradient>
    <linearGradient
       x1="-40.125431"
       y1="69.82682"
       x2="-40.125431"
       y2="290.33749"
       gradientUnits="userSpaceOnUse"
       id="color-4"
       gradientTransform="matrix(2.2674548,0,0,2.2674554,1656.6126,-158.32831)">
      <stop
         offset="0"
         stop-color="#fe0000"
         id="stop105" />
      <stop
         offset="0.55"
         stop-color="#fc0000"
         id="stop107" />
      <stop
         offset="0.7"
         stop-color="#f90000"
         id="stop109" />
      <stop
         offset="0.82"
         stop-color="#ee0000"
         id="stop111" />
      <stop
         offset="0.9"
         stop-color="#de0000"
         id="stop113" />
      <stop
         offset="1"
         stop-color="#c70000"
         id="stop115" />
    </linearGradient>
  </defs>
  <path
     fill="#ffffff"
     d="M2851.4832 499.99987h-706.0407c-18.3952.04897-33.3335-14.84967-33.3334-33.24497V33.511313c-.098-18.478574 14.8546-33.51053117 33.3334-33.51023455h705.7755c18.5131-.14733103 33.5993 14.81977955 33.5987 33.33340055V466.57806c.0001 18.39531-14.9382 33.29395-33.3335 33.24498"
     id="path4454" />
  <path
     d="m 499.57698,464.1996 c 10.49743,4.59999 21.79456,7.09999 33.19189,7.09999 26.09368,0.60001 40.39001,-9.39998 50.88744,-32.79998 L 723.722,126.49987 c -9.09792,-4.10001 -18.99536,-6.4 -28.99278,-6.69996 -18.09575,-0.4 -42.28972,3.30001 -57.58596,40.09993 L 591.85423,266.7998 502.87609,122.19988 c -9.79743,-2.60004 -19.89506,-3.99999 -29.99249,-4.19999 -31.49228,0 -48.98793,11.50006 -67.18358,31.29998 l -86.47874,94.3999 69.483,109.39994 c 12.89683,19.89996 29.79258,30.09995 57.28595,30.09995 13.69654,0.19999 27.29307,-2.29999 39.99021,-7.49999 l -83.77963,-125.99991 59.38566,-62.89992 97.37587,152.69993 z M 315.92207,346.2997 c 0,22.99999 -8.99762,36.19999 -53.98674,36.19999 -5.39853,0 -10.79734,-0.4 -16.09595,-1.09995 V 76.19999 c 0,-23.19997 7.89802,-47.39999 53.18674,-47.39999 5.69882,0 11.39724,0.60002 16.89595,1.7 z m -92.87696,-46.09994 c 0,42.99993 -28.09307,74.19995 -85.07923,80.39994 -41.289718,4.39998 -101.075077,-0.8 -129.4681565,-3.99997 -0.999703,-4.90001 -1.599705,-9.90002 -1.699705,-14.99998 0,-37.39995 20.1951575,-45.99995 39.1905095,-45.99995 19.795154,0 50.887634,3.5 73.981902,3.5 25.49367,0 33.19169,-8.59996 33.19169,-16.89995 0,-10.70002 -10.19722,-15.19997 -29.99258,-19.00002 L 68.98279,272.79986 C 23.993966,264.19984 0,232.99988 0,199.99992 0,159.9 28.392879,126.4 84.279332,120.19998 c 42.289418,-4.59999 93.776758,0.60002 121.969838,3.99997 0.99991,4.70003 1.4997,9.5 1.4997,14.39995 0,37.39995 -19.79515,45.49993 -38.79051,45.49993 -14.59654,0 -37.29079,-2.7 -63.18447,-2.7 -26.29347,0 -37.290801,7.29998 -37.290801,16.10002 0,9.39996 10.397429,13.20002 26.893372,16.10001 l 51.687049,9.59997 c 53.08704,9.7 75.9813,39.99998 75.9813,76.9999 z"
     fill="url(#color-3)"
     id="path128"
     style="fill:url(#color-3);stroke-width:2.26746" />
  <path
     d="M2861.5167 2e-8h-576.2784c-18.4 0-33.3 14.89999998-33.3 33.29999998v433.4c0 18.4 14.9 33.3 33.3 33.3h576.1784c18.4 0 33.3-14.9 33.3-33.3V33.3c.1-18.4-14.8-33.29999998-33.2-33.29999998m0 9.99999998c12.9 0 23.3 10.5 23.3 23.3v433.4c0 12.8-10.5 23.3-23.3 23.3h-576.2784c-12.9 0-23.3-10.5-23.3-23.3V33.3c0-12.9 10.5-23.3 23.3-23.3h576.2784"
     fill="#002a91"
     id="path4456" />
  <path
     d="m 2333.0968,33.30003 v 433.39996 c 0,18.29998 -14.552,33.30001 -33.299,33.30001 H 831.64691 C 813.34745,500 798.348,485.00003 798.348,466.69999 V 33.30003 C 798.348,15.00006 813.34745,0 831.64691,0 H 2299.3969 c 18.8061,0 33.7001,14.9324 33.7001,33.30003 z"
     fill="url(#color-4)"
     id="path130"
     style="fill:url(#color-4);stroke-width:2.26746" />
  <path
     fill="#ffffff"
     d="M894.47044 359.31667c-2.9027-20.4 3.1029-31.59967 15.214-31.59967 11.3106 0 38.6357 12.3 76.9712 12.3 40.43756 0 55.55136-14.41835 55.55136-32.70033 0-13.3-5.9054-24.89967-42.23904-34.89967l-41.73852-11.30033c-46.2429-12.1-64.2595-35.4-64.2595-63.8 0-35.4 27.9259-66.89967 91.3845-66.89967 28.32626 0 63.75896 6.39967 85.47906 14.79967 3.8036 20-2.5022 31.10033-14.6134 31.10033-10.8101 0-35.4329-10.4-70.06486-10.4-37.5347 0-51.4478 12.59967-51.4478 29.29967 0 6.92467 1.9635 13.63438 10.4971 19.86633 5.8849 4.29763 14.8944 8.31545 28.5392 12.23367l42.53936 11.7c20.1204 5.62847 34.1155 11.94207 45.6637 21.34593 14.8047 12.05573 21.098 27.10874 21.098 45.35407 0 14.52137-4.4348 28.4478-14.0607 39.97663-14.7019 17.60811-40.6772 29.7237-83.12916 29.7237-30.8284.2-68.4632-7.40033-91.3845-16.10033Z"
     id="path4462" />
  <path
     fill="#ffffff"
     d="M1366.702 252.617c0 30.29508-8.3054 56.09548-22.0984 75.77073-21.3098 30.39762-55.48 47.12894-91.3836 47.12894-35.4255 0-63.8466-16.29967-81.3592-39.99967v98.69967c0 9.2-5.0571 15.4-21.2153 15.4-7.9057 0-15.4112-.8-19.2139-2.1v-312.5c3.8027-.8 11.2081-2.1 19.2139-2.1 15.8114 0 21.2153 5.8 21.2153 15.4v22.5c17.1124-23.8 45.9335-40.4 81.4592-40.4 59.1427 0 113.382 45.40033 113.382 122.20033Zm-40.83.39967c0-51.7-34.4246-87.1-80.658-87.1-31.2225 0-59.9436 18.3-73.3532 44.6v85c13.3096 26.7 42.8837 44.6 73.8532 44.6 45.48 0 80.158-35.4 80.158-87.1Z"
     id="path4464" />
  <path
     fill="#ffffff"
     d="M1405.35 252.81668c0-70.11448 51.441-122.39968 120.8842-122.39968 69.6486 0 121.2848 52.2852 121.2848 122.39968 0 69.71381-51.736 122.70032-121.2848 122.70032-69.1482 0-120.8842-52.98651-120.8842-122.70032Zm201.2034.10135c0-54.08916-36.1716-86.92187-80.3372-86.92187-43.766 0-79.9379 32.83271-79.9379 86.92187 0 53.19098 36.3717 87.22097 80.1377 87.22097 44.0655-.39917 80.1374-34.02999 80.1374-87.22097Z"
     id="path4466" />
  <path
     fill="#ffffff"
     d="M1842.867 152.51667c0 16.2-6.4991 19.70033-23.5968 19.70033-33.7957 0-62.4918 15.8-79.9896 52.5v132.79967c0 10-5.3993 15.50033-21.6972 15.50033-6.6991 0-14.598-.90033-18.7974-2.20033v-235.8c3.7995-.8 11.6984-2.1 18.7974-2.1 16.1979 0 21.6972 5.8 21.6972 15.4v32.9c22.897-35 57.2879-52.58006 101.6866-46.7.5 3.4 1.8998 10.9 1.8998 18Z"
     id="path4468" />
  <path
     fill="#ffffff"
     d="M2019.4421 359.20594c-20.3973 10.00684-44.1942 16.21106-67.8911 16.21106-46.6939 0-74.49-27.51876-74.49-73.35002V99.529c0-10.4071 5.6991-17.212 21.597-17.212 6.6991 0 14.5981 1.60116 18.7975 2.4017v51.23496h91.7875c.4 3.30224 1.5001 10.4071 1.5001 16.21106 0 14.20968-5.7992 19.2131-14.5981 19.2131h-78.69v127.9873c0 27.51878 12.9983 40.82786 38.895 40.82786 22.1543 0 37.0955-10.4071 48.2941-10.4071 11.0985.20014 17.2977 9.80668 14.798 29.42006Z"
     id="path4470" />
  <path
     fill="#ffffff"
     d="M2047.475 359.31667c-2.9027-20.4 3.1029-31.59967 15.214-31.59967 11.3106 0 38.6357 12.3 76.9712 12.3 40.4375 0 55.4513-14.41835 55.4513-32.70033 0-13.3-5.8054-24.89967-42.139-34.89967l-41.7385-11.30033c-46.2429-12.1-64.359-35.4-64.359-63.8 0-35.4 28.0254-66.89967 91.484-66.89967 28.3262 0 63.7589 6.39967 85.479 14.79967 3.8036 20-2.5022 31.10033-14.6134 31.10033-10.8101 0-35.4329-10.4-70.0648-10.4-37.5347 0-51.4478 12.59967-51.4478 29.29967 0 6.92467 1.9635 13.63438 10.4971 19.86633 5.8849 4.29763 14.8944 8.21578 28.5392 12.134l42.5393 11.7c47.5441 13.3 66.7617 35.49967 66.7617 66.79967 0 14.52137-4.4348 28.4478-14.0607 39.97663-14.7019 17.60811-40.6772 29.7237-83.1291 29.7237-30.8284.2-68.4632-7.40033-91.3845-16.10033Z"
     id="path4472" />
  <path
     d="M2610.8532 89.790024c-5.3766 0-10.3509.679445-14.1156 1.681821-4.6738 1.244428-8.1508 2.944602-10.5442 4.502313-10.3967 6.766632-11.6231 18.144302-11.6231 24.277792v95.98496h-91.9573c-8.4199 0-15.0349 2.43052-20.483 7.29102-3.6306 3.23902-6.872 8.3126-8.6168 15.22079-.8736 3.45871-1.4332 7.37729-1.4332 11.75577 0 11.97163 2.3456 22.5871 4.611 32.8086h117.8793V404.9375c9.7052 3.97407 22.7834 5.32031 34.3731 5.32031 5.2518 0 9.6877-.45058 13.457-1.26758 1.8982-.41145 6.349-1.50837 10.7715-4.38671 10.3967-6.76663 11.623-17.71608 11.623-23.84961v-97.44082h90.5078c2.8562 0 7.5574-.29687 12.4131-2.08209 4.4028-1.6187 8.9327-4.47881 12.3293-9.11994 3.848-5.25793 6.5319-12.92998 6.5319-24.09109 0-4.97193-.5905-10.69077-1.452-16.06336-1.0112-6.30625-2.358-12.13544-3-15.7197h-117.3301V95.209977c-9.7052-3.974096-22.352-5.419953-33.9417-5.419953Z"
     fill="#002a91"
     id="path4474" />
</svg>
