<?xml version="1.0" encoding="utf-8"?>
<!-- Generator: Adobe Illustrator 23.0.1, SVG Export Plug-In . SVG Version: 6.00 Build 0)  -->
<svg version="1.1" id="Livello_1" xmlns="http://www.w3.org/2000/svg" xmlns:xlink="http://www.w3.org/1999/xlink" x="0px" y="0px"
	 viewBox="0 0 3865.808 500" enable-background="new 0 0 3865.808 500" xml:space="preserve">
<g>
	<g>
		<g id="g24">
			<path id="path4" fill="#091BB6" d="M3832.501,0H2077.883c-18.404,0-33.307,14.903-33.307,33.307v433.387
				c0,18.404,14.903,33.307,33.307,33.307h1754.619c18.404,0,33.306-14.903,33.306-33.307V33.307
				C3865.808,14.903,3850.905,0,3832.501,0 M3832.501,10.002c12.802,0,23.304,10.402,23.304,23.305v433.387
				c0,12.803-10.502,23.305-23.304,23.305H2077.883c-12.802,0-23.305-10.502-23.305-23.305V33.307
				c0-12.903,10.502-23.305,23.305-23.305H3832.501"/>
			<path id="path6" fill="#FFFFFF" d="M3832.501,10.002c12.802,0,23.304,10.402,23.304,23.305v433.387
				c0,12.803-10.502,23.305-23.304,23.305H2077.883c-12.802,0-23.305-10.502-23.305-23.305V33.307
				c0-12.903,10.502-23.305,23.305-23.305H3832.501"/>
		</g>
		<g id="Layer-1" transform="matrix(0.711341,0,0,0.711341,1767.62,-122.501)">
			<path id="path883" d="M1498.472,386.384c-87.208,0-157.978,70.765-157.978,157.971c0,87.208,70.769,157.977,157.978,157.977
				c87.207,0,157.976-70.769,157.976-157.977C1656.448,457.149,1585.679,386.384,1498.472,386.384z M1498.472,470.802
				c39.436,0,71.484,32.976,71.484,73.553s-32.048,73.555-71.484,73.555c-39.437,0-71.488-32.977-71.488-73.555
				S1459.035,470.802,1498.472,470.802z"/>
			<path id="path881" d="M1677.307,345.833h85.67v57.792h72.351v85.67h-72.351v112.825c0,5.013,3.56,8.567,8.567,8.567h63.784
				v85.677h-63.784c-53.358,0-94.236-40.879-94.236-94.244V345.833z"/>
			<path id="path877" d="M2000.304,386.384c-87.207,0-157.976,70.765-157.976,157.971c0,87.208,70.769,157.977,157.976,157.977
				s157.976-70.769,157.976-157.977C2158.28,457.149,2087.511,386.384,2000.304,386.384z M2000.304,470.802
				c39.437,0,71.487,32.976,71.487,73.553s-32.05,73.555-71.487,73.555s-71.485-32.977-71.485-73.555
				S1960.867,470.802,2000.304,470.802z"/>
			<path id="path852" d="M996.936,453.743c0-47.313-37.672-85.046-84.682-85.046c-24.457,0-47.351,10.212-63.676,28.302
				L578.462,696.354h126.578l188.701-210.124c3.857-4.295,9.186-2.81,9.186,2.557v126.656c0,47.742,36.295,84.492,83.444,84.492
				c24.72,0,47.586-10.102,63.861-28.214l166.801-185.63c3.824-4.256,8.967-2.519,8.967,3.03v207.242h94.036V453.743
				c0-47.367-37.482-85.046-84.315-85.046c-24.234,0-46.715,10.088-62.952,28.125l-166.594,185.045
				c-3.628,4.03-9.238,2.316-9.238-2.82V453.743z"/>
			<path id="path970" d="M2184.445,533.478c0,89.9,72.985,162.885,162.887,162.885h273.448v-98.369h73.879
				c62.756,0,113.699-50.943,113.699-113.701s-50.944-113.705-113.699-113.705h-347.327
				C2257.434,370.589,2184.445,443.577,2184.445,533.478z M2347.332,664.087c-72.087,0-130.61-58.523-130.61-130.609
				s58.525-130.609,130.61-130.609h140.818v66.093h-140.818c-35.61,0-64.517,28.906-64.517,64.516s28.906,64.516,64.517,64.516
				h76.333v-32.276h-76.333c-17.797,0-32.242-14.444-32.242-32.239c0-17.796,14.447-32.239,32.242-32.239h140.818v162.848H2347.332z
				 M2586.112,664.087h-64.48V501.239h173.028c8.906,0,16.14-7.233,16.14-16.141c0-8.905-7.232-16.135-16.14-16.135h-173.028V402.87
				h173.028c44.942,0,81.424,36.482,81.424,81.422c0,44.938-36.474,81.426-81.392,81.426h-108.58V664.087z"/>
		</g>
	</g>
	<g>
		
			<linearGradient id="SVGID_1_" gradientUnits="userSpaceOnUse" x1="1504.2084" y1="-1331.3923" x2="1504.2084" y2="-1874.3507" gradientTransform="matrix(1 0 0 -1 -47.5 -1306.2673)">
			<stop  offset="0.2" style="stop-color:#FE0000"/>
			<stop  offset="0.53" style="stop-color:#FA0000"/>
			<stop  offset="0.6" style="stop-color:#F90000"/>
			<stop  offset="0.67" style="stop-color:#F30000"/>
			<stop  offset="0.76" style="stop-color:#E50000"/>
			<stop  offset="0.85" style="stop-color:#CC0000"/>
			<stop  offset="0.95" style="stop-color:#AC0000"/>
		</linearGradient>
		<path fill="url(#SVGID_1_)" d="M831.917,0H2081.5c18.409,0,33.333,14.924,33.333,33.333v433.333
			c0,18.41-14.924,33.333-33.333,33.333H831.917c-18.409,0-33.333-14.924-33.333-33.333V33.333C798.583,14.924,813.507,0,831.917,0z
			"/>
		<g>
			<path fill="#FFFFFF" d="M894.5,359.25c-2.958-20.625,3.417-31.417,15.208-31.417c11.792,0,38.792,12.292,77.042,12.292
				c40.25,0,55.458-14.25,55.458-32.875c0-13.25-5.875-25.042-42.208-34.833l-41.708-11.292
				C912.167,248.875,894,225.792,894,197.333c0-35.333,27.958-66.75,91.292-66.75c28.458,0,63.792,6.375,85.417,14.708
				c3.917,20.125-2.458,30.917-14.708,30.917c-10.792,0-35.333-10.292-70.167-10.292c-37.292,0-51.042,12.75-51.042,29.458
				c0,11.792,5.417,22.583,38.792,31.917l42.708,11.792c47.625,13.25,66.75,35.333,66.75,66.75
				c0,36.792-28.458,69.708-97.167,69.708c-30.417,0-68.208-7.375-91.292-16.208L894.5,359.25z"/>
			<path fill="#FFFFFF" d="M1365.708,252.75c0,77.042-54,122.708-113.375,122.708c-35.333,0-64.292-16.667-81.458-40.25v99.125
				c0,9.333-5.375,15.208-21.083,15.208c-7.833,0-15.208-1-19.125-1.958V134.958c3.917-1,11.292-1.958,19.125-1.958
				c15.708,0,21.083,5.875,21.083,15.208v22.583c17.167-23.542,46.125-40.25,81.458-40.25
				C1311.708,130.542,1365.708,176.208,1365.708,252.75z M1325,252.75c0-51.542-34.375-86.875-80.5-86.875
				c-31.417,0-60.375,18.167-73.625,44.667v84.917c13.25,26.5,42.208,44.667,73.625,44.667
				C1290.625,340.125,1325,304.792,1325,252.75z"/>
			<path fill="#FFFFFF" d="M1403.417,252.75c0-70.208,51.542-122.208,120.75-122.208s121.25,52.042,121.25,122.208
				s-51.542,122.708-121.25,122.708S1403.417,322.458,1403.417,252.75z M1604.667,252.75c0-54-36.333-86.875-80.5-86.875
				c-44.167,0-80,32.875-80,86.875s36.333,87.375,80,87.375S1604.667,306.25,1604.667,252.75z"/>
			<path fill="#FFFFFF" d="M1840,152.625c0,16.208-6.875,19.625-23.542,19.625c-33.875,0-62.333,15.708-80,52.5v133
				c0,9.833-5.417,15.208-21.583,15.208c-6.875,0-14.708-1-18.667-1.958V134.917c3.917-1,11.792-1.958,18.667-1.958
				c16.208,0,21.583,5.875,21.583,15.208v32.875c23.083-34.833,57.917-52.5,101.583-46.625c0.5,3.417,1.958,10.792,1.958,18.167
				V152.625z"/>
			<path fill="#FFFFFF" d="M2016.5,359.25c-20.625,9.833-44.167,16.208-67.75,16.208c-46.625,0-74.625-27.5-74.625-73.125V99.625
				c0-10.292,5.875-17.167,21.583-17.167c6.875,0,14.708,1.458,18.667,2.458v51.042h91.792c0.5,3.417,1.458,10.292,1.458,16.208
				c0,14.25-5.875,19.125-14.708,19.125h-78.542v128.125c0,27.5,12.75,40.75,38.792,40.75c23.542,0,36.792-10.292,48.083-10.292
				c11.292,0,17.667,9.833,15.208,29.458L2016.5,359.25z"/>
		</g>
		
			<linearGradient id="SVGID_2_" gradientUnits="userSpaceOnUse" x1="409.375" y1="-1341.309" x2="409.375" y2="-1776.8923" gradientTransform="matrix(1 0 0 -1 -47.5 -1306.2673)">
			<stop  offset="0.05" style="stop-color:#0F33D5"/>
			<stop  offset="0.29" style="stop-color:#0C28C7"/>
			<stop  offset="0.74" style="stop-color:#040EA2"/>
			<stop  offset="0.95" style="stop-color:#00008F"/>
		</linearGradient>
		<path fill="url(#SVGID_2_)" d="M499.542,464.042c5.958,3.042,18.042,6.708,33.25,7.083c26.125,0.583,40.333-9.417,50.917-32.792
			L723.75,126.5c-5.75-3.083-18.625-6.542-29-6.708c-18.042-0.375-42.25,3.25-57.625,40.083l-45.333,106.833l-88.958-144.625
			c-5.75-1.75-19.792-4.208-29.958-4.208c-31.5,0-49,11.5-67.25,31.25L319.167,243.5l69.542,109.333
			c12.875,19.958,29.792,30.125,57.25,30.125c18.042,0,33.042-4.208,39.958-7.458l-83.75-126l59.375-62.917l97.417,152.667
			l-59.375,124.875L499.542,464.042z M315.792,346.083c0,23-9.042,36.25-54,36.25c-5.958,0-11.125-0.375-16.125-1.167V76.25
			c0-23.208,7.875-47.375,53.208-47.375c5.75,0,11.542,0.583,16.917,1.75v315.5V346.083z M223.042,300.042
			c0,42.958-28.042,74.208-85.125,80.375c-41.292,4.417-101.042-0.75-129.5-4.042c-0.958-4.583-1.708-10.333-1.708-14.958
			c0-37.417,20.167-46.042,39.208-46.042s50.917,3.458,73.958,3.458c25.542,0,33.25-8.625,33.25-16.875
			c0-10.75-10.167-15.167-29.958-19L69,272.583C24,264,0,232.917,0,199.917c0-40.083,28.417-73.667,84.333-79.792
			c42.25-4.625,93.75,0.583,122,4.042c0.958,4.792,1.542,9.417,1.542,14.375c0,37.375-19.792,45.458-38.792,45.458
			c-14.583,0-37.292-2.667-63.208-2.667s-37.292,7.292-37.292,16.125c0,9.417,10.375,13.25,26.917,16.125l51.667,9.583
			c53.042,9.792,75.875,39.875,75.875,76.917V300.042z"/>
	</g>
</g>
</svg>
