<?xml version="1.0" encoding="utf-8"?>
<!-- Generator: Adobe Illustrator 23.0.1, SVG Export Plug-In . SVG Version: 6.00 Build 0)  -->
<svg version="1.1" id="Livello_1" xmlns="http://www.w3.org/2000/svg" xmlns:xlink="http://www.w3.org/1999/xlink" x="0px" y="0px"
	 viewBox="0 0 3478.066 500" enable-background="new 0 0 3478.066 500" xml:space="preserve">
<g>
	<g>
		<path fill="#091BB6" d="M3444.752,0H2077.951c-18.431,0-33.314,14.943-33.314,33.314v433.372
			c0,18.431,14.883,33.314,33.314,33.314h1366.802c18.371,0,33.314-14.883,33.314-33.314V33.314
			C3478.066,14.943,3463.123,0,3444.752,0 M3444.752,10c12.848,0,23.312,10.466,23.312,23.314v433.372
			c0,12.849-10.465,23.314-23.312,23.314H2077.951c-12.908,0-23.314-10.465-23.314-23.314V33.314
			c0-12.848,10.406-23.314,23.314-23.314H3444.752"/>
		<path fill="#FFFFFF" d="M3444.752,10c12.848,0,23.312,10.466,23.312,23.314v433.372c0,12.849-10.465,23.314-23.312,23.314
			H2077.951c-12.908,0-23.314-10.465-23.314-23.314V33.314c0-12.848,10.406-23.314,23.314-23.314H3444.752z"/>
		<g>
			<path fill="#091BB6" d="M2416.933,252.249c0,63.897-44.769,101.744-94.012,101.744c-29.302,0-53.313-13.836-67.559-33.371v18.72
				c0,8.139-4.477,12.617-17.906,12.617c-5.697,0-12.209-0.814-15.465-1.629V97.191c0-7.732,4.476-12.558,17.906-12.558
				c5.697,0,12.209,0.814,15.465,1.629v98.023c14.246-19.535,38.257-33.372,67.559-33.372
				C2372.165,150.913,2416.933,188.762,2416.933,252.249 M2383.155,252.249c0-42.732-28.49-72.034-66.745-72.034
				c-26.046,0-50.058,15.058-61.047,37.034v70.407c10.99,21.978,35.001,37.034,61.047,37.034
				C2354.665,324.691,2383.155,295.389,2383.155,252.249"/>
			<path fill="#091BB6" d="M2613.537,224.976v125.349c-3.256,0.814-9.359,1.629-15.058,1.629c-12.209,0-17.906-4.477-17.906-12.617
				v-17.093c-17.5,19.943-40.29,31.745-69.186,31.745c-43.546,0-67.557-28.49-67.557-59.419c0-47.21,50.464-67.965,136.337-62.268
				v-6.918c0-32.152-9.769-45.581-46.803-45.581c-15.465,0-36.22,4.477-47.208,7.324c-6.511,1.629-11.396,3.256-15.466,3.256
				c-9.359,0-15.465-8.139-12.209-25.232c19.943-7.326,48.837-14.244,76.512-14.244
				C2592.376,150.908,2613.537,176.548,2613.537,224.976 M2580.167,293.348v-37.034c-56.163-4.068-102.967,3.256-102.967,37.034
				c0,17.093,14.246,32.56,39.884,32.56C2543.131,325.908,2565.921,312.885,2580.167,293.348"/>
			<path fill="#091BB6" d="M2654.626,340.551c-2.443-17.092,2.848-26.046,12.615-26.046c9.361,0,32.152,10.175,63.895,10.175
				c33.372,0,45.989-11.802,45.989-27.267c0-10.99-4.885-20.757-35.001-28.896l-34.593-9.361
				c-38.255-10.174-53.313-29.302-53.313-52.907c0-29.302,23.199-55.29,75.698-55.29c23.605,0,52.907,5.291,70.813,12.209
				c3.256,16.687-2.033,25.582-12.209,25.582c-8.953,0-29.302-8.547-58.198-8.547c-30.929,0-42.325,10.582-42.325,24.419
				c0,9.767,4.476,18.72,32.152,26.453l35.407,9.767c39.476,10.99,55.349,29.302,55.349,55.35c0,30.523-23.605,57.79-80.583,57.79
				C2705.09,353.982,2673.753,347.877,2654.626,340.551"/>
			<path fill="#091BB6" d="M3017.207,345.028c-6.92,4.07-15.466,6.92-23.605,6.92c-9.767,0-15.873-2.849-24.011-10.582
				l-85.873-84.244v82.209c0,8.14-4.477,12.617-17.906,12.617c-5.699,0-12.211-0.814-15.408-1.629V97.237
				c0-7.732,4.418-12.615,17.849-12.615c5.697,0,12.209,0.813,15.465,1.627v157.034l79.768-79.708
				c7.326-7.326,14.244-10.582,23.605-10.582c8.139,0,16.279,2.441,24.011,6.918l-92.791,89.477L3017.207,345.028z"/>
			<path fill="#091BB6" d="M3208.589,264.465h-151.394c4.477,37.849,30.523,59.011,69.184,59.011c16.687,0,29.71-3.256,41.919-7.326
				c8.547-2.848,12.209-4.068,15.465-4.068c9.361,0,15.466,7.732,13.837,25.638c-17.5,7.732-44.36,16.279-72.442,16.279
				c-61.046,0-102.15-41.105-102.15-102.15c0-58.604,43.546-100.93,96.86-100.93c60.233,0,89.943,46.802,89.943,94.012
				C3209.812,250.627,3209.403,257.545,3208.589,264.465 M3057.195,238.417h120.056c-1.221-33.371-22.791-59.417-57.384-59.417
				C3089.753,179,3062.484,199.755,3057.195,238.417"/>
			<path fill="#091BB6" d="M3368.229,340.551c-17.093,8.14-36.628,13.431-56.163,13.431c-38.663,0-61.862-22.791-61.862-60.639
				V125.319c0-8.547,4.885-14.244,17.908-14.244c5.697,0,12.209,1.221,15.465,2.035v42.325h76.106
				c0.406,2.849,1.221,8.547,1.221,13.431c0,11.744-4.885,15.871-12.211,15.871h-65.116v106.164
				c0,22.791,10.582,33.779,32.152,33.779c19.535,0,30.523-8.547,39.884-8.547C3365.38,316.133,3370.263,324.272,3368.229,340.551"
				/>
		</g>
	</g>
	<g>
		
			<linearGradient id="SVGID_1_" gradientUnits="userSpaceOnUse" x1="1504.2084" y1="-1994.1544" x2="1504.2084" y2="-2537.1128" gradientTransform="matrix(1 0 0 -1 -47.5 -1969.0294)">
			<stop  offset="0.2" style="stop-color:#FE0000"/>
			<stop  offset="0.53" style="stop-color:#FA0000"/>
			<stop  offset="0.6" style="stop-color:#F90000"/>
			<stop  offset="0.67" style="stop-color:#F30000"/>
			<stop  offset="0.76" style="stop-color:#E50000"/>
			<stop  offset="0.85" style="stop-color:#CC0000"/>
			<stop  offset="0.95" style="stop-color:#AC0000"/>
		</linearGradient>
		<path fill="url(#SVGID_1_)" d="M831.917,0H2081.5c18.409,0,33.333,14.924,33.333,33.333v433.333
			c0,18.41-14.924,33.333-33.333,33.333H831.917c-18.409,0-33.333-14.924-33.333-33.333V33.333C798.583,14.924,813.507,0,831.917,0z
			"/>
		<g>
			<path fill="#FFFFFF" d="M894.5,359.25c-2.958-20.625,3.417-31.417,15.208-31.417c11.792,0,38.792,12.292,77.042,12.292
				c40.25,0,55.458-14.25,55.458-32.875c0-13.25-5.875-25.042-42.208-34.833l-41.708-11.292
				C912.167,248.875,894,225.792,894,197.333c0-35.333,27.958-66.75,91.292-66.75c28.458,0,63.792,6.375,85.417,14.708
				c3.917,20.125-2.458,30.917-14.708,30.917c-10.792,0-35.333-10.292-70.167-10.292c-37.292,0-51.042,12.75-51.042,29.458
				c0,11.792,5.417,22.583,38.792,31.917l42.708,11.792c47.625,13.25,66.75,35.333,66.75,66.75
				c0,36.792-28.458,69.708-97.167,69.708c-30.417,0-68.208-7.375-91.292-16.208L894.5,359.25z"/>
			<path fill="#FFFFFF" d="M1365.708,252.75c0,77.042-54,122.708-113.375,122.708c-35.333,0-64.292-16.667-81.458-40.25v99.125
				c0,9.333-5.375,15.208-21.083,15.208c-7.833,0-15.208-1-19.125-1.958V134.958c3.917-1,11.292-1.958,19.125-1.958
				c15.708,0,21.083,5.875,21.083,15.208v22.583c17.167-23.542,46.125-40.25,81.458-40.25
				C1311.708,130.542,1365.708,176.208,1365.708,252.75z M1325,252.75c0-51.542-34.375-86.875-80.5-86.875
				c-31.417,0-60.375,18.167-73.625,44.667v84.917c13.25,26.5,42.208,44.667,73.625,44.667
				C1290.625,340.125,1325,304.792,1325,252.75z"/>
			<path fill="#FFFFFF" d="M1403.417,252.75c0-70.208,51.542-122.208,120.75-122.208s121.25,52.042,121.25,122.208
				s-51.542,122.708-121.25,122.708S1403.417,322.458,1403.417,252.75z M1604.667,252.75c0-54-36.333-86.875-80.5-86.875
				c-44.167,0-80,32.875-80,86.875s36.333,87.375,80,87.375S1604.667,306.25,1604.667,252.75z"/>
			<path fill="#FFFFFF" d="M1840,152.625c0,16.208-6.875,19.625-23.542,19.625c-33.875,0-62.333,15.708-80,52.5v133
				c0,9.833-5.417,15.208-21.583,15.208c-6.875,0-14.708-1-18.667-1.958V134.917c3.917-1,11.792-1.958,18.667-1.958
				c16.208,0,21.583,5.875,21.583,15.208v32.875c23.083-34.833,57.917-52.5,101.583-46.625c0.5,3.417,1.958,10.792,1.958,18.167
				V152.625z"/>
			<path fill="#FFFFFF" d="M2016.5,359.25c-20.625,9.833-44.167,16.208-67.75,16.208c-46.625,0-74.625-27.5-74.625-73.125V99.625
				c0-10.292,5.875-17.167,21.583-17.167c6.875,0,14.708,1.458,18.667,2.458v51.042h91.792c0.5,3.417,1.458,10.292,1.458,16.208
				c0,14.25-5.875,19.125-14.708,19.125h-78.542v128.125c0,27.5,12.75,40.75,38.792,40.75c23.542,0,36.792-10.292,48.083-10.292
				c11.292,0,17.667,9.833,15.208,29.458L2016.5,359.25z"/>
		</g>
		
			<linearGradient id="SVGID_2_" gradientUnits="userSpaceOnUse" x1="409.375" y1="-2004.0712" x2="409.375" y2="-2439.6545" gradientTransform="matrix(1 0 0 -1 -47.5 -1969.0294)">
			<stop  offset="0.05" style="stop-color:#0F33D5"/>
			<stop  offset="0.29" style="stop-color:#0C28C7"/>
			<stop  offset="0.74" style="stop-color:#040EA2"/>
			<stop  offset="0.95" style="stop-color:#00008F"/>
		</linearGradient>
		<path fill="url(#SVGID_2_)" d="M499.542,464.042c5.958,3.042,18.042,6.708,33.25,7.083c26.125,0.583,40.333-9.417,50.917-32.792
			L723.75,126.5c-5.75-3.083-18.625-6.542-29-6.708c-18.042-0.375-42.25,3.25-57.625,40.083l-45.333,106.833l-88.958-144.625
			c-5.75-1.75-19.792-4.208-29.958-4.208c-31.5,0-49,11.5-67.25,31.25L319.167,243.5l69.542,109.333
			c12.875,19.958,29.792,30.125,57.25,30.125c18.042,0,33.042-4.208,39.958-7.458l-83.75-126l59.375-62.917l97.417,152.667
			l-59.375,124.875L499.542,464.042z M315.792,346.083c0,23-9.042,36.25-54,36.25c-5.958,0-11.125-0.375-16.125-1.167V76.25
			c0-23.208,7.875-47.375,53.208-47.375c5.75,0,11.542,0.583,16.917,1.75v315.5V346.083z M223.042,300.042
			c0,42.958-28.042,74.208-85.125,80.375c-41.292,4.417-101.042-0.75-129.5-4.042c-0.958-4.583-1.708-10.333-1.708-14.958
			c0-37.417,20.167-46.042,39.208-46.042s50.917,3.458,73.958,3.458c25.542,0,33.25-8.625,33.25-16.875
			c0-10.75-10.167-15.167-29.958-19L69,272.583C24,264,0,232.917,0,199.917c0-40.083,28.417-73.667,84.333-79.792
			c42.25-4.625,93.75,0.583,122,4.042c0.958,4.792,1.542,9.417,1.542,14.375c0,37.375-19.792,45.458-38.792,45.458
			c-14.583,0-37.292-2.667-63.208-2.667s-37.292,7.292-37.292,16.125c0,9.417,10.375,13.25,26.917,16.125l51.667,9.583
			c53.042,9.792,75.875,39.875,75.875,76.917V300.042z"/>
	</g>
</g>
</svg>
