<?xml version="1.0" encoding="utf-8"?>
<!-- Generator: Adobe Illustrator 23.0.1, SVG Export Plug-In . SVG Version: 6.00 Build 0)  -->
<!DOCTYPE svg PUBLIC "-//W3C//DTD SVG 1.1//EN" "http://www.w3.org/Graphics/SVG/1.1/DTD/svg11.dtd" [
	<!ENTITY ns_extend "http://ns.adobe.com/Extensibility/1.0/">
	<!ENTITY ns_ai "http://ns.adobe.com/AdobeIllustrator/10.0/">
	<!ENTITY ns_graphs "http://ns.adobe.com/Graphs/1.0/">
	<!ENTITY ns_vars "http://ns.adobe.com/Variables/1.0/">
	<!ENTITY ns_imrep "http://ns.adobe.com/ImageReplacement/1.0/">
	<!ENTITY ns_sfw "http://ns.adobe.com/SaveForWeb/1.0/">
	<!ENTITY ns_custom "http://ns.adobe.com/GenericCustomNamespace/1.0/">
	<!ENTITY ns_adobe_xpath "http://ns.adobe.com/XPath/1.0/">
]>
<svg version="1.1"
	 id="svg8" xmlns:x="&ns_extend;" xmlns:i="&ns_ai;" xmlns:graph="&ns_graphs;" xmlns:cc="http://creativecommons.org/ns#" xmlns:dc="http://purl.org/dc/elements/1.1/" xmlns:inkscape="http://www.inkscape.org/namespaces/inkscape" xmlns:rdf="http://www.w3.org/1999/02/22-rdf-syntax-ns#" xmlns:sodipodi="http://sodipodi.sourceforge.net/DTD/sodipodi-0.dtd" xmlns:svg="http://www.w3.org/2000/svg"
	 xmlns="http://www.w3.org/2000/svg" xmlns:xlink="http://www.w3.org/1999/xlink" x="0px" y="0px" viewBox="0 0 1058.2 250"
	 enable-background="new 0 0 1058.2 250" xml:space="preserve">
<metadata  id="metadata5">
	<rdf:RDF>
		<cc:Work  rdf:about="">
			<dc:format>image/svg+xml</dc:format>
			<dc:type  rdf:resource="http://purl.org/dc/dcmitype/StillImage"></dc:type>
			<dc:title></dc:title>
		</cc:Work>
	</rdf:RDF>
	<sfw  xmlns="&ns_sfw;">
		<slices></slices>
		<sliceSourceBounds  bottomLeftOrigin="true" height="273" width="1067.9" x="-3.5" y="0"></sliceSourceBounds>
	</sfw>
</metadata>
<g>
	<path fill="#FFED00" d="M1041.5,0H415.9c-9.2,0-16.7,7.5-16.7,16.7v216.7c0,9.2,7.5,16.7,16.7,16.7h625.6c9.2,0,16.7-7.5,16.7-16.7
		V16.7C1058.2,7.5,1050.7,0,1041.5,0"/>
	<path fill="#172935" d="M249.8,232c3,1.5,9,3.4,16.6,3.6c13.1,0.3,20.2-4.7,25.5-16.4l70-155.9c-2.9-1.5-9.3-3.3-14.5-3.4
		c-9-0.2-21.1,1.6-28.8,20l-22.7,53.4L251.4,61c-2.9-0.9-9.9-2.1-15-2.1c-15.8,0-24.5,5.7-33.6,15.6l-43.2,47.2l34.8,54.6
		c6.4,10,14.9,15.1,28.6,15.1c9,0,16.5-2.1,20-3.7l-41.9-63l29.7-31.4l48.7,76.3L249.8,232z M157.9,173c0,11.5-4.5,18.1-27,18.1
		c-3,0-5.6-0.2-8.1-0.6V38.1c0-11.6,3.9-23.7,26.6-23.7c2.9,0,5.8,0.3,8.5,0.9V173z M111.5,150c0,21.5-14,37.1-42.6,40.2
		c-20.6,2.2-50.5-0.4-64.7-2c-0.5-2.3-0.9-5.2-0.9-7.5c0-18.7,10.1-23,19.6-23c9.9,0,25.4,1.7,37,1.7c12.8,0,16.6-4.3,16.6-8.4
		c0-5.4-5.1-7.6-15-9.5l-27.1-5.2C12,132,0,116.5,0,100c0-20.1,14.2-36.8,42.2-39.9c21.1-2.3,46.9,0.3,61,2c0.5,2.4,0.8,4.7,0.8,7.2
		C103.9,88,94,92,84.5,92c-7.3,0-18.6-1.3-31.6-1.3c-13.2,0-18.6,3.7-18.6,8.1c0,4.7,5.2,6.6,13.4,8.1l25.8,4.8
		C100.1,116.5,111.5,131.5,111.5,150"/>
	<g opacity="0.36">
		<g>
			<g>
				<defs>
					<path id="SVGID_1_" d="M318.5,79.9L296.4,132v0c0.1-0.1,1.4-4.1,5.7-4.2c0,0,21.8-0.8,23.4-0.8c7.1-0.3,9.9-5.1,10.7-6.7
						l25.6-57.1c-2.9-1.5-9.3-3.3-14.5-3.4c-0.4,0-0.8,0-1.1,0C337.3,59.9,325.9,62.3,318.5,79.9 M42.2,60.1C14.2,63.1,0,79.9,0,100
						c0,10.3,4.7,20.2,13.6,27.2c6.8,4.5,13.8,6.2,20.8,7.4c5.7,1,19,1.9,28.9,1.5c3.1-0.1,25.9-0.9,30.8-1.1
						c11.6-0.4,17.8,9.5,17.2,19.4c0-0.1,0-0.3,0-0.4c0-0.1,0-0.1,0-0.1c0.1-1.3,0.2-2.6,0.2-3.9c0-18.5-11.4-33.6-37.9-38.5
						l-25.8-4.8c-8.3-1.5-13.5-3.4-13.5-8.1c0-4.4,5.5-8.1,18.6-8.1c13,0,24.3,1.3,31.6,1.3c9.5,0,19.4-4,19.4-22.7
						c0-2.5-0.3-4.8-0.8-7.2c-10.1-1.2-26.2-2.9-42.3-2.9C54.5,59.2,48.1,59.4,42.2,60.1 M202.8,74.6l-43.2,47.2l3.5,5.4
						c1.5,2,4.4,5.4,10.2,5.2c2-0.1,22.9-0.8,24.6-0.9c5.4-0.2,8.8,2.1,10.9,4.9v0l-7.7-11.6l29.7-31.4l20,31.2
						c3.6,4.7,9,4.8,10.2,4.8c1,0,27.2-0.9,28.3-1c1.8-0.1,3.9,0.9,5.5,3.2L251.4,61c-2.9-0.9-9.9-2.1-15-2.1
						C220.6,58.9,211.9,64.7,202.8,74.6 M122.8,38.1v104.5c0-4.2,3.2-8.6,8.6-8.8c3.8-0.1,14.4-0.5,17.5-0.6
						c3.5-0.1,8.8-2.5,8.9-8.9v-109c-2.7-0.6-5.6-0.9-8.5-0.9C126.8,14.4,122.8,26.5,122.8,38.1"/>
				</defs>
				<clipPath id="SVGID_2_">
					<use xlink:href="#SVGID_1_"  overflow="visible"/>
				</clipPath>
				<defs>
					<filter id="Adobe_OpacityMaskFilter" filterUnits="userSpaceOnUse" x="-4.9" y="1.8" width="371.6" height="165.2">
						<feColorMatrix  type="matrix" values="1 0 0 0 0  0 1 0 0 0  0 0 1 0 0  0 0 0 1 0"/>
					</filter>
				</defs>
				<mask maskUnits="userSpaceOnUse" x="-4.9" y="1.8" width="371.6" height="165.2" id="SVGID_3_">
					<g filter="url(#Adobe_OpacityMaskFilter)">
						<g>
							<defs>
								
									<rect id="SVGID_4_" x="-2.3" y="8.2" transform="matrix(0.9994 -3.486609e-02 3.486609e-02 0.9994 -2.8337 6.3598)" width="366.5" height="152.5"/>
							</defs>
							<clipPath id="SVGID_5_" clip-path="url(#SVGID_2_)">
								<use xlink:href="#SVGID_4_"  overflow="visible"/>
							</clipPath>
							
								<linearGradient id="SVGID_6_" gradientUnits="userSpaceOnUse" x1="-327.4074" y1="798.329" x2="-314.8041" y2="798.329" gradientTransform="matrix(-0.232 -6.6434 -6.6434 0.232 5410.2734 -2228.7205)">
								<stop  offset="0" style="stop-color:#FFFFFF"/>
								<stop  offset="0.1203" style="stop-color:#D5D5D5"/>
								<stop  offset="0.2693" style="stop-color:#A8A8A8"/>
								<stop  offset="0.4195" style="stop-color:#828282"/>
								<stop  offset="0.5684" style="stop-color:#656565"/>
								<stop  offset="0.7156" style="stop-color:#505050"/>
								<stop  offset="0.8603" style="stop-color:#444444"/>
								<stop  offset="1" style="stop-color:#404040"/>
							</linearGradient>
							<polygon clip-path="url(#SVGID_5_)" fill="url(#SVGID_6_)" points="-4.4,180 -10.6,2 366.3,-11.2 372.5,166.8 							"/>
						</g>
					</g>
				</mask>
				
					<linearGradient id="SVGID_7_" gradientUnits="userSpaceOnUse" x1="-327.4074" y1="798.329" x2="-314.8041" y2="798.329" gradientTransform="matrix(-0.232 -6.6434 -6.6434 0.232 5410.2739 -2228.7207)">
					<stop  offset="0" style="stop-color:#FFFFFF"/>
					<stop  offset="1" style="stop-color:#FFFFFF"/>
				</linearGradient>
				<polygon clip-path="url(#SVGID_2_)" mask="url(#SVGID_3_)" fill="url(#SVGID_7_)" points="0.4,167.1 -4.9,14.6 361.4,1.8 
					366.8,154.3 				"/>
			</g>
		</g>
	</g>
	<g opacity="0.4">
		<g>
			<g>
				<defs>
					<path id="SVGID_8_" d="M415.9,0c-9.2,0-16.7,7.5-16.7,16.7v120.2v0.1v-0.1c0-1.7,0.7-11.8,12-12.8c0,0,0.5,0,1.6-0.1
						c49.3-1.7,632.9-22.1,632.9-22.1c6.3-0.2,12.5-4.9,12.5-12.7V16.7c0-9.2-7.5-16.7-16.7-16.7H415.9z"/>
				</defs>
				<clipPath id="SVGID_9_">
					<use xlink:href="#SVGID_8_"  overflow="visible"/>
				</clipPath>
				<defs>
					<filter id="Adobe_OpacityMaskFilter_1_" filterUnits="userSpaceOnUse" x="394.5" y="-23" width="668.5" height="183">
						<feColorMatrix  type="matrix" values="1 0 0 0 0  0 1 0 0 0  0 0 1 0 0  0 0 0 1 0"/>
					</filter>
				</defs>
				<mask maskUnits="userSpaceOnUse" x="394.5" y="-23" width="668.5" height="183" id="SVGID_10_">
					<g filter="url(#Adobe_OpacityMaskFilter_1_)">
						<g>
							<defs>
								
									<rect id="SVGID_11_" x="397.1" y="-11.5" transform="matrix(0.9994 -3.491778e-02 3.491778e-02 0.9994 -1.9472 25.4876)" width="663.3" height="159.9"/>
							</defs>
							<clipPath id="SVGID_12_" clip-path="url(#SVGID_9_)">
								<use xlink:href="#SVGID_11_"  overflow="visible"/>
							</clipPath>
							
								<linearGradient id="SVGID_13_" gradientUnits="userSpaceOnUse" x1="-327.4819" y1="726.543" x2="-314.8786" y2="726.543" gradientTransform="matrix(-0.345 -9.8782 -9.8782 0.345 7794.4277 -3368.7141)">
								<stop  offset="0" style="stop-color:#FFFFFF"/>
								<stop  offset="0.1203" style="stop-color:#D5D5D5"/>
								<stop  offset="0.2693" style="stop-color:#A8A8A8"/>
								<stop  offset="0.4195" style="stop-color:#828282"/>
								<stop  offset="0.5684" style="stop-color:#656565"/>
								<stop  offset="0.7156" style="stop-color:#505050"/>
								<stop  offset="0.8603" style="stop-color:#444444"/>
								<stop  offset="1" style="stop-color:#404040"/>
							</linearGradient>
							<polygon clip-path="url(#SVGID_12_)" fill="url(#SVGID_13_)" points="395.3,183.3 388.1,-22.8 1062.2,-46.3 1069.4,159.7 
															"/>
						</g>
					</g>
				</mask>
				
					<linearGradient id="SVGID_14_" gradientUnits="userSpaceOnUse" x1="-327.4818" y1="726.5416" x2="-314.8785" y2="726.5416" gradientTransform="matrix(-0.345 -9.8782 -9.8782 0.345 7794.4277 -3368.7141)">
					<stop  offset="0" style="stop-color:#FFFFFF"/>
					<stop  offset="1" style="stop-color:#FFFFFF"/>
				</linearGradient>
				<polygon clip-path="url(#SVGID_9_)" mask="url(#SVGID_10_)" fill="url(#SVGID_14_)" points="400.1,160 394.5,0.2 1057.4,-23 
					1063,136.8 				"/>
			</g>
		</g>
	</g>
	<path fill="#172935" d="M446.2,126.4c0-35.1,25.8-61.1,59.9-61.1c16,0,30.7,4.4,41,9.3c1.7,11-1.7,15.5-6.6,15.5
		c-8.6,0-16-7.1-33.6-7.1c-22.1,0-40.3,16.4-40.3,43.4c0,26.7,18.2,43.4,40.3,43.4c17.7,0,25-7.4,32.9-7.4c5.2,0,8.8,4.7,7.4,15.7
		c-10.3,5.2-25,9.6-41,9.6C472,187.7,446.2,161.2,446.2,126.4"/>
	<path fill="#172935" d="M642.3,76.3c0,8.1-3.4,9.8-11.8,9.8c-16.9,0-31.2,7.9-40,26.3v66.5c0,4.9-2.7,7.6-10.8,7.6
		c-3.4,0-7.4-0.5-9.3-1v-118c2-0.5,5.9-1,9.3-1c8.1,0,10.8,2.9,10.8,7.6v16.4c11.5-17.4,28.9-26.3,50.8-23.3
		C641.6,68.9,642.3,72.6,642.3,76.3"/>
	<path fill="#172935" d="M657,40.7c0-7.4,5.9-12.8,12.8-12.8c7.4,0,13,5.4,13,12.8c0,6.6-5.6,12.8-13,12.8
		C662.9,53.5,657,47.4,657,40.7 M659.7,185.5V74.1c0-4.7,2.7-7.6,10.8-7.6c3.4,0,7.1,0.5,9.1,1v111.4c0,4.9-2.4,7.6-10.5,7.6
		C665.6,186.5,661.7,186,659.7,185.5"/>
	<path fill="#172935" d="M875.2,108v70.9c0,4.9-2.7,7.6-10.8,7.6c-3.4,0-7.4-0.5-9.3-1v-75.1c0-17.2-8.1-27.2-23.6-27.2
		c-13,0-23.8,9.1-28.2,18.4v77.3c0,4.9-2.7,7.6-10.8,7.6c-3.4,0-7.4-0.5-9.3-1v-75.1c0-17.2-8.1-27.2-23.6-27.2
		c-13,0-23.8,9.1-28.2,18.4v77.3c0,4.9-2.7,7.6-10.8,7.6c-3.4,0-7.4-0.5-9.3-1v-118c2-0.5,5.9-1,9.6-1c7.6,0,10.3,2.9,10.3,8.1v8.1
		c7.6-10.1,19.4-17.4,33.6-17.4c15.7,0,28,7.9,34.1,21.3c8.1-12.3,20.4-21.3,37.8-21.3C862,65.3,875.2,84.2,875.2,108"/>
	<path fill="#172935" d="M1011.5,133.7h-91.3c2.7,22.8,18.4,35.6,41.7,35.6c10.1,0,17.9-2,25.3-4.4c5.2-1.7,7.4-2.5,9.3-2.5
		c5.6,0,9.3,4.7,8.3,15.5c-10.6,4.7-26.8,9.8-43.7,9.8c-36.8,0-61.6-24.8-61.6-61.6c0-35.3,26.3-60.9,58.4-60.9
		c36.3,0,54.2,28.2,54.2,56.7C1012.3,125.4,1012,129.6,1011.5,133.7 M920.3,118h72.4c-0.7-20.1-13.7-35.8-34.6-35.8
		C939.9,82.2,923.4,94.7,920.3,118"/>
	<g opacity="0.36">
		<g>
			<g>
				<defs>
					<path id="SVGID_15_" d="M570.4,67.5v51c6.6-0.2,13.3-0.5,20.1-0.7v-5.4c8.8-18.4,23.1-26.3,40-26.3c8.4,0,11.8-1.7,11.8-9.8
						c0-3.7-0.7-7.4-1-9.1c-21.8-2.9-39.3,5.9-50.8,23.3V74.1c0-4.7-2.7-7.6-10.8-7.6C576.3,66.5,572.4,67,570.4,67.5 M659.7,74.1
						v41.2c6.6-0.2,13.2-0.5,19.9-0.7V67.5c-2-0.5-5.6-1-9.1-1C662.4,66.5,659.7,69.4,659.7,74.1 M446.3,122.8
						c6.2-0.2,13-0.5,20.4-0.7c1.8-24.4,19.2-39.1,40.1-39.1c17.7,0,25,7.1,33.6,7.1c4.9,0,8.3-4.4,6.6-15.5
						c-10.3-4.9-25-9.3-41-9.3C473.2,65.3,448,89.5,446.3,122.8 M798.9,86.6c-6.1-13.5-18.4-21.3-34.1-21.3
						c-14.2,0-26,7.4-33.6,17.4v-8.1c0-5.1-2.7-8.1-10.3-8.1c-3.7,0-7.6,0.5-9.6,1v46.1c6.7-0.2,13.4-0.5,20.1-0.7v-11.2
						c4.4-9.3,15.2-18.4,28.2-18.4c15.5,0,23.6,10.1,23.6,27.2v0.6c6.7-0.2,13.4-0.5,20.1-0.7v-8.7c4.4-9.3,15.2-18.4,28.2-18.4
						c14.9,0,22.9,9.3,23.5,25.3c6.8-0.2,13.6-0.5,20.2-0.7c-0.1-23.7-13.3-42.5-38.5-42.5C819.3,65.3,807,74.3,798.9,86.6
						 M902.4,106.9c7.1-0.3,14.1-0.5,20.9-0.7c6.3-15.6,19.9-23.9,34.7-23.9c15.6,0,26.8,8.8,31.8,21.6c7.2-0.3,13.8-0.5,19.7-0.7
						c-6.3-20.9-23.4-37.9-51.5-37.9C932.1,65.3,910,81.9,902.4,106.9 M657,40.7c0,6.6,5.9,12.8,12.8,12.8c7.4,0,13-6.1,13-12.8
						c0-7.4-5.6-12.8-13-12.8C662.9,28,657,33.4,657,40.7"/>
				</defs>
				<clipPath id="SVGID_16_">
					<use xlink:href="#SVGID_15_"  overflow="visible"/>
				</clipPath>
				<defs>
					<filter id="Adobe_OpacityMaskFilter_2_" filterUnits="userSpaceOnUse" x="443" y="8.3" width="569.8" height="134.1">
						<feColorMatrix  type="matrix" values="1 0 0 0 0  0 1 0 0 0  0 0 1 0 0  0 0 0 1 0"/>
					</filter>
				</defs>
				<mask maskUnits="userSpaceOnUse" x="443" y="8.3" width="569.8" height="134.1" id="SVGID_17_">
					<g filter="url(#Adobe_OpacityMaskFilter_2_)">
						<g>
							<defs>
								<polygon id="SVGID_18_" points="447,142.4 443,28.1 1008.9,8.3 1012.9,122.7 								"/>
							</defs>
							<clipPath id="SVGID_19_" clip-path="url(#SVGID_16_)">
								<use xlink:href="#SVGID_18_"  overflow="visible"/>
							</clipPath>
							
								<linearGradient id="SVGID_20_" gradientUnits="userSpaceOnUse" x1="-327.159" y1="726.3594" x2="-314.5557" y2="726.3594" gradientTransform="matrix(-0.3335 -9.549 -9.549 0.3335 7556.1631 -3253.0933)">
								<stop  offset="0" style="stop-color:#FFFFFF"/>
								<stop  offset="0.1203" style="stop-color:#D5D5D5"/>
								<stop  offset="0.2693" style="stop-color:#A8A8A8"/>
								<stop  offset="0.4195" style="stop-color:#828282"/>
								<stop  offset="0.5684" style="stop-color:#656565"/>
								<stop  offset="0.7156" style="stop-color:#505050"/>
								<stop  offset="0.8603" style="stop-color:#444444"/>
								<stop  offset="1" style="stop-color:#404040"/>
							</linearGradient>
							<polygon clip-path="url(#SVGID_19_)" fill="url(#SVGID_20_)" points="443.7,162.3 438.4,8.5 1012.2,-11.6 1017.5,142.3 
															"/>
						</g>
					</g>
				</mask>
				
					<linearGradient id="SVGID_21_" gradientUnits="userSpaceOnUse" x1="-327.159" y1="726.3587" x2="-314.5557" y2="726.3587" gradientTransform="matrix(-0.3335 -9.549 -9.549 0.3335 7556.1631 -3253.093)">
					<stop  offset="0" style="stop-color:#FFFFFF"/>
					<stop  offset="1" style="stop-color:#FFFFFF"/>
				</linearGradient>
				<polygon clip-path="url(#SVGID_16_)" mask="url(#SVGID_17_)" fill="url(#SVGID_21_)" points="447,142.4 443,28.1 1008.9,8.3 
					1012.9,122.7 				"/>
			</g>
		</g>
	</g>
</g>
</svg>
