<?xml version="1.0" encoding="UTF-8" standalone="no"?>
<!-- Generator: Adobe Illustrator 23.0.1, SVG Export Plug-In . SVG Version: 6.00 Build 0)  -->

<svg
   version="1.1"
   id="Livello_1"
   x="0px"
   y="0px"
   viewBox="0 0 3680.4 500"
   enable-background="new 0 0 3680.4 500"
   xml:space="preserve"
   sodipodi:docname="Sky_Sports_Cricket_2025.svg"
   inkscape:version="1.2.2 (732a01da63, 2022-12-09)"
   xmlns:inkscape="http://www.inkscape.org/namespaces/inkscape"
   xmlns:sodipodi="http://sodipodi.sourceforge.net/DTD/sodipodi-0.dtd"
   xmlns="http://www.w3.org/2000/svg"
   xmlns:svg="http://www.w3.org/2000/svg"><defs
   id="defs2101"><linearGradient
     x1="-40.125431"
     y1="69.82682"
     x2="-40.125431"
     y2="290.33749"
     gradientUnits="userSpaceOnUse"
     id="color-4"
     gradientTransform="matrix(2.2675301,0,0,2.2674554,1657.2932,-158.32832)"><stop
       offset="0"
       stop-color="#fe0000"
       id="stop105" /><stop
       offset="0.55"
       stop-color="#fc0000"
       id="stop107" /><stop
       offset="0.7"
       stop-color="#f90000"
       id="stop109" /><stop
       offset="0.82"
       stop-color="#ee0000"
       id="stop111" /><stop
       offset="0.9"
       stop-color="#de0000"
       id="stop113" /><stop
       offset="1"
       stop-color="#c70000"
       id="stop115" /></linearGradient><linearGradient
     x1="-571.00555"
     y1="82.530502"
     x2="-571.00555"
     y2="277.68927"
     gradientUnits="userSpaceOnUse"
     id="color-3"
     gradientTransform="matrix(2.2680134,0,0,2.267454,1657.0208,-158.32831)"><stop
       offset="0"
       stop-color="#0f33d5"
       id="stop94" /><stop
       offset="0.275"
       stop-color="#0c2ac8"
       id="stop96" /><stop
       offset="0.55"
       stop-color="#081bb3"
       id="stop98" /><stop
       offset="0.82"
       stop-color="#03099b"
       id="stop100" /><stop
       offset="1"
       stop-color="#00008c"
       id="stop102" /></linearGradient></defs><sodipodi:namedview
   id="namedview2099"
   pagecolor="#505050"
   bordercolor="#ffffff"
   borderopacity="1"
   inkscape:showpageshadow="0"
   inkscape:pageopacity="0"
   inkscape:pagecheckerboard="1"
   inkscape:deskcolor="#505050"
   showgrid="false"
   inkscape:zoom="0.35593958"
   inkscape:cx="1800.8674"
   inkscape:cy="251.44717"
   inkscape:window-width="1920"
   inkscape:window-height="991"
   inkscape:window-x="-9"
   inkscape:window-y="-9"
   inkscape:window-maximized="1"
   inkscape:current-layer="g2095" />

<g
   id="Sky_Sports_Cricket_PRIMARY_RGB">
	<g
   id="g2017">
		<path
   id="Path_4_"
   fill="#FFFFFF"
   d="M3647.1,500H2296.7c-18.3,0-33.3-15-33.3-33.3V33.3c0-18.3,15-33.3,33.3-33.3h1350.4    c18.3,0,33.3,15,33.3,33.3v433.3C3680.4,485,3665.4,500,3647.1,500z" />
		<path
   id="Path_1_"
   fill="#002A91"
   d="M3647.1,10c12.8,0,23.3,10.5,23.3,23.3v433.3c0,12.8-10.5,23.3-23.3,23.3H2296.7    c-12.8,0-23.3-10.5-23.3-23.3V33.3c0-12.8,10.5-23.3,23.3-23.3H3647.1 M3647.1,0H2296.7c-18.3,0-33.3,15-33.3,33.3v433.3    c0,18.3,15,33.3,33.3,33.3h1350.4c18.3,0,33.3-15,33.3-33.3V33.3C3680.4,15,3665.4,0,3647.1,0L3647.1,0z" />
	</g>
	<g
   id="Group"
   transform="translate(126.316667, 4.333333)">
		<path
   fill="#002A91"
   d="M2303.3,247.7c0-58.3,42.9-101.2,99.2-101.2c26.2,0,50.8,7.5,67.9,15.4c2.9,18.3-2.9,25.8-10.8,25.8    c-14.2,0-26.2-11.7-55.8-11.7c-36.7,0-66.7,27.1-66.7,72.1c0,44.2,30,72.1,66.7,72.1c29.2,0,41.7-12.1,54.6-12.1    c8.8,0,14.6,7.9,12.1,25.8c-17.1,8.8-41.7,15.8-67.9,15.8C2346.2,349.8,2303.3,305.7,2303.3,247.7z"
   id="path2019" />
		<path
   fill="#002A91"
   d="M2628.3,164.8c0,13.3-5.8,16.2-19.6,16.2c-27.9,0-51.7,12.9-66.2,43.3v110.4c0,8.3-4.6,12.5-17.9,12.5    c-5.8,0-12.1-0.8-15.4-1.7V149.8c3.3-0.8,9.6-1.7,15.4-1.7c13.3,0,17.9,5,17.9,12.5v27.1c19.2-28.8,47.9-43.3,84.2-38.8    C2627,152.8,2628.3,159,2628.3,164.8z"
   id="path2021" />
		<path
   id="Shape"
   fill="#002A91"
   d="M2652.9,106.1c0-12.1,9.6-21.2,21.2-21.2c12.1,0,21.7,8.8,21.7,21.2c0,10.8-9.2,21.2-21.7,21.2    C2662.5,126.9,2652.9,116.9,2652.9,106.1z M2657.5,346.1v-185c0-7.9,4.6-12.5,17.9-12.5c5.8,0,11.7,0.8,15,1.7v184.6    c0,8.3-4.2,12.5-17.5,12.5C2667,347.8,2660.4,346.9,2657.5,346.1z" />
		<path
   fill="#002A91"
   d="M2730.8,247.7c0-58.3,42.9-101.2,99.2-101.2c26.2,0,50.8,7.5,67.9,15.4c2.9,18.3-2.9,25.8-10.8,25.8    c-14.2,0-26.2-11.7-55.8-11.7c-36.7,0-66.7,27.1-66.7,72.1c0,44.2,30,72.1,66.7,72.1c29.2,0,41.7-12.1,54.6-12.1    c8.8,0,14.6,7.9,12.1,25.8c-17.1,8.8-41.7,15.8-67.9,15.8C2773.3,349.8,2730.8,305.7,2730.8,247.7z"
   id="path2024" />
		<path
   fill="#002A91"
   d="M3103.3,340.7c-7.1,4.2-15.4,7.1-23.7,7.1c-9.6,0-15.8-2.9-24.2-10.4l-85.4-84.6v82.1    c0,8.3-4.6,12.5-17.9,12.5c-5.8,0-12.1-0.8-15.4-1.7V92.7c0-7.9,4.6-12.5,17.9-12.5c5.8,0,12.1,0.8,15.4,1.7V239l79.6-79.6    c7.5-7.5,14.2-10.4,23.8-10.4c8.3,0,16.2,2.5,24.2,7.1l-92.9,89.6L3103.3,340.7z"
   id="path2026" />
		<path
   fill="#002A91"
   d="M3294.5,260.2h-151.2c4.6,37.9,30.4,59.2,69.2,59.2c16.7,0,29.6-3.3,42.1-7.5c8.7-2.9,12.1-4.2,15.4-4.2    c9.2,0,15.4,7.9,13.8,25.8c-17.5,7.9-44.2,16.2-72.5,16.2c-60.8,0-102.1-41.2-102.1-102.1c0-58.8,43.3-100.8,96.7-100.8    c60.4,0,90,46.7,90,94.2C3295.8,246.1,3295.4,253.2,3294.5,260.2z M3143.3,234h120c-1.2-33.3-22.9-59.6-57.5-59.6    C3175.8,174.8,3148.7,195.2,3143.3,234z"
   id="path2028" />
		<path
   fill="#002A91"
   d="M3454.1,336.1c-17.1,8.3-36.7,13.3-56.2,13.3c-38.8,0-61.7-22.9-61.7-60.8V121.1c0-8.8,5-14.2,17.9-14.2    c5.8,0,12.1,1.2,15.4,2.1v42.5h76.2c0.4,2.9,1.2,8.8,1.2,13.3c0,11.7-5,15.8-12.1,15.8h-65v106.2c0,22.9,10.4,33.8,32.1,33.8    c19.6,0,30.4-8.8,40-8.8C3451.6,311.9,3456.2,319.8,3454.1,336.1z"
   id="path2030" />
	</g>
	<g
   id="g2095">
		
			<linearGradient
   id="Sky_Logo_2_"
   gradientUnits="userSpaceOnUse"
   x1="361.9724"
   y1="275.1942"
   x2="361.9724"
   y2="-167.3197"
   gradientTransform="matrix(1 0 0 -1 0 304)">
			<stop
   offset="0"
   style="stop-color:#002A91"
   id="stop2033" />
			<stop
   offset="0.8"
   style="stop-color:#002672"
   id="stop2035" />
		</linearGradient>
		
		
			<linearGradient
   id="s25_2_"
   gradientUnits="userSpaceOnUse"
   x1="365.5015"
   y1="40.6988"
   x2="359.6508"
   y2="208.2287"
   gradientTransform="matrix(1 0 0 -1 0 304)">
			<stop
   offset="0"
   style="stop-color:#FFFFFF"
   id="stop2039" />
			<stop
   offset="0.1203"
   style="stop-color:#FFFFFF;stop-opacity:0.8347"
   id="stop2041" />
			<stop
   offset="0.2693"
   style="stop-color:#FFFFFF;stop-opacity:0.6576"
   id="stop2043" />
			<stop
   offset="0.4195"
   style="stop-color:#FFFFFF;stop-opacity:0.5107"
   id="stop2045" />
			<stop
   offset="0.5684"
   style="stop-color:#FFFFFF;stop-opacity:0.3965"
   id="stop2047" />
			<stop
   offset="0.7156"
   style="stop-color:#FFFFFF;stop-opacity:0.3152"
   id="stop2049" />
			<stop
   offset="0.8603"
   style="stop-color:#FFFFFF;stop-opacity:0.2664"
   id="stop2051" />
			<stop
   offset="1"
   style="stop-color:#FFFFFF;stop-opacity:0.25"
   id="stop2053" />
		</linearGradient>
		
		
			<linearGradient
   id="Plinth_2_"
   gradientUnits="userSpaceOnUse"
   x1="1477.702"
   y1="22.2308"
   x2="1477.702"
   y2="41.4615"
   gradientTransform="matrix(79.7983 0 0 26 -116351.7422 -578)">
			<stop
   offset="0.4"
   style="stop-color:#FF0000"
   id="stop2057" />
			<stop
   offset="1"
   style="stop-color:#D42321"
   id="stop2059" />
		</linearGradient>
		
		
			<linearGradient
   id="p40_2_"
   gradientUnits="userSpaceOnUse"
   x1="1568.9945"
   y1="74.0394"
   x2="1560.2958"
   y2="323.1429"
   gradientTransform="matrix(1 0 0 -1 0 304)">
			<stop
   offset="0"
   style="stop-color:#FFFFFF"
   id="stop2063" />
			<stop
   offset="0.1203"
   style="stop-color:#FFFFFF;stop-opacity:0.8347"
   id="stop2065" />
			<stop
   offset="0.2693"
   style="stop-color:#FFFFFF;stop-opacity:0.6576"
   id="stop2067" />
			<stop
   offset="0.4195"
   style="stop-color:#FFFFFF;stop-opacity:0.5107"
   id="stop2069" />
			<stop
   offset="0.5684"
   style="stop-color:#FFFFFF;stop-opacity:0.3965"
   id="stop2071" />
			<stop
   offset="0.7156"
   style="stop-color:#FFFFFF;stop-opacity:0.3152"
   id="stop2073" />
			<stop
   offset="0.8603"
   style="stop-color:#FFFFFF;stop-opacity:0.2664"
   id="stop2075" />
			<stop
   offset="1"
   style="stop-color:#FFFFFF;stop-opacity:0.25"
   id="stop2077" />
		</linearGradient>
		
		<path
   d="m 499.7001,464.1996 c 10.5,4.59999 21.7999,7.09999 33.1998,7.09999 C 559,471.8996 573.2998,461.89961 583.8,438.49962 L 723.9,126.49987 c -9.1,-4.1 -19.0001,-6.4 -29,-6.69995 -18.1001,-0.40001 -42.3,3.3 -57.6,40.09992 L 592,266.79979 503,122.19988 c -9.7998,-2.60005 -19.9,-4 -29.9999,-4.19998 -31.5,0 -49,11.50005 -67.2001,31.29998 l -86.5,94.39988 69.5001,109.39994 c 12.8998,19.89997 29.7999,30.09995 57.2998,30.09995 13.6999,0.2 27.3001,-2.29998 40,-7.49998 L 402.3,249.69977 461.7,186.79984 559.1,339.49977 Z M 315.9998,346.2997 c 0,22.99999 -8.9997,36.2 -53.9998,36.2 -5.4001,0 -10.8,-0.40001 -16.0999,-1.09997 V 76.19999 C 245.9001,53.00001 253.8,28.8 299.0999,28.8 c 5.7,0 11.4,0.60001 16.8999,1.70001 z M 223.1,300.19975 c 0,42.99994 -28.1001,74.19996 -85.1,80.39995 -41.300095,4.39998 -101.100094,-0.8 -129.5000801,-3.99996 -1.00001,-4.90001 -1.60001,-9.90003 -1.70001,-14.99998 0,-37.39996 20.1999961,-45.99996 39.2000961,-45.99996 19.799799,0 50.899999,3.5 73.999904,3.5 25.49999,0 33.20009,-8.59995 33.20009,-16.89994 0,-10.70004 -10.1999,-15.19998 -29.9999,-19.00003 L 69.000005,272.79987 C 23.999956,264.19984 0,232.99988 0,199.99992 0,159.9 28.400006,126.39999 84.300005,120.19998 126.5998,115.6 178.1001,120.8 206.3001,124.19996 c 1,4.70001 1.4998,9.49999 1.4998,14.39994 0,37.39995 -19.7999,45.49993 -38.7998,45.49993 -14.6001,0 -37.3002,-2.7 -63.19999,-2.7 -26.300105,0 -37.300205,7.29998 -37.300205,16.10002 0,9.39995 10.4,13.20003 26.9,16.10001 L 147.1,223.19983 c 53.0998,9.70001 76,39.99998 76,76.9999 z"
   fill="url(#color-3)"
   id="path128"
   style="fill:url(#color-3);stroke-width:2.26772" /><path
   d="M 2333.8,33.30003 V 466.69999 C 2333.8,484.99997 2319.2474,500 2300.5,500 H 832.3 C 813.9999,500 799,485.00003 799,466.69999 V 33.30003 C 799,15.00006 813.9999,0 832.3,0 h 1467.7988 c 18.8067,0 33.7012,14.9324 33.7012,33.30003 z"
   fill="url(#color-4)"
   id="path130"
   style="fill:url(#color-4);stroke-width:2.26749" /><g
   transform="translate(46.366667, 4.116667)"
   id="g2093">
			<path
   fill="#FFFFFF"
   d="M848.4,355.2c-2.9-20.4,3.3-31.2,15.4-31.2c11.2,0,38.8,12.1,77.1,12.1c40.4,0,55.4-14.2,55.4-32.9     c0-13.3-5.8-25-42.1-35L912.5,257c-46.2-12.1-64.2-35.4-64.2-63.8c0-35.4,27.9-66.7,91.2-66.7c28.3,0,63.8,6.2,85.4,14.6     c3.8,20-2.5,30.8-14.6,30.8c-10.8,0-35.4-10.4-70-10.4c-37.5,0-51.2,12.9-51.2,29.6c0,11.7,5.4,22.5,38.8,32.1l42.5,11.7     c47.5,13.3,66.7,35.4,66.7,66.7c0,36.7-28.3,69.6-97.1,69.6C909.2,371.4,871.3,363.9,848.4,355.2z"
   id="path2081" />
			<path
   fill="#FFFFFF"
   d="M1320.6,248.9c0,77.1-54.2,122.5-113.3,122.5c-35.4,0-64.2-16.7-81.7-40.4v99.1c0,9.2-5.4,15.4-21.2,15.4     c-7.9,0-15.4-0.8-19.2-2.1V130.9c3.8-0.8,11.2-2.1,19.2-2.1c15.8,0,21.2,5.8,21.2,15.4v22.5c17.1-23.8,46.2-40.4,81.7-40.4     C1266.4,126.3,1320.6,172.1,1320.6,248.9z M1279.8,248.9c0-51.7-34.2-87.1-80.4-87.1c-31.2,0-60.4,18.3-73.8,44.6v85     c13.3,26.7,42.1,44.6,73.8,44.6C1245.6,336,1279.8,300.6,1279.8,248.9z"
   id="path2083" />
			<path
   fill="#FFFFFF"
   d="M1359.3,248.9c0-70,51.7-122.1,120.8-122.1c69.6,0,121.2,52.1,121.2,122.1c0,69.6-51.7,122.5-121.2,122.5     C1411,371.4,1359.3,318.5,1359.3,248.9z M1560.6,248.9c0-54.2-36.2-87.1-80.4-87.1c-43.8,0-80,32.9-80,87.1     c0,53.3,36.2,87.5,80,87.5C1524.3,336,1560.6,302.2,1560.6,248.9z"
   id="path2085" />
			<path
   fill="#FFFFFF"
   d="M1796.9,148.4c0,16.2-6.7,19.6-23.8,19.6c-33.8,0-62.5,15.8-80,52.5v132.9c0,10-5.4,15.4-21.7,15.4     c-6.7,0-14.6-0.8-18.8-2.1V130.9c3.8-0.8,11.7-2.1,18.8-2.1c16.2,0,21.7,5.8,21.7,15.4v32.9c22.9-35,57.9-52.5,101.7-46.7     C1795.3,133.8,1796.9,141.3,1796.9,148.4z"
   id="path2087" />
			<path
   fill="#FFFFFF"
   d="M1973.6,355.2c-20.4,10-44.2,16.2-67.9,16.2c-46.7,0-74.6-27.5-74.6-73.3V95.5c0-10.4,5.8-17.1,21.7-17.1     c6.7,0,14.6,1.7,18.8,2.5v51.2h91.7c0.4,3.3,1.7,10.4,1.7,16.2c0,14.2-5.8,19.2-14.6,19.2h-78.3v127.9     c0,27.5,12.9,40.8,38.8,40.8c23.8,0,36.7-10.4,47.9-10.4C1969.9,326,1976.1,335.6,1973.6,355.2z"
   id="path2089" />
			<path
   fill="#FFFFFF"
   d="M2001.5,355.2c-2.9-20.4,3.3-31.2,15.4-31.2c11.3,0,38.8,12.1,77.1,12.1c40.4,0,55.4-14.2,55.4-32.9     c0-13.3-5.8-25-42.1-35l-41.7-11.2c-46.2-12.1-64.2-35.4-64.2-63.8c0-35.4,27.9-66.7,91.3-66.7c28.3,0,63.7,6.2,85.4,14.6     c3.8,20-2.5,30.8-14.6,30.8c-10.8,0-35.4-10.4-70-10.4c-37.5,0-51.2,12.9-51.2,29.6c0,11.7,5.4,22.5,38.8,32.1l42.5,11.7     c47.5,13.3,66.7,35.4,66.7,66.7c0,36.7-28.3,69.6-97.1,69.6C2062.4,371.4,2024.4,363.9,2001.5,355.2z"
   id="path2091" />
		</g>
	</g>
</g>
</svg>
