<?xml version="1.0" encoding="UTF-8" standalone="no"?>
<!-- Generator: Adobe Illustrator 23.0.1, SVG Export Plug-In . SVG Version: 6.00 Build 0)  -->

<svg
   version="1.1"
   xml:space="preserve"
   viewBox="0 0 2057.5994 500"
   id="svg2247"
   xmlns:xlink="http://www.w3.org/1999/xlink"
   xmlns="http://www.w3.org/2000/svg"
   xmlns:svg="http://www.w3.org/2000/svg"><defs
     id="defs151"><linearGradient
       id="linearGradient13091"><stop
         style="stop-color:#00d670;stop-opacity:1"
         offset="0"
         id="stop13085" /><stop
         style="stop-color:#00ea81;stop-opacity:1"
         offset="0.51861942"
         id="stop13087" /><stop
         style="stop-color:#00fd8c;stop-opacity:1"
         offset="1"
         id="stop13089" /></linearGradient><linearGradient
       id="linearGradient287327"><stop
         style="stop-color:#00ff8d;stop-opacity:1"
         offset="0"
         id="stop287323" /><stop
         style="stop-color:#00ce72;stop-opacity:1"
         offset="0.61581039"
         id="stop287429" /><stop
         style="stop-color:#00b15e;stop-opacity:1"
         offset="1"
         id="stop287325" /></linearGradient><linearGradient
       id="path15297-4_1_-7"
       gradientUnits="userSpaceOnUse"
       x1="622.33038"
       y1="87.048302"
       x2="629.64069"
       y2="87.048302"
       gradientTransform="matrix(-0.79910392,-22.882699,-22.880849,0.79916854,2854.2867,14434.059)">
		<stop
   offset="0"
   style="stop-color:#FFFFFF;stop-opacity:0.675"
   id="stop138" />
		<stop
   offset="0.5"
   style="stop-color:#FFFFFF;stop-opacity:0.325"
   id="stop140" />
		<stop
   offset="1"
   style="stop-color:#FFFFFF;stop-opacity:0.2"
   id="stop142" />
	</linearGradient><linearGradient
       xlink:href="#linearGradient287327"
       id="linearGradient287329"
       x1="1033.9336"
       y1="249.55859"
       x2="1033.9336"
       y2="0"
       gradientUnits="userSpaceOnUse"
       gradientTransform="matrix(2.0035374,0,0,2.0035374,-13.926,0)" /><linearGradient
       id="path15555_2_-5"
       gradientUnits="userSpaceOnUse"
       x1="923.9538"
       y1="251.76109"
       x2="931.26422"
       y2="251.76109"
       gradientTransform="matrix(-1.1882,-34.0278,34.0278,-1.1882,-5540.6773,31956.326)"><stop
         offset="0"
         style="stop-color:#FFFFFF"
         id="stop12251" /><stop
         offset="0.20876893"
         style="stop-color:#ffffff;stop-opacity:0.733"
         id="stop1823" /><stop
         offset="0.41945863"
         style="stop-color:#ffffff;stop-opacity:0.51"
         id="stop1402" /><stop
         offset="0.56562042"
         style="stop-color:#ffffff;stop-opacity:0.4"
         id="stop1468" /><stop
         offset="1"
         style="stop-color:#FFFFFF;stop-opacity:0.176"
         id="stop12255" /></linearGradient><linearGradient
       xlink:href="#linearGradient13091"
       id="linearGradient2097"
       gradientUnits="userSpaceOnUse"
       gradientTransform="matrix(2.0040909,0,0,1.9999213,0,-0.04830922)"
       x1="180.50903"
       y1="14.349219"
       x2="180.55893"
       y2="235.56192" /><filter
       height="3.6427837"
       y="-1.3213919"
       width="1.8337295"
       x="-0.41686475"
       id="filter1021"
       style="color-interpolation-filters:sRGB"><feGaussianBlur
         id="feGaussianBlur1023"
         stdDeviation="24.661858" /></filter><filter
       height="3.1870544"
       y="-1.0935272"
       width="1.5428944"
       x="-0.27144721"
       id="filter29199"
       style="color-interpolation-filters:sRGB"><feGaussianBlur
         id="feGaussianBlur29197"
         stdDeviation="16.491447" /></filter><filter
       style="color-interpolation-filters:sRGB"
       id="filter2628"
       x="-0.060309049"
       y="-0.2296897"
       width="1.1206181"
       height="1.4593794"><feGaussianBlur
         stdDeviation="3.6640034"
         id="feGaussianBlur2630" /></filter><filter
       style="color-interpolation-filters:sRGB"
       id="filter2638"
       x="-0.018780038"
       y="-0.07351003"
       width="1.0375601"
       height="1.1470201"><feGaussianBlur
         stdDeviation="1.1259314"
         id="feGaussianBlur2640" /></filter><filter
       height="4.7432802"
       y="-1.8716401"
       width="1.8903588"
       x="-0.4451794"
       id="filter4471"
       style="color-interpolation-filters:sRGB"><feGaussianBlur
         id="feGaussianBlur4469"
         stdDeviation="27.168649" /></filter><filter
       height="2.7587806"
       y="-0.87939032"
       width="2.0648312"
       x="-0.53241558"
       id="filter4982"
       style="color-interpolation-filters:sRGB"><feGaussianBlur
         id="feGaussianBlur4980"
         stdDeviation="23.699459" /></filter><filter
       height="2.8716076"
       y="-0.93580382"
       width="2.5764125"
       x="-0.78820626"
       id="filter5304"
       style="color-interpolation-filters:sRGB"><feGaussianBlur
         id="feGaussianBlur5302"
         stdDeviation="62.595299" /></filter><filter
       height="1.9655456"
       y="-0.48277278"
       width="1.2953216"
       x="-0.1476608"
       id="filter5941"
       style="color-interpolation-filters:sRGB"><feGaussianBlur
         id="feGaussianBlur5939"
         stdDeviation="9.4491534" /></filter><filter
       height="2.900042"
       y="-0.950021"
       width="1.8994937"
       x="-0.44974685"
       id="filter9134"
       style="color-interpolation-filters:sRGB"><feGaussianBlur
         id="feGaussianBlur9132"
         stdDeviation="29.694723" /></filter><linearGradient
       xlink:href="#linearGradient13091"
       id="linearGradient11039"
       gradientUnits="userSpaceOnUse"
       gradientTransform="matrix(2.0040909,0,0,1.9999213,0,-0.04830922)"
       x1="180.50903"
       y1="14.349219"
       x2="180.55893"
       y2="235.56192" /></defs><path
     style="fill:#000000"
     d="M 831.88455,0 C 813.50982,2.0035374e-5 798.6697,14.916825 798.6697,33.28125 V 466.71484 C 798.6697,485.07927 813.55981,500 831.88455,500 H 2024.3845 c 18.3248,0 33.2149,-14.92073 33.2149,-33.28516 V 33.28125 C 2057.5994,14.866737 2042.7093,0 2024.3845,0 Z"
     id="path11494" /><path
     id="path1692_1_"
     d="m 499.53995,463.83188 c 5.99929,2.99987 18.13738,6.4828 33.13557,7.08277 26.19686,0.59998 40.45559,-9.28268 51.05431,-32.68176 l 85.76991,-191.08542 c 18.10216,-40.32943 35.57349,-79.01611 54.30873,-120.99355 -5.79929,-2.99988 -18.67873,-6.36938 -29.07749,-6.76936 -17.99784,-0.39999 -42.20942,3.46073 -57.60757,40.25928 L 591.77853,266.20332 502.93955,121.735 c -5.79931,-1.59994 -19.79763,-4.28949 -29.99641,-4.28949 -31.07243,0 -49.17715,11.56927 -67.37495,31.36849 l -86.44972,94.39 69.43497,109.03227 c 12.99845,19.99921 29.66686,30.39873 57.06356,30.39873 18.19783,0 33.6488,-4.07013 40.448,-7.47 l -83.7651,-126.03662 59.30907,-62.81783 c 13.56288,21.46783 27.21894,42.81452 40.89052,64.14104 l 56.38814,88.42469 z M 315.862,345.83652 c -0.007,22.9991 -8.79842,36.19858 -53.793,36.19858 -5.99929,0 -11.29915,-0.39999 -16.29854,-1.19996 V 76.047134 c 0,-23.199086 7.67975,-47.657737 53.19361,-47.498098 5.79925,0.02034 11.79858,0.599976 16.99795,1.799928 z m -92.68882,-45.99819 c 0,42.99831 -28.09703,74.2969 -85.09018,80.29667 -41.39502,4.39982 -101.087446,-0.6998 -129.684009,-4.09967 -0.99988,-4.59982 -1.599808,-10.1996 -1.599808,-14.99941 0,-37.39853 20.197572,-45.99819 39.195287,-45.99819 19.797621,0 50.99387,3.59986 73.99111,3.59986 24.63791,0 33.196,-8.59966 33.196,-16.79934 0,-10.79958 -10.19877,-15.2996 -29.9964,-19.09945 L 68.692,272.339 C 23.697409,263.33935 0,232.64098 0,199.64227 c 0,-39.68994 27.913907,-73.67755 84.389856,-79.79685 42.194924,-4.59983 93.788734,0.59997 121.985334,3.99983 0.99987,4.79981 1.5998,9.39964 1.5998,14.39944 0,37.39853 -19.59763,45.44831 -38.79532,45.44831 -14.59825,0 -37.3955,-2.65 -63.19241,-2.65 -26.396827,0 -37.32526,7.39971 -37.32526,16.19936 0,9.39964 10.828995,13.44974 27.427,16.04964 l 51.0933,9.54936 c 53.73018,9.93582 75.99088,39.99842 75.99088,76.99697"
     style="fill:url(#linearGradient11039)" /><path
     id="path15297-4_2_"
     opacity="0.5"
     d="M 245.77046,76.047134 V 285.03891 c 0,-9.59962 7.59908,-17.39932 17.19792,-17.59931 v 0 c 7.59909,-0.19998 28.79655,-0.99996 35.19576,-1.19995 v 0 c 6.99918,-0.19999 17.59789,-4.99981 17.79788,-17.7993 v 0 V 30.448928 C 310.3627,29.248976 304.76336,28.649 298.96407,28.649 v 0 c -45.55419,-0.199107 -53.19361,23.999055 -53.19361,47.398134 m 159.79773,72.766866 -86.44972,94.39 6.98574,10.92476 c 2.99964,3.99984 8.85466,10.61054 20.45329,10.21055 v 0 c 4.19949,-0.19999 45.84092,-1.34515 49.24052,-1.54514 v 0 c 10.7987,-0.39998 17.78263,4.01567 21.98213,9.61545 v 0 l -15.48029,-23.28123 59.30911,-62.81784 39.92479,62.63451 v 0 c 7.19913,9.39964 18.00375,9.4949 20.40345,9.4949 v 0 c 1.99977,0 54.39347,-1.79993 56.5932,-1.99993 v 0 c 3.59957,-0.19999 8.03997,1.89725 11.23959,6.49706 v 0 L 502.93955,121.735 c -5.79931,-1.79994 -19.79763,-4.28949 -29.99641,-4.28949 v 0 c -31.09674,0.086 -49.17715,11.56927 -67.37495,31.36849 M 84.389856,119.64542 C 28.386579,126.00492 0,159.24386 0,199.44228 v 0 c 0,20.59919 9.122092,40.39841 27.119927,54.59785 v 0 c 13.598366,8.99965 27.873463,12.59996 41.671802,14.99987 v 0 c 11.398631,1.99992 37.995431,3.79892 57.793051,2.99895 v 0 c 6.19926,-0.19999 51.79378,-1.79993 61.5926,-2.19991 v 0 c 23.19721,-0.79996 35.72537,19.18872 34.52553,38.98794 v 0 -0.79997 0 -0.19999 0 c 0.20001,-2.5999 0.47027,-5.38879 0.47027,-7.98869 v 0 c 0,-36.99854 -22.15855,-67.24225 -75.99088,-77.19696 v 0 L 96.089,213.292 C 79.447217,210.63805 68.662,206.64199 68.662,197.24236 v 0 c 0,-8.79965 11.128409,-16.19936 37.32526,-16.19936 v 0 c 25.99688,0 48.59416,2.65 63.19241,2.65 v 0 c 18.99771,0 38.79532,-8.44977 38.79532,-45.8483 v 0 c 0,-4.79981 -0.59993,-9.19964 -1.5998,-13.99945 v 0 c -20.19757,-2.19992 -52.59367,-6.19976 -84.78981,-6.19976 v 0 c -12.59849,0.39999 -25.19696,0.99997 -37.195524,1.99993 m 552.733554,39.99847 -44.78485,105.23905 v 0 c 0,0 3.18985,-9.06747 11.78882,-9.46746 v 0 c 0,0 43.59475,-1.59993 46.79438,-1.59993 v 0 c 14.46105,-0.41229 19.96207,-10.08165 21.56187,-13.28152 v 0 l 51.32484,-114.38011 c -5.79929,-2.99989 -18.89321,-6.57517 -29.29196,-6.77516 l -2.19972,-0.0242 c -17.79789,0.19999 -40.39516,4.89066 -55.19338,40.28928"
     style="fill:url(#path15297-4_1_-7)" /><path
     id="path15971"
     d="M 831.88455,0 C 813.50982,2.0035374e-5 798.6697,14.916825 798.6697,33.28125 V 466.71484 C 798.6697,485.07927 813.55981,500 831.88455,500 H 2024.3845 c 18.3248,0 33.2149,-14.92073 33.2149,-33.28516 V 33.28125 C 2057.5994,14.866737 2042.7093,0 2024.3845,0 Z m 0.008,9.9824219 h 2.83594 l 1186.66991,0.099609 h 2.836 c 11.8484,0.217621 23.2613,9.081205 23.1953,24.820313 v 3 424.244136 3 c 0.066,15.73911 -11.3469,24.6027 -23.1953,24.82032 h -2.836 L 834.72849,489.8672 h -2.83594 c -11.8484,-0.21762 -23.26131,-9.08121 -23.19531,-24.82031 v -3 -424.244146 -3 c -0.066,-15.73911 11.34691,-24.602692 23.19531,-24.8203122 z"
     style="fill:url(#linearGradient287329)" /><g
     id="g5122"
     style="display:inline"
     transform="matrix(0.97903075,0,0,1.0071318,30.708347,-1.7917559)"><path
       d="m 1584.2639,148.66769 c -23.6344,8.64051 -66.0267,6.44001 -81.955,25.92154 -20.9697,25.64763 -31.5465,62.33936 -28.2087,95.2998 1.5985,15.78579 17.055,24.3635 31.9556,29.81494 4.4718,1.63604 87.003,-50.86228 92.0294,-44.24948 l 10.5614,13.89497 9.2065,36.88735 c 0,0 24.9026,-4.35596 32.4855,-8.2264 12.0137,-6.13199 8.1787,-18.29009 12.1805,-31.17097 7.7102,-24.81722 -14.8666,-83.38025 -26.6839,-102.16139 -6.1358,-9.75143 -38.8061,-25.58432 -51.5713,-16.01036 z"
       id="path5278"
       style="display:inline;opacity:0.370874;fill:#02e313;fill-opacity:1;stroke:none;stroke-width:0.0986578px;stroke-linecap:butt;stroke-linejoin:miter;stroke-opacity:1;filter:url(#filter5304)"
       transform="matrix(1.1359032,0,0,0.79306173,-213.25984,46.606355)" /><path
       d="m 1462.2795,337.62186 111.9734,-4.82225 v 43.10244 l -16.8993,10.08641 -13.6,5.01534 -76.0125,6.47551 z"
       id="path4978"
       style="display:inline;opacity:0.205825;fill:#02e313;fill-opacity:1;stroke:none;stroke-width:0.0986578px;stroke-linecap:butt;stroke-linejoin:miter;stroke-opacity:1;filter:url(#filter4982)"
       transform="matrix(1.1348849,0,0,1.2807089,-210.75339,-145.8966)" /><path
       d="m 1467.4215,332.18481 51.7852,37.77846 55.0462,-37.16366 -19.2711,68.72081 -52.4286,-3.84017 -14.7846,-23.81357 -20.1497,-1.35394 z"
       id="path5124"
       style="display:inline;opacity:0.141748;fill:#02e313;fill-opacity:1;stroke:none;stroke-width:0.0986578px;stroke-linecap:butt;stroke-linejoin:miter;stroke-opacity:1;filter:url(#filter4982)"
       transform="matrix(1.1739857,0,0,1.4128494,-215.42899,-193.98476)" /><path
       d="m 1467.4215,332.18481 106.8314,0.6148 v 65.29451 l -106.5118,-0.61481 z"
       id="path5126"
       style="display:inline;opacity:0.163107;fill:#02e313;fill-opacity:1;stroke:none;stroke-width:0.0986578px;stroke-linecap:butt;stroke-linejoin:miter;stroke-opacity:1;filter:url(#filter4982)"
       transform="matrix(1.2703868,0,0,1.2414064,-419.52008,-270.44599)" /><path
       d="m 1467.4215,332.18481 106.8314,0.6148 v 65.29451 l -106.5118,-0.61481 z"
       id="path5128"
       style="display:inline;opacity:0.163107;fill:#02e313;fill-opacity:1;stroke:none;stroke-width:0.0986578px;stroke-linecap:butt;stroke-linejoin:miter;stroke-opacity:1;filter:url(#filter4982)"
       transform="matrix(1.3066846,0,0,1.1427446,-367.99223,-221.22424)" /><path
       d="m 1467.4215,332.18481 106.8314,0.6148 -19.2711,68.72081 -52.4286,-3.84017 -14.7846,-23.81357 -20.1497,-1.35394 z"
       id="path7845"
       style="display:inline;opacity:0.163107;fill:#02e313;fill-opacity:1;stroke:none;stroke-width:0.0986578px;stroke-linecap:butt;stroke-linejoin:miter;stroke-opacity:1;filter:url(#filter4982)"
       transform="matrix(1.235288,0,0,1.2243169,-253.06876,-126.28404)" /><path
       d="m 1467.4215,332.18481 106.8314,0.6148 -19.2711,68.72081 -52.4286,-3.84017 -14.7846,-23.81357 -20.1497,-1.35394 z"
       id="path7847"
       style="display:inline;opacity:0.0815534;fill:#02e313;fill-opacity:1;stroke:none;stroke-width:0.0986578px;stroke-linecap:butt;stroke-linejoin:miter;stroke-opacity:1;filter:url(#filter4982)"
       transform="matrix(1.235288,0,0,1.2243169,-181.09298,-183.63058)" /></g><g
     id="g5300"><path
       id="path4467"
       transform="matrix(1.3480384,0,0,1.0288095,-546.87486,-4.794792)"
       d="m 1486.5484,215.04061 c 52.2193,42.62897 103.5235,37.30207 154.2804,3.2842 -57.2007,19.86998 -49.8586,44.19101 4.1806,71.73239 -52.7273,-31.72054 -105.4546,-44.12589 -158.1819,-12.74358 43.5024,-20.75767 30.4228,-41.51534 -0.2791,-62.27301 z"
       style="opacity:0.6;fill:#02e313;filter:url(#filter9134)" /><path
       d="m 1492.0405,230.15265 134.5089,7.60192 7.4759,37.19059 -65.1455,-23.64928 13.3115,0.15975 -29.3184,1.28429 -56.1597,11.62053 z"
       id="path9130"
       style="fill:#02e313;filter:url(#filter1021)"
       transform="matrix(1.1973821,0,0,0.91383018,-311.39418,24.243119)" /><path
       d="m 1492.0405,230.15265 h 145.8091 l -2.2848,27.20614 -3.6222,8.98818 -21.7748,-7.28059 -41.9858,-23.73687 -33.3376,27.5589 -33.3443,1.73972 z"
       id="path29195"
       style="opacity:0.933981;fill:#00e110;fill-opacity:1;filter:url(#filter29199)"
       transform="matrix(1.267812,0,0,1.4219613,-420.80605,-107.37372)" /><path
       d="m 1492.0405,230.15265 h 145.8091 l -1.9199,34.8383 -67.0499,-13.69507 13.3115,0.15975 -29.3184,1.28429 -38.0825,4.43507 -14.0985,-3.83373 -9.3108,7.09368 5.9002,-14.05215 z"
       id="path2642"
       style="fill:#00e110;filter:url(#filter4471)"
       transform="matrix(1.1032638,0,0,0.9525984,-170.42184,41.070389)" /><path
       d="m 1492.0405,230.15265 c 51.0422,-3.34702 100.1135,-3.51107 145.8091,0 l 2.0403,39.48726 c -32.9139,-3.73312 -54.9101,2.30485 -77.0799,3.07929 -17.0775,0.59654 -34.1083,-3.8872 -55.0564,-6.82577 l -21.4452,8.66148 7.8425,-16.55076 z"
       id="path3911"
       style="opacity:0.621359;fill:#00ed11;filter:url(#filter5941)"
       transform="matrix(1.10598,0,0,1.4370764,-167.06957,-109.97866)" /><path
       id="rect20846"
       d="m 1492.0405,229.92299 h 145.8091 v 38.28473 h -145.8091 z"
       style="fill:#d7efdf;filter:url(#filter2628)"
       transform="matrix(1.0218272,0,0,1.0737575,-33.87854,-18.628251)" /><path
       id="path6978"
       d="m 1493.0007,230.68531 h 143.8887 v 36.76009 h -143.8887 z"
       style="opacity:0.541748;fill:#b2f7bb;filter:url(#filter2638)"
       transform="matrix(0.99012072,0,0,0.9864498,15.559832,3.1170117)" /><path
       id="path2632"
       d="m 1493.0007,230.68531 h 143.8887 v 36.76009 h -143.8887 z"
       style="fill:#ebfdf5;filter:url(#filter2638)"
       transform="matrix(0.99012072,0,0,0.9864498,15.559832,3.1170117)" /></g><g
     id="g2597"
     style="fill:url(#linearGradient2097)"><path
       id="path7615_1_"
       d="m 902.4795,157.19727 c -0.66097,1.00221 -1.2724,1.97187 -1.875,2.91211 -5.88031,9.73466 -8.50511,20.74254 -8.50511,32.17382 0,3.70405 0.29842,7.52027 0.91406,11.0378 2.57124,14.84649 10.6866,27.57994 25.86655,37.94137 12.83284,8.48881 24.99202,13.15857 40.769,17.32552 l 42.0717,11.36711 c 37.5375,10.35166 43.4275,22.3789 43.4275,36.04305 0,11.9943 -6.113,22.0903 -20.7219,28.09711 -8.8296,3.52818 -20.7072,5.71567 -36.1446,5.71567 -39.93822,0 -68.33273,-12.70883 -79.71416,-12.70883 -11.08377,0 -17.53663,8.51914 -16.70508,25.00542 0.12901,2.75967 0.30138,5.58989 0.77554,7.58234 19.25365,7.5101 55.53112,16.2335 94.0055,16.73824 21.4766,0 40.2173,-3.12825 54.6725,-8.925 32.3927,-12.67929 46.012,-37.00142 46.012,-63.09671 0,-32.27159 -19.106,-54.94141 -68.234,-68.88672 L 975.29068,223.479 C 940.73262,214.16988 934.205,202.62739 934.205,190.62895 c 0,-14.2869 9.09608,-25.65801 33.496,-29.43795 6.11854,-0.93381 12.35489,-1.27856 18.666,-1.24953 36.2804,-0.26171 61.8289,10.51961 72.7602,10.51961 0.8051,0 1.8164,-0.0179 2.5697,-0.10738 11.7534,-1.60316 16.4842,-12.14543 12.9415,-31.82023 -21.7282,-8.6885 -58.379,-15.13691 -87.9706,-15.13691 -16.53441,-0.0523 -31.95085,1.75054 -45.69229,6.46718 -15.83658,5.43578 -29.51509,14.35725 -38.49601,27.33353 z" /><path
       id="path15125_1_"
       d="m 1123.835,249.88347 c 0,-72.8391 53.2192,-126.58647 123.709,-126.58647 32.8676,0 63.4114,9.43862 84.703,19.192 3.5333,22.58312 -3.3322,32.07592 -13.668,32.07592 -17.5707,0 -32.9935,-14.75985 -69.582,-14.75985 -45.2018,0 -83.1989,33.89376 -83.1989,89.55593 0,55.40749 37.6221,90.056 83.0994,90.056 36.5885,0 52.0854,-15.36987 68.0021,-15.2569 10.8766,0.0771 17.94,8.75864 15.4574,32.20755 -19.7381,10.25644 -50.6419,19.87951 -83.5095,19.87951 -70.0764,1.45265 -125.0125,-53.73209 -125.0125,-126.36369" /><path
       id="path19513"
       d="m 1412.6193,58.345201 c -12.8487,-0.09849 -23.289,10.365872 -23.1906,23.244165 0,12.02893 10.6963,23.248074 23.1906,23.248074 12.8595,-0.0503 23.3409,-10.362054 23.6317,-23.248074 0,-13.456949 -10.2607,-23.244165 -23.6317,-23.244165 z m 1.5305,67.482429 c -16.7665,0 -22.3513,6.08763 -22.3513,15.70742 v 230.36804 l -0.039,0.0275 c 6.3495,1.34409 12.8201,2.00357 19.3098,2.02841 16.6918,0 21.7774,-5.5044 21.7774,-15.68573 V 127.8116 c -6.1458,-1.3185 -12.4116,-1.98361 -18.6969,-1.98397 z" /><path
       d="M 1752.6049,136.15206 V 150.937 h 82.6192 c 0.8734,5.5186 1.3884,11.33733 1.5409,16.92224 0,14.6274 -5.6663,19.72349 -15.3197,19.72352 l -68.8404,2.2e-4 -0.1,169.47949 c -0.01,10.12763 -5.566,15.78125 -22.2636,15.78125 -6.4438,-0.0206 -13.1682,-0.70621 -19.4703,-2.04545 l 0.1,-183.21525 -36.5027,3.9e-4 c -0.9367,-5.48554 -1.4519,-11.13496 -1.5407,-16.69882 0,-14.62741 6.0633,-19.96741 15.1452,-19.94759 h 22.8982 v -11.54032 c 0,-55.980635 34.2896,-82.660744 79.2516,-82.660744 21.22,0 46.0966,5.110599 59.7752,10.676448 0.7504,3.464288 1.0797,6.805557 0.9816,10.348429 0,15.681034 -6.5599,22.119251 -14.6602,22.119251 -6.5472,0 -21.059,-6.648 -43.7451,-6.648 -24.4758,0 -39.8692,12.190076 -39.8692,42.919996"
       id="path19507" /><path
       id="path20323"
       d="m 1919.9713,58.34569 c -12.8376,-0.09849 -23.2691,10.365872 -23.1706,23.244165 0,12.02893 10.687,23.218145 23.1706,23.218145 12.8483,-0.0503 23.3207,-10.332125 23.6113,-23.218145 0,-13.456949 -10.2518,-23.244165 -23.6113,-23.244165 z m 1.5291,67.48243 c -16.752,0 -22.3319,6.08763 -22.3319,15.70742 v 230.33855 l -0.039,0.0275 c 6.3439,1.34409 12.809,2.03347 19.2932,2.05831 16.6772,0 21.7585,-5.50481 21.7585,-15.68614 V 127.81209 c -6.1405,-1.3185 -12.401,-1.98361 -18.6808,-1.98397 z" /></g><path
     id="path15555_2_"
     opacity="0.34"
     d="m 832.03689,0 c -16.08586,0 -29.5712,11.33954 -32.70117,26.648438 -0.43267,2.144258 -0.66602,4.361363 -0.66602,6.632812 v 240.2207 c 0.0254,-3.84982 1.57413,-23.28187 23.97071,-25.46679 1.13425,-0.20885 2.26465,-0.17578 3.19726,-0.19922 402.32313,-14.08874 802.43903,-28.03258 1204.76163,-42.13188 12.5951,-0.40071 27.0001,-9.93389 27.0001,-25.56148 V 33.28125 c 0,-0.08568 -0.025,-0.164473 -0.025,-0.25 C 2057.2505,14.706843 2042.3268,0 2024.2107,0 Z"
     style="fill:url(#path15555_2_-5)" /></svg>
