<?xml version="1.0" encoding="utf-8"?>
<!-- Generator: Adobe Illustrator 23.0.1, SVG Export Plug-In . SVG Version: 6.00 Build 0)  -->
<svg version="1.1" id="Livello_1" xmlns="http://www.w3.org/2000/svg" xmlns:xlink="http://www.w3.org/1999/xlink" x="0px" y="0px"
	 viewBox="0 0 3021.379 500" enable-background="new 0 0 3021.379 500" xml:space="preserve">
<g>
	<g>
		<path fill="#091BB6" d="M2988.092,0h-910.177c-18.416,0-33.333,14.919-33.333,33.288v433.426
			c0,18.368,14.917,33.286,33.333,33.286h910.177c18.416,0,33.287-14.917,33.287-33.286V33.288
			C3021.379,14.919,3006.508,0,2988.092,0 M2988.092,9.99c12.845,0,23.296,10.454,23.296,23.298v433.426
			c0,12.845-10.451,23.296-23.296,23.296h-910.177c-12.891,0-23.342-10.451-23.342-23.296V33.288
			c0-12.845,10.451-23.298,23.342-23.298H2988.092"/>
		<path fill="#FFFFFF" d="M2988.092,9.99c12.845,0,23.296,10.454,23.296,23.298v433.426c0,12.845-10.451,23.296-23.296,23.296
			h-910.177c-12.891,0-23.342-10.451-23.342-23.296V33.288c0-12.845,10.451-23.298,23.342-23.298H2988.092z"/>
		<g>
			<path fill="#091BB6" d="M2661.327,292.924v-36.787c-55.617-2.439-103.868,3.684-103.868,38.445
				c0,17.172,14.733,32.274,39.688,32.274C2622.469,326.856,2646.18,312.997,2661.327,292.924 M2692.406,225.473v124.31
				c-3.27,0.784-8.978,1.613-14.319,1.613c-11.465,0-16.345-4.097-16.345-11.833V324.83h-0.415
				c-14.733,15.149-37.615,29.051-68.278,29.051c-43.324,0-67.081-28.635-67.081-60.128c0-46.226,49.909-67.864,135.359-62.154
				v-4.881c0-30.664-9.806-47.423-47.422-47.423c-20.028,0-36.787,4.052-48.251,7.32c-5.709,1.658-10.22,2.903-13.49,2.903
				c-8.609,0-13.904-8.61-11.878-24.956c18.416-7.365,47.054-13.904,74.448-13.904
				C2671.549,150.658,2692.406,179.295,2692.406,225.473"/>
			<path fill="#091BB6" d="M2209.817,352.223V156.921c3.268-0.784,9.852-1.613,15.561-1.613c13.122,0,17.174,4.881,17.174,13.491
				v11.462c13.12-16.388,31.538-27.441,55.294-27.441c26.197,0,46.271,12.294,57.32,33.612
				c12.246-16.804,32.32-33.612,61.419-33.612c44.198,0,66.298,31.538,66.298,71.272v117.08c0,8.197-4.098,12.707-17.588,12.707
				c-5.755,0-12.293-0.829-15.561-1.658V228.146c0-28.638-13.49-45.442-39.319-45.442c-21.686,0-39.687,15.191-47.468,30.754
				v127.716c0,8.197-4.097,12.707-17.633,12.707c-5.71,0-12.248-0.829-15.562-1.658V228.146c0-28.638-15.93-45.442-39.272-45.442
				c-21.685,0-40.148,15.191-47.514,30.754v127.716c0,8.197-4.097,12.707-17.587,12.707
				C2219.669,353.881,2213.085,353.052,2209.817,352.223"/>
			<path fill="#091BB6" d="M2834.396,250.273l66.896-92.449l-4.649-1.748c-2.348-0.874-5.065-1.613-8.287-2.164
				c-3.177-0.599-6.078-0.877-8.703-0.877c-8.839,0-15.193,3.041-18.691,8.748l-45.167,62.201l-44.152-62.429
				c-3.684-5.665-10.129-8.52-19.2-8.52c-2.9,0-6.031,0.371-9.391,1.107c-3.223,0.688-6.032,1.472-8.333,2.346l-4.558,1.703
				l65.7,93.278l-70.581,97.193l4.651,1.751c2.256,0.874,4.835,1.658,7.597,2.346c2.947,0.736,5.984,1.104,8.932,1.104
				c9.07,0,15.515-2.852,19.152-8.47l47.652-70.581l48.803,70.533c3.684,5.665,10.222,8.517,19.383,8.517
				c2.948,0,6.169-0.368,9.53-1.057c3.27-0.736,6.125-1.52,8.426-2.394l4.649-1.706L2834.396,250.273z"/>
		</g>
	</g>
	<g>
		
			<linearGradient id="SVGID_1_" gradientUnits="userSpaceOnUse" x1="1504.2084" y1="-1331.3923" x2="1504.2084" y2="-1874.3507" gradientTransform="matrix(1 0 0 -1 -47.5 -1306.2673)">
			<stop  offset="0.2" style="stop-color:#FE0000"/>
			<stop  offset="0.53" style="stop-color:#FA0000"/>
			<stop  offset="0.6" style="stop-color:#F90000"/>
			<stop  offset="0.67" style="stop-color:#F30000"/>
			<stop  offset="0.76" style="stop-color:#E50000"/>
			<stop  offset="0.85" style="stop-color:#CC0000"/>
			<stop  offset="0.95" style="stop-color:#AC0000"/>
		</linearGradient>
		<path fill="url(#SVGID_1_)" d="M831.917,0H2081.5c18.409,0,33.333,14.924,33.333,33.333v433.333
			c0,18.41-14.924,33.333-33.333,33.333H831.917c-18.409,0-33.333-14.924-33.333-33.333V33.333C798.583,14.924,813.507,0,831.917,0z
			"/>
		<g>
			<path fill="#FFFFFF" d="M894.5,359.25c-2.958-20.625,3.417-31.417,15.208-31.417c11.792,0,38.792,12.292,77.042,12.292
				c40.25,0,55.458-14.25,55.458-32.875c0-13.25-5.875-25.042-42.208-34.833l-41.708-11.292
				C912.167,248.875,894,225.792,894,197.333c0-35.333,27.958-66.75,91.292-66.75c28.458,0,63.792,6.375,85.417,14.708
				c3.917,20.125-2.458,30.917-14.708,30.917c-10.792,0-35.333-10.292-70.167-10.292c-37.292,0-51.042,12.75-51.042,29.458
				c0,11.792,5.417,22.583,38.792,31.917l42.708,11.792c47.625,13.25,66.75,35.333,66.75,66.75
				c0,36.792-28.458,69.708-97.167,69.708c-30.417,0-68.208-7.375-91.292-16.208L894.5,359.25z"/>
			<path fill="#FFFFFF" d="M1365.708,252.75c0,77.042-54,122.708-113.375,122.708c-35.333,0-64.292-16.667-81.458-40.25v99.125
				c0,9.333-5.375,15.208-21.083,15.208c-7.833,0-15.208-1-19.125-1.958V134.958c3.917-1,11.292-1.958,19.125-1.958
				c15.708,0,21.083,5.875,21.083,15.208v22.583c17.167-23.542,46.125-40.25,81.458-40.25
				C1311.708,130.542,1365.708,176.208,1365.708,252.75z M1325,252.75c0-51.542-34.375-86.875-80.5-86.875
				c-31.417,0-60.375,18.167-73.625,44.667v84.917c13.25,26.5,42.208,44.667,73.625,44.667
				C1290.625,340.125,1325,304.792,1325,252.75z"/>
			<path fill="#FFFFFF" d="M1403.417,252.75c0-70.208,51.542-122.208,120.75-122.208s121.25,52.042,121.25,122.208
				s-51.542,122.708-121.25,122.708S1403.417,322.458,1403.417,252.75z M1604.667,252.75c0-54-36.333-86.875-80.5-86.875
				c-44.167,0-80,32.875-80,86.875s36.333,87.375,80,87.375S1604.667,306.25,1604.667,252.75z"/>
			<path fill="#FFFFFF" d="M1840,152.625c0,16.208-6.875,19.625-23.542,19.625c-33.875,0-62.333,15.708-80,52.5v133
				c0,9.833-5.417,15.208-21.583,15.208c-6.875,0-14.708-1-18.667-1.958V134.917c3.917-1,11.792-1.958,18.667-1.958
				c16.208,0,21.583,5.875,21.583,15.208v32.875c23.083-34.833,57.917-52.5,101.583-46.625c0.5,3.417,1.958,10.792,1.958,18.167
				V152.625z"/>
			<path fill="#FFFFFF" d="M2016.5,359.25c-20.625,9.833-44.167,16.208-67.75,16.208c-46.625,0-74.625-27.5-74.625-73.125V99.625
				c0-10.292,5.875-17.167,21.583-17.167c6.875,0,14.708,1.458,18.667,2.458v51.042h91.792c0.5,3.417,1.458,10.292,1.458,16.208
				c0,14.25-5.875,19.125-14.708,19.125h-78.542v128.125c0,27.5,12.75,40.75,38.792,40.75c23.542,0,36.792-10.292,48.083-10.292
				c11.292,0,17.667,9.833,15.208,29.458L2016.5,359.25z"/>
		</g>
		
			<linearGradient id="SVGID_2_" gradientUnits="userSpaceOnUse" x1="409.375" y1="-1341.309" x2="409.375" y2="-1776.8923" gradientTransform="matrix(1 0 0 -1 -47.5 -1306.2673)">
			<stop  offset="0.05" style="stop-color:#0F33D5"/>
			<stop  offset="0.29" style="stop-color:#0C28C7"/>
			<stop  offset="0.74" style="stop-color:#040EA2"/>
			<stop  offset="0.95" style="stop-color:#00008F"/>
		</linearGradient>
		<path fill="url(#SVGID_2_)" d="M499.542,464.042c5.958,3.042,18.042,6.708,33.25,7.083c26.125,0.583,40.333-9.417,50.917-32.792
			L723.75,126.5c-5.75-3.083-18.625-6.542-29-6.708c-18.042-0.375-42.25,3.25-57.625,40.083l-45.333,106.833l-88.958-144.625
			c-5.75-1.75-19.792-4.208-29.958-4.208c-31.5,0-49,11.5-67.25,31.25L319.167,243.5l69.542,109.333
			c12.875,19.958,29.792,30.125,57.25,30.125c18.042,0,33.042-4.208,39.958-7.458l-83.75-126l59.375-62.917l97.417,152.667
			l-59.375,124.875L499.542,464.042z M315.792,346.083c0,23-9.042,36.25-54,36.25c-5.958,0-11.125-0.375-16.125-1.167V76.25
			c0-23.208,7.875-47.375,53.208-47.375c5.75,0,11.542,0.583,16.917,1.75v315.5V346.083z M223.042,300.042
			c0,42.958-28.042,74.208-85.125,80.375c-41.292,4.417-101.042-0.75-129.5-4.042c-0.958-4.583-1.708-10.333-1.708-14.958
			c0-37.417,20.167-46.042,39.208-46.042s50.917,3.458,73.958,3.458c25.542,0,33.25-8.625,33.25-16.875
			c0-10.75-10.167-15.167-29.958-19L69,272.583C24,264,0,232.917,0,199.917c0-40.083,28.417-73.667,84.333-79.792
			c42.25-4.625,93.75,0.583,122,4.042c0.958,4.792,1.542,9.417,1.542,14.375c0,37.375-19.792,45.458-38.792,45.458
			c-14.583,0-37.292-2.667-63.208-2.667s-37.292,7.292-37.292,16.125c0,9.417,10.375,13.25,26.917,16.125l51.667,9.583
			c53.042,9.792,75.875,39.875,75.875,76.917V300.042z"/>
	</g>
</g>
</svg>
