<?xml version="1.0" encoding="UTF-8" standalone="no"?>
<!--Generator: Adobe Illustrator 23.0.1, SVG Export Plug-In . SVG Version: 6.00 Build 0)-->

<svg
   xml:space="preserve"
   x="0"
   y="0"
   version="1.1"
   viewBox="0 0 3586.5537 500"
   id="svg3584"
   sodipodi:docname="Sky_Sports_Tennis_2025.svg"
   inkscape:version="1.2.2 (732a01da63, 2022-12-09)"
   xmlns:inkscape="http://www.inkscape.org/namespaces/inkscape"
   xmlns:sodipodi="http://sodipodi.sourceforge.net/DTD/sodipodi-0.dtd"
   xmlns="http://www.w3.org/2000/svg"
   xmlns:svg="http://www.w3.org/2000/svg"><sodipodi:namedview
     id="namedview3586"
     pagecolor="#505050"
     bordercolor="#ffffff"
     borderopacity="1"
     inkscape:showpageshadow="0"
     inkscape:pageopacity="0"
     inkscape:pagecheckerboard="1"
     inkscape:deskcolor="#505050"
     showgrid="false"
     inkscape:zoom="0.36525314"
     inkscape:cx="1754.9473"
     inkscape:cy="250.51119"
     inkscape:window-width="1920"
     inkscape:window-height="991"
     inkscape:window-x="-9"
     inkscape:window-y="-9"
     inkscape:window-maximized="1"
     inkscape:current-layer="svg3584" /><defs
     id="defs3546"><linearGradient
       id="a"
       x1="361.97241"
       x2="361.97241"
       y1="275.19421"
       y2="-167.3197"
       gradientTransform="matrix(1.0016877 0 0 -1 0 304)"
       gradientUnits="userSpaceOnUse"><stop
         offset="0"
         stop-color="#002a91"
         id="stop3502" /><stop
         offset=".8"
         stop-color="#002672"
         id="stop3504" /></linearGradient><linearGradient
       id="b"
       x1="365.5015"
       x2="359.65079"
       y1="40.698799"
       y2="208.2287"
       gradientTransform="matrix(1.0016877 0 0 -1 0 304)"
       gradientUnits="userSpaceOnUse"><stop
         offset="0"
         stop-color="#fff"
         id="stop3507" /><stop
         offset=".1203"
         stop-color="#fff"
         stop-opacity=".8347"
         id="stop3509" /><stop
         offset=".2693"
         stop-color="#fff"
         stop-opacity=".6576"
         id="stop3511" /><stop
         offset=".4195"
         stop-color="#fff"
         stop-opacity=".5107"
         id="stop3513" /><stop
         offset=".5684"
         stop-color="#fff"
         stop-opacity=".3965"
         id="stop3515" /><stop
         offset=".7156"
         stop-color="#fff"
         stop-opacity=".3152"
         id="stop3517" /><stop
         offset=".8603"
         stop-color="#fff"
         stop-opacity=".2664"
         id="stop3519" /><stop
         offset="1"
         stop-color="#fff"
         stop-opacity=".25"
         id="stop3521" /></linearGradient><linearGradient
       id="c"
       x1="1832.0896"
       x2="1832.0896"
       y1="22.230801"
       y2="41.461498"
       gradientTransform="matrix(79.787815 0 0 26 -144610.85 -578)"
       gradientUnits="userSpaceOnUse"><stop
         offset=".4"
         stop-color="red"
         id="stop3524" /><stop
         offset="1"
         stop-color="#d42321"
         id="stop3526" /></linearGradient><linearGradient
       id="d"
       x1="1568.9945"
       x2="1560.2958"
       y1="74.039398"
       y2="323.14291"
       gradientTransform="matrix(.99986865 0 0 -1 1.45339 304)"
       gradientUnits="userSpaceOnUse"><stop
         offset="0"
         stop-color="#fff"
         id="stop3529" /><stop
         offset=".1203"
         stop-color="#fff"
         stop-opacity=".8347"
         id="stop3531" /><stop
         offset=".2693"
         stop-color="#fff"
         stop-opacity=".6576"
         id="stop3533" /><stop
         offset=".4195"
         stop-color="#fff"
         stop-opacity=".5107"
         id="stop3535" /><stop
         offset=".5684"
         stop-color="#fff"
         stop-opacity=".3965"
         id="stop3537" /><stop
         offset=".7156"
         stop-color="#fff"
         stop-opacity=".3152"
         id="stop3539" /><stop
         offset=".8603"
         stop-color="#fff"
         stop-opacity=".2664"
         id="stop3541" /><stop
         offset="1"
         stop-color="#fff"
         stop-opacity=".25"
         id="stop3543" /></linearGradient><linearGradient
       x1="-40.125431"
       y1="69.82682"
       x2="-40.125431"
       y2="290.33749"
       gradientUnits="userSpaceOnUse"
       id="color-4"
       gradientTransform="matrix(2.2672317,0,0,2.2674554,1658.528,-158.32831)"><stop
         offset="0"
         stop-color="#fe0000"
         id="stop105" /><stop
         offset="0.55"
         stop-color="#fc0000"
         id="stop107" /><stop
         offset="0.7"
         stop-color="#f90000"
         id="stop109" /><stop
         offset="0.82"
         stop-color="#ee0000"
         id="stop111" /><stop
         offset="0.9"
         stop-color="#de0000"
         id="stop113" /><stop
         offset="1"
         stop-color="#c70000"
         id="stop115" /></linearGradient><linearGradient
       x1="-571.00555"
       y1="82.530502"
       x2="-571.00555"
       y2="277.68927"
       gradientUnits="userSpaceOnUse"
       id="color-3"
       gradientTransform="matrix(2.2718421,0,0,2.2659168,1659.8178,-158.20141)"><stop
         offset="0"
         stop-color="#0f33d5"
         id="stop94" /><stop
         offset="0.275"
         stop-color="#0c2ac8"
         id="stop96" /><stop
         offset="0.55"
         stop-color="#081bb3"
         id="stop98" /><stop
         offset="0.82"
         stop-color="#03099b"
         id="stop100" /><stop
         offset="1"
         stop-color="#00008c"
         id="stop102" /></linearGradient></defs><path
     fill="#002a91"
     d="M3553.3531 0H2297.9469c-18.4 0-33.3 14.9-33.3 33.3v433.4c0 18.4 14.9 33.3 33.3 33.3h1255.3062c18.4 0 33.3-14.9 33.3-33.3V33.3c.1-18.4-14.8-33.3-33.2-33.3m0 10c12.9 0 23.3 10.5 23.3 23.3v433.4c0 12.8-10.5 23.3-23.3 23.3H2297.9469c-12.9 0-23.3-10.5-23.3-23.3V33.3c0-12.9 10.5-23.3 23.3-23.3h1255.4062"
     id="path3548" /><path
     fill="#ffffff"
     d="M3553.3531 10c12.9 0 23.3 10.5 23.3 23.3v433.4c0 12.8-10.5 23.3-23.3 23.3H2297.9469c-12.9 0-23.3-10.5-23.3-23.3V33.3c0-12.9 10.5-23.3 23.3-23.3h1255.4062"
     id="path3550" /><path
     fill="#002a91"
     d="M2758.8221 264.5h-151.4c4.4 37.8 30.5 59 69.2 59 16.7 0 29.7-3.2 41.9-7.3 8.5-2.8 12.2-4 15.4-4 9.4 0 15.5 7.7 13.9 25.6-17.5 7.7-44.4 16.3-72.4 16.3-61.1 0-102.1-41.1-102.1-102.1 0-58.6 43.5-100.9 96.8-100.9 60.2 0 89.9 46.8 89.9 94 0 5.5-.4 12.4-1.2 19.4m-151.4-26.1h120c-1.2-33.4-22.8-59.4-57.3-59.4-30.1 0-57.4 20.8-62.7 59.4"
     id="path3552" /><path
     fill="#002a91"
     d="M2973.197 233.9v105.4c0 7.7-4.5 12.6-17.9 12.6-5.7 0-12.2-.8-15.5-1.6V238.4c0-39.1-19.1-57.8-48-57.8-22.4 0-46.8 15.5-56.6 33.8v124.9c0 7.7-4.5 12.6-17.9 12.6-5.7 0-12.2-.8-15.5-1.6V154.6c3.2-.8 9.8-1.7 15.5-1.7 13.4 0 17.9 4.9 17.9 12.7v16.6c14.2-17.5 35.8-31.3 64.7-31.3 39.9.1 73.3 25.3 73.3 83"
     id="path3554" /><path
     fill="#002a91"
     d="M3195.9469 233.9v105.4c0 7.7-4.5 12.6-17.9 12.6-5.7 0-12.2-.8-15.5-1.6V238.4c0-39.1-19.1-57.8-48-57.8-22.4 0-46.8 15.5-56.6 33.8v124.9c0 7.7-4.5 12.6-17.9 12.6-5.7 0-12.2-.8-15.5-1.6V154.6c3.2-.8 9.8-1.7 15.5-1.7 13.4 0 17.9 4.9 17.9 12.7v16.6c14.2-17.5 35.8-31.3 64.7-31.3 39.9.1 73.3 25.3 73.3 83"
     id="path3556" /><path
     fill="#002a91"
     d="M3241.8466 110.3c0-12.2 9.8-21.1 21.2-21.1 12.2 0 21.6 8.9 21.6 21.1 0 11-9.4 21.1-21.6 21.1-11.4 0-21.2-10.2-21.2-21.1m4.5 240V165.6c0-7.7 4.5-12.6 17.9-12.6 5.7 0 11.8.8 15.1 1.6v184.7c0 8.2-4.1 12.6-17.5 12.6-5.7 0-12.3-.8-15.5-1.6"
     id="path3558" /><path
     fill="#002a91"
     d="M3321.5469 340.5c-2.5-17.1 2.9-26 12.6-26 9.4 0 32.1 10.2 63.8 10.2 33.4 0 46-11.8 46-27.3 0-11-4.9-20.8-35-28.9l-34.6-9.4c-38.3-10.2-53.3-29.3-53.3-52.9 0-29.3 23.2-55.3 75.7-55.3 23.6 0 52.9 5.3 70.8 12.2 3.2 16.7-2 25.6-12.2 25.6-9 0-29.3-8.5-58.2-8.5-30.9 0-42.3 10.6-42.3 24.4 0 9.8 4.5 18.7 32.2 26.4l35.4 9.8c39.4 11 55.3 29.3 55.3 55.3 0 30.5-23.6 57.8-80.6 57.8-25.1.1-56.5-6-75.6-13.4"
     id="path3560" /><path
     fill="#002a91"
     d="M2558.998 340.5c-17.1 8.2-36.6 13.4-56.1 13.4-38.7 0-61.8-22.8-61.8-60.6v-168c0-8.5 4.9-14.2 17.9-14.2 5.7 0 12.2 1.3 15.5 2v42.3h76.1c.4 2.8 1.2 8.5 1.2 13.4 0 11.8-4.9 15.9-12.2 15.9h-65.1v106.2c0 22.8 10.6 33.8 32.1 33.8 19.5 0 30.5-8.6 39.9-8.6 9.6 0 14.5 8.2 12.5 24.4"
     id="path3562" /><path
     d="m 500.54339,463.90443 c 10.51773,4.59687 21.83672,7.09518 33.2561,7.09518 26.14415,0.5996 40.46815,-9.39361 50.98588,-32.77774 L 725.122,126.43364 c -9.11552,-4.09723 -19.03209,-6.39566 -29.04886,-6.69542 -18.13076,-0.39973 -42.37152,3.29777 -57.69735,40.07274 L 592.99915,266.63845 503.84888,122.13656 c -9.81638,-2.59828 -19.93354,-3.99728 -30.05051,-4.19714 -31.5532,0 -49.08269,11.49226 -67.31354,31.27876 l -86.64603,94.3359 69.61741,109.32578 c 12.92178,19.88647 29.85021,30.07954 57.39677,30.07954 13.72303,0.19986 27.34587,-2.29843 40.06757,-7.4949 l -83.9417,-125.91449 59.50055,-62.85728 97.56423,152.59641 z M 316.53321,346.08446 c 0,22.9844 -9.01503,36.17545 -54.09119,36.17545 -5.40896,0 -10.81821,-0.39973 -16.12707,-1.09921 V 76.16786 c 0,-23.18425 7.9133,-47.36786 53.28963,-47.36786 5.70983,0 11.41928,0.59961 16.92863,1.69885 z m -93.05662,-46.06869 c 0,42.97078 -28.14743,74.14965 -85.24382,80.34544 -41.369588,4.39699 -101.270604,-0.79946 -129.7186073,-3.99726 -1.001637,-4.89669 -1.6027998,-9.89331 -1.7029935,-14.98981 0,-37.3746 20.2342228,-45.96877 39.2663208,-45.96877 19.833447,0 50.98608,3.49763 74.12502,3.49763 25.54298,0 33.2559,-8.59413 33.2559,-16.88849 0,-10.69277 -10.21696,-15.18967 -30.05061,-18.98714 L 69.116234,272.63445 C 24.040382,264.04026 0,232.86145 0,199.88386 c 0,-40.07274 28.447803,-73.55003 84.442367,-79.74584 42.371223,-4.59687 93.958163,0.59961 122.205783,3.99726 1.00184,4.69684 1.50261,9.49356 1.50261,14.39018 0,37.3746 -19.83345,45.46909 -38.86555,45.46909 -14.62478,0 -37.36295,-2.69817 -63.30671,-2.69817 -26.344329,0 -37.362933,7.29503 -37.362933,16.0891 0,9.39359 10.417541,13.19108 26.945398,16.0891 l 51.787025,9.59346 c 53.18975,9.69343 76.1283,39.97286 76.1283,76.9477 z"
     fill="url(#color-3)"
     id="path128"
     style="fill:url(#color-3);stroke-width:2.26889" /><path
     d="m 2334.9458,33.30003 v 433.39996 c 0,18.29998 -14.5505,33.30001 -33.2956,33.30001 H 833.64364 C 815.34598,500 800.348,485.00003 800.348,466.69999 V 33.30003 C 800.348,15.00006 815.34598,0 833.64364,0 H 2301.2493 c 18.8043,0 33.6967,14.9324 33.6967,33.30003 z"
     fill="url(#color-4)"
     id="path130"
     style="fill:url(#color-4);stroke-width:2.26735" /><path
     fill="#ffffff"
     d="M895.10168 359.31667c-2.90421-20.4 3.30482-31.2 15.42245-31.2 11.21632 0 38.85655 12.1 77.21239 12.1 40.45878 0 55.48068-14.2 55.48068-32.9 0-13.3-5.8085-25-42.1613-35l-41.76077-11.2c-46.26735-12.1-64.29358-35.4-64.29358-63.8 0-35.4 27.94065-66.7 91.33292-66.7 28.34123 0 63.89263 6.2 85.52443 14.6 3.8054 20-2.5037 30.8-14.6214 30.8-10.8156 0-35.4515-10.4-70.10187-10.4-37.55465 0-51.27462 12.9-51.27462 29.6 0 11.7 5.40788 22.5 38.85656 32.1l42.56193 11.7c47.5692 13.3 66.7971 35.4 66.7971 66.7 0 36.7-28.3413 69.6-97.24139 69.6-30.84489.2-68.80015-7.3-91.73353-16Z"
     style="stroke-width:1.00009"
     id="path3572" /><path
     fill="#ffffff"
     d="M1368.1043 253.01667c0 77.1-54.2391 122.5-113.3818 122.5-35.4255 0-64.2463-16.7-81.7589-40.4v99.1c0 9.2-5.4039 15.4-21.2153 15.4-7.9057 0-15.4112-.8-19.2139-2.1v-312.5c3.8027-.8 11.2081-2.1 19.2139-2.1 15.8114 0 21.2153 5.8 21.2153 15.4v22.5c17.1124-23.8 46.2332-40.4 81.7589-40.4 59.1427 0 113.3818 45.8 113.3818 122.6Zm-40.8295 0c0-51.7-34.2246-87.1-80.458-87.1-31.2225 0-60.4436 18.3-73.8532 44.6v85c13.3096 26.7 42.1303 44.6 73.8532 44.6 46.2334 0 80.458-35.4 80.458-87.1Z"
     style="stroke-width:1.00009"
     id="path3574" /><path
     fill="#ffffff"
     d="M1406.662 252.81668c0-70.11448 51.8003-122.29968 121.0342-122.29968 69.7351 0 121.4353 52.1852 121.4353 122.29968 0 69.71381-51.8003 122.70032-121.4353 122.70032-69.2339 0-121.0342-52.98651-121.0342-122.70032Zm201.6904 0c0-54.28864-36.2701-87.24244-80.5558-87.24244-43.8851 0-80.1555 32.9538-80.1555 87.24244 0 53.38716 36.2704 87.64308 80.1555 87.64308 44.1854-.40064 80.5558-34.25592 80.5558-87.64308Z"
     style="stroke-width:1.00009"
     id="path3576" /><path
     fill="#ffffff"
     d="M1844.8046 152.51667c0 16.2-6.6991 19.6-23.7968 19.6-33.7957 0-62.4918 15.8-79.9896 52.5v132.9c0 10-5.3993 15.4-21.6972 15.4-6.6991 0-14.598-.8-18.7974-2.1v-235.8c3.7995-.8 11.6984-2.1 18.7974-2.1 16.1979 0 21.6972 5.8 21.6972 15.4v32.9c22.897-35 57.8924-52.5 101.6866-46.7.5 3.4 2.0998 10.9 2.0998 18Z"
     style="stroke-width:1.00009"
     id="path3578" /><path
     fill="#ffffff"
     d="M2021.3813 359.20594c-20.3973 10.00684-44.1942 16.21106-67.8911 16.21106-46.6939 0-74.5902-27.51876-74.5902-73.35002V99.32868c0-10.4071 5.7993-17.11168 21.6972-17.11168 6.6991 0 14.5981 1.70116 18.7975 2.5017v51.23496h91.6879c.4 3.30224 1.6998 10.4071 1.6998 16.21106 0 14.20968-5.7992 19.2131-14.5981 19.2131h-78.2897v127.9873c0 27.51878 12.8983 40.82786 38.795 40.82786 23.7968 0 36.6951-10.4071 47.8937-10.4071 11.0985.20014 17.2977 9.80668 14.798 29.42006Z"
     style="stroke-width:1.00009"
     id="path3580" /><path
     fill="#ffffff"
     d="M2049.2046 359.31667c-2.8996-20.4 3.2996-31.2 15.398-31.2 11.2986 0 38.7949 12.1 77.0899 12.1 40.3947 0 55.3927-14.2 55.3927-32.9 0-13.3-5.7992-25-42.0945-35l-41.6945-11.2c-46.194-12.1-64.1916-35.4-64.1916-63.8 0-35.4 27.8964-66.7 91.288-66.7 28.2963 0 63.6916 6.2 85.3888 14.6 3.7995 20-2.4996 30.8-14.598 30.8-10.7986 0-35.3955-10.4-69.9908-10.4-37.4951 0-51.1933 12.9-51.1933 29.6 0 11.7 5.3992 22.5 38.7949 32.1l42.4944 11.7c47.4938 13.3 66.6912 35.4 66.6912 66.7 0 36.7-28.2962 69.6-97.0872 69.6-30.7959.2-68.7909-7.3-91.688-16Z"
     id="path3582" /></svg>
