<svg viewBox="0 0 3867.074 500" xmlns="http://www.w3.org/2000/svg">
  <defs>
    <linearGradient id="a" x1="361.972" x2="361.972" y1="275.194" y2="-167.32" gradientTransform="matrix(0.9997544,0,0,-1,0,304)" gradientUnits="userSpaceOnUse">
      <stop offset="0" stop-color="#0f33d5"/>
      <stop offset=".275" stop-color="#0c2ac8"/>
      <stop offset=".55" stop-color="#081bb3"/>
      <stop offset=".82" stop-color="#03099b"/>
      <stop offset="1" stop-color="#00008c"/>
    </linearGradient>
    <linearGradient id="b" x1="1832.09" x2="1832.09" y1="22.231" y2="41.462" gradientTransform="matrix(79.79566,0,0,26,-144627.2,-578)" gradientUnits="userSpaceOnUse">
      <stop offset="0" stop-color="#fe0000"/>
      <stop offset=".55" stop-color="#fc0000"/>
      <stop offset=".7" stop-color="#f90000"/>
      <stop offset=".82" stop-color="#e00"/>
      <stop offset=".9" stop-color="#de0000"/>
      <stop offset="1" stop-color="#c70000"/>
    </linearGradient>
  </defs>
  <path fill="#ffffff" d="M3823.9 500H2296.05a33.3 33.303 0 0 1-33.275-33.278V33.303c0-18.427 14.9-33.303 33.275-33.303H3823.9c18.375 0 33.275 14.926 33.275 33.303v433.419c0 18.377-14.9 33.278-33.275 33.278"/>
  <path fill="#081cb6" d="M2486.975 148.465v11.776h66.35c.4 2.85 1.2 8.55 1.2 13.426 0 11.802-4.45 15.877-12.2 15.877h-55.35v148.94c0 8.126-4.45 12.626-17.9 12.626-5.725 0-12.225-.8-15.475-1.65V189.544h-29.275a94.5 94.51 0 0 1-1.225-13.426c0-11.777 4.875-15.877 12.225-15.877h18.275v-9.376c0-45.154 27.675-66.332 63.875-66.332 17.1 0 36.625 4.076 47.625 8.551.85 3.25.85 6.501.85 8.526 0 12.626-5.3 17.502-11.8 17.502-5.3 0-16.675-5.276-35-5.276-19.95 0-32.175 9.751-32.175 34.579m80.5 103.86c0-58.23 42.725-101.36 100.1-101.36s100.5 43.13 100.5 101.335c0 58.231-42.725 101.735-100.5 101.735-57.8 0-100.1-43.979-100.1-101.735Zm166.85 0c0-44.754-30.125-72.007-66.75-72.007s-66.35 27.253-66.35 72.007 30.125 72.408 66.35 72.408c36.2 0 66.75-28.078 66.75-72.433Zm63.725 0c0-58.23 42.725-101.36 100.1-101.36s100.5 43.13 100.5 101.335c0 58.231-42.725 101.735-100.5 101.735-57.8 0-100.1-43.979-100.1-101.735Zm166.85 0c0-44.754-30.125-72.007-66.75-72.007s-66.35 27.253-66.35 72.007 30.125 72.408 66.35 72.408c36.2 0 66.75-28.078 66.75-72.433Zm192.575 88.284c-17.075 8.126-36.625 13.426-56.175 13.426-38.65 0-61.825-22.802-61.825-60.63V125.286c0-8.525 4.875-14.25 17.925-14.25 5.7 0 12.2 1.224 15.45 2.05v42.329h76.075c.425 2.85 1.225 8.55 1.225 13.426 0 11.801-4.875 15.876-12.225 15.876h-65.075V290.93c0 22.802 10.575 33.804 32.125 33.804 19.55 0 30.55-8.551 39.875-8.551s14.625 8.125 12.625 24.427m225.25-88.334c0 63.857-44.75 101.71-94 101.71-29.3 0-53.3-13.826-67.55-33.378v18.702c0 8.126-4.45 12.626-17.9 12.626a76.25 76.258 0 0 1-15.475-1.625V97.21c0-7.751 4.475-12.627 17.925-12.627 5.7 0 12.2.776 15.45 1.626v98.06c14.25-19.528 38.25-33.379 67.55-33.379 49.25 0 94 37.829 94 101.335Zm-33.75 0c0-42.729-28.5-72.007-66.75-72.007-26.05 0-50.05 15.026-61.05 37.029v70.382c11 21.952 35 37.054 61.05 37.054 38.25 0 66.75-29.303 66.75-72.433m230.325-27.328v125.363c-3.25.775-9.375 1.625-15.025 1.625-12.225 0-17.925-4.5-17.925-12.626v-17.102c-17.5 19.927-40.3 31.753-69.175 31.753-43.525 0-67.525-28.502-67.525-59.406 0-47.23 50.45-67.981 136.325-62.256v-6.925c0-32.129-9.75-45.58-46.8-45.58-15.45 0-36.2 4.45-47.2 7.326-6.5 1.625-11.375 3.25-15.45 3.25-9.375 0-15.475-8.126-12.225-25.252 19.925-7.326 48.85-14.252 76.5-14.252 57.375 0 78.55 25.628 78.55 74.058m-33.375 68.381v-37.053c-56.175-4.076-102.95 3.25-102.95 37.053 0 17.077 14.25 32.529 39.875 32.529s48.825-13.002 63.075-32.529m85 56.981V97.21c0-7.751 4.475-12.627 17.925-12.627 5.7 0 12.2.826 15.45 1.626v253.075c0 8.126-4.45 12.626-17.9 12.626a76.25 76.258 0 0 1-15.475-1.625Zm85.7 0V97.21c0-7.751 4.475-12.627 17.925-12.627 5.7 0 12.2.826 15.45 1.626v253.075c0 8.126-4.45 12.626-17.9 12.626a76.25 76.258 0 0 1-15.475-1.625Z"/>
  <path d="M3833.88 0H2286.07c-18.395 0-33.292 14.9-33.292 33.3v433.4c0 18.4 14.897 33.3 33.292 33.3h1547.71c18.395 0 33.293-14.9 33.293-33.3V33.3c.1-18.4-14.798-33.3-33.193-33.3m0 10c12.897 0 23.295 10.5 23.295 23.3v433.4c0 12.8-10.498 23.3-23.295 23.3H2286.07c-12.897 0-23.295-10.5-23.295-23.3V33.3c0-12.9 10.498-23.3 23.295-23.3Z" fill="#081cb6"/>
  <path fill="url(#a)" d="M499.577 464.2c10.498 4.6 21.795 7.1 33.192 7.1 26.094.6 40.39-9.4 50.888-32.8l140.065-312a76.3 76.3 0 0 0-28.993-6.7c-18.095-.4-42.29 3.3-57.586 40.1l-45.289 106.9-88.978-144.6c-9.797-2.6-19.895-4-29.992-4.2-31.493 0-48.988 11.5-67.184 31.3l-86.478 94.4 69.483 109.4c12.896 19.9 29.792 30.1 57.285 30.1 13.697.2 27.294-2.3 39.99-7.5l-83.779-126 59.385-62.9 97.377 152.7ZM315.922 346.3c0 23-8.997 36.2-53.986 36.2-5.4 0-10.798-.4-16.096-1.1V76.2c0-23.2 7.898-47.4 53.186-47.4 5.7 0 11.398.6 16.896 1.7Zm-92.877-46.1c0 43-28.093 74.2-85.079 80.4-41.29 4.4-101.075-.8-129.468-4-1-4.9-1.6-9.9-1.7-15 0-37.4 20.195-46 39.19-46 19.796 0 50.888 3.5 73.982 3.5 25.494 0 33.192-8.6 33.192-16.9 0-10.7-10.197-15.2-29.992-19l-54.187-10.4C23.994 264.2 0 233 0 200c0-40.1 28.393-73.6 84.28-79.8 42.289-4.6 93.776.6 121.97 4q1.5 7.05 1.499 14.4c0 37.4-19.795 45.5-38.79 45.5-14.597 0-37.291-2.7-63.185-2.7-26.293 0-37.29 7.3-37.29 16.1 0 9.4 10.397 13.2 26.893 16.1l51.687 9.6c53.087 9.7 75.981 40 75.981 77"/>
  <path fill="url(#b)" d="M2299.398 0H831.648c-18.3 0-33.3 15-33.3 33.3v433.4c0 18.3 15 33.3 33.3 33.3h1468.151c18.747 0 33.299-15 33.299-33.3V33.3c0-18.368-14.894-33.3-33.7-33.3"/>
  <path fill="#ffffff" d="M894.47 359.317c-2.902-20.4 3.103-31.6 15.214-31.6 11.311 0 38.636 12.3 76.972 12.3 40.437 0 55.551-14.418 55.551-32.7 0-13.3-5.905-24.9-42.239-34.9l-41.739-11.3c-46.243-12.1-64.26-35.4-64.26-63.8 0-35.4 27.927-66.9 91.385-66.9 28.327 0 63.759 6.4 85.48 14.8 3.803 20-2.503 31.1-14.614 31.1-10.81 0-35.433-10.4-70.065-10.4-37.534 0-51.448 12.6-51.448 29.3 0 6.924 1.964 13.634 10.498 19.866 5.884 4.298 14.894 8.315 28.539 12.234l42.539 11.7c20.121 5.628 34.116 11.942 45.664 21.346 14.805 12.055 21.098 27.108 21.098 45.354 0 14.521-4.435 28.447-14.061 39.976-14.702 17.608-40.677 29.724-83.13 29.724-30.827.2-68.462-7.4-91.384-16.1"/>
  <path fill="#ffffff" d="M1366.702 252.617c0 30.295-8.305 56.095-22.098 75.77-21.31 30.398-55.48 47.13-91.384 47.13-35.426 0-63.847-16.3-81.359-40v98.7c0 9.2-5.057 15.4-21.216 15.4-7.905 0-15.411-.8-19.213-2.1v-312.5c3.802-.8 11.208-2.1 19.213-2.1 15.812 0 21.216 5.8 21.216 15.4v22.5c17.112-23.8 45.933-40.4 81.459-40.4 59.143 0 113.382 45.4 113.382 122.2m-40.83.4c0-51.7-34.425-87.1-80.658-87.1-31.222 0-59.944 18.3-73.353 44.6v85c13.309 26.7 42.884 44.6 73.853 44.6 45.48 0 80.158-35.4 80.158-87.1"/>
  <path fill="#ffffff" d="M1405.35 252.817c0-70.115 51.441-122.4 120.884-122.4 69.649 0 121.285 52.285 121.285 122.4 0 69.714-51.736 122.7-121.285 122.7-69.148 0-120.884-52.986-120.884-122.7m201.203.101c0-54.09-36.171-86.922-80.337-86.922-43.766 0-79.938 32.833-79.938 86.922 0 53.191 36.372 87.221 80.138 87.221 44.065-.4 80.137-34.03 80.137-87.221"/>
  <path fill="#ffffff" d="M1842.867 152.517c0 16.2-6.499 19.7-23.597 19.7-33.795 0-62.492 15.8-79.989 52.5v132.8c0 10-5.4 15.5-21.698 15.5-6.699 0-14.598-.9-18.797-2.2v-235.8c3.8-.8 11.698-2.1 18.797-2.1 16.198 0 21.698 5.8 21.698 15.4v32.9c22.897-35 57.288-52.58 101.686-46.7.5 3.4 1.9 10.9 1.9 18"/>
  <path fill="#ffffff" d="M2019.442 359.206c-20.397 10.007-44.194 16.211-67.891 16.211-46.694 0-74.49-27.519-74.49-73.35V99.529c0-10.407 5.699-17.212 21.597-17.212 6.699 0 14.598 1.601 18.797 2.402v51.235h91.788c.4 3.302 1.5 10.407 1.5 16.21 0 14.21-5.799 19.214-14.598 19.214h-78.69v127.987c0 27.519 12.998 40.828 38.895 40.828 22.154 0 37.095-10.407 48.294-10.407 11.099.2 17.298 9.807 14.798 29.42"/>
  <path fill="#ffffff" d="M2047.475 359.317c-2.903-20.4 3.103-31.6 15.214-31.6 11.311 0 38.636 12.3 76.971 12.3 40.438 0 55.452-14.418 55.452-32.7 0-13.3-5.806-24.9-42.14-34.9l-41.738-11.3c-46.243-12.1-64.359-35.4-64.359-63.8 0-35.4 28.025-66.9 91.484-66.9 28.326 0 63.759 6.4 85.479 14.8 3.804 20-2.502 31.1-14.613 31.1-10.811 0-35.433-10.4-70.065-10.4-37.535 0-51.448 12.6-51.448 29.3 0 6.924 1.963 13.634 10.497 19.866 5.885 4.298 14.894 8.216 28.539 12.134l42.54 11.7c47.544 13.3 66.761 35.5 66.761 66.8 0 14.521-4.435 28.447-14.06 39.976-14.702 17.608-40.678 29.724-83.13 29.724-30.828.2-68.463-7.4-91.384-16.1"/>
</svg>
