<?xml version="1.0" encoding="UTF-8" standalone="no"?>
<!-- Generator: Adobe Illustrator 23.0.1, SVG Export Plug-In . SVG Version: 6.00 Build 0)  -->

<svg
   version="1.1"
   id="Livello_1"
   x="0px"
   y="0px"
   viewBox="0 0 2866.7 500"
   enable-background="new 0 0 2866.7 500"
   xml:space="preserve"
   sodipodi:docname="Sky_Sports_Premier_League_2025.svg"
   inkscape:version="1.2.2 (732a01da63, 2022-12-09)"
   xmlns:inkscape="http://www.inkscape.org/namespaces/inkscape"
   xmlns:sodipodi="http://sodipodi.sourceforge.net/DTD/sodipodi-0.dtd"
   xmlns:xlink="http://www.w3.org/1999/xlink"
   xmlns="http://www.w3.org/2000/svg"
   xmlns:svg="http://www.w3.org/2000/svg"><defs
   id="defs1247"><linearGradient
     x1="-40.125431"
     y1="69.82682"
     x2="-40.125431"
     y2="290.33749"
     gradientUnits="userSpaceOnUse"
     id="color-4"
     gradientTransform="matrix(2.2674554,0,0,2.2674554,2508.4886,-666.18766)"><stop
       offset="0"
       stop-color="#fe0000"
       id="stop105" /><stop
       offset="0.55"
       stop-color="#fc0000"
       id="stop107" /><stop
       offset="0.7"
       stop-color="#f90000"
       id="stop109" /><stop
       offset="0.82"
       stop-color="#ee0000"
       id="stop111" /><stop
       offset="0.9"
       stop-color="#de0000"
       id="stop113" /><stop
       offset="1"
       stop-color="#c70000"
       id="stop115" /></linearGradient><linearGradient
     x1="-571.00555"
     y1="82.530502"
     x2="-571.00555"
     y2="277.68927"
     gradientUnits="userSpaceOnUse"
     id="color-3"
     gradientTransform="matrix(2.2680134,0,0,2.2674554,1657.0207,-158.3284)"><stop
       offset="0"
       stop-color="#0f33d5"
       id="stop94" /><stop
       offset="0.275"
       stop-color="#0c2ac8"
       id="stop96" /><stop
       offset="0.55"
       stop-color="#081bb3"
       id="stop98" /><stop
       offset="0.82"
       stop-color="#03099b"
       id="stop100" /><stop
       offset="1"
       stop-color="#00008c"
       id="stop102" /></linearGradient><linearGradient
     inkscape:collect="always"
     xlink:href="#color-4"
     id="linearGradient1388"
     gradientUnits="userSpaceOnUse"
     gradientTransform="matrix(2.26753,0,0,2.2674554,1657.2929,-158.32831)"
     x1="-40.125431"
     y1="69.82682"
     x2="-40.125431"
     y2="290.33749" /></defs><sodipodi:namedview
   id="namedview1245"
   pagecolor="#505050"
   bordercolor="#ffffff"
   borderopacity="1"
   inkscape:showpageshadow="0"
   inkscape:pageopacity="0"
   inkscape:pagecheckerboard="1"
   inkscape:deskcolor="#505050"
   showgrid="false"
   inkscape:zoom="0.45522726"
   inkscape:cx="1339.99"
   inkscape:cy="249.32602"
   inkscape:window-width="1920"
   inkscape:window-height="991"
   inkscape:window-x="-9"
   inkscape:window-y="-9"
   inkscape:window-maximized="1"
   inkscape:current-layer="g1241" />

<g
   id="Sky_Sports_Premier_League_PRIMARY_RGB">
	<g
   id="g1176">
		<path
   id="Path_4_"
   fill="#FFFFFF"
   d="M2833.4,500h-536.7c-18.3,0-33.3-15-33.3-33.3V33.3c0-18.3,15-33.3,33.3-33.3h536.7    c18.3,0,33.3,15,33.3,33.3v433.3C2866.7,485,2851.7,500,2833.4,500z" />
		<path
   id="Path_1_"
   fill="#002A91"
   d="M2833.4,10c12.8,0,23.3,10.5,23.3,23.3v433.3c0,12.8-10.5,23.3-23.3,23.3h-536.7    c-12.8,0-23.3-10.5-23.3-23.3V33.3c0-12.8,10.5-23.3,23.3-23.3H2833.4 M2833.4,0h-536.7c-18.3,0-33.3,15-33.3,33.3v433.3    c0,18.3,15,33.3,33.3,33.3h536.7c18.3,0,33.3-15,33.3-33.3V33.3C2866.7,15,2851.7,0,2833.4,0L2833.4,0z" />
	</g>
	<path
   id="XMLID_269_"
   fill="#37003C"
   d="M2503.8,80.8c17.9,8.3,29.6,18.8,31.7,20c-0.8-4.6-4.6-27.1-6.7-40.8   c10.4,7.1,34.6,24.2,42.9,29.6c3.3-10,14.6-42.9,14.6-42.9s20.4,32.9,23.8,38.3c4.2-4.6,28.8-31.7,35-38.3   c1.2,15.4,2.5,37.9,2.9,41.2c1.2-1.7,10.4-14.6,26.2-26.7c-6.7,13.3-10,31.7-11.7,46.7c-15.4-4.2-31.7-6.7-48.3-6.7   c-32.1,0-62.5,8.3-88.3,23.3C2520.9,110.4,2513.4,92.5,2503.8,80.8z M2749.6,362.5l-14.2-15.8c-4.2,42.5-24.6,78.3-62.9,103.3   l-5.8-22.9c-32.5,23.3-87.9,38.3-135.4,11.7c5.8-30.4,11.3-60.8,0-97.5c-26.2,40.8-49.6,57.1-49.6,57.1   c-17.9-30-16.3-90-10.8-107.9l-29.6,9.2c0-20,14.6-62.9,35.4-87.1l-18.8-2.9l0,0c12.5-25.8,31.2-47.9,54.6-64.6l0,0   c-7.1,10.8-7.1,37.9,13.3,47.9c-8.8-15-9.6-33.8-0.8-43.3c9.2-9.6,24.2-6.2,33.8,1.2c-2.9-8.3-11.3-19.2-23.8-19.6l0,0   c23.8-12.1,50.8-19.2,79.6-19.2c5.4,0,10.8,0.4,15.8,0.8l0,0c8.3,3.3,20.4,15,26.2,22.5c0,0,0.4-8.7-4.6-19.2   c30.8,7.5,45.8,20,52.1,26.2c1.2,13.3,5.4,21.2,10.4,34.2c-10-11.2-35.4-29.2-47.1-33.7c0,0-0.8,11.7-5,17.1   c-23.8-17.5-35.8-21.7-35.8-21.7c-26.2,3.8-43.3,13.8-52.5,22.1l7.9,6.7c-15.8,5-26.2,18.3-26.2,18.3c0,0.4,14.2,2.1,14.2,2.1   s-1.2,16.7,19.2,26.7c17.5,8.8,43.3-2.1,67.1,7.5c-15.8-18.3-26.7-26.2-26.7-26.2s-6.2-1.3-10.8-1.3c-5.4,0-13.7,1.3-22.9-2.5   c-4.2-1.7-9.2-4.6-13.3-7.1c0,0,11.2-11.2,27.1-13.8c0,0,14.6,4.2,26.2,12.5c7.5-7.5,15.8-7.1,15.8-7.1s-7.9,7.5-5.4,16.2   c11.7,10.4,24.2,25,24.2,25c12.9-7.1,40.4-5.4,46.2,1.2c-7.1-9.2-17.5-17.1-25.8-23.8c-0.8-3.3-9.6-15.8-11.2-16.7   c0,0,8.3,2.5,15.8,9.2c2.1-2.9,6.2-6.2,11.7-7.5c5.4,4.6,6.7,12.1,6.2,13.3c-2.5,2.9-5,4.2-5,4.2l13.3,14.6l1.3-10.4   C2754.2,246.2,2771.3,297.5,2749.6,362.5z M2690.9,266.7v-22.9c0,0-10.4-3.3-21.3-11.7c-22.1,3.3-48.7,25.4-48.7,25.4   s9.2,17.1,18.7,35.4C2657.1,295,2682.5,273.3,2690.9,266.7z M2712.9,308.3c0,0-1.7-9.6-9.2-18.3l-17.1,0.4c0,0-23.3,20-37.1,20.4   c0,0,7.9,14.6,11.7,22.1c7.9-1.7,21.3-7.9,27.1-14.2c0,0,3.7,11.7,2.9,25.4C2698.8,339.6,2709.2,327.5,2712.9,308.3z M2720,232.9   c-8.8,7.1-15.8,11.2-15.8,11.2v22.9c6.2,7.1,12.5,12.5,17.1,22.9C2729.6,274.6,2727.9,251.7,2720,232.9z" />
	<g
   id="g1241">
		
			<linearGradient
   id="Sky_Logo_2_"
   gradientUnits="userSpaceOnUse"
   x1="361.9724"
   y1="275.1942"
   x2="361.9724"
   y2="-167.3197"
   gradientTransform="matrix(1 0 0 -1 0 304)">
			<stop
   offset="0"
   style="stop-color:#002A91"
   id="stop1179" />
			<stop
   offset="0.8"
   style="stop-color:#002672"
   id="stop1181" />
		</linearGradient>
		
		
			<linearGradient
   id="s25_2_"
   gradientUnits="userSpaceOnUse"
   x1="365.5015"
   y1="40.6988"
   x2="359.6508"
   y2="208.2287"
   gradientTransform="matrix(1 0 0 -1 0 304)">
			<stop
   offset="0"
   style="stop-color:#FFFFFF"
   id="stop1185" />
			<stop
   offset="0.1203"
   style="stop-color:#FFFFFF;stop-opacity:0.8347"
   id="stop1187" />
			<stop
   offset="0.2693"
   style="stop-color:#FFFFFF;stop-opacity:0.6576"
   id="stop1189" />
			<stop
   offset="0.4195"
   style="stop-color:#FFFFFF;stop-opacity:0.5107"
   id="stop1191" />
			<stop
   offset="0.5684"
   style="stop-color:#FFFFFF;stop-opacity:0.3965"
   id="stop1193" />
			<stop
   offset="0.7156"
   style="stop-color:#FFFFFF;stop-opacity:0.3152"
   id="stop1195" />
			<stop
   offset="0.8603"
   style="stop-color:#FFFFFF;stop-opacity:0.2664"
   id="stop1197" />
			<stop
   offset="1"
   style="stop-color:#FFFFFF;stop-opacity:0.25"
   id="stop1199" />
		</linearGradient>
		
		
			<linearGradient
   id="Plinth_1_"
   gradientUnits="userSpaceOnUse"
   x1="1075.0939"
   y1="22.2308"
   x2="1075.0939"
   y2="41.4615"
   gradientTransform="matrix(79.7983 0 0 26 -84224.2969 -578)"
   xlink:href="#color-4">
			<stop
   offset="0.4"
   style="stop-color:#FF0000"
   id="stop1203" />
			<stop
   offset="1"
   style="stop-color:#D42321"
   id="stop1205" />
		</linearGradient>
		
		
			<linearGradient
   id="p40_2_"
   gradientUnits="userSpaceOnUse"
   x1="1568.9945"
   y1="74.0394"
   x2="1560.2958"
   y2="323.1429"
   gradientTransform="matrix(1 0 0 -1 0 304)">
			<stop
   offset="0"
   style="stop-color:#FFFFFF"
   id="stop1209" />
			<stop
   offset="0.1203"
   style="stop-color:#FFFFFF;stop-opacity:0.8347"
   id="stop1211" />
			<stop
   offset="0.2693"
   style="stop-color:#FFFFFF;stop-opacity:0.6576"
   id="stop1213" />
			<stop
   offset="0.4195"
   style="stop-color:#FFFFFF;stop-opacity:0.5107"
   id="stop1215" />
			<stop
   offset="0.5684"
   style="stop-color:#FFFFFF;stop-opacity:0.3965"
   id="stop1217" />
			<stop
   offset="0.7156"
   style="stop-color:#FFFFFF;stop-opacity:0.3152"
   id="stop1219" />
			<stop
   offset="0.8603"
   style="stop-color:#FFFFFF;stop-opacity:0.2664"
   id="stop1221" />
			<stop
   offset="1"
   style="stop-color:#FFFFFF;stop-opacity:0.25"
   id="stop1223" />
		</linearGradient>
		
		
	<path
   d="m 499.70007,464.19987 c 10.4999,4.59999 21.7998,7.09999 33.2,7.09999 26.0999,0.60002 40.4,-9.39998 50.9,-32.79999 l 140.0999,-311.99994 c -9.1,-4.10001 -18.9998,-6.4 -29,-6.69996 -18.0999,-0.40001 -42.2998,3.30001 -57.6001,40.09995 l -45.2998,106.90002 -89.0001,-144.60001 c -9.7998,-2.60004 -19.9,-3.99999 -29.9999,-4.19998 -31.5,0 -49,11.50005 -67.2001,31.3 l -86.4999,94.39995 69.5,109.40001 c 12.8999,19.89998 29.7999,30.09997 57.2998,30.09997 13.7001,0.19999 27.3,-2.29999 40,-7.5 l -83.7999,-125.99998 59.3999,-62.89996 97.4001,152.70002 z M 315.99997,346.2999 c 0,23 -9,36.20002 -54,36.20002 -5.4001,0 -10.8001,-0.40001 -16.1,-1.09997 V 76.20002 c 0,-23.19999 7.9,-47.40002 53.1999,-47.40002 5.7001,0 11.3999,0.60001 16.9,1.7 z m -92.9,-46.09998 c 0,42.99996 -28.1,74.20001 -85.10001,80.4 -41.30003,4.39998 -101.10001,-0.8 -129.50004,-3.99997 -1,-4.90002 -1.60001,-9.90003 -1.70001,-14.99999 0,-37.39997 20.19997,-45.99998 39.20005,-45.99998 19.79996,0 50.90003,3.5 74.00003,3.5 25.49999,0 33.19998,-8.59996 33.19998,-16.89996 0,-10.70003 -10.1999,-15.19998 -29.99995,-19.00003 L 68.99996,272.80001 C 23.99996,264.19999 0,233 0,200.00002 c 0,-40.09995 28.4,-73.59997 84.30006,-79.79998 42.29989,-4.59999 93.80001,0.60001 122.00001,3.99997 1,4.70003 1.4999,9.5 1.4999,14.39995 0,37.39998 -19.8,45.49996 -38.7999,45.49996 -14.6001,0 -37.30011,-2.69999 -63.20006,-2.69999 -26.29997,0 -37.29999,7.29998 -37.29999,16.10002 0,9.39996 10.39995,13.20004 26.89989,16.10002 l 51.69998,9.59998 c 53.10008,9.70001 76.00008,40 76.00008,76.99995 z"
   fill="url(#color-3)"
   id="path128"
   style="fill:url(#color-3);stroke-width:2.26774" /><path
   d="m 2333.7998,33.30003 v 433.39996 c 0,18.29998 -14.5524,33.30001 -33.3001,33.30001 H 832.2999 C 814,500 799,485.00003 799,466.69999 V 33.30003 C 799,15.00006 814,0 832.2999,0 h 1467.7989 c 18.8064,0 33.7012,14.9324 33.7012,33.30003 z"
   fill="url(#color-4)"
   id="path130"
   style="fill:url(#linearGradient1388);stroke-width:2.2675" /><g
   transform="translate(46.366667,4.116667)"
   id="g1239">
			<path
   fill="#FFFFFF"
   d="M848.4,355.2c-2.9-20.4,3.3-31.2,15.4-31.2c11.2,0,38.8,12.1,77.1,12.1c40.4,0,55.4-14.2,55.4-32.9     c0-13.3-5.8-25-42.1-35L912.5,257c-46.2-12.1-64.2-35.4-64.2-63.8c0-35.4,27.9-66.7,91.2-66.7c28.3,0,63.8,6.2,85.4,14.6     c3.8,20-2.5,30.8-14.6,30.8c-10.8,0-35.4-10.4-70-10.4c-37.5,0-51.2,12.9-51.2,29.6c0,11.7,5.4,22.5,38.8,32.1l42.5,11.7     c47.5,13.3,66.7,35.4,66.7,66.7c0,36.7-28.3,69.6-97.1,69.6C909.2,371.4,871.3,363.9,848.4,355.2z"
   id="path1227" />
			<path
   fill="#FFFFFF"
   d="M1320.6,248.9c0,77.1-54.2,122.5-113.3,122.5c-35.4,0-64.2-16.7-81.7-40.4v99.1c0,9.2-5.4,15.4-21.2,15.4     c-7.9,0-15.4-0.8-19.2-2.1V130.9c3.8-0.8,11.2-2.1,19.2-2.1c15.8,0,21.2,5.8,21.2,15.4v22.5c17.1-23.8,46.2-40.4,81.7-40.4     C1266.4,126.3,1320.6,172.1,1320.6,248.9z M1279.8,248.9c0-51.7-34.2-87.1-80.4-87.1c-31.2,0-60.4,18.3-73.8,44.6v85     c13.3,26.7,42.1,44.6,73.8,44.6C1245.6,336,1279.8,300.6,1279.8,248.9z"
   id="path1229" />
			<path
   fill="#FFFFFF"
   d="M1359.3,248.9c0-70,51.7-122.1,120.8-122.1c69.6,0,121.2,52.1,121.2,122.1c0,69.6-51.7,122.5-121.2,122.5     C1411,371.4,1359.3,318.5,1359.3,248.9z M1560.6,248.9c0-54.2-36.2-87.1-80.4-87.1c-43.8,0-80,32.9-80,87.1     c0,53.3,36.2,87.5,80,87.5C1524.3,336,1560.6,302.2,1560.6,248.9z"
   id="path1231" />
			<path
   fill="#FFFFFF"
   d="M1796.9,148.4c0,16.2-6.7,19.6-23.8,19.6c-33.8,0-62.5,15.8-80,52.5v132.9c0,10-5.4,15.4-21.7,15.4     c-6.7,0-14.6-0.8-18.8-2.1V130.9c3.8-0.8,11.7-2.1,18.8-2.1c16.2,0,21.7,5.8,21.7,15.4v32.9c22.9-35,57.9-52.5,101.7-46.7     C1795.3,133.8,1796.9,141.3,1796.9,148.4z"
   id="path1233" />
			<path
   fill="#FFFFFF"
   d="M1973.6,355.2c-20.4,10-44.2,16.2-67.9,16.2c-46.7,0-74.6-27.5-74.6-73.3V95.5c0-10.4,5.8-17.1,21.7-17.1     c6.7,0,14.6,1.7,18.8,2.5v51.2h91.7c0.4,3.3,1.7,10.4,1.7,16.2c0,14.2-5.8,19.2-14.6,19.2h-78.3v127.9     c0,27.5,12.9,40.8,38.8,40.8c23.8,0,36.7-10.4,47.9-10.4C1969.9,326,1976.1,335.6,1973.6,355.2z"
   id="path1235" />
			<path
   fill="#FFFFFF"
   d="M2001.5,355.2c-2.9-20.4,3.3-31.2,15.4-31.2c11.3,0,38.8,12.1,77.1,12.1c40.4,0,55.4-14.2,55.4-32.9     c0-13.3-5.8-25-42.1-35l-41.7-11.2c-46.2-12.1-64.2-35.4-64.2-63.8c0-35.4,27.9-66.7,91.3-66.7c28.3,0,63.7,6.2,85.4,14.6     c3.8,20-2.5,30.8-14.6,30.8c-10.8,0-35.4-10.4-70-10.4c-37.5,0-51.2,12.9-51.2,29.6c0,11.7,5.4,22.5,38.8,32.1l42.5,11.7     c47.5,13.3,66.7,35.4,66.7,66.7c0,36.7-28.3,69.6-97.1,69.6C2062.4,371.4,2024.4,363.9,2001.5,355.2z"
   id="path1237" />
		</g></g>
</g>
</svg>
