<?xml version="1.0" encoding="utf-8"?>
<!-- Generator: Adobe Illustrator 25.0.0, SVG Export Plug-In . SVG Version: 6.00 Build 0)  -->
<svg version="1.1" id="Layer_1" xmlns="http://www.w3.org/2000/svg" xmlns:xlink="http://www.w3.org/1999/xlink" x="0px" y="0px"
	 viewBox="0 0 469 79.7" style="enable-background:new 0 0 469 79.7;" xml:space="preserve">
<style type="text/css">
	.st0{fill:#FD2800;}
	.st1{fill:#333333;}
</style>
<g>
	<g>
		<path class="st0" d="M391.2,15.6v54.7h-6.8V15.6h-14.9V9.2H406v6.4H391.2z"/>
		<path class="st0" d="M420.2,9.2l17.2,46.7l17.2-46.7h7.5L437.5,74L412.7,9.2H420.2z"/>
	</g>
	<path class="st1" d="M36.1,22.8c-0.5-1.4-1.3-2.7-2.7-3.8c-1.9-1.6-3.9-2.2-6.5-2.2c-5.6,0-8.4,3.4-8.4,7.3c0,1.8,0.6,5,6.5,7.4
		l6,2.5c11,4.6,14.1,11,14.1,17.9c0,11.6-8.1,19.6-19.3,19.6c-6.9,0-11-2.7-14.1-6.1c-3.2-3.7-4.7-7.7-5-11.9l9.1-2
		c0,3,1.1,5.9,2.5,7.8c1.7,2.2,4.2,3.7,7.8,3.7c5.6,0,9.9-4.1,9.9-10.3s-4.7-8.8-8.6-10.4l-5.7-2.5c-4.9-2.1-12.2-6.3-12.2-15.5
		c0-8.2,6.3-16.1,17.5-16.1c6.5,0,10.1,2.5,12,4.1c1.6,1.5,3.3,3.6,4.6,6.1L36.1,22.8z"/>
	<path class="st1" d="M70.8,70.3L83.4,4.7l20.8,47.4l21-47.4l11.3,65.6h-9.3l-6.1-36.8l-17.4,39.6L86.4,33.5l-6.3,36.9L70.8,70.3
		L70.8,70.3z"/>
	<path class="st1" d="M254.5,9.3c7.3,0,11.9,0.9,15.8,3.6c6.5,4.5,7.1,11.7,7.1,14.4c0,8.8-5.3,15.2-13.3,17l18.7,26.1h-11l-17.1-25
		H253v25h-9.2v-61h10.7V9.3z M253,37.3h2.9c2.5,0,12.7-0.3,12.7-10c0-8.6-8-9.4-12.5-9.4H253V37.3z"/>
	<path class="st1" d="M326.3,18.1v52.3h-9.2V18.1h-13.7V9.3H340v8.8H326.3z"/>
	<polygon class="st1" points="189.1,5.7 160.2,70.3 170.1,70.3 189.1,26.1 189.1,26.1 208.5,70.3 218.3,70.3 	"/>
	<path class="st0" d="M200.1,50.9c-13.3,3-26.2,8.8-37.8,17.7c-0.8,0.6-1.4,1.2-2.1,1.8h9.9C179.4,62.6,189.6,56.2,200.1,50.9z"/>
</g>
</svg>
