<?xml version="1.0" encoding="utf-8"?>
<!-- Generator: Adobe Illustrator 27.0.1, SVG Export Plug-In . SVG Version: 6.00 Build 0)  -->
<svg version="1.1" id="Слой_1" xmlns="http://www.w3.org/2000/svg" xmlns:xlink="http://www.w3.org/1999/xlink" x="0px" y="0px"
	 width="500px" height="160px" viewBox="0 0 500 160" style="enable-background:new 0 0 500 160;" xml:space="preserve">
<style type="text/css">
	.st0{fill:#E6165E;}
	.st1{fill:#FFFFFF;}
</style>
<g>
	<g>
		<path class="st0" d="M210.7,72.9c-3.3,0-6.3-0.5-9.1-1.4c-2.8-1-5-2.2-6.7-3.7c-1.7-1.5-2.5-3.1-2.5-4.7c0-0.9,0.2-1.8,0.7-2.8
			c0.5-1,1.1-1.8,1.9-2.5c0.8-0.7,1.7-1.1,2.6-1.1c0.9,0,1.8,0.3,2.6,0.8c0.8,0.6,1.6,1.2,2.6,2c0.9,0.8,2,1.4,3.3,2
			c1.2,0.6,2.8,0.8,4.5,0.8c1.2,0,2.3-0.2,3.5-0.5c1.1-0.3,2.1-0.9,2.8-1.6c0.7-0.7,1.1-1.7,1.1-2.9c0-1.3-0.4-2.4-1.3-3.4
			c-0.9-0.9-2-1.8-3.5-2.5c-1.4-0.8-3-1.5-4.7-2.3c-1.7-0.8-3.4-1.6-5.1-2.6c-1.7-0.9-3.3-2.1-4.8-3.3s-2.6-2.8-3.5-4.7
			c-0.9-1.8-1.3-4-1.3-6.5c0-2.8,0.6-5.3,1.7-7.3c1.1-2,2.6-3.6,4.5-4.9c1.9-1.2,4-2.2,6.3-2.7c2.3-0.6,4.7-0.9,7-0.9
			c1,0,2.4,0.1,4,0.2c1.7,0.2,3.4,0.5,5.1,0.9c1.7,0.5,3.1,1.1,4.3,2c1.2,0.9,1.8,2.1,1.8,3.5c0,0.7-0.2,1.5-0.5,2.5
			c-0.3,1-0.8,1.9-1.5,2.6c-0.7,0.8-1.6,1.1-2.7,1.1c-0.9,0-1.8-0.2-2.6-0.7c-0.8-0.5-1.8-1-3-1.4c-1.2-0.5-2.8-0.7-4.9-0.7
			c-1.8,0-3.2,0.2-4.4,0.6c-1.1,0.4-2,1-2.5,1.7c-0.5,0.7-0.8,1.4-0.8,2.2c0,1.1,0.4,2,1.3,2.8c0.9,0.8,2,1.5,3.5,2.2
			c1.4,0.7,3,1.4,4.7,2.1c1.7,0.7,3.4,1.6,5.1,2.6c1.7,1,3.3,2.2,4.8,3.5c1.4,1.4,2.6,3,3.5,5c0.9,2,1.3,4.3,1.3,7.1
			c0,3.6-0.8,6.7-2.5,9.2c-1.7,2.5-3.9,4.4-6.7,5.7C217.7,72.3,214.4,72.9,210.7,72.9z"/>
		<path class="st0" d="M255.7,72.6c-3.5,0-6.7-0.6-9.5-1.7c-2.8-1.2-5.1-3.1-6.7-5.7c-1.7-2.6-2.5-6.1-2.5-10.5V34.6
			c0-4.4,0.8-7.9,2.5-10.5c1.7-2.6,3.9-4.5,6.7-5.7c2.8-1.2,6-1.7,9.5-1.7c3.5,0,6.7,0.6,9.5,1.7c2.8,1.2,5.1,3.1,6.8,5.7
			c1.7,2.6,2.5,6.1,2.5,10.5v20.1c0,4.4-0.8,7.9-2.5,10.5c-1.7,2.6-3.9,4.5-6.8,5.7C262.4,72.1,259.2,72.6,255.7,72.6z M255.7,62.3
			c2.1,0,3.8-0.6,5-1.8c1.2-1.2,1.8-3.1,1.8-5.8V34.6c0-2.6-0.6-4.6-1.8-5.8c-1.2-1.2-2.9-1.8-5-1.8c-2.1,0-3.8,0.6-5,1.8
			c-1.2,1.2-1.8,3.1-1.8,5.8v20.1c0,2.6,0.6,4.6,1.8,5.8S253.6,62.3,255.7,62.3z"/>
		<path class="st0" d="M314.5,72.6c-0.8,0-1.5-0.2-2.2-0.5c-0.7-0.3-1.2-0.9-1.6-1.7l-10.4-20.2h-5v18.3c0,1.2-0.6,2.1-1.9,2.7
			c-1.2,0.6-2.6,0.9-4.1,0.9c-1.5,0-2.8-0.3-4.1-0.9c-1.2-0.6-1.9-1.5-1.9-2.7V20.2c0-1,0.3-1.8,1-2.5c0.7-0.7,1.5-1.1,2.7-1.1h15.8
			c3.5,0,6.7,0.5,9.5,1.5c2.8,1,5.1,2.7,6.7,5c1.7,2.4,2.5,5.6,2.5,9.8c0,2.8-0.4,5.3-1.2,7.3c-0.8,2.1-1.9,3.7-3.3,5.1
			c-1.4,1.3-3,2.3-4.8,3l9.3,16.8c0.2,0.2,0.3,0.4,0.3,0.7c0.1,0.3,0.1,0.5,0.1,0.7c0,1-0.4,1.9-1.1,2.9c-0.8,1-1.7,1.7-2.9,2.4
			C316.8,72.3,315.6,72.6,314.5,72.6z M295.2,41.1h7.5c2.1,0,3.8-0.5,5-1.6c1.2-1,1.8-2.9,1.8-5.5c0-2.7-0.6-4.5-1.8-5.5
			c-1.2-1-2.9-1.5-5-1.5h-7.5V41.1z"/>
		<path class="st0" d="M348,72.6c-3.5,0-6.7-0.6-9.5-1.7c-2.8-1.2-5.1-3.1-6.7-5.7c-1.6-2.6-2.5-6.1-2.5-10.5V34.6
			c0-4.4,0.8-7.9,2.5-10.5c1.6-2.6,3.9-4.5,6.7-5.7c2.8-1.2,6-1.7,9.5-1.7s6.7,0.6,9.5,1.7c2.8,1.2,5.1,3.1,6.7,5.7
			c1.6,2.6,2.5,6.1,2.5,10.5v20.1c0,4.4-0.8,7.9-2.5,10.5c-1.6,2.6-3.9,4.5-6.7,5.7C354.6,72.1,351.5,72.6,348,72.6z M348,62.3
			c2.1,0,3.8-0.6,5-1.8c1.2-1.2,1.8-3.1,1.8-5.8V34.6c0-2.6-0.6-4.6-1.8-5.8c-1.2-1.2-2.9-1.8-5-1.8s-3.8,0.6-5,1.8
			c-1.2,1.2-1.8,3.1-1.8,5.8v20.1c0,2.6,0.6,4.6,1.8,5.8S345.8,62.3,348,62.3z"/>
		<path class="st0" d="M375.7,72.2c-1.2,0-2.1-0.3-2.6-0.9c-0.5-0.6-0.8-1.3-0.8-2.2c0-1.3,0.4-2.7,1.3-4.2L395,27h-17.7
			c-1.1,0-2-0.5-2.6-1.6c-0.6-1-1-2.2-1-3.6c0-1.3,0.3-2.4,0.8-3.5c0.6-1.1,1.5-1.6,2.7-1.6h29.4c1.2,0,2,0.3,2.6,0.9
			c0.6,0.6,0.8,1.3,0.8,2.2c0,1.2-0.4,2.6-1.3,4.2l-21.5,37.9h20.7c1.2,0,2.1,0.6,2.7,1.7c0.6,1.1,0.9,2.3,0.9,3.5s-0.3,2.4-0.9,3.5
			c-0.6,1.1-1.5,1.7-2.7,1.7H375.7z"/>
		<path class="st0" d="M424.6,72.2c-1.1,0-2.2-0.2-3.4-0.6c-1.2-0.4-2.2-1-3-1.7c-0.8-0.7-1.2-1.6-1.2-2.5c0-0.2,0-0.4,0.2-0.8
			l14.2-46.4c0.4-1.3,1.4-2.3,2.9-3c1.5-0.7,3.1-1,4.9-1c1.8,0,3.4,0.3,4.9,1c1.5,0.7,2.4,1.6,2.9,3L461,66.5
			c0.1,0.4,0.2,0.7,0.2,0.8c0,0.9-0.4,1.7-1.2,2.5c-0.8,0.7-1.8,1.3-3,1.7c-1.2,0.4-2.3,0.6-3.4,0.6c-1,0-1.8-0.2-2.5-0.5
			c-0.7-0.3-1.2-0.9-1.4-1.7l-2.6-9.5H431l-2.6,9.5c-0.2,0.8-0.7,1.4-1.4,1.7C426.4,72,425.5,72.2,424.6,72.2z M433.5,51.4h11.1
			L439,31L433.5,51.4z"/>
		<path class="st0" d="M480,72.2c-1.5,0-2.8-0.3-4.1-0.9c-1.2-0.6-1.9-1.5-1.9-2.7V27.3h-10.5c-1.1,0-2-0.5-2.6-1.6
			c-0.6-1.1-1-2.3-1-3.8c0-1.3,0.3-2.5,0.8-3.6c0.6-1.1,1.5-1.7,2.7-1.7h32.9c1.3,0,2.2,0.6,2.7,1.7c0.6,1.1,0.8,2.3,0.8,3.6
			c0,1.4-0.3,2.7-0.9,3.8c-0.6,1.1-1.5,1.6-2.7,1.6h-10.5v41.3c0,1.2-0.6,2.1-1.9,2.7C482.8,71.9,481.4,72.2,480,72.2z"/>
		<path class="st0" d="M196.8,143.9c-0.8,0-1.5-0.2-2.2-0.6c-0.7-0.4-1-0.9-1-1.7V90.5c0-0.8,0.3-1.3,1-1.7c0.7-0.4,1.4-0.5,2.2-0.5
			c0.8,0,1.5,0.2,2.2,0.5c0.7,0.4,1,0.9,1,1.7v25.2l20.5-26.5c0.5-0.6,1.1-0.9,1.9-0.9c0.6,0,1.1,0.2,1.7,0.5c0.6,0.3,1,0.7,1.4,1.2
			c0.4,0.5,0.5,1,0.5,1.6c0,0.2,0,0.4-0.1,0.7c-0.1,0.3-0.2,0.5-0.4,0.7l-15.5,19.4l18,27.4c0.3,0.4,0.4,0.7,0.4,1.1
			c0,0.6-0.2,1.1-0.5,1.6c-0.4,0.5-0.8,0.9-1.4,1.2c-0.6,0.3-1.2,0.5-1.8,0.5c-0.4,0-0.8-0.1-1.2-0.3c-0.4-0.2-0.8-0.5-1.1-1
			l-16.7-25l-5.7,7.1v16.8c0,0.8-0.3,1.3-1,1.7C198.3,143.7,197.6,143.9,196.8,143.9z"/>
		<path class="st0" d="M240.7,143.9c-0.7,0-1.4-0.2-2-0.6c-0.6-0.4-0.9-0.9-0.9-1.7V90.5c0-0.8,0.3-1.3,1-1.7
			c0.7-0.4,1.4-0.5,2.2-0.5c0.8,0,1.6,0.2,2.2,0.5c0.7,0.4,1,0.9,1,1.7v47.6h21.2c0.7,0,1.3,0.3,1.6,0.9c0.3,0.6,0.5,1.3,0.5,2
			c0,0.7-0.2,1.4-0.5,2c-0.3,0.6-0.9,0.9-1.6,0.9H240.7z"/>
		<path class="st0" d="M292,144.4c-3.2,0-6-0.5-8.5-1.6c-2.5-1.1-4.5-2.8-6-5.2c-1.5-2.4-2.2-5.6-2.2-9.7V90.5c0-0.8,0.3-1.3,1-1.7
			c0.6-0.4,1.4-0.5,2.3-0.5c0.8,0,1.6,0.2,2.2,0.5c0.7,0.4,1,0.9,1,1.7v37.3c0,3.7,0.9,6.4,2.7,8.2c1.8,1.7,4.3,2.6,7.6,2.6
			c3.2,0,5.7-0.9,7.5-2.6c1.8-1.7,2.7-4.5,2.7-8.2V90.5c0-0.8,0.3-1.3,1-1.7c0.7-0.4,1.4-0.5,2.2-0.5c0.8,0,1.6,0.2,2.2,0.5
			c0.7,0.4,1,0.9,1,1.7v37.3c0,4.1-0.7,7.3-2.2,9.7c-1.5,2.4-3.5,4.2-6,5.2C298,143.8,295.1,144.4,292,144.4z"/>
		<path class="st0" d="M323.7,143.9c-0.9,0-1.6-0.2-2.1-0.6c-0.5-0.4-0.8-0.9-0.8-1.6V90.6c0-0.8,0.3-1.3,0.9-1.7
			c0.6-0.4,1.3-0.6,2-0.6h13.1c2.8,0,5.4,0.3,7.7,1c2.4,0.7,4.2,2,5.6,3.8c1.4,1.9,2.1,4.6,2.1,8.1c0,3.2-0.6,5.9-1.8,8
			c-1.2,2.1-2.7,3.6-4.7,4.5c1.6,0.6,2.9,1.4,4.1,2.5c1.2,1,2.1,2.4,2.7,4c0.7,1.6,1,3.8,1,6.4v1.4c0,3.9-0.7,7-2,9.3
			c-1.3,2.3-3.1,4-5.4,5c-2.3,1-4.9,1.5-7.7,1.5H323.7z M327.2,111.1h9.5c3.2,0,5.5-0.7,6.9-2.1c1.5-1.4,2.2-3.7,2.2-6.8
			c0-2.1-0.4-3.7-1.2-4.9c-0.8-1.2-1.9-2-3.3-2.5c-1.4-0.5-3-0.7-4.9-0.7h-9.3V111.1z M327.2,138.1h10.3c3.1,0,5.5-0.8,7.2-2.5
			c1.7-1.7,2.6-4.3,2.6-7.9v-1.3c0-3.7-0.9-6.2-2.6-7.7c-1.7-1.5-4.1-2.2-7.2-2.2h-10.3V138.1z"/>
	</g>
	<g>
		<rect class="st0" width="160.3" height="160"/>
		<g>
			<ellipse class="st1" cx="30.6" cy="80" rx="17.3" ry="17.3"/>
			<ellipse class="st1" cx="80.1" cy="79.8" rx="17.3" ry="17.3"/>
			<ellipse class="st1" cx="129.6" cy="79.8" rx="17.3" ry="17.3"/>
		</g>
	</g>
</g>
</svg>
