<svg xmlns="http://www.w3.org/2000/svg" width="373.1" height="301.3" xmlns:v="https://vecta.io/nano"><defs><linearGradient id="A" gradientUnits="userSpaceOnUse"><stop offset=".6" stop-color="#ae80b7"/><stop offset="1" stop-color="#dc8bba"/></linearGradient><linearGradient id="B" gradientUnits="userSpaceOnUse"><stop offset=".3" stop-color="#ae80b7"/><stop offset="1" stop-color="#dc8bba"/></linearGradient><linearGradient id="C" gradientUnits="userSpaceOnUse"><stop offset="0" stop-color="#ae80b7"/><stop offset=".2" stop-color="#ed8fbb"/><stop offset=".5" stop-color="#8aa2d4"/><stop offset=".5" stop-color="#8ca6d6"/><stop offset=".6" stop-color="#9cbee1"/><stop offset=".7" stop-color="#a8d0e9"/><stop offset=".8" stop-color="#aedaee"/><stop offset="1" stop-color="#b1def0"/></linearGradient><linearGradient href="#A" id="D" x1="148.2" x2="160.1" y1="409.3" y2="341.6"/><linearGradient href="#A" id="E" x1="206.2" x2="220.8" y1="437.2" y2="354.7"/><linearGradient href="#A" id="F" x1="255" x2="267.9" y1="408.9" y2="335.7"/><linearGradient href="#B" id="G" x1="286.6" x2="296.7" y1="410" y2="352.9"/><linearGradient href="#B" id="H" x1="317.7" x2="330.6" y1="408.9" y2="335.7"/><linearGradient href="#B" id="I" x1="350.6" x2="361.9" y1="407.6" y2="343.4"/><linearGradient href="#B" id="J" x1="400.3" x2="412.7" y1="408" y2="337.9"/><linearGradient href="#B" id="K" x1="460.3" x2="472.9" y1="408" y2="336.4"/><linearGradient href="#C" id="L" x1="377" x2="377" y1="317.8" y2="242.4"/><linearGradient href="#C" id="M" x1="208.6" x2="208.6" y1="317.8" y2="242.4"/><linearGradient href="#C" id="N" x1="234.2" x2="234.2" y1="302.5" y2="160.5"/><linearGradient href="#C" id="O" x1="292.6" x2="292.6" y1="301.8" y2="142.9"/><linearGradient href="#C" id="P" x1="351.2" x2="351.2" y1="302.6" y2="160.4"/></defs><g transform="translate(-130.6 -133.2)"><path d="M142.2 407.4c-3.6-1.6-6.4-3.8-8.5-6.7s-3.1-6.3-3.1-10.2h11.8c.3 2.9 1.4 5.3 3.4 7.2s4.9 2.8 8.6 2.8 6.8-.9 8.9-2.8c2.1-1.8 3.2-4.2 3.2-7.1s-.7-4.1-2-5.5-3-2.5-4.9-3.3c-2-.8-4.7-1.6-8.2-2.5-4.4-1.2-7.9-2.3-10.7-3.5-2.7-1.2-5.1-3-7-5.6s-2.9-5.9-2.9-10.1 1-7.3 2.9-10.2 4.6-5.1 8.1-6.7c3.5-1.5 7.5-2.3 12.1-2.3 6.5 0 11.8 1.6 16 4.9s6.5 7.7 6.9 13.4h-12.2c-.2-2.4-1.4-4.5-3.5-6.3-2.1-1.7-4.9-2.6-8.4-2.6s-5.7.8-7.7 2.4-3 3.9-3 7 .6 3.8 1.9 5.1 2.9 2.4 4.8 3.1c1.9.8 4.6 1.6 7.9 2.5 4.4 1.2 8.1 2.4 10.9 3.7q4.2 1.8 7.2 5.7c2 2.5 2.9 5.9 2.9 10.2s-.9 6.6-2.8 9.7c-1.8 3-4.5 5.5-8 7.3s-7.7 2.8-12.4 2.8-8.6-.8-12.2-2.4" fill="url(#D)"/><path d="M209.3 357.5c3.2-1.7 6.9-2.5 10.9-2.5s8.9 1.1 12.7 3.4q5.7 3.45 9 9.6c2.2 4.1 3.3 8.9 3.3 14.2q0 7.95-3.3 14.4-3.3 6.3-9 9.9c-3.8 2.4-8.1 3.5-12.7 3.5s-7.7-.8-10.8-2.5c-3.2-1.6-5.7-3.7-7.7-6.1v33.1h-11v-78.6h11v7.8c1.9-2.4 4.4-4.5 7.6-6.2m22.5 15.2c-1.5-2.7-3.5-4.7-6-6.1s-5.1-2.1-8-2.1-5.4.7-7.9 2.1-4.5 3.5-6 6.2-2.3 5.9-2.3 9.6.8 6.9 2.3 9.6 3.5 4.8 6 6.2 5.1 2.1 7.9 2.1 5.5-.7 8-2.2c2.5-1.4 4.5-3.6 6-6.3 1.5-2.8 2.3-6 2.3-9.7s-.8-6.8-2.3-9.5z" fill="url(#E)"/><path d="M256.8 346.8c-1.4-1.4-2-3-2-5s.7-3.7 2-5c1.4-1.4 3-2 5-2s3.6.7 4.9 2c1.4 1.4 2 3 2 5s-.7 3.7-2 5c-1.4 1.4-3 2-4.9 2s-3.7-.7-5-2m10.4 9.1v53.3h-11v-53.3z" fill="url(#F)"/><path d="M299.2 357.3c2.7-1.5 5.8-2.3 9.5-2.3v11.4h-2.8c-4.3 0-7.6 1.1-9.8 3.3q-3.3 3.3-3.3 11.4v28h-11v-53.3h11v7.7c1.6-2.7 3.8-4.8 6.4-6.3z" fill="url(#G)"/><path d="M319.4 346.8c-1.4-1.4-2-3-2-5s.7-3.7 2-5c1.4-1.4 3-2 5-2s3.6.7 4.9 2c1.4 1.4 2 3 2 5s-.7 3.7-2 5c-1.4 1.4-3 2-4.9 2s-3.7-.7-5-2m10.5 9.1v53.3h-11v-53.3z" fill="url(#H)"/><path d="M357.2 364.9v29.5c0 2 .5 3.4 1.4 4.3s2.5 1.3 4.8 1.3h6.8v9.2h-8.7c-5 0-8.8-1.2-11.4-3.5s-4-6.1-4-11.3v-29.5h-6.3v-9h6.3v-13.2h11.1v13.2h13v9z" fill="url(#I)"/><path d="M434.6 341.8v9h-17.9V409h-11v-58.2h-18v-9z" fill="url(#J)"/><path d="M503.7 341.8 478.5 409h-12.8l-25.3-67.2h11.8l19.9 55.9 20-55.9z" fill="url(#K)"/><path d="M426.3 239.9c-8.4-1.5-16.8-2.1-25.4-2.1-.6 0-.9.2-1.1.8-2.6 8.1-6 15.8-10.4 23.1-7.5 12.4-17.3 22.8-28.6 31.7-12.7 10.1-26.8 17.9-41.7 24.2-2.5 1.1-5.1 2.1-7.7 3.1v.2c.6 0 1.2.2 1.8.3 8.3 1.2 16.6 1.8 24.9 1.7a111.13 111.13 0 0 0 21.5-2.1c9.4-1.8 18.4-4.8 26.9-9.3 10.8-5.8 20.1-13.6 28.2-22.8 10.4-11.8 18.5-25.1 25-39.4l2.6-6c-.4-.1-.6-.2-.9-.3l-15.2-3.2z" fill="url(#L)"/><path d="M218.9 288.8c-8-7-15-14.9-20.8-23.8-5.4-8.2-9.5-17.1-12.5-26.5-.2-.5-.4-.8-1-.7-3.9.2-7.9.2-11.8.5-6.9.5-13.8 1.5-20.5 2.9-3 .6-5.9 1.3-8.9 2 .2.4.2.7.3.9 2.8 7 6.2 13.8 9.9 20.4 7.2 12.5 15.7 23.8 26.4 33.5 9.9 9 21.1 15.7 33.8 19.7 11.4 3.6 23.2 5.2 35.1 5.1 5.6 0 11.2-.5 16.8-.9 2.7-.2 5.4-.7 8.1-1-.2-.2-.4-.4-.6-.4-7-2.7-13.9-5.7-20.6-9.1-12.1-6.2-23.5-13.6-33.7-22.6" fill="url(#M)"/><path d="M279.1 312.2l-3.2-4c-10-12.6-18.4-26.2-24.6-41.1-5.4-13.1-8.8-26.6-9.3-40.8-.2-6.6.2-13.2 1.3-19.8 1.4-8.5 3.7-16.7 6.8-24.7.2-.5 0-.7-.3-1-1.5-1.1-2.9-2.3-4.3-3.4-13.3-9.9-27.9-17.4-43.4-23.2-2.3-.9-4.7-1.6-7.1-2.5-.1.4-.2.6-.3.9-3 12.2-4.8 24.7-5.3 37.3-.2 6.2-.1 12.5.4 18.7.6 6.7 1.6 13.4 3.2 19.9 2.9 11.8 7.6 22.9 14.5 32.9 7.5 10.8 16.7 19.7 27.2 27.4 13.4 9.8 28 17.3 43.6 23.1.2 0 .4.1.8.2z" fill="url(#N)"/><path d="M292.6 312.7s.2-.1.2-.2c11.8-12.9 21.8-27.1 29.3-42.9 6.2-13.1 10.3-26.8 11.2-41.4.5-8-.2-15.8-1.7-23.6-2.2-10.9-6-21.3-11-31.2-5.6-11.1-12.4-21.4-20.3-31.1l-7.8-9.1c-.2.3-.2.4-.3.5-3.3 4-6.8 7.8-10 11.9-8.8 11.3-16.2 23.4-21.7 36.6-5.9 14-9.3 28.6-8.7 43.9.1 3.7.5 7.5 1 11.2 1.3 8.7 3.8 17.2 7.1 25.4 7.6 18.7 18.7 35.1 32.3 49.9 0 .1.2.2.3.3z" fill="url(#O)"/><path d="M330.1 301.7c13.6-7.2 26.1-15.9 36.9-27 11.1-11.4 19.2-24.7 23.8-40 2.8-9.2 4.4-18.7 5.1-28.3.5-7.4.4-14.7 0-22.1-.5-7.3-1.4-14.6-2.8-21.8-.7-3.6-1.5-7.1-2.3-10.8q-.6.15-.9.3l-6.6 2.3c-17.1 6.4-33 14.9-47.3 26.4-.7.6-.8 1-.5 1.8 5.3 13.9 8.3 28.2 7.9 43.1-.1 5.1-.6 10.2-1.5 15.2-2.2 12.8-6.6 24.9-12.4 36.5a179.68 179.68 0 0 1-22.5 34.1c-.2.2-.4.5-.7.8.5-.2.7-.2 1-.3 7.9-2.9 15.6-6.3 23-10.2z" fill="url(#P)"/></g></svg>