<svg width="352" height="73" viewBox="0 0 352 73" fill="none" xmlns="http://www.w3.org/2000/svg">
<g clip-path="url(#clip0_17_2445)">
<path d="M193.435 46.8633C198.533 46.8833 202.737 42.758 202.79 37.6844C202.844 32.5794 198.632 28.3254 193.508 28.3111C188.372 28.2968 184.144 32.5021 184.161 37.6115C184.176 42.6965 188.335 46.8447 193.435 46.8633Z" fill="#FDEA00"/>
<path d="M122.697 37.6585C122.659 48.8685 113.551 57.8728 102.304 57.8227C91.1784 57.7727 82.1284 48.6139 82.1927 37.4711C82.2571 26.3441 91.4288 17.2754 102.547 17.3427C113.716 17.4113 122.734 26.5043 122.697 37.6585ZM102.416 46.8616C107.514 46.8817 111.717 42.7564 111.77 37.6828C111.825 32.5778 107.612 28.3238 102.489 28.3095C97.352 28.2952 93.1238 32.5005 93.1409 37.6099C93.1567 42.6949 97.3148 46.8431 102.416 46.8616Z" fill="#FDEA00"/>
<path d="M179.125 46.8645C173.705 46.7601 169.777 42.7965 169.737 37.3796C169.72 35.0881 169.733 32.7966 169.733 30.5052C169.733 29.8057 169.733 29.1062 169.733 28.2795H180.702V17.2926H169.704V10.082H158.792V10.6871C158.799 19.9646 158.646 29.2464 158.864 38.5196C159.078 47.524 165.48 55.095 174.254 57.2463C176.374 57.7656 178.527 57.9658 180.739 57.7527V46.8674C180.157 46.8674 179.641 46.876 179.125 46.8674V46.8645Z" fill="black"/>
<path d="M263.47 17.2598L254.546 39.91L245.486 17.2598H233.423L249.361 57.6469H259.731L275.478 17.2598H263.47Z" fill="black"/>
<path d="M58.5937 17.3427C47.5468 17.2754 38.4266 26.2268 38.2449 37.2551L38.2392 37.2523V37.4182C38.2392 37.4354 38.2378 37.454 38.2378 37.4711C38.2378 37.4997 38.2392 37.5269 38.2392 37.5555V65.2951H49.2232V55.5756C51.9653 56.9945 55.0649 57.8084 58.3491 57.8227C69.5977 57.8742 78.705 48.8685 78.7436 37.6585C78.7808 26.5043 69.7622 17.4113 58.5937 17.3427ZM58.4621 46.8631C53.3613 46.8431 49.2046 42.6964 49.1874 37.6113C49.1703 32.5034 53.3999 28.2966 58.535 28.3109C63.6587 28.3252 67.8712 32.5792 67.8169 37.6843C67.7625 42.7579 63.5586 46.8817 58.4621 46.8631Z" fill="black"/>
<path d="M146.108 17.4199C134.99 17.3527 125.818 26.4213 125.753 37.5484L125.715 57.6811H136.71L136.703 37.6871C136.687 32.5792 140.916 28.3724 146.051 28.3867H155.194V17.4185H146.108V17.4199Z" fill="black"/>
<path d="M21.1606 32.9668C20.6971 32.818 20.2537 32.6736 19.8289 32.5334C18.337 31.9712 17.3357 31.525 16.5819 31.0844C15.9339 30.7053 15.5463 30.0631 15.5677 29.4094C15.5892 28.7943 15.8953 28.3137 16.5061 27.939C19.4226 26.151 28.1809 27.5313 33.5921 29.9315V19.3566C30.4853 18.3825 25.9695 17.3026 21.1978 17.2911C16.416 17.2783 12.5925 18.3425 9.8147 20.4509C6.57486 22.9097 5 25.8535 5 29.4495C5 36.7416 12.3579 40.0472 18.7675 42.1127C19.231 42.2615 19.6744 42.4059 20.0992 42.5461C21.1048 42.9252 22.3807 43.4315 23.3462 43.9965C23.9942 44.3756 24.3818 45.0178 24.3603 45.6715C24.3389 46.2866 24.0328 46.7672 23.422 47.142C20.4339 48.9729 11.3137 47.4795 5.94406 44.9721L5.67228 44.8448V55.5112L5.80388 55.5541C8.91355 56.5668 13.6796 57.7769 18.7303 57.7898H18.809C23.5479 57.7898 27.3513 56.727 30.1134 54.6301C33.3532 52.1698 34.9281 49.2275 34.9281 45.6315C34.9281 38.3393 27.5701 35.0337 21.1606 32.9682V32.9668Z" fill="black"/>
<path d="M228.277 46.8645C222.857 46.7601 218.929 42.7965 218.889 37.3796C218.872 35.0881 218.885 32.7966 218.885 30.5052C218.885 29.8057 218.885 29.1062 218.885 28.2795H229.855V17.2926H218.856V10.082H207.944V10.6871C207.95 19.9646 207.798 29.2464 208.017 38.5196C208.23 47.524 214.632 55.095 223.406 57.2463C225.526 57.7656 227.679 57.9658 229.892 57.7527V46.8674C229.31 46.8674 228.793 46.876 228.277 46.8674V46.8645Z" fill="black"/>
<path d="M315.066 5C297.393 5 283.066 19.3268 283.066 36.9993C283.066 54.6718 297.393 68.9986 315.066 69C332.74 69 347.065 54.6732 347.065 37.0007C347.065 19.3282 332.738 5.00143 315.066 5Z" fill="#FDEA00"/>
<path d="M321.391 32.4962L326.898 25.1583V17.3984H301.832V25.3371H316.838L310.054 34.3758V38.7356H314.724C318.03 38.7356 320.72 41.4262 320.72 44.7318C320.72 48.0374 318.03 50.728 314.724 50.728C312.118 50.728 309.825 49.0644 309.02 46.5884L301.47 49.043C303.341 54.7989 308.668 58.6667 314.724 58.6667C322.408 58.6667 328.659 52.4158 328.659 44.7318C328.659 39.4608 325.718 34.8649 321.39 32.4976L321.391 32.4962Z" fill="black"/>
</g>
<defs>
<clipPath id="clip0_17_2445">
<rect width="342.065" height="64" fill="white" transform="translate(5 5)"/>
</clipPath>
</defs>
</svg>
