<svg width="87" height="22" viewBox="0 0 87 22" fill="none" xmlns="http://www.w3.org/2000/svg">
<g clip-path="url(#clip0_5016_168)">
<path d="M9.20691 13.1746V4.63761H5.45491L1.08691 15.1396H7.05691V17.3336H9.20691V15.1396H10.3399V13.1736H9.20691V13.1746ZM4.02091 13.1746L6.65391 6.63161H7.11791V13.1746H4.02091ZM29.7689 4.63761V10.7636C29.7689 15.6936 27.3389 17.3336 23.7849 17.3336H20.2599L19.0099 4.63661H21.2369L22.2769 15.5986H23.6899C26.1439 15.5986 27.6379 14.8426 27.6379 10.0086V6.40861H24.7659V4.63661H29.7699L29.7689 4.63761ZM34.9499 4.63761C38.4349 4.63761 39.2129 6.99361 39.2129 10.2246V17.3346H36.9859V10.0816C36.9859 8.19361 36.6089 6.40861 34.8319 6.40861H31.0019V4.63761H34.9499ZM43.5309 4.63761V17.3346H41.2819V4.63761H43.5309ZM50.0819 4.63761C53.5399 4.63761 55.2029 6.27661 55.2029 9.73561V12.2606C55.2029 15.6956 53.4209 17.3346 50.0819 17.3346H45.6759V15.5996H50.1759C51.8529 15.5996 53.0089 14.8816 53.0089 12.3896V9.55561C53.0089 7.05561 51.9079 6.42061 50.1759 6.42061H47.7959V11.4816H45.6519V4.63761H50.0819ZM62.7169 17.5196C60.987 17.5196 59.328 16.8324 58.1048 15.6092C56.8816 14.386 56.1944 12.727 56.1944 10.9971C56.1944 9.26724 56.8816 7.60821 58.1048 6.38501C59.328 5.1618 60.987 4.47461 62.7169 4.47461C64.4468 4.47461 66.1058 5.1618 67.329 6.38501C68.5522 7.60821 69.2394 9.26724 69.2394 10.9971C69.2394 12.727 68.5522 14.386 67.329 15.6092C66.1058 16.8324 64.4468 17.5196 62.7169 17.5196ZM62.7169 6.31661C61.4754 6.31661 60.2848 6.80978 59.4069 7.68764C58.5291 8.5655 58.0359 9.75613 58.0359 10.9976C58.0359 12.2391 58.5291 13.4297 59.4069 14.3076C60.2848 15.1854 61.4754 15.6786 62.7169 15.6786C63.9584 15.6786 65.149 15.1854 66.0269 14.3076C66.9047 13.4297 67.3979 12.2391 67.3979 10.9976C67.3979 9.75613 66.9047 8.5655 66.0269 7.68764C65.149 6.80978 63.9584 6.31661 62.7169 6.31661Z" fill="black"/>
<path d="M62.717 17.59C61.4132 17.59 60.1387 17.2034 59.0547 16.4791C57.9706 15.7547 57.1257 14.7252 56.6268 13.5207C56.1279 12.3161 55.9973 10.9907 56.2517 9.71198C56.506 8.43325 57.1338 7.25867 58.0558 6.33677C58.9777 5.41486 60.1522 4.78703 61.431 4.53268C62.7097 4.27832 64.0351 4.40887 65.2397 4.9078C66.4442 5.40673 67.4737 6.25165 68.1981 7.33569C68.9224 8.41974 69.309 9.69424 69.309 10.998C69.3069 12.7457 68.6117 14.4211 67.3759 15.6569C66.1401 16.8927 64.4647 17.5879 62.717 17.59ZM62.717 4.54501C61.8694 4.54475 61.03 4.71144 60.2468 5.03557C59.4636 5.35969 58.7519 5.83491 58.1524 6.43408C57.5529 7.03325 57.0772 7.74464 56.7526 8.52764C56.428 9.31063 56.2608 10.1499 56.2605 10.9975C56.2602 11.8451 56.4269 12.6845 56.7511 13.4677C57.0752 14.2509 57.5504 14.9626 58.1496 15.5621C58.7487 16.1617 59.4601 16.6373 60.2431 16.9619C61.0261 17.2865 61.8654 17.4538 62.713 17.454C64.4248 17.4545 66.0668 16.775 67.2776 15.5649C68.4884 14.3549 69.169 12.7134 69.1695 11.0015C69.17 9.28967 68.4905 7.64774 67.2804 6.43691C66.0704 5.22608 64.4288 4.54554 62.717 4.54501ZM62.717 15.749C62.0931 15.7488 61.4753 15.6256 60.899 15.3866C60.3227 15.1476 59.7991 14.7974 59.3581 14.3561C58.9171 13.9147 58.5674 13.3908 58.3289 12.8143C58.0904 12.2378 57.9677 11.6199 57.968 10.996C57.9683 10.3721 58.0914 9.75435 58.3304 9.17804C58.5694 8.60172 58.9196 8.07812 59.361 7.63713C59.8023 7.19615 60.3262 6.84641 60.9027 6.6079C61.4792 6.36938 62.0971 6.24675 62.721 6.24701C63.981 6.24754 65.1893 6.7486 66.0799 7.63996C66.9705 8.53132 67.4705 9.73997 67.47 11C67.4695 12.2601 66.9684 13.4683 66.0771 14.3589C65.1857 15.2495 63.977 15.7495 62.717 15.749ZM62.717 6.38601C62.1111 6.38575 61.5112 6.50482 60.9513 6.73643C60.3915 6.96804 59.8828 7.30764 59.4542 7.73586C59.0256 8.16408 58.6855 8.67252 58.4534 9.23216C58.2214 9.79179 58.1018 10.3917 58.1015 10.9975C58.1012 11.6034 58.2203 12.2033 58.4519 12.7632C58.6835 13.323 59.0231 13.8317 59.4514 14.2603C59.8796 14.6889 60.388 15.029 60.9476 15.2611C61.5073 15.4932 62.1072 15.6128 62.713 15.613C63.9366 15.6135 65.1103 15.128 65.9758 14.2632C66.8414 13.3983 67.328 12.2251 67.3285 11.0015C67.329 9.77794 66.8435 8.60426 65.9787 7.73869C65.1138 6.87312 63.9406 6.38654 62.717 6.38601ZM81.72 6.33701C81.5355 6.31371 81.3574 6.254 81.1961 6.16135C81.0349 6.0687 80.8936 5.94495 80.7805 5.79728C80.6675 5.64961 80.5848 5.48096 80.5374 5.30111C80.49 5.12126 80.4788 4.93379 80.5044 4.74957C80.5301 4.56535 80.592 4.38806 80.6867 4.22796C80.7813 4.06786 80.9068 3.92816 81.0559 3.81694C81.205 3.70573 81.3747 3.62522 81.5551 3.58008C81.7355 3.53495 81.9231 3.52609 82.107 3.55401C82.4738 3.60803 82.8044 3.80484 83.0267 4.10155C83.249 4.39826 83.345 4.77082 83.2938 5.13803C83.2426 5.50523 83.0484 5.83732 82.7534 6.06191C82.4584 6.2865 82.0876 6.38538 81.72 6.33701Z" fill="black"/>
<path d="M83.6228 10.0741C83.8666 8.79189 84.3301 7.56145 84.9928 6.43708L86.6178 3.65608L85.9318 3.08908C85.9318 3.08908 84.2758 5.78808 83.5998 6.57708C83.329 6.89974 82.973 7.13988 82.5724 7.27017C82.1718 7.40047 81.7427 7.41568 81.3338 7.31408C80.3478 7.06408 79.7458 6.20108 79.6518 5.23608C79.5568 4.27108 79.4358 1.20508 79.4358 1.20508H78.5898V22.0051H79.4688C79.4688 22.0051 80.1588 17.4941 80.3768 15.9721C80.4088 15.7471 80.5028 15.2791 81.0428 15.2771C81.14 15.2751 81.2364 15.2945 81.3252 15.3339C81.414 15.3733 81.4931 15.4317 81.5568 15.5051L85.4638 20.9251L86.1818 20.4601C86.1818 20.4601 84.6708 17.6601 84.2378 16.6931C83.2448 14.5181 83.1038 12.5161 83.6228 10.0741Z" fill="black"/>
<path d="M81.7202 6.33701C81.5356 6.31371 81.3576 6.254 81.1963 6.16135C81.035 6.0687 80.8938 5.94495 80.7807 5.79728C80.6676 5.64961 80.585 5.48096 80.5376 5.30111C80.4902 5.12126 80.479 4.93379 80.5046 4.74957C80.5302 4.56535 80.5922 4.38806 80.6868 4.22796C80.7815 4.06786 80.907 3.92816 81.0561 3.81694C81.2051 3.70573 81.3748 3.62522 81.5553 3.58008C81.7357 3.53495 81.9233 3.52609 82.1072 3.55401C82.474 3.60803 82.8045 3.80484 83.0269 4.10155C83.2492 4.39826 83.3452 4.77082 83.294 5.13803C83.2428 5.50523 83.0485 5.83732 82.7535 6.06191C82.4586 6.2865 82.0878 6.38538 81.7202 6.33701Z" fill="black"/>
<path d="M83.6229 10.0741C83.8667 8.79189 84.3301 7.56145 84.9929 6.43708L86.6179 3.65608L85.9319 3.08908C85.9319 3.08908 84.2759 5.78808 83.5999 6.57708C83.329 6.89974 82.9731 7.13988 82.5725 7.27017C82.1719 7.40047 81.7427 7.41568 81.3339 7.31408C80.3479 7.06408 79.7459 6.20108 79.6519 5.23608C79.5569 4.27108 79.4359 1.20508 79.4359 1.20508H78.5899V22.0051H79.4689C79.4689 22.0051 80.1589 17.4941 80.3769 15.9721C80.4089 15.7471 80.5029 15.2791 81.0429 15.2771C81.14 15.2751 81.2364 15.2945 81.3253 15.3339C81.4141 15.3733 81.4932 15.4317 81.5569 15.5051L85.4639 20.9251L86.1819 20.4601C86.1819 20.4601 84.6709 17.6601 84.2379 16.6931C83.2449 14.5181 83.1039 12.5161 83.6229 10.0741ZM72.2979 3.93208C72.2722 3.74987 72.2827 3.56439 72.3287 3.38622C72.3747 3.20806 72.4553 3.0407 72.566 2.89371C72.6767 2.74671 72.8153 2.62296 72.9738 2.52951C73.1323 2.43606 73.3077 2.37475 73.4899 2.34908C73.6721 2.3234 73.8576 2.33387 74.0357 2.37988C74.2139 2.42589 74.3813 2.50654 74.5283 2.61723C74.6753 2.72792 74.799 2.86647 74.8925 3.02499C74.9859 3.1835 75.0472 3.35887 75.0729 3.54108C75.1246 3.90907 75.028 4.28253 74.8044 4.5793C74.5807 4.87608 74.2484 5.07186 73.8804 5.12358C73.5124 5.1753 73.1389 5.07871 72.8422 4.85507C72.5454 4.63144 72.3496 4.30007 72.2979 3.93208Z" fill="black"/>
<path d="M72.2979 3.93167C72.2722 3.74946 72.2827 3.56398 72.3287 3.38581C72.3747 3.20765 72.4553 3.04029 72.566 2.89329C72.6767 2.7463 72.8153 2.62255 72.9738 2.5291C73.1323 2.43565 73.3077 2.37434 73.4899 2.34867C73.6721 2.32299 73.8576 2.33346 74.0357 2.37947C74.2139 2.42548 74.3813 2.50613 74.5283 2.61682C74.6753 2.7275 74.799 2.86606 74.8925 3.02457C74.9859 3.18309 75.0472 3.35846 75.0729 3.54067C75.1246 3.90865 75.028 4.28211 74.8044 4.57889C74.5807 4.87567 74.2484 5.07145 73.8804 5.12317C73.5124 5.17488 73.1389 5.0783 72.8422 4.85466C72.5454 4.63103 72.3496 4.29965 72.2979 3.93167Z" fill="black"/>
<path d="M76.1726 0C76.1726 0 76.0506 3.069 75.9676 4.022C75.8836 4.976 75.2896 5.941 74.2846 6.099C72.7056 6.349 72.0186 5.136 71.0966 4.241C70.1756 3.346 69.0666 2.326 69.0666 2.326L68.3726 3.021C69.6078 3.93957 70.609 5.13642 71.295 6.51442C71.9809 7.89242 72.3323 9.41275 72.3206 10.952C72.3206 14.197 70.8666 17.046 68.6766 18.67L69.3866 19.399C69.3866 19.399 70.0376 19.069 71.8976 17.082C72.3886 16.557 74.0506 14.282 74.0506 14.282C74.1136 14.2079 74.1924 14.1489 74.2812 14.1093C74.3699 14.0697 74.4664 14.0504 74.5636 14.053C75.1056 14.053 75.1986 14.521 75.2306 14.748C75.4476 16.258 76.1406 20.779 76.1406 20.779H77.0166V0H76.1726ZM13.3906 2.285H14.5026V20.034H13.3906V2.285Z" fill="black"/>
</g>
<path d="M5.14563 17C3.47896 17 2.20065 16.4797 1.31068 15.4391C0.436893 14.3829 0 12.8763 0 10.9194C0 9.50597 0.250809 8.28674 0.752427 7.26165C1.25405 6.22103 1.96602 5.42115 2.88835 4.86201C3.82686 4.28734 4.93528 4 6.21359 4C6.77994 4 7.29773 4.03106 7.76699 4.09319C8.23625 4.15532 8.64887 4.25627 9.00485 4.39606V6.23656C8.22816 5.97252 7.36246 5.8405 6.40777 5.8405C5.03236 5.8405 4.00485 6.21326 3.32524 6.95878C2.64563 7.68877 2.27346 8.82258 2.20874 10.3602C2.59709 9.81661 3.08252 9.41278 3.66505 9.14875C4.24757 8.88471 4.911 8.75269 5.65534 8.75269C6.91748 8.75269 7.95307 9.08662 8.76214 9.75448C9.58738 10.4068 10 11.3309 10 12.5269C10 13.8781 9.5712 14.9654 8.71359 15.7885C7.87217 16.5962 6.68285 17 5.14563 17ZM5.12136 15.2061C5.89806 15.2061 6.52104 14.9809 6.99029 14.5305C7.45955 14.0645 7.69417 13.4355 7.69417 12.6434C7.69417 11.9289 7.45955 11.3698 6.99029 10.966C6.53722 10.5621 5.93042 10.3602 5.1699 10.3602C4.40938 10.3602 3.7945 10.5699 3.32524 10.9892C2.87217 11.4086 2.64563 11.9755 2.64563 12.69C2.64563 13.4821 2.87217 14.1033 3.32524 14.5538C3.77832 14.9886 4.37702 15.2061 5.12136 15.2061Z" fill="black"/>
<defs>
<clipPath id="clip0_5016_168">
<rect width="74" height="22" fill="black" transform="translate(13)"/>
</clipPath>
</defs>
</svg>
