<svg xmlns="http://www.w3.org/2000/svg" xmlns:xlink="http://www.w3.org/1999/xlink" width="360" height="60" viewBox="0 0 360 60">
  <defs>
    <linearGradient id="linear-gradient" x1="-1.976" y1="-0.468" x2="2.244" y2="1.234" gradientUnits="objectBoundingBox">
      <stop offset="0" stop-color="#cdb47d"/>
      <stop offset="1" stop-color="#877350"/>
    </linearGradient>
    <linearGradient id="linear-gradient-2" x1="-11.488" y1="-0.241" x2="16.033" y2="1.461" xlink:href="#linear-gradient"/>
    <linearGradient id="linear-gradient-3" x1="-3.578" y1="-0.884" x2="1.445" y2="0.822" xlink:href="#linear-gradient"/>
    <linearGradient id="linear-gradient-4" x1="-1.343" y1="-0.045" x2="4.413" y2="1.658" xlink:href="#linear-gradient"/>
    <linearGradient id="linear-gradient-5" x1="-10.616" y1="-2.7" x2="16.905" y2="5.217" xlink:href="#linear-gradient"/>
    <linearGradient id="linear-gradient-6" x1="-0.105" y1="0.365" x2="4.899" y2="1.675" xlink:href="#linear-gradient"/>
  </defs>
  <g id="Prime_logo_channel" transform="translate(-420 -261)">
    <rect id="사각형_628" data-name="사각형 628" width="360" height="60" transform="translate(420 261)" fill="#fff" opacity="0"/>
    <g id="Layer_1" transform="translate(488 277)">
      <g id="그룹_1888" data-name="그룹 1888" transform="translate(0 0)">
        <g id="그룹_1885" data-name="그룹 1885">
          <g id="그룹_1884" data-name="그룹 1884">
            <path id="패스_1320" data-name="패스 1320" d="M53.283,23.066c0,2.012-.98,2.993-2.941,2.993H42.55V36.636H37.7V6.4H50.342c1.961,0,2.941.98,2.941,2.993V23.066Zm-4.85-12.538H42.55V22.034h5.934V10.528Z" transform="translate(-18.248 -6.348)"/>
            <path id="패스_1321" data-name="패스 1321" d="M90.934,33.647a2.6,2.6,0,0,1-2.941,2.941h-9.8c-1.909,0-2.889-.98-2.889-2.941V9.293c0-1.961.98-2.993,2.889-2.993h9.752c1.961,0,2.941.98,2.941,2.993V33.647Zm-4.85-23.168H80.15V32.409h5.882V10.479Z" transform="translate(-36.447 -6.3)"/>
            <path id="패스_1322" data-name="패스 1322" d="M113,6.4V8.825h5.211V36.636h2.477V8.825h5.263V6.4Z" transform="translate(-54.694 -6.348)"/>
            <path id="패스_1323" data-name="패스 1323" d="M153.255,6.4l-4.489,23.735L144.277,6.4H141.8l5.624,30.236h2.683L155.731,6.4Z" transform="translate(-68.634 -6.348)"/>
            <g id="그룹_1883" data-name="그룹 1883">
              <path id="패스_1324" data-name="패스 1324" d="M20.8,45.464Z" transform="translate(-10.068 -25.237)"/>
              <path id="패스_1325" data-name="패스 1325" d="M15.583,16.826V9.241A2.6,2.6,0,0,0,12.642,6.3h-9.7A2.658,2.658,0,0,0,0,9.293v7.172a3.051,3.051,0,0,0,1.032,2.58l9.236,6.708.155.1h.052a.7.7,0,0,1,.31.568v5.934H4.85V28.074L0,25.546v8.1a2.6,2.6,0,0,0,2.941,2.941h9.752a2.6,2.6,0,0,0,2.941-2.941v-7.74A3.284,3.284,0,0,0,14.6,22.915L4.85,15.9v-4.85h0a.487.487,0,0,1,.516-.516h5.418v3.663Z" transform="translate(0 -6.3)"/>
            </g>
          </g>
        </g>
        <g id="그룹_1887" data-name="그룹 1887" transform="translate(94.889 0.052)">
          <g id="그룹_1886" data-name="그룹 1886" transform="translate(30.443)">
            <path id="패스_1326" data-name="패스 1326" d="M337.125,19.9h-20.9a5.748,5.748,0,0,0-5.727,5.727V43.171h4.953V24.853h8.617V43.171h4.953V24.853h8.823V43.171H342.8V25.627A5.671,5.671,0,0,0,337.125,19.9Z" transform="translate(-275.62 -12.934)" fill="url(#linear-gradient)"/>
            <rect id="사각형_620" data-name="사각형 620" width="4.953" height="23.271" transform="translate(26.418 6.966)" fill="url(#linear-gradient-2)"/>
            <path id="패스_1327" data-name="패스 1327" d="M407.541,33.831v-8.2a5.748,5.748,0,0,0-5.727-5.727H386.127a5.748,5.748,0,0,0-5.727,5.727V37.392a5.748,5.748,0,0,0,5.727,5.727h21.413V38.166H386.127a.794.794,0,0,1-.774-.774V33.78h22.187Zm-22.187-8.2a.794.794,0,0,1,.774-.774h15.686a.794.794,0,0,1,.774.774v3.2H385.353Z" transform="translate(-309.453 -12.934)" fill="url(#linear-gradient-3)"/>
            <path id="패스_1328" data-name="패스 1328" d="M242.9,25.627V43.171h4.953V25.627a.794.794,0,0,1,.774-.774h14.757l3.2-4.953H248.627A5.714,5.714,0,0,0,242.9,25.627Z" transform="translate(-242.9 -12.934)" fill="url(#linear-gradient-4)"/>
            <rect id="사각형_621" data-name="사각형 621" width="4.953" height="5.005" transform="translate(26.418)" fill="url(#linear-gradient-5)"/>
          </g>
          <path id="패스_1329" data-name="패스 1329" d="M205.416,6.4H183.9V36.636h4.953V26.317h16.563c3.147,0,5.727-3.354,5.727-6.5V12.127A5.65,5.65,0,0,0,205.416,6.4Zm.774,14.963H188.905V11.353H206.19Z" transform="translate(-183.9 -6.4)" fill="url(#linear-gradient-6)"/>
        </g>
      </g>
    </g>
  </g>
</svg>
