<svg version="1.1" x="0px" y="0px" xml:space="preserve" id="svg410" sodipodi:docname="SR_Fernsehen_auf_blau.svg" inkscape:version="1.2.2 (b0a8486, 2022-12-01)" xmlns:inkscape="http://www.inkscape.org/namespaces/inkscape" xmlns:sodipodi="http://sodipodi.sourceforge.net/DTD/sodipodi-0.dtd" xmlns="http://www.w3.org/2000/svg" xmlns:svg="http://www.w3.org/2000/svg" viewBox="7.32 7.2 54.28 48.48"><defs id="defs414"/><sodipodi:namedview id="namedview412" pagecolor="#ffffff" bordercolor="#000000" borderopacity="0.25" inkscape:showpageshadow="2" inkscape:pageopacity="0.0" inkscape:pagecheckerboard="0" inkscape:deskcolor="#d1d1d1" showgrid="false" showguides="true" inkscape:zoom="4.85" inkscape:cx="58.350515" inkscape:cy="53.195876" inkscape:window-width="880" inkscape:window-height="994" inkscape:window-x="912" inkscape:window-y="25" inkscape:window-maximized="0" inkscape:current-layer="svg410"><sodipodi:guide position="7.2000002,72.000001" orientation="-1,0" id="guide998" inkscape:locked="false" inkscape:label="" inkscape:color="rgb(0,134,229)"/><sodipodi:guide position="49.591838,64.800002" orientation="0,1" id="guide1000" inkscape:locked="false" inkscape:label="" inkscape:color="rgb(0,134,229)"/><sodipodi:guide position="32.704314,7.2000002" orientation="0,1" id="guide1002" inkscape:locked="false" inkscape:label="" inkscape:color="rgb(0,134,229)"/><sodipodi:guide position="31.408074,27.422581" orientation="0,1" id="guide1047" inkscape:locked="false" inkscape:label="" inkscape:color="rgb(0,134,229)"/><sodipodi:guide position="64.536085,49.731959" orientation="1,0" id="guide1110" inkscape:locked="false"/></sodipodi:namedview>
<style type="text/css" id="style398">
	.st0{fill:#007796;}
	.st1{fill:#FFFFFF;}
	.st2{fill:#003C5A;}
</style><style class="darkreader darkreader--sync" media="screen"/>
<g id="Ebene_1" transform="matrix(0.13184275,0,0,0.13184275,7.3294468,7.1999998)">
	<polygon class="st0" points="241.6,0 0,21.1 23,283.5 283.5,237.5 " id="polygon400"/>
	<g id="g404">
		<path class="st1" d="m 168.3,117.2 c 0,0 4,-0.3 7.6,-0.3 11.4,0 16.4,5.7 16.4,14 0,9.2 -6.5,14.3 -17,14.3 -3.5,0 -7,-0.2 -7,-0.2 z m 57.5,87.4 -21.1,-34 c -3.3,-5.6 -7.8,-11.8 -7.8,-11.8 12.4,-4.1 21.5,-13.8 21.5,-30 0,-22.9 -15.3,-32.3 -41,-32.3 -18.6,0 -33.9,0.8 -33.9,0.8 v 107.3 h 24.8 v -41.2 h 4.1 l 23.4,41.2 z M 121.1,97.8 c -7.3,-1.4 -14.6,-2.4 -21.8,-2.4 -25.3,0 -40.5,13.8 -40.5,32.6 0,35 44,29.6 44,46.9 0,6.8 -5.2,10.2 -14,10.2 -8.4,0 -18.6,-2.5 -25.8,-5.6 L 60.4,203 c 7.6,1.9 17.6,3.5 27.3,3.5 26.2,0 41.3,-14.5 41.3,-34 0,-35.1 -44.2,-29.6 -44.2,-46.9 0,-6.4 4.8,-9.7 13.5,-9.7 6.5,0 13.7,1.4 20.3,3.7 z" id="path402"/>
	</g>
</g>
<g id="Ebene_3" transform="matrix(0.13184275,0,0,0.13184275,7.3294468,7.1999998)">
	<path class="st2" d="m 411.6,366.9 v -40 H 402 l 0.1,16.8 c 0,4.1 0.1,7.5 0.2,9.8 h -0.1 c -1.2,-2.7 -2.6,-5.2 -4.1,-7.6 l -11.6,-19.1 h -13.3 v 40 h 9.5 v -19.7 c 0,-3.1 -0.1,-5.1 -0.2,-7.1 h 0.1 c 1,2.2 2.4,5.1 3.8,7.3 l 12,19.5 h 13.2 z m -49.1,0 V 359 h -14.7 v -8.8 h 14 v -7.5 h -14 v -8 h 14.7 v -7.8 h -24.6 v 40 z m -36.6,0 v -40 H 316 v 15.3 h -17 v -15.3 h -9.9 v 40 h 9.9 v -16.1 h 17 v 16.1 z m -47.5,0 V 359 h -14.7 v -8.8 h 14 v -7.5 h -14 v -8 h 14.7 v -7.8 h -24.6 v 40 z m -34.1,-13.2 c 0,-12.3 -16.4,-9.9 -16.4,-15.6 0,-2.5 1.8,-4.1 6,-4.1 2.3,0 5.2,0.4 7.4,1 l 0.3,-8.3 c -2.2,-0.3 -5.1,-0.6 -7.3,-0.6 -11,0 -16.9,5.2 -16.9,13.1 0,13.1 16.1,9.7 16.1,15.8 0,3 -2.8,4.5 -6.1,4.5 -3.2,0 -6.1,-0.5 -8.5,-1.5 l -0.4,8.8 c 2.2,0.5 5.3,0.9 7.8,0.9 11.2,0 18,-5.6 18,-14 m -36.4,13.2 v -40 h -9.6 l 0.1,16.8 c 0,4.1 0.1,7.5 0.2,9.8 h -0.1 c -1.2,-2.7 -2.6,-5.2 -4.1,-7.6 l -11.6,-19.1 h -13.3 v 40 h 9.5 v -19.7 c 0,-3.1 -0.1,-5.1 -0.2,-7.1 h 0.1 c 1,2.2 2.4,5.1 3.8,7.3 l 12,19.5 h 13.2 z m -59.1,-27.7 c 0,3.3 -2.5,5.5 -6.3,5.5 -1.1,0 -2.3,0 -3.3,-0.2 v -10.2 c 0.9,-0.1 1.9,-0.2 3,-0.2 4.1,0.1 6.6,2 6.6,5.1 m 12.7,27.7 -8.8,-12.9 c -1.1,-1.7 -2.2,-3.3 -3,-4.4 5.8,-1.4 9.7,-5.2 9.7,-11.4 0,-7.8 -5.8,-11.5 -15.7,-11.5 -5.1,0 -11.1,0.1 -14.4,0.2 v 40 h 9.9 v -15.6 h 0.4 l 9.8,15.6 z m -42.9,0 V 359 H 104 v -8.8 h 14 v -7.5 h -14 v -8 h 14.7 v -7.8 H 94 v 40 z m -34,-32.2 v -7.8 H 60.4 v 40 h 9.9 V 351 h 13.5 v -7.6 H 70.3 v -8.7 z" id="path407"/>
</g>
</svg>