<?xml version="1.0" encoding="utf-8"?>
<svg version="1.1" id="Ebene_1" xmlns="http://www.w3.org/2000/svg" xmlns:xlink="http://www.w3.org/1999/xlink" x="0px" y="0px"
	 viewBox="0 0 169 60" style="enable-background:new 0 0 169 60;" xml:space="preserve">
<style type="text/css">
	.st0{fill-rule:evenodd;clip-rule:evenodd;fill:#AF001E;}
	.st1{fill-rule:evenodd;clip-rule:evenodd;fill:#FFFFFF;}
	.st2{filter:url(#Adobe_OpacityMaskFilter);}
	.st3{mask:url(#mask-2_1_);fill-rule:evenodd;clip-rule:evenodd;fill:#AF001E;}
	.st4{filter:url(#Adobe_OpacityMaskFilter_1_);}
	.st5{mask:url(#mask-2_2_);fill-rule:evenodd;clip-rule:evenodd;fill:#FFFFFF;}
	.st6{filter:url(#Adobe_OpacityMaskFilter_2_);}
	.st7{mask:url(#mask-2_3_);fill-rule:evenodd;clip-rule:evenodd;fill:#FFFFFF;}
	.st8{filter:url(#Adobe_OpacityMaskFilter_3_);}
	.st9{mask:url(#mask-2_4_);fill-rule:evenodd;clip-rule:evenodd;fill:#FFFFFF;}
</style>
<g>
	<g id="SRF-info">
		<polygon id="Fill-1" class="st0" points="43.7589,0.0001 43.7587,60 168.939,60 168.939,0.0001 		"/>
		<g id="Group-15">
			<path id="Fill-2" class="st1" d="M147.7337,34.7225c-0.2074,1.0699-0.5297,1.9049-0.9579,2.4797
				c-0.3976,0.5335-0.8789,0.8976-1.4713,1.1132c-0.6841,0.2496-1.5477,0.3756-2.5637,0.3756c-1.0184,0-1.8797-0.126-2.5623-0.3745
				c-0.5953-0.2168-1.077-0.581-1.4742-1.1144c-0.4278-0.5772-0.7509-1.4112-0.9566-2.4791
				c-0.2297-1.176-0.3468-2.7079-0.3468-4.5549c0-1.8485,0.1171-3.3905,0.3483-4.5854c0.206-1.0884,0.5291-1.9308,0.9565-2.5069
				c0.3958-0.532,0.8774-0.8962,1.471-1.1129c0.6844-0.2485,1.5475-0.3748,2.5641-0.3748c1.0151,0,1.8782,0.1263,2.5655,0.3753
				c0.5921,0.2162,1.0729,0.5804,1.4687,1.1133c0.4269,0.5732,0.7491,1.416,0.9589,2.5053
				c0.2297,1.2042,0.3469,2.7475,0.3469,4.5861C148.0806,32.0067,147.9643,33.5383,147.7337,34.7225 M156.3786,22.6227
				c-0.7039-2.1078-1.7118-3.839-2.9967-5.1453c-1.3025-1.3219-2.8951-2.2807-4.7352-2.8515
				c-1.7601-0.546-3.7459-0.8235-5.9059-0.8235s-4.1467,0.2776-5.9068,0.8235c-1.8428,0.5717-3.4356,1.5313-4.735,2.8515
				c-1.2844,1.3062-2.2933,3.0375-2.997,5.1453c-0.6826,2.0456-1.0286,4.584-1.0286,7.5446c0,2.9187,0.3342,5.4344,0.9969,7.4781
				c0.6832,2.1126,1.684,3.8475,2.9731,5.1565c1.2987,1.3201,2.891,2.2795,4.7343,2.8514c1.7601,0.5455,3.7649,0.823,5.9631,0.823
				c2.1964,0,4.2011-0.2775,5.963-0.823c1.841-0.5713,3.4341-1.5307,4.7341-2.8514c1.2908-1.3125,2.2907-3.0472,2.9742-5.1569
				c0.6603-2.0493,0.996-4.565,0.996-7.4778C157.4081,27.2115,157.0627,24.6734,156.3786,22.6227"/>
			<path id="Fill-4" class="st1" d="M122.5338,26.9877h-9.8232v-4.537h11.4811c0.7095,0,1.2861-0.5753,1.2861-1.2856v-5.811
				c0-0.7099-0.5766-1.2859-1.2861-1.2859h-19.5336c-0.7095,0-1.2858,0.576-1.2858,1.2859v29.5615
				c0,0.7102,0.5763,1.2861,1.2858,1.2861h6.7667c0.711,0,1.2858-0.576,1.2858-1.2861v-9.5888h9.8232
				c0.7101,0,1.2859-0.5754,1.2859-1.2855v-5.7678C123.8197,27.5638,123.244,26.9877,122.5338,26.9877"/>
			<path id="Fill-6" class="st1" d="M95.7678,16.4919c-0.9598-0.8682-2.1331-1.5037-3.484-1.8873
				c-1.2797-0.3615-2.6921-0.5362-4.2005-0.5362H72.6914c-0.7102,0-1.2867,0.5774-1.2867,1.2873v29.5592
				c0,0.7099,0.5765,1.2861,1.2867,1.2861h6.8214c0.7101,0,1.2859-0.5763,1.2859-1.2861V22.7421h5.477
				c0.8599,0,1.989,0.133,2.4911,0.7656c0.4726,0.5999,0.7134,1.5381,0.7134,2.7876v18.6195c0,0.7099,0.5757,1.2861,1.2858,1.2861
				h6.7635c0.7105,0,1.2861-0.5763,1.2861-1.2861V24.6166c0-1.8231-0.2655-3.4235-0.7887-4.7553
				C97.4875,18.4936,96.7273,17.3608,95.7678,16.4919"/>
			<path id="Fill-8" class="st1" d="M65.5921,14.0683h-6.7629c-0.7101,0-1.2858,0.5757-1.2858,1.2855v29.561
				c0,0.7099,0.5757,1.2861,1.2858,1.2861h6.7629c0.7101,0,1.285-0.5762,1.285-1.2861v-29.561
				C66.8771,14.644,66.3023,14.0683,65.5921,14.0683"/>
			<g id="Clip-11">
			</g>
			<defs>
				<filter id="Adobe_OpacityMaskFilter" filterUnits="userSpaceOnUse" x="0" y="0" width="39.4017" height="60">
					<feColorMatrix  type="matrix" values="1 0 0 0 0  0 1 0 0 0  0 0 1 0 0  0 0 0 1 0"/>
				</filter>
			</defs>
			<mask maskUnits="userSpaceOnUse" x="0" y="0" width="39.4017" height="60" id="mask-2_1_">
				<g class="st2">
					<polygon id="path-1_1_" class="st1" points="0,60 168.939,60 168.939,0 0,0 					"/>
				</g>
			</mask>
			<polygon id="Fill-10" class="st3" points="0,60 39.4017,60 39.4017,0 0,0 			"/>
			<defs>
				<filter id="Adobe_OpacityMaskFilter_1_" filterUnits="userSpaceOnUse" x="10.368" y="6.9102" width="18.6692" height="12.5428">
					<feColorMatrix  type="matrix" values="1 0 0 0 0  0 1 0 0 0  0 0 1 0 0  0 0 0 1 0"/>
				</filter>
			</defs>
			<mask maskUnits="userSpaceOnUse" x="10.368" y="6.9102" width="18.6692" height="12.5428" id="mask-2_2_">
				<g class="st4">
					<polygon id="path-1_2_" class="st1" points="0,60 168.939,60 168.939,0 0,0 					"/>
				</g>
			</mask>
			<path id="Fill-12" class="st5" d="M17.917,15.2724h-3.9504V7.6655c0-0.5818-0.2042-0.7553-0.7831-0.7553h-2.0332
				c-0.5813,0-0.7824,0.1735-0.7824,0.7553v11.0337c0,0.5798,0.2011,0.7538,0.7824,0.7538h17.1025
				c0.5811,0,0.7843-0.174,0.7843-0.7538v-2.6707c0-0.5812-0.2032-0.7561-0.7843-0.7561h-6.7375V8.3631
				c0-0.5804-0.2023-0.7553-0.7843-0.7553h-2.0303c-0.5811,0-0.7838,0.1749-0.7838,0.7553V15.2724z"/>
			<defs>

					<filter id="Adobe_OpacityMaskFilter_2_" filterUnits="userSpaceOnUse" x="10.368" y="21.9238" width="18.6692" height="15.1422">
					<feColorMatrix  type="matrix" values="1 0 0 0 0  0 1 0 0 0  0 0 1 0 0  0 0 0 1 0"/>
				</filter>
			</defs>
			<mask maskUnits="userSpaceOnUse" x="10.368" y="21.9238" width="18.6692" height="15.1422" id="mask-2_3_">
				<g class="st6">
					<polygon id="path-1_3_" class="st1" points="0,60 168.939,60 168.939,0 0,0 					"/>
				</g>
			</mask>
			<path id="Fill-13" class="st7" d="M19.3949,30.27l1.2206,0.2921c0.35,0.085,0.5234,0.1134,0.6378,0.1134
				c0.2942,0,0.5246-0.0855,0.8713-0.2906l6.2144-3.4538c0.4945-0.2891,0.6981-0.5226,0.6981-1.217v-3.1682
				c0-0.4055-0.2613-0.8962-0.9867-0.4371l-7.028,4.2401c-0.8987-1.4212-2.1782-3.0184-4.993-3.0184
				c-3.6301,0-5.6615,2.0326-5.6615,6.5056v6.4746c0,0.5804,0.2011,0.7553,0.7824,0.7553h17.1025
				c0.5807,0,0.7843-0.1749,0.7843-0.7553v-2.6701c0-0.5842-0.2036-0.7576-0.7843-0.7576h-14.433v-2.758
				c0-1.7402,0.6418-2.5828,2.2666-2.5828c1.4806,0,1.947,0.6668,2.236,1.335C18.6699,29.7198,18.2931,30.011,19.3949,30.27"/>
			<defs>

					<filter id="Adobe_OpacityMaskFilter_3_" filterUnits="userSpaceOnUse" x="10.1636" y="39.5459" width="19.0477" height="13.543">
					<feColorMatrix  type="matrix" values="1 0 0 0 0  0 1 0 0 0  0 0 1 0 0  0 0 0 1 0"/>
				</filter>
			</defs>
			<mask maskUnits="userSpaceOnUse" x="10.1636" y="39.5459" width="19.0477" height="13.543" id="mask-2_4_">
				<g class="st8">
					<polygon id="path-1_4_" class="st1" points="0,60 168.939,60 168.939,0 0,0 					"/>
				</g>
			</mask>
			<path id="Fill-14" class="st9" d="M26.0429,52.7295l2.2388,0.3501c0.4355,0.0568,0.6104-0.1488,0.6667-0.5233
				c0.1172-0.8425,0.263-2.964,0.263-5.0226c0-4.6186-1.5116-7.9877-5.8056-7.9877c-2.5289,0-4.4162,1.1063-5.4032,4.9368
				l-0.552,2.1492c-0.3762,1.4481-0.8417,2.1196-1.9138,2.1196c-1.5107,0-1.8004-1.396-1.8004-2.7302
				c0-1.8005,0.1444-3.6281,0.2019-4.3535c0.0589-0.7568-0.0293-0.9571-0.6675-1.0758l-2.1782-0.3493
				c-0.4348-0.0586-0.6098,0.1456-0.6667,0.5227c-0.1148,0.8437-0.2622,2.7023-0.2622,5.0531c0,4.7935,2.0903,7.1121,5.4001,7.1121
				c2.9899,0,4.7619-1.6225,5.4873-4.4405l0.5527-2.1498c0.4639-1.7704,0.9865-2.5251,2.0891-2.5251
				c1.6275,0,1.9173,1.1039,1.9173,3.7755c0,1.2184-0.1742,3.3365-0.2328,4.0643C25.3203,52.4098,25.4067,52.614,26.0429,52.7295"/>
		</g>
	</g>
</g>
</svg>
