<svg xmlns:svg="http://www.w3.org/2000/svg" xmlns="http://www.w3.org/2000/svg" xmlns:xlink="http://www.w3.org/1999/xlink" viewBox="0 0 1356.3 783.39969" version="1.1"><defs><linearGradient id="a" x1="333.20288" y1="252.96725" x2="562.26978" y2="102.55795" gradientUnits="userSpaceOnUse" gradientTransform="matrix(1.7645966 0 0 1.7674396 3.248729 0)"><stop offset=".5" stop-color="#00E5A4" /><stop offset=".61" stop-color="#17B7B4" /><stop offset=".76" stop-color="#3281C7" /><stop offset=".87" stop-color="#435FD3" /><stop offset=".93" stop-color="#4952D7" /></linearGradient></defs><path d="M1152.0091 139.5804h53.0475c31.979 0 52.6715 16.55392 52.6715 45.52276 0 31.22845-20.3163 51.92086-52.6715 51.92086h-53.0475Zm91.7992 160.64932c54.9284-7.14884 100.4528-54.55399 100.4528-114.7504 0-78.25445-53.0476-121.144431-138.8283-121.144431h-138.4521V457.49341h85.0284V300.22972l105.719 157.63985H1356.3Z" fill="#241c32" /><path d="M298.41072 65.040853v77.502827h86.533v315.32589h86.533V142.54368h86.53123V65.040853Z" fill="#241c32" /><path d="M135.81808 209.18278c-25.58339-11.66277-35.36535-24.45578-35.36535-41.009 0-19.18776 16.17777-35.36552 41.76133-34.61302 22.57356.7525 39.87981 12.79178 51.91874 41.76132l73.74174-32.73186c-20.6924-52.295608-62.45514-83.146312-129.4228-83.146312-71.107031 0-123.77887 46.652302-123.77887 109.482192 0 42.88981 21.068813 76.74963 71.106923 101.95773l54.929267 27.46508c30.8507 15.42438 45.52435 26.71099 45.52435 49.28596 0 24.45402-19.94079 41.76097-45.52435 41.76097-27.46455 0-52.67177-15.42614-63.958728-50.03828L0 361.93077c18.058922 64.71034 71.107029 102.33354 140.3329 102.33354 74.86846 0 132.43174-48.15748 132.43174-117.38176 0-53.04934-28.96972-88.4138-83.8981-113.24575Z" fill="#241c32" /><path d="M261.7526 618.7691h38.99791l25.92999 103.11023h.46529l33.95115-103.11023h33.25853l33.72205 105.83901h.45815l27.30445-105.83901h36.26512l-47.50223 160.80199h-31.89843l-35.78369-111.28766h-.46532l-35.78372 111.28766h-30.7477Z" fill="#241c32" /><path d="M504.5199 699.17455c0-12.82832 2.14579-24.45375 6.43732-34.87632 4.04459-10.04421 10.17588-19.11043 17.9876-26.60076 7.87081-7.43678 17.1823-13.17989 27.35812-16.87242 22.40086-7.84548 46.79891-7.84548 69.19976 0 10.17587 3.69075 19.48731 9.43386 27.35812 16.87242 7.80638 7.49212 13.93587 16.55833 17.98044 26.60076 4.30049 10.41721 6.44805 22.04264 6.4445 34.87632-.00539 12.83369-2.15474 24.45556-6.4445 34.86741-4.04457 10.04421-10.17406 19.11399-17.98044 26.60789-7.87081 7.43857-17.18225 13.18169-27.35812 16.87242-22.40261 7.83657-46.7971 7.83657-69.19976 0-10.17582-3.69252-19.48731-9.43564-27.35812-16.87242-7.81354-7.49212-13.94482-16.56189-17.9876-26.60789-4.2969-10.41185-6.44266-22.03372-6.43732-34.86741Zm36.6356 0c-.09127 7.06201 1.09527 14.08296 3.50231 20.722 2.20661 6.06256 5.6284 11.60937 10.05595 16.29775 4.43292 4.6509 9.7875 8.32199 15.72372 10.77771 13.16275 5.12384 27.76615 5.12384 40.9307 0 5.92906-2.45036 11.28006-6.11611 15.7076-10.76344 4.44188-4.68837 7.88333-10.2334 10.11681-16.29596 4.66558-13.37265 4.66558-27.93391 0-41.30657-2.21557-6.10718-5.65882-11.69682-10.11681-16.42089-4.42575-4.64554-9.77675-8.3095-15.7076-10.7545-13.16275-5.13456-27.76973-5.13456-40.9307 0-5.93443 2.445-11.2908 6.10896-15.72372 10.7545-4.44546 4.72228-7.86722 10.31371-10.05595 16.42089-2.3838 6.59264-3.57032 13.55827-3.50231 20.56851Z" fill="#241c32" /><path d="M707.36101 618.77088h62.98077c7.91555-.04462 15.815.74244 23.5623 2.34509 6.96708 1.40275 13.59943 4.10299 19.54283 7.95791 5.65702 3.80495 10.23669 8.97519 13.30771 15.01813 3.28574 6.28387 4.93222 14.12042 4.93759 23.5061 0 11.36488-2.98868 21.02003-8.96428 28.96189-5.97559 7.94185-14.71436 12.97644-26.21275 15.102l41.3799 67.90909h-42.94584l-34.02271-64.28083h-17.71557v64.28083h-35.84995Zm35.84995 66.58664h21.15703c3.22134 0 6.62343-.116 10.23134-.35158 3.34122-.16955 6.63775-.85844 9.76246-2.03991 2.85983-1.09221 5.36352-2.9358 7.23907-5.33085 1.91489-2.42361 2.88129-5.83948 2.88129-10.22626 0-4.09049-.84471-7.34397-2.53234-9.76221-1.62318-2.37365-3.84233-4.29219-6.44088-5.56645-2.81509-1.3742-5.84135-2.27905-8.95532-2.68059-3.27502-.44796-6.5769-.67462-9.88236-.67998h-23.46029Z" fill="#241c32" /><path d="M862.50613 618.7691h36.35817v128.09405h67.30096v32.70794H862.50613Z" fill="#241c32" /><path d="M992.13185 618.77088h53.66035c12.4738-.06068 24.9081 1.38848 37.0257 4.3136 11.0439 2.57529 21.4506 7.32077 30.6028 13.95622 8.8461 6.59443 15.9617 15.1984 20.7472 25.08556 5.1237 10.29943 7.6883 22.80293 7.6936 37.50874 0 13.02465-2.4858 24.48589-7.4574 34.38376-4.7694 9.6855-11.6183 18.21987-20.0671 25.00701-8.6529 6.86749-18.5299 12.06627-29.1192 15.32332-11.1959 3.50869-22.8768 5.26839-34.6186 5.22021H992.139Zm35.75505 128.04765h18.5764c7.7527.0589 15.4857-.7799 23.0434-2.50034 6.6681-1.45988 12.9551-4.27969 18.4654-8.27559 5.2937-3.98877 9.5083-9.21611 12.2626-15.21446 2.9725-6.28209 4.4615-13.96517 4.4669-23.04386 0-7.8776-1.489-14.729-4.4669-20.55244-2.833-5.65924-6.9528-10.59212-12.0335-14.40956-5.3296-3.9263-11.3589-6.81928-17.7711-8.52723-6.9831-1.91318-14.1972-2.86799-21.4416-2.83586h-21.1016Z" fill="#241c32" /><path d="M1048.0487 189.34744H852.2488c-2.60002 0-3.80002-1.29896-4.50002-3.79696L786.24878 0l-60.20002 185.55048c-.6 2.59792-1.9 3.79696-4.5 3.79696H525.64872L683.84874 304.5546c1.9 1.29897 3.8 1.29897 5.8 0 43.50002-26.87836 82.60002-46.16307 163.90006-66.6466-74.30003 57.55365-147.50005 122.90166-207.70006 198.44082-1.9 2.59788-2.6 3.19741-3.8 6.99437L624.94872 496.6l158.10006-114.40799c2.26235-1.65194 3.90877-1.64604 6.3.1l158.10003 114.408-60.10002-187.049c-.6-2.59793.2-3.89736 2.1-5.19632Z" fill="url(#a)" /></svg>