<svg width="181" height="31" viewBox="0 0 181 31" xmlns="http://www.w3.org/2000/svg">
    <defs>
        <clipPath id="mzzrv89xca">
            <path d="M1671 0v1512H0V0h1671z"/>
        </clipPath>
        <clipPath id="upfyr80kzb">
            <path d="M10.376 0v1.88H2.072V7.55h6.801v1.88H2.072v5.592h8.805v1.881H0V0h10.376z"/>
        </clipPath>
        <clipPath id="e3h2euss4c">
            <path d="m2.055 0 9.569 13.454h.025V0h2.08v16.902h-2.122L2.131 3.592h-.05v13.31H0V0h2.055z"/>
        </clipPath>
        <clipPath id="h11cnep7pd">
            <path d="M8.423 0c2.437 0 4.823 1.05 6.606 3.236l-1.554 1.288c-1.41-1.737-3.15-2.55-5.06-2.55-3.838 0-6.25 2.813-6.25 6.693 0 4.05 2.7 6.575 6.275 6.575 2.2 0 3.863-1.05 5.06-2.55l1.554 1.313c-1.477 1.83-3.625 3.194-6.606 3.194C3.872 17.19 0 14.19 0 8.667 0 3.88 3.006 0 8.423 0z"/>
        </clipPath>
        <clipPath id="0qcd4j0ude">
            <path d="M8.516 0c4.747 0 8.449 3.448 8.449 8.616 0 5.143-3.702 8.6-8.449 8.6C3.583 17.216 0 13.64 0 8.616 0 3.592 3.583 0 8.516 0zm0 1.949c-3.676 0-6.35 2.83-6.35 6.667 0 3.813 2.674 6.643 6.35 6.643 3.516 0 6.275-2.737 6.275-6.643 0-3.93-2.768-6.667-6.275-6.667z"/>
        </clipPath>
        <clipPath id="23ehi9pzmf">
            <path d="M6.012 0c3.914 0 5.604 2.237 5.604 5.236 0 2.83-1.554 4.473-4.22 5.024l4.678 6.642h-2.48l-4.482-6.456H2.08v6.456H0V0h6.012zm-.28 1.88H2.08v6.694h3.363c2.819 0 4.033-1.432 4.033-3.38 0-2.17-1.41-3.313-3.745-3.313z"/>
        </clipPath>
        <clipPath id="gds1e9jklg">
            <path d="M10.384 0v1.88H2.08V7.55h6.801v1.88h-6.8v5.592h8.804v1.881H0V0h10.384z"/>
        </clipPath>
        <clipPath id="v825zz1jlh">
            <path d="M14.536 0v4.617H9.79v12.294H4.678V4.617H0V0h14.536z"/>
        </clipPath>
        <clipPath id="koqsuxaodi">
            <path d="M15.598 0 8.27 12.293h8.083l-2.572 4.618H0L7.328 4.617H.61V0h14.987z"/>
        </clipPath>
        <clipPath id="yp4y8vd13j">
            <path d="M7.353 0c4.976 0 6.997 2.482 6.997 5.532 0 2.068-.96 4.093-3.27 5.126l4.331 6.253H9.357L5.112 9.794v7.117H0V0zm0 4.168h-2.25V7.49h2.25c1.376 0 1.919-.746 1.91-1.661 0-.924-.534-1.66-1.91-1.66z"/>
        </clipPath>
        <clipPath id="koz152nefk">
            <path d="m11.276 0 6.708 16.91h-5.417l-.612-1.838H6.03l-.612 1.839H0L6.708 0h4.568zM8.983 6.168 7.15 11.683h3.668L8.983 6.168z"/>
        </clipPath>
        <clipPath id="zvdzzarunl">
            <path d="M7.48 0c6.241 0 6.92 3.813 6.92 5.1H9.485c0-.533-.416-1.338-2.08-1.338-1.656 0-2.08.805-2.08 1.338 0 2.711 9.883 0 9.883 7.168 0 3.135-2.267 5.6-7.54 5.6-7.115 0-7.65-4.363-7.667-5.685h5.162c0 .729.425 1.678 2.505 1.678 1.885 0 2.429-.729 2.429-1.407 0-2.762-9.671-.118-9.671-7.354 0-1.194.823-5.1 7.055-5.1z"/>
        </clipPath>
        <clipPath id="fk8vqastom">
            <path d="m.289 0 .45.83.45-.83h.288v1.466H1.19V.559l-.357.627H.645L.29.56v.907H0V0h.289z"/>
        </clipPath>
        <clipPath id="0m6dc0k88n">
            <path d="M.492 0c.136 0 .264.042.349.119a.404.404 0 0 1 .144.305V.44H.696V.424C.68.322.603.254.484.254.374.254.289.33.289.441c0 .076.06.127.17.16l.17.051c.263.077.39.22.398.44 0 .306-.263.45-.51.45-.339 0-.517-.237-.517-.474V1.05h.289v.017c0 .093.068.203.237.203.136 0 .213-.068.213-.187C.739.957.603.924.484.89.45.88.424.873.399.864a.637.637 0 0 1-.297-.16.355.355 0 0 1-.085-.255c0-.136.042-.246.136-.322A.513.513 0 0 1 .493 0z"/>
        </clipPath>
        <clipPath id="08259j8qlo">
            <path d="M2.53 0C3.22 0 3.848.21 4.29.59c.424.38.67.894.696 1.51H3.66c-.05-.582-.518-.97-1.172-.97-.654 0-1.095.472-1.095 1.054 0 .43.288.742.925.928l.867.244c.908.262 1.936.785 1.953 2.15 0 1.08-.773 2.244-2.556 2.244C.942 7.75 0 6.612 0 5.397h1.342c0 .582.458 1.156 1.342 1.156.764 0 1.188-.405 1.188-1.03 0-.893-1.155-.994-1.825-1.222-.544-.186-1.113-.396-1.504-.827C.23 3.13.127 2.69.127 2.226c0-.615.204-1.18.68-1.585C1.282.245 1.834 0 2.53 0z"/>
        </clipPath>
        <clipPath id="jdiranhwxp">
            <path d="M2.556 0c.688 0 1.316.21 1.758.59.425.38.67.894.696 1.51H3.686c-.051-.582-.518-.97-1.172-.97-.654 0-1.096.472-1.096 1.054 0 .43.289.742.926.928l.866.244c.9.262 1.936.785 1.928 2.15 0 1.08-.773 2.244-2.556 2.244C.942 7.75 0 6.612 0 5.397h1.367c0 .582.459 1.156 1.342 1.156.764 0 1.189-.405 1.189-1.03 0-.893-1.155-.994-1.826-1.222C1.53 4.115.96 3.905.57 3.474.255 3.13.153 2.69.153 2.226c0-.615.204-1.18.68-1.585C1.307.245 1.86 0 2.555 0z"/>
        </clipPath>
        <clipPath id="khmf0vhusq">
            <path d="M2.53 0C3.22 0 3.848.21 4.29.59c.424.38.67.894.696 1.51H3.66c-.05-.582-.518-.97-1.172-.97-.654 0-1.095.472-1.095 1.054 0 .43.288.742.925.928l.867.244c.9.262 1.936.785 1.953 2.15 0 1.08-.773 2.244-2.556 2.244C.942 7.75 0 6.612 0 5.397h1.342c0 .582.458 1.156 1.342 1.156.764 0 1.188-.405 1.188-1.03 0-.893-1.155-.994-1.825-1.222-.544-.186-1.113-.396-1.504-.827C.23 3.13.127 2.69.127 2.226c0-.615.204-1.18.68-1.585C1.282.245 1.834 0 2.53 0z"/>
        </clipPath>
        <clipPath id="t2cp1uebur">
            <path d="M1.29 0v4.36c0 1.206.646 2.083 1.742 2.083 1.019 0 1.75-.776 1.75-2.083V0H6.08v4.461c0 1.965-1.146 3.205-3.048 3.205C1.222 7.666 0 6.502 0 4.46V0h1.29z"/>
        </clipPath>
        <clipPath id="9zz77i7tos">
            <path d="M2.76 0c1.826 0 2.607 1.046 2.607 2.454 0 1.644-1.12 2.42-2.76 2.42H1.3v2.699H0V0h2.76zm-.187 1.147H1.291V3.71H2.48c1.061 0 1.545-.532 1.545-1.282 0-.801-.518-1.282-1.452-1.282z"/>
        </clipPath>
        <clipPath id="j0uf9oxbrt">
            <path d="M4.807 0v1.155h-3.5v2.092h2.829v1.155H1.308v2.024h3.728v1.155H.008V0h4.799z"/>
        </clipPath>
        <clipPath id="upagusf0nu">
            <path d="M1.29 0 5.02 5.44h.025V0h1.291v7.573H5.01L1.325 2.226h-.026v5.347H0V0h1.29z"/>
        </clipPath>
        <clipPath id="n3u1b6k6bv">
            <path d="M4.798 0v1.155H1.3v2.092h2.828v1.155H1.3v2.024h3.728v1.155H0V0h4.798z"/>
        </clipPath>
    </defs>
    <g clip-path="url(#mzzrv89xca)" transform="translate(-853 -1230)">
        <g clip-path="url(#upfyr80kzb)" transform="translate(934.733 1230.474)">
            <path fill="#000" d="M0 0h10.877v16.902H0V0z"/>
        </g>
        <g clip-path="url(#e3h2euss4c)" transform="translate(948.862 1230.474)">
            <path fill="#000" d="M0 0h13.73v16.902H0V0z"/>
        </g>
        <g clip-path="url(#h11cnep7pd)" transform="translate(966.014 1230.313)">
            <path fill="#000" d="M0 0h15.054v17.199H0V0z"/>
        </g>
        <g clip-path="url(#0qcd4j0ude)" transform="translate(983.267 1230.313)">
            <path fill="#000" d="M0 0h16.965v17.216H0V0z"/>
        </g>
        <g clip-path="url(#23ehi9pzmf)" transform="translate(1003.67 1230.474)">
            <path fill="#000" d="M0 0h12.074v16.902H0V0z"/>
        </g>
        <g clip-path="url(#gds1e9jklg)" transform="translate(1018.963 1230.474)">
            <path fill="#000" d="M0 0h10.885v16.902H0V0z"/>
        </g>
        <g clip-path="url(#v825zz1jlh)" transform="translate(867.986 1230.483)">
            <path fill="#000" d="M0 0h14.536v16.91H0V0z"/>
        </g>
        <g clip-path="url(#koqsuxaodi)" transform="translate(914.491 1230.483)">
            <path fill="#000" d="M0 0h16.353v16.91H0V0z"/>
        </g>
        <g>
            <g clip-path="url(#yp4y8vd13j)" transform="translate(898.85 1230.474)">
                <path fill="#000" d="M0 0h15.411v16.91H0V0z"/>
            </g>
        </g>
        <g>
            <g clip-path="url(#koz152nefk)" transform="translate(879.806 1230.483)">
                <path fill="#000" d="M0 0h17.984v16.91H0V0z"/>
            </g>
        </g>
        <g clip-path="url(#zvdzzarunl)" transform="translate(853 1230)">
            <path fill="#000" d="M0 0h15.207v17.868H0V0z"/>
        </g>
        <g>
            <g clip-path="url(#fk8vqastom)" transform="translate(1032.14 1245.911)">
                <path fill="#000" d="M0 0h1.477v1.466H0V0z"/>
            </g>
            <g clip-path="url(#0m6dc0k88n)" transform="translate(1030.731 1245.877)">
                <path fill="#000" d="M0 0h1.027v1.542H0V0z"/>
            </g>
        </g>
        <g>
            <g clip-path="url(#08259j8qlo)" transform="translate(896.486 1253.25)">
                <path fill="#000" d="M0 0h5.138v7.75H0V0z"/>
            </g>
            <g clip-path="url(#jdiranhwxp)" transform="translate(920.833 1253.25)">
                <path fill="#000" d="M0 0h5.138v7.75H0V0z"/>
            </g>
            <g clip-path="url(#khmf0vhusq)" transform="translate(969.273 1253.25)">
                <path fill="#000" d="M0 0h5.138v7.75H0V0z"/>
            </g>
            <g clip-path="url(#t2cp1uebur)" transform="translate(908.341 1253.326)">
                <path fill="#000" d="M0 0h6.08v7.666H0V0z"/>
            </g>
            <g clip-path="url(#9zz77i7tos)" transform="translate(932.816 1253.326)">
                <path fill="#000" d="M0 0h5.367v7.573H0V0z"/>
            </g>
            <g clip-path="url(#j0uf9oxbrt)" transform="translate(944.722 1253.326)">
                <path fill="#000" d="M0 0h5.036v7.581H0V0z"/>
            </g>
            <g clip-path="url(#upagusf0nu)" transform="translate(956.39 1253.326)">
                <path fill="#000" d="M0 0h6.335v7.573H0V0z"/>
            </g>
            <g clip-path="url(#n3u1b6k6bv)" transform="translate(981.23 1253.326)">
                <path fill="#000" d="M0 0h5.027v7.581H0V0z"/>
            </g>
        </g>
    </g>
</svg>
