<svg width="768" height="442" viewBox="0 0 768 442" fill="none" xmlns="http://www.w3.org/2000/svg">
<g clip-path="url(#clip0_12_132)">
<path d="M652.938 76.8407H682.875C700.914 76.8407 712.456 86.286 712.456 102.635C712.456 120.448 700.914 132.075 682.875 132.075H652.938V76.8407ZM704.52 168.047C720.183 165.963 734.562 158.217 744.978 146.249C755.396 134.283 761.141 118.911 761.146 102.995C761.146 58.6687 731.209 34.324 682.875 34.324H604.961V257.43H652.938V168.047L712.456 257.43H768L704.52 168.047Z" fill="black"/>
<path d="M169.475 34.324V78.2908H218.096V257.43H266.717V78.2908H315.352V34.324H169.475Z" fill="black"/>
<path d="M76.8241 117.165C62.3274 110.621 56.9111 103.359 56.9111 93.9165C56.9111 83.024 65.9781 73.9668 80.4748 74.2993C93.166 74.6584 102.963 81.561 109.853 97.9065L151.564 79.3931C139.961 49.6148 116.385 32.1788 78.311 32.1788C38.0736 32.1788 8.33694 58.6986 8.33694 94.2889C8.33694 118.628 20.2845 137.886 48.5875 152.05L79.7712 167.678C97.1751 176.389 105.512 182.933 105.512 195.607C105.512 209.412 94.2678 219.214 79.7712 219.214C64.1727 219.214 50.0346 210.503 43.5032 190.886L0 203.6C10.1423 240.281 40.2372 261.721 79.3994 261.721C121.88 261.721 154.458 234.469 154.458 195.222C154.458 165.058 138.143 145.081 106.959 130.917L76.8241 117.165Z" fill="black"/>
<path d="M122.306 349.676H152.046L172.581 408.479H172.831L193.498 349.676H223.106V439.777H203.411V370.683H203.161L179.724 439.777H164.782L142.224 370.683H141.975V439.777H122.279L122.306 349.676Z" fill="black"/>
<path d="M242.419 393.667C242.321 386.822 243.575 380.025 246.106 373.67C248.412 367.918 251.907 362.724 256.362 358.432C260.863 354.172 266.186 350.883 272 348.765C284.789 344.259 298.724 344.259 311.513 348.765C317.329 350.883 322.65 354.172 327.152 358.432C331.61 362.721 335.107 367.916 337.407 373.67C342.325 386.535 342.325 400.772 337.407 413.637C335.107 419.395 331.61 424.594 327.152 428.888C322.65 433.148 317.329 436.438 311.513 438.555C298.721 443.044 284.792 443.044 272 438.555C266.186 436.438 260.863 433.148 256.362 428.888C251.907 424.591 248.412 419.392 246.106 413.637C243.575 407.29 242.321 400.503 242.419 393.667ZM263.346 393.667C263.295 397.714 263.975 401.735 265.352 405.538C266.613 409.01 268.568 412.185 271.098 414.867C273.623 417.531 276.677 419.63 280.062 421.033C287.581 423.965 295.919 423.965 303.438 421.033C306.831 419.63 309.893 417.531 312.428 414.867C314.949 412.177 316.903 409.005 318.175 405.538C320.832 397.868 320.832 389.52 318.175 381.85C316.921 378.335 314.965 375.114 312.428 372.386C309.89 369.726 306.829 367.626 303.438 366.22C295.919 363.288 287.581 363.288 280.062 366.22C276.679 367.626 273.627 369.726 271.098 372.386C268.553 375.107 266.597 378.331 265.352 381.85C263.984 385.637 263.305 389.639 263.346 393.667Z" fill="black"/>
<path d="M351.821 349.676H374.115L396.146 408.731H396.396L418.794 349.676H439.777L403.058 439.777H387.321L351.821 349.676Z" fill="black"/>
<path d="M456.938 349.676H476.246V439.777H456.938V349.676Z" fill="black"/>
<path d="M501.989 349.676H564.035V368.004H522.129V384.806H561.711V403.134H522.129V421.462H566.346V439.777H502.016L501.989 349.676Z" fill="black"/>
<path d="M633.859 370.141C632.114 368 629.787 366.403 627.158 365.542C624.592 364.589 621.88 364.081 619.142 364.04C617.611 364.047 616.088 364.224 614.597 364.568C613.052 364.909 611.56 365.454 610.162 366.191C608.819 366.884 607.66 367.885 606.784 369.113C605.87 370.401 605.394 371.946 605.427 373.523C605.362 374.761 605.615 375.993 606.16 377.107C606.707 378.219 607.527 379.174 608.547 379.881C610.97 381.522 613.627 382.79 616.429 383.642C619.585 384.679 622.99 385.721 626.643 386.767C630.232 387.77 633.667 389.254 636.857 391.177C640.04 393.092 642.736 395.711 644.739 398.833C646.81 402.035 647.849 406.318 647.858 411.685C647.963 416.304 646.988 420.885 645.01 425.064C643.169 428.761 640.517 431.998 637.251 434.533C633.869 437.098 630.023 438.99 625.924 440.106C621.507 441.328 616.943 441.938 612.359 441.919C606.692 441.979 601.057 441.063 595.701 439.214C590.369 437.272 585.49 434.266 581.363 430.38L595.823 414.539C597.879 417.297 600.586 419.505 603.705 420.965C608.306 423.224 613.551 423.822 618.545 422.656C620.137 422.299 621.667 421.711 623.089 420.911C624.39 420.176 625.503 419.153 626.345 417.921C627.187 416.652 627.617 415.155 627.579 413.633C627.626 412.365 627.362 411.104 626.806 409.963C626.25 408.821 625.421 407.832 624.391 407.085C621.945 405.336 619.247 403.967 616.388 403.027C613.187 401.904 609.7 400.781 605.984 399.659C602.333 398.576 598.829 397.049 595.552 395.113C592.363 393.217 589.631 390.645 587.549 387.578C585.263 383.885 584.152 379.589 584.361 375.255C584.261 370.753 585.267 366.294 587.291 362.268C589.183 358.624 591.85 355.434 595.105 352.92C598.473 350.354 602.291 348.437 606.363 347.266C610.636 346.013 615.068 345.38 619.521 345.386C624.631 345.377 629.714 346.12 634.606 347.591C639.482 349.073 643.973 351.603 647.764 355.004L633.859 370.141Z" fill="black"/>
<path d="M589.944 106.321H480.51C479.04 106.321 478.41 105.689 477.99 104.212L443.752 0L410.145 104.212C409.724 105.689 409.094 106.321 407.624 106.321H298.19L386.619 171.085C387.67 171.717 388.72 171.717 389.77 171.085C414.135 155.896 435.98 145.137 481.35 133.746C439.761 166.022 399.012 202.728 365.405 245.13C364.354 246.607 363.934 247.028 363.304 249.138L353.642 278.883L442.072 214.541C443.542 213.487 444.172 213.487 445.642 214.541L534.072 278.883L500.464 174.038C500.044 172.561 500.464 171.928 501.515 171.085L589.944 106.321Z" fill="url(#paint0_linear_12_132)"/>
</g>
<defs>
<linearGradient id="paint0_linear_12_132" x1="337.033" y1="258.963" x2="561.138" y2="71.7274" gradientUnits="userSpaceOnUse">
<stop stop-color="#D98E32"/>
<stop offset="0.25" stop-color="#D78C31"/>
<stop offset="0.5" stop-color="#BA7829"/>
<stop offset="0.75" stop-color="#A06529"/>
<stop offset="1" stop-color="#956039"/>
</linearGradient>
<clipPath id="clip0_12_132">
<rect width="768" height="441.922" fill="white"/>
</clipPath>
</defs>
</svg>
