<svg xmlns:svg="http://www.w3.org/2000/svg" xmlns="http://www.w3.org/2000/svg" xmlns:xlink="http://www.w3.org/1999/xlink" viewBox="0 0 1356.3 784.36121" version="1.1"><defs><linearGradient xlink:href="#a" id="b" gradientUnits="userSpaceOnUse" gradientTransform="matrix(1.7918122 0 0 1.7727369 -4.9521695 -.87532815)" x1="342.68561" y1="229.00648" x2="506.77301" y2="108.99702" /><linearGradient id="a" x1="347.63171" y1="246.24081" x2="513.85742" y2="105.04499" gradientUnits="userSpaceOnUse" gradientTransform="translate(4.2472668) scale(1.7660156)"><stop offset=".34636143" stop-color="#fb0001" /><stop offset=".4200097" stop-color="#f20001" /><stop offset=".93129998" stop-color="#8d0003" /></linearGradient></defs><path d="M1152.0091 139.5804h53.0475c31.979 0 52.6715 16.55392 52.6715 45.52276 0 31.22845-20.3163 51.92086-52.6715 51.92086h-53.0475Zm91.7992 160.64932c54.9284-7.14884 100.4528-54.55399 100.4528-114.7504 0-78.25445-53.0476-121.144431-138.8283-121.144431h-138.4521V457.49341h85.0284V300.22972l105.719 157.63985H1356.3Z" fill="#241c32" /><path d="M298.41072 65.040853v77.502827h86.533v315.32589h86.533V142.54368h86.53123V65.040853Z" fill="#241c32" /><path d="M135.81808 209.18278c-25.58339-11.66277-35.36535-24.45578-35.36535-41.009 0-19.18776 16.17777-35.36552 41.76133-34.61302 22.57356.7525 39.87981 12.79178 51.91874 41.76132l73.74174-32.73186c-20.6924-52.295608-62.45514-83.146312-129.4228-83.146312-71.107031 0-123.77887 46.652302-123.77887 109.482192 0 42.88981 21.068813 76.74963 71.106923 101.95773l54.929267 27.46508c30.8507 15.42438 45.52435 26.71099 45.52435 49.28596 0 24.45402-19.94079 41.76097-45.52435 41.76097-27.46455 0-52.67177-15.42614-63.958728-50.03828L0 361.93077c18.058922 64.71034 71.107029 102.33354 140.3329 102.33354 74.86846 0 132.43174-48.15748 132.43174-117.38176 0-53.04934-28.96972-88.4138-83.8981-113.24575Z" fill="#241c32" /><path d="M304.7479 618.07122h29.28455l70.03722 161.96859h-39.47151l-13.99687-33.94958h-63.34895l-13.58217 33.94958h-38.54992Zm13.60868 45.7465-19.80302 51.80853h39.81342Z" fill="#241c32" /><path d="M992.1372 618.07122h47.6105l70.1756 114.91961h.4208V618.07122h34.3618v161.96859h-45.4671l-72.2946-117.79491h-.421v117.79491h-34.386Z" fill="#241c32" /><path d="M523.60837 660.65353c-3.4346-4.21223-7.63025-7.6604-12.97017-9.95798-4.9603-2.29757-11.06485-3.44635-17.54904-3.44635-6.8674 0-12.97017 1.14878-18.69331 3.82929-5.72313 2.68051-10.68162 6.12866-14.87907 10.72381-4.19565 4.59694-7.62846 10.34089-9.91699 16.46955-2.29035 6.50979-3.4346 13.40432-3.4346 20.68177 0 7.66039 1.14425 14.5531 3.4346 21.06472 2.28853 6.50979 5.72134 11.8726 9.53557 16.46774 4.19743 4.59694 8.7745 8.42624 14.49766 10.72381 5.72134 2.68231 11.44447 3.83109 17.93044 3.83109 7.24704 0 13.73302-1.53172 19.45616-4.59694 5.72135-3.06344 10.3002-7.27567 13.73302-12.63847l29.75635 22.21349c-6.8674 9.57503-15.64193 16.85248-25.94213 21.44764-10.68164 4.59694-21.36326 6.89452-32.42632 6.89452-12.58875 0-24.41464-1.91464-34.71486-6.12687-10.30021-4.21401-19.83758-9.57504-27.46781-17.23541-7.63026-7.27745-13.73303-16.46954-18.3119-26.81043-4.19565-10.72383-6.48418-22.21349-6.48418-35.23489 0-13.0232 2.28853-24.89579 6.48418-35.23667 4.19745-10.72382 10.30021-19.53298 18.3119-26.80863 7.63023-7.27747 16.78617-13.0232 27.46781-17.23542 10.68163-4.21222 22.12611-6.12867 34.71486-6.12867 4.57887 0 9.15594.38293 14.11445 1.15059 4.96028.76586 9.91878 2.29757 14.49765 3.82927 4.95849 1.91467 9.53735 4.21225 13.73299 7.27747 4.57888 3.06344 8.39312 6.89273 11.82593 11.10676Z" fill="#241c32" /><path d="M720.481 617.10742v162.00781h35.47852V617.10742Z" fill="#241c32" /><path d="M873.89859 613.5442c50.3659 0 87.04971 33.26436 87.04971 85.4085 0 52.14413-36.68381 85.40849-87.04971 85.40849-50.36586 0-87.04968-33.26436-87.04968-85.40849 0-52.14414 36.68382-85.4085 87.04968-85.4085Zm0 137.75243c30.33852 0 50.16761-22.07635 50.16761-52.34393 0-30.26756-19.82909-52.34392-50.16761-52.34392-30.33849 0-50.16758 22.07636-50.16758 52.34392 0 30.36748 19.82909 52.34393 50.16758 52.34393Z" fill="#241c32" /><path d="M616.55776 648.67756h-45.92975v-31.57014h127.33v31.57014h-45.92975v130.3984h-35.4705Z" fill="#241c32" /><path d="M1048.0487 189.34744H852.2488c-2.60002 0-3.80002-1.29896-4.50002-3.79696L786.24878 0l-60.20002 185.55048c-.6 2.59792-1.9 3.79696-4.5 3.79696H525.64872L683.84874 304.5546c1.9 1.29897 3.8 1.29897 5.8 0 43.50002-26.87836 82.60002-46.16307 163.90006-66.6466-74.30003 57.55365-147.50005 122.90166-207.70006 198.44082-1.9 2.59788-2.6 3.19741-3.8 6.99437L624.94872 496.6l158.10006-114.40799c2.26235-1.65194 3.90877-1.64604 6.3.1l158.10003 114.408-60.10002-187.049c-.6-2.59793.2-3.89736 2.1-5.19632Z" fill="url(#b)" /></svg>