<?xml version="1.0" encoding="utf-8"?>
<!-- Generator: Adobe Illustrator 20.1.0, SVG Export Plug-In . SVG Version: 6.00 Build 0)  -->
<!DOCTYPE svg PUBLIC "-//W3C//DTD SVG 1.1//EN" "http://www.w3.org/Graphics/SVG/1.1/DTD/svg11.dtd">
<svg version="1.1" id="Layer_1" xmlns="http://www.w3.org/2000/svg" xmlns:xlink="http://www.w3.org/1999/xlink" x="0px" y="0px"
	 viewBox="0 0 70 81" style="enable-background:new 0 0 70 81;" xml:space="preserve">
<style type="text/css">
	.st0{fill:#137AB8;}
	.st1{fill:#E19B26;}
	.st2{fill:#DB2B2C;}
	.st3{fill:#EB6A45;}
	.st4{fill:#D14D28;}
	.st5{fill:#E05627;}
	.st6{fill:#B64126;}
	.st7{fill:#C02232;}
	.st8{fill:#BB782A;}
	.st9{fill:#4051A2;}
	.st10{fill:#72459A;}
	.st11{fill:#5D3E88;}
	.st12{fill:#472E7C;}
	.st13{fill:#543387;}
	.st14{fill:#5C2C7A;}
	.st15{fill:#27397C;}
	.st16{fill:#2D7ABD;}
	.st17{fill:#374599;}
	.st18{fill:#2D73B9;}
	.st19{fill:#4389C8;}
	.st20{fill:#0D589B;}
	.st21{fill:#3C7FC1;}
	.st22{fill:#2B3B82;}
	.st23{fill:#2572B5;}
	.st24{fill:#DD2532;}
	.st25{fill:#991B3B;}
	.st26{fill:#A51D32;}
	.st27{fill:#BE234D;}
	.st28{fill:#931F3B;}
	.st29{fill:#99223E;}
	.st30{fill:#861631;}
	.st31{fill:#B42126;}
	.st32{fill:#6E3B96;}
	.st33{fill:#A5287F;}
	.st34{fill:#873C94;}
	.st35{fill:#9F60A6;}
	.st36{fill:#6F2C73;}
	.st37{fill:#7D3B83;}
	.st38{fill:#90276C;}
	.st39{fill:#5F2E7B;}
	.st40{fill:#362266;}
</style>
<g>
	<g>
		<path class="st0" d="M21.8,79.8c-0.6,0-1.2-0.1-1.8-0.3c-0.6-0.2-1.1-0.5-1.6-1l1-1.2c0.4,0.3,0.7,0.5,1.1,0.7
			c0.4,0.2,0.8,0.2,1.2,0.2c0.4,0,0.6-0.1,0.8-0.2s0.3-0.3,0.3-0.6v0c0-0.1,0-0.2-0.1-0.3c0-0.1-0.1-0.2-0.2-0.2
			c-0.1-0.1-0.3-0.2-0.5-0.2s-0.5-0.2-0.8-0.2c-0.4-0.1-0.8-0.2-1.1-0.3c-0.3-0.1-0.6-0.3-0.8-0.4c-0.2-0.2-0.4-0.4-0.5-0.6
			c-0.1-0.2-0.2-0.6-0.2-1v0c0-0.4,0.1-0.7,0.2-1s0.3-0.5,0.6-0.8c0.2-0.2,0.5-0.4,0.9-0.5c0.3-0.1,0.7-0.2,1.1-0.2
			c0.6,0,1.1,0.1,1.6,0.2c0.5,0.2,0.9,0.4,1.3,0.8l-0.9,1.3c-0.4-0.2-0.7-0.4-1-0.6c-0.3-0.1-0.7-0.2-1-0.2c-0.3,0-0.6,0.1-0.8,0.2
			c-0.2,0.1-0.2,0.3-0.2,0.5v0c0,0.1,0,0.2,0.1,0.3c0,0.1,0.1,0.2,0.3,0.2c0.1,0.1,0.3,0.2,0.5,0.2c0.2,0.1,0.5,0.2,0.8,0.2
			c0.4,0.1,0.8,0.2,1,0.4c0.3,0.1,0.6,0.3,0.8,0.5c0.2,0.2,0.4,0.4,0.5,0.6c0.1,0.2,0.2,0.5,0.2,0.9v0c0,0.4-0.1,0.7-0.2,1
			c-0.2,0.3-0.3,0.6-0.6,0.8c-0.2,0.2-0.6,0.4-0.9,0.5C22.6,79.7,22.2,79.8,21.8,79.8z"/>
		<path class="st0" d="M29.1,73.4h-2.4v-1.6h6.5v1.6h-2.4v6.2h-1.7L29.1,73.4L29.1,73.4z"/>
		<path class="st0" d="M38.5,71.8h1.6l3.4,7.9h-1.8l-0.7-1.8h-3.3l-0.7,1.8h-1.8L38.5,71.8z M40.3,76.4l-1-2.5l-1,2.5H40.3z"/>
		<path class="st0" d="M46.2,71.8h3.6c1,0,1.8,0.3,2.3,0.8c0.4,0.4,0.7,1,0.7,1.8v0c0,0.6-0.2,1.2-0.5,1.6c-0.3,0.4-0.7,0.7-1.2,0.9
			l1.9,2.8h-2l-1.7-2.5h-1.4v2.5h-1.7C46.2,79.7,46.2,71.8,46.2,71.8z M49.6,75.6c0.4,0,0.8-0.1,1-0.3c0.2-0.2,0.4-0.5,0.4-0.8v0
			c0-0.4-0.1-0.6-0.4-0.8c-0.2-0.2-0.6-0.3-1-0.3h-1.7v2.2L49.6,75.6L49.6,75.6z"/>
	</g>
	<g>
		<polygon class="st1" points="18.4,53.5 8,53.7 14,45.5 20.4,47.5 		"/>
		<polygon class="st2" points="9.6,27 1.5,32.8 11.6,36 15.3,31.1 		"/>
		<polygon class="st3" points="20.6,46.9 7.5,42.7 15.8,31.5 23.8,37.3 		"/>
		<polygon class="st4" points="7.5,42.7 23.8,37.3 20.6,46.9 		"/>
		<polygon class="st5" points="15.8,31.5 19.5,38.7 23.8,37.3 		"/>
		<polygon class="st6" points="23.8,37.3 19.5,38.7 20.6,46.9 		"/>
		<polygon class="st7" points="9.6,27 11.6,36 15.3,31.1 		"/>
		<polygon class="st8" points="14,45.5 18.4,53.5 20.4,47.5 		"/>
	</g>
	<polygon class="st9" points="52.1,53.5 62.6,53.7 56.5,45.5 50.1,47.5 	"/>
	<polygon class="st10" points="61,27 55.3,31.1 58.9,36 69.1,32.8 	"/>
	<polygon class="st11" points="49.9,46.9 63.1,42.7 54.7,31.5 46.8,37.3 	"/>
	<polygon class="st12" points="63.1,42.7 46.8,37.3 49.9,46.9 	"/>
	<polygon class="st13" points="54.7,31.5 51.1,38.7 46.8,37.3 	"/>
	<polygon class="st14" points="61,27 58.9,36 55.3,31.1 	"/>
	<polygon class="st15" points="56.5,45.5 52.1,53.5 50.1,47.5 	"/>
	<polygon class="st16" points="21.5,55.8 24.6,65.8 30.6,57.5 26.6,52.1 	"/>
	<polygon class="st17" points="49.5,56 43.8,51.9 40.3,56.8 46.5,65.5 	"/>
	<polygon class="st18" points="27.2,51.7 35.2,62.9 43.3,51.5 35.3,45.7 	"/>
	<polygon class="st19" points="35.2,62.9 35.3,45.7 27.2,51.7 	"/>
	<polygon class="st20" points="43.3,51.5 35.3,50.2 35.3,45.7 	"/>
	<polygon class="st21" points="35.3,45.7 35.3,50.2 27.2,51.7 	"/>
	<polygon class="st22" points="49.5,56 40.3,56.8 43.8,51.9 	"/>
	<polygon class="st23" points="30.6,57.5 21.5,55.8 26.6,52.1 	"/>
	<polygon class="st24" points="10.7,23.5 7.4,13.6 17,16.9 17,23.6 	"/>
	<polygon class="st25" points="33.3,7.1 25.3,1.1 25.4,11.7 31.1,13.7 	"/>
	<polygon class="st26" points="17.7,23.6 17.7,9.8 30.9,14.4 27.8,23.7 	"/>
	<polygon class="st27" points="17.7,9.8 27.8,23.7 17.7,23.6 	"/>
	<polygon class="st28" points="30.9,14.4 25.1,20 27.8,23.7 	"/>
	<polygon class="st29" points="27.8,23.7 25.1,20 17.7,23.6 	"/>
	<polygon class="st30" points="33.3,7.1 25.4,11.7 31.1,13.7 	"/>
	<polygon class="st31" points="17,16.9 10.7,23.5 17,23.6 	"/>
	<polygon class="st32" points="60,23.3 63.2,13.4 53.6,16.7 53.6,23.4 	"/>
	<polygon class="st33" points="37.3,6.9 39.5,13.6 45.3,11.6 45.3,0.9 	"/>
	<polygon class="st34" points="52.9,23.4 52.9,9.6 39.7,14.2 42.9,23.5 	"/>
	<polygon class="st35" points="52.9,9.6 42.9,23.5 52.9,23.4 	"/>
	<polygon class="st36" points="39.7,14.2 45.5,19.9 42.9,23.5 	"/>
	<polygon class="st37" points="42.9,23.5 45.5,19.8 52.9,23.4 	"/>
	<polygon class="st38" points="37.3,6.9 45.3,11.6 39.5,13.6 	"/>
	<polygon class="st39" points="53.6,16.7 60,23.3 53.6,23.4 	"/>
	<polygon class="st40" points="46.8,37.3 51.1,38.7 49.9,46.9 	"/>
</g>
</svg>
