<svg id="Livello_1" data-name="Livello 1" xmlns="http://www.w3.org/2000/svg" viewBox="0 0 539 119"><defs><style>.cls-1,.cls-2,.cls-3{fill:#da0812;}.cls-2{fill-rule:evenodd;}.cls-3{opacity:0.33;}</style></defs><polygon class="cls-1" points="458.36 29.55 479.4 29.55 452.38 112.83 431.72 112.83 404.84 29.55 426.84 29.55 442.44 90.97 458.36 29.55"/><rect class="cls-1" x="232.96" y="3.06" width="23.48" height="110.93"/><path class="cls-2" d="M286.05,77h61.69a60.53,60.53,0,0,0-1.65-19,46.11,46.11,0,0,0-7.61-16.21,36.46,36.46,0,0,0-13.24-11.24,40,40,0,0,0-19-4.3,44.94,44.94,0,0,0-17.86,3.47,41.8,41.8,0,0,0-13.73,9.59,40.92,40.92,0,0,0-8.93,14.23,49.72,49.72,0,0,0-3.14,17.86,53.43,53.43,0,0,0,3,18.19,42.35,42.35,0,0,0,8.77,14.22A38.6,38.6,0,0,0,288,113a49.83,49.83,0,0,0,18.19,3.14q14.55,0,24.8-6.61t15.22-22H325.58q-1.17,4-6.29,7.6a21.26,21.26,0,0,1-12.24,3.48q-9.92,0-15.21-5.13T286.05,77m38.2-14.88h-38.2a30.43,30.43,0,0,1,1-5.63,19.21,19.21,0,0,1,3.15-5.95,17.81,17.81,0,0,1,5.95-4.63,20.23,20.23,0,0,1,9.42-2q8.61,0,12.74,4.63Q322.61,53.14,324.25,62.07Z"/><path class="cls-1" d="M177.73,28.49V2.86H154.24V28.49H140V44.2h14.22V94.65a21.9,21.9,0,0,0,2.15,10.42,15.61,15.61,0,0,0,5.79,6.12,23.8,23.8,0,0,0,8.6,2.8,62.4,62.4,0,0,0,10.42.83q3.48,0,7.11-.16a54,54,0,0,0,6.62-.67V95.81a32.77,32.77,0,0,1-3.48.49c-1.21.11-2.48.17-3.8.17q-6,0-7.94-2c-1.32-1.32-2-4-2-7.93V44.2h17.2V28.49Z"/><rect class="cls-1" x="198.57" y="28.49" width="23.48" height="85.5"/><rect class="cls-1" x="198.57" y="3.06" width="23.48" height="18.74"/><path class="cls-1" d="M526.28,74.22V62.16h-11V74.22h-6.69v7.39h6.69v23.72a10.29,10.29,0,0,0,1,4.9,7.27,7.27,0,0,0,2.72,2.88,11,11,0,0,0,4,1.32,29.66,29.66,0,0,0,4.9.39c1.09,0,2.2,0,3.34-.08a25.33,25.33,0,0,0,3.12-.31v-8.55a16.2,16.2,0,0,1-1.64.23c-.57,0-1.16.08-1.79.08-1.86,0-3.11-.31-3.73-.94s-.93-1.86-.93-3.73V81.61h8.09V74.22Z"/><rect class="cls-1" x="492.41" y="74.22" width="11.05" height="40.21"/><rect class="cls-1" x="492.41" y="62.26" width="11.05" height="8.81"/><rect class="cls-1" x="473.2" y="106.64" width="9.05" height="7.22"/><path class="cls-1" d="M383.26,28.49V2.86H359.77V28.49H345.55V44.2h14.22V94.65a21.9,21.9,0,0,0,2.15,10.42,15.61,15.61,0,0,0,5.79,6.12,23.8,23.8,0,0,0,8.6,2.8,62.4,62.4,0,0,0,10.42.83q3.48,0,7.11-.16a54,54,0,0,0,6.62-.67V95.81a32.77,32.77,0,0,1-3.48.49c-1.21.11-2.48.17-3.8.17-4,0-6.61-.66-7.94-2s-2-4-2-7.93V44.2h17.2V28.49Z"/><path class="cls-3" d="M61.79,72A11.76,11.76,0,0,1,58,74.11a44.43,44.43,0,0,1-4.82,1.16c-1.66.34-3.43.61-5.32.83s-3.76.5-5.65.83a49.07,49.07,0,0,0-5.31,1.33,15.69,15.69,0,0,0-4.49,2.33,10.2,10.2,0,0,0-3,3.49,11.56,11.56,0,0,0-1.16,5.48,11.16,11.16,0,0,0,1.16,5.32,9.66,9.66,0,0,0,3.16,3.49A14.53,14.53,0,0,0,37.2,100a29.87,29.87,0,0,0,5.48.5q7,0,10.8-2.33a15.84,15.84,0,0,0,5.65-5.48,17.29,17.29,0,0,0,2.16-6.65,36.48,36.48,0,0,0,.5-5.32Zm3.62-24.77a32.09,32.09,0,0,0-1.1,8.76,18.82,18.82,0,0,0,2.33,9.63,21.31,21.31,0,0,0,6.15,6.48,39.32,39.32,0,0,0,8.64,4.16l3.95,1.12,0,8.74H62.92c.22,5.76.28,10.29,3,15.7a30.05,30.05,0,0,1-3.14,3.91l-1.16,1.13a27.9,27.9,0,0,1-5.22,3.85c-5.19,3-12,5-20.3,5.44l-2.23,0a42.14,42.14,0,0,1-11.47-1.49,26.41,26.41,0,0,1-9.3-4.65,22.44,22.44,0,0,1-6.32-8A27.83,27.83,0,0,1,4.63,90.56q0-7.31,2.5-12A22.39,22.39,0,0,1,13.77,71a29.41,29.41,0,0,1,9.31-4.15,91.92,91.92,0,0,1,10.63-2.33c3.55-.55,7-1,10.47-1.33a63.46,63.46,0,0,0,9.14-1.49,16.81,16.81,0,0,0,6.31-2.83,6.61,6.61,0,0,0,2.16-5.65,11.38,11.38,0,0,0-1.33-6,7.8,7.8,0,0,0-3.32-3.49A10.92,10.92,0,0,0,52.32,42a31.76,31.76,0,0,0-5.81-.5q-7,0-11,3t-4.65,10H7.29a27.36,27.36,0,0,1,4.16-13.79,28.15,28.15,0,0,1,9.3-8.8,39.1,39.1,0,0,1,12.63-4.66,70,70,0,0,1,14.29-1.49,88.91,88.91,0,0,1,13.12,1,38.76,38.76,0,0,1,12.13,3.49,25.29,25.29,0,0,1,2.93,1.67,23.87,23.87,0,0,0-7.78,7.8A22,22,0,0,0,65.41,47.18Z"/><path class="cls-1" d="M85.34,86.07H62.92q.33,8.64,3.82,14.45a29.93,29.93,0,0,0,9.13,9.14,39.3,39.3,0,0,0,12.8,5,71,71,0,0,0,14.62,1.5,67.75,67.75,0,0,0,14.29-1.5,35,35,0,0,0,12.62-4.81,26.67,26.67,0,0,0,8.81-9.14q3.5-5.82,3.49-14.29a19.54,19.54,0,0,0-2.32-10A20.24,20.24,0,0,0,134,69.62a31.11,31.11,0,0,0-8.81-4.49,94.69,94.69,0,0,0-10-2.82c-3.33-.78-6.6-1.49-9.81-2.16S99.36,58.76,96.81,58a19,19,0,0,1-6-3.33,6.41,6.41,0,0,1-2.32-5.14,6.07,6.07,0,0,1,1.32-4.16A8.6,8.6,0,0,1,93,42.87a13.79,13.79,0,0,1,4.32-1,30.87,30.87,0,0,1,4.32-.33,22.85,22.85,0,0,1,11,2.49c3.11,1.56,4.82,4.6,5.16,9.14h22.43A27.16,27.16,0,0,0,136,40a25.78,25.78,0,0,0-8.47-8.47,36.08,36.08,0,0,0-11.8-4.49,67.23,67.23,0,0,0-13.46-1.32,69.74,69.74,0,0,0-13.62,1.32,35.19,35.19,0,0,0-12,4.32,23.88,23.88,0,0,0-8.64,8.31Q64.91,45,64.91,53.34A18.82,18.82,0,0,0,67.23,63a21.55,21.55,0,0,0,6.15,6.48A39.32,39.32,0,0,0,82,73.61q5,1.48,10.13,2.66a136,136,0,0,1,19.62,5.32c4.76,1.76,7.14,4.43,7.14,8a9,9,0,0,1-1.5,5.31,12.23,12.23,0,0,1-3.82,3.33,19.83,19.83,0,0,1-5,1.82,27.35,27.35,0,0,1-5.15.5,28.23,28.23,0,0,1-6.82-.82A18.63,18.63,0,0,1,91,97.2a15.89,15.89,0,0,1-4.16-4.48,14,14,0,0,1-1.5-6.65"/></svg>