<?xml version="1.0" encoding="utf-8"?>
<!-- Generator: Adobe Illustrator 21.1.0, SVG Export Plug-In . SVG Version: 6.00 Build 0)  -->
<svg version="1.1" id="Layer_1" xmlns="http://www.w3.org/2000/svg" xmlns:xlink="http://www.w3.org/1999/xlink" x="0px" y="0px"
	 viewBox="0 0 92.3 52.3" style="enable-background:new 0 0 92.3 52.3;" xml:space="preserve">
<style type="text/css">
	.st0{fill:#000000;}
	.st1{fill:#FF255A;}
</style>
<g>
	<polygon class="st0" points="33.5,4.7 36.1,4.7 36.1,11.9 37.8,11.9 37.8,4.7 40.4,4.7 40.4,3.1 33.5,3.1 	"/>
	<rect x="42.1" y="3.1" class="st0" width="1.8" height="8.8"/>
	<polygon class="st0" points="52.3,8.8 48,3.1 46.3,3.1 46.3,11.9 48,11.9 48,6.1 52.4,11.9 54,11.9 54,3.1 52.3,3.1 	"/>
	<path class="st0" d="M61.1,8.9h1.6c-0.3,1-1.1,1.5-2.3,1.5c-2,0-2.9-1.5-2.9-3c0-1.5,1-3,2.8-3c1,0,1.9,0.5,2,1.3L62.5,6h1.7
		l-0.1-0.4c-0.2-1.6-1.8-2.7-3.8-2.7c-2.9,0-4.5,2.4-4.5,4.6c0,2.3,1.6,4.6,4.6,4.6c2.1,0,3.7-1.2,4.1-3.2h0.9V7.3h-4.4V8.9z"/>
	<polygon class="st0" points="88.2,3.1 86.4,6.5 84.3,3.1 82.2,3.1 85.5,8.3 83.7,11.9 85.7,11.9 90.1,3.1 	"/>
	<path class="st0" d="M71.8,8.5C72.7,8,73.3,7.1,73.3,6c0-1.6-1.3-2.9-2.9-3h-3.4v8.8h1.7V9h1.4l1.3,2.9h1.9L71.8,8.5z M70.3,7.3
		h-1.7V4.7h1.7c0.7,0,1.3,0.6,1.3,1.3C71.7,6.7,71.1,7.3,70.3,7.3"/>
	<path class="st0" d="M79.2,3.1L79.2,3.1l-1.6-0.1l-3.1,8.8h1.9l0.7-2h2.6l0.7,2h1.9L79.2,3.1z M77.5,8.5l0.9-2.8l0.9,2.8H77.5z"/>
	<path class="st0" d="M30.2,6.8l-1.6-0.4c-0.7-0.2-1-0.5-1-1c0-0.6,0.6-1,1.4-1c0.9,0,1.4,0.5,1.6,1h1.8C32.2,4,31,3,29,3
		c-1.8,0-3.1,1.1-3.1,2.7c0,1.4,1,2.1,2.2,2.4l1.6,0.4c0.8,0.2,1.1,0.5,1.1,1c0,0.7-0.6,1.1-1.5,1.1c-0.9,0-1.5-0.4-1.7-1.1h-1.9
		C26,11,27.3,12,29.3,12c1.9,0,3.2-1,3.2-2.7C32.5,8,31.7,7.1,30.2,6.8"/>
	<polygon class="st0" points="33.5,4.7 36.1,4.7 36.1,11.9 37.8,11.9 37.8,4.7 40.4,4.7 40.4,3.1 33.5,3.1 	"/>
	<rect x="42.1" y="3.1" class="st0" width="1.8" height="8.8"/>
	<polygon class="st0" points="52.3,8.8 48,3.1 46.3,3.1 46.3,11.9 48,11.9 48,6.1 52.4,11.9 54,11.9 54,3.1 52.3,3.1 	"/>
	<path class="st0" d="M61.1,8.9h1.6c-0.3,1-1.1,1.5-2.3,1.5c-2,0-2.9-1.5-2.9-3c0-1.5,1-3,2.8-3c1,0,1.9,0.5,2,1.3L62.5,6h1.7
		l-0.1-0.4c-0.2-1.6-1.8-2.7-3.8-2.7c-2.9,0-4.5,2.4-4.5,4.6c0,2.3,1.6,4.6,4.6,4.6c2.1,0,3.7-1.2,4.1-3.2h0.9V7.3h-4.4V8.9z"/>
	<polygon class="st0" points="88.2,3.1 86.4,6.5 84.3,3.1 82.2,3.1 85.5,8.3 83.7,11.9 85.7,11.9 90.1,3.1 	"/>
	<path class="st0" d="M71.8,8.5C72.7,8,73.3,7.1,73.3,6c0-1.6-1.3-2.9-2.9-3h-3.4v8.8h1.7V9h1.4l1.3,2.9h1.9L71.8,8.5z M70.3,7.3
		h-1.7V4.7h1.7c0.7,0,1.3,0.6,1.3,1.3C71.7,6.7,71.1,7.3,70.3,7.3"/>
	<path class="st0" d="M79.2,3.1L79.2,3.1l-1.6-0.1l-3.1,8.8h1.9l0.7-2h2.6l0.7,2h1.9L79.2,3.1z M77.5,8.5l0.9-2.8l0.9,2.8H77.5z"/>
	<path class="st0" d="M30.2,6.8l-1.6-0.4c-0.7-0.2-1-0.5-1-1c0-0.6,0.6-1,1.4-1c0.9,0,1.4,0.5,1.6,1h1.8C32.2,4,31,3,29,3
		c-1.8,0-3.1,1.1-3.1,2.7c0,1.4,1,2.1,2.2,2.4l1.6,0.4c0.8,0.2,1.1,0.5,1.1,1c0,0.7-0.6,1.1-1.5,1.1c-0.9,0-1.5-0.4-1.7-1.1h-1.9
		C26,11,27.3,12,29.3,12c1.9,0,3.2-1,3.2-2.7C32.5,8,31.7,7.1,30.2,6.8"/>
</g>
<g>
	<path class="st1" d="M17.8,28.6c-0.1,0.8-0.3,1.5-0.7,2.2c-0.4,0.7-0.8,1.3-1.4,1.8c0.4,0.5,0.7,1.2,0.9,1.9
		c0.2,0.7,0.2,1.4,0.1,2.2l-1.5,12.3h-4l0.5-4l1-8.4c0.1-0.6-0.1-1.1-0.4-1.5s-0.8-0.6-1.4-0.6H7.7L6.4,45.2l-0.5,4h-4l1.8-14.4H2.2
		l0.5-4h1.4L5.8,17h7.3c0.8,0,1.6,0.2,2.3,0.5c0.7,0.3,1.3,0.7,1.8,1.3c0.5,0.5,0.8,1.2,1.1,1.9c0.2,0.7,0.3,1.5,0.2,2.4L17.8,28.6z
		 M11.5,30.7c0.6,0,1.1-0.2,1.5-0.6c0.5-0.4,0.7-0.9,0.8-1.5l0-0.1l0.6-5.4c0.1-0.6-0.1-1.1-0.4-1.5c-0.4-0.4-0.8-0.6-1.4-0.6H9.4
		l-0.9,7.5l-0.3,2.2H11.5z"/>
	<path class="st1" d="M37.9,17l-0.5,4h-0.4h-5.7h-1.2c-0.6,0-1.1,0.2-1.6,0.6c-0.5,0.4-0.7,0.9-0.8,1.5l-0.7,5.4l-0.2,2.2h3.3h2.2
		h0.4l-0.5,4H32h-2.2h-3.3l-0.8,6.4l-0.2,1.7l0,0.3c-0.1,0.5,0.1,1,0.3,1.4c0.3,0.4,0.6,0.6,1.1,0.7h3.7h4l-0.5,4v0h-4h-3.3
		c-0.1,0-0.2,0-0.3,0c-0.1,0-0.2,0-0.3,0c-0.5,0-0.9-0.1-1.4-0.3c-1.1-0.4-2-1.2-2.6-2.2c-0.6-1-0.8-2.2-0.7-3.5l0.2-1.9l0.3-2.1
		l0.2-1.9l0.3-2.4H21l0.5-4h1.4l1-7.7c0.2-1.3,0.7-2.5,1.5-3.5c0.9-1,1.9-1.8,3.1-2.2c0.7-0.2,1.4-0.4,2.2-0.4h1.2H37.9z"/>
	<path class="st1" d="M53.3,17l-0.5,4h-0.4h-4.1l-3.4,28.1h-4L44.4,21h-0.9h-4l0.5-4h2.6h2.3h2.4h1.6H53.3z"/>
	<path class="st1" d="M69,28.6c-0.1,0.8-0.3,1.5-0.7,2.2c-0.4,0.7-0.8,1.3-1.4,1.8c0.4,0.5,0.7,1.2,0.9,1.9c0.2,0.7,0.2,1.4,0.1,2.2
		l-1.5,12.3h-4l0.5-4l1-8.4c0.1-0.6-0.1-1.1-0.4-1.5s-0.8-0.6-1.4-0.6h-3.3l-1.3,10.5l-0.5,4h-4l1.8-14.4h-1.4l0.5-4h1.4L57.1,17
		h7.3c0.8,0,1.6,0.2,2.3,0.5c0.7,0.3,1.3,0.7,1.8,1.3c0.5,0.5,0.8,1.2,1.1,1.9c0.2,0.7,0.3,1.5,0.2,2.4L69,28.6z M62.7,30.7
		c0.6,0,1.1-0.2,1.5-0.6c0.5-0.4,0.7-0.9,0.8-1.5l0-0.1l0.6-5.4c0.1-0.6-0.1-1.1-0.4-1.5c-0.4-0.4-0.8-0.6-1.4-0.6h-3.2l-0.9,7.5
		l-0.3,2.2H62.7z"/>
	<path class="st1" d="M84.8,17.4c1.1,0.4,2,1.2,2.6,2.2c0.6,1,0.8,2.2,0.7,3.5l-2.4,20c-0.2,1.3-0.7,2.5-1.5,3.5
		c-0.9,1-1.9,1.8-3.1,2.2c-0.7,0.2-1.4,0.4-2.1,0.4h-1.2c-0.7,0-1.4-0.1-2-0.4c-1.1-0.4-2-1.2-2.6-2.2c-0.6-1-0.8-2.2-0.7-3.5
		l2.4-20c0.2-1.3,0.7-2.5,1.6-3.5c0.9-1,1.9-1.8,3.1-2.2c0.7-0.2,1.4-0.4,2.2-0.4h1.2C83.5,17,84.1,17.2,84.8,17.4z M84.1,23.1
		c0.1-0.6-0.1-1.1-0.4-1.5c-0.3-0.4-0.8-0.6-1.4-0.6H81c-0.6,0-1.1,0.2-1.5,0.6c-0.5,0.4-0.7,0.9-0.8,1.5l-2.4,20
		c-0.1,0.6,0.1,1.1,0.4,1.5c0.4,0.4,0.8,0.6,1.4,0.6h1.2c0.6,0,1.1-0.2,1.6-0.6c0.5-0.4,0.7-0.9,0.8-1.5L84.1,23.1z"/>
</g>
</svg>
