<?xml version="1.0" encoding="utf-8"?>
<!-- Generator: Adobe Illustrator 21.1.0, SVG Export Plug-In . SVG Version: 6.00 Build 0)  -->
<svg version="1.1" id="Layer_1" xmlns="http://www.w3.org/2000/svg" xmlns:xlink="http://www.w3.org/1999/xlink" x="0px" y="0px"
	 viewBox="0 0 118.3 42.6" style="enable-background:new 0 0 118.3 42.6;" xml:space="preserve">
<style type="text/css">
	.st0{fill:#000000;}
	.st1{fill:#FFD400;}
	.st2{clip-path:url(#SVGID_2_);fill:#FFD400;}
</style>
<g>
	<g>
		<polygon class="st0" points="63,2.4 65.3,2.4 65.3,8.8 66.9,8.8 66.9,2.4 69.1,2.4 69.1,0.9 63,0.9 		"/>
		<rect x="70.7" y="0.9" class="st0" width="1.6" height="7.9"/>
		<polygon class="st0" points="79.8,6.1 76,0.9 74.5,0.9 74.5,8.8 76,8.8 76,3.7 79.9,8.8 81.3,8.8 81.3,0.9 79.8,0.9 		"/>
		<path class="st0" d="M87.6,6.2h1.5c-0.3,0.9-1,1.4-2,1.4c-1.8,0-2.6-1.4-2.6-2.6c0-1.3,0.9-2.7,2.5-2.7c0.9,0,1.7,0.5,1.8,1.1
			l0.1,0.2h1.5l-0.1-0.3c-0.2-1.4-1.6-2.5-3.4-2.5c-2.6,0-4,2.1-4,4.1c0,2,1.4,4.1,4.1,4.1c1.9,0,3.3-1.1,3.7-2.8h0.8V4.7h-3.9V6.2z
			"/>
		<polygon class="st0" points="111.8,0.9 110.2,4 108.3,0.9 106.5,0.9 109.4,5.6 107.8,8.8 109.5,8.8 113.5,0.9 		"/>
		<path class="st0" d="M97.2,5.8c0.8-0.5,1.3-1.3,1.3-2.3c0-1.4-1.2-2.6-2.6-2.6h-3v7.9h1.5V6.2h1.3l1.2,2.6h1.7L97.2,5.8z
			 M95.9,4.8h-1.5V2.4h1.5c0.6,0,1.2,0.5,1.2,1.2C97.1,4.2,96.5,4.7,95.9,4.8"/>
		<path class="st0" d="M103.8,1L103.8,1l-1.4-0.1l-2.7,7.9h1.7l0.6-1.8h2.3l0.6,1.8h1.7L103.8,1z M102.3,5.8l0.8-2.5l0.8,2.5H102.3z
			"/>
		<path class="st0" d="M60.1,4.3L58.7,4c-0.6-0.1-0.9-0.4-0.9-0.9c0-0.6,0.5-0.9,1.2-0.9c0.8,0,1.3,0.4,1.4,0.9h1.6
			c-0.3-1.3-1.3-2.3-3.1-2.3c-1.6,0-2.8,1-2.8,2.4c0,1.3,0.9,1.9,2,2.1l1.4,0.3c0.7,0.2,1,0.4,1,0.9c0,0.6-0.5,1-1.3,1
			c-0.8,0-1.3-0.3-1.5-1H56c0.3,1.5,1.5,2.3,3.2,2.3c1.7,0,2.9-0.9,2.9-2.4C62.2,5.3,61.4,4.6,60.1,4.3"/>
		<polygon class="st0" points="63,2.4 65.3,2.4 65.3,8.8 66.9,8.8 66.9,2.4 69.1,2.4 69.1,0.9 63,0.9 		"/>
		<rect x="70.7" y="0.9" class="st0" width="1.6" height="7.9"/>
		<polygon class="st0" points="79.8,6.1 76,0.9 74.5,0.9 74.5,8.8 76,8.8 76,3.7 79.9,8.8 81.3,8.8 81.3,0.9 79.8,0.9 		"/>
		<path class="st0" d="M87.6,6.2h1.5c-0.3,0.9-1,1.4-2,1.4c-1.8,0-2.6-1.4-2.6-2.6c0-1.3,0.9-2.7,2.5-2.7c0.9,0,1.7,0.5,1.8,1.1
			l0.1,0.2h1.5l-0.1-0.3c-0.2-1.4-1.6-2.5-3.4-2.5c-2.6,0-4,2.1-4,4.1c0,2,1.4,4.1,4.1,4.1c1.9,0,3.3-1.1,3.7-2.8h0.8V4.7h-3.9V6.2z
			"/>
		<polygon class="st0" points="111.8,0.9 110.2,4 108.3,0.9 106.5,0.9 109.4,5.6 107.8,8.8 109.5,8.8 113.5,0.9 		"/>
		<path class="st0" d="M97.2,5.8c0.8-0.5,1.3-1.3,1.3-2.3c0-1.4-1.2-2.6-2.6-2.6h-3v7.9h1.5V6.2h1.3l1.2,2.6h1.7L97.2,5.8z
			 M95.9,4.8h-1.5V2.4h1.5c0.6,0,1.2,0.5,1.2,1.2C97.1,4.2,96.5,4.7,95.9,4.8"/>
		<path class="st0" d="M103.8,1L103.8,1l-1.4-0.1l-2.7,7.9h1.7l0.6-1.8h2.3l0.6,1.8h1.7L103.8,1z M102.3,5.8l0.8-2.5l0.8,2.5H102.3z
			"/>
		<path class="st0" d="M60.1,4.3L58.7,4c-0.6-0.1-0.9-0.4-0.9-0.9c0-0.6,0.5-0.9,1.2-0.9c0.8,0,1.3,0.4,1.4,0.9h1.6
			c-0.3-1.3-1.3-2.3-3.1-2.3c-1.6,0-2.8,1-2.8,2.4c0,1.3,0.9,1.9,2,2.1l1.4,0.3c0.7,0.2,1,0.4,1,0.9c0,0.6-0.5,1-1.3,1
			c-0.8,0-1.3-0.3-1.5-1H56c0.3,1.5,1.5,2.3,3.2,2.3c1.7,0,2.9-0.9,2.9-2.4C62.2,5.3,61.4,4.6,60.1,4.3"/>
	</g>
	<polyline class="st1" points="96.7,41 96.6,40.9 96.4,41 95.7,40.9 95.2,40.9 95.1,41 94.9,40.9 89.5,40.9 89.5,28.4 90.7,28.3 
		90.7,28.1 90.6,28 90.7,27.8 90.6,27.7 90.7,27.7 90.6,27.2 90.7,26.7 90.6,26.7 90.7,26.6 90.7,23.4 90.6,23.3 90.7,23.1 
		90.7,22.8 90.6,22.7 90.7,22.5 90.7,16.6 90.9,16.5 90.7,16.3 90.7,16 91,16 91,15.9 91.5,16 93.9,15.9 94,16 94.2,15.9 94.3,15.9 
		94.8,16 94.9,15.9 94.9,16 95.1,15.9 95.2,15.9 95.8,16 96.4,15.9 96.4,16 96.6,15.9 96.9,15.9 97.3,16.3 97.3,16.5 97.2,16.6 
		97.3,16.8 97.3,17.9 97.2,18 97.3,18.2 97.3,18.3 97.2,18.5 97.3,18.7 97.3,19.6 97.2,19.7 97.3,19.9 97.3,20 97.2,20.2 97.2,20.4 
		97.3,20.4 97.2,20.5 97.2,21.7 97.3,22.7 97.2,23.1 97.3,23.1 97.2,23.3 97.2,25.5 97.3,25.7 97.2,25.8 97.2,28.1 97.3,28.3 
		96.1,28.1 96.1,34.2 98.2,34.2 99,34.4 99,34.2 99.1,34.4 99.3,34.4 99.7,34.2 99.7,34.4 99.9,34.2 100,34.2 100.2,34.4 
		100.3,34.2 100.9,34.2 102,34.4 102,34.2 102.2,34.4 102.3,34.4 102.5,34.2 102.6,34.2 103.1,34.4 103.1,34.2 103.2,34.4 
		105.5,34.4 105.3,34.5 105.3,40.3 105.5,40.4 	"/>
	<g>
		<path class="st1" d="M117.7,21.6L117.7,21.6l0.8,0c-0.3,0-0.5,0-0.5,0h0.1l0.3,0c0,0-0.1,0-0.3,0L117.7,21.6l-0.4-0.1
			c0,0,0,0-0.1,0l0.3-0.1h-0.1c-0.2,0,0.1,0,0.9,0c-0.3,0-0.5,0-0.8,0c-0.2,0-2.1-0.1-5.9-0.3h-0.3c0,0-0.1,0-0.4,0
			c0.4-0.1,0.7-0.1,0.8-0.1c-0.4,0-0.6,0-0.7,0l0.1,0l-2.8-0.1h-0.3c-0.2,0-0.4,0-0.7,0l0.1,0l-0.3,0c-0.2,0-0.3,0-0.5,0l-4.3,0v0
			l0.4,0v0h0h-0.1h-0.1c-0.7,0-1.1,0-1.2,0H101c-0.3,0-0.6,0-1.1,0c0.4,0,0.5,0,0.5,0c-0.2,0-2.2,0-6,0h-0.1v0c0.3,0,0.5,0,0.5,0
			l-0.3,0.1H94v0h-0.1v0h0.4v0h-0.1l-1.3,0h-0.3c-0.1,0-0.8,0-2.2,0c-0.2,0-0.5,0-0.8,0h-0.9c-2.9,0-4.3,0-4.3,0c-0.2,0-0.3,0-0.5,0
			v-5H83v-0.8h-8v6.2c-0.5,0-0.9,0-0.9,0c0,0,0.1,0.1,0.1,0.2c-0.1,0-0.1,0-0.1,0.1l0.1,0.1h0c0,0-0.1,0.1-0.1,0.2v0l0,0.1
			c0,0,0.2,0,0.4,0L74.4,22v0.6V32c-0.3,0.7-0.5,1.6-0.7,2.4c-0.6,0.5-1.3,0.8-2.5,0.8c-3.9,0-3.9-3.3-3.9-6v-7.5h0.2l0.3-0.3h0.9
			l0.4,0h-1l-0.7-0.1v-6.2h-8V31c0,1.6,0.2,3,0.6,4.2v0.5l0.4,0.5c1.3,3,3.9,4.7,7.9,5.3c0.1,0,0.2,0,0.3,0.1v0
			c0.9,0.1,1.8,0.2,2.8,0.2c8,0,11.8-3.4,11.8-10.7v-9.1h1.4v0h0c0.1,0,0.2,0,0.2,0l0.7,0l1.1,0.1l2.2-0.1h0.3v0h-0.1v0h0.3
			c-0.1,0-0.2,0-0.2,0h0l0.1,0c0,0-0.1,0-0.1,0h-0.1l-0.1,0c0,0,0,0,0,0l0.1-0.1c0.1,0,0.2,0,0.2,0h0.1h0.2h0.2l-0.4,0
			c0,0,0.2,0,0.5,0h0.2l-0.1,0l0.1,0.1c0.4,0,0.5,0,0.5,0h0.1l1.7,0c0.3,0,0.6,0,1.1,0l-0.5,0v0c0.2,0,0.4,0,0.8,0l0.6,0h0.6l-0.5,0
			c0,0,0,0,0.1,0h0.1c0.1,0,2.1-0.1,5.9-0.3h0.3h0.6h0.3v0h0.1h0.4h4.5v0h0.1c0.2,0,0.4,0,0.4,0l1.8,0l2.7,0.1l5.5-0.1h0.7v0H117.7z
			"/>
		<path class="st1" d="M74.1,21.2C74.1,21.2,74.1,21.2,74.1,21.2C74.1,21.2,74.1,21.2,74.1,21.2C74.1,21.2,74.1,21.2,74.1,21.2z"/>
		<path class="st1" d="M74.2,21.1c-0.1,0-0.1,0-0.1,0c0,0,0,0,0,0.1C74.1,21.2,74.1,21.1,74.2,21.1z"/>
	</g>
	<path class="st1" d="M102,15.1H88.9v26h11.6c9.1,0,13.3-5,13.3-13C113.8,21.5,110.7,15.1,102,15.1z M100,34.4h-3.1V21.7h2.5
		c5.8,0,6.3,4.5,6.3,6.2C105.8,30.4,105,34.4,100,34.4z"/>
	<g>
		<defs>
			<rect id="SVGID_1_" x="87.5" y="21" width="34.1" height="23.6"/>
		</defs>
		<clipPath id="SVGID_2_">
			<use xlink:href="#SVGID_1_"  style="overflow:visible;"/>
		</clipPath>
		<path class="st2" d="M87.8,15.1H101c8.6,0,11.7,6.4,11.7,13c0,8-4.2,13-13.3,13H87.8V15.1z M95.8,34.4H99c4.9,0,5.7-4,5.7-6.5
			c0-1.6-0.5-6.2-6.3-6.2h-2.5V34.4z"/>
	</g>
	<g>
		<path class="st1" d="M20,27.8c-0.2,0-0.3,0-0.3,0c0,0,0,0,0,0.1C19.7,27.9,19.8,27.9,20,27.8z"/>
		<path class="st1" d="M57.2,28.7L57.2,28.7l0.8,0c-0.3,0-0.5,0-0.5,0h0.1l0.3,0c0,0-0.1,0-0.3,0L57.2,28.7l-0.4-0.1c0,0,0,0-0.1,0
			l0.3-0.1H57c-0.2,0,0.1,0,0.9,0c-0.3,0-0.5,0-0.8,0c-0.1,0-0.6,0-1.6-0.1c0,0,0,0,0,0l-0.6,0c-0.1,0-0.2,0-0.3,0
			c0-0.1,0-0.1,0-0.2c0-7.9-5.3-13.6-13.2-13.6c-1.4,0-2.7,0.2-4,0.5l-1.4,0.2l-0.3,0.3h-0.3v0.3l0,0c-0.1,0.1-0.3,0.1-0.4,0.2
			l-0.2-0.2c-1.7,0.8-3.4,2.2-5.1,4.3l-1,1.3v0.5c-0.4,0.5-0.9,1.9-1.2,4h0.1l-0.1,2.1c-0.1,0-0.1,0-0.2,0h0.2l0,0c-1,0-3.5,0-7.5,0
			c-0.1,0-0.1,0-0.1,0h0.6L20.3,28c-0.3,0-0.5,0-0.6,0c0,0,0,0,0,0h-0.3h-0.1l0.4,0c0,0,0,0,0,0h0L18,28h-0.5c-0.1,0-0.9,0-2.4,0
			v-2.4l0,0l0,0v-2.5l0,0h0v-0.3l0-0.1l0-0.3v-2l0,0h0V20l0-0.1v-0.1l0,0v-0.2l0,0v-0.9l0-0.1v-0.2l0,0v-0.2l0,0v-0.2l0,0v-1.1l0,0
			v-0.2l0,0v-0.2l0,0v-1.1h-8V28c-0.4,0-0.6,0-0.6,0c-3.4,0-5.2,0-5.5,0C1,28,1.1,28,1.3,28.1c-0.2,0-0.2,0-0.2,0l0.2,0H1.1
			c-0.1,0-0.2,0-0.3,0.1c0,0,0,0,0.1,0.1c2.6,0,4.3,0,5,0H5.9l-0.6,0H6c-0.1,0-0.2,0-0.2,0H5.6H5.2v0H5.1c-0.2,0-0.2,0,0.2,0.1
			c0,0,0.6,0,1.8,0v12.7h19.5v-6.7h-3.4l0.1-0.1H21l-0.1-0.2v0.2l-0.5-0.2h-0.1l-0.2,0.2h-0.1l-0.2-0.2v0.2l-1-0.2h-0.6L18,34.3
			l-0.1-0.2h-0.2l-0.1,0.2v-0.2l-0.4,0.2h-0.2l-0.1-0.2v0.2L16,34.2h-0.9v-5.7h2h1.5v0h-0.7c0.3,0,0.6,0,1,0l0.7,0v0l0.1,0.1
			c0,0,0.5,0,1.5,0c1,0,1.7,0,2.3,0l-0.1,0l-0.4,0c0.3,0,0.5,0,0.5,0c-0.1,0-0.2,0-0.2,0h-0.1c-0.2,0-0.3,0-0.3,0v0h-0.1
			c-0.2,0-0.2,0,0,0.1c0.1,0,0.2,0.1,0.2,0.1c0,0,0.4,0,1.3,0h0.3c0.1,0,0.4,0,0.7,0h0v0c1.6,0,2.6,0,3,0
			c0.3,7.3,5.2,12.6,12.5,12.9c0,0,0.1,0,0.1,0h0.6c0,0,0,0,0,0c0.5,0,1,0,1.5-0.1l0.4,0.1v-0.1c0.1,0,0.3,0,0.4-0.1l0.9,0.2
			l3.2-1.1c4.6-2.4,7.1-6.4,7.6-12l1.2,0h0.7v0H57.2z M45.9,28.4h-0.3H45.9L45.9,28.4z M40.5,21.6c2.5,0,4.3,1.9,5.4,5.7l-0.3,0.3
			v0.3l-3.7,0v0l0.4,0v0h0h-0.1H42c-0.7,0-1.1,0-1.2,0h-0.3c-0.3,0-0.6,0-1.1,0c0.4,0,0.5,0,0.5,0c-0.2,0-1.4,0-3.7,0
			c0-2.5,0.7-4.2,1.6-5.2C38.5,22.1,39.4,21.8,40.5,21.6z M42.1,34.8v-0.3l-0.3,0.3c-2.7-0.8-4.1-2.1-4.1-3.7h-0.3L37,31.4l0.3-0.8
			L37,30.3V30l0.3-0.8V29l-0.3-0.2c0.8,0,1.7-0.1,2.8-0.1h0.3h0.6h0.3v0h0.1h0.4h4.5v0h0.1c0.2,0,0.3,0,0.4,0
			c-0.1,2.5-0.8,4.1-1.7,5.1C44.2,34.1,43.3,34.5,42.1,34.8z"/>
		<path class="st1" d="M19.7,27.9C19.7,27.9,19.7,27.9,19.7,27.9C19.7,28,19.7,28,19.7,27.9C19.7,27.9,19.7,27.9,19.7,27.9z"/>
		<path class="st1" d="M0.9,27.9C0.9,27.9,0.9,27.9,0.9,27.9c0.1,0,0.2,0,0.4,0H0.9z"/>
		<path class="st1" d="M0.9,27.9C0.9,27.9,0.9,27.9,0.9,27.9C0.9,27.9,0.9,27.9,0.9,27.9C0.9,27.9,0.9,27.9,0.9,27.9z"/>
	</g>
</g>
</svg>
