<?xml version="1.0" encoding="utf-8"?>
<!-- Generator: Adobe Illustrator 21.1.0, SVG Export Plug-In . SVG Version: 6.00 Build 0)  -->
<svg version="1.1" xmlns="http://www.w3.org/2000/svg" xmlns:xlink="http://www.w3.org/1999/xlink" x="0px" y="0px"
	 viewBox="0 0 73.3 52.1" style="enable-background:new 0 0 73.3 52.1;" xml:space="preserve">
<style type="text/css">
	.st0{fill:#000000;}
	.st1{fill:#FF483C;}
	.st2{fill:none;}
</style>
<g id="Layer_2">
</g>
<g id="I">
</g>
<g id="B">
</g>
<g id="V">
</g>
<g id="E">
	<g>
		<g>
			<polygon class="st0" points="27.8,1.5 29.9,1.5 29.9,7.3 31.3,7.3 31.3,1.5 33.3,1.5 33.3,0.2 27.8,0.2 			"/>
			<rect x="34.7" y="0.2" class="st0" width="1.4" height="7.1"/>
			<polygon class="st0" points="42.9,4.8 39.4,0.2 38.1,0.2 38.1,7.3 39.5,7.3 39.5,2.6 43,7.3 44.3,7.3 44.3,0.2 42.9,0.2 			"/>
			<path class="st0" d="M50,4.9h1.3c-0.2,0.8-0.9,1.2-1.8,1.2c-1.6,0-2.3-1.2-2.3-2.4c0-1.2,0.8-2.4,2.2-2.4c0.8,0,1.5,0.4,1.6,1
				l0.1,0.2h1.4l0-0.3c-0.2-1.3-1.5-2.2-3-2.2c-2.3,0-3.6,1.9-3.6,3.7c0,1.8,1.3,3.7,3.7,3.7c1.7,0,3-1,3.3-2.5h0.8V3.6H50V4.9z"/>
			<polygon class="st0" points="71.7,0.2 70.3,2.9 68.6,0.2 67,0.2 69.6,4.4 68.2,7.3 69.7,7.3 73.3,0.2 			"/>
			<path class="st0" d="M58.6,4.6c0.7-0.4,1.2-1.2,1.2-2c0-1.3-1.1-2.4-2.4-2.4h-2.7v7.1H56V4.9h1.2l1.1,2.4h1.6L58.6,4.6z
				 M57.4,3.6H56V1.5h1.3c0.6,0,1.1,0.5,1.1,1.1C58.5,3.1,58,3.6,57.4,3.6"/>
			<path class="st0" d="M64.6,0.2L64.6,0.2l-1.2-0.1l-2.5,7.1h1.5l0.5-1.6H65l0.5,1.6H67L64.6,0.2z M63.2,4.5l0.7-2.3l0.7,2.3H63.2z
				"/>
			<path class="st0" d="M25.2,3.2l-1.3-0.3c-0.5-0.1-0.8-0.4-0.8-0.8c0-0.5,0.4-0.8,1.1-0.8c0.7,0,1.1,0.4,1.3,0.8H27
				c-0.2-1.2-1.2-2-2.8-2c-1.5,0-2.5,0.9-2.5,2.2c0,1.2,0.8,1.7,1.8,1.9l1.3,0.3c0.6,0.1,0.9,0.4,0.9,0.8c0,0.6-0.5,0.9-1.2,0.9
				c-0.7,0-1.2-0.3-1.4-0.9h-1.5c0.2,1.3,1.3,2.1,2.9,2.1c1.5,0,2.6-0.8,2.6-2.2C27,4.1,26.3,3.4,25.2,3.2"/>
		</g>
		<g>
			<path class="st1" d="M20.9,20.5L20.9,20.5c-0.1,0.4-0.1,0.6,0.1,0.9c0.3,0.4,0.6,0.5,1.1,0.5c0.1,0,0.3,0,0.4,0l0,0
				c0.5-0.1,0.7-0.4,0.7-0.6c0.1-0.4-0.2-0.9-0.5-1.2L22.6,20h-0.1C22,20,21.4,20.2,20.9,20.5L20.9,20.5z"/>
			<path class="st1" d="M18.1,41.8L18.1,41.8C18.2,41.8,18.1,41.8,18.1,41.8C18.1,41.8,18.1,41.8,18.1,41.8z"/>
			<path class="st1" d="M30.7,29.5c-0.3-0.2-0.6-0.1-0.8,0.2c-0.2,0.3-0.5,0.7-0.7,1c0,0.1,0,0.1,0.1,0c0,0,0.1,0,0.1,0
				c-0.1,0-0.1,0-0.1,0c0,0,0,0-0.1,0c-0.3,0.4-0.6,0.8-0.9,1.3c-0.3,0.4-0.6,0.8-0.9,1.2c-0.2,0.4-0.4,0.7-0.6,1
				c-0.3,0.3-0.5,0.6-0.6,1c-0.2,0.3-0.4,0.6-0.6,0.9c-0.2,0.3-0.4,0.6-0.7,0.8c-0.4,0.7-0.9,1.4-1.4,2.1c-0.5,0.7-1,1.3-1.6,1.9
				c-0.1-0.1-0.2-0.2-0.2-0.3c0-0.1-0.1-0.3-0.2-0.4c0-0.2,0-0.4-0.1-0.6c0-0.2-0.1-0.3-0.2-0.5c0.1,0,0.1,0,0.1-0.1
				c0,0,0-0.1,0-0.1c-0.1-0.3-0.1-0.7-0.1-1.1c0-0.4,0-0.8,0-1.3l0.1-0.2c0-0.7,0.1-1.4,0.2-2.1c0.1-0.7,0.2-1.4,0.3-2.2
				c0.2-0.4,0.2-0.6,0.2-0.9c0-0.2,0.1-0.5,0.2-0.8c0-0.1,0-0.1,0-0.1c0,0,0,0,0-0.1c0.1-0.2,0.1-0.4,0.2-0.6c0-0.2,0.1-0.3,0.1-0.5
				c0.1-0.2,0.1-0.3,0.2-0.4c0,0-0.1-0.1-0.1-0.2c0.1-0.4,0.2-0.7,0.2-1c0-0.3,0.1-0.6,0.2-0.8c0-0.2,0-0.4,0-0.6c0-0.2,0-0.4,0-0.6
				c0-0.3-0.1-0.6-0.3-0.8c-0.1-0.2-0.2-0.4-0.3-0.6c-0.1,0-0.2-0.1-0.2-0.1c0,0-0.1-0.1-0.2-0.1c-0.4-0.1-0.8-0.1-1.2-0.1
				c-0.4,0-0.7,0.1-0.9,0.2c-0.2,0.1-0.3,0.3-0.5,0.4c-0.2,0.1-0.3,0.2-0.5,0.4c-0.3,1.3-0.6,2.7-0.8,3.9c-0.2,1.3-0.5,2.6-0.7,3.9
				v0.8c0,0.1-0.1,0.2-0.2,0.2c0.1,0,0.2,0.1,0.1,0.2c0,0.1-0.1,0.1-0.1,0.2c0,0.1,0,0.1,0.1,0.1c0.1,0,0.1,0,0.1,0.1
				c-0.1,0.4-0.1,0.8-0.1,1.1c0,0.4,0,0.7,0,1.1c-0.1,0.1-0.1,0.2-0.1,0.3c0,0.1,0,0.2,0.1,0.2c-0.1,0-0.1,0-0.1,0.1
				c0,0.1,0,0.1-0.1,0.2c0.1,0,0.1,0.1,0.1,0.1c-0.1,0,0,0.1,0,0.1c0,0.1,0,0.1,0,0.1c0,0,0,0.1,0,0.2c0,0.1,0,0.1,0,0.1
				c0,0-0.1,0-0.1,0.1c0.1,0.1,0.1,0.1,0.1,0.1c-0.1,0-0.1,0-0.1,0.1c0,0,0,0,0,0.1c0,0.4,0.1,0.8,0.1,1.2c0,0.4,0.2,0.8,0.3,1.1
				c-0.1,0.1-0.1,0.2,0,0.3c0.1,0.1,0.1,0.2-0.1,0.2c0.1,0.1,0.1,0.2,0.1,0.3s0,0.2,0.1,0.3c0.1,0.1,0.1,0.1,0.2,0.2
				c0.1,0.1,0,0.1,0,0.2c0.2,0,0.2,0,0.3,0.1c0,0,0,0-0.1,0c-0.1,0-0.1,0,0,0.1c0.2,0.1,0.3,0.2,0.5,0.4c0.1,0.1,0.3,0.2,0.5,0.3
				c0,0.1,0,0.2,0.1,0.2c0.1,0,0.1,0,0.1,0.1c0.3,0.1,0.6,0.2,1,0.3c0.4,0.1,0.7,0.1,1,0.1c0-0.1,0.1-0.1,0.1-0.2
				c0-0.1,0-0.2,0.1-0.2c0,0.1,0,0.3-0.1,0.4c0.5,0,1,0,1.3-0.2c0.4-0.2,0.7-0.3,1.2-0.5c0-0.1,0-0.1,0.1-0.2c0,0.1,0,0.1,0.1,0
				c0,0,0.1,0,0.1,0c0.1-0.2,0.3-0.4,0.5-0.6c0.2-0.2,0.4-0.4,0.6-0.5c0.2-0.2,0.3-0.4,0.5-0.6c0.2-0.2,0.3-0.4,0.5-0.6
				c0-0.1,0-0.1,0-0.1c-0.1,0-0.1,0,0-0.1c0.5-0.5,1-1.1,1.3-1.7c0.4-0.6,0.8-1.2,1.3-1.7c0.1-0.2,0.1-0.3,0.2-0.4
				c0.1-0.1,0.1-0.2,0.3-0.3c0-0.1,0-0.2,0.1-0.3c0.1,0,0.1-0.1,0.1-0.3c0.1,0,0.2-0.1,0.2-0.1c0-0.1,0.1-0.1,0.1-0.2
				c0-0.1,0-0.2,0.1-0.3c0.1-0.1,0.2-0.1,0.2-0.2c0.1-0.1,0.1-0.3,0.2-0.4c0,0,0,0.1,0,0.1c0,0,0,0.1,0,0.1c3.7-3.8,2-4,1-4.5
				c-0.1,0-0.3-0.1-0.3-0.1C30.8,29.6,30.7,29.6,30.7,29.5z"/>
			<path class="st1" d="M17.8,36.3C17.8,36.3,17.8,36.3,17.8,36.3C17.8,36.4,17.8,36.4,17.8,36.3z"/>
		</g>
		<g>
			<path class="st1" d="M36.9,25.8c-0.1,0-0.1,0-0.1,0C36.9,25.9,36.9,25.9,36.9,25.8z"/>
			<path class="st1" d="M37.5,25.7C37.5,25.7,37.5,25.7,37.5,25.7L37.5,25.7L37.5,25.7C37.5,25.7,37.5,25.7,37.5,25.7z"/>
			<path class="st1" d="M44.2,33.9C44.2,33.9,44.2,33.8,44.2,33.9C44.2,33.8,44.2,33.8,44.2,33.9z"/>
			<path class="st1" d="M37.8,25.6L37.8,25.6C37.8,25.6,37.8,25.6,37.8,25.6z"/>
			<path class="st1" d="M44.2,33.8C44.3,33.8,44.3,33.8,44.2,33.8C44.1,33.8,44.1,33.8,44.2,33.8z"/>
			<path class="st1" d="M38.4,25.2C38.4,25.1,38.4,25.1,38.4,25.2C38.4,25.2,38.4,25.2,38.4,25.2z"/>
			<path class="st1" d="M38.1,25.5C38.1,25.4,38.1,25.4,38.1,25.5C38.1,25.5,38.1,25.5,38.1,25.5z"/>
			<path class="st1" d="M38.2,25.3C38.2,25.2,38.2,25.2,38.2,25.3c0.1-0.1,0.1-0.1,0.2-0.1C38.3,25.2,38.2,25.2,38.2,25.3
				C38.1,25.2,38.1,25.3,38.2,25.3z"/>
			<path class="st1" d="M33.4,40.8c-0.1,0-0.1,0.1-0.1,0.2C33.4,41,33.5,40.9,33.4,40.8z"/>
			<path class="st1" d="M33.5,38C33.5,38.1,33.5,38.1,33.5,38C33.6,38,33.6,38,33.5,38z"/>
			<path class="st1" d="M44,34.3L44,34.3c0.1,0,0.1,0,0.1,0v0L44,34.3L44,34.3z"/>
			<path class="st1" d="M44.1,34C44.2,34,44.2,33.9,44.1,34C44.1,33.9,44.1,33.9,44.1,34z"/>
			<path class="st1" d="M37.2,38.7C37.2,38.7,37.2,38.6,37.2,38.7C37.2,38.6,37.2,38.6,37.2,38.7z"/>
			<path class="st1" d="M33.6,37.9C33.5,37.9,33.5,37.9,33.6,37.9L33.6,37.9C33.6,37.9,33.6,37.9,33.6,37.9z"/>
			<path class="st1" d="M45.5,27.3c0-0.1,0-0.1,0-0.2c0-0.1,0-0.1,0-0.2c-0.1-0.2-0.3-0.4-0.4-0.6c-0.1-0.2-0.3-0.4-0.6-0.5
				c0.1-0.1,0-0.2-0.1-0.3c-0.2-0.1-0.3-0.2-0.4-0.3c0,0-0.1,0-0.1,0c0,0,0,0-0.1,0v-0.1c-0.4-0.1-0.7-0.2-1-0.3
				c-0.3-0.1-0.6-0.1-1-0.2c0,0.1-0.1,0.1-0.2,0c-0.1,0-0.2,0-0.3,0c-0.2,0.1-0.4,0.1-0.5,0c-0.2-0.1-0.4-0.1-0.5,0
				c0.1,0,0.1,0,0.1,0.1c-0.1,0-0.1,0-0.2,0c0,0-0.1,0-0.1-0.1c-0.3,0.1-0.5,0.2-0.8,0.2c-0.3,0.1-0.5,0.1-0.7,0.2
				c-0.1,0-0.2,0-0.2,0.1c0-0.1,0.1-0.1,0.2-0.1c0,0.1,0,0.2-0.1,0.2c-0.1,0-0.2,0.1-0.2,0.1l0.1,0c-0.3,0.1-0.5,0.1-0.7,0.3
				c-0.2,0.1-0.4,0.2-0.7,0.3c0,0.1,0,0.1-0.1,0.1c0,0-0.1,0-0.1-0.1C36.9,26,36.8,26,36.8,26c-0.1,0,0,0.1,0,0.2
				c-0.1,0.1-0.3,0.1-0.5,0.2c-0.2,0-0.2,0.1-0.2,0.2c-0.1,0-0.2,0-0.2,0.1c0,0.1,0,0.1-0.1,0.2c-0.3,0.1-0.5,0.3-0.7,0.5
				c-0.2,0.2-0.4,0.3-0.7,0.5c0-0.5,0-0.9,0.1-1.4c0.1-0.4,0.1-0.8,0.1-1.2c0.2-0.8,0.3-1.7,0.3-2.6c0-0.9,0.1-1.8,0.1-2.7
				c0-0.3,0.1-0.5,0.1-0.8c0-0.2,0.1-0.5,0.1-0.8c0-0.1,0-0.2,0-0.4c0-0.1,0-0.3,0-0.5c0.1-0.1,0.1-0.1,0.1-0.1
				c0-0.4,0.1-0.8,0.2-1.3c0.1-0.4,0.2-0.9,0.1-1.3c0.1,0,0.1-0.1,0.1-0.1c0,0,0-0.1,0.1-0.1c0-0.1,0-0.2,0.1-0.4
				c-0.1-0.4-0.2-0.7-0.1-1c0.1-0.3,0.2-0.6,0.2-0.9c0-0.2-0.1-0.4-0.2-0.6c-0.1-0.2-0.2-0.4-0.2-0.6c-0.1-0.1-0.2-0.2-0.4-0.4
				c-0.2-0.1-0.3-0.2-0.4-0.4c-0.2-0.1-0.4-0.2-0.7-0.3c-0.2-0.1-0.5-0.2-0.8-0.1c-0.2,0-0.4,0.1-0.5,0.2c-0.1,0.1-0.3,0.2-0.5,0.2
				c-0.1,0-0.2,0-0.2,0.1c-0.1,0-0.2,0-0.3,0.1c-0.1,0.1-0.1,0.1-0.2,0.1c-0.1,0-0.1,0.1-0.1,0.3c-0.1,0.2-0.1,0.5-0.1,0.7
				c0,0.3,0,0.5,0,0.8c0,0.1,0,0.1-0.1,0.1c0,0-0.1,0-0.1,0c0.1,0,0.1,0,0.1,0c0,0,0,0.1,0,0.1c-0.1,0.1-0.1,0.2-0.1,0.4
				c0,0.2,0,0.3-0.1,0.5c0.1,0,0.1,0,0.1,0.1c0,0.1-0.1,0.1-0.1,0.1c0,0,0,0.1-0.1,0.1c0.1,0.3,0.1,0.7,0.1,1.1
				c0,0.4-0.1,0.7-0.1,1.1c0,0.1,0,0.3,0,0.4c0,0.1,0,0.2,0,0.4c-0.1,0.1-0.1,0.2-0.1,0.3c0,0.1,0,0.2-0.1,0.2c0,0.1,0,0.1,0,0.1
				c0,0,0,0,0,0.1l-0.2,0.1c0.1,0.1,0.1,0.3,0.1,0.5c0,0.2,0,0.4-0.1,0.5c0.1,0.1,0.1,0.1,0.1,0.3c0,0.1,0,0.2-0.1,0.3
				c0.1,0.2,0.1,0.4,0,0.6c-0.1,0.2-0.1,0.5-0.1,0.6c0,0.1,0,0.1-0.1,0c-0.1,0-0.1,0,0,0c0.1,0.4,0.1,0.7,0,1
				c-0.1,0.3-0.1,0.6,0,0.9c-0.1,0-0.1,0-0.1,0c0,0,0,0.1-0.1,0.1c0.1,0.1,0.1,0.2,0.1,0.3c0,0.1-0.1,0.3-0.2,0.4
				c0.3,0.6,0.1,1-0.4,1.3c0.2,0.2,0.3,0.4,0.2,0.6c0,0.1,0.1,0.1,0.1,0.2c-0.1,0-0.1,0.1-0.1,0.1c0,0.1,0,0.1,0.1,0.1
				c-0.1,0.1-0.1,0.1-0.1,0.1c0,0,0,0.1,0,0.2c0.1,0,0.2,0,0.2,0.1c0,0.1,0,0.1-0.1,0.1c-0.1,0-0.1,0,0,0.1c0.1,0.3,0.1,0.5,0.1,0.6
				c0,0.1-0.1,0.3-0.2,0.6c0.2,0.1,0.2,0.2,0.2,0.3c-0.1,0.1-0.1,0.2-0.1,0.3c0.1,0.1,0.1,0.1,0.1,0.1c0,0.3,0,0.6-0.1,0.9
				c0,0,0,0,0,0c-0.4,0.7-0.8,1.3-1.3,1.9c0,0.1,0,0.1,0.1,0c0,0,0.1,0,0.1,0c-0.1,0-0.1,0-0.1,0c0,0,0,0-0.1,0
				c-0.3,0.4-0.6,0.8-0.9,1.3c-0.3,0.4-0.6,0.8-0.9,1.2c-0.2,0.4-0.4,0.7-0.6,1c-0.3,0.3-0.5,0.6-0.6,1c-0.2,0.3-0.4,0.6-0.6,0.9
				c-0.2,0.3-0.4,0.6-0.7,0.8c-0.4,0.7-0.9,1.4-1.4,2.1c-0.4,0.5-0.7,1-1.1,1.4c-0.1,0.1-0.1,0.3-0.1,0.4c0,0.1,0.1,0.1,0.1,0.2
				c0.1,0.2,0.1,0.4,0.2,0.6c0.1,0.3,0.3,0.5,0.6,0.5c0.3,0,0.5,0.1,0.8,0.3c0,0,0,0,0,0c0,0.1,0,0.1,0.1,0c0,0,0.1,0,0.1,0
				c0.1-0.2,0.3-0.4,0.5-0.6c0.2-0.2,0.4-0.4,0.6-0.5c0.2-0.2,0.3-0.4,0.5-0.6c0.2-0.2,0.3-0.4,0.5-0.6c0-0.1,0-0.1,0-0.1
				c-0.1,0-0.1,0,0-0.1c0.5-0.5,1-1.1,1.3-1.7c0.4-0.6,0.8-1.2,1.3-1.7c0.1-0.2,0.1-0.3,0.2-0.4c0.1-0.1,0.1-0.2,0.3-0.3
				c0-0.1,0-0.2,0.1-0.3c0.1,0,0.1-0.1,0.1-0.3c0.1,0,0.2-0.1,0.2-0.1c0-0.1,0.1-0.1,0.1-0.2c0-0.1,0-0.2,0.1-0.3
				c0.1-0.1,0.2-0.1,0.2-0.2c0.1-0.1,0.1-0.3,0.2-0.4c0,0,0,0.1,0,0.1c0,0.2,0,0.4-0.1,0.6c0,0,0,0,0,0c0,0,0,0,0,0
				c0,0.1-0.1,0.2-0.1,0.3c0,0.1,0,0.2,0,0.3c-0.1,0.1-0.2,0.2-0.2,0.4c0,0.2-0.1,0.3-0.2,0.4c0.1,0.1,0.1,0.1,0.1,0.3
				c0,0.1-0.1,0.2-0.1,0.3c-0.2,0.8-0.4,1.7-0.6,2.7c-0.2,0.9-0.3,1.9-0.4,2.8l-0.1,0c0,0.1,0,0.1,0.1,0.1c0,0,0,0,0,0.1
				c-0.2,0.4-0.2,0.8-0.2,1.4c0.1,0.5,0,1-0.1,1.3h0.1l0.1,0c-0.1,0.2-0.1,0.4,0,0.7c0.1,0.3,0.1,0.5,0,0.7c0,0.1,0.1,0.2,0.1,0.3
				c0.1,0.1,0,0.2,0,0.3c0.1,0.1,0.1,0.1,0.2,0.1c0,0,0.1,0.1,0.1,0.2c0,0,0,0,0.1,0c0,0,0.1,0,0.1,0c0,0.1,0,0.1-0.1,0.1
				c0,0-0.1,0-0.1,0.1c0.2,0,0.4,0.1,0.5,0.1c0.2,0.1,0.4,0.1,0.5,0c0.1-0.1,0.2-0.1,0.4-0.1c0.2,0,0.4,0,0.6,0c0.2,0,0.4,0,0.5,0
				c0.2,0,0.3-0.1,0.3-0.1c0.2,0,0.3,0,0.4-0.1c0.1-0.1,0.2-0.1,0.4-0.1c0-0.2,0.1-0.3,0.2-0.3c0.1-0.1,0.1-0.2,0.1-0.3l0.1-0.1
				c0-0.2,0-0.3,0-0.4c0-0.1,0-0.2,0-0.4c0.2-0.1,0.4-0.2,0.5-0.3c0.2-0.1,0.4-0.2,0.7-0.2c-0.1,0.1-0.2,0.1-0.2,0.1
				c-0.1,0-0.2,0.1-0.4,0.1c0,0.1,0,0.2-0.1,0.2c-0.1,0.1-0.1,0.2-0.2,0.3c0.2,0,0.3,0,0.4-0.1c0.1-0.1,0.2-0.1,0.4-0.1
				c0-0.1,0.1-0.1,0.1-0.1c0,0,0-0.1,0.1-0.1h0.2c0.1-0.2,0.3-0.3,0.5-0.4c0.1,0.1,0.1,0.1-0.1,0.1c-0.1,0-0.1,0.1-0.1,0.1
				c0.3,0.1,0.4,0,0.5-0.1c0.1-0.1,0.1-0.2,0.1-0.3c0.2,0,0.3-0.1,0.4-0.2c0.1-0.1,0.2-0.2,0.4-0.1c0-0.1,0.1-0.1,0.1-0.2
				c0,0,0.1,0,0.2,0v-0.1c0.2-0.1,0.4-0.1,0.4-0.3c0.1-0.1,0.2-0.2,0.4-0.4c0-0.1,0-0.1,0.1-0.2c0.1,0,0.1-0.1,0-0.2
				c0.1,0,0.2-0.1,0.2-0.1c0-0.1,0.1-0.1,0.2-0.2c0-0.1,0-0.2,0-0.2c0,0,0.1,0,0.1,0c0,0,0,0,0.1,0c0.2-0.2,0.3-0.4,0.5-0.5
				c0.1-0.1,0.3-0.3,0.4-0.6c0.1,0,0.1,0,0.2-0.1c0.1-0.4,0.3-0.7,0.6-0.9c0.3-0.2,0.4-0.5,0.4-0.9c0.1-0.1,0.2-0.1,0.2-0.2
				c0-0.1,0.1-0.1,0.3-0.2v-0.1h0.1c0-0.2,0.1-0.3,0.4-0.4c0-0.1,0-0.1,0-0.1c0,0,0,0,0.1-0.1c-0.1-0.1-0.1-0.1,0-0.2
				c0.1-0.1,0.2-0.2,0.2-0.3c0.3-0.1,0.4-0.3,0.4-0.5c0-0.2,0.2-0.4,0.4-0.5c-0.1-0.1,0-0.1,0.2-0.2c0-0.1,0-0.1-0.1-0.1
				c0,0-0.1,0-0.1-0.1c0.2-0.2,0.4-0.4,0.5-0.6c0.1-0.2,0.2-0.4,0.4-0.6c0-0.3,0.1-0.4,0.2-0.5c0.2-0.1,0.2-0.3,0.2-0.5
				c0.2-0.1,0.3-0.3,0.4-0.6c0.1,0,0.2-0.1,0.2-0.2c0-0.1,0-0.1-0.1-0.1c0,0-0.1,0-0.1-0.1c0.2-0.1,0.2-0.2,0.2-0.4
				c0.2-0.2,0.3-0.4,0.4-0.7c0-0.2,0.1-0.4,0.3-0.6c-0.1-0.1,0-0.2,0.1-0.3c0.1-0.1,0.2-0.3,0.2-0.4c0.1-0.1,0.1-0.3,0.2-0.5
				c0.1-0.2,0.1-0.4,0.1-0.5l0.1,0l0.1,0c0-0.1,0-0.1,0-0.1c0,0,0,0,0-0.1c0.1-0.1,0.2-0.2,0.1-0.4c0-0.1,0-0.3,0.1-0.4
				c0-0.3,0-0.7,0-1C45.7,27.9,45.6,27.6,45.5,27.3z M36.9,26c0,0,0.1,0,0.1,0C37,26.1,36.9,26.1,36.9,26C36.8,26.1,36.8,26,36.9,26
				z M34.3,44.7c-0.1,0-0.1,0.1-0.1,0.1c-0.1-0.1-0.1-0.1,0-0.1c0.1,0,0.2-0.1,0.2-0.1C34.4,44.6,34.3,44.7,34.3,44.7z M35,44.9
				c0,0.1-0.1,0.1-0.2,0.1c0-0.1,0-0.2,0.1-0.2c0.1,0,0.2,0,0.2-0.1c0.1,0,0.1,0,0.1,0.1C35.1,44.8,35,44.9,35,44.9z M35.5,44.6
				c-0.1,0-0.1,0-0.1,0.1c0,0-0.1,0-0.1-0.1c0.1-0.1,0.2-0.1,0.2-0.1C35.5,44.4,35.5,44.4,35.5,44.6c0-0.1,0.1-0.1,0.1-0.1
				C35.6,44.6,35.6,44.6,35.5,44.6z M41.8,29.2c0,0.2-0.1,0.4-0.2,0.5c-0.1,0.4-0.2,0.7-0.4,1.1c-0.2,0.4-0.3,0.7-0.5,1
				c-0.1,0.2-0.2,0.5-0.2,0.7c-0.1,0.2-0.2,0.4-0.4,0.6c0,0.1,0,0.1-0.1,0.2c-0.1,0.1,0,0.1,0,0.2c-0.1,0-0.1,0-0.1,0.1
				c0,0.1,0,0.1-0.1,0.1c0,0.2,0,0.4-0.2,0.6c-0.2,0.2-0.3,0.4-0.4,0.6L38,37.5c0,0,0,0-0.1,0l0,0l-0.1,0.2l0,0c0,0,0,0,0,0
				l-0.1,0.2c0,0-0.1,0-0.1,0v0.1h-0.1c0,0.1,0.1,0.2,0,0.2l0,0.1c-0.1,0.1-0.1,0.1-0.2,0.2h0.1v0l0,0.1c0,0,0,0-0.1,0
				c0,0.1-0.1,0.2-0.1,0.2l-0.3,0.4c-0.1,0-0.1,0.1-0.1,0.1l0,0c0,0-0.1,0-0.1,0.1c0,0,0.1,0,0.1,0l-0.4,0.5c0,0-0.1,0-0.1,0.1
				c0,0.1,0,0.1,0,0.2l-0.4,0.5c-0.2,0.2-0.3,0.3-0.5,0.5c-0.1,0-0.1,0-0.1,0c0,0,0,0-0.1,0c0.1,0.1,0.1,0.1,0.1,0.1c0,0,0,0,0,0.1
				L34.8,42c-0.2,0.1-0.3,0.3-0.3,0.5c-0.1,0.1-0.1,0.1-0.1,0.1c0,0-0.1,0.1-0.1,0.1c0,0,0,0,0.1,0c-0.1,0.1-0.2,0.2-0.3,0.3
				c-0.1,0.1-0.3,0.2-0.5,0.3c0,0.1-0.1,0.2-0.3,0.2c0-0.1,0-0.2,0-0.3c0-0.1,0-0.1,0-0.2c0.1-0.2,0.1-0.4,0.1-0.6
				c-0.1-0.3,0-0.5,0.1-0.7c-0.1,0-0.1,0-0.1-0.1c0,0,0-0.1-0.1-0.1c0-0.1,0-0.1,0-0.1c0,0,0,0,0-0.1c0.1-0.1,0.2-0.2,0.1-0.4
				c-0.1,0-0.1,0.1-0.1,0.1c0,0.1,0,0.1-0.1,0.1c0-0.1,0-0.1,0.1-0.2c0.1-0.1,0-0.1,0-0.2c0-0.1,0-0.3,0-0.4c0.1-0.1,0.1-0.3,0-0.5
				c0-0.1,0.1-0.1,0.1-0.2c0-0.1,0-0.1-0.1-0.2c0.1-0.2,0.1-0.4,0.1-0.7v-0.6l0.1-0.1c-0.1-0.3-0.1-0.6,0-0.9
				c0.1-0.3,0.1-0.6,0.2-0.9c0.1-0.2,0.2-0.3,0.2-0.5c0-0.2,0.1-0.4,0.2-0.5v-0.2c0-0.1,0-0.2,0.1-0.4c0.1-0.1,0.1-0.2,0-0.4
				c0.2-0.3,0.4-0.6,0.5-1c0.1-0.4,0.3-0.7,0.5-1c-0.1-0.1-0.1-0.2,0-0.2c0.1,0,0.1-0.1,0-0.2c0.2-0.1,0.3-0.2,0.3-0.3
				c0-0.1,0.1-0.2,0.3-0.3c0-0.1,0-0.1-0.1-0.2h0.1c0.1-0.2,0.2-0.4,0.3-0.6c0-0.2,0.2-0.4,0.4-0.5c-0.1,0-0.1,0-0.1,0
				c0,0,0.1,0,0.1-0.1c0.1,0,0.1,0,0.1,0c0,0,0,0,0.1,0c0.1-0.3,0.2-0.5,0.4-0.7c0.2-0.2,0.4-0.4,0.6-0.6v-0.1
				c0.3-0.1,0.4-0.3,0.4-0.5c0.1,0,0.1,0,0.1,0c0,0,0.1,0,0.1,0c0-0.1,0-0.1,0.1-0.1c0.1,0,0.1-0.1,0.1-0.2c0.2-0.1,0.4-0.3,0.5-0.4
				c0.1-0.2,0.3-0.3,0.6-0.4c0,0,0,0,0,0c0,0,0,0,0-0.1c0.2-0.1,0.4-0.2,0.6-0.3c0.2-0.1,0.4-0.2,0.7-0.3c0.4,0.3,0.6,0.8,0.8,1.4
				c0,0.2,0,0.4,0.1,0.6c0,0.2,0,0.4-0.1,0.6C41.9,28.9,41.9,29,41.8,29.2z"/>
			<path class="st1" d="M33.1,45.3C33.1,45.3,33.1,45.3,33.1,45.3L33.1,45.3C33.1,45.2,33.1,45.2,33.1,45.3
				C33,45.2,33.1,45.2,33.1,45.3C33.1,45.2,33.1,45.2,33.1,45.3z"/>
			<path class="st1" d="M33.5,43.7C33.4,43.7,33.4,43.7,33.5,43.7L33.5,43.7l-0.1,0.1C33.3,43.7,33.3,43.7,33.5,43.7
				c0,0,0-0.1-0.1-0.1C33.5,43.6,33.5,43.6,33.5,43.7C33.5,43.6,33.5,43.6,33.5,43.7C33.6,43.7,33.5,43.7,33.5,43.7z"/>
			<path class="st1" d="M33.7,43.5C33.7,43.5,33.7,43.5,33.7,43.5c-0.2-0.1-0.1-0.1,0-0.1C33.7,43.5,33.7,43.5,33.7,43.5z"/>
			<path class="st1" d="M34.2,45C34.2,44.9,34.2,44.9,34.2,45C34.3,44.9,34.3,44.9,34.2,45L34.2,45z"/>
			<path class="st1" d="M34.5,45C34.5,45,34.5,45,34.5,45C34.4,44.9,34.4,44.9,34.5,45C34.5,44.9,34.5,44.9,34.5,45z"/>
			<path class="st1" d="M36.2,43.2C36.1,43.3,36.1,43.3,36.2,43.2C36.3,43.2,36.3,43.2,36.2,43.2z"/>
			<rect x="39.7" y="39" class="st1" width="0.1" height="0"/>
			<path class="st1" d="M29.6,36.8C29.6,36.8,29.6,36.8,29.6,36.8C29.5,36.8,29.6,36.9,29.6,36.8z"/>
		</g>
		<path class="st1" d="M17.2,24.9h0.1c0-0.1,0-0.1,0-0.2c0,0,0-0.1,0-0.1c-0.1,0-0.1,0-0.1,0c0,0-0.1,0-0.1,0
			c0.1-0.1,0.1-0.2,0.2-0.3c0-0.1,0.1-0.2,0.1-0.3l0.1,0.1V24l0.1,0c-0.1,0-0.1-0.1-0.1-0.1c0,0,0,0-0.1,0c0,0,0.1-0.1,0.2-0.1
			c0.1,0.1,0.1,0.1,0,0.2l0.1,0.1c0,0,0,0,0-0.1c0,0,0-0.1,0.1-0.1c0-0.1,0-0.1-0.1-0.1c-0.1,0-0.1,0,0-0.1h0.1
			c0.2-0.3,0.3-0.5,0.3-0.7h0.1c-0.1-0.1-0.1-0.1,0-0.1c0.1,0,0.1-0.1,0.2-0.1c0.1-0.2,0.2-0.3,0.3-0.5c0.1-0.1,0.1-0.3,0.1-0.5
			c0.1,0,0.1,0,0.1,0c0,0,0,0,0.1,0c-0.1-0.2,0-0.4,0.1-0.5c0.2-0.1,0.2-0.3,0.1-0.5c0.1-0.1,0.2-0.1,0.2-0.2c0-0.1,0-0.1,0.1-0.2
			c-0.1-0.1-0.1-0.1,0-0.2c0.1-0.1,0.1-0.1,0-0.2c0.2,0,0.2-0.1,0.2-0.3c0.1,0,0.1,0,0.1,0c0,0,0-0.1,0-0.1c0.1,0,0.1,0,0-0.1
			c-0.1,0-0.1,0,0-0.1c0.1,0,0.1-0.1,0.2-0.2c0.1-0.1,0.1-0.2,0-0.3c0.1-0.1,0.3-0.2,0.3-0.3c0.1-0.2,0.1-0.3,0-0.4h0.1
			c-0.1-0.1-0.1-0.1,0-0.2c0.1-0.1,0.1-0.1,0-0.2c0.1,0,0.2,0,0.2-0.1c0-0.1,0-0.2,0.2-0.2c0-0.1,0-0.1,0-0.1c0,0,0,0-0.1-0.1
			c0.1,0,0.1,0,0.2-0.1c0-0.1,0-0.1-0.1-0.1c0.2-0.2,0.3-0.4,0.2-0.6c0.1,0,0.2-0.1,0.2-0.2c0-0.1,0-0.2-0.1-0.2c0.1,0,0.1,0,0.1,0
			c0,0,0,0,0.1,0c0-0.1,0-0.1-0.1-0.1c-0.1,0-0.1,0-0.1-0.1c0.1-0.1,0.1-0.1,0.2-0.1c0.1,0,0.1-0.1,0.2-0.2c-0.1,0-0.2,0-0.1-0.1
			c0-0.1,0-0.1-0.1,0c-0.1,0-0.1,0-0.1,0c-0.1-0.1-0.1-0.2,0.1-0.3c0.1-0.1,0.1-0.1,0-0.2c0.1,0,0.1,0,0.1-0.1
			c0-0.1-0.1-0.1-0.1-0.2c0-0.1,0-0.1,0.2-0.1c0-0.1,0-0.1,0-0.2c0,0,0-0.1-0.1-0.1c0.1-0.1,0.2-0.1,0.2-0.1c0-0.1,0-0.2-0.1-0.2
			c0.1,0,0.1,0,0.1,0c0-0.1,0-0.1,0.1,0c0-0.1,0-0.1,0-0.1c-0.1,0-0.1,0-0.1-0.1h0.2h0.1c0-0.2,0.1-0.4,0.2-0.6c0-0.1,0-0.2,0.1-0.2
			c0,0-0.1,0-0.1,0c-0.1,0-0.1,0,0-0.1c0.1,0,0.2,0,0.3-0.1c0-0.1,0-0.3-0.1-0.5c-0.1-0.2-0.1-0.4,0.1-0.5c-0.1-0.1-0.1-0.2-0.1-0.2
			c0-0.1,0-0.2-0.1-0.3c0.1,0,0.2,0,0.2,0c0,0,0-0.1-0.1-0.1c0.2,0.1,0.3,0.1,0.3-0.1c-0.2,0.1-0.3,0.1-0.3,0
			c0.1-0.1,0.1-0.1,0.1-0.1c0-0.1,0-0.1,0-0.1c0,0,0,0,0-0.1c-0.2,0-0.3-0.1-0.3-0.2c0,0,0.1,0,0.1,0c0,0,0.1,0,0.1,0
			c0.1-0.1,0.1-0.1-0.1-0.1c-0.1,0-0.2,0-0.2-0.1c0-0.1,0.1-0.1,0.2-0.1c0.1,0,0.1,0,0.1-0.1c-0.1-0.1-0.1-0.1-0.1-0.1
			c0,0,0-0.1-0.1-0.1c-0.1,0.1-0.1,0.1-0.2,0c-0.1,0-0.2,0-0.3,0c0,0.1,0,0.1-0.1,0.1c-0.1,0-0.2,0-0.3,0c0,0.1,0,0.1,0.1,0
			c0.1,0,0.1,0,0.1,0c-0.3,0.1-0.5,0.1-0.5,0.3c0,0.1-0.1,0.2-0.3,0.3c0,0.1,0.1,0.1,0.1,0.1c0,0,0,0-0.1,0.1c0.1,0,0.1,0,0.1,0
			c0,0,0,0.1,0.1,0.1c-0.1,0.1-0.3,0.2-0.3,0.3c-0.1,0.1-0.2,0.2-0.4,0.3c0,0,0.1,0,0.1,0c0,0,0,0-0.1,0c0,0-0.1,0-0.1,0
			c0,0,0,0-0.1,0c0,0.1,0,0.1,0.1,0.1c0.1,0,0.1,0,0.1,0.1c-0.1,0.1-0.2,0.3-0.2,0.5c-0.1,0.1-0.2,0.1-0.3,0.3
			c-0.1,0.1-0.1,0.2-0.1,0.4c-0.2,0.1-0.3,0.2-0.3,0.4c0,0.2-0.1,0.3-0.3,0.4c0,0.1,0,0.1,0,0.1c0,0,0,0,0,0.1h-0.2
			c0.1,0.1,0.1,0.2,0.1,0.3c-0.1,0.1-0.1,0.2-0.2,0.3c0,0.1,0,0.1,0.1,0.1c0,0,0,0-0.1,0.1c-0.1,0.1-0.2,0.2-0.1,0.3
			c0,0.1-0.1,0.2-0.3,0.3c-0.1,0.2-0.2,0.3-0.3,0.4c0,0.1,0,0.1,0,0.1c0,0,0,0,0,0.1c-0.1,0.1-0.2,0.2-0.2,0.3
			c0,0.1-0.1,0.2-0.2,0.3c0.1,0,0.1,0,0.1,0c-0.1,0.1-0.1,0.1-0.1,0.2c0,0.1-0.1,0.2-0.2,0.2c0,0.1,0,0.1,0,0.2
			c0,0.1-0.1,0.1-0.3,0.1c0,0.1,0.1,0.1,0.1,0.1c0,0,0,0.1,0.1,0.1c-0.1,0.1-0.3,0.3-0.4,0.4c-0.1,0.2-0.1,0.3-0.1,0.6
			c-0.1,0.1-0.1,0.1-0.2,0.1c0.1,0.1,0.2,0.1,0.1,0.2c-0.1,0.1-0.1,0.2,0,0.3c0,0-0.1,0-0.2,0c-0.1,0-0.1,0-0.1,0.1
			c0.1,0,0.1,0,0.1,0.1c-0.2,0.1-0.3,0.2-0.3,0.4c0,0.2-0.1,0.3-0.3,0.4c0.1,0.1,0.1,0.3-0.1,0.5c-0.1,0.2-0.2,0.3-0.2,0.5
			c-0.1,0-0.1,0-0.1,0c0,0-0.1,0-0.1,0c0,0.1-0.1,0.2-0.1,0.2c0,0.1-0.1,0.2-0.1,0.2c0.1,0,0.1,0,0.1,0.1c0,0,0,0.1,0.1,0.1
			c-0.1,0.1-0.1,0.1-0.2,0.1c-0.1,0-0.1,0.1-0.1,0.1c0,0,0.1,0,0.1,0c0.1,0,0.1,0,0.1,0c-0.1,0.1-0.1,0.2-0.1,0.2
			c-0.1,0-0.1,0-0.1,0c0,0,0,0-0.1,0c0,0.1,0,0.1,0,0.1c-0.1,0-0.1,0,0,0.1c0,0.1,0,0.1,0.1,0.1c0.1,0,0.1,0,0.1,0.1
			c-0.1,0.2-0.2,0.4-0.2,0.5c0,0.2-0.2,0.3-0.4,0.4c0,0.2-0.2,0.5-0.4,0.7c0,0.1,0,0.1,0.1,0.1c0,0,0.1,0,0.1,0.1
			c-0.1,0.1-0.2,0.1-0.1,0.2c0.1,0.1,0,0.2,0,0.2c0.1,0,0.2,0,0.2,0c-0.1,0.1-0.1,0.1-0.1,0.1c0,0,0,0.1-0.1,0.1
			c-0.1,0-0.1,0-0.1-0.1c0,0,0,0,0,0c-0.1,0.1-0.1,0.1-0.1,0.1c0,0,0,0.1-0.1,0.1c0.1,0.1,0.1,0.2,0,0.3c-0.1,0.1-0.2,0.2-0.2,0.3
			c0,0,0.1,0,0.2,0.1c-0.1,0-0.1,0.1-0.1,0.1c0,0.1,0,0.1-0.2,0c0,0.1,0,0.2,0.1,0.2C13,25.9,13,26,12.9,26.1
			c-0.1,0.1-0.1,0.3,0,0.4c-0.1,0.1-0.1,0.1-0.1,0.3c0,0.1-0.1,0.2-0.3,0.3c0.1,0.1,0.1,0.3,0,0.5c-0.1,0.2-0.2,0.3-0.4,0.2
			C12,27.8,12,27.8,12,27.9c0,0,0,0.1-0.1,0.1c0.1,0.1,0.2,0.1,0.2,0.2c-0.1,0.1-0.1,0.2-0.1,0.3c0,0.1-0.1,0.2-0.1,0.3
			c-0.1,0-0.1-0.1-0.1-0.1c0,0,0-0.1-0.1-0.1c0.1,0.2,0.2,0.4,0.1,0.7c-0.1,0.3-0.2,0.5-0.3,0.7h0.1c0,0-0.1,0.1-0.1,0.1
			c0,0,0,0.1-0.1,0.1c-0.1-0.1-0.1-0.1-0.1,0c0,0.1,0,0.1-0.1,0c0,0.1,0,0.2,0.1,0.3c0.1,0.1,0,0.2-0.1,0.3
			c-0.1,0.4-0.3,0.9-0.4,1.3c-0.2,0.4-0.3,0.9-0.4,1.3c0,0.1-0.1,0.1-0.1,0.1c0,0,0,0-0.1,0.1c-0.1,0-0.1-0.1-0.1-0.1
			c0,0,0-0.1,0-0.1c0,0.2,0,0.2,0,0.3c0-0.1,0-0.1,0.1-0.1c0.1,0.1,0.1,0.1,0,0.2c-0.1,0.1-0.1,0.1-0.2,0.2c0,0,0.1,0,0.1,0
			c0,0,0,0,0,0.1c-0.1,0.2-0.1,0.4-0.2,0.6c0,0.2-0.1,0.4-0.2,0.6c0,0-0.1,0-0.1,0c0,0-0.1,0-0.1,0c0,0.1,0,0.1,0,0.1
			c0.1,0,0.1,0,0.1,0.1c-0.1,0-0.1,0-0.1,0c0,0,0,0-0.1,0c0,0.1-0.1,0.1-0.1,0.2c0,0.1,0,0.1-0.1,0.2c0.1,0.1,0.2,0.1,0.2,0.2
			c0,0-0.1,0.1-0.1,0.1c0,0-0.1,0-0.1,0c0,0.4-0.1,0.7-0.3,1c0,0,0,0,0-0.1c0,0,0,0,0,0.1c-0.1,0-0.1,0,0,0c0.1,0,0.1,0,0.1,0.1
			c-0.1,0.1-0.2,0.2-0.2,0.4c0,0.2-0.1,0.3-0.3,0.3c0.1,0.1,0.1,0.2,0.1,0.4c0,0.2-0.1,0.3-0.3,0.3c0,0.2,0,0.3-0.1,0.4
			c-0.1,0.1-0.1,0.2,0,0.4C8.1,39.2,8,39.2,8,39.2c0,0.1,0,0.1,0.1,0c0.1,0,0.1,0,0,0c-0.1,0-0.1,0.1-0.1,0.1c0,0.1,0,0.1,0,0.2H7.9
			c0,0.1,0,0.1,0,0.1c0,0,0,0,0,0c0.1,0,0.1,0,0.1,0c-0.1,0-0.1,0-0.1,0c-0.1,0-0.1,0.1-0.1,0.1c0,0.1,0,0.1,0.1,0.1
			c0,0-0.1,0-0.2,0c0,0.1,0,0.1,0,0.1c0.1,0,0.1,0,0,0.1c-0.2,0.3-0.3,0.6-0.4,1c-0.1,0.3-0.2,0.7-0.4,1.1C6.9,42,6.9,42,6.9,41.9
			c0-0.1,0-0.2-0.1-0.3C7,41.6,7,41.5,6.9,41.3c-0.1-0.1-0.1-0.3,0-0.4l-0.1,0c0-0.1,0-0.2,0.1-0.3c0-0.1,0-0.2-0.1-0.3h0.1
			c-0.1-0.1-0.1-0.2-0.1-0.3c0-0.1,0-0.2-0.1-0.3c0.1-0.1,0.1-0.2,0-0.3c-0.1-0.1,0-0.2,0.1-0.4c0-0.1-0.1-0.1-0.1,0
			c-0.1,0-0.1,0-0.1,0c0,0-0.1,0-0.1,0c0,0,0.1,0,0.2-0.1c0-0.2,0-0.4,0-0.5c0-0.1,0-0.3-0.1-0.5c0.1,0,0.1,0,0.1-0.1
			c-0.1-0.1-0.1-0.1-0.1-0.3c0-0.1,0-0.2,0.1-0.3c0-0.1-0.1-0.1-0.1,0c0,0-0.1,0-0.1,0c0.1,0,0.1,0,0.1,0c0,0,0,0,0.1-0.1
			c0,0,0-0.1,0.1-0.2c-0.1-0.2-0.2-0.4-0.1-0.7c0.1-0.3,0.1-0.6-0.1-0.8c0.1-0.2,0.1-0.4,0-0.6c0.1-0.2,0.1-0.4,0-0.6
			c0-0.3,0-0.6,0-0.8c0-0.2,0-0.4-0.1-0.6c0.1-0.1,0.1-0.2,0-0.4c-0.1-0.2,0-0.3,0-0.4c-0.1,0-0.1,0-0.1,0l0,0h0.1
			c0-0.3-0.1-0.6-0.1-0.8c0,0,0-0.1,0-0.1l0-0.7c-0.1-0.2-0.1-0.4-0.1-0.6c0-0.2,0-0.4-0.1-0.6c0,0,0.1,0,0.1,0
			c-0.1-0.1-0.1-0.2-0.1-0.2c0.1-0.1,0.1-0.1,0.1-0.2c0,0,0,0-0.1,0c0,0-0.1,0-0.1-0.1c0,0,0,0,0.1,0c0,0,0-0.1-0.1-0.1
			c0,0,0-0.1,0.1-0.1c-0.1,0-0.1,0-0.1,0c0.1-0.1,0.1-0.1,0.1-0.1c-0.1-0.1-0.1-0.2,0-0.4c0.1-0.2,0-0.3,0-0.4c0-0.1,0-0.1,0.1-0.1
			c0,0,0,0,0-0.1c0-0.1,0-0.1,0-0.2c0-0.1,0-0.2,0-0.2c0-0.1,0-0.1,0-0.1c0,0,0-0.1,0-0.1l0.1,0c0,0,0,0,0,0c0,0,0,0,0,0
			c0,0,0-0.1,0.1-0.1c0-0.1,0-0.2,0-0.3c0-0.1,0-0.2,0-0.3c0-0.2,0-0.3,0-0.5c0-0.2,0-0.3,0-0.5c0-0.4,0-0.8-0.1-1.2
			c-0.1-0.4-0.1-0.8,0-1.2l-0.1-0.1c0.1-0.1,0.1-0.1,0.1-0.2c0-0.1-0.1-0.2-0.1-0.2c0-0.1,0-0.2,0.1-0.3c0-0.1,0-0.2-0.1-0.3
			c0.1-0.1,0.1-0.1,0.1-0.2c0-0.1,0-0.1,0.1-0.2c-0.1-0.1-0.2-0.2-0.2-0.4c0-0.2,0-0.3,0.1-0.3c-0.1-0.1-0.1-0.1-0.1-0.2
			c0.1,0,0.1-0.1,0.1-0.2L6.2,20c0-0.1,0-0.2,0-0.3c0-0.1,0-0.2-0.1-0.3c0.1-0.1,0.1-0.2,0.1-0.3c0-0.1,0-0.2-0.1-0.3
			c0.1,0,0.2,0,0.3,0c0-0.1,0-0.1-0.1-0.1c-0.1,0-0.1,0-0.1-0.1c0-0.4,0-0.9,0-1.5c0.1-0.6,0-1.2-0.2-1.7c-0.1-0.1-0.2-0.1-0.3-0.2
			c-0.1-0.1-0.2-0.2-0.3-0.3c-0.4,0-0.7-0.1-1.1-0.2c-0.3-0.1-0.7-0.1-1.1,0c-0.4-0.1-0.7-0.1-1-0.2c-0.3-0.1-0.6-0.1-1,0
			c0,0,0,0.1-0.1,0.1c-0.3,0-0.6,0-0.8,0.1c-0.2,0.1-0.3,0.3-0.3,0.5C0,15.3,0,15.5,0,15.8c0.1,0.2,0.1,0.4,0.3,0.5
			c0.1,0.8,0.2,1.5,0.4,2.3c0.2,0.8,0.3,1.6,0.3,2.3c0,0,0,0,0.1,0C1,21,1,21,1,21c0.1,0.7,0.1,1.4,0.2,2.1c0.1,0.7,0.1,1.4,0.2,2.2
			c0,0.2,0,0.4,0,0.6c0,0.2,0,0.4,0,0.6c0,0.2,0.1,0.4,0.1,0.5c0,0.2,0.1,0.4,0.1,0.6c0,0.1,0,0.1,0,0.1c0,0,0,0.1,0,0.1
			c0.1,0.2,0.1,0.4,0.1,0.6c0,0.2-0.1,0.4-0.1,0.6c0,0.1,0,0.1,0.1,0.1c0,0,0.1,0.1,0.1,0.1c0,0.2,0,0.5,0,0.7c0,0.3,0,0.6,0,0.8
			L2,31.1C2,31.5,2.1,31.8,2,32.2c0,0.4,0,0.8,0.2,1.1c-0.1,0.3-0.1,0.6,0.1,0.9c0.1,0.3,0.1,0.6,0.1,0.9c-0.1,0-0.1,0-0.1,0
			c0,0,0,0-0.1,0c0,0.1,0,0.3,0,0.4c0,0.1,0,0.2,0.2,0.3c0,0.3,0,0.6,0,0.9c0,0.3,0.1,0.5,0.2,0.8c0,0.7,0,1.5,0,2.2
			c0,0.7,0,1.4,0,2c0,0,0,0,0,0c0,0,0,0,0,0c0,0-0.1,0-0.1,0.1c0.1,0,0.1,0,0.1,0c-0.1,0.1-0.2,0.2-0.1,0.4c0.1,0.2,0.1,0.4,0,0.5
			c0,0,0.1,0,0.1,0c0,0,0,0,0.1,0H2.6c0,0.3,0,0.6,0,0.8c0,0.3,0,0.6,0,0.9c0.1,0,0.2,0,0.2,0.1v0l-0.2,0.1c0,0.1,0,0.1,0.1,0
			c0.1,0,0.1,0,0.1,0c0,0.1-0.1,0.2-0.1,0.3c-0.1,0.1,0,0.2,0.1,0.3c0,0-0.1,0-0.1,0.1c0,0.1,0,0.1,0.1,0.1c0,0,0.1,0,0.1,0
			c0,0-0.1,0.1-0.1,0.3c0.1,0.1,0.1,0.3,0,0.5c0.1,0.6,0.2,1.1,0.3,1.7c0.1,0.6,0.3,1.1,0.6,1.6c-0.1,0-0.2,0-0.2,0.1
			c0.1,0.1,0.2,0.2,0.2,0.4c-0.1,0-0.1,0-0.1,0c0,0-0.1,0-0.1,0c0.1,0.1,0.2,0.2,0.3,0.3c0,0-0.1,0-0.1,0c0,0,0,0-0.1,0
			c0.2,0.1,0.3,0.3,0.5,0.4c0.1,0.1,0.3,0.2,0.5,0.4c-0.1,0.1-0.1,0.1-0.1,0.1c0,0,0,0.1-0.1,0.1c0.2,0.1,0.3,0.1,0.5,0.2
			C4.9,52,5,52,5.2,51.9c0.1,0,0.1,0.1,0.1,0.1c0,0,0,0.1,0,0.1c0.2,0,0.3,0,0.4,0C5.8,52,5.9,52,6,51.9c0.5,0.1,0.9,0,1.3-0.1
			c0.3-0.1,0.6-0.3,0.9-0.4c0.2,0,0.3-0.1,0.4-0.2c0.1-0.1,0.2-0.2,0.4-0.2c0-0.1,0-0.2,0.2-0.2c0-0.1,0-0.1,0-0.1
			c0,0,0.1,0,0.1-0.1c0.2-0.1,0.4-0.3,0.4-0.5c0.1-0.2,0.2-0.3,0.4-0.5c0.1-0.2,0.2-0.5,0.4-0.8c0.2-0.3,0.2-0.6,0.2-0.9
			c0.1-0.1,0.1-0.2,0.1-0.3c0.1-0.1,0.1-0.3,0.2-0.6c0.1-0.2,0.1-0.5,0.2-0.7c0-0.1,0-0.2,0-0.2c0-0.1,0-0.2,0.1-0.3
			c0-0.3,0.1-0.6,0.2-1c0.1-0.3,0.2-0.6,0.3-1c0.1,0,0.1-0.1,0.1-0.1c0,0,0,0,0.1,0c-0.1-0.3,0-0.6,0.1-0.9c0.1-0.3,0.2-0.6,0.2-1
			c0.2-0.1,0.3-0.3,0.2-0.5c-0.1-0.2,0-0.4,0.2-0.5c-0.1-0.1-0.1-0.3,0-0.4c0.1-0.1,0.1-0.3,0-0.5c0.1,0,0.1,0,0.1,0c0,0,0,0,0.1,0
			c0-0.3,0.1-0.5,0.2-0.7c-0.1-0.1-0.1-0.2,0-0.2c0.1-0.1,0.1-0.1,0-0.2c0.1-0.1,0.2-0.1,0.1-0.2c-0.1-0.1,0-0.1,0.1-0.1
			c-0.1-0.3,0-0.6,0.2-0.8c0-0.2,0-0.4,0.1-0.6c0.1-0.2,0.1-0.4,0.1-0.6h0.2c-0.1-0.1-0.1-0.2,0-0.3c0.1-0.1,0.1-0.2,0.1-0.3
			c-0.2,0.2-0.3,0.5-0.3,0.8c0,0.3-0.1,0.6-0.3,0.8c0,0.1,0,0.1,0,0.1c0,0,0,0.1,0,0.1c0,0-0.1,0-0.1,0c0,0,0,0-0.1,0
			c0,0.2,0,0.3-0.1,0.5h-0.2c0-0.2,0.1-0.3,0.1-0.5s0.1-0.3,0.1-0.4h0.2c0-0.1,0-0.1-0.1-0.1c-0.1,0-0.1,0-0.1-0.1
			c0.1,0,0.2-0.1,0.2-0.1c0-0.1,0-0.1-0.1-0.2c0.1,0,0.1-0.1,0.1-0.1c-0.1,0,0-0.1,0.1-0.1c0-0.1,0-0.1,0-0.1c0,0,0,0,0-0.1
			c0.1,0,0.1,0,0.1,0c0,0,0-0.1,0.1-0.1c-0.1-0.1-0.1-0.2,0.1-0.3c-0.1-0.1-0.1-0.3,0-0.4c0.1-0.1,0.1-0.3-0.1-0.4
			c0-0.1,0.1-0.1,0.1-0.1c0,0,0-0.1,0.1-0.1c0-0.1-0.1-0.1-0.1,0c0,0.1,0,0.1-0.1,0c0-0.1,0-0.2,0.1-0.2c0,0,0-0.1,0-0.1l0-0.1
			c0,0,0,0,0,0v0l0-0.1h0.1v-0.1c0,0,0,0,0,0l0.2-0.6c0,0.1,0,0.1,0.1,0.1c0-0.1,0-0.1-0.1-0.1l2.5-7.3c0,0,0,0,0,0v0l0,0l0-0.1
			c0,0,0,0,0,0c0,0,0-0.1,0-0.1l0.1-0.4v0c0.1,0,0.1,0,0.1-0.1h-0.1h0l0.4-1.3l-0.2-0.1c0-0.1,0.1-0.1,0.1-0.1
			c0.2,0.1,0.2,0.3,0.1,0.5c-0.1,0.2-0.2,0.3-0.1,0.5c0.1-0.1,0.2-0.2,0.2-0.4c0-0.2,0.1-0.3,0.3-0.4C17.3,25.1,17.2,25,17.2,24.9z
			 M21.9,11C21.9,10.9,21.9,10.9,21.9,11C21.9,11,21.9,11,21.9,11z M21.9,10.8C22,10.8,22,10.8,21.9,10.8C22,10.9,22,10.9,21.9,10.8
			z M21.9,10.7C21.9,10.7,21.9,10.7,21.9,10.7C22,10.7,22,10.7,21.9,10.7C22,10.7,21.9,10.7,21.9,10.7z M21.9,10.6
			c-0.1,0.1-0.1,0.1-0.1,0C22,10.5,22,10.5,21.9,10.6z M20.9,15.4c0.1,0,0.1,0.1,0.1,0.1c0,0,0.1,0.1,0.2,0.1c0,0.1-0.1,0.2-0.2,0.2
			c0-0.1,0-0.1,0-0.1c-0.1,0-0.1,0-0.1,0c0-0.1,0-0.1,0-0.1C20.9,15.5,20.9,15.5,20.9,15.4z M20.7,16.2
			C20.7,16.3,20.7,16.3,20.7,16.2C20.6,16.3,20.7,16.2,20.7,16.2z M20.6,16.3L20.6,16.3L20.6,16.3L20.6,16.3L20.6,16.3z M20.6,16.4
			c0.1,0,0.1,0.1,0.1,0.1C20.6,16.6,20.5,16.5,20.6,16.4c0,0.1,0,0-0.1,0C20.5,16.4,20.5,16.4,20.6,16.4z M18.5,21
			c0.1,0,0.1-0.1,0-0.1c0.1,0.1,0.2,0.1,0.2,0.2c-0.1,0-0.1,0-0.2,0.1C18.4,21,18.4,21,18.5,21z M17.9,23.3
			C17.9,23.2,18,23.2,17.9,23.3C18,23.3,17.9,23.3,17.9,23.3z M17.9,22.4h0.2v0.1C18,22.5,18,22.5,17.9,22.4
			C17.9,22.5,17.9,22.5,17.9,22.4z M17.8,23.4h-0.1v0C17.8,23.3,17.8,23.3,17.8,23.4z M17.7,22.7c0.1,0,0.1,0,0.1,0.1
			C17.7,22.8,17.6,22.8,17.7,22.7z M17.7,23.6C17.7,23.6,17.7,23.6,17.7,23.6c0.1,0,0.1,0,0.1,0C17.8,23.7,17.7,23.7,17.7,23.6
			C17.6,23.7,17.6,23.6,17.7,23.6z M17.2,24.1C17.3,24.1,17.3,24.1,17.2,24.1C17.3,24.2,17.3,24.2,17.2,24.1z M17.3,22.6
			c0.1,0.1,0.2,0.2,0.2,0.2c-0.1,0-0.1,0-0.1,0c-0.1,0-0.1,0-0.1-0.1c0,0,0-0.1-0.1-0.1C17.3,22.7,17.3,22.6,17.3,22.6z M2.6,41.4
			C2.7,41.4,2.7,41.4,2.6,41.4C2.7,41.5,2.7,41.5,2.6,41.4z M6.7,41.4C6.7,41.4,6.7,41.4,6.7,41.4L6.7,41.4
			C6.7,41.3,6.7,41.4,6.7,41.4z M6.5,37.3L6.5,37.3C6.5,37.4,6.5,37.4,6.5,37.3L6.5,37.3z M6.5,37.5C6.5,37.5,6.5,37.5,6.5,37.5
			C6.5,37.5,6.5,37.5,6.5,37.5L6.5,37.5z M6.5,36.8L6.5,36.8C6.5,36.7,6.5,36.7,6.5,36.8C6.5,36.7,6.5,36.7,6.5,36.8z M6.5,35.5
			C6.5,35.5,6.5,35.5,6.5,35.5C6.5,35.5,6.5,35.5,6.5,35.5L6.5,35.5z M6.5,34.9L6.5,34.9C6.5,34.9,6.5,34.9,6.5,34.9
			C6.5,34.9,6.5,34.9,6.5,34.9z M6.6,40.6L6.6,40.6C6.6,40.6,6.6,40.6,6.6,40.6z M6.5,34.6c0,0.1,0,0.1,0,0.2L6.5,34.6
			C6.5,34.6,6.5,34.6,6.5,34.6z M6.1,28.3h0.1v0.1L6.1,28.3L6.1,28.3z M5.9,29.1C5.9,29.1,5.8,29.1,5.9,29.1
			C5.8,29.1,5.8,29.1,5.9,29.1z M5.7,29.3c0,0-0.1,0-0.1,0C5.6,29.2,5.6,29.2,5.7,29.3z M4.9,30C4.9,30,4.9,30,4.9,30
			C4.9,30,4.9,30,4.9,30z M5.2,40c0,0-0.1,0-0.1,0C5.1,40,5.2,39.9,5.2,40C5.2,40,5.2,40,5.2,40z M16.6,24L16.6,24h0.1v0.1
			C16.7,24.2,16.7,24.1,16.6,24C16.6,24.1,16.6,24.1,16.6,24C16.7,24.1,16.7,24.1,16.6,24z M16.5,24.4
			C16.5,24.4,16.5,24.4,16.5,24.4C16.4,24.5,16.4,24.4,16.5,24.4z M16.3,24.6c0.1,0,0.1,0,0.1,0c0,0,0,0,0.1,0c0,0.1,0,0.1-0.1,0.1
			c-0.1,0-0.1,0-0.1,0V24.6z M15.1,20.8h0.1v0L15.1,20.8L15.1,20.8z M14.1,23.1c0.1,0,0.2,0,0.2,0.1C14.1,23.2,14.1,23.2,14.1,23.1z
			 M12.2,41.8c-0.1,0.1-0.1,0.1-0.1,0c0-0.1,0-0.1,0-0.2h0.1C12.2,41.7,12.2,41.7,12.2,41.8C12.1,41.7,12.1,41.7,12.2,41.8z
			 M12.3,40.9c0-0.1,0-0.1,0.1-0.1C12.4,40.9,12.3,40.9,12.3,40.9z M16.3,24.9C16.3,24.9,16.3,24.9,16.3,24.9c0-0.1,0-0.1,0-0.2
			c0,0,0.1,0,0.1,0c0,0,0,0,0.1,0c0,0.1,0,0.2,0.1,0.2c0,0,0,0-0.1,0L16.3,24.9z M17.2,24.9c0,0-0.1,0-0.1,0c0-0.1,0-0.1,0-0.2
			c0-0.1,0-0.1-0.1-0.1c0.1-0.1,0.1,0,0.1,0C17.1,24.7,17.2,24.8,17.2,24.9C17.2,24.9,17.2,24.9,17.2,24.9z"/>
		<path class="st1" d="M69.1,26.1c0,0,0-0.1,0-0.2c-0.2,0.1-0.3,0.1-0.3,0c0,0,0.1,0,0.2,0c-0.1-0.1-0.1-0.1,0-0.1
			c0.1,0,0.1-0.1,0-0.1c-0.2-0.1-0.4-0.1-0.6,0c-0.2,0.1-0.4,0.2-0.6,0.3c0,0.1-0.1,0.1-0.2,0.2c-0.1,0.1-0.3,0.1-0.4,0.2
			c0,0.2,0,0.3-0.1,0.3c-0.1,0.1-0.2,0.1-0.3,0.2c0,0.1-0.1,0.2-0.2,0.3c-0.1,0.1-0.2,0.1-0.1,0.3c-0.3,0.2-0.5,0.4-0.7,0.6
			c-0.2,0.2-0.4,0.4-0.7,0.6c0,0.1,0,0.1-0.1,0.1c0,0-0.1,0-0.1,0.1c0,0-0.1,0-0.2,0c-0.1,0.2-0.2,0.3-0.3,0.4
			c-0.1,0.1-0.2,0.2-0.3,0.4c-0.1,0-0.1,0-0.2,0c-0.1,0.1-0.1,0.2-0.2,0.3c0,0.1-0.1,0.1-0.3,0.2c-0.1,0.2-0.2,0.3-0.4,0.4
			c0,0.1,0,0.1,0.1,0.1c-0.2,0.1-0.4,0.3-0.5,0.4c-0.1,0.2-0.3,0.3-0.5,0.4c0.1,0.1,0,0.1-0.1,0.2c-0.1,0.1-0.2,0.1-0.1,0.2
			c-0.1,0.1-0.2,0.1-0.2,0.3c-0.1,0.1-0.2,0.2-0.3,0.1c0,0.1-0.1,0.2-0.2,0.3c-0.1,0.1-0.2,0.2-0.3,0.3c0.2-0.1,0.3-0.1,0.4-0.2
			c0.1-0.1,0.2-0.2,0.3-0.2c0,0.1,0,0.1,0.1,0.1c0-0.1,0-0.1,0.1-0.1c0,0,0.1,0,0.1,0.1c-0.1,0.1-0.1,0.1-0.2,0.2
			c-0.1,0.1-0.1,0.1-0.1,0.2c-0.1,0.1-0.1,0.1-0.2,0v0c-0.1,0-0.1,0-0.1,0.1c0.1,0,0.1,0,0.1,0.1l-0.1,0.1V33h-0.1
			c0,0.2,0,0.3-0.1,0.4c-0.1,0.1-0.2,0.1-0.2,0.2c0,0,0-0.1,0-0.1c0,0,0-0.1,0-0.1c0,0.1,0,0.1,0,0.1c0,0,0,0,0.1,0.1
			c0,0-0.1,0.1-0.1,0.1c-0.1,0.1-0.1,0.1-0.2,0.2c0,0.1-0.1,0.1-0.3,0.1c0,0,0.1,0,0.1-0.1c-0.1,0.1-0.1,0.1-0.1,0.1
			c0,0,0,0.1-0.1,0.1c0.1,0,0.1,0,0.1,0c-0.1,0.1-0.2,0.2-0.3,0.3c-0.1,0.1-0.2,0.2-0.4,0.2c-0.2,0.3-0.4,0.5-0.8,0.6
			c0-0.1,0-0.1,0.1-0.1c0.1,0,0.1-0.1,0.1-0.1c-0.1,0.1-0.2,0.1-0.3,0.2c-0.1,0.1-0.1,0.1-0.2,0.2c-0.1,0-0.1,0.1-0.1,0.1
			c0,0-0.1,0.1-0.1,0.1v0.1H58c0,0.1-0.2,0.2-0.4,0.3c-0.2,0.2-0.4,0.3-0.5,0.5c-0.2,0.2-0.4,0.3-0.7,0.4v0.1
			c-0.2,0.1-0.4,0.3-0.6,0.4c-0.1,0.1-0.3,0.3-0.5,0.3c0-0.1,0-0.1,0-0.2c0-0.1,0-0.1,0-0.1c0.1,0,0.1,0,0.1,0c0,0,0,0.1,0,0.1
			c0.1-0.1,0.1-0.1,0.1-0.1c0,0-0.1-0.1-0.1-0.2c0.1,0,0.1,0,0.1,0c0,0,0-0.1,0-0.1c0.1,0,0.1,0,0.1,0.1c0,0,0.1,0,0.1,0
			c0.1-0.1,0.1-0.1,0.1-0.2c0,0,0.1,0,0.1,0c0.1,0,0.1,0,0-0.1c0.1,0.1,0.1,0,0.2,0c0-0.1,0.1-0.1,0.2,0c-0.1-0.1,0-0.2,0.2-0.1
			c0-0.1,0-0.1,0.1-0.1c-0.1-0.1-0.1-0.1,0-0.1c0.1,0,0.1-0.1,0.1-0.1c0.1,0.1,0.1,0,0.2,0c0-0.1,0.1-0.1,0.2-0.1c0,0.1,0,0.1,0,0
			c0.1,0,0.1,0,0.1,0c0,0,0,0-0.1,0.1c-0.1,0,0,0,0,0.1c0,0,0,0,0.1,0c0.1-0.3,0.4-0.6,0.9-0.7c0,0,0,0,0,0s0,0,0-0.1
			c-0.1,0-0.1,0-0.1,0c0.1,0,0.2,0,0.3-0.1c0,0,0.1-0.1,0.2-0.1c0-0.1,0-0.1,0-0.1c0,0,0,0,0-0.1h0.2c0-0.1,0-0.2,0.1-0.2
			c0.1,0,0.1-0.1,0.1-0.2c0.1,0,0.2,0,0.2-0.1c0,0,0-0.1,0.1-0.1c0.1,0.1,0.1,0.1-0.1,0.2l0.2,0l0.1,0.1c0-0.1,0-0.2,0.1-0.2
			c0.1-0.1,0.1-0.1,0-0.2c0.1-0.1,0.2-0.1,0.3-0.2c0.1-0.1,0.2-0.2,0.3-0.2c0.1-0.2,0.2-0.3,0.3-0.3c0.1-0.2,0.2-0.3,0.3-0.4
			c0.1-0.1,0.2-0.2,0.3-0.4c-0.1,0-0.1,0-0.2,0c0,0.1-0.1,0.1-0.2,0.1c0,0-0.1,0-0.1-0.1c-0.1,0-0.2,0.1-0.1,0.2h-0.2
			c0,0.1,0,0.2,0,0.3c0,0.1-0.1,0.1-0.3,0.1c0,0.1,0,0.2-0.1,0.3c-0.1,0.1-0.2,0.1-0.3,0.1c-0.1,0-0.2,0.1-0.3,0.1
			c-0.1,0.1-0.1,0.1-0.1,0.3c-0.1-0.1-0.2,0-0.2,0.1c0,0.1,0,0.2-0.1,0.2c-0.1,0-0.1,0-0.1,0c0,0,0,0-0.1,0c0,0.1,0,0.1-0.1,0.2
			c-0.1,0-0.2,0-0.2,0c-0.2,0.2-0.4,0.3-0.5,0.4c0,0.1-0.2,0.2-0.4,0.3v0.2c-0.1,0.1-0.3,0.1-0.4,0.2c-0.1,0.1-0.3,0.1-0.4,0.2
			c0,0,0.1,0,0.1,0c-0.1,0-0.1,0-0.1,0c0,0,0,0-0.1,0v0.2c-0.2,0.1-0.4,0.2-0.6,0.3c-0.2,0.1-0.4,0.2-0.6,0.3c-0.1,0-0.1,0-0.1-0.1
			c0,0,0,0-0.1,0c0,0.1-0.1,0.1-0.1,0.1c0,0-0.1,0.1-0.1,0.1c-0.1,0-0.3,0.1-0.4,0.2c-0.1,0.1-0.3,0.2-0.4,0.3
			c-0.2,0.1-0.4,0.2-0.6,0.3C53.4,38,53.3,38,53,38.1v0.2c-0.1,0-0.1,0-0.2,0c-0.1,0.2-0.2,0.3-0.4,0.3c0,0.1,0,0.1-0.1,0.2
			c-0.4,0.1-0.7,0.3-1,0.4c-0.3,0.2-0.6,0.3-1,0.3c0,0,0.1,0,0.1,0c0,0,0,0-0.1,0l-0.1,0c-0.1,0.1-0.2,0.1-0.4,0.2
			c-0.1,0.1-0.3,0.1-0.5,0.1c0,0,0,0,0,0c0,0,0,0,0,0c-0.2,0-0.4,0-0.6,0.1c-0.2,0-0.4,0-0.6,0c0,0-0.1-0.1-0.1-0.1c0,0-0.1,0-0.2,0
			c-0.2-0.3-0.2-0.5-0.2-0.8c0-0.2,0-0.5-0.1-0.8c0,0,0,0,0.1,0c0,0,0.1,0,0.1,0c-0.1-0.1-0.1-0.2-0.1-0.4c0-0.2,0.1-0.3,0.1-0.4
			c-0.1-0.3-0.1-0.6,0.2-0.8c-0.1,0-0.1,0-0.1-0.1c0.1-0.3,0.2-0.6,0.3-1c0.1-0.4,0.3-0.7,0.6-0.9c0.1,0.1,0.2,0,0.3-0.1
			c0.2,0,0.3-0.1,0.5-0.2c0.1-0.1,0.3-0.2,0.4-0.2c0,0-0.1,0-0.1,0c0,0,0,0,0.1,0c0.1,0,0.1,0,0.2,0c0,0,0.1,0,0.1-0.1h-0.1
			c0,0-0.1,0-0.1-0.1c0.2-0.1,0.4-0.2,0.6-0.3c0.2-0.1,0.4-0.2,0.5-0.3c0,0.1,0,0.1,0,0.1c0-0.1,0.1-0.1,0.2,0c0-0.1,0-0.1,0-0.1
			c-0.1,0-0.1,0-0.1-0.1c0,0,0.1,0,0.1,0v0c0.2,0,0.4-0.1,0.4-0.2c0-0.1,0.1-0.2,0.3-0.1c0-0.1,0.1-0.2,0.2-0.2c0.1,0,0.1,0,0.1-0.1
			c0,0.1,0.1,0.1,0.2,0.1c0.1,0,0.1,0,0.2-0.1c0,0-0.1,0-0.2-0.1c0.1,0,0.2,0,0.3-0.1c0.1-0.1,0.1-0.1,0.2-0.1
			c0-0.1,0.1-0.1,0.2-0.1c0.1,0,0.1-0.1,0.1-0.2c0.2-0.1,0.3-0.2,0.4-0.3c0.1-0.1,0.2-0.2,0.4-0.3c0-0.1,0-0.2,0.2-0.2
			c0.1-0.1,0.2-0.2,0.1-0.3c0,0,0.1,0,0.2,0c0-0.2,0.1-0.2,0.2-0.3c-0.1-0.1-0.1-0.1,0-0.1c0.1,0,0.1-0.1,0.2-0.1
			c0-0.1,0-0.2,0.1-0.3c0.1-0.1,0.2-0.2,0.3-0.3c0-0.1,0-0.1,0.1-0.2c0.1-0.1,0.2-0.1,0.3-0.1c0-0.1,0-0.2,0.1-0.3
			c0.1-0.1,0.2-0.2,0.3-0.3c-0.1-0.1-0.1-0.2,0-0.3c0.1,0,0.1-0.1,0.1-0.3c0.2-0.1,0.3-0.2,0.3-0.3c0-0.2,0.1-0.3,0.3-0.3
			c0-0.1,0-0.1-0.1-0.2c0.2-0.1,0.3-0.3,0.3-0.4c0.1-0.2,0.2-0.3,0.3-0.4c-0.1-0.1-0.1-0.1,0-0.2c0.1-0.1,0.1-0.1,0-0.2
			c0.1,0,0.2-0.1,0.1-0.1c0-0.1,0-0.1,0-0.2c0.1-0.2,0.1-0.4,0.2-0.6c0.1-0.2,0.1-0.4,0.1-0.6c-0.1-0.1-0.2-0.2-0.3-0.3
			c-0.9-0.5-1.8-0.9-2.7-1.3c0,0,0,0,0,0c0,0,0,0,0,0L54.7,23c-0.2,0.1-0.3,0-0.4,0c-0.1-0.1-0.2-0.1-0.3-0.1
			c-0.1,0.1-0.2,0.1-0.3,0.1c-0.1,0-0.2,0.1-0.3,0.2h-0.2c-0.2,0.2-0.5,0.3-0.7,0.4c-0.3,0.1-0.5,0.3-0.7,0.4c-0.1,0-0.1,0-0.1,0
			c0,0,0,0-0.1,0v0.1c-0.1,0-0.1,0-0.1,0.1c-0.3,0.1-0.5,0.3-0.7,0.5c-0.2,0.2-0.4,0.4-0.6,0.6h-0.1v0.1c-0.1,0-0.2,0.1-0.2,0.2
			c0,0.1-0.1,0.1-0.3,0.1v0.2c-0.1,0-0.2,0-0.2,0c0,0.1,0,0.1-0.1,0.1c0,0.2-0.1,0.3-0.3,0.3c-0.1,0.2-0.3,0.4-0.4,0.6
			c-0.1,0.2-0.3,0.3-0.4,0.5h-0.2c0.1,0,0.1,0,0.1,0.1c-0.2,0.2-0.4,0.3-0.4,0.5c-0.1,0.2-0.2,0.3-0.4,0.5c0,0.1,0,0.1,0,0.1
			c0.1,0,0.1,0,0,0.1c-0.1,0.1-0.2,0.1-0.2,0.3c0,0.1-0.1,0.2-0.2,0.3c0,0.2-0.1,0.3-0.2,0.3c-0.1,0.1-0.2,0.1-0.1,0.3
			c-0.2,0.2-0.3,0.4-0.3,0.6c0,0.3-0.2,0.5-0.4,0.6c0,0,0.1,0,0.1,0c0-0.1,0-0.1,0.1,0c-0.1,0.1-0.1,0.1-0.1,0.2
			c0,0.1,0,0.1-0.1,0.3h-0.2c0,0.2,0,0.2-0.2,0.2c-0.1,0-0.3,0-0.4,0c0,0.1,0,0.1-0.1,0.1c0,0,0,0.1,0.1,0.1
			c-0.1,0.1-0.2,0.2-0.2,0.2c0,0,0.1,0,0.1,0.1c0,0,0,0,0.1,0.1c-0.1,0.1-0.1,0.1-0.1,0.2c0,0.1,0.1,0.1,0.1,0.1c0,0,0.1,0,0.1,0.1
			c-0.1,0.3-0.1,0.5-0.2,0.8c-0.1,0.2-0.2,0.5-0.3,0.7c0.1,0,0.1,0,0.1,0c-0.1,0.1-0.1,0.3-0.1,0.4c0,0.1-0.1,0.3-0.1,0.4
			c0,0.3,0,0.5-0.1,0.6c-0.1,0.2-0.1,0.4,0,0.6h-0.2c0.1,0.2,0.1,0.4,0.1,0.6c0,0.2,0,0.4-0.1,0.5c0,0,0.1,0,0.1,0.1c0,0,0,0,0,0
			c0,0,0,0,0,0.1c0.1,0.3,0.1,0.5,0.2,0.8c0.1,0.3,0.1,0.5,0.2,0.8c0.2,0.2,0.3,0.4,0.3,0.5c0.1,0,0.2,0.1,0.2,0.2
			c0.1,0.1,0.2,0.2,0.2,0.2c0.1,0.1,0.3,0.3,0.5,0.4c0.2,0.1,0.3,0.3,0.5,0.4c0.1,0,0.2,0.1,0.3,0.2c0.1,0.1,0.2,0.2,0.4,0.1
			c0.2,0.3,0.6,0.5,1.2,0.6c0,0.1,0.1,0.1,0.2,0.1c0.1,0,0.2,0,0.2,0.1c0.2,0,0.5,0,0.7,0.1c0.2,0.1,0.4,0.1,0.6,0.1
			c0.2,0,0.4,0,0.7,0.1c0.2,0,0.4,0,0.6-0.1c0.1,0.1,0.1,0.1,0.2,0c0.1-0.1,0.2-0.1,0.2,0c0.1-0.1,0.3-0.1,0.5-0.2
			c0.2,0,0.3-0.1,0.4-0.2c0.2,0,0.4-0.1,0.6-0.2c0.2-0.1,0.4-0.2,0.6-0.2c0,0,0,0,0-0.1c0,0,0,0,0,0c0.2-0.1,0.4-0.1,0.6-0.3
			c0.1-0.1,0.3-0.2,0.5-0.2c0.1-0.1,0.2-0.1,0.3-0.1c0.1,0,0.1-0.1,0.1-0.2c0.3-0.1,0.5-0.2,0.7-0.4c0.1-0.2,0.4-0.4,0.6-0.5v-0.1
			c0.1,0,0.2,0,0.3-0.2c0.1-0.1,0.2-0.2,0.4-0.2c0.1-0.2,0.2-0.3,0.3-0.3c0.1-0.1,0.2-0.2,0.3-0.3c0,0,0,0,0.1,0v-0.1
			c0.2-0.1,0.3-0.2,0.5-0.3c0.2-0.1,0.3-0.3,0.5-0.4c-0.1-0.1-0.2-0.1-0.2-0.2c0.1-0.1,0.2-0.1,0.3-0.2c0,0.1,0,0.1-0.1,0.1
			c0,0-0.1,0.1-0.1,0.1c0.3-0.1,0.5-0.3,0.6-0.6c0.1-0.3,0.4-0.4,0.6-0.5c0.1-0.1,0.2-0.2,0.3-0.3c0.2,0,0.2-0.1,0.2-0.3
			c0,0,0.1,0,0.1,0c0,0,0.1,0,0.1,0c0-0.1,0-0.1,0-0.1c0,0-0.1,0-0.1,0c0.4-0.1,0.6-0.3,0.7-0.6c0.1-0.3,0.4-0.5,0.8-0.6
			c0.1-0.3,0.3-0.6,0.6-0.7c0-0.1,0-0.1,0.1-0.2c0.1,0,0.1-0.1,0.1-0.2c0.2-0.1,0.3-0.2,0.5-0.3c0.1-0.1,0.3-0.3,0.4-0.4
			c0-0.1,0-0.1,0-0.2c0,0,0.1-0.1,0.1-0.2c0.5-0.2,0.8-0.4,1-0.7L65,32c0.1-0.1,0.1-0.1,0.2-0.2c0-0.1,0.1-0.1,0.2-0.2
			c0-0.1-0.1-0.1-0.1,0c0,0,0,0-0.1,0c0.1-0.1,0.2-0.1,0.3-0.2c0.1-0.1,0.2-0.1,0.1-0.3h0.2c0-0.1,0-0.1,0-0.1c0,0-0.1,0-0.1,0
			c0.2-0.2,0.4-0.3,0.5-0.5c0.2-0.2,0.3-0.4,0.3-0.6c0,0-0.1,0-0.1,0c0,0,0,0-0.1,0c0,0,0,0,0,0c0,0,0.1,0,0.1,0
			c-0.1,0.1-0.1,0.1-0.2,0.1c0-0.1,0-0.1,0-0.1c0,0,0.1,0,0.1,0c0,0,0,0,0.1,0c0-0.1,0-0.1,0.2-0.2c0.1,0,0.2-0.1,0.2-0.3
			c0.1-0.1,0.1-0.1,0.2-0.1c0.1,0,0.1-0.1,0.1-0.1v0c0.2-0.1,0.3-0.3,0.4-0.4c0.1-0.2,0.2-0.3,0.4-0.4h-0.1c0.1-0.1,0.2-0.2,0.3-0.2
			v-0.1c0-0.1,0.1-0.1,0.1-0.1c0.1,0,0.1,0,0.1-0.1c-0.1,0-0.1,0-0.2,0c0,0,0.1,0,0.1-0.1c0.1,0,0.1,0,0.1-0.1c-0.1,0-0.1,0-0.1,0
			c0-0.1,0.1-0.1,0.3-0.2c0.1-0.1,0-0.2-0.2-0.2c0,0.1,0,0.1,0,0.1c0,0,0,0-0.1,0v0c0,0.1-0.1,0.1-0.3,0.2c-0.1-0.1,0-0.2,0.1-0.2
			c0.1,0,0.2-0.1,0.1-0.2c0.1,0,0.1,0,0.1,0c0,0,0.1,0,0.1,0c0-0.1,0-0.2,0.1-0.2c0.1,0,0.1-0.1,0.2-0.2c-0.1,0-0.1,0-0.1,0
			c0,0,0,0-0.1,0c0.1-0.1,0.1-0.1,0-0.1c-0.1,0-0.2,0-0.2-0.1c0.2-0.1,0.3-0.2,0.4-0.3c0.1-0.1,0.2-0.2,0.4-0.3
			C69.1,26.2,69.1,26.2,69.1,26.1z M58.1,35c0.1,0,0.1-0.1,0.1-0.1c0.1,0,0.1,0,0.1,0.1c0,0,0,0.1,0,0.1c-0.1,0.1-0.2,0.1-0.2,0.1
			C58,35,58,35,58.1,35z M48.9,31.3c0.1-0.1-0.1-0.1,0-0.2c0.3-0.1,0.2-0.5,0.6-0.5c0.1-0.3,0.4-0.8,0.8-1c0-0.3,0.5-0.5,0.7-0.8
			c0.1,0,0.2,0,0.2,0c0.1-0.2,0.4-0.6,0.8-0.7c0.2-0.3,0.4-0.5,0.8-0.7c0.1-0.1-0.1-0.1,0-0.1c0.5-0.2,0.9-0.8,1.4-0.9
			c0.2-0.1-0.1-0.1,0.1-0.2c0.4-0.1,0.7-0.2,0.8-0.4c0.2,0,0.1,0.1,0.2,0.1c0.2,0-0.1-0.1,0.1-0.1c0.2,0.1,0.2,0.1,0.4,0
			c0,0.1,0,0.2-0.1,0.3c0,0.1-0.1,0.3-0.2,0.4c-0.1,0.1-0.2,0.2-0.4,0.3c0,0.1-0.1,0.2-0.2,0.3c-0.1,0.1-0.1,0.1-0.2,0.2
			c-0.1,0.1-0.2,0.2-0.2,0.2c0,0,0,0.1-0.1,0.1c0,0-0.1,0.1-0.1,0.1c-0.1,0-0.1,0-0.1,0c0,0-0.1,0.1-0.1,0.1c0,0.4-0.5,0.4-0.7,0.8
			c-0.1-0.1-0.1-0.1-0.2-0.1c-0.2,0.5-0.9,0.8-1.3,1.2c-0.2,0-0.2-0.1-0.2-0.1c0,0.1,0,0.1,0.1,0.1c-0.7,0.5-1.5,0.9-2.2,1.4
			c-0.2-0.1-0.2,0-0.5,0c0.2,0.3-0.5,0.4-0.7,0.5C48.5,31.3,48.7,31.3,48.9,31.3z M55.2,37.7c0,0-0.1,0-0.3,0.2
			c-0.1,0-0.1,0-0.1-0.1c0-0.1,0.1-0.1,0.2-0.1c-0.1-0.1-0.1-0.1,0-0.1c0.1,0,0.2,0,0.2,0C55.2,37.7,55.2,37.7,55.2,37.7z
			 M57.2,36.5C57.1,36.5,57.1,36.5,57.2,36.5c-0.1,0-0.1,0-0.1,0C57.1,36.4,57.1,36.4,57.2,36.5C57.2,36.5,57.2,36.5,57.2,36.5z
			 M57.3,36.3c0.1-0.1,0.1-0.1,0.1-0.1c0,0,0.1-0.1,0.2-0.1C57.5,36.2,57.4,36.3,57.3,36.3z M62.2,31.9c0,0,0.1,0,0.1-0.1
			c0.1,0,0.1,0.1,0.1,0.1c0,0.1-0.1,0.1-0.1,0.1L62.2,31.9C62.1,31.9,62.1,31.9,62.2,31.9z M60.4,34.2v-0.1c0.1,0,0.1-0.1,0.2-0.1
			c0,0,0.1-0.1,0.2-0.1c0,0.1-0.1,0.2-0.2,0.3c-0.1,0.1-0.2,0.2-0.4,0.3C60.1,34.4,60.2,34.3,60.4,34.2z M59.8,34.7
			c0-0.1,0.1-0.1,0.3-0.2c0,0.1-0.1,0.1-0.2,0.1c-0.1,0-0.1,0.1-0.1,0.1c-0.1,0-0.1,0.1-0.2,0.1c-0.1,0-0.1,0-0.2,0
			C59.7,34.8,59.8,34.8,59.8,34.7z M59.1,35.3C59,35.3,59.1,35.2,59.1,35.3c0.1,0,0.2-0.1,0.2-0.2c0.1-0.1,0.1-0.1,0.1,0.1
			c-0.1,0-0.2,0.1-0.2,0.1c0,0.1-0.1,0.1-0.2,0.1C59,35.4,59,35.4,59.1,35.3C59,35.4,59,35.4,59.1,35.3
			C59.1,35.4,59.1,35.4,59.1,35.3z M58.8,35.5c0.1,0,0.1-0.1,0.1-0.1c0,0,0.1,0,0.1,0c0,0,0,0,0.1,0c0,0.1-0.1,0.1-0.3,0.2
			C58.7,35.6,58.7,35.6,58.8,35.5z M58.8,37.2c-0.1,0-0.1,0.1-0.1,0.2c-0.1,0-0.2-0.1-0.1-0.2c0.1-0.1,0.1-0.1,0.2-0.2
			c0.1,0.1,0.1,0.1,0.2,0c0,0,0.1,0,0.1,0.1C59,37.2,58.9,37.2,58.8,37.2z M60.1,36.4c-0.1,0-0.1,0-0.1,0
			C59.9,36.4,60,36.4,60.1,36.4C60.1,36.3,60.1,36.4,60.1,36.4z M60.7,35.7c0,0.1,0,0.2-0.2,0.2c-0.1,0.1-0.2,0.2-0.2,0.2
			c-0.1,0.1-0.2,0.1-0.3,0.2c0,0.1-0.1,0.2-0.3,0.3c0,0,0.1,0,0.1,0c0,0,0,0,0.1,0c-0.1,0.1-0.2,0.2-0.3,0.3c-0.1,0-0.2,0.1-0.3,0.2
			c0,0-0.1-0.1-0.2-0.2c0.1,0,0.2-0.1,0.3-0.1c0.1,0,0.2-0.1,0.3-0.1l-0.1,0c0.1-0.2,0.3-0.3,0.5-0.3c0,0,0,0,0-0.1c0,0,0,0,0-0.1
			c0.1,0,0.2-0.1,0.2-0.1c0,0,0.1-0.1,0.2-0.1C60.5,35.8,60.5,35.7,60.7,35.7c0-0.1,0.1-0.2,0.3-0.3C61.1,35.6,61,35.7,60.7,35.7z
			 M62.3,34.2c-0.1,0-0.1,0-0.1,0.1h-0.2c0,0.1,0,0.2-0.1,0.3c-0.1,0.1-0.2,0.1-0.2,0.3c-0.1-0.1-0.2,0-0.1,0c0,0.1,0,0.1-0.1,0.1
			c0,0.1,0,0.1,0,0.1c0,0,0,0.1-0.1,0.1c-0.1,0.1-0.1,0.1-0.2,0.1c-0.1,0-0.1,0.1-0.1,0.1c0-0.1,0-0.1,0.1-0.2
			c0-0.1,0.1-0.1,0.3-0.1c0,0,0-0.1,0-0.1c0-0.1,0-0.1,0.1-0.1c0-0.1,0.1-0.2,0.2-0.3c0.1-0.1,0.1-0.1,0.1-0.3
			c0.1,0.1,0.1,0.1,0.2,0c0.1-0.1,0.1-0.1,0.2-0.1v-0.1c0.1,0,0.1-0.1,0.1-0.2h0.2C62.4,34.2,62.4,34.2,62.3,34.2z M62.9,33.7
			c0,0.1-0.1,0.2-0.3,0.2c0.1-0.2,0.3-0.4,0.5-0.5C63,33.5,62.9,33.6,62.9,33.7z M64.8,29.7c-0.1,0.1-0.2,0.2-0.3,0.2
			c-0.1,0.1-0.1,0.2-0.2,0.2c-0.1,0-0.1-0.1,0-0.1c0.1-0.1,0.1-0.1,0.2-0.1c0.1-0.2,0.3-0.4,0.6-0.5C65,29.5,64.9,29.6,64.8,29.7z
			 M65.3,29.2C65.3,29.2,65.3,29.2,65.3,29.2c0.1-0.1,0.1-0.2,0.1-0.2c0,0,0.1,0,0.1,0c0,0,0,0,0.1,0C65.4,29.1,65.4,29.2,65.3,29.2
			z M67.6,28.5c0-0.1,0.1-0.1,0.2-0.1C67.7,28.4,67.6,28.5,67.6,28.5z M68,27.9C68,27.9,68.1,27.9,68,27.9c0.1,0,0.1,0,0.2,0
			c0,0.1,0,0.1-0.1,0.1c-0.1,0-0.1,0-0.2,0.1V27.9z M68,27C67.9,27,67.9,27,68,27c0,0,0-0.1,0-0.1c0.1,0,0.1,0,0.2-0.1
			c0-0.1,0.1-0.1,0.2-0.1C68.2,26.9,68.1,27,68,27z M68.3,27.3c0,0.1-0.1,0.1-0.2,0.1c0.1-0.1,0.1-0.1,0-0.2c0-0.1,0.1-0.2,0.3-0.2
			C68.3,27.1,68.3,27.1,68.3,27.3z M68.9,26.3C68.9,26.3,68.8,26.4,68.9,26.3l-0.2,0.1C68.8,26.3,68.8,26.3,68.9,26.3
			C68.9,26.3,68.9,26.3,68.9,26.3z"/>
		<path class="st1" d="M60.5,33.2C60.5,33.1,60.5,33.1,60.5,33.2C60.4,33.2,60.4,33.2,60.5,33.2z"/>
		<path class="st1" d="M58.3,34.8C58.3,34.7,58.4,34.7,58.3,34.8C58.4,34.8,58.4,34.8,58.3,34.8C58.3,34.8,58.3,34.8,58.3,34.8
			L58.3,34.8z"/>
		<path class="st1" d="M56.2,27.7C56.2,27.8,56.2,27.8,56.2,27.7C56.2,27.7,56.2,27.7,56.2,27.7z"/>
		<path class="st1" d="M55.4,27.1C55.4,27.1,55.4,27,55.4,27.1L55.4,27.1C55.5,27,55.5,27.1,55.4,27.1z"/>
		<path class="st1" d="M46.4,40.6C46.4,40.6,46.4,40.6,46.4,40.6C46.4,40.7,46.4,40.7,46.4,40.6z"/>
		<path class="st1" d="M48.7,42C48.7,42,48.7,41.9,48.7,42C48.7,42,48.7,42,48.7,42C48.7,42,48.7,42,48.7,42z"/>
		<path class="st1" d="M49.6,41.9c0,0,0,0,0.1,0C49.7,41.9,49.7,41.9,49.6,41.9z"/>
		<path class="st1" d="M51.8,38.9c0.1,0,0.1,0,0.1,0.1L51.8,38.9z"/>
		<path class="st1" d="M55.3,36.8C55.3,36.9,55.3,36.9,55.3,36.8C55.3,36.8,55.3,36.8,55.3,36.8z"/>
		<path class="st1" d="M57.9,35.8L57.9,35.8c0.1-0.1,0.1-0.1,0.1,0C58,35.9,58,35.9,57.9,35.8z"/>
		<path class="st1" d="M62.2,32.1C62.2,32.2,62.1,32.2,62.2,32.1C62.1,32.2,62.1,32.1,62.2,32.1z"/>
		<path class="st1" d="M59.4,35C59.5,35,59.5,35,59.4,35l0.1-0.1C59.6,35,59.5,35,59.4,35C59.5,35,59.5,35,59.4,35
			C59.4,35.1,59.4,35,59.4,35z"/>
		<path class="st1" d="M58.6,35.3C58.7,35.3,58.7,35.3,58.6,35.3L58.6,35.3C58.6,35.3,58.6,35.3,58.6,35.3z"/>
		<path class="st1" d="M62.2,34.4C62.3,34.4,62.3,34.4,62.2,34.4C62.3,34.5,62.3,34.5,62.2,34.4z"/>
		<path class="st1" d="M62.4,31.9c0.1-0.1,0.1-0.1,0.1-0.1c0,0,0.1-0.1,0.1-0.1C62.6,31.8,62.5,31.8,62.4,31.9z"/>
		<path class="st1" d="M63.3,30.9C63.4,30.8,63.4,30.8,63.3,30.9C63.4,30.9,63.4,30.9,63.3,30.9z"/>
		<path class="st1" d="M63.4,33L63.4,33C63.5,33,63.5,33,63.4,33z"/>
		<path class="st1" d="M64.3,30.2C64.2,30.2,64.2,30.2,64.3,30.2C64.3,30.2,64.3,30.1,64.3,30.2L64.3,30.2z"/>
		<path class="st1" d="M65,29.8c-0.1,0.1-0.1,0.1-0.2,0.1C64.9,29.8,64.9,29.8,65,29.8c0,0,0-0.1,0-0.1C65,29.7,65.1,29.7,65,29.8z"
			/>
		<path class="st1" d="M68.4,27.8c0,0,0,0-0.1,0C68.3,27.8,68.3,27.8,68.4,27.8z"/>
		<path class="st2" d="M68.4,26.6c0,0,0,0,0.1,0C68.5,26.6,68.5,26.6,68.4,26.6z"/>
	</g>
</g>
</svg>
