<?xml version="1.0" encoding="utf-8"?>
<!-- Generator: Adobe Illustrator 19.2.1, SVG Export Plug-In . SVG Version: 6.00 Build 0)  -->
<svg version="1.1" id="Brava" xmlns="http://www.w3.org/2000/svg" xmlns:xlink="http://www.w3.org/1999/xlink" x="0px" y="0px"
	 viewBox="0 0 105 49.2" style="enable-background:new 0 0 105 49.2;" xml:space="preserve">
<style type="text/css">
	.st0{fill:#000000;}
	.st1{fill:#E21E27;}
</style>
<polygon class="st0" points="56.6,1.7 58.6,1.7 58.6,7.5 60,7.5 60,1.7 62,1.7 62,0.4 56.6,0.4 "/>
<rect x="63.5" y="0.4" class="st0" width="1.4" height="7"/>
<polygon class="st0" points="71.6,5 68.1,0.4 66.8,0.4 66.8,7.5 68.2,7.5 68.2,2.9 71.6,7.5 72.9,7.5 72.9,0.4 71.6,0.4 "/>
<path class="st0" d="M78.5,5.1h1.3C79.6,5.9,79,6.3,78,6.3c-1.6,0-2.3-1.2-2.3-2.4c0-1.2,0.8-2.4,2.2-2.4c0.8,0,1.5,0.4,1.6,1
	l0.1,0.2H81l0-0.3c-0.2-1.3-1.5-2.2-3-2.2c-2.3,0-3.6,1.9-3.6,3.7c0,1.8,1.3,3.6,3.6,3.6c1.7,0,2.9-1,3.3-2.5H82V3.8h-3.5V5.1z"/>
<polygon class="st0" points="100.1,0.4 98.7,3.2 97,0.4 95.4,0.4 98,4.6 96.6,7.5 98.1,7.5 101.6,0.4 "/>
<path class="st0" d="M87.1,4.8c0.7-0.4,1.1-1.2,1.1-2c0-1.3-1-2.3-2.3-2.3h-2.7v7h1.4V5.1h1.1l1.1,2.3h1.5L87.1,4.8z M85.9,3.9h-1.3
	V1.7h1.3c0.6,0,1.1,0.5,1.1,1.1C86.9,3.4,86.5,3.9,85.9,3.9"/>
<path class="st0" d="M93,0.5L93,0.5l-1.2-0.1l-2.4,7h1.5l0.5-1.6h2.1l0.5,1.6h1.5L93,0.5z M91.6,4.8l0.7-2.2l0.7,2.2H91.6z"/>
<path class="st0" d="M54,3.4l-1.3-0.3C52.2,3,52,2.8,52,2.4c0-0.5,0.4-0.8,1.1-0.8c0.7,0,1.1,0.4,1.3,0.8h1.4c-0.2-1.2-1.1-2-2.7-2
	c-1.5,0-2.5,0.9-2.5,2.1c0,1.1,0.8,1.7,1.8,1.9l1.2,0.3c0.6,0.1,0.8,0.4,0.8,0.8c0,0.6-0.5,0.9-1.2,0.9c-0.7,0-1.2-0.3-1.4-0.9h-1.5
	c0.2,1.3,1.3,2.1,2.9,2.1c1.5,0,2.6-0.8,2.6-2.2C55.8,4.3,55.1,3.7,54,3.4"/>
<g>
	<path class="st1" d="M13,15.1l7.7-1.4v21.8h2v0.6H15v-2c-0.4,0.5-0.9,1.1-1.6,1.6c-0.7,0.5-1.5,0.8-2.4,0.8c-1.3,0-2.4-0.2-3.3-0.7
		c-0.9-0.5-1.7-1.1-2.4-1.9c-0.6-0.8-1.1-1.7-1.4-2.7c-0.3-1-0.5-2.1-0.5-3.1c0-1.1,0.2-2.1,0.5-3.1c0.3-1,0.8-1.9,1.4-2.7
		c0.6-0.8,1.4-1.4,2.4-1.9c0.9-0.5,2.1-0.7,3.3-0.7c1.1,0,1.9,0.2,2.6,0.6c0.7,0.4,1.1,0.9,1.4,1.4v-6.2l-2,0.4V15.1z M9.9,29.9
		c0,1.2,0,2.2,0.1,2.9c0.1,0.7,0.2,1.3,0.3,1.6c0.1,0.4,0.3,0.6,0.6,0.8c0.3,0.1,0.6,0.2,0.9,0.2c0.3,0,0.6-0.1,0.9-0.3
		c0.3-0.2,0.6-0.4,0.9-0.7c0.3-0.3,0.5-0.6,0.8-0.9c0.2-0.3,0.4-0.6,0.6-0.9v-9.8c-0.4-0.6-0.8-1.2-1.3-1.7
		c-0.5-0.5-1.1-0.8-1.8-0.8c-0.4,0-0.7,0.1-0.9,0.3c-0.2,0.2-0.4,0.5-0.6,0.9c-0.2,0.4-0.3,1-0.3,1.7C9.9,24,9.9,25,9.9,26.1V29.9z"
		/>
	<path class="st1" d="M32,42.2c-0.5,1.4-1.1,2.6-2,3.6c-0.9,1-2,1.8-3.2,2.3C25.5,48.7,24,49,22.5,49c-1.4,0-2.6-0.3-3.6-1
		c-1-0.7-1.5-1.6-1.5-2.7c0-0.9,0.3-1.6,0.9-2.1c0.6-0.5,1.2-0.8,2-0.8c0.8,0,1.5,0.2,2,0.7c0.5,0.5,0.8,1.1,0.8,2
		c0,0.4-0.1,0.8-0.3,1.1c-0.2,0.3-0.4,0.6-0.6,0.8c-0.3,0.2-0.5,0.4-0.8,0.5c-0.3,0.1-0.6,0.2-0.8,0.2c0.4,0.3,0.8,0.5,1.4,0.5
		c0.3,0,0.6-0.1,1-0.2c0.4-0.1,0.7-0.3,1-0.5c0.3-0.2,0.5-0.5,0.7-0.9c0.2-0.4,0.3-0.9,0.3-1.5V13.8l-2.8,0.4v-0.8l10.6-1.7v25.7
		C32.7,39.2,32.4,40.8,32,42.2"/>
	<path class="st1" d="M50.2,13.5c1.4,0.3,2.5,0.7,3.4,1.3c0.9,0.6,1.5,1.4,1.9,2.4c0.4,1,0.6,2.2,0.6,3.7v10.9
		c0,0.8,0.1,1.5,0.3,1.9c0.2,0.5,0.6,0.7,1.3,0.7c0.6,0,1-0.2,1.2-0.6c0.2-0.4,0.4-0.8,0.5-1.3c0-0.3,0.2-0.5,0.4-0.5
		c0.2,0,0.3,0.1,0.3,0.4c0,0.4-0.1,0.8-0.2,1.2c-0.1,0.5-0.4,0.9-0.8,1.2c-0.4,0.4-1,0.7-1.7,1c-0.7,0.3-1.7,0.4-3,0.4
		c-1.8,0-3.1-0.3-4-0.8c-0.9-0.5-1.6-1.2-1.9-1.9c-0.3,0.3-0.6,0.6-1,0.9c-0.4,0.3-0.9,0.6-1.4,0.9c-0.5,0.3-1.1,0.5-1.8,0.7
		c-0.7,0.2-1.4,0.3-2.3,0.3c-1.3,0-2.5-0.2-3.4-0.5c-1-0.4-1.8-0.9-2.5-1.5c-0.7-0.6-1.1-1.4-1.5-2.2c-0.3-0.8-0.5-1.7-0.5-2.7
		c0-0.9,0.2-1.8,0.5-2.7c0.3-0.9,0.9-1.7,1.6-2.4c0.7-0.7,1.6-1.3,2.6-1.7c1.1-0.4,2.3-0.6,3.7-0.6h5.6v-4.1c0-1.2-0.2-2.2-0.6-2.9
		c-0.4-0.7-1.2-1-2.5-1c-1.4,0-2.4,0.1-2.9,0.3c-0.5,0.2-0.8,0.4-0.8,0.7c0,0.2,0.1,0.4,0.4,0.5c0.7,0.4,1,1.1,1,1.9
		c0,0.2,0,0.5-0.1,0.8c-0.1,0.3-0.2,0.6-0.4,0.9c-0.2,0.3-0.5,0.5-0.9,0.7c-0.4,0.2-0.8,0.3-1.4,0.3c-0.7,0-1.4-0.2-1.9-0.6
		c-0.6-0.4-0.9-1.1-0.9-2.2c0-1.4,0.7-2.4,2.2-3.1c1.5-0.7,3.4-1,5.6-1C47.2,13.1,48.9,13.2,50.2,13.5 M46.2,23
		c-1.4,0-2.4,0.6-3,1.8c-0.6,1.2-0.9,2.7-0.9,4.6c0,1.9,0.2,3.3,0.5,4.2c0.4,0.8,1,1.3,1.8,1.3c0.2,0,0.5-0.1,0.9-0.3
		c0.4-0.2,0.8-0.4,1.2-0.6c0.4-0.3,0.8-0.6,1.1-0.9c0.3-0.3,0.4-0.6,0.4-1V23H46.2z"/>
	<path class="st1" d="M80.1,14.7L68.7,34.9h4.9c2,0,3.5-0.5,4.5-1.6c1-1.1,1.7-2.5,1.9-4.3h0.5v6.8H60.7v-1.1l11.7-20.3H68
		c-1.4,0-2.7,0.4-3.8,1.3c-1.1,0.9-1.8,2.2-2,4h-0.5v-6.2h18.4V14.7z"/>
	<path class="st1" d="M100.7,14.7L89.3,34.9h4.9c2,0,3.5-0.5,4.5-1.6c1-1.1,1.7-2.5,1.9-4.3h0.5v6.8H81.4v-1.1l11.7-20.3h-4.5
		c-1.4,0-2.7,0.4-3.8,1.3c-1.1,0.9-1.8,2.2-2,4h-0.5v-6.2h18.4V14.7z"/>
	<path class="st1" d="M30.7,8.9c-0.6,0.6-1.4,0.9-2.3,0.9c-0.9,0-1.6-0.3-2.3-0.9c-0.6-0.6-0.9-1.4-0.9-2.3c0-0.9,0.3-1.6,0.9-2.3
		c0.6-0.6,1.4-0.9,2.3-0.9c0.9,0,1.6,0.3,2.3,0.9c0.6,0.6,0.9,1.4,0.9,2.3C31.6,7.5,31.3,8.3,30.7,8.9"/>
</g>
</svg>
