<svg xmlns="http://www.w3.org/2000/svg" xmlns:xlink="http://www.w3.org/1999/xlink" width="218.552" height="21.394" viewBox="0 0 218.552 21.394">
  <defs>
    <clipPath id="clip-path">
      <rect id="Rectangle_6" data-name="Rectangle 6" width="218.552" height="21.394" fill="none"/>
    </clipPath>
  </defs>
  <g id="STK_LOGO" data-name="STK LOGO" transform="translate(0 0)">
    <g id="Group_1" data-name="Group 1" transform="translate(0 0)" clip-path="url(#clip-path)">
      <path id="Path_3218" data-name="Path 3218" d="M201.827,13.187l2.122-5.49,2.179,5.49Zm-63.055,0,2.122-5.49,2.18,5.49Zm-26.462,5.66L105.567,8.264,112.3,1.509Zm42.772,1.1-6.246-13.8h6.246Zm43.774.941,1.16-3h8.037l1.188,3h9.311L209.383.509H199.195l-6.772,15.119-4.69-7.365L195.486.509h-9.819l-7.245,7.358V.509H146.6l-.012.54-.258-.54H136.141l-6.563,14.757-8.661-.013V.509H103.5L96.256,7.867V.509h-8.6l0,2.875C85.92,1.555,82.984.509,79.12.509H65.876l-.014,4.154C63.607,1.85,59.573,0,54.342,0a15.851,15.851,0,0,0-9.515,2.767L44.842.509h-24.2l-.023,1.5A15.448,15.448,0,0,0,12.338,0C7.131,0,.877,1.556.877,6.651c0,7.668,14.376,5.8,14.376,8.517,0,.792-1.3,1.245-3.057,1.245-2.151,0-3.424-.651-4.33-2.009L0,15.225c1.981,4.3,6.141,6.169,12.649,6.169,6.707,0,11.772-1.98,11.772-6.706C24.422,6.707,9.734,8.377,9.734,6c0-.736,1.246-1.274,2.83-1.274A3.9,3.9,0,0,1,16.074,6.34l7.986-.2,4.4,0V20.884h8.574V6.141l4.8.007A9.059,9.059,0,0,0,40.8,10.414v.565c0,5.773,5.251,10.414,13.543,10.414,5.251,0,9.283-1.861,11.534-4.693v4.183h8.6v-4.7H79.12c3.851,0,6.789-1.014,8.52-2.833l.014,7.53h8.6V17.573l3.2-3.254,4.33,6.564H135.8l1.16-3H145l1.189,3h17.469V6.141l6.158.006.005,14.737h8.6V17.573l3.2-3.254,4.33,6.564ZM80.818,8.631c0,1.444-.935,2.378-3.085,2.378H74.479V5.688h3.255c2.15,0,3.085.963,3.085,2.377ZM54.342,15.536a4.546,4.546,0,0,1-4.714-4.556v-.565a4.716,4.716,0,0,1,9.427,0v.565a4.546,4.546,0,0,1-4.714,4.556" transform="translate(0 0)" fill="aqua"/>
    </g>
  </g>
</svg>
