<?xml version="1.0" encoding="utf-8"?>
<!-- Generator: Adobe Illustrator 19.2.1, SVG Export Plug-In . SVG Version: 6.00 Build 0)  -->
<svg version="1.1" id="Ebene_1" xmlns="http://www.w3.org/2000/svg" xmlns:xlink="http://www.w3.org/1999/xlink" x="0px" y="0px"
	 viewBox="0 0 490 82.9" style="enable-background:new 0 0 490 82.9;" xml:space="preserve">
<style type="text/css">
	.st0{fill:#0069A4;}
	.st1{fill:#FFFFFF;}
	.st2{fill:#95C11F;}
</style>
<g>
	<polygon class="st0" points="378.6,82 388.4,82 393.6,55.8 397.9,82 407.6,82 417.7,37.8 407.6,37.8 402.6,66.5 397.9,37.8 
		389.5,37.8 384.3,66.5 379.7,37.8 369.7,37.8 	"/>
	<g>
		<path class="st0" d="M436.2,54.9h-7.4v-5.5c0-2.8,1.1-4.4,3.8-4.4c3.6,0,3.6,3.2,3.6,4.4L436.2,54.9L436.2,54.9z M446.4,62.1V49.5
			c0-2.6-0.5-6.2-3-8.8c-2.7-2.6-6.6-3.9-10.7-3.9c-3.1,0-6.7,0.8-9.3,2.6c-2.8,2-4.7,5.1-4.7,10.6v18.7c0,8.9,4.1,14.1,14.1,14.1
			c6.4,0,13.5-2.3,13.5-12v-3.6h-10.1c0,4.6-0.1,5.1-0.9,6.1c-0.6,0.8-1.5,1.3-2.8,1.3c-3.8,0-3.8-3.6-3.8-5.5v-7.3L446.4,62.1
			L446.4,62.1z"/>
	</g>
	<rect x="449.9" y="37.8" class="st0" width="10.4" height="44.3"/>
	<polygon class="st0" points="464.9,37.8 464.9,46.2 478.8,46.2 463.3,73.4 465.6,82 490,82 490,73.4 473.9,73.4 489.3,46.2 
		489.3,37.8 	"/>
	<path class="st0" d="M97.1,71.2c0,6.1,2.3,11.7,13.4,11.7c13.6,0,13.6-8,13.6-13.6c0-2.8-0.3-5.2-1.5-6.9c-0.4-0.6-2.3-2.5-2.8-2.9
		l-9.4-6.6c-2.8-2-2.9-3.6-2.9-4.8c0-3.7,2.2-4,3.6-4c3.7,0,3.7,2.9,3.7,7.9h8.9v-4.8c0-6.3-3.6-10.2-12.6-10.2
		c-7.3,0-13.3,2-13.3,11.4c0,4.7,1.3,6.6,2.4,7.9c0.7,0.9,2.3,2.3,2.8,2.8l8.5,6.1c2.8,2,3,3.2,3,5.8c0,3.8-1.8,4.8-4,4.8
		c-4.1,0-4.1-2.7-4.1-9H97L97.1,71.2L97.1,71.2z"/>
	<path class="st0" d="M128.2,71.2c0,2.5,0,3.4,0.3,4.8c0.9,5.5,5.5,6.9,8.3,6.9c4.5,0,7.3-2.5,9.5-4.3l5.8,3.6h4.6V37.8h-10.4v31.3
		c0,2.3,0,5.9-4,5.9c-3.8,0-3.8-3.1-3.8-5.3V37.9h-10.3L128.2,71.2L128.2,71.2z"/>
	<path class="st0" d="M179.3,68.9c0,1.4,0,5.4-4.3,5.4c-4,0-4-2.8-4-5V50.5c0-2.2,0-5.6,4-5.6c4.3,0,4.3,3.7,4.3,5.1V68.9z
		 M189.5,82V31.7V20.9h-0.1c-2.8,0-10,2.8-10.1,9v11.4c-2.2-1.9-5-4.5-9-4.5c-2.4,0-6.5,1.3-8.4,5.2c-0.9,1.8-1.2,3.4-1.2,6.6v20.2
		c0,4.3,0.1,7.3,1.3,9.4c1.3,2.4,4.5,4.7,8.7,4.7c5,0,6.9-2.8,8.5-5.2l5.8,4.3h4.5V82z"/>
	<path class="st0" d="M211.1,71.2c0,1.7,0,4.7-3.6,4.7c-3.6,0-3.6-3.4-3.6-4.6V48.8c0-2,0-5.5,3.7-5.5c3.1,0,3.4,2.8,3.4,5.3
		L211.1,71.2L211.1,71.2z M221.3,70.5V49.2c0-3.6-0.6-7.4-4.3-9.9c-2.6-1.8-6.2-2.4-9.3-2.4c-12.2,0-14,7.4-14,12.8v19.8
		c0,3.3,0,13.4,13.5,13.4C216.3,82.9,221.3,78.5,221.3,70.5"/>
	<path class="st0" d="M224.3,71.2c0,6.1,2.3,11.7,13.4,11.7c13.6,0,13.6-8,13.6-13.6c0-2.8-0.3-5.2-1.5-6.9
		c-0.4-0.6-2.3-2.5-2.8-2.9l-9.4-6.6c-2.8-2-2.9-3.6-2.9-4.8c0-3.7,2.2-4,3.6-4c3.7,0,3.7,2.9,3.7,7.9h8.9v-4.8
		c0-6.3-3.6-10.2-12.6-10.2c-7.3,0-13.3,2-13.3,11.4c0,4.7,1.3,6.6,2.4,7.9c0.7,0.9,2.3,2.3,2.8,2.8l8.5,6.1c2.8,2,3,3.2,3,5.8
		c0,3.8-1.8,4.8-4,4.8c-4.1,0-4.1-2.7-4.1-9h-9.5L224.3,71.2L224.3,71.2z"/>
	<path class="st0" d="M257.9,37.8h-5.5v6.9h5.6v28.6c0,5.6,1.5,9.3,11.2,9.3c1.3,0,2.3-0.1,3.2-0.5l2.3-7.4
		c-0.7,0.1-1.1,0.1-1.8,0.1c-4.2,0-4.7-2-4.7-4.8V44.6h6.2v-6.9h-6.1V21h-0.1c-2.8,0-10.1,2.8-10.2,9V37.8z"/>
	<path class="st0" d="M339.4,82h10.3V49.9c0-2.9,1.3-4.7,4.1-4.7c3.8,0,3.8,3.2,3.8,5.5V82h10.2V47.3c0-8.9-6.1-10.4-9.3-10.4
		c-4.7,0-7.3,2.7-9,4.5V21h-0.1c-2.8,0-9.9,2.8-10.1,9V82z"/>
	<path class="st0" d="M276.8,71.2c0,6.1,2.3,11.7,13.4,11.7c13.6,0,13.6-8,13.6-13.6c0-2.8-0.3-5.2-1.5-6.9
		c-0.4-0.6-2.3-2.5-2.8-2.9l-9.4-6.6c-2.8-2-2.9-3.6-2.9-4.8c0-3.7,2.2-4,3.6-4c3.7,0,3.7,2.9,3.7,7.9h8.9v-4.8
		c0-6.3-3.6-10.2-12.6-10.2c-7.3,0-13.3,2-13.3,11.4c0,4.7,1.3,6.6,2.4,7.9c0.7,0.9,2.3,2.3,2.8,2.8l8.5,6.1c2.8,2,3,3.2,3,5.8
		c0,3.8-1.8,4.8-4,4.8c-4.1,0-4.1-2.7-4.1-9h-9.5L276.8,71.2L276.8,71.2z"/>
	<path class="st0" d="M335.7,54.5v-5.3c0-4.2-0.9-7-3.6-9.3c-2.6-2-6.6-3.1-10.4-3.1c-4.5,0-9,1.4-11.8,5c-1.9,2.3-2.5,5.5-2.5,8.5
		V70c0,3.6,0.5,7.1,3.9,9.8c3.4,2.8,8.2,3,10.4,3c9.3,0,14.1-4.4,14.1-13.4v-5h-10.2v5.1c0,1.8-0.1,5.7-4,5.7
		c-4.1,0-4.1-3.7-4.1-5.8V50.2c0-2.2,0-6.1,4.2-6.1c3.8,0,3.8,3.4,3.8,5v5.3L335.7,54.5L335.7,54.5z"/>
	<path class="st0" d="M138.3,28.7v-7.8H128v10.7C131.9,31.3,136.4,30,138.3,28.7"/>
	<path class="st0" d="M156.4,28.7v-7.8h-10.3v10.7C150,31.3,154.6,30,156.4,28.7"/>
	<path class="st0" d="M460.2,28.7v-7.8H450v10.7C453.8,31.3,458.4,30,460.2,28.7"/>
	<g>
		<path class="st0" d="M33.6,0c-5.7,0-10.4,4.6-10.4,10.4c0,5.7,4.6,10.4,10.4,10.4c5.7,0,10.4-4.6,10.4-10.4
			C43.9,4.6,39.3,0,33.6,0"/>
	</g>
	<rect x="28.9" y="9.5" class="st1" width="9.5" height="1.8"/>
	<rect x="28.9" y="6.1" class="st1" width="9.5" height="1.8"/>
	<rect x="28.9" y="12.9" class="st1" width="6.1" height="1.8"/>
	<path class="st0" d="M10.4,23.3C4.7,23.3,0,27.9,0,33.6C0,39.3,4.6,44,10.4,44c5.7,0,10.4-4.6,10.4-10.4
		C20.6,27.9,15.6,23.3,10.4,23.3"/>
	<path class="st1" d="M3.9,36.2v0.1c0,0.9,0.7,1.5,1.5,1.5h9.8c0.9,0,1.5-0.7,1.5-1.5v-0.1H3.9z"/>
	<path class="st1" d="M16.8,31.1v-0.2c0-0.9-0.7-1.5-1.5-1.5H5.4c-0.9,0-1.5,0.7-1.5,1.5V31L16.8,31.1L16.8,31.1z"/>
	<rect x="3.9" y="32.7" class="st1" width="12.9" height="1.8"/>
	<g>
		<path class="st0" d="M10.4,0C4.7,0,0,4.6,0,10.4C0,16,4.6,20.6,10.4,20.6c5.7,0,10.3-4.6,10.3-10.3C20.6,4.6,16,0,10.4,0"/>
	</g>
	<rect x="9.5" y="3.9" class="st1" width="1.8" height="5.6"/>
	<rect x="6.1" y="7.1" class="st1" width="1.8" height="2.4"/>
	<rect x="9.5" y="11.2" class="st1" width="1.8" height="5.2"/>
	<rect x="6.1" y="11.2" class="st1" width="1.8" height="3.4"/>
	<rect x="12.9" y="6.3" class="st1" width="1.8" height="3.2"/>
	<rect x="12.9" y="11.2" class="st1" width="1.8" height="2.6"/>
	<path class="st2" d="M51.7,20.6c-17.1,0-31,13.9-31,31s13.9,31,31,31s31-13.9,31-31C82.7,34.6,68.8,20.6,51.7,20.6"/>
	<path class="st1" d="M30.9,44.4l3.9,4c4.4-4.2,10.4-6.9,17.1-6.9c6.4,0,12.3,2.5,16.7,6.6l3.8-4.1c-5.4-5-12.6-8.1-20.5-8.1
		C43.7,36,36.3,39.2,30.9,44.4"/>
	<path class="st1" d="M38.9,52.7l3.9,4c2.3-2.3,5.5-3.6,9.1-3.6c3.4,0,6.6,1.3,8.9,3.5l3.8-4.1c-3.4-3.1-7.8-5-12.7-5
		C46.8,47.4,42.2,49.4,38.9,52.7"/>
	<path class="st1" d="M51.8,66.1l5-5.3c-1.3-1.2-3.1-2-5-2c-2,0-3.8,0.8-5.1,2L51.8,66.1z"/>
</g>
</svg>
