<?xml version="1.0" encoding="utf-8"?>
<!-- Generator: Adobe Illustrator 28.3.0, SVG Export Plug-In . SVG Version: 6.00 Build 0)  -->
<svg version="1.1" id="Шар_1" xmlns="http://www.w3.org/2000/svg" xmlns:xlink="http://www.w3.org/1999/xlink" x="0px" y="0px"
	 viewBox="0 0 238.35 53.64" style="enable-background:new 0 0 238.35 53.64;" xml:space="preserve">
<style type="text/css">
	.st0{fill:url(#SVGID_1_);}
	.st1{fill:url(#SVGID_00000080895730696319836630000007779238053050283434_);}
	.st2{fill:url(#SVGID_00000062152436757345361350000009913075127359188379_);}
	.st3{fill:url(#SVGID_00000029033195928204805500000010794936338251553945_);}
	.st4{fill:url(#SVGID_00000162329644158988701160000002703453774666803644_);}
	.st5{fill:url(#SVGID_00000088816479470635475910000003891203410984899215_);}
</style>
<g>
	<linearGradient id="SVGID_1_" gradientUnits="userSpaceOnUse" x1="0" y1="19.7639" x2="243.3496" y2="19.7639">
		<stop  offset="5.617995e-03" style="stop-color:#FF0042"/>
		<stop  offset="0.2754" style="stop-color:#FF282B"/>
		<stop  offset="0.5954" style="stop-color:#FF5114"/>
		<stop  offset="0.8481" style="stop-color:#FF6B05"/>
		<stop  offset="1" style="stop-color:#FF7400"/>
	</linearGradient>
	<path class="st0" d="M17.28,39.53c-3.55,0-6.78-0.43-9.68-1.28c-2.9-0.85-5.44-2.06-7.6-3.62l3.92-8.89
		c2.11,1.27,4.34,2.28,6.68,3.02c2.34,0.74,4.53,1.12,6.57,1.12c1.7,0,3-0.21,3.89-0.63c0.89-0.42,1.33-1.04,1.33-1.85
		c0-0.72-0.41-1.24-1.22-1.55c-0.82-0.31-2.46-0.67-4.93-1.08C11.12,23.95,7.38,22.55,5,20.56s-3.56-4.74-3.56-8.24
		c0-2.47,0.69-4.63,2.07-6.48c1.38-1.85,3.28-3.28,5.69-4.3C11.61,0.51,14.39,0,17.53,0c3.07,0,5.99,0.41,8.75,1.22
		c2.76,0.82,5.11,1.92,7.06,3.31l-3.78,8.89c-1.03-0.74-2.2-1.4-3.51-1.96c-1.31-0.56-2.66-1-4.07-1.31
		c-1.4-0.31-2.74-0.47-4.01-0.47c-1.49,0-2.68,0.19-3.58,0.58s-1.35,0.94-1.35,1.66s0.38,1.25,1.13,1.58
		c0.76,0.34,2.37,0.77,4.84,1.3c5.42,1.08,9.26,2.53,11.52,4.36c2.26,1.82,3.38,4.39,3.38,7.7c0,2.54-0.7,4.77-2.11,6.68
		c-1.4,1.91-3.35,3.38-5.85,4.43S20.57,39.53,17.28,39.53z"/>
	
		<linearGradient id="SVGID_00000175312465015938900950000001937836487915548304_" gradientUnits="userSpaceOnUse" x1="0" y1="20.52" x2="243.3496" y2="20.52">
		<stop  offset="5.617995e-03" style="stop-color:#FF0042"/>
		<stop  offset="0.2754" style="stop-color:#FF282B"/>
		<stop  offset="0.5954" style="stop-color:#FF5114"/>
		<stop  offset="0.8481" style="stop-color:#FF6B05"/>
		<stop  offset="1" style="stop-color:#FF7400"/>
	</linearGradient>
	<path style="fill:url(#SVGID_00000175312465015938900950000001937836487915548304_);" d="M52.76,39.6c-3.41,0-6.22-0.65-8.44-1.96
		c-2.22-1.31-3.86-3.16-4.93-5.56c-1.07-2.4-1.6-5.22-1.6-8.46V1.44h13.1v20.34c0,1.87,0.47,3.34,1.4,4.39
		c0.94,1.06,2.34,1.58,4.21,1.58c1.2,0,2.24-0.26,3.11-0.77c0.88-0.52,1.55-1.24,2.02-2.18c0.47-0.94,0.7-2.02,0.7-3.24V1.44h13.1
		v37.08h-11.2v-3.78c-1.1,1.22-2.54,2.34-4.3,3.35C58.18,39.1,55.79,39.6,52.76,39.6z"/>
	
		<linearGradient id="SVGID_00000106859297657309816320000004677102572633696392_" gradientUnits="userSpaceOnUse" x1="0" y1="27" x2="243.3496" y2="27">
		<stop  offset="5.617995e-03" style="stop-color:#FF0042"/>
		<stop  offset="0.2754" style="stop-color:#FF282B"/>
		<stop  offset="0.5954" style="stop-color:#FF5114"/>
		<stop  offset="0.8481" style="stop-color:#FF6B05"/>
		<stop  offset="1" style="stop-color:#FF7400"/>
	</linearGradient>
	<path style="fill:url(#SVGID_00000106859297657309816320000004677102572633696392_);" d="M82.15,53.64V1.44h11.2v3.92
		c1.32-1.54,3.03-2.75,5.13-3.65c2.1-0.9,4.48-1.35,7.15-1.35c3.5,0,6.65,0.8,9.43,2.41c2.78,1.61,4.97,3.88,6.57,6.82
		c1.6,2.94,2.39,6.4,2.39,10.39c0,2.78-0.46,5.36-1.37,7.74s-2.2,4.45-3.87,6.23c-1.67,1.78-3.64,3.16-5.9,4.16
		s-4.77,1.49-7.51,1.49c-1.94,0-3.77-0.29-5.49-0.88c-1.72-0.59-3.28-1.45-4.7-2.57v17.5H82.15z M103.21,28.4
		c1.54,0,2.91-0.34,4.12-1.03s2.17-1.66,2.86-2.92c0.7-1.26,1.04-2.75,1.04-4.48s-0.35-3.22-1.04-4.48
		c-0.7-1.26-1.66-2.23-2.88-2.92s-2.59-1.03-4.1-1.03c-1.51,0-2.87,0.34-4.09,1.03s-2.17,1.66-2.88,2.92
		c-0.71,1.26-1.06,2.75-1.06,4.48s0.35,3.22,1.04,4.48c0.7,1.26,1.65,2.23,2.86,2.92S101.67,28.4,103.21,28.4z"/>
	
		<linearGradient id="SVGID_00000047746148447401050250000006011926559358176920_" gradientUnits="userSpaceOnUse" x1="0" y1="19.98" x2="243.3496" y2="19.98">
		<stop  offset="5.617995e-03" style="stop-color:#FF0042"/>
		<stop  offset="0.2754" style="stop-color:#FF282B"/>
		<stop  offset="0.5954" style="stop-color:#FF5114"/>
		<stop  offset="0.8481" style="stop-color:#FF6B05"/>
		<stop  offset="1" style="stop-color:#FF7400"/>
	</linearGradient>
	<path style="fill:url(#SVGID_00000047746148447401050250000006011926559358176920_);" d="M147.2,39.6c-4.13,0-7.74-0.82-10.84-2.47
		c-3.1-1.64-5.5-3.94-7.22-6.88c-1.72-2.94-2.57-6.38-2.57-10.31c0-2.88,0.5-5.51,1.51-7.9c1.01-2.39,2.42-4.45,4.25-6.19
		c1.82-1.74,3.98-3.09,6.46-4.05c2.48-0.96,5.21-1.44,8.19-1.44c3.34,0,6.29,0.58,8.87,1.75c2.58,1.16,4.71,2.8,6.39,4.9
		c1.68,2.1,2.84,4.55,3.47,7.36c0.64,2.81,0.63,5.88-0.02,9.22h-27.29c0.07,1.2,0.5,2.26,1.28,3.17c0.78,0.91,1.84,1.63,3.19,2.14
		c1.34,0.52,2.89,0.77,4.64,0.77c2.23,0,4.32-0.27,6.26-0.81c1.94-0.54,3.85-1.4,5.72-2.57l3.96,8.75
		c-1.13,0.86-2.61,1.64-4.45,2.32s-3.8,1.23-5.89,1.64C151.05,39.4,149.07,39.6,147.2,39.6z M139.25,14.9h14.08
		c-0.02-1.58-0.64-2.85-1.85-3.8c-1.21-0.95-2.83-1.42-4.84-1.42c-2.04,0-3.74,0.47-5.09,1.42
		C140.18,12.05,139.41,13.32,139.25,14.9z"/>
	
		<linearGradient id="SVGID_00000090265204920073398070000006352968817902257812_" gradientUnits="userSpaceOnUse" x1="0" y1="19.4041" x2="243.3496" y2="19.4041">
		<stop  offset="5.617995e-03" style="stop-color:#FF0042"/>
		<stop  offset="0.2754" style="stop-color:#FF282B"/>
		<stop  offset="0.5954" style="stop-color:#FF5114"/>
		<stop  offset="0.8481" style="stop-color:#FF6B05"/>
		<stop  offset="1" style="stop-color:#FF7400"/>
	</linearGradient>
	<path style="fill:url(#SVGID_00000090265204920073398070000006352968817902257812_);" d="M170.44,38.52V1.44h13.1v4.1
		c1.01-1.82,2.41-3.16,4.19-4c1.79-0.84,3.75-1.26,5.89-1.26c0.84,0,1.58,0.05,2.21,0.16c0.64,0.11,1.27,0.22,1.89,0.34l-1.51,13.43
		c-0.84-0.34-1.75-0.59-2.72-0.77c-0.97-0.18-1.93-0.27-2.86-0.27c-2.06,0-3.76,0.57-5.09,1.71c-1.33,1.14-2,2.87-2,5.2v18.43
		H170.44z"/>
	
		<linearGradient id="SVGID_00000051368597194371936290000003088633797523361464_" gradientUnits="userSpaceOnUse" x1="-5" y1="20.4082" x2="238.3496" y2="20.4082">
		<stop  offset="5.617995e-03" style="stop-color:#FF0042"/>
		<stop  offset="0.2754" style="stop-color:#FF282B"/>
		<stop  offset="0.5954" style="stop-color:#FF5114"/>
		<stop  offset="0.8481" style="stop-color:#FF6B05"/>
		<stop  offset="1" style="stop-color:#FF7400"/>
	</linearGradient>
	<polygon style="fill:url(#SVGID_00000051368597194371936290000003088633797523361464_);" points="212.36,38.91 212.36,27.89 
		201.35,27.89 201.35,12.92 212.36,12.92 212.36,1.91 227.34,1.91 227.34,12.92 238.35,12.92 238.35,27.89 227.34,27.89 
		227.34,38.91 	"/>
</g>
</svg>
