<svg id="Syria_TV_logo_New" data-name="Syria TV logo New" xmlns="http://www.w3.org/2000/svg" xmlns:xlink="http://www.w3.org/1999/xlink" width="137.121" height="60.521" viewBox="0 0 137.121 60.521">
  <defs>
    <linearGradient id="linear-gradient" x1="85.304" y1="-34.215" x2="85.912" y2="-32.963" gradientUnits="objectBoundingBox">
      <stop offset="0" stop-opacity="0"/>
      <stop offset="1"/>
    </linearGradient>
    <linearGradient id="linear-gradient-2" x1="-0.003" y1="0.499" x2="1.009" y2="0.499" gradientUnits="objectBoundingBox">
      <stop offset="0" stop-color="#fff" stop-opacity="0"/>
      <stop offset="0.6" stop-color="#fff"/>
      <stop offset="1" stop-color="#fff" stop-opacity="0"/>
    </linearGradient>
    <linearGradient id="linear-gradient-3" x1="0.514" y1="0.502" x2="1.127" y2="1.606" gradientUnits="objectBoundingBox">
      <stop offset="0" stop-opacity="0"/>
      <stop offset="0.11" stop-color="#020505" stop-opacity="0"/>
      <stop offset="0.26" stop-color="#091414" stop-opacity="0.012"/>
      <stop offset="0.41" stop-color="#162d2d" stop-opacity="0.047"/>
      <stop offset="0.58" stop-color="#26504f" stop-opacity="0.161"/>
      <stop offset="0.75" stop-color="#3c7d7c" stop-opacity="0.384"/>
      <stop offset="0.93" stop-color="#56b3b2" stop-opacity="0.792"/>
      <stop offset="1" stop-color="#62cbc9"/>
    </linearGradient>
    <linearGradient id="linear-gradient-4" x1="-0.009" y1="0.499" x2="1.003" y2="0.499" xlink:href="#linear-gradient-2"/>
    <linearGradient id="linear-gradient-5" x1="-0.408" y1="-0.43" x2="0.881" y2="0.747" gradientUnits="objectBoundingBox">
      <stop offset="0"/>
      <stop offset="0.97" stop-opacity="0"/>
    </linearGradient>
    <linearGradient id="linear-gradient-6" x1="-0.008" y1="0.501" x2="1.003" y2="0.501" gradientUnits="objectBoundingBox">
      <stop offset="0" stop-color="#fff" stop-opacity="0"/>
      <stop offset="0.5" stop-color="#fff"/>
      <stop offset="1" stop-color="#fff" stop-opacity="0"/>
    </linearGradient>
    <linearGradient id="linear-gradient-7" x1="-0.4" y1="-0.485" x2="0.888" y2="0.691" xlink:href="#linear-gradient-5"/>
    <linearGradient id="linear-gradient-8" x1="-0.029" y1="0.188" x2="0.974" y2="1.094" gradientUnits="objectBoundingBox">
      <stop offset="0" stop-color="#fff" stop-opacity="0"/>
      <stop offset="0.61" stop-color="#fff"/>
      <stop offset="1" stop-color="#fff" stop-opacity="0"/>
    </linearGradient>
    <linearGradient id="linear-gradient-11" x1="-0.408" y1="-0.43" x2="0.881" y2="0.747" xlink:href="#linear-gradient-5"/>
    <linearGradient id="linear-gradient-12" x1="-0.008" y1="0.501" x2="1.003" y2="0.501" xlink:href="#linear-gradient-6"/>
    <linearGradient id="linear-gradient-13" x1="1.847" y1="1.703" x2="-0.341" y2="-0.408" xlink:href="#linear-gradient-5"/>
    <linearGradient id="linear-gradient-14" x1="-0.006" y1="0.5" x2="1.002" y2="0.5" xlink:href="#linear-gradient-2"/>
  </defs>
  <path id="Path_1" data-name="Path 1" d="M28.1,24.778,23.085,26.64,15.957,5.346A7.822,7.822,0,0,0,8.539,0H0S6.95,20.666,7.031,20.9l4.58,13.8a7.823,7.823,0,0,0,10.143,4.87l17.634-6.539-1.145-3.411a7.82,7.82,0,0,0-10.135-4.838Z" transform="translate(0 0.009)" fill="#1c164e"/>
  <path id="Path_2" data-name="Path 2" d="M48.718,0H40.26L52.6,36.88a7.814,7.814,0,0,0,7.418,5.338h8.458L56.136,5.346A8.372,8.372,0,0,0,48.718,0Z" transform="translate(-7.798 0.009)" fill="#1c164e"/>
  <path id="Path_3" data-name="Path 3" d="M85.344,0H62.88l5.991,17.981a7.819,7.819,0,0,0,10.143,4.862l4.87-1.806,5.3,15.844A7.822,7.822,0,0,0,96.6,42.226h8.49L92.754,5.346A7.814,7.814,0,0,0,85.336.008Z" transform="translate(-12.179 0.009)" fill="#1c164e"/>
  <path id="Path_4" data-name="Path 4" d="M111.385,0H102.83L106.1,9.8a5.317,5.317,0,0,0,6.894,3.306l7.466-2.774-1.661-4.983A7.832,7.832,0,0,0,111.369,0Z" transform="translate(-19.917 0.009)" fill="#1c164e"/>
  <path id="Path_5" data-name="Path 5" d="M134.125,0H125.57l3.266,9.8a5.317,5.317,0,0,0,6.894,3.306l7.466-2.774-1.661-4.983A7.832,7.832,0,0,0,134.109,0Z" transform="translate(-24.322 0.009)" fill="#1c164e"/>
  <path id="Path_6" data-name="Path 6" d="M164.181,5.354A7.832,7.832,0,0,0,156.755,0H148.2l3.266,9.8a5.317,5.317,0,0,0,6.894,3.306l7.466-2.774-1.661-4.983Z" transform="translate(-28.705 0.009)" fill="#1c164e"/>
  <path id="Path_7" data-name="Path 7" d="M45.541,50.729H27.415a.312.312,0,0,1-.1-.6l16.473-6.088a1.56,1.56,0,0,1,2.024.976l1.218,3.661a1.562,1.562,0,0,1-1.484,2.056Z" transform="translate(-5.25 -8.503)" fill="#f7941d"/>
  <path id="Path_8" data-name="Path 8" d="M88.93,25.775c10.772-4,14.82,2.088,16.07,5.87.081.234,5.144,15.312,5.144,15.312h-8.482A7.832,7.832,0,0,1,94.235,41.6L88.93,25.775Z" transform="translate(-17.225 -4.731)" fill="url(#linear-gradient)"/>
  <path id="Path_9" data-name="Path 9" d="M88.93,25.744a19.365,19.365,0,0,1,4.709-1.314,11.945,11.945,0,0,1,4.894.29,9.166,9.166,0,0,1,4.136,2.62,10.907,10.907,0,0,1,1.411,2.016A11.709,11.709,0,0,1,105,31.622a12.22,12.22,0,0,0-2.508-4.112,9.157,9.157,0,0,0-4.048-2.483,12.2,12.2,0,0,0-4.773-.355,17.2,17.2,0,0,0-2.387.419c-.79.169-1.564.419-2.346.661Z" transform="translate(-17.225 -4.699)" fill="url(#linear-gradient-2)"/>
  <path id="Path_10" data-name="Path 10" d="M23.085,26.64c-10.861,4-14.852-1.951-16.11-5.733C6.9,20.666,0,0,0,0H8.539a7.825,7.825,0,0,1,7.418,5.338l7.128,21.295Z" transform="translate(0 0.009)" fill="url(#linear-gradient-3)"/>
  <path id="Path_11" data-name="Path 11" d="M24.76,31.665a20.178,20.178,0,0,1-4.7,1.322,12.221,12.221,0,0,1-4.894-.234A9.075,9.075,0,0,1,11,30.2a10.833,10.833,0,0,1-1.419-2A11.67,11.67,0,0,1,8.65,25.94a11.987,11.987,0,0,0,2.524,4.1,9.078,9.078,0,0,0,4.08,2.427,12.383,12.383,0,0,0,4.781.3,18.5,18.5,0,0,0,2.387-.427c.79-.177,1.564-.419,2.346-.653Z" transform="translate(-1.675 -5.016)" fill="url(#linear-gradient-4)"/>
  <path id="Path_12" data-name="Path 12" d="M102.83,0s6.644,8.644,15.965,5.435h0A7.859,7.859,0,0,0,111.312,0Z" transform="translate(-19.917 0.009)" fill="url(#linear-gradient-5)"/>
  <path id="Path_13" data-name="Path 13" d="M102.83,0a17.283,17.283,0,0,0,1.588,1.58,20.706,20.706,0,0,0,1.742,1.4,16.639,16.639,0,0,0,3.894,2.129,12.863,12.863,0,0,0,4.33.9A11.445,11.445,0,0,0,116.61,5.9a14.755,14.755,0,0,0,2.193-.468,12.1,12.1,0,0,1-4.419.822A12.637,12.637,0,0,1,109.95,5.4a15.9,15.9,0,0,1-3.927-2.233A16.509,16.509,0,0,1,102.838-.01Z" transform="translate(-19.917 0.01)" fill="url(#linear-gradient-6)"/>
  <path id="Path_14" data-name="Path 14" d="M62.88,0S76.087,17.182,94.624,10.813l-1.758-5.4A7.823,7.823,0,0,0,85.424,0Z" transform="translate(-12.179 0.009)" fill="url(#linear-gradient-7)"/>
  <path id="Path_15" data-name="Path 15" d="M62.88,0A32.328,32.328,0,0,0,66,3.185,39.794,39.794,0,0,0,69.451,6a33.1,33.1,0,0,0,7.757,4.273,25.8,25.8,0,0,0,8.644,1.782,23.239,23.239,0,0,0,4.427-.258,26.885,26.885,0,0,0,4.346-.984,24.675,24.675,0,0,1-8.781,1.556,25.384,25.384,0,0,1-8.781-1.717,32.046,32.046,0,0,1-7.8-4.4A34.721,34.721,0,0,1,62.88,0Z" transform="translate(-12.179 0.009)" fill="url(#linear-gradient-8)"/>
  <path id="Path_16" data-name="Path 16" d="M125.57,0s6.644,8.644,15.965,5.435h0A7.859,7.859,0,0,0,134.052,0H125.57Z" transform="translate(-24.322 0.009)" fill="url(#linear-gradient-5)"/>
  <path id="Path_17" data-name="Path 17" d="M125.57,0a17.283,17.283,0,0,0,1.588,1.58,20.706,20.706,0,0,0,1.742,1.4,16.639,16.639,0,0,0,3.894,2.129,12.863,12.863,0,0,0,4.33.9A11.445,11.445,0,0,0,139.35,5.9a14.755,14.755,0,0,0,2.193-.468,12.1,12.1,0,0,1-4.419.822A12.637,12.637,0,0,1,132.69,5.4a15.9,15.9,0,0,1-3.927-2.233A16.51,16.51,0,0,1,125.578-.01Z" transform="translate(-24.322 0.01)" fill="url(#linear-gradient-6)"/>
  <path id="Path_18" data-name="Path 18" d="M148.21,0s6.644,8.644,15.965,5.435h0A7.867,7.867,0,0,0,156.692,0H148.21Z" transform="translate(-28.707 0.009)" fill="url(#linear-gradient-11)"/>
  <path id="Path_19" data-name="Path 19" d="M148.21,0a17.283,17.283,0,0,0,1.588,1.58,20.706,20.706,0,0,0,1.742,1.4,16.639,16.639,0,0,0,3.894,2.129,12.863,12.863,0,0,0,4.33.9A11.445,11.445,0,0,0,161.99,5.9a14.755,14.755,0,0,0,2.193-.468,12.1,12.1,0,0,1-4.419.822A12.637,12.637,0,0,1,155.33,5.4,15.9,15.9,0,0,1,151.4,3.167,16.51,16.51,0,0,1,148.218-.01Z" transform="translate(-28.707 0.01)" fill="url(#linear-gradient-12)"/>
  <path id="Path_20" data-name="Path 20" d="M40.25,0s9.772,31.962,23.125,27.019L56.191,5.555A8.109,8.109,0,0,0,48.482,0Z" transform="translate(-7.796 0.009)" opacity="0.55" fill="url(#linear-gradient-13)"/>
  <path id="Path_21" data-name="Path 21" d="M40.25,0c.516,1.532,1.08,3.048,1.677,4.548s1.209,2.991,1.879,4.467A69.764,69.764,0,0,0,48.3,17.577a37.37,37.37,0,0,0,2.774,3.951,22.962,22.962,0,0,0,3.362,3.435,11.267,11.267,0,0,0,4.209,2.25,7.9,7.9,0,0,0,2.379.266,8.763,8.763,0,0,0,2.362-.46,7.886,7.886,0,0,1-4.781.347,11.615,11.615,0,0,1-4.314-2.209,21.674,21.674,0,0,1-3.435-3.443,39.17,39.17,0,0,1-2.814-3.967A67.056,67.056,0,0,1,43.6,9.119,84.634,84.634,0,0,1,40.25,0Z" transform="translate(-7.796 0.009)" fill="url(#linear-gradient-14)"/>
  <path id="Path_22" data-name="Path 22" d="M60.076,68.8l.839-.073a1.872,1.872,0,0,0,.274.83,1.528,1.528,0,0,0,.677.524,2.509,2.509,0,0,0,1.032.2,2.366,2.366,0,0,0,.9-.153,1.343,1.343,0,0,0,.581-.411.961.961,0,0,0,.194-.572.923.923,0,0,0-.185-.556,1.359,1.359,0,0,0-.6-.4,12.326,12.326,0,0,0-1.193-.331,6.065,6.065,0,0,1-1.3-.419,1.789,1.789,0,0,1-.718-.629,1.5,1.5,0,0,1-.234-.839,1.712,1.712,0,0,1,.29-.951,1.774,1.774,0,0,1,.847-.669A3.2,3.2,0,0,1,62.7,64.13a3.324,3.324,0,0,1,1.314.242,1.927,1.927,0,0,1,.879.71,2,2,0,0,1,.331,1.056l-.855.064a1.369,1.369,0,0,0-.468-.96,1.8,1.8,0,0,0-1.169-.323,1.9,1.9,0,0,0-1.177.3.873.873,0,0,0-.371.71.775.775,0,0,0,.258.6A3.572,3.572,0,0,0,62.785,67a8.564,8.564,0,0,1,1.484.427,1.992,1.992,0,0,1,.863.685,1.68,1.68,0,0,1,.282.96,1.826,1.826,0,0,1-.306,1.008,2.051,2.051,0,0,1-.879.742,3.062,3.062,0,0,1-1.3.266,3.893,3.893,0,0,1-1.532-.266,2.147,2.147,0,0,1-.968-.8,2.3,2.3,0,0,1-.371-1.209Z" transform="translate(-11.633 -12.413)" fill="#f7941d"/>
  <path id="Path_23" data-name="Path 23" d="M68.879,73.3l-.089-.774a1.847,1.847,0,0,0,.476.073.983.983,0,0,0,.443-.089.7.7,0,0,0,.274-.258,4.257,4.257,0,0,0,.25-.613c.016-.048.04-.113.073-.2L68.46,66.56h.887l1.016,2.822c.129.355.25.734.355,1.129q.145-.568.339-1.113L72.1,66.56h.822l-1.855,4.951c-.2.532-.355.9-.46,1.1a1.579,1.579,0,0,1-.508.6,1.192,1.192,0,0,1-.677.194,1.516,1.516,0,0,1-.532-.1Z" transform="translate(-13.26 -12.884)" fill="#f7941d"/>
  <path id="Path_24" data-name="Path 24" d="M75.77,71.4v-4.87h.742v.742a2.087,2.087,0,0,1,.524-.685.9.9,0,0,1,.532-.161,1.6,1.6,0,0,1,.847.266l-.282.766a1.161,1.161,0,0,0-.6-.177.811.811,0,0,0-.484.161.828.828,0,0,0-.306.452,3.283,3.283,0,0,0-.137.96V71.4h-.822Z" transform="translate(-14.676 -12.859)" fill="#f7941d"/>
  <path id="Path_25" data-name="Path 25" d="M80.6,65.211V64.26h.822v.951Zm0,5.773v-4.87h.822v4.87Z" transform="translate(-15.612 -12.438)" fill="#f7941d"/>
  <path id="Path_26" data-name="Path 26" d="M87.221,70.8a3.058,3.058,0,0,1-.879.548,2.609,2.609,0,0,1-.911.161,1.759,1.759,0,0,1-1.234-.4,1.277,1.277,0,0,1-.427-1,1.353,1.353,0,0,1,.589-1.129,2.023,2.023,0,0,1,.6-.274,6.507,6.507,0,0,1,.734-.121,8.242,8.242,0,0,0,1.476-.282v-.218a.914.914,0,0,0-.234-.71,1.388,1.388,0,0,0-.943-.282,1.465,1.465,0,0,0-.863.2,1.255,1.255,0,0,0-.411.726l-.806-.113a2.005,2.005,0,0,1,.363-.839A1.551,1.551,0,0,1,85,66.579a3.279,3.279,0,0,1,1.1-.169,2.981,2.981,0,0,1,1.016.145,1.24,1.24,0,0,1,.572.371,1.35,1.35,0,0,1,.258.564,5.06,5.06,0,0,1,.04.758v1.1a10.589,10.589,0,0,0,.056,1.459,1.736,1.736,0,0,0,.21.581H87.39a1.665,1.665,0,0,1-.161-.6Zm-.073-1.838a6.289,6.289,0,0,1-1.347.314,3.337,3.337,0,0,0-.718.161.7.7,0,0,0-.323.266.751.751,0,0,0-.113.4.692.692,0,0,0,.25.548,1.092,1.092,0,0,0,.734.218,1.711,1.711,0,0,0,.847-.21,1.3,1.3,0,0,0,.548-.572,1.987,1.987,0,0,0,.129-.822V68.95Z" transform="translate(-16.226 -12.855)" fill="#f7941d"/>
  <path id="Path_27" data-name="Path 27" d="M97.187,70.987V65.06H94.97v-.79h5.33v.79H98.074v5.926Z" transform="translate(-18.395 -12.44)" fill="#f7941d"/>
  <path id="Path_28" data-name="Path 28" d="M105.4,70.985l-2.6-6.725h.96l1.75,4.886c.137.4.258.758.355,1.1.1-.363.226-.734.363-1.1l1.814-4.886h.911l-2.629,6.725h-.911Z" transform="translate(-19.912 -12.438)" fill="#f7941d"/>
</svg>
