<svg xmlns="http://www.w3.org/2000/svg" width="1750" height="1750" viewBox="0 0 1750 1750">
  <path fill="#039" d="M749.67 0v1561.81l249.89 187.41 749.67-999.55L749.67 0Z"/>
  <path fill="#000E1F" d="M749.67 0 0 999.56l749.67 562.25V0Z"/>
  <path fill="#fff" d="M499.79 449.8v249.89h249.85v649.71h249.93V699.69h249.89V449.8H499.79Z"/>
  <path fill="#fff" d="M1049.44 749.71v77.73h58.3v272.11h77.73V749.71h-136.03ZM1454.61 912.32c14.04-18.08 22.41-40.78 22.41-65.44 0-59.04-47.87-106.9-106.9-106.9-59.03 0-106.89 47.86-106.89 106.9 0 24.66 8.37 47.36 22.4 65.44-19.89 20.92-32.12 49.19-32.12 80.32 0 64.42 52.2 116.61 116.61 116.61s116.63-52.2 116.63-116.61c0-31.14-12.25-59.41-32.14-80.32Zm-84.49-99.46c18.79 0 34.02 15.23 34.02 34.02 0 18.79-15.21 33.99-33.97 34.01h-.1c-18.77-.02-33.97-15.23-33.97-34.01 0-18.78 15.22-34.02 34.01-34.02h.01Zm0 218.66c-21.47 0-38.87-17.41-38.87-38.88 0-21.47 17.4-38.86 38.87-38.86s38.87 17.4 38.87 38.86-17.41 38.88-38.87 38.88Z"/>
</svg>