<svg fill="none" height="40" viewBox="0 0 71 40" width="71" xmlns="http://www.w3.org/2000/svg"><g fill="#1728af"><path d="m67.6786 35.4021c0-.1232-.1095-.2239-.152-.2239-.0402 0-.1788.3269-.219.4522-.0402.1232-.0045.2239.0782.2239.0805 0 .295-.3268.295-.4522zm-.2391.9426c0 .0716.0223.1343.0469.1343s.0514-.4053.0134-.403c-.038 0-.0626.197-.0603.2709zm.1899-.4075c.0023.0739.0224.1343.047.1365.0245 0 .0134-.4052.0134-.4052s-.0626.1948-.0604.2687zm-.514-11.6111s.0179-.0112.0291-.0381c-.0313.0067-.0581.0224-.0291.0381zm.8627 8.3781c.0402 0-.0716-.6852-.114-.974-.0425-.2888.029-.5261.0715-.5261.0402 0 .0648-.6426.0626-1.0568-.0023-.4097-.1118-1.2269-.1542-1.2269-.0403 0-.0738-.1097-.076-.1478 0-.0425.1095-.0761.1497-.0784.0425 0 .2056-2.2076.1989-3.0337-.0022-.2732-.0156-.3538-.0358-.3448.0135-.0985.0179-.215.0179-.2933 0-.1657-.1117-.3-.1542-.3-.0402 0-.0782-.4344-.0782-.5978 0-.1657.1073-.3.1475-.3023.0425 0 .0715-.4343.0693-.5978 0-.1657-.1095-.3-.152-.3-.0424 0 .0291-.6157.0693-.8217.038-.206-.0358-.2642-.0782-.2642-.0402 0-.0782-.6537-.0805-.8597 0-.206.1073-.3739.1475-.3739s.0738-.3359-.0067-.3359c-.0804 0-.2972-.6067-.1497-.75.2257-.2261.105-.3762.1453-.3762.0402 0 .0715-.1119.0715-.1522s-.1073-.0739-.1498-.0739c-.0402 0-.0827-.9762-.0827-1.3478-.0044-.3717.1028-.8217.1431-.824.0402 0 .1296-.4701.0268-.6246-.1028-.1523-.19-.8575-.1922-1.0635 0-.206.1073-.3761.1475-.3761s-.038-.6493-.0827-.8979l-.1676-3.5128c-.0402 0-.1341-.6762-.0358-.91353.0872-.21493.0425-.39181.0157-.60003-.0425-.34032-.1431-.68511-.1319-1.02991.0112-.32464.0671-.64481.0604-.97169-.0224-.99185-.228-1.80011-.3084-1.79787-.0827 0-.2749.74557-.4269 1.65457-.1519.90901.2011 1.8628.2414 1.8628.0402 0 .0737-.00001.0737.03806 0 .0403-.105-.03583-.1452-.03583-.0425 0-.0716.43436-.0716.60004s-.1072.30225-.1452.30225c-.0447 0-.076.10971-.076.15001s.1117.07389.152.07389c.0402 0 .1162.43434.1162.60004 0 .1634-.1073.3-.1475.3l.1855 3.4457-.1587 3.0293c.0045.4948.1497 1.2023.2101 1.3859.0625.1836.0067.3336-.0358.3336-.0402 0-.1542.9292-.0424 1.1575.1117.2284.0961.4142.0558.4165-.0402 0-.0737.3246-.0715.4881 0 .1656.1117.3.152.2977.0402 0-.0291.6538-.0671.9001s.038.5217.076.5217c.0402 0 .0805.7612.0849 1.0478 0 .2395-.0603.6358-.1095.7545.0157-.0045.0291-.0045.0403-.0045.0402 0-.0291.5418-.0671.7881-.038.2485.038.4478.0782.4478.0403 0 .0715.4635-.0067.459s-.21.9538-.2011 1.9008c.0067.9493.2011 2.633.2034 2.9218.0022.2866-.1051.412-.1475.412-.0403 0-.0738.1097-.0738.15s.1118.0739.1497.0739c.0425 0 .0872 1.6635.0939 2.3218.0045.6605.2257 1.0881.3084 1.0478.0805-.0425.3129-.6179.3107-.8262 0-.2059.1072-.3761.1452-.3761.0425 0 .0738-.1097.0738-.15 0-.0426-.0514-.2261-.114-.412-.0648-.1836-.0089-.3358.0357-.3358zm.0402-7.187c-.0246.1097-.0492.2239-.0626.2239-.0425 0-.076-.1075-.076-.15 0-.0381.0939-.0717.1408-.0739zm-3.2852-21.54078c-.0358 0-.3553-.39181-.4648-.53734-.1073-.14777-.9476-.64258-1.8594-1.09932l-.9408.40973-.0894.03806c-.2839.30673-.6124.36494-.6481.29106-.0358-.07389-.3554-.13658-.4649-.13881-.1095 0-.2011.09627-.2011.13209s-.0447.02015-.1006-.03358c-.0536-.05598-.1966-.10075-.2324-.10299-.0357 0-.067.09627-.067.13433 0 .03583-.485.06269-.6682.06045-.1833 0-.333-.09851-.333-.13433s-2.474.01567-3.0483.05149l-.0246-.02462-.4559.05821-.3576-.06941-.2726.05374-.619-.01344-.304.06045-.4559-.02463-.2927.07837-3.5757-.02911v-.06941l-.1945-.15224-.2078.00895-.2279-.00448-.4448-.00447-.1944-.00448s-.228.04926-.514.09851c-.181.03135-.3822 0-.5676.02015-.0827.00896-.1587.01567-.228.02015-.1497.00896-2.4114-.13881-2.608-.09403-.0045 0-.0134.00224-.0179.00448l-.0335-.0918-.5341.02015-.7375.1209-11.25-.08284-.6772.02015-2.427.06269-.1162-.10075-.0983.01791-.1319-.09627-.7598-.0918-.5319.12538-2.4985-.12538-.5185.0515-.3397-.09404-.838.06717-.2883.12538-1.0303-.06717-6.3714-.03582-.2503-.13434-.2838.12762-.2973.03135-.0178.06493-.1878.02686-.2503-.02239-.2704-.02462-5.5557-.02239-.42461-.03807-.29276-.06492-.29052-.06493-.48943.1209-.29499.00448-.06705.12985c-.02681.00672-.0514.0112-.06704.0112-.03799 0-.4559-.00672-.60116-.00896-.14527-.00224-.1922.07613-.1922.10523 0 .02911-.19443.0515-.26817.04926-.07375 0-.13409.07612-.13409.10523s-.41791.26195-.55423.29778c-.13409.03582-.30617.20822-.38216.38062-.07374.17463-.36427.63361-.40226.63361s-.06928.92692-.06928 1.27843c0 .35152.19219.7187.26371.74781.07375.03134.03575.82616 0 1.11946-.03799.29106.04022.64929.14526.72318.16314.11418-.10727.23061-.16091.28882-.10727.11195-.09833.29554-.13408.43659-.03576.13658-.05811.23957-.01341.37838.04693.15449.19442.45674.35757.52391.07374.02911.08045.32241-.0447.33811-.12292.0179-.37098.5664-.37321.7702 0 .2059.12068.4545.04469.4769l.14973 3.7748c.09163.2015.22795.3627.3017.3627s.27042-.0515.27042-.0246c0 .0224-.28606.4366-.3911.4881-.1095.0515-.15196.0112-.09609.047.0581.0358.11397.2127.11621.309.00447.0985-.0894.1791-.12739.1791-.03352 0 .03353.2865.07822.4209-.07151.0157-.13185.0313-.15644.0448-.08939.0447-.14749 3.6494-.14079 3.8688.00447.2195.11845.6381.22572.7344.10727.094.09833.1724.06257.1746-.03799 0-.15643.0762-.18996.1859-.03352.1119-.15867.3895-.19442.3918-.038 0 .14526.6761.22571.9291.08045.2553.0447 1.527-.04916 1.8673-.09163.3426.03128.6.10503.6359.12292.0604.05811.2485.00447.3246-.1542.2261-.43579.665-.30393.9538.10503.2261.49389.2664.44025.5844l-.09609.5709c.29052.3448-.18773.6269-.26148.6314-.07151 0-.17431.759-.22795.9582-.0514.2015.01341.3314.0514.3314.03576 0 .0894.4276.09834.759.00894.3291-.08046.6045-.11621.6045-.038 0 .42014.6045.46484.862.04469.2552-.01788.4679-.05587.4702-.03576 0-.25477.2619-.24807.4455.00447.1858-.08715.3359-.12515.3381-.03575 0-.06257.0985-.06257.1343 0 .0381.09833.065.13632.065.03576 0 .08046.4836.08492.6672.00447.1836.10504.3313.1408.3313.03575 0 .25924.4568.27264.6493.01118.1903.31511.4366.42685.4702s.30841.3515.34863.4612c.04023.1075.46261.2844.60787.3179.1475.0314.3598.0112.46931-.047.10727-.0582.1989-.0067.1989.0269 0 .0358.93862-.1433 1.45933-.197.52071-.0515 1.08611.2306 1.11963.1544.03576-.0738.50954-.1388.84476-.0111.33522.1298 3.64493.1388 3.64273.1007 0-.0358.1922-.0716.2637-.0739.0738 0 .1319-.1007.1319-.1366 0-.0358.0961-.0694.1318-.0716.038 0 .0693.0963.0715.1343 0 .0359.7755.0448 1.0683.0381.0313 0 .067-.0045.1005-.0112.1565.159.4604.1343.8895.1724.5453.0493 7.4285.0022 7.4263-.056 0-.0582.1385-.0918.3195-.0962.1811-.0023.3241-.1612.3218-.2195 0-.0582 1.446-.1298 1.4683.0963.0201.2284.7487.2463 1.0168.1836.2727-.0627.4984.0381.5006.0985 0 .0582 1.3499-.047 1.5711-.1164.009-.0022.0157-.009.0224-.0134l.0201.0179h.1408.1788.3307l.2771-.0515h2.3846l.2927.0448h2.4605l.3867-.0695.3285-.0313.4604.0716.0983-.0671.1698.1052.2771.0381.1475-.0381.3263-.0269 10.7964.0292.4603.0358.2436-.0336h.6884l.1139-.0336.1811.0045.1095.0291.038-.0269.2123.0045 3.3186-.0448.3621.0493.2458-.009.3017-.0515.1967.0291.1743-.0067.324-.056.2302.0314.3464-.0426.3263.0157.219-.0089.1833-.0068.1229-.1209 1.8214.0045.3597.0179c.7174-.047 1.1286.0336 1.8304.0493l.21-.0358.1721.0291.0268-.1209-.1274-.206-.2391-.0694-.2972-.0829-.2548-.0716-.2637-.0112-.4291-.1164-.219-.0269-.2346-.0313-.4425-.0157-1.8907-.0067-.257-.0873-.3352-.0739-.3486-.0336-.2369.0157-.3576-.0381h-.2078l-.2771.009-.3084.0044-.1945.0045-.2726.0829-3.3656-.0224-.1922.0649-.0984-.159-.257.1299-.181-.0851-.1542-.0067-.1296.0067-.1251.056-.1766-.0515-.5274.0268-.2168.0359-.1967-.0157-10.8075.0067-.1184-.0336-.2056.009-.2503.0537-.228.0112s-.1028.0067-.1028 0l-.2123-.2127-.3576.0067-.1966.0068-.1296.0514-.3107-.0358-.2257.0067-2.3644.009-.3241.0112-2.2862.0582-.4089-.0649-.5476.0156c-.21-.1343-1.6336-.2216-2.1566-.2104-.8849.0157-.9743 0-1.3006.4523-.0849.1186-1.5733.2664-1.6068.0313-.0693-.4836-5.8083-.4209-7.4822-.3941-.1922.0045-.8134-.0067-.8984.1501-.0245.0447-.038.0783-.0581.1186-.1564-.0582-.3419-.1276-.5386-.2037l-.6972.1948-.0648.0179c-.181.1052-.333.0962-.333.0604s-3.66733-.0918-3.79695 0c-.12962.0873-.24136.065-.24136.0291 0-.0358-.48495-.0537-.66821-.0492-.18325.0045-.11397-.0896-.11621-.1232 0-.038-.59446.253-.74642.3224-.15197.0694-.47825-.0649-.41568-.4343.01341-.0829-.55199-.1187-.73525-.1142-.18549.0045-.42685-.0336-.53859-.0873-.11174-.0538-.20783-.2888-.20783-.3605-.00224-.0739-.1989-.1298-.27041-.1276-.07375 0-.04694-.3873-.01565-.5373.03129-.1478-.13409-.2642-.2056-.262-.07375 0-.1475-.4814-.15197-.665-.00447-.1813-.58328-.5216-.68385-.5955-.09833-.0717-.43132-.1388.08716-.1388.07375 0 .12962-.1008.12962-.1366-.00224-.0358-.09833-.0649-.13409-.0627-.03799 0 .43579-.4858.47601-.7411.03799-.2552-.02681-.3896-.06481-.3873-.03575 0-.08045-.3739-.08492-.5575-.0067-.1836.08716-.2261.12515-.2261.03576 0 .05811-.0717.05587-.1814 0-.1097.09163-.2037.12962-.2037.03576-.0023.03576-1.2807-.10951-1.4912-.14302-.2127-.63468-.3873-.59892-.3895.03799 0 .0514-.5844.04693-.8038s.32181-.468.1542-.5486l.09162-.45c.03576-.1858.06258-.4097-.04022-.5821-.07152-.1209-.01565-.0717-.15197-.0851-.03576-.0045.04246-.4746.13632-.665.09387-.1903-.12514-.4209-.23688-.4925-.11174-.0717.06481-1.527.16761-1.8628.10056-.3336-.01118-.7859-.08269-.7859-.07375 0-.13633.0179-.13856-.0201 0-.0358.09386-.0694.13185-.0694.03576 0-.03799-.1791-.07821-.2911-.038-.1075.12067-.412.19219-.45.12962-.0694.03576-1.0859.03576-1.218 0-.6582-.17208-1.3635-.0961-2.0128.02458-.206.08939-.3873.04023-.6023-.00894-.0492-.038-.1007-.07152-.15-.00447-.0448-.0067-.0851-.00894-.1142-.0067-.1948.08269-.3582.11845-.3582.03575 0 .1028-.2888.00894-.3829-.09163-.094-.07152-.1723-.03576-.1723s.12962-.768.1542-1.0882c.07822-1.0187.02458-2.1426-.0514-3.1569-.10504-1.4306.44026-3.04267-.0447-4.44424-.33969-.55302-.42237-1.00304-.34863-1.00304.07152 0 .038-.3851 0-.53287-.03575-.14553.03129-.26643.06705-.26419.03576 0 .06481-.07613.06481-.10747 0-.02687-.11845-.18583-.16091-.2239-.01117-.00447-.01788-.00447-.01341-.00895 0 0 .00671 0 .01341.00895.02235.00448.06928.00896.0961.00896.03352 0 .29499-.94483.49836-1.11499.19443-.16344 1.13528-.53958 1.70963-.57988l.08269.01119.43578.05598.4939.01791.47601.07388 5.75236.06941.3308.04478.2883-.06941.1989-.04926.0894-.03582.0916-.03806.1408-.04702.543.15001 6.3357-.1209.4827.06045.2839-.01791.0916.21046.257-.0403.8179.04701.5654-.03358 2.4561-.13434.5252.0515.4782-.03806.1095.12986.5319.00447h2.3466l.3598.00448.3128-.07836.2302.08284h.2369 2.3421 8.7872l.2928.00448h.7598l.0067.00671.3196.03359 2.4963.04702.2212-.08285.152-.01791.0224.05598.2815.0403 5.4262-.07165.4134.04478.3665.02015.3352-.04478.3665-.01343.295-.06269.3263.03806h.0693c.0313.02015.0871.03582.114.03582.0134 0 .029-.02015.0424-.04478l.1855-.00671.2592.02015.009-.02239c.7933.00895 3.3813-.03359 3.8461-.06269.5498-.03135 1.1018-.25076 1.1375-.32689.0358-.07388.666-.11866 1.0236.02239.3531.14106.9363.16121 1.0458.12762.1095-.03582.8739.4254 1.1309.60899.257.18583.8514 2.00609.8849 2.63299.0313.6269-.3799.67391-.5207.94483-.143.26867-.1452-.14777-.1832.07164-.0358.19479-.0067.51496.0737.65377l-.0469.05597-.0134.56645.0223.42316-.0067 4.01213.1363.9068c-.1676.5194-.2525.8306-.1877.8329.0626 0 .2324 1.7195.2324 2.3419 0 .6247.1677 1.1351.2325 1.1351s.1162.2351.1162.3225c0 .0873-.1699.1634-.2347.1634-.0514 0-.0737 1.9523-.0156 3.0942l-.1788.1679.0648.3515.1006.3515.0111 2.4293-.0044.141.0044.065v.085l.0023.009c-.0268 0-.0514.0022-.0648.0022-.0738 0-.0313.112.0067.1545.038.0426-.0246.0762-.0626.0784-.0358 0-.0514 3.3629-.0447 3.4882.0045.1277.0603.1993.1207.2911.0581.0918.0112.1702-.0268.1702-.0358 0-.047.1142-.0403.2821.009.1657.1118.3045.1475.3045.0358 0 .0693.0537.0716.0761 0 .0201-.0961-.0717-.1341-.0694-.0358 0-.0604.1657-.0559.2284.0045.0649-.0916.1164-.1296.1164-.0358 0 .038.1679.0782.2306.038.0627-.0246.1164-.0626.1164s-.0626.056-.0626.0761c0 .0224.1989.0157.2727.0381.0737.0202.3062.3985.2525.7209-.0558.3224 0 .5822.0358.5822.0357 0 .0693.0537.0715.0761 0 .0201-.0961.0403-.1319.0403-.038 0-.5453.6202-.5341.8105.009.188.1252.4164.2302.4702.1095.0559.0045.1567-.067.1791-.0716.0224-.1163.4298-.1095.5776.0067.1478-.2638.5978-.4403.7299-.1743.1321-.704.3023-.8492.3269-.1431.0246-.2615.0985-.2615.1187 0 .0223-.7487.1388-1.0816.1544-.3353.0157-.4269.1254-.1989.2508.4469.0963.5452-.1299.7955-.1276.2235 0 .6839.1948 1.2091.0963l.7822-.1478c.6481-.4411 1.3721-.9225 1.3721-.9202 0 0-.2659-.2866-.1139-.5127.1497-.2239.1765-.4075.1407-.4075-.0357 0-.1765-.2776-.219-.3806-.0402-.1053.0224-.1926.0581-.1926.0358 0-.0581-.6112-.105-.8418s.0112-.4232.0492-.4232c.0357 0-.0403-.1679-.0782-.2306-.038-.0604-.076-.1679-.076-.1881 0-.0223.0961-.0425.1318-.0425.0358 0 .0782-.2955 0-.3112-.0827-.0179 0-.5127.0246-.7254.0268-.2105 0-.3493-.0581-.4433-.0603-.0918-.0112-.1724.0268-.1747.0358 0 .0469-.2239.038-.3918-.0067-.1679-.1117-.1925-.1475-.1925-.0357 0-.1967-1.0232-.1676-1.2382.0179-.1433.0313-1.3859.0402-2.1986h.0738l.1877-.1007.0402-.2933-.0089-.3426.0268-.253.0291-.2037-.0202 1.3075.009-.1791.0156-.318.0134-.2798-.0491-2.7136-.0581-.3314s.0402-.1724.0089-.3515c-.0067-.038-.0246-.0716-.0447-.1052.0581-.6672.0939-1.5449.0939-1.968 0-.712-.1766-1.6703-.1118-1.6703l.0559-9.502-.0223-.10299c.1385-.10299.1184-.42988.0938-.68959-.0045.01567-.0089 0-.0089-.06045 0-.0112 0-.02463 0-.03583.0022.03135.0067.06269.0111.09628.0157-.04254.0447-.37167-.0111-.3448-.0134.00672-.0157.04478-.0112.10075-.029-.16792-.0872-.28434-.1162-.28658-.0358 0-.0201-.31569.038-.70302.0581-.3851.2011-.70079.2391-.70079s.0715-.87318.0738-1.20455c.0022-.33136-.1878-.70078-.2615-.7366-.0738-.03583-.228-.45675-.2615-.60452-.0357-.14777-.1654-.26867-.1989-.26867zm-62.42709 17.70548c.01117.0493.02235.0806.03129.0784.03575 0 .0581-.0381-.02906-.0784zm.35757 9.2647s.00447.0045.0067.0089c0 0 0-.0156-.0067-.0089zm63.99812 6.2197c-.219.1904-.391.4434-.3888.4814 0 .0358-.1944.0717-.2659.0739-.0738 0-.2235.1993-.2593.2732-.0335.0738-.3531.1432-.4626.1455-.1095.0022-.2928.2037-.3263.2776-.0357.0739-.5341.1523-.8693.0873-.3308-.0649-.6012-.0201-.6012.0179.0023.0359-.3151-.0671-.6995-.2328l-.505.1299-.0559.0156c-.1877.1075-.3419.1008-.3419.0627s-.485-.056-.6705-.0492c-.1832.0044-.4626.0671-.5587.1209-.0938.0559-.1743.0022-.1743-.0336 0-.0381-.9721-.0403-1.3364-.0314-.3688.0067-.809-.038-.9029-.085-.0961-.0493-.1698.0089-.1676.047 0 .0358-.3866.0761-.5341.0806-.1475.0022-.2704-.0896-.2704-.1276 0-.0381-.3866.0403-.5319.0806s-.2682-.0224-.2682-.0605-1.1665-.1343-1.609-.159c-.4403-.0268-.7979.0515-.7979.0874.0023.0358-.0961.0694-.1318.0716-.038 0-.0693-.0963-.0693-.1343 0-.0068-3.8595.2059-4.7244.2015-.6078 0-1.0794-.2194-1.989-.2217-.3307 0-1.1643.1791-1.5263.1791-1.1443 0-1.9421-.1813-3.2897-.1813-.4425 0-.8939 0-1.3476 0-.3463 0-.657-.253-1.0056-.253-.6682 0-2.2952.253-3.245.253h-.7777c-.5743 0-1.1487.2709-1.7029.2709-.4715 0-3.0326-.2687-3.4841-.2687-.2346 0-.467 0-.695 0-.4849 0-.9475 0-1.3878 0-.2525 0-.5095.1791-.7464.1791-.4358 0-.8358-.1768-1.2068-.1768-.4425 0-.8381 0-1.1711 0-.7173 0-1.1643.0022-1.2403.0044-.5877.0157-1.1062-.103-1.1531-.2664l-.5207.1097-.0336.0067c-.1989.112-.3642.1075-.3642.0717-.0023-.0359-.9722-.0426-1.3387-.0314-.3665.009-.6682-.0806-.6682-.1164s-3.3857-.0269-3.6159.0403c-.2324.0649-.4224.0224-.4224-.0134 0-.0359-.1564.0224-.3464.1298l-.0514.0135-.657.1634c-.4112-.1814-.7464-.2306-.7464-.1948 0 .0381-.0961.0694-.1319.0717-.0358 0-.0693-.0941-.0693-.1321 0-.0359-.2927-.0583-.4022-.056-.1095.0045-.2034-.0918-.2034-.1276 0-.0359-.2905.038-.4.0783-.1073.0381-.1945.168-.1945.206 0 .0358-3.64494.1008-3.92876.0314-.28382-.0717-.51177-.0314-.51177.0044 0 .0359-.38662.0762-.53189.0806-.14749.0045-.27041-.0895-.27041-.1276 0-.0358-1.89735-.4567-2.43817-.4993-.54306-.0403-1.87947-.8194-2.07614-1.256-.19889-.4366-.55646-.7881-.63021-.7859-.07375 0-.15867-.9672-.16761-1.3344-.01118-.3672.08045-.6717.11621-.6739.03575 0 .06257-.0985.06257-.1343 0-.0381-.11174-.5486-.15197-.7322-.04022-.1835.01341-.6246.04694-.7388.03352-.1097-.03576-.1993-.07152-.1993s.01565-.1992.11621-.5328c.06705-.3224.09163-.3963.10057-.4075-.17655-.2597-.22795-.3694-.1922-.3717.038 0 .06034-.0694.05587-.1813-.00223-.112.09387-.2038.12962-.2038.038 0 .05811-.2373-.01341-.2552-.07151-.0179-.14302-1.1083-.14973-1.2919-.00447-.1858.08939-.3381.12515-.3381.03799 0-.04022-.3873-.08045-.5328-.04023-.1456.02235-.2687.0581-.2687.03576 0 .07822-.5396-.00223-.5597-.08045-.0224-.18102-.0829-.19443-.5978-.01341-.515-.12068-.712-.15867-.712-.03576 0 .11174-.4747.17878-.6963.06705-.2239.02682-.403-.01117-.4008-.03799 0-.14079-.8351-.05587-1.0388.08269-.2038.05587-.3672.01788-.3672-.03576 0 .02011-.1814.12291-.4053.01565-.2575-.27488-.291-.22124-.7612.02681-.2396.02905-.2754.03128-.2799-.02681-.1209-.04693-.459-.04916-.5664-.00447-.1456.08939-.2709.12515-.2709.03799 0-.06258-1.1509-.11174-1.6277-.04917-.4769.0067-.871.04469-.8732.03576 0-.02905-.1791-.14526-.3963-.16314-.6807-.16314-.8284-.16314-.8284.17655-.5105.22572-.8172.18996-.815l-.21678-4.7331c-.04469-.2933.01565-.5373.05364-.5373.03575 0-.04246-.4837-.08492-.6695-.04247-.1813.02234-.3336.0581-.3358.03799 0-.0447-.57991-.08716-.79932-.03799-.20151.04246-.38734.05811-.58884.0067-.09628.03129-.37614-.12739-.37614-.03575 0 .02459-.28883.05811-.40301.03352-.11195-.0514-.78139-.09386-1.0008-.04246-.22166.02011-.40301.05587-.40301.03799 0 .05363-.48809.04916-.67168s-.10727-.33136-.14079-.33136c-.03799 0 .1989-.87766.3017-1.2135.10056-.3336.28158-.60899.31734-.60899s.42908-.81721.64363-.96498c.21677-.14777.58775-.27539.6615-.27539s.12738-.19703.12515-.27091c0-.07389.57434-.24628.79559-.28882.21901-.04254.39556-.17464.39556-.21046 0-.03583.87828-.01792 1.95099.04254l.4559.0291c.32181.02015.39556-.2127.39556-.2127l.39109-.06493c.0067.14106.40226.24629.54753.24181.14749-.00448.2637-.10523.26147-.14105 0-.03583 3.22036.01567 3.44386.12314l.6615.12538c.4045-.20151.7375-.26644.7375-.23061 0 .03582.9721.04254 1.3386.03134.3665-.01119 1.4459.06045 1.7409.08732.2928.02911 3.7634-.04926 3.835-.08732.0715-.0403.1363.02687.1363.06269 0 .03583.7732-.05149 1.066-.09403.295-.04478.5363.01791.5363.05149 0 .03806.8694-.05149 1.2001-.09851.3285-.04478.6034.01343.6034.0515 0 .03806.2906-.03807.3978-.07613.0112-.00448.2593-.00895.6883-.01343.2369-.00224.5297-.00448.8694-.00672.2503 0 .5274-.00224.8246-.00672.2146 0 .4381 0 .6749-.00223h.4336c.1274 0 .4537-.08956.5855-.08956.3509-.00224.5207.08508.9006.08284h.5967c.4135 0 .8649-.14553 1.3029-.14553.3129 0 2.7108.13881 3.0371.13657.2794 0 .561-.00224.847-.00224.1877 0 .3755-.00223.5677-.00223.4782 0-1.2761-.10747-.7889-.10971.2883 0 .6883.10075.9788.10075.2883 0 3.6405-.09851 3.9266-.10075.2033 0 .3844.09627.5877.09403.3129 0 .5386-.11642.8448-.11642.3374 0 .7576.11194 1.0839.10971.3307 0 .6592 0 .9788-.00224.2414 0 .4805 0 .7174-.00224.2927 0 .5408-.10299.8224-.10523.2972 0 .6302.10075.9096.09851.3799 0 .7442 0 1.0861-.00448 1.9264-.00671 6.2507-.01119 6.3267-.01343.3308-.00896.6034.0806.6034.11866 0 .03583.5788-.04478.7978-.08732.2191-.04253.4023.02016.4023.05598s.4805.0806.5229 0c.0425-.0806 1.4303-.18359 1.9466-.19703.514-.01343.9319-.12314.9296-.15896 0-.03806.3867.02015.5364.05149.1475.03359.2659-.03806.2659-.07164 0-.03806.7733-.08956 1.066-.096277.2928-.008955 2.4516-.441069 3.0506-.394052.5967.047018 1.0883.279867 1.0905.351513 0 .073886.2191-.049257.2124-.058213-.0068-.006716.2033-.197026.1944-.205981-.0067-.006717-.7017-.385097-.9632-.526149-.2593-.13881411-2.0203-.1186637-2.6058-.0649293-.5878.0514953-1.0727-.002239-1.0727-.0403009 0-.0358229-.3799-.0582121-.3866.0134337-.0045.0716455-.5945.0492565-.8135.0179114-.2213-.031345-.4.0403011-.4.0783621 0 .035823-.4828.078363-.666.082841-.1833.006717-.4626-.040301-.5609-.089557-.0961-.0492568-.1744.006716-.1744.044778 0 .035823-.8246.14777-1.0302.060452-.2056-.087319-.3732-.060452-.3732-.024629 0 .013434-5.8887.114186-9.7259.141053-.5408.002239-1.1062-.073885-1.6806-.069407-.1743 0-.3464.002239-.5207.004478-.371.002239-.7598-.087318-1.1286.008956-.4.100752-.8201.004478-1.2358.006717-.2682 0-.5341.004477-.8045.004477-.2682 0-.4984-.064929-.7688-.06269-.2637 0-3.6003.071646-3.8618.073885-.1855 0-.3709.002239-.5542.004478-.3866 0 1.361.004478.9811.006717-.3419.002239-.6258.129858-.9655.132097-.2592 0-.5721-.123142-.8246-.120903-.0872 0-.1743 0-.2615 0-.219 0-.4358 0-.6503.002239-.3598.002239-2.8181.004478-3.1667.006717-.2414 0-.4805.107469-.7152.109708-.3553 0-.7062-.098513-1.0436-.096274-.1162 0-.2302 0-.3464.002239-.2078 0-.4112.002238-.6101.004477-.1296 0-.2168.087319-.3442.089558-.2704 0-.5743-.082841-.8246-.080602-.2101 0-.438-.076123-.6325-.076123-.1966 0-.3598.08284-.5408.08284-.6213.004478-1.142.008956-1.542.015672-.4246.002239-.7107.006717-.8336.011195-1.4325.038062-2.608-.029106-2.608-.064929s-.0983-.064929-.1341-.06269c-.0357 0-.0648.098513-.0626.136575 0 .035823-.3866.078362-.5341.080601-.1475.004478-3.3075-.089557-3.3075-.12538s-.1788.026867-.3978.143292l-.4693.053734c-.5162-.120902-.9364-.120902-.9342-.085079 0 .035823-.0938.069407-.1318.069407-.0358 0-.0693-.094035-.0693-.132097 0-.035823-.8738-.04254-1.2045-.035823-.3308.008956-.6034-.080602-.6034-.116425 0-.038061-.2906.038062-.4001.076124-.1072.040301-.2011-.024628-.2011-.060451 0-.038062-3.32764.038062-3.43714.078363-.10951.038061-.20114-.026868-.20337-.062691 0-.035823-.87381-.044778-1.20233-.035823-.33075.008956-.6034-.080601-.60563-.118663 0-.035823-.28829.038062-.40003.078363-.10951.0403-.20113-.024629-.20113-.060451 0-.038062-.58329-.051496-.8023-.047018s-.39779.107469-.39556.143292c0 .038062-.57881.08284-.80006.087318-.22125.006717-.3978.107469-.3978.145531 0 .035823-.38215.172397-.52741.212698s-.35757.270911-.39333.347035c-.03352.07388-.58552.56869-.60786.63362-.02235.06717-.18326.2418-.35757.39405-.17208.15001-.7509.95826-.78889.9605-.03576 0-.06034.19479-.06034.26867.00224.07389-.09386.13658-.12962.13658-.03799 0-.05363.58436-.04693.80601.0067.21942-.181019.50376-.252533.54406-.071514.03807-.138558.32689-.062574.3045.075983-.02239.149732.44555.154201.62914.00447.18359-.089392.33584-.125149.33808-.035757 0-.082688.46346 0 .51047.082688.04702.058105.28435.024583.35823-.033522.07613-.015644.22837.042461.33584s.006705.19703-.029052.19927c-.035757 0-.051401.58436-.044696.80377.004469.15225-.067045.27987-.049166.42988.026817.18135.087157.30226.069279.48585-.015644.18359-.015644.36718-.037992.55078-.046931.38733.013409.70303.051401.70083.035757 0-.026818.1947-.06034.2686l.140793 4.4734c.011174.4411-.075984.5821-.11174.5844-.037992 0 .035757.4388.075983.5485.040227.1097.029052.2239-.020113.3918-.051401.1679.004469.3023.040226.3.035757 0 .006704 1.5068-.015644 2.024s-.008939 2.2009.002235 2.6778c.013409.4791-.073748.8351-.109505.8374-.037992 0 .037991.291.075983.4007.040227.1097-.024583.2015-.06034.2015-.037991 0-.05587.4881-.049165.6695.004469.1858.105036.3336.143027.3313.035757 0 .069279.0963.071514.1321 0 .0359-.096097.0694-.131854.0694.049166 0-.183254 1.5539-.181019 1.668.00447.1456-.089392.3068-.127384.3068-.035757 0-.040227.3806.029052.5306.069279.1478.029053.2732-.006704.2754-.035757 0-.040226 1.068-.026818 1.4732.00894.4053-.078218 1.3299-.113975 1.3299-.035757.0023-.062574.1008-.062574.1366 0 .0381.098331.0649.136323.0649.035757 0-.020113.168-.053636.3157-.031287.1478.026818.1187.136324.0694 0 0 0-.1119.011174.1724.013409.3739.017878.4747.020113.4993-.216776.2217-.299464.4008-.263707.3985.037991 0 .098332 1.0882.109506 1.5292.011174.4411-.029053.9337-.078219 1.0322-.049165.0985.006705.1769.042462.1746.035757 0 .071514.1926.073748.2665 0 .0738.098332.132.136323.132.037992 0 .058105.3941 0 .6113s-.008939.394.026818.3918c.035757 0 .071514.1925.073749.2664 0 .0739.100566.1321.136323.1321s.078218.3874.082688.5329c.004469.1478.20337.3605.27935.3963.07375.0336.14079.2552.14303.3291 0 .0739.1989.2261.27264.2597.07375.0358.1408.2575.14303.3314 0 .0739.0961.2216.20784.3291.11397.1075.40003.1903.47154.1881.07375 0 .33746.2821.41121.3918.07822.1097.33298.1903.4045.1903.07375-.0022.33522.2821.4112.3896.07599.1097.52742.188.67491.1836.14527-.0023.26818.0918.27042.1276 0 .0358.29276.0604.40226.056.11174 0 .20337.094.20337.1298s1.55095.0246 2.14094.009c.58776-.0135 1.06377-.1254 1.06377-.1612 0-.0359 4.9724-.1165 5.7055-.1366.7352-.0202 1.3341-.1321 1.3319-.1702 0-.0358.8157-.1768 1.0258-.0806.2101.0985.3777.0806.3754.0426 0-.0359 4.4875-.1053 5.0395-.1187s1.6761-.1411 1.9331-.1836c.2548-.0448.4671.0179.4693.0537 0 .0068.3017.009.8381.0112.3352.0023.8626.2553 1.3632.2575.3911 0 .7241-.2485 1.1979-.2485h.8246c.2816 0 1.0482.0784 1.3476.0784.4179 0 .3732-.0762.8202-.0762.5475 0 3.6517-.141 4.2327-.1388.4 0 .371.1411.7822.1411h.0425c.7084-.0112 4.5254-.2306 5.0752-.2306.3799 0 .3643.2306.7397.2306.5587 0 1.2403-.2306 1.7789-.2306.3241 0 .5118.2306.8247.2283.3553 0 .8783-.0985 1.2157-.0985.2816 0 .3822.0985.6526.0985h.9967c.5229 0 .847.2463 1.2761.2441 1.2828 0 5.2987-.2508 5.3993-.2553.552-.0134 1.0414.1053 1.0906.2665l.5162-.1075c.219-.1142.3978-.1119.3978-.0761 0 .038.6771-.047.9319-.0918.105-.0179.2302-.0314.3308-.0023.0536.0135.1206.0739.1542.0829.2793.0672.5765-.0314.8559-.0157.286.0134.5766.0202.8649.0112.3665-.0089.6726.0806.6726.1164 0 .0359.7733-.0515 1.066-.0962.2928-.0426.5364.0179.5364.0515 0 .038 2.1052.244 2.9209.0671.8157-.1724 2.2393-1.0165 2.5276-1.2829.286-.2642.8157-.9135.8492-.9806.0313-.0627.0514-.4053.0469-.515 0-.1097-.5721.3-.7866.4881zm-30.9319 2.0957c-.0157 0-.0291 0-.0425 0 .1676 0 .3218 0 .0425 0zm31.3387-34.74824c.0804 0 .295-.32688.295-.45226 0-.12314-.219-.22165-.2995-.22165-.0827 0-.1475.32688-.1475.45002s.0693.22613.1542.22389zm-.9074-1.58292c.2861.12986.5185.13657.5185.01119 0-.12314-.1117-.44778-.1519-.44778-.0403 0-.0738.10971-.0738.15001s-.1073.07612-.1475.07612-.076-.21718-.076-.30002-.1899-.36942-.2816-.44778c-.0938-.08061-.2793-.14553-.3218-.1433-.0402 0 .2503.9717.5364 1.10156zm.6012.91124c.0425 0 .1475-.32688.1453-.45226 0-.12314-.1095-.22389-.1498-.22389-.0424 0-.0737.32688-.0715.45226 0 .12314.0358.22389.076.22389z"/><path clip-rule="evenodd" d="m16.2177 11.8821c-.038-.0962-.152-.1925-.2548-.2104 0 0-.8358-.15-1.3811-.1366s-1.2805-.0157-1.2805-.0157c-.1051-.0044-.1967-.0918-.2056-.197 0 0-.0514-.6247-.0514-1.0344s.0938-1.10377.0938-1.10377c.0134-.10299-.0603-.19255-.1631-.19479 0 0-.7621-.03134-1.2046-.03134s-1.1397-.02463-1.1397-.02463c-.1051-.00448-.1922.02239-.1967.06045s0 .15449.0089.25748c0 0 .0604.66496.0604 1.0926 0 .4276-.105.9986-.105.9986-.0179.103-.1207.1903-.2235.197 0 0-.75986.0492-1.2761.0492s-1.40793-.0537-1.40793-.0537c-.1028-.0067-.19443.0739-.20337.1769 0 0-.05363.6381-.04246 1.0747s.03129 1.0791.03129 1.0791c.00223.1053.08939.1903.19442.1903 0 0 .48719 0 .85147-.0111.36427-.0068.87381.0895.87381.0895.1028.0202.16984.1187.15196.2217 0 0-.2637 1.4374-.34863 2.2635-.08045.8038-.07822 1.6255-.1542 2.4449-.07375.8128-.1609 1.6255-.23242 2.4382-.06928.7949-.33075 1.5718-.40003 2.3509-.07151.8016-.12962 1.5941-.20337 2.3666-.07821.8127-.19219 2.2277-.19219 2.2277-.00894.1052.06928.1881.17432.1881 0 0 .78218-.0067 1.2269-.0067.44473 0 1.13753-.0291 1.13753-.0291.1028-.0045.1944-.0941.2011-.1971 0 0 .0961-1.4015.1676-2.2053.0693-.7971.1811-1.5941.2526-2.3912.0692-.7926.0983-1.5852.181-2.3643.0849-.7993.3419-2.1449.3419-2.1449.0201-.103.1185-.2015.2213-.2172 0 0 .4246-.0694.7576-.0828.3329-.0135.619.1298.619.1298.0939.047.1721.1702.1743.2732 0 0 .038 1.3926-.0313 2.1695-.0715.7881-.143 1.574-.2235 2.3554-.0804.7791-.2033 1.5515-.2793 2.3352-.0738.7746-.2637 2.1583-.2637 2.1583-.0157.1052.0581.1948.1609.2037 0 0 .7196.0672 1.1643.0672.4448 0 1.2225-.0291 1.2225-.0291.105-.0045.1966-.0918.2033-.1948 0 0 .0939-1.2224.1542-1.9076.0604-.6784.0403-1.3679.1073-2.0508.0693-.6829.1564-1.3613.2257-2.0397.0693-.6627.1743-1.3187.2369-1.9725.0648-.6672-.0045-1.3389.0447-1.9882.0514-.6716.2525-1.8739.2525-1.8739.0179-.103-.0536-.1814-.1586-.1769 0 0-1.4214.0716-2.1991.0851-.7777.0134-1.9778-.103-1.9778-.103-.105-.009-.1899-.103-.1944-.2082 0 0-.0134-.6628.0246-1.068.0357-.4075.2324-.8866.2324-.8866.0402-.0963.1564-.1792.2615-.1836 0 0 1.2224-.0448 1.9331-.0448.7106 0 1.9443.0269 1.9443.0269.105 0 .1966-.0806.2056-.1859 0 0 .0536-.6694.0648-1.106.0089-.4366-.1676-.9045-.1676-.9045zm2.0873 4.0727c.4537-.0112 1.1442.0134 1.1442.0134.1051.0045.219-.0739.2548-.1724 0 0 .152-.4097.2011-.7523.0492-.3448.1475-.7142.1475-.7142.0268-.1008.1341-.1858.2391-.1858 0 0 1.0996-.0224 1.7566-.0224s1.3141-.1164 1.9711-.1164 1.3141.1276 1.9711.1276 1.7431-.1008 1.7431-.1008c.1051-.0112.1922-.103.1967-.206 0 0 .0268-.5664.0268-.9739s.0313-1.0881.0313-1.0881c.0045-.1052-.076-.1881-.181-.1881 0 0-1.1174.0134-1.77.0202-.6391.0067-1.285.0291-1.9241.0358-.628.0067-1.2538.0716-1.8616.056-.6414-.0157-1.6761-.1389-1.6761-.1389-.1028-.0134-.1699-.1052-.1475-.2082 0 0 .1318-.6112.1989-1.0075.0648-.39629.0961-1.0814.0961-1.0814.0044-.10299.0067-.20374 0-.22389-.0045-.02015-.0917-.02911-.1967-.02463 0 0-.6637.03582-1.0906.03582-.4268 0-1.0503.04702-1.0503.04702-.1028.00895-.2124.09627-.2414.19702 0 0-.2592.88886-.3531 1.45756-.0894.562-.1609 1.1306-.2458 1.6993-.085.5732-.1632 1.1464-.2459 1.7218-.0849.5754-.1341 1.5157-.1341 1.5157-.0067.1053.0738.2015.1766.215 0 0 .5051.0694.9587.0582zm3.75 5.0376c0-.8464-.038-2.342-.038-2.342-.0022-.103.0738-.2194.1699-.2552 0 0 .552-.2105.9229-.3739.3732-.1634.8805-.4948.8805-.4948.0872-.056.1587-.112.1587-.1231 0-.009 0-.1053 0-.2083 0 0-.0089-.6963.0134-1.1642.0246-.468-.1676-.9001-.1676-.9001-.0424-.094-.152-.1343-.2458-.0873 0 0-.923.4724-1.4862.7389-.5564.2642-1.1174.5306-1.685.7814-.5676.253-1.142.4903-1.7029.7522-.5677.262-1.4526.768-1.4526.768-.0894.0515-.1744.1791-.1878.2821 0 0-.076.5866-.076.9963v1.0926c0 .1052.0783.1545.1721.1097 0 0 .59-.2731.9074-.45.3195-.1791.9654-.3627.9654-.3627.1006-.0269.1743.0336.1676.1366 0 0-.1006 1.3232-.1006 2.0598s.1207 1.4754.1207 2.2165-.0693 1.4755-.0693 2.2143c0 .7389-.0335 2.0599-.0335 2.0599-.0022.1029.0805.197.1833.2059 0 0 .7665.0717 1.1665.0627.4001-.0089 1.1577-.0985 1.1577-.0985.105-.0112.1832-.1075.1788-.2127 0 0-.0716-1.4934-.0716-2.3397s.0671-1.6881.0671-2.5344c0-.8464.0871-1.6882.0871-2.5345zm5.9647-3.0786c-.0156-.0112-.038-.0134-.0693-.0044-.0581.0179-.1139.0514-.1721.0761-.1095.047-.2167.094-.3262.1433-.3867.1724-.7688.356-1.1487.5395-.3799.1814-.7599.3628-1.1442.5352-.9565.4298-2.6192 1.2761-2.6192 1.2761-.0917.0471-.1408.1657-.1073.2665 0 0 .409 1.1754.6324 1.8449.2235.6604.5565 1.2896.771 1.9613.2146.6716.4202 1.3478.637 2.0172.219.674.5095 1.8875.5095 1.8875.0246.1007.1296.1858.2324.188 0 0 .628.0135 1.0906-.0044.4626-.0202 1.2604-.0314 1.2604-.0314.1051-.0022.1677-.0851.1431-.1881 0 0-.257-1.0299-.447-1.6053-.1922-.5866-.4894-1.1351-.6861-1.7172-.2011-.5889-.3821-1.1912-.5564-1.8046-.1677-.5889-.3643-1.6546-.3643-1.6546-.0179-.103.0424-.2239.1385-.2664 0 0 .637-.2978 1.0392-.4814.4023-.1836 1.0884-.4209 1.0884-.4209.0983-.0336.181-.1478.1832-.2508 0 0 .0201-.656.0201-1.0635 0-.1321-.0111-.2597-.0201-.3918-.0201-.2395-.0491-.4746-.0558-.712 0-.0515 0-.1074-.0336-.1298zm9.4666-4.3726c.1029.0089.1967-.0672.2079-.1702 0 0 .0492-.4545.038-.8194-.009-.365.0558-.8866.0558-.8866.0135-.103.009-.1971-.0067-.2083-.0178-.0111-.1162-.0156-.2212-.0089 0 0-1.1241.056-1.7811.056-.6571 0-1.3163.0022-1.9711.0022s-1.3141 0-1.9711 0c-.6571 0-1.7544.0179-1.7544.0179-.105 0-.2011.0873-.2145.1903 0 0-.0514.3986-.0514.7187 0 .3202.0335.7725.0335.7725.0089.1052.1006.188.2034.188 0 0 .8202-.0045 1.2872-.0268.4671-.0202 1.1577.1276 1.1577.1276.1005.0224.1922.1231.2011.2283 0 0 .1117 1.2538.1117 1.9905v2.2165c0 .7388-.067 1.4755-.067 2.2143 0 .7389-.0067 2.0262-.0067 2.0262 0 .1053.0827.1993.1877.2105 0 0 .4716.0515.8805.0515.409 0 .9208-.0425.9208-.0425.1028-.009.1854-.103.181-.206 0 0-.0559-1.312-.0626-2.0733-.0067-.7478.0156-1.5023.0089-2.2501-.0067-.7366.0671-1.4665.0827-2.183.0157-.7478.0827-1.968.0827-1.968.0067-.1052.0939-.2015.1967-.2172 0 0 .4983-.0738.9788-.0515.4783.0202 1.2895.0963 1.2895.0963zm8.2085 5.2413c-.219-.6134-.5274-1.1956-.7464-1.8113-.219-.6112-.2995-1.2739-.523-1.8829-.2235-.6112-.4626-1.2157-.6928-1.8225-.2324-.609-.7285-1.6031-.7285-1.6031-.0469-.0918-.0738-.1746-.0581-.1836.0156-.0067-.0581-.0089-.1632-.0022 0 0-.3419.0224-.6101.0224-.2681 0-.6369-.0314-.6369-.0314-.1028-.0089-.2212.0605-.2637.159 0 0-.4313 1.0232-.6704 1.6277-.2369.5978-.371 1.2381-.599 1.8449-.2279.6045-.4961 1.1933-.7173 1.8023-.2235.6157-.447 1.2337-.6638 1.8539-.2167.6179-.514 1.209-.7285 1.8314-.2146.6202-.552 1.7128-.552 1.7128-.0291.1007.029.1769.1363.1746 0 0 .5922-.0224.9654-.0224.3733 0 .923.009.923.009.1051 0 .2257-.0739.2704-.1702 0 0 .2012-.4365.304-.7791.105-.3426.2927-.7881.2927-.7881.0403-.0963.1587-.1791.2637-.1858 0 0 1.0526-.0583 1.6739-.0583s1.6515.112 1.6515.112c.1028.0112.2168.1007.2548.197 0 0 .1475.3963.257.7165.1073.3201.2771.7881.2771.7881.0358.0985.1497.1858.2525.197 0 0 .5923.0582.9834.0582s.9855-.0582.9855-.0582c.1028-.009.1587-.0985.1229-.197 0 0-.3888-1.0456-.6123-1.6613-.2213-.6135-.4291-1.2314-.6503-1.8471zm-3.5221-.2194c-.4089 0-1.0883.0627-1.0883.0627-.1028.009-.1609-.0627-.1252-.1612 0 0 .3621-1.0344.5699-1.6143.2034-.5776.5364-1.5538.5364-1.5538.0335-.0985.105-.1075.1586-.0179 0 0 .514.8553.7085 1.4598.1944.6067.3687 1.6702.3687 1.6702.0179.103-.0536.1836-.1587.1791 0 0-.5564-.0268-.9676-.0268zm13.5296-1.003c-.2369-.2508-.5342-.6538-.5342-.6538-.0603-.0828-.0536-.2149.0179-.2888 0 0 .7643-.8127.8738-1.5046.0157-.0985.0268-.197.038-.2978.0782-.7993-.0134-1.6724-.4045-2.1963-.6145-.8262-1.7677-1.1061-3.0617-1.1777-.6525-.0358-1.3543.0291-2.0582.0425-.6928.0134-1.8706.0426-1.8706.0426-.105.0022-.2234.0201-.2659.038l-.0358.0515c-.0357.0515-.0804.0873-.0804.1791v2.642c0 .8799.0559 1.762.0559 2.6419s-.0805 1.762-.0805 2.6419.0179 2.4405.0179 2.4405c0 .1052.0871.1992.1899.2127 0 0 1.0504.1276 1.7007.1612.6437.0336 1.2962.0112 1.9153-.0045.6749-.0201 1.323-.0895 1.8951-.2328.8961-.2217 1.5666-.6583 1.9666-1.3703.3308-.5843.2838-2.2098.2838-2.2098-.0044-.103-.0402-.2664-.0804-.3627 0 0-.2302-.5262-.4805-.7903zm-5.1535-3.8286c.0067-.103.0961-.1948.2011-.2015 0 0 1.2202-.0739 1.8572-.0157.6346.0582 1.2023.6023 1.2023.6023.076.0716.1497.2149.1654.3179 0 0 .0491.3403 0 .5418-.047.2016-.1364.4008-.1364.4008-.0447.0941-.1609.2015-.257.2373 0 0-.7933.2933-1.4191.3225-.628.0313-1.4258-.0739-1.4258-.0739-.105-.0135-.1899-.1097-.1944-.2127 0 0-.0246-.5866-.0246-.9784 0-.3919.0335-.9426.0335-.9426zm3.3902 6.2332c-.0402.0963-.1542.2037-.2525.2418 0 0-.7174.2731-1.3007.3134-.5833.0381-1.656.018-1.656.018-.105 0-.1922-.0874-.1944-.1926 0 0-.0246-.6896-.0246-1.1329s.038-1.106.038-1.106c.0045-.1053.0961-.1926.1989-.1993 0 0 1.0526-.0515 1.6448-.0201.59.0313 1.2694.338 1.2694.338.0938.0426.2101.1545.2547.2486 0 0 .2146.441.2146.7366 0 .2955-.1967.7545-.1967.7545zm6.8966-5.6914c0-.8172.0112-1.6322.0134-2.4494 0-.0515.0224-.1365-.0201-.1724-.038-.0313-.1117-.0313-.1564-.0335-.1274-.0068-.2481-.056-.3732-.065-.1721-.0134-.3509-.0201-.523-.0201-.3509 0-.6838-.009-1.0235.0851-.1006.0268-.181.1343-.181.2395 0 0 .0156 1.6277.0156 2.5255v2.6957c0 .9001.076 1.7979.076 2.6957s.0357 2.4762.0357 2.4762c0 .103.0894.1881.1945.1881 0 0 .5251-.0045.9229.0045.4001.0112.8113-.0627.8113-.0627.1028-.0179.1877-.1187.1877-.2239 0 0 .0134-1.5919.0134-2.4919 0-.9001.0916-1.7956.0916-2.6957s-.0871-1.7956-.0871-2.6957z" fill-rule="evenodd"/><path clip-rule="evenodd" d="m32.1987 25.0448c.2436-.0403.4649-.009.6437.1701.1452.1456.3508.3941.4447.5732.2056-.0627.5006-.0157.6838-.1388.1297-.0873.0827-.1187.0447-.2373-.0536-.1657-.105-.3403-.1631-.5083-.0782-.2194-.2146-.3627-.371-.4903-1.1688-.9381-2.1745-.3067-2.6818.7859-.248.5396-.3508 1.1821-.3017 1.7934.0514.6291.2481 1.2493.7107 1.659.6168.2754 1.3454.2799 1.9018.0582.3062-.1209.5811-.3291.7465-.6202.0938-.1634.3396-.5776.1475-.7567-.0939-.0851-.2302-.065-.3442-.0672-.0849-.0022-.1833-.056-.2637-.0448-.1609.0179-.2503.2486-.3576.3515-.2145.2015-.4112.3941-.8358.3851-.5006-.1992-.7464-.8709-.742-1.5336.0023-.6628.2526-1.2941.7375-1.377zm5.8038-.9717c-.1408 0-.371-.0649-.4738.0627-.0514.0627-.0446.1612-.0424.2351.0045.1007.0179.2037.0089.3045-.0089.0985-.0156.1992-.0156.2977.0067.2821.038.5665.0223.8486-.0111.2194-.1698.1612-.3352.1724-.1609.009-.3173.0269-.4782.0313-.1319.0023-.266.0045-.3978-.0112-.0805-.0111-.2101-.0156-.2749-.0716-.0939-.0784-.038-.262-.0335-.3694.0111-.1769.0268-.356.0268-.5351 0-.1993-.0157-.3986-.0224-.5978 0-.0493-.0067-.1008-.0067-.15 0-.0269.0134-.0694.0045-.0918-.0246-.065-.1296-.0582-.1855-.065-.076-.0112-.152-.0179-.2279-.0201-.1274-.0045-.2861 0-.4917.0381-.1252.6918-.0849 1.406-.0738 2.2344.0135.8284.0068 1.6814-.029 2.4628.1631 0 .3598.0202.5229.0202.1632 0 .3397-.0179.5029-.0179.0268-.3157.0089-.6986 0-1.0523-.0045-.1679-.0224-.3426-.0045-.5105.0112-.0896.0268-.1948.0603-.2799.038-.0918.1073-.0918.1989-.0962.2034-.0135.409-.0426.6124-.0515.1542-.0068.3218-.0224.4715.0246.2168.0694.1632.3493.1542.5261-.0089.168-.0179.3381-.0179.506 0 .309.0269.618.0269.9247.1631 0 .3285-.0336.4916-.0336.1632 0 .2973.0291.4604.0291-.0335-.7813 0-1.6254.0112-2.4561.0022-.188.0067-.3761.0067-.5664 0-.3247-.009-.6493-.0313-.974-.009-.1522-.0246-.3044-.0447-.4567-.009-.0649-.0134-.1231-.0112-.1881.0022-.0515 0-.1142-.0603-.1276-.0961-.0224-.228 0-.3285 0zm3.7165.1075.0268-.0045c-.1452 0-.2883-.0291-.4358-.0291s-.2905.0224-.4357.0224c-.2302.8194-.5006 1.5851-.7934 2.3419-.2861.7388-.695 1.5426-.8157 2.3285-.0045.0291.6749.0403.7442.0336.0559-.0045.1274-.0045.1765-.0247.1185-.0447.0604 0 .1207-.103.0581-.0962.0671-.2127.0983-.3201.0425-.1545.0984-.3247.2503-.3694.2347 0 .4716.0246.7085.0246s.4805-.0246.7151-.0246c.1162.2306.0693.7231.3553.8306.2414.0918.5431.0246.7867-.0246.1587-.0314.1676-.0269.1274-.1948-.0291-.1254-.0849-.2373-.1252-.356-.0715-.2105-.1475-.4209-.2257-.6269-.1497-.3941-.3062-.7814-.4536-1.1754-.2883-.7635-.5766-1.5248-.8247-2.3263zm-.4067 3.0628c-.1431 0-.3151-.0201-.4582-.0201.0269-.2597.1475-.4881.2235-.7008.0782-.2127.1363-.4456.2302-.6448.1274.1612.2078.3873.2794.6067.0715.2172.1251.4478.143.7187-.143 0-.2727.0381-.4179.0381zm5.911-3.0875c-.1609 0-.3508.0045-.5117.0045 0 .4165.0313.8418.0313 1.2583 0 .4164-.009.8329-.009 1.2493-.3553-.3493-.6593-.7567-.9319-1.1889-.2726-.4321-.5252-.8799-.8112-1.2985-.1453 0-.2816-.0314-.4246-.0314-.1431 0-.2883.0246-.4336.0246h-.0134c0 .777.0045 1.5561.0045 2.3353 0 .7791.0424 1.5515.0424 2.3307.1453 0 .257.0112.4023.0112.1452 0 .2726-.0112.4179-.0112.0291-.5172.0447-.9426.0425-1.3411-.0023-.3986-.009-.7881.0804-1.1777-.0022.0179.1408.15.1587.1701.0559.065.1095.1299.1587.1993.1028.1388.1921.2844.2882.4299.1431.2149.3353.347.4694.5776.143.2418.3218.4635.4447.7142.0938.1859.1095.318.3196.4277.0737.038.762.0895.762.0045 0-.7792-.0044-1.5561-.0044-2.3375s.0089-1.5583.0089-2.3374c-.1609 0-.3285-.0135-.4917-.0135zm5.4641.0179c-.143 0-.2726-.0313-.4179-.0313-.1452 0-.2748.0313-.4201.0313 0 .4366.0089.8643.0089 1.2986 0 .4344-.0201.8822-.0201 1.3165-.3821-.3605-.6905-.8105-.9766-1.2672-.286-.4568-.5498-.9314-.8716-1.3523-.143 0-.2883.0044-.4335.0044-.1453 0-.2883-.0335-.4336-.0335l-.0067.0291c0 .7791-.0268 1.5583-.0268 2.3374 0 .7321-.0268 1.4688 0 2.1986 0 .0739-.0045.1612.0782.1814.0738.0179.1766-.009.257.0067.2213.0381.4716-.1007.6883-.0403 0-.4187-.0156-.8373-.0156-1.256v-1.2538c0 .0179.228.1701.2548.197.0827.0806.1564.1724.2257.2664.0938.1299.1721.2486.2771.3672.2749.3023.4783.609.6928.9516.1475.235.2704.6045.5229.7276.1744.0851.4671.047.6526.0134v-2.3553c0-.7769-.0358-1.5561-.0358-2.333zm4.5568 3.9271c-.2637-.1164-.6123-.1365-1.0034-.1253-.3889.0089-.8135.0514-1.1643.0223.0335-.1477-.0112-.3851-.0224-.5798-.0134-.1926.0134-.3986.1386-.4545.2905 0 .5855.0067.8738.0067s.5698.0089.8581.0089c0-.1634.0291-.3089.0291-.4746s-.0201-.3247-.0201-.4881c-.2905-.0358-.6526-.0314-.99-.0179-.3375.0134-.6459.0291-.8448-.0963.0045-.159.0045-.3291.0112-.4881.0044-.159.0067-.2955.0916-.3716.3442 0 .6861.0268 1.0302.0268.3442 0 .6839-.0403 1.0281-.0403 0-.1433.029-.2798.029-.4254 0-.1455-.0335-.2619-.0335-.4075-.523 0-1.0414-.0447-1.5644-.0447-.5229 0-1.0235.0335-1.5353.0358h-.0134v.038c.0291.7658-.0045 1.5942-.0156 2.4002-.0135.8261-.0179 1.6232.1072 2.315.4917-.0336 1.0392-.0201 1.5756-.0089.5363.0112 1.0459.0291 1.4481-.0941 0-.1276-.0268-.2507-.0268-.3761s.0134-.2351.0134-.3627zm-3.1287-3.9091h.0246v-.0224zm7.3927 3.8755c-.2436-.1164-.6548-.0828-1.0503-.0582-.3956.0269-.8135.0717-1.0549-.0268 0-.6336.0514-1.2762.0514-1.9121 0-.6358-.0201-1.2695-.0201-1.9031-.1631 0-.3307.0135-.4939.0135-.1631 0-.3262-.0314-.4894-.0314l.0246.0202c0 .797-.0514 1.5941-.0514 2.3911v2.4091c.5073 0 1.0414-.0447 1.5442-.0447.5029 0 1.0191.0492 1.5264.0492 0-.1455.0469-.309.0469-.4567 0-.1478-.0357-.3068-.0357-.4501z" fill-rule="evenodd"/><path d="m69.1848 38.0329v.1679h-.4715v1.2359h-.1922v-1.2359h-.4715v-.1679z"/><path d="m69.3546 38.0329h.2704l.4045 1.1866.4-1.1866h.2704v1.4038h-.181v-.8284c0-.0291 0-.0761 0-.1411 0-.0671 0-.1366 0-.2149l-.4 1.1844h-.1877l-.4045-1.1844v.0425c0 .0358 0 .0873.0022.159 0 .0694.0022.1231.0022.1545v.8284h-.181v-1.4038z"/></g></svg>