<?xml version="1.0" encoding="UTF-8"?>
<svg width="180px" height="23px" viewBox="0 0 180 23" version="1.1" xmlns="http://www.w3.org/2000/svg" xmlns:xlink="http://www.w3.org/1999/xlink">
    <!-- Generator: Sketch 61.2 (89653) - https://sketch.com -->
    <title>Combined Shape</title>
    <desc>Created with Sketch.</desc>
    <g id="homepage" stroke="none" stroke-width="1" fill="none" fill-rule="evenodd">
        <g transform="translate(-28.000000, -31.000000)" fill="#000000" id="Combined-Shape">
            <path d="M73.6265361,31 C78.7916001,31 80.907752,32.951604 80.907752,35.007024 C80.907752,36.600896 80.071328,37.646428 78.2265441,37.646428 C77.2340321,37.646428 76.2877708,37.2040442 76.0897437,37.1057367 L76.0519281,37.086536 C76.0519281,37.086536 76.5143841,36.1148 76.5143841,35.0375 C76.5143841,33.54562 75.1986561,32.455932 73.6245921,32.455932 C71.6049202,32.455932 70.8503602,33.948192 70.8503602,35.151424 C70.8503602,36.820612 72.0999922,37.639512 73.1051841,38.321764 C75.2836161,39.604264 77.0219121,40.663704 77.0219121,40.663704 C81.611552,43.287452 81.93476,45.463332 81.93476,46.908396 C81.93476,49.917312 79.5013761,53.106044 73.8279921,53.106044 C68.3605282,53.106044 65.8922243,51.030484 65.8922243,48.393892 C65.8922243,46.53326 67.2235042,45.407624 68.6879842,45.407624 C69.9682162,45.407624 70.9642642,45.961132 70.9642642,45.961132 C70.9642642,45.961132 70.4507602,46.662004 70.4507602,48.255268 C70.4507602,50.368904 72.3164962,51.515896 73.8660081,51.515896 C75.9540081,51.515896 77.0423601,50.0437 77.0423601,48.771232 C77.0423601,47.097712 76.0629441,46.182976 74.5768641,45.230544 C74.5768641,45.230544 71.5311922,43.424024 70.6601362,42.898408 C69.4029442,42.139928 66.2624482,39.956296 66.2624482,36.96068 C66.2624482,34.091604 68.5994242,31 73.6265361,31 Z M177.594751,31.5482868 C185.942863,31.5482868 189.102798,36.2815668 189.102798,42.0812788 C189.102798,48.6465246 185.170628,52.4231835 177.465619,52.5396012 L177.095863,52.5423748 L170.281495,52.5577268 L170.280487,52.5577268 L170.280487,31.6046788 L170.319048,31.6042491 C170.751388,31.5993247 174.815069,31.5536409 177.202828,31.5487165 L177.594751,31.5482868 Z M207.315587,31.576536 L207.315587,33.303332 L197.497811,33.303332 L197.497811,40.999472 L203.694203,40.999472 L203.694203,42.72642 L197.497811,42.72642 L197.497811,50.802712 L207.999947,50.802712 L207.999947,52.529584 L192.144323,52.529584 L192.144323,31.576536 L207.315587,31.576536 Z M157.581984,31.576536 L167.577096,52.529584 L161.692896,52.529584 L159.453768,47.305192 L152.391504,47.305192 L150.162384,52.529584 L148.364112,52.52928 L157.311264,31.576536 L157.581984,31.576536 Z M129.491631,31.5764904 L135.058598,44.4006544 L140.241086,31.5764904 L145.832894,31.5764904 L145.832894,52.5295384 L140.480198,52.5295384 L140.480198,35.3998224 L133.557758,52.5295384 L132.056126,52.5295384 L125.279055,35.6322304 L125.279055,52.5295384 L123.642999,52.5295384 L123.642999,31.5764904 L129.491631,31.5764904 Z M47.5575037,31.5765132 L47.5575037,33.3033852 L40.4549198,33.3033852 L40.4549198,52.5295612 L35.1015039,52.5295612 L35.1015039,33.3033852 L28,33.3033852 L28,31.5765132 L47.5575037,31.5765132 Z M120.476287,31.5765132 L120.476287,33.3033852 L110.658296,33.3033852 L110.658296,40.9994492 L116.85476,40.9994492 L116.85476,42.7263972 L110.658296,42.7263972 L110.658296,50.8026892 L120.476287,50.8026892 L120.476287,52.5295612 L105.304952,52.5295612 L105.304952,31.5765132 L120.476287,31.5765132 Z M102.436277,31.5765132 L102.436277,33.3033852 L95.3336934,33.3033852 L95.3336934,52.5295612 L89.9803495,52.5295612 L89.9803495,33.3033852 L82.8787736,33.3033852 L82.8787736,31.5765132 L102.436277,31.5765132 Z M54.512718,31.576536 L64.5077579,52.529584 L58.62363,52.529584 L56.384502,47.305192 L49.3222381,47.305192 L47.0931181,52.529584 L45.2948462,52.52928 L54.241998,31.576536 L54.512718,31.576536 Z M176.819311,33.3023668 L175.635415,33.3023668 L175.635415,50.8308548 L176.887639,50.8308548 C180.751663,50.8308548 183.671047,48.2169868 183.671047,41.9496468 C183.671047,36.1933308 181.150759,33.3023668 176.819311,33.3023668 Z M155.914464,39.048248 L153.12828,45.57832 L158.731464,45.57832 L155.914464,39.048248 Z M52.84527,39.048248 L50.0590141,45.57832 L55.66227,45.57832 L52.84527,39.048248 Z"></path>
        </g>
    </g>
</svg>