<svg width="134" height="40" viewBox="0 0 134 40" fill="none" xmlns="http://www.w3.org/2000/svg">
<path d="M19.6308 5.69116H13.1174V22.3289H7.18245V5.69116H0.638672V0.880658H19.6308V5.69116Z" fill="#F8A923"/>
<path d="M34.2711 13.6885L31.5318 6.8251L28.7926 13.6885H34.2711ZM36.0364 18.1621H27.0273L25.3534 22.3291H19.2051L28.61 0.880902H34.5449L43.9802 22.3291H37.7106L36.0364 18.1621Z" fill="#F8A923"/>
<path d="M59.7147 15.7414C59.7147 14.2912 58.8422 13.5661 57.0971 13.5661H52.3493V17.9782H57.0971C58.8422 17.9782 59.7147 17.2327 59.7147 15.7414ZM52.3493 9.4603H56.184C57.8886 9.4603 58.7408 8.7553 58.7408 7.3459C58.7408 5.9365 57.8886 5.2318 56.184 5.2318H52.3493V9.4603ZM64.8129 13.0144C65.4718 13.8724 65.8019 14.9347 65.8019 16.201C65.8019 18.1006 65.0662 19.5973 63.5952 20.6896C62.124 21.7828 60.0389 22.3291 57.3408 22.3291H46.4141V0.880604H56.7624C59.3189 0.880604 61.3021 1.3663 62.7129 2.3362C64.1227 3.3067 64.8281 4.6801 64.8281 6.4573C64.8281 7.4992 64.5792 8.4184 64.0822 9.2149C63.5848 10.0117 62.8696 10.645 61.9366 11.1148C63.1944 11.5234 64.1531 12.1564 64.8129 13.0144Z" fill="#F8A923"/>
<path d="M81.2331 11.1301C81.8619 10.5889 82.1769 9.8176 82.1769 8.8168C82.1769 7.816 81.8619 7.0396 81.2331 6.4879C80.604 5.9365 79.6707 5.6608 78.4331 5.6608H75.085V11.9422H78.4331C79.6707 11.9422 80.604 11.6716 81.2331 11.1301ZM83.8203 1.846C85.2403 2.4895 86.336 3.4087 87.1076 4.6036C87.8785 5.7988 88.2641 7.2034 88.2641 8.8168C88.2641 10.4305 87.8785 11.83 87.1076 13.0144C86.336 14.1994 85.2403 15.1132 83.8203 15.7567C82.3998 16.4002 80.7259 16.7218 78.7984 16.7218H75.085V22.3291H69.0586V0.8806H78.7984C80.7259 0.8806 82.3998 1.2025 83.8203 1.846Z" fill="#F8A923"/>
<path d="M90.9727 0.880844H96.9076V13.4742L105.704 0.880844H111.365V22.3293H105.43V9.76654L96.6645 22.3293H90.9727V0.880844Z" fill="#F8A923"/>
<path d="M120.739 8.9392C120.739 10.0222 121.038 10.8442 121.637 11.4058C122.235 11.9677 123.102 12.2482 124.239 12.2482H127.83V5.6605H124.3C121.926 5.6605 120.739 6.7537 120.739 8.9392ZM133.765 0.880604V22.3291H127.83V16.9363H124.543L121.043 22.3291H114.712L119.034 16.0477C117.614 15.4147 116.528 14.5003 115.778 13.3054C115.027 12.1105 114.651 10.6858 114.651 9.031C114.651 7.3564 115.037 5.9059 115.808 4.6801C116.579 3.4546 117.685 2.515 119.126 1.8613C120.566 1.2079 122.25 0.880604 124.178 0.880604H133.765Z" fill="#F8A923"/>
<path d="M131.06 39.1558H3.40027C1.87719 39.1558 0.642578 37.9129 0.642578 36.3793V28.7896C0.642578 27.2563 1.87719 26.0131 3.40027 26.0131H131.06C132.583 26.0131 133.818 27.2563 133.818 28.7896V36.3793C133.818 37.9129 132.583 39.1558 131.06 39.1558Z" fill="#3C3C3C"/>
<path d="M6.47202 28.8592H8.23366L9.59964 30.8697L10.9656 28.8592H12.7555L10.5605 32.0362L12.9345 35.4978H11.1352L9.59964 33.2976L8.08293 35.4978H6.32129L8.67643 32.1026L6.47202 28.8592Z" fill="white"/>
<path d="M15.0374 31.5336H18.2121V32.7285H15.0374V31.5336ZM15.1504 34.2649H18.7396V35.4978H13.6337V28.8592H18.6172V30.0921H15.1504V34.2649Z" fill="white"/>
<path d="M19.9723 35.4978V28.8592H22.8268C23.4171 28.8592 23.9258 28.9572 24.3529 29.1532C24.78 29.3428 25.1097 29.6179 25.3421 29.9783C25.5744 30.3386 25.6906 30.7686 25.6906 31.268C25.6906 31.7612 25.5744 32.188 25.3421 32.5484C25.1097 32.9087 24.78 33.1869 24.3529 33.3829C23.9258 33.5726 23.4171 33.6674 22.8268 33.6674H20.8202L21.4985 32.9751V35.4978H19.9723ZM21.4985 33.1458L20.8202 32.4156H22.742C23.213 32.4156 23.5647 32.3144 23.7971 32.1121C24.0295 31.9098 24.1456 31.6284 24.1456 31.268C24.1456 30.9013 24.0295 30.6168 23.7971 30.4145C23.5647 30.2122 23.213 30.111 22.742 30.111H20.8202L21.4985 29.3808V33.1458Z" fill="white"/>
<path d="M29.9076 35.6116C29.3988 35.6116 28.9247 35.5294 28.4851 35.365C28.0517 35.1943 27.6749 34.9541 27.3546 34.6443C27.0343 34.3345 26.7831 33.9709 26.6009 33.5536C26.4251 33.1364 26.3372 32.678 26.3372 32.1785C26.3372 31.679 26.4251 31.2206 26.6009 30.8033C26.7831 30.3861 27.0343 30.0225 27.3546 29.7127C27.6812 29.4029 28.0611 29.1658 28.4945 29.0014C28.9278 28.8307 29.402 28.7454 29.917 28.7454C30.4885 28.7454 31.0035 28.8465 31.462 29.0488C31.9267 29.2448 32.3161 29.5357 32.6301 29.9214L31.6504 30.8318C31.4243 30.5726 31.1731 30.3797 30.8967 30.2533C30.6204 30.1205 30.3189 30.0541 29.9923 30.0541C29.6846 30.0541 29.402 30.1047 29.1445 30.2059C28.887 30.307 28.664 30.4524 28.4756 30.6421C28.2872 30.8318 28.1396 31.0562 28.0329 31.3155C27.9324 31.5747 27.8821 31.8624 27.8821 32.1785C27.8821 32.4946 27.9324 32.7823 28.0329 33.0415C28.1396 33.3007 28.2872 33.5252 28.4756 33.7149C28.664 33.9045 28.887 34.05 29.1445 34.1511C29.402 34.2523 29.6846 34.3029 29.9923 34.3029C30.3189 34.3029 30.6204 34.2396 30.8967 34.1132C31.1731 33.9804 31.4243 33.7812 31.6504 33.5157L32.6301 34.4261C32.3161 34.8118 31.9267 35.1058 31.462 35.3081C31.0035 35.5105 30.4854 35.6116 29.9076 35.6116Z" fill="white"/>
<path d="M36.6427 35.6116C36.1214 35.6116 35.6378 35.5263 35.1919 35.3556C34.7523 35.1848 34.3692 34.9446 34.0426 34.6348C33.7223 34.325 33.4711 33.9614 33.2889 33.5442C33.1131 33.1269 33.0252 32.6716 33.0252 32.1785C33.0252 31.6853 33.1131 31.2301 33.2889 30.8128C33.4711 30.3955 33.7254 30.032 34.052 29.7222C34.3786 29.4124 34.7617 29.1721 35.2013 29.0014C35.6409 28.8307 36.1183 28.7454 36.6332 28.7454C37.1545 28.7454 37.6318 28.8307 38.0652 29.0014C38.5048 29.1721 38.8848 29.4124 39.2051 29.7222C39.5316 30.032 39.786 30.3955 39.9681 30.8128C40.1503 31.2238 40.2413 31.679 40.2413 32.1785C40.2413 32.6716 40.1503 33.13 39.9681 33.5536C39.786 33.9709 39.5316 34.3345 39.2051 34.6443C38.8848 34.9478 38.5048 35.1848 38.0652 35.3556C37.6318 35.5263 37.1577 35.6116 36.6427 35.6116ZM36.6332 34.3029C36.9284 34.3029 37.1985 34.2523 37.4434 34.1511C37.6946 34.05 37.9144 33.9045 38.1029 33.7149C38.2913 33.5252 38.4357 33.3007 38.5362 33.0415C38.643 32.7823 38.6963 32.4946 38.6963 32.1785C38.6963 31.8624 38.643 31.5747 38.5362 31.3155C38.4357 31.0562 38.2913 30.8318 38.1029 30.6421C37.9207 30.4524 37.704 30.307 37.4528 30.2059C37.2016 30.1047 36.9284 30.0541 36.6332 30.0541C36.3381 30.0541 36.0649 30.1047 35.8137 30.2059C35.5687 30.307 35.3521 30.4524 35.1636 30.6421C34.9752 30.8318 34.8276 31.0562 34.7209 31.3155C34.6204 31.5747 34.5701 31.8624 34.5701 32.1785C34.5701 32.4883 34.6204 32.776 34.7209 33.0415C34.8276 33.3007 34.9721 33.5252 35.1542 33.7149C35.3426 33.9045 35.5624 34.05 35.8137 34.1511C36.0649 34.2523 36.3381 34.3029 36.6332 34.3029Z" fill="white"/>
<path d="M45.9388 28.8592H47.465V35.4978H45.9388V28.8592ZM42.9431 35.4978H41.417V28.8592H42.9431V35.4978ZM46.0519 32.776H42.8301V31.4767H46.0519V32.776Z" fill="white"/>
<path d="M52.2354 35.6116C51.7267 35.6116 51.2525 35.5294 50.8129 35.365C50.3795 35.1943 50.0027 34.9541 49.6824 34.6443C49.3621 34.3345 49.1109 33.9709 48.9288 33.5536C48.7529 33.1364 48.665 32.678 48.665 32.1785C48.665 31.679 48.7529 31.2206 48.9288 30.8033C49.1109 30.3861 49.3621 30.0225 49.6824 29.7127C50.009 29.4029 50.389 29.1658 50.8223 29.0014C51.2556 28.8307 51.7298 28.7454 52.2448 28.7454C52.8163 28.7454 53.3313 28.8465 53.7898 29.0488C54.2545 29.2448 54.6439 29.5357 54.9579 29.9214L53.9782 30.8318C53.7521 30.5726 53.5009 30.3797 53.2245 30.2533C52.9482 30.1205 52.6467 30.0541 52.3202 30.0541C52.0124 30.0541 51.7298 30.1047 51.4723 30.2059C51.2148 30.307 50.9919 30.4524 50.8035 30.6421C50.615 30.8318 50.4675 31.0562 50.3607 31.3155C50.2602 31.5747 50.21 31.8624 50.21 32.1785C50.21 32.4946 50.2602 32.7823 50.3607 33.0415C50.4675 33.3007 50.615 33.5252 50.8035 33.7149C50.9919 33.9045 51.2148 34.05 51.4723 34.1511C51.7298 34.2523 52.0124 34.3029 52.3202 34.3029C52.6467 34.3029 52.9482 34.2396 53.2245 34.1132C53.5009 33.9804 53.7521 33.7812 53.9782 33.5157L54.9579 34.4261C54.6439 34.8118 54.2545 35.1058 53.7898 35.3081C53.3313 35.5105 52.8132 35.6116 52.2354 35.6116Z" fill="white"/>
<path d="M60.2201 35.4978L58.1664 32.3018L59.4005 31.5526L61.9535 35.4978H60.2201ZM55.9338 35.4978V28.8592H57.4505V35.4978H55.9338ZM57.0077 32.8234V31.5431H59.3063V32.8234H57.0077ZM59.5418 32.3492L58.1382 32.1785L60.2766 28.8592H61.8875L59.5418 32.3492Z" fill="white"/>
<path d="M61.7862 35.4978L64.7254 28.8592H66.2327L69.1813 35.4978H67.5798L65.1682 29.6368H65.7711L63.35 35.4978H61.7862ZM63.2558 34.0752L63.6609 32.9087H67.0523L67.4668 34.0752H63.2558Z" fill="white"/>
<path d="M73.465 35.4978V33.4019L73.8419 33.7338H72.0331C71.4616 33.7338 70.9686 33.639 70.5541 33.4493C70.1396 33.2596 69.8224 32.9846 69.6026 32.6242C69.3828 32.2638 69.2729 31.8339 69.2729 31.3344C69.2729 30.816 69.3891 30.3734 69.6214 30.0067C69.8601 29.6337 70.193 29.3492 70.62 29.1532C71.0471 28.9572 71.5495 28.8592 72.1273 28.8592H74.9723V35.4978H73.465ZM69.2917 35.4978L70.9309 33.1174H72.4759L70.9026 35.4978H69.2917ZM73.465 32.9087V29.7127L73.8419 30.111H72.165C71.7317 30.111 71.3988 30.2122 71.1664 30.4145C70.9403 30.6168 70.8273 30.9171 70.8273 31.3155C70.8273 31.7011 70.9372 31.9983 71.157 32.2069C71.3768 32.4156 71.7003 32.5199 72.1273 32.5199H73.8419L73.465 32.9087Z" fill="white"/>
<path d="M82.4483 35.6116C81.927 35.6116 81.4434 35.5263 80.9975 35.3556C80.5579 35.1848 80.1748 34.9446 79.8482 34.6348C79.5279 34.325 79.2767 33.9614 79.0946 33.5442C78.9187 33.1269 78.8308 32.6716 78.8308 32.1785C78.8308 31.6853 78.9187 31.2301 79.0946 30.8128C79.2767 30.3955 79.531 30.032 79.8576 29.7222C80.1842 29.4124 80.5673 29.1721 81.0069 29.0014C81.4465 28.8307 81.9239 28.7454 82.4388 28.7454C82.9601 28.7454 83.4374 28.8307 83.8708 29.0014C84.3104 29.1721 84.6904 29.4124 85.0107 29.7222C85.3372 30.032 85.5916 30.3955 85.7737 30.8128C85.9559 31.2238 86.0469 31.679 86.0469 32.1785C86.0469 32.6716 85.9559 33.13 85.7737 33.5536C85.5916 33.9709 85.3372 34.3345 85.0107 34.6443C84.6904 34.9478 84.3104 35.1848 83.8708 35.3556C83.4374 35.5263 82.9633 35.6116 82.4483 35.6116ZM82.4388 34.3029C82.734 34.3029 83.0041 34.2523 83.249 34.1511C83.5002 34.05 83.72 33.9045 83.9085 33.7149C84.0969 33.5252 84.2413 33.3007 84.3418 33.0415C84.4486 32.7823 84.502 32.4946 84.502 32.1785C84.502 31.8624 84.4486 31.5747 84.3418 31.3155C84.2413 31.0562 84.0969 30.8318 83.9085 30.6421C83.7263 30.4524 83.5097 30.307 83.2584 30.2059C83.0072 30.1047 82.734 30.0541 82.4388 30.0541C82.1437 30.0541 81.8705 30.1047 81.6193 30.2059C81.3743 30.307 81.1577 30.4524 80.9692 30.6421C80.7808 30.8318 80.6332 31.0562 80.5265 31.3155C80.426 31.5747 80.3758 31.8624 80.3758 32.1785C80.3758 32.4883 80.426 32.776 80.5265 33.0415C80.6332 33.3007 80.7777 33.5252 80.9598 33.7149C81.1482 33.9045 81.368 34.05 81.6193 34.1511C81.8705 34.2523 82.1437 34.3029 82.4388 34.3029Z" fill="white"/>
<path d="M87.2226 35.4978V28.8592H92.5452V30.0826H88.7393V31.4482H90.5669C91.3645 31.4482 91.9705 31.6158 92.385 31.9509C92.8058 32.286 93.0162 32.7728 93.0162 33.4114C93.0162 34.0689 92.7838 34.581 92.3191 34.9478C91.8544 35.3145 91.1981 35.4978 90.3502 35.4978H87.2226ZM88.7393 34.3598H90.2654C90.6548 34.3598 90.9531 34.2839 91.1604 34.1321C91.3676 33.9741 91.4713 33.7465 91.4713 33.4493C91.4713 32.8676 91.0693 32.5768 90.2654 32.5768H88.7393V34.3598Z" fill="white"/>
<path d="M94.0871 35.6021C93.9741 35.6021 93.8548 35.5927 93.7292 35.5737C93.6098 35.5547 93.478 35.5294 93.3335 35.4978L93.4277 34.1985C93.5156 34.2238 93.6067 34.2365 93.7009 34.2365C93.9584 34.2365 94.1594 34.1321 94.3038 33.9235C94.4483 33.7085 94.5519 33.4019 94.6147 33.0036C94.6775 32.6053 94.7183 32.1216 94.7372 31.5526L94.8314 28.8592H99.8996V35.4978H98.3923V29.7601L98.7409 30.111H95.8299L96.1408 29.7412L96.0843 31.4957C96.0655 32.1469 96.0215 32.7254 95.9524 33.2312C95.8833 33.737 95.7766 34.1669 95.6321 34.521C95.4877 34.875 95.2898 35.1438 95.0386 35.3271C94.7874 35.5105 94.4703 35.6021 94.0871 35.6021Z" fill="white"/>
<path d="M100.802 35.4978L103.742 28.8592H105.249L108.198 35.4978H106.596L104.184 29.6368H104.787L102.366 35.4978H100.802ZM102.272 34.0752L102.677 32.9087H106.068L106.483 34.0752H102.272Z" fill="white"/>
<path d="M112.098 35.6116C111.59 35.6116 111.115 35.5294 110.676 35.365C110.242 35.1943 109.866 34.9541 109.545 34.6443C109.225 34.3345 108.974 33.9709 108.792 33.5536C108.616 33.1364 108.528 32.678 108.528 32.1785C108.528 31.679 108.616 31.2206 108.792 30.8033C108.974 30.3861 109.225 30.0225 109.545 29.7127C109.872 29.4029 110.252 29.1658 110.685 29.0014C111.118 28.8307 111.593 28.7454 112.108 28.7454C112.679 28.7454 113.194 28.8465 113.653 29.0488C114.117 29.2448 114.507 29.5357 114.821 29.9214L113.841 30.8318C113.615 30.5726 113.364 30.3797 113.087 30.2533C112.811 30.1205 112.51 30.0541 112.183 30.0541C111.875 30.0541 111.593 30.1047 111.335 30.2059C111.078 30.307 110.855 30.4524 110.666 30.6421C110.478 30.8318 110.33 31.0562 110.224 31.3155C110.123 31.5747 110.073 31.8624 110.073 32.1785C110.073 32.4946 110.123 32.7823 110.224 33.0415C110.33 33.3007 110.478 33.5252 110.666 33.7149C110.855 33.9045 111.078 34.05 111.335 34.1511C111.593 34.2523 111.875 34.3029 112.183 34.3029C112.51 34.3029 112.811 34.2396 113.087 34.1132C113.364 33.9804 113.615 33.7812 113.841 33.5157L114.821 34.4261C114.507 34.8118 114.117 35.1058 113.653 35.3081C113.194 35.5105 112.676 35.6116 112.098 35.6116Z" fill="white"/>
<path d="M117.174 35.4978V29.7601L117.522 30.111H115.073V28.8592H120.791V30.111H118.342L118.681 29.7601V35.4978H117.174Z" fill="white"/>
<path d="M124.943 31.0404C125.74 31.0404 126.356 31.2206 126.789 31.581C127.223 31.9351 127.439 32.4693 127.439 33.1838C127.439 33.9425 127.197 34.5178 126.714 34.9098C126.237 35.3018 125.574 35.4978 124.726 35.4978H121.749V28.8592H123.266V31.0404H124.943ZM124.641 34.3598C125.031 34.3598 125.339 34.2618 125.565 34.0658C125.791 33.8698 125.904 33.5853 125.904 33.2122C125.904 32.8455 125.791 32.5831 125.565 32.4251C125.345 32.2607 125.037 32.1785 124.641 32.1785H123.266V34.3598H124.641Z" fill="white"/>
</svg>
