<?xml version="1.0" encoding="UTF-8"?>
<svg id="Layer_2" data-name="Layer 2" xmlns="http://www.w3.org/2000/svg" viewBox="0 0 187.76 87.26">
  <defs>
    <style>
      .cls-1 {
        fill: #2e3687;
      }
    </style>
  </defs>
  <g id="Layer_1-2" data-name="Layer 1">
    <g>
      <path class="cls-1" d="M54.44,39.6c-2.59,0-5.23,2.1-5.9,4.69-.67,2.59.89,4.69,3.49,4.69s5.23-2.1,5.9-4.69-.89-4.69-3.49-4.69Z"/>
      <path class="cls-1" d="M66.61,20.08L71.8,0H11.24c-2.27,0-4.24,1.53-4.81,3.72l-2.92,11.35-.68,2.49L0,28.45h13.74L2.96,70.09h82.34l-4.42,17.17h9.44c8.64,0,17.77-5.62,22.18-13.67l1.92-3.5h35.49c6.94,0,13.28-3.81,16.53-9.93l21.3-40.07h-121.14ZM29.93,48.68h0c-1.96,7.61-9.72,13.78-17.33,13.78l3.55-13.78,3.55-13.78,3.55-13.78h-13.78l3.55-13.78h50.45c-1.96,7.61-9.72,13.78-17.33,13.78h-9.09l-3.55,13.78-3.55,13.78ZM67.36,61.18c-2.71,0-5.03-.79-6.82-2.15-3.7,2.34-7.9,3.74-12.07,3.74-10.21,0-16.35-8.27-13.72-18.48,2.63-10.21,13.03-18.48,23.23-18.48,4.18,0,7.65,1.4,10.15,3.74,2.48-1.35,5.21-2.15,7.92-2.15h0l-4.35,16.89-4.35,16.89ZM113.29,44.29l-5.63,21.87c-1.96,7.61-9.72,13.78-17.33,13.78l3.55-13.78,1.03-4.01c-1.6.39-3.23.62-4.85.62-10.21,0-16.35-8.27-13.72-18.48l4.35-16.89h13.79l-.16.62-4.19,16.26c-.67,2.59.89,4.69,3.49,4.69s5.23-2.1,5.9-4.69h0s0,0,0,0l4.19-16.26.16-.62h13.78l-4.35,16.89ZM159.99,56.72c-1.98,3.73-5.84,6.05-10.07,6.05h-33.71l9.06-35.36h50.3l-15.58,29.31Z"/>
      <path class="cls-1" d="M159.14,32.92l-8.63,16.2-.29-16.2h-22.06l-1.57,6.08h6.87l-1.57,6.08-1.57,6.08-1.57,6.08c3.36,0,6.78-2.72,7.65-6.08l1.57-6.08,1.57-6.08h4.7l.32,18.25c4.66,0,9.17-2.78,11.45-7.07l9.2-17.26h-6.08Z"/>
    </g>
  </g>
</svg>