<svg width="52" height="46" viewBox="0 0 52 46" fill="none" xmlns="http://www.w3.org/2000/svg"><path fill="none" d="M1 1h50v43.478H1z"/><path fill="none" d="M1 1h50v43.478H1z"/><path fill="none" d="M1 1h50v43.478H1z"/><path fill="none" d="M1 1h50v43.478H1z"/><path d="M1 22.735c0 9.627 2.702 16.803 2.702 16.803s7.785 4.94 22.294 4.94c14.517 0 22.302-4.94 22.302-4.94S51 32.37 51 22.735c0-9.628-2.703-16.804-2.703-16.804S40.523 1 26.005 1C11.486 1 3.71 5.931 3.71 5.931S1 13.107 1 22.735z" fill="#FF0143"/><path fill="none" d="M11.963 7.696H37.91v30.638H11.963z"/><path d="M32.738 28.652a7.84 7.84 0 0 1-5.584 2.326c-4.355 0-7.892-3.565-7.892-7.954 0-4.389 3.537-7.954 7.892-7.954a7.84 7.84 0 0 1 5.584 2.326l5.172-5.212a15.108 15.108 0 0 0-10.747-4.488c-8.395 0-15.2 6.859-15.2 15.319s6.805 15.32 15.2 15.32c4.201 0 8-1.72 10.747-4.489l-5.172-5.194z" fill="#fff"/></svg>