<?xml version="1.0" encoding="UTF-8"?>
<svg id="Livello_3" data-name="Livello 3" xmlns="http://www.w3.org/2000/svg" viewBox="0 0 3213.14 842">
  <g>
    <path d="m523.96,695.58c81.03,0,158.31-65.69,172.6-146.73,14.29-81.03,1.56-9.29,1.56-9.29l18.8-106.61h-225.16l10.56-59.9h285.06l-10.56,59.9-20.11,114.08-2.09,12.55c-19.08,108.19-122.25,195.9-230.44,195.9h-93.28c-108.19,0-180.43-87.71-161.35-195.9l3.69-20.85,69.06-391.66H15.26l10.56-59.9h898.48l-10.56,59.9h-511.55l-69.26,392.77-1.67,9.01c-14.29,81.03,39.82,146.73,120.85,146.73s4.85,0,4.85,0h58.53s-72.57,0,8.47,0" style="fill: #005095;"/>
    <path d="m777.99,577.25l40.7-230.81h-311.68l10.56-59.9h371.58l-10.56,59.9-35.87,203.4-9.88,56.06c-22.99,130.39-147.34,236.1-277.73,236.1h-170.21s114.92,0-15.47,0-217.46-105.71-194.47-236.1l1.3-7.82,64.27-364.49H0l10.56-59.9h300.41l-10.56,59.9-51.56,292.42-6.06,34.4c-27.47,155.81,47.51,221.7,182.61,221.7,122.44,0,113.82,0,113.82,0h6.72c108.19,0,211.36-87.71,230.44-195.9l1.62-8.95Z" style="fill: #005095;"/>
    <path d="m614.8,521.37l.29-1.62h-138.64l10.56-59.9h198.54l-10.5,59.53-.06.37-.44,2.49c-14.29,81.03-91.56,146.73-172.6,146.73h-18.23c-81.03,0-135.14-65.69-120.85-146.73l1.26-7.14,49.64-281.5,3.83-21.72,6.73-38.18h484.72l-10.56,59.9h-424.82l-44.79,254.03s4.28-24.28-4.85,27.55c-9.14,51.83,25.47,93.84,77.29,93.84l4.08.05h.94c47.48,0,92.94-35.26,107.26-81.02l1.21-6.67Z" style="fill: #009ee2;"/>
  </g>
  <g>
    <g>
      <g>
        <g>
          <path d="m612.81,39.08c-19.35,8.22-28.27,15.06-43.28,18.25,16.99,1.22,37.88-10.58,71.94-8.91,23.03,1.13,54.07,11.35,65.2,11.76-17.15-4.88-24.28-13.88-42.9-22.12-12-5.31-33.58-6.35-50.95,1.03Z" style="fill: #005095;"/>
          <path d="m516.24,50.24c.14-.01.28-.04.41-.05-.2.01-.34.03-.41.05Z" style="fill: #009ee2;"/>
          <path d="m608.24,17.98c-21.03,5.61-28.5,12.8-45.96,22.38-9.15,5.02-27.58,14.83-44.59,16.57,3.14-.22,19.74-.1,39.53-4.53,19.99-4.48,29.37-10.39,45.79-16.43,19.19-7.06,16.97-7.45,32.42-11.1,20.67-4.88,39.57-2.42,49.55-.24,0,0-40.68-16.27-76.75-6.65Z" style="fill: #009ee2;"/>
          <path d="m529.69,26.43c-14.55,4.23-20.47,3.37-34.86,3.63,13.03,3.45,21.13,6.21,38.35,4.88,13.56-1.04,25.76-6.38,41.68-12.15,18.72-6.79,38.31-14.84,69.45-14.44,0,0-38.46-6.51-77.07,3.66-11.59,3.05-30.86,12.47-37.55,14.41Z" style="fill: #005095;"/>
          <path d="m511.3,12.92c-14.18-.06-23.73-4.6-36.69-7.28-17.76-3.66-27.57-.36-41.1,1.63,13.59.96,39.34,16.59,69.28,14.88,27.33-1.56,57.96-18.11,78.32-18.11-18.64-3.05-45.48,8.99-69.82,8.88Z" style="fill: #005095;"/>
          <path d="m509.95,41.87c-15.71-.79-29.78-7.02-48.96-8.35-18.39-1.27-24.98-.91-42.82,4.28,25.29-1.84,35.68,4.52,45.5,10.17,12.71,7.32,26.11,8.28,37.45,6.5,13.28-2.08,17.78-3.97,28.42-7.6,10.58-3.62,22.57-7.84,32.7-13.02,0,0-22.68,9.52-52.28,8.02Z" style="fill: #009ee2;"/>
        </g>
        <g>
          <path d="m457.07,21.13c-7.6-2.58-14.93-5.69-22.61-8.12-7.38-2.34-25.58-10.14-46.86-3.3h0c-21.07,4.9-38.74,4.07-47.96,2.96C328.61,11.34,316.97,6.92,296.58,0c-.12,0,30.44,17.45,58.27,24.57,4.97,1.27,19.89,3.71,29.86,1.62h0c8.58-1.74,17.18-3.44,25.74-4.34,8.21-.86,16.3-.96,24.23-.19,7.27.71,14.29,2.2,21.39,3.46,6.85,1.23,20.34,3.83,32.09,3.52-9-.25-24.02-5.1-31.11-7.51Z" style="fill: #005095;"/>
          <path d="m379.93,52.95c12.63-.43,21.69-5.54,28.83-7.6,14.73-4.26,26.42-2.07,37.21,1.82,9.54,3.44,18.67,11.75,35.09,12.6-25.45,3.66-28.12-2.63-60.25-1.42-15.09.57-24.34,4.5-42.07,1.34h0c-26.52-5.48-30.87-11.77-42.09-17.87,5.69,3.09,24.82,11.74,43.23,11.13h.05Z" style="fill: #005095;"/>
          <path d="m443.38,27.42c-8.59-1.53-17.84-2.62-36.69.91-7.2,1.35-18.46,3.48-23.17,4.58h0c-21.68,4.27-27.32,1.36-44.3-.81-9.04-1.16-9.76-2.49-27.94-4.24,16.17,5.25,20.11,7.41,32.77,12.04,13.43,4.91,19.55,8.49,36.89,7.76h0c29.72-5.6,32.83-19.08,62.44-20.23Z" style="fill: #009ee2;"/>
          <path d="m264.73,39.08c-19.36,8.22-28.27,15.06-43.28,18.25,16.99,1.22,37.88-10.58,71.94-8.91,23.03,1.13,54.07,11.35,65.2,11.76-17.14-4.88-24.28-13.88-42.9-22.12-12-5.31-33.58-6.35-50.95,1.03Z" style="fill: #005095;"/>
          <path d="m168.16,50.24c.14-.01.28-.04.41-.05-.2.01-.34.03-.41.05Z" style="fill: #009ee2;"/>
          <path d="m260.16,17.98c-21.03,5.61-28.5,12.8-45.96,22.38-9.15,5.02-27.58,14.83-44.58,16.57,3.14-.22,19.74-.1,39.53-4.53,19.99-4.48,29.37-10.39,45.79-16.43,19.19-7.06,16.97-7.45,32.42-11.1,20.66-4.88,39.56-2.42,49.55-.24,0,0-40.68-16.27-76.75-6.65Z" style="fill: #009ee2;"/>
          <path d="m181.61,26.43c-14.55,4.23-20.47,3.37-34.87,3.63,13.04,3.45,21.13,6.21,38.35,4.88,13.57-1.04,25.77-6.38,41.68-12.15,18.72-6.79,38.31-14.84,69.45-14.44,0,0-38.46-6.51-77.07,3.66-11.59,3.05-30.86,12.47-37.55,14.41Z" style="fill: #005095;"/>
          <path d="m163.22,12.92c-14.18-.06-23.73-4.6-36.69-7.28-17.76-3.66-27.57-.36-41.1,1.63,13.59.96,39.33,16.59,69.28,14.88,27.33-1.56,57.96-18.11,78.32-18.11-18.64-3.05-45.47,8.99-69.82,8.88Z" style="fill: #005095;"/>
          <path d="m161.87,41.87c-15.71-.79-29.78-7.02-48.96-8.35-18.39-1.27-24.98-.91-42.82,4.28,25.29-1.84,35.68,4.52,45.5,10.17,12.71,7.32,26.11,8.28,37.45,6.5,13.28-2.08,17.78-3.97,28.42-7.6,10.58-3.62,22.57-7.84,32.7-13.02,0,0-22.68,9.52-52.28,8.02Z" style="fill: #009ee2;"/>
          <path d="m86.61,21.66c7.27.71,14.29,2.2,21.39,3.46,6.85,1.23,20.34,3.83,32.09,3.52-9-.25-24.02-5.1-31.11-7.51-7.6-2.58-14.93-5.69-22.61-8.12-7.38-2.34-25.59-10.14-46.86-3.3l-2.91,16.48c8.58-1.74,17.19-3.43,25.76-4.34,8.21-.86,16.3-.96,24.23-.19Z" style="fill: #009ee2;"/>
          <path d="m58.61,28.33c-7.2,1.35-18.46,3.48-23.17,4.58l-2.6,14.74c29.74-5.59,32.84-19.08,62.46-20.23-8.59-1.53-17.84-2.62-36.69.91Z" style="fill: #005095;"/>
          <path d="m72.73,58.35c32.13-1.22,34.8,5.08,60.25,1.42-16.42-.85-25.55-9.16-35.09-12.6-10.79-3.89-22.48-6.08-37.21-1.82-7.15,2.06-16.21,7.17-28.83,7.6l-1.19,6.74c17.73,3.16,26.98-.77,42.07-1.34Z" style="fill: #005095;"/>
        </g>
      </g>
      <g>
        <path d="m864.39,50.24c.14-.01.28-.04.41-.05-.2.01-.34.03-.41.05Z" style="fill: #009ee2;"/>
        <path d="m938.31,7.73c-7.43.89-15.17,2.25-22.92,4.29-11.59,3.05-30.86,12.47-37.55,14.41-14.55,4.23-20.47,3.37-34.87,3.63,13.04,3.45,21.13,6.21,38.35,4.88,13.57-1.04,25.77-6.38,41.68-12.15,4.41-1.6,8.87-3.27,13.51-4.88l1.8-10.19Z" style="fill: #009ee2;"/>
        <path d="m859.45,12.92c-14.18-.06-23.73-4.6-36.69-7.28-17.76-3.66-27.57-.36-41.1,1.63,13.59.96,39.33,16.59,69.28,14.88,27.33-1.56,57.96-18.11,78.32-18.11-18.64-3.05-45.47,8.99-69.82,8.88Z" style="fill: #005095;"/>
        <path d="m858.1,41.87c-15.71-.79-29.78-7.02-48.96-8.35-18.39-1.27-24.98-.91-42.82,4.28,25.29-1.84,35.68,4.52,45.5,10.17,12.71,7.32,26.11,8.28,37.45,6.5,13.28-2.08,17.78-3.97,28.42-7.6,10.58-3.62,22.57-7.84,32.7-13.02,0,0-22.68,9.52-52.28,8.02Z" style="fill: #009ee2;"/>
        <path d="m805.22,21.13c-7.6-2.58-14.93-5.69-22.61-8.12-7.38-2.34-25.59-10.14-46.86-3.3v.02c-21.04,4.87-38.67,4.05-47.88,2.94C676.84,11.34,665.2,6.92,644.81,0c-.12,0,30.44,17.45,58.27,24.57,4.97,1.27,19.9,3.71,29.86,1.62v-.02c8.55-1.73,17.13-3.42,25.66-4.32,8.21-.86,16.3-.96,24.23-.19,7.27.71,14.29,2.2,21.39,3.46,6.85,1.23,20.34,3.83,32.09,3.52-9-.25-24.02-5.1-31.11-7.51Z" style="fill: #005095;"/>
        <path d="m729.01,47.65c29.8-5.67,32.98-19.08,62.51-20.23-8.59-1.53-17.84-2.62-36.69.91-7.2,1.35-18.44,3.47-23.46,4.62-21.49,4.2-27.15,1.31-44.08-.86-9.04-1.16-9.76-2.49-27.93-4.24,16.17,5.25,20.11,7.41,32.77,12.04,13.36,4.89,19.49,8.45,36.63,7.77v.04c.08-.02.15-.03.24-.05,0,0,0,0,.01,0h0Z" style="fill: #009ee2;"/>
        <path d="m794.12,47.17c-10.79-3.89-22.47-6.08-37.21-1.82-7.13,2.06-16.61,7.15-29.19,7.6-18.34.53-37.32-8.05-42.99-11.13,11.23,6.11,15.57,12.4,42.16,17.87,17.73,3.16,26.98-.77,42.07-1.34,32.13-1.22,34.8,5.08,60.25,1.42-16.42-.85-25.55-9.16-35.09-12.6Z" style="fill: #005095;"/>
      </g>
      <path d="m935.08,26.07c-7.89,4.08-14.62,8.79-24.65,14.29-9.15,5.02-27.58,14.83-44.58,16.57,3.14-.22,19.74-.1,39.53-4.53,11.13-2.49,18.97-5.43,26.57-8.59l3.13-17.74Z" style="fill: #005095;"/>
    </g>
    <path d="m930.26,53.42c-3.94,1.6-7.97,2.93-12.58,3.91,3.78.27,7.77-.1,12.04-.83l.54-3.07Z" style="fill: #005095;"/>
  </g>
  <polygon points="1147.07 346.43 1157.63 286.53 1097.73 286.53 786.05 286.53 775.49 346.43 1087.17 346.43 1147.07 346.43" style="fill: #005095;"/>
  <g>
    <path d="m1113.74,371.95c-3.26,13.54-6.43,26.93-9.5,40.18-3.07,13.25-6.38,26.65-9.94,40.18l-93.85,4.75-6.99,27.22h65.37l-16.63,66.97-66.19,2.16-7.76,31.54h93.01c-3.67,15.84-7.36,31.58-11.07,47.2-3.71,15.63-7.31,31.29-10.81,46.99l-189.85,4.32,61.95-311.52h202.25Z" style="fill: #005095;"/>
    <path d="m1294.27,560.33l-26.13,95.92-187.22,14.26c9.74-50.26,19.54-100.24,29.4-149.92,9.86-49.69,20.02-99.66,30.49-149.92h114.07c-8.93,31.54-17.7,63.05-26.32,94.51-8.62,31.47-16.41,63.19-23.36,95.16,6.82.29,13.6.43,20.32.43h20.4c8.19,0,16.25-.07,24.17-.22,7.92-.14,15.98-.22,24.17-.22Z" style="fill: #005095;"/>
    <path d="m1559.01,371.95c-3.26,13.54-6.43,26.93-9.5,40.18-3.07,13.25-6.38,26.65-9.94,40.18l-93.85,4.75-6.99,27.22h65.37l-16.63,66.97-66.19,2.16-7.76,31.54h93.01c-3.67,15.84-7.36,31.58-11.07,47.2-3.71,15.63-7.31,31.29-10.81,46.99l-189.85,4.32,61.95-311.52h202.25Z" style="fill: #005095;"/>
    <path d="m1791.63,639.4c-8.37,8.5-18.16,15.92-29.37,22.25-11.21,6.34-22.96,11.59-35.25,15.77-12.29,4.18-24.69,7.31-37.19,9.4-12.51,2.09-24.24,3.13-35.21,3.13-21.21,0-40.07-3.75-56.59-11.23-16.52-7.49-30.09-17.82-40.71-31-10.62-13.18-18.01-28.7-22.17-46.55-4.17-17.86-4.43-37.08-.8-57.68,2.77-15.7,7.31-31.07,13.62-46.12,6.31-15.05,14.04-29.23,23.19-42.56,9.15-13.32,19.61-25.56,31.37-36.73,11.76-11.16,24.57-20.77,38.43-28.84,13.85-8.06,28.56-14.33,44.12-18.79,15.56-4.46,31.74-6.7,48.56-6.7,6.29,0,12.97.25,20.05.76,7.07.51,14.05,1.37,20.93,2.59,6.88,1.23,13.49,2.92,19.83,5.08,6.34,2.16,12.02,4.83,17.02,7.99l-20.69,82.52c-7.66-3.02-15.74-5.08-24.25-6.16-8.51-1.08-16.93-1.62-25.27-1.62-11.7,0-22.94,1.77-33.73,5.29-10.79,3.53-20.53,8.61-29.23,15.23-8.7,6.63-16.08,14.69-22.14,24.19-6.06,9.51-10.15,20.24-12.26,32.19-1.32,7.49-1.58,14.73-.76,21.71.81,6.99,2.83,13.18,6.05,18.58,3.22,5.4,7.64,9.76,13.27,13.07,5.63,3.31,12.54,4.97,20.73,4.97,5.56,0,11.42-.72,17.6-2.16,6.18-1.44,11.69-3.89,16.54-7.35l3.85-16.85-52.49-.86,14.06-64.81c21.92-.72,43.81-1.33,65.69-1.84,21.88-.5,43.93-1.19,66.17-2.05l-22.97,145.17Z" style="fill: #005095;"/>
    <path d="m2076.67,371.95c-3.27,13.54-6.43,26.93-9.5,40.18-3.07,13.25-6.38,26.65-9.94,40.18l-93.85,4.75-6.99,27.22h65.37l-16.64,66.97-66.19,2.16-7.76,31.54h93.01c-3.67,15.84-7.36,31.58-11.07,47.2-3.71,15.63-7.31,31.29-10.81,46.99l-189.85,4.32,61.95-311.52h202.25Z" style="fill: #005095;"/>
    <path d="m2395.64,373.68l-67.45,292.94-116.77,10.37-33.77-156.84-37.84,159.86h-98.71l61.91-306.33,110.59-5.18,48.47,155.54,29.41-146.9,104.15-3.46Z" style="fill: #005095;"/>
    <path d="m2667.43,530.95c-2.31,13.11-6.08,25.74-11.29,37.91-5.22,12.17-11.65,23.58-19.31,34.24-7.66,10.66-16.4,20.41-26.22,29.27-9.83,8.86-20.45,16.46-31.88,22.79-11.43,6.34-23.52,11.27-36.28,14.8-12.76,3.53-25.94,5.29-39.54,5.29s-25.41-1.65-36.74-4.97c-11.34-3.31-21.67-7.96-31-13.93-9.33-5.97-17.46-13.18-24.38-21.6-6.92-8.43-12.44-17.79-16.54-28.08-4.11-10.29-6.76-21.35-7.97-33.16-1.21-11.81-.68-24.12,1.58-36.94,2.21-12.53,5.91-24.81,11.1-36.83,5.19-12.02,11.61-23.37,19.27-34.02,7.65-10.66,16.36-20.45,26.13-29.38,9.76-8.93,20.3-16.63,31.61-23.11,11.31-6.48,23.2-11.52,35.68-15.12,12.48-3.6,25.3-5.4,38.46-5.4,21.2,0,39.97,3.24,56.31,9.72,16.33,6.48,29.62,15.74,39.85,27.76,10.24,12.03,17.25,26.57,21.04,43.64,3.79,17.07,3.83,36.11.12,57.14Zm-98.39,5.62c1.09-6.19,1.24-12.21.44-18.04-.8-5.83-2.55-11.02-5.26-15.55-2.71-4.54-6.42-8.21-11.11-11.02-4.7-2.81-10.41-4.21-17.14-4.21s-13.23,1.23-19.07,3.67c-5.84,2.45-11.08,5.8-15.7,10.04-4.63,4.25-8.46,9.22-11.51,14.91-3.05,5.69-5.13,11.7-6.25,18.04-1.07,6.05-1.26,12.1-.57,18.15.69,6.05,2.36,11.52,5,16.42,2.65,4.9,6.3,8.86,10.96,11.88,4.66,3.03,10.42,4.54,17.3,4.54s13.29-1.33,19.24-4c5.95-2.66,11.23-6.27,15.83-10.8,4.6-4.54,8.44-9.75,11.54-15.66,3.09-5.9,5.19-12.02,6.31-18.36Z" style="fill: #005095;"/>
    <path d="m2978.11,380.59l-133.31,300.71-109.87,6.05-45.15-303.74,105.65-9.51,10.88,177.15,72.04-177.15,99.76,6.48Z" style="fill: #005095;"/>
    <path d="m3202.49,664.89l-111.24,13.83-4.55-48.82h-50.01l-19.58,48.82-109.97-10.8,138.04-287.75,123.03-6.05,34.28,290.78Zm-112.03-101.1l-3.42-75.18-29.49,75.18h32.9Z" style="fill: #005095;"/>
  </g>
</svg>