<?xml version="1.0" encoding="utf-8"?>
<!-- Generator: Adobe Illustrator 26.2.1, SVG Export Plug-In . SVG Version: 6.00 Build 0)  -->
<svg version="1.1" id="Layer_1" xmlns="http://www.w3.org/2000/svg" xmlns:xlink="http://www.w3.org/1999/xlink" x="0px" y="0px"
	 viewBox="0 0 800 438" enable-background="new 0 0 800 438" xml:space="preserve">
<g id="XMLID_00000121975744394907430860000012853486170766150572_">
	<g>
		<polygon fill="#000000" points="800,0.01 800,326.87 637.01,326.87 472.01,0.01 602.8,0.01 684.29,161.45 684.29,0.01 		"/>
		<polygon fill="#000000" points="799.23,427.76 799.23,437.2 762.5,437.2 762.5,380.15 774.26,380.15 774.26,427.76 		"/>
		<polygon fill="#000000" points="755.59,427.76 755.59,437.2 717.33,437.2 717.33,380.15 755.51,380.15 755.51,389.67 
			729.09,389.67 729.09,403.27 751.67,403.27 751.67,412.48 729.09,412.48 729.09,427.76 		"/>
		<polygon fill="#000000" points="707.05,380.15 707.06,437.2 695.3,437.2 672.4,399.66 672.4,437.2 660.64,437.2 660.64,380.15 
			672.4,380.15 695.33,417.77 695.33,380.15 		"/>
		<polygon fill="#000000" points="650.36,380.15 650.37,437.2 638.61,437.2 615.71,399.66 615.71,437.2 603.95,437.2 603.95,380.15 
			615.71,380.15 638.64,417.77 638.64,380.15 		"/>
		<path fill="#000000" d="M577.27,380.16l21.36,57.05h-12.5l-3.97-11.76h-20.62l-3.92,11.76h-12.5l21.25-57.05H577.27z
			 M578.99,415.93l-7.17-21.36l-7.1,21.36H578.99z"/>
		<polygon fill="#000000" points="564.37,327.38 236.75,327.38 289.73,222 396.74,222 343.24,115.55 400.57,1.52 		"/>
		<polygon fill="#000000" points="538.95,380.15 538.95,437.2 527.2,437.2 527.2,412.75 504.27,412.75 504.27,437.2 492.5,437.2 
			492.5,380.15 504.26,380.15 504.26,403.27 527.19,403.27 527.19,380.15 		"/>
		<path fill="#000000" d="M484.85,399.5h-11.76c-0.29-3.68-1.31-6.35-3.07-8.02c-1.77-1.66-4.45-2.49-8.05-2.49
			c-3.92,0-6.85,1.4-8.8,4.21c-1.95,2.81-2.95,7.16-2.99,13.07v4.31c0,6.16,0.93,10.67,2.8,13.52c1.87,2.85,4.81,4.27,8.84,4.27
			c3.63,0,6.35-0.83,8.13-2.49c1.79-1.66,2.81-4.23,3.08-7.7l11.75,0.02c-0.44,6.14-2.71,10.97-6.8,14.5
			c-4.09,3.52-9.48,5.29-16.18,5.29c-7.32,0-13.08-2.46-17.27-7.39c-4.2-4.93-6.29-11.69-6.29-20.28v-3.49
			c0-5.48,0.97-10.32,2.9-14.5c1.93-4.18,4.7-7.39,8.29-9.62c3.6-2.24,7.77-3.35,12.53-3.35c6.59,0,11.89,1.77,15.91,5.29
			C481.89,388.17,484.22,393.13,484.85,399.5z"/>
		<path fill="#000000" d="M412.33,399.5h-11.76c-0.29-3.68-1.31-6.35-3.07-8.02c-1.77-1.66-4.45-2.49-8.05-2.49
			c-3.92,0-6.85,1.4-8.8,4.21c-1.95,2.81-2.95,7.16-2.99,13.07v4.31c0,6.16,0.93,10.67,2.8,13.52s4.81,4.27,8.84,4.27
			c3.63,0,6.35-0.83,8.13-2.49c1.79-1.66,2.81-4.23,3.08-7.7l11.74,0.02c-0.44,6.14-2.71,10.97-6.8,14.5
			c-4.09,3.52-9.48,5.29-16.17,5.29c-7.32,0-13.08-2.46-17.27-7.39c-4.2-4.93-6.29-11.69-6.29-20.28v-3.49
			c0-5.48,0.97-10.32,2.9-14.5c1.93-4.18,4.7-7.39,8.29-9.62c3.59-2.24,7.77-3.35,12.53-3.35c6.59,0,11.89,1.77,15.91,5.29
			C409.37,388.17,411.7,393.13,412.33,399.5z"/>
		<rect x="344.79" y="380.15" fill="#000000" width="11.76" height="57.05"/>
		<polygon fill="#000000" points="337.35,380.15 337.34,389.67 319.86,389.67 319.86,437.2 308.1,437.2 308.1,389.67 290.85,389.67 
			290.85,380.15 		"/>
		<path fill="#000000" d="M286.43,396.99h-11.76c0-2.61-0.83-4.65-2.47-6.09c-1.64-1.45-3.96-2.18-6.94-2.18
			c-2.87,0-5.11,0.61-6.7,1.82c-1.59,1.22-2.39,2.82-2.39,4.8c0,1.85,0.93,3.41,2.8,4.66s4.62,2.43,8.25,3.52
			c6.7,2.01,11.56,4.51,14.63,7.48c3.06,2.98,4.59,6.69,4.59,11.13c0,4.93-1.87,8.81-5.61,11.62c-3.74,2.81-8.77,4.21-15.1,4.21
			c-4.39,0-8.39-0.8-12-2.41c-3.6-1.61-6.35-3.81-8.25-6.61c-1.9-2.8-2.85-6.03-2.85-9.72h11.8c0,6.3,3.76,9.44,11.29,9.44
			c2.79,0,4.98-0.57,6.55-1.71c1.56-1.08,2.35-2.68,2.35-4.71c0-2.22-0.78-3.92-2.35-5.12c-1.57-1.19-4.39-2.45-8.47-3.76
			c-4.07-1.32-7.3-2.62-9.68-3.9c-6.49-3.5-9.72-8.22-9.72-14.15c0-3.08,0.87-5.83,2.6-8.25c1.74-2.42,4.23-4.31,7.49-5.66
			c3.26-1.36,6.9-2.04,10.96-2.04c4.07,0,7.71,0.74,10.9,2.21c3.19,1.48,5.67,3.56,7.43,6.25
			C285.55,390.51,286.43,393.56,286.43,396.99z"/>
		<path fill="#000000" d="M268.35,120.11l-100.14,0.01c-1.75,0-3.48,0.09-5.18,0.26c1.71-0.18,3.43-0.27,5.18-0.27H268.35z"/>
		<path fill="#000000" d="M218.33,380.16l21.36,57.05h-12.5l-3.96-11.76H202.6l-3.92,11.76h-12.5l21.25-57.05H218.33z
			 M220.05,415.93l-7.17-21.36l-7.1,21.36H220.05z"/>
		<polygon fill="#000000" points="217.95,221.82 165.65,327.38 165.64,327.38 		"/>
		<polygon fill="#000000" points="189,380.15 188.99,389.67 171.51,389.67 171.51,437.2 159.75,437.2 159.75,389.67 142.5,389.67 
			142.5,380.15 		"/>
		<path fill="#000000" d="M161.59,120.55c-1.9,0.25-3.77,0.61-5.6,1.06C157.82,121.15,159.69,120.79,161.59,120.55z"/>
		<path fill="#000000" d="M117.36,169.7c-0.02,0.42-0.03,0.85-0.03,1.27c0,5.25,0.81,10.32,2.31,15.09
			c0.18,0.59,0.38,1.18,0.58,1.76c0,0.01,0.01,0.02,0.01,0.02c0.41,1.17,0.87,2.33,1.37,3.46c0.24,0.56,0.5,1.11,0.77,1.66
			c0.27,0.56,0.55,1.1,0.83,1.64c0.02,0.04,0.04,0.08,0.07,0.13c0.18,0.34,0.36,0.67,0.55,1c0,0.01,0.01,0.02,0.02,0.04
			c0.1,0.18,0.19,0.35,0.29,0.52c0.29,0.51,0.6,1.02,0.91,1.52l0.01,0.01c0.17,0.28,0.35,0.55,0.53,0.82
			c0.2,0.32,0.41,0.63,0.63,0.94c0.12,0.18,0.24,0.35,0.36,0.53c0.1,0.13,0.19,0.26,0.29,0.39c0.21,0.31,0.43,0.61,0.67,0.91
			c0.22,0.3,0.45,0.6,0.68,0.9c0,0.01,0.02,0.02,0.02,0.02c0.37,0.48,0.75,0.94,1.14,1.4c0,0.01,0.01,0.02,0.02,0.02
			c0.33,0.4,0.68,0.79,1.04,1.18c0.06,0.08,0.13,0.16,0.2,0.23c0.2,0.23,0.41,0.46,0.65,0.68c0.17,0.2,0.36,0.4,0.56,0.6
			c0,0.01,0,0.01,0.01,0.01c0.06,0.06,0.11,0.12,0.17,0.17c0.05,0.06,0.1,0.11,0.16,0.17c0.11,0.11,0.22,0.21,0.33,0.32
			c0.21,0.22,0.42,0.42,0.63,0.62c0.01,0.01,0.02,0.01,0.02,0.01c0.44,0.43,0.88,0.83,1.33,1.23c0,0,0.01,0.01,0.02,0.02
			c0.22,0.2,0.45,0.39,0.68,0.58c0.23,0.2,0.46,0.4,0.69,0.59c0,0.01,0.01,0.01,0.02,0.02c0.47,0.38,0.94,0.76,1.42,1.13
			c0.01,0.01,0.01,0.01,0.01,0.01c0.17,0.13,0.34,0.26,0.52,0.38c0.8,0.61,1.62,1.19,2.46,1.74c0.01,0,0.02,0.01,0.02,0.01
			c0.08,0.05,0.16,0.11,0.24,0.16s0.16,0.1,0.24,0.15c0.48,0.32,0.97,0.62,1.46,0.9c0.03,0.03,0.06,0.05,0.1,0.07
			c0.36,0.21,0.73,0.43,1.09,0.63c0,0,0.01,0,0.01,0.01c0.29,0.15,0.58,0.31,0.87,0.46c1.33,0.72,2.7,1.38,4.1,1.97
			c0.01,0,0.01,0,0.01,0c6.08,2.59,12.75,4.02,19.75,4.02h49.75l-52.31,105.56H0.63V0.52h326.99l-59.27,119.59H168.21
			c-1.75,0-3.47,0.09-5.18,0.27c-0.01,0-0.01,0-0.01,0c-0.48,0.05-0.96,0.1-1.43,0.17c-1.9,0.24-3.77,0.6-5.6,1.06
			c-0.46,0.11-0.91,0.23-1.36,0.36c-0.91,0.25-1.81,0.53-2.69,0.83c-1.18,0.4-2.34,0.85-3.48,1.33h-0.01
			c-1.14,0.48-2.26,1.01-3.35,1.57h-0.01c-0.36,0.19-0.72,0.38-1.08,0.58c-0.36,0.19-0.72,0.39-1.07,0.6h-0.01
			c-0.71,0.41-1.41,0.83-2.09,1.28h-0.01c-2.06,1.33-4.02,2.8-5.86,4.4c-0.01,0-0.01,0-0.01,0c-0.92,0.81-1.81,1.64-2.67,2.5h-0.01
			c-2.02,2.01-3.87,4.2-5.53,6.52c-0.72,0.99-1.4,2.01-2.03,3.06c-0.2,0.35-0.41,0.71-0.62,1.06c-0.62,1.07-1.2,2.15-1.73,3.26
			c-0.53,1.11-1.03,2.25-1.49,3.41c-0.31,0.77-0.6,1.56-0.86,2.34c-0.71,2.09-1.29,4.24-1.72,6.45c-0.29,1.47-0.52,2.97-0.68,4.48
			c-0.02,0.08-0.02,0.18-0.03,0.26c-0.04,0.4-0.08,0.8-0.11,1.2v0.06c-0.03,0.38-0.05,0.76-0.08,1.14c-0.02,0.4-0.04,0.8-0.04,1.2
			c-0.01,0.06-0.01,0.11,0,0.17V169.7z"/>
		<path fill="#000000" d="M144.34,215.83c-0.29-0.15-0.58-0.31-0.87-0.46v-0.01C143.76,215.52,144.05,215.68,144.34,215.83z"/>
		<path fill="#000000" d="M143.47,215.36v0.01C143.47,215.36,143.46,215.36,143.47,215.36
			C143.46,215.36,143.46,215.36,143.47,215.36z"/>
		<path fill="#000000" d="M142.27,214.66c-0.49-0.28-0.98-0.58-1.46-0.9c0.16,0.1,0.33,0.2,0.49,0.3
			C141.62,214.27,141.95,214.47,142.27,214.66z"/>
		<path fill="#000000" d="M137.85,211.7c-0.18-0.12-0.35-0.25-0.52-0.38v-0.01C137.5,211.44,137.68,211.57,137.85,211.7z"/>
		<path fill="#000000" d="M137.33,211.31v0.01c0,0,0,0-0.01-0.01C137.32,211.31,137.32,211.31,137.33,211.31z"/>
		<path fill="#000000" d="M137.32,211.31c-0.48-0.37-0.95-0.75-1.42-1.13c0,0,0,0-0.01-0.02
			C136.36,210.55,136.84,210.93,137.32,211.31z"/>
		<polygon fill="#000000" points="136.89,380.15 136.9,437.2 125.14,437.2 102.24,399.66 102.24,437.2 90.48,437.2 90.48,380.15 
			102.24,380.15 125.17,417.77 125.17,380.15 		"/>
		<path fill="#000000" d="M135.9,210.18c-0.01-0.01-0.02-0.01-0.02-0.02h0.01C135.9,210.18,135.9,210.18,135.9,210.18z"/>
		<path fill="#000000" d="M135.19,209.57c-0.23-0.19-0.46-0.38-0.68-0.58l-0.01-0.02C134.72,209.17,134.96,209.37,135.19,209.57z"/>
		<path fill="#000000" d="M134.51,208.99c-0.01-0.01-0.02-0.02-0.02-0.02c0.01,0,0.01,0,0.01,0L134.51,208.99z"/>
		<path fill="#000000" d="M132.02,206.62c0.16,0.16,0.32,0.32,0.49,0.49c-0.11-0.11-0.22-0.21-0.33-0.32
			C132.12,206.73,132.07,206.68,132.02,206.62z"/>
		<path fill="#000000" d="M131.85,206.44v0.01C131.84,206.45,131.84,206.45,131.85,206.44c-0.21-0.2-0.4-0.4-0.57-0.6
			C131.47,206.04,131.66,206.24,131.85,206.44z"/>
		<path fill="#000000" d="M129.38,203.73h-0.01c-0.39-0.46-0.77-0.92-1.14-1.4C128.61,202.8,128.99,203.27,129.38,203.73z"/>
		<path fill="#000000" d="M123.84,195.77c0.36,0.65,0.74,1.28,1.13,1.91c-0.29-0.46-0.57-0.92-0.84-1.39
			C124.03,196.12,123.94,195.95,123.84,195.77z"/>
		<path fill="#000000" d="M124.97,197.68c0.14,0.23,0.28,0.45,0.43,0.67c-0.12-0.17-0.24-0.35-0.35-0.53l-0.01-0.01
			C125.01,197.77,124.99,197.72,124.97,197.68z"/>
		<path fill="#000000" d="M126.26,199.64c0.19,0.29,0.4,0.58,0.6,0.86c-0.1-0.13-0.19-0.26-0.29-0.39
			C126.47,199.95,126.36,199.8,126.26,199.64z"/>
		<path fill="#000000" d="M128.22,202.31L128.22,202.31c-0.24-0.3-0.47-0.6-0.69-0.9C127.76,201.72,127.99,202.01,128.22,202.31z"/>
		<path fill="#000000" d="M126.76,141.58c-0.71,1-1.38,2.02-2.03,3.06C125.36,143.59,126.04,142.57,126.76,141.58z"/>
		<path fill="#000000" d="M122.38,148.97c0.53-1.11,1.11-2.19,1.73-3.26C123.49,146.77,122.92,147.86,122.38,148.97z"/>
		<path fill="#000000" d="M122.37,192.95c-0.27-0.55-0.53-1.1-0.77-1.65c-0.5-1.13-0.96-2.29-1.37-3.46c0-0.01,0-0.02,0-0.02
			C120.85,189.58,121.57,191.28,122.37,192.95z"/>
		<path fill="#000000" d="M120.23,187.82h-0.01c-0.2-0.58-0.4-1.17-0.58-1.76C119.83,186.65,120.02,187.24,120.23,187.82z"/>
		<path fill="#000000" d="M117.48,167.16c-0.03,0.42-0.06,0.84-0.08,1.26v-0.12C117.43,167.92,117.45,167.54,117.48,167.16z"/>
		<path fill="#000000" d="M117.4,168.42c-0.02,0.42-0.03,0.83-0.04,1.25v-0.17C117.37,169.14,117.38,168.78,117.4,168.42z"/>
		<path fill="#000000" d="M63.79,380.16l21.36,57.05H72.64l-3.96-11.76H48.06l-3.92,11.76h-12.5l21.25-57.05H63.79z M65.5,415.93
			l-7.17-21.36l-7.1,21.36H65.5z"/>
		<polygon fill="#000000" points="37.16,380.15 37.16,389.67 11.76,389.67 11.76,404.4 34.34,404.4 34.34,413.89 11.76,413.89 
			11.76,437.2 0,437.2 0,380.15 		"/>
		<polygon fill="#000000" points="0.63,174.39 0.63,327.38 0.63,327.38 		"/>
	</g>
</g>
</svg>
