<svg id="Livello_1" data-name="Livello 1" xmlns="http://www.w3.org/2000/svg" viewBox="0 0 777.85 399.84"><defs><style>.cls-1{fill:#eef7f5;}.cls-2{fill:#12120d;}.cls-3{fill:#477797;}.cls-4{fill:#a3d7d7;}.cls-5{fill:#d44049;}.cls-6{isolation:isolate;}.cls-7{fill:#060300;}</style></defs><title>logo_def</title><path class="cls-1" d="M275.21,224.46c25.94,20.09,55.5,48.8,81.48,52.86,0,0-132.65,32.17-185.29-21.25C154.14,238.56,267.33,218.34,275.21,224.46Z"/><path class="cls-2" d="M272.26,289.43c-47.44,0-81.93-10.61-102.61-31.61-3.34-3.38-3.36-7.44-.08-11.15,8.88-10,42-17.57,55.77-20.36,1.83-.37,44.79-9,51.43-3.82h0c5.39,4.17,10.81,8.61,16.55,13.31,21.55,17.67,43.85,35.93,63.79,39.05a2.5,2.5,0,0,1,.2,4.9,410.5,410.5,0,0,1-73.41,9.47C279.94,289.36,276.05,289.43,272.26,289.43Zm-4.07-63.6c-8.11,0-24,1.69-43.3,5.68-27.32,5.63-47.2,12.86-51.9,18.86-1.21,1.56-1.16,2.55.22,3.94C215.85,297.59,314,283.15,345.89,277c-18.21-6.61-37.24-22.2-55.74-37.36-5.7-4.67-11.09-9.08-16.41-13.21-.72-.41-2.63-.63-5.53-.63Zm5.56.64Z"/><path class="cls-3" d="M310.6,162.79c-8.15,7.25-28.08,13.65-28.08,13.65C309,154,306.66,120.1,306.66,120.1c-14.44,32.05-54.4,60.28-89.14,73.39,4.81,7.32,8.56,29.33,17,34,9.84,5.42,30.81-10.71,41.27-11.91C282.27,208.25,305.87,187.86,310.6,162.79Z"/><path class="cls-2" d="M239.42,231.11a12.2,12.2,0,0,1-6.06-1.43c-6.23-3.43-9.87-13.86-13.08-23.06-1.68-4.81-3.27-9.35-4.85-11.76a2.5,2.5,0,0,1,.7-3.45,3.06,3.06,0,0,1,.51-.26c32.07-12.1,73.21-39.82,87.74-72.08a2.52,2.52,0,0,1,3.33-1.22,2.48,2.48,0,0,1,1.45,2.07c.08,1.27,1.71,28.1-16.81,50.18,5.86-2.43,12.72-5.73,16.59-9.18a2.5,2.5,0,0,1,4.12,2.33c-4.12,21.83-21.75,39.91-31.22,49.62-1.69,1.74-3.15,3.24-4.13,4.36a2.48,2.48,0,0,1-1.6.83c-3.55.41-8.86,2.93-14.47,5.6C253.89,227.34,246,231.11,239.42,231.11Zm-18.33-36.32A106.43,106.43,0,0,1,225,205c2.77,7.94,6.21,17.82,10.77,20.32,5,2.75,14.94-2,23.72-6.16,5.57-2.64,10.85-5.15,15.08-5.91,1-1.08,2.26-2.38,3.69-3.85,8.13-8.33,22.5-23.08,28.22-40.62-9.42,5.6-22.52,9.85-23.2,10.06a2.5,2.5,0,0,1-2.38-4.29c16.19-13.68,21.2-32,22.7-43.43-7.43,12-18.44,23.81-32.35,34.76A205.67,205.67,0,0,1,221.09,194.79Z"/><path class="cls-1" d="M219.27,156.77c15.45,27.77,54.64,66.83,72.83,90.09-36.42,25.43-96.8,27.22-120.67,9.21a90.29,90.29,0,0,1-26.31-49.88c-.89-5.32-7.13-53.73-10.07-66.19l-1.83-6.7c-1.66-7-4.41-10.29-11.07-11.08l-13.9-1.11c9.58-8.09,14-10.2,19.43-18.08,14.7-21.47,28-36.22,52.75-28.23,18.18,5.87,22.92,21.09,24.58,35.92A122.44,122.44,0,0,0,219.27,156.77Z"/><path class="cls-2" d="M218.57,270.56c-20.31,0-38.09-4.48-48.65-12.45l-.23-.2a92.12,92.12,0,0,1-27-51.26c-.25-1.45-.86-5.86-1.7-12-2.32-16.85-6.21-45-8.34-54.06L130.84,134c-1.53-6.48-3.62-8.62-9-9.26l-13.8-1.1a2.49,2.49,0,0,1-2.28-2.69,2.52,2.52,0,0,1,.87-1.71c2.7-2.28,5-4.09,7-5.68,5.17-4.07,8.3-6.53,12-11.9,14.46-21.13,28.62-37.9,55.58-29.2,20.26,6.54,24.7,23.76,26.29,38a119.46,119.46,0,0,0,14,45.1c10.09,18.14,30.54,41.27,48.58,61.67,9.17,10.38,17.83,20.17,24,28.1a2.52,2.52,0,0,1-.44,3.53l-.1.06c-17.26,12.05-41.43,19.83-66.32,21.34C224.29,270.43,221.41,270.56,218.57,270.56Zm-45.52-16.35c22.24,16.62,79,16,115.41-7.86-5.95-7.42-13.85-16.36-22.17-25.76-18.21-20.6-38.85-43.94-49.2-62.56a124.38,124.38,0,0,1-14.57-47C201,97.46,197.1,82.84,179.66,77.21c-21.63-7-33.78,3.7-49.91,27.26-4.11,6-7.84,8.94-13,13l-2.09,1.66c7.68.61,7.75.62,7.8.63,7.41.88,11.23,4.64,13.2,13l1.81,6.62c2.21,9.34,6.12,37.67,8.45,54.6.81,5.84,1.45,10.44,1.68,11.82a87.26,87.26,0,0,0,25.45,48.36Z"/><path class="cls-4" d="M82.84,240.56c2.52-8.58,24.68,5.8,24.68,5.8l7.4,16.66C114.51,262.56,80.34,250.45,82.84,240.56Z"/><path class="cls-2" d="M114.92,265.56a2.43,2.43,0,0,1-1.28-.36l-1.64-.68C96.05,258,78,249.37,80.42,240v-.09a6,6,0,0,1,3.73-4c7.09-2.62,21.83,6.58,24.71,8.45a2.56,2.56,0,0,1,.93,1.08l7.4,16.66a2.51,2.51,0,0,1-2.29,3.52Zm-1.21-.33Zm-.64-.5Zm-27.86-23.5c-1.17,5.09,16.2,13.31,24.82,17L105.5,248c-10.15-6.46-17.57-8.31-19.63-7.55A1,1,0,0,0,85.21,241.23Z"/><path class="cls-4" d="M84,138.56c7.82,0,12.56,19.81,12.56,19.81l-.2,22.28c-.13-.56-21.23-29.24-16.39-39.44A4.5,4.5,0,0,1,84,138.56Z"/><path class="cls-2" d="M96.32,183.19a2.51,2.51,0,0,1-2.23-1.37c-.13-.21-.41-.62-.81-1.21C79.52,160.26,74.42,147,77.67,140.18a7,7,0,0,1,6.27-4.08h0c4.32,0,8.18,3.87,11.48,11.42a67.26,67.26,0,0,1,3.49,10.31,2.46,2.46,0,0,1,.07.6l-.2,22.29a2.49,2.49,0,0,1-2.23,2.46ZM83.89,141.1a2,2,0,0,0-1.75,1.22c-1,2.12-1.67,9.16,11.71,30.13L94,158.7c-2.94-12-7.73-17.59-10.07-17.6h0Z"/><path class="cls-4" d="M116.31,184.28c-6.73-5.89-17.58,18-17.58,18l2.88,17.27C101.72,219,123.71,191.27,116.31,184.28Z"/><path class="cls-2" d="M101.61,222.06h0A2.49,2.49,0,0,1,99.15,220l-2.89-17.26a2.58,2.58,0,0,1,.19-1.45c1.41-3.11,8.82-18.68,16.18-20.27A6,6,0,0,1,118,182.4l.07.06c7,6.66-3.34,23.17-13.18,36.81-.42.58-.85,1.19-1,1.42A2.48,2.48,0,0,1,101.61,222.06Zm2.47-2.08Zm-2.76-17.33c.78,4.69,1.35,8.06,1.75,10.5,14.59-21,12.63-25.94,11.56-27a.93.93,0,0,0-.94-.25c-3.48.73-9.29,10.17-12.37,16.74Z"/><path class="cls-4" d="M132.08,255.56c-8.84-1.34-5.15,24.82-5.15,24.82l11,14.4C137.7,294.18,142.09,257.43,132.08,255.56Z"/><path class="cls-2" d="M138,297.25a2.45,2.45,0,0,1-2-1l-11-14.4a2.49,2.49,0,0,1-.49-1.17c-.48-3.4-2.6-20.65,2.77-26a5.91,5.91,0,0,1,5.23-1.68h.1c7.44,1.42,9.91,13.63,8,39.6-.06.77-.12,1.57-.13,1.87a2.5,2.5,0,0,1-2.28,2.71h-.21Zm2.3-3.48Zm-10.94-14.41,6.57,8.57a139,139,0,0,0,.14-16.2c-.6-9.55-2.64-13.35-4.36-13.74a1,1,0,0,0-.92.3C129.21,259.85,127.72,267.39,129.31,279.36Z"/><path class="cls-4" d="M128,322.07c-3.81-8.08,24.11-13.48,24.11-13.48l14.34,8.07C165.88,316.56,132.74,331.11,128,322.07Z"/><path class="cls-2" d="M135.47,327.56c-4.55,0-8-1.22-9.64-4.32a.56.56,0,0,1,0-.08,5.91,5.91,0,0,1,.09-5.34c3.57-7,22.12-10.95,25.8-11.66a2.51,2.51,0,0,1,1.7.28l14.35,8.07a2.5,2.5,0,0,1-.7,4.62c-.28.09-1,.38-1.72.65C155,323.69,143.57,327.56,135.47,327.56ZM130.28,321c2.57,4.68,21.91-1.73,30.27-4.77l-8.82-5c-8.14,1.67-19.65,5.37-21.41,8.83a.94.94,0,0,0,0,.92Z"/><path class="cls-4" d="M181.46,311c-2.87,3.43.75,6.92,5,9.57a34.93,34.93,0,0,0,15.39,5c4,.36,9.3.89,15.61,1.64C218.11,326.81,188.28,303.43,181.46,311Z"/><path class="cls-2" d="M217.51,329.71h-.3c-5.3-.64-10.52-1.19-15.53-1.64a37.74,37.74,0,0,1-16.48-5.36c-4.38-2.7-6.73-5.37-7.19-8.17a6.31,6.31,0,0,1,1.53-5.14l.06-.07c2.25-2.49,6-3,11.06-1.47,6.19,1.85,13.52,6.33,18.58,9.77,10.42,7.07,10.65,8.55,10.75,9.18a2.51,2.51,0,0,1-2.08,2.88,2.6,2.6,0,0,1-.4,0Zm-34.17-17.07c-.47.59-.42.92-.39,1.09.07.44.64,2.1,4.87,4.71a32.89,32.89,0,0,0,14.3,4.64c2.37.21,4.78.45,7.23.7-6.93-5-17.87-11.78-23.85-11.79h0a3,3,0,0,0-2.16.65Z"/><path class="cls-2" d="M219.26,330.36c-31.41,0-57.46-9.24-77.69-27.61-15.31-13.9-35.36-40.9-43.9-90.61A260,260,0,0,1,94,158.26a2.5,2.5,0,0,1,5,.31h0c-.06.93-5.25,94,45.92,140.49,19.28,17.5,44.22,26.3,74.37,26.3a180.83,180.83,0,0,0,28.83-2.43,2.5,2.5,0,1,1,.79,4.94A186.72,186.72,0,0,1,219.26,330.36Z"/><path class="cls-5" d="M155.53,235.56c-7.84-30.16,37.55-35.82,63.36-29.09,31.22,8.14,47.11,4.05,56.73,1.53,31.53-8.25,63.52-22.27,82.46-40.26,0,0-42.19,59.92-66,62.2,0,0,21.71,9.52,32.62,4.65-10.05,21-53.21,45.64-88.42,45.64C211.84,280.19,174.8,272.61,155.53,235.56Z"/><path class="cls-2" d="M236.3,282.69c-22.07,0-62.19-6-83-46a3,3,0,0,1-.2-.52c-2.33-9-.42-16.85,5.52-22.79C171,201,199.86,198.9,219.51,204c30.73,8,46.21,4,55.47,1.54,34.77-9.11,64.43-23.57,81.37-39.67a2.52,2.52,0,0,1,3.54,0,2.49,2.49,0,0,1,.23,3.23c-.11.15-10.79,15.27-24.25,30.46C321.62,215.71,309.61,226,300,230.22c7.47,2.41,17.81,4.68,23.66,2.07a2.5,2.5,0,0,1,3.3,1.28,2.44,2.44,0,0,1,0,2.08c-5.1,10.65-18.5,22.54-35.85,31.81C273,277.14,253,282.69,236.3,282.69Zm-78.42-48.07c19.62,37.47,57.54,43.07,78.42,43.07,32.19,0,70-20.58,83.28-39.38-12,1-27.7-5.78-28.49-6.12a2.5,2.5,0,0,1-1.29-3.29,2.54,2.54,0,0,1,2.06-1.49c14.17-1.36,37.36-26.7,52.68-45.92-17.65,11.71-41.52,21.88-68.29,28.89-9.72,2.55-26,6.81-58-1.53-18.4-4.8-45.33-2.71-56.09,8.05q-6.93,7-4.28,17.72Z"/><circle class="cls-2" cx="154.7" cy="106.19" r="3.75"/><g id="TELEPACE_TRENTO" data-name="TELEPACE TRENTO"><g class="cls-6"><g class="cls-6"><path class="cls-7" d="M419.57,175.64a3.68,3.68,0,0,1-1-2.7V141.57H408q-3.5,0-3.49-3.07c0-2.06,1.16-3.08,3.49-3.08h28.63c2.32,0,3.49,1,3.49,3.08s-1.17,3.07-3.49,3.07H426.05v31.37a3.65,3.65,0,0,1-1,2.7,3.61,3.61,0,0,1-2.7,1A3.72,3.72,0,0,1,419.57,175.64Z"/><path class="cls-7" d="M445.48,175.43a3.43,3.43,0,0,1-1-2.61V139a3.47,3.47,0,0,1,1-2.61,3.63,3.63,0,0,1,2.64-.93h21a4.06,4.06,0,0,1,2.61.75,2.62,2.62,0,0,1,.93,2.15,2.76,2.76,0,0,1-.93,2.24,4,4,0,0,1-2.61.78H451.84v11.27h16.08a4.07,4.07,0,0,1,2.62.75,2.69,2.69,0,0,1,.93,2.21,2.61,2.61,0,0,1-.93,2.15,4.07,4.07,0,0,1-2.62.76H451.84v12h17.25a4,4,0,0,1,2.61.78,2.78,2.78,0,0,1,.93,2.24,2.61,2.61,0,0,1-.93,2.15,4.06,4.06,0,0,1-2.61.75h-21A3.63,3.63,0,0,1,445.48,175.43Z"/><path class="cls-7" d="M479.66,175.43a3.43,3.43,0,0,1-.93-2.55v-34a3.48,3.48,0,0,1,3.71-3.71,3.73,3.73,0,0,1,2.76,1,3.65,3.65,0,0,1,1,2.7v31.37h16.32c2.32,0,3.49,1,3.49,3.08s-1.17,3.07-3.49,3.07H482.27A3.53,3.53,0,0,1,479.66,175.43Z"/><path class="cls-7" d="M511.92,175.43a3.43,3.43,0,0,1-1-2.61V139a3.47,3.47,0,0,1,1-2.61,3.63,3.63,0,0,1,2.64-.93h21a4.06,4.06,0,0,1,2.61.75,2.62,2.62,0,0,1,.93,2.15,2.76,2.76,0,0,1-.93,2.24,4,4,0,0,1-2.61.78H518.28v11.27h16.09a4.06,4.06,0,0,1,2.61.75,2.69,2.69,0,0,1,.93,2.21,2.61,2.61,0,0,1-.93,2.15,4.06,4.06,0,0,1-2.61.76H518.28v12h17.25a4,4,0,0,1,2.61.78,2.78,2.78,0,0,1,.93,2.24,2.61,2.61,0,0,1-.93,2.15,4.06,4.06,0,0,1-2.61.75h-21A3.63,3.63,0,0,1,511.92,175.43Z"/></g><g class="cls-6"><path class="cls-7" d="M546.19,175.7a3.72,3.72,0,0,1-1-2.76V139a3.5,3.5,0,0,1,1-2.61,3.64,3.64,0,0,1,2.65-.93h14.29q6.55,0,10.22,3.28t3.66,9.21q0,5.91-3.66,9.23t-10.22,3.31h-10.4v12.49a3.5,3.5,0,0,1-3.78,3.77A3.68,3.68,0,0,1,546.19,175.7ZM569.86,148q0-6.74-7.72-6.73h-9.47V154.7h9.47Q569.85,154.7,569.86,148Z"/></g><g class="cls-6"><path class="cls-7" d="M616.62,173.4a2.89,2.89,0,0,1-1.08,2.27,3.65,3.65,0,0,1-2.46.93,3.34,3.34,0,0,1-1.75-.5,3.23,3.23,0,0,1-1.27-1.54l-3.49-7.78H586.13l-3.49,7.78a3.25,3.25,0,0,1-1.28,1.54,3.39,3.39,0,0,1-1.8.5,3.71,3.71,0,0,1-2.44-.93,2.88,2.88,0,0,1-1.1-2.27,3.65,3.65,0,0,1,.35-1.51l16-34.44a3.77,3.77,0,0,1,1.6-1.77,4.6,4.6,0,0,1,4.58,0,3.77,3.77,0,0,1,1.6,1.77l16.09,34.44A3.65,3.65,0,0,1,616.62,173.4ZM588.68,161H604l-7.66-17.25Z"/></g><g class="cls-6"><path class="cls-7" d="M628.9,174.33a17,17,0,0,1-6.82-7.32,27.24,27.24,0,0,1,0-22.27,17.06,17.06,0,0,1,6.82-7.29,20.49,20.49,0,0,1,10.37-2.55,22.26,22.26,0,0,1,7.2,1.13,18.74,18.74,0,0,1,6,3.28,3.3,3.3,0,0,1,1,1.22,3.83,3.83,0,0,1,.29,1.57,3.33,3.33,0,0,1-.7,2.15,2.08,2.08,0,0,1-1.68.87,4.24,4.24,0,0,1-2.38-.82,17.31,17.31,0,0,0-4.65-2.58,14.9,14.9,0,0,0-4.76-.73q-6,0-9.15,3.78t-3.1,11.09q0,7.38,3.1,11.15t9.15,3.78a13.57,13.57,0,0,0,4.62-.76,22,22,0,0,0,4.79-2.55,7.85,7.85,0,0,1,1.16-.58,3.16,3.16,0,0,1,1.22-.24,2.06,2.06,0,0,1,1.68.88,3.28,3.28,0,0,1,.7,2.14,3.85,3.85,0,0,1-.29,1.54,3.15,3.15,0,0,1-1,1.25,18.55,18.55,0,0,1-6,3.28,22.26,22.26,0,0,1-7.2,1.14A20.4,20.4,0,0,1,628.9,174.33Z"/><path class="cls-7" d="M661.31,175.43a3.43,3.43,0,0,1-1-2.61V139a3.47,3.47,0,0,1,1-2.61,3.64,3.64,0,0,1,2.65-.93h21a4.09,4.09,0,0,1,2.62.75,2.62,2.62,0,0,1,.93,2.15,2.76,2.76,0,0,1-.93,2.24,4,4,0,0,1-2.62.78H667.67v11.27h16.09a4.06,4.06,0,0,1,2.61.75,2.69,2.69,0,0,1,.93,2.21,2.61,2.61,0,0,1-.93,2.15,4.06,4.06,0,0,1-2.61.76H667.67v12h17.25a4,4,0,0,1,2.62.78,2.78,2.78,0,0,1,.93,2.24,2.61,2.61,0,0,1-.93,2.15,4.09,4.09,0,0,1-2.62.75H664A3.64,3.64,0,0,1,661.31,175.43Z"/></g></g><g class="cls-6"><g class="cls-6"><path class="cls-7" d="M424.94,246a3.11,3.11,0,0,1-.88-2.32V198.13H407.7a3.06,3.06,0,0,1-2.13-.68,3,3,0,0,1,0-4,3.06,3.06,0,0,1,2.13-.68h39a3,3,0,0,1,2.13.68,2.93,2.93,0,0,1,0,4,3,3,0,0,1-2.13.68H430.38v45.52a3.21,3.21,0,0,1-.84,2.32,3,3,0,0,1-2.28.87A3.13,3.13,0,0,1,424.94,246Z"/><path class="cls-7" d="M498.12,244.33a2.3,2.3,0,0,1-.88,1.87,3.06,3.06,0,0,1-2,.72,3.09,3.09,0,0,1-2.74-1.52l-10.2-16.14a12.28,12.28,0,0,0-4.11-4.3,12.1,12.1,0,0,0-5.79-1.18H462.8v19.87A3.21,3.21,0,0,1,462,246a2.9,2.9,0,0,1-2.2.87,3,3,0,0,1-2.29-.87,3.25,3.25,0,0,1-.83-2.32v-47.8a2.94,2.94,0,0,1,.87-2.21,3.25,3.25,0,0,1,2.32-.83h18.88q8.75,0,13.36,3.88t4.6,11.41q0,6.41-3.69,10.28t-10.54,4.72a9.08,9.08,0,0,1,3.42,2,17.76,17.76,0,0,1,3.05,3.8l8.67,13.7A3.18,3.18,0,0,1,498.12,244.33Zm-19.94-25.72c4.16,0,7.26-.86,9.32-2.59s3.08-4.34,3.08-7.84-1-6-3-7.69-5.15-2.51-9.36-2.51H462.8v20.63Z"/><path class="cls-7" d="M509.72,245.63a2.94,2.94,0,0,1-.87-2.21V195.85a2.94,2.94,0,0,1,.87-2.21,3.26,3.26,0,0,1,2.32-.83h28.47a3.06,3.06,0,0,1,2.13.68,2.77,2.77,0,0,1,0,3.81,3.11,3.11,0,0,1-2.13.68H515v18.65h24a3.11,3.11,0,0,1,2.13.68,2.77,2.77,0,0,1,0,3.81,3.06,3.06,0,0,1-2.13.68H515v19.49h25.5a3.15,3.15,0,0,1,2.13.65,2.38,2.38,0,0,1,.76,1.94,2.42,2.42,0,0,1-.76,1.9,3.06,3.06,0,0,1-2.13.68H512A3.22,3.22,0,0,1,509.72,245.63Z"/><path class="cls-7" d="M595.38,193.3a3.4,3.4,0,0,1,.76,2.32v48a3.31,3.31,0,0,1-.79,2.32,2.92,2.92,0,0,1-2.25.87,3.18,3.18,0,0,1-2.51-1.29L559,203.31v40.34a3.27,3.27,0,0,1-.8,2.32,2.79,2.79,0,0,1-2.17.87,2.69,2.69,0,0,1-2.13-.87,3.45,3.45,0,0,1-.76-2.32v-48a3.32,3.32,0,0,1,.8-2.32,2.89,2.89,0,0,1,2.25-.87,3.24,3.24,0,0,1,2.58,1.29L590.28,236V195.62a3.32,3.32,0,0,1,.8-2.32,2.82,2.82,0,0,1,2.17-.87A2.66,2.66,0,0,1,595.38,193.3Z"/></g><g class="cls-6"><path class="cls-7" d="M623.2,246a3.11,3.11,0,0,1-.88-2.32V198.13H606a3,3,0,0,1-2.13-.68,3,3,0,0,1,0-4,3,3,0,0,1,2.13-.68h39a3,3,0,0,1,2.13.68,2.93,2.93,0,0,1,0,4,3,3,0,0,1-2.13.68H628.64v45.52a3.21,3.21,0,0,1-.84,2.32,3,3,0,0,1-2.28.87A3.13,3.13,0,0,1,623.2,246Z"/></g><g class="cls-6"><path class="cls-7" d="M661,243.72a22,22,0,0,1-8.49-9.51,33.19,33.19,0,0,1-3-14.54A33.92,33.92,0,0,1,652.5,205a21.46,21.46,0,0,1,8.44-9.51,27.4,27.4,0,0,1,26.11,0A21.54,21.54,0,0,1,695.5,205a33.9,33.9,0,0,1,2.93,14.58,33.39,33.39,0,0,1-3,14.57,21.9,21.9,0,0,1-8.49,9.55,26.8,26.8,0,0,1-26,0ZM687.28,236q4.76-5.75,4.75-16.4t-4.71-16.37q-4.73-5.7-13.32-5.7t-13.28,5.74Q655.95,209,656,219.6T660.72,236q4.75,5.79,13.28,5.79T687.28,236Z"/></g></g></g></svg>