<?xml version="1.0" encoding="UTF-8"?> <!-- Generator: Adobe Illustrator 24.1.3, SVG Export Plug-In . SVG Version: 6.00 Build 0) --> <svg xmlns="http://www.w3.org/2000/svg" xmlns:xlink="http://www.w3.org/1999/xlink" version="1.1" id="Livello_1" x="0px" y="0px" viewBox="0 0 600 350.2" style="enable-background:new 0 0 600 350.2;" xml:space="preserve"> <style type="text/css"> .st0{fill:#1A4A7F;} .st1{fill:#004F80;} .st2{fill:url(#SVGID_1_);} </style> <g> <path class="st0" d="M300.2,260.7"></path> <g> <path class="st1" d="M51.7,288.4l-23.2,0l0,60.4l-5.5,0l0-60.4l-23,0l0-4.8l51.7,0L51.7,288.4z"></path> <path class="st1" d="M101.5,325.5l-44.2,0c0.6,5.5,2.9,10,6.9,13.6c4,3.5,8.6,5.3,14,5.3c3.6,0,6.9-0.7,10-2 c3.1-1.4,5.7-3.3,7.6-5.8l3.6,3c-2.3,3-5.4,5.4-9.3,7.1c-3.9,1.7-8.1,2.6-12.7,2.6c-7.4,0-13.5-2.5-18.3-7.4 c-4.8-4.9-7.2-11-7.2-18.1c0-7.2,2.4-13.3,7.2-18.2c4.8-4.9,10.9-7.4,18.3-7.4c7.3,0,13.2,2.4,17.5,7.2c4.3,4.8,6.5,11.1,6.5,18.8 L101.5,325.5z M63.5,307.9c-3.7,3.6-5.8,8-6.3,13.4l39,0c-0.3-5.6-2.1-10.1-5.5-13.6c-3.3-3.5-7.8-5.2-13.4-5.2 C71.9,302.5,67.2,304.3,63.5,307.9z"></path> <path class="st1" d="M113.8,279.1l5.3,0l0,69.7l-5.3,0L113.8,279.1z"></path> <path class="st1" d="M180.6,325.6l-44.2,0c0.6,5.5,2.9,10,6.9,13.6c4,3.5,8.6,5.3,14,5.3c3.6,0,6.9-0.7,10-2 c3.1-1.4,5.7-3.3,7.6-5.8l3.6,3c-2.3,3-5.4,5.4-9.3,7.1c-3.9,1.7-8.1,2.6-12.7,2.6c-7.4,0-13.5-2.5-18.3-7.4 c-4.8-4.9-7.2-11-7.2-18.1c0-7.2,2.4-13.3,7.2-18.2c4.8-4.9,10.9-7.4,18.3-7.4c7.3,0,13.2,2.4,17.5,7.2c4.3,4.8,6.5,11.1,6.5,18.8 L180.6,325.6z M142.7,307.9c-3.7,3.6-5.8,8-6.3,13.4l39,0c-0.3-5.6-2.1-10.1-5.5-13.6c-3.3-3.5-7.8-5.2-13.4-5.2 C151,302.5,146.4,304.3,142.7,307.9z"></path> <path class="st1" d="M258.5,348.9l-12.9,0l0-36L227.4,338l-4.9,0l-18-25l0,35.9l-12.9,0l0-65.2l6.6,0l26.9,37.6l26.7-37.5l6.8,0 L258.5,348.9z"></path> <path class="st1" d="M269.5,283.7c0-4.3,3.5-7.8,7.9-7.8c4.2,0,7.7,3.4,7.7,7.8c0,4.3-3.5,7.9-7.7,7.9 C273,291.5,269.5,288,269.5,283.7z M283.6,298.7l0,50.2l-12.8,0l0-50.2L283.6,298.7z"></path> <path class="st1" d="M292.3,345.6l4.1-9.6c4.9,2.5,11.3,4.1,17.3,4.1c6.2,0,9.1-1.8,9.1-5.2c0-3.1-3.1-4.3-11.6-6.1 c-11.5-2.5-18.2-6.2-18.2-15.5c0-10.5,8.1-15.6,19.9-15.6c8.9,0,15.2,1.8,20.7,3.9l-4.2,10.1c-4.7-2.2-11.2-3.7-16.3-3.7 c-4.3,0-7.5,1.3-7.5,4.3c0,3.1,2.5,4.2,11.3,6.2c12,2.9,18.8,6.6,18.8,15.3c0,11.6-7.6,16.6-20.5,16.6 C305.5,350.1,298.7,348.7,292.3,345.6z"></path> <path class="st1" d="M346.1,333.4l0-24.2l-7.2,0l0-10.5l7.2,0l0-19.5l12.5,0l0,19.5l14.4,0l0,10.5l-14.4,0l0,22.1 c0,5.5,1.4,8,6.7,8c1.9,0,5.1-0.3,7.7-1l0,10.2c-2,0.8-6.2,1.8-11.6,1.8C350.3,350.1,346.1,344.9,346.1,333.4z"></path> <path class="st1" d="M393.9,298.7l0,7.1c3.3-4.9,8.5-8,15.4-8.2c1.1,0,2.4,0,3.4,0.4l0,14c-2.2-0.6-4.3-0.9-6-0.9 c-9.2,0-12.8,6.9-12.8,13.6l0,24.3l-12.7,0l0-50.2L393.9,298.7z"></path> <path class="st1" d="M468.5,327.7l-38.8,0c1.4,7.5,6.6,11.7,14.8,11.7c5.8,0,11-2.2,14.4-6.4l8,6.8C462.3,346,455,350,443.5,350 c-16.7,0-26.6-10.3-26.6-26.2c0-15.9,10.6-26.2,26-26.2c17.2,0,25.7,10.9,25.7,26.4C468.6,325.2,468.5,327.7,468.5,327.7z M429.7,318.5l26.5,0c-0.7-5.5-4.7-10.5-13.3-10.5C436.5,308.1,431.3,311.3,429.7,318.5z"></path> <path class="st1" d="M480,333.4l0-24.2l-7.2,0l0-10.5l7.2,0l0-19.5l12.5,0l0,19.5l14.4,0l0,10.5l-14.4,0l0,22.1c0,5.5,1.4,8,6.7,8 c1.9,0,5.1-0.3,7.7-1l0,10.2c-2,0.8-6.2,1.8-11.6,1.8C484.3,350.2,480,344.9,480,333.4z"></path> <path class="st1" d="M518,333.4l0-24.2l-7.2,0l0-10.5l7.2,0l0-19.5l12.5,0l0,19.5l14.4,0l0,10.5l-14.4,0l0,22.1c0,5.5,1.4,8,6.7,8 c1.9,0,5.1-0.3,7.7-1l0,10.2c-2,0.8-6.2,1.8-11.6,1.8C522.3,350.2,518,344.9,518,333.4z"></path> <path class="st1" d="M548,323.8c0-16,9.4-26.1,24.6-26.1c5.3,0,10.5,1.2,14.8,4.4l0-3.4l12.6,0l0,50.2l-12.6,0l0-3.7 c-3.5,3.1-8.9,4.7-14.5,4.7C557.3,350,548,339.7,548,323.8z M587.7,334.2l0-20.5c-3.3-3.4-8.1-4.7-12.4-4.7 c-9,0-14.4,5.5-14.4,14.9c0,9.2,5.3,15,14.5,15C579.5,338.8,584.4,337.6,587.7,334.2z"></path> </g> <g> <path class="st1" d="M229,195.9c-3.7-0.6-7.4-1.6-10.8-3c-0.2-0.1-0.5-0.2-0.7-0.3c-0.4-0.2-0.8-0.3-1.2-0.5 c-0.3-0.1-0.6-0.3-0.8-0.4c-0.3-0.2-0.7-0.3-1-0.5c-0.3-0.1-0.6-0.3-0.8-0.4c-0.3-0.2-0.7-0.4-1-0.5c-0.3-0.2-0.6-0.3-0.8-0.5 c-0.3-0.2-0.7-0.4-1-0.6c-0.3-0.2-0.5-0.3-0.8-0.5c-0.4-0.2-0.8-0.5-1.1-0.7c-0.2-0.1-0.4-0.3-0.7-0.4c-0.5-0.4-1-0.7-1.5-1.1 c-0.2-0.2-0.4-0.3-0.7-0.5c-0.3-0.2-0.6-0.5-1-0.8c-0.2-0.2-0.5-0.4-0.7-0.6c-0.3-0.2-0.6-0.5-0.9-0.8c-0.2-0.2-0.5-0.4-0.7-0.6 c-0.3-0.3-0.6-0.5-0.9-0.8c-0.2-0.2-0.4-0.4-0.6-0.6c-0.3-0.3-0.6-0.6-0.9-0.9c-0.2-0.2-0.3-0.4-0.5-0.5c-0.5-0.5-0.9-1-1.3-1.5 c-0.1-0.2-0.3-0.3-0.4-0.5c-0.3-0.4-0.6-0.7-0.9-1.1c-0.2-0.2-0.3-0.4-0.5-0.6c-0.3-0.3-0.5-0.7-0.7-1c-0.2-0.2-0.3-0.5-0.5-0.7 c-0.2-0.3-0.5-0.7-0.7-1c-0.2-0.2-0.3-0.5-0.5-0.7c-0.2-0.4-0.5-0.7-0.7-1.1c-0.1-0.2-0.3-0.4-0.4-0.6c-0.3-0.5-0.6-1-0.9-1.5 c0-0.1-0.1-0.2-0.2-0.3c-0.3-0.6-0.6-1.2-0.9-1.8c-0.1-0.2-0.2-0.4-0.3-0.6c-0.2-0.4-0.4-0.8-0.6-1.3c-0.1-0.2-0.2-0.5-0.3-0.7 c-0.2-0.4-0.3-0.8-0.5-1.2c-0.1-0.3-0.2-0.5-0.3-0.8c-0.2-0.4-0.3-0.8-0.4-1.3c-0.1-0.2-0.2-0.5-0.2-0.7c-0.2-0.5-0.3-1-0.4-1.5 c-0.1-0.2-0.1-0.3-0.2-0.5c-0.2-0.7-0.4-1.4-0.5-2c0-0.2-0.1-0.3-0.1-0.5c-0.1-0.5-0.2-1.1-0.3-1.6c0-0.2-0.1-0.5-0.1-0.7 c-0.1-0.5-0.2-0.9-0.2-1.4c0-0.3-0.1-0.5-0.1-0.8c-0.1-0.5-0.1-0.9-0.2-1.4c0-0.3-0.1-0.5-0.1-0.8c0-0.5-0.1-1-0.1-1.5 c0-0.2,0-0.5,0-0.7c0-0.7,0-1.5,0-2.2l0-55.3l30.6,0c17.1,0,31-13.9,31-31c0,0,0,0,0,0l-61.6,0l0-31.2c0-9.1-4.3-17.3-11.1-22.4 C170.5,2.2,164.6,0,158.2,0l-2.8,0l0,59.4l-4.5,0c-17.1,0-31,13.9-31,31v0l35.5,0l0,55.3c0,1.3,0,2.6,0.1,3.9 c0,0.4,0.1,0.8,0.1,1.3c0.1,0.9,0.1,1.8,0.2,2.6c0,0.5,0.1,1,0.2,1.5c0.1,0.8,0.2,1.6,0.3,2.4c0.1,0.5,0.1,1,0.2,1.5 c0.1,0.8,0.3,1.6,0.4,2.4c0.1,0.5,0.2,0.9,0.3,1.4c0.2,0.9,0.4,1.7,0.6,2.6c0.1,0.4,0.2,0.8,0.3,1.1c0.3,1.2,0.7,2.4,1,3.6 c0,0.1,0.1,0.2,0.1,0.3c0.3,1.1,0.7,2.1,1.1,3.2c0.1,0.4,0.3,0.8,0.4,1.2c0.3,0.8,0.6,1.6,0.9,2.3c0.2,0.4,0.4,0.9,0.6,1.3 c0.3,0.7,0.6,1.4,1,2.1c0.2,0.4,0.4,0.9,0.6,1.3c0.3,0.7,0.7,1.4,1.1,2.1c0.2,0.4,0.4,0.8,0.6,1.2c0.4,0.8,0.9,1.5,1.3,2.3 c0.2,0.3,0.4,0.6,0.5,0.9c0.6,1,1.3,2.1,2,3.1c0.1,0.2,0.2,0.3,0.4,0.5c0.6,0.8,1.2,1.7,1.8,2.5c0.3,0.3,0.5,0.7,0.8,1 c0.5,0.6,1,1.3,1.5,1.9c0.3,0.4,0.6,0.7,0.9,1.1c0.5,0.6,1,1.2,1.5,1.7c0.3,0.4,0.6,0.7,1,1.1c0.5,0.6,1.1,1.1,1.6,1.7 c0.3,0.3,0.6,0.6,0.9,1c0.6,0.6,1.3,1.2,1.9,1.8c0.2,0.2,0.5,0.5,0.7,0.7c0.9,0.8,1.8,1.6,2.8,2.4c0.2,0.2,0.4,0.3,0.6,0.5 c0.7,0.6,1.5,1.2,2.3,1.8c0.3,0.3,0.7,0.5,1.1,0.8c0.6,0.5,1.3,0.9,1.9,1.4c0.4,0.3,0.8,0.5,1.2,0.8c0.6,0.4,1.3,0.8,1.9,1.2 c0.4,0.3,0.8,0.5,1.2,0.7c0.7,0.4,1.4,0.8,2.1,1.2c0.4,0.2,0.8,0.4,1.2,0.7c0.8,0.4,1.7,0.9,2.5,1.3c0.3,0.1,0.5,0.3,0.8,0.4 c1.1,0.5,2.2,1,3.4,1.5c0.3,0.1,0.6,0.2,0.9,0.4c0.9,0.4,1.7,0.7,2.6,1c0.4,0.2,0.9,0.3,1.3,0.5c0.8,0.3,1.5,0.5,2.3,0.8 c0.5,0.1,0.9,0.3,1.4,0.4"></path> <g> <linearGradient id="SVGID_1_" gradientUnits="userSpaceOnUse" x1="228.3748" y1="123.3197" x2="481.2113" y2="123.3197" gradientTransform="matrix(1 3.218190e-04 -3.218190e-04 1 5.662003e-02 -7.484010e-02)"> <stop offset="0" style="stop-color:#EEC22F"></stop> <stop offset="0.1779" style="stop-color:#EDB233"></stop> <stop offset="0.5543" style="stop-color:#EA8437"></stop> <stop offset="1" style="stop-color:#E63833"></stop> </linearGradient> <path class="st2" d="M437.7,210.5l-45.6-89.9l-32.8,50l-28.8-73.5l-54.4,106.6c-8.9,17.5-28.6,26.8-47.8,22.5l0,0l106-207.8 l32.2,82.1l29.1-44.4l85.5,168.5l0,0C465.3,232.8,445.8,226.5,437.7,210.5z"></path> </g> </g> </g> </svg> 