<?xml version="1.0" encoding="UTF-8" standalone="no"?>
<!-- Created with Inkscape (http://www.inkscape.org/) -->

<svg
   width="100"
   height="48"
   viewBox="0 0 26.458333 12.700004"
   version="1.1"
   id="svg5"
   inkscape:version="1.1 (c68e22c387, 2021-05-23)"
   sodipodi:docname="La_Red_logo.svg"
   xmlns:inkscape="http://www.inkscape.org/namespaces/inkscape"
   xmlns:sodipodi="http://sodipodi.sourceforge.net/DTD/sodipodi-0.dtd"
   xmlns="http://www.w3.org/2000/svg"
   xmlns:svg="http://www.w3.org/2000/svg"
   xmlns:rdf="http://www.w3.org/1999/02/22-rdf-syntax-ns#"
   xmlns:cc="http://creativecommons.org/ns#"
   xmlns:dc="http://purl.org/dc/elements/1.1/">
  <title
     id="title7982">Teleamiga logo</title>
  <sodipodi:namedview
     id="namedview7"
     pagecolor="#ffffff"
     bordercolor="#111111"
     borderopacity="1"
     inkscape:pageshadow="0"
     inkscape:pageopacity="0"
     inkscape:pagecheckerboard="1"
     inkscape:document-units="mm"
     showgrid="false"
     objecttolerance="1"
     gridtolerance="1"
     guidetolerance="1"
     units="px"
     inkscape:zoom="4"
     inkscape:cx="51.625"
     inkscape:cy="36"
     inkscape:window-width="1366"
     inkscape:window-height="746"
     inkscape:window-x="-8"
     inkscape:window-y="-8"
     inkscape:window-maximized="1"
     inkscape:current-layer="layer1"
     inkscape:snap-path-clip="false"
     inkscape:snap-path-mask="false"
     height="61px" />
  <defs
     id="defs2" />
  <g
     inkscape:label="Capa 1"
     inkscape:groupmode="layer"
     id="layer1">
    <g
       id="g10081"
       transform="matrix(0.05280648,0,0,0.05280648,-5.1317963,5.2853473)">
      <g
         id="#ffffffff-6"
         transform="matrix(1.5180227,0,0,1.5180227,-2038.2181,-4.5114269)"
         style="fill:#000000">
        <path
           id="path4-1-8"
           style="fill:#0f3d3a;fill-opacity:1;stroke-width:0.352779"
           d="m 1475.5084,-58.582503 c -5.3744,0.0714 -10.743,0.757353 -15.9659,2.019853 2.1802,0.93134 4.4571,1.654576 6.542,2.804636 5.7714,2.97038 10.8159,7.176507 15.3033,11.829647 4.5332,4.40972 8.9822,8.986212 14.2033,12.595133 1.6792,1.058329 3.4929,2.257865 5.5707,2.148507 2.1238,0.08471 3.5111,-1.884476 4.58,-3.454336 3.1221,-5.22464 5.2556,-11.178986 5.3649,-17.310266 -0.053,-0.46919 0.1731,-1.173432 -0.3667,-1.434482 -4.6496,-2.69522 -9.6217,-4.843708 -14.7758,-6.374758 -6.6258,-1.9943 -13.5458,-2.915764 -20.4558,-2.823934 z m -24.0067,5.011036 c -0.4572,-0.006 -0.909,0.0412 -1.3508,0.180113 -5.3305,2.20486 -10.3796,5.095304 -15.001,8.548994 1.3053,-0.0141 2.6087,-0.02925 3.9175,-0.02572 8.636,0.179918 17.0713,3.191359 24.1868,8.02795 8.9359,6.26533 17.5045,13.106748 26.9978,18.532469 4.2262,2.286001 8.8083,4.531499 13.7401,4.31631 3.1962,-0.112902 6.1263,-1.854339 8.176,-4.239116 4.5861,-5.259923 7.3772,-11.858121 8.9542,-18.603231 0.3245,-1.51342 0.7697,-3.023671 0.7591,-4.586481 -2.0779,-1.725087 -4.1787,-3.433709 -6.3941,-4.978879 -0.6773,6.43819 -2.8084,12.714557 -6.2268,18.210837 -1.6651,2.607021 -4.1498,5.059157 -7.3847,5.351967 -3.6407,0.370409 -6.9507,-1.646861 -9.7905,-3.685911 -5.9761,-4.409729 -11.0465,-9.874456 -16.384,-15.007376 -6.096,-5.71853 -13.4776,-10.628549 -21.916,-11.810349 -0.7497,-0.0683 -1.5215,-0.221445 -2.2836,-0.231575 z m -13.8624,13.038985 c -2.7792,0.0292 -5.5579,0.353521 -8.2659,0.971331 -0.5186,0.0776 -0.9052,0.434906 -1.2544,0.791216 -5.7856,5.79966 -10.6418,12.57293 -14.0425,20.037712 5.9407,-2.783412 12.4306,-4.437894 18.9957,-4.663674 8.9782,-0.37394 17.9265,1.81733 26.0651,5.532082 3.5207,1.538109 6.7942,3.572097 10.2408,5.261909 9.8425,4.977691 20.1624,9.479992 31.1726,10.9934 3.7924,0.211674 7.7064,0.474006 11.3858,-0.668993 3.1997,-0.931331 6.2045,-2.832699 8.0601,-5.647869 5.2988,-7.570612 8.188,-16.660484 9.2887,-25.769205 -1.0619,-1.41817 -2.3314,-2.667823 -3.5379,-3.962513 -1.4358,6.60752 -3.7504,13.114004 -7.6098,18.712586 -2.1695,3.182058 -4.7838,6.236256 -8.3046,7.950756 -3.6583,1.830909 -7.9824,1.778374 -11.8489,0.688296 -5.4398,-1.495781 -10.3637,-4.38193 -15.091,-7.391119 -7.1508,-4.62845 -13.9162,-9.814083 -20.8483,-14.756504 -3.3197,-2.38125 -6.9393,-4.360223 -10.7811,-5.757223 -4.3502,-1.60293 -8.9924,-2.370838 -13.6244,-2.322188 z m 95.3062,11.649545 c -1.771,8.76653 -4.8298,17.483346 -10.3437,24.630625 -3.1397,3.98990904 -8.0491,6.251054 -13.0197,6.850774 -7.6976,0.903112 -15.4147,-0.833003 -22.7137,-3.16486296 -7.881,-2.59644204 -15.455,-6.04959304 -22.7716,-9.95131504 -8.1104,-4.621388 -17.07,-8.049911 -26.4575,-8.639048 -8.7206,-0.557392 -17.6647,1.455178 -25.1259,6.065987 -0.4763,0.317496 -1.0672,0.614182 -1.1836,1.23507 -1.1571,3.589792 -1.6777,6.537593 -2.1485,10.285811 6.3554,-3.985042 15.1468,-8.269075 21.9997,-9.378806 8.0645,-1.347609 16.3706,-0.101243 24.0259,2.611657 13.6983,4.73075 26.0392,12.63346 39.7023,17.445352 5.6515,1.926158 11.7847,3.272012 17.722,1.949094 4.9989,-1.11477 9.0607,-4.584613 12.2992,-8.39461 5.0977,-6.223003 8.0818,-13.860697 10.2408,-21.530088 0.4798,-1.700391 1.0402,-3.500295 0.7333,-5.274773 -0.8784,-1.640426 -1.8901,-3.216878 -2.959,-4.740879 z m -125.0958,42.629173 c 0.2645,5.36928 1.2089,10.701779 2.7082,15.862919 0.2257,0.65969 0.2891,1.49712 1.0228,1.80757 10.3752,6.4135 21.9077,11.24958 34.0609,12.86531 6.1419,0.74083 12.4459,0.6809 18.5067,-0.65613 8.1668,-1.65805 16.1265,-4.21881 23.8523,-7.32679 6.8863,-2.74813 13.5784,-5.95046 20.3658,-8.934954 5.8773,-2.525891 11.8986,-4.996266 18.2944,-5.782956 5.4504,-0.726718 11.1349,0.271057 15.908,3.02978 0.2715,0.06001 0.7005,0.546378 0.9263,0.186545 0.2222,-1.114781 0.4344,-2.241193 0.5403,-3.377144 -1.8451,-2.395359 -4.4465,-4.111868 -7.3075,-5.043199 -4.2757,-1.513421 -8.8909,-1.534312 -13.3606,-1.241502 -6.089,0.811382 -11.9381,2.838124 -17.6319,5.081796 -6.0466,2.3495 -11.7107,5.552278 -17.722,7.982924 -8.0892,3.37961 -16.595,5.94932 -25.351,6.76071 -7.5318,0.76552 -15.1885,0.0929 -22.5015,-1.8333 -10.5199,-2.667 -20.8592,-7.312035 -28.5674,-15.129595 -1.33,-1.347612 -2.4421,-2.883205 -3.7438,-4.251984 z m 122.5421,11.926137 c -5.5401,-0.01449 -10.9108,1.813474 -16.0173,3.820992 -7.7117,3.1362 -15.1599,6.87882 -22.8681,10.02208 -7.1896,2.98802 -14.5741,5.52035 -22.1412,7.36538 -6.4346,1.63689 -13.089,2.56437 -19.7354,2.11634 -12.7176,-0.6597 -24.9016,-5.20887 -36.0035,-11.23784 1.5769,3.75003 3.5006,7.44261 5.963,10.68463 12.4284,6.87564 26.7431,10.75648 40.9953,9.90629 8.2303,-0.5962 16.3435,-2.60485 23.9423,-5.81512 6.5969,-2.73404 12.7602,-6.38327 18.9056,-10.00277 5.207,-3.02683 10.4929,-6.10761 16.3454,-7.71275 6.5758,-1.74625 13.7877,-1.18295 19.9155,1.8333 1.0125,-2.26131 1.7884,-4.62163 2.5151,-6.99229 0.011,-0.52917 -0.6632,-0.62125 -0.9842,-0.907 -2.9457,-1.760363 -6.3006,-2.826211 -9.7261,-3.055513 -0.3708,-0.01778 -0.737,-0.0247 -1.1064,-0.02569 z m -3.3064,12.517942 c -1.2456,0.007 -2.4877,0.0907 -3.7181,0.23802 -6.1559,1.1183 -11.6633,4.268 -17.0079,7.36539 -6.4593,3.79589 -12.9133,7.63976 -19.8383,10.54311 -6.3677,2.7164 -13.0746,4.65345 -19.922,5.68004 -13.8571,2.15194 -28.0816,-0.50292 -40.9438,-5.80869 4.9953,5.75733 11.1809,10.44954 17.8378,14.13254 3.2032,0.23634 6.4631,0.47976 9.6875,0.21872 10.8267,-0.22224 21.7092,-1.98124 31.8481,-5.87944 8.4031,-3.31611 15.6803,-8.78346 23.6143,-13.01326 4.8683,-2.55764 10.1846,-4.92743 15.8114,-4.59934 2.7728,-0.0283 5.3892,1.0248 7.8093,2.27716 0.4657,0.30692 0.6858,-0.42143 0.9327,-0.67543 1.7357,-2.59645 3.354,-5.27711 4.7087,-8.09228 -3.3443,-1.73831 -7.083,-2.40735 -10.8197,-2.38651 z m -4.0848,13.1229 c -0.3431,0.0115 -0.687,0.0371 -1.0292,0.0772 -4.2897,0.47625 -8.2404,2.38433 -11.9904,4.4128 -7.0874,3.93347 -13.7538,8.64862 -21.1763,11.96473 -10.9361,4.71664 -22.8527,6.65943 -34.6849,7.22387 13.9277,4.85069 29.436,4.94551 43.459,0.40526 12.6506,-4.09575 24.103,-11.94922 32.3369,-22.3985 -2.1114,-1.15138 -4.5134,-1.76493 -6.9151,-1.68535 z"
           sodipodi:nodetypes="ccccccccccccccccccccccccccccccccccccccccccccccccccccccccccccccccccccccccccccccccccccccccccccccccccccccccccccccscccccccccccsccc" />
      </g>
      <g
         id="#ffffffff-6-5"
         transform="matrix(1.5180227,0,0,1.5180227,-2163.6291,-325.31099)"
         style="fill:#000000">
        <path
           id="path4-1-8-0"
           style="fill:#174b47;fill-opacity:1;stroke-width:0.352779"
           d="m 1757.7691,150.60324 -16.3583,7.53263 v 73.70533 h 16.3711 z m -127.418,2.30932 v 16.53192 h 22.5915 v 62.38386 h 17.2137 v -62.38386 h 22.6623 v -16.53192 z m 80.0158,20.00555 c -5.0694,-0.0635 -10.2476,1.00501 -14.615,3.64731 -4.3638,2.61409 -7.8004,6.6702 -9.8677,11.30217 -1.785,3.92289 -2.601,8.22235 -2.8304,12.50508 -0.1375,4.03577 -0.029,8.11654 0.8813,12.06765 1.09,5.04825 3.3989,9.94821 7.1595,13.5536 3.5842,3.73944 8.5286,5.98855 13.6051,6.79288 3.75,0.56798 7.5913,0.57458 11.3343,-0.0323 6.6146,-1.11125 12.7344,-4.81693 16.8407,-10.11214 l -9.4882,-9.45599 c -2.4942,2.89983 -5.8335,5.1961 -9.6682,5.79582 -3.7359,0.69144 -7.9571,0.32839 -11.0192,-2.11635 -2.4942,-1.90852 -3.6012,-5.14947 -3.5765,-8.20806 l 36.679,0.0129 c 0.6103,-3.06564 0.5086,-6.23805 0.5403,-9.35308 -0.1093,-4.98122 -0.9603,-10.07142 -3.4157,-14.46703 -1.845,-3.40783 -4.6992,-6.1989 -7.9765,-8.22737 -4.3498,-2.66347 -9.5206,-3.77928 -14.5828,-3.7052 z m 80.3566,0.0129 c -5.0694,-0.0635 -10.254,1.01143 -14.6214,3.65374 -4.3638,2.61408 -7.7939,6.66376 -9.8612,11.29574 -1.785,3.92288 -2.6011,8.22879 -2.8304,12.51151 -0.1376,4.03578 -0.029,8.11654 0.8813,12.06765 1.0901,5.04825 3.3989,9.94821 7.1595,13.5536 3.5842,3.73944 8.5286,5.98855 13.6051,6.79288 3.75,0.56798 7.5913,0.57458 11.3343,-0.0323 6.6146,-1.11125 12.7343,-4.81693 16.8407,-10.11213 l -9.4882,-9.456 c -2.4941,2.89983 -5.84,5.1961 -9.6747,5.79582 -3.7359,0.69144 -7.9506,0.3284 -11.0127,-2.11634 -2.4941,-1.90853 -3.6012,-5.14949 -3.5765,-8.20807 l 36.6789,0.0128 c 0.6104,-3.06564 0.5087,-6.23805 0.5404,-9.35308 -0.1093,-4.98122 -0.9604,-10.07142 -3.4158,-14.46703 -1.845,-3.40771 -4.6991,-6.19878 -7.9764,-8.22725 -4.3498,-2.66347 -9.5205,-3.78573 -14.5829,-3.71164 z m -81.0707,13.85592 c 0.8357,-0.0109 1.6716,0.0549 2.483,0.18012 2.0179,0.35278 4.0542,1.09824 5.4935,2.61166 1.7921,1.74978 2.6563,4.23939 2.9526,6.67709 l -21.4079,0.0515 c 0.3317,-2.67406 1.4342,-5.3583 3.5509,-7.10808 1.905,-1.6801 4.4206,-2.37968 6.9279,-2.41225 z m 80.3567,0.0194 c 0.8357,-0.0109 1.6716,0.0549 2.483,0.18012 2.0179,0.35278 4.0542,1.09182 5.4935,2.60522 1.7921,1.74978 2.6563,4.24584 2.9526,6.68353 l -21.4079,0.0515 c 0.3316,-2.67406 1.4341,-5.3583 3.5508,-7.10808 1.905,-1.6801 4.4208,-2.37967 6.928,-2.41225 z"
           sodipodi:nodetypes="ccccccccccccccccccccccccccccccccccccccccccccccccccccccccscccccsccccc" />
        <path
           id="path626"
           style="fill:#22746b;fill-opacity:1;stroke-width:0.352779"
           d="m 1734.8363,234.31738 c -3.535,-2.7e-4 -6.4007,2.86549 -6.4005,6.40049 -2e-4,3.53501 2.8655,6.40076 6.4005,6.40049 3.535,2.7e-4 6.4008,-2.86548 6.4005,-6.40049 3e-4,-3.535 -2.8655,-6.40076 -6.4005,-6.40049 z m 25.364,15.51556 c -1.2466,2.4e-4 -2.4897,0.13609 -3.6859,0.37309 -4.445,0.89607 -8.1206,4.16732 -10.1315,8.15017 -2.473,4.74487 -2.788,10.27328 -2.3929,15.51556 0.4022,4.55789 1.7716,9.3089 5.0947,12.61443 2.7834,2.96686 6.9167,4.43729 10.9419,4.34204 2.7587,0.10935 5.6131,-0.54336 7.8285,-2.25786 -0.1481,1.33703 -0.2389,2.78881 -1.1385,3.87889 -1.1077,1.50283 -3.0662,1.83826 -4.7666,2.21926 -2.5012,0.43039 -5.0149,0.90182 -7.5584,0.88771 l 6.1046,9.57179 c 4.2968,-0.11291 8.6932,-1.07102 12.415,-3.29352 2.5541,-1.51342 4.1513,-4.19767 4.9274,-6.99873 1.3335,-4.18394 1.1216,-8.61681 1.1322,-12.94892 v -31.11474 l -11.0899,-0.007 -0.039,1.49881 c -2.1586,-1.76066 -4.8993,-2.43191 -7.642,-2.43139 z m -73.0556,0.0194 c -0.8017,0.0221 -1.5967,0.10773 -2.3737,0.24445 -2.5718,0.49742 -4.6207,2.19551 -6.4198,3.99468 l -0.026,-3.35785 h -11.1864 l 0.013,39.20058 11.1606,0.007 c 0.074,-7.27781 -0.01,-14.55814 0.045,-21.83242 0.1376,-2.04964 0.2776,-4.28801 1.6146,-5.95664 1.4323,-1.44287 3.6637,-1.65424 5.5899,-1.46021 1.5063,0.11643 2.9933,0.97291 3.5895,2.41225 1.0654,2.46237 0.9449,5.21963 0.952,7.84783 0.01,6.32883 0.013,18.98276 0.013,18.98276 l 11.2057,-0.0257 c 0,0 0,-11.93307 -0.013,-17.90207 0.025,-2.86103 -0.2193,-5.83199 0.8426,-8.55543 0.4657,-1.27353 1.6123,-2.20763 2.914,-2.5216 1.898,-0.43745 4.1237,-0.55597 5.7959,0.60467 1.8697,1.4605 1.966,4.07652 2.1742,6.2461 0.099,7.38011 0.045,22.14762 0.045,22.14762 l 11.2057,-0.0128 -0.013,-21.7874 c -0.032,-2.91041 0.014,-5.86579 -0.6625,-8.71624 -0.5539,-2.30011 -1.5691,-4.57975 -3.3965,-6.14961 -3.055,-2.73756 -7.3549,-3.49875 -11.3343,-3.39644 -4.0463,-0.0353 -8.3385,1.2766 -11.0513,4.41279 -0.2752,0.23635 -0.4453,0.66049 -0.8298,0.72046 -0.8043,-1.27706 -1.6971,-2.55101 -2.9847,-3.38357 -2.0188,-1.33085 -4.4589,-1.82869 -6.8637,-1.76255 z m 114.3532,0 c -1.0186,-0.0142 -2.0363,0.0132 -3.0426,0.0643 -5.0588,0.33161 -10.1172,1.87071 -14.287,4.79876 l 3.3707,8.57472 c 3.1997,-2.03552 6.7612,-3.65829 10.5818,-4.00754 2.4341,-0.2928 5.3208,-0.18708 7.0952,1.74968 1.3794,1.51695 1.2578,3.71009 1.2543,5.62214 -3.2456,-1.13947 -6.7265,-1.42911 -10.1378,-1.23507 -4.3074,0.28927 -8.7172,1.86736 -11.6946,5.08823 -2.6071,2.83634 -3.0226,7.0118 -2.3029,10.65247 0.5326,2.81869 2.2075,5.38196 4.5994,6.97299 3.5454,2.46238 8.0812,3.03063 12.2863,2.54733 2.734,-0.3034 5.2759,-1.61532 7.2303,-3.53796 l 0.039,2.79821 11.1157,-0.0194 c 0,0 0,-15.00135 0.01,-22.50141 -0.07,-3.06564 -0.062,-6.22103 -1.1772,-9.12794 -1.0372,-2.8963 -3.2598,-5.34026 -6.0467,-6.63849 -2.7729,-1.3335 -5.8338,-1.75848 -8.8899,-1.80115 z m -155.0076,0.007 c -1.0187,-0.0142 -2.0364,0.0132 -3.0427,0.0643 -5.0588,0.33161 -10.1106,1.87071 -14.2804,4.79876 l 3.3707,8.57472 c 3.1997,-2.03553 6.7547,-3.65829 10.5752,-4.00754 2.4342,-0.29279 5.3272,-0.18065 7.1017,1.75612 1.3794,1.51694 1.258,3.70364 1.2544,5.6157 -3.2455,-1.13947 -6.7265,-1.42911 -10.1379,-1.23507 -4.3074,0.28927 -8.7235,1.86737 -11.701,5.08823 -2.607,2.83634 -3.0161,7.0118 -2.2965,10.65247 0.5327,2.81869 2.2076,5.38197 4.5994,6.973 3.5455,2.46238 8.0748,3.03064 12.2799,2.54733 2.7341,-0.30337 5.2824,-1.61532 7.2368,-3.53796 l 0.039,2.7982 11.1156,-0.0194 c 0,0 0,-15.00137 0.01,-22.50142 -0.071,-3.06564 -0.062,-6.22104 -1.1772,-9.12793 -1.0371,-2.8963 -3.2598,-5.34028 -6.0467,-6.6385 -2.7729,-1.3335 -5.8338,-1.75848 -8.8899,-1.80114 z m 82.7561,0.90701 v 39.14912 h 11.1606 v -39.14941 z m 33.1024,9.85482 h 0.01 c 2.1179,0.0483 4.2254,0.83657 5.4806,2.58592 v 14.41558 c -1.5204,2.06022 -4.367,2.56581 -6.78,2.39294 -2.2084,-0.0776 -4.2308,-1.56488 -5.0175,-3.62158 -1.2277,-3.15383 -1.3401,-6.69559 -0.624,-9.98348 0.4763,-2.27894 1.8444,-4.58725 4.1234,-5.41629 0.8865,-0.26509 1.8495,-0.39367 2.811,-0.37309 z m 37.5281,13.66295 c 2.1967,0.0138 4.4246,0.42644 6.542,0.84911 l 0.052,3.51866 c -2.2296,1.82739 -5.0989,2.94181 -8.0023,2.77248 -1.8027,-0.0211 -3.9523,-0.2593 -5.0882,-1.83974 -0.949,-1.54517 -0.2115,-3.7695 1.4924,-4.42567 1.6067,-0.65749 3.296,-0.88546 5.0046,-0.87484 z m -155.0012,0.007 c 2.1968,0.0138 4.4247,0.42644 6.542,0.84911 l 0.052,3.51866 c -2.2295,1.82739 -5.0989,2.9418 -8.0022,2.77247 -1.8027,-0.0211 -3.9587,-0.2593 -5.0947,-1.83974 -0.949,-1.54517 -0.2051,-3.76949 1.4988,-4.42566 1.6067,-0.65749 3.2961,-0.88546 5.0046,-0.87484 z"
           sodipodi:nodetypes="cccccccccccccccsccccccccccccccccccccccccccccccscccccccccccccccccscccccccccccccccccccccccccccccscccscccccccsscsccccscscccccssc" />
      </g>
    </g>
  </g>
  <metadata
     id="metadata7980">
    <rdf:RDF>
      <cc:Work
         rdf:about="">
        <dc:title>Teleamiga logo</dc:title>
        <dc:date>13 agt 2021</dc:date>
        <cc:license
           rdf:resource="http://scripts.sil.org/OFL" />
        <dc:language>es</dc:language>
      </cc:Work>
      <cc:License
         rdf:about="http://scripts.sil.org/OFL">
        <cc:permits
           rdf:resource="http://scripts.sil.org/pub/OFL/Reproduction" />
        <cc:permits
           rdf:resource="http://scripts.sil.org/pub/OFL/Distribution" />
        <cc:permits
           rdf:resource="http://scripts.sil.org/pub/OFL/Embedding" />
        <cc:permits
           rdf:resource="http://scripts.sil.org/pub/OFL/DerivativeWorks" />
        <cc:requires
           rdf:resource="http://scripts.sil.org/pub/OFL/Notice" />
        <cc:requires
           rdf:resource="http://scripts.sil.org/pub/OFL/Attribution" />
        <cc:requires
           rdf:resource="http://scripts.sil.org/pub/OFL/ShareAlike" />
        <cc:requires
           rdf:resource="http://scripts.sil.org/pub/OFL/DerivativeRenaming" />
        <cc:requires
           rdf:resource="http://scripts.sil.org/pub/OFL/BundlingWhenSelling" />
      </cc:License>
    </rdf:RDF>
  </metadata>
</svg>
