<svg id="svg" version="1.1" xmlns="http://www.w3.org/2000/svg" xmlns:xlink="http://www.w3.org/1999/xlink" width="400" height="400" viewBox="0, 0, 400,400"><g id="svgg"><path id="path0" d="M156.600 86.792 C 153.080 86.957,148.756 87.116,146.992 87.146 L 143.784 87.200 142.292 89.100 C 140.413 91.493,134.493 99.096,132.248 102.000 C 129.366 105.728,122.696 114.332,120.800 116.769 C 118.968 119.123,117.110 121.531,112.441 127.600 C 111.003 129.470,109.505 131.349,109.113 131.775 C 108.721 132.202,108.400 132.720,108.400 132.927 C 108.400 133.519,104.639 132.801,101.400 131.590 C 100.960 131.426,99.790 131.070,98.800 130.800 C 97.810 130.530,96.640 130.173,96.200 130.007 C 95.760 129.841,94.230 129.339,92.800 128.891 C 83.239 125.899,80.922 125.139,80.305 124.792 C 79.923 124.576,79.284 124.400,78.885 124.400 C 78.486 124.400,77.989 124.257,77.780 124.082 C 77.571 123.907,76.680 123.535,75.800 123.255 C 74.920 122.976,73.840 122.588,73.400 122.394 C 72.960 122.199,71.790 121.777,70.800 121.455 C 69.810 121.134,66.840 120.028,64.200 118.998 C 61.560 117.968,59.130 117.022,58.800 116.895 C 56.178 115.887,65.357 122.931,71.200 126.411 C 77.437 130.125,95.731 139.200,96.983 139.200 C 97.900 139.200,101.575 141.322,101.343 141.718 C 100.975 142.345,97.540 146.841,96.929 147.496 C 96.669 147.773,96.246 148.000,95.988 148.000 C 95.175 148.000,77.328 141.896,72.600 140.001 C 72.160 139.825,71.170 139.464,70.400 139.200 C 69.630 138.936,68.595 138.557,68.100 138.360 C 67.605 138.162,66.795 137.840,66.300 137.645 C 63.671 136.607,57.630 134.191,56.500 133.725 C 51.723 131.756,61.051 139.274,69.641 144.317 C 76.121 148.121,83.700 152.058,88.700 154.219 C 90.943 155.189,90.889 155.437,87.500 159.771 C 85.905 161.811,84.150 164.072,83.600 164.796 C 82.716 165.961,77.280 172.926,75.179 175.587 C 73.916 177.187,73.597 177.031,81.400 178.638 C 84.873 179.353,86.966 179.824,89.300 180.418 C 90.125 180.628,91.475 180.972,92.300 181.182 C 93.125 181.392,94.520 181.735,95.400 181.944 C 98.999 182.800,108.469 185.348,110.400 185.980 C 110.950 186.160,112.210 186.532,113.200 186.807 C 114.190 187.082,115.990 187.618,117.200 187.998 C 118.410 188.378,120.750 189.099,122.400 189.600 C 124.050 190.101,126.390 190.830,127.600 191.220 C 128.810 191.610,132.410 192.757,135.600 193.768 C 138.790 194.779,141.713 195.785,142.095 196.003 C 142.477 196.222,143.141 196.400,143.571 196.400 C 144.001 196.400,144.464 196.580,144.600 196.800 C 144.736 197.020,145.251 197.200,145.744 197.200 C 146.237 197.200,146.811 197.343,147.020 197.518 C 147.229 197.693,148.120 198.066,149.000 198.347 C 149.880 198.628,151.500 199.189,152.600 199.595 C 153.700 200.000,155.950 200.812,157.600 201.398 C 159.250 201.984,160.960 202.612,161.400 202.792 C 161.840 202.972,162.830 203.336,163.600 203.600 C 165.816 204.361,167.292 204.945,170.039 206.149 C 170.830 206.496,173.107 207.401,175.097 208.161 C 177.088 208.920,179.515 209.906,180.490 210.350 C 181.466 210.795,183.225 211.537,184.400 212.000 C 185.575 212.463,187.270 213.171,188.168 213.574 C 189.065 213.977,191.150 214.892,192.800 215.608 C 203.763 220.365,219.561 227.940,228.200 232.581 C 230.180 233.645,233.150 235.236,234.800 236.117 C 236.450 236.998,238.278 238.052,238.862 238.460 C 239.446 238.867,240.035 239.200,240.170 239.200 C 240.306 239.200,241.088 239.625,241.909 240.144 C 244.090 241.524,247.293 243.356,248.111 243.691 C 248.697 243.931,249.660 242.712,253.637 236.691 C 256.286 232.681,258.687 229.110,258.974 228.756 C 259.261 228.402,259.564 227.944,259.648 227.737 C 259.839 227.267,278.785 198.731,279.234 198.238 C 279.415 198.039,284.567 197.847,290.682 197.811 C 304.643 197.728,310.131 197.378,319.800 195.952 C 327.194 194.861,333.622 193.018,338.713 190.527 C 341.612 189.109,342.075 189.169,326.942 189.000 C 305.045 188.754,287.200 187.570,287.200 186.361 C 287.200 185.892,292.368 178.326,292.975 177.906 C 293.209 177.744,295.560 177.608,298.200 177.602 C 308.091 177.581,321.456 176.235,329.600 174.440 C 330.590 174.222,331.940 173.930,332.600 173.791 C 333.260 173.653,334.160 173.394,334.600 173.215 C 335.040 173.037,336.210 172.650,337.200 172.356 C 339.182 171.767,343.760 169.608,344.969 168.692 C 345.646 168.179,344.257 168.134,333.369 168.315 C 320.450 168.529,300.000 167.792,300.000 167.113 C 300.000 166.798,316.128 142.139,317.079 141.000 C 317.263 140.780,318.063 139.610,318.856 138.400 C 319.649 137.190,324.416 129.990,329.448 122.400 C 334.480 114.810,338.647 108.420,338.709 108.200 C 338.823 107.790,336.153 106.800,334.935 106.800 C 334.562 106.800,333.704 106.626,333.028 106.413 C 332.353 106.200,330.270 105.668,328.400 105.231 C 321.849 103.699,311.753 101.382,307.400 100.412 C 306.520 100.216,304.945 99.863,303.900 99.628 C 302.855 99.393,301.235 99.033,300.300 98.828 C 299.365 98.623,297.790 98.278,296.800 98.060 C 295.810 97.843,293.920 97.455,292.600 97.199 C 291.280 96.942,289.840 96.654,289.400 96.558 C 288.693 96.403,281.446 95.087,275.200 93.979 C 273.076 93.602,270.699 93.217,265.200 92.359 C 262.702 91.969,260.251 91.680,252.000 90.802 C 249.910 90.580,246.580 90.223,244.600 90.009 C 242.620 89.795,239.200 89.431,237.000 89.200 C 234.800 88.969,231.380 88.603,229.400 88.388 C 216.038 86.933,173.483 86.000,156.600 86.792 M213.600 101.958 C 216.790 102.170,221.200 102.531,223.400 102.760 C 225.600 102.989,229.200 103.353,231.400 103.570 C 248.051 105.207,253.239 105.879,262.800 107.642 C 268.056 108.611,269.492 108.884,271.000 109.200 C 271.880 109.384,273.680 109.744,275.000 110.000 C 276.320 110.256,278.120 110.626,279.000 110.823 C 279.880 111.020,284.020 111.927,288.200 112.837 C 296.354 114.613,297.513 114.870,300.600 115.584 C 301.700 115.838,303.320 116.192,304.200 116.369 C 306.243 116.782,307.200 117.190,307.200 117.649 C 307.200 117.973,298.167 131.505,297.621 132.000 C 297.324 132.269,297.176 132.483,285.775 149.200 C 273.621 167.021,274.684 165.735,272.401 165.386 C 271.411 165.235,268.980 164.947,267.000 164.746 C 259.453 163.979,244.029 162.044,236.000 160.858 C 226.404 159.439,223.942 159.065,218.400 158.184 C 211.855 157.143,208.890 156.613,206.094 155.984 C 205.156 155.773,203.917 155.600,203.341 155.600 C 202.764 155.600,201.642 155.433,200.846 155.228 C 200.051 155.024,198.365 154.664,197.100 154.428 C 191.761 153.434,171.227 149.347,168.600 148.756 C 166.852 148.362,164.084 147.776,162.200 147.401 C 161.540 147.270,160.370 147.002,159.600 146.806 C 158.830 146.611,157.390 146.266,156.400 146.041 C 149.473 144.464,133.619 140.632,131.400 139.997 C 130.740 139.809,129.390 139.429,128.400 139.153 C 127.410 138.877,126.535 138.605,126.456 138.549 C 126.187 138.356,133.425 129.148,142.452 118.200 C 142.815 117.760,144.340 115.870,145.841 114.000 C 147.342 112.130,148.756 110.389,148.985 110.131 C 149.213 109.874,150.750 107.953,152.400 105.864 L 155.400 102.066 158.800 101.813 C 160.670 101.675,162.650 101.499,163.200 101.423 C 165.282 101.136,208.057 101.590,213.600 101.958 M211.000 108.399 C 194.551 110.389,182.858 130.724,190.874 143.402 C 198.705 155.788,220.789 150.709,228.278 134.800 C 235.347 119.784,226.657 106.506,211.000 108.399 M125.133 149.545 C 130.758 151.409,139.607 154.059,148.000 156.392 C 148.990 156.668,150.250 157.031,150.800 157.200 C 151.732 157.486,152.360 157.654,156.600 158.746 C 161.160 159.921,164.980 160.856,168.400 161.632 C 170.490 162.107,172.830 162.646,173.600 162.830 C 176.782 163.589,178.702 164.026,180.500 164.402 C 181.545 164.621,183.255 164.979,184.300 165.198 C 185.345 165.416,187.010 165.778,188.000 166.002 C 188.990 166.226,190.790 166.587,192.000 166.804 C 193.210 167.022,195.100 167.372,196.200 167.583 C 199.338 168.185,209.548 170.011,212.200 170.443 C 218.763 171.515,227.912 172.878,232.000 173.394 C 232.990 173.519,234.970 173.789,236.400 173.994 C 237.830 174.199,240.890 174.562,243.200 174.800 C 245.510 175.039,248.930 175.403,250.800 175.608 C 252.670 175.814,256.855 176.196,260.100 176.456 C 267.008 177.011,266.857 176.833,263.941 181.010 C 261.534 184.457,261.618 184.409,258.787 183.969 C 257.584 183.782,253.810 183.248,250.400 182.783 C 239.495 181.294,229.512 179.754,222.200 178.430 C 221.100 178.231,219.120 177.882,217.800 177.654 C 216.480 177.426,214.410 177.061,213.200 176.843 C 211.990 176.624,209.380 176.157,207.400 175.804 C 204.248 175.242,199.091 174.254,191.600 172.775 C 190.390 172.536,188.770 172.183,188.000 171.991 C 187.230 171.799,185.970 171.524,185.200 171.380 C 184.430 171.236,183.080 170.955,182.200 170.757 C 181.320 170.558,179.700 170.208,178.600 169.980 C 172.093 168.630,166.188 167.280,154.000 164.357 C 148.062 162.933,148.208 162.970,144.400 161.945 C 142.750 161.500,140.770 160.988,140.000 160.807 C 139.230 160.626,137.520 160.181,136.200 159.820 C 132.122 158.702,124.642 156.710,123.800 156.517 C 123.360 156.416,122.640 156.189,122.200 156.012 C 121.760 155.836,120.590 155.472,119.600 155.204 C 118.610 154.936,117.387 154.555,116.881 154.358 C 116.376 154.161,115.611 154.000,115.181 154.000 C 113.656 154.000,114.252 152.824,117.764 148.900 C 119.174 147.325,118.174 147.238,125.133 149.545 M110.000 162.993 C 110.990 163.368,112.160 163.826,112.600 164.011 C 113.040 164.196,114.570 164.731,116.000 165.200 C 117.430 165.669,118.960 166.213,119.400 166.409 C 120.301 166.811,123.694 167.920,131.600 170.394 C 134.570 171.323,137.360 172.224,137.800 172.396 C 138.240 172.568,139.410 172.930,140.400 173.201 C 141.390 173.471,142.650 173.833,143.200 174.005 C 145.989 174.875,150.195 176.073,153.600 176.966 C 155.690 177.514,158.390 178.233,159.600 178.563 C 160.810 178.893,162.250 179.271,162.800 179.404 C 163.350 179.536,164.520 179.829,165.400 180.055 C 166.280 180.281,167.675 180.631,168.500 180.833 C 169.325 181.035,170.675 181.369,171.500 181.575 C 172.325 181.781,173.810 182.131,174.800 182.353 C 175.790 182.575,178.130 183.119,180.000 183.562 C 181.870 184.005,185.650 184.830,188.400 185.396 C 191.150 185.961,194.120 186.584,195.000 186.779 C 195.880 186.975,197.635 187.330,198.900 187.568 C 200.165 187.805,202.235 188.195,203.500 188.432 C 204.765 188.670,206.520 189.022,207.400 189.213 C 208.280 189.405,209.630 189.660,210.400 189.779 C 211.170 189.899,212.970 190.192,214.400 190.430 C 221.115 191.550,236.189 193.739,241.800 194.411 C 251.443 195.564,253.001 195.846,252.953 196.430 C 252.899 197.085,239.001 217.571,238.151 218.248 C 237.447 218.809,237.497 218.831,224.004 212.147 C 213.565 206.975,209.348 204.947,205.400 203.200 C 204.300 202.713,202.242 201.784,200.828 201.137 C 199.413 200.489,196.713 199.323,194.828 198.545 C 192.942 197.768,190.770 196.859,190.000 196.525 C 189.230 196.191,188.240 195.781,187.800 195.613 C 187.360 195.445,186.505 195.103,185.900 194.854 C 185.295 194.604,184.395 194.233,183.900 194.029 C 181.515 193.045,171.992 189.457,170.400 188.942 C 169.410 188.622,168.240 188.198,167.800 188.000 C 166.679 187.497,152.261 182.733,147.200 181.195 C 144.890 180.492,142.640 179.771,142.200 179.592 C 141.760 179.413,140.950 179.150,140.400 179.006 C 139.430 178.754,138.194 178.405,135.500 177.623 C 131.659 176.507,124.070 174.473,121.200 173.790 C 117.829 172.987,115.696 172.436,114.172 171.973 C 113.496 171.768,112.609 171.600,112.200 171.600 C 111.791 171.600,110.904 171.431,110.228 171.224 C 109.553 171.017,107.920 170.642,106.600 170.389 C 105.280 170.137,103.787 169.850,103.283 169.753 C 101.658 169.439,101.865 168.527,104.244 165.522 C 106.761 162.342,107.196 161.931,107.800 162.160 C 108.020 162.244,109.010 162.619,110.000 162.993 M180.618 272.025 C 166.204 275.642,162.844 297.769,175.400 306.389 C 179.889 309.471,188.016 310.214,192.495 307.951 C 193.785 307.299,194.828 307.594,196.409 309.056 C 199.545 311.958,199.501 311.950,201.256 309.959 L 202.806 308.200 200.803 306.316 C 198.545 304.191,198.479 303.974,199.615 302.379 C 206.376 292.884,203.160 277.937,193.337 273.199 C 190.355 271.761,184.004 271.175,180.618 272.025 M53.283 275.500 L 53.400 278.600 58.700 278.712 L 64.000 278.823 64.000 293.612 L 64.000 308.400 67.795 308.400 L 71.590 308.400 71.695 293.700 L 71.800 279.000 77.300 278.889 L 82.800 278.777 82.800 275.589 L 82.800 272.400 67.983 272.400 L 53.166 272.400 53.283 275.500 M91.859 275.195 C 89.534 278.691,89.541 278.802,92.100 278.792 C 94.168 278.785,94.252 278.736,97.600 275.608 L 101.000 272.432 97.359 272.416 L 93.717 272.400 91.859 275.195 M109.600 290.400 L 109.600 308.400 113.000 308.400 L 116.400 308.400 116.400 290.400 L 116.400 272.400 113.000 272.400 L 109.600 272.400 109.600 290.400 M131.612 275.382 C 129.162 279.013,129.160 278.800,131.642 278.800 C 133.867 278.800,134.078 278.670,138.514 274.549 L 140.829 272.400 137.227 272.400 L 133.624 272.400 131.612 275.382 M246.631 274.977 C 243.924 278.770,243.923 278.802,246.457 278.791 C 248.753 278.781,248.507 278.936,253.500 274.346 C 255.694 272.329,255.755 272.400,251.835 272.400 L 248.470 272.400 246.631 274.977 M263.867 272.667 C 263.720 272.813,263.600 280.913,263.600 290.667 L 263.600 308.400 267.000 308.400 L 270.400 308.400 270.400 307.000 C 270.400 305.293,270.480 305.286,272.328 306.838 C 278.448 311.976,287.215 308.628,289.430 300.306 C 293.018 286.827,281.912 276.689,272.054 284.443 C 270.546 285.630,270.400 285.112,270.400 278.576 L 270.400 272.400 267.267 272.400 C 265.543 272.400,264.013 272.520,263.867 272.667 M190.026 278.900 C 191.752 279.813,194.372 282.887,194.390 284.020 C 194.396 284.361,194.616 284.856,194.879 285.119 C 195.824 286.064,195.497 294.702,194.432 296.900 C 193.366 299.101,193.031 299.190,191.397 297.698 C 188.936 295.451,189.100 295.464,187.242 297.357 L 185.539 299.092 187.064 300.531 C 189.011 302.368,188.562 302.938,185.191 302.906 C 171.743 302.780,171.813 278.149,185.262 278.028 C 187.703 278.006,188.669 278.183,190.026 278.900 M91.200 282.013 C 80.313 283.069,76.049 298.438,84.514 306.115 C 90.626 311.659,103.730 308.881,104.871 301.800 C 105.096 300.402,99.836 300.393,98.737 301.789 C 96.150 305.078,89.770 304.703,87.929 301.155 C 85.687 296.836,85.738 296.813,97.300 296.805 L 106.000 296.800 106.000 295.655 C 106.000 286.670,100.019 281.158,91.200 282.013 M131.200 281.910 C 129.523 282.012,128.985 282.174,126.434 283.354 C 120.683 286.012,118.097 295.454,121.272 302.200 C 125.436 311.047,139.697 311.634,144.032 303.137 C 144.454 302.309,144.800 301.445,144.800 301.216 C 144.800 300.555,139.309 300.682,138.920 301.351 C 136.253 305.947,127.877 304.393,126.990 299.139 C 126.599 296.826,126.654 296.813,136.700 296.806 L 145.600 296.800 145.600 294.787 C 145.600 287.982,140.854 282.327,134.800 281.921 C 133.810 281.854,132.190 281.849,131.200 281.910 M246.000 281.910 C 245.010 281.970,243.750 282.219,243.200 282.463 C 242.650 282.707,241.752 283.108,241.203 283.354 C 240.655 283.599,239.442 284.580,238.506 285.534 C 236.934 287.137,236.516 287.829,235.256 290.919 C 234.645 292.417,234.686 298.638,235.318 300.453 C 237.950 308.007,246.365 311.275,254.200 307.787 C 256.114 306.935,259.600 302.836,259.600 301.438 C 259.600 300.425,254.242 300.519,253.523 301.545 C 250.405 305.992,242.584 304.306,241.723 299.002 C 241.375 296.860,241.582 296.813,251.500 296.806 L 260.400 296.800 260.400 294.728 C 260.400 289.956,256.103 282.800,253.237 282.800 C 252.865 282.800,252.389 282.641,252.180 282.447 C 251.732 282.031,248.550 281.754,246.000 281.910 M303.600 282.013 C 293.437 282.999,288.772 297.107,295.918 305.246 C 299.363 309.169,306.530 310.343,311.919 307.867 C 314.172 306.832,317.600 302.786,317.600 301.162 C 317.600 300.207,312.159 300.779,311.170 301.838 C 307.970 305.263,302.134 304.693,300.122 300.758 C 298.116 296.837,298.175 296.813,309.700 296.805 L 318.400 296.800 318.400 295.146 C 318.400 286.677,312.204 281.179,303.600 282.013 M331.800 282.017 C 323.617 283.013,318.876 291.680,321.670 300.534 C 325.067 311.296,340.699 312.391,345.458 302.200 C 346.985 298.931,346.900 298.800,343.268 298.800 L 340.137 298.800 339.368 300.491 C 336.429 306.961,328.518 304.377,327.724 296.688 C 326.874 288.454,335.606 282.954,339.070 289.542 L 339.836 291.000 343.118 291.116 C 346.684 291.242,346.667 291.257,345.823 288.865 C 344.000 283.698,338.810 281.164,331.800 282.017 M206.948 282.991 C 206.268 284.763,207.037 302.592,207.873 304.443 C 210.231 309.667,217.886 310.839,222.610 306.700 C 224.738 304.836,224.800 304.839,224.800 306.800 L 224.800 308.400 228.000 308.400 C 230.930 308.400,231.201 308.333,231.210 307.600 C 231.215 307.160,231.219 303.470,231.219 299.400 C 231.219 295.330,231.215 289.833,231.210 287.184 L 231.200 282.368 227.900 282.484 L 224.600 282.600 224.397 291.400 C 224.261 297.308,224.032 300.486,223.700 301.069 C 222.411 303.333,219.516 304.430,217.012 303.604 C 214.374 302.733,214.224 302.147,214.000 291.819 L 213.800 282.600 210.494 282.484 C 207.794 282.389,207.143 282.482,206.948 282.991 M95.981 287.501 C 97.404 288.221,99.488 291.610,98.997 292.404 C 98.566 293.102,87.219 292.914,86.947 292.205 C 85.732 289.040,92.285 285.628,95.981 287.501 M136.331 287.650 C 137.401 288.318,138.974 291.370,138.664 292.178 C 138.421 292.812,128.563 293.144,127.064 292.569 C 125.695 292.044,128.576 287.496,130.559 287.052 C 131.962 286.738,135.450 287.099,136.331 287.650 M251.856 288.592 C 253.042 289.951,253.754 291.827,253.340 292.498 C 253.237 292.664,250.530 292.800,247.324 292.800 L 241.495 292.800 241.733 291.334 C 241.996 289.717,243.994 287.358,245.359 287.052 C 247.884 286.487,250.577 287.125,251.856 288.592 M279.453 287.452 C 284.097 289.656,284.468 300.078,280.010 303.100 C 275.293 306.297,270.217 301.966,270.495 294.982 C 270.746 288.668,274.812 285.250,279.453 287.452 M309.015 287.773 C 310.144 288.513,311.806 291.744,311.397 292.405 C 311.254 292.636,308.747 292.800,305.364 292.800 C 298.716 292.800,298.493 292.676,300.126 289.890 C 301.038 288.334,301.826 287.687,303.600 287.039 C 304.710 286.634,307.945 287.072,309.015 287.773 M148.882 294.700 L 149.000 297.400 156.400 297.400 L 163.800 297.400 163.918 294.700 L 164.037 292.000 156.400 292.000 L 148.763 292.000 148.882 294.700 " stroke="none" fill="#f8f9fa" fill-rule="evenodd"></path><path id="path1" d="M0.000 200.000 L 0.000 400.000 200.000 400.000 L 400.000 400.000 400.000 200.000 L 400.000 0.000 200.000 0.000 L 0.000 0.000 0.000 200.000 M216.400 87.388 C 221.570 87.722,227.420 88.172,229.400 88.388 C 231.380 88.603,234.800 88.969,237.000 89.200 C 239.200 89.431,242.620 89.795,244.600 90.009 C 246.580 90.223,249.910 90.580,252.000 90.802 C 260.251 91.680,262.702 91.969,265.200 92.359 C 270.699 93.217,273.076 93.602,275.200 93.979 C 281.446 95.087,288.693 96.403,289.400 96.558 C 289.840 96.654,291.280 96.942,292.600 97.199 C 293.920 97.455,295.810 97.843,296.800 98.060 C 297.790 98.278,299.365 98.623,300.300 98.828 C 301.235 99.033,302.855 99.393,303.900 99.628 C 304.945 99.863,306.520 100.216,307.400 100.412 C 311.753 101.382,321.849 103.699,328.400 105.231 C 330.270 105.668,332.353 106.200,333.028 106.413 C 333.704 106.626,334.562 106.800,334.935 106.800 C 336.153 106.800,338.823 107.790,338.709 108.200 C 338.647 108.420,334.480 114.810,329.448 122.400 C 324.416 129.990,319.649 137.190,318.856 138.400 C 318.063 139.610,317.263 140.780,317.079 141.000 C 316.128 142.139,300.000 166.798,300.000 167.113 C 300.000 167.792,320.450 168.529,333.369 168.315 C 344.257 168.134,345.646 168.179,344.969 168.692 C 343.760 169.608,339.182 171.767,337.200 172.356 C 336.210 172.650,335.040 173.037,334.600 173.215 C 334.160 173.394,333.260 173.653,332.600 173.791 C 331.940 173.930,330.590 174.222,329.600 174.440 C 321.456 176.235,308.091 177.581,298.200 177.602 C 292.525 177.614,293.206 177.247,289.875 182.085 C 286.156 187.487,285.898 187.132,293.918 187.648 C 309.851 188.673,314.403 188.859,326.942 189.000 C 342.075 189.169,341.612 189.109,338.713 190.527 C 333.622 193.018,327.194 194.861,319.800 195.952 C 310.131 197.378,304.643 197.728,290.682 197.811 C 284.567 197.847,279.415 198.039,279.234 198.238 C 278.785 198.731,259.839 227.267,259.648 227.737 C 259.564 227.944,259.261 228.402,258.974 228.756 C 258.687 229.110,256.286 232.681,253.637 236.691 C 249.660 242.712,248.697 243.931,248.111 243.691 C 247.293 243.356,244.090 241.524,241.909 240.144 C 241.088 239.625,240.306 239.200,240.170 239.200 C 240.035 239.200,239.446 238.867,238.862 238.460 C 238.278 238.052,236.450 236.998,234.800 236.117 C 233.150 235.236,230.180 233.645,228.200 232.581 C 219.561 227.940,203.763 220.365,192.800 215.608 C 191.150 214.892,189.065 213.977,188.168 213.574 C 187.270 213.171,185.575 212.463,184.400 212.000 C 183.225 211.537,181.466 210.795,180.490 210.350 C 179.515 209.906,177.088 208.920,175.097 208.161 C 173.107 207.401,170.830 206.496,170.039 206.149 C 167.292 204.945,165.816 204.361,163.600 203.600 C 162.830 203.336,161.840 202.972,161.400 202.792 C 160.960 202.612,159.250 201.984,157.600 201.398 C 155.950 200.812,153.700 200.000,152.600 199.595 C 151.500 199.189,149.880 198.628,149.000 198.347 C 148.120 198.066,147.229 197.693,147.020 197.518 C 146.811 197.343,146.237 197.200,145.744 197.200 C 145.251 197.200,144.736 197.020,144.600 196.800 C 144.464 196.580,144.001 196.400,143.571 196.400 C 143.141 196.400,142.477 196.222,142.095 196.003 C 141.713 195.785,138.790 194.779,135.600 193.768 C 132.410 192.757,128.810 191.610,127.600 191.220 C 126.390 190.830,124.050 190.101,122.400 189.600 C 120.750 189.099,118.410 188.378,117.200 187.998 C 115.990 187.618,114.190 187.082,113.200 186.807 C 112.210 186.532,110.950 186.160,110.400 185.980 C 108.469 185.348,98.999 182.800,95.400 181.944 C 94.520 181.735,93.125 181.392,92.300 181.182 C 91.475 180.972,90.125 180.628,89.300 180.418 C 86.966 179.824,84.873 179.353,81.400 178.638 C 73.597 177.031,73.916 177.187,75.179 175.587 C 77.280 172.926,82.716 165.961,83.600 164.796 C 84.150 164.072,85.905 161.811,87.500 159.771 C 90.889 155.437,90.943 155.189,88.700 154.219 C 83.700 152.058,76.121 148.121,69.641 144.317 C 61.051 139.274,51.723 131.756,56.500 133.725 C 57.630 134.191,63.671 136.607,66.300 137.645 C 66.795 137.840,67.605 138.162,68.100 138.360 C 68.595 138.557,69.630 138.936,70.400 139.200 C 71.170 139.464,72.160 139.825,72.600 140.001 C 77.328 141.896,95.175 148.000,95.988 148.000 C 96.246 148.000,96.669 147.773,96.929 147.496 C 97.540 146.841,100.975 142.345,101.343 141.718 C 101.575 141.322,97.900 139.200,96.983 139.200 C 95.731 139.200,77.437 130.125,71.200 126.411 C 65.357 122.931,56.178 115.887,58.800 116.895 C 59.130 117.022,61.560 117.968,64.200 118.998 C 66.840 120.028,69.810 121.134,70.800 121.455 C 71.790 121.777,72.960 122.199,73.400 122.394 C 73.840 122.588,74.920 122.976,75.800 123.255 C 76.680 123.535,77.571 123.907,77.780 124.082 C 77.989 124.257,78.486 124.400,78.885 124.400 C 79.284 124.400,79.923 124.576,80.305 124.792 C 80.922 125.139,83.239 125.899,92.800 128.891 C 94.230 129.339,95.760 129.841,96.200 130.007 C 96.640 130.173,97.810 130.530,98.800 130.800 C 99.790 131.070,100.960 131.426,101.400 131.590 C 104.639 132.801,108.400 133.519,108.400 132.927 C 108.400 132.720,108.721 132.202,109.113 131.775 C 109.505 131.349,111.003 129.470,112.441 127.600 C 117.110 121.531,118.968 119.123,120.800 116.769 C 122.696 114.332,129.366 105.728,132.248 102.000 C 134.493 99.096,140.413 91.493,142.292 89.100 L 143.784 87.200 146.992 87.146 C 148.756 87.116,153.080 86.957,156.600 86.792 C 166.823 86.312,205.767 86.701,216.400 87.388 M163.200 101.423 C 162.650 101.499,160.670 101.675,158.800 101.813 L 155.400 102.066 152.400 105.864 C 150.750 107.953,149.213 109.874,148.985 110.131 C 148.756 110.389,147.342 112.130,145.841 114.000 C 144.340 115.870,142.815 117.760,142.452 118.200 C 133.425 129.148,126.187 138.356,126.456 138.549 C 126.535 138.605,127.410 138.877,128.400 139.153 C 129.390 139.429,130.740 139.809,131.400 139.997 C 133.619 140.632,149.473 144.464,156.400 146.041 C 157.390 146.266,158.830 146.611,159.600 146.806 C 160.370 147.002,161.540 147.270,162.200 147.401 C 164.084 147.776,166.852 148.362,168.600 148.756 C 171.227 149.347,191.761 153.434,197.100 154.428 C 198.365 154.664,200.051 155.024,200.846 155.228 C 201.642 155.433,202.764 155.600,203.341 155.600 C 203.917 155.600,205.156 155.773,206.094 155.984 C 208.890 156.613,211.855 157.143,218.400 158.184 C 223.942 159.065,226.404 159.439,236.000 160.858 C 244.029 162.044,259.453 163.979,267.000 164.746 C 268.980 164.947,271.411 165.235,272.401 165.386 C 274.684 165.735,273.621 167.021,285.775 149.200 C 297.176 132.483,297.324 132.269,297.621 132.000 C 298.167 131.505,307.200 117.973,307.200 117.649 C 307.200 117.190,306.243 116.782,304.200 116.369 C 303.320 116.192,301.700 115.838,300.600 115.584 C 297.513 114.870,296.354 114.613,288.200 112.837 C 284.020 111.927,279.880 111.020,279.000 110.823 C 278.120 110.626,276.320 110.256,275.000 110.000 C 273.680 109.744,271.880 109.384,271.000 109.200 C 269.492 108.884,268.056 108.611,262.800 107.642 C 253.239 105.879,248.051 105.207,231.400 103.570 C 229.200 103.353,225.600 102.989,223.400 102.760 C 214.582 101.842,206.854 101.567,186.000 101.429 C 174.010 101.350,163.750 101.347,163.200 101.423 M220.187 109.073 C 232.896 113.504,234.411 130.362,223.147 142.023 C 212.989 152.541,197.081 153.221,190.874 143.402 C 180.695 127.305,201.752 102.645,220.187 109.073 M117.764 148.900 C 114.252 152.824,113.656 154.000,115.181 154.000 C 115.611 154.000,116.376 154.161,116.881 154.358 C 117.387 154.555,118.610 154.936,119.600 155.204 C 120.590 155.472,121.760 155.836,122.200 156.012 C 122.640 156.189,123.360 156.416,123.800 156.517 C 124.642 156.710,132.122 158.702,136.200 159.820 C 137.520 160.181,139.230 160.626,140.000 160.807 C 140.770 160.988,142.750 161.500,144.400 161.945 C 148.208 162.970,148.062 162.933,154.000 164.357 C 166.188 167.280,172.093 168.630,178.600 169.980 C 179.700 170.208,181.320 170.558,182.200 170.757 C 183.080 170.955,184.430 171.236,185.200 171.380 C 185.970 171.524,187.230 171.799,188.000 171.991 C 188.770 172.183,190.390 172.536,191.600 172.775 C 199.091 174.254,204.248 175.242,207.400 175.804 C 209.380 176.157,211.990 176.624,213.200 176.843 C 214.410 177.061,216.480 177.426,217.800 177.654 C 219.120 177.882,221.100 178.231,222.200 178.430 C 229.512 179.754,239.495 181.294,250.400 182.783 C 253.810 183.248,257.584 183.782,258.787 183.969 C 261.618 184.409,261.534 184.457,263.941 181.010 C 266.857 176.833,267.008 177.011,260.100 176.456 C 256.855 176.196,252.670 175.814,250.800 175.608 C 248.930 175.403,245.510 175.039,243.200 174.800 C 240.890 174.562,237.830 174.199,236.400 173.994 C 234.970 173.789,232.990 173.519,232.000 173.394 C 227.912 172.878,218.763 171.515,212.200 170.443 C 209.548 170.011,199.338 168.185,196.200 167.583 C 195.100 167.372,193.210 167.022,192.000 166.804 C 190.790 166.587,188.990 166.226,188.000 166.002 C 187.010 165.778,185.345 165.416,184.300 165.198 C 183.255 164.979,181.545 164.621,180.500 164.402 C 178.702 164.026,176.782 163.589,173.600 162.830 C 172.830 162.646,170.490 162.107,168.400 161.632 C 164.980 160.856,161.160 159.921,156.600 158.746 C 152.360 157.654,151.732 157.486,150.800 157.200 C 150.250 157.031,148.990 156.668,148.000 156.392 C 139.607 154.059,130.758 151.409,125.133 149.545 C 118.174 147.238,119.174 147.325,117.764 148.900 M106.979 162.304 C 106.747 162.467,105.516 163.915,104.244 165.522 C 101.865 168.527,101.658 169.439,103.283 169.753 C 103.787 169.850,105.280 170.137,106.600 170.389 C 107.920 170.642,109.553 171.017,110.228 171.224 C 110.904 171.431,111.791 171.600,112.200 171.600 C 112.609 171.600,113.496 171.768,114.172 171.973 C 115.696 172.436,117.829 172.987,121.200 173.790 C 124.070 174.473,131.659 176.507,135.500 177.623 C 138.194 178.405,139.430 178.754,140.400 179.006 C 140.950 179.150,141.760 179.413,142.200 179.592 C 142.640 179.771,144.890 180.492,147.200 181.195 C 152.261 182.733,166.679 187.497,167.800 188.000 C 168.240 188.198,169.410 188.622,170.400 188.942 C 171.992 189.457,181.515 193.045,183.900 194.029 C 184.395 194.233,185.295 194.604,185.900 194.854 C 186.505 195.103,187.360 195.445,187.800 195.613 C 188.240 195.781,189.230 196.191,190.000 196.525 C 190.770 196.859,192.942 197.768,194.828 198.545 C 196.713 199.323,199.413 200.489,200.828 201.137 C 202.242 201.784,204.300 202.713,205.400 203.200 C 209.348 204.947,213.565 206.975,224.004 212.147 C 237.497 218.831,237.447 218.809,238.151 218.248 C 239.001 217.571,252.899 197.085,252.953 196.430 C 253.001 195.846,251.443 195.564,241.800 194.411 C 236.189 193.739,221.115 191.550,214.400 190.430 C 212.970 190.192,211.170 189.899,210.400 189.779 C 209.630 189.660,208.280 189.405,207.400 189.213 C 206.520 189.022,204.765 188.670,203.500 188.432 C 202.235 188.195,200.165 187.805,198.900 187.568 C 197.635 187.330,195.880 186.975,195.000 186.779 C 194.120 186.584,191.150 185.961,188.400 185.396 C 185.650 184.830,181.870 184.005,180.000 183.562 C 178.130 183.119,175.790 182.575,174.800 182.353 C 173.810 182.131,172.325 181.781,171.500 181.575 C 170.675 181.369,169.325 181.035,168.500 180.833 C 167.675 180.631,166.280 180.281,165.400 180.055 C 164.520 179.829,163.350 179.536,162.800 179.404 C 162.250 179.271,160.810 178.893,159.600 178.563 C 158.390 178.233,155.690 177.514,153.600 176.966 C 150.195 176.073,145.989 174.875,143.200 174.005 C 142.650 173.833,141.390 173.471,140.400 173.201 C 139.410 172.930,138.240 172.568,137.800 172.396 C 137.360 172.224,134.570 171.323,131.600 170.394 C 123.694 167.920,120.301 166.811,119.400 166.409 C 118.960 166.213,117.430 165.669,116.000 165.200 C 114.570 164.731,113.040 164.196,112.600 164.011 C 112.160 163.826,110.990 163.368,110.000 162.993 C 109.010 162.619,108.020 162.244,107.800 162.160 C 107.580 162.077,107.210 162.142,106.979 162.304 M193.337 273.199 C 203.160 277.937,206.376 292.884,199.615 302.379 C 198.479 303.974,198.545 304.191,200.803 306.316 L 202.806 308.200 201.256 309.959 C 199.501 311.950,199.545 311.958,196.409 309.056 C 194.828 307.594,193.785 307.299,192.495 307.951 C 183.007 312.744,170.831 306.396,168.171 295.270 C 164.397 279.483,179.288 266.424,193.337 273.199 M82.800 275.589 L 82.800 278.777 77.300 278.889 L 71.800 279.000 71.695 293.700 L 71.590 308.400 67.795 308.400 L 64.000 308.400 64.000 293.612 L 64.000 278.823 58.700 278.712 L 53.400 278.600 53.283 275.500 L 53.166 272.400 67.983 272.400 L 82.800 272.400 82.800 275.589 M97.600 275.608 C 94.252 278.736,94.168 278.785,92.100 278.792 C 89.541 278.802,89.534 278.691,91.859 275.195 L 93.717 272.400 97.359 272.416 L 101.000 272.432 97.600 275.608 M116.400 290.400 L 116.400 308.400 113.000 308.400 L 109.600 308.400 109.600 290.400 L 109.600 272.400 113.000 272.400 L 116.400 272.400 116.400 290.400 M138.514 274.549 C 134.078 278.670,133.867 278.800,131.642 278.800 C 129.160 278.800,129.162 279.013,131.612 275.382 L 133.624 272.400 137.227 272.400 L 140.829 272.400 138.514 274.549 M255.200 272.592 C 255.200 272.775,253.660 274.239,250.200 277.345 C 248.789 278.611,248.346 278.783,246.457 278.791 C 243.923 278.802,243.924 278.770,246.631 274.977 L 248.470 272.400 251.835 272.400 C 253.686 272.400,255.200 272.486,255.200 272.592 M270.400 278.576 C 270.400 285.112,270.546 285.630,272.054 284.443 C 280.442 277.846,289.991 283.679,289.991 295.400 C 289.991 306.827,280.012 313.289,272.328 306.838 C 270.480 305.286,270.400 305.293,270.400 307.000 L 270.400 308.400 267.000 308.400 L 263.600 308.400 263.600 290.667 C 263.600 280.913,263.720 272.813,263.867 272.667 C 264.013 272.520,265.543 272.400,267.267 272.400 L 270.400 272.400 270.400 278.576 M180.600 278.970 C 173.425 283.071,173.607 298.211,180.876 301.925 C 185.083 304.074,189.714 303.031,187.064 300.531 L 185.539 299.092 187.242 297.357 C 189.100 295.464,188.936 295.451,191.397 297.698 C 193.031 299.190,193.366 299.101,194.432 296.900 C 195.497 294.702,195.824 286.064,194.879 285.119 C 194.616 284.856,194.396 284.361,194.390 284.020 C 194.319 279.588,185.298 276.285,180.600 278.970 M98.987 283.008 C 103.095 284.991,106.000 290.229,106.000 295.655 L 106.000 296.800 97.300 296.805 C 85.738 296.813,85.687 296.836,87.929 301.155 C 89.770 304.703,96.150 305.078,98.737 301.789 C 99.836 300.393,105.096 300.402,104.871 301.800 C 103.730 308.881,90.626 311.659,84.514 306.115 C 73.051 295.718,85.185 276.345,98.987 283.008 M137.500 282.421 C 140.372 283.631,141.614 284.566,143.071 286.616 C 144.337 288.398,145.600 292.478,145.600 294.787 L 145.600 296.800 136.700 296.806 C 126.654 296.813,126.599 296.826,126.990 299.139 C 127.877 304.393,136.253 305.947,138.920 301.351 C 139.309 300.682,144.800 300.555,144.800 301.216 C 144.800 307.822,132.346 311.512,125.450 306.948 C 117.602 301.755,118.212 287.154,126.434 283.354 C 128.985 282.174,129.523 282.012,131.200 281.910 C 133.733 281.755,136.442 281.975,137.500 282.421 M252.180 282.447 C 252.389 282.641,252.865 282.800,253.237 282.800 C 256.103 282.800,260.400 289.956,260.400 294.728 L 260.400 296.800 251.500 296.806 C 241.582 296.813,241.375 296.860,241.723 299.002 C 242.584 304.306,250.405 305.992,253.523 301.545 C 254.242 300.519,259.600 300.425,259.600 301.438 C 259.600 306.349,250.307 310.553,243.800 308.587 C 236.912 306.506,232.566 297.517,235.256 290.919 C 236.516 287.829,236.934 287.137,238.506 285.534 C 239.442 284.580,240.655 283.599,241.203 283.354 C 241.752 283.108,242.650 282.707,243.200 282.463 C 244.958 281.682,251.345 281.671,252.180 282.447 M311.387 283.008 C 315.343 284.917,318.400 290.208,318.400 295.146 L 318.400 296.800 309.700 296.805 C 298.175 296.813,298.116 296.837,300.122 300.758 C 302.134 304.693,307.970 305.263,311.170 301.838 C 312.159 300.779,317.600 300.207,317.600 301.162 C 317.600 302.786,314.172 306.832,311.919 307.867 C 299.820 313.427,288.210 301.414,293.876 289.200 C 296.868 282.750,304.940 279.896,311.387 283.008 M339.000 282.499 C 342.333 283.464,344.694 285.667,345.823 288.865 C 346.667 291.257,346.684 291.242,343.118 291.116 L 339.836 291.000 339.070 289.542 C 335.606 282.954,326.874 288.454,327.724 296.688 C 328.518 304.377,336.429 306.961,339.368 300.491 L 340.137 298.800 343.268 298.800 C 346.900 298.800,346.985 298.931,345.458 302.200 C 340.699 312.391,325.067 311.296,321.670 300.534 C 317.936 288.702,327.182 279.081,339.000 282.499 M214.000 291.819 C 214.224 302.147,214.374 302.733,217.012 303.604 C 219.516 304.430,222.411 303.333,223.700 301.069 C 224.032 300.486,224.261 297.308,224.397 291.400 L 224.600 282.600 227.900 282.484 L 231.200 282.368 231.210 287.184 C 231.215 289.833,231.219 295.330,231.219 299.400 C 231.219 303.470,231.215 307.160,231.210 307.600 C 231.201 308.333,230.930 308.400,228.000 308.400 L 224.800 308.400 224.800 306.800 C 224.800 304.839,224.738 304.836,222.610 306.700 C 217.886 310.839,210.231 309.667,207.873 304.443 C 207.037 302.592,206.268 284.763,206.948 282.991 C 207.143 282.482,207.794 282.389,210.494 282.484 L 213.800 282.600 214.000 291.819 M91.200 287.061 C 88.924 287.811,86.422 290.837,86.947 292.205 C 87.219 292.914,98.566 293.102,98.997 292.404 C 100.486 289.996,94.579 285.948,91.200 287.061 M130.559 287.052 C 128.576 287.496,125.695 292.044,127.064 292.569 C 128.563 293.144,138.421 292.812,138.664 292.178 C 139.758 289.326,134.698 286.126,130.559 287.052 M245.359 287.052 C 243.994 287.358,241.996 289.717,241.733 291.334 L 241.495 292.800 247.324 292.800 C 253.541 292.800,253.637 292.773,253.320 291.114 C 252.744 288.101,249.063 286.223,245.359 287.052 M273.994 287.547 C 269.527 289.942,269.240 300.178,273.559 303.085 C 278.310 306.283,282.922 302.615,282.973 295.600 C 283.023 288.602,278.909 284.912,273.994 287.547 M303.600 287.039 C 301.826 287.687,301.038 288.334,300.126 289.890 C 298.493 292.676,298.716 292.800,305.364 292.800 C 311.860 292.800,311.969 292.749,310.858 290.238 C 309.697 287.614,306.221 286.082,303.600 287.039 M163.918 294.700 L 163.800 297.400 156.400 297.400 L 149.000 297.400 148.882 294.700 L 148.763 292.000 156.400 292.000 L 164.037 292.000 163.918 294.700 " stroke="none" fill="#133c73" fill-rule="evenodd"></path></g></svg>