<svg width="61" height="42" viewBox="0 0 61 42" fill="none" xmlns="http://www.w3.org/2000/svg">
<path d="M46.676 19.1563C31.1033 19.1433 15.6026 21.2712 0.609375 25.4805V26.1453C20.2503 23.475 40.1641 23.5037 59.7973 26.2304V19.6576C55.4684 19.324 51.0946 19.1569 46.676 19.1563Z" fill="#EB0015"/>
<path d="M0.191406 3.63401H5.21593V16.7999H8.85071V3.63401H13.8761V0.28125H0.191406V3.63401Z" fill="black"/>
<path d="M46.5391 0.28125V3.63401H51.5636V16.7999H55.1984V3.63401H60.222V0.28125H46.5391Z" fill="black"/>
<path d="M22.5262 10.4302H26.1431V12.7888C25.2214 13.4502 24.0419 13.7796 22.7202 13.7796C19.7969 13.7796 17.7196 11.5666 17.7196 8.54234V8.49383C17.7196 5.68497 19.8191 3.35021 22.4615 3.35021C24.373 3.35021 25.5048 3.9639 26.7788 5.02531L29.0681 2.26496C27.3431 0.803504 25.5499 0 22.5781 0C17.5749 0 13.918 3.84644 13.918 8.54234V8.58831C13.918 13.4732 17.4574 17.0847 22.5985 17.0847C25.6197 17.0847 27.955 15.905 29.6536 14.4656V7.29112H24.4453L22.5262 10.4302Z" fill="black"/>
<path d="M45.6246 5.78066V5.73299C45.6246 4.1745 45.1284 2.87647 44.2093 1.9572C43.1243 0.872813 41.4954 0.28125 39.3967 0.28125H31.8438V16.8042H35.4785V3.56081H39.0895C40.8588 3.56081 41.9456 4.36516 41.9456 5.9211V5.96792C41.9456 7.35958 40.9286 8.30438 39.1601 8.30438H38.0538L36.0879 11.515H38.3363L41.8732 16.8042H46.1199L42.086 10.9047C44.1855 10.1208 45.6246 8.44567 45.6246 5.78066Z" fill="black"/>
<path d="M11.001 34.2408H5.56029V29.3789H3.45312V41.194H5.56029V36.2725H11.001V41.194H13.1073V29.3789H11.001V34.2408Z" fill="black"/>
<path d="M18.9519 29.3047L13.5742 41.1955H15.8031L17.1009 38.3015H22.488L23.7696 41.1955H26.0564L20.6787 29.3047H18.9519ZM17.969 36.32L19.803 32.248L21.6157 36.32H17.969Z" fill="black"/>
<path d="M34.451 35.0196C35.2169 34.4238 35.622 33.5871 35.622 32.5359C35.627 32.1533 35.5556 31.7735 35.4121 31.4188C35.2686 31.0641 35.0559 30.7416 34.7863 30.4701C34.051 29.7568 32.9574 29.3789 31.6221 29.3789H26.5312V41.1931H31.8264C34.5038 41.1931 36.2322 39.8491 36.2322 37.7399C36.2322 36.5117 35.6339 35.6001 34.451 35.0196ZM28.6222 36.2257H31.6392C32.7668 36.2257 34.1072 36.4726 34.1072 37.6923C34.1072 38.6456 33.2655 39.2116 31.8562 39.2116H28.6222V36.2257ZM31.4187 34.2536H28.6222V31.3596H31.5158C32.1115 31.3596 33.5029 31.4907 33.5029 32.7342C33.5021 34.1097 32.046 34.2536 31.4187 34.2536Z" fill="black"/>
<path d="M39.6362 36.2402H45.6045V34.2408H39.6362V31.3792H46.3083V29.3789H37.5273V41.194H46.3858V39.1954H39.6362V36.2402Z" fill="black"/>
<path d="M54.7948 36.5577C56.4833 36.0359 57.4688 34.7762 57.4688 33.0679C57.4688 32.1052 57.1232 31.2276 56.4977 30.6046C55.7088 29.8147 54.4961 29.3789 53.08 29.3789H47.7891V41.1948H49.8979V36.939H52.5098L55.5361 41.1948H58.1241L54.7948 36.5577ZM49.8979 31.3945H52.9863C53.6953 31.3945 55.3471 31.5647 55.3471 33.1453C55.3471 34.2519 54.411 34.9626 52.9702 34.9626H49.8979V31.3945Z" fill="black"/>
</svg>
