<svg id="logo_tigo-sport_inline" xmlns="http://www.w3.org/2000/svg" width="150" height="35.827" viewBox="0 0 150 35.827">
  <defs>
    <style>
      .cls-1 {
        fill: #ffc10e;
      }

      .cls-2, .cls-5 {
        fill: #00377c;
      }

      .cls-3, .cls-4 {
        fill: #fff;
      }

      .cls-3, .cls-5 {
        stroke: rgba(0,0,0,0);
        stroke-miterlimit: 10;
      }
    </style>
  </defs>
  <g id="yellow" transform="translate(50.008 0.612)">
    <path id="Trazado_1" data-name="Trazado 1" class="cls-1" d="M1026.541,1638.784V1665.4a4.1,4.1,0,0,1-4.172,3.995H927.19a30.324,30.324,0,0,0,1.041-34.6h94.138A4.1,4.1,0,0,1,1026.541,1638.784Z" transform="translate(-927.19 -1634.789)"/>
  </g>
  <path id="blue" class="cls-2" d="M639.176,1638.787V1665.4a4.1,4.1,0,0,0,4.172,3.995h45.2a30.325,30.325,0,0,0,1.04-34.6H643.348A4.1,4.1,0,0,0,639.176,1638.787Z" transform="translate(-638.535 -1634.18)"/>
  <path id="tigo" class="cls-3" d="M18.561,22.39a4.232,4.232,0,0,1-.667-2.086V18.939h.087a9.147,9.147,0,0,0,7.41,3.843,9.215,9.215,0,0,0,7.824-3.833h.079v1.418a4.584,4.584,0,0,1-.565,1.9,8.785,8.785,0,0,1-7,3.522A8.925,8.925,0,0,1,18.561,22.39ZM14.708,11.645c0-3.511,2.823-5.966,6.866-5.966,2.374,0,3.456,1.213,3.456,2.354v.94h-.371l-.053-.041a5.908,5.908,0,0,0-3.325-.88,3.382,3.382,0,0,0-3.652,3.288c0,2.994,1.979,3.633,3.628,3.633,1.141,0,1.241-.4,1.241-.828v-.877a6.226,6.226,0,0,0-.182-1.539l-.054-.252h1.5a1.41,1.41,0,0,1,1.456,1.206v1.737c0,1.964-1.385,2.926-4.24,2.926C17.866,17.345,14.708,15.39,14.708,11.645ZM26.634,11.5c0-3.276,1.965-5.9,5.632-5.9a5.273,5.273,0,0,1,5.394,5.521c0,3.26-1.971,5.875-5.637,5.875A5.26,5.26,0,0,1,26.634,11.5Zm2.936-.374c0,2.163.832,3.451,2.7,3.451,1.656,0,2.456-1.288,2.456-3.076,0-2.188-.842-3.482-2.7-3.482C30.4,8.017,29.57,9.312,29.57,11.125ZM0,12.83V6.279A2.606,2.606,0,0,1,.83,4.125a2.012,2.012,0,0,1,1.328-.752h.658V5.836H6.762V6.952c0,.568-.524,1.291-1.7,1.291H2.816v4.265c0,1.413.651,1.97,1.777,1.97a4.173,4.173,0,0,0,2.066-.392h.1v.978c0,1.1-.847,1.814-2.5,1.814C1.4,16.878,0,15.383,0,12.83Zm8.806.63V6.082h.815A1.816,1.816,0,0,1,11.641,8.1V13.2c0,1.1.488,1.437,1.731,1.437H13.9v.588c0,1.17-.48,1.638-1.674,1.638A3.064,3.064,0,0,1,8.806,13.46ZM8.557,3.476A1.608,1.608,0,0,1,10.2,1.9a1.637,1.637,0,0,1,1.672,1.577,1.653,1.653,0,0,1-1.672,1.6A1.625,1.625,0,0,1,8.557,3.476Zm28.791.974a6.257,6.257,0,0,0-4.917-2.3,6.336,6.336,0,0,0-5.188,2.3h-.06V3.254a2.436,2.436,0,0,1,.384-1.142A6.03,6.03,0,0,1,32.2,0,6.212,6.212,0,0,1,36.96,2.04,2.4,2.4,0,0,1,37.4,3.3V4.449Z" transform="translate(10.454 5.018)"/>
  <path id="outline" class="cls-4" d="M780.627,1631.059H640.251a4.717,4.717,0,0,0-4.811,4.607v26.612a4.719,4.719,0,0,0,4.811,4.609H780.627a4.72,4.72,0,0,0,4.813-4.609v-26.612A4.719,4.719,0,0,0,780.627,1631.059Zm-140.376,35.214a4.1,4.1,0,0,1-4.17-3.995v-26.612a4.1,4.1,0,0,1,4.17-3.995H686l.182.21a29.975,29.975,0,0,1-1.035,34.178l-.165.213Zm144.548-3.995a4.1,4.1,0,0,1-4.172,3.995H685.9a30.654,30.654,0,0,0,1.025-34.6h93.7a4.1,4.1,0,0,1,4.172,3.995Z" transform="translate(-635.44 -1631.059)"/>
  <path id="sports" class="cls-5" d="M26.472,7.306V7.265C26.472,3.271,29.763,0,34.291,0s7.776,3.231,7.776,7.225v.04c0,3.994-3.291,7.265-7.818,7.265S26.472,11.3,26.472,7.306Zm3.376-.081v.04a4.357,4.357,0,0,0,4.442,4.416,4.289,4.289,0,0,0,4.4-4.376V7.265A4.357,4.357,0,0,0,34.249,2.85,4.289,4.289,0,0,0,29.849,7.225ZM70.8,12.8a1.421,1.421,0,0,1-.608-1.164A1.455,1.455,0,0,1,71.7,10.215a1.6,1.6,0,0,1,.922.281,6.362,6.362,0,0,0,3.752,1.265c1.321,0,2.117-.5,2.117-1.324V10.4c0-.784-.5-1.183-2.956-1.786-2.955-.723-4.863-1.506-4.863-4.294V4.275c0-2.549,2.138-4.234,5.136-4.234a8.785,8.785,0,0,1,4.652,1.245,1.394,1.394,0,0,1,.715,1.223,1.456,1.456,0,0,1-1.51,1.425,1.6,1.6,0,0,1-.817-.22,6.293,6.293,0,0,0-3.081-.944c-1.237,0-1.887.542-1.887,1.224v.04c0,.923.629,1.225,3.165,1.847,2.976.743,4.653,1.766,4.653,4.214v.04c0,2.79-2.222,4.355-5.386,4.355A9.757,9.757,0,0,1,70.8,12.8ZM.608,12.8A1.421,1.421,0,0,1,0,11.64a1.456,1.456,0,0,1,1.509-1.425,1.606,1.606,0,0,1,.923.281,6.361,6.361,0,0,0,3.752,1.265c1.32,0,2.117-.5,2.117-1.324V10.4c0-.784-.5-1.183-2.956-1.786C2.39,7.888.482,7.1.482,4.316V4.275C.482,1.726,2.62.041,5.618.041a8.782,8.782,0,0,1,4.652,1.245,1.4,1.4,0,0,1,.714,1.223A1.456,1.456,0,0,1,9.474,3.933a1.6,1.6,0,0,1-.817-.22A6.294,6.294,0,0,0,5.576,2.77c-1.238,0-1.887.542-1.887,1.224v.04c0,.923.629,1.225,3.165,1.847,2.975.743,4.653,1.766,4.653,4.214v.04c0,2.79-2.222,4.355-5.385,4.355A9.758,9.758,0,0,1,.608,12.8Zm52.146.8L49.612,9.8H47.036v3.067a1.613,1.613,0,0,1-3.223,0V8.473A1.453,1.453,0,0,1,45.3,7.07h5c1.571,0,2.471-.8,2.471-1.984V5.046c0-1.325-.963-2.006-2.533-2.006H45.3A1.447,1.447,0,0,1,43.828,1.8h-.015a.587.587,0,0,1,.008-.073.514.514,0,0,1-.008-.069A1.452,1.452,0,0,1,45.3.252h5.214a6,6,0,0,1,4.272,1.425,4.3,4.3,0,0,1,1.258,3.208v.041A4.289,4.289,0,0,1,53.11,9.2L55.351,11.8a1.761,1.761,0,0,1,.523,1.182,1.472,1.472,0,0,1-1.528,1.423A1.953,1.953,0,0,1,52.754,13.608Zm8.982-.744V3.09h-3.1a1.463,1.463,0,0,1-1.488-1.425A1.463,1.463,0,0,1,58.634.24h9.433a1.462,1.462,0,0,1,1.487,1.426A1.462,1.462,0,0,1,68.067,3.09h-3.1v9.774a1.615,1.615,0,0,1-3.227,0Zm-48.259,0V8.728a1.452,1.452,0,0,1,1.486-1.4h4.3c1.613,0,2.557-.924,2.557-2.128v-.04c0-1.385-1.007-2.127-2.62-2.127l-4.235,0a1.446,1.446,0,0,1-1.471-1.241h-.015c0-.024.007-.049.009-.073a.643.643,0,0,1-.009-.068A1.454,1.454,0,0,1,14.964.24h4.507c3.5,0,5.618,1.987,5.618,4.857v.041c0,3.251-2.64,4.938-5.93,4.938H16.7v2.789a1.615,1.615,0,0,1-3.227,0Z" transform="translate(61.194 10.439)"/>
</svg>
