<?xml version="1.0" encoding="UTF-8" standalone="no"?>
<!-- Created with Inkscape (http://www.inkscape.org/) -->

<svg
   xmlns:dc="http://purl.org/dc/elements/1.1/"
   xmlns:cc="http://creativecommons.org/ns#"
   xmlns:rdf="http://www.w3.org/1999/02/22-rdf-syntax-ns#"
   xmlns:svg="http://www.w3.org/2000/svg"
   xmlns="http://www.w3.org/2000/svg"
   xmlns:sodipodi="http://sodipodi.sourceforge.net/DTD/sodipodi-0.dtd"
   xmlns:inkscape="http://www.inkscape.org/namespaces/inkscape"
   width="100"
   height="50"
   viewBox="0 0 220.81081 110.40541"
   id="svg2"
   version="1.1"
   inkscape:version="0.92.2 (5c3e80d, 2017-08-06)"
   sodipodi:docname="Travel_Channel_2018.svg">
  <title
     id="title831">2018 Travel Channel logo</title>
  <defs
     id="defs4" />
  <sodipodi:namedview
     id="base"
     pagecolor="#ffffff"
     bordercolor="#666666"
     borderopacity="1.0"
     inkscape:pageopacity="0.0"
     inkscape:pageshadow="2"
     inkscape:zoom="1"
     inkscape:cx="45.228552"
     inkscape:cy="30.070353"
     inkscape:document-units="px"
     inkscape:current-layer="layer1"
     showgrid="false"
     showguides="true"
     inkscape:guide-bbox="true"
     fit-margin-top="0"
     fit-margin-left="0"
     fit-margin-right="0"
     fit-margin-bottom="0"
     inkscape:window-width="1366"
     inkscape:window-height="705"
     inkscape:window-x="-8"
     inkscape:window-y="-8"
     inkscape:window-maximized="1"
     inkscape:showpageshadow="false">
    <inkscape:grid
       type="xygrid"
       id="grid2996"
       empspacing="5"
       visible="true"
       enabled="true"
       snapvisiblegridlinesonly="true"
       originx="199"
       originy="-114.01164"
       spacingx="1"
       spacingy="1" />
  </sodipodi:namedview>
  <metadata
     id="metadata7">
    <rdf:RDF>
      <cc:Work
         rdf:about="">
        <dc:format>image/svg+xml</dc:format>
        <dc:type
           rdf:resource="http://purl.org/dc/dcmitype/StillImage" />
        <dc:title>2018 Travel Channel logo</dc:title>
        <cc:license
           rdf:resource="http://scripts.sil.org/OFL" />
      </cc:Work>
      <cc:License
         rdf:about="http://scripts.sil.org/OFL">
        <cc:permits
           rdf:resource="http://scripts.sil.org/pub/OFL/Reproduction" />
        <cc:permits
           rdf:resource="http://scripts.sil.org/pub/OFL/Distribution" />
        <cc:permits
           rdf:resource="http://scripts.sil.org/pub/OFL/Embedding" />
        <cc:permits
           rdf:resource="http://scripts.sil.org/pub/OFL/DerivativeWorks" />
        <cc:requires
           rdf:resource="http://scripts.sil.org/pub/OFL/Notice" />
        <cc:requires
           rdf:resource="http://scripts.sil.org/pub/OFL/Attribution" />
        <cc:requires
           rdf:resource="http://scripts.sil.org/pub/OFL/ShareAlike" />
        <cc:requires
           rdf:resource="http://scripts.sil.org/pub/OFL/DerivativeRenaming" />
        <cc:requires
           rdf:resource="http://scripts.sil.org/pub/OFL/BundlingWhenSelling" />
      </cc:License>
    </rdf:RDF>
  </metadata>
  <g
     inkscape:label="Layer 1"
     inkscape:groupmode="layer"
     id="layer1"
     transform="translate(199,-827.94511)">
    <path
       style="fill:#e6be29;fill-opacity:1;fill-rule:evenodd;stroke:none;stroke-width:0.21661186"
       d="m -197.14255,830.30735 v 14.78813 h 23.66195 v 65.24531 h 17.39825 v -65.24531 h 23.66195 v -14.78813 z m 153.28096,0 v 80.03344 h 15.832556 v -80.03344 z m -72.55156,21.92157 c -15.1378,0 -28.53373,12.49245 -28.53373,28.70749 v 29.40438 h 15.6588 v -29.40438 c 0,-7.16906 6.1416,-12.87493 12.87493,-12.87493 z m 4.52332,0.17469 16.00725,48.3674 c 2.318112,6.22507 8.347739,11.01216 15.815741,11.01217 9.23565,-10e-6 14.192048,-6.40874 15.849372,-11.01217 l 16.006316,-48.3674 h -16.52853 l -14.0931,42.79966 c 0,0 -0.316716,0.87626 -1.213512,0.87626 -0.91241,0 -1.221908,-0.87626 -1.221908,-0.87626 l -14.208008,-42.79966 z m -27.48931,69.07173 c -3.7147,0 -5.7415,2.38698 -5.7415,4.698 v 5.04554 c 0,2.81771 2.07213,4.69521 5.64155,4.69521 2.88047,0 4.48566,-1.76186 5.41173,-3.25938 l -2.17291,-1.17426 c -0.48391,0.83259 -1.43442,2.00009 -3.13887,2.00009 -2.21067,0 -3.30608,-1.04825 -3.30608,-2.43636 v -4.87084 c 0,-1.55154 1.13402,-2.43635 3.13139,-2.43635 1.96632,0 2.77078,1.16938 3.32009,1.9786 l 2.14489,-1.1397 c -1.14466,-1.82268 -2.8762,-3.10055 -5.29029,-3.10055 z m 48.367389,0.17376 v 13.91934 h 2.436365 v -10.25267 l 6.033886,10.25267 h 2.665236 V 921.6491 h -2.436355 v 10.47874 l -6.201119,-10.47874 z m 17.918597,0 v 13.91934 h 2.436355 v -10.25267 l 6.033896,10.25267 h 2.665226 V 921.6491 h -2.43542 v 10.47874 l -6.202055,-10.47874 z m 36.191229,0 v 13.91934 h 9.047586 v -2.26166 h -6.612166 V 921.6491 Z m -67.718085,0.003 -5.18192,13.91841 h 2.61011 l 1.21724,-3.65359 h 5.22022 l 1.391941,3.65359 h 2.435421 l -5.186592,-13.91841 z m -22.40641,0.17189 v 13.91841 h 2.43542 v -5.91526 h 6.43746 v 5.91526 h 2.43636 v -13.91841 h -2.43636 v 5.91525 h -6.43746 v -5.91525 z m 72.030278,0 v 13.91841 h 9.568855 v -2.26166 h -7.133435 v -3.6536 h 6.611231 v -2.26166 h -6.611231 v -3.65358 h 7.133435 v -2.08791 z m -48.364588,2.08977 1.87117,5.7415 h -3.69657 z"
       id="path2998"
       inkscape:connector-curvature="0" />
    <path
       style="fill:#852980;fill-opacity:1;stroke:none;stroke-width:0.21661186"
       d="m -16.893659,907.90458 v -74.98771 c 0,-1.54348 0.885827,-2.617 2.450751,-2.617 0.914159,0 1.492205,0.51557 2.072865,1.22511 l 31.143397,37.23289 c 0,0 0.695933,0.70661 0.695933,1.56587 0,0.83961 -0.695933,1.56586 -0.695933,1.56586 l -31.317381,37.58085 c -0.394131,0.46463 -0.840495,0.93026 -1.834774,0.93026 -1.247872,0 -2.514858,-1.01379 -2.514858,-2.49613 z"
       id="path3006"
       inkscape:connector-curvature="0"
       sodipodi:nodetypes="cccccccccc" />
  </g>
</svg>
