<?xml version="1.0" encoding="UTF-8" standalone="no"?>
<svg
   xmlns:dc="http://purl.org/dc/elements/1.1/"
   xmlns:cc="http://creativecommons.org/ns#"
   xmlns:rdf="http://www.w3.org/1999/02/22-rdf-syntax-ns#"
   xmlns:svg="http://www.w3.org/2000/svg"
   xmlns="http://www.w3.org/2000/svg"
   xmlns:sodipodi="http://sodipodi.sourceforge.net/DTD/sodipodi-0.dtd"
   xmlns:inkscape="http://www.inkscape.org/namespaces/inkscape"
   sodipodi:docname="logo-b4c.svg"
   inkscape:version="1.0 (4035a4fb49, 2020-05-01)"
   id="svg8"
   version="1.1"
   viewBox="0 0 203 66"
   height="66mm"
   width="203mm">
  <defs
     id="defs2" />
  <sodipodi:namedview
     inkscape:window-maximized="1"
     inkscape:window-y="379"
     inkscape:window-x="1016"
     inkscape:window-height="1147"
     inkscape:window-width="1920"
     showgrid="false"
     inkscape:document-rotation="0"
     inkscape:current-layer="layer1"
     inkscape:document-units="mm"
     inkscape:cy="185.44579"
     inkscape:cx="399.91247"
     inkscape:zoom="0.98994949"
     inkscape:pageshadow="2"
     inkscape:pageopacity="0.0"
     borderopacity="1.0"
     bordercolor="#666666"
     pagecolor="#ffffff"
     id="base" />
  <metadata
     id="metadata5">
    <rdf:RDF>
      <cc:Work
         rdf:about="">
        <dc:format>image/svg+xml</dc:format>
        <dc:type
           rdf:resource="http://purl.org/dc/dcmitype/StillImage" />
        <dc:title></dc:title>
      </cc:Work>
    </rdf:RDF>
  </metadata>
  <g
     id="layer1"
     inkscape:groupmode="layer"
     inkscape:label="Слой 1">
    <g
       transform="matrix(0.26458333,0,0,0.26458333,-1.6004944,-2.1144297)"
       id="g837"
       style="fill:#027eb3;fill-opacity:1">
	<path
   id="path835"
   d="m 195.94,221.58 c 15.3,-16.32 27.6,-35.72 33.69,-56.14 -21.06,11.49 -47.06,19.29 -75.21,19.29 -70.16,0 -129.44,-39.42 -128.85,-95.2 0.1,-9.6 2.76,-18.86 6.35,-27.58 0.38,-0.86 -0.05,-1.01 -0.65,-0.01 -8.95,11.83 -15.08,30.98 -15.08,48.22 0,62.81 67,113.73 149.64,113.73 10.31,-0.01 20.38,-0.8 30.11,-2.31 z"
   class="st0"
   style="fill:#027eb3;fill-opacity:1" />

</g>
    <g
       transform="matrix(0.26458333,0,0,0.26458333,-1.6004944,-2.1144297)"
       id="g841"
       style="fill:#084786;fill-opacity:1">
	<path
   id="path839"
   d="m 232.67,152 c 0.96,-6.16 1.31,-12.37 0.96,-18.58 -0.54,-9.62 -1.21,-19.02 -2.91,-28.06 -17.75,18.66 -49.48,31.6 -85.66,31.6 -55.62,0 -97.8,-35.32 -100.71,-66.58 -1.46,-15.66 5.81,-26.46 17.27,-35.73 0.49,-0.43 0.11,-0.7 -0.23,-0.49 -20.16,13.33 -29.23,31.4 -29.23,53.54 0,47.25 53.3,86.55 119.67,86.55 31.13,0.01 59.5,-8.42 80.84,-22.25 z"
   class="st0"
   style="fill:#084786;fill-opacity:1" />

</g>
    <path
       id="path843"
       d="m 37.224463,66.171882 c 3.624792,-1.7145 7.268105,-4.198938 10.548938,-7.217833 -2.315104,0.433916 -4.492625,0.711729 -6.421438,0.669396 C 24.064089,59.24509 10.329568,51.175299 4.4134847,39.528341 c -1.905,-3.749146 -3.5030833,-8.28675 -2.4659166,-14.279563 0.1217083,-0.531812 0.052917,-0.769937 -0.2751667,0.156104 -0.77258333,2.555875 -1.31762499,5.495396 -1.31762499,8.252355 0,17.301103 16.19249959,31.461603 36.67918659,32.604603 0.01323,0 0.1905,-0.08996 0.1905,-0.08996 z"
       class="st0"
       style="fill:#8cb6e7;fill-opacity:1;stroke-width:0.264583" />
    <path
       id="path845"
       d="m 35.218922,0.2853411 c 18.0975,0 32.763354,14.8695829 32.763354,33.1866869 0,13.028083 -7.418917,24.315208 -18.205979,29.739166 0.108479,-0.529166 0.24077,-1.143 0.330729,-1.7145 6.918854,-4.434416 15.134166,-12.385145 15.134166,-26.201687 0,-15.573374 -12.451291,-28.1781243 -27.805062,-28.1781243 -8.323791,0 -16.758708,4.4053123 -21.854583,10.2684793 C 14.369755,12.964174 15.398985,8.3048618 16.833026,6.0241535 22.063839,2.3940702 28.411193,0.2853411 35.218922,0.2853411 Z"
       class="st1"
       style="fill:#054482;fill-opacity:1;stroke-width:0.264583" />
    <g
       transform="matrix(0.26458333,0,0,0.26458333,-1.6004944,-2.1144297)"
       id="g853"
       style="fill:#054482;fill-opacity:1">
	<path
   id="path847"
   d="m 336.34,49.17 v 71.02 h -17 V 49.17 h -26.79 v -14.2 h 69.02 l 2.45,14.2 z"
   class="st0"
   style="fill:#054482;fill-opacity:1" />

	<path
   id="path849"
   d="m 400.73,88.82 h -7.6 v 31.37 h -17 V 34.97 h 26.01 c 20.35,0 32.58,9.02 32.58,26.18 0.01,18.41 -13.64,27.67 -33.99,27.67 z m 0.51,-40.76 h -8.11 V 75.6 h 7.47 c 10.95,0 17.38,-4.32 17.38,-14.08 0.01,-8.89 -5.79,-13.46 -16.74,-13.46 z"
   class="st0"
   style="fill:#054482;fill-opacity:1" />

	<path
   id="path851"
   d="M 447.73,120.19 V 34.97 h 16.74 v 58.67 l 38.38,-58.67 h 17.26 v 85.22 h -16.87 v -59.9 l -39.15,59.9 z"
   class="st0"
   style="fill:#054482;fill-opacity:1" />

</g>
    <g
       transform="matrix(0.26458333,0,0,0.26458333,-1.6004944,-2.1144297)"
       id="g867"
       style="fill:#054482;fill-opacity:1">
	<path
   id="path855"
   d="m 319.31,145.21 h 18.22 l 32.69,83.49 -17.19,2.96 -8.53,-22.48 h -33.73 l -7.75,21.62 h -17.19 z m -3.87,50.64 h 24.29 l -12.02,-32.98 z"
   class="st0"
   style="fill:#054482;fill-opacity:1" />

	<path
   id="path857"
   d="m 437.42,230.8 v -36.93 h -37.86 v 36.93 h -17.19 v -85.22 h 17.19 v 33.72 h 37.86 v -33.72 h 17.19 v 85.22 z"
   class="st0"
   style="fill:#054482;fill-opacity:1" />

	<path
   id="path859"
   d="m 521.79,145.58 2.46,14.82 h -33.6 v 70.4 h -17.19 v -85.22 z"
   class="st0"
   style="fill:#054482;fill-opacity:1" />

	<path
   id="path861"
   d="m 536.78,230.8 v -85.22 h 51.82 v 13.83 h -34.89 v 20.38 h 26.88 l 2.33,13.71 h -29.21 v 23.47 h 36.18 v 13.83 z"
   class="st0"
   style="fill:#054482;fill-opacity:1" />

	<path
   id="path863"
   d="m 676.34,230.8 h -17.19 v -71.02 h -20.8 l -2.97,23.84 c -4.39,34.34 -12.79,45.33 -35.93,48.91 l -2.32,-14.33 c 14.08,-3.21 18.48,-11.49 21.71,-37.05 l 4.52,-35.57 h 52.98 z"
   class="st0"
   style="fill:#054482;fill-opacity:1" />

	<path
   id="path865"
   d="m 721.82,145.21 h 18.22 l 32.69,83.49 -17.19,2.96 -8.53,-22.48 h -33.73 l -7.75,21.62 h -17.19 z m -3.88,50.64 h 24.29 l -12.02,-32.98 z"
   class="st0"
   style="fill:#054482;fill-opacity:1" />

</g>
  </g>
  <style
     type="text/css"
     id="style833">
	.st0{fill:#FFFFFF;}
	.st1{fill-rule:evenodd;clip-rule:evenodd;fill:#FFFFFF;}
</style>
</svg>
