<svg xmlns="http://www.w3.org/2000/svg" viewBox="0 0 76.39 16.51"><defs><style>.cls-1{fill:#a1216d;}</style></defs><g id="Layer_2" data-name="Layer 2"><g id="Layer_1-2" data-name="Layer 1"><path class="cls-1" d="M65.33,4.51l2.45,5v2.75a4.81,4.81,0,0,0,1.17.1,5.46,5.46,0,0,0,1.17-.1V9.52l2.51-5a6.33,6.33,0,0,0-1.22-.1,7,7,0,0,0-1.21.1L69,6.93,67.89,4.51a6.59,6.59,0,0,0-1.22-.1,7.14,7.14,0,0,0-1.34.1M60,10.13a2.93,2.93,0,0,0-.55,1.74,6.19,6.19,0,0,0,2.87.64c2.16,0,3.14-.92,3.14-2.65a2.39,2.39,0,0,0-1.8-2.42c-.85-.31-1.67-.39-1.67-.8s.34-.46,1-.46a6.71,6.71,0,0,1,1.48.19A2.55,2.55,0,0,0,65,4.68a6.07,6.07,0,0,0-2.42-.44c-2.15,0-3.07,1.07-3.07,2.6,0,1.78,1.32,2.23,2.32,2.53.61.18,1.11.32,1.11.66s-.33.43-.91.43A6.22,6.22,0,0,1,60,10.13M54.8,9.35l.44-1.55a6.94,6.94,0,0,0,.22-1.41h0a8,8,0,0,0,.24,1.41l.43,1.55ZM54,4.51l-2.24,7.73a5.16,5.16,0,0,0,1.11.1,5.49,5.49,0,0,0,1.13-.1l.36-1.32h2.26L57,12.24a5.1,5.1,0,0,0,1.12.1,5.51,5.51,0,0,0,1.18-.1L57.06,4.51a8.32,8.32,0,0,0-1.53-.1,8.88,8.88,0,0,0-1.53.1m-7.57-.1a4,4,0,0,0-.11,1,4,4,0,0,0,.11,1h1.84v5.87a6.07,6.07,0,0,0,1.17.1,6.9,6.9,0,0,0,1.17-.1V6.37H52.4a4.28,4.28,0,0,0,.11-1,4.07,4.07,0,0,0-.11-1Zm-5.66,0a9.22,9.22,0,0,0-1.58.1v7.73a3.34,3.34,0,0,0,1,.1,4.16,4.16,0,0,0,1-.1V9A15,15,0,0,0,41,6.7h.07A15.28,15.28,0,0,0,41.58,9l1.05,3.26a10,10,0,0,0,1.56.1,8.39,8.39,0,0,0,1.54-.1V4.51a3.7,3.7,0,0,0-.95-.1,5,5,0,0,0-1,.1V7.7c0,1.27.12,2.57.12,2.57h0a21.75,21.75,0,0,0-.57-2.54l-1-3.22a8,8,0,0,0-1.52-.1M34.26,9.35,34.7,7.8a6.59,6.59,0,0,0,.23-1.41h0a7.55,7.55,0,0,0,.25,1.41l.43,1.55Zm-.8-4.84-2.24,7.73a5.32,5.32,0,0,0,1.12.1,5.44,5.44,0,0,0,1.12-.1l.36-1.32h2.27l.36,1.32a5.26,5.26,0,0,0,1.13.1,5.35,5.35,0,0,0,1.17-.1L36.52,4.51A8.32,8.32,0,0,0,35,4.41a8.88,8.88,0,0,0-1.53.1m-1.93-.1H26.46v7.83a6.42,6.42,0,0,0,1.16.1,6.8,6.8,0,0,0,1.18-.1V9.36h2.41a3.07,3.07,0,0,0,.11-.89,2.84,2.84,0,0,0-.11-.86H28.8V6.15h2.73a3.15,3.15,0,0,0,.11-.88,3.26,3.26,0,0,0-.11-.86m44,11.23H22.24V.87H75.53ZM19.47,7.3a5.56,5.56,0,0,1-1.75,4.06h0l-3.79,3.78h0V7.3a5.58,5.58,0,0,0-2.79-4.83,5.58,5.58,0,0,0,2.14,10.37s0,0,0,0H8.33a5.57,5.57,0,1,1,0-11.14H13.9A5.57,5.57,0,0,1,19.47,7.3m56.92,9.21V0H0V16.51H76.39Z"/></g></g></svg>