<svg xmlns="http://www.w3.org/2000/svg" viewBox="0 0 100.27 16.39"><defs><style>.cls-1{fill:#a1216d;}</style></defs><g id="Layer_2" data-name="Layer 2"><g id="Layer_1-2" data-name="Layer 1"><path class="cls-1" d="M28.47,6.58c0-.28.34-.45,1-.45A6.56,6.56,0,0,1,31,6.32a2.58,2.58,0,0,0,.53-1.68,6.08,6.08,0,0,0-2.4-.43c-2.14,0-3.06,1.06-3.06,2.58,0,1.76,1.31,2.21,2.31,2.5.61.19,1.1.32,1.1.66s-.32.43-.91.43a6.16,6.16,0,0,1-2.06-.33A3,3,0,0,0,26,11.78a6.17,6.17,0,0,0,2.85.63c2.14,0,3.12-.9,3.12-2.62a2.38,2.38,0,0,0-1.79-2.41c-.84-.31-1.66-.38-1.66-.8M36.55,7c0,.61-.27.87-.71.87h-.45V6.12h.45c.44,0,.71.24.71.85m2.39,0c0-1.73-1-2.6-2.75-2.6H33.08v7.78a6.72,6.72,0,0,0,2.31,0V9.59h.8c1.76,0,2.75-.87,2.75-2.62m5.42,1.34c0,1.9-.32,2.34-1,2.34s-1-.44-1-2.34S42.7,6,43.36,6s1,.43,1,2.34m2.49,0c0-2.87-1.35-4.1-3.49-4.1s-3.49,1.27-3.49,4.1,1.35,4.1,3.49,4.1,3.49-1.23,3.49-4.1m4.79-1.43c0,.5-.21.77-.69.77h-.5V6.1H51c.48,0,.69.27.69.78m2.86,5.27L53,9A2.25,2.25,0,0,0,54,6.88c0-1.48-.77-2.51-2.74-2.51H48.13v7.78a6.07,6.07,0,0,0,1.17.1,6.37,6.37,0,0,0,1.15-.1V9.38h.3L52,12.15a6.6,6.6,0,0,0,1.27.1,6.89,6.89,0,0,0,1.25-.1M61,6.32a4.24,4.24,0,0,0,.11-1,4,4,0,0,0-.11-1H55.05a4.32,4.32,0,0,0-.1,1,4.21,4.21,0,0,0,.1,1h1.84v5.83a5.84,5.84,0,0,0,1.15.1,6.9,6.9,0,0,0,1.17-.1V6.32ZM22.07.86H64.42V15.53H22.07ZM19.33,7.25a5.51,5.51,0,0,1-1.75,4h0L13.83,15h0V7.25A5.56,5.56,0,0,0,11,2.45a5.53,5.53,0,0,0,2.13,10.29l0,0,0,0H8.26a5.54,5.54,0,0,1,0-11.07H13.8a5.54,5.54,0,0,1,5.53,5.54M22,16.38H65.28V0H0V16.39H22ZM74.93,9H73.86L74.93,7.5Zm2.84,1.75a3.34,3.34,0,0,0,.09-.87A3.48,3.48,0,0,0,77.77,9H77V4.8a5.11,5.11,0,0,0-1.1-.1,5.49,5.49,0,0,0-1.13.1L71.8,9a2.88,2.88,0,0,0-.11.88,2.77,2.77,0,0,0,.11.87h3.13v1.38a4.39,4.39,0,0,0,1,.1,4.45,4.45,0,0,0,1-.1V10.77ZM67.93.86H81.57V15.53H67.93Zm-.08,15.52H82.43V0H67.06V16.39h.79ZM92,12l1.58-7.65a3,3,0,0,0-.83-.1,3.48,3.48,0,0,0-.87.1l-.63,3H88.85l.63-3a3,3,0,0,0-.84-.1,3.34,3.34,0,0,0-.86.1L86.2,12a2.56,2.56,0,0,0,.83.1,3.58,3.58,0,0,0,.87-.1l.67-3.21H91L90.29,12a2.59,2.59,0,0,0,.84.1A3.44,3.44,0,0,0,92,12m6.38-3.83c-.43,2.11-1.11,2.57-2.07,2.57h-.86l1-5.13h.86c1,0,1.47.44,1,2.56M97.7,4.27H95.08l-1.62,7.85h2.62c2.08,0,3.43-.91,4-3.73s-.31-4.12-2.39-4.12"/></g></g></svg>