<svg xmlns="http://www.w3.org/2000/svg" viewBox="0 0 125.21 16.34"><defs><style>.cls-1{fill:#a1216d;}</style></defs><g id="Layer_2" data-name="Layer 2"><g id="Layer_1-2" data-name="Layer 1"><path class="cls-1" d="M28.38,6.56c0-.28.34-.44,1-.44a6.87,6.87,0,0,1,1.46.18,2.55,2.55,0,0,0,.53-1.67A6.06,6.06,0,0,0,29,4.2c-2.14,0-3.05,1-3.05,2.57,0,1.76,1.31,2.2,2.3,2.5.61.18,1.1.31,1.1.65s-.32.43-.91.43A6.06,6.06,0,0,1,26.41,10a3,3,0,0,0-.54,1.72,6.15,6.15,0,0,0,2.84.63c2.13,0,3.11-.9,3.11-2.61A2.37,2.37,0,0,0,30,7.36c-.83-.31-1.65-.38-1.65-.8m8.06.4c0,.6-.28.86-.71.86h-.45V6.1h.45c.43,0,.71.25.71.86m2.38,0c0-1.74-1-2.6-2.74-2.6H33v7.75a5.89,5.89,0,0,0,1.16.1,5.71,5.71,0,0,0,1.15-.1V9.56h.8c1.75,0,2.74-.87,2.74-2.6m5.4,1.33c0,1.89-.31,2.33-1,2.33s-1-.44-1-2.33S42.57,6,43.23,6s1,.43,1,2.34m2.49,0c0-2.86-1.35-4.09-3.48-4.09s-3.48,1.26-3.48,4.09,1.35,4.08,3.48,4.08,3.48-1.23,3.48-4.08m4.77-1.43c0,.5-.21.77-.69.77h-.5V6.08h.5c.48,0,.69.28.69.78m2.85,5.25L52.82,9a2.24,2.24,0,0,0,1.06-2.12c0-1.47-.78-2.5-2.74-2.5H48v7.75a6.07,6.07,0,0,0,1.17.1,6.32,6.32,0,0,0,1.14-.1V9.35h.3l1.23,2.76a6.42,6.42,0,0,0,1.26.1,6.89,6.89,0,0,0,1.25-.1M60.79,6.3a4.13,4.13,0,0,0,.11-1,3.93,3.93,0,0,0-.11-1H54.88a4.27,4.27,0,0,0-.1,1,4.21,4.21,0,0,0,.1,1h1.83v5.81a5.84,5.84,0,0,0,1.15.1,6.7,6.7,0,0,0,1.16-.1V6.3ZM22,.86H64.22V15.48H22ZM19.27,7.22a5.48,5.48,0,0,1-1.74,4h0L13.79,15h0V7.22A5.5,5.5,0,0,0,11,2.45,5.51,5.51,0,0,0,13.12,12.7a0,0,0,0,1,0,0l0,0H8.24a5.52,5.52,0,1,1,0-11h5.51a5.52,5.52,0,0,1,5.52,5.51m2.65,9.11H65.08V0H0V16.34H21.92Zm54.92-4.12a8.12,8.12,0,0,0,1.52-.1V4.46a3.57,3.57,0,0,0-.94-.1,5,5,0,0,0-1,.1V7.62c0,1.25.12,2.54.12,2.54h0a20.32,20.32,0,0,0-.56-2.52L75,4.46a7.8,7.8,0,0,0-1.51-.1,8.73,8.73,0,0,0-1.55.1v7.65a3.17,3.17,0,0,0,.93.1,4,4,0,0,0,1-.1V8.89a15.57,15.57,0,0,0-.16-2.26h.06a15.36,15.36,0,0,0,.53,2.26l1,3.22a9.7,9.7,0,0,0,1.54.1m8.28,0a2.93,2.93,0,0,0,.11-.87,3.08,3.08,0,0,0-.11-.85H82.2V9.08h2.29a2.83,2.83,0,0,0,.1-.85,3.09,3.09,0,0,0-.1-.83H82.2V6.08H85a2.84,2.84,0,0,0,.11-.89A2.71,2.71,0,0,0,85,4.36H79.89v7.85Zm10-.1,1.49-7.65a5.28,5.28,0,0,0-1.06-.1,4.15,4.15,0,0,0-1,.1l-.68,3.8c-.19,1.11-.25,2-.25,2h0a14.82,14.82,0,0,0-.17-2l-.57-3.79a8.44,8.44,0,0,0-1.44-.1,7.49,7.49,0,0,0-1.42.1l-.61,3.8a16.16,16.16,0,0,0-.19,2h0a19.36,19.36,0,0,0-.23-2l-.67-3.79a4.39,4.39,0,0,0-1-.1,6.43,6.43,0,0,0-1.19.1l1.5,7.65a9.31,9.31,0,0,0,1.53.1,9.4,9.4,0,0,0,1.53-.1l.58-3.61a12.71,12.71,0,0,0,.18-2.15h.06a16.13,16.13,0,0,0,.18,2.15l.54,3.61a8.8,8.8,0,0,0,1.56.1,8.47,8.47,0,0,0,1.49-.1m4.68-5.55c0-.28.34-.44,1-.44a6.87,6.87,0,0,1,1.46.18,2.5,2.5,0,0,0,.53-1.67,6.06,6.06,0,0,0-2.39-.43c-2.13,0-3,1-3,2.57,0,1.76,1.31,2.2,2.31,2.5.6.18,1.09.31,1.09.65s-.32.43-.9.43A6.16,6.16,0,0,1,97.85,10a3,3,0,0,0-.54,1.72,6.15,6.15,0,0,0,2.84.63c2.13,0,3.11-.9,3.11-2.61a2.37,2.37,0,0,0-1.78-2.4c-.84-.31-1.66-.38-1.66-.8M67.73.86h39.49V15.48H67.73Zm-.09,15.47h40.43V0H66.85V16.34h.79ZM116.92,12l1.58-7.66a2.84,2.84,0,0,0-.82-.1,3.48,3.48,0,0,0-.87.1l-.63,3h-2.39l.63-3a3,3,0,0,0-.84-.1,3.34,3.34,0,0,0-.86.1L111.14,12a2.78,2.78,0,0,0,.82.09,4,4,0,0,0,.87-.09l.67-3.22h2.39L115.22,12a2.94,2.94,0,0,0,.84.09,3.69,3.69,0,0,0,.86-.09m6.39-3.83c-.44,2.1-1.12,2.56-2.07,2.56h-.86l1.05-5.12h.86c1,0,1.47.43,1,2.56m-.67-3.93H120l-1.63,7.85H121c2.08,0,3.43-.9,4-3.72s-.31-4.13-2.39-4.13"/></g></g></svg>