<svg xmlns="http://www.w3.org/2000/svg" viewBox="0 0 100.05 16.39"><defs><style>.cls-1{fill:#a1216d;}</style></defs><g id="Layer_2" data-name="Layer 2"><g id="Layer_1-2" data-name="Layer 1"><path class="cls-1" d="M28.47,6.58c0-.28.34-.45,1-.45A6.56,6.56,0,0,1,31,6.32a2.58,2.58,0,0,0,.53-1.68,6.08,6.08,0,0,0-2.4-.43c-2.14,0-3.06,1.06-3.06,2.58,0,1.76,1.31,2.21,2.31,2.5.61.19,1.1.32,1.1.66s-.32.43-.91.43a6.16,6.16,0,0,1-2.06-.33A3,3,0,0,0,26,11.78a6.17,6.17,0,0,0,2.85.63c2.14,0,3.12-.91,3.12-2.62a2.38,2.38,0,0,0-1.79-2.41c-.84-.31-1.66-.38-1.66-.8M36.56,7c0,.61-.28.87-.72.87H35.4V6.12h.44c.44,0,.72.24.72.85m2.38,0c0-1.73-1-2.6-2.75-2.6H33.08v7.78a5.76,5.76,0,0,0,1.16.1,5.89,5.89,0,0,0,1.16-.1V9.59h.79c1.76,0,2.75-.88,2.75-2.62m5.42,1.34c0,1.9-.32,2.34-1,2.34s-1-.44-1-2.34S42.7,6,43.36,6s1,.43,1,2.34m2.49,0c0-2.87-1.35-4.1-3.49-4.1s-3.49,1.27-3.49,4.1,1.35,4.1,3.49,4.1,3.49-1.23,3.49-4.1m4.79-1.43c0,.5-.21.77-.69.77h-.5V6.1H51c.48,0,.69.27.69.78m2.86,5.27L53,9a2.24,2.24,0,0,0,1.07-2.13c0-1.48-.78-2.51-2.75-2.51H48.13v7.78a6.07,6.07,0,0,0,1.17.1,6.37,6.37,0,0,0,1.15-.1V9.38h.3L52,12.15a6.6,6.6,0,0,0,1.27.1,6.89,6.89,0,0,0,1.25-.1M61,6.32a4.24,4.24,0,0,0,.11-1,4,4,0,0,0-.11-1H55.06a4,4,0,0,0-.11,1,3.85,3.85,0,0,0,.11,1h1.83v5.83a5.84,5.84,0,0,0,1.15.1,6.9,6.9,0,0,0,1.17-.1V6.32ZM22.07.86H64.42V15.53H22.07ZM19.33,7.25a5.51,5.51,0,0,1-1.75,4h0L13.83,15h0V7.25A5.56,5.56,0,0,0,11,2.45a5.53,5.53,0,0,0,2.13,10.29l0,0,0,0H8.26a5.54,5.54,0,0,1,0-11.07H13.8a5.54,5.54,0,0,1,5.53,5.54M22,16.38H65.28V0H0V16.39H22Zm53.85-8.1a1.7,1.7,0,0,0,1-1.65c0-1.35-1.06-2-2.78-2A6.43,6.43,0,0,0,71.86,5a2,2,0,0,0,.67,1.46,4.31,4.31,0,0,1,1.33-.19c.57,0,.8.19.8.61s-.13.6-.64.6H72.93a3.25,3.25,0,0,0,0,1.64H74c.69,0,.84.29.84.74s-.13.75-1,.75a7.39,7.39,0,0,1-1.57-.21,2.7,2.7,0,0,0-.56,1.52,5.42,5.42,0,0,0,2.22.42c2.2,0,3.11-.79,3.11-2.18a1.89,1.89,0,0,0-1.26-1.9M67.94.86H81.57V15.53H67.94Zm-.09,15.52H82.42V0H67.06V16.39h.79ZM91.76,12.3l1.59-7.65a3,3,0,0,0-.83-.1,3.48,3.48,0,0,0-.87.1l-.63,3H88.63l.63-3a3,3,0,0,0-.84-.1,3.34,3.34,0,0,0-.86.1L86,12.3a2.56,2.56,0,0,0,.83.1,3.58,3.58,0,0,0,.87-.1l.67-3.21h2.38l-.66,3.21a2.56,2.56,0,0,0,.83.1,3.34,3.34,0,0,0,.86-.1m6.39-3.83C97.72,10.58,97,11,96.08,11h-.86l1-5.13h.86c1,0,1.47.44,1,2.56m-.67-3.92H94.86L93.24,12.4h2.62c2.08,0,3.43-.9,4-3.73s-.31-4.12-2.39-4.12"/></g></g></svg>