<svg xmlns="http://www.w3.org/2000/svg" viewBox="0 0 100.05 16.39"><defs><style>.cls-1{fill:#a1216d;}</style></defs><g id="Layer_2" data-name="Layer 2"><g id="Layer_1-2" data-name="Layer 1"><path class="cls-1" d="M28.47,6.58c0-.28.34-.45,1-.45A6.56,6.56,0,0,1,31,6.32a2.57,2.57,0,0,0,.53-1.67,6,6,0,0,0-2.4-.44c-2.14,0-3.06,1.06-3.06,2.58,0,1.76,1.31,2.21,2.31,2.5.61.19,1.1.32,1.1.66s-.32.43-.91.43a6.16,6.16,0,0,1-2.06-.33A3,3,0,0,0,26,11.78a6.17,6.17,0,0,0,2.85.63c2.14,0,3.12-.9,3.12-2.62a2.38,2.38,0,0,0-1.79-2.41c-.84-.31-1.66-.38-1.66-.8m8.09.4c0,.6-.28.86-.72.86H35.4V6.12h.44c.44,0,.72.24.72.86m2.38,0c0-1.74-1-2.61-2.75-2.61H33.08v7.78a5.76,5.76,0,0,0,1.16.1,5.89,5.89,0,0,0,1.16-.1V9.59h.79c1.76,0,2.75-.87,2.75-2.61m5.42,1.33c0,1.9-.32,2.34-1,2.34s-1-.44-1-2.34S42.7,6,43.36,6s1,.43,1,2.34m2.49,0c0-2.86-1.35-4.1-3.49-4.1s-3.49,1.27-3.49,4.1,1.35,4.1,3.49,4.1,3.49-1.23,3.49-4.1m4.79-1.43c0,.5-.21.77-.69.77h-.5V6.1H51c.48,0,.69.27.69.78m2.86,5.27L53,9a2.24,2.24,0,0,0,1.07-2.13c0-1.48-.78-2.51-2.75-2.51H48.13v7.78a6.07,6.07,0,0,0,1.17.1,6.37,6.37,0,0,0,1.15-.1V9.38h.3L52,12.15a6.6,6.6,0,0,0,1.27.1,6.89,6.89,0,0,0,1.25-.1M61,6.32a4.24,4.24,0,0,0,.11-1,4.07,4.07,0,0,0-.11-1H55.06a4,4,0,0,0-.11,1,3.85,3.85,0,0,0,.11,1h1.83v5.83a5.84,5.84,0,0,0,1.15.1,6.9,6.9,0,0,0,1.17-.1V6.32ZM22.07.86H64.42V15.53H22.07ZM19.33,7.25a5.49,5.49,0,0,1-1.75,4h0L13.83,15h0V7.25A5.53,5.53,0,0,0,11,2.46a5.53,5.53,0,0,0,2.13,10.28l0,0,0,0H8.26a5.54,5.54,0,0,1,0-11.07H13.8a5.54,5.54,0,0,1,5.53,5.54M22,16.38H65.28V0H0V16.39H22Zm55.26-9.5c0-1.46-.94-2.29-2.75-2.29A5.31,5.31,0,0,0,72,5.17a1.91,1.91,0,0,0,.62,1.55,4.38,4.38,0,0,1,1.55-.33c.54,0,.82.17.82.54s-.21.76-1.09,1.36-2,1.44-2,3a3.42,3.42,0,0,0,.14.95h5a2.31,2.31,0,0,0,.16-.91,2.45,2.45,0,0,0-.16-.93H74.3a.37.37,0,0,1,0-.18c.1-.41.69-.49,1.21-.78a2.78,2.78,0,0,0,1.75-2.57m-9.31-6H81.57V15.53H67.94Zm-.09,15.52H82.42V0H67.06V16.39h.79ZM91.76,12l1.59-7.65a3,3,0,0,0-.83-.1,3.48,3.48,0,0,0-.87.1l-.63,3H88.63l.63-3a3,3,0,0,0-.84-.1,3.34,3.34,0,0,0-.86.1L86,12a2.56,2.56,0,0,0,.83.1,3.58,3.58,0,0,0,.87-.1l.67-3.21h2.38L90.07,12a2.56,2.56,0,0,0,.83.1,3.34,3.34,0,0,0,.86-.1M98.15,8.2c-.43,2.1-1.11,2.56-2.07,2.56h-.86l1-5.13h.86c1,0,1.47.44,1,2.57m-.67-3.93H94.86l-1.62,7.85h2.62c2.08,0,3.43-.9,4-3.73s-.31-4.12-2.39-4.12"/></g></g></svg>