<svg width="295" height="48" viewBox="0 0 295 48" fill="none" xmlns="http://www.w3.org/2000/svg">
<g clip-path="url(#clip0_5491_89876)">
<path d="M54.4347 5.94092H38.0956C36.6821 5.94092 35.5369 7.08678 35.5369 8.49965V42.7999H41.8414C43.7323 42.7999 45.2655 41.2668 45.2655 39.3759V33.7215H53.1002L59.4555 42.8005H69.9992L62.3855 32.0292L63.2715 31.4746C66.8352 29.2436 69.2294 24.5534 69.2294 19.8038C69.2294 10.2797 61.5603 5.94151 54.4347 5.94151V5.94092ZM54.5443 24.7615H45.21V14.7364H54.5443C57.8345 14.7364 59.5563 17.258 59.5563 19.749C59.5563 21.687 58.1958 24.7615 54.5443 24.7615Z" fill="black"/>
<path d="M11.8105 42.7999H18.1145C20.0054 42.7999 21.5385 41.2668 21.5385 39.3759V14.8473H30.4365C32.0451 14.8473 33.3495 13.5428 33.3495 11.9343V5.94092H1.87086C0.837584 5.94092 0 6.7785 0 7.81178V14.8478H11.8105V42.8005V42.7999Z" fill="black"/>
<path d="M82.2748 42.7999H88.5788C90.4697 42.7999 92.0028 41.2668 92.0028 39.3759V14.8473H100.901C102.509 14.8473 103.814 13.5428 103.814 11.9343V5.94092H72.3352C71.3019 5.94092 70.4644 6.7785 70.4644 7.81178V14.8478H82.2748V42.8005V42.7999Z" fill="black"/>
<path d="M105.266 38.2767L107.848 32.7437C108.164 32.0588 108.638 31.8477 109.218 31.8477C110.061 31.8477 111.431 32.9541 113.644 33.7445C116.331 34.6929 119.176 35.3779 122.022 35.3779C125.869 35.3779 127.45 33.8495 127.45 32.1106C127.45 30.5298 126.554 29.3704 122.497 28.633C120.494 28.264 118.544 27.8956 116.542 27.5266C108.743 26.1037 105.951 22.1522 105.951 16.5136C105.951 9.92732 112.063 5.23779 120.336 5.23779C126.448 5.23779 131.032 7.08213 134.773 9.55834L132.56 14.1424C132.086 15.0908 131.454 15.5652 130.663 15.5652C130.242 15.5652 129.82 15.4597 129.399 15.2493C126.027 13.774 123.655 12.9835 120.336 12.9835C117.595 12.9835 115.172 13.985 115.172 15.9873C115.172 17.9896 116.595 18.569 119.492 19.096C121.548 19.4649 123.602 19.8339 125.657 20.2023C133.666 21.6252 136.67 26.3147 136.67 31.6367C136.67 40.0149 129.557 43.3871 121.653 43.3871C116.067 43.3871 110.693 42.0697 105.265 38.2761L105.266 38.2767Z" fill="#EE334E"/>
<path d="M138.938 42.756V8.24238C138.938 6.71398 139.781 5.87109 141.309 5.87109H155.378C164.02 5.87109 169.974 11.6676 169.974 19.8872C169.974 28.1069 164.02 33.6929 155.378 33.6929H147.896V40.3848C147.896 41.9126 147.053 42.756 145.525 42.756H138.938H138.938ZM147.843 25.7362H155.273C158.434 25.7362 160.964 23.5228 160.964 19.8872C160.964 16.2516 158.434 13.8278 155.273 13.8278H147.843V25.7362Z" fill="#EE334E"/>
<path d="M191.104 5.23828C202.38 5.23828 210.442 13.3 210.442 24.3129C210.442 35.3259 202.38 43.3876 191.104 43.3876C179.828 43.3876 171.766 35.3253 171.766 24.3129C171.766 13.3005 179.827 5.23828 191.104 5.23828ZM191.104 35.3784C197.163 35.3784 201.484 30.3723 201.484 24.3129C201.484 18.2536 197.163 13.2475 191.104 13.2475C185.044 13.2475 180.723 18.2536 180.723 24.3129C180.723 30.3723 185.044 35.3784 191.104 35.3784Z" fill="#EE334E"/>
<path d="M212.972 42.756V8.24238C212.972 6.71398 213.815 5.87109 215.343 5.87109H230.467C239.108 5.87109 245.063 11.0351 245.063 19.2548C245.063 25.0512 241.954 29.5298 237.422 31.3741L245.326 42.7555H235.367L228.411 32.6384H221.877V39.6992C221.877 41.3856 220.507 42.7555 218.927 42.7555H212.972V42.756ZM230.361 24.6823C233.681 24.6823 236.052 22.4165 236.052 19.2548C236.052 16.093 233.681 13.8273 230.361 13.8273H221.877V24.6823H230.361Z" fill="#EE334E"/>
<path d="M293.845 31.6948L288.187 23.9084L293.91 16.0324C295.558 13.7531 295.314 10.6403 293.329 8.63089C291.829 7.1131 289.494 6.57613 287.378 7.26341L278.249 10.23C276.618 7.98487 272.549 2.38349 272.513 2.33516C271.047 0.342875 268.481 -0.482331 266.127 0.281574C263.747 1.05491 262.156 3.24819 262.168 5.73088V15.4542L253.038 18.4208C250.922 19.1087 249.348 20.917 249.028 23.0278C248.605 25.8199 250.24 28.4818 252.92 29.3577L262.167 32.362V42.1142C262.176 43.9367 263.063 45.662 264.54 46.7301C265.527 47.4433 266.71 47.8146 267.903 47.8146C268.497 47.8146 269.093 47.7227 269.668 47.5358C270.81 47.1651 271.827 46.4253 272.533 45.4545L278.248 37.588L287.485 40.5894C288.631 40.9642 289.893 40.966 291.038 40.5929C293.753 39.7105 295.384 37.0121 294.916 34.1775C294.774 33.314 294.413 32.4788 293.844 31.696L293.845 31.6948ZM265.47 25.8641L259.452 23.909L265.47 21.9538L269.37 20.6866V16.5859V10.2583C271.122 12.6697 273.089 15.3775 273.089 15.3775L275.499 18.6949L279.399 17.4276L285.417 15.4724L281.698 20.5917L279.288 23.909L281.698 27.2263L285.417 32.345L279.4 30.3898L275.5 29.1225L273.09 32.4399L269.371 37.5585V31.2309V27.1302L265.471 25.863L265.47 25.8641Z" fill="black"/>
<path d="M267.905 46.7763C266.927 46.7763 265.959 46.4727 265.151 45.8886C263.941 45.0145 263.214 43.601 263.207 42.1091V31.609L253.243 28.3712C251.301 27.737 249.999 25.9422 250 23.9051C250.002 21.868 251.305 20.0761 253.243 19.4472L263.207 16.2095V5.73169C263.197 3.69638 264.501 1.90273 266.45 1.26968C268.375 0.643117 270.477 1.3192 271.679 2.95075C271.704 2.98552 276.728 9.90134 277.854 11.4498L287.818 8.21203C289.754 7.58133 291.861 8.26625 293.06 9.91254C294.259 11.5588 294.263 13.7739 293.069 15.4243L286.905 23.9086L293.063 32.3847C293.94 33.5912 294.191 35.1591 293.735 36.5785C293.274 38.009 292.146 39.1402 290.717 39.6046C289.779 39.91 288.746 39.9082 287.808 39.6017L277.853 36.3669L271.695 44.8429C271.116 45.6387 270.283 46.2434 269.349 46.547C268.878 46.7002 268.39 46.7757 267.904 46.7757L267.905 46.7763ZM267.902 2.07721C267.525 2.07721 267.143 2.13556 266.77 2.25698C265.252 2.74975 264.238 4.14553 264.245 5.72874V16.5855C264.245 16.8107 264.1 17.0099 263.886 17.0795L253.564 20.4339C252.055 20.9243 251.041 22.3189 251.039 23.9051C251.038 25.4918 252.053 26.8894 253.564 27.3827L263.886 30.7372C264.1 30.8068 264.245 31.006 264.245 31.2311V42.1062C264.251 43.2656 264.816 44.3661 265.758 45.0469C266.7 45.7277 267.923 45.9198 269.029 45.5603C269.756 45.3239 270.404 44.8524 270.855 44.2329L277.235 35.4515C277.367 35.2688 277.6 35.1933 277.815 35.2629L288.13 38.6144C288.862 38.8537 289.666 38.8549 290.397 38.6173C291.509 38.2554 292.388 37.3742 292.746 36.2608C293.101 35.1556 292.905 33.9349 292.223 32.9947L285.843 24.2134C285.711 24.0312 285.711 23.7848 285.843 23.6027L292.229 14.8143C293.158 13.5299 293.155 11.8052 292.221 10.5232C291.287 9.24059 289.647 8.70833 288.139 9.19874L277.815 12.5532C277.601 12.6216 277.367 12.5467 277.235 12.3646C277.235 12.3646 270.844 3.56847 270.839 3.5614C270.139 2.60946 269.041 2.07603 267.902 2.07603V2.07721Z" fill="white"/>
<path d="M267.902 44.6995C267.357 44.6995 266.817 44.5298 266.367 44.2044C265.693 43.717 265.288 42.9295 265.284 42.0978V30.0993L253.885 26.3953C252.803 26.0416 252.077 25.042 252.077 23.9061C252.078 22.7709 252.805 21.7724 253.885 21.4217L265.284 17.7171V5.73154C265.278 4.59806 266.005 3.59779 267.091 3.24472C268.165 2.89519 269.337 3.27183 270.006 4.18251L277.06 13.8916L288.46 10.1876C289.539 9.83635 290.714 10.2177 291.382 11.1355C292.05 12.0538 292.052 13.2887 291.386 14.2082L284.338 23.9085L291.383 33.6052C291.872 34.2778 292.012 35.1519 291.757 35.9429C291.501 36.7398 290.873 37.3705 290.076 37.6293C289.553 37.799 288.978 37.7985 288.456 37.6275L277.061 33.9253L270.016 43.6221C269.693 44.0659 269.229 44.4031 268.708 44.5716C268.445 44.6571 268.174 44.699 267.903 44.699L267.902 44.6995ZM267.9 4.1548C267.737 4.1548 267.572 4.18015 267.411 4.23261C266.757 4.44539 266.319 5.04662 266.323 5.72918V18.0949C266.323 18.3201 266.178 18.5193 265.964 18.5888L254.205 22.4095C253.555 22.6211 253.117 23.2236 253.116 23.9073C253.116 24.5916 253.554 25.1952 254.206 25.408L265.964 29.2281C266.178 29.2977 266.323 29.4969 266.323 29.722V42.0954C266.325 42.587 266.575 43.0739 266.975 43.3633C267.381 43.6568 267.909 43.7394 268.386 43.5849C268.7 43.483 268.98 43.2796 269.174 43.012L276.442 33.0099C276.574 32.8272 276.808 32.7523 277.022 32.8213L288.777 36.6402C289.092 36.7428 289.439 36.7446 289.755 36.642C290.234 36.4858 290.613 36.1056 290.768 35.6246C290.919 35.1554 290.833 34.6149 290.543 34.2159L283.275 24.2138C283.143 24.0317 283.143 23.7853 283.275 23.6031L290.545 13.5981C290.946 13.044 290.945 12.3002 290.542 11.7461C290.139 11.1926 289.43 10.9622 288.78 11.1744L277.022 14.9951C276.808 15.064 276.574 14.9886 276.442 14.8064L269.167 4.79434C268.866 4.38409 268.392 4.15362 267.901 4.15362L267.9 4.1548Z" fill="#EE334E"/>
<path d="M267.89 42.6219C267.837 42.6219 267.785 42.6136 267.735 42.5977C267.52 42.5288 267.362 42.3107 267.362 42.0855V28.5904L254.527 24.4202C254.315 24.3512 254.158 24.1373 254.155 23.9145C254.153 23.6893 254.309 23.47 254.523 23.3987L267.362 19.2273V5.73164C267.362 5.50766 267.518 5.29074 267.731 5.2206C267.945 5.14987 268.199 5.2318 268.332 5.41276C268.333 5.41335 268.334 5.41453 268.334 5.4157L276.267 16.3338L289.101 12.1635C289.314 12.0934 289.568 12.1759 289.7 12.3557C289.834 12.5372 289.835 12.806 289.704 12.9887L281.77 23.9086L289.702 34.8266C289.833 35.007 289.835 35.2728 289.705 35.4544C289.575 35.6377 289.322 35.7232 289.107 35.656L276.266 31.484L268.334 42.402C268.233 42.5406 268.061 42.6219 267.89 42.6219H267.89ZM256.313 23.9086L268.028 27.7151C268.242 27.7847 268.4 28.0016 268.4 28.2262V40.5447L275.64 30.5792C275.769 30.4012 276.019 30.3175 276.23 30.38L287.957 34.1906L280.716 24.2251C280.581 24.0394 280.584 23.7648 280.724 23.5826L287.957 13.6271L276.241 17.4337C276.024 17.5056 275.767 17.4183 275.635 17.2327L268.399 7.27242V19.591C268.399 19.812 268.246 20.026 268.038 20.0991L256.312 23.9098L256.313 23.9086Z" fill="white"/>
</g>
<defs>
<clipPath id="clip0_5491_89876">
<rect width="295" height="47.8148" fill="white"/>
</clipPath>
</defs>
</svg>
