<?xml version="1.0" encoding="utf-8"?>
<!-- Generator: Adobe Illustrator 28.1.0, SVG Export Plug-In . SVG Version: 6.00 Build 0)  -->
<svg version="1.1" id="Layer_1" xmlns="http://www.w3.org/2000/svg" xmlns:xlink="http://www.w3.org/1999/xlink" x="0px" y="0px"
	 viewBox="0 0 385 185" style="enable-background:new 0 0 385 185;" xml:space="preserve">
<style type="text/css">
	.st0{fill:#FFCA3F;}
	.st1{fill:#FFC000;}
	.st2{fill:#C6C6C6;stroke:#FFFFFF;stroke-miterlimit:10;}
	.st3{fill:#C6C6C6;}
</style>
<path class="st0" d="M103.5,22.9c1.9-0.5,7.5-1.8,6.1-4.7c-0.5-0.9-1.4-1.5-2.3-1.9c-5.3-2.4-10.8-3.8-16.6-4.7
	c0,0-35.6-4.9-62.1,19.5C19,40,11.6,50.5,6.6,62.7c-10.4,25.5-8.4,54.6,5.3,78.5c8.1,14.2,20.2,25.6,34.4,33.4
	c11.9,6.5,26.3,9.9,39.8,10.3c25.5,0.8,51.9-11.9,64.6-34.6c3.8-6.7-7.7-2.1-9.7-1.3c-8.8,3.5-19.6,4.2-28.8,4.2
	c-14.8-0.1-29.2-4.1-41.6-12.3c-3.2-2.1-6.1-4.7-8.8-7.3c-16.7-16.4-21.4-44.7-11.9-66C55.3,55.2,64.9,44,76,36.4
	C76,36.4,90.2,26.7,103.5,22.9z"/>
<path class="st1" d="M154.4,11.2V7.7c0-0.9,0.5-1.4,1.4-1.4h18.4v3.5c0,0.9-0.5,1.4-1.4,1.4H167v15.6c0,1-0.8,1.8-1.8,1.8h-3.6V11.2
	H154.4z"/>
<path class="st1" d="M181.3,28.6h-3.6V7.7c0-0.9,0.5-1.4,1.4-1.4h9.1c5.2,0,8.8,3.1,8.8,8.1c0,3.5-1.9,6.2-4.6,7.3l4.8,6.9h-6
	l-4.2-6.1h-4v4.3C183.1,27.8,182.3,28.6,181.3,28.6z M183.1,17.6h5.1c2,0,3.4-1.4,3.4-3.3c0-1.9-1.4-3.3-3.4-3.3h-5.1V17.6z"/>
<path class="st1" d="M199.2,11.2V7.7c0-0.9,0.5-1.4,1.4-1.4H219v3.5c0,0.9-0.5,1.4-1.4,1.4h-5.8v15.6c0,1-0.8,1.8-1.8,1.8h-3.6V11.2
	H199.2z"/>
<path class="st1" d="M240,28.6h-8.8V7.7c0-0.9,0.5-1.4,1.4-1.4h7.3c6.6,0,11.2,4.9,11.2,11.2S246.5,28.6,240,28.6z M236.6,11.1v12.7
	h3.4c3.6,0,5.8-2.9,5.8-6.3c0-3.5-2.2-6.3-5.8-6.3H236.6z"/>
<path class="st1" d="M259.3,28.6h-4V7.7c0-0.9,0.5-1.4,1.4-1.4h4v20.9C260.7,28.1,260.2,28.6,259.3,28.6z M255.6,2.4
	c0-1.3,1.1-2.4,2.5-2.4c1.4,0,2.5,1,2.5,2.4c0,1.4-1.1,2.4-2.5,2.4C256.7,4.8,255.6,3.7,255.6,2.4z"/>
<path class="st1" d="M272.6,21.1l-8.8-14.8h4.8c0.8,0,1.3,0.3,1.7,1l4.9,8.5l4.9-8.5c0.4-0.7,1-1,1.7-1h4.8L278,21.1v6.1
	c0,0.9-0.5,1.4-1.4,1.4h-4V21.1z"/>
<path class="st1" d="M288.5,28.6H284l8.5-21.2c0.3-0.8,0.9-1.1,1.7-1.1h4.6l9,22.3h-4.5c-0.8,0-1.3-0.4-1.6-1.1l-1-2.7h-9.4l-1,2.7
	C289.9,28.2,289.4,28.6,288.5,28.6z M295.9,12.3l-3,7.9h6L295.9,12.3z"/>
<path class="st1" d="M310.7,28.6V6.3h3.2c0.7,0,1.3,0.2,1.8,0.8l9.8,12.1V7.7c0-0.9,0.5-1.4,1.4-1.4h3.9v22.3h-3.5
	c-0.7,0-1.3-0.2-1.8-0.8l-9.5-11.6v11c0,0.9-0.5,1.4-1.4,1.4H310.7z"/>
<path class="st1" d="M351.3,28.6h-15.4V7.7c0-0.9,0.5-1.4,1.4-1.4h15.4v3.4c0,0.9-0.5,1.4-1.4,1.4h-10v4h9.6v3.4
	c0,0.9-0.5,1.4-1.4,1.4h-8.1v3.9h11.5v3.4C352.7,28.1,352.2,28.6,351.3,28.6z"/>
<path class="st1" d="M355.2,11.2V7.7c0-0.9,0.5-1.4,1.4-1.4H375v3.5c0,0.9-0.5,1.4-1.4,1.4h-5.8v15.6c0,1-0.8,1.8-1.8,1.8h-3.6V11.2
	H355.2z"/>
<path class="st2" d="M164.6,50.6c-0.2-1.4-0.8-2.8-1.8-3.8c-2-2.1-4.8-3.3-7.5-4c-5.5-1.5-11.4-0.9-16.7,0.9
	c-13.3,4.6-21.9,16-25.9,29.1c-2.4,8-3.2,16.5-1.5,24.7c2.8,13.3,11.9,21.1,25.5,23.4c0.7,2.7-0.4,6,2.6,7.6
	c1.2,0.6,2.6,0.8,3.9,0.7c0.9,0,1.8-0.2,2.7-0.6c1.9-1,2.3-3.2,2.3-5.2c0-1.8,0.3-2.6,2.2-2.6c0,0,10.8-1.7,14.8-7.1
	c0,0,2.9-2.3,1.7-6.9c-2.6-9.4-16.2-8.6-23.7-8.2c-3,0.1-6.3,0.5-9-1.3c-1.5-1-2.5-2.5-3.2-4.2c-1.1-2.9-1.1-6.1-0.4-9.1
	c1.3-6.2,5.2-12.1,10.8-15.3c4.6-2.7,9.4-2.6,14.5-3.6c2.9-0.6,5.9-1.9,7.5-4.5c1.1-1.8,1.4-4,1.5-6C164.8,53.4,164.9,52,164.6,50.6
	z"/>
<path class="st2" d="M217.3,73.1c0-0.2-0.1-0.5-0.1-0.7c0-0.2-0.1-0.3-0.1-0.5c-2.7-13.4-13.7-27.4-28.7-26.2
	c-9.2,0.7-16.7,6.8-20.7,14.9c-4.9,9.8-5.1,22-2.8,32.4c1,4.6,2.5,9,4.9,13c2.4,4,5.7,7.5,9.8,9.7c0.3,0.2,0.7,0.4,1.1,0.5
	c7.1,3.3,15.5,2.6,22.3-1.1c1.2-0.7,2.4-1.4,3.4-2.2C218.2,103.7,219.7,86.8,217.3,73.1z M189.2,96.8c-2.4,0.5-4.9,0-7-1.3
	c-2.2-1.3-3.8-3.5-4.8-5.9c-1.8-4.2-1.9-9.2-0.3-13.5c1.5-3.8,4.5-7.2,8.5-7.9c2.8-0.5,5.9,0.4,8.1,2.3c3.2,2.7,4.9,7.4,5,12
	C198.7,89,195.7,95.5,189.2,96.8z"/>
<path class="st2" d="M259.2,70.6c0,0,12.5-3.9,15.9-10.5c2.5-4.8-1.4-8.8-5.5-11.1c-5.1-2.8-11-3.9-16.7-3.2
	C235.5,48,224.7,65.2,222,81.3c-0.2,1.2-0.4,2.4-0.5,3.6c-0.8,7.2-0.2,14.9,3.5,21.2c7.1,12,23.9,15.7,36.8,12.9
	c4.5-1,8.8-3.4,11.1-7.3c2.3-4,1.8-9.6-1.7-12.5c-1.4-1.1-3.1-1.8-4.8-2.1c-3.1-0.7-6.3-0.4-9.5-0.6c-3.2-0.1-6.5-0.7-9-2.6
	c-2.2-1.7-3.6-4.4-4.1-7.2c-0.4-2.6-0.1-5.3,1.3-7.6c1.5-2.5,4.1-4,6.7-5.2C254.2,72.6,256.7,71.4,259.2,70.6z"/>
<path class="st2" d="M289,44.8c0,0-7.7-0.7-11.8,19.3c0,0-4.2,15-0.9,31.8c0.7,3.5,1.5,7,2.8,10.3c2,5,5.8,12.2,12,12.7
	c2,0.2,4-0.4,5.8-1.2c3.9-1.7,7.5-4.2,10.7-7.1c1.2-1.1,2.4-2.3,4-2.7c2.3-0.6,4.7,0.7,6.4,2.3c1.7,1.6,3.2,3.6,5.2,4.8
	c7.8,4.8,9.6-7.8,10.4-12.7c1.1-7.2,0-15.2-1.1-22.3c-1-7.2-2.2-14.4-4.8-21.2c-1.5-4-3.4-8.2-6.7-11c-2.7-2.4-7.8-4.2-10.4-0.7
	c-2.7,3.6-2.5,9.1-2.2,13.3c0.1,8,1.8,15.9,1.6,23.9c-0.1,4.3-0.8,10.9-5.1,13.1c-9.5,4.8-8.4-12.7-8.1-17.5
	c0.6-10,2.6-19.9-1.1-29.5C295.7,50.3,293.6,44.8,289,44.8z"/>
<path class="st3" d="M345.6,43.6c8.9,0.3,7.2,26.9,7.5,31.7c7.1-16.3,16.5-28.7,22.2-28.7c2.6,0,4.5,2.1,4.5,4.6
	c0,6.1-8.9,23-14.4,29.9c10.6,7.8,19.6,19.4,19.6,30.1c0,4.1-2.6,7-5.3,7c-5.9,0-19.2-13.6-22.8-22.9c-0.2-0.2-0.2-0.5-0.5-0.8
	c-0.4,0.1-0.5,1.5-0.9,5.1c-0.7,9.5-4.5,19.8-8.9,20.1c-11.7,0.7-9.9-38.2-9.9-46.7C336.7,65.2,337.1,43.2,345.6,43.6z"/>
</svg>
