<svg xmlns="http://www.w3.org/2000/svg" width="182.134" height="30.001" viewBox="0 0 182.134 30.001"><g transform="translate(0 0)"><path d="M218.771.01H182.254l11.683,11.685L182.245,23.372h36.526a3.769,3.769,0,0,0,3.758-3.763V3.771A3.769,3.769,0,0,0,218.771.01" transform="translate(-40.395 -0.002)" fill="#d70000"/><path d="M162.876.01,174.559,11.7,162.876,23.379H172.3l11.683-11.684L172.3.01Z" transform="translate(-36.102 -0.002)" fill="#a8a8a8"/><path d="M220.018,13.36h-2.079v-9.8h-5.3l-10.786,7.354v6.2h11.82l-.007,4.29h4.215l0-4.29h2.128Zm-6.342,0h-8.385l8.385-5.917Z" transform="translate(-44.741 -0.789)" fill="#fff"/><path d="M38.737,7.543,42.333.01H3.589L0,7.546Z" transform="translate(0 -0.002)" fill="#d70000"/><path d="M15.355,14.478H25.979L17,33.209H6.377Z" transform="translate(-1.413 -3.209)" fill="#d70000"/><path d="M40.982,33.208l3.634-7.68H71.855l2.253-4.358s-14.561,0-16.39,0c-2.237.006-7.232.164-8.44-2.3-.8-1.634.773-4.394.773-4.394l30.478,0c1.942,0,3.577.41,4.487,1.563.861,1.083.8,2.64-.494,5.13-.743,1.433-2.693,5.81-3.149,6.726a7.741,7.741,0,0,1-3.861,3.67,16.126,16.126,0,0,1-7.646,1.642Z" transform="translate(-9.084 -3.207)" fill="#d70000"/><path d="M54.854,7.543s1.514-4.077,4.96-5.884C63.106-.062,69.751.01,70.346.01H95.652L92.086,7.543Z" transform="translate(-12.158 -0.002)" fill="#d70000"/><path d="M109.367,7.541l3.4-7.533h23.9s9.672-.55,11.43,7.533a10.576,10.576,0,0,1-1,6.83c-.058.114-7.418,15.629-7.418,15.629H129l8.254-17.067s1.26-2.037.409-3.788-3.384-1.619-3.6-1.6-24.692,0-24.692,0" transform="translate(-24.241)" fill="#d70000"/><path d="M104.6,14.478h10.629l-8.965,18.731H95.633Z" transform="translate(-21.197 -3.209)" fill="#d70000"/></g></svg>