<svg xmlns="http://www.w3.org/2000/svg" viewBox="0 0 79.395 30">
    <g transform="translate(-375 -39)">
        <g transform="translate(397.495 39)">
        <path d="M-875.069,451.458a14.578,14.578,0,0,0-14.383,14.764,14.578,14.578,0,0,0,14.383,14.764,14.577,14.577,0,0,0,14.383-14.764A14.577,14.577,0,0,0-875.069,451.458Zm0,23.948a9.039,9.039,0,0,1-8.887-9.184,9.039,9.039,0,0,1,8.887-9.184,9.039,9.039,0,0,1,8.887,9.184A9.039,9.039,0,0,1-875.069,475.406Z" transform="translate(898.487 -451.401)" fill="#da132d"/>
        <path d="M-648.214,451.458a14.029,14.029,0,0,0-7,1.862,1.1,1.1,0,0,0-.3,1.659l2.219,2.639a1.092,1.092,0,0,0,1.311.284,8.6,8.6,0,0,1,3.765-.865,9.039,9.039,0,0,1,8.887,9.184,9.039,9.039,0,0,1-8.887,9.184,8.607,8.607,0,0,1-3.822-.893,1.007,1.007,0,0,0-1.212.263l-2.324,2.764a1.011,1.011,0,0,0,.257,1.522,14.032,14.032,0,0,0,7.1,1.923,14.577,14.577,0,0,0,14.383-14.764A14.577,14.577,0,0,0-648.214,451.458Z" transform="translate(690.731 -451.401)" fill="#da132d"/>
        <path d="M-961.165,455.592v-3.764a.886.886,0,0,0-.886-.886h-8.063a.886.886,0,0,0-.886.886v4.923a.886.886,0,0,0,.886.886h2.523a.65.65,0,0,1,.65.65v21.669a.886.886,0,0,0,.886.886h4a.886.886,0,0,0,.886-.886v-4.021a19.884,19.884,0,0,1-2.74-10.171A19.883,19.883,0,0,1-961.165,455.592Z" transform="translate(971 -450.942)" fill="#da132d"/>
        </g>
        <path d="M-1172.118,570.544v-3.3a.365.365,0,0,1,.365-.365h1.844a.365.365,0,0,1,.365.365v3.3h3.292a.332.332,0,0,1,.332.332v1.587a.332.332,0,0,1-.332.332h-3.27v7.419s-.242,2.114,2.982,1.445a.347.347,0,0,1,.407.247l.331,1.217a.344.344,0,0,1-.123.365,3.684,3.684,0,0,1-2.253.557c-1.9,0-3.938-.5-3.938-3.946V572.81h-1.916a.322.322,0,0,1-.322-.322v-1.629a.322.322,0,0,1,.323-.322Z" transform="translate(1549.355 -515.046)" fill="#262626"/>
        <path d="M-1069.872,598.619h-1.97a.39.39,0,0,0-.369.263l-3.421,9.955-3.421-9.955a.39.39,0,0,0-.369-.263h-1.97a.39.39,0,0,0-.367.521l4.541,12.66a.56.56,0,0,0,.442.364l0,.007h2.292l0-.007a.559.559,0,0,0,.442-.364l4.541-12.66A.39.39,0,0,0-1069.872,598.619Z" transform="translate(1467.037 -543.271)" fill="#262626"/>
    </g>
</svg>