<svg id="Layer_1" data-name="Layer 1" xmlns="http://www.w3.org/2000/svg" viewBox="0 0 1183.72 439.23"><defs><style>.cls-1{fill:#100118;}</style></defs><path class="cls-1" d="M193.9,95.5c57.4,0,98.1,40.6,98.1,99.7v24.5H242.3V195.2c0-31.6-19.7-51.3-48.4-51.3s-48.4,19.7-48.4,51.3H95.8C95.8,136.1,136.4,95.5,193.9,95.5ZM95.8,343.9H291.9V296.2H156.4l69.7-76.4H165.5L95.8,296.1Z"/><path class="cls-1" d="M387.39,247h31.9c2.82,13.93,16.75,23,36.13,23,18.37,0,29.27-6.26,29.27-16.55,0-28.67-90.24-7.88-90.24-69.25,0-24.63,21.2-43.4,55.12-43.4,33.51,0,57.13,19,63.39,49.46h-32.1c-2.63-12.92-14.13-21.2-31.29-21.2-14.94,0-24,6.46-24,15.14,0,29.27,90.24,7.67,90.24,69.25,0,27.45-23.41,44.81-60.36,44.81C419.69,298.23,393.85,278.45,387.39,247Z"/><path class="cls-1" d="M531.94,182.76H560.2v23.62h2.22c7.27-18.37,21.4-25.64,38.36-25.64,27.86,0,47.44,22.61,47.44,58.75,0,35.93-19.58,58.74-47.44,58.74-17,0-31.09-7.47-38.36-25.64H560.2v69.25H531.94Zm56.53,90.84c17.16,0,28.26-13.32,28.26-34.11s-11.1-34.12-28.26-34.12-28.27,13.12-28.27,34.12C560.2,260.28,571.31,273.6,588.47,273.6Z"/><path class="cls-1" d="M660.74,239.49c0-34.12,24.23-58.75,60.16-58.75,35.74,0,60,24.63,60,58.75,0,33.91-24.22,58.74-60,58.74C685,298.23,660.74,273.4,660.74,239.49Zm60.16,34.32c17.36,0,30.08-12.72,30.08-34.32,0-21.81-12.72-34.32-30.08-34.32-17.56,0-30.28,12.51-30.28,34.32C690.62,261.09,703.34,273.81,720.9,273.81Z"/><path class="cls-1" d="M797,182.76h28.27v23.62h2.22c7.27-18,21-23.62,35.73-23.62h8.28c10.5,0,13.32-2.83,13.32-13.33V152.88h27.86v29.88H940v23.82H912.69v63.59H940v26H915.32c-22.21,0-30.49-8.48-30.49-30.48V206.58h-32.9c-16.76,0-26.65,11.71-26.65,31.49v58.14H797Z"/><path class="cls-1" d="M1003.14,269.77h30.28V187.2h-2.22c-5.65,11.51-11.71,14.94-23.42,14.94h-4.64V174.28h4.64c17.36,0,25.64-8.28,25.64-25.44v-6.06h28.87v127h26.24v26.44h-85.39Z"/></svg>