<svg id="Layer_1" data-name="Layer 1" xmlns="http://www.w3.org/2000/svg" viewBox="0 0 1216.95 439.23"><defs><style>.cls-1{fill:#100118;}</style></defs><path class="cls-1" d="M193.9,95.5c57.4,0,98.1,40.6,98.1,99.7v24.5H242.3V195.2c0-31.6-19.7-51.3-48.4-51.3s-48.4,19.7-48.4,51.3H95.8C95.8,136.1,136.4,95.5,193.9,95.5ZM95.8,343.9H291.9V296.2H156.4l69.7-76.4H165.5L95.8,296.1Z"/><path class="cls-1" d="M387.39,247h31.9c2.82,13.93,16.75,23,36.13,23,18.37,0,29.27-6.26,29.27-16.56,0-28.66-90.24-7.87-90.24-69.24,0-24.63,21.2-43.4,55.12-43.4,33.51,0,57.13,19,63.39,49.46h-32.1c-2.63-12.92-14.13-21.2-31.29-21.2-14.94,0-24,6.46-24,15.14,0,29.27,90.24,7.67,90.24,69.24,0,27.46-23.42,44.82-60.36,44.82C419.69,298.23,393.85,278.45,387.39,247Z"/><path class="cls-1" d="M531.93,182.76h28.26v23.62h2.22c7.27-18.37,21.4-25.64,38.36-25.64,27.86,0,47.44,22.61,47.44,58.75,0,35.93-19.58,58.74-47.44,58.74-17,0-31.09-7.47-38.36-25.64h-2.22v69.25H531.93Zm56.52,90.84c17.16,0,28.26-13.32,28.26-34.11s-11.1-34.12-28.26-34.12-28.26,13.12-28.26,34.12C560.19,260.28,571.29,273.6,588.45,273.6Z"/><path class="cls-1" d="M660.72,239.49c0-34.12,24.23-58.75,60.16-58.75,35.73,0,60,24.63,60,58.75,0,33.91-24.23,58.74-60,58.74C685,298.23,660.72,273.4,660.72,239.49Zm60.16,34.31c17.36,0,30.08-12.71,30.08-34.31,0-21.81-12.72-34.32-30.08-34.32-17.56,0-30.28,12.51-30.28,34.32C690.6,261.09,703.32,273.8,720.88,273.8Z"/><path class="cls-1" d="M797,182.76h28.26v23.62h2.22c7.27-18,21-23.62,35.73-23.62h8.28c10.5,0,13.33-2.83,13.33-13.33V152.88h27.85v29.88h27.26v23.82H912.65v63.59h27.26v26H915.28c-22.21,0-30.48-8.48-30.48-30.48V206.58H851.89c-16.76,0-26.65,11.71-26.65,31.49v58.14H797Z"/><path class="cls-1" d="M1091.51,190.43c0-12.72-10.3-22.81-27.86-22.81-18,0-30.48,12.31-30.48,28.87h-29.48c0-32.1,24-55.72,60-55.72,35.13,0,57.33,20.39,57.33,49.66,0,56.32-86.81,53.3-86.81,76.91v2H1121v26.85H1004.09V276.43C1004.09,210.62,1091.51,227,1091.51,190.43Z"/></svg>