<svg id="Layer_1" data-name="Layer 1" xmlns="http://www.w3.org/2000/svg" viewBox="0 0 1053.26 439.23"><defs><style>.cls-1{fill:#100118;}</style></defs><path class="cls-1" d="M193.9,95.5c57.4,0,98.1,40.6,98.1,99.7v24.5H242.3V195.2c0-31.6-19.7-51.3-48.4-51.3s-48.4,19.7-48.4,51.3H95.8C95.8,136.1,136.4,95.5,193.9,95.5ZM95.8,343.9H291.9V296.2H156.4l69.7-76.4H165.5L95.8,296.1Z"/><path class="cls-1" d="M424.94,269H506.5v27.25H387.39V269l81.35-96.91v-2H387.39V142.78H506.5v27.05l-81.56,97.11Z"/><path class="cls-1" d="M513.76,239.48c0-34.12,22.82-58.74,58.75-58.74,33.72,0,59.35,24,57.13,68.43H544.25c3,15.75,13.52,24.63,28.67,24.63,11.7,0,19.78-4.84,24.62-13.32H629c-7.47,22.61-27,37.75-56.12,37.75C536.58,298.23,513.76,273.4,513.76,239.48Zm86.81-9.69c-2.82-15.74-13.12-24.63-28.06-24.63-14.74,0-25.23,8.89-28.26,24.63Z"/><path class="cls-1" d="M676.28,272.59h-2.22v23.62H645.79V142.78h28.27v63.39h2.22c7.26-18,21.4-25.43,38.35-25.43,27.86,0,47.65,22.81,47.65,58.74,0,36.14-19.79,58.75-47.65,58.75C697.68,298.23,683.54,291,676.28,272.59Zm26,1c17.16,0,28.26-13.33,28.26-34.12s-11.1-34.12-28.26-34.12-28.26,13.33-28.26,34.12S685.16,273.6,702.32,273.6Z"/><path class="cls-1" d="M778.43,182.75h28.26v23.62h2.22c7.27-18,21.2-23.62,35.93-23.62h6.87V208.8H833.34c-16.76,0-26.65,11.7-26.65,31.69v55.72H778.43Z"/><path class="cls-1" d="M853.52,263.91c0-21.8,16.56-33.92,45-33.92,25,0,30.89-4.44,30.89-11.71,0-8.47-7.87-13.12-20.59-13.12-12.11,0-20,4.85-22,13.53H859c2.63-23.22,20.8-37.95,49.87-37.95,32.5,0,48.45,16.95,48.45,46.63v68.84H931.85V272.79h-2c-7.26,17.77-21.8,25.44-39.16,25.44C867.86,298.23,853.52,285.91,853.52,263.91Zm43.41,12.31c12.92,0,25.84-6.46,31.49-27.45l1-4.65c-6.66,3.64-17.36,5.86-30.28,5.86-11.91,0-19,4.24-19,13.12S886.43,276.22,896.93,276.22Z"/></svg>