<?xml version="1.0" encoding="UTF-8"?>
<svg id="Layer_1" data-name="Layer 1" xmlns="http://www.w3.org/2000/svg" xmlns:xlink="http://www.w3.org/1999/xlink" viewBox="0 0 15.29 28.09">
  <defs>
    <style>
      .cls-1 {
        fill: url(#linear-gradient);
        fill-rule: evenodd;
      }

      .cls-2 {
        clip-path: url(#clippath);
      }

      .cls-3 {
        fill: none;
      }

      .cls-4 {
        fill: red;
      }
    </style>
    <clipPath id="clippath">
      <rect class="cls-3" x="0" width="15.29" height="28.09"/>
    </clipPath>
    <linearGradient id="linear-gradient" x1="7.71" y1="12.7" x2="6.46" y2="18.05" gradientTransform="translate(0 29.54) scale(1 -1)" gradientUnits="userSpaceOnUse">
      <stop offset="0" stop-color="#a00417" stop-opacity="0"/>
      <stop offset="1" stop-color="#a00417"/>
    </linearGradient>
  </defs>
  <g class="cls-2">
    <g>
      <path class="cls-4" d="M14.94,15.25c-.26-1.04-1.09-2.45-3.5-3.23-1.35-.44-3.15-.66-5.33-.66H0v5H6.1c.48,0,.91,.01,1.29,.03,1.35,.07,1.51,.71,.36,1.42-.33,.2-.7,.42-1.12,.64L0,22.04v5.69l9-4.86c1.92-1.04,3.4-2.08,4.38-3.11,1.76-1.83,1.82-3.46,1.55-4.51Z"/>
      <path class="cls-1" d="M0,13l6.96-1.62c1.8,.05,3.3,.27,4.47,.65,2.35,.76,3.19,2.1,3.48,3.14l-6.53,1.52c-.17-.15-.5-.25-.99-.28-.38-.02-.81-.03-1.29-.03H0v-3.37Z"/>
      <path class="cls-4" d="M14.94,3.89c-.26-1.04-1.09-2.45-3.5-3.23-1.35-.44-3.15-.66-5.33-.66H0V5H6.1c.48,0,.91,.01,1.29,.03,1.35,.07,1.51,.71,.36,1.42-.33,.2-.7,.42-1.12,.64L0,10.68v5.69l9-4.86c1.92-1.04,3.4-2.08,4.38-3.11,1.76-1.83,1.82-3.46,1.55-4.51Z"/>
    </g>
  </g>
</svg>