<svg version="1.1" id="Layer_1" xmlns="http://www.w3.org/2000/svg" xmlns:xlink="http://www.w3.org/1999/xlink" x="0" y="0" viewBox="0 0 2808.95 2485.98" style="enable-background:new 0 0 2808.95 2485.98" xml:space="preserve"><style>.st7{fill:#dc0000}</style><linearGradient id="SVGID_5_" gradientUnits="userSpaceOnUse" x1="-1.911" y1="1244.527" x2="2809" y2="1244.527"><stop offset="0" style="stop-color:#fff"/><stop offset=".307" style="stop-color:#434041"/><stop offset=".79" style="stop-color:#474646"/><stop offset="1" style="stop-color:#4a4a4a"/></linearGradient><path d="M-1.91 3H2809v2483.06H532.67s-527.8 11.8-527.8-501.63S-1.91-4.38-1.91 3z" style="fill:url(#SVGID_5_)"/><path d="M41.65 35.18h2723.43v2405.78H559.6S48.22 2452.4 48.22 1954.94 41.65 28.03 41.65 35.18z" style="fill:#a4a4a4"/><path d="M2709.06 2358.96H599.1c-261.78 0-475-210.22-475-472V92.53h2584.96v2266.43z" style="fill:#fff"/><path style="fill:#1450d2" d="M124.09 92.71h1291.23v1674.61H124.09z"/><path class="st7" d="M1415.54 93.16h1293.09v1674.61H1415.54z"/><defs><path id="SVGID_6_" d="M2106.39 295.3c-136.33 0-246.8 171.32-246.8 382.61 0 211.29 110.47 382.61 246.79 382.61 136.25 0 246.72-171.32 246.72-382.61.01-211.29-110.46-382.61-246.71-382.61zm367.41 855.74-412.85 558.9h-324.86l418.84-558.44c-213.38 80.41-417.83-14.44-520.01-161.99-58.84-84.98-93.05-186.62-93.05-295.8 0-298.68 256.09-540.82 572.09-540.82 315.92 0 554.36 242.15 554.36 540.82 0 229.36-63.66 280.17-194.52 457.33zm-1108.94 464.27L1225.44 1353l136.9-243.3h281.29l-278.77 505.61zm-1115.15 97.58c-33.12 0-60.13-27.07-60.13-60.16V1324.8h275.17v182.02c0 12.42 10.15 22.58 22.61 22.58H664.8v183.49H249.71zm801.52-4.18L798.1 1253.36H184.33v-182.63H987.87l326.87 637.97h-263.51z"/></defs><use xlink:href="#SVGID_6_" style="overflow:visible;fill:#fff"/><clipPath id="SVGID_7_"><use xlink:href="#SVGID_6_" style="overflow:visible"/></clipPath><g style="clip-path:url(#SVGID_7_)"><defs><path id="SVGID_8_" d="M-76.67-313.12h3000v3196h-3000z"/></defs><use xlink:href="#SVGID_8_" style="overflow:visible;fill:#fff"/><clipPath id="SVGID_9_"><use xlink:href="#SVGID_8_" style="overflow:visible"/></clipPath></g><path class="st7" d="M838.57 2015.47h-78.05c-4.69 0-8.91-1.88-12.66-5.65-3.76-3.76-5.62-8-5.62-12.72 0-14.13 5.15-21.2 15.47-21.2h156.8c11.71 0 21.68-3.41 29.88-10.25 8.2-6.82 12.3-14.48 12.3-22.96 0-11.3-3.99-20.37-11.95-27.2-7.98-6.82-17.82-10.25-29.53-10.25H655.06c-9.84 0-17.7-3.76-23.55-11.3-5.87-7.53-8.79-16.25-8.79-26.14 0-8.94 2.34-17.77 7.03-26.5 4.68-8.71 11.48-13.07 20.39-13.07h272.81c24.84 0 44.53 10.13 59.06 30.38 10.78 16.96 16.17 36.74 16.17 59.35 0 20.26-5.62 38.75-16.88 55.46-11.25 16.73-25.08 28.86-41.48 36.39 23.91 16.96 40.31 44.05 49.22 81.25 0 .95 3.04 10.84 9.14 29.67 4.22 14.13 6.33 29.44 6.33 45.92 0 46.63-19.93 85.26-59.77 115.87-38.91 27.32-83.67 40.98-134.3 40.98-51.57 0-95.16-13.89-130.78-41.69-38.44-31.09-57.66-72.3-57.66-123.64 0-32.5 8.55-59.81 25.66-81.96 17.11-22.13 40.66-33.21 70.66-33.21 21.55 0 39.02 5.42 52.38 16.25 13.36 10.84 20.04 29.44 20.04 55.82 0 21.2-7.15 38.75-21.45 52.64-14.3 13.9-31.99 20.84-53.09 20.84-11.72 0-22.27-3.06-31.64-9.18-9.38-6.12-17.58-14.13-24.61-24.02 5.62 24.5 21.09 42.99 46.41 55.46 25.31 12.49 57.41 18.72 96.33 18.72 48.27 0 84.96-4.12 110.04-12.36 25.07-8.24 41.36-24.61 48.87-49.1-7.03 8.01-11.72 13.19-14.06 15.54-11.25 6.6-23.45 9.89-36.56 9.89-19.69 0-36.68-6.82-50.98-20.49-14.3-13.66-21.45-30.61-21.45-50.87 0-21.2 5.98-38.86 17.93-52.99 11.95-14.13 29.88-21.2 53.79-21.2l22.5 2.12c-10.79-14.59-23.2-24.02-37.27-28.26s-33.02-6.34-56.93-6.34zm-90 91.14c0-7.07-3.05-13.66-9.14-19.78-6.1-6.12-13.83-9.18-23.2-9.18-9.84 0-18.28 3.18-25.31 9.54s-10.55 13.55-10.55 21.55c0 6.6 3.52 12.49 10.55 17.66 7.03 5.19 15.47 7.77 25.31 7.77 10.3 0 18.28-2.58 23.91-7.77 5.62-5.18 8.43-11.77 8.43-19.79zm206.02 3.54c0-7.07-3.29-13.78-9.84-20.14-6.57-6.36-15.01-9.54-25.31-9.54-9.38 0-17.58 3.07-24.61 9.18-7.03 6.13-10.55 12.96-10.55 20.49 0 8.01 3.39 14.84 10.2 20.49 6.79 5.65 15.12 8.48 24.96 8.48 11.25 0 19.92-2.47 26.02-7.42 6.07-4.94 9.13-12.12 9.13-21.54zM1456.09 2177.97c3.75 10.37 12.41 19.55 26.02 27.55 13.59 8.01 28.83 12.01 45.7 12.01 28.12 0 51.44-7.3 69.96-21.9 18.51-14.59 27.77-35.08 27.77-61.47 0-16.01-7.03-31.79-21.09-47.34-16.41-17.89-36.8-26.85-61.17-26.85h-24.61c-10.79 0-19.81-3.29-27.07-9.89-7.27-6.59-10.9-14.84-10.9-24.73 0-15.07 3.98-26.14 11.95-33.21 7.96-7.07 21.09-10.6 39.38-10.6 39.84 0 72.65 17.91 98.44 53.7 21.09 32.5 31.64 77.72 31.64 135.65 0 37.21-10.09 70.9-30.23 101.03-23.45 35.8-56.02 53.7-97.73 53.7-25.79 0-46.88-9.18-63.28-27.55-16.41-18.37-26.49-40.98-30.23-67.83-15.94 29.21-38.79 52.05-68.55 68.53-29.77 16.49-66.21 24.73-109.34 24.73-55.32 0-101.02-16.83-137.11-50.52-36.1-33.67-54.14-77.12-54.14-130.35 0-42.85 8.9-78.66 26.72-107.39 20.62-35.79 51.79-53.7 93.52-53.7 22.5 0 41.24 7.31 56.25 21.9 15 14.61 22.5 34.62 22.5 60.05 0 25.44-7.62 45.11-22.85 59-15.24 13.9-34.34 20.84-57.3 20.84-19.69 0-36.21-6.12-49.57-18.37-13.36-12.24-20.04-28.97-20.04-50.16-7.5 12.72-11.25 26.14-11.25 40.27 0 37.21 14.06 64.29 42.19 81.25 22.96 14.13 58.12 21.2 105.47 21.2 49.22 0 87.19-7.07 113.91-21.2 36.09-17.42 54.14-45.45 54.14-84.08 0-14.59-5.62-28.26-16.88-40.98-11.25-12.72-26.72-19.08-46.41-19.08-13.13 0-24.38-3.41-33.75-10.25-9.38-6.82-14.06-16.36-14.06-28.61 0-13.18 3.75-22.84 11.25-28.97 7.49-6.12 17.34-9.18 29.53-9.18 32.8 0 59.29 17.66 79.45 52.99 16.4 31.56 24.61 70.9 24.61 117.99l-2.84 31.82zm-227.11-122.23c0-8.48-3.64-15.65-10.9-21.55-7.27-5.88-16.06-8.83-26.37-8.83-10.32 0-19.46 2.72-27.42 8.12-7.98 5.42-11.95 12.36-11.95 20.84 0 8.95 3.98 16.14 11.95 21.55 7.96 5.42 17.11 8.12 27.42 8.12 10.3 0 19.09-2.58 26.37-7.77 7.26-5.16 10.9-12 10.9-20.48zM2061.65 2291.72c-7.5 23.08-21.8 34.62-42.89 34.62-16.41 0-28.37-1.66-35.86-4.95-13.13-7.53-19.69-23.78-19.69-48.75 0-4.7 6.33-23.32 18.98-55.82 6.56-16.48 9.84-29.91 9.84-40.27 0-61.7-9.14-104.8-27.42-129.29-15.47-20.25-37.74-30.38-66.8-30.38-36.56 0-63.05 17.2-79.45 51.58-11.25 25.43-16.88 61-16.88 106.69 0 13.67 5.62 35.09 16.88 64.29 7.03 17.43 10.55 28.5 10.55 33.21 0 24.97-6.33 40.75-18.98 47.34-6.1 3.76-18.52 5.65-37.27 5.65-14.06 0-25.55-5.42-34.45-16.25-9.84-16.01-14.77-41.21-14.77-75.6 0-52.75 10.3-100.08 30.94-142.01 20.62-41.92 48.04-72.53 82.27-91.85-12.2-4.24-23.45-8.71-33.75-13.42-20.63-8.48-35.16-20.01-43.59-34.62-5.16-7.07-7.73-14.59-7.73-22.61 0-8.48 3.62-17.54 10.9-27.2 7.26-9.65 16.75-14.48 28.48-14.48 8.44 0 16.63 3.78 24.61 11.3 1.87 1.89 8.9 13.19 21.09 33.91 5.15 8.01 14.29 21.2 27.42 39.57 27.18-24.49 52.49-51.1 75.94-79.84 23.43-28.72 46.64-57.94 69.61-87.61 8.44-11.3 19.69-16.96 33.75-16.96 13.12 0 23.55 5.07 31.29 15.19 7.73 10.13 11.6 21.79 11.6 34.97 0 12.25-3.99 21.9-11.95 28.97-2.35 2.36-32.34 22.85-90 61.47-32.34 19.32-60.01 37.45-82.97 54.4 39.84 0 75.34 19.78 106.52 59.35 31.17 39.57 50.27 87.85 57.3 144.84 3.27 7.54 10.2 14.48 20.74 20.84 10.55 6.36 23.31 9.54 38.32 9.54 28.12 0 51.33-7.3 69.61-21.9 18.28-14.59 27.42-35.08 27.42-61.47 0-16.01-7.03-31.79-21.09-47.34-15.94-17.89-36.1-26.85-60.47-26.85h-26.02c-10.32 0-18.98-3.29-26.02-9.89-7.03-6.59-10.55-14.84-10.55-24.73 0-15.07 3.75-26.14 11.25-33.21 7.49-7.07 20.85-10.6 40.08-10.6 39.38 0 71.72 17.91 97.03 53.7 22.03 32.5 33.05 77.72 33.05 135.65 0 37.21-10.32 70.9-30.94 101.03-24.38 35.8-56.72 53.7-97.03 53.7-15.01 0-28.12-2.72-39.38-8.12s-21.09-14.01-29.52-25.79z"/></svg>