<svg id="Camada_2" data-name="Camada 2" xmlns="http://www.w3.org/2000/svg" viewBox="0 0 361.61 399.6"><defs><style>.cls-1,.cls-2{fill:#101444}.cls-2{fill-rule:evenodd}</style></defs><g id="Camada_1-2" data-name="Camada 1"><path class="cls-2" d="M178.11 0C94.24 0 26.26 68 26.23 151.88c.03 83.91 68 151.88 151.88 151.91 83.91-.03 151.88-68 151.88-151.91S262.02 0 178.11 0m24.85 82.58c4.1-.72 7.98 2.02 8.7 6.08.72 4.09-2.02 7.98-6.08 8.7a7.49 7.49 0 0 1-8.7-6.08 7.512 7.512 0 0 1 6.08-8.7m40 72.85c.54 1.81 1.02 3.7 1.36 5.63.48 2.74.72 5.45.72 8.13 0 22.17-15.9 41.83-38.49 45.81-2.74.48-5.48.72-8.16.72-22.14 0-41.83-15.9-45.81-38.52-.33-1.9-.54-3.83-.63-5.72l31.59-5.57 59.42-10.48zm30.63 91.92c-23.52 23.49-55.59 38.37-91.19 39.48a24.653 24.653 0 0 1-1.69-9.04c-.03-9.76 5.6-18.25 13.94-22.65 36.95-7.95 62.67-40.66 62.7-77.49 0-4.58-1.32-15.63-4.24-23.22-2.92-7.62-36.56-95.53-36.56-95.53l-3.89.27c-.39.03-4.43.36-9.85 2.62-5.39 2.23-12.23 6.44-17.77 14.19-6.9 9.61-7.95 19.61-7.98 25.12 0 2.2.18 3.73.27 4.25l5.12 49.93-30.12 5.33c-.12-1.51-.33-3.01-.6-4.49-4.28-24.37-25.45-41.5-49.36-41.5-2.92 0-5.84.24-8.79.78-24.33 4.31-41.47 25.45-41.47 49.36 0 2.92.24 5.84.75 8.79.66 3.61 1.65 7.08 3.01 10.36l1.62 3.95 41.11-7.23c.15 3.55.51 7.11 1.15 10.72 6.75 38.1 39.57 65.02 76.92 65.57-4.22 5.75-6.63 12.86-6.63 20.87 0 3.07.39 6.05 1.14 8.91-34.51-1.75-65.59-16.47-88.51-39.36-24.42-24.48-39.54-58.15-39.54-95.47s15.12-70.98 39.54-95.44c24.46-24.46 58.16-39.55 95.44-39.55s71.02 15.09 95.47 39.55c24.42 24.45 39.51 58.15 39.54 95.44-.03 37.32-15.12 70.99-39.54 95.47"/><path class="cls-2" d="M230.38 83.13l15.17-11-15.17-2.74 11.2-10.52h-20.42m-23.56-22.4l-6.35 10.45-18.13-5.63 2.56 19.67-22.56 10.6 20.42 9.64c6.32-14.88 19.81-26.32 36.89-29.36.75-.12 1.51-.21 2.26-.33l-9.52-24.18-5.57 9.16z"/><path class="cls-1" d="M272.41 143.25c-3.46-8.81-42.03-60.12-42.03-60.12l32.34 82.34c8.81-3.46 13.15-13.41 9.69-22.22m-91.97 220.41h-1.76v-20.02h1.86c7.25 0 12.74 1.59 12.74 9.81s-5.31 10.21-12.84 10.21m26.52-10.58c0-14.21-9.59-20.01-23.44-20.01H165v66.51h13.68v-26.81h.18s10.23 15.9 13.01 20.37c2.5 3.95 6.68 6.5 13.04 6.44h7.54l-19.81-28.07c9.4-1.48 14.32-9.96 14.32-18.43M88.75 333.02l-18.59 47.14-18.59-47.14H0v12.92h15.68v53.57h12.88v-53.57h14.21l18.65 47.26c1.22 3.65 4.67 6.31 8.74 6.31s7.64-2.73 8.8-6.47l23.67-60.02H88.75zm175.94 12.92h15.66v53.57h12.9v-53.57h15.68v-12.92h-44.24v12.92zm-28.18 29.25l8.96-22.67 8.94 22.67H236.5zm8.95-42.07c-4.15 0-7.64 2.74-8.81 6.52l-23.04 58.46s4.65 2.86 9.86.7c4.82-1.98 6.16-6.15 6.16-6.15l1.89-4.8h27.89l1.86 4.69s1.13 3.58 5.17 5.76c5.64 2.99 10.89-.23 10.89-.23l-23.12-58.6c-1.21-3.68-4.66-6.34-8.74-6.34M121.8 375.19l8.95-22.67 8.95 22.67h-17.91zm8.94-42.07c-4.13 0-7.63 2.74-8.79 6.52L98.91 398.1s4.65 2.86 9.85.7c4.84-1.98 6.17-6.15 6.17-6.15l1.9-4.8h27.87l1.86 4.69s1.15 3.58 5.17 5.76c5.63 2.99 10.89-.23 10.89-.23l-23.12-58.6c-1.21-3.68-4.67-6.34-8.75-6.34m217.97-.11v41.75h-.02c-.07 6.24-5.14 11.27-11.37 11.27s-11.31-5.03-11.39-11.27h-.01v-41.75h-12.89v41.75c.08 13.34 10.93 24.15 24.3 24.15s24.21-10.81 24.27-24.15v-41.75h-12.89z"/></g></svg>