<svg width="300" height="300" viewBox="0 0 300 300" fill="none" xmlns="http://www.w3.org/2000/svg">
<rect width="300" height="300" fill="white"/>
<path fill-rule="evenodd" clip-rule="evenodd" d="M104.71 206.69H99.4941V193.574H95V189.581H109.201V193.574H104.71V206.69Z" fill="black"/>
<path fill-rule="evenodd" clip-rule="evenodd" d="M120.857 203.066C120.008 205.744 118.788 207 116.364 207C113.923 207 112.679 205.744 111.832 203.066L107.566 189.581H112.784L115.578 198.66C115.765 199.235 116.034 200.247 116.364 201.708C116.696 200.247 116.924 199.235 117.109 198.66L119.884 189.581H125.1L120.857 203.066Z" fill="black"/>
<path fill-rule="evenodd" clip-rule="evenodd" d="M131.477 195.489C131.477 191.742 134.561 189.272 139.033 189.272C143.05 189.272 146.03 191.535 146.03 194.379C146.03 195.757 145.265 196.788 143.732 197.529C145.947 198.351 147.107 199.833 147.107 201.708C147.107 203.005 146.569 204.137 145.555 205.002C143.876 206.445 141.87 206.689 138.993 206.689H137.521V202.881H139.302C140.876 202.881 141.744 202.263 141.744 201.297C141.744 200.308 140.876 199.67 139.302 199.67H137.521V196.251H138.309C140.007 196.251 140.876 195.715 140.876 194.624C140.876 193.698 140.047 193.018 138.929 193.018C137.502 193.018 136.695 193.821 136.695 195.387V206.669H131.477V195.489V195.489Z" fill="black"/>
<path fill-rule="evenodd" clip-rule="evenodd" d="M147.665 196.581C147.665 192.011 150.958 189.293 155.635 189.293C160.314 189.293 163.626 192.011 163.626 196.581V206.689H158.45V200.348H153.773V196.333H158.45V196.147C158.45 194.481 157.332 193.451 155.635 193.451C153.835 193.451 152.841 194.459 152.841 196.333V206.689H147.666V196.581H147.665Z" fill="black"/>
<path fill-rule="evenodd" clip-rule="evenodd" d="M165.076 189.581H170.292V195.655H175.821V189.581H181.016V206.69H175.821V199.793H170.292V206.69H165.076V189.581Z" fill="black"/>
<path d="M187.909 189.581H182.713V206.689H187.909V189.581Z" fill="black"/>
<path fill-rule="evenodd" clip-rule="evenodd" d="M189.422 196.581C189.422 192.011 192.712 189.293 197.392 189.293C202.07 189.293 205.402 192.011 205.402 196.581V206.689H200.207V200.348H195.529V196.333H200.207V196.147C200.207 194.481 199.109 193.451 197.392 193.451C195.591 193.451 194.617 194.459 194.617 196.333V206.689H189.422V196.581H189.422Z" fill="black"/>
<path d="M149.247 109.166L138.617 93.4393C136.489 94.0056 134.386 94.7423 132.345 95.7138L145.399 115.01C150.051 119.534 154.485 124.787 158.473 130.695C162.465 136.608 165.733 142.71 168.202 148.716L181.184 167.904C182.773 166.268 184.273 164.694 185.605 162.954L175.003 147.268C169.876 142.029 164.887 136.012 160.368 129.331C155.852 122.64 152.172 115.843 149.247 109.166Z" fill="#004A93"/>
<path d="M158.281 96.0754L155.756 92.3424C153.116 92.0251 150.45 91.9151 147.796 92.0684L154.567 102.077C159.976 107.571 165.639 114.255 171.07 122.292C176.174 129.835 180.27 137.391 183.547 144.915L190.408 155.056C191.539 152.655 192.449 150.17 193.136 147.615L190.507 143.727C184.092 137.221 177.918 129.779 172.257 121.383C166.582 113.002 161.921 104.455 158.281 96.0754Z" fill="#004A93"/>
<path d="M154.246 133.518C150.244 127.599 147.011 121.51 144.54 115.499L131.436 96.1256C129.496 96.945 127.604 97.9882 125.793 99.2761L140.821 121.488C144.795 125.415 148.59 129.944 152.039 135.021C155.473 140.068 158.253 145.329 160.427 150.466L175.404 172.603C177.194 171.29 178.876 169.955 180.453 168.599L167.386 149.279C162.718 144.737 158.252 139.433 154.246 133.518Z" fill="#004A93"/>
<path d="M153.748 102.582L146.631 92.0512C144.293 92.2393 141.948 92.603 139.629 93.1658L150.072 108.622C155.077 113.7 160.045 119.869 164.545 126.534C169.045 133.19 172.827 139.987 175.772 146.66L186.219 162.121C187.613 160.192 188.844 158.179 189.907 156.083L182.778 145.534C177.007 139.696 171.524 132.977 166.404 125.411C161.279 117.837 157.053 110.145 153.748 102.582Z" fill="#004A93"/>
<path d="M117.211 154.539L105.782 137.642C106.024 145.581 108.479 153.637 113.314 160.797C118.354 168.232 124.581 173.181 132.123 176.582L121.039 160.198C120.262 159.407 119.537 158.526 118.878 157.56C118.211 156.581 117.656 155.566 117.211 154.539Z" fill="#004A93"/>
<path d="M140.113 122.187L124.982 99.8122C123.158 100.971 121.481 102.321 119.924 103.832L136.184 127.871C139.652 131.137 142.916 134.947 145.836 139.255C148.74 143.548 151.084 148.039 152.83 152.481L168.937 176.294C170.859 175.317 172.732 174.263 174.582 173.156L159.558 150.941C155.632 147.023 151.898 142.438 148.483 137.408C145.076 132.402 142.285 127.264 140.113 122.187Z" fill="#004A93"/>
<path d="M178.627 117.042C176.036 113.204 169.967 103.327 166.202 94.9658C163.242 93.8378 160.178 93.0245 157.059 92.5348L159.106 95.5596C165.519 102.073 171.715 109.576 177.385 117.962C183.023 126.314 187.643 134.759 191.272 143.096L193.463 146.333C194.182 143.265 194.58 140.126 194.635 136.951C192.698 135.448 181.58 121.745 178.627 117.042Z" fill="#004A93"/>
<path d="M183.755 113.622C186.256 117.116 193.545 129.378 194.428 131.753C193.72 124.74 191.317 117.786 187.082 111.53C182.717 105.078 176.935 100.139 170.422 96.8408C170.614 96.943 170.806 97.0466 170.997 97.154C173.911 100.025 180.6 108.898 183.755 113.622Z" fill="#004A93"/>
<path d="M142.339 141.585C139.448 137.309 137.135 132.887 135.404 128.475L119.204 104.524C117.579 105.994 116.1 107.649 114.785 109.476L131.613 134.355C134.459 137.009 137.132 140.103 139.497 143.604C141.859 147.081 143.697 150.689 145.095 154.287L161.739 178.895C163.861 178.242 165.955 177.522 168.027 176.705L151.977 152.976C148.519 149.707 145.23 145.859 142.339 141.585Z" fill="#004A93"/>
<path d="M124.663 153.561C123.414 151.725 122.451 149.847 121.708 147.943L106.942 126.105C106.169 129.219 105.779 132.487 105.766 135.85L118.149 154.16C118.885 154.921 119.577 155.761 120.204 156.681C120.844 157.622 121.379 158.597 121.815 159.582L133.785 177.283C136.831 178.406 140.028 179.277 143.297 179.873L128.828 158.475C127.316 157.048 125.904 155.408 124.663 153.561Z" fill="#004A93"/>
<path d="M130.535 149.706C128.687 147.345 127.127 143.675 126.285 141.467L109.998 117.382C108.835 119.704 107.928 122.202 107.256 124.828L122.533 147.409C124.017 148.821 125.379 150.419 126.615 152.257C127.855 154.081 128.852 155.973 129.613 157.875L144.612 180.046C147.234 180.295 149.901 180.403 152.579 180.348L136.825 157.052C133.811 154.445 130.535 149.706 130.535 149.706Z" fill="#004A93"/>
<path d="M136.465 145.632C134.113 142.151 132.236 138.55 130.835 134.951L114.173 110.321C112.757 112.154 111.531 114.18 110.485 116.359L127.035 140.823C128.774 142.409 131.686 145.267 133.217 147.897C133.217 147.897 136.441 152.817 137.71 156.603L153.722 180.27C156.058 180.009 158.4 179.63 160.737 179.15L144.32 154.883C141.474 152.222 138.842 149.13 136.465 145.632Z" fill="#004A93"/>
</svg>
