<?xml version="1.0" encoding="utf-8"?>
<!-- Generator: Adobe Illustrator 26.0.1, SVG Export Plug-In . SVG Version: 6.00 Build 0)  -->
<svg version="1.1" id="Layer_1" xmlns="http://www.w3.org/2000/svg" xmlns:xlink="http://www.w3.org/1999/xlink" x="0px" y="0px"
	 viewBox="0 0 1704 581" style="enable-background:new 0 0 1704 581;" xml:space="preserve">
<style type="text/css">
	.st0{fill-rule:evenodd;clip-rule:evenodd;fill:#4CA585;}
	.st1{fill-rule:evenodd;clip-rule:evenodd;fill:#5F8DB5;}
	.st2{fill-rule:evenodd;clip-rule:evenodd;fill:#FF7276;}
	.st3{fill-rule:evenodd;clip-rule:evenodd;fill:#F3BD48;}
	.st4{fill-rule:evenodd;clip-rule:evenodd;fill:#CC5599;}
	.st5{fill:#2D2A26;}
</style>
<g>
</g>
<g>
	<g>
		<path class="st0" d="M21.6,333.1V318l5-5l5-5h25.2l5,5h5l5,5H82l5,5h20.1l5,5h5l5,5v10.1l-5,5h-5l-5-5H87l-5-5v10.1H71.9l-5-5
			l-5,5H46.7h-5l-5-5h-5L21.6,333.1z"/>
		<path class="st0" d="M132.3,328.1l-5,5v5l5,5v5h-5l-5,5v5l5,5h10.1l5-5l5,5h5h5v5h5l5,5v10.1h5l5,5v5v5h-5l5,5l5,5l5-5l5-5v-5
			l-5-5l5-5h5l5-5l5-5v-5l5-5l-5-5v-5l5-5l5-5v-5l-5-5h-5l-5-5h-10.1l-5-5l-5,5h-5h-5l5-5l-5-5l-5,5h-5l-5,5h-5v-5l-5-5l-5,5h-5l5,5
			l-5,5L132.3,328.1z"/>
	</g>
	<g>
		<path class="st1" d="M157.5,262.6l-5-5l-5-5v-5l-5-5l10.1-10.1h5l-5-5h-5l-5,5l-5-5v-5l-5-5v-5v-10.1l5-5h-5l5-5h-5l-5,5l-5-5V167
			l-5-5v-15.1v-5l5-5l5-5h5h5l5,5l5,5v15.1v5l5,5v20.1h-10.1l5,5h5l5,5v15.1l5,5v5l-5,5h5v5l5,5v15.1v5l-5,5H157.5z"/>
		<path class="st1" d="M137.3,302.9l5-5h5l5,5h10.1l-5-5v-10.1l5-5l5-5l5-5l5,5v-5l5-5l5-5l5,5v5l-5,5v-5l-5,5l5,5l5-5l5-5v5l-5,5h5
			h5h5v5l5-5l5-5v5h5l5-5l5-5h5l5,5l-5,5h5h5l5-5l5,5l5-5v-5h5l5-5h5v-5l5-5l5-5h5l5,5h-5v5h5v10.1v5l-5,5l5,5l5,5v10.1l-5-5l-5-5
			v-5l-5-5v5v5l-5,5h-5v5v5v5l5-5h5l5,5v5v5l0,0l-5-5v5v5v5l-5,5v-5v-5v-5l-5,5h-5l-5-5h-5v5l-5,5l-5-5l-5,5h-10.1l-5-5v5h-15.1
			l-5-5h-5v-5l-5-5l-5-5h-5l-5,5h-5l-5-5v-5h-10.1v5l-5,5l-5,5v-5v-5l-5-5h-5h-5L137.3,302.9z"/>
		<path class="st1" d="M152.4,277.7h5v5L152.4,277.7z"/>
		<path class="st1" d="M298.3,302.9v5h5L298.3,302.9z"/>
		<path class="st1" d="M202.7,277.7v-5h5l5-5l5,5h-5h-5l0,0L202.7,277.7z"/>
		<path class="st1" d="M232.9,262.6l-5,5h5V262.6z"/>
		<path class="st1" d="M253.1,267.7v5l5-5H253.1z"/>
	</g>
	<g>
		<path class="st2" d="M303.4,313l-5,5v5l-5,5h10.1l-5,5l-5,5v5h-5l-5,5h-10.1h-5l-5-5h-5v-5l-5-5v5h-5l-5,5v5l-5,5h-5v5v5l5,5v5
			l5,5h5l5,5h5l5-5v5l5-5h5l5,5v5l5,5l5-5h5v-5l5,5h5v5l5-5l5-5l5-5v-5v-5v-5l-5-5v-5l5-5h-5h-5v-5h5l5-5l5-5v-5h-5l5-5v-5l-5,5v-5
			l-5,5l-5-5L303.4,313z"/>
		<path class="st2" d="M323.5,373.3l5,5h-5V373.3z"/>
		<path class="st2" d="M303.4,393.5h5l-5,5V393.5z"/>
		<path class="st2" d="M243,131.7v20.1v5l5,5v5h10.1l5,5H248l0,0l-5,5v15.1v5l5,5v10.1h10.1l5,5H248v5h15.1l-5,5H248v15.1v5l5,5l5,5
			h5l5-5v-5v-5l5-5v-10.1l-5-5v-5v-5l5-5v-25.2v-5l-5-5l-5-5l5-5l5-5v-20.1l-5-5v-5l-5-5l-5-5h-5l-5,5l-5,5V131.7z"/>
	</g>
	<g>
		<path class="st3" d="M177.6,111.6l-5,5v10.1l5,5v20.1V162l5,5h10l5,5h5l-5,5h-5h-5l-5,5v10.1v5l5,5v10.1l5,5h5l5,5h-5l-5,5v5v5
			l5,5v5l5,5h5l5-5l5-5v-5v-10.1v-5l-5-5h-5v-5h5h5v-25.2l-5-5V162l-5-5v-25.2l-5-5v-10.1l-5-5h-5l-5-5h-5L177.6,111.6z"/>
		<path class="st3" d="M212.8,373.3l-5,5v5l5,5h-5l-5,5v5l-5,5l5,5v5h-5l-5,5h5l5,5h5v-5l5,5v5v5l5,5v5l5,5l5,5l5,5v-5l5-5v-5v-5v-5
			l5-5v-5l5-5l5-5v-5h5l-5-5v-5H243l-5-5h-5h-5v-5l-5-5h-5l5-5l-5-5H212.8z"/>
		<path class="st3" d="M273.2,383.4h-5l-5,5v5h-5h-5l-5-5v10.1h5h5h5l-5,5l5,5h5v-5l5-5l-5-5l5-5V383.4z"/>
	</g>
	<g>
		<g>
			<path class="st4" d="M323.5,141.8l-5-5h-5l-5,5l-5,5V167v5l-5,5v5v5v5v10.1l-5,5v5l-5,5v5v10.1v5l5,5v5h5h5l5-5v-5v-5l5-5v-10.1
				l-5-5h-5l5-5h5l5-5l5-5v-15.1l-5-5v-5h5v-5h-10.1l5-5h5l5-5v-5v-5L323.5,141.8z M303.7,405l-5-5l-5-5l-5,5l-5,5l-5,5v5l-5-5l-5,5
				v5l-5-5v10.1l-5,5l-5-5l-5,5h5l5,5v5v5l5,5h5l5-5h5l5-5h5l5-5l5-5c0,0,0-5,0-5s3.4-3.4,5-5v-5v-5l-5,5v-5L303.7,405z
				 M293.6,430.1h-5c0,0,0-3,0-5c0,0,5-5,5-5C293.6,420.1,293.6,430.1,293.6,430.1z"/>
		</g>
	</g>
</g>
<g>
	<g>
		<path class="st5" d="M382.7,230.5h62.7v159.7h44.2V230.5h62.7v-39.9H382.7V230.5z M667.8,350.3h-27.1l-38.5-159.7h-45.6
			l48.5,199.6h98.4L752,190.6h-45.6L667.8,350.3z M994.1,303.8c-2.3-3.4-4.8-6.4-7.7-9c-2.9-2.6-5.7-4.8-8.6-6.7
			c-6.8-4.4-14.6-7.4-23.4-9.1v-2.9c4.6-1.5,8.6-3.8,12-6.8c3-2.7,5.8-6.2,8.4-10.6c2.6-4.4,3.8-10,3.8-16.8
			c0-6.5-1.5-12.7-4.6-18.8c-3-6.1-7.4-11.5-13-16.4c-5.6-4.8-12.4-8.7-20.2-11.7c-7.9-2.9-16.7-4.4-26.4-4.4h-92.7v199.6h106.9
			c11.4,0,21.6-1.6,30.7-4.7c9-3.1,16.6-7.4,22.8-12.8c6.2-5.4,10.9-11.8,14.3-19.1c3.3-7.3,5-15.1,5-23.2c0-5.5-0.7-10.5-2-14.8
			C998.1,311.1,996.3,307.2,994.1,303.8z M866,230.5h48.5c5.7,0,10.2,1.6,13.5,4.8c3.3,3.2,5,7.3,5,12.3c0,4.9-1.7,9-5,12.3
			c-3.3,3.2-7.8,4.8-13.5,4.8H866V230.5z M948.7,343.7c-4.8,4.4-11.4,6.6-20,6.6H866v-45.6h62.7c8.6,0,15.2,2.2,20,6.6
			c4.8,4.4,7.1,9.8,7.1,16.3C955.8,333.9,953.5,339.3,948.7,343.7z M1184.6,300.5c2.3-3.1,4.3-6.7,6.1-10.7c1.8-4,3.3-8.4,4.4-13.3
			s1.7-10.2,1.7-16.1c0-9.9-1.8-19.1-5.4-27.7c-3.6-8.6-8.7-16-15.4-22.2c-6.7-6.3-14.7-11.2-24.2-14.7c-9.5-3.5-20.2-5.3-31.9-5.3
			h-98.4v199.6h44.2v-59.9h49.9c5.5,10.3,11,20.2,16.4,29.9c5.4,9.7,10.9,19.7,16.4,29.9h47.1l-37.1-68.4c7-3.2,13.4-7.6,19.1-13.1
			C1179.9,306.3,1182.3,303.6,1184.6,300.5z M1143.8,281.8c-5.9,5.7-13.9,8.6-24,8.6h-54.2v-59.9h54.2c10.1,0,18.1,2.9,24,8.6
			c5.9,5.7,8.8,12.8,8.8,21.4S1149.7,276.1,1143.8,281.8z M1222.5,390.2h44.2V190.6h-44.2V390.2z M1444.6,335.9
			c-3.4,4.5-7.5,8.4-12.1,11.8c-4.7,3.4-10,6.1-16,8.1c-6,2-12.7,3-20.1,3c-8.2,0-16.1-1.8-23.7-5.3c-7.6-3.5-14.3-8.4-20.1-14.5
			c-5.8-6.2-10.4-13.4-13.8-21.7c-3.4-8.3-5.1-17.3-5.1-26.9s1.7-18.7,5.1-26.9c3.4-8.3,8-15.5,13.8-21.7c5.8-6.2,12.5-11,20.1-14.5
			c7.6-3.5,15.5-5.3,23.7-5.3c6.8,0,12.9,0.9,18.3,2.7c5.3,1.8,10.1,4.2,14.3,7.3c4.2,3,7.8,6.6,11,10.6c3.1,4,5.7,8.1,7.8,12.3
			l44.2-5.7c-2.5-8.6-6.4-16.9-11.7-25c-5.3-8.1-11.9-15.2-19.8-21.4c-7.9-6.2-17.1-11.2-27.7-15c-10.6-3.8-22.2-5.7-34.9-5.7
			c-14.6,0-28.5,2.9-41.6,8.7c-13.1,5.8-24.6,13.6-34.5,23.5c-9.9,9.9-17.7,21.4-23.5,34.5c-5.8,13.1-8.7,27-8.7,41.6
			c0,14.6,2.9,28.5,8.7,41.6c5.8,13.1,13.6,24.6,23.5,34.5c9.9,9.9,21.4,17.7,34.5,23.5c13.1,5.8,27,8.7,41.6,8.7
			c13.5,0,25.9-2,37.1-6.1c11.2-4.1,21.1-9.5,29.5-16.1c8.5-6.7,15.5-14.3,21.1-22.8c4.7-7.2,8.3-14.5,10.8-21.9l-45.3-5.5
			C1449.1,329.5,1447,332.8,1444.6,335.9z M1667.4,305.9c-5.7-7.7-12.8-14-21.4-18.8c-8.6-4.8-17.8-8.7-27.8-11.7
			c-10-2.9-19.2-5.7-27.8-8.3c-8.6-2.6-15.7-5.5-21.4-8.8c-5.7-3.3-8.6-7.8-8.6-13.5s2.7-10.9,8.1-15.7c5.4-4.8,13.2-7.1,23.2-7.1
			c10.6,0,19,2.6,25.1,7.7c6.1,5.1,10.6,11.6,13.4,19.4l44.2-5.7c-2.1-8.6-5.4-16.5-9.8-24c-4.5-7.4-10.1-13.9-17-19.5
			c-6.8-5.6-14.9-10-24.2-13.1c-9.3-3.1-19.9-4.7-31.7-4.7c-11.8,0-22.4,1.7-31.9,5.1c-9.5,3.4-17.6,7.9-24.2,13.5
			c-6.7,5.6-11.8,12-15.4,19.2c-3.6,7.2-5.4,14.5-5.4,22c0,12,2.9,21.6,8.6,28.9c5.7,7.3,12.8,13.4,21.4,18.1
			c8.6,4.8,17.8,8.6,27.8,11.4s19.2,5.7,27.8,8.6c8.6,2.9,15.7,6.1,21.4,9.7c5.7,3.6,8.6,8.5,8.6,14.5c0,7.2-2.9,13.3-8.8,18.3
			c-5.9,4.9-15.3,7.4-28.2,7.4c-12.9,0-23.1-3.1-30.4-9.4c-7.3-6.3-12.4-14.1-15.3-23.4l-44.2,5.7c2.5,9.7,6.1,18.6,11,26.8
			c4.8,8.2,11,15.3,18.4,21.2s16.1,10.6,26.1,14c10,3.3,21.4,5,34.4,5c12.7,0,24.2-1.8,34.5-5.4c10.3-3.6,19-8.4,26.1-14.3
			c7.1-5.9,12.6-12.6,16.4-20.1c3.8-7.5,5.7-15.2,5.7-23C1675.9,323.6,1673.1,313.6,1667.4,305.9z"/>
	</g>
</g>
</svg>
