<svg width="86" height="24" viewBox="0 0 86 24" fill="none" xmlns="http://www.w3.org/2000/svg">
<path d="M30.652 19C30.302 19 30.092 18.79 30.092 18.44V10.446C30.092 10.096 30.302 9.9 30.652 9.9H33.956C36.868 9.9 38.73 11.72 38.73 14.436C38.73 17.18 36.868 19 33.956 19H30.652ZM31.982 17.432H33.9C35.636 17.432 36.798 16.284 36.798 14.45C36.798 12.602 35.636 11.468 33.9 11.468H31.982V17.432ZM41.1162 10.754C40.4442 10.754 39.9122 10.222 39.9122 9.55C39.9122 8.892 40.4442 8.346 41.1162 8.346C41.7742 8.346 42.3202 8.892 42.3202 9.55C42.3202 10.222 41.7742 10.754 41.1162 10.754ZM40.7102 19C40.3742 19 40.1782 18.79 40.1782 18.454V12.462C40.1782 12.126 40.3742 11.93 40.7102 11.93H41.5222C41.8582 11.93 42.0402 12.126 42.0402 12.462V18.454C42.0402 18.79 41.8582 19 41.5222 19H40.7102ZM48.5867 9.172C48.8527 9.284 49.0347 9.438 48.8667 9.816L48.6987 10.236C48.5587 10.572 48.3767 10.614 48.0687 10.502C47.8867 10.418 47.6907 10.376 47.4947 10.376C46.8787 10.376 46.3327 10.768 46.3327 11.636V11.93H47.8167C48.1527 11.93 48.3487 12.112 48.3487 12.448V12.798C48.3487 13.134 48.1527 13.33 47.8167 13.33H46.3327V18.454C46.3327 18.79 46.1507 19 45.8147 19H45.0027C44.6667 19 44.4707 18.79 44.4707 18.454V13.33H43.8127C43.4767 13.33 43.2807 13.134 43.2807 12.798V12.448C43.2807 12.112 43.4767 11.93 43.8127 11.93H44.4707V11.636C44.4707 9.746 45.8847 8.92 47.2847 8.92C47.7607 8.92 48.2507 9.018 48.5867 9.172ZM55.2334 11.93C55.5694 11.93 55.7654 12.126 55.7654 12.462V18.454C55.7654 18.79 55.5694 19 55.2334 19H54.7294C54.3934 19 54.1974 18.79 54.1974 18.454V18.076C53.7634 18.734 53.0634 19.182 52.0554 19.182C50.3474 19.182 49.2134 18.02 49.2134 16.298V12.462C49.2134 12.126 49.3954 11.93 49.7314 11.93H50.5434C50.8794 11.93 51.0754 12.126 51.0754 12.462V16.088C51.0754 16.97 51.6074 17.572 52.4614 17.572C53.3434 17.572 53.9034 16.97 53.9034 16.046V12.462C53.9034 12.126 54.0854 11.93 54.4214 11.93H55.2334ZM60.0455 19.182C58.9535 19.182 57.8615 18.748 57.2735 18.118C57.0215 17.88 56.9515 17.642 57.2455 17.334L57.4835 17.068C57.7495 16.774 58.0015 16.802 58.2675 17.026C58.7435 17.446 59.3595 17.74 60.0315 17.74C60.6335 17.74 61.0255 17.474 61.0255 17.068C61.0255 16.522 60.4375 16.326 59.8075 16.074C58.6595 15.682 57.4415 15.248 57.4415 13.904C57.4415 12.63 58.4915 11.818 60.1015 11.818C60.9975 11.818 61.9355 12.126 62.4815 12.644C62.7335 12.868 62.8035 13.092 62.5095 13.442L62.3135 13.694C62.1035 13.932 61.8235 13.974 61.5435 13.764C61.0815 13.386 60.6615 13.218 60.1015 13.218C59.5555 13.218 59.2195 13.456 59.2195 13.806C59.2195 14.254 59.8355 14.436 60.6615 14.758C61.8375 15.234 62.8035 15.738 62.8035 17.04C62.8035 18.37 61.6835 19.182 60.0455 19.182ZM67.6147 19.182C65.4027 19.182 63.7787 17.6 63.7787 15.5C63.7787 13.4 65.4027 11.818 67.6147 11.818C69.8267 11.818 71.4367 13.4 71.4367 15.5C71.4367 17.6 69.8267 19.182 67.6147 19.182ZM67.6147 17.558C68.7627 17.558 69.5887 16.69 69.5887 15.5C69.5887 14.31 68.7627 13.428 67.6147 13.428C66.4667 13.428 65.6267 14.31 65.6267 15.5C65.6267 16.69 66.4527 17.558 67.6147 17.558ZM77.194 11.944C77.404 12.014 77.6 12.126 77.502 12.504L77.32 13.204C77.222 13.554 76.998 13.596 76.76 13.526C76.564 13.456 76.34 13.414 76.144 13.414C75.22 13.414 74.702 14.114 74.702 15.122V18.454C74.702 18.79 74.52 19 74.184 19H73.372C73.036 19 72.84 18.79 72.84 18.454V12.462C72.84 12.126 73.036 11.93 73.372 11.93H73.904C74.24 11.93 74.436 12.126 74.436 12.462V12.896C74.884 12.224 75.514 11.818 76.312 11.818C76.662 11.818 76.914 11.86 77.194 11.944ZM81.1524 11.818C82.9164 11.818 84.3164 12.686 84.3164 14.758V18.454C84.3164 18.804 84.1344 19 83.7984 19H83.3504C83.0144 19 82.8184 18.79 82.8184 18.454V18.216C82.2164 18.804 81.4044 19.182 80.5084 19.182C78.8704 19.182 77.7644 18.272 77.7644 16.928C77.7644 15.5 78.9684 14.548 80.7604 14.548C81.4184 14.548 82.0344 14.702 82.5804 14.926V14.548C82.5804 13.736 81.9924 13.232 81.0264 13.232C80.3544 13.232 79.7244 13.442 79.2344 13.778C78.9544 13.946 78.7164 13.89 78.5344 13.582L78.4084 13.358C78.1984 12.994 78.3104 12.742 78.5624 12.588C79.3744 12.042 80.2844 11.818 81.1524 11.818ZM80.9144 17.908C81.8244 17.908 82.6224 17.348 82.6224 16.662V16.144C82.2724 15.976 81.6564 15.738 81.0124 15.738C80.1304 15.738 79.5424 16.186 79.5424 16.858C79.5424 17.488 80.0884 17.908 80.9144 17.908Z" fill="black"/>
<path d="M31.064 8.33301C30.864 8.33301 30.76 8.21301 30.76 8.01301V4.02901H29.416C29.216 4.02901 29.104 3.91701 29.104 3.71701V3.43701C29.104 3.23701 29.216 3.13301 29.416 3.13301H33.176C33.376 3.13301 33.496 3.23701 33.496 3.43701V3.71701C33.496 3.91701 33.376 4.02901 33.176 4.02901H31.84V8.01301C31.84 8.21301 31.728 8.33301 31.528 8.33301H31.064ZM38.6178 3.13301C38.8178 3.13301 38.9618 3.24501 38.8658 3.43701L36.7138 8.07701C36.6178 8.28501 36.5218 8.37301 36.3378 8.37301H36.2738C36.0978 8.37301 36.0018 8.28501 35.9058 8.07701L33.7458 3.43701C33.6498 3.24501 33.7938 3.13301 33.9938 3.13301H34.5058C34.7058 3.13301 34.8418 3.22901 34.9218 3.43701L36.3058 6.74101L37.7218 3.43701C37.8098 3.22901 37.9378 3.13301 38.1458 3.13301H38.6178Z" fill="black"/>
<path d="M24.9781 6.39288V18.3173L18.7995 14.5678V10.2647C18.7995 8.7464 17.4813 7.5144 15.8539 7.5144H6.46752L6.44589 7.50014L0.143779 3.64255L0 3.55464L5.24222 0L10.898 3.64255H22.0326C23.66 3.64255 24.9781 4.87456 24.9781 6.39288Z" fill="black"/>
<path d="M24.9781 19.7367L24.7469 19.8884L19.5378 23.3129L14.6146 19.8884H2.94122C1.31624 19.8884 0 18.6493 0 17.1223V4.99561L4.35021 7.50005L6.16958 8.54675V13.2282C6.16958 14.7553 7.48582 15.9932 9.1108 15.9932H18.6561L24.9781 19.7367Z" fill="black"/>
</svg>
