<svg width="64" height="64" viewBox="0 0 64 64" fill="none" xmlns="http://www.w3.org/2000/svg">
<g clip-path="url(#clip0_2009_1473)">
<path fill-rule="evenodd" clip-rule="evenodd" d="M31.1996 0C20.5169 0 11.0556 5.25917 5.24009 13.3264C2.74545 16.7855 1.54856 20.3441 0.98499 22.0145C0.422981 23.6918 1.4072 25.0597 3.17204 25.0597H10.2403C12.004 25.0597 12.9858 24.3903 14.2427 22.3199C18.8137 14.8049 25.4059 12.4572 31.1996 12.4572C41.9725 12.4572 50.4913 21.2245 50.4913 31.9979C50.4913 42.7727 41.9725 51.5417 31.1996 51.5417C25.4059 51.5417 18.6851 48.9112 14.5909 42.2032C13.2499 40.0075 11.8128 38.9362 10.0467 38.9362H3.17204C1.4072 38.9362 0.435022 40.3064 0.931666 42.0964C1.42878 43.8939 2.63802 47.2841 5.13297 50.7457C10.9481 58.8062 20.5169 64 31.1996 64C48.8431 64 63.1975 49.6409 63.1975 31.9979C63.1975 14.3495 48.8431 0 31.1996 0Z" fill="#40006F"/>
<path fill-rule="evenodd" clip-rule="evenodd" d="M27.1171 40.9134C24.7473 42.0967 22.8076 40.893 22.8076 38.2488V25.8635C22.8076 23.2176 24.7473 22.0143 27.1171 23.2001L40.516 29.9054C42.8846 31.0886 42.8846 33.0282 40.516 34.2087L27.1171 40.9134Z" fill="#40006F"/>
</g>
<defs>
<clipPath id="clip0_2009_1473">
<rect width="64" height="64" fill="white"/>
</clipPath>
</defs>
</svg>
