<?xml version="1.0" encoding="utf-8"?>
<!-- Generator: Adobe Illustrator 24.1.1, SVG Export Plug-In . SVG Version: 6.00 Build 0)  -->
<svg version="1.1" id="Capa_1" xmlns="http://www.w3.org/2000/svg" xmlns:xlink="http://www.w3.org/1999/xlink" x="0px" y="0px"
	 viewBox="0 0 892.1 206.7" style="enable-background:new 0 0 892.1 206.7;" xml:space="preserve">
<style type="text/css">
	.st0{fill:#7C7E8F;}
</style>
<g>
	<g>
		<path class="st0" d="M388.1,53.5c-3.2,0-4.8,1.5-5.9,4.3l-21.1,60.1L340.7,58c-0.8-2.8-2.5-4.5-5.9-4.5H315c-3.9,0-5,2.8-3.4,6.2
			l36,89.6c1.1,2.6,3.2,4.1,6,4.1h15c2.8,0,5-1.5,6-4.1l36-89.6c1.5-3.4,0.5-6.2-3.4-6.2L388.1,53.5z"/>
		<path class="st0" d="M303,130.9c-1.3-3.1-3.6-3.9-6.8-2.3c-2.2,1.1-4.5,1.7-7.9,2c-6.8,0-10.7-4.8-10.7-12.7V76.7h21
			c2.9,0,5.1-2.3,5.1-5.1V58.7c0-2.9-2.3-5.1-5.1-5.1h-21V28.8c0-2.9-2.3-5.1-5.1-5.1h-15.2c-2.9,0-5.1,2.3-5.1,5.1v24.7h-14.2
			c-3.2-0.1-5.2,1.9-5.2,5.1v12.9c0,2.9,2.3,5.1,5.1,5.1h13.7v41.8c0,23.1,12,36.7,31.5,36.7c9,0,16.5-2.3,23.3-6.8
			c2.6-1.7,3.1-3.9,1.7-6.8L303,130.9z"/>
		<path class="st0" d="M535.4,11.7c-6.2-2.8-10.5,0-10.5,6.8v128.6c0,6.8,4.3,9.6,10.5,6.8l8.2-3.6c5.1-2.3,7.5-5.9,7.5-11.4V26.8
			c0-5.6-2.3-9-7.5-11.4L535.4,11.7z"/>
		<g>
			<path class="st0" d="M841.1,51.7c-27.8,0-51.1,21.8-51.1,51.8s22.9,51.8,51.1,51.8c27.8,0,51.1-21.8,51.1-51.8
				S869.3,51.7,841.1,51.7z M841.1,130c-13.9,0-25-11.2-25-26.6c0-15.3,11.2-26.6,25-26.6s25,11.2,25,26.6
				C866.1,118.8,854.8,130,841.1,130z"/>
		</g>
		<g>
			<path class="st0" d="M731.5,51.7h-0.3c-10.4,0-20.5,4.5-27.2,11.4V17.3c0-2.9-2.3-5.2-5.1-5.2H683c-2.9,0-5.2,2.3-5.2,5.2v131
				c0,2.9,2.3,5.1,5.2,5.1h14.6c2.9,0,5.1-2.3,5.1-5.1v-5.5c6.3,7.1,17.9,12.5,29.4,12.5c25.2,0,47-22.9,47-51.8
				C779.1,74.1,757.2,51.7,731.5,51.7z M728.3,130c-13.4,0-24.6-10.6-24.6-26.6c0-15.8,11.2-26.6,24.6-26.6s24.6,10.8,24.6,26.6
				C753,119.5,741.8,130,728.3,130z"/>
		</g>
		<g>
			<path class="st0" d="M614.7,51.7c-27.8,0-51.1,21.8-51.1,51.8s22.9,51.8,51.1,51.8c27.8,0,51.1-21.8,51.1-51.8
				S643,51.7,614.7,51.7z M614.7,130c-13.8,0-25-11.2-25-26.6c0-15.3,11.2-26.6,25-26.6s25,11.2,25,26.6
				C639.8,118.8,628.5,130,614.7,130z"/>
		</g>
		<g>
			<path class="st0" d="M506.3,53.5h-14.6c-2.9,0-5.2,2.3-5.2,5.1v5.6c-5.8-7-16.5-12.5-27.2-12.5c-26.2,0-48.7,22.4-48.7,51.8
				s21.3,49.6,48,49.6c12,0,21.3-5.6,26.6-11.4c-0.3,20.5-11,29.8-29.4,29.8c-9.9,0-19.1-3.1-29.8-9.9c-2.8-2-6-1.3-7.5,1.7
				l-6.4,12.8c-1.5,3.1-1.1,5.9,2,7.7c13.3,8.7,29,13,42.5,13c35.4,0,55-19.2,55-63.4V58.7C511.5,55.9,509.2,53.5,506.3,53.5z
				 M461.1,129.7c-13.6,0-25-10.8-25-26.6c0-15.9,11.4-26.6,25-26.6s24.8,10.6,24.8,26.6C485.9,119,474.7,129.7,461.1,129.7z"/>
		</g>
	</g>
	<path class="st0" d="M103.2,0C46.4,0,0,46.4,0,103.2c0,57.1,46.4,103.5,103.2,103.5s103.5-46.4,103.5-103.5
		C206.6,46.4,160.1,0,103.2,0z M173.8,152c-22.6,2.6-47,3.2-70.5,3.2s-48.1-0.6-70.8-3.2c-6.5-0.6-9.6-2.3-10.5-9.2
		c-1.2-13.1-1.2-26.2-1.2-39.7c0-13.2,0-26.5,1.2-39.5c0.9-6.8,4.1-8.5,10.5-9.2c22.7-2.6,47.2-3.2,70.8-3.2s48,0.6,70.5,3.2
		c6.6,0.6,9.9,2.3,10.7,9.2c1,13.1,1,26.2,1,39.5c0,13.4,0,26.7-1,39.7C183.8,149.7,180.5,151.4,173.8,152z M61.4,103.2
		c0,22.9,18.2,42,41.7,42s41.7-19,41.7-42c0-22.7-18.2-41.7-41.7-41.7S61.4,80.5,61.4,103.2L61.4,103.2z"/>
</g>
</svg>
