<svg xmlns="http://www.w3.org/2000/svg" viewBox="0 0 414.968 512.952"><path fill="#5C5958" d="M0 0h317.027v512.952H0z"/><g fill="#E9EAE8"><path d="M155.261 305.419c-55.441.025-110.878.252-110.876-.002.823-60.534 50.148-109.353 110.876-109.353v109.355zM155.261 311.62c-55.441-.029-110.878-.254-110.876.004.823 60.533 50.148 109.354 110.876 109.354V311.62zM316.527 418.017L233.632 311.62c-55.441-.029-70.987.004-70.987.004l86.507 109.354h67.375v-2.961zM316.528 199.076l-82.896 106.396c-55.441.027-70.987-.002-70.987-.002l86.507-109.352h67.375v2.958z"/></g><g fill="#E9EAE8"><path d="M368.65 466.417h46.27v46.436h-46.27zM414.591 397.571v10.143L396.7 416.47v6.301h17.892v8.756h-44.854V413.95c0-4.451 1.322-7.988 3.968-10.615 2.646-2.625 5.901-3.936 9.765-3.936 2.982 0 5.48.777 7.497 2.33 2.016 1.555 3.444 3.506 4.283 5.859l19.34-10.017zm-26.838 12.348c-1.09-1.176-2.52-1.764-4.283-1.764s-3.191.588-4.283 1.764-1.638 2.709-1.638 4.598v8.254h11.843v-8.254c0-1.889-.545-3.422-1.639-4.598zM377.549 358.554v11.717h37.042v8.758h-37.042v11.717h-7.812v-32.191h7.812zM369.738 317.331l44.854 14.865v6.553l-44.854 14.803v-9.07l29.23-9.008-29.23-9.008v-9.135zM401.362 268.319c4.243 0 7.569 1.566 9.984 4.694 2.416 3.129 3.622 7.109 3.622 11.937 0 3.57-.451 6.658-1.354 9.262s-2.426 4.977-4.568 7.117l-5.669-5.67c2.52-2.52 3.78-6.131 3.78-10.834 0-5.291-1.849-7.938-5.544-7.938-1.638 0-2.897.462-3.78 1.386-.755.841-1.28 2.164-1.574 3.969l-.756 5.417c-.547 3.824-1.785 6.721-3.717 8.695-2.143 2.141-5.082 3.211-8.82 3.211-4.072 0-7.359-1.406-9.857-4.221-2.5-2.813-3.749-6.613-3.749-11.4 0-6.048 1.743-10.878 5.229-14.489l5.479 5.544c-2.058 2.142-3.087 5.207-3.087 9.197 0 2.225.537 3.936 1.607 5.133s2.424 1.795 4.063 1.795c1.302 0 2.373-.441 3.213-1.322.924-1.008 1.512-2.395 1.764-4.158l.756-5.291c.547-3.779 1.701-6.636 3.465-8.566 2.184-2.31 5.355-3.468 9.513-3.468zM414.591 230.965v29.104h-44.854v-8.756h37.041v-20.348h7.813zM386.557 193.923c1.177-.042 3.046-.063 5.606-.063 2.563 0 4.432.021 5.607.063s2.635.188 4.378.44 3.224.703 4.442 1.354c1.217.652 2.372 1.522 3.464 2.614 3.274 3.276 4.913 7.308 4.913 12.095 0 4.831-1.639 8.883-4.913 12.158-1.092 1.093-2.237 1.954-3.434 2.583-1.196.63-2.698 1.071-4.503 1.323-1.806.252-3.256.399-4.348.441-1.092.041-2.961.063-5.607.063-2.645 0-4.514-.021-5.606-.063-1.091-.042-2.54-.189-4.347-.441-1.805-.252-3.307-.693-4.504-1.323-1.196-.629-2.34-1.49-3.434-2.583-3.275-3.275-4.913-7.327-4.913-12.158 0-4.787 1.638-8.818 4.913-12.095 1.094-1.092 2.248-1.962 3.465-2.614 1.219-.651 2.699-1.103 4.441-1.354s3.205-.398 4.38-.44zm14.331 9.134c-1.615-.293-4.524-.44-8.725-.44-4.197 0-7.106.147-8.725.44-1.615.295-2.907.882-3.874 1.765-1.595 1.385-2.394 3.255-2.394 5.605 0 2.394.799 4.283 2.394 5.671.967.881 2.247 1.459 3.843 1.731 1.597.273 4.515.41 8.756.41 4.244 0 7.162-.137 8.757-.41 1.597-.272 2.876-.851 3.843-1.731 1.598-1.388 2.395-3.277 2.395-5.671 0-2.351-.797-4.221-2.395-5.605-.967-.884-2.256-1.47-3.875-1.765z"/></g></svg>