<?xml version="1.0" encoding="UTF-8" standalone="no"?><!-- Generator: Gravit.io --><svg xmlns="http://www.w3.org/2000/svg" xmlns:xlink="http://www.w3.org/1999/xlink" style="isolation:isolate" viewBox="0 0 788.77 281.135" width="788.77pt" height="281.135pt"><defs><clipPath id="_clipPath_DmXMsVvg98cnEmGzA0nXe8xVrb7djW46"><rect width="788.77" height="281.135"/></clipPath></defs><g clip-path="url(#_clipPath_DmXMsVvg98cnEmGzA0nXe8xVrb7djW46)"><path d=" M 177.72 272.19 C 171.13 273.44 164.55 274.74 157.94 275.91 C 149.97 277.33 141.95 278.48 133.91 279.42 C 127.64 280.15 121.36 280.73 115.05 280.88 C 114.61 280.79 114.18 280.76 113.76 280.94 C 113.62 280.95 113.47 280.95 113.33 280.96 C 112.98 280.81 112.64 280.76 112.33 281.04 C 109.17 281.16 106.02 281.18 102.86 281.02 C 102.54 280.75 102.21 280.81 101.86 280.95 C 101.72 280.94 101.57 280.94 101.43 280.93 C 100.91 280.74 100.37 280.78 99.84 280.87 C 89.98 280.54 80.26 279.32 70.72 276.73 C 62.66 274.54 55.1 271.28 48.36 266.33 C 45.11 263.94 42.23 261.1 39.67 257.92 C 37.16 254.81 35.44 251.33 33.68 247.8 C 30.92 242.26 30.06 236.32 29.41 230.29 C 28.98 226.29 29.14 222.28 29.14 218.27 C 29.13 188.26 29.13 158.25 29.13 128.24 C 29.13 127.7 29.09 127.15 29.07 126.61 C 29.1 126.42 29.03 126.35 28.84 126.4 C 19.33 126.39 9.83 126.39 0.32 126.38 C 0.22 126.35 0.12 126.33 0.02 126.3 C 0.02 107.08 0.02 87.86 0.02 68.64 C 9.08 68.64 18.15 68.61 27.21 68.67 C 28.68 68.68 29.19 68.41 29.17 66.79 C 29.08 56.44 29.16 46.09 29.09 35.74 C 29.08 34.49 29.51 34.05 30.59 33.72 C 33.47 32.85 36.31 31.88 39.17 30.94 C 50.4 27.25 61.64 23.56 72.87 19.88 C 87.71 15.02 102.56 10.18 117.41 5.34 C 122.65 3.63 127.91 1.95 133.16 0.26 C 133.24 0.37 133.31 0.48 133.39 0.59 C 133.4 13.37 133.41 26.14 133.42 38.92 C 133.43 48.33 133.45 57.74 133.39 67.15 C 133.38 68.42 133.75 68.67 134.95 68.67 C 149.91 68.63 164.86 68.64 179.82 68.64 C 206.81 68.65 233.8 68.67 260.79 68.69 C 261.23 68.69 261.68 68.72 262.12 68.73 C 262.21 68.8 262.3 68.87 262.39 68.94 C 262.89 71.31 263.28 73.7 263.92 76.03 C 266.15 84.1 267.19 92.43 269.28 100.52 C 271.26 108.19 272.35 116.05 274.34 123.71 C 276.32 131.33 277.4 139.15 279.38 146.76 C 281.38 154.43 282.47 162.29 284.44 169.95 C 286.57 178.2 287.91 186.6 289.83 194.89 C 290.11 196.11 290.61 197.29 290.88 198.53 C 291.09 199.52 291.92 198.98 292.47 199.09 C 293.9 199.37 294.4 198.76 294.78 197.33 C 296.79 189.81 297.78 182.08 299.72 174.56 C 301.76 166.68 302.89 158.61 304.94 150.75 C 307.03 142.69 308.17 134.44 310.25 126.39 C 312.25 118.67 313.34 110.76 315.34 103.05 C 317.33 95.38 318.44 87.52 320.42 79.86 C 321.3 76.44 321.96 72.99 322.73 69.55 C 322.88 68.87 323.16 68.6 323.82 68.67 C 323.97 68.69 324.12 68.67 324.27 68.67 C 358.04 68.67 391.82 68.67 425.59 68.67 C 425.79 68.67 425.99 68.69 426.18 68.7 C 426.29 68.77 426.39 68.84 426.5 68.92 C 425.53 72.45 424.62 75.99 423.31 79.44 C 422.05 82.75 421.3 86.25 420.26 89.64 C 418.04 96.92 415.86 104.22 413.53 111.46 C 411.84 116.71 410.55 122.08 408.67 127.25 C 406.62 132.9 405.38 138.81 403.34 144.45 C 401.38 149.86 400.21 155.51 398.27 160.91 C 396.24 166.55 394.98 172.43 392.96 178.06 C 391.09 183.29 389.95 188.75 388.06 193.95 C 385.94 199.78 384.67 205.86 382.58 211.67 C 380.68 216.94 379.55 222.45 377.63 227.7 C 375.63 233.15 374.47 238.85 372.48 244.29 C 370.56 249.56 369.45 255.07 367.53 260.31 C 365.89 264.79 364.76 269.41 363.32 273.94 C 363.07 274.74 362.72 274.98 361.98 274.89 C 361.78 274.87 361.58 274.89 361.39 274.89 C 314.98 274.89 268.57 274.89 222.16 274.92 C 220.95 274.92 220.41 274.64 220.01 273.4 C 217.79 266.47 215.79 259.46 213.46 252.58 C 211.57 246.99 210.22 241.25 208.17 235.73 C 206.25 230.56 205.12 225.16 203.19 220.02 C 201.19 214.71 200.05 209.15 198.06 203.86 C 196.09 198.61 194.94 193.11 192.98 187.87 C 190.91 182.34 189.71 176.54 187.65 171.03 C 185.69 165.77 184.54 160.27 182.58 155.04 C 180.65 149.88 179.53 144.47 177.6 139.34 C 176.02 135.15 175.01 130.8 173.5 126.61 C 173.51 126.44 173.45 126.36 173.27 126.41 C 170.15 126.39 167.03 126.35 163.92 126.35 C 153.87 126.35 143.82 126.37 133.76 126.38 C 133.57 126.33 133.47 126.4 133.48 126.6 C 133.46 127.19 133.42 127.78 133.42 128.38 C 133.44 151.4 133.37 174.42 133.55 197.44 C 133.59 202.12 134.95 206.64 138.26 210.31 C 140.93 213.27 144.41 214.51 148.18 215.08 C 152.9 215.8 157.68 215.54 162.41 215.38 C 167.55 215.21 172.68 214.5 177.73 213.42 C 177.81 213.51 177.89 213.6 177.96 213.69 C 177.95 233.1 177.95 252.51 177.94 271.91 C 177.86 272.01 177.79 272.1 177.72 272.19 Z " fill="rgb(194,17,48)"/><path d=" M 788.45 68.74 C 788.56 68.71 788.66 68.68 788.77 68.66 C 788.77 68.86 788.77 69.06 788.77 69.25 C 788.69 69.3 788.61 69.32 788.52 69.31 C 788.49 69.12 788.47 68.93 788.45 68.74 Z " fill="rgb(207,68,87)"/><path d=" M 133.14 0.27 C 133.16 0.18 133.17 0.09 133.15 0 C 133.25 0 133.35 0 133.45 0 C 133.43 0.2 133.4 0.4 133.38 0.6 C 133.29 0.49 133.22 0.38 133.14 0.27 Z " fill="rgb(206,61,82)"/><path d=" M 0 126.31 C 0.1 126.34 0.2 126.36 0.3 126.39 C 0.2 126.46 0.1 126.54 0 126.61 C 0 126.51 0 126.41 0 126.31 Z " fill="rgb(242,202,206)"/><path d=" M 722.87 274.84 C 722.23 274.86 721.58 274.9 720.94 274.9 C 604.9 274.9 488.86 274.9 372.83 274.9 C 370.83 274.9 370.72 274.86 371.47 272.9 C 373.51 267.56 374.64 261.93 376.55 256.57 C 378.47 251.18 379.67 245.59 381.6 240.23 C 383.76 234.25 385.07 228.01 387.23 222.05 C 389.16 216.72 390.3 211.16 392.24 205.85 C 394.18 200.52 395.3 194.95 397.25 189.65 C 399.36 183.91 400.58 177.91 402.66 172.18 C 404.58 166.9 405.7 161.38 407.61 156.12 C 409.55 150.79 410.7 145.23 412.62 139.92 C 414.5 134.73 415.66 129.33 417.5 124.14 C 419.62 118.15 421 111.93 423.1 105.95 C 424.99 100.55 426.16 94.95 428.15 89.61 C 430.17 84.2 431.36 78.56 433.27 73.13 C 433.69 71.94 434.27 70.8 434.55 69.56 C 434.68 68.96 435.06 68.63 435.72 68.69 C 436.06 68.72 436.41 68.7 436.76 68.7 C 551.71 68.7 666.66 68.7 781.61 68.7 C 781.71 68.7 781.81 68.71 781.91 68.71 C 781.89 68.79 781.87 68.87 781.87 68.95 C 780.04 74.31 778.99 79.89 777.13 85.26 C 775.11 91.13 773.98 97.26 771.97 103.16 C 770.04 108.85 768.92 114.78 767.01 120.5 C 764.9 126.81 763.64 133.37 761.51 139.69 C 759.63 145.29 758.53 151.13 756.63 156.75 C 754.62 162.73 753.42 168.94 751.4 174.94 C 749.4 180.87 748.25 187.05 746.24 192.99 C 744.22 198.96 743.04 205.19 741.01 211.18 C 739.1 216.82 737.86 222.67 736.11 228.38 C 733.81 235.87 731.9 243.48 729.64 251 C 728.43 255.02 727.64 259.18 726.27 263.15 C 724.97 266.93 724.03 270.79 723.03 274.65 C 722.99 274.68 722.93 274.76 722.87 274.84 Z  M 468.58 149.67 C 468.86 150.32 468.47 150.86 468.29 151.39 C 466.79 155.71 465.68 160.15 464.04 164.44 C 462.04 169.67 461.03 175.25 458.82 180.43 C 458.41 181.4 458.75 181.64 459.7 181.63 C 462.92 181.6 466.14 181.6 469.35 181.63 C 470.07 181.64 470.4 181.38 470.61 180.7 C 472.13 175.87 473.6 171.02 475.23 166.22 C 477.44 159.7 479.46 153.1 481.57 146.54 C 483.14 141.67 484.59 136.76 486.38 131.97 C 486.88 130.62 486.49 130.4 485.22 130.45 C 483.04 130.54 480.83 130.7 478.69 130.42 C 476.17 130.09 474.55 131.3 473.19 133.02 C 470.95 135.84 468.32 138.31 465.97 141.02 C 463.1 144.33 460.05 147.48 457.08 150.7 C 456.89 150.91 456.73 151.3 456.41 151.12 C 456.21 151.01 456.11 150.64 456.04 150.36 C 455.31 147.36 454.45 144.39 453.54 141.44 C 452.54 138.19 451.8 134.86 450.96 131.56 C 450.81 130.97 450.74 130.45 449.89 130.46 C 446.72 130.51 443.55 130.49 440.38 130.47 C 439.86 130.47 439.55 130.68 439.37 131.15 C 438.92 132.34 438.39 133.5 438.02 134.71 C 436.25 140.34 434.49 145.98 432.62 151.58 C 430.74 157.23 429.01 162.93 427.08 168.56 C 425.72 172.51 424.93 176.65 423.15 180.46 C 422.67 181.5 423.21 181.62 424.07 181.62 C 427.24 181.6 430.41 181.59 433.58 181.63 C 434.34 181.64 434.73 181.42 434.97 180.67 C 436.37 176.21 437.61 171.71 439.24 167.32 C 440.8 163.12 441.86 158.73 443.23 154.45 C 443.78 152.71 444.55 151.04 445.3 149.13 C 446.96 155.24 447.58 161.3 449.53 167.04 C 449.68 167.49 449.51 168.27 450.35 168.23 C 451.1 168.2 451.88 168.48 452.57 167.77 C 455.1 165.15 457.36 162.29 459.79 159.59 C 462.26 156.85 464.63 154.01 467.08 151.24 C 467.55 150.7 467.79 149.92 468.58 149.67 Z  M 706.89 220.64 C 706.12 218.64 705.71 216.59 705.31 214.58 C 703.94 207.73 702.84 200.82 701.69 193.92 C 701.47 192.62 701.1 191.91 699.56 191.98 C 696.74 192.11 693.92 192.06 691.1 192 C 690.1 191.98 689.61 192.27 689.28 193.25 C 687.69 198.01 686.5 202.89 684.68 207.59 C 682.67 212.77 681.4 218.21 679.53 223.46 C 677.34 229.62 675.69 235.98 673.42 242.12 C 673.06 243.1 673.24 243.44 674.33 243.41 C 677.1 243.36 679.87 243.39 682.65 243.39 C 684.83 243.39 684.95 243.32 685.62 241.17 C 686.58 238.06 687.51 234.94 688.45 231.82 C 689.98 226.73 691.97 221.79 693.4 216.67 C 693.69 215.64 693.84 214.53 694.66 213.29 C 694.92 215.11 695.34 216.56 695.67 218 C 696.55 221.89 697.12 225.84 697.82 229.77 C 698.55 233.89 699.27 238.01 700.02 242.13 C 700.14 242.78 700.18 243.46 701.24 243.43 C 704.26 243.35 707.28 243.39 710.3 243.41 C 711 243.41 711.3 243.14 711.53 242.44 C 713.21 237.24 714.78 232.01 716.49 226.82 C 718.83 219.72 721.23 212.62 723.39 205.45 C 724.56 201.54 725.95 197.7 727.26 193.84 C 727.83 192.16 727.72 192.03 726.04 192.02 C 723.22 192.01 720.39 192.06 717.57 192 C 716.44 191.98 715.84 192.44 715.5 193.47 C 713.75 198.9 712.29 204.42 710.29 209.78 C 708.98 213.33 708.02 217.02 706.89 220.64 Z  M 553.86 213.6 C 555.34 218.92 555.92 224.34 557.23 229.62 C 558.27 233.82 558.85 238.13 559.59 242.4 C 559.7 243.01 559.8 243.41 560.55 243.4 C 563.57 243.37 566.59 243.38 569.61 243.39 C 570.19 243.39 570.48 243.13 570.67 242.57 C 571.27 240.76 571.97 238.97 572.6 237.18 C 574.49 231.79 575.82 226.23 577.86 220.88 C 579.82 215.73 580.94 210.3 582.98 205.15 C 584.48 201.35 585.43 197.33 586.65 193.42 C 586.97 192.38 586.86 191.95 585.59 191.99 C 582.67 192.09 579.75 192.06 576.83 192 C 575.9 191.98 575.42 192.24 575.12 193.16 C 573.99 196.62 573.03 200.12 571.75 203.54 C 569.64 209.15 568.5 215.1 566.04 220.62 C 565.74 220.36 565.67 220.03 565.61 219.69 C 564.27 210.85 562.49 202.08 560.81 193.3 C 560.64 192.4 560.27 191.97 559.24 192 C 556.32 192.07 553.4 192.06 550.47 192.01 C 549.54 192 549.05 192.27 548.77 193.22 C 548.03 195.71 547.24 198.18 546.34 200.63 C 544.26 206.26 542.87 212.12 540.76 217.77 C 539.16 222.06 538.27 226.62 536.65 230.91 C 535.24 234.65 534.26 238.51 532.92 242.27 C 532.66 243 532.6 243.45 533.66 243.43 C 536.83 243.38 540 243.39 543.17 243.43 C 543.99 243.44 544.29 243.05 544.5 242.35 C 545.28 239.82 546.21 237.33 547.03 234.82 C 549 228.83 550.72 222.76 552.87 216.83 C 553.24 215.76 553.53 214.67 553.86 213.6 Z  M 581.97 159.06 C 580.83 152.41 579.68 145.86 578.59 139.3 C 578.14 136.6 577.47 133.94 576.89 131.27 C 576.75 130.62 576.47 130.47 575.9 130.47 C 572.68 130.48 569.46 130.49 566.24 130.46 C 565.49 130.45 565.21 130.82 565.01 131.45 C 563.89 134.91 562.89 138.4 561.62 141.82 C 559.68 147.08 558.39 152.56 556.44 157.84 C 554.99 161.77 553.99 165.87 552.69 169.86 C 551.55 173.36 550.19 176.79 549.19 180.35 C 548.95 181.19 548.88 181.64 549.99 181.63 C 553.16 181.59 556.33 181.6 559.5 181.63 C 560.16 181.64 560.5 181.4 560.65 180.77 C 561.04 179.15 561.8 177.64 562.3 176.07 C 564.44 169.31 566.55 162.53 568.86 155.82 C 569.31 154.5 569.69 153.16 570.2 151.48 C 571.15 155.24 571.6 158.69 572.36 162.08 C 573.71 168.13 574.62 174.28 575.66 180.4 C 575.8 181.23 576.02 181.65 576.93 181.64 C 579.85 181.61 582.77 181.62 585.7 181.64 C 586.25 181.64 586.65 181.52 586.86 180.96 C 587.26 179.91 587.79 178.91 588.1 177.83 C 590.25 170.29 593.05 162.96 595.24 155.44 C 596.64 150.61 598.51 145.95 599.97 141.14 C 600.98 137.8 601.72 134.37 603.2 131.18 C 603.53 130.47 602.86 130.51 602.44 130.51 C 599.17 130.5 595.9 130.51 592.63 130.5 C 591.93 130.5 591.6 130.75 591.36 131.44 C 589.86 135.82 588.7 140.29 587.07 144.63 C 585.47 148.87 584.38 153.3 583.05 157.65 C 582.86 158.18 582.73 158.78 581.97 159.06 Z  M 469.44 192.02 C 466.91 192.02 464.38 192.18 461.87 191.97 C 460.01 191.81 459.35 192.78 458.86 194.2 C 456.99 199.7 455.52 205.32 453.54 210.79 C 451.53 216.33 450.05 222.07 448.07 227.63 C 446.37 232.4 445.28 237.38 443.33 242.07 C 442.92 243.05 443.2 243.41 444.26 243.4 C 447.68 243.37 451.09 243.37 454.51 243.4 C 455.24 243.41 455.56 243.14 455.77 242.47 C 457.02 238.53 458.02 234.53 459.56 230.68 C 460.59 228.12 461.23 225.41 462.05 222.77 C 462.18 222.35 462.23 221.91 462.77 221.74 C 464.27 221.27 466.79 222.53 467.24 224.07 C 467.63 225.4 467.8 226.77 467.8 228.16 C 467.78 232.81 467.81 237.47 467.76 242.12 C 467.75 243.08 468.04 243.42 469.02 243.4 C 472.19 243.35 475.36 243.38 478.53 243.38 C 480.74 243.38 480.78 243.37 480.55 241.16 C 480 235.88 480.61 230.54 479.69 225.28 C 479.35 223.35 479.54 221.24 478.27 219.62 C 477.45 218.58 477.61 218.29 478.76 217.82 C 482.45 216.3 485.85 214.34 488.05 210.82 C 488.79 209.64 489.25 208.33 489.9 207.12 C 491.26 204.59 491.64 201.89 490.71 199.3 C 489.13 194.91 486.18 193.03 480.69 192.29 C 476.96 191.8 473.19 192.05 469.44 192.02 Z  M 602.87 216.93 C 602.67 216.07 603.36 215.7 603.52 215.11 C 605.56 207.75 608.17 200.57 610.48 193.3 C 610.88 192.05 610.38 191.99 609.41 192 C 606.24 192.03 603.07 192.04 599.9 191.99 C 599.03 191.98 598.67 192.28 598.26 193.07 C 597.5 194.53 597.11 196.09 596.62 197.63 C 594.99 202.79 593.5 208 591.61 213.08 C 589.95 217.55 588.92 222.22 587.2 226.7 C 585.25 231.79 584.21 237.21 582.12 242.27 C 581.75 243.17 582.08 243.4 582.95 243.4 C 586.42 243.38 589.88 243.37 593.35 243.41 C 594.12 243.42 594.4 243.06 594.57 242.43 C 596.26 235.94 598.94 229.77 600.68 223.3 C 601.08 221.81 601.62 220.36 602.17 218.65 C 602.81 220.27 603.46 221.55 603.82 222.91 C 605.53 229.39 607.63 235.74 609.63 242.13 C 609.93 243.09 610.38 243.45 611.41 243.43 C 614.83 243.36 618.24 243.4 621.66 243.4 C 623.65 243.4 623.64 243.4 623.06 241.62 C 621.26 236.1 620.12 230.39 617.96 224.97 C 617 222.56 616.52 219.95 615.77 217.44 C 615.58 216.8 615.62 216.37 616.09 215.85 C 618.98 212.63 621.83 209.39 624.68 206.14 C 626.01 204.62 627.29 203.05 628.62 201.53 C 631.08 198.72 633.57 195.93 636.02 193.11 C 636.22 192.88 636.63 192.63 636.41 192.24 C 636.21 191.87 635.78 192.03 635.46 192.03 C 632.69 192.02 629.91 192.15 627.14 191.98 C 625.24 191.86 624 192.59 622.83 193.95 C 619.54 197.81 616.18 201.6 612.85 205.42 C 610.17 208.5 607.5 211.6 604.84 214.7 C 604.25 215.43 603.75 216.27 602.87 216.93 Z  M 507.64 232.7 C 509.03 232.7 510.41 232.7 511.8 232.7 C 514 232.7 514.07 232.86 513.82 235.07 C 513.55 237.42 513.46 239.78 513.24 242.14 C 513.15 243.12 513.52 243.43 514.49 243.42 C 517.51 243.37 520.53 243.38 523.55 243.42 C 524.44 243.43 524.9 243.26 524.94 242.24 C 525.17 237.22 525.61 232.2 525.68 227.17 C 525.73 223.53 526.47 219.97 526.47 216.32 C 526.47 214.12 526.56 211.88 526.68 209.67 C 526.99 204.06 527.24 198.44 527.54 192.82 C 527.59 191.96 527.23 191.71 526.41 191.72 C 522.85 191.75 519.28 191.74 515.72 191.72 C 515.07 191.72 514.56 191.88 514.22 192.47 C 512.82 194.89 511.52 197.37 509.89 199.68 C 508.08 202.25 506.67 205.09 505.04 207.78 C 501.28 213.97 497.63 220.23 493.84 226.4 C 492.65 228.34 491.72 230.45 490.4 232.28 C 488.12 235.44 486.71 239.12 484.3 242.2 C 483.61 243.08 483.91 243.44 485.03 243.42 C 488.2 243.37 491.37 243.37 494.53 243.42 C 495.39 243.43 495.91 243.14 496.3 242.4 C 497.45 240.21 498.62 238.03 499.8 235.86 C 500.91 233.82 502.14 232.03 504.96 232.68 C 505.83 232.87 506.75 232.7 507.64 232.7 Z  M 513.98 130.18 C 512.2 130.18 510.41 130.19 508.63 130.17 C 508.04 130.16 507.62 130.3 507.28 130.86 C 504.74 135.08 502.16 139.26 499.62 143.48 C 498.55 145.26 497.59 147.1 496.51 148.88 C 493.92 153.17 491.27 157.43 488.68 161.72 C 487.71 163.33 486.86 165.01 485.88 166.61 C 483.14 171.12 480.36 175.59 477.62 180.1 C 476.77 181.49 476.86 181.61 478.46 181.61 C 481.43 181.62 484.4 181.58 487.38 181.63 C 488.29 181.64 488.78 181.3 489.28 180.55 C 491.1 177.83 492.55 174.92 494.09 172.05 C 494.44 171.39 494.87 171.14 495.61 171.15 C 499.03 171.18 502.45 171.19 505.86 171.15 C 506.8 171.14 507.08 171.48 507.01 172.37 C 506.77 175.07 506.63 177.78 506.31 180.47 C 506.21 181.35 506.3 181.63 507.2 181.63 C 510.47 181.6 513.74 181.6 517.01 181.63 C 517.79 181.64 518.02 181.34 518.05 180.58 C 518.31 175.11 518.64 169.64 518.89 164.17 C 519.05 160.76 518.98 157.34 519.28 153.95 C 519.48 151.63 519.42 149.31 519.55 146.99 C 519.83 141.82 520.09 136.64 520.4 131.47 C 520.47 130.36 520.01 130.13 519.02 130.17 C 517.34 130.23 515.66 130.18 513.98 130.18 Z  M 647.07 243.39 C 651.97 243.39 656.87 243.38 661.77 243.4 C 662.56 243.4 663.24 243.4 663.43 242.39 C 663.87 240.16 665.04 238.19 665.71 236.03 C 666.12 234.7 665.81 234.45 664.52 234.46 C 658.83 234.52 653.13 234.46 647.44 234.51 C 646.31 234.52 646.12 234.24 646.45 233.18 C 647.52 229.81 648.51 226.42 649.79 223.1 C 650.22 221.99 650.65 221.68 651.76 221.69 C 656.76 221.74 661.76 221.7 666.76 221.72 C 667.49 221.72 668.18 221.73 668.36 220.82 C 668.79 218.58 669.96 216.61 670.6 214.44 C 670.99 213.14 670.71 212.78 669.37 212.79 C 664.47 212.84 659.57 212.78 654.67 212.83 C 653.31 212.85 652.98 212.43 653.46 211.18 C 654.59 208.24 655.73 205.31 656.51 202.26 C 656.77 201.24 657.24 200.87 658.35 200.88 C 663.89 200.95 669.44 200.88 674.98 200.94 C 676.02 200.95 676.49 200.62 676.73 199.64 C 677.09 198.16 677.58 196.7 677.99 195.23 C 678.87 192.08 678.87 192.03 675.61 192.02 C 666.6 191.99 657.59 192.02 648.58 191.99 C 647.75 191.99 647.35 192.25 647.09 193.03 C 645.94 196.43 645.06 199.9 643.75 203.26 C 641.71 208.54 640.53 214.1 638.48 219.4 C 636.56 224.35 635.57 229.61 633.53 234.55 C 632.55 236.91 632.06 239.47 631.22 241.89 C 630.78 243.17 631.17 243.41 632.38 243.4 C 637.26 243.37 642.17 243.39 647.07 243.39 Z  M 433.25 192.02 C 429.43 192.02 426.56 192.06 423.69 192 C 422.66 191.98 422.24 192.35 421.92 193.31 C 420.55 197.41 419.47 201.6 417.94 205.67 C 415.81 211.33 414.56 217.29 412.3 222.92 C 411.57 224.74 411.08 226.68 410.58 228.58 C 409.39 233.16 407.4 237.47 406.18 242.04 C 405.97 242.81 405.76 243.41 406.92 243.4 C 410.34 243.38 413.75 243.39 417.17 243.39 C 418.04 243.39 418.5 242.93 418.73 242.1 C 420.55 235.76 422.54 229.47 424.7 223.24 C 425.03 222.29 425.44 221.94 426.47 221.96 C 430.83 222.02 435.18 221.99 439.54 221.99 C 440.18 221.99 440.8 222.08 441.05 221.18 C 441.7 218.85 442.4 216.54 443.15 214.24 C 443.45 213.3 443.2 213.06 442.24 213.07 C 438.33 213.11 434.42 213.09 430.51 213.09 C 427.92 213.09 427.92 213.09 428.9 210.7 C 428.96 210.56 429.01 210.42 429.05 210.28 C 429.82 207.68 430.65 205.09 431.34 202.47 C 431.66 201.24 432.26 200.87 433.52 200.89 C 437.92 200.97 442.33 200.93 446.74 200.92 C 447.35 200.92 448 201.09 448.27 200.18 C 448.94 197.93 449.98 195.8 450.61 193.52 C 450.9 192.47 450.68 192.21 449.65 192.24 C 443.87 192.41 438.09 191.78 433.25 192.02 Z  M 547.32 130.48 C 545.64 130.48 543.95 130.51 542.27 130.47 C 541.44 130.45 541.05 130.74 540.79 131.55 C 539.12 136.75 537.68 142.02 535.85 147.17 C 533.65 153.34 531.91 159.66 529.79 165.86 C 528.17 170.61 526.91 175.48 525.09 180.16 C 524.65 181.29 524.93 181.66 526.14 181.64 C 529.46 181.59 532.78 181.59 536.09 181.64 C 536.95 181.65 537.3 181.32 537.55 180.55 C 539 176.01 540.37 171.44 541.88 166.91 C 544.18 160.05 546.43 153.16 548.54 146.24 C 550.02 141.39 551.75 136.62 553.31 131.8 C 553.63 130.8 553.56 130.39 552.36 130.45 C 550.69 130.54 549 130.48 547.32 130.48 Z " fill="rgb(187,187,186)"/><path d=" M 723.05 274.61 C 724.05 270.75 724.99 266.9 726.29 263.11 C 727.66 259.14 728.45 254.99 729.66 250.96 C 731.92 243.45 733.83 235.84 736.13 228.34 C 737.88 222.63 739.13 216.78 741.03 211.14 C 743.05 205.15 744.24 198.92 746.26 192.95 C 748.27 187 749.42 180.82 751.42 174.9 C 753.44 168.91 754.64 162.69 756.65 156.71 C 758.54 151.09 759.64 145.25 761.53 139.65 C 763.66 133.33 764.92 126.76 767.03 120.46 C 768.95 114.74 770.06 108.81 771.99 103.12 C 773.99 97.22 775.12 91.09 777.15 85.22 C 779 79.85 780.05 74.27 781.89 68.91 C 782.01 68.85 782.14 68.79 782.26 68.72 C 784.33 68.72 786.4 68.73 788.47 68.73 C 788.49 68.92 788.52 69.11 788.54 69.3 C 786.72 74.61 785.55 80.1 783.92 85.46 C 781.79 92.48 780.03 99.6 777.85 106.59 C 776.05 112.36 774.83 118.29 772.89 124 C 770.9 129.87 769.75 135.97 767.77 141.82 C 765.73 147.88 764.55 154.18 762.52 160.22 C 760.53 166.14 759.35 172.29 757.35 178.18 C 755.4 183.91 754.31 189.87 752.37 195.58 C 750.27 201.78 749.06 208.22 746.98 214.4 C 745.03 220.18 743.9 226.19 741.95 231.94 C 739.97 237.76 738.84 243.82 736.87 249.62 C 734.92 255.4 733.72 261.38 731.83 267.16 C 731.03 269.62 730.32 272.1 729.57 274.58 C 729.49 274.65 729.4 274.72 729.32 274.79 C 727.35 274.8 725.37 274.81 723.4 274.82 C 723.28 274.76 723.16 274.69 723.05 274.61 Z " fill="rgb(194,18,48)"/><path d=" M 99.83 280.89 C 100.36 280.8 100.9 280.76 101.42 280.95 C 100.88 281.11 100.35 281.12 99.83 280.89 Z " fill="rgb(213,90,105)"/><path d=" M 113.75 280.95 C 114.17 280.77 114.61 280.8 115.04 280.89 C 114.63 281.11 114.19 281.1 113.75 280.95 Z " fill="rgb(213,90,105)"/><path d=" M 101.85 280.97 C 102.19 280.82 102.53 280.77 102.85 281.04 C 102.51 281.15 102.17 281.18 101.85 280.97 Z " fill="rgb(213,90,105)"/><path d=" M 112.32 281.05 C 112.63 280.76 112.97 280.82 113.32 280.97 C 113 281.17 112.67 281.15 112.32 281.05 Z " fill="rgb(213,90,105)"/><path d=" M 723.05 274.61 C 723.17 274.69 723.28 274.77 723.4 274.85 C 723.23 274.85 723.05 274.85 722.88 274.85 C 722.93 274.76 722.99 274.68 723.05 274.61 Z " fill="rgb(207,68,87)"/><path d=" M 133.47 126.61 C 133.46 126.4 133.55 126.33 133.75 126.39 C 133.66 126.47 133.56 126.54 133.47 126.61 Z " fill="rgb(242,202,206)"/><path d=" M 28.82 126.41 C 29.01 126.36 29.08 126.43 29.05 126.62 C 28.97 126.55 28.9 126.48 28.82 126.41 Z " fill="rgb(242,202,206)"/><path d=" M 173.26 126.42 C 173.44 126.37 173.5 126.45 173.49 126.62 C 173.41 126.55 173.34 126.49 173.26 126.42 Z " fill="rgb(242,202,206)"/><path d=" M 782.24 68.73 C 782.12 68.79 781.99 68.85 781.87 68.92 C 781.87 68.84 781.89 68.76 781.91 68.68 C 782.02 68.69 782.13 68.71 782.24 68.73 Z " fill="rgb(207,68,87)"/><path d=" M 426.49 68.95 C 426.38 68.88 426.28 68.81 426.17 68.73 C 426.37 68.67 426.5 68.71 426.49 68.95 Z " fill="rgb(207,70,89)"/><path d=" M 262.39 68.96 C 262.3 68.89 262.21 68.82 262.12 68.75 C 262.31 68.68 262.39 68.78 262.39 68.96 Z " fill="rgb(207,70,89)"/><path d=" M 177.95 213.7 C 177.87 213.61 177.79 213.52 177.72 213.43 C 177.93 213.4 178.02 213.49 177.95 213.7 Z " fill="rgb(207,68,87)"/><path d=" M 177.72 272.19 C 177.79 272.1 177.86 272.01 177.94 271.92 C 177.99 272.12 177.9 272.19 177.72 272.19 Z " fill="rgb(207,68,87)"/><path d=" M 729.31 274.81 C 729.39 274.74 729.48 274.67 729.56 274.6 C 729.57 274.78 729.5 274.86 729.31 274.81 Z " fill="rgb(207,68,87)"/><path d=" M 468.58 149.67 C 467.78 149.92 467.55 150.7 467.07 151.24 C 464.62 154.01 462.25 156.85 459.78 159.59 C 457.34 162.29 455.09 165.16 452.56 167.77 C 451.87 168.48 451.09 168.19 450.34 168.23 C 449.5 168.27 449.68 167.5 449.52 167.04 C 447.57 161.3 446.96 155.24 445.29 149.13 C 444.54 151.04 443.78 152.71 443.22 154.45 C 441.86 158.73 440.79 163.11 439.23 167.32 C 437.6 171.71 436.35 176.21 434.96 180.67 C 434.72 181.42 434.33 181.64 433.57 181.63 C 430.4 181.59 427.23 181.6 424.06 181.62 C 423.2 181.63 422.66 181.5 423.14 180.46 C 424.92 176.65 425.71 172.51 427.07 168.56 C 429.01 162.93 430.73 157.22 432.61 151.58 C 434.48 145.98 436.25 140.34 438.01 134.71 C 438.39 133.5 438.92 132.34 439.36 131.15 C 439.54 130.67 439.85 130.46 440.37 130.47 C 443.54 130.48 446.71 130.5 449.88 130.46 C 450.74 130.45 450.8 130.97 450.95 131.56 C 451.79 134.86 452.53 138.19 453.53 141.44 C 454.44 144.4 455.3 147.36 456.03 150.36 C 456.1 150.63 456.2 151 456.4 151.12 C 456.72 151.3 456.87 150.91 457.07 150.7 C 460.04 147.48 463.09 144.33 465.96 141.02 C 468.32 138.3 470.94 135.84 473.18 133.02 C 474.54 131.3 476.16 130.09 478.68 130.42 C 480.82 130.7 483.03 130.54 485.21 130.45 C 486.48 130.4 486.87 130.62 486.37 131.97 C 484.58 136.76 483.13 141.67 481.56 146.54 C 479.45 153.1 477.42 159.69 475.22 166.22 C 473.59 171.02 472.12 175.87 470.6 180.7 C 470.39 181.37 470.06 181.64 469.34 181.63 C 466.12 181.6 462.9 181.6 459.69 181.63 C 458.75 181.64 458.4 181.4 458.81 180.43 C 461.02 175.25 462.03 169.67 464.03 164.44 C 465.67 160.15 466.78 155.71 468.28 151.39 C 468.48 150.86 468.86 150.32 468.58 149.67 Z " fill="rgb(254,254,254)"/><path d=" M 706.89 220.64 C 708.01 217.02 708.98 213.33 710.3 209.78 C 712.29 204.42 713.76 198.9 715.51 193.47 C 715.84 192.44 716.45 191.98 717.58 192 C 720.4 192.06 723.22 192.01 726.05 192.02 C 727.73 192.02 727.84 192.15 727.27 193.84 C 725.95 197.7 724.57 201.54 723.4 205.45 C 721.25 212.62 718.85 219.71 716.5 226.82 C 714.79 232.01 713.22 237.24 711.54 242.44 C 711.31 243.14 711.01 243.41 710.31 243.41 C 707.29 243.39 704.27 243.35 701.25 243.43 C 700.2 243.46 700.15 242.78 700.03 242.13 C 699.28 238.01 698.56 233.89 697.83 229.77 C 697.13 225.84 696.56 221.89 695.68 218 C 695.36 216.56 694.94 215.11 694.67 213.29 C 693.85 214.54 693.7 215.64 693.41 216.67 C 691.98 221.79 689.99 226.74 688.46 231.82 C 687.52 234.94 686.59 238.06 685.63 241.17 C 684.96 243.33 684.85 243.39 682.66 243.39 C 679.89 243.39 677.11 243.35 674.34 243.41 C 673.25 243.43 673.07 243.1 673.43 242.12 C 675.69 235.97 677.35 229.62 679.54 223.46 C 681.41 218.21 682.68 212.77 684.69 207.59 C 686.51 202.9 687.7 198.01 689.29 193.25 C 689.62 192.26 690.11 191.97 691.11 192 C 693.93 192.06 696.76 192.11 699.57 191.98 C 701.11 191.91 701.48 192.62 701.7 193.92 C 702.85 200.82 703.95 207.72 705.32 214.58 C 705.72 216.59 706.12 218.64 706.89 220.64 Z " fill="rgb(254,254,254)"/><path d=" M 553.86 213.6 C 553.53 214.67 553.25 215.76 552.86 216.82 C 550.71 222.75 548.99 228.82 547.02 234.81 C 546.2 237.32 545.26 239.81 544.49 242.34 C 544.28 243.03 543.98 243.43 543.16 243.42 C 539.99 243.38 536.82 243.37 533.65 243.42 C 532.6 243.44 532.66 242.98 532.91 242.26 C 534.25 238.51 535.22 234.65 536.64 230.9 C 538.26 226.61 539.14 222.05 540.75 217.76 C 542.86 212.12 544.25 206.26 546.33 200.62 C 547.23 198.17 548.02 195.7 548.76 193.21 C 549.04 192.26 549.52 191.99 550.46 192 C 553.38 192.05 556.31 192.06 559.23 191.99 C 560.26 191.96 560.63 192.39 560.8 193.29 C 562.48 202.07 564.26 210.83 565.6 219.68 C 565.65 220.02 565.72 220.36 566.03 220.61 C 568.5 215.09 569.63 209.14 571.74 203.53 C 573.03 200.11 573.98 196.61 575.11 193.15 C 575.41 192.23 575.89 191.97 576.82 191.99 C 579.74 192.05 582.67 192.08 585.58 191.98 C 586.85 191.94 586.97 192.38 586.64 193.41 C 585.42 197.32 584.47 201.34 582.97 205.14 C 580.93 210.29 579.82 215.72 577.85 220.87 C 575.81 226.22 574.48 231.79 572.59 237.17 C 571.96 238.97 571.25 240.75 570.66 242.56 C 570.48 243.12 570.18 243.38 569.6 243.38 C 566.58 243.37 563.56 243.36 560.54 243.39 C 559.79 243.4 559.69 243.01 559.58 242.39 C 558.84 238.12 558.26 233.81 557.22 229.61 C 555.91 224.34 555.33 218.92 553.86 213.6 Z " fill="rgb(254,254,254)"/><path d=" M 581.97 159.06 C 582.73 158.79 582.86 158.18 583.03 157.62 C 584.36 153.28 585.45 148.84 587.05 144.6 C 588.69 140.26 589.85 135.78 591.34 131.41 C 591.58 130.72 591.91 130.46 592.61 130.47 C 595.88 130.49 599.15 130.47 602.42 130.48 C 602.84 130.48 603.5 130.44 603.18 131.15 C 601.71 134.35 600.97 137.78 599.95 141.11 C 598.49 145.92 596.62 150.58 595.22 155.41 C 593.03 162.93 590.23 170.26 588.08 177.8 C 587.77 178.87 587.24 179.88 586.84 180.93 C 586.63 181.49 586.23 181.62 585.68 181.61 C 582.76 181.6 579.84 181.58 576.91 181.61 C 576.01 181.62 575.78 181.2 575.64 180.37 C 574.6 174.25 573.69 168.1 572.34 162.05 C 571.58 158.66 571.13 155.21 570.18 151.45 C 569.66 153.13 569.29 154.48 568.84 155.79 C 566.53 162.5 564.42 169.27 562.28 176.04 C 561.78 177.62 561.02 179.12 560.63 180.74 C 560.48 181.37 560.14 181.61 559.48 181.6 C 556.31 181.57 553.14 181.56 549.97 181.6 C 548.86 181.61 548.94 181.16 549.17 180.32 C 550.17 176.77 551.53 173.34 552.67 169.83 C 553.97 165.84 554.96 161.74 556.42 157.81 C 558.37 152.53 559.66 147.05 561.6 141.79 C 562.86 138.37 563.87 134.88 564.99 131.42 C 565.2 130.78 565.47 130.42 566.22 130.43 C 569.44 130.46 572.66 130.45 575.88 130.44 C 576.45 130.44 576.73 130.59 576.87 131.24 C 577.45 133.91 578.12 136.57 578.57 139.27 C 579.68 145.86 580.82 152.4 581.97 159.06 Z " fill="rgb(254,254,254)"/><path d=" M 469.44 192.02 C 473.2 192.06 476.96 191.81 480.7 192.31 C 486.19 193.05 489.14 194.93 490.72 199.32 C 491.65 201.91 491.27 204.61 489.91 207.14 C 489.26 208.35 488.79 209.66 488.06 210.84 C 485.85 214.36 482.46 216.32 478.77 217.84 C 477.62 218.31 477.46 218.6 478.28 219.64 C 479.55 221.27 479.36 223.37 479.7 225.3 C 480.62 230.56 480 235.9 480.56 241.18 C 480.79 243.4 480.75 243.4 478.54 243.4 C 475.37 243.4 472.2 243.37 469.03 243.42 C 468.05 243.44 467.76 243.1 467.77 242.14 C 467.82 237.49 467.79 232.83 467.81 228.18 C 467.81 226.79 467.64 225.42 467.25 224.09 C 466.8 222.56 464.28 221.29 462.78 221.76 C 462.24 221.93 462.19 222.38 462.06 222.79 C 461.24 225.43 460.6 228.14 459.57 230.7 C 458.03 234.55 457.02 238.56 455.78 242.49 C 455.57 243.16 455.24 243.42 454.52 243.42 C 451.1 243.38 447.69 243.38 444.27 243.42 C 443.21 243.43 442.93 243.07 443.34 242.09 C 445.29 237.4 446.38 232.42 448.08 227.65 C 450.06 222.08 451.54 216.35 453.55 210.81 C 455.53 205.34 457.01 199.72 458.87 194.22 C 459.36 192.79 460.02 191.83 461.88 191.99 C 464.38 192.18 466.91 192.02 469.44 192.02 Z  M 468.6 212.87 C 474.27 213.11 477.09 210.29 478.08 205.54 C 478.53 203.38 477.42 201.63 475.33 201.22 C 473.52 200.86 471.7 200.94 469.87 200.91 C 469.19 200.9 468.9 201.24 468.73 201.82 C 467.93 204.51 467.08 207.19 466.32 209.9 C 466.06 210.82 465.17 211.98 465.76 212.6 C 466.26 213.13 467.62 212.82 468.6 212.87 Z " fill="rgb(254,254,254)"/><path d=" M 602.87 216.93 C 603.75 216.26 604.25 215.42 604.87 214.69 C 607.53 211.59 610.2 208.49 612.88 205.41 C 616.2 201.58 619.57 197.79 622.86 193.94 C 624.02 192.58 625.27 191.85 627.17 191.97 C 629.93 192.15 632.71 192.01 635.49 192.02 C 635.82 192.02 636.24 191.86 636.44 192.23 C 636.65 192.62 636.25 192.87 636.05 193.1 C 633.59 195.92 631.11 198.71 628.65 201.52 C 627.32 203.04 626.04 204.61 624.71 206.13 C 621.86 209.38 619.01 212.63 616.12 215.84 C 615.65 216.36 615.61 216.79 615.8 217.43 C 616.55 219.93 617.02 222.54 617.99 224.96 C 620.15 230.38 621.3 236.09 623.09 241.61 C 623.67 243.4 623.68 243.39 621.69 243.39 C 618.27 243.39 614.86 243.35 611.44 243.42 C 610.41 243.44 609.96 243.08 609.66 242.12 C 607.66 235.73 605.56 229.38 603.85 222.9 C 603.49 221.54 602.84 220.26 602.2 218.64 C 601.64 220.35 601.11 221.8 600.71 223.29 C 598.97 229.76 596.29 235.93 594.6 242.42 C 594.44 243.05 594.15 243.41 593.38 243.4 C 589.91 243.36 586.45 243.37 582.98 243.39 C 582.11 243.4 581.78 243.16 582.15 242.26 C 584.24 237.2 585.28 231.78 587.23 226.69 C 588.95 222.22 589.98 217.54 591.64 213.07 C 593.53 207.98 595.02 202.78 596.65 197.62 C 597.13 196.08 597.52 194.52 598.29 193.06 C 598.7 192.28 599.06 191.97 599.93 191.98 C 603.1 192.03 606.27 192.02 609.44 191.99 C 610.41 191.98 610.91 192.04 610.51 193.29 C 608.2 200.56 605.58 207.74 603.55 215.1 C 603.36 215.7 602.67 216.07 602.87 216.93 Z " fill="rgb(254,254,254)"/><path d=" M 507.64 232.7 C 506.75 232.7 505.82 232.86 504.97 232.67 C 502.15 232.03 500.92 233.82 499.81 235.85 C 498.63 238.02 497.46 240.2 496.31 242.39 C 495.92 243.13 495.41 243.43 494.54 243.41 C 491.37 243.36 488.2 243.36 485.04 243.41 C 483.93 243.43 483.62 243.07 484.31 242.19 C 486.72 239.11 488.13 235.44 490.41 232.27 C 491.73 230.44 492.66 228.33 493.85 226.39 C 497.63 220.21 501.29 213.95 505.05 207.77 C 506.69 205.08 508.09 202.24 509.9 199.67 C 511.52 197.37 512.82 194.89 514.23 192.46 C 514.57 191.87 515.08 191.71 515.73 191.71 C 519.29 191.73 522.86 191.73 526.42 191.71 C 527.23 191.7 527.59 191.95 527.55 192.81 C 527.25 198.43 527 204.04 526.69 209.66 C 526.57 211.88 526.48 214.12 526.48 216.31 C 526.48 219.96 525.74 223.52 525.69 227.16 C 525.62 232.19 525.18 237.2 524.95 242.23 C 524.9 243.25 524.45 243.43 523.56 243.41 C 520.54 243.37 517.52 243.36 514.5 243.41 C 513.53 243.43 513.16 243.12 513.25 242.13 C 513.46 239.78 513.56 237.41 513.83 235.06 C 514.09 232.86 514.01 232.69 511.81 232.69 C 510.42 232.7 509.03 232.7 507.64 232.7 Z  M 516.68 206.35 C 515.37 207.46 514.86 208.74 514.2 209.92 C 511.75 214.35 509.33 218.8 506.87 223.23 C 506.39 224.1 506.49 224.43 507.56 224.4 C 509.58 224.35 511.61 224.36 513.64 224.4 C 514.45 224.42 514.75 224.16 514.8 223.32 C 514.94 220.97 514.89 218.54 515.47 216.28 C 516.3 213.06 515.98 209.78 516.68 206.35 Z " fill="rgb(254,254,254)"/><path d=" M 513.98 130.18 C 515.66 130.18 517.35 130.23 519.03 130.16 C 520.01 130.12 520.47 130.35 520.41 131.46 C 520.09 136.63 519.84 141.81 519.56 146.98 C 519.43 149.3 519.49 151.62 519.29 153.94 C 518.99 157.33 519.06 160.75 518.9 164.16 C 518.65 169.63 518.32 175.1 518.06 180.57 C 518.02 181.32 517.8 181.62 517.02 181.62 C 513.75 181.59 510.48 181.59 507.21 181.62 C 506.31 181.63 506.22 181.34 506.32 180.46 C 506.64 177.77 506.78 175.06 507.02 172.36 C 507.1 171.48 506.81 171.13 505.87 171.14 C 502.45 171.19 499.03 171.17 495.62 171.14 C 494.88 171.13 494.45 171.38 494.1 172.04 C 492.56 174.91 491.11 177.82 489.29 180.54 C 488.79 181.29 488.29 181.64 487.39 181.62 C 484.42 181.58 481.45 181.61 478.47 181.6 C 476.88 181.6 476.79 181.48 477.63 180.09 C 480.37 175.59 483.15 171.11 485.89 166.6 C 486.86 164.99 487.72 163.31 488.69 161.71 C 491.28 157.42 493.93 153.16 496.52 148.87 C 497.59 147.09 498.56 145.25 499.63 143.47 C 502.17 139.26 504.75 135.07 507.29 130.85 C 507.63 130.29 508.05 130.16 508.64 130.16 C 510.41 130.19 512.19 130.18 513.98 130.18 Z  M 509.38 144.76 C 507.79 147.21 506.51 149.7 505.04 152.1 C 503.15 155.21 501.74 158.61 499.7 161.65 C 499.1 162.55 499.29 162.86 500.34 162.85 C 502.47 162.82 504.6 162.81 506.73 162.86 C 507.64 162.88 507.88 162.55 507.94 161.66 C 508.16 158.71 508.5 155.78 508.76 152.83 C 509 150.15 509.18 147.45 509.38 144.76 Z " fill="rgb(254,254,254)"/><path d=" M 647.07 243.39 C 642.17 243.39 637.27 243.36 632.37 243.41 C 631.16 243.42 630.76 243.18 631.21 241.9 C 632.05 239.48 632.55 236.92 633.52 234.56 C 635.56 229.63 636.55 224.36 638.47 219.41 C 640.52 214.11 641.69 208.55 643.74 203.27 C 645.04 199.91 645.93 196.44 647.08 193.04 C 647.34 192.26 647.74 192 648.57 192 C 657.58 192.03 666.59 192 675.6 192.03 C 678.86 192.04 678.86 192.09 677.98 195.24 C 677.57 196.71 677.09 198.17 676.72 199.65 C 676.48 200.63 676.01 200.96 674.97 200.95 C 669.43 200.89 663.88 200.96 658.34 200.89 C 657.23 200.88 656.76 201.24 656.5 202.27 C 655.72 205.32 654.58 208.26 653.45 211.19 C 652.97 212.44 653.31 212.85 654.66 212.84 C 659.56 212.78 664.46 212.85 669.36 212.8 C 670.7 212.79 670.98 213.15 670.59 214.45 C 669.94 216.62 668.77 218.59 668.35 220.83 C 668.18 221.74 667.49 221.73 666.75 221.73 C 661.75 221.72 656.75 221.75 651.75 221.7 C 650.65 221.69 650.21 222 649.78 223.11 C 648.51 226.42 647.51 229.81 646.44 233.19 C 646.11 234.25 646.3 234.53 647.43 234.52 C 653.12 234.47 658.82 234.53 664.51 234.47 C 665.81 234.46 666.12 234.71 665.7 236.04 C 665.03 238.2 663.86 240.17 663.42 242.4 C 663.22 243.41 662.54 243.41 661.76 243.41 C 656.87 243.39 651.97 243.39 647.07 243.39 Z " fill="rgb(254,254,254)"/><path d=" M 433.25 192.02 C 438.09 191.78 443.87 192.41 449.65 192.25 C 450.68 192.22 450.9 192.48 450.61 193.53 C 449.98 195.81 448.93 197.93 448.27 200.19 C 448 201.1 447.35 200.93 446.74 200.93 C 442.33 200.94 437.93 200.98 433.52 200.9 C 432.26 200.88 431.66 201.25 431.34 202.48 C 430.65 205.1 429.82 207.69 429.05 210.29 C 429.01 210.43 428.95 210.57 428.9 210.71 C 427.92 213.1 427.92 213.1 430.51 213.1 C 434.42 213.1 438.33 213.13 442.24 213.08 C 443.2 213.07 443.46 213.3 443.15 214.25 C 442.41 216.55 441.7 218.86 441.05 221.19 C 440.8 222.08 440.18 221.99 439.54 222 C 435.18 222 430.83 222.04 426.47 221.97 C 425.44 221.95 425.03 222.3 424.7 223.25 C 422.54 229.48 420.55 235.77 418.73 242.11 C 418.49 242.93 418.04 243.4 417.17 243.4 C 413.75 243.4 410.34 243.39 406.92 243.41 C 405.76 243.42 405.97 242.82 406.18 242.05 C 407.4 237.48 409.39 233.17 410.58 228.59 C 411.08 226.68 411.56 224.75 412.3 222.93 C 414.57 217.3 415.81 211.33 417.94 205.68 C 419.47 201.61 420.55 197.43 421.92 193.32 C 422.24 192.36 422.66 191.98 423.69 192.01 C 426.56 192.06 429.43 192.02 433.25 192.02 Z " fill="rgb(254,254,254)"/><path d=" M 547.32 130.48 C 549 130.48 550.69 130.55 552.37 130.46 C 553.57 130.4 553.64 130.81 553.32 131.81 C 551.76 136.63 550.02 141.39 548.55 146.25 C 546.44 153.17 544.18 160.06 541.89 166.92 C 540.37 171.45 539.01 176.02 537.56 180.56 C 537.32 181.33 536.97 181.66 536.1 181.65 C 532.78 181.6 529.46 181.6 526.15 181.65 C 524.94 181.67 524.66 181.3 525.1 180.17 C 526.92 175.49 528.17 170.62 529.8 165.87 C 531.92 159.67 533.67 153.35 535.86 147.18 C 537.7 142.02 539.13 136.76 540.8 131.56 C 541.06 130.75 541.45 130.46 542.28 130.48 C 543.95 130.51 545.64 130.48 547.32 130.48 Z " fill="rgb(254,254,254)"/><path d=" M 468.6 212.87 C 467.62 212.81 466.26 213.13 465.76 212.61 C 465.16 211.99 466.06 210.83 466.32 209.91 C 467.08 207.2 467.93 204.52 468.73 201.83 C 468.9 201.25 469.19 200.91 469.87 200.92 C 471.7 200.94 473.52 200.87 475.33 201.23 C 477.42 201.64 478.54 203.39 478.08 205.55 C 477.09 210.29 474.28 213.11 468.6 212.87 Z " fill="rgb(188,188,187)"/><path d=" M 516.68 206.35 C 515.98 209.79 516.3 213.06 515.47 216.28 C 514.89 218.53 514.94 220.96 514.8 223.32 C 514.75 224.16 514.45 224.42 513.64 224.4 C 511.62 224.36 509.59 224.35 507.56 224.4 C 506.49 224.43 506.39 224.1 506.87 223.23 C 509.33 218.8 511.75 214.35 514.2 209.92 C 514.85 208.73 515.36 207.45 516.68 206.35 Z " fill="rgb(188,188,187)"/><path d=" M 509.38 144.76 C 509.18 147.45 509 150.15 508.77 152.84 C 508.51 155.78 508.17 158.72 507.95 161.67 C 507.89 162.55 507.65 162.89 506.74 162.87 C 504.61 162.82 502.48 162.84 500.35 162.86 C 499.3 162.87 499.1 162.56 499.71 161.66 C 501.75 158.62 503.16 155.22 505.05 152.11 C 506.51 149.7 507.8 147.21 509.38 144.76 Z " fill="rgb(189,188,188)"/></g></svg>