<?xml version="1.0" encoding="utf-8"?>
<!-- Generator: Adobe Illustrator 21.0.0, SVG Export Plug-In . SVG Version: 6.00 Build 0)  -->
<svg version="1.1" id="Layer_1" xmlns="http://www.w3.org/2000/svg" xmlns:xlink="http://www.w3.org/1999/xlink" x="0px" y="0px"
	 viewBox="0 0 310.7 80.9" style="enable-background:new 0 0 310.7 80.9;" xml:space="preserve">
<style type="text/css">
	.st0{fill-rule:evenodd;clip-rule:evenodd;fill:#e88c3c;}
	.st1{fill:#e88c3c;}
</style>
<g>
	<path class="st0" d="M40.5,0C18.1,0,0,18.1,0,40.4c0,22.3,18.1,40.5,40.5,40.5c22.3,0,40.4-18.1,40.4-40.5C80.9,18.1,62.8,0,40.5,0
		z M41.1,74.5c-8.2,0.1-16.2-2.7-22.5-8.1V37.8h14.5c4.4,0,8,3.6,8,8V74.5z M41.1,27.1c0,4.4-3.6,8-8,8H18.6V22.9
		c0-5.4,5.3-10.7,10.7-10.7h11.8V27.1z M67.9,38.4c0,12.3-10,22.3-22.3,22.3h-1.7V45.8c0-4.4,3.6-8,8-8h16.1V38.4z M67.9,35.1H51.8
		c-4.4,0-8-3.6-8-8V12.2h1.7c12.3,0,22.3,10,22.3,22.3V35.1z"/>
	<g>
		<polygon class="st1" points="123.9,30.5 120.8,41.2 117.6,30.5 112.8,30.5 109.7,30.5 91.7,30.5 91.7,36.3 97.2,36.3 97.2,50.7 
			104,50.7 104,36.3 112,36.3 117.7,50.7 123.8,50.7 131.8,30.5 		"/>
		<path class="st1" d="M155.7,38.1c0,4.5-3.3,7.7-7.9,7.7H145v4.9h-6.8V30.5h9.6C152.4,30.5,155.7,33.6,155.7,38.1z M148.7,38.2
			c0-1.3-0.9-2.1-2.2-2.1H145v4.3h1.6C147.8,40.3,148.7,39.4,148.7,38.2z"/>
		<path class="st1" d="M168.7,47.9h-6.5l-0.9,2.8h-7.3l8.1-20.3h6.8l8.1,20.3h-7.5L168.7,47.9z M165.5,37.6l-2,5.6h4L165.5,37.6z"/>
		<path class="st1" d="M178.4,30.5h6.9v20.3h-6.9V30.5z"/>
		<path class="st1" d="M208.2,45.3v5.4h-14V30.5H208v5.4h-7.2v2.2h6.5v5h-6.5v2.2H208.2z"/>
		<path class="st1" d="M227.4,36.3h-5.5v14.4h-6.8V36.3h-5.5v-5.9h17.7V36.3z"/>
		<path class="st1" d="M243.4,45.3v5.4h-14V30.5h13.9v5.4H236v2.2h6.5v5H236v2.2H243.4z"/>
		<path class="st1" d="M254.2,45.2h-1.4v5.5h-6.7V30.5h9.5c4.7,0,8,3.1,8,7.7c0,2.3-1,4.2-2.8,5.5l3.5,7.1h-7.5L254.2,45.2z
			 M252.8,40.1h1.7c1.4,0,2.1-0.8,2.1-1.9c0-1.1-0.8-1.9-2.1-1.9h-1.7V40.1z"/>
		<path class="st1" d="M285.2,30.5v20.3h-5.5l-7.2-9.6v9.6h-6.4V30.5h5.7l7,9.2v-9.2H285.2z"/>
		<path class="st1" d="M287.5,40.6c0-6.4,4.6-10.7,11.6-10.7c7,0,11.6,4.3,11.6,10.7s-4.6,10.7-11.6,10.7
			C292.1,51.3,287.5,47,287.5,40.6z M303.5,40.6c0-2.7-1.8-4.5-4.4-4.5c-2.6,0-4.4,1.8-4.4,4.5c0,2.7,1.8,4.5,4.4,4.5
			C301.7,45.1,303.5,43.3,303.5,40.6z"/>
	</g>
</g>
</svg>
