<svg width="163" height="47" viewBox="0 0 163 47" fill="none" xmlns="http://www.w3.org/2000/svg">
<g clip-path="url(#clip0)">
<path d="M158.929 12.5691C157.314 12.5691 155.968 13.8216 155.814 15.3777C153.968 13.9734 151.661 13.1384 149.123 13.1384C143.048 13.1384 138.126 17.9966 138.126 23.9935C138.126 29.9903 143.048 34.8485 149.123 34.8485C151.7 34.8485 154.084 33.9756 155.968 32.4953C156.391 33.7099 157.545 34.6208 158.929 34.6208C160.659 34.6208 162.044 33.2544 162.044 31.5465V15.6434C162.044 13.9734 160.621 12.5691 158.929 12.5691ZM149.777 29.9144C146.432 29.9144 143.74 27.2576 143.74 23.9555C143.74 20.6535 146.432 17.9966 149.777 17.9966C153.122 17.9966 155.814 20.6535 155.814 23.9555C155.814 27.2576 153.084 29.9144 149.777 29.9144Z" fill="black"/>
<path d="M67.717 12.5691C66.1019 12.5691 64.7561 13.8216 64.6022 15.3777C62.7565 13.9734 60.4492 13.1384 57.9113 13.1384C51.8356 13.1384 46.9135 17.9966 46.9135 23.9935C46.9135 29.9903 51.8356 34.8485 57.9113 34.8485C60.4877 34.8485 62.8718 33.9756 64.7561 32.4953C65.179 33.7099 66.3327 34.6208 67.717 34.6208C69.4474 34.6208 70.8317 33.2544 70.8317 31.5465V15.6434C70.8317 13.9734 69.4474 12.5691 67.717 12.5691ZM58.565 29.9144C55.2195 29.9144 52.5278 27.2576 52.5278 23.9555C52.5278 20.6535 55.2195 17.9966 58.565 17.9966C61.9105 17.9966 64.6022 20.6535 64.6022 23.9555C64.6022 27.2576 61.9105 29.9144 58.565 29.9144Z" fill="black"/>
<path d="M114.669 34.8485H114.208C112.631 34.8485 111.362 33.596 111.362 32.0399V15.3018C111.362 13.7457 112.631 12.4932 114.208 12.4932H114.631C116.207 12.4932 117.476 13.7457 117.476 15.3018V32.0399C117.476 33.596 116.207 34.8485 114.669 34.8485Z" fill="black"/>
<path d="M138.702 32.0019L131.742 23.0825L136.28 17.7309C137.357 16.4784 137.164 14.6186 135.895 13.5559C134.626 12.4932 132.742 12.6829 131.665 13.9354L126.167 20.5016V6.64812C126.167 5.09198 124.859 3.80151 123.283 3.80151H122.936C121.36 3.80151 120.052 5.09198 120.052 6.64812V32.0019C120.052 33.5581 121.36 34.8485 122.936 34.8485H123.283C124.859 34.8485 126.167 33.5581 126.167 32.0019V25.8153L132.05 33.4062L137.549 34.6967L138.087 34.469C139.049 34.0135 139.356 32.8369 138.702 32.0019Z" fill="black"/>
<path d="M35.1467 13.0245C32.6472 13.0245 30.3015 13.8595 28.4558 15.2639C28.3404 13.6698 26.9945 12.4552 25.341 12.4552C23.6106 12.4552 22.2263 13.8216 22.2263 15.5295V24.1453V31.3946V40.4658C22.2263 41.984 23.4952 43.2365 25.0334 43.2365H25.5333C27.0714 43.2365 28.3404 41.984 28.3404 40.4658V32.3815C30.2246 33.8237 32.5703 34.6967 35.1082 34.6967C41.1839 34.6967 46.106 29.8385 46.106 23.8416C46.106 17.8448 41.2224 13.0245 35.1467 13.0245ZM34.5314 29.8005C31.186 29.8005 28.4942 27.1437 28.4942 23.8416C28.4942 20.5396 31.186 17.8448 34.5314 17.8448C37.8769 17.8448 40.5687 20.5016 40.5687 23.8037C40.5687 27.1057 37.8769 29.8005 34.5314 29.8005Z" fill="black"/>
<path d="M85.4056 13.0245C82.9061 13.0245 80.5604 13.8595 78.7146 15.2639C78.5993 13.6698 77.2534 12.4552 75.5999 12.4552C73.8695 12.4552 72.4851 13.8216 72.4851 15.5295V24.1453V31.3946V40.4658C72.4851 41.984 73.7541 43.2365 75.2923 43.2365H75.7922C77.3303 43.2365 78.5993 41.984 78.5993 40.4658V32.3815C80.4835 33.8237 82.8292 34.6967 85.3671 34.6967C91.4428 34.6967 96.3649 29.8385 96.3649 23.8416C96.3649 17.8448 91.4428 13.0245 85.4056 13.0245ZM84.7519 29.8005C81.4064 29.8005 78.7146 27.1437 78.7146 23.8416C78.7146 20.5396 81.4064 17.8827 84.7519 17.8827C88.0973 17.8827 90.7891 20.5396 90.7891 23.8416C90.7891 27.1437 88.0973 29.8005 84.7519 29.8005Z" fill="black"/>
<path d="M106.824 12.645C105.825 12.8348 104.825 13.48 103.479 14.3909C103.363 14.4668 103.171 14.4289 103.133 14.315C102.71 13.4041 101.748 12.4932 100.71 12.4932H100.479C98.7875 12.4932 97.8262 13.8595 97.8262 15.5675V31.7362C97.8262 33.4442 99.2105 34.8106 100.864 34.8106C102.556 34.8106 103.902 33.4442 103.902 31.7362V20.16C103.902 19.7425 104.286 19.4389 104.632 19.1732C105.517 18.528 107.17 17.9587 108.209 17.9587C109.439 17.9587 110.016 16.7821 110.208 15.5675C110.516 13.48 109.708 12.0757 106.824 12.645Z" fill="black"/>
<path d="M137.587 34.6967C135.242 35.304 133.319 35.0004 132.088 33.4062L137.587 34.6967Z" fill="black"/>
<path fill-rule="evenodd" clip-rule="evenodd" d="M19.6883 15.8711C19.6883 21.2373 15.2809 25.5875 9.84414 25.5875C4.40737 25.5875 0 21.2373 0 15.8711C0 10.5049 4.40737 6.15466 9.84414 6.15466C15.2809 6.15466 19.6883 10.5049 19.6883 15.8711ZM15.766 12.6829C15.9967 12.6829 16.2274 12.7967 16.3428 12.9865C16.4966 13.1763 16.4966 13.442 16.3428 13.6697L13.2281 21.0709C13.1511 21.3366 12.7282 21.6782 12.2667 21.6782H11.6515C11.2285 21.6782 10.8055 21.4504 10.6517 21.0329L8.26753 15.2638C8.22907 15.112 8.11371 15.0361 7.9599 15.0361H7.53691C7.38309 15.0361 7.26773 15.1499 7.26773 15.3018V18.7936C7.26773 19.5147 7.42155 19.5147 7.72918 19.5147C7.92144 19.5147 8.15217 19.4388 8.38289 19.325C8.57516 19.2491 8.84433 19.2491 9.0366 19.3629C9.22887 19.4768 9.38268 19.6666 9.38268 19.8943L9.42114 20.8432C9.45959 21.1088 9.26732 21.3745 8.99815 21.4884C8.45979 21.6782 7.99835 21.7541 7.42155 21.7541C6.15257 21.7541 4.76824 21.0329 4.76824 19.0593V15.2638C4.76824 15.112 4.65288 14.9981 4.49907 14.9981H3.84535C3.46082 14.9981 3.15319 14.6945 3.15319 14.3149V13.404C3.15319 13.0245 3.46082 12.7208 3.84535 12.7208C4.34525 12.7208 4.76824 12.3033 4.76824 11.8099V11.2406C4.76824 10.8611 5.07587 10.5574 5.46041 10.5574H6.57556C6.9601 10.5574 7.26773 10.8611 7.26773 11.2406V12.4172C7.26773 12.607 7.42155 12.7208 7.57536 12.7208H9.49804C9.80567 12.7208 10.0364 12.8727 10.1518 13.1383L11.8822 17.5411C11.9206 17.6929 12.1514 17.6929 12.1898 17.5411L13.8818 13.2142C13.9971 12.8727 14.3048 12.6829 14.6508 12.6829H15.766Z" fill="black"/>
</g>
<defs>
<clipPath id="clip0">
<rect width="162.044" height="39.3971" fill="black" transform="translate(0 3.80151)"/>
</clipPath>
</defs>
</svg>
