<svg width="75" height="70" viewBox="0 0 75 70" fill="none" xmlns="http://www.w3.org/2000/svg">
<path d="M25.35 55.365L25.02 55.025V69.905H25.56H39.68L25.35 55.365Z" fill="#002C5B"/>
<path d="M72.54 0.0949936H2.3C1.03 0.0949936 0 1.04499 0 2.21499V67.795C0 68.965 1.03 69.905 2.3 69.905H7.6V9.79499C7.6 9.58499 7.63 9.37499 7.7 9.18499C7.74 9.05499 7.8 8.93499 7.87 8.81499C7.94 8.69499 8.01 8.58499 8.1 8.48499C8.19 8.38499 8.29 8.28499 8.39 8.20499C8.77 7.90499 9.25 7.71499 9.78 7.69499C9.82 7.69499 9.86 7.69499 9.9 7.69499H14.66C18.4 7.69499 22.14 7.69499 25.88 7.69499H25.95C32.33 7.69499 38.71 7.69499 45.09 7.69499C45.77 7.69499 46.43 7.72499 47.09 7.78499C47.75 7.84499 48.4 7.92499 49.04 8.04499C50.32 8.27499 51.57 8.60499 52.77 9.03499C53.97 9.46499 55.12 10.005 56.21 10.625C57.03 11.095 57.81 11.615 58.57 12.175C59.07 12.555 59.55 12.955 60.02 13.375C60.72 14.005 61.38 14.675 61.99 15.395C62.4 15.875 62.79 16.365 63.16 16.885C65.01 19.455 66.34 22.455 67 25.765C67.75 29.535 67.45 33.335 66.31 36.825C65.93 37.985 65.46 39.115 64.89 40.195C64.61 40.735 64.31 41.265 63.99 41.785C63.83 42.045 63.66 42.295 63.49 42.545C63.15 43.045 62.78 43.535 62.4 44.015C61.63 44.955 60.79 45.845 59.87 46.655C58.27 48.075 56.45 49.265 54.45 50.155L74.05 69.395C74.54 69.005 74.86 68.435 74.86 67.785V2.21499C74.86 1.04499 73.49 0.0949936 72.22 0.0949936" fill="#002C5B"/>
<path d="M73.97 69.335L54.43 50.155C56.43 49.265 58.25 48.075 59.85 46.655C60.77 45.845 61.61 44.955 62.38 44.015C62.77 43.545 63.13 43.055 63.47 42.545C63.64 42.295 63.81 42.035 63.97 41.785C64.29 41.265 64.59 40.735 64.87 40.195C65.43 39.115 65.91 37.985 66.29 36.825C67.43 33.335 67.73 29.535 66.99 25.765C66.34 22.455 65 19.455 63.15 16.885C62.78 16.365 62.39 15.875 61.98 15.395C61.37 14.685 60.7 14.005 60.01 13.375C59.54 12.955 59.06 12.555 58.56 12.175C57.81 11.605 57.02 11.085 56.2 10.625C55.11 10.005 53.96 9.465 52.76 9.035C51.56 8.605 50.32 8.265 49.03 8.045C48.39 7.935 47.74 7.845 47.08 7.785C46.42 7.725 45.75 7.695 45.08 7.695C38.7 7.695 32.32 7.695 25.94 7.695H25.87C22.13 7.695 18.39 7.695 14.65 7.695C13.83 7.695 13.01 7.695 12.19 7.695H9.77003C9.24003 7.715 8.76003 7.905 8.38003 8.205C8.27003 8.285 8.17003 8.385 8.09003 8.485C8.00003 8.585 7.92003 8.695 7.86003 8.815C7.79003 8.935 7.74003 9.055 7.69003 9.185C7.63003 9.375 7.59003 9.585 7.59003 9.795V69.895H25.03V22.465C31.34 22.445 37.42 22.435 43.73 22.425C44.14 22.425 44.53 22.445 44.92 22.505C45.17 22.545 45.43 22.585 45.67 22.645C45.79 22.675 45.92 22.705 46.03 22.745C46.27 22.815 46.51 22.905 46.74 22.995C46.97 23.095 47.19 23.205 47.42 23.325C47.64 23.445 47.85 23.575 48.06 23.725C48.27 23.875 48.47 24.025 48.67 24.195C48.87 24.365 49.06 24.545 49.25 24.745C51.42 26.965 51.95 30.335 50.6 33.175C49.27 35.975 46.33 37.365 42.95 37.355H25.04L57.46 69.875L57.48 69.895H72.55C72.63 69.895 72.72 69.895 72.8 69.885C73.27 69.835 73.7 69.655 74.04 69.395L73.98 69.335H73.97Z" fill="white"/>
<path d="M50.6 33.185C51.95 30.345 51.42 26.975 49.26 24.755C49.07 24.565 48.88 24.375 48.68 24.205C48.48 24.035 48.28 23.875 48.07 23.735C47.86 23.595 47.65 23.455 47.43 23.335C47.21 23.215 46.99 23.105 46.76 23.005C46.53 22.905 46.29 22.825 46.05 22.755C45.93 22.715 45.81 22.685 45.69 22.655C45.44 22.595 45.19 22.545 44.94 22.515C44.56 22.465 44.16 22.435 43.76 22.435C37.45 22.445 31.36 22.455 25.06 22.475V37.365H42.97C46.35 37.375 49.29 35.985 50.62 33.185" fill="#002C5B"/>
<path d="M57.45 69.875L25.03 37.355H7.59003L26.36 56.405L39.67 69.905H57.47L57.45 69.875Z" fill="#ED333F"/>
</svg>
