<svg xmlns="http://www.w3.org/2000/svg" viewBox="0 0 420.448 512.951"><path fill="#5C5958" d="M-.465-.329h317.028v512.951H-.465z"/><path fill="#E9EAE8" d="M228.503 512.622h-45.365V245.316l-61.824 54.261v-50.259l61.824-53.373h45.365v316.677zM368.555 460.919h51.428v51.611h-51.428zM377.46 395.624v13.109h41.296v9.803H377.46v13.105h-8.708v-36.018h8.708zM368.752 348.149l50.004 16.635v7.329l-50.004 16.562v-10.146l32.588-10.081-32.588-10.08v-10.219zM404.011 288.69c4.729 0 8.438 1.746 11.13 5.247 2.692 3.505 4.04 7.958 4.04 13.357 0 4-.505 7.451-1.512 10.362-1.009 2.915-2.702 5.57-5.095 7.97l-6.319-6.348c2.81-2.817 4.216-6.858 4.216-12.123 0-5.921-2.057-8.882-6.184-8.882-1.824 0-3.229.519-4.211 1.553-.842.938-1.429 2.417-1.756 4.436l-.846 6.063c-.605 4.276-1.986 7.521-4.141 9.729-2.391 2.396-5.666 3.596-9.833 3.596-4.541 0-8.2-1.574-10.99-4.721-2.786-3.152-4.179-7.402-4.179-12.761 0-6.765 1.939-12.169 5.824-16.211l6.114 6.205c-2.294 2.392-3.442 5.825-3.442 10.288 0 2.492.6 4.406 1.789 5.746 1.197 1.338 2.702 2.009 4.531 2.009 1.456 0 2.648-.491 3.585-1.481 1.03-1.125 1.685-2.681 1.966-4.654l.844-5.919c.607-4.23 1.893-7.426 3.86-9.585 2.437-2.582 5.973-3.876 10.609-3.876zM418.756 246.892v32.565h-50.004v-9.801h41.301v-22.765h8.703zM387.503 205.443c1.315-.047 3.399-.068 6.253-.068 2.855 0 4.939.021 6.25.068 1.311.045 2.94.216 4.879.49 1.945.281 3.596.793 4.951 1.521 1.361.729 2.645 1.704 3.865 2.921 3.65 3.668 5.479 8.179 5.479 13.536 0 5.405-1.829 9.938-5.479 13.608-1.221 1.219-2.494 2.18-3.826 2.887-1.336.704-3.005 1.197-5.023 1.481-2.009.278-3.631.447-4.846.491-1.213.052-3.299.07-6.25.07-2.949 0-5.033-.018-6.253-.07-1.216-.044-2.832-.213-4.846-.491-2.013-.285-3.685-.777-5.019-1.481-1.338-.707-2.611-1.668-3.828-2.887-3.652-3.67-5.479-8.204-5.479-13.608 0-5.357 1.826-9.868 5.479-13.536 1.217-1.218 2.504-2.192 3.861-2.921 1.359-.728 3.012-1.239 4.953-1.521 1.939-.274 3.573-.444 4.879-.49zm15.981 10.223c-1.804-.332-5.048-.497-9.728-.497-4.682 0-7.926.165-9.727.497-1.803.327-3.244.988-4.32 1.972-1.781 1.55-2.666 3.644-2.666 6.273 0 2.675.885 4.794 2.666 6.343 1.076.987 2.504 1.636 4.285 1.942 1.779.301 5.031.455 9.762.455 4.729 0 7.983-.153 9.764-.455 1.775-.306 3.203-.955 4.283-1.942 1.779-1.549 2.668-3.668 2.668-6.343 0-2.63-.889-4.724-2.668-6.273-1.08-.984-2.519-1.645-4.319-1.972z"/></svg>