<svg width="300" height="300" viewBox="0 0 300 300" fill="none" xmlns="http://www.w3.org/2000/svg">
<rect width="300" height="300" fill="white"/>
<path d="M149.023 110.176L138.444 94.4405C136.327 95.006 134.235 95.7435 132.203 96.7155L145.194 116.022C149.824 120.549 154.237 125.805 158.205 131.716C162.178 137.633 165.431 143.738 167.886 149.747L180.806 168.947C182.388 167.31 183.88 165.734 185.205 163.992L174.654 148.3C169.552 143.057 164.588 137.036 160.092 130.351C155.596 123.656 151.934 116.856 149.023 110.176Z" fill="#004A93"/>
<path d="M158.013 97.0774L155.501 93.3425C152.874 93.0248 150.22 92.915 147.58 93.0687L154.317 103.083C159.7 108.58 165.335 115.266 170.741 123.308C175.82 130.856 179.896 138.416 183.157 145.944L189.984 156.09C191.11 153.689 192.016 151.202 192.699 148.645L190.083 144.757C183.7 138.246 177.556 130.799 171.922 122.399C166.275 114.013 161.635 105.461 158.013 97.0774Z" fill="#004A93"/>
<path d="M153.998 134.541C150.016 128.619 146.798 122.527 144.338 116.513L131.299 97.1277C129.368 97.9469 127.486 98.9908 125.682 100.28L140.638 122.504C144.593 126.433 148.371 130.965 151.802 136.044C155.219 141.095 157.985 146.36 160.149 151.497L175.053 173.646C176.835 172.332 178.509 170.997 180.078 169.641L167.074 150.31C162.43 145.766 157.985 140.459 153.998 134.541Z" fill="#004A93"/>
<path d="M153.502 103.588L146.42 93.0508C144.093 93.2391 141.76 93.6037 139.452 94.1663L149.845 109.631C154.826 114.711 159.769 120.884 164.249 127.553C168.726 134.213 172.49 141.013 175.421 147.689L185.816 163.16C187.203 161.228 188.429 159.215 189.487 157.118L182.392 146.564C176.65 140.722 171.193 133.999 166.098 126.429C160.998 118.851 156.792 111.154 153.502 103.588Z" fill="#004A93"/>
<path d="M117.142 155.572L105.769 138.668C106.009 146.611 108.453 154.671 113.265 161.834C118.28 169.273 124.477 174.225 131.982 177.628L120.952 161.235C120.178 160.444 119.458 159.562 118.802 158.596C118.138 157.616 117.586 156.601 117.142 155.572Z" fill="#004A93"/>
<path d="M139.933 123.204L124.876 100.817C123.062 101.975 121.392 103.326 119.843 104.838L136.024 128.891C139.475 132.158 142.723 135.971 145.628 140.28C148.52 144.576 150.852 149.07 152.589 153.514L168.618 177.339C170.531 176.362 172.395 175.308 174.237 174.201L159.284 151.973C155.377 148.053 151.661 143.465 148.263 138.432C144.871 133.424 142.096 128.283 139.933 123.204Z" fill="#004A93"/>
<path d="M178.261 118.056C175.683 114.215 169.643 104.334 165.897 95.9671C162.95 94.8385 159.902 94.0248 156.798 93.5346L158.834 96.5618C165.216 103.079 171.383 110.586 177.025 118.976C182.636 127.333 187.234 135.782 190.846 144.123L193.026 147.362C193.741 144.293 194.138 141.152 194.192 137.976C192.264 136.471 181.2 122.762 178.261 118.056Z" fill="#004A93"/>
<path d="M183.365 114.634C185.854 118.13 193.108 130.398 193.985 132.775C193.281 125.759 190.891 118.8 186.676 112.541C182.332 106.086 176.578 101.143 170.097 97.8435C170.288 97.9452 170.479 98.0494 170.669 98.1566C173.568 101.029 180.224 109.907 183.365 114.634Z" fill="#004A93"/>
<path d="M142.15 142.612C139.272 138.334 136.971 133.91 135.247 129.494L119.126 105.531C117.509 107.001 116.037 108.658 114.728 110.485L131.475 135.378C134.307 138.034 136.968 141.13 139.32 144.632C141.671 148.112 143.5 151.721 144.892 155.321L161.454 179.942C163.567 179.289 165.651 178.568 167.712 177.751L151.741 154.01C148.299 150.739 145.025 146.889 142.15 142.612Z" fill="#004A93"/>
<path d="M124.558 154.594C123.315 152.757 122.357 150.878 121.618 148.975L106.923 127.124C106.154 130.24 105.766 133.508 105.753 136.875L118.076 155.194C118.808 155.956 119.498 156.795 120.121 157.717C120.758 158.658 121.291 159.632 121.724 160.619L133.637 178.329C136.668 179.453 139.849 180.325 143.103 180.921L128.704 159.511C127.199 158.084 125.794 156.442 124.558 154.594Z" fill="#004A93"/>
<path d="M130.403 150.737C128.563 148.375 127.011 144.703 126.173 142.494L109.965 118.396C108.808 120.719 107.905 123.219 107.236 125.846L122.439 148.44C123.916 149.851 125.271 151.452 126.502 153.29C127.736 155.115 128.727 157.008 129.485 158.911L144.411 181.094C147.021 181.344 149.674 181.452 152.339 181.396L136.661 158.088C133.663 155.48 130.403 150.737 130.403 150.737Z" fill="#004A93"/>
<path d="M136.304 146.662C133.963 143.179 132.094 139.576 130.701 135.975L114.119 111.331C112.71 113.166 111.489 115.192 110.449 117.372L126.919 141.849C128.649 143.437 131.548 146.296 133.071 148.927C133.071 148.927 136.28 153.85 137.542 157.638L153.476 181.318C155.801 181.057 158.132 180.679 160.457 180.198L144.12 155.918C141.288 153.255 138.668 150.163 136.304 146.662Z" fill="#004A93"/>
<path fill-rule="evenodd" clip-rule="evenodd" d="M102.649 207.702H97.4724V194.599H93V190.61H107.104V194.599H102.649V207.702Z" fill="black"/>
<path fill-rule="evenodd" clip-rule="evenodd" d="M118.664 204.082C117.848 206.754 116.624 208 114.211 208C111.798 208 110.556 206.754 109.719 204.082L105.489 190.609H110.666L113.432 199.685C113.618 200.242 113.877 201.243 114.211 202.709C114.527 201.243 114.767 200.242 114.953 199.685L117.719 190.609H122.896L118.664 204.082Z" fill="black"/>
<path fill-rule="evenodd" clip-rule="evenodd" d="M128.797 203.62H135.98C136.834 203.62 137.279 203.303 137.279 202.784C137.279 202.301 136.815 201.838 135.851 201.337L131.879 199.368C130.004 198.442 128.871 196.846 128.871 195.324C128.871 193.821 129.522 192.596 130.71 191.743C132.194 190.686 134.123 190.61 136.871 190.61H141.641V194.526H136.184C134.848 194.526 134.199 194.655 134.199 195.177C134.199 195.657 134.643 196.084 135.554 196.549L139.468 198.461C141.697 199.592 142.883 201.15 142.883 202.933C142.883 204.472 142.049 205.864 140.619 206.7C138.949 207.684 137.074 207.703 134.848 207.703H134.514H128.797V203.62Z" fill="black"/>
<path fill-rule="evenodd" clip-rule="evenodd" d="M159.53 200.705C159.53 205.289 156.244 208 151.604 208C146.985 208 143.717 205.289 143.717 200.705V190.61H148.859V200.947C148.859 202.84 149.879 203.825 151.604 203.825C153.386 203.825 154.407 202.84 154.407 200.947V190.61H159.529V200.705H159.53Z" fill="black"/>
<path fill-rule="evenodd" clip-rule="evenodd" d="M160.811 196.509C160.811 192.763 163.873 190.293 168.307 190.293C172.298 190.293 175.268 192.577 175.268 195.397C175.268 196.77 174.507 197.792 172.984 198.534C175.175 199.368 176.342 200.853 176.342 202.709C176.342 204.007 175.807 205.141 174.802 206.013C173.133 207.46 171.128 207.702 168.27 207.702H166.823V203.877H168.567C170.145 203.877 171.016 203.284 171.016 202.3C171.016 201.317 170.145 200.686 168.567 200.686H166.823V197.253H167.584C169.292 197.253 170.145 196.715 170.145 195.657C170.145 194.712 169.311 194.042 168.216 194.042C166.786 194.042 165.986 194.841 165.986 196.401V207.684H160.811V196.509Z" fill="black"/>
<path fill-rule="evenodd" clip-rule="evenodd" d="M176.882 197.608C176.882 193.041 180.148 190.312 184.806 190.312C189.446 190.312 192.749 193.041 192.749 197.608V207.702H187.589V201.374H182.95V197.365H187.589V197.162C187.589 195.509 186.494 194.471 184.806 194.471C183.005 194.471 182.021 195.473 182.021 197.365V207.703H176.882V197.608V197.608Z" fill="black"/>
<path fill-rule="evenodd" clip-rule="evenodd" d="M202.082 189.034H200.043L202.899 184.596H206.65L202.082 189.034ZM206.407 207.702C202.808 207.702 200.097 207.239 198.224 206.254C195.159 204.639 193.454 202.078 193.454 199.146C193.454 196.214 195.159 193.672 198.224 192.058C200.097 191.072 202.808 190.609 206.407 190.609H206.944V194.506C206.554 194.471 206.204 194.471 205.868 194.471C202.305 194.471 200.153 195.285 199.206 197.162H206.944V200.982H199.115C199.799 202.858 202.082 203.824 205.962 203.824C206.258 203.824 206.612 203.824 206.944 203.785V207.702H206.407Z" fill="black"/>
</svg>
