<svg width="300" height="300" viewBox="0 0 300 300" fill="none" xmlns="http://www.w3.org/2000/svg">
<rect width="300" height="300" fill="white"/>
<path fill-rule="evenodd" clip-rule="evenodd" d="M67.6252 206.71H62.4495V193.594H58V189.611H72.1025V193.594H67.6252V206.71Z" fill="black"/>
<path fill-rule="evenodd" clip-rule="evenodd" d="M83.6758 203.103L83.3563 204.034L82.9776 204.848L82.5415 205.516L82.0475 206.069L81.7558 206.273L81.4664 206.476L81.1475 206.652L80.7971 206.768L80.0715 206.941L79.2274 207L78.3551 206.941L77.5977 206.768L76.9588 206.476L76.377 206.069L75.8539 205.516L75.4171 204.848L75.0405 204.034L74.7201 203.103L70.4734 189.611H75.6797L78.4423 198.685L78.7612 199.875L79.2274 201.737L79.6344 199.875L79.9545 198.685L82.7159 189.611H87.9214L83.6758 203.103Z" fill="black"/>
<path fill-rule="evenodd" clip-rule="evenodd" d="M93.8241 202.638H101.005L101.559 202.579L101.792 202.494L101.995 202.406L102.111 202.29L102.228 202.143L102.286 201.998L102.314 201.795L102.286 201.621L102.228 201.446L101.965 201.069L101.502 200.719L100.89 200.37L96.8764 198.364L96.2083 197.986L95.6263 197.58L95.1037 197.085L94.6956 196.591L94.3478 196.038L94.0858 195.486L93.9405 194.903L93.8816 194.351L93.9108 193.798L93.9983 193.246L94.1447 192.753L94.3478 192.287L94.6095 191.849L94.9284 191.444L95.3068 191.094L95.7433 190.746L96.2947 190.397L96.9345 190.134L97.6043 189.931L98.3305 189.787L99.1451 189.698L99.9886 189.64L101.908 189.611H106.648V193.536H101.209L100.338 193.566L99.6968 193.654L99.4938 193.74L99.3493 193.857L99.2329 194.002L99.2046 194.207L99.2329 194.381L99.2907 194.526L99.5515 194.875L99.9886 195.223L100.569 195.572L104.495 197.462L105.28 197.928L105.979 198.393L106.561 198.916L107.027 199.469L107.403 200.05L107.694 200.661L107.869 201.3L107.897 201.941L107.869 202.521L107.754 203.075L107.578 203.598L107.316 204.092L106.997 204.558L106.618 204.994L106.152 205.372L105.658 205.72L105.019 206.041L104.35 206.273L103.682 206.476L102.983 206.593L102.228 206.652L101.472 206.71H99.8722H99.5515H93.8241V202.638Z" fill="black"/>
<path fill-rule="evenodd" clip-rule="evenodd" d="M108.188 196.62L108.218 195.775L108.333 194.99L108.508 194.234L108.77 193.536L109.09 192.897L109.469 192.287L109.905 191.763L110.399 191.269L110.95 190.804L111.562 190.425L112.231 190.105L112.928 189.814L113.655 189.611L114.44 189.437L115.255 189.35L116.127 189.32L116.97 189.35L117.784 189.437L118.569 189.611L119.326 189.814L120.023 190.105L120.662 190.425L121.274 190.804L121.825 191.269L122.321 191.763L122.786 192.287L123.164 192.897L123.483 193.536L123.717 194.234L123.919 194.99L124.036 195.775L124.064 196.62V206.71H118.918V200.37H114.265V196.357H118.918V196.184L118.86 195.572L118.714 195.049L118.482 194.584L118.16 194.207L117.756 193.887L117.26 193.682L116.709 193.536L116.127 193.479L115.487 193.536L114.936 193.682L114.44 193.915L114.061 194.234L113.741 194.642L113.538 195.136L113.394 195.717L113.335 196.357V206.71H108.188V196.62Z" fill="black"/>
<path fill-rule="evenodd" clip-rule="evenodd" d="M125.461 192.228L125.52 191.588L125.694 190.977L125.984 190.484L126.333 190.048L126.799 189.698L127.351 189.466L127.962 189.292L128.63 189.262L129.299 189.292L129.88 189.437L130.404 189.64L130.868 189.931L131.306 190.309L131.743 190.776L132.149 191.326L132.585 191.937L135.318 196.008L135.957 196.969L136.539 197.928L137.033 198.858L137.441 199.759L137.15 196.706L137.091 194.962V189.611H142.092V204.673L142.036 205.168L141.891 205.605L141.658 206.011L141.367 206.36L140.988 206.622L140.522 206.826L140.029 206.941L139.475 207L138.895 206.941L138.399 206.854L137.965 206.68L137.587 206.447L137.208 206.157L136.889 205.779L136.22 204.906L132.179 198.888L130.986 197.113L130.404 196.153L129.908 195.078L130.143 196.62L130.317 198.073L130.432 199.469L130.462 200.835V206.71H125.461V192.228Z" fill="black"/>
<path fill-rule="evenodd" clip-rule="evenodd" d="M152.125 206.71H146.95V193.594H142.472V189.611H156.574V193.594H152.125V206.71Z" fill="black"/>
<path fill-rule="evenodd" clip-rule="evenodd" d="M156.254 196.62L156.284 195.775L156.401 194.99L156.604 194.234L156.835 193.536L157.156 192.897L157.534 192.287L157.968 191.763L158.464 191.269L159.016 190.804L159.628 190.425L160.297 190.105L160.994 189.814L161.721 189.611L162.506 189.437L163.32 189.35L164.191 189.32L165.035 189.35L165.85 189.437L166.635 189.611L167.392 189.814L168.089 190.105L168.73 190.425L169.34 190.804L169.893 191.269L170.415 191.763L170.851 192.287L171.23 192.897L171.55 193.536L171.811 194.234L171.985 194.99L172.102 195.775L172.132 196.62V206.71H166.984V200.37H162.33V196.357H166.984V196.184L166.925 195.572L166.78 195.049L166.549 194.584L166.228 194.207L165.82 193.887L165.328 193.682L164.804 193.536L164.191 193.479L163.553 193.536L163 193.682L162.506 193.915L162.129 194.234L161.809 194.642L161.605 195.136L161.458 195.717L161.402 196.357V206.71H156.254V196.62Z" fill="black"/>
<path fill-rule="evenodd" clip-rule="evenodd" d="M192.108 193.594L191.265 193.624L190.479 193.682L189.752 193.769L189.054 193.915L188.415 194.089L187.863 194.293L187.31 194.527L186.845 194.787L186.437 195.108L186.088 195.455L185.768 195.834L185.507 196.242L185.332 196.677L185.186 197.143L185.1 197.637L185.071 198.159L185.1 198.685L185.186 199.179L185.332 199.672L185.507 200.11L185.768 200.515L186.088 200.895L186.437 201.214L186.845 201.533L187.31 201.824L187.833 202.057L188.415 202.259L189.054 202.434L189.723 202.551L190.479 202.669L191.265 202.726H192.108L193.271 202.697V206.71H192.719H191.41L190.188 206.622L189.054 206.535L187.979 206.36L186.989 206.157L186.088 205.925L185.274 205.605L184.547 205.284L183.442 204.615L182.481 203.89L182.075 203.51L181.669 203.075L181.32 202.669L181 202.203L180.709 201.737L180.476 201.272L180.243 200.777L180.069 200.282L179.952 199.759L179.836 199.237L179.779 198.712V198.159V197.608L179.836 197.085L179.952 196.56L180.069 196.038L180.476 195.049L180.709 194.584L181 194.118L181.669 193.246L182.075 192.839L182.481 192.433L182.947 192.054L183.442 191.705L183.965 191.386L184.547 191.066L185.274 190.716L186.088 190.425L186.989 190.165L187.979 189.961L189.054 189.814L190.188 189.699L191.41 189.64L192.719 189.611H193.271V193.624L192.108 193.594Z" fill="black"/>
<path fill-rule="evenodd" clip-rule="evenodd" d="M193.94 195.513L193.998 194.817L194.085 194.176L194.259 193.536L194.492 192.955L194.782 192.403L195.131 191.908L195.568 191.444L196.033 191.008L196.527 190.629L197.109 190.281L197.719 189.988L198.358 189.756L199.087 189.553L199.812 189.408L200.597 189.32L201.383 189.292L202.168 189.32L202.895 189.408L203.622 189.524L204.291 189.698L204.931 189.931L205.54 190.165L206.094 190.455L206.616 190.804L207.082 191.152L207.49 191.53L207.839 191.937L208.13 192.373L208.39 192.839L208.566 193.304L208.653 193.769L208.681 194.265L208.622 194.903L208.478 195.486L208.187 196.038L207.809 196.56L207.315 196.996L206.733 197.404L206.064 197.723L205.309 197.986L206.239 198.102L207.024 198.333L207.664 198.626L207.926 198.801L208.187 199.004L208.39 199.237L208.566 199.497L208.827 200.05L208.972 200.749L209.032 201.533V206.71H203.825V202.579L203.797 201.941L203.652 201.417L203.418 201.011L203.273 200.835L203.07 200.691L202.604 200.485L202.023 200.342L201.296 200.254L200.453 200.225H199.957V196.387H200.744L201.324 196.357L201.849 196.299L202.284 196.154L202.634 195.98L202.923 195.747L203.128 195.486L203.244 195.166L203.273 194.787L203.244 194.439L203.128 194.148L202.953 193.857L202.72 193.624L202.431 193.45L202.11 193.304L201.76 193.218L201.354 193.188L200.859 193.218L200.423 193.333L200.045 193.536L199.726 193.798L199.465 194.148L199.29 194.554L199.175 195.018L199.145 195.572V206.68H193.94V195.513Z" fill="black"/>
<path fill-rule="evenodd" clip-rule="evenodd" d="M225.691 199.731L225.633 200.545L225.518 201.359L225.345 202.085L225.109 202.784L224.791 203.453L224.412 204.034L223.947 204.587L223.453 205.081L222.901 205.516L222.319 205.925L221.65 206.244L220.953 206.505L220.226 206.738L219.441 206.883L218.626 206.971L217.754 207L216.909 206.971L216.097 206.883L215.312 206.738L214.555 206.505L213.858 206.244L213.218 205.925L212.607 205.516L212.056 205.081L211.562 204.587L211.123 204.034L210.745 203.453L210.426 202.784L210.163 202.085L209.99 201.359L209.874 200.545L209.845 199.731V189.611H214.991V199.964L215.021 200.632L215.166 201.214L215.4 201.707L215.718 202.115L216.097 202.434L216.591 202.638L217.142 202.784L217.754 202.842L218.393 202.784L218.945 202.638L219.441 202.434L219.819 202.115L220.138 201.707L220.371 201.214L220.517 200.632L220.546 199.964V189.611H225.691V199.731Z" fill="black"/>
<path fill-rule="evenodd" clip-rule="evenodd" d="M225.924 204.179L225.984 203.685L226.129 203.191L226.418 202.697L226.797 202.231L234.503 193.594H227.03V189.611H237.614L238.371 189.67L239.068 189.814L239.65 190.019L240.144 190.309L240.552 190.687L240.842 191.124L241.016 191.618L241.076 192.171L241.016 192.634L240.871 193.129L240.58 193.624L240.231 194.118L232.641 202.638H241.076V206.71H229.356L228.599 206.68L227.932 206.535L227.32 206.302L226.827 206.011L226.448 205.633L226.157 205.226L225.984 204.732L225.924 204.179Z" fill="black"/>
<path d="M148.589 109.175L138.01 93.4403C135.892 94.0065 133.801 94.7439 131.769 95.7159L144.76 115.022C149.39 119.549 153.802 124.805 157.77 130.717C161.744 136.633 164.996 142.738 167.452 148.747L180.372 167.946C181.953 166.309 183.446 164.734 184.771 162.993L174.22 147.299C169.118 142.058 164.154 136.037 159.657 129.352C155.161 122.656 151.499 115.856 148.589 109.175Z" fill="#004A93"/>
<path d="M157.579 96.0776L155.066 92.3424C152.44 92.0252 149.785 91.9152 147.145 92.0682L153.882 102.083C159.266 107.58 164.901 114.267 170.306 122.309C175.385 129.856 179.461 137.416 182.722 144.944L189.55 155.091C190.676 152.688 191.581 150.201 192.264 147.645L189.649 143.755C183.265 137.246 177.121 129.799 171.487 121.399C165.84 113.014 161.201 104.462 157.579 96.0776Z" fill="#004A93"/>
<path d="M153.564 133.542C149.581 127.619 146.363 121.527 143.904 115.512L130.864 96.1281C128.933 96.9476 127.051 97.9918 125.248 99.2804L140.204 121.504C144.158 125.434 147.935 129.965 151.368 135.044C154.785 140.095 157.551 145.359 159.714 150.498L174.619 172.647C176.401 171.333 178.075 169.999 179.643 168.642L166.639 149.311C161.995 144.766 157.551 139.459 153.564 133.542Z" fill="#004A93"/>
<path d="M153.068 102.587L145.985 92.0509C143.658 92.2395 141.325 92.6035 139.017 93.1665L149.411 108.631C154.39 113.712 159.335 119.884 163.814 126.553C168.291 133.213 172.055 140.013 174.986 146.69L185.382 162.16C186.769 160.228 187.994 158.215 189.053 156.118L181.957 145.564C176.214 139.722 170.758 132.999 165.663 125.429C160.563 117.851 156.356 110.155 153.068 102.587Z" fill="#004A93"/>
<path d="M116.708 154.573L105.334 137.667C105.574 145.61 108.018 153.671 112.829 160.835C117.846 168.274 124.042 173.225 131.547 176.629L120.517 160.236C119.743 159.444 119.023 158.562 118.368 157.596C117.703 156.616 117.15 155.601 116.708 154.573Z" fill="#004A93"/>
<path d="M139.499 122.204L124.441 99.8168C122.627 100.976 120.957 102.326 119.408 103.839L135.589 127.891C139.04 131.159 142.288 134.971 145.194 139.281C148.084 143.577 150.417 148.07 152.154 152.514L168.184 176.34C170.096 175.362 171.96 174.308 173.801 173.201L158.85 150.974C154.943 147.053 151.227 142.466 147.828 137.433C144.437 132.425 141.662 127.283 139.499 122.204Z" fill="#004A93"/>
<path d="M177.827 117.056C175.249 113.216 169.209 103.334 165.462 94.9675C162.516 93.8389 159.467 93.0252 156.364 92.5353L158.4 95.5617C164.782 102.079 170.948 109.586 176.591 117.977C182.202 126.333 186.799 134.782 190.411 143.124L192.591 146.363C193.306 143.293 193.703 140.152 193.758 136.976C191.83 135.472 180.765 121.762 177.827 117.056Z" fill="#004A93"/>
<path d="M182.93 113.634C185.419 117.13 192.673 129.399 193.551 131.775C192.846 124.758 190.456 117.8 186.241 111.541C181.896 105.086 176.143 100.143 169.662 96.8439C169.853 96.9462 170.044 97.0499 170.234 97.157C173.133 100.03 179.79 108.908 182.93 113.634Z" fill="#004A93"/>
<path d="M141.715 141.612C138.837 137.333 136.536 132.91 134.813 128.495L118.691 104.531C117.074 106.002 115.601 107.658 114.294 109.486L131.04 134.378C133.871 137.033 136.533 140.13 138.886 143.633C141.236 147.111 143.065 150.722 144.457 154.321L161.02 178.942C163.132 178.289 165.216 177.568 167.278 176.751L151.306 153.009C147.864 149.739 144.591 145.889 141.715 141.612Z" fill="#004A93"/>
<path d="M124.124 153.594C122.881 151.758 121.923 149.878 121.183 147.974L106.488 126.123C105.72 129.24 105.332 132.509 105.318 135.875L117.641 154.194C118.373 154.956 119.063 155.796 119.687 156.717C120.323 157.658 120.855 158.633 121.289 159.619L133.202 177.33C136.232 178.454 139.413 179.325 142.668 179.921L128.269 158.512C126.763 157.084 125.359 155.443 124.124 153.594Z" fill="#004A93"/>
<path d="M129.968 149.738C128.128 147.376 126.576 143.703 125.738 141.495L109.53 117.397C108.373 119.719 107.47 122.219 106.801 124.846L122.005 147.44C123.481 148.852 124.836 150.452 126.067 152.291C127.301 154.116 128.292 156.008 129.05 157.912L143.977 180.095C146.587 180.344 149.239 180.452 151.905 180.397L136.227 157.088C133.228 154.48 129.968 149.738 129.968 149.738Z" fill="#004A93"/>
<path d="M135.869 145.662C133.528 142.179 131.66 138.576 130.266 134.975L113.684 110.331C112.276 112.165 111.055 114.193 110.015 116.373L126.484 140.85C128.214 142.437 131.113 145.296 132.636 147.928C132.636 147.928 135.845 152.851 137.107 156.639L153.042 180.319C155.367 180.057 157.698 179.679 160.023 179.198L143.686 154.918C140.853 152.255 138.234 149.162 135.869 145.662Z" fill="#004A93"/>
</svg>
