<?xml version="1.0" encoding="UTF-8"?>
<svg width="600" height="210" version="1.1" xmlns="http://www.w3.org/2000/svg">
 <path d="m443.71 142.66v36.285c4.0193-0.11626 11.097 0.55085 14.657-1.2152 6.5604-2.7515 9.0518-9.6801 8.9936-16.65 0.21591-7.0753-2.3944-14.319-9.1763-17.124-3.5404-1.791-10.416-1.2124-14.475-1.2955m-22.928 55.844v-75.318h34.557c9.813-0.0415 18.843 3.1031 25.525 9.6995 6.5078 6.5023 9.6414 15.416 9.6109 24.908v6.2089c0.0415 9.4698-3.1224 18.333-9.5279 24.855-3.0117 3.0532-6.6269 5.4255-10.848 7.1141-4.2242 1.6913-11.396 2.5328-16.498 2.5328zm-158.16-37.965c0-2.8207-0.24636-5.42-0.73909-7.7978s-1.265-4.4207-2.3169-6.1314c-1.0519-1.7135-2.4027-3.0505-4.0498-4.0193-1.6443-0.96609-3.2083-1.4505-5.5501-1.4505-2.3086 0-4.6781 0.48442-6.2393 1.4505-1.5612 0.96884-2.8179 2.3058-3.7674 4.0193-0.95223 1.7107-1.6304 3.7536-2.0373 6.1314-0.40691 2.3778-0.61176 4.9771-0.61176 7.7978v0.35433c0 2.7875 0.20484 5.3729 0.61176 7.748 0.40691 2.3778 1.0851 4.4401 2.0373 6.1812 0.94947 1.7439 2.2062 3.1086 3.7674 4.0885 1.5612 0.98268 3.8975 1.4754 6.2393 1.4754 2.3086 0 3.9058-0.49273 5.5501-1.4754 1.647-0.97992 2.9896-2.3363 4.0248-4.0636 1.0353-1.7273 1.8076-3.7812 2.3169-6.1563 0.50933-2.3778 0.764-4.9771 0.764-7.7978zm21.58 5.8435c0 4.8691-0.79168 9.359-2.375 13.461-1.5834 4.1051-3.8726 7.6372-6.8649 10.594-2.9951 2.9564-6.6435 5.2594-10.942 6.912-4.2989 1.6526-8.6615 2.4802-14.054 2.4802-5.3895 0-10.663-0.82767-14.857-2.4802-4.1909-1.6526-7.7231-3.964-10.588-6.9397-2.865-2.973-5.0491-6.5023-6.5438-10.591-1.4976-4.0885-2.2477-8.5673-2.2477-13.436v-11.061c0-4.8691 0.75016-9.3562 2.2477-13.461 1.4948-4.1051 3.6788-7.6456 6.5438-10.619 2.865-2.973 6.3861-5.2954 10.558-6.9674 4.1716-1.6692 9.4974-2.5024 14.887-2.5024 5.4338 0 9.7549 0.8332 14.054 2.5024 4.2989 1.672 7.9473 3.9944 10.942 6.9674 2.9923 2.973 5.2816 6.5134 6.8649 10.619 1.5834 4.1051 2.375 8.5922 2.375 13.461zm297.54 3.3835h-35.576v9.6912h43.842v19.003h-65.048v-75.321h65.048v18.984h-43.842v9.7106h35.576zm-420.3-84.285 21.768-75.318h-23.471l-12.816 47.423h-3e-3l-12.816-47.423h-23.474l21.771 75.318zm-82.958-55.612h-21.375v55.609l-25.721 3e-3 0.036-55.612h-21.411v-19.706h68.472zm206.64 26.922c0-28.539-42.474-19.164-42.474-19.164l1.7024-7.5874 35.936-0.0443v-19.834l-53.74 0.036-7.8781 44.237c1.6941-0.33771 43.634-9.1542 43.634 2.3363 0 18.461-44.932 4.9494-44.932 4.9466l-3.164 17.763s12.232 6.0013 28.534 6.0013c26.081 0 42.383-10.92 42.383-28.692m81.884 66.349v41.541l-26.092-41.541h-22.809v75.321h19.548v-41.633l26.214 41.633h22.71v-75.321zm-208.66 2e-3 -11.424 21.774-11.418-21.774h-22.815v75.318h19.554v-39.335l8.332 14.228h12.697l8.3321-14.228v39.335h19.554v-75.318z" fill="#0748bc"/>
</svg>
