<svg width="49" height="22" viewBox="0 0 49 22" fill="none" xmlns="http://www.w3.org/2000/svg">
<path fill-rule="evenodd" clip-rule="evenodd" d="M9.58991 0H16.6291C17.6585 0 18.3957 0.738709 18.3957 1.7147C18.3957 2.69069 17.6585 3.4294 16.6291 3.4294H14.8761V8.71228C14.8761 9.8584 14.0894 10.5344 13.1095 10.5344C12.1296 10.5344 11.343 9.85392 11.343 8.71228V3.4294H9.58991C8.56505 3.4294 7.82337 2.69069 7.82337 1.7147C7.82337 0.738709 8.56055 0 9.58991 0ZM21.6589 0C22.3691 0 22.9264 0.376069 23.349 1.20432L26.6438 7.76316C26.8371 8.13923 26.9135 8.45709 26.9135 8.80182C26.9135 9.76438 26.1584 10.53 25.147 10.53C24.4368 10.53 23.8794 10.1539 23.4569 9.32564L20.162 2.7668C19.9687 2.39073 19.8923 2.07286 19.8923 1.72813C19.8923 0.76557 20.6475 0 21.6589 0ZM28.6803 0C27.6689 0 26.8823 0.783479 26.8823 1.79081C26.8823 2.79814 27.6689 3.58162 28.6803 3.58162C29.6917 3.58162 30.4783 2.79814 30.4783 1.79081C30.4783 0.783479 29.6917 0 28.6803 0ZM30.4154 8.7391C30.4154 7.73177 31.202 6.94829 32.2134 6.94829C33.2292 6.94829 34.0114 7.73177 34.0114 8.7391C34.0114 9.74643 33.2247 10.5299 32.2134 10.5299C31.202 10.5299 30.4154 9.74643 30.4154 8.7391ZM40.7359 7.76316L37.441 1.20432C37.0185 0.376069 36.4611 0 35.7509 0C34.7395 0 33.9843 0.76557 33.9843 1.72813C33.9843 2.07286 34.0608 2.39073 34.254 2.7668L37.5489 9.32564C37.9714 10.1539 38.5288 10.53 39.239 10.53C40.2504 10.53 41.0056 9.76438 41.0056 8.80182C41.0056 8.45709 40.9291 8.13923 40.7359 7.76316ZM21.0656 16.9635H21.169C22.3377 16.9635 22.8142 17.5544 22.6029 18.517C22.4097 19.4706 21.6904 20.0078 20.706 20.0078H20.6027C19.4295 20.0078 18.9575 19.4169 19.1508 18.4633C19.362 17.5007 20.0812 16.9635 21.0656 16.9635ZM20.2296 22.0001H20.5442C22.6434 22.0001 24.365 20.8629 24.846 18.62C25.3 16.462 23.9514 14.9622 21.5331 14.9622H21.2185C19.1148 14.9622 17.4247 16.1084 16.9392 18.3424C16.4717 20.5093 17.8112 22.0001 20.2296 22.0001ZM4.73076 14.9623H5.57583C7.59409 14.9623 8.66391 15.8442 8.40319 17.147L8.36723 17.3306H6.10624L6.12422 17.2187C6.18715 16.8023 5.90846 16.5785 4.95102 16.5785H4.6993C3.74186 16.5785 3.51711 16.7172 3.46317 16.9859C3.41822 17.1873 3.53958 17.2903 4.03853 17.3933L6.29952 17.8678C7.61207 18.1454 8.20541 18.8752 7.99415 19.9631C7.73344 21.239 6.69958 22.0001 4.39364 22.0001H3.54857C1.40894 22.0001 0.276195 21.1271 0.536906 19.8153L0.572866 19.6318H2.83386L2.81588 19.7437C2.75295 20.1601 3.08558 20.3839 4.17338 20.3839H4.4251C5.49492 20.3839 5.76462 20.2093 5.80957 19.9586C5.86351 19.7258 5.73315 19.6363 5.10385 19.4975L2.87432 19.014C1.62021 18.7453 1.10777 18.0514 1.31904 16.968C1.57975 15.6831 2.51921 14.9623 4.73076 14.9623ZM11.7611 16.9053L11.4464 18.3872H13.2714C13.8737 18.3872 14.2019 18.1276 14.3052 17.6575C14.4086 17.165 14.1569 16.9053 13.5501 16.9053H11.7611ZM9.93158 15.0071H14.1614C16.1437 15.0071 16.8314 16.1353 16.5123 17.7873C16.1887 19.493 15.0155 20.29 13.2219 20.29H11.0374L10.6823 21.9554H8.45272L9.93158 15.0071ZM28.3566 16.9053L28.0689 18.2395H29.8265C30.4288 18.2395 30.757 17.9977 30.8604 17.5814C30.9637 17.156 30.712 16.9053 30.1052 16.9053H28.3566ZM26.5272 15.0071H30.721C32.7033 15.0071 33.391 16.0995 33.0719 17.6933C32.8561 18.6469 32.2358 19.2602 31.3323 19.5378C31.6964 19.6766 31.9077 19.9273 32.047 20.3079L32.5864 21.7719L32.5505 21.9554H30.1771L29.804 20.769C29.6017 20.1109 29.35 19.9184 28.7162 19.9184H27.7138L27.2778 21.9554H25.0438L26.5272 15.0071ZM33.6966 16.9994L34.1147 15.0071H41.037L40.619 16.9994H38.331L37.2792 21.9554H34.9148L35.9666 16.9994H33.6966ZM44.615 14.9622H45.46C47.4783 14.9622 48.5481 15.8442 48.2874 17.147L48.2514 17.3306H45.9904L46.0084 17.2187C46.0759 16.8023 45.7927 16.5784 44.8352 16.5784H44.5835C43.6261 16.5784 43.4013 16.7172 43.3474 16.9858C43.3024 17.1873 43.4238 17.2903 43.9227 17.3933L46.1837 17.8678C47.4963 18.1454 48.0896 18.8751 47.8784 19.9631C47.6176 21.239 46.5838 22.0001 44.2778 22.0001H43.4328C41.2931 22.0001 40.1604 21.1271 40.4211 19.8153L40.4571 19.6318H42.7181L42.7001 19.7437C42.6372 20.16 42.9698 20.3839 44.0576 20.3839H44.3093C45.3791 20.3839 45.6488 20.2093 45.6938 19.9586C45.7477 19.7258 45.6174 19.6362 44.9881 19.4975L42.7585 19.0139C41.5044 18.7453 40.992 18.0514 41.2033 16.9679C41.464 15.683 42.4034 14.9622 44.615 14.9622Z" fill="black"/>
</svg>
