<?xml version="1.0" standalone="no"?><!-- Generator: Gravit.io --><svg xmlns="http://www.w3.org/2000/svg" xmlns:xlink="http://www.w3.org/1999/xlink" style="isolation:isolate" viewBox="0 0 1024 1024" width="1024" height="1024"><defs><clipPath id="_clipPath_ouUXIigOytzhMTOoxk9H3XjlyMGG7D8J"><rect width="1024" height="1024"/></clipPath></defs><g clip-path="url(#_clipPath_ouUXIigOytzhMTOoxk9H3XjlyMGG7D8J)"><path d=" M 512 1024 C 795 1024 1024 795 1024 512 C 1024 229 795 0 512 0 C 229 0 0 229 0 512 C 0 795 229 1024 512 1024 Z " fill="rgb(34,150,219)"/><path d=" M 138 411 L 138 372 C 138 352 166 354 166 354 L 379 354 C 379 354 421 354 436 388 C 445 406 500 532 507 547 L 595 368 C 595 368 601 353 624 353 C 648 354 672 355 672 355 L 510 670 C 501 669 497 664 489 650 C 484 641 480 634 480 634 L 392 441 C 374 403 353 409 353 409 L 312 408 L 312 669 L 276 669 C 276 669 256 672 250 661 C 248 655 249 642 249 642 L 249 427 C 249 427 249 415 241 412 C 232 409 224 411 224 411 L 138 411 Z " fill="rgb(255,255,255)"/><path d=" M 659 470 L 722 348 L 901 677 L 868 677 C 764 678 758 648 752 637 L 733 603 C 722 578 717 594 717 594 L 673 675 L 557 675 L 606 582 C 617 567 622 554 650 554 L 698 555 C 711 555 703 544 703 544 L 659 470 Z " fill="rgb(253,221,4)"/></g></svg>