<?xml version="1.0" encoding="utf-8"?>
<!-- Generator: Adobe Illustrator 16.0.3, SVG Export Plug-In . SVG Version: 6.00 Build 0)  -->
<!DOCTYPE svg PUBLIC "-//W3C//DTD SVG 1.1//EN" "http://www.w3.org/Graphics/SVG/1.1/DTD/svg11.dtd">
<svg version="1.1" id="Capa_1" xmlns="http://www.w3.org/2000/svg" xmlns:xlink="http://www.w3.org/1999/xlink" x="0px" y="0px"
	 width="1606.245px" height="517.945px" viewBox="-122.549 338.808 1606.245 517.945"
	 enable-background="new -122.549 338.808 1606.245 517.945" xml:space="preserve">
<g>
	<g>
		<path fill="#FE1A3E" d="M561.318,375.425h-0.306c-22.839,0.009-43.193,14.414-50.793,35.951L422.51,659.489l-87.648-248.107
			c-7.604-21.534-27.954-35.939-50.793-35.951H-73.99c-26.823,0.015-48.56,21.764-48.56,48.587v0.167
			c0,26.819,21.741,48.56,48.56,48.56l0,0H41.667V792.18c0,26.818,21.741,48.56,48.56,48.56h0.034
			c26.708,0,48.366-21.639,48.387-48.346V472.734h114.68l118.463,334.99c16.929,47.945,84.778,47.945,101.741,0l131.167-371.008
			C615.282,406.811,593.044,375.425,561.318,375.425z"/>
		<path fill="#FE1A3E" d="M997.675,519.665c-0.848-26.658-9.969-108.902-89.104-142.962c-1.791-0.781-3.583-1.49-5.375-2.199
			c-95.892-36.838-191.147,42.303-191.147,42.303v-40.031h-94.629v461.898h94.608V567.214c0.072-9.533,2.841-56.296,41.733-84.544
			c17.861-12.977,38.044-27.166,73.492-27.166c72.745,0,75.82,75.419,76.026,84.913v298.258h94.374
			C997.675,838.54,997.842,525.039,997.675,519.665z"/>
	</g>
</g>
<linearGradient id="SVGID_1_" gradientUnits="userSpaceOnUse" x1="1041.6021" y1="414.6587" x2="1407.8453" y2="780.902">
	<stop  offset="0.4921" style="stop-color:#FE1A3E"/>
	<stop  offset="0.911" style="stop-color:#D10A82"/>
</linearGradient>
<circle fill="url(#SVGID_1_)" cx="1224.723" cy="597.779" r="258.973"/>
<g>
	<path fill="#FFFFFF" d="M1361.971,671.688c0,71.309-54.308,118.532-144.033,118.532c-42.974,0-87.365-12.277-111.922-30.224
		l36.362-70.835c15.112,11.806,40.142,20.778,64.696,20.778c34.947,0,54.78-15.112,54.78-37.307
		c0-22.668-18.416-36.363-47.224-36.363c-16.055,0-28.807,3.777-41.557,10.861l-25.974-48.641l68.002-82.17h-90.197V436.04h213.453
		v59.976l-64.697,68.946C1327.497,573.935,1361.971,615.02,1361.971,671.688z"/>
</g>
<path fill="#EEFF00" d="M998.565,558.553c0-17.149,12.038-23.973,26.752-15.162l64.081,38.372c14.714,8.811,14.714,23.227,0,32.037
	l-64.081,38.371c-14.714,8.811-26.752,1.987-26.752-15.162V558.553z"/>
</svg>
