<?xml version="1.0" encoding="UTF-8"?>
<svg xmlns="http://www.w3.org/2000/svg" xmlns:xlink="http://www.w3.org/1999/xlink" width="210px" height="150px" viewBox="0 0 210 150" version="1.1">
<g id="surface1">
<path style=" stroke:none;fill-rule:nonzero;fill:rgb(98.823529%,0%,0%);fill-opacity:1;" d="M 96.964844 84.902344 L 130.410156 21.378906 L 106.496094 21.378906 L 87.0625 58.183594 L 73.613281 21.378906 L 44.652344 21.378906 L 48.390625 0.078125 L 42.785156 0.078125 L 23.355469 21.378906 L 3.363281 21.378906 L 0 39.875 L 19.992188 39.875 L 12.144531 84.902344 L 33.441406 84.902344 L 41.476562 39.875 L 58.105469 39.875 L 74.546875 84.902344 Z M 96.964844 84.902344 "/>
<path style=" stroke:none;fill-rule:nonzero;fill:rgb(98.823529%,0%,0%);fill-opacity:1;" d="M 195.054688 84.902344 L 210 0.078125 L 188.515625 0.078125 L 180.105469 48.28125 L 162.917969 0.078125 L 140.683594 0.078125 L 125.738281 84.902344 L 147.222656 84.902344 L 155.632812 36.699219 L 172.820312 84.902344 Z M 195.054688 84.902344 "/>
<path style=" stroke:none;fill-rule:nonzero;fill:rgb(100%,35.294118%,50.196078%);fill-opacity:1;" d="M 22.046875 120.398438 C 13.824219 118.34375 10.648438 116.289062 10.648438 113.300781 C 10.648438 108.441406 13.824219 106.574219 19.804688 106.574219 C 28.023438 106.574219 32.695312 111.433594 32.882812 111.621094 L 35.683594 108.441406 L 38.488281 105.453125 C 38.113281 105.265625 31.386719 98.914062 19.804688 98.914062 C 6.914062 98.914062 2.242188 106.386719 2.242188 113.300781 C 2.242188 123.949219 14.574219 126.753906 20.363281 128.246094 C 27.839844 130.117188 31.386719 132.359375 31.386719 135.90625 C 31.386719 137.777344 31.015625 141.511719 21.113281 141.511719 C 12.332031 141.511719 5.605469 135.71875 5.417969 135.71875 L 0 142.261719 C 0.375 142.632812 9.15625 150.105469 21.113281 150.105469 C 37.554688 150.105469 39.796875 140.578125 39.796875 136.09375 C 39.796875 125.445312 28.773438 121.707031 22.046875 120.398438 Z M 22.046875 120.398438 "/>
<path style=" stroke:none;fill-rule:nonzero;fill:rgb(100%,35.294118%,50.196078%);fill-opacity:1;" d="M 116.957031 98.914062 C 102.945312 98.914062 91.359375 110.3125 91.359375 124.511719 C 91.359375 138.523438 102.757812 150.105469 116.957031 150.105469 C 130.96875 150.105469 142.554688 138.710938 142.554688 124.511719 C 142.367188 110.3125 130.96875 98.914062 116.957031 98.914062 Z M 116.957031 142.074219 C 107.242188 142.074219 99.394531 134.226562 99.394531 124.511719 C 99.394531 114.796875 107.242188 106.949219 116.957031 106.949219 C 126.671875 106.949219 134.519531 114.796875 134.519531 124.511719 C 134.519531 134.226562 126.671875 142.074219 116.957031 142.074219 Z M 116.957031 142.074219 "/>
<path style=" stroke:none;fill-rule:nonzero;fill:rgb(100%,35.294118%,50.196078%);fill-opacity:1;" d="M 76.601562 100.035156 L 76.601562 120.398438 L 54.929688 120.398438 L 54.929688 100.035156 L 46.707031 100.035156 L 46.707031 149.359375 L 54.929688 149.359375 L 54.929688 128.246094 L 76.601562 128.246094 L 76.601562 149.359375 L 84.636719 149.359375 L 84.636719 100.035156 Z M 76.601562 100.035156 "/>
<path style=" stroke:none;fill-rule:nonzero;fill:rgb(100%,35.294118%,50.196078%);fill-opacity:1;" d="M 197.855469 100.035156 L 187.765625 133.664062 L 178.613281 100.035156 L 170.765625 100.035156 L 161.609375 133.664062 L 151.519531 100.035156 L 143.300781 100.035156 L 157.3125 146.742188 L 158.058594 149.359375 L 164.785156 149.359375 L 174.6875 113.859375 L 183.84375 146.742188 L 184.589844 149.359375 L 191.316406 149.359375 L 192.0625 146.742188 L 206.078125 100.035156 Z M 197.855469 100.035156 "/>
</g>
</svg>
