<?xml version="1.0" encoding="utf-8"?>
<!-- Generator: Adobe Illustrator 24.3.0, SVG Export Plug-In . SVG Version: 6.00 Build 0)  -->
<svg version="1.1" id="Layer_1" xmlns="http://www.w3.org/2000/svg" xmlns:xlink="http://www.w3.org/1999/xlink" x="0px" y="0px"
	 viewBox="0 0 220.4 220.4" style="enable-background:new 0 0 220.4 220.4;" xml:space="preserve">
<style type="text/css">
	.st0{fill:#FB161A;}
</style>
<g>
	<path class="st0" d="M134.23,69.84c-4.31-1.7-9.28,0.65-10.85,5.1l-15.95,43.93L91.34,74.94c0,0-0.13-0.13-0.13-0.26
		c-0.13-0.26-0.26-0.65-0.39-0.78c-0.13-0.26-0.26-0.52-0.39-0.65c-0.13-0.13-0.26-0.39-0.52-0.65c-0.26-0.26-0.39-0.52-0.65-0.65
		c-0.26-0.13-0.39-0.39-0.65-0.52c-0.26-0.26-0.52-0.39-0.65-0.65c-0.26-0.13-0.39-0.26-0.65-0.39c-0.26-0.13-0.52-0.39-0.78-0.52
		c-0.26-0.13-0.52-0.13-0.65-0.26c-0.39-0.13-0.65-0.26-0.91-0.26c-0.13,0.13-0.13,0.13-0.39,0.13c-0.39,0-0.65-0.13-1.05-0.13
		h-0.13h-64.2c-4.71,0-8.5,3.79-8.5,8.5c0,4.71,3.79,8.5,8.5,8.5h20.79v57.27c0,4.71,3.92,8.5,8.5,8.5s8.5-3.92,8.5-8.5V86.44h20.4
		l21.84,60.28c1.7,4.45,6.54,6.67,10.85,5.1c0.26-0.13,0.52-0.26,0.65-0.39c0,0,0.13,0,0.13-0.13c0.39-0.13,0.65-0.52,1.18-0.65
		c0.13-0.13,0.39-0.26,0.52-0.39c0.26-0.13,0.52-0.39,0.65-0.65c0.26-0.26,0.65-0.52,0.65-0.78c0-0.13,0.13-0.13,0.26-0.26
		c0.52-0.65,0.78-1.31,1.18-2.09l23.8-65.77C141.03,76.38,138.67,71.41,134.23,69.84"/>
	<path class="st0" d="M142.2,69.71v82.37h17v-45.89c0,0-1.05-17.78,14.64-21.57c0,0,17.91-5.75,18.83,13.6v53.87h17V98.74
		c0,0,1.83-21.31-13.99-27.98c0,0-21.84-9.41-37.13,7.06v-7.98H142.2V69.71z"/>
</g>
</svg>
