<svg id="e45957ba-23f9-4e97-abe5-9d8fe76568fa" data-name="Warstwa 2" xmlns="http://www.w3.org/2000/svg" viewBox="0 0 100 44"><defs><style>.a1f50f59-e245-4145-8e96-0f255037a757{fill:#fff;}.a6b7a9f2-6915-4361-8512-e307d9f72cfa{fill:#db2b26;fill-rule:evenodd;}</style></defs><title>logotypy</title><rect class="a1f50f59-e245-4145-8e96-0f255037a757" width="100" height="44"/><g id="a98b7f63-9a8d-48a5-99fa-54f5f9b923f4" data-name="Warstwa_1"><g id="e1b97128-d945-421c-81ae-b741cb83f8ae" data-name=" 291207056"><path id="bb5ff496-6aa9-4785-ba07-3d6ea3e87bda" data-name=" 291206888" class="a6b7a9f2-6915-4361-8512-e307d9f72cfa" d="M39.31971,9.28746V18.1629h6.732V9.28746h-6.732Zm5.71621,2.63782h-1.7v4.861H42.04821v-4.861h-1.683V10.74107h4.6707v1.18421Z"/><path id="e3d0d388-53d0-4e1e-9761-362eb917087a" data-name=" 291208640" class="a6b7a9f2-6915-4361-8512-e307d9f72cfa" d="M46.54893,9.28746V18.1629h6.69373V9.28746H46.54893Zm4.76422,1.38519h1.35149l-2.771,6.30174-2.75824-6.30174h1.33876l1.36851,3.18081.051.20094.04253-.20094,1.377-3.18081Z"/><polygon id="acbe2222-4b77-46ba-ba2c-bb3d7bd2fab5" data-name=" 291209120" class="a6b7a9f2-6915-4361-8512-e307d9f72cfa" points="56.842 11.925 56.401 11.925 56.401 13.824 56.787 13.824 56.868 13.824 56.949 13.815 57.025 13.806 57.097 13.798 57.191 13.785 57.276 13.764 57.361 13.738 57.438 13.708 57.51 13.674 57.578 13.631 57.637 13.584 57.693 13.529 57.743 13.469 57.79 13.405 57.828 13.328 57.862 13.251 57.892 13.161 57.913 13.067 57.93 12.964 57.939 12.857 57.93 12.746 57.913 12.644 57.892 12.55 57.867 12.464 57.833 12.387 57.799 12.314 57.752 12.25 57.705 12.19 57.65 12.139 57.586 12.092 57.522 12.054 57.45 12.019 57.37 11.994 57.284 11.968 57.195 11.951 57.097 11.938 57.038 11.934 56.974 11.93 56.91 11.925 56.842 11.925"/><path id="a08b3c73-f64d-4c97-84ae-028dfa06ff5e" data-name=" 291210512" class="a6b7a9f2-6915-4361-8512-e307d9f72cfa" d="M57.0974,6.5H34.91665V21.16416H64.87488V6.5H57.0974Zm3.85474,12.1076H38.83944V8.8557h22.1127v9.7519Z"/><path id="faf08e2b-887f-42c8-abb1-6dd21931edad" data-name=" 291210176" class="a6b7a9f2-6915-4361-8512-e307d9f72cfa" d="M53.73582,9.28746V18.1629h6.73625V9.28746H53.73582Zm5.36779,3.52711v.08974l-.00852.09409-.00849.08978-.01277.08981-.017.08975-.02123.08978-.02554.08554-.02975.08547-.034.08551-.034.08547-.04249.08555-.04248.08124-.051.07693-.051.077-.05529.077-.06375.07266-.0637.07267-.06806.06839-.0722.06416-.07655.06412-.08069.05985-.085.05986-.085.05127-.09353.05135-.0977.047-.09774.04274-.10627.04281-.11054.03419-.11047.02989-.11475.02993-.12324.02135-.12325.02142-.102.00854h-.10626l-.11055.00431h-.36548v1.84262H55.19784V10.74108h1.67029l.08072.00427h.07651l.07224.00854.12324.01708.119.01712.11475.02139.11475.03.10627.02989.102.0385.102.03843.09777.047.08925.04705.08925.05131.085.05558.08076.05555.07648.06412.07227.06416.068.06839.06374.0684.0595.0727.0595.07266.051.077.051.08124.04249.07693.04252.08555.03824.08124.034.08547.02975.08551.02554.08978.02122.08977.017.08975.01278.08981.00848.08978.00853.08978v.08978Z"/><path id="b95927f7-12f4-490d-8585-3b2417284efd" data-name=" 291210224" class="a6b7a9f2-6915-4361-8512-e307d9f72cfa" d="M21.63548,27.91056l-.06374-.047-.068-.04277-.068-.047-.068-.0385-.07223-.04274L21.219,27.654l-.07651-.0342-.07648-.0385-.1658-.06408-.17-.06416-.18274-.05559-.187-.047-.19972-.04274-.204-.0385-.21253-.0342-.22523-.02565-.2295-.02135-.24224-.01285-.24649-.00854-.255-.00423H16v9.95708h2.363V33.477l.085.0085.10626.00431h.49725l.221-.01281.21681-.01716.20817-.02562.20408-.02992.19544-.03851.19127-.04273.187-.05559.08929-.02565.08924-.0342.085-.02992.085-.0342.085-.0342.08075-.0385.085-.03847.07648-.04273.08076-.04274L21.304,32.904l.07647-.047.07227-.047.07224-.05132.07227-.05127.068-.05135.068-.05555.06371-.05558.06378-.05985.05946-.05986.05953-.05989.0595-.05985.05522-.06412.05105-.05985.051-.0684.051-.06412.04676-.06839.04249-.06839.04248-.06847.04252-.06839.03824-.07262.034-.0727.034-.0727.034-.07693.02979-.077.02971-.077.02554-.07694.02123-.08124.02126-.08124.02122-.08124.017-.08124.017-.08547.01277-.08551.01274-.08554.00849-.08974.01277-.17956.00428-.18383v-.08978l-.00428-.08981-.00421-.08548-.00856-.0855-.0127-.08551-.01273-.08551-.01277-.08124-.017-.08551-.02126-.07693-.02122-.08124-.02126-.07693-.02551-.08124-.02971-.0727-.02979-.07694-.034-.0727-.034-.07266-.0382-.0727-.03828-.06839-.04248-.06839-.04673-.0684-.04676-.06839-.04677-.06416-.051-.06412-.05525-.06416-.05522-.06412-.05526-.05986-.05949-.05985-.06379-.05985-.06374-.05559-.068-.05985-.068-.05558-.07227-.05128Zm-2.839,3.74083H18.363V28.99218h.442l.11475.00427.11055.00857.11047.00854.102.00854.102.01712.09778.01708.09345.01712.08929.02139.085.02565.08076.02562.07652.03.07651.02989.068.0342.068.0385.06374.03851.05529.04273.05522.047.051.047.05105.047.04248.05558.03824.05124.03824.05989.02979.05985.02971.06412.0255.06416.02126.0684.017.06839.01277.0727.00849.07693.00421.07693.00428.08124-.00428.08124-.00421.08124-.00849.077-.01277.07693-.017.0727-.017.06843-.02551.06839-.0255.06409-.02975.05989-.034.05985-.03827.05985-.04249.05128-.04252.05135-.051.05127-.05105.04277-.05521.047-.05954.0385-.05942.03851-.06807.0342-.068.03419-.07648.02993-.07652.02992-.08072.02562-.08076.02143-.08924.01708-.0935.01711-.09353.01708-.0977.01285-.10205.00854-.10623.00427-.11051.00431-.11051.00423Z"/><path id="f42dca3e-54b3-45ca-ae9e-42a374569695" data-name=" 291210488" class="a6b7a9f2-6915-4361-8512-e307d9f72cfa" d="M33.19119,28.35089l-.09349-.08978-.09353-.08978-.0977-.08974-.09353-.08554-.09777-.08124-.102-.07693-.09773-.0727-.102-.07263-.102-.0727-.10626-.06416-.102-.06412-.10626-.05985-.10627-.05986-.11047-.05558-.11047-.05128-.11055-.047-.11047-.047-.11475-.04274-.11476-.0385-.11475-.03851-.119-.03419-.119-.02989-.119-.03-.119-.02138-.12324-.02566-.12324-.01708-.12324-.01712-.12749-.01277-.12752-.00861L29.8762,26.846l-.12753-.00427L29.617,26.8375l-.13181.00423-.12748.00427-.12753.00854-.12745.00861-.12748.01277-.12332.01712-.1232.01708-.119.02142-.12328.02562-.119.03-.11475.02989-.119.03419-.11475.03851-.11476.0385-.11047.04274-.11475.04273-.10626.05131-.11048.05128-.11054.05558-.10619.05562-.102.05982-.10626.06416-.102.06408-.102.0684-.102.0727-.09777.07693-.0977.077-.09778.08124-.09353.08548-.09349.0855-.09346.08978-.09353.09409-.08921.094-.08932.09832-.085.10259-.085.10258-.08076.10263-.07648.10263-.07647.10686-.068.10689-.07227.1069-.06378.11113-.06375.11116-.05949.11117-.05526.11543-.05522.11544-.051.11543-.04677.11544-.04673.11967-.04248.124-.03827.11971-.03821.12393-.034.12405-.02975.12825-.02546.12821-.02551.12828-.02126.12824-.0213.13259-.017.13248-.01273.13682-.00849.13255-.00849.13679-.00428.14113v.27787l.00428.13683.00849.13678.00849.13682.01273.13255.017.13252.017.13255.02126.12821.0255.12824.02975.12405.02975.12821.034.124.034.11967.0382.124.04252.11971.04677.11971.04676.11543.051.11544.051.11543.05954.11113.05942.11116.05954.11117.068.11112.068.1069.068.10263.07655.10689.07648.10259.08076.10263.08076.09828.085.10263.08928.09835.08925.09405.09349.094.09353.094.0977.08555.09778.08551.09773.08547.09774.077.102.07693.09774.0727.10626.07266.102.06416.10626.06408.10623.06416.10626.05559.10626.05554.11047.05559.11051.047.11472.047.11054.04274.11476.04281.11475.0342.119.03419.11475.0342.119.02562.12324.02566.119.02565.12324.01708.12324.01712.12749.01285.12324.01285.12753.00423.12748.0043.13181.00427.14446-.00427.14875-.0043.14454-.01285.14018-.01277.14454-.01712.14022-.02566.14026-.02562.14026-.03.14026-.0385.14022-.03843.13605-.04274.136-.047.136-.05562.13174-.05558.136-.05986.13173-.06408.13177-.06843.12745-.0727.12331-.07693L32.354,36.615l.1232-.08124.11476-.0855.11475-.08978.11475-.09405.11051-.09409.10626-.09828.10627-.10263.102-.1069.102-.10689.09353-.11544.0977-.11543.09353-.11967.0595-.08551.06375-.08978.05949-.08977.05522-.08982.05533-.08978.05522-.08974.051-.09409.051-.09405.04677-.09408.04676-.094.04248-.09836.04249-.09828.03827-.09836.03828-.09832.034-.09836.034-.10262.02971-.10259.02979-.10259.02546-.1069.02551-.10262.0255-.1069.02126-.10682.017-.1112.017-.10682.02971-.22234.0213-.22663.01269-.23088.00428-.23079-.00428-.14109-.0042-.14114-.00428-.14109-.01274-.13678-.01277-.13252-.0127-.13686-.02129-.13251-.02123-.13255-.02546-.12821-.02551-.12824-.02978-.12405-.034-.12821-.03824-.124-.03824-.11967-.04248-.11975-.04256-.1197L34.2494,29.937l-.051-.11539-.05522-.11544L34.088,29.595l-.0595-.11116-.0595-.11117-.068-.11116-.068-.10686-.068-.10259-.07227-.1069-.07647-.10262-.08076-.09836-.08076-.10259-.085-.09832-.08924-.094-.08925-.09836Zm-1.717,5.98968-.09349.1069-.09781.09828-.102.08978-.102.08555-.10626.07693-.11051.0727-.11471.06408-.11476.05563-.11475.05127-.12324.04274-.12325.0385-.12327.02989-.12753.02569-.13173.01281-.136.01285-.136.00427-.136-.00427-.13605-.01285-.13174-.01708-.12748-.02142-.12324-.02989-.12325-.0385-.12328-.04274-.11475-.05127-.11475-.05986-.11476-.06416-.10619-.07266-.10626-.077L28.053,34.6313l-.102-.09409-.0977-.09836-.09353-.10682-.09349-.1112-.085-.11113L27.50042,33.99l-.0722-.11967-.068-.124-.06378-.12821-.05525-.13259-.051-.13678-.04249-.13678-.03823-.14113-.034-.14533L27.05,32.77583l-.02126-.14963L27.016,32.468l-.00852-.15817-.00425-.16248.00425-.16248.00852-.15817.01274-.15817.02126-.1539.02546-.14963.034-.14536.03823-.1454.04249-.13679.051-.13678.05525-.13259.06378-.12821.068-.124.0722-.124.08075-.11543.085-.11544.09349-.11113.09353-.10689.0977-.09832.102-.08982.10626-.08547.10626-.08124.10619-.06839.11476-.06839.11475-.05559.11475-.05131.12328-.047.12325-.0342.12324-.0342.12748-.02138.13174-.01712.13605-.01281h.272l.136.01281.13173.01712.12753.02138.12327.0342.12325.0342.12324.047.11475.05131.11476.05559.11471.06839.11051.06839.10626.08124.102.08547.102.08982.09781.09832.09349.10689.09346.11113.085.11544.08076.11543.07227.124.068.124.06375.12821.05525.13259.051.13678.04248.13679.03828.1454.034.14536.02551.14963.02126.1539.01694.15817.00856.15817.00421.16248-.00421.16675-.00856.15817-.01694.15817-.02126.15393-.02551.14964-.034.14532-.03828.14109-.04248.13683-.051.13678-.05525.13259-.06375.12824-.068.124-.07227.11974-.08076.11967-.085.11117-.09346.11116Z"/><polygon id="a19e8ec5-83c6-4278-9907-776b85322f85" data-name=" 291210200" class="a6b7a9f2-6915-4361-8512-e307d9f72cfa" points="43.387 37.119 37.165 37.119 37.165 27.162 39.528 27.162 39.528 34.982 43.387 34.982 43.387 37.119"/><path id="aa3c189d-8882-4b2f-a3ac-cb1f733441c4" data-name=" 291211064" class="a6b7a9f2-6915-4361-8512-e307d9f72cfa" d="M53.29368,28.35089l-.09353-.08978-.09349-.08978-.0935-.08974-.09773-.08554-.09778-.08124-.09774-.07693-.102-.0727-.09778-.07263-.10626-.0727-.102-.06416-.10619-.06412-.10626-.05985-.10626-.05986-.10627-.05558-.11047-.05128-.11051-.047-.11475-.047-.11475-.04274-.11471-.0385-.11476-.03851-.11475-.03419-.119-.02989-.119-.03-.1232-.02138-.119-.02566-.12328-.01708-.12749-.01712-.12324-.01277-.12753-.00861L49.9829,26.846l-.12745-.00427-.13181-.00423-.13169.00423-.12752.00427-.12749.00854-.12752.00861-.12749.01277-.12324.01712-.12325.01708-.12328.02142-.119.02562-.119.03-.119.02989-.11476.03419-.11475.03851-.11475.0385-.11475.04274-.11054.04273-.11048.05131-.11047.05128-.10626.05558-.10626.05562-.10627.05982-.102.06416-.102.06408-.102.0684-.102.0727-.09778.07693-.0977.077-.09774.08124-.09353.08548-.09349.0855-.09349.08978-.09353.09409-.08925.094-.08921.09832-.08925.10259-.08076.10258-.08076.10263-.08072.10263-.07227.10686-.07227.10689-.068.1069-.068.11113-.0595.11116-.05946.11117-.0595.11543-.05526.11544-.051.11543-.04676.11544-.04676.11967-.04249.124-.03824.11971-.034.12393-.034.12405-.034.12825-.0255.12821-.02547.12828-.0213.12824-.02122.13259-.01277.13248-.01274.13682-.01273.13255-.00853.13679-.00421.14113v.27787l.00421.13683.00853.13678.01273.13682.01274.13255.01277.13252.02122.13255.0213.12821.02547.12824.0255.12405.02979.12821.034.124.03824.11967.03824.124.04248.11971.04249.11971.051.11543.04673.11544.05525.11543.05526.11113.0595.11116.06378.11117.06374.11112.068.1069.07227.10263.07219.10689.07655.10259.08076.10263.08073.09828.08924.10263.085.09835.09353.09405.09349.094.0935.094.09353.08555.09774.08551.09777.08547.102.077.09774.07693.102.0727.102.07266.10626.06416.102.06408.10626.06416.11047.05559.10627.05554.11047.05559.11054.047.11047.047.11476.04274.11475.04281.11475.0342.119.03419.11475.0342.119.02562.12328.02566.119.02565.12324.01708.12328.01712.12324.01285.12753.01285.12748.00423.12753.0043.13169.00427.1445-.00427.14454-.0043.14447-.01285.14454-.01277.14446-.01712.14026-.02566.14026-.02562.14022-.03.14026-.0385.136-.03843.136-.04274.136-.047.136-.05562.136-.05558.13174-.05986.13176-.06408.13173-.06843.12749-.0727.12752-.07693.12321-.07694.119-.08124.119-.0855.11475-.08978.11054-.09405.11047-.09409.11055-.09828.102-.10263.102-.1069.102-.10689.0977-.11544.09354-.11543.09349-.11967.06374-.08551.0595-.08978.0595-.08977.05954-.08982.05522-.08978.05525-.08974.051-.09409.04677-.09405.04676-.09408.04677-.094.04248-.09836.04248-.09828.03824-.09836.03824-.09832.034-.09836.034-.10262.034-.10259.02971-.10259.0255-.1069.02547-.10262.0213-.1069.02122-.10682.02126-.1112.017-.10682.02979-.22234.01694-.22663.01277-.23088.00428-.23079V32.002l-.00428-.14114-.00849-.14109-.00849-.13678-.01273-.13252-.017-.13686-.02123-.13251-.02126-.13255-.02122-.12821-.02979-.12824-.02974-.12405-.034-.12821-.034-.124-.03828-.11967-.04248-.11975-.04673-.1197-.04676-.11971-.051-.11539-.051-.11544-.05525-.11117-.0595-.11116-.06375-.11117-.06378-.11116-.068-.10686-.0722-.10259-.07227-.1069-.07655-.10262-.07648-.09836-.085-.10259-.085-.09832-.085-.094-.09345-.09836Zm-1.71277,5.98968-.09353.1069-.0977.09828-.102.08978-.10626.08555-.10627.07693-.11047.0727-.11054.06408-.11472.05563-.119.05127-.119.04274-.12325.0385-.12324.02989-.13177.02569-.13173.01281-.13176.01285-.136.00427-.136-.00427-.136-.01285-.1318-.01708-.12749-.02142-.12745-.02989-.12332-.0385-.119-.04274-.119-.05127-.11475-.05986-.11051-.06416-.1105-.07266-.10623-.077-.102-.08547-.10206-.09409-.09774-.09836-.0977-.10682-.08928-.1112-.085-.11113L47.60719,33.99l-.07227-.11967-.068-.124-.06375-.12821-.05529-.13259-.051-.13678-.04248-.13678-.03828-.14113-.034-.14533-.0255-.14963-.02126-.14963-.017-.15821-.00848-.15817v-.325l.00848-.15817.017-.15817.02126-.1539.0255-.14963.034-.14536.03828-.1454.04248-.13679.051-.13678.05529-.13259.06375-.12821.068-.124.07227-.124.08072-.11543.085-.11544.08928-.11113.0977-.10689.09774-.09832.10206-.08982.102-.08547.10623-.08124.1105-.06839.11051-.06839.11475-.05559.119-.05131.119-.047.12332-.0342.12745-.0342.12749-.02138.1318-.01712.136-.01281h.272l.13176.01281.13173.01712.13177.02138.12324.0342.12325.0342.119.047.119.05131.11472.05559.11054.06839.11047.06839.10627.08124.10626.08547.102.08982.0977.09832.09353.10689.0935.11113.085.11544.08076.11543.07227.124.068.124.06378.12821.05525.13259.051.13678.04252.13679.03823.1454.034.14536.0255.14963.02123.1539.01277.15817.00849.15817.00428.16248-.00428.16675-.00849.15817-.01277.15817-.02123.15393-.0255.14964-.034.14532-.03823.14109-.04252.13683-.051.13678-.05525.13259-.06378.12824-.068.124-.07227.11974-.08076.11967-.085.11117-.0935.11116Z"/><polygon id="f26aee7b-442a-4db6-bfc2-4966eb623288" data-name=" 291211112" class="a6b7a9f2-6915-4361-8512-e307d9f72cfa" points="65.797 37.5 65.589 37.5 59.405 31.69 59.405 37.119 57.225 37.119 57.225 26.842 57.45 26.842 63.617 32.648 63.617 27.162 65.797 27.162 65.797 37.5"/><polygon id="f2975c0b-daca-405f-867c-a00c8d5c0d58" data-name=" 291211136" class="a6b7a9f2-6915-4361-8512-e307d9f72cfa" points="71.615 37.119 69.252 37.119 69.252 27.162 71.615 27.162 71.615 37.119"/><path id="aadaa505-61c1-4ecb-ae04-fe7283018c37" data-name=" 291211208" class="a6b7a9f2-6915-4361-8512-e307d9f72cfa" d="M79.06576,26.85453h-.15727l-5.04472,10.265h2.37571l.64175-1.44508h4.012l.63326,1.44507H84l-4.93425-10.265Zm-1.50024,7.10126,1.3175-3.12092,1.28351,3.12092Z"/></g></g></svg>