<svg xmlns="http://www.w3.org/2000/svg" width="88" height="50" viewBox="0 0 88 50">
    <g fill="#304c94" fill-rule="evenodd">
        <path d="M17.307 38.893L12.99 49.576h-.16l-2.218-5.918-2.173 5.918h-.19L3.903 38.893h2.51l2.026 5.584 2.173-5.918h.19l2.188 5.918 1.999-5.584h2.318M26.171 49.242h-2.598l-.661-1.503h-4.214l-.675 1.503h-2.498l5.302-10.671h.161l5.183 10.67zm-4.024-3.283l-1.35-3.243-1.378 3.243h2.728zM35.647 49.242h-2.835l-2.775-4.062h-.353v4.062h-2.407V38.898h2.67c1.48 0 2.56.244 3.246.73.812.586 1.22 1.355 1.22 2.308 0 1.345-.648 2.3-1.94 2.863l3.174 4.443zm-3.514-7.057c0-.506-.164-.866-.491-1.081-.327-.214-.844-.32-1.546-.32h-.41v2.863h.527c1.28 0 1.92-.488 1.92-1.462zM43.13 46.201c0 .995-.338 1.798-1.013 2.41-.685.644-1.61.965-2.774.965-.765 0-1.684-.166-2.76-.495l-.206-2.763c1.154.7 2.13 1.052 2.932 1.052.44 0 .786-.098 1.04-.286.256-.191.382-.432.382-.725 0-.319-.156-.603-.469-.845-.155-.127-.576-.386-1.26-.775l-.702-.394c-1.338-.75-2.007-1.732-2.007-2.95 0-.826.31-1.51.932-2.044.62-.535 1.438-.804 2.456-.804.722 0 1.598.175 2.624.527v2.424c-1.046-.654-1.903-.982-2.566-.982-.755 0-1.132.279-1.132.834 0 .36.24.672.72.935l1.218.671c.882.489 1.504.926 1.865 1.316.48.526.72 1.169.72 1.93M52.792 47.045l-.395 2.197h-8.782l5.17-8.188h-4.64l.395-2.161h8.252l-5.155 8.152h5.155M63.556 49.242h-2.6l-.66-1.503h-4.214l-.676 1.503H52.91l5.3-10.671h.16l5.185 10.67zm-4.023-3.283l-1.352-3.243-1.38 3.243h2.732zM75.25 38.893l-4.318 10.683h-.16l-2.218-5.918-2.173 5.918h-.191l-4.346-10.683h2.51l2.027 5.584 2.173-5.918h.19l2.188 5.918 1.997-5.584h2.32M84.412 49.242h-2.598l-.66-1.503H76.94l-.677 1.503h-2.495l5.3-10.671h.161l5.183 10.67zm-4.022-3.283l-1.35-3.243-1.382 3.243h2.732zM0 32.866h87.309V0H0v32.866zm23.003-20.482V9.512H12.377v2.872h3.727v10.692h3.171V12.384h3.728zm10.99 3.968l2.964-6.983h3.37l-6.332 14.34-6.335-14.34h3.33l3.003 6.983zM45.806 9.51v13.567h3.009v-4.041l.432.015.667-.028.626-.081.585-.127.542-.173.497-.215.458-.253.415-.288.372-.323.329-.348.285-.375.242-.395.201-.41.156-.426.113-.438.07-.442.027-.447-.016-.448-.06-.443-.102-.435-.144-.429-.185-.41-.232-.397-.27-.37-.316-.35-.355-.325-.4-.288-.44-.254-.482-.214-.524-.174-.563-.13-.603-.077-.644-.028h-3.69zm3.005 2.873h.817l.275.01.253.022.235.034.214.049.195.058.181.075.158.087.142.102.127.117.111.133.1.152.083.172.07.194.058.218.042.24.027.253-.025.264-.044.247-.06.221-.079.2-.093.176-.106.153-.122.14-.138.118-.158.104-.172.087-.19.074-.207.063-.224.048-.244.034-.262.02-.276.015h-.688v-3.88zM10.238 25.918h14.904V6.454H10.238v19.464zm16.305 0h14.9V6.454h-14.9v19.464zM8.845 27.199h50.291V5.17H8.845V27.2zm33.994-1.281h14.903V6.454H42.839v19.464zm37.639-5.54c0-2.91-1.477-4.744-4.246-5.204 2.245-.673 3.385-2.478 3.385-4.68 0-3.369-2.616-5.635-7.228-5.635-5.077 0-7.937 2.419-8.028 6.46h5.319c0-1.5 1.03-2.356 2.43-2.334 1.385.02 2.384.897 2.43 2.242.104 2.978-1.54 3.52-2.677 4.088 1.242.759 3.158 1.025 3.168 4.91.004 1.584-1.014 2.754-2.859 2.754-1.75 0-2.676-1.01-2.676-2.907v-.367h-5.567v.306c0 4.59 3.228 7.533 8.335 7.533 4.86 0 8.214-2.91 8.214-7.165z"/>
    </g>
</svg>
