<svg id="a42a406f-97b2-4ff0-98b0-d0406ee7d742" data-name="Warstwa 2" xmlns="http://www.w3.org/2000/svg" viewBox="0 0 100 44"><defs><style>.b083a08a-a5e7-466f-b289-984d35e1b2ff,.bdecb3b6-9123-40af-868f-257887965b9a{fill:#fff;}.b2b121d3-7fea-4787-a2fa-f1a9ceb2f063{fill:#72166b;}.b2b121d3-7fea-4787-a2fa-f1a9ceb2f063,.bdecb3b6-9123-40af-868f-257887965b9a{fill-rule:evenodd;}</style></defs><title>logotypy</title><rect class="b083a08a-a5e7-466f-b289-984d35e1b2ff" width="100" height="44"/><polygon class="b2b121d3-7fea-4787-a2fa-f1a9ceb2f063" points="35.821 22.442 64.179 22.442 64.179 9 35.821 9 35.821 22.442"/><polygon class="b2b121d3-7fea-4787-a2fa-f1a9ceb2f063" points="49.193 27.492 49.244 27.492 49.291 27.488 49.339 27.48 49.386 27.472 49.433 27.464 49.476 27.449 49.52 27.437 49.563 27.417 49.606 27.397 49.65 27.377 49.689 27.353 49.728 27.33 49.764 27.302 49.799 27.274 49.835 27.242 49.866 27.211 49.898 27.179 49.929 27.143 49.957 27.108 49.984 27.072 50.008 27.032 50.032 26.993 50.051 26.949 50.071 26.909 50.087 26.866 50.102 26.818 50.118 26.775 50.126 26.727 50.134 26.679 50.142 26.632 50.146 26.584 50.146 26.533 50.146 26.485 50.142 26.438 50.134 26.39 50.126 26.343 50.118 26.295 50.102 26.251 50.087 26.204 50.071 26.16 50.051 26.121 50.032 26.077 50.008 26.037 49.984 25.998 49.957 25.962 49.929 25.926 49.898 25.891 49.866 25.855 49.835 25.823 49.799 25.796 49.764 25.768 49.728 25.74 49.689 25.716 49.65 25.692 49.606 25.669 49.563 25.653 49.52 25.633 49.476 25.621 49.433 25.605 49.386 25.597 49.339 25.585 49.291 25.581 49.244 25.578 49.193 25.578 49.146 25.578 49.098 25.581 49.051 25.585 49.004 25.597 48.957 25.605 48.909 25.621 48.866 25.633 48.823 25.653 48.783 25.669 48.74 25.692 48.701 25.716 48.661 25.74 48.626 25.768 48.59 25.796 48.555 25.823 48.52 25.855 48.488 25.891 48.461 25.926 48.433 25.962 48.405 25.998 48.382 26.037 48.358 26.077 48.334 26.121 48.319 26.16 48.299 26.204 48.283 26.251 48.272 26.295 48.26 26.343 48.252 26.39 48.248 26.438 48.244 26.485 48.244 26.533 48.244 26.584 48.248 26.632 48.252 26.679 48.26 26.727 48.272 26.775 48.283 26.818 48.299 26.866 48.319 26.909 48.334 26.949 48.358 26.993 48.382 27.032 48.405 27.072 48.433 27.108 48.461 27.143 48.488 27.179 48.52 27.211 48.555 27.242 48.59 27.274 48.626 27.302 48.661 27.33 48.701 27.353 48.74 27.377 48.783 27.397 48.823 27.417 48.866 27.437 48.909 27.449 48.957 27.464 49.004 27.472 49.051 27.48 49.098 27.488 49.146 27.492 49.193 27.492"/><path class="b2b121d3-7fea-4787-a2fa-f1a9ceb2f063" d="M45.6688,27.47626l-.07085-.0317-.07483-.0238-.07479-.02377-.07877-.01586-.07873-.01587-.08271-.0119-.08664-.00393-.08658-.004-.02758.004h-.09059l-.122.0119-.13393.01186-.13386.0238-.13783.02377-.14565.03173-.14965.03963-.15356.0436-.16144.0476-.16143.0555-.16141.05943-.16147.05946-.16534.0674-.16148.06736-.16537.07529-.16535.07537-.16147.07926-.16538.08323-.16534.08723-.16538.08723-.16147.08716-.16141.09517-.16144.09119-.16143.09513-.16144.09906-.1575.0991L40.865,29.046l-.14962.09909-.14171.09913-.13783.09513-.13.09909-.126.09907-.12211.09516-.08658.0793-.0827.07133-.07874.07136L39.735,29.926l-.067.06343-.07088.0793-.07082.08719-.07486.0991-.189.25372v-.444l.00391-.13476.004-.15066.00394-.16249.00394-.08326.00391-.08323.00394-.08723.004-.08327.00785-.08719.00791-.08326.00391-.08717.00788-.08723.01182-.08723.00784-.08319.00792-.08723.01178-.08326.00788-.08323.01179-.08327.00791-.07926.01179-.07926.02364-.1586.02364-.14272.01967-.13476.0236-.12683.00792-.0436.0039-.04359.00394-.03967v-.03963l-.00394-.0555-.0039-.04756-.00792-.04757-.01569-.04756-.01576-.04363-.0197-.03964-.02364-.03963-.02755-.03963-.04333-.05153-.04331-.0476-.04725-.04753-.04724-.03963-.04728-.0357-.05116-.03173-.05118-.0317-.05119-.0238-.063-.01583-.063-.00793-.063-.00794h-.13l-.07088.00794-.06695.01586-.06695.01983-.05512.02377-.04722.02773-.02364.01587-.02364.0198-.01966.01983-.0197.0238-.03937.05153-.03546.06343-.03148.07136-.02755.07927-.04331.13476-.04728.12686-.04327.12682-.04334.12293-.05122.12286-.05509.1229-.05907.12289-.06691.12286-.01973.04757-.01569.04359-.01186.04363-.0039.0436.0039.03173.00394.03567.00792.02376.00784.02377.01182.01983.01179.01587.01576.01586.01966.0119.0197.01187.02758.0119.07874.02376-.00785.08327-.01182.12286-.01182.12289-.00788.13083-.01182.13476-.00784.13876-.01186.14666-.00784.14669-.00788.15456-.00788.15463-.00785.15856-.004.16252-.00394.16253-.00391.16252-.00394.1665v1.54592l-.02758-.0317-.02754-.0317-.02758-.03173-.03152-.0317-.03146-.02773-.03546-.02376-.03542-.0278-.03546-.02377-.02758-.01586-.03145-.0119-.03152-.01187-.02755-.0119-.067-.01189-.06694-.00794h-.07089l-.07479.004-.08267.01587-.07877.02376-.126.0357-.13392.04363-.14568.04753-.14962.0476-.15747.0555-.16538.05943-.1772.0674-.18113.06736-.189.07136-.193.0674-.19293.06736-.19686.0674-.20084.06743-.2008.0634-.20475.06343-.20868.05946-.20872.05947-.20866.05549-.21265.05153-.20866.05154-.21266.04359-.21259.03963-.21266.03964-.21259.03569-.10631.01584-.10631.01193-.10237.01186-.10632.00794-.1024.00793-.0984.00393H31.6395l-.09847-.00393-.09449-.004-.0984-.008-.09449-.01187-.09059-.0119-.09449-.01586-.09055-.01587-.09059-.0198-.05513-.01187-.059-.01189-.05118-.01194-.05122-.0158-.05119-.01983-.04721-.01987-.04728-.0198-.04331-.02376-.04334-.0238-.0433-.02376-.03543-.02777-.03937-.03173-.03542-.03166-.03152-.03174-.03149-.03173-.03152-.03963-.02758-.03566-.02751-.03964-.02364-.03963-.01967-.04363-.01973-.04359-.01573-.04754-.01182-.04759-.01182-.0476-.01178-.0515-.00792-.05153-.0039-.0555V32.3639l.0039-.05947.00792-.06339.185-.01587.189-.02776.189-.0357.19295-.03963.1929-.04753.1969-.0555.19689-.06346.20081-.06737.19683-.0793.1969-.07926.193-.08323.189-.09116.185-.0952.18508-.09906.1772-.10706.17716-.107.16936-.115.16534-.1189.16147-.11892.15353-.12683.14962-.13083.14571-.13479.13777-.1387.13-.14272.063-.07137.063-.07529.0591-.07137.0551-.07532.05118-.0753.05119-.07533.04724-.07926.04725-.0753.04334-.07933.03937-.07926.03936-.07927.03543-.08326.03152-.07926.03149-.08326.02758-.08323.0236-.08327.0197-.08323.01967-.09119.01576-.0872.01576-.09119.01576-.08717.01182-.09116.00784-.09519.01186-.09113.0039-.09516.00394-.0912v-.18229l-.00784-.08723-.00792-.08723-.01178-.0832-.01182-.08723-.0197-.07926-.01967-.08326L35.01,27.1988l-.02755-.07929-.03149-.07533-.03545-.07533-.03543-.0753-.03937-.07136-.04724-.06736-.04725-.0674-.05513-.06343-.05906-.05943-.063-.0555-.06691-.0555-.07089-.05153-.07873-.04363-.07089-.03963-.07088-.0357-.07089-.03166-.07089-.0278-.07479-.02377-.07873-.0198-.07483-.01586-.07877-.0119-.07873-.00793-.08267-.00794-.0788-.004h-.24017l-.08268.004-.0827.00794-.08267.00793-.07877.0119-.08267.01186-.07874.0119-.0788.01587-.07873.0198-.07479.01983-.07873.02377-.14962.04363-.14178.05153-.13783.05549-.13.05947-.059.02773-.063.03173-.063.03567-.063.03963-.06695.0436-.07088.04759-.07089.0555-.07085.0555-.07483.05943-.07482.05946-.0748.06343-.07088.06343-.07483.06343-.07479.06737-.07483.07136-.07088.0674-.0748.07533-.07873.07529-.07873.08327-.0788.08719-.08267.09117-.08271.09512-.08267.09913-.08662.103-.08664.111-.08658.111-.08665.115-.08665.12286-.08658.12289-.0827.12686-.08665.1308-.08267.13476-.08665.13876-.08267.14269-.07877.14666-.07873.15063-.07873.15462-.07483.15853-.07088.16256-.0748.16649-.06694.16646-.063.17446-.05907.17439-.05512.17839-.05116.18236-.04334.18229-.03936.19032-.03152.19026-.0197.10306-.0157.0991-.01576.0991-.00791.09913-.01179.09513-.004.09512-.00391.09117v.18235l.00391.09117.00791.08719.00785.08327.01182.08722.01576.0832.01576.0793.0197.07929.01967.07927.02754.07926.02364.07533.03149.07136.03152.0753.03543.07136.03546.0674.03936.0674.04328.06736.04334.0674.04724.06343.04725.06343.05122.05947.05512.05946.059.05943.05906.0555.063.06346.07088.05943.07483.0555.07479.05153.07877.05156.08664.0515.08662.04363.09449.0436.09453.03963.09843.03963.10234.03567.11025.03173.11026.02773.11422.02776.1181.02377.12207.02383.122.0198.12208.01587.12207.01583.122.0119.12207.0079.126.008.12207.00394.122.004h.252l.12207-.004.12595-.00394.126-.01193.126-.0079.126-.01587.126-.01189.252-.03567.248-.03963.24808-.0436.24018-.0476.2402-.05153.23623-.05549.22839-.05947.23232-.0634.22442-.06739.2205-.06737.21263-.0674.21262-.07136.20475-.07136.20477-.07136.19684-.07137.193-.07129.18507-.07137.17717-.06739.16932-.06343.1575-.05947.15359-.05549.14171-.0515.13389-.0476.126-.03963.05907-.01983.059-.02377.05122-.0238.05119-.02773.0433-.03173L37.719,33.343l.03937-.03167.03542-.0357.00394.0991v.0991l.004.09913.00394.09116.00785.12286.01576.111.01182.0555.01179.05153.01182.0476.01181.04753.0197.04363.01576.0436.01967.03963.0197.03567.01967.0357.02364.03566.0236.03173.02758.02774.05513.05549.05512.04757.059.03966.05906.0317.0591.02773.063.01587.063.0119h.12992l.06695-.0119.05906-.0119.0591-.02377.059-.02773.05512-.03173.05513-.03963.05118-.0476.02364-.02376.02361-.02777.01967-.02773.02364-.03173.0197-.0317.01572-.0357.0197-.03963.01573-.03963.02761-.08723.02361-.09906.01966-.10706.01576-.11493.01182-.09513.01179-.0912.01185-.09116.01573-.09116.01185-.08723.0157-.0872.01576-.08326.01576-.08719.0197-.0872.0236-.08723.02364-.09116.03149-.08723.03152-.09116.03937-.09513.03936-.09116.04334-.09517.03149-.06736.0394-.06343.04327-.0674.04728-.07133.05115-.07136.05513-.07133.063-.07136.063-.07533.07089-.0753.07479-.07136.07483-.07533.0827-.0753.08264-.07532.08665-.0753.09058-.07136.0984-.07533.11423-.0872.122-.08723.12207-.08716.122-.08723.126-.08723.126-.08323.126-.08719.13-.08723.13386-.0872.13-.08326.13386-.07926.13386-.0793.13386-.07533.13389-.0753.13389-.06736.13386-.07136.13389-.06347.13-.06339.12992-.05944.126-.05949.12992-.0555.122-.0515.126-.05156.11813-.04757.11813-.04756.11416-.03963.11419-.03567.10632-.03173.1024-.02776.10234-.02773.09453-.0198.09449-.01587.05513-.0119.05906-.01186.05907-.008h.10237l.04725.004.04334.0079.04721.00793.05119.0119.05512.01587.05513.01979.05512.01984.12207.05153.126.06736.05115.02776.04728.02774.04725.01986.0433.0198.04331.01187.04334.0119.03937.004H45.846l.03546-.004.03543-.00794.03148-.01186.05513-.02777.05118-.02773.04728-.0357.04328-.04356.04728-.04363.03936-.05157.03937-.05943.03546-.0634.00391-.004.03546-.07136.03542-.0793.02755-.0793.02364-.07926.01576-.0872.01573-.08723.00791-.08719v-.13876l-.00394-.04754-.004-.04363-.00785-.04753-.00787-.0397-.01182-.04356-.01576-.03967-.01576-.03963-.01967-.03963-.0197-.03963-.01967-.03567-.0236-.03569-.02762-.03567-.02751-.03566-.03152-.03173-.03546-.0357-.04721-.03567L46.098,27.7062l-.0591-.03967-.063-.03566-.06695-.03963-.07482-.03963-.08268-.03964-.08271-.03569Zm-14.64359,1.875.1024-.15459.10632-.14272.10631-.14266.10628-.13087.10635-.13079.10631-.11889.11025-.115.11025-.111.0945-.08723.09055-.08326.08665-.0753.08267-.06736.08271-.06347.07479-.05549.07482-.0515.07089-.04363.04721-.02377.05119-.02376.05122-.01984.05513-.01983.05509-.01583.05906-.01587.05907-.0119.063-.01189.063-.00794.059-.00393h.0591l.05115.0079.05118.008.05122.01583.04725.01983.04331.01983.02754.0277.02364.03173.0197.03173.01967.03964.01576.03963.01178.0436.01186.04756.0039.05156.00394.0515.004.0555-.004.06343-.00394.06343-.00784.0674-.01182.06739-.01576.0753-.01576.07533-.03149.09116-.03542.0912-.03937.08716-.05119.0912-.05122.08719-.063.08323-.06695.08723-.07088.08326-.08267.08323-.08271.07927-.08665.08326-.09055.0753-.09449.07929-.10234.07133-.10241.07533-.11025.07137-.11419.07136-.11022.0674-.11814.06339-.11813.06347-.1181.05943-.12211.0555-.126.05549-.126.05153-.126.04757-.122.04756-.126.03967-.12207.03963-.1181.0317-.12207.0317-.1181.0238-.11423.0238.05513-.16256.063-.16253.067-.15853.07483-.15859.08267-.15853.08661-.15859.09453-.15456.0984-.15462Z"/><path class="b2b121d3-7fea-4787-a2fa-f1a9ceb2f063" d="M81.40946,32.40756l-.02755-.0555-.03152-.05157-.03543-.04756-.03546-.04757-.0433-.04363L81.189,32.1221l-.04725-.03963-.05512-.03173-.02758-.0158-.02755-.01586L81,32.00718l-.02754-.01194-.063-.01186-.067-.00793h-.07082l-.07486.00793-.07873.01186-.08267.02384-.12207.03566-.13386.0436-.14177.0476-.14568.05149-.1575.0555-.16538.06343-.17326.0634-.18114.07136-.18505.07136-.189.0674-.193.07133-.19293.06343-.1969.06743-.19686.0634-.20475.0634-.20474.06346-.20474.05943-.20869.0555-.20478.05549-.20868.0476-.20866.04753-.20872.03963-.21259.03963-.20872.0357-.10635.01587-.10234.0119-.10237.0119-.10238.0079-.10237.00793-.09843.004h-.1969l-.09844-.004-.09449-.004-.09452-.0079-.0945-.0119-.09055-.01193-.09058-.0158-.09056-.01587-.09052-.01983-.05513-.0119-.05512-.0119-.05119-.01583-.05122-.01587-.05119-.01586-.04721-.0198-.04334-.01984-.04725-.02379-.03937-.02377-.04334-.02773-.03542-.02776-.03937-.03174L73.94,33.05762l-.03542-.03566-.03149-.0357-.02758-.03567-.02754-.0357-.02758-.03963-.02361-.04356-.0197-.04363-.01967-.0436-.01575-.0476-.01183-.04753-.01178-.0476-.00791-.05153-.00785-.0555-.00394-.05549-.004-.0555v-.11889l.00791-.05947.00391-.06343.18507-.01983.18505-.02773.18507-.0317.193-.0436.189-.0476.193-.05549.19683-.0634.1969-.07136.19686-.0753.19293-.08326.189-.0872.18508-.09116.185-.0952.18114-.09906.17717-.10706.17326-.111.16932-.11492.16143-.1189.15747-.12289.15359-.12686.14571-.13083.14171-.13873.13783-.13876.13-.14269.063-.07533.05909-.0753.059-.07136.05512-.07926.05122-.07533.05115-.0753.04725-.07926.04331-.07933.04334-.07926.03936-.07927.03937-.07929.03152-.08323.03542-.0793.02755-.08326.02758-.0832.02361-.08723.02364-.08723.01576-.08723.01572-.09116.01576-.09113.01576-.09116.01178-.0912.00792-.09513.01178-.09516.004-.09116.00391-.09516v-.18233l-.00788-.08719-.00788-.08723-.01183-.0872-.01178-.0872-.01967-.08326-.01973-.08323-.02361-.0793-.02755-.07926-.03152-.07533-.03152-.07926L78.472,26.735l-.0433-.07529-.04331-.0674-.04724-.06743-.05513-.0634-.05513-.06339-.063-.0555-.067-.0555-.07086-.05153-.07482-.0476-.07089-.03963-.06694-.03566-.0748-.02773-.07085-.02777-.07487-.0238-.07479-.0198-.07483-.01586-.07873-.01587-.07479-.0079-.07877-.008-.08271-.00393h-.23622l-.08268.00393-.07879.008-.08264.0079-.07877.0119-.07877.01187-.07873.01586-.07873.01587-.07482.01586-.07877.0198-.07483.0238-.14568.04757-.14174.05156-.13783.0555-.126.05943-.05907.02773-.05907.03173-.063.03963-.063.03964-.067.04363-.06691.04753-.07086.05156-.07482.05943-.14568.119-.14571.1308-.14569.13082-.14568.1427-.07482.07533-.0748.07529-.07482.08323-.07873.08723-.08271.09513-.07873.09513-.08665.09913-.08267.107-.08661.111-.08665.111-.08267.11893-.08665.11893-.08271.12683-.08658.13082-.0827.1308-.08268.13876-.0827.13873-.08267.14272-.07877.15063-.07873.15062-.07483.15463-.07479.16249-.07089.16253-.07482.16649-.067.17046-.063.17442-.05907.17839-.05119.1823-.04728.18235-.0433.18633-.03937.19029-.03542.19422-.00394.0317-.004.02773-.00391.03174-.00394.02776-.13783.02773-.1417.03567-.14571.03963-.1536.0476-.15352.04753-.15356.05156-.15359.05154-.15747.05549-.15359.0555-.15747.05946-.15753.05943-.15747.0595-.15753.0634-.15356.05946-.15749.0595-.14962.05943-.14963.05549-.14962.0555-.14962.0555-.14568.05549-.14177.05157-.13386.04753-.126.0436-.12207.03566-.11419.03173-.10632.02777-.10241.02376-.09449.01984-.1417.02376-.13.01587-.11813.00793h-.11025l-.05513-.004-.04721-.00394-.04728-.00793-.04331-.00793-.04334-.01186-.03936-.0119-.03543-.01587-.03546-.01587-.03542-.01983-.03149-.0198-.02758-.02376-.03148-.0238-.02755-.02777-.02758-.03169-.02364-.0317-.02361-.03567-.02363-.0357-.0197-.03963-.02361-.04363-.01576-.0436-.03542-.09116-.02755-.10306-.03152-.12686-.02361-.13873-.0197-.15459-.01182-.16253-.00784-.08326-.00792-.08323-.0039-.08326-.00394-.09117v-.09909l.00394-.115.01182-.1348.01967-.15459.01576-.0832.01969-.09119.02361-.09116.02361-.0912.03152-.09513.03152-.09513.03542-.09913.03547-.09906.07873-.19822.09055-.19823.09055-.20215.09453-.19816.09055-.19033.09449-.18629.08665-.17836.08264-.17049.07483-.15456.06694-.13872.05119-.12686.0394-.107.059-.19026.063-.17839.0591-.17046.063-.16253.059-.15062.0591-.14273.05907-.13079.059-.12686.0197-.03174.01576-.03566.01182-.03563.00784-.03173.00788-.03174.00789-.03566.00394-.03173v-.0317l-.00394-.0317-.00394-.03173-.00789-.02773-.00784-.03174-.01185-.03173-.01183-.0277-.01966-.02776-.01573-.0317-.04334-.05153-.04722-.05157-.05122-.04753-.05512-.04363-.059-.03963-.06694-.03566-.067-.0357-.07086-.02773-.063-.0198-.059-.01587-.063-.0119-.05907-.01193-.06688-.00393-.063-.004h-.06694l-.063.004-.067.00793-.06691.01187-.063.01586-.05906.02377-.059.02383-.05906.03167-.05513.03569-.05513.04364-.04334.04356-.04331.0476-.04327.0555-.03944.05549-.04327.05947-.04331.06339-.04334.0674-.0433.07136-.07874.13873-.07088.12686-.059.11493-.04728.10309-.0197.0674-.01576.0634-.00784.06339v.0952l.00784.03167.00792.02383.01572.02376.01576.0198.02364.01587.02755.01586.02758.01187-.04728.13083-.0748.16649-.08664.19029-.0945.20216-.09843.20612-.09452.19823-.08268.17835-.06694.1427-.09449.20612-.09844.222-.04724.115-.04725.11893-.04725.12686-.04724.12686-.04335.12679-.04327.13483-.04334.13476-.03543.13873-.03542.14269-.03152.14273-.02361.14273-.02364.15062-.01179.111-.01185.10707-.00784.103-.004.1031v.41618l-.04331.01587-.04328.01983-.04334.01587-.04724.0198-.08662.0357-.09058.03169-.09055.0357-.08665.03567-.09055.0317-.09052.03566-.09059.03174-.09055.03173-.09449.03166-.09059.03174-.09055.02776-.09055.0317-.09059.02776-.09449.02774-.09055.02379-.09059.02377-.09055.02376-.08665.02383-.08267.0198-.0827.01584L63.1,32.57007l-.07874.01187-.07088.01586-.07089.0119-.09055.00394-.08665-.00394-.07873-.004-.07479-.01186-.07483-.01587-.06694-.0198-.063-.0278-.0591-.03166-.05115-.0357-.05512-.0436-.04728-.04756-.04725-.05947-.0394-.0674-.04328-.07136-.03546-.0832-.03148-.08722-.02755-.07137-.02364-.07529-.0197-.0793-.01969-.0793-.0157-.08323-.01576-.08723-.01185-.09116-.00784-.09116L61.78488,31.25l-.00394-.0991L61.777,31.0518l-.0039-.09909v-.20612l.0039-.107.00394-.107v-.0872l-.00784-.08719-.01185-.0793-.01576-.07533-.02361-.07133-.02364-.06343-.03148-.06343-.03543-.0555-.03936-.05153-.04334-.0476-.04331-.04356-.05119-.0357-.05118-.0317-.05513-.02773-.063-.0238-.059-.01983-.067-.01187-.06694-.01193-.07083-.00393h-.14968l-.07479.0079-.08268.01586-.07873.01587-.08665.0198-.0827.0238-.07874.02776-.08267.0317-.08271.0357-.08267.03963-.07877.0436-.08267.04756-.09847.06343-.10234.06343-.10631.07133-.11025.0793-.11026.07926-.11813.08327-.12207.09116-.12207.09516-.126.0991-.126.09906-.13.09913-.12594.0991-.126.10306-.13.10306-.12992.10306-.126.10706-.12992.103-.126.107-.126.10309-.126.103-.126.10706-.12207.103-.122.10306-.12207.10309-.1181.0991-.11419.09513-.10631.09513-.10241.08723-.0984.08326-.09449.0832-.08665.07533-.0827.07136-.05513.04757-.05512.03966-.05116.03963-.05119.0317-.05122.02773-.04724.02376-.04331.01984-.04331.01586-.04333.00794-.03937.004-.03937.004-.03542-.004-.03546-.0119-.03543-.01186-.03149-.01587-.03148-.0238-.0197-.01583-.0197-.01983-.01573-.01983-.01576-.0238-.01576-.02377-.01179-.02776-.01182-.02773-.00791-.02777-.01178-.06736-.00788-.0753.00394-.07933.00394-.08716.01178-.0912.01576-.08719.0197-.08326.01967-.07927.02364-.07533.02364-.07533.02758-.07133.03145-.06343.063-.12683.06692-.12686.07088-.12686.07479-.12686.08271-.12686.08661-.1308.09056-.13082.09846-.1308.09844-.13476.10237-.13082.10237-.12683.10631-.13083.10632-.12686.11025-.12682.11025-.12686.11025-.12686.1142-.12287.11416-.11892.11422-.11893.1181-.11493.1181-.115.11816-.111.1181-.107.12207-.107.11814-.1031.11419-.09909.11419-.09116.11025-.08723.10631-.08323.10628-.0793.10241-.07133.0984-.0674.09847-.06739.09449-.05943.09449-.05947.0945-.0555.09452-.05153.09056-.05156.08664-.04356.08661-.03964.08662-.03966.0827-.03567.08268-.03173.0827-.02773.07874-.0238L60.139,27.722l.07483-.01583.07479-.01587.07483-.00793.07088-.0079.0748-.004.07088.004.07085.004.06695.0079.07089.0119.06694.01587.06692.01983.06694.02377.06692.02776.063.03167.067.03569.063.03964.063.04363.063.04753.04327.02383.04334.02377.04331.01983.04331.0198.04334.01586.0433.01587.04725.0079.04331.008.0433.00789.04725.004H61.907l.04722-.004.04727-.004.04328-.0119.04728-.0079.04724-.01587.04331-.01189.04331-.01587.04334-.01983.03936-.0198.03937-.01983.03546-.02377.03542-.02376.03149-.02384.03152-.0277.03148-.02779.02755-.03167.02758-.03173.02755-.03567.02367-.03569.02361-.03567.02755-.05946.02364-.06343.02361-.06343.01575-.0634.00785-.06343.00791-.06743V27.183l-.00394-.0357-.00788-.03567-.00788-.03173L62.722,27.0442l-.02755-.06737-.03152-.06346-.04328-.0634-.04727-.0634-.05907-.06346-.063-.05946-.07873-.06343-.07876-.05947-.07874-.0555-.07876-.05549-.07483-.04753-.07873-.0476-.07873-.04357-.07877-.03963-.07876-.0357-.0748-.03173-.07873-.02776-.0788-.02773-.07873-.02377-.07479-.01587L61.2809,26.073l-.0788-.01584-.15353-.01586-.15356-.01187-.15359-.004-.14962.004-.14568.01187-.14962.01586-.14177.02377-.14568.03173-.1378.03567-.14177.04359-.13386.04757-.13386.05156-.13389.0555-.12995.0634-.126.06343-.12594.07133-.12208.07136-.11816.07137-.11416.07136-.11025.07133-.11026.06743-.10634.06736-.0984.0674-.09844.0634-.11422.07929-.1181.08323-.1181.08327-.12207.09113-.126.09519-.126.103-.12992.10309-.13389.107-.13386.11493-.13389.115-.13386.1189-.13386.12289-.13.12686-.13389.12686-.13386.13476-.13.13476-.12992.13876-.13.14273-.126.14266-.126.14669-.126.15063-.122.15066-.11813.15062-.12211.1546-.11416.15856-.11025.15855-.10631.15856-.10237.15853-.09847.15859-.09052.16253-.08665.15856-.0827.16252-.04722.09116-.04334.09513-.03936.09513-.03937.0912-.03546.09913-.03542.09513-.03152.09513-.03146.09906h-.06695l-.11025.004-.11419.00793-.12207.01583-.126.01984-.12992.02376-.1378.03173-.14177.03567-.14568.03963-.15356.0476-.14962.04753-.15359.0476-.14962.05153-.15352.0515-.1536.05156-.15356.0555-.1575.0555-.15355.05549-.15356.0555-.14962.0555-.14965.05153-.14568.05549-.14565.05154L50.559,33.014l-.14178.04756-.13783.04757-.12992.04359-.126.0357-.1181.03567-.11025.02773-.10632.02777-.09449.01983-.09059.01583-.12207.01983-.11025.0119-.10234.0079-.09449.004h-.0591l-.05513-.004-.05115-.0079-.04728-.004-.04327-.01186-.04334-.0119-.03546-.0119-.0354-.01583-.126-.0555-.09055-.03966-.0197-.01584-.01967-.01586-.01576-.01583L48.417,33.125l-.01182-.0238-.01576-.0317-.01179-.03566-.01576-.04364-.02758-.09116-.0236-.05946-.01182-.03173L48.291,32.7722l-.00391-.0515-.00791-.06739-.00394-.06344-.00391-.03966V32.463l.00391-.05547.00394-.07933.01576-.16249.01967-.16649.02367-.16253.03145-.17045.0394-.16646.04331-.17446.05122-.17439.059-.17443.05907-.17046.05906-.16649.059-.15459.0591-.14666.05906-.13877.059-.12686.05513-.12286.05906-.111.01576-.0317.01576-.0357.01576-.0317.00785-.0317.01182-.03173.00394-.03173.00391-.03566v-.06737l-.00391-.03173-.00788-.03566-.01182-.03174-.01181-.03166L49.0549,29.379l-.01967-.03174-.01973-.02773-.04331-.05549L48.921,29.2165l-.05115-.0476-.0591-.04359-.05906-.03567-.067-.0357-.07082-.03166-.07483-.02777-.04725-.01586-.05122-.01187-.04721-.0119-.05119-.0119-.05122-.004-.05512-.0079h-.05119l-.05119-.004-.05512.004h-.05116l-.07088.0079-.06695.0119-.063.01586-.063.02377-.063.02376-.05906.03173-.0591.0357-.05513.03963-.04721.04357-.04334.0476-.0433.04753-.04331.0555-.04334.05549-.04327.0595L47.22,29.494l-.04334.06343-.07873.13083-.07089.11892-.05512.107-.05119.09513-.0197.0674-.01576.0634-.00785.06343-.00394.06739.00394.02777.00391.02773.00791.02776.01576.02377.01573.02377.01967.01983.01973.0198.02755.01586-.03546.09513-.03149.09913-.03546.10306-.02755.10306-.03148.10706-.03149.111-.02758.115-.02755.115-.02758.12289-.02754.12686-.01974.1268-.0236.12686-.01967.12686-.01576.12686-.01178.12683-.01186.13082-.01572.111-.01186.0753-.0039.06739-.00394.09513v.111l.00394.04756.0039.111.00792.0793.01178.05946.01182.04756.01576.0436.0197.0436.02361.05549.02364.0753.0433.14273.04728.13476.05116.12686.05118.12289.05907.115.063.111.063.10306.067.09513.07085.0912.07482.08319.07874.07533.0827.07136.08268.06344.09055.05549.09059.0515.09449.04363.09847.0357.10628.03167.11025.02776.11025.02376.11813.01587.126.01587.12594.004.13.004.13386-.004.13386-.004.14177-.0119.14568-.01587.14571-.0198.15353-.02773.15753-.02776.1614-.0357.11423-.02774.1181-.02776.12207-.03167.13-.03569.13386-.03567.13783-.03963.14171-.04363.14568-.0436.14962-.0476.14968-.04753.14962-.0476.14568-.05153.14568-.04753.14571-.0476.14568-.04753.14565-.05156.14571-.04757.13784-.04756.14174-.04363.13779-.04754.13386-.03963.1339-.03963.13-.03969.12992-.03963.08664-.02377.08268-.02376.07873-.01984.07483-.0198.07085-.01586.067-.01587.06694-.01586.063-.01587.01576.07533.0197.07136.01966.07136.0197.0674.02361.0634.02758.0634.02755.06346.03152.05943.03148.05946.03546.0555.03937.0555.03936.05153.03937.05156.04334.04754.04721.04759.04728.04357.05907.0476.059.04759.05907.04357.063.03963.06692.0357.06694.03173.07089.02773.07088.02777.07483.0198.07479.01983.07483.01587.08271.01186.07873.00793.08664.004h.08264l.08665-.004.09055-.004.09059-.0119.09055-.01587.09059-.0198.09449-.02376.09055-.03174.0945-.03173.09449-.03963.09843-.0436.0945-.04756.09846-.0555.09844-.05549.09843-.06343.09843-.0674.10238-.07136.10237-.0753.08664-.07136.08658-.07137L57.237,34.12l.09055-.07926.09055-.0793.09453-.07926.09453-.08327.09449-.08723.09843-.08716.0945-.08326.09449-.08723.09847-.08323.09449-.08327.09449-.08323.0945-.08326.09449-.07926.09055-.07927.0945-.07929.09058-.07927.08661-.07533.09059-.07136.08661-.07136.08268-.0713.08664-.0674.1575-.12686.14962-.115.1378-.09513.12207-.08723.04331-.02776.03936-.02377.04334-.0198.03937-.01586.03546-.00793.03936-.00793.03543.004.03546.00393.03543.01186.02754.01194.02758.0198.01967.02376.0197.02777.01576.03173.00785.0357.00791.04356.00391.07533.00394.07926.00785.08327.01576.08723.01576.08716.0197.09119.02364.09117.02754.09513.03152.09513.03146.08722.03152.08327.03152.07529.03542.07137.03546.06343.03543.05943.03546.05153.04721.06743.04728.06736.04722.06343.05119.05947.05122.05549.05118.0555.05116.05153.05512.04753.05513.0476.05512.0436.0591.03963.05513.03566.059.0357.063.0317.05906.02773.063.02383.06694.02377.06692.02376.07088.01587.0748.01983.0788.0119.08264.0119.08664.01187.08662.00793.09452.004.09449.004h.20081l.10632-.004.11025-.004.11419-.00793.11419-.00791.2008-.02776.20475-.0317.21262-.03966.21263-.0515.21656-.0555.22441-.06346.22842-.07136.22835-.08323.10632-.03567.10631-.03963.10238-.03963.10237-.03966.10238-.0436.09846-.03963.0984-.03963.09449-.04363.04335.09516.04724.09116.04334.0872.05116.08326.05118.07926.05119.07533.05513.07133.05513.06743.05906.0634.05907.05549.063.0555.063.05153.063.04757.07089.03966.06691.03963.07085.03167.09844.03969.1024.03564.10632.02776.11025.02377.1181.01983.11817.0119.126.0079.13.004h.13386l.1378-.00793.14568-.01187.14571-.01986.15356-.01984.15749-.02773.16144-.03567.16538-.03566.1181-.02773.11817-.03173.126-.03567.12995-.0357.13386-.0436.14177-.04363.14568-.04753.14962-.0476.15356-.05153.14962-.0515.14965-.05153.15356-.05156.14962-.0555.14962-.05153.14568-.0555.14962-.05153.14568-.0555.14571-.04753.14174-.05156.13783-.04757.14174-.04756.1339-.04363.13385-.04357.13386-.03966.09844-.0317.09055-.02773.09058-.02383.08661-.02377.04728.107.05115.10706.0591.09906.063.09913.07088.09513.07483.0912.0827.09116.08268.08323.06694.0634.06691.0595.07089.05946.07479.05153.08271.0515.08267.05153.08665.04363.09055.0436.0945.0436.09843.03566.10238.0357.1024.03567.11025.02776.11416.02774.11813.02376.11814.02383.122.0198.11817.01587.122.01586.1221.01187.11814.0119.122.004.12207.00791.122.004h.126l.12207-.004L75.578,34.893l.122-.004.126-.0079.12207-.01193.126-.0119.126-.01586.248-.03567.24412-.03963.24417-.0436.2362-.0476.23626-.05149.23233-.0595.22835-.05943.22838-.06343.22051-.0674.21656-.0674.21263-.0713.20872-.06742.20474-.07133.19687-.07533.19687-.07137.189-.07529.185-.07136.17326-.06737.16535-.06346.15753-.05943.14962-.0555.14177-.05153.13386-.04757.12208-.04363.05115-.01586.04334-.0198.04331-.01587.04327-.02376.03943-.01984.0354-.02376.03542-.02383.03152-.0277.02758-.0278.02755-.0277.02361-.03173.02367-.0317.01967-.0317.0197-.03569.01178-.03567.01576-.03963.01967-.07533.01182-.0753L81.5,32.75637l-.00394-.07136-.00785-.07136-.01966-.0674-.02368-.07136-.03542-.06733Zm-6.741-3.19106.10237-.15459.10238-.14666.10237-.14272.10632-.13477.10627-.12686.10635-.12289.11025-.11889.10632-.111.09449-.08723.08665-.08323.08661-.07533.08267-.07133.07873-.06346.07483-.0555.07486-.05153.06691-.0436.04725-.02376.05119-.0238.05118-.01984.05513-.01979.05509-.01984.0591-.01186.05907-.01587.05907-.0119.063-.0079h.11423l.05513.00394.05115.01193.04725.01187.0433.01979.04334.02384.02755.0277.02361.03173.02368.0317.01966.03966.01179.03963.01576.0436.00791.04757.00784.05153.00394.05549v.05547l-.00394.06346-.00394.0634-.00784.0674-.01182.07136-.01186.07533-.01572.0753-.03149.09119-.03542.09116-.03937.09117-.05122.09119-.05118.08716-.05907.08723-.067.08327-.07479.08719-.07483.08327-.08267.08319-.08661.07933-.09058.07926-.0945.07927-.09846.07533-.10234.07133-.11025.07533-.11025.07136-.11025.0674-.11419.06339-.11814.06347-.1181.05943-.11816.05946-.12205.0555-.126.05153-.12211.05156-.126.04357-.12205.0436-.11816.03569-.12208.03567-.1181.02776-.11419.02773-.11416.0238.05513-.16649.059-.16252.06692-.16253.07486-.15859.07873-.15853.08665-.16252.09449-.1546.09843-.15856Z"/><polygon class="b2b121d3-7fea-4787-a2fa-f1a9ceb2f063" points="26.513 27.345 26.521 27.345 26.521 27.345 26.56 27.345 26.603 27.345 26.643 27.341 26.682 27.334 26.757 27.318 26.832 27.29 26.903 27.258 26.97 27.219 27.033 27.175 27.088 27.123 27.143 27.068 27.19 27.009 27.229 26.945 27.265 26.874 27.296 26.802 27.316 26.727 27.324 26.687 27.332 26.648 27.336 26.604 27.336 26.565 27.336 26.521 27.336 26.481 27.332 26.442 27.324 26.402 27.308 26.323 27.281 26.251 27.249 26.18 27.21 26.113 27.166 26.049 27.115 25.99 27.06 25.938 27.001 25.891 26.938 25.847 26.867 25.811 26.796 25.784 26.718 25.764 26.682 25.756 26.639 25.748 26.599 25.744 26.56 25.744 26.544 25.744 26.513 25.744 26.454 25.744 26.371 25.744 26.265 25.748 26.135 25.756 25.985 25.764 25.816 25.78 25.627 25.799 25.422 25.823 25.198 25.855 24.958 25.895 24.705 25.938 24.438 25.994 24.154 26.061 23.863 26.132 23.713 26.176 23.56 26.22 23.402 26.267 23.245 26.315 23.052 26.382 22.867 26.446 22.693 26.513 22.528 26.576 22.371 26.644 22.225 26.707 22.083 26.775 21.953 26.838 21.831 26.905 21.713 26.969 21.603 27.036 21.5 27.1 21.406 27.163 21.315 27.227 21.233 27.29 21.154 27.349 21.052 27.441 20.961 27.528 20.878 27.615 20.807 27.698 20.744 27.778 20.693 27.857 20.65 27.928 20.614 27.996 20.591 28.043 20.563 28.099 20.54 28.158 20.52 28.218 20.504 28.289 20.488 28.36 20.481 28.44 20.477 28.519 20.477 28.57 20.481 28.622 20.488 28.673 20.496 28.725 20.508 28.776 20.52 28.824 20.536 28.876 20.551 28.923 20.571 28.975 20.595 29.022 20.614 29.07 20.642 29.117 20.697 29.205 20.756 29.292 20.807 29.351 20.859 29.411 20.918 29.47 20.977 29.53 21.036 29.589 21.103 29.645 21.174 29.7 21.248 29.756 21.327 29.811 21.406 29.867 21.493 29.922 21.587 29.974 21.682 30.029 21.784 30.085 21.89 30.144 22 30.2 22.119 30.259 22.245 30.315 22.375 30.374 22.512 30.433 22.654 30.493 22.804 30.552 22.961 30.616 23.127 30.675 23.481 30.802 23.863 30.933 24.28 31.064 24.737 31.202 24.902 31.254 25.056 31.306 25.194 31.357 25.316 31.409 25.422 31.456 25.509 31.504 25.584 31.547 25.643 31.583 25.599 31.627 25.548 31.674 25.489 31.726 25.418 31.781 25.343 31.837 25.257 31.892 25.166 31.952 25.064 32.011 24.965 32.067 24.859 32.126 24.749 32.182 24.635 32.237 24.513 32.293 24.391 32.344 24.265 32.396 24.135 32.447 24.001 32.499 23.863 32.55 23.725 32.598 23.583 32.641 23.3 32.733 23.008 32.812 22.717 32.887 22.426 32.955 22.28 32.986 22.134 33.014 21.993 33.038 21.855 33.062 21.713 33.081 21.579 33.097 21.445 33.113 21.315 33.125 21.189 33.137 21.067 33.141 20.945 33.145 20.831 33.145 20.768 33.145 20.709 33.145 20.65 33.145 20.595 33.141 20.524 33.137 20.457 33.133 20.394 33.129 20.331 33.125 20.295 33.077 20.26 33.034 20.221 32.99 20.177 32.955 20.134 32.919 20.087 32.887 20.036 32.859 19.984 32.836 19.929 32.816 19.874 32.796 19.819 32.784 19.764 32.776 19.705 32.772 19.646 32.772 19.587 32.776 19.524 32.784 19.496 32.788 19.437 32.804 19.358 32.824 19.256 32.851 19.197 32.867 19.134 32.891 19.067 32.919 18.984 32.959 18.937 32.982 18.886 33.018 18.827 33.062 18.756 33.125 18.721 33.161 18.677 33.208 18.638 33.268 18.594 33.339 18.579 33.375 18.559 33.418 18.543 33.462 18.528 33.509 18.516 33.561 18.508 33.613 18.504 33.668 18.5 33.728 18.5 33.779 18.504 33.827 18.512 33.874 18.524 33.922 18.535 33.965 18.547 34.009 18.567 34.053 18.583 34.092 18.622 34.164 18.665 34.227 18.705 34.283 18.748 34.326 18.819 34.386 18.882 34.433 18.941 34.473 18.992 34.501 19.087 34.54 19.169 34.572 19.287 34.604 19.414 34.631 19.547 34.655 19.697 34.675 19.866 34.691 20.051 34.711 20.264 34.726 20.504 34.742 20.583 34.746 20.666 34.75 20.748 34.75 20.831 34.75 21.059 34.746 21.296 34.734 21.536 34.715 21.776 34.691 22.024 34.655 22.272 34.619 22.524 34.572 22.776 34.52 23.028 34.465 23.28 34.401 23.532 34.334 23.78 34.263 24.028 34.183 24.272 34.104 24.513 34.017 24.753 33.93 24.981 33.835 25.206 33.735 25.422 33.632 25.635 33.525 25.737 33.47 25.836 33.414 25.934 33.359 26.032 33.299 26.127 33.24 26.217 33.176 26.304 33.113 26.395 33.05 26.477 32.982 26.56 32.915 26.639 32.844 26.718 32.772 26.788 32.697 26.863 32.618 26.93 32.534 26.993 32.447 27.056 32.356 27.111 32.257 27.139 32.205 27.163 32.154 27.186 32.102 27.21 32.043 27.226 31.987 27.245 31.928 27.261 31.868 27.273 31.809 27.285 31.746 27.292 31.682 27.296 31.619 27.296 31.551 27.296 31.456 27.285 31.361 27.269 31.27 27.245 31.179 27.218 31.091 27.182 31.004 27.143 30.921 27.1 30.842 27.052 30.766 26.997 30.691 26.942 30.62 26.883 30.552 26.82 30.489 26.757 30.429 26.69 30.374 26.623 30.319 26.552 30.267 26.477 30.219 26.403 30.172 26.324 30.124 26.245 30.081 26.162 30.037 26.076 29.993 25.989 29.954 25.899 29.914 25.804 29.875 25.71 29.835 25.607 29.799 25.399 29.728 25.178 29.66 24.891 29.573 24.615 29.49 24.355 29.407 24.115 29.327 23.89 29.248 23.678 29.173 23.481 29.098 23.3 29.026 23.131 28.955 22.977 28.887 22.835 28.824 22.705 28.761 22.591 28.701 22.485 28.646 22.394 28.594 22.312 28.543 22.288 28.527 22.268 28.515 22.363 28.447 22.485 28.376 22.623 28.297 22.792 28.214 22.882 28.17 22.981 28.126 23.091 28.079 23.201 28.035 23.323 27.988 23.453 27.94 23.591 27.892 23.737 27.845 24.009 27.758 24.272 27.686 24.528 27.619 24.772 27.564 25.005 27.516 25.225 27.476 25.434 27.441 25.627 27.417 25.804 27.393 25.966 27.377 26.107 27.365 26.229 27.357 26.332 27.349 26.414 27.349 26.477 27.345 26.513 27.345"/><path class="bdecb3b6-9123-40af-868f-257887965b9a" d="M60.01486,20.06687H53.6411V11.65609h6.37376v8.41078Zm-6.83554,0H46.80526V11.65609h6.37406Zm-6.83534,0H39.98536V11.65609H46.344Zm-6.8226-8.88317V20.53H60.479V11.1837Z"/><polygon class="bdecb3b6-9123-40af-868f-257887965b9a" points="42.632 18.693 43.841 18.693 43.841 14.129 45.419 14.129 45.419 13.028 41.054 13.028 41.054 14.129 42.632 14.129 42.632 18.693"/><polygon class="bdecb3b6-9123-40af-868f-257887965b9a" points="52.667 13.028 51.397 13.028 50.12 16.167 50.074 16.34 50.027 16.167 48.751 13.028 47.481 13.028 50.074 18.895 52.667 13.028"/><path class="bdecb3b6-9123-40af-868f-257887965b9a" d="M56.27148,14.12075h.40771c.654.01533.9782.23272,1.02369.88353-.03827.6821-.42283.89959-1.07769.90639h-.3537V14.12075Zm0,2.844.39549.00743a2.05618,2.05618,0,0,0,2.279-1.99894A1.98169,1.98169,0,0,0,56.77434,13.028l-1.67812-.00133v5.66779h1.17527V16.96474Z"/></svg>