<svg id="fcb8d093-241d-4edd-9458-b93daa7655d2" data-name="Warstwa 2" xmlns="http://www.w3.org/2000/svg" viewBox="0 0 100 44"><defs><style>.b4efde9a-47a2-48cd-a6f7-03e1e28c7411,.bc074b1b-58fe-4ae8-b55e-f346a2c9308a{fill:#fff;}.bd655d22-213b-40ee-ae6f-57e3b0407ad1{fill:#bf910c;}.b4efde9a-47a2-48cd-a6f7-03e1e28c7411,.bd655d22-213b-40ee-ae6f-57e3b0407ad1{fill-rule:evenodd;}.a1eb5754-878f-47a6-8a2a-6034a7b4cfd3{fill:#67443c;}</style></defs><title>logotypy</title><rect class="bc074b1b-58fe-4ae8-b55e-f346a2c9308a" width="100" height="44"/><g id="b63db11c-80e4-4b9e-a911-7ec02afec699" data-name="Warstwa_1"><g id="be32fef3-8808-4b90-b40d-f4d6caf6ab5e" data-name=" 104862976"><path id="bd0b04ab-26ad-4b79-a5d1-51f731ff04ce" data-name=" 290054616" class="bd655d22-213b-40ee-ae6f-57e3b0407ad1" d="M25.45013,35.80307H23.084V31.645H19.866v4.15811H17.5V26.408h2.366v3.44145h3.218V26.408h2.36611Zm6.34949,0H26.73633V34.16515h1.34861V28.04594H26.73633V26.408h5.06329v1.638H30.451v6.11921h1.34861Zm4.21446.17327a7.72544,7.72544,0,0,1-1.89679-.20835,9.62729,9.62729,0,0,1-1.51815-.51782V33.01522h.21443a5.27406,5.27406,0,0,0,1.55857.92215,4.65382,4.65382,0,0,0,1.653.32221,4.24671,4.24671,0,0,0,.53316-.04411,1.85745,1.85745,0,0,0,.53316-.13909,1.17445,1.17445,0,0,0,.4165-.29991.73952.73952,0,0,0,.17039-.50855.70079.70079,0,0,0-.27786-.57457,1.77183,1.77183,0,0,0-.66269-.322q-.47978-.12609-1.02565-.23991a8.20125,8.20125,0,0,1-1.01923-.27766,3.17162,3.17162,0,0,1-1.5652-1.03542,2.6946,2.6946,0,0,1-.47331-1.62889A2.53069,2.53069,0,0,1,33.772,27.05224a4.60235,4.60235,0,0,1,2.79138-.81753,8.28351,8.28351,0,0,1,1.6702.17059,7.30547,7.30547,0,0,1,1.48739.46133v2.148h-.20842a4.68278,4.68278,0,0,0-1.27852-.75487,4.06355,4.06355,0,0,0-1.55-.30834,3.17342,3.17342,0,0,0-.55572.04395,2.13084,2.13084,0,0,0-.51769.16952,1.04659,1.04659,0,0,0-.38195.29794.68211.68211,0,0,0-.16094.44231.703.703,0,0,0,.25554.57147,2.58824,2.58824,0,0,0,.98786.38207q.47311.10724.91179.20832a8.61168,8.61168,0,0,1,.93744.27769,3.1987,3.1987,0,0,1,1.45472.95041,2.44906,2.44906,0,0,1,.47658,1.57509,2.71055,2.71055,0,0,1-1.10147,2.25394,4.74212,4.74212,0,0,1-2.97615.85219Zm7.08888-.17327V28.20351h-2.784V26.408H48.253v1.79555H45.469v7.59956H43.103Zm14.45918-4.69444a5.04767,5.04767,0,0,1-1.2195,3.5849,4.90694,4.90694,0,0,1-6.68461-.01568,5.07482,5.07482,0,0,1-1.21311-3.56923A5.07924,5.07924,0,0,1,49.658,27.527a4.91131,4.91131,0,0,1,6.68461-.00641,5.05983,5.05983,0,0,1,1.2195,3.588Zm-2.437-.00641a5.116,5.116,0,0,0-.174-1.43,2.94266,2.94266,0,0,0-.46484-.96942,1.79312,1.79312,0,0,0-.68614-.55245,2.028,2.028,0,0,0-1.58376-.01258,1.898,1.898,0,0,0-.68327.55245,2.865,2.865,0,0,0-.47106.97249,6.01072,6.01072,0,0,0-.00949,2.88258,2.91846,2.91846,0,0,0,.46816.95661,1.76239,1.76239,0,0,0,.68924.55886,1.97947,1.97947,0,0,0,.79664.16731,1.91748,1.91748,0,0,0,.80924-.17989,1.76591,1.76591,0,0,0,.67685-.55886,3.09263,3.09263,0,0,0,.46792-.95657,5.09566,5.09566,0,0,0,.16448-1.43052Zm12.33542,4.70087H64.573l-2.617-3.44142h-.84461v3.44142H58.76109V26.408h3.78253a8.308,8.308,0,0,1,1.36432.098,2.90552,2.90552,0,0,1,1.07358.407,2.46031,2.46031,0,0,1,.80173.81756,2.41939,2.41939,0,0,1,.29711,1.25963,2.923,2.923,0,0,1-.48587,1.75208,3.41825,3.41825,0,0,1-1.29908,1.07006l3.16514,3.99078ZM63.65105,29.288a1.28173,1.28173,0,0,0-.1355-.60853.89393.89393,0,0,0-.4505-.394,1.62464,1.62464,0,0,0-.49161-.11965q-.2709-.02516-.67418-.02536h-.7878v2.52809h.67442a4.97018,4.97018,0,0,0,.83464-.0598,1.23846,1.23846,0,0,0,.5831-.2556,1.10562,1.10562,0,0,0,.33734-.42223,1.58912,1.58912,0,0,0,.11009-.643Zm9.3491,6.51514H67.93689V34.16517h1.34858V28.046H67.93689V26.408h5.06326v1.638H71.65157v6.11921h1.34858Zm.56388,0L76.74309,26.408h2.57805L82.5,35.80309H80.06917L79.479,33.88152H76.52668l-.59016,1.92157Zm5.39949-3.62262L78.003,29.08531l-.96085,3.09516Z"/><polygon id="b980f138-2459-4da8-84d7-9593cb44520d" data-name=" 290054568" class="b4efde9a-47a2-48cd-a6f7-03e1e28c7411" points="61.954 21.651 35.428 21.651 35.428 9.29 61.954 9.29 61.954 21.651"/><path id="ab168888-52e2-4f05-a9c7-fde629db9d06" data-name=" 290054568" class="a1eb5754-878f-47a6-8a2a-6034a7b4cfd3" d="M35.41611,21.65069l.01208-.13411H61.95351v.26821H35.42819l-.01208-.13411Zm.01208.1341h-.01208v-.1341Zm0-12.6285.01209.13411V21.65068h-.02417V9.2904Zm-.01208.13411V9.15629h.01208Zm26.54947,0-.01209.13411H35.42818V9.15629H61.95349Zm-.01209-.13411h.01209V9.2904Zm0,12.6285-.01208-.1341V9.2904h.02417V21.65069Zm.01209-.1341v.1341h-.01209Z"/><path class="bd655d22-213b-40ee-ae6f-57e3b0407ad1" d="M33.472,8H64.58256V23.09124H33.472Zm12.067,2.8611v9.14227h6.97517V10.8611Zm7.484,0v9.14227h6.97538V10.8611Zm1.50852,1.50572h1.65222a2.19314,2.19314,0,0,1,2.42032,2.141,2.27572,2.27572,0,0,1-2.53684,2.195l-.272-.00906v1.902H54.5315V12.36682Zm1.26218,1.205v1.96527h.3943c.72673-.0123,1.14845-.2495,1.19355-.99329-.0526-.71683-.41192-.96074-1.13319-.972h-.45466Zm-6.767,5.21268,2.8884-6.492H50.512l-1.435,3.28037-.05032.19809-.05025-.1955-1.4357-3.283H46.138l2.88867,6.492Zm-5.06728-5.21128H42.21292v5.02251h-1.3411V13.57324H39.1249V12.36792h4.8345v1.20532Zm-5.90478-2.71213v9.14227h6.9755V10.86111Zm-.5093-.45141V20.45515H60.50764V10.4097H37.54531Z"/></g></g></svg>