<?xml version="1.0" encoding="UTF-8" standalone="no"?>
<!-- Generator: Adobe Illustrator 16.0.0, SVG Export Plug-In . SVG Version: 6.00 Build 0)  -->

<svg
   version="1.1"
   id="Layer_1"
   x="0px"
   y="0px"
   width="236.071"
   height="185.688"
   viewBox="0 0 236.071 185.688"
   enable-background="new 0 0 378 225"
   xml:space="preserve"
   xmlns="http://www.w3.org/2000/svg"
   xmlns:svg="http://www.w3.org/2000/svg"><defs
   id="defs45" />

<g
   id="g40">
	<g
   enable-background="new    "
   id="g38">
		
		
		
		
		
		
		
		
		
		
		
		
		
	</g>
</g>
<g
   id="g1100"><g
     id="g10"
     transform="translate(-71.451564,-15.876525)">
	<path
   fill="#ffffff"
   d="m 247.82,76.894 c 0,-5.837 -2.172,-12.274 -5.639,-15.658 -3.978,-4.061 -10.35,-7.052 -19.082,-7.052 0,0 -20.838,0 -27.783,0 -0.459,0 -1.02,0.188 -1.276,0.404 -0.249,0.215 -0.563,0.796 -0.563,1.197 0,14.319 0,43.661 0,57.273 0,0.14 0.023,0.965 0.377,1.318 0.391,0.391 0.778,0.422 1.342,0.422 4.861,0 12.896,0 17.261,0 0.834,0 1.214,-0.072 1.489,-0.347 0.352,-0.354 0.357,-0.646 0.357,-1.654 0,-3.743 0,-14.035 0,-14.035 h 1.87 l 10.136,14.797 c 0.691,0.645 0.205,0.428 1.092,0.885 0.711,0.369 1.729,0.354 1.729,0.354 l 18.259,0.01 c 0,0 1.104,0.189 1.664,-0.772 0.542,-0.929 -0.184,-1.941 -0.184,-1.941 L 237.498,94.649 c 7.393,-4.235 10.182,-7.861 10.322,-17.755 z M 222.016,84 h -7.711 V 71.43 h 7.629 c 0,0 5.062,-0.434 5.062,6.29 -0.002,6.28 -4.98,6.28 -4.98,6.28 z"
   id="path2" />
	<path
   fill="#ffffff"
   d="m 272.039,54.172 c -4.395,0 -12.997,0 -17.309,0 -0.319,0 -0.851,0 -1.201,0.475 -0.346,0.474 -0.365,0.871 -0.365,1.383 0,14.32 0,57.276 0,57.276 0,0 -0.004,0.75 0.427,1.192 0.326,0.331 0.935,0.326 0.935,0.326 0,0 13.304,-0.021 17.677,-0.021 0.358,0 1.049,0.053 1.405,-0.304 0.403,-0.403 0.469,-0.608 0.469,-0.854 0,-14.094 0,-42.281 0,-56.64 0,-1.566 -0.088,-1.743 -0.45,-2.158 -0.336,-0.378 -0.938,-0.675 -1.588,-0.675 z"
   id="path4" />
	<path
   fill="#1c375d"
   d="m 221.934,71.431 h -7.629 v 12.568 h 7.711 c 0,0 4.979,0 4.979,-6.278 -0.001,-6.724 -5.061,-6.29 -5.061,-6.29 z"
   id="path6" />
	<path
   fill="#1c375d"
   d="m 233.96,16.074 c -27.456,0 -51.12,16.178 -62.017,39.513 0,0 -12.086,0 -16.115,0 -0.641,0 -1.603,0.229 -2.055,0.507 -0.435,0.271 -1.112,1.058 -1.312,1.579 -2.634,6.861 -10.532,27.443 -10.532,27.443 0,0 -6.708,-19.009 -9.848,-27.56 -0.169,-0.468 -0.709,-1.375 -1.129,-1.642 -0.402,-0.258 -1.4,-0.328 -1.877,-0.328 -14.326,0 -47.242,0 -56.357,0 -0.461,0 -0.729,0.123 -0.905,0.282 -0.148,0.136 -0.311,0.484 -0.311,0.686 0,3.037 0,10.631 0,14.121 0,1.259 0.166,1.47 0.497,1.798 0.298,0.294 0.643,0.437 1.618,0.437 3.851,0 14.481,0 14.481,0 0,0 0,29.75 0,39.667 0,0.559 -0.014,1.377 0.41,1.799 0.441,0.442 1.323,0.44 1.9,0.44 3.429,0 10.283,0 13.711,0 0.633,0 1.597,-0.135 1.952,-0.493 0.428,-0.429 0.576,-1.148 0.576,-1.695 0,-9.931 0,-39.718 0,-39.718 h 9.265 c 0,0 12.653,30.045 16.872,40.059 0.239,0.568 0.731,1.609 1.205,1.922 0.47,0.309 0.873,0.35 2.225,0.35 2.28,0 7.428,0 10.68,0 1.58,0 2.21,-0.369 2.699,-0.766 0.411,-0.339 0.841,-0.912 1.062,-1.472 3.953,-9.921 15.806,-39.691 15.806,-39.691 -0.599,3.642 -0.924,7.375 -0.924,11.187 0,37.789 30.637,68.423 68.424,68.423 37.79,0 68.425,-30.635 68.425,-68.423 C 302.385,46.71 271.747,16.074 233.96,16.074 Z m 14.914,96.02 c 0,0 0.726,1.014 0.185,1.941 -0.563,0.965 -1.668,0.771 -1.668,0.771 l -18.258,-0.009 c 0,0 -1.018,0.017 -1.73,-0.353 -0.885,-0.457 -0.398,-0.241 -1.092,-0.887 L 216.177,98.761 h -1.872 c 0,0 0,10.292 0,14.035 0,1.008 -0.006,1.303 -0.359,1.654 -0.274,0.273 -0.654,0.351 -1.488,0.351 -4.365,0 -12.395,0 -17.259,0 -0.564,0 -0.953,-0.034 -1.345,-0.426 -0.353,-0.353 -0.375,-1.178 -0.375,-1.317 0,-13.614 0,-42.956 0,-57.274 0,-0.4 0.313,-0.981 0.564,-1.195 0.255,-0.217 0.814,-0.406 1.273,-0.406 6.945,0 27.785,0 27.785,0 8.73,0 15.104,2.991 19.082,7.052 3.465,3.384 5.637,9.821 5.637,15.659 -0.137,9.894 -2.93,13.52 -10.317,17.754 z m 25.201,1.552 c 0,0.246 -0.063,0.451 -0.47,0.854 -0.355,0.354 -1.045,0.304 -1.404,0.304 -4.373,0 -17.676,0.019 -17.676,0.019 0,0 -0.607,0.007 -0.936,-0.324 -0.431,-0.442 -0.427,-1.192 -0.427,-1.192 0,0 0,-42.958 0,-57.278 0,-0.512 0.021,-0.908 0.364,-1.382 0.353,-0.475 0.883,-0.475 1.203,-0.475 4.311,0 12.914,0 17.308,0 0.651,0 1.252,0.296 1.586,0.678 0.362,0.415 0.45,0.589 0.45,2.157 0.002,14.359 0.002,42.547 0.002,56.639 z"
   id="path8" />
</g><g
     id="g1079"
     transform="translate(-80.425651,-16.431902)"><path
       fill="#58595b"
       d="m 217.564,193.987 v -12.02 h 6.652 v 11.293 c 0,1.873 0.951,3.02 2.628,3.02 1.677,0 2.628,-1.146 2.628,-3.02 v -11.293 h 6.625 v 12.02 c 0,4.696 -3.188,8.33 -9.365,8.33 -6.177,0 -9.168,-3.633 -9.168,-8.33 z"
       id="path28" /><path
       fill="#58595b"
       d="m 249.375,201.759 h -6.653 v -14.173 h -4.864 v -5.618 h 16.381 v 5.618 h -4.863 v 14.173 z"
       id="path30" /><path
       fill="#58595b"
       d="m 260.109,181.968 h 7.072 l 7.715,19.791 h -7.24 l -1.033,-2.907 h -6.291 l -0.979,2.907 h -7.044 z m 3.438,6.904 -1.621,4.892 h 3.215 z"
       id="path32" /><path
       fill="#58595b"
       d="m 276.293,181.968 h 8.525 c 3.914,0 7.996,1.397 7.996,6.429 0,2.404 -1.258,4.333 -3.467,5.34 l 5.031,8.022 h -7.66 l -3.801,-7.072 h -0.195 v 7.072 h -6.43 v -19.791 z m 6.373,8.357 h 1.314 c 0.922,0 2.32,-0.224 2.32,-1.648 0,-1.398 -1.203,-1.538 -2.041,-1.538 h -1.594 v 3.186 z"
       id="path34" /><path
       fill="#58595b"
       d="m 301.758,181.968 h 7.074 l 7.715,19.791 h -7.24 l -1.035,-2.907 h -6.289 l -0.979,2.907 h -7.045 z m 3.439,6.904 -1.621,4.892 h 3.215 z"
       id="path36" /><g
       id="g26"
       transform="translate(-42.95)"><g
         enable-background="new    "
         id="g24"><path
           fill="#58595b"
           d="m 131.259,190.577 0.308,11.182 h -6.206 v -19.791 h 8.694 l 3.578,10.65 h 0.14 l 3.103,-10.65 h 8.974 v 19.791 h -6.458 l 0.196,-11.126 -0.168,-0.027 -3.69,11.153 h -4.696 L 131.4,190.577 Z"
           id="path12-0" /><path
           fill="#58595b"
           d="m 159.044,181.968 h 7.072 l 7.715,19.791 h -7.24 l -1.034,-2.907 h -6.29 l -0.979,2.907 h -7.044 z m 3.438,6.904 -1.621,4.892 h 3.215 z"
           id="path14-0" /><path
           fill="#58595b"
           d="m 175.229,181.968 h 6.709 v 14.088 h 6.569 v 5.703 h -13.278 z"
           id="path16-1" /><path
           fill="#58595b"
           d="m 189.625,193.987 v -12.02 h 6.653 v 11.293 c 0,1.873 0.95,3.02 2.628,3.02 1.677,0 2.627,-1.146 2.627,-3.02 v -11.293 h 6.625 v 12.02 c 0,4.696 -3.187,8.33 -9.364,8.33 -6.177,0 -9.169,-3.633 -9.169,-8.33 z"
           id="path18-8" /><path
           fill="#58595b"
           d="m 218.109,193.876 h -0.056 v 7.883 h -6.485 v -19.791 h 6.457 v 7.296 h 0.057 l 5.283,-7.296 h 7.826 l -7.436,9.057 7.799,10.734 h -8.162 z"
           id="path20-0" /><path
           fill="#58595b"
           d="m 232.617,193.987 v -12.02 h 6.652 v 11.293 c 0,1.873 0.951,3.02 2.628,3.02 1.677,0 2.628,-1.146 2.628,-3.02 v -11.293 h 6.625 v 12.02 c 0,4.696 -3.188,8.33 -9.365,8.33 -6.177,0 -9.168,-3.633 -9.168,-8.33 z"
           id="path22-5" /></g></g></g></g></svg>
