<?xml version="1.0" encoding="UTF-8" standalone="no"?>
<!-- Generator: Adobe Illustrator 16.0.0, SVG Export Plug-In . SVG Version: 6.00 Build 0)  -->

<svg
   version="1.1"
   id="Layer_1"
   x="0px"
   y="0px"
   width="230.884"
   height="185.435"
   viewBox="0 0 230.884 185.43499"
   enable-background="new 0 0 378 225"
   xml:space="preserve"
   xmlns="http://www.w3.org/2000/svg"
   xmlns:svg="http://www.w3.org/2000/svg"><defs
   id="defs45" />

<g
   id="g40">
	<g
   enable-background="new    "
   id="g38">
		
		
		
		
		
		
		
		
		
		
		
		
		
	</g>
</g>
<g
   id="g2199"><g
     id="g1100"><g
       id="g10"
       transform="translate(-71.451564,-15.876525)">
	<path
   fill="#ffffff"
   d="m 247.82,76.894 c 0,-5.837 -2.172,-12.274 -5.639,-15.658 -3.978,-4.061 -10.35,-7.052 -19.082,-7.052 0,0 -20.838,0 -27.783,0 -0.459,0 -1.02,0.188 -1.276,0.404 -0.249,0.215 -0.563,0.796 -0.563,1.197 0,14.319 0,43.661 0,57.273 0,0.14 0.023,0.965 0.377,1.318 0.391,0.391 0.778,0.422 1.342,0.422 4.861,0 12.896,0 17.261,0 0.834,0 1.214,-0.072 1.489,-0.347 0.352,-0.354 0.357,-0.646 0.357,-1.654 0,-3.743 0,-14.035 0,-14.035 h 1.87 l 10.136,14.797 c 0.691,0.645 0.205,0.428 1.092,0.885 0.711,0.369 1.729,0.354 1.729,0.354 l 18.259,0.01 c 0,0 1.104,0.189 1.664,-0.772 0.542,-0.929 -0.184,-1.941 -0.184,-1.941 L 237.498,94.649 c 7.393,-4.235 10.182,-7.861 10.322,-17.755 z M 222.016,84 h -7.711 V 71.43 h 7.629 c 0,0 5.062,-0.434 5.062,6.29 -0.002,6.28 -4.98,6.28 -4.98,6.28 z"
   id="path2" />
	<path
   fill="#ffffff"
   d="m 272.039,54.172 c -4.395,0 -12.997,0 -17.309,0 -0.319,0 -0.851,0 -1.201,0.475 -0.346,0.474 -0.365,0.871 -0.365,1.383 0,14.32 0,57.276 0,57.276 0,0 -0.004,0.75 0.427,1.192 0.326,0.331 0.935,0.326 0.935,0.326 0,0 13.304,-0.021 17.677,-0.021 0.358,0 1.049,0.053 1.405,-0.304 0.403,-0.403 0.469,-0.608 0.469,-0.854 0,-14.094 0,-42.281 0,-56.64 0,-1.566 -0.088,-1.743 -0.45,-2.158 -0.336,-0.378 -0.938,-0.675 -1.588,-0.675 z"
   id="path4" />
	<path
   fill="#1c375d"
   d="m 221.934,71.431 h -7.629 v 12.568 h 7.711 c 0,0 4.979,0 4.979,-6.278 -0.001,-6.724 -5.061,-6.29 -5.061,-6.29 z"
   id="path6" />
	<path
   fill="#1c375d"
   d="m 233.96,16.074 c -27.456,0 -51.12,16.178 -62.017,39.513 0,0 -12.086,0 -16.115,0 -0.641,0 -1.603,0.229 -2.055,0.507 -0.435,0.271 -1.112,1.058 -1.312,1.579 -2.634,6.861 -10.532,27.443 -10.532,27.443 0,0 -6.708,-19.009 -9.848,-27.56 -0.169,-0.468 -0.709,-1.375 -1.129,-1.642 -0.402,-0.258 -1.4,-0.328 -1.877,-0.328 -14.326,0 -47.242,0 -56.357,0 -0.461,0 -0.729,0.123 -0.905,0.282 -0.148,0.136 -0.311,0.484 -0.311,0.686 0,3.037 0,10.631 0,14.121 0,1.259 0.166,1.47 0.497,1.798 0.298,0.294 0.643,0.437 1.618,0.437 3.851,0 14.481,0 14.481,0 0,0 0,29.75 0,39.667 0,0.559 -0.014,1.377 0.41,1.799 0.441,0.442 1.323,0.44 1.9,0.44 3.429,0 10.283,0 13.711,0 0.633,0 1.597,-0.135 1.952,-0.493 0.428,-0.429 0.576,-1.148 0.576,-1.695 0,-9.931 0,-39.718 0,-39.718 h 9.265 c 0,0 12.653,30.045 16.872,40.059 0.239,0.568 0.731,1.609 1.205,1.922 0.47,0.309 0.873,0.35 2.225,0.35 2.28,0 7.428,0 10.68,0 1.58,0 2.21,-0.369 2.699,-0.766 0.411,-0.339 0.841,-0.912 1.062,-1.472 3.953,-9.921 15.806,-39.691 15.806,-39.691 -0.599,3.642 -0.924,7.375 -0.924,11.187 0,37.789 30.637,68.423 68.424,68.423 37.79,0 68.425,-30.635 68.425,-68.423 C 302.385,46.71 271.747,16.074 233.96,16.074 Z m 14.914,96.02 c 0,0 0.726,1.014 0.185,1.941 -0.563,0.965 -1.668,0.771 -1.668,0.771 l -18.258,-0.009 c 0,0 -1.018,0.017 -1.73,-0.353 -0.885,-0.457 -0.398,-0.241 -1.092,-0.887 L 216.177,98.761 h -1.872 c 0,0 0,10.292 0,14.035 0,1.008 -0.006,1.303 -0.359,1.654 -0.274,0.273 -0.654,0.351 -1.488,0.351 -4.365,0 -12.395,0 -17.259,0 -0.564,0 -0.953,-0.034 -1.345,-0.426 -0.353,-0.353 -0.375,-1.178 -0.375,-1.317 0,-13.614 0,-42.956 0,-57.274 0,-0.4 0.313,-0.981 0.564,-1.195 0.255,-0.217 0.814,-0.406 1.273,-0.406 6.945,0 27.785,0 27.785,0 8.73,0 15.104,2.991 19.082,7.052 3.465,3.384 5.637,9.821 5.637,15.659 -0.137,9.894 -2.93,13.52 -10.317,17.754 z m 25.201,1.552 c 0,0.246 -0.063,0.451 -0.47,0.854 -0.355,0.354 -1.045,0.304 -1.404,0.304 -4.373,0 -17.676,0.019 -17.676,0.019 0,0 -0.607,0.007 -0.936,-0.324 -0.431,-0.442 -0.427,-1.192 -0.427,-1.192 0,0 0,-42.958 0,-57.278 0,-0.512 0.021,-0.908 0.364,-1.382 0.353,-0.475 0.883,-0.475 1.203,-0.475 4.311,0 12.914,0 17.308,0 0.651,0 1.252,0.296 1.586,0.678 0.362,0.415 0.45,0.589 0.45,2.157 0.002,14.359 0.002,42.547 0.002,56.639 z"
   id="path8" />
</g></g><g
     aria-label="BANTEN"
     transform="matrix(1.0081358,0,0,0.99192985,0.39873205,0)"
     id="text1813"
     style="font-weight:900;font-size:29.2577px;line-height:1.25;font-family:'Avenir Next LT Pro';-inkscape-font-specification:'Avenir Next LT Pro Heavy';word-spacing:0px;fill:#58595b;stroke-width:0.731444"><path
       d="m 59.603212,171.84071 c 1.082535,0 1.813978,0.38035 1.813978,1.17031 0,0.93624 -0.702185,1.37511 -1.667689,1.37511 h -1.872493 v -2.54542 z m 0.05852,7.02185 c 0.848473,0 2.135812,0.26332 2.135812,1.37511 0,0.93625 -0.7607,1.43363 -1.843235,1.43363 h -2.077297 v -2.80874 z m 5.266386,-2.57468 c 1.813977,-0.70218 3.0428,-2.13581 3.0428,-4.3594 0,-4.79826 -4.710489,-5.50045 -8.075125,-5.50045 h -8.51399 v 20.71446 h 9.391721 c 4.037563,0 8.045868,-1.5214 8.045868,-6.05635 0,-2.57467 -1.901751,-4.24236 -3.891274,-4.71049 z"
       id="path1162" /><path
       d="m 69.25822,187.14249 h 7.37294 l 1.02402,-3.0428 h 6.582982 l 1.082535,3.0428 h 7.577745 l -8.075126,-20.71446 h -7.402198 z m 13.429284,-8.36771 h -3.364635 l 1.696946,-5.12009 z"
       id="path1164" /><path
       d="m 94.361298,187.14249 h 6.612242 l -0.29258,-9.88911 h 0.11703 l 5.73451,9.88911 h 7.10962 v -20.71446 h -6.61224 l 0.29258,10.50352 h -0.11703 l -5.91006,-10.50352 h -6.934072 z"
       id="path1166" /><path
       d="m 127.83207,172.30883 h 5.09084 v -5.8808 h -17.14502 v 5.8808 h 5.09084 v 14.83366 h 6.96334 z"
       id="path1168" /><path
       d="m 135.05867,187.14249 h 14.74588 v -5.79303 h -8.19215 v -1.93101 h 7.22665 v -5.41267 h -7.22665 v -1.78472 h 7.69477 v -5.79303 h -14.2485 z"
       id="path1170" /><path
       d="m 152.70103,187.14249 h 6.61224 l -0.29258,-9.88911 h 0.11703 l 5.73451,9.88911 h 7.10962 v -20.71446 h -6.61224 l 0.29258,10.50352 h -0.11703 l -5.91006,-10.50352 h -6.93407 z"
       id="path1172" /></g></g></svg>
