<svg id="LOGO" xmlns="http://www.w3.org/2000/svg" viewBox="0 0 1185.75 337.77"><defs><style>.cls-1{fill:#0152f4;}.cls-2{fill:#fff;}</style></defs><path class="cls-1" d="M399.7,133.64v-48h61v-57H533.6l17.06,26.84V86.73A101.32,101.32,0,0,1,561,85.8c1.05,0,2.12-.07,3.17-.09h.94c.67,0,1.37,0,2,.06,1,0,2,0,3.06.09.42,0,.82.06,1.24.09A100.08,100.08,0,0,1,653,138.2a100.12,100.12,0,0,1,88.08-52.5c.38,0,.75,0,1.13,0s.92,0,1.38,0h.8c.38,0,.75,0,1.13,0,.69,0,1.37,0,2.06.06a99.56,99.56,0,0,1,23.5,3.53l1.43.41c.84.25,1.7.49,2.52.77,1.07.34,2.14.7,3.18,1.06l1.1.41c1.32.5,2.64,1,3.95,1.55l.35.16c1.28.55,2.53,1.1,3.76,1.69l.65.32c1.12.54,2.22,1.11,3.31,1.7.69.36,1.35.73,2,1.11l.37.21a100.38,100.38,0,0,1,42,46.23q1-2,2-4,1-2.17,2-4.29A90.84,90.84,0,0,1,900.5,88.13c2.21-.52,4.6-1,7-1.35,1-.15,1.88-.27,2.8-.39l.53,0a161.08,161.08,0,0,1,19.18-1,124.46,124.46,0,0,1,24,2.14c1.63.33,3.07.66,4.44,1l.36.11a89.42,89.42,0,0,1,52.68,38,.67.67,0,0,1,.12.16c0,.06.08.12.11.18a1.88,1.88,0,0,0,.12.18l.1.18a1.88,1.88,0,0,1,.12.18c0,.06.08.11.11.17a1.88,1.88,0,0,0,.12.18,1.74,1.74,0,0,0,.11.18,1.88,1.88,0,0,0,.12.18l.1.18c0,.06.08.12.12.17s.08.12.11.18a1.88,1.88,0,0,0,.12.18l.1.18a1.88,1.88,0,0,1,.12.18c0,.06.08.12.11.18s.07.1.12.16l.1.18a1.88,1.88,0,0,1,.12.18c0,.07.08.13.11.19a1.88,1.88,0,0,0,.12.18l.1.16a1.88,1.88,0,0,1,.12.18V85.59h24.8V51.13h72.88L1128.84,78v7.63h24.4l17.08,26.84v70h-41.48v27.92h24.4l17.08,26.86v69.71h-47.1c-26,0-45.8-10-57-27.59a1.88,1.88,0,0,1-.12-.18c0-.06-.08-.12-.11-.18a1,1,0,0,1-.12-.17c0-.06-.08-.12-.11-.18a1.88,1.88,0,0,0-.12-.18l-.1-.18a1.88,1.88,0,0,1-.12-.18s-.08-.11-.11-.17a1.88,1.88,0,0,0-.12-.18l-.1-.18a1.88,1.88,0,0,1-.12-.18c0-.06-.08-.12-.11-.18a.67.67,0,0,0-.12-.16l-.1-.19a1.88,1.88,0,0,1-.12-.18c0-.06-.08-.12-.11-.18a1.88,1.88,0,0,0-.12-.18,1.11,1.11,0,0,0-.11-.16,1.88,1.88,0,0,0-.12-.18l-.1-.18a1.88,1.88,0,0,1-.12-.18c0-.06-.08-.12-.11-.18l-.12-.19c0-.06-.07-.1-.1-.16a1.88,1.88,0,0,1-.12-.18c0-.06-.08-.12-.11-.18a1.88,1.88,0,0,0-.12-.18l-.1-.18a1.88,1.88,0,0,1-.12-.18c0-.05-.08-.11-.11-.17a249873901441.17,249873901441.17,0,0,0-.24-.36c0-.06-.08-.12-.11-.18a1.88,1.88,0,0,0-.12-.18l-.1-.17a1.88,1.88,0,0,1-.12-.18c0-.06-.08-.12-.11-.18a1.88,1.88,0,0,0-.12-.18l-.1-.18c0-.06-.08-.12-.12-.16s-.08-.12-.11-.18a1.88,1.88,0,0,0-.12-.18l-.1-.19a1.88,1.88,0,0,1-.12-.18c0-.06-.08-.12-.11-.18s-.07-.1-.12-.16l-.1-.18-.13-.18-.1-.18a1.88,1.88,0,0,1-.12-.18c0-.06-.08-.12-.11-.17a1.88,1.88,0,0,0-.12-.18l-.1-.18a1.88,1.88,0,0,1-.12-.18c0-.06-.08-.12-.11-.18a1.88,1.88,0,0,0-.12-.18l-.1-.17a1.88,1.88,0,0,1-.12-.18c0-.06-.08-.12-.11-.18a1.88,1.88,0,0,0-.12-.18l-.1-.18-.12-.16c0-.07-.08-.13-.11-.19L1059,268c0-.06-.08-.12-.11-.18a1.88,1.88,0,0,0-.12-.18l-.1-.18a.67.67,0,0,1-.12-.16c0-.06-.08-.12-.11-.18a1.88,1.88,0,0,1-.12-.18,1.88,1.88,0,0,0-.12-.18l-.1-.19-.12-.16c0-.06-.08-.12-.11-.18a1.88,1.88,0,0,0-.12-.18l-.1-.18a1.88,1.88,0,0,1-.12-.18c0-.06-.08-.12-.11-.17a1.88,1.88,0,0,1-.12-.18c0-.06-.08-.12-.11-.18a1.88,1.88,0,0,0-.12-.18l-.1-.18a1.88,1.88,0,0,1-.12-.18c0-.05-.08-.11-.11-.17a1.88,1.88,0,0,0-.12-.18l-.1-.18a1.88,1.88,0,0,1-.12-.18c0-.06-.08-.12-.11-.18a.67.67,0,0,0-.12-.16l-.1-.18a1.88,1.88,0,0,1-.12-.18c0-.07-.08-.13-.11-.19a1.88,1.88,0,0,0-.12-.18,1.74,1.74,0,0,0-.11-.18s-.07-.1-.12-.16l-.1-.18a1.88,1.88,0,0,1-.12-.18c0-.06-.08-.12-.11-.18a1.88,1.88,0,0,0-.12-.18l-.1-.17a1.88,1.88,0,0,1-.12-.18c0-.06-.08-.12-.11-.18a1.88,1.88,0,0,0-.12-.18l-.1-.18a1.88,1.88,0,0,1-.12-.18.62.62,0,0,1-.11-.17,1.88,1.88,0,0,1-.12-.18,1.88,1.88,0,0,0-.12-.18l-.1-.18-.13-.18-.1-.17a1.88,1.88,0,0,1-.12-.18c0-.06-.08-.12-.11-.18a1.88,1.88,0,0,0-.12-.18l-.1-.18a1.88,1.88,0,0,1-.12-.18,1.11,1.11,0,0,1-.11-.16,1.88,1.88,0,0,0-.12-.18l-.1-.18a1.88,1.88,0,0,1-.12-.18c0-.07-.08-.13-.11-.19l-.12-.16-.1-.18a1.88,1.88,0,0,1-.12-.18c0-.06-.08-.12-.11-.18a1.88,1.88,0,0,1-.12-.18c0-.06-.08-.12-.11-.17a1.88,1.88,0,0,0-.12-.18l-.1-.18a1.88,1.88,0,0,1-.12-.18c0-.06-.08-.12-.11-.18a1.88,1.88,0,0,0-.12-.18l-.1-.17a1.88,1.88,0,0,1-.12-.18c0-.06-.08-.12-.11-.18a1.88,1.88,0,0,0-.12-.18l-.1-.18c0-.06-.08-.12-.12-.16s-.08-.12-.11-.18l-.12-.19c0-.06-.08-.12-.11-.18a1.88,1.88,0,0,0-.12-.18l-.1-.18a.48.48,0,0,1-.12-.16,1.88,1.88,0,0,1-.12-.18c0-.06-.08-.12-.11-.18a1.88,1.88,0,0,0-.12-.18l-.1-.18a1.77,1.77,0,0,1-.12-.17c0-.06-.08-.12-.11-.18a60.5,60.5,0,0,1-6.24-13v67.25H928.57c-33.22,0-61.84-14.85-80.63-38.94-2,2.48-4.06,4.88-6.29,7.17l-3.6,3.43c-1.62,1.53-3.29,3-5,4.44-.18.16-.37.33-.57.49s-.38.3-.57.46c-.59.46-1.18.93-1.78,1.38-.28.24-.58.45-.87.68-.89.66-1.79,1.32-2.71,1.95-.67.48-1.37.93-2,1.4-1.16.77-2.32,1.51-3.51,2.23a106.09,106.09,0,0,1-55.18,15.31h-1.35c-.48,0-1,0-1.45,0a126.44,126.44,0,0,1-17.48-1.57A106.74,106.74,0,0,1,729,301.15c-22.59-7.7-39.3-23.59-55.26-40.8-1.94-2.09-3.87-4.18-5.82-6.27-.62-.66-1.23-1.34-1.83-2-14.73,33.44-46.53,54.87-83.88,54.87H477.79v-.17h-.12v-.18h-.11v-.18h-.12v-.18h-.12V306h-.1v-.17h-.12v-.18H477v-.18h-.12v-.18h-.1v-.18h-.12V305h-.11v-.16h-.12v-.18h-.11v-.19h-.12v-.18h-.1v-.18H476v-.16h-.11v-.18h-.12v-.18h-.1v-.18h-.12v-.18h-.11V303h-.12v-.17h-.1v-.18h-.12v-.18H475v-.18h-.12v-.18h-.11V302h-.12v-.18h-.1v-.18h-.12v-.18h-.11v-.18h-.12v-.18h-.1v-.17h-.12v-.18h-.11v-.18h-.12v-.18h-.1v-.18h-.12V300h-.11v-.18h-.12v-.18h-.12v-.18H473v-.19h-.12v-.16h-.1v-.18h-.12v-.18h-.11v-.18h-.12v-.18h-.1v-.18h-.12v-.17h-.11v-.18H472v-.18h-.1v-.18h-.12v-.18h-.11v-.17h-.12V297h-.1v-.18h-.13v-.18h-.1v-.18h-.12v-.18H471v-.16h-.12v-.19h-.1v-.18h-.12v-.18h-.11v-.18h-.12v-.16h-.1V295h-.12v-.18h-.11v-.18H470v-.18h-.1v-.18h-.12v-.17h-.11V294h-.12v-.18h-.11v-.18h-.12v-.18h-.1v-.17h-.12v-.18H469v-.18h-.12v-.18h-.12v-.18h-.1v-.17h-.12v-.18h-.11V292h-.12v-.18h-.1v-.18h-.12v-.18H468v-.16h-.12v-.18h-.11v-.18h-.12v-.19h-.1v-.18h-.12v-.16h-.11v-.18h-.12v-.18h-.1v-.18h-.12v-.18h-.11v-.18h-.12v-.17h-.1v-.18h-.12V289h-.11v-.18h-.12v-.18h-.11v-.17H466v-.18h-.1v-.18h-.12v-.18h-.11v-.18h-.12v-.18h-.1v-.16h-.12v-.19h-.11V287h-.12v-.18H465v-.18h-.12v-.16h-.11v-.18h-.12v-.18h-.12V286h-.1v-.18h-.13v-.17h-.1v-.18h-.12v-.18H464v-.18s-.12,0-.12,0c-15.43,13.84-37,21.89-62.22,21.89-34.13,0-61.51-14.58-76.28-38.31,0-.06-.08-.12-.11-.18l-.12-.19a1.12,1.12,0,0,1-.1-.16,1.88,1.88,0,0,1-.12-.18c0-.06-.08-.12-.11-.18a1.88,1.88,0,0,0-.12-.18l-.1-.18a1,1,0,0,1-.12-.17,1.74,1.74,0,0,1-.11-.18,1.88,1.88,0,0,1-.12-.18c0-.06-.08-.12-.11-.18a1.88,1.88,0,0,0-.12-.18l-.1-.17a.94.94,0,0,1-.12-.18c0-.06-.08-.12-.11-.18a1.88,1.88,0,0,1-.12-.18.94.94,0,0,0-.12-.18,1.12,1.12,0,0,0-.1-.16,1.88,1.88,0,0,0-.12-.18c0-.06-.08-.12-.11-.18a1.88,1.88,0,0,0-.12-.18c0-.07-.07-.13-.1-.19a1.88,1.88,0,0,1-.12-.18c0-.06-.08-.1-.11-.16a1.88,1.88,0,0,1-.12-.18c0-.06-.08-.12-.11-.18a1.88,1.88,0,0,0-.12-.18l-.1-.18c0-.06-.08-.12-.12-.17s-.08-.12-.11-.18a1.88,1.88,0,0,0-.12-.18l-.1-.18a1.88,1.88,0,0,1-.12-.18c0-.06-.08-.12-.11-.18a1.77,1.77,0,0,0-.12-.17l-.1-.18a1.88,1.88,0,0,1-.12-.18c0-.06-.08-.12-.11-.18a1.88,1.88,0,0,0-.12-.18c0-.06-.08-.1-.11-.16l-.12-.19-.1-.18a1.88,1.88,0,0,1-.12-.18c0-.06-.08-.12-.11-.18a1.88,1.88,0,0,0-.12-.18,1.12,1.12,0,0,1-.1-.16,1.88,1.88,0,0,1-.12-.18c0-.06-.08-.12-.11-.18a1.88,1.88,0,0,0-.12-.18l-.1-.18a1.36,1.36,0,0,1-.12-.17c0-.06-.08-.12-.11-.18a1.88,1.88,0,0,1-.12-.18.94.94,0,0,0-.12-.18c0-.06-.08-.12-.11-.18a1.88,1.88,0,0,0-.12-.18l-.1-.17a1.88,1.88,0,0,1-.12-.18c0-.06-.08-.12-.11-.18a1.88,1.88,0,0,0-.12-.18l-.1-.18a1.77,1.77,0,0,1-.12-.17c0-.06-.08-.12-.11-.18a1.88,1.88,0,0,0-.12-.18l-.1-.18a1.88,1.88,0,0,1-.12-.18,1.11,1.11,0,0,0-.11-.16,1.88,1.88,0,0,0-.12-.18l-.1-.18c-.05-.06-.08-.12-.13-.19l-.1-.18a1.88,1.88,0,0,1-.12-.18c0-.06-.08-.1-.11-.16a1.88,1.88,0,0,0-.12-.18l-.1-.18a1.88,1.88,0,0,1-.12-.18c0-.06-.08-.12-.11-.18a1,1,0,0,0-.12-.17l-.1-.18a1.88,1.88,0,0,1-.12-.18c0-.06-.08-.12-.11-.18a1.88,1.88,0,0,0-.12-.18l-.1-.18a1.77,1.77,0,0,1-.12-.17c0-.06-.08-.12-.11-.18a1.88,1.88,0,0,1-.12-.18c0-.06-.08-.12-.11-.18a1.88,1.88,0,0,0-.12-.18c0-.06-.07-.1-.1-.16a1,1,0,0,1-.12-.19c0-.06-.08-.12-.11-.18a1.88,1.88,0,0,1-.12-.18.94.94,0,0,0-.12-.18l-.1-.18a.67.67,0,0,1-.12-.16c0-.06-.08-.12-.11-.18a1.88,1.88,0,0,0-.12-.18l-.1-.18a1.22,1.22,0,0,1-.12-.19c0-.06-.08-.1-.11-.16a1.88,1.88,0,0,1-.12-.18c0-.06-.08-.12-.11-.18a1.88,1.88,0,0,0-.12-.18l-.1-.18a1.88,1.88,0,0,1-.12-.18c0-.05-.08-.11-.11-.17a1.88,1.88,0,0,0-.12-.18l-.1-.18a1.88,1.88,0,0,1-.12-.18c0-.06-.08-.12-.11-.18a1.77,1.77,0,0,0-.12-.17l-.1-.18a1.88,1.88,0,0,1-.12-.18c0-.06-.08-.12-.11-.18a1.88,1.88,0,0,0-.12-.18,1.11,1.11,0,0,0-.11-.16,1.88,1.88,0,0,0-.12-.18l-.1-.18a2,2,0,0,1-.12-.19c0-.06-.08-.12-.11-.18a1.88,1.88,0,0,0-.12-.18c0-.06-.07-.1-.1-.16a1.88,1.88,0,0,1-.12-.18c0-.06-.08-.12-.11-.18a1.88,1.88,0,0,0-.12-.18l-.1-.18a.88.88,0,0,1-.12-.17c0-.06-.08-.12-.11-.18a1.88,1.88,0,0,1-.12-.18.94.94,0,0,0-.12-.18c0-.06-.08-.12-.11-.18a1.88,1.88,0,0,0-.12-.18l-.1-.17a1.88,1.88,0,0,1-.12-.18c0-.06-.08-.12-.11-.18a1.88,1.88,0,0,0-.12-.18l-.1-.18a1,1,0,0,1-.12-.17c0-.06-.08-.12-.11-.18a1.88,1.88,0,0,0-.12-.18l-.1-.18a1.88,1.88,0,0,1-.12-.18c0-.06-.08-.12-.11-.18s-.07-.1-.12-.16l-.1-.18-.13-.18-.1-.18a2,2,0,0,1-.12-.19c0-.06-.08-.1-.11-.16a1.88,1.88,0,0,0-.12-.18c-7.79-12.44-12.11-27.4-12.11-44.09V85.68h72.89Z"/><path class="cls-2" d="M414.75,193.54c0,18.15-11.84,29.87-30.16,29.87-18.49,0-30.45-11.72-30.45-29.87V100.72H311.35v97.15c0,40.19,29.43,67.19,73.24,67.19,43.63,0,73-27,73-67.19V100.72H414.75Z"/><path class="cls-2" d="M565.14,100.74c-17.83,0-34,5.9-46.58,16.81V43.69h-42.8V265h89.38c37.29,0,66.81-25.1,75.17-61.05.21-1,.42-1.93.63-2.91a93.14,93.14,0,0,0,1.76-18.19c0-20.82-6.6-39.36-17.8-53.54C610.89,111.62,589.68,100.74,565.14,100.74Zm34.73,85.17A40.85,40.85,0,0,1,595.72,204c-6.14,12.71-18.6,21.42-33,21.42h-44.1V182.92c0-23.41,18.22-42.48,40.87-42.48,22.26,0,40.34,18.93,40.34,42.2Z"/><path class="cls-2" d="M743.63,100.74c-21.06,0-39.85,7-54.17,19-17.66,14.71-28.54,36.93-28.54,62.63A83.85,83.85,0,0,0,663,201.08c.21,1,.45,2,.7,2.91C673.13,239.94,706,265,747.39,265c24.43,0,46.9-8.67,63.23-24.19l-3.73-3.72L784.6,214.84l-3.72-3.72c-8.74,9.62-19.45,14.32-32.62,14.32-17.51,0-31.56-8-38.58-21.45-.49-1-.95-1.9-1.37-2.88H826.1V183.17C826.1,136.16,790.64,100.74,743.63,100.74Zm-38.69,63.33c1.65-6.63,6.36-12.22,12.64-16.25a48.11,48.11,0,0,1,25.77-7.48c16.75,0,35.21,9.51,38.93,23.73Z"/><path class="cls-2" d="M1096.74,66.16h-42.8v34.47h-24.79v39.92h24.79v72.88c0,32.79,19,51.61,52.21,51.61h32V225.41h-24.89c-10.54,0-16.57-6.25-16.57-17.17V140.55h41.46V100.63h-41.46Z"/><path class="cls-2" d="M954.87,103.1l-.12,0c-1.27-.32-2.56-.61-3.85-.87A109.35,109.35,0,0,0,930,100.39a144.86,144.86,0,0,0-17.39.88l-.49,0-2.37.32c-2,.3-3.94.68-5.87,1.14A74.73,74.73,0,0,0,859,133.63c-9.28,13.56-14.64,30.48-14.64,49.26a93,93,0,0,0,1.75,18.18c.21,1,.43,2,.63,2.92,8.35,35.95,37.89,61.05,75.17,61.05h89.06V175.52A74.89,74.89,0,0,0,954.87,103.1Zm13.55,122.31H924.64a35.23,35.23,0,0,1-25.83-11.55,39,39,0,0,1-6.75-9.87A41.47,41.47,0,0,1,888,185.91v-3.27c0-23.27,17.94-42.2,40-42.2h.25c22.19,0,40.23,19.07,40.23,42.48Z"/><path class="cls-1" d="M262.65,55,261,52.8A61.55,61.55,0,0,0,253,44,60.12,60.12,0,0,0,167,49.46l-.13-.19v0h0l-.13-.18v0h0l-.14-.19v0h0l-.14-.18v0h0l-.14-.19v0h0l-.14-.18v0h0L166,48v0h0l-.14-.19h0l-.14-.19v0h0l-.14-.19h0l-.14-.19h0l-.15-.2h0l-.15-.19h0l-.14-.2h0l-.14-.19h0l-.14-.2h0l-.15-.19h0l-.15-.2h0l-.15-.19h0l-.14-.2h0l-.14-.19h0l-.15-.2h0l-.15-.2h0l-.15-.2h0l-.15-.21h0l-.15-.2h0l-.15-.21h0l-.15-.2h0L151.88,29H15.73V149.75a125,125,0,0,0,.73,13.19v.1c0,79.17,68.07,143.57,151.74,143.57a156,156,0,0,0,43.08-5.88,133.61,133.61,0,0,0,39.35-18.15,124,124,0,0,0,44-54.63,122.21,122.21,0,0,0,8.68-35.42c.34-3.74.52-7.55.52-11.32V109.29l-28.2-36.95L262.75,55.1Z"/><path class="cls-2" d="M28.56,149.75A110.45,110.45,0,0,0,139,260.21h0V41.82H28.56Z"/><path class="cls-2" d="M157.46,196.35v64.43A110.46,110.46,0,0,0,267.92,150.31v-1.74H205.25A47.78,47.78,0,0,0,157.46,196.35Z"/><circle class="cls-2" cx="212.69" cy="88.71" r="47.42"/></svg>