<svg xmlns="http://www.w3.org/2000/svg" viewBox="0 0 1920 1080"><defs><style>.\38 561fed2-9840-4b5c-a05e-a03fbc6a9dbe{fill:#e48e35;}</style></defs><title>Artboard 1</title><g id="6e90a3b1-7842-4d02-acd0-5be086fc9d41" data-name="Layer 2"><path class="8561fed2-9840-4b5c-a05e-a03fbc6a9dbe" d="M1656.84,746c-35.61,45.11-40.6,29-40.57,28.05,2.18-55.36,17.44-110.29,30.81-163.85,4.4-17.63,9.43-35.26,10.66-53.47s-1.65-37.39-11.78-52.18c-9.59-14-26.59-23-42.45-19.76a3.92,3.92,0,0,0-2.49,1.72c-.74,4.28-1.58,8.65-2.54,13.08a1,1,0,0,1,0,.21c-2.19,13.14-48.3,155.54-88.93,154.46-9-.24-11.91-14.59-12.56-24.47-2.55-38,3.3-76.33,13.63-112.84,6-21.32,14.45-43.37,31.45-56.46s44.81-12.56,55.88,6.39c11.54-31.07-54-69.91-104.75-48.8-29.75,12.37-44.74,47.52-52.34,80.36a353.74,353.74,0,0,0-8.79,94.24c1.55,37.17,13.17,81.44,53.9,85.45,53.07,5.22,89.84-66.13,95.56-75.84l-20.79,81c-15.67,67.52,6.86,99.28,22.85,109.92,17.76,11.81,42.33,9.55,59-3.83,11.79-9.42,19.59-23.68,22.66-39C1666.29,745.13,1660.07,741.93,1656.84,746Z"/><path class="8561fed2-9840-4b5c-a05e-a03fbc6a9dbe" d="M1221.8,434c14.35-50.81,31.87-88.95,5.33-106.36-9.42-6.16-20.66-7.58-31.52-9.79-5.38-1.11-10.21,3.32-10.58,9.36-.89,14.83-5.6,29.42-9.62,43.77-13.35,47.63-22.42,93.86-21.47,143.73.34,18.08,4.4,40.23,10.09,57.2s16.16,32.57,30.9,40.39c13.18,7,28.93,7.16,42.69,1.72s25.57-16.2,34.14-29.33c15.91-24.35,20.52-57.29,12-85.84C1275.7,471.47,1249.24,444.42,1221.8,434Zm26.1,137.45c-2.1,3.32-8.74,8.3-12.21,9.58-6.68,2.45-14.8,1.79-18.52-6.31-19.14-41.68-9.1-84.83-.58-120.71,19.61,9.68,29.19,20.3,33.35,27.52C1265.29,508.23,1264.26,545.47,1247.9,571.44Z"/><path class="8561fed2-9840-4b5c-a05e-a03fbc6a9dbe" d="M586.76,475.22l0,.19C588.43,474.82,587.61,475,586.76,475.22Z"/><path class="8561fed2-9840-4b5c-a05e-a03fbc6a9dbe" d="M535.49,245.28c-4.27-17.06-19.24-29.17-36.42-29,0,0-1.77.08-2.42.13-16.25,1.5-28.23,14.83-30,30.6-.43,3.65,4,33.12,4.06,33.14,1.13,8.59,12.28,120.95-21,159.69-6.17,7.18-12.27,11.87-19.41,12.32-.33,0-14.93,2.44-25.55-12.77-19.62-28.1-38.73-176.51-60.89-221.63C334,197.7,312.21,184.1,290.31,182.3c-24.32-2-48.47,13.83-58.87,36.43-7.34,15.93-8.13,34.48-3.46,51.54,1.59,5.74,10.18,5.6,10.87-.34a122.58,122.58,0,0,1,4.09-20.49c3.28-13.07,8.55-22.79,15-26.83a12.5,12.5,0,0,1,6.36-2.11c12.13-.5,23.2,18.07,28,44.32.32,1.64.59,3.3.84,5a.61.61,0,0,0,0,.2c18.47,108.84,36.25,178.19,38.95,183.87,23,48.77,76.14,43.48,80.93,43.09,26.93-2.24,43.35-16.78,56.75-34.35,9.55-12.58,21.95-49.22,23.11-52.46q8.09,49.74,16.17,99.44c-9,4.93-17.14,9.89-24.56,14.92-34.49,23.31-53.52,47.79-69.28,76.26a291,291,0,0,0-34.58,167.1c4.23,44.28,21.87,91.35,60.15,112.38,30.68,16.85,69.78,13,99.66-5.1s51.1-49,63-82.45,12.69-68.56,12.07-104.22C614.19,610.87,545,283.25,535.49,245.28ZM481.33,851.12s-.07,0-.11,0c-63,14-114.93-150-25.27-264.28A234.05,234.05,0,0,1,513.15,535v.09a.68.68,0,0,1,0,.15c.78,3.8,8.14,55.43,18.26,112.06C564,829.63,490.31,849.1,481.33,851.12Z"/><path class="8561fed2-9840-4b5c-a05e-a03fbc6a9dbe" d="M1690.35,191.36c-11.81,12.48-45.13,52.67-182,17.77-36.05-9.19-84.68-9.14-128.73,26.45,47.55-11.13,61.16,4.71,106,23,64.51,26.35,120.68-.46,141-13a.49.49,0,0,1,.54.81C1555.37,303.12,1489,275,1473,266.84a159.37,159.37,0,0,0-14.93-6.74c-20.21-7.88-37.41-11.28-52.06-11.38-35.28-.24-64.84,26.7-68.65,61.77l0,.37c-4.35,40.7,83.4,76.34,83.13,110.32a1.64,1.64,0,0,1-2.47,1.37c-13.69-8.06-48.1-30.82-78.71-12.93-55.53,32.46-47.11,143.14-27.61,185.79,8.23,18,29.86,38.72,51.9,32.31,38.38-11.16,89.53-138.32,73.61-221-9.35-48.51-81-80.15-58.89-116.14,9.16-14.9,30.47-24.61,114.95,15.14C1592.37,352.43,1685,257.54,1695.61,194A3.08,3.08,0,0,0,1690.35,191.36ZM1402.15,529.5c-11.28,36.3-27.67,61.84-38.77,59-12.46-3.23-13.59-41-2.51-84.32,1.88-7.34,13.91-46,26.13-61.89,8.81-11.44,18.79-10.44,25.57-7.24a13.08,13.08,0,0,1,7.33,12.69A273.64,273.64,0,0,1,1402.15,529.5Z"/></g><g id="3d24e1c9-ac01-4432-9d68-3349cc04dcaf" data-name="Layer 3"><path class="8561fed2-9840-4b5c-a05e-a03fbc6a9dbe" d="M1133.35,375.46c-6.45-15.66-24.73-27-40.68-25.56a5.76,5.76,0,0,0-5.17,5.72s.31,10.46.52,12.35c-7.73-7.45-22.41-13.39-24.12-14-25.36-9-52.15-16.4-77.12,2.77-62,47.61-21,180.4-18.81,186.84,0,0,15.65,41.18,42.74,46.17,31.38,5.78,64.36-31.81,76.15-85.85l0,4.41c.05,4.75-3.59,80.22-3.59,80.22-6.56,2.6-78.48,33.17-117.84,112-16.95,33.91-23.85,72.19-17.94,109.64,5.56,35.21,20.76,63.17,44.07,72.39,96.8,38.32,154.24-128.24,150.71-332.42C1141,476.38,1136.1,382.08,1133.35,375.46ZM1080.6,722.79c-5.86,61.17-16.2,111-42,124-77.37,39-77.69-187.31,46.72-235.29C1086.92,651.79,1083.64,690.7,1080.6,722.79Zm4.57-290.44c-3.47,73.39-36.27,133.91-48.37,131.43-19.6-4-46.84-111,5.38-186.36,4.55-6.57,13.67-6.57,20.63-5,10.56,2.42,18.37,12.48,21.91,26.11C1086.77,406.43,1085.94,416.22,1085.18,432.34Z"/><path class="8561fed2-9840-4b5c-a05e-a03fbc6a9dbe" d="M768.44,550.32a7.59,7.59,0,0,0-14.69.59c-4.14,19.21-10.57,42-19.26,51.87-6.49,7.32-17.67,11.91-31,2.29-43-31-34.88-179.68-26.36-191.51,4.45-6.18,9.57-6.63,14.47-5.46,19.78,4.86,22.33,31,22.16,50a7.55,7.55,0,0,0,3.16,6.39c4.58,3,8.47-3,9.56-8,4.21-19.54-1.06-41.28-14.14-55.89s-33.73-21.36-52-16.41C645,388.31,631,395.8,618.61,415c-8.93,13.81-29.14,71.27,2.21,156.79s92.31,71,105.35,63.74c31.76-17.7,40.84-61.17,42.26-85.22Z"/><path class="8561fed2-9840-4b5c-a05e-a03fbc6a9dbe" d="M979.75,586.92a4.76,4.76,0,0,0-8.65-1.22c-7.37,12.07-19.79,30.4-25,21.59-1.41-3.12-6.2-24-13.93-150.54-.91-15-7.75-29.7-17.84-39.36-6.55-6.32-15.39-10-23.89-9.6-1.9-21.91-32.76-33.83-34.35-34.35-23.51-6.86-50.41-8.79-70,7.89s-25.54,48-24.68,76.06c3.44,113.29,43.83,138.26,70.43,136.13,5.69-.53,23.41-1.48,43.05-56.73,3.12-8.78,6.25-17.66,8.78-26.75l.16,4.34c.83,13.53,4.54,69.93,28.21,102C922,629.87,940.15,635,955,627.34a40,40,0,0,0,13.23-11.19A60.66,60.66,0,0,0,979.84,589,4.9,4.9,0,0,0,979.75,586.92ZM879,435.54c-.3,15.11-6.17,65.31-26.68,118.24-2.4,6.12-5.9,13-11.65,13.76-7.52,1-12.4-8.64-14.73-16.84-7.88-27.68-24.06-119.29,21.61-151.09a17.39,17.39,0,0,1,10.67-2.07C874.51,399.85,879.3,420.6,879,435.54Z"/></g></svg>