<?xml version="1.0" encoding="UTF-8" standalone="no"?>
<!-- Generator: Adobe Illustrator 21.1.0, SVG Export Plug-In . SVG Version: 6.00 Build 0)  -->

<svg
   xmlns:dc="http://purl.org/dc/elements/1.1/"
   xmlns:cc="http://creativecommons.org/ns#"
   xmlns:rdf="http://www.w3.org/1999/02/22-rdf-syntax-ns#"
   xmlns:svg="http://www.w3.org/2000/svg"
   xmlns="http://www.w3.org/2000/svg"
   xmlns:xlink="http://www.w3.org/1999/xlink"
   xmlns:sodipodi="http://sodipodi.sourceforge.net/DTD/sodipodi-0.dtd"
   xmlns:inkscape="http://www.inkscape.org/namespaces/inkscape"
   version="1.1"
   id="Layer_1"
   x="0px"
   y="0px"
   width="999.99994"
   height="740.04669"
   viewBox="0 0 999.99994 740.04667"
   xml:space="preserve"
   sodipodi:docname="Utsav_Bharat_logo.svg"
   inkscape:version="0.92.3 (2405546, 2018-03-11)"><metadata
   id="metadata36"><rdf:RDF><cc:Work
       rdf:about=""><dc:format>image/svg+xml</dc:format><dc:type
         rdf:resource="http://purl.org/dc/dcmitype/StillImage" /><dc:title /></cc:Work></rdf:RDF></metadata><defs
   id="defs34">
<linearGradient
   gradientTransform="matrix(0.34407803,0,0,0.34407803,-908.14385,-400.58254)"
   inkscape:collect="always"
   xlink:href="#linearGradient939"
   id="linearGradient931-4"
   gradientUnits="userSpaceOnUse"
   x1="288.61188"
   y1="688.23383"
   x2="427.04883"
   y2="517.56641" /><linearGradient
   inkscape:collect="always"
   id="linearGradient939"><stop
     style="stop-color:#41badf;stop-opacity:1"
     offset="0"
     id="stop935" /><stop
     style="stop-color:#acca77;stop-opacity:1"
     offset="1"
     id="stop937" /></linearGradient><linearGradient
   gradientTransform="matrix(1.3004524,0,0,1.3004524,-908.14385,-400.58254)"
   inkscape:collect="always"
   xlink:href="#linearGradient939"
   id="linearGradient933"
   gradientUnits="userSpaceOnUse"
   x1="135.51414"
   y1="132.66666"
   x2="145.09465"
   y2="129.21071" /></defs><sodipodi:namedview
   pagecolor="#ffffff"
   bordercolor="#666666"
   borderopacity="1"
   objecttolerance="10"
   gridtolerance="10"
   guidetolerance="10"
   inkscape:pageopacity="0"
   inkscape:pageshadow="2"
   inkscape:window-width="1366"
   inkscape:window-height="705"
   id="namedview32"
   showgrid="false"
   inkscape:zoom="0.472"
   inkscape:cx="148.51848"
   inkscape:cy="326.72135"
   inkscape:window-x="-8"
   inkscape:window-y="-8"
   inkscape:window-maximized="1"
   inkscape:current-layer="Layer_1" />
<style
   type="text/css"
   id="style2">
	.st0{fill:#FFFFFF;}
	.st1{fill:#0066B2;}
	.st2{fill:#00A551;}
	.st3{fill:#EC1C24;}
	.st4{fill:#231F20;}
	.st5{fill:#221F1F;}
</style>

<g
   id="g890"><g
   aria-label="Utsav Bharat"
   style="font-style:normal;font-variant:normal;font-weight:bold;font-stretch:normal;font-size:176.01242065px;line-height:1.25;font-family:Roboto;-inkscape-font-specification:'Roboto Bold';letter-spacing:0px;word-spacing:0px;fill:#1e45b0;fill-opacity:1;stroke:none;stroke-width:0.33002326"
   id="text1108-0"><path
     d="m 95.913018,613.19399 v 82.41988 q 0,20.54051 -12.891535,32.48667 -12.805591,11.94615 -35.064974,11.94615 -21.915609,0 -34.807144,-11.60238 Q 0.2578304,716.84193 -2.9802322e-7,696.55925 V 613.19399 H 25.783069 v 82.59177 q 0,12.28993 5.844163,17.9622 5.930106,5.58633 16.329277,5.58633 21.743722,0 22.087496,-22.86099 v -83.27931 z"
     style="fill:#1e45b0;fill-opacity:1;stroke-width:0.33002326"
     id="path823"
     inkscape:connector-curvature="0" /><path
     d="m 145.30569,622.47589 v 22.86099 h 15.89956 v 18.22004 h -15.89956 v 46.40952 q 0,5.15662 1.97671,7.39115 1.9767,2.23453 7.56303,2.23453 4.12529,0 7.3052,-0.6016 v 18.82164 q -7.3052,2.23453 -15.04012,2.23453 -26.12684,0 -26.64251,-26.38467 v -50.1051 H 106.88892 V 645.33688 H 120.468 v -22.86099 z"
     style="fill:#1e45b0;fill-opacity:1;stroke-width:0.33002326"
     id="path825"
     inkscape:connector-curvature="0" /><path
     d="m 225.54108,712.63069 q 0,-4.555 -4.55501,-7.13331 -4.46907,-2.66425 -14.43852,-4.7269 -33.17422,-6.96143 -33.17422,-28.18949 0,-12.37587 10.22729,-20.62645 10.31322,-8.33653 26.90033,-8.33653 17.70438,0 28.27543,8.33653 10.65701,8.33652 10.65701,21.65778 H 224.5957 q 0,-5.32851 -3.43775,-8.76625 -3.43774,-3.52368 -10.74294,-3.52368 -6.27388,0 -9.71163,2.83613 -3.43774,2.83614 -3.43774,7.21926 0,4.12529 3.86746,6.7036 3.95341,2.49236 13.23531,4.38312 9.28191,1.80482 15.64173,4.12529 19.68108,7.21926 19.68108,25.00958 0,12.71965 -10.91484,20.62646 -10.91483,7.82086 -28.18949,7.82086 -11.68832,0 -20.79834,-4.12529 -9.02407,-4.21123 -14.18069,-11.43049 -5.15661,-7.30521 -5.15661,-15.72768 h 23.54854 q 0.34377,6.61766 4.89878,10.14134 4.55501,3.52369 12.20399,3.52369 7.13331,0 10.74294,-2.66425 3.69558,-2.75019 3.69558,-7.13332 z"
     style="fill:#1e45b0;fill-opacity:1;stroke-width:0.33002326"
     id="path827"
     inkscape:connector-curvature="0" /><path
     d="m 320.24919,738.32782 q -1.71887,-3.3518 -2.49236,-8.33653 -9.02407,10.0554 -23.46259,10.0554 -13.66503,0 -22.6891,-7.90681 -8.93813,-7.9068 -8.93813,-19.9389 0,-14.7823 10.91483,-22.6891 11.00077,-7.90681 31.71317,-7.99276 h 11.4305 v -5.3285 q 0,-6.44576 -3.3518,-10.31323 -3.26586,-3.86746 -10.39917,-3.86746 -6.27388,0 -9.88351,3.00803 -3.52369,3.00802 -3.52369,8.25058 h -24.83769 q 0,-8.07869 4.98473,-14.95418 4.98473,-6.87548 14.09474,-10.74294 9.11002,-3.95341 20.45457,-3.95341 17.18871,0 27.24411,8.6803 10.14134,8.59436 10.14134,24.23609 v 40.30753 q 0.086,13.23531 3.69558,20.02485 v 1.46104 z m -20.54051,-17.27466 q 5.50039,0 10.14134,-2.40642 4.64096,-2.49236 6.87549,-6.61765 v -15.9855 h -9.28191 q -18.64975,0 -19.85296,12.89153 l -0.0859,1.46104 q 0,4.64095 3.26585,7.64898 3.26586,3.00802 8.93813,3.00802 z"
     style="fill:#1e45b0;fill-opacity:1;stroke-width:0.33002326"
     id="path829"
     inkscape:connector-curvature="0" /><path
     d="m 390.78279,707.98974 17.27466,-62.65286 h 25.95495 l -31.3694,92.99094 h -23.72042 l -31.3694,-92.99094 h 25.95495 z"
     style="fill:#1e45b0;fill-opacity:1;stroke-width:0.33002326"
     id="path831"
     inkscape:connector-curvature="0" /><path
     d="M 492.96465,738.32782 V 613.19399 h 43.83122 q 22.77505,0 34.54931,8.76624 11.77427,8.6803 11.77427,25.52524 0,9.19596 -4.72689,16.24334 -4.7269,6.96142 -13.14937,10.22728 9.62568,2.40642 15.12607,9.71162 5.58633,7.30521 5.58633,17.87626 0,18.04815 -11.51644,27.33006 -11.51643,9.2819 -32.83044,9.45379 z m 25.78307,-54.48822 v 33.77582 h 22.0875 q 9.11002,0 14.18069,-4.29718 5.15661,-4.38312 5.15661,-12.0321 0,-17.18871 -17.79032,-17.44654 z m 0,-18.22004 h 19.07947 q 19.50919,-0.34377 19.50919,-15.55578 0,-8.50841 -4.98472,-12.20399 -4.89879,-3.78151 -15.55579,-3.78151 h -18.04815 z"
     style="fill:#1e45b0;fill-opacity:1;stroke-width:0.33002326"
     id="path833"
     inkscape:connector-curvature="0" /><path
     d="m 627.57773,655.47822 q 9.88351,-11.86021 24.83769,-11.86021 30.25213,0 30.68185,35.15092 v 59.55889 h -24.83769 v -58.87134 q 0,-7.99275 -3.43774,-11.77427 -3.43774,-3.86746 -11.43049,-3.86746 -10.91484,0 -15.81362,8.42247 v 66.0906 H 602.74004 V 606.3185 h 24.83769 z"
     style="fill:#1e45b0;fill-opacity:1;stroke-width:0.33002326"
     id="path835"
     inkscape:connector-curvature="0" /><path
     d="m 755.41368,738.32782 q -1.71887,-3.3518 -2.49236,-8.33653 -9.02407,10.0554 -23.46259,10.0554 -13.66503,0 -22.6891,-7.90681 -8.93813,-7.9068 -8.93813,-19.9389 0,-14.7823 10.91483,-22.6891 11.00077,-7.90681 31.71317,-7.99276 H 751.89 v -5.3285 q 0,-6.44576 -3.3518,-10.31323 -3.26586,-3.86746 -10.39917,-3.86746 -6.27388,0 -9.88351,3.00803 -3.52369,3.00802 -3.52369,8.25058 h -24.83769 q 0,-8.07869 4.98473,-14.95418 4.98472,-6.87548 14.09474,-10.74294 9.11002,-3.95341 20.45457,-3.95341 17.18871,0 27.24411,8.6803 10.14134,8.59436 10.14134,24.23609 v 40.30753 q 0.086,13.23531 3.69558,20.02485 v 1.46104 z m -20.54051,-17.27466 q 5.50039,0 10.14134,-2.40642 4.64096,-2.49236 6.87549,-6.61765 v -15.9855 h -9.28191 q -18.64975,0 -19.85296,12.89153 l -0.0859,1.46104 q 0,4.64095 3.26585,7.64898 3.26586,3.00802 8.93813,3.00802 z"
     style="fill:#1e45b0;fill-opacity:1;stroke-width:0.33002326"
     id="path837"
     inkscape:connector-curvature="0" /><path
     d="m 849.38446,668.62759 q -5.07068,-0.68755 -8.93814,-0.68755 -14.09474,0 -18.47786,9.53974 v 60.84804 h -24.83769 v -92.99094 h 23.46259 l 0.68755,11.08672 q 7.47709,-12.80559 20.7124,-12.80559 4.12529,0 7.73492,1.11727 z"
     style="fill:#1e45b0;fill-opacity:1;stroke-width:0.33002326"
     id="path839"
     inkscape:connector-curvature="0" /><path
     d="m 911.66472,738.32782 q -1.71887,-3.3518 -2.49236,-8.33653 -9.02408,10.0554 -23.46259,10.0554 -13.66503,0 -22.68911,-7.90681 -8.93813,-7.9068 -8.93813,-19.9389 0,-14.7823 10.91484,-22.6891 11.00077,-7.90681 31.71317,-7.99276 h 11.4305 v -5.3285 q 0,-6.44576 -3.3518,-10.31323 -3.26586,-3.86746 -10.39917,-3.86746 -6.27389,0 -9.88351,3.00803 -3.52369,3.00802 -3.52369,8.25058 h -24.83769 q 0,-8.07869 4.98473,-14.95418 4.98472,-6.87548 14.09474,-10.74294 9.11002,-3.95341 20.45457,-3.95341 17.18871,0 27.24411,8.6803 10.14134,8.59436 10.14134,24.23609 v 40.30753 q 0.0859,13.23531 3.69557,20.02485 v 1.46104 z m -20.54051,-17.27466 q 5.50039,0 10.14134,-2.40642 4.64095,-2.49236 6.87549,-6.61765 v -15.9855 h -9.28191 q -18.64975,0 -19.85296,12.89153 l -0.086,1.46104 q 0,4.64095 3.26586,7.64898 3.26585,3.00802 8.93813,3.00802 z"
     style="fill:#1e45b0;fill-opacity:1;stroke-width:0.33002326"
     id="path841"
     inkscape:connector-curvature="0" /><path
     d="m 983.15502,622.47589 v 22.86099 h 15.89956 v 18.22004 h -15.89956 v 46.40952 q 0,5.15662 1.9767,7.39115 1.97671,2.23453 7.56304,2.23453 4.12529,0 7.3052,-0.6016 v 18.82164 q -7.3052,2.23453 -15.04012,2.23453 -26.12685,0 -26.64251,-26.38467 v -50.1051 h -13.57908 v -18.22004 h 13.57908 v -22.86099 z"
     style="fill:#1e45b0;fill-opacity:1;stroke-width:0.33002326"
     id="path843"
     inkscape:connector-curvature="0" /></g>
<g
   transform="matrix(5.0566337,0,0,5.0566337,4420.4666,1299.7512)"
   id="g880"><path
     inkscape:connector-curvature="0"
     id="path921"
     d="m -781.62864,-257.03883 -34.46627,58.29099 c 13.96521,-9.03389 33.80871,-16.50801 55.78298,-22.23874 5.52435,-1.4407 11.1824,-2.7725 16.91694,-3.98982 -6.86578,0.7625 -12.67267,1.54143 -17.81074,2.47709 z m 43.09981,34.66922 c -6.56775,1.49397 -12.8781,3.62026 -18.90884,6.24381 -30.33731,13.1976 -53.57695,39.01914 -66.63891,60.70558 h 102.53324 l -33.37624,-56.44829 c 4.56003,-3.94061 9.67327,-6.83155 16.39075,-10.5011 z"
     style="fill:url(#linearGradient931-4);fill-opacity:1;stroke:none;stroke-width:0.26458332px;stroke-linecap:butt;stroke-linejoin:miter;stroke-opacity:1" /><path
     inkscape:connector-curvature="0"
     id="path923"
     d="m -737.23995,-225.4473 a 12.411428,12.411428 0 0 1 16.08493,7.02566 12.411428,12.411428 0 0 1 7.02567,-16.08493 12.411428,12.411428 0 0 1 -16.08495,-7.02567 12.411428,12.411428 0 0 1 -7.02565,16.08494 z"
     style="opacity:1;fill:url(#linearGradient933);fill-opacity:1;stroke:none;stroke-width:1.20700002;stroke-linecap:round;stroke-linejoin:round;stroke-miterlimit:4;stroke-dasharray:none;stroke-opacity:1" /></g></g></svg>