<?xml version="1.0" encoding="UTF-8"?> <svg xmlns="http://www.w3.org/2000/svg" width="104" height="41" viewBox="0 0 104 41" fill="none"> <path d="M25.5281 15.5309C26.1273 15.4709 26.6667 15.3611 27.166 15.2013C27.6654 15.0415 28.1049 14.8317 28.5044 14.5521C28.9039 14.2724 29.2035 13.9229 29.4132 13.4934C29.613 13.0639 29.6829 12.5646 29.623 12.0153C29.5031 10.9666 28.9638 10.2974 28.005 9.99777C28.8539 9.37855 29.2235 8.6195 29.1236 7.72062C29.0437 6.99153 28.7141 6.47218 28.1348 6.16257C27.5556 5.85295 26.8564 5.74309 26.0275 5.82299L23.0112 6.14259L23.0212 15.8005L25.5281 15.5309ZM27.0762 12.235C27.176 13.1438 26.8065 13.6332 25.9575 13.7231L25.558 13.7631L25.5481 11.5059L26.0874 11.446C26.6767 11.386 27.0062 11.6457 27.0762 12.235ZM25.5481 7.64072L25.7678 7.62074C26.3271 7.56082 26.6267 7.80052 26.6866 8.33984C26.7366 8.82923 26.5668 9.29865 26.1673 9.75807L25.5381 9.82798L25.5481 7.64072Z" fill="white"></path> <path d="M37.0737 14.3117L37.0837 6.49151L39.6105 6.22185L40.2896 4.32422L34.5269 4.92347L34.5468 14.5814L37.0737 14.3117Z" fill="white"></path> <path d="M48.2896 10.4966C48.4494 9.91737 48.5393 9.34808 48.5593 8.78878C48.5793 8.22948 48.5593 7.64021 48.4894 7.011C48.3496 5.71262 47.9201 4.80376 47.231 4.2944C46.5418 3.78503 45.573 3.59527 44.3346 3.72511C43.6055 3.80501 42.9663 3.99477 42.427 4.2944C41.8876 4.60401 41.4682 4.96356 41.1685 5.40301C40.8689 5.83247 40.6392 6.34184 40.4794 6.91112C40.3196 7.4904 40.2297 8.0497 40.2097 8.609C40.1898 9.1683 40.2097 9.75757 40.2796 10.3868C40.4195 11.6852 40.8489 12.594 41.5481 13.1034C42.2472 13.6127 43.216 13.8125 44.4444 13.6827C45.1735 13.6028 45.8127 13.413 46.3521 13.1134C46.8914 12.8038 47.3109 12.4442 47.6105 12.0048C47.9101 11.5853 48.1398 11.0759 48.2896 10.4966ZM45.7828 10.4767C45.5431 11.3256 45.0737 11.785 44.3745 11.8649C43.9051 11.9149 43.5556 11.825 43.3159 11.5953C43.0762 11.3656 42.9164 10.9261 42.8464 10.2669C42.6966 8.90863 42.7466 7.81 42.9863 6.97105C43.226 6.1321 43.6954 5.67267 44.3745 5.60276C44.8539 5.55282 45.2035 5.63272 45.4432 5.85245C45.6829 6.07217 45.8427 6.50164 45.9126 7.15082C46.0724 8.50913 46.0225 9.61774 45.7828 10.4767Z" fill="white"></path> <path d="M53.9126 12.7044C54.4419 12.6445 54.9213 12.5446 55.3608 12.3848C55.8002 12.225 56.0499 12.0752 56.2497 11.9653C56.4694 11.8355 56.6492 11.6957 56.779 11.5758L56.0998 9.98782C56.0998 9.98782 55.7603 10.2475 55.3408 10.4572C54.9313 10.667 54.4819 10.7968 53.9925 10.8467C53.4731 10.8967 53.0636 10.7868 52.744 10.5072C52.4244 10.2275 52.2247 9.69818 52.1348 8.90917C52.0849 8.44974 52.0549 8.03027 52.0449 7.66073C52.0349 7.29119 52.0649 6.91167 52.1248 6.53214C52.1847 6.15262 52.2846 5.83302 52.4244 5.57334C52.5643 5.31366 52.764 5.09394 53.0237 4.90418C53.2834 4.7244 53.603 4.61454 53.9825 4.57459C54.372 4.53464 54.7615 4.57459 55.151 4.69444C55.5605 4.81429 55.8102 4.94413 55.98 5.03401L56.6991 3.10642C56.6991 3.10642 56.6292 3.06647 56.4095 2.98657C56.1897 2.90667 55.9201 2.8068 55.4706 2.73689C55.0212 2.66697 54.5318 2.66697 53.9925 2.71691C53.2334 2.79681 52.5643 2.98657 51.985 3.27621C51.4057 3.56585 50.9563 3.9254 50.6267 4.34488C50.2971 4.76435 50.0374 5.24375 49.8477 5.80305C49.6579 6.35237 49.548 6.91167 49.5081 7.47097C49.4681 8.03027 49.4881 8.60954 49.548 9.22877C49.8477 11.8155 51.2959 12.9741 53.9126 12.7044Z" fill="white"></path> <path d="M57.8576 2.46724L57.1785 4.37485L59.4456 4.13515V11.9654L61.9625 11.6957L61.9525 3.87548L63.7003 3.68571L64.3795 1.78809L57.8576 2.46724Z" fill="white"></path> <path d="M65.3483 6.31225C65.5281 6.65182 65.8177 6.93147 66.2272 7.16119L64.2197 11.4658L67.2859 11.1462L68.6242 7.33097L68.9538 7.311V10.9764L71.4807 10.7068V1.04883L68.4444 1.36843C67.3059 1.48828 66.417 1.83784 65.7678 2.42711C65.1286 3.01637 64.8689 3.86531 64.9888 4.97392C65.0487 5.52323 65.1685 5.97267 65.3483 6.31225ZM67.6954 3.59564C67.8552 3.32598 68.1948 3.17617 68.6941 3.11624L68.9438 3.08628V5.64308L68.7341 5.66306C68.3546 5.70301 68.0749 5.64308 67.8752 5.48328C67.6854 5.32348 67.5655 5.04383 67.5256 4.66431C67.4757 4.21487 67.5356 3.85532 67.6954 3.59564Z" fill="white"></path> <path d="M81.1485 9.37828L78.2122 5.13358L81.3483 0L78.6916 0.27965L76.9038 3.22597L74.9962 0.469413L72.4094 1.22846L75.4356 5.63296L72.4194 10.5968L75.0461 10.3171L76.744 7.54057L78.5517 10.1074L81.1485 9.37828Z" fill="white"></path> <path d="M7.89014 29.8125L4.69413 21.6228L0 22.9611L3.89513 31.7501C4.27466 32.609 4.51436 33.428 4.60424 34.1871C4.69413 34.9461 4.60424 35.6752 4.31461 36.3644C4.02497 37.0535 3.51561 37.6028 2.77653 38.0023L4.34457 40.7089C5.51311 40.1197 6.44195 39.4205 7.1211 38.6215C7.80025 37.8125 8.34956 36.8238 8.75905 35.6353L13.9026 21.0635L10.4669 21.423L7.89014 29.8125Z" fill="white"></path> <path d="M42.5169 18.057L38.8215 24.8885V18.4465L34.5269 18.8959L34.5568 35.1956L38.8415 34.7361V29.6425L39.3508 29.233L42.7466 34.5963L47.1311 33.3878L41.8976 25.7973L47.2809 17.5576L42.5169 18.057Z" fill="white"></path> <path d="M52.3245 17.4381L51.5355 21.3632L47.8601 33.7976L51.2758 33.4381L52.3845 29.4331L56.729 28.9737L58.0873 32.9587L62.5817 31.7901L56.5193 16.2695L52.3245 17.4381ZM53.1835 26.5866L54.4419 22.1122L55.8501 26.307L53.1835 26.5866Z" fill="white"></path> <path d="M72.1996 22.392C73.7177 21.2934 74.3969 20.005 74.2371 18.5069C74.0973 17.1985 73.478 16.2697 72.3994 15.7104C71.3207 15.1511 69.9724 14.9513 68.3445 15.1211C66.5866 15.3109 65.1285 15.7803 63.9799 16.5493L63.9599 20.0749L64.4693 19.7054C64.7989 19.4657 65.2583 19.1761 65.8775 18.8964C66.4968 18.6168 67.106 18.437 67.7152 18.3771C69.1035 18.2272 69.8526 18.6867 69.9724 19.7354C70.0523 20.4245 69.8426 20.9738 69.3432 21.3933C68.8438 21.8128 67.5554 22.0924 66.6566 22.2023L65.9275 24.6093L66.8363 24.5094C68.9837 24.2797 70.1322 24.7491 70.282 26.1673C70.3519 26.8165 70.1522 27.3658 69.6828 27.7953C69.2134 28.2347 68.6141 28.4844 67.875 28.5643C67.4056 28.6143 66.9562 28.6043 66.5267 28.5443C66.0973 28.4844 65.7477 28.4045 65.468 28.2947C65.1984 28.1848 64.9387 28.0649 64.689 27.9151C64.4493 27.7753 64.2895 27.6754 64.2196 27.6155C64.1497 27.5556 64.0998 27.5056 64.0598 27.4657L63.2908 31.1211L63.93 31.3708C64.3395 31.5406 64.9986 31.6704 65.9175 31.7803C66.8363 31.8802 67.7851 31.8902 68.7739 31.7803C70.6516 31.5806 72.1297 30.9014 73.2184 29.7429C74.307 28.5843 74.7564 27.1461 74.5767 25.4482C74.4169 23.8602 73.6279 22.8415 72.1996 22.392Z" fill="white"></path> <path d="M84.7041 13.6127L81.0087 20.4541V14.0022L76.7141 14.4516L76.7441 30.7512L81.0387 30.3018L81.0287 25.2082L81.5481 24.7887L84.9338 30.152L89.3184 28.9435L84.0849 21.363L89.4682 13.1133L84.7041 13.6127Z" fill="white"></path> <path d="M100.864 11.9155L94.412 22.2326V12.5947L90.9463 12.9642V29.2638L94.412 28.8943L100.544 19.1465L100.534 28.2451L104 27.8856V11.5859L100.864 11.9155Z" fill="white"></path> <path d="M30.3919 32.3497C29.6928 32.7093 28.9338 32.929 28.1148 33.0089C27.2459 33.0988 26.5368 32.909 26.0074 32.4296C25.4681 31.9502 25.1285 31.0613 24.9887 29.733C24.8988 28.9539 24.8589 28.2548 24.8489 27.6256C24.8389 26.9964 24.8788 26.3672 24.9787 25.728C25.0786 25.0888 25.2484 24.5495 25.4881 24.11C25.7278 23.6705 26.0673 23.291 26.5068 22.9914C26.6666 22.8815 26.8464 22.7817 27.0361 22.7018C27.2958 23.9502 28.3944 24.889 29.7228 24.879C31.2409 24.8691 32.4693 23.6406 32.4693 22.1225C32.4693 20.6643 31.5305 19.5757 29.8326 19.3659C29.7627 19.3559 29.6928 19.346 29.6229 19.346C29.2134 19.316 28.734 19.326 28.1348 19.3759C26.8464 19.4658 25.7178 19.7554 24.749 20.2448C23.7802 20.7442 23.0112 21.3435 22.4618 22.0426C21.9025 22.7417 21.4631 23.5607 21.1435 24.4995C20.8239 25.4383 20.6341 26.3772 20.5642 27.316C20.4943 28.2548 20.5243 29.2436 20.6341 30.2823C21.1135 34.6568 23.5705 36.6144 27.9849 36.145C28.8738 36.0551 29.6828 35.8653 30.4219 35.5956C31.161 35.326 31.5804 35.0863 31.91 34.8865C32.2796 34.6668 32.5992 34.4271 32.8089 34.2274L31.6703 31.5607C31.6703 31.5607 31.0911 32.0001 30.3919 32.3497Z" fill="white"></path> <path d="M22.3121 31.0508C22.3021 31.0508 22.3021 31.0508 22.3121 31.0508C22.2222 31.0508 22.1622 31.1207 22.1523 31.2006C21.7927 33.0383 20.794 34.1669 18.8664 34.4865C18.7965 34.4965 18.7365 34.5464 18.7166 34.6163V34.6263V34.6363V34.6463C18.7166 34.6463 18.7166 34.6463 18.7166 34.6563V34.6663C18.7265 34.7362 18.7865 34.7961 18.8664 34.8061C20.794 35.1257 21.7927 36.2643 22.1523 38.092C22.1622 38.1719 22.2222 38.2318 22.3021 38.2418H22.3121C22.3121 38.2418 22.3121 38.2418 22.322 38.2418C22.4019 38.2418 22.4719 38.1719 22.4818 38.092C22.8414 36.2543 23.8401 35.1257 25.7677 34.8061C25.8377 34.7961 25.8976 34.7462 25.9176 34.6763V34.6663V34.6563V34.6463C25.9176 34.6463 25.9176 34.6463 25.9176 34.6363V34.6263C25.9176 34.6163 25.9176 34.6163 25.9176 34.6063C25.8976 34.5364 25.8377 34.4865 25.7677 34.4865C23.8401 34.1669 22.8414 33.0283 22.4818 31.2006C22.4719 31.1207 22.4119 31.0608 22.332 31.0508C22.322 31.0508 22.322 31.0508 22.3121 31.0508Z" fill="#FBB03A"></path> </svg> 