<?xml version="1.0" encoding="UTF-8"?>
<!-- Generated by Pixelmator Pro 3.5.6 -->
<svg width="250" height="242" viewBox="0 0 250 242" xmlns="http://www.w3.org/2000/svg">
    <g id="g1">
        <g id="g2">
            <g id="g3">
                <g id="g4">
                    <path id="path1" fill="#efc137" fill-rule="evenodd" stroke="none" d="M 142.050003 27.380005 C 131.649994 21.819992 105.160004 24.979996 98.629997 34.319992 C 111.400002 30.330002 126.709999 27.270004 139.779999 31.429993 C 145.320007 33.190002 147.110001 30.080002 142.050003 27.380005 Z"/>
                    <path id="path2" fill="#efc137" fill-rule="evenodd" stroke="none" d="M 201.630005 67.690002 C 195.919998 -3.839996 102.25 -23.269989 62.43 29.860001 C 37.630001 62.959991 45.529999 109.759995 80.089996 134.360001 C 133.309998 172.229996 206.910004 133.919998 201.630005 67.690002 Z M 94.610001 69.039993 C 92.949997 57.089996 102.209999 56.919998 106.599998 66.059998 C 107.269997 67.479996 107.739998 69.059998 107.900002 70.809998 C 108.379997 75.800003 104.059998 78.820007 99.589996 76.610001 C 96.580002 75.130005 95.059998 72.110001 94.610001 69.039993 Z M 149.820007 124.409996 C 136.600006 130.619995 117.860001 132.779999 101.650002 123.529999 C 95.279999 119.889999 98.050003 114.729996 102.639999 117.259995 C 121.389999 127.619995 143.610001 124.399994 156.75 119.149994 C 157.699997 118.919998 153.509995 122.679993 149.820007 124.409996 Z M 160.929993 104.059998 C 164.210007 103.669998 168.220001 102.020004 171.350006 100.820007 C 178.259995 98.179993 174.259995 103.25 170.779999 105.240005 C 154.419998 114.57 131.520004 112.679993 119.32 105.220001 C 113.43 101.619995 108.779999 97.289993 109.650002 90.139999 C 110.080002 86.529999 112.5 83.440002 116.050003 81.520004 C 126.139999 76.080002 138.910004 86.470001 149.080002 85.759995 C 176.410004 83.899994 168.710007 33.490005 122.919998 35.330002 C 106.260002 36 88.540001 45.949997 83.400002 65.759995 C 82.110001 70.679993 81.540001 76.139999 81.800003 82.190002 C 81.32 80.789993 80.860001 79.360001 80.410004 77.880005 C 79.230003 73.940002 77.980003 72.529999 77.07 73.210007 C 76.730003 74.660004 76.309998 75.990005 75.760002 77.160004 C 74.639999 85.320007 77.690002 97.080002 81.970001 105.460007 C 84.230003 109.889999 87.25 113.889999 90.669998 117.469994 C 79.029999 110.110001 70.900002 98.399994 69.040001 82.270004 C 69.029999 82.270004 69.029999 82.270004 69.019997 82.270004 C 66.080002 62.610001 70.940002 39.449997 86.860001 26.139999 C 88.18 25.029999 90.400002 23.339996 92.559998 23.369995 C 93.07 23.369995 93.459999 23.610001 93.580002 23.979996 C 93.849998 24.830002 89.860001 28.569992 89.169998 29.380005 C 87.760002 31 86.559998 32.449997 86.220001 32.869995 C 85.290001 34.039993 84.919998 34.559998 84.120003 36.050003 C 83.809998 36.630005 84.150002 36.949997 84.93 36.059998 C 84.970001 36.029999 85 36 85.040001 35.959991 C 87.830002 33.080002 90.93 30.5 94.379997 28.240005 C 94.699997 28.020004 94.989998 27.830002 95.25 27.679993 C 95.459999 27.550003 95.629997 27.460007 95.769997 27.380005 C 98.599998 25.630005 101.639999 24.080002 104.900002 22.75 C 148.169998 5.160004 197.710007 47.599991 173.789993 89.889999 C 170.759995 95.25 166.360001 99.470001 161.300003 102.610001 C 159.419998 103.789993 160.309998 104.130005 160.929993 104.059998 Z M 107.989998 57.970001 C 108.059998 44.110001 125.349998 43 123.82 59.770004 C 122.139999 78.529999 107.93 69.009995 107.989998 57.970001 Z M 143.139999 58.330002 C 143.009995 69.369995 128.610001 78.610001 127.279999 59.809998 C 126.050003 43.020004 143.309998 44.440002 143.139999 58.330002 Z M 143.410004 70.789993 C 143.619995 69.050003 144.080002 67.460007 144.770004 66.039993 C 149.240005 56.979996 158.520004 57.220001 156.720001 69.139999 C 156.259995 72.229996 154.710007 75.210007 151.679993 76.669998 C 147.169998 78.830002 142.899994 75.789993 143.410004 70.789993 Z"/>
                </g>
                <path id="path3" fill="#79b72f" stroke="none" d="M 48.689999 174.98999 C 48.689999 172.869995 48.48 170.910004 48.110001 169.119995 C 50.07 168.660004 52.689999 168.449997 55.93 168.449997 L 61.549999 168.449997 C 64.169998 168.449997 66.290001 169.119995 67.919998 170.449997 C 69.540001 171.779999 70.370003 173.48999 70.370003 175.610001 C 70.370003 178.610001 68.959999 180.849991 66.080002 182.309998 C 67.830002 182.849991 69.199997 183.729996 70.199997 184.929993 C 71.199997 186.139999 71.699997 187.589996 71.699997 189.300003 C 71.699997 191.800003 70.739998 193.789993 68.790001 195.289993 C 66.830002 196.789993 64.25 197.539993 61.049999 197.539993 L 55.18 197.539993 C 53.060001 197.539993 51.139999 197.660004 49.439999 197.869995 C 48.98 196.619995 48.73 195.25 48.73 193.789993 L 48.73 174.899994 L 48.689999 174.98999 Z M 56.299999 172.580002 C 56.299999 172.869995 56.299999 173.25 56.299999 173.75 C 56.299999 174.25 56.299999 174.619995 56.299999 174.869995 L 56.299999 180.610001 L 58.919998 180.610001 C 59.880001 180.610001 60.669998 180.229996 61.25 179.48999 C 61.830002 178.73999 62.119999 177.779999 62.119999 176.619995 C 62.119999 175.449997 61.790001 174.5 61.119999 173.75 C 60.450001 173 59.619999 172.62999 58.580002 172.62999 L 56.209999 172.62999 L 56.299999 172.580002 Z M 59.509998 193.589996 C 60.720001 193.589996 61.669998 193.169998 62.419998 192.37999 C 63.169998 191.589996 63.540001 190.509995 63.540001 189.179993 C 63.540001 187.849991 63.119999 186.769989 62.330002 185.929993 C 61.540001 185.099991 60.5 184.679993 59.209999 184.679993 L 56.299999 184.679993 L 56.299999 193.539993 L 59.509998 193.589996 Z"/>
                <path id="path4" fill="#79b72f" stroke="none" d="M 112.93 180.690002 L 108.519997 193.220001 C 107.980003 194.929993 107.690002 196.169998 107.690002 196.970001 C 106.57 197.550003 104.940002 197.839996 102.82 197.839996 C 101.949997 197.839996 101.199997 197.550003 100.529999 196.970001 C 99.860001 196.389999 99.239998 195.309998 98.620003 193.679993 L 94.459999 181.399994 L 92.839996 193.179993 C 92.709999 193.970001 92.669998 194.550003 92.669998 194.929993 C 92.669998 195.759995 92.919998 196.389999 93.379997 196.839996 C 92.010002 197.509995 90.339996 197.839996 88.389999 197.839996 C 87.019997 197.839996 86.349998 196.919998 86.349998 195.139999 C 86.349998 194.679993 86.599998 192.769989 87.059998 189.360001 L 88.470001 179.459991 L 89.18 174.720001 C 89.349998 172.849991 89.43 170.929993 89.389999 168.979996 C 91.220001 168.519989 93.93 168.309998 97.459999 168.309998 C 98.419998 169.679993 99.080002 171.019989 99.459999 172.309998 L 104.580002 188.910004 L 109.199997 174.639999 C 109.82 172.849991 110.279999 170.809998 110.610001 168.519989 C 112.32 168.389999 114.440002 168.309998 117.019997 168.269989 L 118.519997 168.269989 C 118.980003 169.809998 119.389999 171.929993 119.769997 174.599991 L 122.43 193.199997 C 122.599998 194.279999 122.800003 195.069992 123.010002 195.569992 C 123.220001 196.069992 123.550003 196.48999 124.010002 196.819992 C 122.720001 197.48999 120.849998 197.819992 118.43 197.819992 C 117.470001 197.819992 116.68 197.529999 116.019997 196.949997 C 115.349998 196.369995 114.900002 195.289993 114.650002 193.660004 L 112.93 180.690002 Z"/>
                <path id="path5" fill="#79b72f" stroke="none" d="M 144.100006 178.319992 L 134.860001 196.839996 C 133.529999 197.509995 131.740005 197.839996 129.529999 197.839996 C 128.660004 197.839996 127.949997 197.550003 127.410004 196.970001 C 126.870003 196.389999 126.620003 195.309998 126.620003 193.679993 L 126.620003 174.699997 C 126.620003 172.619995 126.410004 170.709991 126.040001 168.919998 C 127.75 168.459991 130.369995 168.25 133.860001 168.25 C 134.110001 170 134.229996 172.119995 134.229996 174.580002 L 134.229996 187.940002 L 143.679993 168.919998 C 145.339996 168.459991 147.880005 168.25 151.300003 168.25 C 151.509995 169.789993 151.630005 171.910004 151.630005 174.580002 L 151.630005 193.179993 C 151.630005 194.259995 151.710007 195.050003 151.880005 195.550003 C 152.050003 196.050003 152.339996 196.470001 152.75 196.800003 C 151.289993 197.470001 149.419998 197.800003 147.089996 197.800003 C 146.169998 197.800003 145.470001 197.509995 144.929993 196.929993 C 144.389999 196.349991 144.139999 195.269989 144.139999 193.639999 L 144.100006 178.319992 Z"/>
                <path id="path6" fill="#79b72f" stroke="none" d="M 156.119995 175.069992 C 156.119995 172.949997 155.910004 170.98999 155.539993 169.199997 C 157.5 168.73999 160.119995 168.529999 163.360001 168.529999 L 166.360001 168.529999 C 169.729996 168.529999 172.440002 169.319992 174.520004 170.899994 C 176.600006 172.479996 177.639999 174.559998 177.639999 177.179993 C 177.639999 180.050003 176.470001 182.339996 174.139999 184.089996 C 171.809998 185.839996 168.809998 186.709991 165.110001 186.709991 L 163.740005 186.709991 L 163.740005 193.160004 C 163.740005 195.029999 163.949997 196.23999 164.320007 196.779999 C 162.990005 197.449997 161.199997 197.779999 158.990005 197.779999 C 158.119995 197.779999 157.410004 197.48999 156.869995 196.910004 C 156.330002 196.330002 156.080002 195.25 156.080002 193.619995 L 156.119995 175.069992 Z M 163.740005 172.699997 C 163.740005 172.98999 163.740005 173.369995 163.740005 173.869995 C 163.740005 174.369995 163.740005 174.73999 163.740005 174.98999 L 163.740005 182.809998 L 165.949997 182.809998 C 167.119995 182.809998 168.070007 182.349991 168.779999 181.440002 C 169.490005 180.529999 169.860001 179.319992 169.860001 177.860001 C 169.860001 176.319992 169.440002 175.069992 168.649994 174.110001 C 167.860001 173.149994 166.820007 172.649994 165.570007 172.649994 L 163.699997 172.649994 L 163.740005 172.699997 Z"/>
                <path id="path7" fill="#79b72f" stroke="none" d="M 188.710007 184.559998 L 188.710007 193.419998 L 197.529999 193.419998 C 199.320007 193.419998 200.529999 193.209991 201.149994 192.800003 C 201.820007 193.589996 202.149994 194.62999 202.149994 195.919998 C 202.149994 197 200.779999 197.539993 198.029999 197.539993 L 187.589996 197.539993 C 185.470001 197.539993 183.550003 197.660004 181.850006 197.869995 C 181.389999 196.619995 181.139999 195.25 181.139999 193.789993 L 181.139999 174.610001 C 181.139999 172.569992 180.970001 170.699997 180.600006 169.029999 L 180.559998 168.73999 C 182.100006 168.529999 184.220001 168.410004 186.929993 168.410004 L 197 168.410004 C 198.869995 168.410004 200.080002 168.279999 200.619995 168.039993 C 201.289993 168.789993 201.619995 169.789993 201.619995 170.98999 C 201.619995 171.98999 200.25 172.48999 197.5 172.48999 L 188.720001 172.48999 C 188.720001 172.699997 188.720001 173.029999 188.720001 173.48999 C 188.720001 173.949997 188.720001 174.279999 188.720001 174.529999 L 188.720001 180.519989 L 196.089996 180.519989 C 197.960007 180.519989 199.169998 180.389999 199.710007 180.099991 C 200.380005 180.849991 200.710007 181.849991 200.710007 183.050003 C 200.710007 184.089996 199.339996 184.589996 196.589996 184.589996 L 188.710007 184.559998 Z"/>
                <path id="path8" fill="#79b72f" stroke="none" d="M 24.879999 227.690002 L 24.879999 237.220001 C 24.879999 239.009995 25.09 240.259995 25.549999 240.959991 C 24.26 241.539993 22.51 241.830002 20.35 241.830002 C 19.43 241.830002 18.690001 241.539993 18.139999 240.959991 C 17.6 240.37999 17.309999 239.300003 17.309999 237.669998 L 17.309999 227.639999 L 11.24 237.589996 C 9.37 240.459991 7.25 241.919998 4.87 241.919998 C 2.66 241.919998 1.04 241.550003 0 240.839996 C 1.04 240.220001 2.16 238.970001 3.37 237.089996 L 10.4 225.649994 L 5.12 218.199997 C 4.12 216.830002 2.96 214.869995 1.67 212.330002 C 4.79 212.330002 7.29 212.410004 9.16 212.539993 C 10.49 215.160004 11.61 217.080002 12.49 218.319992 L 17.32 224.979996 L 17.32 218.779999 C 17.32 216.660004 17.200001 214.73999 16.99 213 C 18.610001 212.539993 21.15 212.330002 24.610001 212.330002 C 24.82 213.869995 24.940001 215.98999 24.940001 218.649994 L 24.940001 224.979996 L 29.77 218.319992 C 30.559999 217.279999 31.68 215.369995 33.139999 212.580002 C 35.009998 212.459991 37.509998 212.369995 40.59 212.369995 C 39.549999 214.580002 38.380001 216.529999 37.139999 218.23999 L 31.860001 225.690002 L 38.93 237.12999 C 40.049999 238.959991 41.18 240.209991 42.299999 240.919998 C 41.259998 241.62999 39.639999 242 37.43 242 C 35.060001 242 32.939999 240.539993 31.02 237.669998 L 24.879999 227.690002 Z"/>
                <path id="path9" fill="#79b72f" stroke="none" d="M 62.209999 222.440002 L 52.970001 240.959991 C 51.639999 241.62999 49.849998 241.959991 47.639999 241.959991 C 46.77 241.959991 46.060001 241.669998 45.52 241.089996 C 44.98 240.509995 44.73 239.429993 44.73 237.800003 L 44.73 218.819992 C 44.73 216.73999 44.52 214.830002 44.150002 213.039993 C 45.860001 212.580002 48.48 212.369995 51.970001 212.369995 C 52.220001 214.119995 52.34 216.23999 52.34 218.699997 L 52.34 232.059998 L 61.790001 213.039993 C 63.450001 212.580002 65.989998 212.369995 69.400002 212.369995 C 69.610001 213.910004 69.730003 216.029999 69.730003 218.699997 L 69.730003 237.300003 C 69.730003 238.37999 69.809998 239.169998 69.980003 239.669998 C 70.150002 240.169998 70.440002 240.589996 70.849998 240.919998 C 69.389999 241.589996 67.519997 241.919998 65.190002 241.919998 C 64.269997 241.919998 63.57 241.62999 63.029999 241.050003 C 62.490002 240.470001 62.240002 239.389999 62.240002 237.759995 L 62.209999 222.440002 Z"/>
                <path id="path10" fill="#79b72f" stroke="none" d="M 74.150002 219.110001 C 74.150002 216.98999 73.940002 215.029999 73.57 213.23999 C 75.529999 212.779999 78.150002 212.569992 81.389999 212.569992 L 87.010002 212.569992 C 89.629997 212.569992 91.75 213.23999 93.379997 214.569992 C 95 215.899994 95.830002 217.610001 95.830002 219.729996 C 95.830002 222.729996 94.419998 224.970001 91.540001 226.429993 C 93.290001 226.970001 94.660004 227.849991 95.660004 229.050003 C 96.660004 230.259995 97.160004 231.709991 97.160004 233.419998 C 97.160004 235.919998 96.199997 237.910004 94.25 239.410004 C 92.290001 240.910004 89.709999 241.660004 86.510002 241.660004 L 80.639999 241.660004 C 78.519997 241.660004 76.599998 241.779999 74.900002 241.98999 C 74.440002 240.73999 74.190002 239.369995 74.190002 237.910004 L 74.190002 219.019989 L 74.150002 219.110001 Z M 81.769997 216.699997 C 81.769997 216.98999 81.769997 217.369995 81.769997 217.869995 C 81.769997 218.369995 81.769997 218.73999 81.769997 218.98999 L 81.769997 224.729996 L 84.389999 224.729996 C 85.349998 224.729996 86.139999 224.349991 86.720001 223.610001 C 87.300003 222.860001 87.589996 221.899994 87.589996 220.73999 C 87.589996 219.580002 87.260002 218.619995 86.589996 217.869995 C 85.919998 217.119995 85.089996 216.75 84.050003 216.75 L 81.68 216.75 L 81.769997 216.699997 Z M 84.970001 237.709991 C 86.18 237.709991 87.129997 237.289993 87.879997 236.5 C 88.629997 235.709991 89 234.62999 89 233.300003 C 89 231.970001 88.580002 230.889999 87.790001 230.050003 C 87 229.220001 85.959999 228.800003 84.669998 228.800003 L 81.760002 228.800003 L 81.760002 237.660004 L 84.970001 237.709991 Z"/>
                <path id="path11" fill="#79b72f" stroke="none" d="M 99.660004 227.849991 C 99.660004 223.229996 100.989998 219.479996 103.610001 216.610001 C 106.230003 213.73999 109.690002 212.279999 113.93 212.279999 C 117.839996 212.279999 121 213.569992 123.419998 216.190002 C 125.830002 218.809998 127.040001 222.220001 127.040001 226.429993 C 127.040001 231.050003 125.709999 234.789993 123.050003 237.669998 C 120.389999 240.539993 116.93 242 112.650002 242 C 108.779999 242 105.660004 240.669998 103.25 238.050003 C 100.839996 235.429993 99.629997 232.019989 99.629997 227.809998 L 99.660004 227.849991 Z M 107.860001 227.059998 C 107.860001 230.259995 108.400002 232.839996 109.440002 234.839996 C 110.480003 236.839996 111.849998 237.839996 113.519997 237.839996 C 115.099998 237.839996 116.389999 236.839996 117.349998 234.889999 C 118.309998 232.929993 118.809998 230.399994 118.809998 227.269989 C 118.809998 224.069992 118.269997 221.440002 117.230003 219.449997 C 116.190002 217.449997 114.82 216.449997 113.150002 216.449997 C 111.57 216.449997 110.279999 217.410004 109.32 219.360001 C 108.360001 221.319992 107.860001 223.849991 107.860001 227.019989 L 107.860001 227.059998 Z"/>
                <path id="path12" fill="#79b72f" stroke="none" d="M 143.600006 216.580002 C 143.639999 217.039993 143.639999 217.699997 143.639999 218.619995 L 143.639999 237.220001 C 143.639999 238.339996 143.720001 239.12999 143.850006 239.62999 C 143.970001 240.12999 144.270004 240.550003 144.679993 240.87999 C 143.259995 241.550003 141.389999 241.87999 139.059998 241.87999 C 138.139999 241.87999 137.399994 241.589996 136.850006 241.009995 C 136.309998 240.429993 136.020004 239.349991 136.020004 237.720001 L 136.020004 218.73999 C 136.020004 217.779999 136.020004 217.080002 135.979996 216.619995 L 133.360001 216.619995 C 131.199997 216.619995 129.279999 216.75 127.580002 216.98999 C 127.120003 215.699997 126.870003 214.330002 126.870003 212.869995 C 128.410004 212.660004 130.529999 212.539993 133.240005 212.539993 L 147.929993 212.539993 C 149.800003 212.539993 151.009995 212.330002 151.550003 211.919998 C 152.220001 212.709991 152.550003 213.75 152.550003 215.039993 C 152.550003 216.080002 151.179993 216.619995 148.389999 216.619995 L 143.600006 216.580002 Z"/>
                <path id="path13" fill="#79b72f" stroke="none" d="M 172.520004 228.729996 L 163.160004 228.729996 L 163.160004 237.300003 C 163.160004 239.169998 163.369995 240.37999 163.740005 240.919998 C 162.410004 241.589996 160.619995 241.919998 158.410004 241.919998 C 157.539993 241.919998 156.830002 241.62999 156.289993 241.050003 C 155.75 240.470001 155.5 239.389999 155.5 237.759995 L 155.5 218.789993 C 155.5 216.709991 155.289993 214.789993 154.919998 213.009995 C 156.630005 212.550003 159.25 212.339996 162.740005 212.339996 C 162.990005 214.089996 163.110001 216.209991 163.110001 218.660004 L 163.110001 224.610001 L 172.470001 224.610001 L 172.470001 218.779999 C 172.470001 216.660004 172.350006 214.73999 172.100006 213.039993 C 173.759995 212.580002 176.300003 212.369995 179.720001 212.369995 C 179.929993 213.910004 180.050003 216.029999 180.050003 218.699997 L 180.050003 237.300003 C 180.050003 238.37999 180.130005 239.169998 180.300003 239.669998 C 180.470001 240.169998 180.759995 240.589996 181.169998 240.919998 C 179.710007 241.589996 177.839996 241.919998 175.509995 241.919998 C 174.589996 241.919998 173.889999 241.62999 173.350006 241.050003 C 172.809998 240.470001 172.559998 239.389999 172.559998 237.759995 L 172.520004 228.729996 Z"/>
                <path id="path14" fill="#79b72f" stroke="none" d="M 184.669998 218.819992 C 184.669998 216.73999 184.460007 214.830002 184.089996 213.039993 C 185.800003 212.580002 188.419998 212.369995 191.910004 212.369995 C 192.160004 214.119995 192.279999 216.23999 192.279999 218.699997 L 192.279999 223.190002 L 195.529999 223.190002 C 198.899994 223.190002 201.610001 224.019989 203.690002 225.649994 C 205.770004 227.269989 206.809998 229.389999 206.809998 232.019989 C 206.809998 234.889999 205.639999 237.220001 203.360001 239.009995 C 201.070007 240.800003 198.029999 241.669998 194.289993 241.669998 L 191.169998 241.669998 C 189.050003 241.669998 187.130005 241.789993 185.429993 242 C 184.970001 240.75 184.720001 239.37999 184.720001 237.919998 L 184.669998 218.819992 Z M 192.199997 237.62999 L 195.029999 237.62999 C 196.199997 237.62999 197.149994 237.169998 197.860001 236.220001 C 198.570007 235.259995 198.940002 234.059998 198.940002 232.559998 C 198.940002 231.019989 198.520004 229.769989 197.729996 228.809998 C 196.940002 227.849991 195.899994 227.349991 194.649994 227.349991 L 192.190002 227.349991 L 192.190002 237.62999 Z M 209.389999 218.860001 C 209.389999 216.949997 209.179993 215.029999 208.809998 213.080002 C 210.470001 212.619995 213.100006 212.410004 216.630005 212.410004 C 216.839996 213.949997 216.960007 216.069992 216.960007 218.73999 L 216.960007 237.339996 C 216.960007 238.419998 217.039993 239.209991 217.210007 239.709991 C 217.380005 240.209991 217.669998 240.62999 218.080002 240.959991 C 216.619995 241.62999 214.75 241.959991 212.419998 241.959991 C 211.5 241.959991 210.800003 241.669998 210.259995 241.089996 C 209.720001 240.509995 209.470001 239.429993 209.470001 237.800003 L 209.389999 218.860001 Z"/>
                <path id="path15" fill="#79b72f" stroke="none" d="M 241.389999 212.539993 C 242.929993 212.410004 245.259995 212.330002 248.380005 212.330002 C 247.919998 213.660004 247.259995 214.949997 246.380005 216.199997 L 239.059998 226.809998 L 246.380005 237.259995 C 247.669998 239.12999 248.880005 240.339996 250 240.87999 C 248.880005 241.550003 247 241.87999 244.380005 241.87999 C 242.050003 241.87999 239.839996 240.509995 237.759995 237.759995 L 233.350006 231.389999 L 229.309998 237.300003 C 228.149994 238.919998 227.399994 240.339996 227.100006 241.550003 C 226.229996 241.759995 224.520004 241.87999 221.979996 241.87999 C 221.059998 241.87999 220.610001 241.589996 220.610001 240.959991 C 220.610001 240.339996 221.110001 239.300003 222.149994 237.800003 L 229.970001 226.399994 L 224.729996 218.779999 C 223.399994 216.819992 221.860001 214.910004 220.149994 213 C 221.809998 212.539993 224.639999 212.330002 228.639999 212.330002 C 230.220001 214.160004 231.800003 216.279999 233.429993 218.649994 L 235.639999 221.849991 L 237.850006 218.649994 C 239.470001 216.279999 240.679993 214.23999 241.470001 212.529999 L 241.389999 212.529999 Z"/>
            </g>
        </g>
    </g>
</svg>
