<?xml version="1.0" encoding="UTF-8" standalone="no"?>
<svg
   version="1.1"
   viewBox="0 0 1999.95 693.67299"
   xml:space="preserve"
   id="svg2255"
   xmlns="http://www.w3.org/2000/svg"
   xmlns:svg="http://www.w3.org/2000/svg"><defs
     id="defs1881" /><path
     d="M 433.7,171.01299 433.94,171.15299 C 449.2,180.04299 457.26,197.42299 457.26,221.40299 V 469.53299 C 457.26,508.93299 444.69,540.10299 419.89,562.18299 L 419.72,562.33299 V 567.44299 L 428.86,563.51299 C 475.86,543.25299 491.77,536.85299 529.2,523.25299 548.26,516.33299 564.83,510.68299 578.46,506.47299 596.75,500.82299 605.23,498.47299 628.86,492.76299 L 629.21,492.67299 634.53,386.13299 V 385.61299 H 629.53 L 629.44,385.99299 C 622.53,417.41299 610.65,443.37299 594.11,463.17299 577.73,482.78299 556.29,496.93299 530.37,505.24299 V 331.82299 C 563.62,333.64299 582.37,342.76299 594.99,373.15299 L 595.12,373.45299 H 600.07 V 262.01299 H 595.07 L 594.96,262.37299 C 584.37,297.37299 561.44,311.72299 530.36,317.62299 V 184.95299 H 548.72 C 587.47,184.95299 616.38,207.09299 628.03,245.70299 L 628.14,246.06299 H 633.14 L 630.53,166.06299 H 433.7 Z"
     id="path1858"
     style="fill:#0058FF" /><path
     d="M 1185.61,477.14299 1208.93,481.14299 1235.64,485.77299 1256.08,489.07299 1262.01,489.99299 V 485.01299 L 1261.75,484.87299 C 1245.35,476.17299 1236.42,467.87299 1229.87,455.40299 1226.47,448.85299 1224.25,441.82299 1222.87,432.40299 V 253.50299 H 1223.33 L 1370.95,518.50299 1371.1,518.76299 H 1376.1 V 518.27299 H 1377.16 V 216.08299 C 1378.22,203.66299 1380.1,194.85299 1382.84,189.47299 1386.56,182.13299 1395.3,174.61299 1404.07,171.19299 L 1404.39,171.07299 V 166.07299 H 1319.31 V 171.07299 L 1319.6,171.20299 C 1337.16,178.80299 1344.25,185.48299 1348.76,198.68299 A 107.78,107.78 0 0 1 1353.42,219.93299 V 351.06299 H 1352.09 L 1250.86,166.36299 1250.72,166.10299 H 1163.37 V 171.10299 L 1163.69,171.23299 C 1178.31,177.23299 1195.76,188.23299 1199.06,207.08299 V 429.78299 C 1197.79,452.90299 1182.38,464.43299 1161.31,467.52299 L 1160.89,467.58299 V 472.58299 L 1166.75,473.73299 Z"
     id="path1860"
     style="fill:#0058FF" /><path
     d="M 1541.79,526.17299 1548.68,526.46299 V 521.46299 L 1548.41,521.33299 C 1537.52,515.87299 1530.53,508.89299 1525.03,497.98299 1518.51,485.15299 1516.92,474.82299 1516.92,445.36299 V 235.22299 C 1516.92,198.63299 1527.06,179.42299 1550.83,170.95299 L 1551.15,170.83299 V 166.09299 H 1423.41 V 170.74299 L 1423.62,170.89299 C 1435.93,179.42299 1444.95,190.99299 1448.37,202.62299 1450.43,209.62299 1451.86,226.62299 1451.86,243.97299 V 435.31299 C 1451.86,482.19299 1446.03,495.43299 1420.68,506.12299 L 1420.37,506.25299 V 511.25299 L 1424.83,512.07299 C 1465.06,519.47299 1510.97,525.07299 1541.83,526.21299"
     id="path1862"
     style="fill:#0058FF" /><path
     d="M 1664.64,533.62299 C 1684.58,533.62299 1703.3,525.85299 1718.76,511.16299 1734.22,496.47299 1744.98,476.27299 1749.91,452.69299 1753.04,437.98299 1753.67,433.50299 1755.58,412.69299 L 1755.63,412.14299 H 1751.34 L 1749.56,417.86299 C 1738.16,454.99299 1721.18,471.56299 1694.56,471.56299 1652.47,471.56299 1625.27,413.94299 1625.27,324.77299 1625.27,279.15299 1631.08,238.62299 1641.21,213.56299 A 48.29,48.29 0 0 1 1662.56,189.08299 C 1668.56,185.84299 1676.56,183.99299 1684.56,183.99299 1715.24,183.99299 1736.7,208.99299 1750.2,260.55299 L 1751.2,264.39299 H 1756.2 V 163.89299 L 1752.61,165.22299 1747.72,167.54299 C 1742.14,170.20299 1735.25,171.92299 1730.17,171.92299 A 38.58,38.58 0 0 1 1719.47,170.41299 L 1709.54,167.51299 A 110.67,110.67 0 0 0 1680.11,162.86299 C 1648.11,162.86299 1618.11,183.86299 1595.58,221.97299 1573.05,260.08299 1560.78,310.74299 1560.78,364.79299 1560.78,462.61299 1604.44,533.62299 1664.6,533.62299"
     id="path1864"
     style="fill:#0058FF" /><path
     d="M 753.21,184.12299 762.8,184.02299 C 802.21,184.02299 818.29,198.14299 818.29,232.76299 818.29,272.45299 795.19,295.23299 753.21,296.96299 Z M 657,487.01299 A 464.57,464.57 0 0 1 704.42,474.45299 C 726.78,469.52299 756.89,464.18299 766.36,463.45299 L 779.42,462.45299 782.77,462.15299 V 457.22299 L 782.44,457.11299 C 759.26,449.56299 753.25,438.00299 753.25,400.85299 V 315.79299 L 755.37,315.58299 A 73.5,73.5 0 0 1 763.24,315.11299 C 788.24,315.11299 799.3,327.26299 805.44,361.56299 812.2,399.32299 813.49,405.29299 818.03,419.66299 A 82.43,82.43 0 0 0 834.57,449.44299 C 845.2,461.56299 860.3,468.23299 877.1,468.23299 896.74,468.23299 917.73,459.36299 931.87,445.09299 L 932.13,444.83299 930.21,441.28299 929.85,441.36299 C 921.27,443.00299 917.69,443.46299 913.17,443.46299 903.43,443.46299 898.49,440.59299 894.93,432.88299 891.93,426.41299 891.43,424.50299 887.11,403.70299 872.52,333.49299 857.79,315.65299 805.19,306.29299 836.07,297.56299 853.33,289.56299 866.37,278.01299 879.07,266.74299 887.29,248.01299 887.29,230.31299 887.29,207.73299 874.16,184.86299 856.08,175.91299 842.17,169.04299 823.54,166.10299 793.77,166.10299 H 657.8 V 171.01299 L 658.09,171.14299 C 680.51,181.03299 685.66,192.14299 685.66,230.46299 V 411.91299 C 685.66,434.19299 684.01,443.20299 677.66,455.75299 672.59,465.75299 668.66,470.40299 655.66,482.06299 L 655.45,482.26299 656.53,487.26299 Z"
     id="path1866"
     style="fill:#0058FF" /><path
     d="M 1839,349.18299 1862.75,237.93299 H 1864.54 L 1888,332.83299 C 1870.13,340.55299 1863.08,342.91299 1839,349.18299 M 1998.74,406.88299 H 1998.36 C 1989.23,406.79299 1983.63,404.73299 1979.05,399.75299 1972.49,392.61299 1969.28,385.07299 1959.96,354.87299 1956.96,345.25299 1955.28,339.30299 1954.51,336.14299 L 1913.51,166.48299 1913.43,166.10299 H 1812.56 V 171.01299 L 1812.85,171.15299 C 1830.6,179.23299 1838.35,184.66299 1847.71,196.30299 L 1797.71,430.53299 C 1790.99,452.66299 1782.71,472.29299 1775.95,482.05299 1769.47,491.32299 1764.76,495.88299 1749.44,507.73299 L 1749.21,507.91299 1749.88,513.04299 1786.98,503.24299 C 1810.79,496.95299 1830.52,491.18299 1842.49,487.02299 L 1842.89,486.88299 1842.09,482.08299 1841.77,482.00299 C 1823.96,477.58299 1818.52,470.83299 1818.52,453.12299 1818.52,449.79299 1818.75,446.07299 1819.14,442.12299 L 1833.93,372.87299 1838.18,371.57299 C 1859.38,365.02299 1879.78,357.73299 1892.9,352.02299 L 1897.16,369.48299 C 1901.97,389.19299 1904.16,404.73299 1904.16,418.38299 1904.16,439.13299 1897.92,455.02299 1885.61,465.62299 L 1885.4,465.81299 1886.22,470.81299 1886.79,470.58299 A 642.64,642.64 0 0 0 1999.66,411.84299 L 1999.95,411.64299 Z"
     id="path1868"
     style="fill:#0058FF" /><path
     d="M 1038.86,180.13299 C 1073.75,180.13299 1084.95,212.00299 1084.95,311.29299 1084.95,377.29299 1079.46,421.77299 1069.06,439.84299 1063.48,449.57299 1052.93,454.93299 1039.34,454.93299 1015.54,454.93299 1004.34,442.60299 999.5,410.93299 994.57,378.93299 992.74,351.83299 992.77,310.93299 992.77,211.93299 1003.99,180.11299 1038.86,180.11299 M 1038.86,474.85299 C 1075.86,474.85299 1106.38,460.31299 1127.03,432.85299 1147.68,405.39299 1158.54,364.85299 1158.54,315.61299 1158.54,265.16299 1148.2,226.03299 1127.8,199.32299 1107.4,172.61299 1077.45,159.01299 1038.86,159.01299 1000.27,159.01299 970.35,172.57299 949.92,199.32299 929.49,226.07299 919.19,265.13299 919.19,315.56299 919.19,364.82299 930.08,405.37299 950.69,432.84299 971.3,460.31299 1001.82,474.89299 1038.86,474.89299"
     id="path1870"
     style="fill:#0058FF" /><path
     d="M 1830.12,584.37299 C 1760.2,608.12299 1685.5,619.66299 1601.73,619.66299 1546.15,619.66299 1516.66,616.85299 1426.44,602.94299 L 1325.84,587.44299 1218.93,569.01299 C 1166.3,559.93299 1099.36,551.73299 1044.21,547.59299 1005.4,544.66299 966.29,543.18299 927.98,543.18299 813.98,543.18299 711.33,555.70299 622.73,580.40299 575.54,593.57299 526.73,611.86299 477.73,634.76299 453.51,646.09299 434.94,655.15299 417.16,665.28299 L 418.09,667.06299 C 458.14,648.40299 494.28,636.31299 542.83,625.32299 590.14,614.63299 625.31,610.65299 672.58,610.65299 697.38,610.65299 725.12,611.89299 752.81,614.24299 770.65,615.78299 795.29,618.48299 826.04,622.24299 866.8,627.29299 899.38,631.95299 922.85,636.08299 L 1021.57,653.44299 C 1036.04,655.99299 1063.57,660.50299 1105.57,667.24299 1146.31,673.75299 1175,678.24299 1190.85,680.44299 1256.92,689.71299 1309.42,693.67299 1366.41,693.67299 1517.94,693.67299 1673.3,663.23299 1803.88,607.97299 1846.3,590.04299 1885.44,569.97299 1917.08,549.88299 L 1916.08,548.14299 A 667.42,667.42 0 0 1 1830.08,584.31299"
     id="path1872"
     style="fill:#0058FF" /><path
     d="M 465.25,95.792992 C 473.25,95.942992 479.25,97.702992 489.2,102.79299 502.28,109.49299 503.35,109.98299 508.35,111.26299 A 45.41,45.41 0 0 0 518.87,112.58299 C 546.96,113.10299 567.57,90.832992 568.16,59.342992 568.77,26.012992 543.72,0.6529917 509.6,0.0129917 481.2,-0.5170083 450.6,15.212992 433.6,39.152992 415.54,64.452992 399.12,103.23299 373.26,181.87299 L 288.26,420.22299 210.49,187.51299 C 203.97,168.02299 201.89,154.82299 201.89,144.89299 201.89,125.73299 215.59,108.54299 238.94,98.412992 V 94.232992 H 0 V 98.412992 C 26.63,104.03299 43.76,113.36299 56.42,129.18299 68.69,144.53299 82.42,170.31299 93.52,200.93299 L 246,628.01299 408.93,160.13299 C 426.27,113.87299 443.11,95.382992 465.25,95.792992"
     id="path1874"
     style="fill:#0058FF" /></svg>
