<svg xmlns="http://www.w3.org/2000/svg" xmlns:xlink="http://www.w3.org/1999/xlink" width="577.81702" height="828.80457" viewBox="0 0 577.81702 828.80457"><defs><style>.a{fill:#7CA52A;}.b{fill:#939598;}.c{fill:#fff;}</style></defs><title>Viasat Nature 2022</title><polygon class="a" points="577.031 0 577.03 0 386.338 0 386.338 191.717 433.223 312.333 386.338 254.168 386.338 255.061 180.768 0 0 0 0 577.848 0 577.848 191.507 577.848 191.507 311.188 406.152 577.848 577.031 577.848 577.031 577.848 577.031 0"/><rect class="b" y="600.29709" width="577.81635" height="112.55725"/><path class="c" d="M339.41716,652.16241c-3.41621-1.75968-7.34783-2.29647-17.55023-2.29647H308.5256c-4.25881,0-5.97223-1.68142-5.97223-5.741v-.8674a3.58167,3.58167,0,0,1,.02842-.56168c.18139-3.64728,1.98724-5.20427,5.94381-5.20427h14.53933a6.74984,6.74984,0,0,1,4.36535,1.15174h0a1.54621,1.54621,0,0,1,.22749.20265,4.84594,4.84594,0,0,1,1.22643,3.18871c1.70637-.09953,15.50984-1.22642,17.34411-1.38286a41.84745,41.84745,0,0,0-1.25127-4.66395h0c-3.31672-9.92517-10.19893-13.6222-24.0522-13.6222h-10.565c-17.08819,0-25.43138,5.68421-25.43138,17.39744v7.98062c0,6.17836,2.47412,10.7961,6.98875,12.98945,3.41978,1.78454,7.34435,2.29643,17.55392,2.29643h13.33775c4.23386,0,5.99349,1.65657,5.99349,5.6842v.94914c0,4.07742-1.80585,5.83711-5.99349,5.83711H308.27316c-2.172,0-3.67929-.45862-4.62127-1.454a5.2505,5.2505,0,0,1-1.198-3.2882c-1.6352.10306-15.56322.66475-17.37612.73938,2.09377,14.00613,9.06125,19.23529,25.2821,19.23529h10.565c17.17,0,25.48475-5.71263,25.48475-17.52187V665.1696c0-6.19609-2.4777-10.81741-6.99243-13.00719"/><polygon class="c" points="486.872 622.952 419.167 622.952 419.167 639.102 443.5 639.102 443.5 690.501 462.483 690.501 462.483 639.102 486.872 639.102 486.872 622.952"/><path class="c" d="M233.39736,670.55162l8.69869-23.21318,8.72364,23.21318Zm15.38183-47.59946H235.2849l-29.21015,67.83016h19.69391l2.858-7.6287h26.93868l2.85805,7.6287h19.541Z"/><path class="c" d="M379.85013,670.55162l8.70227-23.29134,8.72353,23.29134Zm15.38541-47.59946H381.76967l-29.21373,67.83016h19.67254l2.85458-7.6287h26.94215l2.87953,7.6287h19.5161Z"/><polygon class="c" points="126.965 666.446 110.666 622.952 90.972 622.952 120.129 690.782 133.652 690.782 162.858 622.952 143.292 622.952 126.965 666.446"/><rect class="c" x="175.15813" y="622.95216" width="18.97931" height="67.54929"/><polygon class="a" points="0 735.301 18.674 735.301 61.812 791.987 61.812 735.301 81.786 735.301 81.786 827.347 64.567 827.347 19.975 768.848 19.975 827.347 0 827.347 0 735.301"/><path class="a" d="M163.32161,788.97375,151.1,759.13076l-12.24649,29.843Zm-21.32911-54.3395h18.69844L200.132,827.34479H178.95935l-8.393-20.643H131.63366l-8.41793,20.643H102.57984Z"/><polygon class="a" points="230.516 754 202.501 754 202.501 735.302 278.756 735.302 278.756 754 250.743 754 250.743 827.344 230.516 827.344 230.516 754"/><path class="a" d="M339.26615,828.798c-12.3745,0-22.0935-3.41973-29.20667-10.33037-7.06707-6.86441-10.63971-17.0455-10.63971-30.56106V735.30187H319.6753v52.09282c0,7.52559,1.73479,13.20979,5.25406,16.98509q5.24165,5.74284,14.59271,5.74463,9.33149,0,14.58912-5.51356c3.51927-3.69708,5.25406-9.20711,5.25406-16.57983V735.30187h20.284v51.93639a53.49359,53.49359,0,0,1-2.8332,18.23993,34.3575,34.3575,0,0,1-8.08727,12.98945,32.96875,32.96875,0,0,1-12.70148,7.75313,50.51736,50.51736,0,0,1-16.76111,2.57724"/><path class="a" d="M447.60971,780.14526c5.023,0,8.82671-1.198,11.50706-3.57264a12.02833,12.02833,0,0,0,4.03121-9.51277v-.25591c0-4.38314-1.40771-7.69981-4.23734-9.89675q-4.17528-3.3273-11.68128-3.31667h-20.1311v26.55474ZM406.8463,735.30079h42.08943q17.48987,0,26.83909,9.33865c5.22921,5.279,7.87756,12.29265,7.87756,21.04471v.25592c0,7.47231-1.8308,13.51913-5.45671,18.2364a32.03764,32.03764,0,0,1-14.262,10.309l22.4809,32.86106H462.73562l-19.71875-29.44485H427.09826v29.44485h-20.252Z"/><polygon class="a" points="507.868 735.301 577.152 735.301 577.152 753.306 527.843 753.306 527.843 772.012 571.237 772.012 571.237 790.021 527.843 790.021 527.843 809.334 577.817 809.334 577.817 827.347 507.868 827.347 507.868 735.301"/></svg>