<svg width="210" height="40" viewBox="0 0 210 40" fill="none" xmlns="http://www.w3.org/2000/svg">
<path d="M63.0886 26.531H59.9389L55.0018 13.469H58.5391L61.5601 22.7296H61.6338L64.6375 13.469H68.1199L63.0902 26.531H63.0886ZM69.187 26.531V13.469H72.3555V26.531H69.187ZM75.0453 26.531V13.469H83.8147V16.1436H78.0851V18.5967H83.5009V21.1236H78.0851V23.8359H84.1459V26.5294H75.0453V26.531ZM91.8105 16.1625V26.531H88.6608V16.1625H84.976V13.469H95.4953V16.1625H91.8105ZM105.224 26.531L99.9726 17.9901H99.9176L99.9914 26.531H96.9328V13.469H100.525L105.757 21.9926H105.812L105.738 13.469H108.797V26.531H105.222H105.224ZM120.331 26.531L119.318 23.9664H114.269L113.31 26.531H109.883L115.355 13.469H118.414L123.83 26.531H120.328H120.331ZM116.83 16.9561L115.172 21.4395H118.451L116.83 16.9561ZM136.747 26.531L136.82 17.2876H136.766L133.376 26.531H131.165L127.867 17.2876H127.812L127.886 26.531H124.92V13.469H129.398L132.364 21.8449H132.437L135.275 13.469H139.826V26.531H136.748H136.747ZM152.26 16.1625V26.531H149.11V16.1625H145.425V13.469H155.944V16.1625H152.26ZM163.314 26.8814C159.241 26.8814 156.22 24.0779 156.22 19.945C156.22 15.812 159.241 13.1186 163.314 13.1186C167.386 13.1186 170.425 15.757 170.425 19.945C170.425 24.1329 167.404 26.8814 163.314 26.8814ZM163.314 15.9598C161.103 15.9598 159.593 17.6569 159.593 19.945C159.593 22.233 161.122 24.0041 163.314 24.0041C165.506 24.0041 167.054 22.3069 167.054 19.945C167.054 17.5831 165.525 15.9598 163.314 15.9598ZM177.372 26.531H172.509V13.469H177.224C180.928 13.469 184.687 15.0185 184.687 19.9623C184.687 24.5557 180.966 26.5294 177.372 26.5294V26.531ZM177.151 16.1625H175.584V23.7998H177.077C179.324 23.7998 181.407 22.8773 181.407 19.9623C181.407 17.0472 179.324 16.1625 177.151 16.1625ZM195.17 26.531L194.156 23.9664H189.107L188.15 26.531H184.723L190.195 13.469H193.254L198.671 26.531H195.17ZM191.669 16.9561L190.011 21.4395H193.291L191.67 16.9561H191.669ZM204.989 20.9963V26.531H201.838V20.9963L196.937 13.469H200.75L203.533 18.3028L206.315 13.469H210L204.989 20.9963Z" fill="black"/>
<path d="M-2.28882e-05 40L33.3603 5.69501C36.8556 2.09177 41.7274 0.0539837 46.8151 0.0539837H60.0809L26.7206 34.359C23.2253 37.9622 18.3536 40 13.2658 40H-2.28882e-05Z" fill="url(#paint0_linear_1540_10174)"/>
<path d="M26.5722 0L-2.28882e-05 26.5317V0H26.5722Z" fill="url(#paint1_linear_1540_10174)"/>
<defs>
<linearGradient id="paint0_linear_1540_10174" x1="9.47288" y1="39.934" x2="48.0153" y2="2.63808" gradientUnits="userSpaceOnUse">
<stop stop-color="#B01F24"/>
<stop offset="1" stop-color="#E31E26"/>
</linearGradient>
<linearGradient id="paint1_linear_1540_10174" x1="4.18959" y1="26.4879" x2="27.5136" y2="11.4591" gradientUnits="userSpaceOnUse">
<stop stop-color="#B01F24"/>
<stop offset="1" stop-color="#E31E26"/>
</linearGradient>
</defs>
</svg>
