<svg width="49" height="80" viewBox="0 0 49 80" fill="none" xmlns="http://www.w3.org/2000/svg">
<path d="M7.89712 73.6965C8.8061 74.2048 9.25232 75.09 9.25232 76.3441C9.25232 77.3442 8.90526 78.1721 8.20287 78.8196C7.50047 79.4754 6.61629 79.836 5.52551 79.9016H1.15416C0.873198 79.9016 0.625295 79.795 0.418709 79.5819C0.20386 79.3688 0.0964355 79.1311 0.0964355 78.8524V68.9669C0.0964355 68.68 0.195597 68.4341 0.402183 68.2292C0.600505 68.0243 0.856672 67.9177 1.15416 67.9177H5.09581C6.11222 67.9177 6.9964 68.2456 7.74011 68.8932C8.48382 69.5407 8.85568 70.385 8.85568 71.4096C8.85568 72.4342 8.5334 73.1801 7.89712 73.6883V73.6965ZM2.12924 72.7621H5.06276C5.4842 72.7621 5.8891 72.6473 6.26096 72.4014C6.63281 72.1637 6.82287 71.8358 6.82287 71.4096C6.82287 70.9834 6.64934 70.6227 6.29401 70.3522C5.93868 70.0817 5.54204 69.9424 5.09581 69.9424H2.12924V72.7539V72.7621ZM7.22778 76.3359C7.21952 75.8277 6.97988 75.4507 6.52539 75.2212C6.0709 74.9917 5.58336 74.8687 5.06276 74.8687H2.12924V77.8606H5.53378C5.98 77.8606 6.36838 77.7294 6.70718 77.4589C7.04598 77.1884 7.21952 76.8114 7.22778 76.3278V76.3359Z" fill="#18244c"/>
<path d="M13.2931 67.8355C13.5988 67.8355 13.8467 67.9339 14.0368 68.1306C14.2351 68.3273 14.326 68.5732 14.326 68.8847V78.9505C14.326 79.2374 14.2268 79.4833 14.0368 79.68C13.8384 79.8768 13.5905 79.9833 13.2931 79.9833C12.9956 79.9833 12.7559 79.885 12.5576 79.6882C12.3593 79.4915 12.2519 79.2456 12.2519 78.9505V68.8847C12.2519 68.5978 12.351 68.3519 12.5576 68.147C12.7559 67.9421 13.0038 67.8355 13.2931 67.8355Z" fill="#18244c"/>
<path d="M25.0521 67.9177C25.3661 67.9177 25.6223 68.0161 25.8123 68.1964C26.0106 68.3849 26.1015 68.6227 26.1015 68.9096C26.1015 69.1964 26.0024 69.4423 25.7958 69.6473C25.5975 69.8522 25.3413 69.9588 25.0438 69.9588H22.5813V78.9753C22.5813 79.2622 22.4822 79.5 22.2921 79.6885C22.102 79.877 21.8541 79.9754 21.5566 79.9754C21.2757 79.9754 21.036 79.877 20.8377 79.6885C20.6394 79.5 20.532 79.2622 20.532 78.9753V69.967H18.0199C17.7389 69.967 17.4993 69.8686 17.3092 69.6555C17.1109 69.4505 17.02 69.2046 17.02 68.9177C17.02 68.6309 17.1109 68.4095 17.2927 68.2292C17.4745 68.0489 17.7141 67.9423 18.0034 67.9177H25.0438H25.0521Z" fill="#18244c"/>
<path d="M32.9516 68.5572L37.1081 78.6721C37.166 78.8197 37.1907 78.9508 37.1907 79.0902C37.1907 79.3689 37.0916 79.5902 36.9015 79.7541C36.7032 79.9181 36.4553 80 36.1413 80C35.7199 80 35.4058 79.7869 35.2158 79.3525L34.3564 77.336H29.5636L28.7042 79.4508C28.5224 79.8197 28.2249 80 27.8118 80C27.5308 80 27.2829 79.9099 27.0763 79.7295C26.8615 79.5492 26.754 79.3197 26.754 79.041C26.754 78.8935 26.7788 78.7623 26.8201 78.6393L31.0428 68.508C31.1337 68.2867 31.2493 68.1227 31.3898 68.008C31.5303 67.9014 31.7534 67.844 32.0509 67.844C32.4558 67.844 32.7533 68.0817 32.9433 68.5572H32.9516ZM30.3899 75.3442H33.53L31.9683 71.5818L30.3899 75.3442Z" fill="#18244c"/>
<path d="M42.3971 67.4995C42.6285 67.4995 42.7524 67.606 42.7524 67.8191C42.7524 67.9339 42.7194 68.0241 42.645 68.0733C42.5706 68.1224 42.488 68.1552 42.3971 68.1552H40.7527V73.975C40.7527 74.0734 40.7196 74.1554 40.6618 74.2291C40.6039 74.3029 40.513 74.3357 40.4139 74.3357C40.3147 74.3357 40.2403 74.3029 40.1825 74.2291C40.1246 74.1554 40.0916 74.0734 40.0916 73.975V68.1552H38.4306C38.3397 68.1552 38.2571 68.1224 38.1993 68.0569C38.1332 67.9913 38.1001 67.9093 38.1001 67.811C38.1001 67.7126 38.1331 67.6388 38.191 67.5814C38.2488 67.5241 38.3315 67.4913 38.4224 67.4913H42.4053L42.3971 67.4995Z" fill="#18244c"/>
<path d="M46.9754 69.942C47.5125 69.942 47.9835 70.1715 48.3885 70.6305C48.7934 71.0896 48.9999 71.5896 48.9999 72.147C48.9999 72.7044 48.8016 73.2126 48.3967 73.647C48.0001 74.0814 47.5208 74.2946 46.9754 74.2946H44.8517C44.7525 74.2946 44.6699 74.2618 44.6038 74.188C44.5377 74.1142 44.5046 74.0323 44.5046 73.9421V67.8272C44.5046 67.737 44.5377 67.6551 44.5955 67.5977C44.6534 67.5321 44.7278 67.4993 44.8104 67.4993H48.1653C48.248 67.4993 48.3223 67.5321 48.3885 67.5977C48.4546 67.6633 48.4876 67.7452 48.4876 67.8354C48.4876 67.9338 48.4546 68.0075 48.3967 68.0649C48.3389 68.1223 48.2562 68.1551 48.1653 68.1551H45.174V69.942H46.9837H46.9754ZM46.9754 73.6306C47.339 73.6306 47.6613 73.4749 47.934 73.1552C48.2067 72.8355 48.3471 72.4994 48.3471 72.147C48.3471 71.7945 48.2067 71.4256 47.9257 71.0978C47.6447 70.7699 47.3307 70.606 46.9837 70.606H45.174V73.6306H46.9837H46.9754Z" fill="#18244c"/>
<path d="M38.1843 21.1586C37.1475 22.3363 35.9853 23.3896 34.7144 24.3351C33.2595 23.5057 31.9385 22.8671 30.5672 22.2036C29.5472 21.706 28.4853 21.1918 27.3147 20.578L27.1559 20.4951C26.5622 20.1882 25.3248 19.5413 25.2077 18.7202C25.1408 18.2308 25.4502 17.7083 25.7428 17.3434C27.2228 16.232 28.6943 15.1206 30.1408 14.0093C31.1191 13.2628 32.9334 11.8694 34.8816 9.65497C35.3247 9.14905 35.7512 8.61824 36.1609 8.08743C36.813 8.21184 38.0087 8.47724 39.2879 9.16564C39.8063 9.44763 40.2662 9.83744 40.6257 10.3019C41.3699 11.2723 41.8298 12.3007 41.9719 13.3789C42.3816 16.4062 40.1575 18.9275 38.1926 21.1586" fill="#18244c"/>
<path d="M1.27766 22.4111C2.24756 18.8281 3.70241 13.4039 8.48501 8.32809C10.6171 6.06386 14.2459 2.99513 19.4214 1.20365C19.99 1.0046 20.7342 0.747487 21.6622 0.506965C24.6054 -0.256071 27.699 -0.156545 30.6004 0.797251C32.7074 1.48564 35.0987 2.65508 37.3228 4.60414C38.1254 5.30912 38.8612 6.08045 39.5385 6.91813C38.0585 6.25462 36.7793 6.03898 36.2358 5.94775C34.5803 5.66575 32.9666 5.70722 30.9933 6.08874C25.9097 7.05912 21.8127 9.50582 19.8311 10.8826C16.5368 13.1634 7.79103 19.2096 3.95325 30.7132C3.10877 33.2263 1.36128 38.468 2.40643 45.269C2.50676 45.9574 2.6489 46.6375 2.80776 47.3093C2.18067 45.6422 1.04355 42.4905 0.433185 38.4265C-0.637048 31.2606 0.516797 25.3222 1.30275 22.4194" fill="#18244c"/>
<path d="M26.0346 63.4493H25.9092C22.4225 63.4493 19.8891 62.4706 18.2169 61.8237C15.8841 60.9196 13.568 59.5926 11.5112 57.9753C11.1349 57.6767 10.3239 57.0464 8.61822 55.1637C8.06638 54.5582 5.22358 50.8675 4.51287 44.9373C4.15334 41.9764 4.18679 39.3473 4.51287 37.1245C4.94766 38.1944 5.48277 39.2809 6.14331 40.3591C8.91086 44.8627 12.6483 47.2513 13.8774 48.0392C15.349 48.9765 17.5731 50.403 20.9008 51.0416C22.2052 51.2904 23.4092 51.3817 24.446 51.3817C26.1684 51.3817 27.4309 51.1412 27.9158 51.0333C29.3456 50.7182 32.0128 50.121 34.2369 48.0558C34.4627 47.8485 34.6633 47.6328 34.8556 47.4172C35.7001 48.6779 36.5697 50.3532 37.0295 52.4599C37.2469 53.4469 37.7737 56.922 37.2637 57.967C36.3523 59.8331 32.7737 63.4493 26.0262 63.4493" fill="#18244c"/>
<path d="M44.5557 42.0261C44.1543 47.4254 41.9303 52.1197 39.539 55.7027C39.5473 54.583 39.447 53.3306 39.1543 51.9953C38.1844 47.5747 35.6176 44.7547 34.656 43.6931C32.9253 41.7855 31.2363 40.6659 27.8835 38.4265C22.8249 35.0509 22.4152 34.3128 22.0474 33.6658L21.9888 33.5663C20.4671 30.8625 20.9771 27.7606 21.3617 25.4964C21.6962 23.5141 22.3484 21.6148 23.2932 19.8234C23.8868 21.2084 25.3751 21.9881 26.1527 22.3862L26.2948 22.4608C27.4988 23.0994 28.5774 23.622 29.6142 24.1196C31.7631 25.1563 33.7948 26.1433 36.3952 27.9016C36.5457 28.0011 36.7045 28.1089 36.8885 28.2251C38.8283 29.5023 42.4236 31.8827 43.9369 36.0047C44.5222 37.6137 44.7313 39.6374 44.564 42.0178" fill="#18244c"/>
</svg>
