<svg width="92" height="74" viewBox="0 0 92 74" fill="none" xmlns="http://www.w3.org/2000/svg">
<path d="M73.1815 40.6755H72.5804C72.5804 40.6755 72.4248 40.6968 72.4248 40.8007V41.7646C72.4248 41.9945 72.4564 42.0575 72.5804 42.0575H73.1762C73.5234 42.0575 73.7721 41.7326 73.7721 41.3457C73.7721 40.9587 73.3784 40.6755 73.1815 40.6755Z" fill="#87989E"/>
<path d="M72.5294 39.4513H73.1297C73.4311 39.4513 73.6069 39.3049 73.6069 38.8655C73.6069 38.4262 73.1393 38.3206 73.1393 38.3206H72.6533C72.4872 38.3206 72.4248 38.3427 72.4248 38.4359V39.2623C72.4248 39.4096 72.4661 39.4513 72.5294 39.4513Z" fill="#87989E"/>
<path d="M18.4178 41.0212H17.2243C16.8385 41.0212 16.5476 41.0212 16.5476 41.4437V44.5352C16.5476 44.9905 16.8702 45.121 17.0635 45.121H18.4178C19.447 45.121 20.2529 44.6985 20.2529 43.0387C20.2529 41.3798 18.9636 41.0212 18.4178 41.0212Z" fill="#87989E"/>
<path d="M61.709 43.1035C61.5438 43.1035 60.8126 46.5198 60.7159 47.2352C60.6183 47.9515 60.8767 47.9515 61.1351 47.9515C61.1351 47.9515 61.9727 47.9186 62.3576 47.9515C62.7452 47.9843 62.7136 47.5938 62.616 47.2033C62.5202 46.8127 61.876 43.1035 61.709 43.1035Z" fill="#87989E"/>
<path d="M13.8733 23.2903H15.7435C16.6769 23.2903 17.2244 22.835 17.2244 21.4681C17.2244 20.1021 15.7751 19.7764 15.7751 19.7764H14.26C13.7458 19.7764 13.5525 19.8412 13.5525 20.135V22.7045C13.5525 23.1598 13.6808 23.2903 13.8733 23.2903Z" fill="#87989E"/>
<path d="M13.5525 30.4806C13.5525 31.1969 13.6483 31.3913 14.035 31.3913H15.8885C16.9678 31.3913 17.7394 30.383 17.7394 29.1794C17.7394 27.975 16.516 27.0972 15.9043 27.0972H14.035C14.035 27.0972 13.5525 27.162 13.5525 27.4868" fill="#87989E"/>
<path d="M75.0889 42.2348C74.8077 42.7895 74.29 43.2812 73.5333 43.2812H71.3062C71.1305 43.2812 70.9652 43.1978 70.9652 42.9156V37.3992L71.1727 37.117H73.2125C73.8761 37.117 74.1977 37.3788 74.5282 37.6194C74.8613 37.8599 75.0362 38.2371 75.0265 38.7821C75.0168 39.3262 74.9219 39.5871 74.747 39.7753C74.5695 39.9635 74.3849 40.0895 74.3849 40.0895C74.3849 40.0895 74.6635 40.1623 74.9632 40.5502C75.2647 40.9371 75.3692 41.68 75.0889 42.2348ZM70.6541 38.2398C70.6541 38.3427 70.6146 38.4129 70.4045 38.4129H69.5186C69.4263 38.4129 69.4132 38.522 69.4132 38.6791V43.0824C69.4132 43.2235 69.3402 43.2812 69.1847 43.2812H68.1581C68.0193 43.2812 67.9182 43.2395 67.9182 43.0283V38.6401C67.9182 38.475 67.9481 38.396 67.7864 38.396H66.8064C66.6588 38.396 66.6447 38.2708 66.6447 38.1457V37.3291C66.6447 37.117 66.7599 37.117 66.9936 37.117H70.3579C70.5601 37.117 70.6541 37.172 70.6541 37.3691V38.2398ZM68.2548 56.2808H65.1612C64.6778 56.2808 64.3236 55.695 64.1637 54.8171C64.0011 53.9375 63.7445 52.4739 63.6153 52.0506C63.487 51.6281 63.3244 51.5624 62.7452 51.5624C62.166 51.5624 60.8767 51.5952 60.4584 51.5952C60.0392 51.5952 59.7491 51.6929 59.5874 52.5716C59.4275 53.4503 59.0399 54.9139 58.9432 55.3701C58.8483 55.8254 58.7499 56.2808 57.784 56.2808H54.9171C54.4337 56.2808 54.047 55.955 54.4012 54.621C54.7563 53.2878 58.6541 38.5815 58.7833 38.0285C58.9125 37.4747 59.1374 37.117 59.8142 37.117H63.5177C64.0986 37.117 64.4528 37.1498 64.7429 38.0285C65.032 38.9072 68.8024 54.4586 69.059 55.2396C69.3174 56.0198 69.059 56.2808 68.2548 56.2808ZM53.6929 55.3701C53.6929 55.7598 53.6612 56.2808 52.9195 56.2808H50.0201C49.4409 56.2808 49.1184 56.1503 49.1184 55.434V49.015C49.1184 48.1789 48.9997 48.3742 48.5585 48.3742H45.3164C44.9938 48.3742 44.8339 48.5703 44.8339 49.1553V55.6302C44.8339 56.0855 44.6405 56.2808 43.8337 56.2808H41.1593C40.7093 56.2808 40.291 56.1831 40.291 55.3044V37.9309C40.291 37.3123 40.7093 37.117 41.1593 37.117H43.9963C44.5755 37.117 44.8339 37.4108 44.8339 37.8989V43.852C44.8339 44.2105 45.0255 44.5682 45.4772 44.5682H48.5585C48.9584 44.5682 49.1834 44.5354 49.1834 43.852V37.9637C49.1834 37.5404 49.3767 37.117 50.0851 37.117H52.8869C53.5637 37.117 53.6929 37.3451 53.6929 37.9957V55.3701ZM39.2267 55.3701C39.2267 55.9222 39.0993 56.2808 38.4559 56.2808H35.2648C34.8464 56.2808 34.6522 56.0527 34.6522 55.4997V46.6984C34.6522 46.6984 30.2139 55.6133 30.0786 55.8574C29.9177 56.1503 29.5635 56.2808 29.241 56.2808H26.2124C25.7624 56.2808 25.4707 56.0855 25.4707 55.3373V38.0285C25.4707 37.3123 25.9224 37.117 26.5033 37.117H29.2076C29.6593 37.117 30.0153 37.2803 30.0153 38.0285V46.8458C30.0153 46.8458 34.3789 37.7844 34.6522 37.5084C34.9273 37.2315 35.1048 37.117 35.6849 37.117H38.4225C38.7767 37.117 39.2267 37.3123 39.2267 37.9309V55.3701ZM22.8631 47.8212C21.6546 49.0416 19.867 49.015 18.8194 49.015H17.2242C16.9351 49.015 16.6767 49.1553 16.6767 49.6106V55.5316C16.6767 56.1183 16.3559 56.2808 15.8391 56.2808H13.0356C12.619 56.2808 12.0697 56.2488 12.0697 55.2725V37.9637C12.0697 37.4108 12.5214 37.117 12.8765 37.117H18.7385C20.0278 37.117 21.7346 37.5404 23.2164 38.8096C24.6999 40.078 24.7623 42.1931 24.7623 43.5591C24.7623 44.9259 24.0706 46.6017 22.8631 47.8212ZM23.023 16.9458C23.023 16.2304 23.4748 16.0351 24.0539 16.0351H26.76C27.2117 16.0351 27.5659 16.1976 27.5659 16.9458V25.763C27.5659 25.763 31.9321 16.7017 32.2054 16.4248C32.4779 16.1488 32.6563 16.0351 33.2355 16.0351H35.9731C36.3273 16.0351 36.7808 16.2304 36.7808 16.8473V34.2865C36.7808 34.8403 36.6516 35.198 36.0065 35.198H32.8171C32.3988 35.198 32.2054 34.9708 32.2054 34.417V25.6166C32.2054 25.6166 27.7645 34.5297 27.6309 34.7747C27.4701 35.0684 27.1159 35.198 26.7916 35.198H23.7648C23.313 35.198 23.023 35.0028 23.023 34.2545V16.9458ZM37.3916 16.6937C37.3916 16.0351 37.7537 16.0351 38.4788 16.0351H48.9408C49.5683 16.0351 49.8601 16.2056 49.8601 16.8153V19.5233C49.8601 19.8411 49.7388 20.0612 49.085 20.0612H46.3315C46.0423 20.0612 46.0001 20.4029 46.0001 20.8911V34.5794C46.0001 35.0187 45.7751 35.198 45.2935 35.198H42.1032C41.6682 35.198 41.3553 35.0684 41.3553 34.409V20.7686C41.3553 20.2565 41.4511 20.0124 40.9449 20.0124H37.8996C37.44 20.0124 37.3916 19.6219 37.3916 19.2313V16.6937ZM47.9248 7.43358C48.2483 6.28416 48.9584 4.80989 50.2451 3.96403C51.5344 3.11816 52.7577 2.79242 54.7563 3.05337C56.7522 3.31343 57.784 4.15929 58.8149 5.65576C59.8458 7.15222 60.1042 8.19335 59.975 9.7555C59.8458 11.3176 59.6525 11.9026 59.6525 11.9026L47.6041 9.7555C47.6041 9.7555 47.6041 8.58389 47.9248 7.43358ZM90.1281 17.434C89.0339 17.2387 62.616 12.4884 62.616 12.4884C62.616 12.4884 62.9385 9.56023 62.8744 8.06377C62.8093 6.5673 62.166 4.48504 60.4909 2.8581C58.8149 1.23116 57.9773 0.711038 55.4647 0.190028C52.9511 -0.330096 50.7618 0.320502 49.6659 0.905419C48.5708 1.49122 46.2506 3.37822 45.413 5.46138C44.5755 7.54364 44.6405 9.23449 44.6405 9.23449C44.6405 9.23449 18.9934 4.4451 16.2909 3.96403C14.8944 3.71639 13.9707 3.70396 13.5849 4.7451C13.1981 5.78623 11.3938 13.3351 10.9439 14.9612C10.9069 15.0925 10.8068 15.4653 10.6556 16.0351H16.0009C18.0636 16.0351 19.0611 16.8473 20.092 17.5964C21.122 18.3446 21.6713 19.5162 21.6379 21.208C21.6054 22.8997 21.3171 23.7127 20.767 24.2985C20.2212 24.8843 19.6403 25.2749 19.6403 25.2749C19.6403 25.2749 20.5112 25.5021 21.4463 26.7065C22.3797 27.9101 22.7005 30.2205 21.8321 31.9442C20.9629 33.6687 19.3511 35.198 16.9993 35.198H10.0729C9.52536 35.198 9.01122 34.938 9.01122 34.0593V22.2837C5.9677 33.8578 0.405352 55.0896 0.117083 56.1503C-0.26874 57.582 0.312191 58.6231 1.66477 58.9479C3.01647 59.2737 36.8441 65.3918 41.7403 66.2377C46.6373 67.0826 81.6874 73.459 84.266 73.9161C86.8429 74.3706 86.907 72.8723 86.9721 71.9634C87.0362 71.051 91.9333 20.6222 91.9965 19.1905C92.0607 17.7588 91.2231 17.6292 90.1281 17.434Z" fill="#87989E"/>
</svg>
