<svg width="512" height="512" viewBox="0 0 512 512" fill="none" xmlns="http://www.w3.org/2000/svg">
<path d="M189.992 512C182.221 512 175.217 505.747 175.217 497.214V136.248L128.817 113.765C119.46 109.233 119.589 95.8653 129.03 91.514L324.559 1.37553C326.599 0.434161 328.701 0 330.748 0C338.522 0 345.522 6.25742 345.522 14.7876V429.252C345.522 436.427 341.364 442.952 334.858 445.984L196.237 510.6C194.18 511.559 192.059 512 189.992 512Z" fill="#FF00FF"/>
<path d="M422.116 174.709C414.659 168.045 410.364 157.978 409.538 145.653H364.62C364.989 154.875 366.497 163.687 369.148 171.984C373.692 186.213 381.665 198.71 392.198 208.133C402.586 217.424 415.061 223.628 429.268 226.572C435.351 227.832 441.631 228.462 448.074 228.462H462.387V183.594H448.158C437.668 183.594 428.694 180.588 422.116 174.709Z" fill="black"/>
<path d="M462.386 314.314C453.612 318.695 442.772 321.193 435.284 321.193C421.207 321.193 413.854 316.735 411.001 299.701C408.882 287.044 408.093 261.167 410.506 237.767H363.819C361.565 265.615 361.424 282.788 365.048 307.132C370.762 345.539 393.896 366.61 432.772 366.344C446.899 366.252 459.075 363.424 476.224 354.421L462.386 314.314Z" fill="black"/>
<path d="M336.371 193.288C281.924 193.288 212.388 205.276 230.232 364.231H279.077C277.214 343.604 275.86 326.667 275.715 310.1C275.715 262.867 287.634 235.435 335.666 237.389L345.522 237.768V193.82C342.292 193.446 337.402 193.311 336.371 193.288Z" fill="black"/>
<path d="M131.964 325.435C138.842 307.44 144.841 290.341 151.087 271.706C159.665 246.149 168.629 218.582 175.319 193.814H227.136C218.079 222.255 208.145 250.681 197.173 279.574C186.206 308.471 175.604 336.692 162.966 364.231H99.1719C86.5336 336.692 75.9304 308.471 64.9632 279.574C53.9919 250.681 44.0575 222.255 35 193.814H86.8176C93.509 218.582 102.473 246.149 111.049 271.706C117.295 290.341 123.294 307.44 130.172 325.435H131.964Z" fill="black"/>
</svg>
