<svg width="1000" height="344" viewBox="0 0 1000 344" fill="none" xmlns="http://www.w3.org/2000/svg">
<g clip-path="url(#clip0_633_125)">
<path d="M920.74 52.89C880.4 43.45 821.12 57.44 805.15 89.66C804.93 90.1 804.49 90.39 804 90.41C803.47 90.39 803.04 90.19 802.78 89.77C786.16 63.19 759.85 48.61 728.58 48.61C728.07 48.61 727.55 48.61 727.04 48.62C695.6 49.1 665.27 64.53 650.51 86.14L649.62 86.1C652.43 73.07 654.31 57.82 654.83 50.45H547.65L547.27 343.75H648.42L648.82 191.57C649.09 163.81 666.6 148.3 682.95 147.8C683.21 147.79 683.48 147.79 683.74 147.79C696.61 147.79 713.86 157.29 713.86 184.69V343.75H824.27V192.1C824.54 164.33 842.14 148.82 858.57 148.32C858.83 148.31 859.1 148.31 859.37 148.31C872.3 148.31 889.61 157.84 889.61 185.17V343.75H1000V172.32C1000 84.53 950.34 59.8 920.74 52.86V52.89Z" fill="#FF4800"/>
<path d="M228.38 50.45C228.38 90.72 212.54 169.74 174.13 218.48L109.02 48.22L0 62.78L107.99 343.77H217.87C252.52 304.77 282.21 257.09 301.58 209.94C301.58 209.94 337.02 136.06 337.02 50.47L228.37 50.45H228.38Z" fill="#FF4800"/>
<path d="M349.72 198.41C349.72 285.45 400.91 343.77 484.78 343.77H534.64V244.44L496.57 244.42C467.66 244.42 452.16 220.9 452.16 187.41V149.68H514.61C516.37 144.58 531.21 97.57 535.9 50.48L447.98 50.46C456.6 28.15 456.8 7.10001 456.97 0.400009H349.55L349.74 198.42L349.72 198.41Z" fill="#FF4800"/>
</g>
<defs>
<clipPath id="clip0_633_125">
<rect width="1000" height="343.39" fill="white" transform="translate(0 0.390015)"/>
</clipPath>
</defs>
</svg>
