<?xml version="1.0" encoding="utf-8"?>
<!-- Generator: Adobe Illustrator 25.3.1, SVG Export Plug-In . SVG Version: 6.00 Build 0)  -->
<svg version="1.1"
	 id="Layer_6__x2B__Layer_3__x2B__Layer_9__x2B__Layer_11__x2B__Layer_12__x2B__Layer_5__x2B__Group_2_xA0_Image_1_"
	 xmlns="http://www.w3.org/2000/svg" xmlns:xlink="http://www.w3.org/1999/xlink" x="0px" y="0px" viewBox="0 0 702.02 412.26"
	 style="enable-background:new 0 0 702.02 412.26;" xml:space="preserve">
<style type="text/css">
	.st0{display:none;fill:#FFFF55;}
	.st1{fill:#282828;}
</style>
<rect x="-219.84" y="-127.21" class="st0" width="1141.71" height="666.68"/>
<path id="W" class="st1" d="M529.95,215.4l-64.68,196.86h-77.15l-87.75-273.27l-87.75,273.27h-77.74L0,0h87.75l87.16,279.16
	L263.26,0h74.21l88.34,279.16l19.91-63.76H529.95z"/>
<path id="top" class="st1" d="M479.38,107.58L512.97,0h87.75l-35.35,107.58H479.38z M300.36,138.99"/>
<path class="st1" d="M496.57,162.28c0,11.89-10.47,17.06-20.71,17.06c-10.94,0-19.3-5.41-22.36-13.3l7.77-3.18
	c1.76,5.06,7.06,8,14.59,8c4.71,0,12.12-1.65,12.12-8.59c0-4.47-2.94-6.24-12.94-8.35c-8.47-1.65-19.3-3.88-20.95-14.47
	c-1.41-10.12,7.06-18.59,19.65-18.59c9.88,0,17.42,4.82,20.01,12.24l-7.88,3.06c-1.41-4.12-5.65-6.59-12-6.83
	c-8.24-0.24-12.12,4.12-11.3,8.71c0.71,4.47,5.88,5.77,14.12,7.65C486.22,147.69,496.57,151.45,496.57,162.28z"/>
<path class="st1" d="M559.76,150.16c0,16.24-10.36,29.18-26.59,29.18c-8,0-14.36-3.29-18.71-8.59v33.3h-8.47v-82.37h8.47v7.77
	c4.35-5.3,10.71-8.59,18.71-8.59C549.41,120.86,559.76,133.92,559.76,150.16z M551.17,150.16c0-11.65-6.36-21.06-18-21.06
	c-11.53,0-18.24,9.41-18.24,21.06s6.71,20.83,18.24,20.83C544.82,170.99,551.17,161.81,551.17,150.16z"/>
<path class="st1" d="M623.54,150.16c0,16.24-11.42,29.18-27.65,29.18c-16.12,0-27.3-12.94-27.3-29.18s11.18-29.3,27.3-29.3
	C612.12,120.86,623.54,133.92,623.54,150.16z M614.95,150.16c0-11.65-7.41-21.06-19.06-21.06c-11.65,0-18.71,9.41-18.71,21.06
	s7.06,20.83,18.71,20.83C607.53,170.99,614.95,161.81,614.95,150.16z"/>
<path class="st1" d="M663.31,121.09l-1.65,8.59c-1.18-0.24-2.47-0.35-3.88-0.35c-8.71,0-15.06,6-15.06,18.48v30.6h-8.59v-56.72h8.59
	v6.59c3.88-4.59,9.53-7.41,16.36-7.41C660.48,120.86,661.9,120.97,663.31,121.09z"/>
<path class="st1" d="M702.02,174.87c-4,3.29-9.65,4.82-13.3,4.35c-7.41-0.82-12-5.41-12-18.48c0-5.18,0-18.59,0-30.48h-8.71v-8.59
	h8.71c0-7.88,0-12.47,0-12.47l8.59-2.35c0,0,0,7.06,0,14.83h12v8.59h-12c0,12.24,0,26.01,0,30.24c0,4.71,0.24,7.41,2.24,9.18
	c1.88,1.53,6.59,1.65,10.12-1.29L702.02,174.87z"/>
<polygon class="st1" points="438.01,157.63 404.65,157.63 408.65,147.09 442.01,147.09 "/>
</svg>
