<svg xmlns="http://www.w3.org/2000/svg" viewBox="0 0 259.564 60"><path d="M41.74 0v13.043L30 0 18.26 13.043V0H0v60h20.87L30 49.565 39.13 60H60V0H41.74zM259.564 15.652V0h-60v60h60V44.348h-18.26v-6.522h18.26V22.174h-18.26v-6.522h18.26zM79.565 0a13.026 13.026 0 0 0-13.043 13.043V60H93.26V45.652h6.521V60h26.739V0H79.565zm20.217 35.217h-6.521V24.13c0-1.782 1.478-3.26 3.26-3.26 1.783 0 3.261 1.478 3.261 3.26v11.087zM193.044 18.26v-5.217A13.026 13.026 0 0 0 180 0h-46.956v60H180a13.026 13.026 0 0 0 13.044-13.044V41.74c0-5.174-3-9.609-7.348-11.739 4.348-2.13 7.348-6.565 7.348-11.74zm-26.739 25.436c0 1.782-1.478 3.26-3.261 3.26h-3.261V35.218h3.261c1.783 0 3.261 1.479 3.261 3.261v5.218zm0-22.174c0 1.782-1.478 3.26-3.261 3.26h-3.261V13.044h3.261c1.783 0 3.261 1.479 3.261 3.261v5.218z"/></svg>