<?xml version="1.0" encoding="UTF-8" standalone="no"?>
<!-- Created with Inkscape (http://www.inkscape.org/) -->

<svg
   width="274.94867mm"
   height="199.85492mm"
   viewBox="0 0 274.94867 199.85492"
   version="1.1"
   id="svg20347"
   inkscape:version="1.1 (c68e22c387, 2021-05-23)"
   sodipodi:docname="WALB_2003.svg"
   xmlns:inkscape="http://www.inkscape.org/namespaces/inkscape"
   xmlns:sodipodi="http://sodipodi.sourceforge.net/DTD/sodipodi-0.dtd"
   xmlns="http://www.w3.org/2000/svg"
   xmlns:svg="http://www.w3.org/2000/svg">
  <sodipodi:namedview
     id="namedview20349"
     pagecolor="#505050"
     bordercolor="#eeeeee"
     borderopacity="1"
     inkscape:pageshadow="0"
     inkscape:pageopacity="0"
     inkscape:pagecheckerboard="0"
     inkscape:document-units="mm"
     showgrid="false"
     inkscape:zoom="0.49531425"
     inkscape:cx="982.20472"
     inkscape:cy="443.15301"
     inkscape:window-width="1366"
     inkscape:window-height="715"
     inkscape:window-x="-8"
     inkscape:window-y="-8"
     inkscape:window-maximized="1"
     inkscape:current-layer="svg20347" />
  <defs
     id="defs20344" />
  <path
     style="fill:#b40909;fill-opacity:1;stroke:none;stroke-width:1.31743"
     d="M 0,0 H 274.94868 V 199.85493 H 0 Z"
     id="path11286" />
  <path
     d="m 166.91902,8.563369 c -35.83425,0 -66.79393,20.420234 -82.076192,50.194247 V 57.967155 C 86.687254,36.756461 61.787708,28.324893 44.13406,44.529319 L 2.10793,87.477716 c -0.52701,0.52696 -0.52701,1.58092 0,2.10788 L 27.40268,115.0121 c 0.52696,0.52696 1.44917,0.52696 2.10788,0 L 44.23091,99.823846 c 0.51869,-0.53513 0.69361,0.301244 0.69361,1.091714 v 84.18407 c 0,0.79046 0.65876,1.44917 1.44922,1.44917 l 37.283372,-0.39536 c 0.790461,0 1.44922,-0.65871 1.44922,-1.44917 0,0 0,-18.70761 -0.131951,-41.63098 15.282209,29.64231 46.241939,49.9308 81.812689,49.9308 50.853,0 92.08873,-41.23573 92.08873,-92.08868 C 259.00725,49.798892 217.77183,8.563219 166.91882,8.563219 Z m 0,137.276711 c -25.03125,0 -45.18803,-20.28848 -45.18803,-45.18803 0,-25.031254 20.28853,-45.18803 45.18803,-45.18803 25.03125,0 45.18803,20.288536 45.18803,45.18803 0,24.89955 -20.28849,45.18803 -45.18803,45.18803 z"
     fill="#ffffff"
     id="path11288"
     style="stroke:none;stroke-width:1.31743;fill:#dfdfdf;fill-opacity:1"
     sodipodi:nodetypes="scccccccsssccccscssssss" />
</svg>
