<?xml version="1.0" encoding="utf-8"?>
<!-- Generator: Adobe Illustrator 26.4.1, SVG Export Plug-In . SVG Version: 6.00 Build 0)  -->
<svg version="1.1" id="Layer_1" xmlns="http://www.w3.org/2000/svg" xmlns:xlink="http://www.w3.org/1999/xlink" x="0px" y="0px"
	 viewBox="0 0 196.3 33.2" style="enable-background:new 0 0 196.3 33.2;" xml:space="preserve">
<style type="text/css">
	.st0{fill:#1A1A1A;}
	.st1{fill:#C60000;}
	.st2{fill:#FFFFFF;}
</style>
<g id="ANF_GROUP_00000047050474410721857190000000409380932980395672_">
	<path id="A_00000114049808428561711120000006668224408834069681_" class="st0" d="M24.8,24.7H10.5l-2.5,5H0L13.6,3.5h8.3l13.5,26.1
		h-8.1L24.8,24.7z M22.2,19.2l-4.5-9.3l-4.6,9.3H22.2z"/>
	<polygon id="N_00000030448477078718881930000013375679510856175530_" class="st0" points="42.3,3.5 42.3,15.5 36.1,3.5 28,3.5 
		28,11.7 35.4,26 35.4,15.1 43,29.7 49.7,29.7 49.7,3.5 	"/>
	<polygon id="F_00000121986973298390117460000016570443342412325263_" class="st0" points="59,14.5 59,9.5 72.4,9.5 75.5,3.5 
		51.4,3.5 51.4,29.7 59,29.7 59,20.4 66.7,20.4 69.8,14.5 	"/>
</g>
<rect id="VERTICAL_BAR_00000126320314133432472420000018181662547067984265_" x="84.4" class="st0" width="0.6" height="33.2"/>
<g id="BAR_GROUP_00000177478602981755025680000002834728403122797967_">
	<polygon id="NEWS_BAR_00000119097732165525408220000007845396013870663585_" class="st0" points="195,29.7 94.4,29.7 94.5,16.7 
		195,16.7 	"/>
	<polygon id="FIRST_BAR_00000014632357047476476060000003899691378614002612_" class="st1" points="196.3,29.7 142.6,29.7 
		149.9,16.7 196.2,16.7 	"/>
	<g id="FIRST_GROUP_00000065797440038662639890000001717822499984425888_">
		<polygon id="F_00000023980072533261852880000016124353163857969599_" class="st2" points="153.5,22.6 153.5,21 158.2,21 159.2,19 
			151.1,19 151.1,27.4 153.5,27.4 153.5,24.5 156.4,24.5 157.4,22.6 		"/>
		<polygon id="_x31__00000136411626380611372140000003982214105158054532_" class="st2" points="160.6,19 160.6,19 160.1,19 
			159.1,21 160.1,21 160.1,27.4 162.5,27.4 162.5,19 		"/>
		<path id="R_00000112618942587569942730000005374201608869762192_" class="st2" d="M170.5,27.4l-2.2-2.7h-2.5v2.7h-2.4V19h5.9
			c2.1,0,3.8,0.9,3.8,2.9c0,1.4-0.9,2.3-2.2,2.7l2.5,2.9h-2.9V27.4z M169.1,23c0.9,0,1.5-0.2,1.5-1.1s-0.6-1.1-1.5-1.1h-3.3v2.1
			L169.1,23L169.1,23z"/>
		<path id="S_00000033359625508563733490000003885662373239597199_" class="st2" d="M183.6,24.8c0,1.7-1.6,2.9-4.6,2.9
			c-2.2,0-4-0.6-5.3-1.6l1.3-1.5c1,0.8,2.4,1.3,4.1,1.3c1.4,0,2.2-0.3,2.2-0.8s-0.7-0.7-2.4-0.9c-2.5-0.2-4.8-0.8-4.8-2.6
			c0-1.8,1.9-2.8,4.6-2.8c1.8,0,3.5,0.4,4.6,1.2l-1.2,1.5c-0.9-0.7-2.1-0.9-3.4-0.9c-1,0-2.2,0.2-2.2,0.8c0,0.6,1,0.6,2.5,0.8
			C181.7,22.3,183.6,22.9,183.6,24.8z"/>
		<path id="T_00000159455317326661164650000012460316992547016322_" class="st2" d="M193.3,21h-3.5v6.4h-2.4V21h-3.5v-2h9.4V21z"/>
	</g>
	<g id="NEWS_GROUP_00000175285004165547327870000010684199981647756684_">
		<path id="N_00000103227863600119778070000016287828370168171178_" class="st2" d="M108,19.4v7.9h-2l-5.1-5.2v5.2h-2.2v-7.9h2.4
			l4.7,4.8v-4.8C105.8,19.4,108,19.4,108,19.4z"/>
		<path id="E_00000176035991141378824980000002601006559255293624_" class="st2" d="M117.7,25.5v1.8h-8.4v-7.9h8.3v1.8h-6v1.3h5v1.7
			h-5v1.4L117.7,25.5L117.7,25.5z"/>
		<path id="W_00000155115857346018988820000015430452270124286651_" class="st2" d="M132.8,19.4l-2.9,7.9h-2.3l-1.8-5.5l-1.8,5.5
			h-2.3l-2.9-7.9h2.4l1.7,5.4l1.9-5.4h2.1l1.9,5.4l1.7-5.4H132.8z"/>
		<path id="S_00000061449837624882620130000001140980269510632886_" class="st2" d="M142.2,24.8c0,1.6-1.5,2.7-4.4,2.7
			c-2,0-3.7-0.6-5-1.5l1.2-1.4c0.9,0.8,2.2,1.2,3.8,1.2c1.4,0,2-0.2,2-0.8c0-0.5-0.6-0.7-2.3-0.8c-2.3-0.2-4.5-0.7-4.5-2.5
			c0-1.7,1.8-2.6,4.3-2.6c1.7,0,3.2,0.4,4.3,1.2l-1.2,1.4c-0.9-0.6-1.9-0.9-3.2-0.9c-0.9,0-2,0.1-2,0.7c0,0.5,0.9,0.6,2.3,0.7
			C140.3,22.5,142.2,23,142.2,24.8z"/>
	</g>
</g>
<g id="ATLANTA_GROUP_00000167398273061918475370000002020762103619338420_">
	<path id="A_00000102530493074395782180000003728706554666672295_" class="st0" d="M110.8,11.9h-7.3l-1.4,2.7H100l6.1-11.3h2.1
		l6.1,11.3h-2.1L110.8,11.9z M109.9,10.2L107.1,5l-2.8,5.2H109.9z"/>
	<path id="T_00000161593487472492737340000013049829148595798190_" class="st0" d="M124.5,5h-5.2v9.6h-1.9V5h-5.1V3.3h12.2V5
		L124.5,5z"/>
	<path id="L_00000124135496007906196590000017333841017779434669_" class="st0" d="M136.2,12.9v1.7h-10.3V3.3h1.9v9.6H136.2z"/>
	<path id="A_00000172418173001494615070000006189780244070929301_" class="st0" d="M148.1,11.9h-7.3l-1.4,2.7h-2.1l6.1-11.3h2.1
		l6.1,11.3h-2.1L148.1,11.9z M147.3,10.2L144.5,5l-2.8,5.2H147.3z"/>
	<path id="N_00000106137549389913804680000004540759836678951094_" class="st0" d="M165,3.3v11.3h-1.7l-8.8-8.9v8.9h-1.9V3.3h2.1
		l8.5,8.6V3.3H165z"/>
	<path id="T_00000168077673601871625020000011128268462365913990_" class="st0" d="M178.3,5h-5.2v9.6h-1.9V5h-5.1V3.3h12.2L178.3,5
		L178.3,5z"/>
	<path id="A_00000119086601345923026920000017893854603501480875_" class="st0" d="M187.1,11.9h-7.3l-1.4,2.7h-2.1l6.1-11.3h2.1
		l6.1,11.3h-2.1L187.1,11.9z M186.2,10.2L183.4,5l-2.8,5.2H186.2z"/>
</g>
<path class="st0" d="M98.7,19.4"/>
</svg>
