<?xml version="1.0" encoding="UTF-8"?>
<!-- Generator: Adobe Illustrator 25.2.0, SVG Export Plug-In . SVG Version: 6.00 Build 0)  -->
<!DOCTYPE svg PUBLIC "-//W3C//DTD SVG 1.1//EN" "http://www.w3.org/Graphics/SVG/1.1/DTD/svg11.dtd">
<svg version="1.1" id="_x32_" xmlns:x="http://ns.adobe.com/Extensibility/1.0/" xmlns:i="http://ns.adobe.com/AdobeIllustrator/10.0/" xmlns:graph="http://ns.adobe.com/Graphs/1.0/" xmlns="http://www.w3.org/2000/svg" xmlns:xlink="http://www.w3.org/1999/xlink" x="0px" y="0px" viewBox="0 0 1454.8 959" style="enable-background:new 0 0 1454.8 959;" xml:space="preserve">
<style type="text/css">
	.Harmony_x0020_Collage{fill:url(#);}
	.Thick_x0020_Aqua_x0020_Neon{fill:none;stroke:#7ED1E2;stroke-width:7;stroke-linecap:round;stroke-linejoin:round;}
	.Embossed_x0020_Blind{fill:none;stroke:#E0CEC3;stroke-width:2;}
	.Drop_x0020_Shadow_x0020_Soft{fill:#7DABD1;}
	.Chiseled{opacity:0.7;fill:#34AB49;stroke:#2A7238;stroke-width:5;}
	.st0{fill:url(#SVGID_1_);}
	.st1{fill:url(#SVGID_2_);}
	.st2{clip-path:url(#SVGID_4_);fill:url(#SVGID_5_);}
	.st3{clip-path:url(#SVGID_4_);fill:url(#SVGID_6_);}
	.st4{clip-path:url(#SVGID_4_);fill:url(#SVGID_7_);}
	.st5{fill:url(#SVGID_8_);}
	.st6{fill:url(#SVGID_9_);}
	.st7{fill:url(#SVGID_10_);}
	.st8{fill:none;stroke:url(#SVGID_11_);stroke-width:1.5;}
	.st9{fill:#212032;}
	.st10{fill:#FFFFFF;}
</style>
<linearGradient id="SVGID_1_" gradientUnits="userSpaceOnUse" x1="924.7847" y1="920.4437" x2="1019.0656" y2="23.4201">
 <stop offset="1.349804e-02" style="stop-color:#B2B3AF"/>
 <stop offset="1" style="stop-color:#FFFFFF"/>
</linearGradient>
<path class="st0" d="M971.9,21c-248.7,0-451,202.3-451,451c0,248.7,202.3,451,451,451s451-202.3,451-451     C1422.9,223.3,1220.6,21,971.9,21z"/>
<linearGradient id="SVGID_2_" gradientUnits="userSpaceOnUse" x1="763.5236" y1="62.921" x2="1180.3265" y2="880.9428">
 <stop offset="0" style="stop-color:#B5B5B5"/>
 <stop offset="0.9865" style="stop-color:#CFCFCF"/>
</linearGradient>
<path class="st1" d="M971.9,21c248.7,0,451,202.3,451,451c0,248.7-202.3,451-451,451s-451-202.3-451-451   C521,223.3,723.3,21,971.9,21 M971.9,12.8c-253.1,0-459.1,205.9-459.1,459.1c0,253.1,205.9,459.1,459.1,459.1   S1431,725.1,1431,471.9C1431,218.8,1225.1,12.8,971.9,12.8L971.9,12.8z"/>
<g>
	<defs>
		<circle id="SVGID_3_" cx="968.8" cy="471.9" r="352.1"/>
	</defs>
	<clipPath id="SVGID_4_">
		<use xlink:href="#SVGID_3_" style="overflow:visible;"/>
	</clipPath>
	<linearGradient id="SVGID_5_" gradientUnits="userSpaceOnUse" x1="1310.369" y1="295.2599" x2="570.5702" y2="388.9072">
		<stop offset="0" style="stop-color:#733534"/>
		<stop offset="0.7074" style="stop-color:#AD3B39"/>
	</linearGradient>
	<polygon class="st2" points="1404.8,547 543.9,571 741.4,103.6 1191,103.6  "/>
		<radialGradient id="SVGID_6_" cx="518.4888" cy="486.9576" r="650.0889" gradientTransform="matrix(1.5186 0 0 1.5186 -222.5833 -247.6037)" gradientUnits="userSpaceOnUse">
		<stop offset="0" style="stop-color:#E53C3B"/>
		<stop offset="0.195" style="stop-color:#8D0004"/>
		<stop offset="0.3201" style="stop-color:#7A0005"/>
		<stop offset="0.5256" style="stop-color:#610006"/>
		<stop offset="0.6491" style="stop-color:#570006"/>
	</radialGradient>
	<polygon class="st3" points="1142.2,869.6 804,869.6 521,486.6 1454.1,486.6  "/>
	<linearGradient id="SVGID_7_" gradientUnits="userSpaceOnUse" x1="616.2067" y1="471.932" x2="1327.6437" y2="471.932">
		<stop offset="1.349804e-02" style="stop-color:#B2B3AF"/>
		<stop offset="1" style="stop-color:#FFFFFF"/>
	</linearGradient>
	<path class="st4" d="M971.9,122.3c193.1,0,349.6,156.5,349.6,349.6S1165,821.5,971.9,821.5S622.3,665,622.3,471.9   S778.8,122.3,971.9,122.3 M971.9,116.2c-196.1,0-355.7,159.6-355.7,355.7s159.6,355.7,355.7,355.7s355.7-159.6,355.7-355.7   S1168.1,116.2,971.9,116.2L971.9,116.2z"/>
</g>
<linearGradient id="SVGID_8_" gradientUnits="userSpaceOnUse" x1="616.2067" y1="471.932" x2="1327.6437" y2="471.932">
 <stop offset="1.349804e-02" style="stop-color:#B2B3AF"/>
 <stop offset="1" style="stop-color:#FFFFFF"/>
</linearGradient>
<path class="st5" d="M971.9,122.3c193.1,0,349.6,156.5,349.6,349.6S1165,821.5,971.9,821.5S622.3,665,622.3,471.9  S778.8,122.3,971.9,122.3 M971.9,116.2c-196.1,0-355.7,159.6-355.7,355.7s159.6,355.7,355.7,355.7s355.7-159.6,355.7-355.7  S1168.1,116.2,971.9,116.2L971.9,116.2z"/>
<linearGradient id="SVGID_9_" gradientUnits="userSpaceOnUse" x1="610.6171" y1="471.9319" x2="1327.0557" y2="471.9319">
 <stop offset="0" style="stop-color:#FFFFFF"/>
 <stop offset="0.9865" style="stop-color:#B2B3AF"/>
</linearGradient>
<path class="st6" d="M968.8,119.8c194.5,0,352.1,157.6,352.1,352.1S1163.3,824,968.8,824S616.7,666.4,616.7,471.9  S774.4,119.8,968.8,119.8 M968.8,113.7c-197.5,0-358.2,160.7-358.2,358.2s160.7,358.2,358.2,358.2s358.2-160.7,358.2-358.2  S1166.4,113.7,968.8,113.7L968.8,113.7z"/>
<radialGradient id="SVGID_10_" cx="634.4364" cy="664.5742" r="596.6061" gradientTransform="matrix(1.4358 0 0 1.4658 -205.4243 -236.9169)" gradientUnits="userSpaceOnUse">
 <stop offset="0" style="stop-color:#9D9CA7"/>
 <stop offset="0.5421" style="stop-color:#FFFFFF"/>
</radialGradient>
<path class="st7" d="M948.6,586.3c32.2-59,65.1-66.9,163.6-149.9c20.7-17.4,53.4-72.1,38.8-150.6    C1126.6,153.5,991.8,153,991.8,153l0.1,0.1c-7.1-0.9-14.4-1.4-21.7-1.4c-16.3,0-34.5,2.1-53,6.8c-62.8,11.1-168.9,53.9-156.5,217    l135.3-1.3c0,0-19.7-114.1,63.8-110.1c63.7,3,53.6,80.3,20.1,117.8c-10.5,8.2-22.4,16.9-35.3,27.5    c-44.7,27.5-203.2,136.8-203.2,303.1l422.1,5.1c14.5,0,110.5-131,104-131L948.6,586.3z"/>
<linearGradient id="SVGID_11_" gradientUnits="userSpaceOnUse" x1="952.1845" y1="151.6918" x2="1013.3986" y2="734.1044">
 <stop offset="0" style="stop-color:#FFFFFF"/>
 <stop offset="0.9865" style="stop-color:#B2B3AF"/>
</linearGradient>
<path class="st8" d="M948.6,586.3c32.2-59,65.1-66.9,163.6-149.9c20.7-17.4,53.4-72.1,38.8-150.6    C1126.6,153.5,991.8,153,991.8,153l0.1,0.1c-7.1-0.9-14.4-1.4-21.7-1.4c-16.3,0-34.5,2.1-53,6.8c-62.8,11.1-168.9,53.9-156.5,217    l135.3-1.3c0,0-19.7-114.1,63.8-110.1c63.7,3,53.6,80.3,20.1,117.8c-10.5,8.2-22.4,16.9-35.3,27.5    c-44.7,27.5-203.2,136.8-203.2,303.1l422.1,5.1c14.5,0,110.5-131,104-131L948.6,586.3z"/>
<path id="abc_x5F_Base_1_" class="st9" d="M6.5,522.9c0,182.2,147.7,329.8,329.8,329.8c182.2,0,329.8-147.7,329.8-329.8  c0-182.2-147.7-329.8-329.8-329.8C154.2,193,6.5,340.7,6.5,522.9z"/>
<path id="_x22_b_x22__2_" class="st10" d="M244.5,364.1v164.1c0,52.9,43.1,96,96,96c52.9,0,96-43.1,96-96c0-52-43-96-93.8-96  c-29.6,0-48.3,20.4-48.3,20.4v-88.5H244.5z M340.5,573.7c-25.1,0-45.5-20.4-45.5-45.5c0-25.1,20.4-45.5,45.5-45.5  c25.1,0,45.5,20.4,45.5,45.5C386,553.3,365.6,573.7,340.5,573.7z"/>
<path id="_x22_a_x22__2_" class="st10" d="M136.8,432.2c-52.9,0-96,43.1-96,96c0,57.8,49.5,96,92,96c33,0,50.1-21.8,50.1-21.8V621  h50v-92.8C232.8,475.3,189.8,432.2,136.8,432.2z M136.8,573.7c-25.1,0-45.5-20.4-45.5-45.5c0-25.1,20.4-45.5,45.5-45.5  c25.1,0,45.5,20.4,45.5,45.5C182.3,553.3,161.9,573.7,136.8,573.7z"/>
<path id="_x22_c_x22__2_" class="st10" d="M541.9,432.2c-52.9,0-96,43.1-96,96c0,52.9,43.1,96,96,96c44.3,0,83.5-31.1,93.5-74.2  h-53.6c-8,14.6-23.3,23.7-39.9,23.7c-25.1,0-45.5-20.4-45.5-45.5c0-25.1,20.4-45.5,45.5-45.5c17.2,0,32.7,9.5,40.5,24.8h53.2  C626.1,463.8,586.9,432.2,541.9,432.2z"/>
</svg>