<?xml version="1.0" encoding="UTF-8" standalone="no"?>
<!-- Created with Inkscape (http://www.inkscape.org/) -->

<svg
   width="500.04599mm"
   height="297.54001mm"
   viewBox="0 0 500.04599 297.54001"
   version="1.1"
   id="svg5"
   xml:space="preserve"
   inkscape:export-filename="WBDT 2024.png"
   inkscape:export-xdpi="96"
   inkscape:export-ydpi="96"
   inkscape:version="1.2.1 (9c6d41e410, 2022-07-14)"
   sodipodi:docname="WBDT 2024.svg"
   xmlns:inkscape="http://www.inkscape.org/namespaces/inkscape"
   xmlns:sodipodi="http://sodipodi.sourceforge.net/DTD/sodipodi-0.dtd"
   xmlns="http://www.w3.org/2000/svg"
   xmlns:svg="http://www.w3.org/2000/svg"><sodipodi:namedview
     id="namedview7"
     pagecolor="#ffffff"
     bordercolor="#000000"
     borderopacity="0.25"
     inkscape:showpageshadow="2"
     inkscape:pageopacity="0.0"
     inkscape:pagecheckerboard="0"
     inkscape:deskcolor="#d1d1d1"
     inkscape:document-units="mm"
     showgrid="false"
     inkscape:zoom="0.19799207"
     inkscape:cx="323.24526"
     inkscape:cy="368.70163"
     inkscape:window-width="1920"
     inkscape:window-height="1017"
     inkscape:window-x="-8"
     inkscape:window-y="-8"
     inkscape:window-maximized="1"
     inkscape:current-layer="layer1" /><defs
     id="defs2" /><g
     inkscape:label="Layer 1"
     inkscape:groupmode="layer"
     id="layer1"><path
       id="rect5"
       style="fill:#ff4500;fill-opacity:1;fill-rule:evenodd;stroke:none;stroke-width:1.19085"
       d="M 104.33121,78.191636 C 46.493947,78.451284 0,127.1896 0,187.71949 0,248.41123 46.737117,297.27147 104.78965,297.27147 h 70.4519 c 24.73938,0 47.40384,-8.89454 65.29144,-23.77552 14.53277,14.87019 34.64103,24.04396 56.92194,24.04396 22.97917,0 43.63057,-9.77587 58.25498,-25.47659 15.23239,15.70125 36.74216,25.47659 60.67691,25.47659 45.88238,0 82.85607,-35.87757 83.65918,-80.71856 V 78.191636 h -68.14764 c 7.1e-4,156.714274 0.13868,-54.770907 0.13868,128.142874 0,11.52726 -9.28055,20.80775 -20.80775,20.80775 -11.52723,0 -20.80772,-9.28049 -20.80772,-20.80775 0,-182.91375 0.13806,28.57122 0.13868,-128.142874 h -69.0555 c 7.4e-4,156.714064 0.13868,-54.770845 0.13868,128.142874 0,11.52726 -9.28055,20.80775 -20.8077,20.80775 -11.52724,0 -20.80776,-9.28049 -20.80776,-20.80775 0,-182.913719 0.13807,28.57119 0.13869,-128.142874 H 211.25018 V 187.71949 c 0,22.55308 -16.3832,40.71063 -36.73248,40.71063 h -69.05246 c -20.349272,0 -36.732454,-18.15755 -36.732454,-40.71063 0,-22.55312 16.383182,-40.71063 36.732454,-40.71063 h 67.12521 V 78.191636 Z" /><g
       aria-label="DAYTON"
       transform="matrix(3.0570617,0,0,3.1629438,-64.086048,-382.53804)"
       id="text362"
       style="font-weight:bold;font-size:24.105px;font-family:'F37 Bolton';-inkscape-font-specification:'F37 Bolton, Bold';fill:#000000;stroke:#05121f;stroke-width:0;stop-color:#000000"><path
         d="m 89.656695,138.66084 v -17.28328 h 6.146775 q 2.627444,0 4.60405,1.03651 1.97661,1.03652 3.03723,2.96492 1.08473,1.9284 1.08473,4.55584 0,2.60334 -1.03652,4.57995 -1.03651,1.97661 -3.01312,3.06134 -1.976611,1.08472 -4.700475,1.08472 z m 5.54415,-3.42291 q 2.796179,0 4.218374,-1.25346 1.446301,-1.25346 1.446301,-3.90501 0,-5.27899 -5.64057,-5.27899 h -1.88019 v 10.43746 z"
         id="path414"
         style="fill:#000000" /><path
         d="m 121.21015,138.66084 h -3.61575 l -1.27756,-4.00143 h -6.2673 l -1.4222,4.00143 h -3.51933 l 6.17088,-17.28328 h 4.38711 z m -10.00357,-7.20739 h 4.09785 l -1.51862,-4.72458 q -0.24105,-0.72315 -0.38568,-1.4463 h -0.0964 q -0.19284,0.86778 -0.40978,1.4704 z"
         id="path416"
         style="fill:#000000" /><path
         d="m 124.05428,138.66084 v -6.89403 l -6.00215,-10.38925 h 3.92912 l 3.01312,5.18257 q 0.43389,0.74726 0.65084,1.27757 0.24105,0.5062 0.28926,0.62673 h 0.0964 q 0.5062,-1.10883 0.9642,-1.95251 l 2.98902,-5.13436 h 3.83269 l -6.07446,10.48567 v 6.79761 z"
         id="path418"
         style="fill:#000000" /><path
         d="m 143.67985,138.66084 h -3.68807 v -13.90858 h -4.86921 v -3.3747 h 13.42649 v 3.3747 h -4.86921 z"
         id="path420"
         style="fill:#000000" /><path
         d="m 157.66149,139.09473 q -2.67566,0 -4.62816,-1.18114 -1.9525,-1.20525 -2.98902,-3.23007 -1.03651,-2.04893 -1.03651,-4.55585 0,-2.60334 1.06062,-4.70047 1.06062,-2.09714 3.01312,-3.27828 1.97661,-1.20525 4.57995,-1.20525 2.60334,0 4.55584,1.20525 1.95251,1.18114 3.01313,3.27828 1.06062,2.09713 1.06062,4.70047 0,2.50692 -1.03652,4.55585 -1.01241,2.04892 -2.96491,3.23007 -1.95251,1.18114 -4.62816,1.18114 z m 0,-3.44701 q 1.56682,0 2.69976,-0.74726 1.13293,-0.77136 1.71145,-2.02482 0.57852,-1.25346 0.57852,-2.74797 0,-1.59093 -0.57852,-2.8926 -0.57852,-1.30167 -1.71145,-2.07303 -1.10883,-0.77136 -2.69976,-0.77136 -1.59093,0 -2.72387,0.77136 -1.10883,0.77136 -1.68735,2.07303 -0.55441,1.30167 -0.55441,2.8926 0,1.49451 0.55441,2.74797 0.57852,1.25346 1.68735,2.02482 1.13294,0.74726 2.72387,0.74726 z"
         id="path422"
         style="fill:#000000" /><path
         d="m 169.01495,138.66084 v -17.28328 h 3.42291 l 6.12267,9.23221 q 0.31337,0.4821 0.9401,1.54272 h 0.0964 v -10.77493 h 3.49522 v 17.28328 h -3.44701 l -6.21907,-9.37684 q -0.57852,-0.89189 -0.81957,-1.4222 h -0.0964 v 10.79904 z"
         id="path424"
         style="fill:#000000" /></g></g></svg>
