<?xml version="1.0" encoding="utf-8"?>
<!-- Generator: Adobe Illustrator 24.3.0, SVG Export Plug-In . SVG Version: 6.00 Build 0)  -->
<svg version="1.1" id="Layer_1" xmlns="http://www.w3.org/2000/svg" xmlns:xlink="http://www.w3.org/1999/xlink" x="0px" y="0px"
	 viewBox="0 0 165 60" style="enable-background:new 0 0 165 60;" xml:space="preserve">
<style type="text/css">
	.st0{fill:none;}
	.st1{fill:#203c64;}
</style>
<rect class="st0" width="165" height="60"/>
<g>
	<path class="st1" d="M40.589,30.299c0,0.147,0.003,0.295,0.011,0.442l0.34-0.616l4.87-8.845l0.345-0.627
		C42.827,22.581,40.589,26.179,40.589,30.299z"/>
	<path class="st1" d="M53.999,29.738H49.95l1.553-8.776h0.261v-0.003H57.8c-1.745-1.14-3.83-1.801-6.07-1.801h-0.082v0.003
		l-0.195,0.347l-4.641,8.432l-1.806,3.277h8.934l-0.074,0.416l-0.813,4.599h-4.136l0.2-1.058h-7.007c0,0-0.003,0-0.008,0
		c-0.039-0.003-0.2-0.011-0.421-0.063c1.261,2.635,3.53,4.694,6.305,5.683v-0.003l0.061-0.347l0.311-1.745l0.229-1.295h5.152
		l0.261-0.008c1.566,0,2.911-0.953,3.493-2.311h0.003c0.2-0.466,0.311-0.979,0.311-1.519C57.805,31.452,56.099,29.738,53.999,29.738
		z"/>
	<path class="st1" d="M61.957,33.566c0,0.066-0.003,0.132-0.003,0.197c-0.011,0.424-0.055,0.84-0.129,1.245
		c0.671-1.429,1.045-3.027,1.045-4.709c0-2.032-0.545-3.941-1.498-5.581c-0.084,0.034-0.168,0.066-0.253,0.095
		c-0.026,0.008-0.055,0.018-0.082,0.026c-0.774,0.247-1.506,0.247-1.816,0.232c-0.021,0-0.037-0.003-0.055-0.003
		c-0.063-0.003-0.1-0.008-0.1-0.008h-4.18l-0.297,1.666c2.109,0.05,3.664,0.413,4.788,1.069
		C61.299,28.911,61.957,30.878,61.957,33.566z"/>
	<path class="st1" d="M164.992,30.27l-0.005-10.801H59.153c0.203,0.147,0.397,0.3,0.59,0.458c3.04,2.49,4.973,6.186,5.017,10.343
		c0.003,0.05,0.003,0.097,0.003,0.147c0,3.972-1.637,7.531-4.401,9.832c-0.19,0.161-0.387,0.311-0.59,0.455H165L164.992,30.27z
		 M89.676,30.27l-0.008,0.039l-1.664,7.821v0.003h-6.681V38.13l-4.207-7.821l-0.021-0.039l-0.421-0.784h-0.042l-0.168,0.784
		l-0.008,0.039l-1.664,7.821v0.003h-5.839V38.13l1.664-7.821l0.008-0.039l1.608-7.571h6.963l3.862,7.571l0.021,0.039l0.484,0.948
		h0.066l0.2-0.948l0.008-0.039l1.611-7.571h5.839L89.676,30.27z M111.615,26.458h-10.314l-0.042,0.203l-0.4,1.874h9.579
		l-0.366,1.735h-0.003l-0.011,0.039l-0.421,1.985v0.003h-9.579l-0.442,2.074h10.316l-0.8,3.759v0.003H92.719V38.13l1.619-7.618
		l0.045-0.203l0.008-0.039h0.003l0.545-2.569l1.019-4.799l0.045-0.203h16.413L111.615,26.458z M136.054,30.309L132.1,38.13v0.003
		h-5.991V38.13l-0.247-7.618l-0.008-0.242l-0.024-0.698h-0.042l-0.321,0.698l-0.111,0.242l-3.506,7.618v0.003h-5.991V38.13
		l-0.6-7.618l-0.016-0.203l-0.005-0.039l-0.579-7.368h-0.003l-0.013-0.203h5.905l-0.013,7.571l-0.003,1.853h0.042l0.732-1.611
		l0.092-0.203l0.018-0.039l3.341-7.368l0.092-0.203h4.867l0.197,7.571v0.039l0.047,1.814h0.042l0.684-1.611l0.084-0.203l0.016-0.039
		l3.125-7.368l0.087-0.203h5.902l-3.825,7.571L136.054,30.309z M160.241,27.216h-7.094c0.137-0.627-0.15-1.016-0.666-1.232
		c-0.121-0.058-0.258-0.111-0.4-0.15c-0.426-0.126-0.932-0.176-1.435-0.176c-0.966,0-1.622,0.129-2.045,0.347
		c-0.1,0.05-0.187,0.105-0.263,0.166c-0.074,0.063-0.137,0.126-0.19,0.195l-0.003,0.003c-0.089,0.118-0.147,0.253-0.176,0.392
		c-0.092,0.434,0.042,0.716,0.629,0.8l7.058,1.082c0.163,0.024,0.319,0.05,0.474,0.082c0.061,0.013,0.126,0.026,0.187,0.039
		c0.029,0.005,0.055,0.013,0.082,0.018c0.274,0.063,0.534,0.134,0.779,0.218c0.013,0.005,0.026,0.008,0.04,0.013
		c0.058,0.021,0.116,0.042,0.174,0.063c0.192,0.074,0.371,0.153,0.54,0.24c0.058,0.026,0.113,0.055,0.166,0.087
		c0.05,0.026,0.097,0.055,0.145,0.082c0.058,0.034,0.113,0.071,0.166,0.108c0.061,0.042,0.118,0.082,0.171,0.121
		c0.055,0.045,0.111,0.087,0.163,0.132c0.005,0.005,0.011,0.008,0.016,0.016c0.053,0.045,0.103,0.089,0.147,0.137
		c0.092,0.084,0.174,0.174,0.25,0.271c0.011,0.013,0.021,0.026,0.029,0.039c0.045,0.055,0.087,0.113,0.121,0.171
		c0.029,0.042,0.055,0.084,0.079,0.126c0.024,0.034,0.042,0.068,0.061,0.103c0.04,0.076,0.076,0.15,0.108,0.226
		c0.008,0.024,0.018,0.047,0.026,0.071c0.042,0.103,0.076,0.208,0.103,0.316c0.011,0.034,0.018,0.066,0.024,0.1
		c0.026,0.113,0.045,0.229,0.058,0.347c0.005,0.042,0.008,0.082,0.011,0.124c0.032,0.382-0.003,0.798-0.097,1.245
		c-0.05,0.234-0.111,0.463-0.182,0.682c-0.034,0.111-0.074,0.218-0.113,0.324c-0.082,0.211-0.174,0.416-0.276,0.611
		c-0.053,0.1-0.108,0.195-0.163,0.292c-0.058,0.095-0.116,0.184-0.179,0.276c-0.092,0.137-0.192,0.268-0.3,0.395
		c-0.071,0.084-0.142,0.168-0.218,0.25c-0.039,0.039-0.079,0.082-0.118,0.118c-1.74,1.748-4.841,2.585-9.553,2.585
		c-3.362,0-6.873-0.332-8.25-2.19c-0.055-0.076-0.105-0.15-0.153-0.232c-0.432-0.703-0.577-1.608-0.334-2.764h7.352
		c-0.087,0.516,0.032,0.863,0.416,1.1c0.408,0.216,1.053,0.326,2.006,0.326c1.19,0,1.882-0.205,2.272-0.534
		c0.018-0.018,0.037-0.034,0.055-0.053c0.018-0.016,0.037-0.034,0.05-0.05c0.008-0.011,0.021-0.021,0.026-0.032
		c0.026-0.026,0.047-0.053,0.066-0.082c0.029-0.037,0.053-0.076,0.076-0.116c0.034-0.061,0.061-0.124,0.084-0.187
		c0.026-0.066,0.045-0.132,0.061-0.203c0.045-0.216,0.026-0.429-0.087-0.611c-0.026-0.039-0.058-0.079-0.092-0.116
		c-0.145-0.145-0.371-0.255-0.705-0.311l-6.742-1.037c-0.253-0.042-0.49-0.09-0.713-0.15c-0.129-0.032-0.25-0.068-0.369-0.111
		c-0.063-0.021-0.126-0.045-0.187-0.068c-0.063-0.024-0.121-0.047-0.182-0.071c-0.097-0.042-0.19-0.084-0.276-0.132
		c-0.037-0.016-0.071-0.037-0.108-0.058c-0.039-0.021-0.076-0.039-0.111-0.061c-0.047-0.032-0.095-0.061-0.142-0.092
		c-0.032-0.021-0.066-0.042-0.097-0.066c-0.058-0.045-0.116-0.087-0.174-0.134c-0.024-0.021-0.05-0.042-0.076-0.066
		c-0.024-0.018-0.047-0.039-0.068-0.063c-0.071-0.066-0.134-0.132-0.197-0.203c-0.011-0.013-0.021-0.026-0.034-0.039
		c-0.079-0.092-0.147-0.187-0.211-0.287c-0.021-0.034-0.042-0.068-0.063-0.103c-0.061-0.105-0.113-0.213-0.161-0.326
		c-0.018-0.037-0.032-0.076-0.045-0.113c-0.018-0.045-0.034-0.092-0.047-0.137c-0.016-0.045-0.029-0.092-0.039-0.14
		c-0.013-0.045-0.024-0.092-0.034-0.142c-0.047-0.237-0.074-0.487-0.074-0.748c0-0.166,0.008-0.332,0.029-0.505
		c0-0.003,0-0.005,0-0.005c0.018-0.168,0.047-0.347,0.087-0.526c0.171-0.813,0.479-1.503,0.906-2.093
		c0.097-0.134,0.2-0.263,0.313-0.39c0.034-0.037,0.068-0.076,0.103-0.113c0.003,0,0.003-0.005,0.008-0.008
		c0.039-0.039,0.076-0.082,0.118-0.118c1.803-1.801,4.959-2.359,8.563-2.359c3.262,0,5.531,0.405,6.96,1.177
		c0.087,0.047,0.168,0.097,0.25,0.145C159.993,24.334,160.477,25.595,160.241,27.216z"/>
	<path class="st1" d="M38.699,30.417c0-4.557,2.269-8.574,5.789-11.082H1.801l-1.472-0.003l0.003,0.003H0v21.507h43.875
		C40.645,38.591,38.699,34.748,38.699,30.417z M11.348,32.989h-4.32l0.011,5.044H2.64V22.43h9.395l0.182,2.677l0.021,0.334
		l0.024,0.332l0.061,0.924H7.065v2.035h4.283V32.989z M12.056,30.251c0-1.472,0.411-2.843,1.121-4.007
		c0.047-0.082,0.1-0.163,0.155-0.242c0.053-0.082,0.108-0.161,0.163-0.24c0.956-1.327,2.327-2.327,3.92-2.796
		c0.116-0.034,0.234-0.066,0.353-0.095h0.003c0.124-0.032,0.247-0.058,0.374-0.082c0.434-0.082,0.884-0.124,1.343-0.124
		c3.746,0,6.847,2.83,7.358,6.507c0.018,0.129,0.034,0.255,0.045,0.387c0.013,0.124,0.021,0.247,0.026,0.374
		c0.003,0.105,0.005,0.211,0.005,0.319c0,0.777-0.113,1.524-0.326,2.23c-0.026,0.092-0.055,0.184-0.09,0.276
		c-0.029,0.092-0.063,0.182-0.097,0.271c-1.087,2.817-3.775,4.809-6.921,4.809C15.381,37.841,12.056,34.442,12.056,30.251z
		 M33.627,38.012l-0.985-1.782l-0.495-0.9l-0.692-1.253l-0.382,0.703l-0.134,0.25v0.003l-0.14,0.25l-1.487,2.74l-4.838-0.011
		l2.648-4.615l0.142-0.25l0.142-0.247l1.05-1.835l0.142-0.25l0.145-0.25l0.34-0.595l-1.885-3.256l-0.521-0.898v-0.003l-0.521-0.9
		l-1.424-2.459h4.978l1.553,2.896l0.253,0.466l0.039-0.071l1.801-3.291l4.812,0.003l-3.954,6.91l-0.155,0.274l-0.155,0.271
		L33.9,29.917l3.222,5.552l1.048,1.806l0.208,0.361l0.221,0.376H33.627z"/>
	<path class="st1" d="M19.506,25.789c-0.695,0-1.258,0.634-1.258,1.345v6.215c0,0.711,0.563,1.287,1.258,1.287
		c0.7,0,1.316-0.558,1.316-1.269v-6.234C20.822,26.424,20.206,25.789,19.506,25.789z"/>
</g>
</svg>
