<?xml version="1.0" encoding="UTF-8" standalone="no"?>
<!-- Created with Inkscape (http://www.inkscape.org/) -->

<svg
   width="1102.611mm"
   height="612.16699mm"
   viewBox="0 0 1102.611 612.16699"
   version="1.1"
   id="svg5"
   xml:space="preserve"
   inkscape:export-filename="WBMM 2024.png"
   inkscape:export-xdpi="96"
   inkscape:export-ydpi="96"
   inkscape:version="1.2.1 (9c6d41e410, 2022-07-14)"
   sodipodi:docname="WBMM 2024.svg"
   xmlns:inkscape="http://www.inkscape.org/namespaces/inkscape"
   xmlns:sodipodi="http://sodipodi.sourceforge.net/DTD/sodipodi-0.dtd"
   xmlns="http://www.w3.org/2000/svg"
   xmlns:svg="http://www.w3.org/2000/svg"><sodipodi:namedview
     id="namedview7"
     pagecolor="#ffffff"
     bordercolor="#000000"
     borderopacity="0.25"
     inkscape:showpageshadow="2"
     inkscape:pageopacity="0.0"
     inkscape:pagecheckerboard="0"
     inkscape:deskcolor="#d1d1d1"
     inkscape:document-units="mm"
     showgrid="false"
     inkscape:zoom="0.14000154"
     inkscape:cx="742.84898"
     inkscape:cy="1349.9852"
     inkscape:window-width="1920"
     inkscape:window-height="1017"
     inkscape:window-x="-8"
     inkscape:window-y="-8"
     inkscape:window-maximized="1"
     inkscape:current-layer="layer1" /><defs
     id="defs2" /><g
     inkscape:label="Layer 1"
     inkscape:groupmode="layer"
     id="layer1"><path
       id="rect5"
       style="fill:#ff4500;fill-opacity:1;fill-rule:evenodd;stroke:none;stroke-width:2.62585"
       d="M 230.0524,128.50015 C 102.52009,129.07259 0,236.54169 0,370.01128 0,503.83776 103.05636,611.5755 231.06331,611.5755 h 155.34788 c 54.55073,0 104.52635,-19.61258 143.96886,-52.4255 32.04503,32.78916 76.38417,53.01743 125.514,53.01743 50.66954,0 96.2063,-21.55601 128.45346,-56.17636 33.58764,34.62156 81.01715,56.17636 133.79378,56.17636 101.17161,0 182.69931,-79.11078 184.47011,-177.98601 V 128.50015 H 952.34454 c 0.002,345.55809 0.30549,-120.7708844 0.30549,282.55761 0,25.41779 -20.46371,45.8815 -45.88143,45.8815 -25.41785,0 -45.88151,-20.46371 -45.88151,-45.88151 0,-403.3284219 0.30465,63.00007 0.3059,-282.5576 H 708.9242 c 0.002,345.55759 0.3059,-120.7708219 0.3059,282.5576 0,25.4178 -20.46378,45.88151 -45.88147,45.88151 -25.41764,0 -45.88151,-20.46371 -45.88151,-45.88151 0,-403.3284219 0.30466,62.99999 0.30549,-282.5576 H 465.81143 v 241.51113 c 0,49.72992 -36.12534,89.76774 -80.99584,89.76774 H 232.55306 c -44.8705,0 -80.99581,-40.03782 -80.99581,-89.76774 0,-49.73007 36.12531,-89.76777 80.99581,-89.76777 H 380.56555 V 128.50015 Z" /><g
       aria-label="MONTGOMERY"
       id="text362"
       style="font-weight:bold;font-size:33.1884px;font-family:'F37 Bolton';-inkscape-font-specification:'F37 Bolton, Bold';stroke:#000000;stroke-width:0;stop-color:#000000"
       transform="matrix(4.167667,0,0,4.167667,-19.352265,-121.8324)"><path
         d="M 41.523654,53.626232 V 29.830149 h 5.243767 l 5.642028,8.92768 1.02884,1.725797 h 0.09957 q 0.165942,-0.331884 0.730145,-1.227971 l 0.331884,-0.564203 5.476086,-8.861303 h 5.243768 V 53.626232 H 60.507419 V 37.563046 h -0.132754 q -0.331884,0.696957 -1.095217,2.024493 l -4.248116,6.803622 h -3.219274 l -4.314492,-6.803622 q -0.663768,-1.128406 -1.028841,-2.024493 h -0.132753 v 16.063186 z"
         id="path537" /><path
         d="m 79.639482,54.223623 q -3.683913,0 -6.372173,-1.626231 -2.688261,-1.65942 -4.115362,-4.447246 -1.427101,-2.821014 -1.427101,-6.272608 0,-3.584347 1.46029,-6.471738 1.460289,-2.88739 4.14855,-4.513622 2.721448,-1.65942 6.305796,-1.65942 3.584347,0 6.272607,1.65942 2.688261,1.626232 4.14855,4.513622 1.46029,2.887391 1.46029,6.471738 0,3.451594 -1.427101,6.272608 -1.393913,2.821014 -4.082173,4.447246 -2.688261,1.626231 -6.372173,1.626231 z m 0,-4.745941 q 2.157246,0 3.717101,-1.02884 1.559854,-1.062029 2.356376,-2.787826 0.796522,-1.725797 0.796522,-3.783478 0,-2.190434 -0.796522,-3.982608 -0.796522,-1.792173 -2.356376,-2.854202 -1.526667,-1.062029 -3.717101,-1.062029 -2.190435,0 -3.75029,1.062029 -1.526666,1.062029 -2.323188,2.854202 -0.763333,1.792174 -0.763333,3.982608 0,2.057681 0.763333,3.783478 0.796522,1.725797 2.323188,2.787826 1.559855,1.02884 3.75029,1.02884 z"
         id="path539" /><path
         d="M 93.427254,53.626232 V 29.830149 h 4.712757 l 8.429849,12.711157 q 0.43145,0.663768 1.29435,2.124058 h 0.13275 V 29.830149 h 4.81232 v 23.796083 h -4.74594 L 99.500731,40.715944 q -0.79652,-1.22797 -1.12841,-1.958115 h -0.13275 v 14.868403 z"
         id="path541" /><path
         d="m 126.42195,53.626232 h -5.07782 V 34.476525 h -6.70406 v -4.646376 h 18.48594 v 4.646376 h -6.70406 z"
         id="path543" /><path
         d="m 144.74208,54.496194 q -3.58435,0 -6.17305,-1.559854 -2.58869,-1.593044 -3.94942,-4.380869 -1.36072,-2.821014 -1.36072,-6.471738 0,-3.551159 1.39391,-6.405362 1.4271,-2.88739 4.04899,-4.513622 2.62188,-1.65942 6.13985,-1.65942 4.41406,0 7.16869,2.223623 2.78783,2.190434 3.38522,6.139854 h -4.87869 q -0.69696,-1.858551 -2.05768,-2.721449 -1.32754,-0.896087 -3.4516,-0.896087 -3.35203,0 -5.01145,2.190435 -1.65942,2.157246 -1.65942,5.642028 0,3.451593 1.69261,5.608839 1.69261,2.157246 5.04464,2.157246 2.48913,0 3.84985,-1.095217 1.36073,-1.128406 1.62624,-3.186086 h -5.64203 v -4.181739 h 10.75304 q 0.0664,0.663768 0.0664,1.261159 0,5.509275 -2.78783,8.695361 -2.75464,3.152898 -8.19753,3.152898 z"
         id="path545" /><path
         d="m 168.33212,54.496194 q -3.68391,0 -6.37217,-1.626231 -2.68826,-1.65942 -4.11536,-4.447246 -1.4271,-2.821014 -1.4271,-6.272608 0,-3.584347 1.46029,-6.471738 1.46029,-2.88739 4.14855,-4.513622 2.72144,-1.65942 6.30579,-1.65942 3.58435,0 6.27261,1.65942 2.68826,1.626232 4.14855,4.513622 1.46029,2.887391 1.46029,6.471738 0,3.451594 -1.4271,6.272608 -1.39391,2.821014 -4.08218,4.447246 -2.68826,1.626231 -6.37217,1.626231 z m 0,-4.745941 q 2.15725,0 3.7171,-1.02884 1.55986,-1.062029 2.35638,-2.787826 0.79652,-1.725797 0.79652,-3.783478 0,-2.190434 -0.79652,-3.982608 -0.79652,-1.792173 -2.35638,-2.854202 -1.52666,-1.062029 -3.7171,-1.062029 -2.19043,0 -3.75029,1.062029 -1.52666,1.062029 -2.32319,2.854202 -0.76333,1.792174 -0.76333,3.982608 0,2.057681 0.76333,3.783478 0.79653,1.725797 2.32319,2.787826 1.55986,1.02884 3.75029,1.02884 z"
         id="path547" /><path
         d="M 182.31536,53.626232 V 29.830149 h 5.24377 l 5.64203,8.92768 1.02884,1.725797 h 0.0996 q 0.16595,-0.331884 0.73015,-1.227971 l 0.33188,-0.564203 5.47609,-8.861303 h 5.24377 v 23.796083 h -4.81232 V 37.563046 h -0.13276 q -0.33188,0.696957 -1.09521,2.024493 l -4.24812,6.803622 h -3.21927 l -4.31449,-6.803622 q -0.66377,-1.128406 -1.02884,-2.024493 h -0.13276 v 16.063186 z"
         id="path549" /><path
         d="M 226.98201,53.626232 H 209.8568 V 29.830149 h 16.8597 v 4.513623 h -11.78188 v 4.911883 h 10.78623 v 4.513622 h -10.78623 v 5.343333 h 12.04739 z"
         id="path551" /><path
         d="M 229.52132,53.626232 V 29.830149 h 9.32594 q 4.48044,0 6.53812,1.991304 2.05768,1.958116 2.05768,4.97826 0,2.323188 -1.22797,4.048985 -1.22797,1.725797 -3.94942,2.522318 v 0.132754 q 0.39826,0.298696 0.79652,0.796522 0.39826,0.497826 1.16159,1.825362 l 4.41406,7.500578 h -5.57565 l -5.60884,-9.491882 h -2.8542 v 9.491882 z m 8.76174,-13.540867 q 1.92493,0 3.08652,-0.696957 1.19478,-0.730144 1.19478,-2.389564 0,-1.626232 -1.16159,-2.223623 -1.16159,-0.63058 -3.11971,-0.63058 h -3.68391 v 5.940724 z"
         id="path553" /><path
         d="M 255.43657,53.626232 V 44.13435 l -8.26391,-14.304201 h 5.40971 l 4.14855,7.135506 q 0.59739,1.028841 0.89609,1.758985 0.33188,0.696957 0.39826,0.862899 h 0.13275 q 0.69696,-1.526667 1.32754,-2.688261 l 4.11536,-7.069129 h 5.27695 l -8.36347,14.436954 v 9.359129 z"
         id="path555" /></g></g></svg>
