<?xml version="1.0" encoding="UTF-8"?>
<!-- Created with Inkscape by VulcanSphere (http://www.inkscape.org/ and http://vulcansphere.com) -->
<svg width="98.682mm" height="50.466mm" version="1.1" viewBox="0 0 98.682 50.466" xmlns="http://www.w3.org/2000/svg" xmlns:cc="http://creativecommons.org/ns#" xmlns:dc="http://purl.org/dc/elements/1.1/" xmlns:rdf="http://www.w3.org/1999/02/22-rdf-syntax-ns#" xmlns:xlink="http://www.w3.org/1999/xlink">
 <title>WBRC</title>
 <desc>Television station in Birmingham, Alabama</desc>
 <defs>
  <linearGradient id="linear-gradient" x1="170.88" x2="170.88" y1="87.12" y2="32.26" gradientUnits="userSpaceOnUse">
   <stop stop-color="#c72f27" offset=".5"/>
   <stop stop-color="#c22d26" offset=".62"/>
   <stop stop-color="#b62a24" offset=".74"/>
   <stop stop-color="#a22422" offset=".86"/>
   <stop stop-color="#861c1e" offset=".98"/>
   <stop stop-color="#811b1e" offset="1"/>
  </linearGradient>
  <linearGradient id="linear-gradient-2" x1="170.88" x2="170.88" y1="88.36" y2="31.02" gradientTransform="matrix(.26458 0 0 .26458 10.319 50.541)" xlink:href="#linear-gradient"/>
  <linearGradient id="linear-gradient-3" x1="240.2" x2="240.2" y1="86.73" y2="32.42" gradientTransform="matrix(.26458 0 0 .26458 10.319 50.541)" xlink:href="#linear-gradient"/>
  <linearGradient id="linear-gradient-4" x1="240.2" x2="240.2" y1="87.97" y2="31.18" gradientTransform="matrix(.26458 0 0 .26458 10.319 50.541)" xlink:href="#linear-gradient"/>
  <linearGradient id="linear-gradient-5" x1="293.28" x2="293.28" y1="86.73" y2="32.42" gradientTransform="matrix(.26458 0 0 .26458 10.319 50.541)" xlink:href="#linear-gradient"/>
  <linearGradient id="linear-gradient-6" x1="293.83" x2="293.83" y1="87.97" y2="31.18" gradientTransform="matrix(.26458 0 0 .26458 10.319 50.541)" xlink:href="#linear-gradient"/>
  <linearGradient id="linear-gradient-7" x1="345.18" x2="345.18" y1="87.82" y2="31.33" gradientTransform="matrix(.26458 0 0 .26458 10.319 50.541)" xlink:href="#linear-gradient"/>
  <linearGradient id="linear-gradient-8" x1="345.43" x2="345.43" y1="89.05" y2="30.09" gradientTransform="matrix(.26458 0 0 .26458 10.319 50.541)" xlink:href="#linear-gradient"/>
  <linearGradient id="linearGradient49" x1="170.88" x2="170.88" y1="87.12" y2="32.26" gradientTransform="matrix(.26458 0 0 .26458 10.319 50.541)" gradientUnits="userSpaceOnUse" xlink:href="#linear-gradient"/>
 </defs>
 <g transform="translate(-10.319 -50.535)">
  <g stroke-width=".26458">
   <path class="cls-9" d="m59.01 81.423c0.05556-0.05556 0.13494-0.08467 0.23283-0.08467h3.3602c0.0979 0 0.17727 0.0291 0.23283 0.08467 0.05556 0.05821 0.08467 0.13494 0.08467 0.23548v14.288c0 0.10054-0.0291 0.17727-0.08467 0.23548-0.05556 0.05556-0.13494 0.08467-0.23283 0.08467h-3.212c-0.16933 0-0.29633-0.07144-0.38365-0.21431l-4.3392-7.2496c-0.0291-0.04233-0.05556-0.06085-0.08467-0.05292-0.0291 0.0079-0.04233 0.03969-0.04233 0.09525l0.04233 7.1014c0 0.10054-0.0291 0.17727-0.08467 0.23548-0.05556 0.05821-0.13494 0.08467-0.23283 0.08467h-3.3602c-0.10054 0-0.17727-0.0291-0.23283-0.08467-0.05556-0.05556-0.08467-0.13494-0.08467-0.23548v-14.288c0-0.10054 0.0291-0.17727 0.08467-0.23548 0.05556-0.05556 0.13494-0.08467 0.23283-0.08467h3.212c0.16933 0 0.29898 0.07144 0.38365 0.21431l4.318 7.2496c0.0291 0.04233 0.05556 0.06086 0.08467 0.05292 0.0291-0.0079 0.04233-0.03969 0.04233-0.09525l-0.02117-7.1014c0-0.10054 0.0291-0.17727 0.08467-0.23548z"/>
   <path class="cls-9" d="m75.816 84.685c-0.05556 0.05556-0.13494 0.08467-0.23283 0.08467h-6.3606c-0.07144 0-0.10583 0.0344-0.10583 0.10583v2.0055c0 0.07144 0.0344 0.10583 0.10583 0.10583h3.937c0.10054 0 0.17727 0.0291 0.23283 0.08467 0.05556 0.05556 0.08467 0.13494 0.08467 0.23548v2.7728c0 0.10054-0.0291 0.17727-0.08467 0.23548-0.05556 0.05821-0.13494 0.08467-0.23283 0.08467h-3.937c-0.07144 0-0.10583 0.0344-0.10583 0.10583v2.2172c0 0.07144 0.0344 0.10583 0.10583 0.10583h6.3606c0.0979 0 0.17727 0.0291 0.23283 0.08467 0.05556 0.05556 0.08467 0.13494 0.08467 0.23548v2.794c0 0.10054-0.0291 0.17727-0.08467 0.23548-0.05556 0.05821-0.13494 0.08467-0.23283 0.08467h-10.147c-0.10054 0-0.17727-0.0291-0.23283-0.08467-0.05556-0.05556-0.08467-0.13494-0.08467-0.23548v-14.288c0-0.10054 0.0291-0.17727 0.08467-0.23548 0.05556-0.05556 0.13494-0.08467 0.23283-0.08467h10.147c0.0979 0 0.17727 0.0291 0.23283 0.08467 0.05556 0.05821 0.08467 0.13494 0.08467 0.23548v2.794c0 0.10054-0.0291 0.17727-0.08467 0.23548z"/>
   <path class="cls-9" d="m81.772 96.189c-0.07144-0.05027-0.11377-0.11642-0.127-0.20373l-4.2122-14.288c-0.01323-0.0291-0.02117-0.0635-0.02117-0.10583 0-0.17198 0.10054-0.25665 0.29898-0.25665h3.6169c0.18521 0 0.29898 0.0926 0.34131 0.27781l1.8071 6.9506c0.01323 0.04233 0.0344 0.06879 0.0635 0.07408 0.0291 0.0079 0.05027-0.01852 0.0635-0.07408l1.4261-6.9506c0.04233-0.18521 0.16404-0.27781 0.36248-0.27781h3.1062c0.18521 0 0.29633 0.0926 0.34131 0.27781l1.5954 6.9506c0.01323 0.05821 0.0344 0.08467 0.0635 0.08467s0.05027-0.0291 0.0635-0.08467l1.5954-6.9506c0.04233-0.18521 0.1561-0.27781 0.34131-0.27781h3.638c0.11377 0 0.19579 0.03175 0.24342 0.09525 0.05027 0.0635 0.06085 0.15346 0.03175 0.26723l-3.7862 14.288c-0.04233 0.18521-0.1561 0.27781-0.34131 0.27781h-3.4025c-0.19844 0-0.32015-0.0926-0.36248-0.27781l-1.5319-7.3342c-0.01323-0.04233-0.0344-0.0635-0.0635-0.0635-0.02911 0-0.05027 0.02117-0.0635 0.0635l-1.3414 7.3131c-0.04233 0.19844-0.1561 0.29898-0.34131 0.29898h-3.1697c-0.08467 0-0.16404-0.02381-0.23283-0.07408z"/>
   <path class="cls-9" d="m100.11 95.848c-0.8943-0.39158-1.5849-0.94985-2.0743-1.6748-0.48948-0.72496-0.7329-1.5637-0.7329-2.5162v-0.29898c0-0.10054 0.0291-0.17727 0.08467-0.23548 0.05556-0.05556 0.13494-0.08467 0.23283-0.08467h3.2967c0.0979 0 0.17728 0.02911 0.23284 0.08467 0.0556 0.05821 0.0847 0.13494 0.0847 0.23548v0.127c0 0.39688 0.20903 0.74877 0.62707 1.0557 0.41804 0.30692 0.97366 0.45773 1.6695 0.45773 0.52387 0 0.89958-0.11112 1.1271-0.33073s0.34132-0.46567 0.34132-0.73554c0-0.31221-0.14288-0.54769-0.42598-0.70379-0.28311-0.1561-0.80169-0.34925-1.5531-0.57679l-0.61648-0.16933c-1.4049-0.42598-2.5823-0.99483-3.5322-1.7066s-1.4261-1.741-1.4261-3.093c0-0.89694 0.24077-1.688 0.72231-2.3786 0.48154-0.69056 1.1456-1.2197 1.9897-1.5875 0.84402-0.37042 1.7912-0.55562 2.839-0.55562 1.106 0 2.1087 0.20638 3.011 0.61912 0.89958 0.41275 1.6087 0.99483 2.1272 1.7489 0.51858 0.75406 0.77523 1.614 0.77523 2.5797v0.19315c0 0.10054-0.0291 0.17727-0.0847 0.23548-0.0556 0.05556-0.13494 0.08467-0.23283 0.08467h-3.2967c-0.10054 0-0.17727-0.0291-0.23283-0.08467-0.0556-0.05556-0.0847-0.13494-0.0847-0.23548v-0.02117c0-0.42598-0.1905-0.81492-0.57415-1.1615-0.38364-0.3466-0.90223-0.52123-1.5531-0.52123-0.45508 0-0.81227 0.0926-1.0742 0.27781-0.26194 0.18521-0.39423 0.44185-0.39423 0.76729 0 0.25665 0.0952 0.4736 0.28575 0.65088 0.1905 0.17727 0.48683 0.34925 0.88371 0.51065 0.39687 0.16404 1.0081 0.37306 1.8309 0.62971 0.11377 0.04233 0.61383 0.19579 1.5002 0.45773 0.88636 0.26458 1.6272 0.73819 2.2225 1.4288 0.59532 0.69056 0.8943 1.524 0.8943 2.5056s-0.24078 1.7727-0.72232 2.4633c-0.48154 0.69056-1.1562 1.2197-2.0214 1.5875-0.86519 0.37042-1.8732 0.55298-3.0216 0.55298-1.1483 0-2.2331-0.19579-3.1274-0.58738z"/>
   <rect class="cls-9" x="46.564" y="76.518" width="62.423" height="2.54"/>
  </g>
  <g stroke-width=".26458">
   <path class="cls-8" d="m44.373 59.118h4.2095l2.5056 8.3132 2.7702-8.3555h3.429l2.7702 8.3555 2.5056-8.3132h4.1275l-4.8048 14.473h-3.4687l-2.8734-8.2735-2.8945 8.2735h-3.4687l-4.8048-14.473z" fill="url(#linearGradient49)"/>
   <path class="cls-7" d="m62.122 73.919h-3.9396l-2.6432-7.6068-2.6617 7.6068h-3.937l-5.0218-15.129h4.9054l2.2754 7.5565 2.5188-7.5962h3.9l2.5188 7.5962 2.2754-7.5565h4.8234l-5.0218 15.129zm-3.474-0.65617h3.0004l4.5852-13.819h-3.429l-2.7331 9.0726-3.0242-9.1122h-2.9554l-3.0215 9.1122-2.7331-9.0726h-3.511l4.5852 13.819h3.0004l3.1274-8.9403 3.1062 8.9403z" fill="url(#linear-gradient-2)"/>
   <path class="cls-6" d="m67.448 59.118h7.3686c1.8071 0 3.0798 0.45244 3.9211 1.2726 0.57415 0.59531 0.9234 1.3547 0.9234 2.3416v0.03969c0 1.6642-0.94456 2.6485-2.2172 3.2015 1.7462 0.57414 2.8549 1.561 2.8549 3.511v0.04233c0 2.4633-2.0108 3.9608-5.4398 3.9608h-7.411zm8.292 4.4344c0-0.80169-0.63765-1.233-1.8071-1.233h-2.6061v2.5241h2.5056c1.2118 0 1.9103-0.4101 1.9103-1.2515v-0.04233zm-1.3732 4.0852h-3.0374v2.6485h3.0798c1.233 0 1.9103-0.47096 1.9103-1.315v-0.04233c0-0.78052-0.61648-1.2938-1.95-1.2938z" fill="url(#linear-gradient-3)"/>
   <path class="cls-5" d="m74.859 73.816h-7.7391v-15.026h7.6967c1.8256 0 3.22 0.46038 4.1487 1.3652 0.67998 0.70379 1.0239 1.569 1.0239 2.5744v0.03969c0 1.3626-0.6006 2.4421-1.7515 3.1565 1.6245 0.72231 2.3865 1.8653 2.3865 3.556v0.04233c0 2.6855-2.1564 4.2889-5.7679 4.2889zm-7.0829-0.65617h7.0829c3.2015 0 5.1118-1.36 5.1118-3.6354v-0.04233c0-1.614-0.80962-2.6009-2.6273-3.1988l-0.81492-0.26988 0.78846-0.34396c1.3414-0.58473 2.0214-1.561 2.0214-2.9025v-0.03969c0-0.84138-0.27252-1.5319-0.83079-2.114-0.7964-0.77523-2.0373-1.1721-3.6856-1.1721h-7.0432v13.716zm6.6305-2.5479h-3.4078v-3.302h3.3655c2.0558 0 2.2781 1.1324 2.2781 1.6219v0.04233c0 0.49477-0.21696 1.6404-2.2357 1.6404zm-2.7517-0.65352h2.7517c0.72231 0 1.5822-0.17198 1.5822-0.9869v-0.04233c0-0.79904-0.88371-0.96573-1.6219-0.96573h-2.712v1.9923zm2.1775-4.7863h-2.831v-3.1803h2.9342c1.9262 0 2.1352 1.0901 2.1352 1.5584v0.04233c0 0.59002-0.29104 1.5796-2.2357 1.5796zm-2.1775-0.65352h2.1775c1.0504 0 1.5822-0.31221 1.5822-0.92604v-0.04233c0-0.6006-0.49742-0.90488-1.479-0.90488h-2.2807v1.8706z" fill="url(#linear-gradient-4)"/>
   <path class="cls-3" d="m81.304 59.118h6.7945c2.196 0 3.7147 0.57414 4.6805 1.5399 0.84138 0.84138 1.2726 1.9288 1.2726 3.347v0.04233c0 2.2172-1.1695 3.6751-2.9554 4.4344l3.429 5.0086h-4.5773l-2.8945-4.3524h-1.7648v4.3524h-3.982v-14.37zm6.6305 6.8977c1.3335 0 2.1352-0.65617 2.1352-1.7039v-0.03969c0-1.1483-0.84138-1.7251-2.1564-1.7251h-2.6273v3.4687z" fill="url(#linear-gradient-5)"/>
   <path class="cls-4" d="m95.147 73.816h-5.3737l-2.8945-4.3524h-1.2621v4.3524h-4.6381v-15.026h7.1226c2.1749 0 3.8259 0.55033 4.9133 1.6351 0.92075 0.92075 1.3679 2.0902 1.3679 3.5772v0.04233c0 2.0558-0.98954 3.6645-2.794 4.5694l3.5613 5.2017zm-5.0244-0.65617h3.7809l-3.3046-4.826 0.36777-0.1561c1.2568-0.53446 2.757-1.6854 2.757-4.1328v-0.04233c0-1.3044-0.38365-2.323-1.1774-3.1141-0.95779-0.95779-2.4553-1.4446-4.4503-1.4446h-6.4664v13.716h3.3285v-4.3524h2.2675l2.8945 4.3524zm-2.1881-6.8157h-2.9766v-4.1249h2.9554c1.5558 0 2.4844 0.76729 2.4844 2.0532v0.03969c0 1.233-0.96573 2.032-2.4633 2.032zm-2.3204-0.65617h2.3204c1.1483 0 1.8071-0.50271 1.8071-1.3758v-0.03969c0-1.1536-0.99483-1.397-1.8283-1.397h-2.2992v2.8152z" fill="url(#linear-gradient-6)"/>
   <path class="cls-2" d="m94.771 66.344v-0.04233c0-4.1884 3.2015-7.4718 7.5539-7.4718 2.9369 0 4.8234 1.233 6.096 2.9766l-2.9977 2.3204c-0.82021-1.0054-1.7648-1.6828-3.1406-1.6828-2.0108 0-3.429 1.7251-3.429 3.8179v0.04233c0 2.1564 1.4155 3.8391 3.429 3.8391 1.4976 0 2.3812-0.6985 3.2438-1.7436l2.9977 2.1352c-1.3547 1.868-3.1829 3.2438-6.3447 3.2438-4.1063 0-7.411-3.1406-7.411-7.4321z" fill="url(#linear-gradient-7)"/>
   <path class="cls-1" d="m102.18 74.102c-2.0928 0-4.0375-0.78052-5.4742-2.2013-1.4605-1.4393-2.2622-3.4131-2.2622-5.5589v-0.04233c0-4.4476 3.3893-7.7999 7.8819-7.7999 2.7146 0 4.8551 1.0478 6.3606 3.1115l0.18785 0.25664-3.5004 2.7093-0.20108-0.24606c-0.88371-1.0821-1.7727-1.5637-2.8866-1.5637-1.7674 0-3.1009 1.5002-3.1009 3.4899v0.04233c0 2.0346 1.3044 3.511 3.1009 3.511 1.3758 0 2.1643-0.62177 2.9898-1.6245l0.19314-0.23548 3.5163 2.503-0.19315 0.26723c-1.6722 2.3045-3.773 3.3787-6.6093 3.3787zm0.14288-14.944c-4.1196 0-7.2284 3.0718-7.2284 7.1464v0.04233c0 4.0508 3.0454 7.1041 7.0829 7.1041 2.5347 0 4.3603-0.88106 5.879-2.8443l-2.4792-1.7648c-0.762 0.87312-1.7145 1.6298-3.2994 1.6298-2.1405 0-3.7571-1.7912-3.7571-4.1672v-0.04233c0-2.3627 1.614-4.146 3.7571-4.146 1.2382 0 2.2331 0.48419 3.1882 1.561l2.4924-1.9288c-1.3758-1.741-3.2253-2.5876-5.6409-2.5876z" fill="url(#linear-gradient-8)"/>
  </g>
  <g fill="#eb2127" stroke-width=".26458">
   <path class="cls-10" d="m61.651 73.446h-2.9713c-0.11112 0-0.20902-0.06879-0.24606-0.17462l-2.9025-8.0671-2.9633 8.0698c-0.03704 0.10319-0.13758 0.17198-0.24606 0.17198h-2.9316c-0.11377 0-0.21431-0.07144-0.24871-0.17992l-4.5614-13.642c-0.02646-0.07937-0.01323-0.16933 0.03704-0.23548 0.05027-0.06879 0.12965-0.10848 0.21431-0.10848h3.4369c0.11377 0 0.21431 0.07144 0.24871 0.17992l2.6061 7.8608 2.6458-7.8608c0.03704-0.10583 0.13494-0.17992 0.24871-0.17992h3.011c0.11112 0 0.21167 0.07144 0.24871 0.17462l2.7993 7.9401 2.4236-7.9296c0.0344-0.11112 0.13494-0.18521 0.25136-0.18521h3.4237c0.08467 0 0.16404 0.03969 0.21167 0.10848 0.05027 0.06879 0.0635 0.1561 0.03704 0.23548l-4.5191 13.642c-0.0344 0.10848-0.13494 0.17992-0.24871 0.17992zm-2.9263-0.32808h2.8787l4.4768-13.512h-3.2861l-2.4686 8.0724c-0.03439 0.10848-0.13229 0.18256-0.24606 0.18521-0.11112 0-0.21431-0.06879-0.254-0.17462l-2.8496-8.083h-2.9184l-2.6935 8.001c-0.03704 0.10583-0.13494 0.17992-0.24871 0.17992-0.11377 0-0.21431-0.07144-0.24871-0.17992l-2.6511-8.001h-3.2994l4.5164 13.512h2.839l3.011-8.1941c0.03969-0.10583 0.13494-0.17198 0.24606-0.17198s0.20902 0.06879 0.24606 0.17462l2.9475 8.1941z"/>
   <path class="cls-10" d="m61.024 72.176h-1.5849c-0.22754 0-0.43127-0.14552-0.508-0.35983l-3.1697-8.9376c-0.029104-0.084667-0.11112-0.14023-0.19844-0.14023-0.08731 0-0.16933 0.05821-0.20108 0.14288l-3.1089 8.9323c-0.07673 0.21696-0.28046 0.36248-0.51065 0.36248h-1.5293c-0.23283 0-0.43921-0.14817-0.51329-0.37042l-3.4369-10.427c-0.05556-0.16669-0.02646-0.34396 0.07408-0.48419 0.10319-0.14288 0.26194-0.22225 0.43656-0.22225h0.58473c0.23812 0 0.44715 0.15346 0.51594 0.381l2.7543 8.9985c0.02646 0.08996 0.10848 0.15081 0.20373 0.15081h0.47096c0.0926 0 0.17462-0.05821 0.20108-0.14817l2.884-9.0064c0.07144-0.2249 0.27781-0.37571 0.51329-0.37571h1.3414c0.23019 0 0.43392 0.14552 0.51064 0.36248l3.13 9.0249c0.0291 0.08467 0.11112 0.14288 0.20108 0.14288h0.27781c0.09525 0 0.17727-0.0635 0.20373-0.15346l2.5453-8.9826c0.06615-0.23019 0.27781-0.39158 0.51858-0.39158h0.56092c0.17198 0 0.33073 0.07937 0.43392 0.2196 0.10319 0.13758 0.13229 0.31221 0.08202 0.4789l-3.1697 10.427c-0.06879 0.22754-0.27781 0.38364-0.51594 0.38364zm-5.4636-9.7631c0.22754 0 0.43127 0.14552 0.508 0.35983l3.1697 8.9376c0.0291 0.08467 0.11112 0.14023 0.19844 0.14023h1.5849c0.09525 0 0.17462-0.06085 0.20373-0.15081l3.1697-10.427c0.01852-0.06615 0.0079-0.13229-0.03175-0.18785-0.03969-0.05556-0.10319-0.08467-0.16933-0.08467h-0.56092c-0.09525 0-0.17727 0.0635-0.20373 0.15346l-2.5453 8.9826c-0.06615 0.23019-0.27781 0.39158-0.51858 0.39158h-0.27781c-0.23019 0-0.43392-0.14552-0.51064-0.36248l-3.13-9.0249c-0.0291-0.08467-0.11112-0.14288-0.20108-0.14288h-1.3414c-0.0926 0-0.17462 0.05821-0.20108 0.14817l-2.884 9.0064c-0.07144 0.2249-0.27781 0.37571-0.51329 0.37571h-0.47096c-0.23812 0-0.44715-0.15346-0.51594-0.381l-2.7543-8.9985c-0.02646-0.08996-0.10848-0.15081-0.20373-0.15081h-0.58473c-0.06879 0-0.13229 0.03175-0.17198 0.08731-0.03969 0.05556-0.05027 0.12435-0.0291 0.1905l3.4369 10.427c0.0291 0.08731 0.10848 0.14552 0.20108 0.14552h1.5293c0.08996 0 0.16933-0.05821 0.20108-0.14288l3.1089-8.9323c0.07673-0.21696 0.28046-0.36248 0.51064-0.36248z"/>
   <path class="cls-10" d="m74.576 70.866h-3.3338c-0.24871 0-0.44979-0.20108-0.44979-0.44979v-8.1889c0-0.24871 0.20108-0.44979 0.44979-0.44979h2.8496 0.03175c0.87312 0 1.8071 0.45773 1.8071 1.7383 0 1.2806-1.0954 1.6007-1.6748 1.6166h-3.138v2.1299h3.4184c0.0344 0 0.98954-0.01587 1.5716 0.55562 0.2884 0.28046 0.43392 0.65352 0.43392 1.1033 0 1.5716-1.6986 1.905-1.8918 1.9394-0.02381 0.0053-0.05027 0.0053-0.07673 0.0053zm-3.4581-3.2755v2.8258c0 0.06879 0.05556 0.12171 0.12171 0.12171h3.3338 0.02117c0.27252-0.04762 1.6192-0.34131 1.6192-1.6166 0-0.35983-0.11377-0.65352-0.33602-0.87048-0.48419-0.4736-1.3309-0.46302-1.3388-0.46038h-3.4237zm0-2.7834h3.1327c0.05027 0 1.352-0.05556 1.352-1.2885 0-1.3097-1.1298-1.4102-1.4764-1.4102h-0.03175-2.8522c-0.06879 0-0.12171 0.05556-0.12171 0.12171v2.5797z"/>
   <path class="cls-10" d="m74.647 71.89h-4.49c-0.24871 0-0.44979-0.20108-0.44979-0.44979v-10.012c0-0.24871 0.20108-0.44979 0.44979-0.44979h4.6064c1.4446 0 2.2728 0.88106 2.2728 2.4156 0 2.4448-2.3283 2.5188-2.3521 2.5188h-3.4422c-0.06879 0-0.12171 0.05556-0.12171 0.12171v0.26723c0 0.06879 0.05556 0.12171 0.12171 0.12171h3.4608c0.05027 0 1.3256-0.03175 2.1537 0.76994 0.4445 0.43127 0.67204 1.0213 0.67204 1.7489 0 2.5082-2.1537 2.8866-2.8152 2.9448h-0.02117c-0.01323 0.0026-0.02646 0.0053-0.04233 0.0053zm-4.49-10.583c-0.06879 0-0.12171 0.05556-0.12171 0.12171v10.012c0 0.06879 0.05556 0.12171 0.12171 0.12171h4.527c0.75671-0.06879 2.5162-0.45244 2.5162-2.6194 0-0.635-0.19315-1.143-0.5715-1.5108-0.72496-0.70644-1.9076-0.68262-1.9209-0.67998h-3.4634c-0.24871 0-0.44979-0.20108-0.44979-0.44979v-0.26723c0-0.24871 0.20108-0.44979 0.44979-0.44979h3.4396c0.07937 0 2.0267-0.06879 2.0267-2.1908 0-1.7251-1.0583-2.0876-1.9447-2.0876h-4.6064z"/>
   <path class="cls-10" d="m75.263 72.689h-6.1092c-0.24871 0-0.44979-0.20108-0.44979-0.44979v-11.935c0-0.08996 0.02646-0.1614 0.08202-0.21431 0.08731-0.08467 0.20108-0.07937 0.30162-0.07408h0.06879 6.514 0.0291c0.73819 0 2.8734 0.72496 2.8734 2.9475 0 1.9103-1.061 2.4606-1.9129 2.9051l-0.04498 0.02381c-0.06085 0.03175-0.06615 0.08731-0.0635 0.11112 0 0.02381 0.0079 0.07937 0.07408 0.10848 0.84931 0.38894 2.2754 1.2779 2.2754 2.8707 0 2.5347-1.8494 3.5745-3.5798 3.7015h-0.01852s-0.02381 0.0026-0.03704 0.0026zm-6.2336-12.348v11.898c0 0.06879 0.05556 0.12171 0.12171 0.12171h6.141c0.76994-0.05821 3.2782-0.46831 3.2782-3.3787 0-1.4102-1.307-2.2172-2.0849-2.5718-0.15875-0.07144-0.25929-0.2249-0.26458-0.39952-0.0053-0.17198 0.08731-0.32808 0.24077-0.4101l0.04498-0.02381c0.85196-0.4445 1.7357-0.90488 1.7357-2.6141 0-1.9923-1.9817-2.6194-2.5453-2.6194h-0.0291-6.5167-0.07937-0.04233z"/>
   <path class="cls-10" d="m75.98 73.446h-7.7073c-0.24871 0-0.44979-0.20108-0.44979-0.44979v-13.388c0-0.24871 0.20108-0.44979 0.44979-0.44979h7.493c0.86783 0 3.9317 0.84402 3.9317 3.5216 0 1.778-1.0345 2.7199-1.6536 3.1247-0.05821 0.03704-0.05821 0.0926-0.05556 0.11642 0 0.02117 0.01323 0.07408 0.07408 0.0979 0.79375 0.32015 2.1272 1.1509 2.1272 3.0903 0 3.3417-3.6909 4.2386-4.1116 4.3312-0.03175 0.0079-0.06085 0.01058-0.09525 0.01058zm-7.7073-13.962c-0.06879 0-0.12171 0.05556-0.12171 0.12171v13.388c0 0.06879 0.05556 0.12171 0.12171 0.12171h7.7073 0.02646c0.39423-0.08467 3.8523-0.9234 3.8523-4.0111 0-1.7462-1.2039-2.495-1.9209-2.7861-0.15346-0.0635-0.26194-0.20373-0.27781-0.37042-0.01587-0.16669 0.06085-0.32808 0.20108-0.42069 0.68527-0.44979 1.5055-1.3097 1.5055-2.8496 0-2.3945-2.839-3.1935-3.6036-3.1935h-7.493z"/>
   <path class="cls-10" d="m84.876 73.446h-3.1724c-0.2249 0-0.4101-0.18256-0.4101-0.4101v-13.716c0-0.08996 0.07408-0.16404 0.16404-0.16404 0.08996 0 0.16404 0.07408 0.16404 0.16404v13.716c0 0.04498 0.03704 0.08202 0.08202 0.08202h3.1724c0.04498 0 0.08202-0.03704 0.08202-0.08202v-10.544c0-0.2249 0.18256-0.4101 0.4101-0.4101h2.876 0.0344c0.7964 0.0635 2.1458 0.59531 2.1458 2.1696 0 0.5715-0.17727 1.0372-0.52917 1.3838-0.65352 0.64558-1.6616 0.64294-1.7039 0.64294h-2.9051v6.7548c0 0.2249-0.18256 0.4101-0.4101 0.4101zm0.4101-7.493h2.9078s0.92075 0 1.4737-0.55033c0.28575-0.2831 0.43127-0.6694 0.43127-1.1509 0-1.6457-1.6563-1.8256-1.8468-1.8415h-2.884c-0.04498 0-0.08202 0.03704-0.08202 0.08202z"/>
   <path class="cls-10" d="m93.864 73.446h-3.7015c-0.13494 0-0.26194-0.06615-0.33867-0.17992l-2.7411-4.0428c-0.01587-0.02381-0.03969-0.03704-0.06879-0.03704h-1.7939c-0.08996 0-0.16404-0.07408-0.16404-0.16404 0-0.08996 0.07408-0.16404 0.16404-0.16404h1.7939c0.13494 0 0.26194 0.06615 0.33867 0.17992l2.7411 4.0428c0.01588 0.02381 0.03969 0.03704 0.06879 0.03704h3.7015c0.04498 0 0.06615-0.03175 0.07144-0.04498 0.0079-0.01323 0.02117-0.04763-0.0053-0.08467l-2.9501-4.2677c-0.07673-0.11112-0.09525-0.254-0.04498-0.381 0.04762-0.127 0.1561-0.2196 0.2884-0.25136 0.762-0.17992 2.5347-0.94192 2.5347-4.1645 0-4.3921-4.871-4.4424-5.0774-4.4424h-7.2205c-0.08996 0-0.16404-0.07408-0.16404-0.16404 0-0.08996 0.07408-0.16404 0.16404-0.16404h7.2205c0.05292 0 5.4054 0.05556 5.4054 4.7704 0 3.4555-1.95 4.2862-2.7887 4.482-0.03704 0.0079-0.05292 0.0344-0.05821 0.05027-0.0053 0.01587-0.01323 0.04498 0.01058 0.07673l2.9501 4.2677c0.08731 0.12435 0.0979 0.2884 0.02646 0.42333-0.07144 0.13494-0.20902 0.2196-0.36248 0.2196z"/>
   <path class="cls-10" d="m92.297 72.628h-1.5637c-0.14023 0-0.26723-0.06879-0.34396-0.18785l-2.8019-4.3339c-0.01587-0.02381-0.03969-0.03704-0.06879-0.03704h-2.1511c-0.2249 0-0.4101-0.18256-0.4101-0.4101v-0.43656c0-0.2249 0.18256-0.4101 0.4101-0.4101h3.2068c0.27517-0.01852 2.63-0.25929 2.63-2.839 0-0.78052-0.23019-1.3944-0.68262-1.8203-0.80169-0.75671-2.0505-0.69056-2.0638-0.69056h-4.3233c-0.04498 0-0.08202 0.03704-0.08202 0.08202v10.673c0 0.2249-0.18256 0.4101-0.4101 0.4101h-0.95515c-0.2249 0-0.4101-0.18256-0.4101-0.4101v-11.737c0-0.2249 0.18256-0.4101 0.4101-0.4101h6.0457 0.02646c1.7171 0 4.2704 1.0319 4.2704 3.8735 0 2.8416-2.1881 3.5216-3.1274 3.728-0.0344 0.0079-0.05027 0.0344-0.05556 0.04763-0.0053 0.01323-0.01323 0.04498 0.0079 0.07673l2.7861 4.191c0.08467 0.127 0.08996 0.28575 0.01852 0.42069-0.07144 0.13229-0.20902 0.21696-0.35983 0.21696zm-6.9294-5.4875c-0.04498 0-0.08202 0.03704-0.08202 0.08202v0.43656c0 0.04498 0.03704 0.08202 0.08202 0.08202h2.1511c0.14023 0 0.26723 0.06879 0.34396 0.18785l2.8019 4.3339c0.01588 0.02381 0.03969 0.03704 0.06879 0.03704h1.5637c0.04498 0 0.06615-0.0291 0.07144-0.04233 0.0079-0.01323 0.02117-0.04762-0.0053-0.08467l-2.7861-4.191c-0.07408-0.11377-0.08996-0.254-0.03969-0.381 0.05027-0.12435 0.15875-0.21696 0.2884-0.24606 0.86254-0.1905 2.8707-0.90223 2.8707-3.4078 0-2.8046-2.5797-3.5481-3.9449-3.5481h-0.02646-6.0457c-0.04498 0-0.08202 0.03704-0.08202 0.08202v11.737c0 0.04498 0.03704 0.08202 0.08202 0.08202h0.95515c0.04498 0 0.08202-0.03704 0.08202-0.08202v-10.673c0-0.2249 0.18256-0.4101 0.4101-0.4101h4.3127c0.04762-0.0026 1.3917-0.07408 2.2966 0.77788 0.52123 0.49212 0.78581 1.1853 0.78581 2.0611 0 2.9236-2.8072 3.1565-2.9263 3.1644h-0.0291-3.2068z"/>
   <path class="cls-10" d="m102.36 73.652c-5.1938 0-7.5618-3.9846-7.5618-7.6861 0-3.9582 3.4899-7.1781 7.7787-7.1781 3.5878 0 5.0906 2.122 5.4663 2.7728 0.0873 0.15346 0.0476 0.3519-0.0926 0.46038l-2.2754 1.7383c-0.14022 0.10583-0.33072 0.09525-0.45772-0.02381-0.32544-0.30956-1.4896-1.315-2.7755-1.315-1.4023 0-3.6301 0.99219-3.6301 3.6565 0 2.8284 1.8097 4.0931 3.6036 4.0931 1.5584 0 2.6141-1.1192 2.8998-1.4631 0.12171-0.14552 0.33602-0.16933 0.48683-0.05556l2.3469 1.7595c0.13758 0.10319 0.18256 0.29104 0.10583 0.4445-0.33073 0.65617-1.7357 2.7966-5.8923 2.7966zm0.2196-14.536c-4.109 0-7.4507 3.0745-7.4507 6.8501 0 3.5428 2.2648 7.3581 7.2337 7.3581 3.9688 0 5.2917-2.0029 5.6012-2.6167 5e-3 -0.01058 0-0.02646-8e-3 -0.0344l-2.3468-1.7595s-0.0291-0.0079-0.037 0.0053c-0.39688 0.47625-1.4975 1.5822-3.1512 1.5822-1.8944 0-3.9317-1.3838-3.9317-4.4212 0-2.749 2.3151-3.9846 3.9582-3.9846 1.4076 0 2.6511 1.0769 3.0004 1.4049 0.0106 0.01058 0.0238 0.01058 0.0344 0l2.2754-1.7383s0.0159-0.02381 8e-3 -0.0344c-0.35454-0.61119-1.7727-2.6088-5.1832-2.6088z"/>
   <path class="cls-10" d="m102.31 72.819c-1.8441 0-3.5322-0.7964-4.7572-2.241-1.053-1.2435-1.6828-2.8734-1.6828-4.3577 0-3.0057 2.8125-6.3685 6.5775-6.3685 2.2728 0 3.2835 0.64823 4.281 1.434 0.0873 0.06879 0.13759 0.16933 0.13494 0.28046 0 0.11112-0.0503 0.21167-0.13758 0.28046l-0.99748 0.76994c-0.13229 0.10319-0.31485 0.0979-0.44185-0.0079-0.0397-0.0344-0.0847-0.07408-0.13759-0.11906-0.37835-0.33867-1.0848-0.97102-2.6458-0.97102-2.3151 0-4.7757 1.6484-4.7757 4.7016 0 3.0533 1.9606 5.1514 4.5588 5.1514 1.8442 0 2.4236-0.6641 2.8072-1.1033 0.11112-0.127 0.20902-0.23812 0.3175-0.31485 0.12435-0.08731 0.29104-0.08731 0.41275 0.0026l0.92604 0.67204c0.1614 0.11642 0.1905 0.34131 0.0662 0.51065-0.52123 0.71967-1.5584 1.6801-4.5032 1.6801zm0.13759-12.639c-3.8735 0-6.2495 3.519-6.2495 6.0404s2.1775 6.2706 6.1145 6.2706c2.7966 0 3.7571-0.88106 4.2386-1.5452 8e-3 -0.01058 0.0238-0.03969 5e-3 -0.05292l-0.92605-0.67204s-0.0212-0.0079-0.0317 0c-0.0794 0.05556-0.16139 0.15081-0.25929 0.26458-0.39687 0.45508-1.061 1.2144-3.0533 1.2144-2.7861 0-4.8869-2.3548-4.8869-5.4795s2.63-5.0297 5.1038-5.0297c1.688 0 2.4553 0.68792 2.8654 1.0557 0.0476 0.04233 0.09 0.07937 0.127 0.11112 0.0106 0.0079 0.0238 0.0079 0.0344 0l0.99748-0.76994s0.0106-0.01323 0.0106-0.02117c0-0.0053 0-0.01587-0.0106-0.02117-0.94985-0.74612-1.9129-1.3626-4.0799-1.3626z"/>
  </g>
  <g id="_x36_" transform="matrix(.26458 0 0 .26458 10.319 50.541)">
   <path class="cls-9" d="m140.08 101.68c-5.66-22.56-22.24-41.02-44.14-49.2-1.7-0.66-3.11-1.13-3.18-1.07-0.25 0.31-9.59 16.64-9.59 16.77 0 0.09 0.22 0.16 0.47 0.16 0.98 0 7.36 2.36 10.07 3.68 5.95 2.96 10.03 5.85 14.31 10.16 20.07 20.04 20.57 52.09 1.16 72.86-7.33 7.83-17.33 13.37-28.12 15.57-4.06 0.82-11.51 1.1-15.82 0.63-24.35-2.83-43.44-22.02-46.24-46.43-1.07-9.44 0.76-19.94 4.94-28.28 1.26-2.49 5.95-10.7 32.12-56.03 5.38-9.34 13.43-23.28 22.84-39.45 0.21-0.36 0.41-0.7 0.61-1.04h-21.92c-6.54 10.97-47.8 82.85-49.76 86.72-5.69 11.27-7.86 20.3-7.83 32.88 0 9.15 0.98 14.88 3.87 23.34 6.07 17.55 19.13 32.24 36.05 40.55 25.29 12.39 55.33 8.62 77.26-9.72 10.95-9.15 19.44-22.81 22.93-36.81 1.6-6.48 2.04-10.22 2.04-17.68-0.03-7.49-0.44-11.2-2.08-17.62z"/>
   <path class="cls-9" d="m86.26 78.71c-1.76-0.66-7.8-2.3-7.96-2.14-0.06 0.06-2.17 3.71-4.72 8.12-2.55 4.4-4.97 8.59-5.38 9.31l-0.76 1.26 2.64-0.13c6.17-0.31 12.87 2.14 17.55 6.48 8.24 7.64 10.13 19.66 4.62 29.63-1.86 3.33-6.2 7.58-9.56 9.34-14.16 7.39-31.05 0.03-35.26-15.35-0.38-1.38-0.57-3.21-0.57-5.79-0.03-4 0.31-5.85 1.6-9.06 0.69-1.67 9.97-17.96 25.42-44.58 3.18-5.44 7.11-12.24 8.75-15.1s9.5-16.52 17.49-30.33c4.83-8.35 9.11-15.8 11.73-20.39h-21.82c-4.3 7.39-24.51 42.38-48.39 83.75-4.06 7.02-8.05 14.06-8.9 15.67-4.88 9.31-6.13 20.32-3.52 30.58 4.97 19.41 22.08 32.72 42.06 32.72 10.22 0 20.2-3.77 28.12-10.66 16.55-14.34 19.69-38.88 7.3-57.19-4.84-7.2-12.11-12.93-20.45-16.14z"/>
  </g>
 </g>
</svg>
