<?xml version="1.0" encoding="UTF-8" standalone="no"?>
<!-- Created with Inkscape (http://www.inkscape.org/) -->

<svg
   version="1.1"
   id="svg1"
   width="1000"
   height="603.97089"
   viewBox="0 0 1000 603.97089"
   xml:space="preserve"
   xmlns="http://www.w3.org/2000/svg"
   xmlns:svg="http://www.w3.org/2000/svg"><defs
     id="defs1"><style
       id="style1">.cls-1{fill:#fff;stroke-width:0px;}</style></defs><g
     id="g9"
     transform="matrix(2.5181243,0,0,2.5181243,-3.59076,-201.40342)"><path
       style="font-weight:bold;font-size:66.913px;line-height:0.95;font-family:'F37 Bolton';-inkscape-font-specification:'F37 Bolton Bold';text-align:center;letter-spacing:0px;word-spacing:0px;text-anchor:middle;fill:#012023;fill-opacity:1;stroke-width:2.16924;paint-order:markers fill stroke"
       d="M 398.54695,129.16258 H 364.01984 V 81.18596 h 33.9918 v 9.100168 h -23.75411 v 9.903122 h 21.74672 v 9.10017 h -21.74672 v 10.77299 h 24.28942 z"
       id="path8" /><path
       style="font-weight:bold;font-size:66.913px;line-height:0.95;font-family:'F37 Bolton';-inkscape-font-specification:'F37 Bolton Bold';text-align:center;letter-spacing:0px;word-spacing:0px;text-anchor:middle;fill:#012023;fill-opacity:1;stroke-width:2.16924;paint-order:markers fill stroke"
       d="M 360.48637,129.16258 H 329.57256 V 81.18596 h 10.23769 v 38.54189 h 20.67612 z"
       id="path7" /><path
       style="font-weight:bold;font-size:66.913px;line-height:0.95;font-family:'F37 Bolton';-inkscape-font-specification:'F37 Bolton Bold';text-align:center;letter-spacing:0px;word-spacing:0px;text-anchor:middle;fill:#012023;fill-opacity:1;stroke-width:2.16924;paint-order:markers fill stroke"
       d="M 326.17134,129.16258 H 295.25753 V 81.18596 h 10.23769 v 38.54189 h 20.67612 z"
       id="path6" /><path
       style="font-weight:bold;font-size:66.913px;line-height:0.95;font-family:'F37 Bolton';-inkscape-font-specification:'F37 Bolton Bold';text-align:center;letter-spacing:0px;word-spacing:0px;text-anchor:middle;fill:#012023;fill-opacity:1;stroke-width:2.16924;paint-order:markers fill stroke"
       d="M 290.46807,129.16258 H 280.23039 V 81.18596 h 10.23768 z"
       id="path5" /><path
       style="font-weight:bold;font-size:66.913px;line-height:0.95;font-family:'F37 Bolton';-inkscape-font-specification:'F37 Bolton Bold';text-align:center;letter-spacing:0px;word-spacing:0px;text-anchor:middle;fill:#012023;fill-opacity:1;stroke-width:2.16924;paint-order:markers fill stroke"
       d="M 250.42541,129.16258 235.57073,81.18596 h 10.50534 l 6.62438,21.41216 q 1.27135,4.21552 2.07431,7.15969 0.80295,2.94417 1.47208,6.62439 h 0.26766 q 1.13752,-6.22291 3.54638,-13.91791 l 6.75822,-21.27833 h 10.17077 l -15.12233,47.97662 z"
       id="path4" /><path
       style="font-weight:bold;font-size:66.913px;line-height:0.95;font-family:'F37 Bolton';-inkscape-font-specification:'F37 Bolton Bold';text-align:center;letter-spacing:0px;word-spacing:0px;text-anchor:middle;fill:#012023;fill-opacity:1;stroke-width:2.16924;paint-order:markers fill stroke"
       d="m 190.72467,129.16258 15.32308,-24.55707 -15.12234,-23.41955 h 11.64286 l 8.02956,12.378905 q 1.539,2.609607 1.73974,3.211824 h 0.26765 q 0.20074,-0.535304 0.86987,-1.538999 0.66913,-1.070608 0.93679,-1.538999 l 7.89573,-12.512731 h 10.70608 l -15.05543,23.82103 15.45691,24.15559 H 221.77231 L 213.0067,115.3785 q -1.07061,-1.60591 -1.47208,-2.6096 h -0.20074 q -0.80296,1.60591 -1.47209,2.67652 l -8.49795,13.71716 z"
       id="path3" /><path
       style="font-weight:bold;font-size:66.913px;line-height:0.95;font-family:'F37 Bolton';-inkscape-font-specification:'F37 Bolton Bold';text-align:center;letter-spacing:0px;word-spacing:0px;text-anchor:middle;fill:#012023;fill-opacity:1;stroke-width:2.16924;paint-order:markers fill stroke"
       d="m 169.10897,130.36702 q -7.42734,0 -12.84729,-3.27874 -5.41996,-3.34565 -8.29721,-8.96634 -2.87726,-5.68761 -2.87726,-12.64656 0,-7.226605 2.94417,-13.048036 2.94417,-5.821431 8.36412,-9.100168 5.48687,-3.34565 12.71347,-3.34565 7.22661,0 12.64656,3.34565 5.41995,3.278737 8.36413,9.100168 2.94417,5.821431 2.94417,13.048036 0,6.95895 -2.87726,12.64656 -2.81035,5.6876 -8.2303,8.96634 -5.41995,3.27874 -12.8473,3.27874 z m 0,-9.56856 q 4.34935,0 7.49426,-2.07431 3.14491,-2.14121 4.75082,-5.62069 1.60592,-3.47947 1.60592,-7.62808 0,-4.41626 -1.60592,-8.029561 -1.60591,-3.613302 -4.75082,-5.754518 -3.078,-2.141216 -7.49426,-2.141216 -4.41625,0 -7.56117,2.141216 -3.07799,2.141216 -4.68391,5.754518 -1.53899,3.613301 -1.53899,8.029561 0,4.14861 1.53899,7.62808 1.60592,3.47948 4.68391,5.62069 3.14492,2.07431 7.56117,2.07431 z"
       id="path2" /><path
       style="font-weight:bold;font-size:66.913px;line-height:0.95;font-family:'F37 Bolton';-inkscape-font-specification:'F37 Bolton Bold';text-align:center;letter-spacing:0px;word-spacing:0px;text-anchor:middle;fill:#012023;fill-opacity:1;stroke-width:2.16924;paint-order:markers fill stroke"
       d="M 102.11514,129.16258 V 81.18596 h 9.50164 l 16.99591,25.62768 q 0.86986,1.33826 2.6096,4.28243 h 0.26765 V 81.18596 h 9.70239 v 47.97662 h -9.56856 l -17.26355,-26.02916 q -1.60592,-2.47578 -2.27505,-3.947863 h -0.26765 v 29.977023 z"
       id="path1" /><path
       style="font-weight:bold;font-size:66.913px;line-height:0.95;font-family:'F37 Bolton';-inkscape-font-specification:'F37 Bolton Bold';text-align:center;letter-spacing:0px;word-spacing:0px;text-anchor:middle;fill:#012023;fill-opacity:1;stroke-width:2.16924;paint-order:markers fill stroke"
       d="M 98.896279,129.16258 H 86.383548 l -13.850991,-20.87685 -4.683911,4.95156 v 15.92529 H 57.610957 V 81.18596 h 10.237689 v 19.73934 h 0.200739 q 0.936782,-1.539003 1.605912,-2.141221 L 86.249722,81.18596 h 12.311992 l -18.534901,19.67242 z"
       id="text1" /></g><path
     d="m 860.21688,166.77367 v 247.51611 c 0,22.57813 -10.39905,48.96608 -39.69128,48.96608 -29.29223,0 -40.40955,-26.38795 -40.40955,-48.96608 V 166.77367 H 641.02489 v 247.51611 c 0,22.57813 -10.58643,48.96608 -40.3783,48.96608 -29.79188,0 -39.69128,-26.38795 -39.69128,-48.96608 V 166.77367 H 421.86414 v 219.72284 c -0.65577,42.31446 -31.19711,77.63375 -68.14031,78.85169 H 209.19889 c -38.69195,0 -70.17016,-35.72529 -70.17016,-79.60113 0,-43.87588 31.47821,-80.28821 70.17016,-80.28821 H 345.10482 V 166.77367 H 209.19889 C 93.87249,166.77367 0,264.98691 0,385.74707 0,506.50719 93.87249,603.97091 209.23012,603.97091 h 139.52839 c 46.71763,0 93.7788,-18.89316 129.66024,-49.778 34.13259,33.88277 71.41929,49.778 116.23198,49.778 44.81272,0 81.97449,-15.80153 115.98221,-49.4657 34.0077,33.66417 71.2007,49.4657 115.95096,49.4657 96.87041,0 172.72414,-79.4762 172.72414,-180.96842 V 166.77367 Z"
     class="cls-1"
     id="path3-4"
     style="fill:#ff4500;fill-opacity:1" /></svg>
