<?xml version="1.0" encoding="UTF-8"?>
<svg id="Layer_1" data-name="Layer 1" xmlns="http://www.w3.org/2000/svg" xmlns:xlink="http://www.w3.org/1999/xlink" xmlns:ns0="http://www.w3.org/2000/svg" version="1.1" viewBox="0 0 120.1 60">
  <defs>
    <style>
      .cls-1 {
        clip-path: url(#clippath);
      }

      .cls-2 {
        fill: none;
      }

      .cls-2, .cls-3, .cls-4 {
        stroke-width: 0px;
      }

      .cls-5 {
        clip-path: url(#clippath-2);
      }

      .cls-3 {
        fill: #ff4500;
      }

      .cls-4 {
        fill: #000;
      }
    </style>
    <clipPath id="clippath">
      <rect class="cls-2" y="10" width="120.1" height="40"/>
    </clipPath>
    <clipPath id="clippath-2">
      <rect class="cls-2" x="-10.6" y="-19.5" width="141.3" height="98.9"/>
    </clipPath>
  </defs>
  <rect class="cls-2" width="120.1" height="60"/>
  <g class="cls-1">
    <g id="layer_1-2" data-name="layer 1">
      <g class="cls-5">
        <g>
          <path class="cls-4" d="M74.2,23.4v-5.7c5.6,0,10.1-1.7,11-7.7h5.9v39h-7.4v-25.6h-9.5Z"/>
          <path class="cls-4" d="M93.3,37.4h7.1c0,3.5,2.3,5.7,5.9,5.7s6.4-2.2,6.4-7.3-2.3-7.8-6.2-7.8-5,1.6-6.1,3.7h-6.2l2.8-21.9h21.3v6.6h-15.4l-.6,4.4c-.2,1.6-.4,2.6-.8,3.8h.2c1.4-1.6,3.8-2.6,6.7-2.6,7.4,0,11.7,5.5,11.7,13.4s-4.5,14.4-14,14.4-12.9-4.2-12.9-12.6"/>
          <path class="cls-3" d="M61.6,17.7v17.7c0,1.6-.7,3.5-2.8,3.5s-2.9-1.9-2.9-3.5v-17.7h-10v17.7c0,1.6-.8,3.5-2.9,3.5s-2.8-1.9-2.8-3.5v-17.7h-10v15.7c0,3-2.2,5.6-4.9,5.6h-10.3c-2.8,0-5-2.6-5-5.7s2.3-5.7,5-5.7h9.7v-9.9h-9.7C6.7,17.7,0,24.7,0,33.4s6.7,15.6,15,15.6h10c3.3,0,6.7-1.4,9.3-3.6,2.4,2.4,5.1,3.6,8.3,3.6s5.9-1.1,8.3-3.5c2.4,2.4,5.1,3.5,8.3,3.5,6.9,0,12.4-5.7,12.4-13v-18.3h-10Z"/>
        </g>
      </g>
    </g>
  </g>
</svg>