<?xml version="1.0" encoding="utf-8"?>
<!-- Generator: Adobe Illustrator 24.3.0, SVG Export Plug-In . SVG Version: 6.00 Build 0)  -->
<svg version="1.1" id="Layer_1" xmlns="http://www.w3.org/2000/svg" xmlns:xlink="http://www.w3.org/1999/xlink" x="0px" y="0px"
	 viewBox="0 0 108.664 60" style="enable-background:new 0 0 108.664 60;" xml:space="preserve">
<style type="text/css">
	.st0{fill:none;}
	.st1{fill:#601404;}
</style>
<rect class="st0" width="108.664" height="60"/>
<g>
	<path class="st1" d="M63.091,39.022h-3.425v0.988h3.425c0.395,0,0.659-0.066,0.659-0.461C63.75,39.088,63.486,39.022,63.091,39.022
		z"/>
	<path class="st1" d="M0,46.267h71.06V13.733H0V46.267z M16.728,41.393h-4.281l3.49-2.437c0.263-0.198,0.527-0.263,0.724-0.263
		c0.593,0,1.054,0.395,1.251,0.922C18.111,40.471,17.584,41.393,16.728,41.393z M5.664,39.615c0.329-0.856,1.251-1.185,2.042-0.659
		l3.49,2.437H6.981C6.059,41.393,5.334,40.603,5.664,39.615z M9.154,36.849l1.778,4.083L7.244,38.43
		c-0.922-0.593-0.724-1.646-0.198-2.107C7.771,35.664,8.759,35.861,9.154,36.849z M10.208,34.281
		c0.659-0.066,1.581,0.461,1.383,1.581l-0.659,4.61l-1.844-4.347C8.693,35.005,9.615,34.281,10.208,34.281z M12.249,35.73H11.92
		c-0.066-0.988,0.659-1.449,1.317-1.449c0.066,0,0.066,0,0.066,0c0.724,0,1.515,0.856,1.12,1.844l-1.844,4.412l-0.593-3.951
		c-0.066-0.593,0.329-0.593,0.461-0.724C12.447,35.73,12.249,35.73,12.249,35.73z M16.333,38.43l-3.688,2.568l1.712-4.083
		c0.263-0.724,0.79-0.922,1.251-0.922c0.395,0,0.724,0.198,0.988,0.395C17.057,36.849,17.189,37.771,16.333,38.43z M63.815,41.459
		h-6.059v-6.256h5.466c1.515,0,2.239,0.395,2.239,1.646c0,1.054-0.395,1.251-0.922,1.449l0,0c0.856,0.132,1.12,0.527,1.12,1.515
		C65.725,41.196,64.935,41.459,63.815,41.459z M56.439,24.995h2.766c0,0.988,0.395,1.054,1.185,1.054h3.425
		c0.593,0,1.185-0.066,1.185-0.79c0-0.79-0.329-0.856-3.886-0.856c-4.149,0-4.676-0.527-4.676-2.7c0-1.646,0.132-2.898,3.622-2.898
		h3.886c3.227,0,3.49,1.12,3.49,2.7v0.263h-2.766c0-0.659-0.066-0.922-1.383-0.922h-3.095c-0.593,0-1.054,0.198-1.054,0.724
		c0,0.79,0.329,0.79,3.293,0.79c4.347,0,5.334,0.263,5.334,2.898c0,2.437-0.856,2.832-4.544,2.832h-3.359
		c-2.503,0-3.556-0.461-3.556-2.437v-0.659H56.439z M55.122,35.203l-3.425,4.083v2.173h-1.91v-2.173l-3.425-4.083h2.305l2.107,2.568
		l2.107-2.568H55.122z M38.987,18.87l1.91,6.652l0,0l2.305-6.652h2.568l2.305,6.717l0,0l1.976-6.717h2.7l-2.964,9.088h-3.161
		l-2.107-5.993l0,0l-2.107,5.993h-3.161l-3.029-9.088H38.987z M35.826,37.442c0-1.844,1.054-2.239,2.766-2.239h2.239
		c2.7,0,3.095,0.593,3.029,2.371h-1.91v-0.198c0-0.461-0.329-0.593-0.922-0.593h-2.107c-0.988,0-1.185,0.461-1.185,1.251v0.659
		c0,0.922,0.198,1.251,1.12,1.251h2.042c0.856,0,1.12-0.066,1.12-0.856h1.91v0.593c0,1.054-0.395,1.844-2.305,1.844h-3.095
		c-1.712,0-2.766-0.461-2.766-2.239v-1.844H35.826z M21.667,18.87h9.879v2.107h-7.113v1.449h6.783v1.844h-6.783v1.449h7.31v2.173
		H21.667V18.87z M22.984,35.203l1.317,4.544l0,0l1.581-4.544h1.778l1.581,4.544l0,0l1.317-4.544h1.844l-2.042,6.256h-2.173
		l-1.449-4.083l0,0l-1.449,4.083h-2.173l-2.042-6.256H22.984z M3.754,18.87h4.281l5.203,6.586l0,0V18.87h2.766v9.088h-4.281
		L6.52,21.373l0,0v6.586H3.754V18.87z"/>
	<path class="st1" d="M63.618,37.244c0-0.329-0.198-0.461-0.593-0.461h-3.359v0.988h3.359C63.42,37.705,63.618,37.574,63.618,37.244
		z"/>
	<path class="st1" d="M71.389,13.733v32.533h37.275V13.733H71.389z M72.508,38.298l7.442-2.832
		c7.31,5.532,17.057,2.568,17.057-0.856c0-0.263-0.066-0.527-0.198-0.79c-3.029-6.652-23.643-1.515-23.643-1.515l8.166-17.847
		h24.499c0,0-0.724,1.449-1.646,2.964s-2.107,3.161-3.029,3.556c-0.395,0.198-0.856,0.263-1.449,0.263
		c-0.922,0-2.042-0.198-3.49-0.395c-1.383-0.198-3.095-0.395-5.071-0.395c-1.712,0-3.556,0.132-5.73,0.527l0,0
		c-0.066,0-1.317,2.832-1.317,2.832c1.778-0.263,3.425-0.395,5.005-0.395c8.891,0,15.213,3.688,17.189,8.43
		C110.442,41.788,85.482,52.721,72.508,38.298z"/>
</g>
</svg>
