<?xml version="1.0" encoding="UTF-8"?>
<!-- Created with Inkscape by VulcanSphere (http://www.inkscape.org/ and http://vulcansphere.com) -->
<svg width="787.4" height="787.4" version="1.1" viewBox="0 0 787.4 787.4" xml:space="preserve" xmlns="http://www.w3.org/2000/svg">
<title>WDTV</title>
<desc>Television station in Weston–Clarksburg–Fairmont, West Virginia</desc>
<defs><linearGradient id="linearGradient219" x1="744.75" x2="286.54" y1="272.03" y2="686.06" gradientUnits="userSpaceOnUse"><stop stop-color="#3e358d" offset="0"/><stop stop-color="#130f46" offset="1"/></linearGradient></defs>
<style type="text/css">
	.st0{fill:url(#SVGID_1_);stroke:#6F7377;stroke-width:0.7;stroke-miterlimit:10;}
	.st1{fill:url(#SVGID_2_);}
	.st2{fill:url(#SVGID_3_);}
	.st3{fill:url(#SVGID_4_);}
	.st4{fill:url(#SVGID_5_);}
	.st5{fill:url(#SVGID_6_);}
	.st6{fill:#84908C;}
	.st7{fill:url(#SVGID_7_);}
	.st8{fill:#667674;}
	.st9{fill:#697677;}
	.st10{fill:url(#SVGID_8_);}
	.st11{fill:url(#SVGID_9_);}
	.st12{fill:url(#SVGID_10_);}
	.st13{fill:url(#SVGID_11_);}
	.st14{fill:url(#SVGID_12_);}
	.st15{fill:url(#SVGID_13_);}
	.st16{fill:url(#SVGID_14_);}
	.st17{fill:url(#SVGID_15_);}
	.st18{fill:url(#SVGID_16_);}
	.st19{fill:url(#SVGID_17_);}
	.st20{fill:url(#SVGID_18_);}
	.st21{fill:url(#SVGID_19_);}
	.st22{fill:url(#SVGID_20_);}
	.st23{fill:url(#SVGID_21_);}
	.st24{fill:url(#SVGID_22_);}
	.st25{fill:url(#SVGID_23_);}
	.st26{fill:url(#SVGID_24_);}
	.st27{fill:url(#SVGID_25_);}
	.st28{fill:url(#SVGID_26_);}
	.st29{fill:url(#SVGID_27_);}
	.st30{fill:url(#SVGID_28_);}
	.st31{fill:url(#SVGID_29_);}
	.st32{fill:url(#SVGID_30_);}
	.st33{fill:#666D78;}
	.st34{fill:#8B9096;}
	.st35{fill:#DBDBDB;}
	.st36{fill:url(#SVGID_31_);}
	.st37{fill:url(#SVGID_32_);}
	.st38{fill:url(#SVGID_33_);}
	.st39{fill:url(#SVGID_34_);}
	.st40{fill:url(#SVGID_35_);}
	.st41{fill:url(#SVGID_36_);}
	.st42{fill:url(#SVGID_37_);}
	.st43{fill:url(#SVGID_38_);}
	.st44{fill:url(#SVGID_39_);}
	.st45{fill:url(#SVGID_40_);}
	.st46{fill:#71716E;}
	.st47{fill:#908F87;}
	.st48{fill:url(#SVGID_41_);}
	.st49{fill:url(#SVGID_42_);}
	.st50{fill:url(#SVGID_43_);}
	.st51{fill:url(#SVGID_44_);}
	.st52{fill:none;}
	.st53{fill:url(#SVGID_45_);}
	.st54{fill:url(#SVGID_46_);}
	.st55{fill:url(#SVGID_47_);stroke:#6F7377;stroke-width:0.7;stroke-miterlimit:10;}
	.st56{fill:url(#SVGID_48_);}
</style>
<g transform="translate(-54.8,-6.5)">
	<linearGradient id="SVGID_1_" x1="519.86" x2="368.11" y1="255.85" y2="1064.2" gradientTransform="matrix(1,0,0,-1,0,1024)" gradientUnits="userSpaceOnUse">
		<stop stop-color="#2C2C47" offset=".06"/>
		<stop stop-color="#5D5A6B" offset=".23"/>
		<stop stop-color="#37383B" offset=".33"/>
		<stop stop-color="#6A72A1" offset=".51"/>
		<stop stop-color="#545B81" offset=".6"/>
		<stop stop-color="#696B78" offset=".73"/>
		<stop stop-color="#0F1217" offset=".93"/>
	</linearGradient>
	<path class="st0" d="m450.1 16.3c-210.1 0-380.3 170.2-380.3 380.3s170.2 380.3 380.3 380.3 380.3-170.4 380.3-380.3-170.4-380.3-380.3-380.3zm-1.6 673.4c-160.7 0-290.9-130.3-290.9-290.9 0-160.7 130.3-290.9 290.9-290.9s290.9 130.3 290.9 290.9c0 160.5-130.3 290.9-290.9 290.9z" fill="url(#SVGID_1_)"/>
</g>
<g id="circle" transform="translate(-54.8,-6.5)">
		<linearGradient id="SVGID_2_" x1="135.71" x2="781.79" y1="405.8" y2="856.1" gradientTransform="matrix(1,0,0,-1,0,1024)" gradientUnits="userSpaceOnUse">
		<stop stop-color="#B7BFBE" offset="0"/>
		<stop stop-color="#B9C1C2" offset=".18"/>
		<stop stop-color="#BDC1C4" offset=".38"/>
		<stop stop-color="#C3C6CC" offset=".65"/>
		<stop stop-color="#DCDDE0" offset="1"/>
	</linearGradient>
	<path class="st1" d="m448.5 6.5c-217.4 0-393.7 176.3-393.7 393.7s176.3 393.7 393.7 393.7 393.7-176.3 393.7-393.7-176.3-393.7-393.7-393.7zm-1.6 697.1c-166.3 0-301.1-134.8-301.1-301.3 0-166.3 134.8-301.1 301.1-301.1s301.1 134.8 301.1 301.1c0 166.5-134.8 301.3-301.1 301.3z" fill="url(#SVGID_2_)"/>
<ellipse cx="448.63" cy="399.5" rx="291" ry="292.78" fill="url(#linearGradient219)" fill-rule="evenodd" stroke-linecap="round" stroke-linejoin="round" stroke-width="3.7475" style="paint-order:markers fill stroke"/></g>
<g transform="translate(-54.8,-6.5)">
		<linearGradient id="SVGID_3_" x1="191.03" x2="524.33" y1="498.67" y2="477.57" gradientTransform="matrix(1,0,0,-1,0,1024)" gradientUnits="userSpaceOnUse">
		<stop stop-color="#070D3A" offset=".02"/>
		<stop stop-color="#0D123A" offset=".28"/>
		<stop stop-color="#30344C" offset=".45"/>
		<stop stop-color="#565867" offset=".56"/>
		<stop stop-color="#2C2E4A" offset=".61"/>
		<stop stop-color="#181940" offset=".99"/>
	</linearGradient>
	<path class="st2" d="m198.5 502.6 11.1-7.2 140.7-14.1s-20.7 64.5 29.7 83.5c12.5 5 82.8 23.2 130.7-80.3 5 49.7-42.2 144.8-153.8 106s-158.4-87.9-158.4-87.9z" fill="url(#SVGID_3_)"/>
	
		<linearGradient id="SVGID_4_" x1="441.96" x2="468.26" y1="585.01" y2="917.56" gradientTransform="matrix(1,0,0,-1,0,1024)" gradientUnits="userSpaceOnUse">
		<stop stop-color="#9A9F9B" offset=".05"/>
		<stop stop-color="#858B84" offset=".36"/>
		<stop stop-color="#6C746C" offset=".87"/>
		<stop stop-color="#666C6E" offset="1"/>
	</linearGradient>
	<polygon class="st3" points="348.7 134.7 659.1 123 677.4 111.2 332.1 118.7 234.3 415.6 249.7 403.8" fill="url(#SVGID_4_)"/>
	
		<linearGradient id="SVGID_5_" x1="414.74" x2="647.06" y1="795.32" y2="807.05" gradientTransform="matrix(1,0,0,-1,0,1024)" gradientUnits="userSpaceOnUse">
		<stop stop-color="#95989A" offset=".01"/>
		<stop stop-color="#C2C2C0" offset=".36"/>
		<stop stop-color="#929595" offset=".66"/>
		<stop stop-color="#7F8282" offset="1"/>
	</linearGradient>
	<polygon class="st4" points="425.1 219.2 433.3 231 651.1 225.7 637.2 209.6" fill="url(#SVGID_5_)"/>
	
		<linearGradient id="SVGID_6_" x1="407.45" x2="415.31" y1="705.19" y2="804.8" gradientTransform="matrix(1,0,0,-1,0,1024)" gradientUnits="userSpaceOnUse">
		<stop stop-color="#8F9498" offset=".01"/>
		<stop stop-color="#9EA2A6" offset=".1"/>
		<stop stop-color="#CACFD2" offset=".36"/>
		<stop stop-color="#BFC2C3" offset=".66"/>
		<stop stop-color="#BBBCBD" offset=".86"/>
	</linearGradient>
	<polygon class="st5" points="388.8 315.3 411 295.2 433.3 231 423.3 216.4" fill="url(#SVGID_6_)"/>
	<polygon class="st6" points="234.3 415.6 352.7 420.6 348 407 249.7 403.8"/>
		<linearGradient id="SVGID_7_" x1="314.7" x2="548.8" y1="527.07" y2="567.76" gradientTransform="matrix(1,0,0,-1,0,1024)" gradientUnits="userSpaceOnUse">
		<stop stop-color="#EAEDEE" offset=".02"/>
		<stop stop-color="#A0ABAB" offset=".24"/>
		<stop stop-color="#667173" offset=".39"/>
		<stop stop-color="#65706E" offset=".65"/>
		<stop stop-color="#758282" offset=".86"/>
	</linearGradient>
	<path class="st7" d="m352.7 420.6s51.1-55.1 112.8-37.9 44.9 90.7 44.9 90.7-5 88.5-97.6 103.5c-5.4 0.7-82.1 15.2-76-87.8l-13.2 16.5s-22.9 135.9 131.6 77.1c11.8-5 125.5-93.9 65.3-172.4-20.7-32.5-59.2-87.4-179.3-10 3.4 3.8 11.5 20.3 11.5 20.3z" fill="url(#SVGID_7_)"/>
	<polygon class="st8" points="198.5 502.6 336.8 489.1 323.5 505.5 208.6 513.2"/>
	<polygon class="st9" points="198.5 502.6 203.5 499.1 342.8 485.8 336.8 489.1"/>
		<linearGradient id="SVGID_8_" x1="489.71" x2="376.49" y1="337.87" y2="719.52" gradientTransform="matrix(1,0,0,-1,0,1024)" gradientUnits="userSpaceOnUse">
		<stop stop-color="#898886" offset=".05"/>
		<stop stop-color="#8F9498" offset=".31"/>
		<stop stop-color="#778486" offset=".49"/>
		<stop stop-color="#fff" offset=".68"/>
		<stop stop-color="#FCFCFC" offset=".72"/>
		<stop stop-color="#F3F3F3" offset=".75"/>
		<stop stop-color="#E4E4E4" offset=".77"/>
		<stop stop-color="#CFCFCE" offset=".79"/>
		<stop stop-color="#B3B4B1" offset=".82"/>
		<stop stop-color="#92928F" offset=".83"/>
		<stop stop-color="#767773" offset=".85"/>
		<stop stop-color="#707272" offset="1"/>
	</linearGradient>
	<path class="st10" d="m396.3 307.7 14.7-12.5s122.3-43.8 205.8 44.3c13.2 15.6 69.6 80.6 17.9 197.6-6.4 12.9-52.2 121.4-205.6 142-12.7 1.1-126.6 17.9-199-72.4-8.9-14.3-29.7-41.7-31.5-104.1 26.1 27 10 10.5 10 10.5s-2.6 88.6 67.4 116.9c49.4 23.2 142.9 72.8 292.4-27.9 13.8-12.9 77.4-25.9 57-224.8-8.2-12.5-91.7-114.8-228.7-61.3-4.3 0-0.4-8.3-0.4-8.3z" fill="url(#SVGID_8_)"/>
		<linearGradient id="SVGID_9_" x1="645.97" x2="666.68" y1="803.84" y2="913.32" gradientTransform="matrix(1,0,0,-1,0,1024)" gradientUnits="userSpaceOnUse">
		<stop stop-color="#fff" offset=".02"/>
		<stop stop-color="#fff" offset=".99"/>
	</linearGradient>
	<polygon class="st11" points="677.4 111.2 651.1 225.7 637.2 209.6 659.1 123" fill="url(#SVGID_9_)"/>
		<linearGradient id="SVGID_10_" x1="287.42" x2="628.21" y1="355.85" y2="945.84" gradientTransform="matrix(1,0,0,-1,0,1024)" gradientUnits="userSpaceOnUse">
		<stop stop-color="#C3C6CC" offset="0"/>
		<stop stop-color="#E8E9EC" offset=".39"/>
		<stop stop-color="#F2F2F5" offset=".61"/>
		<stop stop-color="#D0D3D7" offset=".97"/>
	</linearGradient>
	<path class="st12" d="m205 509.1 123.2-9.5c-0.4 5-0.5 8.8-0.5 11.4 0 25.6 6.8 42.4 20.2 55.3s30.8 19.3 52.2 19.3c30 0 57.2-9.8 81.9-34.3s36.8-58.6 36.8-101.9c0-25.7-7-44-20.7-57-13.8-13.1-32.2-19.7-55.3-19.7-16.4 0-32.7 3.3-47.7 9.8-15.6 6.4-30.4 17.2-44.9 30.4l-106-4.8 92.8-283.4 332-7.7-22.7 100.7-220.1 5.2-28.4 85.6c75.3-36.3 167.5-8.6 203.5 26.1 69.2 66.7 46.1 161.8 19.3 214.2s-97.8 124.8-225.8 125.5c-54.9 0.4-100.1-15.2-135.7-45.8s-53.6-68.3-54.1-119.4z" fill="url(#SVGID_10_)"/>
</g>
</svg>
