<?xml version="1.0" standalone="no"?>
<!DOCTYPE svg PUBLIC "-//W3C//DTD SVG 20010904//EN"
 "http://www.w3.org/TR/2001/REC-SVG-20010904/DTD/svg10.dtd">
<svg version="1.0" xmlns="http://www.w3.org/2000/svg"
 width="600.000000pt" height="63.000000pt" viewBox="0 0 600.000000 63.000000"
 preserveAspectRatio="xMidYMid meet">

<g transform="translate(0.000000,63.000000) scale(0.100000,-0.100000)"
fill="#0e2136" stroke="none">
<path d="M0 618 c1 -7 42 -148 93 -313 l92 -300 61 -3 62 -3 20 78 c12 43 31
117 43 165 13 48 25 85 28 82 3 -3 24 -76 47 -162 l40 -157 62 -3 61 -3 30 98
c16 54 57 188 91 298 33 110 63 208 66 218 5 15 -3 17 -73 17 l-78 0 -44 -167
c-24 -93 -46 -174 -50 -180 -4 -7 -27 68 -51 167 l-44 180 -58 0 -57 0 -10
-37 c-5 -21 -24 -94 -41 -163 -17 -69 -34 -133 -38 -143 -5 -13 -19 27 -46
129 -21 81 -43 163 -48 181 l-9 33 -74 0 c-54 0 -75 -4 -75 -12z"/>
<path d="M1890 555 c0 -73 -1 -75 -25 -75 -24 0 -25 -2 -25 -65 0 -63 1 -65
25 -65 l25 0 0 -175 0 -175 75 0 75 0 0 175 0 175 30 0 30 0 0 65 0 65 -30 0
-30 0 0 75 0 75 -75 0 -75 0 0 -75z"/>
<path d="M2130 315 l0 -315 70 0 70 0 0 148 c0 98 4 155 13 172 24 48 104 52
129 7 8 -14 14 -78 16 -175 l4 -152 69 0 69 0 0 158 c-1 211 -12 253 -83 306
-32 24 -140 34 -187 18 l-30 -11 0 80 0 79 -70 0 -70 0 0 -315z"/>
<path d="M3430 315 l0 -315 70 0 70 0 2 195 3 195 110 -195 110 -195 78 0 77
0 0 315 0 315 -70 0 -70 0 -2 -195 -3 -194 -109 194 -110 195 -78 0 -78 0 0
-315z"/>
<path d="M4590 555 c0 -73 -1 -75 -25 -75 -24 0 -25 -2 -25 -65 0 -63 1 -65
25 -65 l25 0 0 -175 0 -175 75 0 75 0 0 175 0 175 30 0 30 0 0 65 0 65 -30 0
-30 0 0 75 0 75 -75 0 -75 0 0 -75z"/>
<path d="M4830 570 l0 -60 70 0 70 0 0 60 0 60 -70 0 -70 0 0 -60z"/>
<path d="M923 483 c-121 -42 -190 -187 -151 -317 17 -56 100 -141 153 -155
101 -27 208 -7 273 53 21 18 62 86 62 101 0 3 -35 5 -78 5 -66 0 -82 -3 -97
-20 -27 -30 -105 -28 -142 5 l-28 24 173 1 172 0 0 68 c0 183 -164 297 -337
235z m175 -147 l27 -26 -103 0 c-62 0 -102 4 -102 10 0 6 15 19 33 31 44 28
110 21 145 -15z"/>
<path d="M1447 486 c-100 -36 -157 -123 -157 -240 1 -111 45 -186 135 -227 55
-25 158 -25 208 0 29 15 37 16 37 5 0 -11 16 -14 65 -14 l65 0 0 240 0 240
-65 0 c-50 0 -65 -3 -65 -15 0 -11 -8 -11 -42 5 -50 23 -126 25 -181 6z m161
-136 c67 -41 78 -135 22 -192 -24 -23 -37 -28 -80 -28 -46 0 -56 4 -86 34 -28
28 -34 42 -34 76 0 52 24 95 64 114 42 21 75 20 114 -4z"/>
<path d="M2753 483 c-121 -42 -190 -187 -151 -317 17 -56 100 -141 153 -155
101 -27 208 -7 273 53 21 18 62 86 62 101 0 3 -35 5 -78 5 -66 0 -82 -3 -97
-20 -27 -30 -105 -28 -142 5 l-28 24 173 1 172 0 0 68 c0 183 -164 297 -337
235z m175 -147 l27 -26 -103 0 c-62 0 -102 4 -102 10 0 6 15 19 33 31 44 28
110 21 145 -15z"/>
<path d="M3292 484 c-12 -8 -22 -10 -22 -5 0 7 -25 11 -60 11 l-60 0 0 -240 0
-240 64 0 64 0 4 154 c3 170 10 188 69 200 29 5 29 7 29 71 l0 65 -33 0 c-18
0 -43 -7 -55 -16z"/>
<path d="M4147 486 c-100 -36 -157 -123 -157 -240 1 -111 45 -186 135 -227 55
-25 158 -25 208 0 29 15 37 16 37 5 0 -11 16 -14 65 -14 l65 0 0 240 0 240
-65 0 c-50 0 -65 -3 -65 -15 0 -11 -8 -11 -42 5 -50 23 -126 25 -181 6z m161
-136 c67 -41 78 -135 22 -192 -24 -23 -37 -28 -80 -28 -46 0 -56 4 -86 34 -28
28 -34 42 -34 76 0 52 24 95 64 114 42 21 75 20 114 -4z"/>
<path d="M5190 491 c-74 -24 -139 -82 -166 -147 -20 -48 -17 -151 5 -199 42
-94 125 -145 236 -145 152 0 254 99 255 248 0 102 -46 178 -135 224 -43 23
-152 33 -195 19z m158 -166 c26 -28 32 -43 32 -79 0 -37 -6 -51 -34 -80 -29
-32 -39 -36 -81 -36 -42 0 -52 4 -81 36 -45 47 -47 106 -7 154 52 62 117 64
171 5z"/>
<path d="M5733 486 c-18 -8 -33 -11 -33 -6 0 6 -31 10 -70 10 l-70 0 0 -240 0
-240 69 0 69 0 3 149 c4 133 6 153 25 178 36 48 105 44 123 -8 6 -18 11 -97
11 -175 l0 -144 71 0 71 0 -4 188 c-3 176 -4 189 -26 225 -13 21 -38 45 -55
54 -44 22 -144 27 -184 9z"/>
<path d="M4830 240 l0 -240 70 0 70 0 0 240 0 240 -70 0 -70 0 0 -240z"/>
</g>
</svg>
