<?xml version="1.0" encoding="UTF-8"?><svg id="Layer_2" xmlns="http://www.w3.org/2000/svg" viewBox="0 0 310.24 94.48"><defs><style>.cls-1{fill:#f4a822;}.cls-1,.cls-2{stroke-width:0px;}.cls-2{fill:#053e74;}</style></defs><g id="Layer_1-2"><path class="cls-2" d="m0,1.26h15.97l1.01,31.36L35.79,1.1h13.78l1.75,32L69.64,1.26h16.64l-33.4,55.22h-13.82l-2.49-31.07-19.32,31.17H3.5L0,1.26Z"/><path class="cls-2" d="m92.23,1.26h44.57l-3.57,13.02h-28.98l-2.26,8.09h26.28l-3.3,12.35-26.29-.17-2.32,8.53,29.5.02-3.28,13.1h-44.96L92.23,1.26Z"/><path class="cls-2" d="m162.37,57.46c-3.87,0-7.4-.57-10.61-1.7-3.21-1.13-5.97-2.75-8.3-4.85-2.33-2.1-4.14-4.64-5.44-7.62-1.3-2.97-1.95-6.3-1.95-9.98,0-4.1.81-8.14,2.42-12.11,1.61-3.97,3.92-7.52,6.91-10.65,2.99-3.13,6.63-5.67,10.92-7.62,4.29-1.95,9.11-2.92,14.46-2.92,5.72,0,10.49,1.26,14.3,3.79,3.81,2.53,6.57,5.92,8.26,10.18l-13.35,7.1c-1.11-2.26-2.57-4.01-4.37-5.25-1.8-1.24-4.08-1.85-6.83-1.85-2.33,0-4.5.5-6.51,1.5-2.01,1-3.76,2.34-5.24,4.03-1.48,1.68-2.66,3.62-3.54,5.8-.87,2.18-1.31,4.49-1.31,6.91,0,3.53,1.05,6.3,3.14,8.33,2.09,2.03,4.75,3.04,7.98,3.04,2.44,0,4.58-.49,6.43-1.46,1.85-.97,3.68-2.35,5.48-4.14l10.41,9.16c-2.7,3.05-5.93,5.54-9.69,7.46-3.76,1.92-8.29,2.88-13.58,2.88Z"/><path class="cls-2" d="m213.46,14.77h-16.68l3.65-13.42h48.7l-3.57,13.42h-16.68l-11.2,41.41h-15.49l11.28-41.41Z"/><path class="cls-2" d="m100.88,62.57l6.03.06,8.16,17.93,4.88-17.99,6.33.06-7.65,28.3h-5.33l-8.63-18.56-5,18.56-6.44-.06,7.65-28.3Z"/><path class="cls-2" d="m133.22,62.6h21.5l-1.51,5.54h-15.06l-1.55,5.78h13.22l-1.51,5.46h-13.22l-1.63,5.98h15.3l-1.51,5.54h-21.7l7.65-28.3Z"/><path class="cls-2" d="m157.92,62.57h6.51l.73,19.16,11.47-19.24h5.37l1.3,19.24,11.07-19.16h7.08l-17.42,28.5h-5.82l-1.38-18.15-11.15,18.15h-5.74l-2.03-28.5Z"/><path class="cls-2" d="m210.07,91.07c-5.56,0-9.7-1.74-12.41-5.21l4.72-3.96c1.14,1.21,2.35,2.14,3.62,2.77,1.27.63,2.73.95,4.35.95,1.27,0,2.32-.27,3.13-.81.81-.54,1.22-1.25,1.22-2.14,0-.35-.07-.67-.22-.95-.15-.28-.41-.57-.77-.85s-.86-.58-1.49-.89c-.62-.31-1.41-.65-2.36-1.03-.92-.38-1.8-.79-2.64-1.23-.84-.44-1.59-.97-2.24-1.58-.65-.61-1.17-1.3-1.55-2.08-.38-.78-.57-1.7-.57-2.75,0-1.46.31-2.76.92-3.9.61-1.15,1.43-2.12,2.46-2.93,1.03-.81,2.23-1.43,3.6-1.86,1.37-.43,2.81-.65,4.33-.65,2.47,0,4.56.38,6.27,1.13,1.71.75,3.17,1.78,4.39,3.07l-4.31,4.29c-1.09-1-2.15-1.75-3.19-2.26-1.04-.51-2.26-.77-3.64-.77s-2.35.3-3.07.91c-.72.61-1.08,1.26-1.08,1.96,0,.38.08.71.24.99.16.28.43.56.81.83.38.27.89.55,1.53.85.64.3,1.44.65,2.42,1.05.98.4,1.88.84,2.71,1.29.83.46,1.55.98,2.16,1.58.61.59,1.09,1.28,1.44,2.06.35.78.53,1.68.53,2.71,0,1.48-.31,2.81-.94,3.98-.62,1.17-1.45,2.16-2.48,2.97-1.03.81-2.23,1.42-3.6,1.84-1.37.42-2.8.63-4.29.63Z"/><path class="cls-1" d="m301.73,38.43c-4.67-3.49-9.95-4.02-13.26-4.36-5.87-.59-10.64.49-13.47,1.35,3.87-3.56,8.35-7.55,13.88-11.1,7.21-4.63,13.99-8.17,19.6-11.11.56-.29.99-.79,1.19-1.39.36-1.05.71-2.79.06-4.58-.58-1.6-1.67-2.66-3.2-3.06-.79-.21-1.62-.2-2.41-.02-12.28,2.71-36.28,9.57-55,26.91-7.54,6.98-11.64,13.59-15.24,20.84-2.97,5.99-5.64,15.97-3.24,24.79.49,1.81,2.48,8.31,9.42,12.91,2.02,1.34,6.97,3.54,13.02,4.41,16.38,2.35,29.68-4.83,30.92-5.55,3.29-1.89,24.95-11.54,26.23-33.76.08-1.42-1.1-10.74-8.51-16.28Zm-16.18,25.51c-.54,1.69-6.63,20.07-19.65,22.79-1.12.23-5.26.6-8.22-1.94-2.39-2.06-2.85-5.07-3.21-7.39-.69-4.52.32-8.08,1.1-10.73,2.33-7.94,6.95-12.81,9.32-15.24,1.95-2.01,3.28-2.94,4.38-3.58,1.25-.72,5.12-2.77,9.57-2.41,1.72.14,4.17.53,6.01,2.72.99,1.18,1.29,2.5,1.49,3.89.92,6.55-.78,11.9-.78,11.9Z"/></g></svg>