<?xml version="1.0" encoding="UTF-8" standalone="no"?>
<svg
   width="285.64429mm"
   height="158.72238mm"
   viewBox="0 0 285.64428 158.72238"
   version="1.1"
   id="svg986"
   inkscape:version="1.1 (c68e22c387, 2021-05-23)"
   sodipodi:docname="WEYI_25_2015.svg"
   xmlns:inkscape="http://www.inkscape.org/namespaces/inkscape"
   xmlns:sodipodi="http://sodipodi.sourceforge.net/DTD/sodipodi-0.dtd"
   xmlns:xlink="http://www.w3.org/1999/xlink"
   xmlns="http://www.w3.org/2000/svg"
   xmlns:svg="http://www.w3.org/2000/svg"
   xmlns:rdf="http://www.w3.org/1999/02/22-rdf-syntax-ns#"
   xmlns:cc="http://creativecommons.org/ns#"
   xmlns:dc="http://purl.org/dc/elements/1.1/">
  <defs
     id="defs980">
    <linearGradient
       inkscape:collect="always"
       id="linearGradient18892">
      <stop
         style="stop-color:#f2f2f2;stop-opacity:1;"
         offset="0"
         id="stop18888" />
      <stop
         style="stop-color:#f2f2f2;stop-opacity:0;"
         offset="1"
         id="stop18890" />
    </linearGradient>
    <linearGradient
       inkscape:collect="always"
       id="linearGradient9014">
      <stop
         style="stop-color:#c6c8c9;stop-opacity:1;"
         offset="0"
         id="stop9010" />
      <stop
         style="stop-color:#e0dfe2;stop-opacity:1"
         offset="1"
         id="stop9012" />
    </linearGradient>
    <linearGradient
       gradientTransform="matrix(2.8704,0,0,-2.7863,-584.296,1330.9348)"
       y2="393.9725"
       x2="255.2972"
       y1="385.17969"
       x1="249.0166"
       gradientUnits="userSpaceOnUse"
       id="path3122-4_1_">
      <stop
         id="stop85"
         style="stop-color:#000000"
         offset="0" />
      <stop
         id="stop87"
         style="stop-color:#000000;stop-opacity:0"
         offset="1" />
    </linearGradient>
    <linearGradient
       id="linearGradient239"
       gradientUnits="userSpaceOnUse"
       x1="151.5981"
       y1="7.9751"
       x2="-13.4019"
       y2="-46.024899"
       gradientTransform="matrix(-1.849,0,0,1.849,598.9467,302.3707)">
      <stop
         offset="0"
         style="stop-color:#3c994a;stop-opacity:1"
         id="stop235" />
      <stop
         id="stop1246"
         style="stop-color:#45aa4e;stop-opacity:1;"
         offset="0.29527879" />
      <stop
         offset="1"
         style="stop-color:#4db852;stop-opacity:1"
         id="stop237" />
    </linearGradient>
    <linearGradient
       gradientTransform="matrix(2.8704,0,0,-2.7863,-584.296,1330.9348)"
       y2="364.88821"
       x2="243.59219"
       y1="339.5488"
       x1="211.707"
       gradientUnits="userSpaceOnUse"
       id="path6995-6_1_">
      <stop
         id="stop127"
         style="stop-color:#000000"
         offset="0" />
      <stop
         id="stop129"
         style="stop-color:#000000;stop-opacity:0.1922"
         offset="0.5056" />
      <stop
         id="stop131"
         style="stop-color:#000000;stop-opacity:0.0667"
         offset="0.6912" />
      <stop
         id="stop133"
         style="stop-color:#000000;stop-opacity:0"
         offset="1" />
    </linearGradient>
    <linearGradient
       gradientTransform="matrix(1.849,0,0,1.849,-18.6264,302.3707)"
       y2="-85.7463"
       x2="140.54849"
       y1="-186.0815"
       x1="129.041"
       gradientUnits="userSpaceOnUse"
       id="linearGradient1615">
      <stop
         id="stop1611"
         style="stop-color:#ffffff;stop-opacity:1"
         offset="0" />
      <stop
         id="stop1613"
         style="stop-color:#FFFFFF;stop-opacity:0"
         offset="1" />
    </linearGradient>
    <linearGradient
       gradientTransform="matrix(1.849,0,0,1.849,-18.6264,302.3707)"
       y2="-85.7463"
       x2="140.54849"
       y1="-186.0815"
       x1="129.041"
       gradientUnits="userSpaceOnUse"
       id="linearGradient1694">
      <stop
         id="stop1690"
         style="stop-color:#ffffff;stop-opacity:0"
         offset="0" />
      <stop
         id="stop1692"
         style="stop-color:#ffffff;stop-opacity:1"
         offset="1" />
    </linearGradient>
    <linearGradient
       id="linearGradient1571-4">
      <stop
         style="stop-color:#fbae01;stop-opacity:1"
         offset="0"
         id="stop1567-5" />
      <stop
         style="stop-color:#ef9f04;stop-opacity:1"
         offset="0.41010419"
         id="stop1573-8" />
      <stop
         style="stop-color:#bf8b2d;stop-opacity:1"
         offset="0.78879172"
         id="stop1575-1" />
      <stop
         style="stop-color:#bb8826;stop-opacity:0.98823529"
         offset="1"
         id="stop1569-6" />
    </linearGradient>
    <linearGradient
       gradientTransform="matrix(-1.849,0,0,1.849,598.9467,302.3707)"
       y2="-46.024899"
       x2="-13.4019"
       y1="7.9751"
       x1="151.5981"
       gradientUnits="userSpaceOnUse"
       id="linearGradient1188-1">
      <stop
         id="stop1184-1"
         style="stop-color:#f7ce35;stop-opacity:1"
         offset="0" />
      <stop
         id="stop1186-4"
         style="stop-color:#f5ea3a;stop-opacity:1"
         offset="1" />
    </linearGradient>
    <linearGradient
       gradientTransform="matrix(-1.849,0,0,1.849,598.2084,302.3707)"
       y2="-71.183502"
       x2="86.292999"
       y1="-143.23"
       x1="91.778801"
       gradientUnits="userSpaceOnUse"
       id="linearGradient1657-6">
      <stop
         id="stop1653-8"
         style="stop-color:#274d94;stop-opacity:1"
         offset="0" />
      <stop
         id="stop78960"
         style="stop-color:#294e93;stop-opacity:1;"
         offset="0.15528683" />
      <stop
         id="stop72035"
         style="stop-color:#4f6ea6;stop-opacity:1"
         offset="0.18470243" />
      <stop
         id="stop1655-3"
         style="stop-color:#3075af;stop-opacity:0.47580642"
         offset="1" />
    </linearGradient>
    <linearGradient
       gradientTransform="matrix(2.8704,0,0,-2.7863,-584.296,1330.9348)"
       y2="364.8862"
       x2="370.944"
       y1="339.54691"
       x1="402.8291"
       gradientUnits="userSpaceOnUse"
       id="linearGradient1903-9">
      <stop
         id="stop1895-2"
         style="stop-color:#9c1415;stop-opacity:1"
         offset="0" />
      <stop
         id="stop1901-1"
         style="stop-color:#9c1415;stop-opacity:0"
         offset="1" />
    </linearGradient>
    <linearGradient
       inkscape:collect="always"
       xlink:href="#linearGradient1747-4"
       id="linearGradient3939-3"
       gradientUnits="userSpaceOnUse"
       x1="86.97821"
       y1="113.13853"
       x2="79.461472"
       y2="124.0693"
       gradientTransform="matrix(0.43210451,0,0,0.43463676,-0.11603807,21.704273)" />
    <linearGradient
       inkscape:collect="always"
       id="linearGradient1747-4">
      <stop
         style="stop-color:#fe4004;stop-opacity:1"
         offset="0"
         id="stop1743-5" />
      <stop
         style="stop-color:#f13c0c;stop-opacity:1"
         offset="0.42300352"
         id="stop1749-6" />
      <stop
         style="stop-color:#da4a1e;stop-opacity:1"
         offset="1"
         id="stop1745-7" />
    </linearGradient>
    <linearGradient
       inkscape:collect="always"
       xlink:href="#linearGradient1909-0"
       id="linearGradient3936-4"
       gradientUnits="userSpaceOnUse"
       x1="114.44341"
       y1="87.163055"
       x2="107.84511"
       y2="89.904724"
       gradientTransform="matrix(0.43210451,0,0,0.43463676,-0.11603807,21.704273)" />
    <linearGradient
       inkscape:collect="always"
       id="linearGradient1909-0">
      <stop
         style="stop-color:#da0000;stop-opacity:1"
         offset="0"
         id="stop1905-6" />
      <stop
         style="stop-color:#a60d0c;stop-opacity:1"
         offset="1"
         id="stop1907-9" />
    </linearGradient>
    <linearGradient
       inkscape:collect="always"
       xlink:href="#linearGradient3232-4"
       id="linearGradient3933-1"
       gradientUnits="userSpaceOnUse"
       x1="188.7354"
       y1="88.552826"
       x2="201.55429"
       y2="94.166626"
       gradientTransform="matrix(0.43210451,0,0,0.43463676,-0.11603807,21.704273)" />
    <linearGradient
       inkscape:collect="always"
       id="linearGradient3232-4">
      <stop
         style="stop-color:#3d004e;stop-opacity:1"
         offset="0"
         id="stop3234-4" />
      <stop
         style="stop-color:#270f33;stop-opacity:1"
         offset="1"
         id="stop3236-5" />
    </linearGradient>
    <linearGradient
       inkscape:collect="always"
       xlink:href="#linearGradient1733-4"
       id="linearGradient3930-6"
       gradientUnits="userSpaceOnUse"
       x1="219.13805"
       y1="114.9485"
       x2="228.91669"
       y2="129.12967"
       gradientTransform="matrix(0.43210451,0,0,0.43463676,-0.11603807,21.704273)" />
    <linearGradient
       inkscape:collect="always"
       id="linearGradient1733-4">
      <stop
         style="stop-color:#18317f;stop-opacity:1"
         offset="0"
         id="stop1729-8" />
      <stop
         style="stop-color:#182e57;stop-opacity:1"
         offset="0.53717446"
         id="stop1735-1" />
      <stop
         style="stop-color:#182e57;stop-opacity:1"
         offset="1"
         id="stop1731-1" />
    </linearGradient>
    <linearGradient
       inkscape:collect="always"
       xlink:href="#linearGradient1563"
       id="linearGradient3927-3"
       gradientUnits="userSpaceOnUse"
       x1="235.37724"
       y1="152.07179"
       x2="235.37724"
       y2="178.93208"
       gradientTransform="matrix(0.43210451,0,0,0.43463676,-0.11603807,21.704273)" />
    <linearGradient
       inkscape:collect="always"
       id="linearGradient1563">
      <stop
         style="stop-color:#2b9344;stop-opacity:1;"
         offset="0"
         id="stop1559" />
      <stop
         style="stop-color:#195728;stop-opacity:1;"
         offset="0.53942889"
         id="stop1565" />
      <stop
         style="stop-color:black;stop-opacity:1"
         offset="1"
         id="stop1561" />
    </linearGradient>
    <linearGradient
       inkscape:collect="always"
       xlink:href="#path3122-4_1_"
       id="linearGradient1462-1"
       gradientUnits="userSpaceOnUse"
       gradientTransform="matrix(0.43210451,0,0,0.43463676,-0.11603807,21.704273)"
       x1="18.216105"
       y1="96.520477"
       x2="49.876656"
       y2="87.799942" />
    <linearGradient
       inkscape:collect="always"
       xlink:href="#linearGradient1571-4"
       id="linearGradient3924-3"
       gradientUnits="userSpaceOnUse"
       x1="58.281849"
       y1="151.31172"
       x2="58.281849"
       y2="173.28642"
       gradientTransform="matrix(0.43210451,0,0,0.43463676,-0.11603807,21.704273)" />
    <linearGradient
       inkscape:collect="always"
       xlink:href="#linearGradient1755-4"
       id="linearGradient3921-1"
       gradientUnits="userSpaceOnUse"
       x1="312.26254"
       y1="18.67243"
       x2="303.39594"
       y2="42.957924"
       gradientTransform="matrix(1.2596543,0,0,1.2670361,-337.35249,22.604611)" />
    <linearGradient
       inkscape:collect="always"
       id="linearGradient1755-4">
      <stop
         style="stop-color:#fe6413;stop-opacity:1"
         offset="0"
         id="stop1751-1" />
      <stop
         style="stop-color:#f4612e;stop-opacity:1"
         offset="1"
         id="stop1753-4" />
    </linearGradient>
    <linearGradient
       inkscape:collect="always"
       xlink:href="#linearGradient1694"
       id="linearGradient1784-7"
       gradientUnits="userSpaceOnUse"
       gradientTransform="matrix(1.2596543,0,0,1.2670361,-337.35249,22.644112)"
       x1="283.96875"
       y1="22.519506"
       x2="282.46445"
       y2="20.562983" />
    <linearGradient
       inkscape:collect="always"
       xlink:href="#linearGradient1188-1"
       id="linearGradient3915-9"
       gradientUnits="userSpaceOnUse"
       x1="303.38232"
       y1="48.511311"
       x2="275.15247"
       y2="40.454926"
       gradientTransform="matrix(1.2596543,0,0,1.2670361,-337.35249,22.604611)" />
    <linearGradient
       inkscape:collect="always"
       xlink:href="#linearGradient3889"
       id="linearGradient3906-0"
       gradientUnits="userSpaceOnUse"
       x1="331.80984"
       y1="-4.6979122"
       x2="329.51175"
       y2="27.29867"
       gradientTransform="matrix(1.2596543,0,0,1.2670361,-337.3525,22.604611)" />
    <linearGradient
       inkscape:collect="always"
       id="linearGradient3889">
      <stop
         style="stop-color:white;stop-opacity:1;"
         offset="0"
         id="stop3891" />
      <stop
         style="stop-color:white;stop-opacity:0;"
         offset="1"
         id="stop3893" />
    </linearGradient>
    <radialGradient
       inkscape:collect="always"
       xlink:href="#linearGradient2233-7"
       id="radialGradient2223-6"
       cx="92.636932"
       cy="28.08198"
       fx="92.636932"
       fy="28.08198"
       r="3.1373298"
       gradientTransform="matrix(4.2840639,0,0,4.4299951,-317.69983,-82.393344)"
       gradientUnits="userSpaceOnUse" />
    <linearGradient
       inkscape:collect="always"
       id="linearGradient2233-7">
      <stop
         style="stop-color:#5c0866;stop-opacity:1"
         offset="0"
         id="stop2225-7" />
      <stop
         style="stop-color:#640e6d;stop-opacity:1"
         offset="0.82717925"
         id="stop2227-5" />
      <stop
         style="stop-color:#782380;stop-opacity:1"
         offset="0.90730929"
         id="stop2229-2" />
      <stop
         style="stop-color:#5f2e6a;stop-opacity:1"
         offset="1"
         id="stop2231-0" />
    </linearGradient>
    <linearGradient
       inkscape:collect="always"
       xlink:href="#linearGradient239"
       id="linearGradient4079-8-7"
       gradientUnits="userSpaceOnUse"
       gradientTransform="matrix(-0.3758216,0,0,0.3854487,127.44401,87.326985)"
       x1="92.635849"
       y1="-13.578685"
       x2="15.041169"
       y2="-38.037052" />
    <linearGradient
       inkscape:collect="always"
       xlink:href="#linearGradient1657-6"
       id="linearGradient79430"
       x1="103.70117"
       y1="329.26855"
       x2="90.593582"
       y2="327.42975"
       gradientUnits="userSpaceOnUse"
       gradientTransform="matrix(1.2095236,0,0,1.2095236,-43.785563,-329.2242)" />
    <radialGradient
       inkscape:collect="always"
       xlink:href="#linearGradient1657-6"
       id="radialGradient1659-1"
       cx="37.720089"
       cy="23.705772"
       fx="37.720089"
       fy="23.705772"
       r="4.7880268"
       gradientTransform="matrix(13.879288,0,0,11.735044,-422.8837,-224.00173)"
       gradientUnits="userSpaceOnUse" />
    <linearGradient
       inkscape:collect="always"
       xlink:href="#path6995-6_1_"
       id="linearGradient1522-5"
       gradientUnits="userSpaceOnUse"
       gradientTransform="matrix(0.43210451,0,0,0.43463676,-0.11603807,21.704273)"
       x1="20.817892"
       y1="194.39902"
       x2="68.237541"
       y2="160.53584" />
    <linearGradient
       inkscape:collect="always"
       xlink:href="#path6995-6_1_"
       id="linearGradient1556-9"
       gradientUnits="userSpaceOnUse"
       gradientTransform="matrix(-0.43210451,0,0,0.43463676,130.37982,21.913031)"
       x1="20.817892"
       y1="194.39902"
       x2="68.237541"
       y2="160.53584" />
    <linearGradient
       inkscape:collect="always"
       xlink:href="#linearGradient1615"
       id="linearGradient1608-6"
       gradientUnits="userSpaceOnUse"
       gradientTransform="matrix(0.43210451,0,0,0.43463676,-0.11603807,21.704273)"
       x1="25.603462"
       y1="120.32082"
       x2="29.407476"
       y2="124.26648" />
    <linearGradient
       inkscape:collect="always"
       xlink:href="#linearGradient1615"
       id="linearGradient1608-9-5"
       gradientUnits="userSpaceOnUse"
       gradientTransform="matrix(-0.43210451,0,0,0.43463676,131.14058,21.913031)"
       x1="25.603462"
       y1="120.32082"
       x2="29.407476"
       y2="124.26648" />
    <linearGradient
       inkscape:collect="always"
       xlink:href="#linearGradient1615"
       id="linearGradient1727-5"
       x1="40.169186"
       y1="21.682194"
       x2="39.688728"
       y2="22.170431"
       gradientUnits="userSpaceOnUse"
       gradientTransform="matrix(3.7747234,0,0,3.7237789,-40.05812,-33.012316)" />
    <linearGradient
       inkscape:collect="always"
       xlink:href="#linearGradient1615"
       id="linearGradient1814-6"
       gradientUnits="userSpaceOnUse"
       x1="38.264183"
       y1="20.412193"
       x2="37.995392"
       y2="21.323765"
       gradientTransform="matrix(3.7747234,0,0,3.7237789,-40.05812,-33.012316)" />
    <radialGradient
       inkscape:collect="always"
       xlink:href="#linearGradient1859-4"
       id="radialGradient1853-6"
       cx="806.91302"
       cy="261.95947"
       fx="806.91302"
       fy="261.95947"
       r="29.730154"
       gradientTransform="matrix(0.42636655,0,0,0.44094163,-292.56114,-74.287567)"
       gradientUnits="userSpaceOnUse" />
    <linearGradient
       inkscape:collect="always"
       id="linearGradient1859-4">
      <stop
         style="stop-color:#f00409;stop-opacity:1"
         offset="0"
         id="stop1855-3" />
      <stop
         style="stop-color:#ea111d;stop-opacity:1"
         offset="0.82717925"
         id="stop1863-4" />
      <stop
         style="stop-color:#db434e;stop-opacity:1"
         offset="1"
         id="stop1857-2" />
    </linearGradient>
    <linearGradient
       inkscape:collect="always"
       xlink:href="#linearGradient1903-9"
       id="linearGradient1892-2"
       gradientUnits="userSpaceOnUse"
       gradientTransform="matrix(0.43210451,0,0,0.43463676,-0.11603807,21.704273)"
       x1="145.18515"
       y1="95.197922"
       x2="137.16872"
       y2="94.079933" />
    <linearGradient
       inkscape:collect="always"
       xlink:href="#linearGradient2284"
       id="linearGradient2277-5"
       gradientUnits="userSpaceOnUse"
       gradientTransform="matrix(0.43210451,0,0,0.43463676,-0.11603807,21.704273)"
       x1="166.54678"
       y1="92.179764"
       x2="157.17708"
       y2="94.166626" />
    <linearGradient
       inkscape:collect="always"
       id="linearGradient2284">
      <stop
         style="stop-color:#5a2466;stop-opacity:0"
         offset="0"
         id="stop2280" />
      <stop
         style="stop-color:black;stop-opacity:1"
         offset="1"
         id="stop2282" />
    </linearGradient>
    <linearGradient
       inkscape:collect="always"
       xlink:href="#linearGradient9014"
       id="linearGradient9016"
       x1="916.9043"
       y1="-417.40234"
       x2="916.9043"
       y2="-257.99524"
       gradientUnits="userSpaceOnUse"
       gradientTransform="matrix(0.26458333,0,0,0.26458333,-125.80594,110.4377)" />
    <linearGradient
       inkscape:collect="always"
       id="linearGradient2290">
      <stop
         style="stop-color:#f5f5f5;stop-opacity:1"
         offset="0"
         id="stop2286" />
      <stop
         style="stop-color:#d2d7d2;stop-opacity:1"
         offset="0.10218534"
         id="stop2308" />
      <stop
         style="stop-color:#767678;stop-opacity:1"
         offset="0.43869287"
         id="stop2302" />
      <stop
         style="stop-color:#767678;stop-opacity:1"
         offset="0.57821637"
         id="stop2296" />
      <stop
         style="stop-color:#f9f9fa;stop-opacity:1"
         offset="0.69154108"
         id="stop2294" />
      <stop
         style="stop-color:#f9f9fa;stop-opacity:1"
         offset="0.70999813"
         id="stop2300" />
      <stop
         style="stop-color:#7d7d7f;stop-opacity:1"
         offset="0.88741899"
         id="stop2298" />
      <stop
         style="stop-color:#7f7f81;stop-opacity:1"
         offset="0.98652136"
         id="stop2312" />
      <stop
         style="stop-color:#808082;stop-opacity:1"
         offset="1"
         id="stop2288" />
    </linearGradient>
    <linearGradient
       inkscape:collect="always"
       xlink:href="#linearGradient2290"
       id="linearGradient16891"
       x1="916.9043"
       y1="34.980469"
       x2="1214.3481"
       y2="-417.40234"
       gradientUnits="userSpaceOnUse"
       gradientTransform="matrix(0.26458333,0,0,0.26458333,-125.80594,110.4377)" />
    <radialGradient
       inkscape:collect="always"
       xlink:href="#linearGradient18892"
       id="radialGradient18894"
       cx="1407.4867"
       cy="-111.94927"
       fx="1407.4867"
       fy="-111.94927"
       r="149.72627"
       gradientTransform="matrix(-0.02359029,0.02561126,-0.06836825,-0.06297335,273.51418,21.732932)"
       gradientUnits="userSpaceOnUse" />
    <radialGradient
       inkscape:collect="always"
       xlink:href="#linearGradient18892"
       id="radialGradient19581"
       gradientUnits="userSpaceOnUse"
       gradientTransform="matrix(-0.05325256,0.06095354,-0.06999917,-0.06115534,321.08528,-34.994094)"
       cx="1624.2079"
       cy="-371.93411"
       fx="1624.2079"
       fy="-371.93411"
       r="149.72627" />
    <radialGradient
       inkscape:collect="always"
       xlink:href="#linearGradient18892"
       id="radialGradient20238"
       gradientUnits="userSpaceOnUse"
       gradientTransform="matrix(-0.05325256,0.06095354,-0.06999917,-0.06115534,321.08528,-34.994094)"
       cx="2215.6885"
       cy="-49.85635"
       fx="2215.6885"
       fy="-49.85635"
       r="149.72627" />
    <radialGradient
       inkscape:collect="always"
       xlink:href="#linearGradient18892"
       id="radialGradient20539"
       gradientUnits="userSpaceOnUse"
       gradientTransform="matrix(-0.05325256,0.06095354,-0.06999917,-0.06115534,321.08528,-34.994094)"
       cx="2239.2258"
       cy="-365.58078"
       fx="2239.2258"
       fy="-365.58078"
       r="149.72627" />
    <radialGradient
       inkscape:collect="always"
       xlink:href="#linearGradient18892"
       id="radialGradient21076"
       gradientUnits="userSpaceOnUse"
       gradientTransform="matrix(-0.05325256,0.06095354,-0.06999917,-0.06115534,321.08528,-34.994094)"
       cx="817.7168"
       cy="52.630585"
       fx="817.7168"
       fy="52.630585"
       r="149.72627" />
    <radialGradient
       inkscape:collect="always"
       xlink:href="#linearGradient18892"
       id="radialGradient21317"
       gradientUnits="userSpaceOnUse"
       gradientTransform="matrix(-0.05325256,0.06095354,-0.06999917,-0.06115534,321.08528,-34.994094)"
       cx="1427.0844"
       cy="496.20172"
       fx="1427.0844"
       fy="496.20172"
       r="149.72627" />
  </defs>
  <sodipodi:namedview
     id="base"
     pagecolor="#262626"
     bordercolor="#666666"
     borderopacity="1.0"
     inkscape:pageopacity="0"
     inkscape:pageshadow="2"
     inkscape:zoom="0.70000001"
     inkscape:cx="455"
     inkscape:cy="315"
     inkscape:document-units="mm"
     inkscape:current-layer="svg986"
     inkscape:document-rotation="0"
     showgrid="false"
     inkscape:window-width="1366"
     inkscape:window-height="715"
     inkscape:window-x="-8"
     inkscape:window-y="-8"
     inkscape:window-maximized="1"
     inkscape:pagecheckerboard="0"
     inkscape:snap-bbox="true"
     inkscape:snap-bbox-edge-midpoints="true"
     inkscape:bbox-paths="true"
     inkscape:bbox-nodes="true"
     inkscape:snap-bbox-midpoints="true" />
  <metadata
     id="metadata983">
    <rdf:RDF>
      <cc:Work
         rdf:about="">
        <dc:format>image/svg+xml</dc:format>
        <dc:type
           rdf:resource="http://purl.org/dc/dcmitype/StillImage" />
        <dc:title />
      </cc:Work>
    </rdf:RDF>
  </metadata>
  <path
     id="path1672"
     style="fill:url(#linearGradient9016);fill-opacity:1;stroke:none;stroke-width:7.52798"
     class="st1"
     d="M 158.74518,0 C 151.13367,0 143.673,1.9099636 136.61163,5.6849221 130.1004,9.1440422 123.868,14.19715 118.07271,20.709329 c 3.14256,2.804898 13.25565,11.821514 14.81563,13.197644 l 0.9648,-0.819589 c 1.6052,-1.361088 3.50418,-2.947922 5.40328,-4.534607 5.53908,-4.632219 10.5809,-7.18163 15.84865,-8.008813 1.28113,-0.203036 2.51716,-0.307991 3.69281,-0.307991 5.09442,0 9.23938,1.841932 11.65095,5.203299 2.48693,3.444084 2.90143,8.167018 1.17565,13.303064 -1.24346,3.669681 -3.21069,7.459499 -5.87097,11.234457 -10.03059,14.22753 -20.16633,28.462481 -29.95578,42.223779 -5.38834,7.564955 -12.06564,16.972398 -18.40353,25.890928 -0.25623,0.37599 -0.42922,0.96226 -0.60255,1.60145 0.61796,0.27823 1.79317,0.66921 1.79317,0.66921 h 73.43221 V 98.780532 h -34.94516 l 1.83142,-2.443779 c 0.69334,-0.909901 16.73024,-22.484296 23.60322,-31.95929 5.52399,-7.579992 9.09621,-14.31777 11.28924,-21.205941 2.90142,-9.12908 2.05753,-18.468773 -2.38125,-26.274363 C 187.01339,9.1141258 179.46959,3.5945021 170.17753,1.3761429 166.34163,0.46624345 162.49816,0 158.74518,0 Z m 50.57468,2.8876783 V 65.783581 h 3.50469 c 2.62258,0 5.26741,-0.03762 7.83725,-0.0677 3.08981,-0.01503 6.30031,-0.05271 9.48055,-0.05271 3.97156,0 7.28769,0.05233 10.40763,0.157613 3.78317,0.135358 7.58116,1.241155 10.39214,3.015837 7.92803,4.963091 10.36241,14.144916 6.24769,23.356713 -2.98432,6.670094 -9.72204,10.971426 -17.16022,10.971426 -1.34895,0 -2.69023,-0.13564 -4.00904,-0.42891 -5.1095,-1.10542 -9.72156,-3.857407 -14.48438,-8.647541 -1.64288,-1.654364 -2.95404,-2.978113 -3.50419,-2.978113 -0.58783,0 -2.01959,1.271021 -3.8132,2.857707 -2.93156,2.601864 -5.85592,5.203755 -8.80256,7.835697 l -2.79569,2.48151 c 0.27884,0.30831 0.81388,0.93224 0.81388,0.93224 1.16811,1.32349 2.29079,2.56461 3.42874,3.75274 9.54828,10.0089 20.30275,14.88178 32.85794,14.88178 3.18026,0 6.52619,-0.33125 9.92497,-0.98547 12.60044,-2.39131 22.54792,-9.70065 27.989,-20.53673 5.64457,-11.234638 5.61451,-24.860412 -0.0527,-36.433438 -5.75009,-11.730945 -15.78084,-18.040223 -30.67979,-19.280994 -2.59244,-0.225594 -5.24481,-0.375954 -7.83725,-0.518832 l -0.65577,-0.05271 c -1.05505,-0.05264 -2.12511,-0.119907 -3.18016,-0.187585 l -1.49966,-0.0832 v -22.2436 h 40.17481 V 2.8876783 Z" />
  <path
     id="path2986-9"
     d="M 65.33443,35.10587 C 63.415857,30.298355 58.741361,25.105753 49.985628,25.818992 38.833452,27.035536 35.35716,37.76106 37.042801,44.159345 32.600781,41.141224 25.048015,39.813865 18.454974,45.480652 9.9424908,54.042986 14.495148,65.622586 19.175641,68.400341 14.018481,67.920986 5.8672824,71.418037 4.0640782,80.564965 2.1455551,91.922028 10.773805,98.542845 19.175641,98.542845 h 93.161749 c 9.71544,0 15.10552,-8.433274 14.50099,-16.387114 -0.9536,-10.380437 -10.41976,-14.363449 -15.58254,-13.509813 4.31412,-2.415286 10.07581,-13.760596 1.31403,-22.68021 -6.95384,-6.637782 -15.820214,-4.222495 -18.936972,-1.327396 1.680018,-5.544639 -1.075493,-17.0069 -12.355184,-18.820203 -0.779118,-0.08745 -1.529641,-0.134628 -2.245211,-0.134628 -8.610975,0.0012 -12.482631,6.317018 -13.698137,9.422485"
     style="display:inline;fill:#ffffff;stroke:none;stroke-width:0.062506;stroke-miterlimit:4;stroke-dasharray:none;stroke-opacity:1"
     inkscape:connector-curvature="0"
     inkscape:export-filename="D:\SVG Recreation\NBC.png"
     inkscape:export-xdpi="90"
     inkscape:export-ydpi="90" />
  <path
     id="path2988-9"
     d="m 20.00664,47.287861 c -4.918194,4.468072 -6.709279,14.591622 2.157512,20.509651 L 57.537522,92.149329 40.385996,52.720824 C 36.792186,43.416561 26.960494,41.387245 20.00664,47.287861"
     style="fill:url(#linearGradient3939-3);fill-opacity:1;stroke:none;stroke-width:1.2537"
     inkscape:connector-curvature="0"
     inkscape:export-filename="D:\SVG Recreation\NBC.png"
     inkscape:export-xdpi="90"
     inkscape:export-ydpi="90" />
  <path
     id="path2990-8"
     d="M 50.455768,28.117341 C 44.705318,28.234735 36.071423,35.10587 39.914581,45.597562 L 57.653334,87.576955 63.886019,43.422636 C 65.328359,32.4511 57.054861,27.386287 50.455768,28.117341"
     style="fill:url(#linearGradient3936-4);fill-opacity:1;stroke:none;stroke-width:1.2537"
     inkscape:connector-curvature="0"
     inkscape:export-filename="D:\SVG Recreation\NBC.png"
     inkscape:export-xdpi="90"
     inkscape:export-ydpi="90" />
  <path
     id="path2992-87"
     d="m 66.654494,41.738426 h 3.354426 c 0,0 1.791077,0 2.034354,0.847982 -1.319643,1.081787 -4.912168,1.216978 -4.435981,6.9946 L 73.246689,87.570866 90.86403,45.481077 c 3.604177,-9.397708 -3.960246,-17.246383 -10.669543,-17.486296 -0.313738,-0.02286 -0.62784,-0.04114 -0.953235,-0.04114 -6.023102,0 -12.923828,4.392447 -12.586777,13.784953"
     style="fill:url(#linearGradient3933-1);fill-opacity:1;stroke:none;stroke-width:1.2537"
     inkscape:connector-curvature="0"
     inkscape:export-filename="D:\SVG Recreation\NBC.png"
     inkscape:export-xdpi="90"
     inkscape:export-ydpi="90" />
  <path
     id="path2994-7"
     d="M 90.155376,53.078095 73.491695,92.033727 108.8534,67.553242 c 8.15208,-5.801526 6.83762,-15.077117 2.27416,-19.662085 -1.91336,-2.157975 -5.42508,-3.824818 -9.14549,-3.824818 -4.396241,-5.76e-4 -9.0997,2.338788 -11.826694,9.011756"
     style="fill:url(#linearGradient3930-6);fill-opacity:1;stroke:none;stroke-width:1.2537"
     inkscape:connector-curvature="0"
     inkscape:export-filename="D:\SVG Recreation\NBC.png"
     inkscape:export-xdpi="90"
     inkscape:export-ydpi="90" />
  <path
     id="path2996-5"
     d="M 104.89445,73.096596 71.684632,96.373131 h 40.890918 c 8.3893,0 13.77981,-8.679692 11.38379,-16.644842 -1.60483,-5.006143 -6.35496,-8.936131 -11.8669,-8.941777 -2.31996,4.3e-4 -4.77992,0.70192 -7.19799,2.310084"
     style="fill:url(#linearGradient3927-3);fill-opacity:1;stroke:none;stroke-width:1.2537"
     inkscape:connector-curvature="0"
     inkscape:export-filename="D:\SVG Recreation\NBC.png"
     inkscape:export-xdpi="90"
     inkscape:export-ydpi="90" />
  <path
     id="path2988-0-1"
     d="m 20.00664,47.287861 c -4.918194,4.468072 -6.709279,14.591622 2.157512,20.509651 L 57.537522,92.149329 40.385996,52.720824 C 36.792186,43.416561 26.960494,41.387245 20.00664,47.287861"
     style="display:inline;fill:url(#linearGradient1462-1);fill-opacity:1;stroke:none;stroke-width:1.2537"
     inkscape:connector-curvature="0"
     inkscape:export-filename="D:\SVG Recreation\NBC.png"
     inkscape:export-xdpi="90"
     inkscape:export-ydpi="90" />
  <path
     id="path2998-5"
     d="M 19.053433,96.373131 H 59.340269 L 26.123082,73.096596 C 18.448482,68.148693 9.8202188,71.043811 6.7043199,79.25409 4.0641422,88.653115 10.657636,96.373131 19.053433,96.373131"
     style="fill:url(#linearGradient3924-3);fill-opacity:1;stroke:none;stroke-width:1.2537"
     inkscape:connector-curvature="0"
     inkscape:export-filename="D:\SVG Recreation\NBC.png"
     inkscape:export-xdpi="90"
     inkscape:export-ydpi="90" />
  <path
     style="fill:url(#linearGradient3921-1);fill-opacity:1;stroke:none;stroke-width:1.2537"
     d="m 28.458967,44.619354 c -2.799739,0.134674 -5.665928,1.252918 -8.109022,3.325965 v 0.03931 c -2.140599,2.039785 -3.605357,4.929074 -3.818313,8.077352 3.822358,-1.729527 13.158636,-3.796123 17.578493,-1.990807 3.804758,1.554085 12.425803,15.698128 17.0462,24.789408 L 39.717146,52.379659 C 37.612799,46.931577 33.125211,44.394595 28.458967,44.619066 Z"
     id="path3240-8"
     inkscape:connector-curvature="0"
     sodipodi:nodetypes="scccsccs"
     inkscape:export-filename="D:\SVG Recreation\NBC.png"
     inkscape:export-xdpi="90"
     inkscape:export-ydpi="90" />
  <path
     style="display:inline;fill:url(#linearGradient1784-7);fill-opacity:1;stroke:none;stroke-width:1.2537"
     d="m 28.458967,44.658869 c -2.799739,0.134629 -5.665928,1.252923 -8.109022,3.325961 v 0.03931 c -2.140599,2.039799 -3.605357,4.929078 -3.818313,8.077352 3.822358,-1.729513 13.158636,-3.796109 17.578493,-1.990793 3.804758,1.554084 12.425785,15.698118 17.0462,24.789389 L 39.717127,52.419174 C 37.612799,46.971088 33.125211,44.43411 28.458967,44.658577 Z"
     id="path3240-2-5"
     inkscape:connector-curvature="0"
     sodipodi:nodetypes="scccsccs"
     inkscape:export-filename="D:\SVG Recreation\NBC.png"
     inkscape:export-xdpi="90"
     inkscape:export-ydpi="90" />
  <path
     style="fill:url(#linearGradient3915-9);fill-opacity:1;stroke:none;stroke-width:1.2537"
     d="m 17.476368,71.227107 c -4.505028,0.348617 -8.4762771,3.291226 -10.3527841,8.235751 -0.13696,0.487739 -0.2284343,0.987561 -0.3149257,1.464996 l 0.1574857,-0.237531 c 0,0 3.6828611,-4.988959 11.4943521,-4.988959 9.946,0 25.311177,10.334265 25.311177,10.334265 L 25.821583,73.563266 C 23.048427,71.77539 20.17938,71.017987 17.476359,71.227161 Z"
     id="path3250-4"
     inkscape:connector-curvature="0"
     sodipodi:nodetypes="scccsccs"
     inkscape:export-filename="D:\SVG Recreation\NBC.png"
     inkscape:export-xdpi="90"
     inkscape:export-ydpi="90" />
  <path
     id="path2188-4"
     style="fill:url(#linearGradient3906-0);fill-opacity:1;stroke:none;stroke-width:1.2537"
     d="m 67.338023,40.011638 c -0.04526,0.44288 -0.137555,0.852837 -0.144366,1.321614 0.04434,0.0046 0.09499,3.43e-4 0.139657,0.0029 0.0078,-0.438262 -0.03611,-0.909947 0.0046,-1.325458 z"
     inkscape:export-filename="D:\SVG Recreation\NBC.png"
     inkscape:export-xdpi="90"
     inkscape:export-ydpi="90" />
  <path
     id="path2186-1-2"
     style="fill:url(#radialGradient2223-6);fill-opacity:1;stroke:none;stroke-width:1.2537"
     d="m 78.92384,28.899896 c -0.710162,0.0029 -1.430651,0.08284 -2.147259,0.227063 -0.215452,0.04343 -0.425326,0.130469 -0.639813,0.186286 -0.505197,0.132251 -1.010335,0.268251 -1.501992,0.471076 -0.207909,0.08521 -0.40352,0.207955 -0.607827,0.305555 -0.491318,0.236662 -0.979839,0.483081 -1.441896,0.792054 -0.165623,0.10976 -0.315749,0.247497 -0.47675,0.3664 -0.480535,0.3584 -0.949764,0.738761 -1.379492,1.179218 -0.116572,0.118126 -0.219383,0.253897 -0.331612,0.37792 -0.445943,0.498679 -0.866102,1.031744 -1.232795,1.624896 -0.06839,0.109028 -0.126674,0.227931 -0.191954,0.340205 -0.374903,0.653792 -0.705161,1.354117 -0.965952,2.115214 -0.032,0.09161 -0.05888,0.187017 -0.08891,0.280183 -0.257372,0.811355 -0.447634,1.678952 -0.553975,2.607062 -0.0091,0.07909 -0.01783,0.158674 -0.0256,0.238628 -0.04114,0.415543 0.0029,0.8872 -0.0046,1.325472 1.797558,0.141212 3.977654,-0.380845 5.173882,1.302373 -0.753705,0.350902 -1.409453,0.701197 -2.009152,1.06068 a 24.044548,10.674017 0 0 0 0.06235,0.0073 24.044548,10.674017 0 0 0 0.285531,0.03383 24.044548,10.674017 0 0 1 5.85e-4,0 24.044548,10.674017 0 0 0 0.286354,0.03246 24.044548,10.674017 0 0 1 0,5.81e-4 24.044548,10.674017 0 0 0 0.287909,0.03063 24.044548,10.674017 0 0 0 0.288686,0.02971 24.044548,10.674017 0 0 0 0.289462,0.02697 24.044548,10.674017 0 0 0 0.289509,0.02606 24.044548,10.674017 0 0 1 5.9e-4,0 24.044548,10.674017 0 0 0 0.29024,0.02377 24.044548,10.674017 0 0 0 0.291839,0.02286 24.044548,10.674017 0 0 0 0.291795,0.02103 24.044548,10.674017 0 0 0 0.292571,0.02011 24.044548,10.674017 0 0 0 0.293349,0.01783 24.044548,10.674017 0 0 0 0.293394,0.016 24.044548,10.674017 0 0 0 0.294171,0.01509 24.044548,10.674017 0 0 1 5.85e-4,0 24.044548,10.674017 0 0 0 0.294172,0.01326 24.044548,10.674017 0 0 0 0.294948,0.01189 24.044548,10.674017 0 0 0 0.294903,0.01051 24.044548,10.674017 0 0 1 5.85e-4,0 24.044548,10.674017 0 0 0 0.294949,0.0087 24.044548,10.674017 0 0 0 0.294902,0.0073 24.044548,10.674017 0 0 0 0.295726,0.0046 24.044548,10.674017 0 0 1 5.85e-4,0 24.044548,10.674017 0 0 0 0.295726,0.0046 24.044548,10.674017 0 0 0 0.295726,0.0017 24.044548,10.674017 0 0 0 0.181028,0 24.044548,10.674017 0 0 1 5.9e-4,0 24.044548,10.674017 0 0 0 0.295726,-5.8e-4 24.044548,10.674017 0 0 0 0.295725,-0.0029 24.044548,10.674017 0 0 0 0.295726,-0.0046 24.044548,10.674017 0 0 0 0.295725,-0.0073 24.044548,10.674017 0 0 0 0.295726,-0.0073 24.044548,10.674017 0 0 0 0.294949,-0.0091 24.044548,10.674017 0 0 0 0.294948,-0.01051 24.044548,10.674017 0 0 0 0.294903,-0.01189 24.044548,10.674017 0 0 0 0.294171,-0.01326 24.044548,10.674017 0 0 0 0.294172,-0.01509 24.044548,10.674017 0 0 0 0.293348,-0.016 24.044548,10.674017 0 0 1 5.9e-4,0 24.044548,10.674017 0 0 0 0.292571,-0.0192 24.044548,10.674017 0 0 0 0.292617,-0.02011 24.044548,10.674017 0 0 0 0.29184,-0.02149 24.044548,10.674017 0 0 0 0.291017,-0.02286 24.044548,10.674017 0 0 0 0.29024,-0.02514 24.044548,10.674017 0 0 0 0.29024,-0.02514 24.044548,10.674017 0 0 0 0.288686,-0.0288 24.044548,10.674017 0 0 0 0.288686,-0.02971 24.044548,10.674017 0 0 0 0.287131,-0.03246 24.044548,10.674017 0 0 0 0.287131,-0.03246 24.044548,10.674017 0 0 0 0.285577,-0.03474 24.044548,10.674017 0 0 0 0.2848,-0.03611 24.044548,10.674017 0 0 0 0.2832,-0.03611 24.044548,10.674017 0 0 0 0.282469,-0.03931 24.044548,10.674017 0 0 1 5.85e-4,-5.8e-4 24.044548,10.674017 0 0 0 0.280869,-0.04023 24.044548,10.674017 0 0 1 5.85e-4,-5.8e-4 24.044548,10.674017 0 0 0 0.280137,-0.0416 24.044548,10.674017 0 0 0 0.278537,-0.04297 24.044548,10.674017 0 0 1 5.9e-4,-5.8e-4 24.044548,10.674017 0 0 0 0.27776,-0.0448 24.044548,10.674017 0 0 0 0.276205,-0.0469 24.044548,10.674017 0 0 0 0.275429,-0.04768 24.044548,10.674017 0 0 0 0.273874,-0.05006 24.044548,10.674017 0 0 0 0.273097,-0.05079 24.044548,10.674017 0 0 0 0.270766,-0.05307 24.044548,10.674017 0 0 0 0.269988,-0.0539 24.044548,10.674017 0 0 0 0.267612,-0.05541 24.044548,10.674017 0 0 0 0.266834,-0.05691 24.044548,10.674017 0 0 1 0,-5.81e-4 24.044548,10.674017 0 0 0 0.26528,-0.05778 24.044548,10.674017 0 0 0 0.262948,-0.06002 24.044548,10.674017 0 0 1 5.85e-4,-5.76e-4 24.044548,10.674017 0 0 0 0.261395,-0.06075 24.044548,10.674017 0 0 0 0.259794,-0.06313 24.044548,10.674017 0 0 0 0.25824,-0.06391 24.044548,10.674017 0 0 0 0.255908,-0.06537 24.044548,10.674017 0 0 0 0.2544,-0.06702 24.044548,10.674017 0 0 0 0.2528,-0.06853 24.044548,10.674017 0 0 1 5.85e-4,-5.81e-4 24.044548,10.674017 0 0 0 0.250469,-0.06926 24.044548,10.674017 0 0 0 0.248091,-0.0709 24.044548,10.674017 0 0 1 5.85e-4,-5.76e-4 24.044548,10.674017 0 0 0 0.246538,-0.07237 24.044548,10.674017 0 0 0 0.244251,-0.07388 24.044548,10.674017 0 0 0 0.242697,-0.0746 24.044548,10.674017 0 0 0 0.186469,-0.05929 v -5.8e-4 c 0.09271,-0.995246 0.0672,-1.944512 -0.05783,-2.844132 -0.125029,-0.899634 -0.348846,-1.749271 -0.653856,-2.545486 -0.214766,-0.560562 -0.513257,-1.059611 -0.801335,-1.565627 -0.191314,-0.332891 -0.376137,-0.670112 -0.594546,-0.978326 -0.267611,-0.38048 -0.560562,-0.732869 -0.862962,-1.074533 -0.279314,-0.313005 -0.56485,-0.614514 -0.867657,-0.89365 -0.298971,-0.277257 -0.603067,-0.54309 -0.919913,-0.785897 -0.363977,-0.277028 -0.737654,-0.52234 -1.117334,-0.752795 -0.290972,-0.177417 -0.579251,-0.36288 -0.875447,-0.511858 -0.453806,-0.227063 -0.90891,-0.398766 -1.363886,-0.557285 -0.238628,-0.08343 -0.478409,-0.194743 -0.714719,-0.258605 -0.69248,-0.186515 -1.375287,-0.305463 -2.015401,-0.318675 -0.391726,-0.04388 -0.778953,-0.08073 -1.180535,-0.07922 z"
     inkscape:export-filename="D:\SVG Recreation\NBC.png"
     inkscape:export-xdpi="90"
     inkscape:export-ydpi="90" />
  <path
     id="path3693-9-4-6"
     style="display:inline;fill:url(#linearGradient4079-8-7);stroke:none;stroke-width:0.12144"
     d="m 112.34259,71.238608 c 2.23784,0.142674 4.11417,0.528572 5.5463,1.460795 2.17732,1.417266 4.58703,3.7177 4.9931,6.37615 -2.05911,-1.634199 -8.19565,-3.150239 -11.26406,-2.960073 -4.80195,0.2976 -9.22947,2.345399 -13.670871,4.00245 -1.764114,0.680169 -3.533069,1.348722 -5.317603,1.975181 l 13.272964,-9.245589 c 1.78534,-1.243629 4.2023,-1.75162 6.44017,-1.608914 z"
     sodipodi:nodetypes="zscsccsz"
     inkscape:export-filename="D:\SVG Recreation\NBC.png"
     inkscape:export-xdpi="90"
     inkscape:export-ydpi="90" />
  <path
     id="path3993-3-5-7"
     style="display:inline;fill:url(#linearGradient79430);fill-opacity:1;stroke:none;stroke-width:0.12144"
     d="M 94.702531,57.251659 90.771579,53.644351 76.805357,84.423425 C 81.913778,76.974574 87.147822,64.374108 94.702531,57.251659 Z"
     inkscape:export-filename="D:\SVG Recreation\NBC.png"
     inkscape:export-xdpi="90"
     inkscape:export-ydpi="90" />
  <path
     id="path79427"
     style="display:inline;fill:url(#radialGradient1659-1);fill-opacity:1;stroke:none;stroke-width:0.12144"
     d="m 102.26441,44.620168 c -3.904764,-0.0048 -7.867974,1.783128 -10.18409,6.142118 l -1.308741,2.882065 3.930952,3.607308 c 0.702527,-0.662323 1.424202,-1.27889 2.168639,-1.837908 3.48157,-2.614409 11.14894,-2.723194 16.02146,-0.278759 l 0.059,0.0733 c -0.0671,-0.683755 -0.17818,-1.363229 -0.35199,-2.036341 -0.97585,-3.601212 -1.95377,-5.239439 -4.72235,-7.143749 -1.48397,-0.974368 -4.31149,-1.406229 -5.61293,-1.40797 z"
     inkscape:export-filename="D:\SVG Recreation\NBC.png"
     inkscape:export-xdpi="90"
     inkscape:export-ydpi="90" />
  <path
     id="path2998-7-4"
     d="M 19.053433,96.373131 H 59.340269 L 26.123082,73.096596 C 18.448482,68.148693 9.8202188,71.043811 6.7043199,79.25409 4.0641422,88.653115 10.657636,96.373131 19.053433,96.373131"
     style="display:inline;opacity:0.6;fill:url(#linearGradient1522-5);fill-opacity:1;stroke:none;stroke-width:1.2537"
     inkscape:connector-curvature="0"
     inkscape:export-filename="D:\SVG Recreation\NBC.png"
     inkscape:export-xdpi="90"
     inkscape:export-ydpi="90" />
  <path
     id="path2998-7-7-1"
     d="M 111.21037,96.58189 H 70.923508 L 104.14069,73.305355 c 7.67461,-4.947912 16.30289,-2.052786 19.41878,6.157503 2.64018,9.399015 -3.95331,17.119032 -12.3491,17.119032"
     style="display:inline;fill:url(#linearGradient1556-9);fill-opacity:1;stroke:none;stroke-width:1.2537"
     inkscape:connector-curvature="0"
     inkscape:export-filename="D:\SVG Recreation\NBC.png"
     inkscape:export-xdpi="90"
     inkscape:export-ydpi="90" />
  <path
     id="path2998-7-0-4"
     d="M 19.053433,96.373131 H 59.340269 L 26.123082,73.096596 C 18.448482,68.148693 9.8202188,71.043811 6.7043199,79.25409 4.0641422,88.653115 10.657636,96.373131 19.053433,96.373131"
     style="display:inline;opacity:0.6;fill:url(#linearGradient1608-6);fill-opacity:1;stroke:none;stroke-width:1.2537"
     inkscape:connector-curvature="0"
     inkscape:export-filename="D:\SVG Recreation\NBC.png"
     inkscape:export-xdpi="90"
     inkscape:export-ydpi="90" />
  <path
     id="path2998-7-0-0-0"
     d="M 111.97112,96.58189 H 71.684266 L 104.90147,73.305355 c 7.6746,-4.947912 16.30287,-2.052786 19.41876,6.157503 2.64018,9.399015 -3.95331,17.119032 -12.34911,17.119032"
     style="display:inline;opacity:0.6;fill:url(#linearGradient1608-9-5);fill-opacity:1;stroke:none;stroke-width:1.2537"
     inkscape:connector-curvature="0"
     inkscape:export-filename="D:\SVG Recreation\NBC.png"
     inkscape:export-xdpi="90"
     inkscape:export-ydpi="90" />
  <path
     sodipodi:nodetypes="cccccsccc"
     id="path3993-3-6-6"
     inkscape:connector-curvature="0"
     d="m 102.26437,44.619262 c 1.30145,0.0017 4.12997,0.435063 5.61395,1.409422 2.76857,1.90431 4.34969,3.541791 5.32553,7.143002 0.17381,0.67312 0.28498,1.351881 0.35205,2.035638 l -0.0587,-0.07241 c -4.87252,-2.444434 -13.14401,-2.335689 -16.625583,0.27872 -8.749736,6.570408 -14.483257,20.86801 -20.066721,29.009544 l 15.276528,-33.66079 c 2.316114,-4.358989 6.278184,-6.14782 10.182946,-6.143231 z"
     style="display:inline;fill:url(#linearGradient1727-5);fill-opacity:1;stroke:none;stroke-width:0.12144"
     inkscape:export-filename="D:\SVG Recreation\NBC.png"
     inkscape:export-xdpi="90"
     inkscape:export-ydpi="90" />
  <path
     sodipodi:nodetypes="cccccsccc"
     id="path3993-3-6-5-7"
     inkscape:connector-curvature="0"
     d="m 102.26437,44.619262 c 1.30145,0.0017 4.12997,0.435063 5.61395,1.409422 2.76857,1.90431 4.34969,3.541791 5.32553,7.143002 0.17381,0.67312 0.28498,1.351881 0.35205,2.035638 l -0.0587,-0.07241 c -4.87252,-2.444434 -13.14401,-2.335689 -16.625583,0.27872 -8.749736,6.570408 -14.483257,20.86801 -20.066721,29.009544 l 15.276528,-33.66079 c 2.316114,-4.358989 6.278184,-6.14782 10.182946,-6.143231 z"
     style="display:inline;fill:url(#linearGradient1814-6);fill-opacity:1;stroke:none;stroke-width:0.12144"
     inkscape:export-filename="D:\SVG Recreation\NBC.png"
     inkscape:export-xdpi="90"
     inkscape:export-ydpi="90" />
  <path
     id="path1850-5"
     style="fill:url(#radialGradient1853-6);fill-opacity:1;stroke:none;stroke-width:1.2537"
     d="m 39.658302,42.066404 a 24.044548,10.674017 0 0 0 0.186469,0.05929 24.044548,10.674017 0 0 0 0.242697,0.07461 24.044548,10.674017 0 0 0 0.244206,0.07387 24.044548,10.674017 0 0 0 0.247359,0.07314 24.044548,10.674017 0 0 0 0.248092,0.0709 24.044548,10.674017 0 0 0 0.251246,0.07003 24.044548,10.674017 0 0 0 0.252799,0.06853 24.044548,10.674017 0 0 0 0.254355,0.06702 24.044548,10.674017 0 0 0 0.255908,0.06537 24.044548,10.674017 0 0 0 0.258286,0.06391 24.044548,10.674017 0 0 0 0.25984,0.06318 24.044548,10.674017 0 0 0 0.262126,0.06153 24.044548,10.674017 0 0 0 0.262948,0.06002 24.044548,10.674017 0 0 0 0.26528,0.05856 24.044548,10.674017 0 0 0 0.266834,0.05691 24.044548,10.674017 0 0 0 0.267612,0.05541 24.044548,10.674017 0 0 0 0.269942,0.05394 24.044548,10.674017 0 0 0 0.270766,0.05317 24.044548,10.674017 0 0 0 0.273097,0.05079 24.044548,10.674017 0 0 0 0.273829,0.05006 24.044548,10.674017 0 0 0 0.275474,0.04768 24.044548,10.674017 0 0 0 0.276206,0.0469 24.044548,10.674017 0 0 0 0.278537,0.04526 24.044548,10.674017 0 0 0 0.278537,0.04297 24.044548,10.674017 0 0 0 0.280868,0.04251 24.044548,10.674017 0 0 0 0.281692,0.04069 24.044548,10.674017 0 0 0 0.282468,0.03931 24.044548,10.674017 0 0 0 0.283246,0.03703 24.044548,10.674017 0 0 0 0.2848,0.03612 24.044548,10.674017 0 0 0 0.285577,0.03474 24.044548,10.674017 0 0 0 0.287131,0.03246 24.044548,10.674017 0 0 0 0.287132,0.03154 24.044548,10.674017 0 0 0 0.288685,0.02971 24.044548,10.674017 0 0 0 0.288686,0.02834 24.044548,10.674017 0 0 0 0.290286,0.02606 24.044548,10.674017 0 0 0 0.290285,0.02514 24.044548,10.674017 0 0 0 0.291017,0.02286 24.044548,10.674017 0 0 0 0.291795,0.02149 24.044548,10.674017 0 0 0 0.292617,0.02011 24.044548,10.674017 0 0 0 0.293394,0.01874 24.044548,10.674017 0 0 0 0.293348,0.01646 24.044548,10.674017 0 0 0 0.294172,0.01554 24.044548,10.674017 0 0 0 0.294171,0.01326 24.044548,10.674017 0 0 0 0.294903,0.01189 24.044548,10.674017 0 0 0 0.294903,0.01051 24.044548,10.674017 0 0 0 0.294948,0.0087 24.044548,10.674017 0 0 0 0.295726,0.0073 24.044548,10.674017 0 0 0 0.295726,0.0059 24.044548,10.674017 0 0 0 0.295725,0.0029 24.044548,10.674017 0 0 0 0.295726,0.0029 24.044548,10.674017 0 0 0 0.296503,5.8e-4 24.044548,10.674017 0 0 0 0.181028,0 24.044548,10.674017 0 0 0 0.295726,-0.0017 24.044548,10.674017 0 0 0 0.296503,-0.0029 24.044548,10.674017 0 0 0 0.295725,-0.0046 24.044548,10.674017 0 0 0 0.294903,-0.0073 24.044548,10.674017 0 0 0 0.295726,-0.0091 24.044548,10.674017 0 0 0 0.294948,-0.01051 24.044548,10.674017 0 0 0 0.294903,-0.01188 24.044548,10.674017 0 0 0 0.294949,-0.01326 24.044548,10.674017 0 0 0 0.294171,-0.01509 24.044548,10.674017 0 0 0 0.293394,-0.016 24.044548,10.674017 0 0 0 0.293349,-0.01783 24.044548,10.674017 0 0 0 0.292571,-0.02011 24.044548,10.674017 0 0 0 0.29184,-0.02103 24.044548,10.674017 0 0 0 0.29184,-0.0224 24.044548,10.674017 0 0 0 0.291017,-0.02468 24.044548,10.674017 0 0 0 0.289463,-0.02606 24.044548,10.674017 0 0 0 0.289508,-0.02697 24.044548,10.674017 0 0 0 0.288686,-0.02971 24.044548,10.674017 0 0 0 0.287909,-0.03109 24.044548,10.674017 0 0 0 0.287177,-0.03246 24.044548,10.674017 0 0 0 0.285531,-0.03383 24.044548,10.674017 0 0 0 0.285577,-0.0352 24.044548,10.674017 0 0 0 0.284023,-0.03611 24.044548,10.674017 0 0 0 0.2832,-0.0384 24.044548,10.674017 0 0 0 0.281646,-0.04023 24.044548,10.674017 0 0 0 0.280868,-0.0416 24.044548,10.674017 0 0 0 0.279314,-0.04297 24.044548,10.674017 0 0 0 0.278583,-0.0448 24.044548,10.674017 0 0 0 0.276983,-0.04617 24.044548,10.674017 0 0 0 0.276206,-0.04786 24.044548,10.674017 0 0 0 0.274651,-0.04841 24.044548,10.674017 0 0 0 0.273097,-0.05079 24.044548,10.674017 0 0 0 0.159177,-0.03063 c 0.858542,-9.396647 -5.725571,-14.284897 -11.596958,-14.3046 -0.401554,-0.0012 -0.788708,0.0352 -1.180525,0.07922 -4.760831,0.09833 -11.586361,5.124858 -10.844798,13.086895 z"
     inkscape:export-filename="D:\SVG Recreation\NBC.png"
     inkscape:export-xdpi="90"
     inkscape:export-ydpi="90" />
  <path
     id="path2990-0-2"
     d="M 50.455768,28.117341 C 44.705318,28.234735 36.071423,35.10587 39.914581,45.597562 L 57.653334,87.576955 63.886019,43.422636 C 65.328359,32.4511 57.054861,27.386287 50.455768,28.117341"
     style="display:inline;fill:url(#linearGradient1892-2);fill-opacity:1;stroke:none;stroke-width:1.2537"
     inkscape:connector-curvature="0"
     inkscape:export-filename="D:\SVG Recreation\NBC.png"
     inkscape:export-xdpi="90"
     inkscape:export-ydpi="90" />
  <path
     id="path2992-8-9"
     d="m 66.654494,41.738426 h 3.354426 c 0,0 1.791077,0 2.034354,0.847982 -1.319643,1.081787 -4.912168,1.216978 -4.435981,6.9946 L 73.246689,87.570866 90.86403,45.481077 c 3.604177,-9.397708 -3.960246,-17.246383 -10.669543,-17.486296 -0.313738,-0.02286 -0.62784,-0.04114 -0.953235,-0.04114 -6.023102,0 -12.923828,4.392447 -12.586777,13.784953"
     style="display:inline;fill:url(#linearGradient2277-5);fill-opacity:1;stroke:none;stroke-width:1.2537"
     inkscape:connector-curvature="0"
     inkscape:export-filename="D:\SVG Recreation\NBC.png"
     inkscape:export-xdpi="90"
     inkscape:export-ydpi="90" />
  <path
     d="m 4.93473,142.12375 c -0.0748,-0.85984 -0.22431,-1.68229 -0.37385,-2.3926 H 0 c 0.41123,2.01876 0.52338,3.66367 0.52338,5.19642 v 13.04712 h 4.97211 v -12.26205 c 1.04676,-1.15891 2.3926,-2.35521 4.18704,-2.35521 1.79445,0 3.02813,1.15891 3.02813,2.54213 v 12.07513 h 5.0095 v -12.26205 c 0,-3.8132 -2.95336,-6.57963 -6.65441,-6.57963 -2.84121,0 -4.7478,1.34583 -6.13102,2.99074 z"
     style="font-weight:bold;font-size:37.3843px;line-height:1.25;font-family:'Sweet Sans Pro';-inkscape-font-specification:'Sweet Sans Pro Bold';letter-spacing:-0.949854px;word-spacing:0px;fill:#000000;stroke:none;stroke-width:0.934609"
     id="path6226" />
  <path
     d="m 26.67709,157.97469 c 0.11216,-0.63553 0.18693,-1.53275 0.22431,-2.16829 1.12153,1.27107 3.1029,2.69167 5.64503,2.69167 4.85996,0 8.86008,-3.85058 8.86008,-9.71992 0,-5.83195 -4.03751,-9.64514 -8.86008,-9.64514 -1.79445,0 -3.66366,0.9346 -5.15903,2.42997 v -9.7573 h -5.0095 v 20.97259 c 0,1.49538 0,3.06552 -0.41123,5.19642 z m 5.12165,-14.61726 c 2.3926,0 4.22443,2.09352 4.22443,5.42072 0,3.32721 -1.86922,5.53288 -4.22443,5.53288 -2.16829,0 -3.77581,-1.34583 -4.41134,-2.01875 v -6.87871 c 1.30845,-1.27107 2.91597,-2.05614 4.41134,-2.05614 z"
     style="font-weight:bold;font-size:37.3843px;line-height:1.25;font-family:'Sweet Sans Pro';-inkscape-font-specification:'Sweet Sans Pro Bold';letter-spacing:-0.949854px;word-spacing:0px;fill:#000000;stroke:none;stroke-width:0.934609"
     id="path6228" />
  <path
     d="m 61.72832,142.2359 c -2.39259,-2.1309 -5.34595,-3.10289 -8.14978,-3.10289 -5.42072,0 -9.79468,3.81319 -9.79468,9.64514 0,5.86934 4.5235,9.75731 9.79468,9.75731 4.67304,0 7.73855,-2.65429 8.52362,-3.5889 l -3.06551,-3.06551 c -1.38322,1.34584 -3.06551,2.46737 -4.89734,2.46737 -2.72906,0 -5.04688,-2.24306 -5.04688,-5.57027 0,-3.3272 2.16829,-5.42072 4.85996,-5.42072 1.45798,0 3.17766,0.7103 4.67303,2.16829 z"
     style="font-weight:bold;font-size:37.3843px;line-height:1.25;font-family:'Sweet Sans Pro';-inkscape-font-specification:'Sweet Sans Pro Bold';letter-spacing:-0.949854px;word-spacing:0px;fill:#000000;stroke:none;stroke-width:0.934609"
     id="path6230" />
  <path
     d="m 64.10562,157.97469 h 18.16877 v -4.0375 H 69.26465 v -0.22431 c 0,-1.9066 1.83183,-2.95336 4.97211,-3.96273 3.5889,-1.12153 8.44885,-2.57952 8.44885,-7.40209 0,-4.48612 -4.44873,-6.31795 -8.78531,-6.31795 -4.5235,0 -7.17778,1.98137 -9.90684,4.11227 l 2.80383,3.36459 c 2.1309,-1.79445 4.18704,-3.25244 7.25255,-3.25244 1.68229,0 3.55151,0.52338 3.55151,2.13091 0,1.9066 -2.72905,2.72905 -3.96274,3.06551 -5.15903,1.42061 -9.53299,3.88797 -9.53299,9.12177 z"
     style="font-weight:bold;font-size:37.3843px;line-height:1.25;font-family:'Sweet Sans Pro';-inkscape-font-specification:'Sweet Sans Pro Bold';letter-spacing:-0.949854px;word-spacing:0px;fill:#000000;stroke:none;stroke-width:0.934609"
     id="path6232" />
  <path
     d="m 95.82963,158.72238 c 5.30857,0 10.9536,-2.24306 10.9536,-7.92547 0,-4.78519 -4.48612,-6.99087 -8.8227,-6.99087 -2.80382,0 -4.5235,0.93461 -6.28056,2.13091 v -4.97211 h 12.71066 v -4.22443 H 87.0817 v 11.02837 l 2.99075,2.1309 c 1.98136,-1.08414 4.18704,-2.05613 7.10301,-2.05613 2.20568,0 4.33658,0.89722 4.33658,2.99074 0,2.50475 -2.76644,3.66366 -5.68241,3.66366 -4.00012,0 -7.10302,-1.57014 -8.67316,-2.54213 l -2.28044,3.55151 c 1.94398,1.15891 5.53287,3.21505 10.9536,3.21505 z"
     style="font-weight:bold;font-size:37.3843px;line-height:1.25;font-family:'Sweet Sans Pro';-inkscape-font-specification:'Sweet Sans Pro Bold';letter-spacing:-0.949854px;word-spacing:0px;fill:#000000;stroke:none;stroke-width:0.934609"
     id="path6234" />
  <path
     d="m 114.69342,142.12375 c -0.0748,-0.85984 -0.22431,-1.68229 -0.37385,-2.3926 h -4.56088 c 0.41123,2.01876 0.52338,3.66367 0.52338,5.19642 v 13.04712 h 4.97211 v -12.26205 c 1.04676,-1.15891 2.3926,-2.35521 4.18704,-2.35521 1.79445,0 3.02813,1.15891 3.02813,2.54213 v 12.07513 h 5.0095 v -12.26205 c 0,-3.8132 -2.95336,-6.57963 -6.65441,-6.57963 -2.84121,0 -4.7478,1.34583 -6.13102,2.99074 z"
     style="font-weight:bold;font-size:37.3843px;line-height:1.25;font-family:'Sweet Sans Pro';-inkscape-font-specification:'Sweet Sans Pro Bold';letter-spacing:-0.949854px;word-spacing:0px;fill:#000000;stroke:none;stroke-width:0.934609"
     id="path6236" />
  <path
     d="m 146.64169,152.66612 c -1.45799,1.08415 -3.62627,1.86922 -5.60764,1.86922 -3.06552,0 -4.85996,-1.86922 -5.27119,-4.44873 h 13.86958 c 0.0748,-0.85984 0.0748,-1.23369 0.0748,-1.53276 0,-6.72918 -4.71042,-9.42084 -9.15915,-9.42084 -5.64503,0 -9.68253,4.33657 -9.68253,9.86945 0,5.12165 3.36458,9.533 9.53299,9.533 3.28982,0 6.57964,-1.15892 8.59839,-2.69167 z m -6.13102,-9.71992 c 1.9066,0 4.11227,1.23369 4.14965,3.8132 h -8.78531 c 0.56077,-2.05613 1.98137,-3.8132 4.63566,-3.8132 z"
     style="font-weight:bold;font-size:37.3843px;line-height:1.25;font-family:'Sweet Sans Pro';-inkscape-font-specification:'Sweet Sans Pro Bold';letter-spacing:-0.949854px;word-spacing:0px;fill:#000000;stroke:none;stroke-width:0.934609"
     id="path6238" />
  <path
     d="m 162.96333,139.73115 -3.28982,11.66391 h -0.22431 l -2.91597,-11.66391 h -5.2338 l 5.79456,18.24354 h 4.71043 l 3.21505,-11.1779 h 0.2243 l 3.17767,11.1779 h 4.7478 l 5.79457,-18.24354 h -5.12165 l -2.84121,11.66391 h -0.2243 l -3.28982,-11.66391 z"
     style="font-weight:bold;font-size:37.3843px;line-height:1.25;font-family:'Sweet Sans Pro';-inkscape-font-specification:'Sweet Sans Pro Bold';letter-spacing:-0.949854px;word-spacing:0px;fill:#000000;stroke:none;stroke-width:0.934609"
     id="path6240" />
  <path
     d="m 197.34162,141.00222 c -1.53276,-0.74769 -5.2338,-1.94398 -8.52362,-1.94398 -3.70105,0 -7.77594,1.49537 -7.77594,6.13102 0,4.93473 4.5235,5.19642 8.48624,5.42073 1.60753,0.11215 3.85058,0.29907 3.85058,2.01875 0,1.27106 -1.30845,2.1309 -3.62627,2.1309 -2.87859,0 -5.83195,-1.38322 -7.58902,-2.46736 l -1.75706,3.55151 c 1.9066,1.1963 5.04688,2.76644 9.27131,2.76644 4.89734,0 8.67316,-2.09353 8.67316,-6.4301 0,-5.27119 -5.4955,-5.64503 -8.78531,-5.79457 -1.57015,-0.0748 -3.5889,-0.18692 -3.5889,-1.71968 0,-1.15891 1.15892,-1.75706 3.02813,-1.75706 1.94398,0 4.56089,0.7103 6.57964,1.64491 z"
     style="font-weight:bold;font-size:37.3843px;line-height:1.25;font-family:'Sweet Sans Pro';-inkscape-font-specification:'Sweet Sans Pro Bold';letter-spacing:-0.949854px;word-spacing:0px;fill:#000000;stroke:none;stroke-width:0.934609"
     id="path6242" />
  <path
     d="m 200.95262,155.39518 c 0,1.75706 1.49537,3.14028 3.43935,3.14028 1.98137,0 3.51413,-1.38322 3.51413,-3.14028 0,-1.71968 -1.53276,-3.17767 -3.51413,-3.17767 -1.94398,0 -3.43935,1.45799 -3.43935,3.17767 z"
     style="font-weight:bold;font-size:37.3843px;line-height:1.25;font-family:'Sweet Sans Pro';-inkscape-font-specification:'Sweet Sans Pro Bold';letter-spacing:-0.949854px;word-spacing:0px;fill:#000000;stroke:none;stroke-width:0.934609"
     id="path6244" />
  <path
     d="m 228.63908,142.2359 c -2.39259,-2.1309 -5.34595,-3.10289 -8.14977,-3.10289 -5.42073,0 -9.79469,3.81319 -9.79469,9.64514 0,5.86934 4.5235,9.75731 9.79469,9.75731 4.67303,0 7.73855,-2.65429 8.52362,-3.5889 l -3.06552,-3.06551 c -1.38322,1.34584 -3.06551,2.46737 -4.89734,2.46737 -2.72905,0 -5.04688,-2.24306 -5.04688,-5.57027 0,-3.3272 2.16829,-5.42072 4.85996,-5.42072 1.45799,0 3.17766,0.7103 4.67304,2.16829 z"
     style="font-weight:bold;font-size:37.3843px;line-height:1.25;font-family:'Sweet Sans Pro';-inkscape-font-specification:'Sweet Sans Pro Bold';letter-spacing:-0.949854px;word-spacing:0px;fill:#000000;stroke:none;stroke-width:0.934609"
     id="path6246" />
  <path
     d="m 230.38084,148.77815 c 0,5.42073 4.00012,9.75731 9.90684,9.75731 5.9441,0 9.98161,-4.33658 9.98161,-9.75731 0,-5.42072 -4.03751,-9.64514 -9.98161,-9.64514 -5.90672,0 -9.90684,4.22442 -9.90684,9.64514 z m 5.12165,0 c 0,-2.99074 1.75706,-5.49549 4.78519,-5.49549 3.10289,0 4.89734,2.50475 4.89734,5.49549 0,3.02813 -1.79445,5.64503 -4.89734,5.64503 -3.02813,0 -4.78519,-2.6169 -4.78519,-5.64503 z"
     style="font-weight:bold;font-size:37.3843px;line-height:1.25;font-family:'Sweet Sans Pro';-inkscape-font-specification:'Sweet Sans Pro Bold';letter-spacing:-0.949854px;word-spacing:0px;fill:#000000;stroke:none;stroke-width:0.934609"
     id="path6248" />
  <path
     d="m 270.40413,145.71264 c 0.82245,-1.1963 2.05613,-2.35521 3.62627,-2.35521 1.60753,0 2.8786,1.12153 2.8786,2.54213 v 12.07513 h 5.00949 v -12.26205 c 0,-3.8132 -2.80382,-6.57963 -6.4301,-6.57963 -2.65428,0 -4.82257,1.45798 -6.13102,3.21505 -1.00938,-1.94399 -2.99075,-3.21505 -5.34596,-3.21505 -2.6169,0 -4.37396,1.49537 -5.7198,2.99074 -0.0748,-0.82246 -0.18692,-1.68229 -0.33645,-2.3926 h -4.59827 c 0.41122,2.01876 0.52338,3.62628 0.52338,5.15904 v 13.0845 h 4.97211 v -12.26205 c 0.89722,-1.1963 2.09352,-2.35521 3.66366,-2.35521 1.68229,0 2.84121,1.15891 2.84121,2.54213 v 12.07513 h 5.04688 z"
     style="font-weight:bold;font-size:37.3843px;line-height:1.25;font-family:'Sweet Sans Pro';-inkscape-font-specification:'Sweet Sans Pro Bold';letter-spacing:-0.949854px;word-spacing:0px;fill:#000000;stroke:none;stroke-width:0.934609"
     id="path6250" />
  <path
     id="path16354"
     style="fill:#767678;fill-opacity:1;stroke:none;stroke-width:7.52798"
     d="M 209.31986,2.8876783 V 65.783581 h 3.50469 c 2.62258,0 5.26741,-0.03762 7.83725,-0.0677 3.08981,-0.01503 6.30031,-0.05271 9.48055,-0.05271 3.97156,0 7.28769,0.05233 10.40763,0.157613 3.78317,0.135358 7.58116,1.241155 10.39214,3.015837 7.92803,4.963091 10.36241,14.144916 6.24769,23.356713 -2.98432,6.670094 -9.72204,10.971426 -17.16022,10.971426 -1.34895,0 -2.69023,-0.13564 -4.00904,-0.42891 -5.1095,-1.10542 -9.72156,-3.857407 -14.48438,-8.647541 -1.64288,-1.654364 -2.95404,-2.978113 -3.50419,-2.978113 -0.58783,0 -2.01959,1.271021 -3.8132,2.857707 -2.93156,2.601864 -5.85592,5.203755 -8.80256,7.835697 l -2.79569,2.48151 c 0.27884,0.30831 0.81388,0.93224 0.81388,0.93224 1.16811,1.32349 2.29079,2.56461 3.42874,3.75274 9.54828,10.0089 20.30275,14.88178 32.85794,14.88178 3.18026,0 6.52624,-0.33125 9.92497,-0.98547 12.60044,-2.39131 22.54792,-9.70065 27.989,-20.53673 5.64457,-11.234638 5.61451,-24.860412 -0.0527,-36.433438 -5.75009,-11.730945 -15.78084,-18.040223 -30.67979,-19.280994 -2.59244,-0.225594 -5.24481,-0.375954 -7.83725,-0.518832 l -0.65577,-0.05271 c -1.05505,-0.05264 -2.12511,-0.119907 -3.18016,-0.187585 l -1.49966,-0.0832 v -22.2436 h 40.17481 V 2.8876783 Z m 1.74977,1.7497637 h 61.08514 v 17.142105 h -40.17481 v 25.649081 l 3.15228,0.174665 -0.0151,-5.29e-4 c 1.03921,0.06666 2.09929,0.132532 3.15228,0.185518 l 0.67749,0.05426 0.0222,0.0011 c 2.59057,0.142774 5.22481,0.292735 7.78145,0.515212 h 0.004 l 0.003,5.29e-4 c 14.47472,1.205442 23.74829,7.07552 29.2535,18.306892 5.42949,11.087861 5.44899,24.152926 0.0605,34.877975 -5.19883,10.35371 -14.62694,17.30197 -26.75134,19.60294 l -0.003,5.2e-4 -0.003,5.3e-4 c -3.29713,0.63466 -6.5355,0.95395 -9.59424,0.95395 -12.10236,0 -22.3008,-4.60092 -31.59188,-14.34021 v -10e-4 -0.001 c -1.00169,-1.04585 -2.00531,-2.1617 -3.03806,-3.3259 l 1.49088,-1.32343 0.003,-0.002 c 2.94434,-2.62988 5.86653,-5.230185 8.79637,-7.830531 l 0.003,-0.0016 c 0.89649,-0.793042 1.69313,-1.495963 2.27944,-1.957503 0.13835,-0.10892 0.20505,-0.146471 0.31472,-0.224792 0.0867,0.07133 0.12894,0.09563 0.23358,0.189135 0.5338,0.476855 1.26434,1.209994 2.08619,2.037602 v 5.29e-4 5.3e-4 c 4.92339,4.95163 9.86885,7.93595 15.35046,9.12295 1.45095,0.32224 2.9192,0.46923 4.38372,0.46923 8.11284,0 15.4867,-4.69612 18.7575,-12.006503 v -5.3e-4 -5.29e-4 c 4.39606,-9.841613 1.69741,-20.160169 -6.91636,-25.552962 -3.13452,-1.977523 -7.17913,-3.136006 -11.25874,-3.281969 h -0.003 l -0.003,-5.29e-4 c -3.14217,-0.106026 -6.47959,-0.158128 -10.46652,-0.158128 -3.19405,0 -6.40733,0.03771 -9.48883,0.05271 h -0.006 -0.006 c -2.57288,0.03011 -5.21075,0.06769 -7.81658,0.06769 h -1.75493 z" />
  <path
     id="path12214"
     style="fill:url(#linearGradient16891);fill-opacity:1;stroke:none;stroke-width:7.52798"
     d="M 158.74518,0 C 151.13367,0 143.673,1.9099636 136.61163,5.6849221 130.1004,9.1440422 123.868,14.19715 118.07271,20.709329 c 3.14256,2.804898 13.25565,11.821514 14.81563,13.197644 l 0.9648,-0.819589 c 1.6052,-1.361088 3.50421,-2.947922 5.40328,-4.534607 5.53908,-4.632219 10.5809,-7.18163 15.84865,-8.008813 1.28113,-0.203036 2.51716,-0.307991 3.69281,-0.307991 5.09442,0 9.23938,1.841932 11.65095,5.203299 2.48693,3.444084 2.90143,8.167018 1.17565,13.303064 -1.24346,3.669681 -3.21069,7.459499 -5.87097,11.234457 -10.03059,14.22753 -20.16633,28.462481 -29.95578,42.223779 -5.38834,7.564954 -12.06564,16.972398 -18.40353,25.890928 -0.25623,0.37599 -0.42922,0.96226 -0.60255,1.60145 0.61796,0.27823 1.79317,0.66921 1.79317,0.66921 h 73.43221 V 98.780532 h -34.94516 l 1.83142,-2.443779 c 0.69334,-0.909901 16.73024,-22.484296 23.60322,-31.95929 5.52399,-7.579992 9.09621,-14.31777 11.28924,-21.205941 2.90142,-9.129075 2.05753,-18.468773 -2.38125,-26.274363 C 187.01339,9.1141258 179.46959,3.5945021 170.17753,1.3761429 166.34163,0.46624345 162.49811,0 158.74518,0 Z m -0.003,1.7497636 h 0.003 c 3.60799,0 7.31715,0.4488233 11.02825,1.3291185 8.86143,2.1161005 15.96414,7.3345279 20.11765,14.6797239 v 0.0016 0.0021 c 4.18936,7.366992 5.0024,16.171738 2.23499,24.879101 -2.12646,6.678888 -5.59136,13.234598 -11.03601,20.705712 v 0.0016 0.0016 c -3.42731,4.724847 -9.15506,12.487775 -14.1087,19.17764 -4.95366,6.689866 -9.22255,12.423539 -9.47023,12.748576 l -0.004,0.0052 -3.93361,5.248775 h 36.69387 v 18.08194 h -71.09633 c 6.22968,-8.76667 12.76776,-17.9774 18.05213,-25.396384 l 5.3e-4,-5.29e-4 v -5.29e-4 c 9.78915,-13.760857 19.92671,-27.997996 29.96045,-42.229979 2.74397,-3.893708 4.79184,-7.826774 6.09783,-11.680941 v -0.0021 -0.0021 c 1.85589,-5.523278 1.46145,-10.90001 -1.41595,-14.884879 -2.78918,-3.884125 -7.55538,-5.928836 -13.06949,-5.928836 -1.27981,0 -2.60577,0.113498 -3.96668,0.329179 h 0.003 c -5.64306,0.886116 -11.00219,3.630078 -16.69976,8.394834 -1.83045,1.529337 -3.64317,3.045447 -5.21725,4.378545 -2.29019,-2.031627 -8.75351,-7.792529 -12.32431,-10.978142 5.33335,-5.744546 10.98458,-10.269175 16.84032,-13.3800608 l 0.002,-0.00106 0.002,-0.00159 c 6.82582,-3.6490433 13.98949,-5.478219 21.30826,-5.478219 z" />
  <path
     id="path18678"
     style="fill:url(#radialGradient18894);fill-opacity:1;stroke:none;stroke-width:7.52798"
     d="M 209.31986,2.8876783 V 65.783581 h 3.50469 c 2.62258,0 5.26741,-0.03762 7.83725,-0.0677 3.08981,-0.01503 6.30031,-0.05271 9.48055,-0.05271 3.97156,0 7.28769,0.05233 10.40763,0.157613 3.78317,0.135358 7.58116,1.241155 10.39214,3.015837 7.92803,4.963091 10.36241,14.144916 6.24769,23.356713 -2.98432,6.670094 -9.72204,10.971426 -17.16022,10.971426 -1.34895,0 -2.69023,-0.13564 -4.00904,-0.42891 -5.1095,-1.10542 -9.72156,-3.857407 -14.48438,-8.647541 -1.64288,-1.654364 -2.95404,-2.978113 -3.50419,-2.978113 -0.58783,0 -2.01959,1.271021 -3.8132,2.857707 -2.93156,2.601864 -5.85592,5.203755 -8.80256,7.835697 l -2.79569,2.48151 c 0.27884,0.30831 0.81388,0.93224 0.81388,0.93224 1.16811,1.32349 2.29079,2.56461 3.42874,3.75274 9.54828,10.0089 20.30275,14.88178 32.85794,14.88178 3.18026,0 6.52624,-0.33125 9.92497,-0.98547 12.60044,-2.39131 22.54792,-9.70065 27.989,-20.53673 5.64457,-11.234638 5.61451,-24.860412 -0.0527,-36.433438 -5.75009,-11.730945 -15.78084,-18.040223 -30.67979,-19.280994 -2.59244,-0.225594 -5.24481,-0.375954 -7.83725,-0.518832 l -0.65577,-0.05271 c -1.05505,-0.05264 -2.12511,-0.119907 -3.18016,-0.187585 l -1.49966,-0.0832 v -22.2436 h 40.17481 V 2.8876783 Z m 1.74977,1.7497637 h 61.08514 v 17.142105 h -40.17481 v 25.649081 l 3.15228,0.174665 -0.0151,-5.29e-4 c 1.03921,0.06666 2.09929,0.132532 3.15228,0.185518 l 0.67749,0.05426 0.0222,0.0011 c 2.59057,0.142774 5.22481,0.292735 7.78145,0.515212 h 0.004 l 0.003,5.29e-4 c 14.47472,1.205442 23.74829,7.07552 29.2535,18.306892 5.42949,11.087861 5.44899,24.152926 0.0605,34.877975 -5.19883,10.35371 -14.62694,17.30197 -26.75134,19.60294 l -0.003,5.2e-4 -0.003,5.3e-4 c -3.29713,0.63466 -6.5355,0.95395 -9.59424,0.95395 -12.10236,0 -22.3008,-4.60092 -31.59188,-14.34021 v -10e-4 -0.001 c -1.00169,-1.04585 -2.00531,-2.1617 -3.03806,-3.3259 l 1.49088,-1.32343 0.003,-0.002 c 2.94434,-2.62988 5.86653,-5.230185 8.79637,-7.830531 l 0.003,-0.0016 c 0.89649,-0.793042 1.69313,-1.495963 2.27944,-1.957503 0.13835,-0.10892 0.20505,-0.146471 0.31472,-0.224792 0.0867,0.07133 0.12894,0.09563 0.23358,0.189135 0.5338,0.476855 1.26434,1.209994 2.08619,2.037602 v 5.29e-4 5.3e-4 c 4.92339,4.95163 9.86885,7.93595 15.35046,9.12295 1.45095,0.32224 2.9192,0.46923 4.38372,0.46923 8.11284,0 15.4867,-4.69612 18.7575,-12.006503 v -5.3e-4 -5.29e-4 c 4.39606,-9.841613 1.69741,-20.160169 -6.91636,-25.552962 -3.13452,-1.977523 -7.17913,-3.136006 -11.25874,-3.281969 h -0.003 l -0.003,-5.29e-4 c -3.14217,-0.106026 -6.47959,-0.158128 -10.46652,-0.158128 -3.19405,0 -6.40733,0.03771 -9.48883,0.05271 h -0.006 -0.006 c -2.57288,0.03011 -5.21075,0.06769 -7.81658,0.06769 h -1.75493 z" />
  <path
     id="path19414"
     style="fill:url(#radialGradient19581);fill-opacity:1;stroke:none;stroke-width:7.52798"
     d="M 209.31986,2.8876783 V 65.783581 h 3.50469 c 2.62258,0 5.26741,-0.03762 7.83725,-0.0677 3.08981,-0.01503 6.30031,-0.05271 9.48055,-0.05271 3.97156,0 7.28769,0.05233 10.40763,0.157613 3.78317,0.135358 7.58116,1.241155 10.39214,3.015837 7.92803,4.963091 10.36241,14.144916 6.24769,23.356713 -2.98432,6.670094 -9.72204,10.971426 -17.16022,10.971426 -1.34895,0 -2.69023,-0.13564 -4.00904,-0.42891 -5.1095,-1.10542 -9.72156,-3.857407 -14.48438,-8.647541 -1.64288,-1.654364 -2.95404,-2.978113 -3.50419,-2.978113 -0.58783,0 -2.01959,1.271021 -3.8132,2.857707 -2.93156,2.601864 -5.85592,5.203755 -8.80256,7.835697 l -2.79569,2.48151 c 0.27884,0.30831 0.81388,0.93224 0.81388,0.93224 1.16811,1.32349 2.29079,2.56461 3.42874,3.75274 9.54828,10.0089 20.30275,14.88178 32.85794,14.88178 3.18026,0 6.52624,-0.33125 9.92497,-0.98547 12.60044,-2.39131 22.54792,-9.70065 27.989,-20.53673 5.64457,-11.234638 5.61451,-24.860412 -0.0527,-36.433438 -5.75009,-11.730945 -15.78084,-18.040223 -30.67979,-19.280994 -2.59244,-0.225594 -5.24481,-0.375954 -7.83725,-0.518832 l -0.65577,-0.05271 c -1.05505,-0.05264 -2.12511,-0.119907 -3.18016,-0.187585 l -1.49966,-0.0832 v -22.2436 h 40.17481 V 2.8876783 Z m 1.74977,1.7497637 h 61.08514 v 17.142105 h -40.17481 v 25.649081 l 3.15228,0.174665 -0.0151,-5.29e-4 c 1.03921,0.06666 2.09929,0.132532 3.15228,0.185518 l 0.67749,0.05426 0.0222,0.0011 c 2.59057,0.142774 5.22481,0.292735 7.78145,0.515212 h 0.004 l 0.003,5.29e-4 c 14.47472,1.205442 23.74829,7.07552 29.2535,18.306892 5.42949,11.087861 5.44899,24.152926 0.0605,34.877975 -5.19883,10.35371 -14.62694,17.30197 -26.75134,19.60294 l -0.003,5.2e-4 -0.003,5.3e-4 c -3.29713,0.63466 -6.5355,0.95395 -9.59424,0.95395 -12.10236,0 -22.3008,-4.60092 -31.59188,-14.34021 v -10e-4 -0.001 c -1.00169,-1.04585 -2.00531,-2.1617 -3.03806,-3.3259 l 1.49088,-1.32343 0.003,-0.002 c 2.94434,-2.62988 5.86653,-5.230185 8.79637,-7.830531 l 0.003,-0.0016 c 0.89649,-0.793042 1.69313,-1.495963 2.27944,-1.957503 0.13835,-0.10892 0.20505,-0.146471 0.31472,-0.224792 0.0867,0.07133 0.12894,0.09563 0.23358,0.189135 0.5338,0.476855 1.26434,1.209994 2.08619,2.037602 v 5.29e-4 5.3e-4 c 4.92339,4.95163 9.86885,7.93595 15.35046,9.12295 1.45095,0.32224 2.9192,0.46923 4.38372,0.46923 8.11284,0 15.4867,-4.69612 18.7575,-12.006503 v -5.3e-4 -5.29e-4 c 4.39606,-9.841613 1.69741,-20.160169 -6.91636,-25.552962 -3.13452,-1.977523 -7.17913,-3.136006 -11.25874,-3.281969 h -0.003 l -0.003,-5.29e-4 c -3.14217,-0.106026 -6.47959,-0.158128 -10.46652,-0.158128 -3.19405,0 -6.40733,0.03771 -9.48883,0.05271 h -0.006 -0.006 c -2.57288,0.03011 -5.21075,0.06769 -7.81658,0.06769 h -1.75493 z" />
  <path
     id="path20035"
     style="fill:url(#radialGradient20238);fill-opacity:1;stroke:none;stroke-width:7.52798"
     d="M 209.31986,2.8876783 V 65.783581 h 3.50469 c 2.62258,0 5.26741,-0.03762 7.83725,-0.0677 3.08981,-0.01503 6.30031,-0.05271 9.48055,-0.05271 3.97156,0 7.28769,0.05233 10.40763,0.157613 3.78317,0.135358 7.58116,1.241155 10.39214,3.015837 7.92803,4.963091 10.36241,14.144916 6.24769,23.356713 -2.98432,6.670094 -9.72204,10.971426 -17.16022,10.971426 -1.34895,0 -2.69023,-0.13564 -4.00904,-0.42891 -5.1095,-1.10542 -9.72156,-3.857407 -14.48438,-8.647541 -1.64288,-1.654364 -2.95404,-2.978113 -3.50419,-2.978113 -0.58783,0 -2.01959,1.271021 -3.8132,2.857707 -2.93156,2.601864 -5.85592,5.203755 -8.80256,7.835697 l -2.79569,2.48151 c 0.27884,0.30831 0.81388,0.93224 0.81388,0.93224 1.16811,1.32349 2.29079,2.56461 3.42874,3.75274 9.54828,10.0089 20.30275,14.88178 32.85794,14.88178 3.18026,0 6.52624,-0.33125 9.92497,-0.98547 12.60044,-2.39131 22.54792,-9.70065 27.989,-20.53673 5.64457,-11.234638 5.61451,-24.860412 -0.0527,-36.433438 -5.75009,-11.730945 -15.78084,-18.040223 -30.67979,-19.280994 -2.59244,-0.225594 -5.24481,-0.375954 -7.83725,-0.518832 l -0.65577,-0.05271 c -1.05505,-0.05264 -2.12511,-0.119907 -3.18016,-0.187585 l -1.49966,-0.0832 v -22.2436 h 40.17481 V 2.8876783 Z m 1.74977,1.7497637 h 61.08514 v 17.142105 h -40.17481 v 25.649081 l 3.15228,0.174665 -0.0151,-5.29e-4 c 1.03921,0.06666 2.09929,0.132532 3.15228,0.185518 l 0.67749,0.05426 0.0222,0.0011 c 2.59057,0.142774 5.22481,0.292735 7.78145,0.515212 h 0.004 l 0.003,5.29e-4 c 14.47472,1.205442 23.74829,7.07552 29.2535,18.306892 5.42949,11.087861 5.44899,24.152926 0.0605,34.877975 -5.19883,10.35371 -14.62694,17.30197 -26.75134,19.60294 l -0.003,5.2e-4 -0.003,5.3e-4 c -3.29713,0.63466 -6.5355,0.95395 -9.59424,0.95395 -12.10236,0 -22.3008,-4.60092 -31.59188,-14.34021 v -10e-4 -0.001 c -1.00169,-1.04585 -2.00531,-2.1617 -3.03806,-3.3259 l 1.49088,-1.32343 0.003,-0.002 c 2.94434,-2.62988 5.86653,-5.230185 8.79637,-7.830531 l 0.003,-0.0016 c 0.89649,-0.793042 1.69313,-1.495963 2.27944,-1.957503 0.13835,-0.10892 0.20505,-0.146471 0.31472,-0.224792 0.0867,0.07133 0.12894,0.09563 0.23358,0.189135 0.5338,0.476855 1.26434,1.209994 2.08619,2.037602 v 5.29e-4 5.3e-4 c 4.92339,4.95163 9.86885,7.93595 15.35046,9.12295 1.45095,0.32224 2.9192,0.46923 4.38372,0.46923 8.11284,0 15.4867,-4.69612 18.7575,-12.006503 v -5.3e-4 -5.29e-4 c 4.39606,-9.841613 1.69741,-20.160169 -6.91636,-25.552962 -3.13452,-1.977523 -7.17913,-3.136006 -11.25874,-3.281969 h -0.003 l -0.003,-5.29e-4 c -3.14217,-0.106026 -6.47959,-0.158128 -10.46652,-0.158128 -3.19405,0 -6.40733,0.03771 -9.48883,0.05271 h -0.006 -0.006 c -2.57288,0.03011 -5.21075,0.06769 -7.81658,0.06769 h -1.75493 z" />
  <path
     id="path20334"
     style="fill:url(#radialGradient20539);fill-opacity:1;stroke:none;stroke-width:7.52798"
     d="M 209.31986,2.8876783 V 65.783581 h 3.50469 c 2.62258,0 5.26741,-0.03762 7.83725,-0.0677 3.08981,-0.01503 6.30031,-0.05271 9.48055,-0.05271 3.97156,0 7.28769,0.05233 10.40763,0.157613 3.78317,0.135358 7.58116,1.241155 10.39214,3.015837 7.92803,4.963091 10.36241,14.144916 6.24769,23.356713 -2.98432,6.670094 -9.72204,10.971426 -17.16022,10.971426 -1.34895,0 -2.69023,-0.13564 -4.00904,-0.42891 -5.1095,-1.10542 -9.72156,-3.857407 -14.48438,-8.647541 -1.64288,-1.654364 -2.95404,-2.978113 -3.50419,-2.978113 -0.58783,0 -2.01959,1.271021 -3.8132,2.857707 -2.93156,2.601864 -5.85592,5.203755 -8.80256,7.835697 l -2.79569,2.48151 c 0.27884,0.30831 0.81388,0.93224 0.81388,0.93224 1.16811,1.32349 2.29079,2.56461 3.42874,3.75274 9.54828,10.0089 20.30275,14.88178 32.85794,14.88178 3.18026,0 6.52624,-0.33125 9.92497,-0.98547 12.60044,-2.39131 22.54792,-9.70065 27.989,-20.53673 5.64457,-11.234638 5.61451,-24.860412 -0.0527,-36.433438 -5.75009,-11.730945 -15.78084,-18.040223 -30.67979,-19.280994 -2.59244,-0.225594 -5.24481,-0.375954 -7.83725,-0.518832 l -0.65577,-0.05271 c -1.05505,-0.05264 -2.12511,-0.119907 -3.18016,-0.187585 l -1.49966,-0.0832 v -22.2436 h 40.17481 V 2.8876783 Z m 1.74977,1.7497637 h 61.08514 v 17.142105 h -40.17481 v 25.649081 l 3.15228,0.174665 -0.0151,-5.29e-4 c 1.03921,0.06666 2.09929,0.132532 3.15228,0.185518 l 0.67749,0.05426 0.0222,0.0011 c 2.59057,0.142774 5.22481,0.292735 7.78145,0.515212 h 0.004 l 0.003,5.29e-4 c 14.47472,1.205442 23.74829,7.07552 29.2535,18.306892 5.42949,11.087861 5.44899,24.152926 0.0605,34.877975 -5.19883,10.35371 -14.62694,17.30197 -26.75134,19.60294 l -0.003,5.2e-4 -0.003,5.3e-4 c -3.29713,0.63466 -6.5355,0.95395 -9.59424,0.95395 -12.10236,0 -22.3008,-4.60092 -31.59188,-14.34021 v -10e-4 -0.001 c -1.00169,-1.04585 -2.00531,-2.1617 -3.03806,-3.3259 l 1.49088,-1.32343 0.003,-0.002 c 2.94434,-2.62988 5.86653,-5.230185 8.79637,-7.830531 l 0.003,-0.0016 c 0.89649,-0.793042 1.69313,-1.495963 2.27944,-1.957503 0.13835,-0.10892 0.20505,-0.146471 0.31472,-0.224792 0.0867,0.07133 0.12894,0.09563 0.23358,0.189135 0.5338,0.476855 1.26434,1.209994 2.08619,2.037602 v 5.29e-4 5.3e-4 c 4.92339,4.95163 9.86885,7.93595 15.35046,9.12295 1.45095,0.32224 2.9192,0.46923 4.38372,0.46923 8.11284,0 15.4867,-4.69612 18.7575,-12.006503 v -5.3e-4 -5.29e-4 c 4.39606,-9.841613 1.69741,-20.160169 -6.91636,-25.552962 -3.13452,-1.977523 -7.17913,-3.136006 -11.25874,-3.281969 h -0.003 l -0.003,-5.29e-4 c -3.14217,-0.106026 -6.47959,-0.158128 -10.46652,-0.158128 -3.19405,0 -6.40733,0.03771 -9.48883,0.05271 h -0.006 -0.006 c -2.57288,0.03011 -5.21075,0.06769 -7.81658,0.06769 h -1.75493 z" />
  <path
     id="path20869"
     style="fill:url(#radialGradient21076);fill-opacity:1;stroke:none;stroke-width:7.52798"
     d="M 209.31986,2.8876783 V 65.783581 h 3.50469 c 2.62258,0 5.26741,-0.03762 7.83725,-0.0677 3.08981,-0.01503 6.30031,-0.05271 9.48055,-0.05271 3.97156,0 7.28769,0.05233 10.40763,0.157613 3.78317,0.135358 7.58116,1.241155 10.39214,3.015837 7.92803,4.963091 10.36241,14.144916 6.24769,23.356713 -2.98432,6.670094 -9.72204,10.971426 -17.16022,10.971426 -1.34895,0 -2.69023,-0.13564 -4.00904,-0.42891 -5.1095,-1.10542 -9.72156,-3.857407 -14.48438,-8.647541 -1.64288,-1.654364 -2.95404,-2.978113 -3.50419,-2.978113 -0.58783,0 -2.01959,1.271021 -3.8132,2.857707 -2.93156,2.601864 -5.85592,5.203755 -8.80256,7.835697 l -2.79569,2.48151 c 0.27884,0.30831 0.81388,0.93224 0.81388,0.93224 1.16811,1.32349 2.29079,2.56461 3.42874,3.75274 9.54828,10.0089 20.30275,14.88178 32.85794,14.88178 3.18026,0 6.52624,-0.33125 9.92497,-0.98547 12.60044,-2.39131 22.54792,-9.70065 27.989,-20.53673 5.64457,-11.234638 5.61451,-24.860412 -0.0527,-36.433438 -5.75009,-11.730945 -15.78084,-18.040223 -30.67979,-19.280994 -2.59244,-0.225594 -5.24481,-0.375954 -7.83725,-0.518832 l -0.65577,-0.05271 c -1.05505,-0.05264 -2.12511,-0.119907 -3.18016,-0.187585 l -1.49966,-0.0832 v -22.2436 h 40.17481 V 2.8876783 Z m 1.74977,1.7497637 h 61.08514 v 17.142105 h -40.17481 v 25.649081 l 3.15228,0.174665 -0.0151,-5.29e-4 c 1.03921,0.06666 2.09929,0.132532 3.15228,0.185518 l 0.67749,0.05426 0.0222,0.0011 c 2.59057,0.142774 5.22481,0.292735 7.78145,0.515212 h 0.004 l 0.003,5.29e-4 c 14.47472,1.205442 23.74829,7.07552 29.2535,18.306892 5.42949,11.087861 5.44899,24.152926 0.0605,34.877975 -5.19883,10.35371 -14.62694,17.30197 -26.75134,19.60294 l -0.003,5.2e-4 -0.003,5.3e-4 c -3.29713,0.63466 -6.5355,0.95395 -9.59424,0.95395 -12.10236,0 -22.3008,-4.60092 -31.59188,-14.34021 v -10e-4 -0.001 c -1.00169,-1.04585 -2.00531,-2.1617 -3.03806,-3.3259 l 1.49088,-1.32343 0.003,-0.002 c 2.94434,-2.62988 5.86653,-5.230185 8.79637,-7.830531 l 0.003,-0.0016 c 0.89649,-0.793042 1.69313,-1.495963 2.27944,-1.957503 0.13835,-0.10892 0.20505,-0.146471 0.31472,-0.224792 0.0867,0.07133 0.12894,0.09563 0.23358,0.189135 0.5338,0.476855 1.26434,1.209994 2.08619,2.037602 v 5.29e-4 5.3e-4 c 4.92339,4.95163 9.86885,7.93595 15.35046,9.12295 1.45095,0.32224 2.9192,0.46923 4.38372,0.46923 8.11284,0 15.4867,-4.69612 18.7575,-12.006503 v -5.3e-4 -5.29e-4 c 4.39606,-9.841613 1.69741,-20.160169 -6.91636,-25.552962 -3.13452,-1.977523 -7.17913,-3.136006 -11.25874,-3.281969 h -0.003 l -0.003,-5.29e-4 c -3.14217,-0.106026 -6.47959,-0.158128 -10.46652,-0.158128 -3.19405,0 -6.40733,0.03771 -9.48883,0.05271 h -0.006 -0.006 c -2.57288,0.03011 -5.21075,0.06769 -7.81658,0.06769 h -1.75493 z" />
  <path
     id="path21142"
     style="fill:url(#radialGradient21317);fill-opacity:1;stroke:none;stroke-width:7.52798"
     d="M 209.31986,2.8876783 V 65.783581 h 3.50469 c 2.62258,0 5.26741,-0.03762 7.83725,-0.0677 3.08981,-0.01503 6.30031,-0.05271 9.48055,-0.05271 3.97156,0 7.28769,0.05233 10.40763,0.157613 3.78317,0.135358 7.58116,1.241155 10.39214,3.015837 7.92803,4.963091 10.36241,14.144916 6.24769,23.356713 -2.98432,6.670094 -9.72204,10.971426 -17.16022,10.971426 -1.34895,0 -2.69023,-0.13564 -4.00904,-0.42891 -5.1095,-1.10542 -9.72156,-3.857407 -14.48438,-8.647541 -1.64288,-1.654364 -2.95404,-2.978113 -3.50419,-2.978113 -0.58783,0 -2.01959,1.271021 -3.8132,2.857707 -2.93156,2.601864 -5.85592,5.203755 -8.80256,7.835697 l -2.79569,2.48151 c 0.27884,0.30831 0.81388,0.93224 0.81388,0.93224 1.16811,1.32349 2.29079,2.56461 3.42874,3.75274 9.54828,10.0089 20.30275,14.88178 32.85794,14.88178 3.18026,0 6.52624,-0.33125 9.92497,-0.98547 12.60044,-2.39131 22.54792,-9.70065 27.989,-20.53673 5.64457,-11.234638 5.61451,-24.860412 -0.0527,-36.433438 -5.75009,-11.730945 -15.78084,-18.040223 -30.67979,-19.280994 -2.59244,-0.225594 -5.24481,-0.375954 -7.83725,-0.518832 l -0.65577,-0.05271 c -1.05505,-0.05264 -2.12511,-0.119907 -3.18016,-0.187585 l -1.49966,-0.0832 v -22.2436 h 40.17481 V 2.8876783 Z m 1.74977,1.7497637 h 61.08514 v 17.142105 h -40.17481 v 25.649081 l 3.15228,0.174665 -0.0151,-5.29e-4 c 1.03921,0.06666 2.09929,0.132532 3.15228,0.185518 l 0.67749,0.05426 0.0222,0.0011 c 2.59057,0.142774 5.22481,0.292735 7.78145,0.515212 h 0.004 l 0.003,5.29e-4 c 14.47472,1.205442 23.74829,7.07552 29.2535,18.306892 5.42949,11.087861 5.44899,24.152926 0.0605,34.877975 -5.19883,10.35371 -14.62694,17.30197 -26.75134,19.60294 l -0.003,5.2e-4 -0.003,5.3e-4 c -3.29713,0.63466 -6.5355,0.95395 -9.59424,0.95395 -12.10236,0 -22.3008,-4.60092 -31.59188,-14.34021 v -10e-4 -0.001 c -1.00169,-1.04585 -2.00531,-2.1617 -3.03806,-3.3259 l 1.49088,-1.32343 0.003,-0.002 c 2.94434,-2.62988 5.86653,-5.230185 8.79637,-7.830531 l 0.003,-0.0016 c 0.89649,-0.793042 1.69313,-1.495963 2.27944,-1.957503 0.13835,-0.10892 0.20505,-0.146471 0.31472,-0.224792 0.0867,0.07133 0.12894,0.09563 0.23358,0.189135 0.5338,0.476855 1.26434,1.209994 2.08619,2.037602 v 5.29e-4 5.3e-4 c 4.92339,4.95163 9.86885,7.93595 15.35046,9.12295 1.45095,0.32224 2.9192,0.46923 4.38372,0.46923 8.11284,0 15.4867,-4.69612 18.7575,-12.006503 v -5.3e-4 -5.29e-4 c 4.39606,-9.841613 1.69741,-20.160169 -6.91636,-25.552962 -3.13452,-1.977523 -7.17913,-3.136006 -11.25874,-3.281969 h -0.003 l -0.003,-5.29e-4 c -3.14217,-0.106026 -6.47959,-0.158128 -10.46652,-0.158128 -3.19405,0 -6.40733,0.03771 -9.48883,0.05271 h -0.006 -0.006 c -2.57288,0.03011 -5.21075,0.06769 -7.81658,0.06769 h -1.75493 z" />
</svg>
