<?xml version="1.0" encoding="UTF-8"?>
<!-- Created with Inkscape by VulcanSphere (http://www.inkscape.org/ and http://vulcansphere.com) -->
<svg width="162.48mm" height="37.809mm" version="1.1" viewBox="0 0 162.48 37.809" xmlns="http://www.w3.org/2000/svg">
 <title>WFIE</title>
 <desc>Television station in Evansville, Indiana and Henderson–Owensboro, Kentucky</desc>
 <defs>
  <linearGradient id="SVGID_00000065065845094616214020000005412296662037710470_" x1="26.919" x2="165.6" y1="44.928" y2="136.4" gradientTransform="matrix(1,0,0,-1,0,147.4)" gradientUnits="userSpaceOnUse">
   <stop stop-color="#D2232A" offset="0"/>
   <stop stop-color="#CE2229" offset=".178"/>
   <stop stop-color="#C12026" offset=".3705"/>
   <stop stop-color="#AB1B21" offset=".5699"/>
   <stop stop-color="#8D1519" offset=".7741"/>
   <stop stop-color="#660E10" offset=".98"/>
   <stop stop-color="#620D0F" offset="1"/>
  </linearGradient>
  <linearGradient id="SVGID_00000116956260240368992440000005474790298274624412_" x1="51.964" x2="222.76" y1="128.58" y2="194.14" gradientTransform="matrix(1,0,0,-1,0,147.4)" gradientUnits="userSpaceOnUse">
   <stop stop-color="#D2232A" offset="0"/>
   <stop stop-color="#630809" offset="1"/>
  </linearGradient>
  <linearGradient id="SVGID_00000070802832184160761740000007090795400901630651_" x1="-85.759" x2="41.199" y1="52.321" y2="101.06" gradientTransform="matrix(1,0,0,-1,0,147.4)" gradientUnits="userSpaceOnUse">
   <stop stop-color="#D2232A" offset="0"/>
   <stop stop-color="#630809" offset="1"/>
  </linearGradient>
  <linearGradient id="SVGID_00000135673692603561278270000010789461566868915636_" x1="1.2639" x2="172.02" y1="1.0113" y2="66.56" gradientTransform="matrix(1,0,0,-1,0,147.4)" gradientUnits="userSpaceOnUse">
   <stop stop-color="#D2232A" offset="0"/>
   <stop stop-color="#630809" offset="1"/>
  </linearGradient>
  <linearGradient id="SVGID_00000142152161773990128520000009347573181004991920_" x1="176.3" x2="303.83" y1="91.208" y2="140.16" gradientTransform="matrix(1,0,0,-1,0,147.4)" gradientUnits="userSpaceOnUse">
   <stop stop-color="#D2232A" offset="0"/>
   <stop stop-color="#630809" offset="1"/>
  </linearGradient>
  <linearGradient id="SVGID_00000052806165592122014070000003050458398845145242_" x1="25.996" x2="87.006" y1="52.747" y2="140.94" gradientTransform="matrix(1,0,0,-1,0,147.4)" gradientUnits="userSpaceOnUse">
   <stop stop-color="#fff" offset=".0053343"/>
   <stop stop-color="#FDFDFD" offset=".3812"/>
   <stop stop-color="#F5F5F6" offset=".5654"/>
   <stop stop-color="#E8E9E9" offset=".708"/>
   <stop stop-color="#D5D6D8" offset=".8291"/>
   <stop stop-color="#BEBFC1" offset=".9356"/>
   <stop stop-color="#ABADB0" offset="1"/>
  </linearGradient>
  <linearGradient id="SVGID_00000100370259184722446410000013716509980115004332_" x1="105.99" x2="146" y1="42.692" y2="148.32" gradientTransform="matrix(1,0,0,-1,0,147.4)" gradientUnits="userSpaceOnUse">
   <stop stop-color="#fff" offset="0"/>
   <stop stop-color="#FDFDFD" offset=".3687"/>
   <stop stop-color="#F5F5F6" offset=".5495"/>
   <stop stop-color="#E8E9E9" offset=".6893"/>
   <stop stop-color="#D5D6D8" offset=".8081"/>
   <stop stop-color="#BEBFC1" offset=".9126"/>
   <stop stop-color="#A5A7AA" offset=".9939"/>
  </linearGradient>
  <linearGradient id="SVGID_00000181806133922641640540000014590689870197782445_" x1="25.451" x2="56.27" y1="119.86" y2="139.45" gradientTransform="matrix(1,0,0,-1,0,147.4)" gradientUnits="userSpaceOnUse">
   <stop stop-color="#8A7E70" offset=".005618"/>
   <stop stop-color="#91867A" offset=".020372"/>
   <stop stop-color="#B8B1A9" offset=".1054"/>
   <stop stop-color="#D7D3CE" offset=".1864"/>
   <stop stop-color="#EDEBE9" offset=".2611"/>
   <stop stop-color="#FAFAF9" offset=".3275"/>
   <stop stop-color="#fff" offset=".3786"/>
   <stop stop-color="#FBFAFA" offset=".4676"/>
   <stop stop-color="#EFEDEB" offset=".5755"/>
   <stop stop-color="#DAD7D2" offset=".6933"/>
   <stop stop-color="#BEB8B0" offset=".8181"/>
   <stop stop-color="#9A9085" offset=".947"/>
   <stop stop-color="#8A7E70" offset="1"/>
  </linearGradient>
  <linearGradient id="SVGID_00000071538770624838171890000009632530675528289945_" x1="-4.4796" x2="175.83" y1="118.97" y2="119.9" gradientTransform="matrix(1,0,0,-1,0,147.4)" gradientUnits="userSpaceOnUse">
   <stop stop-color="#8A7E70" offset=".005618"/>
   <stop stop-color="#9B9085" offset=".355"/>
   <stop stop-color="#C2BCB4" offset="1"/>
  </linearGradient>
  <linearGradient id="SVGID_00000005256572068938817990000001769932595909832348_" x1="29.194" x2="59.327" y1="45.05" y2="136.53" gradientTransform="matrix(1,0,0,-1,0,147.4)" gradientUnits="userSpaceOnUse">
   <stop stop-color="#6B6C6F" offset=".005618"/>
   <stop stop-color="#8A7E70" offset=".1404"/>
   <stop stop-color="#A59C92" offset=".1801"/>
   <stop stop-color="#BFB9B1" offset=".226"/>
   <stop stop-color="#D2CDC8" offset=".2705"/>
   <stop stop-color="#DDDAD6" offset=".3126"/>
   <stop stop-color="#E1DEDA" offset=".3499"/>
   <stop stop-color="#D6D1CD" offset=".4191"/>
   <stop stop-color="#B8B1A8" offset=".5492"/>
   <stop stop-color="#8A7E70" offset=".7191"/>
   <stop stop-color="#6B6C6F" offset="1"/>
  </linearGradient>
  <linearGradient id="SVGID_00000053532217429841048640000011668721481486909834_" x1="31.6" x2="59.959" y1="44.55" y2="44.55" gradientTransform="matrix(1,0,0,-1,0,147.4)" gradientUnits="userSpaceOnUse">
   <stop stop-color="#6B6C6F" offset=".005618"/>
   <stop stop-color="#8A7E70" offset=".1404"/>
   <stop stop-color="#A59C92" offset=".1801"/>
   <stop stop-color="#BFB9B1" offset=".226"/>
   <stop stop-color="#D2CDC8" offset=".2705"/>
   <stop stop-color="#DDDAD6" offset=".3126"/>
   <stop stop-color="#E1DEDA" offset=".3499"/>
   <stop stop-color="#D6D1CD" offset=".4191"/>
   <stop stop-color="#B8B1A8" offset=".5492"/>
   <stop stop-color="#8A7E70" offset=".7191"/>
   <stop stop-color="#6B6C6F" offset="1"/>
  </linearGradient>
  <linearGradient id="SVGID_00000021117095218355517250000015257986155088933025_" x1="51.902" x2="81.909" y1="140.75" y2="141.08" gradientTransform="matrix(1,0,0,-1,0,147.4)" gradientUnits="userSpaceOnUse">
   <stop stop-color="#E1DEDA" offset="0"/>
   <stop stop-color="#E1DDDA" offset=".001833"/>
   <stop stop-color="#C5C3BA" offset=".1815"/>
   <stop stop-color="#B0AEA1" offset=".3664"/>
   <stop stop-color="#A19F8F" offset=".5597"/>
   <stop stop-color="#989684" offset=".7644"/>
   <stop stop-color="#959381" offset="1"/>
  </linearGradient>
  <linearGradient id="SVGID_00000063621957464864507630000017495042495829086601_" x1="-4.3413" x2="156.72" y1="92.261" y2="93.09" gradientTransform="matrix(1,0,0,-1,0,147.4)" gradientUnits="userSpaceOnUse">
   <stop stop-color="#E4E1DE" offset="0"/>
   <stop stop-color="#E2DFDC" offset=".2218"/>
   <stop stop-color="#DCD8D4" offset=".3458"/>
   <stop stop-color="#D1CBC6" offset=".4457"/>
   <stop stop-color="#C1BAB3" offset=".5323"/>
   <stop stop-color="#AFA69D" offset=".6011"/>
   <stop stop-color="#8A7E70" offset="1"/>
  </linearGradient>
  <linearGradient id="SVGID_00000116201657551404124200000012986497267113965225_" x1="113.92" x2="162.79" y1="140.95" y2="140.95" gradientTransform="matrix(1,0,0,-1,0,147.4)" gradientUnits="userSpaceOnUse">
   <stop stop-color="#E4E1DE" offset="0"/>
   <stop stop-color="#E2DFDC" offset=".07958"/>
   <stop stop-color="#DCD8D4" offset=".1241"/>
   <stop stop-color="#D1CBC6" offset=".1599"/>
   <stop stop-color="#C1BAB3" offset=".191"/>
   <stop stop-color="#AFA69D" offset=".2157"/>
   <stop stop-color="#979482" offset="1"/>
  </linearGradient>
  <linearGradient id="SVGID_00000106113380084159378370000013729713758818580671_" x1="125.58" x2="179.98" y1="101.47" y2="124.47" gradientTransform="matrix(1,0,0,-1,0,147.4)" gradientUnits="userSpaceOnUse">
   <stop stop-color="#E4E1DE" offset="0"/>
   <stop stop-color="#E2DFDC" offset=".2218"/>
   <stop stop-color="#DCD8D4" offset=".3458"/>
   <stop stop-color="#D1CBC6" offset=".4457"/>
   <stop stop-color="#C1BAB3" offset=".5323"/>
   <stop stop-color="#AFA69D" offset=".6011"/>
   <stop stop-color="#8A7E70" offset="1"/>
  </linearGradient>
  <linearGradient id="SVGID_00000034065793635740523990000002423285862213229960_" x1="117.49" x2="191.27" y1="87.773" y2="88.153" gradientTransform="matrix(1,0,0,-1,0,147.4)" gradientUnits="userSpaceOnUse">
   <stop stop-color="#B2AAA1" offset=".005618"/>
   <stop stop-color="#9F968D" offset=".3154"/>
   <stop stop-color="#766E63" offset="1"/>
  </linearGradient>
  <linearGradient id="SVGID_00000157994673910894276740000003101911287526424734_" x1="-4.2658" x2="176.05" y1="77.329" y2="78.257" gradientTransform="matrix(1,0,0,-1,0,147.4)" gradientUnits="userSpaceOnUse">
   <stop stop-color="#8A7E70" offset="0"/>
   <stop stop-color="#C0B9B2" offset=".2865"/>
   <stop stop-color="#BEB7AF" offset=".4506"/>
   <stop stop-color="#B7B0A7" offset=".5422"/>
   <stop stop-color="#AFA69D" offset=".6011"/>
   <stop stop-color="#8A7E70" offset="1"/>
  </linearGradient>
  <linearGradient id="SVGID_00000179631929043717331170000016342670816237207195_" x1="147.33" x2="174.61" y1="68.5" y2="68.5" gradientTransform="matrix(1,0,0,-1,0,147.4)" gradientUnits="userSpaceOnUse">
   <stop stop-color="#C0B9B2" offset=".5909"/>
   <stop stop-color="#BEB7AF" offset=".7571"/>
   <stop stop-color="#B7B1A7" offset=".8501"/>
   <stop stop-color="#ABA699" offset=".925"/>
   <stop stop-color="#9A9786" offset=".9899"/>
   <stop stop-color="#979482" offset="1"/>
  </linearGradient>
  <linearGradient id="SVGID_00000127762363944906502850000015223725936779387288_" x1="83.474" x2="149.32" y1="44.55" y2="44.55" gradientTransform="matrix(1,0,0,-1,0,147.4)" gradientUnits="userSpaceOnUse">
   <stop stop-color="#C0B9B2" offset="0"/>
   <stop stop-color="#B9B3AA" offset=".095003"/>
   <stop stop-color="#A6A294" offset=".4139"/>
   <stop stop-color="#9B9786" offset=".7208"/>
   <stop stop-color="#979482" offset="1"/>
  </linearGradient>
  <linearGradient id="SVGID_00000049933821900361176520000006681739823225412286_" x1="90.537" x2="174.4" y1="39.606" y2="133.59" gradientTransform="matrix(1,0,0,-1,0,147.4)" gradientUnits="userSpaceOnUse">
   <stop stop-color="#6B6C6F" offset=".1215"/>
   <stop stop-color="#6F6E6F" offset=".1627"/>
   <stop stop-color="#7C7670" offset=".2053"/>
   <stop stop-color="#8A7E70" offset=".2367"/>
   <stop stop-color="#A59C92" offset=".2623"/>
   <stop stop-color="#BFB9B1" offset=".2919"/>
   <stop stop-color="#D2CDC8" offset=".3207"/>
   <stop stop-color="#DDDAD6" offset=".3479"/>
   <stop stop-color="#E1DEDA" offset=".372"/>
   <stop stop-color="#D6D1CD" offset=".3989"/>
   <stop stop-color="#B8B1A8" offset=".4494"/>
   <stop stop-color="#8A7E70" offset=".5155"/>
   <stop stop-color="#7D7770" offset=".5412"/>
   <stop stop-color="#706F6F" offset=".5829"/>
   <stop stop-color="#6B6C6F" offset=".6195"/>
  </linearGradient>
  <linearGradient id="SVGID_00000025428687397789611150000008183285845696075435_" x1="61.66" x2="135.09" y1="50.978" y2="113.67" gradientTransform="matrix(1,0,0,-1,0,147.4)" gradientUnits="userSpaceOnUse">
   <stop stop-color="#E4E1DE" offset="0"/>
   <stop stop-color="#E2DFDC" offset=".3176"/>
   <stop stop-color="#DBD8D4" offset=".4953"/>
   <stop stop-color="#CFCCC6" offset=".6384"/>
   <stop stop-color="#BEBBB2" offset=".7631"/>
   <stop stop-color="#A8A599" offset=".8747"/>
   <stop stop-color="#8F8B7C" offset=".973"/>
  </linearGradient>
  <linearGradient id="SVGID_00000002379239527985652490000011733462057299575971_" x1="-4.3154" x2="176" y1="87.14" y2="88.068" gradientTransform="matrix(1,0,0,-1,0,147.4)" gradientUnits="userSpaceOnUse">
   <stop stop-color="#A79D93" offset="0"/>
   <stop stop-color="#9E9889" offset=".6655"/>
   <stop stop-color="#979482" offset="1"/>
  </linearGradient>
  <linearGradient id="SVGID_00000117647405225794751420000015152893035759213699_" x1="-4.2665" x2="176.04" y1="77.592" y2="78.52" gradientTransform="matrix(1,0,0,-1,0,147.4)" gradientUnits="userSpaceOnUse">
   <stop stop-color="#fff" offset=".005618"/>
   <stop stop-color="#FFFEFD" offset=".096175"/>
   <stop stop-color="#FDFCF6" offset=".1288"/>
   <stop stop-color="#FBF8EB" offset=".1521"/>
   <stop stop-color="#F8F2DA" offset=".1709"/>
   <stop stop-color="#F4EAC4" offset=".1868"/>
   <stop stop-color="#F1E4B2" offset=".1966"/>
   <stop stop-color="#DED5B1" offset=".5351"/>
   <stop stop-color="#BDBBB0" offset="1"/>
  </linearGradient>
  <linearGradient id="SVGID_00000083050210457998863280000005247833764541171093_" x1="16.458" x2="144.18" y1="68.436" y2="69.094" gradientTransform="matrix(1,0,0,-1,0,147.4)" gradientUnits="userSpaceOnUse">
   <stop stop-color="#AFA69D" offset="0"/>
   <stop stop-color="#979482" offset="1"/>
  </linearGradient>
  <linearGradient id="SVGID_00000083787718284332779840000006298072299482141075_" x1="70.192" x2="72.292" y1="72.08" y2="82.816" gradientTransform="matrix(1,0,0,-1,0,147.4)" gradientUnits="userSpaceOnUse">
   <stop stop-color="#AFA69D" offset="0"/>
   <stop stop-color="#979482" offset="1"/>
  </linearGradient>
  <linearGradient id="SVGID_00000042000657049833215640000016736352261466008971_" x1="68.858" x2="139.09" y1="80.246" y2="143.54" gradientTransform="matrix(1,0,0,-1,0,147.4)" gradientUnits="userSpaceOnUse">
   <stop stop-color="#8A7E70" offset=".005618"/>
   <stop stop-color="#91867A" offset=".02894"/>
   <stop stop-color="#B8B1A9" offset=".1634"/>
   <stop stop-color="#D7D3CE" offset=".2913"/>
   <stop stop-color="#EDEBE9" offset=".4095"/>
   <stop stop-color="#FAFAF9" offset=".5144"/>
   <stop stop-color="#fff" offset=".5952"/>
   <stop stop-color="#FBFBFA" offset=".6578"/>
   <stop stop-color="#EEEEEB" offset=".7337"/>
   <stop stop-color="#DAD9D2" offset=".8165"/>
   <stop stop-color="#BDBCB0" offset=".9042"/>
   <stop stop-color="#999685" offset=".995"/>
   <stop stop-color="#979482" offset="1"/>
  </linearGradient>
 </defs>
 <g transform="translate(-16.933 -55.033)">
  <g fill="#b3b3b3" stroke-width=".26458">
   <path d="m96.282 56.938-5.6885 26.114h-7.964l-3.8894-13.679-2.9633 13.679h-7.3554l5.7415-26.114h8.0433l3.7835 13.361 2.8575-13.361z"/>
   <path d="m117.66 56.938-1.2435 5.7679h-11.271l-0.87313 4.0217h10.848l-1.2435 5.715h-10.848l-1.0583 4.7625h13.018l-1.1906 5.7944h-20.849l5.6885-26.114h19.024z"/>
   <path d="m155.05 56.938-12.859 26.114h-8.255l0.23813-14.711-6.1912 14.711h-8.3079l-0.9525-26.114h7.8846l0.34396 15.716 5.7679-15.716h7.4083l-0.76729 15.716 6.8792-15.716z"/>
   <path d="m175.95 61.754-5.8208 4.101c-0.3175-0.635-0.58208-1.0848-0.74083-1.3494-1.0319-1.4552-2.5929-2.196-4.6831-2.196-1.9844 0-2.9633 0.58208-2.9633 1.7462 0 0.76729 0.79375 1.4288 2.3548 1.9579l2.7517 0.92604c2.249 0.79375 3.8365 1.5081 4.7625 2.1696 1.7727 1.27 2.6458 3.0427 2.6458 5.371 0 2.7781-1.0583 5.0271-3.2015 6.694-2.1431 1.6669-5.0006 2.5135-8.5725 2.5135-4.6038 0-8.0962-1.2435-10.451-3.7042-0.52917-0.55562-1.1377-1.3494-1.7727-2.3283l6.0854-4.3656c0.26458 0.74083 0.55562 1.3229 0.92604 1.7727 1.3494 1.7198 3.175 2.5929 5.4769 2.5929 2.0902 0 3.1485-0.74083 3.1485-2.2225 0-0.60854-0.23813-1.0848-0.74084-1.4552-0.39687-0.26458-1.6669-0.76729-3.7835-1.4817-2.2225-0.74083-3.7571-1.4288-4.6302-2.0373-1.8785-1.3229-2.831-3.175-2.831-5.5562 0-2.6723 1.0054-4.7625 2.9898-6.35 1.9844-1.561 4.6831-2.3548 8.0962-2.3548 4.9477 0.07937 8.6254 1.905 10.954 5.5562z"/>
   <path class="st11" d="m20.902 87.63-0.18521 0.84667h-1.3494l-0.97896 4.3127h-0.97896l1.0054-4.3127h-1.4817l0.18521-0.84667z"/>
   <path class="st11" d="m25.691 87.63-1.1906 5.1594h-0.97896l0.52917-2.3019h-2.249l-0.52917 2.3019h-0.97896l1.1906-5.1594h0.97896l-0.47625 2.0373h2.249l0.47625-2.0373z"/>
   <path class="st11" d="m30.189 87.63-0.18521 0.84667h-2.5665l-0.29104 1.2171h2.4342l-0.18521 0.82021h-2.4342l-0.3175 1.4288h2.9369l-0.18521 0.84667h-3.8894l1.1906-5.1594z"/>
   <path class="st11" d="m36.724 87.63-0.18521 0.84667h-1.3494l-0.97896 4.3127h-0.97896l1.0054-4.3127h-1.4817l0.18521-0.84667z"/>
   <path class="st11" d="m40.905 88.979c0 0.60854-0.21167 1.0583-0.66146 1.3758-0.18521 0.13229-0.39688 0.21167-0.635 0.26458l0.68792 2.1431h-1.0054l-0.60854-2.0373h-1.0848l-0.47625 2.0373h-0.9525l1.1906-5.1594h1.5346c0.55562 0 0.9525 0.02646 1.1377 0.10583 0.29104 0.07937 0.50271 0.23812 0.66146 0.47625 0.13229 0.23812 0.21167 0.50271 0.21167 0.79375zm-1.0054 0.10583c0-0.23812-0.10583-0.42333-0.29104-0.52917-0.13229-0.07937-0.39688-0.13229-0.79375-0.13229h-0.71438l-0.37042 1.561h0.89958c0.29104 0 0.47625-0.02646 0.60854-0.05292 0.21167-0.05292 0.37042-0.15875 0.47625-0.3175 0.13229-0.13229 0.18521-0.3175 0.18521-0.52917z"/>
   <path class="st11" d="m43.048 87.63-1.2171 5.1594h-0.97896l1.1906-5.1594z"/>
   <path class="st11" d="m45.376 90.144-0.18521 0.82021h-2.1167l0.18521-0.82021z"/>
   <path class="st11" d="m50.112 88.609-0.84667 0.42333c-0.02646-0.07937-0.07937-0.15875-0.10583-0.23812-0.21167-0.29104-0.52917-0.44979-0.97896-0.44979-0.26458 0-0.47625 0.05292-0.635 0.18521-0.15875 0.10583-0.23812 0.23812-0.23812 0.39688 0 0.07937 0.02646 0.15875 0.05292 0.23812 0.05292 0.13229 0.29104 0.26458 0.635 0.39688 0.60854 0.21167 1.0054 0.39688 1.1906 0.50271 0.39688 0.26458 0.58208 0.635 0.58208 1.0848 0 0.44979-0.18521 0.84667-0.55562 1.1642-0.42333 0.37042-0.92604 0.52917-1.561 0.52917-0.52917 0-1.0054-0.13229-1.3494-0.39688-0.37042-0.26458-0.60854-0.60854-0.68792-1.0583l0.92604-0.34396c0 0.05292 0.02646 0.13229 0.05292 0.18521 0.15875 0.50271 0.55562 0.74083 1.1906 0.74083 0.15875 0 0.29104-0.02646 0.39688-0.05292 0.37042-0.10583 0.55562-0.34396 0.55562-0.68792 0-0.18521-0.10583-0.34396-0.29104-0.47625-0.10583-0.05292-0.26458-0.13229-0.52917-0.23812-0.42333-0.15875-0.71438-0.26458-0.87312-0.34396-0.3175-0.15875-0.52917-0.37042-0.66146-0.60854-0.07937-0.15875-0.13229-0.34396-0.13229-0.52917 0-0.37042 0.13229-0.68792 0.39688-0.9525 0.37042-0.39688 0.89958-0.58208 1.561-0.58208 0.52917 0 0.9525 0.13229 1.2965 0.37042 0.13229 0.10583 0.26458 0.21167 0.34396 0.3175 0.10583 0.13229 0.18521 0.26458 0.26458 0.42333z"/>
   <path class="st11" d="m54.689 87.63-0.18521 0.84667h-1.3494l-1.0054 4.3127h-0.97896l1.0054-4.3127h-1.4817l0.18521-0.84667z"/>
   <path class="st11" d="m58.341 92.789h-0.97896l-0.10583-1.0848h-1.8785l-0.58208 1.0848h-1.0583l2.9633-5.1594h1.0848zm-1.1377-1.8785-0.15875-2.3019-1.2171 2.3019z"/>
   <path class="st11" d="m63.368 87.63-0.18521 0.84667h-1.3494l-1.0054 4.3127h-0.9525l1.0054-4.3127h-1.4817l0.18521-0.84667z"/>
   <path class="st11" d="m67.495 87.63-0.18521 0.84667h-2.5665l-0.29104 1.2171h2.4342l-0.18521 0.82021h-2.4342l-0.3175 1.4288h2.9369l-0.18521 0.84667h-3.9158l1.1906-5.1594z"/>
   <path class="st11" d="m69.453 87.63-0.23812 0.97896c-0.02646 0.15875-0.10583 0.34396-0.18521 0.58208-0.18521 0.29104-0.44979 0.44979-0.79375 0.44979h-0.18521l0.10583-0.44979c0.15875 0 0.26458-0.05292 0.34396-0.18521 0.02646-0.05292 0.07937-0.18521 0.13229-0.37042h-0.39688l0.23812-0.97896h0.97896z"/>
   <path class="st11" d="m73.739 88.609-0.84667 0.42333c-0.02646-0.07937-0.07937-0.15875-0.10583-0.23812-0.21167-0.29104-0.52917-0.44979-0.97896-0.44979-0.26458 0-0.47625 0.05292-0.635 0.18521-0.15875 0.10583-0.23812 0.23812-0.23812 0.39688 0 0.07937 0.02646 0.15875 0.05292 0.23812 0.05292 0.13229 0.29104 0.26458 0.635 0.39688 0.60854 0.21167 1.0054 0.39688 1.1906 0.50271 0.39688 0.26458 0.58208 0.635 0.58208 1.0848 0 0.44979-0.18521 0.84667-0.55562 1.1642-0.42333 0.37042-0.92604 0.52917-1.561 0.52917-0.52917 0-1.0054-0.13229-1.3494-0.39688-0.37042-0.26458-0.60854-0.60854-0.68792-1.0583l0.92604-0.34396c0 0.05292 0.02646 0.13229 0.05292 0.18521 0.15875 0.50271 0.55562 0.74083 1.1906 0.74083 0.15875 0 0.29104-0.02646 0.39688-0.05292 0.37042-0.10583 0.55562-0.34396 0.55562-0.68792 0-0.18521-0.10583-0.34396-0.29104-0.47625-0.10583-0.05292-0.26458-0.13229-0.52917-0.23812-0.42333-0.15875-0.71438-0.26458-0.87312-0.34396-0.3175-0.15875-0.52917-0.37042-0.66146-0.60854-0.07937-0.15875-0.13229-0.34396-0.13229-0.52917 0-0.37042 0.13229-0.68792 0.39688-0.9525 0.37042-0.39688 0.89958-0.58208 1.561-0.58208 0.52917 0 0.9525 0.13229 1.2965 0.37042 0.13229 0.10583 0.26458 0.21167 0.34396 0.3175 0.10583 0.13229 0.18521 0.26458 0.26458 0.42333z"/>
   <path class="st11" d="m81.254 87.63-1.1906 5.1594h-0.87312l-1.5875-3.7835-0.79375 3.7835h-0.9525l1.1906-5.1594h0.87312l1.561 3.81 0.82021-3.81z"/>
   <path class="st11" d="m85.751 87.63-0.18521 0.84667h-2.5665l-0.29104 1.2171h2.4342l-0.18521 0.82021h-2.4342l-0.3175 1.4288h2.9369l-0.18521 0.84667h-3.9158l1.1906-5.1594z"/>
   <path class="st11" d="m92.392 87.63-2.3548 5.1594h-1.1112l0.10583-3.6248-1.561 3.6248h-1.1377v-5.1594h0.9525l-0.13229 4.0217 1.7198-4.0217h0.9525l-0.13229 4.0217 1.7198-4.0217z"/>
   <path class="st11" d="m96.255 88.609-0.84667 0.42333c-0.02646-0.07937-0.07937-0.15875-0.10583-0.23812-0.21167-0.29104-0.52917-0.44979-0.97896-0.44979-0.26458 0-0.47625 0.05292-0.635 0.18521-0.15875 0.10583-0.23812 0.23812-0.23812 0.39688 0 0.07937 0.02646 0.15875 0.05292 0.23812 0.05292 0.13229 0.29104 0.26458 0.635 0.39688 0.60854 0.21167 1.0054 0.39688 1.1906 0.50271 0.39688 0.26458 0.58208 0.635 0.58208 1.0848 0 0.44979-0.18521 0.84667-0.55562 1.1642-0.42333 0.37042-0.92604 0.52917-1.561 0.52917-0.52917 0-1.0054-0.13229-1.3494-0.39688-0.37042-0.26458-0.60854-0.60854-0.68792-1.0583l0.92604-0.34396c0 0.05292 0.02646 0.13229 0.05292 0.18521 0.15875 0.50271 0.55562 0.74083 1.1906 0.74083 0.15875 0 0.29104-0.02646 0.39688-0.05292 0.37042-0.10583 0.55562-0.34396 0.55562-0.68792 0-0.18521-0.10583-0.34396-0.29104-0.47625-0.10583-0.05292-0.26458-0.13229-0.52917-0.23812-0.42333-0.15875-0.71438-0.26458-0.87312-0.34396-0.3175-0.15875-0.52917-0.37042-0.66146-0.60854-0.07937-0.15875-0.13229-0.34396-0.13229-0.52917 0-0.37042 0.13229-0.68792 0.39688-0.9525 0.37042-0.39688 0.89958-0.58208 1.561-0.58208 0.52917 0 0.9525 0.13229 1.2965 0.37042 0.13229 0.10583 0.26458 0.21167 0.34396 0.3175 0.10583 0.13229 0.18521 0.26458 0.26458 0.42333z"/>
   <path class="st11" d="m102.63 92.789h-0.97895l-0.10584-1.0848h-1.8785l-0.58208 1.0848h-1.0583l2.9633-5.1594h1.0848zm-1.1642-1.8785-0.15875-2.3019-1.2171 2.3019z"/>
   <path class="st11" d="m108.48 87.63-1.1906 5.1594h-0.84667l-1.5875-3.7835-0.79375 3.7835h-0.9525l1.1906-5.1594h0.87312l1.561 3.81 0.8202-3.81h0.92605z"/>
   <path class="st11" d="m113.43 89.773c0 0.3175-0.0264 0.60854-0.10583 0.87312-0.13229 0.44979-0.3175 0.84667-0.60854 1.1906-0.29104 0.37042-0.66146 0.60854-1.0848 0.76729-0.3175 0.10583-0.79375 0.15875-1.4023 0.15875h-1.9315l1.1906-5.1594h0.97896c0.52917 0 0.89958 0 1.0848 0.02646 0.29104 0.02646 0.52917 0.07937 0.71438 0.15875 0.76729 0.29104 1.1642 0.9525 1.1642 1.9844zm-1.0054 0.02646c0-0.13229 0-0.23812-0.0265-0.3175-0.0794-0.42333-0.26458-0.68792-0.58208-0.84667-0.21167-0.10583-0.66146-0.15875-1.3229-0.15875h-0.23813l-0.79375 3.466h0.21167c0.50271 0 0.84667 0 1.0319-0.02646 0.60854-0.05292 1.0848-0.3175 1.3758-0.79375 0.23812-0.39688 0.34396-0.82021 0.34396-1.3229z"/>
   <path class="st11" d="m122.5 87.63-2.3548 5.1594h-1.1112l0.10583-3.6248-1.561 3.6248h-1.1377v-5.1594h0.9525l-0.13229 4.0217 1.7198-4.0217h0.9525l-0.13229 4.0217 1.7198-4.0217z"/>
   <path class="st11" d="m126.5 87.63-0.18521 0.84667h-2.5665l-0.29104 1.2171h2.4342l-0.18521 0.82021h-2.4342l-0.3175 1.4288h2.9369l-0.18521 0.84667h-3.8894l1.1906-5.1594z"/>
   <path class="st11" d="m130.62 92.789h-0.97896l-0.10583-1.0848h-1.8785l-0.58209 1.0848h-1.0583l2.9633-5.1594h1.0848zm-1.1377-1.8785-0.15875-2.3019-1.2171 2.3019z"/>
   <path class="st11" d="m135.65 87.63-0.18521 0.84667h-1.3494l-1.0054 4.3127h-0.97896l1.0054-4.3127h-1.4817l0.18521-0.84667z"/>
   <path class="st11" d="m140.44 87.63-1.1906 5.1594h-0.97896l0.52916-2.3019h-2.249l-0.52917 2.3019h-0.97896l1.1906-5.1594h0.97895l-0.47625 2.0373h2.249l0.47625-2.0373z"/>
   <path class="st11" d="m144.94 87.63-0.18521 0.84667h-2.5665l-0.29104 1.2171h2.4342l-0.18521 0.82021h-2.4342l-0.3175 1.4288h2.9369l-0.18521 0.84667h-3.8894l1.1906-5.1594z"/>
   <path class="st11" d="m149.57 88.979c0 0.60854-0.21167 1.0583-0.66146 1.3758-0.18521 0.13229-0.39688 0.21167-0.635 0.26458l0.68791 2.1431h-1.0054l-0.60854-2.0373h-1.0848l-0.47625 2.0373h-0.97895l1.1906-5.1594h1.5346c0.55563 0 0.9525 0.02646 1.1377 0.10583 0.29104 0.07937 0.50271 0.23812 0.66146 0.47625s0.23813 0.50271 0.23813 0.79375zm-1.0054 0.10583c0-0.23812-0.10583-0.42333-0.26458-0.52917-0.1323-0.07937-0.39688-0.13229-0.79375-0.13229h-0.71438l-0.37042 1.561h0.89959c0.26458 0 0.47625-0.02646 0.60854-0.05292 0.21167-0.05292 0.37042-0.15875 0.47625-0.3175 0.10583-0.13229 0.15875-0.3175 0.15875-0.52917z"/>
   <path class="st11" d="m155.05 91.943-0.18521 0.84667h-3.2015l1.1906-5.1594h0.97896l-1.0054 4.3127z"/>
   <path class="st11" d="m160.15 87.63-0.18521 0.84667h-2.5665l-0.29104 1.2171h2.4342l-0.18521 0.82021h-2.4342l-0.3175 1.4288h2.9369l-0.18521 0.84667h-3.8894l1.1906-5.1594z"/>
   <path class="st11" d="m164.25 92.789h-0.97896l-0.10583-1.0848h-1.8785l-0.58209 1.0848h-1.0583l2.9633-5.1594h1.0848zm-1.1377-1.8785-0.15875-2.3019-1.2171 2.3019z"/>
   <path class="st11" d="m169.89 89.773c0 0.3175-0.0265 0.60854-0.10584 0.87312-0.13229 0.44979-0.3175 0.84667-0.60854 1.1906-0.29104 0.37042-0.66146 0.60854-1.0848 0.76729-0.3175 0.10583-0.79375 0.15875-1.4023 0.15875h-1.9315l1.1906-5.1594h0.97896c0.52917 0 0.89959 0 1.0848 0.02646 0.29105 0.02646 0.52917 0.07937 0.71438 0.15875 0.79375 0.29104 1.1642 0.9525 1.1642 1.9844zm-0.97896 0.02646c0-0.13229 0-0.23812-0.0265-0.3175-0.0794-0.42333-0.26458-0.68792-0.58208-0.84667-0.21167-0.10583-0.66146-0.15875-1.3229-0.15875h-0.23813l-0.79375 3.466h0.21167c0.50271 0 0.84667 0 1.0319-0.02646 0.60854-0.05292 1.0848-0.3175 1.3758-0.79375 0.21167-0.39688 0.34396-0.82021 0.34396-1.3229z"/>
   <path class="st11" d="m174.78 87.63-0.18521 0.84667h-2.5665l-0.29104 1.2171h2.4342l-0.18521 0.82021h-2.4342l-0.3175 1.4288h2.9369l-0.18521 0.84667h-3.8894l1.1906-5.1594z"/>
   <path class="st11" d="m179.41 88.979c0 0.60854-0.21167 1.0583-0.66146 1.3758-0.18521 0.13229-0.39688 0.21167-0.635 0.26458l0.68791 2.1431h-1.0054l-0.60854-2.0373h-1.0848l-0.47625 2.0373h-0.9525l1.1906-5.1594h1.5346c0.55563 0 0.9525 0.02646 1.1377 0.10583 0.29104 0.07937 0.50271 0.23812 0.66146 0.47625 0.13229 0.23812 0.21167 0.50271 0.21167 0.79375zm-1.0054 0.10583c0-0.23812-0.10583-0.42333-0.26458-0.52917-0.1323-0.07937-0.39688-0.13229-0.79375-0.13229h-0.71438l-0.37042 1.561h0.89959c0.26458 0 0.47625-0.02646 0.60854-0.05292 0.21167-0.05292 0.37042-0.15875 0.47625-0.3175 0.10583-0.13229 0.15875-0.3175 0.15875-0.52917z"/>
  </g>
  <g transform="matrix(.26458 0 0 .26458 16.933 55.033)">
   <rect x="22.4" y="2.3" width="154.5" height="104.4" fill="url(#SVGID_00000065065845094616214020000005412296662037710470_)"/>
   <polygon points="19.3 0 22.4 2.3 176.7 2.3 180.5 0" fill="url(#SVGID_00000116956260240368992440000005474790298274624412_)"/>
   <polygon points="19.3 109.5 22.4 106.7 22.4 2.3 19.3 0" fill="url(#SVGID_00000070802832184160761740000007090795400901630651_)"/>
   <polygon points="19.3 109.5 22.4 106.7 176.7 106.7 180.4 109.2" fill="url(#SVGID_00000135673692603561278270000010789461566868915636_)"/>
   <polygon points="176.7 2.3 180.5 0 180.4 109.2 176.7 106.7" fill="url(#SVGID_00000142152161773990128520000009347573181004991920_)"/>
   <polygon points="60.3 101.4 78.2 7.7 54.7 7.7 34.1 26.6 50.6 26.6 36.4 101.4" fill="url(#SVGID_00000052806165592122014070000003050458398845145242_)"/>
   <polygon points="74.2 63.5 71.5 77.3 102.5 77.3 119.7 60.9 102.9 60.9 132.6 33.7 120.3 101.4 142.6 101.6 147.3 77.6 154.1 77.6 170.1 60.6 150.1 60.6 160.1 7.6 138.1 7.6" fill="url(#SVGID_00000100370259184722446410000013716509980115004332_)"/>
   <polygon points="25.4 29.8 33.9 26.9 54.8 7.7 53 5.3" display="none" fill="url(#SVGID_00000181806133922641640540000014590689870197782445_)"/>
   <polygon points="25.4 29.8 46.2 29.8 50.6 26.6 34.3 26.6" display="none" fill="url(#SVGID_00000071538770624838171890000009632530675528289945_)"/>
   <polygon points="31.5 104.3 36.4 101.4 50.6 26.6 46.2 29.8" display="none" fill="url(#SVGID_00000005256572068938817990000001769932595909832348_)"/>
   <polygon points="62 104.3 60.3 101.4 36.3 101.4 31.6 104.3" display="none" fill="url(#SVGID_00000053532217429841048640000011668721481486909834_)"/>
   <polygon points="52.9 5.3 80.5 5.2 78.2 7.7 54.7 7.8" display="none" fill="url(#SVGID_00000021117095218355517250000015257986155088933025_)"/>
   <polygon points="78.2 7.7 80.5 5.2 62 104.3 60.3 101.4" display="none" fill="url(#SVGID_00000063621957464864507630000017495042495829086601_)"/>
   <polyline points="136.4 5.2 138 7.7 160.1 7.7 162.7 5.2 136.4 5.2" display="none" fill="url(#SVGID_00000116201657551404124200000012986497267113965225_)"/>
   <polygon points="150.1 60.6 153 58.2 162.7 5.2 160.1 7.7" display="none" fill="url(#SVGID_00000106113380084159378370000013729713758818580671_)"/>
   <polygon points="170.1 60.6 175.6 58.2 153 58.2 150.1 60.6" display="none" fill="url(#SVGID_00000034065793635740523990000002423285862213229960_)"/>
   <polygon points="154.1 77.6 154.4 80.2 175.6 58.2 170.1 60.6" display="none" fill="url(#SVGID_00000157994673910894276740000003101911287526424734_)"/>
   <polygon points="147.3 77.6 148.7 80.2 154.4 80.2 154.1 77.6" display="none" fill="url(#SVGID_00000179631929043717331170000016342670816237207195_)"/>
   <polygon class="st30" points="144.2 104.3 148.7 80.2 147.3 77.6 142.6 101.6" display="none" fill="#b6aea5"/>
   <polygon points="120.3 101.4 142.6 101.4 144.2 104.3 116.7 104.3" display="none" fill="url(#SVGID_00000127762363944906502850000015223725936779387288_)"/>
   <polygon points="127.7 41.6 132.6 33.7 120.3 101.4 116.7 104.3" display="none" fill="url(#SVGID_00000049933821900361176520000006681739823225412286_)"/>
   <polygon points="102.8 61 108.6 58.5 127.7 41.6 132.6 33.7" display="none" fill="url(#SVGID_00000025428687397789611150000008183285845696075435_)"/>
   <polygon points="119.8 60.9 124.9 58.5 108.6 58.4 102.8 60.9" display="none" fill="url(#SVGID_00000002379239527985652490000011733462057299575971_)"/>
   <polygon points="102.4 77.2 102.8 79.9 124.8 58.5 119.6 61" display="none" fill="url(#SVGID_00000117647405225794751420000015152893035759213699_)"/>
   <polygon points="67.6 79.8 71.5 77.3 102.4 77.3 102.8 79.9" display="none" fill="url(#SVGID_00000083050210457998863280000005247833764541171093_)"/>
   <polygon points="71.2 62.1 74.2 63.6 71.5 77.3 67.6 79.8" display="none" fill="url(#SVGID_00000083787718284332779840000006298072299482141075_)"/>
   <polygon points="136.4 5.2 71.2 62.1 74.2 63.6 138.1 7.7" display="none" fill="url(#SVGID_00000042000657049833215640000016736352261466008971_)"/>
  </g>
 </g>
</svg>
