<?xml version="1.0" encoding="UTF-8"?>
<svg width="130px" height="54px" viewBox="0 0 130 54" version="1.1" xmlns="http://www.w3.org/2000/svg" xmlns:xlink="http://www.w3.org/1999/xlink">
    <title>logo/4-color/chicago</title>
    <g id="logo/4-color/chicago" stroke="none" stroke-width="1" fill="none" fill-rule="evenodd">
        <path d="M40.7235134,12.922824 L40.7235134,26.7705142 C40.7235134,28.3313036 39.4582436,29.5965734 37.8974542,29.5965734 C36.3366648,29.5965734 35.071395,28.3313036 35.071395,26.7705142 L35.071395,12.922824 C35.0543866,11.326713 36.3030591,10.0031202 37.8974542,9.92720119 C39.4789492,10.0308443 40.7120939,11.3379776 40.7235134,12.922824 L40.7235134,12.922824 Z M82.8317959,44.8290326 L81.9557175,47.7681342 L83.7643954,47.7681342 L82.9024474,44.8290326 L82.8317959,44.8290326 Z M126.395499,44.2920814 C126.220662,44.1150997 126.008139,43.9798573 125.773766,43.8964331 C125.575346,43.8204484 125.364501,43.7821129 125.152033,43.7833598 C124.944284,43.7835316 124.738329,43.8218487 124.54443,43.8964331 C124.310057,43.9798573 124.097533,44.1150997 123.922697,44.2920814 C123.71654,44.5278037 123.55817,44.8013525 123.456397,45.0975082 C123.312205,45.5152647 123.245174,45.9557578 123.258573,46.3974955 C123.246539,46.8437709 123.313511,47.2886589 123.456397,47.711613 C123.55493,48.0050186 123.713767,48.27456 123.922697,48.5029096 C124.097019,48.6838823 124.309383,48.8238497 124.54443,48.9126882 C124.940284,49.0637626 125.377911,49.0637626 125.773766,48.9126882 C126.008813,48.8238497 126.221177,48.6838823 126.395499,48.5029096 C126.604429,48.27456 126.763266,48.0050186 126.861799,47.711613 C127.004685,47.2886589 127.071657,46.8437709 127.059623,46.3974955 C127.073022,45.9557578 127.005991,45.5152647 126.861799,45.0975082 C126.760026,44.8013525 126.601656,44.5278037 126.395499,44.2920814 L126.395499,44.2920814 Z M9.19882278,47.4290071 L6.37276355,47.4290071 C6.37276355,47.6550918 6.25972118,47.8670463 6.1890697,48.0648704 C6.1102577,48.2409798 6.01063613,48.4070158 5.89233348,48.5594308 C5.77301454,48.7032883 5.62345351,48.8190774 5.4542943,48.8985579 C5.25416911,48.986872 5.03712888,49.03028 4.81843098,49.0257306 C4.51123358,49.0318264 4.20823803,48.953634 3.94235262,48.7996458 C3.7131695,48.6435693 3.52430028,48.4353289 3.39127107,48.1920431 C3.24641549,47.9276753 3.14615776,47.6412246 3.09453485,47.3442253 C3.02612516,47.033363 2.99294534,46.7157848 2.99562278,46.3974955 C2.99353506,46.0792347 3.02670804,45.7617219 3.09453485,45.4507656 C3.14615776,45.1537664 3.24641549,44.8673157 3.39127107,44.6029479 C3.52890663,44.3668715 3.7171043,44.1641971 3.94235262,44.0094754 C4.20549824,43.8489062 4.51044662,43.7702099 4.81843098,43.7833907 C5.07419416,43.7723075 5.32816358,43.8309158 5.55320638,43.9529543 C5.73565656,44.0492184 5.89481668,44.1842633 6.01950615,44.3486025 C6.12797843,44.4876814 6.20945362,44.6458392 6.25972118,44.8149023 C6.30378641,44.9341051 6.33689408,45.0570764 6.35863326,45.18229 L9.18469248,45.18229 C9.13642027,44.115494 8.68729342,43.1062202 7.92709613,42.3562308 C7.06778668,41.6476594 5.97277588,41.289384 4.86082187,41.3529798 C4.18387197,41.3465614 3.51208694,41.4713215 2.88258041,41.7203675 C2.30172766,41.9442781 1.77627633,42.2913653 1.34237813,42.7377488 C0.887671632,43.2171203 0.545016975,43.7914289 0.339127107,44.419254 C-0.103409352,45.7251599 -0.103409352,47.1404826 0.339127107,48.4463884 C0.539163849,49.0318382 0.856496514,49.5703422 1.27172665,50.0289816 C1.7228936,50.4536702 2.25025881,50.7892663 2.82605922,51.0181023 C3.47627931,51.2822385 4.1732397,51.4120173 4.87495216,51.3996203 C5.51464242,51.4147479 6.15029503,51.2943591 6.74015125,51.0463629 C7.26670302,50.8420596 7.7471193,50.5345932 8.15318086,50.142024 C8.51506003,49.7712793 8.80281874,49.3348453 9.00099863,48.856167 C9.15532933,48.3969384 9.22242383,47.9128995 9.19882278,47.4290071 L9.19882278,47.4290071 Z M19.3585057,16.4695283 L9.89120729,16.4695283 L9.89120729,11.9195729 L21.5910925,11.9195729 L20.9410989,2.43814425 L0,2.43814425 L0,37.1421515 L9.76403462,37.1421515 L9.76403462,25.9368267 L19.3585057,25.9368267 L19.3585057,16.4695283 Z M29.4192765,41.5931948 L26.4801749,41.5931948 L26.4801749,44.9138144 L23.7247672,44.9138144 L23.7247672,41.5931948 L20.7856656,41.5931948 L20.7856656,51.145275 L23.7247672,51.145275 L23.7247672,47.3866162 L26.4801749,47.3866162 L26.4801749,51.1735356 L29.4192765,51.1735356 L29.4192765,41.5931948 Z M37.7985421,36.689982 C47.0007719,36.589038 54.3874839,29.0633117 54.3168583,19.8607994 C54.4928869,13.8416248 51.3822332,8.20279099 46.1968359,5.14123845 C41.0114387,2.07968592 34.5715153,2.07968592 29.386118,5.14123845 C24.2007207,8.20279099 21.0900671,13.8416248 21.2660957,19.8607994 C21.220907,24.2891927 22.9378201,28.5539427 26.038703,31.7157831 C29.1395858,34.8776235 33.3701082,36.6772244 37.7985421,36.7182426 L37.7985421,36.689982 Z M45.0332537,41.5931948 L42.0941522,41.5931948 L42.0941522,51.145275 L45.0332537,51.145275 L45.0332537,41.5931948 Z M66.6243462,47.4007465 L63.798287,47.4007465 C63.7606179,47.6188095 63.6990142,47.832053 63.6145931,48.0366098 C63.5465212,48.2181087 63.4459691,48.3856955 63.3178569,48.5311702 C63.2049883,48.6815384 63.0536644,48.7986924 62.8798177,48.8702973 C62.6805875,48.9614068 62.4629014,49.004944 62.2439544,48.99747 C61.9411845,49.0038986 61.6426422,48.9255925 61.3820064,48.7713852 C61.1463023,48.622941 60.9557233,48.4128155 60.8309248,48.1637825 C60.6874921,47.8974067 60.5828143,47.6119219 60.5200583,47.3159647 C60.4631875,47.0036065 60.4348103,46.6867277 60.4352765,46.3692349 C60.4354203,46.0517692 60.4637926,45.734945 60.5200583,45.4225051 C60.5828143,45.1265478 60.6874921,44.841063 60.8309248,44.5746873 C60.9600354,44.3324142 61.1499477,44.1278933 61.3820064,43.9812148 C61.6400856,43.820973 61.9404501,43.7421889 62.2439544,43.7551301 C62.5044556,43.7414397 62.7636622,43.8001279 62.9928601,43.9246937 C63.1678811,44.0259129 63.3214732,44.1603061 63.4450296,44.320342 C63.5564171,44.4597124 63.6425026,44.6175357 63.6993749,44.7866417 C63.6993749,44.942075 63.7700264,45.0692477 63.7841567,45.1540294 L66.6102159,45.1540294 C66.558176,44.0852674 66.1038813,43.0757237 65.3384893,42.3279702 C64.4835148,41.6215534 63.3937012,41.2633277 62.2863453,41.3247192 C61.6047122,41.3171875 60.9280904,41.4419546 60.2939736,41.6921069 C59.7191891,41.9197444 59.1990994,42.2664708 58.7679016,42.7094882 C58.3146899,43.1984229 57.9767144,43.7826378 57.7787808,44.419254 C57.3265598,45.723546 57.3265598,47.1420964 57.7787808,48.4463884 C57.9841009,49.0325077 58.3061703,49.5708923 58.7255107,50.0289816 C59.1543118,50.4789079 59.6682445,50.8391411 60.2374524,51.0887538 C60.8926115,51.3528915 61.5941829,51.4826342 62.3004756,51.4702718 C62.9354961,51.4842544 63.5663024,51.3638715 64.1515444,51.1170144 C64.6793334,50.9151557 65.1602141,50.607392 65.564574,50.2126754 C66.2820442,49.4912113 66.6879164,48.5171181 66.6949977,47.4996586 L66.6243462,47.4007465 Z M69.9449658,37.0715 L80.7546423,37.0715 L70.3123535,19.0977634 L79.7937822,2.52292602 L69.3514934,2.52292602 L64.9993622,9.98372238 L60.7602733,2.52292602 L49.9223362,2.52292602 L59.601589,19.224936 L49.3571244,37.1138909 L59.8700647,37.1138909 L64.8721895,28.3531073 L69.9449658,37.0715 Z M87.7491389,51.2017962 L84.2730861,41.5931948 L81.4470269,41.5931948 L77.9285831,51.145275 L80.881815,51.145275 L81.3057239,49.7322454 L84.3437376,49.7322454 L84.7535161,51.145275 L87.7491389,51.2017962 Z M95.9164501,37.354106 C100.763142,37.354106 104.97397,34.8389133 106.613084,31.8432905 C105.844416,33.245919 105.363987,34.7880955 105.200055,36.3791155 L105.200055,37.0008486 L125.872678,37.0008486 L129.716118,30.1759155 L116.829288,30.1759155 C117.041243,29.8933096 124.473779,22.517295 125.915069,20.9064413 C127.190875,19.574682 128.275173,18.0718823 129.136776,16.4412677 C129.728366,15.0429385 130.021928,13.5366301 129.998724,12.018485 C129.931012,9.30211629 128.726292,6.73888215 126.678105,4.95333696 C124.504522,2.96734304 121.63662,1.91662495 118.694487,2.02836566 C115.851768,1.83269707 113.032075,2.65406427 110.739131,4.34573422 C108.218409,6.30723995 106.630674,9.23174546 106.358739,12.4141333 L106.358739,13.0923875 L113.692363,13.0923875 C113.712709,10.6088281 115.676126,8.57706401 118.157536,8.47178069 C119.427722,8.23735341 120.728529,8.67926433 121.593067,9.63890145 C122.457605,10.5985386 122.761859,11.938245 122.396625,13.1771693 C122.110527,14.2510606 121.539271,15.2275659 120.74338,16.0032285 C120.74338,16.0032285 118.242318,18.7162454 115.373868,21.3868713 C112.570735,23.8121605 110.08319,26.5797913 107.969593,29.624834 C107.916801,29.7332167 107.855371,29.8371746 107.785899,29.9357005 C108.643898,28.1405924 109.083546,26.1742519 109.071756,24.18467 C109.218031,19.5016233 106.722492,15.1330642 102.61421,12.8804331 L108.421762,2.5935775 L90.2502013,2.5935775 L86.4774123,9.36198935 L96.3686196,9.36198935 L91.14041,18.2358153 C93.2952038,17.0296437 95.9055261,16.960951 98.1207763,18.0521215 C99.9750147,18.9790835 101.328584,20.6736282 101.822914,22.6868586 C102.176548,24.1117643 102.006032,25.6163223 101.342484,26.9259474 C100.376323,28.7865248 98.549937,30.0464666 96.4675316,30.2889579 C95.0140608,30.4875481 93.5346386,30.2360464 92.2284428,29.5683128 C89.8100618,28.3609391 88.2478243,25.9253675 88.1589175,23.2238098 L84.1600437,29.6954855 C84.7045304,30.8978039 85.4182806,32.0160126 86.2795881,33.0161051 C88.7228614,35.7748441 92.2313144,37.354106 95.9164501,37.354106 Z M108.252199,45.9170654 L104.338107,45.9170654 L104.338107,47.9659584 L105.638094,47.9659584 C105.613122,48.1357535 105.54501,48.2963039 105.44027,48.4322581 C105.342083,48.5652745 105.216883,48.6760286 105.072882,48.7572549 C104.931744,48.8432365 104.779648,48.9097783 104.620712,48.9550791 C104.451772,48.9756386 104.280962,48.9756386 104.112022,48.9550791 C103.731048,48.9723333 103.353207,48.8790998 103.023989,48.6866035 C102.758187,48.5315156 102.534887,48.3130702 102.373995,48.0507401 C102.216903,47.8097395 102.106646,47.5412875 102.048999,47.2594435 C101.997717,47.0081861 101.96934,46.7527937 101.964217,46.4964076 L101.964217,46.0583684 L101.964217,45.4790262 C101.994148,45.2654308 102.051127,45.0565099 102.13378,44.8572932 C102.205115,44.6456369 102.315336,44.4491574 102.458777,44.2779511 C102.611764,44.1042912 102.799508,43.964687 103.009859,43.8681725 C103.278836,43.7588385 103.567408,43.7059337 103.857677,43.7127392 C104.19268,43.7087621 104.518199,43.8239456 104.776146,44.037736 C105.03467,44.2579804 105.205221,44.5639687 105.256576,44.8996841 L108.082635,44.8996841 C107.939621,43.8832941 107.438556,42.9513137 106.669605,42.271449 C105.832343,41.6086181 104.782955,41.2722117 103.716374,41.3247192 C103.156972,41.3282953 102.602411,41.4286899 102.077259,41.6214554 C101.516712,41.8095051 101.001702,42.1127355 100.565318,42.5116641 C100.079803,42.9493008 99.6983837,43.4900466 99.4490241,44.0942572 C99.1363481,44.8306693 98.9869081,45.6260753 99.0109849,46.4257561 C99.0043148,47.0747515 99.1094741,47.7200473 99.3218515,48.3333461 C99.51792,48.905991 99.8252575,49.4342275 100.22619,49.8876786 C100.619538,50.3341022 101.100516,50.6948359 101.63922,50.9474508 C102.236059,51.2078307 102.881577,51.3378976 103.53268,51.3289688 C104.049677,51.3277531 104.562091,51.2319748 105.044621,51.0463629 C105.52612,50.8572015 105.946458,50.5395038 106.259827,50.1278937 L106.344609,51.1028841 L108.209808,51.1028841 L108.252199,45.9170654 Z M129.998724,46.3974955 C130.00484,45.7218662 129.885044,45.0510094 129.645467,44.419254 C129.433578,43.8298936 129.101567,43.290977 128.670477,42.8366609 C128.247069,42.3868298 127.737759,42.0264688 127.172665,41.7768887 C125.898022,41.268111 124.476695,41.268111 123.202052,41.7768887 C122.629287,42.0148198 122.110286,42.3656265 121.67598,42.8084003 C121.231382,43.2683401 120.889435,43.8173815 120.672729,44.419254 C120.429669,45.059874 120.309815,45.7406439 120.319471,46.4257561 C120.31006,47.1154461 120.429877,47.8008003 120.672729,48.4463884 C120.884873,49.0314407 121.216972,49.565687 121.647719,50.0148513 C122.081472,50.461819 122.600373,50.817362 123.173791,51.0604932 C124.452099,51.5498365 125.866097,51.5498365 127.144405,51.0604932 C127.717823,50.817362 128.236724,50.461819 128.670477,50.0148513 C129.101223,49.565687 129.433322,49.0314407 129.645467,48.4463884 C129.891821,47.791934 130.011696,47.0966613 129.998724,46.3974955 L129.998724,46.3974955 Z" id="fts-chicago-c-copy" fill="#10144c"></path>
    </g>
</svg>