<?xml version="1.0" encoding="UTF-8"?>
<svg version="1.1" viewBox="0 0 236 32" xmlns="http://www.w3.org/2000/svg">
<title>CBS Miami logo (2022)</title><desc>Branding of WFOR-TV, a CBS owned-and-operated television station in Miami and surrounding area</desc>
 <path d="M31.038 16c-1.257 2.767-3.198 5.03-5.822 6.792-2.765 1.844-5.837 2.766-9.216 2.766-3.379 0-6.465-.922-9.258-2.766C4.145 21.03 2.22 18.767.962 16c1.257-2.767 3.183-5.016 5.78-6.75C9.535 7.38 12.622 6.442 16 6.442c3.379 0 6.45.937 9.216 2.808 2.624 1.734 4.565 3.983 5.822 6.75M16 32c8.837 0 16-7.163 16-16S24.837 0 16 0 0 7.163 0 16s7.163 16 16 16zm0-7.52a8.48 8.48 0 1 0 0-16.96 8.48 8.48 0 0 0 0 16.96zm42.809-3.315 4.132 4.13s-4.132 5.784-12.394 5.784c-8.881 0-15.698-6.816-15.698-15.079C34.85 7.74 41.666.923 50.547.923c8.055 0 12.187 5.783 12.187 5.783l-4.132 4.13s-2.891-4.13-8.055-4.13A9.256 9.256 0 0 0 41.253 16a9.256 9.256 0 0 0 9.294 9.296c5.37 0 8.262-4.131 8.262-4.131zm29.372 1.032c0 4.544-3.718 8.262-9.914 8.262H65.254V1.542H77.44c5.784 0 9.295 3.512 9.295 7.643 0 4.543-3.925 5.99-3.925 5.99s5.37 1.445 5.37 7.022zm-6.403-.62c0-2.065-1.446-3.511-3.925-3.511H71.45v7.023h6.403c2.479 0 3.925-1.446 3.925-3.511zm-10.328-8.88h5.577c2.066 0 3.305-1.24 3.305-2.892s-1.24-2.891-3.305-2.891H71.45zM96.567 9.39c0-1.652 1.24-2.892 4.336-2.892 3.305 0 5.371 2.479 5.371 2.479l4.131-4.13S107.101.922 100.698.922c-6.61 0-10.535 3.924-10.535 8.468 0 10.121 14.458 7.849 14.458 12.806 0 1.86-1.445 3.305-4.75 3.305-4.338 0-6.816-3.098-6.816-3.098l-4.131 4.13s3.718 4.545 11.153 4.545c6.817 0 10.949-4.131 10.949-8.882 0-10.12-14.46-7.849-14.46-12.806zm25.847 21.067h3.1V6.908l11.568 15.286L148.65 6.907v23.55h3.1V1.537h-2.686l-11.982 15.7-11.982-15.7h-2.686zm36.538 0h3.1V1.536h-3.1zm6.79 0h3.306l3.305-8.057h13.634l3.306 8.057h3.305L180.616 1.536h-2.892zm7.85-10.95 5.578-13.634 5.578 13.635zm22.697 10.95h3.1V6.908l11.568 15.286 11.568-15.287v23.55h3.1V1.537h-2.686l-11.982 15.7-11.982-15.7h-2.686zm36.538 0h3.1V1.536h-3.1z" fill-rule="evenodd"/>
</svg>
