<svg xmlns:dc="http://purl.org/dc/elements/1.1/" xmlns:cc="http://creativecommons.org/ns#" xmlns:rdf="http://www.w3.org/1999/02/22-rdf-syntax-ns#" xmlns:svg="http://www.w3.org/2000/svg" xmlns="http://www.w3.org/2000/svg" xmlns:xlink="http://www.w3.org/1999/xlink" id="svg8" version="1.1" viewBox="0 0 264.58334 88.107285" height="182.48287590894657" width="547.9966243511909">
  <defs id="defs2">
    <linearGradient id="linearGradient2929">
      <stop id="stop2925" offset="0" style="stop-color:#0063a1;stop-opacity:1"/>
      <stop style="stop-color:#076dab;stop-opacity:1" offset="0.13423768" id="stop2948"/>
      <stop style="stop-color:#2a9dd4;stop-opacity:1" offset="0.52370411" id="stop2935"/>
      <stop style="stop-color:#43c5f6;stop-opacity:1" offset="0.84968114" id="stop2933"/>
      <stop id="stop2927" offset="1" style="stop-color:#5ae0f9;stop-opacity:1"/>
    </linearGradient>
    <linearGradient id="linearGradient2876">
      <stop id="stop2872" offset="0" style="stop-color:#42c4f4;stop-opacity:1;"/>
      <stop style="stop-color:#54daf8;stop-opacity:1" offset="0.48127055" id="stop2882"/>
      <stop id="stop2892" offset="0.58309454" style="stop-color:#58def8;stop-opacity:1"/>
      <stop style="stop-color:#5ae1f9;stop-opacity:1" offset="0.66926712" id="stop2894"/>
      <stop id="stop2884" offset="0.81088823" style="stop-color:#5de5f9;stop-opacity:1"/>
      <stop style="stop-color:#5ee5fa;stop-opacity:1" offset="0.83565694" id="stop2886"/>
      <stop id="stop2890" offset="0.91384161" style="stop-color:#5fe7fa;stop-opacity:1"/>
      <stop id="stop2874" offset="1" style="stop-color:#60e8fa;stop-opacity:1"/>
    </linearGradient>
    <linearGradient gradientUnits="userSpaceOnUse" y2="-366.51019" x2="-1210.818" y1="150.39702" x1="-1210.818" id="linearGradient2963" xlink:href="#linearGradient2929"/>
    <linearGradient gradientUnits="userSpaceOnUse" y2="688.685" x2="-1152.3435" y1="738.03186" x1="-1152.3435" id="linearGradient5947" xlink:href="#linearGradient2876"/>
    <linearGradient gradientUnits="userSpaceOnUse" y2="688.68494" x2="-1152.3436" y1="738.03186" x1="-1152.3436" id="linearGradient5981" xlink:href="#linearGradient2876"/>
    <linearGradient y2="-366.51019" x2="-1210.8181" y1="150.39703" x1="-1210.8181" gradientUnits="userSpaceOnUse" id="linearGradient1076" xlink:href="#linearGradient2929"/>
    <linearGradient y2="-366.51019" x2="-1210.818" y1="150.39702" x1="-1210.818" gradientUnits="userSpaceOnUse" id="linearGradient1078" xlink:href="#linearGradient2929"/>
    <linearGradient y2="-366.51019" x2="-1210.818" y1="150.39702" x1="-1210.818" gradientUnits="userSpaceOnUse" id="linearGradient1080" xlink:href="#linearGradient2929"/>
    <linearGradient y2="-366.51019" x2="-1210.818" y1="150.39702" x1="-1210.818" gradientUnits="userSpaceOnUse" id="linearGradient1082" xlink:href="#linearGradient2929"/>
    <linearGradient y2="-366.51019" x2="-1210.818" y1="150.39702" x1="-1210.818" gradientUnits="userSpaceOnUse" id="linearGradient1084" xlink:href="#linearGradient2929"/>
    <linearGradient y2="-366.51019" x2="-1210.818" y1="150.39702" x1="-1210.818" gradientUnits="userSpaceOnUse" id="linearGradient1086" xlink:href="#linearGradient2929"/>
    <linearGradient y2="688.685" x2="-1152.3435" y1="738.03186" x1="-1152.3435" gradientUnits="userSpaceOnUse" id="linearGradient1088" xlink:href="#linearGradient2876"/>
    <linearGradient y2="688.68494" x2="-1152.3436" y1="738.03186" x1="-1152.3436" gradientUnits="userSpaceOnUse" id="linearGradient1090" xlink:href="#linearGradient2876"/>
    <linearGradient gradientUnits="userSpaceOnUse" y2="210.93378" x2="-3565.1929" y1="727.841" x1="-3565.1929" id="linearGradient1135" xlink:href="#linearGradient2929"/>
    <linearGradient gradientUnits="userSpaceOnUse" y2="210.93378" x2="-3565.1929" y1="727.841" x1="-3565.1929" id="linearGradient1137" xlink:href="#linearGradient2929"/>
    <linearGradient gradientUnits="userSpaceOnUse" y2="210.93378" x2="-3565.1929" y1="727.841" x1="-3565.1929" id="linearGradient1139" xlink:href="#linearGradient2929"/>
  </defs>
  <metadata id="metadata5">
    <rdf:RDF>
      <cc:Work rdf:about="">
        <dc:format>image/svg+xml</dc:format>
        <dc:type rdf:resource="http://purl.org/dc/dcmitype/StillImage"/>
        <dc:title/>
      </cc:Work>
    </rdf:RDF>
  </metadata>
  <g transform="translate(1207.347,372.89177)" id="layer1">
    <g transform="matrix(0.20870334,0,0,0.20870334,-955.36965,-225.34901)" id="g2461">
      <g id="g1048" style="fill:url(#linearGradient1086);fill-opacity:1" transform="matrix(0.24457375,0,0,0.24587998,-877.85871,-324.29717)">
        <path d="m -929.26942,-366.51018 v 114.37946 H -1067.111 v 402.52774 h -143.707 l -4e-4,-402.52774 h -136.3756 v -114.37946 z" style="font-style:normal;font-variant:normal;font-weight:800;font-stretch:normal;font-size:medium;line-height:1.25;font-family:Poppins;-inkscape-font-specification:'Poppins Ultra-Bold';font-variant-ligatures:normal;font-variant-caps:normal;font-variant-numeric:normal;font-feature-settings:normal;text-align:start;letter-spacing:0px;word-spacing:-53.22264481px;writing-mode:lr-tb;text-anchor:start;fill:url(#linearGradient1076);fill-opacity:1;stroke:none;stroke-width:7.13323784px;stroke-linecap:butt;stroke-linejoin:miter;stroke-opacity:1" id="path1038"/>
        <path d="m -666.01807,66.078899 h -183.30045 l -27.86167,84.318221 h -151.03931 l 188.43261,-516.90731 h 165.70364 l 187.69966,516.90731 h -151.7728 z m -35.92688,-109.980276 -55.72331,-167.170043 -54.99019,167.170043 z" style="font-style:normal;font-variant:normal;font-weight:800;font-stretch:normal;font-size:medium;line-height:1.25;font-family:Poppins;-inkscape-font-specification:'Poppins Ultra-Bold';font-variant-ligatures:normal;font-variant-caps:normal;font-variant-numeric:normal;font-feature-settings:normal;text-align:start;letter-spacing:0px;word-spacing:-53.22264481px;writing-mode:lr-tb;text-anchor:start;fill:url(#linearGradient1078);fill-opacity:1;stroke:none;stroke-width:7.1332407px;stroke-linecap:butt;stroke-linejoin:miter;stroke-opacity:1" id="path1040"/>
        <path d="m 100.79339,-366.51018 v 516.9072 H -42.914152 v -285.21546 l -97.515818,285.21546 h -120.24508 l -98.24903,-287.41507 v 287.41507 h -143.70753 v -516.9072 h 173.7688 L -199.0861,-30.703802 -72.242222,-366.51018 Z" style="font-style:normal;font-variant:normal;font-weight:800;font-stretch:normal;font-size:medium;line-height:1.25;font-family:Poppins;-inkscape-font-specification:'Poppins Ultra-Bold';font-variant-ligatures:normal;font-variant-caps:normal;font-variant-numeric:normal;font-feature-settings:normal;text-align:start;letter-spacing:0px;word-spacing:-53.22264481px;writing-mode:lr-tb;text-anchor:start;fill:url(#linearGradient1080);fill-opacity:1;stroke:none;stroke-width:7.13323784px;stroke-linecap:butt;stroke-linejoin:miter;stroke-opacity:1" id="path1042"/>
        <path d="m 557.91124,-194.20778 q 0,46.92491 -21.99605,85.7846 -21.26285,38.126486 -65.25495,61.588942 -43.25891,22.729252 -106.31425,22.729252 H 293.22543 V 150.39702 H 149.51789 v -516.9072 h 214.8281 q 62.32215,0 105.58105,21.99605 43.9921,21.99605 65.98815,60.85574 21.99605,38.85969 21.99605,89.45061 z m -207.49608,55.72332 q 60.85574,0 60.85574,-55.72332 0,-56.45653 -60.85574,-56.45653 h -57.18973 v 112.17985 z" style="font-style:normal;font-variant:normal;font-weight:800;font-stretch:normal;font-size:medium;line-height:1.25;font-family:Poppins;-inkscape-font-specification:'Poppins Ultra-Bold';font-variant-ligatures:normal;font-variant-caps:normal;font-variant-numeric:normal;font-feature-settings:normal;text-align:start;letter-spacing:0px;word-spacing:-53.22264481px;writing-mode:lr-tb;text-anchor:start;fill:url(#linearGradient1082);fill-opacity:1;stroke:none;stroke-width:7.13323784px;stroke-linecap:butt;stroke-linejoin:miter;stroke-opacity:1" id="path1044"/>
        <path d="M 837.7134,66.078823 H 654.41291 L 626.55124,150.39702 H 475.51155 l 188.43296,-516.9072 h 165.70367 l 187.69912,516.9072 H 865.57511 Z M 801.78645,-43.901433 746.06314,-211.07143 691.07291,-43.901433 Z" style="font-style:normal;font-variant:normal;font-weight:800;font-stretch:normal;font-size:medium;line-height:1.25;font-family:Poppins;-inkscape-font-specification:'Poppins Ultra-Bold';font-variant-ligatures:normal;font-variant-caps:normal;font-variant-numeric:normal;font-feature-settings:normal;text-align:start;letter-spacing:0px;word-spacing:-53.22264481px;writing-mode:lr-tb;text-anchor:start;fill:url(#linearGradient1084);fill-opacity:1;stroke:none;stroke-width:7.13323784px;stroke-linecap:butt;stroke-linejoin:miter;stroke-opacity:1" id="path1046"/>
      </g>
      <g transform="matrix(2.6151694,0,0,2.6151694,-903.43999,-797.86529)" id="g1070">
        <g transform="matrix(0.09352119,0,0,0.09402067,229.96579,126.7934)" style="fill:#0063a1;fill-opacity:1" id="g1056">
          <path id="path1050" style="font-style:normal;font-variant:normal;font-weight:800;font-stretch:normal;font-size:medium;line-height:1.25;font-family:Poppins;-inkscape-font-specification:'Poppins Ultra-Bold';font-variant-ligatures:normal;font-variant-caps:normal;font-variant-numeric:normal;font-feature-settings:normal;text-align:start;letter-spacing:0px;word-spacing:-53.07128906px;writing-mode:lr-tb;text-anchor:start;fill:url(#linearGradient1139);fill-opacity:1;stroke:none;stroke-width:7.13323784px;stroke-linecap:butt;stroke-linejoin:miter;stroke-opacity:1" d="m -880.87778,462.42198 q 45.45851,10.26482 71.85377,45.4585 27.12847,34.46048 27.12847,79.18579 0,65.98815 -45.45851,103.38144 -45.45851,37.39329 -127.5771,37.39329 H -1210.8186 V 210.93379 h 247.82223 q 79.18579,0 123.91109,35.19368 45.45851,35.19368 45.45851,98.98223 0,45.45851 -24.19566,76.25298 -23.46245,30.06127 -63.05535,41.0593 z M -1067.111,416.23027 h 72.58696 q 54.25692,0 54.25692,-44.72531 0,-46.19171 -54.25692,-46.19171 h -72.58696 z m 83.58498,195.76486 q 54.25693,0 54.25693,-45.45851 0,-23.46245 -14.66403,-35.92688 -13.93084,-12.46443 -40.3261,-12.46443 h -82.85178 v 93.84982 z"/>
          <path id="path1052" style="font-style:normal;font-variant:normal;font-weight:800;font-stretch:normal;font-size:medium;line-height:1.25;font-family:Poppins;-inkscape-font-specification:'Poppins Ultra-Bold';font-variant-ligatures:normal;font-variant-caps:normal;font-variant-numeric:normal;font-feature-settings:normal;text-align:start;letter-spacing:0px;word-spacing:-53.07128906px;writing-mode:lr-tb;text-anchor:start;fill:url(#linearGradient1137);fill-opacity:1;stroke:none;stroke-width:7.13323784px;stroke-linecap:butt;stroke-linejoin:miter;stroke-opacity:1" d="m -425.73935,643.5228 h -183.30043 l -27.86167,84.3182 H -787.941 l 188.43284,-516.90721 h 165.70359 L -246.10493,727.841 h -151.77275 z m -35.92688,-109.98026 -55.72333,-167.16999 -54.99013,167.16999 z"/>
          <path id="path1054" style="font-style:normal;font-variant:normal;font-weight:800;font-stretch:normal;font-size:medium;line-height:1.25;font-family:Poppins;-inkscape-font-specification:'Poppins Ultra-Bold';font-variant-ligatures:normal;font-variant-caps:normal;font-variant-numeric:normal;font-feature-settings:normal;text-align:start;letter-spacing:0px;word-spacing:-53.07128906px;writing-mode:lr-tb;text-anchor:start;fill:url(#linearGradient1135);fill-opacity:1;stroke:none;stroke-width:7.13323784px;stroke-linecap:butt;stroke-linejoin:miter;stroke-opacity:1" d="M 143.90679,210.93379 -37.927229,563.60381 V 727.841 H -182.36797 V 563.60381 L -364.202,210.93379 h 164.23719 l 90.91701,199.43086 90.917011,-199.43086 z"/>
        </g>
        <g id="g1068" transform="matrix(1,0,0,1.0053408,1451.1688,-545.89027)">
          <g id="g1062" transform="matrix(0.09352119,0,0,0.09352119,-1221.203,669.11009)">
            <path style="fill:#0e1521;fill-opacity:1;stroke-width:0.10609062" id="path1058" d="m 1481.933,474.44998 c 0,144.37766 -117.0414,261.41902 -261.4191,261.41902 -144.3777,0 -261.41894,-117.04136 -261.41894,-261.41902 0,-144.37774 117.04124,-261.41908 261.41894,-261.41908 144.3777,0 261.4191,117.04134 261.4191,261.41908 z"/>
            <path id="path1060" d="m 1148.2893,366.95096 h 40.1261 v 45.83172 c 0,0 12.6412,-10.55569 32.1004,-10.55569 39.888,0 72.2238,32.33475 72.2238,72.22373 0,39.88899 -32.3386,72.22483 -72.2266,72.22375 -39.888,0 -72.2237,-32.33476 -72.2237,-72.22375 z m -81.446,35.27603 c 39.8879,0 72.2237,32.33475 72.2237,72.22373 v 0 71.05244 h -40.1262 v -12.43703 c 0,0 -11.1327,13.60834 -32.1003,13.60834 -39.889,0 -72.22378,-32.33476 -72.22378,-72.22375 0,-39.88795 32.33478,-72.22373 72.22378,-72.22373 z m 307.3423,0 c 36.7721,0 67.1032,27.48575 71.6227,63.02945 h -40.8754 c -3.9551,-13.24441 -16.2161,-22.90608 -30.7473,-22.90608 -17.7278,0 -32.1004,14.37155 -32.1004,32.10036 0,17.72768 14.3715,32.10038 32.1004,32.10038 14.5312,0 26.7922,-9.66168 30.7473,-22.90608 h 40.8754 c -4.5195,35.54467 -34.8517,63.03053 -71.6227,63.02945 -39.8881,0 -72.2238,-32.33476 -72.2238,-72.22375 0,-39.88795 32.3346,-72.22373 72.2238,-72.22373 z m -307.3423,40.12337 c -17.7277,0 -32.1004,14.37155 -32.1004,32.10036 0,17.72768 14.3716,32.10038 32.1004,32.10038 17.7288,0 32.1004,-14.37161 32.1004,-32.10038 0,-17.72772 -14.3716,-32.10036 -32.1004,-32.10036 z m 153.6697,0 c -17.7287,0 -32.1003,14.37264 -32.1003,32.10036 0,17.72877 14.3716,32.10038 32.1003,32.10038 17.7288,0 32.1004,-14.3727 32.1004,-32.10038 0,-17.72772 -14.3716,-32.10036 -32.1004,-32.10036 z" style="fill:#f2f2f2;fill-opacity:1;stroke-width:0.10609063"/>
          </g>
          <path style="font-style:normal;font-variant:normal;font-weight:800;font-stretch:normal;font-size:medium;line-height:1.25;font-family:Poppins;-inkscape-font-specification:'Poppins Ultra-Bold';font-variant-ligatures:normal;font-variant-caps:normal;font-variant-numeric:normal;font-feature-settings:normal;text-align:start;letter-spacing:0px;word-spacing:-53.07128906px;writing-mode:lr-tb;text-anchor:start;fill:url(#linearGradient1088);fill-opacity:1;stroke:none;stroke-width:0.63850278px;stroke-linecap:butt;stroke-linejoin:miter;stroke-opacity:1" d="m -1145.5055,688.32927 c -3.719,0 -6.9409,0.59068 -9.4786,1.77201 -2.5377,1.13758 -4.3474,2.6908 -5.6163,4.65969 -1.2251,1.92514 -1.8376,4.06904 -1.8376,6.43171 0,4.55031 1.947,7.89741 5.841,10.04131 -2.2751,1.18133 -4.0033,2.75643 -5.1847,4.72532 -1.1813,1.96889 -1.772,4.28781 -1.772,6.95675 0,3.19397 0.8094,5.95039 2.4283,8.2693 1.6188,2.27516 3.7846,4.00339 6.4973,5.18473 2.7565,1.18133 5.7973,1.77201 9.1226,1.77201 3.3252,0 6.3441,-0.59068 9.0568,-1.77201 2.7565,-1.18134 4.9441,-2.90957 6.563,-5.18473 0.3326,-0.47642 0.6309,-0.97135 0.8952,-1.4847 -3.3583,-4.53345 -5.3447,-10.14435 -5.3447,-16.21939 0,-5.97671 1.9226,-11.50425 5.1826,-15.99848 -0.3139,-0.95121 -0.7548,-1.85858 -1.3238,-2.72182 -1.2251,-1.96889 -2.9194,-3.44725 -5.4571,-4.58483 -2.5376,-1.18133 -5.853,-1.84687 -9.572,-1.84687 z m 0,10.04131 c 1.3125,0 2.3626,0.43754 3.1502,1.3126 0.7875,0.83131 1.1813,2.01263 1.1813,3.54398 0,1.4876 -0.4157,2.64709 -1.247,3.4784 -0.7875,0.8313 -1.8157,1.24692 -3.0845,1.24692 -1.2689,0 -2.319,-0.41562 -3.1503,-1.24692 -0.7875,-0.83131 -1.1813,-1.9908 -1.1813,-3.4784 0,-1.4876 0.3938,-2.66891 1.1813,-3.54398 0.8313,-0.87506 1.8814,-1.3126 3.1503,-1.3126 z m 0,18.37629 c 1.6626,0 2.997,0.50317 4.0033,1.5095 1.0064,0.96256 1.5095,2.27514 1.5095,3.93775 0,1.57511 -0.5031,2.86581 -1.5095,3.87213 -0.9625,1.00632 -2.297,1.5095 -4.0033,1.5095 -1.7064,0 -3.0628,-0.50318 -4.0691,-1.5095 -1.0063,-1.00632 -1.5095,-2.29702 -1.5095,-3.87213 0,-1.66261 0.5032,-2.97519 1.5095,-3.93775 1.0501,-1.00633 2.4064,-1.5095 4.0691,-1.5095 z" id="path1064"/>
          <path id="path1066" style="font-style:normal;font-variant:normal;font-weight:800;font-stretch:normal;font-size:medium;line-height:1.25;font-family:Poppins;-inkscape-font-specification:'Poppins Ultra-Bold';font-variant-ligatures:normal;font-variant-caps:normal;font-variant-numeric:normal;font-feature-settings:normal;text-align:start;letter-spacing:0px;word-spacing:-50.83594894px;writing-mode:lr-tb;text-anchor:start;fill:url(#linearGradient1090);fill-opacity:1;stroke:none;stroke-width:0.63856119px;stroke-linecap:butt;stroke-linejoin:miter;stroke-opacity:1" d="m -1197.9507,727.54205 c 4.2496,-3.32149 7.7325,-6.18408 10.4488,-8.58779 2.7162,-2.40371 4.9944,-4.87297 6.8344,-7.40779 1.84,-2.57852 2.7304,-5.02593 2.7304,-7.34223 0,-1.39852 -0.3286,-2.49111 -0.9858,-3.27778 -0.6133,-0.78667 -1.5333,-1.18 -2.76,-1.18 -1.2705,0 -2.2563,0.5463 -2.9572,1.63889 -0.701,1.04889 -1.0296,2.60038 -0.9858,4.65445 h -12.4563 c 0.1315,-3.88963 0.9858,-7.15877 2.563,-9.69359 1.5771,-2.57852 3.7089,-4.44238 6.2416,-5.64027 2.5495,-1.20587 5.3024,-1.77616 8.4129,-1.77616 5.3887,0 9.3974,1.33297 12.026,3.99889 2.6286,2.66593 3.8984,6.11853 3.8984,10.3578 0,4.54518 -1.8136,9.26203 -4.7596,13.0825 -3.0229,3.97705 -6.6085,7.23974 -11.1648,10.38641 h 16.4092 v 10.42335 h -33.4952 z"/>
        </g>
      </g>
      <path id="path1072" d="m -908.45599,-706.94968 -0.9799,29.16234 -119.08071,176.32857 -54.6272,-77.0271 -0.1477,-16.11496 h -3.5057 l -0.3845,16.96647 -65.1488,139.72173 -55.0165,0.41875 v 8.80321 l 934.235,-0.29752 v -15.61813 l -17.12743,0.12903 -609.30039,-241.1571 -0.32746,-21.31529 z m 9.01801,27.9849 552.81781,234.91691 -184.04469,1.40132 -368.29983,-205.51597 z m -10.29329,9.96312 -0.92293,27.46588 -105.8826,156.96823 -8.2994,-11.70241 z m 10.86318,27.12747 339.13358,199.44915 -118.89387,0.90529 -219.74583,-168.20525 z m -12.07817,9.02891 -0.9494,28.25472 -91.24684,138.90864 -9.8702,-13.91669 z m 12.68927,30.75779 197.00394,160.73999 -80.89157,0.61599 -115.58186,-126.82479 z m -13.92473,6.00572 -1.14793,34.1587 -74.09743,118.40154 -11.81512,-16.66129 z m -170.91858,22.3749 52.6188,75.15892 -5.6692,8.39396 -46.8119,-68.53078 z m -4.2135,1.84177 -0.3438,15.16106 -55.2049,118.71924 -6.3294,0.0481 z m 189.71226,12.44226 101.93438,118.79423 -59.8555,0.45599 -41.3967,-74.86172 z m -185.31866,5.33193 44.9401,66.64654 -5.5024,8.14689 -39.296,-59.35704 z m 169.29238,1.04382 -1.17208,34.87711 -37.72711,78.73592 -27.84152,0.21164 z m -174.16018,2.10082 -0.3571,15.74483 -43.9559,97.13475 -7.6253,0.0582 z m 5.0617,17.98339 37.3235,56.50905 -6.0436,8.95015 -31.119,-47.95577 z m -5.552,3.61658 -0.4379,19.32287 -30.9836,71.86223 -9.0647,0.0692 z m 5.7609,19.11333 28.784,46.11466 -7.6232,11.28888 -20.9812,-37.80904 z m -6.329,5.96441 -0.4486,19.73429 -15.2333,46.25767 -11.1859,0.0854 z m 192.1032,0.70415 31.32903,63.4671 -21.78391,0.16574 -9.28027,-46.39933 z m -18.60134,1.60412 -0.39984,11.89904 -11.77146,50.43684 -14.29203,0.1088 z m -111.46726,8.65471 8.2347,11.76253 -5.8083,8.61195 -8.1008,-11.85863 z m -55.4553,10.31046 18.5467,33.66503 -7.292,10.79832 -7.2829,0.0554 -3.833,-29.32839 z m 47.9397,0.9682 8.0371,11.91893 -5.606,8.3108 -7.9295,-11.97802 z m 19.2656,5.50475 9.8232,14.03112 -5.8906,8.96708 -9.7465,-14.26868 z m -74.4709,2.45408 -0.1397,6.21391 -4.7826,29.50075 -5.8626,0.0458 z m 47.7947,3.16255 7.9084,11.97424 -6.1444,9.10855 -7.8014,-12.02307 z m 18.9478,5.98787 9.698,14.38268 -5.6516,8.60385 -9.649,-14.5745 z m -27.3289,6.58885 7.633,12.2299 -4.9831,7.38788 -6.0282,0.0458 -4.4186,-7.9632 z m 48.784,1.41258 11.76935,16.8125 -0.59903,0.95638 -11.08632,0.084 -5.9459,-8.70397 z m -28.9838,3.3009 9.6515,14.61181 -0.058,0.0886 -12.1098,0.0923 -3.6197,-5.57817 z m 21.1588,8.91235 3.8243,5.6711 -7.4938,0.0568 z m -51.1186,1.6197 2.4523,4.45091 -5.4458,0.041 z m 21.2579,2.53459 1.1013,1.76486 -2.2881,0.0183 z" style="opacity:1;fill:#c0c5de;fill-opacity:1;fill-rule:evenodd;stroke:none;stroke-width:9.98301983;stroke-linecap:square;stroke-linejoin:miter;stroke-miterlimit:15.5;stroke-dasharray:none;stroke-opacity:1;paint-order:markers stroke fill"/>
    </g>
  </g>
</svg>