<svg width="2155" height="585" viewBox="0 0 2155 585" fill="none" xmlns="http://www.w3.org/2000/svg">
<path d="M159.726 389.161H316.123V235.869H161.012V162.55H351.404L340.959 8.91851H0.792969V570.815H160.115L159.726 389.161ZM1306.83 9.75345H1136.58L1065.92 130.787L996.515 9.75345H820.271L977.9 280.333L810.96 569.991L982.133 570.306L1063.77 428.288L1146.38 569.989H1322.36L1152.31 278.45L1306.83 9.75345ZM618.065 0.769531C464.893 0.769531 340.72 126.804 340.72 282.286C340.72 437.776 464.893 563.805 618.065 563.805C771.239 563.805 895.406 437.776 895.406 282.296C895.406 126.804 771.239 0.769531 618.065 0.769531ZM672.282 402.748C672.061 415.37 666.842 427.396 657.759 436.215C648.682 445.034 636.466 449.934 623.774 449.852C617.535 449.791 611.363 448.505 605.614 446.071C599.871 443.636 594.661 440.099 590.29 435.661C585.918 431.224 582.468 425.974 580.136 420.21C577.805 414.446 576.637 408.283 576.701 402.07L576.755 171.447C576.755 145.064 597.776 121.454 623.78 121.454C649.762 121.454 672.47 145.064 672.47 171.447L672.282 402.748Z" fill="black"/>
<path d="M1684.62 10.8281V141.603H1473.3L1467.54 187.736C1494.73 179.589 1522.91 175.135 1550.45 175.135C1676.41 175.135 1734.93 272.379 1745.13 376.328C1745.13 491.149 1643 584.227 1517.04 584.227C1397.7 584.227 1290.52 521.014 1285.36 403.154H1440.23C1449.42 430.503 1474.27 450.099 1503.49 450.099C1540.54 450.099 1570.57 418.584 1570.57 379.681C1570.57 340.779 1540.54 309.264 1503.49 309.264C1480.85 309.264 1460.83 321.026 1448.69 339.05C1446.47 342.325 1444.53 345.835 1442.88 349.502H1288.82V346.149L1339.13 10.8281H1684.62Z" fill="black"/>
<path fill-rule="evenodd" clip-rule="evenodd" d="M2083.77 570.816H1926.12V466.866H1674.55V339.444L1902.64 7.47656H2083.77V339.444H2154.21V466.866H2083.77V570.816ZM1926.12 332.738V181.844L1828.85 332.738H1926.12Z" fill="black"/>
</svg>
