<svg width="106" height="22" viewBox="0 0 106 22" fill="none" xmlns="http://www.w3.org/2000/svg">
<g clip-path="url(#clip0_6421_17743)">
<path fill-rule="evenodd" clip-rule="evenodd" d="M51.561 10.3817H49.0208V2.23111V0.915039H51.561V10.3817Z" fill="#6D6D6D"/>
<path fill-rule="evenodd" clip-rule="evenodd" d="M67.8565 10.3817H65.3163V2.23111V0.915039H67.8565V10.3817Z" fill="#6D6D6D"/>
<path fill-rule="evenodd" clip-rule="evenodd" d="M82.0504 10.3817H79.5102V2.23111V0.915039H82.0504V10.3817Z" fill="#6D6D6D"/>
<path fill-rule="evenodd" clip-rule="evenodd" d="M40.0104 10.382V5.14761C40.0104 3.84764 40.9887 3.07332 42.0902 3.07332C43.2613 3.07332 44.1842 3.97611 44.1842 5.14761V10.382H46.7197V5.24386C46.7197 2.84429 45.0508 0.72168 42.146 0.72168C39.024 0.72168 37.4655 2.83093 37.4655 5.24386V10.382H40.0104Z" fill="#6D6D6D"/>
<path fill-rule="evenodd" clip-rule="evenodd" d="M98.3141 10.382V5.14761C98.3141 3.84764 99.2946 3.07332 100.394 3.07332C101.565 3.07332 102.488 3.97611 102.488 5.14761V10.382H105.023V5.24386C105.023 2.84429 103.354 0.72168 100.45 0.72168C97.3276 0.72168 95.7695 2.83093 95.7695 5.24386V10.382H98.3141Z" fill="#6D6D6D"/>
<path fill-rule="evenodd" clip-rule="evenodd" d="M58.4352 6.69652L61.0312 0.916016H63.672L59.3176 10.3815H57.5619L53.2051 0.916016H55.8396L58.4352 6.69652Z" fill="#6D6D6D"/>
<path fill-rule="evenodd" clip-rule="evenodd" d="M71.1248 7.4971C71.7691 8.08127 72.7662 8.43288 73.7185 8.43288C74.4032 8.43288 74.9304 8.10092 74.9304 7.6342C74.9304 6.21088 70.3434 6.71806 70.3434 3.6687C70.3434 1.85174 72.1011 0.720703 73.9738 0.720703C75.2066 0.720703 76.5502 1.18742 77.1768 1.67535L75.9888 3.51156C75.4993 3.16113 74.8546 2.87002 74.1699 2.87002C73.471 2.87002 72.8825 3.13913 72.8825 3.62785C72.8825 4.85867 77.4703 4.36877 77.4703 7.65385C77.4703 9.46649 75.6965 10.581 73.7039 10.581C72.3957 10.581 71.0074 10.1292 69.8987 9.30974L71.1248 7.4971Z" fill="#6D6D6D"/>
<path fill-rule="evenodd" clip-rule="evenodd" d="M88.9162 8.23547C90.4008 8.23547 91.4132 7.08125 91.4132 5.66029C91.4132 4.23579 90.4008 3.06429 88.9162 3.06429C87.4347 3.06429 86.4145 4.23579 86.4145 5.66029C86.4145 7.08125 87.4347 8.23547 88.9162 8.23547ZM88.9162 0.72168C91.786 0.72168 93.9483 2.92718 93.9483 5.66029C93.9483 8.39536 91.786 10.5816 88.9162 10.5816C86.0463 10.5816 83.8711 8.39536 83.8711 5.66029C83.8711 2.92718 86.0463 0.72168 88.9162 0.72168Z" fill="#6D6D6D"/>
<path fill-rule="evenodd" clip-rule="evenodd" d="M32.8493 0.916016V6.15516C32.8493 7.45041 31.8604 8.22905 30.7561 8.22905C29.5889 8.22905 28.6657 7.31998 28.6657 6.15516V0.916016H26.1267V6.05655C26.1267 8.44984 27.7944 10.5811 30.6999 10.5811C33.8231 10.5811 35.3836 8.47144 35.3836 6.05655V0.916016H32.8493Z" fill="#6D6D6D"/>
<path fill-rule="evenodd" clip-rule="evenodd" d="M20.9673 11.1052V10.9492C20.4833 11.3543 19.087 11.8461 17.4308 12.1596C16.7558 12.2763 16.0475 12.369 15.3223 12.4425C12.4454 12.699 9.04875 12.6134 8.44022 12.6134C8.44022 12.6845 8.44061 12.7528 8.44061 12.8212C8.44179 13.306 8.44807 13.7232 8.45947 14.1946C8.463 14.3203 8.46654 14.45 8.47007 14.5851C8.48736 15.1787 8.51407 15.766 8.55139 16.3365C8.63193 17.5465 8.76432 18.6795 8.97411 19.6251C9.20864 20.683 9.541 21.5065 10.0061 21.9433C10.0136 21.95 10.0211 21.9583 10.0285 21.9649C10.1794 21.9708 10.331 21.9744 10.4835 21.9744C14.0373 21.9744 17.1778 20.2061 19.0741 17.5017C19.7576 16.5262 20.2794 15.251 20.5999 13.9192C20.8388 13.0259 20.9669 12.0869 20.9669 11.1181L20.9653 11.1189C20.9657 11.1146 20.9657 11.1107 20.9657 11.1064L20.9673 11.1052Z" fill="#1717EF"/>
<path fill-rule="evenodd" clip-rule="evenodd" d="M10.006 21.9438C9.54087 21.5069 9.2089 20.6835 8.97397 19.6255C8.76419 18.6799 8.6318 17.5473 8.55165 16.3373C8.51394 15.7665 8.48762 15.1792 8.47033 14.586C8.4664 14.4504 8.46287 14.3208 8.45933 14.1951C8.44794 13.7237 8.44205 13.3064 8.44087 12.8217C8.44087 12.7533 8.44047 12.6849 8.44047 12.6138C5.67908 12.6138 3.28737 12.4056 2.14337 12.1974C0.93926 11.979 0.138225 11.5362 -6.10352e-05 11.3135C-6.10352e-05 12.3447 0.148832 13.519 0.426189 14.4599C0.752653 15.5677 1.25669 16.599 1.90608 17.5206C3.72187 20.0993 6.67065 21.8216 10.0288 21.9654C10.0209 21.9587 10.0139 21.9509 10.006 21.9438Z" fill="#FF161F"/>
<path fill-rule="evenodd" clip-rule="evenodd" d="M0.407877 1.11719C0.18277 1.11719 9.15527e-05 1.29987 9.15527e-05 1.52458V11.3134C0.137984 11.5362 0.939413 11.9785 2.14352 12.1973C2.32895 12.2311 2.54738 12.2649 2.79448 12.2975C4.07245 12.4676 6.1267 12.6138 8.44023 12.6138V5.08112C5.82931 1.71865 1.78995 1.11719 0.407877 1.11719Z" fill="#E621BB"/>
<path fill-rule="evenodd" clip-rule="evenodd" d="M8.44034 0.393555V5.08073V12.613C9.04887 12.613 12.4451 12.6986 15.3224 12.4429C16.0472 12.369 16.7559 12.2763 17.4309 12.1596C19.0872 11.8461 20.483 11.3539 20.9674 10.9492V1.61063C19.7059 0.67484 14.3957 0.393555 8.44034 0.393555Z" fill="#00C56E"/>
<path fill-rule="evenodd" clip-rule="evenodd" d="M29.716 14.9053C30.6659 14.9053 31.5683 15.295 32.1478 15.9314L31.5114 16.5584C31.122 16.1306 30.4283 15.8081 29.716 15.8081C28.3575 15.8081 27.3031 16.8908 27.3031 18.3251C27.3031 19.8258 28.3862 20.8421 29.8016 20.8421C30.6942 20.8421 31.3405 20.3483 31.7109 19.902L32.3855 20.5102C31.8154 21.2417 30.8274 21.7449 29.8016 21.7449C27.8161 21.7449 26.3531 20.2913 26.3531 18.3251C26.3531 16.406 27.7973 14.9053 29.716 14.9053Z" fill="black"/>
<path fill-rule="evenodd" clip-rule="evenodd" d="M38.0838 18.5145H34.3791V21.6491H33.4288V15H34.3791V17.6121H38.0838V15H39.0337V21.6491H38.0838V18.5145Z" fill="black"/>
<mask id="mask0_6421_17743" style="mask-type:luminance" maskUnits="userSpaceOnUse" x="0" y="0" width="106" height="22">
<path d="M0 21.9744H105.024V0.393555H0V21.9744Z" fill="white"/>
</mask>
<g mask="url(#mask0_6421_17743)">
<path fill-rule="evenodd" clip-rule="evenodd" d="M40.7424 21.6495H41.6924V15H40.7424V21.6495Z" fill="black"/>
</g>
<mask id="mask1_6421_17743" style="mask-type:luminance" maskUnits="userSpaceOnUse" x="0" y="0" width="106" height="22">
<path d="M0 21.9744H105.024V0.393555H0V21.9744Z" fill="white"/>
</mask>
<g mask="url(#mask1_6421_17743)">
<path fill-rule="evenodd" clip-rule="evenodd" d="M46.2421 14.9053C47.192 14.9053 48.0944 15.295 48.6739 15.9314L48.0374 16.5584C47.6481 16.1306 46.9543 15.8081 46.2421 15.8081C44.8836 15.8081 43.8291 16.8908 43.8291 18.3251C43.8291 19.8258 44.9122 20.8421 46.3277 20.8421C47.2203 20.8421 47.8665 20.3483 48.237 19.902L48.9115 20.5102C48.3415 21.2417 47.3535 21.7449 46.3277 21.7449C44.3422 21.7449 42.8792 20.2913 42.8792 18.3251C42.8792 16.406 44.323 14.9053 46.2421 14.9053Z" fill="black"/>
</g>
<mask id="mask2_6421_17743" style="mask-type:luminance" maskUnits="userSpaceOnUse" x="0" y="0" width="106" height="22">
<path d="M0 21.9744H105.024V0.393555H0V21.9744Z" fill="white"/>
</mask>
<g mask="url(#mask2_6421_17743)">
<path fill-rule="evenodd" clip-rule="evenodd" d="M51.3515 19.037H53.4034L52.3773 16.5675L51.3515 19.037ZM53.7739 19.9398H50.9717L50.2783 21.6491H49.2902L52.0453 15H52.71L55.4648 21.6491H54.4767L53.7739 19.9398Z" fill="black"/>
</g>
<mask id="mask3_6421_17743" style="mask-type:luminance" maskUnits="userSpaceOnUse" x="0" y="0" width="106" height="22">
<path d="M0 21.9744H105.024V0.393555H0V21.9744Z" fill="white"/>
</mask>
<g mask="url(#mask3_6421_17743)">
<path fill-rule="evenodd" clip-rule="evenodd" d="M61.7335 20.5102C61.1634 21.2322 60.1754 21.7453 59.1496 21.7453C57.1641 21.7453 55.7015 20.2913 55.7015 18.3251C55.7015 16.4064 57.1449 14.9053 59.064 14.9053C60.0139 14.9053 60.9163 15.2954 61.4962 15.9318L60.8594 16.5584C60.47 16.131 59.7766 15.8081 59.064 15.8081C57.7055 15.8081 56.6511 16.8908 56.6511 18.3251C56.6511 19.8262 57.7342 20.8425 59.1496 20.8425C59.8525 20.8425 60.4319 20.5766 60.7831 20.225V18.5152H58.8837V17.6128H61.7335V20.5102Z" fill="black"/>
</g>
<mask id="mask4_6421_17743" style="mask-type:luminance" maskUnits="userSpaceOnUse" x="0" y="0" width="106" height="22">
<path d="M0 21.9744H105.024V0.393555H0V21.9744Z" fill="white"/>
</mask>
<g mask="url(#mask4_6421_17743)">
<path fill-rule="evenodd" clip-rule="evenodd" d="M66.1017 20.8421C67.4598 20.8421 68.4765 19.7688 68.4765 18.3251C68.4765 16.8904 67.4598 15.8081 66.1017 15.8081C64.7432 15.8081 63.7269 16.8904 63.7269 18.3251C63.7269 19.7688 64.7432 20.8421 66.1017 20.8421ZM66.1017 14.9053C67.9823 14.9053 69.4264 16.3871 69.4264 18.3251C69.4264 20.2627 67.9823 21.7449 66.1017 21.7449C64.2207 21.7449 62.7769 20.2627 62.7769 18.3251C62.7769 16.3871 64.2207 14.9053 66.1017 14.9053Z" fill="black"/>
</g>
</g>
<defs>
<clipPath id="clip0_6421_17743">
<rect width="105.286" height="22" fill="white"/>
</clipPath>
</defs>
</svg>
