<?xml version="1.0" encoding="utf-8"?>
<!-- Generator: Adobe Illustrator 24.3.0, SVG Export Plug-In . SVG Version: 6.00 Build 0)  -->
<svg version="1.1" id="Layer_1" xmlns="http://www.w3.org/2000/svg" xmlns:xlink="http://www.w3.org/1999/xlink" x="0px" y="0px"
	 viewBox="0 0 165 60" style="enable-background:new 0 0 165 60;" xml:space="preserve">
<style type="text/css">
	.st0{fill:none;}
	.st1{fill:#203c64;}
</style>
<rect class="st0" width="165" height="60"/>
<g>
	<polygon class="st1" points="80.353,17.792 77.998,28.955 77.946,28.955 75.284,17.792 69.523,17.792 66.834,28.955 66.783,28.955 
		64.427,17.792 57.438,17.792 62.764,36.071 69.856,36.071 72.365,25.934 72.416,25.934 74.9,36.071 81.992,36.071 87.343,17.792 	
		"/>
	<path class="st1" d="M100.454,21.759c0.946,0,1.765,0.102,2.458,0.435c0.664,0.333,1.203,0.921,1.408,1.87h8.142
		c-0.564-4.712-4.378-6.912-12.418-6.912c-5.531,0-11.932,1.843-11.932,9.856c0,8.451,6.887,9.705,11.959,9.705
		c4.147,0,6.503-0.642,8.37-2.305l0.819,1.663h3.1v-10.42h-10.267v4.147h2.968c-0.511,1.383-1.69,2.305-4.045,2.305
		c-3.583,0-5.375-1.792-5.375-5.171C95.64,23.22,97.507,21.759,100.454,21.759z"/>
	<polygon class="st1" points="88.084,40.022 87.172,38.017 85.011,38.017 87.138,41.69 87.138,43.129 89.03,43.129 89.03,41.69 
		91.158,38.017 88.997,38.017 	"/>
	<polygon class="st1" points="73.032,40.852 73.012,40.852 71.093,38.017 68.932,38.017 68.932,43.129 70.744,43.129 70.744,40.265 
		70.757,40.265 72.771,43.129 74.844,43.129 74.844,38.017 73.032,38.017 	"/>
	<path class="st1" d="M61.363,37.838c-1.148,0-3.275,0.086-3.275,2.735s2.127,2.735,3.275,2.735c1.148,0,3.275-0.086,3.275-2.735
		S62.51,37.838,61.363,37.838z M61.363,42.019c-0.772,0-1.262-0.408-1.262-1.446s0.49-1.446,1.262-1.446s1.262,0.408,1.262,1.446
		C62.624,41.611,62.134,42.019,61.363,42.019z"/>
	<path class="st1" d="M121.208,41.411c-0.034-0.444-0.262-0.702-0.544-0.788v-0.014c0.55-0.172,0.738-0.687,0.738-1.167
		c0-0.558-0.295-1.052-0.651-1.239c-0.262-0.136-0.591-0.186-1.134-0.186h-3.986v5.112h1.892v-1.575h1.342
		c0.349,0,0.47,0.229,0.49,0.609c0.034,0.594,0.034,0.816,0.101,0.967h2.067c-0.121-0.157-0.215-0.372-0.235-0.601L121.208,41.411z
		 M118.866,40.265h-1.342v-0.959h1.315c0.315,0,0.55,0.093,0.55,0.48C119.389,40.108,119.235,40.265,118.866,40.265z"/>
	<path class="st1" d="M152.318,38.017h-3.684v5.112h3.724c1.59,0,2.443-0.759,2.443-2.556
		C154.801,38.69,153.942,38.017,152.318,38.017z M151.614,41.84h-1.087v-2.535h1.087c0.866,0,1.215,0.458,1.215,1.267
		S152.479,41.84,151.614,41.84z"/>
	<polygon class="st1" points="159.096,43.129 164.189,43.129 164.189,41.883 160.988,41.883 160.988,41.196 163.961,41.196 
		163.961,39.95 160.988,39.95 160.988,39.263 164.189,39.263 164.189,38.017 159.096,38.017 	"/>
	<path class="st1" d="M136.36,39.986l-2.262-0.358c-0.188-0.029-0.248-0.122-0.248-0.265c0-0.215,0.195-0.365,0.758-0.365
		c0.208,0,0.423,0.029,0.591,0.107c0.174,0.072,0.289,0.2,0.289,0.408h2.201c-0.067-1.081-0.946-1.675-3.08-1.675
		c-1.557,0-2.772,0.358-2.772,1.683c0,0.716,0.383,1.289,1.309,1.439l2.161,0.344c0.255,0.043,0.342,0.193,0.342,0.344
		c0,0.244-0.161,0.415-0.752,0.415c-0.295,0-0.503-0.036-0.644-0.107c-0.134-0.079-0.195-0.193-0.201-0.365h-2.282
		c0.007,1.504,1.597,1.718,3.053,1.718c2.127,0,3.08-0.587,3.08-1.833C137.904,40.609,137.313,40.136,136.36,39.986z"/>
	<rect x="142.172" y="38.017" class="st1" width="1.892" height="5.112"/>
	<path class="st1" d="M109.29,41.11c0,0.659-0.356,0.866-0.973,0.866s-0.973-0.208-0.973-0.866v-3.093h-1.892v3.172
		c0,1.625,0.919,2.119,2.865,2.119s2.866-0.494,2.866-2.119v-3.172h-1.892L109.29,41.11L109.29,41.11z"/>
	<path class="st1" d="M97.982,37.838c-1.148,0-3.275,0.086-3.275,2.735s2.127,2.735,3.275,2.735s3.275-0.086,3.275-2.735
		S99.13,37.838,97.982,37.838z M97.982,42.019c-0.772,0-1.262-0.408-1.262-1.446s0.49-1.446,1.262-1.446s1.262,0.408,1.262,1.446
		S98.754,42.019,97.982,42.019z"/>
	<polygon class="st1" points="165,22.246 165,17.792 145.568,17.792 145.568,36.071 165,36.071 165,31.618 152.788,31.618 
		152.788,29.16 164.13,29.16 164.13,24.703 152.788,24.703 152.788,22.246 	"/>
	<polygon class="st1" points="128.874,28.418 128.823,28.418 125.827,17.792 115.66,17.792 115.66,36.071 122.217,36.071 
		122.217,23.014 122.268,23.014 126.107,36.071 131.587,36.071 135.428,23.014 135.479,23.014 135.479,36.071 142.033,36.071 
		142.033,17.792 131.869,17.792 	"/>
	<path class="st1" d="M49.414,29c0.931-0.306,1.721-0.887,2.313-1.708c0.67-0.928,1.04-2.104,1.04-3.309
		c0-2.417-1.403-4.383-4.057-5.687c-2.076-1.019-4.886-1.604-7.709-1.604c-2.767,0-5.284,0.602-7.28,1.74
		c-1.686,0.962-2.93,2.279-3.656,3.856v-5.566h-6.508L23.5,16.883c-1.367,3.826-3.218,4.474-4.85,4.603l-0.223,0.018v5.12h3.521
		V43.24h8.118v-4.297c0.976,1.318,2.386,2.365,4.203,3.117c1.929,0.799,4.257,1.221,6.733,1.221c3.095,0,6.166-0.713,8.424-1.956
		c2.771-1.525,4.235-3.76,4.235-6.465C53.659,31.921,52.196,29.908,49.414,29z M40.959,37.759c-1.781,0-3.081-0.407-3.862-1.209
		c-0.677-0.695-1.001-1.727-0.966-3.068l0.007-0.249h-6.074v-7.4h6.842l-0.004-0.247c-0.017-0.944,0.258-1.71,0.815-2.278
		c0.703-0.715,1.852-1.093,3.323-1.093c2.635,0,3.814,1.163,3.814,2.316c0,0.89-0.453,1.522-1.386,1.932
		c-0.922,0.405-2.116,0.49-2.955,0.49H40.27v4.683h0.242c3.311,0,4.787,0.995,4.787,3.226C45.3,36.998,43.057,37.759,40.959,37.759z
		"/>
	<path class="st1" d="M4.392,32.266c0,2.738,2.22,4.958,4.958,4.958c2.739,0,4.959-2.22,4.959-4.958s-2.22-4.958-4.959-4.958
		C6.612,27.308,4.392,29.528,4.392,32.266z"/>
	<path class="st1" d="M9.35,22.916c-5.164,0-9.35,4.187-9.35,9.35c0,5.164,4.186,9.35,9.35,9.35s9.35-4.187,9.35-9.35
		C18.701,27.102,14.515,22.916,9.35,22.916z M17.966,32.199c-1.636,3.022-4.708,5.576-8.615,5.56
		c-3.84-0.017-6.962-2.538-8.615-5.56c1.669-3.006,4.808-5.444,8.615-5.444C13.224,26.756,16.329,29.177,17.966,32.199z"/>
</g>
</svg>
