<?xml version="1.0" encoding="UTF-8" standalone="no"?>
<svg
   xmlns:dc="http://purl.org/dc/elements/1.1/"
   xmlns:cc="http://creativecommons.org/ns#"
   xmlns:rdf="http://www.w3.org/1999/02/22-rdf-syntax-ns#"
   xmlns:svg="http://www.w3.org/2000/svg"
   xmlns="http://www.w3.org/2000/svg"
   id="svg8"
   version="1.1"
   viewBox="0 0 264.58331 162.12457"
   height="162.12457mm"
   width="264.58331mm">
  <defs
     id="defs2" />
  <metadata
     id="metadata5">
    <rdf:RDF>
      <cc:Work
         rdf:about="">
        <dc:format>image/svg+xml</dc:format>
        <dc:type
           rdf:resource="http://purl.org/dc/dcmitype/StillImage" />
        <dc:title></dc:title>
      </cc:Work>
    </rdf:RDF>
  </metadata>
  <g
     transform="translate(293.74433,-1321.8659)"
     id="layer1">
    <g
       transform="matrix(0.06178023,0,0,0.06178023,-275.59674,1392.3092)"
       id="g2342">
      <path
         style="opacity:1;fill:#0056bf;fill-opacity:1;fill-rule:evenodd;stroke:none;stroke-width:0;stroke-linecap:square;stroke-linejoin:miter;stroke-miterlimit:4;stroke-dasharray:none;stroke-opacity:1;paint-order:normal"
         d="m 14060.801,-4309.5078 c 19.181,-0.011 38.282,0.3425 57.152,1.0312 123.04,4.4901 242.699,28.8973 357.18,79.8692 85.039,37.8633 151.826,79.7723 217.73,131.3144 60.662,47.4422 127.333,114.6489 162.354,156.3457 157.12,177.7537 220.597,402.4212 220.597,595.2578 v 7862.0606 c 0,116.2454 5.506,219.4474 -25.474,341.0371 -34.978,137.2789 -110.528,268.3133 -196.94,380.6348 -55.172,71.7154 -115.178,132.1674 -184.433,183.205 -76.143,56.1136 -158.934,99.4201 -265.463,134.6563 -57.947,19.1667 -118.268,33.1446 -180.359,41.6973 -127.524,17.5649 -261.777,13.4216 -381.428,-5.3536 -136.144,-21.363 -14064.69531,-2023.7023 -14222.20723,-2048.2226 -103.26906,-16.0762 -200.85229,-49.1384 -289.3711,-98.5176 -61.25015,-34.1677 -119.76471,-79.1016 -171.25586,-129.0683 -51.41525,-49.8932 -102.67528,-114.1305 -135.82226,-168.3536 -64.49305,-99.6141 -96.64685,-186.9621 -116.71285,-285.9843 -12.5859,-62.1091 -17.5739,-125.141 -16.3946,-190.4024 0,-1353.9965 1.3887,-2707.79123 1.3887,-4061.8906 0,-248.1735 82.681,-452.2506 264.46093,-621.3731 67.87866,-63.1522 173.5638,-136.7074 253.19727,-170.2359 84.64617,-35.6391 177.64153,-56.7036 294.2168,-72.9027 204.855629,-28.4665 13827.0932,-1994.1461 13984.9802,-2016.166 82.121,-11.5061 164.023,-25.2205 246.461,-32.9493 41.36,-3.8776 83.945,-5.6658 126.143,-5.6894 z"
         transform="scale(0.26458333)"
         id="rect2322" />
      <path
         id="path830"
         style="font-style:italic;font-variant:normal;font-weight:600;font-stretch:normal;font-size:medium;line-height:1.25;font-family:'Meno Banner';-inkscape-font-specification:'Meno Banner Semi-Bold Italic';font-variant-ligatures:normal;font-variant-caps:normal;font-variant-numeric:normal;font-feature-settings:normal;text-align:start;letter-spacing:0px;word-spacing:-56.990242px;writing-mode:lr-tb;text-anchor:start;fill:#ffffff;fill-opacity:1;stroke:none;stroke-width:7.55838728px;stroke-linecap:butt;stroke-linejoin:miter;stroke-opacity:1"
         d="m 167.0798,272.3761 c 97.11268,0 132.07324,-74.58254 121.97352,-156.93409 l -4.6614,0.7769 c 0,59.04451 -24.86085,114.98141 -102.55099,110.32001 11.65352,-52.8293 37.29127,-134.403951 81.57465,-264.146489 l 107.9893,-13.207325 2.3307,-6.992113 -100.22028,-11.653521 c 7.76901,-21.75324 21.75324,-65.259722 29.52225,-86.236062 7.76901,-21.75324 14.76113,-38.84507 29.52225,-48.16789 l -3.1076,-4.6614 c -15.53803,6.99211 -40.39888,14.76112 -61.37521,23.30704 -16.31493,6.99211 -20.19944,11.65352 -25.63775,24.86084 -11.65352,27.96846 -22.53014,60.598316 -34.18366,90.897472 l -66.03663,13.207324 -1.5538,5.43831 58.26761,13.207325 c -23.30704,69.144227 -48.16789,141.396059 -74.58254,224.524509 -22.53014,68.36733 -7.76901,85.45916 42.72958,85.45916 z" />
      <path
         id="path832"
         style="font-style:italic;font-variant:normal;font-weight:600;font-stretch:normal;font-size:medium;line-height:1.25;font-family:'Meno Banner';-inkscape-font-specification:'Meno Banner Semi-Bold Italic';font-variant-ligatures:normal;font-variant-caps:normal;font-variant-numeric:normal;font-feature-settings:normal;text-align:start;letter-spacing:0px;word-spacing:-56.990242px;writing-mode:lr-tb;text-anchor:start;fill:#ffffff;fill-opacity:1;stroke:none;stroke-width:7.55838728px;stroke-linecap:butt;stroke-linejoin:miter;stroke-opacity:1"
         d="m 335.63587,271.5992 19.42254,3.1076 c 52.8293,-121.19662 130.51944,-230.739719 198.88677,-291.338031 13.98422,-13.207324 29.52225,-24.083944 41.17577,-24.083944 5.43831,3.107606 10.09972,4.661408 5.43831,21.75324 -23.30704,75.359438 -52.05239,137.511555 -76.91324,203.548175 -27.19155,69.14423 -20.19944,87.01296 28.74535,87.01296 97.88958,0.7769 132.07325,-73.02874 123.52733,-156.15719 l -5.43831,0.7769 c 0,41.95268 -11.65352,110.32001 -89.34366,108.7662 3.8845,-18.64563 13.20732,-52.05239 22.53014,-80.02084 18.64563,-52.052399 68.36732,-165.480008 67.59042,-190.340854 -1.5538,-17.091831 -26.41465,-45.837184 -48.16789,-45.837184 -66.03662,0 -177.91042,168.58761 -235.40113,277.353808 l -3.10761,-2.3307 c 46.61409,-132.073245 132.07325,-360.48227 160.8186,-445.16452 15.53803,-43.50648 -13.20732,-44.28338 -28.74535,-44.28338 -62.92902,0 -105.6586,44.28338 -118.08902,58.2676 l 2.3307,3.88451 c 15.53803,-8.54591 46.61409,-21.75324 70.69803,-19.42253 -22.53014,101.77408 -100.99718,309.206765 -148.38817,449.82592 -19.42253,57.49071 0,80.79775 12.43042,84.68226 z" />
      <path
         id="path834"
         style="font-style:italic;font-variant:normal;font-weight:600;font-stretch:normal;font-size:medium;line-height:1.25;font-family:'Meno Banner';-inkscape-font-specification:'Meno Banner Semi-Bold Italic';font-variant-ligatures:normal;font-variant-caps:normal;font-variant-numeric:normal;font-feature-settings:normal;text-align:start;letter-spacing:0px;word-spacing:-56.990242px;writing-mode:lr-tb;text-anchor:start;fill:#ffffff;fill-opacity:1;stroke:none;stroke-width:7.55838728px;stroke-linecap:butt;stroke-linejoin:miter;stroke-opacity:1"
         d="m 936.32874,-92.767571 c -36.51437,0 -82.35155,21.75324 -118.86592,52.829297 -37.29127,31.8529589 -70.69803,85.459157 -84.68226,125.08113 -9.32281,2.330705 -22.53014,3.884507 -32.62986,3.884507 l -2.3307,4.661409 c 7.76901,1.553803 20.97634,2.330704 30.29915,3.107606 -13.98422,41.175772 -18.64563,76.136342 -18.64563,100.220282 0.7769,54.3831 34.18366,76.91324 87.78986,76.91324 80.79775,0 128.18874,-55.16 142.17296,-150.71887 l -5.43831,0.7769 c -17.09183,60.59831 -52.82929,107.21239 -106.43549,107.21239 -34.96057,0 -46.61409,-25.63774 -45.83719,-64.48281 0.7769,-21.75324 6.21521,-48.94479 14.76113,-75.359442 58.26761,-8.545916 117.31212,-28.745353 152.27268,-47.390987 37.29131,-19.422536 48.94481,-38.0681704 49.72171,-60.598312 0,-31.852958 -30.2992,-76.13634 -62.15213,-76.13634 z m -47.39099,141.39606 c -29.52225,16.31493 -62.15211,25.637747 -89.34366,31.076057 20.97633,-69.9211283 65.25972,-156.157187 104.10479,-156.157187 19.42253,0 33.40676,35.737466 34.18366,68.3673259 0,20.1994371 -17.09183,39.6219731 -48.94479,56.7138041 z" />
      <path
         id="path828"
         style="font-style:normal;font-variant:normal;font-weight:bold;font-stretch:normal;font-size:medium;line-height:1.25;font-family:'Meno Banner';-inkscape-font-specification:'Meno Banner Bold';font-variant-ligatures:normal;font-variant-caps:normal;font-variant-numeric:normal;font-feature-settings:normal;text-align:start;letter-spacing:-26.45833397px;word-spacing:-104.25035858px;writing-mode:lr-tb;text-anchor:start;fill:#ffffff;fill-opacity:1;stroke:none;stroke-width:13.82630634px;stroke-linecap:butt;stroke-linejoin:miter;stroke-opacity:1"
         d="m 1339.8623,416.5196 c 159.1699,0 285.6532,-72.47915 285.6532,-216.01629 0,-113.692783 -63.9522,-171.960334 -223.1221,-211.752808 -86.6908,-22.738557 -139.2737,-56.846392 -139.2737,-132.167862 0,-61.10987 34.1079,-116.5351 117.9563,-116.5351 75.3214,0 150.6429,98.06002 190.4354,194.69889 h 14.2116 c 0,-76.74263 0,-100.90235 -1.4212,-122.21974 -2.8423,-44.05596 -19.8962,-65.37335 -76.7426,-78.16379 -36.9502,-8.52696 -76.7426,-11.36928 -120.7986,-11.36928 -164.8545,0 -271.4415,82.42727 -271.4415,210.33165 0,133.58902 93.7965,181.90845 227.3856,211.75281 71.058,15.63276 135.0101,45.47711 135.0101,125.06206 0,69.63683 -41.2136,127.90438 -132.1678,127.90438 -90.9542,0 -183.3296,-99.48118 -220.2798,-224.54325 h -12.7904 c -9.9481,102.32351 -9.9481,119.37743 -9.9481,132.16786 1.4211,46.89828 9.9481,69.63683 81.0061,89.53307 41.2136,11.36928 95.2177,21.3174 156.3275,21.3174 z" />
      <path
         id="path831"
         style="font-style:normal;font-variant:normal;font-weight:bold;font-stretch:normal;font-size:medium;line-height:1.25;font-family:'Meno Banner';-inkscape-font-specification:'Meno Banner Bold';font-variant-ligatures:normal;font-variant-caps:normal;font-variant-numeric:normal;font-feature-settings:normal;text-align:start;letter-spacing:-26.45833397px;word-spacing:-104.25035858px;writing-mode:lr-tb;text-anchor:start;fill:#ffffff;fill-opacity:1;stroke:none;stroke-width:13.82630634px;stroke-linecap:butt;stroke-linejoin:miter;stroke-opacity:1"
         d="m 2033.3273,393.78104 c -83.8484,0 -119.3774,-68.21567 -119.3774,-171.96033 v -362.39575 c 29.8443,-14.2116 63.9522,-22.73856 99.4812,-27.00204 110.8504,-1.42115 173.3815,82.427273 173.3815,250.124128 0,183.329612 -49.7406,311.233992 -153.4853,311.233992 z m -420.6633,406.4517 c 78.1638,-4.26348 154.9064,-4.26348 221.7009,-4.26348 63.9522,0 146.3795,1.42116 223.1221,4.26348 V 787.4423 C 1938.1096,776.07303 1913.9499,733.43823 1913.9499,615.48197 V 378.14828 c 28.4232,22.73856 68.2156,35.529 123.6409,35.529 170.5392,0 338.236,-99.48119 338.236,-365.238067 0,-218.858603 -116.5351,-319.760953 -237.3337,-319.760953 -35.529,0 -62.531,7.1058 -86.6907,15.63276 -38.3713,22.73855 -108.0082,73.90031 -140.6948,103.74466 0,-5.68464 1.4211,-83.84843 5.6846,-113.69278 l -7.1058,-8.52696 c -18.4751,7.1058 -272.8627,72.47915 -292.7589,78.16379 l 1.4211,9.94812 88.1119,21.31739 c 21.3174,25.58088 28.4232,92.375391 28.4232,164.85454003 V 615.48197 c 0,102.3235 -8.5269,162.01222 -122.2197,171.96033 z" />
      <path
         id="path833"
         style="font-style:normal;font-variant:normal;font-weight:bold;font-stretch:normal;font-size:medium;line-height:1.25;font-family:'Meno Banner';-inkscape-font-specification:'Meno Banner Bold';font-variant-ligatures:normal;font-variant-caps:normal;font-variant-numeric:normal;font-feature-settings:normal;text-align:start;letter-spacing:-26.45833397px;word-spacing:-104.25035858px;writing-mode:lr-tb;text-anchor:start;fill:#ffffff;fill-opacity:1;stroke:none;stroke-width:13.82630634px;stroke-linecap:butt;stroke-linejoin:miter;stroke-opacity:1"
         d="m 2752.3108,416.5196 c 218.8586,0 346.763,-144.9583 346.763,-348.18415 0,-200.38353 -126.4833,-345.34183 -346.763,-345.34183 -218.8586,0 -345.3418,142.11598 -345.3418,345.34183 0,203.22585 127.9043,348.18415 345.3418,348.18415 z m 0,-17.05392 c -110.8505,0 -146.3795,-146.37946 -146.3795,-331.13023 0,-183.32961 35.529,-329.70907 146.3795,-329.70907 112.2716,0 147.8006,146.37946 147.8006,329.70907 0,184.75077 -35.529,331.13023 -147.8006,331.13023 z" />
      <path
         id="path835"
         style="font-style:normal;font-variant:normal;font-weight:bold;font-stretch:normal;font-size:medium;line-height:1.25;font-family:'Meno Banner';-inkscape-font-specification:'Meno Banner Bold';font-variant-ligatures:normal;font-variant-caps:normal;font-variant-numeric:normal;font-feature-settings:normal;text-align:start;letter-spacing:-26.45833397px;word-spacing:-104.25035858px;writing-mode:lr-tb;text-anchor:start;fill:#ffffff;fill-opacity:1;stroke:none;stroke-width:13.82630634px;stroke-linecap:butt;stroke-linejoin:miter;stroke-opacity:1"
         d="m 3433.0578,412.25612 c 59.6887,-24.15972 112.2716,-54.00407 167.6968,-89.53307 l -2.8423,-8.52696 c -31.2655,7.1058 -71.058,11.36928 -99.4812,11.36928 -86.6907,0 -152.0641,-38.37131 -152.0641,-180.48729 v -332.55139 l 197.5413,1.42116 18.475,-75.32147 -216.0163,8.52696 c 0,-75.32147 1.4212,-136.43134 9.9482,-181.90846 l -17.054,-8.52695 c -52.5829,78.16378 -156.3275,183.32961 -268.5992,243.01832 l 2.8424,12.79044 h 92.3753 v 325.44559 c 0,211.75281 51.1618,278.54732 267.1781,274.28384 z" />
      <path
         id="path846"
         style="font-style:normal;font-variant:normal;font-weight:bold;font-stretch:normal;font-size:medium;line-height:1.25;font-family:'Forma DJR Deck';-inkscape-font-specification:'Forma DJR Deck Bold';font-variant-ligatures:normal;font-variant-caps:normal;font-variant-numeric:normal;font-feature-settings:normal;text-align:start;letter-spacing:0px;word-spacing:-18.63372612px;writing-mode:lr-tb;text-anchor:start;fill:#ffffff;fill-opacity:1;stroke:none;stroke-width:2.47131634px;stroke-linecap:butt;stroke-linejoin:miter;stroke-opacity:1"
         d="m 2340.3585,706.91458 c 54.3599,0 89.9225,-37.84873 89.9225,-92.20865 0,-57.40815 -35.8166,-93.22473 -89.9225,-93.22473 -54.614,0 -89.6685,36.57864 -89.6685,93.22473 0,54.35992 35.3086,92.20865 89.6685,92.20865 z m 0.254,-29.72014 c -32.0063,0 -50.0416,-23.87773 -50.0416,-62.48851 0,-39.62686 17.2732,-63.50459 49.7876,-63.50459 32.5143,0 50.0416,24.63978 50.0416,63.50459 0,38.8648 -17.7813,62.48851 -49.7876,62.48851 z" />
      <path
         id="path848"
         style="font-style:normal;font-variant:normal;font-weight:bold;font-stretch:normal;font-size:medium;line-height:1.25;font-family:'Forma DJR Deck';-inkscape-font-specification:'Forma DJR Deck Bold';font-variant-ligatures:normal;font-variant-caps:normal;font-variant-numeric:normal;font-feature-settings:normal;text-align:start;letter-spacing:0px;word-spacing:-18.63372612px;writing-mode:lr-tb;text-anchor:start;fill:#ffffff;fill-opacity:1;stroke:none;stroke-width:2.47131634px;stroke-linecap:butt;stroke-linejoin:miter;stroke-opacity:1"
         d="m 2554.0465,632.99525 c 25.1479,-7.62055 39.6269,-25.65586 39.6269,-51.81974 0,-37.08668 -25.6558,-55.88404 -70.1091,-55.88404 h -71.6331 c -1.7782,0 -2.7942,0.76206 -2.7942,2.7942 l 1.2701,86.11222 -1.2701,86.11222 c 0,2.03214 1.016,2.7942 2.7942,2.7942 h 34.0384 c 1.7782,0 2.7942,-0.76206 2.7942,-2.7942 l -1.016,-63.25057 h 25.4018 l 17.5273,26.41791 22.8616,37.84873 c 0.7621,1.52411 1.7781,1.77813 3.3022,1.77813 h 38.6108 c 2.2862,0 3.0483,-1.52411 1.7782,-3.30224 z m -28.958,-79.50774 c 19.8134,0 31.2442,9.14466 31.2442,28.45005 0,19.30539 -13.971,26.92594 -30.2282,26.92594 h -38.6108 l 0.7621,-55.37599 z" />
      <path
         id="path850"
         style="font-style:normal;font-variant:normal;font-weight:bold;font-stretch:normal;font-size:medium;line-height:1.25;font-family:'Forma DJR Deck';-inkscape-font-specification:'Forma DJR Deck Bold';font-variant-ligatures:normal;font-variant-caps:normal;font-variant-numeric:normal;font-feature-settings:normal;text-align:start;letter-spacing:0px;word-spacing:-18.63372612px;writing-mode:lr-tb;text-anchor:start;fill:#ffffff;fill-opacity:1;stroke:none;stroke-width:2.47131634px;stroke-linecap:butt;stroke-linejoin:miter;stroke-opacity:1"
         d="m 2657.4037,631.47114 h 75.9514 c 1.7782,0 2.7943,-1.01608 2.7943,-2.7942 v -23.11567 c 0,-1.77813 -1.0161,-2.79421 -2.7943,-2.79421 h -75.9514 l 1.2701,-48.77152 h 78.2376 c 1.7781,0 2.7942,-1.01607 2.7942,-2.7942 v -23.11567 c 0,-1.77813 -1.0161,-2.7942 -2.7942,-2.7942 h -115.0703 c -1.7781,0 -2.7942,0.76206 -2.7942,2.7942 l 1.5241,86.11222 -1.5241,86.11222 c 0,2.03214 1.0161,2.7942 2.7942,2.7942 h 34.0385 c 1.7781,0 2.7942,-0.76206 2.7942,-2.7942 z" />
      <path
         id="path852"
         style="font-style:normal;font-variant:normal;font-weight:bold;font-stretch:normal;font-size:medium;line-height:1.25;font-family:'Forma DJR Deck';-inkscape-font-specification:'Forma DJR Deck Bold';font-variant-ligatures:normal;font-variant-caps:normal;font-variant-numeric:normal;font-feature-settings:normal;text-align:start;letter-spacing:0px;word-spacing:-18.63372612px;writing-mode:lr-tb;text-anchor:start;fill:#ffffff;fill-opacity:1;stroke:none;stroke-width:2.47131634px;stroke-linecap:butt;stroke-linejoin:miter;stroke-opacity:1"
         d="m 2847.1884,706.91458 c 54.36,0 89.9225,-37.84873 89.9225,-92.20865 0,-57.40815 -35.8165,-93.22473 -89.9225,-93.22473 -54.6139,0 -89.6684,36.57864 -89.6684,93.22473 0,54.35992 35.3085,92.20865 89.6684,92.20865 z m 0.2541,-29.72014 c -32.0063,0 -50.0416,-23.87773 -50.0416,-62.48851 0,-39.62686 17.2732,-63.50459 49.7875,-63.50459 32.5144,0 50.0417,24.63978 50.0417,63.50459 0,38.8648 -17.7813,62.48851 -49.7876,62.48851 z" />
      <path
         id="path854"
         style="font-style:normal;font-variant:normal;font-weight:bold;font-stretch:normal;font-size:medium;line-height:1.25;font-family:'Forma DJR Deck';-inkscape-font-specification:'Forma DJR Deck Bold';font-variant-ligatures:normal;font-variant-caps:normal;font-variant-numeric:normal;font-feature-settings:normal;text-align:start;letter-spacing:0px;word-spacing:-18.63372612px;writing-mode:lr-tb;text-anchor:start;fill:#ffffff;fill-opacity:1;stroke:none;stroke-width:2.47131634px;stroke-linecap:butt;stroke-linejoin:miter;stroke-opacity:1"
         d="m 3067.0061,674.40024 h -71.3792 l -1.2701,-62.48852 1.2701,-83.82605 c 0,-2.03214 -1.0161,-2.7942 -2.7942,-2.7942 h -34.0385 c -1.7781,0 -2.7942,0.76206 -2.7942,2.7942 l 1.5241,86.11222 -1.5241,86.11222 c 0,2.03214 1.0161,2.7942 2.7942,2.7942 h 108.2119 c 1.7781,0 2.7942,-1.01607 2.7942,-2.7942 v -23.11567 c 0,-1.77813 -1.0161,-2.7942 -2.7942,-2.7942 z" />
      <path
         id="path856"
         style="font-style:normal;font-variant:normal;font-weight:bold;font-stretch:normal;font-size:medium;line-height:1.25;font-family:'Forma DJR Deck';-inkscape-font-specification:'Forma DJR Deck Bold';font-variant-ligatures:normal;font-variant-caps:normal;font-variant-numeric:normal;font-feature-settings:normal;text-align:start;letter-spacing:0px;word-spacing:-18.63372612px;writing-mode:lr-tb;text-anchor:start;fill:#ffffff;fill-opacity:1;stroke:none;stroke-width:2.47131634px;stroke-linecap:butt;stroke-linejoin:miter;stroke-opacity:1"
         d="m 3180.5175,527.0696 -52.0737,72.64924 0.762,-71.63317 c 0,-2.03214 -1.016,-2.7942 -2.7942,-2.7942 h -33.7844 c -1.7781,0 -2.7942,0.76206 -2.7942,2.7942 l 1.2701,86.11222 -1.2701,86.11222 c 0,2.03214 1.0161,2.7942 2.7942,2.7942 h 33.7844 c 1.7782,0 2.7942,-0.76206 2.7942,-2.7942 l -0.762,-53.85189 14.9871,-18.54334 28.45,42.9291 20.3215,30.4822 c 0.762,1.27009 2.0321,1.77813 3.5562,1.77813 h 41.405 c 2.2862,0 3.0483,-1.27009 1.7782,-3.30224 l -70.6171,-102.11537 56.392,-69.09299 c 1.5241,-2.03215 0.7621,-3.30224 -1.5241,-3.30224 h -39.3728 c -1.5241,0 -2.5402,0.50804 -3.3023,1.77813 z" />
      <path
         id="path858"
         style="font-style:normal;font-variant:normal;font-weight:bold;font-stretch:normal;font-size:medium;line-height:1.25;font-family:'Forma DJR Deck';-inkscape-font-specification:'Forma DJR Deck Bold';font-variant-ligatures:normal;font-variant-caps:normal;font-variant-numeric:normal;font-feature-settings:normal;text-align:start;letter-spacing:0px;word-spacing:-18.63372612px;writing-mode:lr-tb;text-anchor:start;fill:#ffffff;fill-opacity:1;stroke:none;stroke-width:2.47131634px;stroke-linecap:butt;stroke-linejoin:miter;stroke-opacity:1"
         d="m 3435.2928,674.40024 h -84.8422 v -3.04822 c 0,-34.03846 87.6364,-30.22819 87.6364,-96.01894 -1.0161,-33.2764 -21.0836,-53.34385 -60.7104,-53.34385 -40.897,0.25402 -61.7265,22.35362 -61.9805,60.71039 0,1.77812 1.0161,2.7942 2.7942,2.7942 h 29.7201 c 1.7782,0 2.7943,-1.01608 2.7943,-2.7942 0.762,-21.33755 10.9227,-32.76837 26.6719,-33.02239 16.5112,-0.25402 25.6558,9.90672 24.8938,26.92595 0,37.34069 -87.8904,30.73621 -87.8904,101.60733 v 22.0996 c 0,1.77813 1.0161,2.7942 2.7942,2.7942 h 118.1186 c 1.7781,0 2.7942,-1.01607 2.7942,-2.7942 v -23.11567 c 0,-1.77813 -1.0161,-2.7942 -2.7942,-2.7942 z" />
      <path
         id="path860"
         style="font-style:normal;font-variant:normal;font-weight:bold;font-stretch:normal;font-size:medium;line-height:1.25;font-family:'Forma DJR Deck';-inkscape-font-specification:'Forma DJR Deck Bold';font-variant-ligatures:normal;font-variant-caps:normal;font-variant-numeric:normal;font-feature-settings:normal;text-align:start;letter-spacing:0px;word-spacing:-18.63372612px;writing-mode:lr-tb;text-anchor:start;fill:#ffffff;fill-opacity:1;stroke:none;stroke-width:2.47131634px;stroke-linecap:butt;stroke-linejoin:miter;stroke-opacity:1"
         d="m 3524.2469,700.81814 c 7.8746,-54.61394 26.926,-102.36939 48.5175,-144.53643 0.5081,-1.27009 0.7621,-2.03215 0.7621,-3.30224 v -24.8938 c 0,-1.77813 -1.0161,-2.7942 -2.7942,-2.7942 h -111.7681 c -1.7781,0 -2.7942,1.01607 -2.7942,2.7942 v 23.11567 c 0,1.77813 1.0161,2.7942 2.7942,2.7942 h 72.6492 c -23.3696,40.1349 -39.1188,93.73277 -47.2474,146.31457 -0.254,2.03214 0.7621,3.04822 2.5402,3.04822 h 34.5465 c 1.5241,0 2.5402,-0.76206 2.7942,-2.54019 z" />
      <path
         id="path862"
         style="font-style:normal;font-variant:normal;font-weight:bold;font-stretch:normal;font-size:medium;line-height:1.25;font-family:'Forma DJR Deck';-inkscape-font-specification:'Forma DJR Deck Bold';font-variant-ligatures:normal;font-variant-caps:normal;font-variant-numeric:normal;font-feature-settings:normal;text-align:start;letter-spacing:0px;word-spacing:-18.63372612px;writing-mode:lr-tb;text-anchor:start;fill:#ffffff;fill-opacity:1;stroke:none;stroke-width:2.47131634px;stroke-linecap:butt;stroke-linejoin:miter;stroke-opacity:1"
         d="m 2114.0846,630.9631 -1.5241,-54.61394 69.855,124.723 c 0.7621,1.52411 1.7782,2.03215 3.3023,2.03215 h 43.6911 c 1.7782,0 2.7942,-0.76206 2.7942,-2.7942 l -1.2701,-86.11222 1.2701,-86.11222 c 0,-2.03214 -1.016,-2.7942 -2.7942,-2.7942 h -30.9902 c -1.7781,0 -2.7942,1.01607 -2.7942,2.7942 v 77.98363 l 1.5241,46.9934 -71.3792,-125.73908 c -0.762,-1.52411 -1.7781,-2.03215 -3.3022,-2.03215 h -41.913 c -1.7781,0 -2.7942,0.76206 -2.7942,2.7942 l 1.2701,86.11222 -1.2701,86.11222 c 0,2.03214 1.0161,2.7942 2.7942,2.7942 h 30.7362 c 1.7781,0 2.7942,-1.01607 2.7942,-2.7942 z" />
    </g>
  </g>
</svg>
