<?xml version="1.0" encoding="utf-8"?>
<!-- Generator: Adobe Illustrator 16.0.0, SVG Export Plug-In . SVG Version: 6.00 Build 0)  -->
<!DOCTYPE svg PUBLIC "-//W3C//DTD SVG 1.1//EN" "http://www.w3.org/Graphics/SVG/1.1/DTD/svg11.dtd">
<svg version="1.1" id="Layer_1" xmlns="http://www.w3.org/2000/svg" xmlns:xlink="http://www.w3.org/1999/xlink" x="0px" y="0px"
	 width="351px" height="123px" viewBox="0 0 351 123" enable-background="new 0 0 351 123" xml:space="preserve">
<path fill="#00000D" d="M169.866,117.172l5.551-23.764h23.206c31.856,0,50.695-11.553,56.02-34.325
	c5.22-22.337-8.431-33.192-41.732-33.192h-40.145l-15.351,65.745h-0.062l-5.971,25.536H169.866z M187.6,41.401h26.646
	c18.019,0,25.411,5.901,22.568,18.071c-2.888,12.398-13.114,18.67-30.371,18.67h-27.177l0.026-0.157h-0.239L187.6,41.401z"/>
<path fill="#00000D" d="M170.769,118.312h-20.826l21.919-93.563h41.049c20.228,0,33.152,3.911,39.518,11.948
	c4.414,5.581,5.531,13.198,3.326,22.646c-5.463,23.362-24.686,35.208-57.131,35.208h-22.3L170.769,118.312z M152.821,116.029h16.139
	l5.555-23.766h24.108c31.246,0,49.72-11.25,54.91-33.442c2.067-8.858,1.123-15.63-2.894-20.704
	c-5.82-7.355-18.516-11.083-37.729-11.083h-39.24L152.821,116.029z M206.44,79.288h-28.539l0.026-0.161h-0.312l9.08-38.871h27.547
	c11.098,0,18.219,2.182,21.774,6.673c2.509,3.173,3.152,7.476,1.907,12.803C234.899,72.704,224.307,79.288,206.44,79.288
	 M180.629,77h25.812c16.668,0,26.512-5.985,29.262-17.788c1.093-4.676,0.611-8.231-1.474-10.861
	c-3.05-3.855-9.774-5.809-19.985-5.809h-25.738l-8.016,34.297h0.169L180.629,77z"/>
<path fill="#0080C5" d="M39.338,96.288C28.518,85.186,24.13,69.494,29.636,51.414c5.593-18.43,19.993-34.525,38.065-45.745
	c0.13-0.083,0.243-0.167,0.354-0.238c1.108-0.669,0.383-0.852-0.376-0.892c-0.182-0.006-0.378-0.006-0.563-0.006
	c-0.083,0.006-0.168,0.006-0.225,0.016V4.539c-1.946,0.009-4.573,0.111-7.521,0.478L59.356,5.03
	c-0.949,0.157-3.383,0.984-4.624,1.701C37.487,17.878,23.861,33.512,18.44,51.33c-5.424,17.833-1.249,33.325,9.256,44.402
	c1.31,1.216,3.968,1.879,5.355,2.117c2.883,0.327,5.602,0.5,7.421,0.58c0.096-0.191-0.048-0.629-0.697-1.466
	C39.601,96.723,39.458,96.5,39.338,96.288"/>
<path fill="#0080C5" d="M35.502,15.079c0,0-53.035,29.702-19.554,72.27C15.948,87.349-7.764,54.981,35.502,15.079"/>
<path fill="#0080C5" d="M88.343,7.193c0,0,0.068-0.38-2.329-0.346h-0.205c-0.085,0.003-0.162,0.012-0.236,0.012l0.013-0.009
	c-1.966,0.009-4.569,0.108-7.523,0.463l-0.006,0.013c-0.946,0.164-3.388,0.951-4.619,1.645
	C56.222,19.777,42.633,34.922,37.255,52.167c-5.38,17.26-1.161,32.272,9.356,42.995c1.329,1.179,3.991,1.815,5.378,2.046
	c2.878,0.315,5.604,0.479,7.412,0.571c0.032-0.059,0.037-0.133,0.014-0.232l0.286,0.031c-7.534-10.896-11.773-23.569-10.818-35.208
	C50.473,42.919,66.131,19.098,88.343,7.193"/>
<path fill="#00000D" d="M342.953,65.284c-2.926-3.88-7.37-6.633-13.584-8.195c7.824-4.303,12.411-9.55,13.871-15.766
	c0.784-3.392,0.546-6.704-0.771-10.102c-1.278-3.259-3.312-5.96-6.229-8.207c-2.963-2.117-6.738-3.661-11.476-4.525
	c-4.643-0.852-10.967-1.284-18.84-1.404h-0.08h-0.315h-21.687h-0.15h-20.587l-5.938,25.355c-0.021-0.105-0.059-0.213-0.083-0.315
	l-6.072,25.988c0.057-0.102,0.146-0.191,0.203-0.281l-8.354,35.639l17.974,0.072h24.653h9.242c8.361,0,15.454-0.5,21.334-1.559
	c5.38-1.211,10.448-3.183,15.254-6.01c7.901-4.667,12.596-10.318,14.186-17.111C346.697,73.71,345.879,69.176,342.953,65.284
	 M272.228,54.194l5.684-24.343h5.441h18.643h6.167c6.136,0,10.444,1.031,13.244,3.077c2.781,2.056,3.617,5.006,2.679,8.985
	c-0.938,4.046-3.191,7.136-6.769,9.191c-3.676,2.065-8.88,3.164-15.553,3.164l-5.216-0.074H272.228z M320.425,87.745
	c-3.827,2.003-9.447,2.972-16.651,2.972l-9.556-0.059h-30.291l5.236-22.436h30.366h7.741c8.556,0,14.287,1.093,17.151,3.226
	c2.929,2.247,4.059,4.92,3.324,8.086C326.885,82.868,324.486,85.618,320.425,87.745"/>
<path fill="#00000D" d="M294.729,104.686l-53.31-0.08l8.606-36.704l-0.125-0.046l6.068-25.991h0.162l6.069-25.92h43.644
	c8.392,0.126,14.614,0.596,19.127,1.426c4.75,0.864,8.762,2.45,11.932,4.716c3.103,2.386,5.257,5.231,6.624,8.719
	c1.398,3.599,1.667,7.124,0.821,10.778c-1.377,5.876-5.445,10.96-12.111,15.145c5.092,1.679,8.913,4.269,11.623,7.868
	c3.105,4.124,4.028,9.013,2.75,14.528c-1.67,7.142-6.484,12.979-14.716,17.836c-4.88,2.874-9.979,4.883-15.581,6.139
	C310.372,104.17,303.325,104.686,294.729,104.686 M244.297,102.334l50.433,0.068c8.461,0,15.374-0.506,21.134-1.541
	c5.321-1.197,10.204-3.12,14.877-5.873c7.663-4.521,12.13-9.883,13.651-16.383c1.133-4.892,0.364-9.028-2.349-12.633
	c-2.831-3.75-7.065-6.296-12.951-7.775l-2.818-0.709l2.55-1.401c7.451-4.099,11.93-9.155,13.306-15.025
	c0.734-3.188,0.497-6.271-0.726-9.429c-1.209-3.083-3.129-5.605-5.857-7.71c-2.861-2.046-6.568-3.5-10.985-4.306
	c-4.389-0.805-10.491-1.262-18.654-1.389H264.01L258.277,42.7h-0.156l-5.923,25.346l0.128,0.049L244.297,102.334z M303.773,91.855
	l-9.562-0.052h-31.724l5.772-24.723h39.011c8.883,0,14.716,1.129,17.834,3.451c3.33,2.552,4.589,5.664,3.75,9.262
	c-0.957,3.713-3.615,6.723-7.902,8.963C317.023,90.812,311.242,91.855,303.773,91.855 M265.363,89.516l38.416,0.056
	c7.093,0,12.516-0.957,16.118-2.843c3.743-1.954,5.95-4.401,6.744-7.481c0.613-2.655-0.337-4.917-2.914-6.889
	c-2.657-1.985-8.198-2.991-16.457-2.991h-37.201L265.363,89.516z M301.764,55.41l-5.234-0.074H270.79l6.219-26.627h31.153
	c6.327,0,10.88,1.074,13.917,3.293c3.114,2.306,4.164,5.726,3.117,10.17c-1.016,4.38-3.479,7.716-7.312,9.923
	C313.968,54.296,308.548,55.41,301.764,55.41 M273.668,53.052l28.111,0.074c6.374,0,11.417-1.016,14.979-3.019
	c3.253-1.871,5.353-4.716,6.217-8.454c0.843-3.574,0.13-6.056-2.247-7.806c-2.627-1.92-6.738-2.855-12.565-2.855h-29.345
	L273.668,53.052z"/>
<path fill="#00000D" d="M115.978,67.528h26.758l-0.158,0.299c-7.928,14.531-21.098,22.865-36.147,22.865
	c-10.539,0-19.558-3.716-25.351-10.479c-5.605-6.531-7.519-15.161-5.363-24.281c4.525-19.204,25.701-34.825,47.191-34.825
	c12.162,0,22.245,4.941,27.639,13.562c0.292,0.459,0.511,0.886,0.705,1.395l0.377,0.901l15.812-10.734l-0.428-0.642
	c-7.94-12.365-22.685-19.448-40.429-19.448c-31.288,0-62.02,22.362-68.492,49.844c-3.054,12.926-0.304,25.208,7.728,34.556
	c8.494,9.902,21.755,15.358,37.342,15.358c29.693,0,55.265-20.5,62.177-49.843l0.808-3.256h-46.703L115.978,67.528z"/>
<path fill="#00000D" d="M103.159,107.041c-15.92,0-29.486-5.596-38.206-15.753c-8.279-9.642-11.113-22.275-7.971-35.568
	C63.57,27.752,94.793,4.996,126.584,4.996c18.151,0,33.235,7.284,41.387,19.973l1.05,1.571l-17.908,12.154l-0.912-2.185
	c-0.177-0.463-0.356-0.815-0.615-1.226C144.401,27,134.68,22.249,122.908,22.249c-21,0-41.672,15.229-46.083,33.945
	c-2.069,8.753-0.248,17.019,5.118,23.275c5.571,6.5,14.267,10.077,24.488,10.077c14.126,0,26.57-7.583,34.359-20.877h-26.252
	l4-17.016h49.065l-1.159,4.679C159.415,86.183,133.39,107.041,103.159,107.041 M126.584,7.283
	c-30.795,0-61.021,21.963-67.381,48.964c-2.969,12.565-0.312,24.476,7.479,33.547c8.279,9.651,21.235,14.964,36.478,14.964
	c29.169,0,54.279-20.134,61.066-48.965l0.461-1.852h-44.343l-2.927,12.445h27.234l-1.07,1.985
	c-8.137,14.914-21.678,23.463-37.15,23.463c-10.898,0-20.208-3.864-26.218-10.877c-5.855-6.824-7.848-15.806-5.61-25.291
	c4.642-19.683,26.311-35.701,48.305-35.701c12.571,0,23.001,5.139,28.605,14.099c0.252,0.398,0.452,0.772,0.63,1.173l13.724-9.318
	C158.085,14.064,143.796,7.283,126.584,7.283"/>
</svg>
