<svg xmlns="http://www.w3.org/2000/svg" width="884" height="565" xmlns:v="https://vecta.io/nano"><path d="M0 482v-83h442 442v83 83H442 0zm103.5 51.804c7.653-1.653 16.261-6.434 22.784-12.657 9.092-8.672 9.195-7.958-2.321-16.076-5.517-3.889-10.299-7.071-10.626-7.071s-2.316 1.556-4.421 3.457c-6.07 5.484-11.481 7.79-18.429 7.855-14.637.138-24.676-10.698-24.752-26.717-.117-24.485 24.209-36.139 42.016-20.129l4.763 4.282 10.243-7.943c5.634-4.369 10.243-8.283 10.243-8.699s-2.534-3.311-5.632-6.433c-10.04-10.121-25.111-15.402-40.868-14.321-14.286.98-26.012 6.347-35.536 16.265-26.266 27.353-16.076 73.086 19.291 86.581 8.942 3.412 21.97 4.042 33.245 1.607zm333.919-1.738c36.614-12.833 47.336-59.972 19.787-86.99-21.969-21.544-56.9-21.373-78.782.387C367.955 455.872 363 467.772 363 482.5c0 23.327 14.617 43.026 37.5 50.538 9.577 3.144 26.441 2.7 36.919-.972zM410 508.463c-9.753-3.028-16.844-12.597-17.745-23.944-1.269-15.98 8.352-28.076 23.283-29.275 11.162-.896 19.992 4.062 25.23 14.165 2.207 4.258 2.639 6.397 2.639 13.09 0 6.715-.429 8.827-2.668 13.149-3.298 6.364-8.699 10.95-15.169 12.88-5.987 1.786-9.656 1.771-15.569-.065zM170.878 523.75l3.459-8.75H194h19.663l3.46 8.75 3.46 8.75 15.208.276c8.365.152 15.208.103 15.208-.109 0-.346-7.353-17.83-33.713-80.167l-8.99-21.277c-.403-.967-3.818-1.21-14.071-1l-13.538.277-21.344 50.468-21.346 51.5c-.001.685 4.941.864 14.71.532l14.712-.5zM183 492.516c0-.645 10.02-25.74 10.748-26.918.455-.735 8.347 17.97 10.823 25.652.514 1.595-.415 1.75-10.503 1.75-6.087 0-11.067-.218-11.067-.484zm107 24.925V502h5.429c3.183 0 5.975.549 6.75 1.328.727.73 5.535 7.685 10.684 15.454l9.363 14.126 16.389.296c9.014.163 16.388.136 16.387-.058s-5.358-8.165-11.905-17.711l-11.904-17.357 4.154-2.457c5.836-3.452 11.161-9.263 13.854-15.121 3.328-7.238 3.291-21.749-.074-29.227-4.5-10-15.202-17.199-28.626-19.256-4.046-.62-17.972-.955-33-.795l-26 .278-.259 50.722-.259 50.722 13.759.278c7.568.153 14.097.139 14.509-.031s.75-7.257.75-15.75zM290 468v-12.159l12.931.329c14.727.375 17.575 1.551 19.793 8.175 1.584 4.729-.084 10.116-4.043 13.059-2.454 1.824-4.497 2.138-15.75 2.425l-12.931.329zm316.759 14.197L606.5 431.5l-14.25-.277-14.25-.277v50.861l.413 51.277c.227.229 6.757.28 14.509.114l14.096-.303zM653 505.64l.5-27.86 21.428 27.555 21.428 27.555 12.409.305c6.825.168 12.595.117 12.822-.112s.413-23.292.413-51.25V431h-14-14v26.5c0 14.575-.337 26.483-.75 26.463s-9.971-11.945-21.241-26.5L651.517 431h-13.259H625v50.833l.415 51.25c.228.229 6.416.417 13.75.417H652.5zM765.226 524l3.389-8.5h19.768 19.768l3.674 8.87c2.021 4.878 4.011 8.816 4.424 8.75s7.222-.12 15.132-.12h14.382l-14.915-35.25-21.738-51.25-6.823-16-13.527-.277c-10.254-.21-13.649.032-14.033 1-.278.703-6.235 14.777-13.237 31.277l-29.201 69.222c-.364.921 3.053 1.29 13.863 1.5 7.89.153 14.647.053 15.015-.222s2.194-4.325 4.058-9zm13.683-35.75c6.221-15.717 9.34-23.25 9.625-23.25.462 0 10.466 25.819 10.466 27.012 0 .591-4.415.988-10.985.988h-10.985zM565 521.018v-11.982l-24.25-.268-24.25-.268-.262-38.75-.262-38.75h-13.988H488v51 51h38.5H565z" fill="#df0101"/><path d="M0 399h884v166H0z" fill="#e10000"/><path d="M0 0h884v399H0z" fill="#063baa"/><path d="M63 37.989h197.21l6.056 89.043-110.282-.004c-.432 14.114-.095 28.237-.208 42.355l90.042.07.037 88.837c-30.248.099-60.5-.078-90.747.095l.199 105.249c-30.771.008-61.537.017-92.308-.004zm468.058.483l104.367-.029 37.956 70.011 38.861-69.99 100.909.05c-1.37 2.933-3.184 5.636-4.732 8.474l-84.65 147.048c.49 1.506 1.586 2.814 2.312 4.25l96.002 164.764c-34.681 0-69.358-.017-104.039.008-1.424-1.469-2.096-3.433-3.063-5.186l-41.775-75.213c-.34-.404-.407-1.283-1.075-1.209l-44.942 81.831c-33.793.037-67.581-.136-101.374-.107 4.246-7.955 8.895-15.69 13.391-23.505l83.213-144.151-49.587-85.445-41.775-71.599zM410.98 43.089c5.488-.091 10.983-.359 16.471.025 28.259 1.725 55.938 11.445 79.096 27.614 14.757 10.286 27.462 23.315 38.006 37.805 9.539 12.939 16.724 27.515 21.66 42.764 2.91 8.92 5.288 18.038 6.563 27.342 1.474 10.244 1.743 20.637 1.162 30.96-.913 18.281-4.782 36.468-11.913 53.363-5.878 14.044-13.972 27.111-23.395 39.067a148.21 148.21 0 0 1-33.967 30.931c-15.201 10.352-32.302 17.865-50.156 22.349-19.513 4.922-39.99 5.298-59.848 2.409-12.685-1.836-25.138-5.293-36.922-10.319-24.299-10.508-45.976-27.086-62.177-47.954-10.572-13.661-18.841-29.054-24.582-45.31-6.264-17.836-9.037-36.79-8.958-55.653.353-18.17 3.827-36.278 10.124-53.338 6.255-16.903 15.645-32.577 27.089-46.51 10-12.084 21.963-22.547 35.225-30.972 13.706-8.751 28.658-15.695 44.465-19.734 10.469-2.752 21.236-4.415 32.058-4.84m4.114 65.155c-5.222.697-10.049 3.288-13.877 6.828-5.326 4.852-8.518 11.858-8.924 19.003-.208 3.173-.195 6.354-.203 9.531l-.004 119.648c-.1 3.325.012 6.7.951 9.923 2.744 10.381 12.42 18.599 23.22 19.437 7.887.569 16.118-2.071 21.801-7.624 5.11-4.868 8.09-11.833 8.152-18.863l.012-120.453c-.071-5.933.407-11.998-1.295-17.766-2.32-7.612-8.181-13.904-15.3-17.386-4.454-2.232-9.609-2.999-14.532-2.277z" fill="#fff"/><path d="M774.896 430.577h27.177l43.309 102.46h-30.229l-7.412-18.167h-39.24l-7.267 18.167h-29.648zm24.707 62.348l-11.336-28.921-11.481 28.921zm-174.314-61.621h26.305l41.856 53.773v-53.773h27.904v101.733h-24.707l-43.455-55.808v55.808h-27.904zm-47.293 0h28.34v101.733h-28.34zm-90.456 0h28.195v77.026h49.268v24.707H487.54zm-69.964 103.768q-23.399 0-39.095-15.405-15.551-15.115-15.551-37.205v-.291q0-22.091 15.696-37.351 15.841-15.551 39.24-15.551 23.399 0 39.095 15.405 15.551 15.115 15.551 37.205v.291q0 22.091-15.696 37.351-15.841 15.551-39.24 15.551zm.291-25.433q11.336 0 18.748-8.139 7.121-7.703 7.121-19.039v-.291q0-11.336-7.267-19.184-7.557-8.284-18.893-8.284-11.336 0-18.603 8.139-7.121 7.703-7.121 19.039v.291q0 11.336 7.267 19.184 7.412 8.284 18.748 8.284zm-156.292-78.334h48.105q22.381 0 33.136 11.045 9.011 8.72 9.011 23.689v.291q0 22.381-20.928 31.247l24.271 35.461h-32.555l-20.492-30.811h-12.353v30.811h-28.195zm46.797 48.832q15.115 0 15.115-12.063v-.291q0-12.063-15.26-12.063h-18.457v24.416zm-127.516-49.559h27.177l43.309 102.46h-30.229L213.7 514.87h-39.24l-7.267 18.167h-29.648zm24.707 62.348l-11.336-28.921-11.481 28.921zM89.091 535.071q-21.945 0-37.06-14.969-15.405-15.115-15.405-37.641v-.291q0-22.381 15.26-37.641 15.405-15.26 38.368-15.26 14.824 0 26.015 5.959 9.883 5.232 17.149 15.26l-21.219 16.423q-9.592-11.917-22.236-11.917-10.464 0-17.44 7.848-6.831 7.703-6.831 19.039v.291q0 11.627 6.831 19.329 6.831 7.848 17.44 7.848 7.412 0 13.225-3.343 4.651-2.907 9.737-9.011l21.219 15.115q-7.993 10.9-17.731 16.423-11.481 6.54-27.323 6.54z" fill="#fff"/></svg>