<?xml version="1.0" encoding="UTF-8"?>
<!-- Created with Inkscape by VulcanSphere (http://www.inkscape.org/ and http://vulcansphere.com) -->
<svg width="64.199mm" height="26.362mm" version="1.1" viewBox="0 0 64.199 26.362" xmlns="http://www.w3.org/2000/svg">
 <title>WHSV-TV</title>
 <desc>Television station in Harrisonburg, Virginia</desc>
 <g transform="translate(47.89 20.902)">
  <g fill="#090909">
   <polygon class="cls-1" transform="matrix(.05764 0 0 .05764 -47.89 -20.903)" points="197.18 196.95 228.99 74.87 278.97 74.87 220.66 280.91 178.05 280.91 139.49 153.48 100.92 280.91 58.31 280.91 0 74.87 51.06 74.87 82.19 196.94 117.64 74.87 162.41 74.87"/>
   <polygon class="cls-1" transform="matrix(.05764 0 0 .05764 -47.89 -20.903)" points="405.26 74.87 452.47 74.87 452.47 280.91 405.26 280.91 405.26 195.8 332.57 195.8 332.57 280.91 285.36 280.91 285.36 74.87 332.57 74.87 332.57 152.38 405.26 152.38"/>
   <path class="cls-1" d="m-13.095-9.921c0.22768 0.42308 0.34354 0.9453 0.34354 1.5528 0 0.65191-0.12047 1.2341-0.35737 1.7304-0.23632 0.49398-0.55796 0.91129-0.9551 1.2398-0.39253 0.32451-0.85711 0.57064-1.3799 0.73145-0.51069 0.15678-1.0548 0.2369-1.6168 0.2369-0.74471 0-1.4825-0.1441-2.1926-0.42769-0.72799-0.29051-1.3332-0.728-1.7989-1.3009l-0.23632-0.29051 1.9748-1.9039 0.27321 0.39138c0.2248 0.32106 0.51876 0.56948 0.89919 0.75912 0.37927 0.18906 0.75336 0.28474 1.1107 0.28474 0.18791 0 0.38388-0.024785 0.58274-0.073779 0.18214-0.044959 0.34123-0.11816 0.48591-0.22307 0.14064-0.10202 0.25131-0.22653 0.33892-0.37985 0.08012-0.14007 0.12047-0.32682 0.12047-0.55565 0-0.20693-0.04265-0.37408-0.12623-0.49686-0.09857-0.14525-0.2369-0.27494-0.4104-0.38504-0.19367-0.12277-0.42942-0.23229-0.7009-0.32567l-0.94876-0.32682c-0.33431-0.10836-0.67266-0.23921-1.007-0.39022-0.3614-0.1637-0.6911-0.38273-0.97931-0.65133-0.29512-0.27494-0.53721-0.61444-0.71992-1.0099-0.1856-0.40118-0.27955-0.89803-0.27955-1.4756 0-0.63001 0.132-1.1862 0.39195-1.652 0.25534-0.45651 0.59485-0.83982 1.0099-1.1395 0.40521-0.29224 0.87152-0.513 1.3845-0.65537 0.50205-0.13949 1.0197-0.21039 1.5384-0.21039 0.5885 0 1.1908 0.10779 1.792 0.3199 0.61156 0.21673 1.1516 0.54643 1.6053 0.98046l0.28244 0.27091-1.8312 2.0768-0.3003-0.40348c-0.16197-0.2173-0.4006-0.40521-0.7084-0.55738-0.30953-0.15332-0.62251-0.23114-0.93089-0.23114-0.18618 0-0.37581 0.02421-0.56314 0.07263-0.17696 0.04611-0.3395 0.11701-0.48245 0.21154-0.13084 0.08646-0.23632 0.19713-0.32106 0.33835-0.07782 0.12911-0.11586 0.28762-0.11586 0.48475 0 0.17753 0.03343 0.32509 0.09799 0.43864 0.07147 0.12623 0.16889 0.23114 0.29742 0.32221 0.14641 0.10375 0.33143 0.19771 0.54873 0.2784 0.2444 0.09107 0.51703 0.1833 0.81042 0.27437l0.0086 0.0023c0.34872 0.11701 0.71416 0.25074 1.0871 0.39829 0.40233 0.15966 0.77699 0.37351 1.1136 0.63577 0.35103 0.27321 0.64153 0.62136 0.8646 1.0341z" stroke-width=".05764"/>
   <polygon class="cls-1" transform="matrix(.05764 0 0 .05764 -47.89 -20.903)" points="661.1 74.87 707.78 209.64 754.94 74.87 805.98 74.87 725.97 280.91 687.66 280.91 608.79 74.87"/>
  </g>
  <path class="cls-1" d="m-2.63-3.7183h0.19425c1.8889 0 3.7777 0.00172 5.6666-0.00346 0.1637 0 0.21211 0.044959 0.20923 0.19655-0.00749 0.42711-0.026513 0.85596 0.094531 1.2762 0.12738 0.44383 0.34123 0.84328 0.66401 1.1891 0.31356 0.33604 0.6888 0.5862 1.1199 0.78102 0.55219 0.24958 1.1292 0.33028 1.7246 0.28417 0.37466-0.028819 0.76546-0.068015 1.1113-0.19367 1.1857-0.43057 1.9142-1.2312 2.0774-2.4468 0.072626-0.54124 0.008061-1.0629-0.22883-1.5644-0.13661-0.28993-0.33662-0.53951-0.5885-0.74125-0.24612-0.19713-0.52049-0.35967-0.83002-0.47092-0.55508-0.20059-1.1246-0.29858-1.7183-0.29224-0.48648 0.00519-0.97354 0.00115-1.4796 0.00115-0.00462-0.058216-0.012679-0.11125-0.012679-0.16427-6.535e-4 -1.75 0.00109-3.4993-0.00346-5.2493 0-0.14064 0.045535-0.17638 0.19021-0.17638 0.48648 0 0.9747 0.0098 1.4589-0.02709 0.62713-0.04784 1.0975-0.3689 1.4606-0.84328 0.35333-0.4617 0.52222-0.97815 0.49513-1.5442-0.026515-0.54873-0.28416-0.98565-0.75278-1.3194-0.50205-0.35795-1.0629-0.4202-1.6548-0.31472-0.72627 0.12969-1.2496 0.75912-1.3286 1.4508-0.02709 0.2346-0.025938 0.47265-0.026515 0.70955 0 0.10663-0.024785 0.15217-0.15044 0.15217-1.9799-0.0029-3.9599-0.0023-5.9398-0.0029-0.036314 0-0.072628-0.0081-0.12162-0.01383 0-0.28532-0.01037-0.56603 0.002309-0.84558 0.034584-0.77065 0.20059-1.5182 0.51415-2.2295 0.16716-0.37927 0.37236-0.74586 0.58966-1.1021 0.35449-0.58217 0.8231-1.0842 1.3263-1.5557 0.12796-0.11989 0.26226-0.23575 0.40521-0.3395 0.23171-0.16831 0.47034-0.32797 0.71013-0.48648 0.45017-0.29742 0.92916-0.54528 1.4468-0.72165 0.31356-0.10721 0.63001-0.20923 0.9476-0.30549 0.9574-0.28993 1.9425-0.30376 2.931-0.23805 0.38273 0.02536 0.76661 0.0732 1.1419 0.14698 0.40463 0.07954 0.8133 0.17062 1.1955 0.31414 0.50666 0.18964 1.0145 0.39829 1.4773 0.66632 0.46804 0.27091 0.91648 0.59081 1.313 0.94818 1.1741 1.06 1.9067 2.3511 2.1598 3.8746 0.19367 1.1678 0.0081 2.2837-0.48072 3.365-0.32855 0.72626-0.74759 1.3978-1.3096 1.9863-0.17062 0.17811-0.34584 0.35218-0.52568 0.5349 0.10606 0.087613 0.21384 0.17407 0.31875 0.26342 0.33547 0.2859 0.69283 0.55277 0.99948 0.86403 0.97988 0.99429 1.6554 2.1477 1.9586 3.4832 0.26169 1.1511 0.25074 2.2987-0.04611 3.4434-0.21212 0.8162-0.54874 1.5822-1.0179 2.2981-0.31183 0.47611-0.6669 0.91821-1.0727 1.3275-0.35737 0.36025-0.72972 0.70379-1.1632 0.98104-0.35564 0.2271-0.71647 0.44786-1.0819 0.66056-0.5228 0.30434-1.0957 0.50089-1.6744 0.69111-0.51242 0.16889-1.0421 0.23748-1.5678 0.34065-0.83002 0.16312-1.6658 0.16197-2.5016 0.10836-0.72396-0.046112-1.4324-0.19828-2.1298-0.38388-0.27494-0.073203-0.54931-0.16255-0.80696-0.2784-0.4934-0.22191-0.98449-0.45075-1.4566-0.70897-0.31587-0.17234-0.60868-0.38734-0.89111-0.60695-0.54758-0.42481-1.056-0.88996-1.4652-1.4399-0.25362-0.34065-0.5055-0.68419-0.72627-1.0444-0.50378-0.82252-0.8231-1.7113-0.96893-2.6503-0.066286-0.42711-0.079542-0.86172-0.11701-1.2929-0.020761-0.23805-0.041501-0.47611-0.064558-0.7401z" fill="#001089" stroke-width=".05764"/>
  <rect class="cls-1" x="-47.441" y="-4.0065" width="50.896" height=".51876" fill="#001089" stroke-width=".05764"/>
  <g fill="#090909" stroke-width=".05764">
   <path class="cls-1" d="m-43.187-0.34811 0.44095-1.4785h0.49398l-0.70667 2.173h-0.44095l-0.48187-1.4744-0.48591 1.4744h-0.44095l-0.6986-2.173h0.50666l0.43288 1.4785 0.47784-1.4865h0.42077z"/>
   <path class="cls-1" d="m-40.124 0.050183c-0.22076 0.21903-0.49571 0.32913-0.82483 0.32913-0.32913 0-0.59888-0.10894-0.81676-0.32682-0.21788-0.21788-0.32682-0.48187-0.32682-0.79255 0-0.31068 0.11009-0.57986 0.33086-0.80062 0.22076-0.22076 0.49398-0.33085 0.8208-0.33085 0.32682 0 0.59946 0.10894 0.81907 0.32682 0.21903 0.21788 0.32855 0.48302 0.32855 0.79659 0 0.31356-0.11009 0.57928-0.33085 0.79832zm-0.3516-1.2865c-0.12508-0.13488-0.28301-0.20232-0.4738-0.20232s-0.34988 0.066286-0.46977 0.19828c-0.11989 0.132-0.17984 0.29627-0.17984 0.49225s0.06168 0.3614 0.1856 0.49628c0.12393 0.13488 0.28128 0.20232 0.4715 0.20232 0.19021 0 0.35391-0.066286 0.4738-0.19828 0.11989-0.132 0.17984-0.29627 0.17984-0.49225 0-0.19598-0.06283-0.3614-0.18791-0.49628z"/>
   <path class="cls-1" d="m-38.878 0.33031h-0.49398v-2.1569h0.49398v0.48591c0.15275-0.36774 0.40694-0.54297 0.76373-0.52683v0.5228h-0.02882c-0.22307 0-0.40175 0.072626-0.5349 0.21846-0.13315 0.14583-0.20001 0.35737-0.20001 0.63519v0.8208z"/>
   <path class="cls-1" d="m-35.749 0.33031h-0.57179l-0.6496-0.93146-0.30204 0.31472v0.61675h-0.49398v-2.9817h0.49398v1.7811l0.89458-0.95567h0.60061l-0.85768 0.87844 0.88651 1.2785z"/>
   <path class="cls-1" d="m-35.463-2.1574v-0.46977h0.53086v0.46977zm0.02017 2.4877v-2.1569h0.49398v2.1569z"/>
   <path class="cls-1" d="m-33.891 0.33031h-0.49398v-2.1569h0.49398v0.33489c0.17177-0.25304 0.39599-0.37985 0.67381-0.37985 0.23978 0 0.42769 0.074932 0.56372 0.2248 0.13603 0.14986 0.20405 0.35103 0.20405 0.60464v1.3724h-0.49398v-1.2254c0-0.16889-0.04035-0.29858-0.12047-0.39022-0.08012-0.091071-0.19425-0.13661-0.34123-0.13661-0.14698 0-0.26169 0.047841-0.35103 0.14295-0.08992 0.095106-0.13488 0.22595-0.13488 0.39195z"/>
   <path class="cls-1" d="m-30.974 0.99202c-0.35968 0-0.68073-0.085884-0.96374-0.25708l0.18387-0.37178c0.24497 0.15275 0.50089 0.22883 0.76777 0.22883 0.22076 0 0.38965-0.056487 0.50666-0.16946 0.11701-0.11297 0.1758-0.27725 0.1758-0.49225v-0.16773c-0.20405 0.26399-0.45766 0.39599-0.7597 0.39599-0.26687 0-0.49686-0.091648-0.69053-0.27552-0.1931-0.18387-0.28993-0.42942-0.28993-0.73722 0-0.3078 0.09741-0.55392 0.29224-0.73952 0.19482-0.18502 0.42423-0.27783 0.68822-0.27783 0.29973 0 0.55162 0.12277 0.75566 0.36774v-0.32278h0.49398v1.7154c0 0.73491-0.38677 1.1027-1.1597 1.1027h-5.66e-4zm0.48994-2.2791c-0.12277-0.11182-0.27206-0.16773-0.44902-0.16773-0.17696 0-0.3199 0.055334-0.43691 0.16543-0.11701 0.11009-0.1758 0.25419-0.1758 0.43115 0 0.17696 0.05937 0.32163 0.17753 0.43288 0.11874 0.11182 0.26342 0.16773 0.43518 0.16773 0.17177 0 0.32336-0.055911 0.44729-0.16773 0.12393-0.11182 0.1856-0.25477 0.1856-0.42884 0-0.17407-0.0611-0.32106-0.18387-0.43288z"/>
   <path class="cls-1" d="m-27.641 0.33031h-0.49398v-2.9817h0.49398v1.1597c0.17177-0.25304 0.39599-0.37985 0.67381-0.37985 0.23978 0 0.42769 0.074932 0.56372 0.2248 0.13603 0.14986 0.20405 0.35103 0.20405 0.60464v1.3724h-0.49398v-1.2254c0-0.16889-0.04035-0.29858-0.12047-0.39022-0.08012-0.091071-0.19425-0.13661-0.34123-0.13661-0.14698 0-0.26169 0.047841-0.35103 0.14295-0.08992 0.095106-0.13488 0.22595-0.13488 0.39195z"/>
   <path class="cls-1" d="m-24.365 0.33031v-0.26572c-0.17407 0.20693-0.40694 0.31068-0.6986 0.31068-0.215 0-0.39714-0.059369-0.54528-0.17753-0.14814-0.11874-0.22249-0.28128-0.22249-0.48821v-0.008069c0-0.22595 0.08012-0.39829 0.24094-0.51646 0.16082-0.11816 0.37178-0.17753 0.63289-0.17753 0.20981 0 0.40867 0.029973 0.59658 0.089919v-0.053029c0-0.14986-0.04554-0.26399-0.13661-0.34296-0.09107-0.078967-0.22249-0.11874-0.39426-0.11874-0.19598 0-0.40175 0.044959-0.61675 0.13488l-0.13488-0.39599c0.26687-0.11989 0.54066-0.17984 0.8208-0.17984 0.31298 0 0.54931 0.078967 0.7084 0.2369 0.15909 0.15793 0.23921 0.38273 0.23921 0.67381v1.2785h-0.48994zm0.0121-0.91533c-0.14698-0.057064-0.31183-0.085884-0.49398-0.085884-0.15505 0-0.2761 0.030549-0.36371 0.091648-0.08704 0.061099-0.13084 0.14641-0.13084 0.25535v0.008069c0 0.097988 0.03977 0.1758 0.11874 0.23287 0.07897 0.057064 0.17811 0.085884 0.298 0.085884 0.166 0 0.30319-0.042077 0.4104-0.12681 0.10779-0.084155 0.16139-0.19309 0.16139-0.32682v-0.13488z"/>
   <path class="cls-1" d="m-22.874 0.33031h-0.49398v-2.1569h0.49398v0.48591c0.15275-0.36774 0.40694-0.54297 0.76373-0.52683v0.5228h-0.02882c-0.22307 0-0.40175 0.072626-0.5349 0.21846-0.13315 0.14583-0.20001 0.35737-0.20001 0.63519v0.8208z"/>
   <path class="cls-1" d="m-20.138 0.33031v-0.35967c-0.19079 0.26976-0.43576 0.40463-0.73491 0.40463-0.26976 0-0.50378-0.10145-0.70263-0.30434-0.19886-0.20289-0.298-0.47553-0.298-0.81907 0-0.34354 0.09857-0.61617 0.29627-0.81907 0.19713-0.20289 0.4323-0.30434 0.70436-0.30434 0.29396 0 0.53894 0.12681 0.73491 0.37985v-1.1597h0.49398v2.9817zm-0.17523-1.5788c-0.12277-0.12911-0.26976-0.19425-0.44095-0.19425-0.17119 0-0.32106 0.063404-0.44095 0.18964-0.11989 0.12623-0.17984 0.29454-0.17984 0.50435 0 0.20981 0.06052 0.37466 0.18157 0.50262 0.12104 0.12796 0.26745 0.19194 0.43922 0.19194 0.17177 0 0.31875-0.064557 0.44095-0.19425 0.12277-0.12911 0.18387-0.29627 0.18387-0.50032 0-0.20405-0.0611-0.3712-0.18387-0.50032z"/>
   <path class="cls-1" d="m-16.796-1.8099v0.40867h-0.56372v1.7315h-0.49398v-1.7315h-0.27379v-0.4127h0.27379v-0.15505c0-0.47092 0.22076-0.70667 0.66171-0.70667 0.13891 0 0.27206 0.019021 0.40002 0.057064v0.41674c-0.10606-0.03516-0.20289-0.053029-0.28993-0.053029-0.19079 0-0.28589 0.10894-0.28589 0.32682v0.11816z"/>
   <path class="cls-1" d="m-14.659 0.050183c-0.22076 0.21903-0.4957 0.32913-0.82483 0.32913-0.32913 0-0.59888-0.10894-0.81676-0.32682-0.21788-0.21788-0.32682-0.48187-0.32682-0.79255 0-0.31068 0.11009-0.57986 0.33085-0.80062 0.22076-0.22076 0.49398-0.33085 0.8208-0.33085 0.32682 0 0.59946 0.10894 0.81907 0.32682 0.21903 0.21788 0.32855 0.48302 0.32855 0.79659 0 0.31356-0.11009 0.57928-0.33085 0.79832zm-0.35161-1.2865c-0.12508-0.13488-0.28301-0.20232-0.4738-0.20232-0.19079 0-0.34988 0.066286-0.46977 0.19828-0.11989 0.132-0.17984 0.29627-0.17984 0.49225s0.06168 0.3614 0.1856 0.49628c0.12393 0.13488 0.28128 0.20232 0.4715 0.20232 0.19021 0 0.35391-0.066286 0.4738-0.19828 0.11989-0.132 0.17984-0.29627 0.17984-0.49225 0-0.19598-0.06283-0.3614-0.18791-0.49628z"/>
   <path class="cls-1" d="m-13.414 0.33031h-0.49398v-2.1569h0.49398v0.48591c0.15274-0.36774 0.40694-0.54297 0.76373-0.52683v0.5228h-0.02882c-0.22307 0-0.40175 0.072626-0.5349 0.21846-0.13315 0.14583-0.20001 0.35737-0.20001 0.63519v0.8208z"/>
   <path class="cls-1" d="m-10.334 0.39141c-0.08704 0.22076-0.18387 0.37639-0.28993 0.46746-0.10606 0.091072-0.2467 0.13661-0.42077 0.13661s-0.34988-0.043806-0.51069-0.13084l0.16773-0.36774c0.10087 0.054758 0.19771 0.081849 0.28993 0.081849 0.0709 0 0.12911-0.018446 0.1758-0.055334 0.04669-0.03689 0.08992-0.10145 0.13084-0.19425l-0.89861-2.1569h0.52683l0.61271 1.6012 0.55969-1.6012h0.51473l-0.85768 2.218v0.001155z"/>
   <path class="cls-1" d="m-7.3645 0.050183c-0.22076 0.21903-0.49571 0.32913-0.82483 0.32913-0.32912 0-0.59888-0.10894-0.81676-0.32682-0.21788-0.21788-0.32682-0.48187-0.32682-0.79255 0-0.31068 0.11009-0.57986 0.33085-0.80062 0.22076-0.22076 0.49398-0.33085 0.82079-0.33085 0.32682 0 0.59946 0.10894 0.81907 0.32682 0.21903 0.21788 0.32855 0.48302 0.32855 0.79659 0 0.31356-0.11009 0.57928-0.33085 0.79832zm-0.35103-1.2865c-0.12508-0.13488-0.28301-0.20232-0.4738-0.20232-0.19079 0-0.34988 0.066286-0.46977 0.19828-0.11989 0.132-0.17984 0.29627-0.17984 0.49225s0.061674 0.3614 0.1856 0.49628c0.12393 0.13488 0.28128 0.20232 0.4715 0.20232 0.19021 0 0.35391-0.066286 0.4738-0.19828 0.11989-0.132 0.17984-0.29627 0.17984-0.49225 0-0.19598-0.062826-0.3614-0.18791-0.49628z"/>
   <path class="cls-1" d="m-5.1955-1.8266h0.49398v2.1569h-0.49398v-0.33489c-0.17177 0.25304-0.39599 0.37985-0.67381 0.37985-0.23978 0-0.42769-0.074932-0.56372-0.2248-0.13603-0.14986-0.20405-0.35103-0.20405-0.60464v-1.3724h0.49398v1.2254c0 0.16889 0.040349 0.29858 0.12047 0.39022 0.08012 0.091071 0.19425 0.13661 0.34123 0.13661 0.14698 0 0.26169-0.047841 0.35103-0.14295 0.089919-0.095106 0.13488-0.22595 0.13488-0.39195z"/>
  </g>
 </g>
</svg>
