<?xml version="1.0" encoding="UTF-8"?>
<svg id="svg13042" xmlns="http://www.w3.org/2000/svg" xmlns:xlink="http://www.w3.org/1999/xlink" viewBox="0 0 900 720.4">
  <defs>
    <style>
      .cls-1 {
        fill: #fff;
      }

      .cls-2 {
        fill: #07111e;
      }

      .cls-3 {
        clip-path: url(#clippath);
      }

      .cls-4 {
        fill: none;
      }

      .cls-5 {
        fill: #f0f0f0;
        fill-rule: evenodd;
      }

      .cls-6 {
        fill: red;
      }
    </style>
    <clipPath id="clippath">
      <rect class="cls-4" y="282.43" width="332.2" height="332.2"/>
    </clipPath>
  </defs>
  <path id="path13273" class="cls-6" d="m330.99,0l-132.42,720.4h569.01L900,0H330.99Z"/>
  <path class="cls-6" d="m555.86,687.57c-43.51,0-85.96-8.44-126.16-25.1-40.2-16.65-76.19-40.7-106.96-71.47-30.77-30.77-54.81-66.76-71.47-106.96-16.65-40.2-25.1-82.65-25.1-126.17,0-88.05,34.3-170.83,96.58-233.11,62.27-62.27,145.07-96.58,233.11-96.58,0,0,0,0,0,0,43.51,0,85.96,8.44,126.17,25.1,40.2,16.65,76.19,40.7,106.96,71.47,30.77,30.77,54.81,66.75,71.47,106.96s25.1,82.65,25.1,126.17c0,43.51-8.44,85.96-25.1,126.17-16.65,40.2-40.7,76.19-71.47,106.96-30.77,30.77-66.75,54.81-106.96,71.47-40.2,16.65-82.65,25.1-126.17,25.1Zm-109.68-95.66c34.38,16.09,71.24,24.25,109.68,24.25,34.53,0,67.98-6.66,98.88-19.36-18.58,6.36-39.8,9.56-63.59,9.56-35.7,0-66.33-7.77-88.57-22.47-22.47-14.85-36.44-36.77-41.09-64.12l-15.31,72.15Zm280.96-56.21c-10.06,18.6-23.33,33.56-39.73,44.84,18.51-10.93,35.74-24.25,51.3-39.82,48.64-48.64,75.43-113.58,75.43-182.85,0-48.65-13.44-95.8-38.92-136.72h-129.77l-14.14,51.78c14.4-7.47,30.26-11.24,47.43-11.24,28.47,0,51.71,9.34,67.19,27,14.77,16.85,22.26,40.35,22.26,69.84,0,44.53-19.9,138.42-41.04,177.16h0Zm-134.25-110.11l-3.24,15.59c-.83,4.01-1.79,8.05-2.71,11.95-2.59,10.99-5.04,21.37-5.04,31.23,0,5.78,1.56,10.47,4.5,13.55,2.83,2.96,6.92,4.46,12.15,4.46,8.92,0,12.66-2.41,15.15-4.76,3.43-3.25,6.44-8.87,9.45-17.67,2.38-9.09,7.81-31.63,12.69-54.36,5.45-25.36,8.96-45.86,8.96-52.21s-1.5-11.44-4.33-14.5c-2.6-2.8-6.43-4.16-11.71-4.16-8.56,0-12.2,2.63-14.63,5.21-3.4,3.61-6.05,9.71-7.87,18.12l-2.21,10.22h-114.69l-7.92,37.32h111.42Zm-262.27-193.99c-21.02,37.36-33.03,80.44-33.03,126.27,0,51.92,14.88,101.09,43.24,143.46l45.61-214.29c-17.57,8.77-35.2,14.31-52.06,19.23l-20.77,6.06,17-80.74Zm216.27-114.43l-31.54,148.66,36.65-148.66h97.63c-29.76-11.56-61.57-17.57-93.78-17.57s-64.6,6.23-93.65,17.57h84.68Zm-114.74,14.04c-22.12,12.12-42.28,27.39-59.89,45.19,11.95-3.15,21.13-6.88,28.96-11.65,12.45-7.57,22.18-18.08,30.92-33.55Z"/>
  <path class="cls-1" d="m781.91,131.84c-59.95-59.95-141.27-93.63-226.05-93.63-176.52,0-319.69,143.16-319.69,319.69,0,84.78,33.68,166.1,93.63,226.05s141.27,93.63,226.05,93.63c84.78,0,166.1-33.68,226.05-93.63s93.63-141.27,93.63-226.05c0-84.78-33.68-166.1-93.63-226.05Zm-432.61,59.55l-22.46,106.69,4.74-1.38c23.97-7,47.15-14.75,69.32-29.52l-54.94,258.11c-36.53-45.82-58.37-103.91-58.37-167.4,0-148.75,119.52-268.27,268.27-268.27,50.23,0,97.01,13.78,137.09,37.57h-133.11l-61.91,251.1h98.07l.5-2.33c2.1-9.71,5.36-17.57,10.36-22.87,5-5.31,11.73-8.35,21.9-8.35,8.3,0,14.63,2.61,19.04,7.36,4.4,4.75,7,11.84,7,21.3,0,8.09-4.26,31.37-9.19,54.3-4.91,22.88-10.44,45.85-12.89,55.15-3.32,9.77-7.03,17.18-12.16,22.04-5.14,4.87-11.76,7.5-22.02,7.5-8.27,0-14.8-2.77-19.38-7.55s-7.28-11.72-7.28-20.46c0-14.86,4.83-30.15,7.96-45.21l.74-3.56h-101.63l-.5,2.33c-4.32,20-8.7,40.2-8.7,60.63,0,36.94,15.41,61.84,38.34,76.99s53.07,20.81,83.05,20.81c51.16,0,100.09-15.31,127.2-65.41h0c20.36-37.28,39.84-129.54,39.84-172.4,0-26.29-6.45-48.03-19.78-63.24s-33.45-23.59-59.67-23.59c-24.73,0-46.36,8.63-64.44,25.55l23.51-86.09h142.89c27.45,42.11,43.43,92.44,43.43,146.72,0,148.75-119.53,268.28-268.27,268.28-43.66,0-84.75-10.36-121.08-28.67l99.77-470.31h-88.97l-.82,1.63c-10.97,21.84-23.3,35.35-38.33,44.5-15.04,9.15-32.97,13.95-55.13,17.74l-1.98.34Z"/>
  <g id="surface1">
    <g class="cls-3">
      <g id="g9">
        <path id="path7" class="cls-2" d="m166.1,282.43C74.36,282.43,0,356.8,0,448.53s74.36,166.1,166.1,166.1,166.1-74.37,166.1-166.1-74.37-166.1-166.1-166.1"/>
      </g>
    </g>
    <path id="path11" class="cls-5" d="m263.62,403.01c-25.17,0-45.58,20.41-45.58,45.58s20.41,45.58,45.58,45.58c22.81-.03,42.08-16.91,45.12-39.51h-26.01c-2.58,8.1-10.15,13.97-19.11,13.97-11.07,0-20.04-8.98-20.04-20.04s8.98-20.04,20.04-20.05c8.95,0,16.53,5.87,19.11,13.97h26.02c-3.04-22.61-22.32-39.48-45.12-39.51m-195.27,65.63c-11.07,0-20.04-8.98-20.04-20.05s8.98-20.04,20.04-20.04,20.04,8.98,20.04,20.04-8.98,20.05-20.04,20.05m45.58,24.77v-44.81c0-25.17-20.41-45.58-45.58-45.58s-45.58,20.41-45.58,45.58,20.41,45.58,45.58,45.58c7.43-.01,15.13-3.17,20.55-8.41v7.64h25.03Zm51.95-64.85c11.07,0,20.04,8.98,20.04,20.05s-8.98,20.04-20.04,20.04-20.04-8.98-20.04-20.04,8.97-20.05,20.04-20.05m-45.58-47.97v68.01c0,25.17,20.41,45.58,45.58,45.58s45.58-20.41,45.58-45.58-20.41-45.58-45.58-45.58c-6.95.01-14.15,2.22-20.04,6.22v-28.65h-25.54Z"/>
  </g>
</svg>