<?xml version="1.0" encoding="utf-8"?>
<!-- Generator: Adobe Illustrator 22.1.0, SVG Export Plug-In . SVG Version: 6.00 Build 0)  -->
<svg version="1.1" id="Logos" xmlns="http://www.w3.org/2000/svg" xmlns:xlink="http://www.w3.org/1999/xlink" x="0px" y="0px"
	 viewBox="0 0 324.6 54" style="enable-background:new 0 0 324.6 54;" xml:space="preserve">
<style type="text/css">
	.st0{display:none;}
	.st1{opacity:0.5;}
	.st2{fill:#555759;}
	.st3{fill:#FFFFFF;}
	.st4{fill:#43C5E4;}
</style>
<rect class="st0" width="324.6" height="54"/>
<g class="st1">
	<g>
		<path class="st2" d="M113.4,49.4c-1.1,0-2.1-0.7-2.4-1.7l-5.3-16.9l-5.3,16.9c-0.3,1-1.3,1.7-2.4,1.7h-7.3c-1.1,0-2-0.7-2.4-1.7
			L74.6,8.9c-0.3-0.8-0.2-1.6,0.3-2.3c0.5-0.7,1.2-1.1,2-1.1h9.4c1.1,0,2.1,0.7,2.4,1.8l5.7,18l5.4-18c0.3-1.1,1.3-1.8,2.4-1.8h7
			c1.1,0,2.1,0.7,2.4,1.8l5.4,18l5.7-18c0.3-1,1.3-1.8,2.4-1.8h9.4c0.8,0,1.6,0.4,2,1.1c0.5,0.7,0.6,1.5,0.3,2.3l-13.7,38.8
			c-0.4,1-1.3,1.7-2.4,1.7H113.4z"/>
		<path class="st3" d="M134.4,8L134.4,8 M134.4,8l-13.7,38.8h-7.3l-7.7-24.4L98,46.9h-7.3L77,8h9.4l8.1,25.8L102.2,8h7l7.7,25.8
			L125,8H134.4 M134.4,3L134.4,3H125c-2.2,0-4.1,1.4-4.8,3.5L117,16.8l-3-10.2c-0.6-2.1-2.6-3.6-4.8-3.6h-7c-2.2,0-4.2,1.5-4.8,3.6
			l-3,10.2L91.2,6.5C90.5,4.5,88.6,3,86.4,3H77c-1.6,0-3.1,0.8-4.1,2.1c-0.9,1.3-1.2,3-0.6,4.6L86,48.5c0.7,2,2.6,3.3,4.7,3.3H98
			c2.2,0,4.1-1.4,4.8-3.5l2.9-9.3l2.9,9.3c0.7,2.1,2.6,3.5,4.8,3.5h7.3c2.1,0,4-1.3,4.7-3.3l13.6-38.6c0.2-0.6,0.3-1.2,0.3-1.8
			C139.4,5.3,137.2,3,134.4,3L134.4,3z M134.4,13L134.4,13L134.4,13L134.4,13z"/>
	</g>
	<g>
		<path class="st2" d="M136.3,49.4c-1.4,0-2.5-1.1-2.5-2.5V20.1c0-1.4,1.1-2.5,2.5-2.5h8.4c1.4,0,2.5,1.1,2.5,2.5v26.7
			c0,1.4-1.1,2.5-2.5,2.5H136.3z"/>
		<path class="st3" d="M144.7,20.1v26.7h-8.4V20.1H144.7 M144.7,15.1h-8.4c-2.8,0-5,2.2-5,5v26.7c0,2.8,2.2,5,5,5h8.4
			c2.8,0,5-2.2,5-5V20.1C149.7,17.4,147.5,15.1,144.7,15.1L144.7,15.1z"/>
	</g>
	<g>
		<path class="st2" d="M140.5,20.3c-4.3,0-7.7-3.4-7.7-7.7c0-4.3,3.4-7.7,7.7-7.7c4.4,0,7.8,3.4,7.8,7.7
			C148.3,16.9,144.9,20.3,140.5,20.3z"/>
		<path class="st3" d="M140.5,7.4c3,0,5.3,2.3,5.3,5.2c0,2.8-2.2,5.2-5.3,5.2s-5.2-2.3-5.2-5.2C135.3,9.8,137.5,7.4,140.5,7.4
			 M140.5,2.4c-5.7,0-10.2,4.5-10.2,10.2c0,5.7,4.5,10.2,10.2,10.2c5.8,0,10.3-4.5,10.3-10.2C150.8,6.9,146.3,2.4,140.5,2.4
			L140.5,2.4z"/>
	</g>
	<g>
		<path class="st2" d="M148.5,49.4c-1.4,0-2.5-1.1-2.5-2.5V8c0-1.4,1.1-2.5,2.5-2.5h8.5c1.4,0,2.5,1.1,2.5,2.5v38.8
			c0,1.4-1.1,2.5-2.5,2.5H148.5z"/>
		<path class="st3" d="M156.9,8v38.8h-8.5V8H156.9 M156.9,3h-8.5c-2.8,0-5,2.2-5,5v38.8c0,2.8,2.2,5,5,5h8.5c2.8,0,5-2.2,5-5V8
			C161.9,5.3,159.7,3,156.9,3L156.9,3z"/>
	</g>
	<g>
		<path class="st2" d="M171.3,50.1c-9,0-15.1-6.7-15.1-16.6c0-9.6,6.4-16.6,15.2-16.6c2.2,0,4.2,0.5,5.9,1.3V8
			c0-1.4,1.1-2.5,2.5-2.5h8.4c1.4,0,2.5,1.1,2.5,2.5v38.8c0,1.4-1.1,2.5-2.5,2.5h-8.4c-0.8,0-1.5-0.4-2-1
			C175.9,49.5,173.6,50.1,171.3,50.1z M173.7,29c-3.6,0-3.9,3.4-3.9,4.5c0,2.2,1,4.5,3.9,4.5c3.5,0,3.9-3.2,3.9-4.5
			C177.6,32.1,177.2,29,173.7,29z"/>
		<path class="st3" d="M188.2,8v38.8h-8.4v-3.8c-1.4,2.7-4.8,4.5-8.5,4.5c-8,0-12.6-6-12.6-14.1c0-8,4.9-14.1,12.7-14.1
			c3.9,0,6.9,1.8,8.4,4.5V8H188.2 M173.7,40.5c4.2,0,6.4-3.2,6.4-7c0-3.8-2.2-7-6.4-7c-3.9,0-6.4,2.9-6.4,7
			C167.3,37.5,169.8,40.5,173.7,40.5 M188.2,3h-8.4c-2.8,0-5,2.2-5,5v6.7c-1.1-0.2-2.2-0.3-3.4-0.3c-10.3,0-17.7,8-17.7,19.1
			c0,11.2,7.2,19.1,17.6,19.1c2.2,0,4.3-0.4,6.2-1.3c0.7,0.3,1.4,0.5,2.3,0.5h8.4c2.8,0,5-2.2,5-5V8C193.2,5.3,190.9,3,188.2,3
			L188.2,3z M173.7,35.5c-0.4,0-1.4,0-1.4-2c0-2,0.9-2,1.4-2c0.5,0,1.4,0,1.4,2C175.1,35.5,174.2,35.5,173.7,35.5L173.7,35.5z"/>
	</g>
	<g>
		<path class="st2" d="M191.9,49.4c-1.4,0-2.5-1.1-2.5-2.5V8c0-1.4,1.1-2.5,2.5-2.5h16c9.1,0,15,4.9,15,12.6c0,3.7-1.3,6.7-3.7,8.7
			c2.7,2.1,4.2,5.3,4.2,9.3c0,8.1-5.9,13.3-14.9,13.3H191.9z M206.5,37.5c2.6,0,2.9-1.4,2.9-2.6c0-2-1.8-2.3-2.9-2.3h-3.1v4.9H206.5
			z M205.9,21.5c3,0,3-1.6,3-2.2c0-0.7,0-2.2-3-2.2h-2.5v4.4H205.9z"/>
		<path class="st3" d="M207.8,8c7.7,0,12.5,3.8,12.5,10.1c0,5-2.9,8-7.4,8.9c4.5,0.4,8,3.7,8,9.1c0,6.7-4.7,10.8-12.4,10.8h-16.6V8
			H207.8 M200.9,24h5c3.4,0,5.5-1.8,5.5-4.7s-2-4.7-5.5-4.7h-5V24 M200.9,40h5.6c3.3,0,5.4-1.9,5.4-5.1c0-2.9-2.2-4.8-5.4-4.8h-5.6
			V40 M207.8,3h-16c-2.8,0-5,2.2-5,5v38.8c0,2.8,2.2,5,5,5h16.6c10.4,0,17.4-6.3,17.4-15.8c0-3.7-1.2-6.9-3.3-9.3
			c1.8-2.3,2.7-5.3,2.7-8.6C225.3,9.1,218.3,3,207.8,3L207.8,3z"/>
	</g>
	<g>
		<path class="st2" d="M222.8,49.4c-1.4,0-2.5-1.1-2.5-2.5V20.1c0-1.4,1.1-2.5,2.5-2.5h8.5c0.9,0,1.6,0.4,2.1,1.1
			c1.5-1,3.4-1.5,5.3-1.5c1.2,0,1.9,0.1,2.8,0.3c1.1,0.3,1.9,1.3,1.9,2.4v7.9c0,0.7-0.3,1.4-0.8,1.9c-0.5,0.4-1.1,0.6-1.7,0.6
			c-0.1,0-0.2,0-0.3,0c-1-0.1-1.4-0.2-2.3-0.2c-1.5,0-4.5,0-4.5,6.4v10.3c0,1.4-1.1,2.5-2.5,2.5H222.8z"/>
		<path class="st3" d="M238.7,19.7c1,0,1.6,0.1,2.2,0.2v7.9c-1-0.1-1.5-0.2-2.6-0.2c-4.6,0-7,3-7,8.9v10.3h-8.5V20.1h8.5v5.6
			C232.2,21.7,235.4,19.7,238.7,19.7 M238.7,14.7c-1.8,0-3.5,0.4-5,1c-0.7-0.4-1.5-0.6-2.4-0.6h-8.5c-2.8,0-5,2.2-5,5v26.7
			c0,2.8,2.2,5,5,5h8.5c2.8,0,5-2.2,5-5V36.5c0-2,0.4-3.1,0.7-3.6c0.2-0.2,0.6-0.4,1.3-0.4c0.8,0,1.1,0,2,0.1c0.2,0,0.4,0,0.6,0
			c1.2,0,2.4-0.4,3.3-1.3c1.1-0.9,1.7-2.3,1.7-3.7v-7.9c0-2.3-1.6-4.3-3.8-4.9C240.9,14.8,239.8,14.7,238.7,14.7L238.7,14.7z"/>
	</g>
	<g>
		<path class="st2" d="M253.6,50.1c-9,0-15.1-6.7-15.1-16.6c0-9.6,6.4-16.6,15.2-16.6c2.4,0,4.6,0.6,6.4,1.6
			c0.5-0.6,1.2-0.9,1.9-0.9h8.4c1.4,0,2.5,1.1,2.5,2.5v26.7c0,1.4-1.1,2.5-2.5,2.5h-8.4c-0.8,0-1.5-0.4-2-1
			C258.2,49.5,256,50.1,253.6,50.1z M256,29c-3.6,0-3.9,3.4-3.9,4.5c0,2.2,1,4.5,3.9,4.5c3.5,0,3.9-3.2,3.9-4.5
			C259.9,32.1,259.5,29,256,29z"/>
		<path class="st3" d="M253.7,19.4c3.9,0,6.9,1.8,8.4,4.5v-3.8h8.4v26.7h-8.4v-3.8c-1.4,2.7-4.8,4.5-8.5,4.5c-8,0-12.6-6-12.6-14.1
			C241,25.5,245.9,19.4,253.7,19.4 M256,40.5c4.2,0,6.4-3.2,6.4-7c0-3.8-2.2-7-6.4-7c-3.9,0-6.4,2.9-6.4,7
			C249.7,37.5,252.1,40.5,256,40.5 M253.7,14.4c-10.3,0-17.7,8-17.7,19.1c0,11.2,7.2,19.1,17.6,19.1c2.2,0,4.3-0.4,6.2-1.3
			c0.7,0.3,1.4,0.5,2.3,0.5h8.4c2.8,0,5-2.2,5-5V20.1c0-2.8-2.2-5-5-5h-8.4c-0.8,0-1.5,0.2-2.2,0.5C258,14.8,255.9,14.4,253.7,14.4
			L253.7,14.4z M256,35.5c-0.4,0-1.4,0-1.4-2c0-2,0.9-2,1.4-2c0.5,0,1.4,0,1.4,2C257.4,35.5,256.6,35.5,256,35.5L256,35.5z"/>
	</g>
	<g>
		<path class="st2" d="M278.4,20.3c-4.3,0-7.7-3.4-7.7-7.7c0-4.3,3.4-7.7,7.7-7.7c4.4,0,7.8,3.4,7.8,7.7
			C286.2,16.9,282.8,20.3,278.4,20.3z"/>
		<path class="st3" d="M278.4,7.4c3.1,0,5.3,2.3,5.3,5.2c0,2.8-2.2,5.2-5.3,5.2c-3,0-5.2-2.3-5.2-5.2C273.2,9.8,275.4,7.4,278.4,7.4
			 M278.4,2.4c-5.7,0-10.2,4.5-10.2,10.2c0,5.7,4.5,10.2,10.2,10.2c5.8,0,10.3-4.5,10.3-10.2C288.7,6.9,284.2,2.4,278.4,2.4
			L278.4,2.4z"/>
	</g>
	<g>
		<path class="st2" d="M274.2,49.4c-1.4,0-2.5-1.1-2.5-2.5V20.1c0-1.4,1.1-2.5,2.5-2.5h8.4c1.4,0,2.5,1.1,2.5,2.5v26.7
			c0,1.4-1.1,2.5-2.5,2.5H274.2z"/>
		<path class="st3" d="M282.6,20.1v26.7h-8.4V20.1H282.6 M282.6,15.1h-8.4c-2.8,0-5,2.2-5,5v26.7c0,2.8,2.2,5,5,5h8.4
			c2.8,0,5-2.2,5-5V20.1C287.6,17.4,285.4,15.1,282.6,15.1L282.6,15.1z"/>
	</g>
	<g>
		<path class="st2" d="M304.7,49.4c-1.4,0-2.5-1.1-2.5-2.5V33.1c0-4-1-4-2.2-4c-1,0-2.7,0-2.7,3.8v14c0,1.4-1.1,2.5-2.5,2.5h-8.5
			c-1.4,0-2.5-1.1-2.5-2.5V20.1c0-1.4,1.1-2.5,2.5-2.5h8.5c0.8,0,1.5,0.4,1.9,0.9c1.9-1.1,4.1-1.6,6.7-1.6c7.9,0,12.3,4.8,12.3,13.4
			v16.5c0,1.4-1.1,2.5-2.5,2.5H304.7z"/>
		<path class="st3" d="M303.5,19.4c6.5,0,9.8,3.7,9.8,10.9v16.5h-8.5V33.1c0-4.5-1.3-6.5-4.7-6.5c-3.4,0-5.2,2.2-5.2,6.3v14h-8.5
			V20.1h8.5V24C296.4,21,299.5,19.4,303.5,19.4 M303.5,14.4c-2.4,0-4.5,0.4-6.5,1.2c-0.7-0.3-1.4-0.5-2.2-0.5h-8.5c-2.8,0-5,2.2-5,5
			v26.7c0,2.8,2.2,5,5,5h8.5c2.5,0,4.5-1.8,4.9-4.2c0.4,2.4,2.4,4.2,4.9,4.2h8.5c2.8,0,5-2.2,5-5V30.3
			C318.3,20.4,312.7,14.4,303.5,14.4L303.5,14.4z"/>
	</g>
	<g>
		<path class="st2" d="M318.6,25.9c-0.1,0-0.2,0-0.3,0c-0.1,0-0.2,0-0.3,0h-0.7c-0.1,0-0.2,0-0.4,0c-0.1,0-0.2,0-0.4,0h-0.8
			c-1.4,0-2.5-1.1-2.5-2.5v-3.2c0-1.4,1.1-2.5,2.5-2.5h1.2c0.2,0,0.4,0,0.6,0.1c0.2,0,0.4-0.1,0.6-0.1h1.2c1.4,0,2.5,1.1,2.5,2.5
			v3.2c0,1.4-1.1,2.5-2.5,2.5H318.6z"/>
		<path class="st3" d="M319.4,20.1v3.2h-0.8V21l-0.7,2.4h-0.7l-0.7-2.4v2.4h-0.8v-3.2h1.2l0.6,2.1l0.6-2.1H319.4 M319.4,15.1h-1.2
			c-0.2,0-0.4,0-0.6,0c-0.2,0-0.4,0-0.6,0h-1.2c-2.8,0-5,2.2-5,5v3.2c0,2.8,2.2,5,5,5h0.8c0.1,0,0.2,0,0.4,0c0.1,0,0.2,0,0.4,0h0.7
			c0.1,0,0.2,0,0.3,0c0.1,0,0.2,0,0.3,0h0.8c2.8,0,5-2.2,5-5v-3.2C324.4,17.4,322.2,15.1,319.4,15.1L319.4,15.1z"/>
	</g>
	<g>
		<path class="st2" d="M313.9,25.9c-1.4,0-2.5-1.1-2.5-2.5v-0.8c-0.4-0.4-0.7-1-0.7-1.7v-0.7c0-1.4,1.1-2.5,2.5-2.5h2.2
			c1.4,0,2.5,1.1,2.5,2.5v0.7c0,0.7-0.3,1.3-0.7,1.7v0.8c0,1.4-1.1,2.5-2.5,2.5H313.9z"/>
		<path class="st3" d="M315.4,20.1v0.7h-0.7v2.5h-0.8v-2.5h-0.7v-0.7H315.4 M315.4,15.1h-2.2c-2.8,0-5,2.2-5,5v0.7
			c0,0.9,0.2,1.8,0.7,2.5v0c0,2.8,2.2,5,5,5h0.8c2.8,0,5-2.2,5-5c0.4-0.7,0.7-1.6,0.7-2.5v-0.7C320.4,17.4,318.2,15.1,315.4,15.1
			L315.4,15.1z"/>
	</g>
	<g>
		<path class="st2" d="M59.1,49.4c-1,0-1.9-0.6-2.3-1.5l-9-20.9c-0.3-0.6-0.3-1.3,0-2l5.8-13.6c1.7-3.9,5.6-6.5,9.9-6.5
			c3.6,0,7,1.8,9,4.8s2.3,6.8,0.9,10.1l-12,28C61,48.8,60.1,49.4,59.1,49.4z"/>
		<path class="st3" d="M63.5,7.4c5.9,0,9.9,6.1,7.6,11.5l-12,27.9l-9-20.9L56,12.4C57.3,9.4,60.3,7.4,63.5,7.4L63.5,7.4 M63.5,2.4
			c-5.3,0-10.1,3.1-12.2,8L45.5,24c-0.5,1.3-0.5,2.7,0,3.9l9,20.9c0.8,1.8,2.6,3,4.6,3s3.8-1.2,4.6-3l12-27.9
			c1.8-4.1,1.3-8.8-1.1-12.5C72.1,4.6,68,2.4,63.5,2.4L63.5,2.4z"/>
	</g>
	<g>
		<path class="st2" d="M30.3,49.4c-8,0-15.3-4.8-18.4-12.1L4.4,19.9C3,16.6,3.3,12.8,5.3,9.8c2-3,5.3-4.8,9-4.8
			c4.3,0,8.2,2.6,9.9,6.5L39,45.9c0.3,0.8,0.3,1.7-0.2,2.4c-0.5,0.7-1.2,1.1-2.1,1.1H30.3z"/>
		<path class="st3" d="M14.3,7.4c3.3,0,6.3,2,7.6,5l14.8,34.5h-6.4c-7,0-13.4-4.2-16.1-10.6L6.7,18.9C4.4,13.5,8.4,7.4,14.3,7.4
			 M14.3,2.4c-4.5,0-8.6,2.2-11.1,6c-2.5,3.7-2.9,8.4-1.1,12.5l7.4,17.3c3.6,8.3,11.7,13.6,20.7,13.6h6.4c1.7,0,3.3-0.8,4.2-2.2
			c0.9-1.4,1.1-3.2,0.4-4.7L26.5,10.4C24.4,5.6,19.6,2.4,14.3,2.4L14.3,2.4z"/>
	</g>
	<g>
		<path class="st2" d="M38.9,49.4c-1,0-1.9-0.6-2.3-1.5l-12-28c-1.4-3.3-1.1-7.1,0.9-10.1s5.3-4.8,9-4.8c4.3,0,8.2,2.6,9.9,6.5
			l14.8,34.5c0.3,0.8,0.3,1.7-0.2,2.4c-0.5,0.7-1.2,1.1-2.1,1.1H38.9z"/>
		<path class="st3" d="M34.5,7.4c3.3,0,6.3,2,7.6,5l14.8,34.5H38.9l-12-28C24.6,13.5,28.6,7.4,34.5,7.4 M34.5,2.4
			c-4.5,0-8.6,2.2-11.1,6c-2.5,3.7-2.9,8.4-1.1,12.5l12,28c0.8,1.8,2.6,3,4.6,3h17.9c1.7,0,3.3-0.8,4.2-2.2c0.9-1.4,1.1-3.2,0.4-4.7
			L46.6,10.4C44.5,5.6,39.8,2.4,34.5,2.4L34.5,2.4z"/>
	</g>
</g>
<g>
	<g>
		<g>
			<g>
				<path class="st2" d="M77,8h9.4l8.1,25.8L102.2,8h7l7.7,25.8L125,8h9.4l-13.7,38.8h-7.3l-7.7-24.4L98,46.9h-7.3L77,8z"/>
				<path class="st2" d="M135.3,12.6c0-2.9,2.2-5.2,5.2-5.2c3.1,0,5.3,2.3,5.3,5.2c0,2.8-2.2,5.2-5.3,5.2
					C137.5,17.8,135.3,15.5,135.3,12.6z M136.3,20.1h8.4v26.7h-8.4V20.1z"/>
				<path class="st2" d="M148.5,8h8.5v38.8h-8.5V8z"/>
				<path class="st2" d="M188.2,8v38.8h-8.4v-3.8c-1.4,2.7-4.8,4.5-8.5,4.5c-8,0-12.6-6-12.6-14.1c0-8,4.9-14.1,12.7-14.1
					c3.9,0,6.9,1.8,8.4,4.5V8H188.2z M180.1,33.5c0-3.8-2.2-7-6.4-7c-3.9,0-6.4,2.9-6.4,7c0,4,2.4,7,6.4,7
					C177.9,40.5,180.1,37.4,180.1,33.5z"/>
				<path class="st2" d="M220.9,36.1c0,6.7-4.7,10.8-12.4,10.8h-16.6V8h16c7.7,0,12.5,3.8,12.5,10.1c0,5-2.9,8-7.4,8.9
					C217.4,27.5,220.9,30.7,220.9,36.1z M200.9,14.5V24h5c3.4,0,5.5-1.8,5.5-4.7s-2-4.7-5.5-4.7H200.9z M211.8,34.9
					c0-2.9-2.2-4.8-5.4-4.8h-5.6V40h5.6C209.8,40,211.8,38.2,211.8,34.9z"/>
				<path class="st2" d="M222.8,20.1h8.5v5.6c0.9-4,4.1-6,7.4-6c1,0,1.6,0.1,2.2,0.2v7.9c-1-0.1-1.5-0.2-2.6-0.2c-4.6,0-7,3-7,8.9
					v10.3h-8.5V20.1z"/>
				<path class="st2" d="M241,33.5c0-8,4.9-14.1,12.7-14.1c3.9,0,6.9,1.8,8.4,4.5v-3.8h8.4v26.7h-8.4v-3.8c-1.4,2.7-4.8,4.5-8.5,4.5
					C245.6,47.6,241,41.5,241,33.5z M262.4,33.5c0-3.8-2.2-7-6.4-7c-3.9,0-6.4,2.9-6.4,7c0,4,2.4,7,6.4,7
					C260.2,40.5,262.4,37.4,262.4,33.5z"/>
				<path class="st2" d="M273.2,12.6c0-2.9,2.2-5.2,5.2-5.2s5.3,2.3,5.3,5.2c0,2.8-2.2,5.2-5.3,5.2S273.2,15.5,273.2,12.6z
					 M274.2,20.1h8.4v26.7h-8.4V20.1z"/>
				<path class="st2" d="M286.4,20.1h8.5V24c1.6-3,4.6-4.6,8.7-4.6c6.5,0,9.8,3.7,9.8,10.9v16.5h-8.5V33.1c0-4.5-1.3-6.5-4.7-6.5
					c-3.4,0-5.2,2.2-5.2,6.3v14h-8.5V20.1z"/>
				<path class="st2" d="M313.9,20.8h-0.7v-0.7h2.2v0.7h-0.7v2.5h-0.8V20.8z M315.8,20.1h1.2l0.6,2.1l0.6-2.1h1.2v3.2h-0.8V21
					l-0.7,2.4h-0.7l-0.7-2.4v2.4h-0.8V20.1z"/>
			</g>
		</g>
	</g>
	<path class="st4" d="M71.1,18.9l-12,27.9l-9-20.9L56,12.4c1.3-3,4.3-5,7.6-5h0C69.5,7.4,73.4,13.5,71.1,18.9z M21.9,12.4
		c-1.3-3-4.3-5-7.6-5h0c-5.9,0-9.9,6.1-7.6,11.5l7.4,17.3c2.8,6.4,9.1,10.6,16.1,10.6h6.4L21.9,12.4z M42,12.4c-1.3-3-4.3-5-7.6-5h0
		c-5.9,0-9.9,6.1-7.6,11.5l12,28h17.9L42,12.4z"/>
	<circle class="st3" cx="63.6" cy="15.7" r="6.2"/>
	<circle class="st3" cx="34.5" cy="15.7" r="6.2"/>
	<circle class="st3" cx="14.3" cy="15.7" r="6.2"/>
	<path class="st2" d="M65.5,14.2c-0.4,0-0.8,0.1-1.2,0.2l1.2,3.2l-3.2-1.2c-0.1,0.4-0.2,0.8-0.2,1.2c0,1.9,1.5,3.4,3.4,3.4
		c1.9,0,3.4-1.5,3.4-3.4C69,15.8,67.4,14.2,65.5,14.2z"/>
	<path class="st2" d="M36.5,10.2c-0.4,0-0.8,0.1-1.2,0.2l1.2,3.2l-3.2-1.2c-0.1,0.4-0.2,0.8-0.2,1.2c0,1.9,1.5,3.4,3.4,3.4
		c1.9,0,3.4-1.5,3.4-3.4C39.9,11.8,38.4,10.2,36.5,10.2z"/>
	<path class="st2" d="M12.3,14.2c-0.4,0-0.8,0.1-1.2,0.2l1.2,3.2l-3.2-1.2c-0.1,0.4-0.2,0.8-0.2,1.2c0,1.9,1.5,3.4,3.4,3.4
		c1.9,0,3.4-1.5,3.4-3.4C15.7,15.8,14.2,14.2,12.3,14.2z"/>
</g>
</svg>
