<?xml version="1.0" encoding="UTF-8" standalone="no"?>
<svg
   viewBox="0 0 3634.9514 1074.0096"
   version="1.1"
   id="svg4"
   sodipodi:docname="WILL-TV 2008.svg"
   xml:space="preserve"
   width="3634.9514"
   height="1074.0096"
   inkscape:version="1.2 (dc2aedaf03, 2022-05-15)"
   xmlns:inkscape="http://www.inkscape.org/namespaces/inkscape"
   xmlns:sodipodi="http://sodipodi.sourceforge.net/DTD/sodipodi-0.dtd"
   xmlns="http://www.w3.org/2000/svg"
   xmlns:svg="http://www.w3.org/2000/svg"><defs
     id="defs8"><clipPath
       clipPathUnits="userSpaceOnUse"
       id="clipPath1576"><path
         d="m -110.7407,-643.8834 h 1224 v 792 h -1224 z"
         id="path1578"
         style="stroke-width:0.999998" /></clipPath><clipPath
       clipPathUnits="userSpaceOnUse"
       id="clipPath1572"><path
         d="m -112.4374,-640.9742 h 1224 v 792 h -1224 z"
         id="path1574"
         style="stroke-width:0.999998" /></clipPath><clipPath
       clipPathUnits="userSpaceOnUse"
       id="clipPath1568"><path
         d="m -128.5657,-637.1937 h 1224 v 792 h -1224 z"
         id="path1570"
         style="stroke-width:0.999998" /></clipPath><clipPath
       clipPathUnits="userSpaceOnUse"
       id="clipPath1564"><path
         d="m -131.4904,-643.8834 h 1224 v 792 h -1224 z"
         id="path1566"
         style="stroke-width:0.999998" /></clipPath><clipPath
       clipPathUnits="userSpaceOnUse"
       id="clipPath1560"><path
         d="m -138.2136,-639.8104 h 1224 v 792 h -1224 z"
         id="path1562"
         style="stroke-width:0.999998" /></clipPath><clipPath
       clipPathUnits="userSpaceOnUse"
       id="clipPath1556"><path
         d="m -143.8859,-633.4113 h 1224 v 792 h -1224 z"
         id="path1558"
         style="stroke-width:0.999998" /></clipPath><clipPath
       clipPathUnits="userSpaceOnUse"
       id="clipPath1552"><path
         d="m -158.4631,-633.4113 h 1224 v 792 h -1224 z"
         id="path1554"
         style="stroke-width:0.999998" /></clipPath><clipPath
       clipPathUnits="userSpaceOnUse"
       id="clipPath1548"><path
         d="m -159.982,-633.4113 h 1224 v 792 h -1224 z"
         id="path1550"
         style="stroke-width:0.999998" /></clipPath><clipPath
       clipPathUnits="userSpaceOnUse"
       id="clipPath1479"><path
         d="m -173.5087,-643.8834 h 1224 v 792 h -1224 z"
         id="path1481"
         style="stroke-width:0.999998" /></clipPath><clipPath
       clipPathUnits="userSpaceOnUse"
       id="clipPath1475"><path
         d="m -181.3306,-639.8588 h 1224 v 792 h -1224 z"
         id="path1477"
         style="stroke-width:0.999998" /></clipPath><clipPath
       clipPathUnits="userSpaceOnUse"
       id="clipPath1516"><path
         d="m -206.3156,-636.9012 h 1224 v 792 h -1224 z"
         id="path1518"
         style="stroke-width:0.999998" /></clipPath><clipPath
       clipPathUnits="userSpaceOnUse"
       id="clipPath1512"><path
         d="m -215.2518,-645.6293 h 1224 v 792 h -1224 z"
         id="path1514"
         style="stroke-width:0.999998" /></clipPath><clipPath
       clipPathUnits="userSpaceOnUse"
       id="clipPath1508"><path
         d="m -218.548,-643.8834 h 1224 v 792 h -1224 z"
         id="path1510"
         style="stroke-width:0.999998" /></clipPath><clipPath
       clipPathUnits="userSpaceOnUse"
       id="clipPath1504"><path
         d="M -224.6413,-638.0492 H 999.35868 v 792 H -224.6413 Z"
         id="path1506"
         style="stroke-width:0.999998" /></clipPath></defs><sodipodi:namedview
     id="namedview6"
     pagecolor="#ffffff"
     bordercolor="#000000"
     borderopacity="0.25"
     inkscape:showpageshadow="2"
     inkscape:pageopacity="0.0"
     inkscape:pagecheckerboard="0"
     inkscape:deskcolor="#d1d1d1"
     showgrid="false"
     inkscape:zoom="0.46086259"
     inkscape:cx="1793.3762"
     inkscape:cy="581.51824"
     inkscape:window-width="1920"
     inkscape:window-height="1009"
     inkscape:window-x="-8"
     inkscape:window-y="-8"
     inkscape:window-maximized="1"
     inkscape:current-layer="svg4" /><g
     id="g3794"><g
       id="g3663"
       transform="scale(3)"><path
         d="M 327.66833,281.80729 281.25843,47.70922 c -2.6207,-13.35573 -15.5649,-22.05703 -28.8624,-19.38589 l -8.7965,1.76549 c 0.5131,3.24436 0.8556,6.54604 0.8556,9.92795 0,34.94275 -28.1559,63.25923 -62.88635,63.25923 -29.64842,0 -54.45427,-20.66989 -61.08594,-48.47047 L 19.755414,75.02831 C 6.4693541,77.688 -2.1676259,90.69981 0.47587412,104.06701 L 46.897074,338.14225 c 2.65489,13.37868 15.57637,22.05692 28.87368,19.37434 l 66.566726,-13.3557 V 127.0985 h 78.98675 v 201.2188 l 87.0996,-17.48276 c 13.2861,-2.68261 21.9116,-15.6715 19.2454,-29.02725"
         style="fill:#0095d6;fill-opacity:1;fill-rule:nonzero;stroke:none;stroke-width:11.4292"
         id="path379" /><path
         d="m 221.34153,40.02137 c 0,22.10291 -17.80977,40.02137 -39.76684,40.02137 -21.98005,0 -39.78963,-17.91846 -39.78963,-40.02137 C 141.78506,17.92994 159.59464,0 181.57469,0 c 21.95707,0 39.76684,17.92994 39.76684,40.02137"
         style="fill:#0095d6;fill-opacity:1;fill-rule:nonzero;stroke:none;stroke-width:11.4292"
         id="path383" /></g><g
       id="g3683"
       transform="scale(3)"><g
         id="g3669"><path
           d="m 565.50593,250.81193 46.6485,-109.947 43.0799,23.19155 -84.3902,151.71817 h -10.6766 l -39.157,-75.67664 -39.5309,75.67664 h -10.6766 l -84.3801,-151.71817 43.0798,-23.19155 46.6386,109.94702 39.1671,-89.24897 h 11.0304 z"
           style="fill:#45565f;fill-opacity:1;fill-rule:nonzero;stroke:none;stroke-width:10.123"
           id="path445" /><path
           d="m 728.20393,93.37292 c 0,14.28187 -12.1018,26.425 -26.3472,26.425 -14.2353,0 -26.3373,-12.14313 -26.3373,-26.425 0,-14.27172 12.102,-26.40471 26.3373,-26.40471 14.2454,0 26.3472,12.13299 26.3472,26.40471 m -2.8509,220.25894 h -46.9925 V 145.858 h 46.9925 z"
           style="fill:#45565f;fill-opacity:1;fill-rule:nonzero;stroke:none;stroke-width:10.123"
           id="path457" /><path
           d="m 808.48343,265.43133 c 0,12.85267 3.9126,22.84694 9.9688,30.34769 l -32.0395,26.04996 c -15.3169,-13.90682 -24.9217,-33.55071 -24.9217,-56.39765 V 66.62053 h 46.9924 z"
           style="fill:#45565f;fill-opacity:1;fill-rule:nonzero;stroke:none;stroke-width:10.123"
           id="path461" /><path
           d="m 892.85063,265.43133 c 0,12.85267 3.9227,22.84694 9.9788,30.34769 l -32.0495,26.04996 c -15.297,-13.90682 -24.9218,-33.55071 -24.9218,-56.39765 V 66.62053 h 46.9925 z"
           style="fill:#45565f;fill-opacity:1;fill-rule:nonzero;stroke:none;stroke-width:10.123"
           id="path465" /></g><g
         id="g3673"><path
           d="m 1038.5538,178.18 h -44.53127 v 91.32595 q 0,8.60317 1.6493,14.22831 1.6493,5.29428 4.61807,8.27229 2.9687,2.97802 6.9272,4.30159 4.2881,0.99267 9.236,0.99267 5.6076,0 11.5451,-1.65446 5.9375,-1.65446 10.8856,-4.30157 l 0.9894,20.18437 q -12.2048,5.62512 -29.3576,5.62512 -6.2673,0 -13.19447,-1.65446 -6.5972,-1.65445 -12.2049,-6.28691 -5.6076,-4.63247 -9.236,-12.57387 -3.6285,-7.94137 -3.6285,-20.84614 V 178.18 h -32.6563 v -19.85346 h 32.6563 V 114.6489 h 21.7708 v 43.67764 h 44.53127 z"
           id="path2085"
           style="font-size:35.2098px;font-family:Avenir;-inkscape-font-specification:Avenir;fill:#85929d;fill-opacity:1;fill-rule:evenodd;stroke-width:104.056" /><path
           d="m 1148.9775,313.1836 h -24.4098 l -62.6735,-154.85706 h 26.059 l 49.1493,130.37112 h 0.6591 l 49.1492,-130.37112 h 24.7397 z"
           id="path2087"
           style="font-size:35.2098px;font-family:Avenir;-inkscape-font-specification:Avenir;fill:#85929d;fill-opacity:1;fill-rule:evenodd;stroke-width:104.056" /></g></g></g></svg>
