<?xml version="1.0" encoding="UTF-8" standalone="no"?>
<!-- Created with Inkscape (http://www.inkscape.org/) -->

<svg
   width="597.66803mm"
   height="600.27002mm"
   viewBox="0 0 597.66803 600.27002"
   version="1.1"
   id="svg5"
   xml:space="preserve"
   inkscape:version="1.2.1 (9c6d41e410, 2022-07-14)"
   sodipodi:docname="WILX 2023.svg"
   xmlns:inkscape="http://www.inkscape.org/namespaces/inkscape"
   xmlns:sodipodi="http://sodipodi.sourceforge.net/DTD/sodipodi-0.dtd"
   xmlns:xlink="http://www.w3.org/1999/xlink"
   xmlns="http://www.w3.org/2000/svg"
   xmlns:svg="http://www.w3.org/2000/svg"><sodipodi:namedview
     id="namedview7"
     pagecolor="#ffffff"
     bordercolor="#000000"
     borderopacity="0.25"
     inkscape:showpageshadow="2"
     inkscape:pageopacity="0.0"
     inkscape:pagecheckerboard="0"
     inkscape:deskcolor="#d1d1d1"
     inkscape:document-units="mm"
     showgrid="false"
     inkscape:zoom="0.19799207"
     inkscape:cx="1856.1349"
     inkscape:cy="333.34668"
     inkscape:window-width="1920"
     inkscape:window-height="1017"
     inkscape:window-x="-8"
     inkscape:window-y="-8"
     inkscape:window-maximized="1"
     inkscape:current-layer="Layer_1-2" /><defs
     id="defs2"><style
       id="style426">.cls-1{fill:url(#linear-gradient);}.cls-1,.cls-2,.cls-3,.cls-4,.cls-5,.cls-6{stroke-width:0px;}.cls-2{fill:url(#radial-gradient);}.cls-3{fill:url(#linear-gradient-2);}.cls-4{fill:url(#linear-gradient-3);}.cls-6{fill:#fff;}</style><linearGradient
       id="linear-gradient"
       x1="778.35999"
       y1="84"
       x2="778.35999"
       y2="177.00999"
       gradientUnits="userSpaceOnUse"><stop
         offset="0"
         stop-color="#890007"
         id="stop428" /><stop
         offset="1"
         stop-color="#e5000c"
         id="stop430" /></linearGradient><radialGradient
       id="radial-gradient"
       cx="210.19"
       cy="211.11"
       fx="130.63"
       fy="123.1"
       r="276.60001"
       gradientUnits="userSpaceOnUse"
       gradientTransform="scale(2.3336032)"><stop
         offset=".24"
         stop-color="#ec1c24"
         id="stop433" /><stop
         offset=".34"
         stop-color="#e31a22"
         id="stop435" /><stop
         offset=".5"
         stop-color="#ca171e"
         id="stop437" /><stop
         offset=".71"
         stop-color="#a31318"
         id="stop439" /><stop
         offset=".95"
         stop-color="#6d0c0f"
         id="stop441" /><stop
         offset=".96"
         stop-color="#6a0c0f"
         id="stop443" /></radialGradient><linearGradient
       id="linear-gradient-2"
       x1="102.08"
       y1="132.60001"
       x2="102.08"
       y2="354.20001"
       gradientUnits="userSpaceOnUse"><stop
         offset=".47"
         stop-color="#fff"
         id="stop446" /><stop
         offset=".48"
         stop-color="#e5e5e4"
         id="stop448" /></linearGradient><linearGradient
       id="linear-gradient-3"
       x1="265.54001"
       y1="132.47"
       x2="265.54001"
       y2="354.19"
       xlink:href="#linear-gradient-2"
       gradientTransform="scale(2.3336032)" /><linearGradient
       inkscape:collect="always"
       xlink:href="#linear-gradient-2"
       id="linearGradient600"
       gradientUnits="userSpaceOnUse"
       x1="102.08"
       y1="132.60001"
       x2="102.08"
       y2="354.20001" /></defs><g
     inkscape:label="Layer 1"
     inkscape:groupmode="layer"
     id="layer1"><g
       id="Layer_1-2"
       transform="scale(0.60922906)"><path
         id="Blue_Bkgrd"
         class="cls-2"
         d="m 981.02343,854.54214 c 0,57.94337 -49.42571,130.75179 -133.99549,130.75179 H 137.58924 C 63.193974,985.29393 0,932.18112 0,846.95793 V 128.04481 C 0,72.761746 47.51216,0 142.32646,0 H 846.0945 c 80.46263,0 134.92893,62.843933 134.92893,135.62902 z"
         style="fill:url(#radial-gradient)" /><g
         id="_10_white_stroke"
         transform="scale(2.3336032)"><path
           id="_1"
           class="cls-6"
           d="M 78.28,134.98 59.22,189.65 H 92.8 l -64.41,186.37 67.49,0.36 82.78,-241.4 z M 94.04,373.79 32.02,373.46 96.44,187.06 H 62.87 l 17.26,-49.49 h 94.92 l -81,236.22 z" /><path
           id="outer_0"
           class="cls-6"
           d="m 380.73,156.84 c -13.33,-20.19 -36.95,-30.42 -70.2,-30.42 h -0.49 c 0,0 -1.15,-0.08 -3.18,-0.08 -8.18,0 -30.06,1.24 -56.58,12.75 -33.53,14.55 -61.89,39.77 -84.3,74.95 -31.16,48.92 -38.5,96.39 -20.13,130.25 13.15,24.24 38.74,38.31 70.21,38.6 0.49,0 0.99,0 1.48,0 v 0 c 34.48,0 68.18,-11.37 97.45,-32.87 26.98,-19.81 49.09,-47.73 62.27,-78.59 19.46,-45.58 20.75,-88.42 3.47,-114.6 z m -5.85,113.58 c -13,30.45 -34.81,57.98 -61.42,77.52 -28.83,21.18 -62,32.37 -95.93,32.37 -0.48,0 -0.97,0 -1.46,0 -30.5,-0.29 -55.27,-13.86 -67.96,-37.25 -17.91,-33 -10.6,-79.52 20.04,-127.63 22.13,-34.74 50.1,-59.62 83.15,-73.97 26.07,-11.32 47.53,-12.54 55.55,-12.54 1.93,0 2.99,0.07 3.09,0.08 h 0.58 c 32.33,0 55.22,9.84 68.04,29.26 16.81,25.45 15.43,67.38 -3.69,112.16 z" /><path
           id="inner_0"
           class="cls-6"
           d="m 293.28,179.54 c -9.92,-0.06 -20.21,2.57 -28.32,6.18 -6.96,3.1 -13.46,7.18 -19.43,11.9 -10.82,8.55 -21.12,20.28 -27.57,31.38 -5.86,10.1 -24.99,53.01 -11.44,78.46 3.27,6.14 8.45,10.92 14.72,13.92 3.52,1.68 7.28,2.81 11.11,3.55 15.62,3 31.77,-1.02 45.13,-9.26 17.71,-10.93 32.54,-29.65 44.1,-55.73 0.04,-0.11 4.06,-11.22 6.13,-24.9 2.8,-18.54 0.9,-32.75 -5.66,-42.25 -6.63,-9.6 -17.47,-13.17 -28.77,-13.24 z m 25.9,79.43 c -7.8,17.58 -18.29,34.59 -33.08,47.15 -8.67,7.37 -18.89,13.12 -30.03,15.71 -5.19,1.21 -11.26,1.45 -16.58,1.45 -4.38,0 -9.17,-1.21 -13.28,-2.65 -7.37,-2.58 -13.71,-7.42 -17.41,-14.38 -12.99,-24.39 5.69,-66.11 11.4,-75.94 9.61,-16.55 23.49,-30.57 40.58,-39.34 14.35,-7.37 34.54,-13.31 49.76,-5.13 16.98,9.13 17.09,31.55 14.69,48.1 -1.23,8.46 -3.17,16.97 -6.05,25.04 z" /></g><polygon
         id="_1_-_gradient_top"
         class="cls-3"
         points="93.52,374.67 28.76,374.32 93.17,187.93 59.6,187.93 77.76,135.85 175.41,135.85 "
         style="fill:url(#linearGradient600)"
         transform="scale(2.3336032)" /><path
         id="_0_-_gradient_top"
         class="cls-4"
         d="m 725.96061,296.55429 c -14.53835,0.0467 -29.00669,1.05012 -43.05498,2.917 -30.33684,4.0138 -60.2303,12.50812 -88.51357,24.17613 -21.79585,8.98437 -42.75161,20.02232 -62.58724,32.78713 -23.47604,15.12174 -45.34191,32.69378 -65.38756,52.15603 -23.75608,23.03266 -44.89852,48.67896 -63.59068,75.95878 -3.52374,5.13393 -6.95414,10.33786 -10.29119,15.6118 -137.51924,215.88163 -55.95981,387.79818 114.34655,389.38503 170.30636,1.61018 312.63282,-115.93341 373.39984,-258.25986 8.8677,-20.76907 16.35856,-42.12154 22.26258,-63.91739 5.88068,-21.65584 10.17451,-43.80174 12.29809,-66.15765 2.00689,-21.14245 2.0769,-42.56493 -0.86344,-63.61403 -2.73031,-19.60226 -8.12094,-38.97117 -17.10531,-56.65988 -8.84435,-17.43202 -21.21245,-32.95048 -36.42754,-45.24857 -17.22199,-13.90827 -37.57101,-23.40604 -58.8068,-29.4034 -24.1528,-6.79078 -50.03245,-9.77779 -75.67875,-9.70778 z m 23.28936,307.61557 c -11.59801,30.17349 -28.37662,58.34008 -49.09901,83.33297 -15.05174,18.13209 -32.78713,34.28063 -52.99613,46.48537 -30.05681,18.1321 -67.46447,27.04646 -102.3285,20.39569 -14.7017,-2.80032 -29.12337,-8.70434 -40.6747,-18.38879 -13.41822,-11.24797 -21.51582,-27.11647 -25.08624,-44.05843 -3.82711,-18.13209 -3.01035,-37.03428 -0.25669,-55.25972 2.75365,-18.22544 7.74756,-36.63757 13.97828,-54.23294 10.47788,-29.63676 24.66618,-56.72989 44.82852,-80.85935 18.08542,-21.6325 39.41455,-40.9314 63.63735,-55.49308 25.87966,-15.56513 55.39974,-25.36627 85.80659,-24.99289 30.99025,0.37338 59.46021,13.20819 71.96832,42.89163 10.75791,25.57629 9.54444,55.25972 5.57731,82.14283 -2.94034,19.92897 -8.14427,39.36788 -15.33177,58.03671 z"
         style="fill:url(#linear-gradient-3)" /><path
         id="_1_-_white_stroke"
         class="cls-6"
         d="m 179.66411,313.9863 -44.47848,127.57809 h 78.36239 L 63.240646,876.47801 220.73552,877.31811 413.91119,313.9863 Z M 216.44169,871.27408 71.711625,870.50399 222.04234,435.52036 H 143.70328 L 183.98127,320.03034 H 405.48688 L 216.46503,871.27408 Z" /><path
         id="_0_-_inner_-_white_stroke"
         class="cls-6"
         d="m 687.43282,418.08834 c -5.04058,-0.0933 -10.0345,0.11668 -14.9584,0.56007 -35.56411,3.29038 -68.72461,19.57893 -96.47115,41.49146 -25.24959,19.95231 -49.2857,47.32547 -64.33744,73.22847 -13.67492,23.56939 -58.31674,123.7043 -26.69642,183.0945 15.2851,28.70332 47.90887,41.72483 79.03914,42.65827 34.88736,1.05012 68.44458,-10.17451 96.86786,-30.36018 24.78287,-17.6187 45.13189,-40.81472 61.79382,-66.11098 11.90137,-18.08542 22.02921,-37.31431 30.80356,-57.10327 0.0933,-0.25669 9.47443,-26.18302 14.30498,-58.10672 6.53409,-43.265 2.10025,-76.4255 -13.20819,-98.59473 -15.21509,-22.02921 -41.39812,-30.29017 -67.13776,-30.78022 z m 60.44032,185.21808 c -13.25487,29.84679 -29.68343,58.62012 -50.89588,83.56633 -14.91173,17.5487 -32.2504,33.18384 -52.08603,44.96854 -13.81493,8.21428 -28.82,14.56168 -44.50181,18.17876 -31.83035,7.35085 -70.47481,4.45719 -95.74774,-18.15543 -22.30924,-19.97564 -26.57974,-51.40928 -24.31614,-79.76255 2.26359,-28.35328 9.91781,-54.34962 19.90563,-79.87924 4.78389,-12.20474 10.0345,-24.45616 16.63859,-35.82081 15.82183,-27.25648 36.54423,-51.66597 61.60713,-70.84819 19.27556,-14.74837 41.02474,-26.43972 64.15075,-33.86058 30.38351,-9.73113 69.63472,-13.37155 95.95776,8.49431 4.20049,3.50041 7.91091,7.56088 11.01461,12.06473 34.51399,49.98578 -1.4235,150.21404 -1.72687,151.0308 z" /><path
         class="cls-6"
         d="m 132.54866,80.205941 h 43.82507 L 214.87818,206.08049 256.57967,79.669212 h 35.05072 L 333.33188,206.08049 371.83633,80.205941 h 42.75161 L 351.11393,267.43092 H 315.52648 L 273.5683,145.80353 231.61011,267.43092 h -35.58744 z"
         id="path467" /><path
         class="cls-6"
         d="M 441.40104,80.205941 H 482.3091 V 266.10077 h -40.90806 z"
         id="path469" /><path
         class="cls-6"
         d="m 518.15325,80.205941 h 40.90806 V 229.18317 h 92.69072 v 36.9176 H 518.17658 V 80.205941 Z"
         id="path471" /><path
         class="cls-6"
         d="M 733.26478,171.5665 671.12093,80.205941 h 47.81553 l 39.04118,60.276969 39.29788,-60.276969 h 46.46204 l -62.14385,90.823839 64.80416,95.07099 h -47.7922 l -41.70149,-63.7307 -41.95818,63.7307 h -46.48538 z"
         id="path473" /></g></g></svg>
