<?xml version="1.0" encoding="UTF-8"?><!-- Created with Inkscape by VulcanSphere (http://www.inkscape.org/ and http://vulcansphere.com) --><svg width="176" height="59" viewBox="0 1.8718767123288 46.773 15.777246575342" xmlns="http://www.w3.org/2000/svg" version="1.1">
 <title xmlns="http://www.w3.org/2000/svg">WINK-TV</title>
 <desc xmlns="http://www.w3.org/2000/svg">Television station in Fort Myers–Naples–Cape Coral, Florida</desc>
 <g xmlns="http://www.w3.org/2000/svg" transform="translate(-22.479 -51.465)">
  <rect x="22.479" y="51.465" width="46.773" height="19.521" fill="#fff" fill-rule="evenodd" stroke-linecap="round" stroke-linejoin="round" stroke-width=".30257" style="paint-order:markers fill stroke"/>
  <g transform="matrix(2.2391 0 0 2.2391 -139.43 -85.975)" stroke-width=".26458">
   <path d="m73.025 67.919h19.579v0.66146h-19.579z" fill="#d60022" data-darkreader-inline-fill=""/>
   <path d="m92.604 62.971h-1.4817l-1.6669 1.9844 1.6669 1.9579h1.4817l-1.6669-1.9579zm-12.012 0h1.3229v3.9423h-1.3229zm7.3819 0v3.9423h1.3229v-3.9423zm-1.9844 2.5135-2.1167-2.5135h-1.2965v3.9423h1.2965v-2.4871l2.1167 2.4871h1.3229v-3.9423h-1.3229zm-7.911-0.13229-0.84667-2.3812h-1.1642l-0.87312 2.3812-0.84667-2.3812h-1.3229l1.4288 3.9423h1.3229l0.87312-2.3548 0.84667 2.3548h1.3229l1.4552-3.9423h-1.3229z" fill="#06103a"/>
  </g>
 </g>
</svg>