<?xml version="1.0" encoding="utf-8"?>
<!-- Generator: Adobe Illustrator 24.3.0, SVG Export Plug-In . SVG Version: 6.00 Build 0)  -->
<svg version="1.1" id="Layer_1" xmlns="http://www.w3.org/2000/svg" xmlns:xlink="http://www.w3.org/1999/xlink" x="0px" y="0px"
	 viewBox="0 0 103.539 60" style="enable-background:new 0 0 103.539 60;" xml:space="preserve">
<style type="text/css">
	.st0{fill:none;}
	.st1{fill-rule:evenodd;clip-rule:evenodd;fill:#303c64;}
</style>
<rect class="st0" width="103.539" height="60"/>
<g>
	<path class="st1" d="M43.303,26.054c0.227,0.122,0.402,0.304,0.535,0.556c0.084,0.162,0.293,0.708,0.619,1.622l4.478,12.513h0.621
		l3.271-9.238l3.292,9.238h0.666l4.203-12.154c0.311-0.954,0.54-1.564,0.681-1.81c0.205-0.356,0.419-0.599,0.636-0.724
		c0.217-0.125,0.509-0.188,0.868-0.188h0.159v-0.007h0.002v-0.726h-4.781v0.007h-0.002v0.726h0.159c0.427,0,0.776,0.049,1.036,0.145
		c0.133,0.048,0.24,0.131,0.328,0.252c0.087,0.121,0.13,0.245,0.13,0.381c0,0.124-0.022,0.288-0.067,0.491
		c-0.075,0.341-0.211,0.79-0.408,1.345l-2.694,7.801l-2.714-7.692c-0.323-0.911-0.487-1.553-0.487-1.908
		c0-0.064,0.005-0.123,0.014-0.18c0.03-0.168,0.102-0.304,0.22-0.413c0.16-0.147,0.427-0.222,0.796-0.222h0.556v-0.007h0.002v-0.726
		h-6.136v0.007h-0.002v0.726h0.159c0.283,0,0.49,0.02,0.613,0.059c0.167,0.054,0.338,0.143,0.51,0.266
		c0.122,0.084,0.227,0.188,0.311,0.311c0.184,0.269,0.353,0.586,0.499,0.933l0.774,2.205l-2.31,6.642l-2.791-7.956
		c-0.393-1.126-0.476-1.558-0.476-1.722c0-0.049,0.005-0.097,0.015-0.142c0.032-0.139,0.11-0.261,0.236-0.369
		c0.175-0.15,0.44-0.226,0.789-0.226h0.423v-0.007h0.002v-0.726h-5.85v0.007h-0.002v0.726h0.159
		C42.752,25.869,43.074,25.931,43.303,26.054z"/>
	<path class="st1" d="M96.519,40.745c1.397,0,2.623-0.319,3.643-0.949c1.018-0.629,1.918-1.63,2.678-2.977l0.074-0.13l-0.002-0.001
		l0.003-0.006l-0.594-0.384l-0.088,0.123c-0.871,1.21-1.677,2.027-2.395,2.428c-0.715,0.4-1.552,0.602-2.49,0.602
		c-1.082,0-2.057-0.259-2.898-0.77c-0.838-0.509-1.475-1.252-1.893-2.209c-0.423-0.967-0.637-2.128-0.637-3.451
		c0-1.005,0.089-1.913,0.264-2.715c0.106-0.481,0.243-0.924,0.411-1.327c0.444-1.066,1.059-1.851,1.828-2.334
		c0.771-0.485,1.647-0.73,2.604-0.73c1.14,0,2.13,0.326,2.943,0.968c0.815,0.645,1.453,1.723,1.897,3.205l0.034,0.113h0.63l0-0.007
		h0.002l-0.363-5.398h-0.661l-0.028,0.123c-0.074,0.322-0.198,0.575-0.362,0.747c-0.117,0.111-0.251,0.166-0.408,0.166
		c-0.06,0-0.215-0.029-0.59-0.225c-1.068-0.538-2.167-0.81-3.267-0.81c-1.41,0-2.73,0.354-3.921,1.052
		c-1.192,0.699-2.141,1.697-2.82,2.966c-0.34,0.635-0.596,1.306-0.766,2.007c-0.171,0.699-0.257,1.429-0.257,2.185
		c0,1.877,0.522,3.533,1.552,4.921C92.023,39.796,94.001,40.745,96.519,40.745z"/>
	<path class="st1" d="M72.151,39.703H72.15v0.7h5.024v-0.006h0.002v-0.715l-0.148-0.01c-0.852-0.06-1.188-0.199-1.318-0.302
		c-0.178-0.142-0.264-0.297-0.264-0.477c0-0.097,0.016-0.215,0.049-0.353c0.057-0.235,0.161-0.529,0.31-0.878l0.973-2.261h5.574
		l0.863,2.051c0.283,0.676,0.428,1.17,0.428,1.471c0,0.046-0.005,0.091-0.016,0.135c-0.032,0.132-0.11,0.248-0.237,0.351
		c-0.126,0.1-0.42,0.227-1.114,0.262l-0.151,0.006v0.008h-0.002v0.717h6.213v-0.723l-0.149-0.008
		c-0.571-0.035-1.018-0.191-1.331-0.463c-0.323-0.28-0.692-0.916-1.099-1.887l-5.242-12.527H79.92L74.622,37.19
		c-0.445,1.054-0.852,1.758-1.21,2.096c-0.11,0.105-0.394,0.258-1.129,0.388l-0.132,0.024V39.703z M79.613,28.793l2.294,5.468H77.26
		L79.613,28.793z"/>
	<path class="st1" d="M66.144,25.868c0.323,0,0.634,0.082,0.924,0.244c0.201,0.113,0.333,0.246,0.392,0.394
		c0.06,0.152,0.132,0.526,0.132,1.438v6.027c-0.028,4.51-3.103,5.654-4.423,5.937c-0.04,0.009-0.069,0.015-0.086,0.019
		c-0.058,0.016-0.115,0.032-0.169,0.051c-0.162,0.055-0.299,0.126-0.36,0.251c-0.027,0.056-0.05,0.147-0.002,0.262
		c0.06,0.142,0.241,0.237,0.93,0.237c0.075,0,0.138-0.001,0.177-0.002l0.033-0.001l0.022,0c0.289,0,1.806-0.042,3.288-0.871
		c1.364-0.763,2.995-2.391,3.021-5.819v-6.092c0-1.066,0.126-1.458,0.232-1.6c0.248-0.319,0.642-0.476,1.205-0.476h0.539h0.159
		v-0.159v-0.407v-0.159h-0.159h-6.395h-0.159v0.159v0.407v0.159h0.159H66.144z"/>
	<polygon class="st1" points="103.137,41.588 42.158,41.588 42.158,42.922 103.137,42.922 103.137,42.922 103.137,41.588 	"/>
	<path class="st1" d="M18.08,39.934c0.394-2.447,2.857-2.31,2.857-2.31s-1.183-0.844-1.035-2.386
		c0.059-0.609,0.188-1.359,1.021-2.032c1.62-1.31,3.472,0.006,3.472,0.006s-0.24-1.045,0.11-1.911
		c0.153-0.377,0.434-0.733,0.801-1.005c-0.525-1.638-1.741-2.836-3.429-3.29c-1.735-0.471-3.243-0.571-4.202-0.571
		c-0.231,0-0.528,0.013-0.846,0.03c-0.04,0.002-0.079,0.005-0.119,0.006c-0.402,0.024-0.827,0.056-1.178,0.084
		c-0.035,0.003-0.07,0.006-0.103,0.008c-0.135,0.011-0.256,0.022-0.359,0.03c-0.025,0.003-0.049,0.005-0.073,0.006
		c-0.162,0.014-0.261,0.024-0.266,0.024l-0.045,0.005l-0.032,0.032c-0.002,0.003-0.038,0.041-0.102,0.107
		c-0.041,0.045-0.095,0.102-0.159,0.169c-0.032,0.033-0.065,0.068-0.102,0.107c-0.072,0.076-0.149,0.162-0.235,0.254
		c-0.041,0.045-0.086,0.092-0.13,0.142c-0.045,0.049-0.091,0.099-0.137,0.149c-0.046,0.051-0.094,0.103-0.142,0.157
		c-0.046,0.052-0.095,0.107-0.143,0.161c-0.048,0.054-0.095,0.108-0.143,0.162c-0.143,0.164-0.283,0.329-0.412,0.487l-2.075,2.534
		l0.17-0.038l0.17-0.037c0.005-0.002,0.083-0.019,0.216-0.046c0.045-0.008,0.095-0.019,0.151-0.03
		c0.084-0.016,0.181-0.035,0.286-0.054c0.141-0.027,0.299-0.056,0.469-0.084c0.041-0.008,0.086-0.014,0.129-0.022
		c0.175-0.029,0.359-0.057,0.549-0.086c0.566-0.081,1.167-0.146,1.65-0.146c1.03,0,3.429,0.245,3.429,2.518
		c0,0.285-0.021,0.556-0.06,0.812c-0.057,0.375-0.154,0.722-0.285,1.04c-0.059,0.146-0.126,0.286-0.199,0.421
		c-0.051,0.094-0.105,0.186-0.161,0.275c-0.025,0.038-0.049,0.075-0.075,0.111c-0.037,0.052-0.073,0.105-0.111,0.156
		c-0.03,0.04-0.06,0.078-0.092,0.116c-0.037,0.046-0.073,0.089-0.11,0.132c-0.008,0.008-0.014,0.016-0.021,0.024
		c-0.129,0.146-0.267,0.281-0.412,0.409c-0.03,0.027-0.06,0.052-0.091,0.078c-1.18,0.989-2.789,1.398-4.054,1.398
		c-4.048,0-4.048-2.323-4.048-3.086c0-0.108,0.005-0.219,0.016-0.332c0.01-0.105,0.024-0.211,0.041-0.32
		c0.003-0.019,0.006-0.038,0.01-0.056c0.021-0.11,0.043-0.221,0.072-0.334c0.092-0.367,0.231-0.757,0.415-1.169
		c0.153-0.342,0.337-0.698,0.555-1.068c0.173-0.297,0.366-0.603,0.58-0.917c0.052-0.078,0.108-0.157,0.164-0.237
		c0.169-0.24,0.347-0.483,0.537-0.733c0.445-0.582,0.951-1.191,1.517-1.825c0.28-0.313,0.563-0.62,0.847-0.922
		c0.331-0.351,0.663-0.693,0.995-1.027c0.095-0.095,0.189-0.189,0.285-0.283c0.138-0.138,0.278-0.273,0.417-0.409
		c0.005-0.005,0.011-0.011,0.016-0.016c0.18-0.175,0.359-0.345,0.536-0.514c0.703-0.665,1.383-1.277,2.018-1.83
		c0.11-0.097,0.221-0.192,0.329-0.286c0.01-0.008,0.022-0.019,0.032-0.029c0.405-0.348,0.787-0.669,1.137-0.96
		c0.07-0.059,0.138-0.114,0.207-0.172c0.146-0.121,0.288-0.237,0.421-0.347c0.235-0.192,0.45-0.366,0.639-0.52
		c0.04-0.032,0.076-0.062,0.114-0.092c0.018-0.014,0.033-0.029,0.051-0.043c0.056-0.045,0.11-0.089,0.161-0.13
		c0.062-0.051,0.122-0.1,0.176-0.145c0.14-0.114,0.253-0.208,0.335-0.283c0.13-0.116,0.308-0.266,0.515-0.437
		c0.041-0.035,0.083-0.07,0.127-0.105c0.087-0.072,0.178-0.146,0.272-0.224c0.094-0.076,0.191-0.154,0.291-0.235
		c0.099-0.079,0.199-0.161,0.3-0.242c0.051-0.041,0.102-0.081,0.153-0.122c0.204-0.164,0.409-0.326,0.604-0.482
		c0.097-0.076,0.194-0.153,0.286-0.226c0.138-0.11,0.269-0.213,0.39-0.308c0.04-0.03,0.078-0.062,0.116-0.091
		c0.111-0.089,0.211-0.167,0.296-0.232c0.07-0.056,0.127-0.1,0.173-0.135c0.025-0.021,0.048-0.038,0.064-0.049
		c0.021-0.017,0.033-0.027,0.035-0.029l0.278-0.218H14.621l-0.033,0.029c-0.033,0.027-1.666,1.383-3.674,3.221
		c-0.07,0.064-0.142,0.129-0.213,0.194c-0.192,0.178-0.388,0.359-0.585,0.544c-0.01,0.01-0.018,0.018-0.027,0.025
		c-0.331,0.308-0.666,0.628-1.002,0.952c-0.072,0.068-0.143,0.137-0.215,0.207c-0.068,0.067-0.137,0.134-0.205,0.2
		c-0.07,0.067-0.138,0.135-0.208,0.204c-0.614,0.606-1.219,1.224-1.785,1.835c-0.094,0.1-0.184,0.2-0.275,0.301
		c-0.278,0.305-0.547,0.609-0.798,0.905c-0.102,0.121-0.2,0.24-0.297,0.358c-0.073,0.089-0.145,0.178-0.215,0.266
		c-0.142,0.178-0.277,0.353-0.404,0.523l-0.118,0.159l-0.159,0.213c-0.154,0.208-0.318,0.428-0.485,0.653
		c-0.111,0.153-0.226,0.307-0.34,0.466c-0.231,0.318-0.467,0.649-0.703,0.991c-0.118,0.172-0.235,0.347-0.353,0.523
		C2.118,30.2,1.72,30.847,1.367,31.507c-0.204,0.378-0.391,0.76-0.558,1.143c-0.084,0.192-0.164,0.383-0.235,0.576
		c-0.11,0.288-0.207,0.577-0.286,0.863c-0.081,0.286-0.146,0.572-0.192,0.855c-0.03,0.189-0.052,0.377-0.067,0.563
		c-0.146,1.965,0.27,3.515,1.274,4.725c0.068,0.081,0.137,0.161,0.21,0.238c0.208,0.224,0.439,0.436,0.692,0.633
		c1.515,1.183,3.814,1.865,6.86,2.037c0.507,0.029,1.037,0.043,1.585,0.043c1.463,0,2.771-0.113,3.941-0.304
		c0.213-0.035,0.421-0.073,0.625-0.113c0.305-0.059,0.599-0.124,0.886-0.196c0.285-0.07,0.56-0.145,0.825-0.223
		c0.156-0.048,0.307-0.095,0.456-0.143c0.189-0.064,0.375-0.127,0.555-0.194c0.081-0.03,0.159-0.06,0.238-0.091
		c0.086-0.033,0.17-0.067,0.254-0.102C18.141,41.358,17.95,40.741,18.08,39.934z"/>
	<path class="st1" d="M22.41,38.632c-0.199-0.134-0.394-0.261-0.572-0.35c-0.254-0.124-0.464-0.184-0.512-0.197
		c-0.135-0.032-0.278-0.046-0.434-0.049c0,0-0.143,0-0.216,0c-0.582,0-1.113,0.262-1.596,0.741c-0.258,0.266-0.412,0.56-0.514,0.887
		c-0.04,0.14-0.072,0.273-0.086,0.418c-0.013,0.097-0.011,0.197-0.014,0.291c0,0.246,0.048,0.477,0.119,0.698
		c0.059,0.202,0.141,0.393,0.259,0.571c0.076,0.119,0.17,0.234,0.28,0.342c0.237,0.231,0.493,0.436,0.752,0.55
		c0.272,0.118,0.634,0.207,0.924,0.199l7.585,0.011c0,0-4.275-2.946-5.612-3.863C22.592,38.757,22.467,38.67,22.41,38.632z"/>
	<path class="st1" d="M22.182,33.121c-0.358,0.078-0.649,0.204-0.919,0.41c-0.111,0.091-0.442,0.405-0.579,0.638
		c-0.122,0.211-0.219,0.399-0.28,0.618c-0.076,0.275-0.108,0.787-0.081,0.987c0.043,0.324,0.14,0.661,0.285,0.901
		c0.154,0.25,0.343,0.453,0.58,0.612l1.86,1.267l5.046,3.437l-3.024-6.881L25,34.951c-0.037-0.073-0.181-0.448-0.472-0.93
		C24.208,33.493,23.178,32.908,22.182,33.121z"/>
	<path class="st1" d="M29.283,32.175c-0.018-0.137-0.021-0.178-0.056-0.324c0,0-0.046-0.235-0.189-0.515
		c-0.064-0.124-0.159-0.258-0.254-0.38c-0.223-0.285-0.579-0.49-0.832-0.607c-0.335-0.145-0.636-0.207-0.973-0.204
		c-0.143,0-0.479,0.038-0.615,0.083c-0.097,0.032-0.211,0.075-0.299,0.11c-0.227,0.091-0.41,0.204-0.588,0.347
		c-0.017,0.013-0.033,0.025-0.051,0.041c-0.256,0.204-0.464,0.488-0.609,0.817c-0.13,0.299-0.183,0.603-0.197,0.882
		c-0.014,0.291,0.037,0.572,0.145,0.838l0.515,1.218l1.649,3.898l1.186,2.768l1.08-7.608c0.013-0.081,0.035-0.243,0.046-0.316
		c0.043-0.315,0.07-0.601,0.065-0.787C29.302,32.364,29.291,32.259,29.283,32.175z"/>
	<path class="st1" d="M31.275,40.5c0.076-0.219,0.153-0.439,0.238-0.642c0.499-1.164,0.978-2.328,1.475-3.49
		c0.393-0.916,0.784-1.8,1.177-2.716c0.04-0.092,0.079-0.186,0.119-0.278c0.227-0.514,0.248-1.183,0.011-1.784
		c-0.011-0.027-0.246-0.773-1.17-1.242c-0.285-0.149-0.75-0.315-1.603-0.13c-0.194,0.048-1.005,0.238-1.48,1.202
		c-0.162,0.312-0.245,0.784-0.245,1.124c-0.003,0.014-0.011,0.127-0.011,0.143c0.211,0,0.374-0.002,0.576-0.002
		c0.2,0,0.294-0.008,0.417,0.11c-0.083,0.095-0.221,0.169-0.305,0.221c-0.057,0.052-0.218,0.127-0.34,0.267
		c-0.072,0.087-0.091,0.13-0.119,0.261c-0.019,0.094-0.029,0.151-0.019,0.262c0,0.048,0.01,0.118,0.019,0.173
		c0.013,0.087,0.025,0.175,0.038,0.262c0.146,1.014,0.285,2.029,0.423,3.045c0.173,1.288,0.367,2.577,0.556,3.867
		C31.119,40.947,31.197,40.722,31.275,40.5z"/>
	<path class="st1" d="M31.075,41.959l6.269-4.256c0.235-0.157,0.93-0.741,1.088-1.01c0.14-0.238,0.291-0.515,0.351-0.835
		c0.07-0.372,0.037-0.736-0.076-1.062c-0.067-0.218-0.149-0.418-0.288-0.617c-0.056-0.072-0.122-0.167-0.186-0.24
		c-0.092-0.108-0.304-0.304-0.413-0.394c-0.267-0.207-0.603-0.348-0.959-0.418c-0.658-0.113-1.254,0.064-1.674,0.332
		c-0.649,0.415-0.897,1.059-1.165,1.698C33.754,35.797,31.075,41.959,31.075,41.959z"/>
	<path class="st1" d="M40.492,39.616c-0.102-0.321-0.318-0.607-0.572-0.866c-0.477-0.464-1.002-0.696-1.571-0.696
		c-0.079,0-0.21,0.002-0.21,0.002c-0.149,0.01-0.296,0.032-0.428,0.064c-0.081,0.022-0.154,0.043-0.223,0.07
		c-0.17,0.068-0.382,0.192-0.642,0.369c-0.059,0.037-0.122,0.083-0.192,0.122l-5.838,4.064l7.547-0.148
		c0.283,0.003,0.561-0.051,0.827-0.169c0.253-0.114,0.506-0.296,0.738-0.525c0.269-0.269,0.487-0.572,0.579-0.906
		c0.07-0.216,0.091-0.444,0.089-0.685c-0.005-0.092-0.005-0.191-0.016-0.286C40.563,39.883,40.531,39.751,40.492,39.616z"/>
</g>
</svg>
