<?xml version="1.0" encoding="utf-8"?>
<!-- Generator: Adobe Illustrator 24.1.0, SVG Export Plug-In . SVG Version: 6.00 Build 0)  -->
<svg version="1.1" id="Layer_1" xmlns="http://www.w3.org/2000/svg" xmlns:xlink="http://www.w3.org/1999/xlink" x="0px" y="0px"
	 viewBox="0 0 165 60" style="enable-background:new 0 0 165 60;" xml:space="preserve">
<style type="text/css">
	.st0{fill:none;}
	.st1{fill:#101c34;}
</style>
<rect class="st0" width="165" height="60"/>
<g>
	<path class="st1" d="M2.697,17.556c-1.027,0.756-1.065,0.569-2.094,1.067v8.513c1.476-0.742,3.001-1.712,4.578-2.909v23.116h9.748
		V12.066H6.958C5.931,14.244,4.583,16.164,2.697,17.556z"/>
	<path class="st1" d="M37.785,43.579c0.428-2.164,2.362-2.99,3.586-2.877c-1.111-0.658-2.191-3.397-0.171-5.42
		c1.563-1.341,3.356-1.027,4.41-0.312c-0.19-0.715-0.106-1.66,0.32-2.487v-0.003c0.049-0.875,0.073-1.788,0.073-2.741
		c0-2.806-0.325-5.504-0.972-8.091c-0.33-1.357-0.767-2.543-1.311-3.562c-0.544-1.018-1.289-1.988-2.237-2.909
		c-0.945-0.924-2.167-1.671-3.668-2.248c-1.498-0.577-3.413-0.864-5.748-0.864c-4.859,0-8.475,1.316-10.848,3.952
		c-2.373,2.633-3.562,7.248-3.562,13.841c0,2.682,0.233,5.13,0.699,7.346c0.466,2.216,1.116,3.963,1.953,5.241
		c1.151,1.796,2.625,3.161,4.423,4.093c1.799,0.929,4.155,1.395,7.075,1.395c2.714,0,5.008-0.398,6.885-1.192
		C37.97,46.016,37.555,44.941,37.785,43.579z M35.911,37.075c-0.339,1.482-0.867,2.565-1.585,3.253
		c-0.718,0.685-1.566,1.029-2.543,1.029c-1.482,0-2.614-0.81-3.394-2.427c-0.783-1.614-1.173-4.632-1.173-9.05
		c0-4.369,0.355-7.362,1.065-8.977c0.71-1.617,1.861-2.427,3.456-2.427c1.56,0,2.73,0.794,3.513,2.378
		c0.78,1.585,1.17,4.681,1.17,9.285C36.42,33.28,36.25,35.591,35.911,37.075z"/>
	<polygon class="st1" points="92.945,16.161 89.358,30.655 84.927,16.161 80.146,16.161 75.715,30.655 72.128,16.161 65.075,16.161 
		72.63,43.606 78.104,43.606 82.535,30.076 86.969,43.606 92.481,43.606 99.998,16.161 	"/>
	<path class="st1" d="M107.501,34.047c0,1.26-0.322,2.205-0.964,2.833c-0.642,0.631-1.517,0.945-2.622,0.945
		c-0.693,0-1.251-0.108-1.677-0.328c-0.423-0.219-0.88-0.572-1.368-1.062l-4.431,4.396c1.102,1.105,2.221,1.883,3.353,2.332
		c1.129,0.45,2.506,0.674,4.123,0.674c1.311,0,2.584-0.2,3.816-0.599c1.235-0.398,2.346-1.002,3.334-1.812
		c0.989-0.807,1.766-1.823,2.332-3.045c0.566-1.219,0.848-2.614,0.848-4.182v-18.04h-6.745V34.047z"/>
	<path class="st1" d="M125.484,16.161L115.5,43.606h7.053l1.349-4.085h8.443l1.27,4.085h7.056l-9.984-27.444H125.484z
		 M125.793,33.892l2.465-7.322l2.313,7.322H125.793z"/>
	<path class="st1" d="M158.459,32.159c1.26-0.618,2.321-1.536,3.18-2.757c0.861-1.219,1.292-2.69,1.292-4.412
		c0-1.13-0.206-2.229-0.618-3.296c-0.409-1.065-1.013-2.015-1.809-2.852c-0.799-0.834-1.788-1.49-2.969-1.964
		c-1.184-0.477-2.506-0.715-3.971-0.715h-10.87v27.444h6.747V33.391h2.273l4.857,10.214h7.825L158.459,32.159z M155.396,26.937
		c-0.525,0.553-1.241,0.829-2.14,0.829h-3.814v-5.55h3.814c0.899,0,1.614,0.276,2.14,0.826c0.526,0.555,0.791,1.203,0.791,1.948
		S155.921,26.384,155.396,26.937z"/>
	<path class="st1" d="M41.567,35.71c-1.165,1.056-1.59,3.451,0.512,4.848l1.79,1.227l6.604,4.532l-4.068-9.323
		c-0.195-0.504-0.469-0.918-0.796-1.241C44.516,34.672,42.84,34.635,41.567,35.71z"/>
	<path class="st1" d="M48.793,31.176c-1.365,0.03-3.413,1.652-2.503,4.133l4.209,9.927l1.479-10.442
		C52.32,32.202,50.359,31.005,48.793,31.176z"/>
	<path class="st1" d="M58.379,35.282c0.856-2.221-0.94-4.077-2.53-4.133c-0.076-0.005-0.149-0.011-0.228-0.011
		c-1.43,0-3.066,1.037-2.985,3.259h0.794c0,0,0.425,0,0.485,0.2c-0.314,0.257-1.167,0.29-1.054,1.655l1.338,8.982L58.379,35.282z"/>
	<path class="st1" d="M54.257,46.29l8.391-5.788c1.934-1.373,1.622-3.565,0.539-4.651c-0.452-0.509-1.287-0.902-2.17-0.902
		c-1.043,0-2.159,0.553-2.806,2.129L54.257,46.29z"/>
	<path class="st1" d="M63.417,41.265c-0.553,0-1.135,0.165-1.709,0.547l-7.879,5.504h9.702c1.991,0,3.269-2.053,2.701-3.936
		C65.85,42.197,64.723,41.265,63.417,41.265z"/>
	<path class="st1" d="M43.018,41.812c-1.82-1.17-3.868-0.488-4.607,1.455c-0.371,1.314,0.027,2.489,0.823,3.231
		c0.55,0.512,1.295,0.818,2.107,0.818h9.559l-7.267-5.073L43.018,41.812z"/>
</g>
</svg>
