<?xml version="1.0" encoding="UTF-8"?>
<svg width="130px" height="54px" viewBox="0 0 130 54" version="1.1" xmlns="http://www.w3.org/2000/svg" xmlns:xlink="http://www.w3.org/1999/xlink">
    <title>logo/4-color/detroit</title>
    <g id="logo/4-color/detroit" stroke="none" stroke-width="1" fill="none" fill-rule="evenodd">
        <path d="M6.7864718,47.7973434 C6.80153177,48.0195958 6.80153177,48.2426127 6.7864718,48.4648652 C6.78357306,48.7449297 6.75564856,49.0241747 6.70303157,49.2992675 C6.64566019,49.6047273 6.53251926,49.897008 6.36927066,50.1614831 C6.19903287,50.440309 5.95947473,50.6702848 5.67393544,50.829005 C5.3026184,51.0278392 4.8849224,51.1238613 4.46405214,51.107139 L3.25416885,51.107139 L3.25416885,45.9616584 L4.29717169,45.9616584 C4.77819578,45.9369486 5.25739218,46.0375798 5.68784214,46.2536992 C6.00097457,46.4183956 6.26488382,46.6631114 6.45271089,46.9629411 C6.62287347,47.2137314 6.73673415,47.4983831 6.7864718,47.7973434 L6.7864718,47.7973434 Z M66.4462341,45.7669645 L64.9304033,45.7669645 L64.9304033,47.8668769 L67.1137559,47.8668769 C67.2728495,47.843849 67.427562,47.7969664 67.5726772,47.7278098 C67.7106581,47.6480291 67.8293621,47.5388214 67.9203448,47.4079556 C68.0234192,47.2363855 68.0719178,47.0375412 68.0594118,46.8377808 C68.0728882,46.5408475 67.9499656,46.2540281 67.7256509,46.0590053 C67.3392171,45.8327616 66.8925636,45.7308081 66.4462341,45.7669645 L66.4462341,45.7669645 Z M89.0029088,46.1980724 C88.8138411,45.9983082 88.5804019,45.8458582 88.3214803,45.7530578 C87.8742257,45.5791958 87.3780645,45.5791958 86.9308098,45.7530578 C86.673653,45.8493768 86.4409613,46.0013387 86.2493813,46.1980724 C86.021928,46.4534405 85.8470752,46.7511628 85.7348332,47.0741947 C85.4379272,48.0202812 85.4379272,49.0346095 85.7348332,49.980696 C85.8470752,50.303728 86.021928,50.6014502 86.2493813,50.8568184 C86.4409613,51.053552 86.673653,51.2055139 86.9308098,51.3018329 C87.3780645,51.4756949 87.8742257,51.4756949 88.3214803,51.3018329 C88.5804019,51.2090325 88.8138411,51.0565825 89.0029088,50.8568184 C89.2398404,50.6060455 89.4200671,50.3072487 89.5313636,49.980696 C89.8091146,49.0317691 89.8091146,48.0231217 89.5313636,47.0741947 C89.4200671,46.747642 89.2398404,46.4488452 89.0029088,46.1980724 L89.0029088,46.1980724 Z M41.8591805,30.0106684 C43.5912055,30.0110812 45.0059988,28.6271786 45.0438159,26.8955665 L45.0438159,11.5981916 C45.023941,9.81893434 43.6224586,8.36261131 41.8452738,8.27448918 C40.0819111,8.36409432 38.7054523,9.83272673 38.730172,11.5981916 L38.730172,26.8955665 C38.745373,28.6150725 40.1396239,30.0031268 41.8591805,30.0106684 L41.8591805,30.0106684 Z M23.5162373,19.2329723 C23.5162373,29.3327783 31.7037478,37.5202887 41.8035537,37.5202887 C51.9033597,37.5202887 60.0908701,29.3327783 60.0908701,19.2329723 C60.0908701,9.13316635 51.9033597,0.945655906 41.8035537,0.945655906 C31.7037478,0.945655906 23.5162373,9.13316635 23.5162373,19.2329723 Z M10.1101742,48.520492 C10.1141481,47.8577418 10.0252071,47.1977057 9.84594679,46.5596467 C9.68879096,45.9517288 9.41483632,45.3802028 9.03935793,44.8769354 C8.64485564,44.3753613 8.14055277,43.9709674 7.56524725,43.6948655 C6.86664023,43.3805221 6.10594386,43.2283828 5.34017453,43.249851 L0,43.249851 L0,53.8050397 L4.70046612,53.8050397 C5.51692871,53.8188741 6.32999776,53.6966788 7.106326,53.4434654 C7.74035547,53.2238147 8.31587822,52.8623293 8.78903724,52.3865559 C9.24465733,51.9155528 9.58291789,51.3438448 9.77641326,50.7177513 C10.0061862,50.008301 10.1189146,49.2661722 10.1101742,48.520492 L10.1101742,48.520492 Z M21.4163249,15.4920688 L10.8750429,15.4920688 L10.8750429,10.4856552 L23.8082781,10.4856552 L23.0990362,0 L0,0 L0,38.3685977 L10.7916027,38.3685977 L10.7916027,25.9638173 L21.4163249,25.9638173 L21.4163249,15.4920688 Z M30.3444292,51.107139 L24.6983072,51.107139 L24.6983072,49.7164686 L29.6769074,49.7164686 L29.6769074,47.2827953 L24.6983072,47.2827953 L24.6983072,45.9755651 L30.1914555,45.9755651 L30.1914555,43.249851 L21.4441383,43.249851 L21.4441383,53.8050397 L30.3444292,53.8050397 L30.3444292,51.107139 Z M50.5091507,43.249851 L41.3307258,43.249851 L41.3307258,45.9616584 L44.2928538,45.9616584 L44.2928538,53.8050397 L47.5470227,53.8050397 L47.5470227,45.9616584 L50.5091507,45.9616584 L50.5091507,43.249851 Z M71.6473416,53.8050397 C71.5612389,53.6585641 71.5001401,53.4987674 71.4665544,53.3322118 C71.4665544,53.1236112 71.4665544,52.9150106 71.3692075,52.6925034 C71.2718606,52.4699961 71.3692075,52.2613955 71.3692075,52.0527949 L71.3692075,51.5521536 C71.3298201,50.9583732 71.1638616,50.3798894 70.8824728,49.8555356 C70.6489185,49.4233475 70.2694091,49.0881964 69.8116566,48.9098797 C70.074726,48.8154806 70.3159788,48.6688367 70.5208985,48.4787719 C70.7172128,48.2990565 70.881771,48.0874816 71.0076332,47.8529702 C71.1454015,47.615341 71.2440104,47.3570797 71.299674,47.0881014 C71.3662674,46.8197427 71.3989711,46.5440969 71.3970209,46.2676059 C71.4155644,45.7885787 71.3202451,45.3119823 71.1188868,44.8769354 C70.9355663,44.5178449 70.6798783,44.2006024 70.3679248,43.9451862 C70.0408277,43.6877333 69.6681013,43.4942931 69.2692951,43.3750113 C68.8186635,43.2382805 68.3494798,43.1725948 67.8786247,43.1803175 L61.6762345,43.1803175 L61.6762345,53.7355062 L64.9304033,53.7355062 L64.9304033,50.1336697 L66.6548347,50.1336697 C66.920511,50.1149059 67.1859877,50.1728281 67.4197034,50.3005502 C67.5972603,50.4194965 67.7409921,50.5823925 67.8369046,50.7733781 C67.9393399,50.9842368 68.0096516,51.2092345 68.0455051,51.4408999 L68.0455051,52.1779553 C68.0455051,52.428276 68.0455051,52.7342235 68.1428521,52.9984509 C68.181678,53.2716737 68.2421302,53.5413837 68.3236392,53.8050397 L71.6473416,53.8050397 Z M77.3769038,38.3129709 L89.3366697,38.3129709 L77.7801983,18.3985701 L88.2797602,0 L76.709382,0 L71.911569,8.3440227 L67.1971961,0 L55.2374303,0 L65.931686,18.4820103 L54.5977219,38.3268776 L66.2237268,38.3268776 L71.7864086,28.5921845 L77.3769038,38.3129709 Z M92.994133,48.5343987 C93.0033028,47.7762012 92.8761205,47.0225282 92.618652,46.309326 C92.3816134,45.6371126 92.0074978,45.0214792 91.5200223,44.5014544 C91.0442929,44.0087297 90.4712441,43.6203826 89.8373111,43.3611046 C89.1406892,43.074716 88.3931632,42.9327807 87.6400518,42.9439035 C86.8916109,42.9346615 86.1490026,43.0765612 85.4566992,43.3611046 C84.818559,43.6201298 84.2409124,44.0083841 83.7600812,44.5014544 C83.2786003,45.0022078 82.9088804,45.5994475 82.6753583,46.2536992 C82.1560072,47.6916231 82.1560072,49.2659207 82.6753583,50.7038446 C82.9124923,51.3522331 83.2818888,51.9442146 83.7600812,52.4421827 C84.2403754,52.9393379 84.8179107,53.3322513 85.4566992,53.5964391 C86.151812,53.8699022 86.8931157,54.0068309 87.6400518,53.9997336 C88.3915083,54.0068855 89.1373752,53.8699858 89.8373111,53.5964391 C90.4720859,53.3323497 91.0450908,52.9392968 91.5200223,52.4421827 C91.9979796,51.9413984 92.3714491,51.3504656 92.618652,50.7038446 C92.868524,50.0079028 92.9955738,49.273837 92.994133,48.5343987 L92.994133,48.5343987 Z M107.596173,43.249851 L104.300284,43.249851 L104.300284,53.8050397 L107.554453,53.8050397 L107.596173,43.249851 Z M127.941681,43.249851 L118.74935,43.249851 L118.74935,45.9616584 L121.711478,45.9616584 L121.711478,53.8050397 L124.965647,53.8050397 L124.965647,45.9616584 L127.941681,45.9616584 L127.941681,43.249851 Z M127.941681,29.0511057 L110.836435,29.0511057 C117.956668,24.7122139 127.39932,21.6666456 127.39932,12.001486 C127.39932,3.97731749 121.15521,0.125160341 111.976785,0.125160341 C101.82489,0.125160341 95.3721795,6.09113657 95.9701678,16.4516314 L106.163782,16.4516314 C106.066435,11.8485122 107.554453,8.69169031 111.865531,8.69169031 C114.424365,8.69169031 116.440837,9.8876669 116.440837,13.3087162 C116.440837,16.0900571 113.284015,17.5919812 111.32317,18.7879578 C106.497543,21.7222724 101.073928,24.6009603 97.9171064,28.9954789 C95.9255783,31.6841272 94.9412219,34.986643 95.1357655,38.3268776 L127.941681,38.3268776 L127.941681,29.0511057 Z" id="fts-detroit-c-copy" fill="#10144c"></path>
    </g>
</svg>