<?xml version="1.0" encoding="UTF-8" standalone="no"?>
<svg
   xmlns:dc="http://purl.org/dc/elements/1.1/"
   xmlns:cc="http://creativecommons.org/ns#"
   xmlns:rdf="http://www.w3.org/1999/02/22-rdf-syntax-ns#"
   xmlns:svg="http://www.w3.org/2000/svg"
   xmlns="http://www.w3.org/2000/svg"
   xmlns:xlink="http://www.w3.org/1999/xlink"
   xmlns:sodipodi="http://sodipodi.sourceforge.net/DTD/sodipodi-0.dtd"
   xmlns:inkscape="http://www.inkscape.org/namespaces/inkscape"
   version="1.1"
   id="svg833"
   width="717.3197"
   height="243.12416"
   viewBox="0 0 717.3197 243.12416"
   sodipodi:docname="WJKT_Logo.svg"
   inkscape:version="1.0.1 (3bc2e813f5, 2020-09-07)">
  <metadata
     id="metadata839">
    <rdf:RDF>
      <cc:Work
         rdf:about="">
        <dc:format>image/svg+xml</dc:format>
        <dc:type
           rdf:resource="http://purl.org/dc/dcmitype/StillImage" />
        <dc:title />
      </cc:Work>
    </rdf:RDF>
  </metadata>
  <defs
     id="defs837">
    <linearGradient
       inkscape:collect="always"
       id="linearGradient1853">
      <stop
         style="stop-color:#4d4d4d;stop-opacity:1"
         offset="0"
         id="stop1849" />
      <stop
         style="stop-color:#000000;stop-opacity:1"
         offset="1"
         id="stop1851" />
    </linearGradient>
    <radialGradient
       inkscape:collect="always"
       xlink:href="#linearGradient1853"
       id="radialGradient1857"
       cx="3.7784374"
       cy="334.84976"
       fx="3.7784374"
       fy="334.84976"
       r="243.15985"
       gradientTransform="matrix(0.49409615,0.00166361,-0.00153175,0.4549387,221.90526,65.997983)"
       gradientUnits="userSpaceOnUse" />
  </defs>
  <sodipodi:namedview
     pagecolor="#ffffff"
     bordercolor="#666666"
     borderopacity="1"
     objecttolerance="10"
     gridtolerance="10"
     guidetolerance="10"
     inkscape:pageopacity="0"
     inkscape:pageshadow="2"
     inkscape:window-width="1366"
     inkscape:window-height="706"
     id="namedview835"
     showgrid="false"
     showguides="false"
     inkscape:zoom="0.95926969"
     inkscape:cx="357.05465"
     inkscape:cy="120.09963"
     inkscape:window-x="-8"
     inkscape:window-y="-8"
     inkscape:window-maximized="1"
     inkscape:current-layer="g841"
     inkscape:document-rotation="0" />
  <g
     inkscape:groupmode="layer"
     inkscape:label="Image"
     id="g841"
     transform="translate(-212.56793,13.72242)">
    <g
       id="g3292"
       inkscape:export-filename="C:\Users\Carrillo\Downloads\g3292.png"
       inkscape:export-xdpi="96"
       inkscape:export-ydpi="96">
      <rect
         style="fill:url(#radialGradient1857);fill-opacity:1;stroke-width:1.06446;paint-order:stroke markers fill"
         id="rect1847"
         width="486.3197"
         height="243.12416"
         x="212.56793"
         y="-13.72242" />
      <rect
         style="fill:#ff3334;fill-opacity:1;fill-rule:evenodd;stroke:none;stroke-width:10.5827"
         id="rect865"
         width="481"
         height="201"
         x="217.88763"
         y="-8.3317995" />
      <path
         id="path991-0"
         fill-rule="evenodd"
         class="shp0"
         d="m 628.6742,93.170301 53.75392,95.355649 -61.91224,0.10677 -22.73813,-40.46631 -22.73371,40.46631 -61.90782,-0.10677 53.75391,-95.355649 -53.75391,-95.6848551 h 61.59846 l 23.04307,40.8845021 23.05191,-40.8845021 h 61.59846 z M 446.67636,-2.4522708 c 52.39272,0 94.86816,42.7529998 94.86816,95.4891118 0,52.736109 -42.47544,95.489109 -94.86816,95.489109 -52.39714,0 -94.86817,-42.753 -94.86817,-95.489109 0,-52.736112 42.47103,-95.4891118 94.86817,-95.4891118 z m 16.61717,56.2284248 c 0,-8.946543 -7.70312,-16.958839 -16.35643,-16.958839 -8.66214,0 -15.66257,8.012296 -15.66257,16.958839 l -0.0177,78.223306 c 0,8.95544 7.0181,16.20699 15.67583,16.20699 8.65772,0 16.36084,-7.02466 16.36084,-15.97566 z M 233.04842,188.52595 V -2.5145541 H 351.0613 l 3.47812,52.1088331 H 290.497 v 25.002272 h 52.2292 V 126.86999 H 290.497 v 61.65596 z"
         style="fill:#ffffff;fill-opacity:1;stroke-width:0.44341" />
      <rect
         style="fill:#225dab;fill-opacity:1;fill-rule:evenodd;stroke:none;stroke-width:10.8335"
         id="rect863"
         width="231.00002"
         height="243.12416"
         x="698.88763"
         y="-13.72242" />
      <g
         id="g3268">
        <rect
           style="fill:#ffffff;fill-opacity:1;paint-order:stroke markers fill"
           id="rect1834"
           width="481"
           height="31"
           x="217.88763"
           y="192.6682" />
        <path
           style="fill:#090909;fill-opacity:1"
           d="m 232.80247,220.87102 -8.47917,-22.02085 h 5.29167 l 5.58334,14.77084 5.85417,-14.77084 h 3.58333 l 5.95834,14.77084 5.33334,-14.77084 h 4.58333 l -8.5,22.02085 h -3.45834 l -6.0625,-15.22918 -6.14584,15.22918 z"
           id="path3249" />
        <path
           style="fill:#090909;fill-opacity:1"
           d="m 270.99,220.87102 q -3.20834,0 -4.33334,-1.08333 -1.125,-1.10417 -1.125,-4.12501 v -4.5625 l 5.16667,-0.97917 v 6.60417 h 10.06251 v -17.87501 h 5.12501 v 16.81251 q 0,3.02084 -1.14584,4.12501 -1.125,1.08333 -4.3125,1.08333 z"
           id="path3247" />
        <path
           style="fill:#090909;fill-opacity:1"
           d="m 296.24002,220.87102 v -22.02085 h 5.16667 v 9.18751 l 12.20835,-9.18751 h 7.41667 l -14.58335,10.37501 16.37502,11.64584 h -8.22918 l -13.18751,-9.68751 v 9.68751 z"
           id="path3245" />
        <path
           style="fill:#090909;fill-opacity:1"
           d="m 338.84423,202.78767 v 18.08335 h -5.12501 v -18.08335 h -10.10417 v -3.9375 h 25.37502 v 3.9375 z"
           id="path3243" />
        <path
           style="fill:#090909;fill-opacity:1"
           d="m 381.59424,220.87102 q -3,0 -4.0625,-1.08333 -1.0625,-1.08334 -1.0625,-4.12501 v -4.39583 l 3.625,-0.77084 v 7.31251 h 11.81251 v -18.95835 h 3.66667 v 16.81251 q 0,3.02084 -1.08333,4.12501 -1.0625,1.08333 -4.06251,1.08333 z"
           id="path3241" />
        <path
           id="path3239"
           style="fill:#090909;fill-opacity:1"
           d="m 201.10938,212.57227 -12.02149,22.02148 h 3.625 l 2.8125,-5.41602 h 14.89649 l 2.8125,5.41602 h 4.04101 l -12.22851,-22.02148 z m 1.875,2.52148 5.9375,11.27148 h -11.85352 z"
           transform="translate(212.56793,-13.72242)" />
        <path
           style="fill:#090909;fill-opacity:1"
           d="m 455.61514,201.85017 h -15.27085 v 15.95835 h 15.27085 v -5.52084 l 3.6875,0.77083 v 2.60417 q 0,3.04167 -1.0625,4.12501 -1.0625,1.08333 -4.0625,1.08333 H 441.8443 q -3.00001,0 -4.08334,-1.08333 -1.08333,-1.10417 -1.08333,-4.12501 v -11.60417 q 0,-3.02084 1.08333,-4.10417 1.08333,-1.10417 4.08334,-1.10417 h 12.33334 q 3,0 4.0625,1.08333 1.0625,1.08334 1.0625,4.12501 v 2.08333 l -3.6875,0.6875 z"
           id="path3235" />
        <path
           style="fill:#090909;fill-opacity:1"
           d="m 468.96931,220.87102 v -22.02085 h 3.6875 v 9.43751 l 13.72918,-9.43751 h 5.375 l -15.95834,10.54167 17.70834,11.47918 h -6.14584 l -14.70834,-9.89584 v 9.89584 z"
           id="path3233" />
        <path
           style="fill:#090909;fill-opacity:1"
           d="m 518.86517,201.85017 h -15.58334 v 6.14584 h 13.87501 q 2.9375,0 4.02084,1.08333 1.08333,1.08334 1.08333,4.10417 v 2.47917 q 0,3.04167 -1.0625,4.12501 -1.0625,1.08333 -4.04167,1.08333 h -12.85418 q -3,0 -4.08333,-1.08333 -1.08334,-1.10417 -1.08334,-4.12501 v -0.60416 l 3.41667,-0.79167 v 3.54167 h 16.39585 v -6.62501 h -13.83335 q -3,0 -4.0625,-1.08333 -1.0625,-1.10417 -1.0625,-4.125 v -1.91667 q 0,-3.02084 1.0625,-4.10417 1.0625,-1.10417 4.0625,-1.10417 h 11.72918 q 2.9375,0 4.04167,1.08333 1.125,1.06251 1.125,3.75001 v 0.45833 l -3.14584,0.89583 z"
           id="path3231" />
        <path
           id="path3229"
           style="fill:#090909;fill-opacity:1"
           d="m 325.69336,212.57227 c -2.01389,0 -3.3813,0.36935 -4.10352,1.10546 -0.70833,0.73612 -1.0625,2.10352 -1.0625,4.10352 v 11.60352 c 0,2 0.35417,3.36935 1.0625,4.10546 0.72222,0.73612 2.08963,1.10352 4.10352,1.10352 h 15.22852 c 1.98611,0 3.33463,-0.36176 4.04296,-1.08398 0.72222,-0.72223 1.08204,-2.09722 1.08204,-4.125 v -11.60352 c 0,-2.01389 -0.35982,-3.3813 -1.08204,-4.10352 -0.70833,-0.73611 -2.05685,-1.10546 -4.04296,-1.10546 z m -1.5,3 h 18.22852 v 15.95898 h -18.22852 z"
           transform="translate(212.56793,-13.72242)" />
        <path
           style="fill:#090909;fill-opacity:1"
           d="m 569.7819,220.87102 v -22.02085 h 2.3125 l 16.47918,14.72918 q 0.5625,0.5 1.1875,1.20833 0.64583,0.70834 1.3125,1.5625 -0.16667,-1.0625 -0.25,-2.20833 -0.0833,-1.16667 -0.0833,-3.20834 v -12.08334 h 3.375 v 22.02085 h -2.0625 L 575.1361,205.55851 q -0.125,-0.10417 -0.375,-0.33334 -1.25,-1.125 -1.85417,-2.14583 0.125,1 0.1875,2.14583 0.0625,1.12501 0.0625,2.66667 v 12.97918 z"
           id="path3225" />
        <path
           style="fill:#090909;fill-opacity:1"
           d="m 608.86523,216.18352 q 0.91667,0 1.10417,0.22916 0.1875,0.20834 0.1875,0.91667 v 3.25 l -3,4.56251 h -1.875 l 2.52083,-4.68751 h -1.45833 q -0.52083,0 -0.70833,-0.22916 -0.1875,-0.25 -0.1875,-0.9375 v -1.95834 q 0,-0.72917 0.1875,-0.9375 0.1875,-0.20833 1.10416,-0.20833 z"
           id="path3223" />
        <path
           style="fill:#090909;fill-opacity:1"
           d="m 646.99029,201.85017 v 19.02085 h -3.66667 v -19.02085 h -10.06251 v -3 h 23.83335 v 3 z"
           id="path3221" />
        <path
           style="fill:#090909;fill-opacity:1"
           d="m 663.28196,220.87102 v -22.02085 h 2.3125 l 16.47918,14.72918 q 0.5625,0.5 1.1875,1.20833 0.64584,0.70834 1.3125,1.5625 -0.16666,-1.0625 -0.25,-2.20833 -0.0833,-1.16667 -0.0833,-3.20834 v -12.08334 h 3.375 v 22.02085 h -2.0625 l -16.91668,-15.31251 q -0.125,-0.10417 -0.375,-0.33334 -1.25,-1.125 -1.85417,-2.14583 0.125,1 0.1875,2.14583 0.0625,1.12501 0.0625,2.66667 v 12.97918 z"
           id="path1000" />
      </g>
      <path
         style="fill:#ffffff;stroke:none;stroke-width:1px;stroke-linecap:butt;stroke-linejoin:miter;stroke-opacity:1"
         d="m 699.88764,85.668201 c 9.81852,-0.244373 19.07738,-4.368395 25,-7.990621 V 211.6682 h 44 V 5.6682007 l -35.5,0.002 c -13.01949,24.5707783 -33.5,28.3145753 -33.5,28.3145753 v 51.683425"
         id="path857"
         sodipodi:nodetypes="cccccccc" />
      <path
         id="path4125"
         style="fill:#ffffff;fill-opacity:1;stroke:none;stroke-width:1px;stroke-linecap:butt;stroke-linejoin:miter;stroke-opacity:1"
         d="m 851.9652,-0.45894 c -66.77069,0.11131207 -80.0025,52.547227 -79.79297,112.25782 0.28894,82.34076 32.93883,105.07718 83.84765,105.04297 37.19642,-0.025 70.87821,-12.40858 71.25,-72.24024 0.24928,-40.11577 -17.71254,-69.276283 -65.35351,-69.28906 -22.23433,-0.006 -30.80879,5.85287 -40.17383,11.24023 2.20006,-22.46101 13.71124,-35.076768 31.32812,-34.88281 9.03953,0.09952 19.10686,0.85915 22.29883,13.875 h 50.3086 C 925.45511,43.00897 915.59028,-0.56500809 851.9652,-0.45894 Z m -0.92188,124.35157 c 13.63456,-0.0307 24.39764,4.62143 24.36523,20.82226 -0.0313,15.65047 -12.29733,20.14251 -24.17968,20.15821 -16.25726,0.0215 -24.89653,-6.96459 -24.93164,-20.15821 -0.0383,-14.40313 7.76965,-20.78398 24.74609,-20.82226 z"
         sodipodi:nodetypes="ssssscsccssssss" />
    </g>
  </g>
  <style
     id="style867">		.shp0 { fill: #000000 }
</style>
</svg>
