<?xml version="1.0" encoding="UTF-8" standalone="no"?>
<!-- Generator: Adobe Illustrator 24.1.0, SVG Export Plug-In . SVG Version: 6.00 Build 0)  -->

<svg
   version="1.1"
   id="MeTV"
   x="0px"
   y="0px"
   viewBox="0 0 250.77 104.08"
   xml:space="preserve"
   sodipodi:docname="metv_newjersey_newyork.svg"
   width="250.77"
   height="104.08"
   inkscape:version="1.2.2 (b0a8486541, 2022-12-01)"
   xmlns:inkscape="http://www.inkscape.org/namespaces/inkscape"
   xmlns:sodipodi="http://sodipodi.sourceforge.net/DTD/sodipodi-0.dtd"
   xmlns="http://www.w3.org/2000/svg"
   xmlns:svg="http://www.w3.org/2000/svg"><defs
   id="defs86" /><sodipodi:namedview
   id="namedview84"
   pagecolor="#ffffff"
   bordercolor="#000000"
   borderopacity="0.25"
   inkscape:showpageshadow="2"
   inkscape:pageopacity="0.0"
   inkscape:pagecheckerboard="0"
   inkscape:deskcolor="#d1d1d1"
   showgrid="false"
   inkscape:zoom="2.7066667"
   inkscape:cx="128.3867"
   inkscape:cy="52.647783"
   inkscape:window-width="1241"
   inkscape:window-height="612"
   inkscape:window-x="0"
   inkscape:window-y="0"
   inkscape:window-maximized="1"
   inkscape:current-layer="g81" />
<style
   type="text/css"
   id="style2">
	.st0{fill:#FED96C;}
	.st1{fill:#020305;}
	.st2{fill:#FFFFFF;}
	.st3{display:none;opacity:0.5;}
	.st4{display:inline;fill:url(#SVGID_1_);}
	.st5{display:none;}
	.st6{display:inline;fill:url(#SVGID_2_);}
	.st7{display:inline;fill:#FFFFFF;}
</style>
<g
   id="g81"
   transform="translate(-8.97,-22.96)">
	<path
   class="st0"
   d="m 259.74,93.14 c 0,5.05 -4.1,9.15 -9.15,9.15 H 18.12 c -5.05,0 -9.15,-4.1 -9.15,-9.15 V 32.11 c 0,-5.05 4.1,-9.15 9.15,-9.15 h 232.47 c 5.05,0 9.15,4.1 9.15,9.15 z"
   id="path4" />
	<g
   id="g10">
		<path
   class="st1"
   d="M 99.83,92.4 H 67.79 v -3.24 c 0.94,-0.08 2.11,-0.22 3.48,-0.42 1.38,-0.19 2.31,-0.4 2.81,-0.62 1.03,-0.42 1.77,-0.99 2.22,-1.71 0.44,-0.72 0.67,-1.64 0.67,-2.74 V 39.6 L 56.65,91.47 h -5.24 c -0.25,-0.91 -0.87,-2.73 -1.85,-5.44 -0.99,-2.72 -1.78,-4.9 -2.4,-6.54 L 32.23,38.94 v 35.88 c 0,3.43 0.22,6.05 0.68,7.84 0.45,1.78 1.2,3.09 2.22,3.92 0.69,0.58 1.93,1.14 3.71,1.66 1.79,0.52 3.03,0.83 3.75,0.91 v 3.24 H 17.13 v -3.24 c 0.69,-0.08 1.83,-0.27 3.4,-0.56 1.58,-0.29 2.86,-0.8 3.86,-1.52 1.12,-0.77 1.86,-2.08 2.25,-3.92 0.39,-1.85 0.58,-4.47 0.58,-7.88 V 46.05 C 27.22,44.27 27,42.8 26.55,41.62 26.1,40.44 25.43,39.5 24.55,38.82 23.44,37.96 22.3,37.4 21.14,37.15 19.97,36.91 18.79,36.74 17.6,36.66 V 33.42 H 44.91 L 59.39,72.27 71.74,40.72 c 0.42,-1.16 0.82,-2.54 1.2,-4.15 0.39,-1.6 0.6,-2.65 0.63,-3.15 h 26.16 v 3.24 c -0.89,0.05 -1.82,0.16 -2.79,0.33 -0.97,0.16 -1.91,0.39 -2.79,0.67 -1.08,0.36 -1.8,0.93 -2.14,1.71 -0.35,0.77 -0.52,1.63 -0.52,2.57 v 41.78 c 0,1 0.17,1.84 0.52,2.52 0.34,0.68 1.06,1.26 2.15,1.77 0.56,0.25 1.47,0.48 2.73,0.7 1.26,0.23 2.24,0.38 2.93,0.46 v 3.23 z"
   id="path6" />
		<path
   class="st1"
   d="m 138.16,82.46 c -0.97,1.58 -2.14,3.06 -3.52,4.46 -1.37,1.4 -2.93,2.59 -4.68,3.58 -1.86,1.05 -3.74,1.85 -5.64,2.39 -1.9,0.53 -4.08,0.8 -6.55,0.8 -4.1,0 -7.65,-0.58 -10.63,-1.75 -2.98,-1.16 -5.44,-2.73 -7.38,-4.7 -1.94,-1.97 -3.39,-4.29 -4.35,-6.97 -0.96,-2.68 -1.43,-5.58 -1.43,-8.72 0,-2.83 0.52,-5.54 1.56,-8.14 1.04,-2.59 2.52,-4.9 4.43,-6.92 1.88,-1.97 4.26,-3.56 7.13,-4.78 2.88,-1.22 6.08,-1.83 9.64,-1.83 3.88,0 7.07,0.47 9.57,1.42 2.49,0.94 4.56,2.24 6.19,3.91 1.58,1.58 2.73,3.44 3.46,5.59 0.72,2.15 1.08,4.4 1.08,6.76 v 2.7 H 108.9 c 0,5.68 1.1,10.01 3.29,12.97 2.19,2.97 5.68,4.45 10.45,4.45 2.61,0 4.96,-0.71 7.04,-2.13 2.08,-1.42 3.85,-3.21 5.33,-5.38 z M 122.33,66.58 c 0,-1.67 -0.08,-3.37 -0.26,-5.12 -0.17,-1.75 -0.46,-3.17 -0.88,-4.28 -0.47,-1.31 -1.12,-2.29 -1.95,-2.95 -0.83,-0.67 -1.87,-1 -3.12,-1 -2.15,0 -3.86,1.09 -5.14,3.25 -1.29,2.16 -1.98,5.59 -2.09,10.27 z"
   id="path8" />
	</g>
	<g
   id="TV_BOX_2_">
		<path
   class="st1"
   d="m 251.7,89.3 c 0,3.37 -2.73,6.1 -6.1,6.1 h -96.96 c -3.37,0 -6.1,-2.73 -6.1,-6.1 V 36.67 c 0,-3.37 2.73,-6.1 6.1,-6.1 h 96.96 c 3.37,0 6.1,2.73 6.1,6.1 z"
   id="path12" />
	</g>
	<g
   id="TV_2_">
		<path
   class="st2"
   d="m 149.79,39.23 c 0,2.11 0,9.2 0,11.32 2.68,0 14.29,0 14.29,0 0,0 0,31.22 0,34.29 2.35,0 13.01,0 15.35,0 0,-3.07 0,-34.29 0,-34.29 0,0 11.27,0 13.96,0 0,-2.11 0,-9.2 0,-11.32 -3.01,0 -40.59,0 -43.6,0 z"
   id="path15" />
		<polygon
   class="st2"
   points="211.57,39.23 194.83,39.23 212.56,84.83 228.83,84.83 246.39,39.23 229.62,39.23 220.91,68.85 "
   id="polygon17" />
	</g>
	<g
   class="st3"
   id="g27">
		<linearGradient
   id="SVGID_1_"
   gradientUnits="userSpaceOnUse"
   x1="134.41451"
   y1="65.7136"
   x2="133.94051"
   y2="42.8978">
			<stop
   offset="0"
   style="stop-color:#F7FBFF;stop-opacity:0.4"
   id="stop20" />
			<stop
   offset="1"
   style="stop-color:#FFFFFF;stop-opacity:0.1"
   id="stop22" />
		</linearGradient>
		<path
   class="st4"
   d="m 256.64,25.71 c -1.73,-1.48 -4.03,-2.36 -6.47,-2.36 H 18.05 C 13,23.35 8.9,27.45 8.9,32.5 V 86.64 C 109.6,40.38 259.66,63.28 259.66,63.28 V 32.5 c 0.01,-2.7 -1.17,-5.12 -3.02,-6.79 z"
   id="path25"
   style="fill:url(#SVGID_1_)" />
	</g>
	<g
   class="st5"
   id="g38">
		<linearGradient
   id="SVGID_2_"
   gradientUnits="userSpaceOnUse"
   x1="134.46069"
   y1="23.3916"
   x2="134.46069"
   y2="33.300301">
			<stop
   offset="0"
   style="stop-color:#F7FBFF;stop-opacity:0.6"
   id="stop29" />
			<stop
   offset="0.6732"
   style="stop-color:#FFFFFF;stop-opacity:0.0338"
   id="stop31" />
			<stop
   offset="1"
   style="stop-color:#FFFFFF;stop-opacity:0"
   id="stop33" />
		</linearGradient>
		<path
   class="st6"
   d="m 259.87,33.3 h -0.4 c 0,-5.33 -4.78,-8.22 -10.18,-8.22 L 17.8,24.92 c -5.16,0 -8.24,5.23 -8.24,7.21 h -0.5 c 0,-3.26 3.02,-8.74 8.91,-8.74 h 232.45 c 5.23,0 9.45,3.41 9.45,9.91 z"
   id="path36"
   style="fill:url(#SVGID_2_)" />
	</g>
	<g
   class="st5"
   id="g42">
		<path
   class="st7"
   d="m 264.46,34.28 c -0.42,0.43 -0.94,0.64 -1.54,0.64 -0.6,0 -1.11,-0.21 -1.54,-0.64 -0.42,-0.42 -0.63,-0.94 -0.63,-1.54 0,-0.6 0.21,-1.11 0.64,-1.53 0.42,-0.42 0.93,-0.63 1.53,-0.63 0.6,0 1.12,0.21 1.54,0.63 0.42,0.42 0.64,0.93 0.64,1.53 0,0.6 -0.22,1.11 -0.64,1.54 z m -2.86,-2.86 c -0.36,0.37 -0.54,0.81 -0.54,1.32 0,0.52 0.18,0.96 0.54,1.33 0.36,0.37 0.8,0.55 1.32,0.55 0.52,0 0.96,-0.18 1.32,-0.55 0.36,-0.37 0.54,-0.81 0.54,-1.33 0,-0.52 -0.18,-0.96 -0.54,-1.32 -0.37,-0.37 -0.81,-0.55 -1.32,-0.55 -0.51,0 -0.95,0.18 -1.32,0.55 z m 1.28,0.12 c 0.3,0 0.51,0.03 0.65,0.09 0.25,0.1 0.37,0.3 0.37,0.6 0,0.21 -0.08,0.37 -0.23,0.47 -0.08,0.05 -0.2,0.09 -0.34,0.12 0.19,0.03 0.32,0.11 0.41,0.23 0.09,0.13 0.13,0.25 0.13,0.37 v 0.17 c 0,0.06 0,0.11 0.01,0.18 0,0.06 0.01,0.1 0.02,0.12 l 0.01,0.03 h -0.39 c 0,-0.01 0,-0.02 -0.01,-0.02 0,-0.01 0,-0.02 -0.01,-0.03 l -0.01,-0.08 V 33.6 c 0,-0.28 -0.07,-0.46 -0.22,-0.55 -0.09,-0.05 -0.24,-0.08 -0.47,-0.08 h -0.33 v 0.94 h -0.42 v -2.39 h 0.83 z m 0.45,0.38 c -0.11,-0.06 -0.28,-0.09 -0.51,-0.09 h -0.36 v 0.86 h 0.38 c 0.18,0 0.31,-0.02 0.4,-0.05 0.16,-0.07 0.25,-0.19 0.25,-0.37 0,-0.18 -0.05,-0.3 -0.16,-0.35 z"
   id="path40" />
	</g>
	<g
   id="Single_line__x28_2022_x29_"
   style="fill:#000000">
		<g
   id="g78"
   style="fill:#000000">
			<path
   class="st2"
   d="m 10.78,109.11 h 4.25 l 3.93,7.21 H 19 v -7.21 h 3.93 v 13.48 h -4.04 l -4.13,-7.36 h -0.04 v 7.36 h -3.93 v -13.48 z"
   id="path44"
   style="fill:#000000" />
			<path
   class="st2"
   d="m 25.1,109.11 h 11.16 v 3.46 h -7 v 1.68 h 6.36 v 3.21 h -6.36 v 1.68 h 7.21 v 3.46 H 25.1 Z"
   id="path46"
   style="fill:#000000" />
			<path
   class="st2"
   d="m 51.86,122.59 h -4.04 l -1.45,-8.21 h -0.04 l -1.42,8.21 h -4.06 l -3.66,-13.48 h 4.08 l 1.64,8.33 h 0.04 l 1.62,-8.33 h 3.66 l 1.59,8.44 h 0.04 l 1.68,-8.44 h 4.1 z"
   id="path48"
   style="fill:#000000" />
			<path
   class="st2"
   d="m 72.3,117.74 c 0,3.72 -1.68,5.17 -5.06,5.17 -3.42,0 -4.95,-1.91 -4.95,-4.85 v -1.13 h 3.74 v 0.77 c 0,1.04 0,2 1.11,2 1.08,0 1,-1.3 1,-1.91 v -8.68 h 4.15 v 8.63 z"
   id="path50"
   style="fill:#000000" />
			<path
   class="st2"
   d="M 74.44,109.11 H 85.6 v 3.46 h -7 v 1.68 h 6.36 v 3.21 H 78.6 v 1.68 h 7.21 v 3.46 H 74.44 Z"
   id="path52"
   style="fill:#000000" />
			<path
   class="st2"
   d="m 87.73,109.11 h 7.91 c 2.36,0 4.4,1.3 4.4,3.85 0,1.4 -0.64,2.87 -2.02,3.38 1.13,0.43 1.83,1.68 1.98,3.36 0.06,0.66 0.08,2.27 0.45,2.89 H 96.3 c -0.21,-0.68 -0.28,-1.38 -0.34,-2.08 -0.11,-1.29 -0.23,-2.63 -1.87,-2.63 h -2.21 v 4.7 h -4.15 z m 4.16,5.89 h 2.17 c 0.77,0 1.83,-0.13 1.83,-1.34 0,-0.85 -0.47,-1.34 -2.06,-1.34 h -1.94 z"
   id="path54"
   style="fill:#000000" />
			<path
   class="st2"
   d="m 105.03,118.06 c 0,0.34 0.06,0.64 0.15,0.89 0.3,0.81 1.21,0.98 1.98,0.98 0.68,0 1.72,-0.23 1.72,-1.23 0,-0.7 -0.59,-0.89 -2.91,-1.55 -2.13,-0.6 -4.57,-1.19 -4.57,-3.91 0,-3.11 2.66,-4.46 5.44,-4.46 2.93,0 5.51,1.11 5.63,4.4 h -3.93 c 0.08,-0.51 -0.15,-0.85 -0.49,-1.08 -0.34,-0.25 -0.81,-0.34 -1.23,-0.34 -0.57,0 -1.49,0.15 -1.49,0.91 0.08,0.96 2,1.17 3.91,1.7 1.91,0.53 3.79,1.42 3.79,3.89 0,3.51 -3.23,4.64 -6.23,4.64 -1.53,0 -5.89,-0.55 -5.93,-4.85 h 4.16 z"
   id="path56"
   style="fill:#000000" />
			<path
   class="st2"
   d="m 114.33,109.11 h 11.16 v 3.46 h -7 v 1.68 h 6.36 v 3.21 h -6.36 v 1.68 h 7.21 v 3.46 h -11.36 v -13.49 z"
   id="path58"
   style="fill:#000000" />
			<path
   class="st2"
   d="m 130.72,117.62 -4.74,-8.51 h 4.59 l 2.25,4.97 2.34,-4.97 h 4.55 l -4.83,8.51 v 4.96 h -4.15 v -4.96 z"
   id="path60"
   style="fill:#000000" />
			<path
   class="st2"
   d="m 143.9,106.25 h 1.44 v 20.79 h -1.44 z"
   id="path62"
   style="fill:#000000" />
			<path
   class="st2"
   d="m 151.18,109.11 h 4.25 l 3.93,7.21 h 0.04 v -7.21 h 3.93 v 13.48 h -4.04 l -4.13,-7.36 h -0.04 v 7.36 h -3.93 v -13.48 z"
   id="path64"
   style="fill:#000000" />
			<path
   class="st2"
   d="m 165.5,109.11 h 11.16 v 3.46 h -7 v 1.68 h 6.36 v 3.21 h -6.36 v 1.68 h 7.21 v 3.46 H 165.5 Z"
   id="path66"
   style="fill:#000000" />
			<path
   class="st2"
   d="m 192.26,122.59 h -4.04 l -1.45,-8.21 h -0.04 l -1.42,8.21 h -4.06 l -3.66,-13.48 h 4.08 l 1.64,8.33 h 0.04 l 1.62,-8.33 h 3.66 l 1.59,8.44 h 0.04 l 1.68,-8.44 h 4.09 z"
   id="path68"
   style="fill:#000000" />
			<path
   class="st2"
   d="m 206.39,117.62 -4.74,-8.51 h 4.59 l 2.25,4.97 2.34,-4.97 h 4.55 l -4.83,8.51 v 4.96 h -4.15 v -4.96 z"
   id="path70"
   style="fill:#000000" />
			<path
   class="st2"
   d="m 221.2,108.79 c 4.1,0 6.83,2.95 6.83,7.06 0,4.12 -2.74,7.06 -6.83,7.06 -4.09,0 -6.83,-2.95 -6.83,-7.06 -0.01,-4.12 2.73,-7.06 6.83,-7.06 z m 0,10.76 c 1.06,0 2.68,-0.7 2.68,-3.7 0,-3 -1.62,-3.7 -2.68,-3.7 -1.06,0 -2.68,0.7 -2.68,3.7 0,3 1.62,3.7 2.68,3.7 z"
   id="path72"
   style="fill:#000000" />
			<path
   class="st2"
   d="m 229.79,109.11 h 7.91 c 2.36,0 4.4,1.3 4.4,3.85 0,1.4 -0.64,2.87 -2.02,3.38 1.13,0.43 1.83,1.68 1.98,3.36 0.06,0.66 0.08,2.27 0.45,2.89 h -4.15 c -0.21,-0.68 -0.28,-1.38 -0.34,-2.08 -0.11,-1.29 -0.23,-2.63 -1.87,-2.63 h -2.21 v 4.7 h -4.15 z m 4.16,5.89 h 2.17 c 0.78,0 1.83,-0.13 1.83,-1.34 0,-0.85 -0.47,-1.34 -2.06,-1.34 h -1.94 z"
   id="path74"
   style="fill:#000000" />
			<path
   class="st2"
   d="m 243.91,109.11 h 4.15 v 4.64 h 0.04 l 3.7,-4.64 h 5.11 l -4.89,5.27 5.68,8.21 h -5.17 l -3.32,-5.25 -1.15,1.26 v 3.98 h -4.15 z"
   id="path76"
   style="fill:#000000" />
		</g>
	</g>
</g>
</svg>
