<?xml version="1.0" encoding="UTF-8" standalone="no"?>
<svg
   id="CW_Logo"
   viewBox="0 0 1723.3132 552.96052"
   version="1.1"
   xml:space="preserve"
   width="1723.3132"
   height="552.96051"
   xmlns="http://www.w3.org/2000/svg"
   xmlns:svg="http://www.w3.org/2000/svg"><defs
     id="defs1"><style
       id="style1">.cls-1{fill:#000C0D;}</style></defs><path
     class="cls-1"
     d="m 860.82,104.2291 v 248.37 c 0,22.67 -10.4,49.14 -39.7,49.14 -29.3,0 -40.43,-26.47 -40.43,-49.14 v -248.37 H 641.51 v 248.37 c 0,22.67 -10.58,49.14 -40.41,49.14 -29.83,0 -39.73,-26.47 -39.73,-49.14 v -248.37 H 422.2 v 220.5 c -0.66,42.45 -31.23,77.89 -68.2,79.12 H 209.37 c -38.73,-0.01 -70.23,-35.84 -70.23,-79.89 0,-44.05 31.51,-80.56 70.23,-80.56 h 136 v -139.17 h -136 c -115.44,0 -209.37,98.57 -209.37,219.72 0,121.15 93.93,218.99 209.37,218.99 H 349 c 46.75,0 93.83,-18.97 129.74,-49.94 34.15,34 71.45,49.94 116.31,49.94 44.86,0 82.02,-15.85 116.05,-49.65 34.02,33.8 71.26,49.65 116.04,49.65 96.93,0 172.86,-79.76 172.86,-181.59 v -257.12 z"
     id="path1"
     style="fill:#ff4500;fill-opacity:1" /><g
     id="g2"
     style="fill:#002023;fill-opacity:1"
     transform="translate(0,104.2291)"><path
       style="font-weight:800;font-size:754.38px;line-height:1;font-family:'F37 Bolton';-inkscape-font-specification:'F37 Bolton Ultra-Bold';text-align:end;letter-spacing:-19.6454px;word-spacing:39.2906px;text-anchor:end;fill:#002023;fill-opacity:1;stroke-width:4.42805;paint-order:markers fill stroke"
       d="m 1521.8937,448.73144 q -62.6135,0 -108.6307,-20.36826 -45.2628,-20.36826 -69.4029,-56.5785 -24.1402,-36.21024 -24.1402,-82.9818 0,-48.28032 24.8945,-82.9818 25.649,-34.70148 62.6136,-50.54346 v -3.01752 q -29.4208,-14.33322 -49.0347,-41.4909 -19.6139,-27.91206 -19.6139,-69.40296 0,-42.24528041 21.1226,-74.683621 21.8771,-33.19272 63.368,-52.05222 41.4909,-18.859499 98.8237,-18.859499 57.3329,0 98.8238,18.859499 41.4909,18.8595 62.6136,52.05222 21.877,32.43834059 21.877,74.683621 0,41.4909 -19.6139,69.40296 -19.6139,27.15768 -49.7891,41.4909 v 3.01752 q 36.9646,15.84198 61.8592,50.54346 25.6489,33.9471 25.6489,82.9818 0,46.77156 -24.1402,82.9818 -24.1401,36.21024 -69.4029,56.5785 -45.2628,20.36826 -107.8764,20.36826 z m 0,-329.66406 q 25.649,0 40.7366,-18.10512 15.8419,-18.8595 15.8419,-46.01718 0,-27.15768 -15.8419,-44.50842 -15.0876,-17.3507404 -40.7366,-17.3507404 -26.4033,0 -42.2452,17.3507404 -15.0876,16.59636 -15.0876,44.50842 0,27.15768 15.0876,46.01718 15.8419,18.10512 42.2452,18.10512 z m 0,232.34904 q 34.7015,0 53.561,-20.36826 18.8595,-20.36826 18.8595,-55.82412 0,-36.21024 -19.6139,-58.84164 -18.8595,-22.6314 -52.8066,-22.6314 -34.7014,0 -54.3153,22.6314 -18.8595,22.6314 -18.8595,58.84164 0,36.21024 18.8595,56.5785 19.6139,19.61388 54.3153,19.61388 z"
       id="path2" /><path
       style="font-weight:800;font-size:754.38px;line-height:1;font-family:'F37 Bolton';-inkscape-font-specification:'F37 Bolton Ultra-Bold';text-align:end;letter-spacing:-19.6454px;word-spacing:39.2906px;text-anchor:end;fill:#002023;fill-opacity:1;stroke-width:4.42805;paint-order:markers fill stroke"
       d="M 1161.3385,94.92722 H 1028.5677 V -0.1246604 q 63.3679,0 102.5956,-20.3682606 39.9822,-20.36826 51.2979,-71.6661 h 110.1395 V 435.90698 h -131.2622 z"
       id="text1" /></g></svg>
