<?xml version="1.0" encoding="UTF-8" standalone="no"?>
<svg
   xmlns:dc="http://purl.org/dc/elements/1.1/"
   xmlns:cc="http://creativecommons.org/ns#"
   xmlns:rdf="http://www.w3.org/1999/02/22-rdf-syntax-ns#"
   xmlns:svg="http://www.w3.org/2000/svg"
   xmlns="http://www.w3.org/2000/svg"
   viewBox="0 0 464 230"
   height="230"
   width="464"
   xml:space="preserve"
   id="svg2"
   version="1.1"><metadata
     id="metadata8"><rdf:RDF><cc:Work
         rdf:about=""><dc:format>image/svg+xml</dc:format><dc:type
           rdf:resource="http://purl.org/dc/dcmitype/StillImage" /><dc:title></dc:title></cc:Work></rdf:RDF></metadata><defs
     id="defs6" /><g
     transform="matrix(1.3333333,0,0,-1.3333333,0,230)"
     id="g10"><g
       transform="matrix(0.1,0,0,0.1,1.5,1.5)"
       id="g12"><path
         id="path14"
         style="fill:#005eb8;fill-opacity:1;fill-rule:nonzero;stroke:none"
         d="M 3029.47,1238.16 V 18.1953 H 2859.6 V 1409.56 h 589.28 v -171.4 h -419.41" /><path
         id="path16"
         style="fill:#005eb8;fill-opacity:1;fill-rule:nonzero;stroke:none"
         d="m 1414.41,1275 c -96.35,-126.87 -123.48,-271.35 -123.48,-432.781 0,-142.141 34.17,-310.305 146.08,-447.403 117.92,-144.523 295.63,-229.855 551.29,-229.855 196.51,0 367.35,59.648 456.06,94.727 0,-24.559 0,-128.067 0,-164.9302 C 2409.99,80.7148 2236.73,0 1976.13,0 1791.94,0 1637.99,45.7422 1504.65,120.762 1361.74,201.172 1280.55,308.195 1231.8,386.035 1136.15,538.672 1052.68,679.043 946.598,800.078 840.52,921.156 711.063,997.184 608.461,1027.01 c -16.52,3.52 -40.102,10.78 -40.102,10.78 0,0 28.012,9.26 45,15 120.829,40.83 246.696,154.1 337.118,287.46 90.433,133.35 124.813,237.73 159.593,355.3 39.99,0 140.86,0 187.81,0 -15.64,-88.89 -50.02,-216.68 -124.79,-344.78 -74.79,-128.08 -191.977,-261.79 -217.961,-288.02 -9.961,-10.05 -25.047,-21.26 -25.047,-21.26 0,0 9.371,-6.41 28.488,-22.43 32.082,-26.888 106.23,-97.708 163.67,-155.783 0,41.567 -3.48,96.493 27.82,230.533 30.4,130.11 113.05,273.03 227.83,385.32 94.46,92.42 300.84,216.42 589.54,216.42 288.68,0 1481.45,0 1481.45,0 v -162.19 c 0,0 -1083.2,0 -1443.2,0 -325.2,0 -497.22,-134.52 -591.27,-258.36" /><path
         id="path18"
         style="fill:#005eb8;fill-opacity:1;fill-rule:nonzero;stroke:none"
         d="m 292.566,1091.38 v 604.17 h 160.442 c 0,0 0,-344.19 0,-395.38 66.387,8.77 160.097,61.13 222.695,143.6 53.36,70.27 93.508,165.8 114.375,251.78 0,0 153.043,0 191.301,0 C 953.555,1611.93 936.055,1482.18 776.57,1292.87 628.754,1117.42 435.172,1091.38 292.566,1091.38" /><path
         id="path20"
         style="fill:#005eb8;fill-opacity:1;fill-rule:nonzero;stroke:none"
         d="M 0,1695.55 H 169.871 V 18.1953 H 0 V 1695.55" /><path
         id="path22"
         style="fill:#005eb8;fill-opacity:1;fill-rule:nonzero;stroke:none"
         d="M 666.605,866.777 C 800.512,782.539 915.289,666.75 990.066,561.496 1064.85,456.211 1127.03,328.527 1193.55,243.887 c 64.45,-82 181.05,-183.1643 266.07,-225.6917 -90.44,0 -203.47,0 -269.56,0 C 1103.11,77.8438 1035.29,159.68 981.379,240.402 927.473,321.094 861.387,477.285 729.215,596.574 597.047,715.918 521.133,761.504 453.008,772.023 c 0,-58.214 0,-753.8277 0,-753.8277 H 292.566 c 0,0 0,917.0037 0,971.4067 90.426,0 240.129,-38.602 374.039,-122.825" /><path
         id="path24"
         style="fill:#005eb8;fill-opacity:1;fill-rule:nonzero;stroke:none"
         d="m 2002.21,428.145 c 210.43,0 341.29,59.648 442.15,112.277 0,-33.332 0,-140.371 0,-170.207 -39.59,-19.285 -191.73,-99.969 -445.63,-99.969 -253.89,0 -386.07,105.254 -457.37,191.211 -68.77,82.949 -118.26,205.293 -126.95,338.621 60.86,0 822.32,0 822.32,0 0,0 0,-146.824 0,-171.375 -28.1,0 -523.21,0 -589.29,0 40,-127.57 144.35,-200.558 354.77,-200.558" /><path
         id="path26"
         style="fill:#005eb8;fill-opacity:1;fill-rule:nonzero;stroke:none"
         d="m 1730.91,1179.1 c -48.69,-33.34 -78.26,-75.84 -88.68,-102.83 46.95,0 594.5,0 594.5,0 V 904.844 c 0,0 -745.8,0 -818.85,0 0,112.306 33.04,243.226 121.75,333.316 88.67,90.07 224.32,171.4 441.71,171.4 217.39,0 746.14,0 746.14,0 V 18.1953 H 2557.6 V 1238.16 c 0,0 -480.61,0 -605.83,0 -125.21,0 -172.17,-25.72 -220.86,-59.06" /></g></g></svg>
