<?xml version="1.0" encoding="utf-8"?>
<!-- Generator: Adobe Illustrator 25.4.1, SVG Export Plug-In . SVG Version: 6.00 Build 0)  -->
<svg version="1.1" id="Layer_1" xmlns="http://www.w3.org/2000/svg" xmlns:xlink="http://www.w3.org/1999/xlink" x="0px" y="0px"
	 viewBox="0 0 1131 771" style="enable-background:new 0 0 1131 771;" xml:space="preserve">
<style type="text/css">
	.st0{fill:url(#SVGID_1_);}
	.st1{fill:url(#SVGID_00000121962825029651425480000003640279744738868671_);}
	.st2{fill:url(#SVGID_00000090277605114110599650000017497926364923378327_);}
	.st3{fill:url(#SVGID_00000080893754959030892950000017670681821329945995_);}
	.st4{fill:url(#SVGID_00000057109464378645369380000007275387006143066505_);}
	.st5{fill:url(#SVGID_00000142854387106059696460000006703157614139366789_);}
	.st6{fill:url(#SVGID_00000138548609261405164590000007016695517295759802_);}
	.st7{fill:url(#SVGID_00000178190530450790510640000001784534206336203924_);}
	.st8{fill:url(#SVGID_00000034803739200007982720000014940728882564421541_);}
	.st9{fill:url(#SVGID_00000116234117761272576270000001962341740824381104_);}
	.st10{fill:url(#SVGID_00000127728583363437160610000010118416380523005337_);}
	.st11{fill:url(#SVGID_00000167356517736839703280000014687334316957640076_);}
	.st12{fill:url(#SVGID_00000169524030709386442770000017569436438520972711_);}
	.st13{fill:url(#SVGID_00000034063977289223760480000006246203317083594129_);}
	.st14{fill:url(#SVGID_00000180335371909149699820000000464829551560464552_);}
	.st15{fill:url(#SVGID_00000142883702275482720280000007298013545289985412_);}
	.st16{fill:url(#SVGID_00000032623632168341979330000010225436471778451629_);}
	.st17{fill:url(#SVGID_00000004532666559009515670000014871962965266732936_);}
	.st18{fill:url(#SVGID_00000117655855882223733430000017914744798851083433_);}
	.st19{fill:url(#SVGID_00000126300756769150083180000000882599270381602962_);}
	.st20{fill:url(#SVGID_00000160872363187371909470000004862712311233376133_);}
	.st21{fill:url(#SVGID_00000039813798590770316290000000644062389843299230_);}
	.st22{fill:url(#SVGID_00000013171110239055524480000003709796885228833201_);}
	.st23{fill:url(#SVGID_00000126308965738595183080000006254270877910840714_);}
	.st24{fill:url(#SVGID_00000037664949149989387740000013001434864778606977_);}
	.st25{fill:url(#SVGID_00000099656319179779974010000009601398546324308661_);}
	.st26{fill:url(#SVGID_00000049928627939734362510000018012969335627156633_);}
	.st27{fill:url(#SVGID_00000040540103554285283800000007982045099537005212_);}
	.st28{fill:url(#SVGID_00000088850191695553695430000014352705439504661637_);}
	.st29{fill:url(#SVGID_00000107578772514966604140000007165753056961922952_);}
	.st30{fill:url(#SVGID_00000062884938532777615700000012703504864347230399_);}
</style>
<linearGradient id="SVGID_1_" gradientUnits="userSpaceOnUse" x1="377.1142" y1="386.4311" x2="1119.0111" y2="386.4311" gradientTransform="matrix(1 0 0 -1 0 772)">
	<stop  offset="0" style="stop-color:#434345"/>
	<stop  offset="0.16" style="stop-color:#D7D8DA"/>
	<stop  offset="0.19" style="stop-color:#BCBDC0"/>
	<stop  offset="0.25" style="stop-color:#939497"/>
	<stop  offset="0.29" style="stop-color:#7A7B7E"/>
	<stop  offset="0.32" style="stop-color:#717275"/>
	<stop  offset="0.34" style="stop-color:#7C7D80"/>
	<stop  offset="0.46" style="stop-color:#C5C7C9"/>
	<stop  offset="0.48" style="stop-color:#BBBDBF"/>
	<stop  offset="0.55" style="stop-color:#939497"/>
	<stop  offset="0.61" style="stop-color:#7A7B7E"/>
	<stop  offset="0.65" style="stop-color:#717275"/>
	<stop  offset="0.7" style="stop-color:#919294"/>
	<stop  offset="0.83" style="stop-color:#DBDCDD"/>
	<stop  offset="0.83" style="stop-color:#D5D6D8"/>
	<stop  offset="0.89" style="stop-color:#9D9E9F"/>
	<stop  offset="0.94" style="stop-color:#737476"/>
	<stop  offset="0.98" style="stop-color:#5A5B5D"/>
	<stop  offset="1" style="stop-color:#515254"/>
</linearGradient>
<path class="st0" d="M1100.7,228.2l2.5-8.9c0,0,9.8-35.7,13.5-53.8c8.5-41.7-7.5-74.8-38.9-100.8c-11.5-9.5-25.1-17.4-38.8-23.3
	c-44.6-19.1-91.5-28.2-140.1-28.8c-72.4-0.8-144.4-0.4-213.6,26.2c-79.7,30.7-139.9,79.8-168.8,163.6C489.4,281,457.9,358,430,436.3
	c-17.8,50.1-34,100.8-48.4,152c-13.8,49.2,4.1,96.9,47.6,123.8c24.2,15,51.8,26.2,79.3,33.7c58.4,15.9,118.7,12.9,178.6,12.3
	c53.8-0.5,105.7-10.5,156.2-28.8c61.5-22.3,106.6-61,128-124.5c4.5-13.5,10.5-26.5,15.1-40c18.9-56.2,42.6-110.9,51.3-170.2
	c7.1-47.6-8.7-79.6-51.6-101.9c-5.9-3.1-12-5.8-18.1-8.3c-40.5-16.5-82.9-19.3-126-17.4c-43.9,1.9-82.1,18-116.5,44.5
	c-3.2,2.5-6.5,4.9-12.9,9.7c1.6-7.4,1.9-11,3.1-14.3c13.8-38.4,27.5-76.9,41.8-115.2c13.7-36.4,44.3-51.4,82.1-41.3
	c18.7,5,26.2,17.3,21.7,36.5c-2.4,10.1-5.7,20-9.2,32.2C932.8,222.2,1100.7,228.2,1100.7,228.2L1100.7,228.2z M776.5,451.6
	c-15.8,48.2-32.5,96.1-50.4,143.6c-12.8,33.9-45.9,49.3-81,40.5c-13.5-3.3-21.1-11.7-19.5-25.5c1.4-12.1,3.8-24.5,8.1-35.9
	c15.3-40.3,31.5-80.3,47.5-120.4c1.9-4.8,4.2-9.5,6.7-14.1c13.1-24.7,26.9-33,54.6-33.1C774.6,406.6,786.5,421,776.5,451.6
	L776.5,451.6z"/>
<linearGradient id="SVGID_00000142148574105906166900000004790906224431420596_" gradientUnits="userSpaceOnUse" x1="390.3082" y1="386.42" x2="1105.8044" y2="386.42" gradientTransform="matrix(1 0 0 -1 0 772)">
	<stop  offset="0" style="stop-color:#858585"/>
	<stop  offset="7.000000e-02" style="stop-color:#A5A5A5"/>
	<stop  offset="0.14" style="stop-color:#C6C6C6"/>
	<stop  offset="0.23" style="stop-color:#DFDFDF"/>
	<stop  offset="0.31" style="stop-color:#F0F0F0"/>
	<stop  offset="0.4" style="stop-color:#FBFBFB"/>
	<stop  offset="0.51" style="stop-color:#FFFFFF"/>
	<stop  offset="0.61" style="stop-color:#FBFBFB"/>
	<stop  offset="0.69" style="stop-color:#F1F1F1"/>
	<stop  offset="0.77" style="stop-color:#E0E0E0"/>
	<stop  offset="0.85" style="stop-color:#C8C8C8"/>
	<stop  offset="0.92" style="stop-color:#A9A9A9"/>
	<stop  offset="0.98" style="stop-color:#848484"/>
	<stop  offset="1" style="stop-color:#7A7A7A"/>
</linearGradient>
<path style="fill:url(#SVGID_00000142148574105906166900000004790906224431420596_);" d="M630.6,745.5c-36.1,0-78.4-1.5-118.6-12.4
	c-27.6-7.5-53.8-18.7-75.8-32.2c-38-23.5-54.1-65.2-41.8-109c14-49.9,30.2-100.8,48.1-151.1c12.5-35.2,26-70.7,39.1-105.1
	c16-42.1,32.5-85.6,47.4-128.9c25.4-73.6,76.5-123,161.1-155.6C745,30,801.4,25.7,869.3,25.7c9.8,0,19.6,0.1,29.5,0.2
	c47.9,0.5,93.3,9.8,135,27.7c13.4,5.8,25.8,13.1,35.6,21.3c30.2,24.9,41.4,53.7,34.4,88c-3.2,15.7-11.3,45.7-13,51.8
	c-34.9-1.3-150.1-5.4-221.3-8.1c1.7-5.6,3.2-11.1,4.5-16.6c6.2-25.9-5.5-45.5-31.1-52.3c-8.8-2.3-17.4-3.5-25.6-3.5
	c-33.3,0-59.6,19.3-72.3,53c-11.2,29.7-22,60-32.5,89.3c-3.1,8.7-6.2,17.4-9.3,26c-1.1,3.1-1.6,6-2.3,9.6c-0.3,1.8-0.7,3.9-1.3,6.5
	l-7.2,34.2l28-21l6-4.4c2.9-2.2,5-3.8,7.1-5.3c34.3-26.4,70-40,109.1-41.8c7.7-0.3,14.8-0.5,21.8-0.5c39,0,70.4,5.4,98.7,16.9
	c6.5,2.7,12.1,5.2,17,7.8c37.6,19.6,50.9,46,44.7,88.3c-6.5,43.7-21.7,86.1-36.4,127.1c-4.8,13.3-9.8,27.1-14.4,40.8
	c-2.2,6.5-4.7,12.8-7.3,19.4c-2.6,6.6-5.4,13.5-7.7,20.5c-18.8,55.8-58.1,93.9-120,116.3c-50,18.1-101,27.5-151.8,28
	c-6.9,0.1-13.8,0.2-20.6,0.3C654.6,745.3,642.5,745.5,630.6,745.5L630.6,745.5z M742.5,393.5c-32.8,0.1-50.8,10.9-66.2,40.1
	c-3.2,6-5.4,10.8-7.3,15.4c-3.5,8.7-7,17.5-10.5,26.2c-12.3,30.9-25.1,62.7-37.1,94.4c-4.2,11.1-7.1,23.8-8.8,39
	c-2.3,19.8,8.7,34.7,29.4,39.8c7.5,1.9,15,2.8,22.3,2.8c33.8,0,62.2-19.7,74.2-51.5c17-45.1,33.6-92.3,50.6-144.1
	c6.2-19,5.3-34.2-2.7-45.3c-8.1-11.2-22.8-16.9-43.6-16.9L742.5,393.5L742.5,393.5z"/>
<linearGradient id="SVGID_00000178900469234460613210000016893821888630016183_" gradientUnits="userSpaceOnUse" x1="762.4881" y1="257.27" x2="762.4881" y2="733.16" gradientTransform="matrix(1 0 0 -1 0 772)">
	<stop  offset="0" style="stop-color:#FFFFFF;stop-opacity:0.25"/>
	<stop  offset="1" style="stop-color:#FFFFFF;stop-opacity:0"/>
</linearGradient>
<path style="fill:url(#SVGID_00000178900469234460613210000016893821888630016183_);" d="M1061,85c-8.9-7.4-20.2-14.1-32.4-19.3
	c-40.1-17.2-83.8-26.2-130-26.6c-9.8-0.1-19.6-0.2-29.3-0.2c-66.4,0-121.5,4.2-174.5,24.6c-80.6,31.1-129.3,78-153.3,147.6
	c-15,43.5-31.5,87-47.6,129.3c-13,34.3-26.5,69.8-39,104.8c-7.9,22.1-15.4,44.2-22.5,66.3c31.9,2.1,64.4,3.2,97.5,3.2
	s67.3-1.2,100-3.4c5.5-13.8,10.9-27.5,16.3-41c0,0,7.1-17.8,10.5-26.2c2-5.1,4.5-10.2,7.9-16.7c17.7-33.4,40.2-47,77.9-47.1h0.2
	c25.3,0,43.6,7.5,54.3,22.4c10.6,14.7,12.1,33.9,4.5,57.1c-3.5,10.5-6.9,20.8-10.3,31c77.8-14.8,149.5-36.1,212.8-62.5
	c3.2-12.4,5.8-24.9,7.7-37.5c5.5-36.8-5.1-57.7-37.7-74.7c-4.6-2.4-9.8-4.7-15.9-7.3c-26.7-10.9-56.5-16-93.7-16
	c-6.7,0-13.7,0.2-21.2,0.5c-36.3,1.6-69.5,14.4-101.6,39c-2.1,1.6-4.3,3.2-7.3,5.5l-5.9,4.4l-56,42l14.4-68.5
	c0.5-2.5,0.9-4.4,1.2-6.2c0.7-3.8,1.4-7.5,2.9-11.6c3.1-8.7,9.5-26.6,9.5-26.6c10.5-29.2,21.3-59.4,32.4-88.9
	c14.5-38.5,46.1-61.5,84.6-61.5c9.4,0,19.1,1.3,29,4c32.4,8.6,48.3,35.4,40.5,68.1c-0.1,0.4-0.2,0.7-0.2,1.1
	c63.1,2.4,149.5,5.5,194.2,7.1c3.1-11.7,7.9-30,10.1-40.9C1096.9,130.7,1087.4,106.8,1061,85L1061,85z"/>
<linearGradient id="SVGID_00000052093502628761878840000003505679688730353817_" gradientUnits="userSpaceOnUse" x1="121.13" y1="595.685" x2="530.11" y2="595.685" gradientTransform="matrix(1 0 0 -1 0 772)">
	<stop  offset="0" style="stop-color:#434345"/>
	<stop  offset="0.16" style="stop-color:#D7D8DA"/>
	<stop  offset="0.19" style="stop-color:#BCBDC0"/>
	<stop  offset="0.25" style="stop-color:#939497"/>
	<stop  offset="0.29" style="stop-color:#7A7B7E"/>
	<stop  offset="0.32" style="stop-color:#717275"/>
	<stop  offset="0.34" style="stop-color:#7C7D80"/>
	<stop  offset="0.46" style="stop-color:#C5C7C9"/>
	<stop  offset="0.48" style="stop-color:#BBBDBF"/>
	<stop  offset="0.55" style="stop-color:#939497"/>
	<stop  offset="0.61" style="stop-color:#7A7B7E"/>
	<stop  offset="0.65" style="stop-color:#717275"/>
	<stop  offset="0.7" style="stop-color:#919294"/>
	<stop  offset="0.83" style="stop-color:#DBDCDD"/>
	<stop  offset="0.83" style="stop-color:#D5D6D8"/>
	<stop  offset="0.89" style="stop-color:#9D9E9F"/>
	<stop  offset="0.94" style="stop-color:#737476"/>
	<stop  offset="0.98" style="stop-color:#5A5B5D"/>
	<stop  offset="1" style="stop-color:#515254"/>
</linearGradient>
<polygon style="fill:url(#SVGID_00000052093502628761878840000003505679688730353817_);" points="384.1,313.8 315.5,105.9 
	260.7,105.9 260.7,313.8 186.6,313.8 186.6,105.9 121.1,105.9 121.1,38.8 370.3,38.8 411.9,176.8 452.8,38.8 530.1,38.8 439,313.8 
	"/>
<linearGradient id="SVGID_00000154389075340393596140000006688094086169023894_" gradientUnits="userSpaceOnUse" x1="125.5" y1="595.685" x2="524.06" y2="595.685" gradientTransform="matrix(1 0 0 -1 0 772)">
	<stop  offset="0" style="stop-color:#858585"/>
	<stop  offset="7.000000e-02" style="stop-color:#A5A5A5"/>
	<stop  offset="0.14" style="stop-color:#C6C6C6"/>
	<stop  offset="0.23" style="stop-color:#DFDFDF"/>
	<stop  offset="0.31" style="stop-color:#F0F0F0"/>
	<stop  offset="0.4" style="stop-color:#FBFBFB"/>
	<stop  offset="0.51" style="stop-color:#FFFFFF"/>
	<stop  offset="0.61" style="stop-color:#FBFBFB"/>
	<stop  offset="0.69" style="stop-color:#F1F1F1"/>
	<stop  offset="0.77" style="stop-color:#E0E0E0"/>
	<stop  offset="0.85" style="stop-color:#C8C8C8"/>
	<stop  offset="0.92" style="stop-color:#A9A9A9"/>
	<stop  offset="0.98" style="stop-color:#848484"/>
	<stop  offset="1" style="stop-color:#7A7A7A"/>
</linearGradient>
<polygon style="fill:url(#SVGID_00000154389075340393596140000006688094086169023894_);" points="456,43.2 411.9,192 367,43.2 
	321.8,43.2 299.4,43.2 125.5,43.2 125.5,101.5 190.9,101.5 190.9,309.4 256.4,309.4 256.4,101.5 318.6,101.5 387.2,309.4 
	435.8,309.4 524.1,43.2 "/>
<linearGradient id="SVGID_00000138546006603626661490000018421335454052307859_" gradientUnits="userSpaceOnUse" x1="-59.84" y1="232.2271" x2="763.33" y2="232.2271" gradientTransform="matrix(1 0 0 -1 0 772)">
	<stop  offset="0" style="stop-color:#336633"/>
	<stop  offset="2.000000e-02" style="stop-color:#336C38"/>
	<stop  offset="0.13" style="stop-color:#338550"/>
	<stop  offset="0.25" style="stop-color:#339661"/>
	<stop  offset="0.37" style="stop-color:#33A16B"/>
	<stop  offset="0.51" style="stop-color:#34A56F"/>
	<stop  offset="0.65" style="stop-color:#33A16B"/>
	<stop  offset="0.76" style="stop-color:#339762"/>
	<stop  offset="0.87" style="stop-color:#338652"/>
	<stop  offset="0.97" style="stop-color:#336E3B"/>
	<stop  offset="1" style="stop-color:#336633"/>
</linearGradient>
<path style="fill:url(#SVGID_00000138546006603626661490000018421335454052307859_);" d="M618.5,537c-0.3,0.3-0.8-0.2-1.1,0.4
	s-0.5,1.7-0.5,2.2s-0.7,1.2,0.2,1.7c0.9,0.4,1.3,1,2.5,1.2c1.2,0.1,1.9,0.1,2.4-0.5c0.4-0.6-0.1-1.1-0.6-1.7
	c-0.5-0.6-0.6-0.9-1.4-1.6C619.1,538,618.8,536.8,618.5,537L618.5,537z"/>
<linearGradient id="SVGID_00000070805535730407433570000004626763840049604265_" gradientUnits="userSpaceOnUse" x1="-59.84" y1="217.7059" x2="763.33" y2="217.7059" gradientTransform="matrix(1 0 0 -1 0 772)">
	<stop  offset="0" style="stop-color:#336633"/>
	<stop  offset="2.000000e-02" style="stop-color:#336C38"/>
	<stop  offset="0.13" style="stop-color:#338550"/>
	<stop  offset="0.25" style="stop-color:#339661"/>
	<stop  offset="0.37" style="stop-color:#33A16B"/>
	<stop  offset="0.51" style="stop-color:#34A56F"/>
	<stop  offset="0.65" style="stop-color:#33A16B"/>
	<stop  offset="0.76" style="stop-color:#339762"/>
	<stop  offset="0.87" style="stop-color:#338652"/>
	<stop  offset="0.97" style="stop-color:#336E3B"/>
	<stop  offset="1" style="stop-color:#336633"/>
</linearGradient>
<path style="fill:url(#SVGID_00000070805535730407433570000004626763840049604265_);" d="M631,548c-0.9,0.1-1.2-0.1-1.8-0.4
	c-0.7-0.2-0.8,0.2-1.5,0.4c-0.7,0.2-1.1,0.2-1.9-0.2c-0.8-0.4-1.2-1-1.7-0.4c-0.4,0.6,0.1,2.7,1,3c0.9,0.2,1.4-0.1,1.7,0.4
	s-0.1,1.7,0.4,2.2s0.8,0.3,1.1,0.1c0.3-0.1,0.9,1.4,1.5,2.2s2.1,2.2,2.8,3.1c0.7,0.9,1.5,2,2.5,2.1c0.9,0.1,1.7-0.2,2.6-0.1
	c0.9,0.1,1.5,0.1,2.5,0.4c0.9,0.2,1.1,0.9,1.6,1.1c0.5,0.1,0.7-0.1,1.7-0.2c1.1-0.1,1.4,0.2,1.4-0.5s0.2-1.6,0.8-1.9
	c0.6-0.4,1.2-0.9,1.4-1.2c0.2-0.2-0.1-0.7,0.3-1.4s0.7-0.9,1.2-1.4c0.6-0.6,0.9-1,0.3-1.4s-0.9-0.4-1.5-0.4s-0.7-0.5-1.3-0.9
	c-0.7-0.4-0.6-0.6-1.2-0.6s-1.2-0.2-1.8-1.1c-0.6-0.9-0.9-1.5-1.2-1.9c-0.2-0.4-0.9-0.4-1.2,0.4s-1,0.8-1.9,1
	c-0.9,0.2-2.2-0.4-3-0.7c-0.9-0.3-1.3-0.6-1.7-0.8s-0.5-1-0.9-1.4c-0.4-0.4-1.2-0.6-1.6-0.2C631.2,547.4,631,548,631,548L631,548z"
	/>
<linearGradient id="SVGID_00000057120947862965998380000013423238896201403022_" gradientUnits="userSpaceOnUse" x1="-59.84" y1="247.9474" x2="763.33" y2="247.9474" gradientTransform="matrix(1 0 0 -1 0 772)">
	<stop  offset="0" style="stop-color:#336633"/>
	<stop  offset="2.000000e-02" style="stop-color:#336C38"/>
	<stop  offset="0.13" style="stop-color:#338550"/>
	<stop  offset="0.25" style="stop-color:#339661"/>
	<stop  offset="0.37" style="stop-color:#33A16B"/>
	<stop  offset="0.51" style="stop-color:#34A56F"/>
	<stop  offset="0.65" style="stop-color:#33A16B"/>
	<stop  offset="0.76" style="stop-color:#339762"/>
	<stop  offset="0.87" style="stop-color:#338652"/>
	<stop  offset="0.97" style="stop-color:#336E3B"/>
	<stop  offset="1" style="stop-color:#336633"/>
</linearGradient>
<path style="fill:url(#SVGID_00000057120947862965998380000013423238896201403022_);" d="M618.6,525.9c0,0-0.5-0.7-0.7-1.5
	s-0.6-1.5-0.3-1.8c0.3-0.3,0.9-0.5,1.6-0.1c0.7,0.4,1.2,0.6,1.2,1.4c-0.1,0.8-0.1,1.4-0.7,1.7C619.3,525.8,618.6,525.9,618.6,525.9
	L618.6,525.9z"/>
<linearGradient id="SVGID_00000054252852561534315250000002319181226615750551_" gradientUnits="userSpaceOnUse" x1="-59.84" y1="247.249" x2="763.33" y2="247.249" gradientTransform="matrix(1 0 0 -1 0 772)">
	<stop  offset="0" style="stop-color:#336633"/>
	<stop  offset="2.000000e-02" style="stop-color:#336C38"/>
	<stop  offset="0.13" style="stop-color:#338550"/>
	<stop  offset="0.25" style="stop-color:#339661"/>
	<stop  offset="0.37" style="stop-color:#33A16B"/>
	<stop  offset="0.51" style="stop-color:#34A56F"/>
	<stop  offset="0.65" style="stop-color:#33A16B"/>
	<stop  offset="0.76" style="stop-color:#339762"/>
	<stop  offset="0.87" style="stop-color:#338652"/>
	<stop  offset="0.97" style="stop-color:#336E3B"/>
	<stop  offset="1" style="stop-color:#336633"/>
</linearGradient>
<path style="fill:url(#SVGID_00000054252852561534315250000002319181226615750551_);" d="M626,525.9c-0.5,0.2-0.9-0.1-1.2-0.6
	s-1.3-1.1-0.5-1.3c0.8-0.2,1.4-0.7,1.9-0.1C626.6,524.6,627.1,525.5,626,525.9z"/>
<linearGradient id="SVGID_00000046305859241479603710000013060818280806794943_" gradientUnits="userSpaceOnUse" x1="-59.84" y1="247.5691" x2="763.33" y2="247.5691" gradientTransform="matrix(1 0 0 -1 0 772)">
	<stop  offset="0" style="stop-color:#336633"/>
	<stop  offset="2.000000e-02" style="stop-color:#336C38"/>
	<stop  offset="0.13" style="stop-color:#338550"/>
	<stop  offset="0.25" style="stop-color:#339661"/>
	<stop  offset="0.37" style="stop-color:#33A16B"/>
	<stop  offset="0.51" style="stop-color:#34A56F"/>
	<stop  offset="0.65" style="stop-color:#33A16B"/>
	<stop  offset="0.76" style="stop-color:#339762"/>
	<stop  offset="0.87" style="stop-color:#338652"/>
	<stop  offset="0.97" style="stop-color:#336E3B"/>
	<stop  offset="1" style="stop-color:#336633"/>
</linearGradient>
<path style="fill:url(#SVGID_00000046305859241479603710000013060818280806794943_);" d="M645.6,522.6c-0.2-0.6-0.4-0.7-1-1.2
	s-0.8-0.8-1.3-0.7c-0.5,0.1-0.7,0.1-1.2-0.1c-0.5-0.3-0.2-0.1-0.5-0.3c-0.3-0.2-0.6-0.3-0.7,0.1c-0.1,0.4,0.8,0.9,0.8,1.7
	s0.1,1.7-0.4,1.7c-0.4,0.1-0.9,0.3-1.2,0.4s-0.7,1,0.1,1.2c0.8,0.1,1.9,0.7,2.4,1.2c0.5,0.4,1.2,1.4,2.1,1.9
	c0.9,0.5,1.1,0.2,0.8-0.2c-0.3-0.4-0.7-0.9-0.6-1.2c0.1-0.3,0.6-0.5,1.1,0c0.5,0.5,1,1.2,1.5,1.2s0.6-0.7,1.2-0.7
	c0.6-0.1,0.7-0.1,0.6-0.9s-0.4-0.9-0.9-1.3c-0.4-0.4-0.6-0.7-1.1-0.9c-0.5-0.2-0.9-0.4-1.5-0.4s-1-0.1-0.9-0.5
	C645.2,523.2,645.6,522.6,645.6,522.6L645.6,522.6z"/>
<linearGradient id="SVGID_00000035508121376769604480000006477704333878208145_" gradientUnits="userSpaceOnUse" x1="-59.84" y1="249.0744" x2="763.33" y2="249.0744" gradientTransform="matrix(1 0 0 -1 0 772)">
	<stop  offset="0" style="stop-color:#336633"/>
	<stop  offset="2.000000e-02" style="stop-color:#336C38"/>
	<stop  offset="0.13" style="stop-color:#338550"/>
	<stop  offset="0.25" style="stop-color:#339661"/>
	<stop  offset="0.37" style="stop-color:#33A16B"/>
	<stop  offset="0.51" style="stop-color:#34A56F"/>
	<stop  offset="0.65" style="stop-color:#33A16B"/>
	<stop  offset="0.76" style="stop-color:#339762"/>
	<stop  offset="0.87" style="stop-color:#338652"/>
	<stop  offset="0.97" style="stop-color:#336E3B"/>
	<stop  offset="1" style="stop-color:#336633"/>
</linearGradient>
<path style="fill:url(#SVGID_00000035508121376769604480000006477704333878208145_);" d="M653.6,521.9c-0.7-0.5-1.2-1.1-1.5-1
	c-0.4,0.1-0.4,0.7-0.9,0.1c-0.6-0.6-1.2-0.9-1.4-0.2c-0.2,0.7-0.1,1,0.4,1.6c0.5,0.6,0.4,1.7,0.1,1.7c-0.4,0.1-0.4,1,0.1,1.2
	c0.6,0.2,0.8-0.1,1.1-0.5s0.7-0.7,0.9-1.1c0.2-0.4,0.9-0.3,1.7,0.2c0.8,0.5,1.1,0.5,0.6-0.2C654,523,653.5,521.9,653.6,521.9
	L653.6,521.9z"/>
<linearGradient id="SVGID_00000108304313411576743690000009697596536693585311_" gradientUnits="userSpaceOnUse" x1="-59.84" y1="248.9614" x2="763.33" y2="248.9614" gradientTransform="matrix(1 0 0 -1 0 772)">
	<stop  offset="0" style="stop-color:#336633"/>
	<stop  offset="2.000000e-02" style="stop-color:#336C38"/>
	<stop  offset="0.13" style="stop-color:#338550"/>
	<stop  offset="0.25" style="stop-color:#339661"/>
	<stop  offset="0.37" style="stop-color:#33A16B"/>
	<stop  offset="0.51" style="stop-color:#34A56F"/>
	<stop  offset="0.65" style="stop-color:#33A16B"/>
	<stop  offset="0.76" style="stop-color:#339762"/>
	<stop  offset="0.87" style="stop-color:#338652"/>
	<stop  offset="0.97" style="stop-color:#336E3B"/>
	<stop  offset="1" style="stop-color:#336633"/>
</linearGradient>
<path style="fill:url(#SVGID_00000108304313411576743690000009697596536693585311_);" d="M658.2,522.7c-0.7-0.4-2-0.7-1.2,0
	s1.5,1.5,1.5,0.9S658.2,522.7,658.2,522.7z"/>
<linearGradient id="SVGID_00000107557721423515905650000005019961367802255776_" gradientUnits="userSpaceOnUse" x1="-59.84" y1="257.4244" x2="763.33" y2="257.4244" gradientTransform="matrix(1 0 0 -1 0 772)">
	<stop  offset="0" style="stop-color:#336633"/>
	<stop  offset="2.000000e-02" style="stop-color:#336C38"/>
	<stop  offset="0.13" style="stop-color:#338550"/>
	<stop  offset="0.25" style="stop-color:#339661"/>
	<stop  offset="0.37" style="stop-color:#33A16B"/>
	<stop  offset="0.51" style="stop-color:#34A56F"/>
	<stop  offset="0.65" style="stop-color:#33A16B"/>
	<stop  offset="0.76" style="stop-color:#339762"/>
	<stop  offset="0.87" style="stop-color:#338652"/>
	<stop  offset="0.97" style="stop-color:#336E3B"/>
	<stop  offset="1" style="stop-color:#336633"/>
</linearGradient>
<path style="fill:url(#SVGID_00000107557721423515905650000005019961367802255776_);" d="M699.9,521.3c0,0-0.1-1.4,0.3-2
	c0.4-0.6,0.8-1.4,1.1-2.3s1-1.9,1.6-2.6c0.6-0.7,1-0.7,1.7-1.3c0.8-0.6,1.1-0.5,1.6,0.1s0.3,1.6,0.3,2.2s-0.3,1.2-0.5,1.3
	c-0.2,0.2-0.3,0.4,0.7,0.8c1,0.4,1.4,1.1,1.4,1.1s0.6,0,0.9-0.7s0.3-1.5,1.1-1.7c0.8-0.2,1.4-0.5,1.7-1.3c0.3-0.8,0.6-1.3,1.3-1.8
	c0.7-0.5,1.5-0.5,2.2-0.5s1.3-0.2,1.5-0.9s-0.1-1.5,0.4-1.6c0.5-0.1,0.5-0.3,1.7-0.2c1.2,0.1,1.2-0.2,2.1,0c1,0.2,1.1,0.5,1.4,0.5
	c0.3,0.1,0.2-0.4-0.1-0.9s-0.8-0.9-0.3-1.3s0.8-0.5,0.5-1.4s-0.1-1.9-0.3-2c-0.3-0.1-1.3-0.6-2-0.6s-1.7-0.3-2.3-0.6
	s-0.8-0.6-0.7-1.2c0.1-0.6,0.7-1.4,1.6-1.5c0.9-0.1,1.8,0.2,2.5-0.1c0.8-0.3,2.2-0.9,3.1-1s1.7-0.1,3,0.3c1.3,0.3,2,0.8,2.7,1.4
	c0,0,0.7,0.7,1.1,0.7c0.4-0.1,0.5-0.3,0.8-0.3s0.9,0.5,1,1.1s0.4,1.4,1,2s0.8,1,1.2,1.3c0.5,0.3,0.5,0.8,0.6,1.9
	c0.1,1.1-0.1,2.1,0.5,3.2c0.5,1.2,1.2,2,2,2.7c0.8,0.7,1,1.3,2,1.8c1,0.4,1.1,1.2,2,1c0.9-0.3,1.2-0.6,1.6-0.4s0.2,0.6,0.3,1.3
	s-0.5,1.5-1,1.9c-0.5,0.4-1.1,0.5-1.1,1.2s-0.3,1.3-0.2,2.1s-0.6,0.6-0.8,1.2c-0.2,0.5-0.8,1-0.6,1.8s-0.2,1.5-0.6,1.8
	c-0.4,0.3-1.1-0.1-1.5-0.3s-1.3,0-1.6,0.4s-0.7,0-1.6,0.2s-1.2-1-1.7-0.1c-0.5,0.9-0.5,1.5-1.4,0.7c-0.8-0.7-1.8-1-1.8-1.9
	s0.2-1.3-0.3-1.4s-0.7,0.3-1.1,1s-1.1,0.6-1.5,0.5c-0.4-0.1-0.4-0.7-0.8-1.1c-0.3-0.4-1-0.5-1.6-0.5s-2.1-0.1-2.8,0.1
	c-0.7,0.1-2.2,0.5-2.9,0.5c-0.7-0.1-1.2-0.5-1.8-1s-1-0.7-1,0s-0.1,0.7-1.1,0.7c-0.9-0.1-1.5,0-1.8-1c-0.3-1-0.4-1.7-0.8-1.6
	c-0.3,0.1-1.1,1.1-1.3,1.4c-0.2,0.3-0.6,1-1,1.4c-0.3,0.4-0.5,1.1-1.3-0.3c-0.9-1.3-1-2.1-1.6-2.9c-0.5-0.8-1.3-1.3-1.2-0.7
	s-0.1,1.4-0.7,1.5s-1.4-0.3-1.3-0.9s0.2-1.2-0.3-1.1c-0.5,0.1-1.4-0.7-1.1-1.1c0.3-0.4,0.8-0.5,0.8-1.2c0.1-0.7-0.3-1.3-0.8-0.9
	c-0.4,0.5-1,0.6-1.1,1.3C701.7,520.4,700.1,521.4,699.9,521.3L699.9,521.3z"/>
<linearGradient id="SVGID_00000118397512199930973430000003929611423611590317_" gradientUnits="userSpaceOnUse" x1="-59.84" y1="264.1934" x2="763.33" y2="264.1934" gradientTransform="matrix(1 0 0 -1 0 772)">
	<stop  offset="0" style="stop-color:#336633"/>
	<stop  offset="2.000000e-02" style="stop-color:#336C38"/>
	<stop  offset="0.13" style="stop-color:#338550"/>
	<stop  offset="0.25" style="stop-color:#339661"/>
	<stop  offset="0.37" style="stop-color:#33A16B"/>
	<stop  offset="0.51" style="stop-color:#34A56F"/>
	<stop  offset="0.65" style="stop-color:#33A16B"/>
	<stop  offset="0.76" style="stop-color:#339762"/>
	<stop  offset="0.87" style="stop-color:#338652"/>
	<stop  offset="0.97" style="stop-color:#336E3B"/>
	<stop  offset="1" style="stop-color:#336633"/>
</linearGradient>
<path style="fill:url(#SVGID_00000118397512199930973430000003929611423611590317_);" d="M721.1,507.6c-0.3,0.4-0.3,0.8-0.7,0.9
	c-0.3,0.1-1.2-0.5-0.7-1C720.2,507,721.6,507.1,721.1,507.6z"/>
<linearGradient id="SVGID_00000003069828355225355890000008939518142241019813_" gradientUnits="userSpaceOnUse" x1="-59.84" y1="265.9594" x2="763.33" y2="265.9594" gradientTransform="matrix(1 0 0 -1 0 772)">
	<stop  offset="0" style="stop-color:#336633"/>
	<stop  offset="2.000000e-02" style="stop-color:#336C38"/>
	<stop  offset="0.13" style="stop-color:#338550"/>
	<stop  offset="0.25" style="stop-color:#339661"/>
	<stop  offset="0.37" style="stop-color:#33A16B"/>
	<stop  offset="0.51" style="stop-color:#34A56F"/>
	<stop  offset="0.65" style="stop-color:#33A16B"/>
	<stop  offset="0.76" style="stop-color:#339762"/>
	<stop  offset="0.87" style="stop-color:#338652"/>
	<stop  offset="0.97" style="stop-color:#336E3B"/>
	<stop  offset="1" style="stop-color:#336633"/>
</linearGradient>
<path style="fill:url(#SVGID_00000003069828355225355890000008939518142241019813_);" d="M720.3,505.9c-0.4-0.1-1-0.2-1.1,0.1
	c-0.1,0.3,0,0.4,0.6,0.4S720.7,506,720.3,505.9L720.3,505.9z"/>
<linearGradient id="SVGID_00000046309704464634611570000010325518656499183489_" gradientUnits="userSpaceOnUse" x1="-59.84" y1="264.0381" x2="763.33" y2="264.0381" gradientTransform="matrix(1 0 0 -1 0 772)">
	<stop  offset="0" style="stop-color:#336633"/>
	<stop  offset="2.000000e-02" style="stop-color:#336C38"/>
	<stop  offset="0.13" style="stop-color:#338550"/>
	<stop  offset="0.25" style="stop-color:#339661"/>
	<stop  offset="0.37" style="stop-color:#33A16B"/>
	<stop  offset="0.51" style="stop-color:#34A56F"/>
	<stop  offset="0.65" style="stop-color:#33A16B"/>
	<stop  offset="0.76" style="stop-color:#339762"/>
	<stop  offset="0.87" style="stop-color:#338652"/>
	<stop  offset="0.97" style="stop-color:#336E3B"/>
	<stop  offset="1" style="stop-color:#336633"/>
</linearGradient>
<path style="fill:url(#SVGID_00000046309704464634611570000010325518656499183489_);" d="M715.8,508.5c-0.2-0.4-0.3,0.1-0.6-0.9
	c-0.3-1-0.5-1.5-1-1.4c-0.5,0.1-1.3,0.1-1.6,0.7c-0.3,0.5-0.4,1.4,0.2,1.8c0.6,0.5,0.5,1,1.1,1s0.8-0.5,1.2-0.7
	C715.3,508.9,715.8,508.5,715.8,508.5L715.8,508.5z"/>
<linearGradient id="SVGID_00000073688517324350644010000014912892388384734611_" gradientUnits="userSpaceOnUse" x1="-59.84" y1="246.5269" x2="763.33" y2="246.5269" gradientTransform="matrix(1 0 0 -1 0 772)">
	<stop  offset="0" style="stop-color:#336633"/>
	<stop  offset="2.000000e-02" style="stop-color:#336C38"/>
	<stop  offset="0.13" style="stop-color:#338550"/>
	<stop  offset="0.25" style="stop-color:#339661"/>
	<stop  offset="0.37" style="stop-color:#33A16B"/>
	<stop  offset="0.51" style="stop-color:#34A56F"/>
	<stop  offset="0.65" style="stop-color:#33A16B"/>
	<stop  offset="0.76" style="stop-color:#339762"/>
	<stop  offset="0.87" style="stop-color:#338652"/>
	<stop  offset="0.97" style="stop-color:#336E3B"/>
	<stop  offset="1" style="stop-color:#336633"/>
</linearGradient>
<path style="fill:url(#SVGID_00000073688517324350644010000014912892388384734611_);" d="M706.1,525.8c0.4-0.3,0.5-1,0.1-1.1
	c-0.3-0.1-1-0.1-1.2,0.3c-0.3,0.3-0.2,1.1-0.1,1.3C705,526.5,705.7,526.1,706.1,525.8L706.1,525.8z"/>
<linearGradient id="SVGID_00000006706127040800210840000008127812968442567568_" gradientUnits="userSpaceOnUse" x1="-59.84" y1="270.4967" x2="763.33" y2="270.4967" gradientTransform="matrix(1 0 0 -1 0 772)">
	<stop  offset="0" style="stop-color:#336633"/>
	<stop  offset="2.000000e-02" style="stop-color:#336C38"/>
	<stop  offset="0.13" style="stop-color:#338550"/>
	<stop  offset="0.25" style="stop-color:#339661"/>
	<stop  offset="0.37" style="stop-color:#33A16B"/>
	<stop  offset="0.51" style="stop-color:#34A56F"/>
	<stop  offset="0.65" style="stop-color:#33A16B"/>
	<stop  offset="0.76" style="stop-color:#339762"/>
	<stop  offset="0.87" style="stop-color:#338652"/>
	<stop  offset="0.97" style="stop-color:#336E3B"/>
	<stop  offset="1" style="stop-color:#336633"/>
</linearGradient>
<path style="fill:url(#SVGID_00000006706127040800210840000008127812968442567568_);" d="M710.7,502.1c0-0.7-0.1-1.5-0.8-1.4
	c-0.7,0.1-1.2,0.4-1,0.8c0.1,0.4,0.5,0.7,1,0.7S710.7,502.1,710.7,502.1L710.7,502.1z"/>
<linearGradient id="SVGID_00000065778463937335994690000018370609902394814374_" gradientUnits="userSpaceOnUse" x1="-59.84" y1="271.2088" x2="763.33" y2="271.2088" gradientTransform="matrix(1 0 0 -1 0 772)">
	<stop  offset="0" style="stop-color:#336633"/>
	<stop  offset="2.000000e-02" style="stop-color:#336C38"/>
	<stop  offset="0.13" style="stop-color:#338550"/>
	<stop  offset="0.25" style="stop-color:#339661"/>
	<stop  offset="0.37" style="stop-color:#33A16B"/>
	<stop  offset="0.51" style="stop-color:#34A56F"/>
	<stop  offset="0.65" style="stop-color:#33A16B"/>
	<stop  offset="0.76" style="stop-color:#339762"/>
	<stop  offset="0.87" style="stop-color:#338652"/>
	<stop  offset="0.97" style="stop-color:#336E3B"/>
	<stop  offset="1" style="stop-color:#336633"/>
</linearGradient>
<path style="fill:url(#SVGID_00000065778463937335994690000018370609902394814374_);" d="M708,501.5c0.3-0.5,0.5-1.1,0-1.3
	c-0.5-0.2-1.1-0.3-1.5,0.1c-0.4,0.3-0.9,1-0.3,1.2S708,501.5,708,501.5z"/>
<linearGradient id="SVGID_00000000199619545082565620000001330343842693158530_" gradientUnits="userSpaceOnUse" x1="-59.84" y1="267.3409" x2="763.33" y2="267.3409" gradientTransform="matrix(1 0 0 -1 0 772)">
	<stop  offset="0" style="stop-color:#336633"/>
	<stop  offset="2.000000e-02" style="stop-color:#336C38"/>
	<stop  offset="0.13" style="stop-color:#338550"/>
	<stop  offset="0.25" style="stop-color:#339661"/>
	<stop  offset="0.37" style="stop-color:#33A16B"/>
	<stop  offset="0.51" style="stop-color:#34A56F"/>
	<stop  offset="0.65" style="stop-color:#33A16B"/>
	<stop  offset="0.76" style="stop-color:#339762"/>
	<stop  offset="0.87" style="stop-color:#338652"/>
	<stop  offset="0.97" style="stop-color:#336E3B"/>
	<stop  offset="1" style="stop-color:#336633"/>
</linearGradient>
<path style="fill:url(#SVGID_00000000199619545082565620000001330343842693158530_);" d="M705,504.9c0.5,0,0.1-0.8-0.4-0.7
	c-0.5,0.1-1.1,0.5-0.8,0.9S704.5,504.9,705,504.9z"/>
<linearGradient id="SVGID_00000142895653880795535110000000484266009660511647_" gradientUnits="userSpaceOnUse" x1="-59.84" y1="268.3926" x2="763.33" y2="268.3926" gradientTransform="matrix(1 0 0 -1 0 772)">
	<stop  offset="0" style="stop-color:#336633"/>
	<stop  offset="2.000000e-02" style="stop-color:#336C38"/>
	<stop  offset="0.13" style="stop-color:#338550"/>
	<stop  offset="0.25" style="stop-color:#339661"/>
	<stop  offset="0.37" style="stop-color:#33A16B"/>
	<stop  offset="0.51" style="stop-color:#34A56F"/>
	<stop  offset="0.65" style="stop-color:#33A16B"/>
	<stop  offset="0.76" style="stop-color:#339762"/>
	<stop  offset="0.87" style="stop-color:#338652"/>
	<stop  offset="0.97" style="stop-color:#336E3B"/>
	<stop  offset="1" style="stop-color:#336633"/>
</linearGradient>
<path style="fill:url(#SVGID_00000142895653880795535110000000484266009660511647_);" d="M690.2,505.5c0.4-0.1,0.1-1-0.1-1.4
	c-0.2-0.4-0.5-0.4-1.2-1.1c-0.6-0.7-0.8-1.3-1.3-1.4c-0.5-0.1-0.7,0.1-1.2,0.7c-0.5,0.5-0.9,0.6-0.3,1.1s1.3,1,1.8,1.4
	C688.5,505.3,689.6,505.7,690.2,505.5L690.2,505.5z"/>
<linearGradient id="SVGID_00000067915654637523460030000015809706531564265869_" gradientUnits="userSpaceOnUse" x1="-59.84" y1="298.415" x2="763.33" y2="298.415" gradientTransform="matrix(1 0 0 -1 0 772)">
	<stop  offset="0" style="stop-color:#336633"/>
	<stop  offset="2.000000e-02" style="stop-color:#336C38"/>
	<stop  offset="0.13" style="stop-color:#338550"/>
	<stop  offset="0.25" style="stop-color:#339661"/>
	<stop  offset="0.37" style="stop-color:#33A16B"/>
	<stop  offset="0.51" style="stop-color:#34A56F"/>
	<stop  offset="0.65" style="stop-color:#33A16B"/>
	<stop  offset="0.76" style="stop-color:#339762"/>
	<stop  offset="0.87" style="stop-color:#338652"/>
	<stop  offset="0.97" style="stop-color:#336E3B"/>
	<stop  offset="1" style="stop-color:#336633"/>
</linearGradient>
<path style="fill:url(#SVGID_00000067915654637523460030000015809706531564265869_);" d="M666.2,465.8c-0.4,0.3-0.7,0.3-0.9,1.3
	s-0.3,1.6-0.9,2c-0.5,0.4-1,1.6-1,1.6s0.3,1.1,1,1.8s0.8,0.6,1.3,1.1s0.8,2.3,1.4,3.2c0.7,0.9,0.7,1.6,1.6,2.7
	c0.9,1.1,1.7,1.8,1.7,1.8s0.8-0.9,1.5-1.5s1.7-1.6,1.8-2.4s-0.1-1.1-0.6-1.9c-0.5-0.7-0.6-2-0.8-3.1c-0.1-1.1-0.3-2.3-0.4-3.5
	c-0.1-1.1-0.5-1.6-0.5-1.6s-0.8-1.5-1.7-1.5S666.2,465.8,666.2,465.8L666.2,465.8z"/>
<linearGradient id="SVGID_00000096018294228700662880000013867115100207210158_" gradientUnits="userSpaceOnUse" x1="-59.84" y1="322.1703" x2="763.33" y2="322.1703" gradientTransform="matrix(1 0 0 -1 0 772)">
	<stop  offset="0" style="stop-color:#336633"/>
	<stop  offset="2.000000e-02" style="stop-color:#336C38"/>
	<stop  offset="0.13" style="stop-color:#338550"/>
	<stop  offset="0.25" style="stop-color:#339661"/>
	<stop  offset="0.37" style="stop-color:#33A16B"/>
	<stop  offset="0.51" style="stop-color:#34A56F"/>
	<stop  offset="0.65" style="stop-color:#33A16B"/>
	<stop  offset="0.76" style="stop-color:#339762"/>
	<stop  offset="0.87" style="stop-color:#338652"/>
	<stop  offset="0.97" style="stop-color:#336E3B"/>
	<stop  offset="1" style="stop-color:#336633"/>
</linearGradient>
<path style="fill:url(#SVGID_00000096018294228700662880000013867115100207210158_);" d="M666.8,460.4c0.8,0.8-0.1,2.2,0.5,2.9
	c0.6,0.7,1.2,1.2,2,1.6s0.8,0.4,1.7,0.7c1,0.3,0.9,0.1,1.3,0.1c0.4-0.1,0.4-1.1,0-1.9c-0.4-0.8-0.2-0.7-1-1.7s-0.9-1.4-1.2-2.2
	s-0.7-1.7-1-2.6c-0.3-1-0.6-2-1.3-2.8c-0.7-0.7-0.8-0.9-1.6-1.6s-1-1.1-1.3-1.8c-0.3-0.7-0.1-1.1,0.3-1.8c0.4-0.6,0.5-1.1,0.4-1.8
	c-0.1-0.7,0-1.4,0.5-1.9c0.5-0.5,1.4-1.2,1.8-1.7c0.5-0.5,1-1.6,1.3-2.2c0.3-0.6,1.1-0.6,1.1-1.7s0.4-1,0.7-1.8
	c0.3-0.8,0.2-0.7,0.2-1.8s-0.6-1.3-1.1-1.3s-1,0.2-1.4,0.5c-0.4,0.3-1.1,0.2-2.2,0.1c-1.1-0.1-0.7-0.6-1.4-1.4
	c-0.7-0.8-1.3-0.3-1.7-0.1c-0.4,0.2-1.4,0.5-1.8,1.2c-0.4,0.7-1.3,1.4-1.8,2c-0.5,0.7-1.3,1.6-2.2,2.2c-0.9,0.6-1.3,0.2-1.8,0.6
	c-0.5,0.4-1,1.1-0.7,2s0.8,1,1.1,1.8c0.3,0.9,1,1.2,1.3,1c0.3-0.3,0.1-0.5,0.2-1.3c0.1-0.8,0.5-0.7,1.1-0.5c0.6,0.2,0.4,1.2,0.4,2.4
	s-0.3,2.6,0.3,3.7c0.5,1.1,0.8,2.5,1.2,3.6c0.4,1.1,0.9,2.4,2,3.1c1.2,0.7,0.8,1,1.8,1.7S666.5,460,666.8,460.4L666.8,460.4z"/>
<linearGradient id="SVGID_00000097471906966003286550000002319200717033748409_" gradientUnits="userSpaceOnUse" x1="-59.84" y1="330.865" x2="763.33" y2="330.865" gradientTransform="matrix(1 0 0 -1 0 772)">
	<stop  offset="0" style="stop-color:#336633"/>
	<stop  offset="2.000000e-02" style="stop-color:#336C38"/>
	<stop  offset="0.13" style="stop-color:#338550"/>
	<stop  offset="0.25" style="stop-color:#339661"/>
	<stop  offset="0.37" style="stop-color:#33A16B"/>
	<stop  offset="0.51" style="stop-color:#34A56F"/>
	<stop  offset="0.65" style="stop-color:#33A16B"/>
	<stop  offset="0.76" style="stop-color:#339762"/>
	<stop  offset="0.87" style="stop-color:#338652"/>
	<stop  offset="0.97" style="stop-color:#336E3B"/>
	<stop  offset="1" style="stop-color:#336633"/>
</linearGradient>
<path style="fill:url(#SVGID_00000097471906966003286550000002319200717033748409_);" d="M401,445.1c0.2,0.7,0.6,1,0.6,1.5
	s-0.2,0.5-0.4,1c-0.2,0.4,0.1,1.4,0.1,1.7c0.1,0.3,1.4-0.3,1.9-0.5c0.5-0.3,1.3-1,1.5-1.6c0.2-0.7,0.5-0.8,0.6-2.1
	c0.1-1.3,0-1.4-0.3-1.7s-0.5-0.1-0.9,0.4c-0.3,0.5-1.1,1.3-1.4,1.1c-0.3-0.1-1.1-0.3-1.4-1.4c-0.2-1.1-0.1-1.7,0.5-2.2
	c0.6-0.5,1.4-1.2,1.6-2.1s0.1-1.3-0.3-2.1s-0.7-1.4-1.3-2.2c-0.5-0.9-0.4-1.1-1.1-1.5c-0.7-0.4-1.1-0.3-2.3-0.3s-2.6,0.3-3,0.7
	c-0.5,0.3-1,1.3-1,1.9c0.1,0.6,0.3,1.6,0.5,2.6s0.1,2.5,0.8,3.1c0.8,0.6,1.1,0.4,1.3,0.9c0.2,0.5,0.1,1.1-0.1,1.9
	c-0.1,0.8-0.5,1.8-0.3,2.6s0.2,1.8,1,2.1c0.8,0.3,0.9-0.2,1.3-0.7s0.6-1.2,0.9-2.1C400.1,445.1,400.9,444.7,401,445.1L401,445.1z"/>
<linearGradient id="SVGID_00000014592641424220405320000009976613066294651836_" gradientUnits="userSpaceOnUse" x1="-59.84" y1="445.8331" x2="763.33" y2="445.8331" gradientTransform="matrix(1 0 0 -1 0 772)">
	<stop  offset="0" style="stop-color:#336633"/>
	<stop  offset="2.000000e-02" style="stop-color:#336C38"/>
	<stop  offset="0.13" style="stop-color:#338550"/>
	<stop  offset="0.25" style="stop-color:#339661"/>
	<stop  offset="0.37" style="stop-color:#33A16B"/>
	<stop  offset="0.51" style="stop-color:#34A56F"/>
	<stop  offset="0.65" style="stop-color:#33A16B"/>
	<stop  offset="0.76" style="stop-color:#339762"/>
	<stop  offset="0.87" style="stop-color:#338652"/>
	<stop  offset="0.97" style="stop-color:#336E3B"/>
	<stop  offset="1" style="stop-color:#336633"/>
</linearGradient>
<path style="fill:url(#SVGID_00000014592641424220405320000009976613066294651836_);" d="M194.6,324.5c-0.9,0.4-1.3,0.8-1.4,1.5
	c-0.1,0.7,0.1,1.2,0.5,2.3c0.3,1.1,0.5,1.6,0.1,2.4c-0.5,0.7-0.8,1.6-1.1,2.4c-0.3,0.8-0.3,0.6-0.2,2c0.1,1.4,0.1,1,0.5,2.2
	c0.4,1.2-0.4,0.4,0.3,1.7s1,1.9,2.4,2.2c1.4,0.3,1.2,0.1,2.6,0.3c1.4,0.1,2.8,0.2,4.1,0.5c1.3,0.3,1.8,0.5,2.8,1.1s1.1,0.9,1.5,1.8
	c0.3,0.9,0.1,1.4,0.3,2.2c0.2,0.8-0.1,1.4,1,1c1.1-0.4,1.6-0.5,2.7-0.5c1.1-0.1,1.4-0.2,2-0.3c0.5-0.1,1.7-0.9,1.8-2
	c0.1-1.1,0.3-1.8,0.3-2.9c0.1-1.1,0.3-1,0.3-2.5c0.1-1.5-0.1-2.2-0.5-2.3c-0.4-0.1-0.9-0.4-1.6,0.3s-1.4,1.7-2,2.5
	c-0.6,0.8-1.1,1-1.6,1.6c-0.5,0.7-0.9,0.1-0.9,0.1s0.1-1.2,0.9-2.3s1.1-1.7,1.8-2.2c0.7-0.5,1.6-1.6,2.2-2.2s1.1-1.6,1.8-2.5
	c0.7-0.9,1.1-1,1.6-1.5c0.5-0.5,0.5-0.2,0.4,1.1c-0.1,1.3-0.3,2.2-0.6,3s-0.9,2-0.9,3c0.1,1,0,1.8,0.3,2.9c0.3,1.1-0.1,1.1-0.6,2
	s-0.9,1.6-1.1,2.9c-0.2,1.2-1.3,2.6-2,3c-0.7,0.3-1.6,0.6-2.3,1.1c-0.7,0.5-1,2-1.1,3c-0.1,1.1-0.1,2.4,0.1,3.3s0.1,2.2,1.1,2.4
	c0.9,0.3,1.1,0.5,1.4,1.4s0.3,1.9,1.1,3c0.9,1.1,1.1,1.3,1.8,1.3s1.7-1,2.3-1.8c0.6-0.9,0.8-1.6,1.6-2.6s0.7-1.3,1.3-2.4
	c0.5-1.1,0.5-2.4,0.8-3.4c0.3-1,0-2.7,0.9-3.8c0.9-1.1,1.1-1.6,2.4-2.4c1.3-0.8,2-1.1,3.1-1.8s1.8-1,1.8-2s0-1.3,0.4-2.6
	s0.3-1.8,0.9-2.2s1-0.3,1.5,0.7c0.5,1,0.7,0.7,1.1,0.5c0.5-0.1,0.7-0.7,0.7-2s-0.2-1.6,0.1-3.3s0.1-1.3,0.8-2.9
	c0.7-1.6,0.9-2,2.1-2.4c1.1-0.4,1.8-1,2.4-1.1c0.7-0.1,1.4-1.1,2.3-1.7c0.9-0.6,1.6-1.1,2.5-1.5c0.9-0.4,1.5-1.1,2.5-2.2
	c1-1,1.5-1.8,2.3-2.2s1.3-1.1,2-2.3c0.7-1.1,1.2-1.6,2.2-2.6c1-1,1-1.7,2.3-1.8c1.3-0.1,1.6,0.5,2.4,0.3s0.2-0.3,1-1.4
	c0.7-1.1,1.1-1.2,2.1-1.8s1.3-1.6,2.2-1.7c0.9-0.1,1.1,0,1.9-0.2c0.7-0.2,0.8-0.6,1.1-1.1s0.2-1.3-0.3-1.9c-0.5-0.6-1.1-0.3-1.6-1.4
	c-0.5-1-0.2-1.6-0.8-1.8c-0.6-0.1-1.2,0.1-2,0.3c-0.8,0.2-1.5-0.1-2.1,0.1c-0.6,0.1-1.1,0.5-1.5,0.6c-0.4,0.1-1.6,1-0.9,1.4
	c0.7,0.3,0.8,0.8,0.5,1.4c-0.2,0.7-0.8,0.6-1.2,0.6s-0.3-0.6-0.3-1.2s-0.3-0.9-0.6-0.7s-1.5,0.3-2.2,0.3s-1-0.3-1.6-0.3
	s-1.3-0.3-2,0.3s-1.2,1.4-2.1,1.7s-1,0.2-1.6-0.1c-0.6-0.3-0.9-0.9-0.3-1.4s0.9-1,1.6-1.4s1.1-0.7,1.6-0.7s0.9,0.5,0.8,0.8
	s0.4,0.1,1.4,0.1c0.9,0.1,1.3,0.3,2.1,0.5s0.8-0.5,1.6-0.5s1.1,0.2,1.7-0.5c0.5-0.7,0.7-0.7,1.2-1.6s1-0.5,1.8-0.5s1.6,0.3,2.6,0.3
	s2-0.3,2.9-0.7c0.8-0.4,1-0.8,2.2-0.6c1.1,0.1,1.6-0.1,2.6-0.1c1-0.1,1-0.6,2.4-0.7c1.5-0.1,2.1-0.2,3.3,0.1
	c1.2,0.3,1.8,0.3,2.4,0.7s0.7,0.7,1.4,0.5c0.7-0.3,1.1-1,1.9-1.3c0.8-0.3,0.8-0.4,1.9-0.3s1,0.3,1.6-0.3c0.6-0.5,0.7-1,1.3-1
	c0.6-0.1,1.1-0.1,1.8,0.1c0.7,0.3,1.4,0.5,2,0.4c0.6-0.1,1.1-0.1,1.1-1s0-0.6-0.5-1.8c0,0-0.5-0.3-0.4-1.4c0.1-1.1,0.3-1.6-0.1-2.2
	c-0.5-0.7-0.7-0.7-1.4-0.9c-0.7-0.1-1.1-1.1-2.3-1.9c-1.2-0.8-2.9-1.8-3.6-2.2c-0.7-0.3-1.9-0.7-2.6-0.7c-0.7-0.1-2.1,0-2.7-0.3
	s-1.3-0.5-1.2,0.4s0.1,1.3-0.7,1.1c-0.8-0.2-1.8-0.8-2.9-1s-1.9-0.6-2.4-0.8s-1.4,0.3-2.2-0.1c-0.7-0.4-0.7-0.5-1.6-0.5
	c-0.8,0.1-1.6,0.5-2.2,0.5c-0.6,0.1-0.3-0.4-1.4-0.5c-1.1-0.1-2.9,0.3-3.8,0.2c-0.9-0.1-1.8,0.3-2.4,0.9c-0.6,0.6-0.8,0.9-1.4,0.8
	c-0.5-0.1-1.6-0.6-2.1-0.4c-0.5,0.2-1.1,0.5-1.8,0.3s-1.1-0.5-2.1,0.1c-0.9,0.6-2.3,0.7-2.8,0.7c-0.5,0.1-2.4,0.3-3.1,0.3
	s-1.6-0.5-2.4-0.1c-0.7,0.5-1.4,0.8-2,0.9s-1.4-0.1-1.4,0.5s-0.1,1.2-0.5,1.8c-0.5,0.5-0.9,1.4-1.6,1.4s-2.2,0.4-3,0.3
	s-1.8,0-2.2,0.4s-2.6,2.1-3.4,2.5c-0.8,0.4-1.6,1.8-2.8,1.9c-1.1,0.1-2.2,0.2-3,0.8c-0.8,0.5-2.2,1.4-3.1,1.8
	c-0.9,0.5-1.8,1-2.4,1.8c-0.7,0.8-1.5,1.7-2.3,2.4s-1.8,1.9-2.2,2.6c-0.3,0.7-1.2,2.8-1.8,3.6s-1.5,2-2.6,2.8s-2.9,2.8-3.6,3.4
	c-0.7,0.6-2,2-2.8,2.7c-0.7,0.8-1.4,2.1-2.2,2.2C196.6,324.3,194.7,324.5,194.6,324.5L194.6,324.5z"/>
<linearGradient id="SVGID_00000102519701461405835590000013319404091806913950_" gradientUnits="userSpaceOnUse" x1="-59.84" y1="473.9008" x2="763.33" y2="473.9008" gradientTransform="matrix(1 0 0 -1 0 772)">
	<stop  offset="0" style="stop-color:#336633"/>
	<stop  offset="2.000000e-02" style="stop-color:#336C38"/>
	<stop  offset="0.13" style="stop-color:#338550"/>
	<stop  offset="0.25" style="stop-color:#339661"/>
	<stop  offset="0.37" style="stop-color:#33A16B"/>
	<stop  offset="0.51" style="stop-color:#34A56F"/>
	<stop  offset="0.65" style="stop-color:#33A16B"/>
	<stop  offset="0.76" style="stop-color:#339762"/>
	<stop  offset="0.87" style="stop-color:#338652"/>
	<stop  offset="0.97" style="stop-color:#336E3B"/>
	<stop  offset="1" style="stop-color:#336633"/>
</linearGradient>
<path style="fill:url(#SVGID_00000102519701461405835590000013319404091806913950_);" d="M296.1,297.7c0.8-0.5,1.2-0.5,2.2-0.9
	s1.8-0.1,2.6-0.1s1,0.4,0.8,1.1c-0.1,0.7-0.3,1.3-0.5,1.6c-0.1,0.3-1.1,0-1.7-0.3c-0.6-0.3-2-1-2.4-1S296.1,297.7,296.1,297.7
	L296.1,297.7z"/>
<linearGradient id="SVGID_00000085226162731251916910000007999011951303157893_" gradientUnits="userSpaceOnUse" x1="-59.84" y1="189.3303" x2="763.33" y2="189.3303" gradientTransform="matrix(1 0 0 -1 0 772)">
	<stop  offset="0" style="stop-color:#336633"/>
	<stop  offset="2.000000e-02" style="stop-color:#336C38"/>
	<stop  offset="0.13" style="stop-color:#338550"/>
	<stop  offset="0.25" style="stop-color:#339661"/>
	<stop  offset="0.37" style="stop-color:#33A16B"/>
	<stop  offset="0.51" style="stop-color:#34A56F"/>
	<stop  offset="0.65" style="stop-color:#33A16B"/>
	<stop  offset="0.76" style="stop-color:#339762"/>
	<stop  offset="0.87" style="stop-color:#338652"/>
	<stop  offset="0.97" style="stop-color:#336E3B"/>
	<stop  offset="1" style="stop-color:#336633"/>
</linearGradient>
<path style="fill:url(#SVGID_00000085226162731251916910000007999011951303157893_);" d="M396.5,583.5c-0.1-0.7-0.2-1-0.7-1.4
	c-0.5-0.5-0.2-0.7-0.9-0.5s-1.3,0.7-0.9,1.2c0.4,0.5,0.8,0.8,1.4,1C396.1,584,396.5,583.6,396.5,583.5L396.5,583.5z"/>
<linearGradient id="SVGID_00000044872402107672986580000011343526150102331321_" gradientUnits="userSpaceOnUse" x1="-59.84" y1="183.2802" x2="763.33" y2="183.2802" gradientTransform="matrix(1 0 0 -1 0 772)">
	<stop  offset="0" style="stop-color:#336633"/>
	<stop  offset="2.000000e-02" style="stop-color:#336C38"/>
	<stop  offset="0.13" style="stop-color:#338550"/>
	<stop  offset="0.25" style="stop-color:#339661"/>
	<stop  offset="0.37" style="stop-color:#33A16B"/>
	<stop  offset="0.51" style="stop-color:#34A56F"/>
	<stop  offset="0.65" style="stop-color:#33A16B"/>
	<stop  offset="0.76" style="stop-color:#339762"/>
	<stop  offset="0.87" style="stop-color:#338652"/>
	<stop  offset="0.97" style="stop-color:#336E3B"/>
	<stop  offset="1" style="stop-color:#336633"/>
</linearGradient>
<path style="fill:url(#SVGID_00000044872402107672986580000011343526150102331321_);" d="M398.8,585.7c0.1,0.7,0.1,1.3,0,2.2
	s-0.1,2.3,0.3,2.8c0.3,0.5,1,1.2,1,1.2s0.8-0.3,1.8-0.9s1-0.7,0.7-1.6c-0.2-0.9-0.3-1.6-0.6-2.1c-0.3-0.5-0.7,0.1-1.1-0.5
	c-0.4-0.7-0.7-1.1-1.1-1.2C399.4,585.5,398.8,585.7,398.8,585.7L398.8,585.7z"/>
<linearGradient id="SVGID_00000171700030661748358310000004297543398554319765_" gradientUnits="userSpaceOnUse" x1="-59.84" y1="177.8" x2="763.33" y2="177.8" gradientTransform="matrix(1 0 0 -1 0 772)">
	<stop  offset="0" style="stop-color:#336633"/>
	<stop  offset="2.000000e-02" style="stop-color:#336C38"/>
	<stop  offset="0.13" style="stop-color:#338550"/>
	<stop  offset="0.25" style="stop-color:#339661"/>
	<stop  offset="0.37" style="stop-color:#33A16B"/>
	<stop  offset="0.51" style="stop-color:#34A56F"/>
	<stop  offset="0.65" style="stop-color:#33A16B"/>
	<stop  offset="0.76" style="stop-color:#339762"/>
	<stop  offset="0.87" style="stop-color:#338652"/>
	<stop  offset="0.97" style="stop-color:#336E3B"/>
	<stop  offset="1" style="stop-color:#336633"/>
</linearGradient>
<path style="fill:url(#SVGID_00000171700030661748358310000004297543398554319765_);" d="M398.7,594.2c0-0.8-0.5-1.2-0.7-1.1
	c-0.2,0.1-0.3,0.4-0.5,0.9c-0.1,0.5-0.2,0.9,0.2,1.2C398.2,595.5,398.7,594.2,398.7,594.2L398.7,594.2z"/>
<linearGradient id="SVGID_00000034057028329544287120000005794565735778867099_" gradientUnits="userSpaceOnUse" x1="-59.84" y1="172.5516" x2="763.33" y2="172.5516" gradientTransform="matrix(1 0 0 -1 0 772)">
	<stop  offset="0" style="stop-color:#336633"/>
	<stop  offset="2.000000e-02" style="stop-color:#336C38"/>
	<stop  offset="0.13" style="stop-color:#338550"/>
	<stop  offset="0.25" style="stop-color:#339661"/>
	<stop  offset="0.37" style="stop-color:#33A16B"/>
	<stop  offset="0.51" style="stop-color:#34A56F"/>
	<stop  offset="0.65" style="stop-color:#33A16B"/>
	<stop  offset="0.76" style="stop-color:#339762"/>
	<stop  offset="0.87" style="stop-color:#338652"/>
	<stop  offset="0.97" style="stop-color:#336E3B"/>
	<stop  offset="1" style="stop-color:#336633"/>
</linearGradient>
<path style="fill:url(#SVGID_00000034057028329544287120000005794565735778867099_);" d="M387.4,601.8c-0.8-0.5-0.8-1.1-1.4-1.2
	c-0.6-0.1-1.1-0.3-1.1-1.2s0-0.8,0.4-1.5c0.4-0.7,0.3-1,1-0.7c0.6,0.3,1.3,0.6,1.5,1c0.2,0.3,0.4,1,0.4,1.8S387.4,601.8,387.4,601.8
	L387.4,601.8z"/>
<linearGradient id="SVGID_00000134955786011235931170000010740782900330050712_" gradientUnits="userSpaceOnUse" x1="-59.84" y1="280.528" x2="763.33" y2="280.528" gradientTransform="matrix(1 0 0 -1 0 772)">
	<stop  offset="0" style="stop-color:#336633"/>
	<stop  offset="2.000000e-02" style="stop-color:#336C38"/>
	<stop  offset="0.13" style="stop-color:#338550"/>
	<stop  offset="0.25" style="stop-color:#339661"/>
	<stop  offset="0.37" style="stop-color:#33A16B"/>
	<stop  offset="0.51" style="stop-color:#34A56F"/>
	<stop  offset="0.65" style="stop-color:#33A16B"/>
	<stop  offset="0.76" style="stop-color:#339762"/>
	<stop  offset="0.87" style="stop-color:#338652"/>
	<stop  offset="0.97" style="stop-color:#336E3B"/>
	<stop  offset="1" style="stop-color:#336633"/>
</linearGradient>
<path style="fill:url(#SVGID_00000134955786011235931170000010740782900330050712_);" d="M698.1,519.5c0.2-0.7,0.5-1.4,0.3-2.4
	c-0.2-1-0.1-1.5-0.7-1.8c-0.7-0.3-1-0.7-1.6-1.3c-0.7-0.6-0.6-0.6-1-1.3c-0.4-0.8-0.4-1.4-0.8-1c-0.4,0.5-0.4,0.7-1,0.6
	c-0.5-0.1-0.7-0.5-1.1-0.7c-0.4-0.1-0.8,0.1-0.8,1s0.1,2,0.1,2s-0.1,0-0.8-0.5s-1.3-0.5-1.6-1.5s-0.3-1.3-0.6-1.7
	c-0.3-0.4-0.8-0.8-1.3-1.3c-0.5-0.5-1-0.8-1.5-0.7c-0.5,0.1-1.4-0.8-2.1-1.6c-0.8-0.8-1.4-2.4-2.2-3s-1.5-1.1-1.6-1.8
	c-0.1-0.7-0.1-1.6,0.3-2c0.4-0.4,1.2-0.6,1.4-1.1s0.2-1,0.8-0.9s0.9-0.5,1.2-0.9c0.3-0.3,0.6-1.1,0-1.4c0,0-0.2-0.2-0.9-0.7
	c-0.7-0.5-0.5-0.3-1.3-0.6s-1.1-0.5-1.5-0.6c-0.4-0.1-0.7-0.3-1.3-0.4s-0.9,0.1-1.4,0.1c-0.5,0.1-0.9-0.5-1.2-1
	c-0.3-0.5-0.8-1-1.2-1.3s-0.7-0.7-0.9-1.5s-0.5-1.1-0.9-1.1c-0.3,0.1-0.8,0.4-0.7,1s-0.1,0.8-0.7,0.5s-0.7-0.3-1.1-1
	c-0.3-0.7-0.5-1.2-0.9-1c-0.3,0.3-0.6,1-1,1.1c-0.3,0.2-0.5-0.2-1.1-0.8c-0.5-0.6-0.8-0.5-1-0.1c-0.2,0.4-0.4,1.1-0.4,1.1
	s-0.5-0.1-0.9,0.2c-0.4,0.3-0.1,0.5-1.2,0.6c-1.1,0.1-1.8,0-2.5-0.2s-1-0.5-1.3-1.4c-0.3-0.8-0.5-1.3-0.8-2.1
	c-0.3-0.8-0.1-1.1-0.6-1.1s-0.7-0.4-0.7-1.1s0.6-0.5,1-1.1c0.4-0.5,0.5-1.4,0.5-1.4s0.8,0.8,1.2,1.1c0.4,0.3,0.8,0.3,0.8-0.5
	s0.1-1.5,0.8-2.1c0.7-0.6,1.2-0.1,1.2-1.2s0.2-1.3,0.5-1.6c0.3-0.3,0.8,0.2,1.1,1l0.3,0.8c0,0,0.7-0.1,0.9-1
	c0.2-0.8,0.1-1.1-0.1-1.7c-0.3-0.5-1-1.4-1.8-2.1c-0.8-0.7-1.1-1.6-1.5-2.2c-0.5-0.6-0.8-0.7-1-2.3c-0.2-1.6-0.2-3.4-0.2-5.2
	s0.6-2.6,0.1-3.7c0,0-0.5-0.7-1.1-1.7c-0.5-1-0.7-1.3-1.2-2.2c-0.5-1,0.1-0.3-0.8-1.9c-0.9-1.6-0.8-1.1-0.8-2.8s0.1-2.7-0.3-4.1
	c-0.4-1.4-0.5-2.2-1.2-2.4c-0.7-0.3-1.3-1.1-2-2c-0.7-0.9-0.5-1-0.6-2c-0.1-1-0.1-1-0.6-0.5c-0.5,0.5-1.3,0.5-1.9,0.2
	c-0.6-0.3-0.3-1.5-1.4-2c-1.1-0.5-2.1-0.3-3.2-0.6s-2.6-0.8-3.5-0.4c-1,0.4-1.9,1.5-2.7,1.9s-1.4,0.8-1.7,1.3
	c-0.3,0.5-0.7,0.7-1.3,1.1s-0.9,0.9-0.9,1.6s-0.5,2.2-0.8,2.9s-0.3,1.3-1,1.5c-0.7,0.2-0.8,0.1-1.6-0.4c-0.8-0.5-2-0.2-2-0.2
	s-0.8,0.7-1.4,1.1c-0.5,0.4-1.2,0.3-1.6,0.3s-1.2,0.1-1.6,0.7s-1.5,1.5-2,1.4c-0.5-0.1-1.5-0.2-1.3-1.1c0.2-1,0.2-1.6,0.2-1.8
	s-0.5-1.1-1.3-1.8c-0.8-0.7-0.7-1-1.6-1.9s-0.7-2-1.5-2.8c-0.8-0.8-1.2-0.9-2-0.7c-0.7,0.2-1.7-0.2-2.4-0.1
	c-0.8,0.1-3.1,0.5-3.8,0.8c-0.7,0.3-2.2,1.2-2.6,1.6c-0.5,0.4-2,0.4-2.5,1c-0.5,0.6-1.6,1-2.4,1.6c-0.9,0.7-1.8,0.1-2.7,0.7
	c-0.9,0.7-2.7,0.7-3.1,0.8c-0.4,0.1-1.3,0.1-2.1-0.5c-0.8-0.6-1-0.7-1.1-1.6c-0.1-1,0.5-1-0.5-1.3c-1-0.3-1.5-0.8-2.4-0.5
	s-1.4,0.5-2.2,0.3c-0.8-0.2-1.2,0.1-1.6,0.2c-0.3,0.1-1.2,0.1-1.5-0.5c-0.3-0.6-0.8-0.5-0.5-1.4c0.3-0.9,0.2-1.5-0.3-1.8
	c-0.5-0.3-1.4,0.4-1.9,0.7c-0.5,0.3-1.8,0.9-2.2,1.3c-0.4,0.4-1,1.1-1.4,0.9s-0.3-0.7-1-1c-0.7-0.3-1.1-0.1-1.6-0.2
	c-0.5-0.1-0.9-0.8-1.5-1.3c-0.6-0.5-0.9-0.3-1.8-1.2s-0.8-0.6-1-2.2c-0.3-1.6-0.5-1.9-0.1-3c0.5-1.1,0.1-0.7,1.2-1.6
	c1.1-0.8,1.8-0.8,1.4-1.3c-0.3-0.5-0.8-0.8-0.7-1.6s0.5-0.8,0.7-1.1c0.2-0.3,0.1-1-0.4-2.2c-0.5-1.2-0.7-2.2-0.9-3.2
	c-0.1-1-0.1-1.5-0.1-2.7s0.3-2,0.8-2.9c0.4-0.8,0.7-1.5,0.3-2.6c-0.3-1.1-0.6-1.6-0.4-2.5c0.2-0.9,0.1-1.7,0.3-2.9
	c0.2-1.1,0.2-2.4,0.6-3.7c0.4-1.3,0.7-2.2,1.2-2.5s0.7-0.9,1-1s0.2-0.6,0.6-1.1c0.4-0.5,0.4-0.8,1.4-1.7c0.9-0.9,2-1.9,2.4-2.5
	c0.4-0.6,0.8-0.7,0.5-1.3c-0.3-0.5-0.8-0.6-1.5-0.6s-2.7,1.1-3.7,1.2c-1,0.1-1.5,0.6-2.3,1.1s-2.1,0.3-3.5,0.7
	c-1.4,0.3-3,0.1-4.3-0.1c-1.3-0.2-1.5-0.3-3-0.4c-1.5-0.1-3.9-0.4-4.5-0.3c-0.5,0.1-1.9,0.7-3,0.8c-1.2,0.1-4,0.2-5,0.4
	c-1,0.2-3,0.5-4.4,1.6s-2.6,1.7-3.6,2.2c-1,0.5-2,1.3-3.4,1.9s-1.7,0.9-2.6,1.3c-1,0.4-2.8,1.2-3.9,1.6s-2,0.7-3.1,1.3
	c-1.1,0.5-2.9,1.1-3.8,1.6c-0.9,0.5-2.6,1.2-3.9,1.4c-1.3,0.2-3.4,0.1-4.3,0.1s-2.6-0.1-3.9-0.1s-2.5-0.3-2.7,0.1
	c-0.2,0.4-0.2,1-0.3,1.5c-0.1,0.5-0.2,0.5-1.2,0.5c-1-0.1-1.6-0.3-2.1-0.5c-0.5-0.2-0.6-0.5,0.2-1.1c0.8-0.7,1.6-0.9,0.9-1.2
	s-1-0.3-1.8-0.5c-0.8-0.3-1.4,0.3-2.3,0.8c-1,0.5-5.4,0.2-7.2,0.2s-3.5,0.1-4.5-0.2c-1-0.3-2.3-0.3-3.8-0.7
	c-1.5-0.4-3.2-0.8-4.6-0.9c-1.4-0.1-3.1,0.3-4.6,0.4s-2.9,0.3-3.7,0.5c-0.7,0.2-1,0.4-1.5,1c-0.5,0.6-1.2,1.1-2.1,1
	c-0.9-0.1-1.4-0.1-2.3-0.3c-1-0.2-1.5,0.5-2.6,0.6c-1.2,0.1-1.7,0.9-2.6,1.4c-1,0.5-3.6,0.8-4.7,1.1c-1.1,0.3-2.3,0.3-3,0.3
	s-0.7-0.1-1.4-0.8c-0.7-0.7-1.6-1.9-2.3-2c-0.7-0.1-2.6,0.9-3.2,1.6s-1.8,2-2.7,2.9c-0.9,0.8-3.7,2.7-4.8,3.3
	c-1.1,0.6-2.9,1.6-4,2.4s-3.2,2.4-3.5,2.9c-0.3,0.5,0,0.5,0.3,1s0.1,0.5-0.3,1.5c-0.5,1-1.4,1.4-1.7,1.4s-0.3,0.3-0.7,0.5
	s-1.1,0.3-1.1-0.5s0.1-1.1-0.3-1c-0.5,0.2-1.5,0.4-2.9,1.1c-1.4,0.7-2.3,0.9-3.4,1.7c-1.1,0.8-1.8,0.8-3,0.9c-1.3,0.1-2-0.4-2.6-0.1
	s-1.2,0.7-1.5,1.4c-0.3,0.6-0.4,1-0.4,1.7s-0.3,0.4-1,0.8c-0.6,0.3-1.1,0.6-1.8,1.4c-0.7,0.8-1.4,1.4-1.5,1.9
	c-0.1,0.5-0.6,0-1.4,0.5c-0.7,0.5-1.5,1.4-2.2,2.1c-0.7,0.8-0.7,0.8-1,1.6c-0.3,0.7-0.8,0.7-1.4,1.6c-0.6,0.9-0.8,0.9-1.3,1.6
	c-0.5,0.7-0.8,0.7-1.4,0.8c-0.6,0.1-1.7,2.2-1.9,2.9c-0.2,0.7-0.3,1.1-0.7,2s-0.5,1.3-1.4,1.4s-1.8,0.5-2-0.5c-0.1-1-0.1-0.9,0-1.8
	s0.2-1.4,0-2c-0.2-0.5-0.3-0.5-1-0.5s-0.7,0.2-1.8,0.5c0,0-0.5-0.1-1.5-0.1s-1,0.4-1.6-0.3c-0.7-0.7-1-1.3-1.6-2s-0.4-1.6-1.2-2.2
	c-0.8-0.6-1.3-0.9-2.1-1.1c-0.8-0.2-1.9,0.1-2.8,0.3c-0.9,0.1-1.4,0.8-2.1,1.1s-1,0.6-0.9,1.4c0.1,0.8,0.3,2.4-0.2,2.9s-1.5,1-2,1.1
	c-0.5,0.1-1.7,2.5-1.2,2.9c0.5,0.4,0.9,0.6,1.1,1c0.3,0.3,0.2,1,0.3,1.4c0.1,0.5-0.1,0.7-0.5,1.3c-0.4,0.6-0.9,1.5-0.9,1.5
	s0-0.9-0.3-1.8s-0.4-0.1-0.4-2s-0.3-1.6-0.3-2.8s-0.2-0.7-0.9-1.4c-0.7-0.6-0.8-0.4-1.5-1c-0.7-0.5-0.9,0-1.5-1.3s-0.7-1.9-1.4-2.2
	c-0.7-0.3-1.6-0.5-2.6-0.7s-1.4-0.3-2-0.8c-0.6-0.5-0.9,0.1-0.6-1.1c0.3-1.1,0.8-1-0.2-2.4s0.1-0.7-1.1-2.6c-1.2-1.8-0.8-2.5-1.8-3
	c-1-0.5-1.4-0.3-2.4-1c-1-0.6-1.2-0.1-1.8,0.1c-0.6,0.2-0.4,0.6-1.2,1.1s-1.3,1.1-2.2,1.5s-1.2,0.1-2,0.1s-1-0.3-1.8,0.5
	c-0.7,0.8-1.7,1.9-2.4,2.2c-0.7,0.3-2,0.7-3.1,0.6s-1.3-0.5-2.2-0.8c-1-0.3-2.4-0.1-3.1,0.3s-2,1.5-3.1,1.5s-4.3-0.5-5.4-0.5
	c-1.1-0.1-3.6-0.4-4.5-0.5c-1-0.1-2.4-0.4-3.2-0.8s-1.6-1-2.6-1.5c-1-0.5-1.4-0.9-2.2-1.6c-0.9-0.7-0.9-0.7-0.7-1.2
	c0.2-0.5-0.2-1.3,0.5-1.6c0.7-0.3,0.3-0.3,0.8-0.7s0.4-1,0.4-1.8s0.2-1.3-0.5-1.4c-0.7-0.1-1-0.6-1.1-1.1c-0.1-0.5-0.1-1.1,0.5-1.5
	c0.6-0.3,0.7-0.2,0.9-1c0.1-0.8-0.1-1.1-0.5-1.2c-0.4-0.1-0.5,0.2-1,0.5s-0.5-0.6-1.1-1c-0.4-0.3-0.7-0.6-1.1-1
	c-0.5-0.5-1.3-0.3-0.7,0.2c0.6,0.5,1.1,0.8,0.6,1c-0.5,0.2-0.9,0.6-1.5,0s-1.5-1.6-2.2-2.4c-0.7-0.8-1.2-0.7-1.4-1.8
	c-0.2-1.1-0.1-1.6-0.3-2.2c-0.1-0.4-0.5-0.7-1.1-0.8c-1-0.2-1.5-0.8-2-1.1s-0.9-1.2-1.3-2s-0.5-1.2-1.1-1.9s-0.5-0.5-0.5-1.7
	s0.3-1.7-0.8-2.2c-1.1-0.5-2-1.6-3-2.5s-1-1.1-2-2.5c-1-1.4-1-1.8-1.1-3.7c-0.2-2-0.3-2.2-0.1-3.5c0.1-1.3-0.1-2.1-0.1-2.1
	s-0.5-0.3-1.3-0.8c-0.8-0.5-1.5-1.3-2.4-2.1s-1.1-1.2-1.7-1.2s-0.7,0.3-1.4,0.6c-0.7,0.3-1.2-0.1-1.5-0.1s-0.8,0.5-0.8,1.1
	s-0.9,0.8-1.1,1c-0.2,0.3-0.9-0.3-1.4-0.7c-0.5-0.4-1,0.1-1.5-0.7c-0.5-0.7-0.7-1.3-0.3-1.5c0.4-0.2,0.5-0.2,1.1,0.1
	c0.6,0.3,1,0.5,1.5,0.1c0.5-0.4,0.7-0.5,1-0.1c0.3,0.4,0.3,0.5,0.9,0.5s1-0.1,1.6-0.1s1.1-0.5,0.7-0.8s-0.7,0-1-1
	c-0.3-1-0.3-1.1-0.7-1.7c-0.5-0.6-1-1.5-1.5-1.1c-0.5,0.3-0.7,0.8-0.9,1.3c-0.1,0.5-0.1,1.4-1,1.2c-0.9-0.1-1.1-0.3-1.7-0.6
	c-0.6-0.3-1.4-0.5-1.6-1.6c-0.1-1.1,0-1.6-0.2-2.7c-0.2-1.1-0.8-1.5-1.4-1.5s-2-0.1-2.4-0.7c-0.4-0.5-0.3-1.2-0.6-1.6
	c-0.3-0.4-0.8-0.8-1.4-0.9c-0.5-0.1-1.3,0-1.7,0.1c-0.4,0.1-0.5,0.4-0.5,1s-0.4,1.1-1.2,1.4c-0.8,0.3-1.6,0.1-1-0.5
	c0.7-0.6,1.1-1.1,1.5-1.4c0.4-0.3,1.3-0.6,0.4-1.1c-0.9-0.5-0.8-0.8-1.3-0.8s-1,0.1-1.4,0.5c-0.4,0.4-1.1,0.7-1.7,0.6
	c-0.6-0.1-0.4,0-1.3-1s-1.4-1.7-2.4-2.1c-1-0.4-1.3-0.7-2.2-0.7c-0.9,0.1-1.4,0.3-2.4,0c-1.1-0.3-1.6-0.1-2.2-0.2
	c-0.7-0.1-1.4-0.5-2.1,0c-0.7,0.5-1.2,0.9-2.2,0.9s-1.6-0.5-2.6-0.8c-1-0.3-1.1-0.1-2.2-0.5c-1.1-0.3-1.5-0.5-2.7-0.9
	s-2.2-0.4-3.1-0.1s-1.8,0.8-2.3,1.2s-1.1,0.5-2.1,0.5c-0.9,0.1-1.6,0.3-2.4,0.5c-0.8,0.2-1.9,0.3-2.7,0.5c-0.8,0.1-1.6,0.3-1.9,0.5
	c-0.3,0.2-0.9,0.1-1.1,1.2s-0.5,1.2-0.9,1.9c-0.5,0.7-1.2,1-1.6,1.9c-0.4,1-1.5,2-1.8,2.6c-0.3,0.7-0.7,1.6-1.2,2.4
	c-0.5,0.7-1.1,1.3-1.8,1.6c-0.7,0.3-1.1,0.5-1.1,0.5s0-1.3,0.6-2.2s1.6-2.2,2.2-3c0.6-0.7,0.7-1.7,1.1-2.3s0.5-0.8,0.8-1.8
	c0.3-1,0.5-1.5,1.3-2.4c0.8-1,1.8-1.3,2.8-2.2s2-1.3,3-2.1c0.9-0.8,2.4-1.7,3.2-2.5s0.7-1.4,1.1-2s0.5-0.4,0.5-1.4
	c-0.1-1-0.2-1.3-0.8-1.1s-1.1,0.5-1.6,1.1c-0.5,0.6-1.4,1.2-2.1,1.2s-1-0.2-1.6,0.5c-0.5,0.7-1.4,1.4-2.1,1.8
	c-0.7,0.3-1.2-0.1-1.8,0.2c-0.6,0.3-1.2,0.7-2.4,1.8s-1.6,1.6-2.3,2.5s-1.7,1-2.6,2.2s-2,0.5-2.4,1.1c-0.4,0.6-0.3,0.9-0.8,1.5
	s-1.3,1.1-1.9,1.9c-0.6,0.7-1.3,1.3-1.6,1.1c-0.3-0.2-0.4-0.6-0.7-1.4c-0.3-0.7-0.6-1.2-1-0.9s-0.9,0.8-1.6,1.4s-0.7,1.2-0.6,1.6
	s0.5,0.2,1.2,0.3c0.7,0.1,0.8,0.5,0.9,1.2s-0.6,1.1-1.1,1.7c-0.5,0.6-1.1,1.8-2,2.8s-1.7,1.9-2.2,2.8c-0.5,0.9-0.8,1.2-1.2,2.2
	s-1,2.1-1.2,2.6c-0.2,0.5-0.7,0.7-1.5,1.3c-0.8,0.5-1.7,0.8-2.2,0.4c-0.5-0.4-0.7-1.4-0.6-2s0.1-1.8,0.7-2.2
	c0.6-0.3,0.9-0.4,1.6-0.5c0.6-0.1,0.6-0.7,0.8-1.4c0.2-0.7-0.1-1.5-0.5-2.2c-0.5-0.7-0.7-1.6-0.9-2.5s-0.7-1.8-0.6-2.4
	c0.1-0.7,0.3-0.9,0.3-2c0.1-1.1,0.1-1.8,0.3-3c0.1-1.2-0.1-1.5,0.8-3.6s1.3-2.3,2-3.4c0.7-1.1,0.5-1.5,1-2.9c0.5-1.4,0.7-2.4,0.7-4
	s0.2-2.1,0.1-3.2c-0.1-1.1-0.5-3.1-0.8-3.7s-0.5-1-1.1-1.1c-0.5-0.2-1.2-0.7-1.9-1.4c-0.7-0.7-0.9-0.7-1.5-1.6
	c-0.5-0.9-0.7-1.1-1.3-1.6c-0.5-0.5-0.9-0.6-1-1.9c-0.1-1.3,0-2,0.2-3.9s0.2-3.1-0.1-4s-2-2.4-3-2.6c-1-0.1-2.2-0.3-3-0.3
	s-2.1-0.1-2.9-0.1s-1.2-0.4-1.9-1.3s-0.7-1.6-1-2.3c-0.3-0.7-1-0.7-1.2-2.4c-0.2-1.6-0.5-2.5,0.2-3.3c0.7-0.8,1.5-2,1.7-2.8
	c0.2-0.7,0.7-1.2-0.1-2.4c-0.7-1.2-1.1-2.2-1.8-2.4c-0.7-0.1-0.3-0.2-1.8,0.7c-1.4,1-3.4,2.2-4.3,2.8s-1.6,1.4-2.4,2
	s-1.9,1.6-2.4,2.5c-0.5,1-1.1,1.9-1.4,2.7s-0.5,1.3-0.5,1.3s-1.3-0.4-2-0.2c-0.8,0.2-1.3,0.3-2.2,1.1s-1.8,1.1-2.4,2.1
	c-0.7,1-0.8,1.2-1.4,1.6c-0.7,0.4-1.7,0.4-2.8,1.4c-1.1,1-2.1,1.5-2.9,2c-0.8,0.5-1.4,0.8-1.8,1.4c-0.3,0.6-0.5,1.2-0.5,2.9
	s-0.3,1.4-0.9,2.8s-0.9,2-1.5,3s-1.6,1.7-2.2,2.5c-0.3,0.4-0.7,0.9-1.1,1.3c-0.2,0.1-0.4,0.2-0.6,0.3c-2.2,1.1-4.6,1.9-6,1.9
	s-0.7-1.4-1.5-1.1c-0.8,0.3-1.8,1-3,1.4c-1.2,0.4-2,1.5-3.4,0.1c-1.4-1.4-1.9-1.4-2.4-1.4s-2.2,1.6-3,2.6s-1.6,1-2.6,2.6
	c-0.9,1.6-3,4.5-4.1,5.8c-1.1,1.4-2.8,2.9-4.9,3.5c-2,0.7-4.5,1.9-5.8,3.2s-4.7,2.3-5.7,3.2s-5,1.5-6.5,2.2
	c-1.5,0.7-4.1-0.3-6.4,0.1c-2.3,0.4-7.7,0.3-10,1.4c-2.3,1.1-3.2,2.3-4.2,2.6c-0.9,0.3-1.2-0.1-2.6-1.1c-1.3-1-5.4-1.8-7-1.5
	c-1.6,0.3-7.2,1.1-8.4,1.9c-1.2,0.8-3.9,1.2-4.9,2.3c-1,1.1-6.5,6.9-10.3,9.9c-3.8,3-5.6,6.1-8.3,7.7c-2.7,1.6-5.4,3.9-6.9,4.5
	s-6.1,1-8.8,1.9c-2.7,1-5.3,0.4-8.4,2.3c-3.1,1.9-4.7,2-6.2,3s-2,1.1-3.4,0.8c-1.4-0.3-2.2-0.3-3.2,0.4s-3.5,3-4.5,3.4
	S0,425.3,0,425.3s1.6,4.3,3.5,4.1c1.9-0.3,2.4,0.5,3.8-0.5c1.3-1.1,1.9-3.2,3.5-0.5c1.6,2.7,4.1,3.8,7.1,5.7c3,1.9,4.9,3,7,6
	c2.2,3,2.4,7.3,4.3,10c1.9,2.7,3.5,7.6,3.5,7.6l0.3,3.5l102.7,30.9l12.9,7.1l-0.1,1.8l13.6,7.4c0,0,1.8,2.4,3.6,3.4
	c1.8,1.1,4.5,0.4,6.5,0.7s4.3,0.2,5.6,0.5c1.3,0.4,3.2-0.4,4.7,0.9c1.4,1.3,2.4,3.2,3.6,3.8s1.4-0.9,2.4-2.7
	c0.9-1.8,1.8-0.9,3.4-0.4c1.6,0.5,3.2,0.4,4.5,0.2c1.3-0.2,3.4-0.2,3.4-0.2s1.7,0.2,2.4,0.9c0.7,0.6,0.9,1.2,1.5,1.3
	c0.5,0.1,1.4-1,2.3-0.9c0.9,0.1,2.6,1.5,3.2,2.2s2,0.7,2.8,0.5c0.8-0.1,1.7-1,2.7-1c1-0.1,2.5,0.8,3.2,1.4s1.8,1.2,2.6,2.2
	c0.7,1.1,1.4,1.3,2.3,1.4s0.9,0.5,1.6,0.8c0.7,0.3,0.6,0.5,1.9-0.2c1.3-0.8,2-1,2.8-0.7s1.6,0.8,2.1,1.2c0.5,0.5,1.6,1.4,2.8,1.2
	c1.2-0.3,2.3-0.3,3.4,0.3c1.1,0.5,1.6,0.8,3.5,1.6c1.9,0.9,2.1,1,3.1,1.6c1,0.6,1.6,1.5,2,2.4c0.4,0.9,0.6,1.9,0.9,3
	c0.3,1.1,0.5,1.3,1.2,1.8c0.7,0.5,0.9,2.2,1,2.8s-2,1.1-2.7,2c-0.7,1-1.1,2.4-1.9,2.9c-0.8,0.5-1.5,1-1.7,1.4
	c-0.2,0.5,0.1,1.7,1.5,2.6s3,1.9,4.1,2.5s2,0.7,2.6,0.5c0.6-0.2,1.2-1,2.2-1.6s2.2-0.3,3.2-0.1c1,0.3,1.4,0.8,1.8,1.3s0.1,1.3,0.2,2
	c0.1,0.7,0.7,1.3,1.6,2.1c1,0.7,1.4,0.7,2.3,0.7s2.3-0.2,3.5-0.1c1.1,0.1,2.6,0.3,3.3,0.7s1.8,1.6,2.4,2.4s1.5,2.6,2.5,3.2
	c1,0.6,2.4,1.2,2.9,2c0.5,0.7,0.5,1.5,1.4,2.3s1.2,1.3,2,2.4s0.3,1.8,0.1,2.2c-0.2,0.4-1.6,1.4-2.2,1.5s-1.6,1-1.8,1.4
	s-0.1,1.7,0.7,2.6s1.4,1.9,2.2,3.2c0.7,1.3,0.5,2.6,0.5,3.7c0.1,1.2-0.5,2.7-1,3.7c-0.5,1-0.8,2-1.8,1.7c-1-0.3-1.8-0.6-2.1-0.3
	c-0.3,0.3-0.2-0.1,0.7,1c0.9,1.1,1.1,2.4,1.4,3.5c0.3,1.2,0.5,1.3,0.8,2.5c0.2,1.2-0.3,2.4-0.5,3.5c-0.2,1.1-0.3,2.6-1.1,3.5
	s-1.8,2.1-2.4,2.7c-0.6,0.6-1.6,1.8-2,2.6s-0.6,1.4-0.5,2.4c0.1,1,0.7,1.8,0.2,3.2c-0.5,1.3-1.1,2.6-1.5,3.2s-1.4,1.8-1.3,2.4
	s0.3,1.3,0.7,0.7s0.8-0.9,1.3-0.6c0.5,0.3,1.3,1.6,2.5,2c1.2,0.4,3.1,0.5,4.5,0.5s3.3,0.1,4.4-0.2s1.3-1,1.9-1.6s2.4-1.9,3-2.5
	c0.6-0.6,1.2-1.2,2.3-0.7s2.2,2,2.8,2.8s1,2.8,0.9,3.9c-0.1,1.1-1.1,1.2-1.6,2c-0.4,0.8-3.2,6.1-3.6,7c-0.4,0.9-1.3,3.2-1.8,4.4
	s-0.7,2.5-1.2,3.2c-0.5,0.7-0.9,1.3-1,2.5c-0.1,1.2-0.7,2.2-1,3s-0.6,3.6,0.2,4.3s1.2,1,2.2,1.5s1.6,1.1,2,1.8s2.6,2.8,3.3,3.5
	s0.7,1.6,1.2,1.8s1.5-0.9,1.9-1.3s1.4-2.1,2-2.5c0.6-0.4,1-0.7,1.4-1.7c0.3-1,0.4-1.7,1.1-2c0.7-0.3,1.2-1,1.8-1.8s1.4-2,2.3-2.8
	c0.9-0.7,1.6-1.2,2.4-2.3c0.7-1.2,1.2-2.3,2-3.3c0.7-1,2.3-3.6,2.9-4.6c0.6-1,1.1-2.2,2.2-3c1-0.8,1.6-1.6,2.3-2s0.5-0.5,0.6-1.5
	c0.1-1-0.2-1.3,1-2.6c1.1-1.3,1.6-2.4,2.3-3.2c0.8-0.8,1.3-1.2,1.4-2s-0.1-2.2,0.5-2.7c0.7-0.5,1.1-1.4,1.8-2.4
	c0.6-1,0.7-0.5,1.6-2.3s0.7-1.9,1.3-2.4c0.6-0.5,1-0.5,1.4-1.2c0.4-0.6,0.3-0.6,0.4-2.2s0.3-3,1-3.8c0.7-0.7,2-3,2.6-4.3
	c0.6-1.3,1.4-3.3,1.9-4.4c0.5-1.1,1-2,1.5-3.5c0.5-1.5,0.7-2.4,1.5-3.4s1.9-2.2,2.4-3.2c0.5-1,1.2-2.3,1.7-3.5
	c0.5-1.2,0.9-2.2,1.5-3.3s0.7-2.1,1.7-2.4c1-0.3,1.6-0.7,1.6-0.7s-0.3-0.5,0.1-1.3s1.1-1.3,2.2-1.8c1-0.5,2.2-1.3,3-1.6
	c0.9-0.3,2.2-0.9,3-1.7c0.8-0.8,1-1.6,1.7-2c0.8-0.3,2-0.5,2-1.1c-0.1-0.5,0.6-0.8,1-1.1s0.7-0.2,0.6-1.6s-0.1-1,0.1-1.8
	c0.2-0.8-0.3-1.2-0.9-1.7c-0.6-0.5-1-0.7-1.3-2.3s0.7-4.3,0.7-5.9c0.1-1.6-0.3-2,0.3-3.1c0.5-1.2,0.5-1.8,1.6-2.4
	c1.1-0.6,1.2-0.2,2.3-0.3s2.1-0.5,2.4-1.2c0.3-0.7,0.1-0.3-0.2-1.6c-0.3-1.3-0.7-1.3,0.1-2.6c0.7-1.2,1-1.1,1.5-2.4
	c0.5-1.3,0.3-1.8,1.1-2.4s1.1-1,1.5-0.3c0.4,0.7,0.4,1.3,1.1,2c0.8,0.7,0.7,1.2,0.5,2c-0.1,0.7-0.6,2.2-1.6,3
	c-1,0.8-1.6,0.8-1.7,1.8s-0.4,1-1,1.8c-0.5,0.8-1.4,1.8-0.8,3c0.6,1.2,0.6,2,0.8,2.9c0.1,1,0,1.1-0.1,1.3c-0.1,0.3-0.9,2.4-1.1,3.2
	s0.8,2.6,1,3.4c0.1,0.8,0.3,1.4,0.3,2.1s0.5,1,0.6,2.1c0.1,1.1-0.2,1.8-0.1,2.8s0,1.8,0.7,2.4s0.3,0.4,0.7,1.5s0.3,2,1,1.1
	c0.7-1,1.2-1.4,1.7-2.3s0.6-1.7,1.3-1.9c0.7-0.2,0.5-0.3,1,0.3c0.4,0.6,0.5,0.4,1.1-0.3c0.6-0.7,0.7-1.3,1.7-1.3
	c1-0.1,1.6-0.1,2.6-0.1s0.9-0.5,1.9-0.8c1-0.3,1.4-0.2,1.8-1c0.4-0.7,0-1,0.5-1.3c0.5-0.3-0.3-0.5,0.1-1.5s0.5-1.5,1.1-1.8
	c0.5-0.3,0.5-0.7,0.5-1.8s0.1-1.3,0.7-1.6c0.6-0.2,0.5-0.6,0.7-1.5s0.1-1.2,1-1.4c0.8-0.3,1.5-0.6,1.8-1.4s0.5-0.7,0.1-2.1
	c-0.4-1.4-0.5-1.9-0.4-3.2c0.1-1.3,0.5-1.8,0.5-2.8s0.3-1.5,1.4-1.5s1.3,0.8,2.4,1.1c1.1,0.3,1.3,0.3,1.7,0.7
	c0.4,0.5,0.1,1.6,0.9,1.6s0.4-0.4,1.4-0.4s1.4,0.3,2.3,0.7c1,0.3,1.4,0.3,2.2,0.4c0.8,0.1,1.1,0.3,1.8,0.5c0.7,0.2,1.1-0.3,1.4-0.8
	c0.3-0.5,0.1-1.2,0.6-2.1c0.5-0.9,0.8-2,1.8-2.5c1-0.5,0.7-0.6,1.6-1c0.9-0.4,0.5-0.5,1.3-1.6c0.7-1,0.9-1.5,1.8-1.8s2-0.5,2.9,0.4
	s1.4,1.4,1.7,2.2c0.3,0.7,0.3,1.7,0.1,2.4c-0.2,0.7-0.2,1-0.1,1.9c0.1,0.9,0,1.9-0.5,1.9s-0.8,0-1,0.5s-0.7,0.5-0.9,1.2
	c-0.1,0.6,0.1,0.3-0.1,1.3c-0.1,1-0.2,1.1-0.7,1.8c-0.5,0.8-1.1,0.7-1.4,1.5c-0.3,0.8-0.5,1-0.1,1.6c0.4,0.6,0.7,0.7,1.3,1.3
	c0.5,0.6,0.3,1.2,0.2,1.6c-0.1,0.3-0.8,0.4-1.4-0.3c-0.5-0.7-1-1-1.3-1s-1.1,0.6-1.2,0.9c-0.1,0.3-0.4,0.1-1.1-0.3
	c-0.7-0.5-0.8-0.5-1.4-1c-0.5-0.5-0.7-0.1-0.7,0.3c-0.1,0.4-0.3,1.3-0.6,1.5s-0.5,0.5,0.2,1c0.7,0.5,1,0.5,1.1,0.8
	c0.1,0.3-0.5,0.8-1.1,1c-0.5,0.2-0.6,0.7-0.8,1.5c-0.1,0.8-0.7,0.8-0.8,1.2c-0.1,0.3,0,1.2-0.4,1.3s-0.9,0.2-1.3,0.5
	c-0.4,0.3-0.6,0.5-0.6,1.1s0,1.9,0.1,2.6c0.1,0.8-0.3,1-0.7,1.2c-0.4,0.2-0.7,0.6-1.4,0.5c-0.7-0.1-1.2-0.1-1.9-0.1
	s-1.4,0.8-1.4,1.2s-0.1,1.2,0.1,2c0.2,0.8,0.1,1.9,0.3,2.4c0.2,0.5,0.2-0.2,0.9,0.2c0.7,0.4,0.9,0.2,1.1,1.3c0.2,1.2,0.3,1.6,1,2.2
	s1.3,1,2.2,1.4s1.3,0.7,1.9,0.6c0.6-0.1,0.7-0.5,1.6,0.4c0.9,1,1.2,1.7,1.8,2s0.7,0,1-1c0.2-1,0.4-1.3-0.2-2c-0.6-0.7-0.9,0-1.1-1.1
	c-0.2-1.1-0.2-1.4-0.5-2.6s-0.3-1.1-0.2-2c0.1-1,0.2-1.3,0.8-1.4s0.7,0.4,1.3,0.7c0.6,0.3,1,0,1.4-0.7c0.3-0.8,0-2.1,0.6-2.4
	s0.8-0.1,0.9-1.1c0.1-1-0.1-1.5,0.1-2.2s0.3-1,1.1-1.1c0.8-0.1,1-0.3,1.6,0.1c0.7,0.4,0.5,0.6,1.3,0.4s0.8-1,1.3-1.3
	c0.5-0.3,0.8-0.2,0.6-0.9c-0.2-0.7-0.8-1.2-0.3-1.3c0.5-0.2,1-0.5,0.7-1.1c-0.3-0.5-1-1.2-0.5-1.4c0.5-0.3,1-0.7,1.8-0.6
	s1,0.2,1.6,0.3s1.1,0.1,1.6-0.7c0.5-0.8,0.1-1.3,1-1.2s0.5,0.9,1.2,0.7c0.8-0.1,0.5-0.3,1.3-0.7c0.8-0.4,1.1-0.6,1.8-0.9
	c0.7-0.3,0.5-0.3,0.9-1.3c0.4-1.1,0.5-1.8,1.4-2s0.8-0.6,1.7-0.4s1.7-0.3,2.2-0.3s0.1,0.5,0.6,0.6c0.5,0.1,1.1-0.2,1.7-0.7
	c0.6-0.5,1-0.8,0.7-1.6c-0.2-0.8-0.6-1-0.1-1.5c0.5-0.5,1.1-0.8,0.8-1.7s-0.8-1.6-0.1-2.3s1.1-1.3,1.5-1.9c0.4-0.6,0.6-1,0.3-1.8
	c-0.3-0.7-0.8-0.9-0.3-1.5s0.6-1,0.6-1.8s-0.1-1.7,0.6-2.8c0.7-1.1,0.5-1.9,1.6-2.4s1.2-0.5,1.9-0.8s0.8-1,1.1-1.7
	c0.3-0.7,0.9-1.3,1.9-1.6c1-0.2,1.5-0.6,2.7-0.8c1.1-0.2,1.1-0.1,1.7-0.7s0.5-0.9,1.5-1s1.5,0.3,2.8,0.6c1.4,0.3,1.8,0.6,2.6,0.7
	c0.8,0.1,1.6-0.7,2.6-1.3c1.1-0.6,2.9-0.8,3.7-0.9s1.4-0.6,2.6-0.2c1.3,0.4,2.3,0.6,3.8,1.1c1.5,0.5,4,1.7,5.4,2s2.6,0.8,3.7,1.6
	c1.1,0.8,1.4,0.7,2.3,1.3s1.4,1.4,1.9,1.2c0.5-0.2,0.7-0.1,0.1-1.1c-0.6-1-0.5-2.3-0.3-2.8c0.1-0.5,0.4-1.6,1.2-2
	c0.8-0.4,0.9-1.1,2.2-1.3c0,0,0.5,0,1.3,0.1s2-0.3,3-0.1c1,0.2,1.4,0.5,1.9-0.1c0.5-0.6,1-1.6,1.8-1.8s2.1-0.3,3.2,0.1
	c1.1,0.5,1.4,0.4,2.6,1.2c1.2,0.7,1.4,1.3,2.3,1.1c1-0.2,1.1-0.9,1.8-0.6c0.7,0.3,0.7,1,1.9,1.2c1.1,0.1,1.4,0.1,1.9-0.3
	c0.5-0.4,0.5-1.1,1.4-0.8s1.4,0.3,1.7,0.2c0.3-0.1,0.7-0.8,1-1.7c0.3-0.9,1-1.8,1.6-2.5c0.6-0.7,0.8-1.8,1.4-2.2s1.3-1.2,1.5-1.7
	c0.1-0.5-1-0.5,0.4-2.3s2.4-2.3,3.1-3.1c0.7-0.8,1-1.8,1.8-2.7s1.7-2.1,2.7-3.1c1-1,1.5-1.3,2.4-1.9s1.2-1,2.4-0.9s1.8,0.4,2.7,1.1
	c1,0.7,1.3,1.4,1.9,1.1c0.6-0.3,1-0.5,2-1.6c1-1,1.7-1.3,2.5-0.9c0.8,0.4,1.2,1.2,1.5,1.8c0.3,0.5,0.6,0.1,1.1,0.9
	c0.5,0.8,0.5,0.9,1,0.3c0.5-0.5,0.5-1.1,1.6-1.5c1-0.3,1.9-0.8,2.8-0.3c1,0.5,1,0.8,1.8,0.5c0.8-0.2,1.2,0.1,1,0.5
	c-0.3,0.5,0,0.9,1.2,1.3s3.5,2,4.9,2.2c1.3,0.3,2.2,0.2,3.2,0.6c1,0.4,1.4,0.2,1.8,0.8c0.3,0.4,0.6,0.6,1,0.5
	c0.5-0.1,0.4-0.8,1.1-1.3c0.7-0.5,1,0.1,1.2,0.5c0.2,0.4,0.5,0.6,1.5,0.7s1.8-0.1,2.8,0.5c1,0.6,1.5,1,2.4,1.9s1.7,0.6,3.3,0.8
	c1.5,0.2,3.2,0.7,4.5,1.3s1.5,0.5,2.5,1.3c1,0.9,1.7,2.1,2.8,2.2c1.2,0.1,1.4,0.1,2.1,0.1s1.1-0.1,0.6-0.7c-0.5-0.5-1.6-1.2-1.1-1.9
	c0.5-0.7,0.4-1.2,1.2-0.9c0.8,0.3,1,0.3,1.9,0.3c0.9-0.1,0.8,0.3,1.9,0.5c1.2,0.2,0.8,0,1.6-0.3c0.7-0.3,1.5-0.1,1.8,0.5
	s0.6,0.5,1,0.7c0.4,0.1,0.3,0.3,0.4,1c0.1,0.6,0.2,0.5,0.5,1.4c0.3,0.9-0.1,1.2-0.5,1.2c-0.3-0.1-1.8-0.5-2.3,0.1s-1.2,1.3-1.7,0.4
	c-0.5-1-1-0.6-1.3-1.3c-0.3-0.7-0.4-1.6-1-1.2c-0.5,0.5-0.9,0.5-1.6,0.8c-0.8,0.2-1.3,0.2-1.9,0.3c-0.6,0.1-1.4,0.1-1.4,0.1
	s0.5,0.4,1.5,1.3c1,0.9,1.5,1.4,2.1,1.9c0.6,0.5,0.5,0.2,1.2,0.6s0.9,0.9,0.9,1.6s0.1,2,0.7,2.8c0.6,0.8,0.9,1.8,2.3,1.9
	c1.4,0.1,1.7-0.2,2.6,0.5c0.9,0.8,1.1,1.1,1.7,1.7c0.6,0.6,1.3,1.7,1.7,1.7c0.8,0,1,0.1,1.2,0.7c0.2,0.6-0.2,1.4,0.2,2.5
	c0.4,1.1,1.7,1.7,2.5,1.8c0.8,0.1,1.4,0.1,2,0.5s1.1,1.9,2,1.9c0.9-0.1,0.9,0.7,1.6,1.1c0.7,0.4,1.1,0.5,1.2-0.1
	c0.2-0.6,0.9-1.6,1.7-1.2c0.8,0.4,2,0.5,2.9,0.6s1.5,0.1,1.4-0.8c-0.2-0.9-0.4-0.7-1.2-1.2s-1.4-0.5-1.4-1.7
	c0.1-1.2,0.2-1.4-0.3-2.3c-0.4-0.9-0.8-0.7-0.9-1.5c-0.1-0.8-0.7-2.1-0.1-2.4c0.7-0.3,1.3-0.5,1.9-0.7c0.6-0.1,0.3-0.7,0.1-1.2
	s-0.7-1.1-1.4-1.7c-0.7-0.6-1.3-0.8-1.4-2c-0.1-1.2-0.1-2.2,0.8-1.9c0.9,0.2,1.2,0.1,2-0.9c0.7-0.9,0.9-1.3,1.7-1.3s1.4,0.4,1.2-0.7
	c0,0-0.1-0.2-0.3-1c-0.2-0.8-0.7-1.3-0.1-1.4c0.6-0.1,1.1-0.5,1.1-1.2s0.4-0.7-0.1-1.4c-0.5-0.7-0.7-1.4-0.9-1.9
	c-0.2-0.5,0.2-1.9,0.7-2.5c0.5-0.5,1.2-1.2,1.9-1.7c0.7-0.4,1.2-1.1,1.2-1.4c0.1-0.4,0.3,0.6,1,1c0.7,0.4,1.4,0.7,2.2,0.9
	c0.7,0.1,1.2,0.9,1.9,1.4c0.6,0.6,0.6,0.1,1.4,0.4c0.7,0.3,0.7,0.6,1.4,0.7c0.7,0.1,0.6-0.5,0.9-0.9c0.3-0.4,1.1-0.3,1.9,0.1
	c0.8,0.4,1.1,0.9,1.6,1.6c0.5,0.7,0.6,0.8,0.9,1.3s0.5,1.1,0.1,1.7c-0.4,0.6-1.2,1.4-1,2.3c0.2,0.9,0.1,1.6,0.9,2.2s0.8,1,1.2,1.2
	c0.4,0.1,0.8-0.1,0.7-0.9c-0.1-0.9,0.1-1.4,0.8-1.9s1.2-0.5,1.7-0.9c0.5-0.4,0.5,0.7,0.9,1.4c0.4,0.7,0.7,1.2,1.4,1.7
	c0.8,0.6,0.9,0.1,0.8-0.7c-0.1-0.8,0-0.9,0.4-1.5c0.4-0.6,0.5-1.2,0.1-1.4s-0.9-0.4-0.9-1.2s0.2-1.7,0.2-1.7s0.6,0.6,1.4,0.7
	c0.8,0.1,0.8-0.3,1-0.7c0.2-0.4,0.8-0.4,1.1,0.2c0.3,0.7,0.4,1.7,1,1.7s0.7,0.1,1-0.6c0.4-0.7,0.5-0.4,1,0.4
	c0.5,0.7,1.2,0.9,1.4,0.9s0.2,0.7,1.2,1.4c0.9,0.7,1.4,1.4,2,1.7c0.5,0.3,0.6-0.4,0.4-1.2c-0.1-0.9-0.7-1.4,0.1-1.7
	c0.7-0.3,1.7,0.3,2.5,0.1s1.2-0.3,1.7,0.1c0.6,0.4,1.2,1.2,1.7,1.5c0.4,0.4,1.2,1.1,1.6,0.9c0.4-0.1-0.4-0.9-0.4-1.4
	s0.4-0.6,1.3-0.5c0,0,0.6,0.3,0.7-0.1c0.1-0.4,0.4-0.4,1.2,0.2c0.7,0.6,1.2,1.2,2,1.3c0.8,0.1,1.5,0.6,1.6,0.1
	c0.1-0.4,0.4-0.9,1-0.7c0.6,0.3,2.2,1.3,2.7,1.4c0.4,0.1,1.9,0.1,1.7-0.7c-0.2-0.7,0.4-0.7,1.3-0.5c1,0.3,1,0.2,1.4-0.1
	c0.4-0.3,1.2,0,1.6,0.2s0.3,0,0.8-0.5c0.5-0.5,0.7-0.7,1.5-0.3c0.8,0.3,1,1.7,1.8,2s0.7-0.2,1.3-0.1c0.7,0.1,1,0.5,1.8,0.7
	s1.8,0.1,2.8,0.1c1,0.1,1.4,0.4,2.4,0.5c1,0.1,0.7,0.1,1.5,1c0.8,0.9,0.9,1.6,1.3,1.8s1.2-0.1,1.2-0.8c-0.1-0.7-0.1-0.9,0.2-1.9
	c0.3-1,0.5-0.9,1.2-1.2c0.7-0.3,0.9-0.1,1.6,0.5s0.8,0.5,1.6,0.2c0.8-0.3,0.5-0.9,0.6-1.3s0.3-0.3,1-0.3s0.7-0.6,1.4,0.7
	c0.8,1.3,1,2.2,1.3,1.3c0.3-0.8,1-2,0.8-2.6c-0.1-0.6-0.3-1-0.1-1.7L698.1,519.5z"/>
</svg>
