<?xml version="1.0" encoding="UTF-8" standalone="no"?>
<svg
   id="CW_Logo"
   viewBox="0 0 1851.1842 587.12428"
   version="1.1"
   xml:space="preserve"
   width="1851.1842"
   height="587.12427"
   xmlns="http://www.w3.org/2000/svg"
   xmlns:svg="http://www.w3.org/2000/svg"><defs
     id="defs1"><style
       id="style1">.cls-1{fill:#000C0D;}</style></defs><path
     class="cls-1"
     d="m 860.82,141.18724 v 248.37 c 0,22.67 -10.4,49.14 -39.7,49.14 -29.3,0 -40.43,-26.47 -40.43,-49.14 v -248.37 H 641.51 v 248.37 c 0,22.67 -10.58,49.14 -40.41,49.14 -29.83,0 -39.73,-26.47 -39.73,-49.14 v -248.37 H 422.2 v 220.5 c -0.66,42.45 -31.23,77.89 -68.2,79.12 H 209.37 c -38.73,-0.01 -70.23,-35.84 -70.23,-79.89 0,-44.05 31.51,-80.56 70.23,-80.56 h 136 v -139.17 h -136 c -115.44,0 -209.37,98.57 -209.37,219.72 0,121.15 93.93,218.99 209.37,218.99 H 349 c 46.75,0 93.83,-18.97 129.74,-49.94 34.15,34 71.45,49.94 116.31,49.94 44.86,0 82.02,-15.85 116.05,-49.65 34.02,33.8 71.26,49.65 116.04,49.65 96.93,0 172.86,-79.76 172.86,-181.59 v -257.12 z"
     id="path1"
     style="fill:#ff4500;fill-opacity:1" /><g
     id="g8"
     style="fill:#000000;fill-opacity:1"
     transform="matrix(1.0002191,0,0,1.0037613,-0.4065397,139.50974)"><path
       style="font-weight:bold;font-size:170.667px;line-height:1;font-family:'F37 Bolton';-inkscape-font-specification:'F37 Bolton Bold';text-align:end;letter-spacing:-5px;text-anchor:end;fill:#000000;fill-opacity:1;fill-rule:evenodd;stroke-width:115.78;paint-order:markers stroke fill"
       d="m 1651.5701,445.9372 q -206.7727,0 -206.7727,-283.11965 0,-132.016458 50.898,-216.316121 50.8979,-84.299669 168.5993,-84.299669 152.6939,0 171.7805,155.874854 h -104.9771 q -3.9763,-28.630074 -23.8584,-46.12623 -19.0867,-17.496157 -51.6929,-17.496157 -48.5122,0 -76.3472,44.5356714 -27.8345,43.7403966 -28.63,135.9928516 h 3.1813 q 18.2912,-34.992304 54.8741,-54.874306 36.583,-20.677269 81.9138,-20.677269 52.4885,0 88.276,25.448955 36.5829,24.65366 54.0792,66.8035 18.2912,42.14985 18.2912,93.84303 0,61.23655 -24.6533,106.56751 -24.6538,45.33094 -69.9846,69.98462 -44.536,23.85841 -104.9772,23.85841 z m 0.7954,-93.04776 q 39.7638,0 64.4176,-28.63007 24.6537,-28.63007 24.6537,-73.96104 0,-45.33094 -23.8584,-75.55157 -23.0633,-30.22064 -64.4175,-30.22064 -42.1501,0 -68.3942,31.01592 -25.4488,30.22062 -25.4488,75.55157 0,44.53569 25.4488,73.16576 26.2441,28.63007 67.5988,28.63007 z"
       id="path2" /><path
       style="font-weight:bold;font-size:170.667px;line-height:1;font-family:'F37 Bolton';-inkscape-font-specification:'F37 Bolton Bold';text-align:end;letter-spacing:-5px;text-anchor:end;fill:#000000;fill-opacity:1;fill-rule:evenodd;stroke-width:116.116;paint-order:markers stroke fill"
       d="m 1219.1671,445.9372 q -54.3933,0 -98.3878,-19.882 -43.1944,-20.67728 -67.9913,-60.44126 -24.7964,-40.55929 -24.7964,-98.61472 h 105.5862 q 0,37.37815 23.1968,59.64599 23.9969,22.26784 63.9919,22.26784 42.3949,0 68.7914,-25.44895 26.3966,-26.24424 26.3966,-77.93744 0,-49.30735 -24.7969,-79.52799 -24.7969,-31.01592 -67.9913,-31.01592 -29.5962,0 -53.5932,15.11033 -23.1968,14.31504 -36.7953,37.37815 H 1039.99 l 41.5944,-311.74971 h 316.7596 v 93.843023 h -228.7709 l -8.7987,62.031829 q -3.9998,29.425357 -11.1988,54.874313 h 3.1997 q 15.9978,-17.496159 41.5947,-27.03951 26.3965,-9.543362 58.3926,-9.543362 81.5893,0 127.1834,52.488457 46.3941,52.48849 46.3941,138.37872 0,91.45718 -53.5931,148.71733 -52.7931,56.46488 -153.5799,56.46488 z"
       id="text1" /></g><g
     id="g16"
     transform="translate(0,141.18724)"><path
       style="font-weight:bold;font-size:132.474px;line-height:1;font-family:'F37 Bolton';-inkscape-font-specification:'F37 Bolton Bold';text-align:end;letter-spacing:-3.88105px;text-anchor:end;fill:#000000;fill-opacity:1;fill-rule:evenodd;stroke-width:19.5481;paint-order:markers stroke fill"
       d="m 918.31477,-41.37674 v -99.61782 h 18.42702 l 32.96098,53.21287 q 1.68699,2.77874 5.06094,8.89197 h 0.51909 v -62.10484 h 18.81629 v 99.61782 h -18.55677 l -33.48007,-54.04648 q -3.11441,-5.14067 -4.4121,-8.19728 h -0.51906 v 62.24376 z"
       id="path7" /><path
       style="font-weight:bold;font-size:132.474px;line-height:1;font-family:'F37 Bolton';-inkscape-font-specification:'F37 Bolton Bold';text-align:end;letter-spacing:-3.88105px;text-anchor:end;fill:#000000;fill-opacity:1;fill-rule:evenodd;stroke-width:18.8932;paint-order:markers stroke fill"
       d="m 853.1484,-41.18405 q -14.0764,0 -24.34837,-6.50752 -10.27199,-6.64031 -15.725,-17.79605 -5.45303,-11.28854 -5.45303,-25.1004 0,-14.34308 5.57984,-25.89724 5.57984,-11.55414 15.85182,-18.06166 10.39878,-6.64032 24.09474,-6.64032 13.69598,0 23.96795,6.64032 10.27198,6.50752 15.85183,18.06166 5.57984,11.55416 5.57984,25.89724 0,13.81186 -5.45304,25.1004 -5.3262,11.28854 -15.59818,17.79605 -10.27197,6.50752 -24.3484,6.50752 z m 0,-18.99131 q 8.24295,0 14.20323,-4.117 5.96029,-4.2498 9.00385,-11.15573 3.04353,-6.90593 3.04353,-15.13993 0,-8.76522 -3.04353,-15.93676 -3.04356,-7.17154 -9.00385,-11.42134 -5.83345,-4.24981 -14.20323,-4.24981 -8.36975,0 -14.33004,4.24981 -5.83345,4.2498 -8.87701,11.42134 -2.91673,7.17154 -2.91673,15.93676 0,8.234 2.91673,15.13993 3.04356,6.90593 8.87701,11.15573 5.96029,4.117 14.33004,4.117 z"
       id="path6" /><path
       style="font-weight:bold;font-size:132.474px;line-height:1;font-family:'F37 Bolton';-inkscape-font-specification:'F37 Bolton Bold';text-align:end;letter-spacing:-3.88105px;text-anchor:end;fill:#000000;fill-opacity:1;fill-rule:evenodd;stroke-width:19.7729;paint-order:markers stroke fill"
       d="m 775.24344,-41.37674 h -20.31378 v -80.16664 h -26.81948 v -19.45118 h 73.95276 v 19.45118 h -26.8195 z"
       id="path5" /><path
       style="font-weight:bold;font-size:132.474px;line-height:1;font-family:'F37 Bolton';-inkscape-font-specification:'F37 Bolton Bold';text-align:end;letter-spacing:-3.88105px;text-anchor:end;fill:#000000;fill-opacity:1;fill-rule:evenodd;stroke-width:19.826;paint-order:markers stroke fill"
       d="m 685.05116,-41.18405 q -17.87446,0 -29.18564,-8.234 -11.17155,-8.3668 -10.89224,-25.63162 h 20.52768 q 0,8.76522 5.44614,12.88221 5.58577,3.98419 15.08158,3.98419 16.75731,0 16.75731,-10.89012 0,-4.51541 -3.21182,-7.43715 -3.21181,-3.05455 -10.33368,-5.04664 l -16.7573,-4.64823 q -25.13598,-6.90593 -25.13598,-27.09248 0,-13.81188 9.77511,-20.85061 9.91474,-7.03874 25.55489,-7.03874 10.47333,0 19.13126,3.18736 8.65796,3.18736 13.82479,10.09328 5.30649,6.90593 5.30649,17.39764 h -20.52771 q -0.83787,-14.07748 -17.73483,-14.07748 -6.42363,0 -10.61295,2.25772 -4.0497,2.12488 -4.0497,7.30435 0,3.71856 2.79289,6.64031 2.93252,2.92173 10.05439,4.91383 l 17.03659,4.91383 q 11.31118,3.32016 18.43305,9.56206 7.12185,6.2419 7.12185,18.59289 0,13.54625 -9.91473,21.38182 -9.77511,7.83558 -28.48744,7.83558 z"
       id="path4" /><path
       style="font-weight:bold;font-size:132.474px;line-height:1;font-family:'F37 Bolton';-inkscape-font-specification:'F37 Bolton Bold';text-align:end;letter-spacing:-3.88105px;text-anchor:end;fill:#000000;fill-opacity:1;fill-rule:evenodd;stroke-width:18.8932;paint-order:markers stroke fill"
       d="m 587.30058,-41.18405 q -14.0764,0 -24.34839,-6.50752 -10.27197,-6.64031 -15.725,-17.79605 -5.45301,-11.28854 -5.45301,-25.1004 0,-14.34308 5.57983,-25.89724 5.57984,-11.55414 15.85181,-18.06166 10.3988,-6.64032 24.09476,-6.64032 13.69597,0 23.96795,6.64032 10.27197,6.50752 15.85182,18.06166 5.57983,11.55416 5.57983,25.89724 0,13.81186 -5.45302,25.1004 -5.32622,11.28854 -15.59819,17.79605 -10.27197,6.50752 -24.34839,6.50752 z m 0,-18.99131 q 8.24294,0 14.20323,-4.117 5.96029,-4.2498 9.00383,-11.15573 3.04355,-6.90593 3.04355,-15.13993 0,-8.76522 -3.04355,-15.93676 -3.04354,-7.17154 -9.00383,-11.42134 -5.83347,-4.24981 -14.20323,-4.24981 -8.36975,0 -14.33004,4.24981 -5.83347,4.2498 -8.87701,11.42134 -2.91673,7.17154 -2.91673,15.93676 0,8.234 2.91673,15.13993 3.04354,6.90593 8.87701,11.15573 5.96029,4.117 14.33004,4.117 z"
       id="path3" /><path
       style="font-weight:bold;font-size:132.474px;line-height:1;font-family:'F37 Bolton';-inkscape-font-specification:'F37 Bolton Bold';text-align:end;letter-spacing:-3.88105px;text-anchor:end;fill:#000000;fill-opacity:1;fill-rule:evenodd;stroke-width:19.4836;paint-order:markers stroke fill"
       d="m 456.67622,-41.37674 v -99.61782 h 37.38466 q 14.56714,0 22.55971,6.53005 7.99259,6.53004 7.99259,17.78393 0,7.91941 -3.86738,14.03263 -3.73845,6.11323 -10.69974,8.6141 v 0.41681 q 8.76605,2.50086 13.02017,8.61409 4.25413,6.11323 4.25413,15.28307 0,13.61582 -9.02389,20.97948 -9.02389,7.36366 -23.59103,7.36366 z m 36.86902,-59.7429 q 5.67215,0 9.02388,-3.33449 3.48064,-3.33448 3.48064,-9.03091 0,-10.97601 -13.53581,-10.97601 H 475.7553 v 23.34141 z m -0.77349,43.2094 q 15.46953,0 15.46953,-12.92114 0,-13.06007 -16.243,-13.06007 H 475.7553 v 25.98121 z"
       id="text2" /></g></svg>
