<?xml version="1.0" encoding="UTF-8" standalone="no"?>
<!-- Created with Inkscape (http://www.inkscape.org/) -->

<svg
   version="1.1"
   id="svg1"
   width="621.34247"
   height="313.4621"
   viewBox="0 0 621.34247 313.4621"
   xml:space="preserve"
   xmlns="http://www.w3.org/2000/svg"
   xmlns:svg="http://www.w3.org/2000/svg"><defs
     id="defs1"><style
       id="style1">.cls-1{fill:#000C0D;}</style><style
       id="style1-3">.cls-1{fill:#000C0D;}</style><style
       id="style1-5">.cls-1{fill:#fff;stroke-width:0px;}</style></defs><g
     id="g31"
     transform="translate(-0.01809189,-49.364813)"><path
       style="font-weight:bold;font-size:80.9414px;line-height:0.9;font-family:'F37 Bolton';-inkscape-font-specification:'F37 Bolton Bold';text-align:end;letter-spacing:0px;word-spacing:0px;text-anchor:end;fill:#030000;fill-opacity:1;stroke-width:0.428321;paint-order:markers fill stroke"
       d="m 427.98524,107.9815 h -12.40876 l -4.38443,-13.570945 h -21.50852 l -4.88079,13.570945 h -12.07786 l 21.17763,-58.616687 h 15.05595 z M 393.65433,83.537445 h 14.06327 l -5.21169,-16.023531 q -0.82726,-2.452581 -1.32359,-4.905161 h -0.33091 q -0.6618,2.943096 -1.40632,4.986914 z"
       id="path18" /><path
       style="font-weight:bold;font-size:80.9414px;line-height:0.9;font-family:'F37 Bolton';-inkscape-font-specification:'F37 Bolton Bold';text-align:end;letter-spacing:0px;word-spacing:0px;text-anchor:end;fill:#030000;fill-opacity:1;stroke-width:0.428321;paint-order:markers fill stroke"
       d="M 341.75094,107.9815 323.38599,49.364813 h 12.98782 l 8.1898,26.160866 q 1.57179,5.150421 2.56447,8.74754 0.9927,3.597119 1.81994,8.093518 h 0.33091 q 1.40633,-7.603002 4.38443,-17.004563 l 8.35525,-25.997361 H 374.5928 L 355.89693,107.9815 Z"
       id="path17" /><path
       style="font-weight:bold;font-size:80.9414px;line-height:0.9;font-family:'F37 Bolton';-inkscape-font-specification:'F37 Bolton Bold';text-align:end;letter-spacing:0px;word-spacing:0px;text-anchor:end;fill:#030000;fill-opacity:1;stroke-width:0.428321;paint-order:markers fill stroke"
       d="M 276.67165,107.9815 V 49.364813 h 23.24575 q 11.16789,0 16.29685,4.905163 5.12896,4.823409 5.12896,12.262906 0,5.722689 -3.06082,9.973829 -3.06083,4.251142 -9.8443,6.213206 v 0.327011 q 0.99272,0.735775 1.98541,1.962066 0.9927,1.22629 2.89537,4.496399 L 324.3213,107.9815 H 310.4235 L 296.44295,84.60023 h -7.11437 v 23.38127 z m 21.83941,-33.355101 q 4.79808,0 7.69345,-1.716806 2.97809,-1.79856 2.97809,-5.886195 0,-4.005883 -2.89536,-5.477432 -2.89539,-1.553301 -7.77618,-1.553301 h -9.18248 v 14.633734 z"
       id="path16" /><path
       style="font-weight:bold;font-size:80.9414px;line-height:0.9;font-family:'F37 Bolton';-inkscape-font-specification:'F37 Bolton Bold';text-align:end;letter-spacing:0px;word-spacing:0px;text-anchor:end;fill:#030000;fill-opacity:1;stroke-width:0.428321;paint-order:markers fill stroke"
       d="M 273.2832,107.9815 H 260.87444 L 256.49,94.410555 h -21.5085 l -4.8808,13.570945 h -12.07784 l 21.17761,-58.616687 h 15.05598 z M 238.95228,83.537445 h 14.06327 l -5.21168,-16.023531 q -0.82725,-2.452581 -1.32359,-4.905161 h -0.3309 q -0.66181,2.943096 -1.40634,4.986914 z"
       id="path15" /><path
       style="font-weight:bold;font-size:80.9414px;line-height:0.9;font-family:'F37 Bolton';-inkscape-font-specification:'F37 Bolton Bold';text-align:end;letter-spacing:0px;word-spacing:0px;text-anchor:end;fill:#030000;fill-opacity:1;stroke-width:0.425796;paint-order:markers fill stroke"
       d="M 155.9793,107.9815 V 49.364813 h 12.91693 l 13.89796,21.991478 2.53434,4.251141 h 0.24525 q 0.40876,-0.817527 1.79856,-3.024851 l 0.81753,-1.389795 13.48919,-21.827973 H 214.596 V 107.9815 H 202.74184 V 68.413194 h -0.327 Q 201.59731,70.13 199.717,73.400109 l -10.46435,16.759304 h -7.93001 L 170.69479,73.400109 q -1.63506,-2.779592 -2.53433,-4.986915 h -0.32702 V 107.9815 Z"
       id="path14" /><path
       style="font-weight:bold;font-size:80.9414px;line-height:0.9;font-family:'F37 Bolton';-inkscape-font-specification:'F37 Bolton Bold';text-align:end;letter-spacing:0px;word-spacing:0px;text-anchor:end;fill:#030000;fill-opacity:1;stroke-width:0.428321;paint-order:markers fill stroke"
       d="m 150.95939,107.9815 h -38.219 V 49.364813 h 12.65694 v 47.089559 h 25.56206 z"
       id="path13" /><path
       style="font-weight:bold;font-size:80.9414px;line-height:0.9;font-family:'F37 Bolton';-inkscape-font-specification:'F37 Bolton Bold';text-align:end;letter-spacing:0px;word-spacing:0px;text-anchor:end;fill:#030000;fill-opacity:1;stroke-width:0.428321;paint-order:markers fill stroke"
       d="M 105.88513,107.9815 H 63.198913 V 49.364813 H 105.22331 V 60.483181 H 75.855852 v 12.0994 H 102.74156 V 83.700949 H 75.855852 v 13.162187 h 30.029278 z"
       id="path12" /><path
       style="font-weight:bold;font-size:80.9414px;line-height:0.9;font-family:'F37 Bolton';-inkscape-font-specification:'F37 Bolton Bold';text-align:end;letter-spacing:0px;word-spacing:0px;text-anchor:end;fill:#030000;fill-opacity:1;stroke-width:0.429932;paint-order:markers fill stroke"
       d="M 5.8355202,107.9815 V 49.364813 H 27.08943 q 9.085004,0 15.919594,3.515366 6.834589,3.515366 10.50193,10.055584 3.750691,6.540216 3.750691,15.451262 0,8.829291 -3.583992,15.533013 -3.583992,6.703732 -10.418584,10.382592 -6.83459,3.67887 -16.252989,3.67887 z M 25.005713,96.37262 q 9.668445,0 14.586014,-4.251142 5.000921,-4.25114 5.000921,-13.243938 0,-17.903842 -19.503586,-17.903842 H 18.587865 V 96.37262 Z"
       id="text1" /></g><g
     id="g36"
     transform="translate(-0.01809189,-49.364813)"><path
       style="font-weight:bold;font-size:44.5565px;line-height:0.9;font-family:'F37 Bolton';-inkscape-font-specification:'F37 Bolton Bold';text-align:end;letter-spacing:0px;word-spacing:0px;text-anchor:end;fill:#000000;fill-opacity:1;stroke-width:0.232066;paint-order:markers fill stroke"
       d="m 406.708,362.61792 q 0,-4.45565 1.78226,-7.39638 1.78226,-2.94073 5.48045,-5.525 l 3.87642,-2.71795 q 4.14375,-2.89617 4.14375,-6.41614 0,-2.13871 -1.24758,-3.29718 -1.20303,-1.15847 -3.25263,-1.15847 -2.53972,0 -3.7873,1.60404 -1.20302,1.60403 -1.20302,4.23286 h -5.83691 q 0,-5.34678 2.80706,-8.2875 2.80706,-2.98529 8.02017,-2.98529 4.81211,0 7.70828,2.58428 2.89617,2.53972 2.89617,7.17359 0,3.43085 -1.51492,5.74779 -1.51492,2.31694 -4.05464,4.05464 l -4.0992,2.89618 q -1.78226,1.24758 -2.7625,2.22782 -0.93569,0.93569 -1.06936,1.78226 h 13.85707 v 5.48045 z"
       id="path28" /><path
       style="font-weight:bold;font-size:44.5565px;line-height:0.9;font-family:'F37 Bolton';-inkscape-font-specification:'F37 Bolton Bold';text-align:end;letter-spacing:0px;word-spacing:0px;text-anchor:end;fill:#000000;fill-opacity:1;stroke-width:0.232066;paint-order:markers fill stroke"
       d="m 400.0856,362.82692 q -1.60403,0 -2.7625,-1.15847 -1.15847,-1.15847 -1.15847,-2.80706 0,-1.69315 1.15847,-2.85161 1.15847,-1.15847 2.7625,-1.15847 1.64859,0 2.80706,1.15847 1.15847,1.15846 1.15847,2.85161 0,1.64859 -1.15847,2.80706 -1.15847,1.15847 -2.80706,1.15847 z"
       id="path27" /><path
       style="font-weight:bold;font-size:44.5565px;line-height:0.9;font-family:'F37 Bolton';-inkscape-font-specification:'F37 Bolton Bold';text-align:end;letter-spacing:0px;word-spacing:0px;text-anchor:end;fill:#000000;fill-opacity:1;stroke-width:0.220079;paint-order:markers fill stroke"
       d="m 382.60432,362.61792 q 0,-6.32594 1.79004,-11.81401 1.83265,-5.52997 5.45532,-9.71934 l 0.68191,-0.79597 q 0.76716,-0.79599 1.53432,-1.46628 v -0.12569 h -14.10712 v -5.36238 h 20.62794 v 4.94344 l -2.94075,3.43529 q -6.77656,7.70843 -6.77656,20.90494 z"
       id="path26" /><path
       style="font-weight:bold;font-size:44.5565px;line-height:0.9;font-family:'F37 Bolton';-inkscape-font-specification:'F37 Bolton Bold';text-align:end;letter-spacing:0px;word-spacing:0px;text-anchor:end;fill:#000000;fill-opacity:1;stroke-width:0.220079;paint-order:markers fill stroke"
       d="m 372.21327,362.61792 h -5.58319 v -6.24216 h -13.29736 v -4.31505 l 13.1695,-18.72646 h 5.71105 v 18.30753 h 3.75054 v 4.73398 h -3.75054 z m -13.33998,-10.97614 h 7.75679 v -11.05993 h -0.17047 q -0.29835,0.75409 -1.06551,1.80143 l -4.94388,7.12193 q -0.93763,1.2149 -1.57693,1.96899 z"
       id="path25" /><path
       style="font-weight:bold;font-size:44.5565px;line-height:0.9;font-family:'F37 Bolton';-inkscape-font-specification:'F37 Bolton Bold';text-align:end;letter-spacing:0px;word-spacing:0px;text-anchor:end;fill:#000000;fill-opacity:1;stroke-width:0.228859;paint-order:markers fill stroke"
       d="m 344.02228,362.61792 h -20.02005 v -31.94701 h 6.63001 v 25.66454 h 13.39004 z"
       id="path24" /><path
       style="font-weight:bold;font-size:44.5565px;line-height:0.9;font-family:'F37 Bolton';-inkscape-font-specification:'F37 Bolton Bold';text-align:end;letter-spacing:0px;word-spacing:0px;text-anchor:end;fill:#000000;fill-opacity:1;stroke-width:0.227338;paint-order:markers fill stroke"
       d="m 322.00924,362.61792 h -6.41389 l -2.26627,-7.39638 h -11.11744 l -2.5228,7.39638 h -6.24287 l 10.94641,-31.94701 h 7.78219 z M 304.2641,349.29553 h 7.2691 l -2.69385,-8.73308 q -0.42758,-1.33669 -0.68414,-2.67339 h -0.17104 q -0.34207,1.60404 -0.72691,2.71795 z"
       id="path23" /><path
       style="font-weight:bold;font-size:44.5565px;line-height:0.9;font-family:'F37 Bolton';-inkscape-font-specification:'F37 Bolton Bold';text-align:end;letter-spacing:0px;word-spacing:0px;text-anchor:end;fill:#000000;fill-opacity:1;stroke-width:0.229641;paint-order:markers fill stroke"
       d="m 289.35059,362.61792 h -6.67542 v -25.7091 h -8.8133 v -6.23791 h 24.30203 v 6.23791 h -8.81331 z"
       id="path22" /><path
       style="font-weight:bold;font-size:44.5565px;line-height:0.9;font-family:'F37 Bolton';-inkscape-font-specification:'F37 Bolton Bold';text-align:end;letter-spacing:0px;word-spacing:0px;text-anchor:end;fill:#000000;fill-opacity:1;stroke-width:0.229641;paint-order:markers fill stroke"
       d="m 272.01489,362.61792 h -6.6754 v -31.94701 h 6.6754 z"
       id="path21" /><path
       style="font-weight:bold;font-size:44.5565px;line-height:0.9;font-family:'F37 Bolton';-inkscape-font-specification:'F37 Bolton Bold';text-align:end;letter-spacing:0px;word-spacing:0px;text-anchor:end;fill:#000000;fill-opacity:1;stroke-width:0.220971;paint-order:markers fill stroke"
       d="m 247.04094,362.61792 q -4.58204,0 -7.89129,-1.99404 -3.30925,-2.03646 -5.04874,-5.60027 -1.73947,-3.60624 -1.73947,-8.27313 0,-4.53961 1.7819,-8.18828 1.82434,-3.69108 5.17601,-5.76997 3.35168,-2.12132 7.84887,-2.12132 5.6427,0 9.16408,2.84257 3.56381,2.80013 4.32748,7.84886 h -6.23666 q -0.89096,-2.37587 -2.63044,-3.47895 -1.69705,-1.14552 -4.41233,-1.14552 -4.28506,0 -6.40637,2.80014 -2.12132,2.75771 -2.12132,7.21247 0,4.41233 2.16374,7.17004 2.16375,2.75772 6.4488,2.75772 3.18198,0 4.92146,-1.40008 1.73947,-1.44249 2.07888,-4.07292 h -7.21247 v -5.34571 h 13.74613 q 0.0848,0.84852 0.0848,1.6122 0,7.04277 -3.56382,11.11569 -3.52138,4.0305 -10.47929,4.0305 z"
       id="path20" /><path
       style="font-weight:bold;font-size:44.5565px;line-height:0.9;font-family:'F37 Bolton';-inkscape-font-specification:'F37 Bolton Bold';text-align:end;letter-spacing:0px;word-spacing:0px;text-anchor:end;fill:#000000;fill-opacity:1;stroke-width:0.229641;paint-order:markers fill stroke"
       d="m 229.32203,362.61792 h -6.67542 v -31.94701 h 6.67542 z"
       id="path19" /><path
       style="font-weight:bold;font-size:44.5565px;line-height:0.9;font-family:'F37 Bolton';-inkscape-font-specification:'F37 Bolton Bold';text-align:end;letter-spacing:0px;word-spacing:0px;text-anchor:end;fill:#000000;fill-opacity:1;stroke-width:0.229641;paint-order:markers fill stroke"
       d="m 190.6337,362.61792 v -31.94701 h 11.1257 q 4.75568,0 8.33336,1.91593 3.57768,1.91593 5.4974,5.48045 1.96338,3.56452 1.96338,8.42118 0,4.8121 -1.8761,8.46573 -1.8761,3.65363 -5.45378,5.65868 -3.57768,2.00504 -8.50789,2.00504 z m 10.03495,-6.32702 q 5.06109,0 7.63528,-2.31694 2.61781,-2.31694 2.61781,-7.21815 0,-9.75788 -10.20946,-9.75788 h -3.40316 v 19.29297 z"
       id="text18" /></g><path
     d="m 540.42583,265.50718 q -44.05578,0 -67.33728,-23.2815 -23.28151,-23.63968 -23.28151,-68.76999 h 46.92119 q 0,22.56516 11.10349,36.53406 11.10349,13.61072 32.95228,13.61072 19.69974,0 31.1614,-11.10348 11.81984,-11.10349 11.81984,-29.37052 0,-20.05791 -14.32708,-29.01233 -14.32708,-8.95443 -36.53405,-8.95443 h -10.02896 v -35.10135 h 5.73083 q 19.34156,0 33.66864,-7.87989 14.32708,-8.23807 14.32708,-26.14692 0,-15.043435 -10.02895,-23.281506 -9.67078,-8.238071 -25.78875,-8.238071 -19.34156,0 -29.72869,11.819841 -10.02895,11.819842 -10.02895,33.310462 h -47.27937 q 0,-42.264887 23.28151,-64.471861 23.2815,-22.5651508 65.54639,-22.5651508 37.60858,0 60.17373,17.1924958 22.92333,16.834319 22.92333,47.995719 0,20.416089 -10.38713,35.817701 -10.38713,15.40161 -27.93781,21.13244 v 1.43271 q 20.77427,5.73083 33.31046,20.77427 12.5362,15.04343 12.5362,41.19035 0,36.89223 -25.43057,57.30832 -25.07239,20.05791 -67.33727,20.05791 z"
     id="text31"
     style="font-weight:bold;font-size:358.177px;line-height:0.9;font-family:'F37 Bolton';-inkscape-font-specification:'F37 Bolton Bold';text-align:end;letter-spacing:0px;word-spacing:0px;text-anchor:end;stroke-width:1.8655;paint-order:markers fill stroke"
     transform="scale(0.98128349,1.0190735)"
     aria-label="3" /><path
     d="M 367.2784,77.305987 V 182.98553 c 0,9.63996 -4.43999,20.90657 -16.9466,20.90657 -12.50661,0 -17.25325,-11.26661 -17.25325,-20.90657 V 77.305987 H 273.69214 V 182.98553 c 0,9.63996 -4.51998,20.90657 -17.23993,20.90657 -12.71994,0 -16.94659,-11.26661 -16.94659,-20.90657 V 77.305987 h -59.38641 v 93.812923 c -0.28,18.06659 -13.31994,33.14652 -29.09321,33.66653 H 89.319613 c -16.519931,0 -29.959872,-15.25327 -29.959872,-33.98653 0,-18.73325 13.439941,-34.27984 29.959872,-34.27984 H 147.34602 V 77.305987 H 89.319613 C 40.079824,77.305987 0,119.23914 0,170.79891 c 0,51.55978 40.079824,93.17293 89.332943,93.17293 h 59.573067 c 19.94659,0 40.03983,-8.06663 55.35977,-21.25324 14.57327,14.4666 30.49319,21.25324 49.62644,21.25324 19.13325,0 34.99985,-6.74663 49.51979,-21.11991 14.51993,14.37328 30.39987,21.11991 49.50644,21.11991 41.35983,0 73.74636,-33.93318 73.74636,-77.26633 V 77.305987 Z"
     class="cls-1"
     id="path3"
     style="fill:#ff4500;fill-opacity:1" /></svg>
