<?xml version="1.0" encoding="utf-8"?>
<svg xmlns="http://www.w3.org/2000/svg" width="306.009" height="83.72" viewBox="0 0 306.009 83.72">
  <g id="NJPBS_Logo_RGB_WHT_HORIZONTAL" transform="translate(0 -0.2)">
    <g id="Group_40" data-name="Group 40" transform="translate(0 18.361)">
      <path id="Path_126" data-name="Path 126" d="M43.812,228.1v48.952H32.043L12.559,247.225v29.827H0V228.1H11.778l19.484,29.827V228.1Z" transform="translate(0 -228.1)" fill="#000"/>
      <path id="Path_127" data-name="Path 127" d="M616.584,266.207c3.14,0,4.781-1.857,4.781-6.208V228.1h12.989v31.182c0,10.917-5.921,18.057-17.986,18.057-11.2,0-17.268-6.208-17.268-17.268h12.631C611.8,264.35,613.444,266.207,616.584,266.207Z" transform="translate(-551.359 -228.1)" fill="#000"/>
    </g>
    <g id="Group_45" data-name="Group 45" transform="translate(104.901 0.2)">
      <g id="Group_44" data-name="Group 44" transform="translate(0 0)">
        <path id="Path_128" data-name="Path 128" d="M1400.12,42.06A41.86,41.86,0,1,1,1358.26.2a41.862,41.862,0,0,1,41.86,41.86" transform="translate(-1316.4 -0.2)" fill="#fff"/>
        <g id="Group_41" data-name="Group 41" transform="translate(93.601 16.28)">
          <path id="Path_129" data-name="Path 129" d="M3471.512,225.418c-4.582-2.375-8.279-4.3-8.279-7.977,0-2.6,2.224-4.207,5.96-4.207a22.458,22.458,0,0,1,11.412,3.235V207.01a30.867,30.867,0,0,0-11.412-2.51c-11.045,0-15.993,6.582-15.993,13.7,0,8.351,5.626,12.368,11.833,15.643,6.12,3.235,8.431,4.638,8.431,8.128,0,2.956-2.566,4.646-6.853,4.646a20.26,20.26,0,0,1-12.941-4.965l.008,10.049a25.8,25.8,0,0,0,12.869,3.96c10.726,0,17.483-5.594,17.483-14.6C3484.023,231.761,3476.086,227.785,3471.512,225.418Z" transform="translate(-3376.524 -204.5)" fill="#000"/>
          <path id="Path_130" data-name="Path 130" d="M2504.244,210.3H2491v50.227h9.881V244.55h1.992c12.375,0,20.065-6.582,20.065-17.173C2522.939,216.683,2515.95,210.3,2504.244,210.3Zm-3.363,8.375h2.909c5.8,0,9.554,3.355,9.554,8.551,0,5.626-3.451,8.853-9.475,8.853h-2.988Z" transform="translate(-2491 -209.838)" fill="#000"/>
          <path id="Path_131" data-name="Path 131" d="M2992.464,233.481c3.347-2.351,4.972-5.738,4.972-10.328,0-7.929-5.825-12.854-15.2-12.854H2966.9v50.227h16.017c12.272,0,17.866-7.881,17.866-15.2C3000.784,239.53,2997.612,235.051,2992.464,233.481Zm-10.933-14.718c3.865,0,6.367,2.407,6.367,6.136,0,3.777-2.709,6.216-6.9,6.216h-4.207V218.763Zm-4.741,33.381V239.035h6.255c4.989,0,7.961,2.438,7.961,6.518,0,4.375-2.988,6.59-8.869,6.59Z" transform="translate(-2928.977 -209.838)" fill="#000"/>
        </g>
        <g id="Group_43" data-name="Group 43" transform="translate(10.951 16.742)">
          <g id="Group_42" data-name="Group 42" transform="translate(41.284)">
            <path id="Path_132" fill="#2638C4" data-name="Path 132" d="M1992,235.824l-4.646.948v8.59a5.268,5.268,0,0,1-5.443,5.188h-2.375v9.985H1971.9v-9.993h2.375a5.268,5.268,0,0,0,5.443-5.188v-8.582l4.646-.948a1.546,1.546,0,0,0,1.06-2.231L1973.238,210.3h7.642l12.184,23.293A1.546,1.546,0,0,1,1992,235.824Z" transform="translate(-1971.9 -210.3)"/>
          </g>
          <path id="Path_133" fill="#2638C4" data-name="Path 133" d="M1499.557,233.693,1487.373,210.4h-12.606c-11.467,0-21.213,9.387-20.934,20.854.207,8.558,5.722,14.965,13.4,17.38v12h18.806v-10h2.375a5.268,5.268,0,0,0,5.443-5.188v-8.582l4.646-.948A1.541,1.541,0,0,0,1499.557,233.693Zm-15.858-1.339a4.781,4.781,0,1,1,4.781-4.781A4.78,4.78,0,0,1,1483.7,232.354Z" transform="translate(-1453.827 -210.392)"/>
        </g>
      </g>
    </g>
  </g>
</svg>