<?xml version="1.0" encoding="UTF-8" standalone="no"?>
<svg
   id="CW_Logo"
   viewBox="0 0 1962.8062 570.64405"
   version="1.1"
   xml:space="preserve"
   width="1962.8062"
   height="570.64404"
   xmlns="http://www.w3.org/2000/svg"
   xmlns:svg="http://www.w3.org/2000/svg"><defs
     id="defs1"><style
       id="style1">.cls-1{fill:#000C0D;}</style></defs><path
     class="cls-1"
     d="m 860.82,118.51163 v 248.37 c 0,22.67 -10.4,49.14 -39.7,49.14 -29.3,0 -40.43,-26.47 -40.43,-49.14 v -248.37 H 641.51 v 248.37 c 0,22.67 -10.58,49.14 -40.41,49.14 -29.83,0 -39.73,-26.47 -39.73,-49.14 v -248.37 H 422.2 v 220.5 c -0.66,42.45 -31.23,77.89 -68.2,79.12 H 209.37 c -38.73,-0.01 -70.23,-35.84 -70.23,-79.89 0,-44.05 31.51,-80.56 70.23,-80.56 h 136 v -139.17 h -136 c -115.44,0 -209.37,98.57 -209.37,219.72 0,121.15 93.93,218.99 209.37,218.99 H 349 c 46.75,0 93.83,-18.97 129.74,-49.94 34.15,34 71.45,49.94 116.31,49.94 44.86,0 82.02,-15.85 116.05,-49.65 34.02,33.8 71.26,49.65 116.04,49.65 96.93,0 172.86,-79.76 172.86,-181.59 v -257.12 z"
     id="path1"
     style="fill:#ff4500;fill-opacity:1" /><g
     id="g3"
     transform="translate(0,118.51163)"><path
       style="font-weight:bold;font-size:756.471px;line-height:1;font-family:'F37 Bolton';-inkscape-font-specification:'F37 Bolton Bold';text-align:end;letter-spacing:-15.09px;word-spacing:39.3996px;text-anchor:end;fill:#000000;fill-opacity:1;stroke-width:7.89403;paint-order:markers fill stroke"
       d="m 1962.8062,438.49151 h -113.6741 l -40.1649,-125.79934 h -197.0351 l -44.7119,125.79934 h -110.6426 l 194.0036,-543.36224 h 137.9247 z M 1648.3078,211.90113 h 128.8307 L 1729.3953,63.366951 q -7.5782,-22.734821 -12.1252,-45.469643 h -3.0314 q -6.0625,27.281787 -12.883,46.227471 z"
       id="path2" /><path
       style="font-weight:bold;font-size:756.471px;line-height:1;font-family:'F37 Bolton';-inkscape-font-specification:'F37 Bolton Bold';text-align:end;letter-spacing:-15.09px;word-spacing:39.3996px;text-anchor:end;fill:#000000;fill-opacity:1;stroke-width:7.89403;paint-order:markers fill stroke"
       d="m 1260.0669,452.1324 q -97.0019,0 -158.3859,-46.98529 -60.6261,-47.74313 -59.1106,-146.26069 h 111.4007 q 0,50.0166 29.5554,73.50925 30.313,22.73483 81.8452,22.73483 90.9393,0 90.9393,-62.14185 0,-25.76613 -17.43,-42.43834 -17.43,-17.43003 -56.0792,-28.79742 l -90.9393,-26.52398 Q 1055.4536,155.8219 1055.4536,40.63213 q 0,-78.814048 53.0478,-118.9789 53.8058,-40.16486 138.6825,-40.16486 56.837,0 103.8223,18.18787 46.9853,18.187852 75.025,57.594877 28.7974,39.4070242 28.7974,99.275388 H 1343.428 q -4.547,-80.329704 -96.2441,-80.329704 -34.86,0 -57.5948,12.883066 -21.977,12.1252385 -21.977,41.680506 0,21.219168 15.1564,37.89137 15.9144,16.672203 54.5636,28.039614 l 92.455,28.039623 q 61.384,18.94568 100.0332,54.56357 38.6492,35.61788 38.6492,106.09582 0,77.2984 -53.8058,122.01021 -53.048,44.71182 -154.5968,44.71182 z"
       id="text1" /></g></svg>
