<?xml version="1.0" encoding="UTF-8"?>
<svg width="130px" height="54px" viewBox="0 0 130 54" version="1.1" xmlns="http://www.w3.org/2000/svg" xmlns:xlink="http://www.w3.org/1999/xlink">
    <title>logo/4-color/orlando</title>
    <g id="logo/4-color/orlando" stroke="none" stroke-width="1" fill="none" fill-rule="evenodd">
        <path d="M25.123913,43.8020666 C25.3224681,43.9577237 25.4331083,44.2000783 25.4206522,44.4520666 C25.4299634,44.6216132 25.3854525,44.7897656 25.2934783,44.9325014 C25.223817,45.0498005 25.120402,45.1433664 24.9967391,45.2009796 C24.8732457,45.2634832 24.7389607,45.3018504 24.601087,45.3140231 C24.469549,45.3275357 24.3369727,45.3275357 24.2054348,45.3140231 L22.7923913,45.3140231 L22.7923913,43.5618492 L24.0217391,43.5618492 C24.405511,43.5192987 24.792654,43.603676 25.123913,43.8020666 L25.123913,43.8020666 Z M63.4032609,44.4379361 L62.5413043,47.1368492 L64.2228261,47.1368492 L63.4315217,44.3955448 L63.4032609,44.4379361 Z M35.4391304,11.7259796 C33.9504882,11.8229431 32.7935846,13.0602732 32.7967391,14.5520666 L32.7967391,27.4814144 C32.7892041,28.1897271 33.0633743,28.8720183 33.5589273,29.3781714 C34.0544803,29.8843245 34.7308169,30.1728717 35.4391304,30.180366 C36.924235,30.1881842 38.1366436,28.9947194 38.1521739,27.5096753 L38.1521739,14.5379361 C38.1458224,13.0257081 36.9501621,11.7864559 35.4391304,11.7259796 Z M105.752174,44.5792405 C105.585133,44.3331031 105.362451,44.1297843 105.102174,43.9857622 C104.735035,43.8001563 104.326173,43.7125431 103.915217,43.7314144 L103.03913,43.7314144 L103.03913,48.0835883 L104.113043,48.0835883 C104.470789,48.1003168 104.826613,48.0223281 105.144565,47.8575014 C105.384292,47.7186611 105.587681,47.5249569 105.738043,47.292284 C105.876969,47.068355 105.968355,46.8182461 106.006522,46.5575014 C106.031616,46.3273864 106.031616,46.095225 106.006522,45.86511 C106.022978,45.6723447 106.022978,45.4785276 106.006522,45.2857622 C105.971692,45.035155 105.885072,44.7945431 105.752174,44.5792405 L105.752174,44.5792405 Z M9.26956522,45.9075014 C9.27455241,45.2666523 9.16447381,44.6301108 8.94456522,44.0281535 C8.74043165,43.4740286 8.42277536,42.9686663 8.01195652,42.5444579 C7.61481455,42.1271112 7.13303166,41.7994988 6.59891304,41.5835883 C6.01247119,41.340698 5.38250135,41.2204747 4.74782609,41.2303274 C4.08935536,41.2093066 3.43403574,41.3297698 2.82608696,41.5835883 C2.29278357,41.801022 1.81130232,42.1284293 1.41304348,42.5444579 C1.01078469,42.9726555 0.698469312,43.4771649 0.494565217,44.0281535 C0.274656626,44.6301108 0.164578021,45.2666523 0.169565217,45.9075014 C0.163339751,46.5484512 0.273456408,47.1852128 0.494565217,47.7868492 C0.706694525,48.3127085 1.01858831,48.7925451 1.41304348,49.1998927 C1.81415561,49.616072 2.29463911,49.9476056 2.82608696,50.1748927 C3.4150326,50.4077912 4.04391409,50.5230061 4.67717391,50.5140231 C5.31031187,50.5215601 5.93891653,50.4063959 6.52826087,50.1748927 C7.06084404,49.9496689 7.54171818,49.6178657 7.94130435,49.1998927 C8.3440271,48.7963803 8.66122181,48.3157823 8.87391304,47.7868492 C9.11916933,47.189729 9.25325529,46.5528207 9.26956522,45.9075014 L9.26956522,45.9075014 Z M18.1293478,17.8585883 L9.21304348,17.8585883 L9.21304348,13.6194579 L20.1641304,13.6194579 L19.5565217,4.74554483 L0,4.74554483 L0,37.2455448 L9.1423913,37.2455448 L9.1423913,26.7183709 L18.1293478,26.7183709 L18.1293478,17.8585883 Z M28.4445652,50.3585883 C28.3588364,50.2395237 28.2965,50.1052608 28.2608696,49.9629361 C28.2177919,49.7866065 28.1894336,49.6070036 28.176087,49.4259796 C28.1631393,49.2425121 28.1631393,49.0583602 28.176087,48.8748927 L28.176087,48.4509796 C28.1335453,47.9576376 27.994304,47.4774953 27.7663043,47.0379361 C27.569187,46.6712771 27.2489004,46.3860219 26.8619565,46.2325014 C27.0842558,46.1548836 27.2868369,46.0294763 27.4554348,45.86511 C27.6266567,45.715417 27.7660154,45.5328091 27.8652174,45.3281535 C27.9787554,45.1288623 28.0643401,44.9149004 28.1195652,44.692284 C28.1746929,44.465576 28.2031466,44.2332039 28.2043478,43.9998927 C28.2301524,43.2541841 27.8996334,42.5406828 27.3141304,42.0781535 C27.0418881,41.8601689 26.7299773,41.6970156 26.3956522,41.5977187 C26.032486,41.4947385 25.6568323,41.4424322 25.2793478,41.442284 L20.0086957,41.442284 L20.0086957,50.3727187 L22.7641304,50.3727187 L22.7641304,47.2640231 L24.1771739,47.2640231 C24.4028228,47.248992 24.6281308,47.297972 24.8271739,47.4053274 C24.9771448,47.51045 25.0985562,47.6512872 25.1804348,47.81511 C25.2662902,47.9884656 25.3235508,48.1745627 25.35,48.366197 C25.35,48.5781535 25.35,48.79011 25.4206522,49.0020666 C25.4913043,49.2140231 25.4206522,49.4683709 25.4913043,49.6944579 C25.5296446,49.9234222 25.5815475,50.1499078 25.6467391,50.3727187 L28.4445652,50.3585883 Z M35.3967391,36.8075014 C44.0248636,36.7143227 50.9480144,29.6520767 50.8695652,21.0238057 C51.4322119,15.1428536 48.6122839,9.45133967 43.5924608,6.33628843 C38.5726376,3.22123719 32.2208406,3.22123719 27.2010175,6.33628843 C22.1811944,9.45133967 19.3612663,15.1428536 19.923913,21.0238057 C19.8376144,29.6575712 26.763045,36.7284674 35.3967391,36.8216318 L35.3967391,36.8075014 Z M47.0684783,48.1118492 L43.1119565,48.1118492 L43.1119565,41.4846753 L40.3565217,41.4846753 L40.3565217,50.41511 L47.0684783,50.41511 L47.0684783,48.1118492 Z M68.0097826,50.4009796 L64.7456522,41.4846753 L62.0608696,41.4846753 L58.7684783,50.41511 L61.5945652,50.41511 L61.9902174,49.1433709 L64.8163043,49.1433709 L65.1978261,50.41511 L68.0097826,50.4009796 Z M75.626087,37.2455448 L65.8478261,20.2890231 L74.7217391,4.74554483 L65,4.74554483 L60.873913,11.8107622 L56.8891304,4.74554483 L46.7576087,4.74554483 L55.8152174,20.4303274 L46.2206522,37.2455448 L56.1119565,37.2455448 L60.7608696,28.9792405 L65.5086957,37.2455448 L75.626087,37.2455448 Z M87.7641304,41.4846753 L85.1641304,41.4846753 L85.1641304,46.2607622 L82.5358696,41.4846753 L79.7097826,41.4846753 L79.7097826,50.41511 L82.323913,50.41511 L82.323913,45.4977187 L85.0652174,50.3727187 L87.75,50.3727187 L87.7641304,41.4846753 Z M104,25.0085883 C104.135707,20.6922393 101.676085,16.7134386 97.7543478,14.9053274 L104.565217,4.74554483 L82.9597826,4.74554483 L82.9597826,10.7792405 L93.0771739,10.7792405 L86.6336957,20.091197 C87.8842748,19.2541907 89.3694347,18.8383459 90.8728261,18.9042405 C92.6202092,18.8080052 94.3315737,19.4266562 95.6135104,20.6179779 C96.8954472,21.8092995 97.6376732,23.4708043 97.6695652,25.2205448 C97.6685178,26.9609258 96.9364155,28.620819 95.6519258,29.7951329 C94.367436,30.9694468 92.6487173,31.5501576 90.9152174,31.3955448 C87.2293,31.4275313 83.9450429,29.0742897 82.7902174,25.5738057 L79.1445652,30.4770666 C81.6067047,34.6313614 86.0861625,37.1695416 90.9152174,37.1467856 C98.1641304,37.1467856 104,31.7205448 104,25.0085883 L104,25.0085883 Z M108.804348,45.8933709 C108.808533,45.3602823 108.746833,44.828719 108.620652,44.3107622 C108.491737,43.796318 108.255809,43.3148327 107.928261,42.8977187 C107.600379,42.4682643 107.17385,42.1241329 106.684783,41.8944579 C106.098008,41.615665 105.455008,41.4754619 104.805435,41.4846753 L100.326087,41.4846753 L100.326087,50.41511 L104.31087,50.41511 C104.997465,50.4311925 105.68151,50.3259549 106.331522,50.1042405 C106.866447,49.9237142 107.350781,49.6185835 107.744565,49.2140231 C108.130524,48.8132825 108.420424,48.3301153 108.592391,47.8009796 C108.766827,47.1809678 108.838428,46.5365511 108.804348,45.8933709 L108.804348,45.8933709 Z M129.872826,45.8933709 C129.884979,45.251955 129.774675,44.6141078 129.547826,44.0140231 C129.143843,42.8995694 128.278554,42.0136785 127.173913,41.5835883 C125.980011,41.1120858 124.651511,41.1120858 123.457609,41.5835883 C122.360769,42.0235139 121.506229,42.9140881 121.111957,44.0281535 C120.885108,44.6282383 120.774803,45.2660855 120.786957,45.9075014 C120.773755,46.5489968 120.884093,47.1870416 121.111957,47.7868492 C121.320458,48.3145886 121.632789,48.7950974 122.030435,49.1998927 C122.433009,49.6143468 122.913124,49.9456267 123.443478,50.1748927 C124.640923,50.6273982 125.962338,50.6273982 127.159783,50.1748927 C127.690136,49.9456267 128.170252,49.6143468 128.572826,49.1998927 C128.970472,48.7950974 129.282803,48.3145886 129.491304,47.7868492 C129.748192,47.1928087 129.887359,46.5545615 129.901087,45.9075014 L129.872826,45.8933709 Z M130,4.74554483 L111.15,4.74554483 L106.26087,22.4792405 L112.605435,22.4792405 C113.966692,20.9459041 115.997696,20.1842777 118.031522,20.4444579 C120.959733,20.5132502 123.301817,22.8991697 123.316304,25.8281535 C123.316304,28.9933709 121.394565,31.1977187 117.565217,31.1977187 C116.128319,31.286312 114.716738,30.7895751 113.651982,29.8206477 C112.587227,28.8517203 111.959957,27.4931024 111.913043,26.0542405 L105.554348,27.0575014 C106.383394,32.8821418 111.399556,37.1912064 117.282609,37.1325014 C120.476867,37.3878278 123.633308,36.3023624 125.994922,34.1364321 C128.356537,31.9705018 129.710294,28.9194863 129.731522,25.71511 C129.79963,22.3058414 128.106879,19.1018981 125.252174,17.2368492 C122.195565,15.0005707 118.222173,14.443553 114.668478,15.7531535 L116.081522,10.1857622 L129.01087,10.1857622 L130,4.74554483 Z M126.523913,43.9433709 C126.365498,43.7700342 126.166382,43.6389092 125.944565,43.5618492 C125.577785,43.4118618 125.166781,43.4118618 124.8,43.5618492 C124.578183,43.6389092 124.379067,43.7700342 124.220652,43.9433709 C124.023872,44.1542297 123.874511,44.4047709 123.782609,44.6781535 C123.646789,45.0732728 123.584528,45.4899376 123.598913,45.9075014 C123.58222,46.3251935 123.644543,46.7422819 123.782609,47.1368492 C123.878246,47.4127294 124.02707,47.6671706 124.220652,47.8857622 C124.382745,48.0513968 124.581062,48.1771588 124.8,48.2531535 C125.166781,48.4031409 125.577785,48.4031409 125.944565,48.2531535 C126.163503,48.1771588 126.36182,48.0513968 126.523913,47.8857622 C126.717495,47.6671706 126.866319,47.4127294 126.961957,47.1368492 C127.100022,46.7422819 127.162345,46.3251935 127.145652,45.9075014 C127.160037,45.4899376 127.097777,45.0732728 126.961957,44.6781535 C126.870055,44.4047709 126.720694,44.1542297 126.523913,43.9433709 L126.523913,43.9433709 Z M5.87826087,43.9433709 C5.72382749,43.7719603 5.52977099,43.6409722 5.31304348,43.5618492 C5.12702445,43.4941136 4.93153364,43.4559691 4.73369565,43.4488057 C4.53585766,43.4559691 4.34036686,43.4941136 4.15434783,43.5618492 C3.9325309,43.6389092 3.7334152,43.7700342 3.575,43.9433709 C3.38327464,44.1579841 3.23456511,44.4074323 3.13695652,44.6781535 C3.00113635,45.0732728 2.9388761,45.4899376 2.95326087,45.9075014 C2.93656772,46.3251935 2.99889127,46.7422819 3.13695652,47.1368492 C3.23796174,47.4102249 3.38623206,47.6637194 3.575,47.8857622 C3.73949667,48.0484034 3.9370928,48.1737082 4.15434783,48.2531535 C4.34036686,48.3208891 4.53585766,48.3590336 4.73369565,48.366197 C4.93153364,48.3590336 5.12702445,48.3208891 5.31304348,48.2531535 C5.52605696,48.1735125 5.71899995,48.0480995 5.87826087,47.8857622 C6.07660081,47.668164 6.23023744,47.4137033 6.33043478,47.1368492 C6.46186294,46.7406689 6.52400491,46.3247958 6.51413043,45.9075014 C6.52154979,45.4903638 6.45946921,45.0749014 6.33043478,44.6781535 C6.23396567,44.4037201 6.07977547,44.153161 5.87826087,43.9433709 L5.87826087,43.9433709 Z" id="fts-orlando-c-copy" fill="#10144c"></path>
    </g>
</svg>