<?xml version="1.0" encoding="utf-8"?>
<!-- Generator: Adobe Illustrator 24.3.0, SVG Export Plug-In . SVG Version: 6.00 Build 0)  -->
<svg version="1.1" id="Layer_1" xmlns="http://www.w3.org/2000/svg" xmlns:xlink="http://www.w3.org/1999/xlink" x="0px" y="0px"
	 viewBox="0 0 76.709 60" style="enable-background:new 0 0 76.709 60;" xml:space="preserve">
<style type="text/css">
	.st0{fill:none;}
	.st1{fill:#303c64;}
</style>
<rect class="st0" width="76.709" height="60"/>
<g>
	<path class="st1" d="M0,45.495h76.709v-8.874H0V45.495z M60.285,37.748h6.623v1.594h-4.039v0.998h3.719v1.595h-3.719v2.355h-2.584
		V37.748z M45.54,37.748h2.584v4.783h4.003v1.758H45.54C45.54,44.29,45.54,37.748,45.54,37.748z M32.7,37.519
		c1.566,0,4.471,0.11,4.471,3.501c0,3.39-2.905,3.501-4.471,3.501c-1.567,0-4.472-0.11-4.472-3.501
		C28.228,37.629,31.133,37.519,32.7,37.519z M12.301,37.748l0.843,3.995h0.018l0.962-3.995h2.061l0.954,3.995h0.018L18,37.748h2.502
		l-1.915,6.542h-2.539l-0.888-3.629h-0.018l-0.897,3.629h-2.539l-1.905-6.542H12.301z"/>
	<path class="st1" d="M32.7,42.87c1.053,0,1.722-0.521,1.722-1.85c0-1.328-0.669-1.85-1.722-1.85c-1.055,0-1.723,0.522-1.723,1.85
		C30.977,42.349,31.645,42.87,32.7,42.87z"/>
	<path class="st1" d="M20.033,19.878c-0.917,0-1.665,0.748-1.665,1.666v6.905c0,0.919,0.747,1.666,1.665,1.666
		c0.919,0,1.666-0.747,1.666-1.666v-6.905C21.699,20.626,20.952,19.878,20.033,19.878z"/>
	<path class="st1" d="M37.833,24.67l5.739-10.165H0v21.002h44.223L37.833,24.67z M10.686,23.614v4.087H5.979v5.469H1.758V16.806
		l9.709-0.008l0.277,4.042H5.979v2.772L10.686,23.614L10.686,23.614z M19.986,33.045c-4.348,0-7.886-3.585-7.886-7.991
		c0-4.405,3.537-7.989,7.886-7.989s7.886,3.585,7.886,7.989C27.872,29.46,24.334,33.045,19.986,33.045z M33.345,28.688l-2.621,4.525
		h-4.655l4.948-8.541l-4.544-7.847h4.653l2.217,3.829l2.217-3.829h4.653l-4.544,7.847l4.947,8.541h-4.653L33.345,28.688z"/>
	<path class="st1" d="M67.885,24.897c-0.688,0-1.325,0.249-1.793,0.703c-0.47,0.455-0.727,1.075-0.727,1.745
		c0,0.704,0.254,1.348,0.714,1.816c0.462,0.47,1.105,0.729,1.807,0.729c0.75,0,1.436-0.264,1.931-0.742
		c0.488-0.471,0.758-1.112,0.758-1.803c0-0.654-0.264-1.265-0.742-1.72C69.338,25.156,68.647,24.897,67.885,24.897z"/>
	<path class="st1" d="M45.169,14.505L39.431,24.67l6.39,10.837h30.888V14.505C76.709,14.505,45.169,14.505,45.169,14.505z
		 M57.176,31.562c-1.275,1.052-3.133,1.607-5.374,1.607c-1.385,0-2.596-0.196-3.602-0.585c-0.849-0.33-1.556-0.796-2.098-1.387
		c-0.894-0.977-1.199-2.126-1.189-2.957h4.282c0.133,0.42,0.383,0.793,0.705,1.047c0.493,0.394,1.2,0.603,2.043,0.603
		c0.743,0,1.436-0.241,1.949-0.678c0.538-0.459,0.835-1.096,0.835-1.795c0-1.56-1.036-2.569-2.64-2.569
		c-1.199,0-2.011,0.343-2.546,1.076h-4.019l1.632-9.09h10.972v3.566h-7.698l-0.693,3.192l0.616-0.498
		c0.83-0.616,2.001-0.929,3.482-0.929c1.492,0,2.756,0.445,3.655,1.284c0.481,0.449,0.855,1.009,1.109,1.665
		c0.274,0.707,0.414,1.529,0.414,2.446C59.012,29.188,58.378,30.57,57.176,31.562z M73.985,29.86
		c-0.309,0.717-0.764,1.331-1.354,1.828c-1.146,0.969-2.788,1.48-4.746,1.48c-1.174,0-2.229-0.215-3.132-0.638
		c-0.832-0.389-1.544-0.958-2.114-1.689c-0.534-0.684-0.944-1.507-1.217-2.446c-0.259-0.89-0.389-1.863-0.389-2.891
		c0-2.631,0.62-4.833,1.793-6.369c0.609-0.797,1.366-1.412,2.25-1.83c0.931-0.441,2.014-0.664,3.215-0.664
		c1.793,0,3.145,0.346,4.135,1.053c0.954,0.684,1.555,1.695,1.832,3.087h-3.905c-0.142-0.317-0.396-0.624-0.719-0.861l-0.006-0.005
		l-0.006-0.004c-0.352-0.226-0.791-0.327-1.426-0.327c-0.911,0-1.695,0.412-2.267,1.193c-0.468,0.639-0.78,1.51-0.875,2.45
		l-0.066,0.651l0.482-0.441c0.952-0.872,2.019-1.226,3.681-1.226c0.764,0,1.484,0.121,2.139,0.358
		c0.642,0.233,1.208,0.573,1.679,1.01c0.985,0.913,1.505,2.19,1.505,3.691C74.475,28.236,74.31,29.106,73.985,29.86z"/>
</g>
</svg>
