<?xml version="1.0" encoding="utf-8"?>
<!-- Generator: Adobe Illustrator 24.3.0, SVG Export Plug-In . SVG Version: 6.00 Build 0)  -->
<svg version="1.1" id="Layer_1" xmlns="http://www.w3.org/2000/svg" xmlns:xlink="http://www.w3.org/1999/xlink" x="0px" y="0px"
	 viewBox="0 0 165 60" style="enable-background:new 0 0 165 60;" xml:space="preserve">
<style type="text/css">
	.st0{fill:none;}
	.st1{fill-rule:evenodd;clip-rule:evenodd;fill:#000000;}
</style>
<rect class="st0" width="165" height="60"/>
<g>
	<path class="st1" d="M10.367,28.113c-3.112,0-5.617,1.713-6.697,4.072c1.08,2.355,3.586,4.069,6.697,4.069
		c3.109,0,5.614-1.713,6.694-4.069C15.981,29.826,13.476,28.113,10.367,28.113z M10.367,35.959c-2.088,0-3.778-1.689-3.778-3.775
		c0-2.088,1.689-3.778,3.778-3.778c2.085,0,3.775,1.689,3.775,3.778C14.142,34.27,12.453,35.959,10.367,35.959z"/>
	<path class="st1" d="M16.824,28.254l6.478-7.805l6.193-0.528l-5.764,20.098c0.087-0.237,0.657-1.368,4.252-4.204
		c3.802-2.998,8.891-6.832,8.891-6.832s3.838-2.683,3.838-4.525c0-1.482-1.74-1.506-3.325-1.041
		c-2.37,0.699-2.854,3.382-2.854,3.382l-6.394,0.57c0,0,0.66-3.994,4.888-6.631c0.891-0.555,1.977-1.071,3.22-1.455H5.233L0,40.685
		h17.103l3.589-12.687L16.824,28.254z M10.367,39.308c-3.937,0-7.126-3.19-7.126-7.123c0-3.937,3.19-7.126,7.126-7.126
		c3.934,0,7.123,3.19,7.123,7.126C17.491,36.118,14.301,39.308,10.367,39.308z"/>
	<path class="st1" d="M49.705,19.282h-0.06h-4.759c2.079,0.888,2.845,2.587,2.376,4.777c-0.657,3.07-3.655,5.338-3.655,5.338
		l-6.763,5.221l7.379-0.699l-1.341,4.723l-24.314,2.043h25.846l-0.008,0.033h115.352L165,19.282H49.705z M66.931,38.096
		l-5.905-9.128h-0.054l-2.334,9.128h-7.403l4.174-16.308h8.84l5.545,9.053h0.084l2.304-9.053h7.414L75.42,38.096H66.931z
		 M101.165,25.76H88.07l-0.576,2.196h12.161l-1.017,3.973H86.477l-0.549,2.196h13.098l-1.017,3.97H77.169l4.174-16.308h20.839
		L101.165,25.76z M117.968,38.096l-0.36-9.038h-0.054l-4.996,9.038h-7.607l-1.536-16.308h7.496l-0.027,9.947l0.054,0.018
		l5.437-9.965h6.178l0.3,9.965h0.057l5.077-9.965h7.496l-9.911,16.308H117.968z M157.91,26.606h-9.005
		c0.036-0.105,0.054-0.207,0.054-0.297c0-0.906-1.071-1.359-3.214-1.359c-2.286,0-3.43,0.465-3.43,1.389
		c0,0.336,0.273,0.54,0.822,0.618l8.951,1.137c3.496,0.441,5.245,1.68,5.245,3.718c0,0.318-0.048,0.66-0.138,1.026
		c-0.513,1.992-1.908,3.463-4.189,4.411c-2.277,0.951-5.578,1.425-9.896,1.425c-3.37,0-5.932-0.252-7.688-0.753
		c-2.379-0.699-3.571-1.899-3.571-3.604c0-0.348,0.057-0.723,0.165-1.116h9.335c-0.144,0.666,0.165,1.107,0.933,1.32
		c0.423,0.12,1.137,0.183,2.142,0.183c2.289,0,3.433-0.519,3.433-1.551c0-0.486-0.384-0.774-1.152-0.867l-8.567-1.095
		c-2.875-0.363-4.312-1.527-4.312-3.49c0-0.348,0.045-0.714,0.138-1.092c0.915-3.574,5.152-5.362,12.714-5.362
		c7.541,0,11.309,1.521,11.309,4.558C157.991,26.066,157.964,26.333,157.91,26.606z"/>
</g>
</svg>
