<?xml version="1.0" encoding="UTF-8"?>
<svg id="Layer_1" data-name="Layer 1" xmlns="http://www.w3.org/2000/svg" version="1.1" viewBox="0 0 165 60">
  <defs>
    <style>
      .cls-1 {
        fill: none;
      }

      .cls-1, .cls-2, .cls-3 {
        stroke-width: 0px;
      }

      .cls-2 {
        fill: #fbad1d;
      }

      .cls-3 {
        fill: #000;
      }
    </style>
  </defs>
  <rect class="cls-1" width="165" height="60"/>
  <g>
    <g>
      <path class="cls-3" d="M159.3,27.8v10.1c0,.9-.4,2-1.6,2s-1.6-1.1-1.6-2v-10.1h-5.7v10.1c0,.9-.4,2-1.6,2s-1.6-1.1-1.6-2v-10.1h-5.7v8.9c0,1.7-1.3,3.2-2.8,3.2h-5.9c-1.6,0-2.9-1.5-2.9-3.2s1.3-3.3,2.9-3.3h5.5v-5.6h-5.5c-4.7,0-8.5,4-8.5,8.9s3.8,8.9,8.5,8.9h5.7c1.9,0,3.8-.8,5.3-2,1.4,1.4,2.9,2,4.7,2s3.3-.6,4.7-2c1.4,1.4,2.9,2,4.7,2,3.9,0,7-3.2,7-7.4v-10.4h-5.7Z"/>
      <g>
        <path class="cls-2" d="M125.9,21.3h.8v1.6h1.6v-1.6h.8v3.9h-.8v-1.6h-1.6v1.6h-.8v-3.9Z"/>
        <path class="cls-2" d="M130,23.3c0-1.2.8-2.1,2-2.1s2,.9,2,2.1-.7,2-2,2-2-.9-2-2ZM132,24.6c.7,0,1.1-.6,1.1-1.2s-.4-1.3-1.1-1.3-1.1.6-1.1,1.3.4,1.2,1.1,1.2Z"/>
        <path class="cls-2" d="M134.8,21.3h.9l.9,1.5.2.3h0c0-.1.1-.2.2-.3l.9-1.5h.9v3.9h-.8v-2.6h0c0,0-.1.2-.2.3l-.7,1.1h-.5l-.7-1.1c0-.1-.1-.3-.2-.3h0v2.6h-.8v-3.9Z"/>
        <path class="cls-2" d="M139.8,21.3h2.8v.7h-1.9v.8h1.8v.7h-1.8v.9h2v.7h-2.8v-3.9Z"/>
        <path class="cls-2" d="M144.8,23.3c0-1.2.8-2.1,2-2.1s2,.9,2,2.1-.7,2-2,2-2-.9-2-2ZM146.8,24.6c.7,0,1.1-.6,1.1-1.2s-.4-1.3-1.1-1.3-1.1.6-1.1,1.3.4,1.2,1.1,1.2Z"/>
        <path class="cls-2" d="M149.6,21.3h2.6v.8h-1.8v1h1.6v.7h-1.6v1.4h-.8v-3.9Z"/>
        <path class="cls-2" d="M155.1,22.1h-1.1v-.8h3v.8h-1.1v3.1h-.8v-3.1Z"/>
        <path class="cls-2" d="M157.8,21.3h.8v1.6h1.6v-1.6h.8v3.9h-.8v-1.6h-1.6v1.6h-.8v-3.9Z"/>
        <path class="cls-2" d="M162.2,21.3h2.8v.7h-1.9v.8h1.8v.7h-1.8v.9h2v.7h-2.8v-3.9Z"/>
      </g>
    </g>
    <g>
      <path class="cls-3" d="M98.1,45.5h-.7l-.3-1.7s0,0,0-.1c0,0,0-.1,0-.2,0,0,0-.1,0-.2,0,0,0,.1,0,.2s0,.1,0,.2c0,0,0,.1,0,.1l-.3,1.7h-.7l-.8-3.2h.7l.4,1.7s0,0,0,.1c0,0,0,.1,0,.1,0,0,0,0,0,0,0,0,0,0,0,0,0,0,0,0,0-.1s0-.1,0-.1l.3-1.7h.7l.4,1.7s0,0,0,.1c0,0,0,.1,0,.1,0,0,0,0,0,0,0,0,0,0,0,0,0,0,0,0,0-.1,0,0,0-.1,0-.1l.4-1.7h.7l-.8,3.2ZM102.6,43.6c0,.1-.1.2-.2.3s-.2.2-.4.2c-.1,0-.3,0-.5,0h-.4v1.3h-.7v-3.2h1.1c.2,0,.3,0,.5,0s.3.1.4.2c.1,0,.2.2.2.3s0,.2,0,.4,0,.3,0,.4ZM101.8,42.9c0,0-.2,0-.4,0h-.4v.7h.4c.3,0,.5-.1.5-.4s0-.2-.1-.3ZM106.2,45.5l-1.4-1.9s0,0,0-.1c0,0,0,.1,0,.2v1.8h-.7v-3.2h.6l1.4,1.8s0,0,0,.1c0,0,0-.1,0-.2v-1.8h.7v3.2h-.6ZM109.6,42.9v2.6h-.7v-2.6h-.6v-.6h1.9v.6h-.6Z"/>
      <path class="cls-3" d="M61.5,36.2c-.3.9-.7,1.6-1.3,2.3-.6.7-1.2,1.2-2,1.6-.8.4-1.6.6-2.6.6s-1.6-.2-2.4-.5c-.8-.3-1.3-.7-1.7-1.3v7h-4.8v-19.1h4.8v1.4c.4-.5.9-1,1.7-1.3.8-.3,1.5-.5,2.4-.5s1.8.2,2.6.6c.8.4,1.4.9,2,1.5.6.6,1,1.4,1.3,2.3.3.9.5,1.8.5,2.7s-.2,1.8-.5,2.7ZM56.3,31.3c-.5-.6-1.2-.9-2-.9s-1.5.3-2,.9c-.5.6-.7,1.4-.7,2.3s.3,1.7.8,2.2c.5.6,1.2.9,2,.9s1.4-.3,2-.8c.5-.6.8-1.3.8-2.2s-.3-1.7-.8-2.3ZM76.7,36.3c-.4.9-.9,1.6-1.6,2.3-.7.6-1.4,1.1-2.3,1.5-.9.4-1.8.6-2.8.6s-1.9-.2-2.8-.5c-.9-.4-1.6-.8-2.3-1.5-.7-.6-1.2-1.4-1.6-2.3-.4-.9-.6-1.8-.6-2.8s.2-1.9.6-2.8c.4-.9.9-1.6,1.6-2.2.7-.6,1.4-1.1,2.3-1.5.9-.4,1.8-.5,2.8-.5s1.9.2,2.8.5c.9.4,1.7.8,2.3,1.5.7.6,1.2,1.4,1.6,2.2.4.9.6,1.8.6,2.8s-.2,1.9-.6,2.8ZM72.4,32.3c-.1-.4-.3-.7-.5-1-.2-.3-.5-.6-.8-.7-.3-.2-.7-.3-1.1-.3s-.8,0-1.1.3c-.3.2-.6.5-.8.8-.2.3-.4.7-.5,1-.1.4-.2.8-.2,1.1s0,.8.2,1.2c.1.4.3.7.5,1,.2.3.5.6.8.8.3.2.7.3,1.1.3s.8,0,1.1-.3c.3-.2.6-.5.8-.8.2-.3.4-.7.5-1.1.1-.4.2-.8.2-1.2s0-.8-.2-1.1ZM78.8,24.6v-4.4h4.8v4.4h-4.8ZM78.8,40.3v-13.5h4.8v13.5h-4.8ZM95,40.3v-6.9c0-.9-.1-1.6-.4-2.1-.3-.5-.8-.7-1.5-.7s-1.3.2-1.6.7c-.4.5-.6,1.1-.6,2v7.1h-4.8v-13.5h4.8v1.4c.4-.6,1-1.1,1.7-1.3.7-.3,1.4-.4,2.2-.4s1.7.2,2.3.5c.6.3,1.2.7,1.6,1.2.4.5.7,1.1.9,1.8.2.7.3,1.5.3,2.3v8.1h-4.8ZM107.2,40.3c-.7,0-1.3-.1-1.9-.4-.6-.2-1-.6-1.4-1-.4-.4-.7-1-.9-1.6-.2-.6-.3-1.3-.3-2v-4.9h-1.7v-3.6h1.7v-5.6h4.8v5.6h2.3v3.6h-2.3v4.1c0,.5.1.9.4,1.3.3.3.6.5,1.1.5h1.2v4.1h-3Z"/>
      <path class="cls-3" d="M88.4,25c-.2,0-.4,0-.6-.1-.2,0-.3-.2-.5-.3-.1-.1-.2-.3-.3-.5,0-.2-.1-.4-.1-.7v-1.7s-.6,0-.6,0v-1.2s.6,0,.6,0v-1.9s1.6,0,1.6,0v1.9s.8,0,.8,0v1.2s-.8,0-.8,0v1.4c0,.2,0,.3.2.4,0,.1.2.2.4.2h.4s0,1.4,0,1.4h-1ZM93.2,25v-2.3c0-.3,0-.5-.2-.7,0-.2-.3-.2-.5-.2-.2,0-.4,0-.6.2-.1.2-.2.4-.2.7v2.4s-1.6,0-1.6,0v-7.6c0,0,1.5,0,1.5,0v3.6c.2-.2.4-.4.6-.5.2-.1.5-.2.7-.2.3,0,.6,0,.8.1.2,0,.4.2.5.4.1.2.2.4.3.6s.1.5.1.8v2.7s-1.6,0-1.6,0ZM99.2,24.9c-.4.1-.7.2-1.2.2-.3,0-.7,0-1-.1-.3,0-.6-.2-.8-.4-.2-.2-.4-.4-.6-.7-.1-.3-.2-.7-.2-1.1,0-.4,0-.7.2-1,.1-.3.3-.5.5-.7.2-.2.4-.4.7-.5.3-.1.6-.2.9-.2.4,0,.7,0,1,.2.3.1.6.3.8.5.2.2.4.5.5.8.1.3.2.7.2,1.1h-3.2c0,.3.1.5.3.7.2.2.4.3.7.3.4,0,.7,0,.9-.1.2,0,.4-.2.6-.4l.7.9c-.3.3-.7.5-1,.6ZM98.2,21.5c-.1-.1-.3-.2-.5-.2-.2,0-.4,0-.5.2-.1.1-.2.3-.2.5h1.5c0-.2-.1-.4-.2-.6Z"/>
      <path class="cls-2" d="M22.2,38l-.4,7.9H0v-7.2l4.9-3.4c.7-.5,1.9-1.4,3.7-2.9,1.8-1.5,2.9-2.6,3.5-3.4.5-.7.7-1.4.7-2.2s-.2-1.2-.6-1.6c-.4-.4-.8-.6-1.4-.6s-2.4,0-2.7,4v.7c0,0-8.2-1.6-8.2-1.6v-.6c.6-3.3,2-5.8,4.1-7.5,2.1-1.6,4.6-2.5,7.4-2.5s5.6.8,7.6,2.5c2,1.7,3,4,3,6.7s-.5,3.6-1.6,5.3c-.9,1.4-3.3,3.5-7.2,6.2h9ZM35.9,38c3.9-2.7,6.3-4.7,7.2-6.2,1.1-1.7,1.6-3.4,1.6-5.3,0-2.8-1-5.1-3-6.7-2-1.7-4.5-2.5-7.6-2.5s-5.3.8-7.4,2.5c-2.1,1.6-3.4,4.2-4,7.5v.6c0,0,8,1.6,8,1.6v-.7c.4-4,2.1-4,2.7-4s1.1.2,1.4.6c.4.4.6.9.6,1.6s-.2,1.5-.7,2.2c-.5.8-1.7,1.9-3.5,3.4-1.8,1.5-3.1,2.5-3.7,2.9l-4.9,3.4v7.2h21.8l.4-7.9h-9Z"/>
      <path class="cls-2" d="M56.1,43.6c0,.1-.1.2-.2.3s-.2.2-.4.2c-.1,0-.3,0-.5,0h-.4v1.3h-.7v-3.3h1.1c.2,0,.3,0,.5,0,.1,0,.3.1.4.2.1,0,.2.2.2.3,0,.1,0,.3,0,.4s0,.3,0,.4ZM55.3,42.9c0,0-.2,0-.4,0h-.4v.8h.4c.3,0,.5-.1.5-.4s0-.2-.1-.3ZM58,45.5v-3.3h.7v3.3h-.7ZM61.9,42.8v2.7h-.7v-2.7h-.7v-.6h2v.6h-.6ZM65.6,42.8v2.7h-.7v-2.7h-.7v-.6h2v.6h-.6ZM69.8,45.2c-.2.2-.5.3-.8.3s-.4,0-.6-.1c-.2,0-.3-.2-.5-.3l.4-.5c0,0,.2.1.3.2.1,0,.3,0,.4,0s.3,0,.3,0c0,0,0-.1,0-.2s0-.2,0-.2c0,0-.1-.1-.2-.2,0,0-.2,0-.3-.1s-.2,0-.3-.1c0,0-.2,0-.2-.1,0,0-.1-.1-.2-.2s0-.2-.1-.2c0,0,0-.2,0-.3s0-.3.1-.4c0-.1.2-.2.3-.3.1,0,.2-.1.4-.2.1,0,.3,0,.4,0s.3,0,.5,0c.2,0,.3.1.5.2l-.3.5c0,0-.2,0-.3-.1-.1,0-.2,0-.3,0s-.2,0-.2,0c0,0-.1,0-.1,0s0,0,0,.1c0,0,0,0,0,.1,0,0,0,.1,0,.2,0,0,.1,0,.2.1,0,0,.2,0,.3.1,0,0,.2,0,.3.1,0,0,.2,0,.2.1,0,0,.1.1.2.2,0,0,.1.2.2.3s0,.2,0,.3c0,.3-.1.6-.3.7ZM74.4,44.9c0,.1-.1.2-.2.3s-.2.1-.4.2c-.2,0-.3,0-.5,0h-1.2v-3.3h1.1c.2,0,.3,0,.5,0,.1,0,.3,0,.4.2s.2.2.2.3c0,.1,0,.2,0,.4s0,.3-.1.4-.2.2-.4.3c0,0,.2,0,.3,0,0,0,.2.1.2.2s.1.1.1.2c0,0,0,.2,0,.3,0,.1,0,.3,0,.4ZM73.5,42.8c0,0-.2,0-.4,0h-.4v.8h.4c.3,0,.5-.1.5-.4s0-.2-.1-.3ZM73.6,44.2c0,0-.2,0-.3,0h-.5v.7h.5c.2,0,.3,0,.4,0s.1-.2.1-.3,0-.2-.1-.3ZM79.1,44.7c0,.2-.2.3-.3.4-.1.1-.3.2-.5.3-.2,0-.4,0-.5,0s-.4,0-.5,0c-.2,0-.3-.1-.4-.3s-.2-.3-.3-.4c0-.2-.1-.4-.1-.6v-2h.7v2c0,.1,0,.2,0,.3,0,0,0,.2.1.2,0,0,.1.1.2.2,0,0,.2,0,.3,0s.2,0,.3,0c0,0,.2,0,.2-.2,0,0,.1-.1.2-.2,0,0,0-.2,0-.3v-2h.7v2c0,.2,0,.4-.1.6ZM82.8,45.5l-.9-1.6v1.6h-.7v-3.3h1.2c.2,0,.3,0,.5,0,.1,0,.3.1.4.2s.2.2.2.3c0,.1,0,.3,0,.4,0,.2,0,.4-.2.6s-.3.3-.5.3l.9,1.4h-.8ZM82.7,42.9c0,0-.2-.1-.3-.1h-.5v.8h.5c.1,0,.2,0,.3-.1,0,0,.1-.2.1-.3s0-.2-.1-.3ZM88.4,44.5c0,.2-.2.4-.3.5-.1.1-.3.3-.5.3-.2,0-.4.1-.6.1s-.5,0-.7-.1c-.2,0-.4-.2-.5-.4-.1-.2-.3-.3-.3-.5,0-.2-.1-.4-.1-.7s0-.5.1-.7c0-.2.2-.4.4-.5.2-.1.3-.3.5-.3.2,0,.4-.1.6-.1s.5,0,.7.2c.2.1.4.2.5.4l-.4.4c-.1-.1-.2-.2-.4-.3s-.3,0-.5,0-.3,0-.4,0c-.1,0-.2.1-.3.2,0,0-.2.2-.2.3,0,.1,0,.3,0,.4s0,.3,0,.4c0,.1.1.2.2.3,0,0,.2.2.3.2.1,0,.2,0,.4,0s.4,0,.5-.1c.1,0,.2-.2.3-.4h-.8v-.6h1.6c0,.3,0,.5-.1.7ZM92.2,45.5v-1.3h-1.1v1.3h-.7v-3.3h.7v1.4h1.1v-1.4h.7v3.3h-.7Z"/>
      <path class="cls-2" d="M111.7,42.1c0-1,.5-1.8,1.2-2.5.8-.7,1.6-1,2.6-.9,1,0,1.9.5,2.5,1.2.6.7.9,1.6.9,2.7,0,1-.5,1.8-1.2,2.5-.7.7-1.6,1-2.6.9-1,0-1.8-.5-2.5-1.3-.7-.8-1-1.6-.9-2.6ZM114.6,35.7c-.5-4.1-.9-7.9-1.1-11.4-.2-3.5-.2-6.7-.1-9.8l8.5-.6c-.3,3.7-1.9,10.9-5,21.6l-.2.6-2.1-.5Z"/>
    </g>
  </g>
</svg>