<?xml version="1.0" encoding="utf-8"?>
<!-- Generator: Adobe Illustrator 27.3.1, SVG Export Plug-In . SVG Version: 6.00 Build 0)  -->
<svg version="1.1" id="Layer_1" xmlns="http://www.w3.org/2000/svg" xmlns:xlink="http://www.w3.org/1999/xlink" x="0px" y="0px"
	 viewBox="0 0 1565 213" style="enable-background:new 0 0 1565 213;" xml:space="preserve">
<style type="text/css">
	.st0{fill:#FCCC12;}
	.st1{fill:#FF7112;}
	.st2{fill:#05AC3F;}
	.st3{fill:#EF1541;}
	.st4{fill:#6E55DC;}
	.st5{fill:#069DE0;}
</style>
<g>
	<path d="M1564.9,41.1v133.8c0,21-17,38.1-38.1,38.1h-262.8c-21,0-38.1-17-38.1-38.1V41.1c0-21,17-38.1,38.1-38.1h262.8
		C1547.8,3,1564.9,20,1564.9,41.1z M1381.3,40.6h-132.7v31.1h50.8v115.6h31.1V71.8h50.8V40.6z M1456.8,187.4h32.4l56.6-146.7h-33.4
		l-39.3,102l-39.3-102h-33.6L1456.8,187.4z"/>
	<path d="M391.6,110.1c0.2-43.3,37-76.9,81.3-76.9c38.5,0,59.1,24.7,61.9,27.4l-22.2,22.2c-4.8-4.8-16.7-18.2-39.9-18.4
		c-27.4,0-49.7,20.7-49.7,46c0,27,24,46,49.5,46c23,0.2,33.2-7.9,47.4-20.1l20.3,23.6c-16.1,13.8-33.4,27.8-67.7,27.8
		C427,187.4,391.6,152.1,391.6,110.1z"/>
	<path d="M559,110.7c-0.2-43.9,36.8-77.3,80.9-77.5c44.3,0,81.1,33.4,81.3,77.1c0,43.9-37,77.3-81.3,77.3
		C596,187.7,559,154.4,559,110.7z M689.9,110.3c0-25.7-21.9-45.8-49.7-45.8c-27.2,0-50,19.6-50,46c0,25.7,21.9,46,49.7,46
		C668.6,156.5,689.9,135.8,689.9,110.3z"/>
	<path d="M848.5,153h-65l-13.8,30.9h-34.5l65.4-146.7h30.7l65.4,146.7h-34.5L848.5,153z M834.5,121.6L815.9,80l-18.4,41.6H834.5z"/>
	<path d="M913.4,166.8l14.8-27.2c0.2,0.2,25.5,16.1,54.1,16.1c36.8,0,33.6-16.7,33.6-18.2c0-21.5-44.5-10.7-73.6-23.6
		c-7.5-3.6-24.7-13-24.7-37.6c0-24,21.5-43.3,65-43.3c28.6,0,59.6,14.4,59.6,14.4l-13.8,26.8c0,0-21.9-9.8-45.8-9.8
		c-22.4,0-33.9,6.3-33.9,11.9c0,18.8,44.3,9.4,71.9,21.5c18,7.9,26.3,22.6,26.3,39.7c0,40.5-38.9,49.5-64.4,49.5
		C975.4,187,947.2,187.7,913.4,166.8z"/>
	<polygon points="1201.4,68.3 1150.6,68.3 1150.6,183.9 1119.5,183.9 1119.5,68.3 1068.7,68.3 1068.7,37.2 1201.4,37.2 	"/>
	<path class="st0" d="M56,140.6c-5.7-3.3-12.1-5-18.6-5C16.7,135.6,0,153.9,0,173l0,0c0,28.7,25,38,37.2,38c41.2,0,83.3,0,124.5,0
		L56,140.6z"/>
	<path class="st1" d="M100.5,74.1c-2.9-5.8-7.2-11.2-12.7-14.8c-6.5-4.2-13.9-6.2-21.2-6.1C54.5,53.3,42.7,59,36.1,69
		c-15.7,24,0.1,45,10.3,51.6c34.5,22.6,71.4,48.8,106,71.4L100.5,74.1z"/>
	<path class="st2" d="M326.4,135.6L326.4,135.6c-6.5,0-13,1.7-18.6,5L202,210.9c41.2,0,83.3,0,124.5,0c12.1,0,37.2-9.3,37.2-38l0,0
		C363.7,153.8,347,135.6,326.4,135.6z"/>
	<path class="st3" d="M172.8,22.4C166.4,8.3,151.9,0,137.7,0c-4.7,0-9.4,1-13.8,2.9c-26.1,11.9-24,38-18.9,49.1l51.3,119.6
		l19.3-129.9C176.2,35.2,175.5,28.3,172.8,22.4z"/>
	<path class="st4" d="M239.4,3c-4.4-2-9.1-2.9-13.8-2.9l0,0c-14.2,0-27.6,6-35.1,22.4c-2.4,5.3-3.3,11.4-2.9,17.3h17.9
		c4.7,0,6.3,2,7.6,3.2c1.4,1.4,1.1,1.8-0.1,2.1c-6.9,2.1-21.6,10.2-21.6,21.8l1.5,9.4l0,0l14.3,95.4l51.8-119.6
		C264.2,41.1,265.6,14.9,239.4,3z"/>
	<path class="st5" d="M327.6,69c-6.5-10-18.4-15.7-30.5-15.8c-7.3-0.1-14.7,1.9-21.2,6.1c-5.5,3.6-9.7,9-12.7,14.8L211,192
		c34.5-22.6,71.8-48.7,106.3-71.4C327.5,113.9,343.3,93,327.6,69z"/>
</g>
</svg>
