<?xml version="1.0" encoding="UTF-8" standalone="no"?>
<!-- Created with Inkscape (http://www.inkscape.org/) -->

<svg
   width="1488.9871mm"
   height="542.23297mm"
   viewBox="0 0 1488.9871 542.23297"
   version="1.1"
   id="svg5"
   xml:space="preserve"
   inkscape:export-filename="WRGX 2023.png"
   inkscape:export-xdpi="96"
   inkscape:export-ydpi="96"
   inkscape:version="1.2.1 (9c6d41e410, 2022-07-14)"
   sodipodi:docname="WRGX 2023.svg"
   xmlns:inkscape="http://www.inkscape.org/namespaces/inkscape"
   xmlns:sodipodi="http://sodipodi.sourceforge.net/DTD/sodipodi-0.dtd"
   xmlns="http://www.w3.org/2000/svg"
   xmlns:svg="http://www.w3.org/2000/svg"><sodipodi:namedview
     id="namedview7"
     pagecolor="#ffffff"
     bordercolor="#000000"
     borderopacity="0.25"
     inkscape:showpageshadow="2"
     inkscape:pageopacity="0.0"
     inkscape:pagecheckerboard="0"
     inkscape:deskcolor="#d1d1d1"
     inkscape:document-units="mm"
     showgrid="false"
     inkscape:zoom="0.070000769"
     inkscape:cx="6007.0769"
     inkscape:cy="2685.6848"
     inkscape:window-width="1920"
     inkscape:window-height="1017"
     inkscape:window-x="-8"
     inkscape:window-y="-8"
     inkscape:window-maximized="1"
     inkscape:current-layer="text356-9" /><defs
     id="defs2" /><g
     inkscape:label="Layer 1"
     inkscape:groupmode="layer"
     id="layer1"><g
       aria-label="W"
       id="text356"
       style="font-weight:bold;font-size:46.1683px;font-family:'Termina Test';-inkscape-font-specification:'Termina Test, Bold';fill:#000000;stroke:#ffffff;stroke-width:0;stop-color:#000000"
       transform="matrix(8.5984413,0,0,8.5984413,-59.086286,-166.31456)"><path
         d="m 54.748272,19.366779 -7.06375,22.206953 -7.710107,-22.206953 h -8.67964 L 23.584669,41.573732 16.520919,19.366779 H 6.8717439 l 11.8190851,32.31781 h 9.279828 l 7.571602,-22.483962 7.525433,22.483962 h 9.372165 l 11.772916,-32.31781 z"
         id="path3794"
         style="fill:#000000" /></g><g
       aria-label="R"
       id="text356-9"
       style="font-weight:bold;font-size:46.1683px;font-family:'Termina Test';-inkscape-font-specification:'Termina Test, Bold';fill:#ff0000;stroke:#ffffff;stroke-width:0;stop-color:#000000"><path
         d="m 806.96549,280.92075 -80.51812,-95.36982 c 42.9951,-12.82284 71.91906,-42.47564 71.91906,-89.359123 0,-64.114167 -54.404,-99.0634624 -124.29491,-95.76862909 H 520.3401 L 482.15879,93.392158 V 280.92476 h 79.34483 v -88.55769 l 80.517,-0.004 72.30996,88.55769 z m -245.85275,-147.85928 -10e-4,-70.529604 h 107.09689 c 28.53312,0 49.24894,8.014274 49.24894,35.262799 0,27.248525 -20.71582,35.262785 -49.24894,35.262785 z"
         id="path435"
         sodipodi:nodetypes="ccssccccccccccsssc"
         style="fill:#000000;stroke-width:0" /><g
         aria-label="G"
         id="text588"
         style="font-size:45.8543px;fill:#000000;stop-color:#000000"
         transform="matrix(8.5984413,0,0,8.5984413,-59.086286,-166.31456)"><path
           d="m 142.00102,33.924076 h -19.30466 v 6.557165 h 10.6382 v 2.888821 c -2.24686,2.063443 -5.36495,2.842966 -9.30842,2.842966 -7.79524,0 -12.19725,-3.439072 -12.19725,-9.766966 0,-6.282039 4.26445,-9.721112 12.05968,-9.721112 4.31031,0 7.19913,1.100503 9.95039,3.576636 l 6.83229,-5.043973 c -3.34737,-3.118093 -9.07915,-5.915205 -17.01195,-5.915205 -13.16018,0 -21.32225,6.236185 -21.32225,17.103654 0,10.86747 8.16207,17.103655 21.32225,17.103655 8.57476,0 14.90265,-2.842967 18.34172,-7.107417 z"
           id="path3797"
           style="fill:#000000" /></g><g
         aria-label="X"
         id="text588-4"
         style="font-size:45.8543px;fill:#000000;stop-color:#000000"
         transform="matrix(8.5984413,0,0,8.5984413,-59.754452,-172.66395)"><path
           d="m 179.72011,20.654423 h -10.68405 l -8.66646,9.81282 -8.71232,-9.81282 h -11.2343 L 154.63781,36.474157 140.102,52.752434 h 10.6382 l 9.03329,-10.225509 9.0333,10.225509 h 11.23431 l -14.58167,-16.41584 z"
           id="path3800"
           style="fill:#000000" /></g><path
         id="rect1892"
         style="fill:#c62f41;stroke-width:0;stop-color:#000000"
         d="M 7.5172122e-6,321.92454 H 1488.9853 v 20.03599 H 7.5172122e-6 Z" /><g
         aria-label="WIREGRASS"
         id="text3742"
         style="font-size:21.796px;fill:#000000;stop-color:#000000"
         transform="matrix(8.5984413,0,0,8.5984413,-59.086286,-166.31456)"><path
           d="M 29.474196,66.340586 26.139408,76.824462 22.499476,66.340586 H 18.401828 L 14.761896,76.824462 11.427108,66.340586 H 6.871744 l 5.579776,15.2572 h 4.380996 l 3.574544,-10.614652 3.552748,10.614652 h 4.424588 l 5.557979,-15.2572 z"
           id="path3804"
           style="fill:#000000" /><path
           d="m 40.372201,81.597786 v -15.2572 h -4.446384 v 15.2572 z"
           id="path3806"
           style="fill:#000000" /><path
           d="m 62.081004,81.597786 -4.489976,-5.187448 c 2.39756,-0.697472 4.010464,-2.310376 4.010464,-4.860508 0,-3.48736 -3.029644,-5.209244 -6.931128,-5.209244 H 43.968528 v 15.2572 h 4.424588 V 76.78087 h 4.489976 l 4.03226,4.816916 z M 48.37132,73.555062 v -3.836096 h 5.972104 c 1.591108,0 2.746296,0.43592 2.746296,1.918048 0,1.482128 -1.155188,1.918048 -2.746296,1.918048 z"
           id="path3808"
           style="fill:#000000" /><path
           d="m 68.837775,78.19761 v -2.702704 h 9.612036 v -3.247604 h -9.612036 v -2.50654 h 11.66086 V 66.340586 H 64.456779 v 15.2572 H 80.738391 V 78.19761 Z"
           id="path3810"
           style="fill:#000000" /><path
           d="m 101.05226,72.770406 h -9.176112 v 3.116828 h 5.056671 v 1.373148 c -1.068003,0.98082 -2.550131,1.351352 -4.424587,1.351352 -3.70532,0 -5.797736,-1.6347 -5.797736,-4.642548 0,-2.986052 2.027028,-4.620752 5.732348,-4.620752 2.048824,0 3.421972,0.523104 4.729731,1.700088 l 3.247605,-2.39756 c -1.591109,-1.482128 -4.315609,-2.811684 -8.086316,-2.811684 -6.255452,0 -10.13514,2.964256 -10.13514,8.129908 0,5.165652 3.879688,8.129908 10.13514,8.129908 4.075851,0 7.083699,-1.351352 8.718396,-3.37838 z"
           id="path3812"
           style="fill:#000000" /><path
           d="m 121.99822,81.597786 -4.48998,-5.187448 c 2.39756,-0.697472 4.01047,-2.310376 4.01047,-4.860508 0,-3.48736 -3.02965,-5.209244 -6.93113,-5.209244 h -10.70184 v 15.2572 h 4.42459 V 76.78087 h 4.48998 l 4.03226,4.816916 z m -13.70969,-8.042724 v -3.836096 h 5.97211 c 1.59111,0 2.74629,0.43592 2.74629,1.918048 0,1.482128 -1.15518,1.918048 -2.74629,1.918048 z"
           id="path3814"
           style="fill:#000000" /><path
           d="m 138.17087,81.597786 h 4.72973 l -7.89015,-15.2572 h -4.86051 l -7.89015,15.2572 h 4.66434 l 1.43854,-2.920664 h 8.36966 z m -8.28248,-6.081084 2.65911,-5.405408 2.63732,5.405408 z"
           id="path3816"
           style="fill:#000000" /><path
           d="m 152.25108,71.920362 c -2.7245,-0.21796 -4.48997,-0.348736 -4.48997,-1.373148 0,-1.0898 2.1578,-1.373148 3.94507,-1.373148 2.37577,0.0218 4.42459,0.501308 6.12468,1.700088 l 2.24499,-2.768092 c -2.09242,-1.482128 -5.10027,-2.266784 -8.36967,-2.266784 -4.83871,0 -8.36966,1.787272 -8.36966,5.056672 0,3.400176 4.11944,4.402792 8.65301,4.79512 3.13863,0.261552 4.3592,0.588492 4.3592,1.569312 0,1.002616 -1.30776,1.482128 -3.92328,1.482128 -3.05144,0 -5.55798,-0.850044 -7.36705,-2.375764 l -2.33217,2.746296 c 2.39756,1.918048 5.68876,2.986052 9.61204,2.986052 5.53618,0 8.43505,-2.136008 8.43505,-5.274632 0,-3.509156 -3.53095,-4.489976 -8.52224,-4.9041 z"
           id="path3818"
           style="fill:#000000" /><path
           d="m 171.51872,71.920362 c -2.7245,-0.21796 -4.48997,-0.348736 -4.48997,-1.373148 0,-1.0898 2.1578,-1.373148 3.94507,-1.373148 2.37577,0.0218 4.42459,0.501308 6.12468,1.700088 l 2.24499,-2.768092 c -2.09242,-1.482128 -5.10027,-2.266784 -8.36967,-2.266784 -4.83871,0 -8.36966,1.787272 -8.36966,5.056672 0,3.400176 4.11944,4.402792 8.65301,4.79512 3.13863,0.261552 4.3592,0.588492 4.3592,1.569312 0,1.002616 -1.30776,1.482128 -3.92328,1.482128 -3.05144,0 -5.55798,-0.850044 -7.36705,-2.375764 l -2.33217,2.746296 c 2.39756,1.918048 5.68876,2.986052 9.61204,2.986052 5.53618,0 8.43505,-2.136008 8.43505,-5.274632 0,-3.509156 -3.53095,-4.489976 -8.52224,-4.9041 z"
           id="path3820"
           style="fill:#000000" /></g></g></g></svg>
