<?xml version="1.0" encoding="UTF-8"?>
<svg id="Layer_2" xmlns="http://www.w3.org/2000/svg" version="1.1" viewBox="0 0 1197.27 551.75">
  <!-- Generator: Adobe Illustrator 29.8.2, SVG Export Plug-In . SVG Version: 2.1.1 Build 3)  -->
  <defs>
    <style>
      .st0 {
        fill: #00adee;
      }

      .st1 {
        fill: #72cacf;
      }

      .st2 {
        fill: #1b75bb;
      }
    </style>
  </defs>
  <g id="Layer_1-2">
    <path class="st2" d="M543.99,275.57v-.09h0C543.74,136.13,434.82,0,270.21,0S.24,136.34,0,275.79h0v.09h0v.28h0v.09h0c.24,139.35,109.17,275.47,273.78,275.47s269.97-136.34,270.21-275.79h0v-.09h0v-.28h0ZM271.99,445.48c-32.7,0-63.17-11.84-88.08-31.93-18.35-14.36-34.79-33.9-46.18-59.62-10.9-23.37-17.09-49.91-17.09-78.06,0-93.67,67.86-169.61,151.35-169.61,35.61,0,68.45,13.9,94.38,37.13,14.93,13.02,28.27,29.73,38.2,50.73,11.96,24.25,18.78,52.11,18.78,81.75,0,93.67-68.87,169.61-151.35,169.61h-.01Z"/>
    <path class="st1" d="M257.35,320.89c-40.22-9.87-93.62-18.24-136.68-48.18.62-67.97,37.21-125.74,89.42-151.69-17.33,8.79-24.31,22.67-24.31,37.93,0,44,59.44,61.07,100.87,71.9,41.43,10.83,93.62,18.24,136.68,48.18-.62,67.97-37.21,125.47-89.42,151.42,17.33-8.79,24.31-22.4,24.31-37.66,0-44-55.7-60.81-100.87-71.9h0Z"/>
    <path class="st0" d="M423.32,279.03c-.57,34.32-10.38,66.16-26.68,92.6-12.17,19.84-28.01,36.63-46.42,49.14-22.94,15.68-49.77,24.72-78.23,24.72-32.7,0-63.17-11.84-88.08-31.93-16.74-13.1-31.88-30.5-43.06-52.97l-97.87,63.55c46.37,74.2,127.72,127.61,230.88,127.61,60.35,0,108.47-18.6,140.56-38.98,45.15-28.67,67.36-78.93,67.36-124.37,0-60.6-46.17-99.95-58.47-109.36h0Z"/>
    <path class="st0" d="M271.99,106.26c35.61,0,68.45,13.9,94.38,37.13,14.22,12.4,27,28.15,36.76,47.77l97.86-63.55C454.62,53.41,373.28,0,270.12,0c-60.35,0-108.47,18.61-140.56,38.99-45.15,28.67-67.36,78.93-67.36,124.37,0,60.6,46.17,99.95,58.47,109.35,1.51-92.22,68.78-166.45,151.33-166.45h-.01Z"/>
    <g>
      <path class="st2" d="M651.46,163.08c10.22,5.69,21.95,8.54,35.57,8.54s25.48-2.81,35.57-8.45c10.09-5.63,17.86-13.53,23.31-23.68,5.44-10.15,8.17-21.92,8.17-34.92s-2.72-24.55-8.17-34.64c-5.45-10.09-13.22-17.95-23.31-23.59-10.09-5.63-22.07-8.45-35.57-8.45s-25.35,2.82-35.57,8.45c-10.21,5.64-18.11,13.5-23.68,23.59-5.57,10.09-8.36,21.51-8.36,34.64s2.79,24.74,8.36,34.83,13.46,17.99,23.68,23.68ZM651.27,81.81c3.28-6.5,7.99-11.43,14.12-14.77,6.13-3.35,13.22-5.02,21.64-5.02s15.61,1.68,21.55,5.02c5.95,3.35,10.53,8.27,13.75,14.77,3.22,6.51,4.83,14.22,4.83,23.13s-1.61,16.59-4.83,23.03c-3.23,6.44-7.81,11.3-13.75,14.58-5.95,3.28-13.25,4.92-21.55,4.92s-15.51-1.67-21.64-5.01c-6.13-3.34-10.84-8.2-14.12-14.58-3.28-6.38-4.92-14.02-4.92-22.94s1.64-16.63,4.92-23.13Z"/>
      <path class="st2" d="M789.93,165.22h.02c7.43,4.16,16.4,6.23,26.93,6.23,13.87,0,24.98-3.49,33.34-10.49,8.35-7,13.46-16.44,15.32-28.33h-25.82c-1.49,5.57-4.15,9.88-7.99,12.91-3.84,3.03-8.73,4.55-14.67,4.55-5.08,0-9.38-1.08-12.91-3.25-3.53-2.16-6.2-5.29-7.99-9.38-1.79-4.09-2.69-9.11-2.69-15.05,0-8.67,2.01-15.35,6.04-20.06,4.02-4.71,9.87-7.06,17.55-7.06,5.94,0,10.83,1.49,14.67,4.46,3.84,2.98,6.44,7.25,7.8,12.82h25.82c-1.24-7.68-3.9-14.43-7.99-20.25-4.09-5.82-9.54-10.34-16.35-13.56-6.82-3.22-14.86-4.83-24.15-4.83-10.52,0-19.5,2.04-26.93,6.13-7.43,4.08-13.03,9.81-16.81,17.18-3.78,7.37-5.67,15.51-5.67,25.17s1.89,18.17,5.67,25.54c3.78,7.36,9.38,13.12,16.81,17.27Z"/>
      <path class="st2" d="M899.15,165.31h0c7.55,4.1,16.72,6.14,27.49,6.14,13.12,0,23.83-2.63,32.13-7.89,8.3-5.26,13.56-12.91,15.79-22.94h-25.63c-1.11,3.35-3.5,6.1-7.15,8.27-3.66,2.17-8.46,3.25-14.4,3.25-5.2,0-9.69-1.15-13.47-3.44-3.78-2.29-6.66-5.7-8.64-10.22-1.36-3.1-2.24-6.67-2.67-10.68h72.69c.12-.74.22-1.49.28-2.23.06-.74.09-1.49.09-2.23v-2.23c-.12-9.66-2.07-18.02-5.85-25.08-3.77-7.06-9.32-12.51-16.62-16.35-7.3-3.84-16.4-5.76-26.93-5.76s-19.57,2.02-27.12,6.04c-7.56,4.02-13.25,9.75-17.09,17.18s-5.76,16.46-5.76,26,1.92,17.93,5.76,25.17c3.84,7.25,9.54,12.91,17.09,17ZM911.88,95.95c3.53-2.79,8.2-4.18,14.02-4.18,5.45,0,9.87,1.11,13.28,3.34,3.4,2.23,5.81,5.57,7.24,10.03.71,2.24,1.18,4.78,1.41,7.61h-44.81c.35-2.14.82-4.15,1.43-6.03,1.42-4.39,3.9-7.98,7.43-10.77Z"/>
      <path class="st2" d="M1006.98,165.31h.02c6.37,4.08,13.96,6.12,22.75,6.12,7.43,0,13.93-1.61,19.5-4.83,4.85-2.79,8.85-6.7,12.01-11.71l3.03,14.88h23.96l-2.79-20.43v-73.74h-21.92l-2.49,14.43c-2.8-4.39-6.26-7.92-10.42-10.54-5.89-3.71-12.85-5.57-20.9-5.57-8.79,0-16.37,2.04-22.75,6.13-6.38,4.09-11.18,9.78-14.4,17.09-3.22,7.31-4.83,15.47-4.83,25.26s1.61,18.36,4.83,25.73c3.22,7.37,8.02,13.09,14.4,17.18ZM1019.79,102.43c4.03-4.76,9.69-7.15,17-7.15s13,2.38,17.09,7.15c4.09,4.77,6.13,11.18,6.13,19.97s-2.04,15.6-6.13,20.43h-.02c-4.09,4.84-9.78,7.25-17.09,7.25-4.82,0-8.97-1.08-12.44-3.25-3.46-2.16-6.1-5.29-7.89-9.38-1.79-4.09-2.69-9.11-2.69-15.05,0-8.55,2.01-15.2,6.04-19.97Z"/>
      <path class="st2" d="M1189,84.69c-5.51-7.18-14.27-10.77-26.28-10.77-7.68,0-14.24,1.67-19.69,5.01-3.9,2.4-7.09,5.66-9.59,9.76l-2.85-13.1h-24.15l2.79,20.06h0v74.12h25.63v-49.78c0-8.42,1.51-14.64,4.55-18.67,3.03-4.03,7.77-6.04,14.21-6.04,6.07,0,10.59,1.98,13.56,5.94,2.97,3.96,4.46,10.03,4.46,18.2v50.34h25.63v-53.31c0-13.99-2.76-24.58-8.27-31.76Z"/>
      <path class="st2" d="M631.96,330.82h-.01c9.22,7.99,22.94,11.98,41.14,11.98,16.96,0,30.02-3.65,39.19-10.96s13.75-17.28,13.75-29.91c0-8.3-1.88-14.86-5.66-19.69-3.78-4.83-8.85-8.58-15.23-11.24-6.38-2.66-15.13-5.35-26.28-8.08-.74-.25-1.54-.44-2.41-.56h-.37c-6.69-1.61-11.83-3.12-15.42-4.55-3.59-1.42-6.31-3.18-8.17-5.29-1.86-2.11-2.79-4.89-2.79-8.36,0-4.83,1.86-8.27,5.57-10.31,3.71-2.05,8.79-3.07,15.23-3.07,7.8,0,13.81,1.55,18.02,4.64,4.21,3.1,6.32,7.37,6.32,12.82h26.56c0-7.68-1.76-14.46-5.29-20.34-3.53-5.88-9.04-10.5-16.53-13.84-7.49-3.34-16.87-5.01-28.14-5.01-14.74,0-26.56,2.98-35.48,8.92-8.91,5.94-13.37,14.8-13.37,26.56,0,7.93,1.73,14.37,5.2,19.32,3.46,4.96,8.23,8.8,14.3,11.52,6.06,2.72,14.17,5.32,24.33,7.8,1.61.49,3.03.86,4.27,1.11,7.31,1.86,12.88,3.56,16.72,5.11s6.72,3.5,8.64,5.85c1.92,2.35,2.88,5.39,2.88,9.1,0,5.58-2.11,9.73-6.32,12.45-4.21,2.73-10.34,4.09-18.39,4.09-8.79,0-15.79-1.92-20.99-5.76-5.2-3.84-7.8-9.78-7.8-17.83h-27.31c0,14.37,4.61,25.54,13.84,33.53Z"/>
      <path class="st2" d="M809.99,318.65h-16.35c-3.84,0-6.87-.62-9.1-1.86-2.23-1.24-3.78-3.07-4.64-5.48-.87-2.41-1.3-5.66-1.3-9.75v-33.61h28.42v-21.18h-28.42v-28.98h-17.83l-6.72,28.98h-22.44v21.18h21.36v33.05c0,9.79,1.39,17.62,4.18,23.5,2.78,5.88,6.9,10.09,12.35,12.63,5.44,2.54,12.38,3.81,20.8,3.81h19.69v-22.29Z"/>
      <path class="st2" d="M893.77,246.77l-2.49,14.43c-2.8-4.39-6.26-7.92-10.42-10.54-5.89-3.71-12.85-5.57-20.9-5.57-8.79,0-16.37,2.04-22.75,6.13-6.38,4.09-11.18,9.78-14.4,17.09-3.22,7.31-4.83,15.47-4.83,25.26s1.61,18.36,4.83,25.73c3.22,7.37,8.02,13.09,14.4,17.18h.02c6.37,4.08,13.96,6.12,22.75,6.12,7.43,0,13.93-1.61,19.5-4.83,4.85-2.79,8.85-6.7,12.01-11.71l3.03,14.88h23.96l-2.79-20.43v-73.74h-21.92ZM884.11,314.01h-.02c-4.09,4.84-9.78,7.25-17.09,7.25-4.82,0-8.97-1.08-12.44-3.25-3.46-2.16-6.1-5.29-7.89-9.38-1.79-4.09-2.69-9.11-2.69-15.05,0-8.55,2.01-15.2,6.04-19.97,4.03-4.76,9.69-7.15,17-7.15s13,2.38,17.09,7.15c4.09,4.77,6.13,11.18,6.13,19.97s-2.04,15.6-6.13,20.43Z"/>
      <path class="st2" d="M958.03,217.79l-6.72,28.98h-22.44v21.18h21.36v33.05c0,9.79,1.39,17.62,4.18,23.5,2.78,5.88,6.9,10.09,12.35,12.63,5.44,2.54,12.38,3.81,20.8,3.81h19.69v-22.29h-16.35c-3.84,0-6.87-.62-9.1-1.86-2.23-1.24-3.78-3.07-4.64-5.48-.87-2.41-1.3-5.66-1.3-9.75v-33.61h28.42v-21.18h-28.42v-28.98h-17.83Z"/>
      <path class="st2" d="M1113.51,311.79h-25.63c-1.11,3.35-3.5,6.1-7.15,8.27-3.66,2.17-8.46,3.25-14.4,3.25-5.2,0-9.69-1.15-13.47-3.44-3.78-2.29-6.66-5.7-8.64-10.22-1.36-3.1-2.24-6.67-2.67-10.68h72.69c.12-.74.22-1.49.28-2.23.06-.74.09-1.49.09-2.23v-2.23c-.12-9.66-2.07-18.02-5.85-25.08-3.77-7.06-9.32-12.51-16.62-16.35-7.3-3.84-16.4-5.76-26.93-5.76s-19.57,2.02-27.12,6.04c-7.56,4.02-13.25,9.75-17.09,17.18s-5.76,16.46-5.76,26,1.92,17.93,5.76,25.17c3.84,7.25,9.54,12.91,17.09,17h0c7.55,4.1,16.72,6.14,27.49,6.14,13.12,0,23.83-2.63,32.13-7.89s13.56-12.91,15.79-22.94ZM1050.82,267.12c3.53-2.79,8.2-4.18,14.02-4.18,5.45,0,9.87,1.11,13.28,3.34,3.4,2.23,5.81,5.57,7.24,10.03.71,2.24,1.18,4.78,1.41,7.61h-44.81c.35-2.14.82-4.15,1.43-6.03,1.42-4.39,3.9-7.98,7.43-10.77Z"/>
      <polygon class="st2" points="740.72 382.1 703.37 477.61 665.86 382.1 633.36 382.1 622.4 512.12 648.78 512.12 655.46 416.87 692.99 512.11 713.42 512.11 751.12 416.86 757.81 512.12 784.19 512.12 773.23 382.1 740.72 382.1"/>
      <path class="st2" d="M875.56,422.03c-7.3-3.84-16.4-5.76-26.93-5.76s-19.57,2.02-27.12,6.04c-7.56,4.02-13.25,9.75-17.09,17.18s-5.76,16.46-5.76,26,1.92,17.93,5.76,25.17c3.84,7.25,9.54,12.91,17.09,17h0c7.55,4.1,16.72,6.14,27.49,6.14,13.12,0,23.83-2.63,32.13-7.89s13.56-12.91,15.79-22.94h-25.63c-1.11,3.35-3.5,6.1-7.15,8.27-3.66,2.17-8.46,3.25-14.4,3.25-5.2,0-9.69-1.15-13.47-3.44-3.78-2.29-6.66-5.7-8.64-10.22-1.36-3.1-2.24-6.67-2.67-10.68h72.69c.12-.74.22-1.49.28-2.23.06-.74.09-1.49.09-2.23v-2.23c-.12-9.66-2.07-18.02-5.85-25.08-3.77-7.06-9.32-12.51-16.62-16.35ZM834.24,438.3c3.53-2.79,8.2-4.18,14.02-4.18,5.45,0,9.87,1.11,13.28,3.34,3.4,2.23,5.81,5.57,7.24,10.03.71,2.24,1.18,4.78,1.41,7.61h-44.81c.35-2.14.82-4.15,1.43-6.03,1.42-4.39,3.9-7.98,7.43-10.77Z"/>
      <path class="st2" d="M1007.82,379.31h-25.45v51.83c-2.62-3.82-5.81-6.93-9.57-9.3-5.89-3.71-12.85-5.57-20.9-5.57-8.79,0-16.34,2.04-22.66,6.13-6.31,4.09-11.08,9.78-14.3,17.09-3.22,7.31-4.83,15.47-4.83,25.26s1.61,18.36,4.83,25.73,7.98,13.09,14.3,17.18h0c6.31,4.08,13.87,6.12,22.66,6.12,7.43,0,13.9-1.61,19.41-4.83,4.92-2.87,8.98-6.92,12.17-12.13l3.17,15.3h23.96l-2.79-20.06v-112.75ZM976.24,485.19h0c-4.09,4.84-9.78,7.25-17.09,7.25-4.82,0-8.97-1.08-12.44-3.25-3.47-2.16-6.13-5.29-7.99-9.38-1.86-4.09-2.79-9.11-2.79-15.05,0-8.55,2.04-15.2,6.13-19.97,4.09-4.76,9.91-7.15,17.09-7.15s12.85,2.38,17,7.15c4.14,4.77,6.22,11.18,6.22,19.97s-2.04,15.6-6.13,20.43Z"/>
      <polygon class="st2" points="1031.22 490.56 1031.22 490.57 1031.22 512.11 1056.85 512.11 1056.85 417.94 1031.22 417.94 1031.22 490.56"/>
      <path class="st2" d="M1044.22,376.34c-5.08,0-8.92,1.18-11.52,3.53-2.6,2.35-3.9,5.63-3.9,9.84,0,4.46,1.3,7.9,3.9,10.31h0c2.6,2.41,6.45,3.62,11.52,3.62s8.88-1.21,11.42-3.62c2.54-2.42,3.81-5.85,3.81-10.31,0-4.2-1.3-7.49-3.9-9.84-2.6-2.35-6.25-3.53-11.33-3.53Z"/>
      <path class="st2" d="M1172.39,417.95h-21.92l-2.5,14.44c-2.8-4.4-6.26-7.93-10.42-10.55-5.89-3.71-12.85-5.57-20.9-5.57-8.79,0-16.37,2.04-22.75,6.13-6.38,4.09-11.18,9.78-14.4,17.09s-4.83,15.47-4.83,25.26,1.61,18.36,4.83,25.73,8.02,13.09,14.4,17.18h.02c6.37,4.08,13.96,6.12,22.75,6.12,7.43,0,13.93-1.61,19.5-4.83,4.85-2.8,8.86-6.71,12.02-11.72l3.03,14.89h23.96l-2.79-20.43v-73.74ZM1140.81,485.19h-.02c-4.09,4.84-9.78,7.25-17.09,7.25-4.82,0-8.97-1.08-12.44-3.25-3.46-2.16-6.1-5.29-7.89-9.38-1.79-4.09-2.69-9.11-2.69-15.05,0-8.55,2.01-15.2,6.04-19.97,4.03-4.76,9.69-7.15,17-7.15s13,2.38,17.09,7.15c4.09,4.77,6.13,11.18,6.13,19.97h0c0,8.8-2.04,15.6-6.13,20.43Z"/>
    </g>
  </g>
</svg>