<?xml version="1.0" encoding="utf-8"?>
<!-- Generator: Adobe Illustrator 25.0.0, SVG Export Plug-In . SVG Version: 6.00 Build 0)  -->
<svg version="1.1" id="Layer_1" xmlns="http://www.w3.org/2000/svg" xmlns:xlink="http://www.w3.org/1999/xlink" x="0px" y="0px"
	 viewBox="0 0 165 60" style="enable-background:new 0 0 165 60;" xml:space="preserve">
<style type="text/css">
	.st0{fill:none;}
	.st1{fill:#601404;}
</style>
<rect class="st0" width="165" height="60"/>
<g>
	<g>
		<polygon class="st1" points="6.803,28.754 3.565,28.754 3.565,27.266 7.553,27.266 7.339,24.085 7.318,24.085 7.315,24.052 
			0.182,24.052 0.182,35.651 0.208,35.651 0.208,35.681 3.565,35.681 3.565,31.92 6.827,31.92 6.827,28.786 6.803,28.786 		"/>
	</g>
	<g>
		<polygon class="st1" points="27.821,35.616 24.267,29.656 27.527,24.132 27.491,24.132 27.511,24.098 23.903,24.098 22.45,26.56 
			20.974,24.098 17.294,24.098 20.592,29.66 17.08,35.616 17.117,35.616 17.1,35.646 20.707,35.646 22.409,32.767 24.135,35.646 
			27.837,35.646 27.819,35.616 		"/>
	</g>
	<g>
		<path class="st1" d="M45.808,30.491c-0.4-0.505-0.959-0.827-1.674-0.97c0.578-0.15,1.029-0.419,1.347-0.816
			c0.329-0.41,0.494-0.918,0.494-1.524c0-0.369-0.05-0.707-0.15-1.015c-0.16-0.517-0.458-0.95-0.894-1.297
			c-0.69-0.549-1.651-0.823-2.884-0.823c-1.227,0-2.185,0.273-2.871,0.819c-0.688,0.546-1.031,1.307-1.031,2.284
			c0,0.314,0.046,0.601,0.135,0.862c0.082,0.256,0.206,0.488,0.372,0.694c0.317,0.395,0.765,0.663,1.338,0.813
			c-0.721,0.142-1.284,0.465-1.687,0.973c-0.413,0.52-0.619,1.181-0.619,1.986c0,0.547,0.098,1.033,0.292,1.46
			c0.192,0.433,0.482,0.806,0.872,1.116c0.767,0.611,1.837,0.917,3.211,0.917c1.379,0,2.453-0.306,3.224-0.917
			c0.77-0.61,1.155-1.459,1.155-2.546c0-0.409-0.054-0.78-0.16-1.115C46.173,31.055,46.017,30.755,45.808,30.491z M40.586,32.763
			c-0.067-0.182-0.102-0.387-0.102-0.615c0-0.465,0.141-0.832,0.423-1.101c0.282-0.269,0.666-0.403,1.152-0.403
			c0.491,0,0.879,0.134,1.163,0.403c0.14,0.132,0.244,0.288,0.315,0.468c0.066,0.178,0.101,0.378,0.101,0.602
			c0,0.475-0.142,0.849-0.427,1.12c-0.285,0.272-0.673,0.408-1.164,0.408c-0.48,0-0.863-0.137-1.148-0.412
			C40.761,33.1,40.657,32.942,40.586,32.763z M43.327,26.738c0.055,0.154,0.084,0.327,0.084,0.521c0,0.407-0.123,0.728-0.368,0.963
			c-0.246,0.236-0.577,0.353-0.995,0.353c-0.413,0-0.74-0.119-0.983-0.356c-0.118-0.116-0.206-0.252-0.267-0.406
			c-0.056-0.155-0.086-0.329-0.086-0.522c0-0.403,0.12-0.72,0.36-0.952c0.241-0.232,0.57-0.348,0.987-0.348
			c0.428,0,0.762,0.114,1.003,0.344C43.179,26.448,43.267,26.582,43.327,26.738z"/>
	</g>
	<g>
		<path class="st1" d="M18.802,29.9c0-0.981-0.255-1.903-0.7-2.704c-0.956-1.749-2.822-2.934-4.975-2.934
			c-3.144,0-5.68,2.508-5.68,5.607c0,1.362,0.486,2.606,1.296,3.575c1.04,1.261,2.625,2.063,4.406,2.063
			C16.278,35.506,18.802,32.999,18.802,29.9z M14.103,27.57v4.597c0,0.569-0.417,0.941-0.977,0.941
			c-0.313,0-0.597-0.161-0.773-0.402c-0.099-0.148-0.159-0.322-0.159-0.508v-4.596c0-0.546,0.441-1.011,0.953-1.011
			c0.342,0,0.629,0.174,0.802,0.434C14.047,27.184,14.103,27.372,14.103,27.57z"/>
	</g>
	<g>
		<path class="st1" d="M37.149,29.276c0.24-0.509,0.36-1.033,0.36-1.571c0-0.554-0.097-1.052-0.289-1.495
			c-0.191-0.452-0.479-0.848-0.868-1.186c-0.763-0.663-1.787-0.995-3.072-0.995c-1.316,0-2.355,0.374-3.115,1.121
			c-0.76,0.747-1.14,1.771-1.14,3.072v0.078h0.016v0.032h2.757v-0.141c0-0.595,0.132-1.05,0.396-1.363
			c0.264-0.313,0.641-0.47,1.132-0.47c0.412,0,0.745,0.127,0.999,0.38c0.121,0.121,0.211,0.26,0.274,0.415
			c0.061,0.161,0.092,0.339,0.092,0.536c0,0.261-0.074,0.542-0.223,0.842c-0.149,0.3-0.38,0.636-0.693,1.007l-5.148,6.096h0.041
			l-0.025,0.029H37.4v-2.436h-0.013v-0.03h-3.469l2.04-2.249C36.512,30.343,36.909,29.786,37.149,29.276z"/>
	</g>
	<g>
		<path class="st1" d="M52.737,27.461c0-1.019,1.004-1.49,2.524-1.49c1.9,0,2.661,0.912,2.737,1.749h2.463
			c-0.289-3.147-3.634-3.451-5.306-3.451c-2.646,0-4.789,0.943-4.789,3.36c0,4.455,7.997,2.113,7.997,4.804
			c0,1.186-1.292,1.596-2.676,1.596c-1.87,0-3.056-0.684-3.117-2.113h-2.463c0.03,2.281,1.596,3.816,5.504,3.816
			c2.311,0,5.215-0.73,5.215-3.527C60.826,27.567,52.737,30.015,52.737,27.461z"/>
	</g>
	<g>
		<path class="st1" d="M68.306,24.572l-4.835,10.856h2.463l1.125-2.691h5.109l1.14,2.691h2.539l-4.835-10.856H68.306z
			 M67.743,31.034l1.885-4.576l1.855,4.576H67.743z"/>
	</g>
	<g>
		<polygon class="st1" points="83.509,33.269 79.967,24.572 77.413,24.572 82.247,35.428 84.665,35.428 89.439,24.572 
			86.976,24.572 		"/>
	</g>
	<g>
		<path class="st1" d="M95.839,24.572l-4.835,10.856h2.463l1.125-2.691h5.109l1.14,2.691h2.539l-4.835-10.856H95.839z
			 M95.277,31.034l1.885-4.576l1.855,4.576H95.277z"/>
	</g>
	<g>
		<polygon class="st1" points="115.969,32.722 115.939,32.722 109.477,24.572 106.862,24.572 106.862,35.428 109.051,35.428 
			109.051,27.278 109.082,27.278 115.589,35.428 118.158,35.428 118.158,24.572 115.969,24.572 		"/>
	</g>
	<g>
		<polygon class="st1" points="131.993,32.722 131.963,32.722 125.501,24.572 122.886,24.572 122.886,35.428 125.076,35.428 
			125.076,27.278 125.106,27.278 131.613,35.428 134.183,35.428 134.183,24.572 131.993,24.572 		"/>
	</g>
	<g>
		<path class="st1" d="M142.499,24.572l-4.835,10.856h2.463l1.125-2.691h5.109l1.14,2.691h2.539l-4.835-10.856H142.499z
			 M141.936,31.034l1.885-4.576l1.855,4.576H141.936z"/>
	</g>
	<g>
		<polygon class="st1" points="162.537,24.572 162.537,28.799 155.802,28.799 155.802,24.572 153.521,24.572 153.521,35.428 
			155.802,35.428 155.802,30.502 162.537,30.502 162.537,35.428 164.818,35.428 164.818,24.572 		"/>
	</g>
</g>
</svg>
