<?xml version="1.0" encoding="UTF-8" standalone="no"?>
<svg version="1.1" viewBox="0 0 294.6731 104.74609" id="svg10072" sodipodi:docname="WTLV_(2021).svg" inkscape:version="1.1.1 (3bf5ae0, 2021-09-20)" xmlns:inkscape="http://www.inkscape.org/namespaces/inkscape" xmlns:sodipodi="http://sodipodi.sourceforge.net/DTD/sodipodi-0.dtd" xmlns="http://www.w3.org/2000/svg" xmlns:svg="http://www.w3.org/2000/svg">
  <defs id="defs10076" />
  <sodipodi:namedview id="namedview10074" pagecolor="#505050" bordercolor="#eeeeee" borderopacity="1" inkscape:pageshadow="0" inkscape:pageopacity="0" inkscape:pagecheckerboard="0" showgrid="false" inkscape:zoom="4.0078311" inkscape:cx="147.33655" inkscape:cy="52.397418" inkscape:window-width="1366" inkscape:window-height="703" inkscape:window-x="0" inkscape:window-y="0" inkscape:window-maximized="1" inkscape:current-layer="svg10072" />
  <g fill="#12789b" id="g10070" style="stroke:none">
    <path d="m193.97381 26.01318-20.52151 18.0647-12.284-14.16273 33.38358-28.18093h20.23246v102.31848h-20.81053z" id="path10040" style="stroke:none" />
    <path d="m223.28152 81.0744 39.74224-35.69586q3.03486-2.74583 6.06972-6.21426 3.03488-3.46842 3.03488-8.09299 0-5.20263-3.75746-8.09298-3.75746-3.03487-8.81555-3.03487-6.06971 0-9.5381 3.75746-3.32389 3.75745-3.75744 9.24912l-21.67763-1.58969q0.43355-7.94847 3.3239-13.72917 2.89036-5.92523 7.65944-9.8272 4.76908-3.90198 11.12784-5.78071 6.50325-2.02325 14.01813-2.02325 6.93682 0 13.00656 2.02325 6.06975 1.87873 10.54979 5.78071 4.48005 3.75745 6.93684 9.53816 2.60132 5.78071 2.60132 13.44014 0 4.9136-1.01162 8.96009-1.01162 3.90198-2.89036 7.22589-1.73421 3.17938-4.19101 5.92522-2.4568 2.74583-5.34715 5.34715l-31.0712 26.73576h45.37845v19.07633h-71.39159z" id="path10042" style="stroke:none" />
    <path d="m54.05255 79.01245h5.77313l3.83743 15.68223h0.0679l5.02601-15.68223h4.92414l4.99206 16.09674h0.0679l4.04118-16.09674h5.36561l-7.02963 24.45598h-4.72037l-5.2977-16.92575h-0.0679l-5.2977 16.92575h-4.55058z" id="path10044" style="stroke:none" />
    <path d="m95.17758 83.7793h-6.85983v-4.76685h19.01736v4.76685h-6.85984v19.68913h-5.29769z" id="path10046" style="stroke:none" />
    <path d="m110.2291 79.01245h5.29769v19.48189h9.81432v4.97409h-15.11201z" id="path10048" style="stroke:none" />
    <path d="m122.77078 79.01245h6.0448l5.94293 16.02765h0.0679l6.0448-16.02765h5.67125l-9.9162 24.45598h-4.24494z" id="path10050" style="stroke:none" />
    <path d="m0 71.69692h13.27662v-42.89369h0.17022l26.29791 42.89369h17.36174v-60.25542h-13.27662v41.87241h-0.17022l-25.61706-41.87241h-18.04259z" style="white-space:pre;stroke:none" id="path10052" />
    <path d="m67.08363 71.69692h24.6809c10.72342 0 22.63833-4.17022 22.63833-16.76598 0-7.82981-5.2766-13.70216-13.19151-14.72343v-0.17022c6.21278-1.95745 10.383-6.5532 10.383-13.27662 0-13.1064-11.48938-15.31917-22.04259-15.31917h-22.46813zm13.27662-49.02136h9.02129c4.17022 0 8.936189 1.2766 8.936189 6.29788 0 4.85108-4.255329 6.55321-8.340439 6.55321h-9.61704zm0 24.08515h10.04257c4.34044 0 10.72342 0.93617 10.72342 6.63831 0 5.2766-4.68085 7.06384-8.85107 7.06384h-11.91492z" style="white-space:pre;stroke:none" id="path10054" />
    <path d="m169.57162 18.76066c-5.10639-6.5532-13.61705-8.85108-20.34046-8.85108-18.80855 0-32.5107 12.34045-32.5107 31.65963s13.70215 31.65963 32.5107 31.65963c8.25533 0 16.76599-3.31915 21.78727-10.4681l-11.06385-8.25534c-2.72341 4.08512-7.06384 6.4681-12.42555 6.4681-9.61704 0-17.02131-8.17023-17.02131-19.40429s7.40427-19.40429 17.44684-19.40429c4.93618 0 8.76597 1.78724 11.40428 4.93618z" style="white-space:pre;stroke:none" id="path10056" />
    <path d="m149.77029 85.41285c-1.94404 1.7598-2.65158 5.7472 0.85284 8.07815l13.98034 9.59153-6.7787-15.52982c-1.42039-3.66473-5.30624-4.46387-8.05448-2.13986" id="path10058" style="stroke:none" />
    <path d="m161.80462 77.86228c-2.27246 0.0462-5.68484 2.75245-4.16623 6.8848l7.01088 16.53448 2.46356-17.39117c0.57013-4.32132-2.70012-6.31604-5.30821-6.02811" id="path10060" style="stroke:none" />
    <path d="m168.20704 83.22719h1.32561s0.70797 0 0.80429 0.33391c-0.52167 0.42604-1.94163 0.47939-1.75319 2.75511l2.22863 14.96304 6.96302-16.57797c1.42426-3.70152-1.56526-6.79285-4.21718-6.88737-0.12377-9e-3 -0.24814-0.0161-0.37671-0.0161-2.38028 0-5.10785 1.72987-4.97447 5.42941" id="path10062" style="stroke:none" />
    <path d="m177.4951 87.69346-6.58597 15.34353 13.97631-9.64214c3.22171-2.28515 2.7021-5.93855 0.89873-7.74432-0.75609-0.84992-2.14423-1.50651-3.61481-1.50651-1.73723-3.5e-4 -3.59644 0.92119-4.67426 3.54944" id="path10064" style="stroke:none" />
    <path d="m183.32061 95.57811-13.12545 9.16798h16.16111c3.31563 0 5.44639-3.41881 4.49912-6.55595-0.63437-1.97182-2.51134-3.51976-4.68988-3.52199-0.91691 3.4e-4 -1.8894 0.27662-2.8449 0.90996" id="path10066" style="stroke:none" />
    <path d="m149.39358 104.74609h15.92266l-13.12862-9.16798c-3.03301-1.94875-6.4435-0.80849-7.67468 2.42531-1.04359 3.70195 1.56209 6.74267 4.88064 6.74267" id="path10068" style="stroke:none" />
  </g>
</svg>
