<?xml version="1.0" encoding="UTF-8" standalone="no"?>
<svg
   id="CW_Logo"
   viewBox="0 0 1000 618.4272"
   version="1.1"
   xml:space="preserve"
   sodipodi:docname="WTTA CW Tampa Bay (2024).svg"
   width="1000"
   height="618.42719"
   inkscape:version="1.3.2 (091e20e, 2023-11-25, custom)"
   xmlns:inkscape="http://www.inkscape.org/namespaces/inkscape"
   xmlns:sodipodi="http://sodipodi.sourceforge.net/DTD/sodipodi-0.dtd"
   xmlns="http://www.w3.org/2000/svg"
   xmlns:svg="http://www.w3.org/2000/svg"><sodipodi:namedview
     id="namedview1"
     pagecolor="#ffffff"
     bordercolor="#000000"
     borderopacity="0.25"
     inkscape:showpageshadow="2"
     inkscape:pageopacity="0.0"
     inkscape:pagecheckerboard="0"
     inkscape:deskcolor="#d1d1d1"
     inkscape:zoom="1.1575153"
     inkscape:cx="500.20935"
     inkscape:cy="295.02849"
     inkscape:window-width="1920"
     inkscape:window-height="1009"
     inkscape:window-x="-8"
     inkscape:window-y="-8"
     inkscape:window-maximized="1"
     inkscape:current-layer="CW_Logo" /><defs
     id="defs1"><style
       id="style1">.cls-1{fill:#000C0D;}</style></defs><path
     class="cls-1"
     d="m 860.82,0 v 248.37 c 0,22.67 -10.4,49.14 -39.7,49.14 -29.3,0 -40.43,-26.47 -40.43,-49.14 V 0 H 641.51 v 248.37 c 0,22.67 -10.58,49.14 -40.41,49.14 -29.83,0 -39.73,-26.47 -39.73,-49.14 V 0 H 422.2 v 220.5 c -0.66,42.45 -31.23,77.89 -68.2,79.12 H 209.37 c -38.73,-0.01 -70.23,-35.84 -70.23,-79.89 0,-44.05 31.51,-80.56 70.23,-80.56 h 136 V 0 h -136 C 93.93,0 0,98.57 0,219.72 0,340.87 93.93,438.71 209.37,438.71 H 349 c 46.75,0 93.83,-18.97 129.74,-49.94 34.15,34 71.45,49.94 116.31,49.94 44.86,0 82.02,-15.85 116.05,-49.65 34.02,33.8 71.26,49.65 116.04,49.65 96.93,0 172.86,-79.76 172.86,-181.59 V 0 Z"
     id="path1"
     style="fill:#ff4500;fill-opacity:1" /><g
     id="g1"><path
       d="m 933.05484,618.42721 v -48.08577 l -41.97149,-72.29336 h 27.11025 l 27.76335,49.56788 26.94656,-49.56788 h 26.70187 l -42.46148,72.78736 v 47.59177 z"
       id="path2"
       style="mix-blend-mode:normal;fill:#000000;fill-rule:nonzero;stroke:none;stroke-width:0.514237;stroke-linecap:butt;stroke-linejoin:miter;stroke-miterlimit:10;stroke-dasharray:none;stroke-dashoffset:0" /><path
       d="m 841.02933,566.30707 h 27.11033 L 854.91113,525.5492 h -0.32706 z m 44.17647,52.12014 -9.71712,-29.64191 h -41.80837 l -9.88051,29.64191 H 799.54762 L 842.7441,497.88338 h 24.74215 l 42.62493,120.54383 z"
       id="path3"
       style="mix-blend-mode:normal;fill:#000000;fill-rule:nonzero;stroke:none;stroke-width:0.514237;stroke-linecap:butt;stroke-linejoin:miter;stroke-miterlimit:10;stroke-dasharray:none;stroke-dashoffset:0" /><path
       d="m 728.83273,598.99517 h 21.88385 c 14.04492,0 21.06768,-5.54403 21.06768,-16.63251 0,-11.08805 -7.24027,-16.65904 -21.72086,-16.71429 h -21.23067 z m 0,-53.27333 h 22.53722 c 11.70417,0 17.55634,-5.04973 17.55634,-15.14958 0,-8.89275 -6.34198,-13.33906 -19.02617,-13.33906 h -21.06739 z m -23.92547,72.70537 V 497.88338 h 48.17737 c 12.35736,0 21.93866,2.66331 28.74338,7.98731 6.80467,5.32483 10.3158,12.81734 10.53357,22.4783 0,10.924 -4.02808,18.74552 -12.08503,23.46686 v 0.13224 c 10.3432,5.26957 15.54189,15.3424 15.59638,30.21783 0,11.58297 -4.0286,20.53047 -12.08529,26.8426 -8.00241,6.25768 -17.9643,9.38642 -29.88629,9.38642 z"
       id="path4"
       style="mix-blend-mode:normal;fill:#000000;fill-rule:nonzero;stroke:none;stroke-width:0.514237;stroke-linecap:butt;stroke-linejoin:miter;stroke-miterlimit:10;stroke-dasharray:none;stroke-dashoffset:0" /><path
       d="m 595.60773,566.30707 h 27.11001 L 609.48942,525.5492 h -0.32636 z m 44.17621,52.12014 -9.71712,-29.64191 h -41.80839 l -9.88042,29.64191 h -24.25196 l 43.19644,-120.54383 h 24.7421 l 42.62478,120.54383 z"
       id="path5"
       style="mix-blend-mode:normal;fill:#000000;fill-rule:nonzero;stroke:none;stroke-width:0.514237;stroke-linecap:butt;stroke-linejoin:miter;stroke-miterlimit:10;stroke-dasharray:none;stroke-dashoffset:0" /><path
       d="m 498.95741,551.15695 h 20.74055 c 14.04501,0 21.06776,-5.62681 21.06776,-16.87949 0,-10.59433 -7.13153,-15.8639 -21.39436,-15.80865 H 498.95741 Z M 475.0317,618.42721 V 498.04808 h 47.44261 c 14.37155,0 24.93278,3.34872 31.68296,10.04599 6.75018,6.64188 10.12535,15.26011 10.12535,25.85416 0,10.59433 -3.51111,19.43173 -10.53358,26.51314 -7.02246,7.08084 -18.1007,10.62103 -33.23441,10.62103 h -21.5573 v 47.34481 z"
       id="path6"
       style="mix-blend-mode:normal;fill:#000000;fill-rule:nonzero;stroke:none;stroke-width:0.514237;stroke-linecap:butt;stroke-linejoin:miter;stroke-miterlimit:10;stroke-dasharray:none;stroke-dashoffset:0" /><path
       d="M 336.46085,618.42721 V 497.88338 h 22.37392 l 37.6438,53.43778 35.43893,-53.43778 h 22.6189 V 618.42721 H 431.9175 V 536.1713 l -27.27325,42.48616 h -18.37301 l -27.43647,-41.82753 v 81.59728 z"
       id="path7"
       style="mix-blend-mode:normal;fill:#000000;fill-rule:nonzero;stroke:none;stroke-width:0.514237;stroke-linecap:butt;stroke-linejoin:miter;stroke-miterlimit:10;stroke-dasharray:none;stroke-dashoffset:0" /><path
       d="m 256.44077,566.30707 h 27.11022 L 270.32248,525.5492 h -0.32636 z m 44.17643,52.12014 -9.71719,-29.64191 h -41.8083 l -9.88044,29.64191 h -24.25225 l 43.19644,-120.54383 h 24.7421 l 42.62506,120.54383 z"
       id="path8"
       style="mix-blend-mode:normal;fill:#000000;fill-rule:nonzero;stroke:none;stroke-width:0.514237;stroke-linecap:butt;stroke-linejoin:miter;stroke-miterlimit:10;stroke-dasharray:none;stroke-dashoffset:0" /><path
       d="m 171.8287,618.42721 v -99.9584 h -34.29601 v -20.58543 h 92.59903 v 20.58543 h -34.29598 v 99.9584 z"
       id="path9"
       style="mix-blend-mode:normal;fill:#000000;fill-rule:nonzero;stroke:none;stroke-width:0.514237;stroke-linecap:butt;stroke-linejoin:miter;stroke-miterlimit:10;stroke-dasharray:none;stroke-dashoffset:0" /></g></svg>
