<svg xmlns="http://www.w3.org/2000/svg" viewBox="0 0 107 60"><defs><style>.a{fill:none;}.b{fill:#601404;}</style></defs><title>wtte_logo_w</title><rect class="a" width="107" height="60"/><path class="b" d="M77,19.63A1.73,1.73,0,0,1,78.82,18c1.14,0,2,.51,2,1.63v2.56a10.36,10.36,0,0,1-1.75,5.5C78,29.39,76.7,31,75.51,33,73.5,36.22,72,39.26,72,43.47c0,.55,0,1.05,0,1.64v.06H86.25V41.39H78.34c.13-2.81,1.77-5.55,3.92-8.89A50.07,50.07,0,0,0,85,28.15,10.78,10.78,0,0,0,86.4,23V19.38c0-3.45-2.87-5.18-7.4-5.18s-7.62,2-7.62,5.85v5.4H77Z" transform="translate(0)"/><path class="b" d="M95.75,45.71c5.17,0,7.9-2,7.9-5.79V34c0-2.81-1.48-4.2-5-4.66,3.3-.67,5-2.31,5-4.87V20c0-3.82-2.73-5.79-7.9-5.79s-7.9,2-7.9,5.79V24.6c0,2.85.79,4,4.54,4.74-3.52.84-4.54,2.14-4.54,4.75v5.83C87.85,43.74,90.57,45.71,95.75,45.71ZM94,19.6c0-1.17.35-1.8,1.77-1.8s1.82.63,1.82,1.8v5.8c0,1.17-.4,1.84-1.82,1.84S94,26.57,94,25.4Zm0,13.65c0-1.18.35-1.85,1.77-1.85s1.82.67,1.82,1.85v6.84c0,1.17-.4,1.84-1.82,1.84S94,41.26,94,40.09Z" transform="translate(0)"/><path class="b" d="M33.24,22.58h-.05a1.93,1.93,0,0,0-1.94,2v10a2,2,0,0,0,1.94,2h.05a2,2,0,0,0,2-2v-10A1.94,1.94,0,0,0,33.24,22.58Z" transform="translate(0)"/><path class="b" d="M0,13V47H106.25V13ZM19.87,27.31v6.83l-7.2,0v8.12H5.48l0-25H20.89L21.25,24H12.77v3.34Zm13.4,14.31A11.83,11.83,0,1,1,45,29.86,11.76,11.76,0,0,1,33.27,41.62Zm23.24.69-3.68-6.17-3.44,6.17H41.67l7.23-13-7-12h7.85l3,5,2.78-5,8.07-.15L56.73,29.28l7.79,13Zm49.36,4.17H69.55v-33h36.32Z" transform="translate(0)"/></svg>