<svg xmlns="http://www.w3.org/2000/svg" viewBox="0 0 582.47 137.38"><defs><style>.cls-1{fill:#203484;}</style></defs><g id="Layer_2" data-name="Layer 2"><g id="Layer_2-2" data-name="Layer 2"><path class="cls-1" d="M405.59,26.61,389,90.25,367.84,26.61H349.07L328.12,90.25,311.51,26.61l-49.51,0V0H235.54V26.64h-39.1V0H170V26.64l-48.63,0L104.75,90.25,83.61,26.61H64.83L43.89,90.25,27.29,26.61H0l31.63,103H52.78L74.32,65l21.54,64.62H117l24.48-82.79H170V99.27c0,15,9.16,30.31,30.73,30.31h14.44V107.2h-9.55c-6.32,0-9.17-3.46-9.17-9.56V46.79h39.1V99.27c0,15,9.17,30.31,30.74,30.31h14.44V107.2h-9.55c-6.32,0-9.17-3.46-9.17-9.56V46.79h28.43l25.43,82.79H337L358.55,65l21.54,64.62h21.15l31.42-103Z"/><path class="cls-1" d="M445.74,68.71a68.37,68.37,0,1,1,68.06,68.67A68.37,68.37,0,0,1,445.74,68.71Zm107.56,1,7.39,0L544.26,31.77l-10.87-.05,16.49,38-7.59,0,0,10.05c0,6.09-2.56,8.68-10.84,8.54l-.08,19.39,10.77,0,.09-19.39h3.56a7.48,7.48,0,0,0,7.51-7.42Zm-52.06-38.1c-16.65-.08-30.4,11.49-30.48,28.74-.07,14.51,8.62,24.9,21.64,26.94l-.08,20.18,27.12.12.09-19.4,3.76,0c4.4-.41,7.4-3.31,7.46-7.38l0-11.22,7.39,0L521.54,31.67Zm14.83,32.91a7,7,0,1,0-7-7A7,7,0,0,0,516.07,64.49Z"/></g></g></svg>