<?xml version="1.0" encoding="UTF-8" standalone="no"?>
<!-- Created with Inkscape (http://www.inkscape.org/) -->

<svg
   version="1.1"
   viewBox="0 0 510.01134 380.51436"
   id="svg134054"
   sodipodi:docname="WTVO_logo_2013_(2021_logo).svg"
   inkscape:version="1.2.2 (b0a8486541, 2022-12-01)"
   width="510.01135"
   height="380.51437"
   xmlns:inkscape="http://www.inkscape.org/namespaces/inkscape"
   xmlns:sodipodi="http://sodipodi.sourceforge.net/DTD/sodipodi-0.dtd"
   xmlns:xlink="http://www.w3.org/1999/xlink"
   xmlns="http://www.w3.org/2000/svg"
   xmlns:svg="http://www.w3.org/2000/svg">
  <sodipodi:namedview
     id="namedview134056"
     pagecolor="#505050"
     bordercolor="#eeeeee"
     borderopacity="1"
     inkscape:pageshadow="0"
     inkscape:pageopacity="0"
     inkscape:pagecheckerboard="0"
     inkscape:document-units="mm"
     showgrid="false"
     inkscape:zoom="0.93691727"
     inkscape:cx="287.1118"
     inkscape:cy="204.39371"
     inkscape:window-width="1241"
     inkscape:window-height="612"
     inkscape:window-x="0"
     inkscape:window-y="0"
     inkscape:window-maximized="1"
     inkscape:current-layer="svg134054"
     inkscape:showpageshadow="2"
     inkscape:deskcolor="#d1d1d1" />
  <defs
     id="defs133996">
    <linearGradient
       id="SVGID_i">
      <stop
         stop-color="#bdbec6"
         offset="0"
         id="stop133928" />
      <stop
         stop-color="#c1c0c1"
         offset=".58261"
         id="stop133930" />
      <stop
         stop-color="#f9f9f9"
         offset=".60046"
         id="stop133932" />
      <stop
         stop-color="#edebf3"
         offset="1"
         id="stop133934" />
    </linearGradient>
    <linearGradient
       id="SVGID_a">
      <stop
         stop-color="#0566c7"
         offset="0"
         id="stop133937" />
      <stop
         stop-color="#0255b3"
         stop-opacity=".99216"
         offset=".61238"
         id="stop133939" />
      <stop
         stop-color="#110168"
         offset="1"
         id="stop133941" />
    </linearGradient>
    <radialGradient
       id="SVGID_f"
       cx="309.92001"
       cy="5.9867001"
       r="311.51999"
       gradientTransform="matrix(0.29206153,-0.1166027,0.08159766,0.20647558,73.944221,46.322409)"
       gradientUnits="userSpaceOnUse"
       xlink:href="#SVGID_a" />
    <radialGradient
       id="SVGID_e"
       cx="70.507004"
       cy="143.73"
       r="82.424004"
       gradientTransform="matrix(3.8566071,-1.649318,0.83019381,1.9611713,-235.06877,111.19736)"
       gradientUnits="userSpaceOnUse">
      <stop
         stop-color="#f61b47"
         offset="0"
         id="stop133980" />
      <stop
         stop-color="#a10111"
         offset="1"
         id="stop133982" />
    </radialGradient>
    <radialGradient
       id="SVGID_h"
       cx="213.95"
       cy="936.91998"
       r="311.51999"
       gradientTransform="matrix(0.51339609,-0.28908585,0.23287921,0.41781058,-164.72486,105.97733)"
       gradientUnits="userSpaceOnUse"
       xlink:href="#SVGID_a" />
    <linearGradient
       id="SVGID_l"
       x1="38.835999"
       x2="380.35001"
       y1="85.530998"
       y2="480.67001"
       gradientUnits="userSpaceOnUse"
       gradientTransform="matrix(0.58602177,0,0,0.58902146,-5.406724e-6,5.8580485e-4)">
      <stop
         stop-color="#fff"
         offset="0"
         id="stop133987" />
      <stop
         stop-color="#fff"
         offset=".54507"
         id="stop133989" />
      <stop
         stop-color="#e0e2e3"
         offset=".71679"
         id="stop133991" />
      <stop
         stop-color="#caccce"
         offset="1"
         id="stop133993" />
    </linearGradient>
    <linearGradient
       inkscape:collect="always"
       xlink:href="#SVGID_i"
       id="linearGradient134363"
       gradientUnits="userSpaceOnUse"
       gradientTransform="matrix(5.6143623,0,0,5.546259,-69.222699,-2569.7608)"
       x1="26.566999"
       y1="529.33002"
       x2="26.635"
       y2="522.22998" />
    <linearGradient
       inkscape:collect="always"
       xlink:href="#SVGID_i"
       id="linearGradient134365"
       gradientUnits="userSpaceOnUse"
       gradientTransform="matrix(5.6143623,0,0,5.546259,-69.222699,-2569.7608)"
       x1="26.566999"
       y1="529.33002"
       x2="26.635"
       y2="522.22998" />
    <linearGradient
       inkscape:collect="always"
       xlink:href="#SVGID_i"
       id="linearGradient134367"
       gradientUnits="userSpaceOnUse"
       gradientTransform="matrix(5.6143623,0,0,5.546259,-69.222699,-2569.7608)"
       x1="26.566999"
       y1="529.33002"
       x2="26.635"
       y2="522.22998" />
    <linearGradient
       inkscape:collect="always"
       xlink:href="#SVGID_i"
       id="linearGradient134369"
       gradientUnits="userSpaceOnUse"
       gradientTransform="matrix(5.6143623,0,0,5.546259,-69.222699,-2569.7608)"
       x1="26.566999"
       y1="529.33002"
       x2="26.635"
       y2="522.22998" />
    <clipPath
       id="clip1">
      <path
         d="M 0,0 H 977.82031 V 977.82031 H 0 Z m 0,0"
         id="path2" />
    </clipPath>
  </defs>
  <path
     d="M 365.12085,297.68614 H 0 v 82.82822 h 365.12085 z"
     fill="url(#SVGID_h)"
     id="path133998"
     style="fill:url(#SVGID_h);stroke:none;stroke-width:0.58752" />
  <path
     d="M 0,5.7278697e-4 V 33.299726 H 365.12085 V 21.654784 L 0,0 Z"
     fill="url(#SVGID_f)"
     id="path134000"
     style="fill:url(#SVGID_f);stroke:none;stroke-width:0.58752" />
  <path
     d="M 0,33.300845 H 365.12844 V 297.69041 H 0 Z"
     fill="url(#SVGID_e)"
     id="path134002"
     style="fill:url(#SVGID_e);stroke:none;stroke-width:2.22058" />
  <path
     d="m 341.07053,49.37473 -222.62382,1.005442 -18.21824,38.42777 V 50.380172 H 22.762254 V 282.27793 H 100.22847 V 114.94872 l 147.15006,-2.31349 c 0,0 -66.41972,53.95494 -88.1787,76.43141 -21.76017,22.47531 -31.61938,40.65425 -36.99614,55.47403 -5.37639,14.8198 -6.26807,26.27803 -7.16059,37.73745 l 107.85729,0.84672 c 1.71577,-11.837 3.56963,-24.62995 8.83251,-37.17613 5.26307,-12.54614 14.19347,-26.72858 26.04226,-41.73979 11.84876,-15.0112 26.58015,-30.79405 40.91072,-44.02464 14.33001,-13.23062 28.25914,-23.9078 42.18772,-34.58558 l 0.19913,-76.225282 z"
     fill="url(#SVGID_l)"
     id="path134004"
     style="fill:url(#SVGID_l);stroke:none;stroke-width:0.58752" />
  <path
     d="m 27.307664,365.90718 h 19.412385 l 12.754798,-27.41404 h 0.140138 l 0.911062,27.41404 H 79.93843 l 25.29873,-49.42943 H 86.104969 L 73.139976,346.66124 H 72.999839 L 72.228938,316.47775 H 56.46075 l -13.875989,30.18349 h -0.140137 l 0.07006,-30.18349 H 23.382485 Z"
     style="white-space:pre;fill:url(#linearGradient134363);stroke:none;stroke-width:2.22058"
     id="path134040" />
  <path
     d="m 131.44403,365.90718 h 19.76278 l 7.98919,-36.96913 h 18.29119 l 2.663,-12.46121 h -56.34518 l -2.66298,12.46121 h 18.29119 z"
     style="white-space:pre;fill:url(#linearGradient134365);stroke:none;stroke-width:2.22058"
     id="path134042" />
  <path
     d="m 207.61489,365.90718 h 20.74399 l 33.07751,-49.42943 h -21.7252 l -17.87082,31.70624 h -0.14018 l -4.13481,-31.70624 h -21.72519 z"
     style="white-space:pre;fill:url(#linearGradient134367);stroke:none;stroke-width:2.22058"
     id="path134044" />
  <path
     d="m 274.25055,341.19581 c -5.53639,25.61524 16.53919,26.44563 28.52366,26.44563 11.98445,0 34.34002,-0.83076 39.8773,-26.44563 5.53639,-25.61525 -16.5392,-26.44564 -28.52366,-26.44564 -11.98446,0 -34.34002,0.83077 -39.87508,26.44564 z m 21.0244,0 c 2.17252,-10.03817 8.12941,-13.98444 16.18879,-13.98444 8.05942,0 12.33442,3.94605 10.1618,13.98444 -2.17261,10.03839 -8.12939,13.9844 -16.18878,13.9844 -8.05942,0 -12.33419,-3.94624 -10.16181,-13.9844 z"
     style="white-space:pre;fill:url(#linearGradient134369);stroke:none;stroke-width:2.22058"
     id="path134046" />
  <g
     id="surface1"
     transform="matrix(0.22562584,0,0,0.22208141,289.38981,110.06272)">
    <g
       clip-path="url(#clip1)"
       clip-rule="nonzero"
       id="g9">
      <path
         style="fill:#07111e;fill-opacity:1;fill-rule:nonzero;stroke:none"
         d="M 488.90625,0 C 218.89062,0 0,218.89453 0,488.91406 c 0,270.01172 218.89062,488.90625 488.90625,488.90625 270.01953,0 488.91406,-218.89453 488.91406,-488.90625 C 977.82031,218.89453 758.92578,0 488.90625,0"
         id="path7" />
    </g>
    <path
       style="fill:#f0f0f0;fill-opacity:1;fill-rule:evenodd;stroke:none"
       d="m 775.97656,354.91016 c -74.09765,0 -134.16797,60.07031 -134.16797,134.16796 0,74.09766 60.07032,134.16797 134.16797,134.16797 67.12891,-0.0781 123.875,-49.76562 132.8086,-116.28515 h -76.57032 c -7.58203,23.85156 -29.88672,41.1289 -56.23828,41.1289 -32.58984,0 -59,-26.42187 -59,-59 0,-32.58984 26.42188,-59 59,-59.01172 26.35156,0 48.66797,17.27735 56.23828,41.12891 h 76.58203 C 899.85156,404.66406 843.10547,354.98828 775.97656,354.91016 M 201.21484,548.07812 c -32.58984,0 -59,-26.42187 -59,-59.01171 0,-32.58985 26.42188,-59 59,-59 32.58985,0 59,26.42187 59,59 0,32.60156 -26.42187,59.01171 -59,59.01171 m 134.16797,72.89844 V 489.07812 c 0,-74.09765 -60.07031,-134.16796 -134.16797,-134.16796 -74.09765,0 -134.167965,60.07031 -134.167965,134.16796 0,74.09766 60.070315,134.16797 134.167965,134.16797 21.86328,-0.0351 44.52735,-9.32031 60.5,-24.76562 v 22.49609 z M 488.30078,430.07812 c 32.58984,0 59,26.42188 59,59.01172 0,32.59375 -26.42187,59 -59,59 -32.58984,0 -59,-26.42187 -59,-59 0,-32.60156 26.41016,-59.01172 59,-59.01172 M 354.13281,288.87891 v 200.19921 c 0,74.09766 60.07031,134.16797 134.16797,134.16797 74.10547,0 134.16797,-60.07031 134.16797,-134.16797 0,-74.09765 -60.0625,-134.16796 -134.16797,-134.16796 -20.45703,0.0312 -41.63672,6.54296 -59,18.30859 v -84.33984 z m 0,0"
       id="path11" />
  </g>
</svg>
