<?xml version="1.0" encoding="utf-8"?>
<!-- Generator: Adobe Illustrator 25.4.1, SVG Export Plug-In . SVG Version: 6.00 Build 0)  -->
<svg version="1.1" id="Layer_1" xmlns="http://www.w3.org/2000/svg" xmlns:xlink="http://www.w3.org/1999/xlink" x="0px" y="0px"
	 viewBox="0 0 1920 246" style="enable-background:new 0 0 1920 246;" xml:space="preserve">
<style type="text/css">
	.st0{fill:#0281FE;}
</style>
<g>
	<path d="M0,238.947L84.626,6.636h84.628l84.628,232.311h-79.65l-13.275-44.802H92.925l-13.277,44.802H0z M107.857,142.705h38.166
		L127.77,77.99h-1.66L107.857,142.705z"/>
	<path d="M278.771,238.947V74.672h-61.394V6.636H414.84v68.036h-61.397v164.276H278.771z"/>
	<path d="M441.386,238.947V6.636h74.669v162.618h96.245v69.693H441.386z"/>
	<path d="M618.934,238.947L703.56,6.636h84.628l84.628,232.311h-79.65l-13.275-44.802h-68.033l-13.277,44.802H618.934z
		 M726.791,142.705h38.166L746.704,77.99h-1.66L726.791,142.705z"/>
	<path d="M887.748,238.947V6.636h64.715l86.286,111.177V6.636h74.672v232.311h-64.715L962.417,127.77v111.177H887.748z"/>
	<path d="M1203.02,238.947V74.672h-61.395V6.636h197.463v68.036h-61.397v164.276H1203.02z"/>
	<path d="M1509.418,162.618c0-11.635,2.171-23.459,6.374-35.321L1471.837,6.636h-84.628l-84.626,232.311h79.647l13.277-44.802
		h68.033l13.275,44.802h71.984c-2.284-1.725-4.547-3.48-6.701-5.398C1520.414,214.247,1509.418,190.384,1509.418,162.618z
		 M1410.44,142.705l18.253-64.715h1.66l18.253,64.715H1410.44z"/>
	<path class="st0" d="M1550.629,97.903l59.737-91.267h79.65l-48.12,73.014c15.264,2.654,28.539,7.414,39.824,14.268
		c26.549,15.49,39.824,38.389,39.824,68.7c0,23.013-9.075,42.592-27.213,58.741c-18.144,16.152-41.707,24.227-70.687,24.227
		c-28.988,0-52.551-8.076-70.69-24.227c-18.144-16.149-27.213-35.727-27.213-58.741c0-14.821,4.091-29.979,12.278-45.469
		C1541.777,109.849,1545.983,103.434,1550.629,97.903z M1607.048,179.211c4.423,4.428,9.957,6.639,16.595,6.639
		c6.636,0,12.164-2.21,16.593-6.639c4.423-4.423,6.639-9.957,6.639-16.593c0-6.639-2.215-12.167-6.639-16.595
		c-4.428-4.423-9.957-6.636-16.593-6.636c-6.639,0-12.172,2.213-16.595,6.636c-4.428,4.428-6.636,9.957-6.636,16.595
		C1600.412,169.254,1602.619,174.787,1607.048,179.211z"/>
	<path class="st0" d="M1755.722,238.947l48.123-73.011c-14.826-2.21-28.1-6.856-39.824-13.939
		c-26.552-15.044-39.826-38.052-39.826-69.029c0-23.008,9.069-42.589,27.213-58.741C1769.546,8.078,1793.109,0,1822.097,0
		c28.982,0,52.546,8.078,70.69,24.227C1910.925,40.379,1920,59.96,1920,82.968c0,14.385-4.205,29.535-12.613,45.466
		c-3.541,6.859-7.632,13.275-12.278,19.249l-59.737,91.264H1755.722z M1805.505,66.373c-4.428,4.428-6.639,9.957-6.639,16.595
		c0,6.636,2.21,12.169,6.639,16.593c4.423,4.428,9.954,6.639,16.593,6.639c6.639,0,12.164-2.21,16.593-6.639
		c4.423-4.423,6.639-9.957,6.639-16.593c0-6.639-2.215-12.167-6.639-16.595c-4.428-4.423-9.954-6.636-16.593-6.636
		C1815.458,59.737,1809.928,61.95,1805.505,66.373z"/>
</g>
</svg>
