<?xml version="1.0" encoding="utf-8"?>
<!-- Generator: Adobe Illustrator 27.5.0, SVG Export Plug-In . SVG Version: 6.00 Build 0)  -->
<svg version="1.1" id="Layer_1" xmlns="http://www.w3.org/2000/svg" xmlns:xlink="http://www.w3.org/1999/xlink" x="0px" y="0px"
	 viewBox="0 0 82.436 60" style="enable-background:new 0 0 82.436 60;" xml:space="preserve">
<style type="text/css">
	.st0{fill:none;}
	.st1{fill:#2c3468;}
</style>
<rect class="st0" width="82.436" height="60"/>
<g>
	<path class="st1" d="M23.277,33.607c5.706,0,10.332-4.626,10.332-10.332c0-5.706-4.626-10.332-10.332-10.332
		c-5.706,0-10.332,4.626-10.332,10.332C12.945,28.981,17.571,33.607,23.277,33.607z M21.6,19.026c0-0.968,0.763-1.835,1.706-1.835
		c0.943,0,1.781,0.866,1.781,1.835v8.489c0,0.969-0.839,1.729-1.782,1.729c-0.943,0-1.707-0.785-1.707-1.754L21.6,19.026z"/>
	<polygon class="st1" points="6.267,26.935 11.956,26.935 11.956,21.279 6.267,21.279 6.267,18.573 13.242,18.573 12.863,12.935 
		0.01,12.935 0.01,33.607 6.267,33.607 	"/>
	<path class="st1" d="M47.102,20.354l-0.008,0.461h5.526l0.012-0.441c0.029-1.015,0.291-1.773,0.777-2.257
		c0.484-0.48,1.232-0.722,2.224-0.722c0.894,0,1.57,0.16,2.009,0.476c0.398,0.285,0.59,0.697,0.59,1.259
		c0,0.683-0.797,1.488-2.302,2.322c-0.154,0.084-0.273,0.152-0.344,0.195l-0.34,0.191c-4.557,2.575-5.508,3.376-5.82,3.747
		c-0.824,0.935-1.435,1.978-1.812,3.095c-0.035,0.105-0.068,0.209-0.098,0.316l2.329,4.104l0.279,0.49h13.451v-5.108h-9.421
		c0.453-0.375,1.306-0.965,2.919-1.857c0.945-0.523,1.712-0.951,2.281-1.275c1.605-0.931,2.778-1.896,3.483-2.87
		c0.724-1,1.091-2.173,1.091-3.487c0-2.07-0.752-3.708-2.234-4.864c-1.449-1.129-3.497-1.703-6.084-1.703
		c-2.628,0-4.715,0.703-6.203,2.091c-0.137,0.129-0.269,0.262-0.394,0.4c-0.672,0.74-1.17,1.619-1.486,2.628
		C47.258,18.391,47.116,19.327,47.102,20.354z"/>
	<path class="st1" d="M66.862,25.103c1.39,1.248,3.312,1.88,5.712,1.88c0.966,0,1.869-0.139,2.683-0.414
		c0.515-0.174,1.001-0.402,1.452-0.683c-0.077,1.027-0.365,1.831-0.859,2.395c-0.577,0.659-1.402,0.98-2.523,0.98
		c-0.778,0-1.366-0.141-1.75-0.419c-0.362-0.262-0.571-0.661-0.639-1.219l-0.049-0.399h-5.492l0.013,0.467
		c0.054,1.932,0.789,3.508,2.184,4.684c1.376,1.16,3.199,1.748,5.419,1.748c3.049,0,5.409-0.958,7.017-2.847
		c1.589-1.868,2.395-4.615,2.395-8.165c0-3.43-0.762-6.086-2.266-7.895c-1.524-1.833-3.772-2.762-6.681-2.762
		c-2.712,0-4.863,0.66-6.394,1.961c-1.553,1.32-2.34,3.169-2.34,5.495C64.745,22.095,65.457,23.843,66.862,25.103z M71.103,17.987
		c0.586-0.447,1.436-0.673,2.526-0.673c0.945,0,1.681,0.226,2.187,0.673c0.497,0.438,0.738,1.04,0.738,1.841
		c0,0.761-0.26,1.352-0.795,1.808c-0.549,0.468-1.308,0.705-2.256,0.705c-1.043,0-1.857-0.234-2.419-0.697
		c-0.544-0.447-0.808-1.059-0.808-1.872C70.277,18.995,70.547,18.411,71.103,17.987z"/>
	<polygon class="st1" points="30.515,33.607 37.258,33.607 39.735,29.239 42.211,33.607 48.954,33.607 43.099,23.289 48.954,12.935 
		42.245,12.935 39.735,17.359 37.224,12.935 30.515,12.935 36.37,23.289 	"/>
	<polygon class="st1" points="0,35.37 0.042,38.51 82.436,36.178 82.436,35.37 	"/>
	<path class="st1" d="M19.532,43.648c0.635-0.377,0.953-0.911,0.953-1.602c0-0.566-0.216-1.024-0.649-1.377
		c-0.433-0.352-1.009-0.529-1.728-0.529h-3.434v7.33h3.633c0.733,0,1.331-0.195,1.796-0.586c0.464-0.391,0.696-0.88,0.696-1.466
		c0-0.405-0.112-0.762-0.335-1.073C20.241,44.033,19.93,43.801,19.532,43.648z M16.663,41.658h0.995
		c0.265,0,0.471,0.065,0.618,0.194c0.147,0.129,0.22,0.292,0.22,0.487c0,0.195-0.073,0.358-0.22,0.487
		c-0.147,0.129-0.353,0.194-0.618,0.194h-0.995V41.658z M18.579,45.731c-0.154,0.147-0.374,0.22-0.66,0.22h-1.257v-1.518h1.257
		c0.286,0,0.506,0.072,0.66,0.215c0.153,0.143,0.23,0.323,0.23,0.539C18.81,45.403,18.733,45.585,18.579,45.731z"/>
	<path class="st1" d="M27.113,44.381c0,0.419-0.114,0.75-0.34,0.995c-0.227,0.244-0.532,0.367-0.916,0.367
		c-0.384,0-0.689-0.122-0.916-0.367c-0.227-0.244-0.34-0.576-0.34-0.995V40.14h-2.021v4.325c0,0.956,0.291,1.714,0.874,2.272
		c0.583,0.559,1.363,0.838,2.34,0.838c0.977,0,1.768-0.29,2.372-0.869c0.604-0.579,0.906-1.347,0.906-2.304V40.14h-1.958V44.381z"/>
	<polygon class="st1" points="31.218,47.47 33.207,47.47 33.207,44.904 36.139,44.904 36.139,43.229 33.207,43.229 33.207,41.868 
		36.663,41.868 36.663,40.14 31.218,40.14 	"/>
	<polygon class="st1" points="38.39,47.47 40.38,47.47 40.38,44.904 43.312,44.904 43.312,43.229 40.38,43.229 40.38,41.868 
		43.835,41.868 43.835,40.14 38.39,40.14 	"/>
	<path class="st1" d="M47.186,40.14l-2.88,7.33h2.094l0.429-1.256h2.597l0.429,1.256h2.199l-2.88-7.33H47.186z M47.364,44.642
		l0.764-2.209l0.754,2.209H47.364z"/>
	<polygon class="st1" points="55.563,40.14 53.573,40.14 53.573,47.47 58.914,47.47 58.914,45.69 55.563,45.69 	"/>
	<path class="st1" d="M63.919,40.035c-1.103,0-2.03,0.368-2.78,1.105c-0.75,0.737-1.126,1.635-1.126,2.696
		c0,1.061,0.365,1.949,1.094,2.665c0.729,0.716,1.646,1.073,2.749,1.073c1.103,0,2.03-0.368,2.78-1.105
		c0.75-0.736,1.126-1.635,1.126-2.696c0-1.061-0.365-1.949-1.094-2.665C65.938,40.393,65.022,40.035,63.919,40.035z M65.238,45.187
		c-0.356,0.37-0.806,0.555-1.351,0.555c-0.544,0-0.995-0.185-1.351-0.555c-0.356-0.37-0.534-0.831-0.534-1.382
		c0-0.551,0.178-1.012,0.534-1.382c0.356-0.37,0.806-0.555,1.351-0.555c0.544,0,0.995,0.185,1.351,0.555
		c0.356,0.37,0.534,0.831,0.534,1.382C65.772,44.356,65.594,44.817,65.238,45.187z"/>
</g>
</svg>
