<svg width="106" height="22" viewBox="0 0 106 22" fill="none" xmlns="http://www.w3.org/2000/svg">
<g clip-path="url(#clip0_6421_17731)">
<path fill-rule="evenodd" clip-rule="evenodd" d="M51.5428 10.3719H49.0286V0.943359H51.5428V10.3719Z" fill="#6D6D6D"/>
<path fill-rule="evenodd" clip-rule="evenodd" d="M67.8857 10.3719H65.2928V0.943359H67.8857V10.3719Z" fill="#6D6D6D"/>
<path fill-rule="evenodd" clip-rule="evenodd" d="M82.0286 10.3719H79.5143V0.943359H82.0286V10.3719Z" fill="#6D6D6D"/>
<path fill-rule="evenodd" clip-rule="evenodd" d="M39.9929 10.3459V5.16021C39.9929 3.8245 40.9357 3.11735 42.0357 3.11735C43.2143 3.11735 44.1571 3.98164 44.1571 5.16021V10.4245H46.6714V5.23878C46.6714 2.80307 45.0214 0.681641 42.1143 0.681641C38.9714 0.681641 37.4 2.80307 37.4 5.23878V10.3459H39.9929Z" fill="#6D6D6D"/>
<path fill-rule="evenodd" clip-rule="evenodd" d="M98.2929 10.3459V5.16021C98.2929 3.8245 99.2357 3.11735 100.336 3.11735C101.514 3.11735 102.457 3.98164 102.457 5.16021V10.4245H104.971V5.23878C104.971 2.80307 103.321 0.681641 100.414 0.681641C97.2714 0.681641 95.7 2.80307 95.7 5.23878V10.3459H98.2929Z" fill="#6D6D6D"/>
<path fill-rule="evenodd" clip-rule="evenodd" d="M58.4572 6.73128L61.05 0.916992H63.6429L59.3214 10.3456H57.5929L53.1929 0.916992H55.8643L58.4572 6.73128Z" fill="#6D6D6D"/>
<path fill-rule="evenodd" clip-rule="evenodd" d="M71.1072 7.51691C71.7357 8.06691 72.7572 8.45977 73.7 8.45977C74.4072 8.45977 74.8786 8.14548 74.8786 7.67405C74.8786 6.25977 70.3214 6.73119 70.3214 3.74548C70.3214 1.93834 72.05 0.759766 73.9357 0.759766C75.1929 0.759766 76.5286 1.23119 77.1572 1.70262L75.9786 3.50977C75.5072 3.19548 74.8786 2.88119 74.1714 2.88119C73.4643 2.88119 72.9143 3.11691 72.9143 3.66691C72.9143 4.92405 77.4714 4.37405 77.4714 7.67405C77.4714 9.48119 75.6643 10.5812 73.7 10.5812C72.3643 10.5812 71.0286 10.1098 69.9286 9.32405L71.1072 7.51691Z" fill="#6D6D6D"/>
<path fill-rule="evenodd" clip-rule="evenodd" d="M88.9428 8.22405C90.4357 8.22405 91.4571 7.04548 91.4571 5.63119C91.4571 4.21691 90.4357 3.03834 88.9428 3.03834C87.45 3.03834 86.4286 4.21691 86.4286 5.63119C86.4286 7.04548 87.45 8.22405 88.9428 8.22405ZM88.9428 0.759766C91.85 0.759766 93.9714 2.95977 93.9714 5.70977C93.9714 8.45977 91.7714 10.6598 88.9428 10.6598C86.0357 10.6598 83.9143 8.45977 83.9143 5.70977C83.8357 2.95977 86.0357 0.759766 88.9428 0.759766Z" fill="#6D6D6D"/>
<path fill-rule="evenodd" clip-rule="evenodd" d="M32.8429 0.916992V6.18128C32.8429 7.43842 31.8214 8.22414 30.7214 8.22414C29.5429 8.22414 28.6 7.28128 28.6 6.18128V0.916992H26.0857V6.02414C26.0857 8.38128 27.7357 10.5813 30.6429 10.5813C33.7857 10.5813 35.3572 8.45985 35.3572 6.02414V0.916992H32.8429Z" fill="#6D6D6D"/>
<path fill-rule="evenodd" clip-rule="evenodd" d="M8.40714 0.367188V12.6243C9.03571 12.6243 12.4143 12.7029 15.3214 12.4672C16.0286 12.3886 16.7357 12.31 17.4428 12.1529C19.0928 11.8386 20.5071 11.3672 20.9786 10.9743V1.62433C19.7214 0.681473 14.3786 0.367188 8.40714 0.367188Z" fill="#00C56E"/>
<path fill-rule="evenodd" clip-rule="evenodd" d="M20.9786 11.1318V10.9746C20.5071 11.3675 19.0928 11.8389 17.4428 12.1532C16.7357 12.3103 16.0286 12.3889 15.3214 12.4675C12.4143 12.7032 9.03571 12.6246 8.40714 12.6246V14.5889C8.40714 15.2175 8.48571 15.7675 8.48571 16.3175C8.56428 17.496 8.72142 18.6746 8.87856 19.6175C9.11428 20.6389 9.42856 21.5032 9.89999 21.9746H10.3714C13.9071 21.9746 17.05 20.1675 18.9357 17.496C19.6428 16.5532 20.1143 15.2175 20.4286 13.8818C20.8214 13.0175 20.9786 12.0746 20.9786 11.1318Z" fill="#1717EF"/>
<path fill-rule="evenodd" clip-rule="evenodd" d="M9.97857 21.9748C9.50714 21.5033 9.19286 20.7176 8.95714 19.6176C8.72143 18.6748 8.64286 17.5748 8.56429 16.3176C8.56429 15.7676 8.48571 15.1391 8.48571 14.5891V12.6248C5.73571 12.6248 3.3 12.3891 2.2 12.2319C0.942857 11.9962 0.157143 11.5248 0 11.2891C0 12.3105 0.157143 13.4891 0.392857 14.4319C0.785714 15.5319 1.25714 16.6319 1.88571 17.4962C3.69286 20.0891 6.67857 21.8176 9.97857 21.9748Z" fill="#FF161F"/>
<path fill-rule="evenodd" clip-rule="evenodd" d="M0.392857 1.15332C0.157143 1.15332 0 1.31046 0 1.54618V11.3676C0.157143 11.6033 0.942857 11.9962 2.12143 12.2319C2.27857 12.2319 2.51429 12.3105 2.75 12.3105C4.00714 12.4676 6.05 12.6247 8.40714 12.6247V5.08189C5.81429 1.70332 1.80714 1.15332 0.392857 1.15332Z" fill="#E621BB"/>
<path d="M26.2429 15.0073H30.8V15.8716H29.0714V21.6073H28.1286V15.8716H26.3214V15.0073H26.2429ZM34.9643 19.9573H32.1357L31.4286 21.6859H30.4071L33.1571 15.0073H33.7857L36.5357 21.6859H35.5143L34.9643 19.9573ZM32.5286 19.0144H34.5714L33.55 16.5787L32.5286 19.0144ZM41.0929 20.193H40.4643L38.5 17.2073V21.6859H37.5571V15.0073H38.1857L40.7786 19.093L43.3714 15.0073H44V21.6859H43.0571V17.2073L41.0929 20.193ZM46.6714 18.7001V21.6073H45.7286V14.9287H48.2429C48.8714 14.9287 49.3429 15.0859 49.6571 15.4001C50.05 15.7144 50.2857 16.2644 50.2857 16.8144C50.2857 17.3644 50.05 17.9144 49.6571 18.2287C49.3429 18.543 48.95 18.7001 48.2429 18.7001H46.6714ZM48.1643 17.8359C48.6357 17.8359 48.8714 17.7573 49.0286 17.5216C49.1857 17.3644 49.2643 17.1287 49.2643 16.893C49.2643 16.6573 49.1857 16.4216 49.0286 16.2644C48.8714 16.1073 48.6357 15.9501 48.1643 15.9501H46.6714V17.8359H48.1643ZM54.2929 19.9573H51.4643L50.7571 21.6859H49.7357L52.4857 15.0073H53.1143L55.8643 21.6859H55L54.2929 19.9573ZM51.8571 19.0144H53.9L52.8786 16.5787L51.8571 19.0144ZM59.2429 21.6859V15.0073H61.5214C62.15 15.0073 62.5429 15.1644 62.8571 15.4787C63.1714 15.793 63.4071 16.2644 63.4071 16.7359C63.4071 17.2073 63.1714 17.6001 62.8571 17.9144C63.4857 18.2287 63.9571 18.9359 63.9571 19.643C63.9571 20.2716 63.6429 20.8216 63.25 21.2144C62.9357 21.5287 62.4643 21.6859 61.8357 21.6859H59.2429ZM61.2857 17.6001C61.8357 17.6001 62.0714 17.5216 62.2286 17.2859C62.3857 17.1287 62.4643 16.9716 62.4643 16.7359C62.4643 16.5001 62.3857 16.343 62.2286 16.1859C62.0714 16.0287 61.8357 15.8716 61.2857 15.8716H60.1071V17.6001H61.2857ZM61.6 20.743C62.2286 20.743 62.4643 20.5859 62.7 20.4287C62.8571 20.193 63.0143 19.9573 63.0143 19.643C63.0143 19.3287 62.8571 19.093 62.7 18.8573C62.4643 18.6216 62.2286 18.543 61.6 18.543H60.1857V20.743H61.6ZM68.75 19.9573H65.9214L65.2143 21.6859H64.1929L66.9429 15.0073H67.5714L70.3214 21.6859H69.3L68.75 19.9573ZM66.3143 19.0144H68.3571L67.3357 16.5787L66.3143 19.0144ZM73.0714 18.6216V21.6859H72.1286V18.6216L69.85 15.0073H70.95L72.6786 17.6787L74.4071 15.0073H75.5071L73.0714 18.6216Z" fill="black"/>
</g>
<defs>
<clipPath id="clip0_6421_17731">
<rect width="105.286" height="22" fill="white"/>
</clipPath>
</defs>
</svg>
