<svg width="106" height="22" viewBox="0 0 106 22" fill="none" xmlns="http://www.w3.org/2000/svg">
<path d="M50.9929 9.8998H48.5571V0.706948H50.9929V9.8998ZM66.8643 9.8998H64.35V0.706948H66.8643V9.8998ZM80.6929 9.8998H78.1786V0.706948H80.6929V9.8998ZM39.7571 9.8998V4.87123C39.7571 3.61409 40.7 2.82838 41.8 2.82838C42.9786 2.82838 43.8429 3.69266 43.8429 4.87123V9.97838H46.2786V4.9498C46.2786 2.59266 44.6286 0.549805 41.8 0.549805C38.7357 0.549805 37.2429 2.59266 37.2429 4.9498V9.97838H39.7571V9.8998ZM96.4857 9.8998V4.87123C96.4857 3.61409 97.4286 2.82838 98.5286 2.82838C99.7071 2.82838 100.571 3.69266 100.571 4.87123V9.97838H103.007V4.9498C103.007 2.59266 101.357 0.549805 98.5286 0.549805C95.4643 0.549805 93.9714 2.59266 93.9714 4.9498V9.97838H96.4857V9.8998ZM57.6714 6.36409L60.1857 0.706948H62.7786L58.5357 9.8998H56.8071L52.5643 0.706948H55.1571L57.6714 6.36409ZM70.0071 7.1498C70.6357 7.6998 71.5786 8.09266 72.5214 8.09266C73.15 8.09266 73.7 7.77838 73.7 7.30695C73.7 5.89266 69.2214 6.44266 69.2214 3.45695C69.2214 1.72838 70.95 0.628376 72.7571 0.628376C73.9357 0.628376 75.2714 1.0998 75.9 1.57123L74.7214 3.37838C74.25 3.06409 73.6214 2.7498 72.9143 2.7498C72.2071 2.7498 71.6571 2.98552 71.6571 3.45695C71.6571 4.63552 76.1357 4.16409 76.1357 7.38552C76.1357 9.11409 74.4071 10.2141 72.4429 10.2141C71.1857 10.2141 69.85 9.74266 68.75 8.95695L70.0071 7.1498ZM87.3714 0.549805C90.2 0.549805 92.2429 2.67123 92.2429 5.34266C92.2429 8.01409 90.1214 10.1355 87.3714 10.1355C84.5429 10.1355 82.5 8.01409 82.5 5.34266C82.4214 2.67123 84.5429 0.549805 87.3714 0.549805ZM87.3714 7.85695C88.7857 7.85695 89.8071 6.75695 89.8071 5.34266C89.8071 3.92838 88.7857 2.82838 87.3714 2.82838C85.9571 2.82838 84.9357 4.00695 84.9357 5.34266C84.9357 6.75695 85.8786 7.85695 87.3714 7.85695ZM32.7643 0.706948V5.81409C32.7643 7.07123 31.8214 7.85695 30.7214 7.85695C29.6214 7.85695 28.6786 6.99266 28.6786 5.81409V0.706948H26.2429V5.73552C26.2429 8.09266 27.8929 10.1355 30.7214 10.1355C33.7857 10.1355 35.2786 8.09266 35.2786 5.73552V0.706948H32.7643Z" fill="#6D6D6D"/>
<path d="M30.0143 13.5146C32.1357 13.5146 33.7857 15.1646 33.7857 17.3646C33.7857 19.5646 32.1357 21.2146 30.0143 21.2146C27.8929 21.2146 26.2429 19.5646 26.2429 17.3646C26.2429 15.1646 27.8929 13.5146 30.0143 13.5146ZM30.0143 20.1932C31.5071 20.1932 32.6857 19.0146 32.6857 17.3646C32.6857 15.7146 31.5071 14.5361 30.0143 14.5361C28.5214 14.5361 27.3429 15.7146 27.3429 17.3646C27.3429 18.9361 28.4429 20.1932 30.0143 20.1932ZM36.1429 17.5218V21.0575H35.0429V13.5932H37.6357C38.3429 13.5932 38.7357 13.7504 39.05 14.0646C39.5214 14.4575 39.7571 15.0075 39.7571 15.6361C39.7571 16.2646 39.4429 16.8146 39.05 17.2075C38.8143 17.3646 38.5786 17.5218 38.1857 17.6004L40.8571 21.1361H39.6L36.9286 17.6004H36.1429V17.5218ZM37.6357 16.5004C38.1071 16.5004 38.3429 16.4218 38.5 16.1861C38.6571 16.0289 38.8143 15.7932 38.8143 15.4789C38.8143 15.1646 38.7357 14.9289 38.5 14.7718C38.3429 14.6146 38.1071 14.4575 37.6357 14.4575H36.1429V16.5004H37.6357ZM42.9786 20.0361H46.2786V21.0575H41.8786V13.5932H42.9786V20.0361ZM52.0929 19.1718H48.95L48.1643 21.0575H47.0643L50.1286 13.5932H50.9143L53.9786 21.0575H52.8786L52.0929 19.1718ZM49.3429 18.1504H51.6214L50.4429 15.4004L49.3429 18.1504ZM56.1 15.5575V21.0575H55V13.5932H55.7857L60.2643 19.0932V13.5932H61.2857V21.0575H60.5L56.1 15.5575ZM63.25 21.0575V13.5932H65.5286C66.7071 13.5932 67.4929 13.8289 68.1214 14.3004C69.0643 15.0075 69.6143 16.1075 69.6143 17.3646C69.6143 18.6218 69.0643 19.7218 68.1214 20.4289C67.4929 20.9004 66.7071 21.1361 65.5286 21.1361L63.25 21.0575ZM67.5714 15.2432C67.1 14.8504 66.4714 14.6146 65.45 14.6146H64.35V20.0361H65.45C66.4714 20.0361 67.1 19.8004 67.5714 19.4075C68.1214 18.9361 68.5143 18.1504 68.5143 17.2861C68.5143 16.4218 68.1214 15.7146 67.5714 15.2432ZM74.25 13.5146C76.3714 13.5146 78.0214 15.1646 78.0214 17.3646C78.0214 19.5646 76.3714 21.2146 74.25 21.2146C72.1286 21.2146 70.4786 19.5646 70.4786 17.3646C70.4786 15.1646 72.1286 13.5146 74.25 13.5146ZM74.25 20.1932C75.7429 20.1932 76.9214 19.0146 76.9214 17.3646C76.9214 15.7146 75.7429 14.5361 74.25 14.5361C72.7571 14.5361 71.5786 15.7146 71.5786 17.3646C71.5786 18.9361 72.6786 20.1932 74.25 20.1932Z" fill="black"/>
<path d="M9.19287 0.235352V12.0996C9.82144 12.0996 13.1214 12.1782 15.8714 11.9425C16.5786 11.8639 17.2857 11.7854 17.9143 11.6282C19.5643 11.3139 20.9 10.8425 21.3714 10.4496V1.41392C20.1143 0.471066 15.0072 0.235352 9.19287 0.235352Z" fill="#00C473"/>
<path d="M21.3714 10.6064V10.4492C20.9 10.8421 19.5643 11.3135 17.9143 11.6278C17.2857 11.7064 16.5786 11.8635 15.8714 11.9421C13.0429 12.1778 9.74287 12.0992 9.19287 12.0992V14.0635C9.19287 14.6135 9.27144 15.2421 9.27144 15.7921C9.35001 16.9706 9.50716 18.0706 9.6643 19.0135C9.90001 20.0349 10.2143 20.8206 10.6857 21.2921H11.1572C14.6143 21.2921 17.6786 19.5635 19.4857 16.9706C20.1143 16.0278 20.6643 14.7706 20.9786 13.5135C21.2143 12.4921 21.3714 11.6278 21.3714 10.6064Z" fill="#1D1DEA"/>
<path d="M10.6857 21.2137C10.2143 20.8208 9.90001 19.9565 9.6643 18.9351C9.42859 17.9922 9.35001 16.8922 9.27144 15.7137C9.27144 15.1637 9.19287 14.6137 9.19287 13.9851V12.0208C6.52144 12.0208 4.1643 11.7851 3.0643 11.628C1.88573 11.3922 1.10001 10.9994 0.942871 10.7637C0.942871 11.7851 1.10001 12.8851 1.33573 13.828C1.65001 14.928 2.12144 15.8708 2.75001 16.8137C4.63573 19.4065 7.4643 21.0565 10.6857 21.2137Z" fill="#ED1C24"/>
<path d="M1.41428 0.942383C1.17857 0.942383 1.02142 1.09953 1.02142 1.33524V10.8424C1.17857 11.0781 1.96428 11.471 3.14285 11.7067C3.29999 11.7067 3.53571 11.7852 3.77142 11.7852C5.02857 11.9424 6.99285 12.0995 9.27142 12.0995V4.79238C6.67857 1.49238 2.74999 0.942383 1.41428 0.942383Z" fill="#E621BB"/>
</svg>
