<?xml version="1.0" encoding="UTF-8"?><svg id="Square" xmlns="http://www.w3.org/2000/svg" xmlns:xlink="http://www.w3.org/1999/xlink" viewBox="0 0 669.97 612.52"><metadata></metadata><defs><style>.cls-1{fill:url(#radial-gradient);}.cls-1,.cls-2,.cls-3,.cls-4{stroke-width:0px;}.cls-5{fill:#fff;stroke:#231f20;stroke-width:5px;}.cls-3{fill:#bababa;}.cls-4{fill:#999;}</style><radialGradient id="radial-gradient" cx="345.37" cy="333.07" fx="345.37" fy="333.07" r="277.42" gradientUnits="userSpaceOnUse"><stop offset=".25" stop-color="#b21311"/><stop offset=".49" stop-color="#b90e0d"/><stop offset=".84" stop-color="#cd0302"/><stop offset=".92" stop-color="#d30000"/></radialGradient></defs><rect class="cls-1" x="70.01" y="53.61" width="550.72" height="558.92"/><rect id="Top_Rectangle" class="cls-2" x="70.01" width="550.72" height="76.47"/><path class="cls-4" d="m322.4,17.08l-13.49,46.27h-10.02l-7.17-25.85-7.23,25.85h-10.08l-13.61-46.27h13l6.5,27.63,7.41-27.63h8.5l7.41,27.56,6.44-27.56h12.33Z"/><path class="cls-4" d="m324.1,17.08h13.37l8.87,30.34,8.69-30.34h13.37l-16.28,46.27h-11.91l-16.1-46.27Z"/><path class="cls-4" d="m384.43,63.35h-12.15V17.08h12.15v46.27Z"/><path class="cls-4" d="m415.96,63.35l-7.47-13.68h-4.62v13.68h-12.15V17.08h17.19c6.32,0,11.02,1.31,14.09,3.93,3.08,2.62,4.62,6.42,4.62,11.4,0,6.92-2.57,11.79-7.72,14.61l9.54,16.33h-13.49Zm-12.09-24.92h4.43c1.94,0,3.48-.43,4.62-1.29,1.13-.86,1.7-2.24,1.7-4.13,0-1.59-.5-2.77-1.49-3.54-.99-.77-2.56-1.16-4.71-1.16h-4.56v10.11Z"/><rect id="Bottom_Rectangle" class="cls-2" x="70.01" y="451.77" width="550.72" height="160.75"/><path class="cls-3" d="m252.16,491.87v87.92h-19.39l-31.05-44.34v44.34h-23.09v-87.92h19.39l30.59,45.21v-45.21h23.55Z"/><path class="cls-3" d="m323.49,513.22h-34.4v11.81h28.86v21.35h-28.86v12.06h34.4v21.35h-57.49v-87.92h57.49v21.35Z"/><path class="cls-3" d="m447.93,491.87l-25.63,87.92h-19.05l-13.62-49.11-13.74,49.11h-19.16l-25.86-87.92h24.7l12.35,52.5,14.08-52.5h16.16l14.08,52.37,12.24-52.37h23.43Z"/><path class="cls-3" d="m501.49,492.25c5.08,1.76,9.19,3.94,12.35,6.53l-9.7,18.59c-2.62-2.09-5.68-3.83-9.18-5.21-3.5-1.38-6.71-2.07-9.64-2.07-2.54,0-4.46.55-5.77,1.63-1.31,1.09-1.96,2.47-1.96,4.14,0,2.09,1,3.73,3,4.9,2,1.17,5.15,2.47,9.46,3.89,5.16,1.76,9.41,3.52,12.76,5.28s6.27,4.44,8.77,8.04c2.5,3.6,3.75,8.33,3.75,14.19s-1.48,11.37-4.44,15.76c-2.96,4.4-7.02,7.72-12.18,9.99-5.16,2.26-11.01,3.39-17.55,3.39-5.23,0-10.5-.71-15.81-2.13s-9.97-3.43-13.97-6.03l6.81-20.85c8.62,4.69,16.47,7.03,23.55,7.03,2.77,0,4.89-.57,6.35-1.7,1.46-1.13,2.19-2.62,2.19-4.46s-.87-3.43-2.6-4.52c-1.73-1.09-4.48-2.18-8.25-3.27-5.7-1.76-10.29-3.47-13.79-5.15-3.5-1.67-6.48-4.33-8.95-7.98-2.46-3.64-3.69-8.52-3.69-14.63s1.37-10.88,4.1-15.07c2.73-4.19,6.54-7.39,11.43-9.61,4.89-2.22,10.48-3.33,16.79-3.33,5.69,0,11.08.88,16.16,2.64Z"/><g id="_29"><path class="cls-5" d="m151.01,238.84H56.97c12.65-47.09,35.37-83.37,68.15-108.83,32.78-25.46,72.96-38.19,120.52-38.19,21.45,0,40.57,2.65,57.36,7.96,16.79,5.31,29.75,12.9,38.91,22.76,9.16,9.87,15.32,21.73,18.51,35.58,3.18,13.85,2.33,29.89-2.58,48.13-3.92,14.6-9.77,27.54-17.54,38.81-7.77,11.27-17.36,21.6-28.78,30.97-11.41,9.37-32.13,22.26-62.15,38.68-4.21,2.34-64.74,36.14-85.4,47.67-1.84,1.03-1.1,3.82,1,3.82h149.39l-19.04,92.35H3.26c4.59-17.08,13.26-38.96,18.85-51.23,5.02-11.04,9.86-23.36,28.34-43.46,11.2-12.18,28.95-27.68,51.09-42.37,21.53-14.28,34.27-23.35,67.98-42.34,33.7-18.99,54.15-29.04,63.38-38.33,9.23-9.28,16.32-19.32,19.21-30.1,3.21-11.94,2.01-21.56-3.6-28.86-5.61-7.29-15.23-10.94-28.86-10.94-11.81,0-22.53,3.07-32.16,9.2-9.63,6.14-17.43,14.43-23.4,24.89-4.59,7.79-8.95,19.07-13.08,33.82Z"/><path class="cls-5" d="m333.32,366.73l99.14-.23c.71,9.13,3.33,12.24,8.82,16.89,5.49,4.64,14.28,4.98,25.42,4.98,9.48,0,17.98-1.78,25.5-5.35,7.53-3.57,14.61-8.88,21.24-15.92,6.63-7.05,12.32-15.21,17.06-24.5,4.46-8.74,8.47-19.53,12.05-32.36.25-.89-.72-1.62-1.51-1.15-26.99,16.05-54.97,24.06-83.96,24.06-22.62,0-42.38-4.6-59.28-13.81-16.9-9.2-28.16-22.55-33.77-40.05-5.61-17.49-5.27-37.93,1.01-61.33,5.12-19.06,13.35-36.86,24.69-53.36,11.34-16.5,25.24-30.18,41.71-41.05,16.47-10.86,34.13-18.7,52.96-23.5,18.83-4.81,37.82-7.22,56.94-7.22,28.93,0,52.28,4.1,70.03,12.31,17.75,8.21,31.43,20.73,41.05,37.57,9.62,16.83,14.61,36.44,15,58.83.39,22.39-3.14,47.44-10.58,75.13-10.92,40.63-27.05,74.85-48.4,102.63-21.35,27.78-47.5,49.13-78.45,64.05-23.65,11.27-50.95,16.92-81.88,16.92s-53.97-4.65-72.1-13.93c-18.12-9.29-30.57-22.39-37.33-39.31-4.55-10.94-6.34-24.37-5.39-40.3Zm193.08-197.78c-13.14,0-25.03,4.35-35.69,13.06-10.65,8.71-17.94,20.36-21.87,34.96-3.92,14.6-2.83,26.17,3.28,34.71,6.1,8.54,16.06,12.81,29.86,12.81s27.28-4.35,38.43-13.06c11.15-8.71,18.63-20.12,22.41-34.22,3.87-14.42,2.55-26.08-3.96-34.95-6.51-8.87-17.34-13.3-32.47-13.3Z"/></g></svg>