<?xml version="1.0" encoding="UTF-8"?>
<svg width="214.31mm" height="42.639mm" version="1.1" viewBox="0 0 214.31 42.639" xmlns="http://www.w3.org/2000/svg">
<g transform="translate(-36.835 -136.4)">
<path transform="matrix(.26458 0 0 .26458 36.835 136.44)" d="m536 0v94l23.768-7.9219c5.9114 5.5532 15.052 9.9219 29.232 9.9219 39 0 49-19 49-36s-16-30-42-30c-15.466 0-24.881 5.2988-30 9.5996v-39.6zm51 39c18 0 20 19 20 25s-0.99997 26-17 26c-16 0-22-11-22-26 0 0 1-25 19-25z" fill="#1a3668" stop-color="#000000"/>
<path d="m37.1 136.7 25.135 42.333 7.1438-8.9958-20.108-33.602h-12.435" fill="#1a3668" stop-color="#000000"/>
<path transform="matrix(.26458 0 0 .26458 36.835 136.44)" d="m58 0 96 161 96-161h-47l-49 80-49-80z" fill="#3eb049" stop-color="#000000"/>
<path d="m118.06 136.7-25.135 42.333-7.1438-8.9958 20.108-33.602h12.435" fill="#1a3668" stop-color="#000000"/>
<path d="m77.581 136.44-5.5072 7.9375 5.5072 8.9958 5.5077-8.9958z" fill="#1a3668" stop-color="#000000"/>
<path transform="matrix(.26458 0 0 .26458 36.835 136.44)" d="m370-0.14844c-4.2865 0.027035-6.998 0.14844-6.998 0.14844h-30v94h30v-41.732c6.2885-0.375 15-0.26761 30-1.2676 32.942-2.1961 41.389-32.955 27.389-42.955-10.5-7.5-37.531-8.2745-50.391-8.1934zm-6.998 7.1602c26.313 0.24721 38.925 10.189 33 25.988-4.0634 10.836-21.615 13.456-33 13.992z" fill="#1a3668" stop-color="#000000"/>
<path transform="matrix(.26458 0 0 .26458 36.835 136.44)" d="m431 30v42c0 11 11 25 36 25 16.676 0 25.781-5.781 30-9.6328v6.6328h30v-64h-30v42s-2 14-19 14-17-14-17-14v-42z" fill="#1a3668" stop-color="#000000"/>
<path d="m207.76 136.44v24.871h7.9375v-24.871z" fill="#1a3668" stop-color="#000000"/>
<path d="m217.81 144.38v16.933h7.9375v-16.933z" fill="#1a3668" stop-color="#000000"/>
<path d="m249.03 149.14 2.1167-2.9104s-7.4181-4.2562-16.943-0.55202c-9.525 3.7042-6.8106 10.018-4.4293 12.664 2.3812 2.6458 5.2328 3.4984 11.054 3.4984 5.8208 0 7.4083-0.52917 7.4083-0.52917l2.9104-2.9104-1.3229-0.52916s-7.4083 4.4979-12.171 0-0.78848-12.31 4.4979-12.074c4.672 0.20867 5.431 3.1202 5.5562 3.078l1.3229 0.26458" fill="#1a3668" stop-color="#000000"/>
<ellipse cx="221.78" cy="139.22" rx="4.101" ry="2.7781" fill="#3eb049" stop-color="#000000"/>
<g fill="#1a3668" stroke-width=".21105" aria-label="BROADCASTING">
<path d="m126.28 169.93v-3.5771h2.994q0.48851 0 0.91398 0.063 0.44123 0.0473 0.77215 0.23637 0.33092 0.1891 0.52002 0.53578t0.1891 0.94549q0 0.89822-0.5673 1.3552-0.55153 0.44123-1.828 0.44123zm-1.497-4.8378v11.251h5.4366q0.83518 0 1.4655-0.26788 0.64608-0.28365 1.0716-0.72488 0.44123-0.45699 0.66184-1.04 0.22061-0.58306 0.22061-1.1976 0-1.04-0.55153-1.7649-0.55154-0.72488-1.5916-0.9455v-0.0315q0.80367-0.31517 1.2291-0.96125 0.44123-0.66185 0.44123-1.5601 0-0.85095-0.39396-1.434-0.37819-0.58305-0.92973-0.91398-0.25213-0.15758-0.61457-0.23637-0.34668-0.0788-0.75639-0.11031-0.40972-0.0473-0.83519-0.0473-0.40971-0.0158-0.77215-0.0158zm1.497 9.9907v-3.8923h3.4195q0.47274 0 0.91397 0.0945 0.44123 0.0788 0.77215 0.29941 0.34668 0.20486 0.55154 0.56729 0.20486 0.36244 0.20486 0.91398 0 0.94549-0.5673 1.4813-0.55154 0.53578-1.5443 0.53578z"/>
<path d="m136.05 165.09v11.251h1.497v-4.8062h3.6559q0.55153 0 0.88246 0.17334 0.33092 0.15759 0.53577 0.44123 0.20486 0.26789 0.29941 0.64609 0.0945 0.36244 0.15758 0.77215 0.0788 0.40971 0.0945 0.83519 0.0158 0.42547 0.0315 0.80366 0.0158 0.36244 0.063 0.66185 0.063 0.2994 0.22061 0.47274h1.6704q-0.23637-0.28364-0.36243-0.64608-0.11031-0.3782-0.17334-0.78791-0.063-0.40971-0.0788-0.83519-0.0157-0.42547-0.0473-0.83518-0.0473-0.40971-0.14182-0.78791-0.0788-0.3782-0.26789-0.6776-0.17334-0.31517-0.48851-0.53578-0.2994-0.22062-0.78791-0.31517v-0.0315q1.0243-0.28365 1.4813-1.0558 0.47275-0.77215 0.47275-1.7964 0-1.371-0.91398-2.1589-0.89821-0.78791-2.5056-0.78791zm4.6172 5.1844h-3.1201v-3.9238h3.7189q1.0558 0 1.5285 0.53578 0.47275 0.53577 0.47275 1.3867 0 0.61457-0.22061 1.0085-0.20486 0.3782-0.5673 0.61457-0.34668 0.22062-0.81943 0.29941-0.47274 0.0788-0.99276 0.0788z"/>
<path d="m148.19 170.72q0-0.85095 0.22062-1.6704 0.22061-0.83519 0.69336-1.497t1.2134-1.0558q0.74064-0.40971 1.7649-0.40971t1.7649 0.40971q0.74063 0.39396 1.2134 1.0558 0.47274 0.66184 0.69336 1.497 0.22061 0.81942 0.22061 1.6704 0 0.85094-0.22061 1.6861-0.22062 0.81943-0.69336 1.4813-0.47275 0.66184-1.2134 1.0716-0.74064 0.39396-1.7649 0.39396t-1.7649-0.39396q-0.74063-0.40971-1.2134-1.0716-0.47275-0.66185-0.69336-1.4813-0.22062-0.83518-0.22062-1.6861zm-1.497 0q0 1.1504 0.33093 2.2219 0.34668 1.0558 1.0243 1.8752t1.6861 1.3079q1.0085 0.47275 2.348 0.47275t2.348-0.47275q1.0085-0.4885 1.6861-1.3079t1.0085-1.8752q0.34668-1.0716 0.34668-2.2219t-0.34668-2.2062q-0.33092-1.0716-1.0085-1.891-0.6776-0.81943-1.6861-1.3079-1.0085-0.48851-2.348-0.48851t-2.348 0.48851q-1.0085 0.4885-1.6861 1.3079-0.6776 0.81942-1.0243 1.891-0.33093 1.0558-0.33093 2.2062z"/>
<path d="m161.71 171.69 1.9067-5.2475h0.0315l1.8752 5.2475zm1.1188-6.6027-4.3808 11.251h1.5285l1.2607-3.388h4.759l1.2291 3.388h1.6546l-4.3965-11.251z"/>
<path d="m171.96 175.08v-8.73h2.5213q1.04 0 1.7492 0.2994 0.70911 0.28365 1.1503 0.85094 0.45699 0.55154 0.64609 1.3552 0.20486 0.78791 0.20486 1.7964 0 1.04-0.22062 1.7807-0.20485 0.72488-0.53578 1.2134-0.33092 0.48851-0.75639 0.77215-0.40971 0.28365-0.83519 0.44123-0.42547 0.14183-0.80366 0.1891-0.3782 0.0315-0.63033 0.0315zm-1.497-9.9907v11.251h3.8608q1.4025 0 2.4268-0.39395 1.0243-0.39396 1.6861-1.1346 0.66185-0.75639 0.97701-1.8437 0.31517-1.1031 0.31517-2.5213 0-2.7104-1.4025-4.0341t-4.0026-1.3237z"/>
<path d="m189.94 168.48h1.497q-0.12607-0.89821-0.53578-1.5758-0.40971-0.69336-1.0243-1.1504-0.61457-0.45698-1.4025-0.69336-0.78791-0.23637-1.6704-0.23637-1.2922 0-2.3007 0.47275-0.99277 0.45698-1.6704 1.2606-0.66184 0.80367-1.0085 1.891-0.34668 1.0716-0.34668 2.3007t0.31516 2.3007q0.33092 1.0716 0.97701 1.8595t1.6231 1.2449q0.97701 0.44123 2.2849 0.44123 2.1589 0 3.4038-1.1819 1.2449-1.1819 1.4655-3.3092h-1.497q-0.0473 0.69336-0.28365 1.2922-0.23637 0.59881-0.66184 1.04-0.40972 0.42547-0.99277 0.67761-0.5673 0.23637-1.3079 0.23637-1.0085 0-1.7334-0.3782-0.72488-0.3782-1.1976-1.0085-0.45698-0.64609-0.6776-1.497-0.22061-0.8667-0.22061-1.828 0-0.88246 0.22061-1.7019 0.22062-0.81943 0.6776-1.4498 0.47275-0.64609 1.1819-1.0243 0.72488-0.37819 1.7334-0.37819 1.1819 0 2.0328 0.59881 0.8667 0.59881 1.1188 1.7964z"/>
<path d="m195.83 171.69 1.9068-5.2475h0.0315l1.8752 5.2475zm1.1188-6.6027-4.3808 11.251h1.5285l1.2607-3.388h4.759l1.2291 3.388h1.6546l-4.3965-11.251z"/>
<path d="m211.08 168.38h1.4182q-0.0315-0.92973-0.36244-1.5916-0.31517-0.67761-0.88246-1.1188-0.55154-0.44123-1.2922-0.64608-0.74064-0.20486-1.6073-0.20486-0.77215 0-1.5128 0.20486-0.72488 0.1891-1.3079 0.59881-0.56729 0.39395-0.91397 1.0243-0.34668 0.61457-0.34668 1.4655 0 0.77216 0.2994 1.2922 0.31516 0.50426 0.81943 0.83518 0.52002 0.31517 1.1661 0.52002 0.64609 0.1891 1.3079 0.34668 0.67761 0.14183 1.3237 0.28365 0.64609 0.14182 1.1504 0.3782 0.52002 0.22061 0.81943 0.58305 0.31516 0.36244 0.31516 0.94549 0 0.61457-0.25213 1.0085-0.25213 0.39395-0.66184 0.63033-0.40972 0.22061-0.92974 0.31516-0.50426 0.0945-1.0085 0.0945-0.63033 0-1.2291-0.15758-0.59881-0.15759-1.0558-0.48851-0.44123-0.33092-0.72488-0.83518-0.26789-0.52002-0.26789-1.2291h-1.4182q0 1.0243 0.36244 1.7807 0.3782 0.74064 1.0085 1.2291 0.64608 0.47275 1.4813 0.70912 0.85094 0.23638 1.7964 0.23638 0.77216 0 1.5443-0.1891 0.78791-0.17334 1.4182-0.5673 0.63032-0.40971 1.0243-1.04 0.40971-0.64608 0.40971-1.5443 0-0.83519-0.31516-1.3867-0.29941-0.55154-0.81943-0.91398-0.50426-0.36244-1.1504-0.56729-0.64608-0.22062-1.3237-0.3782-0.66184-0.15758-1.3079-0.28365-0.64608-0.14182-1.1661-0.34668-0.50427-0.20486-0.81943-0.52002-0.29941-0.33092-0.29941-0.85094 0-0.55154 0.20486-0.91398 0.22062-0.3782 0.5673-0.59881 0.36243-0.22061 0.81942-0.31516 0.45699-0.0945 0.92974-0.0945 1.1661 0 1.9067 0.55153 0.75639 0.53578 0.88246 1.7492z"/>
<path d="m217.81 166.35v9.9907h1.497v-9.9907h3.7504v-1.2607h-8.9979v1.2607z"/>
<path d="m224.85 165.09v11.251h1.497v-11.251z"/>
<path d="m229.33 165.09v11.251h1.4182v-9.0294h0.0315l5.8778 9.0294h1.6388v-11.251h-1.4182v9.124h-0.0315l-5.9251-9.124z"/>
<path d="m249.61 174.94 0.39395 1.4025h0.9455v-5.9251h-4.9323v1.2607h3.5929q0.0315 0.77215-0.20486 1.4498-0.23637 0.66185-0.70912 1.1661-0.45698 0.4885-1.1346 0.77215-0.6776 0.28365-1.5601 0.28365-0.94549 0-1.6704-0.36244-0.70912-0.3782-1.1976-0.99277-0.48851-0.63032-0.74064-1.434-0.25213-0.81943-0.25213-1.7019 0-0.89822 0.22062-1.7492 0.22061-0.8667 0.6776-1.5285 0.47275-0.67761 1.1976-1.0873 0.74064-0.40971 1.7649-0.40971 0.63033 0 1.1819 0.15758 0.56729 0.14182 1.0085 0.44123 0.44123 0.2994 0.74064 0.77215 0.2994 0.45699 0.40971 1.1031h1.497q-0.15758-0.99276-0.59881-1.6861-0.42547-0.70912-1.0716-1.1661-0.63033-0.45699-1.4498-0.66184-0.80366-0.22062-1.7176-0.22062-1.3394 0-2.348 0.50426-0.99277 0.48851-1.6704 1.3237-0.66184 0.83519-1.0085 1.954-0.33093 1.1031-0.33093 2.3322 0 1.1031 0.36244 2.1274t1.0558 1.8122 1.6861 1.2607q0.99277 0.45699 2.2534 0.45699 0.99277 0 1.9698-0.3782 0.977-0.39396 1.6388-1.2764z"/>
</g>
<path d="m240.83 161.84s6.5478-0.064 7.8796-0.5705c0.58705-0.22325 2.4391-2.8691 2.4391-2.8691" fill="#1a3668" stop-color="#000000"/>
</g>
</svg>
