<?xml version="1.0" encoding="utf-8"?>
<!-- Generator: Adobe Illustrator 24.3.0, SVG Export Plug-In . SVG Version: 6.00 Build 0)  -->
<svg version="1.1" id="Layer_1" xmlns="http://www.w3.org/2000/svg" xmlns:xlink="http://www.w3.org/1999/xlink" x="0px" y="0px"
	 viewBox="0 0 84.929 60" style="enable-background:new 0 0 84.929 60;" xml:space="preserve">
<style type="text/css">
	.st0{fill:none;}
	.st1{fill:#303c64;}
</style>
<rect class="st0" width="84.929" height="60"/>
<g>
	<path class="st1" d="M2.105,36.158c0.027-0.138,0.058-0.248,0.092-0.329c0.034-0.081,0.079-0.156,0.133-0.225
		c0.177-0.231,0.442-0.346,0.796-0.346c0.307,0,0.54,0.079,0.697,0.236c0.158,0.158,0.275,0.371,0.352,0.64h2.053
		c-0.146-0.876-0.5-1.541-1.061-1.995c-0.561-0.454-1.245-0.68-2.053-0.68c-0.469,0-0.89,0.077-1.263,0.231
		c-0.373,0.154-0.713,0.385-1.021,0.692c-0.361,0.362-0.59,0.78-0.686,1.257C0.048,36.116,0,36.781,0,37.634
		c0,0.853,0.048,1.519,0.144,1.995c0.096,0.477,0.325,0.896,0.686,1.257c0.307,0.308,0.647,0.538,1.021,0.692
		c0.373,0.154,0.794,0.231,1.263,0.231c0.808,0,1.492-0.227,2.053-0.68c0.561-0.454,0.915-1.119,1.061-1.995H4.175
		c-0.077,0.269-0.194,0.482-0.352,0.64c-0.157,0.158-0.39,0.236-0.697,0.236c-0.354,0-0.619-0.115-0.796-0.346
		c-0.054-0.069-0.098-0.144-0.133-0.225c-0.034-0.081-0.066-0.192-0.092-0.334c-0.027-0.142-0.048-0.333-0.063-0.571
		c-0.016-0.238-0.023-0.538-0.023-0.899s0.007-0.663,0.023-0.905C2.057,36.487,2.078,36.296,2.105,36.158z"/>
	<polygon class="st1" points="11.452,36.688 9.307,36.688 9.307,33.529 7.289,33.529 7.289,41.74 9.307,41.74 9.307,38.488 
		11.452,38.488 11.452,41.74 13.47,41.74 13.47,33.529 11.452,33.529 	"/>
	<path class="st1" d="M17.287,33.529L14.3,41.74h2.11l0.404-1.223h2.526l0.381,1.223h2.11l-2.987-8.211H17.287z M17.379,38.834
		l0.738-2.191l0.692,2.191H17.379z"/>
	<polygon class="st1" points="27.055,37.657 24.426,33.529 22.662,33.529 22.662,41.74 24.68,41.74 24.68,37.611 27.309,41.74 
		29.074,41.74 29.074,33.529 27.055,33.529 	"/>
	<polygon class="st1" points="35.128,37.657 32.499,33.529 30.734,33.529 30.734,41.74 32.753,41.74 32.753,37.611 35.382,41.74 
		37.147,41.74 37.147,33.529 35.128,33.529 	"/>
	<polygon class="st1" points="38.807,41.74 44.389,41.74 44.389,39.941 40.825,39.941 40.825,38.499 43.87,38.499 43.87,36.7 
		40.825,36.7 40.825,35.328 44.389,35.328 44.389,33.529 38.807,33.529 	"/>
	<polygon class="st1" points="47.837,33.529 45.819,33.529 45.819,41.74 51.285,41.74 51.285,39.941 47.837,39.941 	"/>
	<polygon class="st1" points="3.334,25.1 7.677,31.921 10.592,31.921 10.592,18.357 7.258,18.357 7.258,25.177 2.915,18.357 
		0,18.357 0,31.921 3.334,31.921 	"/>
	<polygon class="st1" points="13.336,31.921 22.556,31.921 22.556,28.949 16.67,28.949 16.67,26.568 21.699,26.568 21.699,23.595 
		16.67,23.595 16.67,21.328 22.556,21.328 22.556,18.357 13.336,18.357 	"/>
	<polygon class="st1" points="34.368,31.921 37.092,31.921 40.807,18.357 37.321,18.357 35.549,25.52 33.358,18.357 30.996,18.357 
		28.805,25.52 27.033,18.357 23.547,18.357 27.281,31.921 29.986,31.921 32.177,25.234 	"/>
	<path class="st1" d="M47.608,23.672l-0.896-0.134l-0.743-0.095c-0.407-0.051-0.718-0.184-0.934-0.4
		c-0.178-0.178-0.267-0.387-0.267-0.629c0-0.33,0.14-0.622,0.42-0.876c0.279-0.254,0.686-0.381,1.219-0.381
		c0.559,0,1.041,0.048,1.448,0.143c0.406,0.095,0.781,0.314,1.124,0.657l2.096-2.095c-0.571-0.572-1.229-0.984-1.972-1.238
		c-0.743-0.254-1.61-0.381-2.6-0.381c-1.512,0-2.715,0.4-3.611,1.2c-0.896,0.8-1.343,1.829-1.343,3.086
		c0,1.169,0.311,2.077,0.933,2.724c0.61,0.622,1.518,1.022,2.724,1.2l0.838,0.114l0.8,0.114c0.406,0.051,0.705,0.172,0.896,0.362
		c0.178,0.191,0.267,0.457,0.267,0.8c0,0.813-0.648,1.219-1.943,1.219c-0.609,0-1.185-0.076-1.724-0.229
		c-0.54-0.152-0.975-0.394-1.305-0.724l-2.134,2.134c0.648,0.673,1.388,1.14,2.22,1.4c0.831,0.26,1.807,0.391,2.924,0.391
		c0.724,0,1.403-0.095,2.039-0.286c0.635-0.191,1.193-0.467,1.676-0.829c0.483-0.362,0.858-0.81,1.124-1.343
		c0.267-0.533,0.4-1.137,0.4-1.81c0-1.321-0.336-2.312-1.01-2.972C49.691,24.212,48.802,23.837,47.608,23.672z"/>
	<path class="st1" d="M62.927,19.26c4.778-2.553,8.144-2.447,8.144-2.447h13.854l0.003-0.955H55.568v9.016
		c0,0,0.006-0.006,0.016-0.018C55.81,24.6,58.504,21.623,62.927,19.26z"/>
	<path class="st1" d="M84.928,34.604c-0.002,0.266-0.138,3.252-5.14,5.937c-5.044,2.708-10.857,2.775-10.857,2.775L55.567,43.3
		v0.843h29.361L84.928,34.604z"/>
	<path class="st1" d="M84.928,34.582v0.021C84.928,34.591,84.928,34.582,84.928,34.582z"/>
	<path class="st1" d="M83.526,20.439c0.176-1.119-0.321-2.191-1.298-2.796c-0.528-0.326-1.278-0.491-2.232-0.491
		c-0.549,0-1.147,0.056-1.777,0.166c-0.989,0.174-3.012,1.073-4.132,1.656c-2.158,1.109-5.166,3.64-5.656,4.135l-0.072,0.073
		l0.066,0.078c0.019,0.022,0.042,0.052,0.073,0.091c0.094,0.12,0.268,0.344,0.623,0.75l0.072,0.082l0.084-0.069l0.052-0.043
		c2.123-1.76,5.677-4.705,8.494-4.705c0.531,0,1.02,0.106,1.453,0.316c0.443,0.273,0.688,0.65,0.728,1.121
		c0.091,1.079-0.9,2.473-1.859,3.311c-0.95,0.827-3.223,2.555-4.966,3.712c-0.437,0.291-0.873,0.565-1.257,0.806
		c-0.89,0.559-1.533,0.963-1.677,1.24c-0.082,0.151-0.087,0.331-0.014,0.507c0.061,0.153,0.317,0.342,0.528,0.342
		c0.01,0,0.021,0,0.031-0.001c0.631-0.046,1.307-0.387,2.023-0.748c0.583-0.294,1.187-0.598,1.763-0.729
		c0.506-0.117,0.977-0.176,1.402-0.176c0.79,0,1.435,0.205,1.917,0.608c0.584,0.538,0.855,1.216,0.8,2.012
		c-0.14,2.027-2.319,4.416-4.285,5.778c-2.501,1.814-6.49,3.287-10.672,3.941l-0.077,0.012l-0.016,0.076
		c-0.084,0.41-0.2,1.041-0.215,1.141l-0.022,0.149l0.149-0.022c3.559-0.53,6.538-1.256,8.855-2.156
		c3.788-1.513,7.168-3.849,9.274-6.409c1.056-1.391,1.978-3.537,1.662-5.202c-0.162-0.853-0.626-1.518-1.38-1.976
		c-0.585-0.357-1.447-0.538-2.562-0.538c-0.751,0-1.489,0.081-2.093,0.174c1.745-1.033,3.341-2.149,4.346-3.043
		C82.566,22.798,83.368,21.435,83.526,20.439z"/>
	<path class="st1" d="M62.832,28.095c-1.743,0-3.16,1.417-3.16,3.159c0,1.743,1.418,3.16,3.16,3.16c1.743,0,3.16-1.418,3.16-3.16
		C65.993,29.512,64.575,28.095,62.832,28.095z"/>
	<path class="st1" d="M68.049,34.255c0.506-0.898,0.774-1.919,0.774-2.955c0-3.321-2.702-6.023-6.023-6.023
		c-3.321,0-6.023,2.702-6.023,6.023c0,1.409,0.497,2.779,1.398,3.858c1.148,1.376,2.834,2.165,4.625,2.165
		C64.97,37.323,66.981,36.147,68.049,34.255z M62.667,34.712c-2.371,0-4.421-1.254-5.496-3.356c1.221-2.212,3.329-3.531,5.65-3.531
		c2.297,0,4.385,1.294,5.596,3.464C67.295,33.402,65.098,34.712,62.667,34.712z"/>
</g>
</svg>
