<svg xmlns="http://www.w3.org/2000/svg" viewBox="0 0 962 755"><defs><style>.cls-1{fill:#3b93cd;}.cls-2{fill:#636566;}.cls-3{fill:#b3b4b7;}.cls-4{fill:#9fcfee;}.cls-5{fill:#fff;}.cls-6{fill:#231f20;}</style></defs><title>my-9-logo</title><g id="shape"><path class="cls-1" d="M153,5.51A147.61,147.61,0,0,0,5.34,153.12V380.51H480.19V5.51Z" transform="translate(-5.34 -5.51)"/><path class="cls-2" d="M819.72,5.51H490.83v375H967.34V153.12A147.62,147.62,0,0,0,819.72,5.51Z" transform="translate(-5.34 -5.51)"/><path class="cls-3" d="M5.34,388.51V612.89A147.61,147.61,0,0,0,153,760.51H480.19v-372Z" transform="translate(-5.34 -5.51)"/><path class="cls-4" d="M490.83,388.51v372H819.72A147.62,147.62,0,0,0,967.34,612.89V388.51Z" transform="translate(-5.34 -5.51)"/></g><g id="type"><path class="cls-5" d="M33.92,380.51V147.65H88.46v25.94s18.62-31.93,60.52-31.93,60.52,20,60.52,20,10,11.31,12.64,15.3,6.65,12,6.65,12,17.82-43.22,65.06-47.68c37.36-3.53,61.3,15.09,61.3,15.09s21.29,15.3,29.27,42.57,5.32,32.59,5.32,32.59V380.51H335.87l1.33-125.78s2.21-57.72-48.55-58.53c-55.65-.89-48.56,81.14-48.56,81.14V380.51H185.56V270.69s9.31-73.16-44.56-74.49c-53.07-1.31-51.21,64.52-51.21,64.52V380.51Z" transform="translate(-5.34 -5.51)"/><polygon class="cls-5" points="367.78 141.48 426.3 141.48 481 303.09 546.02 141.48 603.22 141.48 477.51 450.07 420.32 450.07 452.91 368.27 367.78 141.48"/><path class="cls-6" d="M705.65,653.11S660,656.44,634.58,641.5c-21.83-12.83-67.93-45.81-67.93-113.42,0-80.48,65.18-139.57,151.64-139.57s142.33,67.07,142.33,133.58-47.89,125.7-47.89,125.7L735.58,760.51H623.85Zm9-177.13c-28.26,0-51.17,21.49-51.17,48s22.91,48,51.17,48,51.17-21.49,51.17-48S742.89,476,714.63,476Z" transform="translate(-5.34 -5.51)"/></g></svg>