<?xml version="1.0" encoding="UTF-8" standalone="no"?>
<!-- Created with Inkscape (http://www.inkscape.org/) -->

<svg
   xmlns:dc="http://purl.org/dc/elements/1.1/"
   xmlns:cc="http://creativecommons.org/ns#"
   xmlns:rdf="http://www.w3.org/1999/02/22-rdf-syntax-ns#"
   xmlns:svg="http://www.w3.org/2000/svg"
   xmlns="http://www.w3.org/2000/svg"
   xmlns:sodipodi="http://sodipodi.sourceforge.net/DTD/sodipodi-0.dtd"
   xmlns:inkscape="http://www.inkscape.org/namespaces/inkscape"
   width="221.75609"
   height="193.55133"
   id="svg2"
   version="1.1"
   inkscape:version="0.48.2 r9819"
   sodipodi:docname="New document 1">
  <defs
     id="defs4">
    <clipPath
       id="clipPath3477"
       clipPathUnits="userSpaceOnUse">
      <path
         inkscape:connector-curvature="0"
         id="path3479"
         d="m 818.122,89.585 c 0,0 -6.389,0 -6.389,-6.388 l 0,0 0,-18.454 c 0,0 0,-6.388 6.389,-6.388 l 0,0 28.007,0 c 0,0 6.387,0 6.387,6.388 l 0,0 0,18.454 c 0,0 0,6.388 -6.387,6.388 l 0,0 -28.007,0 z" />
    </clipPath>
    <clipPath
       id="clipPath3465"
       clipPathUnits="userSpaceOnUse">
      <path
         inkscape:connector-curvature="0"
         id="path3467"
         d="m 818.802,61.397 27.667,0 0,24.148 -27.667,0 0,-24.148 z" />
    </clipPath>
    <clipPath
       id="clipPath3417"
       clipPathUnits="userSpaceOnUse">
      <path
         inkscape:connector-curvature="0"
         id="path3419"
         d="m 818.122,89.585 c 0,0 -6.389,0 -6.389,-6.388 l 0,0 0,-18.454 c 0,0 0,-6.388 6.389,-6.388 l 0,0 28.007,0 c 0,0 6.387,0 6.387,6.388 l 0,0 0,18.454 c 0,0 0,6.388 -6.387,6.388 l 0,0 -28.007,0 z" />
    </clipPath>
  </defs>
  <sodipodi:namedview
     id="base"
     pagecolor="#ffffff"
     bordercolor="#666666"
     borderopacity="1.0"
     inkscape:pageopacity="0.0"
     inkscape:pageshadow="2"
     inkscape:zoom="1.01"
     inkscape:cx="102.37021"
     inkscape:cy="104.20138"
     inkscape:document-units="px"
     inkscape:current-layer="layer1"
     showgrid="false"
     fit-margin-top="0"
     fit-margin-left="0"
     fit-margin-right="0"
     fit-margin-bottom="0"
     inkscape:window-width="475"
     inkscape:window-height="458"
     inkscape:window-x="66"
     inkscape:window-y="66"
     inkscape:window-maximized="0" />
  <metadata
     id="metadata7">
    <rdf:RDF>
      <cc:Work
         rdf:about="">
        <dc:format>image/svg+xml</dc:format>
        <dc:type
           rdf:resource="http://purl.org/dc/dcmitype/StillImage" />
        <dc:title></dc:title>
      </cc:Work>
    </rdf:RDF>
  </metadata>
  <g
     inkscape:label="Layer 1"
     inkscape:groupmode="layer"
     id="layer1"
     transform="translate(-272.62979,-443.01223)">
    <g
       id="g3413"
       transform="matrix(8.0152127,0,0,-8.0152127,-6290.2424,1128.6736)">
      <g
         clip-path="url(#clipPath3417)"
         id="g3415">
        <g
           transform="translate(820.2921,61.429398)"
           id="g3421">
          <path
             id="path3423"
             style="fill:#231f20;fill-opacity:1;fill-rule:nonzero;stroke:none"
             d="m 0,0 -0.838,2.627 0.798,0 0.542,-1.868 0.672,1.868 0.737,0 0.637,-1.868 0.578,1.868 0.799,0 L 3.046,0 2.143,0 1.536,1.81 0.918,0 0,0 z"
             inkscape:connector-curvature="0" />
        </g>
        <g
           transform="translate(825.5791,62.762604)"
           id="g3425">
          <path
             id="path3427"
             style="fill:#231f20;fill-opacity:1;fill-rule:nonzero;stroke:none"
             d="m 0,0 -1.196,1.294 1.001,0 0.816,-0.922 0.824,0.922 0.969,0 L 1.254,0 l 1.261,-1.333 -1.034,0 -0.86,0.921 -0.87,-0.921 -1.045,0 L 0,0 z"
             inkscape:connector-curvature="0" />
        </g>
        <g
           transform="translate(829.0079,62.244003)"
           id="g3429">
          <path
             id="path3431"
             style="fill:#231f20;fill-opacity:1;fill-rule:nonzero;stroke:none"
             d="M 0,0 0,-0.047 C 0,-0.264 0.098,-0.24 0.376,-0.24 l 1.008,0 c 0.191,0 0.275,0.058 0.275,0.217 0,0.191 -0.127,0.22 -0.387,0.227 l -1.261,0.04 c -0.611,0.018 -0.806,0.181 -0.806,0.784 0,0.285 0.051,0.481 0.184,0.614 0.192,0.185 0.481,0.203 0.904,0.203 l 1.225,0 C 2.114,1.845 2.374,1.646 2.374,1.14 2.374,1.097 2.37,1.121 2.367,1.07 l -0.774,0 0,0.011 c 0,0.173 -0.086,0.186 -0.263,0.186 l -0.925,0 c -0.25,0 -0.38,-0.022 -0.38,-0.206 0,-0.163 0.094,-0.21 0.315,-0.217 L 1.659,0.811 c 0.603,-0.014 0.82,-0.238 0.82,-0.852 0,-0.333 -0.061,-0.528 -0.296,-0.68 C 2.02,-0.825 1.752,-0.847 1.369,-0.847 l -1.069,0 c -0.813,0 -1.102,0.123 -1.102,0.697 0,0.029 0.004,0.042 0.011,0.15 L 0,0"
             inkscape:connector-curvature="0" />
        </g>
        <g
           transform="translate(832.7626,63.4021)"
           id="g3433">
          <path
             id="path3435"
             style="fill:#231f20;fill-opacity:1;fill-rule:nonzero;stroke:none"
             d="m 0,0 0,-0.665 1.182,0 c 0.223,0 0.288,0.101 0.288,0.358 C 1.47,-0.097 1.387,0 1.182,0 L 0,0 z M 1.908,0.546 C 2.19,0.397 2.287,0.123 2.287,-0.332 c 0,-0.705 -0.206,-0.987 -0.788,-0.987 l -1.499,0 0,-0.654 -0.806,0 0,2.627 2.016,0 c 0.307,0 0.531,-0.022 0.698,-0.108"
             inkscape:connector-curvature="0" />
        </g>
        <g
           transform="translate(838.1534,61.429398)"
           id="g3437">
          <path
             id="path3439"
             style="fill:#231f20;fill-opacity:1;fill-rule:nonzero;stroke:none"
             d="m 0,0 0,1.984 -1.098,0 0,0.643 2.999,0 0,-0.643 -1.099,0 L 0.802,0 0,0 z"
             inkscape:connector-curvature="0" />
        </g>
        <g
           transform="translate(843.0856,64.056198)"
           id="g3441">
          <path
             id="path3443"
             style="fill:#231f20;fill-opacity:1;fill-rule:nonzero;stroke:none"
             d="m 0,0 0.853,0 -1.402,-2.627 -0.972,0 L -2.909,0 -2.034,0 -1.048,-1.886 0,0 z"
             inkscape:connector-curvature="0" />
        </g>
        <g
           transform="translate(839.8221,85.517593)"
           id="g3445">
          <path
             id="path3447"
             style="fill:#4a5153;fill-opacity:1;fill-rule:nonzero;stroke:none"
             d="m 0,0 -2.553,0 -1.663,0 -4.096,0 0,-3.686 0,-2.458 0,-3.687 4.096,0 4.216,0 4.095,0 0,3.687 0,1.621 0,0.837 C 4.095,-1.651 2.262,0 0,0"
             inkscape:connector-curvature="0" />
        </g>
        <g
           transform="translate(839.8221,65.636795)"
           id="g3449">
          <path
             id="path3451"
             style="fill:#9cdaf6;fill-opacity:1;fill-rule:nonzero;stroke:none"
             d="m 0,0 -2.553,0 -1.663,0 -4.096,0 0,3.686 0,2.458 0,3.687 4.096,0 4.216,0 4.095,0 0,-3.687 0,-1.622 0,-0.836 C 4.095,1.65 2.262,0 0,0"
             inkscape:connector-curvature="0" />
        </g>
        <g
           transform="translate(822.92461,65.636795)"
           id="g3453">
          <path
             id="path3455"
             style="fill:#a8adb4;fill-opacity:1;fill-rule:nonzero;stroke:none"
             d="m 0,0 2.856,0 1.39,0 4.096,0 0,3.686 0,2.458 0,3.687 -4.096,0 -4.246,0 -4.095,0 0,-3.687 0,-1.622 0,-0.836 C -4.095,1.65 -2.262,0 0,0"
             inkscape:connector-curvature="0" />
        </g>
        <g
           transform="translate(822.92461,85.517593)"
           id="g3457">
          <path
             id="path3459"
             style="fill:#1ea1e3;fill-opacity:1;fill-rule:nonzero;stroke:none"
             d="m 0,0 2.856,0 1.39,0 4.096,0 0,-3.686 0,-2.458 0,-3.687 -4.096,0 -4.246,0 -4.095,0 0,3.687 0,1.621 0,0.837 C -4.095,-1.651 -2.262,0 0,0"
             inkscape:connector-curvature="0" />
        </g>
      </g>
    </g>
    <g
       id="g3461"
       transform="matrix(8.0152127,0,0,-8.0152127,-6290.2424,1128.6736)">
      <g
         clip-path="url(#clipPath3465)"
         id="g3463">
        <g
           transform="translate(822.92461,85.517593)"
           id="g3469">
          <path
             id="path3471"
             style="fill:none;stroke:#1ea1e3;stroke-width:0.055;stroke-linecap:butt;stroke-linejoin:miter;stroke-miterlimit:4;stroke-opacity:1;stroke-dasharray:none"
             d="m 0,0 2.856,0 1.39,0 4.096,0 0,-3.686 0,-2.458 0,-3.687 -4.096,0 -4.246,0 -4.095,0 0,3.687 0,1.621 0,0.837 C -4.095,-1.651 -2.262,0 0,0 z"
             inkscape:connector-curvature="0" />
        </g>
      </g>
    </g>
    <g
       id="g3473"
       transform="matrix(8.0152127,0,0,-8.0152127,-6290.2424,1128.6736)">
      <g
         clip-path="url(#clipPath3477)"
         id="g3475">
        <g
           transform="translate(836.3759,76.086807)"
           id="g3481">
          <path
             id="path3483"
             style="fill:#231f20;fill-opacity:1;fill-rule:nonzero;stroke:none"
             d="M 0,0 1.744,-2.318 4.702,0 l 5.391,0 -6.482,-4.636 4.517,-5.801 -4.651,0 -2.72,3.735 -4.861,-3.763 -5.598,0.018 8.521,6.05 L -4.915,0 0,0 z"
             inkscape:connector-curvature="0" />
        </g>
        <g
           transform="translate(835.2104,76.307205)"
           id="g3485">
          <path
             id="path3487"
             style="fill:#cc2f2c;fill-opacity:1;fill-rule:nonzero;stroke:none"
             d="M 0,0 1.744,-2.318 4.703,0 l 5.391,0 -6.483,-4.636 4.207,-5.35 -4.65,0 -2.411,3.284 -4.053,-3.284 -5.444,0 7.56,5.589 L -4.915,0 0,0 z"
             inkscape:connector-curvature="0" />
        </g>
        <g
           transform="translate(835.2104,76.307205)"
           id="g3489">
          <path
             id="path3491"
             style="fill:none;stroke:#ee5d27;stroke-width:0.53299999;stroke-linecap:butt;stroke-linejoin:miter;stroke-miterlimit:4;stroke-opacity:1;stroke-dasharray:none"
             d="M 0,0 1.744,-2.318 4.703,0 l 5.391,0 -6.483,-4.636 4.207,-5.35 -4.65,0 -2.411,3.284 -4.053,-3.284 -5.444,0 7.56,5.589 L -4.915,0 0,0 z"
             inkscape:connector-curvature="0" />
        </g>
        <g
           transform="translate(819.6499,78.533096)"
           id="g3493">
          <path
             id="path3495"
             style="fill:#ffffff;fill-opacity:1;fill-rule:nonzero;stroke:none"
             d="m 0,0 -0.443,0 0,0.826 0.443,0 0,1.254 0.901,0 0,-1.254 0.541,0 0,-0.826 -0.541,0 0,-2.929 L 0,-2.929 0,0 z"
             inkscape:connector-curvature="0" />
        </g>
        <g
           transform="translate(821.7149,80.613297)"
           id="g3497">
          <path
             id="path3499"
             style="fill:#ffffff;fill-opacity:1;fill-rule:nonzero;stroke:none"
             d="m 0,0 0.901,0 0,-1.509 c 0.286,0.262 0.593,0.382 0.992,0.382 0.435,0 0.931,-0.27 1.178,-0.645 0.188,-0.271 0.256,-0.579 0.256,-1.119 l 0,-2.118 -0.901,0 0,1.915 c 0,0.788 -0.241,1.141 -0.766,1.141 -0.511,0 -0.759,-0.368 -0.759,-1.149 l 0,-1.907 L 0,-5.009 0,0"
             inkscape:connector-curvature="0" />
        </g>
        <g
           transform="translate(826.57381,77.812103)"
           id="g3501">
          <path
             id="path3503"
             style="fill:#ffffff;fill-opacity:1;fill-rule:nonzero;stroke:none"
             d="M 0,0 C 0.12,0.526 0.548,0.871 1.066,0.871 1.584,0.871 1.99,0.533 2.117,0 L 0,0 z m 2.996,-0.27 c 0,1.066 -0.879,1.967 -1.93,1.967 -1.096,0 -1.99,-0.901 -1.99,-1.997 0,-1.149 0.864,-2.036 1.975,-2.036 0.826,0 1.577,0.549 1.81,1.315 l -0.991,0 C 1.667,-1.352 1.397,-1.509 1.029,-1.509 c -0.458,0 -0.886,0.33 -0.999,0.781 l 2.914,0 c 0.037,0.21 0.052,0.315 0.052,0.458"
             inkscape:connector-curvature="0" />
        </g>
      </g>
    </g>
  </g>
</svg>
