<svg width="144" height="22" viewBox="0 0 144 22" fill="none" xmlns="http://www.w3.org/2000/svg">
<g clip-path="url(#clip0_6421_16556)">
<path fill-rule="evenodd" clip-rule="evenodd" d="M56.5885 0.916016V2.01169V21.6039H57.6868V0.916016H56.5885Z" fill="#6D6D6D"/>
<path fill-rule="evenodd" clip-rule="evenodd" d="M90.0865 10.3817H87.5394V2.2315V0.915039H90.0865V10.3817Z" fill="#6D6D6D"/>
<path fill-rule="evenodd" clip-rule="evenodd" d="M106.427 10.3817H103.88V2.2315V0.915039H106.427V10.3817Z" fill="#6D6D6D"/>
<path fill-rule="evenodd" clip-rule="evenodd" d="M120.659 10.3817H118.112V2.2315V0.915039H120.659V10.3817Z" fill="#6D6D6D"/>
<path fill-rule="evenodd" clip-rule="evenodd" d="M78.5044 10.382V5.14761C78.5044 3.84804 79.4853 3.07332 80.5898 3.07332C81.7642 3.07332 82.6895 3.97611 82.6895 5.14761V10.382H85.232V5.24425C85.232 2.84429 83.5585 0.72168 80.6458 0.72168C77.5152 0.72168 75.9525 2.83093 75.9525 5.24425V10.382H78.5044Z" fill="#6D6D6D"/>
<path fill-rule="evenodd" clip-rule="evenodd" d="M136.968 10.382V5.14761C136.968 3.84804 137.951 3.07332 139.053 3.07332C140.228 3.07332 141.153 3.97611 141.153 5.14761V10.382H143.695V5.24425C143.695 2.84429 142.022 0.72168 139.109 0.72168C135.979 0.72168 134.416 2.83093 134.416 5.24425V10.382H136.968Z" fill="#6D6D6D"/>
<path fill-rule="evenodd" clip-rule="evenodd" d="M96.9796 6.6971L99.5823 0.916992H102.231L97.864 10.3825H96.1039L91.7352 0.916992H94.3769L96.9796 6.6971Z" fill="#6D6D6D"/>
<path fill-rule="evenodd" clip-rule="evenodd" d="M109.704 7.4971C110.35 8.08088 111.35 8.43288 112.305 8.43288C112.991 8.43288 113.52 8.10052 113.52 7.6342C113.52 6.21049 108.92 6.71806 108.92 3.66831C108.92 1.85135 110.683 0.720703 112.561 0.720703C113.797 0.720703 115.144 1.18702 115.772 1.67495L114.581 3.51156C114.09 3.16113 113.444 2.86963 112.757 2.86963C112.057 2.86963 111.466 3.13874 111.466 3.62745C111.466 4.85827 116.067 4.36838 116.067 7.65345C116.067 9.4661 114.288 10.5806 112.29 10.5806C110.978 10.5806 109.586 10.1288 108.475 9.30935L109.704 7.4971Z" fill="#6D6D6D"/>
<path fill-rule="evenodd" clip-rule="evenodd" d="M127.544 8.23547C129.033 8.23547 130.048 7.08125 130.048 5.66029C130.048 4.23579 129.033 3.06429 127.544 3.06429C126.059 3.06429 125.035 4.23579 125.035 5.66029C125.035 7.08125 126.059 8.23547 127.544 8.23547ZM127.544 0.72168C130.422 0.72168 132.59 2.92718 132.59 5.66029C132.59 8.39536 130.422 10.5816 127.544 10.5816C124.666 10.5816 122.485 8.39536 122.485 5.66029C122.485 2.92718 124.666 0.72168 127.544 0.72168Z" fill="#6D6D6D"/>
<path fill-rule="evenodd" clip-rule="evenodd" d="M71.3235 0.916016V6.15516C71.3235 7.45041 70.332 8.22944 69.2247 8.22944C68.0543 8.22944 67.1281 7.31998 67.1281 6.15516V0.916016H64.5826V6.05655C64.5826 8.44984 66.2548 10.5811 69.1683 10.5811C72.3001 10.5811 73.8648 8.47144 73.8648 6.05655V0.916016H71.3235Z" fill="#6D6D6D"/>
<path fill-rule="evenodd" clip-rule="evenodd" d="M21.0247 11.1048V10.9492C20.5393 11.3539 19.1393 11.8461 17.4785 12.1596C16.8017 12.2759 16.0914 12.369 15.3642 12.4421C12.4795 12.6986 9.07352 12.613 8.46332 12.613C8.46332 12.6841 8.46371 12.7528 8.46371 12.8208C8.46489 13.306 8.4712 13.7232 8.48262 14.1942C8.48617 14.3203 8.48971 14.4496 8.49326 14.5851C8.51059 15.1783 8.53738 15.766 8.5748 16.3361C8.65556 17.5461 8.78831 18.6791 8.99867 19.6247C9.23385 20.6826 9.56712 21.5065 10.0335 21.9429C10.041 21.9496 10.0485 21.9579 10.056 21.9649C10.2073 21.9704 10.3593 21.974 10.5122 21.974C14.0757 21.974 17.2248 20.2061 19.1263 17.5013C19.8118 16.5262 20.3349 15.251 20.6563 13.9188C20.8959 13.0255 21.0243 12.0865 21.0243 11.1181L21.0227 11.1185C21.0231 11.1142 21.0231 11.1103 21.0231 11.106L21.0247 11.1048Z" fill="#1717EF"/>
<path fill-rule="evenodd" clip-rule="evenodd" d="M8.44031 0.393555V5.08073V12.613C9.04884 12.613 12.4451 12.6986 15.3224 12.4429C16.0472 12.369 16.7559 12.2763 17.4308 12.1596C19.0871 11.8461 20.4829 11.3539 20.9673 10.9492V1.61063C19.7059 0.67484 14.3956 0.393555 8.44031 0.393555Z" fill="#00C56E"/>
<path fill-rule="evenodd" clip-rule="evenodd" d="M10.0334 21.9428C9.56695 21.5064 9.23407 20.6825 8.9985 19.625C8.78814 18.679 8.65538 17.5464 8.57502 16.3364C8.5372 15.7659 8.51081 15.1782 8.49348 14.585C8.48954 14.4495 8.48599 14.3202 8.48245 14.1941C8.47102 13.7231 8.46511 13.3059 8.46393 12.8207C8.46393 12.7527 8.46354 12.684 8.46354 12.6129C5.69458 12.6129 3.29631 12.405 2.14918 12.1968C0.941773 11.978 0.138543 11.5356 -0.00012207 11.3125C-0.00012207 12.3438 0.149179 13.518 0.427296 14.4589C0.754654 15.5668 1.26007 16.598 1.91124 17.5196C3.732 20.0984 6.68887 21.821 10.0562 21.9648C10.0483 21.9578 10.0412 21.9499 10.0334 21.9428Z" fill="#FF161F"/>
<path fill-rule="evenodd" clip-rule="evenodd" d="M0.408964 1.11719C0.18324 1.11719 6.10352e-05 1.29987 6.10352e-05 1.52497V11.3134C0.138332 11.5362 0.941956 11.9785 2.14936 12.1977C2.3353 12.2311 2.55433 12.2649 2.80211 12.2979C4.08358 12.4676 6.14345 12.6138 8.46333 12.6138V5.08112C5.84525 1.71865 1.79482 1.11719 0.408964 1.11719Z" fill="#E621BB"/>
<path fill-rule="evenodd" clip-rule="evenodd" d="M66.2863 16.7671V21.6495H65.3337V15H66.0003L70.0011 19.8828V15H70.9536V21.6495H70.2867L66.2863 16.7671Z" fill="black"/>
<path fill-rule="evenodd" clip-rule="evenodd" d="M73.267 20.8705C72.8384 20.4049 72.5714 19.7874 72.5714 18.8948V15H73.5243V18.9423C73.5243 19.5689 73.6767 19.9586 73.9434 20.2533C74.2767 20.6234 74.7719 20.8422 75.334 20.8422C75.8962 20.8422 76.3917 20.6234 76.7246 20.2533C76.9913 19.9586 77.1441 19.5689 77.1441 18.9423V15H78.0967V18.8948C78.0967 19.7874 77.8296 20.4049 77.401 20.8705C76.8964 21.4118 76.153 21.7446 75.334 21.7446C74.515 21.7446 73.7717 21.4118 73.267 20.8705Z" fill="black"/>
<path fill-rule="evenodd" clip-rule="evenodd" d="M82.8576 17.6125V18.5145H80.667V20.7471H83.6199V21.6491H79.7144V15H83.5246V15.902H80.667V17.6125H82.8576Z" fill="black"/>
<path fill-rule="evenodd" clip-rule="evenodd" d="M87.3817 21.6495H86.7148L84.0951 15H85.0862L87.048 20.016L89.0106 15H90.0009L87.3817 21.6495Z" fill="black"/>
<path fill-rule="evenodd" clip-rule="evenodd" d="M91.6388 19.037H93.6963L92.6674 16.5675L91.6388 19.037ZM94.0674 19.9398H91.2575L90.5626 21.6491H89.5718L92.3341 15H93.0006L95.7633 21.6491H94.7726L94.0674 19.9398Z" fill="black"/>
<path fill-rule="evenodd" clip-rule="evenodd" d="M101.239 18.6096V21.6491H100.286V18.6096L98.0001 15H99.0669L100.763 17.6691L102.458 15H103.525L101.239 18.6096Z" fill="black"/>
<path fill-rule="evenodd" clip-rule="evenodd" d="M106.906 20.8425C108.268 20.8425 109.287 19.7692 109.287 18.3251C109.287 16.8908 108.268 15.8081 106.906 15.8081C105.543 15.8081 104.524 16.8908 104.524 18.3251C104.524 19.7692 105.543 20.8425 106.906 20.8425ZM106.906 14.9053C108.792 14.9053 110.24 16.3875 110.24 18.3251C110.24 20.2627 108.792 21.7449 106.906 21.7449C105.02 21.7449 103.572 20.2627 103.572 18.3251C103.572 16.3875 105.02 14.9053 106.906 14.9053Z" fill="black"/>
<path fill-rule="evenodd" clip-rule="evenodd" d="M113.715 17.6125C114.144 17.6125 114.363 17.5174 114.515 17.365C114.668 17.213 114.763 16.9945 114.763 16.7573C114.763 16.5196 114.668 16.3015 114.515 16.1491C114.363 15.9975 114.144 15.902 113.715 15.902H112.381V17.6125H113.715ZM112.381 18.5145V21.6491H111.429V15H113.763C114.372 15 114.754 15.1422 115.058 15.3893C115.458 15.7123 115.715 16.2065 115.715 16.7573C115.715 17.3084 115.458 17.8023 115.058 18.1252C114.849 18.2957 114.61 18.4198 114.277 18.4768L116.668 21.6491H115.515L113.144 18.5145H112.381Z" fill="black"/>
<path fill-rule="evenodd" clip-rule="evenodd" d="M117.524 15H118.477V17.8026L121.22 15H122.477L119.468 18.0871L122.668 21.6495H121.449L118.477 18.3247V21.6495H117.524V15Z" fill="black"/>
<path fill-rule="evenodd" clip-rule="evenodd" d="M33.0547 13.1991V8.33745L29.161 13.1991H33.0547ZM37.0681 0.749023V13.1991H40.4862V16.7564H37.0681V21.4993H33.0547V16.7564H23.3942V14.3851L34.2439 0.749023H37.0681Z" fill="#6D6D6D"/>
<path fill-rule="evenodd" clip-rule="evenodd" d="M40.9326 3.71215L45.9859 0.748047H48.8097V21.4984H44.797V5.37237L40.9326 7.50637V3.71215Z" fill="#6D6D6D"/>
</g>
<defs>
<clipPath id="clip0_6421_16556">
<rect width="143.786" height="22" fill="white"/>
</clipPath>
</defs>
</svg>
