<?xml version="1.0" encoding="UTF-8" standalone="no"?>
<svg
   width="452.79575mm"
   height="122.15961mm"
   version="1.1"
   viewBox="0 0 452.79574 122.15961"
   id="svg41"
   sodipodi:docname="WZDX_2021_logo.svg"
   inkscape:version="1.1 (c68e22c387, 2021-05-23)"
   xmlns:inkscape="http://www.inkscape.org/namespaces/inkscape"
   xmlns:sodipodi="http://sodipodi.sourceforge.net/DTD/sodipodi-0.dtd"
   xmlns="http://www.w3.org/2000/svg"
   xmlns:svg="http://www.w3.org/2000/svg">
  <defs
     id="defs45" />
  <sodipodi:namedview
     id="namedview43"
     pagecolor="#505050"
     bordercolor="#eeeeee"
     borderopacity="1"
     inkscape:pageshadow="0"
     inkscape:pageopacity="0"
     inkscape:pagecheckerboard="0"
     inkscape:document-units="mm"
     showgrid="false"
     inkscape:zoom="0.5"
     inkscape:cx="549"
     inkscape:cy="109"
     inkscape:window-width="1366"
     inkscape:window-height="715"
     inkscape:window-x="-8"
     inkscape:window-y="-8"
     inkscape:window-maximized="1"
     inkscape:current-layer="svg41"
     inkscape:snap-bbox="true"
     inkscape:bbox-paths="true"
     inkscape:bbox-nodes="true"
     inkscape:snap-bbox-midpoints="true"
     inkscape:snap-bbox-edge-midpoints="true"
     inkscape:snap-page="true"
     inkscape:object-paths="true"
     inkscape:snap-intersection-paths="true"
     inkscape:snap-smooth-nodes="true"
     inkscape:snap-midpoints="true" />
  <style
     id="style31">tspan { white-space:pre }
		.shp0 { fill: #000000 }</style>
  <g
     id="g10298"
     style="fill:#295fb5;fill-opacity:1;stroke:none"
     transform="matrix(5.4964956,0,0,5.4964956,256.17524,0)">
    <path
       id="path29"
       style="fill:#295fb5;fill-opacity:1;stroke:none;stroke-width:5.71669"
       d="M 22.785156,0 0,39.839844 28.152344,84 H 135.20117 V 0 Z m 5.917969,4.5566406 H 75.458984 V 19.888672 H 46.318359 v 15.222656 c 2.718395,-3.370812 7.61072,-5.763672 13.15625,-5.763672 11.199795,0 20.333985,8.699531 20.333985,23.705078 0,15.11429 -10.438907,25.335938 -27.292969,25.335938 -11.417265,0 -20.007169,-3.91523 -25.878906,-11.091797 L 36.966797,55.771484 c 3.914493,4.566906 9.242858,7.06836 15.005859,7.06836 6.524153,0 9.894532,-4.242291 9.894532,-9.244141 -10e-7,-5.545531 -3.15298,-9.132812 -9.242188,-9.132812 -4.675642,0 -8.155251,1.739165 -11.308594,5.544921 L 28.703125,46.962891 Z m 69.791016,0 H 121.00195 V 47.833984 h 7.06836 v 15.332032 h -7.06836 V 77.083984 H 103.38672 V 63.166016 H 81.779297 c 1.184947,-3.028292 1.808594,-6.42469 1.808594,-10.113282 0,-6.103429 -1.511984,-11.163849 -4.058594,-15.019531 z M 103.38672,22.0625 89.25,47.833984 h 14.13672 z"
       transform="scale(0.26458333)" />
    <path
       d="m -40.336718,6.0734479 v 2.888862 h 6.106043 v 6.0405791 h -6.106043 v 7.156373 h -6.270294 V 0 h 13.328517 l 0.426833,6.0732658 z"
       id="path176"
       style="fill:#295fb5;fill-opacity:1;stroke:none;stroke-width:0.091048" />
    <path
       d="m -14.950533,3.4063788 c 2.080174,2.1233304 3.120852,4.6865137 3.120852,7.6890032 0,3.024251 -1.040769,5.597905 -3.120852,7.721508 -2.080538,2.12324 -4.589821,3.184859 -7.528031,3.184859 -2.959788,0 -5.48027,-1.061619 -7.560352,-3.184859 -2.080629,-2.123512 -3.120671,-4.697257 -3.120671,-7.721508 0,-3.0025805 1.040042,-5.5656728 3.120671,-7.6890032 2.080082,-2.1233304 4.600564,-3.18504111 7.560352,-3.18504111 2.938119,0 5.447493,1.06171071 7.528031,3.18504111 z m -9.329688,12.1285042 c 0,0.493753 0.182005,0.922498 0.546925,1.286963 0.364374,0.364921 0.804318,0.547017 1.319012,0.547017 0.514786,0 0.949085,-0.182096 1.302988,-0.547017 0.353995,-0.364465 0.530901,-0.79321 0.530901,-1.286963 V 6.5590069 c 0,-0.5146944 -0.176906,-0.954092 -0.530901,-1.3190124 -0.353812,-0.3643741 -0.788111,-0.5469253 -1.302988,-0.5469253 -0.514694,0 -0.954547,0.1825512 -1.319012,0.5469253 -0.365012,0.3649204 -0.546925,0.804318 -0.546925,1.3190124 z"
       id="path178"
       style="fill:#295fb5;fill-opacity:1;stroke:none;stroke-width:0.091048" />
    <path
       d="m -2.0472103,22.224999 -3.1513534,-5.613838 -3.0530215,5.613838 H -15.145558 L -8.5798133,10.734741 -14.784461,1.82096e-4 h 7.091 L -5.0999587,4.7931309 -2.4737702,1.82096e-4 H 4.3872429 L -1.6860229,10.669187 5.0110127,22.224999 Z"
       id="path180"
       style="fill:#295fb5;fill-opacity:1;stroke:none;stroke-width:0.091048" />
  </g>
</svg>
