<svg width="208" height="26" viewBox="0 0 208 26" fill="none" xmlns="http://www.w3.org/2000/svg">
<path d="M47.1182 15.6338L46.8466 17.9549H36.591L36.8585 15.6338H32.0969L31.1874 24.1815C31.1874 24.1815 31.0393 24.8811 31.3356 25.2309C31.6195 25.5684 32.2451 25.5396 32.2451 25.5396H50.8015L51.8839 15.6338H47.1223H47.1182ZM46.3075 22.9181H36.0601L36.307 20.6052H46.575L46.3075 22.9181Z" fill="black"/>
<path d="M53.0359 4.97333L53.4885 0.713867H48.7229L47.2578 14.3812H52.0152L52.719 7.89528L56.5422 7.90762L56.8632 4.97333H53.0359Z" fill="black"/>
<path d="M40.2437 2.03302L40.4535 0H35.6961L35.4821 2.03302H29.1526L28.8398 4.97143H30.6342C29.8399 5.92621 29.3172 7.03325 29.1897 8.22261C28.8152 11.7742 32.0951 14.6509 36.511 14.6509C40.9268 14.6509 44.7912 11.7742 45.1616 8.22261C45.285 7.03325 45.0052 5.93855 44.4208 4.98378L46.1493 4.992L46.4497 2.0824L46.4579 2.03713H40.2478L40.2437 2.03302ZM36.832 11.4614C35.0006 11.4614 33.6755 9.95109 33.8689 8.09503C34.0582 6.22663 35.7044 4.7245 37.5481 4.7245C39.3918 4.7245 40.7087 6.23075 40.5276 8.09503C40.3301 9.95109 38.6798 11.4614 36.8361 11.4614H36.832Z" fill="black"/>
<path d="M60.1373 9.56706L61.0427 1.13867H65.7919L65.0634 7.94969H82.0354L81.6938 11.1309H61.1291C61.1291 11.1309 60.5818 11.1433 60.2566 10.8305C59.9356 10.5013 60.1455 9.56294 60.1455 9.56294L60.1373 9.56706Z" fill="black"/>
<path d="M58.0148 13.9756L57.6855 17.2062H62.5829L61.6363 25.6428H66.3938L67.3403 17.2062H73.1307L72.1883 25.6428H76.9375L77.8922 17.2062H82.592L82.9377 13.9756H58.0148Z" fill="black"/>
<path d="M13.8098 12.5903H19.6043L18.9746 18.4713H23.7279L25.6498 0.725586H20.8965L20.5961 3.50761H14.8098C13.4065 1.84086 11.2706 0.853163 8.77663 0.853163C4.17971 0.853163 0.46761 4.02204 0.0437221 7.95226C-0.400743 11.8825 2.58293 15.0637 7.19631 15.0637C9.72729 15.0719 12.106 14.1089 13.8057 12.5945L13.8098 12.5903ZM16.1309 6.42545H20.2792L19.9253 9.68897H15.8387C16.4231 7.98107 16.1309 6.42545 16.1309 6.42545ZM4.47602 8.09631C4.69003 6.21967 6.37323 4.57351 8.5832 4.57351C10.7932 4.57351 12.2706 6.21967 12.0607 8.10042C11.855 9.96882 9.89191 11.4956 7.69839 11.4956C5.48842 11.4874 4.27025 9.96882 4.47602 8.09631Z" fill="black"/>
<path d="M8.52642 22.6244L9.12316 16.6611H4.37809L3.61673 24.1965C3.61673 24.1965 3.46858 24.8549 3.86778 25.2459C4.24639 25.6327 4.86371 25.5381 4.86371 25.5381H23.4078L23.7329 22.6244H8.52642Z" fill="black"/>
<path d="M110.509 23.3082L110.801 20.1641H84.9937L84.6562 23.3082H110.509Z" fill="black"/>
<path d="M96.8287 0.753906C96.8287 0.753906 95.0673 11.1865 86.5772 11.7421L86.2109 15.0221C86.2109 15.0221 95.8575 15.0303 99.0181 7.39207C99.0181 7.39207 101.738 14.4171 110.426 15.1867L110.735 12.0219C110.735 12.0219 103.179 11.5281 102.236 0.753906H96.8328H96.8287Z" fill="black"/>
<path d="M203.325 0.844727L196.617 18.22L193.942 0.844727H193.296H189.139H170.842L170.373 4.90253H178.324L176.159 23.7347H180.678L182.851 4.90253H189.962L193.782 23.7347H198.029L208 0.844727H203.325Z" fill="black"/>
<path d="M137.243 13.9578H132.515L132.766 10.9165H126.922L127.21 8.21264H133.054L133.313 5.74751H128C126.082 9.63246 119.58 12.3157 114.156 13.9989L114.547 10.6695C119.259 9.08922 124.766 6.82163 124.63 3.5581H115.695L115.991 0.397461H127.07C128.618 0.397461 129.288 1.06004 129.091 2.38521C129.05 2.59921 129.004 2.81733 128.963 3.04779H133.601L133.922 0.710231H138.651L137.248 13.9578H137.243Z" fill="black"/>
<path d="M134.819 15.9011C133.433 14.8393 131.469 14.3125 128.926 14.3125C126.383 14.3125 124.309 14.8352 122.712 15.8805C121.115 16.9258 120.222 18.2798 120.029 19.9424C119.839 21.5886 120.424 22.9343 121.782 23.9796C123.14 25.0249 125.091 25.5435 127.634 25.5435C130.177 25.5435 132.264 25.0126 133.893 23.9549C135.461 22.9261 136.338 21.5886 136.527 19.9424C136.717 18.2798 136.149 16.934 134.819 15.9052V15.9011ZM131.918 19.9383C131.823 20.7696 131.408 21.4569 130.671 21.9919C129.934 22.531 129.029 22.7985 127.951 22.7985C126.873 22.7985 126.025 22.531 125.399 21.9919C124.778 21.4528 124.51 20.7696 124.609 19.9383C124.704 19.107 125.124 18.4197 125.873 17.8723C126.622 17.325 127.531 17.0534 128.609 17.0534C129.688 17.0534 130.531 17.325 131.144 17.8723C131.758 18.4197 132.017 19.107 131.922 19.9383H131.918Z" fill="black"/>
<path d="M159.98 25.2492H155.959L157.486 10.8082H153.26L153.556 8.0262H157.783L158.552 0.766602H162.573L159.98 25.2492Z" fill="black"/>
<path d="M165.733 25.5414H161.564L164.186 0.766602H168.355L165.733 25.5414Z" fill="black"/>
<path d="M155.391 3.54862L155.687 0.766602H141.312L141.016 3.54862H146.403L146.296 4.55691C145.954 7.78751 145.337 10.3061 144.44 12.1087C143.469 14.0676 142.213 15.4998 139.649 16.4834L139.246 20.2984C140.826 19.8045 143.3 18.2242 144.543 17.1707C145.44 16.4093 146.432 15.2035 147.086 14.1417C147.518 15.2035 148.255 16.4093 148.987 17.1707C150.008 18.2242 152.148 19.8004 153.621 20.2984L154.025 16.4834C151.666 15.4957 150.716 14.0676 150.16 12.1087C149.646 10.3061 149.559 7.79163 149.901 4.55691L150.008 3.54862H155.395H155.391Z" fill="black"/>
</svg>
