<?xml version="1.0" encoding="utf-8"?>
<!-- Generator: Adobe Illustrator 15.0.0, SVG Export Plug-In . SVG Version: 6.00 Build 0)  -->
<!DOCTYPE svg PUBLIC "-//W3C//DTD SVG 1.1//EN" "http://www.w3.org/Graphics/SVG/1.1/DTD/svg11.dtd">
<svg version="1.1" id="Layer_1" xmlns="http://www.w3.org/2000/svg" xmlns:xlink="http://www.w3.org/1999/xlink" x="0px" y="0px"
	 width="63px" height="80px" viewBox="0 0 63 80" enable-background="new 0 0 63 80" xml:space="preserve">
<path fill="#0A69B1" d="M0,62.893h62.894V0H0V62.893z M33.925,22.256L19.336,40.474l14.589-0.012v5.755l-23.159,0.02v-5.135
	l14.987-18.746l-14.98,0.013l-0.006-5.713l23.159-0.02V22.256z M45.738,46.208l-0.021-23.953l-5.628,0.005l-0.006-5.628
	l11.977-0.011l0.026,29.582L45.738,46.208z"/>
<polygon fill="#0568B2" points="4.464,73.925 4.464,79.93 2.802,79.93 2.802,73.925 0.694,73.925 0.694,72.487 6.572,72.487 
	6.572,73.925 "/>
<polygon fill="#0568B2" points="13.15,72.487 13.15,73.967 9.446,73.967 9.446,75.501 12.779,75.501 12.779,76.916 9.446,76.916 
	9.446,78.46 13.268,78.46 13.268,79.93 7.785,79.93 7.785,72.487 "/>
<polygon fill="#0568B2" points="14.748,79.93 14.748,72.487 16.408,72.487 16.408,78.449 19.582,78.449 19.582,79.93 "/>
<polygon fill="#0568B2" points="26.161,72.487 26.161,73.967 22.456,73.967 22.456,75.501 25.788,75.501 25.788,76.916 
	22.456,76.916 22.456,78.46 26.278,78.46 26.278,79.93 20.795,79.93 20.795,72.487 "/>
<polygon fill="#0568B2" points="30.504,77.226 32.399,72.487 34.198,72.487 31.208,79.93 29.802,79.93 26.81,72.487 28.61,72.487 
	"/>
<rect x="35.082" y="72.487" fill="#0568B2" width="1.661" height="7.442"/>
<polygon fill="#0568B2" points="38.148,79.93 38.148,78.791 42.045,73.925 38.276,73.925 38.276,72.487 44.313,72.487 
	44.313,73.638 40.427,78.481 44.377,78.481 44.377,79.93 "/>
<rect x="45.825" y="72.487" fill="#0568B2" width="1.66" height="7.442"/>
<path fill="#0568B2" d="M49.594,73.914v-1.427h3.875v4.855c0,0.887-0.229,1.551-0.688,1.991c-0.457,0.438-1.044,0.659-1.762,0.659
	c-0.895,0-1.675-0.344-2.342-1.032l0.862-1.192c0.447,0.482,0.916,0.723,1.405,0.723c0.234,0,0.435-0.089,0.602-0.271
	c0.167-0.181,0.251-0.452,0.251-0.814v-3.492H49.594z"/>
<path fill="#0568B2" d="M60.432,79.93l-0.692-1.608h-3.12l-0.691,1.608H54.16l3.216-7.442h1.607l3.216,7.442H60.432z M58.185,74.702
	l-0.937,2.161h1.863L58.185,74.702z"/>
</svg>
