<?xml version="1.0" encoding="utf-8"?>
<!-- Generator: Adobe Illustrator 18.1.1, SVG Export Plug-In . SVG Version: 6.00 Build 0)  -->
<svg version="1.1" id="Layer_1" xmlns="http://www.w3.org/2000/svg" xmlns:xlink="http://www.w3.org/1999/xlink" x="0px" y="0px"
	 viewBox="0 0 141.7 52.7" enable-background="new 0 0 141.7 52.7" xml:space="preserve">
<g>
	<g>
		<path fill="#603913" d="M78.8,52.5h3V50h-1.6V31.1h-8.4v3.1c0,6.3-0.3,12.1-2.6,15.8H68v2.5h3H78.8z M74.7,34.8v-1.2h2.5V50h-4.6
			C74.7,46.5,74.7,40.8,74.7,34.8z"/>
		<path fill="#603913" d="M4.6,52.7c-2.7,0-4.6-1.2-4.6-3.8v-2.1h3v1.3c0,1.4,0.5,2.3,1.7,2.3c1.6,0,1.9-1.1,1.9-2.5v-2.5
			c0-2-0.4-2.6-2.5-2.6H3.1v-2.5h0.9c1.8,0,2.2-0.8,2.2-3.2v-1.5c0-1.7-0.6-2.3-1.8-2.3c-1.2,0-1.7,0.7-1.7,1.9v1.3H0.1v-1.6
			c0-2.6,1.4-3.9,4.3-3.9c3.2,0,4.9,1.5,4.9,5c0,4.1-0.7,5.1-2.8,5.5v0.1c1.8,0.3,3,0.5,3,5.9C9.5,51.5,8.1,52.7,4.6,52.7z"/>
		<path fill="#603913" d="M15,31.1h3.4l4.4,21.4h-3l-1-5.5h-4.6l-1,5.5h-3L15,31.1z M14.7,44.5h3.8l-1.8-10.3h-0.1L14.7,44.5z"/>
		<path fill="#603913" d="M24.2,31.1h8.1v2.5h-5.1v18.9h-3V31.1z"/>
		<path fill="#603913" d="M33.5,36.5c0-3,1-5.6,5-5.6c3.8,0,5,2,5,5.3V47c0,3-1,5.6-5,5.6c-3.8,0-5-2-5-5.3V36.5z M36.4,47.5
			c0,1.8,0.8,2.8,2,2.8c1.2,0,2.1-1,2.1-2.8V36.3c0-2.1-0.7-3.1-2.1-3.1c-1.3,0-2,1-2,3.1V47.5z"/>
		<path fill="#603913" d="M45.6,31.1h4.9c4,0,4.8,1.1,4.8,6.1s-0.8,6.1-4.8,6.1h-1.9v9.3h-3V31.1z M48.6,40.7h1.5
			c2,0,2.2-0.3,2.2-3.6c0-3.2-0.2-3.6-2.2-3.6h-1.5V40.7z"/>
		<path fill="#603913" d="M57.1,36.5c0-3,1-5.6,5-5.6c3.8,0,5,2,5,5.3V47c0,3-1,5.6-5,5.6c-3.8,0-5-2-5-5.3V36.5z M60.1,47.5
			c0,1.8,0.8,2.8,2,2.8c1.2,0,2.1-1,2.1-2.8V36.3c0-2.1-0.7-3.1-2.1-3.1c-1.3,0-2,1-2,3.1V47.5z"/>
		<path fill="#603913" d="M83,31.1h3v9.2h3.9v-9.2h3v21.4h-3v-9.7H86v9.7h-3V31.1z"/>
		<path fill="#603913" d="M99.6,52.5h-4.5V31.1h3v8.8h1.8c4.3,0,4.7,1.6,4.7,6.5C104.5,51.1,103.9,52.5,99.6,52.5z M98,50h1.5
			c1.7,0,2-0.5,2-3.9c0-3.2-0.3-3.7-1.9-3.7H98V50z M109,31.1v21.4h-3V31.1H109z"/>
		<polygon fill="#603913" points="118.2,52.5 118.2,36.8 118.2,36.8 114.6,52.5 111.1,52.5 111.1,31.1 113.9,31.1 113.9,46.7 
			113.9,46.7 117.5,31.1 121.1,31.1 121.1,52.5 		"/>
	</g>
	<g>
		<path fill="#E6AC23" d="M121.8,24.9c1.2,0.9,2.4,1.5,3.6,2.1c2.6,1.1,5.3,1.6,8.2,1.1c2.6-0.5,5-1.5,6.8-3.6c2-2.3,1.7-5.2-0.8-7
			c-1.6-1.1-3.4-1.6-5.3-1.9c-3.2-0.4-6.3-0.1-9.5,0.5c-0.2,0-0.5,0.1-0.7,0.1c0.2-0.4,0.4-0.8,0.6-1.2c0.9-2,1.6-4.1,1.8-6.3
			c0.2-2-0.2-4-1.2-5.7c-1.3-2-3.3-3.3-5.9-2.8c-1.6,0.3-2.8,1.2-3.9,2.4c-1.7,1.8-2.4,4.1-2.6,6.4c-0.5,4.8,0.7,9.2,3.1,13.3
			c1.9,3.2,4.5,5.9,7.4,8.2c2.2,1.7,4.5,3.2,7,4.3c0.6,0.3,1.3,0.5,2,0.6c-0.6-0.4-1.2-0.7-1.8-1.1c-2-1.3-3.9-2.8-5.6-4.4
			c-1.6-1.5-3.2-3.1-4.5-4.8c-2.7-3.6-4.7-7.5-5.1-12.1c-0.2-2.1,0-4.1,1-6c0.6-1.2,1.4-2.2,2.7-2.8c1.5-0.7,3.3-0.2,4.1,1.2
			c0.9,1.7,1,3.5,0.7,5.3c-0.3,2.4-1,4.7-2,6.9c0,0.1-0.1,0.2,0,0.3c1.1-0.3,2.2-0.4,3.4-0.6c2.2-0.3,4.5-0.4,6.7-0.2
			c2,0.2,3.9,0.7,5.6,1.8c1.8,1.3,2,3.3,0.4,5c-1.5,1.6-3.4,2.4-5.5,2.7c-2.8,0.4-5.5,0-8.2-0.8C123.4,25.5,122.6,25.2,121.8,24.9z"
			/>
		<polygon fill="#E6AC23" points="112.3,23.2 108.8,23.6 116.7,29.2 		"/>
	</g>
</g>
</svg>
