<svg xmlns="http://www.w3.org/2000/svg" xmlns:xlink="http://www.w3.org/1999/xlink" viewBox="0 0 3737.15 976.95"><defs><style>.cls-1{fill:url(#linear-gradient)}.cls-2{fill:url(#linear-gradient-2)}.cls-3,.cls-4{fill:#fff}.cls-4{fill-rule:evenodd}</style><linearGradient id="linear-gradient" x1="691.71" y1="490.85" x2="1816.72" y2="490.85" gradientUnits="userSpaceOnUse"><stop offset="0" stop-color="#fff" stop-opacity="0"></stop><stop offset="0.09" stop-color="#e7e7e8" stop-opacity="0.19"></stop><stop offset="0.24" stop-color="#c2c3c5" stop-opacity="0.48"></stop><stop offset="0.39" stop-color="#a5a7a9" stop-opacity="0.71"></stop><stop offset="0.54" stop-color="#919295" stop-opacity="0.87"></stop><stop offset="0.68" stop-color="#848689" stop-opacity="0.97"></stop><stop offset="0.81" stop-color="#808285"></stop></linearGradient><linearGradient id="linear-gradient-2" x1="52.23" y1="490.85" x2="1071.68" y2="490.85" gradientUnits="userSpaceOnUse"><stop offset="0" stop-color="#f47a20"></stop><stop offset="1" stop-color="#f57e20"></stop></linearGradient></defs><g id="BG"><path id="GREY" class="cls-1" d="M1071.69,72.09S990.92,579.68,756.57,814C698.52,872,629.85,885.48,577.17,895.7,504.88,909.62,347,909.62,347,909.62H2907s157.85,0,230.14-13.92c52.69-10.22,121.42-23.68,179.47-81.74,234.28-234.28,315.12-741.87,315.12-741.87Z"></path></g><g id="OBG"><path id="OBG_S" data-name="OBG S" class="cls-2" d="M777,72.08S619.1,72.08,546.81,86c-52.68,10.23-121.41,23.69-179.47,81.74C133.06,402,52.23,909.62,52.23,909.62H347s157.85,0,230.14-13.92C629.78,885.48,698.51,872,756.57,814,990.85,579.68,1071.68,72.08,1071.68,72.08Z"></path></g><g id="Z"><g id="Z-2" data-name="Z"><rect class="cls-3" x="3180.25" y="225.91" width="76.11" height="79.46"></rect><path class="cls-3" d="M3180.92,657.73c0,33.52-14.12,48.47-45.79,48.47h-30.68v69.41h33.36c37.54,0,66.68-10.34,86.6-30.75s29.93-50.11,29.93-88.47V350.7h-73.42Z"></path></g></g><g id="GR"><g id="GR-2" data-name="GR"><path class="cls-3" d="M2789.8,409c-23-20.59-52.93-31-88.9-31h-41.18l108.7-127.44,1.06-1.46L2714.23,203a15.65,15.65,0,0,0-2.37,2.31L2565.14,378.07a57.89,57.89,0,0,0-4.09,4.88,18.61,18.61,0,0,0-4.16,11.62v52.8h123.22c46.33,0,67.92,18.81,67.92,59.2v15.25a169.61,169.61,0,0,1-1.85,27.32c-1.12,6.07-3.17,10.89-6.14,14.39-2.84,3.3-7.33,5.81-13.13,7.32-6.87,1.85-16.31,2.78-28,2.78H2396.31c-16.5,0-29.63-3.3-39.07-9.9-8.58-5.94-12.74-14.85-12.74-27.2V351.6H2271v307c0,33.53-14.12,48.45-45.8,48.45h-30.69v69.43H2228c37.55,0,66.66-10.36,86.59-30.76s30-50.09,30-88.44V631.44c12.28,7.72,27.39,11.55,45.08,11.55h330.13c17.76,0,33.2-1.91,46-5.67a72.83,72.83,0,0,0,33.8-20.93c8.71-9.76,15.18-22.77,19.33-38.8,4-15.45,5.94-34.85,5.94-57.82V505.91C2824.78,462.48,2813,429.88,2789.8,409Z"></path><rect class="cls-3" x="2469.18" y="200.41" width="220.25" height="73.42" transform="translate(702.5 2022.24) rotate(-48.82)"></rect></g></g><g id="A"><rect id="A-2" data-name="A" class="cls-3" x="2927.91" y="220.4" width="73.42" height="469.2"></rect></g><g id="O"><path id="O-2" data-name="O" class="cls-3" d="M1956.11,339.52a147.71,147.71,0,0,0-53.38,9.63,122.14,122.14,0,0,0-44.33,29.55c-12.65,13.12-22.65,29.95-29.74,50-7,19.83-10.55,43.24-10.55,69.59s3.08,48.87,9.16,67.09c6.24,18.73,15.57,34,27.74,45.45a108.26,108.26,0,0,0,44,24.77c16.57,4.9,35.33,7.39,55.75,7.39H2018v8.9c0,11.4-1.4,20.88-4.14,28.16-2.6,6.86-6.16,12.23-10.58,15.94a42.26,42.26,0,0,1-16.49,8.35,89,89,0,0,1-22.63,2.73h-95.74v69.4h98.42c18.19,0,35.07-2.39,50.17-7.1a102.43,102.43,0,0,0,39.84-22.69c11-10.23,19.59-23.51,25.64-39.45,5.93-15.68,8.94-34.75,8.94-56.68V494.29c0-53.46-12.1-93-36-117.63S1998.11,339.52,1956.11,339.52ZM2018,494.29v79.33h-59.21c-22.67,0-39.76-5.31-50.8-15.77s-16.45-30.37-16.45-59.53c0-27.54,6-49.78,17.82-66.09,11.37-15.68,26.66-23.3,46.75-23.3,22.18,0,37.51,6.86,46.87,21C2013,445,2018,466.63,2018,494.29Z"></path></g><g id="S"><path id="S-2" data-name="S" class="cls-3" d="M1715,351.6V550c0,31-6.87,54.51-20.27,69.69-13.72,15.45-36.16,23.3-66.79,23.3h-32.21c-15.64,0-29.63-3.23-41.58-9.7a65.89,65.89,0,0,1-20.72-17.62c-14.32,18.15-37.69,27.32-69.83,27.32h-32.21q-26.73,0-45.34-11.68c-1.91,43.43-16.37,78.41-43,103.88-28.58,27.39-70,41.32-123,41.32-24.95,0-47.85-3.43-68.11-10.16-20.46-6.87-38.22-17-52.67-30.3a138.87,138.87,0,0,1-34-49c-8-19.07-12.08-41.25-12.08-66a232.59,232.59,0,0,1,13.6-79c8.91-24.88,19.47-46.14,31.35-63.16a15.08,15.08,0,0,1,1.71-2.25l63.16,34.65a15.1,15.1,0,0,1-2.11,4.95c-7.79,12.08-15.31,27.19-22.5,45a145.26,145.26,0,0,0-10.43,54.45c0,17.82,3,32.67,8.78,44.09s13.39,20.59,22.57,27.12a91.66,91.66,0,0,0,30.69,14.46,135.26,135.26,0,0,0,33.39,4.42c26.47,0,48.38-6.8,65.08-20.26,16.1-12.94,24.29-34.85,24.29-65.08V409.29h73.46v130c0,11.48,4.09,19.4,12.8,25,9.7,6.21,22.84,9.38,39,9.38h15.44c8.78,0,15-1.79,18.41-5.22,2-2,5.22-7.39,5.22-21.78V409.29h73.46v130c0,11.48,4.09,19.4,12.8,25,9.7,6.21,22.84,9.38,39,9.38h15.44c8.78,0,15-1.79,18.41-5.22,2-2,5.22-7.39,5.22-21.78v-195Z"></path></g><g id="Z-3" data-name="Z"><path id="Z-4" data-name="Z" class="cls-4" d="M373.14,219.23,362.39,321.52H635.22L267.33,757.22H744.8l9.55-90.93H470.15L843,219.23H373.14Z"></path></g></svg>