<?xml version="1.0" encoding="UTF-8" standalone="no"?>
<!-- Generator: Adobe Illustrator 29.5.1, SVG Export Plug-In . SVG Version: 9.03 Build 0)  -->

<svg
   version="1.1"
   id="Layer_1"
   x="0px"
   y="0px"
   viewBox="0 0 776.40002 330"
   xml:space="preserve"
   width="776.40002"
   height="330"
   xmlns="http://www.w3.org/2000/svg"
   xmlns:svg="http://www.w3.org/2000/svg"><defs
   id="defs37" />
<style
   type="text/css"
   id="style2">
	.st0{fill:#D70647;}
	.st1{fill:url(#SVGID_1_);}
	.st2{fill:url(#SVGID_00000022560157952581136100000017663306084084575620_);}
	.st3{fill:url(#SVGID_00000178172926502621092680000018110947551520608941_);}
	.st4{fill:url(#SVGID_00000108310255680732424180000016761720729455614630_);}
</style>
<path
   class="st0"
   d="M 242.1,0 H 6.3 V 11.5 H 168.1 L 0,330 H 235.8 V 318.5 H 74 Z"
   id="path4" />
<linearGradient
   id="SVGID_1_"
   gradientUnits="userSpaceOnUse"
   x1="573.8493"
   y1="13915.159"
   x2="284.24939"
   y2="13566.959"
   gradientTransform="matrix(1,0,0,-1,-6.5,13821.4)">
	<stop
   offset="0"
   style="stop-color:#611AE6"
   id="stop6" />
	<stop
   offset="1"
   style="stop-color:#E60333"
   id="stop8" />
</linearGradient>
<path
   class="st1"
   d="M 439.5,82.1 V 97.8 H 409.7 V 248 H 391.1 V 161.7 H 354.3 V 179 c 0,14.9 -3.5,26.4 -10.5,34.5 -7,7.9 -17,11.9 -30,11.9 -13,0 -22.4,-3.6 -30,-10.8 -7.6,-7.3 -11.4,-17 -11.4,-28.9 0,-11.9 4,-22 12.1,-28.9 8.2,-7 18.7,-10.5 31.4,-10.5 H 337 v -21.1 c 0,-9.1 -1.7,-16.2 -5.2,-21.3 -3.3,-5.1 -8.4,-7.6 -15.5,-7.6 -7.1,0 -11.1,2.1 -15,6.3 -3.7,4.2 -5.6,9.9 -5.6,17.3 0,7.4 0.3,5.7 0.9,8.5 H 278 c -0.6,-3.9 -0.9,-6.9 -0.9,-9.2 0,-11.8 3.4,-21.2 10.1,-28.2 6.9,-7.2 16.4,-10.8 28.5,-10.8 12.1,0 23.2,4.3 29.4,12.8 6.3,8.5 9.4,20.2 9.4,35.2 v 18.1 h 36.8 V 82.2 h 48.4 -0.2 z m -102.6,79.5 h -20.6 c -7.9,0 -14.3,2.2 -19.3,6.5 -4.8,4.2 -7.2,10 -7.2,17.5 0,7.5 2.2,12.9 6.7,17.3 4.5,4.3 10.2,6.5 17,6.5 6.8,0 13,-2.6 17,-7.8 4.2,-5.2 6.3,-12.5 6.3,-21.7 v -18.3 z"
   id="path11"
   style="fill:url(#SVGID_1_)" />
<linearGradient
   id="SVGID_00000149374644314976926220000015562128067261603769_"
   gradientUnits="userSpaceOnUse"
   x1="631.78583"
   y1="13867.012"
   x2="342.08578"
   y2="13518.812"
   gradientTransform="matrix(1,0,0,-1,-6.5,13821.4)">
	<stop
   offset="0"
   style="stop-color:#611AE6"
   id="stop13" />
	<stop
   offset="1"
   style="stop-color:#E60333"
   id="stop15" />
</linearGradient>
<path
   style="fill:url(#SVGID_00000149374644314976926220000015562128067261603769_)"
   d="M 455.5,247.9 V 97.7 H 425.9 V 82 h 77.8 v 15.7 h -29.4 v 150.2 z"
   id="path18" />
<linearGradient
   id="SVGID_00000062178530650406731790000007353348298852552606_"
   gradientUnits="userSpaceOnUse"
   x1="682.52789"
   y1="13824.677"
   x2="392.9278"
   y2="13476.576"
   gradientTransform="matrix(1,0,0,-1,-6.5,13821.4)">
	<stop
   offset="0"
   style="stop-color:#611AE6"
   id="stop20" />
	<stop
   offset="1"
   style="stop-color:#E60333"
   id="stop22" />
</linearGradient>
<path
   style="fill:url(#SVGID_00000062178530650406731790000007353348298852552606_)"
   d="m 533.3,171.9 v 30.7 c 0,9.4 2.2,17 6.5,22.6 4.3,5.7 10.7,8.5 19.1,8.5 8.4,0 14.1,-2.6 18.6,-7.8 4.6,-5.4 6.9,-12.4 6.9,-21.1 v -4.3 h 17.9 v 3.8 c 0,13.9 -3.9,24.9 -11.7,33.2 -7.6,8.2 -18.1,12.3 -31.4,12.3 -13.3,0 -25.5,-4.4 -33.2,-13.2 -7.5,-8.8 -11.2,-20.5 -11.2,-35.2 v -44.8 h 23.5 c 25.5,0 38.3,-12.5 38.3,-37.4 V 97.7 H 490.1 V 82 h 132 v 15.7 h -26.9 v 21.5 c 0,17 -4.2,30.1 -12.5,39.2 -8.4,9 -21.1,13.4 -38.1,13.4 h -11.4 0.1 z"
   id="path25" />
<linearGradient
   id="SVGID_00000124845605796841737260000011261943851069289402_"
   gradientUnits="userSpaceOnUse"
   x1="766.32312"
   y1="13754.98"
   x2="476.72321"
   y2="13406.78"
   gradientTransform="matrix(1,0,0,-1,-6.5,13821.4)">
	<stop
   offset="0"
   style="stop-color:#611AE6"
   id="stop27" />
	<stop
   offset="1"
   style="stop-color:#E60333"
   id="stop29" />
</linearGradient>
<path
   style="fill:url(#SVGID_00000124845605796841737260000011261943851069289402_)"
   d="M 776.3,97.8 H 746.7 V 248 h -18.8 v -95.5 h -32.7 c -14.3,0 -25.6,3.4 -33.8,10.1 -8.1,6.7 -12.1,16.7 -12.1,29.8 0,13.1 3.6,22.6 10.8,29.6 7.2,7 17.6,10.5 31.2,10.5 h 4.9 v 15 h -7.4 c -17.8,0 -32,-4.7 -42.6,-14.1 -10.5,-9.6 -15.7,-23.3 -15.7,-41.2 0,-17.9 5.7,-32.6 17.3,-41.9 11.7,-9.3 27.2,-13.9 46.6,-13.9 H 728 V 97.9 H 608.8 V 82.2 h 167.6 v 15.7 z"
   id="path32" />
</svg>
