<?xml version="1.0" encoding="UTF-8" standalone="no"?>
<!-- Generator: Adobe Illustrator 29.5.1, SVG Export Plug-In . SVG Version: 9.03 Build 0)  -->

<svg
   version="1.1"
   id="Layer_1"
   x="0px"
   y="0px"
   viewBox="0 0 282.75201 112.477"
   xml:space="preserve"
   width="282.75201"
   height="112.477"
   xmlns:xlink="http://www.w3.org/1999/xlink"
   xmlns="http://www.w3.org/2000/svg"
   xmlns:svg="http://www.w3.org/2000/svg"><defs
   id="defs37"><linearGradient
     xlink:href="#linearGradient284"
     id="linearGradient1526"
     gradientUnits="userSpaceOnUse"
     gradientTransform="matrix(602.28378,-222.91274,240.89633,557.32161,304.69481,-145.124)"
     x1="0"
     y1="0"
     x2="1"
     y2="0"
     spreadMethod="pad" /><linearGradient
     x1="0"
     y1="0"
     x2="1"
     y2="0"
     gradientUnits="userSpaceOnUse"
     gradientTransform="matrix(142.46829,56.98325,56.98325,-142.46829,1154.5247,721.37915)"
     spreadMethod="pad"
     id="linearGradient284"><stop
       style="stop-opacity:1;stop-color:#e5c317"
       offset="0"
       id="stop280" /><stop
       style="stop-opacity:1;stop-color:#e54017"
       offset="1"
       id="stop282" /></linearGradient><linearGradient
     xlink:href="#linearGradient284"
     id="linearGradient552"
     gradientUnits="userSpaceOnUse"
     gradientTransform="matrix(602.28378,-222.91274,240.89633,557.32161,304.57423,-145.12786)"
     x1="0"
     y1="0"
     x2="1"
     y2="0"
     spreadMethod="pad" /><linearGradient
     xlink:href="#linearGradient284"
     id="linearGradient1702"
     gradientUnits="userSpaceOnUse"
     gradientTransform="matrix(602.28378,-222.91274,240.89633,557.32161,304.69481,-145.124)"
     x1="0"
     y1="0"
     x2="1"
     y2="0"
     spreadMethod="pad" /><linearGradient
     xlink:href="#linearGradient284"
     id="linearGradient1704"
     gradientUnits="userSpaceOnUse"
     gradientTransform="matrix(602.28378,-222.91274,240.89633,557.32161,304.69481,-145.124)"
     x1="0"
     y1="0"
     x2="1"
     y2="0"
     spreadMethod="pad" /><linearGradient
     xlink:href="#linearGradient284"
     id="linearGradient1706"
     gradientUnits="userSpaceOnUse"
     gradientTransform="matrix(602.28378,-222.91274,240.89633,557.32161,304.69481,-145.124)"
     x1="0"
     y1="0"
     x2="1"
     y2="0"
     spreadMethod="pad" /></defs>
<style
   type="text/css"
   id="style2">
	.st0{fill:#E3272E;}
	.st1{fill:url(#SVGID_1_);}
	.st2{fill:url(#SVGID_00000101064276224455693800000013901155553847801239_);}
	.st3{fill:url(#SVGID_00000064355260565138308940000011819211064005797788_);}
	.st4{fill:url(#SVGID_00000153685372234423293650000014243866903701033145_);}
</style>

<linearGradient
   id="SVGID_1_"
   gradientUnits="userSpaceOnUse"
   x1="561.36139"
   y1="13964.826"
   x2="286.76141"
   y2="13557.927"
   gradientTransform="matrix(1,0,0,-1,-10.2,13811.2)">
	<stop
   offset="0"
   style="stop-color:#801016"
   id="stop6" />
	<stop
   offset="1"
   style="stop-color:#E6272E"
   id="stop8" />
</linearGradient>

<linearGradient
   id="SVGID_00000152985474784666611250000013525941027327479729_"
   gradientUnits="userSpaceOnUse"
   x1="663.57397"
   y1="13895.817"
   x2="388.974"
   y2="13488.918"
   gradientTransform="matrix(1,0,0,-1,-10.2,13811.2)">
	<stop
   offset="0"
   style="stop-color:#801016"
   id="stop13" />
	<stop
   offset="1"
   style="stop-color:#E6272E"
   id="stop15" />
</linearGradient>

<linearGradient
   id="SVGID_00000060031807501839444750000015881340949419520416_"
   gradientUnits="userSpaceOnUse"
   x1="769.65332"
   y1="13824.231"
   x2="494.95331"
   y2="13417.432"
   gradientTransform="matrix(1,0,0,-1,-10.2,13811.2)">
	<stop
   offset="0"
   style="stop-color:#801016"
   id="stop20" />
	<stop
   offset="1"
   style="stop-color:#E6272E"
   id="stop22" />
</linearGradient>

<linearGradient
   id="SVGID_00000062897212640262084870000014713350243266092939_"
   gradientUnits="userSpaceOnUse"
   x1="908.27008"
   y1="13730.62"
   x2="633.57013"
   y2="13323.82"
   gradientTransform="matrix(1,0,0,-1,-10.2,13811.2)">
	<stop
   offset="0"
   style="stop-color:#801016"
   id="stop27" />
	<stop
   offset="1"
   style="stop-color:#E6272E"
   id="stop29" />
</linearGradient>

<path
   d="M 82.525254,0 H 63.326601 2.161328 V 2.6066624 3.9093203 H 57.305277 L 0,112.477 h 19.198643 61.165288 v -2.60667 -1.30398 H 25.219977 Z"
   style="fill:#b4b4bf;fill-opacity:1;fill-rule:nonzero;stroke:none;stroke-width:1.33333"
   id="path266" /><g
   id="g1742"
   transform="matrix(0.31539543,0,0,0.34083939,-3.3569179,134.36324)"><path
     d="m 485.62437,-311.42609 v 15.36986 h 91.61399 v 21.08515 c 0,24.45328 -13.52796,36.67797 -40.58393,36.67797 v 0 h -24.9253 v 43.92278 c 0,14.35276 3.99499,25.84595 11.98494,34.48341 v 0 c 7.98997,8.63747 19.66207,12.95622 35.00788,12.95622 v 0 c 14.08601,0 25.20008,-4.02145 33.34648,-12.07603 v 0 c 8.14638,-8.0507 12.22591,-18.89059 12.22591,-32.5079 v 0 -3.72805 h -18.98992 v 4.16619 c 0,8.49664 -2.40542,15.34245 -7.23322,20.53746 v 0 c -4.83204,5.19502 -11.4354,7.79641 -19.81851,7.79641 v 0 c -8.86927,0 -15.59099,-2.77742 -20.17782,-8.34408 v 0 c -4.58682,-5.56662 -6.88235,-12.96012 -6.88235,-22.18437 v 0 -30.09424 h 12.10752 c 18.03449,0 31.48638,-4.42045 40.34722,-13.28091 v 0 c 8.86081,-8.86045 13.29124,-21.63669 13.29124,-38.32486 v 0 -21.08515 h 28.48061 v -15.36986 z"
     style="fill:url(#linearGradient1702);stroke:none;stroke-width:4.06662"
     id="path306" /><path
     d="M 637.87958,-148.91007 V -296.0601 h -31.32994 v -15.37377 h 82.35581 v 15.37377 h -31.08898 v 147.15003 z"
     style="fill:url(#linearGradient552);stroke:none;stroke-width:4.06662"
     id="path326" /><path
     d="m 797.13989,-354.58605 c -7.20364,8.71569 -10.80125,20.3184 -10.80125,34.81198 v 0 12.73323 h 19.46339 v -13.61341 c 0,-9.07559 1.9362,-16.61384 5.8128,-22.62252 v 0 c 3.87661,-6.00084 10.48841,-9.00518 19.81428,-9.00518 v 0 c 9.17787,0 15.66708,3.00434 19.46761,9.00518 v 0 c 3.79628,6.00868 5.69443,13.54693 5.69443,22.62252 v 0 9.22816 H 824.7877 v 15.36986 h 31.32995 v 147.15 h 19.93264 v -147.15 h 31.09323 v -15.36986 h -31.09323 v -8.34798 c 0,-14.63832 -3.47921,-26.28012 -10.4419,-34.91761 v 0 c -6.96268,-8.64139 -18.3558,-12.96013 -34.17928,-12.96013 v 0 c -15.66287,0 -27.09403,4.35788 -34.28922,13.06576"
     style="fill:url(#linearGradient1704);stroke:none;stroke-width:4.06662"
     id="path366" /><path
     d="m 670.51379,-311.42609 v 15.36986 h 76.6656 v 27.01558 c -10.1333,1.17357 -19.26894,4.13487 -27.41531,8.89176 v 0 c -8.15062,4.76077 -14.5637,11.01979 -19.22239,18.78102 v 0 c -4.6714,7.75729 -7.00497,16.68816 -7.00497,26.7926 v 0 c 0,10.83986 2.76478,20.46707 8.30701,28.88156 v 0 c 5.53804,8.41839 13.1306,14.93171 22.78195,19.54384 v 0 c 9.65137,4.61603 20.49067,6.92015 32.5179,6.92015 v 0 c 12.02299,0 22.86651,-2.30412 32.51366,-6.92015 v 0 c 9.65558,-4.61213 17.24816,-11.09023 22.7862,-19.43432 v 0 c 5.53377,-8.34799 8.30278,-18.0104 8.30278,-28.99108 v 0 c 0,-10.10444 -2.36738,-19.07051 -7.1191,-26.90605 v 0 c -4.74324,-7.83161 -11.19441,-14.12588 -19.33657,-18.88665 v 0 c -8.15483,-4.75296 -17.37074,-7.71818 -27.65623,-8.89175 v 0 -26.79651 h 76.89809 v -15.36986 z m 63.96196,131.55328 c -6.73017,-3.36815 -11.94689,-8.08982 -15.66285,-14.16498 v 0 c -3.72443,-6.07519 -5.5803,-12.92101 -5.5803,-20.53748 v 0 c 0,-7.61256 1.85587,-14.41927 5.5803,-20.42404 v 0 c 3.71596,-6.00085 8.93268,-10.6873 15.66285,-14.05938 v 0 c 6.72594,-3.36031 14.28049,-5.04634 22.66783,-5.04634 v 0 c 8.54376,0 16.17862,1.68603 22.90455,5.04634 v 0 c 6.71749,3.37208 11.9469,8.05853 15.65864,14.05938 v 0 c 3.7202,6.00477 5.58452,12.81148 5.58452,20.42404 v 0 c 0,7.61647 -1.86432,14.46229 -5.58452,20.53748 v 0 c -3.71174,6.07516 -8.94115,10.79683 -15.65864,14.16498 v 0 c -6.72593,3.36814 -14.36079,5.05026 -22.90455,5.05026 v 0 c -8.38734,0 -15.94189,-1.68212 -22.66783,-5.05026"
     style="fill:url(#linearGradient1706);stroke:none;stroke-width:4.06662"
     id="path346" /><path
     d="m 305.00469,-311.42609 v 15.36986 h 86.15632 v 47.43961 h -22.5452 c -13.45191,0 -24.44762,3.39945 -32.98715,10.21396 v 0 c -8.55224,6.8067 -12.82198,16.28524 -12.82198,28.43953 v 0 c 0,11.71221 3.99919,21.12424 11.98916,28.22042 v 0 c 7.98575,7.10402 18.54601,10.65601 31.6893,10.65601 v 0 c 13.91691,0 24.59556,-3.91973 32.03594,-11.75525 v 0 c 7.43616,-7.82379 11.15634,-19.0666 11.15634,-33.70885 v 0 -16.91504 h 43.43751 v 84.55961 h 19.93263 v -147.15 h 31.09322 v -15.36986 z m 104.67273,15.36986 h 43.43329 v 47.43961 H 409.67742 Z M 348.4422,-193.052 c -4.74748,-4.24442 -7.1191,-9.88146 -7.1191,-16.91113 v 0 c 0,-7.17052 2.56608,-12.8819 7.71096,-17.13022 v 0 c 5.14061,-4.24442 11.8285,-6.37249 20.05522,-6.37249 v 0 h 22.07173 v 17.79132 c 0,9.07952 -2.17293,16.18352 -6.52724,21.30419 v 0 c -4.35008,5.12461 -10.40388,7.69081 -18.14863,7.69081 v 0 c -7.28398,0 -13.29548,-2.12415 -18.04294,-6.37248"
     style="fill:url(#linearGradient1526);stroke:none;stroke-width:4.06662"
     id="path286" /></g></svg>
