<?xml version="1.0" encoding="UTF-8" standalone="no"?>
<!-- Created with Inkscape (http://www.inkscape.org/) -->

<svg
   width="171.00797mm"
   height="63.845718mm"
   viewBox="0 0 171.00797 63.845718"
   version="1.1"
   id="svg1"
   xml:space="preserve"
   sodipodi:docname="জি বাংলা ২০২৫.svg"
   inkscape:version="1.3 (0e150ed6c4, 2023-07-21)"
   xmlns:inkscape="http://www.inkscape.org/namespaces/inkscape"
   xmlns:sodipodi="http://sodipodi.sourceforge.net/DTD/sodipodi-0.dtd"
   xmlns:xlink="http://www.w3.org/1999/xlink"
   xmlns="http://www.w3.org/2000/svg"
   xmlns:svg="http://www.w3.org/2000/svg"><sodipodi:namedview
     id="namedview1"
     pagecolor="#ffffff"
     bordercolor="#000000"
     borderopacity="0.25"
     inkscape:showpageshadow="2"
     inkscape:pageopacity="0.0"
     inkscape:pagecheckerboard="0"
     inkscape:deskcolor="#d1d1d1"
     inkscape:document-units="mm"
     showguides="true"
     inkscape:zoom="1.875385"
     inkscape:cx="315.93513"
     inkscape:cy="171.43146"
     inkscape:window-width="1920"
     inkscape:window-height="1009"
     inkscape:window-x="-8"
     inkscape:window-y="-8"
     inkscape:window-maximized="1"
     inkscape:current-layer="layer1"><inkscape:page
       x="0"
       y="0"
       width="171.00797"
       height="63.845718"
       id="page2"
       margin="0"
       bleed="0" /><sodipodi:guide
       position="32.30781,53.687803"
       orientation="1,0"
       id="guide1"
       inkscape:locked="false" /><sodipodi:guide
       position="46.698188,54.393214"
       orientation="1,0"
       id="guide2"
       inkscape:locked="false" /><sodipodi:guide
       position="1.2697393,27.869772"
       orientation="1,0"
       id="guide13"
       inkscape:locked="false" /><sodipodi:guide
       position="45.710613,20.533501"
       orientation="1,0"
       id="guide14"
       inkscape:locked="false" /><sodipodi:guide
       position="51.777145,-11.209981"
       orientation="1,0"
       id="guide15"
       inkscape:locked="false" /><sodipodi:guide
       position="99.886155,48.467764"
       orientation="0,-1"
       id="guide16"
       inkscape:locked="false" /><sodipodi:guide
       position="63.34588,17.570776"
       orientation="0,-1"
       id="guide17"
       inkscape:locked="false" /><sodipodi:guide
       position="170.70939,-9.0937485"
       orientation="1,0"
       id="guide18"
       inkscape:locked="false" /></sodipodi:namedview><defs
     id="defs1"><linearGradient
       id="linearGradient18"
       inkscape:collect="always"><stop
         style="stop-color:#e52233;stop-opacity:1;"
         offset="0"
         id="stop18" /><stop
         style="stop-color:#80131c;stop-opacity:1;"
         offset="1"
         id="stop19" /></linearGradient><linearGradient
       inkscape:collect="always"
       xlink:href="#linearGradient18"
       id="linearGradient19"
       x1="22.754166"
       y1="228.17899"
       x2="169.5975"
       y2="228.17899"
       gradientUnits="userSpaceOnUse"
       gradientTransform="matrix(0.81168968,0,0,0.81168968,33.347766,-26.8283)" /></defs><g
     inkscape:label="Layer 1"
     inkscape:groupmode="layer"
     id="layer1"
     transform="translate(0,-126.5169)"><path
       id="path72"
       d="M 46.8443,126.5169 H 35.94664 1.22661 v 1.47955 0.73977 H 32.52858 L 0,190.36262 h 10.89766 34.72003 v -1.47955 -0.73978 H 14.31572 Z"
       style="fill:#b4b4bf;fill-opacity:1;fill-rule:nonzero;stroke:none;stroke-width:0.352778" /><path
       style="fill:url(#linearGradient19);stroke-width:3.81088;stroke-dasharray:none"
       d="m 117.4154,174.77899 c -0.1122,-0.10177 -4.39206,-2.30037 -9.51078,-4.88579 l -9.30675,-4.70076 0.1426,-2.03915 c 0.0784,-1.12152 0.17778,-2.07431 0.22076,-2.11729 0.0729,-0.0729 6.32472,3.09161 15.52789,7.85983 l 3.93529,2.0389 -0.14033,1.6388 c -0.20123,2.35018 -0.33488,2.6895 -0.86868,2.20546 z m -45.51829,-2.79423 c -1.18118,-0.56073 -5.31261,-2.45833 -9.180974,-4.2169 l -7.033376,-3.1974 v -4.87257 -4.87257 l 2.952945,-1.22174 c 3.322357,-1.37457 10.126265,-3.71061 13.046645,-4.47938 l 1.93284,-0.50883 0.064,-1.32195 0.064,-1.32197 H 62.917367 52.091677 l -0.135427,-1.12749 c -0.07449,-0.62011 -0.136268,-1.48989 -0.137295,-1.93283 l -0.0018,-0.80535 H 74.15216 96.48715 l 0.003,1.12749 c 0.002,0.62012 0.0623,1.48989 0.13548,1.93284 l 0.13312,0.80534 h -2.71098 -2.71098 l -0.0553,13.47617 -0.0553,13.47616 -2.30867,0.0609 -2.30866,0.0609 v -13.53707 -13.53712 h -4.1878 -4.18782 v 13.52985 13.52986 l -2.0939,-0.0135 c -2.04102,-0.013 -2.14816,-0.0392 -4.24151,-1.03295 z m 1.64298,-11.24857 c -0.0413,-4.16366 -0.0941,-7.59088 -0.11733,-7.61605 -0.21908,-0.23727 -10.463851,3.15853 -12.20994,4.04718 l -0.805349,0.40988 v 2.32338 2.32337 l 6.603859,3.0334 c 3.63213,1.66837 6.60386,3.03695 6.60386,3.04128 0,0.004 -0.0337,-3.39878 -0.0751,-7.56244 z m 74.48929,3.79142 c 0,-8.1409 -0.0182,-8.52909 -0.42675,-9.10285 -0.86121,-1.20945 -3.45124,-1.68178 -4.94558,-0.90192 -1.14452,0.5973 -1.6863,1.88331 -1.73551,4.11943 -0.0221,1.004 -0.0851,1.94626 -0.14004,2.0939 -0.0703,0.18862 -0.6998,0.26846 -2.11713,0.26846 h -2.01725 l -0.002,-1.55701 c -0.002,-2.0865 -0.32053,-3.11046 -1.26208,-4.05201 -2.17713,-2.17712 -6.66582,-1.4232 -7.56654,1.27087 -0.14611,0.43703 -0.27226,1.71305 -0.28032,2.83558 -0.0128,1.77058 0.052,2.15397 0.48863,2.89396 0.9276,1.57216 1.9387,2.00578 4.72986,2.02842 l 2.01423,0.0163 -0.15459,1.98654 c -0.0851,1.09258 -0.20219,2.03484 -0.26037,2.0939 -0.0582,0.0591 -1.13661,0.10636 -2.39653,0.10512 -5.04584,-0.005 -7.97705,-1.96711 -8.84466,-5.92056 -0.16565,-0.75485 -0.2296,-2.26451 -0.17281,-4.08043 0.0813,-2.59888 0.14989,-3.01398 0.69803,-4.2212 0.69785,-1.5369 2.21883,-3.0898 3.64356,-3.72003 3.95434,-1.7492 9.71172,-0.34392 10.98355,2.68088 l 0.27045,0.64321 0.35484,-0.85066 c 0.39986,-0.95859 1.44707,-2.13551 2.29603,-2.5804 1.5995,-0.83822 4.57865,-0.72854 6.01411,0.2214 l 0.82817,0.548 v -2.68752 -2.68755 h -14.07349 c -11.07037,0 -14.0916,-0.0573 -14.15835,-0.26844 -0.0467,-0.14765 -0.12576,-1.01743 -0.17576,-1.93284 l -0.0909,-1.66439 h 25.60232 25.60232 l 0.13658,0.9964 c 0.0751,0.54802 0.13656,1.41779 0.13656,1.93283 v 0.93644 h -2.6845 -2.68449 v 13.52986 13.52985 h -2.36236 -2.36235 v -13.53448 -13.53448 l -4.13411,0.0583 -4.13413,0.0583 -0.0209,0.85904 c -0.0115,0.47247 -0.0356,6.53674 -0.0536,13.47616 l -0.0328,12.61712 h -2.25498 -2.25497 z m -43.75712,-6.21718 c -3.56926,-0.96111 -5.45723,-3.26827 -5.7778,-7.06064 -0.15649,-1.85119 0.19965,-4.15838 0.84103,-5.4486 0.66507,-1.33787 2.41042,-2.89323 3.92194,-3.49501 1.14406,-0.45548 1.62066,-0.51085 4.39715,-0.51085 2.77045,0 3.25451,0.0559 4.38751,0.50725 1.77118,0.70548 3.55532,2.48672 4.21261,4.20577 0.64098,1.6764 0.71379,5.16159 0.14656,7.01487 -0.74316,2.4281 -2.93054,4.30216 -5.69693,4.88094 -1.55799,0.32596 -5.06317,0.27488 -6.43207,-0.0937 z m 6.19473,-3.7679 c 1.3998,-0.76599 1.97673,-2.04916 1.97673,-4.39661 0,-2.32026 -0.57893,-3.58521 -2.00884,-4.38922 -0.81043,-0.45569 -1.23094,-0.5369 -2.7803,-0.5369 -1.6024,0 -1.94758,0.0717 -2.82494,0.58755 -1.40939,0.82852 -1.92081,1.95297 -1.95005,4.28753 -0.0353,2.81737 0.66422,4.02532 2.79041,4.81869 1.22103,0.45562 3.62628,0.26956 4.79699,-0.37104 z"
       id="path1-9" /></g></svg>
