<?xml version="1.0" encoding="UTF-8" standalone="no"?>
<!-- Created with Inkscape (http://www.inkscape.org/) -->

<svg
   width="174.5325mm"
   height="71.686485mm"
   viewBox="0 0 174.5325 71.686486"
   version="1.1"
   id="svg1"
   xml:space="preserve"
   xmlns:inkscape="http://www.inkscape.org/namespaces/inkscape"
   xmlns:sodipodi="http://sodipodi.sourceforge.net/DTD/sodipodi-0.dtd"
   xmlns:xlink="http://www.w3.org/1999/xlink"
   xmlns="http://www.w3.org/2000/svg"
   xmlns:svg="http://www.w3.org/2000/svg"><sodipodi:namedview
     id="namedview1"
     pagecolor="#ffffff"
     bordercolor="#000000"
     borderopacity="0.25"
     inkscape:showpageshadow="2"
     inkscape:pageopacity="0.0"
     inkscape:pagecheckerboard="0"
     inkscape:deskcolor="#d1d1d1"
     inkscape:document-units="mm"><inkscape:page
       x="0"
       y="0"
       width="174.5325"
       height="71.686485"
       id="page2"
       margin="0"
       bleed="0" /></sodipodi:namedview><defs
     id="defs1"><linearGradient
       id="linearGradient5"
       inkscape:collect="always"><stop
         style="stop-color:#ffaa00;stop-opacity:1;"
         offset="0"
         id="stop5" /><stop
         style="stop-color:#ff5500;stop-opacity:1;"
         offset="1"
         id="stop6" /></linearGradient><clipPath
       clipPathUnits="userSpaceOnUse"
       id="clipPath74-3"><path
         d="M 0,0 H 1920 V 1080 H 0 Z"
         transform="translate(-766.04484,-151.5)"
         id="path74-1" /></clipPath><linearGradient
       inkscape:collect="always"
       xlink:href="#linearGradient5"
       id="linearGradient6"
       x1="59.400402"
       y1="1.2212427"
       x2="59.400402"
       y2="44.367027"
       gradientUnits="userSpaceOnUse" /></defs><g
     inkscape:label="Layer 1"
     inkscape:groupmode="layer"
     id="layer1"
     transform="translate(2.3068593,-144.99166)"><path
       id="path65-9"
       d="M 50.290292,144.99166 H 38.054315 -0.92961412 v 1.66125 0.83062 H 34.216486 L -2.3068593,216.67814 H 9.9291164 48.913047 v -1.66125 -0.83063 H 13.766946 Z"
       style="fill:#b4b4bf;fill-opacity:1;fill-rule:nonzero;stroke:none;stroke-width:0.396102" /><path
       id="path73-3"
       clip-path="url(#clipPath74-3)"
       style="fill:url(#linearGradient6);fill-opacity:1;fill-rule:nonzero;stroke:none"
       d="m 112.66301,46.494357 c -1.531,0 -2.83127,-0.284166 -3.89827,-0.850166 -1.068,-0.568 -2.06603,-1.493821 -2.99103,-2.778821 l -4.45095,-6.265444 c -0.719,-1.002 -1.431861,-1.740044 -2.140861,-2.212044 -0.708,-0.472 -1.545192,-0.7078 -2.508192,-0.7078 h -0.198775 c -1.077,0 -1.951681,0.278064 -2.621681,0.836064 -0.672,0.557 -1.215165,1.317884 -1.631165,2.281884 l -1.615047,3.714273 h -4.593315 l 1.871574,-4.139356 c 0.529,-1.134 1.142699,-2.036967 1.842699,-2.706967 0.463431,-0.446169 0.994478,-0.805965 1.592215,-1.080504 -1.870042,-0.62635 -3.417003,-1.60331 -4.640323,-2.93126 -2.315,-2.514 -3.473191,-6.332413 -3.473191,-11.454413 v -4.279707 c 0,-1.721 0.08929,-3.313317 0.269286,-4.7773166 0.18,-1.465 0.473042,-2.8729698 0.879042,-4.2239698 0.406,-1.352 0.958698,-2.7456629 1.658698,-4.18166295 h 4.791419 c -1.097,2.11600005 -1.884841,4.23305705 -2.367841,6.35005705 -0.481,2.117 -0.723246,4.4231773 -0.723246,6.9181773 v 4.166889 c 0,3.969 0.776206,6.903512 2.326206,8.802512 1.549,1.899 3.901528,2.849333 7.058528,2.849333 3.137,0 5.4851,-0.950333 7.0451,-2.849333 1.559,-1.899 2.33829,-4.833512 2.33829,-8.802512 v -4.166889 c 0,-2.476 -0.24024,-4.7821773 -0.72324,-6.9181773 -0.481,-2.136 -1.27083,-4.252057 -2.36583,-6.35005705 h 4.56377 c 0.661,1.34200005 1.18984,2.63617195 1.58684,3.88417195 0.0787,0.2473411 0.15311,0.4969379 0.22295,0.7487641 0.4136,-1.1452604 1.06713,-2.1369986 1.96022,-2.9742388 1.663,-1.56000003 4.04481,-2.33896456 7.14381,-2.33896456 3.44,0 6.04432,1.05802846 7.81132,3.17502846 1.767,2.116 2.65123,5.2059014 2.65123,9.2699012 v 3.912377 3.232109 c 0,4.574 -1.04029,8.052004 -3.11929,10.433004 -2.08,2.382 -5.12188,3.571907 -9.12888,3.571907 h -0.39687 l -0.59499,-3.93991 h 0.19744 c 2.892,0 5.04721,-0.846068 6.46421,-2.537068 1.418,-1.692 2.12609,-4.230218 2.12609,-7.613218 v -3.968786 -2.890968 c 0,-2.8170002 -0.58474,-4.9429333 -1.75674,-6.3789333 -1.172,-1.437 -2.92038,-2.1542918 -5.24538,-2.1542918 -2.211,0 -3.92154,0.5898439 -5.13054,1.7708439 -1.21,1.181 -1.81517,2.9061952 -1.81517,5.1741952 v 0.212877 c 0.038,0.822 0.0571,1.687149 0.0571,2.594149 v 4.279707 c 0,5.122 -1.15819,8.940413 -3.47319,11.454413 -1.36338,1.479987 -3.12861,2.524204 -5.29507,3.132721 0.47498,0.249009 0.90776,0.541897 1.29808,0.879043 0.69,0.595 1.32721,1.290109 1.91321,2.083109 l 3.23278,4.450949 c 0.51,0.68 1.00613,1.191105 1.48813,1.531105 0.482,0.34 0.98156,0.561837 1.50156,0.666837 0.52,0.103 1.06316,0.155125 1.63116,0.155125 h 1.27525 l -0.39688,3.941252 z M -12.700921,44.08421 -13.240166,40.512303 H 8.3631903 c 1.342,0 2.3707437,-0.265429 3.0897437,-0.794429 0.718,-0.529 1.077145,-1.38017 1.077145,-2.55117 0,-2.23 -1.398765,-3.345599 -4.1957648,-3.345599 H 7.314249 -0.56691312 V 30.533258 H 7.5130241 c 1.492,0 2.7067469,-0.180573 3.6417469,-0.538573 0.936,-0.36 1.62635,-0.907595 2.07035,-1.644595 0.278759,-0.462716 0.473529,-1.000599 0.584909,-1.612361 -0.35022,0.219497 -0.720017,0.407589 -1.110052,0.56342 -0.85,0.34 -1.833048,0.509697 -2.9480485,0.509697 -2.59,0 -4.5639739,-0.709087 -5.9249739,-2.126087 -1.361,-1.418 -2.0408019,-3.373894 -2.0408019,-5.867894 v -0.736676 c 0,-2.533 0.6365383,-4.471156 1.9125383,-5.812156 1.276,-1.342 3.0011952,-2.013269 5.1741952,-2.013269 1.6819998,0 3.0572538,0.378227 4.1252538,1.134227 1.007623,0.712985 1.742887,1.680572 2.203986,2.901041 l 0.07857,-0.0087 v -0.28406 c 0,-2.363 -0.57788,-4.361157 -1.72988,-5.9961569 -1.153,-1.635 -2.862888,-2.873273 -5.1318881,-3.714273 -2.267,-0.841 -5.0740635,-1.2618187 -8.41906351272,-1.2618187 -3.32699998728,0 -6.12353048728,0.4208187 -8.39153048728,1.2618187 -2.2679999,0.841 -3.9795599,2.0741707 -5.1325599,3.7001707 -1.153,1.6250002 -1.727866,3.6292592 -1.727866,6.0102592 v 0.28406 l 0.05372,0.0067 v -6.72e-4 c 0.476655,-1.219527 1.214809,-2.185759 2.213388,-2.898355 1.059,-0.756 2.439027,-1.134227 4.1400272,-1.134227 2.154,0 3.8696475,0.671269 5.1446475,2.013269 1.276,1.341 1.9145529,3.279156 1.9145529,5.812156 v 0.736676 c 0,2.589 -0.7145325,4.597362 -2.1415325,6.024362 -1.427,1.427 -3.5284071,2.139518 -6.3064071,2.139518 -2.987,0 -5.264564,-0.825988 -6.833564,-2.479988 -1.569,-1.655 -2.353067,-4.16259 -2.353067,-7.52659 v -2.154292 c 0,-5.047 1.592317,-8.9448225 4.777317,-11.6948225 3.184,-2.75 8.0648714,-4.12525383853 14.64287138728,-4.12525383853 C 6.5768644,-2.0133853e-4 11.456736,1.3750525 14.642736,4.1250525 c 3.184,2.75 4.775973,6.6478225 4.775973,11.6948225 v 2.126087 c 0,1.7 -0.221822,3.145788 -0.664822,4.336788 -0.287831,0.770355 -0.68046,1.446284 -1.177204,2.0267 v 0.893816 c 0,2.759 -0.784396,4.819487 -2.352396,6.179487 -0.449703,0.389839 -0.963336,0.723817 -1.539835,1.001934 1.99001,0.968014 2.985655,2.703498 2.985655,5.2071 0,4.328 -2.693937,6.492423 -8.079937,6.492423 z M 34.473233,34.048085 c -3.119,0 -5.556713,-0.874354 -7.313713,-2.622354 -1.758,-1.748 -2.637127,-4.37106 -2.637127,-7.86706 v -7.059872 c 0,-5.443 1.459767,-9.5527681 4.379767,-12.3307681 2.92,-2.779 7.290766,-4.16823223853 13.111766,-4.16823223853 4.441,0 8.013393,0.81745433853 10.716393,2.45245433853 1.981594,1.1986334 3.474794,2.8052941 4.481168,4.8216381 0.381852,-1.8649085 1.146868,-3.386643 2.294644,-4.5657824 1.719,-1.76799997 4.224159,-2.65122936 7.513159,-2.65122936 3.458,0 6.113776,1.05292626 7.965776,3.16092626 1.852,2.107 2.77815,5.2020036 2.77815,9.2840034 v 3.912377 3.232109 c 0,4.574 -1.038948,8.052004 -3.117948,10.433004 -2.08,2.382 -5.131083,3.571907 -9.157083,3.571907 h -0.396878 l -0.596326,-3.93991 h 0.22698 c 2.873,0 5.018014,-0.846068 6.436014,-2.537068 1.417,-1.692 2.126087,-4.229218 2.126087,-7.613218 v -3.968786 -2.890968 c 0,-2.8170002 -0.586085,-4.9429333 -1.758085,-6.3789333 -1.172,-1.436 -2.938444,-2.1542918 -5.300444,-2.1542918 -2.344,0 -4.106356,0.6699258 -5.288356,2.0119258 -1.181,1.342 -1.772187,3.2982363 -1.772187,5.8692363 v 1.443134 c 0.113844,0.904939 0.171242,1.84113 0.171242,2.808369 v 4.423416 c 0,4.12 -0.946231,7.303962 -2.835231,9.553962 -1.89,2.249 -4.63096,3.373132 -8.22096,3.373132 h -0.396879 l -0.566777,-3.93991 h 0.198103 c 2.438,0 4.275993,-0.779964 5.513993,-2.338964 1.238,-1.559 1.856801,-3.7943 1.856801,-6.7053 v -4.252846 c 0,-4.12 -1.062802,-7.2003686 -3.189802,-9.2423686 -2.126,-2.041 -5.353554,-3.0608672 -9.681554,-3.0608672 -4.385,0 -7.654474,1.0338456 -9.808474,3.1038456 -2.155,2.069 -3.232109,5.2021652 -3.232109,9.3981652 v 1.615719 0.581551 0.665493 h 0.06312 c 0.549254,-1.200929 1.378464,-2.179469 2.488046,-2.933946 1.153,-0.785 2.589927,-1.176534 4.309927,-1.176534 2.457,0 4.341687,0.741475 5.655687,2.225475 1.313,1.484 1.970291,3.624583 1.970291,6.422583 v 0.990518 c 0,2.93 -0.765987,5.170402 -2.295987,6.719402 -1.532,1.55 -3.762198,2.324863 -6.691198,2.324863 z m 0,-3.657193 c 1.606,0 2.825193,-0.458637 3.657193,-1.374637 0.832,-0.917 1.247716,-2.235012 1.247716,-3.954012 v -0.907918 c 0,-1.72 -0.393205,-3.029479 -1.177205,-3.926479 -0.785,-0.898 -1.951724,-1.347104 -3.500724,-1.347104 -1.361,0 -2.538272,0.312123 -3.530272,0.936123 -0.911633,0.573447 -1.643824,1.42496 -2.196598,2.557215 v 1.639222 c 0,2.211 0.481819,3.825485 1.445819,4.846485 0.964,1.021 2.315071,1.531105 4.054071,1.531105 z m -44.706926,-6.065997 c 1.474,0 2.5783798,-0.393204 3.3153798,-1.177204 0.737,-0.785 1.106022,-1.884621 1.106022,-3.302621 v -0.680267 c 0,-1.475 -0.3550436,-2.60768 -1.0630436,-3.40268 -0.709,-0.793 -1.7813354,-1.189964 -3.2173352,-1.189964 -1.19,0 -2.235393,0.298144 -3.133393,0.893144 -0.813317,0.539491 -1.460308,1.339435 -1.940743,2.399403 v 0.988503 c 0,1.871 0.438556,3.249685 1.317556,4.138685 0.879,0.888 2.083557,1.333001 3.615557,1.333001 z m 20.496662,0 c 1.53,0 2.735214,-0.450103 3.614214,-1.347103 0.879,-0.898 1.317557,-2.273583 1.317557,-4.124583 v -0.933437 c -0.466646,-1.0874 -1.113132,-1.905662 -1.941415,-2.454469 -0.897,-0.595 -1.951598,-0.893144 -3.161598,-0.893144 -1.4169996,0 -2.4845611,0.396964 -3.2025611,1.189964 -0.719,0.795 -1.078489,1.92768 -1.078489,3.40268 v 0.680267 c 0,1.418 0.369022,2.517621 1.106022,3.302621 0.737,0.784 1.8522705,1.177204 3.3462701,1.177204 z"
       transform="matrix(0.76952434,0,0,-0.76952434,72.700553,198.65748)"
       inkscape:export-filename="Zee Telugu HD (2025).svg"
       inkscape:export-xdpi="96"
       inkscape:export-ydpi="96" /></g></svg>
