<?xml version="1.0" encoding="utf-8"?>
<!-- Generator: Adobe Illustrator 29.5.1, SVG Export Plug-In . SVG Version: 9.03 Build 0)  -->
<svg version="1.1" id="Layer_1" xmlns="http://www.w3.org/2000/svg" xmlns:xlink="http://www.w3.org/1999/xlink" x="0px" y="0px"
	 viewBox="0 0 1137.6 355.5" style="enable-background:new 0 0 1137.6 355.5;" xml:space="preserve">
<style type="text/css">
	.st0{fill:#DF2375;}
	.st1{fill:url(#SVGID_1_);}
</style>
<path class="st0" d="M242.6,7.9H13.5V19h157.2L7.4,328.5h229.1v-11.1H79.3L242.6,7.9L242.6,7.9z"/>
<linearGradient id="SVGID_1_" gradientUnits="userSpaceOnUse" x1="741.5028" y1="-7935.9683" x2="413.3028" y2="-7498.8677" gradientTransform="matrix(1 0 0 1 0 7951.9404)">
	<stop  offset="0" style="stop-color:#80074D"/>
	<stop  offset="1" style="stop-color:#E62476"/>
</linearGradient>
<path class="st1" d="M456.4,149.9c10.3,0,19.7,1.7,28.1,5.2c8.6,3.3,15.5,8.5,20.6,15.6c5,6.8,7.6,15.2,7.7,25.1h406.9v12.5h-23.5
	v120.1h-15.1V208.3h-36.9v120.1h-14.9V208.3h-34.9v51.4c0,10.8-3,19.4-9,26s-14.4,9.9-25.3,9.9s-19.1-3.3-25.1-10s-9-15.3-9-25.8
	v-51.4h-34.1v120.1h-15.1V208.4h-36.6v120.1h-14.9v-39.2c-3.5,5.7-8.5,10.4-15,14c-6.6,3.5-14.5,5.2-23.7,5.2
	c-15,0-26.7-4.5-34.9-13.6s-12.4-21.4-12.4-36.9s0.2-5.6,0.5-8.4h2.5c10.6,0,18.6-2.1,24-6.4c5.4-4.4,8.1-11.8,8.1-22.2v-12.4h-63.1
	v17.2c0,13.6-3.3,24.1-10,31.4c-6.7,7.2-16.8,10.8-30.5,10.8h-9.1v24.5c0,7.5,1.7,13.6,5.2,18.1s8.5,6.8,15.2,6.8s11.3-2.1,14.9-6.3
	c3.7-4.3,5.6-9.9,5.6-16.8v-3.4h14.3v3c0,11.1-3.1,20-9.3,26.5c-6.1,6.6-14.5,9.9-25.1,9.9s-20.4-3.5-26.5-10.6
	c-6-7.1-9-16.4-9-28.1v-35.8h18.8c20.4,0,30.6-10,30.6-29.9v-17.2h-82.1v120.1h-15.1V208.7h-38.4v31.9H328c-5.6,0-10.2,1.2-13.8,3.6
	c-3.6,2.3-5.4,5.9-5.4,10.9s1.1,6.8,3.4,9.3s5.4,4.3,9.3,5.4c3.3-0.6,6.7-0.9,10-0.9c11.6,0,20.7,2.9,27.2,8.6
	c6.7,5.6,10.8,12.6,12.2,21h-14.3c-1.2-4.7-4-8.7-8.4-12.2c-4.3-3.6-10-5.4-17-5.4s-14.9,2.6-19.7,7.7c-4.7,5.1-7,11.6-7,19.3
	s2.3,14.3,7,19.4c4.8,5,11.3,7.5,19.7,7.5s12.5-1.7,16.8-5.2c4.4-3.4,7.3-7.4,8.6-12h14.3c-0.8,5.4-3,10.3-6.4,14.9
	c-3.3,4.5-7.9,8.1-13.6,10.8c-5.6,2.7-12.2,4.1-19.7,4.1s-16.1-1.7-22.4-5.2c-6.2-3.5-10.9-8.2-14.2-14.2s-4.8-12.7-4.8-20.2
	s1.7-14.2,5-20.1c3.5-5.9,8.2-10.4,14.3-13.6c-4.5-1.9-8.2-4.7-10.9-8.4s-4.1-8.1-4.1-13.3c0-7.4,2.6-13,7.9-16.8
	c5.4-3.9,12.4-5.9,21.1-5.9h23.5v-21h-75.1v-12.5h127.6c0.2-15.6,5.7-27.2,16.3-34.6c10.6-7.5,24.1-11.3,40.5-11.3L456.4,149.9
	L456.4,149.9z M589.7,223.2c0,22.2-11.8,33.8-35.3,34.8v1.3c0,11.3,3.1,20.3,9.3,26.9c6.3,6.4,15.1,9.7,26.3,9.7s12.7-1.4,18.1-4.1
	c5.5-2.9,9.8-6.9,12.9-12c3.1-5.1,4.7-11,4.7-17.6v-53.8h-36V223.2L589.7,223.2L589.7,223.2z M741,261.2c0,6.4,1.7,11.7,5.2,15.8
	c3.6,3.9,8.4,5.9,14.3,5.9s10.7-2,14.2-5.9c3.5-4.1,5.2-9.3,5.2-15.8v-52.9H741V261.2z M456.4,162.2c-11.5,0-21.3,2.5-29.6,7.5
	c-8.1,4.9-12.2,13.6-12.4,26h83.7c0-7.8-2.2-14.2-6.3-19.2c-4.2-5.1-9.4-8.8-15.8-10.9c-6.3-2.3-12.9-3.4-19.7-3.4l0,0L456.4,162.2z
	 M971.9,5.7c14.2,0,25.7,3.4,34.6,10.2c8.8,6.8,14.5,16.4,17,28.8h-16.3c-2-7.8-6-14-11.8-18.6c-5.7-4.8-13.6-7.2-23.5-7.2
	s-16.1,2.1-22.6,6.3c-6.3,4.1-11.2,10-14.7,17.7c-3.5,7.6-5.2,16.8-5.2,27.6s1.7,20,5.2,27.8c3.5,7.6,8.4,13.6,14.7,17.7
	c6.4,4.1,14,6.1,22.6,6.1s17.7-2.3,23.5-6.8c5.9-4.7,9.8-10.8,11.8-18.5h16.3c-2.5,12.1-8.2,21.5-17,28.3s-20.4,10.2-34.6,10.2
	s-22.1-2.7-30.8-8.1c-8.6-5.5-15.3-13.1-20.1-22.8c-4.7-9.8-7-21.1-7-34s2.3-24.2,7-33.9c4.8-9.8,11.5-17.4,20.1-22.8
	c8.7-5.5,19-8.2,30.8-8.2V5.7L971.9,5.7z M304.3,7.9c14.6,0,26.6,2.6,36,7.7c9.6,5,16.6,12.2,21.1,21.7c4.7,9.3,7,20.5,7,33.7
	s-2.3,24-7,33.3c-4.5,9.3-11.6,16.5-21.1,21.5c-9.4,5-21.4,7.5-36,7.5H272V7.9H304.3z M467.6,20.2h-62.5v43.7h57.2v12.2h-57.2v44.8
	h62.5v12.4H390V7.9h77.6V20.2L467.6,20.2L467.6,20.2z M506,121.3h58.4v12h-73.5V7.9H506V121.3z M600.2,63.2h65V7.8h15.1v125.4h-15.1
	V75.5h-65v57.7h-15.1V7.8h15.1V63.2z M721.8,133.3h-15.1V7.9h15.1V133.3z M877.4,108.6V7.9h15v125.4h-15L810.6,32.6v100.7h-15V7.9
	h15L877.4,108.6L877.4,108.6z M1085.5,7.9c9.8,0,17.8,1.7,24,5c6.2,3.2,10.8,7.6,13.8,13.1s4.5,11.7,4.5,18.6s-1.6,12.8-4.7,18.5
	c-3,5.6-7.6,10.1-14,13.4c-2.3,1.2-4.8,2.2-7.5,2.9l27.4,53.9h-17.7l-25.5-51.8h-25.7v51.8h-15V7.9h40.5H1085.5L1085.5,7.9z
	 M287.1,120.7h16.8c12.1,0,21.7-2,28.8-5.9c7.2-4.1,12.3-9.8,15.4-17.2c3.1-7.5,4.7-16.4,4.7-26.7s-1.6-19.5-4.7-27.1
	c-3.1-7.5-8.2-13.3-15.4-17.4s-16.8-6.1-28.8-6.1h-16.8V120.7L287.1,120.7L287.1,120.7z M1060.1,69.7h24.4c9.6,0,16.5-2.3,21-7
	s6.8-10.6,6.8-17.9s-2.2-13.3-6.6-17.6c-4.3-4.4-11.4-6.6-21.3-6.6h-24.2v49.1H1060.1L1060.1,69.7z"/>
</svg>
