<?xml version="1.0" encoding="UTF-8"?>
<svg id="Layer_1" xmlns="http://www.w3.org/2000/svg" version="1.1" xmlns:xlink="http://www.w3.org/1999/xlink" viewBox="0 0 1082.7 420">
  <!-- Generator: Adobe Illustrator 29.5.1, SVG Export Plug-In . SVG Version: 2.1.0 Build 141)  -->
  <defs>
    <style>
      .st0 {
        fill: url(#linear-gradient2);
      }

      .st1 {
        fill: url(#linear-gradient1);
      }

      .st2 {
        fill: url(#linear-gradient4);
      }

      .st3 {
        fill: url(#linear-gradient3);
      }

      .st4 {
        fill: #e6a834;
      }

      .st5 {
        fill: url(#linear-gradient);
      }
    </style>
    <linearGradient id="linear-gradient" x1="571" y1="-11105.7" x2="315" y2="-10663.4" gradientTransform="translate(0 10955.3)" gradientUnits="userSpaceOnUse">
      <stop offset="0" stop-color="#e62d1a"/>
      <stop offset="1" stop-color="#e6b736"/>
    </linearGradient>
    <linearGradient id="linear-gradient1" x1="669.5" y1="-11048.8" x2="413.6" y2="-10606.5" gradientTransform="translate(0 10955.3)" gradientUnits="userSpaceOnUse">
      <stop offset="0" stop-color="#e62d1a"/>
      <stop offset="1" stop-color="#e6b736"/>
    </linearGradient>
    <linearGradient id="linear-gradient2" x1="820" y1="-10961.7" x2="564" y2="-10519.4" gradientTransform="translate(0 10955.3)" gradientUnits="userSpaceOnUse">
      <stop offset="0" stop-color="#e62d1a"/>
      <stop offset="1" stop-color="#e6b736"/>
    </linearGradient>
    <linearGradient id="linear-gradient3" x1="901.8" y1="-10914.2" x2="645.9" y2="-10471.9" gradientTransform="translate(0 10955.3)" gradientUnits="userSpaceOnUse">
      <stop offset="0" stop-color="#e62d1a"/>
      <stop offset="1" stop-color="#e6b736"/>
    </linearGradient>
    <linearGradient id="linear-gradient4" x1="994" y1="-10861" x2="738" y2="-10418.7" gradientTransform="translate(0 10955.3)" gradientUnits="userSpaceOnUse">
      <stop offset="0" stop-color="#e62d1a"/>
      <stop offset="1" stop-color="#e6b736"/>
    </linearGradient>
  </defs>
  <path class="st4" d="M285.2,42H49.4v11.5h161.8L43.1,372h235.8v-11.5H117.1L285.2,42Z"/>
  <path class="st5" d="M315.5,228.8v-17.7l27.8,7.5,2.4,6.2c5.2,4,9.6,7.8,13.3,11.4,3.8,3.5,7.3,7.1,10.4,10.8,3.3,3.6,6.7,7.6,10.3,12l24.1,30v1.1h-25.7l-44.7-58.7-18-2.5h.1ZM315.5,211.2c3.3.4,6.5.7,9.6,1.1,3.2.4,6.4.6,9.6.8,3.3.2,6.8.3,10.3.3,17.2,0,29.8-2.9,37.6-8.7,7.9-5.9,11.9-15.4,11.9-28.5v-2.2c0-11.4-3-20.1-8.8-25.9-5.8-5.9-14.7-8.8-26.5-8.8s-13.3.9-19.9,2.6c-6.6,1.8-13.3,4.4-20.2,8l1.3-18.9c6.1-3,12.5-5.2,19.3-6.7,6.9-1.6,14.3-2.4,22.2-2.4,17.8,0,31.2,4.4,40.2,13.3,9.2,8.9,13.7,21.7,13.7,38.4v2.9c0,18.1-5.3,31.6-16,40.5-10.6,8.9-27,13.3-49.3,13.3s-5.5,0-7.7,0c-2.2-.2-4.7-.4-7.5-.8l-19.8-18.2h0Z"/>
  <path class="st1" d="M449.7,245.1c0-7.5,1.4-14,4.1-19.7,2.7-5.7,7.1-10.5,13.2-14.4,6.1-3.9,14.2-6.9,24.4-9.1l8.2-3.6c10.3-2.5,18.3-5.6,24.1-9.4,5.9-3.9,10-8.6,12.4-14.1s3.6-12.1,3.6-19.5v-2.1c0-5.6-.4-10.7-1.3-15.2-.8-4.6-2.3-8.8-4.5-12.7h21.1c2.2,4,3.7,8.4,4.5,13.5.9,4.9,1.3,10,1.3,15.2v2.2c0,9-1.4,16.8-4.1,23.5-2.7,6.6-7.2,12.2-13.5,16.8-6.2,4.5-14.4,8-24.8,10.4l-11.2,4.1c-8.7,1.8-15.7,4-21.1,6.9-5.3,2.7-9.1,6.2-11.6,10.6-2.4,4.3-3.6,9.5-3.6,15.7v2c0,9.4,2.6,16.4,7.9,21,5.3,4.5,13.3,6.7,24.2,6.7s18.6-2.2,23.9-6.7c5.3-4.6,7.9-11.6,7.9-21v-2.1c0-6.1-1.2-11.2-3.6-15.4-2.3-4.2-6.1-7.7-11.5-10.6-5.3-2.8-12.3-5.1-21.1-7l-10.4-4.1c-10.9-2.6-19.5-6.2-25.9-10.7-6.3-4.6-10.8-10.2-13.5-16.9-2.6-6.7-4-14.6-4-23.6v-2.1c0-4.8.4-9.7,1.2-14.6.9-4.9,2.4-9.5,4.5-13.6h21.4c-2.3,4-3.9,8.2-4.8,12.8-.8,4.5-1.2,9.5-1.2,15v2.1c0,7.4,1.1,13.9,3.3,19.4,2.3,5.5,6.3,10.3,12,14.3,5.8,3.9,13.9,7,24.4,9.4l8.8,3.8c10,2.1,18.1,5.1,24.2,9,6.1,3.8,10.5,8.5,13.2,14.3,2.7,5.7,4.1,12.4,4.1,20.2v2.4c0,14.6-4.4,25.5-13.2,32.6s-22.1,10.7-39.9,10.7-31.1-3.6-40-10.7c-8.9-7.1-13.3-18.1-13.3-33v-2.5l.2-.2Z"/>
  <path class="st0" d="M795,139.9h-29.6v150.1h-18.8v-95.5h-32.7c-14.3,0-25.6,3.4-33.8,10.1-8.1,6.7-12.1,16.7-12.1,29.8s3.6,22.6,10.8,29.6,17.6,10.5,31.2,10.5h4.9v15h-7.4c-17.8,0-32-4.7-42.6-14.1-10.5-9.6-15.7-23.3-15.7-41.2s5.7-32.6,17.3-41.9c11.7-9.3,27.2-13.9,46.6-13.9h33.6v-38.5h-119.2v-15.7h167.6v15.7h-.1Z"/>
  <path class="st3" d="M811.1,290.1v-150.1h-29.6v-15.7h77.8v15.7h-29.4v150.1h-18.8Z"/>
  <path class="st2" d="M1041.5,139.9h-29.8v150.1h-18.4v-78.2h-104.4v32.7c0,9.6,2.2,17.2,6.5,22.9s10.8,8.5,19.5,8.5,14.2-2.6,18.8-7.8c4.6-5.4,6.9-12.4,6.9-21.1v-2.7h17.9c0,1,.2,2.2.2,3.6,0,13.4-4,24.2-11.9,32.3-7.8,7.9-18.4,11.9-31.8,11.9s-25.4-4.4-33.2-13.2c-7.6-9-11.4-20.7-11.4-35.2v-45.7h20.6c12.5,0,22.1-3.4,28.7-10.1s9.9-15.9,9.9-27.6v-20.4h-83.8v-15.7h195.6v15.7h.1ZM993.3,139.9h-45.3v20.4c0,7.8-1.2,14.7-3.6,20.8-2.4,6.1-5.7,11.2-10.1,15.2h58.9v-56.5h0Z"/>
</svg>