<?xml version="1.0" encoding="UTF-8" standalone="no"?>
<!-- Created with Inkscape (http://www.inkscape.org/) -->

<svg
   width="180.29028mm"
   height="78.109962mm"
   viewBox="0 0 180.29028 78.109962"
   version="1.1"
   id="svg1"
   xml:space="preserve"
   xmlns:inkscape="http://www.inkscape.org/namespaces/inkscape"
   xmlns:sodipodi="http://sodipodi.sourceforge.net/DTD/sodipodi-0.dtd"
   xmlns:xlink="http://www.w3.org/1999/xlink"
   xmlns="http://www.w3.org/2000/svg"
   xmlns:svg="http://www.w3.org/2000/svg"><sodipodi:namedview
     id="namedview1"
     pagecolor="#ffffff"
     bordercolor="#000000"
     borderopacity="0.25"
     inkscape:showpageshadow="2"
     inkscape:pageopacity="0.0"
     inkscape:pagecheckerboard="0"
     inkscape:deskcolor="#d1d1d1"
     inkscape:document-units="mm"><inkscape:page
       x="0"
       y="0"
       width="180.29028"
       height="78.109962"
       id="page2"
       margin="0"
       bleed="0" /></sodipodi:namedview><defs
     id="defs1"><linearGradient
       id="linearGradient1"
       inkscape:collect="always"><stop
         style="stop-color:#ffaa00;stop-opacity:1;"
         offset="0"
         id="stop2" /><stop
         style="stop-color:#ff5500;stop-opacity:1;"
         offset="1"
         id="stop1" /></linearGradient><clipPath
       clipPathUnits="userSpaceOnUse"
       id="clipPath81"><path
         d="M 0,0 H 1920 V 1080 H 0 Z"
         id="path81-97" /></clipPath><linearGradient
       inkscape:collect="always"
       xlink:href="#linearGradient1"
       id="linearGradient2"
       x1="436.63599"
       y1="444.59171"
       x2="737.76392"
       y2="623.99561"
       gradientUnits="userSpaceOnUse" /></defs><g
     inkscape:label="Layer 1"
     inkscape:groupmode="layer"
     id="layer1"
     transform="translate(10.583326,-103.71667)"><path
       id="path65-9"
       d="M 42.292382,103.71667 H 29.991603 -9.198787 v 1.67005 0.83502 h 35.332235 l -36.716774,69.56107 H 1.7174523 40.907843 v -1.67005 -0.83503 H 5.5756067 Z"
       style="fill:#b4b4bf;fill-opacity:1;fill-rule:nonzero;stroke:none;stroke-width:0.3982" /><path
       id="path80-2"
       clip-path="url(#clipPath81)"
       style="fill:url(#linearGradient2);fill-rule:nonzero;stroke:none"
       d="m 498.0729,623.99561 c 1.382,-2.76 2.49352,-5.62612 3.33652,-8.59112 0.843,-2.967 1.26661,-5.95796 1.26661,-8.97396 0,-3.834 -0.80441,-6.59526 -2.41641,-8.28226 -1.612,-1.688 -4.25665,-2.53191 -7.93965,-2.53191 H 490.71075 436.636 v -10.20293 h 32.28938 V 564.47549 H 436.636 v -10.19904 l 18.40862,0.29329 v -0.37115 c -4.039,-0.974 -7.32443,-3.13357 -9.85643,-6.48357 -2.532,-3.349 -3.79593,-8.19283 -3.79593,-14.53483 v -1.76365 c 0,-9.154 2.83626,-16.06717 8.51326,-20.74717 5.676,-4.679 14.03537,-7.01954 25.08037,-7.01954 11.097,0 19.45666,2.34054 25.08166,7.01954 5.625,4.68 8.43799,11.59317 8.43799,20.74717 v 1.76365 c 0,6.342 -1.24266,11.18583 -3.72066,14.53483 -2.481,3.35 -5.73957,5.50957 -9.77857,6.48357 v 0.37115 l 18.25419,-0.29329 v 10.19904 h -32.36595 v 20.93794 h 9.8162 v 0.001 h 5.82691 c 11.609,0 17.41454,6.23688 17.41454,18.71488 0,3.731 -0.51324,7.28774 -1.53524,10.65974 -1.023,3.375 -2.45556,6.44626 -4.29556,9.20626 z m 102.24343,0 c 1.381,-2.76 2.49223,-5.62482 3.33523,-8.58982 0.846,-2.968 1.26661,-5.95826 1.26661,-8.97526 0,-3.833 -0.81835,-6.59626 -2.45535,-8.28226 -1.635,-1.689 -4.26912,-2.53191 -7.89812,-2.53191 h -2.76292 -65.04206 v -10.20163 h 26.69218 c 11.709,0 21.25688,-1.41963 28.64788,-4.25663 7.388,-2.836 12.80884,-7.37602 16.26084,-13.61602 3.452,-6.237 5.17674,-14.44537 5.17674,-24.61837 v -8.28485 c 0,-6.392 -1.14873,-11.23812 -3.45073,-14.53612 -2.301,-3.298 -5.77733,-4.94574 -10.43133,-4.94574 -3.988,0 -7.23693,1.16095 -9.74093,3.49095 -2.506,2.324 -4.34594,6.14635 -5.52194,11.46435 l -2.07121,9.82009 c -1.586,7.311 -4.30865,12.60371 -8.17065,15.87671 -3.862,3.272 -9.08604,4.9094 -15.68204,4.9094 -7.724,0 -13.61658,-2.17591 -17.68058,-6.51991 -4.067,-4.349 -6.09814,-10.99616 -6.09814,-19.94516 v -3.14446 c 0,-5.523 0.48637,-10.45486 1.45737,-14.80086 0.971,-4.346 2.3777,-8.15761 4.2177,-11.43061 h 12.27284 c -1.792,3.375 -3.23419,7.31215 -4.33319,11.81215 -1.102,4.5 -1.65074,9.25619 -1.65074,14.26619 v 3.06918 c 0,5.369 1.01085,9.35628 3.03285,11.96528 2.019,2.609 5.04786,3.91143 9.08686,3.91143 3.58,0 6.37835,-1.06139 8.40035,-3.18339 2.02,-2.122 3.56387,-5.76567 4.63687,-10.92967 l 2.14908,-10.0485 c 1.586,-7.516 4.55039,-12.98797 8.89739,-16.41397 4.346,-3.424 10.07324,-5.1378 17.18224,-5.1378 8.334,0 14.69943,2.51751 19.09643,7.55551 4.398,5.035 6.59648,12.38711 6.59648,22.05011 v 8.28486 c 0,9.305 -1.07302,16.91138 -3.22102,22.81838 -2.147,5.905 -5.3053,10.45636 -9.4723,13.65236 -4.169,3.195 -9.29437,5.35527 -15.37837,6.48227 v 0.38284 h 4.60313 6.51991 c 11.606,0 17.40935,6.23788 17.40935,18.71488 0,3.731 -0.51194,7.28804 -1.53394,10.66104 -1.023,3.375 -2.45227,6.44496 -4.29427,9.20496 z m 121.56957,0 c 1.432,-2.76 2.57009,-5.62482 3.41309,-8.58982 0.846,-2.968 1.2653,-5.95826 1.2653,-8.97526 0,-3.833 -0.81605,-6.59626 -2.45405,-8.28226 -1.635,-1.689 -4.26912,-2.53191 -7.89812,-2.53191 h -1.00056 -77.00604 V 585.49129 H 660.449 v -0.38413 c -4.654,-1.125 -8.65522,-3.22191 -12.00422,-6.28891 -3.349,-3.068 -5.89408,-7.23725 -7.63208,-12.50125 -1.737,-5.269 -2.60718,-11.78802 -2.60718,-19.56102 v -11.42801 c 0,-10.533 2.1722,-18.35686 6.5212,-23.46986 4.343,-5.115 10.83957,-7.66971 19.48057,-7.66971 7.209,0 12.66704,1.5996 16.37504,4.7926 3.706,3.196 5.81814,7.68258 6.32914,13.46158 h 0.4607 c 0.561,-5.779 2.83618,-10.26558 6.82618,-13.46158 3.987,-3.193 9.78964,-4.7926 17.41064,-4.7926 8.334,0 14.62333,2.1354 18.86933,6.4044 4.244,4.27 6.36547,10.59653 6.36547,18.98353 v 2.14778 c 0,6.799 -1.45813,12.06743 -4.37213,15.80143 -2.916,3.731 -7.28838,5.93048 -13.11638,6.59648 v 0.38154 c 4.193,0.513 7.31309,1.96813 9.35809,4.37213 2.045,2.404 3.06659,5.77906 3.06659,10.12506 v 0.68911 c 0,4.297 -1.15142,7.76 -3.44942,10.395 -2.302,2.632 -5.75307,4.28103 -10.35607,4.94703 v 0.38284 h 2.45535 c 11.555,0 17.33408,6.23788 17.33408,18.71488 0,3.731 -0.50061,7.28804 -1.49761,10.66104 -0.997,3.375 -2.41333,6.44496 -4.25533,9.20496 z m -36.35654,-38.50432 h 5.44797 c 9.918,0 17.1927,-1.21509 21.8217,-3.64409 4.625,-2.43 6.93909,-6.12121 6.93909,-11.08021 v -0.61513 c 0,-3.888 -1.07303,-6.66019 -3.22103,-8.32119 -2.148,-1.663 -5.67646,-2.54542 -10.58446,-2.64742 l -6.28891,-0.0766 v -10.20164 l 8.12912,-0.15183 c 5.881,-0.105 10.18932,-1.34266 12.92432,-3.72066 2.736,-2.378 4.10479,-6.35664 4.10479,-11.92764 v -2.07251 c 0,-5.266 -1.26653,-9.24035 -3.79853,-11.92635 -2.532,-2.683 -6.2251,-4.02692 -11.0841,-4.02692 -5.573,0 -9.67518,1.49762 -12.30918,4.48762 -2.632,2.991 -4.05163,7.55499 -4.25663,13.68999 l -0.30497,7.44132 h -11.89131 l -0.30497,-7.51918 c -0.153,-6.083 -1.43216,-10.59556 -3.83616,-13.53556 -2.404,-2.942 -6.08617,-4.40976 -11.04517,-4.40976 -5.317,0 -9.25384,1.68623 -11.81084,5.06123 -2.558,3.375 -3.83746,8.6673 -3.83746,15.8793 v 11.50588 c 0,12.782 2.87865,22.27945 8.63265,28.49345 5.75,6.212 14.60908,9.31786 26.57408,9.31786 z M 474.98589,554.35042 c 7.209,0 12.62854,-1.61053 16.25954,-4.83153 3.632,-3.221 5.44666,-8.02733 5.44666,-14.41933 v -1.53524 c 0,-6.494 -1.81466,-11.31426 -5.44666,-14.45826 -3.631,-3.145 -9.05054,-4.71473 -16.25954,-4.71473 -7.208,0 -12.63055,1.56973 -16.25955,4.71473 -3.631,3.144 -5.44536,7.96426 -5.44536,14.45826 v 1.53524 c 0,6.392 1.81436,11.19833 5.44536,14.41933 3.629,3.221 9.05155,4.83153 16.25955,4.83153 z M 620.4899,519.68226 c 1.378,-2.968 2.51549,-5.95796 3.41049,-8.97396 0.894,-3.019 1.55994,-6.16095 1.99594,-9.43595 0.433,-3.27 0.65148,-6.74704 0.65148,-10.43004 0,-3.118 -0.20584,-5.85529 -0.61384,-8.20829 -0.10819,-0.62009 -0.23226,-1.22631 -0.37246,-1.81815 -1.76417,2.09667 -3.95386,3.84171 -6.56922,5.23254 -4.372,2.329 -9.72747,3.48966 -16.06747,3.48966 -6.904,0 -12.18337,-1.38113 -15.84037,-4.14113 -3.654,-2.763 -5.4843,-6.80271 -5.4843,-12.11971 v -0.15314 c 0,-5.317 1.8678,-9.35671 5.5998,-12.11971 3.733,-2.76 9.15384,-4.14112 16.26084,-4.14112 5.778,0 10.64939,0.93325 14.61139,2.79925 2.89329,1.36412 5.41254,3.08791 7.55682,5.17284 0.53547,-1.81735 1.00737,-3.84867 1.41714,-6.09295 0.844,-4.626 1.31515,-9.34369 1.41715,-14.15069 h 10.12506 c -0.205,3.733 -0.6628,7.45267 -1.3808,11.16067 -0.715,3.708 -1.66089,7.22124 -2.83689,10.54424 -0.71701,2.02848 -1.51111,3.91339 -2.38008,5.65431 1.18992,2.10377 2.1105,4.38566 2.76421,6.84824 0.92,3.478 1.37822,7.49214 1.37822,12.04314 0,5.574 -0.50935,10.7508 -1.53135,15.5328 -1.025,4.779 -2.55813,9.21415 -4.60313,13.30715 z m -17.10698,-38.50302 c 4.448,0 8.34965,-0.81834 11.69665,-2.45534 2.67615,-1.30614 4.98188,-3.15025 6.92221,-5.53232 -1.78071,-2.21074 -3.88282,-3.9975 -6.30708,-5.35972 -3.093,-1.737 -7.04478,-2.60848 -11.84978,-2.60848 -4.193,0 -7.33695,0.66635 -9.43595,1.99335 -2.096,1.333 -3.14446,3.29836 -3.14446,5.90736 v 0.15314 c 0,2.609 1.00996,4.57737 3.02896,5.90737 2.022,1.33 5.05045,1.99464 9.08945,1.99464 z"
       transform="matrix(0.39819944,0,0,-0.39819944,-124.07021,358.8628)"
       inkscape:export-filename="Zee Kannada HD (2025).svg"
       inkscape:export-xdpi="96"
       inkscape:export-ydpi="96" /></g></svg>
