<?xml version="1.0" encoding="UTF-8"?>
<svg id="Ziggo_logo" data-name="Ziggo logo" xmlns="http://www.w3.org/2000/svg" width="1675" height="850" viewBox="0 0 1675 850">
    <g>
        <path d="M158.260459,286.454797c41.643773,0,53.402015,25.47619,50.952381,51.932234H42.147822c-21.06685,0-37.234432-16.167582-37.234432-36.744505,0-11.268315,4.899267-21.06685,8.818681-27.925824,23.026557-40.663919,82.307692-96.515568,121.011905-134.239927h-70.059524c-41.643773,0-53.402015-25.47619-50.952381-51.932234h156.28663c24.00641,0,38.704212,16.167582,38.704212,36.744505,0,9.798535-2.93956,18.617216-12.248168,27.925824-30.375458,30.375458-94.555861,86.227106-128.360806,134.239927h90.14652M266.044342,86.07476c-14.697802,0-26.945971,10.288462-26.945971,29.395604v194.990842c0,19.107143,12.248168,29.395604,26.945971,29.395604s26.945971-10.288462,26.945971-29.395604V115.470365c0-19.107143-12.248168-29.395604-26.945971-29.395604M955.371265,83.625127c64.67033,0,119.542125,47.032967,119.542125,118.562271v21.556777c0,72.019231-54.871795,118.562271-119.542125,118.562271s-119.542125-46.54304-119.542125-118.562271v-21.556777c0-71.529304,54.871795-118.562271,119.542125-118.562271M1021.021448,203.657178c0-47.032967-32.825092-68.099817-65.650183-68.099817s-65.650183,21.06685-65.650183,68.099817v18.617216c0,47.522894,32.825092,68.099817,65.650183,68.099817s65.650183-20.576923,65.650183-68.099817v-18.617216ZM753.521448,254.119632c-7.348901,18.617216-18.127289,36.254579-54.381868,36.254579-30.375458,0-62.710623-20.576923-62.710623-68.099817v-18.617216c0-47.032967,32.335165-68.099817,63.690476-68.099817,23.516484,0,38.214286,11.268315,45.07326,16.167582,6.369048,4.409341,10.778388,6.858974,17.637363,6.858974,15.187729,0,26.945971-12.248168,26.945971-27.435897,0-5.879121-1.959707-13.717949-12.248168-22.53663-15.187729-12.738095-44.583333-24.986264-76.918498-24.986264-63.200549,0-118.072344,45.07326-118.072344,118.562271v21.556777c0,72.019231,51.932234,117.092491,110.233516,117.092491,27.13065,0,49.415499-9.186605,65.160256-24.167586v11.429491c0,49.972527-39.194139,63.200549-63.690476,63.200549-23.026557,0-40.663919-15.187729-55.361722-15.187729-20.086996,0-31.355311,18.127289-37.724359,36.254579,28.415751,22.046703,68.099817,30.865385,90.14652,30.865385,70.059524,0,120.521978-41.643773,120.521978-115.622711v-116.112637c-43.113553-3.429487-49.482601,20.576923-58.301282,42.623626M497.77969,254.119632c-7.348901,18.617216-18.127289,36.254579-54.381868,36.254579-30.375458,0-62.710623-20.576923-62.710623-68.099817v-18.617216c0-47.032967,32.335165-68.099817,63.690476-68.099817,23.516484,0,38.214286,11.268315,45.07326,16.167582,6.369048,4.409341,10.778388,6.858974,17.637363,6.858974,15.187729,0,26.945971-12.248168,26.945971-27.435897,0-5.879121-1.959707-13.717949-12.248168-22.53663-15.187729-12.738095-44.583333-24.986264-76.918498-24.986264-63.200549,0-118.072344,45.07326-118.072344,118.562271v21.556777c0,72.019231,51.932234,117.092491,110.233516,117.092491,27.13065,0,49.415499-9.186605,65.160256-24.167586v11.429491c0,49.972527-39.194139,63.200549-63.690476,63.200549-23.026557,0-40.663919-15.187729-55.361722-15.187729-20.086996,0-31.355311,18.127289-37.724359,36.254579,28.415751,22.046703,68.099817,30.865385,90.14652,30.865385,70.059524,0,120.521978-41.643773,120.521978-115.622711v-116.112637c-43.113553-3.429487-49.482601,20.576923-58.301282,42.623626M266.091257,59.063071c14.809006,0,26.814078-12.005072,26.814078-26.814078s-12.005072-26.814078-26.814078-26.814078-26.814078,12.005072-26.814078,26.814078,12.005072,26.814078,26.814078,26.814078Z" style="fill: #db6c08;"/>
        <g>
            <path d="M103.266468,611.656985c-39.943436-6.74427-61.589011-14.445625-61.589011-35.792436,0-30.254652,34.164043-34.771962,54.52883-34.771962,19.457064,0,34.374996,3.994603,45.267668,6.911578,6.42888,1.721919,11.073489,2.965816,14.942352,2.965816,8.454759,0,17.440538-6.11245,17.440538-17.440538,0-7.653552-4.432617-14.180634-11.4398-16.981221-6.864815-2.941915-36.640925-10.337751-66.210758-10.337751-57.419306,0-90.351402,26.074036-90.351402,71.53603,0,36.835771,25.071228,56.308943,86.536576,67.215125,29.365634,5.209403,60.695317,12.774625,60.695317,36.741206,0,23.835644-22.846346,38.06512-61.114106,38.06512-21.131182,0-39.15314-4.424823-52.312261-7.654591-7.481048-1.837268-12.886337-3.164299-16.835216-3.164299-8.901086,0-17.911806,5.990866-17.911806,17.440538,0,7.770979,4.63162,14.297022,12.097081,17.05812,8.37682,3.388762,43.754104,11.202348,75.432431,11.202348,60.404347,0,96.46645-27.798033,96.46645-74.35844,0-47.903026-43.298944-61.57758-85.642883-68.634643Z" style="fill: #db6c08;"/>
            <path d="M336.110069,504.799267c-68.953671,0-115.282341,46.516761-115.282341,115.75205v205.091291c0,10.923848,7.533007,18.851743,17.911286,18.851743s17.911286-7.927895,17.911286-18.851743v-103.619637c20.547163,22.33507,48.675655,34.038302,82.282178,34.038302,31.916818,0,60.875095-11.876775,81.539685-33.442853,20.242164-21.125466,31.390474-50.190258,31.390474-81.839488v-20.697324c0-66.799453-48.680851-115.282341-115.752569-115.282341ZM336.110069,539.681382c48.55563,0,79.929478,32.85156,79.929478,83.692344v14.112048c0,50.841823-31.373848,83.693383-79.929478,83.693383-48.269856,0-79.459769-32.85156-79.459769-83.693383v-14.112048c0-50.840784,31.189913-83.692344,79.459769-83.692344Z" style="fill: #db6c08;"/>
            <path d="M605.178404,504.799267c-67.071718,0-115.753089,48.482888-115.753089,115.282341v20.697324c0,66.799453,48.681371,115.282341,115.753089,115.282341,66.798934,0,115.281821-48.482888,115.281821-115.282341v-20.697324c0-66.799453-48.482888-115.282341-115.281821-115.282341ZM605.178404,721.179158c-48.55615,0-79.930517-32.85156-79.930517-83.693383v-14.112048c0-50.840784,31.374367-83.692344,79.930517-83.692344,48.269856,0,79.459249,32.85156,79.459249,83.692344v14.112048c0,50.841823-31.189393,83.693383-79.459249,83.693383Z" style="fill: #db6c08;"/>
            <path d="M895.852305,507.320315c-6.597746-1.649177-16.671026-2.521048-29.1313-2.521048-63.398221,0-99.759088,38.76137-99.759088,106.344364v123.24245c0,10.923848,7.533007,18.852782,17.911286,18.852782s17.911286-7.928934,17.911286-18.852782v-118.538088c0-66.793218,34.207169-75.790428,63.936516-76.166611,8.424103,0,14.244024,1.080746,18.493226,1.869483,2.868134.53206,5.133543.952927,7.37817.952927,9.876355,0,17.911286-7.823977,17.911286-17.441577,0-8.662595-5.444777-15.28632-14.651382-17.7419Z" style="fill: #db6c08;"/>
            <path d="M1056.763429,717.416291h-22.10801c-30.006808,0-46.532349-17.360521-46.532349-48.88505v-120.853378h63.936516c13.347732,0,19.322491-8.523345,19.322491-16.970829s-5.974759-16.970829-19.322491-16.970829h-63.936516v-33.831505c0-10.923848-7.533007-18.851743-17.911286-18.851743s-17.911286,7.927895-17.911286,18.851743v185.334424c0,54.729391,31.045987,86.117787,85.177331,86.117787h19.2856c13.347732,0,19.322491-8.523345,19.322491-16.970829,0-8.446445-5.974759-16.96979-19.322491-16.96979Z" style="fill: #db6c08;"/>
        </g>
    </g>
    <path d="M1452.071289,399.495361c-24.157715-23.920898-57.865234-37.094727-94.913086-37.094727-42.568848,0-81.90918,15.421875-111.621094,43.59082v-8.915527c0-53.75,10.875-91.681641,33.247559-115.962402,20.643066-22.404297,51.441895-33.29541,94.156738-33.29541,26.080566,0,43.470215,5.240723,56.16748,9.067871,6.822266,2.056152,12.210938,3.680176,16.677246,3.680176,9.086426,0,18.285156-6.280762,18.285156-18.285156,0-8.407227-4.302246-14.471191-12.787109-18.024414-7.42041-3.40332-37.61377-13.008789-78.949707-13.008789-108.861816,0-166.40332,64.258301-166.40332,185.828125v64.34668c0,56.661621,12.928223,101.035156,38.424805,131.887207,24.568848,29.728516,60.63623,45.442383,104.303711,45.442383,40.094238,0,76.115723-13.682617,101.429199-38.526855,26.224121-25.73877,40.085449-61.561035,40.085449-103.594727,0-38.308594-13.531738-72.805176-38.103027-97.135254ZM1420.099121,576.656982c-18.155273,16.459961-43.526367,25.524414-71.439453,25.524414-33.385254,0-59.288574-12.581543-76.991211-37.39502-17.339355-24.305176-26.131348-59.081543-26.131348-103.36377v-2.140625c23.875488-37.783691,63.947754-60.310547,107.37207-60.310547,28.698242,0,53.11084,9.009277,70.598633,26.054688,18.100098,17.64209,27.66748,43.032227,27.66748,73.425781,0,32.730469-10.746094,59.773438-31.076172,78.205078Z" style="fill: #db6c08;"/>
</svg>
