<?xml version="1.0" encoding="UTF-8"?>
<!-- Generated by Pixelmator Pro 3.5.6 -->
<svg width="250" height="250" viewBox="0 0 250 250" xmlns="http://www.w3.org/2000/svg">
    <g id="g1">
        <g id="g2">
            <g id="g3">
                <path id="path1" fill="#ffffff" stroke="none" d="M 240.690002 147.479996 L 147.479996 240.690002 C 135.070007 253.100006 114.940002 253.100006 102.519997 240.690002 L 9.31 147.479996 C -3.1 135.070007 -3.1 114.940002 9.31 102.519989 L 102.519997 9.309998 C 114.93 -3.100006 135.059998 -3.100006 147.479996 9.309998 L 240.690002 102.519989 C 253.100006 114.940002 253.100006 135.059998 240.690002 147.479996 Z"/>
                <path id="path2" fill="#009d4f" stroke="none" d="M 136.210007 197.589996 L 132.399994 197.589996 L 132.399994 192.479996 L 136.210007 192.479996 C 137 192.479996 137.610001 192.710007 138.080002 193.179993 C 138.589996 193.690002 138.850006 194.289993 138.880005 194.940002 C 138.839996 195.699997 138.580002 196.320007 138.080002 196.820007 C 137.559998 197.339996 136.949997 197.589996 136.210007 197.589996 Z M 75.830002 132.600006 C 73.43 114.139999 61.209999 105.630005 61.209999 105.630005 C 59.34 104.23999 58.740002 101.660004 59.889999 99.570007 C 61.150002 97.290009 64.019997 96.449997 66.309998 97.709991 C 71.010002 100.300003 76.349998 101.669998 81.75 101.669998 C 99.410004 101.669998 113.779999 87.300003 113.779999 69.639999 C 113.779999 53.679993 102.040001 40.399994 86.739998 38 L 16.440001 108.300003 C 11.17 113.570007 8.92 120.709991 9.67 127.580002 C 35.900002 124.489998 57.080002 127.260002 75.830002 132.600006 Z M 140.419998 207.440002 C 140.910004 206.949997 141.149994 206.380005 141.149994 205.710007 C 141.149994 205.110001 140.899994 204.550003 140.389999 203.979996 C 139.910004 203.479996 139.300003 203.210007 138.570007 203.179993 L 132.389999 203.179993 L 132.389999 208.139999 L 138.800003 208.139999 C 139.429993 208.139999 139.949997 207.919998 140.419998 207.440002 Z M 75.860001 142.419998 C 57.790001 136.940002 37.799999 134.009995 12.65 136.740005 C 13.67 138.509995 14.93 140.179993 16.440001 141.699997 L 50.439999 175.699997 C 64.080002 170.190002 74.099998 157.550003 75.860001 142.419998 Z M 213.350006 121.089996 C 204 121.089996 196.389999 128.699997 196.389999 138.050003 C 196.389999 147.399994 204 155.009995 213.350006 155.009995 C 217.410004 155.009995 221.139999 153.570007 224.059998 151.179993 L 226.479996 148.759995 C 228.869995 145.839996 230.309998 142.110001 230.309998 138.050003 C 230.320007 128.699997 222.710007 121.089996 213.350006 121.089996 Z M 149.130005 96.610001 C 136.630005 96.610001 126.449997 106.779999 126.449997 119.290009 C 126.449997 131.789993 136.619995 141.970001 149.130005 141.970001 C 161.630005 141.970001 171.809998 131.800003 171.809998 119.290009 C 171.809998 106.779999 161.630005 96.610001 149.130005 96.610001 Z M 239.210007 132.649994 C 236.710007 120.669998 226.070007 111.649994 213.360001 111.649994 C 198.800003 111.649994 186.949997 123.5 186.949997 138.059998 C 186.949997 151.800003 197.490005 163.110001 210.910004 164.350006 L 203.839996 171.419998 C 168.729996 171.330002 144.020004 160.399994 118.169998 148.949997 C 107.639999 144.289993 96.980003 139.570007 85.529999 135.660004 C 85.18 126.790001 82.550003 118.300003 77.949997 110.940002 C 79.209999 111.059998 80.470001 111.130005 81.739998 111.130005 C 104.610001 111.130005 123.220001 92.519989 123.220001 69.649994 C 123.220001 51.240005 111.169998 35.610001 94.540001 30.199997 L 108.290001 16.449997 C 117.510002 7.229996 132.470001 7.229996 141.690002 16.449997 L 233.550003 108.309998 C 240.139999 114.880005 242.020004 124.389999 239.210007 132.649994 Z M 181.25 119.290009 C 181.25 101.580002 166.839996 87.169998 149.130005 87.169998 C 131.419998 87.169998 117.010002 101.580002 117.010002 119.290009 C 117.010002 137 131.419998 151.419998 149.130005 151.419998 C 166.839996 151.410004 181.25 137 181.25 119.290009 Z M 114.349998 157.580002 C 137.940002 168.029999 162.119995 178.740005 194.690002 180.570007 L 141.699997 233.559998 C 132.479996 242.779999 117.519997 242.779999 108.300003 233.559998 L 57.580002 182.839996 C 71.940002 175.669998 82.440002 161.850006 84.989998 145.440002 C 95.019997 149.020004 104.599998 153.259995 114.349998 157.580002 Z M 126.809998 210.929993 C 126.809998 211.710007 127.110001 212.399994 127.620003 212.869995 C 128.139999 213.429993 128.830002 213.729996 129.610001 213.729996 L 139.100006 213.729996 L 139.139999 213.729996 C 141.179993 213.570007 142.970001 212.729996 144.490005 211.210007 C 145.919998 209.699997 146.669998 207.860001 146.720001 205.720001 C 146.720001 204.229996 146.309998 202.809998 145.509995 201.5 C 144.929993 200.539993 144.199997 199.75 143.320007 199.119995 C 144.029999 197.910004 144.410004 196.550003 144.460007 195.029999 C 144.460007 192.839996 143.669998 190.940002 142.089996 189.369995 C 140.539993 187.850006 138.679993 187.020004 136.509995 186.910004 L 129.649994 186.910004 C 128.889999 186.910004 128.199997 187.190002 127.650002 187.740005 C 127.110001 188.279999 126.82 188.960007 126.82 189.699997 L 126.82 210.929993 Z M 120.790001 186.759995 L 106.510002 186.759995 C 105.75 186.759995 105.07 187.029999 104.550003 187.550003 C 104.010002 188.089996 103.720001 188.789993 103.720001 189.550003 C 103.720001 190.289993 104.010002 190.970001 104.550003 191.509995 C 105.07 192.029999 105.75 192.309998 106.510002 192.309998 L 110.849998 192.309998 L 110.849998 210.940002 C 110.849998 211.720001 111.150002 212.410004 111.660004 212.880005 C 112.18 213.440002 112.870003 213.740005 113.650002 213.740005 C 114.389999 213.740005 115.07 213.449997 115.610001 212.910004 C 116.129997 212.389999 116.410004 211.710007 116.410004 210.949997 L 116.410004 192.320007 L 120.790001 192.320007 C 121.459999 192.320007 122.089996 192.070007 122.68 191.589996 L 122.82 191.449997 C 123.309998 190.860001 123.550003 190.229996 123.550003 189.559998 C 123.550003 188.869995 123.300003 188.220001 122.82 187.630005 L 122.68 187.490005 C 122.089996 187 121.459999 186.759995 120.790001 186.759995 Z"/>
            </g>
        </g>
    </g>
</svg>
