<?xml version="1.0" encoding="UTF-8"?>
<svg width="900px" height="300px" viewBox="0 0 900 300" version="1.1" xmlns="http://www.w3.org/2000/svg" xmlns:xlink="http://www.w3.org/1999/xlink">
    <title>zoom</title>
    <g id="Zoom" stroke="none" stroke-width="1" fill="none" fill-rule="evenodd">
        <g transform="translate(-50, -350)" fill="#EA2030" id="zoom">
            <path d="M385.334972,526.801475 C375.562385,535.596804 363.773817,540 349.993854,540 C336.226183,540 324.437615,535.596804 314.665028,526.801475 C304.89244,518.006146 300,507.396435 300,494.994468 C300,482.603565 304.89244,471.993854 314.665028,463.198525 C324.437615,454.403196 336.226183,450 349.993854,450 C363.773817,450 375.562385,454.403196 385.334972,463.198525 C395.10756,471.993854 400,482.603565 400,494.994468 C400,507.396435 395.10756,518.006146 385.334972,526.801475 L385.334972,526.801475 Z M349.994205,390 C319.618606,390 293.693305,400.743863 272.218301,422.219998 C250.743297,443.696133 240,469.622801 240,500 C240,530.388789 250.743297,556.315457 272.218301,577.791592 C293.693305,599.267727 319.618606,610 349.994205,610 C380.381394,610 406.306695,599.267727 427.781699,577.791592 C449.256703,556.315457 460,530.388789 460,500 C460,469.622801 449.256703,443.696133 427.781699,422.219998 C406.306695,400.743863 380.381394,390 349.994205,390 L349.994205,390 Z M50,420 L50,465.707727 L133.625957,465.707727 L50,580 L240,580 L240,534.280795 L156.362026,534.280795 L240,420 L50,420 Z M869.994261,480.378976 L790,410 L790,580 L835.719205,580 L835.719205,510.75929 L869.994261,540.900569 L904.280795,510.75929 L904.280795,580 L950,580 L950,410 L869.994261,480.378976 Z M670.929212,540.927467 C658.207426,553.650416 642.905616,560 624.98811,560 C607.082495,560 591.768795,553.650416 579.070788,540.927467 C566.349003,528.2283 560,512.913199 560,494.994055 C560,477.086801 566.349003,461.7717 579.070788,449.060642 C591.768795,436.349584 607.082495,430 624.98811,430 C642.905616,430 658.207426,436.349584 670.929212,449.060642 C683.639107,461.7717 690,477.086801 690,494.994055 C690,512.913199 683.639107,528.2283 670.929212,540.927467 L670.929212,540.927467 Z M619.99412,350 C578.564933,350 543.215476,364.640743 513.92223,393.92223 C484.640743,423.215476 470,458.576692 470,499.99412 C470,541.423308 484.640743,576.784524 513.92223,606.07777 C543.215476,635.359257 578.564933,650 619.99412,650 C661.435067,650 696.784524,635.359257 726.07777,606.07777 C755.359257,576.784524 770,541.423308 770,499.99412 C770,458.576692 755.359257,423.215476 726.07777,393.92223 C696.784524,364.640743 661.435067,350 619.99412,350 L619.99412,350 Z"></path>
        </g>
    </g>
</svg>